<svg width="328" height="216" viewBox="0 0 328 216" fill="none" xmlns="http://www.w3.org/2000/svg">
<g clip-path="url(#clip0_1002_3609)">
<path d="M0 12C0 5.37259 5.37258 0 12 0H316C322.627 0 328 5.37258 328 12V204C328 210.627 322.627 216 316 216H12C5.37259 216 0 210.627 0 204V12Z" fill="#C1DADE"/>
<g filter="url(#filter0_ddd_1002_3609)">
<circle cx="164.5" cy="108.5" r="126.5" fill="white"/>
</g>
<circle cx="164.5" cy="108.5" r="111.618" fill="#125FCA"/>
<circle cx="164.5" cy="57.9" r="12.8941" fill="white" stroke="white"/>
<mask id="path-5-inside-1_1002_3609" fill="white">
<path fill-rule="evenodd" clip-rule="evenodd" d="M214.978 77.3274C215.756 80.5486 213.775 83.7902 210.554 84.5678L174.916 93.1699V119.984L196.541 159.178C198.141 162.08 197.087 165.729 194.186 167.33C191.284 168.931 187.635 167.877 186.034 164.975L165.549 127.847H163.659L144.528 164.833C143.006 167.776 139.386 168.928 136.442 167.406C133.499 165.884 132.347 162.263 133.87 159.32L154.081 120.245V92.8106L119.932 84.5678C116.711 83.7902 114.73 80.5486 115.508 77.3274C116.285 74.1062 119.527 72.1252 122.748 72.9028L165.243 83.1603L207.738 72.9028C210.959 72.1252 214.201 74.1062 214.978 77.3274ZM165.218 86.1764H165.269L165.243 86.0707L165.218 86.1764Z"/>
</mask>
<path fill-rule="evenodd" clip-rule="evenodd" d="M214.978 77.3274C215.756 80.5486 213.775 83.7902 210.554 84.5678L174.916 93.1699V119.984L196.541 159.178C198.141 162.08 197.087 165.729 194.186 167.33C191.284 168.931 187.635 167.877 186.034 164.975L165.549 127.847H163.659L144.528 164.833C143.006 167.776 139.386 168.928 136.442 167.406C133.499 165.884 132.347 162.263 133.87 159.32L154.081 120.245V92.8106L119.932 84.5678C116.711 83.7902 114.73 80.5486 115.508 77.3274C116.285 74.1062 119.527 72.1252 122.748 72.9028L165.243 83.1603L207.738 72.9028C210.959 72.1252 214.201 74.1062 214.978 77.3274ZM165.218 86.1764H165.269L165.243 86.0707L165.218 86.1764Z" fill="white"/>
<path d="M210.554 84.5678L210.319 83.5957V83.5957L210.554 84.5678ZM214.978 77.3274L214.006 77.5621V77.5621L214.978 77.3274ZM174.916 93.1699L174.681 92.1978L173.916 92.3826V93.1699H174.916ZM174.916 119.984H173.916V120.241L174.041 120.467L174.916 119.984ZM196.541 159.178L195.665 159.661V159.661L196.541 159.178ZM194.186 167.33L193.703 166.455V166.455L194.186 167.33ZM186.034 164.975L186.909 164.492V164.492L186.034 164.975ZM165.549 127.847L166.425 127.364L166.14 126.847H165.549V127.847ZM163.659 127.847V126.847H163.05L162.771 127.388L163.659 127.847ZM144.528 164.833L145.417 165.293V165.293L144.528 164.833ZM133.87 159.32L132.981 158.861H132.981L133.87 159.32ZM154.081 120.245L154.969 120.705L155.081 120.489V120.245H154.081ZM154.081 92.8106H155.081V92.0233L154.315 91.8386L154.081 92.8106ZM119.932 84.5678L120.167 83.5957V83.5957L119.932 84.5678ZM122.748 72.9028L122.513 73.8749V73.8749L122.748 72.9028ZM165.243 83.1603L165.008 84.1324L165.243 84.189L165.477 84.1324L165.243 83.1603ZM207.738 72.9028L207.503 71.9307V71.9307L207.738 72.9028ZM165.218 86.1764L164.245 85.9417L163.947 87.1764H165.218V86.1764ZM165.269 86.1764V87.1764H166.539L166.241 85.9417L165.269 86.1764ZM165.243 86.0707L166.215 85.836H164.271L165.243 86.0707ZM210.788 85.5398C214.546 84.6327 216.858 80.8508 215.95 77.0928L214.006 77.5621C214.654 80.2464 213.003 82.9477 210.319 83.5957L210.788 85.5398ZM175.151 94.142L210.788 85.5398L210.319 83.5957L174.681 92.1978L175.151 94.142ZM173.916 93.1699V119.984H175.916V93.1699H173.916ZM174.041 120.467L195.665 159.661L197.416 158.695L175.792 119.501L174.041 120.467ZM195.665 159.661C196.999 162.079 196.12 165.121 193.703 166.455L194.669 168.206C198.054 166.338 199.284 162.08 197.416 158.695L195.665 159.661ZM193.703 166.455C191.285 167.788 188.243 166.91 186.909 164.492L185.158 165.458C187.026 168.843 191.284 170.073 194.669 168.206L193.703 166.455ZM186.909 164.492L166.425 127.364L164.674 128.33L185.158 165.458L186.909 164.492ZM165.549 126.847H163.659V128.847H165.549V126.847ZM162.771 127.388L143.64 164.374L145.417 165.293L164.547 128.306L162.771 127.388ZM143.64 164.374C142.371 166.826 139.355 167.786 136.902 166.518L135.983 168.294C139.417 170.07 143.64 168.726 145.417 165.293L143.64 164.374ZM136.902 166.518C134.449 165.249 133.489 162.232 134.758 159.78L132.981 158.861C131.205 162.295 132.549 166.518 135.983 168.294L136.902 166.518ZM134.758 159.78L154.969 120.705L153.193 119.786L132.981 158.861L134.758 159.78ZM155.081 120.245V92.8106H153.081V120.245H155.081ZM119.698 85.5398L153.846 93.7827L154.315 91.8386L120.167 83.5957L119.698 85.5398ZM114.536 77.0928C113.628 80.8508 115.94 84.6327 119.698 85.5398L120.167 83.5957C117.483 82.9477 115.832 80.2464 116.48 77.562L114.536 77.0928ZM122.983 71.9307C119.225 71.0236 115.443 73.3347 114.536 77.0928L116.48 77.562C117.128 74.8777 119.829 73.2269 122.513 73.8749L122.983 71.9307ZM165.477 82.1882L122.983 71.9307L122.513 73.8749L165.008 84.1324L165.477 82.1882ZM207.503 71.9307L165.008 82.1882L165.477 84.1324L207.973 73.8749L207.503 71.9307ZM215.95 77.0928C215.043 73.3347 211.261 71.0236 207.503 71.9307L207.973 73.8749C210.657 73.2269 213.358 74.8777 214.006 77.5621L215.95 77.0928ZM165.218 87.1764H165.269V85.1764H165.218V87.1764ZM164.271 86.3053L164.296 86.411L166.241 85.9417L166.215 85.836L164.271 86.3053ZM166.19 86.411L166.215 86.3053L164.271 85.836L164.245 85.9417L166.19 86.411Z" fill="white" mask="url(#path-5-inside-1_1002_3609)"/>
</g>
<defs>
<filter id="filter0_ddd_1002_3609" x="33" y="-22" width="263" height="263" filterUnits="userSpaceOnUse" color-interpolation-filters="sRGB">
<feFlood flood-opacity="0" result="BackgroundImageFix"/>
<feColorMatrix in="SourceAlpha" type="matrix" values="0 0 0 0 0 0 0 0 0 0 0 0 0 0 0 0 0 0 127 0" result="hardAlpha"/>
<feOffset dy="1"/>
<feGaussianBlur stdDeviation="2.5"/>
<feColorMatrix type="matrix" values="0 0 0 0 0 0 0 0 0 0 0 0 0 0 0 0 0 0 0.06 0"/>
<feBlend mode="normal" in2="BackgroundImageFix" result="effect1_dropShadow_1002_3609"/>
<feColorMatrix in="SourceAlpha" type="matrix" values="0 0 0 0 0 0 0 0 0 0 0 0 0 0 0 0 0 0 127 0" result="hardAlpha"/>
<feMorphology radius="2" operator="erode" in="SourceAlpha" result="effect2_dropShadow_1002_3609"/>
<feOffset dy="3"/>
<feGaussianBlur stdDeviation="0.5"/>
<feColorMatrix type="matrix" values="0 0 0 0 0 0 0 0 0 0 0 0 0 0 0 0 0 0 0.07 0"/>
<feBlend mode="normal" in2="effect1_dropShadow_1002_3609" result="effect2_dropShadow_1002_3609"/>
<feColorMatrix in="SourceAlpha" type="matrix" values="0 0 0 0 0 0 0 0 0 0 0 0 0 0 0 0 0 0 127 0" result="hardAlpha"/>
<feOffset dy="2"/>
<feGaussianBlur stdDeviation="1"/>
<feColorMatrix type="matrix" values="0 0 0 0 0 0 0 0 0 0 0 0 0 0 0 0 0 0 0.03 0"/>
<feBlend mode="normal" in2="effect2_dropShadow_1002_3609" result="effect3_dropShadow_1002_3609"/>
<feBlend mode="normal" in="SourceGraphic" in2="effect3_dropShadow_1002_3609" result="shape"/>
</filter>
<clipPath id="clip0_1002_3609">
<path d="M0 12C0 5.37259 5.37258 0 12 0H316C322.627 0 328 5.37258 328 12V204C328 210.627 322.627 216 316 216H12C5.37259 216 0 210.627 0 204V12Z" fill="white"/>
</clipPath>
</defs>
</svg>
