<svg width="1032" height="400" viewBox="0 0 1032 400" fill="none" xmlns="http://www.w3.org/2000/svg">
<rect width="1032" height="400" rx="16" fill="#EFEDEA"/>
<mask id="mask0_11634_3165" style="mask-type:alpha" maskUnits="userSpaceOnUse" x="0" y="0" width="1032" height="400">
<rect width="1032" height="400" rx="16" fill="#00DCFF"/>
</mask>
<g mask="url(#mask0_11634_3165)">
<g filter="url(#filter0_f_11634_3165)">
<rect x="136" y="-28" width="929" height="389" rx="24" fill="#8E8E8E"/>
<rect x="139" y="-25" width="923" height="383" rx="21" stroke="#DBD9D7" stroke-width="6"/>
</g>
<rect x="140" y="-24" width="962" height="381" rx="20" fill="white" stroke="#DBD9D7" stroke-width="8"/>
<path d="M168 329.229H1093V353.229H144V-7.77148H168V329.229Z" fill="#F5F3F1"/>
<g filter="url(#filter1_ddd_11634_3165)">
<g clip-path="url(#clip0_11634_3165)">
<path d="M168 256.204C168 248.359 174.359 242 182.204 242H915.046C922.891 242 929.25 248.359 929.25 256.204V314.796C929.25 322.641 922.891 329 915.046 329H182.204C174.359 329 168 322.641 168 314.796V256.204Z" fill="#F6C243"/>
<path d="M189 285.5C189 269.484 201.984 256.5 218 256.5C234.016 256.5 247 269.484 247 285.5C247 301.516 234.016 314.5 218 314.5C201.984 314.5 189 301.516 189 285.5Z" fill="white" fill-opacity="0.01"/>
<path d="M226.762 274.637L218 283.399L209.238 274.637L207.136 276.738L215.899 285.5L207.136 294.263L209.238 296.364L218 287.602L226.762 296.364L228.864 294.263L220.101 285.5L228.864 276.738L226.762 274.637Z" fill="#242E30"/>
<g clip-path="url(#clip1_11634_3165)">
<path d="M255 285.5C255 269.277 268.152 256.125 284.375 256.125H312.625C328.848 256.125 342 269.277 342 285.5C342 301.723 328.848 314.875 312.625 314.875H284.375C268.152 314.875 255 301.723 255 285.5Z" fill="white" fill-opacity="0.01"/>
<path d="M274.196 294.305C273.976 294.305 273.748 294.296 273.511 294.279C273.274 294.279 273.037 294.271 272.8 294.254C272.58 294.237 272.377 294.22 272.191 294.203C272.022 294.186 271.887 294.169 271.785 294.152V291.488C272.09 291.522 272.386 291.556 272.673 291.589C272.978 291.606 273.249 291.615 273.485 291.615C274.314 291.615 274.729 291.073 274.729 289.991V282.023H271.785V279.333H286.351V294H282.976V282.023H278.104V290.041C278.104 290.667 278.019 291.243 277.85 291.767C277.681 292.274 277.427 292.723 277.089 293.112C276.767 293.484 276.361 293.78 275.871 294C275.38 294.203 274.822 294.305 274.196 294.305ZM289.868 279.333H293.217V289.204H289.868V279.333ZM296.782 279.333H300.157V294H296.782V279.333ZM303.721 279.333H307.096V294H303.721V279.333ZM312.283 294.305C312.063 294.305 311.835 294.296 311.598 294.279C311.361 294.279 311.124 294.271 310.888 294.254C310.668 294.237 310.465 294.22 310.279 294.203C310.109 294.186 309.974 294.169 309.873 294.152V291.488C310.177 291.522 310.473 291.556 310.761 291.589C311.065 291.606 311.336 291.615 311.573 291.615C312.402 291.615 312.816 291.073 312.816 289.991V282.023H309.873V279.333H324.438V294H321.063V282.023H316.191V290.041C316.191 290.667 316.106 291.243 315.937 291.767C315.768 292.274 315.514 292.723 315.176 293.112C314.855 293.484 314.449 293.78 313.958 294C313.467 294.203 312.909 294.305 312.283 294.305Z" fill="#242E30"/>
</g>
<path d="M801.281 284.332C801.281 283.317 801.044 282.539 800.571 281.998C800.097 281.439 799.403 281.16 798.49 281.16H792.019V279.333H798.49C799.995 279.333 801.188 279.756 802.068 280.602C802.964 281.448 803.413 282.691 803.413 284.332V294H801.281V284.332ZM792.019 285.372H794.176V294H792.019V285.372ZM809.548 296.664H814.826V298.288H812.898V301.587H811.502V298.288H809.548V296.664ZM806.717 292.173H809.381L806.717 279.333H808.95L811.614 292.198C812.274 292.232 812.841 292.156 813.314 291.97C813.805 291.767 814.211 291.361 814.532 290.752C814.854 290.126 815.09 289.238 815.243 288.088C815.412 286.92 815.496 285.398 815.496 283.52V279.333H817.653V283.647C817.653 285.88 817.526 287.673 817.273 289.026C817.019 290.38 816.638 291.429 816.131 292.173C815.623 292.9 814.997 293.391 814.253 293.645C813.509 293.882 812.646 294 811.665 294H806.717V292.173ZM824.912 296.664H830.19V298.288H828.261V301.587H826.866V298.288H824.912V296.664ZM819.811 279.333H830.722V281.16H828.616V294H826.484V281.16H819.811V279.333ZM833.749 279.333H835.906V294H833.749V279.333ZM834.84 277.532C834.485 277.532 834.206 277.422 834.003 277.202C833.8 276.965 833.698 276.694 833.698 276.39C833.698 276.085 833.8 275.815 834.003 275.578C834.206 275.341 834.485 275.222 834.84 275.222C835.196 275.222 835.475 275.341 835.678 275.578C835.881 275.815 835.982 276.085 835.982 276.39C835.982 276.694 835.881 276.965 835.678 277.202C835.475 277.422 835.196 277.532 834.84 277.532ZM849.677 284.332C849.677 283.317 849.44 282.539 848.966 281.998C848.493 281.439 847.799 281.16 846.886 281.16H840.415V279.333H846.886C848.391 279.333 849.584 279.756 850.464 280.602C851.36 281.448 851.808 282.691 851.808 284.332V294H849.677V284.332ZM840.415 285.372H842.572V294H840.415V285.372Z" fill="#242E30"/>
<g clip-path="url(#clip2_11634_3165)">
<path d="M883.612 280.948H880.638V286.895H883.612V280.948Z" fill="#242E30"/>
<path d="M882.125 292.842C883.22 292.842 884.107 291.955 884.107 290.86C884.107 289.765 883.22 288.877 882.125 288.877C881.03 288.877 880.143 289.765 880.143 290.86C880.143 291.955 881.03 292.842 882.125 292.842Z" fill="#242E30"/>
<path d="M894.376 298.294H869.874C869.255 298.297 868.646 298.131 868.115 297.813C867.584 297.495 867.15 297.037 866.86 296.49C866.551 295.928 866.397 295.294 866.415 294.653C866.432 294.012 866.62 293.387 866.959 292.842L879.211 273.216C879.509 272.707 879.935 272.284 880.445 271.989C880.956 271.694 881.535 271.536 882.125 271.531C882.711 271.532 883.287 271.684 883.798 271.972C884.308 272.26 884.736 272.675 885.039 273.177L897.291 292.842C897.622 293.4 897.797 294.037 897.797 294.686C897.797 295.335 897.622 295.972 897.291 296.53C897.004 297.055 896.583 297.495 896.071 297.804C895.559 298.114 894.975 298.283 894.376 298.294ZM882.125 274.505C882.043 274.503 881.963 274.525 881.893 274.567C881.823 274.609 881.766 274.67 881.729 274.743L869.477 294.389C869.418 294.491 869.387 294.607 869.387 294.726C869.387 294.844 869.418 294.96 869.477 295.063C869.515 295.141 869.574 295.206 869.648 295.252C869.722 295.298 869.807 295.321 869.893 295.32H894.376C894.463 295.321 894.548 295.298 894.622 295.252C894.696 295.206 894.755 295.141 894.793 295.063C894.852 294.96 894.883 294.844 894.883 294.726C894.883 294.607 894.852 294.491 894.793 294.389L882.521 274.743C882.484 274.67 882.427 274.609 882.357 274.567C882.287 274.525 882.207 274.503 882.125 274.505Z" fill="#242E30"/>
</g>
</g>
</g>
<rect x="140" y="-24" width="907" height="381" rx="20" stroke="#DBD9D7" stroke-width="8"/>
<path d="M209 329L209 353" stroke="#FF8000"/>
<path d="M200 353H218" stroke="#FF8000"/>
<path d="M200 329H218" stroke="#FF8000"/>
<path d="M168 288L144 288" stroke="#FF8000"/>
<path d="M144 279L144 297" stroke="#FF8000"/>
<path d="M168 279L168 297" stroke="#FF8000"/>
<circle cx="90" cy="332.229" r="12" fill="#262626"/>
<path d="M86.9599 335.731H89.4099V330.089L87.2959 330.943L86.6939 329.627L89.9419 328.129H91.2719V335.731H93.4559V337.229H86.9599V335.731Z" fill="white"/>
<rect x="102" y="331.729" width="56" height="1" rx="0.5" fill="#FF8000"/>
</g>
<defs>
<filter id="filter0_f_11634_3165" x="36" y="-128" width="1129" height="589" filterUnits="userSpaceOnUse" color-interpolation-filters="sRGB">
<feFlood flood-opacity="0" result="BackgroundImageFix"/>
<feBlend mode="normal" in="SourceGraphic" in2="BackgroundImageFix" result="shape"/>
<feGaussianBlur stdDeviation="50" result="effect1_foregroundBlur_11634_3165"/>
</filter>
<filter id="filter1_ddd_11634_3165" x="158" y="238" width="781.25" height="109" filterUnits="userSpaceOnUse" color-interpolation-filters="sRGB">
<feFlood flood-opacity="0" result="BackgroundImageFix"/>
<feColorMatrix in="SourceAlpha" type="matrix" values="0 0 0 0 0 0 0 0 0 0 0 0 0 0 0 0 0 0 127 0" result="hardAlpha"/>
<feOffset dy="4"/>
<feGaussianBlur stdDeviation="3"/>
<feColorMatrix type="matrix" values="0 0 0 0 0 0 0 0 0 0 0 0 0 0 0 0 0 0 0.04 0"/>
<feBlend mode="normal" in2="BackgroundImageFix" result="effect1_dropShadow_11634_3165"/>
<feColorMatrix in="SourceAlpha" type="matrix" values="0 0 0 0 0 0 0 0 0 0 0 0 0 0 0 0 0 0 127 0" result="hardAlpha"/>
<feMorphology radius="2" operator="erode" in="SourceAlpha" result="effect2_dropShadow_11634_3165"/>
<feOffset dy="8"/>
<feGaussianBlur stdDeviation="6"/>
<feColorMatrix type="matrix" values="0 0 0 0 0 0 0 0 0 0 0 0 0 0 0 0 0 0 0.06 0"/>
<feBlend mode="normal" in2="effect1_dropShadow_11634_3165" result="effect2_dropShadow_11634_3165"/>
<feColorMatrix in="SourceAlpha" type="matrix" values="0 0 0 0 0 0 0 0 0 0 0 0 0 0 0 0 0 0 127 0" result="hardAlpha"/>
<feOffset dy="2"/>
<feGaussianBlur stdDeviation="3"/>
<feColorMatrix type="matrix" values="0 0 0 0 0 0 0 0 0 0 0 0 0 0 0 0 0 0 0.04 0"/>
<feBlend mode="normal" in2="effect2_dropShadow_11634_3165" result="effect3_dropShadow_11634_3165"/>
<feBlend mode="normal" in="SourceGraphic" in2="effect3_dropShadow_11634_3165" result="shape"/>
</filter>
<clipPath id="clip0_11634_3165">
<path d="M168 256.204C168 248.359 174.359 242 182.204 242H915.046C922.891 242 929.25 248.359 929.25 256.204V314.796C929.25 322.641 922.891 329 915.046 329H182.204C174.359 329 168 322.641 168 314.796V256.204Z" fill="white"/>
</clipPath>
<clipPath id="clip1_11634_3165">
<path d="M255 285.5C255 269.277 268.152 256.125 284.375 256.125H312.625C328.848 256.125 342 269.277 342 285.5C342 301.723 328.848 314.875 312.625 314.875H284.375C268.152 314.875 255 301.723 255 285.5Z" fill="white"/>
</clipPath>
<clipPath id="clip2_11634_3165">
<rect width="31.7188" height="31.7188" fill="white" transform="translate(866.266 269.266)"/>
</clipPath>
</defs>
</svg>
