<svg width="984" height="196" viewBox="0 0 984 196" fill="none" xmlns="http://www.w3.org/2000/svg">
<rect y="8" width="8" height="8" rx="2" fill="#FF8000"/>
<path d="M19.76 17.824C18.992 17.7707 18.368 17.616 17.888 17.36C17.408 17.104 17.0133 16.7893 16.704 16.416L17.584 15.616C17.872 15.9467 18.24 16.2133 18.688 16.416C19.136 16.608 19.68 16.704 20.32 16.704C20.608 16.704 20.88 16.6827 21.136 16.64C21.392 16.5867 21.6213 16.5013 21.824 16.384C22.0267 16.256 22.1867 16.096 22.304 15.904C22.4213 15.7013 22.48 15.456 22.48 15.168C22.48 14.9013 22.4213 14.6827 22.304 14.512C22.1867 14.3307 22.0213 14.1707 21.808 14.032C21.5947 13.8933 21.3387 13.7707 21.04 13.664C20.752 13.5573 20.432 13.44 20.08 13.312C19.7067 13.184 19.3387 13.0453 18.976 12.896C18.624 12.7467 18.304 12.5653 18.016 12.352C17.7387 12.1387 17.5147 11.8827 17.344 11.584C17.1733 11.2747 17.088 10.896 17.088 10.448C17.088 9.65867 17.344 9.04 17.856 8.592C18.3787 8.144 19.0613 7.87733 19.904 7.792V6.32H21.088V7.792C22.2933 7.90933 23.2107 8.39467 23.84 9.248L22.96 10.064C22.672 9.73333 22.3147 9.456 21.888 9.232C21.472 9.008 20.976 8.896 20.4 8.896C20.1547 8.896 19.9147 8.92267 19.68 8.976C19.456 9.01867 19.2533 9.09867 19.072 9.216C18.8907 9.33333 18.7413 9.488 18.624 9.68C18.5173 9.86133 18.464 10.0907 18.464 10.368C18.464 10.6347 18.5227 10.8587 18.64 11.04C18.7573 11.2107 18.9227 11.3653 19.136 11.504C19.3493 11.6427 19.6 11.7653 19.888 11.872C20.1867 11.9787 20.512 12.096 20.864 12.224C21.2373 12.352 21.6 12.4907 21.952 12.64C22.3147 12.7893 22.6347 12.9707 22.912 13.184C23.2 13.3973 23.4293 13.6587 23.6 13.968C23.7707 14.2667 23.856 14.64 23.856 15.088C23.856 15.504 23.7813 15.872 23.632 16.192C23.4933 16.5013 23.2907 16.768 23.024 16.992C22.768 17.216 22.4587 17.3973 22.096 17.536C21.744 17.664 21.36 17.7493 20.944 17.792V19.28H19.76V17.824ZM28.542 18.192C27.8273 18.192 27.3047 17.9787 26.974 17.552C26.6433 17.1253 26.478 16.5387 26.478 15.792V11.136H25.07V10.096H26.478V7.952H27.742V10.096H30.03V11.136H27.742V15.68C27.742 16.192 27.838 16.5493 28.03 16.752C28.2327 16.9547 28.4887 17.056 28.798 17.056C29.0113 17.056 29.2033 17.0187 29.374 16.944C29.5447 16.8587 29.7047 16.7467 29.854 16.608L30.43 17.504C29.9393 17.9627 29.31 18.192 28.542 18.192ZM33.6605 8C33.6605 8.224 33.5805 8.416 33.4205 8.576C33.2712 8.736 33.0685 8.816 32.8125 8.816C32.5458 8.816 32.3378 8.736 32.1885 8.576C32.0392 8.416 31.9645 8.224 31.9645 8C31.9645 7.78667 32.0392 7.6 32.1885 7.44C32.3378 7.26933 32.5458 7.184 32.8125 7.184C33.0685 7.184 33.2712 7.26933 33.4205 7.44C33.5805 7.6 33.6605 7.78667 33.6605 8ZM32.1725 10.096H33.4525V18H32.1725V10.096ZM36.1725 10.096H37.3885V11.344H37.4845C37.6765 10.928 37.9432 10.5867 38.2845 10.32C38.6365 10.0427 39.0738 9.904 39.5965 9.904C40.2258 9.904 40.7538 10.0213 41.1805 10.256C41.6178 10.48 41.9432 10.8213 42.1565 11.28C42.3912 10.832 42.7058 10.4907 43.1005 10.256C43.4952 10.0213 43.9965 9.904 44.6045 9.904C45.0418 9.904 45.4365 9.96267 45.7885 10.08C46.1405 10.1973 46.4392 10.3787 46.6845 10.624C46.9405 10.8693 47.1325 11.184 47.2605 11.568C47.3992 11.952 47.4685 12.4107 47.4685 12.944V18H46.1885V13.184C46.1885 12.3733 46.0285 11.8027 45.7085 11.472C45.3992 11.1307 44.9405 10.96 44.3325 10.96C43.7458 10.96 43.2872 11.168 42.9565 11.584C42.6258 12 42.4605 12.608 42.4605 13.408V18H41.1805V13.184C41.1805 12.3733 41.0205 11.8027 40.7005 11.472C40.3912 11.1307 39.9325 10.96 39.3245 10.96C38.7485 10.96 38.2898 11.168 37.9485 11.584C37.6178 12 37.4525 12.608 37.4525 13.408V18H36.1725V10.096ZM51.5355 8C51.5355 8.224 51.4555 8.416 51.2955 8.576C51.1462 8.736 50.9435 8.816 50.6875 8.816C50.4208 8.816 50.2128 8.736 50.0635 8.576C49.9142 8.416 49.8395 8.224 49.8395 8C49.8395 7.78667 49.9142 7.6 50.0635 7.44C50.2128 7.26933 50.4208 7.184 50.6875 7.184C50.9435 7.184 51.1462 7.26933 51.2955 7.44C51.4555 7.6 51.5355 7.78667 51.5355 8ZM50.0475 10.096H51.3275V18H50.0475V10.096ZM54.0475 10.096H55.2635V11.344H55.3595C55.5515 10.928 55.8235 10.5867 56.1755 10.32C56.5275 10.0427 56.9755 9.904 57.5195 9.904C58.4262 9.904 59.1408 10.144 59.6635 10.624C60.1968 11.104 60.4635 11.8773 60.4635 12.944V18H59.1835V13.184C59.1835 12.3733 59.0182 11.8027 58.6875 11.472C58.3675 11.1307 57.8928 10.96 57.2635 10.96C56.6555 10.96 56.1808 11.168 55.8395 11.584C55.4982 12 55.3275 12.608 55.3275 13.408V18H54.0475V10.096ZM66.1839 21.152C65.5012 21.152 64.9092 21.0293 64.4079 20.784C63.9065 20.5493 63.5065 20.256 63.2079 19.904L64.0559 19.088C64.2799 19.3653 64.5679 19.584 64.9199 19.744C65.2825 19.9147 65.6825 20 66.1199 20C66.8025 20 67.3359 19.8347 67.7199 19.504C68.1145 19.1733 68.3119 18.592 68.3119 17.76V16.224H68.2159C68.1305 16.4907 68.0079 16.7307 67.8479 16.944C67.6879 17.1467 67.4959 17.3227 67.2719 17.472C67.0585 17.6107 66.8185 17.7227 66.5519 17.808C66.2959 17.8827 66.0345 17.92 65.7679 17.92C65.2665 17.92 64.8079 17.8293 64.3919 17.648C63.9865 17.4667 63.6292 17.2053 63.3199 16.864C63.0212 16.512 62.7865 16.0853 62.6159 15.584C62.4559 15.0827 62.3759 14.5173 62.3759 13.888C62.3759 13.2693 62.4559 12.7147 62.6159 12.224C62.7865 11.7333 63.0212 11.3173 63.3199 10.976C63.6292 10.6347 63.9865 10.3733 64.3919 10.192C64.8079 10 65.2665 9.904 65.7679 9.904C66.3545 9.904 66.8772 10.0587 67.3359 10.368C67.8052 10.6667 68.1199 11.0827 68.2799 11.616H68.3759V10.096H69.5919V17.92C69.5919 18.8907 69.2985 19.6693 68.7119 20.256C68.1359 20.8533 67.2932 21.152 66.1839 21.152ZM66.0239 16.768C66.7279 16.768 67.2825 16.5227 67.6879 16.032C68.1039 15.5413 68.3119 14.832 68.3119 13.904C68.3119 12.9653 68.1039 12.256 67.6879 11.776C67.2825 11.296 66.7279 11.056 66.0239 11.056C65.3092 11.056 64.7385 11.296 64.3119 11.776C63.8959 12.256 63.6879 12.9653 63.6879 13.904C63.6879 14.832 63.8959 15.5413 64.3119 16.032C64.7385 16.5227 65.3092 16.768 66.0239 16.768Z" fill="#242E30"/>
<path d="M3.5296 90.394L0.603602 85.9H2.0456L4.2156 89.456H4.2996L6.5116 85.9H7.8416L4.9156 90.31L7.9676 95H6.5256L4.2296 91.248H4.1456L1.8076 95H0.477602L3.5296 90.394ZM14.593 86.908H12.003V85.9H18.373V86.908H15.783V95H14.593V86.908ZM19.4468 88.084H20.5108V89.204H20.5948C20.7442 88.84 20.9588 88.5367 21.2388 88.294C21.5188 88.042 21.8688 87.916 22.2888 87.916C22.6435 87.916 22.9562 87.986 23.2268 88.126L22.8488 89.134C22.7275 89.0687 22.5968 89.0267 22.4568 89.008C22.3262 88.98 22.1908 88.966 22.0508 88.966C21.5935 88.966 21.2295 89.1527 20.9588 89.526C20.6975 89.89 20.5668 90.3567 20.5668 90.926V95H19.4468V88.084ZM26.0588 95.168C25.7414 95.168 25.4474 95.1167 25.1768 95.014C24.9154 94.9113 24.6868 94.7667 24.4908 94.58C24.2948 94.3933 24.1408 94.174 24.0288 93.922C23.9261 93.6607 23.8748 93.376 23.8748 93.068C23.8748 92.4707 24.0894 91.99 24.5188 91.626C24.9481 91.262 25.5594 91.0567 26.3528 91.01L28.1728 90.898V90.408C28.1728 89.876 28.0421 89.4933 27.7808 89.26C27.5288 89.0173 27.1648 88.896 26.6888 88.896C26.2874 88.896 25.9421 88.9707 25.6528 89.12C25.3634 89.2693 25.1394 89.4327 24.9808 89.61L24.3088 88.938C24.5514 88.6393 24.8781 88.3967 25.2888 88.21C25.7088 88.014 26.1848 87.916 26.7168 87.916C27.1928 87.916 27.5941 87.9813 27.9208 88.112C28.2474 88.2333 28.5088 88.4013 28.7048 88.616C28.9101 88.8307 29.0548 89.0827 29.1388 89.372C29.2321 89.6613 29.2788 89.9693 29.2788 90.296V95H28.2288V93.824H28.1448C27.9581 94.244 27.6968 94.5753 27.3608 94.818C27.0248 95.0513 26.5908 95.168 26.0588 95.168ZM26.2268 94.216C26.8054 94.216 27.2721 94.048 27.6268 93.712C27.9908 93.3667 28.1728 92.9093 28.1728 92.34V91.738L26.4088 91.864C25.4754 91.9387 25.0088 92.3307 25.0088 93.04C25.0088 93.3947 25.1208 93.6793 25.3448 93.894C25.5781 94.1087 25.8721 94.216 26.2268 94.216ZM31.5328 88.084H32.5968V89.176H32.6808C32.8488 88.812 33.0868 88.5133 33.3948 88.28C33.7028 88.0373 34.0948 87.916 34.5708 87.916C35.3641 87.916 35.9894 88.126 36.4468 88.546C36.9134 88.966 37.1468 89.6427 37.1468 90.576V95H36.0268V90.786C36.0268 90.0767 35.8821 89.5773 35.5928 89.288C35.3128 88.9893 34.8974 88.84 34.3468 88.84C33.8148 88.84 33.3994 89.022 33.1008 89.386C32.8021 89.75 32.6528 90.282 32.6528 90.982V95H31.5328V88.084ZM42.7261 93.208C42.7261 93.0027 42.6794 92.8347 42.5861 92.704C42.4928 92.564 42.3621 92.4473 42.1941 92.354C42.0354 92.2607 41.8534 92.1813 41.6481 92.116C41.4428 92.0507 41.2281 91.9853 41.0041 91.92C40.7428 91.8453 40.4908 91.7567 40.2481 91.654C40.0148 91.5513 39.8048 91.4253 39.6181 91.276C39.4314 91.1173 39.2821 90.9307 39.1701 90.716C39.0581 90.5013 39.0021 90.24 39.0021 89.932C39.0021 89.6053 39.0628 89.316 39.1841 89.064C39.3054 88.812 39.4734 88.602 39.6881 88.434C39.9028 88.266 40.1548 88.14 40.4441 88.056C40.7334 87.9627 41.0461 87.916 41.3821 87.916C41.8861 87.916 42.3481 88.0093 42.7681 88.196C43.1881 88.3733 43.5334 88.6533 43.8041 89.036L43.0761 89.708C42.8708 89.4653 42.6281 89.2647 42.3481 89.106C42.0774 88.9473 41.7554 88.868 41.3821 88.868C41.2234 88.868 41.0648 88.8867 40.9061 88.924C40.7568 88.9613 40.6214 89.022 40.5001 89.106C40.3788 89.1807 40.2808 89.2787 40.2061 89.4C40.1314 89.5213 40.0941 89.666 40.0941 89.834C40.0941 90.0393 40.1408 90.212 40.2341 90.352C40.3274 90.4827 40.4534 90.5947 40.6121 90.688C40.7801 90.7813 40.9668 90.8607 41.1721 90.926C41.3774 90.9913 41.5921 91.0567 41.8161 91.122C42.0774 91.1967 42.3248 91.2853 42.5581 91.388C42.8008 91.4907 43.0154 91.6213 43.2021 91.78C43.3888 91.9293 43.5381 92.1113 43.6501 92.326C43.7621 92.5407 43.8181 92.802 43.8181 93.11C43.8181 93.474 43.7481 93.7867 43.6081 94.048C43.4774 94.3 43.2954 94.51 43.0621 94.678C42.8288 94.846 42.5581 94.9673 42.2501 95.042C41.9421 95.126 41.6154 95.168 41.2701 95.168C40.6634 95.168 40.1454 95.0653 39.7161 94.86C39.2961 94.6547 38.9648 94.3887 38.7221 94.062L39.4641 93.362C39.6788 93.614 39.9261 93.8193 40.2061 93.978C40.4954 94.1367 40.8548 94.216 41.2841 94.216C41.4801 94.216 41.6621 94.1973 41.8301 94.16C42.0074 94.1227 42.1614 94.062 42.2921 93.978C42.4228 93.894 42.5254 93.7913 42.6001 93.67C42.6841 93.5393 42.7261 93.3853 42.7261 93.208ZM45.7515 84.85H46.8715V95H45.7515V84.85ZM50.7775 95.168C50.4602 95.168 50.1662 95.1167 49.8955 95.014C49.6342 94.9113 49.4055 94.7667 49.2095 94.58C49.0135 94.3933 48.8595 94.174 48.7475 93.922C48.6449 93.6607 48.5935 93.376 48.5935 93.068C48.5935 92.4707 48.8082 91.99 49.2375 91.626C49.6669 91.262 50.2782 91.0567 51.0715 91.01L52.8915 90.898V90.408C52.8915 89.876 52.7609 89.4933 52.4995 89.26C52.2475 89.0173 51.8835 88.896 51.4075 88.896C51.0062 88.896 50.6609 88.9707 50.3715 89.12C50.0822 89.2693 49.8582 89.4327 49.6995 89.61L49.0275 88.938C49.2702 88.6393 49.5969 88.3967 50.0075 88.21C50.4275 88.014 50.9035 87.916 51.4355 87.916C51.9115 87.916 52.3129 87.9813 52.6395 88.112C52.9662 88.2333 53.2275 88.4013 53.4235 88.616C53.6289 88.8307 53.7735 89.0827 53.8575 89.372C53.9509 89.6613 53.9975 89.9693 53.9975 90.296V95H52.9475V93.824H52.8635C52.6769 94.244 52.4155 94.5753 52.0795 94.818C51.7435 95.0513 51.3095 95.168 50.7775 95.168ZM50.9455 94.216C51.5242 94.216 51.9909 94.048 52.3455 93.712C52.7095 93.3667 52.8915 92.9093 52.8915 92.34V91.738L51.1275 91.864C50.1942 91.9387 49.7275 92.3307 49.7275 93.04C49.7275 93.3947 49.8395 93.6793 50.0635 93.894C50.2969 94.1087 50.5909 94.216 50.9455 94.216ZM58.3795 95.168C57.7542 95.168 57.2969 94.9813 57.0075 94.608C56.7182 94.2347 56.5735 93.7213 56.5735 93.068V88.994H55.3415V88.084H56.5735V86.208H57.6795V88.084H59.6815V88.994H57.6795V92.97C57.6795 93.418 57.7635 93.7307 57.9315 93.908C58.1089 94.0853 58.3329 94.174 58.6035 94.174C58.7902 94.174 58.9582 94.1413 59.1075 94.076C59.2569 94.0013 59.3969 93.9033 59.5275 93.782L60.0315 94.566C59.6022 94.9673 59.0515 95.168 58.3795 95.168ZM64.1488 95.168C63.6542 95.168 63.2015 95.084 62.7908 94.916C62.3895 94.748 62.0442 94.51 61.7548 94.202C61.4748 93.8847 61.2555 93.502 61.0968 93.054C60.9475 92.606 60.8728 92.102 60.8728 91.542C60.8728 90.954 60.9522 90.436 61.1108 89.988C61.2695 89.5307 61.4888 89.1527 61.7688 88.854C62.0488 88.546 62.3802 88.3127 62.7628 88.154C63.1548 87.9953 63.5842 87.916 64.0508 87.916C64.5175 87.916 64.9468 87.9907 65.3388 88.14C65.7308 88.2893 66.0668 88.5133 66.3468 88.812C66.6268 89.1013 66.8462 89.47 67.0048 89.918C67.1635 90.3567 67.2428 90.87 67.2428 91.458C67.2428 91.5327 67.2382 91.6073 67.2288 91.682C67.2288 91.7567 67.2242 91.8173 67.2148 91.864H61.9928C61.9928 92.1907 62.0488 92.4987 62.1608 92.788C62.2822 93.068 62.4408 93.3153 62.6368 93.53C62.8422 93.7353 63.0755 93.8987 63.3368 94.02C63.6075 94.1413 63.8968 94.202 64.2048 94.202C64.7088 94.202 65.1195 94.104 65.4368 93.908C65.7635 93.712 66.0342 93.474 66.2488 93.194L66.9208 93.88C66.6222 94.272 66.2488 94.5847 65.8008 94.818C65.3622 95.0513 64.8115 95.168 64.1488 95.168ZM64.0508 88.84C63.7242 88.84 63.4348 88.9007 63.1828 89.022C62.9308 89.1433 62.7208 89.302 62.5528 89.498C62.3848 89.694 62.2542 89.918 62.1608 90.17C62.0768 90.422 62.0302 90.674 62.0208 90.926H66.0668C66.0575 90.674 66.0062 90.422 65.9128 90.17C65.8288 89.918 65.7028 89.694 65.5348 89.498C65.3668 89.302 65.1568 89.1433 64.9048 89.022C64.6622 88.9007 64.3775 88.84 64.0508 88.84Z" fill="#3C4C4F"/>
<rect width="1" height="17" transform="translate(95.5 56)" fill="black" fill-opacity="0.08"/>
<rect x="108" y="56" width="179" height="17" fill="white" fill-opacity="0.01"/>
<rect width="1" height="17" transform="translate(306.5 56)" fill="black" fill-opacity="0.08"/>
<rect x="327" y="56" width="179" height="17" fill="white" fill-opacity="0.01"/>
<rect width="1" height="17" transform="translate(525.5 56)" fill="black" fill-opacity="0.08"/>
<rect x="546" y="56" width="179" height="17" fill="white" fill-opacity="0.01"/>
<rect width="1" height="17" transform="translate(744.5 56)" fill="black" fill-opacity="0.08"/>
<rect width="1" height="17" transform="translate(963.5 56)" fill="black" fill-opacity="0.08"/>
<rect width="1" height="17" transform="translate(95.5 73)" fill="black" fill-opacity="0.08"/>
<rect width="1" height="17" transform="translate(306.5 73)" fill="black" fill-opacity="0.08"/>
<rect width="1" height="17" transform="translate(525.5 73)" fill="black" fill-opacity="0.08"/>
<rect width="1" height="17" transform="translate(744.5 73)" fill="black" fill-opacity="0.08"/>
<rect width="1" height="17" transform="translate(963.5 73)" fill="black" fill-opacity="0.08"/>
<rect width="1" height="17" transform="translate(95.5 90)" fill="black" fill-opacity="0.08"/>
<rect x="108" y="90" width="179" height="17" fill="white" fill-opacity="0.01"/>
<rect width="1" height="17" transform="translate(306.5 90)" fill="black" fill-opacity="0.08"/>
<rect x="327" y="90" width="179" height="17" fill="white" fill-opacity="0.01"/>
<rect width="1" height="17" transform="translate(525.5 90)" fill="black" fill-opacity="0.08"/>
<rect x="546" y="90" width="179" height="17" fill="white" fill-opacity="0.01"/>
<rect width="1" height="17" transform="translate(744.5 90)" fill="black" fill-opacity="0.08"/>
<rect width="1" height="17" transform="translate(963.5 90)" fill="black" fill-opacity="0.08"/>
<rect width="1" height="17" transform="translate(95.5 107)" fill="black" fill-opacity="0.08"/>
<rect x="108" y="107" width="179" height="17" fill="white" fill-opacity="0.01"/>
<rect width="1" height="17" transform="translate(306.5 107)" fill="black" fill-opacity="0.08"/>
<rect x="327" y="107" width="179" height="17" fill="white" fill-opacity="0.01"/>
<rect width="1" height="17" transform="translate(525.5 107)" fill="black" fill-opacity="0.08"/>
<rect x="546" y="107" width="179" height="17" fill="white" fill-opacity="0.01"/>
<rect width="1" height="17" transform="translate(744.5 107)" fill="black" fill-opacity="0.08"/>
<rect width="1" height="17" transform="translate(963.5 107)" fill="black" fill-opacity="0.08"/>
<path d="M96.0027 155.168C95.4241 155.168 94.9247 155.047 94.5047 154.804C94.0941 154.561 93.7534 154.23 93.4827 153.81C93.2214 153.381 93.0254 152.881 92.8947 152.312C92.7734 151.733 92.7127 151.113 92.7127 150.45C92.7127 149.787 92.7734 149.171 92.8947 148.602C93.0254 148.023 93.2214 147.524 93.4827 147.104C93.7534 146.675 94.0941 146.339 94.5047 146.096C94.9247 145.853 95.4241 145.732 96.0027 145.732C96.5814 145.732 97.0761 145.853 97.4867 146.096C97.9067 146.339 98.2474 146.675 98.5087 147.104C98.7794 147.524 98.9754 148.023 99.0967 148.602C99.2274 149.171 99.2927 149.787 99.2927 150.45C99.2927 151.113 99.2274 151.733 99.0967 152.312C98.9754 152.881 98.7794 153.381 98.5087 153.81C98.2474 154.23 97.9067 154.561 97.4867 154.804C97.0761 155.047 96.5814 155.168 96.0027 155.168ZM96.0027 154.16C96.3481 154.16 96.6514 154.076 96.9127 153.908C97.1741 153.731 97.3887 153.483 97.5567 153.166C97.7341 152.839 97.8647 152.447 97.9487 151.99C98.0327 151.533 98.0747 151.019 98.0747 150.45C98.0747 149.881 98.0327 149.367 97.9487 148.91C97.8647 148.453 97.7341 148.065 97.5567 147.748C97.3887 147.421 97.1741 147.174 96.9127 147.006C96.6514 146.829 96.3481 146.74 96.0027 146.74C95.6574 146.74 95.3541 146.829 95.0927 147.006C94.8407 147.174 94.6261 147.421 94.4487 147.748C94.2807 148.065 94.1501 148.453 94.0567 148.91C93.9727 149.367 93.9307 149.881 93.9307 150.45C93.9307 151.019 93.9727 151.533 94.0567 151.99C94.1501 152.447 94.2807 152.839 94.4487 153.166C94.6261 153.483 94.8407 153.731 95.0927 153.908C95.3541 154.076 95.6574 154.16 96.0027 154.16Z" fill="#3C4C4F"/>
<path d="M296.738 154.02H299.342V147.16L296.85 148.308L296.486 147.524L299.552 145.9H300.532V154.02H302.87V155H296.738V154.02ZM308.003 155.168C307.424 155.168 306.925 155.047 306.505 154.804C306.094 154.561 305.753 154.23 305.483 153.81C305.221 153.381 305.025 152.881 304.895 152.312C304.773 151.733 304.713 151.113 304.713 150.45C304.713 149.787 304.773 149.171 304.895 148.602C305.025 148.023 305.221 147.524 305.483 147.104C305.753 146.675 306.094 146.339 306.505 146.096C306.925 145.853 307.424 145.732 308.003 145.732C308.581 145.732 309.076 145.853 309.487 146.096C309.907 146.339 310.247 146.675 310.509 147.104C310.779 147.524 310.975 148.023 311.097 148.602C311.227 149.171 311.293 149.787 311.293 150.45C311.293 151.113 311.227 151.733 311.097 152.312C310.975 152.881 310.779 153.381 310.509 153.81C310.247 154.23 309.907 154.561 309.487 154.804C309.076 155.047 308.581 155.168 308.003 155.168ZM308.003 154.16C308.348 154.16 308.651 154.076 308.913 153.908C309.174 153.731 309.389 153.483 309.557 153.166C309.734 152.839 309.865 152.447 309.949 151.99C310.033 151.533 310.075 151.019 310.075 150.45C310.075 149.881 310.033 149.367 309.949 148.91C309.865 148.453 309.734 148.065 309.557 147.748C309.389 147.421 309.174 147.174 308.913 147.006C308.651 146.829 308.348 146.74 308.003 146.74C307.657 146.74 307.354 146.829 307.093 147.006C306.841 147.174 306.626 147.421 306.449 147.748C306.281 148.065 306.15 148.453 306.057 148.91C305.973 149.367 305.931 149.881 305.931 150.45C305.931 151.019 305.973 151.533 306.057 151.99C306.15 152.447 306.281 152.839 306.449 153.166C306.626 153.483 306.841 153.731 307.093 153.908C307.354 154.076 307.657 154.16 308.003 154.16ZM316.397 155.168C315.819 155.168 315.319 155.047 314.899 154.804C314.489 154.561 314.148 154.23 313.877 153.81C313.616 153.381 313.42 152.881 313.289 152.312C313.168 151.733 313.107 151.113 313.107 150.45C313.107 149.787 313.168 149.171 313.289 148.602C313.42 148.023 313.616 147.524 313.877 147.104C314.148 146.675 314.489 146.339 314.899 146.096C315.319 145.853 315.819 145.732 316.397 145.732C316.976 145.732 317.471 145.853 317.881 146.096C318.301 146.339 318.642 146.675 318.903 147.104C319.174 147.524 319.37 148.023 319.491 148.602C319.622 149.171 319.687 149.787 319.687 150.45C319.687 151.113 319.622 151.733 319.491 152.312C319.37 152.881 319.174 153.381 318.903 153.81C318.642 154.23 318.301 154.561 317.881 154.804C317.471 155.047 316.976 155.168 316.397 155.168ZM316.397 154.16C316.743 154.16 317.046 154.076 317.307 153.908C317.569 153.731 317.783 153.483 317.951 153.166C318.129 152.839 318.259 152.447 318.343 151.99C318.427 151.533 318.469 151.019 318.469 150.45C318.469 149.881 318.427 149.367 318.343 148.91C318.259 148.453 318.129 148.065 317.951 147.748C317.783 147.421 317.569 147.174 317.307 147.006C317.046 146.829 316.743 146.74 316.397 146.74C316.052 146.74 315.749 146.829 315.487 147.006C315.235 147.174 315.021 147.421 314.843 147.748C314.675 148.065 314.545 148.453 314.451 148.91C314.367 149.367 314.325 149.881 314.325 150.45C314.325 151.019 314.367 151.533 314.451 151.99C314.545 152.447 314.675 152.839 314.843 153.166C315.021 153.483 315.235 153.731 315.487 153.908C315.749 154.076 316.052 154.16 316.397 154.16Z" fill="#3C4C4F"/>
<path d="M515.78 153.488C515.78 153.115 515.846 152.788 515.976 152.508C516.107 152.219 516.284 151.957 516.508 151.724C516.742 151.481 517.012 151.257 517.32 151.052C517.638 150.847 517.978 150.637 518.342 150.422C518.632 150.245 518.888 150.081 519.112 149.932C519.336 149.773 519.523 149.61 519.672 149.442C519.822 149.274 519.934 149.097 520.008 148.91C520.083 148.723 520.12 148.509 520.12 148.266C520.12 147.771 519.962 147.398 519.644 147.146C519.336 146.885 518.94 146.754 518.454 146.754C517.969 146.754 517.549 146.852 517.194 147.048C516.84 147.235 516.541 147.487 516.298 147.804L515.654 147.132C515.934 146.712 516.303 146.376 516.76 146.124C517.218 145.863 517.768 145.732 518.412 145.732C518.888 145.732 519.308 145.797 519.672 145.928C520.036 146.049 520.34 146.222 520.582 146.446C520.834 146.661 521.021 146.922 521.142 147.23C521.273 147.529 521.338 147.855 521.338 148.21C521.338 148.611 521.268 148.966 521.128 149.274C520.988 149.582 520.802 149.862 520.568 150.114C520.335 150.366 520.064 150.595 519.756 150.8C519.458 150.996 519.14 151.187 518.804 151.374C518.506 151.542 518.24 151.701 518.006 151.85C517.773 151.999 517.577 152.158 517.418 152.326C517.269 152.494 517.152 152.681 517.068 152.886C516.994 153.091 516.956 153.334 516.956 153.614V153.992H521.562V155H515.78V153.488ZM527.003 155.168C526.424 155.168 525.925 155.047 525.505 154.804C525.094 154.561 524.753 154.23 524.483 153.81C524.221 153.381 524.025 152.881 523.895 152.312C523.773 151.733 523.713 151.113 523.713 150.45C523.713 149.787 523.773 149.171 523.895 148.602C524.025 148.023 524.221 147.524 524.483 147.104C524.753 146.675 525.094 146.339 525.505 146.096C525.925 145.853 526.424 145.732 527.003 145.732C527.581 145.732 528.076 145.853 528.487 146.096C528.907 146.339 529.247 146.675 529.509 147.104C529.779 147.524 529.975 148.023 530.097 148.602C530.227 149.171 530.293 149.787 530.293 150.45C530.293 151.113 530.227 151.733 530.097 152.312C529.975 152.881 529.779 153.381 529.509 153.81C529.247 154.23 528.907 154.561 528.487 154.804C528.076 155.047 527.581 155.168 527.003 155.168ZM527.003 154.16C527.348 154.16 527.651 154.076 527.913 153.908C528.174 153.731 528.389 153.483 528.557 153.166C528.734 152.839 528.865 152.447 528.949 151.99C529.033 151.533 529.075 151.019 529.075 150.45C529.075 149.881 529.033 149.367 528.949 148.91C528.865 148.453 528.734 148.065 528.557 147.748C528.389 147.421 528.174 147.174 527.913 147.006C527.651 146.829 527.348 146.74 527.003 146.74C526.657 146.74 526.354 146.829 526.093 147.006C525.841 147.174 525.626 147.421 525.449 147.748C525.281 148.065 525.15 148.453 525.057 148.91C524.973 149.367 524.931 149.881 524.931 150.45C524.931 151.019 524.973 151.533 525.057 151.99C525.15 152.447 525.281 152.839 525.449 153.166C525.626 153.483 525.841 153.731 526.093 153.908C526.354 154.076 526.657 154.16 527.003 154.16ZM535.397 155.168C534.819 155.168 534.319 155.047 533.899 154.804C533.489 154.561 533.148 154.23 532.877 153.81C532.616 153.381 532.42 152.881 532.289 152.312C532.168 151.733 532.107 151.113 532.107 150.45C532.107 149.787 532.168 149.171 532.289 148.602C532.42 148.023 532.616 147.524 532.877 147.104C533.148 146.675 533.489 146.339 533.899 146.096C534.319 145.853 534.819 145.732 535.397 145.732C535.976 145.732 536.471 145.853 536.881 146.096C537.301 146.339 537.642 146.675 537.903 147.104C538.174 147.524 538.37 148.023 538.491 148.602C538.622 149.171 538.687 149.787 538.687 150.45C538.687 151.113 538.622 151.733 538.491 152.312C538.37 152.881 538.174 153.381 537.903 153.81C537.642 154.23 537.301 154.561 536.881 154.804C536.471 155.047 535.976 155.168 535.397 155.168ZM535.397 154.16C535.743 154.16 536.046 154.076 536.307 153.908C536.569 153.731 536.783 153.483 536.951 153.166C537.129 152.839 537.259 152.447 537.343 151.99C537.427 151.533 537.469 151.019 537.469 150.45C537.469 149.881 537.427 149.367 537.343 148.91C537.259 148.453 537.129 148.065 536.951 147.748C536.783 147.421 536.569 147.174 536.307 147.006C536.046 146.829 535.743 146.74 535.397 146.74C535.052 146.74 534.749 146.829 534.487 147.006C534.235 147.174 534.021 147.421 533.843 147.748C533.675 148.065 533.545 148.453 533.451 148.91C533.367 149.367 533.325 149.881 533.325 150.45C533.325 151.019 533.367 151.533 533.451 151.99C533.545 152.447 533.675 152.839 533.843 153.166C534.021 153.483 534.235 153.731 534.487 153.908C534.749 154.076 535.052 154.16 535.397 154.16Z" fill="#3C4C4F"/>
<path d="M737.272 155.168C736.6 155.168 736.036 155.047 735.578 154.804C735.13 154.561 734.766 154.258 734.486 153.894L735.2 153.194C735.415 153.465 735.681 153.689 735.998 153.866C736.325 154.043 736.736 154.132 737.23 154.132C737.828 154.132 738.299 153.992 738.644 153.712C738.99 153.423 739.162 152.998 739.162 152.438C739.162 151.897 738.985 151.5 738.63 151.248C738.276 150.996 737.823 150.87 737.272 150.87H736.432V149.862H737.23C737.781 149.862 738.187 149.717 738.448 149.428C738.719 149.139 738.854 148.761 738.854 148.294C738.854 148.023 738.808 147.795 738.714 147.608C738.63 147.412 738.509 147.253 738.35 147.132C738.201 147.001 738.024 146.908 737.818 146.852C737.622 146.796 737.417 146.768 737.202 146.768C736.773 146.768 736.4 146.852 736.082 147.02C735.765 147.188 735.499 147.398 735.284 147.65L734.64 146.95C734.911 146.614 735.261 146.329 735.69 146.096C736.129 145.853 736.656 145.732 737.272 145.732C737.646 145.732 738 145.788 738.336 145.9C738.682 146.003 738.98 146.157 739.232 146.362C739.494 146.558 739.699 146.81 739.848 147.118C739.998 147.417 740.072 147.762 740.072 148.154C740.072 148.677 739.937 149.12 739.666 149.484C739.396 149.839 739.008 150.105 738.504 150.282V150.366C738.756 150.413 738.994 150.497 739.218 150.618C739.452 150.73 739.652 150.879 739.82 151.066C739.998 151.243 740.133 151.458 740.226 151.71C740.329 151.962 740.38 152.242 740.38 152.55C740.38 152.951 740.306 153.315 740.156 153.642C740.016 153.959 739.811 154.235 739.54 154.468C739.27 154.692 738.943 154.865 738.56 154.986C738.178 155.107 737.748 155.168 737.272 155.168ZM746.003 155.168C745.424 155.168 744.925 155.047 744.505 154.804C744.094 154.561 743.753 154.23 743.483 153.81C743.221 153.381 743.025 152.881 742.895 152.312C742.773 151.733 742.713 151.113 742.713 150.45C742.713 149.787 742.773 149.171 742.895 148.602C743.025 148.023 743.221 147.524 743.483 147.104C743.753 146.675 744.094 146.339 744.505 146.096C744.925 145.853 745.424 145.732 746.003 145.732C746.581 145.732 747.076 145.853 747.487 146.096C747.907 146.339 748.247 146.675 748.509 147.104C748.779 147.524 748.975 148.023 749.097 148.602C749.227 149.171 749.293 149.787 749.293 150.45C749.293 151.113 749.227 151.733 749.097 152.312C748.975 152.881 748.779 153.381 748.509 153.81C748.247 154.23 747.907 154.561 747.487 154.804C747.076 155.047 746.581 155.168 746.003 155.168ZM746.003 154.16C746.348 154.16 746.651 154.076 746.913 153.908C747.174 153.731 747.389 153.483 747.557 153.166C747.734 152.839 747.865 152.447 747.949 151.99C748.033 151.533 748.075 151.019 748.075 150.45C748.075 149.881 748.033 149.367 747.949 148.91C747.865 148.453 747.734 148.065 747.557 147.748C747.389 147.421 747.174 147.174 746.913 147.006C746.651 146.829 746.348 146.74 746.003 146.74C745.657 146.74 745.354 146.829 745.093 147.006C744.841 147.174 744.626 147.421 744.449 147.748C744.281 148.065 744.15 148.453 744.057 148.91C743.973 149.367 743.931 149.881 743.931 150.45C743.931 151.019 743.973 151.533 744.057 151.99C744.15 152.447 744.281 152.839 744.449 153.166C744.626 153.483 744.841 153.731 745.093 153.908C745.354 154.076 745.657 154.16 746.003 154.16ZM754.397 155.168C753.819 155.168 753.319 155.047 752.899 154.804C752.489 154.561 752.148 154.23 751.877 153.81C751.616 153.381 751.42 152.881 751.289 152.312C751.168 151.733 751.107 151.113 751.107 150.45C751.107 149.787 751.168 149.171 751.289 148.602C751.42 148.023 751.616 147.524 751.877 147.104C752.148 146.675 752.489 146.339 752.899 146.096C753.319 145.853 753.819 145.732 754.397 145.732C754.976 145.732 755.471 145.853 755.881 146.096C756.301 146.339 756.642 146.675 756.903 147.104C757.174 147.524 757.37 148.023 757.491 148.602C757.622 149.171 757.687 149.787 757.687 150.45C757.687 151.113 757.622 151.733 757.491 152.312C757.37 152.881 757.174 153.381 756.903 153.81C756.642 154.23 756.301 154.561 755.881 154.804C755.471 155.047 754.976 155.168 754.397 155.168ZM754.397 154.16C754.743 154.16 755.046 154.076 755.307 153.908C755.569 153.731 755.783 153.483 755.951 153.166C756.129 152.839 756.259 152.447 756.343 151.99C756.427 151.533 756.469 151.019 756.469 150.45C756.469 149.881 756.427 149.367 756.343 148.91C756.259 148.453 756.129 148.065 755.951 147.748C755.783 147.421 755.569 147.174 755.307 147.006C755.046 146.829 754.743 146.74 754.397 146.74C754.052 146.74 753.749 146.829 753.487 147.006C753.235 147.174 753.021 147.421 752.843 147.748C752.675 148.065 752.545 148.453 752.451 148.91C752.367 149.367 752.325 149.881 752.325 150.45C752.325 151.019 752.367 151.533 752.451 151.99C752.545 152.447 752.675 152.839 752.843 153.166C753.021 153.483 753.235 153.731 753.487 153.908C753.749 154.076 754.052 154.16 754.397 154.16Z" fill="#3C4C4F"/>
<path d="M957.448 153.124H953.206V152.186L957.224 145.9H958.554L954.522 152.116H957.448V149.372H958.596V152.116H959.856V153.124H958.596V155H957.448V153.124ZM965.003 155.168C964.424 155.168 963.925 155.047 963.505 154.804C963.094 154.561 962.753 154.23 962.483 153.81C962.221 153.381 962.025 152.881 961.895 152.312C961.773 151.733 961.713 151.113 961.713 150.45C961.713 149.787 961.773 149.171 961.895 148.602C962.025 148.023 962.221 147.524 962.483 147.104C962.753 146.675 963.094 146.339 963.505 146.096C963.925 145.853 964.424 145.732 965.003 145.732C965.581 145.732 966.076 145.853 966.487 146.096C966.907 146.339 967.247 146.675 967.509 147.104C967.779 147.524 967.975 148.023 968.097 148.602C968.227 149.171 968.293 149.787 968.293 150.45C968.293 151.113 968.227 151.733 968.097 152.312C967.975 152.881 967.779 153.381 967.509 153.81C967.247 154.23 966.907 154.561 966.487 154.804C966.076 155.047 965.581 155.168 965.003 155.168ZM965.003 154.16C965.348 154.16 965.651 154.076 965.913 153.908C966.174 153.731 966.389 153.483 966.557 153.166C966.734 152.839 966.865 152.447 966.949 151.99C967.033 151.533 967.075 151.019 967.075 150.45C967.075 149.881 967.033 149.367 966.949 148.91C966.865 148.453 966.734 148.065 966.557 147.748C966.389 147.421 966.174 147.174 965.913 147.006C965.651 146.829 965.348 146.74 965.003 146.74C964.657 146.74 964.354 146.829 964.093 147.006C963.841 147.174 963.626 147.421 963.449 147.748C963.281 148.065 963.15 148.453 963.057 148.91C962.973 149.367 962.931 149.881 962.931 150.45C962.931 151.019 962.973 151.533 963.057 151.99C963.15 152.447 963.281 152.839 963.449 153.166C963.626 153.483 963.841 153.731 964.093 153.908C964.354 154.076 964.657 154.16 965.003 154.16ZM973.397 155.168C972.819 155.168 972.319 155.047 971.899 154.804C971.489 154.561 971.148 154.23 970.877 153.81C970.616 153.381 970.42 152.881 970.289 152.312C970.168 151.733 970.107 151.113 970.107 150.45C970.107 149.787 970.168 149.171 970.289 148.602C970.42 148.023 970.616 147.524 970.877 147.104C971.148 146.675 971.489 146.339 971.899 146.096C972.319 145.853 972.819 145.732 973.397 145.732C973.976 145.732 974.471 145.853 974.881 146.096C975.301 146.339 975.642 146.675 975.903 147.104C976.174 147.524 976.37 148.023 976.491 148.602C976.622 149.171 976.687 149.787 976.687 150.45C976.687 151.113 976.622 151.733 976.491 152.312C976.37 152.881 976.174 153.381 975.903 153.81C975.642 154.23 975.301 154.561 974.881 154.804C974.471 155.047 973.976 155.168 973.397 155.168ZM973.397 154.16C973.743 154.16 974.046 154.076 974.307 153.908C974.569 153.731 974.783 153.483 974.951 153.166C975.129 152.839 975.259 152.447 975.343 151.99C975.427 151.533 975.469 151.019 975.469 150.45C975.469 149.881 975.427 149.367 975.343 148.91C975.259 148.453 975.129 148.065 974.951 147.748C974.783 147.421 974.569 147.174 974.307 147.006C974.046 146.829 973.743 146.74 973.397 146.74C973.052 146.74 972.749 146.829 972.487 147.006C972.235 147.174 972.021 147.421 971.843 147.748C971.675 148.065 971.545 148.453 971.451 148.91C971.367 149.367 971.325 149.881 971.325 150.45C971.325 151.019 971.367 151.533 971.451 151.99C971.545 152.447 971.675 152.839 971.843 153.166C972.021 153.483 972.235 153.731 972.487 153.908C972.749 154.076 973.052 154.16 973.397 154.16Z" fill="#3C4C4F"/>
<path d="M479.676 184.084H481.342V185.134H481.426C481.603 184.77 481.851 184.476 482.168 184.252C482.495 184.028 482.891 183.916 483.358 183.916C484.497 183.916 485.229 184.345 485.556 185.204C485.733 184.812 486.009 184.499 486.382 184.266C486.755 184.033 487.194 183.916 487.698 183.916C488.538 183.916 489.154 184.149 489.546 184.616C489.938 185.073 490.134 185.769 490.134 186.702V191H488.37V186.996C488.37 185.932 487.945 185.4 487.096 185.4C486.657 185.4 486.326 185.545 486.102 185.834C485.887 186.123 485.78 186.539 485.78 187.08V191H484.016V186.996C484.016 186.464 483.913 186.067 483.708 185.806C483.512 185.535 483.19 185.4 482.742 185.4C482.322 185.4 482 185.545 481.776 185.834C481.552 186.123 481.44 186.539 481.44 187.08V191H479.676V184.084ZM493.817 182.166C493.817 182.427 493.724 182.661 493.537 182.866C493.36 183.071 493.108 183.174 492.781 183.174C492.445 183.174 492.188 183.071 492.011 182.866C491.834 182.661 491.745 182.427 491.745 182.166C491.745 181.895 491.834 181.662 492.011 181.466C492.188 181.261 492.445 181.158 492.781 181.158C493.108 181.158 493.36 181.261 493.537 181.466C493.724 181.662 493.817 181.895 493.817 182.166ZM491.885 184.084H493.649V191H491.885V184.084ZM495.508 180.85H497.272V191H495.508V180.85ZM499.131 180.85H500.895V191H499.131V180.85ZM504.686 182.166C504.686 182.427 504.593 182.661 504.406 182.866C504.229 183.071 503.977 183.174 503.65 183.174C503.314 183.174 503.057 183.071 502.88 182.866C502.703 182.661 502.614 182.427 502.614 182.166C502.614 181.895 502.703 181.662 502.88 181.466C503.057 181.261 503.314 181.158 503.65 181.158C503.977 181.158 504.229 181.261 504.406 181.466C504.593 181.662 504.686 181.895 504.686 182.166ZM502.754 184.084H504.518V191H502.754V184.084ZM509.695 189.04C509.695 188.9 509.653 188.783 509.569 188.69C509.494 188.587 509.382 188.503 509.233 188.438C509.093 188.373 508.925 188.317 508.729 188.27C508.533 188.214 508.318 188.158 508.085 188.102C507.814 188.037 507.558 187.953 507.315 187.85C507.072 187.747 506.858 187.617 506.671 187.458C506.494 187.29 506.349 187.094 506.237 186.87C506.125 186.646 506.069 186.375 506.069 186.058C506.069 185.713 506.134 185.409 506.265 185.148C506.405 184.877 506.596 184.653 506.839 184.476C507.082 184.289 507.371 184.149 507.707 184.056C508.043 183.963 508.407 183.916 508.799 183.916C509.415 183.916 509.947 184.014 510.395 184.21C510.843 184.397 511.188 184.649 511.431 184.966L510.451 185.974C510.264 185.769 510.031 185.601 509.751 185.47C509.48 185.339 509.196 185.274 508.897 185.274C508.617 185.274 508.37 185.33 508.155 185.442C507.94 185.554 507.833 185.736 507.833 185.988C507.833 186.128 507.87 186.245 507.945 186.338C508.029 186.431 508.141 186.515 508.281 186.59C508.43 186.655 508.603 186.716 508.799 186.772C508.995 186.819 509.21 186.87 509.443 186.926C509.704 186.991 509.956 187.075 510.199 187.178C510.451 187.281 510.666 187.416 510.843 187.584C511.03 187.743 511.179 187.934 511.291 188.158C511.403 188.382 511.459 188.653 511.459 188.97C511.459 189.334 511.384 189.651 511.235 189.922C511.095 190.193 510.894 190.421 510.633 190.608C510.381 190.795 510.078 190.935 509.723 191.028C509.378 191.121 509.004 191.168 508.603 191.168C507.922 191.168 507.343 191.07 506.867 190.874C506.4 190.678 506.046 190.426 505.803 190.118L506.755 189.096C506.97 189.32 507.231 189.497 507.539 189.628C507.847 189.749 508.183 189.81 508.547 189.81C508.874 189.81 509.144 189.749 509.359 189.628C509.583 189.497 509.695 189.301 509.695 189.04ZM515.908 191.168C515.33 191.168 514.826 191.075 514.396 190.888C513.967 190.701 513.603 190.445 513.304 190.118C513.015 189.782 512.796 189.395 512.646 188.956C512.506 188.517 512.436 188.046 512.436 187.542C512.436 187.029 512.506 186.553 512.646 186.114C512.786 185.666 512.996 185.283 513.276 184.966C513.556 184.639 513.906 184.383 514.326 184.196C514.746 184.009 515.236 183.916 515.796 183.916C516.356 183.916 516.846 184.005 517.266 184.182C517.686 184.359 518.032 184.607 518.302 184.924C518.573 185.241 518.774 185.619 518.904 186.058C519.044 186.487 519.114 186.959 519.114 187.472C519.114 187.565 519.105 187.673 519.086 187.794C519.077 187.915 519.063 188.013 519.044 188.088H514.228C514.256 188.34 514.322 188.569 514.424 188.774C514.536 188.97 514.672 189.138 514.83 189.278C514.998 189.418 515.18 189.525 515.376 189.6C515.582 189.665 515.792 189.698 516.006 189.698C516.408 189.698 516.744 189.628 517.014 189.488C517.285 189.348 517.504 189.171 517.672 188.956L518.666 189.992C518.405 190.347 518.041 190.631 517.574 190.846C517.108 191.061 516.552 191.168 515.908 191.168ZM515.796 185.26C515.348 185.26 514.984 185.405 514.704 185.694C514.424 185.983 514.261 186.366 514.214 186.842H517.35C517.304 186.366 517.14 185.983 516.86 185.694C516.59 185.405 516.235 185.26 515.796 185.26ZM523.399 191.168C522.811 191.168 522.302 191.07 521.873 190.874C521.453 190.669 521.107 190.398 520.837 190.062C520.566 189.726 520.365 189.343 520.235 188.914C520.104 188.475 520.039 188.018 520.039 187.542C520.039 187.066 520.099 186.613 520.221 186.184C520.351 185.745 520.547 185.358 520.809 185.022C521.079 184.686 521.425 184.42 521.845 184.224C522.265 184.019 522.764 183.916 523.343 183.916C523.921 183.916 524.411 184.019 524.813 184.224C525.223 184.429 525.559 184.691 525.821 185.008L524.645 186.072C524.486 185.876 524.309 185.727 524.113 185.624C523.917 185.512 523.669 185.456 523.371 185.456C522.885 185.456 522.507 185.643 522.237 186.016C521.966 186.38 521.831 186.889 521.831 187.542C521.831 188.195 521.971 188.709 522.251 189.082C522.531 189.446 522.913 189.628 523.399 189.628C523.688 189.628 523.94 189.572 524.155 189.46C524.369 189.348 524.556 189.189 524.715 188.984L525.877 190.062C525.615 190.379 525.275 190.645 524.855 190.86C524.444 191.065 523.959 191.168 523.399 191.168ZM529.895 191.168C529.316 191.168 528.808 191.075 528.369 190.888C527.94 190.692 527.576 190.431 527.277 190.104C526.988 189.777 526.768 189.395 526.619 188.956C526.479 188.508 526.409 188.037 526.409 187.542C526.409 187.047 526.479 186.581 526.619 186.142C526.768 185.703 526.988 185.321 527.277 184.994C527.576 184.658 527.94 184.397 528.369 184.21C528.808 184.014 529.316 183.916 529.895 183.916C530.474 183.916 530.978 184.014 531.407 184.21C531.846 184.397 532.205 184.658 532.485 184.994C532.774 185.321 532.989 185.703 533.129 186.142C533.278 186.581 533.353 187.047 533.353 187.542C533.353 188.037 533.278 188.508 533.129 188.956C532.989 189.395 532.774 189.777 532.485 190.104C532.205 190.431 531.846 190.692 531.407 190.888C530.978 191.075 530.474 191.168 529.895 191.168ZM528.215 187.542C528.215 188.223 528.36 188.76 528.649 189.152C528.948 189.544 529.363 189.74 529.895 189.74C530.418 189.74 530.824 189.544 531.113 189.152C531.412 188.76 531.561 188.223 531.561 187.542C531.561 186.861 531.412 186.324 531.113 185.932C530.824 185.54 530.418 185.344 529.895 185.344C529.363 185.344 528.948 185.54 528.649 185.932C528.36 186.324 528.215 186.861 528.215 187.542ZM534.719 184.084H536.385V185.204H536.469C536.628 184.831 536.875 184.523 537.211 184.28C537.556 184.037 537.967 183.916 538.443 183.916C539.32 183.916 539.95 184.149 540.333 184.616C540.725 185.073 540.921 185.769 540.921 186.702V191H539.157V187.052C539.157 186.492 539.054 186.077 538.849 185.806C538.653 185.535 538.317 185.4 537.841 185.4C537.393 185.4 537.052 185.549 536.819 185.848C536.595 186.137 536.483 186.562 536.483 187.122V191H534.719V184.084ZM545.224 191.168C544.785 191.168 544.384 191.079 544.02 190.902C543.656 190.725 543.343 190.482 543.082 190.174C542.82 189.857 542.615 189.479 542.466 189.04C542.316 188.592 542.242 188.102 542.242 187.57C542.242 187.029 542.316 186.534 542.466 186.086C542.615 185.638 542.82 185.255 543.082 184.938C543.343 184.611 543.656 184.359 544.02 184.182C544.384 184.005 544.785 183.916 545.224 183.916C545.765 183.916 546.218 184.042 546.582 184.294C546.955 184.546 547.221 184.873 547.38 185.274H547.464V180.85H549.228V191H547.562V189.698H547.478C547.31 190.155 547.025 190.515 546.624 190.776C546.232 191.037 545.765 191.168 545.224 191.168ZM545.756 189.628C546.278 189.628 546.694 189.441 547.002 189.068C547.31 188.695 547.464 188.186 547.464 187.542C547.464 186.898 547.31 186.389 547.002 186.016C546.694 185.643 546.278 185.456 545.756 185.456C545.233 185.456 544.818 185.643 544.51 186.016C544.202 186.389 544.048 186.898 544.048 187.542C544.048 188.186 544.202 188.695 544.51 189.068C544.818 189.441 545.233 189.628 545.756 189.628ZM554.402 189.04C554.402 188.9 554.36 188.783 554.276 188.69C554.201 188.587 554.089 188.503 553.94 188.438C553.8 188.373 553.632 188.317 553.436 188.27C553.24 188.214 553.025 188.158 552.792 188.102C552.521 188.037 552.265 187.953 552.022 187.85C551.779 187.747 551.565 187.617 551.378 187.458C551.201 187.29 551.056 187.094 550.944 186.87C550.832 186.646 550.776 186.375 550.776 186.058C550.776 185.713 550.841 185.409 550.972 185.148C551.112 184.877 551.303 184.653 551.546 184.476C551.789 184.289 552.078 184.149 552.414 184.056C552.75 183.963 553.114 183.916 553.506 183.916C554.122 183.916 554.654 184.014 555.102 184.21C555.55 184.397 555.895 184.649 556.138 184.966L555.158 185.974C554.971 185.769 554.738 185.601 554.458 185.47C554.187 185.339 553.903 185.274 553.604 185.274C553.324 185.274 553.077 185.33 552.862 185.442C552.647 185.554 552.54 185.736 552.54 185.988C552.54 186.128 552.577 186.245 552.652 186.338C552.736 186.431 552.848 186.515 552.988 186.59C553.137 186.655 553.31 186.716 553.506 186.772C553.702 186.819 553.917 186.87 554.15 186.926C554.411 186.991 554.663 187.075 554.906 187.178C555.158 187.281 555.373 187.416 555.55 187.584C555.737 187.743 555.886 187.934 555.998 188.158C556.11 188.382 556.166 188.653 556.166 188.97C556.166 189.334 556.091 189.651 555.942 189.922C555.802 190.193 555.601 190.421 555.34 190.608C555.088 190.795 554.785 190.935 554.43 191.028C554.085 191.121 553.711 191.168 553.31 191.168C552.629 191.168 552.05 191.07 551.574 190.874C551.107 190.678 550.753 190.426 550.51 190.118L551.462 189.096C551.677 189.32 551.938 189.497 552.246 189.628C552.554 189.749 552.89 189.81 553.254 189.81C553.581 189.81 553.851 189.749 554.066 189.628C554.29 189.497 554.402 189.301 554.402 189.04ZM561.081 187.164C561.081 186.436 561.179 185.745 561.375 185.092C561.58 184.429 561.851 183.823 562.187 183.272C562.523 182.712 562.905 182.217 563.335 181.788C563.773 181.349 564.226 180.99 564.693 180.71L565.295 181.27C565.015 181.55 564.739 181.9 564.469 182.32C564.198 182.731 563.955 183.193 563.741 183.706C563.535 184.21 563.367 184.756 563.237 185.344C563.106 185.932 563.041 186.539 563.041 187.164C563.041 187.799 563.106 188.41 563.237 188.998C563.367 189.577 563.535 190.123 563.741 190.636C563.955 191.14 564.198 191.597 564.469 192.008C564.739 192.428 565.015 192.778 565.295 193.058L564.693 193.632C564.226 193.352 563.773 192.993 563.335 192.554C562.905 192.115 562.523 191.616 562.187 191.056C561.851 190.505 561.58 189.903 561.375 189.25C561.179 188.587 561.081 187.892 561.081 187.164ZM566.315 184.084H567.981V185.134H568.065C568.242 184.77 568.489 184.476 568.807 184.252C569.133 184.028 569.53 183.916 569.997 183.916C571.135 183.916 571.868 184.345 572.195 185.204C572.372 184.812 572.647 184.499 573.021 184.266C573.394 184.033 573.833 183.916 574.337 183.916C575.177 183.916 575.793 184.149 576.185 184.616C576.577 185.073 576.773 185.769 576.773 186.702V191H575.009V186.996C575.009 185.932 574.584 185.4 573.735 185.4C573.296 185.4 572.965 185.545 572.741 185.834C572.526 186.123 572.419 186.539 572.419 187.08V191H570.655V186.996C570.655 186.464 570.552 186.067 570.347 185.806C570.151 185.535 569.829 185.4 569.381 185.4C568.961 185.4 568.639 185.545 568.415 185.834C568.191 186.123 568.079 186.539 568.079 187.08V191H566.315V184.084ZM581.842 189.04C581.842 188.9 581.8 188.783 581.716 188.69C581.641 188.587 581.529 188.503 581.38 188.438C581.24 188.373 581.072 188.317 580.876 188.27C580.68 188.214 580.465 188.158 580.232 188.102C579.961 188.037 579.704 187.953 579.462 187.85C579.219 187.747 579.004 187.617 578.818 187.458C578.64 187.29 578.496 187.094 578.384 186.87C578.272 186.646 578.216 186.375 578.216 186.058C578.216 185.713 578.281 185.409 578.412 185.148C578.552 184.877 578.743 184.653 578.986 184.476C579.228 184.289 579.518 184.149 579.854 184.056C580.19 183.963 580.554 183.916 580.946 183.916C581.562 183.916 582.094 184.014 582.542 184.21C582.99 184.397 583.335 184.649 583.578 184.966L582.598 185.974C582.411 185.769 582.178 185.601 581.898 185.47C581.627 185.339 581.342 185.274 581.044 185.274C580.764 185.274 580.516 185.33 580.302 185.442C580.087 185.554 579.98 185.736 579.98 185.988C579.98 186.128 580.017 186.245 580.092 186.338C580.176 186.431 580.288 186.515 580.428 186.59C580.577 186.655 580.75 186.716 580.946 186.772C581.142 186.819 581.356 186.87 581.59 186.926C581.851 186.991 582.103 187.075 582.346 187.178C582.598 187.281 582.812 187.416 582.99 187.584C583.176 187.743 583.326 187.934 583.438 188.158C583.55 188.382 583.606 188.653 583.606 188.97C583.606 189.334 583.531 189.651 583.382 189.922C583.242 190.193 583.041 190.421 582.78 190.608C582.528 190.795 582.224 190.935 581.87 191.028C581.524 191.121 581.151 191.168 580.75 191.168C580.068 191.168 579.49 191.07 579.014 190.874C578.547 190.678 578.192 190.426 577.95 190.118L578.902 189.096C579.116 189.32 579.378 189.497 579.686 189.628C579.994 189.749 580.33 189.81 580.694 189.81C581.02 189.81 581.291 189.749 581.506 189.628C581.73 189.497 581.842 189.301 581.842 189.04ZM586.268 187.164C586.268 186.539 586.203 185.932 586.072 185.344C585.941 184.756 585.769 184.21 585.554 183.706C585.349 183.193 585.111 182.731 584.84 182.32C584.569 181.9 584.294 181.55 584.014 181.27L584.616 180.71C585.083 180.99 585.531 181.349 585.96 181.788C586.399 182.217 586.786 182.712 587.122 183.272C587.458 183.823 587.724 184.429 587.92 185.092C588.125 185.745 588.228 186.436 588.228 187.164C588.228 187.892 588.125 188.587 587.92 189.25C587.724 189.903 587.458 190.505 587.122 191.056C586.786 191.616 586.399 192.115 585.96 192.554C585.531 192.993 585.083 193.352 584.616 193.632L584.014 193.058C584.294 192.778 584.569 192.428 584.84 192.008C585.111 191.597 585.349 191.14 585.554 190.636C585.769 190.123 585.941 189.577 586.072 188.998C586.203 188.41 586.268 187.799 586.268 187.164Z" fill="#3C4C4F"/>
<ellipse cx="95.9468" cy="91" rx="3.94682" ry="4" fill="#FF8000"/>
<ellipse cx="545.947" cy="91" rx="3.94682" ry="4" fill="#FF8000"/>
<path d="M98 91L546 91" stroke="#FF8000" stroke-width="2"/>
</svg>
