<svg width="1032" height="533" viewBox="0 0 1032 533" fill="none" xmlns="http://www.w3.org/2000/svg">
<g clip-path="url(#clip0_10029_3444)">
<rect width="1032" height="533" rx="24" fill="#F5F3F1"/>
<path d="M51.9851 427.993H73.0439L66.3051 434.993L67.4928 436.226L75.0739 428.351C75.2306 428.189 75.3548 427.996 75.4396 427.783C75.5244 427.571 75.568 427.343 75.568 427.113C75.568 426.883 75.5244 426.655 75.4396 426.443C75.3548 426.231 75.2306 426.038 75.0739 425.875L67.4928 418L66.3051 419.243L73.0439 426.243H51.9851V427.993Z" fill="#FF8000"/>
<path d="M39.9487 426.234L18.89 426.234L25.6288 419.234L24.4411 418L16.8599 425.875C16.7033 426.038 16.579 426.231 16.4942 426.443C16.4094 426.655 16.3658 426.883 16.3658 427.113C16.3658 427.343 16.4094 427.571 16.4942 427.783C16.579 427.996 16.7033 428.189 16.8599 428.351L24.4411 436.226L25.6288 434.984L18.89 427.984L39.9487 427.984L39.9487 426.234Z" fill="#FF8000"/>
<path d="M-154.598 382.158C-155.621 382.372 -156.57 382.797 -157.402 383.387L-157.113 383.795C-157.894 384.348 -158.565 385.057 -159.086 385.881L-159.508 385.613C-160.047 386.465 -160.433 387.43 -160.627 388.467L-160.136 388.559C-160.223 389.025 -160.269 389.507 -160.269 390.001V392.112H-160.769V396.334H-160.269V400.556H-160.769V404.778H-160.269V409H-160.769V413.222H-160.269V417.445H-160.769V421.667H-160.269V425.889H-160.769V430.111H-160.269V434.333H-160.769V438.555H-160.269V442.778H-160.769V447H-160.269V451.222H-160.769V455.444H-160.269V459.666H-160.769V463.888H-160.269V465.999C-160.269 466.493 -160.223 466.975 -160.136 467.441L-160.627 467.533C-160.433 468.57 -160.047 469.535 -159.508 470.387L-159.086 470.119C-158.565 470.943 -157.894 471.652 -157.113 472.205L-157.402 472.613C-156.57 473.203 -155.621 473.628 -154.598 473.842L-154.495 473.353C-154.034 473.449 -153.556 473.5 -153.067 473.5H-151.056V474H-147.036V473.5H-143.015V474H-138.994V473.5H-134.974V474H-130.953V473.5H-126.933V474H-122.912V473.5H-118.891V474H-114.871V473.5H-110.85V474H-106.829V473.5H-102.809V474H-98.7882V473.5H-94.7676V474H-90.747V473.5H-86.7264V474H-82.7058V473.5H-78.6851V474H-74.6645V473.5H-70.6439V474H-66.6233V473.5H-62.6027V474H-58.5821V473.5H-54.5615V474H-50.5408V473.5H-46.5202V474H-42.4996V473.5H-38.479V474H-34.4584V473.5H-30.4378V474H-26.4172V473.5H-22.3965V474H-18.3759V473.5H-14.3553V474H-10.3347V473.5H-6.31407V474H-2.29347V473.5H1.72716V474H5.74776V473.5H9.76839V474H13.789V473.5H17.8096V474H21.8302V473.5H25.8508V474H29.8715V473.5H33.8921V474H37.9127V473.5H41.9333V474H45.9539V473.5H49.9745V474H53.9951V473.5H58.0158V474H62.0364V473.5H66.057V474H70.0776V473.5H74.0982V474H78.1188V473.5H82.1395V474H86.16V473.5H90.1807V474H94.2013V473.5H98.2219V474H102.243V473.5H106.263V474H110.284V473.5H114.304V474H118.325V473.5H120.335C120.825 473.5 121.303 473.449 121.764 473.353L121.867 473.842C122.889 473.628 123.839 473.203 124.671 472.613L124.382 472.205C125.162 471.652 125.834 470.943 126.355 470.119L126.777 470.387C127.316 469.535 127.702 468.57 127.896 467.533L127.405 467.441C127.492 466.975 127.537 466.493 127.537 465.999V463.888H128.037V459.666H127.537V455.444H128.037V451.222H127.537V447H128.037V442.778H127.537V438.555H128.037V434.333H127.537V430.111H128.037V425.889H127.537V421.667H128.037V417.445H127.537V413.222H128.037V409H127.537V404.778H128.037V400.556H127.537V396.334H128.037V392.112H127.537V390.001C127.537 389.507 127.492 389.025 127.405 388.559L127.896 388.467C127.702 387.43 127.316 386.465 126.777 385.613L126.355 385.881C125.834 385.057 125.162 384.348 124.382 383.795L124.671 383.387C123.839 382.797 122.889 382.372 121.867 382.158L121.764 382.647C121.303 382.551 120.825 382.5 120.335 382.5H118.325V382H114.305V382.5H110.284V382H106.263V382.5H102.243V382H98.222V382.5H94.2014V382H90.1808V382.5H86.1602V382H82.1395V382.5H78.1189V382H74.0983V382.5H70.0777V382H66.0571V382.5H62.0365V382H58.0158V382.5H53.9952V382H49.9746V382.5H45.954V382H41.9334V382.5H37.9128V382H33.8922V382.5H29.8715V382H25.8509V382.5H21.8303V382H17.8097V382.5H13.7891V382H9.76845V382.5H5.74785V382H1.72723V382.5H-2.29338V382H-6.314V382.5H-10.3346V382H-14.3552V382.5H-18.3758V382H-22.3965V382.5H-26.4171V382H-30.4377V382.5H-34.4583V382H-38.4789V382.5H-42.4995V382H-46.5202V382.5H-50.5408V382H-54.5614V382.5H-58.582V382H-62.6026V382.5H-66.6232V382H-70.6438V382.5H-74.6645V382H-78.6851V382.5H-82.7057V382H-86.7263V382.5H-90.7469V382H-94.7675V382.5H-98.7881V382H-102.809V382.5H-106.829V382H-110.85V382.5H-114.871V382H-118.891V382.5H-122.912V382H-126.932V382.5H-130.953V382H-134.974V382.5H-138.994V382H-143.015V382.5H-147.036V382H-151.056V382.5H-153.067C-153.556 382.5 -154.034 382.551 -154.495 382.647L-154.598 382.158Z" stroke="#F36805" stroke-dasharray="4 4"/>
<g clip-path="url(#clip1_10029_3444)">
<mask id="mask0_10029_3444" style="mask-type:luminance" maskUnits="userSpaceOnUse" x="93" y="382" width="290" height="92">
<path d="M374.485 382H101.083C96.8289 382 93.3806 385.582 93.3806 390.001V465.999C93.3806 470.418 96.8289 474 101.083 474H374.485C378.738 474 382.187 470.418 382.187 465.999V390.001C382.187 385.582 378.738 382 374.485 382Z" fill="white"/>
</mask>
<g mask="url(#mask0_10029_3444)">
<path d="M374.485 382H101.083C96.8289 382 93.3806 385.582 93.3806 390.001V465.999C93.3806 470.418 96.8289 474 101.083 474H374.485C378.738 474 382.187 470.418 382.187 465.999V390.001C382.187 385.582 378.738 382 374.485 382Z" fill="#262626"/>
<path d="M97.2304 382H93.3806V474H97.2304V382Z" fill="#262626"/>
</g>
<path d="M128.936 398.001H111.854C110.224 398.001 108.903 399.374 108.903 401.067V418.811C108.903 420.505 110.224 421.878 111.854 421.878H128.936C130.566 421.878 131.888 420.505 131.888 418.811V401.067C131.888 399.374 130.566 398.001 128.936 398.001Z" fill="white"/>
<path d="M360.849 405.483H149.582V411.881H360.849V405.483Z" fill="white"/>
<path d="M360.849 439.069H318.871V445.468H360.849V439.069Z" fill="white"/>
</g>
</g>
<defs>
<clipPath id="clip0_10029_3444">
<rect width="1032" height="533" rx="24" fill="white"/>
</clipPath>
<clipPath id="clip1_10029_3444">
<rect width="288.806" height="92" fill="white" transform="translate(93.3806 382)"/>
</clipPath>
</defs>
</svg>
