<svg width="634" height="314" viewBox="0 0 634 314" fill="none" xmlns="http://www.w3.org/2000/svg">
<g filter="url(#filter0_ddd_507_16843)">
<g clip-path="url(#clip0_507_16843)">
<path d="M17 25C17 16.1634 24.1634 9 33 9H601C609.837 9 617 16.1634 617 25V273C617 281.837 609.837 289 601 289H33C24.1634 289 17 281.837 17 273V25Z" fill="white"/>
<rect width="600" height="72" transform="translate(17 9)" fill="white"/>
<path d="M29 45C29 31.7452 39.7452 21 53 21V21C66.2548 21 77 31.7452 77 45V45C77 58.2548 66.2548 69 53 69V69C39.7452 69 29 58.2548 29 45V45Z" fill="white" fill-opacity="0.01"/>
<path d="M57.44 37.23L49.4075 45L57.5056 52.7962L56.1931 54.24L47.8456 46.1944C47.6777 46.0316 47.5442 45.8368 47.4531 45.6215C47.3619 45.4062 47.3149 45.1748 47.3149 44.9409C47.3149 44.7071 47.3619 44.4757 47.4531 44.2604C47.5442 44.045 47.6777 43.8502 47.8456 43.6875L56.0881 35.8125L57.44 37.23Z" fill="#242E30"/>
<path d="M93.704 40.64H89.432V37.4H102.032V40.64H97.76V53H93.704V40.64ZM107.805 37.736C107.805 38.28 107.621 38.768 107.253 39.2C106.885 39.616 106.349 39.824 105.645 39.824C104.925 39.824 104.389 39.616 104.037 39.2C103.685 38.768 103.509 38.28 103.509 37.736C103.509 37.192 103.685 36.712 104.037 36.296C104.389 35.864 104.925 35.648 105.645 35.648C106.349 35.648 106.885 35.864 107.253 36.296C107.621 36.712 107.805 37.192 107.805 37.736ZM103.725 41.144H107.541V53H103.725V41.144ZM115.285 53.264C113.781 53.264 112.693 52.888 112.021 52.136C111.365 51.384 111.037 50.184 111.037 48.536V44.192H109.333V41.144H111.037V37.928H114.805V41.144H118.309V44.192H114.805V48.608C114.805 49.136 114.893 49.52 115.069 49.76C115.261 50 115.573 50.12 116.005 50.12C116.293 50.12 116.565 50.064 116.821 49.952C117.093 49.824 117.317 49.672 117.493 49.496L118.717 52.088C117.933 52.872 116.789 53.264 115.285 53.264ZM120.342 35.6H124.158V53H120.342V35.6ZM132.166 53.288C131.078 53.288 130.142 53.112 129.358 52.76C128.59 52.408 127.958 51.944 127.462 51.368C126.966 50.792 126.598 50.136 126.358 49.4C126.118 48.648 125.998 47.872 125.998 47.072C125.998 46.288 126.102 45.52 126.31 44.768C126.534 44.016 126.878 43.352 127.342 42.776C127.822 42.2 128.438 41.736 129.19 41.384C129.942 41.032 130.862 40.856 131.95 40.856C133.038 40.856 133.958 41.032 134.71 41.384C135.462 41.72 136.062 42.176 136.51 42.752C136.974 43.312 137.302 43.96 137.494 44.696C137.702 45.432 137.806 46.192 137.806 46.976C137.806 47.152 137.79 47.384 137.758 47.672C137.726 47.944 137.686 48.152 137.638 48.296H129.862C129.926 48.648 130.046 48.944 130.222 49.184C130.414 49.424 130.63 49.616 130.87 49.76C131.11 49.904 131.358 50.008 131.614 50.072C131.886 50.136 132.142 50.168 132.382 50.168C132.942 50.168 133.422 50.08 133.822 49.904C134.238 49.728 134.558 49.496 134.782 49.208L136.87 51.392C136.486 51.952 135.878 52.408 135.046 52.76C134.214 53.112 133.254 53.288 132.166 53.288ZM131.95 43.688C131.438 43.688 130.982 43.848 130.582 44.168C130.182 44.472 129.918 45.008 129.79 45.776H134.062C133.95 45.008 133.694 44.472 133.294 44.168C132.894 43.848 132.446 43.688 131.95 43.688Z" fill="#242E30"/>
<path d="M557 45C557 31.7452 567.745 21 581 21V21C594.255 21 605 31.7452 605 45V45C605 58.2548 594.255 69 581 69V69C567.745 69 557 58.2548 557 45V45Z" fill="white" fill-opacity="0.01"/>
<path d="M586.801 37.8076L581 43.6089L575.199 37.8076L573.807 39.1989L579.609 45.0002L573.807 50.8014L575.199 52.1927L581 46.3914L586.801 52.1927L588.193 50.8014L582.391 45.0002L588.193 39.1989L586.801 37.8076Z" fill="#242E30"/>
<g clip-path="url(#clip1_507_16843)">
<path d="M41 93C41 88.5817 44.5817 85 49 85H585C589.418 85 593 88.5817 593 93V181C593 185.418 589.418 189 585 189H49C44.5817 189 41 185.418 41 181V93Z" fill="black" fill-opacity="0.04"/>
<path d="M307.031 115.192C306.082 115.192 305.298 115.048 304.679 114.76C304.06 114.461 303.548 114.067 303.143 113.576L304.519 112.296C304.818 112.627 305.164 112.899 305.559 113.112C305.964 113.325 306.471 113.432 307.079 113.432C307.57 113.432 307.991 113.325 308.343 113.112C308.695 112.899 308.871 112.557 308.871 112.088C308.871 111.864 308.812 111.683 308.695 111.544C308.588 111.395 308.428 111.267 308.215 111.16C308.012 111.043 307.756 110.936 307.447 110.84C307.148 110.744 306.807 110.637 306.423 110.52C306.06 110.413 305.703 110.285 305.351 110.136C304.999 109.976 304.684 109.784 304.407 109.56C304.14 109.325 303.922 109.043 303.751 108.712C303.591 108.371 303.511 107.96 303.511 107.48C303.511 106.989 303.602 106.552 303.783 106.168C303.975 105.784 304.236 105.464 304.567 105.208C304.908 104.941 305.314 104.744 305.783 104.616C306.252 104.477 306.77 104.408 307.335 104.408C308.188 104.408 308.914 104.547 309.511 104.824C310.108 105.091 310.594 105.475 310.967 105.976L309.591 107.272C309.335 106.963 309.02 106.707 308.647 106.504C308.284 106.291 307.842 106.184 307.319 106.184C307.106 106.184 306.898 106.205 306.695 106.248C306.503 106.291 306.332 106.365 306.183 106.472C306.034 106.568 305.911 106.696 305.815 106.856C305.73 107.005 305.687 107.192 305.687 107.416C305.687 107.64 305.74 107.827 305.847 107.976C305.964 108.125 306.124 108.259 306.327 108.376C306.54 108.483 306.796 108.584 307.095 108.68C307.394 108.776 307.735 108.883 308.119 109C308.482 109.117 308.839 109.251 309.191 109.4C309.543 109.549 309.858 109.741 310.135 109.976C310.412 110.2 310.631 110.483 310.791 110.824C310.962 111.155 311.047 111.56 311.047 112.04C311.047 112.552 310.946 113.005 310.743 113.4C310.551 113.795 310.274 114.125 309.911 114.392C309.559 114.648 309.138 114.845 308.647 114.984C308.156 115.123 307.618 115.192 307.031 115.192ZM312.72 103.4H314.736V115H312.72V103.4ZM320.301 115.192C319.639 115.192 319.058 115.085 318.557 114.872C318.066 114.648 317.65 114.349 317.309 113.976C316.978 113.603 316.727 113.165 316.557 112.664C316.397 112.152 316.317 111.613 316.317 111.048C316.317 110.483 316.397 109.949 316.557 109.448C316.727 108.947 316.978 108.509 317.309 108.136C317.65 107.752 318.066 107.453 318.557 107.24C319.058 107.016 319.639 106.904 320.301 106.904C320.962 106.904 321.538 107.016 322.029 107.24C322.53 107.453 322.941 107.752 323.261 108.136C323.591 108.509 323.837 108.947 323.997 109.448C324.167 109.949 324.253 110.483 324.253 111.048C324.253 111.613 324.167 112.152 323.997 112.664C323.837 113.165 323.591 113.603 323.261 113.976C322.941 114.349 322.53 114.648 322.029 114.872C321.538 115.085 320.962 115.192 320.301 115.192ZM318.381 111.048C318.381 111.827 318.546 112.44 318.877 112.888C319.218 113.336 319.693 113.56 320.301 113.56C320.898 113.56 321.362 113.336 321.693 112.888C322.034 112.44 322.205 111.827 322.205 111.048C322.205 110.269 322.034 109.656 321.693 109.208C321.362 108.76 320.898 108.536 320.301 108.536C319.693 108.536 319.218 108.76 318.877 109.208C318.546 109.656 318.381 110.269 318.381 111.048ZM328.854 115.176C327.979 115.176 327.339 114.941 326.934 114.472C326.539 114.003 326.342 113.293 326.342 112.344V108.712H325.094V107.096H326.342V104.952H328.342V107.096H330.646V108.712H328.342V112.328C328.342 112.744 328.416 113.043 328.566 113.224C328.715 113.395 328.939 113.48 329.238 113.48C329.451 113.48 329.643 113.443 329.814 113.368C329.984 113.283 330.134 113.181 330.262 113.064L330.982 114.44C330.715 114.696 330.411 114.883 330.07 115C329.728 115.117 329.323 115.176 328.854 115.176Z" fill="#242E30"/>
<path d="M245.516 137.752H242.556V136.6H249.836V137.752H246.876V147H245.516V137.752ZM251.579 135.4H252.859V140.216H252.955C253.136 139.853 253.397 139.544 253.739 139.288C254.08 139.032 254.517 138.904 255.051 138.904C255.957 138.904 256.672 139.144 257.195 139.624C257.728 140.104 257.995 140.877 257.995 141.944V147H256.715V142.184C256.715 141.373 256.549 140.803 256.219 140.472C255.899 140.131 255.424 139.96 254.795 139.96C254.187 139.96 253.712 140.168 253.371 140.584C253.029 141 252.859 141.608 252.859 142.408V147H251.579V135.4ZM261.973 137C261.973 137.224 261.893 137.416 261.733 137.576C261.584 137.736 261.381 137.816 261.125 137.816C260.858 137.816 260.65 137.736 260.501 137.576C260.352 137.416 260.277 137.224 260.277 137C260.277 136.787 260.352 136.6 260.501 136.44C260.65 136.269 260.858 136.184 261.125 136.184C261.381 136.184 261.584 136.269 261.733 136.44C261.893 136.6 261.973 136.787 261.973 137ZM260.485 139.096H261.765V147H260.485V139.096ZM268.293 144.952C268.293 144.717 268.24 144.525 268.133 144.376C268.026 144.216 267.877 144.083 267.685 143.976C267.504 143.869 267.296 143.779 267.061 143.704C266.826 143.629 266.581 143.555 266.325 143.48C266.026 143.395 265.738 143.293 265.461 143.176C265.194 143.059 264.954 142.915 264.741 142.744C264.528 142.563 264.357 142.349 264.229 142.104C264.101 141.859 264.037 141.56 264.037 141.208C264.037 140.835 264.106 140.504 264.245 140.216C264.384 139.928 264.576 139.688 264.821 139.496C265.066 139.304 265.354 139.16 265.685 139.064C266.016 138.957 266.373 138.904 266.757 138.904C267.333 138.904 267.861 139.011 268.341 139.224C268.821 139.427 269.216 139.747 269.525 140.184L268.693 140.952C268.458 140.675 268.181 140.445 267.861 140.264C267.552 140.083 267.184 139.992 266.757 139.992C266.576 139.992 266.394 140.013 266.213 140.056C266.042 140.099 265.888 140.168 265.749 140.264C265.61 140.349 265.498 140.461 265.413 140.6C265.328 140.739 265.285 140.904 265.285 141.096C265.285 141.331 265.338 141.528 265.445 141.688C265.552 141.837 265.696 141.965 265.877 142.072C266.069 142.179 266.282 142.269 266.517 142.344C266.752 142.419 266.997 142.493 267.253 142.568C267.552 142.653 267.834 142.755 268.101 142.872C268.378 142.989 268.624 143.139 268.837 143.32C269.05 143.491 269.221 143.699 269.349 143.944C269.477 144.189 269.541 144.488 269.541 144.84C269.541 145.256 269.461 145.613 269.301 145.912C269.152 146.2 268.944 146.44 268.677 146.632C268.41 146.824 268.101 146.963 267.749 147.048C267.397 147.144 267.024 147.192 266.629 147.192C265.936 147.192 265.344 147.075 264.853 146.84C264.373 146.605 263.994 146.301 263.717 145.928L264.565 145.128C264.81 145.416 265.093 145.651 265.413 145.832C265.744 146.013 266.154 146.104 266.645 146.104C266.869 146.104 267.077 146.083 267.269 146.04C267.472 145.997 267.648 145.928 267.797 145.832C267.946 145.736 268.064 145.619 268.149 145.48C268.245 145.331 268.293 145.155 268.293 144.952ZM277.082 137C277.082 137.224 277.002 137.416 276.842 137.576C276.693 137.736 276.49 137.816 276.234 137.816C275.968 137.816 275.76 137.736 275.61 137.576C275.461 137.416 275.386 137.224 275.386 137C275.386 136.787 275.461 136.6 275.61 136.44C275.76 136.269 275.968 136.184 276.234 136.184C276.49 136.184 276.693 136.269 276.842 136.44C277.002 136.6 277.082 136.787 277.082 137ZM275.594 139.096H276.874V147H275.594V139.096ZM283.402 144.952C283.402 144.717 283.349 144.525 283.242 144.376C283.136 144.216 282.986 144.083 282.794 143.976C282.613 143.869 282.405 143.779 282.17 143.704C281.936 143.629 281.69 143.555 281.434 143.48C281.136 143.395 280.848 143.293 280.57 143.176C280.304 143.059 280.064 142.915 279.85 142.744C279.637 142.563 279.466 142.349 279.338 142.104C279.21 141.859 279.146 141.56 279.146 141.208C279.146 140.835 279.216 140.504 279.354 140.216C279.493 139.928 279.685 139.688 279.93 139.496C280.176 139.304 280.464 139.16 280.794 139.064C281.125 138.957 281.482 138.904 281.866 138.904C282.442 138.904 282.97 139.011 283.45 139.224C283.93 139.427 284.325 139.747 284.634 140.184L283.802 140.952C283.568 140.675 283.29 140.445 282.97 140.264C282.661 140.083 282.293 139.992 281.866 139.992C281.685 139.992 281.504 140.013 281.322 140.056C281.152 140.099 280.997 140.168 280.858 140.264C280.72 140.349 280.608 140.461 280.522 140.6C280.437 140.739 280.394 140.904 280.394 141.096C280.394 141.331 280.448 141.528 280.554 141.688C280.661 141.837 280.805 141.965 280.986 142.072C281.178 142.179 281.392 142.269 281.626 142.344C281.861 142.419 282.106 142.493 282.362 142.568C282.661 142.653 282.944 142.755 283.21 142.872C283.488 142.989 283.733 143.139 283.946 143.32C284.16 143.491 284.33 143.699 284.458 143.944C284.586 144.189 284.65 144.488 284.65 144.84C284.65 145.256 284.57 145.613 284.41 145.912C284.261 146.2 284.053 146.44 283.786 146.632C283.52 146.824 283.21 146.963 282.858 147.048C282.506 147.144 282.133 147.192 281.738 147.192C281.045 147.192 280.453 147.075 279.962 146.84C279.482 146.605 279.104 146.301 278.826 145.928L279.674 145.128C279.92 145.416 280.202 145.651 280.522 145.832C280.853 146.013 281.264 146.104 281.754 146.104C281.978 146.104 282.186 146.083 282.378 146.04C282.581 145.997 282.757 145.928 282.906 145.832C283.056 145.736 283.173 145.619 283.258 145.48C283.354 145.331 283.402 145.155 283.402 144.952ZM292.448 147.192C292.085 147.192 291.749 147.133 291.44 147.016C291.141 146.899 290.88 146.733 290.656 146.52C290.432 146.307 290.256 146.056 290.128 145.768C290.01 145.469 289.952 145.144 289.952 144.792C289.952 144.109 290.197 143.56 290.688 143.144C291.178 142.728 291.877 142.493 292.784 142.44L294.864 142.312V141.752C294.864 141.144 294.714 140.707 294.416 140.44C294.128 140.163 293.712 140.024 293.168 140.024C292.709 140.024 292.314 140.109 291.984 140.28C291.653 140.451 291.397 140.637 291.216 140.84L290.448 140.072C290.725 139.731 291.098 139.453 291.568 139.24C292.048 139.016 292.592 138.904 293.2 138.904C293.744 138.904 294.202 138.979 294.576 139.128C294.949 139.267 295.248 139.459 295.472 139.704C295.706 139.949 295.872 140.237 295.968 140.568C296.074 140.899 296.128 141.251 296.128 141.624V147H294.928V145.656H294.832C294.618 146.136 294.32 146.515 293.936 146.792C293.552 147.059 293.056 147.192 292.448 147.192ZM292.64 146.104C293.301 146.104 293.834 145.912 294.24 145.528C294.656 145.133 294.864 144.611 294.864 143.96V143.272L292.848 143.416C291.781 143.501 291.248 143.949 291.248 144.76C291.248 145.165 291.376 145.491 291.632 145.736C291.898 145.981 292.234 146.104 292.64 146.104ZM302.548 139.096H303.764V140.712H303.86C303.956 140.445 304.089 140.2 304.26 139.976C304.441 139.752 304.649 139.56 304.884 139.4C305.129 139.24 305.396 139.117 305.684 139.032C305.982 138.947 306.292 138.904 306.612 138.904C307.134 138.904 307.609 139.011 308.036 139.224C308.473 139.427 308.846 139.715 309.156 140.088C309.465 140.451 309.7 140.888 309.86 141.4C310.03 141.912 310.116 142.467 310.116 143.064C310.116 143.661 310.03 144.216 309.86 144.728C309.7 145.229 309.465 145.667 309.156 146.04C308.846 146.403 308.473 146.685 308.036 146.888C307.609 147.091 307.134 147.192 306.612 147.192C305.961 147.192 305.401 147.037 304.932 146.728C304.462 146.419 304.126 146.024 303.924 145.544H303.828V149.96H302.548V139.096ZM306.292 146.04C306.644 146.04 306.969 145.981 307.268 145.864C307.577 145.736 307.844 145.549 308.068 145.304C308.302 145.048 308.484 144.733 308.612 144.36C308.74 143.987 308.804 143.549 308.804 143.048C308.804 142.547 308.74 142.109 308.612 141.736C308.484 141.363 308.302 141.053 308.068 140.808C307.844 140.552 307.577 140.365 307.268 140.248C306.969 140.12 306.644 140.056 306.292 140.056C305.95 140.056 305.63 140.12 305.332 140.248C305.033 140.365 304.772 140.552 304.548 140.808C304.324 141.053 304.148 141.363 304.02 141.736C303.892 142.109 303.828 142.547 303.828 143.048C303.828 143.549 303.892 143.987 304.02 144.36C304.148 144.733 304.324 145.048 304.548 145.304C304.772 145.549 305.033 145.736 305.332 145.864C305.63 145.981 305.95 146.04 306.292 146.04ZM312.173 135.4H313.453V147H312.173V135.4ZM317.917 147.192C317.554 147.192 317.218 147.133 316.909 147.016C316.61 146.899 316.349 146.733 316.125 146.52C315.901 146.307 315.725 146.056 315.597 145.768C315.479 145.469 315.421 145.144 315.421 144.792C315.421 144.109 315.666 143.56 316.157 143.144C316.647 142.728 317.346 142.493 318.253 142.44L320.333 142.312V141.752C320.333 141.144 320.183 140.707 319.885 140.44C319.597 140.163 319.181 140.024 318.637 140.024C318.178 140.024 317.783 140.109 317.453 140.28C317.122 140.451 316.866 140.637 316.685 140.84L315.917 140.072C316.194 139.731 316.567 139.453 317.037 139.24C317.517 139.016 318.061 138.904 318.669 138.904C319.213 138.904 319.671 138.979 320.045 139.128C320.418 139.267 320.717 139.459 320.941 139.704C321.175 139.949 321.341 140.237 321.437 140.568C321.543 140.899 321.597 141.251 321.597 141.624V147H320.397V145.656H320.301C320.087 146.136 319.789 146.515 319.405 146.792C319.021 147.059 318.525 147.192 317.917 147.192ZM318.109 146.104C318.77 146.104 319.303 145.912 319.709 145.528C320.125 145.133 320.333 144.611 320.333 143.96V143.272L318.317 143.416C317.25 143.501 316.717 143.949 316.717 144.76C316.717 145.165 316.845 145.491 317.101 145.736C317.367 145.981 317.703 146.104 318.109 146.104ZM327.181 147.192C326.541 147.192 325.986 147.075 325.517 146.84C325.058 146.605 324.679 146.296 324.381 145.912C324.082 145.528 323.863 145.091 323.725 144.6C323.586 144.099 323.517 143.581 323.517 143.048C323.517 142.515 323.586 142.003 323.725 141.512C323.863 141.011 324.077 140.568 324.365 140.184C324.663 139.8 325.042 139.491 325.501 139.256C325.959 139.021 326.509 138.904 327.149 138.904C327.821 138.904 328.37 139.016 328.797 139.24C329.223 139.464 329.586 139.763 329.885 140.136L329.085 140.888C328.829 140.611 328.557 140.397 328.269 140.248C327.991 140.088 327.629 140.008 327.181 140.008C326.477 140.008 325.906 140.28 325.469 140.824C325.042 141.357 324.829 142.099 324.829 143.048C324.829 143.517 324.887 143.939 325.005 144.312C325.122 144.685 325.287 145.005 325.501 145.272C325.714 145.539 325.965 145.741 326.253 145.88C326.541 146.019 326.861 146.088 327.213 146.088C327.639 146.088 328.007 146.013 328.317 145.864C328.626 145.704 328.914 145.475 329.181 145.176L329.949 145.944C329.639 146.317 329.261 146.621 328.813 146.856C328.365 147.08 327.821 147.192 327.181 147.192ZM334.745 147.192C334.18 147.192 333.662 147.096 333.193 146.904C332.734 146.712 332.34 146.44 332.009 146.088C331.689 145.725 331.438 145.288 331.257 144.776C331.086 144.264 331.001 143.688 331.001 143.048C331.001 142.376 331.092 141.784 331.273 141.272C331.454 140.749 331.705 140.317 332.025 139.976C332.345 139.624 332.724 139.357 333.161 139.176C333.609 138.995 334.1 138.904 334.633 138.904C335.166 138.904 335.657 138.989 336.105 139.16C336.553 139.331 336.937 139.587 337.257 139.928C337.577 140.259 337.828 140.68 338.009 141.192C338.19 141.693 338.281 142.28 338.281 142.952C338.281 143.037 338.276 143.123 338.265 143.208C338.265 143.293 338.26 143.363 338.249 143.416H332.281C332.281 143.789 332.345 144.141 332.473 144.472C332.612 144.792 332.793 145.075 333.017 145.32C333.252 145.555 333.518 145.741 333.817 145.88C334.126 146.019 334.457 146.088 334.809 146.088C335.385 146.088 335.854 145.976 336.217 145.752C336.59 145.528 336.9 145.256 337.145 144.936L337.913 145.72C337.572 146.168 337.145 146.525 336.633 146.792C336.132 147.059 335.502 147.192 334.745 147.192ZM334.633 139.96C334.26 139.96 333.929 140.029 333.641 140.168C333.353 140.307 333.113 140.488 332.921 140.712C332.729 140.936 332.58 141.192 332.473 141.48C332.377 141.768 332.324 142.056 332.313 142.344H336.937C336.926 142.056 336.868 141.768 336.761 141.48C336.665 141.192 336.521 140.936 336.329 140.712C336.137 140.488 335.897 140.307 335.609 140.168C335.332 140.029 335.006 139.96 334.633 139.96ZM340.344 135.4H341.624V140.216H341.72C341.902 139.853 342.163 139.544 342.504 139.288C342.846 139.032 343.283 138.904 343.816 138.904C344.723 138.904 345.438 139.144 345.96 139.624C346.494 140.104 346.76 140.877 346.76 141.944V147H345.48V142.184C345.48 141.373 345.315 140.803 344.984 140.472C344.664 140.131 344.19 139.96 343.56 139.96C342.952 139.96 342.478 140.168 342.136 140.584C341.795 141 341.624 141.608 341.624 142.408V147H340.344V135.4ZM352.371 147.192C351.741 147.192 351.187 147.085 350.707 146.872C350.237 146.648 349.843 146.349 349.523 145.976C349.213 145.603 348.979 145.165 348.819 144.664C348.669 144.163 348.595 143.624 348.595 143.048C348.595 142.472 348.669 141.933 348.819 141.432C348.979 140.931 349.213 140.493 349.523 140.12C349.843 139.747 350.237 139.453 350.707 139.24C351.187 139.016 351.741 138.904 352.371 138.904C353 138.904 353.544 139.016 354.003 139.24C354.472 139.453 354.861 139.747 355.171 140.12C355.48 140.493 355.709 140.931 355.859 141.432C356.019 141.933 356.099 142.472 356.099 143.048C356.099 143.624 356.019 144.163 355.859 144.664C355.709 145.165 355.48 145.603 355.171 145.976C354.861 146.349 354.472 146.648 354.003 146.872C353.544 147.085 353 147.192 352.371 147.192ZM349.907 143.048C349.907 143.507 349.955 143.928 350.051 144.312C350.157 144.685 350.312 145.011 350.515 145.288C350.717 145.555 350.973 145.763 351.283 145.912C351.592 146.061 351.955 146.136 352.371 146.136C352.776 146.136 353.128 146.061 353.427 145.912C353.736 145.763 353.987 145.555 354.179 145.288C354.381 145.011 354.531 144.685 354.627 144.312C354.733 143.928 354.787 143.507 354.787 143.048C354.787 142.589 354.733 142.173 354.627 141.8C354.531 141.416 354.381 141.091 354.179 140.824C353.987 140.547 353.736 140.333 353.427 140.184C353.128 140.035 352.776 139.96 352.371 139.96C351.955 139.96 351.592 140.035 351.283 140.184C350.973 140.333 350.717 140.547 350.515 140.824C350.312 141.091 350.157 141.416 350.051 141.8C349.955 142.173 349.907 142.589 349.907 143.048ZM358.157 135.4H359.437V147H358.157V135.4ZM365.005 147.192C364.472 147.192 363.992 147.091 363.565 146.888C363.138 146.675 362.77 146.387 362.461 146.024C362.152 145.651 361.912 145.208 361.741 144.696C361.581 144.184 361.501 143.629 361.501 143.032C361.501 142.435 361.581 141.885 361.741 141.384C361.912 140.872 362.152 140.435 362.461 140.072C362.77 139.699 363.138 139.411 363.565 139.208C363.992 139.005 364.472 138.904 365.005 138.904C365.656 138.904 366.216 139.059 366.685 139.368C367.154 139.677 367.49 140.072 367.693 140.552H367.789V135.4H369.069V147H367.853V145.384H367.757C367.661 145.661 367.522 145.912 367.341 146.136C367.17 146.349 366.962 146.536 366.717 146.696C366.482 146.856 366.216 146.979 365.917 147.064C365.629 147.149 365.325 147.192 365.005 147.192ZM365.325 146.04C365.666 146.04 365.986 145.981 366.285 145.864C366.584 145.736 366.845 145.549 367.069 145.304C367.293 145.048 367.469 144.733 367.597 144.36C367.725 143.987 367.789 143.549 367.789 143.048C367.789 142.547 367.725 142.109 367.597 141.736C367.469 141.363 367.293 141.053 367.069 140.808C366.845 140.552 366.584 140.365 366.285 140.248C365.986 140.12 365.666 140.056 365.325 140.056C364.973 140.056 364.642 140.12 364.333 140.248C364.034 140.365 363.768 140.552 363.533 140.808C363.309 141.053 363.133 141.363 363.005 141.736C362.877 142.109 362.813 142.547 362.813 143.048C362.813 143.549 362.877 143.987 363.005 144.36C363.133 144.733 363.309 145.048 363.533 145.304C363.768 145.549 364.034 145.736 364.333 145.864C364.642 145.981 364.973 146.04 365.325 146.04ZM374.87 147.192C374.305 147.192 373.787 147.096 373.318 146.904C372.859 146.712 372.465 146.44 372.134 146.088C371.814 145.725 371.563 145.288 371.382 144.776C371.211 144.264 371.126 143.688 371.126 143.048C371.126 142.376 371.217 141.784 371.398 141.272C371.579 140.749 371.83 140.317 372.15 139.976C372.47 139.624 372.849 139.357 373.286 139.176C373.734 138.995 374.225 138.904 374.758 138.904C375.291 138.904 375.782 138.989 376.23 139.16C376.678 139.331 377.062 139.587 377.382 139.928C377.702 140.259 377.953 140.68 378.134 141.192C378.315 141.693 378.406 142.28 378.406 142.952C378.406 143.037 378.401 143.123 378.39 143.208C378.39 143.293 378.385 143.363 378.374 143.416H372.406C372.406 143.789 372.47 144.141 372.598 144.472C372.737 144.792 372.918 145.075 373.142 145.32C373.377 145.555 373.643 145.741 373.942 145.88C374.251 146.019 374.582 146.088 374.934 146.088C375.51 146.088 375.979 145.976 376.342 145.752C376.715 145.528 377.025 145.256 377.27 144.936L378.038 145.72C377.697 146.168 377.27 146.525 376.758 146.792C376.257 147.059 375.627 147.192 374.87 147.192ZM374.758 139.96C374.385 139.96 374.054 140.029 373.766 140.168C373.478 140.307 373.238 140.488 373.046 140.712C372.854 140.936 372.705 141.192 372.598 141.48C372.502 141.768 372.449 142.056 372.438 142.344H377.062C377.051 142.056 376.993 141.768 376.886 141.48C376.79 141.192 376.646 140.936 376.454 140.712C376.262 140.488 376.022 140.307 375.734 140.168C375.457 140.029 375.131 139.96 374.758 139.96ZM380.469 139.096H381.685V140.376H381.781C381.952 139.96 382.197 139.613 382.517 139.336C382.837 139.048 383.237 138.904 383.717 138.904C384.123 138.904 384.48 138.984 384.789 139.144L384.357 140.296C384.219 140.221 384.069 140.173 383.909 140.152C383.76 140.12 383.605 140.104 383.445 140.104C382.923 140.104 382.507 140.317 382.197 140.744C381.899 141.16 381.749 141.693 381.749 142.344V147H380.469V139.096ZM385.984 145.304C386.283 145.304 386.518 145.411 386.688 145.624C386.859 145.837 386.944 146.093 386.944 146.392C386.944 146.904 386.79 147.384 386.48 147.832C386.171 148.28 385.755 148.707 385.232 149.112L384.736 148.584C384.95 148.381 385.142 148.157 385.312 147.912C385.483 147.677 385.616 147.405 385.712 147.096C385.499 147.043 385.328 146.936 385.2 146.776C385.083 146.616 385.024 146.429 385.024 146.216C385.024 145.971 385.11 145.757 385.28 145.576C385.451 145.395 385.686 145.304 385.984 145.304ZM231.805 163.096H233.021V164.376H233.117C233.288 163.96 233.533 163.613 233.853 163.336C234.173 163.048 234.573 162.904 235.053 162.904C235.459 162.904 235.816 162.984 236.125 163.144L235.693 164.296C235.555 164.221 235.405 164.173 235.245 164.152C235.096 164.12 234.941 164.104 234.781 164.104C234.259 164.104 233.843 164.317 233.533 164.744C233.235 165.16 233.085 165.693 233.085 166.344V171H231.805V163.096ZM240.471 171.192C239.906 171.192 239.389 171.096 238.919 170.904C238.461 170.712 238.066 170.44 237.735 170.088C237.415 169.725 237.165 169.288 236.983 168.776C236.813 168.264 236.727 167.688 236.727 167.048C236.727 166.376 236.818 165.784 236.999 165.272C237.181 164.749 237.431 164.317 237.751 163.976C238.071 163.624 238.45 163.357 238.887 163.176C239.335 162.995 239.826 162.904 240.359 162.904C240.893 162.904 241.383 162.989 241.831 163.16C242.279 163.331 242.663 163.587 242.983 163.928C243.303 164.259 243.554 164.68 243.735 165.192C243.917 165.693 244.007 166.28 244.007 166.952C244.007 167.037 244.002 167.123 243.991 167.208C243.991 167.293 243.986 167.363 243.975 167.416H238.007C238.007 167.789 238.071 168.141 238.199 168.472C238.338 168.792 238.519 169.075 238.743 169.32C238.978 169.555 239.245 169.741 239.543 169.88C239.853 170.019 240.183 170.088 240.535 170.088C241.111 170.088 241.581 169.976 241.943 169.752C242.317 169.528 242.626 169.256 242.871 168.936L243.639 169.72C243.298 170.168 242.871 170.525 242.359 170.792C241.858 171.059 241.229 171.192 240.471 171.192ZM240.359 163.96C239.986 163.96 239.655 164.029 239.367 164.168C239.079 164.307 238.839 164.488 238.647 164.712C238.455 164.936 238.306 165.192 238.199 165.48C238.103 165.768 238.05 166.056 238.039 166.344H242.663C242.653 166.056 242.594 165.768 242.487 165.48C242.391 165.192 242.247 164.936 242.055 164.712C241.863 164.488 241.623 164.307 241.335 164.168C241.058 164.029 240.733 163.96 240.359 163.96ZM246.071 163.096H247.287V164.712H247.383C247.479 164.445 247.612 164.2 247.783 163.976C247.964 163.752 248.172 163.56 248.407 163.4C248.652 163.24 248.919 163.117 249.207 163.032C249.506 162.947 249.815 162.904 250.135 162.904C250.658 162.904 251.132 163.011 251.559 163.224C251.996 163.427 252.37 163.715 252.679 164.088C252.988 164.451 253.223 164.888 253.383 165.4C253.554 165.912 253.639 166.467 253.639 167.064C253.639 167.661 253.554 168.216 253.383 168.728C253.223 169.229 252.988 169.667 252.679 170.04C252.37 170.403 251.996 170.685 251.559 170.888C251.132 171.091 250.658 171.192 250.135 171.192C249.484 171.192 248.924 171.037 248.455 170.728C247.986 170.419 247.65 170.024 247.447 169.544H247.351V173.96H246.071V163.096ZM249.815 170.04C250.167 170.04 250.492 169.981 250.791 169.864C251.1 169.736 251.367 169.549 251.591 169.304C251.826 169.048 252.007 168.733 252.135 168.36C252.263 167.987 252.327 167.549 252.327 167.048C252.327 166.547 252.263 166.109 252.135 165.736C252.007 165.363 251.826 165.053 251.591 164.808C251.367 164.552 251.1 164.365 250.791 164.248C250.492 164.12 250.167 164.056 249.815 164.056C249.474 164.056 249.154 164.12 248.855 164.248C248.556 164.365 248.295 164.552 248.071 164.808C247.847 165.053 247.671 165.363 247.543 165.736C247.415 166.109 247.351 166.547 247.351 167.048C247.351 167.549 247.415 167.987 247.543 168.36C247.671 168.733 247.847 169.048 248.071 169.304C248.295 169.549 248.556 169.736 248.855 169.864C249.154 169.981 249.474 170.04 249.815 170.04ZM255.696 159.4H256.976V171H255.696V159.4ZM261.44 171.192C261.077 171.192 260.741 171.133 260.432 171.016C260.133 170.899 259.872 170.733 259.648 170.52C259.424 170.307 259.248 170.056 259.12 169.768C259.003 169.469 258.944 169.144 258.944 168.792C258.944 168.109 259.189 167.56 259.68 167.144C260.171 166.728 260.869 166.493 261.776 166.44L263.856 166.312V165.752C263.856 165.144 263.707 164.707 263.408 164.44C263.12 164.163 262.704 164.024 262.16 164.024C261.701 164.024 261.307 164.109 260.976 164.28C260.645 164.451 260.389 164.637 260.208 164.84L259.44 164.072C259.717 163.731 260.091 163.453 260.56 163.24C261.04 163.016 261.584 162.904 262.192 162.904C262.736 162.904 263.195 162.979 263.568 163.128C263.941 163.267 264.24 163.459 264.464 163.704C264.699 163.949 264.864 164.237 264.96 164.568C265.067 164.899 265.12 165.251 265.12 165.624V171H263.92V169.656H263.824C263.611 170.136 263.312 170.515 262.928 170.792C262.544 171.059 262.048 171.192 261.44 171.192ZM261.632 170.104C262.293 170.104 262.827 169.912 263.232 169.528C263.648 169.133 263.856 168.611 263.856 167.96V167.272L261.84 167.416C260.773 167.501 260.24 167.949 260.24 168.76C260.24 169.165 260.368 169.491 260.624 169.736C260.891 169.981 261.227 170.104 261.632 170.104ZM270.704 171.192C270.064 171.192 269.509 171.075 269.04 170.84C268.581 170.605 268.203 170.296 267.904 169.912C267.605 169.528 267.387 169.091 267.248 168.6C267.109 168.099 267.04 167.581 267.04 167.048C267.04 166.515 267.109 166.003 267.248 165.512C267.387 165.011 267.6 164.568 267.888 164.184C268.187 163.8 268.565 163.491 269.024 163.256C269.483 163.021 270.032 162.904 270.672 162.904C271.344 162.904 271.893 163.016 272.32 163.24C272.747 163.464 273.109 163.763 273.408 164.136L272.608 164.888C272.352 164.611 272.08 164.397 271.792 164.248C271.515 164.088 271.152 164.008 270.704 164.008C270 164.008 269.429 164.28 268.992 164.824C268.565 165.357 268.352 166.099 268.352 167.048C268.352 167.517 268.411 167.939 268.528 168.312C268.645 168.685 268.811 169.005 269.024 169.272C269.237 169.539 269.488 169.741 269.776 169.88C270.064 170.019 270.384 170.088 270.736 170.088C271.163 170.088 271.531 170.013 271.84 169.864C272.149 169.704 272.437 169.475 272.704 169.176L273.472 169.944C273.163 170.317 272.784 170.621 272.336 170.856C271.888 171.08 271.344 171.192 270.704 171.192ZM278.268 171.192C277.703 171.192 277.186 171.096 276.716 170.904C276.258 170.712 275.863 170.44 275.532 170.088C275.212 169.725 274.962 169.288 274.78 168.776C274.61 168.264 274.524 167.688 274.524 167.048C274.524 166.376 274.615 165.784 274.796 165.272C274.978 164.749 275.228 164.317 275.548 163.976C275.868 163.624 276.247 163.357 276.684 163.176C277.132 162.995 277.623 162.904 278.156 162.904C278.69 162.904 279.18 162.989 279.628 163.16C280.076 163.331 280.46 163.587 280.78 163.928C281.1 164.259 281.351 164.68 281.532 165.192C281.714 165.693 281.804 166.28 281.804 166.952C281.804 167.037 281.799 167.123 281.788 167.208C281.788 167.293 281.783 167.363 281.772 167.416H275.804C275.804 167.789 275.868 168.141 275.996 168.472C276.135 168.792 276.316 169.075 276.54 169.32C276.775 169.555 277.042 169.741 277.34 169.88C277.65 170.019 277.98 170.088 278.332 170.088C278.908 170.088 279.378 169.976 279.74 169.752C280.114 169.528 280.423 169.256 280.668 168.936L281.436 169.72C281.095 170.168 280.668 170.525 280.156 170.792C279.655 171.059 279.026 171.192 278.268 171.192ZM278.156 163.96C277.783 163.96 277.452 164.029 277.164 164.168C276.876 164.307 276.636 164.488 276.444 164.712C276.252 164.936 276.103 165.192 275.996 165.48C275.9 165.768 275.847 166.056 275.836 166.344H280.46C280.45 166.056 280.391 165.768 280.284 165.48C280.188 165.192 280.044 164.936 279.852 164.712C279.66 164.488 279.42 164.307 279.132 164.168C278.855 164.029 278.53 163.96 278.156 163.96ZM287.712 163.096H288.928V164.344H289.024C289.216 163.928 289.482 163.587 289.824 163.32C290.176 163.043 290.613 162.904 291.136 162.904C291.765 162.904 292.293 163.021 292.72 163.256C293.157 163.48 293.482 163.821 293.696 164.28C293.93 163.832 294.245 163.491 294.64 163.256C295.034 163.021 295.536 162.904 296.144 162.904C296.581 162.904 296.976 162.963 297.328 163.08C297.68 163.197 297.978 163.379 298.224 163.624C298.48 163.869 298.672 164.184 298.8 164.568C298.938 164.952 299.008 165.411 299.008 165.944V171H297.728V166.184C297.728 165.373 297.568 164.803 297.248 164.472C296.938 164.131 296.48 163.96 295.872 163.96C295.285 163.96 294.826 164.168 294.496 164.584C294.165 165 294 165.608 294 166.408V171H292.72V166.184C292.72 165.373 292.56 164.803 292.24 164.472C291.93 164.131 291.472 163.96 290.864 163.96C290.288 163.96 289.829 164.168 289.488 164.584C289.157 165 288.992 165.608 288.992 166.408V171H287.712V163.096ZM304.675 171.192C304.109 171.192 303.592 171.096 303.123 170.904C302.664 170.712 302.269 170.44 301.939 170.088C301.619 169.725 301.368 169.288 301.187 168.776C301.016 168.264 300.931 167.688 300.931 167.048C300.931 166.376 301.021 165.784 301.203 165.272C301.384 164.749 301.635 164.317 301.955 163.976C302.275 163.624 302.653 163.357 303.091 163.176C303.539 162.995 304.029 162.904 304.563 162.904C305.096 162.904 305.587 162.989 306.035 163.16C306.483 163.331 306.867 163.587 307.187 163.928C307.507 164.259 307.757 164.68 307.939 165.192C308.12 165.693 308.211 166.28 308.211 166.952C308.211 167.037 308.205 167.123 308.195 167.208C308.195 167.293 308.189 167.363 308.179 167.416H302.211C302.211 167.789 302.275 168.141 302.403 168.472C302.541 168.792 302.723 169.075 302.947 169.32C303.181 169.555 303.448 169.741 303.747 169.88C304.056 170.019 304.387 170.088 304.739 170.088C305.315 170.088 305.784 169.976 306.147 169.752C306.52 169.528 306.829 169.256 307.075 168.936L307.843 169.72C307.501 170.168 307.075 170.525 306.563 170.792C306.061 171.059 305.432 171.192 304.675 171.192ZM304.563 163.96C304.189 163.96 303.859 164.029 303.571 164.168C303.283 164.307 303.043 164.488 302.851 164.712C302.659 164.936 302.509 165.192 302.403 165.48C302.307 165.768 302.253 166.056 302.243 166.344H306.867C306.856 166.056 306.797 165.768 306.691 165.48C306.595 165.192 306.451 164.936 306.259 164.712C306.067 164.488 305.827 164.307 305.539 164.168C305.261 164.029 304.936 163.96 304.563 163.96ZM313.19 163.096H314.566L316.566 169.672H316.662L318.518 163.096H320.038L321.894 169.672H321.99L323.99 163.096H325.27L322.582 171H321.142L319.286 164.456H319.19L317.35 171H315.878L313.19 163.096ZM328.543 161C328.543 161.224 328.463 161.416 328.303 161.576C328.154 161.736 327.951 161.816 327.695 161.816C327.429 161.816 327.221 161.736 327.071 161.576C326.922 161.416 326.847 161.224 326.847 161C326.847 160.787 326.922 160.6 327.071 160.44C327.221 160.269 327.429 160.184 327.695 160.184C327.951 160.184 328.154 160.269 328.303 160.44C328.463 160.6 328.543 160.787 328.543 161ZM327.055 163.096H328.335V171H327.055V163.096ZM333.487 171.192C332.773 171.192 332.25 170.979 331.919 170.552C331.589 170.125 331.423 169.539 331.423 168.792V164.136H330.015V163.096H331.423V160.952H332.687V163.096H334.975V164.136H332.687V168.68C332.687 169.192 332.783 169.549 332.975 169.752C333.178 169.955 333.434 170.056 333.743 170.056C333.957 170.056 334.149 170.019 334.319 169.944C334.49 169.859 334.65 169.747 334.799 169.608L335.375 170.504C334.885 170.963 334.255 171.192 333.487 171.192ZM337.118 159.4H338.398V164.216H338.494C338.675 163.853 338.936 163.544 339.278 163.288C339.619 163.032 340.056 162.904 340.59 162.904C341.496 162.904 342.211 163.144 342.734 163.624C343.267 164.104 343.534 164.877 343.534 165.944V171H342.254V166.184C342.254 165.373 342.088 164.803 341.758 164.472C341.438 164.131 340.963 163.96 340.334 163.96C339.726 163.96 339.251 164.168 338.91 164.584C338.568 165 338.398 165.608 338.398 166.408V171H337.118V159.4ZM352.876 171.192C352.236 171.192 351.681 171.075 351.212 170.84C350.753 170.605 350.374 170.296 350.076 169.912C349.777 169.528 349.558 169.091 349.42 168.6C349.281 168.099 349.212 167.581 349.212 167.048C349.212 166.515 349.281 166.003 349.42 165.512C349.558 165.011 349.772 164.568 350.06 164.184C350.358 163.8 350.737 163.491 351.196 163.256C351.654 163.021 352.204 162.904 352.844 162.904C353.516 162.904 354.065 163.016 354.492 163.24C354.918 163.464 355.281 163.763 355.58 164.136L354.78 164.888C354.524 164.611 354.252 164.397 353.964 164.248C353.686 164.088 353.324 164.008 352.876 164.008C352.172 164.008 351.601 164.28 351.164 164.824C350.737 165.357 350.524 166.099 350.524 167.048C350.524 167.517 350.582 167.939 350.7 168.312C350.817 168.685 350.982 169.005 351.196 169.272C351.409 169.539 351.66 169.741 351.948 169.88C352.236 170.019 352.556 170.088 352.908 170.088C353.334 170.088 353.702 170.013 354.012 169.864C354.321 169.704 354.609 169.475 354.876 169.176L355.644 169.944C355.334 170.317 354.956 170.621 354.508 170.856C354.06 171.08 353.516 171.192 352.876 171.192ZM360.472 171.192C359.843 171.192 359.288 171.085 358.808 170.872C358.339 170.648 357.944 170.349 357.624 169.976C357.315 169.603 357.08 169.165 356.92 168.664C356.771 168.163 356.696 167.624 356.696 167.048C356.696 166.472 356.771 165.933 356.92 165.432C357.08 164.931 357.315 164.493 357.624 164.12C357.944 163.747 358.339 163.453 358.808 163.24C359.288 163.016 359.843 162.904 360.472 162.904C361.102 162.904 361.646 163.016 362.104 163.24C362.574 163.453 362.963 163.747 363.272 164.12C363.582 164.493 363.811 164.931 363.96 165.432C364.12 165.933 364.2 166.472 364.2 167.048C364.2 167.624 364.12 168.163 363.96 168.664C363.811 169.165 363.582 169.603 363.272 169.976C362.963 170.349 362.574 170.648 362.104 170.872C361.646 171.085 361.102 171.192 360.472 171.192ZM358.008 167.048C358.008 167.507 358.056 167.928 358.152 168.312C358.259 168.685 358.414 169.011 358.616 169.288C358.819 169.555 359.075 169.763 359.384 169.912C359.694 170.061 360.056 170.136 360.472 170.136C360.878 170.136 361.23 170.061 361.528 169.912C361.838 169.763 362.088 169.555 362.28 169.288C362.483 169.011 362.632 168.685 362.728 168.312C362.835 167.928 362.888 167.507 362.888 167.048C362.888 166.589 362.835 166.173 362.728 165.8C362.632 165.416 362.483 165.091 362.28 164.824C362.088 164.547 361.838 164.333 361.528 164.184C361.23 164.035 360.878 163.96 360.472 163.96C360.056 163.96 359.694 164.035 359.384 164.184C359.075 164.333 358.819 164.547 358.616 164.824C358.414 165.091 358.259 165.416 358.152 165.8C358.056 166.173 358.008 166.589 358.008 167.048ZM366.258 163.096H367.474V164.344H367.57C367.762 163.928 368.034 163.587 368.386 163.32C368.738 163.043 369.186 162.904 369.73 162.904C370.637 162.904 371.352 163.144 371.874 163.624C372.408 164.104 372.674 164.877 372.674 165.944V171H371.394V166.184C371.394 165.373 371.229 164.803 370.898 164.472C370.578 164.131 370.104 163.96 369.474 163.96C368.866 163.96 368.392 164.168 368.05 164.584C367.709 165 367.538 165.608 367.538 166.408V171H366.258V163.096ZM377.675 171.192C376.96 171.192 376.437 170.979 376.107 170.552C375.776 170.125 375.611 169.539 375.611 168.792V164.136H374.203V163.096H375.611V160.952H376.875V163.096H379.163V164.136H376.875V168.68C376.875 169.192 376.971 169.549 377.163 169.752C377.365 169.955 377.621 170.056 377.931 170.056C378.144 170.056 378.336 170.019 378.507 169.944C378.677 169.859 378.837 169.747 378.987 169.608L379.563 170.504C379.072 170.963 378.443 171.192 377.675 171.192ZM384.268 171.192C383.703 171.192 383.186 171.096 382.716 170.904C382.258 170.712 381.863 170.44 381.532 170.088C381.212 169.725 380.962 169.288 380.78 168.776C380.61 168.264 380.524 167.688 380.524 167.048C380.524 166.376 380.615 165.784 380.796 165.272C380.978 164.749 381.228 164.317 381.548 163.976C381.868 163.624 382.247 163.357 382.684 163.176C383.132 162.995 383.623 162.904 384.156 162.904C384.69 162.904 385.18 162.989 385.628 163.16C386.076 163.331 386.46 163.587 386.78 163.928C387.1 164.259 387.351 164.68 387.532 165.192C387.714 165.693 387.804 166.28 387.804 166.952C387.804 167.037 387.799 167.123 387.788 167.208C387.788 167.293 387.783 167.363 387.772 167.416H381.804C381.804 167.789 381.868 168.141 381.996 168.472C382.135 168.792 382.316 169.075 382.54 169.32C382.775 169.555 383.042 169.741 383.34 169.88C383.65 170.019 383.98 170.088 384.332 170.088C384.908 170.088 385.378 169.976 385.74 169.752C386.114 169.528 386.423 169.256 386.668 168.936L387.436 169.72C387.095 170.168 386.668 170.525 386.156 170.792C385.655 171.059 385.026 171.192 384.268 171.192ZM384.156 163.96C383.783 163.96 383.452 164.029 383.164 164.168C382.876 164.307 382.636 164.488 382.444 164.712C382.252 164.936 382.103 165.192 381.996 165.48C381.9 165.768 381.847 166.056 381.836 166.344H386.46C386.45 166.056 386.391 165.768 386.284 165.48C386.188 165.192 386.044 164.936 385.852 164.712C385.66 164.488 385.42 164.307 385.132 164.168C384.855 164.029 384.53 163.96 384.156 163.96ZM389.868 163.096H391.084V164.344H391.18C391.372 163.928 391.644 163.587 391.996 163.32C392.348 163.043 392.796 162.904 393.34 162.904C394.246 162.904 394.961 163.144 395.484 163.624C396.017 164.104 396.284 164.877 396.284 165.944V171H395.004V166.184C395.004 165.373 394.838 164.803 394.508 164.472C394.188 164.131 393.713 163.96 393.084 163.96C392.476 163.96 392.001 164.168 391.66 164.584C391.318 165 391.148 165.608 391.148 166.408V171H389.868V163.096ZM401.284 171.192C400.57 171.192 400.047 170.979 399.716 170.552C399.386 170.125 399.22 169.539 399.22 168.792V164.136H397.812V163.096H399.22V160.952H400.484V163.096H402.772V164.136H400.484V168.68C400.484 169.192 400.58 169.549 400.772 169.752C400.975 169.955 401.231 170.056 401.54 170.056C401.754 170.056 401.946 170.019 402.116 169.944C402.287 169.859 402.447 169.747 402.596 169.608L403.172 170.504C402.682 170.963 402.052 171.192 401.284 171.192Z" fill="#3C4C4F"/>
<path fill-rule="evenodd" clip-rule="evenodd" d="M47.4387 188.848L47.6328 187.867C48.0742 187.954 48.5312 188 49 188H51V189H49C48.4657 189 47.9437 188.948 47.4387 188.848ZM583 189V188H585C585.469 188 585.926 187.954 586.367 187.867L586.561 188.848C586.056 188.948 585.534 189 585 189H583ZM589.445 187.653L588.889 186.822C589.652 186.31 590.31 185.652 590.822 184.889L591.653 185.445C591.068 186.317 590.317 187.068 589.445 187.653ZM593 95H592V93C592 92.5312 591.954 92.0742 591.867 91.6328L592.848 91.4387C592.948 91.9437 593 92.4657 593 93V95ZM591.653 88.5551L590.822 89.1114C590.31 88.3476 589.652 87.6898 588.889 87.1784L589.445 86.3475C590.317 86.9315 591.068 87.6827 591.653 88.5551ZM579 84H575V86H579V84ZM571 84H567V86H571V84ZM563 84H559V86H563V84ZM555 84H551V86H555V84ZM547 84H543V86H547V84ZM539 84H535V86H539V84ZM531 84H527V86H531V84ZM523 84H519V86H523V84ZM515 84H511V86H515V84ZM507 84H503V86H507V84ZM499 84H495V86H499V84ZM491 84H487V86H491V84ZM483 84H479V86H483V84ZM475 84H471V86H475V84ZM467 84H463V86H467V84ZM459 84H455V86H459V84ZM451 84H447V86H451V84ZM443 84H439V86H443V84ZM435 84H431V86H435V84ZM427 84H423V86H427V84ZM419 84H415V86H419V84ZM411 84H407V86H411V84ZM403 84H399V86H403V84ZM395 84H391V86H395V84ZM387 84H383V86H387V84ZM379 84H375V86H379V84ZM371 84H367V86H371V84ZM363 84H359V86H363V84ZM355 84H351V86H355V84ZM347 84H343V86H347V84ZM339 84H335V86H339V84ZM331 84H327V86H331V84ZM323 84H319V86H323V84ZM315 84H311V86H315V84ZM307 84H303V86H307V84ZM299 84H295V86H299V84ZM291 84H287V86H291V84ZM283 84H279V86H283V84ZM275 84H271V86H275V84ZM267 84H263V86H267V84ZM259 84H255V86H259V84ZM251 84H247V86H251V84ZM243 84H239V86H243V84ZM235 84H231V86H235V84ZM227 84H223V86H227V84ZM219 84H215V86H219V84ZM211 84H207V86H211V84ZM203 84H199V86H203V84ZM195 84H191V86H195V84ZM187 84H183V86H187V84ZM179 84H175V86H179V84ZM171 84H167V86H171V84ZM163 84H159V86H163V84ZM155 84H151V86H155V84ZM147 84H143V86H147V84ZM139 84H135V86H139V84ZM131 84H127V86H131V84ZM123 84H119V86H123V84ZM115 84H111V86H115V84ZM107 84H103V86H107V84ZM99 84H95V86H99V84ZM91 84H87V86H91V84ZM83 84H79V86H83V84ZM75 84H71V86H75V84ZM67 84H63V86H67V84ZM59 84H55V86H59V84ZM51 85H49C48.4657 85 47.9437 85.0524 47.4387 85.1523L47.6328 86.1333C48.0742 86.0459 48.5312 86 49 86H51V85ZM44.5551 86.3475L45.1114 87.1784C44.3476 87.6898 43.6898 88.3476 43.1784 89.1114L42.3475 88.5551C42.9315 87.6827 43.6827 86.9315 44.5551 86.3475ZM41 179H42V181C42 181.469 42.0459 181.926 42.1333 182.367L41.1523 182.561C41.0524 182.056 41 181.534 41 181V179ZM42.3475 185.445L43.1784 184.889C43.6898 185.652 44.3476 186.31 45.1114 186.822L44.5551 187.653C43.6827 187.068 42.9315 186.317 42.3475 185.445ZM41 175H42V171H41V175ZM41 167H42V163H41V167ZM41 159H42V155H41V159ZM41 151H42V147H41V151ZM41 143H42V139H41V143ZM41 135H42V131H41V135ZM41 127H42V123H41V127ZM41 119H42V115H41V119ZM41 111H42V107H41V111ZM41 103H42V99H41V103ZM41 95H42V93C42 92.5312 42.0459 92.0742 42.1333 91.6328L41.1523 91.4387C41.0524 91.9437 41 92.4657 41 93V95ZM583 85V86H585C585.469 86 585.926 86.0459 586.367 86.1333L586.561 85.1523M593 99H592V103H593V99ZM593 107H592V111H593V107ZM593 115H592V119H593V115ZM593 123H592V127H593V123ZM593 131H592V135H593V131ZM593 139H592V143H593V139ZM593 147H592V151H593V147ZM593 155H592V159H593V155ZM593 163H592V167H593V163ZM593 171H592V175H593V171ZM593 179H592V181C592 181.469 591.954 181.926 591.867 182.367L592.848 182.561C592.948 182.056 593 181.534 593 181V179ZM579 189V188H575V189H579ZM571 189V188H567V189H571ZM563 189V188H559V189H563ZM555 189V188H551V189H555ZM547 189V188H543V189H547ZM539 189V188H535V189H539ZM531 189V188H527V189H531ZM523 189V188H519V189H523ZM515 189V188H511V189H515ZM507 189V188H503V189H507ZM499 189V188H495V189H499ZM491 189V188H487V189H491ZM483 189V188H479V189H483ZM475 189V188H471V189H475ZM467 189V188H463V189H467ZM459 189V188H455V189H459ZM451 189V188H447V189H451ZM443 189V188H439V189H443ZM435 189V188H431V189H435ZM427 189V188H423V189H427ZM419 189V188H415V189H419ZM411 189V188H407V189H411ZM403 189V188H399V189H403ZM395 189V188H391V189H395ZM387 189V188H383V189H387ZM379 189V188H375V189H379ZM371 189V188H367V189H371ZM363 189V188H359V189H363ZM355 189V188H351V189H355ZM347 189V188H343V189H347ZM339 189V188H335V189H339ZM331 189V188H327V189H331ZM323 189V188H319V189H323ZM315 189V188H311V189H315ZM307 189V188H303V189H307ZM299 189V188H295V189H299ZM291 189V188H287V189H291ZM283 189V188H279V189H283ZM275 189V188H271V189H275ZM267 189V188H263V189H267ZM259 189V188H255V189H259ZM251 189V188H247V189H251ZM243 189V188H239V189H243ZM235 189V188H231V189H235ZM227 189V188H223V189H227ZM219 189V188H215V189H219ZM211 189V188H207V189H211ZM203 189V188H199V189H203ZM195 189V188H191V189H195ZM187 189V188H183V189H187ZM179 189V188H175V189H179ZM171 189V188H167V189H171ZM163 189V188H159V189H163ZM155 189V188H151V189H155ZM147 189V188H143V189H147ZM139 189V188H135V189H139ZM131 189V188H127V189H131ZM123 189V188H119V189H123ZM115 189V188H111V189H115ZM107 189V188H103V189H107ZM99 189V188H95V189H99ZM91 189V188H87V189H91ZM83 189V188H79V189H83ZM75 189V188H71V189H75ZM67 189V188H63V189H67ZM59 189V188H55V189H59Z" fill="#242E30"/>
</g>
<rect width="600" height="96" transform="translate(17 193)" fill="white"/>
<g clip-path="url(#clip2_507_16843)">
<path d="M496 241C496 227.745 506.745 217 520 217H569C582.255 217 593 227.745 593 241V241C593 254.255 582.255 265 569 265H520C506.745 265 496 254.255 496 241V241Z" fill="#F36805"/>
<path d="M496 241C496 227.745 506.745 217 520 217H569C582.255 217 593 227.745 593 241V241C593 254.255 582.255 265 569 265H520C506.745 265 496 254.255 496 241V241Z" fill="white" fill-opacity="0.01"/>
<path d="M521.771 235H524.451V245.82H529.631V248H521.771V235ZM534.13 248.24C533.69 248.24 533.27 248.167 532.87 248.02C532.483 247.887 532.143 247.693 531.85 247.44C531.556 247.173 531.323 246.853 531.15 246.48C530.99 246.107 530.91 245.687 530.91 245.22C530.91 244.34 531.223 243.64 531.85 243.12C532.476 242.6 533.43 242.307 534.71 242.24L537.03 242.1V241.7C537.03 241.06 536.836 240.62 536.45 240.38C536.063 240.14 535.583 240.02 535.01 240.02C534.556 240.02 534.13 240.107 533.73 240.28C533.33 240.44 533.03 240.64 532.83 240.88L531.41 239.44C531.756 238.987 532.256 238.613 532.91 238.32C533.576 238.027 534.39 237.88 535.35 237.88C536.763 237.88 537.816 238.207 538.51 238.86C539.203 239.513 539.55 240.4 539.55 241.52V248H537.17V246.42H537.05C536.796 246.98 536.43 247.427 535.95 247.76C535.47 248.08 534.863 248.24 534.13 248.24ZM534.87 246.42C535.51 246.42 536.03 246.24 536.43 245.88C536.83 245.507 537.03 244.987 537.03 244.32V243.66L535.01 243.82C533.97 243.887 533.45 244.327 533.45 245.14C533.45 245.553 533.583 245.873 533.85 246.1C534.116 246.313 534.456 246.42 534.87 246.42ZM547.761 248.24C546.988 248.24 546.315 248.053 545.741 247.68C545.181 247.307 544.781 246.793 544.541 246.14H544.421V248H542.021V233.5H544.541V239.82H544.661C544.888 239.247 545.268 238.78 545.801 238.42C546.335 238.06 546.988 237.88 547.761 237.88C548.375 237.88 548.941 238.007 549.461 238.26C549.995 238.513 550.448 238.873 550.821 239.34C551.208 239.793 551.508 240.34 551.721 240.98C551.935 241.62 552.041 242.327 552.041 243.1C552.041 243.86 551.935 244.56 551.721 245.2C551.508 245.827 551.208 246.367 550.821 246.82C550.448 247.26 549.995 247.607 549.461 247.86C548.941 248.113 548.375 248.24 547.761 248.24ZM546.981 246.04C547.728 246.04 548.328 245.773 548.781 245.24C549.235 244.707 549.461 243.98 549.461 243.06C549.461 242.14 549.235 241.413 548.781 240.88C548.328 240.347 547.728 240.08 546.981 240.08C546.248 240.08 545.655 240.347 545.201 240.88C544.761 241.413 544.541 242.14 544.541 243.06C544.541 243.98 544.761 244.707 545.201 245.24C545.655 245.773 546.248 246.04 546.981 246.04ZM558.293 248.24C557.467 248.24 556.747 248.107 556.133 247.84C555.52 247.573 555 247.207 554.573 246.74C554.16 246.26 553.847 245.707 553.633 245.08C553.433 244.453 553.333 243.78 553.333 243.06C553.333 242.327 553.433 241.647 553.633 241.02C553.833 240.38 554.133 239.833 554.533 239.38C554.933 238.913 555.433 238.547 556.033 238.28C556.633 238.013 557.333 237.88 558.133 237.88C558.933 237.88 559.633 238.007 560.233 238.26C560.833 238.513 561.327 238.867 561.713 239.32C562.1 239.773 562.387 240.313 562.573 240.94C562.773 241.553 562.873 242.227 562.873 242.96C562.873 243.093 562.86 243.247 562.833 243.42C562.82 243.593 562.8 243.733 562.773 243.84H555.893C555.933 244.2 556.027 244.527 556.173 244.82C556.333 245.1 556.527 245.34 556.753 245.54C556.993 245.74 557.253 245.893 557.533 246C557.827 246.093 558.127 246.14 558.433 246.14C559.007 246.14 559.487 246.04 559.873 245.84C560.26 245.64 560.573 245.387 560.813 245.08L562.233 246.56C561.86 247.067 561.34 247.473 560.673 247.78C560.007 248.087 559.213 248.24 558.293 248.24ZM558.133 239.8C557.493 239.8 556.973 240.007 556.573 240.42C556.173 240.833 555.94 241.38 555.873 242.06H560.353C560.287 241.38 560.053 240.833 559.653 240.42C559.267 240.007 558.76 239.8 558.133 239.8ZM564.834 233.5H567.354V248H564.834V233.5Z" fill="white"/>
</g>
<g clip-path="url(#clip3_507_16843)">
<path d="M383 241C383 227.745 393.745 217 407 217H456C469.255 217 480 227.745 480 241V241C480 254.255 469.255 265 456 265H407C393.745 265 383 254.255 383 241V241Z" fill="white" fill-opacity="0.01"/>
<path d="M408.771 235H411.451V245.82H416.631V248H408.771V235ZM421.13 248.24C420.69 248.24 420.27 248.167 419.87 248.02C419.483 247.887 419.143 247.693 418.85 247.44C418.556 247.173 418.323 246.853 418.15 246.48C417.99 246.107 417.91 245.687 417.91 245.22C417.91 244.34 418.223 243.64 418.85 243.12C419.476 242.6 420.43 242.307 421.71 242.24L424.03 242.1V241.7C424.03 241.06 423.836 240.62 423.45 240.38C423.063 240.14 422.583 240.02 422.01 240.02C421.556 240.02 421.13 240.107 420.73 240.28C420.33 240.44 420.03 240.64 419.83 240.88L418.41 239.44C418.756 238.987 419.256 238.613 419.91 238.32C420.576 238.027 421.39 237.88 422.35 237.88C423.763 237.88 424.816 238.207 425.51 238.86C426.203 239.513 426.55 240.4 426.55 241.52V248H424.17V246.42H424.05C423.796 246.98 423.43 247.427 422.95 247.76C422.47 248.08 421.863 248.24 421.13 248.24ZM421.87 246.42C422.51 246.42 423.03 246.24 423.43 245.88C423.83 245.507 424.03 244.987 424.03 244.32V243.66L422.01 243.82C420.97 243.887 420.45 244.327 420.45 245.14C420.45 245.553 420.583 245.873 420.85 246.1C421.116 246.313 421.456 246.42 421.87 246.42ZM434.761 248.24C433.988 248.24 433.315 248.053 432.741 247.68C432.181 247.307 431.781 246.793 431.541 246.14H431.421V248H429.021V233.5H431.541V239.82H431.661C431.888 239.247 432.268 238.78 432.801 238.42C433.335 238.06 433.988 237.88 434.761 237.88C435.375 237.88 435.941 238.007 436.461 238.26C436.995 238.513 437.448 238.873 437.821 239.34C438.208 239.793 438.508 240.34 438.721 240.98C438.935 241.62 439.041 242.327 439.041 243.1C439.041 243.86 438.935 244.56 438.721 245.2C438.508 245.827 438.208 246.367 437.821 246.82C437.448 247.26 436.995 247.607 436.461 247.86C435.941 248.113 435.375 248.24 434.761 248.24ZM433.981 246.04C434.728 246.04 435.328 245.773 435.781 245.24C436.235 244.707 436.461 243.98 436.461 243.06C436.461 242.14 436.235 241.413 435.781 240.88C435.328 240.347 434.728 240.08 433.981 240.08C433.248 240.08 432.655 240.347 432.201 240.88C431.761 241.413 431.541 242.14 431.541 243.06C431.541 243.98 431.761 244.707 432.201 245.24C432.655 245.773 433.248 246.04 433.981 246.04ZM445.293 248.24C444.467 248.24 443.747 248.107 443.133 247.84C442.52 247.573 442 247.207 441.573 246.74C441.16 246.26 440.847 245.707 440.633 245.08C440.433 244.453 440.333 243.78 440.333 243.06C440.333 242.327 440.433 241.647 440.633 241.02C440.833 240.38 441.133 239.833 441.533 239.38C441.933 238.913 442.433 238.547 443.033 238.28C443.633 238.013 444.333 237.88 445.133 237.88C445.933 237.88 446.633 238.007 447.233 238.26C447.833 238.513 448.327 238.867 448.713 239.32C449.1 239.773 449.387 240.313 449.573 240.94C449.773 241.553 449.873 242.227 449.873 242.96C449.873 243.093 449.86 243.247 449.833 243.42C449.82 243.593 449.8 243.733 449.773 243.84H442.893C442.933 244.2 443.027 244.527 443.173 244.82C443.333 245.1 443.527 245.34 443.753 245.54C443.993 245.74 444.253 245.893 444.533 246C444.827 246.093 445.127 246.14 445.433 246.14C446.007 246.14 446.487 246.04 446.873 245.84C447.26 245.64 447.573 245.387 447.813 245.08L449.233 246.56C448.86 247.067 448.34 247.473 447.673 247.78C447.007 248.087 446.213 248.24 445.293 248.24ZM445.133 239.8C444.493 239.8 443.973 240.007 443.573 240.42C443.173 240.833 442.94 241.38 442.873 242.06H447.353C447.287 241.38 447.053 240.833 446.653 240.42C446.267 240.007 445.76 239.8 445.133 239.8ZM451.834 233.5H454.354V248H451.834V233.5Z" fill="#242E30"/>
</g>
</g>
</g>
<defs>
<filter id="filter0_ddd_507_16843" x="0" y="0" width="634" height="314" filterUnits="userSpaceOnUse" color-interpolation-filters="sRGB">
<feFlood flood-opacity="0" result="BackgroundImageFix"/>
<feColorMatrix in="SourceAlpha" type="matrix" values="0 0 0 0 0 0 0 0 0 0 0 0 0 0 0 0 0 0 127 0" result="hardAlpha"/>
<feMorphology radius="2" operator="erode" in="SourceAlpha" result="effect1_dropShadow_507_16843"/>
<feOffset dy="4"/>
<feGaussianBlur stdDeviation="4"/>
<feColorMatrix type="matrix" values="0 0 0 0 0 0 0 0 0 0 0 0 0 0 0 0 0 0 0.06 0"/>
<feBlend mode="normal" in2="BackgroundImageFix" result="effect1_dropShadow_507_16843"/>
<feColorMatrix in="SourceAlpha" type="matrix" values="0 0 0 0 0 0 0 0 0 0 0 0 0 0 0 0 0 0 127 0" result="hardAlpha"/>
<feMorphology radius="3" operator="erode" in="SourceAlpha" result="effect2_dropShadow_507_16843"/>
<feOffset dy="8"/>
<feGaussianBlur stdDeviation="10"/>
<feColorMatrix type="matrix" values="0 0 0 0 0 0 0 0 0 0 0 0 0 0 0 0 0 0 0.1 0"/>
<feBlend mode="normal" in2="effect1_dropShadow_507_16843" result="effect2_dropShadow_507_16843"/>
<feColorMatrix in="SourceAlpha" type="matrix" values="0 0 0 0 0 0 0 0 0 0 0 0 0 0 0 0 0 0 127 0" result="hardAlpha"/>
<feOffset dy="8"/>
<feGaussianBlur stdDeviation="4"/>
<feColorMatrix type="matrix" values="0 0 0 0 0 0 0 0 0 0 0 0 0 0 0 0 0 0 0.04 0"/>
<feBlend mode="normal" in2="effect2_dropShadow_507_16843" result="effect3_dropShadow_507_16843"/>
<feBlend mode="normal" in="SourceGraphic" in2="effect3_dropShadow_507_16843" result="shape"/>
</filter>
<clipPath id="clip0_507_16843">
<path d="M17 25C17 16.1634 24.1634 9 33 9H601C609.837 9 617 16.1634 617 25V273C617 281.837 609.837 289 601 289H33C24.1634 289 17 281.837 17 273V25Z" fill="white"/>
</clipPath>
<clipPath id="clip1_507_16843">
<rect width="552" height="104" fill="white" transform="translate(41 85)"/>
</clipPath>
<clipPath id="clip2_507_16843">
<path d="M496 241C496 227.745 506.745 217 520 217H569C582.255 217 593 227.745 593 241V241C593 254.255 582.255 265 569 265H520C506.745 265 496 254.255 496 241V241Z" fill="white"/>
</clipPath>
<clipPath id="clip3_507_16843">
<path d="M383 241C383 227.745 393.745 217 407 217H456C469.255 217 480 227.745 480 241V241C480 254.255 469.255 265 456 265H407C393.745 265 383 254.255 383 241V241Z" fill="white"/>
</clipPath>
</defs>
</svg>
