<svg width="234" height="64" viewBox="0 0 234 64" fill="none" xmlns="http://www.w3.org/2000/svg">
<g filter="url(#filter0_dd_22070_2473)">
<g clip-path="url(#clip0_22070_2473)">
<path d="M4 32C4 16.536 16.536 4 32 4V4C47.464 4 60 16.536 60 32V32C60 47.464 47.464 60 32 60V60C16.536 60 4 47.464 4 32V32Z" fill="#F36805"/>
<path d="M4 32C4 16.536 16.536 4 32 4V4C47.464 4 60 16.536 60 32V32C60 47.464 47.464 60 32 60V60C16.536 60 4 47.464 4 32V32Z" fill="white" fill-opacity="0.01"/>
<g clip-path="url(#clip1_22070_2473)">
<path d="M45.8555 18L46 18.1445V45.8555L45.8555 46H18.1445L18 45.8555V18.1445L18.1445 18H45.8555ZM18.29 18.29V45.709H45.709V18.29H18.29ZM40.2803 19.75C42.4726 19.7501 44.2499 21.5274 44.25 23.7197V40.2803C44.2499 42.4726 42.4726 44.2499 40.2803 44.25H23.7197C21.5274 44.2499 19.7501 42.4726 19.75 40.2803V23.7197C19.7501 21.5274 21.5274 19.7501 23.7197 19.75H40.2803Z" fill="white"/>
</g>
</g>
</g>
<g filter="url(#filter1_dd_22070_2473)">
<g clip-path="url(#clip2_22070_2473)">
<path d="M100 32C100 18.7452 110.745 8 124 8H206C219.255 8 230 18.7452 230 32V32C230 45.2548 219.255 56 206 56H124C110.745 56 100 45.2548 100 32V32Z" fill="#F36805"/>
<path d="M100 32C100 18.7452 110.745 8 124 8H206C219.255 8 230 18.7452 230 32V32C230 45.2548 219.255 56 206 56H124C110.745 56 100 45.2548 100 32V32Z" fill="white" fill-opacity="0.01"/>
<g clip-path="url(#clip3_22070_2473)">
<path d="M147.876 20L148 20.124V43.876L147.876 44H124.124L124 43.876V20.124L124.124 20H147.876ZM124.248 20.248V43.751H147.751V20.248H124.248ZM143.098 21.5C144.977 21.5002 146.5 23.0234 146.5 24.9023V39.0977C146.5 40.9766 144.977 42.4998 143.098 42.5H128.902C127.023 42.4998 125.5 40.9766 125.5 39.0977V24.9023C125.5 23.0234 127.023 21.5002 128.902 21.5H143.098Z" fill="white"/>
</g>
<path d="M157.542 39V26H160.922V36.3H166.202V39H157.542ZM170.687 39.24C170.1 39.24 169.553 39.12 169.047 38.88C168.54 38.64 168.133 38.3 167.827 37.86C167.52 37.4067 167.367 36.86 167.367 36.22C167.367 35.62 167.507 35.1067 167.787 34.68C168.08 34.24 168.52 33.8933 169.107 33.64C169.707 33.3867 170.467 33.2333 171.387 33.18L173.487 33.06V32.9C173.487 32.5267 173.393 32.2467 173.207 32.06C173.02 31.86 172.78 31.7267 172.487 31.66C172.193 31.58 171.88 31.54 171.547 31.54C171.173 31.54 170.793 31.6067 170.407 31.74C170.02 31.8733 169.733 32.06 169.547 32.3L167.807 30.5C168.167 30.0333 168.693 29.6467 169.387 29.34C170.08 29.0333 170.987 28.88 172.107 28.88C173.053 28.88 173.867 29.0267 174.547 29.32C175.227 29.6133 175.747 30.0467 176.107 30.62C176.48 31.18 176.667 31.8667 176.667 32.68V39H173.687V37.48H173.567C173.313 38 172.947 38.4267 172.467 38.76C171.987 39.08 171.393 39.24 170.687 39.24ZM171.767 37.08C172.273 37.08 172.687 36.94 173.007 36.66C173.327 36.38 173.487 35.9667 173.487 35.42V34.9L171.827 35.02C171.4 35.0467 171.08 35.1533 170.867 35.34C170.667 35.5267 170.567 35.7733 170.567 36.08C170.567 36.4133 170.68 36.6667 170.907 36.84C171.147 37 171.433 37.08 171.767 37.08ZM184.852 39.24C184.118 39.24 183.485 39.0667 182.952 38.72C182.432 38.36 182.045 37.8667 181.792 37.24H181.672V39H178.652V24.5H181.832V30.74H181.952C182.165 30.1933 182.518 29.7467 183.012 29.4C183.505 29.0533 184.118 28.88 184.852 28.88C185.638 28.88 186.345 29.1067 186.972 29.56C187.612 30 188.118 30.6133 188.492 31.4C188.865 32.1867 189.052 33.1067 189.052 34.16C189.052 35.1733 188.865 36.06 188.492 36.82C188.118 37.58 187.612 38.1733 186.972 38.6C186.345 39.0267 185.638 39.24 184.852 39.24ZM183.812 36.5C184.238 36.5 184.598 36.3933 184.892 36.18C185.185 35.9533 185.405 35.66 185.552 35.3C185.712 34.9267 185.792 34.5133 185.792 34.06C185.792 33.6067 185.712 33.2 185.552 32.84C185.405 32.4667 185.185 32.1733 184.892 31.96C184.598 31.7333 184.238 31.62 183.812 31.62C183.385 31.62 183.018 31.7333 182.712 31.96C182.418 32.1733 182.198 32.4667 182.052 32.84C181.905 33.2 181.832 33.6067 181.832 34.06C181.832 34.5133 181.905 34.9267 182.052 35.3C182.198 35.66 182.418 35.9533 182.712 36.18C183.018 36.3933 183.385 36.5 183.812 36.5ZM195.184 39.24C193.984 39.24 193.004 38.9933 192.244 38.5C191.484 37.9933 190.924 37.3467 190.564 36.56C190.218 35.7733 190.044 34.94 190.044 34.06C190.044 33.3933 190.131 32.7533 190.304 32.14C190.491 31.5267 190.778 30.9733 191.164 30.48C191.551 29.9867 192.058 29.6 192.684 29.32C193.324 29.0267 194.098 28.88 195.004 28.88C195.911 28.88 196.678 29.02 197.304 29.3C197.931 29.58 198.431 29.9667 198.804 30.46C199.191 30.94 199.464 31.4867 199.624 32.1C199.798 32.7 199.884 33.3267 199.884 33.98C199.884 34.1267 199.871 34.32 199.844 34.56C199.818 34.7867 199.784 34.96 199.744 35.08H193.264C193.344 35.4667 193.498 35.7733 193.724 36C193.964 36.2267 194.231 36.3933 194.524 36.5C194.831 36.5933 195.111 36.64 195.364 36.64C195.831 36.64 196.231 36.5667 196.564 36.42C196.911 36.2733 197.178 36.08 197.364 35.84L199.104 37.66C198.784 38.1133 198.278 38.4933 197.584 38.8C196.891 39.0933 196.091 39.24 195.184 39.24ZM195.004 31.24C194.724 31.24 194.458 31.3 194.204 31.42C193.964 31.5267 193.751 31.7067 193.564 31.96C193.391 32.2133 193.271 32.5533 193.204 32.98H196.764C196.711 32.5533 196.591 32.2133 196.404 31.96C196.231 31.7067 196.024 31.5267 195.784 31.42C195.544 31.3 195.284 31.24 195.004 31.24ZM201.425 39V24.5H204.605V39H201.425Z" fill="white"/>
</g>
</g>
<defs>
<filter id="filter0_dd_22070_2473" x="0" y="0" width="64" height="64" filterUnits="userSpaceOnUse" color-interpolation-filters="sRGB">
<feFlood flood-opacity="0" result="BackgroundImageFix"/>
<feColorMatrix in="SourceAlpha" type="matrix" values="0 0 0 0 0 0 0 0 0 0 0 0 0 0 0 0 0 0 127 0" result="hardAlpha"/>
<feMorphology radius="4" operator="dilate" in="SourceAlpha" result="effect1_dropShadow_22070_2473"/>
<feOffset/>
<feComposite in2="hardAlpha" operator="out"/>
<feColorMatrix type="matrix" values="0 0 0 0 0.168627 0 0 0 0 0.243137 0 0 0 0 0.592157 0 0 0 1 0"/>
<feBlend mode="normal" in2="BackgroundImageFix" result="effect1_dropShadow_22070_2473"/>
<feColorMatrix in="SourceAlpha" type="matrix" values="0 0 0 0 0 0 0 0 0 0 0 0 0 0 0 0 0 0 127 0" result="hardAlpha"/>
<feMorphology radius="2" operator="dilate" in="SourceAlpha" result="effect2_dropShadow_22070_2473"/>
<feOffset/>
<feComposite in2="hardAlpha" operator="out"/>
<feColorMatrix type="matrix" values="0 0 0 0 1 0 0 0 0 1 0 0 0 0 1 0 0 0 1 0"/>
<feBlend mode="normal" in2="effect1_dropShadow_22070_2473" result="effect2_dropShadow_22070_2473"/>
<feBlend mode="normal" in="SourceGraphic" in2="effect2_dropShadow_22070_2473" result="shape"/>
</filter>
<filter id="filter1_dd_22070_2473" x="96" y="4" width="138" height="56" filterUnits="userSpaceOnUse" color-interpolation-filters="sRGB">
<feFlood flood-opacity="0" result="BackgroundImageFix"/>
<feColorMatrix in="SourceAlpha" type="matrix" values="0 0 0 0 0 0 0 0 0 0 0 0 0 0 0 0 0 0 127 0" result="hardAlpha"/>
<feMorphology radius="4" operator="dilate" in="SourceAlpha" result="effect1_dropShadow_22070_2473"/>
<feOffset/>
<feComposite in2="hardAlpha" operator="out"/>
<feColorMatrix type="matrix" values="0 0 0 0 0.168627 0 0 0 0 0.243137 0 0 0 0 0.592157 0 0 0 1 0"/>
<feBlend mode="normal" in2="BackgroundImageFix" result="effect1_dropShadow_22070_2473"/>
<feColorMatrix in="SourceAlpha" type="matrix" values="0 0 0 0 0 0 0 0 0 0 0 0 0 0 0 0 0 0 127 0" result="hardAlpha"/>
<feMorphology radius="2" operator="dilate" in="SourceAlpha" result="effect2_dropShadow_22070_2473"/>
<feOffset/>
<feComposite in2="hardAlpha" operator="out"/>
<feColorMatrix type="matrix" values="0 0 0 0 1 0 0 0 0 1 0 0 0 0 1 0 0 0 1 0"/>
<feBlend mode="normal" in2="effect1_dropShadow_22070_2473" result="effect2_dropShadow_22070_2473"/>
<feBlend mode="normal" in="SourceGraphic" in2="effect2_dropShadow_22070_2473" result="shape"/>
</filter>
<clipPath id="clip0_22070_2473">
<path d="M4 32C4 16.536 16.536 4 32 4V4C47.464 4 60 16.536 60 32V32C60 47.464 47.464 60 32 60V60C16.536 60 4 47.464 4 32V32Z" fill="white"/>
</clipPath>
<clipPath id="clip1_22070_2473">
<rect width="28" height="28" fill="white" transform="translate(18 18)"/>
</clipPath>
<clipPath id="clip2_22070_2473">
<path d="M100 32C100 18.7452 110.745 8 124 8H206C219.255 8 230 18.7452 230 32V32C230 45.2548 219.255 56 206 56H124C110.745 56 100 45.2548 100 32V32Z" fill="white"/>
</clipPath>
<clipPath id="clip3_22070_2473">
<rect width="24" height="24" fill="white" transform="translate(124 20)"/>
</clipPath>
</defs>
</svg>
