<svg width="328" height="160" viewBox="0 0 328 160" fill="none" xmlns="http://www.w3.org/2000/svg">
<rect width="328" height="160" rx="12" fill="#EFEDEA"/>
<path d="M136 80C136 64.536 148.536 52 164 52C179.464 52 192 64.536 192 80C192 95.464 179.464 108 164 108C148.536 108 136 95.464 136 80Z" fill="#262626"/>
<rect x="136" y="52" width="56" height="56" rx="28" fill="white" fill-opacity="0.01"/>
<path d="M154.41 92.25L155.758 88.435C156.178 87.349 156.922 86.4187 157.89 85.7706C158.857 85.1224 160.001 84.7879 161.165 84.8125H166.835C167.999 84.7879 169.143 85.1224 170.11 85.7706C171.078 86.4187 171.822 87.349 172.243 88.435L173.59 92.25H176.373L174.623 87.56C174.024 85.9619 172.946 84.588 171.536 83.6263C170.126 82.6645 168.454 82.162 166.748 82.1875H161.165C159.459 82.162 157.786 82.6645 156.376 83.6263C154.967 84.588 153.889 85.9619 153.29 87.56L151.628 92.25H154.41Z" fill="white"/>
<path d="M164 80C165.211 80 166.396 79.6408 167.403 78.9678C168.41 78.2947 169.195 77.3381 169.659 76.2189C170.122 75.0997 170.244 73.8682 170.007 72.6801C169.771 71.4919 169.188 70.4006 168.331 69.544C167.474 68.6874 166.383 68.104 165.195 67.8677C164.007 67.6314 162.775 67.7527 161.656 68.2162C160.537 68.6798 159.58 69.4649 158.907 70.4721C158.234 71.4794 157.875 72.6636 157.875 73.875C157.875 75.4995 158.52 77.0574 159.669 78.206C160.818 79.3547 162.376 80 164 80ZM164 70.375C164.692 70.375 165.369 70.5803 165.944 70.9649C166.52 71.3494 166.969 71.8961 167.234 72.5356C167.498 73.1752 167.568 73.8789 167.433 74.5578C167.298 75.2368 166.964 75.8604 166.475 76.3499C165.985 76.8394 165.362 77.1727 164.683 77.3078C164.004 77.4428 163.3 77.3735 162.661 77.1086C162.021 76.8437 161.474 76.3951 161.09 75.8195C160.705 75.2439 160.5 74.5672 160.5 73.875C160.5 72.9467 160.869 72.0565 161.525 71.4001C162.181 70.7438 163.072 70.375 164 70.375Z" fill="white"/>
</svg>
