<svg width="328" height="160" viewBox="0 0 328 160" fill="none" xmlns="http://www.w3.org/2000/svg">
<rect width="328" height="160" rx="12" fill="#EFEDEA"/>
<g clip-path="url(#clip0_3611_32)">
<path d="M19.022 61.9H20.898V69.474H24.524V71H19.022V61.9ZM27.6733 71.168C27.3653 71.168 27.0713 71.1167 26.7913 71.014C26.5207 70.9207 26.2827 70.7853 26.0773 70.608C25.872 70.4213 25.7087 70.1973 25.5873 69.936C25.4753 69.6747 25.4193 69.3807 25.4193 69.054C25.4193 68.438 25.6387 67.948 26.0773 67.584C26.516 67.22 27.1833 67.0147 28.0793 66.968L29.7033 66.87V66.59C29.7033 66.142 29.568 65.834 29.2973 65.666C29.0267 65.498 28.6907 65.414 28.2893 65.414C27.972 65.414 27.6733 65.4747 27.3933 65.596C27.1133 65.708 26.9033 65.848 26.7633 66.016L25.7693 65.008C26.012 64.6907 26.362 64.4293 26.8193 64.224C27.286 64.0187 27.8553 63.916 28.5273 63.916C29.5167 63.916 30.254 64.1447 30.7393 64.602C31.2247 65.0593 31.4673 65.68 31.4673 66.464V71H29.8013V69.894H29.7173C29.54 70.286 29.2833 70.5987 28.9473 70.832C28.6113 71.056 28.1867 71.168 27.6733 71.168ZM28.1913 69.894C28.6393 69.894 29.0033 69.768 29.2833 69.516C29.5633 69.2547 29.7033 68.8907 29.7033 68.424V67.962L28.2893 68.074C27.5613 68.1207 27.1973 68.4287 27.1973 68.998C27.1973 69.2873 27.2907 69.5113 27.4773 69.67C27.664 69.8193 27.902 69.894 28.1913 69.894ZM37.2154 71.168C36.6741 71.168 36.2028 71.0373 35.8014 70.776C35.4094 70.5147 35.1294 70.1553 34.9614 69.698H34.8774V71H33.1974V60.85H34.9614V65.274H35.0454C35.2041 64.8727 35.4701 64.546 35.8434 64.294C36.2168 64.042 36.6741 63.916 37.2154 63.916C37.6448 63.916 38.0414 64.0047 38.4054 64.182C38.7788 64.3593 39.0961 64.6113 39.3574 64.938C39.6281 65.2553 39.8381 65.638 39.9874 66.086C40.1368 66.534 40.2114 67.0287 40.2114 67.57C40.2114 68.102 40.1368 68.592 39.9874 69.04C39.8381 69.4787 39.6281 69.8567 39.3574 70.174C39.0961 70.482 38.7788 70.7247 38.4054 70.902C38.0414 71.0793 37.6448 71.168 37.2154 71.168ZM36.6694 69.628C37.1921 69.628 37.6121 69.4413 37.9294 69.068C38.2468 68.6947 38.4054 68.186 38.4054 67.542C38.4054 66.898 38.2468 66.3893 37.9294 66.016C37.6121 65.6427 37.1921 65.456 36.6694 65.456C36.1561 65.456 35.7408 65.6427 35.4234 66.016C35.1154 66.3893 34.9614 66.898 34.9614 67.542C34.9614 68.186 35.1154 68.6947 35.4234 69.068C35.7408 69.4413 36.1561 69.628 36.6694 69.628ZM44.588 71.168C44.0093 71.168 43.5053 71.0747 43.076 70.888C42.6466 70.7013 42.2826 70.4447 41.984 70.118C41.6946 69.782 41.4753 69.3947 41.326 68.956C41.186 68.5173 41.116 68.046 41.116 67.542C41.116 67.0287 41.186 66.5527 41.326 66.114C41.466 65.666 41.676 65.2833 41.956 64.966C42.236 64.6393 42.586 64.3827 43.006 64.196C43.426 64.0093 43.916 63.916 44.476 63.916C45.036 63.916 45.526 64.0047 45.946 64.182C46.366 64.3593 46.7113 64.6067 46.982 64.924C47.2526 65.2413 47.4533 65.6193 47.584 66.058C47.724 66.4873 47.794 66.9587 47.794 67.472C47.794 67.5653 47.7846 67.6727 47.766 67.794C47.7566 67.9153 47.7426 68.0133 47.724 68.088H42.908C42.936 68.34 43.0013 68.5687 43.104 68.774C43.216 68.97 43.3513 69.138 43.51 69.278C43.678 69.418 43.86 69.5253 44.056 69.6C44.2613 69.6653 44.4713 69.698 44.686 69.698C45.0873 69.698 45.4233 69.628 45.694 69.488C45.9646 69.348 46.184 69.1707 46.352 68.956L47.346 69.992C47.0846 70.3467 46.7206 70.6313 46.254 70.846C45.7873 71.0607 45.232 71.168 44.588 71.168ZM44.476 65.26C44.028 65.26 43.664 65.4047 43.384 65.694C43.104 65.9833 42.9406 66.366 42.894 66.842H46.03C45.9833 66.366 45.82 65.9833 45.54 65.694C45.2693 65.4047 44.9146 65.26 44.476 65.26ZM49.1662 60.85H50.9302V71H49.1662V60.85Z" fill="#242E30"/>
</g>
<rect x="18" y="80" width="288" height="24" fill="white" fill-opacity="0.01"/>
<path d="M18 92C18 90.8954 18.8954 90 20 90H308C309.105 90 310 90.8954 310 92C310 93.1046 309.105 94 308 94H20C18.8954 94 18 93.1046 18 92Z" fill="#F5F3F1"/>
<g opacity="0.3">
<circle cx="20" cy="92" r="2" fill="#F36805"/>
<circle cx="68" cy="92" r="2" fill="#F36805"/>
<ellipse cx="116" cy="92" rx="2" ry="2" fill="#F36805"/>
<ellipse cx="164" cy="92" rx="2" ry="2" fill="#F36805"/>
<ellipse cx="212" cy="92" rx="2" ry="2" fill="#F36805"/>
<ellipse cx="260" cy="92" rx="2.00001" ry="2" fill="#F36805"/>
<circle cx="308" cy="92" r="2" fill="#F36805"/>
</g>
<g filter="url(#filter0_ddd_3611_32)">
<circle cx="26" cy="92" r="8" fill="white"/>
</g>
<defs>
<filter id="filter0_ddd_3611_32" x="8" y="76" width="36" height="36" filterUnits="userSpaceOnUse" color-interpolation-filters="sRGB">
<feFlood flood-opacity="0" result="BackgroundImageFix"/>
<feColorMatrix in="SourceAlpha" type="matrix" values="0 0 0 0 0 0 0 0 0 0 0 0 0 0 0 0 0 0 127 0" result="hardAlpha"/>
<feOffset dy="3"/>
<feGaussianBlur stdDeviation="3"/>
<feColorMatrix type="matrix" values="0 0 0 0 0 0 0 0 0 0 0 0 0 0 0 0 0 0 0.06 0"/>
<feBlend mode="normal" in2="BackgroundImageFix" result="effect1_dropShadow_3611_32"/>
<feColorMatrix in="SourceAlpha" type="matrix" values="0 0 0 0 0 0 0 0 0 0 0 0 0 0 0 0 0 0 127 0" result="hardAlpha"/>
<feMorphology radius="2" operator="erode" in="SourceAlpha" result="effect2_dropShadow_3611_32"/>
<feOffset dy="2"/>
<feGaussianBlur stdDeviation="6"/>
<feColorMatrix type="matrix" values="0 0 0 0 0 0 0 0 0 0 0 0 0 0 0 0 0 0 0.08 0"/>
<feBlend mode="normal" in2="effect1_dropShadow_3611_32" result="effect2_dropShadow_3611_32"/>
<feColorMatrix in="SourceAlpha" type="matrix" values="0 0 0 0 0 0 0 0 0 0 0 0 0 0 0 0 0 0 127 0" result="hardAlpha"/>
<feOffset dy="4"/>
<feGaussianBlur stdDeviation="3"/>
<feColorMatrix type="matrix" values="0 0 0 0 0 0 0 0 0 0 0 0 0 0 0 0 0 0 0.02 0"/>
<feBlend mode="normal" in2="effect2_dropShadow_3611_32" result="effect3_dropShadow_3611_32"/>
<feBlend mode="normal" in="SourceGraphic" in2="effect3_dropShadow_3611_32" result="shape"/>
</filter>
<clipPath id="clip0_3611_32">
<rect width="34" height="20" fill="white" transform="translate(18 56)"/>
</clipPath>
</defs>
</svg>
