<svg width="330" height="160" viewBox="0 0 330 160" fill="none" xmlns="http://www.w3.org/2000/svg">
<rect width="330" height="160" rx="12" fill="#EFEDEA"/>
<rect width="71" height="38" transform="translate(129 61)" fill="white" fill-opacity="0.01"/>
<path d="M129 73C129 70.7909 130.791 69 133 69H196C198.209 69 200 70.7909 200 73V105C200 107.209 198.209 109 196 109H133C130.791 109 129 107.209 129 105V73Z" fill="white" fill-opacity="0.01"/>
<path d="M146.316 84.6H148.46V93.256H152.604V95H146.316V84.6ZM156.204 95.192C155.852 95.192 155.516 95.1333 155.196 95.016C154.886 94.9093 154.614 94.7547 154.38 94.552C154.145 94.3387 153.958 94.0827 153.82 93.784C153.692 93.4853 153.628 93.1493 153.628 92.776C153.628 92.072 153.878 91.512 154.38 91.096C154.881 90.68 155.644 90.4453 156.668 90.392L158.524 90.28V89.96C158.524 89.448 158.369 89.096 158.06 88.904C157.75 88.712 157.366 88.616 156.908 88.616C156.545 88.616 156.204 88.6853 155.884 88.824C155.564 88.952 155.324 89.112 155.164 89.304L154.028 88.152C154.305 87.7893 154.705 87.4907 155.228 87.256C155.761 87.0213 156.412 86.904 157.18 86.904C158.31 86.904 159.153 87.1653 159.708 87.688C160.262 88.2107 160.54 88.92 160.54 89.816V95H158.636V93.736H158.54C158.337 94.184 158.044 94.5413 157.66 94.808C157.276 95.064 156.79 95.192 156.204 95.192ZM156.796 93.736C157.308 93.736 157.724 93.592 158.044 93.304C158.364 93.0053 158.524 92.5893 158.524 92.056V91.528L156.908 91.656C156.076 91.7093 155.66 92.0613 155.66 92.712C155.66 93.0427 155.766 93.2987 155.98 93.48C156.193 93.6507 156.465 93.736 156.796 93.736ZM167.109 95.192C166.49 95.192 165.952 95.0427 165.493 94.744C165.045 94.4453 164.725 94.0347 164.533 93.512H164.437V95H162.517V83.4H164.533V88.456H164.629C164.81 87.9973 165.114 87.624 165.541 87.336C165.968 87.048 166.49 86.904 167.109 86.904C167.6 86.904 168.053 87.0053 168.469 87.208C168.896 87.4107 169.258 87.6987 169.557 88.072C169.866 88.4347 170.106 88.872 170.277 89.384C170.448 89.896 170.533 90.4613 170.533 91.08C170.533 91.688 170.448 92.248 170.277 92.76C170.106 93.2613 169.866 93.6933 169.557 94.056C169.258 94.408 168.896 94.6853 168.469 94.888C168.053 95.0907 167.6 95.192 167.109 95.192ZM166.485 93.432C167.082 93.432 167.562 93.2187 167.925 92.792C168.288 92.3653 168.469 91.784 168.469 91.048C168.469 90.312 168.288 89.7307 167.925 89.304C167.562 88.8773 167.082 88.664 166.485 88.664C165.898 88.664 165.424 88.8773 165.061 89.304C164.709 89.7307 164.533 90.312 164.533 91.048C164.533 91.784 164.709 92.3653 165.061 92.792C165.424 93.2187 165.898 93.432 166.485 93.432ZM175.535 95.192C174.873 95.192 174.297 95.0853 173.807 94.872C173.316 94.6587 172.9 94.3653 172.559 93.992C172.228 93.608 171.977 93.1653 171.807 92.664C171.647 92.1627 171.567 91.624 171.567 91.048C171.567 90.4613 171.647 89.9173 171.807 89.416C171.967 88.904 172.207 88.4667 172.527 88.104C172.847 87.7307 173.247 87.4373 173.727 87.224C174.207 87.0107 174.767 86.904 175.407 86.904C176.047 86.904 176.607 87.0053 177.087 87.208C177.567 87.4107 177.961 87.6933 178.271 88.056C178.58 88.4187 178.809 88.8507 178.959 89.352C179.119 89.8427 179.199 90.3813 179.199 90.968C179.199 91.0747 179.188 91.1973 179.167 91.336C179.156 91.4747 179.14 91.5867 179.119 91.672H173.615C173.647 91.96 173.721 92.2213 173.839 92.456C173.967 92.68 174.121 92.872 174.303 93.032C174.495 93.192 174.703 93.3147 174.927 93.4C175.161 93.4747 175.401 93.512 175.647 93.512C176.105 93.512 176.489 93.432 176.799 93.272C177.108 93.112 177.359 92.9093 177.551 92.664L178.687 93.848C178.388 94.2533 177.972 94.5787 177.439 94.824C176.905 95.0693 176.271 95.192 175.535 95.192ZM175.407 88.44C174.895 88.44 174.479 88.6053 174.159 88.936C173.839 89.2667 173.652 89.704 173.599 90.248H177.183C177.129 89.704 176.943 89.2667 176.623 88.936C176.313 88.6053 175.908 88.44 175.407 88.44ZM180.767 83.4H182.783V95H180.767V83.4Z" fill="#242E30"/>
<path d="M129 115C129 113.895 129.895 113 131 113H198C199.105 113 200 113.895 200 115V117H129V115Z" fill="#F36805"/>
</svg>
