<svg width="328" height="160" viewBox="0 0 328 160" fill="none" xmlns="http://www.w3.org/2000/svg">
<rect width="328" height="160" rx="12" fill="#EFEDEA"/>
<path d="M148 80C148 74.4772 152.477 70 158 70H170C175.523 70 180 74.4772 180 80V80C180 85.5228 175.523 90 170 90H158C152.477 90 148 85.5228 148 80V80Z" fill="#2B2A28"/>
<g clip-path="url(#clip0_5817_5963)">
<path d="M171.917 72L172 72.083V87.917L171.917 88H156.083L156 87.917V72.083L156.083 72H171.917ZM156.165 72.165V87.834H171.834V72.165H156.165ZM168.731 73C169.984 73 171 74.0157 171 75.2686V84.7314C171 85.9843 169.984 87 168.731 87H159.269C158.016 87 157 85.9843 157 84.7314V75.2686C157 74.0157 158.016 73 159.269 73H168.731Z" fill="white" fill-opacity="0.9"/>
</g>
<defs>
<clipPath id="clip0_5817_5963">
<rect width="16" height="16" fill="white" transform="translate(156 72)"/>
</clipPath>
</defs>
</svg>
