<svg width="328" height="160" viewBox="0 0 328 160" fill="none" xmlns="http://www.w3.org/2000/svg">
<rect width="328" height="160" rx="12" fill="#EFEDEA"/>
<path d="M130 80C130 73.3726 135.373 68 142 68H186C192.627 68 198 73.3726 198 80V80C198 86.6274 192.627 92 186 92H142C135.373 92 130 86.6274 130 80V80Z" fill="#2B2A28"/>
<path d="M131 80C131 73.9249 135.925 69 142 69V69C148.075 69 153 73.9249 153 80V80C153 86.0751 148.075 91 142 91V91C135.925 91 131 86.0751 131 80V80Z" fill="#F0ECE6"/>
<g clip-path="url(#clip0_5817_5951)">
<path d="M149.917 72L150 72.083V87.917L149.917 88H134.083L134 87.917V72.083L134.083 72H149.917ZM134.165 72.165V87.834H149.834V72.165H134.165ZM146.731 73C147.984 73 149 74.0157 149 75.2686V84.7314C149 85.9843 147.984 87 146.731 87H137.269C136.016 87 135 85.9843 135 84.7314V75.2686C135 74.0157 136.016 73 137.269 73H146.731Z" fill="black" fill-opacity="0.76"/>
</g>
<path d="M158.288 75.9H159.478V83.992H162.992V85H158.288V75.9ZM166.183 85.168C165.865 85.168 165.571 85.1167 165.301 85.014C165.039 84.9113 164.811 84.7667 164.615 84.58C164.419 84.3933 164.265 84.174 164.153 83.922C164.05 83.6607 163.999 83.376 163.999 83.068C163.999 82.4707 164.213 81.99 164.643 81.626C165.072 81.262 165.683 81.0567 166.477 81.01L168.297 80.898V80.408C168.297 79.876 168.166 79.4933 167.905 79.26C167.653 79.0173 167.289 78.896 166.813 78.896C166.411 78.896 166.066 78.9707 165.777 79.12C165.487 79.2693 165.263 79.4327 165.105 79.61L164.433 78.938C164.675 78.6393 165.002 78.3967 165.413 78.21C165.833 78.014 166.309 77.916 166.841 77.916C167.317 77.916 167.718 77.9813 168.045 78.112C168.371 78.2333 168.633 78.4013 168.829 78.616C169.034 78.8307 169.179 79.0827 169.263 79.372C169.356 79.6613 169.403 79.9693 169.403 80.296V85H168.353V83.824H168.269C168.082 84.244 167.821 84.5753 167.485 84.818C167.149 85.0513 166.715 85.168 166.183 85.168ZM166.351 84.216C166.929 84.216 167.396 84.048 167.751 83.712C168.115 83.3667 168.297 82.9093 168.297 82.34V81.738L166.533 81.864C165.599 81.9387 165.133 82.3307 165.133 83.04C165.133 83.3947 165.245 83.6793 165.469 83.894C165.702 84.1087 165.996 84.216 166.351 84.216ZM175.213 85.168C174.933 85.168 174.662 85.1307 174.401 85.056C174.149 84.9813 173.915 84.874 173.701 84.734C173.495 84.594 173.313 84.4307 173.155 84.244C173.005 84.048 172.889 83.8287 172.805 83.586H172.721V85H171.657V74.85H172.777V79.358H172.861C173.038 78.938 173.332 78.5927 173.743 78.322C174.153 78.0513 174.643 77.916 175.213 77.916C175.67 77.916 176.085 78.0047 176.459 78.182C176.841 78.3593 177.168 78.6113 177.439 78.938C177.709 79.2553 177.915 79.638 178.055 80.086C178.204 80.5247 178.279 81.0053 178.279 81.528C178.279 82.0507 178.204 82.536 178.055 82.984C177.915 83.432 177.709 83.8193 177.439 84.146C177.168 84.4633 176.841 84.7153 176.459 84.902C176.085 85.0793 175.67 85.168 175.213 85.168ZM174.933 84.16C175.241 84.16 175.525 84.1087 175.787 84.006C176.057 83.894 176.291 83.7307 176.487 83.516C176.692 83.292 176.851 83.0167 176.963 82.69C177.075 82.3633 177.131 81.9807 177.131 81.542C177.131 81.1033 177.075 80.7207 176.963 80.394C176.851 80.0673 176.692 79.7967 176.487 79.582C176.291 79.358 176.057 79.1947 175.787 79.092C175.525 78.98 175.241 78.924 174.933 78.924C174.634 78.924 174.354 78.98 174.093 79.092C173.831 79.1947 173.603 79.358 173.407 79.582C173.211 79.7967 173.057 80.0673 172.945 80.394C172.833 80.7207 172.777 81.1033 172.777 81.542C172.777 81.9807 172.833 82.3633 172.945 82.69C173.057 83.0167 173.211 83.292 173.407 83.516C173.603 83.7307 173.831 83.894 174.093 84.006C174.354 84.1087 174.634 84.16 174.933 84.16ZM182.781 85.168C182.286 85.168 181.833 85.084 181.423 84.916C181.021 84.748 180.676 84.51 180.387 84.202C180.107 83.8847 179.887 83.502 179.729 83.054C179.579 82.606 179.505 82.102 179.505 81.542C179.505 80.954 179.584 80.436 179.743 79.988C179.901 79.5307 180.121 79.1527 180.401 78.854C180.681 78.546 181.012 78.3127 181.395 78.154C181.787 77.9953 182.216 77.916 182.683 77.916C183.149 77.916 183.579 77.9907 183.971 78.14C184.363 78.2893 184.699 78.5133 184.979 78.812C185.259 79.1013 185.478 79.47 185.637 79.918C185.795 80.3567 185.875 80.87 185.875 81.458C185.875 81.5327 185.87 81.6073 185.861 81.682C185.861 81.7567 185.856 81.8173 185.847 81.864H180.625C180.625 82.1907 180.681 82.4987 180.793 82.788C180.914 83.068 181.073 83.3153 181.269 83.53C181.474 83.7353 181.707 83.8987 181.969 84.02C182.239 84.1413 182.529 84.202 182.837 84.202C183.341 84.202 183.751 84.104 184.069 83.908C184.395 83.712 184.666 83.474 184.881 83.194L185.553 83.88C185.254 84.272 184.881 84.5847 184.433 84.818C183.994 85.0513 183.443 85.168 182.781 85.168ZM182.683 78.84C182.356 78.84 182.067 78.9007 181.815 79.022C181.563 79.1433 181.353 79.302 181.185 79.498C181.017 79.694 180.886 79.918 180.793 80.17C180.709 80.422 180.662 80.674 180.653 80.926H184.699C184.689 80.674 184.638 80.422 184.545 80.17C184.461 79.918 184.335 79.694 184.167 79.498C183.999 79.302 183.789 79.1433 183.537 79.022C183.294 78.9007 183.009 78.84 182.683 78.84ZM187.68 74.85H188.8V85H187.68V74.85Z" fill="white" fill-opacity="0.9"/>
<defs>
<clipPath id="clip0_5817_5951">
<rect width="16" height="16" fill="white" transform="translate(134 72)"/>
</clipPath>
</defs>
</svg>
