<svg viewBox="0 0 14 14" fill="none" xmlns="http://www.w3.org/2000/svg">
<path d="M12.1188 3.71873L12.4775 3.35123C12.6573 3.17452 12.7997 2.9633 12.8959 2.73024C12.9921 2.49719 13.0403 2.24711 13.0375 1.99498C13.0396 1.74426 12.9911 1.49568 12.8949 1.26415C12.7986 1.03261 12.6567 0.822871 12.4775 0.647483C12.3009 0.468378 12.0904 0.326159 11.8583 0.229089C11.6262 0.132018 11.3772 0.0820313 11.1256 0.0820312C10.8741 0.0820313 10.625 0.132018 10.3929 0.229089C10.1609 0.326159 9.95039 0.468378 9.77375 0.647483L6.7025 3.71873H0.21875V12.0312H13.7812V3.71873H12.1188ZM7.93625 4.37498L10.7013 1.57498C10.757 1.51453 10.8246 1.46628 10.8999 1.43328C10.9752 1.40028 11.0565 1.38324 11.1388 1.38324C11.221 1.38324 11.3023 1.40028 11.3776 1.43328C11.4529 1.46628 11.5205 1.51453 11.5763 1.57498C11.6356 1.63138 11.6828 1.69924 11.715 1.77445C11.7473 1.84966 11.7639 1.93064 11.7639 2.01248C11.7639 2.09432 11.7473 2.1753 11.715 2.25051C11.6828 2.32572 11.6356 2.39359 11.5763 2.44998L8.79375 5.18873L7.79625 5.32873L7.93625 4.37498ZM12.4688 10.7625H1.53125V5.03123H6.51L6.2475 6.87748L9.40625 6.42248L10.8063 5.03123H12.4688V10.7625ZM2.625 8.09373H7.875V9.40623H2.625V8.09373ZM9.625 8.09373H11.375V9.40623H9.625V8.09373Z"/>
</svg>
