<svg viewBox="0 0 14 14" fill="none" xmlns="http://www.w3.org/2000/svg">
<path d="M3.49999 10.5H5.24999V11.375H3.49999V10.5ZM7.81374 0.253738C7.55513 0.14326 7.27683 0.0863037 6.99562 0.0863037C6.7144 0.0863037 6.4361 0.14326 6.17749 0.253738C4.03061 1.44453 1.98242 2.80511 0.0524902 4.32249L0.87499 5.36374C2.71323 3.90254 4.6681 2.59441 6.71999 1.45249C6.89822 1.40908 7.08426 1.40908 7.26249 1.45249C9.32039 2.59362 11.2811 3.90177 13.125 5.36374L13.9387 4.32249C12.0096 2.80398 9.96134 1.44333 7.81374 0.253738ZM12.9062 6.99999V12.25C12.9039 12.6554 12.7419 13.0435 12.4552 13.3302C12.1685 13.6169 11.7804 13.7789 11.375 13.7812H2.62499C2.21959 13.7789 1.83144 13.6169 1.54477 13.3302C1.2581 13.0435 1.09604 12.6554 1.09374 12.25V6.99999C1.09604 6.59458 1.2581 6.20644 1.54477 5.91977C1.83144 5.6331 2.21959 5.47104 2.62499 5.46874H11.375C11.7804 5.47104 12.1685 5.6331 12.4552 5.91977C12.7419 6.20644 12.9039 6.59458 12.9062 6.99999ZM2.40624 6.99999V8.09374H11.5937V6.99999C11.5937 6.94197 11.5707 6.88633 11.5297 6.84531C11.4886 6.80428 11.433 6.78124 11.375 6.78124H2.62499C2.56697 6.78124 2.51133 6.80428 2.47031 6.84531C2.42929 6.88633 2.40624 6.94197 2.40624 6.99999ZM11.5937 12.25V9.40624H2.40624V12.25C2.40624 12.308 2.42929 12.3636 2.47031 12.4047C2.51133 12.4457 2.56697 12.4687 2.62499 12.4687H11.375C11.433 12.4687 11.4886 12.4457 11.5297 12.4047C11.5707 12.3636 11.5937 12.308 11.5937 12.25Z"/>
</svg>
