<svg viewBox="0 0 28 28" fill="none" xmlns="http://www.w3.org/2000/svg">
<path d="M14 25.7513L3.17625 14.63C1.91162 13.2754 1.20825 11.4913 1.20825 9.63816C1.20825 7.78499 1.91162 6.00089 3.17625 4.64629C3.79842 4.0065 4.54254 3.49795 5.36463 3.15069C6.18672 2.80343 7.07008 2.62451 7.9625 2.62451C8.85492 2.62451 9.73829 2.80343 10.5604 3.15069C11.3825 3.49795 12.1266 4.0065 12.7488 4.64629L14 5.88004L15.2775 4.65504C15.899 4.01417 16.643 3.50465 17.4651 3.15669C18.2873 2.80874 19.171 2.62945 20.0638 2.62945C20.9565 2.62945 21.8402 2.80874 22.6624 3.15669C23.4845 3.50465 24.2285 4.01417 24.85 4.65504C26.1146 6.00964 26.818 7.79374 26.818 9.64691C26.818 11.5001 26.1146 13.2842 24.85 14.6388L14 25.7513ZM7.9625 4.37504C7.30841 4.38096 6.66204 4.5171 6.06112 4.77549C5.4602 5.03389 4.91676 5.40937 4.4625 5.88004C3.50717 6.89995 2.97557 8.24508 2.97557 9.64254C2.97557 11.04 3.50717 12.3851 4.4625 13.405L14 23.2488L23.5725 13.405C24.5278 12.3851 25.0594 11.04 25.0594 9.64254C25.0594 8.24508 24.5278 6.89995 23.5725 5.88004C23.1141 5.40517 22.565 5.02725 21.9578 4.76871C21.3505 4.51018 20.6975 4.3763 20.0375 4.37504C19.3723 4.37803 18.7144 4.5143 18.1028 4.7758C17.4911 5.0373 16.938 5.41872 16.4763 5.89754L14.875 7.43754C14.6286 7.67597 14.2991 7.80926 13.9563 7.80926C13.6134 7.80926 13.2839 7.67597 13.0375 7.43754L11.5063 5.88004C11.0463 5.40491 10.4956 5.0269 9.8869 4.76839C9.2782 4.50988 8.62382 4.37612 7.9625 4.37504Z"/>
</svg>
