<svg xmlns="http://www.w3.org/2000/svg" width="328" height="216" fill="none">
    <rect width="327" height="215" x=".5" y=".5" fill="#C1DADE" rx="11.5"/>
    <rect width="327" height="215" x=".5" y=".5" stroke="#EFEDEA" rx="11.5"/>
    <g filter="url(#filter0_ddd_3234_7629)">
      <path fill="#fff" d="M175.562 123.563a8 8 0 0 1 8-8.001h60.563a8 8 0 0 1 8 8v60.563a8 8 0 0 1-8 8h-60.562a8 8 0 0 1-8.001-8v-60.562Z"/>
      <path fill="#C1DADE" d="M213.494 142.823a.57.57 0 0 1 .7 0l21.474 15.499c.609.44.609 1.744 0 2.184l-21.474 15.499a.57.57 0 0 1-.7 0l-21.474-15.499c-.61-.44-.61-1.744 0-2.184l21.474-15.499Z" opacity=".8"/>
      <path fill="#242E30" d="M213.494 131.682a.573.573 0 0 1 .7 0l21.474 15.5c.609.44.609 1.743 0 2.183l-21.474 15.5a.573.573 0 0 1-.7 0l-21.474-15.5c-.61-.44-.61-1.743 0-2.183l21.474-15.5Z"/>
    </g>
    <g filter="url(#filter1_ddd_3234_7629)">
      <path fill="#fff" d="M175.562 31a8 8 0 0 1 8-8h60.563a8 8 0 0 1 8 8v60.563a8 8 0 0 1-8 8h-60.562a8 8 0 0 1-8.001-8V31Z"/>
      <path fill="#242E30" d="M191.562 82.026c0-23.763 19.264-43.026 43.026-43.026.849 0 1.537.688 1.537 1.537v43.026h-43.026a1.537 1.537 0 0 1-1.537-1.537Z"/>
    </g>
    <g filter="url(#filter2_ddd_3234_7629)">
      <path fill="#fff" d="M75 31a8 8 0 0 1 8-8h60.562a8 8 0 0 1 8 8v60.563a8 8 0 0 1-8 8H83a8 8 0 0 1-8-8V31Z"/>
      <g clip-path="url(#clip0_3234_7629)">
        <path fill="#242E30" d="M91 43a4 4 0 0 1 4-4h36.562a4 4 0 0 1 4 4v18.281H91V43Z"/>
        <path fill="#C1DADE" d="M91 61.281h44.562v18.282a4 4 0 0 1-4 4H95a4 4 0 0 1-4-4V61.28Z" opacity=".8"/>
      </g>
    </g>
    <g filter="url(#filter3_ddd_3234_7629)">
      <path fill="#fff" d="M75 123.563a8 8 0 0 1 8-8.001h60.562a8 8 0 0 1 8 8v60.563a8 8 0 0 1-8 8H83a8 8 0 0 1-8-8v-60.562Z"/>
      <path fill="#242E30" d="M129.047 169.844c-2.951 0-5.086-.759-6.405-2.276-1.287-1.516-1.931-3.937-1.931-7.261v-8.763h-3.343v-6.148h3.343v-6.487h7.394v6.487h6.876v6.148h-6.876v8.908c0 1.065.173 1.84.518 2.324.377.484.989.726 1.837.726.565 0 1.099-.113 1.601-.339.534-.258.973-.565 1.318-.92l2.402 5.229c-1.538 1.581-3.783 2.372-6.734 2.372ZM99.164 144.379H90.78v-6.535h24.724v6.535h-8.382v24.932h-7.96v-24.932Z"/>
    </g>
    <defs>
      <filter id="filter0_ddd_3234_7629" width="96.563" height="98.563" x="165.562" y="111.562" color-interpolation-filters="sRGB" filterUnits="userSpaceOnUse">
        <feFlood flood-opacity="0" result="BackgroundImageFix"/>
        <feColorMatrix in="SourceAlpha" result="hardAlpha" values="0 0 0 0 0 0 0 0 0 0 0 0 0 0 0 0 0 0 127 0"/>
        <feOffset dy="4"/>
        <feGaussianBlur stdDeviation="3"/>
        <feColorMatrix values="0 0 0 0 0 0 0 0 0 0 0 0 0 0 0 0 0 0 0.04 0"/>
        <feBlend in2="BackgroundImageFix" result="effect1_dropShadow_3234_7629"/>
        <feColorMatrix in="SourceAlpha" result="hardAlpha" values="0 0 0 0 0 0 0 0 0 0 0 0 0 0 0 0 0 0 127 0"/>
        <feMorphology in="SourceAlpha" radius="2" result="effect2_dropShadow_3234_7629"/>
        <feOffset dy="8"/>
        <feGaussianBlur stdDeviation="6"/>
        <feColorMatrix values="0 0 0 0 0 0 0 0 0 0 0 0 0 0 0 0 0 0 0.06 0"/>
        <feBlend in2="effect1_dropShadow_3234_7629" result="effect2_dropShadow_3234_7629"/>
        <feColorMatrix in="SourceAlpha" result="hardAlpha" values="0 0 0 0 0 0 0 0 0 0 0 0 0 0 0 0 0 0 127 0"/>
        <feOffset dy="2"/>
        <feGaussianBlur stdDeviation="3"/>
        <feColorMatrix values="0 0 0 0 0 0 0 0 0 0 0 0 0 0 0 0 0 0 0.04 0"/>
        <feBlend in2="effect2_dropShadow_3234_7629" result="effect3_dropShadow_3234_7629"/>
        <feBlend in="SourceGraphic" in2="effect3_dropShadow_3234_7629" result="shape"/>
      </filter>
      <filter id="filter1_ddd_3234_7629" width="96.563" height="98.563" x="165.562" y="19" color-interpolation-filters="sRGB" filterUnits="userSpaceOnUse">
        <feFlood flood-opacity="0" result="BackgroundImageFix"/>
        <feColorMatrix in="SourceAlpha" result="hardAlpha" values="0 0 0 0 0 0 0 0 0 0 0 0 0 0 0 0 0 0 127 0"/>
        <feOffset dy="4"/>
        <feGaussianBlur stdDeviation="3"/>
        <feColorMatrix values="0 0 0 0 0 0 0 0 0 0 0 0 0 0 0 0 0 0 0.04 0"/>
        <feBlend in2="BackgroundImageFix" result="effect1_dropShadow_3234_7629"/>
        <feColorMatrix in="SourceAlpha" result="hardAlpha" values="0 0 0 0 0 0 0 0 0 0 0 0 0 0 0 0 0 0 127 0"/>
        <feMorphology in="SourceAlpha" radius="2" result="effect2_dropShadow_3234_7629"/>
        <feOffset dy="8"/>
        <feGaussianBlur stdDeviation="6"/>
        <feColorMatrix values="0 0 0 0 0 0 0 0 0 0 0 0 0 0 0 0 0 0 0.06 0"/>
        <feBlend in2="effect1_dropShadow_3234_7629" result="effect2_dropShadow_3234_7629"/>
        <feColorMatrix in="SourceAlpha" result="hardAlpha" values="0 0 0 0 0 0 0 0 0 0 0 0 0 0 0 0 0 0 127 0"/>
        <feOffset dy="2"/>
        <feGaussianBlur stdDeviation="3"/>
        <feColorMatrix values="0 0 0 0 0 0 0 0 0 0 0 0 0 0 0 0 0 0 0.04 0"/>
        <feBlend in2="effect2_dropShadow_3234_7629" result="effect3_dropShadow_3234_7629"/>
        <feBlend in="SourceGraphic" in2="effect3_dropShadow_3234_7629" result="shape"/>
      </filter>
      <filter id="filter2_ddd_3234_7629" width="96.563" height="98.563" x="65" y="19" color-interpolation-filters="sRGB" filterUnits="userSpaceOnUse">
        <feFlood flood-opacity="0" result="BackgroundImageFix"/>
        <feColorMatrix in="SourceAlpha" result="hardAlpha" values="0 0 0 0 0 0 0 0 0 0 0 0 0 0 0 0 0 0 127 0"/>
        <feOffset dy="4"/>
        <feGaussianBlur stdDeviation="3"/>
        <feColorMatrix values="0 0 0 0 0 0 0 0 0 0 0 0 0 0 0 0 0 0 0.04 0"/>
        <feBlend in2="BackgroundImageFix" result="effect1_dropShadow_3234_7629"/>
        <feColorMatrix in="SourceAlpha" result="hardAlpha" values="0 0 0 0 0 0 0 0 0 0 0 0 0 0 0 0 0 0 127 0"/>
        <feMorphology in="SourceAlpha" radius="2" result="effect2_dropShadow_3234_7629"/>
        <feOffset dy="8"/>
        <feGaussianBlur stdDeviation="6"/>
        <feColorMatrix values="0 0 0 0 0 0 0 0 0 0 0 0 0 0 0 0 0 0 0.06 0"/>
        <feBlend in2="effect1_dropShadow_3234_7629" result="effect2_dropShadow_3234_7629"/>
        <feColorMatrix in="SourceAlpha" result="hardAlpha" values="0 0 0 0 0 0 0 0 0 0 0 0 0 0 0 0 0 0 127 0"/>
        <feOffset dy="2"/>
        <feGaussianBlur stdDeviation="3"/>
        <feColorMatrix values="0 0 0 0 0 0 0 0 0 0 0 0 0 0 0 0 0 0 0.04 0"/>
        <feBlend in2="effect2_dropShadow_3234_7629" result="effect3_dropShadow_3234_7629"/>
        <feBlend in="SourceGraphic" in2="effect3_dropShadow_3234_7629" result="shape"/>
      </filter>
      <filter id="filter3_ddd_3234_7629" width="96.563" height="98.563" x="65" y="111.562" color-interpolation-filters="sRGB" filterUnits="userSpaceOnUse">
        <feFlood flood-opacity="0" result="BackgroundImageFix"/>
        <feColorMatrix in="SourceAlpha" result="hardAlpha" values="0 0 0 0 0 0 0 0 0 0 0 0 0 0 0 0 0 0 127 0"/>
        <feOffset dy="4"/>
        <feGaussianBlur stdDeviation="3"/>
        <feColorMatrix values="0 0 0 0 0 0 0 0 0 0 0 0 0 0 0 0 0 0 0.04 0"/>
        <feBlend in2="BackgroundImageFix" result="effect1_dropShadow_3234_7629"/>
        <feColorMatrix in="SourceAlpha" result="hardAlpha" values="0 0 0 0 0 0 0 0 0 0 0 0 0 0 0 0 0 0 127 0"/>
        <feMorphology in="SourceAlpha" radius="2" result="effect2_dropShadow_3234_7629"/>
        <feOffset dy="8"/>
        <feGaussianBlur stdDeviation="6"/>
        <feColorMatrix values="0 0 0 0 0 0 0 0 0 0 0 0 0 0 0 0 0 0 0.06 0"/>
        <feBlend in2="effect1_dropShadow_3234_7629" result="effect2_dropShadow_3234_7629"/>
        <feColorMatrix in="SourceAlpha" result="hardAlpha" values="0 0 0 0 0 0 0 0 0 0 0 0 0 0 0 0 0 0 127 0"/>
        <feOffset dy="2"/>
        <feGaussianBlur stdDeviation="3"/>
        <feColorMatrix values="0 0 0 0 0 0 0 0 0 0 0 0 0 0 0 0 0 0 0.04 0"/>
        <feBlend in2="effect2_dropShadow_3234_7629" result="effect3_dropShadow_3234_7629"/>
        <feBlend in="SourceGraphic" in2="effect3_dropShadow_3234_7629" result="shape"/>
      </filter>
      <clipPath id="clip0_3234_7629">
        <path fill="#fff" d="M91 61.281C91 48.976 100.976 39 113.281 39c12.306 0 22.281 9.976 22.281 22.281 0 12.306-9.975 22.282-22.281 22.282C100.976 83.563 91 73.587 91 61.28Z"/>
      </clipPath>
    </defs>
</svg>