<svg xmlns="http://www.w3.org/2000/svg" width="328" height="216" fill="none">
    <g clip-path="url(#clip0_3234_7653)">
      <rect width="328" height="216" fill="#F6C243" rx="12"/>
      <path fill="#fff" d="M162.801 97.04a5.072 5.072 0 0 1 4.398 0l134.927 64.903c3.832 1.844 3.832 7.3 0 9.144l-134.927 64.902a5.07 5.07 0 0 1-4.398 0L27.874 171.087c-3.832-1.844-3.832-7.3 0-9.144L162.801 97.04Z" opacity=".9"/>
      <path fill="#FF8000" d="M162.801 37.501a5.073 5.073 0 0 1 4.398 0l134.927 64.903c3.832 1.844 3.832 7.3 0 9.144L167.199 176.45a5.07 5.07 0 0 1-4.398 0L27.874 111.548c-3.832-1.844-3.832-7.301 0-9.144l134.927-64.903Z" opacity=".8"/>
      <path fill="#FFEAD4" d="M162.801-18.499a5.073 5.073 0 0 1 4.398 0l134.927 64.903c3.832 1.843 3.832 7.3 0 9.144L167.199 120.45a5.07 5.07 0 0 1-4.398 0L27.874 55.548c-3.832-1.844-3.832-7.3 0-9.144l134.927-64.903Z" opacity=".5"/>
    </g>
    <rect width="327" height="215" x=".5" y=".5" stroke="#EFEDEA" rx="11.5"/>
    <defs>
      <clipPath id="clip0_3234_7653">
        <rect width="328" height="216" fill="#fff" rx="12"/>
      </clipPath>
    </defs>
</svg>