<svg width="788" height="72" viewBox="0 0 788 72" fill="none" xmlns="http://www.w3.org/2000/svg">
<g clip-path="url(#clip0_2288_5645)">
<path d="M287.026 15.168C286.298 15.168 285.659 15.042 285.108 14.79C284.557 14.5287 284.095 14.1833 283.722 13.754C283.358 13.3153 283.078 12.8113 282.882 12.242C282.695 11.6633 282.602 11.0567 282.602 10.422C282.602 9.78733 282.695 9.18533 282.882 8.616C283.069 8.04667 283.344 7.552 283.708 7.132C284.081 6.70267 284.539 6.362 285.08 6.11C285.621 5.858 286.247 5.732 286.956 5.732C287.656 5.732 288.272 5.858 288.804 6.11C289.345 6.35267 289.807 6.67933 290.19 7.09L288.986 8.21C288.743 7.93 288.445 7.71533 288.09 7.566C287.735 7.40733 287.362 7.328 286.97 7.328C286.615 7.328 286.284 7.40267 285.976 7.552C285.677 7.692 285.421 7.89733 285.206 8.168C284.991 8.43867 284.823 8.76533 284.702 9.148C284.581 9.53067 284.52 9.96 284.52 10.436C284.52 10.9027 284.585 11.3273 284.716 11.71C284.847 12.0927 285.024 12.424 285.248 12.704C285.472 12.9747 285.738 13.1893 286.046 13.348C286.354 13.4973 286.685 13.572 287.04 13.572C287.432 13.572 287.805 13.4973 288.16 13.348C288.524 13.1893 288.827 12.9653 289.07 12.676L290.26 13.796C289.887 14.216 289.425 14.552 288.874 14.804C288.333 15.0467 287.717 15.168 287.026 15.168ZM293.341 15.168C293.033 15.168 292.739 15.1167 292.459 15.014C292.189 14.9207 291.951 14.7853 291.745 14.608C291.54 14.4213 291.377 14.1973 291.255 13.936C291.143 13.6747 291.087 13.3807 291.087 13.054C291.087 12.438 291.307 11.948 291.745 11.584C292.184 11.22 292.851 11.0147 293.747 10.968L295.371 10.87V10.59C295.371 10.142 295.236 9.834 294.965 9.666C294.695 9.498 294.359 9.414 293.957 9.414C293.64 9.414 293.341 9.47467 293.061 9.596C292.781 9.708 292.571 9.848 292.431 10.016L291.437 9.008C291.68 8.69067 292.03 8.42933 292.487 8.224C292.954 8.01867 293.523 7.916 294.195 7.916C295.185 7.916 295.922 8.14467 296.407 8.602C296.893 9.05933 297.135 9.68 297.135 10.464V15H295.469V13.894H295.385C295.208 14.286 294.951 14.5987 294.615 14.832C294.279 15.056 293.855 15.168 293.341 15.168ZM293.859 13.894C294.307 13.894 294.671 13.768 294.951 13.516C295.231 13.2547 295.371 12.8907 295.371 12.424V11.962L293.957 12.074C293.229 12.1207 292.865 12.4287 292.865 12.998C292.865 13.2873 292.959 13.5113 293.145 13.67C293.332 13.8193 293.57 13.894 293.859 13.894ZM298.865 8.084H300.531V9.246H300.615C300.755 8.84467 300.97 8.52267 301.259 8.28C301.558 8.03733 301.931 7.916 302.379 7.916C302.725 7.916 303.047 7.972 303.345 8.084L302.855 9.694C302.753 9.62867 302.631 9.582 302.491 9.554C302.351 9.526 302.216 9.512 302.085 9.512C301.656 9.512 301.306 9.66133 301.035 9.96C300.765 10.2493 300.629 10.66 300.629 11.192V15H298.865V8.084ZM306.69 15.168C306.252 15.168 305.85 15.0793 305.486 14.902C305.122 14.7247 304.81 14.482 304.548 14.174C304.287 13.8567 304.082 13.4787 303.932 13.04C303.783 12.592 303.708 12.102 303.708 11.57C303.708 11.0287 303.783 10.534 303.932 10.086C304.082 9.638 304.287 9.25533 304.548 8.938C304.81 8.61133 305.122 8.35933 305.486 8.182C305.85 8.00467 306.252 7.916 306.69 7.916C307.232 7.916 307.684 8.042 308.048 8.294C308.422 8.546 308.688 8.87267 308.846 9.274H308.93V4.85H310.694V15H309.028V13.698H308.944C308.776 14.1553 308.492 14.5147 308.09 14.776C307.698 15.0373 307.232 15.168 306.69 15.168ZM307.222 13.628C307.745 13.628 308.16 13.4413 308.468 13.068C308.776 12.6947 308.93 12.186 308.93 11.542C308.93 10.898 308.776 10.3893 308.468 10.016C308.16 9.64267 307.745 9.456 307.222 9.456C306.7 9.456 306.284 9.64267 305.976 10.016C305.668 10.3893 305.514 10.898 305.514 11.542C305.514 12.186 305.668 12.6947 305.976 13.068C306.284 13.4413 306.7 13.628 307.222 13.628ZM315.914 8.084H317.58V9.204H317.664C317.823 8.83067 318.07 8.52267 318.406 8.28C318.752 8.03733 319.162 7.916 319.638 7.916C320.516 7.916 321.146 8.14933 321.528 8.616C321.92 9.07333 322.116 9.76867 322.116 10.702V15H320.352V11.052C320.352 10.492 320.25 10.0767 320.044 9.806C319.848 9.53533 319.512 9.4 319.036 9.4C318.588 9.4 318.248 9.54933 318.014 9.848C317.79 10.1373 317.678 10.562 317.678 11.122V15H315.914V8.084ZM326.209 15.168C325.36 15.168 324.744 14.9393 324.361 14.482C323.978 14.0153 323.787 13.3153 323.787 12.382V8.084H325.551V12.032C325.551 12.592 325.649 13.0073 325.845 13.278C326.041 13.5487 326.363 13.684 326.811 13.684C327.24 13.684 327.562 13.5393 327.777 13.25C328.001 12.9513 328.113 12.522 328.113 11.962V8.084H329.877V15H328.211V13.88H328.127C327.968 14.2533 327.726 14.5613 327.399 14.804C327.072 15.0467 326.676 15.168 326.209 15.168ZM331.719 8.084H333.385V9.134H333.469C333.646 8.77 333.894 8.476 334.211 8.252C334.538 8.028 334.934 7.916 335.401 7.916C336.54 7.916 337.272 8.34533 337.599 9.204C337.776 8.812 338.052 8.49933 338.425 8.266C338.798 8.03267 339.237 7.916 339.741 7.916C340.581 7.916 341.197 8.14933 341.589 8.616C341.981 9.07333 342.177 9.76867 342.177 10.702V15H340.413V10.996C340.413 9.932 339.988 9.4 339.139 9.4C338.7 9.4 338.369 9.54467 338.145 9.834C337.93 10.1233 337.823 10.5387 337.823 11.08V15H336.059V10.996C336.059 10.464 335.956 10.0673 335.751 9.806C335.555 9.53533 335.233 9.4 334.785 9.4C334.365 9.4 334.043 9.54467 333.819 9.834C333.595 10.1233 333.483 10.5387 333.483 11.08V15H331.719V8.084ZM347.946 15.168C347.405 15.168 346.933 15.0373 346.532 14.776C346.14 14.5147 345.86 14.1553 345.692 13.698H345.608V15H343.928V4.85H345.692V9.274H345.776C345.935 8.87267 346.201 8.546 346.574 8.294C346.947 8.042 347.405 7.916 347.946 7.916C348.375 7.916 348.772 8.00467 349.136 8.182C349.509 8.35933 349.827 8.61133 350.088 8.938C350.359 9.25533 350.569 9.638 350.718 10.086C350.867 10.534 350.942 11.0287 350.942 11.57C350.942 12.102 350.867 12.592 350.718 13.04C350.569 13.4787 350.359 13.8567 350.088 14.174C349.827 14.482 349.509 14.7247 349.136 14.902C348.772 15.0793 348.375 15.168 347.946 15.168ZM347.4 13.628C347.923 13.628 348.343 13.4413 348.66 13.068C348.977 12.6947 349.136 12.186 349.136 11.542C349.136 10.898 348.977 10.3893 348.66 10.016C348.343 9.64267 347.923 9.456 347.4 9.456C346.887 9.456 346.471 9.64267 346.154 10.016C345.846 10.3893 345.692 10.898 345.692 11.542C345.692 12.186 345.846 12.6947 346.154 13.068C346.471 13.4413 346.887 13.628 347.4 13.628ZM355.318 15.168C354.74 15.168 354.236 15.0747 353.806 14.888C353.377 14.7013 353.013 14.4447 352.714 14.118C352.425 13.782 352.206 13.3947 352.056 12.956C351.916 12.5173 351.846 12.046 351.846 11.542C351.846 11.0287 351.916 10.5527 352.056 10.114C352.196 9.666 352.406 9.28333 352.686 8.966C352.966 8.63933 353.316 8.38267 353.736 8.196C354.156 8.00933 354.646 7.916 355.206 7.916C355.766 7.916 356.256 8.00467 356.676 8.182C357.096 8.35933 357.442 8.60667 357.712 8.924C357.983 9.24133 358.184 9.61933 358.314 10.058C358.454 10.4873 358.524 10.9587 358.524 11.472C358.524 11.5653 358.515 11.6727 358.496 11.794C358.487 11.9153 358.473 12.0133 358.454 12.088H353.638C353.666 12.34 353.732 12.5687 353.834 12.774C353.946 12.97 354.082 13.138 354.24 13.278C354.408 13.418 354.59 13.5253 354.786 13.6C354.992 13.6653 355.202 13.698 355.416 13.698C355.818 13.698 356.154 13.628 356.424 13.488C356.695 13.348 356.914 13.1707 357.082 12.956L358.076 13.992C357.815 14.3467 357.451 14.6313 356.984 14.846C356.518 15.0607 355.962 15.168 355.318 15.168ZM355.206 9.26C354.758 9.26 354.394 9.40467 354.114 9.694C353.834 9.98333 353.671 10.366 353.624 10.842H356.76C356.714 10.366 356.55 9.98333 356.27 9.694C356 9.40467 355.645 9.26 355.206 9.26ZM359.897 8.084H361.563V9.246H361.647C361.787 8.84467 362.001 8.52267 362.291 8.28C362.589 8.03733 362.963 7.916 363.411 7.916C363.756 7.916 364.078 7.972 364.377 8.084L363.887 9.694C363.784 9.62867 363.663 9.582 363.523 9.554C363.383 9.526 363.247 9.512 363.117 9.512C362.687 9.512 362.337 9.66133 362.067 9.96C361.796 10.2493 361.661 10.66 361.661 11.192V15H359.897V8.084Z" fill="#242E30"/>
</g>
<path d="M282.5 36C282.5 29.6487 287.649 24.5 294 24.5H494C500.351 24.5 505.5 29.6487 505.5 36V60C505.5 66.3513 500.351 71.5 494 71.5H294C287.649 71.5 282.5 66.3513 282.5 60V36Z" fill="white"/>
<path d="M282.5 36C282.5 29.6487 287.649 24.5 294 24.5H494C500.351 24.5 505.5 29.6487 505.5 36V60C505.5 66.3513 500.351 71.5 494 71.5H294C287.649 71.5 282.5 66.3513 282.5 60V36Z" stroke="#797876"/>
<g clip-path="url(#clip1_2288_5645)">
<path d="M282 36C282 29.3726 287.373 24 294 24H494C500.627 24 506 29.3726 506 36V60C506 66.6274 500.627 72 494 72H294C287.373 72 282 66.6274 282 60V36Z" fill="white" fill-opacity="0.01"/>
<path d="M299.52 52.88H302.496V45.04L299.648 46.352L299.232 45.456L302.736 43.6H303.856V52.88H306.528V54H299.52V52.88ZM309.162 52.272C309.162 51.8453 309.236 51.472 309.386 51.152C309.535 50.8213 309.738 50.5227 309.994 50.256C310.26 49.9787 310.57 49.7227 310.922 49.488C311.284 49.2533 311.674 49.0133 312.09 48.768C312.42 48.5653 312.714 48.3787 312.97 48.208C313.226 48.0267 313.439 47.84 313.61 47.648C313.78 47.456 313.908 47.2533 313.994 47.04C314.079 46.8267 314.122 46.5813 314.122 46.304C314.122 45.7387 313.94 45.312 313.578 45.024C313.226 44.7253 312.772 44.576 312.218 44.576C311.663 44.576 311.183 44.688 310.778 44.912C310.372 45.1253 310.031 45.4133 309.754 45.776L309.018 45.008C309.338 44.528 309.759 44.144 310.282 43.856C310.804 43.5573 311.434 43.408 312.17 43.408C312.714 43.408 313.194 43.4827 313.61 43.632C314.026 43.7707 314.372 43.968 314.65 44.224C314.938 44.4693 315.151 44.768 315.29 45.12C315.439 45.4613 315.514 45.8347 315.514 46.24C315.514 46.6987 315.434 47.104 315.274 47.456C315.114 47.808 314.9 48.128 314.634 48.416C314.367 48.704 314.058 48.9653 313.706 49.2C313.364 49.424 313.002 49.6427 312.618 49.856C312.276 50.048 311.972 50.2293 311.706 50.4C311.439 50.5707 311.215 50.752 311.034 50.944C310.863 51.136 310.73 51.3493 310.634 51.584C310.548 51.8187 310.506 52.096 310.506 52.416V52.848H315.77V54H309.162V52.272ZM321.604 54.192C320.836 54.192 320.19 54.0533 319.668 53.776C319.156 53.4987 318.74 53.152 318.42 52.736L319.236 51.936C319.481 52.2453 319.785 52.5013 320.148 52.704C320.521 52.9067 320.99 53.008 321.556 53.008C322.238 53.008 322.777 52.848 323.172 52.528C323.566 52.1973 323.764 51.712 323.764 51.072C323.764 50.4533 323.561 50 323.156 49.712C322.75 49.424 322.233 49.28 321.604 49.28H320.644V48.128H321.556C322.185 48.128 322.649 47.9627 322.948 47.632C323.257 47.3013 323.412 46.8693 323.412 46.336C323.412 46.0267 323.358 45.7653 323.252 45.552C323.156 45.328 323.017 45.1467 322.836 45.008C322.665 44.8587 322.462 44.752 322.228 44.688C322.004 44.624 321.769 44.592 321.524 44.592C321.033 44.592 320.606 44.688 320.244 44.88C319.881 45.072 319.577 45.312 319.332 45.6L318.596 44.8C318.905 44.416 319.305 44.0907 319.796 43.824C320.297 43.5467 320.9 43.408 321.604 43.408C322.03 43.408 322.436 43.472 322.82 43.6C323.214 43.7173 323.556 43.8933 323.844 44.128C324.142 44.352 324.377 44.64 324.548 44.992C324.718 45.3333 324.804 45.728 324.804 46.176C324.804 46.7733 324.649 47.28 324.34 47.696C324.03 48.1013 323.588 48.4053 323.012 48.608V48.704C323.3 48.7573 323.572 48.8533 323.828 48.992C324.094 49.12 324.324 49.2907 324.516 49.504C324.718 49.7067 324.873 49.952 324.98 50.24C325.097 50.528 325.156 50.848 325.156 51.2C325.156 51.6587 325.07 52.0747 324.9 52.448C324.74 52.8107 324.505 53.1253 324.196 53.392C323.886 53.648 323.513 53.8453 323.076 53.984C322.638 54.1227 322.148 54.192 321.604 54.192ZM332.541 51.856H327.693V50.784L332.285 43.6H333.805L329.197 50.704H332.541V47.568H333.853V50.704H335.293V51.856H333.853V54H332.541V51.856ZM344.683 54.192C343.957 54.192 343.36 54.0693 342.891 53.824C342.421 53.5787 342.011 53.264 341.659 52.88L342.475 52.064C342.731 52.3307 343.035 52.5547 343.387 52.736C343.739 52.9173 344.155 53.008 344.635 53.008C345.307 53.008 345.84 52.832 346.235 52.48C346.64 52.1173 346.843 51.6 346.843 50.928C346.843 50.2453 346.635 49.728 346.219 49.376C345.803 49.0133 345.227 48.832 344.491 48.832H342.859L342.347 48.32V43.6H347.659V44.752H343.627V47.696H344.747C345.323 47.696 345.829 47.776 346.267 47.936C346.704 48.096 347.067 48.32 347.355 48.608C347.643 48.8853 347.861 49.2213 348.011 49.616C348.16 50.0107 348.235 50.448 348.235 50.928C348.235 51.376 348.16 51.7973 348.011 52.192C347.872 52.5867 347.653 52.9333 347.355 53.232C347.067 53.52 346.699 53.7547 346.251 53.936C345.813 54.1067 345.291 54.192 344.683 54.192ZM354.789 54.192C353.594 54.192 352.682 53.7707 352.053 52.928C351.434 52.0747 351.125 50.8 351.125 49.104C351.125 47.2587 351.477 45.8507 352.181 44.88C352.885 43.8987 353.839 43.408 355.045 43.408C355.781 43.408 356.378 43.52 356.837 43.744C357.295 43.9573 357.679 44.2347 357.989 44.576L357.173 45.44C356.906 45.1627 356.607 44.9547 356.277 44.816C355.946 44.6667 355.551 44.592 355.093 44.592C354.271 44.592 353.615 44.96 353.125 45.696C352.645 46.432 352.405 47.5307 352.405 48.992H352.501C352.703 48.5547 353.018 48.1867 353.445 47.888C353.871 47.5787 354.415 47.424 355.077 47.424C355.471 47.424 355.861 47.4933 356.245 47.632C356.639 47.7707 356.986 47.9787 357.285 48.256C357.583 48.5333 357.823 48.8747 358.005 49.28C358.197 49.6853 358.293 50.1547 358.293 50.688C358.293 51.1787 358.213 51.6373 358.053 52.064C357.903 52.4907 357.679 52.864 357.381 53.184C357.082 53.4933 356.714 53.7387 356.277 53.92C355.839 54.1013 355.343 54.192 354.789 54.192ZM354.805 53.008C355.477 53.008 355.994 52.8 356.357 52.384C356.719 51.9573 356.901 51.4187 356.901 50.768C356.901 50.096 356.714 49.568 356.341 49.184C355.978 48.7893 355.466 48.592 354.805 48.592C354.143 48.592 353.626 48.7893 353.253 49.184C352.879 49.568 352.693 50.096 352.693 50.768C352.693 51.4187 352.874 51.9573 353.237 52.384C353.61 52.8 354.133 53.008 354.805 53.008Z" fill="#242E30"/>
</g>
<g clip-path="url(#clip2_2288_5645)">
<path d="M569.026 15.168C568.298 15.168 567.659 15.042 567.108 14.79C566.557 14.5287 566.095 14.1833 565.722 13.754C565.358 13.3153 565.078 12.8113 564.882 12.242C564.695 11.6633 564.602 11.0567 564.602 10.422C564.602 9.78733 564.695 9.18533 564.882 8.616C565.069 8.04667 565.344 7.552 565.708 7.132C566.081 6.70267 566.539 6.362 567.08 6.11C567.621 5.858 568.247 5.732 568.956 5.732C569.656 5.732 570.272 5.858 570.804 6.11C571.345 6.35267 571.807 6.67933 572.19 7.09L570.986 8.21C570.743 7.93 570.445 7.71533 570.09 7.566C569.735 7.40733 569.362 7.328 568.97 7.328C568.615 7.328 568.284 7.40267 567.976 7.552C567.677 7.692 567.421 7.89733 567.206 8.168C566.991 8.43867 566.823 8.76533 566.702 9.148C566.581 9.53067 566.52 9.96 566.52 10.436C566.52 10.9027 566.585 11.3273 566.716 11.71C566.847 12.0927 567.024 12.424 567.248 12.704C567.472 12.9747 567.738 13.1893 568.046 13.348C568.354 13.4973 568.685 13.572 569.04 13.572C569.432 13.572 569.805 13.4973 570.16 13.348C570.524 13.1893 570.827 12.9653 571.07 12.676L572.26 13.796C571.887 14.216 571.425 14.552 570.874 14.804C570.333 15.0467 569.717 15.168 569.026 15.168ZM575.341 15.168C575.033 15.168 574.739 15.1167 574.459 15.014C574.189 14.9207 573.951 14.7853 573.745 14.608C573.54 14.4213 573.377 14.1973 573.255 13.936C573.143 13.6747 573.087 13.3807 573.087 13.054C573.087 12.438 573.307 11.948 573.745 11.584C574.184 11.22 574.851 11.0147 575.747 10.968L577.371 10.87V10.59C577.371 10.142 577.236 9.834 576.965 9.666C576.695 9.498 576.359 9.414 575.957 9.414C575.64 9.414 575.341 9.47467 575.061 9.596C574.781 9.708 574.571 9.848 574.431 10.016L573.437 9.008C573.68 8.69067 574.03 8.42933 574.487 8.224C574.954 8.01867 575.523 7.916 576.195 7.916C577.185 7.916 577.922 8.14467 578.407 8.602C578.893 9.05933 579.135 9.68 579.135 10.464V15H577.469V13.894H577.385C577.208 14.286 576.951 14.5987 576.615 14.832C576.279 15.056 575.855 15.168 575.341 15.168ZM575.859 13.894C576.307 13.894 576.671 13.768 576.951 13.516C577.231 13.2547 577.371 12.8907 577.371 12.424V11.962L575.957 12.074C575.229 12.1207 574.865 12.4287 574.865 12.998C574.865 13.2873 574.959 13.5113 575.145 13.67C575.332 13.8193 575.57 13.894 575.859 13.894ZM580.865 8.084H582.531V9.246H582.615C582.755 8.84467 582.97 8.52267 583.259 8.28C583.558 8.03733 583.931 7.916 584.379 7.916C584.725 7.916 585.047 7.972 585.345 8.084L584.855 9.694C584.753 9.62867 584.631 9.582 584.491 9.554C584.351 9.526 584.216 9.512 584.085 9.512C583.656 9.512 583.306 9.66133 583.035 9.96C582.765 10.2493 582.629 10.66 582.629 11.192V15H580.865V8.084ZM588.69 15.168C588.252 15.168 587.85 15.0793 587.486 14.902C587.122 14.7247 586.81 14.482 586.548 14.174C586.287 13.8567 586.082 13.4787 585.932 13.04C585.783 12.592 585.708 12.102 585.708 11.57C585.708 11.0287 585.783 10.534 585.932 10.086C586.082 9.638 586.287 9.25533 586.548 8.938C586.81 8.61133 587.122 8.35933 587.486 8.182C587.85 8.00467 588.252 7.916 588.69 7.916C589.232 7.916 589.684 8.042 590.048 8.294C590.422 8.546 590.688 8.87267 590.846 9.274H590.93V4.85H592.694V15H591.028V13.698H590.944C590.776 14.1553 590.492 14.5147 590.09 14.776C589.698 15.0373 589.232 15.168 588.69 15.168ZM589.222 13.628C589.745 13.628 590.16 13.4413 590.468 13.068C590.776 12.6947 590.93 12.186 590.93 11.542C590.93 10.898 590.776 10.3893 590.468 10.016C590.16 9.64267 589.745 9.456 589.222 9.456C588.7 9.456 588.284 9.64267 587.976 10.016C587.668 10.3893 587.514 10.898 587.514 11.542C587.514 12.186 587.668 12.6947 587.976 13.068C588.284 13.4413 588.7 13.628 589.222 13.628ZM597.914 8.084H599.58V9.204H599.664C599.823 8.83067 600.07 8.52267 600.406 8.28C600.752 8.03733 601.162 7.916 601.638 7.916C602.516 7.916 603.146 8.14933 603.528 8.616C603.92 9.07333 604.116 9.76867 604.116 10.702V15H602.352V11.052C602.352 10.492 602.25 10.0767 602.044 9.806C601.848 9.53533 601.512 9.4 601.036 9.4C600.588 9.4 600.248 9.54933 600.014 9.848C599.79 10.1373 599.678 10.562 599.678 11.122V15H597.914V8.084ZM608.209 15.168C607.36 15.168 606.744 14.9393 606.361 14.482C605.978 14.0153 605.787 13.3153 605.787 12.382V8.084H607.551V12.032C607.551 12.592 607.649 13.0073 607.845 13.278C608.041 13.5487 608.363 13.684 608.811 13.684C609.24 13.684 609.562 13.5393 609.777 13.25C610.001 12.9513 610.113 12.522 610.113 11.962V8.084H611.877V15H610.211V13.88H610.127C609.968 14.2533 609.726 14.5613 609.399 14.804C609.072 15.0467 608.676 15.168 608.209 15.168ZM613.719 8.084H615.385V9.134H615.469C615.646 8.77 615.894 8.476 616.211 8.252C616.538 8.028 616.934 7.916 617.401 7.916C618.54 7.916 619.272 8.34533 619.599 9.204C619.776 8.812 620.052 8.49933 620.425 8.266C620.798 8.03267 621.237 7.916 621.741 7.916C622.581 7.916 623.197 8.14933 623.589 8.616C623.981 9.07333 624.177 9.76867 624.177 10.702V15H622.413V10.996C622.413 9.932 621.988 9.4 621.139 9.4C620.7 9.4 620.369 9.54467 620.145 9.834C619.93 10.1233 619.823 10.5387 619.823 11.08V15H618.059V10.996C618.059 10.464 617.956 10.0673 617.751 9.806C617.555 9.53533 617.233 9.4 616.785 9.4C616.365 9.4 616.043 9.54467 615.819 9.834C615.595 10.1233 615.483 10.5387 615.483 11.08V15H613.719V8.084ZM629.946 15.168C629.405 15.168 628.933 15.0373 628.532 14.776C628.14 14.5147 627.86 14.1553 627.692 13.698H627.608V15H625.928V4.85H627.692V9.274H627.776C627.935 8.87267 628.201 8.546 628.574 8.294C628.947 8.042 629.405 7.916 629.946 7.916C630.375 7.916 630.772 8.00467 631.136 8.182C631.509 8.35933 631.827 8.61133 632.088 8.938C632.359 9.25533 632.569 9.638 632.718 10.086C632.867 10.534 632.942 11.0287 632.942 11.57C632.942 12.102 632.867 12.592 632.718 13.04C632.569 13.4787 632.359 13.8567 632.088 14.174C631.827 14.482 631.509 14.7247 631.136 14.902C630.772 15.0793 630.375 15.168 629.946 15.168ZM629.4 13.628C629.923 13.628 630.343 13.4413 630.66 13.068C630.977 12.6947 631.136 12.186 631.136 11.542C631.136 10.898 630.977 10.3893 630.66 10.016C630.343 9.64267 629.923 9.456 629.4 9.456C628.887 9.456 628.471 9.64267 628.154 10.016C627.846 10.3893 627.692 10.898 627.692 11.542C627.692 12.186 627.846 12.6947 628.154 13.068C628.471 13.4413 628.887 13.628 629.4 13.628ZM637.318 15.168C636.74 15.168 636.236 15.0747 635.806 14.888C635.377 14.7013 635.013 14.4447 634.714 14.118C634.425 13.782 634.206 13.3947 634.056 12.956C633.916 12.5173 633.846 12.046 633.846 11.542C633.846 11.0287 633.916 10.5527 634.056 10.114C634.196 9.666 634.406 9.28333 634.686 8.966C634.966 8.63933 635.316 8.38267 635.736 8.196C636.156 8.00933 636.646 7.916 637.206 7.916C637.766 7.916 638.256 8.00467 638.676 8.182C639.096 8.35933 639.442 8.60667 639.712 8.924C639.983 9.24133 640.184 9.61933 640.314 10.058C640.454 10.4873 640.524 10.9587 640.524 11.472C640.524 11.5653 640.515 11.6727 640.496 11.794C640.487 11.9153 640.473 12.0133 640.454 12.088H635.638C635.666 12.34 635.732 12.5687 635.834 12.774C635.946 12.97 636.082 13.138 636.24 13.278C636.408 13.418 636.59 13.5253 636.786 13.6C636.992 13.6653 637.202 13.698 637.416 13.698C637.818 13.698 638.154 13.628 638.424 13.488C638.695 13.348 638.914 13.1707 639.082 12.956L640.076 13.992C639.815 14.3467 639.451 14.6313 638.984 14.846C638.518 15.0607 637.962 15.168 637.318 15.168ZM637.206 9.26C636.758 9.26 636.394 9.40467 636.114 9.694C635.834 9.98333 635.671 10.366 635.624 10.842H638.76C638.714 10.366 638.55 9.98333 638.27 9.694C638 9.40467 637.645 9.26 637.206 9.26ZM641.897 8.084H643.563V9.246H643.647C643.787 8.84467 644.001 8.52267 644.291 8.28C644.589 8.03733 644.963 7.916 645.411 7.916C645.756 7.916 646.078 7.972 646.377 8.084L645.887 9.694C645.784 9.62867 645.663 9.582 645.523 9.554C645.383 9.526 645.247 9.512 645.117 9.512C644.687 9.512 644.337 9.66133 644.067 9.96C643.796 10.2493 643.661 10.66 643.661 11.192V15H641.897V8.084Z" fill="#242E30"/>
</g>
<path d="M564.5 36C564.5 29.6487 569.649 24.5 576 24.5H776C782.351 24.5 787.5 29.6487 787.5 36V60C787.5 66.3513 782.351 71.5 776 71.5H576C569.649 71.5 564.5 66.3513 564.5 60V36Z" fill="white"/>
<path d="M564.5 36C564.5 29.6487 569.649 24.5 576 24.5H776C782.351 24.5 787.5 29.6487 787.5 36V60C787.5 66.3513 782.351 71.5 776 71.5H576C569.649 71.5 564.5 66.3513 564.5 60V36Z" stroke="#797876"/>
<g clip-path="url(#clip3_2288_5645)">
<path d="M564 36C564 29.3726 569.373 24 576 24H776C782.627 24 788 29.3726 788 36V60C788 66.6274 782.627 72 776 72H576C569.373 72 564 66.6274 564 60V36Z" fill="white" fill-opacity="0.01"/>
<path d="M581.52 52.88H584.496V45.04L581.648 46.352L581.232 45.456L584.736 43.6H585.856V52.88H588.528V54H581.52V52.88ZM591.162 52.272C591.162 51.8453 591.236 51.472 591.386 51.152C591.535 50.8213 591.738 50.5227 591.994 50.256C592.26 49.9787 592.57 49.7227 592.922 49.488C593.284 49.2533 593.674 49.0133 594.09 48.768C594.42 48.5653 594.714 48.3787 594.97 48.208C595.226 48.0267 595.439 47.84 595.61 47.648C595.78 47.456 595.908 47.2533 595.994 47.04C596.079 46.8267 596.122 46.5813 596.122 46.304C596.122 45.7387 595.94 45.312 595.578 45.024C595.226 44.7253 594.772 44.576 594.218 44.576C593.663 44.576 593.183 44.688 592.778 44.912C592.372 45.1253 592.031 45.4133 591.754 45.776L591.018 45.008C591.338 44.528 591.759 44.144 592.282 43.856C592.804 43.5573 593.434 43.408 594.17 43.408C594.714 43.408 595.194 43.4827 595.61 43.632C596.026 43.7707 596.372 43.968 596.65 44.224C596.938 44.4693 597.151 44.768 597.29 45.12C597.439 45.4613 597.514 45.8347 597.514 46.24C597.514 46.6987 597.434 47.104 597.274 47.456C597.114 47.808 596.9 48.128 596.634 48.416C596.367 48.704 596.058 48.9653 595.706 49.2C595.364 49.424 595.002 49.6427 594.618 49.856C594.276 50.048 593.972 50.2293 593.706 50.4C593.439 50.5707 593.215 50.752 593.034 50.944C592.863 51.136 592.73 51.3493 592.634 51.584C592.548 51.8187 592.506 52.096 592.506 52.416V52.848H597.77V54H591.162V52.272ZM603.604 54.192C602.836 54.192 602.19 54.0533 601.668 53.776C601.156 53.4987 600.74 53.152 600.42 52.736L601.236 51.936C601.481 52.2453 601.785 52.5013 602.148 52.704C602.521 52.9067 602.99 53.008 603.556 53.008C604.238 53.008 604.777 52.848 605.172 52.528C605.566 52.1973 605.764 51.712 605.764 51.072C605.764 50.4533 605.561 50 605.156 49.712C604.75 49.424 604.233 49.28 603.604 49.28H602.644V48.128H603.556C604.185 48.128 604.649 47.9627 604.948 47.632C605.257 47.3013 605.412 46.8693 605.412 46.336C605.412 46.0267 605.358 45.7653 605.252 45.552C605.156 45.328 605.017 45.1467 604.836 45.008C604.665 44.8587 604.462 44.752 604.228 44.688C604.004 44.624 603.769 44.592 603.524 44.592C603.033 44.592 602.606 44.688 602.244 44.88C601.881 45.072 601.577 45.312 601.332 45.6L600.596 44.8C600.905 44.416 601.305 44.0907 601.796 43.824C602.297 43.5467 602.9 43.408 603.604 43.408C604.03 43.408 604.436 43.472 604.82 43.6C605.214 43.7173 605.556 43.8933 605.844 44.128C606.142 44.352 606.377 44.64 606.548 44.992C606.718 45.3333 606.804 45.728 606.804 46.176C606.804 46.7733 606.649 47.28 606.34 47.696C606.03 48.1013 605.588 48.4053 605.012 48.608V48.704C605.3 48.7573 605.572 48.8533 605.828 48.992C606.094 49.12 606.324 49.2907 606.516 49.504C606.718 49.7067 606.873 49.952 606.98 50.24C607.097 50.528 607.156 50.848 607.156 51.2C607.156 51.6587 607.07 52.0747 606.9 52.448C606.74 52.8107 606.505 53.1253 606.196 53.392C605.886 53.648 605.513 53.8453 605.076 53.984C604.638 54.1227 604.148 54.192 603.604 54.192ZM614.541 51.856H609.693V50.784L614.285 43.6H615.805L611.197 50.704H614.541V47.568H615.853V50.704H617.293V51.856H615.853V54H614.541V51.856ZM626.683 54.192C625.957 54.192 625.36 54.0693 624.891 53.824C624.421 53.5787 624.011 53.264 623.659 52.88L624.475 52.064C624.731 52.3307 625.035 52.5547 625.387 52.736C625.739 52.9173 626.155 53.008 626.635 53.008C627.307 53.008 627.84 52.832 628.235 52.48C628.64 52.1173 628.843 51.6 628.843 50.928C628.843 50.2453 628.635 49.728 628.219 49.376C627.803 49.0133 627.227 48.832 626.491 48.832H624.859L624.347 48.32V43.6H629.659V44.752H625.627V47.696H626.747C627.323 47.696 627.829 47.776 628.267 47.936C628.704 48.096 629.067 48.32 629.355 48.608C629.643 48.8853 629.861 49.2213 630.011 49.616C630.16 50.0107 630.235 50.448 630.235 50.928C630.235 51.376 630.16 51.7973 630.011 52.192C629.872 52.5867 629.653 52.9333 629.355 53.232C629.067 53.52 628.699 53.7547 628.251 53.936C627.813 54.1067 627.291 54.192 626.683 54.192ZM636.789 54.192C635.594 54.192 634.682 53.7707 634.053 52.928C633.434 52.0747 633.125 50.8 633.125 49.104C633.125 47.2587 633.477 45.8507 634.181 44.88C634.885 43.8987 635.839 43.408 637.045 43.408C637.781 43.408 638.378 43.52 638.837 43.744C639.295 43.9573 639.679 44.2347 639.989 44.576L639.173 45.44C638.906 45.1627 638.607 44.9547 638.277 44.816C637.946 44.6667 637.551 44.592 637.093 44.592C636.271 44.592 635.615 44.96 635.125 45.696C634.645 46.432 634.405 47.5307 634.405 48.992H634.501C634.703 48.5547 635.018 48.1867 635.445 47.888C635.871 47.5787 636.415 47.424 637.077 47.424C637.471 47.424 637.861 47.4933 638.245 47.632C638.639 47.7707 638.986 47.9787 639.285 48.256C639.583 48.5333 639.823 48.8747 640.005 49.28C640.197 49.6853 640.293 50.1547 640.293 50.688C640.293 51.1787 640.213 51.6373 640.053 52.064C639.903 52.4907 639.679 52.864 639.381 53.184C639.082 53.4933 638.714 53.7387 638.277 53.92C637.839 54.1013 637.343 54.192 636.789 54.192ZM636.805 53.008C637.477 53.008 637.994 52.8 638.357 52.384C638.719 51.9573 638.901 51.4187 638.901 50.768C638.901 50.096 638.714 49.568 638.341 49.184C637.978 48.7893 637.466 48.592 636.805 48.592C636.143 48.592 635.626 48.7893 635.253 49.184C634.879 49.568 634.693 50.096 634.693 50.768C634.693 51.4187 634.874 51.9573 635.237 52.384C635.61 52.8 636.133 53.008 636.805 53.008ZM648.078 44.752H642.862V43.6H649.614V44.624L645.07 54H643.598L648.078 44.752ZM655.8 54.192C655.181 54.192 654.643 54.112 654.184 53.952C653.736 53.792 653.363 53.5787 653.064 53.312C652.765 53.0347 652.541 52.72 652.392 52.368C652.243 52.0053 652.168 51.6213 652.168 51.216C652.168 50.9173 652.216 50.6293 652.312 50.352C652.408 50.0747 652.547 49.824 652.728 49.6C652.909 49.3653 653.123 49.168 653.368 49.008C653.624 48.848 653.912 48.7413 654.232 48.688V48.592C653.965 48.5067 653.725 48.3787 653.512 48.208C653.309 48.0373 653.133 47.8453 652.984 47.632C652.845 47.4187 652.739 47.1947 652.664 46.96C652.589 46.7253 652.552 46.496 652.552 46.272C652.552 45.8987 652.616 45.5413 652.744 45.2C652.883 44.848 653.085 44.544 653.352 44.288C653.619 44.0213 653.955 43.808 654.36 43.648C654.765 43.488 655.245 43.408 655.8 43.408C656.344 43.408 656.819 43.488 657.224 43.648C657.629 43.808 657.965 44.0213 658.232 44.288C658.499 44.544 658.696 44.848 658.824 45.2C658.963 45.5413 659.032 45.8987 659.032 46.272C659.032 46.496 658.995 46.7253 658.92 46.96C658.845 47.1947 658.733 47.4187 658.584 47.632C658.445 47.8453 658.269 48.0373 658.056 48.208C657.853 48.3787 657.619 48.5067 657.352 48.592V48.688C657.672 48.7413 657.955 48.848 658.2 49.008C658.456 49.168 658.675 49.3653 658.856 49.6C659.037 49.824 659.176 50.0747 659.272 50.352C659.368 50.6293 659.416 50.9173 659.416 51.216C659.416 51.6213 659.341 52.0053 659.192 52.368C659.043 52.72 658.819 53.0347 658.52 53.312C658.221 53.5787 657.843 53.792 657.384 53.952C656.936 54.112 656.408 54.192 655.8 54.192ZM655.8 48.144C656.035 48.144 656.264 48.112 656.488 48.048C656.712 47.9733 656.909 47.8667 657.08 47.728C657.251 47.5787 657.384 47.3973 657.48 47.184C657.587 46.96 657.64 46.6933 657.64 46.384C657.64 46.064 657.587 45.792 657.48 45.568C657.384 45.344 657.251 45.1627 657.08 45.024C656.909 44.8747 656.712 44.768 656.488 44.704C656.264 44.6293 656.035 44.592 655.8 44.592C655.555 44.592 655.32 44.6293 655.096 44.704C654.872 44.768 654.675 44.8747 654.504 45.024C654.333 45.1627 654.195 45.344 654.088 45.568C653.992 45.792 653.944 46.064 653.944 46.384C653.944 46.6933 653.992 46.96 654.088 47.184C654.195 47.3973 654.333 47.5787 654.504 47.728C654.675 47.8667 654.872 47.9733 655.096 48.048C655.32 48.112 655.555 48.144 655.8 48.144ZM655.8 53.008C656.44 53.008 656.968 52.848 657.384 52.528C657.811 52.1973 658.024 51.7227 658.024 51.104C658.024 50.4747 657.811 50.0053 657.384 49.696C656.968 49.3867 656.44 49.232 655.8 49.232C655.16 49.232 654.627 49.3867 654.2 49.696C653.773 50.0053 653.56 50.4747 653.56 51.104C653.56 51.7227 653.773 52.1973 654.2 52.528C654.627 52.848 655.16 53.008 655.8 53.008ZM665.958 52.88H668.934V45.04L666.086 46.352L665.67 45.456L669.174 43.6H670.294V52.88H672.966V54H665.958V52.88ZM675.599 52.272C675.599 51.8453 675.674 51.472 675.823 51.152C675.973 50.8213 676.175 50.5227 676.431 50.256C676.698 49.9787 677.007 49.7227 677.359 49.488C677.722 49.2533 678.111 49.0133 678.527 48.768C678.858 48.5653 679.151 48.3787 679.407 48.208C679.663 48.0267 679.877 47.84 680.047 47.648C680.218 47.456 680.346 47.2533 680.431 47.04C680.517 46.8267 680.559 46.5813 680.559 46.304C680.559 45.7387 680.378 45.312 680.015 45.024C679.663 44.7253 679.21 44.576 678.655 44.576C678.101 44.576 677.621 44.688 677.215 44.912C676.81 45.1253 676.469 45.4133 676.191 45.776L675.455 45.008C675.775 44.528 676.197 44.144 676.719 43.856C677.242 43.5573 677.871 43.408 678.607 43.408C679.151 43.408 679.631 43.4827 680.047 43.632C680.463 43.7707 680.81 43.968 681.087 44.224C681.375 44.4693 681.589 44.768 681.727 45.12C681.877 45.4613 681.951 45.8347 681.951 46.24C681.951 46.6987 681.871 47.104 681.711 47.456C681.551 47.808 681.338 48.128 681.071 48.416C680.805 48.704 680.495 48.9653 680.143 49.2C679.802 49.424 679.439 49.6427 679.055 49.856C678.714 50.048 678.41 50.2293 678.143 50.4C677.877 50.5707 677.653 50.752 677.471 50.944C677.301 51.136 677.167 51.3493 677.071 51.584C676.986 51.8187 676.943 52.096 676.943 52.416V52.848H682.207V54H675.599V52.272ZM688.041 54.192C687.273 54.192 686.628 54.0533 686.105 53.776C685.593 53.4987 685.177 53.152 684.857 52.736L685.673 51.936C685.918 52.2453 686.222 52.5013 686.585 52.704C686.958 52.9067 687.428 53.008 687.993 53.008C688.676 53.008 689.214 52.848 689.609 52.528C690.004 52.1973 690.201 51.712 690.201 51.072C690.201 50.4533 689.998 50 689.593 49.712C689.188 49.424 688.67 49.28 688.041 49.28H687.081V48.128H687.993C688.622 48.128 689.086 47.9627 689.385 47.632C689.694 47.3013 689.849 46.8693 689.849 46.336C689.849 46.0267 689.796 45.7653 689.689 45.552C689.593 45.328 689.454 45.1467 689.273 45.008C689.102 44.8587 688.9 44.752 688.665 44.688C688.441 44.624 688.206 44.592 687.961 44.592C687.47 44.592 687.044 44.688 686.681 44.88C686.318 45.072 686.014 45.312 685.769 45.6L685.033 44.8C685.342 44.416 685.742 44.0907 686.233 43.824C686.734 43.5467 687.337 43.408 688.041 43.408C688.468 43.408 688.873 43.472 689.257 43.6C689.652 43.7173 689.993 43.8933 690.281 44.128C690.58 44.352 690.814 44.64 690.985 44.992C691.156 45.3333 691.241 45.728 691.241 46.176C691.241 46.7733 691.086 47.28 690.777 47.696C690.468 48.1013 690.025 48.4053 689.449 48.608V48.704C689.737 48.7573 690.009 48.8533 690.265 48.992C690.532 49.12 690.761 49.2907 690.953 49.504C691.156 49.7067 691.31 49.952 691.417 50.24C691.534 50.528 691.593 50.848 691.593 51.2C691.593 51.6587 691.508 52.0747 691.337 52.448C691.177 52.8107 690.942 53.1253 690.633 53.392C690.324 53.648 689.95 53.8453 689.513 53.984C689.076 54.1227 688.585 54.192 688.041 54.192ZM698.979 51.856H694.131V50.784L698.723 43.6H700.243L695.635 50.704H698.979V47.568H700.291V50.704H701.731V51.856H700.291V54H698.979V51.856ZM711.12 54.192C710.395 54.192 709.798 54.0693 709.328 53.824C708.859 53.5787 708.448 53.264 708.096 52.88L708.912 52.064C709.168 52.3307 709.472 52.5547 709.824 52.736C710.176 52.9173 710.592 53.008 711.072 53.008C711.744 53.008 712.278 52.832 712.672 52.48C713.078 52.1173 713.28 51.6 713.28 50.928C713.28 50.2453 713.072 49.728 712.656 49.376C712.24 49.0133 711.664 48.832 710.928 48.832H709.296L708.784 48.32V43.6H714.096V44.752H710.064V47.696H711.184C711.76 47.696 712.267 47.776 712.704 47.936C713.142 48.096 713.504 48.32 713.792 48.608C714.08 48.8853 714.299 49.2213 714.448 49.616C714.598 50.0107 714.672 50.448 714.672 50.928C714.672 51.376 714.598 51.7973 714.448 52.192C714.31 52.5867 714.091 52.9333 713.792 53.232C713.504 53.52 713.136 53.7547 712.688 53.936C712.251 54.1067 711.728 54.192 711.12 54.192ZM721.226 54.192C720.031 54.192 719.119 53.7707 718.49 52.928C717.871 52.0747 717.562 50.8 717.562 49.104C717.562 47.2587 717.914 45.8507 718.618 44.88C719.322 43.8987 720.277 43.408 721.482 43.408C722.218 43.408 722.815 43.52 723.274 43.744C723.733 43.9573 724.117 44.2347 724.426 44.576L723.61 45.44C723.343 45.1627 723.045 44.9547 722.714 44.816C722.383 44.6667 721.989 44.592 721.53 44.592C720.709 44.592 720.053 44.96 719.562 45.696C719.082 46.432 718.842 47.5307 718.842 48.992H718.938C719.141 48.5547 719.455 48.1867 719.882 47.888C720.309 47.5787 720.853 47.424 721.514 47.424C721.909 47.424 722.298 47.4933 722.682 47.632C723.077 47.7707 723.423 47.9787 723.722 48.256C724.021 48.5333 724.261 48.8747 724.442 49.28C724.634 49.6853 724.73 50.1547 724.73 50.688C724.73 51.1787 724.65 51.6373 724.49 52.064C724.341 52.4907 724.117 52.864 723.818 53.184C723.519 53.4933 723.151 53.7387 722.714 53.92C722.277 54.1013 721.781 54.192 721.226 54.192ZM721.242 53.008C721.914 53.008 722.431 52.8 722.794 52.384C723.157 51.9573 723.338 51.4187 723.338 50.768C723.338 50.096 723.151 49.568 722.778 49.184C722.415 48.7893 721.903 48.592 721.242 48.592C720.581 48.592 720.063 48.7893 719.69 49.184C719.317 49.568 719.13 50.096 719.13 50.768C719.13 51.4187 719.311 51.9573 719.674 52.384C720.047 52.8 720.57 53.008 721.242 53.008ZM732.516 44.752H727.3V43.6H734.052V44.624L729.508 54H728.036L732.516 44.752ZM740.238 54.192C739.619 54.192 739.08 54.112 738.622 53.952C738.174 53.792 737.8 53.5787 737.502 53.312C737.203 53.0347 736.979 52.72 736.83 52.368C736.68 52.0053 736.606 51.6213 736.606 51.216C736.606 50.9173 736.654 50.6293 736.75 50.352C736.846 50.0747 736.984 49.824 737.166 49.6C737.347 49.3653 737.56 49.168 737.806 49.008C738.062 48.848 738.35 48.7413 738.67 48.688V48.592C738.403 48.5067 738.163 48.3787 737.95 48.208C737.747 48.0373 737.571 47.8453 737.422 47.632C737.283 47.4187 737.176 47.1947 737.102 46.96C737.027 46.7253 736.99 46.496 736.99 46.272C736.99 45.8987 737.054 45.5413 737.182 45.2C737.32 44.848 737.523 44.544 737.789 44.288C738.056 44.0213 738.392 43.808 738.798 43.648C739.203 43.488 739.683 43.408 740.238 43.408C740.782 43.408 741.256 43.488 741.662 43.648C742.067 43.808 742.403 44.0213 742.67 44.288C742.936 44.544 743.134 44.848 743.262 45.2C743.4 45.5413 743.47 45.8987 743.47 46.272C743.47 46.496 743.432 46.7253 743.358 46.96C743.283 47.1947 743.171 47.4187 743.022 47.632C742.883 47.8453 742.707 48.0373 742.494 48.208C742.291 48.3787 742.056 48.5067 741.79 48.592V48.688C742.11 48.7413 742.392 48.848 742.638 49.008C742.894 49.168 743.112 49.3653 743.294 49.6C743.475 49.824 743.614 50.0747 743.71 50.352C743.806 50.6293 743.854 50.9173 743.854 51.216C743.854 51.6213 743.779 52.0053 743.63 52.368C743.48 52.72 743.256 53.0347 742.958 53.312C742.659 53.5787 742.28 53.792 741.822 53.952C741.374 54.112 740.846 54.192 740.238 54.192ZM740.238 48.144C740.472 48.144 740.702 48.112 740.926 48.048C741.15 47.9733 741.347 47.8667 741.518 47.728C741.688 47.5787 741.822 47.3973 741.918 47.184C742.024 46.96 742.078 46.6933 742.078 46.384C742.078 46.064 742.024 45.792 741.918 45.568C741.822 45.344 741.688 45.1627 741.518 45.024C741.347 44.8747 741.15 44.768 740.926 44.704C740.702 44.6293 740.472 44.592 740.238 44.592C739.992 44.592 739.758 44.6293 739.534 44.704C739.31 44.768 739.112 44.8747 738.942 45.024C738.771 45.1627 738.632 45.344 738.526 45.568C738.43 45.792 738.382 46.064 738.382 46.384C738.382 46.6933 738.43 46.96 738.526 47.184C738.632 47.3973 738.771 47.5787 738.942 47.728C739.112 47.8667 739.31 47.9733 739.534 48.048C739.758 48.112 739.992 48.144 740.238 48.144ZM740.238 53.008C740.878 53.008 741.406 52.848 741.822 52.528C742.248 52.1973 742.462 51.7227 742.462 51.104C742.462 50.4747 742.248 50.0053 741.822 49.696C741.406 49.3867 740.878 49.232 740.238 49.232C739.598 49.232 739.064 49.3867 738.638 49.696C738.211 50.0053 737.998 50.4747 737.998 51.104C737.998 51.7227 738.211 52.1973 738.638 52.528C739.064 52.848 739.598 53.008 740.238 53.008Z" fill="#242E30"/>
</g>
<path d="M548.707 48.7071C549.098 48.3166 549.098 47.6834 548.707 47.2929L542.343 40.9289C541.953 40.5384 541.319 40.5384 540.929 40.9289C540.538 41.3195 540.538 41.9526 540.929 42.3431L546.586 48L540.929 53.6569C540.538 54.0474 540.538 54.6805 540.929 55.0711C541.319 55.4616 541.953 55.4616 542.343 55.0711L548.707 48.7071ZM522 49H548V47H522V49Z" fill="#9E9C9A"/>
<g clip-path="url(#clip4_2288_5645)">
<path d="M5.026 15.168C4.298 15.168 3.65867 15.042 3.108 14.79C2.55733 14.5287 2.09533 14.1833 1.722 13.754C1.358 13.3153 1.078 12.8113 0.882 12.242C0.695333 11.6633 0.602 11.0567 0.602 10.422C0.602 9.78733 0.695333 9.18533 0.882 8.616C1.06867 8.04667 1.344 7.552 1.708 7.132C2.08133 6.70267 2.53867 6.362 3.08 6.11C3.62133 5.858 4.24667 5.732 4.956 5.732C5.656 5.732 6.272 5.858 6.804 6.11C7.34533 6.35267 7.80733 6.67933 8.19 7.09L6.986 8.21C6.74333 7.93 6.44467 7.71533 6.09 7.566C5.73533 7.40733 5.362 7.328 4.97 7.328C4.61533 7.328 4.284 7.40267 3.976 7.552C3.67733 7.692 3.42067 7.89733 3.206 8.168C2.99133 8.43867 2.82333 8.76533 2.702 9.148C2.58067 9.53067 2.52 9.96 2.52 10.436C2.52 10.9027 2.58533 11.3273 2.716 11.71C2.84667 12.0927 3.024 12.424 3.248 12.704C3.472 12.9747 3.738 13.1893 4.046 13.348C4.354 13.4973 4.68533 13.572 5.04 13.572C5.432 13.572 5.80533 13.4973 6.16 13.348C6.524 13.1893 6.82733 12.9653 7.07 12.676L8.26 13.796C7.88667 14.216 7.42467 14.552 6.874 14.804C6.33267 15.0467 5.71667 15.168 5.026 15.168ZM11.3413 15.168C11.0333 15.168 10.7393 15.1167 10.4593 15.014C10.1886 14.9207 9.95065 14.7853 9.74531 14.608C9.53998 14.4213 9.37665 14.1973 9.25531 13.936C9.14331 13.6747 9.08731 13.3807 9.08731 13.054C9.08731 12.438 9.30665 11.948 9.74531 11.584C10.184 11.22 10.8513 11.0147 11.7473 10.968L13.3713 10.87V10.59C13.3713 10.142 13.236 9.834 12.9653 9.666C12.6946 9.498 12.3586 9.414 11.9573 9.414C11.64 9.414 11.3413 9.47467 11.0613 9.596C10.7813 9.708 10.5713 9.848 10.4313 10.016L9.43731 9.008C9.67998 8.69067 10.03 8.42933 10.4873 8.224C10.954 8.01867 11.5233 7.916 12.1953 7.916C13.1846 7.916 13.922 8.14467 14.4073 8.602C14.8926 9.05933 15.1353 9.68 15.1353 10.464V15H13.4693V13.894H13.3853C13.208 14.286 12.9513 14.5987 12.6153 14.832C12.2793 15.056 11.8546 15.168 11.3413 15.168ZM11.8593 13.894C12.3073 13.894 12.6713 13.768 12.9513 13.516C13.2313 13.2547 13.3713 12.8907 13.3713 12.424V11.962L11.9573 12.074C11.2293 12.1207 10.8653 12.4287 10.8653 12.998C10.8653 13.2873 10.9586 13.5113 11.1453 13.67C11.332 13.8193 11.57 13.894 11.8593 13.894ZM16.8654 8.084H18.5314V9.246H18.6154C18.7554 8.84467 18.9701 8.52267 19.2594 8.28C19.5581 8.03733 19.9314 7.916 20.3794 7.916C20.7247 7.916 21.0467 7.972 21.3454 8.084L20.8554 9.694C20.7527 9.62867 20.6314 9.582 20.4914 9.554C20.3514 9.526 20.2161 9.512 20.0854 9.512C19.6561 9.512 19.3061 9.66133 19.0354 9.96C18.7647 10.2493 18.6294 10.66 18.6294 11.192V15H16.8654V8.084ZM24.6904 15.168C24.2518 15.168 23.8504 15.0793 23.4864 14.902C23.1224 14.7247 22.8098 14.482 22.5484 14.174C22.2871 13.8567 22.0818 13.4787 21.9324 13.04C21.7831 12.592 21.7084 12.102 21.7084 11.57C21.7084 11.0287 21.7831 10.534 21.9324 10.086C22.0818 9.638 22.2871 9.25533 22.5484 8.938C22.8098 8.61133 23.1224 8.35933 23.4864 8.182C23.8504 8.00467 24.2518 7.916 24.6904 7.916C25.2318 7.916 25.6844 8.042 26.0484 8.294C26.4218 8.546 26.6878 8.87267 26.8464 9.274H26.9304V4.85H28.6944V15H27.0284V13.698H26.9444C26.7764 14.1553 26.4918 14.5147 26.0904 14.776C25.6984 15.0373 25.2318 15.168 24.6904 15.168ZM25.2224 13.628C25.7451 13.628 26.1604 13.4413 26.4684 13.068C26.7764 12.6947 26.9304 12.186 26.9304 11.542C26.9304 10.898 26.7764 10.3893 26.4684 10.016C26.1604 9.64267 25.7451 9.456 25.2224 9.456C24.6998 9.456 24.2844 9.64267 23.9764 10.016C23.6684 10.3893 23.5144 10.898 23.5144 11.542C23.5144 12.186 23.6684 12.6947 23.9764 13.068C24.2844 13.4413 24.6998 13.628 25.2224 13.628ZM33.9142 8.084H35.5802V9.204H35.6642C35.8229 8.83067 36.0702 8.52267 36.4062 8.28C36.7516 8.03733 37.1622 7.916 37.6382 7.916C38.5156 7.916 39.1456 8.14933 39.5282 8.616C39.9202 9.07333 40.1162 9.76867 40.1162 10.702V15H38.3522V11.052C38.3522 10.492 38.2496 10.0767 38.0442 9.806C37.8482 9.53533 37.5122 9.4 37.0362 9.4C36.5882 9.4 36.2476 9.54933 36.0142 9.848C35.7902 10.1373 35.6782 10.562 35.6782 11.122V15H33.9142V8.084ZM44.2089 15.168C43.3596 15.168 42.7436 14.9393 42.3609 14.482C41.9783 14.0153 41.7869 13.3153 41.7869 12.382V8.084H43.5509V12.032C43.5509 12.592 43.6489 13.0073 43.8449 13.278C44.0409 13.5487 44.3629 13.684 44.8109 13.684C45.2403 13.684 45.5623 13.5393 45.7769 13.25C46.0009 12.9513 46.1129 12.522 46.1129 11.962V8.084H47.8769V15H46.2109V13.88H46.1269C45.9683 14.2533 45.7256 14.5613 45.3989 14.804C45.0723 15.0467 44.6756 15.168 44.2089 15.168ZM49.7189 8.084H51.3849V9.134H51.4689C51.6463 8.77 51.8936 8.476 52.2109 8.252C52.5376 8.028 52.9343 7.916 53.4009 7.916C54.5396 7.916 55.2723 8.34533 55.5989 9.204C55.7763 8.812 56.0516 8.49933 56.4249 8.266C56.7983 8.03267 57.2369 7.916 57.7409 7.916C58.5809 7.916 59.1969 8.14933 59.5889 8.616C59.9809 9.07333 60.1769 9.76867 60.1769 10.702V15H58.4129V10.996C58.4129 9.932 57.9883 9.4 57.1389 9.4C56.7003 9.4 56.3689 9.54467 56.1449 9.834C55.9303 10.1233 55.8229 10.5387 55.8229 11.08V15H54.0589V10.996C54.0589 10.464 53.9563 10.0673 53.7509 9.806C53.5549 9.53533 53.2329 9.4 52.7849 9.4C52.3649 9.4 52.0429 9.54467 51.8189 9.834C51.5949 10.1233 51.4829 10.5387 51.4829 11.08V15H49.7189V8.084ZM65.9459 15.168C65.4046 15.168 64.9332 15.0373 64.5319 14.776C64.1399 14.5147 63.8599 14.1553 63.6919 13.698H63.6079V15H61.9279V4.85H63.6919V9.274H63.7759C63.9346 8.87267 64.2006 8.546 64.5739 8.294C64.9472 8.042 65.4046 7.916 65.9459 7.916C66.3752 7.916 66.7719 8.00467 67.1359 8.182C67.5092 8.35933 67.8266 8.61133 68.0879 8.938C68.3586 9.25533 68.5686 9.638 68.7179 10.086C68.8672 10.534 68.9419 11.0287 68.9419 11.57C68.9419 12.102 68.8672 12.592 68.7179 13.04C68.5686 13.4787 68.3586 13.8567 68.0879 14.174C67.8266 14.482 67.5092 14.7247 67.1359 14.902C66.7719 15.0793 66.3752 15.168 65.9459 15.168ZM65.3999 13.628C65.9226 13.628 66.3426 13.4413 66.6599 13.068C66.9772 12.6947 67.1359 12.186 67.1359 11.542C67.1359 10.898 66.9772 10.3893 66.6599 10.016C66.3426 9.64267 65.9226 9.456 65.3999 9.456C64.8866 9.456 64.4712 9.64267 64.1539 10.016C63.8459 10.3893 63.6919 10.898 63.6919 11.542C63.6919 12.186 63.8459 12.6947 64.1539 13.068C64.4712 13.4413 64.8866 13.628 65.3999 13.628ZM73.3184 15.168C72.7398 15.168 72.2358 15.0747 71.8064 14.888C71.3771 14.7013 71.0131 14.4447 70.7144 14.118C70.4251 13.782 70.2058 13.3947 70.0564 12.956C69.9164 12.5173 69.8464 12.046 69.8464 11.542C69.8464 11.0287 69.9164 10.5527 70.0564 10.114C70.1964 9.666 70.4064 9.28333 70.6864 8.966C70.9664 8.63933 71.3164 8.38267 71.7364 8.196C72.1564 8.00933 72.6464 7.916 73.2064 7.916C73.7664 7.916 74.2564 8.00467 74.6764 8.182C75.0964 8.35933 75.4418 8.60667 75.7124 8.924C75.9831 9.24133 76.1838 9.61933 76.3144 10.058C76.4544 10.4873 76.5244 10.9587 76.5244 11.472C76.5244 11.5653 76.5151 11.6727 76.4964 11.794C76.4871 11.9153 76.4731 12.0133 76.4544 12.088H71.6384C71.6664 12.34 71.7318 12.5687 71.8344 12.774C71.9464 12.97 72.0818 13.138 72.2404 13.278C72.4084 13.418 72.5904 13.5253 72.7864 13.6C72.9918 13.6653 73.2018 13.698 73.4164 13.698C73.8178 13.698 74.1538 13.628 74.4244 13.488C74.6951 13.348 74.9144 13.1707 75.0824 12.956L76.0764 13.992C75.8151 14.3467 75.4511 14.6313 74.9844 14.846C74.5178 15.0607 73.9624 15.168 73.3184 15.168ZM73.2064 9.26C72.7584 9.26 72.3944 9.40467 72.1144 9.694C71.8344 9.98333 71.6711 10.366 71.6244 10.842H74.7604C74.7138 10.366 74.5504 9.98333 74.2704 9.694C73.9998 9.40467 73.6451 9.26 73.2064 9.26ZM77.8967 8.084H79.5627V9.246H79.6467C79.7867 8.84467 80.0013 8.52267 80.2907 8.28C80.5893 8.03733 80.9627 7.916 81.4107 7.916C81.756 7.916 82.078 7.972 82.3767 8.084L81.8867 9.694C81.784 9.62867 81.6627 9.582 81.5227 9.554C81.3827 9.526 81.2473 9.512 81.1167 9.512C80.6873 9.512 80.3373 9.66133 80.0667 9.96C79.796 10.2493 79.6607 10.66 79.6607 11.192V15H77.8967V8.084Z" fill="#242E30"/>
</g>
<path d="M0.5 36C0.5 29.6487 5.64873 24.5 12 24.5H212C218.351 24.5 223.5 29.6487 223.5 36V60C223.5 66.3513 218.351 71.5 212 71.5H12C5.64872 71.5 0.5 66.3513 0.5 60V36Z" fill="white"/>
<path d="M0.5 36C0.5 29.6487 5.64873 24.5 12 24.5H212C218.351 24.5 223.5 29.6487 223.5 36V60C223.5 66.3513 218.351 71.5 212 71.5H12C5.64872 71.5 0.5 66.3513 0.5 60V36Z" stroke="#797876"/>
<g clip-path="url(#clip5_2288_5645)">
<path d="M0 36C0 29.3726 5.37258 24 12 24H212C218.627 24 224 29.3726 224 36V60C224 66.6274 218.627 72 212 72H12C5.37258 72 0 66.6274 0 60V36Z" fill="white" fill-opacity="0.01"/>
</g>
<path d="M266.707 48.7071C267.098 48.3166 267.098 47.6834 266.707 47.2929L260.343 40.9289C259.953 40.5384 259.319 40.5384 258.929 40.9289C258.538 41.3195 258.538 41.9526 258.929 42.3431L264.586 48L258.929 53.6569C258.538 54.0474 258.538 54.6805 258.929 55.0711C259.319 55.4616 259.953 55.4616 260.343 55.0711L266.707 48.7071ZM240 49H266V47H240V49Z" fill="#9E9C9A"/>
<defs>
<clipPath id="clip0_2288_5645">
<rect width="83" height="20" fill="white" transform="translate(282)"/>
</clipPath>
<clipPath id="clip1_2288_5645">
<path d="M282 36C282 29.3726 287.373 24 294 24H494C500.627 24 506 29.3726 506 36V60C506 66.6274 500.627 72 494 72H294C287.373 72 282 66.6274 282 60V36Z" fill="white"/>
</clipPath>
<clipPath id="clip2_2288_5645">
<rect width="83" height="20" fill="white" transform="translate(564)"/>
</clipPath>
<clipPath id="clip3_2288_5645">
<path d="M564 36C564 29.3726 569.373 24 576 24H776C782.627 24 788 29.3726 788 36V60C788 66.6274 782.627 72 776 72H576C569.373 72 564 66.6274 564 60V36Z" fill="white"/>
</clipPath>
<clipPath id="clip4_2288_5645">
<rect width="83" height="20" fill="white"/>
</clipPath>
<clipPath id="clip5_2288_5645">
<path d="M0 36C0 29.3726 5.37258 24 12 24H212C218.627 24 224 29.3726 224 36V60C224 66.6274 218.627 72 212 72H12C5.37258 72 0 66.6274 0 60V36Z" fill="white"/>
</clipPath>
</defs>
</svg>
