<svg width="256" height="48" viewBox="0 0 256 48" fill="none" xmlns="http://www.w3.org/2000/svg">
<path d="M0.5 12C0.5 5.64873 5.64873 0.5 12 0.5H244C250.351 0.5 255.5 5.64873 255.5 12V36C255.5 42.3513 250.351 47.5 244 47.5H12C5.64873 47.5 0.5 42.3513 0.5 36V12Z" fill="white"/>
<path d="M0.5 12C0.5 5.64873 5.64873 0.5 12 0.5H244C250.351 0.5 255.5 5.64873 255.5 12V36C255.5 42.3513 250.351 47.5 244 47.5H12C5.64873 47.5 0.5 42.3513 0.5 36V12Z" stroke="#797876"/>
<g clip-path="url(#clip0_3905_4676)">
<path d="M0 12C0 5.37258 5.37258 0 12 0H244C250.627 0 256 5.37258 256 12V36C256 42.6274 250.627 48 244 48H12C5.37258 48 0 42.6274 0 36V12Z" fill="white" fill-opacity="0.01"/>
<path d="M17.472 19.6H23.04V20.752H18.832V24.128H22.896V25.28H18.832V28.848H23.152V30H17.472V19.6ZM25.4694 22.096H26.6854V23.344H26.7814C26.9734 22.928 27.2454 22.5867 27.5974 22.32C27.9494 22.0427 28.3974 21.904 28.9414 21.904C29.848 21.904 30.5627 22.144 31.0854 22.624C31.6187 23.104 31.8854 23.8773 31.8854 24.944V30H30.6054V25.184C30.6054 24.3733 30.44 23.8027 30.1094 23.472C29.7894 23.1307 29.3147 22.96 28.6854 22.96C28.0774 22.96 27.6027 23.168 27.2614 23.584C26.92 24 26.7494 24.608 26.7494 25.408V30H25.4694V22.096ZM36.8858 30.192C36.1711 30.192 35.6484 29.9787 35.3178 29.552C34.9871 29.1253 34.8218 28.5387 34.8218 27.792V23.136H33.4138V22.096H34.8218V19.952H36.0858V22.096H38.3738V23.136H36.0858V27.68C36.0858 28.192 36.1818 28.5493 36.3738 28.752C36.5764 28.9547 36.8324 29.056 37.1418 29.056C37.3551 29.056 37.5471 29.0187 37.7178 28.944C37.8884 28.8587 38.0484 28.7467 38.1978 28.608L38.7738 29.504C38.2831 29.9627 37.6538 30.192 36.8858 30.192ZM43.4793 30.192C42.9139 30.192 42.3966 30.096 41.9273 29.904C41.4686 29.712 41.0739 29.44 40.7433 29.088C40.4233 28.7253 40.1726 28.288 39.9913 27.776C39.8206 27.264 39.7353 26.688 39.7353 26.048C39.7353 25.376 39.8259 24.784 40.0073 24.272C40.1886 23.7493 40.4393 23.3173 40.7593 22.976C41.0793 22.624 41.4579 22.3573 41.8953 22.176C42.3433 21.9947 42.8339 21.904 43.3673 21.904C43.9006 21.904 44.3913 21.9893 44.8393 22.16C45.2873 22.3307 45.6713 22.5867 45.9913 22.928C46.3113 23.2587 46.5619 23.68 46.7433 24.192C46.9246 24.6933 47.0153 25.28 47.0153 25.952C47.0153 26.0373 47.0099 26.1227 46.9993 26.208C46.9993 26.2933 46.9939 26.3627 46.9833 26.416H41.0153C41.0153 26.7893 41.0793 27.1413 41.2073 27.472C41.3459 27.792 41.5273 28.0747 41.7513 28.32C41.9859 28.5547 42.2526 28.7413 42.5513 28.88C42.8606 29.0187 43.1913 29.088 43.5433 29.088C44.1193 29.088 44.5886 28.976 44.9513 28.752C45.3246 28.528 45.6339 28.256 45.8793 27.936L46.6473 28.72C46.3059 29.168 45.8793 29.5253 45.3673 29.792C44.8659 30.0587 44.2366 30.192 43.4793 30.192ZM43.3673 22.96C42.9939 22.96 42.6633 23.0293 42.3753 23.168C42.0873 23.3067 41.8473 23.488 41.6553 23.712C41.4633 23.936 41.3139 24.192 41.2073 24.48C41.1113 24.768 41.0579 25.056 41.0473 25.344H45.6713C45.6606 25.056 45.6019 24.768 45.4953 24.48C45.3993 24.192 45.2553 23.936 45.0633 23.712C44.8713 23.488 44.6313 23.3067 44.3433 23.168C44.0659 23.0293 43.7406 22.96 43.3673 22.96ZM49.0788 22.096H50.2948V23.376H50.3908C50.5614 22.96 50.8068 22.6133 51.1268 22.336C51.4468 22.048 51.8468 21.904 52.3268 21.904C52.7321 21.904 53.0894 21.984 53.3988 22.144L52.9668 23.296C52.8281 23.2213 52.6788 23.1733 52.5188 23.152C52.3694 23.12 52.2148 23.104 52.0548 23.104C51.5321 23.104 51.1161 23.3173 50.8068 23.744C50.5081 24.16 50.3588 24.6933 50.3588 25.344V30H49.0788V22.096ZM59.3873 33.024C59.2699 33.024 59.1473 33.0133 59.0193 32.992C58.9019 32.9813 58.8006 32.9653 58.7153 32.944V31.84C58.7686 31.8507 58.8539 31.8613 58.9713 31.872C59.0993 31.8827 59.2166 31.888 59.3233 31.888C59.5366 31.888 59.7179 31.872 59.8673 31.84C60.0166 31.808 60.1499 31.7333 60.2673 31.616C60.3953 31.5093 60.5179 31.344 60.6353 31.12C60.7526 30.9067 60.8806 30.6187 61.0193 30.256L57.8513 22.096H59.2433L61.6273 28.72H61.7233L64.1233 22.096H65.4193L62.3153 30.08C62.1126 30.6027 61.9153 31.0453 61.7233 31.408C61.5419 31.7813 61.3393 32.0853 61.1153 32.32C60.8913 32.5653 60.6406 32.7413 60.3633 32.848C60.0966 32.9653 59.7713 33.024 59.3873 33.024ZM70.0581 30.192C69.4288 30.192 68.8741 30.0853 68.3941 29.872C67.9248 29.648 67.5301 29.3493 67.2101 28.976C66.9008 28.6027 66.6661 28.1653 66.5061 27.664C66.3568 27.1627 66.2821 26.624 66.2821 26.048C66.2821 25.472 66.3568 24.9333 66.5061 24.432C66.6661 23.9307 66.9008 23.4933 67.2101 23.12C67.5301 22.7467 67.9248 22.4533 68.3941 22.24C68.8741 22.016 69.4288 21.904 70.0581 21.904C70.6875 21.904 71.2315 22.016 71.6901 22.24C72.1595 22.4533 72.5488 22.7467 72.8581 23.12C73.1675 23.4933 73.3968 23.9307 73.5461 24.432C73.7061 24.9333 73.7861 25.472 73.7861 26.048C73.7861 26.624 73.7061 27.1627 73.5461 27.664C73.3968 28.1653 73.1675 28.6027 72.8581 28.976C72.5488 29.3493 72.1595 29.648 71.6901 29.872C71.2315 30.0853 70.6875 30.192 70.0581 30.192ZM67.5941 26.048C67.5941 26.5067 67.6421 26.928 67.7381 27.312C67.8448 27.6853 67.9995 28.0107 68.2021 28.288C68.4048 28.5547 68.6608 28.7627 68.9701 28.912C69.2795 29.0613 69.6421 29.136 70.0581 29.136C70.4635 29.136 70.8155 29.0613 71.1141 28.912C71.4235 28.7627 71.6741 28.5547 71.8661 28.288C72.0688 28.0107 72.2181 27.6853 72.3141 27.312C72.4208 26.928 72.4741 26.5067 72.4741 26.048C72.4741 25.5893 72.4208 25.1733 72.3141 24.8C72.2181 24.416 72.0688 24.0907 71.8661 23.824C71.6741 23.5467 71.4235 23.3333 71.1141 23.184C70.8155 23.0347 70.4635 22.96 70.0581 22.96C69.6421 22.96 69.2795 23.0347 68.9701 23.184C68.6608 23.3333 68.4048 23.5467 68.2021 23.824C67.9995 24.0907 67.8448 24.416 67.7381 24.8C67.6421 25.1733 67.5941 25.5893 67.5941 26.048ZM78.5644 30.192C78.127 30.192 77.7324 30.1333 77.3804 30.016C77.0284 29.8987 76.7244 29.7173 76.4684 29.472C76.223 29.2267 76.031 28.912 75.8924 28.528C75.7537 28.144 75.6844 27.6853 75.6844 27.152V22.096H76.9644V26.912C76.9644 27.7227 77.119 28.2987 77.4284 28.64C77.7484 28.9707 78.2124 29.136 78.8204 29.136C79.3964 29.136 79.8497 28.928 80.1804 28.512C80.5217 28.096 80.6924 27.488 80.6924 26.688V22.096H81.9724V30H80.7564V28.752H80.6604C80.4684 29.168 80.2017 29.5147 79.8604 29.792C79.5297 30.0587 79.0977 30.192 78.5644 30.192ZM84.6881 22.096H85.9041V23.376H86.0001C86.1708 22.96 86.4161 22.6133 86.7361 22.336C87.0561 22.048 87.4561 21.904 87.9361 21.904C88.3415 21.904 88.6988 21.984 89.0081 22.144L88.5761 23.296C88.4375 23.2213 88.2881 23.1733 88.1281 23.152C87.9788 23.12 87.8241 23.104 87.6641 23.104C87.1415 23.104 86.7255 23.3173 86.4161 23.744C86.1175 24.16 85.9681 24.6933 85.9681 25.344V30H84.6881V22.096ZM94.5006 22.096H95.7166V23.712H95.8126C95.9086 23.4453 96.042 23.2 96.2126 22.976C96.394 22.752 96.602 22.56 96.8366 22.4C97.082 22.24 97.3486 22.1173 97.6366 22.032C97.9353 21.9467 98.2446 21.904 98.5646 21.904C99.0873 21.904 99.562 22.0107 99.9886 22.224C100.426 22.4267 100.799 22.7147 101.109 23.088C101.418 23.4507 101.653 23.888 101.813 24.4C101.983 24.912 102.069 25.4667 102.069 26.064C102.069 26.6613 101.983 27.216 101.813 27.728C101.653 28.2293 101.418 28.6667 101.109 29.04C100.799 29.4027 100.426 29.6853 99.9886 29.888C99.562 30.0907 99.0873 30.192 98.5646 30.192C97.914 30.192 97.354 30.0373 96.8846 29.728C96.4153 29.4187 96.0793 29.024 95.8766 28.544H95.7806V32.96H94.5006V22.096ZM98.2446 29.04C98.5966 29.04 98.922 28.9813 99.2206 28.864C99.53 28.736 99.7966 28.5493 100.021 28.304C100.255 28.048 100.437 27.7333 100.565 27.36C100.693 26.9867 100.757 26.5493 100.757 26.048C100.757 25.5467 100.693 25.1093 100.565 24.736C100.437 24.3627 100.255 24.0533 100.021 23.808C99.7966 23.552 99.53 23.3653 99.2206 23.248C98.922 23.12 98.5966 23.056 98.2446 23.056C97.9033 23.056 97.5833 23.12 97.2846 23.248C96.986 23.3653 96.7246 23.552 96.5006 23.808C96.2766 24.0533 96.1006 24.3627 95.9726 24.736C95.8446 25.1093 95.7806 25.5467 95.7806 26.048C95.7806 26.5493 95.8446 26.9867 95.9726 27.36C96.1006 27.7333 96.2766 28.048 96.5006 28.304C96.7246 28.5493 96.986 28.736 97.2846 28.864C97.5833 28.9813 97.9033 29.04 98.2446 29.04ZM107.246 30.192C106.616 30.192 106.062 30.0853 105.582 29.872C105.112 29.648 104.718 29.3493 104.398 28.976C104.088 28.6027 103.854 28.1653 103.694 27.664C103.544 27.1627 103.47 26.624 103.47 26.048C103.47 25.472 103.544 24.9333 103.694 24.432C103.854 23.9307 104.088 23.4933 104.398 23.12C104.718 22.7467 105.112 22.4533 105.582 22.24C106.062 22.016 106.616 21.904 107.246 21.904C107.875 21.904 108.419 22.016 108.878 22.24C109.347 22.4533 109.736 22.7467 110.046 23.12C110.355 23.4933 110.584 23.9307 110.734 24.432C110.894 24.9333 110.974 25.472 110.974 26.048C110.974 26.624 110.894 27.1627 110.734 27.664C110.584 28.1653 110.355 28.6027 110.046 28.976C109.736 29.3493 109.347 29.648 108.878 29.872C108.419 30.0853 107.875 30.192 107.246 30.192ZM104.782 26.048C104.782 26.5067 104.83 26.928 104.926 27.312C105.032 27.6853 105.187 28.0107 105.39 28.288C105.592 28.5547 105.848 28.7627 106.158 28.912C106.467 29.0613 106.83 29.136 107.246 29.136C107.651 29.136 108.003 29.0613 108.302 28.912C108.611 28.7627 108.862 28.5547 109.054 28.288C109.256 28.0107 109.406 27.6853 109.502 27.312C109.608 26.928 109.662 26.5067 109.662 26.048C109.662 25.5893 109.608 25.1733 109.502 24.8C109.406 24.416 109.256 24.0907 109.054 23.824C108.862 23.5467 108.611 23.3333 108.302 23.184C108.003 23.0347 107.651 22.96 107.246 22.96C106.83 22.96 106.467 23.0347 106.158 23.184C105.848 23.3333 105.592 23.5467 105.39 23.824C105.187 24.0907 105.032 24.416 104.926 24.8C104.83 25.1733 104.782 25.5893 104.782 26.048ZM116.84 27.952C116.84 27.7173 116.787 27.5253 116.68 27.376C116.573 27.216 116.424 27.0827 116.232 26.976C116.051 26.8693 115.843 26.7787 115.608 26.704C115.373 26.6293 115.128 26.5547 114.872 26.48C114.573 26.3947 114.285 26.2933 114.008 26.176C113.741 26.0587 113.501 25.9147 113.288 25.744C113.075 25.5627 112.904 25.3493 112.776 25.104C112.648 24.8587 112.584 24.56 112.584 24.208C112.584 23.8347 112.653 23.504 112.792 23.216C112.931 22.928 113.123 22.688 113.368 22.496C113.613 22.304 113.901 22.16 114.232 22.064C114.563 21.9573 114.92 21.904 115.304 21.904C115.88 21.904 116.408 22.0107 116.888 22.224C117.368 22.4267 117.763 22.7467 118.072 23.184L117.24 23.952C117.005 23.6747 116.728 23.4453 116.408 23.264C116.099 23.0827 115.731 22.992 115.304 22.992C115.123 22.992 114.941 23.0133 114.76 23.056C114.589 23.0987 114.435 23.168 114.296 23.264C114.157 23.3493 114.045 23.4613 113.96 23.6C113.875 23.7387 113.832 23.904 113.832 24.096C113.832 24.3307 113.885 24.528 113.992 24.688C114.099 24.8373 114.243 24.9653 114.424 25.072C114.616 25.1787 114.829 25.2693 115.064 25.344C115.299 25.4187 115.544 25.4933 115.8 25.568C116.099 25.6533 116.381 25.7547 116.648 25.872C116.925 25.9893 117.171 26.1387 117.384 26.32C117.597 26.4907 117.768 26.6987 117.896 26.944C118.024 27.1893 118.088 27.488 118.088 27.84C118.088 28.256 118.008 28.6133 117.848 28.912C117.699 29.2 117.491 29.44 117.224 29.632C116.957 29.824 116.648 29.9627 116.296 30.048C115.944 30.144 115.571 30.192 115.176 30.192C114.483 30.192 113.891 30.0747 113.4 29.84C112.92 29.6053 112.541 29.3013 112.264 28.928L113.112 28.128C113.357 28.416 113.64 28.6507 113.96 28.832C114.291 29.0133 114.701 29.104 115.192 29.104C115.416 29.104 115.624 29.0827 115.816 29.04C116.019 28.9973 116.195 28.928 116.344 28.832C116.493 28.736 116.611 28.6187 116.696 28.48C116.792 28.3307 116.84 28.1547 116.84 27.952ZM122.73 30.192C122.015 30.192 121.492 29.9787 121.162 29.552C120.831 29.1253 120.666 28.5387 120.666 27.792V23.136H119.258V22.096H120.666V19.952H121.93V22.096H124.218V23.136H121.93V27.68C121.93 28.192 122.026 28.5493 122.218 28.752C122.42 28.9547 122.676 29.056 122.986 29.056C123.199 29.056 123.391 29.0187 123.562 28.944C123.732 28.8587 123.892 28.7467 124.042 28.608L124.618 29.504C124.127 29.9627 123.498 30.192 122.73 30.192ZM129.243 30.192C128.603 30.192 128.048 30.0747 127.579 29.84C127.12 29.6053 126.742 29.296 126.443 28.912C126.144 28.528 125.926 28.0907 125.787 27.6C125.648 27.0987 125.579 26.5813 125.579 26.048C125.579 25.5147 125.648 25.0027 125.787 24.512C125.926 24.0107 126.139 23.568 126.427 23.184C126.726 22.8 127.104 22.4907 127.563 22.256C128.022 22.0213 128.571 21.904 129.211 21.904C129.883 21.904 130.432 22.016 130.859 22.24C131.286 22.464 131.648 22.7627 131.947 23.136L131.147 23.888C130.891 23.6107 130.619 23.3973 130.331 23.248C130.054 23.088 129.691 23.008 129.243 23.008C128.539 23.008 127.968 23.28 127.531 23.824C127.104 24.3573 126.891 25.0987 126.891 26.048C126.891 26.5173 126.95 26.9387 127.067 27.312C127.184 27.6853 127.35 28.0053 127.563 28.272C127.776 28.5387 128.027 28.7413 128.315 28.88C128.603 29.0187 128.923 29.088 129.275 29.088C129.702 29.088 130.07 29.0133 130.379 28.864C130.688 28.704 130.976 28.4747 131.243 28.176L132.011 28.944C131.702 29.3173 131.323 29.6213 130.875 29.856C130.427 30.08 129.883 30.192 129.243 30.192ZM136.839 30.192C136.21 30.192 135.655 30.0853 135.175 29.872C134.706 29.648 134.311 29.3493 133.991 28.976C133.682 28.6027 133.447 28.1653 133.287 27.664C133.138 27.1627 133.063 26.624 133.063 26.048C133.063 25.472 133.138 24.9333 133.287 24.432C133.447 23.9307 133.682 23.4933 133.991 23.12C134.311 22.7467 134.706 22.4533 135.175 22.24C135.655 22.016 136.21 21.904 136.839 21.904C137.469 21.904 138.013 22.016 138.471 22.24C138.941 22.4533 139.33 22.7467 139.639 23.12C139.949 23.4933 140.178 23.9307 140.327 24.432C140.487 24.9333 140.567 25.472 140.567 26.048C140.567 26.624 140.487 27.1627 140.327 27.664C140.178 28.1653 139.949 28.6027 139.639 28.976C139.33 29.3493 138.941 29.648 138.471 29.872C138.013 30.0853 137.469 30.192 136.839 30.192ZM134.375 26.048C134.375 26.5067 134.423 26.928 134.519 27.312C134.626 27.6853 134.781 28.0107 134.983 28.288C135.186 28.5547 135.442 28.7627 135.751 28.912C136.061 29.0613 136.423 29.136 136.839 29.136C137.245 29.136 137.597 29.0613 137.895 28.912C138.205 28.7627 138.455 28.5547 138.647 28.288C138.85 28.0107 138.999 27.6853 139.095 27.312C139.202 26.928 139.255 26.5067 139.255 26.048C139.255 25.5893 139.202 25.1733 139.095 24.8C138.999 24.416 138.85 24.0907 138.647 23.824C138.455 23.5467 138.205 23.3333 137.895 23.184C137.597 23.0347 137.245 22.96 136.839 22.96C136.423 22.96 136.061 23.0347 135.751 23.184C135.442 23.3333 135.186 23.5467 134.983 23.824C134.781 24.0907 134.626 24.416 134.519 24.8C134.423 25.1733 134.375 25.5893 134.375 26.048ZM145.474 30.192C144.94 30.192 144.46 30.0907 144.034 29.888C143.607 29.6747 143.239 29.3867 142.93 29.024C142.62 28.6507 142.38 28.208 142.21 27.696C142.05 27.184 141.97 26.6293 141.97 26.032C141.97 25.4347 142.05 24.8853 142.21 24.384C142.38 23.872 142.62 23.4347 142.93 23.072C143.239 22.6987 143.607 22.4107 144.034 22.208C144.46 22.0053 144.94 21.904 145.474 21.904C146.124 21.904 146.684 22.0587 147.154 22.368C147.623 22.6773 147.959 23.072 148.162 23.552H148.258V18.4H149.538V30H148.322V28.384H148.226C148.13 28.6613 147.991 28.912 147.81 29.136C147.639 29.3493 147.431 29.536 147.186 29.696C146.951 29.856 146.684 29.9787 146.386 30.064C146.098 30.1493 145.794 30.192 145.474 30.192ZM145.794 29.04C146.135 29.04 146.455 28.9813 146.754 28.864C147.052 28.736 147.314 28.5493 147.538 28.304C147.762 28.048 147.938 27.7333 148.066 27.36C148.194 26.9867 148.258 26.5493 148.258 26.048C148.258 25.5467 148.194 25.1093 148.066 24.736C147.938 24.3627 147.762 24.0533 147.538 23.808C147.314 23.552 147.052 23.3653 146.754 23.248C146.455 23.12 146.135 23.056 145.794 23.056C145.442 23.056 145.111 23.12 144.802 23.248C144.503 23.3653 144.236 23.552 144.002 23.808C143.778 24.0533 143.602 24.3627 143.474 24.736C143.346 25.1093 143.282 25.5467 143.282 26.048C143.282 26.5493 143.346 26.9867 143.474 27.36C143.602 27.7333 143.778 28.048 144.002 28.304C144.236 28.5493 144.503 28.736 144.802 28.864C145.111 28.9813 145.442 29.04 145.794 29.04ZM155.339 30.192C154.773 30.192 154.256 30.096 153.787 29.904C153.328 29.712 152.933 29.44 152.603 29.088C152.283 28.7253 152.032 28.288 151.851 27.776C151.68 27.264 151.595 26.688 151.595 26.048C151.595 25.376 151.685 24.784 151.867 24.272C152.048 23.7493 152.299 23.3173 152.619 22.976C152.939 22.624 153.317 22.3573 153.755 22.176C154.203 21.9947 154.693 21.904 155.227 21.904C155.76 21.904 156.251 21.9893 156.699 22.16C157.147 22.3307 157.531 22.5867 157.851 22.928C158.171 23.2587 158.421 23.68 158.603 24.192C158.784 24.6933 158.875 25.28 158.875 25.952C158.875 26.0373 158.869 26.1227 158.859 26.208C158.859 26.2933 158.853 26.3627 158.843 26.416H152.875C152.875 26.7893 152.939 27.1413 153.067 27.472C153.205 27.792 153.387 28.0747 153.611 28.32C153.845 28.5547 154.112 28.7413 154.411 28.88C154.72 29.0187 155.051 29.088 155.403 29.088C155.979 29.088 156.448 28.976 156.811 28.752C157.184 28.528 157.493 28.256 157.739 27.936L158.507 28.72C158.165 29.168 157.739 29.5253 157.227 29.792C156.725 30.0587 156.096 30.192 155.339 30.192ZM155.227 22.96C154.853 22.96 154.523 23.0293 154.235 23.168C153.947 23.3067 153.707 23.488 153.515 23.712C153.323 23.936 153.173 24.192 153.067 24.48C152.971 24.768 152.917 25.056 152.907 25.344H157.531C157.52 25.056 157.461 24.768 157.355 24.48C157.259 24.192 157.115 23.936 156.923 23.712C156.731 23.488 156.491 23.3067 156.203 23.168C155.925 23.0293 155.6 22.96 155.227 22.96Z" fill="#3C4C4F"/>
</g>
<defs>
<clipPath id="clip0_3905_4676">
<path d="M0 12C0 5.37258 5.37258 0 12 0H244C250.627 0 256 5.37258 256 12V36C256 42.6274 250.627 48 244 48H12C5.37258 48 0 42.6274 0 36V12Z" fill="white"/>
</clipPath>
</defs>
</svg>
