<svg width="256" height="72" viewBox="0 0 256 72" fill="none" xmlns="http://www.w3.org/2000/svg">
<g clip-path="url(#clip0_3905_4688)">
<path d="M1.022 5.9H4.536C4.99333 5.9 5.404 5.97 5.768 6.11C6.14133 6.25 6.45867 6.45067 6.72 6.712C6.98133 6.97333 7.182 7.29067 7.322 7.664C7.47133 8.03733 7.546 8.45267 7.546 8.91C7.546 9.36733 7.47133 9.78267 7.322 10.156C7.182 10.5293 6.98133 10.8467 6.72 11.108C6.45867 11.3693 6.14133 11.57 5.768 11.71C5.39467 11.85 4.984 11.92 4.536 11.92H2.898V15H1.022V5.9ZM4.312 10.464C4.75067 10.464 5.082 10.324 5.306 10.044C5.53933 9.75467 5.656 9.37667 5.656 8.91C5.656 8.434 5.53933 8.056 5.306 7.776C5.082 7.496 4.75067 7.356 4.312 7.356H2.898V10.464H4.312ZM8.96306 4.85H10.7271V9.022H10.8111C10.9791 8.70467 11.2217 8.44333 11.5391 8.238C11.8564 8.02333 12.2391 7.916 12.6871 7.916C13.5644 7.916 14.1944 8.14933 14.5771 8.616C14.9691 9.07333 15.1651 9.76867 15.1651 10.702V15H13.4011V11.052C13.4011 10.492 13.2984 10.0767 13.0931 9.806C12.8971 9.53533 12.5611 9.4 12.0851 9.4C11.6371 9.4 11.2964 9.54933 11.0631 9.848C10.8391 10.1373 10.7271 10.562 10.7271 11.122V15H8.96306V4.85ZM19.9164 15.168C19.3378 15.168 18.8291 15.0747 18.3904 14.888C17.9611 14.692 17.5971 14.4307 17.2984 14.104C17.0091 13.7773 16.7898 13.3947 16.6404 12.956C16.5004 12.508 16.4304 12.0367 16.4304 11.542C16.4304 11.0473 16.5004 10.5807 16.6404 10.142C16.7898 9.70333 17.0091 9.32067 17.2984 8.994C17.5971 8.658 17.9611 8.39667 18.3904 8.21C18.8291 8.014 19.3378 7.916 19.9164 7.916C20.4951 7.916 20.9991 8.014 21.4284 8.21C21.8671 8.39667 22.2264 8.658 22.5064 8.994C22.7958 9.32067 23.0104 9.70333 23.1504 10.142C23.2998 10.5807 23.3744 11.0473 23.3744 11.542C23.3744 12.0367 23.2998 12.508 23.1504 12.956C23.0104 13.3947 22.7958 13.7773 22.5064 14.104C22.2264 14.4307 21.8671 14.692 21.4284 14.888C20.9991 15.0747 20.4951 15.168 19.9164 15.168ZM18.2364 11.542C18.2364 12.2233 18.3811 12.76 18.6704 13.152C18.9691 13.544 19.3844 13.74 19.9164 13.74C20.4391 13.74 20.8451 13.544 21.1344 13.152C21.4331 12.76 21.5824 12.2233 21.5824 11.542C21.5824 10.8607 21.4331 10.324 21.1344 9.932C20.8451 9.54 20.4391 9.344 19.9164 9.344C19.3844 9.344 18.9691 9.54 18.6704 9.932C18.3811 10.324 18.2364 10.8607 18.2364 11.542ZM24.7404 8.084H26.4064V9.204H26.4904C26.6491 8.83067 26.8964 8.52267 27.2324 8.28C27.5777 8.03733 27.9884 7.916 28.4644 7.916C29.3417 7.916 29.9717 8.14933 30.3544 8.616C30.7464 9.07333 30.9424 9.76867 30.9424 10.702V15H29.1784V11.052C29.1784 10.492 29.0757 10.0767 28.8704 9.806C28.6744 9.53533 28.3384 9.4 27.8624 9.4C27.4144 9.4 27.0737 9.54933 26.8404 9.848C26.6164 10.1373 26.5044 10.562 26.5044 11.122V15H24.7404V8.084ZM35.7071 15.168C35.1284 15.168 34.6244 15.0747 34.1951 14.888C33.7658 14.7013 33.4018 14.4447 33.1031 14.118C32.8138 13.782 32.5944 13.3947 32.4451 12.956C32.3051 12.5173 32.2351 12.046 32.2351 11.542C32.2351 11.0287 32.3051 10.5527 32.4451 10.114C32.5851 9.666 32.7951 9.28333 33.0751 8.966C33.3551 8.63933 33.7051 8.38267 34.1251 8.196C34.5451 8.00933 35.0351 7.916 35.5951 7.916C36.1551 7.916 36.6451 8.00467 37.0651 8.182C37.4851 8.35933 37.8304 8.60667 38.1011 8.924C38.3718 9.24133 38.5724 9.61933 38.7031 10.058C38.8431 10.4873 38.9131 10.9587 38.9131 11.472C38.9131 11.5653 38.9038 11.6727 38.8851 11.794C38.8758 11.9153 38.8618 12.0133 38.8431 12.088H34.0271C34.0551 12.34 34.1204 12.5687 34.2231 12.774C34.3351 12.97 34.4704 13.138 34.6291 13.278C34.7971 13.418 34.9791 13.5253 35.1751 13.6C35.3804 13.6653 35.5904 13.698 35.8051 13.698C36.2064 13.698 36.5424 13.628 36.8131 13.488C37.0838 13.348 37.3031 13.1707 37.4711 12.956L38.4651 13.992C38.2038 14.3467 37.8398 14.6313 37.3731 14.846C36.9064 15.0607 36.3511 15.168 35.7071 15.168ZM35.5951 9.26C35.1471 9.26 34.7831 9.40467 34.5031 9.694C34.2231 9.98333 34.0598 10.366 34.0131 10.842H37.1491C37.1024 10.366 36.9391 9.98333 36.6591 9.694C36.3884 9.40467 36.0338 9.26 35.5951 9.26ZM43.6486 8.084H45.3146V9.204H45.3986C45.5573 8.83067 45.8046 8.52267 46.1406 8.28C46.4859 8.03733 46.8966 7.916 47.3726 7.916C48.2499 7.916 48.8799 8.14933 49.2626 8.616C49.6546 9.07333 49.8506 9.76867 49.8506 10.702V15H48.0866V11.052C48.0866 10.492 47.9839 10.0767 47.7786 9.806C47.5826 9.53533 47.2466 9.4 46.7706 9.4C46.3226 9.4 45.9819 9.54933 45.7486 9.848C45.5246 10.1373 45.4126 10.562 45.4126 11.122V15H43.6486V8.084ZM53.9433 15.168C53.094 15.168 52.478 14.9393 52.0953 14.482C51.7126 14.0153 51.5213 13.3153 51.5213 12.382V8.084H53.2853V12.032C53.2853 12.592 53.3833 13.0073 53.5793 13.278C53.7753 13.5487 54.0973 13.684 54.5453 13.684C54.9746 13.684 55.2966 13.5393 55.5113 13.25C55.7353 12.9513 55.8473 12.522 55.8473 11.962V8.084H57.6113V15H55.9453V13.88H55.8613C55.7026 14.2533 55.46 14.5613 55.1333 14.804C54.8066 15.0467 54.41 15.168 53.9433 15.168ZM61.7773 15.168C60.928 15.168 60.312 14.9393 59.9293 14.482C59.5466 14.0153 59.3553 13.3153 59.3553 12.382V8.084H61.1193V12.032C61.1193 12.592 61.2173 13.0073 61.4133 13.278C61.6093 13.5487 61.9313 13.684 62.3793 13.684C62.8086 13.684 63.1306 13.5393 63.3453 13.25C63.5693 12.9513 63.6813 12.522 63.6813 11.962V8.084H65.4453V15H63.7793V13.88H63.6953C63.5366 14.2533 63.294 14.5613 62.9673 14.804C62.6406 15.0467 62.244 15.168 61.7773 15.168ZM67.2873 8.084H68.9533V9.134H69.0373C69.2146 8.77 69.4619 8.476 69.7793 8.252C70.1059 8.028 70.5026 7.916 70.9693 7.916C72.1079 7.916 72.8406 8.34533 73.1673 9.204C73.3446 8.812 73.6199 8.49933 73.9933 8.266C74.3666 8.03267 74.8053 7.916 75.3093 7.916C76.1493 7.916 76.7653 8.14933 77.1573 8.616C77.5493 9.07333 77.7453 9.76867 77.7453 10.702V15H75.9813V10.996C75.9813 9.932 75.5566 9.4 74.7073 9.4C74.2686 9.4 73.9373 9.54467 73.7133 9.834C73.4986 10.1233 73.3913 10.5387 73.3913 11.08V15H71.6273V10.996C71.6273 10.464 71.5246 10.0673 71.3193 9.806C71.1233 9.53533 70.8013 9.4 70.3533 9.4C69.9333 9.4 69.6113 9.54467 69.3873 9.834C69.1633 10.1233 69.0513 10.5387 69.0513 11.08V15H67.2873V8.084ZM83.5143 15.168C82.9729 15.168 82.5016 15.0373 82.1003 14.776C81.7083 14.5147 81.4283 14.1553 81.2603 13.698H81.1763V15H79.4963V4.85H81.2603V9.274H81.3443C81.5029 8.87267 81.7689 8.546 82.1423 8.294C82.5156 8.042 82.9729 7.916 83.5143 7.916C83.9436 7.916 84.3403 8.00467 84.7043 8.182C85.0776 8.35933 85.3949 8.61133 85.6563 8.938C85.9269 9.25533 86.1369 9.638 86.2863 10.086C86.4356 10.534 86.5103 11.0287 86.5103 11.57C86.5103 12.102 86.4356 12.592 86.2863 13.04C86.1369 13.4787 85.9269 13.8567 85.6563 14.174C85.3949 14.482 85.0776 14.7247 84.7043 14.902C84.3403 15.0793 83.9436 15.168 83.5143 15.168ZM82.9683 13.628C83.4909 13.628 83.9109 13.4413 84.2283 13.068C84.5456 12.6947 84.7043 12.186 84.7043 11.542C84.7043 10.898 84.5456 10.3893 84.2283 10.016C83.9109 9.64267 83.4909 9.456 82.9683 9.456C82.4549 9.456 82.0396 9.64267 81.7223 10.016C81.4143 10.3893 81.2603 10.898 81.2603 11.542C81.2603 12.186 81.4143 12.6947 81.7223 13.068C82.0396 13.4413 82.4549 13.628 82.9683 13.628ZM90.8868 15.168C90.3081 15.168 89.8041 15.0747 89.3748 14.888C88.9455 14.7013 88.5815 14.4447 88.2828 14.118C87.9935 13.782 87.7741 13.3947 87.6248 12.956C87.4848 12.5173 87.4148 12.046 87.4148 11.542C87.4148 11.0287 87.4848 10.5527 87.6248 10.114C87.7648 9.666 87.9748 9.28333 88.2548 8.966C88.5348 8.63933 88.8848 8.38267 89.3048 8.196C89.7248 8.00933 90.2148 7.916 90.7748 7.916C91.3348 7.916 91.8248 8.00467 92.2448 8.182C92.6648 8.35933 93.0101 8.60667 93.2808 8.924C93.5515 9.24133 93.7521 9.61933 93.8828 10.058C94.0228 10.4873 94.0928 10.9587 94.0928 11.472C94.0928 11.5653 94.0835 11.6727 94.0648 11.794C94.0555 11.9153 94.0415 12.0133 94.0228 12.088H89.2068C89.2348 12.34 89.3001 12.5687 89.4028 12.774C89.5148 12.97 89.6501 13.138 89.8088 13.278C89.9768 13.418 90.1588 13.5253 90.3548 13.6C90.5601 13.6653 90.7701 13.698 90.9848 13.698C91.3861 13.698 91.7221 13.628 91.9928 13.488C92.2635 13.348 92.4828 13.1707 92.6508 12.956L93.6448 13.992C93.3835 14.3467 93.0195 14.6313 92.5528 14.846C92.0861 15.0607 91.5308 15.168 90.8868 15.168ZM90.7748 9.26C90.3268 9.26 89.9628 9.40467 89.6828 9.694C89.4028 9.98333 89.2395 10.366 89.1928 10.842H92.3288C92.2821 10.366 92.1188 9.98333 91.8388 9.694C91.5681 9.40467 91.2135 9.26 90.7748 9.26ZM95.465 8.084H97.131V9.246H97.215C97.355 8.84467 97.5697 8.52267 97.859 8.28C98.1577 8.03733 98.531 7.916 98.979 7.916C99.3243 7.916 99.6463 7.972 99.945 8.084L99.455 9.694C99.3523 9.62867 99.231 9.582 99.091 9.554C98.951 9.526 98.8157 9.512 98.685 9.512C98.2557 9.512 97.9057 9.66133 97.635 9.96C97.3643 10.2493 97.229 10.66 97.229 11.192V15H95.465V8.084Z" fill="#242E30"/>
</g>
<path d="M114.597 15.168C113.887 15.168 113.262 15.042 112.721 14.79C112.189 14.538 111.741 14.1973 111.377 13.768C111.013 13.3387 110.737 12.8393 110.551 12.27C110.373 11.6913 110.285 11.0753 110.285 10.422C110.285 9.76867 110.373 9.15733 110.551 8.588C110.737 8.01867 111.013 7.524 111.377 7.104C111.741 6.67467 112.189 6.33867 112.721 6.096C113.262 5.85333 113.887 5.732 114.597 5.732C115.297 5.732 115.913 5.85333 116.445 6.096C116.986 6.33867 117.439 6.67467 117.803 7.104C118.167 7.524 118.437 8.01867 118.615 8.588C118.801 9.15733 118.895 9.76867 118.895 10.422C118.895 11.0753 118.801 11.6913 118.615 12.27C118.437 12.8393 118.167 13.3387 117.803 13.768C117.439 14.1973 116.986 14.538 116.445 14.79C115.913 15.042 115.297 15.168 114.597 15.168ZM114.597 14.146C115.045 14.146 115.455 14.062 115.829 13.894C116.211 13.726 116.538 13.4833 116.809 13.166C117.079 12.8487 117.289 12.4613 117.439 12.004C117.597 11.5373 117.677 11.01 117.677 10.422C117.677 9.834 117.597 9.31133 117.439 8.854C117.289 8.39667 117.079 8.014 116.809 7.706C116.538 7.38867 116.211 7.15067 115.829 6.992C115.455 6.83333 115.045 6.754 114.597 6.754C114.149 6.754 113.733 6.83333 113.351 6.992C112.968 7.15067 112.641 7.38867 112.371 7.706C112.1 8.014 111.885 8.39667 111.727 8.854C111.577 9.31133 111.503 9.834 111.503 10.422C111.503 11.01 111.577 11.5373 111.727 12.004C111.885 12.4613 112.1 12.8487 112.371 13.166C112.641 13.4833 112.968 13.726 113.351 13.894C113.733 14.062 114.149 14.146 114.597 14.146ZM120.809 8.084H121.873V9.498H121.957C122.041 9.26467 122.158 9.05 122.307 8.854C122.466 8.658 122.648 8.49 122.853 8.35C123.068 8.21 123.301 8.10267 123.553 8.028C123.814 7.95333 124.085 7.916 124.365 7.916C124.822 7.916 125.238 8.00933 125.611 8.196C125.994 8.37333 126.32 8.62533 126.591 8.952C126.862 9.26933 127.067 9.652 127.207 10.1C127.356 10.548 127.431 11.0333 127.431 11.556C127.431 12.0787 127.356 12.564 127.207 13.012C127.067 13.4507 126.862 13.8333 126.591 14.16C126.32 14.4773 125.994 14.7247 125.611 14.902C125.238 15.0793 124.822 15.168 124.365 15.168C123.796 15.168 123.306 15.0327 122.895 14.762C122.484 14.4913 122.19 14.146 122.013 13.726H121.929V17.59H120.809V8.084ZM124.085 14.16C124.393 14.16 124.678 14.1087 124.939 14.006C125.21 13.894 125.443 13.7307 125.639 13.516C125.844 13.292 126.003 13.0167 126.115 12.69C126.227 12.3633 126.283 11.9807 126.283 11.542C126.283 11.1033 126.227 10.7207 126.115 10.394C126.003 10.0673 125.844 9.79667 125.639 9.582C125.443 9.358 125.21 9.19467 124.939 9.092C124.678 8.98 124.393 8.924 124.085 8.924C123.786 8.924 123.506 8.98 123.245 9.092C122.984 9.19467 122.755 9.358 122.559 9.582C122.363 9.79667 122.209 10.0673 122.097 10.394C121.985 10.7207 121.929 11.1033 121.929 11.542C121.929 11.9807 121.985 12.3633 122.097 12.69C122.209 13.0167 122.363 13.292 122.559 13.516C122.755 13.7307 122.984 13.894 123.245 14.006C123.506 14.1087 123.786 14.16 124.085 14.16ZM131.359 15.168C130.734 15.168 130.276 14.9813 129.987 14.608C129.698 14.2347 129.553 13.7213 129.553 13.068V8.994H128.321V8.084H129.553V6.208H130.659V8.084H132.661V8.994H130.659V12.97C130.659 13.418 130.743 13.7307 130.911 13.908C131.088 14.0853 131.312 14.174 131.583 14.174C131.77 14.174 131.938 14.1413 132.087 14.076C132.236 14.0013 132.376 13.9033 132.507 13.782L133.011 14.566C132.582 14.9673 132.031 15.168 131.359 15.168ZM135.838 6.25C135.838 6.446 135.768 6.614 135.628 6.754C135.497 6.894 135.32 6.964 135.096 6.964C134.862 6.964 134.68 6.894 134.55 6.754C134.419 6.614 134.354 6.446 134.354 6.25C134.354 6.06333 134.419 5.9 134.55 5.76C134.68 5.61067 134.862 5.536 135.096 5.536C135.32 5.536 135.497 5.61067 135.628 5.76C135.768 5.9 135.838 6.06333 135.838 6.25ZM134.536 8.084H135.656V15H134.536V8.084ZM140.766 15.168C140.215 15.168 139.73 15.0747 139.31 14.888C138.899 14.692 138.554 14.4307 138.274 14.104C138.003 13.7773 137.798 13.3947 137.658 12.956C137.527 12.5173 137.462 12.046 137.462 11.542C137.462 11.038 137.527 10.5667 137.658 10.128C137.798 9.68933 138.003 9.30667 138.274 8.98C138.554 8.65333 138.899 8.39667 139.31 8.21C139.73 8.014 140.215 7.916 140.766 7.916C141.316 7.916 141.792 8.014 142.194 8.21C142.604 8.39667 142.945 8.65333 143.216 8.98C143.486 9.30667 143.687 9.68933 143.818 10.128C143.958 10.5667 144.028 11.038 144.028 11.542C144.028 12.046 143.958 12.5173 143.818 12.956C143.687 13.3947 143.486 13.7773 143.216 14.104C142.945 14.4307 142.604 14.692 142.194 14.888C141.792 15.0747 141.316 15.168 140.766 15.168ZM138.61 11.542C138.61 11.9433 138.652 12.312 138.736 12.648C138.829 12.9747 138.964 13.2593 139.142 13.502C139.319 13.7353 139.543 13.9173 139.814 14.048C140.084 14.1787 140.402 14.244 140.766 14.244C141.12 14.244 141.428 14.1787 141.69 14.048C141.96 13.9173 142.18 13.7353 142.348 13.502C142.525 13.2593 142.656 12.9747 142.74 12.648C142.833 12.312 142.88 11.9433 142.88 11.542C142.88 11.1407 142.833 10.7767 142.74 10.45C142.656 10.114 142.525 9.82933 142.348 9.596C142.18 9.35333 141.96 9.16667 141.69 9.036C141.428 8.90533 141.12 8.84 140.766 8.84C140.402 8.84 140.084 8.90533 139.814 9.036C139.543 9.16667 139.319 9.35333 139.142 9.596C138.964 9.82933 138.829 10.114 138.736 10.45C138.652 10.7767 138.61 11.1407 138.61 11.542ZM145.829 8.084H146.893V9.176H146.977C147.145 8.812 147.383 8.51333 147.691 8.28C147.999 8.03733 148.391 7.916 148.867 7.916C149.66 7.916 150.285 8.126 150.743 8.546C151.209 8.966 151.443 9.64267 151.443 10.576V15H150.323V10.786C150.323 10.0767 150.178 9.57733 149.889 9.288C149.609 8.98933 149.193 8.84 148.643 8.84C148.111 8.84 147.695 9.022 147.397 9.386C147.098 9.75 146.949 10.282 146.949 10.982V15H145.829V8.084ZM155.216 15.168C154.899 15.168 154.605 15.1167 154.334 15.014C154.073 14.9113 153.844 14.7667 153.648 14.58C153.452 14.3933 153.298 14.174 153.186 13.922C153.083 13.6607 153.032 13.376 153.032 13.068C153.032 12.4707 153.247 11.99 153.676 11.626C154.105 11.262 154.717 11.0567 155.51 11.01L157.33 10.898V10.408C157.33 9.876 157.199 9.49333 156.938 9.26C156.686 9.01733 156.322 8.896 155.846 8.896C155.445 8.896 155.099 8.97067 154.81 9.12C154.521 9.26933 154.297 9.43267 154.138 9.61L153.466 8.938C153.709 8.63933 154.035 8.39667 154.446 8.21C154.866 8.014 155.342 7.916 155.874 7.916C156.35 7.916 156.751 7.98133 157.078 8.112C157.405 8.23333 157.666 8.40133 157.862 8.616C158.067 8.83067 158.212 9.08267 158.296 9.372C158.389 9.66133 158.436 9.96933 158.436 10.296V15H157.386V13.824H157.302C157.115 14.244 156.854 14.5753 156.518 14.818C156.182 15.0513 155.748 15.168 155.216 15.168ZM155.384 14.216C155.963 14.216 156.429 14.048 156.784 13.712C157.148 13.3667 157.33 12.9093 157.33 12.34V11.738L155.566 11.864C154.633 11.9387 154.166 12.3307 154.166 13.04C154.166 13.3947 154.278 13.6793 154.502 13.894C154.735 14.1087 155.029 14.216 155.384 14.216ZM160.69 4.85H161.81V15H160.69V4.85Z" fill="#3C4C4F"/>
<path d="M0.5 36C0.5 29.6487 5.64873 24.5 12 24.5H244C250.351 24.5 255.5 29.6487 255.5 36V60C255.5 66.3513 250.351 71.5 244 71.5H12C5.64873 71.5 0.5 66.3513 0.5 60V36Z" fill="white"/>
<path d="M0.5 36C0.5 29.6487 5.64873 24.5 12 24.5H244C250.351 24.5 255.5 29.6487 255.5 36V60C255.5 66.3513 250.351 71.5 244 71.5H12C5.64873 71.5 0.5 66.3513 0.5 60V36Z" stroke="#797876"/>
<g clip-path="url(#clip1_3905_4688)">
<path d="M0 36C0 29.3726 5.37258 24 12 24H244C250.627 24 256 29.3726 256 36V60C256 66.6274 250.627 72 244 72H12C5.37258 72 0 66.6274 0 60V36Z" fill="white" fill-opacity="0.01"/>
<path d="M20.16 49.936H17.088V48.848H20.16V45.632H21.44V48.848H24.512V49.936H21.44V53.28H20.16V49.936ZM31.3538 51.856H26.5058V50.784L31.0978 43.6H32.6178L28.0098 50.704H31.3538V47.568H32.6658V50.704H34.1058V51.856H32.6658V54H31.3538V51.856ZM39.5555 54.192C38.8195 54.192 38.2222 54.0853 37.7635 53.872C37.3048 53.648 36.9208 53.3653 36.6115 53.024L37.4115 52.176C37.6782 52.4533 37.9768 52.6613 38.3075 52.8C38.6488 52.9387 39.0488 53.008 39.5075 53.008C40.3288 53.008 40.9795 52.64 41.4595 51.904C41.9502 51.1573 42.1955 50.0587 42.1955 48.608H42.0995C41.8968 49.0453 41.5822 49.4187 41.1555 49.728C40.7288 50.0267 40.1848 50.176 39.5235 50.176C39.1182 50.176 38.7235 50.1067 38.3395 49.968C37.9555 49.8293 37.6142 49.6213 37.3155 49.344C37.0168 49.0667 36.7715 48.7253 36.5795 48.32C36.3982 47.9147 36.3075 47.4453 36.3075 46.912C36.3075 46.4213 36.3822 45.9627 36.5315 45.536C36.6915 45.1093 36.9208 44.7413 37.2195 44.432C37.5182 44.112 37.8862 43.8613 38.3235 43.68C38.7608 43.4987 39.2568 43.408 39.8115 43.408C41.0062 43.408 41.9128 43.8347 42.5315 44.688C43.1608 45.5307 43.4755 46.8 43.4755 48.496C43.4755 50.3413 43.1235 51.7547 42.4195 52.736C41.7155 53.7067 40.7608 54.192 39.5555 54.192ZM39.7955 49.008C40.4568 49.008 40.9742 48.816 41.3475 48.432C41.7208 48.0373 41.9075 47.504 41.9075 46.832C41.9075 46.1813 41.7208 45.648 41.3475 45.232C40.9848 44.8053 40.4675 44.592 39.7955 44.592C39.1235 44.592 38.6062 44.8053 38.2435 45.232C37.8808 45.648 37.6995 46.1813 37.6995 46.832C37.6995 47.504 37.8808 48.0373 38.2435 48.432C38.6168 48.816 39.1342 49.008 39.7955 49.008Z" fill="#242E30"/>
<path d="M62.52 52.88H65.496V45.04L62.648 46.352L62.232 45.456L65.736 43.6H66.856V52.88H69.528V54H62.52V52.88ZM77.2658 44.752H72.0498V43.6H78.8018V44.624L74.2578 54H72.7858L77.2658 44.752ZM86.8595 44.752H81.6435V43.6H88.3955V44.624L83.8515 54H82.3795L86.8595 44.752ZM94.2453 54.192C93.5199 54.192 92.9226 54.0693 92.4533 53.824C91.9839 53.5787 91.5733 53.264 91.2213 52.88L92.0373 52.064C92.2933 52.3307 92.5973 52.5547 92.9493 52.736C93.3013 52.9173 93.7173 53.008 94.1973 53.008C94.8693 53.008 95.4026 52.832 95.7973 52.48C96.2026 52.1173 96.4053 51.6 96.4053 50.928C96.4053 50.2453 96.1973 49.728 95.7813 49.376C95.3653 49.0133 94.7893 48.832 94.0533 48.832H92.4213L91.9093 48.32V43.6H97.2213V44.752H93.1893V47.696H94.3093C94.8853 47.696 95.3919 47.776 95.8293 47.936C96.2666 48.096 96.6293 48.32 96.9173 48.608C97.2053 48.8853 97.4239 49.2213 97.5733 49.616C97.7226 50.0107 97.7973 50.448 97.7973 50.928C97.7973 51.376 97.7226 51.7973 97.5733 52.192C97.4346 52.5867 97.2159 52.9333 96.9173 53.232C96.6293 53.52 96.2613 53.7547 95.8133 53.936C95.3759 54.1067 94.8533 54.192 94.2453 54.192ZM103.743 54.192C103.007 54.192 102.41 54.0853 101.951 53.872C101.492 53.648 101.108 53.3653 100.799 53.024L101.599 52.176C101.866 52.4533 102.164 52.6613 102.495 52.8C102.836 52.9387 103.236 53.008 103.695 53.008C104.516 53.008 105.167 52.64 105.647 51.904C106.138 51.1573 106.383 50.0587 106.383 48.608H106.287C106.084 49.0453 105.77 49.4187 105.343 49.728C104.916 50.0267 104.372 50.176 103.711 50.176C103.306 50.176 102.911 50.1067 102.527 49.968C102.143 49.8293 101.802 49.6213 101.503 49.344C101.204 49.0667 100.959 48.7253 100.767 48.32C100.586 47.9147 100.495 47.4453 100.495 46.912C100.495 46.4213 100.57 45.9627 100.719 45.536C100.879 45.1093 101.108 44.7413 101.407 44.432C101.706 44.112 102.074 43.8613 102.511 43.68C102.948 43.4987 103.444 43.408 103.999 43.408C105.194 43.408 106.1 43.8347 106.719 44.688C107.348 45.5307 107.663 46.8 107.663 48.496C107.663 50.3413 107.311 51.7547 106.607 52.736C105.903 53.7067 104.948 54.192 103.743 54.192ZM103.983 49.008C104.644 49.008 105.162 48.816 105.535 48.432C105.908 48.0373 106.095 47.504 106.095 46.832C106.095 46.1813 105.908 45.648 105.535 45.232C105.172 44.8053 104.655 44.592 103.983 44.592C103.311 44.592 102.794 44.8053 102.431 45.232C102.068 45.648 101.887 46.1813 101.887 46.832C101.887 47.504 102.068 48.0373 102.431 48.432C102.804 48.816 103.322 49.008 103.983 49.008ZM113.337 54.192C112.601 54.192 112.003 54.0853 111.545 53.872C111.086 53.648 110.702 53.3653 110.393 53.024L111.193 52.176C111.459 52.4533 111.758 52.6613 112.089 52.8C112.43 52.9387 112.83 53.008 113.289 53.008C114.11 53.008 114.761 52.64 115.241 51.904C115.731 51.1573 115.977 50.0587 115.977 48.608H115.881C115.678 49.0453 115.363 49.4187 114.937 49.728C114.51 50.0267 113.966 50.176 113.305 50.176C112.899 50.176 112.505 50.1067 112.121 49.968C111.737 49.8293 111.395 49.6213 111.097 49.344C110.798 49.0667 110.553 48.7253 110.361 48.32C110.179 47.9147 110.089 47.4453 110.089 46.912C110.089 46.4213 110.163 45.9627 110.313 45.536C110.473 45.1093 110.702 44.7413 111.001 44.432C111.299 44.112 111.667 43.8613 112.105 43.68C112.542 43.4987 113.038 43.408 113.593 43.408C114.787 43.408 115.694 43.8347 116.313 44.688C116.942 45.5307 117.257 46.8 117.257 48.496C117.257 50.3413 116.905 51.7547 116.201 52.736C115.497 53.7067 114.542 54.192 113.337 54.192ZM113.577 49.008C114.238 49.008 114.755 48.816 115.129 48.432C115.502 48.0373 115.689 47.504 115.689 46.832C115.689 46.1813 115.502 45.648 115.129 45.232C114.766 44.8053 114.249 44.592 113.577 44.592C112.905 44.592 112.387 44.8053 112.025 45.232C111.662 45.648 111.481 46.1813 111.481 46.832C111.481 47.504 111.662 48.0373 112.025 48.432C112.398 48.816 112.915 49.008 113.577 49.008ZM125.235 44.752H120.019V43.6H126.771V44.624L122.227 54H120.755L125.235 44.752ZM129.676 52.88H132.652V45.04L129.804 46.352L129.388 45.456L132.892 43.6H134.012V52.88H136.684V54H129.676V52.88ZM144.422 44.752H139.206V43.6H145.958V44.624L141.414 54H139.942L144.422 44.752ZM148.912 52.272C148.912 51.8453 148.986 51.472 149.136 51.152C149.285 50.8213 149.488 50.5227 149.744 50.256C150.01 49.9787 150.32 49.7227 150.672 49.488C151.034 49.2533 151.424 49.0133 151.84 48.768C152.17 48.5653 152.464 48.3787 152.72 48.208C152.976 48.0267 153.189 47.84 153.36 47.648C153.53 47.456 153.658 47.2533 153.744 47.04C153.829 46.8267 153.872 46.5813 153.872 46.304C153.872 45.7387 153.69 45.312 153.328 45.024C152.976 44.7253 152.522 44.576 151.968 44.576C151.413 44.576 150.933 44.688 150.528 44.912C150.122 45.1253 149.781 45.4133 149.504 45.776L148.768 45.008C149.088 44.528 149.509 44.144 150.032 43.856C150.554 43.5573 151.184 43.408 151.92 43.408C152.464 43.408 152.944 43.4827 153.36 43.632C153.776 43.7707 154.122 43.968 154.4 44.224C154.688 44.4693 154.901 44.768 155.04 45.12C155.189 45.4613 155.264 45.8347 155.264 46.24C155.264 46.6987 155.184 47.104 155.024 47.456C154.864 47.808 154.65 48.128 154.384 48.416C154.117 48.704 153.808 48.9653 153.456 49.2C153.114 49.424 152.752 49.6427 152.368 49.856C152.026 50.048 151.722 50.2293 151.456 50.4C151.189 50.5707 150.965 50.752 150.784 50.944C150.613 51.136 150.48 51.3493 150.384 51.584C150.298 51.8187 150.256 52.096 150.256 52.416V52.848H155.52V54H148.912V52.272Z" fill="#3C4C4F"/>
</g>
<defs>
<clipPath id="clip0_3905_4688">
<rect width="101" height="20" fill="white"/>
</clipPath>
<clipPath id="clip1_3905_4688">
<path d="M0 36C0 29.3726 5.37258 24 12 24H244C250.627 24 256 29.3726 256 36V60C256 66.6274 250.627 72 244 72H12C5.37258 72 0 66.6274 0 60V36Z" fill="white"/>
</clipPath>
</defs>
</svg>
