<svg width="264" height="76" viewBox="0 0 264 76" fill="none" xmlns="http://www.w3.org/2000/svg">
<g clip-path="url(#clip0_3905_4683)">
<path d="M5.022 5.9H6.898V13.474H10.524V15H5.022V5.9ZM13.6733 15.168C13.3653 15.168 13.0713 15.1167 12.7913 15.014C12.5207 14.9207 12.2827 14.7853 12.0773 14.608C11.872 14.4213 11.7087 14.1973 11.5873 13.936C11.4753 13.6747 11.4193 13.3807 11.4193 13.054C11.4193 12.438 11.6387 11.948 12.0773 11.584C12.516 11.22 13.1833 11.0147 14.0793 10.968L15.7033 10.87V10.59C15.7033 10.142 15.568 9.834 15.2973 9.666C15.0267 9.498 14.6907 9.414 14.2893 9.414C13.972 9.414 13.6733 9.47467 13.3933 9.596C13.1133 9.708 12.9033 9.848 12.7633 10.016L11.7693 9.008C12.012 8.69067 12.362 8.42933 12.8193 8.224C13.286 8.01867 13.8553 7.916 14.5273 7.916C15.5167 7.916 16.254 8.14467 16.7393 8.602C17.2247 9.05933 17.4673 9.68 17.4673 10.464V15H15.8013V13.894H15.7173C15.54 14.286 15.2833 14.5987 14.9473 14.832C14.6113 15.056 14.1867 15.168 13.6733 15.168ZM14.1913 13.894C14.6393 13.894 15.0033 13.768 15.2833 13.516C15.5633 13.2547 15.7033 12.8907 15.7033 12.424V11.962L14.2893 12.074C13.5613 12.1207 13.1973 12.4287 13.1973 12.998C13.1973 13.2873 13.2907 13.5113 13.4773 13.67C13.664 13.8193 13.902 13.894 14.1913 13.894ZM23.2154 15.168C22.6741 15.168 22.2028 15.0373 21.8014 14.776C21.4094 14.5147 21.1294 14.1553 20.9614 13.698H20.8774V15H19.1974V4.85H20.9614V9.274H21.0454C21.2041 8.87267 21.4701 8.546 21.8434 8.294C22.2168 8.042 22.6741 7.916 23.2154 7.916C23.6448 7.916 24.0414 8.00467 24.4054 8.182C24.7788 8.35933 25.0961 8.61133 25.3574 8.938C25.6281 9.25533 25.8381 9.638 25.9874 10.086C26.1368 10.534 26.2114 11.0287 26.2114 11.57C26.2114 12.102 26.1368 12.592 25.9874 13.04C25.8381 13.4787 25.6281 13.8567 25.3574 14.174C25.0961 14.482 24.7788 14.7247 24.4054 14.902C24.0414 15.0793 23.6448 15.168 23.2154 15.168ZM22.6694 13.628C23.1921 13.628 23.6121 13.4413 23.9294 13.068C24.2468 12.6947 24.4054 12.186 24.4054 11.542C24.4054 10.898 24.2468 10.3893 23.9294 10.016C23.6121 9.64267 23.1921 9.456 22.6694 9.456C22.1561 9.456 21.7408 9.64267 21.4234 10.016C21.1154 10.3893 20.9614 10.898 20.9614 11.542C20.9614 12.186 21.1154 12.6947 21.4234 13.068C21.7408 13.4413 22.1561 13.628 22.6694 13.628ZM30.588 15.168C30.0093 15.168 29.5053 15.0747 29.076 14.888C28.6466 14.7013 28.2826 14.4447 27.984 14.118C27.6946 13.782 27.4753 13.3947 27.326 12.956C27.186 12.5173 27.116 12.046 27.116 11.542C27.116 11.0287 27.186 10.5527 27.326 10.114C27.466 9.666 27.676 9.28333 27.956 8.966C28.236 8.63933 28.586 8.38267 29.006 8.196C29.426 8.00933 29.916 7.916 30.476 7.916C31.036 7.916 31.526 8.00467 31.946 8.182C32.366 8.35933 32.7113 8.60667 32.982 8.924C33.2526 9.24133 33.4533 9.61933 33.584 10.058C33.724 10.4873 33.794 10.9587 33.794 11.472C33.794 11.5653 33.7846 11.6727 33.766 11.794C33.7566 11.9153 33.7426 12.0133 33.724 12.088H28.908C28.936 12.34 29.0013 12.5687 29.104 12.774C29.216 12.97 29.3513 13.138 29.51 13.278C29.678 13.418 29.86 13.5253 30.056 13.6C30.2613 13.6653 30.4713 13.698 30.686 13.698C31.0873 13.698 31.4233 13.628 31.694 13.488C31.9646 13.348 32.184 13.1707 32.352 12.956L33.346 13.992C33.0846 14.3467 32.7206 14.6313 32.254 14.846C31.7873 15.0607 31.232 15.168 30.588 15.168ZM30.476 9.26C30.028 9.26 29.664 9.40467 29.384 9.694C29.104 9.98333 28.9406 10.366 28.894 10.842H32.03C31.9833 10.366 31.82 9.98333 31.54 9.694C31.2693 9.40467 30.9146 9.26 30.476 9.26ZM35.1662 4.85H36.9302V15H35.1662V4.85Z" fill="#242E30"/>
</g>
<g filter="url(#filter0_dd_3905_4683)">
<g clip-path="url(#clip1_3905_4683)">
<path d="M4 36C4 29.3726 9.37258 24 16 24H248C254.627 24 260 29.3726 260 36V60C260 66.6274 254.627 72 248 72H16C9.37258 72 4 66.6274 4 60V36Z" fill="white"/>
<g clip-path="url(#clip2_3905_4683)">
<path d="M4 36C4 29.3726 9.37258 24 16 24H248C254.627 24 260 29.3726 260 36V60C260 66.6274 254.627 72 248 72H16C9.37258 72 4 66.6274 4 60V36Z" fill="white" fill-opacity="0.01"/>
<g clip-path="url(#clip3_3905_4683)">
<path fill-rule="evenodd" clip-rule="evenodd" d="M20.1241 36H43.8759L44 36.1241V59.8759L43.8759 60H20.1241L20 59.8759V36.1241L20.1241 36ZM43.7507 59.7508V36.2483H20.2482V59.7508H43.7507ZM24.9028 37.5H39.0972C40.9765 37.5 42.5 39.0235 42.5 40.9028V55.0972C42.5 56.9765 40.9765 58.5 39.0972 58.5H24.9028C23.0235 58.5 21.5 56.9765 21.5 55.0972V40.9028C21.5 39.0235 23.0235 37.5 24.9028 37.5Z" fill="#3C4C4F"/>
</g>
<path d="M61.472 43.6H64.72C65.7867 43.6 66.6027 43.8987 67.168 44.496C67.744 45.0827 68.032 45.8827 68.032 46.896C68.032 47.92 67.7387 48.7307 67.152 49.328C66.5653 49.9147 65.7547 50.208 64.72 50.208H62.832V54H61.472V43.6ZM64.624 49.072C65.296 49.072 65.7973 48.88 66.128 48.496C66.4693 48.1013 66.64 47.568 66.64 46.896C66.64 46.224 66.4693 45.696 66.128 45.312C65.7973 44.928 65.296 44.736 64.624 44.736H62.832V49.072H64.624ZM70.0319 42.4H71.3119V54H70.0319V42.4ZM75.7759 54.192C75.4132 54.192 75.0772 54.1333 74.7679 54.016C74.4692 53.8987 74.2079 53.7333 73.9839 53.52C73.7599 53.3067 73.5839 53.056 73.4559 52.768C73.3385 52.4693 73.2799 52.144 73.2799 51.792C73.2799 51.1093 73.5252 50.56 74.0159 50.144C74.5065 49.728 75.2052 49.4933 76.1119 49.44L78.1919 49.312V48.752C78.1919 48.144 78.0425 47.7067 77.7439 47.44C77.4559 47.1627 77.0399 47.024 76.4959 47.024C76.0372 47.024 75.6425 47.1093 75.3119 47.28C74.9812 47.4507 74.7252 47.6373 74.5439 47.84L73.7759 47.072C74.0532 46.7307 74.4265 46.4533 74.8959 46.24C75.3759 46.016 75.9199 45.904 76.5279 45.904C77.0719 45.904 77.5305 45.9787 77.9039 46.128C78.2772 46.2667 78.5759 46.4587 78.7999 46.704C79.0345 46.9493 79.1999 47.2373 79.2959 47.568C79.4025 47.8987 79.4559 48.2507 79.4559 48.624V54H78.2559V52.656H78.1599C77.9465 53.136 77.6479 53.5147 77.2639 53.792C76.8799 54.0587 76.3839 54.192 75.7759 54.192ZM75.9679 53.104C76.6292 53.104 77.1625 52.912 77.5679 52.528C77.9839 52.1333 78.1919 51.6107 78.1919 50.96V50.272L76.1759 50.416C75.1092 50.5013 74.5759 50.9493 74.5759 51.76C74.5759 52.1653 74.7039 52.4907 74.9599 52.736C75.2265 52.9813 75.5625 53.104 75.9679 53.104ZM85.0399 54.192C84.3999 54.192 83.8452 54.0747 83.3759 53.84C82.9172 53.6053 82.5385 53.296 82.2399 52.912C81.9412 52.528 81.7225 52.0907 81.5839 51.6C81.4452 51.0987 81.3759 50.5813 81.3759 50.048C81.3759 49.5147 81.4452 49.0027 81.5839 48.512C81.7225 48.0107 81.9359 47.568 82.2239 47.184C82.5225 46.8 82.9012 46.4907 83.3599 46.256C83.8185 46.0213 84.3679 45.904 85.0079 45.904C85.6799 45.904 86.2292 46.016 86.6559 46.24C87.0825 46.464 87.4452 46.7627 87.7439 47.136L86.9439 47.888C86.6879 47.6107 86.4159 47.3973 86.1279 47.248C85.8505 47.088 85.4879 47.008 85.0399 47.008C84.3359 47.008 83.7652 47.28 83.3279 47.824C82.9012 48.3573 82.6879 49.0987 82.6879 50.048C82.6879 50.5173 82.7465 50.9387 82.8639 51.312C82.9812 51.6853 83.1465 52.0053 83.3599 52.272C83.5732 52.5387 83.8239 52.7413 84.1119 52.88C84.3999 53.0187 84.7199 53.088 85.0719 53.088C85.4985 53.088 85.8665 53.0133 86.1759 52.864C86.4852 52.704 86.7732 52.4747 87.0399 52.176L87.8079 52.944C87.4985 53.3173 87.1199 53.6213 86.6719 53.856C86.2239 54.08 85.6799 54.192 85.0399 54.192ZM92.6043 54.192C92.0389 54.192 91.5216 54.096 91.0523 53.904C90.5936 53.712 90.1989 53.44 89.8683 53.088C89.5483 52.7253 89.2976 52.288 89.1163 51.776C88.9456 51.264 88.8603 50.688 88.8603 50.048C88.8603 49.376 88.9509 48.784 89.1323 48.272C89.3136 47.7493 89.5643 47.3173 89.8843 46.976C90.2043 46.624 90.5829 46.3573 91.0203 46.176C91.4683 45.9947 91.9589 45.904 92.4923 45.904C93.0256 45.904 93.5163 45.9893 93.9643 46.16C94.4123 46.3307 94.7963 46.5867 95.1163 46.928C95.4363 47.2587 95.6869 47.68 95.8683 48.192C96.0496 48.6933 96.1403 49.28 96.1403 49.952C96.1403 50.0373 96.1349 50.1227 96.1243 50.208C96.1243 50.2933 96.1189 50.3627 96.1083 50.416H90.1403C90.1403 50.7893 90.2043 51.1413 90.3323 51.472C90.4709 51.792 90.6523 52.0747 90.8763 52.32C91.1109 52.5547 91.3776 52.7413 91.6763 52.88C91.9856 53.0187 92.3163 53.088 92.6683 53.088C93.2443 53.088 93.7136 52.976 94.0763 52.752C94.4496 52.528 94.7589 52.256 95.0043 51.936L95.7723 52.72C95.4309 53.168 95.0043 53.5253 94.4923 53.792C93.9909 54.0587 93.3616 54.192 92.6043 54.192ZM92.4923 46.96C92.1189 46.96 91.7883 47.0293 91.5003 47.168C91.2123 47.3067 90.9723 47.488 90.7803 47.712C90.5883 47.936 90.4389 48.192 90.3323 48.48C90.2363 48.768 90.1829 49.056 90.1723 49.344H94.7963C94.7856 49.056 94.7269 48.768 94.6203 48.48C94.5243 48.192 94.3803 47.936 94.1883 47.712C93.9963 47.488 93.7563 47.3067 93.4683 47.168C93.1909 47.0293 92.8656 46.96 92.4923 46.96ZM98.2038 42.4H99.4838V47.216H99.5798C99.7611 46.8533 100.022 46.544 100.364 46.288C100.705 46.032 101.142 45.904 101.676 45.904C102.582 45.904 103.297 46.144 103.82 46.624C104.353 47.104 104.62 47.8773 104.62 48.944V54H103.34V49.184C103.34 48.3733 103.174 47.8027 102.844 47.472C102.524 47.1307 102.049 46.96 101.42 46.96C100.812 46.96 100.337 47.168 99.9958 47.584C99.6544 48 99.4838 48.608 99.4838 49.408V54H98.2038V42.4ZM110.23 54.192C109.601 54.192 109.046 54.0853 108.566 53.872C108.097 53.648 107.702 53.3493 107.382 52.976C107.073 52.6027 106.838 52.1653 106.678 51.664C106.529 51.1627 106.454 50.624 106.454 50.048C106.454 49.472 106.529 48.9333 106.678 48.432C106.838 47.9307 107.073 47.4933 107.382 47.12C107.702 46.7467 108.097 46.4533 108.566 46.24C109.046 46.016 109.601 45.904 110.23 45.904C110.859 45.904 111.403 46.016 111.862 46.24C112.331 46.4533 112.721 46.7467 113.03 47.12C113.339 47.4933 113.569 47.9307 113.718 48.432C113.878 48.9333 113.958 49.472 113.958 50.048C113.958 50.624 113.878 51.1627 113.718 51.664C113.569 52.1653 113.339 52.6027 113.03 52.976C112.721 53.3493 112.331 53.648 111.862 53.872C111.403 54.0853 110.859 54.192 110.23 54.192ZM107.766 50.048C107.766 50.5067 107.814 50.928 107.91 51.312C108.017 51.6853 108.171 52.0107 108.374 52.288C108.577 52.5547 108.833 52.7627 109.142 52.912C109.451 53.0613 109.814 53.136 110.23 53.136C110.635 53.136 110.987 53.0613 111.286 52.912C111.595 52.7627 111.846 52.5547 112.038 52.288C112.241 52.0107 112.39 51.6853 112.486 51.312C112.593 50.928 112.646 50.5067 112.646 50.048C112.646 49.5893 112.593 49.1733 112.486 48.8C112.39 48.416 112.241 48.0907 112.038 47.824C111.846 47.5467 111.595 47.3333 111.286 47.184C110.987 47.0347 110.635 46.96 110.23 46.96C109.814 46.96 109.451 47.0347 109.142 47.184C108.833 47.3333 108.577 47.5467 108.374 47.824C108.171 48.0907 108.017 48.416 107.91 48.8C107.814 49.1733 107.766 49.5893 107.766 50.048ZM116.016 42.4H117.296V54H116.016V42.4ZM122.864 54.192C122.331 54.192 121.851 54.0907 121.424 53.888C120.998 53.6747 120.63 53.3867 120.32 53.024C120.011 52.6507 119.771 52.208 119.6 51.696C119.44 51.184 119.36 50.6293 119.36 50.032C119.36 49.4347 119.44 48.8853 119.6 48.384C119.771 47.872 120.011 47.4347 120.32 47.072C120.63 46.6987 120.998 46.4107 121.424 46.208C121.851 46.0053 122.331 45.904 122.864 45.904C123.515 45.904 124.075 46.0587 124.544 46.368C125.014 46.6773 125.35 47.072 125.552 47.552H125.648V42.4H126.928V54H125.712V52.384H125.616C125.52 52.6613 125.382 52.912 125.2 53.136C125.03 53.3493 124.822 53.536 124.576 53.696C124.342 53.856 124.075 53.9787 123.776 54.064C123.488 54.1493 123.184 54.192 122.864 54.192ZM123.184 53.04C123.526 53.04 123.846 52.9813 124.144 52.864C124.443 52.736 124.704 52.5493 124.928 52.304C125.152 52.048 125.328 51.7333 125.456 51.36C125.584 50.9867 125.648 50.5493 125.648 50.048C125.648 49.5467 125.584 49.1093 125.456 48.736C125.328 48.3627 125.152 48.0533 124.928 47.808C124.704 47.552 124.443 47.3653 124.144 47.248C123.846 47.12 123.526 47.056 123.184 47.056C122.832 47.056 122.502 47.12 122.192 47.248C121.894 47.3653 121.627 47.552 121.392 47.808C121.168 48.0533 120.992 48.3627 120.864 48.736C120.736 49.1093 120.672 49.5467 120.672 50.048C120.672 50.5493 120.736 50.9867 120.864 51.36C120.992 51.7333 121.168 52.048 121.392 52.304C121.627 52.5493 121.894 52.736 122.192 52.864C122.502 52.9813 122.832 53.04 123.184 53.04ZM132.729 54.192C132.164 54.192 131.647 54.096 131.177 53.904C130.719 53.712 130.324 53.44 129.993 53.088C129.673 52.7253 129.423 52.288 129.241 51.776C129.071 51.264 128.985 50.688 128.985 50.048C128.985 49.376 129.076 48.784 129.257 48.272C129.439 47.7493 129.689 47.3173 130.009 46.976C130.329 46.624 130.708 46.3573 131.145 46.176C131.593 45.9947 132.084 45.904 132.617 45.904C133.151 45.904 133.641 45.9893 134.089 46.16C134.537 46.3307 134.921 46.5867 135.241 46.928C135.561 47.2587 135.812 47.68 135.993 48.192C136.175 48.6933 136.265 49.28 136.265 49.952C136.265 50.0373 136.26 50.1227 136.249 50.208C136.249 50.2933 136.244 50.3627 136.233 50.416H130.265C130.265 50.7893 130.329 51.1413 130.457 51.472C130.596 51.792 130.777 52.0747 131.001 52.32C131.236 52.5547 131.503 52.7413 131.801 52.88C132.111 53.0187 132.441 53.088 132.793 53.088C133.369 53.088 133.839 52.976 134.201 52.752C134.575 52.528 134.884 52.256 135.129 51.936L135.897 52.72C135.556 53.168 135.129 53.5253 134.617 53.792C134.116 54.0587 133.487 54.192 132.729 54.192ZM132.617 46.96C132.244 46.96 131.913 47.0293 131.625 47.168C131.337 47.3067 131.097 47.488 130.905 47.712C130.713 47.936 130.564 48.192 130.457 48.48C130.361 48.768 130.308 49.056 130.297 49.344H134.921C134.911 49.056 134.852 48.768 134.745 48.48C134.649 48.192 134.505 47.936 134.313 47.712C134.121 47.488 133.881 47.3067 133.593 47.168C133.316 47.0293 132.991 46.96 132.617 46.96ZM138.329 46.096H139.545V47.376H139.641C139.811 46.96 140.057 46.6133 140.377 46.336C140.697 46.048 141.097 45.904 141.577 45.904C141.982 45.904 142.339 45.984 142.649 46.144L142.217 47.296C142.078 47.2213 141.929 47.1733 141.769 47.152C141.619 47.12 141.465 47.104 141.305 47.104C140.782 47.104 140.366 47.3173 140.057 47.744C139.758 48.16 139.609 48.6933 139.609 49.344V54H138.329V46.096Z" fill="#3C4C4F"/>
<path d="M236.24 51.424H234.512L234.64 50.464H236.368L236.848 47.136H235.12L235.248 46.176H236.976L237.344 43.6H238.496L238.128 46.176H240.496L240.864 43.6H242.016L241.648 46.176H243.376L243.248 47.136H241.52L241.04 50.464H242.768L242.64 51.424H240.912L240.544 54H239.392L239.76 51.424H237.392L237.024 54H235.872L236.24 51.424ZM239.888 50.464L240.368 47.136H238L237.52 50.464H239.888Z" fill="#242E30"/>
</g>
</g>
<path d="M4.5 36C4.5 29.6487 9.64873 24.5 16 24.5H248C254.351 24.5 259.5 29.6487 259.5 36V60C259.5 66.3513 254.351 71.5 248 71.5H16C9.64873 71.5 4.5 66.3513 4.5 60V36Z" stroke="#797876"/>
</g>
<defs>
<filter id="filter0_dd_3905_4683" x="0" y="20" width="264" height="56" filterUnits="userSpaceOnUse" color-interpolation-filters="sRGB">
<feFlood flood-opacity="0" result="BackgroundImageFix"/>
<feColorMatrix in="SourceAlpha" type="matrix" values="0 0 0 0 0 0 0 0 0 0 0 0 0 0 0 0 0 0 127 0" result="hardAlpha"/>
<feMorphology radius="4" operator="dilate" in="SourceAlpha" result="effect1_dropShadow_3905_4683"/>
<feOffset/>
<feComposite in2="hardAlpha" operator="out"/>
<feColorMatrix type="matrix" values="0 0 0 0 0.0352941 0 0 0 0 0.301961 0 0 0 0 0.67451 0 0 0 1 0"/>
<feBlend mode="normal" in2="BackgroundImageFix" result="effect1_dropShadow_3905_4683"/>
<feColorMatrix in="SourceAlpha" type="matrix" values="0 0 0 0 0 0 0 0 0 0 0 0 0 0 0 0 0 0 127 0" result="hardAlpha"/>
<feMorphology radius="2" operator="dilate" in="SourceAlpha" result="effect2_dropShadow_3905_4683"/>
<feOffset/>
<feComposite in2="hardAlpha" operator="out"/>
<feColorMatrix type="matrix" values="0 0 0 0 1 0 0 0 0 1 0 0 0 0 1 0 0 0 1 0"/>
<feBlend mode="normal" in2="effect1_dropShadow_3905_4683" result="effect2_dropShadow_3905_4683"/>
<feBlend mode="normal" in="SourceGraphic" in2="effect2_dropShadow_3905_4683" result="shape"/>
</filter>
<clipPath id="clip0_3905_4683">
<rect width="34" height="20" fill="white" transform="translate(4)"/>
</clipPath>
<clipPath id="clip1_3905_4683">
<path d="M4 36C4 29.3726 9.37258 24 16 24H248C254.627 24 260 29.3726 260 36V60C260 66.6274 254.627 72 248 72H16C9.37258 72 4 66.6274 4 60V36Z" fill="white"/>
</clipPath>
<clipPath id="clip2_3905_4683">
<path d="M4 36C4 29.3726 9.37258 24 16 24H248C254.627 24 260 29.3726 260 36V60C260 66.6274 254.627 72 248 72H16C9.37258 72 4 66.6274 4 60V36Z" fill="white"/>
</clipPath>
<clipPath id="clip3_3905_4683">
<rect width="24" height="24" fill="white" transform="translate(20 36)"/>
</clipPath>
</defs>
</svg>
