<svg width="280" height="64" viewBox="0 0 280 64" fill="none" xmlns="http://www.w3.org/2000/svg">
<g clip-path="url(#clip0_7698_2426)">
<path d="M0 8C0 3.58172 3.58172 0 8 0H272C276.418 0 280 3.58172 280 8V48C280 52.4183 276.418 56 272 56H8C3.58172 56 0 52.4183 0 48V8Z" fill="#2B2A28"/>
<path d="M14.814 23V15.426H12.294V13.9H19.224V15.426H16.69V23H14.814ZM22.7289 23.168C21.9636 23.168 21.3196 23.0047 20.7969 22.678C20.2836 22.342 19.8963 21.8987 19.6349 21.348C19.3736 20.7973 19.2429 20.1953 19.2429 19.542C19.2429 19.0473 19.3176 18.5807 19.4669 18.142C19.6163 17.7033 19.8356 17.3207 20.1249 16.994C20.4143 16.658 20.7736 16.3967 21.2029 16.21C21.6416 16.014 22.1503 15.916 22.7289 15.916C23.5036 15.916 24.1429 16.084 24.6469 16.42C25.1603 16.7467 25.5429 17.1853 25.7949 17.736C26.0563 18.2773 26.1869 18.8793 26.1869 19.542C26.1869 20.0367 26.1123 20.5033 25.9629 20.942C25.8229 21.3807 25.6083 21.768 25.3189 22.104C25.0296 22.4307 24.6703 22.692 24.2409 22.888C23.8116 23.0747 23.3076 23.168 22.7289 23.168ZM21.0489 19.542C21.0489 19.99 21.1143 20.382 21.2449 20.718C21.3849 21.0447 21.5763 21.2967 21.8189 21.474C22.0709 21.6513 22.3743 21.74 22.7289 21.74C23.0836 21.74 23.3823 21.6513 23.6249 21.474C23.8676 21.2967 24.0543 21.0447 24.1849 20.718C24.3249 20.382 24.3949 19.99 24.3949 19.542C24.3949 19.0847 24.3249 18.6927 24.1849 18.366C24.0543 18.0393 23.8676 17.7873 23.6249 17.61C23.3823 17.4327 23.0836 17.344 22.7289 17.344C22.3743 17.344 22.0709 17.4327 21.8189 17.61C21.5763 17.7873 21.3849 18.0393 21.2449 18.366C21.1143 18.6927 21.0489 19.0847 21.0489 19.542ZM30.5629 23.168C29.7976 23.168 29.1536 23.0047 28.6309 22.678C28.1176 22.342 27.7302 21.8987 27.4689 21.348C27.2076 20.7973 27.0769 20.1953 27.0769 19.542C27.0769 19.0473 27.1516 18.5807 27.3009 18.142C27.4502 17.7033 27.6696 17.3207 27.9589 16.994C28.2482 16.658 28.6076 16.3967 29.0369 16.21C29.4756 16.014 29.9842 15.916 30.5629 15.916C31.3376 15.916 31.9769 16.084 32.4809 16.42C32.9942 16.7467 33.3769 17.1853 33.6289 17.736C33.8902 18.2773 34.0209 18.8793 34.0209 19.542C34.0209 20.0367 33.9462 20.5033 33.7969 20.942C33.6569 21.3807 33.4422 21.768 33.1529 22.104C32.8636 22.4307 32.5042 22.692 32.0749 22.888C31.6456 23.0747 31.1416 23.168 30.5629 23.168ZM28.8829 19.542C28.8829 19.99 28.9482 20.382 29.0789 20.718C29.2189 21.0447 29.4102 21.2967 29.6529 21.474C29.9049 21.6513 30.2082 21.74 30.5629 21.74C30.9176 21.74 31.2162 21.6513 31.4589 21.474C31.7016 21.2967 31.8882 21.0447 32.0189 20.718C32.1589 20.382 32.2289 19.99 32.2289 19.542C32.2289 19.0847 32.1589 18.6927 32.0189 18.366C31.8882 18.0393 31.7016 17.7873 31.4589 17.61C31.2162 17.4327 30.9176 17.344 30.5629 17.344C30.2082 17.344 29.9049 17.4327 29.6529 17.61C29.4102 17.7873 29.2189 18.0393 29.0789 18.366C28.9482 18.6927 28.8829 19.0847 28.8829 19.542ZM35.3869 23V12.85H37.1509V23H35.3869ZM41.6699 23.154C41.1659 23.154 40.7506 23.0653 40.4239 22.888C40.0973 22.7013 39.8546 22.426 39.6959 22.062C39.5466 21.6887 39.4719 21.2267 39.4719 20.676V17.498H38.3799V16.084H39.4719V14.208H41.2219V16.084H43.2379V17.498H41.2219V20.662C41.2219 21.026 41.2873 21.2873 41.4179 21.446C41.5579 21.5953 41.7539 21.67 42.0059 21.67C42.1833 21.67 42.3466 21.6373 42.4959 21.572C42.6546 21.4973 42.7899 21.4087 42.9019 21.306L43.5319 22.51C43.3079 22.734 43.0419 22.8973 42.7339 23C42.4259 23.1027 42.0713 23.154 41.6699 23.154ZM44.7248 23V16.084H46.4888V23H44.7248ZM45.6208 15.174C45.2848 15.174 45.0281 15.0713 44.8508 14.866C44.6734 14.6607 44.5848 14.4273 44.5848 14.166C44.5848 13.8953 44.6734 13.662 44.8508 13.466C45.0281 13.2607 45.2848 13.158 45.6208 13.158C45.9474 13.158 46.1994 13.2607 46.3768 13.466C46.5634 13.662 46.6568 13.8953 46.6568 14.166C46.6568 14.4273 46.5634 14.6607 46.3768 14.866C46.1994 15.0713 45.9474 15.174 45.6208 15.174ZM48.3478 25.59V16.084H50.0278V17.386H50.1118C50.2798 16.938 50.5598 16.5833 50.9518 16.322C51.3532 16.0513 51.8245 15.916 52.3658 15.916C52.9445 15.916 53.4578 16.07 53.9058 16.378C54.3538 16.6767 54.7085 17.0967 54.9698 17.638C55.2312 18.1793 55.3618 18.8047 55.3618 19.514C55.3618 20.2233 55.2312 20.8533 54.9698 21.404C54.7085 21.9547 54.3538 22.3887 53.9058 22.706C53.4578 23.014 52.9445 23.168 52.3658 23.168C51.8245 23.168 51.3672 23.042 50.9938 22.79C50.6298 22.5287 50.3638 22.202 50.1958 21.81H50.1118V25.59H48.3478ZM51.8198 21.628C52.1652 21.628 52.4685 21.544 52.7298 21.376C52.9912 21.208 53.1918 20.97 53.3318 20.662C53.4812 20.3447 53.5558 19.9713 53.5558 19.542C53.5558 19.1127 53.4812 18.744 53.3318 18.436C53.1918 18.1187 52.9912 17.876 52.7298 17.708C52.4685 17.54 52.1652 17.456 51.8198 17.456C51.4838 17.456 51.1852 17.54 50.9238 17.708C50.6718 17.876 50.4712 18.1187 50.3218 18.436C50.1818 18.744 50.1118 19.1127 50.1118 19.542C50.1118 19.9713 50.1818 20.3447 50.3218 20.662C50.4712 20.97 50.6718 21.208 50.9238 21.376C51.1852 21.544 51.4838 21.628 51.8198 21.628Z" fill="white" fill-opacity="0.9"/>
<path d="M13.288 43V33.9H16.242C16.7367 33.9 17.166 33.9933 17.53 34.18C17.9033 34.3667 18.1927 34.6373 18.398 34.992C18.6033 35.3467 18.706 35.776 18.706 36.28C18.706 36.5973 18.6407 36.8913 18.51 37.162C18.3887 37.4327 18.216 37.6613 17.992 37.848C17.768 38.0347 17.5113 38.1653 17.222 38.24V38.324C17.53 38.3707 17.824 38.4967 18.104 38.702C18.3933 38.898 18.6267 39.1547 18.804 39.472C18.9907 39.7893 19.084 40.1487 19.084 40.55C19.084 41.0447 18.9627 41.4787 18.72 41.852C18.4867 42.216 18.1693 42.5007 17.768 42.706C17.3667 42.902 16.9093 43 16.396 43H13.288ZM14.478 37.89H16.102C16.382 37.89 16.6247 37.8293 16.83 37.708C17.0447 37.5867 17.208 37.414 17.32 37.19C17.432 36.9567 17.488 36.6907 17.488 36.392C17.488 35.9253 17.362 35.5613 17.11 35.3C16.858 35.0293 16.5267 34.894 16.116 34.894H14.478V37.89ZM14.478 42.006H16.382C16.69 42.006 16.9513 41.9407 17.166 41.81C17.39 41.6793 17.5627 41.4973 17.684 41.264C17.8053 41.0307 17.866 40.76 17.866 40.452C17.866 39.9573 17.7307 39.57 17.46 39.29C17.1987 39.01 16.8393 38.87 16.382 38.87H14.478V42.006ZM23.8223 43.168C23.085 43.168 22.469 43.0047 21.9743 42.678C21.489 42.3513 21.125 41.9127 20.8823 41.362C20.6397 40.8113 20.5183 40.2047 20.5183 39.542C20.5183 39.038 20.5837 38.5667 20.7143 38.128C20.8543 37.6893 21.0597 37.3067 21.3303 36.98C21.6103 36.644 21.9557 36.3827 22.3663 36.196C22.7863 36.0093 23.2717 35.916 23.8223 35.916C24.5597 35.916 25.1663 36.0793 25.6423 36.406C26.1277 36.7327 26.487 37.1713 26.7203 37.722C26.963 38.2633 27.0843 38.87 27.0843 39.542C27.0843 40.046 27.0143 40.5173 26.8743 40.956C26.7437 41.3947 26.543 41.782 26.2723 42.118C26.0017 42.4447 25.661 42.7013 25.2503 42.888C24.849 43.0747 24.373 43.168 23.8223 43.168ZM21.6663 39.542C21.6663 40.074 21.7457 40.5453 21.9043 40.956C22.063 41.3573 22.301 41.6747 22.6183 41.908C22.9357 42.132 23.337 42.244 23.8223 42.244C24.2983 42.244 24.6903 42.132 24.9983 41.908C25.3157 41.6747 25.549 41.3573 25.6983 40.956C25.857 40.5453 25.9363 40.074 25.9363 39.542C25.9363 39.01 25.857 38.5433 25.6983 38.142C25.549 37.7313 25.3157 37.414 24.9983 37.19C24.6903 36.9567 24.2983 36.84 23.8223 36.84C23.337 36.84 22.9357 36.9567 22.6183 37.19C22.301 37.414 22.063 37.7313 21.9043 38.142C21.7457 38.5433 21.6663 39.01 21.6663 39.542ZM31.3773 43.168C30.7613 43.168 30.2246 43.0093 29.7673 42.692C29.31 42.3747 28.9506 41.9453 28.6893 41.404C28.4373 40.8533 28.3113 40.228 28.3113 39.528C28.3113 38.828 28.4373 38.2073 28.6893 37.666C28.9506 37.1153 29.31 36.686 29.7673 36.378C30.2246 36.07 30.7613 35.916 31.3773 35.916C31.9466 35.916 32.4366 36.0513 32.8473 36.322C33.258 36.5927 33.552 36.938 33.7293 37.358H33.8133V32.85H34.9333V43H33.8693V41.586H33.7853C33.6266 42.062 33.328 42.4447 32.8893 42.734C32.4506 43.0233 31.9466 43.168 31.3773 43.168ZM31.6573 42.16C32.0586 42.16 32.418 42.0667 32.7353 41.88C33.062 41.684 33.3233 41.39 33.5193 40.998C33.7153 40.606 33.8133 40.1207 33.8133 39.542C33.8133 38.954 33.7153 38.4687 33.5193 38.086C33.3233 37.694 33.062 37.4047 32.7353 37.218C32.418 37.022 32.0586 36.924 31.6573 36.924C31.2466 36.924 30.8733 37.022 30.5373 37.218C30.2106 37.4047 29.9493 37.694 29.7533 38.086C29.5573 38.4687 29.4593 38.954 29.4593 39.542C29.4593 40.1207 29.5573 40.606 29.7533 40.998C29.9493 41.39 30.2106 41.684 30.5373 41.88C30.8733 42.0667 31.2466 42.16 31.6573 42.16ZM37.7412 45.646C37.6479 45.646 37.5452 45.6367 37.4332 45.618C37.3212 45.6087 37.2279 45.5947 37.1532 45.576V44.61C37.1999 44.6193 37.2745 44.6287 37.3772 44.638C37.4892 44.6473 37.5919 44.652 37.6852 44.652C37.9372 44.652 38.1425 44.6193 38.3012 44.554C38.4599 44.498 38.6045 44.3673 38.7352 44.162C38.8659 43.9567 39.0105 43.644 39.1692 43.224L36.3972 36.084H37.6152L39.7012 41.88H39.7852L41.8852 36.084H43.0192L40.3032 43.07C40.0699 43.6767 39.8412 44.1667 39.6172 44.54C39.3932 44.9227 39.1365 45.2027 38.8472 45.38C38.5579 45.5573 38.1892 45.646 37.7412 45.646Z" fill="white" fill-opacity="0.9"/>
<path d="M266.835 12.0059L262 16.8403L257.166 12.0059L256.006 13.1652L260.841 17.9996L256.006 22.834L257.166 23.9934L262 19.159L266.835 23.9934L267.994 22.834L263.16 17.9996L267.994 13.1652L266.835 12.0059Z" fill="white" fill-opacity="0.9"/>
<path d="M20 64L28 56H12L20 64Z" fill="#2B2A28"/>
</g>
<defs>
<clipPath id="clip0_7698_2426">
<rect width="280" height="64" fill="white"/>
</clipPath>
</defs>
</svg>
