<svg width="328" height="76" viewBox="0 0 328 76" fill="none" xmlns="http://www.w3.org/2000/svg">
<g filter="url(#filter0_ddd_7698_2427)">
<g clip-path="url(#clip0_7698_2427)">
<path d="M14 20C14 15.5817 17.5817 12 22 12H306C310.418 12 314 15.5817 314 20V52C314 56.4183 310.418 60 306 60H22C17.5817 60 14 56.4183 14 52V20Z" fill="#3147AD"/>
<g clip-path="url(#clip1_7698_2427)">
<path d="M40 27.5234C38.3235 27.5234 36.6846 28.0206 35.2907 28.952C33.8967 29.8834 32.8103 31.2073 32.1687 32.7562C31.5271 34.305 31.3592 36.0094 31.6863 37.6537C32.0134 39.298 32.8207 40.8084 34.0062 41.9938C35.1916 43.1793 36.702 43.9866 38.3463 44.3137C39.9906 44.6408 41.695 44.4729 43.2438 43.8313C44.7927 43.1898 46.1166 42.1033 47.048 40.7093C47.9794 39.3154 48.4766 37.6765 48.4766 36C48.4737 33.7528 47.5797 31.5984 45.9906 30.0094C44.4016 28.4203 42.2472 27.5263 40 27.5234ZM40 42.8359C38.648 42.8359 37.3263 42.435 36.2022 41.6839C35.078 40.9327 34.2018 39.8651 33.6844 38.616C33.167 37.3669 33.0317 35.9924 33.2954 34.6664C33.5592 33.3403 34.2102 32.1223 35.1663 31.1663C36.1223 30.2102 37.3403 29.5592 38.6664 29.2954C39.9924 29.0316 41.3669 29.167 42.616 29.6844C43.8651 30.2018 44.9327 31.078 45.6839 32.2022C46.435 33.3263 46.8359 34.648 46.8359 36C46.8359 36.8977 46.6591 37.7866 46.3156 38.616C45.972 39.4454 45.4685 40.199 44.8337 40.8337C44.199 41.4685 43.4454 41.972 42.616 42.3156C41.7866 42.6591 40.8977 42.8359 40 42.8359ZM39.1797 35.1141H40.8203V39.2812H39.1797V35.1141ZM41.0938 32.7188C41.0938 32.9351 41.0296 33.1465 40.9094 33.3264C40.7892 33.5063 40.6184 33.6465 40.4186 33.7292C40.2187 33.812 39.9988 33.8337 39.7866 33.7915C39.5745 33.7493 39.3796 33.6451 39.2266 33.4921C39.0736 33.3392 38.9695 33.1443 38.9273 32.9321C38.8851 32.72 38.9067 32.5 38.9895 32.3002C39.0723 32.1003 39.2125 31.9295 39.3923 31.8093C39.5722 31.6891 39.7837 31.625 40 31.625C40.2901 31.625 40.5683 31.7402 40.7734 31.9454C40.9785 32.1505 41.0938 32.4287 41.0938 32.7188Z" fill="white" fill-opacity="0.9"/>
</g>
<path d="M60.926 41V32.908H58.336V31.9H64.706V32.908H62.116V41H60.926ZM68.3731 41.168C67.6358 41.168 67.0198 41.0047 66.5251 40.678C66.0398 40.3513 65.6758 39.9127 65.4331 39.362C65.1905 38.8113 65.0691 38.2047 65.0691 37.542C65.0691 37.038 65.1345 36.5667 65.2651 36.128C65.4051 35.6893 65.6105 35.3067 65.8811 34.98C66.1611 34.644 66.5065 34.3827 66.9171 34.196C67.3371 34.0093 67.8225 33.916 68.3731 33.916C69.1105 33.916 69.7171 34.0793 70.1931 34.406C70.6785 34.7327 71.0378 35.1713 71.2711 35.722C71.5138 36.2633 71.6351 36.87 71.6351 37.542C71.6351 38.046 71.5651 38.5173 71.4251 38.956C71.2945 39.3947 71.0938 39.782 70.8231 40.118C70.5525 40.4447 70.2118 40.7013 69.8011 40.888C69.3998 41.0747 68.9238 41.168 68.3731 41.168ZM66.2171 37.542C66.2171 38.074 66.2965 38.5453 66.4551 38.956C66.6138 39.3573 66.8518 39.6747 67.1691 39.908C67.4865 40.132 67.8878 40.244 68.3731 40.244C68.8491 40.244 69.2411 40.132 69.5491 39.908C69.8665 39.6747 70.0998 39.3573 70.2491 38.956C70.4078 38.5453 70.4871 38.074 70.4871 37.542C70.4871 37.01 70.4078 36.5433 70.2491 36.142C70.0998 35.7313 69.8665 35.414 69.5491 35.19C69.2411 34.9567 68.8491 34.84 68.3731 34.84C67.8878 34.84 67.4865 34.9567 67.1691 35.19C66.8518 35.414 66.6138 35.7313 66.4551 36.142C66.2965 36.5433 66.2171 37.01 66.2171 37.542ZM74.9621 41.168C74.5421 41.168 74.1641 41.0793 73.8281 40.902C73.5014 40.7247 73.2448 40.4773 73.0581 40.16C72.8714 39.8427 72.7781 39.4787 72.7781 39.068C72.7781 38.6667 72.8714 38.3213 73.0581 38.032C73.2541 37.7333 73.5388 37.4953 73.9121 37.318C74.2854 37.1407 74.7334 37.038 75.2561 37.01L77.0761 36.898V36.408C77.0761 36.0533 77.0154 35.7687 76.8941 35.554C76.7821 35.33 76.6141 35.1667 76.3901 35.064C76.1754 34.952 75.9094 34.896 75.5921 34.896C75.1908 34.896 74.8454 34.9707 74.5561 35.12C74.2668 35.2693 74.0428 35.4327 73.8841 35.61L73.2121 34.938C73.4548 34.6393 73.7861 34.3967 74.2061 34.21C74.6261 34.014 75.0974 33.916 75.6201 33.916C76.2548 33.916 76.7588 34.0233 77.1321 34.238C77.5054 34.4527 77.7714 34.742 77.9301 35.106C78.0981 35.4607 78.1821 35.8573 78.1821 36.296V41H77.1321V39.824H77.0481C76.8708 40.2347 76.6094 40.5613 76.2641 40.804C75.9188 41.0467 75.4848 41.168 74.9621 41.168ZM75.1301 40.216C75.7088 40.216 76.1754 40.048 76.5301 39.712C76.8941 39.3667 77.0761 38.9093 77.0761 38.34V37.738L75.3121 37.864C74.8548 37.9013 74.5048 38.018 74.2621 38.214C74.0288 38.41 73.9121 38.6853 73.9121 39.04C73.9121 39.3947 74.0241 39.6793 74.2481 39.894C74.4814 40.1087 74.7754 40.216 75.1301 40.216ZM82.3121 41.168C81.7148 41.168 81.2014 41.0653 80.7721 40.86C80.3428 40.6547 80.0068 40.3887 79.7641 40.062L80.5061 39.362C80.7208 39.614 80.9681 39.8193 81.2481 39.978C81.5374 40.1367 81.8968 40.216 82.3261 40.216C82.7088 40.216 83.0448 40.1367 83.3341 39.978C83.6234 39.81 83.7681 39.5533 83.7681 39.208C83.7681 38.9373 83.6841 38.7273 83.5161 38.578C83.3574 38.4193 83.1474 38.2933 82.8861 38.2C82.6248 38.0973 82.3448 38.004 82.0461 37.92C81.7008 37.8173 81.3741 37.6913 81.0661 37.542C80.7674 37.3833 80.5201 37.178 80.3241 36.926C80.1374 36.6647 80.0441 36.3333 80.0441 35.932C80.0441 35.4933 80.1468 35.1247 80.3521 34.826C80.5668 34.5273 80.8514 34.3033 81.2061 34.154C81.5701 33.9953 81.9761 33.916 82.4241 33.916C82.9188 33.916 83.3808 34.0093 83.8101 34.196C84.2394 34.3733 84.5848 34.6533 84.8461 35.036L84.1181 35.708C83.9128 35.4653 83.6701 35.2647 83.3901 35.106C83.1194 34.9473 82.7974 34.868 82.4241 34.868C82.1068 34.868 81.8128 34.9473 81.5421 35.106C81.2714 35.2553 81.1361 35.498 81.1361 35.834C81.1361 36.1047 81.2154 36.3193 81.3741 36.478C81.5421 36.6273 81.7568 36.7487 82.0181 36.842C82.2794 36.9353 82.5594 37.0287 82.8581 37.122C83.2034 37.2247 83.5254 37.3553 83.8241 37.514C84.1321 37.6633 84.3794 37.864 84.5661 38.116C84.7621 38.368 84.8601 38.6993 84.8601 39.11C84.8601 39.586 84.7434 39.978 84.5101 40.286C84.2768 40.5847 83.9641 40.8087 83.5721 40.958C83.1894 41.098 82.7694 41.168 82.3121 41.168ZM88.9215 41.168C88.5108 41.168 88.1702 41.084 87.8995 40.916C87.6288 40.748 87.4282 40.5053 87.2975 40.188C87.1762 39.8707 87.1155 39.4973 87.1155 39.068V34.994H85.8835V34.084H87.1155V32.208H88.2215V34.084H90.2235V34.994H88.2215V38.97C88.2215 39.418 88.3055 39.7307 88.4735 39.908C88.6508 40.0853 88.8748 40.174 89.1455 40.174C89.3322 40.174 89.5002 40.1413 89.6495 40.076C89.7988 40.0013 89.9388 39.9033 90.0695 39.782L90.5735 40.566C90.3588 40.7713 90.1115 40.9207 89.8315 41.014C89.5608 41.1167 89.2575 41.168 88.9215 41.168Z" fill="white" fill-opacity="0.9"/>
<path d="M270 36C270 27.1634 277.163 20 286 20C294.837 20 302 27.1634 302 36C302 44.8366 294.837 52 286 52C277.163 52 270 44.8366 270 36Z" fill="white" fill-opacity="0.01"/>
<path d="M290.835 30.0059L286 34.8403L281.166 30.0059L280.006 31.1652L284.841 35.9996L280.006 40.834L281.166 41.9934L286 37.159L290.835 41.9934L291.994 40.834L287.16 35.9996L291.994 31.1652L290.835 30.0059Z" fill="white" fill-opacity="0.9"/>
</g>
</g>
<defs>
<filter id="filter0_ddd_7698_2427" x="0" y="0" width="328" height="76" filterUnits="userSpaceOnUse" color-interpolation-filters="sRGB">
<feFlood flood-opacity="0" result="BackgroundImageFix"/>
<feColorMatrix in="SourceAlpha" type="matrix" values="0 0 0 0 0 0 0 0 0 0 0 0 0 0 0 0 0 0 127 0" result="hardAlpha"/>
<feOffset dy="3"/>
<feGaussianBlur stdDeviation="2"/>
<feColorMatrix type="matrix" values="0 0 0 0 0 0 0 0 0 0 0 0 0 0 0 0 0 0 0.04 0"/>
<feBlend mode="normal" in2="BackgroundImageFix" result="effect1_dropShadow_7698_2427"/>
<feColorMatrix in="SourceAlpha" type="matrix" values="0 0 0 0 0 0 0 0 0 0 0 0 0 0 0 0 0 0 127 0" result="hardAlpha"/>
<feMorphology radius="2" operator="dilate" in="SourceAlpha" result="effect2_dropShadow_7698_2427"/>
<feOffset dy="2"/>
<feGaussianBlur stdDeviation="6"/>
<feColorMatrix type="matrix" values="0 0 0 0 0 0 0 0 0 0 0 0 0 0 0 0 0 0 0.04 0"/>
<feBlend mode="normal" in2="effect1_dropShadow_7698_2427" result="effect2_dropShadow_7698_2427"/>
<feColorMatrix in="SourceAlpha" type="matrix" values="0 0 0 0 0 0 0 0 0 0 0 0 0 0 0 0 0 0 127 0" result="hardAlpha"/>
<feOffset dy="4"/>
<feGaussianBlur stdDeviation="3"/>
<feColorMatrix type="matrix" values="0 0 0 0 0 0 0 0 0 0 0 0 0 0 0 0 0 0 0.02 0"/>
<feBlend mode="normal" in2="effect2_dropShadow_7698_2427" result="effect3_dropShadow_7698_2427"/>
<feBlend mode="normal" in="SourceGraphic" in2="effect3_dropShadow_7698_2427" result="shape"/>
</filter>
<clipPath id="clip0_7698_2427">
<path d="M14 20C14 15.5817 17.5817 12 22 12H306C310.418 12 314 15.5817 314 20V52C314 56.4183 310.418 60 306 60H22C17.5817 60 14 56.4183 14 52V20Z" fill="white"/>
</clipPath>
<clipPath id="clip1_7698_2427">
<rect width="17.5" height="17.5" fill="white" transform="translate(31.25 27.25)"/>
</clipPath>
</defs>
</svg>
