<svg width="384" height="80" viewBox="0 0 384 80" fill="none" xmlns="http://www.w3.org/2000/svg">
<g clip-path="url(#clip0_7698_2418)">
<path d="M0 12C0 5.37258 5.37258 0 12 0H372C378.627 0 384 5.37258 384 12V68C384 74.6274 378.627 80 372 80H12C5.37258 80 0 74.6274 0 68V12Z" fill="white"/>
<path d="M16.272 46L20.112 35.6H22.752L26.608 46H24.336L23.632 44.048H19.152L18.448 46H16.272ZM21.328 37.6L19.76 42.352H23.024L21.424 37.6H21.328ZM30.6395 46.192C29.9782 46.192 29.3915 46.016 28.8795 45.664C28.3675 45.312 27.9622 44.832 27.6635 44.224C27.3755 43.6053 27.2315 42.8907 27.2315 42.08C27.2315 41.2587 27.3755 40.5387 27.6635 39.92C27.9622 39.2907 28.3675 38.8 28.8795 38.448C29.3915 38.0853 29.9782 37.904 30.6395 37.904C31.2582 37.904 31.7755 38.0533 32.1915 38.352C32.6182 38.64 32.9222 39.008 33.1035 39.456H33.1995V34.4H35.2155V46H33.3115V44.512H33.2155C33.0235 45.024 32.6982 45.4347 32.2395 45.744C31.7915 46.0427 31.2582 46.192 30.6395 46.192ZM31.2475 44.432C31.6528 44.432 31.9995 44.336 32.2875 44.144C32.5755 43.952 32.7995 43.68 32.9595 43.328C33.1195 42.9653 33.1995 42.5387 33.1995 42.048C33.1995 41.5573 33.1195 41.136 32.9595 40.784C32.7995 40.4213 32.5755 40.144 32.2875 39.952C31.9995 39.76 31.6528 39.664 31.2475 39.664C30.8528 39.664 30.5062 39.76 30.2075 39.952C29.9195 40.144 29.6955 40.4213 29.5355 40.784C29.3755 41.136 29.2955 41.5573 29.2955 42.048C29.2955 42.5387 29.3755 42.9653 29.5355 43.328C29.6955 43.68 29.9195 43.952 30.2075 44.144C30.5062 44.336 30.8528 44.432 31.2475 44.432ZM40.2333 46.192C39.5719 46.192 38.9853 46.016 38.4733 45.664C37.9613 45.312 37.5559 44.832 37.2573 44.224C36.9693 43.6053 36.8253 42.8907 36.8253 42.08C36.8253 41.2587 36.9693 40.5387 37.2573 39.92C37.5559 39.2907 37.9613 38.8 38.4733 38.448C38.9853 38.0853 39.5719 37.904 40.2333 37.904C40.8519 37.904 41.3693 38.0533 41.7853 38.352C42.2119 38.64 42.5159 39.008 42.6973 39.456H42.7933V34.4H44.8093V46H42.9053V44.512H42.8093C42.6173 45.024 42.2919 45.4347 41.8333 45.744C41.3853 46.0427 40.8519 46.192 40.2333 46.192ZM40.8413 44.432C41.2466 44.432 41.5933 44.336 41.8813 44.144C42.1693 43.952 42.3933 43.68 42.5533 43.328C42.7133 42.9653 42.7933 42.5387 42.7933 42.048C42.7933 41.5573 42.7133 41.136 42.5533 40.784C42.3933 40.4213 42.1693 40.144 41.8813 39.952C41.5933 39.76 41.2466 39.664 40.8413 39.664C40.4466 39.664 40.0999 39.76 39.8013 39.952C39.5133 40.144 39.2893 40.4213 39.1293 40.784C38.9693 41.136 38.8893 41.5573 38.8893 42.048C38.8893 42.5387 38.9693 42.9653 39.1293 43.328C39.2893 43.68 39.5133 43.952 39.8013 44.144C40.0999 44.336 40.4466 44.432 40.8413 44.432ZM52.7428 46.192C52.2734 46.192 51.8414 46.096 51.4468 45.904C51.0521 45.7013 50.7374 45.424 50.5028 45.072C50.2788 44.7093 50.1668 44.2773 50.1668 43.776C50.1668 43.3067 50.2788 42.9013 50.5028 42.56C50.7268 42.2187 51.0628 41.9467 51.5108 41.744C51.9694 41.5413 52.5348 41.424 53.2068 41.392L55.0628 41.28V40.96C55.0628 40.6187 54.9881 40.352 54.8388 40.16C54.7001 39.968 54.5081 39.8293 54.2628 39.744C54.0281 39.6587 53.7561 39.616 53.4468 39.616C53.0841 39.616 52.7428 39.6853 52.4228 39.824C52.1028 39.952 51.8628 40.112 51.7028 40.304L50.5668 39.152C50.8548 38.7893 51.2601 38.4907 51.7828 38.256C52.3054 38.0213 52.9508 37.904 53.7188 37.904C54.4654 37.904 55.0841 38.0267 55.5748 38.272C56.0761 38.5067 56.4494 38.8427 56.6948 39.28C56.9508 39.7067 57.0788 40.2187 57.0788 40.816V46H55.1748V44.736H55.0788C54.8761 45.1733 54.5828 45.5253 54.1988 45.792C53.8148 46.0587 53.3294 46.192 52.7428 46.192ZM53.3348 44.736C53.8468 44.736 54.2628 44.592 54.5828 44.304C54.9028 44.0053 55.0628 43.5893 55.0628 43.056V42.528L53.4468 42.656C53.0308 42.6773 52.7161 42.7787 52.5028 42.96C52.3001 43.1413 52.1988 43.392 52.1988 43.712C52.1988 44.032 52.3054 44.2827 52.5188 44.464C52.7321 44.6453 53.0041 44.736 53.3348 44.736ZM62.096 46.176C61.52 46.176 61.0453 46.0747 60.672 45.872C60.2987 45.6587 60.0213 45.344 59.84 44.928C59.6693 44.5013 59.584 43.9733 59.584 43.344V39.712H58.336V38.096H59.584V35.952H61.584V38.096H63.888V39.712H61.584V43.328C61.584 43.744 61.6587 44.0427 61.808 44.224C61.968 44.3947 62.192 44.48 62.48 44.48C62.6827 44.48 62.8693 44.4427 63.04 44.368C63.2213 44.2827 63.376 44.1813 63.504 44.064L64.224 45.44C63.968 45.696 63.664 45.8827 63.312 46C62.96 46.1173 62.5547 46.176 62.096 46.176ZM68.1429 46.176C67.5669 46.176 67.0922 46.0747 66.7189 45.872C66.3455 45.6587 66.0682 45.344 65.8869 44.928C65.7162 44.5013 65.6309 43.9733 65.6309 43.344V39.712H64.3829V38.096H65.6309V35.952H67.6309V38.096H69.9349V39.712H67.6309V43.328C67.6309 43.744 67.7055 44.0427 67.8549 44.224C68.0149 44.3947 68.2389 44.48 68.5269 44.48C68.7295 44.48 68.9162 44.4427 69.0869 44.368C69.2682 44.2827 69.4229 44.1813 69.5509 44.064L70.2709 45.44C70.0149 45.696 69.7109 45.8827 69.3589 46C69.0069 46.1173 68.6015 46.176 68.1429 46.176ZM73.7115 46.192C73.2422 46.192 72.8102 46.096 72.4155 45.904C72.0208 45.7013 71.7062 45.424 71.4715 45.072C71.2475 44.7093 71.1355 44.2773 71.1355 43.776C71.1355 43.3067 71.2475 42.9013 71.4715 42.56C71.6955 42.2187 72.0315 41.9467 72.4795 41.744C72.9382 41.5413 73.5035 41.424 74.1755 41.392L76.0315 41.28V40.96C76.0315 40.6187 75.9568 40.352 75.8075 40.16C75.6688 39.968 75.4768 39.8293 75.2315 39.744C74.9968 39.6587 74.7248 39.616 74.4155 39.616C74.0528 39.616 73.7115 39.6853 73.3915 39.824C73.0715 39.952 72.8315 40.112 72.6715 40.304L71.5355 39.152C71.8235 38.7893 72.2288 38.4907 72.7515 38.256C73.2742 38.0213 73.9195 37.904 74.6875 37.904C75.4342 37.904 76.0528 38.0267 76.5435 38.272C77.0448 38.5067 77.4182 38.8427 77.6635 39.28C77.9195 39.7067 78.0475 40.2187 78.0475 40.816V46H76.1435V44.736H76.0475C75.8448 45.1733 75.5515 45.5253 75.1675 45.792C74.7835 46.0587 74.2982 46.192 73.7115 46.192ZM74.3035 44.736C74.8155 44.736 75.2315 44.592 75.5515 44.304C75.8715 44.0053 76.0315 43.5893 76.0315 43.056V42.528L74.4155 42.656C73.9995 42.6773 73.6848 42.7787 73.4715 42.96C73.2688 43.1413 73.1675 43.392 73.1675 43.712C73.1675 44.032 73.2742 44.2827 73.4875 44.464C73.7008 44.6453 73.9728 44.736 74.3035 44.736ZM83.3528 46.192C82.4568 46.192 81.7208 46 81.1448 45.616C80.5794 45.2213 80.1634 44.7093 79.8968 44.08C79.6408 43.44 79.5128 42.7627 79.5128 42.048C79.5128 41.3227 79.6408 40.6453 79.8968 40.016C80.1528 39.3867 80.5634 38.88 81.1288 38.496C81.6941 38.1013 82.4141 37.904 83.2888 37.904C83.9394 37.904 84.4994 38.0213 84.9688 38.256C85.4381 38.4907 85.8221 38.7893 86.1208 39.152L84.7768 40.368C84.5954 40.1547 84.3928 39.984 84.1688 39.856C83.9448 39.728 83.6621 39.664 83.3208 39.664C82.9581 39.664 82.6434 39.76 82.3768 39.952C82.1208 40.144 81.9181 40.416 81.7688 40.768C81.6301 41.12 81.5608 41.5467 81.5608 42.048C81.5608 42.784 81.7208 43.3653 82.0408 43.792C82.3714 44.2187 82.8088 44.432 83.3528 44.432C83.6834 44.432 83.9714 44.368 84.2168 44.24C84.4621 44.112 84.6754 43.9307 84.8568 43.696L86.1848 44.928C85.8861 45.2907 85.4968 45.5947 85.0168 45.84C84.5368 46.0747 83.9821 46.192 83.3528 46.192ZM87.5716 46V34.4H89.5876V39.168H89.6836C89.8756 38.8053 90.153 38.5067 90.5156 38.272C90.889 38.0267 91.3263 37.904 91.8276 37.904C92.8196 37.904 93.5396 38.1707 93.9876 38.704C94.4356 39.2267 94.6596 40.0213 94.6596 41.088V46H92.6436V41.488C92.6436 40.8587 92.5263 40.3893 92.2916 40.08C92.057 39.76 91.673 39.6 91.1396 39.6C90.6276 39.6 90.2383 39.7707 89.9716 40.112C89.7156 40.4427 89.5876 40.928 89.5876 41.568V46H87.5716ZM96.6497 46V38.096H98.5538V39.376H98.6498C98.8418 38.928 99.1298 38.5707 99.5138 38.304C99.8978 38.0373 100.346 37.904 100.858 37.904C101.519 37.904 102.058 38.032 102.474 38.288C102.89 38.5333 103.188 38.896 103.37 39.376C103.508 39.0773 103.695 38.8213 103.93 38.608C104.164 38.384 104.442 38.2133 104.762 38.096C105.082 37.968 105.434 37.904 105.818 37.904C106.447 37.904 106.97 38.0213 107.386 38.256C107.802 38.4907 108.106 38.8427 108.298 39.312C108.5 39.7813 108.602 40.3733 108.602 41.088V46H106.586V41.424C106.586 41.0187 106.532 40.6827 106.426 40.416C106.319 40.1387 106.159 39.936 105.946 39.808C105.732 39.6693 105.46 39.6 105.13 39.6C104.628 39.6 104.25 39.7653 103.994 40.096C103.748 40.4267 103.626 40.9013 103.626 41.52V46H101.61V41.424C101.61 41.0187 101.556 40.6827 101.45 40.416C101.354 40.1387 101.199 39.936 100.986 39.808C100.783 39.6693 100.506 39.6 100.154 39.6C99.6738 39.6 99.3058 39.7653 99.0498 40.096C98.7938 40.4267 98.6658 40.9013 98.6658 41.52V46H96.6497ZM114.027 46.192C113.152 46.192 112.416 46.0053 111.819 45.632C111.232 45.2587 110.79 44.7627 110.491 44.144C110.203 43.5147 110.059 42.816 110.059 42.048C110.059 41.4613 110.139 40.9173 110.299 40.416C110.459 39.904 110.694 39.4613 111.003 39.088C111.323 38.7147 111.723 38.4267 112.203 38.224C112.683 38.0107 113.248 37.904 113.899 37.904C114.539 37.904 115.094 38.0053 115.563 38.208C116.043 38.4107 116.438 38.6987 116.747 39.072C117.067 39.4347 117.302 39.8613 117.451 40.352C117.611 40.8427 117.691 41.3813 117.691 41.968C117.691 42.0747 117.68 42.2027 117.659 42.352C117.648 42.4907 117.632 42.5973 117.611 42.672H112.107C112.139 43.056 112.256 43.3867 112.459 43.664C112.662 43.9413 112.912 44.1547 113.211 44.304C113.51 44.4427 113.819 44.512 114.139 44.512C114.587 44.512 114.966 44.432 115.275 44.272C115.595 44.112 115.851 43.9093 116.043 43.664L117.179 44.848C116.891 45.2427 116.475 45.568 115.931 45.824C115.398 46.0693 114.763 46.192 114.027 46.192ZM113.899 39.44C113.558 39.44 113.254 39.52 112.987 39.68C112.731 39.8293 112.523 40.0373 112.363 40.304C112.214 40.5707 112.123 40.8853 112.091 41.248H115.675C115.643 40.8853 115.547 40.5707 115.387 40.304C115.238 40.0373 115.035 39.8293 114.779 39.68C114.523 39.52 114.23 39.44 113.899 39.44ZM119.259 46V38.096H121.163V39.376H121.259C121.376 39.0987 121.542 38.848 121.755 38.624C121.979 38.4 122.24 38.224 122.539 38.096C122.838 37.968 123.163 37.904 123.515 37.904C124.507 37.904 125.227 38.1707 125.675 38.704C126.123 39.2267 126.347 40.0213 126.347 41.088V46H124.331V41.488C124.331 40.8587 124.214 40.3893 123.979 40.08C123.744 39.76 123.36 39.6 122.827 39.6C122.315 39.6 121.926 39.7707 121.659 40.112C121.403 40.4427 121.275 40.928 121.275 41.568V46H119.259ZM131.409 46.176C130.833 46.176 130.358 46.0747 129.985 45.872C129.611 45.6587 129.334 45.344 129.153 44.928C128.982 44.5013 128.897 43.9733 128.897 43.344V39.712H127.649V38.096H128.897V35.952H130.897V38.096H133.201V39.712H130.897V43.328C130.897 43.744 130.971 44.0427 131.121 44.224C131.281 44.3947 131.505 44.48 131.793 44.48C131.995 44.48 132.182 44.4427 132.353 44.368C132.534 44.2827 132.689 44.1813 132.817 44.064L133.537 45.44C133.281 45.696 132.977 45.8827 132.625 46C132.273 46.1173 131.867 46.176 131.409 46.176Z" fill="black" fill-opacity="0.76"/>
<g clip-path="url(#clip1_7698_2418)">
<path d="M251 40C251 26.7452 261.745 16 275 16H344C357.255 16 368 26.7452 368 40C368 53.2548 357.255 64 344 64H275C261.745 64 251 53.2548 251 40Z" fill="#F6F3EF"/>
<path d="M251 40C251 26.7452 261.745 16 275 16H344C357.255 16 368 26.7452 368 40C368 53.2548 357.255 64 344 64H275C261.745 64 251 53.2548 251 40Z" fill="white" fill-opacity="0.01"/>
<path d="M276.52 47V34H282.18C283.034 34 283.747 34.16 284.32 34.48C284.894 34.7867 285.327 35.2133 285.62 35.76C285.914 36.3067 286.06 36.9333 286.06 37.64C286.06 37.9733 285.967 38.32 285.78 38.68C285.607 39.0267 285.36 39.34 285.04 39.62C284.734 39.9 284.367 40.1133 283.94 40.26V40.38C284.367 40.42 284.78 40.58 285.18 40.86C285.594 41.14 285.934 41.4933 286.2 41.92C286.48 42.3333 286.62 42.7733 286.62 43.24C286.62 43.9733 286.46 44.6267 286.14 45.2C285.82 45.76 285.327 46.2 284.66 46.52C283.994 46.84 283.14 47 282.1 47H276.52ZM279.9 39.26H281.52C281.76 39.26 281.967 39.2067 282.14 39.1C282.314 38.98 282.447 38.82 282.54 38.62C282.634 38.4067 282.68 38.16 282.68 37.88C282.68 37.4667 282.574 37.1333 282.36 36.88C282.147 36.6267 281.867 36.5 281.52 36.5H279.9V39.26ZM279.9 44.5H281.8C282.107 44.5 282.367 44.4467 282.58 44.34C282.794 44.22 282.954 44.0533 283.06 43.84C283.18 43.6133 283.24 43.3333 283.24 43C283.24 42.52 283.114 42.1533 282.86 41.9C282.607 41.6467 282.254 41.52 281.8 41.52H279.9V44.5ZM288.275 47V37.12H291.255V38.82H291.375C291.575 38.2067 291.895 37.7333 292.335 37.4C292.775 37.0533 293.322 36.88 293.975 36.88C294.228 36.88 294.468 36.9 294.695 36.94C294.935 36.9667 295.162 37.0133 295.375 37.08L294.575 40C294.442 39.9067 294.275 39.84 294.075 39.8C293.875 39.7467 293.682 39.72 293.495 39.72C292.908 39.72 292.422 39.8933 292.035 40.24C291.648 40.5733 291.455 41.1067 291.455 41.84V47H288.275ZM300.824 47.24C299.69 47.24 298.737 47.0067 297.964 46.54C297.204 46.06 296.63 45.4267 296.244 44.64C295.857 43.8533 295.664 42.9933 295.664 42.06C295.664 41.3533 295.77 40.6867 295.984 40.06C296.21 39.4333 296.537 38.8867 296.964 38.42C297.39 37.94 297.924 37.5667 298.564 37.3C299.217 37.02 299.97 36.88 300.824 36.88C301.957 36.88 302.904 37.12 303.664 37.6C304.424 38.0667 304.997 38.6933 305.384 39.48C305.77 40.2533 305.964 41.1133 305.964 42.06C305.964 42.7667 305.857 43.4333 305.644 44.06C305.43 44.6867 305.104 45.24 304.664 45.72C304.237 46.1867 303.704 46.56 303.064 46.84C302.424 47.1067 301.677 47.24 300.824 47.24ZM298.904 42.06C298.904 42.62 298.984 43.1 299.144 43.5C299.317 43.8867 299.544 44.1867 299.824 44.4C300.117 44.6 300.45 44.7 300.824 44.7C301.197 44.7 301.524 44.6 301.804 44.4C302.084 44.1867 302.304 43.8867 302.464 43.5C302.637 43.1 302.724 42.62 302.724 42.06C302.724 41.4867 302.637 41.0067 302.464 40.62C302.304 40.2333 302.084 39.94 301.804 39.74C301.524 39.5267 301.197 39.42 300.824 39.42C300.45 39.42 300.117 39.5267 299.824 39.74C299.544 39.94 299.317 40.2333 299.144 40.62C298.984 41.0067 298.904 41.4867 298.904 42.06ZM309.82 47L306.42 37.12H309.96L311.5 43.4H311.62L313.2 37.12H316.68L318.26 43.4H318.38L319.92 37.12H323.26L319.86 47H316.58L314.86 40.34H314.74L313.02 47H309.82ZM327.948 47.24C326.894 47.24 326.008 47.1067 325.288 46.84C324.568 46.56 324.034 46.2133 323.688 45.8L325.268 44C325.574 44.2933 325.954 44.5133 326.408 44.66C326.861 44.8067 327.314 44.88 327.768 44.88C328.194 44.88 328.521 44.8067 328.748 44.66C328.988 44.5133 329.108 44.3 329.108 44.02C329.108 43.8333 329.021 43.6867 328.848 43.58C328.674 43.4733 328.421 43.38 328.088 43.3C327.768 43.22 327.381 43.1333 326.928 43.04C326.421 42.92 325.941 42.7467 325.488 42.52C325.048 42.2933 324.694 41.98 324.428 41.58C324.161 41.18 324.028 40.6733 324.028 40.06C324.028 39.38 324.208 38.8067 324.568 38.34C324.941 37.86 325.448 37.5 326.088 37.26C326.741 37.0067 327.481 36.88 328.308 36.88C329.294 36.88 330.121 37.02 330.788 37.3C331.454 37.58 331.948 37.9133 332.268 38.3L330.608 40.1C330.368 39.8467 330.054 39.64 329.668 39.48C329.281 39.32 328.901 39.24 328.528 39.24C328.181 39.24 327.881 39.3 327.628 39.42C327.374 39.5267 327.248 39.72 327.248 40C327.248 40.1867 327.334 40.3333 327.508 40.44C327.681 40.5467 327.928 40.64 328.248 40.72C328.581 40.7867 328.974 40.8733 329.428 40.98C329.948 41.0867 330.428 41.26 330.868 41.5C331.308 41.7267 331.661 42.04 331.928 42.44C332.194 42.84 332.328 43.3467 332.328 43.96C332.328 44.64 332.141 45.2267 331.768 45.72C331.394 46.2133 330.881 46.5933 330.228 46.86C329.574 47.1133 328.814 47.24 327.948 47.24ZM338.499 47.24C337.299 47.24 336.319 46.9933 335.559 46.5C334.799 45.9933 334.239 45.3467 333.879 44.56C333.532 43.7733 333.359 42.94 333.359 42.06C333.359 41.3933 333.446 40.7533 333.619 40.14C333.806 39.5267 334.092 38.9733 334.479 38.48C334.866 37.9867 335.372 37.6 335.999 37.32C336.639 37.0267 337.412 36.88 338.319 36.88C339.226 36.88 339.992 37.02 340.619 37.3C341.246 37.58 341.746 37.9667 342.119 38.46C342.506 38.94 342.779 39.4867 342.939 40.1C343.112 40.7 343.199 41.3267 343.199 41.98C343.199 42.1267 343.186 42.32 343.159 42.56C343.132 42.7867 343.099 42.96 343.059 43.08H336.579C336.659 43.4667 336.812 43.7733 337.039 44C337.279 44.2267 337.546 44.3933 337.839 44.5C338.146 44.5933 338.426 44.64 338.679 44.64C339.146 44.64 339.546 44.5667 339.879 44.42C340.226 44.2733 340.492 44.08 340.679 43.84L342.419 45.66C342.099 46.1133 341.592 46.4933 340.899 46.8C340.206 47.0933 339.406 47.24 338.499 47.24ZM338.319 39.24C338.039 39.24 337.772 39.3 337.519 39.42C337.279 39.5267 337.066 39.7067 336.879 39.96C336.706 40.2133 336.586 40.5533 336.519 40.98H340.079C340.026 40.5533 339.906 40.2133 339.719 39.96C339.546 39.7067 339.339 39.5267 339.099 39.42C338.859 39.3 338.599 39.24 338.319 39.24Z" fill="black" fill-opacity="0.76"/>
</g>
</g>
<path d="M12 0.5H372C378.351 0.5 383.5 5.64873 383.5 12V68C383.5 74.3513 378.351 79.5 372 79.5H12C5.64873 79.5 0.5 74.3513 0.5 68V12C0.5 5.64873 5.64873 0.5 12 0.5Z" stroke="#F0ECE6"/>
<defs>
<clipPath id="clip0_7698_2418">
<path d="M0 12C0 5.37258 5.37258 0 12 0H372C378.627 0 384 5.37258 384 12V68C384 74.6274 378.627 80 372 80H12C5.37258 80 0 74.6274 0 68V12Z" fill="white"/>
</clipPath>
<clipPath id="clip1_7698_2418">
<path d="M251 40C251 26.7452 261.745 16 275 16H344C357.255 16 368 26.7452 368 40C368 53.2548 357.255 64 344 64H275C261.745 64 251 53.2548 251 40Z" fill="white"/>
</clipPath>
</defs>
</svg>
