<svg width="420" height="316" viewBox="0 0 420 316" fill="none" xmlns="http://www.w3.org/2000/svg">
<g filter="url(#filter0_ddd_7698_2414)">
<g clip-path="url(#clip0_7698_2414)">
<path d="M14 28C14 19.1635 21.1634 12 30 12H390C398.837 12 406 19.1634 406 28V284C406 292.837 398.837 300 390 300H30C21.1634 300 14 292.837 14 284V28Z" fill="white"/>
<rect width="392" height="72" transform="translate(14 12)" fill="white"/>
<rect width="392" height="72" transform="translate(14 12)" fill="white" fill-opacity="0.01"/>
<path d="M39.152 56V40.4H45.92L49.064 50.36H49.208L52.352 40.4H59V56H54.512V46.04H54.368L51.128 56H46.928L43.688 46.04H43.544V56H39.152ZM66.9404 56.288C65.5324 56.288 64.3484 56.008 63.3884 55.448C62.4444 54.872 61.7324 54.112 61.2524 53.168C60.7884 52.224 60.5564 51.192 60.5564 50.072C60.5564 49.224 60.6924 48.432 60.9644 47.696C61.2364 46.944 61.6364 46.28 62.1644 45.704C62.6924 45.128 63.3564 44.68 64.1564 44.36C64.9564 44.024 65.8844 43.856 66.9404 43.856C68.3324 43.856 69.5004 44.144 70.4444 44.72C71.3884 45.28 72.1004 46.032 72.5804 46.976C73.0764 47.92 73.3244 48.952 73.3244 50.072C73.3244 50.904 73.1884 51.696 72.9164 52.448C72.6444 53.2 72.2364 53.864 71.6924 54.44C71.1644 55.016 70.5004 55.472 69.7004 55.808C68.9004 56.128 67.9804 56.288 66.9404 56.288ZM65.1404 50.072C65.1404 50.664 65.2124 51.168 65.3564 51.584C65.5164 51.984 65.7324 52.288 66.0044 52.496C66.2764 52.688 66.5884 52.784 66.9404 52.784C67.2924 52.784 67.5964 52.688 67.8524 52.496C68.1244 52.288 68.3324 51.984 68.4764 51.584C68.6364 51.168 68.7164 50.664 68.7164 50.072C68.7164 49.464 68.6364 48.96 68.4764 48.56C68.3324 48.16 68.1244 47.864 67.8524 47.672C67.5964 47.464 67.2924 47.36 66.9404 47.36C66.5884 47.36 66.2764 47.464 66.0044 47.672C65.7324 47.864 65.5164 48.16 65.3564 48.56C65.2124 48.96 65.1404 49.464 65.1404 50.072ZM79.1428 56.288C78.2468 56.288 77.4148 56.04 76.6468 55.544C75.8948 55.048 75.2948 54.344 74.8468 53.432C74.3988 52.52 74.1748 51.456 74.1748 50.24C74.1748 48.96 74.3988 47.84 74.8468 46.88C75.2948 45.92 75.8948 45.176 76.6468 44.648C77.4148 44.12 78.2468 43.856 79.1428 43.856C79.9748 43.856 80.6628 44.056 81.2068 44.456C81.7668 44.856 82.1588 45.376 82.3828 46.016H82.5268V38.6H87.0388V56H82.7668V53.984H82.6228C82.3188 54.72 81.8708 55.288 81.2788 55.688C80.6868 56.088 79.9748 56.288 79.1428 56.288ZM80.6548 52.496C81.1188 52.496 81.4868 52.376 81.7588 52.136C82.0468 51.896 82.2468 51.592 82.3588 51.224C82.4868 50.856 82.5508 50.472 82.5508 50.072C82.5508 49.672 82.4868 49.288 82.3588 48.92C82.2468 48.552 82.0468 48.248 81.7588 48.008C81.4868 47.768 81.1188 47.648 80.6548 47.648C80.2068 47.648 79.8468 47.768 79.5748 48.008C79.3028 48.248 79.1028 48.552 78.9748 48.92C78.8468 49.288 78.7828 49.672 78.7828 50.072C78.7828 50.472 78.8468 50.856 78.9748 51.224C79.1028 51.592 79.3028 51.896 79.5748 52.136C79.8468 52.376 80.2068 52.496 80.6548 52.496ZM92.2876 56.288C91.6316 56.288 90.9996 56.152 90.3916 55.88C89.7836 55.592 89.2876 55.184 88.9036 54.656C88.5196 54.112 88.3276 53.44 88.3276 52.64C88.3276 51.92 88.5036 51.304 88.8556 50.792C89.2076 50.264 89.7516 49.856 90.4876 49.568C91.2396 49.28 92.1996 49.104 93.3676 49.04L95.6956 48.896V48.752C95.6956 48.4 95.5916 48.136 95.3836 47.96C95.1916 47.768 94.9276 47.632 94.5916 47.552C94.2716 47.472 93.9356 47.432 93.5836 47.432C93.1036 47.432 92.6396 47.512 92.1916 47.672C91.7436 47.832 91.3916 48.048 91.1356 48.32L88.7836 45.824C89.3116 45.216 90.0236 44.736 90.9196 44.384C91.8316 44.032 92.9756 43.856 94.3516 43.856C95.5036 43.856 96.5116 44.024 97.3756 44.36C98.2556 44.696 98.9436 45.208 99.4396 45.896C99.9356 46.584 100.184 47.456 100.184 48.512V56H95.9596V54.248H95.8156C95.5116 54.84 95.0716 55.328 94.4956 55.712C93.9196 56.096 93.1836 56.288 92.2876 56.288ZM94.0876 53.432C94.5516 53.432 94.9356 53.304 95.2396 53.048C95.5436 52.776 95.6956 52.352 95.6956 51.776V51.248L94.0636 51.368C93.6476 51.384 93.3436 51.496 93.1516 51.704C92.9596 51.912 92.8636 52.16 92.8636 52.448C92.8636 52.784 92.9836 53.032 93.2236 53.192C93.4796 53.352 93.7676 53.432 94.0876 53.432ZM102.007 56V38.6H106.519V56H102.007Z" fill="black" fill-opacity="0.76"/>
<path d="M38 96C38 91.5817 41.5817 88 46 88H374C378.418 88 382 91.5817 382 96V184C382 188.418 378.418 192 374 192H46C41.5817 192 38 188.418 38 184V96Z" fill="black" fill-opacity="0.04"/>
<path d="M372 88V88.5H374C374.501 88.5 374.991 88.549 375.464 88.6426L375.561 88.1523C376.61 88.3599 377.586 88.773 378.444 89.3477L378.167 89.7627C378.985 90.3104 379.69 91.0149 380.237 91.833L380.651 91.5547C381.226 92.4131 381.639 93.3888 381.847 94.4385L381.357 94.5361C381.451 95.0092 381.5 95.4986 381.5 96V98H382V102H381.5V106H382V110H381.5V114H382V118H381.5V122H382V126H381.5V130H382V134H381.5V138H382V142H381.5V146H382V150H381.5V154H382V158H381.5V162H382V166H381.5V170H382V174H381.5V178H382V182H381.5V184C381.5 184.501 381.451 184.991 381.357 185.464L381.847 185.561C381.639 186.61 381.226 187.586 380.651 188.444L380.237 188.167C379.69 188.985 378.985 189.69 378.167 190.237L378.444 190.651C377.586 191.226 376.61 191.639 375.561 191.847L375.464 191.357C374.991 191.451 374.501 191.5 374 191.5H372V192H368V191.5H364V192H360V191.5H356V192H352V191.5H348V192H344V191.5H340V192H336V191.5H332V192H328V191.5H324V192H320V191.5H316V192H312V191.5H308V192H304V191.5H300V192H296V191.5H292V192H288V191.5H284V192H280V191.5H276V192H272V191.5H268V192H264V191.5H260V192H256V191.5H252V192H248V191.5H244V192H240V191.5H236V192H232V191.5H228V192H224V191.5H220V192H216V191.5H212V192H208V191.5H204V192H200V191.5H196V192H192V191.5H188V192H184V191.5H180V192H176V191.5H172V192H168V191.5H164V192H160V191.5H156V192H152V191.5H148V192H144V191.5H140V192H136V191.5H132V192H128V191.5H124V192H120V191.5H116V192H112V191.5H108V192H104V191.5H100V192H96V191.5H92V192H88V191.5H84V192H80V191.5H76V192H72V191.5H68V192H64V191.5H60V192H56V191.5H52V192H48V191.5H46C45.4986 191.5 45.0092 191.451 44.5361 191.357L44.4385 191.847C43.3888 191.639 42.4131 191.226 41.5547 190.651L41.833 190.237C41.0149 189.69 40.3104 188.985 39.7627 188.167L39.3477 188.444C38.773 187.586 38.3599 186.61 38.1523 185.561L38.6426 185.464C38.549 184.991 38.5 184.501 38.5 184V182H38V178H38.5V174H38V170H38.5V166H38V162H38.5V158H38V154H38.5V150H38V146H38.5V142H38V138H38.5V134H38V130H38.5V126H38V122H38.5V118H38V114H38.5V110H38V106H38.5V102H38V98H38.5V96C38.5 95.4986 38.549 95.0092 38.6426 94.5361L38.1523 94.4385C38.36 93.3889 38.7729 92.413 39.3477 91.5547L39.7627 91.833C40.3104 91.0149 41.0149 90.3104 41.833 89.7627L41.5547 89.3477C42.413 88.7729 43.3889 88.36 44.4385 88.1523L44.5361 88.6426C45.0092 88.549 45.4986 88.5 46 88.5H48V88H52V88.5H56V88H60V88.5H64V88H68V88.5H72V88H76V88.5H80V88H84V88.5H88V88H92V88.5H96V88H100V88.5H104V88H108V88.5H112V88H116V88.5H120V88H124V88.5H128V88H132V88.5H136V88H140V88.5H144V88H148V88.5H152V88H156V88.5H160V88H164V88.5H168V88H172V88.5H176V88H180V88.5H184V88H188V88.5H192V88H196V88.5H200V88H204V88.5H208V88H212V88.5H216V88H220V88.5H224V88H228V88.5H232V88H236V88.5H240V88H244V88.5H248V88H252V88.5H256V88H260V88.5H264V88H268V88.5H272V88H276V88.5H280V88H284V88.5H288V88H292V88.5H296V88H300V88.5H304V88H308V88.5H312V88H316V88.5H320V88H324V88.5H328V88H332V88.5H336V88H340V88.5H344V88H348V88.5H352V88H356V88.5H360V88H364V88.5H368V88H372Z" stroke="black" stroke-opacity="0.76" stroke-dasharray="4 4"/>
<path d="M200.031 118.192C199.092 118.192 198.308 118.043 197.679 117.744C197.06 117.445 196.548 117.056 196.143 116.576L197.519 115.296C197.818 115.616 198.17 115.888 198.575 116.112C198.98 116.325 199.482 116.432 200.079 116.432C200.41 116.432 200.708 116.389 200.975 116.304C201.242 116.208 201.455 116.064 201.615 115.872C201.786 115.669 201.871 115.408 201.871 115.088C201.871 114.8 201.775 114.571 201.583 114.4C201.391 114.219 201.108 114.064 200.735 113.936C200.372 113.808 199.935 113.669 199.423 113.52C199.06 113.403 198.703 113.269 198.351 113.12C198.01 112.971 197.7 112.784 197.423 112.56C197.146 112.325 196.922 112.043 196.751 111.712C196.591 111.371 196.511 110.96 196.511 110.48C196.511 109.989 196.602 109.557 196.783 109.184C196.975 108.8 197.242 108.48 197.583 108.224C197.924 107.957 198.324 107.755 198.783 107.616C199.252 107.477 199.77 107.408 200.335 107.408C201.178 107.408 201.903 107.547 202.511 107.824C203.119 108.091 203.604 108.475 203.967 108.976L202.591 110.272C202.335 109.963 202.02 109.701 201.647 109.488C201.284 109.275 200.842 109.168 200.319 109.168C200.042 109.168 199.775 109.211 199.519 109.296C199.274 109.381 199.071 109.515 198.911 109.696C198.762 109.877 198.687 110.117 198.687 110.416C198.687 110.715 198.783 110.949 198.975 111.12C199.167 111.291 199.444 111.44 199.807 111.568C200.18 111.696 200.618 111.84 201.119 112C201.492 112.117 201.85 112.251 202.191 112.4C202.543 112.549 202.858 112.741 203.135 112.976C203.412 113.2 203.631 113.483 203.791 113.824C203.962 114.155 204.047 114.56 204.047 115.04C204.047 115.552 203.946 116.005 203.743 116.4C203.551 116.784 203.274 117.115 202.911 117.392C202.559 117.659 202.138 117.861 201.647 118C201.156 118.128 200.618 118.192 200.031 118.192ZM205.72 118V106.4H207.736V118H205.72ZM213.301 118.192C212.426 118.192 211.69 118.005 211.093 117.632C210.506 117.248 210.063 116.741 209.765 116.112C209.466 115.483 209.317 114.795 209.317 114.048C209.317 113.483 209.402 112.949 209.573 112.448C209.743 111.947 209.994 111.509 210.325 111.136C210.655 110.752 211.066 110.453 211.557 110.24C212.058 110.016 212.639 109.904 213.301 109.904C214.186 109.904 214.917 110.096 215.493 110.48C216.079 110.853 216.517 111.355 216.805 111.984C217.103 112.603 217.253 113.291 217.253 114.048C217.253 114.613 217.167 115.147 216.997 115.648C216.837 116.149 216.591 116.592 216.261 116.976C215.93 117.349 215.519 117.648 215.029 117.872C214.538 118.085 213.962 118.192 213.301 118.192ZM211.381 114.048C211.381 114.56 211.455 115.008 211.605 115.392C211.765 115.765 211.983 116.053 212.261 116.256C212.549 116.459 212.895 116.56 213.301 116.56C213.706 116.56 214.047 116.459 214.325 116.256C214.602 116.053 214.815 115.765 214.965 115.392C215.125 115.008 215.205 114.56 215.205 114.048C215.205 113.525 215.125 113.077 214.965 112.704C214.815 112.331 214.602 112.043 214.325 111.84C214.047 111.637 213.706 111.536 213.301 111.536C212.895 111.536 212.549 111.637 212.261 111.84C211.983 112.043 211.765 112.331 211.605 112.704C211.455 113.077 211.381 113.525 211.381 114.048ZM221.854 118.176C221.278 118.176 220.803 118.075 220.43 117.872C220.056 117.659 219.779 117.344 219.598 116.928C219.427 116.501 219.342 115.973 219.342 115.344V111.712H218.094V110.096H219.342V107.952H221.342V110.096H223.646V111.712H221.342V115.328C221.342 115.744 221.416 116.043 221.566 116.224C221.726 116.395 221.95 116.48 222.238 116.48C222.44 116.48 222.627 116.443 222.798 116.368C222.979 116.283 223.134 116.181 223.262 116.064L223.982 117.44C223.726 117.696 223.422 117.883 223.07 118C222.718 118.117 222.312 118.176 221.854 118.176Z" fill="black" fill-opacity="0.76"/>
<path d="M138.516 150V140.752H135.556V139.6H142.836V140.752H139.876V150H138.516ZM144.579 150V138.4H145.859V143.216H145.955C146.136 142.853 146.397 142.544 146.739 142.288C147.091 142.032 147.528 141.904 148.051 141.904C148.957 141.904 149.672 142.144 150.195 142.624C150.728 143.093 150.995 143.867 150.995 144.944V150H149.715V145.184C149.715 144.373 149.549 143.803 149.219 143.472C148.899 143.131 148.424 142.96 147.795 142.96C147.197 142.96 146.723 143.168 146.371 143.584C146.029 144 145.859 144.608 145.859 145.408V150H144.579ZM153.485 150V142.096H154.765V150H153.485ZM154.125 140.816C153.858 140.816 153.65 140.736 153.501 140.576C153.352 140.416 153.277 140.224 153.277 140C153.277 139.787 153.352 139.6 153.501 139.44C153.65 139.269 153.858 139.184 154.125 139.184C154.381 139.184 154.584 139.269 154.733 139.44C154.893 139.6 154.973 139.787 154.973 140C154.973 140.224 154.893 140.416 154.733 140.576C154.584 140.736 154.381 140.816 154.125 140.816ZM159.629 150.192C158.946 150.192 158.36 150.075 157.869 149.84C157.378 149.605 156.994 149.301 156.717 148.928L157.565 148.128C157.81 148.416 158.093 148.651 158.413 148.832C158.744 149.013 159.154 149.104 159.645 149.104C160.082 149.104 160.466 149.013 160.797 148.832C161.128 148.64 161.293 148.347 161.293 147.952C161.293 147.643 161.197 147.403 161.005 147.232C160.824 147.051 160.584 146.907 160.285 146.8C159.986 146.683 159.666 146.576 159.325 146.48C158.93 146.363 158.557 146.219 158.205 146.048C157.864 145.867 157.581 145.632 157.357 145.344C157.144 145.045 157.037 144.667 157.037 144.208C157.037 143.707 157.154 143.285 157.389 142.944C157.634 142.603 157.96 142.347 158.365 142.176C158.781 141.995 159.245 141.904 159.757 141.904C160.322 141.904 160.85 142.011 161.341 142.224C161.832 142.427 162.226 142.747 162.525 143.184L161.693 143.952C161.458 143.675 161.181 143.445 160.861 143.264C160.552 143.083 160.184 142.992 159.757 142.992C159.394 142.992 159.058 143.083 158.749 143.264C158.44 143.435 158.285 143.712 158.285 144.096C158.285 144.405 158.376 144.651 158.557 144.832C158.749 145.003 158.994 145.141 159.293 145.248C159.592 145.355 159.912 145.461 160.253 145.568C160.648 145.685 161.016 145.835 161.357 146.016C161.709 146.187 161.992 146.416 162.205 146.704C162.429 146.992 162.541 147.371 162.541 147.84C162.541 148.384 162.408 148.832 162.141 149.184C161.874 149.525 161.517 149.781 161.069 149.952C160.632 150.112 160.152 150.192 159.629 150.192ZM168.594 150V142.096H169.874V150H168.594ZM169.234 140.816C168.968 140.816 168.76 140.736 168.61 140.576C168.461 140.416 168.386 140.224 168.386 140C168.386 139.787 168.461 139.6 168.61 139.44C168.76 139.269 168.968 139.184 169.234 139.184C169.49 139.184 169.693 139.269 169.842 139.44C170.002 139.6 170.082 139.787 170.082 140C170.082 140.224 170.002 140.416 169.842 140.576C169.693 140.736 169.49 140.816 169.234 140.816ZM174.738 150.192C174.056 150.192 173.469 150.075 172.978 149.84C172.488 149.605 172.104 149.301 171.826 148.928L172.674 148.128C172.92 148.416 173.202 148.651 173.522 148.832C173.853 149.013 174.264 149.104 174.754 149.104C175.192 149.104 175.576 149.013 175.906 148.832C176.237 148.64 176.402 148.347 176.402 147.952C176.402 147.643 176.306 147.403 176.114 147.232C175.933 147.051 175.693 146.907 175.394 146.8C175.096 146.683 174.776 146.576 174.434 146.48C174.04 146.363 173.666 146.219 173.314 146.048C172.973 145.867 172.69 145.632 172.466 145.344C172.253 145.045 172.146 144.667 172.146 144.208C172.146 143.707 172.264 143.285 172.498 142.944C172.744 142.603 173.069 142.347 173.474 142.176C173.89 141.995 174.354 141.904 174.866 141.904C175.432 141.904 175.96 142.011 176.45 142.224C176.941 142.427 177.336 142.747 177.634 143.184L176.802 143.952C176.568 143.675 176.29 143.445 175.97 143.264C175.661 143.083 175.293 142.992 174.866 142.992C174.504 142.992 174.168 143.083 173.858 143.264C173.549 143.435 173.394 143.712 173.394 144.096C173.394 144.405 173.485 144.651 173.666 144.832C173.858 145.003 174.104 145.141 174.402 145.248C174.701 145.355 175.021 145.461 175.362 145.568C175.757 145.685 176.125 145.835 176.466 146.016C176.818 146.187 177.101 146.416 177.314 146.704C177.538 146.992 177.65 147.371 177.65 147.84C177.65 148.384 177.517 148.832 177.25 149.184C176.984 149.525 176.626 149.781 176.178 149.952C175.741 150.112 175.261 150.192 174.738 150.192ZM185.448 150.192C184.968 150.192 184.536 150.091 184.152 149.888C183.778 149.685 183.485 149.403 183.272 149.04C183.058 148.677 182.952 148.261 182.952 147.792C182.952 147.333 183.058 146.939 183.272 146.608C183.496 146.267 183.821 145.995 184.248 145.792C184.674 145.589 185.186 145.472 185.784 145.44L187.864 145.312V144.752C187.864 144.347 187.794 144.021 187.656 143.776C187.528 143.52 187.336 143.333 187.08 143.216C186.834 143.088 186.53 143.024 186.168 143.024C185.709 143.024 185.314 143.109 184.984 143.28C184.653 143.451 184.397 143.637 184.216 143.84L183.448 143.072C183.725 142.731 184.104 142.453 184.584 142.24C185.064 142.016 185.602 141.904 186.2 141.904C186.925 141.904 187.501 142.027 187.928 142.272C188.354 142.517 188.658 142.848 188.84 143.264C189.032 143.669 189.128 144.123 189.128 144.624V150H187.928V148.656H187.832C187.629 149.125 187.33 149.499 186.936 149.776C186.541 150.053 186.045 150.192 185.448 150.192ZM185.64 149.104C186.301 149.104 186.834 148.912 187.24 148.528C187.656 148.133 187.864 147.611 187.864 146.96V146.272L185.848 146.416C185.325 146.459 184.925 146.592 184.648 146.816C184.381 147.04 184.248 147.355 184.248 147.76C184.248 148.165 184.376 148.491 184.632 148.736C184.898 148.981 185.234 149.104 185.64 149.104ZM195.548 152.96V142.096H196.764V143.712H196.86C197.041 143.168 197.382 142.731 197.884 142.4C198.385 142.069 198.961 141.904 199.612 141.904C200.316 141.904 200.929 142.085 201.452 142.448C201.974 142.8 202.38 143.291 202.668 143.92C202.966 144.549 203.116 145.264 203.116 146.064C203.116 146.864 202.966 147.573 202.668 148.192C202.38 148.811 201.974 149.301 201.452 149.664C200.929 150.016 200.316 150.192 199.612 150.192C198.961 150.192 198.401 150.037 197.932 149.728C197.462 149.419 197.126 149.024 196.924 148.544H196.828V152.96H195.548ZM199.292 149.04C199.761 149.04 200.182 148.933 200.556 148.72C200.94 148.496 201.244 148.16 201.468 147.712C201.692 147.264 201.804 146.709 201.804 146.048C201.804 145.376 201.692 144.821 201.468 144.384C201.244 143.936 200.94 143.605 200.556 143.392C200.182 143.168 199.761 143.056 199.292 143.056C198.844 143.056 198.433 143.168 198.06 143.392C197.686 143.605 197.388 143.936 197.164 144.384C196.94 144.821 196.828 145.376 196.828 146.048C196.828 146.709 196.94 147.264 197.164 147.712C197.388 148.16 197.686 148.496 198.06 148.72C198.433 148.933 198.844 149.04 199.292 149.04ZM205.173 150V138.4H206.453V150H205.173ZM210.917 150.192C210.437 150.192 210.005 150.091 209.621 149.888C209.247 149.685 208.954 149.403 208.741 149.04C208.527 148.677 208.421 148.261 208.421 147.792C208.421 147.333 208.527 146.939 208.741 146.608C208.965 146.267 209.29 145.995 209.717 145.792C210.143 145.589 210.655 145.472 211.253 145.44L213.333 145.312V144.752C213.333 144.347 213.263 144.021 213.125 143.776C212.997 143.52 212.805 143.333 212.549 143.216C212.303 143.088 211.999 143.024 211.637 143.024C211.178 143.024 210.783 143.109 210.453 143.28C210.122 143.451 209.866 143.637 209.685 143.84L208.917 143.072C209.194 142.731 209.573 142.453 210.053 142.24C210.533 142.016 211.071 141.904 211.669 141.904C212.394 141.904 212.97 142.027 213.397 142.272C213.823 142.517 214.127 142.848 214.309 143.264C214.501 143.669 214.597 144.123 214.597 144.624V150H213.397V148.656H213.301C213.098 149.125 212.799 149.499 212.405 149.776C212.01 150.053 211.514 150.192 210.917 150.192ZM211.109 149.104C211.77 149.104 212.303 148.912 212.709 148.528C213.125 148.133 213.333 147.611 213.333 146.96V146.272L211.317 146.416C210.794 146.459 210.394 146.592 210.117 146.816C209.85 147.04 209.717 147.355 209.717 147.76C209.717 148.165 209.845 148.491 210.101 148.736C210.367 148.981 210.703 149.104 211.109 149.104ZM220.181 150.192C219.327 150.192 218.629 149.995 218.085 149.6C217.541 149.205 217.141 148.693 216.885 148.064C216.639 147.424 216.517 146.752 216.517 146.048C216.517 145.333 216.639 144.661 216.885 144.032C217.13 143.403 217.519 142.891 218.053 142.496C218.597 142.101 219.295 141.904 220.149 141.904C220.81 141.904 221.354 142.016 221.781 142.24C222.218 142.464 222.586 142.763 222.885 143.136L222.085 143.888C221.829 143.611 221.557 143.397 221.269 143.248C220.991 143.088 220.629 143.008 220.181 143.008C219.722 143.008 219.311 143.131 218.949 143.376C218.597 143.621 218.319 143.973 218.117 144.432C217.925 144.88 217.829 145.419 217.829 146.048C217.829 146.987 218.053 147.728 218.501 148.272C218.949 148.816 219.519 149.088 220.213 149.088C220.639 149.088 221.007 149.013 221.317 148.864C221.626 148.704 221.914 148.475 222.181 148.176L222.949 148.944C222.65 149.317 222.271 149.621 221.813 149.856C221.365 150.08 220.821 150.192 220.181 150.192ZM227.745 150.192C226.988 150.192 226.326 150.027 225.761 149.696C225.206 149.365 224.774 148.891 224.465 148.272C224.156 147.643 224.001 146.901 224.001 146.048C224.001 145.376 224.086 144.784 224.257 144.272C224.438 143.749 224.689 143.317 225.009 142.976C225.34 142.624 225.724 142.357 226.161 142.176C226.609 141.995 227.1 141.904 227.633 141.904C228.166 141.904 228.652 141.989 229.089 142.16C229.537 142.331 229.921 142.587 230.241 142.928C230.572 143.259 230.828 143.68 231.009 144.192C231.19 144.693 231.281 145.28 231.281 145.952C231.281 146.037 231.276 146.123 231.265 146.208C231.265 146.293 231.26 146.363 231.249 146.416H225.281C225.292 146.907 225.409 147.355 225.633 147.76C225.857 148.165 226.156 148.491 226.529 148.736C226.913 148.971 227.34 149.088 227.809 149.088C228.374 149.088 228.844 148.976 229.217 148.752C229.59 148.528 229.9 148.256 230.145 147.936L230.913 148.72C230.582 149.168 230.161 149.525 229.649 149.792C229.137 150.059 228.502 150.192 227.745 150.192ZM227.633 142.96C227.132 142.96 226.71 143.077 226.369 143.312C226.028 143.547 225.766 143.845 225.585 144.208C225.414 144.571 225.324 144.949 225.313 145.344H229.937C229.926 144.949 229.83 144.571 229.649 144.208C229.478 143.845 229.222 143.547 228.881 143.312C228.55 143.077 228.134 142.96 227.633 142.96ZM233.344 150V138.4H234.624V143.216H234.72C234.902 142.853 235.163 142.544 235.504 142.288C235.856 142.032 236.294 141.904 236.816 141.904C237.723 141.904 238.438 142.144 238.96 142.624C239.494 143.093 239.76 143.867 239.76 144.944V150H238.48V145.184C238.48 144.373 238.315 143.803 237.984 143.472C237.664 143.131 237.19 142.96 236.56 142.96C235.963 142.96 235.488 143.168 235.136 143.584C234.795 144 234.624 144.608 234.624 145.408V150H233.344ZM245.371 150.192C244.528 150.192 243.824 150.005 243.259 149.632C242.704 149.259 242.288 148.757 242.011 148.128C241.733 147.499 241.595 146.805 241.595 146.048C241.595 145.472 241.669 144.933 241.819 144.432C241.979 143.931 242.213 143.493 242.523 143.12C242.843 142.736 243.237 142.437 243.707 142.224C244.187 142.011 244.741 141.904 245.371 141.904C246.213 141.904 246.907 142.091 247.451 142.464C248.005 142.837 248.416 143.339 248.683 143.968C248.96 144.587 249.099 145.28 249.099 146.048C249.099 146.624 249.019 147.163 248.859 147.664C248.709 148.165 248.48 148.608 248.171 148.992C247.861 149.365 247.472 149.659 247.003 149.872C246.544 150.085 246 150.192 245.371 150.192ZM242.907 146.048C242.907 146.656 242.997 147.195 243.179 147.664C243.36 148.123 243.632 148.485 243.995 148.752C244.357 149.008 244.816 149.136 245.371 149.136C245.915 149.136 246.363 149.008 246.715 148.752C247.077 148.485 247.344 148.123 247.515 147.664C247.696 147.195 247.787 146.656 247.787 146.048C247.787 145.44 247.696 144.907 247.515 144.448C247.344 143.979 247.077 143.616 246.715 143.36C246.363 143.093 245.915 142.96 245.371 142.96C244.816 142.96 244.357 143.093 243.995 143.36C243.632 143.616 243.36 143.979 243.179 144.448C242.997 144.907 242.907 145.44 242.907 146.048ZM251.157 150V138.4H252.437V150H251.157ZM258.005 150.192C257.301 150.192 256.688 150.011 256.165 149.648C255.642 149.285 255.232 148.795 254.933 148.176C254.645 147.547 254.501 146.832 254.501 146.032C254.501 145.232 254.645 144.523 254.933 143.904C255.232 143.275 255.642 142.784 256.165 142.432C256.688 142.08 257.301 141.904 258.005 141.904C258.656 141.904 259.216 142.059 259.685 142.368C260.154 142.677 260.49 143.072 260.693 143.552H260.789V138.4H262.069V150H260.853V148.384H260.757C260.576 148.928 260.234 149.365 259.733 149.696C259.232 150.027 258.656 150.192 258.005 150.192ZM258.325 149.04C258.784 149.04 259.194 148.933 259.557 148.72C259.93 148.496 260.229 148.16 260.453 147.712C260.677 147.264 260.789 146.709 260.789 146.048C260.789 145.376 260.677 144.821 260.453 144.384C260.229 143.936 259.93 143.605 259.557 143.392C259.194 143.168 258.784 143.056 258.325 143.056C257.856 143.056 257.429 143.168 257.045 143.392C256.672 143.605 256.373 143.936 256.149 144.384C255.925 144.821 255.813 145.376 255.813 146.048C255.813 146.709 255.925 147.264 256.149 147.712C256.373 148.16 256.672 148.496 257.045 148.72C257.429 148.933 257.856 149.04 258.325 149.04ZM267.87 150.192C267.113 150.192 266.451 150.027 265.886 149.696C265.331 149.365 264.899 148.891 264.59 148.272C264.281 147.643 264.126 146.901 264.126 146.048C264.126 145.376 264.211 144.784 264.382 144.272C264.563 143.749 264.814 143.317 265.134 142.976C265.465 142.624 265.849 142.357 266.286 142.176C266.734 141.995 267.225 141.904 267.758 141.904C268.291 141.904 268.777 141.989 269.214 142.16C269.662 142.331 270.046 142.587 270.366 142.928C270.697 143.259 270.953 143.68 271.134 144.192C271.315 144.693 271.406 145.28 271.406 145.952C271.406 146.037 271.401 146.123 271.39 146.208C271.39 146.293 271.385 146.363 271.374 146.416H265.406C265.417 146.907 265.534 147.355 265.758 147.76C265.982 148.165 266.281 148.491 266.654 148.736C267.038 148.971 267.465 149.088 267.934 149.088C268.499 149.088 268.969 148.976 269.342 148.752C269.715 148.528 270.025 148.256 270.27 147.936L271.038 148.72C270.707 149.168 270.286 149.525 269.774 149.792C269.262 150.059 268.627 150.192 267.87 150.192ZM267.758 142.96C267.257 142.96 266.835 143.077 266.494 143.312C266.153 143.547 265.891 143.845 265.71 144.208C265.539 144.571 265.449 144.949 265.438 145.344H270.062C270.051 144.949 269.955 144.571 269.774 144.208C269.603 143.845 269.347 143.547 269.006 143.312C268.675 143.077 268.259 142.96 267.758 142.96ZM273.469 150V142.096H274.685V143.376H274.781C274.952 142.96 275.197 142.613 275.517 142.336C275.848 142.048 276.248 141.904 276.717 141.904C276.909 141.904 277.096 141.925 277.277 141.968C277.469 142 277.64 142.059 277.789 142.144L277.357 143.296C277.219 143.221 277.069 143.173 276.909 143.152C276.76 143.12 276.605 143.104 276.445 143.104C275.923 143.104 275.507 143.317 275.197 143.744C274.899 144.16 274.749 144.693 274.749 145.344V150H273.469ZM278.984 148.304C279.283 148.304 279.518 148.411 279.688 148.624C279.859 148.837 279.944 149.093 279.944 149.392C279.944 149.723 279.875 150.043 279.736 150.352C279.598 150.672 279.4 150.976 279.144 151.264C278.888 151.563 278.584 151.845 278.232 152.112L277.736 151.584C277.95 151.381 278.142 151.157 278.312 150.912C278.483 150.667 278.616 150.395 278.712 150.096C278.499 150.043 278.328 149.936 278.2 149.776C278.083 149.605 278.024 149.419 278.024 149.216C278.024 149.045 278.062 148.896 278.136 148.768C278.222 148.629 278.334 148.517 278.472 148.432C278.622 148.347 278.792 148.304 278.984 148.304ZM124.805 174V166.096H126.021V167.376H126.117C126.288 166.96 126.533 166.613 126.853 166.336C127.184 166.048 127.584 165.904 128.053 165.904C128.245 165.904 128.432 165.925 128.613 165.968C128.805 166 128.976 166.059 129.125 166.144L128.693 167.296C128.555 167.221 128.405 167.173 128.245 167.152C128.096 167.12 127.941 167.104 127.781 167.104C127.259 167.104 126.843 167.317 126.533 167.744C126.235 168.16 126.085 168.693 126.085 169.344V174H124.805ZM133.471 174.192C132.714 174.192 132.053 174.027 131.487 173.696C130.933 173.365 130.501 172.891 130.191 172.272C129.882 171.643 129.727 170.901 129.727 170.048C129.727 169.376 129.813 168.784 129.983 168.272C130.165 167.749 130.415 167.317 130.735 166.976C131.066 166.624 131.45 166.357 131.887 166.176C132.335 165.995 132.826 165.904 133.359 165.904C133.893 165.904 134.378 165.989 134.815 166.16C135.263 166.331 135.647 166.587 135.967 166.928C136.298 167.259 136.554 167.68 136.735 168.192C136.917 168.693 137.007 169.28 137.007 169.952C137.007 170.037 137.002 170.123 136.991 170.208C136.991 170.293 136.986 170.363 136.975 170.416H131.007C131.018 170.907 131.135 171.355 131.359 171.76C131.583 172.165 131.882 172.491 132.255 172.736C132.639 172.971 133.066 173.088 133.535 173.088C134.101 173.088 134.57 172.976 134.943 172.752C135.317 172.528 135.626 172.256 135.871 171.936L136.639 172.72C136.309 173.168 135.887 173.525 135.375 173.792C134.863 174.059 134.229 174.192 133.471 174.192ZM133.359 166.96C132.858 166.96 132.437 167.077 132.095 167.312C131.754 167.547 131.493 167.845 131.311 168.208C131.141 168.571 131.05 168.949 131.039 169.344H135.663C135.653 168.949 135.557 168.571 135.375 168.208C135.205 167.845 134.949 167.547 134.607 167.312C134.277 167.077 133.861 166.96 133.359 166.96ZM139.071 176.96V166.096H140.287V167.712H140.383C140.564 167.168 140.906 166.731 141.407 166.4C141.908 166.069 142.484 165.904 143.135 165.904C143.839 165.904 144.452 166.085 144.975 166.448C145.498 166.8 145.903 167.291 146.191 167.92C146.49 168.549 146.639 169.264 146.639 170.064C146.639 170.864 146.49 171.573 146.191 172.192C145.903 172.811 145.498 173.301 144.975 173.664C144.452 174.016 143.839 174.192 143.135 174.192C142.484 174.192 141.924 174.037 141.455 173.728C140.986 173.419 140.65 173.024 140.447 172.544H140.351V176.96H139.071ZM142.815 173.04C143.284 173.04 143.706 172.933 144.079 172.72C144.463 172.496 144.767 172.16 144.991 171.712C145.215 171.264 145.327 170.709 145.327 170.048C145.327 169.376 145.215 168.821 144.991 168.384C144.767 167.936 144.463 167.605 144.079 167.392C143.706 167.168 143.284 167.056 142.815 167.056C142.367 167.056 141.956 167.168 141.583 167.392C141.21 167.605 140.911 167.936 140.687 168.384C140.463 168.821 140.351 169.376 140.351 170.048C140.351 170.709 140.463 171.264 140.687 171.712C140.911 172.16 141.21 172.496 141.583 172.72C141.956 172.933 142.367 173.04 142.815 173.04ZM148.696 174V162.4H149.976V174H148.696ZM154.44 174.192C153.96 174.192 153.528 174.091 153.144 173.888C152.771 173.685 152.477 173.403 152.264 173.04C152.051 172.677 151.944 172.261 151.944 171.792C151.944 171.333 152.051 170.939 152.264 170.608C152.488 170.267 152.813 169.995 153.24 169.792C153.667 169.589 154.179 169.472 154.776 169.44L156.856 169.312V168.752C156.856 168.347 156.787 168.021 156.648 167.776C156.52 167.52 156.328 167.333 156.072 167.216C155.827 167.088 155.523 167.024 155.16 167.024C154.701 167.024 154.307 167.109 153.976 167.28C153.645 167.451 153.389 167.637 153.208 167.84L152.44 167.072C152.717 166.731 153.096 166.453 153.576 166.24C154.056 166.016 154.595 165.904 155.192 165.904C155.917 165.904 156.493 166.027 156.92 166.272C157.347 166.517 157.651 166.848 157.832 167.264C158.024 167.669 158.12 168.123 158.12 168.624V174H156.92V172.656H156.824C156.621 173.125 156.323 173.499 155.928 173.776C155.533 174.053 155.037 174.192 154.44 174.192ZM154.632 173.104C155.293 173.104 155.827 172.912 156.232 172.528C156.648 172.133 156.856 171.611 156.856 170.96V170.272L154.84 170.416C154.317 170.459 153.917 170.592 153.64 170.816C153.373 171.04 153.24 171.355 153.24 171.76C153.24 172.165 153.368 172.491 153.624 172.736C153.891 172.981 154.227 173.104 154.632 173.104ZM163.704 174.192C162.851 174.192 162.152 173.995 161.608 173.6C161.064 173.205 160.664 172.693 160.408 172.064C160.163 171.424 160.04 170.752 160.04 170.048C160.04 169.333 160.163 168.661 160.408 168.032C160.653 167.403 161.043 166.891 161.576 166.496C162.12 166.101 162.819 165.904 163.672 165.904C164.333 165.904 164.877 166.016 165.304 166.24C165.741 166.464 166.109 166.763 166.408 167.136L165.608 167.888C165.352 167.611 165.08 167.397 164.792 167.248C164.515 167.088 164.152 167.008 163.704 167.008C163.245 167.008 162.835 167.131 162.472 167.376C162.12 167.621 161.843 167.973 161.64 168.432C161.448 168.88 161.352 169.419 161.352 170.048C161.352 170.987 161.576 171.728 162.024 172.272C162.472 172.816 163.043 173.088 163.736 173.088C164.163 173.088 164.531 173.013 164.84 172.864C165.149 172.704 165.437 172.475 165.704 172.176L166.472 172.944C166.173 173.317 165.795 173.621 165.336 173.856C164.888 174.08 164.344 174.192 163.704 174.192ZM171.268 174.192C170.511 174.192 169.85 174.027 169.284 173.696C168.73 173.365 168.298 172.891 167.988 172.272C167.679 171.643 167.524 170.901 167.524 170.048C167.524 169.376 167.61 168.784 167.78 168.272C167.962 167.749 168.212 167.317 168.532 166.976C168.863 166.624 169.247 166.357 169.684 166.176C170.132 165.995 170.623 165.904 171.156 165.904C171.69 165.904 172.175 165.989 172.612 166.16C173.06 166.331 173.444 166.587 173.764 166.928C174.095 167.259 174.351 167.68 174.532 168.192C174.714 168.693 174.804 169.28 174.804 169.952C174.804 170.037 174.799 170.123 174.788 170.208C174.788 170.293 174.783 170.363 174.772 170.416H168.804C168.815 170.907 168.932 171.355 169.156 171.76C169.38 172.165 169.679 172.491 170.052 172.736C170.436 172.971 170.863 173.088 171.332 173.088C171.898 173.088 172.367 172.976 172.74 172.752C173.114 172.528 173.423 172.256 173.668 171.936L174.436 172.72C174.106 173.168 173.684 173.525 173.172 173.792C172.66 174.059 172.026 174.192 171.268 174.192ZM171.156 166.96C170.655 166.96 170.234 167.077 169.892 167.312C169.551 167.547 169.29 167.845 169.108 168.208C168.938 168.571 168.847 168.949 168.836 169.344H173.46C173.45 168.949 173.354 168.571 173.172 168.208C173.002 167.845 172.746 167.547 172.404 167.312C172.074 167.077 171.658 166.96 171.156 166.96ZM180.712 174V166.096H181.928V167.344H182.024C182.216 166.928 182.482 166.587 182.824 166.32C183.176 166.043 183.613 165.904 184.136 165.904C184.765 165.904 185.298 166.021 185.736 166.256C186.173 166.48 186.493 166.821 186.696 167.28C186.856 166.981 187.048 166.731 187.272 166.528C187.496 166.325 187.762 166.171 188.072 166.064C188.392 165.957 188.749 165.904 189.144 165.904C189.73 165.904 190.237 166.011 190.664 166.224C191.09 166.427 191.421 166.752 191.656 167.2C191.89 167.648 192.008 168.229 192.008 168.944V174H190.728V169.184C190.728 168.64 190.653 168.208 190.504 167.888C190.365 167.557 190.157 167.323 189.88 167.184C189.613 167.035 189.277 166.96 188.872 166.96C188.285 166.96 187.826 167.168 187.496 167.584C187.165 168 187 168.608 187 169.408V174H185.72V169.184C185.72 168.64 185.65 168.208 185.512 167.888C185.373 167.557 185.165 167.323 184.888 167.184C184.61 167.035 184.269 166.96 183.864 166.96C183.288 166.96 182.829 167.168 182.488 167.584C182.157 168 181.992 168.608 181.992 169.408V174H180.712ZM197.675 174.192C196.917 174.192 196.256 174.027 195.691 173.696C195.136 173.365 194.704 172.891 194.395 172.272C194.085 171.643 193.931 170.901 193.931 170.048C193.931 169.376 194.016 168.784 194.187 168.272C194.368 167.749 194.619 167.317 194.939 166.976C195.269 166.624 195.653 166.357 196.091 166.176C196.539 165.995 197.029 165.904 197.563 165.904C198.096 165.904 198.581 165.989 199.019 166.16C199.467 166.331 199.851 166.587 200.171 166.928C200.501 167.259 200.757 167.68 200.939 168.192C201.12 168.693 201.211 169.28 201.211 169.952C201.211 170.037 201.205 170.123 201.195 170.208C201.195 170.293 201.189 170.363 201.179 170.416H195.211C195.221 170.907 195.339 171.355 195.563 171.76C195.787 172.165 196.085 172.491 196.459 172.736C196.843 172.971 197.269 173.088 197.739 173.088C198.304 173.088 198.773 172.976 199.147 172.752C199.52 172.528 199.829 172.256 200.075 171.936L200.843 172.72C200.512 173.168 200.091 173.525 199.579 173.792C199.067 174.059 198.432 174.192 197.675 174.192ZM197.563 166.96C197.061 166.96 196.64 167.077 196.299 167.312C195.957 167.547 195.696 167.845 195.515 168.208C195.344 168.571 195.253 168.949 195.243 169.344H199.867C199.856 168.949 199.76 168.571 199.579 168.208C199.408 167.845 199.152 167.547 198.811 167.312C198.48 167.077 198.064 166.96 197.563 166.96ZM208.878 174L206.19 166.096H207.566L209.566 172.672H209.662L211.518 166.096H213.038L214.894 172.672H214.99L216.99 166.096H218.27L215.582 174H214.142L212.286 167.456H212.19L210.35 174H208.878ZM220.055 174V166.096H221.335V174H220.055ZM220.695 164.816C220.429 164.816 220.221 164.736 220.071 164.576C219.922 164.416 219.847 164.224 219.847 164C219.847 163.787 219.922 163.6 220.071 163.44C220.221 163.269 220.429 163.184 220.695 163.184C220.951 163.184 221.154 163.269 221.303 163.44C221.463 163.6 221.543 163.787 221.543 164C221.543 164.224 221.463 164.416 221.303 164.576C221.154 164.736 220.951 164.816 220.695 164.816ZM226.487 174.192C226.018 174.192 225.629 174.096 225.319 173.904C225.01 173.712 224.781 173.435 224.631 173.072C224.493 172.709 224.423 172.283 224.423 171.792V167.136H223.015V166.096H224.423V163.952H225.687V166.096H227.975V167.136H225.687V171.68C225.687 172.192 225.783 172.549 225.975 172.752C226.178 172.955 226.434 173.056 226.743 173.056C226.957 173.056 227.149 173.019 227.319 172.944C227.49 172.859 227.65 172.747 227.799 172.608L228.375 173.504C228.13 173.739 227.847 173.909 227.527 174.016C227.218 174.133 226.871 174.192 226.487 174.192ZM230.118 174V162.4H231.398V167.216H231.494C231.675 166.853 231.936 166.544 232.278 166.288C232.63 166.032 233.067 165.904 233.59 165.904C234.496 165.904 235.211 166.144 235.734 166.624C236.267 167.093 236.534 167.867 236.534 168.944V174H235.254V169.184C235.254 168.373 235.088 167.803 234.758 167.472C234.438 167.131 233.963 166.96 233.334 166.96C232.736 166.96 232.262 167.168 231.91 167.584C231.568 168 231.398 168.608 231.398 169.408V174H230.118ZM245.876 174.192C245.022 174.192 244.324 173.995 243.78 173.6C243.236 173.205 242.836 172.693 242.58 172.064C242.334 171.424 242.212 170.752 242.212 170.048C242.212 169.333 242.334 168.661 242.58 168.032C242.825 167.403 243.214 166.891 243.748 166.496C244.292 166.101 244.99 165.904 245.844 165.904C246.505 165.904 247.049 166.016 247.476 166.24C247.913 166.464 248.281 166.763 248.58 167.136L247.78 167.888C247.524 167.611 247.252 167.397 246.964 167.248C246.686 167.088 246.324 167.008 245.876 167.008C245.417 167.008 245.006 167.131 244.644 167.376C244.292 167.621 244.014 167.973 243.812 168.432C243.62 168.88 243.524 169.419 243.524 170.048C243.524 170.987 243.748 171.728 244.196 172.272C244.644 172.816 245.214 173.088 245.908 173.088C246.334 173.088 246.702 173.013 247.012 172.864C247.321 172.704 247.609 172.475 247.876 172.176L248.644 172.944C248.345 173.317 247.966 173.621 247.508 173.856C247.06 174.08 246.516 174.192 245.876 174.192ZM253.472 174.192C252.63 174.192 251.926 174.005 251.36 173.632C250.806 173.259 250.39 172.757 250.112 172.128C249.835 171.499 249.696 170.805 249.696 170.048C249.696 169.472 249.771 168.933 249.92 168.432C250.08 167.931 250.315 167.493 250.624 167.12C250.944 166.736 251.339 166.437 251.808 166.224C252.288 166.011 252.843 165.904 253.472 165.904C254.315 165.904 255.008 166.091 255.552 166.464C256.107 166.837 256.518 167.339 256.784 167.968C257.062 168.587 257.2 169.28 257.2 170.048C257.2 170.624 257.12 171.163 256.96 171.664C256.811 172.165 256.582 172.608 256.272 172.992C255.963 173.365 255.574 173.659 255.104 173.872C254.646 174.085 254.102 174.192 253.472 174.192ZM251.008 170.048C251.008 170.656 251.099 171.195 251.28 171.664C251.462 172.123 251.734 172.485 252.096 172.752C252.459 173.008 252.918 173.136 253.472 173.136C254.016 173.136 254.464 173.008 254.816 172.752C255.179 172.485 255.446 172.123 255.616 171.664C255.798 171.195 255.888 170.656 255.888 170.048C255.888 169.44 255.798 168.907 255.616 168.448C255.446 167.979 255.179 167.616 254.816 167.36C254.464 167.093 254.016 166.96 253.472 166.96C252.918 166.96 252.459 167.093 252.096 167.36C251.734 167.616 251.462 167.979 251.28 168.448C251.099 168.907 251.008 169.44 251.008 170.048ZM259.258 174V166.096H260.474V167.344H260.57C260.698 167.067 260.864 166.821 261.066 166.608C261.269 166.384 261.509 166.213 261.786 166.096C262.064 165.968 262.378 165.904 262.73 165.904C263.637 165.904 264.352 166.144 264.874 166.624C265.408 167.093 265.674 167.867 265.674 168.944V174H264.394V169.184C264.394 168.373 264.229 167.803 263.898 167.472C263.578 167.131 263.104 166.96 262.474 166.96C261.877 166.96 261.402 167.168 261.05 167.584C260.709 168 260.538 168.608 260.538 169.408V174H259.258ZM270.675 174.192C270.205 174.192 269.816 174.096 269.507 173.904C269.197 173.712 268.968 173.435 268.819 173.072C268.68 172.709 268.611 172.283 268.611 171.792V167.136H267.203V166.096H268.611V163.952H269.875V166.096H272.163V167.136H269.875V171.68C269.875 172.192 269.971 172.549 270.163 172.752C270.365 172.955 270.621 173.056 270.931 173.056C271.144 173.056 271.336 173.019 271.507 172.944C271.677 172.859 271.837 172.747 271.987 172.608L272.563 173.504C272.317 173.739 272.035 173.909 271.715 174.016C271.405 174.133 271.059 174.192 270.675 174.192ZM277.268 174.192C276.511 174.192 275.85 174.027 275.284 173.696C274.73 173.365 274.298 172.891 273.988 172.272C273.679 171.643 273.524 170.901 273.524 170.048C273.524 169.376 273.61 168.784 273.78 168.272C273.962 167.749 274.212 167.317 274.532 166.976C274.863 166.624 275.247 166.357 275.684 166.176C276.132 165.995 276.623 165.904 277.156 165.904C277.69 165.904 278.175 165.989 278.612 166.16C279.06 166.331 279.444 166.587 279.764 166.928C280.095 167.259 280.351 167.68 280.532 168.192C280.714 168.693 280.804 169.28 280.804 169.952C280.804 170.037 280.799 170.123 280.788 170.208C280.788 170.293 280.783 170.363 280.772 170.416H274.804C274.815 170.907 274.932 171.355 275.156 171.76C275.38 172.165 275.679 172.491 276.052 172.736C276.436 172.971 276.863 173.088 277.332 173.088C277.898 173.088 278.367 172.976 278.74 172.752C279.114 172.528 279.423 172.256 279.668 171.936L280.436 172.72C280.106 173.168 279.684 173.525 279.172 173.792C278.66 174.059 278.026 174.192 277.268 174.192ZM277.156 166.96C276.655 166.96 276.234 167.077 275.892 167.312C275.551 167.547 275.29 167.845 275.108 168.208C274.938 168.571 274.847 168.949 274.836 169.344H279.46C279.45 168.949 279.354 168.571 279.172 168.208C279.002 167.845 278.746 167.547 278.404 167.312C278.074 167.077 277.658 166.96 277.156 166.96ZM282.868 174V166.096H284.084V167.344H284.18C284.308 167.067 284.473 166.821 284.676 166.608C284.878 166.384 285.118 166.213 285.396 166.096C285.673 165.968 285.988 165.904 286.34 165.904C287.246 165.904 287.961 166.144 288.484 166.624C289.017 167.093 289.284 167.867 289.284 168.944V174H288.004V169.184C288.004 168.373 287.838 167.803 287.508 167.472C287.188 167.131 286.713 166.96 286.084 166.96C285.486 166.96 285.012 167.168 284.66 167.584C284.318 168 284.148 168.608 284.148 169.408V174H282.868ZM294.284 174.192C293.815 174.192 293.426 174.096 293.116 173.904C292.807 173.712 292.578 173.435 292.428 173.072C292.29 172.709 292.22 172.283 292.22 171.792V167.136H290.812V166.096H292.22V163.952H293.484V166.096H295.772V167.136H293.484V171.68C293.484 172.192 293.58 172.549 293.772 172.752C293.975 172.955 294.231 173.056 294.54 173.056C294.754 173.056 294.946 173.019 295.116 172.944C295.287 172.859 295.447 172.747 295.596 172.608L296.172 173.504C295.927 173.739 295.644 173.909 295.324 174.016C295.015 174.133 294.668 174.192 294.284 174.192Z" fill="black" fill-opacity="0.64"/>
<rect width="392" height="104" transform="translate(14 196)" fill="white"/>
<g clip-path="url(#clip1_7698_2414)">
<path d="M172 248C172 236.954 180.954 228 192 228H235C246.046 228 255 236.954 255 248C255 259.046 246.046 268 235 268H192C180.954 268 172 259.046 172 248Z" fill="white" fill-opacity="0.01"/>
<path d="M189.429 254V243.6H193.957C194.639 243.6 195.21 243.728 195.669 243.984C196.127 244.229 196.474 244.571 196.709 245.008C196.943 245.445 197.061 245.947 197.061 246.512C197.061 246.779 196.986 247.056 196.837 247.344C196.698 247.621 196.501 247.872 196.245 248.096C195.999 248.32 195.706 248.491 195.365 248.608V248.704C195.706 248.736 196.037 248.864 196.357 249.088C196.687 249.312 196.959 249.595 197.173 249.936C197.397 250.267 197.509 250.619 197.509 250.992C197.509 251.579 197.381 252.101 197.125 252.56C196.869 253.008 196.474 253.36 195.941 253.616C195.407 253.872 194.725 254 193.893 254H189.429ZM192.133 247.808H193.429C193.621 247.808 193.786 247.765 193.925 247.68C194.063 247.584 194.17 247.456 194.245 247.296C194.319 247.125 194.357 246.928 194.357 246.704C194.357 246.373 194.271 246.107 194.101 245.904C193.93 245.701 193.706 245.6 193.429 245.6H192.133V247.808ZM192.133 252H193.653C193.898 252 194.106 251.957 194.277 251.872C194.447 251.776 194.575 251.643 194.661 251.472C194.757 251.291 194.805 251.067 194.805 250.8C194.805 250.416 194.703 250.123 194.501 249.92C194.298 249.717 194.015 249.616 193.653 249.616H192.133V252ZM201.44 254.192C200.758 254.192 200.219 254.064 199.824 253.808C199.43 253.552 199.147 253.184 198.976 252.704C198.816 252.213 198.736 251.616 198.736 250.912V246.096H201.28V250.4C201.28 250.731 201.312 251.019 201.376 251.264C201.451 251.509 201.568 251.701 201.728 251.84C201.899 251.968 202.134 252.032 202.432 252.032C202.859 252.032 203.163 251.893 203.344 251.616C203.536 251.328 203.632 250.923 203.632 250.4V246.096H206.176V254H203.792V252.688H203.696C203.536 253.115 203.254 253.472 202.848 253.76C202.443 254.048 201.974 254.192 201.44 254.192ZM211.351 254.176C210.69 254.176 210.151 254.064 209.735 253.84C209.319 253.616 209.01 253.275 208.807 252.816C208.615 252.347 208.519 251.749 208.519 251.024V248.128H207.383V246.096H208.519V243.952H211.031V246.096H213.367V248.128H211.031V251.072C211.031 251.424 211.09 251.68 211.207 251.84C211.335 252 211.543 252.08 211.831 252.08C212.023 252.08 212.21 252.043 212.391 251.968C212.573 251.883 212.717 251.781 212.823 251.664L213.639 253.392C213.373 253.659 213.053 253.856 212.679 253.984C212.306 254.112 211.863 254.176 211.351 254.176ZM217.804 254.176C217.143 254.176 216.604 254.064 216.188 253.84C215.772 253.616 215.463 253.275 215.26 252.816C215.068 252.347 214.972 251.749 214.972 251.024V248.128H213.836V246.096H214.972V243.952H217.484V246.096H219.82V248.128H217.484V251.072C217.484 251.424 217.543 251.68 217.66 251.84C217.788 252 217.996 252.08 218.284 252.08C218.476 252.08 218.663 252.043 218.844 251.968C219.026 251.883 219.17 251.781 219.276 251.664L220.092 253.392C219.826 253.659 219.506 253.856 219.132 253.984C218.759 254.112 218.316 254.176 217.804 254.176ZM224.84 254.192C223.933 254.192 223.171 254.005 222.552 253.632C221.944 253.248 221.485 252.741 221.176 252.112C220.867 251.483 220.712 250.795 220.712 250.048C220.712 249.483 220.797 248.949 220.968 248.448C221.149 247.947 221.411 247.509 221.752 247.136C222.093 246.752 222.52 246.453 223.032 246.24C223.555 246.016 224.157 245.904 224.84 245.904C225.747 245.904 226.504 246.096 227.112 246.48C227.72 246.853 228.179 247.355 228.488 247.984C228.797 248.603 228.952 249.291 228.952 250.048C228.952 250.613 228.867 251.147 228.696 251.648C228.525 252.149 228.264 252.592 227.912 252.976C227.571 253.349 227.144 253.648 226.632 253.872C226.12 254.085 225.523 254.192 224.84 254.192ZM223.304 250.048C223.304 250.496 223.368 250.88 223.496 251.2C223.635 251.509 223.816 251.749 224.04 251.92C224.275 252.08 224.541 252.16 224.84 252.16C225.139 252.16 225.4 252.08 225.624 251.92C225.848 251.749 226.024 251.509 226.152 251.2C226.291 250.88 226.36 250.496 226.36 250.048C226.36 249.589 226.291 249.205 226.152 248.896C226.024 248.587 225.848 248.352 225.624 248.192C225.4 248.021 225.139 247.936 224.84 247.936C224.541 247.936 224.275 248.021 224.04 248.192C223.816 248.352 223.635 248.587 223.496 248.896C223.368 249.205 223.304 249.589 223.304 250.048ZM230.192 254V246.096H232.576V247.408H232.672C232.778 247.12 232.944 246.864 233.168 246.64C233.402 246.405 233.674 246.224 233.984 246.096C234.304 245.968 234.64 245.904 234.992 245.904C236.048 245.904 236.773 246.187 237.168 246.752C237.562 247.317 237.76 248.128 237.76 249.184V254H235.216V249.696C235.216 249.195 235.13 248.8 234.96 248.512C234.789 248.213 234.469 248.064 234 248.064C233.552 248.064 233.226 248.203 233.024 248.48C232.832 248.757 232.736 249.163 232.736 249.696V254H230.192Z" fill="#242E30"/>
</g>
<path d="M192 228.5H235C245.77 228.5 254.5 237.23 254.5 248C254.5 258.77 245.77 267.5 235 267.5H192C181.23 267.5 172.5 258.77 172.5 248C172.5 237.23 181.23 228.5 192 228.5Z" stroke="#E7E2DA"/>
<g clip-path="url(#clip2_7698_2414)">
<path d="M271 248C271 232.536 283.536 220 299 220H354C369.464 220 382 232.536 382 248C382 263.464 369.464 276 354 276H299C283.536 276 271 263.464 271 248Z" fill="#2B2A28"/>
<path d="M271 248C271 232.536 283.536 220 299 220H354C369.464 220 382 232.536 382 248C382 263.464 369.464 276 354 276H299C283.536 276 271 263.464 271 248Z" fill="white" fill-opacity="0.01"/>
<path d="M296.411 255V242H302.071C302.924 242 303.638 242.16 304.211 242.48C304.784 242.787 305.218 243.213 305.511 243.76C305.804 244.307 305.951 244.933 305.951 245.64C305.951 245.973 305.858 246.32 305.671 246.68C305.498 247.027 305.251 247.34 304.931 247.62C304.624 247.9 304.258 248.113 303.831 248.26V248.38C304.258 248.42 304.671 248.58 305.071 248.86C305.484 249.14 305.824 249.493 306.091 249.92C306.371 250.333 306.511 250.773 306.511 251.24C306.511 251.973 306.351 252.627 306.031 253.2C305.711 253.76 305.218 254.2 304.551 254.52C303.884 254.84 303.031 255 301.991 255H296.411ZM299.791 247.26H301.411C301.651 247.26 301.858 247.207 302.031 247.1C302.204 246.98 302.338 246.82 302.431 246.62C302.524 246.407 302.571 246.16 302.571 245.88C302.571 245.467 302.464 245.133 302.251 244.88C302.038 244.627 301.758 244.5 301.411 244.5H299.791V247.26ZM299.791 252.5H301.691C301.998 252.5 302.258 252.447 302.471 252.34C302.684 252.22 302.844 252.053 302.951 251.84C303.071 251.613 303.131 251.333 303.131 251C303.131 250.52 303.004 250.153 302.751 249.9C302.498 249.647 302.144 249.52 301.691 249.52H299.791V252.5ZM311.425 255.24C310.572 255.24 309.899 255.08 309.405 254.76C308.912 254.44 308.559 253.98 308.345 253.38C308.145 252.767 308.045 252.02 308.045 251.14V245.12H311.225V250.5C311.225 250.913 311.265 251.273 311.345 251.58C311.439 251.887 311.585 252.127 311.785 252.3C311.999 252.46 312.292 252.54 312.665 252.54C313.199 252.54 313.579 252.367 313.805 252.02C314.045 251.66 314.165 251.153 314.165 250.5V245.12H317.345V255H314.365V253.36H314.245C314.045 253.893 313.692 254.34 313.185 254.7C312.679 255.06 312.092 255.24 311.425 255.24ZM323.814 255.22C322.987 255.22 322.314 255.08 321.794 254.8C321.274 254.52 320.887 254.093 320.634 253.52C320.394 252.933 320.274 252.187 320.274 251.28V247.66H318.854V245.12H320.274V242.44H323.414V245.12H326.334V247.66H323.414V251.34C323.414 251.78 323.487 252.1 323.634 252.3C323.794 252.5 324.054 252.6 324.414 252.6C324.654 252.6 324.887 252.553 325.114 252.46C325.341 252.353 325.521 252.227 325.654 252.08L326.674 254.24C326.341 254.573 325.941 254.82 325.474 254.98C325.007 255.14 324.454 255.22 323.814 255.22ZM331.88 255.22C331.054 255.22 330.38 255.08 329.86 254.8C329.34 254.52 328.954 254.093 328.7 253.52C328.46 252.933 328.34 252.187 328.34 251.28V247.66H326.92V245.12H328.34V242.44H331.48V245.12H334.4V247.66H331.48V251.34C331.48 251.78 331.554 252.1 331.7 252.3C331.86 252.5 332.12 252.6 332.48 252.6C332.72 252.6 332.954 252.553 333.18 252.46C333.407 252.353 333.587 252.227 333.72 252.08L334.74 254.24C334.407 254.573 334.007 254.82 333.54 254.98C333.074 255.14 332.52 255.22 331.88 255.22ZM340.675 255.24C339.542 255.24 338.588 255.007 337.815 254.54C337.055 254.06 336.482 253.427 336.095 252.64C335.708 251.853 335.515 250.993 335.515 250.06C335.515 249.353 335.622 248.687 335.835 248.06C336.062 247.433 336.388 246.887 336.815 246.42C337.242 245.94 337.775 245.567 338.415 245.3C339.068 245.02 339.822 244.88 340.675 244.88C341.808 244.88 342.755 245.12 343.515 245.6C344.275 246.067 344.848 246.693 345.235 247.48C345.622 248.253 345.815 249.113 345.815 250.06C345.815 250.767 345.708 251.433 345.495 252.06C345.282 252.687 344.955 253.24 344.515 253.72C344.088 254.187 343.555 254.56 342.915 254.84C342.275 255.107 341.528 255.24 340.675 255.24ZM338.755 250.06C338.755 250.62 338.835 251.1 338.995 251.5C339.168 251.887 339.395 252.187 339.675 252.4C339.968 252.6 340.302 252.7 340.675 252.7C341.048 252.7 341.375 252.6 341.655 252.4C341.935 252.187 342.155 251.887 342.315 251.5C342.488 251.1 342.575 250.62 342.575 250.06C342.575 249.487 342.488 249.007 342.315 248.62C342.155 248.233 341.935 247.94 341.655 247.74C341.375 247.527 341.048 247.42 340.675 247.42C340.302 247.42 339.968 247.527 339.675 247.74C339.395 247.94 339.168 248.233 338.995 248.62C338.835 249.007 338.755 249.487 338.755 250.06ZM347.365 255V245.12H350.345V246.76H350.465C350.598 246.4 350.805 246.08 351.085 245.8C351.378 245.507 351.718 245.28 352.105 245.12C352.505 244.96 352.925 244.88 353.365 244.88C354.685 244.88 355.591 245.233 356.085 245.94C356.578 246.647 356.825 247.66 356.825 248.98V255H353.645V249.62C353.645 248.993 353.538 248.5 353.325 248.14C353.111 247.767 352.711 247.58 352.125 247.58C351.565 247.58 351.158 247.753 350.905 248.1C350.665 248.447 350.545 248.953 350.545 249.62V255H347.365Z" fill="white" fill-opacity="0.9"/>
</g>
</g>
</g>
<defs>
<filter id="filter0_ddd_7698_2414" x="0" y="0" width="420" height="316" filterUnits="userSpaceOnUse" color-interpolation-filters="sRGB">
<feFlood flood-opacity="0" result="BackgroundImageFix"/>
<feColorMatrix in="SourceAlpha" type="matrix" values="0 0 0 0 0 0 0 0 0 0 0 0 0 0 0 0 0 0 127 0" result="hardAlpha"/>
<feOffset dy="3"/>
<feGaussianBlur stdDeviation="2"/>
<feColorMatrix type="matrix" values="0 0 0 0 0 0 0 0 0 0 0 0 0 0 0 0 0 0 0.04 0"/>
<feBlend mode="normal" in2="BackgroundImageFix" result="effect1_dropShadow_7698_2414"/>
<feColorMatrix in="SourceAlpha" type="matrix" values="0 0 0 0 0 0 0 0 0 0 0 0 0 0 0 0 0 0 127 0" result="hardAlpha"/>
<feMorphology radius="2" operator="dilate" in="SourceAlpha" result="effect2_dropShadow_7698_2414"/>
<feOffset dy="2"/>
<feGaussianBlur stdDeviation="6"/>
<feColorMatrix type="matrix" values="0 0 0 0 0 0 0 0 0 0 0 0 0 0 0 0 0 0 0.04 0"/>
<feBlend mode="normal" in2="effect1_dropShadow_7698_2414" result="effect2_dropShadow_7698_2414"/>
<feColorMatrix in="SourceAlpha" type="matrix" values="0 0 0 0 0 0 0 0 0 0 0 0 0 0 0 0 0 0 127 0" result="hardAlpha"/>
<feOffset dy="4"/>
<feGaussianBlur stdDeviation="3"/>
<feColorMatrix type="matrix" values="0 0 0 0 0 0 0 0 0 0 0 0 0 0 0 0 0 0 0.02 0"/>
<feBlend mode="normal" in2="effect2_dropShadow_7698_2414" result="effect3_dropShadow_7698_2414"/>
<feBlend mode="normal" in="SourceGraphic" in2="effect3_dropShadow_7698_2414" result="shape"/>
</filter>
<clipPath id="clip0_7698_2414">
<path d="M14 28C14 19.1635 21.1634 12 30 12H390C398.837 12 406 19.1634 406 28V284C406 292.837 398.837 300 390 300H30C21.1634 300 14 292.837 14 284V28Z" fill="white"/>
</clipPath>
<clipPath id="clip1_7698_2414">
<path d="M172 248C172 236.954 180.954 228 192 228H235C246.046 228 255 236.954 255 248C255 259.046 246.046 268 235 268H192C180.954 268 172 259.046 172 248Z" fill="white"/>
</clipPath>
<clipPath id="clip2_7698_2414">
<path d="M271 248C271 232.536 283.536 220 299 220H354C369.464 220 382 232.536 382 248C382 263.464 369.464 276 354 276H299C283.536 276 271 263.464 271 248Z" fill="white"/>
</clipPath>
</defs>
</svg>
