<svg width="107" height="48" viewBox="0 0 107 48" fill="none" xmlns="http://www.w3.org/2000/svg">
<path d="M8.70988 14.2H12.2619L19.7499 35H16.8379L15.2059 30.424H5.63788L4.00588 35H1.25388L8.70988 14.2ZM6.43788 28.12H14.4059L10.5019 16.472H10.3099L6.43788 28.12ZM26.7861 35.384C26.0608 35.384 25.3888 35.2667 24.7701 35.032C24.1728 34.7973 23.6501 34.4667 23.2021 34.04C22.7541 33.6133 22.4021 33.112 22.1461 32.536C21.9115 31.9387 21.7941 31.288 21.7941 30.584C21.7941 29.2187 22.2848 28.12 23.2661 27.288C24.2475 26.456 25.6448 25.9867 27.4581 25.88L31.6181 25.624V24.504C31.6181 23.288 31.3195 22.4133 30.7221 21.88C30.1461 21.3253 29.3141 21.048 28.2261 21.048C27.3088 21.048 26.5195 21.2187 25.8581 21.56C25.1968 21.9013 24.6848 22.2747 24.3221 22.68L22.7861 21.144C23.3408 20.4613 24.0875 19.9067 25.0261 19.48C25.9861 19.032 27.0741 18.808 28.2901 18.808C29.3781 18.808 30.2955 18.9573 31.0421 19.256C31.7888 19.5333 32.3861 19.9173 32.8341 20.408C33.3035 20.8987 33.6341 21.4747 33.8261 22.136C34.0395 22.7973 34.1461 23.5013 34.1461 24.248V35H31.7461V32.312H31.5541C31.1275 33.272 30.5301 34.0293 29.7621 34.584C28.9941 35.1173 28.0021 35.384 26.7861 35.384ZM27.1701 33.208C28.4928 33.208 29.5595 32.824 30.3701 32.056C31.2021 31.2667 31.6181 30.2213 31.6181 28.92V27.544L27.5861 27.832C25.4528 28.0027 24.3861 28.8987 24.3861 30.52C24.3861 31.3307 24.6421 31.9813 25.1541 32.472C25.6875 32.9627 26.3595 33.208 27.1701 33.208Z" fill="black"/>
<path d="M40.4128 14.2H47.1648C48.8501 14.2 50.2048 14.68 51.2288 15.64C52.2741 16.5787 52.7968 17.912 52.7968 19.64C52.7968 20.7493 52.4768 21.7093 51.8368 22.52C51.2181 23.3307 50.4074 23.864 49.4048 24.12V24.312C49.9168 24.3973 50.4288 24.5893 50.9408 24.888C51.4528 25.1653 51.9114 25.528 52.3168 25.976C52.7221 26.4027 53.0421 26.9147 53.2768 27.512C53.5328 28.088 53.6608 28.7173 53.6608 29.4C53.6608 30.2533 53.5008 31.0213 53.1808 31.704C52.8821 32.3867 52.4554 32.9733 51.9008 33.464C51.3461 33.9547 50.6954 34.3387 49.9488 34.616C49.2021 34.872 48.3914 35 47.5168 35H40.4128V14.2ZM46.8448 23.32C47.8048 23.32 48.5728 23.0107 49.1488 22.392C49.7248 21.7733 50.0128 20.9413 50.0128 19.896C50.0128 18.8293 49.7248 17.9973 49.1488 17.4C48.5941 16.7813 47.8368 16.472 46.8767 16.472H43.1328V23.32H46.8448ZM47.4848 32.728C48.5301 32.728 49.3514 32.408 49.9488 31.768C50.5674 31.128 50.8768 30.264 50.8768 29.176C50.8768 28.0453 50.5674 27.16 49.9488 26.52C49.3514 25.88 48.5301 25.56 47.4848 25.56H43.1328V32.728H47.4848ZM61.7393 35.384C61.0139 35.384 60.3419 35.2667 59.7233 35.032C59.1259 34.7973 58.6033 34.4667 58.1553 34.04C57.7073 33.6133 57.3553 33.112 57.0993 32.536C56.8646 31.9387 56.7473 31.288 56.7473 30.584C56.7473 29.2187 57.2379 28.12 58.2193 27.288C59.2006 26.456 60.5979 25.9867 62.4113 25.88L66.5713 25.624V24.504C66.5713 23.288 66.2726 22.4133 65.6753 21.88C65.0993 21.3253 64.2673 21.048 63.1793 21.048C62.2619 21.048 61.4726 21.2187 60.8113 21.56C60.1499 21.9013 59.6379 22.2747 59.2753 22.68L57.7393 21.144C58.2939 20.4613 59.0406 19.9067 59.9793 19.48C60.9393 19.032 62.0273 18.808 63.2433 18.808C64.3313 18.808 65.2486 18.9573 65.9953 19.256C66.7419 19.5333 67.3393 19.9173 67.7873 20.408C68.2566 20.8987 68.5873 21.4747 68.7793 22.136C68.9926 22.7973 69.0993 23.5013 69.0993 24.248V35H66.6993V32.312H66.5073C66.0806 33.272 65.4833 34.0293 64.7153 34.584C63.9473 35.1173 62.9553 35.384 61.7393 35.384ZM62.1233 33.208C63.4459 33.208 64.5126 32.824 65.3233 32.056C66.1553 31.2667 66.5713 30.2213 66.5713 28.92V27.544L62.5393 27.832C60.4059 28.0027 59.3393 28.8987 59.3393 30.52C59.3393 31.3307 59.5953 31.9813 60.1073 32.472C60.6406 32.9627 61.3126 33.208 62.1233 33.208Z" fill="black"/>
<path d="M37.4688 39.384H71.5312V40.984H37.4688V39.384Z" fill="black"/>
<path d="M83.8005 35.384C82.1365 35.384 80.6752 35.096 79.4165 34.52C78.1578 33.9227 77.1018 33.1333 76.2485 32.152C75.4165 31.1493 74.7765 29.9973 74.3285 28.696C73.9018 27.3733 73.6885 25.9867 73.6885 24.536C73.6885 23.0853 73.9018 21.7093 74.3285 20.408C74.7552 19.1067 75.3845 17.976 76.2165 17.016C77.0698 16.0347 78.1152 15.256 79.3525 14.68C80.5898 14.104 82.0192 13.816 83.6405 13.816C85.2405 13.816 86.6485 14.104 87.8645 14.68C89.1018 15.2347 90.1578 15.9813 91.0325 16.92L88.2805 19.48C87.7258 18.84 87.0432 18.3493 86.2325 18.008C85.4218 17.6453 84.5685 17.464 83.6725 17.464C82.8618 17.464 82.1045 17.6347 81.4005 17.976C80.7178 18.296 80.1312 18.7653 79.6405 19.384C79.1498 20.0027 78.7658 20.7493 78.4885 21.624C78.2112 22.4987 78.0725 23.48 78.0725 24.568C78.0725 25.6347 78.2218 26.6053 78.5205 27.48C78.8192 28.3547 79.2245 29.112 79.7365 29.752C80.2485 30.3707 80.8565 30.8613 81.5605 31.224C82.2645 31.5653 83.0218 31.736 83.8325 31.736C84.7285 31.736 85.5818 31.5653 86.3925 31.224C87.2245 30.8613 87.9178 30.3493 88.4725 29.688L91.1925 32.248C90.3392 33.208 89.2832 33.976 88.0245 34.552C86.7872 35.1067 85.3792 35.384 83.8005 35.384ZM100.362 35.384C99.0178 35.384 97.8551 35.16 96.8738 34.712C95.9138 34.2427 95.1244 33.624 94.5058 32.856C93.8871 32.088 93.4284 31.2133 93.1298 30.232C92.8311 29.2293 92.6818 28.184 92.6818 27.096C92.6818 26.008 92.8204 24.9733 93.0978 23.992C93.3964 22.9893 93.8444 22.104 94.4418 21.336C95.0604 20.568 95.8498 19.96 96.8098 19.512C97.7698 19.0427 98.9111 18.808 100.234 18.808C101.556 18.808 102.676 19.0427 103.594 19.512C104.532 19.9813 105.3 20.5787 105.898 21.304L103.21 23.736C102.847 23.288 102.442 22.9467 101.994 22.712C101.546 22.456 100.98 22.328 100.298 22.328C99.1884 22.328 98.3244 22.7547 97.7058 23.608C97.0871 24.44 96.7778 25.6027 96.7778 27.096C96.7778 28.5893 97.0978 29.7627 97.7378 30.616C98.3778 31.448 99.2524 31.864 100.362 31.864C101.023 31.864 101.599 31.736 102.09 31.48C102.58 31.224 103.007 30.8613 103.37 30.392L106.026 32.856C105.428 33.5813 104.65 34.1893 103.69 34.68C102.751 35.1493 101.642 35.384 100.362 35.384Z" fill="black"/>
</svg>
