<svg width="411" height="88" viewBox="0 0 411 88" fill="none" xmlns="http://www.w3.org/2000/svg">
<g clip-path="url(#clip0_7698_2402)">
<path d="M0 12C0 5.37258 5.37258 0 12 0H399C405.627 0 411 5.37258 411 12V76C411 82.6274 405.627 88 399 88H12C5.37259 88 0 82.6274 0 76V12Z" fill="#E4E9FB"/>
<path d="M16 24C16 19.5817 19.5817 16 24 16H40C44.4183 16 48 19.5817 48 24V40C48 44.4183 44.4183 48 40 48H24C19.5817 48 16 44.4183 16 40V24Z" fill="#3147AD"/>
<rect x="16" y="16" width="32" height="32" rx="16" fill="white" fill-opacity="0.01"/>
<g clip-path="url(#clip1_7698_2402)">
<path d="M32 21.8281C29.9882 21.8281 28.0216 22.4247 26.3488 23.5424C24.6761 24.6601 23.3723 26.2487 22.6024 28.1074C21.8325 29.9661 21.6311 32.0113 22.0236 33.9844C22.4161 35.9576 23.3848 37.77 24.8074 39.1926C26.23 40.6152 28.0424 41.5839 30.0156 41.9764C31.9887 42.3689 34.0339 42.1675 35.8926 41.3976C37.7513 40.6277 39.3399 39.3239 40.4576 37.6512C41.5753 35.9784 42.1719 34.0118 42.1719 32C42.1684 29.3033 41.0956 26.7181 39.1888 24.8112C37.2819 22.9044 34.6967 21.8316 32 21.8281ZM32 40.2031C30.3776 40.2031 28.7916 39.722 27.4426 38.8206C26.0936 37.9193 25.0422 36.6381 24.4213 35.1392C23.8004 33.6403 23.638 31.9909 23.9545 30.3996C24.271 28.8084 25.0523 27.3467 26.1995 26.1995C27.3467 25.0523 28.8084 24.271 30.3997 23.9545C31.9909 23.638 33.6403 23.8004 35.1392 24.4213C36.6381 25.0422 37.9193 26.0936 38.8207 27.4426C39.722 28.7916 40.2031 30.3776 40.2031 32C40.2031 33.0772 39.9909 34.144 39.5787 35.1392C39.1665 36.1344 38.5622 37.0388 37.8005 37.8005C37.0388 38.5622 36.1345 39.1665 35.1392 39.5787C34.144 39.9909 33.0773 40.2031 32 40.2031ZM31.0156 30.9369H32.9844V35.9375H31.0156V30.9369ZM33.3125 28.0625C33.3125 28.3221 33.2355 28.5758 33.0913 28.7917C32.9471 29.0075 32.7421 29.1758 32.5023 29.2751C32.2624 29.3744 31.9985 29.4004 31.7439 29.3498C31.4893 29.2991 31.2555 29.1741 31.0719 28.9906C30.8884 28.807 30.7634 28.5732 30.7127 28.3186C30.6621 28.064 30.6881 27.8001 30.7874 27.5602C30.8868 27.3204 31.055 27.1154 31.2708 26.9712C31.4867 26.827 31.7404 26.75 32 26.75C32.3481 26.75 32.6819 26.8883 32.9281 27.1344C33.1742 27.3806 33.3125 27.7144 33.3125 28.0625Z" fill="white" fill-opacity="0.9"/>
</g>
<path d="M63.82 35V25.1H60.32V22H71.32V25.1H67.82V35H63.82ZM72.4606 35V25.12H76.2206V35H72.4606ZM74.3406 24.2C73.6606 24.2 73.154 24.0067 72.8206 23.62C72.4873 23.2333 72.3206 22.7933 72.3206 22.3C72.3206 21.7933 72.4873 21.3467 72.8206 20.96C73.154 20.5733 73.6606 20.38 74.3406 20.38C75.0206 20.38 75.5273 20.5733 75.8606 20.96C76.2073 21.3467 76.3806 21.7933 76.3806 22.3C76.3806 22.7933 76.2073 23.2333 75.8606 23.62C75.5273 24.0067 75.0206 24.2 74.3406 24.2ZM82.5713 35.2C81.6913 35.2 80.9713 35.06 80.4113 34.78C79.8513 34.4867 79.4313 34.04 79.1513 33.44C78.8846 32.8267 78.7513 32.04 78.7513 31.08V28.06H77.4913V25.12H78.7513V22.44H82.4913V25.12H85.4313V28.06H82.4913V31.1C82.4913 31.4733 82.5513 31.7533 82.6713 31.94C82.8046 32.1267 83.0446 32.22 83.3913 32.22C83.6313 32.22 83.8579 32.1733 84.0713 32.08C84.2846 31.9733 84.4579 31.8467 84.5913 31.7L85.7113 34.2C85.3646 34.5333 84.9313 34.7867 84.4113 34.96C83.9046 35.12 83.2913 35.2 82.5713 35.2ZM86.777 35V20.5H90.537V35H86.777ZM96.9477 35.24C95.8143 35.24 94.8543 35.0133 94.0677 34.56C93.281 34.0933 92.6877 33.4733 92.2877 32.7C91.8877 31.9133 91.6877 31.0333 91.6877 30.06C91.6877 29.3133 91.7943 28.6267 92.0077 28C92.221 27.3733 92.5343 26.8267 92.9477 26.36C93.3743 25.88 93.9077 25.5133 94.5477 25.26C95.201 25.0067 95.9543 24.88 96.8077 24.88C97.6477 24.88 98.381 25.0067 99.0077 25.26C99.6343 25.5133 100.154 25.8733 100.568 26.34C100.981 26.7933 101.288 27.3333 101.488 27.96C101.688 28.5733 101.788 29.2533 101.788 30C101.788 30.1733 101.768 30.3733 101.728 30.6C101.701 30.8267 101.668 31 101.628 31.12H95.3077C95.3743 31.4133 95.501 31.6533 95.6877 31.84C95.8743 32.0267 96.101 32.1667 96.3677 32.26C96.6477 32.34 96.9277 32.38 97.2077 32.38C97.6077 32.38 97.961 32.32 98.2677 32.2C98.5743 32.08 98.8143 31.9267 98.9877 31.74L100.968 33.76C100.621 34.2133 100.088 34.5733 99.3677 34.84C98.6477 35.1067 97.841 35.24 96.9477 35.24ZM96.7677 27.46C96.5143 27.46 96.281 27.52 96.0677 27.64C95.8677 27.7467 95.701 27.9133 95.5677 28.14C95.4343 28.3533 95.3477 28.62 95.3077 28.94H98.2277C98.1877 28.6067 98.0943 28.3333 97.9477 28.12C97.8143 27.9067 97.6477 27.7467 97.4477 27.64C97.261 27.52 97.0343 27.46 96.7677 27.46Z" fill="black" fill-opacity="0.76"/>
<path d="M64.192 62.192C63.2853 62.192 62.5493 62.0533 61.984 61.776C61.4187 61.488 60.9707 61.1307 60.64 60.704L61.504 59.888C61.792 60.24 62.176 60.5173 62.656 60.72C63.136 60.9227 63.6907 61.024 64.32 61.024C64.704 61.024 65.0613 60.9707 65.392 60.864C65.7333 60.7467 66.0107 60.56 66.224 60.304C66.4373 60.048 66.544 59.7067 66.544 59.28C66.544 58.9067 66.432 58.608 66.208 58.384C65.9947 58.1493 65.7013 57.952 65.328 57.792C64.9653 57.632 64.5493 57.4773 64.08 57.328C63.7067 57.2 63.3387 57.0613 62.976 56.912C62.6133 56.7627 62.2827 56.5813 61.984 56.368C61.696 56.144 61.4613 55.872 61.28 55.552C61.1093 55.2213 61.024 54.816 61.024 54.336C61.024 53.856 61.1093 53.4347 61.28 53.072C61.4507 52.7093 61.6907 52.4053 62 52.16C62.32 51.9147 62.6933 51.728 63.12 51.6C63.5467 51.472 64.0107 51.408 64.512 51.408C65.248 51.408 65.904 51.536 66.48 51.792C67.0667 52.048 67.5413 52.4373 67.904 52.96L67.04 53.808C66.752 53.456 66.3787 53.1627 65.92 52.928C65.472 52.6933 64.9653 52.576 64.4 52.576C64.08 52.576 63.7653 52.6347 63.456 52.752C63.1573 52.8587 62.9067 53.0347 62.704 53.28C62.5013 53.5253 62.4 53.8507 62.4 54.256C62.4 54.6293 62.5067 54.9333 62.72 55.168C62.944 55.392 63.2427 55.584 63.616 55.744C63.9893 55.8933 64.4053 56.048 64.864 56.208C65.2373 56.336 65.6053 56.4747 65.968 56.624C66.3307 56.7733 66.656 56.96 66.944 57.184C67.2427 57.3973 67.4773 57.6693 67.648 58C67.8293 58.32 67.92 58.72 67.92 59.2C67.92 59.712 67.824 60.16 67.632 60.544C67.44 60.9173 67.1733 61.2267 66.832 61.472C66.4907 61.7173 66.0907 61.8987 65.632 62.016C65.184 62.1333 64.704 62.192 64.192 62.192ZM72.7988 62.192C72.2228 62.192 71.7161 62.0907 71.2788 61.888C70.8521 61.6747 70.5161 61.344 70.2708 60.896C70.0361 60.448 69.9188 59.8667 69.9188 59.152V54.096H71.1988V58.912C71.1988 59.4453 71.2681 59.8773 71.4068 60.208C71.5561 60.5387 71.7694 60.7787 72.0468 60.928C72.3241 61.0667 72.6601 61.136 73.0548 61.136C73.6308 61.136 74.0841 60.928 74.4148 60.512C74.7561 60.096 74.9268 59.488 74.9268 58.688V54.096H76.2068V62H74.9908V60.752H74.8948C74.7028 61.168 74.4361 61.5147 74.0948 61.792C73.7641 62.0587 73.3321 62.192 72.7988 62.192ZM78.9225 64.96V54.096H80.1385V55.712H80.2345C80.4158 55.168 80.7572 54.7307 81.2585 54.4C81.7598 54.0693 82.3358 53.904 82.9865 53.904C83.6905 53.904 84.3038 54.0853 84.8265 54.448C85.3492 54.8 85.7545 55.2907 86.0425 55.92C86.3412 56.5493 86.4905 57.264 86.4905 58.064C86.4905 58.864 86.3412 59.5733 86.0425 60.192C85.7545 60.8107 85.3492 61.3013 84.8265 61.664C84.3038 62.016 83.6905 62.192 82.9865 62.192C82.3358 62.192 81.7758 62.0373 81.3065 61.728C80.8372 61.4187 80.5012 61.024 80.2985 60.544H80.2025V64.96H78.9225ZM82.6665 61.04C83.1358 61.04 83.5572 60.9333 83.9305 60.72C84.3145 60.496 84.6185 60.16 84.8425 59.712C85.0665 59.264 85.1785 58.7093 85.1785 58.048C85.1785 57.376 85.0665 56.8213 84.8425 56.384C84.6185 55.936 84.3145 55.6053 83.9305 55.392C83.5572 55.168 83.1358 55.056 82.6665 55.056C82.2185 55.056 81.8078 55.168 81.4345 55.392C81.0612 55.6053 80.7625 55.936 80.5385 56.384C80.3145 56.8213 80.2025 57.376 80.2025 58.048C80.2025 58.7093 80.3145 59.264 80.5385 59.712C80.7625 60.16 81.0612 60.496 81.4345 60.72C81.8078 60.9333 82.2185 61.04 82.6665 61.04ZM88.5475 64.96V54.096H89.7635V55.712H89.8595C90.0408 55.168 90.3822 54.7307 90.8835 54.4C91.3848 54.0693 91.9608 53.904 92.6115 53.904C93.3155 53.904 93.9288 54.0853 94.4515 54.448C94.9742 54.8 95.3795 55.2907 95.6675 55.92C95.9662 56.5493 96.1155 57.264 96.1155 58.064C96.1155 58.864 95.9662 59.5733 95.6675 60.192C95.3795 60.8107 94.9742 61.3013 94.4515 61.664C93.9288 62.016 93.3155 62.192 92.6115 62.192C91.9608 62.192 91.4008 62.0373 90.9315 61.728C90.4622 61.4187 90.1262 61.024 89.9235 60.544H89.8275V64.96H88.5475ZM92.2915 61.04C92.7608 61.04 93.1822 60.9333 93.5555 60.72C93.9395 60.496 94.2435 60.16 94.4675 59.712C94.6915 59.264 94.8035 58.7093 94.8035 58.048C94.8035 57.376 94.6915 56.8213 94.4675 56.384C94.2435 55.936 93.9395 55.6053 93.5555 55.392C93.1822 55.168 92.7608 55.056 92.2915 55.056C91.8435 55.056 91.4328 55.168 91.0595 55.392C90.6862 55.6053 90.3875 55.936 90.1635 56.384C89.9395 56.8213 89.8275 57.376 89.8275 58.048C89.8275 58.7093 89.9395 59.264 90.1635 59.712C90.3875 60.16 90.6862 60.496 91.0595 60.72C91.4328 60.9333 91.8435 61.04 92.2915 61.04ZM101.293 62.192C100.45 62.192 99.7458 62.0053 99.1805 61.632C98.6258 61.2587 98.2098 60.7573 97.9325 60.128C97.6552 59.4987 97.5165 58.8053 97.5165 58.048C97.5165 57.472 97.5912 56.9333 97.7405 56.432C97.9005 55.9307 98.1352 55.4933 98.4445 55.12C98.7645 54.736 99.1592 54.4373 99.6285 54.224C100.109 54.0107 100.663 53.904 101.293 53.904C102.135 53.904 102.829 54.0907 103.373 54.464C103.927 54.8373 104.338 55.3387 104.605 55.968C104.882 56.5867 105.021 57.28 105.021 58.048C105.021 58.624 104.941 59.1627 104.781 59.664C104.631 60.1653 104.402 60.608 104.093 60.992C103.783 61.3653 103.394 61.6587 102.925 61.872C102.466 62.0853 101.922 62.192 101.293 62.192ZM98.8285 58.048C98.8285 58.656 98.9192 59.1947 99.1005 59.664C99.2818 60.1227 99.5538 60.4853 99.9165 60.752C100.279 61.008 100.738 61.136 101.293 61.136C101.837 61.136 102.285 61.008 102.637 60.752C102.999 60.4853 103.266 60.1227 103.437 59.664C103.618 59.1947 103.709 58.656 103.709 58.048C103.709 57.44 103.618 56.9067 103.437 56.448C103.266 55.9787 102.999 55.616 102.637 55.36C102.285 55.0933 101.837 54.96 101.293 54.96C100.738 54.96 100.279 55.0933 99.9165 55.36C99.5538 55.616 99.2818 55.9787 99.1005 56.448C98.9192 56.9067 98.8285 57.44 98.8285 58.048ZM107.079 62V54.096H108.295V55.376H108.391C108.561 54.96 108.807 54.6133 109.127 54.336C109.457 54.048 109.857 53.904 110.327 53.904C110.519 53.904 110.705 53.9253 110.887 53.968C111.079 54 111.249 54.0587 111.399 54.144L110.967 55.296C110.828 55.2213 110.679 55.1733 110.519 55.152C110.369 55.12 110.215 55.104 110.055 55.104C109.532 55.104 109.116 55.3173 108.807 55.744C108.508 56.16 108.359 56.6933 108.359 57.344V62H107.079ZM115.48 62.192C115.01 62.192 114.621 62.096 114.312 61.904C114.002 61.712 113.773 61.4347 113.624 61.072C113.485 60.7093 113.416 60.2827 113.416 59.792V55.136H112.008V54.096H113.416V51.952H114.68V54.096H116.968V55.136H114.68V59.68C114.68 60.192 114.776 60.5493 114.968 60.752C115.17 60.9547 115.426 61.056 115.736 61.056C115.949 61.056 116.141 61.0187 116.312 60.944C116.482 60.8587 116.642 60.7467 116.792 60.608L117.368 61.504C117.122 61.7387 116.84 61.9093 116.52 62.016C116.21 62.1333 115.864 62.192 115.48 62.192ZM119.11 62V54.096H120.39V62H119.11ZM119.75 52.816C119.483 52.816 119.275 52.736 119.126 52.576C118.977 52.416 118.902 52.224 118.902 52C118.902 51.7867 118.977 51.6 119.126 51.44C119.275 51.2693 119.483 51.184 119.75 51.184C120.006 51.184 120.209 51.2693 120.358 51.44C120.518 51.6 120.598 51.7867 120.598 52C120.598 52.224 120.518 52.416 120.358 52.576C120.209 52.736 120.006 52.816 119.75 52.816ZM123.11 62V54.096H124.326V55.344H124.422C124.55 55.0667 124.715 54.8213 124.918 54.608C125.121 54.384 125.361 54.2133 125.638 54.096C125.915 53.968 126.23 53.904 126.582 53.904C127.489 53.904 128.203 54.144 128.726 54.624C129.259 55.0933 129.526 55.8667 129.526 56.944V62H128.246V57.184C128.246 56.3733 128.081 55.8027 127.75 55.472C127.43 55.1307 126.955 54.96 126.326 54.96C125.729 54.96 125.254 55.168 124.902 55.584C124.561 56 124.39 56.608 124.39 57.408V62H123.11ZM135.246 65.152C134.564 65.152 133.972 65.0293 133.47 64.784C132.969 64.5493 132.569 64.256 132.27 63.904L133.118 63.088C133.342 63.3547 133.636 63.5733 133.998 63.744C134.361 63.9147 134.756 64 135.182 64C135.641 64 136.03 63.9253 136.35 63.776C136.681 63.6373 136.932 63.4027 137.102 63.072C137.284 62.752 137.374 62.3147 137.374 61.76V60.224H137.278C137.118 60.7467 136.804 61.1627 136.334 61.472C135.876 61.7707 135.374 61.92 134.83 61.92C134.169 61.92 133.582 61.76 133.07 61.44C132.558 61.12 132.158 60.6613 131.87 60.064C131.582 59.456 131.438 58.7307 131.438 57.888C131.438 57.0667 131.582 56.3573 131.87 55.76C132.158 55.1627 132.558 54.704 133.07 54.384C133.582 54.064 134.169 53.904 134.83 53.904C135.417 53.904 135.94 54.0587 136.398 54.368C136.868 54.6667 137.182 55.0827 137.342 55.616H137.438V54.096H138.654V61.92C138.654 62.56 138.521 63.12 138.254 63.6C137.998 64.0907 137.614 64.4693 137.102 64.736C136.601 65.0133 135.982 65.152 135.246 65.152ZM135.086 60.768C135.556 60.768 135.961 60.656 136.302 60.432C136.644 60.208 136.905 59.8827 137.086 59.456C137.278 59.0293 137.374 58.512 137.374 57.904C137.374 57.2853 137.278 56.768 137.086 56.352C136.905 55.9253 136.644 55.6053 136.302 55.392C135.961 55.168 135.556 55.056 135.086 55.056C134.617 55.056 134.206 55.168 133.854 55.392C133.502 55.6053 133.23 55.9253 133.038 56.352C132.846 56.768 132.75 57.2853 132.75 57.904C132.75 58.512 132.846 59.0293 133.038 59.456C133.23 59.8827 133.502 60.208 133.854 60.432C134.206 60.656 134.617 60.768 135.086 60.768ZM147.651 62.192C147.182 62.192 146.793 62.096 146.483 61.904C146.174 61.712 145.945 61.4347 145.795 61.072C145.657 60.7093 145.587 60.2827 145.587 59.792V55.136H144.179V54.096H145.587V51.952H146.851V54.096H149.139V55.136H146.851V59.68C146.851 60.192 146.947 60.5493 147.139 60.752C147.342 60.9547 147.598 61.056 147.907 61.056C148.121 61.056 148.313 61.0187 148.483 60.944C148.654 60.8587 148.814 60.7467 148.963 60.608L149.539 61.504C149.294 61.7387 149.011 61.9093 148.691 62.016C148.382 62.1333 148.035 62.192 147.651 62.192ZM154.245 62.192C153.488 62.192 152.826 62.0267 152.261 61.696C151.706 61.3653 151.274 60.8907 150.965 60.272C150.656 59.6427 150.501 58.9013 150.501 58.048C150.501 57.376 150.586 56.784 150.757 56.272C150.938 55.7493 151.189 55.3173 151.509 54.976C151.84 54.624 152.224 54.3573 152.661 54.176C153.109 53.9947 153.6 53.904 154.133 53.904C154.666 53.904 155.152 53.9893 155.589 54.16C156.037 54.3307 156.421 54.5867 156.741 54.928C157.072 55.2587 157.328 55.68 157.509 56.192C157.69 56.6933 157.781 57.28 157.781 57.952C157.781 58.0373 157.776 58.1227 157.765 58.208C157.765 58.2933 157.76 58.3627 157.749 58.416H151.781C151.792 58.9067 151.909 59.3547 152.133 59.76C152.357 60.1653 152.656 60.4907 153.029 60.736C153.413 60.9707 153.84 61.088 154.309 61.088C154.874 61.088 155.344 60.976 155.717 60.752C156.09 60.528 156.4 60.256 156.645 59.936L157.413 60.72C157.082 61.168 156.661 61.5253 156.149 61.792C155.637 62.0587 155.002 62.192 154.245 62.192ZM154.133 54.96C153.632 54.96 153.21 55.0773 152.869 55.312C152.528 55.5467 152.266 55.8453 152.085 56.208C151.914 56.5707 151.824 56.9493 151.813 57.344H156.437C156.426 56.9493 156.33 56.5707 156.149 56.208C155.978 55.8453 155.722 55.5467 155.381 55.312C155.05 55.0773 154.634 54.96 154.133 54.96ZM158.731 62L161.499 57.984L158.859 54.096H160.395L162.267 57.056H162.331L164.267 54.096H165.643L163.003 57.92L165.771 62H164.235L162.235 58.848H162.171L160.107 62H158.731ZM170.089 62.192C169.62 62.192 169.23 62.096 168.921 61.904C168.612 61.712 168.382 61.4347 168.233 61.072C168.094 60.7093 168.025 60.2827 168.025 59.792V55.136H166.617V54.096H168.025V51.952H169.289V54.096H171.577V55.136H169.289V59.68C169.289 60.192 169.385 60.5493 169.577 60.752C169.78 60.9547 170.036 61.056 170.345 61.056C170.558 61.056 170.75 61.0187 170.921 60.944C171.092 60.8587 171.252 60.7467 171.401 60.608L171.977 61.504C171.732 61.7387 171.449 61.9093 171.129 62.016C170.82 62.1333 170.473 62.192 170.089 62.192Z" fill="black" fill-opacity="0.76"/>
<rect width="48" height="20" transform="translate(0 68)" fill="white" fill-opacity="0.01"/>
<rect width="16" height="16" transform="translate(16 70)" fill="white" fill-opacity="0.01"/>
</g>
<defs>
<clipPath id="clip0_7698_2402">
<path d="M0 12C0 5.37258 5.37258 0 12 0H399C405.627 0 411 5.37258 411 12V76C411 82.6274 405.627 88 399 88H12C5.37259 88 0 82.6274 0 76V12Z" fill="white"/>
</clipPath>
<clipPath id="clip1_7698_2402">
<rect width="21" height="21" fill="white" transform="translate(21.5 21.5)"/>
</clipPath>
</defs>
</svg>
