<svg width="320" height="180" viewBox="0 0 320 180" fill="none" xmlns="http://www.w3.org/2000/svg">
<rect width="320" height="180" fill="#F5F3F1"/>
<rect width="250" height="150" transform="translate(35 15)" fill="#F5F3F1"/>
<rect x="204.688" y="126.562" width="75.3125" height="33.4375" rx="3.4375" fill="#FF8000"/>
<rect x="204.688" y="126.562" width="75.3125" height="33.4375" rx="3.4375" stroke="#242E30" stroke-width="0.625"/>
<g clip-path="url(#clip0_10_6639)">
<g clip-path="url(#clip1_10_6639)">
<path d="M232.559 151.366H234.779C234.898 151.366 234.995 151.27 234.995 151.153V147.312H235.03C235.55 147.94 236.482 148.263 237.592 148.263C240.118 148.263 241.964 146.254 241.964 143.528C241.964 140.801 240.118 138.971 237.592 138.971C236.391 138.971 235.406 139.366 234.887 140.048H234.852V139.4C234.852 139.283 234.755 139.187 234.636 139.187H232.559C232.44 139.187 232.344 139.283 232.344 139.4V151.153C232.344 151.27 232.44 151.366 232.559 151.366ZM237.128 145.787C235.802 145.787 234.996 144.818 234.996 143.617C234.996 142.416 235.802 141.447 237.128 141.447C238.454 141.447 239.26 142.416 239.26 143.617C239.26 144.818 238.454 145.787 237.128 145.787Z" fill="white"/>
<path d="M246.234 136.82C246.234 136.013 245.643 135.312 244.657 135.312C243.672 135.312 243.081 136.012 243.081 136.82C243.081 137.627 243.672 138.308 244.657 138.308C245.643 138.308 246.234 137.626 246.234 136.82ZM243.547 148.048H245.768C245.886 148.048 245.983 147.952 245.983 147.835V139.4C245.983 139.283 245.886 139.187 245.768 139.187H243.547C243.429 139.187 243.332 139.283 243.332 139.4V147.835C243.332 147.952 243.429 148.048 243.547 148.048Z" fill="white"/>
<path d="M252.021 148.263C253.547 148.263 254.821 147.698 255.522 146.949C255.602 146.865 255.596 146.733 255.513 146.652L254.202 145.382C254.121 145.304 253.992 145.296 253.905 145.368C253.497 145.718 252.81 145.93 252.11 145.93C251.316 145.93 250.507 145.591 250.147 144.84C250.078 144.697 250.181 144.532 250.34 144.532H256.073C256.179 144.532 256.268 144.457 256.285 144.354C256.324 144.127 256.356 143.824 256.356 143.617C256.356 141.447 255.102 138.971 251.877 138.971C248.651 138.971 247.343 141.446 247.343 143.617C247.343 145.788 248.812 148.263 252.02 148.263H252.021ZM251.878 141.196C252.735 141.196 253.461 141.589 253.711 142.549C253.728 142.618 253.677 142.685 253.606 142.685H250.132C250.061 142.685 250.01 142.618 250.028 142.549C250.278 141.589 251.004 141.196 251.878 141.196Z" fill="white"/>
<path d="M224.359 140.528C224.401 140.569 224.469 140.569 224.511 140.528L226.168 138.887C226.217 138.838 226.208 138.754 226.146 138.719C225.715 138.473 225.251 138.275 224.765 138.132C224.727 138.12 224.685 138.132 224.657 138.159L223.387 139.416C223.345 139.457 223.345 139.525 223.387 139.566L224.359 140.528Z" fill="white"/>
<path d="M227.789 145.034C227.747 144.992 227.679 144.992 227.637 145.034L226.665 145.995C226.623 146.037 226.623 146.104 226.665 146.145L228.308 147.771C228.357 147.82 228.44 147.81 228.476 147.752C228.734 147.336 228.946 146.889 229.104 146.419C229.117 146.381 229.107 146.338 229.078 146.31L227.787 145.033L227.789 145.034Z" fill="white"/>
<path d="M220.033 144.956L222.351 142.661L222.354 142.663L222.673 142.347C222.715 142.305 222.783 142.305 222.825 142.347L224.826 144.327C224.868 144.369 224.868 144.436 224.826 144.477L223.367 145.922C223.325 145.963 223.325 146.03 223.367 146.072L224.338 147.033C224.38 147.075 224.448 147.075 224.49 147.033L229.102 142.468C229.131 142.44 229.142 142.398 229.129 142.36C228.975 141.885 228.765 141.436 228.511 141.017C228.476 140.957 228.392 140.949 228.342 140.998L226.103 143.213C226.061 143.255 225.993 143.255 225.951 143.213L220.904 138.218C220.875 138.189 220.832 138.178 220.793 138.191C220.318 138.349 219.867 138.559 219.447 138.814C219.388 138.85 219.379 138.932 219.428 138.98L221.55 141.081C221.592 141.122 221.592 141.189 221.55 141.231L219.55 143.211C219.508 143.253 219.44 143.253 219.398 143.211L217.319 141.157C217.269 141.107 217.184 141.118 217.149 141.18C216.904 141.611 216.708 142.073 216.567 142.559C216.556 142.596 216.567 142.637 216.595 142.664L218.273 144.326C218.315 144.368 218.315 144.435 218.273 144.476L216.615 146.118C216.587 146.145 216.576 146.187 216.587 146.224C216.732 146.705 216.932 147.163 217.179 147.59C217.215 147.65 217.299 147.66 217.349 147.611L220.033 144.955V144.956Z" fill="white"/>
<path d="M223.292 147.109L221.212 145.051C221.17 145.009 221.102 145.009 221.06 145.051L220.109 145.992C220.067 146.033 220.067 146.101 220.109 146.142L221.55 147.568C221.592 147.61 221.592 147.677 221.55 147.719L219.484 149.764C219.434 149.813 219.444 149.895 219.503 149.931C219.927 150.183 220.381 150.391 220.86 150.543C220.899 150.556 220.942 150.545 220.97 150.516L222.672 148.831C222.714 148.79 222.782 148.79 222.824 148.831L224.585 150.574C224.613 150.602 224.654 150.612 224.692 150.602C225.172 150.465 225.629 150.275 226.058 150.04C226.12 150.006 226.131 149.921 226.081 149.871L223.288 147.108L223.292 147.109Z" fill="white"/>
</g>
</g>
<path d="M263.934 136.613L265.508 135.993L265.74 137.626L267.424 137.852L266.784 139.379L268.125 140.391L266.784 141.402L267.424 142.93L265.74 143.155L265.508 144.788L263.934 144.168L262.891 145.469L261.848 144.168L260.273 144.788L260.041 143.155L258.357 142.93L258.997 141.402L257.656 140.391L258.997 139.379L258.357 137.852L260.041 137.626L260.273 135.993L261.848 136.613L262.891 135.312L263.934 136.613ZM262.904 137.656C262.464 137.656 262.098 137.718 261.808 137.843C261.518 137.967 261.26 138.143 261.034 138.37L261.735 139.165C261.848 139.035 261.996 138.93 262.179 138.849C262.367 138.768 262.563 138.728 262.768 138.728C262.939 138.728 263.092 138.768 263.227 138.849C263.366 138.93 263.437 139.074 263.437 139.279C263.436 139.436 263.388 139.566 263.291 139.669C263.2 139.766 263.06 139.814 262.872 139.814H262.308V140.878H262.855C263.097 140.878 263.288 140.924 263.428 141.016C263.567 141.108 263.638 141.248 263.638 141.438C263.638 141.632 263.557 141.783 263.396 141.892C263.234 142 263.03 142.054 262.783 142.054C262.568 142.054 262.358 142.014 262.154 141.933C261.956 141.846 261.79 141.732 261.655 141.592L260.938 142.427C261.169 142.654 261.435 142.827 261.735 142.946C262.042 143.065 262.415 143.125 262.855 143.125C263.21 143.125 263.522 143.087 263.791 143.012C264.06 142.931 264.283 142.822 264.46 142.687C264.637 142.546 264.772 142.384 264.863 142.2C264.955 142.011 265 141.811 265 141.6C265 141.448 264.97 141.305 264.911 141.17C264.852 141.035 264.772 140.909 264.67 140.796C264.568 140.682 264.444 140.588 264.299 140.513C264.154 140.432 263.998 140.372 263.831 140.334V140.285C264.148 140.177 264.388 140.018 264.549 139.807C264.715 139.59 264.799 139.355 264.799 139.101C264.799 138.906 264.756 138.722 264.67 138.549C264.584 138.37 264.46 138.216 264.299 138.086C264.138 137.951 263.939 137.845 263.702 137.77C263.471 137.694 263.205 137.656 262.904 137.656Z" fill="white"/>
<g clip-path="url(#clip2_10_6639)">
<rect x="40.3125" y="126.875" width="159.688" height="32.8125" rx="3.125" fill="white"/>
<rect x="45.625" y="132.188" width="37.75" height="9.5" rx="1.25" fill="#262626"/>
<g clip-path="url(#clip3_10_6639)">
<g clip-path="url(#clip4_10_6639)">
<path d="M51.25 136.344L52.3779 135.216C52.4529 135.141 52.5123 135.053 52.5529 134.955C52.5934 134.857 52.6143 134.753 52.6143 134.647C52.6143 134.541 52.5934 134.436 52.5529 134.339C52.5123 134.241 52.4529 134.152 52.3779 134.078C52.2273 133.932 52.0265 133.849 51.8167 133.846C51.6069 133.844 51.4041 133.922 51.25 134.064C51.0973 133.921 50.8956 133.841 50.686 133.841C50.4765 133.841 50.2748 133.921 50.1221 134.064C50.0472 134.139 49.9877 134.227 49.9471 134.325C49.9066 134.423 49.8857 134.527 49.8857 134.633C49.8857 134.739 49.9066 134.844 49.9471 134.941C49.9877 135.039 50.0472 135.128 50.1221 135.202L51.25 136.344ZM50.5083 134.464C50.532 134.439 50.5606 134.419 50.5923 134.405C50.6241 134.392 50.6583 134.385 50.6929 134.385C50.7273 134.386 50.7614 134.393 50.7931 134.406C50.8247 134.42 50.8534 134.439 50.8774 134.464L51.25 134.854L51.6226 134.464C51.6722 134.416 51.7383 134.39 51.8071 134.39C51.8759 134.39 51.9421 134.416 51.9917 134.464C52.016 134.488 52.0353 134.516 52.0484 134.548C52.0616 134.579 52.0684 134.613 52.0684 134.647C52.0684 134.681 52.0616 134.715 52.0484 134.746C52.0353 134.777 52.016 134.806 51.9917 134.83L51.25 135.571L50.5083 134.83C50.484 134.806 50.4647 134.777 50.4516 134.746C50.4384 134.715 50.4316 134.681 50.4316 134.647C50.4316 134.613 50.4384 134.579 50.4516 134.548C50.4647 134.516 50.484 134.488 50.5083 134.464Z" fill="white"/>
<path d="M53.4956 137.075C53.3203 136.946 53.1061 136.88 52.8884 136.89C52.6708 136.899 52.4629 136.983 52.2993 137.126L51.8071 137.567C51.7296 137.635 51.63 137.673 51.5269 137.673H51.4038C51.4714 137.541 51.5065 137.395 51.5063 137.246V136.648H50.1973C50.0124 136.648 49.8316 136.703 49.6777 136.805L48.8882 137.332H48.5156V137.844H49.042L49.9614 137.246C50.0308 137.199 50.1132 137.173 50.1973 137.174H50.9937V137.246C50.9937 137.359 50.9486 137.468 50.8685 137.548C50.7884 137.628 50.6797 137.673 50.5664 137.673H50.1836L49.9238 138.186H51.5269C51.7543 138.185 51.9739 138.103 52.1455 137.954L52.6411 137.513C52.7162 137.446 52.8118 137.408 52.912 137.403C53.0122 137.399 53.1108 137.429 53.1914 137.489H53.2153L52.2754 138.559C52.2349 138.603 52.1858 138.638 52.1311 138.662C52.0764 138.686 52.0173 138.699 51.9575 138.699H48.5156V139.211H51.9712C52.1035 139.211 52.2344 139.183 52.3551 139.129C52.4759 139.075 52.5838 138.996 52.6719 138.897L53.9844 137.424L53.4956 137.075Z" fill="white"/>
</g>
</g>
<path d="M57.155 135.187H58.665C58.8183 135.187 58.96 135.212 59.09 135.262C59.2233 135.309 59.3367 135.377 59.43 135.467C59.5267 135.557 59.6017 135.666 59.655 135.792C59.7083 135.919 59.735 136.059 59.735 136.212C59.735 136.422 59.685 136.607 59.585 136.767C59.4883 136.924 59.3383 137.036 59.135 137.102L59.13 137.122L59.865 138.438H58.935L58.35 137.297H58V138.438H57.155V135.187ZM58.55 136.672C58.6533 136.672 58.735 136.634 58.795 136.557C58.8583 136.481 58.89 136.374 58.89 136.237C58.89 136.097 58.8583 135.992 58.795 135.922C58.735 135.849 58.6517 135.812 58.545 135.812H58V136.672H58.55ZM61.3708 138.498C61.1442 138.498 60.9492 138.461 60.7858 138.387C60.6258 138.314 60.4942 138.217 60.3908 138.097C60.2875 137.977 60.2108 137.841 60.1608 137.687C60.1108 137.531 60.0858 137.369 60.0858 137.202C60.0858 137.039 60.1075 136.879 60.1508 136.722C60.1975 136.566 60.2692 136.427 60.3658 136.307C60.4658 136.187 60.5942 136.091 60.7508 136.017C60.9075 135.944 61.0992 135.907 61.3258 135.907C61.5525 135.907 61.7442 135.944 61.9008 136.017C62.0575 136.087 62.1825 136.182 62.2758 136.302C62.3725 136.419 62.4408 136.554 62.4808 136.707C62.5242 136.861 62.5458 137.019 62.5458 137.182C62.5458 137.219 62.5425 137.267 62.5358 137.327C62.5292 137.384 62.5208 137.427 62.5108 137.457H60.8908C60.9042 137.531 60.9292 137.592 60.9658 137.642C61.0058 137.692 61.0508 137.732 61.1008 137.762C61.1508 137.792 61.2025 137.814 61.2558 137.827C61.3125 137.841 61.3658 137.847 61.4158 137.847C61.5325 137.847 61.6325 137.829 61.7158 137.792C61.8025 137.756 61.8692 137.707 61.9158 137.647L62.3508 138.102C62.2708 138.219 62.1442 138.314 61.9708 138.387C61.7975 138.461 61.5975 138.498 61.3708 138.498ZM61.3258 136.497C61.2192 136.497 61.1242 136.531 61.0408 136.597C60.9575 136.661 60.9025 136.772 60.8758 136.932H61.7658C61.7425 136.772 61.6892 136.661 61.6058 136.597C61.5225 136.531 61.4292 136.497 61.3258 136.497ZM64.106 137.692C64.106 137.622 64.0577 137.574 63.961 137.547C63.8643 137.517 63.731 137.484 63.561 137.447C63.4643 137.427 63.3727 137.399 63.286 137.362C63.1993 137.322 63.1227 137.274 63.056 137.217C62.9893 137.157 62.936 137.086 62.896 137.002C62.856 136.919 62.836 136.819 62.836 136.702C62.836 136.576 62.8627 136.464 62.916 136.367C62.9693 136.267 63.0427 136.184 63.136 136.117C63.2327 136.047 63.346 135.996 63.476 135.962C63.606 135.926 63.7493 135.907 63.906 135.907C64.1527 135.907 64.3593 135.942 64.526 136.012C64.6927 136.082 64.816 136.166 64.896 136.262L64.481 136.712C64.421 136.649 64.3427 136.597 64.246 136.557C64.1493 136.517 64.0543 136.497 63.961 136.497C63.8743 136.497 63.7993 136.512 63.736 136.542C63.6727 136.569 63.641 136.617 63.641 136.687C63.641 136.757 63.6893 136.807 63.786 136.837C63.8827 136.864 64.016 136.896 64.186 136.932C64.2827 136.952 64.3743 136.982 64.461 137.022C64.5477 137.059 64.6243 137.107 64.691 137.167C64.7577 137.224 64.811 137.296 64.851 137.382C64.891 137.466 64.911 137.564 64.911 137.677C64.911 137.807 64.8843 137.924 64.831 138.027C64.7777 138.127 64.7027 138.212 64.606 138.282C64.5093 138.352 64.3927 138.406 64.256 138.443C64.1227 138.479 63.976 138.498 63.816 138.498C63.5527 138.498 63.331 138.464 63.151 138.397C62.971 138.327 62.8377 138.241 62.751 138.137L63.146 137.687C63.2227 137.764 63.3177 137.821 63.431 137.857C63.5443 137.891 63.6577 137.907 63.771 137.907C63.8777 137.907 63.9593 137.889 64.016 137.852C64.076 137.816 64.106 137.762 64.106 137.692ZM66.4588 138.498C66.2455 138.498 66.0572 138.464 65.8938 138.397C65.7338 138.327 65.6005 138.234 65.4938 138.117C65.3872 137.997 65.3055 137.859 65.2488 137.703C65.1955 137.546 65.1688 137.379 65.1688 137.202C65.1688 137.026 65.1955 136.859 65.2488 136.702C65.3055 136.546 65.3872 136.409 65.4938 136.292C65.6005 136.172 65.7338 136.079 65.8938 136.012C66.0572 135.942 66.2455 135.907 66.4588 135.907C66.6722 135.907 66.8588 135.942 67.0188 136.012C67.1788 136.079 67.3122 136.172 67.4188 136.292C67.5255 136.409 67.6055 136.546 67.6588 136.702C67.7155 136.859 67.7438 137.026 67.7438 137.202C67.7438 137.379 67.7155 137.546 67.6588 137.703C67.6055 137.859 67.5255 137.997 67.4188 138.117C67.3122 138.234 67.1788 138.327 67.0188 138.397C66.8588 138.464 66.6722 138.498 66.4588 138.498ZM65.9788 137.202C65.9788 137.416 66.0238 137.579 66.1138 137.692C66.2038 137.806 66.3188 137.862 66.4588 137.862C66.5988 137.862 66.7122 137.806 66.7988 137.692C66.8888 137.579 66.9338 137.416 66.9338 137.202C66.9338 136.989 66.8888 136.826 66.7988 136.712C66.7122 136.599 66.5988 136.542 66.4588 136.542C66.3188 136.542 66.2038 136.599 66.1138 136.712C66.0238 136.826 65.9788 136.989 65.9788 137.202ZM68.9462 138.498C68.7862 138.498 68.6512 138.476 68.5412 138.432C68.4345 138.386 68.3479 138.319 68.2812 138.232C68.2179 138.146 68.1712 138.039 68.1412 137.912C68.1145 137.786 68.1012 137.639 68.1012 137.472V135.967H68.8962V137.312C68.8962 137.472 68.9212 137.597 68.9712 137.687C69.0212 137.777 69.1162 137.822 69.2562 137.822C69.3895 137.822 69.4845 137.779 69.5412 137.692C69.6012 137.606 69.6312 137.479 69.6312 137.312V135.967H70.4262V138.438H69.6812V138.027H69.6512C69.6012 138.164 69.5129 138.277 69.3862 138.367C69.2595 138.454 69.1129 138.498 68.9462 138.498ZM70.9584 135.967H71.7034V136.392H71.7334C71.7834 136.239 71.8617 136.121 71.9684 136.037C72.0784 135.951 72.2167 135.907 72.3834 135.907C72.5134 135.907 72.63 135.924 72.7334 135.957L72.5334 136.687C72.4967 136.664 72.4534 136.647 72.4034 136.637C72.3567 136.624 72.31 136.617 72.2634 136.617C72.1134 136.617 71.99 136.661 71.8934 136.747C71.8 136.831 71.7534 136.964 71.7534 137.147V138.438H70.9584V135.967ZM74.0604 138.498C73.8438 138.498 73.6571 138.462 73.5004 138.392C73.3471 138.319 73.2188 138.224 73.1154 138.108C73.0154 137.987 72.9404 137.849 72.8904 137.692C72.8438 137.536 72.8204 137.372 72.8204 137.202C72.8204 137.032 72.8438 136.869 72.8904 136.712C72.9371 136.556 73.0104 136.419 73.1104 136.302C73.2104 136.182 73.3371 136.087 73.4904 136.017C73.6438 135.944 73.8271 135.907 74.0404 135.907C74.2404 135.907 74.4171 135.946 74.5704 136.022C74.7238 136.099 74.8471 136.192 74.9404 136.302L74.4054 136.787C74.3621 136.731 74.3121 136.687 74.2554 136.657C74.1988 136.624 74.1304 136.607 74.0504 136.607C73.9104 136.607 73.8054 136.659 73.7354 136.762C73.6654 136.866 73.6304 137.012 73.6304 137.202C73.6304 137.392 73.6671 137.539 73.7404 137.642C73.8138 137.746 73.9204 137.797 74.0604 137.797C74.1371 137.797 74.2071 137.781 74.2704 137.747C74.3371 137.714 74.3888 137.669 74.4254 137.612L74.9604 138.097C74.8704 138.207 74.7471 138.302 74.5904 138.382C74.4371 138.459 74.2604 138.498 74.0604 138.498ZM76.3464 138.498C76.1197 138.498 75.9247 138.461 75.7614 138.387C75.6014 138.314 75.4697 138.217 75.3664 138.097C75.2631 137.977 75.1864 137.841 75.1364 137.687C75.0864 137.531 75.0614 137.369 75.0614 137.202C75.0614 137.039 75.0831 136.879 75.1264 136.722C75.1731 136.566 75.2447 136.427 75.3414 136.307C75.4414 136.187 75.5697 136.091 75.7264 136.017C75.8831 135.944 76.0747 135.907 76.3014 135.907C76.5281 135.907 76.7197 135.944 76.8764 136.017C77.0331 136.087 77.1581 136.182 77.2514 136.302C77.3481 136.419 77.4164 136.554 77.4564 136.707C77.4997 136.861 77.5214 137.019 77.5214 137.182C77.5214 137.219 77.5181 137.267 77.5114 137.327C77.5047 137.384 77.4964 137.427 77.4864 137.457H75.8664C75.8797 137.531 75.9047 137.592 75.9414 137.642C75.9814 137.692 76.0264 137.732 76.0764 137.762C76.1264 137.792 76.1781 137.814 76.2314 137.827C76.2881 137.841 76.3414 137.847 76.3914 137.847C76.5081 137.847 76.6081 137.829 76.6914 137.792C76.7781 137.756 76.8447 137.707 76.8914 137.647L77.3264 138.102C77.2464 138.219 77.1197 138.314 76.9464 138.387C76.7731 138.461 76.5731 138.498 76.3464 138.498ZM76.3014 136.497C76.1947 136.497 76.0997 136.531 76.0164 136.597C75.9331 136.661 75.8781 136.772 75.8514 136.932H76.7414C76.7181 136.772 76.6647 136.661 76.5814 136.597C76.4981 136.531 76.4047 136.497 76.3014 136.497ZM79.0816 137.692C79.0816 137.622 79.0333 137.574 78.9366 137.547C78.8399 137.517 78.7066 137.484 78.5366 137.447C78.4399 137.427 78.3483 137.399 78.2616 137.362C78.1749 137.322 78.0983 137.274 78.0316 137.217C77.9649 137.157 77.9116 137.086 77.8716 137.002C77.8316 136.919 77.8116 136.819 77.8116 136.702C77.8116 136.576 77.8383 136.464 77.8916 136.367C77.9449 136.267 78.0183 136.184 78.1116 136.117C78.2083 136.047 78.3216 135.996 78.4516 135.962C78.5816 135.926 78.7249 135.907 78.8816 135.907C79.1283 135.907 79.3349 135.942 79.5016 136.012C79.6683 136.082 79.7916 136.166 79.8716 136.262L79.4566 136.712C79.3966 136.649 79.3183 136.597 79.2216 136.557C79.1249 136.517 79.0299 136.497 78.9366 136.497C78.8499 136.497 78.7749 136.512 78.7116 136.542C78.6483 136.569 78.6166 136.617 78.6166 136.687C78.6166 136.757 78.6649 136.807 78.7616 136.837C78.8583 136.864 78.9916 136.896 79.1616 136.932C79.2583 136.952 79.3499 136.982 79.4366 137.022C79.5233 137.059 79.5999 137.107 79.6666 137.167C79.7333 137.224 79.7866 137.296 79.8266 137.382C79.8666 137.466 79.8866 137.564 79.8866 137.677C79.8866 137.807 79.8599 137.924 79.8066 138.027C79.7533 138.127 79.6783 138.212 79.5816 138.282C79.4849 138.352 79.3683 138.406 79.2316 138.443C79.0983 138.479 78.9516 138.498 78.7916 138.498C78.5283 138.498 78.3066 138.464 78.1266 138.397C77.9466 138.327 77.8133 138.241 77.7266 138.137L78.1216 137.687C78.1983 137.764 78.2933 137.821 78.4066 137.857C78.5199 137.891 78.6333 137.907 78.7466 137.907C78.8533 137.907 78.9349 137.889 78.9916 137.852C79.0516 137.816 79.0816 137.762 79.0816 137.692Z" fill="white"/>
<rect x="85.875" y="132.188" width="42.75" height="9.5" rx="1.25" fill="#262626"/>
<g clip-path="url(#clip5_10_6639)">
<g clip-path="url(#clip6_10_6639)">
<path d="M93.0244 135.4L91.8623 136.563L93.0244 137.725L94.1865 136.563L93.0244 135.4ZM92.5869 136.563L93.0244 136.125L93.4619 136.563L93.0244 137L92.5869 136.563Z" fill="white"/>
<path d="M92.6621 135.038L91.5 133.876L90.3379 135.038L91.5 136.2L92.6621 135.038ZM91.5 134.601L91.9375 135.038L91.5 135.476L91.0625 135.038L91.5 134.601Z" fill="white"/>
<path d="M90.3379 138.087L91.5 139.249L92.6621 138.087L91.5 136.925L90.3379 138.087ZM91.5 138.524L91.0625 138.087L91.5 137.649L91.9375 138.087L91.5 138.524Z" fill="white"/>
<path d="M89.9756 135.4L88.8135 136.563L89.9756 137.725L91.1377 136.563L89.9756 135.4ZM89.5381 136.563L89.9756 136.125L90.4131 136.563L89.9756 137L89.5381 136.563Z" fill="white"/>
</g>
</g>
<path d="M98.955 138.498C98.6717 138.498 98.425 138.449 98.215 138.352C98.0083 138.256 97.8367 138.129 97.7 137.972C97.5667 137.812 97.4667 137.631 97.4 137.427C97.3367 137.224 97.305 137.016 97.305 136.802C97.305 136.592 97.335 136.387 97.395 136.187C97.4583 135.984 97.555 135.804 97.685 135.647C97.8183 135.491 97.9867 135.366 98.19 135.272C98.3967 135.176 98.6417 135.127 98.925 135.127C99.1817 135.127 99.405 135.174 99.595 135.267C99.7883 135.357 99.9533 135.474 100.09 135.617L99.55 136.112C99.4733 136.026 99.3783 135.959 99.265 135.913C99.1517 135.862 99.0367 135.837 98.92 135.837C98.7 135.837 98.52 135.922 98.38 136.092C98.2433 136.262 98.175 136.501 98.175 136.807C98.175 136.957 98.195 137.094 98.235 137.217C98.275 137.337 98.33 137.441 98.4 137.527C98.47 137.611 98.5517 137.676 98.645 137.722C98.7417 137.766 98.8433 137.787 98.95 137.787C99.0667 137.787 99.18 137.764 99.29 137.717C99.4033 137.671 99.4983 137.604 99.575 137.517L100.11 138.012C99.9767 138.156 99.8133 138.272 99.62 138.362C99.43 138.452 99.2083 138.498 98.955 138.498ZM101.518 138.498C101.305 138.498 101.117 138.464 100.953 138.397C100.793 138.327 100.66 138.234 100.553 138.117C100.447 137.997 100.365 137.859 100.308 137.703C100.255 137.546 100.228 137.379 100.228 137.202C100.228 137.026 100.255 136.859 100.308 136.702C100.365 136.546 100.447 136.409 100.553 136.292C100.66 136.172 100.793 136.079 100.953 136.012C101.117 135.942 101.305 135.907 101.518 135.907C101.732 135.907 101.918 135.942 102.078 136.012C102.238 136.079 102.372 136.172 102.478 136.292C102.585 136.409 102.665 136.546 102.718 136.702C102.775 136.859 102.803 137.026 102.803 137.202C102.803 137.379 102.775 137.546 102.718 137.703C102.665 137.859 102.585 137.997 102.478 138.117C102.372 138.234 102.238 138.327 102.078 138.397C101.918 138.464 101.732 138.498 101.518 138.498ZM101.038 137.202C101.038 137.416 101.083 137.579 101.173 137.692C101.263 137.806 101.378 137.862 101.518 137.862C101.658 137.862 101.772 137.806 101.858 137.692C101.948 137.579 101.993 137.416 101.993 137.202C101.993 136.989 101.948 136.826 101.858 136.712C101.772 136.599 101.658 136.542 101.518 136.542C101.378 136.542 101.263 136.599 101.173 136.712C101.083 136.826 101.038 136.989 101.038 137.202ZM103.191 135.967H103.936V136.327H103.966C104.032 136.201 104.126 136.099 104.246 136.022C104.366 135.946 104.509 135.907 104.676 135.907C104.896 135.907 105.066 135.949 105.186 136.032C105.309 136.112 105.397 136.232 105.451 136.392C105.507 136.252 105.604 136.137 105.741 136.047C105.881 135.954 106.039 135.907 106.216 135.907C106.529 135.907 106.749 135.996 106.876 136.172C107.002 136.349 107.066 136.602 107.066 136.932V138.438H106.271V137.062C106.271 136.919 106.244 136.804 106.191 136.717C106.137 136.627 106.042 136.582 105.906 136.582C105.772 136.582 105.676 136.626 105.616 136.712C105.556 136.796 105.526 136.912 105.526 137.062V138.438H104.731V137.062C104.731 136.919 104.704 136.804 104.651 136.717C104.601 136.627 104.506 136.582 104.366 136.582C104.236 136.582 104.139 136.626 104.076 136.712C104.016 136.796 103.986 136.912 103.986 137.062V138.438H103.191V135.967ZM107.571 135.967H108.326V136.407H108.356C108.419 136.247 108.516 136.124 108.646 136.037C108.776 135.951 108.934 135.907 109.121 135.907C109.267 135.907 109.404 135.939 109.531 136.002C109.661 136.062 109.772 136.147 109.866 136.257C109.962 136.367 110.037 136.501 110.091 136.657C110.144 136.814 110.171 136.987 110.171 137.177C110.171 137.374 110.144 137.554 110.091 137.717C110.037 137.877 109.962 138.016 109.866 138.132C109.772 138.249 109.661 138.339 109.531 138.402C109.404 138.466 109.267 138.498 109.121 138.498C108.934 138.498 108.779 138.456 108.656 138.372C108.536 138.286 108.449 138.172 108.396 138.032H108.366V139.363H107.571V135.967ZM108.861 137.812C109.021 137.812 109.142 137.754 109.226 137.637C109.312 137.517 109.356 137.372 109.356 137.202C109.356 137.032 109.312 136.889 109.226 136.772C109.142 136.652 109.021 136.592 108.861 136.592C108.697 136.592 108.574 136.652 108.491 136.772C108.407 136.889 108.366 137.032 108.366 137.202C108.366 137.372 108.407 137.517 108.491 137.637C108.574 137.754 108.697 137.812 108.861 137.812ZM111.709 138.498C111.495 138.498 111.307 138.464 111.144 138.397C110.984 138.327 110.85 138.234 110.744 138.117C110.637 137.997 110.555 137.859 110.499 137.703C110.445 137.546 110.419 137.379 110.419 137.202C110.419 137.026 110.445 136.859 110.499 136.702C110.555 136.546 110.637 136.409 110.744 136.292C110.85 136.172 110.984 136.079 111.144 136.012C111.307 135.942 111.495 135.907 111.709 135.907C111.922 135.907 112.109 135.942 112.269 136.012C112.429 136.079 112.562 136.172 112.669 136.292C112.775 136.409 112.855 136.546 112.909 136.702C112.965 136.859 112.994 137.026 112.994 137.202C112.994 137.379 112.965 137.546 112.909 137.703C112.855 137.859 112.775 137.997 112.669 138.117C112.562 138.234 112.429 138.327 112.269 138.397C112.109 138.464 111.922 138.498 111.709 138.498ZM111.229 137.202C111.229 137.416 111.274 137.579 111.364 137.692C111.454 137.806 111.569 137.862 111.709 137.862C111.849 137.862 111.962 137.806 112.049 137.692C112.139 137.579 112.184 137.416 112.184 137.202C112.184 136.989 112.139 136.826 112.049 136.712C111.962 136.599 111.849 136.542 111.709 136.542C111.569 136.542 111.454 136.599 111.364 136.712C111.274 136.826 111.229 136.989 111.229 137.202ZM113.381 135.967H114.126V136.377H114.156C114.206 136.241 114.296 136.129 114.426 136.042C114.56 135.952 114.711 135.907 114.881 135.907C115.045 135.907 115.181 135.931 115.291 135.977C115.405 136.021 115.495 136.086 115.561 136.172C115.628 136.259 115.675 136.367 115.701 136.497C115.731 136.624 115.746 136.769 115.746 136.932V138.438H114.951V137.092C114.951 136.936 114.925 136.812 114.871 136.722C114.818 136.629 114.718 136.582 114.571 136.582C114.431 136.582 114.33 136.626 114.266 136.712C114.206 136.799 114.176 136.926 114.176 137.092V138.438H113.381V135.967ZM117.392 138.498C117.166 138.498 116.971 138.461 116.807 138.387C116.647 138.314 116.516 138.217 116.412 138.097C116.309 137.977 116.232 137.841 116.182 137.687C116.132 137.531 116.107 137.369 116.107 137.202C116.107 137.039 116.129 136.879 116.172 136.722C116.219 136.566 116.291 136.427 116.387 136.307C116.487 136.187 116.616 136.091 116.772 136.017C116.929 135.944 117.121 135.907 117.347 135.907C117.574 135.907 117.766 135.944 117.922 136.017C118.079 136.087 118.204 136.182 118.297 136.302C118.394 136.419 118.462 136.554 118.502 136.707C118.546 136.861 118.567 137.019 118.567 137.182C118.567 137.219 118.564 137.267 118.557 137.327C118.551 137.384 118.542 137.427 118.532 137.457H116.912C116.926 137.531 116.951 137.592 116.987 137.642C117.027 137.692 117.072 137.732 117.122 137.762C117.172 137.792 117.224 137.814 117.277 137.827C117.334 137.841 117.387 137.847 117.437 137.847C117.554 137.847 117.654 137.829 117.737 137.792C117.824 137.756 117.891 137.707 117.937 137.647L118.372 138.102C118.292 138.219 118.166 138.314 117.992 138.387C117.819 138.461 117.619 138.498 117.392 138.498ZM117.347 136.497C117.241 136.497 117.146 136.531 117.062 136.597C116.979 136.661 116.924 136.772 116.897 136.932H117.787C117.764 136.772 117.711 136.661 117.627 136.597C117.544 136.531 117.451 136.497 117.347 136.497ZM118.953 135.967H119.698V136.377H119.728C119.778 136.241 119.868 136.129 119.998 136.042C120.131 135.952 120.283 135.907 120.453 135.907C120.616 135.907 120.753 135.931 120.863 135.977C120.976 136.021 121.066 136.086 121.133 136.172C121.199 136.259 121.246 136.367 121.273 136.497C121.303 136.624 121.318 136.769 121.318 136.932V138.438H120.523V137.092C120.523 136.936 120.496 136.812 120.443 136.722C120.389 136.629 120.289 136.582 120.143 136.582C120.003 136.582 119.901 136.626 119.838 136.712C119.778 136.799 119.748 136.926 119.748 137.092V138.438H118.953V135.967ZM122.909 138.493C122.595 138.493 122.369 138.414 122.229 138.257C122.092 138.101 122.024 137.851 122.024 137.507V136.602H121.669V135.967H122.024V135.297H122.809V135.967H123.539V136.602H122.809V137.522C122.809 137.632 122.827 137.712 122.864 137.762C122.904 137.812 122.969 137.837 123.059 137.837C123.119 137.837 123.175 137.826 123.229 137.802C123.285 137.776 123.332 137.744 123.369 137.707L123.624 138.247C123.46 138.411 123.222 138.493 122.909 138.493ZM125.137 137.692C125.137 137.622 125.089 137.574 124.992 137.547C124.896 137.517 124.762 137.484 124.592 137.447C124.496 137.427 124.404 137.399 124.317 137.362C124.231 137.322 124.154 137.274 124.087 137.217C124.021 137.157 123.967 137.086 123.927 137.002C123.887 136.919 123.867 136.819 123.867 136.702C123.867 136.576 123.894 136.464 123.947 136.367C124.001 136.267 124.074 136.184 124.167 136.117C124.264 136.047 124.377 135.996 124.507 135.962C124.637 135.926 124.781 135.907 124.937 135.907C125.184 135.907 125.391 135.942 125.557 136.012C125.724 136.082 125.847 136.166 125.927 136.262L125.512 136.712C125.452 136.649 125.374 136.597 125.277 136.557C125.181 136.517 125.086 136.497 124.992 136.497C124.906 136.497 124.831 136.512 124.767 136.542C124.704 136.569 124.672 136.617 124.672 136.687C124.672 136.757 124.721 136.807 124.817 136.837C124.914 136.864 125.047 136.896 125.217 136.932C125.314 136.952 125.406 136.982 125.492 137.022C125.579 137.059 125.656 137.107 125.722 137.167C125.789 137.224 125.842 137.296 125.882 137.382C125.922 137.466 125.942 137.564 125.942 137.677C125.942 137.807 125.916 137.924 125.862 138.027C125.809 138.127 125.734 138.212 125.637 138.282C125.541 138.352 125.424 138.406 125.287 138.443C125.154 138.479 125.007 138.498 124.847 138.498C124.584 138.498 124.362 138.464 124.182 138.397C124.002 138.327 123.869 138.241 123.782 138.137L124.177 137.687C124.254 137.764 124.349 137.821 124.462 137.857C124.576 137.891 124.689 137.907 124.802 137.907C124.909 137.907 124.991 137.889 125.047 137.852C125.107 137.816 125.137 137.762 125.137 137.692Z" fill="white"/>
</g>
<rect x="40" y="126.562" width="160.312" height="33.4375" rx="3.4375" stroke="#242E30" stroke-width="0.625"/>
<g clip-path="url(#clip7_10_6639)">
<rect x="0.3125" y="-0.3125" width="240" height="78.75" rx="3.4375" transform="matrix(-1 0 0 1 280.312 43.75)" fill="white" stroke="#242E30" stroke-width="0.625"/>
<g opacity="0.08" clip-path="url(#clip8_10_6639)">
<g clip-path="url(#clip9_10_6639)">
<path d="M232.11 79.8827C232.862 80.1767 233.706 80.1535 234.442 79.8312C235.178 79.5089 235.768 78.9045 236.062 78.1524C236.726 76.4533 237.013 71.9414 235.453 71.3315C233.893 70.7217 231 74.3431 230.379 75.9308C230.085 76.6828 230.109 77.5268 230.431 78.263C230.753 78.9991 231.358 79.5887 232.11 79.8827Z" fill="#242E30"/>
<path d="M219.167 70.3589C219.376 70.7294 219.634 71.055 219.969 71.3468C220.215 71.5392 220.472 71.7038 220.75 71.8127C220.862 71.8563 220.973 71.8999 221.085 71.9434C221.496 72.0402 221.93 72.0812 222.34 72.0169C222.751 71.9527 223.166 71.7939 223.509 71.5746C225.024 70.8186 228.354 67.5603 227.531 66.0506C227.384 65.7685 227.128 65.6039 226.793 65.4732C225.234 64.8633 221.979 65.5496 220.706 66.176C220.319 66.3456 219.965 66.5927 219.657 66.8895C219.376 67.1972 219.14 67.5544 218.976 67.9722C218.824 68.3622 218.783 68.7957 218.808 69.2232C218.834 69.6506 218.965 70.055 219.135 70.4425L219.167 70.3589Z" fill="#242E30"/>
<path d="M244.037 80.3395C244.306 80.6373 244.625 80.8903 245.004 81.0706C245.087 81.1033 245.143 81.1251 245.227 81.1578C245.533 81.2776 245.861 81.3416 246.172 81.367C246.578 81.3971 246.988 81.3329 247.365 81.1911C247.742 81.0493 248.112 80.8409 248.41 80.572C248.708 80.3031 248.961 79.9846 249.141 79.6055C249.283 79.2434 249.435 78.8534 249.437 78.4369C249.467 78.0312 249.403 77.6207 249.261 77.2442C248.762 75.893 246.703 73.1932 245.115 72.5725C244.809 72.4527 244.508 72.3995 244.248 72.4904C242.647 73.0527 242.856 77.694 243.457 79.2777C243.599 79.6543 243.807 80.0248 244.076 80.3226L244.037 80.3395Z" fill="#242E30"/>
<path d="M228.392 96.7008L222.682 94.4683L218.228 105.861L223.938 108.093L228.392 96.7008Z" fill="#242E30"/>
<path d="M209.732 102.539L211.373 90.0468L205.58 87.7816L203.967 100.285L209.732 102.539Z" fill="#242E30"/>
<path d="M245.494 103.388L239.729 101.133L232.489 111.436L238.227 113.68L245.494 103.388Z" fill="#242E30"/>
<path d="M271.621 100.051L269.588 99.2565L267.99 83.796C266.725 77.5856 262.741 72.335 257.093 69.4522L256.758 69.3215C254.288 68.0023 252.985 65.5022 252.315 63.6025C250.844 59.3986 247.27 56.1386 241.699 53.9605L240.975 53.6774C235.404 51.4993 230.577 51.4425 226.634 53.5615C224.881 54.5138 222.2 55.4566 219.501 54.7223L219.166 54.5917C213.039 52.9344 206.561 54.0624 201.408 57.7958L189.814 68.0664L187.669 67.2278L185.491 72.7986L191.731 75.238L186.725 107.095L245.525 130.084L263.454 103.281L269.443 105.622L271.621 100.051ZM205.039 62.5549C208.684 59.9662 213.26 59.1863 217.573 60.3911L217.908 60.5218C221.57 61.5041 225.547 60.9399 229.452 58.8379C231.769 57.5924 234.925 57.7344 238.797 59.2482L239.521 59.5313C243.392 61.0451 245.808 63.0812 246.666 65.5681C248.109 69.7611 250.677 72.8845 254.028 74.5801L254.362 74.7108C258.394 76.8009 261.206 80.5333 262.054 84.6865L263.293 96.7952L196.081 70.5167L205.066 62.5658L205.039 62.5549ZM243.218 122.76L193.36 103.266L197.413 77.4597L257.744 101.048L243.218 122.76Z" fill="#242E30"/>
</g>
</g>
<path d="M49.2963 61.2275C48.5263 61.2275 47.8708 61.1312 47.33 60.9387C46.7983 60.7371 46.3446 60.4483 45.9688 60.0725L47.22 58.5875C47.4583 58.8167 47.7425 59 48.0725 59.1375C48.4117 59.275 48.7646 59.3438 49.1313 59.3438C49.4613 59.3438 49.7454 59.3071 49.9838 59.2337C50.2313 59.1512 50.4238 59.0367 50.5613 58.89C50.6988 58.7342 50.7675 58.5508 50.7675 58.34C50.7675 58.0192 50.6254 57.7854 50.3413 57.6387C50.0663 57.4829 49.7133 57.405 49.2825 57.405H48.4025V55.6312H49.2825C49.5208 55.6312 49.7271 55.5946 49.9013 55.5212C50.0754 55.4479 50.2083 55.3471 50.3 55.2187C50.3917 55.0812 50.4375 54.9254 50.4375 54.7512C50.4375 54.4121 50.3 54.1783 50.025 54.05C49.7592 53.9125 49.4704 53.8437 49.1587 53.8437C48.8288 53.8437 48.5033 53.9125 48.1825 54.05C47.8617 54.1875 47.5958 54.3754 47.385 54.6137L46.1338 53.1562C46.5096 52.7804 46.9588 52.4871 47.4813 52.2762C48.0129 52.0654 48.6408 51.96 49.365 51.96C50.0342 51.96 50.6117 52.0792 51.0975 52.3175C51.5925 52.5467 51.9729 52.8537 52.2388 53.2387C52.5138 53.6146 52.6513 54.0271 52.6513 54.4762C52.6513 54.7512 52.5963 55.0125 52.4863 55.26C52.3854 55.5075 52.2388 55.7367 52.0463 55.9475C51.8538 56.1492 51.6154 56.3187 51.3313 56.4562C51.6704 56.5754 51.9638 56.7404 52.2113 56.9512C52.4588 57.1529 52.6513 57.3912 52.7888 57.6662C52.9263 57.9412 52.995 58.2483 52.995 58.5875C52.995 58.945 52.9125 59.2842 52.7475 59.605C52.5917 59.9258 52.3579 60.21 52.0463 60.4575C51.7346 60.6958 51.3496 60.8837 50.8913 61.0212C50.4329 61.1588 49.9013 61.2275 49.2963 61.2275ZM54.1941 61.0625V52.125H57.7966C58.5758 52.125 59.2541 52.2533 59.8316 52.51C60.4183 52.7667 60.9041 53.1104 61.2891 53.5412C61.6833 53.9721 61.9766 54.4533 62.1691 54.985C62.3616 55.5075 62.4579 56.0437 62.4579 56.5937C62.4579 57.1437 62.3616 57.6846 62.1691 58.2162C61.9766 58.7387 61.6833 59.2154 61.2891 59.6462C60.9041 60.0771 60.4183 60.4208 59.8316 60.6775C59.2541 60.9342 58.5758 61.0625 57.7966 61.0625H54.1941ZM56.3666 59.22H57.6729C58.0579 59.22 58.4062 59.1558 58.7179 59.0275C59.0296 58.8992 59.3 58.7204 59.5291 58.4912C59.7583 58.2529 59.9325 57.9733 60.0516 57.6525C60.1708 57.3317 60.2304 56.9833 60.2304 56.6075C60.2304 56.085 60.125 55.6267 59.9141 55.2325C59.7033 54.8383 59.4054 54.5312 59.0204 54.3112C58.6354 54.0821 58.1862 53.9675 57.6729 53.9675H56.3666V59.22ZM66.5672 61.0625V52.125H70.1697C70.9489 52.125 71.6272 52.2533 72.2047 52.51C72.7914 52.7667 73.2772 53.1104 73.6622 53.5412C74.0564 53.9721 74.3497 54.4533 74.5422 54.985C74.7347 55.5075 74.8309 56.0437 74.8309 56.5937C74.8309 57.1437 74.7347 57.6846 74.5422 58.2162C74.3497 58.7387 74.0564 59.2154 73.6622 59.6462C73.2772 60.0771 72.7914 60.4208 72.2047 60.6775C71.6272 60.9342 70.9489 61.0625 70.1697 61.0625H66.5672ZM68.7397 59.22H70.0459C70.4309 59.22 70.7793 59.1558 71.0909 59.0275C71.4026 58.8992 71.673 58.7204 71.9022 58.4912C72.1314 58.2529 72.3055 57.9733 72.4247 57.6525C72.5439 57.3317 72.6034 56.9833 72.6034 56.6075C72.6034 56.085 72.498 55.6267 72.2872 55.2325C72.0764 54.8383 71.7784 54.5312 71.3934 54.3112C71.0084 54.0821 70.5593 53.9675 70.0459 53.9675H68.7397V59.22ZM78.8821 61.2275C78.268 61.2275 77.7317 61.1221 77.2734 60.9112C76.8242 60.7004 76.453 60.4208 76.1596 60.0725C75.8663 59.7242 75.6463 59.3392 75.4996 58.9175C75.3621 58.4958 75.2934 58.0787 75.2934 57.6662C75.2934 57.2537 75.3575 56.8367 75.4859 56.415C75.6234 55.9933 75.8296 55.6083 76.1046 55.26C76.3888 54.9117 76.7509 54.6321 77.1909 54.4212C77.6309 54.2104 78.158 54.105 78.7721 54.105C79.3955 54.105 79.9225 54.2104 80.3534 54.4212C80.7934 54.6321 81.1463 54.9117 81.4121 55.26C81.6871 55.6083 81.8888 55.9933 82.0171 56.415C82.1455 56.8367 82.2096 57.2537 82.2096 57.6662C82.2096 57.7671 82.2005 57.8908 82.1821 58.0375C82.1638 58.175 82.1455 58.285 82.1271 58.3675H77.3559C77.4292 58.615 77.5438 58.8167 77.6996 58.9725C77.8646 59.1283 78.0571 59.2475 78.2771 59.33C78.4971 59.4033 78.7217 59.44 78.9509 59.44C79.2534 59.44 79.5375 59.3942 79.8034 59.3025C80.0784 59.2017 80.2892 59.0687 80.4359 58.9037L81.6734 60.1C81.4167 60.4117 81.0409 60.6775 80.5459 60.8975C80.06 61.1175 79.5055 61.2275 78.8821 61.2275ZM78.7721 55.81C78.543 55.81 78.3275 55.8512 78.1259 55.9337C77.9242 56.0071 77.7546 56.1262 77.6171 56.2912C77.4796 56.4562 77.3834 56.6762 77.3284 56.9512H80.2021C80.1471 56.6762 80.0509 56.4562 79.9134 56.2912C79.7759 56.1262 79.6063 56.0071 79.4046 55.9337C79.2121 55.8512 79.0013 55.81 78.7721 55.81ZM84.6224 61.0625L81.9549 54.27H84.1824L85.7224 58.5875H85.7499L87.2899 54.27H89.4624L86.7812 61.0625H84.6224ZM89.8373 61.0625V54.27H91.8723V61.0625H89.8373ZM90.8548 53.5962C90.479 53.5962 90.1811 53.4862 89.9611 53.2662C89.7502 53.0371 89.6448 52.7667 89.6448 52.455C89.6448 52.2442 89.6906 52.0517 89.7823 51.8775C89.8831 51.7033 90.0252 51.5658 90.2086 51.465C90.3919 51.355 90.6073 51.3 90.8548 51.3C91.2306 51.3 91.524 51.4146 91.7348 51.6437C91.9548 51.8729 92.0648 52.1433 92.0648 52.455C92.0648 52.6567 92.0144 52.8446 91.9136 53.0187C91.8219 53.1929 91.6844 53.335 91.5011 53.445C91.3269 53.5458 91.1115 53.5962 90.8548 53.5962ZM96.1929 61.2275C95.5788 61.2275 95.0425 61.1221 94.5842 60.9112C94.135 60.7004 93.7638 60.4208 93.4704 60.0725C93.1771 59.7242 92.9571 59.3392 92.8104 58.9175C92.6729 58.4958 92.6042 58.0787 92.6042 57.6662C92.6042 57.2537 92.6729 56.8367 92.8104 56.415C92.9571 55.9933 93.1771 55.6083 93.4704 55.26C93.7638 54.9117 94.135 54.6321 94.5842 54.4212C95.0333 54.2104 95.565 54.105 96.1792 54.105C96.7475 54.105 97.2471 54.215 97.6779 54.435C98.1179 54.6458 98.4708 54.9025 98.7367 55.205L97.3617 56.5662C97.215 56.4012 97.0363 56.2775 96.8254 56.195C96.6238 56.1033 96.4083 56.0575 96.1792 56.0575C95.9042 56.0575 95.6521 56.1262 95.4229 56.2637C95.1938 56.3921 95.0104 56.58 94.8729 56.8275C94.7446 57.0658 94.6804 57.3454 94.6804 57.6662C94.6804 57.9871 94.7446 58.2712 94.8729 58.5187C95.0104 58.7571 95.1938 58.945 95.4229 59.0825C95.6521 59.2108 95.9042 59.275 96.1792 59.275C96.4083 59.275 96.6238 59.2292 96.8254 59.1375C97.0363 59.0458 97.215 58.9221 97.3617 58.7662L98.7367 60.1275C98.4708 60.43 98.1225 60.6912 97.6917 60.9112C97.2608 61.1221 96.7613 61.2275 96.1929 61.2275ZM102.285 61.2275C101.671 61.2275 101.135 61.1221 100.677 60.9112C100.228 60.7004 99.8563 60.4208 99.5629 60.0725C99.2696 59.7242 99.0496 59.3392 98.9029 58.9175C98.7654 58.4958 98.6967 58.0787 98.6967 57.6662C98.6967 57.2537 98.7609 56.8367 98.8892 56.415C99.0267 55.9933 99.2329 55.6083 99.5079 55.26C99.7921 54.9117 100.154 54.6321 100.594 54.4212C101.034 54.2104 101.561 54.105 102.175 54.105C102.799 54.105 103.326 54.2104 103.757 54.4212C104.197 54.6321 104.55 54.9117 104.815 55.26C105.09 55.6083 105.292 55.9933 105.42 56.415C105.549 56.8367 105.613 57.2537 105.613 57.6662C105.613 57.7671 105.604 57.8908 105.585 58.0375C105.567 58.175 105.549 58.285 105.53 58.3675H100.759C100.833 58.615 100.947 58.8167 101.103 58.9725C101.268 59.1283 101.46 59.2475 101.68 59.33C101.9 59.4033 102.125 59.44 102.354 59.44C102.657 59.44 102.941 59.3942 103.207 59.3025C103.482 59.2017 103.693 59.0687 103.839 58.9037L105.077 60.1C104.82 60.4117 104.444 60.6775 103.949 60.8975C103.463 61.1175 102.909 61.2275 102.285 61.2275ZM102.175 55.81C101.946 55.81 101.731 55.8512 101.529 55.9337C101.328 56.0071 101.158 56.1262 101.02 56.2912C100.883 56.4562 100.787 56.6762 100.732 56.9512H103.605C103.55 56.6762 103.454 56.4562 103.317 56.2912C103.179 56.1262 103.01 56.0071 102.808 55.9337C102.615 55.8512 102.405 55.81 102.175 55.81ZM108.722 61.2275C108.237 61.2275 107.797 61.1817 107.402 61.09C107.017 61.0075 106.683 60.8929 106.399 60.7462C106.124 60.5904 105.904 60.4208 105.739 60.2375L106.907 58.9175C107.137 59.1192 107.402 59.2704 107.705 59.3712C108.007 59.4721 108.337 59.5225 108.695 59.5225C108.988 59.5225 109.227 59.4858 109.41 59.4125C109.602 59.33 109.699 59.1971 109.699 59.0137C109.699 58.8854 109.635 58.7846 109.506 58.7112C109.378 58.6379 109.195 58.5737 108.956 58.5187C108.718 58.4637 108.429 58.4087 108.09 58.3537C107.723 58.2896 107.38 58.175 107.059 58.01C106.747 57.845 106.49 57.625 106.289 57.35C106.096 57.0658 106 56.7129 106 56.2912C106 55.8237 106.124 55.4296 106.371 55.1087C106.628 54.7787 106.981 54.5312 107.43 54.3662C107.879 54.1921 108.388 54.105 108.956 54.105C109.625 54.105 110.194 54.2012 110.661 54.3937C111.138 54.5862 111.495 54.8154 111.734 55.0812L110.565 56.3875C110.409 56.2042 110.189 56.0575 109.905 55.9475C109.621 55.8375 109.332 55.7825 109.039 55.7825C108.782 55.7825 108.557 55.8192 108.365 55.8925C108.172 55.9658 108.076 56.0942 108.076 56.2775C108.076 56.4058 108.14 56.5067 108.269 56.58C108.397 56.6533 108.58 56.7129 108.819 56.7587C109.066 56.8046 109.355 56.8596 109.685 56.9237C110.052 56.9879 110.391 57.1025 110.702 57.2675C111.023 57.4233 111.28 57.6433 111.472 57.9275C111.674 58.2025 111.775 58.5508 111.775 58.9725C111.775 59.44 111.642 59.8433 111.376 60.1825C111.11 60.5217 110.748 60.7829 110.29 60.9662C109.832 61.1404 109.309 61.2275 108.722 61.2275Z" fill="#242E30"/>
</g>
<rect x="63.4375" y="20" width="193.125" height="19.0625" rx="3.4375" fill="white"/>
<rect x="63.4375" y="20" width="193.125" height="19.0625" rx="3.4375" stroke="#242E30" stroke-width="0.625"/>
<g clip-path="url(#clip10_10_6639)">
<path d="M76.356 28.5059C76.4482 28.5059 76.5371 28.4683 76.6021 28.4033C76.667 28.3384 76.7046 28.2495 76.7046 28.1572C76.7046 27.9487 76.5474 27.4565 76.356 27.4565C76.1646 27.4565 76.0073 27.9624 76.0073 28.1572C76.0073 28.2495 76.0449 28.3384 76.1099 28.4033C76.1748 28.4683 76.2637 28.5059 76.356 28.5059Z" fill="#242E30"/>
<path d="M74.582 28.0308C74.6196 28.0615 74.6606 28.0854 74.7085 28.1025C74.7427 28.1128 74.7769 28.1196 74.811 28.1196C74.8247 28.1196 74.8384 28.1196 74.8521 28.1196C74.8999 28.1128 74.9478 28.0991 74.9888 28.0752C75.0298 28.0513 75.0674 28.0171 75.0947 27.9795C75.2246 27.8359 75.4434 27.3506 75.293 27.2241C75.2656 27.2002 75.2314 27.1934 75.1904 27.1934C74.999 27.1934 74.6812 27.4019 74.5718 27.5215C74.5376 27.5557 74.5103 27.5967 74.4897 27.6411C74.4727 27.6855 74.4624 27.7334 74.4624 27.7847C74.4624 27.8325 74.4761 27.8804 74.4966 27.9248C74.5171 27.9692 74.5479 28.0068 74.582 28.041V28.0308Z" fill="#242E30"/>
<path d="M77.6445 28.0581C77.6855 28.0786 77.73 28.0923 77.7778 28.0957C77.7881 28.0957 77.7949 28.0957 77.8052 28.0957C77.8428 28.0957 77.8804 28.0889 77.9146 28.0786C77.959 28.0649 78 28.041 78.0342 28.0103C78.0684 27.9795 78.0991 27.9419 78.1196 27.9009C78.1401 27.8599 78.1538 27.8154 78.1572 27.7676C78.1572 27.7231 78.1572 27.6753 78.1401 27.6309C78.1265 27.5864 78.1025 27.5454 78.0718 27.5112C77.9624 27.3882 77.6309 27.1865 77.436 27.1865C77.3984 27.1865 77.3643 27.1934 77.3403 27.2139C77.1934 27.3403 77.4087 27.8257 77.5386 27.9692C77.5693 28.0034 77.6069 28.0342 77.6479 28.0547L77.6445 28.0581Z" fill="#242E30"/>
<path d="M76.6602 30.4507H75.9595V31.8486H76.6602V30.4507Z" fill="#242E30"/>
<path d="M74.917 31.8486L74.5718 30.4507H73.8608L74.2095 31.8486H74.917Z" fill="#242E30"/>
<path d="M78.7588 30.4507H78.0513L77.7095 31.8486H78.4136L78.7588 30.4507Z" fill="#242E30"/>
<path d="M81.4009 29.0083H81.1514L80.3379 27.4292C79.9448 26.8208 79.3022 26.4277 78.5811 26.356H78.54C78.2222 26.3184 77.9795 26.1064 77.8291 25.9321C77.4976 25.5459 76.9814 25.3477 76.2979 25.3477H76.209C75.5254 25.3477 75.0093 25.5425 74.6777 25.9321C74.5308 26.1064 74.2847 26.3184 73.9668 26.3525H73.9258C73.2046 26.4312 72.562 26.8208 72.1689 27.4326L71.3623 29.0083H71.0991V29.6919H71.8647L72.6577 33.291H79.873L80.666 29.6919H81.4009V29.0083ZM72.7534 27.7881C73.0337 27.3608 73.4883 27.0874 73.9976 27.0361H74.0386C74.4692 26.9883 74.8691 26.7627 75.1973 26.3765C75.3921 26.1475 75.7339 26.0312 76.209 26.0312H76.2979C76.7729 26.0312 77.1147 26.1475 77.3096 26.3765C77.6377 26.7627 78.041 26.9883 78.4683 27.0293H78.5093C79.0254 27.084 79.48 27.3643 79.7432 27.771L80.3789 29.0083H72.1313L72.7568 27.7881H72.7534ZM79.3228 32.6074H73.2046L72.562 29.6919H79.9653L79.3228 32.6074Z" fill="#242E30"/>
</g>
<path d="M87.3563 31.1063C85.8938 31.1063 85.2 29.9812 85.2 29C85.2 28.0187 85.8938 26.8937 87.3563 26.8937C88.025 26.8937 88.5063 27.15 88.8563 27.5062L88.2313 28.1312C88.0188 27.9125 87.6938 27.7875 87.35 27.7875C86.7188 27.7875 86.2125 28.3125 86.2125 29.0062C86.2125 29.6875 86.7188 30.2125 87.35 30.2125C87.6875 30.2125 88.0125 30.0875 88.225 29.875L88.85 30.5C88.5063 30.8562 88.0188 31.1063 87.3563 31.1063ZM90.6454 31.1063C89.5204 31.1063 88.9891 30.2437 88.9891 29.4875C88.9891 28.7312 89.5204 27.8687 90.6454 27.8687C91.7704 27.8687 92.3016 28.7312 92.3016 29.4875C92.3016 30.2437 91.7704 31.1063 90.6454 31.1063ZM89.9329 29.4875C89.9329 29.925 90.2579 30.2312 90.6454 30.2312C91.0329 30.2312 91.3579 29.925 91.3579 29.4875C91.3579 29.05 91.0329 28.7437 90.6454 28.7437C90.2579 28.7437 89.9329 29.05 89.9329 29.4875ZM92.7774 31.0312V27.9437H93.6461V28.3375H93.6586C93.8086 28.0937 94.1024 27.8687 94.5274 27.8687C94.6899 27.8687 94.8461 27.8875 94.9836 27.9312L94.7399 28.85C94.6399 28.7937 94.5086 28.7625 94.3774 28.7625C93.9836 28.7625 93.7024 29.0312 93.7024 29.4875V31.0312H92.7774ZM96.675 31.1063C95.5563 31.1063 95.0438 30.2437 95.0438 29.4875C95.0438 28.7312 95.5063 27.8687 96.625 27.8687C97.75 27.8687 98.1875 28.7312 98.1875 29.4875C98.1875 29.5812 98.1688 29.7312 98.15 29.8062H95.9813C96.075 30.1437 96.3938 30.2937 96.7063 30.2937C96.9813 30.2937 97.25 30.2 97.3813 30.05L97.9438 30.5937C97.7125 30.8812 97.2438 31.1063 96.675 31.1063ZM96.625 28.6437C96.3063 28.6437 96.0438 28.7937 95.9688 29.1625H97.275C97.2 28.7937 96.9375 28.6437 96.625 28.6437ZM100.211 31.0312V26.625H101.136V31.0312H100.211ZM102.799 27.1187C102.799 27.4 102.592 27.6375 102.249 27.6375C101.905 27.6375 101.699 27.4 101.699 27.1187C101.699 26.8375 101.905 26.5937 102.249 26.5937C102.592 26.5937 102.799 26.8375 102.799 27.1187ZM101.786 31.0312V27.9437H102.711V31.0312H101.786ZM105.192 31.1063C104.786 31.1063 104.486 30.9812 104.248 30.7312H104.236V31.0312H103.361V26.625H104.286V28.2H104.298C104.492 28.0062 104.798 27.8687 105.192 27.8687C106.073 27.8687 106.717 28.5375 106.717 29.4562C106.717 30.4062 106.073 31.1063 105.192 31.1063ZM105.03 30.2437C105.492 30.2437 105.773 29.9062 105.773 29.4875C105.773 29.0687 105.492 28.7312 105.03 28.7312C104.567 28.7312 104.286 29.0687 104.286 29.4875C104.286 29.9062 104.567 30.2437 105.03 30.2437ZM107.194 31.0312V27.9437H108.063V28.3375H108.075C108.225 28.0937 108.519 27.8687 108.944 27.8687C109.106 27.8687 109.263 27.8875 109.4 27.9312L109.156 28.85C109.056 28.7937 108.925 28.7625 108.794 28.7625C108.4 28.7625 108.119 29.0312 108.119 29.4875V31.0312H107.194ZM110.548 31.1063C109.886 31.1063 109.373 30.7625 109.373 30.1625C109.373 29.6 109.792 29.2812 110.661 29.2375L111.429 29.2V29.1875C111.429 28.825 111.161 28.6812 110.811 28.6812C110.529 28.6812 110.261 28.775 110.129 28.925L109.567 28.3812C109.804 28.0937 110.267 27.8687 110.904 27.8687C111.823 27.8687 112.354 28.375 112.354 29.1375V31.0312H111.486V30.7312H111.473C111.286 30.975 110.954 31.1063 110.548 31.1063ZM110.761 30.4562C111.142 30.4562 111.429 30.2437 111.429 29.9V29.8125L110.779 29.85C110.467 29.8687 110.304 29.9625 110.304 30.15C110.304 30.3625 110.511 30.4562 110.761 30.4562ZM112.931 31.0312V27.9437H113.8V28.3375H113.812C113.962 28.0937 114.256 27.8687 114.681 27.8687C114.844 27.8687 115 27.8875 115.137 27.9312L114.894 28.85C114.794 28.7937 114.662 28.7625 114.531 28.7625C114.137 28.7625 113.856 29.0312 113.856 29.4875V31.0312H112.931ZM115.907 32.2438C115.782 32.2438 115.638 32.2313 115.532 32.2063V31.3875C115.607 31.4063 115.719 31.4188 115.819 31.4188C116.151 31.4188 116.269 31.3 116.382 31.0312L115.169 27.9437H116.182L116.882 29.9062H116.894L117.594 27.9437H118.582L117.363 31.0312C117.051 31.8125 116.751 32.2438 115.907 32.2438Z" fill="#242E30"/>
<rect opacity="0.7" x="261.25" y="20.3125" width="18.4375" height="18.4375" rx="3.125" fill="white"/>
<rect x="260.938" y="20" width="19.0625" height="19.0625" rx="3.4375" stroke="#242E30" stroke-width="0.625"/>
<g opacity="0.4">
<g clip-path="url(#clip11_10_6639)">
<path d="M273.721 34.4433L270.55 32.7704C270.525 32.757 270.498 32.7499 270.47 32.7499C270.442 32.7499 270.415 32.757 270.391 32.7704L267.219 34.4433L267.816 30.8975C267.835 30.8505 267.835 30.7979 267.816 30.7509L265.215 28.2382L268.758 27.7183C268.785 27.7145 268.81 27.7048 268.831 27.6897C268.853 27.6747 268.871 27.6548 268.884 27.6316L270.47 24.4058L272.056 27.6316C272.069 27.6548 272.087 27.6747 272.109 27.6897C272.131 27.7048 272.156 27.7145 272.182 27.7183L275.725 28.2382L273.157 30.7509C273.14 30.7708 273.127 30.7941 273.119 30.8194C273.111 30.8446 273.108 30.8712 273.111 30.8975L273.721 34.4433ZM267.352 28.938L268.48 30.0311C268.614 30.1637 268.714 30.3269 268.772 30.5067C268.829 30.6866 268.843 30.8778 268.811 31.0641L268.546 32.6171L269.933 31.8839C270.098 31.7952 270.283 31.7489 270.47 31.7489C270.658 31.7489 270.842 31.7952 271.008 31.8839L272.394 32.6171L272.129 31.0641C272.097 30.8778 272.111 30.6866 272.169 30.5067C272.226 30.3269 272.327 30.1637 272.461 30.0311L273.589 28.938L272.036 28.7114C271.845 28.6884 271.662 28.6178 271.504 28.5061C271.347 28.3944 271.219 28.2451 271.134 28.0715L270.47 26.6585L269.807 28.0715C269.727 28.2466 269.605 28.3991 269.452 28.5154C269.299 28.6317 269.12 28.7082 268.931 28.738L267.352 28.938Z" fill="#797876"/>
</g>
</g>
<rect x="40" y="20" width="19.0625" height="19.0625" rx="3.4375" fill="#FF8000" stroke="#242E30" stroke-width="0.625"/>
<path d="M54.2816 29.4511C54.2512 29.3736 53.8361 28.6133 53.0659 27.6595C53.0465 27.6363 53.0342 27.6081 53.0305 27.5782V27.5782C52.9841 27.0231 52.9066 26.471 52.7982 25.9244C52.786 25.8695 52.7567 25.8198 52.7145 25.7822C52.6724 25.7447 52.6194 25.7212 52.563 25.715V25.715L51.7616 25.6174C51.7546 25.6167 51.7475 25.6167 51.7405 25.6174C51.6957 25.6174 51.6528 25.635 51.6211 25.6664C51.5894 25.6979 51.5716 25.7405 51.5716 25.7849V26.0605C51.5716 26.0632 51.5706 26.0658 51.5687 26.0677C51.5668 26.0695 51.5642 26.0706 51.5615 26.0706C51.559 26.0706 51.5566 26.0697 51.5547 26.0681V26.0681C51.0534 25.6173 50.5121 25.2121 49.9376 24.8575V24.8575C49.8204 24.7796 49.6825 24.7382 49.5415 24.7385V24.7385C49.4005 24.7381 49.2625 24.7795 49.1454 24.8575V24.8575C46.3831 26.549 44.8622 29.3003 44.8035 29.4511C44.7862 29.4873 44.7772 29.527 44.7773 29.5671C44.7774 29.6275 44.7977 29.6862 44.8351 29.7339C44.8725 29.7816 44.9248 29.8156 44.9838 29.8306L45.7797 29.9822C45.8321 29.9967 45.8789 30.0265 45.914 30.0676C45.9492 30.1088 45.9711 30.1594 45.9769 30.213C45.9837 30.3525 46.134 33.4661 46.3227 34.2738C46.3383 34.3318 46.3727 34.383 46.4207 34.4196C46.4686 34.4562 46.5274 34.4761 46.5879 34.4761H46.5938C47.0583 34.4643 47.4835 34.4568 47.9429 34.4505H47.9809C47.9926 34.4505 48.0042 34.4482 48.0151 34.4438C48.0259 34.4393 48.0358 34.4327 48.044 34.4245C48.0523 34.4162 48.0589 34.4064 48.0633 34.3957C48.0678 34.3849 48.07 34.3734 48.07 34.3617V34.3596C48.0514 34.0878 48.0113 33.4661 47.9788 32.8097C47.9788 32.7934 47.9788 32.7729 47.9758 32.7561C47.9744 32.7288 47.9662 32.7023 47.9521 32.6789C47.938 32.6555 47.9183 32.6358 47.8948 32.6216C47.7735 32.5498 47.672 32.4495 47.5992 32.3296C47.5264 32.2096 47.4845 32.0737 47.4772 31.9338C47.4349 30.8422 47.4142 29.5801 47.4746 28.5927C47.4774 28.552 47.4958 28.5139 47.5262 28.4864C47.5565 28.4588 47.5963 28.4439 47.6375 28.4447C47.6786 28.4455 47.7178 28.462 47.747 28.4907C47.7762 28.5195 47.7931 28.5582 47.7943 28.599C47.7943 28.6032 47.7943 28.6074 47.7943 28.6116C47.755 29.2697 47.752 30.048 47.7655 30.8158C47.766 30.8406 47.7713 30.865 47.7813 30.8877C47.7913 30.9104 47.8056 30.9309 47.8236 30.9481C47.8415 30.9653 47.8627 30.9788 47.886 30.9879C47.9092 30.997 47.934 31.0014 47.9589 31.001C47.9839 31.0005 48.0085 30.9952 48.0314 30.9853C48.0543 30.9754 48.075 30.9612 48.0923 30.9434C48.1096 30.9256 48.1233 30.9045 48.1324 30.8815C48.1415 30.8585 48.146 30.8339 48.1456 30.8091C48.1312 30.0362 48.135 29.2529 48.1751 28.5927C48.176 28.5506 48.1936 28.5106 48.2242 28.4814C48.2548 28.4522 48.2959 28.4363 48.3383 28.4371C48.3808 28.438 48.4211 28.4555 48.4505 28.4859C48.48 28.5162 48.496 28.5569 48.4952 28.599V28.6116C48.4559 29.2663 48.453 30.04 48.4665 30.8037C48.4672 30.8537 48.488 30.9013 48.5242 30.9361C48.5604 30.9709 48.609 30.99 48.6594 30.9892C48.7098 30.9884 48.7578 30.9678 48.7929 30.9319C48.828 30.896 48.8473 30.8478 48.8465 30.7978V30.7978C48.8325 30.0283 48.8363 29.2479 48.8765 28.5923C48.8773 28.5502 48.895 28.5102 48.9256 28.481C48.9562 28.4518 48.9972 28.4359 49.0397 28.4367C49.0821 28.4375 49.1225 28.4551 49.1519 28.4854C49.1813 28.5158 49.1974 28.5565 49.1965 28.5986C49.1965 28.6028 49.1965 28.607 49.1965 28.6112C49.1395 29.5713 49.1581 30.7861 49.1965 31.8521C49.1965 31.8521 49.1965 31.8614 49.1965 31.8622C49.1965 31.863 49.1965 31.8731 49.1965 31.8785V31.889C49.1966 32.0273 49.1628 32.1635 49.0979 32.2859C49.033 32.4083 48.939 32.5132 48.8241 32.5915C48.8037 32.6054 48.7867 32.6238 48.7745 32.6452C48.7623 32.6666 48.7552 32.6905 48.7536 32.7151C48.7536 32.7151 48.7337 32.8788 48.8068 33.6718C48.8406 34.0182 48.8667 34.2583 48.8786 34.3667C48.8813 34.387 48.8913 34.4056 48.9069 34.4191C48.9224 34.4325 48.9424 34.4398 48.963 34.4396H49.0373C49.1906 34.4396 49.3485 34.4396 49.5128 34.4396H49.5744H50.1706L50.6224 34.4434C50.6432 34.4436 50.6633 34.4361 50.6788 34.4225C50.6944 34.4089 50.7044 34.3901 50.7069 34.3697C50.8112 33.4192 50.8357 32.8851 50.8357 32.8851C50.8351 32.8624 50.8262 32.8406 50.8107 32.8238C50.7952 32.807 50.774 32.7963 50.7512 32.7938L50.2023 32.7188C50.1659 32.7144 50.1316 32.6993 50.1037 32.6757C50.0759 32.652 50.0557 32.6206 50.0456 32.5856C50.0387 32.5583 50.0363 32.53 50.0385 32.5018C50.261 29.3338 51.3141 28.266 51.3141 28.266C51.3294 28.2496 51.3466 28.2348 51.3652 28.222C51.3938 28.2012 51.4284 28.19 51.464 28.1902C51.4979 28.1902 51.531 28.2004 51.559 28.2194C51.587 28.2384 51.6086 28.2653 51.621 28.2966C51.6288 28.3213 51.6333 28.3469 51.6345 28.3728C51.7257 29.3685 51.681 31.0634 51.6248 32.3854C51.5771 33.5076 51.5197 34.3885 51.5197 34.3885C51.5196 34.3971 51.5213 34.4056 51.5246 34.4135C51.5278 34.4214 51.5326 34.4286 51.5387 34.4347C51.5448 34.4408 51.552 34.4456 51.56 34.4489C51.568 34.4522 51.5765 34.4539 51.5851 34.4539V34.4539C51.8841 34.4589 52.1784 34.4648 52.4904 34.4727H52.4963C52.5568 34.4727 52.6156 34.4529 52.6636 34.4163C52.7115 34.3797 52.746 34.3284 52.7615 34.2704V34.2704C52.9507 33.4628 53.0993 30.3492 53.1073 30.2097C53.1134 30.1559 53.1356 30.1051 53.171 30.064C53.2065 30.0228 53.2536 29.9932 53.3062 29.9789L54.1021 29.8272C54.1611 29.8123 54.2134 29.7782 54.2508 29.7305C54.2882 29.6828 54.3085 29.6242 54.3086 29.5637C54.3077 29.5247 54.2985 29.4863 54.2816 29.4511V29.4511Z" fill="white"/>
<defs>
<clipPath id="clip0_10_6639">
<rect width="39.8438" height="16.0938" fill="white" transform="translate(216.562 135.312)"/>
</clipPath>
<clipPath id="clip1_10_6639">
<rect width="40.0391" height="16.0938" fill="white" transform="translate(216.562 135.312)"/>
</clipPath>
<clipPath id="clip2_10_6639">
<rect x="40.3125" y="126.875" width="159.688" height="32.8125" rx="3.125" fill="white"/>
</clipPath>
<clipPath id="clip3_10_6639">
<rect width="6.25" height="6.25" fill="white" transform="translate(48.125 133.438)"/>
</clipPath>
<clipPath id="clip4_10_6639">
<rect width="5.46875" height="5.46875" fill="white" transform="translate(48.5156 133.828)"/>
</clipPath>
<clipPath id="clip5_10_6639">
<rect width="6.25" height="6.25" fill="white" transform="translate(88.375 133.438)"/>
</clipPath>
<clipPath id="clip6_10_6639">
<rect width="5.46875" height="5.46875" fill="white" transform="translate(88.7656 133.828)"/>
</clipPath>
<clipPath id="clip7_10_6639">
<rect x="39.6875" y="43.125" width="240.625" height="79.375" rx="3.125" fill="white"/>
</clipPath>
<clipPath id="clip8_10_6639">
<rect width="109.375" height="109.375" fill="white" transform="translate(196.96 17.0544) rotate(21.3546)"/>
</clipPath>
<clipPath id="clip9_10_6639">
<rect width="95.7031" height="95.7031" fill="white" transform="translate(200.837 25.9104) rotate(21.3546)"/>
</clipPath>
<clipPath id="clip10_10_6639">
<rect width="10.9375" height="10.9375" fill="white" transform="translate(70.7812 24.0625)"/>
</clipPath>
<clipPath id="clip11_10_6639">
<rect width="10.6158" height="10.6641" fill="white" transform="translate(265.162 24.1992)"/>
</clipPath>
</defs>
</svg>
