<svg width="320" height="180" viewBox="0 0 320 180" fill="none" xmlns="http://www.w3.org/2000/svg">
<rect width="320" height="180" fill="#F5F3F1"/>
<rect width="266.667" height="150" transform="translate(27 15)" fill="#F5F3F1"/>
<rect x="211.722" y="125.555" width="75.8333" height="33.3333" rx="3.05556" fill="#FF8000"/>
<rect x="211.722" y="125.555" width="75.8333" height="33.3333" rx="3.05556" stroke="#242E30" stroke-width="0.555556"/>
<g clip-path="url(#clip0_9_6148)">
<g clip-path="url(#clip1_9_6148)">
<path d="M237.572 151.895H240.273C240.417 151.895 240.535 151.778 240.535 151.636V146.963H240.578C241.211 147.727 242.344 148.12 243.695 148.12C246.768 148.12 249.014 145.675 249.014 142.358C249.014 139.04 246.768 136.813 243.695 136.813C242.234 136.813 241.036 137.293 240.404 138.123H240.361V137.335C240.361 137.192 240.243 137.075 240.099 137.075H237.572C237.428 137.075 237.31 137.192 237.31 137.335V151.636C237.31 151.778 237.428 151.895 237.572 151.895ZM243.13 145.107C241.518 145.107 240.537 143.928 240.537 142.467C240.537 141.005 241.518 139.826 243.13 139.826C244.743 139.826 245.724 141.005 245.724 142.467C245.724 143.928 244.743 145.107 243.13 145.107Z" fill="white"/>
<path d="M254.208 134.195C254.208 133.213 253.489 132.361 252.29 132.361C251.092 132.361 250.372 133.212 250.372 134.195C250.372 135.178 251.092 136.007 252.29 136.007C253.489 136.007 254.208 135.177 254.208 134.195ZM250.94 147.858H253.641C253.785 147.858 253.903 147.741 253.903 147.598V137.335C253.903 137.192 253.785 137.075 253.641 137.075H250.94C250.796 137.075 250.678 137.192 250.678 137.335V147.598C250.678 147.741 250.796 147.858 250.94 147.858Z" fill="white"/>
<path d="M261.249 148.12C263.105 148.12 264.655 147.432 265.508 146.521C265.605 146.418 265.598 146.257 265.497 146.159L263.901 144.614C263.803 144.52 263.646 144.509 263.541 144.597C263.045 145.023 262.209 145.281 261.357 145.281C260.39 145.281 259.407 144.868 258.969 143.954C258.885 143.78 259.01 143.579 259.204 143.579H266.178C266.307 143.579 266.415 143.489 266.436 143.363C266.484 143.087 266.523 142.718 266.523 142.467C266.523 139.826 264.997 136.813 261.073 136.813C257.149 136.813 255.558 139.825 255.558 142.467C255.558 145.108 257.345 148.12 261.247 148.12H261.249ZM261.074 139.52C262.117 139.52 263 139.999 263.304 141.167C263.325 141.25 263.263 141.332 263.177 141.332H258.951C258.864 141.332 258.803 141.25 258.824 141.167C259.128 139.999 260.012 139.52 261.074 139.52Z" fill="white"/>
<path d="M227.596 138.707C227.647 138.757 227.73 138.757 227.781 138.707L229.797 136.711C229.857 136.651 229.845 136.549 229.771 136.506C229.245 136.206 228.682 135.966 228.09 135.791C228.044 135.777 227.993 135.791 227.959 135.825L226.414 137.354C226.363 137.405 226.363 137.486 226.414 137.537L227.596 138.707Z" fill="white"/>
<path d="M231.768 144.19C231.717 144.14 231.635 144.14 231.584 144.19L230.402 145.36C230.351 145.411 230.351 145.492 230.402 145.543L232.4 147.521C232.46 147.58 232.561 147.569 232.604 147.497C232.919 146.992 233.177 146.448 233.369 145.876C233.385 145.829 233.372 145.778 233.337 145.743L231.767 144.189L231.768 144.19Z" fill="white"/>
<path d="M222.333 144.096L225.154 141.303L225.157 141.306L225.546 140.921C225.597 140.87 225.679 140.87 225.73 140.921L228.164 143.33C228.216 143.381 228.216 143.463 228.164 143.513L226.389 145.271C226.338 145.321 226.338 145.403 226.389 145.453L227.571 146.623C227.622 146.674 227.705 146.674 227.756 146.623L233.367 141.069C233.402 141.034 233.415 140.983 233.399 140.936C233.212 140.359 232.957 139.812 232.648 139.302C232.604 139.23 232.502 139.219 232.442 139.279L229.718 141.975C229.667 142.026 229.585 142.026 229.533 141.975L223.393 135.896C223.358 135.861 223.305 135.848 223.258 135.864C222.681 136.056 222.132 136.311 221.621 136.621C221.549 136.666 221.538 136.765 221.597 136.824L224.179 139.38C224.23 139.431 224.23 139.512 224.179 139.563L221.745 141.972C221.694 142.023 221.612 142.023 221.56 141.972L219.032 139.473C218.97 139.412 218.867 139.425 218.825 139.501C218.526 140.026 218.288 140.587 218.116 141.179C218.103 141.224 218.116 141.273 218.15 141.307L220.193 143.329C220.244 143.38 220.244 143.461 220.193 143.512L218.175 145.509C218.141 145.543 218.128 145.593 218.141 145.639C218.318 146.224 218.56 146.781 218.862 147.3C218.905 147.374 219.007 147.386 219.069 147.326L222.333 144.094V144.096Z" fill="white"/>
<path d="M226.298 146.715L223.768 144.211C223.717 144.16 223.634 144.16 223.583 144.211L222.426 145.356C222.375 145.407 222.375 145.488 222.426 145.539L224.179 147.274C224.23 147.325 224.23 147.407 224.179 147.457L221.665 149.946C221.605 150.006 221.617 150.105 221.689 150.149C222.205 150.456 222.757 150.708 223.34 150.894C223.387 150.909 223.439 150.897 223.473 150.861L225.544 148.811C225.595 148.761 225.678 148.761 225.729 148.811L227.871 150.932C227.905 150.965 227.955 150.978 228.001 150.965C228.585 150.799 229.142 150.568 229.663 150.282C229.739 150.24 229.752 150.137 229.691 150.077L226.294 146.714L226.298 146.715Z" fill="white"/>
</g>
</g>
<path d="M275.333 133.944L277.248 133.189L277.531 135.176L279.58 135.451L278.801 137.308L280.433 138.541L278.801 139.772L279.58 141.63L277.531 141.905L277.248 143.891L275.333 143.136L274.063 144.719L272.794 143.136L270.879 143.891L270.596 141.905L268.548 141.63L269.326 139.772L267.694 138.541L269.326 137.308L268.548 135.451L270.596 135.176L270.879 133.189L272.794 133.944L274.063 132.361L275.333 133.944ZM274.08 135.213C273.544 135.213 273.099 135.289 272.746 135.44C272.393 135.592 272.079 135.805 271.805 136.082L272.658 137.05C272.795 136.892 272.975 136.764 273.197 136.665C273.426 136.566 273.666 136.516 273.914 136.516C274.123 136.516 274.309 136.566 274.473 136.665C274.642 136.763 274.727 136.937 274.728 137.187C274.728 137.378 274.668 137.537 274.551 137.662C274.44 137.78 274.27 137.84 274.041 137.84H273.354V139.133H274.021C274.316 139.133 274.548 139.189 274.718 139.301C274.888 139.412 274.973 139.584 274.973 139.814C274.973 140.051 274.875 140.235 274.679 140.367C274.483 140.499 274.234 140.564 273.934 140.564C273.672 140.564 273.416 140.515 273.168 140.416C272.926 140.311 272.724 140.173 272.561 140.002L271.688 141.018C271.969 141.295 272.292 141.505 272.658 141.65C273.031 141.795 273.485 141.868 274.021 141.868C274.453 141.868 274.832 141.821 275.159 141.729C275.486 141.631 275.758 141.499 275.974 141.335C276.189 141.164 276.353 140.966 276.464 140.742C276.575 140.512 276.631 140.268 276.631 140.011C276.631 139.827 276.594 139.653 276.522 139.488C276.451 139.324 276.353 139.172 276.229 139.034C276.104 138.896 275.954 138.78 275.777 138.688C275.601 138.59 275.411 138.518 275.208 138.471V138.412C275.594 138.28 275.885 138.086 276.081 137.83C276.284 137.567 276.386 137.28 276.386 136.97C276.386 136.734 276.333 136.51 276.229 136.3C276.124 136.082 275.974 135.894 275.777 135.736C275.581 135.572 275.339 135.443 275.052 135.351C274.771 135.259 274.446 135.213 274.08 135.213Z" fill="white"/>
<g clip-path="url(#clip2_9_6148)">
<rect x="33.3887" y="125.833" width="173.056" height="32.7778" rx="2.77778" fill="white"/>
<rect x="38.1113" y="130.139" width="19.2222" height="8.22222" rx="1.11111" fill="#262626"/>
<g clip-path="url(#clip3_9_6148)">
<g clip-path="url(#clip4_9_6148)">
<path d="M44.8154 134.966C44.8154 134.988 44.7971 135.006 44.7911 135.024C44.6758 135.354 44.4914 135.655 44.2503 135.908C44.1604 136 44.0429 136.059 43.9159 136.076C43.789 136.094 43.6597 136.069 43.5484 136.005C43.4354 135.94 43.307 135.905 43.1763 135.905C43.0455 135.905 42.9171 135.94 42.8041 136.005C42.6964 136.064 42.5742 136.092 42.4517 136.084C42.3777 136.078 42.3061 136.056 42.2416 136.019C42.1771 135.982 42.1213 135.932 42.078 135.872C41.6288 135.39 41.3828 134.753 41.3913 134.094C41.393 133.907 41.4323 133.722 41.5068 133.551C41.5569 133.423 41.633 133.307 41.7303 133.21C41.8277 133.114 41.9441 133.038 42.0721 132.989C42.2002 132.94 42.3371 132.918 42.4741 132.925C42.6111 132.932 42.7452 132.967 42.8679 133.028C42.948 133.074 43.0386 133.098 43.1307 133.098C43.2228 133.098 43.3134 133.074 43.3935 133.028C43.4779 132.985 43.5664 132.95 43.6578 132.925C43.8825 132.88 44.1157 132.904 44.3262 132.995C44.4889 133.056 44.6252 133.172 44.7121 133.323L44.5419 133.475C44.4784 133.529 44.4222 133.591 44.3748 133.66C44.2791 133.832 44.2402 134.03 44.2636 134.225C44.2871 134.42 44.3718 134.603 44.5055 134.748C44.5879 134.846 44.6947 134.922 44.8154 134.966Z" fill="white"/>
<path d="M43.9373 131.901C43.9552 132.052 43.9299 132.204 43.8644 132.341C43.8135 132.471 43.7314 132.586 43.6254 132.676C43.5194 132.766 43.3928 132.829 43.2568 132.858C43.0654 132.897 43.0684 132.9 43.0897 132.706C43.1162 132.51 43.2034 132.327 43.339 132.182C43.4746 132.038 43.652 131.94 43.8462 131.901C43.8765 131.899 43.907 131.899 43.9373 131.901Z" fill="white"/>
</g>
</g>
<path d="M49.1024 132.423C49.1024 132.524 49.0684 132.614 49.0002 132.694C48.9321 132.771 48.8328 132.81 48.7024 132.81C48.5691 132.81 48.4698 132.771 48.4047 132.694C48.3395 132.614 48.3069 132.524 48.3069 132.423C48.3069 132.323 48.3395 132.234 48.4047 132.157C48.4698 132.077 48.5691 132.037 48.7024 132.037C48.8328 132.037 48.9321 132.077 49.0002 132.157C49.0684 132.234 49.1024 132.323 49.1024 132.423ZM48.3469 133.054H49.0536V135.25H48.3469V133.054ZM50.9231 135.303C50.6712 135.303 50.452 135.262 50.2653 135.179C50.0816 135.093 49.929 134.98 49.8075 134.841C49.6861 134.702 49.5957 134.542 49.5364 134.361C49.4772 134.18 49.4475 133.992 49.4475 133.797C49.4475 133.607 49.4772 133.423 49.5364 133.246C49.5957 133.065 49.6861 132.906 49.8075 132.77C49.929 132.631 50.0816 132.52 50.2653 132.437C50.452 132.351 50.6712 132.308 50.9231 132.308C51.172 132.308 51.3883 132.351 51.572 132.437C51.7587 132.52 51.9127 132.631 52.0342 132.77C52.1587 132.906 52.2505 133.065 52.3098 133.246C52.369 133.423 52.3987 133.607 52.3987 133.797C52.3987 133.992 52.369 134.18 52.3098 134.361C52.2505 134.542 52.1587 134.702 52.0342 134.841C51.9127 134.98 51.7587 135.093 51.572 135.179C51.3883 135.262 51.172 135.303 50.9231 135.303ZM50.9231 134.69C51.1335 134.69 51.3024 134.616 51.4298 134.468C51.5601 134.317 51.6253 134.093 51.6253 133.797C51.6253 133.651 51.6075 133.524 51.572 133.414C51.5394 133.305 51.492 133.213 51.4298 133.139C51.3675 133.065 51.2935 133.01 51.2075 132.974C51.1216 132.939 51.0268 132.921 50.9231 132.921C50.7127 132.921 50.5424 132.994 50.412 133.139C50.2846 133.284 50.2209 133.503 50.2209 133.797C50.2209 134.093 50.2846 134.317 50.412 134.468C50.5424 134.616 50.7127 134.69 50.9231 134.69ZM53.7868 135.303C53.5171 135.303 53.289 135.262 53.1023 135.179C52.9186 135.093 52.7646 134.976 52.6401 134.828L53.1246 134.379C53.166 134.423 53.2075 134.465 53.249 134.503C53.2934 134.539 53.3409 134.571 53.3912 134.601C53.4446 134.631 53.5023 134.654 53.5646 134.672C53.6297 134.687 53.7023 134.694 53.7823 134.694C53.9038 134.694 54.0031 134.671 54.0801 134.623C54.1571 134.576 54.1957 134.503 54.1957 134.406C54.1957 134.358 54.1809 134.318 54.1512 134.286C54.1246 134.253 54.0831 134.225 54.0268 134.201C53.9705 134.174 53.8994 134.149 53.8134 134.126C53.7305 134.102 53.6327 134.074 53.5201 134.041C53.4194 134.011 53.3216 133.976 53.2268 133.934C53.1349 133.893 53.052 133.84 52.9779 133.774C52.9068 133.706 52.849 133.625 52.8046 133.53C52.7601 133.435 52.7379 133.321 52.7379 133.188C52.7379 133.049 52.7646 132.926 52.8179 132.819C52.8742 132.709 52.9512 132.617 53.049 132.543C53.1497 132.466 53.2683 132.409 53.4046 132.37C53.5438 132.329 53.6979 132.308 53.8668 132.308C54.1275 132.308 54.3423 132.348 54.5112 132.428C54.6801 132.508 54.8164 132.614 54.9201 132.748L54.4401 133.192C54.372 133.115 54.2949 133.051 54.209 133.001C54.126 132.948 54.0164 132.921 53.8801 132.921C53.7764 132.921 53.686 132.94 53.609 132.979C53.5349 133.017 53.4979 133.084 53.4979 133.179C53.4979 133.229 53.5112 133.271 53.5379 133.303C53.5675 133.333 53.6105 133.361 53.6668 133.388C53.7231 133.411 53.7927 133.435 53.8757 133.459C53.9616 133.483 54.0609 133.511 54.1734 133.543C54.2742 133.573 54.3705 133.609 54.4623 133.65C54.5571 133.691 54.6401 133.746 54.7112 133.814C54.7853 133.88 54.8446 133.96 54.889 134.054C54.9334 134.149 54.9557 134.263 54.9557 134.397C54.9557 134.539 54.9275 134.666 54.8712 134.779C54.8149 134.889 54.7349 134.983 54.6312 135.063C54.5305 135.14 54.4075 135.2 54.2623 135.241C54.1201 135.283 53.9616 135.303 53.7868 135.303Z" fill="white"/>
<rect x="59.5552" y="130.139" width="29.2222" height="8.22222" rx="1.11111" fill="#262626"/>
<g clip-path="url(#clip5_9_6148)">
<g clip-path="url(#clip6_9_6148)">
<path fill-rule="evenodd" clip-rule="evenodd" d="M64.403 131.734C64.0843 131.764 63.7997 131.893 63.5887 132.083L63.3458 131.661C63.3367 131.646 63.3184 131.64 63.3033 131.649C63.2881 131.658 63.2911 131.691 63.2911 131.691L63.542 132.127C63.3401 132.329 63.2165 132.592 63.2121 132.879H65.8918C65.8874 132.593 65.7655 132.332 65.5662 132.131L65.8189 131.691C65.828 131.676 65.8219 131.658 65.8067 131.649C65.7915 131.64 65.7642 131.661 65.7642 131.661L65.5196 132.086C65.3082 131.894 65.0218 131.765 64.7008 131.734H64.403ZM64.0051 132.5C64.0872 132.5 64.157 132.43 64.157 132.348C64.157 132.266 64.0872 132.199 64.0021 132.199C63.9201 132.199 63.8502 132.266 63.8502 132.351C63.8502 132.433 63.9201 132.5 64.0051 132.5ZM65.1536 132.5C65.2356 132.5 65.3055 132.43 65.3055 132.348C65.3055 132.266 65.2356 132.199 65.1505 132.199C65.0685 132.199 64.9986 132.266 64.9986 132.351C64.9986 132.433 65.0685 132.5 65.1536 132.5Z" fill="white"/>
<path d="M64.9287 135.349H64.1813V136.112C64.1813 136.276 64.0477 136.41 63.8836 136.41C63.7195 136.41 63.5859 136.276 63.5859 136.112V135.349H63.5737C63.3701 135.349 63.2061 135.179 63.2061 134.973V133.007H65.907V134.973C65.907 135.182 65.743 135.349 65.5394 135.349H65.5241V136.112C65.5241 136.276 65.3905 136.41 65.2264 136.41C65.0623 136.41 64.9287 136.276 64.9287 136.112V135.349Z" fill="white"/>
<path d="M63.0237 133.475C63.0237 133.311 62.89 133.177 62.726 133.177C62.5619 133.177 62.4282 133.311 62.4282 133.475V134.751C62.4282 134.915 62.5619 135.049 62.726 135.049C62.89 135.049 63.0237 134.915 63.0237 134.751V133.475Z" fill="white"/>
<path d="M66.6817 133.475C66.6817 133.311 66.548 133.177 66.384 133.177C66.2199 133.177 66.0862 133.311 66.0862 133.475V134.751C66.0862 134.915 66.2199 135.049 66.384 135.049C66.548 135.049 66.6817 134.915 66.6817 134.751V133.475Z" fill="white"/>
</g>
</g>
<path d="M70.693 132.361H71.5996L72.693 135.25H71.8974L71.7196 134.774H70.5418L70.3641 135.25H69.5996L70.693 132.361ZM70.7507 134.197H71.5107L71.1418 133.086H71.1152L70.7507 134.197ZM72.9722 133.054H73.6344V133.419H73.661C73.7055 133.297 73.7855 133.198 73.901 133.121C74.0196 133.041 74.1544 133.001 74.3055 133.001C74.4507 133.001 74.5722 133.022 74.6699 133.063C74.7707 133.102 74.8507 133.16 74.9099 133.237C74.9692 133.314 75.0107 133.41 75.0344 133.526C75.061 133.638 75.0744 133.767 75.0744 133.912V135.25H74.3677V134.054C74.3677 133.915 74.344 133.806 74.2966 133.726C74.2492 133.643 74.1603 133.601 74.0299 133.601C73.9055 133.601 73.8151 133.64 73.7588 133.717C73.7055 133.794 73.6788 133.906 73.6788 134.054V135.25H72.9722V133.054ZM76.3376 135.303C76.2042 135.303 76.0813 135.277 75.9687 135.223C75.8561 135.167 75.7568 135.09 75.6709 134.992C75.5879 134.894 75.5228 134.776 75.4753 134.637C75.4279 134.497 75.4042 134.343 75.4042 134.174C75.4042 134 75.4279 133.841 75.4753 133.699C75.5228 133.554 75.5879 133.429 75.6709 133.326C75.7568 133.222 75.8561 133.142 75.9687 133.086C76.0813 133.029 76.2042 133.001 76.3376 133.001C76.5005 133.001 76.6353 133.04 76.742 133.117C76.8516 133.191 76.9302 133.29 76.9776 133.414H77.0042V132.028H77.7109V135.25H77.0398V134.859H77.0131C76.9598 135.001 76.8739 135.111 76.7553 135.188C76.6398 135.265 76.5005 135.303 76.3376 135.303ZM76.5642 134.694C76.7124 134.694 76.822 134.643 76.8931 134.539C76.9672 134.432 77.0042 134.303 77.0042 134.152C77.0042 134.001 76.9672 133.874 76.8931 133.77C76.822 133.663 76.7124 133.61 76.5642 133.61C76.422 133.61 76.3139 133.663 76.2398 133.77C76.1657 133.874 76.1287 134.001 76.1287 134.152C76.1287 134.303 76.1657 134.432 76.2398 134.539C76.3139 134.643 76.422 134.694 76.5642 134.694ZM78.1805 133.054H78.8427V133.432H78.8694C78.9138 133.296 78.9835 133.191 79.0783 133.117C79.176 133.04 79.299 133.001 79.4472 133.001C79.5627 133.001 79.6664 133.016 79.7583 133.046L79.5805 133.694C79.5479 133.674 79.5094 133.659 79.4649 133.65C79.4235 133.638 79.382 133.632 79.3405 133.632C79.2072 133.632 79.0975 133.671 79.0116 133.748C78.9286 133.822 78.8872 133.94 78.8872 134.103V135.25H78.1805V133.054ZM80.9734 135.303C80.7838 135.303 80.6164 135.274 80.4712 135.214C80.329 135.152 80.2105 135.069 80.1157 134.966C80.0208 134.859 79.9483 134.736 79.8979 134.597C79.8505 134.457 79.8268 134.309 79.8268 134.152C79.8268 133.995 79.8505 133.847 79.8979 133.708C79.9483 133.569 80.0208 133.447 80.1157 133.343C80.2105 133.237 80.329 133.154 80.4712 133.094C80.6164 133.032 80.7838 133.001 80.9734 133.001C81.1631 133.001 81.329 133.032 81.4712 133.094C81.6134 133.154 81.732 133.237 81.8268 133.343C81.9216 133.447 81.9927 133.569 82.0401 133.708C82.0905 133.847 82.1157 133.995 82.1157 134.152C82.1157 134.309 82.0905 134.457 82.0401 134.597C81.9927 134.736 81.9216 134.859 81.8268 134.966C81.732 135.069 81.6134 135.152 81.4712 135.214C81.329 135.274 81.1631 135.303 80.9734 135.303ZM80.5468 134.152C80.5468 134.342 80.5868 134.487 80.6668 134.588C80.7468 134.689 80.849 134.739 80.9734 134.739C81.0979 134.739 81.1986 134.689 81.2757 134.588C81.3557 134.487 81.3957 134.342 81.3957 134.152C81.3957 133.963 81.3557 133.817 81.2757 133.717C81.1986 133.616 81.0979 133.566 80.9734 133.566C80.849 133.566 80.7468 133.616 80.6668 133.717C80.5868 133.817 80.5468 133.963 80.5468 134.152ZM83.2156 132.423C83.2156 132.524 83.1815 132.614 83.1133 132.694C83.0452 132.771 82.9459 132.81 82.8156 132.81C82.6822 132.81 82.583 132.771 82.5178 132.694C82.4526 132.614 82.42 132.524 82.42 132.423C82.42 132.323 82.4526 132.234 82.5178 132.157C82.583 132.077 82.6822 132.037 82.8156 132.037C82.9459 132.037 83.0452 132.077 83.1133 132.157C83.1815 132.234 83.2156 132.323 83.2156 132.423ZM82.46 133.054H83.1667V135.25H82.46V133.054ZM84.4496 135.303C84.3162 135.303 84.1933 135.277 84.0807 135.223C83.9681 135.167 83.8688 135.09 83.7829 134.992C83.6999 134.894 83.6347 134.776 83.5873 134.637C83.5399 134.497 83.5162 134.343 83.5162 134.174C83.5162 134 83.5399 133.841 83.5873 133.699C83.6347 133.554 83.6999 133.429 83.7829 133.326C83.8688 133.222 83.9681 133.142 84.0807 133.086C84.1933 133.029 84.3162 133.001 84.4496 133.001C84.6125 133.001 84.7473 133.04 84.854 133.117C84.9636 133.191 85.0421 133.29 85.0896 133.414H85.1162V132.028H85.8229V135.25H85.1518V134.859H85.1251C85.0718 135.001 84.9858 135.111 84.8673 135.188C84.7518 135.265 84.6125 135.303 84.4496 135.303ZM84.6762 134.694C84.8244 134.694 84.934 134.643 85.0051 134.539C85.0792 134.432 85.1162 134.303 85.1162 134.152C85.1162 134.001 85.0792 133.874 85.0051 133.77C84.934 133.663 84.8244 133.61 84.6762 133.61C84.534 133.61 84.4258 133.663 84.3518 133.77C84.2777 133.874 84.2407 134.001 84.2407 134.152C84.2407 134.303 84.2777 134.432 84.3518 134.539C84.4258 134.643 84.534 134.694 84.6762 134.694Z" fill="white"/>
<rect x="91" y="130.139" width="22.2222" height="8.22222" rx="1.11111" fill="#262626"/>
<g clip-path="url(#clip7_9_6148)">
<g clip-path="url(#clip8_9_6148)">
<path d="M97.7471 134.565V132.812C97.7463 132.672 97.69 132.537 97.5905 132.437C97.4909 132.338 97.3562 132.282 97.2154 132.281H94.7848C94.6441 132.282 94.5093 132.338 94.4098 132.437C94.3102 132.537 94.2539 132.672 94.2531 132.812V134.565L93.6455 135.477V135.547C93.6463 135.688 93.7026 135.822 93.8021 135.922C93.9017 136.021 94.0364 136.078 94.1772 136.079H97.823C97.9638 136.078 98.0986 136.021 98.1981 135.922C98.2976 135.822 98.3539 135.688 98.3547 135.547V135.477L97.7471 134.565ZM94.7089 132.812C94.7089 132.792 94.7169 132.773 94.7311 132.759C94.7454 132.744 94.7647 132.736 94.7848 132.736H97.2154C97.2355 132.736 97.2549 132.744 97.2691 132.759C97.2833 132.773 97.2913 132.792 97.2913 132.812V134.407H94.7089V132.812ZM97.823 135.623H96.5439L96.4346 135.374H95.5656L95.4563 135.623H94.1772C94.1654 135.623 94.1539 135.62 94.1434 135.614C94.1329 135.609 94.1237 135.602 94.1164 135.592L94.6025 134.863H97.3977L97.8838 135.592C97.8766 135.602 97.8674 135.609 97.8568 135.614C97.8463 135.62 97.8348 135.623 97.823 135.623V135.623Z" fill="white"/>
</g>
</g>
<path d="M103.689 135.25L103.253 133.152H103.227L102.791 135.25H101.902L101.062 132.361H101.871L102.351 134.366H102.378L102.791 132.361H103.711L104.12 134.366H104.147L104.631 132.361H105.418L104.578 135.25H103.689ZM106.541 135.303C106.34 135.303 106.167 135.271 106.021 135.206C105.879 135.14 105.762 135.054 105.67 134.948C105.578 134.841 105.51 134.72 105.466 134.583C105.421 134.444 105.399 134.3 105.399 134.152C105.399 134.007 105.418 133.865 105.457 133.726C105.498 133.586 105.562 133.463 105.648 133.357C105.737 133.25 105.851 133.164 105.99 133.099C106.13 133.034 106.3 133.001 106.501 133.001C106.703 133.001 106.873 133.034 107.013 133.099C107.152 133.161 107.263 133.246 107.346 133.352C107.432 133.456 107.493 133.576 107.528 133.712C107.567 133.849 107.586 133.989 107.586 134.134C107.586 134.167 107.583 134.21 107.577 134.263C107.571 134.314 107.564 134.352 107.555 134.379H106.115C106.127 134.444 106.149 134.499 106.181 134.543C106.217 134.588 106.257 134.623 106.301 134.65C106.346 134.677 106.392 134.696 106.439 134.708C106.49 134.72 106.537 134.726 106.581 134.726C106.685 134.726 106.774 134.709 106.848 134.677C106.925 134.644 106.984 134.601 107.026 134.548L107.413 134.952C107.341 135.056 107.229 135.14 107.075 135.206C106.921 135.271 106.743 135.303 106.541 135.303ZM106.501 133.526C106.407 133.526 106.322 133.555 106.248 133.614C106.174 133.671 106.125 133.77 106.101 133.912H106.893C106.872 133.77 106.824 133.671 106.75 133.614C106.676 133.555 106.593 133.526 106.501 133.526ZM109.306 135.303C109.14 135.303 108.999 135.265 108.884 135.188C108.768 135.111 108.682 135.001 108.626 134.859H108.599V135.25H107.928V132.028H108.635V133.414H108.662C108.709 133.29 108.786 133.191 108.893 133.117C109.002 133.04 109.14 133.001 109.306 133.001C109.436 133.001 109.558 133.029 109.67 133.086C109.786 133.142 109.885 133.222 109.968 133.326C110.054 133.429 110.121 133.554 110.168 133.699C110.216 133.841 110.239 134 110.239 134.174C110.239 134.343 110.216 134.497 110.168 134.637C110.121 134.776 110.054 134.894 109.968 134.992C109.885 135.09 109.786 135.167 109.67 135.223C109.558 135.277 109.436 135.303 109.306 135.303ZM109.075 134.694C109.217 134.694 109.325 134.643 109.399 134.539C109.476 134.432 109.515 134.303 109.515 134.152C109.515 134.001 109.476 133.874 109.399 133.77C109.325 133.663 109.217 133.61 109.075 133.61C108.93 133.61 108.82 133.663 108.746 133.77C108.672 133.874 108.635 134.001 108.635 134.152C108.635 134.303 108.672 134.432 108.746 134.539C108.82 134.643 108.93 134.694 109.075 134.694Z" fill="white"/>
<rect x="115.444" y="130.139" width="38.2222" height="8.22222" rx="1.11111" fill="#262626"/>
<g clip-path="url(#clip9_9_6148)">
<g clip-path="url(#clip10_9_6148)">
<path d="M121.395 131.925H119.49V133.83H121.395V131.925ZM120.939 133.375H119.946V132.381H120.939V133.375Z" fill="white"/>
<path d="M118.317 136.17H120.222V134.265H118.317V136.17ZM118.773 134.72H119.767V135.714H118.773V134.72Z" fill="white"/>
<path d="M120.66 134.262V136.167H122.565V134.262H120.66ZM122.109 135.711H121.116V134.717H122.109V135.711Z" fill="white"/>
</g>
</g>
<path d="M125.711 132.361H127.555V132.952H126.462V133.619H127.511V134.21H126.462V135.25H125.711V132.361ZM128.959 135.303C128.769 135.303 128.602 135.274 128.457 135.214C128.315 135.152 128.196 135.069 128.101 134.966C128.006 134.859 127.934 134.736 127.883 134.597C127.836 134.457 127.812 134.309 127.812 134.152C127.812 133.995 127.836 133.847 127.883 133.708C127.934 133.569 128.006 133.447 128.101 133.343C128.196 133.237 128.315 133.154 128.457 133.094C128.602 133.032 128.769 133.001 128.959 133.001C129.149 133.001 129.315 133.032 129.457 133.094C129.599 133.154 129.717 133.237 129.812 133.343C129.907 133.447 129.978 133.569 130.026 133.708C130.076 133.847 130.101 133.995 130.101 134.152C130.101 134.309 130.076 134.457 130.026 134.597C129.978 134.736 129.907 134.859 129.812 134.966C129.717 135.069 129.599 135.152 129.457 135.214C129.315 135.274 129.149 135.303 128.959 135.303ZM128.532 134.152C128.532 134.342 128.572 134.487 128.652 134.588C128.732 134.689 128.835 134.739 128.959 134.739C129.083 134.739 129.184 134.689 129.261 134.588C129.341 134.487 129.381 134.342 129.381 134.152C129.381 133.963 129.341 133.817 129.261 133.717C129.184 133.616 129.083 133.566 128.959 133.566C128.835 133.566 128.732 133.616 128.652 133.717C128.572 133.817 128.532 133.963 128.532 134.152ZM131.17 135.303C131.028 135.303 130.908 135.284 130.81 135.246C130.715 135.204 130.638 135.145 130.579 135.068C130.523 134.991 130.481 134.896 130.454 134.783C130.431 134.671 130.419 134.54 130.419 134.392V133.054H131.126V134.25C131.126 134.392 131.148 134.503 131.192 134.583C131.237 134.663 131.321 134.703 131.446 134.703C131.564 134.703 131.648 134.665 131.699 134.588C131.752 134.511 131.779 134.398 131.779 134.25V133.054H132.486V135.25H131.823V134.886H131.797C131.752 135.007 131.674 135.108 131.561 135.188C131.448 135.265 131.318 135.303 131.17 135.303ZM132.959 133.054H133.621V133.419H133.647C133.692 133.297 133.772 133.198 133.887 133.121C134.006 133.041 134.141 133.001 134.292 133.001C134.437 133.001 134.559 133.022 134.656 133.063C134.757 133.102 134.837 133.16 134.896 133.237C134.956 133.314 134.997 133.41 135.021 133.526C135.047 133.638 135.061 133.767 135.061 133.912V135.25H134.354V134.054C134.354 133.915 134.33 133.806 134.283 133.726C134.236 133.643 134.147 133.601 134.016 133.601C133.892 133.601 133.801 133.64 133.745 133.717C133.692 133.794 133.665 133.906 133.665 134.054V135.25H132.959V133.054ZM136.324 135.303C136.191 135.303 136.068 135.277 135.955 135.223C135.842 135.167 135.743 135.09 135.657 134.992C135.574 134.894 135.509 134.776 135.462 134.637C135.414 134.497 135.391 134.343 135.391 134.174C135.391 134 135.414 133.841 135.462 133.699C135.509 133.554 135.574 133.429 135.657 133.326C135.743 133.222 135.842 133.142 135.955 133.086C136.068 133.029 136.191 133.001 136.324 133.001C136.487 133.001 136.622 133.04 136.728 133.117C136.838 133.191 136.917 133.29 136.964 133.414H136.991V132.028H137.697V135.25H137.026V134.859H137C136.946 135.001 136.86 135.111 136.742 135.188C136.626 135.265 136.487 135.303 136.324 135.303ZM136.551 134.694C136.699 134.694 136.808 134.643 136.88 134.539C136.954 134.432 136.991 134.303 136.991 134.152C136.991 134.001 136.954 133.874 136.88 133.77C136.808 133.663 136.699 133.61 136.551 133.61C136.408 133.61 136.3 133.663 136.226 133.77C136.152 133.874 136.115 134.001 136.115 134.152C136.115 134.303 136.152 134.432 136.226 134.539C136.3 134.643 136.408 134.694 136.551 134.694ZM138.758 135.303C138.66 135.303 138.565 135.289 138.474 135.259C138.385 135.229 138.306 135.186 138.238 135.13C138.173 135.071 138.119 135 138.078 134.917C138.039 134.834 138.02 134.739 138.02 134.632C138.02 134.431 138.091 134.272 138.234 134.157C138.379 134.041 138.605 133.974 138.914 133.957L139.38 133.93V133.894C139.38 133.832 139.367 133.782 139.34 133.743C139.316 133.705 139.284 133.675 139.242 133.654C139.204 133.631 139.158 133.614 139.105 133.606C139.054 133.597 139.002 133.592 138.949 133.592C138.866 133.592 138.782 133.607 138.696 133.637C138.61 133.666 138.546 133.708 138.505 133.761L138.118 133.361C138.198 133.26 138.315 133.176 138.469 133.108C138.623 133.037 138.825 133.001 139.074 133.001C139.391 133.001 139.638 133.074 139.816 133.219C139.996 133.364 140.087 133.573 140.087 133.846V135.25H139.425V134.912H139.398C139.342 135.028 139.26 135.123 139.154 135.197C139.05 135.268 138.918 135.303 138.758 135.303ZM138.998 134.823C139.111 134.823 139.202 134.794 139.274 134.734C139.345 134.672 139.38 134.579 139.38 134.454V134.339L139.011 134.366C138.916 134.371 138.845 134.395 138.798 134.437C138.754 134.478 138.731 134.533 138.731 134.601C138.731 134.678 138.756 134.734 138.807 134.77C138.86 134.806 138.924 134.823 138.998 134.823ZM141.492 135.299C141.214 135.299 141.012 135.229 140.888 135.09C140.766 134.951 140.706 134.729 140.706 134.423V133.619H140.39V133.054H140.706V132.459H141.404V133.054H142.052V133.619H141.404V134.437C141.404 134.534 141.42 134.606 141.452 134.65C141.488 134.694 141.546 134.717 141.626 134.717C141.679 134.717 141.729 134.706 141.777 134.686C141.827 134.662 141.869 134.634 141.901 134.601L142.128 135.081C141.983 135.226 141.771 135.299 141.492 135.299ZM143.185 132.423C143.185 132.524 143.151 132.614 143.082 132.694C143.014 132.771 142.915 132.81 142.785 132.81C142.651 132.81 142.552 132.771 142.487 132.694C142.422 132.614 142.389 132.524 142.389 132.423C142.389 132.323 142.422 132.234 142.487 132.157C142.552 132.077 142.651 132.037 142.785 132.037C142.915 132.037 143.014 132.077 143.082 132.157C143.151 132.234 143.185 132.323 143.185 132.423ZM142.429 133.054H143.136V135.25H142.429V133.054ZM144.623 135.303C144.433 135.303 144.266 135.274 144.121 135.214C143.979 135.152 143.86 135.069 143.765 134.966C143.67 134.859 143.598 134.736 143.547 134.597C143.5 134.457 143.476 134.309 143.476 134.152C143.476 133.995 143.5 133.847 143.547 133.708C143.598 133.569 143.67 133.447 143.765 133.343C143.86 133.237 143.979 133.154 144.121 133.094C144.266 133.032 144.433 133.001 144.623 133.001C144.813 133.001 144.979 133.032 145.121 133.094C145.263 133.154 145.382 133.237 145.476 133.343C145.571 133.447 145.642 133.569 145.69 133.708C145.74 133.847 145.765 133.995 145.765 134.152C145.765 134.309 145.74 134.457 145.69 134.597C145.642 134.736 145.571 134.859 145.476 134.966C145.382 135.069 145.263 135.152 145.121 135.214C144.979 135.274 144.813 135.303 144.623 135.303ZM144.196 134.152C144.196 134.342 144.236 134.487 144.316 134.588C144.396 134.689 144.499 134.739 144.623 134.739C144.747 134.739 144.848 134.689 144.925 134.588C145.005 134.487 145.045 134.342 145.045 134.152C145.045 133.963 145.005 133.817 144.925 133.717C144.848 133.616 144.747 133.566 144.623 133.566C144.499 133.566 144.396 133.616 144.316 133.717C144.236 133.817 144.196 133.963 144.196 134.152ZM146.11 133.054H146.772V133.419H146.798C146.843 133.297 146.923 133.198 147.038 133.121C147.157 133.041 147.292 133.001 147.443 133.001C147.588 133.001 147.71 133.022 147.807 133.063C147.908 133.102 147.988 133.16 148.047 133.237C148.107 133.314 148.148 133.41 148.172 133.526C148.198 133.638 148.212 133.767 148.212 133.912V135.25H147.505V134.054C147.505 133.915 147.481 133.806 147.434 133.726C147.387 133.643 147.298 133.601 147.167 133.601C147.043 133.601 146.953 133.64 146.896 133.717C146.843 133.794 146.816 133.906 146.816 134.054V135.25H146.11V133.054ZM149.706 134.588C149.706 134.526 149.663 134.483 149.577 134.459C149.491 134.432 149.373 134.403 149.222 134.37C149.136 134.352 149.054 134.327 148.977 134.294C148.9 134.259 148.832 134.216 148.773 134.166C148.714 134.112 148.666 134.049 148.631 133.974C148.595 133.9 148.577 133.811 148.577 133.708C148.577 133.595 148.601 133.496 148.648 133.41C148.696 133.321 148.761 133.247 148.844 133.188C148.93 133.126 149.031 133.08 149.146 133.05C149.262 133.017 149.389 133.001 149.528 133.001C149.748 133.001 149.931 133.032 150.079 133.094C150.228 133.157 150.337 133.231 150.408 133.317L150.039 133.717C149.986 133.66 149.916 133.614 149.831 133.579C149.745 133.543 149.66 133.526 149.577 133.526C149.5 133.526 149.434 133.539 149.377 133.566C149.321 133.589 149.293 133.632 149.293 133.694C149.293 133.757 149.336 133.801 149.422 133.828C149.508 133.851 149.626 133.88 149.777 133.912C149.863 133.93 149.945 133.957 150.022 133.992C150.099 134.025 150.167 134.068 150.226 134.121C150.285 134.171 150.333 134.235 150.368 134.312C150.404 134.386 150.422 134.474 150.422 134.574C150.422 134.69 150.398 134.794 150.351 134.886C150.303 134.974 150.236 135.05 150.151 135.112C150.065 135.174 149.961 135.222 149.839 135.254C149.721 135.287 149.591 135.303 149.448 135.303C149.214 135.303 149.017 135.274 148.857 135.214C148.697 135.152 148.579 135.075 148.502 134.983L148.853 134.583C148.921 134.651 149.005 134.702 149.106 134.734C149.207 134.764 149.308 134.779 149.408 134.779C149.503 134.779 149.576 134.763 149.626 134.73C149.679 134.697 149.706 134.65 149.706 134.588Z" fill="white"/>
</g>
<rect x="33.1109" y="125.555" width="173.611" height="33.3333" rx="3.05556" stroke="#242E30" stroke-width="0.555556"/>
<g clip-path="url(#clip11_9_6148)">
<rect x="0.277778" y="-0.277778" width="254.444" height="75.2778" rx="3.05556" transform="matrix(-1 0 0 1 287.833 45.5557)" fill="white" stroke="#242E30" stroke-width="0.555556"/>
<g opacity="0.08" clip-path="url(#clip12_9_6148)">
<g clip-path="url(#clip13_9_6148)">
<path d="M235.118 78.1253C235.967 78.4573 236.92 78.431 237.751 78.0672C238.582 77.7033 239.248 77.021 239.58 76.172C240.33 74.2539 240.654 69.1603 238.893 68.4718C237.132 67.7834 233.866 71.8716 233.165 73.664C232.833 74.513 232.859 75.4658 233.223 76.2968C233.587 77.1278 234.269 77.7934 235.118 78.1253Z" fill="#242E30"/>
<path d="M220.508 67.3738C220.743 67.792 221.034 68.1597 221.413 68.489C221.691 68.7063 221.98 68.8921 222.295 69.0151C222.421 69.0642 222.546 69.1134 222.672 69.1626C223.137 69.2718 223.626 69.3182 224.09 69.2456C224.553 69.173 225.022 68.9938 225.409 68.7463C227.12 67.8928 230.878 64.2145 229.95 62.5101C229.784 62.1916 229.494 62.0058 229.117 61.8583C227.356 61.1698 223.682 61.9445 222.245 62.6517C221.808 62.8432 221.409 63.1222 221.06 63.4572C220.743 63.8045 220.477 64.2078 220.292 64.6795C220.12 65.1197 220.074 65.6091 220.103 66.0917C220.132 66.5742 220.279 67.0307 220.471 67.4681L220.508 67.3738Z" fill="#242E30"/>
<path d="M248.584 78.641C248.887 78.9772 249.247 79.2628 249.675 79.4664C249.769 79.5033 249.832 79.5279 249.926 79.5647C250.272 79.7 250.643 79.7723 250.994 79.8009C251.452 79.835 251.915 79.7624 252.34 79.6023C252.766 79.4423 253.184 79.207 253.52 78.9035C253.856 78.5999 254.142 78.2403 254.345 77.8124C254.505 77.4036 254.677 76.9634 254.68 76.4931C254.714 76.0352 254.641 75.5718 254.481 75.1467C253.918 73.6213 251.593 70.5735 249.801 69.8727C249.455 69.7375 249.116 69.6774 248.822 69.78C247.015 70.4148 247.25 75.6545 247.929 77.4423C248.089 77.8674 248.324 78.2857 248.627 78.6219L248.584 78.641Z" fill="#242E30"/>
<path d="M230.922 97.1114L224.475 94.5911L219.447 107.452L225.893 109.972L230.922 97.1114Z" fill="#242E30"/>
<path d="M209.857 103.702L211.709 89.5996L205.169 87.0424L203.348 101.157L209.857 103.702Z" fill="#242E30"/>
<path d="M250.229 104.66L243.72 102.115L235.547 113.747L242.024 116.279L250.229 104.66Z" fill="#242E30"/>
<path d="M279.723 100.894L277.428 99.9965L275.624 82.5431C274.196 75.5321 269.699 69.6047 263.322 66.3503L262.945 66.2027C260.156 64.7135 258.685 61.891 257.929 59.7464C256.268 55.0006 252.233 51.3204 245.944 48.8616L245.126 48.5419C238.837 46.0831 233.388 46.019 228.937 48.4111C226.958 49.4861 223.931 50.5505 220.884 49.7216L220.507 49.574C213.589 47.7032 206.276 48.9765 200.459 53.1913L187.371 64.7857L184.95 63.8391L182.491 70.128L189.534 72.8819L183.884 108.845L250.263 134.798L270.504 104.54L277.265 107.183L279.723 100.894ZM204.558 58.5638C208.673 55.6414 213.839 54.7609 218.708 56.1211L219.086 56.2686C223.22 57.3775 227.71 56.7406 232.118 54.3676C234.734 52.9616 238.297 53.1219 242.667 54.8308L243.485 55.1505C247.856 56.8594 250.582 59.1579 251.551 61.9655C253.18 66.6989 256.079 70.225 259.862 72.1391L260.24 72.2867C264.791 74.6462 267.965 78.8598 268.923 83.5484L270.321 97.218L194.446 67.5519L204.589 58.5761L204.558 58.5638ZM247.659 126.53L191.374 104.523L195.949 75.3899L264.058 102.019L247.659 126.53Z" fill="#242E30"/>
</g>
</g>
<path d="M42.7191 61.4245C39.8591 61.4245 38.5024 59.2245 38.5024 57.3056C38.5024 55.3867 39.8591 53.1867 42.7191 53.1867C44.0269 53.1867 44.968 53.6878 45.6524 54.3845L44.4302 55.6067C44.0147 55.1789 43.3791 54.9345 42.7069 54.9345C41.4724 54.9345 40.4824 55.9612 40.4824 57.3178C40.4824 58.6501 41.4724 59.6767 42.7069 59.6767C43.3669 59.6767 44.0024 59.4323 44.418 59.0167L45.6402 60.2389C44.968 60.9356 44.0147 61.4245 42.7191 61.4245ZM48.8734 61.4245C46.6734 61.4245 45.6345 59.7378 45.6345 58.2589C45.6345 56.7801 46.6734 55.0934 48.8734 55.0934C51.0734 55.0934 52.1123 56.7801 52.1123 58.2589C52.1123 59.7378 51.0734 61.4245 48.8734 61.4245ZM47.48 58.2589C47.48 59.1145 48.1156 59.7134 48.8734 59.7134C49.6311 59.7134 50.2667 59.1145 50.2667 58.2589C50.2667 57.4034 49.6311 56.8045 48.8734 56.8045C48.1156 56.8045 47.48 57.4034 47.48 58.2589ZM52.7649 61.2778V55.2401H54.4638V56.0101H54.4882C54.7816 55.5334 55.356 55.0934 56.1871 55.0934C56.5049 55.0934 56.8105 55.1301 57.0793 55.2156L56.6027 57.0123C56.4071 56.9023 56.1505 56.8412 55.8938 56.8412C55.1238 56.8412 54.5738 57.3667 54.5738 58.2589V61.2778H52.7649ZM60.1092 61.4245C57.9214 61.4245 56.9192 59.7378 56.9192 58.2589C56.9192 56.7801 57.8236 55.0934 60.0114 55.0934C62.2114 55.0934 63.067 56.7801 63.067 58.2589C63.067 58.4423 63.0303 58.7356 62.9936 58.8823H58.7525C58.9359 59.5423 59.5592 59.8356 60.1703 59.8356C60.7081 59.8356 61.2336 59.6523 61.4903 59.3589L62.5903 60.4223C62.1381 60.9845 61.2214 61.4245 60.1092 61.4245ZM60.0114 56.6089C59.3881 56.6089 58.8748 56.9023 58.7281 57.6234H61.2825C61.1359 56.9023 60.6225 56.6089 60.0114 56.6089ZM66.9215 61.2778V56.8045H65.956V55.2401H66.9215V54.9223C66.9215 53.4923 67.6915 52.5145 69.3171 52.5145C69.696 52.5145 70.0504 52.5878 70.3071 52.6978L69.7693 54.2012C69.6715 54.1401 69.5004 54.1034 69.3538 54.1034C68.9749 54.1034 68.7304 54.3234 68.7304 54.8856V55.2401H70.356V56.8045H68.7304V61.2778H66.9215ZM73.4806 61.4245C71.2806 61.4245 70.2417 59.7378 70.2417 58.2589C70.2417 56.7801 71.2806 55.0934 73.4806 55.0934C75.6806 55.0934 76.7195 56.7801 76.7195 58.2589C76.7195 59.7378 75.6806 61.4245 73.4806 61.4245ZM72.0872 58.2589C72.0872 59.1145 72.7228 59.7134 73.4806 59.7134C74.2383 59.7134 74.8739 59.1145 74.8739 58.2589C74.8739 57.4034 74.2383 56.8045 73.4806 56.8045C72.7228 56.8045 72.0872 57.4034 72.0872 58.2589ZM79.7188 61.4245C77.9832 61.4245 77.2254 60.2512 77.2254 58.6378V55.2401H79.0343V58.3812C79.0343 59.1389 79.3154 59.7623 80.1343 59.7623C80.941 59.7623 81.3199 59.1756 81.3199 58.3812V55.2401H83.1288V61.2778H81.4299V60.6912H81.4054C81.0877 61.1312 80.4888 61.4245 79.7188 61.4245ZM84.1245 61.2778V55.2401H85.8234V55.8267H85.8478C86.1656 55.3867 86.7889 55.0934 87.5834 55.0934C89.3556 55.0934 90.1256 56.2667 90.1256 57.8801V61.2778H88.3167V58.1612C88.3167 57.3912 88.0112 56.7556 87.1434 56.7556C86.3123 56.7556 85.9334 57.3545 85.9334 58.1612V61.2778H84.1245ZM93.6124 61.4245C91.889 61.4245 90.6301 60.1167 90.6301 58.3201C90.6301 56.4623 91.889 55.0934 93.6124 55.0934C94.3701 55.0934 95.0057 55.3134 95.3601 55.7412H95.3846V52.6612H97.1935V61.2778H95.4824V60.6912H95.4579C95.1035 61.1556 94.4312 61.4245 93.6124 61.4245ZM93.9301 59.7378C94.8346 59.7378 95.3846 59.0778 95.3846 58.2589C95.3846 57.4401 94.8346 56.7801 93.9301 56.7801C93.0257 56.7801 92.4757 57.4401 92.4757 58.2589C92.4757 59.0778 93.0257 59.7378 93.9301 59.7378ZM99.9872 61.4245C98.6916 61.4245 97.6894 60.7523 97.6894 59.5789C97.6894 58.4789 98.5083 57.8556 100.207 57.7701L101.711 57.6967V57.6723C101.711 56.9634 101.185 56.6823 100.501 56.6823C99.9505 56.6823 99.425 56.8656 99.1683 57.1589L98.0683 56.0956C98.5327 55.5334 99.4372 55.0934 100.684 55.0934C102.481 55.0934 103.519 56.0834 103.519 57.5745V61.2778H101.821V60.6912H101.796C101.429 61.1678 100.782 61.4245 99.9872 61.4245ZM100.403 60.1534C101.148 60.1534 101.711 59.7378 101.711 59.0656V58.8945L100.439 58.9678C99.8283 59.0045 99.5105 59.1878 99.5105 59.5545C99.5105 59.9701 99.9139 60.1534 100.403 60.1534ZM107.022 61.4123C105.531 61.4123 104.761 60.5812 104.761 58.9067V56.8045H103.795V55.2401H104.761V53.6023H106.57V55.2401H108.501V56.8045H106.57V58.9067C106.57 59.5178 106.887 59.7989 107.376 59.7989C107.694 59.7989 107.987 59.6645 108.207 59.4689L108.88 60.8134C108.452 61.2289 107.792 61.4123 107.022 61.4123ZM111.18 53.6267C111.18 54.1767 110.777 54.6412 110.105 54.6412C109.433 54.6412 109.029 54.1767 109.029 53.6267C109.029 53.0767 109.433 52.6001 110.105 52.6001C110.777 52.6001 111.18 53.0767 111.18 53.6267ZM109.2 61.2778V55.2401H111.009V61.2778H109.2ZM114.899 61.4245C112.699 61.4245 111.66 59.7378 111.66 58.2589C111.66 56.7801 112.699 55.0934 114.899 55.0934C117.099 55.0934 118.138 56.7801 118.138 58.2589C118.138 59.7378 117.099 61.4245 114.899 61.4245ZM113.505 58.2589C113.505 59.1145 114.141 59.7134 114.899 59.7134C115.657 59.7134 116.292 59.1145 116.292 58.2589C116.292 57.4034 115.657 56.8045 114.899 56.8045C114.141 56.8045 113.505 57.4034 113.505 58.2589ZM118.79 61.2778V55.2401H120.489V55.8267H120.514C120.831 55.3867 121.455 55.0934 122.249 55.0934C124.021 55.0934 124.791 56.2667 124.791 57.8801V61.2778H122.983V58.1612C122.983 57.3912 122.677 56.7556 121.809 56.7556C120.978 56.7556 120.599 57.3545 120.599 58.1612V61.2778H118.79ZM128.669 59.4567C128.669 59.1145 128.131 59.0289 127.239 58.8701C126.261 58.6989 125.381 58.1612 125.381 57.0367C125.381 55.7901 126.481 55.0934 128.009 55.0934C129.195 55.0934 130.05 55.4967 130.478 55.9612L129.439 57.1223C129.158 56.7923 128.596 56.5845 128.083 56.5845C127.618 56.5845 127.227 56.6945 127.227 57.0245C127.227 57.3667 127.765 57.4401 128.657 57.5989C129.635 57.7701 130.515 58.2956 130.515 59.4201C130.515 60.6789 129.366 61.4245 127.801 61.4245C126.506 61.4245 125.589 61.0456 125.149 60.5445L126.188 59.3712C126.591 59.7378 127.141 59.9089 127.777 59.9089C128.29 59.9089 128.669 59.7867 128.669 59.4567Z" fill="#242E30"/>
<line x1="38.1113" y1="67.3333" x2="153.389" y2="67.3333" stroke="#242E30" stroke-width="0.555556"/>
<path d="M40.2058 76.0112C38.9058 76.0112 38.2891 75.0112 38.2891 74.139C38.2891 73.2668 38.9058 72.2668 40.2058 72.2668C40.8002 72.2668 41.228 72.4946 41.5391 72.8112L40.9836 73.3668C40.7947 73.1724 40.5058 73.0612 40.2002 73.0612C39.6391 73.0612 39.1891 73.5279 39.1891 74.1446C39.1891 74.7501 39.6391 75.2168 40.2002 75.2168C40.5002 75.2168 40.7891 75.1057 40.978 74.9168L41.5336 75.4724C41.228 75.789 40.7947 76.0112 40.2058 76.0112ZM43.1294 76.0112C42.1294 76.0112 41.6572 75.2446 41.6572 74.5724C41.6572 73.9001 42.1294 73.1335 43.1294 73.1335C44.1294 73.1335 44.6016 73.9001 44.6016 74.5724C44.6016 75.2446 44.1294 76.0112 43.1294 76.0112ZM42.4961 74.5724C42.4961 74.9612 42.785 75.2335 43.1294 75.2335C43.4739 75.2335 43.7628 74.9612 43.7628 74.5724C43.7628 74.1835 43.4739 73.9112 43.1294 73.9112C42.785 73.9112 42.4961 74.1835 42.4961 74.5724ZM45.0246 75.9446V73.2001H45.7968V73.5501H45.8079C45.9412 73.3335 46.2023 73.1335 46.5801 73.1335C46.7246 73.1335 46.8635 73.1501 46.9857 73.189L46.769 74.0057C46.6801 73.9557 46.5635 73.9279 46.4468 73.9279C46.0968 73.9279 45.8468 74.1668 45.8468 74.5724V75.9446H45.0246ZM48.4891 76.0112C47.4947 76.0112 47.0391 75.2446 47.0391 74.5724C47.0391 73.9001 47.4503 73.1335 48.4447 73.1335C49.4447 73.1335 49.8336 73.9001 49.8336 74.5724C49.8336 74.6557 49.8169 74.789 49.8003 74.8557H47.8725C47.9558 75.1557 48.2391 75.289 48.5169 75.289C48.7614 75.289 49.0003 75.2057 49.1169 75.0724L49.6169 75.5557C49.4114 75.8112 48.9947 76.0112 48.4891 76.0112ZM48.4447 73.8224C48.1614 73.8224 47.928 73.9557 47.8614 74.2835H49.0225C48.9558 73.9557 48.7225 73.8224 48.4447 73.8224ZM51.8382 75.9446V73.9112H51.3993V73.2001H51.8382V73.0557C51.8382 72.4057 52.1882 71.9612 52.9271 71.9612C53.0993 71.9612 53.2604 71.9946 53.3771 72.0446L53.1326 72.7279C53.0882 72.7001 53.0104 72.6835 52.9438 72.6835C52.7715 72.6835 52.6604 72.7835 52.6604 73.039V73.2001H53.3993V73.9112H52.6604V75.9446H51.8382ZM54.9458 76.0112C53.9458 76.0112 53.4736 75.2446 53.4736 74.5724C53.4736 73.9001 53.9458 73.1335 54.9458 73.1335C55.9458 73.1335 56.4181 73.9001 56.4181 74.5724C56.4181 75.2446 55.9458 76.0112 54.9458 76.0112ZM54.3125 74.5724C54.3125 74.9612 54.6014 75.2335 54.9458 75.2335C55.2903 75.2335 55.5792 74.9612 55.5792 74.5724C55.5792 74.1835 55.2903 73.9112 54.9458 73.9112C54.6014 73.9112 54.3125 74.1835 54.3125 74.5724ZM57.9076 76.0112C57.1187 76.0112 56.7743 75.4779 56.7743 74.7446V73.2001H57.5965V74.6279C57.5965 74.9724 57.7243 75.2557 58.0965 75.2557C58.4632 75.2557 58.6354 74.989 58.6354 74.6279V73.2001H59.4576V75.9446H58.6854V75.6779H58.6743C58.5299 75.8779 58.2576 76.0112 57.9076 76.0112ZM60.0365 75.9446V73.2001H60.8087V73.4668H60.8198C60.9643 73.2668 61.2476 73.1335 61.6087 73.1335C62.4143 73.1335 62.7643 73.6668 62.7643 74.4001V75.9446H61.9421V74.5279C61.9421 74.1779 61.8032 73.889 61.4087 73.889C61.0309 73.889 60.8587 74.1612 60.8587 74.5279V75.9446H60.0365ZM64.4754 76.0112C63.6921 76.0112 63.1199 75.4168 63.1199 74.6001C63.1199 73.7557 63.6921 73.1335 64.4754 73.1335C64.8199 73.1335 65.1088 73.2335 65.2699 73.4279H65.281V72.0279H66.1032V75.9446H65.3254V75.6779H65.3143C65.1532 75.889 64.8477 76.0112 64.4754 76.0112ZM64.6199 75.2446C65.031 75.2446 65.281 74.9446 65.281 74.5724C65.281 74.2001 65.031 73.9001 64.6199 73.9001C64.2088 73.9001 63.9588 74.2001 63.9588 74.5724C63.9588 74.9446 64.2088 75.2446 64.6199 75.2446ZM67.4993 76.0112C66.9105 76.0112 66.4549 75.7057 66.4549 75.1724C66.4549 74.6724 66.8271 74.389 67.5993 74.3501L68.2827 74.3168V74.3057C68.2827 73.9835 68.0438 73.8557 67.7327 73.8557C67.4827 73.8557 67.2438 73.939 67.1271 74.0724L66.6271 73.589C66.8382 73.3335 67.2493 73.1335 67.816 73.1335C68.6327 73.1335 69.1049 73.5835 69.1049 74.2612V75.9446H68.3327V75.6779H68.3216C68.1549 75.8946 67.8605 76.0112 67.4993 76.0112ZM67.6882 75.4335C68.0271 75.4335 68.2827 75.2446 68.2827 74.939V74.8612L67.7049 74.8946C67.4271 74.9112 67.2827 74.9946 67.2827 75.1612C67.2827 75.3501 67.466 75.4335 67.6882 75.4335ZM70.8232 76.0057C70.1454 76.0057 69.7954 75.6279 69.7954 74.8668V73.9112H69.3566V73.2001H69.7954V72.4557H70.6177V73.2001H71.4954V73.9112H70.6177V74.8668C70.6177 75.1446 70.7621 75.2724 70.9843 75.2724C71.1288 75.2724 71.2621 75.2112 71.3621 75.1224L71.6677 75.7335C71.4732 75.9224 71.1732 76.0057 70.8232 76.0057ZM72.8397 72.4668C72.8397 72.7168 72.6564 72.9279 72.3508 72.9279C72.0453 72.9279 71.8619 72.7168 71.8619 72.4668C71.8619 72.2168 72.0453 72.0001 72.3508 72.0001C72.6564 72.0001 72.8397 72.2168 72.8397 72.4668ZM71.9397 75.9446V73.2001H72.7619V75.9446H71.9397ZM74.6561 76.0112C73.6561 76.0112 73.1839 75.2446 73.1839 74.5724C73.1839 73.9001 73.6561 73.1335 74.6561 73.1335C75.6561 73.1335 76.1283 73.9001 76.1283 74.5724C76.1283 75.2446 75.6561 76.0112 74.6561 76.0112ZM74.0228 74.5724C74.0228 74.9612 74.3117 75.2335 74.6561 75.2335C75.0006 75.2335 75.2895 74.9612 75.2895 74.5724C75.2895 74.1835 75.0006 73.9112 74.6561 73.9112C74.3117 73.9112 74.0228 74.1835 74.0228 74.5724ZM76.5513 75.9446V73.2001H77.3235V73.4668H77.3346C77.479 73.2668 77.7624 73.1335 78.1235 73.1335C78.929 73.1335 79.279 73.6668 79.279 74.4001V75.9446H78.4568V74.5279C78.4568 74.1779 78.3179 73.889 77.9235 73.889C77.5457 73.889 77.3735 74.1612 77.3735 74.5279V75.9446H76.5513ZM81.168 75.1168C81.168 74.9612 80.9235 74.9224 80.518 74.8501C80.0735 74.7724 79.6735 74.5279 79.6735 74.0168C79.6735 73.4501 80.1735 73.1335 80.868 73.1335C81.4069 73.1335 81.7957 73.3168 81.9902 73.5279L81.518 74.0557C81.3902 73.9057 81.1346 73.8112 80.9013 73.8112C80.6902 73.8112 80.5124 73.8612 80.5124 74.0112C80.5124 74.1668 80.7569 74.2001 81.1624 74.2724C81.6069 74.3501 82.0069 74.589 82.0069 75.1001C82.0069 75.6724 81.4846 76.0112 80.7735 76.0112C80.1846 76.0112 79.768 75.839 79.568 75.6112L80.0402 75.0779C80.2235 75.2446 80.4735 75.3224 80.7624 75.3224C80.9957 75.3224 81.168 75.2668 81.168 75.1168ZM84.0376 75.9446V73.9112H83.5987V73.2001H84.0376V73.0557C84.0376 72.4057 84.3876 71.9612 85.1265 71.9612C85.2987 71.9612 85.4598 71.9946 85.5765 72.0446L85.3321 72.7279C85.2876 72.7001 85.2098 72.6835 85.1432 72.6835C84.971 72.6835 84.8598 72.7835 84.8598 73.039V73.2001H85.5987V73.9112H84.8598V75.9446H84.0376ZM87.1453 76.0112C86.1453 76.0112 85.673 75.2446 85.673 74.5724C85.673 73.9001 86.1453 73.1335 87.1453 73.1335C88.1453 73.1335 88.6175 73.9001 88.6175 74.5724C88.6175 75.2446 88.1453 76.0112 87.1453 76.0112ZM86.5119 74.5724C86.5119 74.9612 86.8008 75.2335 87.1453 75.2335C87.4897 75.2335 87.7786 74.9612 87.7786 74.5724C87.7786 74.1835 87.4897 73.9112 87.1453 73.9112C86.8008 73.9112 86.5119 74.1835 86.5119 74.5724ZM89.0404 75.9446V73.2001H89.8126V73.5501H89.8237C89.9571 73.3335 90.2182 73.1335 90.596 73.1335C90.7404 73.1335 90.8793 73.1501 91.0015 73.189L90.7849 74.0057C90.696 73.9557 90.5793 73.9279 90.4626 73.9279C90.1126 73.9279 89.8626 74.1668 89.8626 74.5724V75.9446H89.0404ZM93.8701 76.0057C93.1923 76.0057 92.8423 75.6279 92.8423 74.8668V73.9112H92.4034V73.2001H92.8423V72.4557H93.6645V73.2001H94.5423V73.9112H93.6645V74.8668C93.6645 75.1446 93.809 75.2724 94.0312 75.2724C94.1756 75.2724 94.309 75.2112 94.409 75.1224L94.7145 75.7335C94.5201 75.9224 94.2201 76.0057 93.8701 76.0057ZM94.9866 75.9446V72.0279H95.8088V73.4112H95.8199C95.981 73.239 96.2199 73.1335 96.5588 73.1335C97.3644 73.1335 97.7144 73.6668 97.7144 74.4001V75.9446H96.8921V74.5279C96.8921 74.1779 96.7533 73.889 96.3588 73.889C95.981 73.889 95.8088 74.1612 95.8088 74.5279V75.9446H94.9866ZM99.52 76.0112C98.5255 76.0112 98.07 75.2446 98.07 74.5724C98.07 73.9001 98.4811 73.1335 99.4755 73.1335C100.476 73.1335 100.864 73.9001 100.864 74.5724C100.864 74.6557 100.848 74.789 100.831 74.8557H98.9033C98.9866 75.1557 99.27 75.289 99.5477 75.289C99.7922 75.289 100.031 75.2057 100.148 75.0724L100.648 75.5557C100.442 75.8112 100.026 76.0112 99.52 76.0112ZM99.4755 73.8224C99.1922 73.8224 98.9589 73.9557 98.8922 74.2835H100.053C99.9866 73.9557 99.7533 73.8224 99.4755 73.8224ZM102.708 75.9446V72.3335H104.263C105.019 72.3335 105.563 72.8668 105.563 73.5612C105.563 74.2557 105.019 74.789 104.263 74.789H103.586V75.9446H102.708ZM103.586 74.0446H104.18C104.458 74.0446 104.669 73.8501 104.669 73.5612C104.669 73.2724 104.458 73.0779 104.18 73.0779H103.586V74.0446ZM106.028 75.9446V72.3335H106.906V75.9446H106.028ZM107.574 75.9446V72.3335H109.991V73.0779H108.452V73.7335H109.941V74.4779H108.452V75.2001H110.036V75.9446H107.574ZM113.2 76.0112C112.417 76.0112 111.845 75.4168 111.845 74.6001C111.845 73.7557 112.417 73.1335 113.2 73.1335C113.545 73.1335 113.834 73.2335 113.995 73.4279H114.006V72.0279H114.828V75.9446H114.05V75.6779H114.039C113.878 75.889 113.573 76.0112 113.2 76.0112ZM113.345 75.2446C113.756 75.2446 114.006 74.9446 114.006 74.5724C114.006 74.2001 113.756 73.9001 113.345 73.9001C112.934 73.9001 112.684 74.2001 112.684 74.5724C112.684 74.9446 112.934 75.2446 113.345 75.2446ZM116.697 76.0112C115.702 76.0112 115.247 75.2446 115.247 74.5724C115.247 73.9001 115.658 73.1335 116.652 73.1335C117.652 73.1335 118.041 73.9001 118.041 74.5724C118.041 74.6557 118.024 74.789 118.008 74.8557H116.08C116.163 75.1557 116.447 75.289 116.724 75.289C116.969 75.289 117.208 75.2057 117.324 75.0724L117.824 75.5557C117.619 75.8112 117.202 76.0112 116.697 76.0112ZM116.652 73.8224C116.369 73.8224 116.136 73.9557 116.069 74.2835H117.23C117.163 73.9557 116.93 73.8224 116.652 73.8224ZM119.818 75.1168C119.818 74.9612 119.574 74.9224 119.168 74.8501C118.724 74.7724 118.324 74.5279 118.324 74.0168C118.324 73.4501 118.824 73.1335 119.518 73.1335C120.057 73.1335 120.446 73.3168 120.64 73.5279L120.168 74.0557C120.04 73.9057 119.785 73.8112 119.551 73.8112C119.34 73.8112 119.163 73.8612 119.163 74.0112C119.163 74.1668 119.407 74.2001 119.813 74.2724C120.257 74.3501 120.657 74.589 120.657 75.1001C120.657 75.6724 120.135 76.0112 119.424 76.0112C118.835 76.0112 118.418 75.839 118.218 75.6112L118.69 75.0779C118.874 75.2446 119.124 75.3224 119.413 75.3224C119.646 75.3224 119.818 75.2668 119.818 75.1168ZM121.983 72.4668C121.983 72.7168 121.799 72.9279 121.494 72.9279C121.188 72.9279 121.005 72.7168 121.005 72.4668C121.005 72.2168 121.188 72.0001 121.494 72.0001C121.799 72.0001 121.983 72.2168 121.983 72.4668ZM121.083 75.9446V73.2001H121.905V75.9446H121.083ZM123.688 77.039C123.182 77.039 122.76 76.8501 122.566 76.6112L123.082 76.0835C123.199 76.2112 123.432 76.3224 123.688 76.3224C124.038 76.3224 124.349 76.2057 124.349 75.7724V75.5001H124.338C124.238 75.6335 123.982 75.7946 123.593 75.7946C122.766 75.7946 122.304 75.1779 122.304 74.489C122.304 73.7168 122.838 73.1335 123.593 73.1335C123.977 73.1335 124.238 73.2668 124.388 73.4557H124.399V73.2001H125.177V75.789C125.177 76.5279 124.643 77.039 123.688 77.039ZM123.749 75.0779C124.138 75.0779 124.354 74.7779 124.354 74.4612C124.354 74.1446 124.138 73.8446 123.749 73.8446C123.36 73.8446 123.143 74.1446 123.143 74.4612C123.143 74.7779 123.36 75.0779 123.749 75.0779ZM125.754 75.9446V73.2001H126.526V73.4668H126.537C126.682 73.2668 126.965 73.1335 127.326 73.1335C128.132 73.1335 128.482 73.6668 128.482 74.4001V75.9446H127.659V74.5279C127.659 74.1779 127.52 73.889 127.126 73.889C126.748 73.889 126.576 74.1612 126.576 74.5279V75.9446H125.754ZM131.77 75.1168C131.77 74.9612 131.526 74.9224 131.12 74.8501C130.676 74.7724 130.276 74.5279 130.276 74.0168C130.276 73.4501 130.776 73.1335 131.47 73.1335C132.009 73.1335 132.398 73.3168 132.592 73.5279L132.12 74.0557C131.992 73.9057 131.737 73.8112 131.504 73.8112C131.292 73.8112 131.115 73.8612 131.115 74.0112C131.115 74.1668 131.359 74.2001 131.765 74.2724C132.209 74.3501 132.609 74.589 132.609 75.1001C132.609 75.6724 132.087 76.0112 131.376 76.0112C130.787 76.0112 130.37 75.839 130.17 75.6112L130.642 75.0779C130.826 75.2446 131.076 75.3224 131.365 75.3224C131.598 75.3224 131.77 75.2668 131.77 75.1168ZM133.363 77.0224C133.252 77.0224 133.124 77.0112 133.03 76.989V76.2612C133.096 76.2779 133.196 76.289 133.285 76.289C133.58 76.289 133.685 76.1835 133.785 75.9446L132.707 73.2001H133.607L134.23 74.9446H134.241L134.863 73.2001H135.741L134.657 75.9446C134.38 76.639 134.113 77.0224 133.363 77.0224ZM137.364 75.1168C137.364 74.9612 137.119 74.9224 136.714 74.8501C136.269 74.7724 135.869 74.5279 135.869 74.0168C135.869 73.4501 136.369 73.1335 137.064 73.1335C137.603 73.1335 137.991 73.3168 138.186 73.5279L137.714 74.0557C137.586 73.9057 137.33 73.8112 137.097 73.8112C136.886 73.8112 136.708 73.8612 136.708 74.0112C136.708 74.1668 136.953 74.2001 137.358 74.2724C137.803 74.3501 138.203 74.589 138.203 75.1001C138.203 75.6724 137.68 76.0112 136.969 76.0112C136.38 76.0112 135.964 75.839 135.764 75.6112L136.236 75.0779C136.419 75.2446 136.669 75.3224 136.958 75.3224C137.191 75.3224 137.364 75.2668 137.364 75.1168ZM139.834 76.0057C139.156 76.0057 138.806 75.6279 138.806 74.8668V73.9112H138.367V73.2001H138.806V72.4557H139.628V73.2001H140.506V73.9112H139.628V74.8668C139.628 75.1446 139.773 75.2724 139.995 75.2724C140.139 75.2724 140.273 75.2112 140.373 75.1224L140.678 75.7335C140.484 75.9224 140.184 76.0057 139.834 76.0057ZM142.245 76.0112C141.25 76.0112 140.795 75.2446 140.795 74.5724C140.795 73.9001 141.206 73.1335 142.2 73.1335C143.2 73.1335 143.589 73.9001 143.589 74.5724C143.589 74.6557 143.572 74.789 143.556 74.8557H141.628C141.711 75.1557 141.995 75.289 142.272 75.289C142.517 75.289 142.756 75.2057 142.872 75.0724L143.372 75.5557C143.167 75.8112 142.75 76.0112 142.245 76.0112ZM142.2 73.8224C141.917 73.8224 141.683 73.9557 141.617 74.2835H142.778C142.711 73.9557 142.478 73.8224 142.2 73.8224ZM143.988 75.9446V73.2001H144.761V73.4668H144.772C144.916 73.2668 145.172 73.1335 145.561 73.1335C145.972 73.1335 146.266 73.2779 146.461 73.5168C146.627 73.3335 146.949 73.1335 147.455 73.1335C148.294 73.1335 148.622 73.6668 148.622 74.4001V75.9446H147.799V74.5279C147.799 74.1779 147.661 73.889 147.266 73.889C146.888 73.889 146.716 74.1612 146.716 74.5279V75.9446H145.894V74.5279C145.894 74.1779 145.755 73.889 145.361 73.889C144.983 73.889 144.811 74.1612 144.811 74.5279V75.9446H143.988ZM149.615 76.0001C149.287 76.0001 149.109 75.739 149.109 75.5001C149.109 75.2612 149.287 75.0001 149.615 75.0001C149.943 75.0001 150.12 75.2612 150.12 75.5001C150.12 75.739 149.943 76.0001 149.615 76.0001Z" fill="#3C4C4F"/>
</g>
<rect x="57.2779" y="21.1111" width="206.111" height="19.1667" rx="3.05556" fill="white"/>
<rect x="57.2779" y="21.1111" width="206.111" height="19.1667" rx="3.05556" stroke="#242E30" stroke-width="0.555556"/>
<g clip-path="url(#clip14_9_6148)">
<g clip-path="url(#clip15_9_6148)">
<path d="M68.7606 29.783C68.8427 29.783 68.9217 29.7496 68.9794 29.6919C69.0371 29.6341 69.0705 29.5551 69.0705 29.4731C69.0705 29.2878 68.9308 28.8503 68.7606 28.8503C68.5905 28.8503 68.4507 29.2999 68.4507 29.4731C68.4507 29.5551 68.4842 29.6341 68.5419 29.6919C68.5996 29.7496 68.6786 29.783 68.7606 29.783Z" fill="#242E30"/>
<path d="M67.1838 29.3607C67.2172 29.388 67.2537 29.4093 67.2962 29.4245C67.3266 29.4336 67.357 29.4397 67.3874 29.4397C67.3995 29.4397 67.4117 29.4397 67.4238 29.4397C67.4664 29.4336 67.5089 29.4215 67.5454 29.4002C67.5818 29.3789 67.6152 29.3485 67.6395 29.3151C67.755 29.1875 67.9494 28.7561 67.8158 28.6437C67.7914 28.6224 67.7611 28.6163 67.7246 28.6163C67.5545 28.6163 67.2719 28.8017 67.1747 28.908C67.1443 28.9384 67.12 28.9748 67.1018 29.0143C67.0866 29.0538 67.0775 29.0964 67.0775 29.1419C67.0775 29.1845 67.0896 29.227 67.1079 29.2665C67.1261 29.306 67.1534 29.3394 67.1838 29.3698V29.3607Z" fill="#242E30"/>
<path d="M69.906 29.385C69.9425 29.4032 69.982 29.4154 70.0245 29.4184C70.0336 29.4184 70.0397 29.4184 70.0488 29.4184C70.0822 29.4184 70.1157 29.4123 70.1461 29.4032C70.1855 29.3911 70.222 29.3698 70.2524 29.3425C70.2828 29.3151 70.3101 29.2817 70.3283 29.2452C70.3466 29.2088 70.3587 29.1693 70.3618 29.1267C70.3618 29.0873 70.3618 29.0447 70.3466 29.0052C70.3344 28.9657 70.3132 28.9293 70.2858 28.8989C70.1886 28.7895 69.8939 28.6103 69.7207 28.6103C69.6873 28.6103 69.6569 28.6163 69.6356 28.6346C69.505 28.747 69.6964 29.1784 69.8118 29.306C69.8392 29.3364 69.8726 29.3637 69.9091 29.382L69.906 29.385Z" fill="#242E30"/>
<path d="M69.031 31.5117H68.4082V32.7544H69.031V31.5117Z" fill="#242E30"/>
<path d="M67.4816 32.7544L67.1747 31.5117H66.5428L66.8526 32.7544H67.4816Z" fill="#242E30"/>
<path d="M70.8965 31.5117H70.2676L69.9638 32.7544H70.5896L70.8965 31.5117Z" fill="#242E30"/>
<path d="M73.245 30.2296H73.0232L72.3001 28.826C71.9507 28.2852 71.3796 27.9358 70.7385 27.872H70.702C70.4195 27.8386 70.2038 27.6502 70.0701 27.4952C69.7754 27.1519 69.3166 26.9757 68.709 26.9757H68.63C68.0224 26.9757 67.5636 27.1489 67.2689 27.4952C67.1382 27.6502 66.9195 27.8386 66.6369 27.8689H66.6005C65.9594 27.9388 65.3882 28.2852 65.0388 28.829L64.3218 30.2296H64.0879V30.8373H64.7684L65.4733 34.0365H71.8869L72.5918 30.8373H73.245V30.2296ZM65.5584 29.145C65.8075 28.7652 66.2116 28.5221 66.6643 28.4766H66.7007C67.0835 28.434 67.439 28.2335 67.7307 27.8902C67.9039 27.6866 68.2077 27.5833 68.63 27.5833H68.709C69.1313 27.5833 69.4351 27.6866 69.6083 27.8902C69.9 28.2335 70.2585 28.434 70.6382 28.4705H70.6747C71.1335 28.5191 71.5375 28.7682 71.7715 29.1298L72.3366 30.2296H65.0054L65.5614 29.145H65.5584ZM71.3978 33.4288H65.9594L65.3882 30.8373H71.969L71.3978 33.4288Z" fill="#242E30"/>
</g>
</g>
<path d="M78.5388 32.7611C77.2388 32.7611 76.6221 31.7611 76.6221 30.8889C76.6221 30.0167 77.2388 29.0167 78.5388 29.0167C79.1332 29.0167 79.561 29.2445 79.8721 29.5611L79.3166 30.1167C79.1277 29.9222 78.8388 29.8111 78.5332 29.8111C77.9721 29.8111 77.5221 30.2778 77.5221 30.8945C77.5221 31.5 77.9721 31.9667 78.5332 31.9667C78.8332 31.9667 79.1221 31.8556 79.311 31.6667L79.8666 32.2222C79.561 32.5389 79.1277 32.7611 78.5388 32.7611ZM81.4624 32.7611C80.4624 32.7611 79.9902 31.9945 79.9902 31.3222C79.9902 30.65 80.4624 29.8833 81.4624 29.8833C82.4624 29.8833 82.9347 30.65 82.9347 31.3222C82.9347 31.9945 82.4624 32.7611 81.4624 32.7611ZM80.8291 31.3222C80.8291 31.7111 81.118 31.9833 81.4624 31.9833C81.8069 31.9833 82.0958 31.7111 82.0958 31.3222C82.0958 30.9333 81.8069 30.6611 81.4624 30.6611C81.118 30.6611 80.8291 30.9333 80.8291 31.3222ZM83.3576 32.6945V29.95H84.1298V30.3H84.1409C84.2742 30.0833 84.5354 29.8833 84.9131 29.8833C85.0576 29.8833 85.1965 29.9 85.3187 29.9389L85.102 30.7556C85.0131 30.7056 84.8965 30.6778 84.7798 30.6778C84.4298 30.6778 84.1798 30.9167 84.1798 31.3222V32.6945H83.3576ZM86.8222 32.7611C85.8277 32.7611 85.3722 31.9945 85.3722 31.3222C85.3722 30.65 85.7833 29.8833 86.7777 29.8833C87.7777 29.8833 88.1666 30.65 88.1666 31.3222C88.1666 31.4056 88.1499 31.5389 88.1333 31.6056H86.2055C86.2888 31.9056 86.5722 32.0389 86.8499 32.0389C87.0944 32.0389 87.3333 31.9556 87.4499 31.8222L87.9499 32.3056C87.7444 32.5611 87.3277 32.7611 86.8222 32.7611ZM86.7777 30.5722C86.4944 30.5722 86.261 30.7056 86.1944 31.0333H87.3555C87.2888 30.7056 87.0555 30.5722 86.7777 30.5722ZM89.9656 32.6945V28.7778H90.7879V32.6945H89.9656ZM92.2654 29.2167C92.2654 29.4667 92.0821 29.6778 91.7765 29.6778C91.4709 29.6778 91.2876 29.4667 91.2876 29.2167C91.2876 28.9667 91.4709 28.75 91.7765 28.75C92.0821 28.75 92.2654 28.9667 92.2654 29.2167ZM91.3654 32.6945V29.95H92.1876V32.6945H91.3654ZM94.3929 32.7611C94.0318 32.7611 93.7651 32.65 93.554 32.4278H93.5429V32.6945H92.7651V28.7778H93.5873V30.1778H93.5985C93.7707 30.0056 94.0429 29.8833 94.3929 29.8833C95.1762 29.8833 95.7485 30.4778 95.7485 31.2945C95.7485 32.1389 95.1762 32.7611 94.3929 32.7611ZM94.2485 31.9945C94.6596 31.9945 94.9096 31.6945 94.9096 31.3222C94.9096 30.95 94.6596 30.65 94.2485 30.65C93.8373 30.65 93.5873 30.95 93.5873 31.3222C93.5873 31.6945 93.8373 31.9945 94.2485 31.9945ZM96.1722 32.6945V29.95H96.9445V30.3H96.9556C97.0889 30.0833 97.35 29.8833 97.7278 29.8833C97.8722 29.8833 98.0111 29.9 98.1334 29.9389L97.9167 30.7556C97.8278 30.7056 97.7111 30.6778 97.5945 30.6778C97.2445 30.6778 96.9945 30.9167 96.9945 31.3222V32.6945H96.1722ZM99.1538 32.7611C98.5649 32.7611 98.1093 32.4556 98.1093 31.9222C98.1093 31.4222 98.4815 31.1389 99.2538 31.1L99.9371 31.0667V31.0556C99.9371 30.7333 99.6982 30.6056 99.3871 30.6056C99.1371 30.6056 98.8982 30.6889 98.7815 30.8222L98.2815 30.3389C98.4926 30.0833 98.9038 29.8833 99.4704 29.8833C100.287 29.8833 100.759 30.3333 100.759 31.0111V32.6945H99.9871V32.4278H99.976C99.8093 32.6445 99.5149 32.7611 99.1538 32.7611ZM99.3426 32.1833C99.6815 32.1833 99.9371 31.9945 99.9371 31.6889V31.6111L99.3593 31.6445C99.0815 31.6611 98.9371 31.7445 98.9371 31.9111C98.9371 32.1 99.1204 32.1833 99.3426 32.1833ZM101.272 32.6945V29.95H102.044V30.3H102.055C102.189 30.0833 102.45 29.8833 102.828 29.8833C102.972 29.8833 103.111 29.9 103.233 29.9389L103.017 30.7556C102.928 30.7056 102.811 30.6778 102.694 30.6778C102.344 30.6778 102.094 30.9167 102.094 31.3222V32.6945H101.272ZM103.917 33.7722C103.806 33.7722 103.678 33.7611 103.584 33.7389V33.0111C103.65 33.0278 103.75 33.0389 103.839 33.0389C104.134 33.0389 104.239 32.9333 104.339 32.6945L103.262 29.95H104.162L104.784 31.6945H104.795L105.417 29.95H106.295L105.212 32.6945C104.934 33.3889 104.667 33.7722 103.917 33.7722Z" fill="#242E30"/>
<path opacity="0.7" d="M268.667 24.1668C268.667 22.6327 269.91 21.389 271.444 21.389L284.5 21.389C286.034 21.3889 287.278 22.6326 287.278 24.1667L287.278 37.2033C287.278 38.7374 286.034 39.9811 284.5 39.9811L271.444 39.9811C269.91 39.9812 268.667 38.7375 268.667 37.2034L268.667 24.1668Z" fill="white"/>
<rect x="268.389" y="21.1302" width="19.1667" height="19.1477" rx="3.05556" stroke="#242E30" stroke-width="0.555556"/>
<g opacity="0.4">
<g clip-path="url(#clip16_9_6148)">
<path d="M281.257 35.8108L278.059 34.1271C278.034 34.1136 278.007 34.1066 277.979 34.1066C277.95 34.1066 277.923 34.1136 277.898 34.1271L274.7 35.8108L275.302 32.2422C275.321 32.195 275.321 32.142 275.302 32.0947L272.679 29.5658L276.252 29.0426C276.279 29.0389 276.304 29.029 276.326 29.0139C276.348 28.9988 276.366 28.9788 276.379 28.9554L277.979 25.7089L279.578 28.9554C279.591 28.9788 279.609 28.9988 279.631 29.0139C279.653 29.029 279.678 29.0389 279.705 29.0426L283.278 29.5658L280.688 32.0947C280.671 32.1147 280.658 32.1382 280.65 32.1636C280.642 32.189 280.639 32.2157 280.642 32.2422L281.257 35.8108ZM274.834 30.2702L275.971 31.3702C276.106 31.5037 276.207 31.6679 276.266 31.849C276.324 32.03 276.338 32.2224 276.306 32.4099L276.038 33.9729L277.437 33.235C277.603 33.1457 277.789 33.0991 277.979 33.0991C278.168 33.0991 278.354 33.1457 278.521 33.235L279.919 33.9729L279.651 32.4099C279.619 32.2224 279.633 32.03 279.691 31.849C279.75 31.6679 279.851 31.5037 279.986 31.3702L281.123 30.2702L279.558 30.0421C279.365 30.019 279.18 29.948 279.021 29.8355C278.862 29.7231 278.734 29.5728 278.648 29.3981L277.979 27.9761L277.309 29.3981C277.229 29.5744 277.106 29.7278 276.952 29.8449C276.798 29.9619 276.617 30.0389 276.426 30.0689L274.834 30.2702Z" fill="#797876"/>
</g>
</g>
<rect x="33.1109" y="21.1111" width="19.1667" height="19.1667" rx="3.05556" fill="#FF8000" stroke="#242E30" stroke-width="0.555556"/>
<path d="M47.4897 30.6136C47.459 30.5354 47.0401 29.7679 46.2626 28.8051C46.243 28.7818 46.2306 28.7533 46.2268 28.7231V28.7231C46.1801 28.1628 46.1018 27.6054 45.9924 27.0537C45.98 26.9983 45.9505 26.9481 45.9079 26.9102C45.8653 26.8723 45.8119 26.8486 45.755 26.8423V26.8423L44.9461 26.7438C44.939 26.7432 44.9318 26.7432 44.9247 26.7438C44.8795 26.7438 44.8362 26.7616 44.8042 26.7933C44.7722 26.8251 44.7543 26.8681 44.7543 26.9129V27.1912C44.7543 27.1939 44.7532 27.1964 44.7513 27.1983C44.7493 27.2002 44.7467 27.2013 44.744 27.2013C44.7415 27.2013 44.7391 27.2004 44.7372 27.1988V27.1988C44.2311 26.7437 43.6848 26.3347 43.1048 25.9768V25.9768C42.9865 25.8982 42.8473 25.8564 42.705 25.8567V25.8567C42.5626 25.8563 42.4234 25.8981 42.3052 25.9768V25.9768C39.5169 27.6842 37.9817 30.4614 37.9224 30.6136C37.9049 30.6502 37.8959 30.6902 37.896 30.7307C37.8961 30.7917 37.9166 30.8509 37.9543 30.8991C37.9921 30.9472 38.0449 30.9816 38.1044 30.9967L38.9078 31.1498C38.9607 31.1644 39.0079 31.1944 39.0434 31.236C39.0789 31.2775 39.101 31.3286 39.1069 31.3827C39.1137 31.5235 39.2654 34.6665 39.456 35.4817C39.4716 35.5403 39.5064 35.592 39.5548 35.6289C39.6032 35.6659 39.6625 35.6859 39.7236 35.6859H39.7296C40.1984 35.6741 40.6276 35.6665 41.0913 35.6601H41.1297C41.1416 35.6601 41.1533 35.6578 41.1642 35.6533C41.1752 35.6488 41.1851 35.6422 41.1934 35.6339C41.2018 35.6255 41.2084 35.6156 41.2129 35.6048C41.2174 35.5939 41.2197 35.5823 41.2196 35.5705V35.5684C41.2009 35.294 41.1604 34.6665 41.1276 34.0039C41.1276 33.9874 41.1276 33.9667 41.1246 33.9498C41.1231 33.9222 41.1149 33.8955 41.1007 33.8718C41.0864 33.8482 41.0665 33.8283 41.0428 33.814C40.9204 33.7416 40.818 33.6403 40.7444 33.5192C40.6709 33.3981 40.6286 33.2609 40.6212 33.1197C40.5786 32.0178 40.5577 30.7438 40.6187 29.7472C40.6215 29.7061 40.6401 29.6677 40.6707 29.6398C40.7013 29.612 40.7415 29.5969 40.783 29.5977C40.8246 29.5986 40.8642 29.6152 40.8936 29.6442C40.9231 29.6732 40.9402 29.7124 40.9413 29.7535C40.9413 29.7578 40.9413 29.762 40.9413 29.7662C40.9017 30.4305 40.8987 31.2161 40.9123 31.9912C40.9128 32.0162 40.9182 32.0408 40.9282 32.0638C40.9383 32.0867 40.9528 32.1074 40.9709 32.1247C40.989 32.1421 41.0104 32.1557 41.0339 32.1649C41.0573 32.174 41.0824 32.1785 41.1075 32.1781C41.1327 32.1776 41.1576 32.1723 41.1807 32.1623C41.2038 32.1523 41.2247 32.1379 41.2422 32.12C41.2597 32.102 41.2734 32.0808 41.2826 32.0575C41.2919 32.0342 41.2964 32.0094 41.2959 31.9844C41.2814 31.2043 41.2853 30.4136 41.3258 29.7472C41.3266 29.7047 41.3444 29.6643 41.3753 29.6348C41.4062 29.6054 41.4477 29.5893 41.4905 29.5901C41.5333 29.591 41.5741 29.6087 41.6038 29.6393C41.6335 29.6699 41.6497 29.711 41.6488 29.7535V29.7662C41.6092 30.4271 41.6062 31.2081 41.6199 31.9789C41.6206 32.0294 41.6416 32.0775 41.6781 32.1126C41.7147 32.1477 41.7638 32.167 41.8146 32.1662C41.8655 32.1655 41.914 32.1447 41.9494 32.1084C41.9848 32.0722 42.0042 32.0235 42.0035 31.973V31.973C41.9894 31.1963 41.9932 30.4085 42.0337 29.7468C42.0346 29.7043 42.0524 29.6639 42.0833 29.6344C42.1142 29.6049 42.1556 29.5889 42.1984 29.5897C42.2413 29.5905 42.282 29.6082 42.3117 29.6389C42.3414 29.6695 42.3576 29.7106 42.3568 29.7531C42.3568 29.7574 42.3568 29.7616 42.3568 29.7658C42.2992 30.7349 42.318 31.9612 42.3568 33.0373C42.3568 33.0373 42.3568 33.0466 42.3568 33.0474C42.3568 33.0483 42.3568 33.0584 42.3568 33.0639V33.0745C42.3569 33.2141 42.3227 33.3516 42.2572 33.4752C42.1917 33.5987 42.0969 33.7046 41.9809 33.7836C41.9603 33.7977 41.9431 33.8162 41.9308 33.8378C41.9185 33.8594 41.9113 33.8836 41.9097 33.9083C41.9097 33.9083 41.8897 34.0737 41.9634 34.8741C41.9975 35.2238 42.0239 35.4661 42.0358 35.5756C42.0385 35.596 42.0487 35.6148 42.0644 35.6284C42.0801 35.6419 42.1003 35.6493 42.1211 35.6491H42.1961C42.3508 35.6491 42.5102 35.6491 42.676 35.6491H42.7382H43.3401L43.7961 35.653C43.8171 35.6531 43.8373 35.6456 43.853 35.6319C43.8688 35.6181 43.8788 35.5992 43.8814 35.5785C43.9866 34.6191 44.0114 34.08 44.0114 34.08C44.0108 34.057 44.0018 34.035 43.9862 34.0181C43.9705 34.0011 43.9492 33.9904 43.9261 33.9878L43.372 33.9121C43.3353 33.9076 43.3007 33.8925 43.2725 33.8686C43.2444 33.8446 43.224 33.813 43.2139 33.7777C43.2069 33.7501 43.2045 33.7215 43.2067 33.6931C43.4313 30.4952 44.4943 29.4174 44.4943 29.4174C44.5098 29.4008 44.5271 29.3859 44.5458 29.373C44.5747 29.3519 44.6097 29.3407 44.6456 29.3409C44.6798 29.3409 44.7133 29.3512 44.7415 29.3703C44.7698 29.3895 44.7916 29.4166 44.8041 29.4483C44.812 29.4732 44.8166 29.4991 44.8178 29.5252C44.9098 30.5303 44.8646 32.2411 44.808 33.5756C44.7598 34.7083 44.7018 35.5976 44.7018 35.5976C44.7018 35.6062 44.7034 35.6148 44.7067 35.6228C44.71 35.6308 44.7149 35.638 44.721 35.6442C44.7272 35.6503 44.7345 35.6552 44.7425 35.6585C44.7506 35.6618 44.7592 35.6635 44.7679 35.6635V35.6635C45.0697 35.6686 45.3667 35.6745 45.6817 35.6825H45.6877C45.7487 35.6825 45.8081 35.6625 45.8565 35.6256C45.9049 35.5886 45.9396 35.5369 45.9553 35.4783V35.4783C46.1463 34.6631 46.2963 31.5202 46.3044 31.3794C46.3105 31.3251 46.3329 31.2738 46.3687 31.2323C46.4045 31.1908 46.452 31.1608 46.5052 31.1464L47.3086 30.9933C47.3681 30.9782 47.4209 30.9439 47.4587 30.8957C47.4964 30.8476 47.5169 30.7883 47.517 30.7273C47.5161 30.6879 47.5068 30.6492 47.4897 30.6136V30.6136Z" fill="white"/>
<defs>
<clipPath id="clip0_9_6148">
<rect width="48.4722" height="19.5833" fill="white" transform="translate(218.111 132.361)"/>
</clipPath>
<clipPath id="clip1_9_6148">
<rect width="48.7098" height="19.5833" fill="white" transform="translate(218.111 132.361)"/>
</clipPath>
<clipPath id="clip2_9_6148">
<rect x="33.3887" y="125.833" width="173.056" height="32.7778" rx="2.77778" fill="white"/>
</clipPath>
<clipPath id="clip3_9_6148">
<rect width="5.55556" height="5.55556" fill="white" transform="translate(40.3335 131.25)"/>
</clipPath>
<clipPath id="clip4_9_6148">
<rect width="4.86111" height="4.86111" fill="white" transform="translate(40.6807 131.597)"/>
</clipPath>
<clipPath id="clip5_9_6148">
<rect width="5.55556" height="5.55556" fill="white" transform="translate(61.7773 131.25)"/>
</clipPath>
<clipPath id="clip6_9_6148">
<rect width="4.86111" height="4.86111" fill="white" transform="translate(62.1245 131.597)"/>
</clipPath>
<clipPath id="clip7_9_6148">
<rect width="5.55556" height="5.55556" fill="white" transform="translate(93.2222 131.25)"/>
</clipPath>
<clipPath id="clip8_9_6148">
<rect width="4.86111" height="4.86111" fill="white" transform="translate(93.5693 131.597)"/>
</clipPath>
<clipPath id="clip9_9_6148">
<rect width="5.55556" height="5.55556" fill="white" transform="translate(117.667 131.25)"/>
</clipPath>
<clipPath id="clip10_9_6148">
<rect width="4.86111" height="4.86111" fill="white" transform="translate(118.014 131.597)"/>
</clipPath>
<clipPath id="clip11_9_6148">
<rect x="32.8335" y="45" width="255" height="75.8333" rx="2.77778" fill="white"/>
</clipPath>
<clipPath id="clip12_9_6148">
<rect width="123.474" height="123.474" fill="white" transform="translate(195.438 7.19812) rotate(21.3546)"/>
</clipPath>
<clipPath id="clip13_9_6148">
<rect width="108.04" height="108.04" fill="white" transform="translate(199.815 17.1956) rotate(21.3546)"/>
</clipPath>
<clipPath id="clip14_9_6148">
<rect width="11.1111" height="11.1111" fill="white" transform="translate(63.1113 25.1389)"/>
</clipPath>
<clipPath id="clip15_9_6148">
<rect width="9.72222" height="9.72222" fill="white" transform="translate(63.8057 25.8334)"/>
</clipPath>
<clipPath id="clip16_9_6148">
<rect width="10.7057" height="10.7325" fill="white" transform="translate(272.626 25.501)"/>
</clipPath>
</defs>
</svg>
