<svg width="320" height="180" viewBox="0 0 320 180" fill="none" xmlns="http://www.w3.org/2000/svg">
<rect width="320" height="180" fill="#F5F3F1"/>
<rect width="250" height="150" transform="translate(35 15)" fill="#F5F3F1"/>
<rect x="204.688" y="126.562" width="75.3125" height="33.4375" rx="3.4375" fill="#FF8000"/>
<rect x="204.688" y="126.562" width="75.3125" height="33.4375" rx="3.4375" stroke="#242E30" stroke-width="0.625"/>
<g clip-path="url(#clip0_9_4843)">
<g clip-path="url(#clip1_9_4843)">
<path d="M232.559 151.366H234.779C234.898 151.366 234.995 151.27 234.995 151.153V147.312H235.03C235.55 147.94 236.482 148.263 237.592 148.263C240.118 148.263 241.964 146.254 241.964 143.528C241.964 140.801 240.118 138.971 237.592 138.971C236.391 138.971 235.406 139.366 234.887 140.048H234.852V139.4C234.852 139.283 234.755 139.187 234.636 139.187H232.559C232.44 139.187 232.344 139.283 232.344 139.4V151.153C232.344 151.27 232.44 151.366 232.559 151.366ZM237.128 145.787C235.802 145.787 234.996 144.818 234.996 143.617C234.996 142.416 235.802 141.447 237.128 141.447C238.454 141.447 239.26 142.416 239.26 143.617C239.26 144.818 238.454 145.787 237.128 145.787Z" fill="white"/>
<path d="M246.234 136.82C246.234 136.013 245.643 135.312 244.657 135.312C243.672 135.312 243.081 136.012 243.081 136.82C243.081 137.627 243.672 138.308 244.657 138.308C245.643 138.308 246.234 137.626 246.234 136.82ZM243.547 148.048H245.768C245.886 148.048 245.983 147.952 245.983 147.835V139.4C245.983 139.283 245.886 139.187 245.768 139.187H243.547C243.429 139.187 243.332 139.283 243.332 139.4V147.835C243.332 147.952 243.429 148.048 243.547 148.048Z" fill="white"/>
<path d="M252.021 148.263C253.547 148.263 254.821 147.698 255.522 146.949C255.602 146.865 255.596 146.733 255.513 146.652L254.202 145.382C254.121 145.304 253.992 145.296 253.905 145.368C253.497 145.718 252.81 145.93 252.11 145.93C251.316 145.93 250.507 145.591 250.147 144.84C250.078 144.697 250.181 144.532 250.34 144.532H256.073C256.179 144.532 256.268 144.457 256.285 144.354C256.324 144.127 256.356 143.824 256.356 143.617C256.356 141.447 255.102 138.971 251.877 138.971C248.651 138.971 247.343 141.446 247.343 143.617C247.343 145.788 248.812 148.263 252.02 148.263H252.021ZM251.878 141.196C252.735 141.196 253.461 141.589 253.711 142.549C253.728 142.618 253.677 142.685 253.606 142.685H250.132C250.061 142.685 250.01 142.618 250.028 142.549C250.278 141.589 251.004 141.196 251.878 141.196Z" fill="white"/>
<path d="M224.359 140.528C224.401 140.569 224.469 140.569 224.511 140.528L226.168 138.887C226.217 138.838 226.208 138.754 226.146 138.719C225.715 138.473 225.251 138.275 224.765 138.132C224.727 138.12 224.685 138.132 224.657 138.159L223.387 139.416C223.345 139.457 223.345 139.525 223.387 139.566L224.359 140.528Z" fill="white"/>
<path d="M227.789 145.034C227.747 144.992 227.679 144.992 227.637 145.034L226.665 145.995C226.623 146.037 226.623 146.104 226.665 146.145L228.308 147.771C228.357 147.82 228.44 147.81 228.476 147.752C228.734 147.336 228.946 146.889 229.104 146.419C229.117 146.381 229.107 146.338 229.078 146.31L227.787 145.033L227.789 145.034Z" fill="white"/>
<path d="M220.033 144.956L222.351 142.661L222.354 142.663L222.673 142.347C222.715 142.305 222.783 142.305 222.825 142.347L224.826 144.327C224.868 144.369 224.868 144.436 224.826 144.477L223.367 145.922C223.325 145.963 223.325 146.03 223.367 146.072L224.338 147.033C224.38 147.075 224.448 147.075 224.49 147.033L229.102 142.468C229.131 142.44 229.142 142.398 229.129 142.36C228.975 141.885 228.765 141.436 228.511 141.017C228.476 140.957 228.392 140.949 228.342 140.998L226.103 143.213C226.061 143.255 225.993 143.255 225.951 143.213L220.904 138.218C220.875 138.189 220.832 138.178 220.793 138.191C220.318 138.349 219.867 138.559 219.447 138.814C219.388 138.85 219.379 138.932 219.428 138.98L221.55 141.081C221.592 141.122 221.592 141.189 221.55 141.231L219.55 143.211C219.508 143.253 219.44 143.253 219.398 143.211L217.319 141.157C217.269 141.107 217.184 141.118 217.149 141.18C216.904 141.611 216.708 142.073 216.567 142.559C216.556 142.596 216.567 142.637 216.595 142.664L218.273 144.326C218.315 144.368 218.315 144.435 218.273 144.476L216.615 146.118C216.587 146.145 216.576 146.187 216.587 146.224C216.732 146.705 216.932 147.163 217.179 147.59C217.215 147.65 217.299 147.66 217.349 147.611L220.033 144.955V144.956Z" fill="white"/>
<path d="M223.292 147.109L221.212 145.051C221.17 145.009 221.102 145.009 221.06 145.051L220.109 145.992C220.067 146.033 220.067 146.101 220.109 146.142L221.55 147.568C221.592 147.61 221.592 147.677 221.55 147.719L219.484 149.764C219.434 149.813 219.444 149.895 219.503 149.931C219.927 150.183 220.381 150.391 220.86 150.543C220.899 150.556 220.942 150.545 220.97 150.516L222.672 148.831C222.714 148.79 222.782 148.79 222.824 148.831L224.585 150.574C224.613 150.602 224.654 150.612 224.692 150.602C225.172 150.465 225.629 150.275 226.058 150.04C226.12 150.006 226.131 149.921 226.081 149.871L223.288 147.108L223.292 147.109Z" fill="white"/>
</g>
</g>
<path fill-rule="evenodd" clip-rule="evenodd" d="M263.934 136.614L262.891 135.312L261.847 136.614L260.273 135.993L260.041 137.626L258.358 137.852L258.997 139.379L257.656 140.391L258.997 141.403L258.358 142.93L260.041 143.156L260.273 144.788L261.847 144.168L262.891 145.469L263.934 144.168L265.508 144.788L265.741 143.156L267.424 142.93L266.784 141.403L268.125 140.391L266.784 139.379L267.424 137.852L265.741 137.626L265.508 135.993L263.934 136.614ZM261.735 142.946C262.042 143.065 262.415 143.125 262.856 143.125C263.211 143.125 263.522 143.087 263.791 143.011C264.06 142.93 264.283 142.822 264.46 142.687C264.637 142.546 264.772 142.384 264.863 142.2C264.954 142.011 265 141.811 265 141.6C265 141.448 264.97 141.305 264.911 141.17C264.852 141.034 264.772 140.91 264.67 140.796C264.567 140.683 264.444 140.588 264.299 140.512C264.154 140.431 263.998 140.372 263.831 140.334V140.285C264.148 140.177 264.387 140.017 264.549 139.806C264.715 139.59 264.798 139.355 264.798 139.101C264.798 138.906 264.755 138.722 264.67 138.549C264.584 138.37 264.46 138.216 264.299 138.086C264.138 137.951 263.939 137.846 263.702 137.77C263.471 137.694 263.205 137.656 262.904 137.656C262.464 137.656 262.098 137.718 261.808 137.843C261.518 137.967 261.26 138.143 261.034 138.37L261.735 139.165C261.848 139.036 261.996 138.93 262.179 138.849C262.367 138.768 262.563 138.727 262.767 138.727C262.939 138.727 263.092 138.768 263.227 138.849C263.366 138.93 263.436 139.073 263.436 139.279C263.436 139.436 263.388 139.566 263.291 139.668C263.2 139.766 263.06 139.815 262.872 139.815H262.308V140.877H262.856C263.098 140.877 263.288 140.923 263.428 141.015C263.568 141.107 263.638 141.248 263.638 141.437C263.638 141.632 263.557 141.784 263.396 141.892C263.235 142 263.031 142.054 262.783 142.054C262.568 142.054 262.359 142.013 262.155 141.932C261.956 141.846 261.789 141.732 261.655 141.591L260.938 142.427C261.169 142.654 261.435 142.827 261.735 142.946Z" fill="white"/>
<g clip-path="url(#clip2_9_4843)">
<rect x="40.3125" y="126.875" width="159.688" height="32.8125" rx="3.125" fill="white"/>
<rect x="45.625" y="132.188" width="24.75" height="9.5" rx="1.25" fill="#262626"/>
<g clip-path="url(#clip3_9_4843)">
<g clip-path="url(#clip4_9_4843)">
<path d="M53.2153 137.167V135.195C53.2144 135.037 53.1511 134.885 53.0391 134.773C52.9272 134.661 52.7755 134.598 52.6172 134.597H49.8828C49.7245 134.598 49.5728 134.661 49.4609 134.773C49.3489 134.885 49.2856 135.037 49.2847 135.195V137.167L48.6011 138.193V138.271C48.602 138.43 48.6653 138.581 48.7773 138.693C48.8892 138.805 49.0409 138.869 49.1992 138.87H53.3008C53.4591 138.869 53.6108 138.805 53.7227 138.693C53.8347 138.581 53.898 138.43 53.8989 138.271V138.193L53.2153 137.167ZM49.7974 135.195C49.7974 135.173 49.8064 135.151 49.8224 135.135C49.8384 135.119 49.8601 135.11 49.8828 135.11H52.6172C52.6399 135.11 52.6616 135.119 52.6776 135.135C52.6936 135.151 52.7026 135.173 52.7026 135.195V136.99H49.7974V135.195ZM53.3008 138.357H51.8618L51.7388 138.077H50.7612L50.6382 138.357H49.1992C49.186 138.357 49.173 138.353 49.1612 138.348C49.1494 138.342 49.139 138.333 49.1309 138.323L49.6777 137.502H52.8223L53.3691 138.323C53.361 138.333 53.3506 138.342 53.3388 138.348C53.327 138.353 53.314 138.357 53.3008 138.357V138.357Z" fill="white"/>
</g>
</g>
<path d="M59.9 138.438L59.41 136.077H59.38L58.89 138.438H57.89L56.945 135.187H57.855L58.395 137.442H58.425L58.89 135.187H59.925L60.385 137.442H60.415L60.96 135.187H61.845L60.9 138.438H59.9ZM63.1091 138.498C62.8824 138.498 62.6874 138.461 62.5241 138.387C62.3641 138.314 62.2324 138.217 62.1291 138.097C62.0258 137.977 61.9491 137.841 61.8991 137.687C61.8491 137.531 61.8241 137.369 61.8241 137.202C61.8241 137.039 61.8458 136.879 61.8891 136.722C61.9358 136.566 62.0074 136.427 62.1041 136.307C62.2041 136.187 62.3324 136.091 62.4891 136.017C62.6458 135.944 62.8374 135.907 63.0641 135.907C63.2908 135.907 63.4824 135.944 63.6391 136.017C63.7958 136.087 63.9208 136.182 64.0141 136.302C64.1108 136.419 64.1791 136.554 64.2191 136.707C64.2624 136.861 64.2841 137.019 64.2841 137.182C64.2841 137.219 64.2808 137.267 64.2741 137.327C64.2674 137.384 64.2591 137.427 64.2491 137.457H62.6291C62.6424 137.531 62.6674 137.592 62.7041 137.642C62.7441 137.692 62.7891 137.732 62.8391 137.762C62.8891 137.792 62.9408 137.814 62.9941 137.827C63.0508 137.841 63.1041 137.847 63.1541 137.847C63.2708 137.847 63.3708 137.829 63.4541 137.792C63.5408 137.756 63.6074 137.707 63.6541 137.647L64.0891 138.102C64.0091 138.219 63.8824 138.314 63.7091 138.387C63.5358 138.461 63.3358 138.498 63.1091 138.498ZM63.0641 136.497C62.9574 136.497 62.8624 136.531 62.7791 136.597C62.6958 136.661 62.6408 136.772 62.6141 136.932H63.5041C63.4808 136.772 63.4274 136.661 63.3441 136.597C63.2608 136.531 63.1674 136.497 63.0641 136.497ZM66.2193 138.498C66.0326 138.498 65.8743 138.454 65.7443 138.367C65.6143 138.281 65.5176 138.157 65.4543 137.997H65.4243V138.438H64.6693V134.812H65.4643V136.372H65.4943C65.5476 136.232 65.6343 136.121 65.7543 136.037C65.8776 135.951 66.0326 135.907 66.2193 135.907C66.366 135.907 66.5026 135.939 66.6293 136.002C66.7593 136.066 66.871 136.156 66.9643 136.272C67.061 136.389 67.136 136.529 67.1893 136.692C67.2426 136.852 67.2693 137.031 67.2693 137.227C67.2693 137.417 67.2426 137.591 67.1893 137.747C67.136 137.904 67.061 138.037 66.9643 138.147C66.871 138.257 66.7593 138.344 66.6293 138.407C66.5026 138.468 66.366 138.498 66.2193 138.498ZM65.9593 137.812C66.1193 137.812 66.241 137.754 66.3243 137.637C66.411 137.517 66.4543 137.372 66.4543 137.202C66.4543 137.032 66.411 136.889 66.3243 136.772C66.241 136.652 66.1193 136.592 65.9593 136.592C65.796 136.592 65.6726 136.652 65.5893 136.772C65.506 136.889 65.4643 137.032 65.4643 137.202C65.4643 137.372 65.506 137.517 65.5893 137.637C65.6726 137.754 65.796 137.812 65.9593 137.812Z" fill="white"/>
<rect x="72.875" y="132.188" width="42.75" height="9.5" rx="1.25" fill="#262626"/>
<g clip-path="url(#clip5_9_4843)">
<g clip-path="url(#clip6_9_4843)">
<path d="M81.0156 134.806L80.2568 134.047C80.1441 133.935 79.9918 133.872 79.833 133.872C79.6742 133.872 79.5219 133.935 79.4092 134.047L76.1689 137.287C76.0702 137.387 76.0076 137.517 75.9912 137.656L75.8169 139.246L77.4063 139.071C77.5455 139.055 77.6753 138.992 77.7754 138.894L81.0156 135.653C81.1275 135.541 81.1903 135.388 81.1903 135.23C81.1903 135.071 81.1275 134.918 81.0156 134.806V134.806ZM77.4131 138.531C77.3959 138.549 77.3726 138.559 77.3481 138.559L76.3979 138.665L76.5005 137.714C76.5036 137.69 76.5144 137.667 76.5313 137.65L78.9238 135.257L79.8022 136.135L77.4131 138.531ZM80.6533 135.291L80.1782 135.763L79.2998 134.884L79.7715 134.409C79.7882 134.394 79.8102 134.385 79.833 134.385C79.8444 134.385 79.8557 134.387 79.8663 134.391C79.8769 134.395 79.8865 134.401 79.8945 134.409L80.6533 135.168C80.6685 135.185 80.6768 135.207 80.6768 135.23C80.6768 135.252 80.6685 135.274 80.6533 135.291V135.291Z" fill="white"/>
</g>
</g>
<path d="M84.285 137.837H84.645V135.787H84.285V135.187H85.85V135.787H85.49V137.837H85.85V138.438H84.285V137.837ZM86.2748 134.812H87.0698V138.438H86.2748V134.812ZM87.598 134.812H88.393V138.438H87.598V134.812ZM89.7363 138.498C89.5763 138.498 89.4413 138.476 89.3313 138.432C89.2246 138.386 89.1379 138.319 89.0713 138.232C89.0079 138.146 88.9613 138.039 88.9313 137.912C88.9046 137.786 88.8913 137.639 88.8913 137.472V135.967H89.6863V137.312C89.6863 137.472 89.7113 137.597 89.7613 137.687C89.8113 137.777 89.9063 137.822 90.0463 137.822C90.1796 137.822 90.2746 137.779 90.3313 137.692C90.3913 137.606 90.4213 137.479 90.4213 137.312V135.967H91.2163V138.438H90.4713V138.027H90.4413C90.3913 138.164 90.3029 138.277 90.1763 138.367C90.0496 138.454 89.9029 138.498 89.7363 138.498ZM92.9234 137.692C92.9234 137.622 92.8751 137.574 92.7784 137.547C92.6817 137.517 92.5484 137.484 92.3784 137.447C92.2817 137.427 92.1901 137.399 92.1034 137.362C92.0167 137.322 91.9401 137.274 91.8734 137.217C91.8067 137.157 91.7534 137.086 91.7134 137.002C91.6734 136.919 91.6534 136.819 91.6534 136.702C91.6534 136.576 91.6801 136.464 91.7334 136.367C91.7867 136.267 91.8601 136.184 91.9534 136.117C92.0501 136.047 92.1634 135.996 92.2934 135.962C92.4234 135.926 92.5667 135.907 92.7234 135.907C92.9701 135.907 93.1767 135.942 93.3434 136.012C93.5101 136.082 93.6334 136.166 93.7134 136.262L93.2984 136.712C93.2384 136.649 93.1601 136.597 93.0634 136.557C92.9667 136.517 92.8717 136.497 92.7784 136.497C92.6917 136.497 92.6167 136.512 92.5534 136.542C92.4901 136.569 92.4584 136.617 92.4584 136.687C92.4584 136.757 92.5067 136.807 92.6034 136.837C92.7001 136.864 92.8334 136.896 93.0034 136.932C93.1001 136.952 93.1917 136.982 93.2784 137.022C93.3651 137.059 93.4417 137.107 93.5084 137.167C93.5751 137.224 93.6284 137.296 93.6684 137.382C93.7084 137.466 93.7284 137.564 93.7284 137.677C93.7284 137.807 93.7017 137.924 93.6484 138.027C93.5951 138.127 93.5201 138.212 93.4234 138.282C93.3267 138.352 93.2101 138.406 93.0734 138.443C92.9401 138.479 92.7934 138.498 92.6334 138.498C92.3701 138.498 92.1484 138.464 91.9684 138.397C91.7884 138.327 91.6551 138.241 91.5684 138.137L91.9634 137.687C92.0401 137.764 92.1351 137.821 92.2484 137.857C92.3617 137.891 92.4751 137.907 92.5884 137.907C92.6951 137.907 92.7767 137.889 92.8334 137.852C92.8934 137.816 92.9234 137.762 92.9234 137.692ZM95.2162 138.493C94.9029 138.493 94.6762 138.414 94.5362 138.257C94.3995 138.101 94.3312 137.851 94.3312 137.507V136.602H93.9762V135.967H94.3312V135.297H95.1162V135.967H95.8462V136.602H95.1162V137.522C95.1162 137.632 95.1345 137.712 95.1712 137.762C95.2112 137.812 95.2762 137.837 95.3662 137.837C95.4262 137.837 95.4829 137.826 95.5362 137.802C95.5929 137.776 95.6395 137.744 95.6762 137.707L95.9312 138.247C95.7679 138.411 95.5295 138.493 95.2162 138.493ZM96.2699 135.967H97.0149V136.392H97.0449C97.0949 136.239 97.1732 136.121 97.2799 136.037C97.3899 135.951 97.5282 135.907 97.6949 135.907C97.8249 135.907 97.9415 135.924 98.0449 135.957L97.8449 136.687C97.8082 136.664 97.7649 136.647 97.7149 136.637C97.6682 136.624 97.6215 136.617 97.5749 136.617C97.4249 136.617 97.3015 136.661 97.2049 136.747C97.1115 136.831 97.0649 136.964 97.0649 137.147V138.438H96.2699V135.967ZM98.9222 138.498C98.8122 138.498 98.7055 138.481 98.6022 138.448C98.5022 138.414 98.4139 138.366 98.3372 138.302C98.2639 138.236 98.2039 138.156 98.1572 138.062C98.1139 137.969 98.0922 137.862 98.0922 137.742C98.0922 137.516 98.1722 137.337 98.3322 137.207C98.4955 137.077 98.7505 137.002 99.0972 136.982L99.6222 136.952V136.912C99.6222 136.842 99.6072 136.786 99.5772 136.742C99.5505 136.699 99.5139 136.666 99.4672 136.642C99.4239 136.616 99.3722 136.597 99.3122 136.587C99.2555 136.577 99.1972 136.572 99.1372 136.572C99.0439 136.572 98.9489 136.589 98.8522 136.622C98.7555 136.656 98.6839 136.702 98.6372 136.762L98.2022 136.312C98.2922 136.199 98.4239 136.104 98.5972 136.027C98.7705 135.947 98.9972 135.907 99.2772 135.907C99.6339 135.907 99.9122 135.989 100.112 136.152C100.316 136.316 100.417 136.551 100.417 136.857V138.438H99.6722V138.057H99.6422C99.5789 138.187 99.4872 138.294 99.3672 138.377C99.2505 138.458 99.1022 138.498 98.9222 138.498ZM99.1922 137.957C99.3189 137.957 99.4222 137.924 99.5022 137.857C99.5822 137.787 99.6222 137.682 99.6222 137.542V137.412L99.2072 137.442C99.1005 137.449 99.0205 137.476 98.9672 137.522C98.9172 137.569 98.8922 137.631 98.8922 137.707C98.8922 137.794 98.9205 137.857 98.9772 137.897C99.0372 137.937 99.1089 137.957 99.1922 137.957ZM101.998 138.493C101.685 138.493 101.458 138.414 101.318 138.257C101.182 138.101 101.113 137.851 101.113 137.507V136.602H100.758V135.967H101.113V135.297H101.898V135.967H102.628V136.602H101.898V137.522C101.898 137.632 101.917 137.712 101.953 137.762C101.993 137.812 102.058 137.837 102.148 137.837C102.208 137.837 102.265 137.826 102.318 137.802C102.375 137.776 102.422 137.744 102.458 137.707L102.713 138.247C102.55 138.411 102.312 138.493 101.998 138.493ZM103.902 135.257C103.902 135.371 103.864 135.472 103.787 135.562C103.71 135.649 103.599 135.692 103.452 135.692C103.302 135.692 103.19 135.649 103.117 135.562C103.044 135.472 103.007 135.371 103.007 135.257C103.007 135.144 103.044 135.044 103.117 134.957C103.19 134.867 103.302 134.822 103.452 134.822C103.599 134.822 103.71 134.867 103.787 134.957C103.864 135.044 103.902 135.144 103.902 135.257ZM103.052 135.967H103.847V138.438H103.052V135.967ZM105.52 138.498C105.307 138.498 105.119 138.464 104.955 138.397C104.795 138.327 104.662 138.234 104.555 138.117C104.449 137.997 104.367 137.859 104.31 137.703C104.257 137.546 104.23 137.379 104.23 137.202C104.23 137.026 104.257 136.859 104.31 136.702C104.367 136.546 104.449 136.409 104.555 136.292C104.662 136.172 104.795 136.079 104.955 136.012C105.119 135.942 105.307 135.907 105.52 135.907C105.734 135.907 105.92 135.942 106.08 136.012C106.24 136.079 106.374 136.172 106.48 136.292C106.587 136.409 106.667 136.546 106.72 136.702C106.777 136.859 106.805 137.026 106.805 137.202C106.805 137.379 106.777 137.546 106.72 137.703C106.667 137.859 106.587 137.997 106.48 138.117C106.374 138.234 106.24 138.327 106.08 138.397C105.92 138.464 105.734 138.498 105.52 138.498ZM105.04 137.202C105.04 137.416 105.085 137.579 105.175 137.692C105.265 137.806 105.38 137.862 105.52 137.862C105.66 137.862 105.774 137.806 105.86 137.692C105.95 137.579 105.995 137.416 105.995 137.202C105.995 136.989 105.95 136.826 105.86 136.712C105.774 136.599 105.66 136.542 105.52 136.542C105.38 136.542 105.265 136.599 105.175 136.712C105.085 136.826 105.04 136.989 105.04 137.202ZM107.193 135.967H107.938V136.377H107.968C108.018 136.241 108.108 136.129 108.238 136.042C108.371 135.952 108.523 135.907 108.693 135.907C108.856 135.907 108.993 135.931 109.103 135.977C109.216 136.021 109.306 136.086 109.373 136.172C109.439 136.259 109.486 136.367 109.513 136.497C109.543 136.624 109.558 136.769 109.558 136.932V138.438H108.763V137.092C108.763 136.936 108.736 136.812 108.683 136.722C108.629 136.629 108.529 136.582 108.383 136.582C108.243 136.582 108.141 136.626 108.078 136.712C108.018 136.799 107.988 136.926 107.988 137.092V138.438H107.193V135.967ZM111.239 137.692C111.239 137.622 111.19 137.574 111.094 137.547C110.997 137.517 110.864 137.484 110.694 137.447C110.597 137.427 110.505 137.399 110.419 137.362C110.332 137.322 110.255 137.274 110.189 137.217C110.122 137.157 110.069 137.086 110.029 137.002C109.989 136.919 109.969 136.819 109.969 136.702C109.969 136.576 109.995 136.464 110.049 136.367C110.102 136.267 110.175 136.184 110.269 136.117C110.365 136.047 110.479 135.996 110.609 135.962C110.739 135.926 110.882 135.907 111.039 135.907C111.285 135.907 111.492 135.942 111.659 136.012C111.825 136.082 111.949 136.166 112.029 136.262L111.614 136.712C111.554 136.649 111.475 136.597 111.379 136.557C111.282 136.517 111.187 136.497 111.094 136.497C111.007 136.497 110.932 136.512 110.869 136.542C110.805 136.569 110.774 136.617 110.774 136.687C110.774 136.757 110.822 136.807 110.919 136.837C111.015 136.864 111.149 136.896 111.319 136.932C111.415 136.952 111.507 136.982 111.594 137.022C111.68 137.059 111.757 137.107 111.824 137.167C111.89 137.224 111.944 137.296 111.984 137.382C112.024 137.466 112.044 137.564 112.044 137.677C112.044 137.807 112.017 137.924 111.964 138.027C111.91 138.127 111.835 138.212 111.739 138.282C111.642 138.352 111.525 138.406 111.389 138.443C111.255 138.479 111.109 138.498 110.949 138.498C110.685 138.498 110.464 138.464 110.284 138.397C110.104 138.327 109.97 138.241 109.884 138.137L110.279 137.687C110.355 137.764 110.45 137.821 110.564 137.857C110.677 137.891 110.79 137.907 110.904 137.907C111.01 137.907 111.092 137.889 111.149 137.852C111.209 137.816 111.239 137.762 111.239 137.692Z" fill="white"/>
</g>
<rect x="40" y="126.562" width="160.312" height="33.4375" rx="3.4375" stroke="#242E30" stroke-width="0.625"/>
<g clip-path="url(#clip7_9_4843)">
<rect x="0.3125" y="-0.3125" width="240" height="78.75" rx="3.4375" transform="matrix(-1 0 0 1 280.312 43.75)" fill="white" stroke="#242E30" stroke-width="0.625"/>
<g opacity="0.08" clip-path="url(#clip8_9_4843)">
<g clip-path="url(#clip9_9_4843)">
<path d="M232.11 79.8827C232.862 80.1767 233.706 80.1535 234.442 79.8312C235.178 79.5089 235.768 78.9045 236.062 78.1524C236.726 76.4533 237.013 71.9414 235.453 71.3315C233.893 70.7217 231 74.3431 230.379 75.9308C230.085 76.6828 230.109 77.5268 230.431 78.263C230.753 78.9991 231.358 79.5887 232.11 79.8827Z" fill="#242E30"/>
<path d="M219.167 70.3589C219.376 70.7294 219.634 71.055 219.969 71.3468C220.215 71.5392 220.472 71.7038 220.75 71.8127C220.862 71.8563 220.973 71.8999 221.085 71.9434C221.496 72.0402 221.93 72.0812 222.34 72.0169C222.751 71.9527 223.166 71.7939 223.509 71.5746C225.024 70.8186 228.354 67.5603 227.531 66.0506C227.384 65.7685 227.128 65.6039 226.793 65.4732C225.234 64.8633 221.979 65.5496 220.706 66.176C220.319 66.3456 219.965 66.5927 219.657 66.8895C219.376 67.1972 219.14 67.5544 218.976 67.9722C218.824 68.3622 218.783 68.7957 218.808 69.2232C218.834 69.6506 218.965 70.055 219.135 70.4425L219.167 70.3589Z" fill="#242E30"/>
<path d="M244.037 80.3395C244.306 80.6373 244.625 80.8903 245.004 81.0706C245.087 81.1033 245.143 81.1251 245.227 81.1578C245.533 81.2776 245.861 81.3416 246.172 81.367C246.578 81.3971 246.988 81.3329 247.365 81.1911C247.742 81.0493 248.112 80.8409 248.41 80.572C248.708 80.3031 248.961 79.9846 249.141 79.6055C249.283 79.2434 249.435 78.8534 249.437 78.4369C249.467 78.0312 249.403 77.6207 249.261 77.2442C248.762 75.893 246.703 73.1932 245.115 72.5725C244.809 72.4527 244.508 72.3995 244.248 72.4904C242.647 73.0527 242.856 77.694 243.457 79.2777C243.599 79.6543 243.807 80.0248 244.076 80.3226L244.037 80.3395Z" fill="#242E30"/>
<path d="M228.392 96.7008L222.682 94.4683L218.228 105.861L223.938 108.093L228.392 96.7008Z" fill="#242E30"/>
<path d="M209.732 102.539L211.373 90.0468L205.58 87.7816L203.967 100.285L209.732 102.539Z" fill="#242E30"/>
<path d="M245.494 103.388L239.729 101.133L232.489 111.436L238.227 113.68L245.494 103.388Z" fill="#242E30"/>
<path d="M271.621 100.051L269.588 99.2565L267.99 83.796C266.725 77.5856 262.741 72.335 257.093 69.4522L256.758 69.3215C254.288 68.0023 252.985 65.5022 252.315 63.6025C250.844 59.3986 247.27 56.1386 241.699 53.9605L240.975 53.6774C235.404 51.4993 230.577 51.4425 226.634 53.5615C224.881 54.5138 222.2 55.4566 219.501 54.7223L219.166 54.5917C213.039 52.9344 206.561 54.0624 201.408 57.7958L189.814 68.0664L187.669 67.2278L185.491 72.7986L191.731 75.238L186.725 107.095L245.525 130.084L263.454 103.281L269.443 105.622L271.621 100.051ZM205.039 62.5549C208.684 59.9662 213.26 59.1863 217.573 60.3911L217.908 60.5218C221.57 61.5041 225.547 60.9399 229.452 58.8379C231.769 57.5924 234.925 57.7344 238.797 59.2482L239.521 59.5313C243.392 61.0451 245.808 63.0812 246.666 65.5681C248.109 69.7611 250.677 72.8845 254.028 74.5801L254.362 74.7108C258.394 76.8009 261.206 80.5333 262.054 84.6865L263.293 96.7952L196.081 70.5167L205.066 62.5658L205.039 62.5549ZM243.218 122.76L193.36 103.266L197.413 77.4597L257.744 101.048L243.218 122.76Z" fill="#242E30"/>
</g>
</g>
<path d="M46.45 61.0625V52.125H50.3C52.17 52.125 53.5175 53.445 53.5175 55.1637C53.5175 56.8825 52.17 58.2025 50.3 58.2025H48.6225V61.0625H46.45ZM48.6225 56.36H50.0938C50.7813 56.36 51.3038 55.8787 51.3038 55.1637C51.3038 54.4487 50.7813 53.9675 50.0938 53.9675H48.6225V56.36ZM54.3553 61.0625V52.125H56.5278V61.0625H54.3553ZM57.8697 61.0625V52.125H63.8509V53.9675H60.0422V55.59H63.7272V57.4325H60.0422V59.22H63.9609V61.0625H57.8697ZM71.1554 61.2275C69.6154 61.2275 68.5841 60.8287 67.8279 60.0725L69.0791 58.5875C69.5466 59.055 70.2479 59.3438 70.9904 59.3438C71.9666 59.3438 72.6266 58.9725 72.6266 58.34C72.6266 57.7075 72.0079 57.405 71.1416 57.405H70.2616V55.6312H71.1416C71.8566 55.6312 72.2966 55.2875 72.2966 54.7512C72.2966 54.0775 71.6366 53.8437 71.0179 53.8437C70.3579 53.8437 69.6704 54.1462 69.2441 54.6137L67.9929 53.1562C68.7354 52.4 69.7666 51.96 71.2241 51.96C73.2316 51.96 74.5104 53.1425 74.5104 54.4762C74.5104 55.3012 74.0291 56.0437 73.1904 56.4562C74.2079 56.8275 74.8541 57.57 74.8541 58.5875C74.8541 60.0312 73.5616 61.2275 71.1554 61.2275ZM79.2051 61.0625V52.125H81.9826L84.5264 58.615L87.0976 52.125H89.8339V61.0625H87.7164V55.6587L85.5164 61.0625H83.5226L81.3226 55.6587V61.0625H79.2051ZM94.3143 61.2275C91.8393 61.2275 90.6706 59.33 90.6706 57.6662C90.6706 56.0025 91.8393 54.105 94.3143 54.105C96.7893 54.105 97.9581 56.0025 97.9581 57.6662C97.9581 59.33 96.7893 61.2275 94.3143 61.2275ZM92.7468 57.6662C92.7468 58.6287 93.4618 59.3025 94.3143 59.3025C95.1668 59.3025 95.8818 58.6287 95.8818 57.6662C95.8818 56.7037 95.1668 56.03 94.3143 56.03C93.4618 56.03 92.7468 56.7037 92.7468 57.6662ZM101.676 61.2138C99.9985 61.2138 99.1323 60.2787 99.1323 58.395V56.03H98.046V54.27H99.1323V52.4275H101.167V54.27H103.34V56.03H101.167V58.395C101.167 59.0825 101.525 59.3987 102.075 59.3987C102.432 59.3987 102.762 59.2475 103.01 59.0275L103.766 60.54C103.285 61.0075 102.542 61.2138 101.676 61.2138ZM106.354 52.455C106.354 53.0737 105.901 53.5962 105.144 53.5962C104.388 53.5962 103.934 53.0737 103.934 52.455C103.934 51.8362 104.388 51.3 105.144 51.3C105.901 51.3 106.354 51.8362 106.354 52.455ZM104.127 61.0625V54.27H106.162V61.0625H104.127ZM110.537 61.2275C108.062 61.2275 106.894 59.33 106.894 57.6662C106.894 56.0025 108.062 54.105 110.537 54.105C113.012 54.105 114.181 56.0025 114.181 57.6662C114.181 59.33 113.012 61.2275 110.537 61.2275ZM108.97 57.6662C108.97 58.6287 109.685 59.3025 110.537 59.3025C111.39 59.3025 112.105 58.6287 112.105 57.6662C112.105 56.7037 111.39 56.03 110.537 56.03C109.685 56.03 108.97 56.7037 108.97 57.6662ZM114.915 61.0625V54.27H116.827V54.93H116.854C117.212 54.435 117.913 54.105 118.807 54.105C120.8 54.105 121.667 55.425 121.667 57.24V61.0625H119.632V57.5562C119.632 56.69 119.288 55.975 118.312 55.975C117.377 55.975 116.95 56.6487 116.95 57.5562V61.0625H114.915Z" fill="#242E30"/>
<line x1="45.625" y1="67.5" x2="175.312" y2="67.5" stroke="#242E30" stroke-width="0.625"/>
<path d="M47.9938 77.6375C46.4688 77.6375 45.825 76.475 45.825 75.5312C45.825 74.55 46.525 73.425 47.9688 73.425C48.6563 73.425 49.1313 73.6812 49.4813 74.0375L48.8563 74.6625C48.6438 74.4437 48.3125 74.3187 47.9938 74.3187C47.3375 74.3187 46.8375 74.8437 46.8375 75.5312C46.8375 76.1437 47.2375 76.7375 48.0563 76.7375C48.2938 76.7375 48.5938 76.6875 48.8188 76.5687V76.1375H48.1688V75.3H49.8063V77C49.4813 77.35 48.775 77.6375 47.9938 77.6375ZM51.6422 77.6375C50.7547 77.6375 50.3672 77.0375 50.3672 76.2125V74.475H51.2922V76.0812C51.2922 76.4687 51.4359 76.7875 51.8547 76.7875C52.2672 76.7875 52.4609 76.4875 52.4609 76.0812V74.475H53.3859V77.5625H52.5172V77.2625H52.5047C52.3422 77.4875 52.0359 77.6375 51.6422 77.6375ZM55.0497 73.65C55.0497 73.9312 54.8434 74.1687 54.4997 74.1687C54.1559 74.1687 53.9497 73.9312 53.9497 73.65C53.9497 73.3687 54.1559 73.125 54.4997 73.125C54.8434 73.125 55.0497 73.3687 55.0497 73.65ZM54.0372 77.5625V74.475H54.9622V77.5625H54.0372ZM56.9619 77.6375C56.0806 77.6375 55.4369 76.9687 55.4369 76.05C55.4369 75.1 56.0806 74.4 56.9619 74.4C57.3494 74.4 57.6744 74.5125 57.8556 74.7312H57.8681V73.1562H58.7931V77.5625H57.9181V77.2625H57.9056C57.7244 77.5 57.3806 77.6375 56.9619 77.6375ZM57.1244 76.775C57.5869 76.775 57.8681 76.4375 57.8681 76.0187C57.8681 75.6 57.5869 75.2625 57.1244 75.2625C56.6619 75.2625 56.3806 75.6 56.3806 76.0187C56.3806 76.4375 56.6619 76.775 57.1244 76.775ZM60.895 77.6375C59.7763 77.6375 59.2638 76.775 59.2638 76.0187C59.2638 75.2625 59.7263 74.4 60.845 74.4C61.97 74.4 62.4075 75.2625 62.4075 76.0187C62.4075 76.1125 62.3888 76.2625 62.37 76.3375H60.2013C60.295 76.675 60.6138 76.825 60.9263 76.825C61.2013 76.825 61.47 76.7312 61.6013 76.5812L62.1638 77.125C61.9325 77.4125 61.4638 77.6375 60.895 77.6375ZM60.845 75.175C60.5263 75.175 60.2638 75.325 60.1888 75.6937H61.495C61.42 75.325 61.1575 75.175 60.845 75.175ZM62.8567 77.5625V73.1562H63.7817V77.5625H62.8567ZM65.4439 73.65C65.4439 73.9312 65.2377 74.1687 64.8939 74.1687C64.5502 74.1687 64.3439 73.9312 64.3439 73.65C64.3439 73.3687 64.5502 73.125 64.8939 73.125C65.2377 73.125 65.4439 73.3687 65.4439 73.65ZM64.4314 77.5625V74.475H65.3564V77.5625H64.4314ZM66.0062 77.5625V74.475H66.8749V74.775H66.8874C67.0499 74.55 67.3687 74.4 67.7749 74.4C68.6812 74.4 69.0749 75 69.0749 75.825V77.5625H68.1499V75.9687C68.1499 75.575 67.9937 75.25 67.5499 75.25C67.1249 75.25 66.9312 75.5562 66.9312 75.9687V77.5625H66.0062ZM71.1062 77.6375C69.9875 77.6375 69.475 76.775 69.475 76.0187C69.475 75.2625 69.9375 74.4 71.0562 74.4C72.1812 74.4 72.6187 75.2625 72.6187 76.0187C72.6187 76.1125 72.6 76.2625 72.5812 76.3375H70.4125C70.5062 76.675 70.825 76.825 71.1375 76.825C71.4125 76.825 71.6812 76.7312 71.8125 76.5812L72.375 77.125C72.1437 77.4125 71.675 77.6375 71.1062 77.6375ZM71.0562 75.175C70.7375 75.175 70.475 75.325 70.4 75.6937H71.7062C71.6312 75.325 71.3687 75.175 71.0562 75.175ZM74.6179 76.6312C74.6179 76.4562 74.3429 76.4125 73.8867 76.3312C73.3867 76.2437 72.9367 75.9687 72.9367 75.3937C72.9367 74.7562 73.4992 74.4 74.2804 74.4C74.8867 74.4 75.3242 74.6062 75.5429 74.8437L75.0117 75.4375C74.8679 75.2687 74.5804 75.1625 74.3179 75.1625C74.0804 75.1625 73.8804 75.2187 73.8804 75.3875C73.8804 75.5625 74.1554 75.6 74.6117 75.6812C75.1117 75.7687 75.5617 76.0375 75.5617 76.6125C75.5617 77.2562 74.9742 77.6375 74.1742 77.6375C73.5117 77.6375 73.0429 77.4437 72.8179 77.1875L73.3492 76.5875C73.5554 76.775 73.8367 76.8625 74.1617 76.8625C74.4242 76.8625 74.6179 76.8 74.6179 76.6312ZM78.54 77.6375C77.8775 77.6375 77.365 77.2937 77.365 76.6937C77.365 76.1312 77.7838 75.8125 78.6525 75.7687L79.4213 75.7312V75.7187C79.4213 75.3562 79.1525 75.2125 78.8025 75.2125C78.5213 75.2125 78.2525 75.3062 78.1213 75.4562L77.5588 74.9125C77.7963 74.625 78.2588 74.4 78.8963 74.4C79.815 74.4 80.3463 74.9062 80.3463 75.6687V77.5625H79.4775V77.2625H79.465C79.2775 77.5062 78.9463 77.6375 78.54 77.6375ZM78.7525 76.9875C79.1338 76.9875 79.4213 76.775 79.4213 76.4312V76.3437L78.7713 76.3812C78.4588 76.4 78.2963 76.4937 78.2963 76.6812C78.2963 76.8937 78.5025 76.9875 78.7525 76.9875ZM80.9231 77.5625V74.475H81.7919V74.775H81.8044C81.9669 74.55 82.2856 74.4 82.6919 74.4C83.5981 74.4 83.9919 75 83.9919 75.825V77.5625H83.0669V75.9687C83.0669 75.575 82.9106 75.25 82.4669 75.25C82.0419 75.25 81.8481 75.5562 81.8481 75.9687V77.5625H80.9231ZM85.9169 77.6375C85.0357 77.6375 84.3919 76.9687 84.3919 76.05C84.3919 75.1 85.0357 74.4 85.9169 74.4C86.3044 74.4 86.6294 74.5125 86.8107 74.7312H86.8232V73.1562H87.7482V77.5625H86.8732V77.2625H86.8607C86.6794 77.5 86.3357 77.6375 85.9169 77.6375ZM86.0794 76.775C86.5419 76.775 86.8232 76.4375 86.8232 76.0187C86.8232 75.6 86.5419 75.2625 86.0794 75.2625C85.6169 75.2625 85.3357 75.6 85.3357 76.0187C85.3357 76.4375 85.6169 76.775 86.0794 76.775ZM89.9686 78.7188V74.475H90.8436V74.775H90.8561C91.0373 74.5375 91.3811 74.4 91.7998 74.4C92.6811 74.4 93.3248 75.0687 93.3248 75.9875C93.3248 76.9375 92.6811 77.6375 91.7998 77.6375C91.4123 77.6375 91.0873 77.525 90.9061 77.3062H90.8936V78.7188H89.9686ZM91.6373 76.775C92.0998 76.775 92.3811 76.4375 92.3811 76.0187C92.3811 75.6 92.0998 75.2625 91.6373 75.2625C91.1748 75.2625 90.8936 75.6 90.8936 76.0187C90.8936 76.4375 91.1748 76.775 91.6373 76.775ZM93.8016 77.5625V74.475H94.6703V74.8687H94.6828C94.8328 74.625 95.1266 74.4 95.5516 74.4C95.7141 74.4 95.8703 74.4187 96.0078 74.4625L95.7641 75.3812C95.6641 75.325 95.5328 75.2937 95.4016 75.2937C95.0078 75.2937 94.7266 75.5625 94.7266 76.0187V77.5625H93.8016ZM97.3165 73.65C97.3165 73.9312 97.1103 74.1687 96.7665 74.1687C96.4228 74.1687 96.2165 73.9312 96.2165 73.65C96.2165 73.3687 96.4228 73.125 96.7665 73.125C97.1103 73.125 97.3165 73.3687 97.3165 73.65ZM96.304 77.5625V74.475H97.229V77.5625H96.304ZM97.8787 77.5625V74.475H98.7475V74.775H98.76C98.9225 74.55 99.2412 74.4 99.6475 74.4C100.554 74.4 100.947 75 100.947 75.825V77.5625H100.022V75.9687C100.022 75.575 99.8662 75.25 99.4225 75.25C98.9975 75.25 98.8037 75.5562 98.8037 75.9687V77.5625H97.8787ZM102.979 77.6375C101.86 77.6375 101.348 76.775 101.348 76.0187C101.348 75.2625 101.854 74.4 102.973 74.4C103.491 74.4 103.891 74.625 104.135 74.9L103.51 75.5187C103.379 75.3687 103.179 75.2875 102.973 75.2875C102.591 75.2875 102.291 75.5812 102.291 76.0187C102.291 76.4562 102.591 76.75 102.973 76.75C103.179 76.75 103.379 76.6625 103.51 76.5187L104.135 77.1375C103.891 77.4125 103.498 77.6375 102.979 77.6375ZM105.556 73.65C105.556 73.9312 105.35 74.1687 105.006 74.1687C104.663 74.1687 104.456 73.9312 104.456 73.65C104.456 73.3687 104.663 73.125 105.006 73.125C105.35 73.125 105.556 73.3687 105.556 73.65ZM104.544 77.5625V74.475H105.469V77.5625H104.544ZM106.118 78.7188V74.475H106.993V74.775H107.006C107.187 74.5375 107.531 74.4 107.95 74.4C108.831 74.4 109.475 75.0687 109.475 75.9875C109.475 76.9375 108.831 77.6375 107.95 77.6375C107.562 77.6375 107.237 77.525 107.056 77.3062H107.043V78.7188H106.118ZM107.787 76.775C108.25 76.775 108.531 76.4375 108.531 76.0187C108.531 75.6 108.25 75.2625 107.787 75.2625C107.325 75.2625 107.043 75.6 107.043 76.0187C107.043 76.4375 107.325 76.775 107.787 76.775ZM109.951 77.5625V73.1562H110.876V77.5625H109.951ZM112.982 77.6375C111.864 77.6375 111.351 76.775 111.351 76.0187C111.351 75.2625 111.814 74.4 112.932 74.4C114.057 74.4 114.495 75.2625 114.495 76.0187C114.495 76.1125 114.476 76.2625 114.457 76.3375H112.289C112.382 76.675 112.701 76.825 113.014 76.825C113.289 76.825 113.557 76.7312 113.689 76.5812L114.251 77.125C114.02 77.4125 113.551 77.6375 112.982 77.6375ZM112.932 75.175C112.614 75.175 112.351 75.325 112.276 75.6937H113.582C113.507 75.325 113.245 75.175 112.932 75.175ZM116.494 76.6312C116.494 76.4562 116.219 76.4125 115.763 76.3312C115.263 76.2437 114.813 75.9687 114.813 75.3937C114.813 74.7562 115.375 74.4 116.157 74.4C116.763 74.4 117.2 74.6062 117.419 74.8437L116.888 75.4375C116.744 75.2687 116.457 75.1625 116.194 75.1625C115.957 75.1625 115.757 75.2187 115.757 75.3875C115.757 75.5625 116.032 75.6 116.488 75.6812C116.988 75.7687 117.438 76.0375 117.438 76.6125C117.438 77.2562 116.85 77.6375 116.05 77.6375C115.388 77.6375 114.919 77.4437 114.694 77.1875L115.225 76.5875C115.432 76.775 115.713 76.8625 116.038 76.8625C116.3 76.8625 116.494 76.8 116.494 76.6312ZM120.848 77.6313C120.085 77.6313 119.691 77.2062 119.691 76.35V75.275H119.198V74.475H119.691V73.6375H120.616V74.475H121.604V75.275H120.616V76.35C120.616 76.6625 120.779 76.8062 121.029 76.8062C121.191 76.8062 121.341 76.7375 121.454 76.6375L121.798 77.325C121.579 77.5375 121.241 77.6313 120.848 77.6313ZM123.585 77.6375C122.46 77.6375 121.929 76.775 121.929 76.0187C121.929 75.2625 122.46 74.4 123.585 74.4C124.71 74.4 125.241 75.2625 125.241 76.0187C125.241 76.775 124.71 77.6375 123.585 77.6375ZM122.872 76.0187C122.872 76.4562 123.197 76.7625 123.585 76.7625C123.972 76.7625 124.297 76.4562 124.297 76.0187C124.297 75.5812 123.972 75.275 123.585 75.275C123.197 75.275 122.872 75.5812 122.872 76.0187ZM128.492 77.6375C127.604 77.6375 127.217 77.0375 127.217 76.2125V74.475H128.142V76.0812C128.142 76.4687 128.285 76.7875 128.704 76.7875C129.117 76.7875 129.31 76.4875 129.31 76.0812V74.475H130.235V77.5625H129.367V77.2625H129.354C129.192 77.4875 128.885 77.6375 128.492 77.6375ZM132.437 76.6312C132.437 76.4562 132.162 76.4125 131.705 76.3312C131.205 76.2437 130.755 75.9687 130.755 75.3937C130.755 74.7562 131.318 74.4 132.099 74.4C132.705 74.4 133.143 74.6062 133.362 74.8437L132.83 75.4375C132.687 75.2687 132.399 75.1625 132.137 75.1625C131.899 75.1625 131.699 75.2187 131.699 75.3875C131.699 75.5625 131.974 75.6 132.43 75.6812C132.93 75.7687 133.38 76.0375 133.38 76.6125C133.38 77.2562 132.793 77.6375 131.993 77.6375C131.33 77.6375 130.862 77.4437 130.637 77.1875L131.168 76.5875C131.374 76.775 131.655 76.8625 131.98 76.8625C132.243 76.8625 132.437 76.8 132.437 76.6312ZM135.315 77.6375C134.196 77.6375 133.684 76.775 133.684 76.0187C133.684 75.2625 134.146 74.4 135.265 74.4C136.39 74.4 136.828 75.2625 136.828 76.0187C136.828 76.1125 136.809 76.2625 136.79 76.3375H134.621C134.715 76.675 135.034 76.825 135.346 76.825C135.621 76.825 135.89 76.7312 136.021 76.5812L136.584 77.125C136.353 77.4125 135.884 77.6375 135.315 77.6375ZM135.265 75.175C134.946 75.175 134.684 75.325 134.609 75.6937H135.915C135.84 75.325 135.578 75.175 135.265 75.175ZM138.852 77.5625V74.475H139.72V74.775H139.733C139.895 74.55 140.183 74.4 140.62 74.4C141.083 74.4 141.414 74.5625 141.633 74.8312C141.82 74.625 142.183 74.4 142.752 74.4C143.695 74.4 144.064 75 144.064 75.825V77.5625H143.139V75.9687C143.139 75.575 142.983 75.25 142.539 75.25C142.114 75.25 141.92 75.5562 141.92 75.9687V77.5625H140.995V75.9687C140.995 75.575 140.839 75.25 140.395 75.25C139.97 75.25 139.777 75.5562 139.777 75.9687V77.5625H138.852ZM146.119 77.6375C144.994 77.6375 144.463 76.775 144.463 76.0187C144.463 75.2625 144.994 74.4 146.119 74.4C147.244 74.4 147.775 75.2625 147.775 76.0187C147.775 76.775 147.244 77.6375 146.119 77.6375ZM145.406 76.0187C145.406 76.4562 145.731 76.7625 146.119 76.7625C146.506 76.7625 146.831 76.4562 146.831 76.0187C146.831 75.5812 146.506 75.275 146.119 75.275C145.731 75.275 145.406 75.5812 145.406 76.0187ZM149.607 77.6313C148.845 77.6313 148.451 77.2062 148.451 76.35V75.275H147.957V74.475H148.451V73.6375H149.376V74.475H150.364V75.275H149.376V76.35C149.376 76.6625 149.539 76.8062 149.789 76.8062C149.951 76.8062 150.101 76.7375 150.214 76.6375L150.557 77.325C150.339 77.5375 150.001 77.6313 149.607 77.6313ZM151.876 73.65C151.876 73.9312 151.67 74.1687 151.326 74.1687C150.982 74.1687 150.776 73.9312 150.776 73.65C150.776 73.3687 150.982 73.125 151.326 73.125C151.67 73.125 151.876 73.3687 151.876 73.65ZM150.863 77.5625V74.475H151.788V77.5625H150.863ZM153.919 77.6375C152.794 77.6375 152.263 76.775 152.263 76.0187C152.263 75.2625 152.794 74.4 153.919 74.4C155.044 74.4 155.576 75.2625 155.576 76.0187C155.576 76.775 155.044 77.6375 153.919 77.6375ZM153.207 76.0187C153.207 76.4562 153.532 76.7625 153.919 76.7625C154.307 76.7625 154.632 76.4562 154.632 76.0187C154.632 75.5812 154.307 75.275 153.919 75.275C153.532 75.275 153.207 75.5812 153.207 76.0187ZM156.051 77.5625V74.475H156.92V74.775H156.933C157.095 74.55 157.414 74.4 157.82 74.4C158.726 74.4 159.12 75 159.12 75.825V77.5625H158.195V75.9687C158.195 75.575 158.039 75.25 157.595 75.25C157.17 75.25 156.976 75.5562 156.976 75.9687V77.5625H156.051ZM46.7813 84.5625L45.6625 81.475H46.6875L47.2813 83.4H47.2938L47.9 81.475H48.8563L49.475 83.4H49.4875L50.0813 81.475H51.1063L49.9875 84.5625H49.0125L48.375 82.725L47.7563 84.5625H46.7813ZM52.4801 80.65C52.4801 80.9312 52.2738 81.1687 51.9301 81.1687C51.5863 81.1687 51.3801 80.9312 51.3801 80.65C51.3801 80.3687 51.5863 80.125 51.9301 80.125C52.2738 80.125 52.4801 80.3687 52.4801 80.65ZM51.4676 84.5625V81.475H52.3926V84.5625H51.4676ZM54.3985 84.6313C53.636 84.6313 53.2423 84.2062 53.2423 83.35V82.275H52.7485V81.475H53.2423V80.6375H54.1673V81.475H55.1548V82.275H54.1673V83.35C54.1673 83.6625 54.3298 83.8062 54.5798 83.8062C54.7423 83.8062 54.8923 83.7375 55.0048 83.6375L55.3485 84.325C55.1298 84.5375 54.7923 84.6313 54.3985 84.6313ZM55.6546 84.5625V80.1562H56.5796V81.7125H56.5921C56.7733 81.5187 57.0421 81.4 57.4233 81.4C58.3296 81.4 58.7233 82 58.7233 82.825V84.5625H57.7983V82.9687C57.7983 82.575 57.6421 82.25 57.1983 82.25C56.7733 82.25 56.5796 82.5562 56.5796 82.9687V84.5625H55.6546ZM60.3109 80.65C60.3109 80.9312 60.1046 81.1687 59.7609 81.1687C59.4171 81.1687 59.2109 80.9312 59.2109 80.65C59.2109 80.3687 59.4171 80.125 59.7609 80.125C60.1046 80.125 60.3109 80.3687 60.3109 80.65ZM59.2984 84.5625V81.475H60.2234V84.5625H59.2984ZM60.8731 84.5625V81.475H61.7418V81.775H61.7543C61.9168 81.55 62.2356 81.4 62.6418 81.4C63.5481 81.4 63.9418 82 63.9418 82.825V84.5625H63.0168V82.9687C63.0168 82.575 62.8606 82.25 62.4168 82.25C61.9918 82.25 61.7981 82.5562 61.7981 82.9687V84.5625H60.8731ZM67.5729 84.6375C66.4479 84.6375 65.9166 83.775 65.9166 83.0187C65.9166 82.2625 66.4479 81.4 67.5729 81.4C68.6979 81.4 69.2291 82.2625 69.2291 83.0187C69.2291 83.775 68.6979 84.6375 67.5729 84.6375ZM66.8604 83.0187C66.8604 83.4562 67.1854 83.7625 67.5729 83.7625C67.9604 83.7625 68.2854 83.4562 68.2854 83.0187C68.2854 82.5812 67.9604 82.275 67.5729 82.275C67.1854 82.275 66.8604 82.5812 66.8604 83.0187ZM70.9049 84.6375C70.0174 84.6375 69.6299 84.0375 69.6299 83.2125V81.475H70.5549V83.0812C70.5549 83.4687 70.6986 83.7875 71.1174 83.7875C71.5299 83.7875 71.7236 83.4875 71.7236 83.0812V81.475H72.6486V84.5625H71.7799V84.2625H71.7674C71.6049 84.4875 71.2986 84.6375 70.9049 84.6375ZM73.2999 84.5625V81.475H74.1686V81.8687H74.1811C74.3311 81.625 74.6249 81.4 75.0499 81.4C75.2124 81.4 75.3686 81.4187 75.5061 81.4625L75.2624 82.3812C75.1624 82.325 75.0311 82.2937 74.8999 82.2937C74.5061 82.2937 74.2249 82.5625 74.2249 83.0187V84.5625H73.2999ZM77.377 85.7188V81.475H78.252V81.775H78.2645C78.4458 81.5375 78.7895 81.4 79.2083 81.4C80.0895 81.4 80.7333 82.0687 80.7333 82.9875C80.7333 83.9375 80.0895 84.6375 79.2083 84.6375C78.8208 84.6375 78.4958 84.525 78.3145 84.3062H78.302V85.7188H77.377ZM79.0458 83.775C79.5083 83.775 79.7895 83.4375 79.7895 83.0187C79.7895 82.6 79.5083 82.2625 79.0458 82.2625C78.5833 82.2625 78.302 82.6 78.302 83.0187C78.302 83.4375 78.5833 83.775 79.0458 83.775ZM81.21 84.5625V81.475H82.0788V81.8687H82.0913C82.2413 81.625 82.535 81.4 82.96 81.4C83.1225 81.4 83.2788 81.4187 83.4163 81.4625L83.1725 82.3812C83.0725 82.325 82.9413 82.2937 82.81 82.2937C82.4163 82.2937 82.135 82.5625 82.135 83.0187V84.5625H81.21ZM85.1327 84.6375C84.0077 84.6375 83.4764 83.775 83.4764 83.0187C83.4764 82.2625 84.0077 81.4 85.1327 81.4C86.2577 81.4 86.7889 82.2625 86.7889 83.0187C86.7889 83.775 86.2577 84.6375 85.1327 84.6375ZM84.4202 83.0187C84.4202 83.4562 84.7452 83.7625 85.1327 83.7625C85.5202 83.7625 85.8452 83.4562 85.8452 83.0187C85.8452 82.5812 85.5202 82.275 85.1327 82.275C84.7452 82.275 84.4202 82.5812 84.4202 83.0187ZM88.6147 84.6375C87.7334 84.6375 87.0897 83.9687 87.0897 83.05C87.0897 82.1 87.7334 81.4 88.6147 81.4C89.0022 81.4 89.3272 81.5125 89.5084 81.7312H89.5209V80.1562H90.4459V84.5625H89.5709V84.2625H89.5584C89.3772 84.5 89.0334 84.6375 88.6147 84.6375ZM88.7772 83.775C89.2397 83.775 89.5209 83.4375 89.5209 83.0187C89.5209 82.6 89.2397 82.2625 88.7772 82.2625C88.3147 82.2625 88.0334 82.6 88.0334 83.0187C88.0334 83.4375 88.3147 83.775 88.7772 83.775ZM92.2916 84.6375C91.4041 84.6375 91.0166 84.0375 91.0166 83.2125V81.475H91.9416V83.0812C91.9416 83.4687 92.0854 83.7875 92.5041 83.7875C92.9166 83.7875 93.1104 83.4875 93.1104 83.0812V81.475H94.0354V84.5625H93.1666V84.2625H93.1541C92.9916 84.4875 92.6854 84.6375 92.2916 84.6375ZM96.1428 84.6375C95.0241 84.6375 94.5116 83.775 94.5116 83.0187C94.5116 82.2625 95.0178 81.4 96.1366 81.4C96.6553 81.4 97.0553 81.625 97.2991 81.9L96.6741 82.5187C96.5428 82.3687 96.3428 82.2875 96.1366 82.2875C95.7553 82.2875 95.4553 82.5812 95.4553 83.0187C95.4553 83.4562 95.7553 83.75 96.1366 83.75C96.3428 83.75 96.5428 83.6625 96.6741 83.5187L97.2991 84.1375C97.0553 84.4125 96.6616 84.6375 96.1428 84.6375ZM99.0641 84.6313C98.3016 84.6313 97.9078 84.2062 97.9078 83.35V82.275H97.4141V81.475H97.9078V80.6375H98.8328V81.475H99.8203V82.275H98.8328V83.35C98.8328 83.6625 98.9953 83.8062 99.2453 83.8062C99.4078 83.8062 99.5578 83.7375 99.6703 83.6375L100.014 84.325C99.7953 84.5375 99.4578 84.6313 99.0641 84.6313ZM101.87 83.6312C101.87 83.4562 101.595 83.4125 101.139 83.3312C100.639 83.2437 100.189 82.9687 100.189 82.3937C100.189 81.7562 100.751 81.4 101.533 81.4C102.139 81.4 102.576 81.6062 102.795 81.8437L102.264 82.4375C102.12 82.2687 101.833 82.1625 101.57 82.1625C101.333 82.1625 101.133 82.2187 101.133 82.3875C101.133 82.5625 101.408 82.6 101.864 82.6812C102.364 82.7687 102.814 83.0375 102.814 83.6125C102.814 84.2562 102.226 84.6375 101.426 84.6375C100.764 84.6375 100.295 84.4437 100.07 84.1875L100.601 83.5875C100.808 83.775 101.089 83.8625 101.414 83.8625C101.676 83.8625 101.87 83.8 101.87 83.6312ZM103.836 84.625C103.468 84.625 103.268 84.3312 103.268 84.0625C103.268 83.7937 103.468 83.5 103.836 83.5C104.205 83.5 104.405 83.7937 104.405 84.0625C104.405 84.3312 104.205 84.625 103.836 84.625Z" fill="#3C4C4F"/>
</g>
<rect x="63.4375" y="20" width="193.125" height="19.0625" rx="3.4375" fill="white"/>
<rect x="63.4375" y="20" width="193.125" height="19.0625" rx="3.4375" stroke="#242E30" stroke-width="0.625"/>
<g clip-path="url(#clip10_9_4843)">
<path d="M76.356 28.5059C76.4482 28.5059 76.5371 28.4683 76.6021 28.4033C76.667 28.3384 76.7046 28.2495 76.7046 28.1572C76.7046 27.9487 76.5474 27.4565 76.356 27.4565C76.1646 27.4565 76.0073 27.9624 76.0073 28.1572C76.0073 28.2495 76.0449 28.3384 76.1099 28.4033C76.1748 28.4683 76.2637 28.5059 76.356 28.5059Z" fill="#242E30"/>
<path d="M74.582 28.0308C74.6196 28.0615 74.6606 28.0854 74.7085 28.1025C74.7427 28.1128 74.7769 28.1196 74.811 28.1196C74.8247 28.1196 74.8384 28.1196 74.8521 28.1196C74.8999 28.1128 74.9478 28.0991 74.9888 28.0752C75.0298 28.0513 75.0674 28.0171 75.0947 27.9795C75.2246 27.8359 75.4434 27.3506 75.293 27.2241C75.2656 27.2002 75.2314 27.1934 75.1904 27.1934C74.999 27.1934 74.6812 27.4019 74.5718 27.5215C74.5376 27.5557 74.5103 27.5967 74.4897 27.6411C74.4727 27.6855 74.4624 27.7334 74.4624 27.7847C74.4624 27.8325 74.4761 27.8804 74.4966 27.9248C74.5171 27.9692 74.5479 28.0068 74.582 28.041V28.0308Z" fill="#242E30"/>
<path d="M77.6445 28.0581C77.6855 28.0786 77.73 28.0923 77.7778 28.0957C77.7881 28.0957 77.7949 28.0957 77.8052 28.0957C77.8428 28.0957 77.8804 28.0889 77.9146 28.0786C77.959 28.0649 78 28.041 78.0342 28.0103C78.0684 27.9795 78.0991 27.9419 78.1196 27.9009C78.1401 27.8599 78.1538 27.8154 78.1572 27.7676C78.1572 27.7231 78.1572 27.6753 78.1401 27.6309C78.1265 27.5864 78.1025 27.5454 78.0718 27.5112C77.9624 27.3882 77.6309 27.1865 77.436 27.1865C77.3984 27.1865 77.3643 27.1934 77.3403 27.2139C77.1934 27.3403 77.4087 27.8257 77.5386 27.9692C77.5693 28.0034 77.6069 28.0342 77.6479 28.0547L77.6445 28.0581Z" fill="#242E30"/>
<path d="M76.6602 30.4507H75.9595V31.8486H76.6602V30.4507Z" fill="#242E30"/>
<path d="M74.917 31.8486L74.5718 30.4507H73.8608L74.2095 31.8486H74.917Z" fill="#242E30"/>
<path d="M78.7588 30.4507H78.0513L77.7095 31.8486H78.4136L78.7588 30.4507Z" fill="#242E30"/>
<path d="M81.4009 29.0083H81.1514L80.3379 27.4292C79.9448 26.8208 79.3022 26.4277 78.5811 26.356H78.54C78.2222 26.3184 77.9795 26.1064 77.8291 25.9321C77.4976 25.5459 76.9814 25.3477 76.2979 25.3477H76.209C75.5254 25.3477 75.0093 25.5425 74.6777 25.9321C74.5308 26.1064 74.2847 26.3184 73.9668 26.3525H73.9258C73.2046 26.4312 72.562 26.8208 72.1689 27.4326L71.3623 29.0083H71.0991V29.6919H71.8647L72.6577 33.291H79.873L80.666 29.6919H81.4009V29.0083ZM72.7534 27.7881C73.0337 27.3608 73.4883 27.0874 73.9976 27.0361H74.0386C74.4692 26.9883 74.8691 26.7627 75.1973 26.3765C75.3921 26.1475 75.7339 26.0312 76.209 26.0312H76.2979C76.7729 26.0312 77.1147 26.1475 77.3096 26.3765C77.6377 26.7627 78.041 26.9883 78.4683 27.0293H78.5093C79.0254 27.084 79.48 27.3643 79.7432 27.771L80.3789 29.0083H72.1313L72.7568 27.7881H72.7534ZM79.3228 32.6074H73.2046L72.562 29.6919H79.9653L79.3228 32.6074Z" fill="#242E30"/>
</g>
<path d="M87.3563 31.1063C85.8938 31.1063 85.2 29.9812 85.2 29C85.2 28.0187 85.8938 26.8937 87.3563 26.8937C88.025 26.8937 88.5063 27.15 88.8563 27.5062L88.2313 28.1312C88.0188 27.9125 87.6938 27.7875 87.35 27.7875C86.7188 27.7875 86.2125 28.3125 86.2125 29.0062C86.2125 29.6875 86.7188 30.2125 87.35 30.2125C87.6875 30.2125 88.0125 30.0875 88.225 29.875L88.85 30.5C88.5063 30.8562 88.0188 31.1063 87.3563 31.1063ZM90.6454 31.1063C89.5204 31.1063 88.9891 30.2437 88.9891 29.4875C88.9891 28.7312 89.5204 27.8687 90.6454 27.8687C91.7704 27.8687 92.3016 28.7312 92.3016 29.4875C92.3016 30.2437 91.7704 31.1063 90.6454 31.1063ZM89.9329 29.4875C89.9329 29.925 90.2579 30.2312 90.6454 30.2312C91.0329 30.2312 91.3579 29.925 91.3579 29.4875C91.3579 29.05 91.0329 28.7437 90.6454 28.7437C90.2579 28.7437 89.9329 29.05 89.9329 29.4875ZM92.7774 31.0312V27.9437H93.6461V28.3375H93.6586C93.8086 28.0937 94.1024 27.8687 94.5274 27.8687C94.6899 27.8687 94.8461 27.8875 94.9836 27.9312L94.7399 28.85C94.6399 28.7937 94.5086 28.7625 94.3774 28.7625C93.9836 28.7625 93.7024 29.0312 93.7024 29.4875V31.0312H92.7774ZM96.675 31.1063C95.5563 31.1063 95.0438 30.2437 95.0438 29.4875C95.0438 28.7312 95.5063 27.8687 96.625 27.8687C97.75 27.8687 98.1875 28.7312 98.1875 29.4875C98.1875 29.5812 98.1688 29.7312 98.15 29.8062H95.9813C96.075 30.1437 96.3938 30.2937 96.7063 30.2937C96.9813 30.2937 97.25 30.2 97.3813 30.05L97.9438 30.5937C97.7125 30.8812 97.2438 31.1063 96.675 31.1063ZM96.625 28.6437C96.3063 28.6437 96.0438 28.7937 95.9688 29.1625H97.275C97.2 28.7937 96.9375 28.6437 96.625 28.6437ZM100.211 31.0312V26.625H101.136V31.0312H100.211ZM102.799 27.1187C102.799 27.4 102.592 27.6375 102.249 27.6375C101.905 27.6375 101.699 27.4 101.699 27.1187C101.699 26.8375 101.905 26.5937 102.249 26.5937C102.592 26.5937 102.799 26.8375 102.799 27.1187ZM101.786 31.0312V27.9437H102.711V31.0312H101.786ZM105.192 31.1063C104.786 31.1063 104.486 30.9812 104.248 30.7312H104.236V31.0312H103.361V26.625H104.286V28.2H104.298C104.492 28.0062 104.798 27.8687 105.192 27.8687C106.073 27.8687 106.717 28.5375 106.717 29.4562C106.717 30.4062 106.073 31.1063 105.192 31.1063ZM105.03 30.2437C105.492 30.2437 105.773 29.9062 105.773 29.4875C105.773 29.0687 105.492 28.7312 105.03 28.7312C104.567 28.7312 104.286 29.0687 104.286 29.4875C104.286 29.9062 104.567 30.2437 105.03 30.2437ZM107.194 31.0312V27.9437H108.063V28.3375H108.075C108.225 28.0937 108.519 27.8687 108.944 27.8687C109.106 27.8687 109.263 27.8875 109.4 27.9312L109.156 28.85C109.056 28.7937 108.925 28.7625 108.794 28.7625C108.4 28.7625 108.119 29.0312 108.119 29.4875V31.0312H107.194ZM110.548 31.1063C109.886 31.1063 109.373 30.7625 109.373 30.1625C109.373 29.6 109.792 29.2812 110.661 29.2375L111.429 29.2V29.1875C111.429 28.825 111.161 28.6812 110.811 28.6812C110.529 28.6812 110.261 28.775 110.129 28.925L109.567 28.3812C109.804 28.0937 110.267 27.8687 110.904 27.8687C111.823 27.8687 112.354 28.375 112.354 29.1375V31.0312H111.486V30.7312H111.473C111.286 30.975 110.954 31.1063 110.548 31.1063ZM110.761 30.4562C111.142 30.4562 111.429 30.2437 111.429 29.9V29.8125L110.779 29.85C110.467 29.8687 110.304 29.9625 110.304 30.15C110.304 30.3625 110.511 30.4562 110.761 30.4562ZM112.931 31.0312V27.9437H113.8V28.3375H113.812C113.962 28.0937 114.256 27.8687 114.681 27.8687C114.844 27.8687 115 27.8875 115.137 27.9312L114.894 28.85C114.794 28.7937 114.662 28.7625 114.531 28.7625C114.137 28.7625 113.856 29.0312 113.856 29.4875V31.0312H112.931ZM115.907 32.2438C115.782 32.2438 115.638 32.2313 115.532 32.2063V31.3875C115.607 31.4063 115.719 31.4188 115.819 31.4188C116.151 31.4188 116.269 31.3 116.382 31.0312L115.169 27.9437H116.182L116.882 29.9062H116.894L117.594 27.9437H118.582L117.363 31.0312C117.051 31.8125 116.751 32.2438 115.907 32.2438Z" fill="#242E30"/>
<rect x="260.938" y="20" width="19.0625" height="19.0625" rx="3.4375" fill="white" fill-opacity="0.7" stroke="#242E30" stroke-width="0.625"/>
<g opacity="0.4">
<g clip-path="url(#clip11_9_4843)">
<path d="M273.721 34.4433L270.55 32.7704C270.525 32.757 270.498 32.7499 270.47 32.7499C270.442 32.7499 270.415 32.757 270.391 32.7704L267.219 34.4433L267.816 30.8975C267.835 30.8505 267.835 30.7979 267.816 30.7509L265.215 28.2382L268.758 27.7183C268.785 27.7145 268.81 27.7048 268.831 27.6897C268.853 27.6747 268.871 27.6548 268.884 27.6316L270.47 24.4058L272.056 27.6316C272.069 27.6548 272.087 27.6747 272.109 27.6897C272.131 27.7048 272.156 27.7145 272.182 27.7183L275.725 28.2382L273.157 30.7509C273.14 30.7708 273.127 30.7941 273.119 30.8194C273.111 30.8446 273.108 30.8712 273.111 30.8975L273.721 34.4433ZM267.352 28.938L268.48 30.0311C268.614 30.1637 268.714 30.3269 268.772 30.5067C268.829 30.6866 268.843 30.8778 268.811 31.0641L268.546 32.6171L269.933 31.8839C270.098 31.7952 270.283 31.7489 270.47 31.7489C270.658 31.7489 270.842 31.7952 271.008 31.8839L272.394 32.6171L272.129 31.0641C272.097 30.8778 272.111 30.6866 272.169 30.5067C272.226 30.3269 272.327 30.1637 272.461 30.0311L273.589 28.938L272.036 28.7114C271.845 28.6884 271.662 28.6178 271.504 28.5061C271.347 28.3944 271.219 28.2451 271.134 28.0715L270.47 26.6585L269.807 28.0715C269.727 28.2466 269.605 28.3991 269.452 28.5154C269.299 28.6317 269.12 28.7082 268.931 28.738L267.352 28.938Z" fill="#797876"/>
</g>
</g>
<rect x="40" y="20" width="19.0625" height="19.0625" rx="3.4375" fill="#FF8000" stroke="#242E30" stroke-width="0.625"/>
<path d="M54.2816 29.4511C54.2512 29.3736 53.8361 28.6133 53.0659 27.6595C53.0465 27.6363 53.0342 27.6081 53.0305 27.5782V27.5782C52.9841 27.0231 52.9066 26.471 52.7982 25.9244C52.786 25.8695 52.7567 25.8198 52.7145 25.7822C52.6724 25.7447 52.6194 25.7212 52.563 25.715V25.715L51.7616 25.6174C51.7546 25.6167 51.7475 25.6167 51.7405 25.6174C51.6957 25.6174 51.6528 25.635 51.6211 25.6664C51.5894 25.6979 51.5716 25.7405 51.5716 25.7849V26.0605C51.5716 26.0632 51.5706 26.0658 51.5687 26.0677C51.5668 26.0695 51.5642 26.0706 51.5615 26.0706C51.559 26.0706 51.5566 26.0697 51.5547 26.0681V26.0681C51.0534 25.6173 50.5121 25.2121 49.9376 24.8575V24.8575C49.8204 24.7796 49.6825 24.7382 49.5415 24.7385V24.7385C49.4005 24.7381 49.2625 24.7795 49.1454 24.8575V24.8575C46.3831 26.549 44.8622 29.3003 44.8035 29.4511C44.7862 29.4873 44.7772 29.527 44.7773 29.5671C44.7774 29.6275 44.7977 29.6862 44.8351 29.7339C44.8725 29.7816 44.9248 29.8156 44.9838 29.8306L45.7797 29.9822C45.8321 29.9967 45.8789 30.0265 45.914 30.0676C45.9492 30.1088 45.9711 30.1594 45.9769 30.213C45.9837 30.3525 46.134 33.4661 46.3227 34.2738C46.3383 34.3318 46.3727 34.383 46.4207 34.4196C46.4686 34.4562 46.5274 34.4761 46.5879 34.4761H46.5938C47.0583 34.4643 47.4835 34.4568 47.9429 34.4505H47.9809C47.9926 34.4505 48.0042 34.4482 48.0151 34.4438C48.0259 34.4393 48.0358 34.4327 48.044 34.4245C48.0523 34.4162 48.0589 34.4064 48.0633 34.3957C48.0678 34.3849 48.07 34.3734 48.07 34.3617V34.3596C48.0514 34.0878 48.0113 33.4661 47.9788 32.8097C47.9788 32.7934 47.9788 32.7729 47.9758 32.7561C47.9744 32.7288 47.9662 32.7023 47.9521 32.6789C47.938 32.6555 47.9183 32.6358 47.8948 32.6216C47.7735 32.5498 47.672 32.4495 47.5992 32.3296C47.5264 32.2096 47.4845 32.0737 47.4772 31.9338C47.4349 30.8422 47.4142 29.5801 47.4746 28.5927C47.4774 28.552 47.4958 28.5139 47.5262 28.4864C47.5565 28.4588 47.5963 28.4439 47.6375 28.4447C47.6786 28.4455 47.7178 28.462 47.747 28.4907C47.7762 28.5195 47.7931 28.5582 47.7943 28.599C47.7943 28.6032 47.7943 28.6074 47.7943 28.6116C47.755 29.2697 47.752 30.048 47.7655 30.8158C47.766 30.8406 47.7713 30.865 47.7813 30.8877C47.7913 30.9104 47.8056 30.9309 47.8236 30.9481C47.8415 30.9653 47.8627 30.9788 47.886 30.9879C47.9092 30.997 47.934 31.0014 47.9589 31.001C47.9839 31.0005 48.0085 30.9952 48.0314 30.9853C48.0543 30.9754 48.075 30.9612 48.0923 30.9434C48.1096 30.9256 48.1233 30.9045 48.1324 30.8815C48.1415 30.8585 48.146 30.8339 48.1456 30.8091C48.1312 30.0362 48.135 29.2529 48.1751 28.5927C48.176 28.5506 48.1936 28.5106 48.2242 28.4814C48.2548 28.4522 48.2959 28.4363 48.3383 28.4371C48.3808 28.438 48.4211 28.4555 48.4505 28.4859C48.48 28.5162 48.496 28.5569 48.4952 28.599V28.6116C48.4559 29.2663 48.453 30.04 48.4665 30.8037C48.4672 30.8537 48.488 30.9013 48.5242 30.9361C48.5604 30.9709 48.609 30.99 48.6594 30.9892C48.7098 30.9884 48.7578 30.9678 48.7929 30.9319C48.828 30.896 48.8473 30.8478 48.8465 30.7978V30.7978C48.8325 30.0283 48.8363 29.2479 48.8765 28.5923C48.8773 28.5502 48.895 28.5102 48.9256 28.481C48.9562 28.4518 48.9972 28.4359 49.0397 28.4367C49.0821 28.4375 49.1225 28.4551 49.1519 28.4854C49.1813 28.5158 49.1974 28.5565 49.1965 28.5986C49.1965 28.6028 49.1965 28.607 49.1965 28.6112C49.1395 29.5713 49.1581 30.7861 49.1965 31.8521C49.1965 31.8521 49.1965 31.8614 49.1965 31.8622C49.1965 31.863 49.1965 31.8731 49.1965 31.8785V31.889C49.1966 32.0273 49.1628 32.1635 49.0979 32.2859C49.033 32.4083 48.939 32.5132 48.8241 32.5915C48.8037 32.6054 48.7867 32.6238 48.7745 32.6452C48.7623 32.6666 48.7552 32.6905 48.7536 32.7151C48.7536 32.7151 48.7337 32.8788 48.8068 33.6718C48.8406 34.0182 48.8667 34.2583 48.8786 34.3667C48.8813 34.387 48.8913 34.4056 48.9069 34.4191C48.9224 34.4325 48.9424 34.4398 48.963 34.4396H49.0373C49.1906 34.4396 49.3485 34.4396 49.5128 34.4396H49.5744H50.1706L50.6224 34.4434C50.6432 34.4436 50.6633 34.4361 50.6788 34.4225C50.6944 34.4089 50.7044 34.3901 50.7069 34.3697C50.8112 33.4192 50.8357 32.8851 50.8357 32.8851C50.8351 32.8624 50.8262 32.8406 50.8107 32.8238C50.7952 32.807 50.774 32.7963 50.7512 32.7938L50.2023 32.7188C50.1659 32.7144 50.1316 32.6993 50.1037 32.6757C50.0759 32.652 50.0557 32.6206 50.0456 32.5856C50.0387 32.5583 50.0363 32.53 50.0385 32.5018C50.261 29.3338 51.3141 28.266 51.3141 28.266C51.3294 28.2496 51.3466 28.2348 51.3652 28.222C51.3938 28.2012 51.4284 28.19 51.464 28.1902C51.4979 28.1902 51.531 28.2004 51.559 28.2194C51.587 28.2384 51.6086 28.2653 51.621 28.2966C51.6288 28.3213 51.6333 28.3469 51.6345 28.3728C51.7257 29.3685 51.681 31.0634 51.6248 32.3854C51.5771 33.5076 51.5197 34.3885 51.5197 34.3885C51.5196 34.3971 51.5213 34.4056 51.5246 34.4135C51.5278 34.4214 51.5326 34.4286 51.5387 34.4347C51.5448 34.4408 51.552 34.4456 51.56 34.4489C51.568 34.4522 51.5765 34.4539 51.5851 34.4539V34.4539C51.8841 34.4589 52.1784 34.4648 52.4904 34.4727H52.4963C52.5568 34.4727 52.6156 34.4529 52.6636 34.4163C52.7115 34.3797 52.746 34.3284 52.7615 34.2704V34.2704C52.9507 33.4628 53.0993 30.3492 53.1073 30.2097C53.1134 30.1559 53.1356 30.1051 53.171 30.064C53.2065 30.0228 53.2536 29.9932 53.3062 29.9789L54.1021 29.8272C54.1611 29.8123 54.2134 29.7782 54.2508 29.7305C54.2882 29.6828 54.3085 29.6242 54.3086 29.5637C54.3077 29.5247 54.2985 29.4863 54.2816 29.4511V29.4511Z" fill="white"/>
<defs>
<clipPath id="clip0_9_4843">
<rect width="39.8438" height="16.0938" fill="white" transform="translate(216.562 135.312)"/>
</clipPath>
<clipPath id="clip1_9_4843">
<rect width="40.0391" height="16.0938" fill="white" transform="translate(216.562 135.312)"/>
</clipPath>
<clipPath id="clip2_9_4843">
<rect x="40.3125" y="126.875" width="159.688" height="32.8125" rx="3.125" fill="white"/>
</clipPath>
<clipPath id="clip3_9_4843">
<rect width="6.25" height="6.25" fill="white" transform="translate(48.125 133.438)"/>
</clipPath>
<clipPath id="clip4_9_4843">
<rect width="5.46875" height="5.46875" fill="white" transform="translate(48.5156 133.828)"/>
</clipPath>
<clipPath id="clip5_9_4843">
<rect width="6.25" height="6.25" fill="white" transform="translate(75.375 133.438)"/>
</clipPath>
<clipPath id="clip6_9_4843">
<rect width="5.46875" height="5.46875" fill="white" transform="translate(75.7656 133.828)"/>
</clipPath>
<clipPath id="clip7_9_4843">
<rect x="39.6875" y="43.125" width="240.625" height="79.375" rx="3.125" fill="white"/>
</clipPath>
<clipPath id="clip8_9_4843">
<rect width="109.375" height="109.375" fill="white" transform="translate(196.96 17.0544) rotate(21.3546)"/>
</clipPath>
<clipPath id="clip9_9_4843">
<rect width="95.7031" height="95.7031" fill="white" transform="translate(200.837 25.9104) rotate(21.3546)"/>
</clipPath>
<clipPath id="clip10_9_4843">
<rect width="10.9375" height="10.9375" fill="white" transform="translate(70.7812 24.0625)"/>
</clipPath>
<clipPath id="clip11_9_4843">
<rect width="10.6158" height="10.6641" fill="white" transform="translate(265.162 24.1992)"/>
</clipPath>
</defs>
</svg>
