<svg width="332" height="37" viewBox="0 0 332 37" fill="none" xmlns="http://www.w3.org/2000/svg">
<path d="M1.48888 12.192C1.21154 12.192 0.955542 12.1813 0.720875 12.16C0.486208 12.1493 0.304875 12.1387 0.176875 12.128V10.96C0.326208 10.9813 0.512875 11.0027 0.736875 11.024C0.960875 11.0347 1.12088 11.04 1.21688 11.04C1.51554 11.04 1.73954 10.9493 1.88888 10.768C2.03821 10.5867 2.11288 10.2613 2.11288 9.792V3.904H0.176875V2.752H8.73688V12H7.39288V3.904H3.47288V10C3.47288 10.256 3.43554 10.5173 3.36088 10.784C3.28621 11.04 3.16888 11.2747 3.00888 11.488C2.84888 11.6907 2.64088 11.8613 2.38488 12C2.13954 12.128 1.84088 12.192 1.48888 12.192ZM11.5803 2.752H12.9403V12H11.5803V2.752ZM15.1914 10.848H16.8714L15.1914 2.752H16.5994L18.2794 10.864C18.6954 10.8853 19.0527 10.8373 19.3514 10.72C19.6607 10.592 19.9167 10.336 20.1194 9.952C20.322 9.55733 20.4714 8.99733 20.5674 8.272C20.674 7.536 20.7274 6.576 20.7274 5.392V2.752H22.0874V5.472C22.0874 6.88 22.0074 8.01067 21.8474 8.864C21.6874 9.71733 21.4474 10.3787 21.1274 10.848C20.8074 11.3067 20.4127 11.616 19.9434 11.776C19.474 11.9253 18.93 12 18.3114 12H15.1914V10.848ZM23.8636 10.864H28.9356L23.7836 2.752H25.2716L28.1836 7.424C28.6743 7.232 29.069 6.88533 29.3676 6.384C29.677 5.872 29.8316 5.248 29.8316 4.512V2.752H31.1916V4.48C31.1916 4.896 31.1383 5.30667 31.0316 5.712C30.9356 6.11733 30.7916 6.49067 30.5996 6.832C30.4076 7.17333 30.1676 7.47733 29.8796 7.744C29.6023 8.01067 29.2823 8.224 28.9196 8.384L31.2716 12H23.8636V10.864ZM33.4995 5.6L33.2435 2.752H34.4435L34.5715 4.048H34.5875C34.8328 3.57867 35.1902 3.216 35.6595 2.96C36.1395 2.69333 36.7155 2.56 37.3875 2.56C37.9315 2.56 38.4168 2.656 38.8435 2.848C39.2702 3.02933 39.6275 3.28533 39.9155 3.616C40.2142 3.936 40.4382 4.32533 40.5875 4.784C40.7368 5.24267 40.8115 5.744 40.8115 6.288V12H37.0835V10.848H39.4675V6.608C39.4675 6.192 39.4195 5.808 39.3235 5.456C39.2382 5.104 39.1048 4.8 38.9235 4.544C38.7422 4.27733 38.5022 4.06933 38.2035 3.92C37.9155 3.77067 37.5742 3.696 37.1795 3.696C36.7848 3.696 36.4435 3.77067 36.1555 3.92C35.8675 4.06933 35.6275 4.27733 35.4355 4.544C35.2435 4.8 35.0995 5.104 35.0035 5.456C34.9075 5.808 34.8595 6.192 34.8595 6.608V12H33.4995V5.6ZM43.0705 10.096C43.0705 9.69067 43.1185 9.29067 43.2145 8.896C43.3105 8.50133 43.4492 8.13867 43.6305 7.808C43.8118 7.46667 44.0358 7.16267 44.3025 6.896C44.5692 6.61867 44.8732 6.4 45.2145 6.24L42.9745 2.752H44.4625L47.1825 7.024C47.7265 6.87467 48.1692 6.544 48.5105 6.032C48.8518 5.50933 49.0225 4.848 49.0225 4.048V2.752H50.3825V4.016C50.3825 4.464 50.3238 4.896 50.2065 5.312C50.0998 5.728 49.9398 6.11733 49.7265 6.48C49.5238 6.832 49.2678 7.14667 48.9585 7.424C48.6598 7.69067 48.3185 7.89333 47.9345 8.032L50.4625 12H48.9905L45.9345 7.216C45.4758 7.42933 45.1078 7.78667 44.8305 8.288C44.5532 8.77867 44.4145 9.38133 44.4145 10.096V12H43.0705V10.096ZM52.255 10.848H56.911V6.592C56.911 5.62133 56.735 4.93333 56.383 4.528C56.0417 4.112 55.4817 3.904 54.703 3.904H52.255V2.752H54.751C55.9457 2.752 56.8257 3.072 57.391 3.712C57.967 4.352 58.255 5.312 58.255 6.592V10.848H59.583V12H52.255V10.848ZM64.432 2.752H71.312V3.904H69.984V12H68.64V3.904H64.432V2.752ZM73.2209 2.752H74.5809V12H73.2209V2.752ZM76.832 10.848H78.512L76.832 2.752H78.24L79.92 10.864C80.336 10.8853 80.6933 10.8373 80.992 10.72C81.3013 10.592 81.5573 10.336 81.76 9.952C81.9627 9.55733 82.112 8.99733 82.208 8.272C82.3147 7.536 82.368 6.576 82.368 5.392V2.752H83.728V5.472C83.728 6.88 83.648 8.01067 83.488 8.864C83.328 9.71733 83.088 10.3787 82.768 10.848C82.448 11.3067 82.0533 11.616 81.584 11.776C81.1147 11.9253 80.5707 12 79.952 12H76.832V10.848ZM86.0803 2.752H87.4403V12H86.0803V2.752ZM94.8951 12.192C94.6178 12.192 94.3618 12.1813 94.1271 12.16C93.8925 12.1493 93.7111 12.1387 93.5831 12.128V10.96C93.7325 10.9813 93.9191 11.0027 94.1431 11.024C94.3671 11.0347 94.5271 11.04 94.6231 11.04C94.9218 11.04 95.1458 10.9493 95.2951 10.768C95.4445 10.5867 95.5191 10.2613 95.5191 9.792V3.904H93.5831V2.752H102.143V12H100.799V3.904H96.8791V10C96.8791 10.256 96.8418 10.5173 96.7671 10.784C96.6925 11.04 96.5751 11.2747 96.4151 11.488C96.2551 11.6907 96.0471 11.8613 95.7911 12C95.5458 12.128 95.2471 12.192 94.8951 12.192ZM104.987 2.752H106.347V12H104.987V2.752ZM113.366 12.192C112.587 12.192 111.904 12.0427 111.318 11.744C110.742 11.4453 110.256 11.056 109.862 10.576C109.478 10.096 109.184 9.552 108.982 8.944C108.79 8.336 108.694 7.71733 108.694 7.088V2.752H110.054V7.088C110.054 7.70667 110.139 8.26133 110.31 8.752C110.491 9.24267 110.731 9.664 111.03 10.016C111.328 10.3573 111.675 10.6187 112.07 10.8C112.475 10.9813 112.907 11.072 113.366 11.072C113.824 11.072 114.251 10.9813 114.646 10.8C115.051 10.6187 115.403 10.3573 115.702 10.016C116 9.664 116.235 9.24267 116.406 8.752C116.587 8.26133 116.678 7.70667 116.678 7.088V2.752H118.022V7.088C118.022 7.71733 117.92 8.336 117.718 8.944C117.526 9.552 117.232 10.096 116.838 10.576C116.454 11.056 115.968 11.4453 115.382 11.744C114.806 12.0427 114.134 12.192 113.366 12.192ZM112.694 2.752H114.022V9.152H112.694V2.752ZM119.385 2.752H126.265V3.904H124.937V12H123.593V3.904H119.385V2.752ZM128.174 2.752H132.398C133.347 2.752 134.105 3.01867 134.67 3.552C135.235 4.08533 135.518 4.86933 135.518 5.904V12H134.158V5.904C134.158 5.264 134.003 4.77333 133.694 4.432C133.395 4.08 132.958 3.904 132.382 3.904H129.534V12H128.174V2.752ZM142.609 10.304C142.908 10.304 143.143 10.4107 143.313 10.624C143.484 10.8373 143.569 11.0933 143.569 11.392C143.569 11.904 143.415 12.384 143.105 12.832C142.796 13.28 142.38 13.7067 141.857 14.112L141.361 13.584C141.575 13.3813 141.767 13.1573 141.937 12.912C142.108 12.6773 142.241 12.4053 142.337 12.096C142.124 12.0427 141.953 11.936 141.825 11.776C141.708 11.616 141.649 11.4293 141.649 11.216C141.649 10.9707 141.735 10.7573 141.905 10.576C142.076 10.3947 142.311 10.304 142.609 10.304ZM146.801 12.192C146.524 12.192 146.268 12.1813 146.033 12.16C145.799 12.1493 145.617 12.1387 145.489 12.128V10.96C145.639 10.9813 145.825 11.0027 146.049 11.024C146.273 11.0347 146.433 11.04 146.529 11.04C146.828 11.04 147.052 10.9493 147.201 10.768C147.351 10.5867 147.425 10.2613 147.425 9.792V3.904H145.489V2.752H154.049V12H152.705V3.904H148.785V10C148.785 10.256 148.748 10.5173 148.673 10.784C148.599 11.04 148.481 11.2747 148.321 11.488C148.161 11.6907 147.953 11.8613 147.697 12C147.452 12.128 147.153 12.192 146.801 12.192ZM156.893 2.752H158.253V12H156.893V2.752ZM161.096 2.752H165.32C166.269 2.752 167.027 3.01867 167.592 3.552C168.157 4.08533 168.44 4.86933 168.44 5.904V12H167.08V5.904C167.08 5.264 166.925 4.77333 166.616 4.432C166.317 4.08 165.88 3.904 165.304 3.904H162.456V12H161.096V2.752ZM170.568 10.848H173.144V5.552C173.144 4.92267 173.042 4.49067 172.84 4.256C172.637 4.02133 172.253 3.904 171.688 3.904H170.648V2.752H171.784C172.722 2.752 173.405 2.96533 173.832 3.392C174.269 3.808 174.488 4.528 174.488 5.552V12H170.568V10.848ZM182.998 5.904C182.998 5.264 182.849 4.77333 182.55 4.432C182.252 4.08 181.814 3.904 181.238 3.904H177.158V2.752H181.238C182.188 2.752 182.94 3.01867 183.494 3.552C184.06 4.08533 184.342 4.86933 184.342 5.904V12H182.998V5.904ZM177.158 6.56H178.518V12H177.158V6.56ZM191.438 10.304C191.736 10.304 191.971 10.4107 192.142 10.624C192.312 10.8373 192.398 11.0933 192.398 11.392C192.398 11.904 192.243 12.384 191.934 12.832C191.624 13.28 191.208 13.7067 190.686 14.112L190.19 13.584C190.403 13.3813 190.595 13.1573 190.766 12.912C190.936 12.6773 191.07 12.4053 191.166 12.096C190.952 12.0427 190.782 11.936 190.654 11.776C190.536 11.616 190.478 11.4293 190.478 11.216C190.478 10.9707 190.563 10.7573 190.734 10.576C190.904 10.3947 191.139 10.304 191.438 10.304ZM194.862 2.752H199.166C200.115 2.752 200.867 3.01867 201.422 3.552C201.987 4.08533 202.27 4.86933 202.27 5.904V12H194.862V2.752ZM196.222 3.888V10.848H200.926V5.904C200.926 5.264 200.771 4.768 200.462 4.416C200.163 4.064 199.726 3.888 199.15 3.888H196.222ZM204.86 2.752H206.22V8.88H204.86V2.752ZM208.395 10.848H210.075L208.395 2.752H209.803L211.483 10.864C211.899 10.8853 212.256 10.8373 212.555 10.72C212.864 10.592 213.12 10.336 213.323 9.952C213.525 9.55733 213.675 8.99733 213.771 8.272C213.877 7.536 213.931 6.576 213.931 5.392V2.752H215.291V5.472C215.291 6.88 215.211 8.01067 215.051 8.864C214.891 9.71733 214.651 10.3787 214.331 10.848C214.011 11.3067 213.616 11.616 213.147 11.776C212.677 11.9253 212.133 12 211.515 12H208.395V10.848ZM217.067 10.864H222.139L216.987 2.752H218.475L221.387 7.424C221.877 7.232 222.272 6.88533 222.571 6.384C222.88 5.872 223.035 5.248 223.035 4.512V2.752H224.395V4.48C224.395 4.896 224.341 5.30667 224.235 5.712C224.139 6.11733 223.995 6.49067 223.803 6.832C223.611 7.17333 223.371 7.47733 223.083 7.744C222.805 8.01067 222.485 8.224 222.123 8.384L224.475 12H217.067V10.864ZM226.271 10.848H230.927V6.592C230.927 5.62133 230.751 4.93333 230.399 4.528C230.057 4.112 229.497 3.904 228.719 3.904H226.271V2.752H228.767C229.961 2.752 230.841 3.072 231.407 3.712C231.983 4.352 232.271 5.312 232.271 6.592V10.848H233.599V12H226.271V10.848ZM235.484 5.6L235.228 2.752H236.428L236.556 4.048H236.572C236.817 3.57867 237.175 3.216 237.644 2.96C238.124 2.69333 238.7 2.56 239.372 2.56C239.916 2.56 240.401 2.656 240.828 2.848C241.255 3.02933 241.612 3.28533 241.9 3.616C242.199 3.936 242.423 4.32533 242.572 4.784C242.721 5.24267 242.796 5.744 242.796 6.288V12H239.068V10.848H241.452V6.608C241.452 6.192 241.404 5.808 241.308 5.456C241.223 5.104 241.089 4.8 240.908 4.544C240.727 4.27733 240.487 4.06933 240.188 3.92C239.9 3.77067 239.559 3.696 239.164 3.696C238.769 3.696 238.428 3.77067 238.14 3.92C237.852 4.06933 237.612 4.27733 237.42 4.544C237.228 4.8 237.084 5.104 236.988 5.456C236.892 5.808 236.844 6.192 236.844 6.608V12H235.484V5.6ZM249.891 10.304C250.189 10.304 250.424 10.4107 250.595 10.624C250.765 10.8373 250.851 11.0933 250.851 11.392C250.851 11.904 250.696 12.384 250.387 12.832C250.077 13.28 249.661 13.7067 249.139 14.112L248.643 13.584C248.856 13.3813 249.048 13.1573 249.219 12.912C249.389 12.6773 249.523 12.4053 249.619 12.096C249.405 12.0427 249.235 11.936 249.107 11.776C248.989 11.616 248.931 11.4293 248.931 11.216C248.931 10.9707 249.016 10.7573 249.187 10.576C249.357 10.3947 249.592 10.304 249.891 10.304ZM254.083 12.192C253.805 12.192 253.549 12.1813 253.315 12.16C253.08 12.1493 252.899 12.1387 252.771 12.128V10.96C252.92 10.9813 253.107 11.0027 253.331 11.024C253.555 11.0347 253.715 11.04 253.811 11.04C254.109 11.04 254.333 10.9493 254.483 10.768C254.632 10.5867 254.707 10.2613 254.707 9.792V3.904H252.771V2.752H261.331V12H259.987V3.904H256.067V10C256.067 10.256 256.029 10.5173 255.955 10.784C255.88 11.04 255.763 11.2747 255.603 11.488C255.443 11.6907 255.235 11.8613 254.979 12C254.733 12.128 254.435 12.192 254.083 12.192ZM264.174 2.752H265.534V12H264.174V2.752ZM268.265 5.6L268.009 2.752H269.209L269.337 4.048H269.353C269.598 3.57867 269.956 3.216 270.425 2.96C270.905 2.69333 271.481 2.56 272.153 2.56C272.697 2.56 273.182 2.656 273.609 2.848C274.036 3.02933 274.393 3.28533 274.681 3.616C274.98 3.936 275.204 4.32533 275.353 4.784C275.502 5.24267 275.577 5.744 275.577 6.288V12H271.849V10.848H274.233V6.608C274.233 6.192 274.185 5.808 274.089 5.456C274.004 5.104 273.87 4.8 273.689 4.544C273.508 4.27733 273.268 4.06933 272.969 3.92C272.681 3.77067 272.34 3.696 271.945 3.696C271.55 3.696 271.209 3.77067 270.921 3.92C270.633 4.06933 270.393 4.27733 270.201 4.544C270.009 4.8 269.865 5.104 269.769 5.456C269.673 5.808 269.625 6.192 269.625 6.608V12H268.265V5.6ZM279.02 12.192C278.743 12.192 278.487 12.1813 278.252 12.16C278.017 12.1493 277.836 12.1387 277.708 12.128V10.96C277.857 10.9813 278.044 11.0027 278.268 11.024C278.492 11.0347 278.652 11.04 278.748 11.04C279.047 11.04 279.271 10.9493 279.42 10.768C279.569 10.5867 279.644 10.2613 279.644 9.792V3.904H277.708V2.752H286.268V12H284.924V3.904H281.004V10C281.004 10.256 280.967 10.5173 280.892 10.784C280.817 11.04 280.7 11.2747 280.54 11.488C280.38 11.6907 280.172 11.8613 279.916 12C279.671 12.128 279.372 12.192 279.02 12.192ZM289.112 2.752H290.472V12H289.112V2.752ZM293.315 2.752H297.539C298.488 2.752 299.245 3.01867 299.811 3.552C300.376 4.08533 300.659 4.86933 300.659 5.904V12H299.299V5.904C299.299 5.264 299.144 4.77333 298.835 4.432C298.536 4.08 298.099 3.904 297.523 3.904H294.675V12H293.315V2.752ZM311.334 3.904H306.182V0.719999H307.526V2.752H312.822V3.84L309.734 12H308.246L311.334 3.904ZM314.443 10.848H319.099V6.592C319.099 5.62133 318.923 4.93333 318.571 4.528C318.229 4.112 317.669 3.904 316.891 3.904H314.443V2.752H316.939C318.133 2.752 319.013 3.072 319.579 3.712C320.155 4.352 320.443 5.312 320.443 6.592V10.848H321.771V12H314.443V10.848ZM329.784 3.904H323.768V2.752H331.272V3.84L328.632 12H327.144L329.784 3.904ZM323.768 6.544H325.128V14.96H323.768V6.544ZM98.8146 26.752H100.175V36H98.8146V26.752ZM102.474 34.848H105.05V29.552C105.05 28.9227 104.948 28.4907 104.746 28.256C104.543 28.0213 104.159 27.904 103.594 27.904H102.554V26.752H103.69C104.628 26.752 105.311 26.9653 105.738 27.392C106.175 27.808 106.394 28.528 106.394 29.552V36H102.474V34.848ZM113.225 27.904H108.073V24.72H109.417V26.752H114.713V27.84L111.625 36H110.137L113.225 27.904ZM121.053 36.192C120.274 36.192 119.592 36.0427 119.005 35.744C118.429 35.4453 117.944 35.056 117.549 34.576C117.165 34.096 116.872 33.552 116.669 32.944C116.477 32.336 116.381 31.7173 116.381 31.088V26.752H117.741V31.088C117.741 31.7067 117.826 32.2613 117.997 32.752C118.178 33.2427 118.418 33.664 118.717 34.016C119.016 34.3573 119.362 34.6187 119.757 34.8C120.162 34.9813 120.594 35.072 121.053 35.072C121.512 35.072 121.938 34.9813 122.333 34.8C122.738 34.6187 123.09 34.3573 123.389 34.016C123.688 33.664 123.922 33.2427 124.093 32.752C124.274 32.2613 124.365 31.7067 124.365 31.088V26.752H125.709V31.088C125.709 31.7173 125.608 32.336 125.405 32.944C125.213 33.552 124.92 34.096 124.525 34.576C124.141 35.056 123.656 35.4453 123.069 35.744C122.493 36.0427 121.821 36.192 121.053 36.192ZM120.381 26.752H121.709V33.152H120.381V26.752ZM131.908 26.752H136.212C137.162 26.752 137.914 27.0187 138.468 27.552C139.034 28.0853 139.316 28.8693 139.316 29.904V36H131.908V26.752ZM133.268 27.888V34.848H137.972V29.904C137.972 29.264 137.818 28.768 137.508 28.416C137.21 28.064 136.772 27.888 136.196 27.888H133.268ZM141.907 26.752H143.267V32.88H141.907V26.752ZM145.953 26.752H147.313V32.88H145.953V26.752ZM150.848 36.192C150.571 36.192 150.315 36.1813 150.08 36.16C149.846 36.1493 149.664 36.1387 149.536 36.128V34.96C149.686 34.9813 149.872 35.0027 150.096 35.024C150.32 35.0347 150.48 35.04 150.576 35.04C150.875 35.04 151.099 34.9493 151.248 34.768C151.398 34.5867 151.472 34.2613 151.472 33.792V27.904H149.536V26.752H158.096V36H156.752V27.904H152.832V34C152.832 34.256 152.795 34.5173 152.72 34.784C152.646 35.04 152.528 35.2747 152.368 35.488C152.208 35.6907 152 35.8613 151.744 36C151.499 36.128 151.2 36.192 150.848 36.192ZM164.764 30.592C164.764 29.6213 164.593 28.9333 164.252 28.528C163.91 28.112 163.35 27.904 162.572 27.904H159.948V26.752H162.604C163.798 26.752 164.678 27.072 165.244 27.712C165.82 28.352 166.108 29.312 166.108 30.592V36H164.764V30.592ZM168.239 34.848H172.895V30.592C172.895 29.6213 172.719 28.9333 172.367 28.528C172.026 28.112 171.466 27.904 170.687 27.904H168.239V26.752H170.735C171.93 26.752 172.81 27.072 173.375 27.712C173.951 28.352 174.239 29.312 174.239 30.592V34.848H175.567V36H168.239V34.848ZM177.565 26.752H181.789C182.738 26.752 183.495 27.0187 184.061 27.552C184.626 28.0853 184.909 28.8693 184.909 29.904V36H183.549V29.904C183.549 29.264 183.394 28.7733 183.085 28.432C182.786 28.08 182.349 27.904 181.773 27.904H178.925V36H177.565V26.752ZM193.42 29.904C193.42 29.264 193.271 28.7733 192.972 28.432C192.674 28.08 192.236 27.904 191.66 27.904H187.58V26.752H191.66C192.61 26.752 193.362 27.0187 193.916 27.552C194.482 28.0853 194.764 28.8693 194.764 29.904V36H193.42V29.904ZM187.58 30.56H188.94V36H187.58V30.56ZM201.283 26.752H205.587C206.537 26.752 207.289 27.0187 207.843 27.552C208.409 28.0853 208.691 28.8693 208.691 29.904V36H201.283V26.752ZM202.643 27.888V34.848H207.347V29.904C207.347 29.264 207.193 28.768 206.883 28.416C206.585 28.064 206.147 27.888 205.571 27.888H202.643ZM211.282 26.752H212.642V32.88H211.282V26.752ZM214.832 34.864H219.904L214.752 26.752H216.24L219.152 31.424C219.643 31.232 220.038 30.8853 220.336 30.384C220.646 29.872 220.8 29.248 220.8 28.512V26.752H222.16V28.48C222.16 28.896 222.107 29.3067 222 29.712C221.904 30.1173 221.76 30.4907 221.568 30.832C221.376 31.1733 221.136 31.4773 220.848 31.744C220.571 32.0107 220.251 32.224 219.888 32.384L222.24 36H214.832V34.864ZM224.58 26.752H225.94V36H224.58V26.752ZM232.607 30.592C232.607 29.6213 232.437 28.9333 232.095 28.528C231.754 28.112 231.194 27.904 230.415 27.904H227.791V26.752H230.447C231.642 26.752 232.522 27.072 233.087 27.712C233.663 28.352 233.951 29.312 233.951 30.592V36H232.607V30.592ZM236.035 34.848H237.715L236.035 26.752H237.443L239.123 34.864C239.539 34.8853 239.896 34.8373 240.195 34.72C240.504 34.592 240.76 34.336 240.963 33.952C241.166 33.5573 241.315 32.9973 241.411 32.272C241.518 31.536 241.571 30.576 241.571 29.392V26.752H242.931V29.472C242.931 30.88 242.851 32.0107 242.691 32.864C242.531 33.7173 242.291 34.3787 241.971 34.848C241.651 35.3067 241.256 35.616 240.787 35.776C240.318 35.9253 239.774 36 239.155 36H236.035V34.848ZM251.123 29.904C251.123 29.264 250.974 28.7733 250.675 28.432C250.377 28.08 249.939 27.904 249.363 27.904H245.283V26.752H249.363C250.313 26.752 251.065 27.0187 251.619 27.552C252.185 28.0853 252.467 28.8693 252.467 29.904V36H251.123V29.904ZM245.283 30.56H246.643V36H245.283V30.56ZM255.143 26.752H256.503V36H255.143V26.752ZM263.19 26.752H267.494C268.443 26.752 269.195 27.0187 269.75 27.552C270.315 28.0853 270.598 28.8693 270.598 29.904V36H263.19V26.752ZM264.55 27.888V34.848H269.254V29.904C269.254 29.264 269.099 28.768 268.79 28.416C268.491 28.064 268.054 27.888 267.478 27.888H264.55ZM273.188 26.752H274.548V32.88H273.188V26.752ZM281.139 30.592C281.139 29.6213 280.968 28.9333 280.627 28.528C280.285 28.112 279.725 27.904 278.947 27.904H276.323V26.752H278.979C280.173 26.752 281.053 27.072 281.619 27.712C282.195 28.352 282.483 29.312 282.483 30.592V36H281.139V30.592ZM288.87 36.176C288.113 36.176 287.468 36.032 286.934 35.744C286.401 35.4453 285.964 35.0667 285.622 34.608C285.292 34.1387 285.046 33.6213 284.886 33.056C284.737 32.48 284.662 31.9147 284.662 31.36V26.752H286.022V31.36C286.022 31.8827 286.086 32.368 286.214 32.816C286.342 33.264 286.529 33.6533 286.774 33.984C287.02 34.304 287.318 34.5547 287.67 34.736C288.022 34.9173 288.428 35.008 288.886 35.008C289.75 35.008 290.422 34.6667 290.902 33.984C291.393 33.3013 291.638 32.2507 291.638 30.832C291.638 30.192 291.585 29.6693 291.478 29.264C291.372 28.8587 291.228 28.544 291.046 28.32C290.865 28.0853 290.652 27.9307 290.406 27.856C290.161 27.7707 289.894 27.728 289.606 27.728C289.393 27.728 289.185 27.7493 288.982 27.792C288.78 27.824 288.593 27.8827 288.422 27.968V26.752C288.753 26.624 289.153 26.56 289.622 26.56C290.102 26.56 290.545 26.6347 290.95 26.784C291.366 26.9333 291.724 27.1787 292.022 27.52C292.332 27.8507 292.572 28.2933 292.742 28.848C292.924 29.392 293.014 30.064 293.014 30.864C293.014 31.6533 292.929 32.3733 292.758 33.024C292.598 33.6747 292.342 34.2347 291.99 34.704C291.649 35.1627 291.217 35.5253 290.694 35.792C290.182 36.048 289.574 36.176 288.87 36.176ZM299.35 27.904H294.198V24.72H295.542V26.752H300.838V27.84L297.75 36H296.262L299.35 27.904ZM303.658 32C303.626 31.68 303.61 31.392 303.61 31.136C303.61 30.688 303.637 30.2987 303.69 29.968C303.754 29.6373 303.829 29.3493 303.914 29.104C304.01 28.8587 304.111 28.64 304.218 28.448C304.335 28.256 304.453 28.0747 304.57 27.904H302.41V26.752H307.162V27.904H305.914C305.786 28.096 305.663 28.2933 305.546 28.496C305.439 28.6987 305.338 28.9227 305.242 29.168C305.157 29.4027 305.087 29.68 305.034 30C304.991 30.3093 304.97 30.672 304.97 31.088C304.97 31.2267 304.97 31.3707 304.97 31.52C304.981 31.6587 304.991 31.8187 305.002 32L305.354 36H303.994L303.658 32ZM309.268 26.752H310.628V36H309.268V26.752ZM313.391 26.752H314.751V32.88H313.391V26.752ZM316.974 34.848H319.55V29.552C319.55 28.9227 319.448 28.4907 319.246 28.256C319.043 28.0213 318.659 27.904 318.094 27.904H317.054V26.752H318.19C319.128 26.752 319.811 26.9653 320.238 27.392C320.675 27.808 320.894 28.528 320.894 29.552V36H316.974V34.848ZM329.405 29.904C329.405 29.264 329.255 28.7733 328.957 28.432C328.658 28.08 328.221 27.904 327.645 27.904H323.565V26.752H327.645C328.594 26.752 329.346 27.0187 329.901 27.552C330.466 28.0853 330.749 28.8693 330.749 29.904V36H329.405V29.904ZM323.565 30.56H324.925V36H323.565V30.56Z" fill="white"/>
<path d="M251.891 14.192H332.008V14.992H251.891V14.192Z" fill="white"/>
</svg>
