<svg width="360" height="114" viewBox="0 0 360 114" fill="none" xmlns="http://www.w3.org/2000/svg">
<rect y="0.5" width="360" height="113" rx="16" fill="white"/>
<path d="M17.168 24.1H21.12C21.9627 24.1 22.6933 24.2333 23.312 24.5C23.9307 24.7667 24.4427 25.1347 24.848 25.604C25.2533 26.0733 25.552 26.6227 25.744 27.252C25.9467 27.8813 26.048 28.564 26.048 29.3C26.048 30.0253 25.9467 30.7027 25.744 31.332C25.5413 31.9613 25.2373 32.5107 24.832 32.98C24.4267 33.4493 23.9147 33.8227 23.296 34.1C22.6773 34.3667 21.952 34.5 21.12 34.5H17.168V24.1ZM21.088 32.772C21.952 32.772 22.6293 32.468 23.12 31.86C23.6107 31.2413 23.856 30.3933 23.856 29.316C23.856 28.2067 23.6107 27.348 23.12 26.74C22.6293 26.132 21.952 25.828 21.088 25.828H19.312V32.772H21.088ZM31.2144 34.692C30.553 34.692 29.977 34.5853 29.4864 34.372C28.9957 34.1587 28.5797 33.8653 28.2384 33.492C27.9077 33.108 27.657 32.6653 27.4864 32.164C27.3264 31.6627 27.2464 31.124 27.2464 30.548C27.2464 29.9613 27.3264 29.4173 27.4864 28.916C27.6464 28.404 27.8864 27.9667 28.2064 27.604C28.5264 27.2307 28.9264 26.9373 29.4064 26.724C29.8864 26.5107 30.4464 26.404 31.0864 26.404C31.7264 26.404 32.2864 26.5053 32.7664 26.708C33.2464 26.9107 33.641 27.1933 33.9504 27.556C34.2597 27.9187 34.489 28.3507 34.6384 28.852C34.7984 29.3427 34.8784 29.8813 34.8784 30.468C34.8784 30.5747 34.8677 30.6973 34.8464 30.836C34.8357 30.9747 34.8197 31.0867 34.7984 31.172H29.2944C29.3264 31.46 29.401 31.7213 29.5184 31.956C29.6464 32.18 29.801 32.372 29.9824 32.532C30.1744 32.692 30.3824 32.8147 30.6064 32.9C30.841 32.9747 31.081 33.012 31.3264 33.012C31.785 33.012 32.169 32.932 32.4784 32.772C32.7877 32.612 33.0384 32.4093 33.2304 32.164L34.3664 33.348C34.0677 33.7533 33.6517 34.0787 33.1184 34.324C32.585 34.5693 31.9504 34.692 31.2144 34.692ZM31.0864 27.94C30.5744 27.94 30.1584 28.1053 29.8384 28.436C29.5184 28.7667 29.3317 29.204 29.2784 29.748H32.8624C32.809 29.204 32.6224 28.7667 32.3024 28.436C31.993 28.1053 31.5877 27.94 31.0864 27.94ZM36.4466 22.9H38.4626V34.5H36.4466V22.9ZM42.7953 24.404C42.7953 24.7027 42.6886 24.9693 42.4753 25.204C42.2726 25.4387 41.9846 25.556 41.6113 25.556C41.2273 25.556 40.9339 25.4387 40.7313 25.204C40.5286 24.9693 40.4273 24.7027 40.4273 24.404C40.4273 24.0947 40.5286 23.828 40.7313 23.604C40.9339 23.3693 41.2273 23.252 41.6113 23.252C41.9846 23.252 42.2726 23.3693 42.4753 23.604C42.6886 23.828 42.7953 24.0947 42.7953 24.404ZM40.5872 26.596H42.6033V34.5H40.5872V26.596ZM43.8799 26.596H46.0879L47.9119 32.388H48.0079L49.8479 26.596H51.9119L48.9679 34.5H46.8079L43.8799 26.596ZM56.4175 34.692C55.7562 34.692 55.1802 34.5853 54.6895 34.372C54.1988 34.1587 53.7828 33.8653 53.4415 33.492C53.1108 33.108 52.8602 32.6653 52.6895 32.164C52.5295 31.6627 52.4495 31.124 52.4495 30.548C52.4495 29.9613 52.5295 29.4173 52.6895 28.916C52.8495 28.404 53.0895 27.9667 53.4095 27.604C53.7295 27.2307 54.1295 26.9373 54.6095 26.724C55.0895 26.5107 55.6495 26.404 56.2895 26.404C56.9295 26.404 57.4895 26.5053 57.9695 26.708C58.4495 26.9107 58.8442 27.1933 59.1535 27.556C59.4628 27.9187 59.6922 28.3507 59.8415 28.852C60.0015 29.3427 60.0815 29.8813 60.0815 30.468C60.0815 30.5747 60.0708 30.6973 60.0495 30.836C60.0388 30.9747 60.0228 31.0867 60.0015 31.172H54.4975C54.5295 31.46 54.6042 31.7213 54.7215 31.956C54.8495 32.18 55.0042 32.372 55.1855 32.532C55.3775 32.692 55.5855 32.8147 55.8095 32.9C56.0442 32.9747 56.2842 33.012 56.5295 33.012C56.9882 33.012 57.3722 32.932 57.6815 32.772C57.9908 32.612 58.2415 32.4093 58.4335 32.164L59.5695 33.348C59.2708 33.7533 58.8548 34.0787 58.3215 34.324C57.7882 34.5693 57.1535 34.692 56.4175 34.692ZM56.2895 27.94C55.7775 27.94 55.3615 28.1053 55.0415 28.436C54.7215 28.7667 54.5348 29.204 54.4815 29.748H58.0655C58.0122 29.204 57.8255 28.7667 57.5055 28.436C57.1962 28.1053 56.7908 27.94 56.2895 27.94ZM61.6497 26.596H63.5538V27.924H63.6498C63.8098 27.4653 64.0551 27.0973 64.3858 26.82C64.7271 26.5427 65.1538 26.404 65.6658 26.404C66.0604 26.404 66.4284 26.468 66.7698 26.596L66.2098 28.436C66.0924 28.3613 65.9538 28.308 65.7938 28.276C65.6338 28.244 65.4791 28.228 65.3298 28.228C64.8391 28.228 64.4391 28.3987 64.1298 28.74C63.8204 29.0707 63.6658 29.54 63.6658 30.148V34.5H61.6497V26.596ZM70.1546 24.404C70.1546 24.7027 70.048 24.9693 69.8346 25.204C69.632 25.4387 69.344 25.556 68.9706 25.556C68.5866 25.556 68.2933 25.4387 68.0906 25.204C67.888 24.9693 67.7866 24.7027 67.7866 24.404C67.7866 24.0947 67.888 23.828 68.0906 23.604C68.2933 23.3693 68.5866 23.252 68.9706 23.252C69.344 23.252 69.632 23.3693 69.8346 23.604C70.048 23.828 70.1546 24.0947 70.1546 24.404ZM67.9466 26.596H69.9626V34.5H67.9466V26.596ZM72.0872 26.596H73.9913V27.876H74.0873C74.2686 27.4493 74.5513 27.0973 74.9353 26.82C75.3299 26.5427 75.7993 26.404 76.3433 26.404C77.3459 26.404 78.0659 26.6707 78.5033 27.204C78.9513 27.7267 79.1753 28.5213 79.1753 29.588V34.5H77.1593V29.988C77.1593 29.348 77.0419 28.8733 76.8073 28.564C76.5833 28.2547 76.1993 28.1 75.6553 28.1C75.1433 28.1 74.7539 28.2707 74.4873 28.612C74.2313 28.9427 74.1033 29.428 74.1033 30.068V34.5H72.0872V26.596ZM84.4606 37.652C83.7673 37.652 83.154 37.5293 82.6206 37.284C82.098 37.0493 81.698 36.7613 81.4206 36.42L82.6366 35.188C82.818 35.412 83.0686 35.5933 83.3886 35.732C83.7193 35.8707 84.0713 35.94 84.4446 35.94C84.7006 35.94 84.946 35.908 85.1806 35.844C85.4153 35.7907 85.618 35.6947 85.7886 35.556C85.9593 35.428 86.0926 35.252 86.1886 35.028C86.2953 34.804 86.3486 34.5213 86.3486 34.18V32.676H86.2686C86.098 33.1453 85.8046 33.524 85.3886 33.812C84.9833 34.0893 84.4926 34.228 83.9166 34.228C83.4366 34.228 82.994 34.1373 82.5886 33.956C82.194 33.764 81.8526 33.4973 81.5646 33.156C81.2873 32.804 81.0686 32.388 80.9086 31.908C80.7593 31.4173 80.6846 30.868 80.6846 30.26C80.6846 29.6733 80.7593 29.1453 80.9086 28.676C81.0686 28.2067 81.2926 27.8067 81.5806 27.476C81.8686 27.1347 82.21 26.8733 82.6046 26.692C83.01 26.5107 83.4526 26.42 83.9326 26.42C84.53 26.42 85.0366 26.5587 85.4526 26.836C85.8793 27.1133 86.1833 27.4973 86.3646 27.988H86.4606V26.596H88.3646V34.276C88.3646 35.3427 88.018 36.1693 87.3246 36.756C86.6313 37.3533 85.6766 37.652 84.4606 37.652ZM84.5406 32.548C85.1273 32.548 85.5753 32.34 85.8846 31.924C86.194 31.4973 86.3486 30.9587 86.3486 30.308C86.3486 29.636 86.194 29.0973 85.8846 28.692C85.5753 28.276 85.1273 28.068 84.5406 28.068C83.9646 28.068 83.5166 28.276 83.1966 28.692C82.8873 29.0973 82.7326 29.636 82.7326 30.308C82.7326 30.9587 82.8873 31.4973 83.1966 31.924C83.5166 32.34 83.9646 32.548 84.5406 32.548ZM94.3216 26.596H96.2256V27.876H96.3216C96.503 27.4493 96.7856 27.0973 97.1696 26.82C97.5643 26.5427 98.0336 26.404 98.5776 26.404C99.5803 26.404 100.3 26.6707 100.738 27.204C101.186 27.7267 101.41 28.5213 101.41 29.588V34.5H99.3936V29.988C99.3936 29.348 99.2763 28.8733 99.0416 28.564C98.8176 28.2547 98.4336 28.1 97.8896 28.1C97.3776 28.1 96.9883 28.2707 96.7216 28.612C96.4656 28.9427 96.3376 29.428 96.3376 30.068V34.5H94.3216V26.596ZM106.871 34.692C106.21 34.692 105.628 34.5853 105.127 34.372C104.636 34.148 104.22 33.8493 103.879 33.476C103.548 33.1027 103.298 32.6653 103.127 32.164C102.967 31.652 102.887 31.1133 102.887 30.548C102.887 29.9827 102.967 29.4493 103.127 28.948C103.298 28.4467 103.548 28.0093 103.879 27.636C104.22 27.252 104.636 26.9533 105.127 26.74C105.628 26.516 106.21 26.404 106.871 26.404C107.532 26.404 108.108 26.516 108.599 26.74C109.1 26.9533 109.511 27.252 109.831 27.636C110.162 28.0093 110.407 28.4467 110.567 28.948C110.738 29.4493 110.823 29.9827 110.823 30.548C110.823 31.1133 110.738 31.652 110.567 32.164C110.407 32.6653 110.162 33.1027 109.831 33.476C109.511 33.8493 109.1 34.148 108.599 34.372C108.108 34.5853 107.532 34.692 106.871 34.692ZM104.951 30.548C104.951 31.3267 105.116 31.94 105.447 32.388C105.788 32.836 106.263 33.06 106.871 33.06C107.468 33.06 107.932 32.836 108.263 32.388C108.604 31.94 108.775 31.3267 108.775 30.548C108.775 29.7693 108.604 29.156 108.263 28.708C107.932 28.26 107.468 28.036 106.871 28.036C106.263 28.036 105.788 28.26 105.447 28.708C105.116 29.156 104.951 29.7693 104.951 30.548ZM111.429 26.596H113.653L115.205 32.276H115.301L116.821 26.596H119.077L120.581 32.276H120.677L122.229 26.596H124.325L121.621 34.5H119.493L117.909 28.66H117.813L116.245 34.5H114.133L111.429 26.596Z" fill="black"/>
<path d="M241.49 32.142H242.512V25.758H241.49V24.4H245.396V25.758H244.374V32.142H245.396V33.5H241.49V32.142ZM249.496 26.584H251.442L252.8 31.554H252.884L254.214 26.584H256.188L257.504 31.554H257.588L258.946 26.584H260.78L258.414 33.5H256.552L255.166 28.39H255.082L253.71 33.5H251.862L249.496 26.584ZM263.484 33.668C263.176 33.668 262.882 33.6167 262.602 33.514C262.331 33.4207 262.093 33.2853 261.888 33.108C261.683 32.9213 261.519 32.6973 261.398 32.436C261.286 32.1747 261.23 31.8807 261.23 31.554C261.23 30.938 261.449 30.448 261.888 30.084C262.327 29.72 262.994 29.5147 263.89 29.468L265.514 29.37V29.09C265.514 28.642 265.379 28.334 265.108 28.166C264.837 27.998 264.501 27.914 264.1 27.914C263.783 27.914 263.484 27.9747 263.204 28.096C262.924 28.208 262.714 28.348 262.574 28.516L261.58 27.508C261.823 27.1907 262.173 26.9293 262.63 26.724C263.097 26.5187 263.666 26.416 264.338 26.416C265.327 26.416 266.065 26.6447 266.55 27.102C267.035 27.5593 267.278 28.18 267.278 28.964V33.5H265.612V32.394H265.528C265.351 32.786 265.094 33.0987 264.758 33.332C264.422 33.556 263.997 33.668 263.484 33.668ZM264.002 32.394C264.45 32.394 264.814 32.268 265.094 32.016C265.374 31.7547 265.514 31.3907 265.514 30.924V30.462L264.1 30.574C263.372 30.6207 263.008 30.9287 263.008 31.498C263.008 31.7873 263.101 32.0113 263.288 32.17C263.475 32.3193 263.713 32.394 264.002 32.394ZM269.008 26.584H270.674V27.704H270.758C270.917 27.3307 271.164 27.0227 271.5 26.78C271.845 26.5373 272.256 26.416 272.732 26.416C273.609 26.416 274.239 26.6493 274.622 27.116C275.014 27.5733 275.21 28.2687 275.21 29.202V33.5H273.446V29.552C273.446 28.992 273.343 28.5767 273.138 28.306C272.942 28.0353 272.606 27.9 272.13 27.9C271.682 27.9 271.341 28.0493 271.108 28.348C270.884 28.6373 270.772 29.062 270.772 29.622V33.5H269.008V26.584ZM279.639 33.654C278.873 33.654 278.313 33.4487 277.959 33.038C277.613 32.6273 277.441 32.0067 277.441 31.176V27.998H276.349V26.584H277.441V24.708H279.191V26.584H281.207V27.998H279.191V31.162C279.191 31.526 279.256 31.7873 279.387 31.946C279.517 32.0953 279.713 32.17 279.975 32.17C280.161 32.17 280.329 32.1373 280.479 32.072C280.628 31.9973 280.759 31.9087 280.871 31.806L281.501 33.01C281.267 33.234 281.001 33.3973 280.703 33.5C280.404 33.6027 280.049 33.654 279.639 33.654ZM288.717 33.654C287.951 33.654 287.391 33.4487 287.037 33.038C286.691 32.6273 286.519 32.0067 286.519 31.176V27.998H285.427V26.584H286.519V24.708H288.269V26.584H290.285V27.998H288.269V31.162C288.269 31.526 288.334 31.7873 288.465 31.946C288.595 32.0953 288.791 32.17 289.053 32.17C289.239 32.17 289.407 32.1373 289.557 32.072C289.706 31.9973 289.837 31.9087 289.949 31.806L290.579 33.01C290.345 33.234 290.079 33.3973 289.781 33.5C289.482 33.6027 289.127 33.654 288.717 33.654ZM294.741 33.668C294.162 33.668 293.653 33.5747 293.215 33.388C292.785 33.192 292.421 32.9307 292.123 32.604C291.833 32.2773 291.614 31.8947 291.465 31.456C291.325 31.008 291.255 30.5367 291.255 30.042C291.255 29.5473 291.325 29.0807 291.465 28.642C291.614 28.2033 291.833 27.8207 292.123 27.494C292.421 27.158 292.785 26.8967 293.215 26.71C293.653 26.514 294.162 26.416 294.741 26.416C295.319 26.416 295.823 26.514 296.253 26.71C296.691 26.8967 297.051 27.158 297.331 27.494C297.62 27.8207 297.835 28.2033 297.975 28.642C298.124 29.0807 298.199 29.5473 298.199 30.042C298.199 30.5367 298.124 31.008 297.975 31.456C297.835 31.8947 297.62 32.2773 297.331 32.604C297.051 32.9307 296.691 33.192 296.253 33.388C295.823 33.5747 295.319 33.668 294.741 33.668ZM293.061 30.042C293.061 30.7233 293.205 31.26 293.495 31.652C293.793 32.044 294.209 32.24 294.741 32.24C295.263 32.24 295.669 32.044 295.959 31.652C296.257 31.26 296.407 30.7233 296.407 30.042C296.407 29.3607 296.257 28.824 295.959 28.432C295.669 28.04 295.263 27.844 294.741 27.844C294.209 27.844 293.793 28.04 293.495 28.432C293.205 28.824 293.061 29.3607 293.061 30.042ZM305.84 33.668C305.252 33.668 304.743 33.57 304.314 33.374C303.894 33.1687 303.549 32.898 303.278 32.562C303.007 32.226 302.807 31.8433 302.676 31.414C302.545 30.9753 302.48 30.518 302.48 30.042C302.48 29.566 302.541 29.1133 302.662 28.684C302.793 28.2453 302.989 27.858 303.25 27.522C303.521 27.186 303.866 26.92 304.286 26.724C304.706 26.5187 305.205 26.416 305.784 26.416C306.363 26.416 306.853 26.5187 307.254 26.724C307.665 26.9293 308.001 27.1907 308.262 27.508L307.086 28.572C306.927 28.376 306.75 28.2267 306.554 28.124C306.358 28.012 306.111 27.956 305.812 27.956C305.327 27.956 304.949 28.1427 304.678 28.516C304.407 28.88 304.272 29.3887 304.272 30.042C304.272 30.6953 304.412 31.2087 304.692 31.582C304.972 31.946 305.355 32.128 305.84 32.128C306.129 32.128 306.381 32.072 306.596 31.96C306.811 31.848 306.997 31.6893 307.156 31.484L308.318 32.562C308.057 32.8793 307.716 33.1453 307.296 33.36C306.885 33.5653 306.4 33.668 305.84 33.668ZM312.336 33.668C311.758 33.668 311.249 33.5747 310.81 33.388C310.381 33.192 310.017 32.9307 309.718 32.604C309.429 32.2773 309.21 31.8947 309.06 31.456C308.92 31.008 308.85 30.5367 308.85 30.042C308.85 29.5473 308.92 29.0807 309.06 28.642C309.21 28.2033 309.429 27.8207 309.718 27.494C310.017 27.158 310.381 26.8967 310.81 26.71C311.249 26.514 311.758 26.416 312.336 26.416C312.915 26.416 313.419 26.514 313.848 26.71C314.287 26.8967 314.646 27.158 314.926 27.494C315.216 27.8207 315.43 28.2033 315.57 28.642C315.72 29.0807 315.794 29.5473 315.794 30.042C315.794 30.5367 315.72 31.008 315.57 31.456C315.43 31.8947 315.216 32.2773 314.926 32.604C314.646 32.9307 314.287 33.192 313.848 33.388C313.419 33.5747 312.915 33.668 312.336 33.668ZM310.656 30.042C310.656 30.7233 310.801 31.26 311.09 31.652C311.389 32.044 311.804 32.24 312.336 32.24C312.859 32.24 313.265 32.044 313.554 31.652C313.853 31.26 314.002 30.7233 314.002 30.042C314.002 29.3607 313.853 28.824 313.554 28.432C313.265 28.04 312.859 27.844 312.336 27.844C311.804 27.844 311.389 28.04 311.09 28.432C310.801 28.824 310.656 29.3607 310.656 30.042ZM317.16 23.35H318.924V33.5H317.16V23.35ZM320.783 23.35H322.547V33.5H320.783V23.35ZM327.402 33.668C326.824 33.668 326.32 33.5747 325.89 33.388C325.461 33.2013 325.097 32.9447 324.798 32.618C324.509 32.282 324.29 31.8947 324.14 31.456C324 31.0173 323.93 30.546 323.93 30.042C323.93 29.5287 324 29.0527 324.14 28.614C324.28 28.166 324.49 27.7833 324.77 27.466C325.05 27.1393 325.4 26.8827 325.82 26.696C326.24 26.5093 326.73 26.416 327.29 26.416C327.85 26.416 328.34 26.5047 328.76 26.682C329.18 26.8593 329.526 27.1067 329.796 27.424C330.067 27.7413 330.268 28.1193 330.398 28.558C330.538 28.9873 330.608 29.4587 330.608 29.972C330.608 30.0653 330.599 30.1727 330.58 30.294C330.571 30.4153 330.557 30.5133 330.538 30.588H325.722C325.75 30.84 325.816 31.0687 325.918 31.274C326.03 31.47 326.166 31.638 326.324 31.778C326.492 31.918 326.674 32.0253 326.87 32.1C327.076 32.1653 327.286 32.198 327.5 32.198C327.902 32.198 328.238 32.128 328.508 31.988C328.779 31.848 328.998 31.6707 329.166 31.456L330.16 32.492C329.899 32.8467 329.535 33.1313 329.068 33.346C328.602 33.5607 328.046 33.668 327.402 33.668ZM327.29 27.76C326.842 27.76 326.478 27.9047 326.198 28.194C325.918 28.4833 325.755 28.866 325.708 29.342H328.844C328.798 28.866 328.634 28.4833 328.354 28.194C328.084 27.9047 327.729 27.76 327.29 27.76ZM334.893 33.668C334.305 33.668 333.796 33.57 333.367 33.374C332.947 33.1687 332.601 32.898 332.331 32.562C332.06 32.226 331.859 31.8433 331.729 31.414C331.598 30.9753 331.533 30.518 331.533 30.042C331.533 29.566 331.593 29.1133 331.715 28.684C331.845 28.2453 332.041 27.858 332.303 27.522C332.573 27.186 332.919 26.92 333.339 26.724C333.759 26.5187 334.258 26.416 334.837 26.416C335.415 26.416 335.905 26.5187 336.307 26.724C336.717 26.9293 337.053 27.1907 337.315 27.508L336.139 28.572C335.98 28.376 335.803 28.2267 335.607 28.124C335.411 28.012 335.163 27.956 334.865 27.956C334.379 27.956 334.001 28.1427 333.731 28.516C333.46 28.88 333.325 29.3887 333.325 30.042C333.325 30.6953 333.465 31.2087 333.745 31.582C334.025 31.946 334.407 32.128 334.893 32.128C335.182 32.128 335.434 32.072 335.649 31.96C335.863 31.848 336.05 31.6893 336.209 31.484L337.371 32.562C337.109 32.8793 336.769 33.1453 336.349 33.36C335.938 33.5653 335.453 33.668 334.893 33.668ZM341.244 33.654C340.479 33.654 339.919 33.4487 339.564 33.038C339.219 32.6273 339.046 32.0067 339.046 31.176V27.998H337.954V26.584H339.046V24.708H340.796V26.584H342.812V27.998H340.796V31.162C340.796 31.526 340.861 31.7873 340.992 31.946C341.123 32.0953 341.319 32.17 341.58 32.17C341.767 32.17 341.935 32.1373 342.084 32.072C342.233 31.9973 342.364 31.9087 342.476 31.806L343.106 33.01C342.873 33.234 342.607 33.3973 342.308 33.5C342.009 33.6027 341.655 33.654 341.244 33.654Z" fill="#242E30"/>
<path d="M241 35.418H343.372V36.272H241V35.418Z" fill="#242E30"/>
<rect width="328" height="1" transform="translate(16 56.5)" fill="black" fill-opacity="0.08"/>
<path d="M17.472 81.1H22.736V82.252H18.832V85.916H22.592V87.068H18.832V91.5H17.472V81.1ZM24.8913 83.596H26.1073V84.876H26.2033C26.3739 84.46 26.6193 84.1133 26.9393 83.836C27.2593 83.548 27.6593 83.404 28.1393 83.404C28.5446 83.404 28.9019 83.484 29.2113 83.644L28.7793 84.796C28.6406 84.7213 28.4913 84.6733 28.3313 84.652C28.1819 84.62 28.0273 84.604 27.8673 84.604C27.3446 84.604 26.9286 84.8173 26.6193 85.244C26.3206 85.66 26.1713 86.1933 26.1713 86.844V91.5H24.8913V83.596ZM33.5574 91.692C32.992 91.692 32.4747 91.596 32.0054 91.404C31.5467 91.212 31.152 90.94 30.8214 90.588C30.5014 90.2253 30.2507 89.788 30.0694 89.276C29.8987 88.764 29.8134 88.188 29.8134 87.548C29.8134 86.876 29.904 86.284 30.0854 85.772C30.2667 85.2493 30.5174 84.8173 30.8374 84.476C31.1574 84.124 31.536 83.8573 31.9734 83.676C32.4214 83.4947 32.912 83.404 33.4454 83.404C33.9787 83.404 34.4694 83.4893 34.9174 83.66C35.3654 83.8307 35.7494 84.0867 36.0694 84.428C36.3894 84.7587 36.64 85.18 36.8214 85.692C37.0027 86.1933 37.0934 86.78 37.0934 87.452C37.0934 87.5373 37.088 87.6227 37.0774 87.708C37.0774 87.7933 37.072 87.8627 37.0614 87.916H31.0934C31.0934 88.2893 31.1574 88.6413 31.2854 88.972C31.424 89.292 31.6054 89.5747 31.8294 89.82C32.064 90.0547 32.3307 90.2413 32.6294 90.38C32.9387 90.5187 33.2694 90.588 33.6214 90.588C34.1974 90.588 34.6667 90.476 35.0294 90.252C35.4027 90.028 35.712 89.756 35.9574 89.436L36.7254 90.22C36.384 90.668 35.9574 91.0253 35.4454 91.292C34.944 91.5587 34.3147 91.692 33.5574 91.692ZM33.4454 84.46C33.072 84.46 32.7414 84.5293 32.4534 84.668C32.1654 84.8067 31.9254 84.988 31.7334 85.212C31.5414 85.436 31.392 85.692 31.2854 85.98C31.1894 86.268 31.136 86.556 31.1254 86.844H35.7494C35.7387 86.556 35.68 86.268 35.5734 85.98C35.4774 85.692 35.3334 85.436 35.1414 85.212C34.9494 84.988 34.7094 84.8067 34.4214 84.668C34.144 84.5293 33.8187 84.46 33.4454 84.46ZM42.2449 91.692C41.6795 91.692 41.1622 91.596 40.6929 91.404C40.2342 91.212 39.8395 90.94 39.5089 90.588C39.1889 90.2253 38.9382 89.788 38.7569 89.276C38.5862 88.764 38.5009 88.188 38.5009 87.548C38.5009 86.876 38.5915 86.284 38.7729 85.772C38.9542 85.2493 39.2049 84.8173 39.5249 84.476C39.8449 84.124 40.2235 83.8573 40.6609 83.676C41.1089 83.4947 41.5995 83.404 42.1329 83.404C42.6662 83.404 43.1569 83.4893 43.6049 83.66C44.0529 83.8307 44.4369 84.0867 44.7569 84.428C45.0769 84.7587 45.3275 85.18 45.5089 85.692C45.6902 86.1933 45.7809 86.78 45.7809 87.452C45.7809 87.5373 45.7755 87.6227 45.7649 87.708C45.7649 87.7933 45.7595 87.8627 45.7489 87.916H39.7809C39.7809 88.2893 39.8449 88.6413 39.9729 88.972C40.1115 89.292 40.2929 89.5747 40.5169 89.82C40.7515 90.0547 41.0182 90.2413 41.3169 90.38C41.6262 90.5187 41.9569 90.588 42.3089 90.588C42.8849 90.588 43.3542 90.476 43.7169 90.252C44.0902 90.028 44.3995 89.756 44.6449 89.436L45.4129 90.22C45.0715 90.668 44.6449 91.0253 44.1329 91.292C43.6315 91.5587 43.0022 91.692 42.2449 91.692ZM42.1329 84.46C41.7595 84.46 41.4289 84.5293 41.1409 84.668C40.8529 84.8067 40.6129 84.988 40.4209 85.212C40.2289 85.436 40.0795 85.692 39.9729 85.98C39.8769 86.268 39.8235 86.556 39.8129 86.844H44.4369C44.4262 86.556 44.3675 86.268 44.2609 85.98C44.1649 85.692 44.0209 85.436 43.8289 85.212C43.6369 84.988 43.3969 84.8067 43.1089 84.668C42.8315 84.5293 42.5062 84.46 42.1329 84.46ZM54.5361 91.692C54.0028 91.692 53.5228 91.5907 53.0961 91.388C52.6695 91.1747 52.3015 90.8867 51.9921 90.524C51.6828 90.1507 51.4428 89.708 51.2721 89.196C51.1121 88.684 51.0321 88.1293 51.0321 87.532C51.0321 86.9347 51.1121 86.3853 51.2721 85.884C51.4428 85.372 51.6828 84.9347 51.9921 84.572C52.3015 84.1987 52.6695 83.9107 53.0961 83.708C53.5228 83.5053 54.0028 83.404 54.5361 83.404C55.1868 83.404 55.7468 83.5587 56.2161 83.868C56.6855 84.1773 57.0215 84.572 57.2241 85.052H57.3201V79.9H58.6001V91.5H57.3841V89.884H57.2881C57.1921 90.1613 57.0535 90.412 56.8721 90.636C56.7015 90.8493 56.4935 91.036 56.2481 91.196C56.0135 91.356 55.7468 91.4787 55.4481 91.564C55.1601 91.6493 54.8561 91.692 54.5361 91.692ZM54.8561 90.54C55.1975 90.54 55.5175 90.4813 55.8161 90.364C56.1148 90.236 56.3761 90.0493 56.6001 89.804C56.8241 89.548 57.0001 89.2333 57.1281 88.86C57.2561 88.4867 57.3201 88.0493 57.3201 87.548C57.3201 87.0467 57.2561 86.6093 57.1281 86.236C57.0001 85.8627 56.8241 85.5533 56.6001 85.308C56.3761 85.052 56.1148 84.8653 55.8161 84.748C55.5175 84.62 55.1975 84.556 54.8561 84.556C54.5041 84.556 54.1735 84.62 53.8641 84.748C53.5655 84.8653 53.2988 85.052 53.0641 85.308C52.8401 85.5533 52.6641 85.8627 52.5361 86.236C52.4081 86.6093 52.3441 87.0467 52.3441 87.548C52.3441 88.0493 52.4081 88.4867 52.5361 88.86C52.6641 89.2333 52.8401 89.548 53.0641 89.804C53.2988 90.0493 53.5655 90.236 53.8641 90.364C54.1735 90.4813 54.5041 90.54 54.8561 90.54ZM64.4011 91.692C63.8358 91.692 63.3185 91.596 62.8491 91.404C62.3905 91.212 61.9958 90.94 61.6651 90.588C61.3451 90.2253 61.0945 89.788 60.9131 89.276C60.7425 88.764 60.6571 88.188 60.6571 87.548C60.6571 86.876 60.7478 86.284 60.9291 85.772C61.1105 85.2493 61.3611 84.8173 61.6811 84.476C62.0011 84.124 62.3798 83.8573 62.8171 83.676C63.2651 83.4947 63.7558 83.404 64.2891 83.404C64.8225 83.404 65.3131 83.4893 65.7611 83.66C66.2091 83.8307 66.5931 84.0867 66.9131 84.428C67.2331 84.7587 67.4838 85.18 67.6651 85.692C67.8465 86.1933 67.9371 86.78 67.9371 87.452C67.9371 87.5373 67.9318 87.6227 67.9211 87.708C67.9211 87.7933 67.9158 87.8627 67.9051 87.916H61.9371C61.9371 88.2893 62.0011 88.6413 62.1291 88.972C62.2678 89.292 62.4491 89.5747 62.6731 89.82C62.9078 90.0547 63.1745 90.2413 63.4731 90.38C63.7825 90.5187 64.1131 90.588 64.4651 90.588C65.0411 90.588 65.5105 90.476 65.8731 90.252C66.2465 90.028 66.5558 89.756 66.8011 89.436L67.5691 90.22C67.2278 90.668 66.8011 91.0253 66.2891 91.292C65.7878 91.5587 65.1585 91.692 64.4011 91.692ZM64.2891 84.46C63.9158 84.46 63.5851 84.5293 63.2971 84.668C63.0091 84.8067 62.7691 84.988 62.5771 85.212C62.3851 85.436 62.2358 85.692 62.1291 85.98C62.0331 86.268 61.9798 86.556 61.9691 86.844H66.5931C66.5825 86.556 66.5238 86.268 66.4171 85.98C66.3211 85.692 66.1771 85.436 65.9851 85.212C65.7931 84.988 65.5531 84.8067 65.2651 84.668C64.9878 84.5293 64.6625 84.46 64.2891 84.46ZM70.0006 79.9H71.2806V91.5H70.0006V79.9ZM75.4886 81.5C75.4886 81.724 75.4086 81.916 75.2486 82.076C75.0993 82.236 74.8966 82.316 74.6406 82.316C74.374 82.316 74.166 82.236 74.0166 82.076C73.8673 81.916 73.7926 81.724 73.7926 81.5C73.7926 81.2867 73.8673 81.1 74.0166 80.94C74.166 80.7693 74.374 80.684 74.6406 80.684C74.8966 80.684 75.0993 80.7693 75.2486 80.94C75.4086 81.1 75.4886 81.2867 75.4886 81.5ZM74.0006 83.596H75.2806V91.5H74.0006V83.596ZM76.9606 83.596H78.3526L80.7366 90.188H80.8326L83.2326 83.596H84.5286L81.4566 91.5H80.0166L76.9606 83.596ZM89.1355 91.692C88.5702 91.692 88.0528 91.596 87.5835 91.404C87.1248 91.212 86.7302 90.94 86.3995 90.588C86.0795 90.2253 85.8288 89.788 85.6475 89.276C85.4768 88.764 85.3915 88.188 85.3915 87.548C85.3915 86.876 85.4822 86.284 85.6635 85.772C85.8448 85.2493 86.0955 84.8173 86.4155 84.476C86.7355 84.124 87.1142 83.8573 87.5515 83.676C87.9995 83.4947 88.4902 83.404 89.0235 83.404C89.5568 83.404 90.0475 83.4893 90.4955 83.66C90.9435 83.8307 91.3275 84.0867 91.6475 84.428C91.9675 84.7587 92.2182 85.18 92.3995 85.692C92.5808 86.1933 92.6715 86.78 92.6715 87.452C92.6715 87.5373 92.6662 87.6227 92.6555 87.708C92.6555 87.7933 92.6502 87.8627 92.6395 87.916H86.6715C86.6715 88.2893 86.7355 88.6413 86.8635 88.972C87.0022 89.292 87.1835 89.5747 87.4075 89.82C87.6422 90.0547 87.9088 90.2413 88.2075 90.38C88.5168 90.5187 88.8475 90.588 89.1995 90.588C89.7755 90.588 90.2448 90.476 90.6075 90.252C90.9808 90.028 91.2902 89.756 91.5355 89.436L92.3035 90.22C91.9622 90.668 91.5355 91.0253 91.0235 91.292C90.5222 91.5587 89.8928 91.692 89.1355 91.692ZM89.0235 84.46C88.6502 84.46 88.3195 84.5293 88.0315 84.668C87.7435 84.8067 87.5035 84.988 87.3115 85.212C87.1195 85.436 86.9702 85.692 86.8635 85.98C86.7675 86.268 86.7142 86.556 86.7035 86.844H91.3275C91.3168 86.556 91.2582 86.268 91.1515 85.98C91.0555 85.692 90.9115 85.436 90.7195 85.212C90.5275 84.988 90.2875 84.8067 89.9995 84.668C89.7222 84.5293 89.3968 84.46 89.0235 84.46ZM94.735 83.596H95.951V84.876H96.047C96.2177 84.46 96.463 84.1133 96.783 83.836C97.103 83.548 97.503 83.404 97.983 83.404C98.3883 83.404 98.7457 83.484 99.055 83.644L98.623 84.796C98.4843 84.7213 98.335 84.6733 98.175 84.652C98.0257 84.62 97.871 84.604 97.711 84.604C97.1883 84.604 96.7723 84.8173 96.463 85.244C96.1643 85.66 96.015 86.1933 96.015 86.844V91.5H94.735V83.596ZM101.2 94.524C101.082 94.524 100.96 94.5133 100.832 94.492C100.714 94.4813 100.613 94.4653 100.528 94.444V93.34C100.581 93.3507 100.666 93.3613 100.784 93.372C100.912 93.3827 101.029 93.388 101.136 93.388C101.349 93.388 101.53 93.372 101.68 93.34C101.829 93.308 101.962 93.2333 102.08 93.116C102.208 93.0093 102.33 92.844 102.448 92.62C102.565 92.4067 102.693 92.1187 102.832 91.756L99.6638 83.596H101.056L103.44 90.22H103.536L105.936 83.596H107.232L104.128 91.58C103.925 92.1027 103.728 92.5453 103.536 92.908C103.354 93.2813 103.152 93.5853 102.928 93.82C102.704 94.0653 102.453 94.2413 102.176 94.348C101.909 94.4653 101.584 94.524 101.2 94.524Z" fill="black"/>
<path d="M260.288 81.4H261.618L265.972 88.834H266.056V81.4H267.134V90.5H265.804L261.45 83.052H261.366V90.5H260.288V81.4ZM272.34 90.668C271.789 90.668 271.304 90.5747 270.884 90.388C270.473 90.192 270.128 89.9307 269.848 89.604C269.577 89.2773 269.372 88.8947 269.232 88.456C269.101 88.0173 269.036 87.546 269.036 87.042C269.036 86.538 269.101 86.0667 269.232 85.628C269.372 85.1893 269.577 84.8067 269.848 84.48C270.128 84.1533 270.473 83.8967 270.884 83.71C271.304 83.514 271.789 83.416 272.34 83.416C272.891 83.416 273.367 83.514 273.768 83.71C274.179 83.8967 274.519 84.1533 274.79 84.48C275.061 84.8067 275.261 85.1893 275.392 85.628C275.532 86.0667 275.602 86.538 275.602 87.042C275.602 87.546 275.532 88.0173 275.392 88.456C275.261 88.8947 275.061 89.2773 274.79 89.604C274.519 89.9307 274.179 90.192 273.768 90.388C273.367 90.5747 272.891 90.668 272.34 90.668ZM270.184 87.042C270.184 87.4433 270.226 87.812 270.31 88.148C270.403 88.4747 270.539 88.7593 270.716 89.002C270.893 89.2353 271.117 89.4173 271.388 89.548C271.659 89.6787 271.976 89.744 272.34 89.744C272.695 89.744 273.003 89.6787 273.264 89.548C273.535 89.4173 273.754 89.2353 273.922 89.002C274.099 88.7593 274.23 88.4747 274.314 88.148C274.407 87.812 274.454 87.4433 274.454 87.042C274.454 86.6407 274.407 86.2767 274.314 85.95C274.23 85.614 274.099 85.3293 273.922 85.096C273.754 84.8533 273.535 84.6667 273.264 84.536C273.003 84.4053 272.695 84.34 272.34 84.34C271.976 84.34 271.659 84.4053 271.388 84.536C271.117 84.6667 270.893 84.8533 270.716 85.096C270.539 85.3293 270.403 85.614 270.31 85.95C270.226 86.2767 270.184 86.6407 270.184 87.042ZM280.766 83.584H281.83V84.676H281.914C282.082 84.312 282.316 84.0133 282.614 83.78C282.922 83.5373 283.305 83.416 283.762 83.416C284.313 83.416 284.775 83.5187 285.148 83.724C285.531 83.92 285.816 84.2187 286.002 84.62C286.208 84.228 286.483 83.9293 286.828 83.724C287.174 83.5187 287.612 83.416 288.144 83.416C288.527 83.416 288.872 83.4673 289.18 83.57C289.488 83.6727 289.75 83.8313 289.964 84.046C290.188 84.2607 290.356 84.536 290.468 84.872C290.59 85.208 290.65 85.6093 290.65 86.076V90.5H289.53V86.286C289.53 85.5767 289.39 85.0773 289.11 84.788C288.84 84.4893 288.438 84.34 287.906 84.34C287.393 84.34 286.992 84.522 286.702 84.886C286.413 85.25 286.268 85.782 286.268 86.482V90.5H285.148V86.286C285.148 85.5767 285.008 85.0773 284.728 84.788C284.458 84.4893 284.056 84.34 283.524 84.34C283.02 84.34 282.619 84.522 282.32 84.886C282.031 85.25 281.886 85.782 281.886 86.482V90.5H280.766V83.584ZM294.209 81.75C294.209 81.946 294.139 82.114 293.999 82.254C293.868 82.394 293.691 82.464 293.467 82.464C293.233 82.464 293.051 82.394 292.921 82.254C292.79 82.114 292.725 81.946 292.725 81.75C292.725 81.5633 292.79 81.4 292.921 81.26C293.051 81.1107 293.233 81.036 293.467 81.036C293.691 81.036 293.868 81.1107 293.999 81.26C294.139 81.4 294.209 81.5633 294.209 81.75ZM292.907 83.584H294.027V90.5H292.907V83.584ZM296.407 83.584H297.471V84.676H297.555C297.723 84.312 297.961 84.0133 298.269 83.78C298.577 83.5373 298.969 83.416 299.445 83.416C300.238 83.416 300.863 83.626 301.321 84.046C301.787 84.466 302.021 85.1427 302.021 86.076V90.5H300.901V86.286C300.901 85.5767 300.756 85.0773 300.467 84.788C300.187 84.4893 299.771 84.34 299.221 84.34C298.689 84.34 298.273 84.522 297.975 84.886C297.676 85.25 297.527 85.782 297.527 86.482V90.5H296.407V83.584ZM304.828 90.668C304.567 90.668 304.361 90.584 304.212 90.416C304.063 90.248 303.988 90.0567 303.988 89.842C303.988 89.618 304.063 89.4267 304.212 89.268C304.361 89.1 304.567 89.016 304.828 89.016C305.099 89.016 305.304 89.1 305.444 89.268C305.593 89.4267 305.668 89.618 305.668 89.842C305.668 90.0567 305.593 90.248 305.444 90.416C305.304 90.584 305.099 90.668 304.828 90.668ZM313.861 90.668C313.311 90.668 312.825 90.5747 312.405 90.388C311.995 90.192 311.649 89.9307 311.369 89.604C311.099 89.2773 310.893 88.8947 310.753 88.456C310.623 88.0173 310.557 87.546 310.557 87.042C310.557 86.538 310.623 86.0667 310.753 85.628C310.893 85.1893 311.099 84.8067 311.369 84.48C311.649 84.1533 311.995 83.8967 312.405 83.71C312.825 83.514 313.311 83.416 313.861 83.416C314.412 83.416 314.888 83.514 315.289 83.71C315.7 83.8967 316.041 84.1533 316.311 84.48C316.582 84.8067 316.783 85.1893 316.913 85.628C317.053 86.0667 317.123 86.538 317.123 87.042C317.123 87.546 317.053 88.0173 316.913 88.456C316.783 88.8947 316.582 89.2773 316.311 89.604C316.041 89.9307 315.7 90.192 315.289 90.388C314.888 90.5747 314.412 90.668 313.861 90.668ZM311.705 87.042C311.705 87.4433 311.747 87.812 311.831 88.148C311.925 88.4747 312.06 88.7593 312.237 89.002C312.415 89.2353 312.639 89.4173 312.909 89.548C313.18 89.6787 313.497 89.744 313.861 89.744C314.216 89.744 314.524 89.6787 314.785 89.548C315.056 89.4173 315.275 89.2353 315.443 89.002C315.621 88.7593 315.751 88.4747 315.835 88.148C315.929 87.812 315.975 87.4433 315.975 87.042C315.975 86.6407 315.929 86.2767 315.835 85.95C315.751 85.614 315.621 85.3293 315.443 85.096C315.275 84.8533 315.056 84.6667 314.785 84.536C314.524 84.4053 314.216 84.34 313.861 84.34C313.497 84.34 313.18 84.4053 312.909 84.536C312.639 84.6667 312.415 84.8533 312.237 85.096C312.06 85.3293 311.925 85.614 311.831 85.95C311.747 86.2767 311.705 86.6407 311.705 87.042ZM318.924 83.584H319.988V84.704H320.072C320.222 84.34 320.436 84.0367 320.716 83.794C320.996 83.542 321.346 83.416 321.766 83.416C322.121 83.416 322.434 83.486 322.704 83.626L322.326 84.634C322.205 84.5687 322.074 84.5267 321.934 84.508C321.804 84.48 321.668 84.466 321.528 84.466C321.071 84.466 320.707 84.6527 320.436 85.026C320.175 85.39 320.044 85.8567 320.044 86.426V90.5H318.924V83.584ZM326.297 90.668C325.831 90.668 325.411 90.5793 325.037 90.402C324.664 90.2153 324.342 89.9633 324.071 89.646C323.801 89.3193 323.591 88.932 323.441 88.484C323.301 88.036 323.231 87.5507 323.231 87.028C323.231 86.5053 323.301 86.0247 323.441 85.586C323.591 85.138 323.801 84.7553 324.071 84.438C324.342 84.1113 324.664 83.8593 325.037 83.682C325.411 83.5047 325.831 83.416 326.297 83.416C326.867 83.416 327.357 83.5513 327.767 83.822C328.178 84.0927 328.472 84.438 328.649 84.858H328.733V80.35H329.853V90.5H328.789V89.086H328.705C328.621 89.3287 328.5 89.548 328.341 89.744C328.192 89.9307 328.01 90.094 327.795 90.234C327.59 90.374 327.357 90.4813 327.095 90.556C326.843 90.6307 326.577 90.668 326.297 90.668ZM326.577 89.66C326.876 89.66 327.156 89.6087 327.417 89.506C327.679 89.394 327.907 89.2307 328.103 89.016C328.299 88.792 328.453 88.5167 328.565 88.19C328.677 87.8633 328.733 87.4807 328.733 87.042C328.733 86.6033 328.677 86.2207 328.565 85.894C328.453 85.5673 328.299 85.2967 328.103 85.082C327.907 84.858 327.679 84.6947 327.417 84.592C327.156 84.48 326.876 84.424 326.577 84.424C326.269 84.424 325.98 84.48 325.709 84.592C325.448 84.6947 325.215 84.858 325.009 85.082C324.813 85.2967 324.659 85.5673 324.547 85.894C324.435 86.2207 324.379 86.6033 324.379 87.042C324.379 87.4807 324.435 87.8633 324.547 88.19C324.659 88.5167 324.813 88.792 325.009 89.016C325.215 89.2307 325.448 89.394 325.709 89.506C325.98 89.6087 326.269 89.66 326.577 89.66ZM334.929 90.668C334.434 90.668 333.982 90.584 333.571 90.416C333.17 90.248 332.824 90.01 332.535 89.702C332.255 89.3847 332.036 89.002 331.877 88.554C331.728 88.106 331.653 87.602 331.653 87.042C331.653 86.454 331.732 85.936 331.891 85.488C332.05 85.0307 332.269 84.6527 332.549 84.354C332.829 84.046 333.16 83.8127 333.543 83.654C333.935 83.4953 334.364 83.416 334.831 83.416C335.298 83.416 335.727 83.4907 336.119 83.64C336.511 83.7893 336.847 84.0133 337.127 84.312C337.407 84.6013 337.626 84.97 337.785 85.418C337.944 85.8567 338.023 86.37 338.023 86.958C338.023 87.0327 338.018 87.1073 338.009 87.182C338.009 87.2567 338.004 87.3173 337.995 87.364H332.773C332.773 87.6907 332.829 87.9987 332.941 88.288C333.062 88.568 333.221 88.8153 333.417 89.03C333.622 89.2353 333.856 89.3987 334.117 89.52C334.388 89.6413 334.677 89.702 334.985 89.702C335.489 89.702 335.9 89.604 336.217 89.408C336.544 89.212 336.814 88.974 337.029 88.694L337.701 89.38C337.402 89.772 337.029 90.0847 336.581 90.318C336.142 90.5513 335.592 90.668 334.929 90.668ZM334.831 84.34C334.504 84.34 334.215 84.4007 333.963 84.522C333.711 84.6433 333.501 84.802 333.333 84.998C333.165 85.194 333.034 85.418 332.941 85.67C332.857 85.922 332.81 86.174 332.801 86.426H336.847C336.838 86.174 336.786 85.922 336.693 85.67C336.609 85.418 336.483 85.194 336.315 84.998C336.147 84.802 335.937 84.6433 335.685 84.522C335.442 84.4007 335.158 84.34 334.831 84.34ZM339.829 83.584H340.893V84.704H340.977C341.126 84.34 341.341 84.0367 341.621 83.794C341.901 83.542 342.251 83.416 342.671 83.416C343.025 83.416 343.338 83.486 343.609 83.626L343.231 84.634C343.109 84.5687 342.979 84.5267 342.839 84.508C342.708 84.48 342.573 84.466 342.433 84.466C341.975 84.466 341.611 84.6527 341.341 85.026C341.079 85.39 340.949 85.8567 340.949 86.426V90.5H339.829V83.584Z" fill="black"/>
</svg>
