<svg width="50" height="52" viewBox="0 0 50 52" fill="none" xmlns="http://www.w3.org/2000/svg">
<g clip-path="url(#clip0_818_8486)">
<path fill-rule="evenodd" clip-rule="evenodd" d="M0.582758 28H16.4172L16.5 28.0828V43.9172L16.4172 44H0.582758L0.5 43.9172V28.0828L0.582758 28ZM16.3338 43.8338V28.1655H0.665489V43.8338H16.3338ZM3.76852 29H13.2315C14.4844 29 15.5 30.0157 15.5 31.2685V40.7315C15.5 41.9844 14.4844 43 13.2315 43H3.76852C2.51565 43 1.5 41.9844 1.5 40.7315V31.2685C1.5 30.0157 2.51565 29 3.76852 29Z" fill="#242E30"/>
</g>
<path d="M21.972 31.6H23.332V40.848H27.348V42H21.972V31.6ZM30.7386 32C30.7386 32.224 30.6586 32.416 30.4986 32.576C30.3493 32.736 30.1466 32.816 29.8906 32.816C29.624 32.816 29.416 32.736 29.2666 32.576C29.1173 32.416 29.0426 32.224 29.0426 32C29.0426 31.7867 29.1173 31.6 29.2666 31.44C29.416 31.2693 29.624 31.184 29.8906 31.184C30.1466 31.184 30.3493 31.2693 30.4986 31.44C30.6586 31.6 30.7386 31.7867 30.7386 32ZM29.2506 34.096H30.5306V42H29.2506V34.096ZM33.2506 34.096H34.4666V35.344H34.5626C34.7546 34.928 35.0266 34.5867 35.3786 34.32C35.7306 34.0427 36.1786 33.904 36.7226 33.904C37.6293 33.904 38.344 34.144 38.8666 34.624C39.4 35.104 39.6666 35.8773 39.6666 36.944V42H38.3866V37.184C38.3866 36.3733 38.2213 35.8027 37.8906 35.472C37.5706 35.1307 37.096 34.96 36.4666 34.96C35.8586 34.96 35.384 35.168 35.0426 35.584C34.7013 36 34.5306 36.608 34.5306 37.408V42H33.2506V34.096ZM43.515 42H42.235V30.4H43.515V38.256H43.611L47.227 34.096H48.779L45.467 37.712L48.907 42H47.307L44.587 38.544L43.515 39.776V42Z" fill="#242E30"/>
<path d="M20.5 44.192H49.323V44.992H20.5V44.192Z" fill="#242E30"/>
<path d="M22.6833 10.392H19.0473V9.588L22.4913 4.2H23.6313L20.1753 9.528H22.6833V7.176H23.6673V9.528H24.7473V10.392H23.6673V12H22.6833V10.392ZM26.5786 6.072H27.4906V7.284H27.5626C27.6346 7.084 27.7346 6.9 27.8626 6.732C27.9986 6.564 28.1546 6.42 28.3306 6.3C28.5146 6.18 28.7146 6.088 28.9306 6.024C29.1546 5.96 29.3866 5.928 29.6266 5.928C30.0186 5.928 30.3746 6.008 30.6946 6.168C31.0226 6.32 31.3026 6.536 31.5346 6.816C31.7666 7.088 31.9426 7.416 32.0626 7.8C32.1906 8.184 32.2546 8.6 32.2546 9.048C32.2546 9.496 32.1906 9.912 32.0626 10.296C31.9426 10.672 31.7666 11 31.5346 11.28C31.3026 11.552 31.0226 11.764 30.6946 11.916C30.3746 12.068 30.0186 12.144 29.6266 12.144C29.1386 12.144 28.7186 12.028 28.3666 11.796C28.0146 11.564 27.7626 11.268 27.6106 10.908H27.5386V14.22H26.5786V6.072ZM29.3866 11.28C29.6506 11.28 29.8946 11.236 30.1186 11.148C30.3506 11.052 30.5506 10.912 30.7186 10.728C30.8946 10.536 31.0306 10.3 31.1266 10.02C31.2226 9.74 31.2706 9.412 31.2706 9.036C31.2706 8.66 31.2226 8.332 31.1266 8.052C31.0306 7.772 30.8946 7.54 30.7186 7.356C30.5506 7.164 30.3506 7.024 30.1186 6.936C29.8946 6.84 29.6506 6.792 29.3866 6.792C29.1306 6.792 28.8906 6.84 28.6666 6.936C28.4426 7.024 28.2466 7.164 28.0786 7.356C27.9106 7.54 27.7786 7.772 27.6826 8.052C27.5866 8.332 27.5386 8.66 27.5386 9.036C27.5386 9.412 27.5866 9.74 27.6826 10.02C27.7786 10.3 27.9106 10.536 28.0786 10.728C28.2466 10.912 28.4426 11.052 28.6666 11.148C28.8906 11.236 29.1306 11.28 29.3866 11.28ZM35.0384 8.988L33.0584 6.072H34.2104L35.6144 8.292H35.6624L37.1144 6.072H38.1464L36.1664 8.94L38.2424 12H37.0904L35.5904 9.636H35.5424L33.9944 12H32.9624L35.0384 8.988Z" fill="#3C4C4F"/>
<rect opacity="0.5" x="26.5" y="20" width="4" height="32" fill="#C1DADE"/>
<defs>
<clipPath id="clip0_818_8486">
<rect width="16" height="16" fill="white" transform="translate(0.5 28)"/>
</clipPath>
</defs>
</svg>
