<svg width="47" height="80" viewBox="0 0 47 80" fill="none" xmlns="http://www.w3.org/2000/svg">
<rect width="40" height="40" transform="translate(3.5)" fill="#F2A6B0" fill-opacity="0.5"/>
<g clip-path="url(#clip0_4073_199009)">
<path d="M8.40625 26.7814C7.71466 26.2598 6.86584 25.9897 6 26.0157V22.7345C7.47814 22.7059 8.92674 23.1504 10.1344 24.0033C10.8359 24.5218 11.6904 24.7913 12.5625 24.7689C13.4278 24.7914 14.2755 24.5217 14.9688 24.0033C16.1838 23.1487 17.6399 22.7043 19.125 22.7345C20.6104 22.7027 22.0669 23.1473 23.2813 24.0033C23.9752 24.5202 24.8224 24.7897 25.6875 24.7689C26.5528 24.7914 27.4006 24.5217 28.0938 24.0033C29.3115 23.1542 30.7657 22.7103 32.25 22.7345V26.0157C31.3779 25.9934 30.5234 26.2628 29.8219 26.7814C28.6142 27.6342 27.1656 28.0787 25.6875 28.0501C24.2026 28.0788 22.747 27.6345 21.5313 26.7814C20.8373 26.2644 19.9901 25.9949 19.125 26.0157C18.2597 25.9932 17.412 26.2629 16.7188 26.7814C15.5051 27.6387 14.0481 28.0834 12.5625 28.0501C11.0776 28.0788 9.62199 27.6345 8.40625 26.7814ZM33.8906 7.422V2.50012H30.6094V7.422H22.7344L23.4344 13.9845C22.0312 13.5983 20.5801 13.4142 19.125 13.4376C13.2188 13.4376 8.42813 16.5001 7.68438 20.7001L10.9219 21.2689C11.3813 18.7095 14.9469 16.7189 19.125 16.7189C23.3031 16.7189 26.8469 18.7095 27.2844 21.2689L30.5219 20.7001C30.303 19.6509 29.8694 18.6584 29.2482 17.785C28.627 16.9115 27.8318 16.1762 26.9125 15.6251L26.3875 10.7032H37.325L35.5313 30.9376C35.5202 31.075 35.4578 31.2031 35.3564 31.2963C35.255 31.3896 35.1221 31.4412 34.9844 31.4408H30.4125C30.5117 30.8626 30.563 30.2773 30.5656 29.6908H27.2844C27.2844 32.2283 27.2844 33.6283 19.0813 33.6283C10.8781 33.6283 10.8781 32.2283 10.8781 29.6908H7.59688C7.59688 35.7939 11.4688 36.9095 19.0813 36.9095C23.7844 36.9095 27.0438 36.472 28.8594 34.722H34.9844C35.9378 34.7371 36.8617 34.3917 37.5715 33.755C38.2812 33.1183 38.7244 32.2371 38.8125 31.2876L41 7.422H33.8906Z" fill="#242E30"/>
</g>
<path d="M1.296 70.032V68.816L7.808 65.6V66.768L2.576 69.424L7.808 72.08V73.248L1.296 70.032ZM15.3538 71.856H10.5058V70.784L15.0978 63.6H16.6178L12.0098 70.704H15.3538V67.568H16.6658V70.704H18.1058V71.856H16.6658V74H15.3538V71.856ZM23.9875 74.192C23.3262 74.192 22.7555 74.0533 22.2755 73.776C21.8062 73.4987 21.4168 73.12 21.1075 72.64C20.8088 72.1493 20.5848 71.5787 20.4355 70.928C20.2968 70.2667 20.2275 69.5573 20.2275 68.8C20.2275 68.0427 20.2968 67.3387 20.4355 66.688C20.5848 66.0267 20.8088 65.456 21.1075 64.976C21.4168 64.4853 21.8062 64.1013 22.2755 63.824C22.7555 63.5467 23.3262 63.408 23.9875 63.408C24.6488 63.408 25.2142 63.5467 25.6835 63.824C26.1635 64.1013 26.5528 64.4853 26.8515 64.976C27.1608 65.456 27.3848 66.0267 27.5235 66.688C27.6728 67.3387 27.7475 68.0427 27.7475 68.8C27.7475 69.5573 27.6728 70.2667 27.5235 70.928C27.3848 71.5787 27.1608 72.1493 26.8515 72.64C26.5528 73.12 26.1635 73.4987 25.6835 73.776C25.2142 74.0533 24.6488 74.192 23.9875 74.192ZM23.9875 73.04C24.3822 73.04 24.7288 72.944 25.0275 72.752C25.3262 72.5493 25.5715 72.2667 25.7635 71.904C25.9662 71.5307 26.1155 71.0827 26.2115 70.56C26.3075 70.0373 26.3555 69.4507 26.3555 68.8C26.3555 68.1493 26.3075 67.5627 26.2115 67.04C26.1155 66.5173 25.9662 66.0747 25.7635 65.712C25.5715 65.3387 25.3262 65.056 25.0275 64.864C24.7288 64.6613 24.3822 64.56 23.9875 64.56C23.5928 64.56 23.2462 64.6613 22.9475 64.864C22.6595 65.056 22.4142 65.3387 22.2115 65.712C22.0195 66.0747 21.8702 66.5173 21.7635 67.04C21.6675 67.5627 21.6195 68.1493 21.6195 68.8C21.6195 69.4507 21.6675 70.0373 21.7635 70.56C21.8702 71.0827 22.0195 71.5307 22.2115 71.904C22.4142 72.2667 22.6595 72.5493 22.9475 72.752C23.2462 72.944 23.5928 73.04 23.9875 73.04ZM30.1413 66.096H31.3573V67.712H31.4533C31.5493 67.4453 31.6826 67.2 31.8533 66.976C32.0346 66.752 32.2426 66.56 32.4773 66.4C32.7226 66.24 32.9893 66.1173 33.2773 66.032C33.5759 65.9467 33.8853 65.904 34.2053 65.904C34.7279 65.904 35.2026 66.0107 35.6293 66.224C36.0666 66.4267 36.4399 66.7147 36.7493 67.088C37.0586 67.4507 37.2933 67.888 37.4533 68.4C37.6239 68.912 37.7093 69.4667 37.7093 70.064C37.7093 70.6613 37.6239 71.216 37.4533 71.728C37.2933 72.2293 37.0586 72.6667 36.7493 73.04C36.4399 73.4027 36.0666 73.6853 35.6293 73.888C35.2026 74.0907 34.7279 74.192 34.2053 74.192C33.5546 74.192 32.9946 74.0373 32.5253 73.728C32.0559 73.4187 31.7199 73.024 31.5173 72.544H31.4213V76.96H30.1413V66.096ZM33.8853 73.04C34.2373 73.04 34.5626 72.9813 34.8613 72.864C35.1706 72.736 35.4373 72.5493 35.6613 72.304C35.8959 72.048 36.0773 71.7333 36.2053 71.36C36.3333 70.9867 36.3973 70.5493 36.3973 70.048C36.3973 69.5467 36.3333 69.1093 36.2053 68.736C36.0773 68.3627 35.8959 68.0533 35.6613 67.808C35.4373 67.552 35.1706 67.3653 34.8613 67.248C34.5626 67.12 34.2373 67.056 33.8853 67.056C33.5439 67.056 33.2239 67.12 32.9253 67.248C32.6266 67.3653 32.3653 67.552 32.1413 67.808C31.9173 68.0533 31.7413 68.3627 31.6133 68.736C31.4853 69.1093 31.4213 69.5467 31.4213 70.048C31.4213 70.5493 31.4853 70.9867 31.6133 71.36C31.7413 71.7333 31.9173 72.048 32.1413 72.304C32.3653 72.5493 32.6266 72.736 32.9253 72.864C33.2239 72.9813 33.5439 73.04 33.8853 73.04ZM41.421 69.984L38.781 66.096H40.317L42.189 69.056H42.253L44.189 66.096H45.565L42.925 69.92L45.693 74H44.157L42.157 70.848H42.093L40.029 74H38.653L41.421 69.984Z" fill="#3C4C4F"/>
<defs>
<clipPath id="clip0_4073_199009">
<rect width="35" height="35" fill="white" transform="translate(6 2.50012)"/>
</clipPath>
</defs>
</svg>
