<svg width="321" height="71" fill="none" xmlns="http://www.w3.org/2000/svg"><g filter="url(#example-rtl-in-toast__a)" clip-path="url(#example-rtl-in-toast__b)"><mask id="example-rtl-in-toast__c" style="mask-type:luminance" maskUnits="userSpaceOnUse" x="10" y="4" width="301" height="49"><path d="M302.5 4.5h-284a8 8 0 0 0-8 8v32a8 8 0 0 0 8 8h284a8 8 0 0 0 8-8v-32a8 8 0 0 0-8-8Z" fill="#fff"/></mask><g mask="url(#example-rtl-in-toast__c)"><path d="M302.5 4.5h-284a8 8 0 0 0-8 8v32a8 8 0 0 0 8 8h284a8 8 0 0 0 8-8v-32a8 8 0 0 0-8-8Z" fill="#262626"/><mask id="example-rtl-in-toast__d" style="mask-type:luminance" maskUnits="userSpaceOnUse" x="18" y="12" width="70" height="33"><path d="M85.5 12.5h-65a2 2 0 0 0-2 2v28a2 2 0 0 0 2 2h65a2 2 0 0 0 2-2v-28a2 2 0 0 0-2-2Z" fill="#fff"/></mask><g mask="url(#example-rtl-in-toast__d)" fill="#fff"><path d="M85.5 12.5h-65a2 2 0 0 0-2 2v28a2 2 0 0 0 2 2h65a2 2 0 0 0 2-2v-28a2 2 0 0 0-2-2Z" fill-opacity=".01"/><path d="M27.684 32.016h3.99v-3.122c0-.7-.131-1.209-.392-1.526-.262-.317-.696-.476-1.302-.476h-2.296v-1.484h2.492c2.23 0 3.346 1.162 3.346 3.486v3.122h1.092V33.5h-6.93v-1.484Zm8.363-6.608h1.862V33.5h-1.862v-8.092Zm8.126 8.26c-.756 0-1.414-.135-1.974-.406a4.433 4.433 0 0 1-1.386-1.078 4.665 4.665 0 0 1-.826-1.47 5.364 5.364 0 0 1-.266-1.652v-3.654h1.848v3.654c0 .467.066.887.196 1.26.131.373.313.695.546.966.234.261.51.467.826.616.318.14.663.21 1.036.21.374 0 .72-.07 1.036-.21.318-.15.593-.355.826-.616a2.93 2.93 0 0 0 .546-.966c.131-.373.196-.793.196-1.26v-3.654h1.862v3.654c0 .55-.093 1.101-.28 1.652a4.326 4.326 0 0 1-.826 1.47c-.373.439-.84.798-1.4 1.078-.55.27-1.204.406-1.96.406Zm-.924-8.26h1.848v5.236H43.25v-5.236Zm10.53 0h4.116c.44 0 .84.07 1.204.21.364.14.677.34.938.602.271.252.481.56.63.924.15.355.224.751.224 1.19V33.5H59.03v-5.166c0-.448-.12-.798-.364-1.05a1.19 1.19 0 0 0-.91-.392h-2.128V33.5H53.78v-8.092Zm12.736 1.484h-4.48V23.63h1.848v1.778h4.606v1.288L65.76 33.5h-1.876l2.632-6.608Zm7.71 6.776c-.757 0-1.415-.135-1.975-.406a4.43 4.43 0 0 1-1.386-1.078 4.665 4.665 0 0 1-.826-1.47 5.364 5.364 0 0 1-.266-1.652v-3.654h1.848v3.654c0 .467.066.887.196 1.26s.313.695.546.966c.234.261.509.467.826.616.317.14.663.21 1.036.21s.719-.07 1.036-.21c.317-.15.593-.355.826-.616a2.96 2.96 0 0 0 .546-.966c.13-.373.196-.793.196-1.26v-3.654h1.862v3.654c0 .55-.093 1.101-.28 1.652a4.327 4.327 0 0 1-.826 1.47c-.373.439-.84.798-1.4 1.078-.55.27-1.204.406-1.96.406Zm-.925-8.26h1.848v5.236H73.3v-5.236Z"/></g><path d="M213.618 30.686v-.238c0-.27-.028-.5-.084-.686a1.686 1.686 0 0 0-.322-.588 5.175 5.175 0 0 0-.714-.686c-.336-.28-.63-.541-.882-.784a3.138 3.138 0 0 1-.574-.812c-.131-.299-.196-.658-.196-1.078 0-.756.242-1.353.728-1.792.485-.439 1.171-.658 2.058-.658.56 0 1.064.065 1.512.196.457.13.872.294 1.246.49l-.434.98a6.944 6.944 0 0 0-1.008-.406 3.81 3.81 0 0 0-1.232-.182c-.542 0-.962.121-1.26.364-.29.243-.434.588-.434 1.036 0 .28.042.518.126.714.084.196.228.397.434.602.205.205.485.462.84.77.308.252.546.495.714.728.168.233.284.48.35.742.074.252.112.555.112.91v.378h-.98Zm.434 3.01a.874.874 0 0 1-.602-.224c-.168-.15-.252-.392-.252-.728 0-.345.084-.588.252-.728a.909.909 0 0 1 .602-.21c.252 0 .457.07.616.21.168.14.252.383.252.728 0 .336-.084.579-.252.728a.863.863 0 0 1-.616.224Zm3.424-1.204h1.47l-1.47-7.084h1.232l1.47 7.098c.364.019.677-.023.938-.126.271-.112.495-.336.672-.672.177-.345.308-.835.392-1.47.093-.644.14-1.484.14-2.52v-2.31h1.19v2.38c0 1.232-.07 2.221-.21 2.968-.14.747-.35 1.325-.63 1.736-.28.401-.625.672-1.036.812a4.74 4.74 0 0 1-1.428.196h-2.73v-1.008Zm8.022-7.084h1.19v5.362h-1.19v-5.362Zm3.135 7 2.324-1.666-.448-4.326h-1.806v-1.008h2.856l.924 8.092h-1.176l-.168-1.596-2.506 1.764v-1.26Zm10.7-4.242c0-.56-.131-.99-.392-1.288-.262-.308-.644-.462-1.148-.462h-3.57v-1.008h3.57c.83 0 1.488.233 1.974.7.494.467.742 1.153.742 2.058V33.5h-1.176v-5.334Zm-5.11.574h1.19v4.76h-1.19v-4.76Zm11.626 3.094c0-.355.042-.705.126-1.05a3.86 3.86 0 0 1 .364-.952c.158-.299.354-.565.588-.798a2.66 2.66 0 0 1 .798-.574l-1.96-3.052h1.302l2.38 3.738c.476-.13.863-.42 1.162-.868.298-.457.448-1.036.448-1.736v-1.134h1.19v1.106c0 .392-.052.77-.154 1.134a3.976 3.976 0 0 1-.42 1.022 3.378 3.378 0 0 1-.672.826c-.262.233-.56.41-.896.532l2.212 3.472h-1.288l-2.674-4.186c-.402.187-.724.5-.966.938-.243.43-.364.957-.364 1.582V33.5h-1.176v-1.666Zm12.152-5.418h-4.508V23.63h1.176v1.778h4.634v.952l-2.702 7.14h-1.302l2.702-7.084Zm10.199 0h-4.508V23.63h1.176v1.778h4.634v.952L266.8 33.5h-1.302l2.702-7.084Zm3.126-1.008h1.19v5.362h-1.19v-5.362Zm3.541 0h1.19v5.362h-1.19v-5.362Zm3.513 2.492-.224-2.492h1.05l.112 1.134h.014a2.26 2.26 0 0 1 .938-.952c.42-.233.924-.35 1.512-.35.476 0 .901.084 1.274.252.374.159.686.383.938.672.262.28.458.62.588 1.022.131.401.196.84.196 1.316V33.5h-3.262v-1.008h2.086v-3.71c0-.364-.042-.7-.126-1.008a2.286 2.286 0 0 0-.35-.798 1.618 1.618 0 0 0-.63-.546 1.92 1.92 0 0 0-.896-.196 1.92 1.92 0 0 0-.896.196c-.252.13-.462.313-.63.546-.168.224-.294.49-.378.798a3.822 3.822 0 0 0-.126 1.008V33.5h-1.19v-5.6Zm13.849.266c0-.56-.131-.99-.392-1.288-.261-.308-.644-.462-1.148-.462h-3.57v-1.008h3.57c.831 0 1.489.233 1.974.7.495.467.742 1.153.742 2.058V33.5h-1.176v-5.334Zm-5.11.574h1.19v4.76h-1.19v-4.76Z" fill="#fff"/><path d="M310.5 4.5h-4v48h4v-48Z" fill="#7AADF6"/></g></g><defs><clipPath id="example-rtl-in-toast__b"><path fill="#fff" transform="translate(.5 .5)" d="M0 0h320v70H0z"/></clipPath><filter id="example-rtl-in-toast__a" x="-1.5" y=".5" width="324" height="72" filterUnits="userSpaceOnUse" color-interpolation-filters="sRGB"><feFlood flood-opacity="0" result="BackgroundImageFix"/><feColorMatrix in="SourceAlpha" values="0 0 0 0 0 0 0 0 0 0 0 0 0 0 0 0 0 0 127 0" result="hardAlpha"/><feOffset dy="4"/><feGaussianBlur stdDeviation="3"/><feColorMatrix values="0 0 0 0 0 0 0 0 0 0 0 0 0 0 0 0 0 0 0.04 0"/><feBlend in2="BackgroundImageFix" result="effect1_dropShadow_538_19132"/><feColorMatrix in="SourceAlpha" values="0 0 0 0 0 0 0 0 0 0 0 0 0 0 0 0 0 0 127 0" result="hardAlpha"/><feOffset dy="8"/><feGaussianBlur stdDeviation="6"/><feColorMatrix values="0 0 0 0 0 0 0 0 0 0 0 0 0 0 0 0 0 0 0.06 0"/><feBlend in2="effect1_dropShadow_538_19132" result="effect2_dropShadow_538_19132"/><feColorMatrix in="SourceAlpha" values="0 0 0 0 0 0 0 0 0 0 0 0 0 0 0 0 0 0 127 0" result="hardAlpha"/><feOffset dy="2"/><feGaussianBlur stdDeviation="3"/><feColorMatrix values="0 0 0 0 0 0 0 0 0 0 0 0 0 0 0 0 0 0 0.04 0"/><feBlend in2="effect2_dropShadow_538_19132" result="effect3_dropShadow_538_19132"/><feBlend in="SourceGraphic" in2="effect3_dropShadow_538_19132" result="shape"/></filter></defs></svg>