<svg width="500" height="250" fill="none" xmlns="http://www.w3.org/2000/svg"><path d="M1.813 42.4h2.841c.934 0 1.648.261 2.143.784.504.513.756 1.213.756 2.1 0 .896-.257 1.605-.77 2.128-.514.513-1.223.77-2.129.77H3.003V51.5h-1.19v-9.1Zm2.758 4.788c.588 0 1.026-.168 1.316-.504.298-.345.448-.812.448-1.4 0-.588-.15-1.05-.449-1.386-.289-.336-.728-.504-1.316-.504H3.002v3.794h1.569Zm4.731-2.604h1.064v1.12h.084c.15-.364.364-.667.644-.91.28-.252.63-.378 1.05-.378.355 0 .668.07.938.21l-.378 1.008a1.138 1.138 0 0 0-.392-.126 1.933 1.933 0 0 0-.406-.042c-.457 0-.821.187-1.092.56-.261.364-.392.83-.392 1.4V51.5h-1.12v-6.916Zm6.525-1.834c0 .196-.07.364-.21.504-.13.14-.308.21-.532.21-.233 0-.415-.07-.546-.21a.713.713 0 0 1-.196-.504c0-.187.065-.35.196-.49.13-.15.313-.224.546-.224a.67.67 0 0 1 .532.224c.14.14.21.303.21.49Zm-1.302 1.834h1.12V51.5h-1.12v-6.916Zm3.5 0h1.064v1.092h.084c.168-.364.401-.663.7-.896.308-.243.69-.364 1.148-.364.55 0 1.013.103 1.386.308.383.196.667.495.854.896a2.2 2.2 0 0 1 .826-.896c.345-.205.784-.308 1.316-.308.383 0 .728.051 1.036.154a1.993 1.993 0 0 1 1.288 1.302c.121.336.182.737.182 1.204V51.5h-1.12v-4.214c0-.71-.14-1.209-.42-1.498-.27-.299-.672-.448-1.204-.448-.513 0-.915.182-1.204.546-.29.364-.434.896-.434 1.596V51.5h-1.12v-4.214c0-.71-.14-1.209-.42-1.498-.27-.299-.672-.448-1.204-.448-.504 0-.905.182-1.204.546-.29.364-.434.896-.434 1.596V51.5h-1.12v-6.916Zm13.667 7.084c-.318 0-.612-.051-.882-.154a2.047 2.047 0 0 1-1.148-1.092 2.315 2.315 0 0 1-.154-.854c0-.597.214-1.078.644-1.442.429-.364 1.04-.57 1.834-.616l1.82-.112v-.49c0-.532-.131-.915-.392-1.148-.252-.243-.616-.364-1.092-.364-.402 0-.747.075-1.036.224-.29.15-.514.313-.672.49l-.672-.672c.242-.299.569-.541.98-.728.42-.196.896-.294 1.428-.294.476 0 .877.065 1.204.196.326.121.588.29.784.504.205.215.35.467.434.756.093.29.14.597.14.924V51.5h-1.05v-1.176h-.084c-.187.42-.448.751-.784.994-.336.233-.77.35-1.302.35Zm.168-.952c.578 0 1.045-.168 1.4-.504.364-.345.546-.803.546-1.372v-.602l-1.764.126c-.934.075-1.4.467-1.4 1.176 0 .355.112.64.336.854.233.215.527.322.882.322Zm5.306-6.132h1.064v1.12h.084c.149-.364.364-.667.644-.91.28-.252.63-.378 1.05-.378.354 0 .667.07.938.21l-.378 1.008a1.138 1.138 0 0 0-.392-.126 1.933 1.933 0 0 0-.406-.042 1.28 1.28 0 0 0-1.092.56c-.262.364-.392.83-.392 1.4V51.5h-1.12v-6.916Zm5.656 9.562c-.102 0-.21-.01-.322-.028a1.766 1.766 0 0 1-.266-.042v-.966a3.747 3.747 0 0 0 .532.042c.187 0 .346-.014.476-.042a.694.694 0 0 0 .35-.196 1.4 1.4 0 0 0 .322-.434c.103-.187.215-.439.336-.756l-2.772-7.14h1.218l2.086 5.796h.084l2.1-5.796H48.1l-2.716 6.986c-.177.457-.35.845-.518 1.162a3.12 3.12 0 0 1-.532.798 1.73 1.73 0 0 1-.658.462c-.233.103-.518.154-.854.154ZM55.365 41.35h1.05l-3.542 11.69h-1.05l3.542-11.69ZM61.3 42.4h2.968c1.325 0 2.343.401 3.052 1.204.71.803 1.064 1.923 1.064 3.36 0 .7-.093 1.33-.28 1.89a3.859 3.859 0 0 1-.826 1.428 3.579 3.579 0 0 1-1.316.91c-.513.205-1.097.308-1.75.308H61.3v-9.1Zm3.052 8.092c.43 0 .817-.08 1.162-.238.345-.168.64-.401.882-.7a3.19 3.19 0 0 0 .574-1.106c.13-.439.196-.933.196-1.484 0-1.13-.248-2.002-.742-2.618-.486-.625-1.167-.938-2.044-.938h-1.89v7.084h1.862Zm8.657 1.176c-.494 0-.947-.084-1.358-.252a2.984 2.984 0 0 1-1.036-.714 3.46 3.46 0 0 1-.658-1.148 4.768 4.768 0 0 1-.224-1.512c0-.588.08-1.106.238-1.554.159-.457.378-.835.658-1.134.28-.308.612-.541.994-.7a3.4 3.4 0 0 1 1.288-.238c.467 0 .896.075 1.288.224.392.15.728.373 1.008.672.28.29.5.658.658 1.106.159.439.238.952.238 1.54 0 .075-.004.15-.014.224a.963.963 0 0 1-.014.182h-5.222c0 .327.056.635.168.924.122.28.28.527.476.742.206.205.439.369.7.49.271.121.56.182.868.182.504 0 .915-.098 1.232-.294.327-.196.598-.434.812-.714l.672.686a3.311 3.311 0 0 1-1.12.938c-.438.233-.989.35-1.652.35Zm-.098-6.328c-.326 0-.616.06-.868.182-.252.121-.462.28-.63.476-.168.196-.298.42-.392.672-.084.252-.13.504-.14.756h4.046a2.425 2.425 0 0 0-.154-.756 1.905 1.905 0 0 0-1.008-1.148 1.888 1.888 0 0 0-.854-.182Zm8.33 4.368a.847.847 0 0 0-.14-.504 1.104 1.104 0 0 0-.392-.35 2.674 2.674 0 0 0-.546-.238c-.206-.065-.42-.13-.644-.196a6.563 6.563 0 0 1-.756-.266 2.821 2.821 0 0 1-.63-.378 1.855 1.855 0 0 1-.448-.56 1.678 1.678 0 0 1-.168-.784c0-.327.06-.616.182-.868.121-.252.29-.462.504-.63a2.21 2.21 0 0 1 .756-.378c.29-.093.602-.14.938-.14.504 0 .966.093 1.386.28.42.177.765.457 1.036.84l-.728.672a2.67 2.67 0 0 0-.728-.602c-.27-.159-.593-.238-.966-.238a2.09 2.09 0 0 0-.476.056 1.23 1.23 0 0 0-.406.182.811.811 0 0 0-.406.728c0 .205.046.378.14.518.093.13.22.243.378.336.168.093.355.173.56.238a33 33 0 0 0 .644.196c.261.075.508.163.742.266.242.103.457.233.644.392.187.15.336.331.448.546.112.215.168.476.168.784 0 .364-.07.677-.21.938-.13.252-.313.462-.546.63-.233.168-.504.29-.812.364a3.71 3.71 0 0 1-.98.126c-.607 0-1.125-.103-1.554-.308a2.668 2.668 0 0 1-.994-.798l.742-.7c.215.252.462.457.742.616.29.159.648.238 1.078.238.196 0 .378-.019.546-.056.177-.037.331-.098.462-.182a.972.972 0 0 0 .308-.308.836.836 0 0 0 .126-.462Zm5.153 1.96c-.625 0-1.082-.187-1.372-.56-.29-.373-.434-.887-.434-1.54v-4.074h-1.232v-.91h1.232v-1.876h1.106v1.876h2.002v.91h-2.002v3.976c0 .448.084.76.252.938a.91.91 0 0 0 .672.266c.187 0 .355-.033.504-.098.15-.075.29-.173.42-.294l.504.784c-.43.401-.98.602-1.652.602Zm3.177-7.084h1.064v1.12h.084c.15-.364.364-.667.644-.91.28-.252.63-.378 1.05-.378.355 0 .667.07.938.21l-.378 1.008a1.138 1.138 0 0 0-.392-.126 1.933 1.933 0 0 0-.406-.042c-.457 0-.821.187-1.092.56-.261.364-.392.83-.392 1.4V51.5h-1.12v-6.916Zm7.603 7.084c-.383 0-.728-.051-1.036-.154a2.093 2.093 0 0 1-.798-.476 2.207 2.207 0 0 1-.504-.826c-.122-.336-.182-.737-.182-1.204v-4.424h1.12v4.214c0 .71.135 1.213.406 1.512.28.29.686.434 1.218.434.504 0 .9-.182 1.19-.546.298-.364.448-.896.448-1.596v-4.018h1.12V51.5h-1.064v-1.092h-.084a2.508 2.508 0 0 1-.7.91c-.29.233-.668.35-1.134.35Zm7.99 0c-.56 0-1.046-.103-1.456-.308a2.919 2.919 0 0 1-.994-.812 3.303 3.303 0 0 1-.574-1.148 5.044 5.044 0 0 1-.182-1.358c0-.467.06-.915.182-1.344a3.44 3.44 0 0 1 .56-1.162c.261-.336.592-.607.994-.812.401-.205.882-.308 1.442-.308.588 0 1.068.098 1.442.294.373.196.69.457.952.784l-.7.658a2.62 2.62 0 0 0-.714-.56c-.243-.14-.56-.21-.952-.21a1.83 1.83 0 0 0-1.498.714c-.374.467-.56 1.115-.56 1.946 0 .41.051.78.154 1.106.102.327.247.607.434.84.186.233.406.41.658.532.252.121.532.182.84.182.373 0 .695-.065.966-.196.27-.14.522-.34.756-.602l.672.672a3.21 3.21 0 0 1-.994.798c-.392.196-.868.294-1.428.294Zm6.181 0c-.625 0-1.082-.187-1.372-.56-.289-.373-.434-.887-.434-1.54v-4.074h-1.232v-.91h1.232v-1.876h1.106v1.876h2.002v.91h-2.002v3.976c0 .448.084.76.252.938a.913.913 0 0 0 .672.266c.187 0 .355-.033.504-.098.15-.075.29-.173.42-.294l.504.784c-.429.401-.98.602-1.652.602Zm4.479-8.918c0 .196-.07.364-.21.504-.131.14-.308.21-.532.21-.233 0-.415-.07-.546-.21a.711.711 0 0 1-.196-.504c0-.187.065-.35.196-.49.131-.15.313-.224.546-.224.224 0 .401.075.532.224.14.14.21.303.21.49Zm-1.302 1.834h1.12V51.5h-1.12v-6.916Zm2.59 0h1.218l2.086 5.768h.084l2.1-5.768h1.134l-2.688 6.916h-1.26l-2.674-6.916Zm10.653 7.084c-.495 0-.947-.084-1.358-.252a2.984 2.984 0 0 1-1.036-.714 3.46 3.46 0 0 1-.658-1.148 4.776 4.776 0 0 1-.224-1.512c0-.588.079-1.106.238-1.554.159-.457.378-.835.658-1.134a2.75 2.75 0 0 1 .994-.7 3.4 3.4 0 0 1 1.288-.238c.467 0 .896.075 1.288.224.392.15.728.373 1.008.672.28.29.499.658.658 1.106.159.439.238.952.238 1.54 0 .075-.005.15-.014.224a.988.988 0 0 1-.014.182h-5.222c0 .327.056.635.168.924.121.28.28.527.476.742.205.205.439.369.7.49a2.1 2.1 0 0 0 .868.182c.504 0 .915-.098 1.232-.294.327-.196.597-.434.812-.714l.672.686a3.314 3.314 0 0 1-1.12.938c-.439.233-.989.35-1.652.35Zm-.098-6.328c-.327 0-.616.06-.868.182-.252.121-.462.28-.63.476-.168.196-.299.42-.392.672a2.685 2.685 0 0 0-.14.756h4.046a2.425 2.425 0 0 0-.154-.756 1.905 1.905 0 0 0-1.008-1.148 1.888 1.888 0 0 0-.854-.182Z" fill="#242E30"/><path d="M331 46H136a.5.5 0 0 0 0 1h195a.5.5 0 0 0 0-1Z" fill="#8C999B"/><path d="M4.37 129.668c-.794 0-1.438-.121-1.932-.364-.495-.243-.887-.555-1.176-.938l.756-.714c.252.308.583.551.994.728.42.177.91.266 1.47.266.252 0 .494-.028.728-.084.233-.056.438-.14.616-.252a1.25 1.25 0 0 0 .434-.476c.112-.196.168-.434.168-.714 0-.243-.056-.448-.168-.616a1.417 1.417 0 0 0-.462-.448 2.798 2.798 0 0 0-.672-.336 17.331 17.331 0 0 0-.854-.308 30.224 30.224 0 0 1-.966-.35 3.65 3.65 0 0 1-.854-.49 2.385 2.385 0 0 1-.616-.714c-.159-.289-.238-.644-.238-1.064 0-.42.074-.789.224-1.106.158-.317.373-.583.644-.798.27-.215.592-.378.966-.49.373-.112.78-.168 1.218-.168.644 0 1.218.112 1.722.336a2.9 2.9 0 0 1 1.246 1.022l-.756.742a3.06 3.06 0 0 0-.966-.77 2.858 2.858 0 0 0-1.344-.308 2.38 2.38 0 0 0-.63.084 1.534 1.534 0 0 0-.56.252 1.378 1.378 0 0 0-.406.462 1.377 1.377 0 0 0-.154.672c0 .243.056.453.168.63.112.168.261.317.448.448.196.121.424.233.686.336.261.093.546.191.854.294.326.112.648.233.966.364.317.131.602.294.854.49s.457.434.616.714c.158.28.238.63.238 1.05 0 .448-.089.84-.266 1.176a2.258 2.258 0 0 1-.7.812 2.95 2.95 0 0 1-1.036.476 4.943 4.943 0 0 1-1.26.154Zm7.853 0a3.55 3.55 0 0 1-1.358-.252 2.984 2.984 0 0 1-1.036-.714c-.28-.317-.5-.7-.658-1.148a4.767 4.767 0 0 1-.224-1.512c0-.588.079-1.106.238-1.554a3.13 3.13 0 0 1 .658-1.134c.28-.308.611-.541.994-.7a3.395 3.395 0 0 1 1.288-.238 3.6 3.6 0 0 1 1.288.224c.392.149.728.373 1.008.672.28.289.499.658.658 1.106.158.439.238.952.238 1.54 0 .075-.005.149-.014.224a.963.963 0 0 1-.014.182h-5.222c0 .327.056.635.168.924.121.28.28.527.476.742.205.205.438.369.7.49.27.121.56.182.868.182.504 0 .914-.098 1.232-.294a2.87 2.87 0 0 0 .812-.714l.672.686a3.308 3.308 0 0 1-1.12.938c-.439.233-.99.35-1.652.35Zm-.098-6.328c-.327 0-.616.061-.868.182s-.462.28-.63.476c-.168.196-.299.42-.392.672a2.7 2.7 0 0 0-.14.756h4.046a2.428 2.428 0 0 0-.154-.756 1.901 1.901 0 0 0-1.008-1.148 1.892 1.892 0 0 0-.854-.182Zm7.63 6.328c-.56 0-1.046-.103-1.457-.308a2.926 2.926 0 0 1-.994-.812 3.324 3.324 0 0 1-.574-1.148 5.072 5.072 0 0 1-.182-1.358c0-.467.06-.915.182-1.344.122-.439.308-.826.56-1.162.262-.336.593-.607.994-.812.402-.205.882-.308 1.442-.308.588 0 1.069.098 1.442.294.374.196.69.457.952.784l-.7.658a2.62 2.62 0 0 0-.714-.56c-.242-.14-.56-.21-.952-.21-.616 0-1.115.238-1.498.714-.373.467-.56 1.115-.56 1.946 0 .411.052.779.154 1.106.103.327.248.607.434.84.187.233.406.411.658.532.252.121.532.182.84.182.374 0 .696-.065.966-.196.27-.14.523-.341.756-.602l.672.672a3.19 3.19 0 0 1-.994.798c-.392.196-.868.294-1.428.294Zm6.646 0c-.55 0-1.036-.093-1.456-.28a3.104 3.104 0 0 1-1.036-.784 3.397 3.397 0 0 1-.616-1.148 4.935 4.935 0 0 1-.196-1.414c0-.504.065-.975.196-1.414a3.39 3.39 0 0 1 .616-1.148 2.95 2.95 0 0 1 1.036-.77c.42-.196.905-.294 1.456-.294.55 0 1.027.098 1.428.294.41.187.751.443 1.022.77.27.327.471.709.602 1.148.14.439.21.91.21 1.414 0 .504-.07.975-.21 1.414-.13.439-.331.821-.602 1.148-.27.327-.611.588-1.022.784-.401.187-.877.28-1.428.28Zm-2.156-3.626c0 .401.042.77.126 1.106.093.327.229.611.406.854.177.233.401.415.672.546.27.131.588.196.952.196.355 0 .663-.065.924-.196.27-.131.49-.313.658-.546.177-.243.308-.527.392-.854.093-.336.14-.705.14-1.106 0-.401-.047-.765-.14-1.092a2.322 2.322 0 0 0-.392-.854 1.667 1.667 0 0 0-.658-.56 2.038 2.038 0 0 0-.924-.196c-.364 0-.681.065-.952.196a1.78 1.78 0 0 0-.672.56 2.501 2.501 0 0 0-.406.854 4.39 4.39 0 0 0-.126 1.092Zm7.219-3.458h1.064v1.092h.084c.168-.364.406-.663.714-.896.308-.243.7-.364 1.176-.364.793 0 1.419.21 1.876.63.467.42.7 1.097.7 2.03v4.424h-1.12v-4.214c0-.709-.145-1.209-.434-1.498-.28-.299-.695-.448-1.246-.448-.532 0-.947.182-1.246.546-.299.364-.448.896-.448 1.596v4.018h-1.12v-6.916Zm10.353 7.084a2.91 2.91 0 0 1-1.26-.266 3.06 3.06 0 0 1-.966-.756 3.575 3.575 0 0 1-.63-1.162 4.857 4.857 0 0 1-.21-1.456c0-.523.07-1.003.21-1.442.15-.448.36-.831.63-1.148a2.8 2.8 0 0 1 .966-.756 2.906 2.906 0 0 1 1.26-.266c.57 0 1.06.135 1.47.406a2.3 2.3 0 0 1 .882 1.036h.084v-4.508h1.12v10.15H44.31v-1.414h-.084a2.156 2.156 0 0 1-.364.658c-.149.187-.331.35-.546.49-.205.14-.438.247-.7.322a2.783 2.783 0 0 1-.798.112Zm.28-1.008c.299 0 .579-.051.84-.154.262-.112.49-.275.686-.49.196-.224.35-.499.462-.826.112-.327.168-.709.168-1.148 0-.439-.056-.821-.168-1.148a2.285 2.285 0 0 0-.462-.812 1.761 1.761 0 0 0-.686-.49 2.11 2.11 0 0 0-.84-.168c-.308 0-.597.056-.868.168a1.879 1.879 0 0 0-.7.49c-.196.215-.35.485-.462.812a3.543 3.543 0 0 0-.168 1.148c0 .439.056.821.168 1.148.112.327.266.602.462.826.206.215.439.378.7.49.271.103.56.154.868.154Zm7.176 1.008a2.46 2.46 0 0 1-.882-.154 2.05 2.05 0 0 1-1.148-1.092 2.315 2.315 0 0 1-.154-.854c0-.597.215-1.078.644-1.442.43-.364 1.04-.569 1.834-.616l1.82-.112v-.49c0-.532-.13-.915-.392-1.148-.252-.243-.616-.364-1.092-.364-.401 0-.746.075-1.036.224a2.32 2.32 0 0 0-.672.49l-.672-.672c.243-.299.57-.541.98-.728.42-.196.896-.294 1.428-.294.476 0 .878.065 1.204.196.327.121.588.289.784.504.206.215.35.467.434.756.094.289.14.597.14.924v4.704h-1.05v-1.176h-.084a2.39 2.39 0 0 1-.784.994c-.336.233-.77.35-1.302.35Zm.168-.952c.579 0 1.046-.168 1.4-.504.364-.345.546-.803.546-1.372v-.602l-1.764.126c-.933.075-1.4.467-1.4 1.176 0 .355.112.639.336.854.234.215.528.322.882.322Zm5.306-6.132h1.064v1.12h.084a2.38 2.38 0 0 1 .644-.91c.28-.252.63-.378 1.05-.378.355 0 .668.07.938.21l-.378 1.008a1.15 1.15 0 0 0-.392-.126 1.932 1.932 0 0 0-.406-.042c-.457 0-.821.187-1.092.56-.261.364-.392.831-.392 1.4v4.074h-1.12v-6.916Zm5.657 9.562c-.103 0-.21-.009-.322-.028a1.689 1.689 0 0 1-.266-.042v-.966a3.883 3.883 0 0 0 .532.042c.187 0 .345-.014.476-.042a.693.693 0 0 0 .35-.196 1.4 1.4 0 0 0 .322-.434 6.36 6.36 0 0 0 .336-.756l-2.772-7.14h1.218l2.086 5.796h.084l2.1-5.796h1.134l-2.716 6.986c-.178.457-.35.845-.518 1.162a3.112 3.112 0 0 1-.532.798 1.724 1.724 0 0 1-.658.462c-.233.103-.518.154-.854.154Zm12.543-12.796h1.05l-3.542 11.69h-1.05l3.542-11.69Zm5.177 9.226h1.05v-7.252h-1.05v-.924h3.262v.924h-1.05v7.252h1.05v.924h-3.262v-.924Zm4.979-5.992h1.064v1.092h.084c.168-.364.406-.663.714-.896.308-.243.7-.364 1.176-.364.793 0 1.418.21 1.876.63.466.42.7 1.097.7 2.03v4.424h-1.12v-4.214c0-.709-.145-1.209-.434-1.498-.28-.299-.696-.448-1.246-.448-.532 0-.948.182-1.246.546-.299.364-.448.896-.448 1.596v4.018h-1.12v-6.916Zm6.814 0h1.218l2.086 5.768h.084l2.1-5.768h1.134l-2.688 6.916h-1.26l-2.674-6.916Zm10.654 7.084a3.56 3.56 0 0 1-1.359-.252 2.984 2.984 0 0 1-1.036-.714 3.46 3.46 0 0 1-.658-1.148 4.768 4.768 0 0 1-.224-1.512c0-.588.08-1.106.238-1.554a3.14 3.14 0 0 1 .658-1.134c.28-.308.612-.541.994-.7a3.396 3.396 0 0 1 1.288-.238c.467 0 .897.075 1.289.224.392.149.728.373 1.008.672.28.289.499.658.658 1.106.158.439.238.952.238 1.54 0 .075-.005.149-.014.224a.988.988 0 0 1-.014.182h-5.223c0 .327.056.635.168.924.122.28.28.527.476.742.206.205.439.369.7.49.271.121.56.182.869.182.504 0 .914-.098 1.232-.294.326-.196.597-.434.812-.714l.672.686a3.31 3.31 0 0 1-1.12.938c-.439.233-.99.35-1.652.35Zm-.099-6.328c-.326 0-.616.061-.868.182s-.462.28-.63.476c-.168.196-.298.42-.392.672-.084.252-.13.504-.14.756h4.047a2.454 2.454 0 0 0-.154-.756 1.901 1.901 0 0 0-1.008-1.148 1.896 1.896 0 0 0-.855-.182Zm4.998-.756h1.064v1.12h.084c.15-.364.364-.667.644-.91.28-.252.63-.378 1.05-.378.355 0 .668.07.938.21l-.378 1.008a1.148 1.148 0 0 0-.392-.126 1.928 1.928 0 0 0-.406-.042c-.457 0-.821.187-1.092.56-.261.364-.392.831-.392 1.4v4.074h-1.12v-6.916Zm8.391 5.124a.85.85 0 0 0-.14-.504 1.098 1.098 0 0 0-.392-.35 2.689 2.689 0 0 0-.546-.238c-.205-.065-.42-.131-.644-.196a6.616 6.616 0 0 1-.756-.266 2.862 2.862 0 0 1-.63-.378 1.85 1.85 0 0 1-.448-.56 1.679 1.679 0 0 1-.168-.784c0-.327.061-.616.182-.868s.289-.462.504-.63a2.22 2.22 0 0 1 .756-.378c.289-.093.602-.14.938-.14.504 0 .966.093 1.386.28.42.177.765.457 1.036.84l-.728.672a2.664 2.664 0 0 0-.728-.602c-.271-.159-.593-.238-.966-.238a2.09 2.09 0 0 0-.476.056 1.224 1.224 0 0 0-.406.182.898.898 0 0 0-.294.294.808.808 0 0 0-.112.434c0 .205.047.378.14.518.093.131.219.243.378.336.168.093.355.173.56.238.205.065.42.131.644.196.261.075.509.163.742.266.243.103.457.233.644.392.187.149.336.331.448.546.112.215.168.476.168.784 0 .364-.07.677-.21.938a1.779 1.779 0 0 1-.546.63 2.305 2.305 0 0 1-.812.364 3.712 3.712 0 0 1-.98.126c-.607 0-1.125-.103-1.554-.308a2.665 2.665 0 0 1-.994-.798l.742-.7c.215.252.462.457.742.616.289.159.649.238 1.078.238.196 0 .378-.019.546-.056.177-.037.331-.098.462-.182a.974.974 0 0 0 .308-.308.837.837 0 0 0 .126-.462Zm5.727 1.96c-.494 0-.947-.084-1.358-.252a2.993 2.993 0 0 1-1.036-.714 3.46 3.46 0 0 1-.658-1.148 4.776 4.776 0 0 1-.224-1.512c0-.588.08-1.106.238-1.554.159-.457.378-.835.658-1.134.28-.308.612-.541.994-.7a3.398 3.398 0 0 1 1.288-.238c.467 0 .896.075 1.288.224.392.149.728.373 1.008.672.28.289.5.658.658 1.106.159.439.238.952.238 1.54 0 .075-.004.149-.014.224a.907.907 0 0 1-.014.182h-5.222c0 .327.056.635.168.924.122.28.28.527.476.742.206.205.439.369.7.49.271.121.56.182.868.182.504 0 .915-.098 1.232-.294.327-.196.598-.434.812-.714l.672.686a3.301 3.301 0 0 1-1.12.938c-.438.233-.989.35-1.652.35Zm-.098-6.328c-.326 0-.616.061-.868.182s-.462.28-.63.476c-.168.196-.298.42-.392.672-.084.252-.13.504-.14.756h4.046a2.397 2.397 0 0 0-.154-.756 1.901 1.901 0 0 0-1.008-1.148 1.889 1.889 0 0 0-.854-.182Z" fill="#242E30"/><path d="M319 124H128a.5.5 0 0 0 0 1h191a.5.5 0 0 0 0-1Z" fill="#8C999B"/><path d="M5.54 207.668c-.71 0-1.335-.126-1.877-.378a3.962 3.962 0 0 1-1.344-1.022 4.417 4.417 0 0 1-.826-1.498 6.278 6.278 0 0 1-.266-1.848c0-.653.089-1.265.266-1.834a4.27 4.27 0 0 1 .826-1.484 3.816 3.816 0 0 1 1.344-1.008c.542-.243 1.167-.364 1.876-.364.7 0 1.316.121 1.848.364a3.78 3.78 0 0 1 1.358 1.008c.364.42.635.915.812 1.484.187.569.28 1.181.28 1.834s-.093 1.269-.28 1.848a4.235 4.235 0 0 1-.812 1.498c-.364.429-.816.77-1.358 1.022-.532.252-1.148.378-1.848.378Zm0-1.022c.447 0 .858-.084 1.231-.252a2.7 2.7 0 0 0 .98-.728c.27-.317.48-.705.63-1.162a4.9 4.9 0 0 0 .238-1.582c0-.588-.08-1.111-.238-1.568a3.26 3.26 0 0 0-.63-1.148 2.567 2.567 0 0 0-.98-.714 3.112 3.112 0 0 0-1.232-.238c-.448 0-.863.079-1.246.238-.382.159-.71.397-.98.714-.27.308-.485.691-.644 1.148-.15.457-.224.98-.224 1.568 0 .588.075 1.115.224 1.582.159.457.374.845.644 1.162.27.317.598.56.98.728.383.168.798.252 1.246.252Zm8.592 1.022c-.383 0-.728-.051-1.036-.154a2.093 2.093 0 0 1-.798-.476 2.21 2.21 0 0 1-.504-.826c-.122-.336-.182-.737-.182-1.204v-4.424h1.12v4.214c0 .709.135 1.213.406 1.512.28.289.686.434 1.218.434.504 0 .9-.182 1.19-.546.299-.364.448-.896.448-1.596v-4.018h1.12v6.916H16.05v-1.092h-.084a2.51 2.51 0 0 1-.7.91c-.29.233-.668.35-1.134.35Zm7.486 0c-.625 0-1.083-.187-1.372-.56-.29-.373-.434-.887-.434-1.54v-4.074H18.58v-.91h1.232v-1.876h1.106v1.876h2.002v.91h-2.002v3.976c0 .448.084.761.252.938a.912.912 0 0 0 .672.266c.187 0 .355-.033.504-.098.15-.075.29-.173.42-.294l.504.784c-.43.401-.98.602-1.652.602Zm3.177-10.318h1.12v10.15h-1.12v-10.15Zm4.802 1.4c0 .196-.07.364-.21.504-.13.14-.308.21-.532.21-.234 0-.416-.07-.546-.21a.713.713 0 0 1-.196-.504c0-.187.065-.35.196-.49.13-.149.312-.224.546-.224.224 0 .401.075.532.224.14.14.21.303.21.49Zm-1.302 1.834h1.12v6.916h-1.12v-6.916Zm3.5 0h1.064v1.092h.084c.168-.364.406-.663.714-.896.308-.243.7-.364 1.176-.364.793 0 1.418.21 1.876.63.466.42.7 1.097.7 2.03v4.424h-1.12v-4.214c0-.709-.145-1.209-.434-1.498-.28-.299-.696-.448-1.246-.448-.532 0-.948.182-1.246.546-.299.364-.448.896-.448 1.596v4.018h-1.12v-6.916Zm10.563 7.084c-.495 0-.947-.084-1.358-.252a2.984 2.984 0 0 1-1.036-.714c-.28-.317-.5-.7-.658-1.148a4.768 4.768 0 0 1-.224-1.512c0-.588.08-1.106.238-1.554a3.14 3.14 0 0 1 .658-1.134c.28-.308.611-.541.994-.7a3.395 3.395 0 0 1 1.288-.238c.467 0 .896.075 1.288.224.392.149.728.373 1.008.672.28.289.5.658.658 1.106.159.439.238.952.238 1.54 0 .075-.005.149-.014.224a.963.963 0 0 1-.014.182h-5.222c0 .327.056.635.168.924.121.28.28.527.476.742.205.205.439.369.7.49.27.121.56.182.868.182.504 0 .915-.098 1.232-.294.327-.196.597-.434.812-.714l.672.686a3.308 3.308 0 0 1-1.12.938c-.439.233-.99.35-1.652.35Zm-.098-6.328c-.327 0-.616.061-.868.182s-.462.28-.63.476c-.168.196-.299.42-.392.672-.084.252-.13.504-.14.756h4.046a2.425 2.425 0 0 0-.154-.756 1.901 1.901 0 0 0-1.008-1.148 1.892 1.892 0 0 0-.854-.182Zm10.797-3.99h1.05l-3.542 11.69h-1.05l3.542-11.69Zm9.643 10.318c-.7 0-1.316-.126-1.848-.378a3.962 3.962 0 0 1-1.344-1.022 4.726 4.726 0 0 1-.812-1.512 6.228 6.228 0 0 1-.266-1.834c0-.644.09-1.246.266-1.806a4.498 4.498 0 0 1 .784-1.498 3.683 3.683 0 0 1 1.33-1.008c.532-.252 1.148-.378 1.848-.378.7 0 1.321.126 1.862.378a3.91 3.91 0 0 1 1.358.994l-.784.728c-.27-.327-.634-.583-1.092-.77a3.392 3.392 0 0 0-1.372-.294 2.743 2.743 0 0 0-2.184 1.036c-.252.317-.448.7-.588 1.148-.14.448-.21.938-.21 1.47 0 .513.07.999.21 1.456.15.448.355.84.616 1.176.262.336.574.602.938.798.374.187.789.28 1.246.28.56 0 1.06-.07 1.498-.21a2.744 2.744 0 0 0 1.078-.644v-2.086h-2.548v-1.008h3.696v3.528a2.997 2.997 0 0 1-.644.574c-.261.177-.55.331-.868.462a5.599 5.599 0 0 1-1.036.308 5.606 5.606 0 0 1-1.134.112Zm5.831-10.318h1.12v4.214h.084c.159-.317.387-.588.686-.812.299-.224.681-.336 1.148-.336.793 0 1.419.21 1.876.63.467.42.7 1.097.7 2.03v4.424h-1.12v-4.214c0-.709-.145-1.209-.434-1.498-.28-.299-.695-.448-1.246-.448-.532 0-.947.182-1.246.546-.299.364-.448.896-.448 1.596v4.018h-1.12v-10.15Zm10.523 10.318c-.55 0-1.036-.093-1.456-.28a3.103 3.103 0 0 1-1.036-.784 3.395 3.395 0 0 1-.616-1.148 4.932 4.932 0 0 1-.196-1.414c0-.504.065-.975.196-1.414a3.39 3.39 0 0 1 .616-1.148 2.95 2.95 0 0 1 1.036-.77c.42-.196.905-.294 1.456-.294.55 0 1.027.098 1.428.294.41.187.751.443 1.022.77.27.327.471.709.602 1.148.14.439.21.91.21 1.414 0 .504-.07.975-.21 1.414-.13.439-.331.821-.602 1.148a2.96 2.96 0 0 1-1.022.784c-.401.187-.877.28-1.428.28Zm-2.156-3.626c0 .401.042.77.126 1.106.093.327.229.611.406.854.177.233.401.415.672.546.27.131.588.196.952.196.355 0 .663-.065.924-.196.27-.131.49-.313.658-.546.177-.243.308-.527.392-.854.093-.336.14-.705.14-1.106 0-.401-.047-.765-.14-1.092a2.323 2.323 0 0 0-.392-.854 1.668 1.668 0 0 0-.658-.56 2.039 2.039 0 0 0-.924-.196c-.364 0-.681.065-.952.196a1.78 1.78 0 0 0-.672.56 2.498 2.498 0 0 0-.406.854 4.39 4.39 0 0 0-.126 1.092Zm10.551 1.666a.848.848 0 0 0-.14-.504 1.1 1.1 0 0 0-.392-.35 2.67 2.67 0 0 0-.546-.238 27.72 27.72 0 0 0-.644-.196 6.576 6.576 0 0 1-.756-.266 2.848 2.848 0 0 1-.63-.378 1.856 1.856 0 0 1-.448-.56 1.679 1.679 0 0 1-.168-.784c0-.327.06-.616.182-.868.121-.252.29-.462.504-.63a2.22 2.22 0 0 1 .756-.378c.29-.093.602-.14.938-.14.504 0 .966.093 1.386.28.42.177.765.457 1.036.84l-.728.672a2.669 2.669 0 0 0-.728-.602c-.27-.159-.593-.238-.966-.238a2.09 2.09 0 0 0-.476.056c-.15.037-.285.098-.406.182a.812.812 0 0 0-.406.728c0 .205.047.378.14.518a1.2 1.2 0 0 0 .378.336c.168.093.355.173.56.238.205.065.42.131.644.196.261.075.509.163.742.266.243.103.457.233.644.392.187.149.336.331.448.546.112.215.168.476.168.784 0 .364-.07.677-.21.938a1.77 1.77 0 0 1-.546.63 2.307 2.307 0 0 1-.812.364 3.71 3.71 0 0 1-.98.126c-.607 0-1.125-.103-1.554-.308a2.662 2.662 0 0 1-.994-.798l.742-.7c.215.252.462.457.742.616.29.159.649.238 1.078.238.196 0 .378-.019.546-.056a1.36 1.36 0 0 0 .462-.182.973.973 0 0 0 .308-.308.837.837 0 0 0 .126-.462Zm5.154 1.96c-.626 0-1.083-.187-1.372-.56-.29-.373-.434-.887-.434-1.54v-4.074h-1.233v-.91h1.233v-1.876h1.106v1.876h2.001v.91h-2.001v3.976c0 .448.083.761.251.938a.912.912 0 0 0 .672.266c.187 0 .355-.033.505-.098.149-.075.289-.173.42-.294l.503.784c-.429.401-.98.602-1.651.602Zm8.975-10.318h1.05l-3.542 11.69h-1.05l3.542-11.69Zm5.934 1.05h2.968c1.325 0 2.342.401 3.052 1.204.709.803 1.064 1.923 1.064 3.36 0 .7-.094 1.33-.28 1.89a3.864 3.864 0 0 1-.826 1.428 3.591 3.591 0 0 1-1.316.91c-.514.205-1.097.308-1.75.308h-2.912v-9.1Zm3.052 8.092a2.75 2.75 0 0 0 1.162-.238c.345-.168.639-.401.882-.7a3.2 3.2 0 0 0 .574-1.106c.13-.439.196-.933.196-1.484 0-1.129-.248-2.002-.742-2.618-.486-.625-1.167-.938-2.044-.938h-1.89v7.084h1.862Zm8.657 1.176c-.495 0-.947-.084-1.358-.252a2.984 2.984 0 0 1-1.036-.714 3.46 3.46 0 0 1-.658-1.148 4.776 4.776 0 0 1-.224-1.512c0-.588.079-1.106.238-1.554.159-.457.378-.835.658-1.134.28-.308.611-.541.994-.7a3.394 3.394 0 0 1 1.288-.238c.467 0 .896.075 1.288.224.392.149.728.373 1.008.672.28.289.499.658.658 1.106.159.439.238.952.238 1.54 0 .075-.005.149-.014.224a.988.988 0 0 1-.014.182h-5.222c0 .327.056.635.168.924.121.28.28.527.476.742.205.205.439.369.7.49.271.121.56.182.868.182.504 0 .915-.098 1.232-.294.327-.196.597-.434.812-.714l.672.686a3.31 3.31 0 0 1-1.12.938c-.439.233-.989.35-1.652.35Zm-.098-6.328c-.327 0-.616.061-.868.182s-.462.28-.63.476c-.168.196-.299.42-.392.672a2.685 2.685 0 0 0-.14.756h4.046a2.425 2.425 0 0 0-.154-.756 1.901 1.901 0 0 0-1.008-1.148 1.892 1.892 0 0 0-.854-.182Zm8.33 4.368a.85.85 0 0 0-.14-.504 1.106 1.106 0 0 0-.392-.35 2.689 2.689 0 0 0-.546-.238c-.206-.065-.42-.131-.644-.196a6.483 6.483 0 0 1-.756-.266 2.816 2.816 0 0 1-.63-.378 1.85 1.85 0 0 1-.448-.56 1.679 1.679 0 0 1-.168-.784c0-.327.06-.616.182-.868.121-.252.289-.462.504-.63.214-.168.466-.294.756-.378.289-.093.602-.14.938-.14.504 0 .966.093 1.386.28.42.177.765.457 1.036.84l-.728.672a2.68 2.68 0 0 0-.728-.602c-.271-.159-.593-.238-.966-.238-.159 0-.318.019-.476.056-.15.037-.285.098-.406.182a.88.88 0 0 0-.294.294.808.808 0 0 0-.112.434c0 .205.046.378.14.518.093.131.219.243.378.336.168.093.354.173.56.238.205.065.42.131.644.196.261.075.508.163.742.266.242.103.457.233.644.392.186.149.336.331.448.546.112.215.168.476.168.784 0 .364-.07.677-.21.938a1.779 1.779 0 0 1-.546.63 2.313 2.313 0 0 1-.812.364 3.712 3.712 0 0 1-.98.126c-.607 0-1.125-.103-1.554-.308a2.657 2.657 0 0 1-.994-.798l.742-.7c.214.252.462.457.742.616.289.159.648.238 1.078.238.196 0 .378-.019.546-.056.177-.037.331-.098.462-.182a.984.984 0 0 0 .308-.308.837.837 0 0 0 .126-.462Zm5.153 1.96c-.625 0-1.083-.187-1.372-.56-.289-.373-.434-.887-.434-1.54v-4.074h-1.232v-.91h1.232v-1.876h1.106v1.876h2.002v.91h-2.002v3.976c0 .448.084.761.252.938a.911.911 0 0 0 .672.266c.187 0 .355-.033.504-.098.149-.075.289-.173.42-.294l.504.784c-.429.401-.98.602-1.652.602Zm3.177-7.084h1.064v1.12h.084c.149-.364.364-.667.644-.91.28-.252.63-.378 1.05-.378.354 0 .667.07.938.21l-.378 1.008a1.155 1.155 0 0 0-.392-.126 1.935 1.935 0 0 0-.406-.042 1.28 1.28 0 0 0-1.092.56c-.262.364-.392.831-.392 1.4v4.074h-1.12v-6.916Zm7.602 7.084c-.382 0-.728-.051-1.036-.154a2.093 2.093 0 0 1-.798-.476 2.227 2.227 0 0 1-.504-.826c-.121-.336-.182-.737-.182-1.204v-4.424h1.12v4.214c0 .709.136 1.213.406 1.512.28.289.686.434 1.218.434.504 0 .901-.182 1.19-.546.299-.364.448-.896.448-1.596v-4.018h1.12v6.916h-1.064v-1.092h-.084a2.507 2.507 0 0 1-.7.91c-.289.233-.667.35-1.134.35Zm7.991 0c-.56 0-1.046-.103-1.456-.308a2.915 2.915 0 0 1-.994-.812 3.305 3.305 0 0 1-.574-1.148 5.044 5.044 0 0 1-.182-1.358c0-.467.06-.915.182-1.344.121-.439.308-.826.56-1.162.261-.336.592-.607.994-.812.401-.205.882-.308 1.442-.308.588 0 1.068.098 1.442.294.373.196.69.457.952.784l-.7.658a2.62 2.62 0 0 0-.714-.56c-.243-.14-.56-.21-.952-.21a1.83 1.83 0 0 0-1.498.714c-.374.467-.56 1.115-.56 1.946 0 .411.051.779.154 1.106.102.327.247.607.434.84.186.233.406.411.658.532.252.121.532.182.84.182.373 0 .695-.065.966-.196.27-.14.522-.341.756-.602l.672.672a3.201 3.201 0 0 1-.994.798c-.392.196-.868.294-1.428.294Zm6.181 0c-.625 0-1.082-.187-1.372-.56-.289-.373-.434-.887-.434-1.54v-4.074h-1.232v-.91h1.232v-1.876h1.106v1.876h2.002v.91h-2.002v3.976c0 .448.084.761.252.938a.914.914 0 0 0 .672.266c.187 0 .355-.033.504-.098.15-.075.29-.173.42-.294l.504.784c-.429.401-.98.602-1.652.602Zm4.479-8.918c0 .196-.07.364-.21.504-.131.14-.308.21-.532.21-.233 0-.415-.07-.546-.21a.711.711 0 0 1-.196-.504c0-.187.065-.35.196-.49.131-.149.313-.224.546-.224.224 0 .401.075.532.224.14.14.21.303.21.49Zm-1.302 1.834h1.12v6.916h-1.12v-6.916Zm2.59 0h1.218l2.086 5.768h.084l2.1-5.768h1.134l-2.688 6.916h-1.26l-2.674-6.916Zm10.653 7.084c-.495 0-.947-.084-1.358-.252a2.984 2.984 0 0 1-1.036-.714 3.46 3.46 0 0 1-.658-1.148 4.776 4.776 0 0 1-.224-1.512c0-.588.079-1.106.238-1.554.159-.457.378-.835.658-1.134.28-.308.611-.541.994-.7a3.394 3.394 0 0 1 1.288-.238c.467 0 .896.075 1.288.224.392.149.728.373 1.008.672.28.289.499.658.658 1.106.159.439.238.952.238 1.54 0 .075-.005.149-.014.224a.988.988 0 0 1-.014.182h-5.222c0 .327.056.635.168.924.121.28.28.527.476.742.205.205.439.369.7.49.271.121.56.182.868.182.504 0 .915-.098 1.232-.294.327-.196.597-.434.812-.714l.672.686a3.31 3.31 0 0 1-1.12.938c-.439.233-.989.35-1.652.35Zm-.098-6.328c-.327 0-.616.061-.868.182s-.462.28-.63.476c-.168.196-.299.42-.392.672a2.685 2.685 0 0 0-.14.756h4.046a2.425 2.425 0 0 0-.154-.756 1.901 1.901 0 0 0-1.008-1.148 1.892 1.892 0 0 0-.854-.182Zm11.119 8.918c-.598 0-1.116-.107-1.554-.322-.439-.205-.789-.462-1.05-.77l.742-.714c.196.243.448.434.756.574.317.149.667.224 1.05.224.597 0 1.064-.145 1.4-.434.345-.289.518-.798.518-1.526v-1.344h-.084a2.132 2.132 0 0 1-.322.63c-.14.177-.308.331-.504.462a2.645 2.645 0 0 1-.63.294 2.452 2.452 0 0 1-.686.098c-.439 0-.84-.079-1.204-.238a2.789 2.789 0 0 1-.938-.686 3.385 3.385 0 0 1-.616-1.12 4.871 4.871 0 0 1-.21-1.484c0-.541.07-1.027.21-1.456.149-.429.354-.793.616-1.092a2.837 2.837 0 0 1 2.142-.938c.513 0 .97.135 1.372.406.41.261.686.625.826 1.092h.084v-1.33h1.064v6.846c0 .849-.257 1.531-.77 2.044-.504.523-1.242.784-2.212.784Zm-.14-3.836c.616 0 1.101-.215 1.456-.644.364-.429.546-1.05.546-1.862 0-.821-.182-1.442-.546-1.862-.355-.42-.84-.63-1.456-.63-.626 0-1.125.21-1.498.63-.364.42-.546 1.041-.546 1.862 0 .812.182 1.433.546 1.862.373.429.872.644 1.498.644Zm5.503-9.072h1.12v4.214h.084c.159-.317.387-.588.686-.812.299-.224.681-.336 1.148-.336.793 0 1.419.21 1.876.63.467.42.7 1.097.7 2.03v4.424h-1.12v-4.214c0-.709-.145-1.209-.434-1.498-.28-.299-.695-.448-1.246-.448-.532 0-.947.182-1.246.546-.299.364-.448.896-.448 1.596v4.018h-1.12v-10.15Zm10.523 10.318c-.551 0-1.036-.093-1.456-.28a3.1 3.1 0 0 1-1.036-.784 3.39 3.39 0 0 1-.616-1.148 4.921 4.921 0 0 1-.196-1.414c0-.504.065-.975.196-1.414a3.39 3.39 0 0 1 .616-1.148 2.95 2.95 0 0 1 1.036-.77c.42-.196.905-.294 1.456-.294.551 0 1.027.098 1.428.294a2.82 2.82 0 0 1 1.022.77c.271.327.471.709.602 1.148.14.439.21.91.21 1.414 0 .504-.07.975-.21 1.414a3.214 3.214 0 0 1-.602 1.148 2.958 2.958 0 0 1-1.022.784c-.401.187-.877.28-1.428.28Zm-2.156-3.626c0 .401.042.77.126 1.106.093.327.229.611.406.854.177.233.401.415.672.546.271.131.588.196.952.196.355 0 .663-.065.924-.196.271-.131.49-.313.658-.546.177-.243.308-.527.392-.854.093-.336.14-.705.14-1.106 0-.401-.047-.765-.14-1.092a2.328 2.328 0 0 0-.392-.854 1.665 1.665 0 0 0-.658-.56 2.037 2.037 0 0 0-.924-.196c-.364 0-.681.065-.952.196a1.772 1.772 0 0 0-.672.56 2.5 2.5 0 0 0-.406.854 4.39 4.39 0 0 0-.126 1.092Zm10.551 1.666a.85.85 0 0 0-.14-.504 1.106 1.106 0 0 0-.392-.35 2.689 2.689 0 0 0-.546-.238c-.206-.065-.42-.131-.644-.196a6.483 6.483 0 0 1-.756-.266 2.816 2.816 0 0 1-.63-.378 1.85 1.85 0 0 1-.448-.56 1.679 1.679 0 0 1-.168-.784c0-.327.06-.616.182-.868.121-.252.289-.462.504-.63.214-.168.466-.294.756-.378.289-.093.602-.14.938-.14.504 0 .966.093 1.386.28.42.177.765.457 1.036.84l-.728.672a2.68 2.68 0 0 0-.728-.602c-.271-.159-.593-.238-.966-.238-.159 0-.318.019-.476.056-.15.037-.285.098-.406.182a.88.88 0 0 0-.294.294.808.808 0 0 0-.112.434c0 .205.046.378.14.518.093.131.219.243.378.336.168.093.354.173.56.238.205.065.42.131.644.196.261.075.508.163.742.266.242.103.457.233.644.392.186.149.336.331.448.546.112.215.168.476.168.784 0 .364-.07.677-.21.938a1.779 1.779 0 0 1-.546.63 2.313 2.313 0 0 1-.812.364 3.712 3.712 0 0 1-.98.126c-.607 0-1.125-.103-1.554-.308a2.657 2.657 0 0 1-.994-.798l.742-.7c.214.252.462.457.742.616.289.159.648.238 1.078.238.196 0 .378-.019.546-.056.177-.037.331-.098.462-.182a.984.984 0 0 0 .308-.308.837.837 0 0 0 .126-.462Zm5.153 1.96c-.625 0-1.082-.187-1.372-.56-.289-.373-.434-.887-.434-1.54v-4.074h-1.232v-.91h1.232v-1.876h1.106v1.876h2.002v.91h-2.002v3.976c0 .448.084.761.252.938a.914.914 0 0 0 .672.266c.187 0 .355-.033.504-.098.15-.075.29-.173.42-.294l.504.784c-.429.401-.98.602-1.652.602Zm-213.4 18.908h1.05v-7.252h-1.05v-.924h3.261v.924h-1.05v7.252h1.05v.924H1.031v-.924Zm4.978-5.992h1.064v1.092h.084c.168-.364.406-.663.714-.896.308-.243.7-.364 1.176-.364.793 0 1.418.21 1.876.63.466.42.7 1.097.7 2.03v4.424h-1.12v-4.214c0-.709-.145-1.209-.434-1.498-.28-.299-.696-.448-1.246-.448-.532 0-.948.182-1.246.546-.3.364-.448.896-.448 1.596v4.018H6.01v-6.916Zm6.814 0h1.218l2.086 5.768h.084l2.1-5.768h1.134l-2.688 6.916h-1.26l-2.674-6.916Zm10.653 7.084c-.494 0-.947-.084-1.358-.252a2.985 2.985 0 0 1-1.036-.714c-.28-.317-.5-.7-.658-1.148a4.768 4.768 0 0 1-.224-1.512c0-.588.08-1.106.238-1.554a3.14 3.14 0 0 1 .658-1.134c.28-.308.612-.541.994-.7a3.395 3.395 0 0 1 1.288-.238c.467 0 .896.075 1.288.224.392.149.728.373 1.008.672.28.289.5.658.658 1.106.159.439.238.952.238 1.54 0 .075-.005.149-.014.224a.954.954 0 0 1-.014.182h-5.222c0 .327.056.635.168.924.122.28.28.527.476.742.206.205.439.369.7.49.27.121.56.182.868.182.504 0 .915-.098 1.232-.294.327-.196.598-.434.812-.714l.672.686a3.307 3.307 0 0 1-1.12.938c-.438.233-.99.35-1.652.35Zm-.098-6.328c-.326 0-.616.061-.868.182s-.462.28-.63.476c-.168.196-.298.42-.392.672a2.7 2.7 0 0 0-.14.756h4.046a2.423 2.423 0 0 0-.154-.756 1.9 1.9 0 0 0-1.008-1.148 1.892 1.892 0 0 0-.854-.182Zm4.998-.756h1.064v1.12h.084c.149-.364.364-.667.644-.91.28-.252.63-.378 1.05-.378.354 0 .667.07.938.21l-.378 1.008a1.15 1.15 0 0 0-.392-.126 1.933 1.933 0 0 0-.406-.042 1.28 1.28 0 0 0-1.092.56c-.261.364-.392.831-.392 1.4v4.074h-1.12v-6.916Zm8.39 5.124a.848.848 0 0 0-.14-.504 1.1 1.1 0 0 0-.392-.35 2.673 2.673 0 0 0-.546-.238c-.205-.065-.42-.131-.644-.196a6.576 6.576 0 0 1-.756-.266 2.848 2.848 0 0 1-.63-.378 1.855 1.855 0 0 1-.448-.56 1.679 1.679 0 0 1-.168-.784c0-.327.061-.616.182-.868.122-.252.29-.462.504-.63a2.22 2.22 0 0 1 .756-.378c.29-.093.602-.14.938-.14.504 0 .966.093 1.386.28.42.177.766.457 1.036.84l-.728.672a2.669 2.669 0 0 0-.728-.602c-.27-.159-.592-.238-.966-.238a2.09 2.09 0 0 0-.476.056 1.234 1.234 0 0 0-.406.182.892.892 0 0 0-.294.294.81.81 0 0 0-.112.434c0 .205.047.378.14.518.094.131.22.243.378.336.168.093.355.173.56.238.206.065.42.131.644.196.262.075.509.163.742.266.243.103.458.233.644.392.187.149.336.331.448.546.112.215.168.476.168.784 0 .364-.07.677-.21.938-.13.252-.312.462-.546.63a2.307 2.307 0 0 1-.812.364 3.71 3.71 0 0 1-.98.126c-.606 0-1.124-.103-1.554-.308a2.663 2.663 0 0 1-.994-.798l.742-.7c.215.252.462.457.742.616.29.159.649.238 1.078.238.196 0 .378-.019.546-.056a1.36 1.36 0 0 0 .462-.182.974.974 0 0 0 .308-.308.837.837 0 0 0 .126-.462Zm5.728 1.96a3.55 3.55 0 0 1-1.358-.252 2.984 2.984 0 0 1-1.036-.714c-.28-.317-.5-.7-.658-1.148a4.768 4.768 0 0 1-.224-1.512c0-.588.079-1.106.238-1.554a3.14 3.14 0 0 1 .658-1.134c.28-.308.611-.541.994-.7a3.395 3.395 0 0 1 1.288-.238 3.6 3.6 0 0 1 1.288.224c.392.149.728.373 1.008.672.28.289.499.658.658 1.106.158.439.238.952.238 1.54 0 .075-.005.149-.014.224a.963.963 0 0 1-.014.182h-5.222c0 .327.056.635.168.924.121.28.28.527.476.742.205.205.438.369.7.49.27.121.56.182.868.182.504 0 .914-.098 1.232-.294.326-.196.597-.434.812-.714l.672.686a3.308 3.308 0 0 1-1.12.938c-.439.233-.99.35-1.652.35Zm-.098-6.328c-.327 0-.616.061-.868.182a1.9 1.9 0 0 0-.63.476c-.168.196-.299.42-.392.672a2.685 2.685 0 0 0-.14.756h4.046a2.426 2.426 0 0 0-.154-.756 1.901 1.901 0 0 0-1.008-1.148 1.892 1.892 0 0 0-.854-.182Zm11.119 8.918c-.598 0-1.116-.107-1.554-.322-.44-.205-.79-.462-1.05-.77l.742-.714c.196.243.448.434.756.574a2.44 2.44 0 0 0 1.05.224c.597 0 1.064-.145 1.4-.434.345-.289.518-.798.518-1.526v-1.344h-.084a2.125 2.125 0 0 1-.322.63c-.14.177-.308.331-.504.462a2.634 2.634 0 0 1-.63.294 2.45 2.45 0 0 1-.686.098c-.44 0-.84-.079-1.204-.238a2.798 2.798 0 0 1-.938-.686 3.401 3.401 0 0 1-.616-1.12 4.871 4.871 0 0 1-.21-1.484c0-.541.07-1.027.21-1.456a3.27 3.27 0 0 1 .616-1.092 2.838 2.838 0 0 1 2.142-.938c.513 0 .97.135 1.372.406.41.261.686.625.826 1.092h.084v-1.33h1.064v6.846c0 .849-.257 1.531-.77 2.044-.504.523-1.242.784-2.212.784Zm-.14-3.836c.616 0 1.1-.215 1.456-.644.364-.429.546-1.05.546-1.862 0-.821-.182-1.442-.546-1.862-.355-.42-.84-.63-1.456-.63-.626 0-1.125.21-1.498.63-.364.42-.546 1.041-.546 1.862 0 .812.182 1.433.546 1.862.373.429.872.644 1.498.644Zm5.503-9.072h1.12v4.214h.084c.158-.317.387-.588.686-.812.298-.224.681-.336 1.148-.336.793 0 1.418.21 1.876.63.466.42.7 1.097.7 2.03v4.424h-1.12v-4.214c0-.709-.145-1.209-.434-1.498-.28-.299-.696-.448-1.246-.448-.532 0-.948.182-1.246.546-.299.364-.448.896-.448 1.596v4.018h-1.12v-10.15Zm10.523 10.318c-.551 0-1.036-.093-1.456-.28a3.104 3.104 0 0 1-1.036-.784 3.397 3.397 0 0 1-.616-1.148 4.935 4.935 0 0 1-.196-1.414c0-.504.065-.975.196-1.414a3.39 3.39 0 0 1 .616-1.148 2.95 2.95 0 0 1 1.036-.77c.42-.196.905-.294 1.456-.294.55 0 1.026.098 1.428.294.41.187.751.443 1.022.77.27.327.471.709.602 1.148.14.439.21.91.21 1.414 0 .504-.07.975-.21 1.414-.13.439-.332.821-.602 1.148-.27.327-.612.588-1.022.784-.402.187-.878.28-1.428.28Zm-2.156-3.626c0 .401.042.77.126 1.106.093.327.228.611.406.854.177.233.401.415.672.546.27.131.588.196.952.196.354 0 .662-.065.924-.196.27-.131.49-.313.658-.546.177-.243.308-.527.392-.854.093-.336.14-.705.14-1.106 0-.401-.047-.765-.14-1.092a2.322 2.322 0 0 0-.392-.854 1.667 1.667 0 0 0-.658-.56 2.039 2.039 0 0 0-.924-.196 2.16 2.16 0 0 0-.952.196 1.78 1.78 0 0 0-.672.56 2.501 2.501 0 0 0-.406.854 4.39 4.39 0 0 0-.126 1.092Zm10.55 1.666a.848.848 0 0 0-.14-.504 1.1 1.1 0 0 0-.391-.35 2.674 2.674 0 0 0-.546-.238c-.206-.065-.42-.131-.644-.196a6.578 6.578 0 0 1-.756-.266 2.847 2.847 0 0 1-.63-.378 1.855 1.855 0 0 1-.448-.56 1.679 1.679 0 0 1-.168-.784c0-.327.06-.616.182-.868.121-.252.289-.462.504-.63.214-.168.466-.294.756-.378.289-.093.602-.14.938-.14.504 0 .966.093 1.386.28.42.177.765.457 1.036.84l-.728.672a2.669 2.669 0 0 0-.728-.602c-.271-.159-.593-.238-.966-.238a2.09 2.09 0 0 0-.476.056c-.15.037-.285.098-.406.182a.893.893 0 0 0-.294.294.81.81 0 0 0-.112.434c0 .205.046.378.14.518a1.2 1.2 0 0 0 .378.336c.168.093.354.173.56.238.205.065.42.131.644.196.261.075.508.163.742.266.242.103.457.233.644.392.186.149.336.331.448.546.112.215.168.476.168.784 0 .364-.07.677-.21.938a1.779 1.779 0 0 1-.546.63 2.307 2.307 0 0 1-.812.364 3.71 3.71 0 0 1-.98.126c-.607 0-1.125-.103-1.554-.308a2.663 2.663 0 0 1-.994-.798l.742-.7c.214.252.462.457.742.616.289.159.648.238 1.078.238.196 0 .378-.019.546-.056a1.36 1.36 0 0 0 .462-.182.974.974 0 0 0 .308-.308.837.837 0 0 0 .126-.462Zm5.154 1.96c-.625 0-1.083-.187-1.372-.56-.29-.373-.434-.887-.434-1.54v-4.074h-1.232v-.91h1.232v-1.876h1.106v1.876h2.002v.91H82.25v3.976c0 .448.084.761.252.938a.912.912 0 0 0 .672.266c.187 0 .355-.033.504-.098.15-.075.29-.173.42-.294l.504.784c-.43.401-.98.602-1.652.602Zm8.976-10.318h1.05l-3.542 11.69h-1.05l3.542-11.69Zm5.178 9.226h1.05v-7.252h-1.05v-.924h3.262v.924h-1.05v7.252h1.05v.924h-3.262v-.924Zm4.978-5.992h1.064v1.092h.084c.168-.364.406-.663.714-.896.308-.243.7-.364 1.176-.364.793 0 1.418.21 1.876.63.466.42.7 1.097.7 2.03v4.424h-1.12v-4.214c0-.709-.145-1.209-.434-1.498-.28-.299-.696-.448-1.246-.448-.532 0-.948.182-1.246.546-.299.364-.448.896-.448 1.596v4.018h-1.12v-6.916Zm6.814 0h1.218l2.086 5.768h.084l2.1-5.768h1.134l-2.688 6.916h-1.26l-2.674-6.916Zm10.653 7.084c-.494 0-.947-.084-1.358-.252a2.993 2.993 0 0 1-1.036-.714 3.46 3.46 0 0 1-.658-1.148 4.776 4.776 0 0 1-.224-1.512c0-.588.08-1.106.238-1.554.159-.457.378-.835.658-1.134.28-.308.612-.541.994-.7a3.398 3.398 0 0 1 1.288-.238c.467 0 .896.075 1.288.224.392.149.728.373 1.008.672.28.289.5.658.658 1.106.159.439.238.952.238 1.54 0 .075-.004.149-.014.224a.907.907 0 0 1-.014.182h-5.222c0 .327.056.635.168.924.122.28.28.527.476.742.206.205.439.369.7.49.271.121.56.182.868.182.504 0 .915-.098 1.232-.294.327-.196.598-.434.812-.714l.672.686a3.301 3.301 0 0 1-1.12.938c-.438.233-.989.35-1.652.35Zm-.098-6.328c-.326 0-.616.061-.868.182s-.462.28-.63.476c-.168.196-.298.42-.392.672-.084.252-.13.504-.14.756h4.046a2.397 2.397 0 0 0-.154-.756 1.901 1.901 0 0 0-1.008-1.148 1.889 1.889 0 0 0-.854-.182Zm4.998-.756h1.064v1.12h.084c.149-.364.364-.667.644-.91.28-.252.63-.378 1.05-.378.354 0 .667.07.938.21l-.378 1.008a1.155 1.155 0 0 0-.392-.126 1.935 1.935 0 0 0-.406-.042 1.28 1.28 0 0 0-1.092.56c-.262.364-.392.831-.392 1.4v4.074h-1.12v-6.916Zm8.39 5.124a.844.844 0 0 0-.14-.504 1.098 1.098 0 0 0-.392-.35 2.64 2.64 0 0 0-.546-.238c-.205-.065-.42-.131-.644-.196a6.616 6.616 0 0 1-.756-.266 2.862 2.862 0 0 1-.63-.378 1.865 1.865 0 0 1-.448-.56 1.679 1.679 0 0 1-.168-.784c0-.327.061-.616.182-.868.122-.252.29-.462.504-.63a2.22 2.22 0 0 1 .756-.378c.29-.093.602-.14.938-.14.504 0 .966.093 1.386.28.42.177.766.457 1.036.84l-.728.672a2.664 2.664 0 0 0-.728-.602c-.27-.159-.592-.238-.966-.238-.158 0-.317.019-.476.056a1.234 1.234 0 0 0-.406.182.817.817 0 0 0-.406.728c0 .205.047.378.14.518.094.131.22.243.378.336.168.093.355.173.56.238.206.065.42.131.644.196.262.075.509.163.742.266.243.103.458.233.644.392.187.149.336.331.448.546.112.215.168.476.168.784 0 .364-.07.677-.21.938-.13.252-.312.462-.546.63a2.305 2.305 0 0 1-.812.364 3.706 3.706 0 0 1-.98.126c-.606 0-1.124-.103-1.554-.308a2.665 2.665 0 0 1-.994-.798l.742-.7c.215.252.462.457.742.616.29.159.649.238 1.078.238.196 0 .378-.019.546-.056a1.35 1.35 0 0 0 .462-.182.963.963 0 0 0 .308-.308.837.837 0 0 0 .126-.462Zm5.728 1.96a3.55 3.55 0 0 1-1.358-.252 2.975 2.975 0 0 1-1.036-.714c-.28-.317-.5-.7-.658-1.148a4.748 4.748 0 0 1-.224-1.512c0-.588.079-1.106.238-1.554a3.13 3.13 0 0 1 .658-1.134c.28-.308.611-.541.994-.7a3.394 3.394 0 0 1 1.288-.238 3.6 3.6 0 0 1 1.288.224c.392.149.728.373 1.008.672.28.289.499.658.658 1.106.158.439.238.952.238 1.54 0 .075-.005.149-.014.224a.988.988 0 0 1-.014.182h-5.222c0 .327.056.635.168.924.121.28.28.527.476.742.205.205.438.369.7.49.27.121.56.182.868.182.504 0 .914-.098 1.232-.294.326-.196.597-.434.812-.714l.672.686a3.31 3.31 0 0 1-1.12.938c-.439.233-.99.35-1.652.35Zm-.098-6.328c-.327 0-.616.061-.868.182s-.462.28-.63.476c-.168.196-.299.42-.392.672a2.685 2.685 0 0 0-.14.756h4.046a2.454 2.454 0 0 0-.154-.756 1.901 1.901 0 0 0-1.008-1.148 1.895 1.895 0 0 0-.854-.182Zm11.091 6.328c-.551 0-1.036-.093-1.456-.28a3.1 3.1 0 0 1-1.036-.784 3.39 3.39 0 0 1-.616-1.148 4.921 4.921 0 0 1-.196-1.414c0-.504.065-.975.196-1.414a3.39 3.39 0 0 1 .616-1.148 2.95 2.95 0 0 1 1.036-.77c.42-.196.905-.294 1.456-.294.55 0 1.026.098 1.428.294.41.187.751.443 1.022.77.27.327.471.709.602 1.148.14.439.21.91.21 1.414 0 .504-.07.975-.21 1.414a3.23 3.23 0 0 1-.602 1.148 2.968 2.968 0 0 1-1.022.784c-.402.187-.878.28-1.428.28Zm-2.156-3.626c0 .401.042.77.126 1.106.093.327.228.611.406.854.177.233.401.415.672.546.27.131.588.196.952.196.354 0 .662-.065.924-.196.27-.131.49-.313.658-.546.177-.243.308-.527.392-.854.093-.336.14-.705.14-1.106 0-.401-.047-.765-.14-1.092a2.328 2.328 0 0 0-.392-.854 1.672 1.672 0 0 0-.658-.56 2.043 2.043 0 0 0-.924-.196 2.16 2.16 0 0 0-.952.196 1.772 1.772 0 0 0-.672.56 2.481 2.481 0 0 0-.406.854 4.39 4.39 0 0 0-.126 1.092Zm9.599 3.626c-.383 0-.728-.051-1.036-.154a2.093 2.093 0 0 1-.798-.476 2.202 2.202 0 0 1-.504-.826c-.122-.336-.182-.737-.182-1.204v-4.424h1.12v4.214c0 .709.135 1.213.406 1.512.28.289.686.434 1.218.434.504 0 .9-.182 1.19-.546.298-.364.448-.896.448-1.596v-4.018h1.12v6.916h-1.064v-1.092h-.084a2.518 2.518 0 0 1-.7.91c-.29.233-.668.35-1.134.35Zm7.486 0c-.625 0-1.083-.187-1.372-.56-.289-.373-.434-.887-.434-1.54v-4.074h-1.232v-.91h1.232v-1.876h1.106v1.876h2.002v.91h-2.002v3.976c0 .448.084.761.252.938a.911.911 0 0 0 .672.266c.187 0 .355-.033.504-.098.149-.075.289-.173.42-.294l.504.784c-.429.401-.98.602-1.652.602Zm3.177-10.318h1.12v10.15h-1.12v-10.15Zm4.802 1.4c0 .196-.07.364-.21.504-.131.14-.308.21-.532.21-.234 0-.416-.07-.546-.21a.711.711 0 0 1-.196-.504c0-.187.065-.35.196-.49.13-.149.312-.224.546-.224.224 0 .401.075.532.224.14.14.21.303.21.49Zm-1.302 1.834h1.12v6.916h-1.12v-6.916Zm3.5 0h1.064v1.092h.084c.168-.364.406-.663.714-.896.308-.243.7-.364 1.176-.364.793 0 1.418.21 1.876.63.466.42.7 1.097.7 2.03v4.424h-1.12v-4.214c0-.709-.145-1.209-.434-1.498-.28-.299-.696-.448-1.246-.448-.532 0-.948.182-1.246.546-.299.364-.448.896-.448 1.596v4.018h-1.12v-6.916Zm10.563 7.084c-.495 0-.947-.084-1.358-.252a2.984 2.984 0 0 1-1.036-.714 3.46 3.46 0 0 1-.658-1.148 4.776 4.776 0 0 1-.224-1.512c0-.588.079-1.106.238-1.554.159-.457.378-.835.658-1.134.28-.308.611-.541.994-.7a3.394 3.394 0 0 1 1.288-.238c.467 0 .896.075 1.288.224.392.149.728.373 1.008.672.28.289.499.658.658 1.106.159.439.238.952.238 1.54 0 .075-.005.149-.014.224a.988.988 0 0 1-.014.182h-5.222c0 .327.056.635.168.924.121.28.28.527.476.742.205.205.439.369.7.49.271.121.56.182.868.182.504 0 .915-.098 1.232-.294.327-.196.597-.434.812-.714l.672.686a3.31 3.31 0 0 1-1.12.938c-.439.233-.989.35-1.652.35Zm-.098-6.328c-.327 0-.616.061-.868.182s-.462.28-.63.476c-.168.196-.299.42-.392.672a2.685 2.685 0 0 0-.14.756h4.046a2.425 2.425 0 0 0-.154-.756 1.901 1.901 0 0 0-1.008-1.148 1.892 1.892 0 0 0-.854-.182Z" fill="#242E30"/><path d="M235 212h-14a.5.5 0 0 0 0 1h14a.5.5 0 0 0 0-1Z" fill="#8C999B"/><mask id="hierarchy-multiple-pairing__a" style="mask-type:alpha" maskUnits="userSpaceOnUse" x="220" y="8" width="273" height="241"><path d="M349.583 12.637c3.072-5.37 10.816-5.37 13.888 0l128.235 224.14c3.051 5.334-.8 11.973-6.944 11.973H228.293c-6.145 0-9.995-6.639-6.944-11.973l128.234-224.14Z" fill="#D9D9D9"/></mask><g mask="url(#hierarchy-multiple-pairing__a)"><path d="M484.699 248H228.454c-5.764 0-9.373-6.231-6.506-11.231L260.816 169h191.422l38.962 67.761c2.875 5-.734 11.239-6.501 11.239Z" stroke="#DBD9D7"/><path d="M295.309 88h128l35 80.5h-199.5l36.5-80.5Z" fill="#fff"/><path d="m356.525.5 58.5 88h-116l57.5-88Z" fill="#FF8000"/></g></svg>