<svg width="106" height="56" viewBox="0 0 106 56" fill="none" xmlns="http://www.w3.org/2000/svg">
<rect x="3.5" y="3" width="99" height="50" rx="25" stroke="white" stroke-width="2"/>
<path d="M28.5 1C13.5883 1 1.5 13.0883 1.5 28C1.5 42.9117 13.5883 55 28.5 55H77.5C92.4117 55 104.5 42.9117 104.5 28C104.5 13.0883 92.4117 1 77.5 1H28.5Z" stroke="#094DAC" stroke-width="2"/>
<g clip-path="url(#clip0_5796_19235)">
<path d="M4.5 28C4.5 14.7452 15.2452 4 28.5 4H77.5C90.7548 4 101.5 14.7452 101.5 28C101.5 41.2548 90.7548 52 77.5 52H28.5C15.2452 52 4.5 41.2548 4.5 28Z" fill="#F36805"/>
<path d="M4.5 28C4.5 14.7452 15.2452 4 28.5 4H77.5C90.7548 4 101.5 14.7452 101.5 28C101.5 41.2548 90.7548 52 77.5 52H28.5C15.2452 52 4.5 41.2548 4.5 28Z" fill="white" fill-opacity="0.01"/>
<path d="M30.2705 22H32.9505V32.82H38.1305V35H30.2705V22ZM42.6296 35.24C42.1896 35.24 41.7696 35.1667 41.3696 35.02C40.9829 34.8867 40.6429 34.6933 40.3496 34.44C40.0563 34.1733 39.8229 33.8533 39.6496 33.48C39.4896 33.1067 39.4096 32.6867 39.4096 32.22C39.4096 31.34 39.7229 30.64 40.3496 30.12C40.9763 29.6 41.9296 29.3067 43.2096 29.24L45.5296 29.1V28.7C45.5296 28.06 45.3363 27.62 44.9496 27.38C44.5629 27.14 44.0829 27.02 43.5096 27.02C43.0563 27.02 42.6296 27.1067 42.2296 27.28C41.8296 27.44 41.5296 27.64 41.3296 27.88L39.9096 26.44C40.2563 25.9867 40.7563 25.6133 41.4096 25.32C42.0763 25.0267 42.8896 24.88 43.8496 24.88C45.2629 24.88 46.3163 25.2067 47.0096 25.86C47.7029 26.5133 48.0496 27.4 48.0496 28.52V35H45.6696V33.42H45.5496C45.2963 33.98 44.9296 34.4267 44.4496 34.76C43.9696 35.08 43.3629 35.24 42.6296 35.24ZM43.3696 33.42C44.0096 33.42 44.5296 33.24 44.9296 32.88C45.3296 32.5067 45.5296 31.9867 45.5296 31.32V30.66L43.5096 30.82C42.4696 30.8867 41.9496 31.3267 41.9496 32.14C41.9496 32.5533 42.0829 32.8733 42.3496 33.1C42.6163 33.3133 42.9563 33.42 43.3696 33.42ZM56.2612 35.24C55.4878 35.24 54.8145 35.0533 54.2412 34.68C53.6812 34.3067 53.2812 33.7933 53.0412 33.14H52.9212V35H50.5212V20.5H53.0412V26.82H53.1612C53.3878 26.2467 53.7678 25.78 54.3012 25.42C54.8345 25.06 55.4878 24.88 56.2612 24.88C56.8745 24.88 57.4412 25.0067 57.9612 25.26C58.4945 25.5133 58.9478 25.8733 59.3212 26.34C59.7078 26.7933 60.0078 27.34 60.2212 27.98C60.4345 28.62 60.5412 29.3267 60.5412 30.1C60.5412 30.86 60.4345 31.56 60.2212 32.2C60.0078 32.8267 59.7078 33.3667 59.3212 33.82C58.9478 34.26 58.4945 34.6067 57.9612 34.86C57.4412 35.1133 56.8745 35.24 56.2612 35.24ZM55.4812 33.04C56.2278 33.04 56.8278 32.7733 57.2812 32.24C57.7345 31.7067 57.9612 30.98 57.9612 30.06C57.9612 29.14 57.7345 28.4133 57.2812 27.88C56.8278 27.3467 56.2278 27.08 55.4812 27.08C54.7478 27.08 54.1545 27.3467 53.7012 27.88C53.2612 28.4133 53.0412 29.14 53.0412 30.06C53.0412 30.98 53.2612 31.7067 53.7012 32.24C54.1545 32.7733 54.7478 33.04 55.4812 33.04ZM66.7934 35.24C65.9667 35.24 65.2467 35.1067 64.6334 34.84C64.02 34.5733 63.5 34.2067 63.0734 33.74C62.66 33.26 62.3467 32.7067 62.1334 32.08C61.9334 31.4533 61.8334 30.78 61.8334 30.06C61.8334 29.3267 61.9334 28.6467 62.1334 28.02C62.3334 27.38 62.6334 26.8333 63.0334 26.38C63.4334 25.9133 63.9334 25.5467 64.5334 25.28C65.1334 25.0133 65.8334 24.88 66.6334 24.88C67.4334 24.88 68.1334 25.0067 68.7334 25.26C69.3334 25.5133 69.8267 25.8667 70.2134 26.32C70.6 26.7733 70.8867 27.3133 71.0734 27.94C71.2734 28.5533 71.3734 29.2267 71.3734 29.96C71.3734 30.0933 71.36 30.2467 71.3334 30.42C71.32 30.5933 71.3 30.7333 71.2734 30.84H64.3934C64.4334 31.2 64.5267 31.5267 64.6734 31.82C64.8334 32.1 65.0267 32.34 65.2534 32.54C65.4934 32.74 65.7534 32.8933 66.0334 33C66.3267 33.0933 66.6267 33.14 66.9334 33.14C67.5067 33.14 67.9867 33.04 68.3734 32.84C68.76 32.64 69.0734 32.3867 69.3134 32.08L70.7334 33.56C70.36 34.0667 69.84 34.4733 69.1734 34.78C68.5067 35.0867 67.7134 35.24 66.7934 35.24ZM66.6334 26.8C65.9934 26.8 65.4734 27.0067 65.0734 27.42C64.6734 27.8333 64.44 28.38 64.3734 29.06H68.8534C68.7867 28.38 68.5534 27.8333 68.1534 27.42C67.7667 27.0067 67.26 26.8 66.6334 26.8ZM73.3337 20.5H75.8537V35H73.3337V20.5Z" fill="white"/>
</g>
<defs>
<clipPath id="clip0_5796_19235">
<path d="M4.5 28C4.5 14.7452 15.2452 4 28.5 4H77.5C90.7548 4 101.5 14.7452 101.5 28C101.5 41.2548 90.7548 52 77.5 52H28.5C15.2452 52 4.5 41.2548 4.5 28Z" fill="white"/>
</clipPath>
</defs>
</svg>
