<svg width="138" height="56" viewBox="0 0 138 56" fill="none" xmlns="http://www.w3.org/2000/svg">
<g clip-path="url(#clip0_28001_7827)">
<path d="M0 28C0 12.536 12.536 0 28 0H110C125.464 0 138 12.536 138 28C138 43.464 125.464 56 110 56H28C12.536 56 0 43.464 0 28Z" fill="#F36805"/>
<path d="M0 28C0 12.536 12.536 0 28 0H110C125.464 0 138 12.536 138 28V28C138 43.464 125.464 56 110 56H28C12.536 56 0 43.464 0 28V28Z" fill="white" fill-opacity="0.01"/>
<g clip-path="url(#clip1_28001_7827)">
<path d="M46.5 21.7656V23.7344H33.0469V26.0312H31.0781V23.7344H25.5V21.7656H31.0781V19.4688H33.0469V21.7656H46.5ZM40.9219 29.9688H38.9531V32.2656H25.5V34.2344H38.9531V36.5312H40.9219V34.2344H46.5V32.2656H40.9219V29.9688Z" fill="white"/>
</g>
<path d="M57.284 35V22H65.584V24.66H60.664V27.66H65.384V30.32H60.664V35H57.284ZM67.3198 35V25.12H70.4998V35H67.3198ZM68.9198 24.02C68.3331 24.02 67.8864 23.8467 67.5798 23.5C67.2864 23.14 67.1398 22.7333 67.1398 22.28C67.1398 21.8267 67.2864 21.4267 67.5798 21.08C67.8864 20.72 68.3331 20.54 68.9198 20.54C69.5064 20.54 69.9531 20.72 70.2598 21.08C70.5664 21.4267 70.7198 21.8267 70.7198 22.28C70.7198 22.7333 70.5664 23.14 70.2598 23.5C69.9531 23.8467 69.5064 24.02 68.9198 24.02ZM72.6127 35V20.5H75.7927V35H72.6127ZM82.2457 35.22C81.419 35.22 80.7457 35.08 80.2257 34.8C79.7057 34.52 79.319 34.0933 79.0657 33.52C78.8257 32.9333 78.7057 32.1867 78.7057 31.28V27.66H77.2857V25.12H78.7057V22.44H81.8457V25.12H84.7657V27.66H81.8457V31.34C81.8457 31.78 81.919 32.1 82.0657 32.3C82.2257 32.5 82.4857 32.6 82.8457 32.6C83.0857 32.6 83.319 32.5533 83.5457 32.46C83.7724 32.3533 83.9524 32.2267 84.0857 32.08L85.1057 34.24C84.7724 34.5733 84.3724 34.82 83.9057 34.98C83.439 35.14 82.8857 35.22 82.2457 35.22ZM91.0204 35.24C89.8204 35.24 88.8404 34.9933 88.0804 34.5C87.3204 33.9933 86.7604 33.3467 86.4004 32.56C86.0537 31.7733 85.8804 30.94 85.8804 30.06C85.8804 29.3933 85.9671 28.7533 86.1404 28.14C86.3271 27.5267 86.6137 26.9733 87.0004 26.48C87.3871 25.9867 87.8937 25.6 88.5204 25.32C89.1604 25.0267 89.9337 24.88 90.8404 24.88C91.7471 24.88 92.5137 25.02 93.1404 25.3C93.7671 25.58 94.2671 25.9667 94.6404 26.46C95.0271 26.94 95.3004 27.4867 95.4604 28.1C95.6337 28.7 95.7204 29.3267 95.7204 29.98C95.7204 30.1267 95.7071 30.32 95.6804 30.56C95.6537 30.7867 95.6204 30.96 95.5804 31.08H89.1004C89.1804 31.4667 89.3337 31.7733 89.5604 32C89.8004 32.2267 90.0671 32.3933 90.3604 32.5C90.6671 32.5933 90.9471 32.64 91.2004 32.64C91.6671 32.64 92.0671 32.5667 92.4004 32.42C92.7471 32.2733 93.0137 32.08 93.2004 31.84L94.9404 33.66C94.6204 34.1133 94.1137 34.4933 93.4204 34.8C92.7271 35.0933 91.9271 35.24 91.0204 35.24ZM90.8404 27.24C90.5604 27.24 90.2937 27.3 90.0404 27.42C89.8004 27.5267 89.5871 27.7067 89.4004 27.96C89.2271 28.2133 89.1071 28.5533 89.0404 28.98H92.6004C92.5471 28.5533 92.4271 28.2133 92.2404 27.96C92.0671 27.7067 91.8604 27.5267 91.6204 27.42C91.3804 27.3 91.1204 27.24 90.8404 27.24ZM97.2612 35V25.12H100.241V26.82H100.361C100.561 26.2067 100.881 25.7333 101.321 25.4C101.761 25.0533 102.308 24.88 102.961 24.88C103.215 24.88 103.455 24.9 103.681 24.94C103.921 24.9667 104.148 25.0133 104.361 25.08L103.561 28C103.428 27.9067 103.261 27.84 103.061 27.8C102.861 27.7467 102.668 27.72 102.481 27.72C101.895 27.72 101.408 27.8933 101.021 28.24C100.635 28.5733 100.441 29.1067 100.441 29.84V35H97.2612ZM108.985 35.24C107.931 35.24 107.045 35.1067 106.325 34.84C105.605 34.56 105.071 34.2133 104.725 33.8L106.305 32C106.611 32.2933 106.991 32.5133 107.445 32.66C107.898 32.8067 108.351 32.88 108.805 32.88C109.231 32.88 109.558 32.8067 109.785 32.66C110.025 32.5133 110.145 32.3 110.145 32.02C110.145 31.8333 110.058 31.6867 109.885 31.58C109.711 31.4733 109.458 31.38 109.125 31.3C108.805 31.22 108.418 31.1333 107.965 31.04C107.458 30.92 106.978 30.7467 106.525 30.52C106.085 30.2933 105.731 29.98 105.465 29.58C105.198 29.18 105.065 28.6733 105.065 28.06C105.065 27.38 105.245 26.8067 105.605 26.34C105.978 25.86 106.485 25.5 107.125 25.26C107.778 25.0067 108.518 24.88 109.345 24.88C110.331 24.88 111.158 25.02 111.825 25.3C112.491 25.58 112.985 25.9133 113.305 26.3L111.645 28.1C111.405 27.8467 111.091 27.64 110.705 27.48C110.318 27.32 109.938 27.24 109.565 27.24C109.218 27.24 108.918 27.3 108.665 27.42C108.411 27.5267 108.285 27.72 108.285 28C108.285 28.1867 108.371 28.3333 108.545 28.44C108.718 28.5467 108.965 28.64 109.285 28.72C109.618 28.7867 110.011 28.8733 110.465 28.98C110.985 29.0867 111.465 29.26 111.905 29.5C112.345 29.7267 112.698 30.04 112.965 30.44C113.231 30.84 113.365 31.3467 113.365 31.96C113.365 32.64 113.178 33.2267 112.805 33.72C112.431 34.2133 111.918 34.5933 111.265 34.86C110.611 35.1133 109.851 35.24 108.985 35.24Z" fill="white"/>
</g>
<defs>
<clipPath id="clip0_28001_7827">
<path d="M0 28C0 12.536 12.536 0 28 0H110C125.464 0 138 12.536 138 28C138 43.464 125.464 56 110 56H28C12.536 56 0 43.464 0 28Z" fill="white"/>
</clipPath>
<clipPath id="clip1_28001_7827">
<rect width="21" height="21" fill="white" transform="translate(25.5 17.5)"/>
</clipPath>
</defs>
</svg>
