<svg width="376" height="76" viewBox="0 0 376 76" fill="none" xmlns="http://www.w3.org/2000/svg">
<g clip-path="url(#clip0_9491_9341)">
<path d="M0.5 38C0.5 17.0132 17.5132 0 38.5 0H337.5C358.487 0 375.5 17.0132 375.5 38C375.5 58.9868 358.487 76 337.5 76H38.5C17.5132 76 0.5 58.9868 0.5 38Z" fill="#F36805"/>
<path d="M0.5 38C0.5 17.0132 17.5132 0 38.5 0H337.5C358.487 0 375.5 17.0132 375.5 38C375.5 58.9868 358.487 76 337.5 76H38.5C17.5132 76 0.5 58.9868 0.5 38Z" fill="white" fill-opacity="0.01"/>
<path d="M41.1592 18H43.8392V28.82H49.0192V31H41.1592V18ZM53.5183 31.24C53.0783 31.24 52.6583 31.1667 52.2583 31.02C51.8716 30.8867 51.5316 30.6933 51.2383 30.44C50.9449 30.1733 50.7116 29.8533 50.5383 29.48C50.3783 29.1067 50.2983 28.6867 50.2983 28.22C50.2983 27.34 50.6116 26.64 51.2383 26.12C51.8649 25.6 52.8183 25.3067 54.0983 25.24L56.4183 25.1V24.7C56.4183 24.06 56.2249 23.62 55.8383 23.38C55.4516 23.14 54.9716 23.02 54.3983 23.02C53.9449 23.02 53.5183 23.1067 53.1183 23.28C52.7183 23.44 52.4183 23.64 52.2183 23.88L50.7983 22.44C51.1449 21.9867 51.6449 21.6133 52.2983 21.32C52.9649 21.0267 53.7783 20.88 54.7383 20.88C56.1516 20.88 57.2049 21.2067 57.8983 21.86C58.5916 22.5133 58.9383 23.4 58.9383 24.52V31H56.5583V29.42H56.4383C56.1849 29.98 55.8183 30.4267 55.3383 30.76C54.8583 31.08 54.2516 31.24 53.5183 31.24ZM54.2583 29.42C54.8983 29.42 55.4183 29.24 55.8183 28.88C56.2183 28.5067 56.4183 27.9867 56.4183 27.32V26.66L54.3983 26.82C53.3583 26.8867 52.8383 27.3267 52.8383 28.14C52.8383 28.5533 52.9716 28.8733 53.2383 29.1C53.5049 29.3133 53.8449 29.42 54.2583 29.42ZM67.1498 31.24C66.3765 31.24 65.7032 31.0533 65.1298 30.68C64.5698 30.3067 64.1698 29.7933 63.9298 29.14H63.8098V31H61.4098V16.5H63.9298V22.82H64.0498C64.2765 22.2467 64.6565 21.78 65.1898 21.42C65.7232 21.06 66.3765 20.88 67.1498 20.88C67.7632 20.88 68.3298 21.0067 68.8498 21.26C69.3832 21.5133 69.8365 21.8733 70.2098 22.34C70.5965 22.7933 70.8965 23.34 71.1098 23.98C71.3232 24.62 71.4298 25.3267 71.4298 26.1C71.4298 26.86 71.3232 27.56 71.1098 28.2C70.8965 28.8267 70.5965 29.3667 70.2098 29.82C69.8365 30.26 69.3832 30.6067 68.8498 30.86C68.3298 31.1133 67.7632 31.24 67.1498 31.24ZM66.3698 29.04C67.1165 29.04 67.7165 28.7733 68.1698 28.24C68.6232 27.7067 68.8498 26.98 68.8498 26.06C68.8498 25.14 68.6232 24.4133 68.1698 23.88C67.7165 23.3467 67.1165 23.08 66.3698 23.08C65.6365 23.08 65.0432 23.3467 64.5898 23.88C64.1498 24.4133 63.9298 25.14 63.9298 26.06C63.9298 26.98 64.1498 27.7067 64.5898 28.24C65.0432 28.7733 65.6365 29.04 66.3698 29.04ZM77.682 31.24C76.8554 31.24 76.1354 31.1067 75.522 30.84C74.9087 30.5733 74.3887 30.2067 73.962 29.74C73.5487 29.26 73.2354 28.7067 73.022 28.08C72.822 27.4533 72.722 26.78 72.722 26.06C72.722 25.3267 72.822 24.6467 73.022 24.02C73.222 23.38 73.522 22.8333 73.922 22.38C74.322 21.9133 74.822 21.5467 75.422 21.28C76.022 21.0133 76.722 20.88 77.522 20.88C78.322 20.88 79.022 21.0067 79.622 21.26C80.222 21.5133 80.7154 21.8667 81.102 22.32C81.4887 22.7733 81.7754 23.3133 81.962 23.94C82.162 24.5533 82.262 25.2267 82.262 25.96C82.262 26.0933 82.2487 26.2467 82.222 26.42C82.2087 26.5933 82.1887 26.7333 82.162 26.84H75.282C75.322 27.2 75.4154 27.5267 75.562 27.82C75.722 28.1 75.9154 28.34 76.142 28.54C76.382 28.74 76.642 28.8933 76.922 29C77.2154 29.0933 77.5154 29.14 77.822 29.14C78.3954 29.14 78.8754 29.04 79.262 28.84C79.6487 28.64 79.962 28.3867 80.202 28.08L81.622 29.56C81.2487 30.0667 80.7287 30.4733 80.062 30.78C79.3954 31.0867 78.602 31.24 77.682 31.24ZM77.522 22.8C76.882 22.8 76.362 23.0067 75.962 23.42C75.562 23.8333 75.3287 24.38 75.262 25.06H79.742C79.6754 24.38 79.442 23.8333 79.042 23.42C78.6554 23.0067 78.1487 22.8 77.522 22.8ZM84.2223 16.5H86.7423V31H84.2223V16.5ZM94.2028 16.5H96.7228V31H94.2028V16.5ZM103.679 31.24C102.852 31.24 102.125 31.1067 101.499 30.84C100.885 30.56 100.365 30.1867 99.9386 29.72C99.5253 29.2533 99.2119 28.7067 98.9986 28.08C98.7986 27.44 98.6986 26.7667 98.6986 26.06C98.6986 25.3533 98.7986 24.6867 98.9986 24.06C99.2119 23.4333 99.5253 22.8867 99.9386 22.42C100.365 21.94 100.885 21.5667 101.499 21.3C102.125 21.02 102.852 20.88 103.679 20.88C104.505 20.88 105.225 21.02 105.839 21.3C106.465 21.5667 106.979 21.94 107.379 22.42C107.792 22.8867 108.099 23.4333 108.299 24.06C108.512 24.6867 108.619 25.3533 108.619 26.06C108.619 26.7667 108.512 27.44 108.299 28.08C108.099 28.7067 107.792 29.2533 107.379 29.72C106.979 30.1867 106.465 30.56 105.839 30.84C105.225 31.1067 104.505 31.24 103.679 31.24ZM101.279 26.06C101.279 27.0333 101.485 27.8 101.899 28.36C102.325 28.92 102.919 29.2 103.679 29.2C104.425 29.2 105.005 28.92 105.419 28.36C105.845 27.8 106.059 27.0333 106.059 26.06C106.059 25.0867 105.845 24.32 105.419 23.76C105.005 23.2 104.425 22.92 103.679 22.92C102.919 22.92 102.325 23.2 101.899 23.76C101.485 24.32 101.279 25.0867 101.279 26.06ZM110.57 21.12H112.95V22.78H113.07C113.27 22.2067 113.577 21.7467 113.99 21.4C114.417 21.0533 114.95 20.88 115.59 20.88C116.083 20.88 116.543 20.96 116.97 21.12L116.27 23.42C116.123 23.3267 115.95 23.26 115.75 23.22C115.55 23.18 115.357 23.16 115.17 23.16C114.557 23.16 114.057 23.3733 113.67 23.8C113.283 24.2133 113.09 24.8 113.09 25.56V31H110.57V21.12ZM122.409 31.24C121.582 31.24 120.862 31.1067 120.249 30.84C119.635 30.5733 119.115 30.2067 118.689 29.74C118.275 29.26 117.962 28.7067 117.749 28.08C117.549 27.4533 117.449 26.78 117.449 26.06C117.449 25.3267 117.549 24.6467 117.749 24.02C117.949 23.38 118.249 22.8333 118.649 22.38C119.049 21.9133 119.549 21.5467 120.149 21.28C120.749 21.0133 121.449 20.88 122.249 20.88C123.049 20.88 123.749 21.0067 124.349 21.26C124.949 21.5133 125.442 21.8667 125.829 22.32C126.215 22.7733 126.502 23.3133 126.689 23.94C126.889 24.5533 126.989 25.2267 126.989 25.96C126.989 26.0933 126.975 26.2467 126.949 26.42C126.935 26.5933 126.915 26.7333 126.889 26.84H120.009C120.049 27.2 120.142 27.5267 120.289 27.82C120.449 28.1 120.642 28.34 120.869 28.54C121.109 28.74 121.369 28.8933 121.649 29C121.942 29.0933 122.242 29.14 122.549 29.14C123.122 29.14 123.602 29.04 123.989 28.84C124.375 28.64 124.689 28.3867 124.929 28.08L126.349 29.56C125.975 30.0667 125.455 30.4733 124.789 30.78C124.122 31.0867 123.329 31.24 122.409 31.24ZM122.249 22.8C121.609 22.8 121.089 23.0067 120.689 23.42C120.289 23.8333 120.055 24.38 119.989 25.06H124.469C124.402 24.38 124.169 23.8333 123.769 23.42C123.382 23.0067 122.875 22.8 122.249 22.8ZM128.949 21.12H131.329V22.62H131.449C131.702 22.1 132.056 21.68 132.509 21.36C132.976 21.04 133.542 20.88 134.209 20.88C135.836 20.88 136.882 21.4933 137.349 22.72C137.602 22.16 137.996 21.7133 138.529 21.38C139.062 21.0467 139.689 20.88 140.409 20.88C141.609 20.88 142.489 21.2133 143.049 21.88C143.609 22.5333 143.889 23.5267 143.889 24.86V31H141.369V25.28C141.369 23.76 140.762 23 139.549 23C138.922 23 138.449 23.2067 138.129 23.62C137.822 24.0333 137.669 24.6267 137.669 25.4V31H135.149V25.28C135.149 24.52 135.002 23.9533 134.709 23.58C134.429 23.1933 133.969 23 133.329 23C132.729 23 132.269 23.2067 131.949 23.62C131.629 24.0333 131.469 24.6267 131.469 25.4V31H128.949V21.12ZM153.955 18.38C153.955 18.7533 153.822 19.0867 153.555 19.38C153.302 19.6733 152.942 19.82 152.475 19.82C151.995 19.82 151.628 19.6733 151.375 19.38C151.122 19.0867 150.995 18.7533 150.995 18.38C150.995 17.9933 151.122 17.66 151.375 17.38C151.628 17.0867 151.995 16.94 152.475 16.94C152.942 16.94 153.302 17.0867 153.555 17.38C153.822 17.66 153.955 17.9933 153.955 18.38ZM151.195 21.12H153.715V31H151.195V21.12ZM156.371 21.12H158.771V22.98H158.891C159.131 22.3267 159.531 21.8133 160.091 21.44C160.664 21.0667 161.337 20.88 162.111 20.88C162.724 20.88 163.291 21.0067 163.811 21.26C164.344 21.5133 164.797 21.8667 165.171 22.32C165.557 22.76 165.857 23.3 166.071 23.94C166.284 24.5667 166.391 25.26 166.391 26.02C166.391 26.7933 166.284 27.5 166.071 28.14C165.857 28.78 165.557 29.3333 165.171 29.8C164.797 30.2533 164.344 30.6067 163.811 30.86C163.291 31.1133 162.724 31.24 162.111 31.24C161.337 31.24 160.684 31.06 160.151 30.7C159.617 30.34 159.237 29.8733 159.011 29.3H158.891V34.7H156.371V21.12ZM161.331 29.04C162.077 29.04 162.677 28.7733 163.131 28.24C163.584 27.7067 163.811 26.98 163.811 26.06C163.811 25.14 163.584 24.4133 163.131 23.88C162.677 23.3467 162.077 23.08 161.331 23.08C160.597 23.08 160.004 23.3467 159.551 23.88C159.111 24.4133 158.891 25.14 158.891 26.06C158.891 26.98 159.111 27.7067 159.551 28.24C160.004 28.7733 160.597 29.04 161.331 29.04ZM173.103 28.2C173.103 28 173.043 27.8333 172.923 27.7C172.816 27.5533 172.656 27.4333 172.443 27.34C172.243 27.2467 172.003 27.1667 171.723 27.1C171.443 27.02 171.136 26.94 170.803 26.86C170.416 26.7667 170.05 26.6467 169.703 26.5C169.356 26.3533 169.05 26.1667 168.783 25.94C168.53 25.7 168.323 25.42 168.163 25.1C168.003 24.78 167.923 24.3933 167.923 23.94C167.923 23.4467 168.016 23.0133 168.203 22.64C168.403 22.2533 168.676 21.9333 169.023 21.68C169.37 21.4133 169.783 21.2133 170.263 21.08C170.743 20.9467 171.263 20.88 171.823 20.88C172.703 20.88 173.463 21.02 174.103 21.3C174.743 21.5667 175.236 21.9267 175.583 22.38L174.183 23.82C173.916 23.5267 173.583 23.2867 173.183 23.1C172.796 22.9133 172.39 22.82 171.963 22.82C171.563 22.82 171.21 22.9 170.903 23.06C170.596 23.22 170.443 23.48 170.443 23.84C170.443 24.04 170.496 24.2067 170.603 24.34C170.723 24.4733 170.883 24.5933 171.083 24.7C171.296 24.7933 171.543 24.88 171.823 24.96C172.103 25.0267 172.41 25.1 172.743 25.18C173.116 25.2733 173.476 25.3933 173.823 25.54C174.183 25.6867 174.49 25.88 174.743 26.12C175.01 26.3467 175.223 26.62 175.383 26.94C175.543 27.26 175.623 27.6467 175.623 28.1C175.623 28.62 175.516 29.0733 175.303 29.46C175.103 29.8467 174.816 30.1733 174.443 30.44C174.083 30.7067 173.65 30.9067 173.143 31.04C172.65 31.1733 172.116 31.24 171.543 31.24C170.57 31.24 169.743 31.1 169.063 30.82C168.396 30.54 167.89 30.18 167.543 29.74L168.903 28.28C169.21 28.6 169.583 28.8533 170.023 29.04C170.463 29.2133 170.943 29.3 171.463 29.3C171.93 29.3 172.316 29.2133 172.623 29.04C172.943 28.8533 173.103 28.5733 173.103 28.2ZM181.019 31.24C179.806 31.24 178.926 30.9133 178.379 30.26C177.832 29.5933 177.559 28.5933 177.559 27.26V21.12H180.079V26.76C180.079 27.56 180.219 28.1533 180.499 28.54C180.779 28.9267 181.239 29.12 181.879 29.12C182.492 29.12 182.952 28.9133 183.259 28.5C183.579 28.0733 183.739 27.46 183.739 26.66V21.12H186.259V31H183.879V29.4H183.759C183.532 29.9333 183.186 30.3733 182.719 30.72C182.252 31.0667 181.686 31.24 181.019 31.24ZM188.89 21.12H191.27V22.62H191.39C191.644 22.1 191.997 21.68 192.45 21.36C192.917 21.04 193.484 20.88 194.15 20.88C195.777 20.88 196.824 21.4933 197.29 22.72C197.544 22.16 197.937 21.7133 198.47 21.38C199.004 21.0467 199.63 20.88 200.35 20.88C201.55 20.88 202.43 21.2133 202.99 21.88C203.55 22.5333 203.83 23.5267 203.83 24.86V31H201.31V25.28C201.31 23.76 200.704 23 199.49 23C198.864 23 198.39 23.2067 198.07 23.62C197.764 24.0333 197.61 24.6267 197.61 25.4V31H195.09V25.28C195.09 24.52 194.944 23.9533 194.65 23.58C194.37 23.1933 193.91 23 193.27 23C192.67 23 192.21 23.2067 191.89 23.62C191.57 24.0333 191.41 24.6267 191.41 25.4V31H188.89V21.12ZM214.756 31.24C214.13 31.24 213.556 31.1133 213.036 30.86C212.516 30.6067 212.07 30.26 211.696 29.82C211.323 29.3667 211.03 28.8267 210.816 28.2C210.603 27.56 210.496 26.86 210.496 26.1C210.496 25.3267 210.603 24.62 210.816 23.98C211.03 23.34 211.323 22.7933 211.696 22.34C212.07 21.8733 212.516 21.5133 213.036 21.26C213.556 21.0067 214.13 20.88 214.756 20.88C215.53 20.88 216.176 21.06 216.696 21.42C217.23 21.78 217.61 22.2467 217.836 22.82H217.956V16.5H220.476V31H218.096V29.14H217.976C217.736 29.7933 217.33 30.3067 216.756 30.68C216.196 31.0533 215.53 31.24 214.756 31.24ZM215.516 29.04C216.263 29.04 216.856 28.7733 217.296 28.24C217.736 27.7067 217.956 26.98 217.956 26.06C217.956 25.14 217.736 24.4133 217.296 23.88C216.856 23.3467 216.263 23.08 215.516 23.08C214.77 23.08 214.176 23.3467 213.736 23.88C213.296 24.4133 213.076 25.14 213.076 26.06C213.076 26.98 213.296 27.7067 213.736 28.24C214.176 28.7733 214.77 29.04 215.516 29.04ZM227.429 31.24C226.602 31.24 225.875 31.1067 225.249 30.84C224.635 30.56 224.115 30.1867 223.689 29.72C223.275 29.2533 222.962 28.7067 222.749 28.08C222.549 27.44 222.449 26.7667 222.449 26.06C222.449 25.3533 222.549 24.6867 222.749 24.06C222.962 23.4333 223.275 22.8867 223.689 22.42C224.115 21.94 224.635 21.5667 225.249 21.3C225.875 21.02 226.602 20.88 227.429 20.88C228.255 20.88 228.975 21.02 229.589 21.3C230.215 21.5667 230.729 21.94 231.129 22.42C231.542 22.8867 231.849 23.4333 232.049 24.06C232.262 24.6867 232.369 25.3533 232.369 26.06C232.369 26.7667 232.262 27.44 232.049 28.08C231.849 28.7067 231.542 29.2533 231.129 29.72C230.729 30.1867 230.215 30.56 229.589 30.84C228.975 31.1067 228.255 31.24 227.429 31.24ZM225.029 26.06C225.029 27.0333 225.235 27.8 225.649 28.36C226.075 28.92 226.669 29.2 227.429 29.2C228.175 29.2 228.755 28.92 229.169 28.36C229.595 27.8 229.809 27.0333 229.809 26.06C229.809 25.0867 229.595 24.32 229.169 23.76C228.755 23.2 228.175 22.92 227.429 22.92C226.669 22.92 226.075 23.2 225.649 23.76C225.235 24.32 225.029 25.0867 225.029 26.06ZM234.32 16.5H236.84V31H234.32V16.5ZM243.796 31.24C242.969 31.24 242.242 31.1067 241.616 30.84C241.002 30.56 240.482 30.1867 240.056 29.72C239.642 29.2533 239.329 28.7067 239.116 28.08C238.916 27.44 238.816 26.7667 238.816 26.06C238.816 25.3533 238.916 24.6867 239.116 24.06C239.329 23.4333 239.642 22.8867 240.056 22.42C240.482 21.94 241.002 21.5667 241.616 21.3C242.242 21.02 242.969 20.88 243.796 20.88C244.622 20.88 245.342 21.02 245.956 21.3C246.582 21.5667 247.096 21.94 247.496 22.42C247.909 22.8867 248.216 23.4333 248.416 24.06C248.629 24.6867 248.736 25.3533 248.736 26.06C248.736 26.7667 248.629 27.44 248.416 28.08C248.216 28.7067 247.909 29.2533 247.496 29.72C247.096 30.1867 246.582 30.56 245.956 30.84C245.342 31.1067 244.622 31.24 243.796 31.24ZM241.396 26.06C241.396 27.0333 241.602 27.8 242.016 28.36C242.442 28.92 243.036 29.2 243.796 29.2C244.542 29.2 245.122 28.92 245.536 28.36C245.962 27.8 246.176 27.0333 246.176 26.06C246.176 25.0867 245.962 24.32 245.536 23.76C245.122 23.2 244.542 22.92 243.796 22.92C243.036 22.92 242.442 23.2 242.016 23.76C241.602 24.32 241.396 25.0867 241.396 26.06ZM250.687 21.12H253.067V22.78H253.187C253.387 22.2067 253.694 21.7467 254.107 21.4C254.534 21.0533 255.067 20.88 255.707 20.88C256.201 20.88 256.661 20.96 257.087 21.12L256.387 23.42C256.241 23.3267 256.067 23.26 255.867 23.22C255.667 23.18 255.474 23.16 255.287 23.16C254.674 23.16 254.174 23.3733 253.787 23.8C253.401 24.2133 253.207 24.8 253.207 25.56V31H250.687V21.12ZM268.103 28.2C268.103 28 268.043 27.8333 267.923 27.7C267.816 27.5533 267.656 27.4333 267.443 27.34C267.243 27.2467 267.003 27.1667 266.723 27.1C266.443 27.02 266.136 26.94 265.803 26.86C265.416 26.7667 265.05 26.6467 264.703 26.5C264.356 26.3533 264.05 26.1667 263.783 25.94C263.53 25.7 263.323 25.42 263.163 25.1C263.003 24.78 262.923 24.3933 262.923 23.94C262.923 23.4467 263.016 23.0133 263.203 22.64C263.403 22.2533 263.676 21.9333 264.023 21.68C264.37 21.4133 264.783 21.2133 265.263 21.08C265.743 20.9467 266.263 20.88 266.823 20.88C267.703 20.88 268.463 21.02 269.103 21.3C269.743 21.5667 270.236 21.9267 270.583 22.38L269.183 23.82C268.916 23.5267 268.583 23.2867 268.183 23.1C267.796 22.9133 267.39 22.82 266.963 22.82C266.563 22.82 266.21 22.9 265.903 23.06C265.596 23.22 265.443 23.48 265.443 23.84C265.443 24.04 265.496 24.2067 265.603 24.34C265.723 24.4733 265.883 24.5933 266.083 24.7C266.296 24.7933 266.543 24.88 266.823 24.96C267.103 25.0267 267.41 25.1 267.743 25.18C268.116 25.2733 268.476 25.3933 268.823 25.54C269.183 25.6867 269.49 25.88 269.743 26.12C270.01 26.3467 270.223 26.62 270.383 26.94C270.543 27.26 270.623 27.6467 270.623 28.1C270.623 28.62 270.516 29.0733 270.303 29.46C270.103 29.8467 269.816 30.1733 269.443 30.44C269.083 30.7067 268.65 30.9067 268.143 31.04C267.65 31.1733 267.116 31.24 266.543 31.24C265.57 31.24 264.743 31.1 264.063 30.82C263.396 30.54 262.89 30.18 262.543 29.74L263.903 28.28C264.21 28.6 264.583 28.8533 265.023 29.04C265.463 29.2133 265.943 29.3 266.463 29.3C266.93 29.3 267.316 29.2133 267.623 29.04C267.943 28.8533 268.103 28.5733 268.103 28.2ZM275.459 18.38C275.459 18.7533 275.326 19.0867 275.059 19.38C274.806 19.6733 274.446 19.82 273.979 19.82C273.499 19.82 273.132 19.6733 272.879 19.38C272.626 19.0867 272.499 18.7533 272.499 18.38C272.499 17.9933 272.626 17.66 272.879 17.38C273.132 17.0867 273.499 16.94 273.979 16.94C274.446 16.94 274.806 17.0867 275.059 17.38C275.326 17.66 275.459 17.9933 275.459 18.38ZM272.699 21.12H275.219V31H272.699V21.12ZM281.675 31.22C280.581 31.22 279.781 30.9267 279.275 30.34C278.781 29.7533 278.535 28.8667 278.535 27.68V23.14H276.975V21.12H278.535V18.44H281.035V21.12H283.915V23.14H281.035V27.66C281.035 28.18 281.128 28.5533 281.315 28.78C281.501 28.9933 281.781 29.1 282.155 29.1C282.421 29.1 282.661 29.0533 282.875 28.96C283.088 28.8533 283.275 28.7267 283.435 28.58L284.335 30.3C284.001 30.62 283.621 30.8533 283.195 31C282.768 31.1467 282.261 31.22 281.675 31.22ZM293.303 31.24C292.863 31.24 292.443 31.1667 292.043 31.02C291.657 30.8867 291.317 30.6933 291.023 30.44C290.73 30.1733 290.497 29.8533 290.323 29.48C290.163 29.1067 290.083 28.6867 290.083 28.22C290.083 27.34 290.397 26.64 291.023 26.12C291.65 25.6 292.603 25.3067 293.883 25.24L296.203 25.1V24.7C296.203 24.06 296.01 23.62 295.623 23.38C295.237 23.14 294.757 23.02 294.183 23.02C293.73 23.02 293.303 23.1067 292.903 23.28C292.503 23.44 292.203 23.64 292.003 23.88L290.583 22.44C290.93 21.9867 291.43 21.6133 292.083 21.32C292.75 21.0267 293.563 20.88 294.523 20.88C295.937 20.88 296.99 21.2067 297.683 21.86C298.377 22.5133 298.723 23.4 298.723 24.52V31H296.343V29.42H296.223C295.97 29.98 295.603 30.4267 295.123 30.76C294.643 31.08 294.037 31.24 293.303 31.24ZM294.043 29.42C294.683 29.42 295.203 29.24 295.603 28.88C296.003 28.5067 296.203 27.9867 296.203 27.32V26.66L294.183 26.82C293.143 26.8867 292.623 27.3267 292.623 28.14C292.623 28.5533 292.757 28.8733 293.023 29.1C293.29 29.3133 293.63 29.42 294.043 29.42ZM301.195 21.12H303.575V22.62H303.695C303.948 22.1 304.302 21.68 304.755 21.36C305.222 21.04 305.788 20.88 306.455 20.88C308.082 20.88 309.128 21.4933 309.595 22.72C309.848 22.16 310.242 21.7133 310.775 21.38C311.308 21.0467 311.935 20.88 312.655 20.88C313.855 20.88 314.735 21.2133 315.295 21.88C315.855 22.5333 316.135 23.5267 316.135 24.86V31H313.615V25.28C313.615 23.76 313.008 23 311.795 23C311.168 23 310.695 23.2067 310.375 23.62C310.068 24.0333 309.915 24.6267 309.915 25.4V31H307.395V25.28C307.395 24.52 307.248 23.9533 306.955 23.58C306.675 23.1933 306.215 23 305.575 23C304.975 23 304.515 23.2067 304.195 23.62C303.875 24.0333 303.715 24.6267 303.715 25.4V31H301.195V21.12ZM322.916 31.24C322.09 31.24 321.37 31.1067 320.756 30.84C320.143 30.5733 319.623 30.2067 319.196 29.74C318.783 29.26 318.47 28.7067 318.256 28.08C318.056 27.4533 317.956 26.78 317.956 26.06C317.956 25.3267 318.056 24.6467 318.256 24.02C318.456 23.38 318.756 22.8333 319.156 22.38C319.556 21.9133 320.056 21.5467 320.656 21.28C321.256 21.0133 321.956 20.88 322.756 20.88C323.556 20.88 324.256 21.0067 324.856 21.26C325.456 21.5133 325.95 21.8667 326.336 22.32C326.723 22.7733 327.01 23.3133 327.196 23.94C327.396 24.5533 327.496 25.2267 327.496 25.96C327.496 26.0933 327.483 26.2467 327.456 26.42C327.443 26.5933 327.423 26.7333 327.396 26.84H320.516C320.556 27.2 320.65 27.5267 320.796 27.82C320.956 28.1 321.15 28.34 321.376 28.54C321.616 28.74 321.876 28.8933 322.156 29C322.45 29.0933 322.75 29.14 323.056 29.14C323.63 29.14 324.11 29.04 324.496 28.84C324.883 28.64 325.196 28.3867 325.436 28.08L326.856 29.56C326.483 30.0667 325.963 30.4733 325.296 30.78C324.63 31.0867 323.836 31.24 322.916 31.24ZM322.756 22.8C322.116 22.8 321.596 23.0067 321.196 23.42C320.796 23.8333 320.563 24.38 320.496 25.06H324.976C324.91 24.38 324.676 23.8333 324.276 23.42C323.89 23.0067 323.383 22.8 322.756 22.8ZM333.257 31.22C332.163 31.22 331.363 30.9267 330.857 30.34C330.363 29.7533 330.117 28.8667 330.117 27.68V23.14H328.557V21.12H330.117V18.44H332.617V21.12H335.497V23.14H332.617V27.66C332.617 28.18 332.71 28.5533 332.897 28.78C333.083 28.9933 333.363 29.1 333.737 29.1C334.003 29.1 334.243 29.0533 334.457 28.96C334.67 28.8533 334.857 28.7267 335.017 28.58L335.917 30.3C335.583 30.62 335.203 30.8533 334.777 31C334.35 31.1467 333.843 31.22 333.257 31.22ZM139.75 59.24C138.91 59.24 138.183 59.1 137.57 58.82C136.97 58.5267 136.476 58.14 136.09 57.66C135.703 57.18 135.416 56.6333 135.23 56.02C135.043 55.3933 134.95 54.74 134.95 54.06C134.95 53.38 135.036 52.7333 135.21 52.12C135.396 51.4933 135.676 50.94 136.05 50.46C136.436 49.98 136.93 49.6 137.53 49.32C138.13 49.0267 138.843 48.88 139.67 48.88C140.496 48.88 141.196 49.0267 141.77 49.32C142.356 49.6133 142.836 49.9867 143.21 50.44L141.53 51.96C141.303 51.68 141.05 51.4667 140.77 51.32C140.49 51.16 140.136 51.08 139.71 51.08C139.016 51.08 138.476 51.3467 138.09 51.88C137.703 52.4 137.51 53.1267 137.51 54.06C137.51 54.9933 137.71 55.7267 138.11 56.26C138.51 56.78 139.056 57.04 139.75 57.04C140.163 57.04 140.523 56.96 140.83 56.8C141.136 56.64 141.403 56.4133 141.63 56.12L143.29 57.66C142.916 58.1133 142.43 58.4933 141.83 58.8C141.243 59.0933 140.55 59.24 139.75 59.24ZM149.03 59.24C148.203 59.24 147.477 59.1067 146.85 58.84C146.237 58.56 145.717 58.1867 145.29 57.72C144.877 57.2533 144.563 56.7067 144.35 56.08C144.15 55.44 144.05 54.7667 144.05 54.06C144.05 53.3533 144.15 52.6867 144.35 52.06C144.563 51.4333 144.877 50.8867 145.29 50.42C145.717 49.94 146.237 49.5667 146.85 49.3C147.477 49.02 148.203 48.88 149.03 48.88C149.857 48.88 150.577 49.02 151.19 49.3C151.817 49.5667 152.33 49.94 152.73 50.42C153.143 50.8867 153.45 51.4333 153.65 52.06C153.863 52.6867 153.97 53.3533 153.97 54.06C153.97 54.7667 153.863 55.44 153.65 56.08C153.45 56.7067 153.143 57.2533 152.73 57.72C152.33 58.1867 151.817 58.56 151.19 58.84C150.577 59.1067 149.857 59.24 149.03 59.24ZM146.63 54.06C146.63 55.0333 146.837 55.8 147.25 56.36C147.677 56.92 148.27 57.2 149.03 57.2C149.777 57.2 150.357 56.92 150.77 56.36C151.197 55.8 151.41 55.0333 151.41 54.06C151.41 53.0867 151.197 52.32 150.77 51.76C150.357 51.2 149.777 50.92 149.03 50.92C148.27 50.92 147.677 51.2 147.25 51.76C146.837 52.32 146.63 53.0867 146.63 54.06ZM155.922 49.12H158.302V50.72H158.422C158.648 50.1867 159.002 49.7467 159.482 49.4C159.975 49.0533 160.562 48.88 161.242 48.88C162.495 48.88 163.395 49.2133 163.942 49.88C164.502 50.5333 164.782 51.5267 164.782 52.86V59H162.262V53.36C162.262 52.56 162.115 51.9667 161.822 51.58C161.542 51.1933 161.062 51 160.382 51C159.742 51 159.255 51.2133 158.922 51.64C158.602 52.0533 158.442 52.66 158.442 53.46V59H155.922V49.12ZM172.048 56.2C172.048 56 171.988 55.8333 171.868 55.7C171.762 55.5533 171.602 55.4333 171.388 55.34C171.188 55.2467 170.948 55.1667 170.668 55.1C170.388 55.02 170.082 54.94 169.748 54.86C169.362 54.7667 168.995 54.6467 168.648 54.5C168.302 54.3533 167.995 54.1667 167.728 53.94C167.475 53.7 167.268 53.42 167.108 53.1C166.948 52.78 166.868 52.3933 166.868 51.94C166.868 51.4467 166.962 51.0133 167.148 50.64C167.348 50.2533 167.622 49.9333 167.968 49.68C168.315 49.4133 168.728 49.2133 169.208 49.08C169.688 48.9467 170.208 48.88 170.768 48.88C171.648 48.88 172.408 49.02 173.048 49.3C173.688 49.5667 174.182 49.9267 174.528 50.38L173.128 51.82C172.862 51.5267 172.528 51.2867 172.128 51.1C171.742 50.9133 171.335 50.82 170.908 50.82C170.508 50.82 170.155 50.9 169.848 51.06C169.542 51.22 169.388 51.48 169.388 51.84C169.388 52.04 169.442 52.2067 169.548 52.34C169.668 52.4733 169.828 52.5933 170.028 52.7C170.242 52.7933 170.488 52.88 170.768 52.96C171.048 53.0267 171.355 53.1 171.688 53.18C172.062 53.2733 172.422 53.3933 172.768 53.54C173.128 53.6867 173.435 53.88 173.688 54.12C173.955 54.3467 174.168 54.62 174.328 54.94C174.488 55.26 174.568 55.6467 174.568 56.1C174.568 56.62 174.462 57.0733 174.248 57.46C174.048 57.8467 173.762 58.1733 173.388 58.44C173.028 58.7067 172.595 58.9067 172.088 59.04C171.595 59.1733 171.062 59.24 170.488 59.24C169.515 59.24 168.688 59.1 168.008 58.82C167.342 58.54 166.835 58.18 166.488 57.74L167.848 56.28C168.155 56.6 168.528 56.8533 168.968 57.04C169.408 57.2133 169.888 57.3 170.408 57.3C170.875 57.3 171.262 57.2133 171.568 57.04C171.888 56.8533 172.048 56.5733 172.048 56.2ZM180.924 59.24C180.098 59.24 179.378 59.1067 178.764 58.84C178.151 58.5733 177.631 58.2067 177.204 57.74C176.791 57.26 176.478 56.7067 176.264 56.08C176.064 55.4533 175.964 54.78 175.964 54.06C175.964 53.3267 176.064 52.6467 176.264 52.02C176.464 51.38 176.764 50.8333 177.164 50.38C177.564 49.9133 178.064 49.5467 178.664 49.28C179.264 49.0133 179.964 48.88 180.764 48.88C181.564 48.88 182.264 49.0067 182.864 49.26C183.464 49.5133 183.958 49.8667 184.344 50.32C184.731 50.7733 185.018 51.3133 185.204 51.94C185.404 52.5533 185.504 53.2267 185.504 53.96C185.504 54.0933 185.491 54.2467 185.464 54.42C185.451 54.5933 185.431 54.7333 185.404 54.84H178.524C178.564 55.2 178.658 55.5267 178.804 55.82C178.964 56.1 179.158 56.34 179.384 56.54C179.624 56.74 179.884 56.8933 180.164 57C180.458 57.0933 180.758 57.14 181.064 57.14C181.638 57.14 182.118 57.04 182.504 56.84C182.891 56.64 183.204 56.3867 183.444 56.08L184.864 57.56C184.491 58.0667 183.971 58.4733 183.304 58.78C182.638 59.0867 181.844 59.24 180.924 59.24ZM180.764 50.8C180.124 50.8 179.604 51.0067 179.204 51.42C178.804 51.8333 178.571 52.38 178.504 53.06H182.984C182.918 52.38 182.684 51.8333 182.284 51.42C181.898 51.0067 181.391 50.8 180.764 50.8ZM191.625 59.24C190.785 59.24 190.058 59.1 189.445 58.82C188.845 58.5267 188.351 58.14 187.965 57.66C187.578 57.18 187.291 56.6333 187.105 56.02C186.918 55.3933 186.825 54.74 186.825 54.06C186.825 53.38 186.911 52.7333 187.085 52.12C187.271 51.4933 187.551 50.94 187.925 50.46C188.311 49.98 188.805 49.6 189.405 49.32C190.005 49.0267 190.718 48.88 191.545 48.88C192.371 48.88 193.071 49.0267 193.645 49.32C194.231 49.6133 194.711 49.9867 195.085 50.44L193.405 51.96C193.178 51.68 192.925 51.4667 192.645 51.32C192.365 51.16 192.011 51.08 191.585 51.08C190.891 51.08 190.351 51.3467 189.965 51.88C189.578 52.4 189.385 53.1267 189.385 54.06C189.385 54.9933 189.585 55.7267 189.985 56.26C190.385 56.78 190.931 57.04 191.625 57.04C192.038 57.04 192.398 56.96 192.705 56.8C193.011 56.64 193.278 56.4133 193.505 56.12L195.165 57.66C194.791 58.1133 194.305 58.4933 193.705 58.8C193.118 59.0933 192.425 59.24 191.625 59.24ZM200.698 59.22C199.605 59.22 198.805 58.9267 198.298 58.34C197.805 57.7533 197.558 56.8667 197.558 55.68V51.14H195.998V49.12H197.558V46.44H200.058V49.12H202.938V51.14H200.058V55.66C200.058 56.18 200.151 56.5533 200.338 56.78C200.525 56.9933 200.805 57.1 201.178 57.1C201.445 57.1 201.685 57.0533 201.898 56.96C202.111 56.8533 202.298 56.7267 202.458 56.58L203.358 58.3C203.025 58.62 202.645 58.8533 202.218 59C201.791 59.1467 201.285 59.22 200.698 59.22ZM209.284 59.24C208.457 59.24 207.737 59.1067 207.124 58.84C206.51 58.5733 205.99 58.2067 205.564 57.74C205.15 57.26 204.837 56.7067 204.624 56.08C204.424 55.4533 204.324 54.78 204.324 54.06C204.324 53.3267 204.424 52.6467 204.624 52.02C204.824 51.38 205.124 50.8333 205.524 50.38C205.924 49.9133 206.424 49.5467 207.024 49.28C207.624 49.0133 208.324 48.88 209.124 48.88C209.924 48.88 210.624 49.0067 211.224 49.26C211.824 49.5133 212.317 49.8667 212.704 50.32C213.09 50.7733 213.377 51.3133 213.564 51.94C213.764 52.5533 213.864 53.2267 213.864 53.96C213.864 54.0933 213.85 54.2467 213.824 54.42C213.81 54.5933 213.79 54.7333 213.764 54.84H206.884C206.924 55.2 207.017 55.5267 207.164 55.82C207.324 56.1 207.517 56.34 207.744 56.54C207.984 56.74 208.244 56.8933 208.524 57C208.817 57.0933 209.117 57.14 209.424 57.14C209.997 57.14 210.477 57.04 210.864 56.84C211.25 56.64 211.564 56.3867 211.804 56.08L213.224 57.56C212.85 58.0667 212.33 58.4733 211.664 58.78C210.997 59.0867 210.204 59.24 209.284 59.24ZM209.124 50.8C208.484 50.8 207.964 51.0067 207.564 51.42C207.164 51.8333 206.93 52.38 206.864 53.06H211.344C211.277 52.38 211.044 51.8333 210.644 51.42C210.257 51.0067 209.75 50.8 209.124 50.8ZM219.624 59.22C218.531 59.22 217.731 58.9267 217.224 58.34C216.731 57.7533 216.484 56.8667 216.484 55.68V51.14H214.924V49.12H216.484V46.44H218.984V49.12H221.864V51.14H218.984V55.66C218.984 56.18 219.077 56.5533 219.264 56.78C219.451 56.9933 219.731 57.1 220.104 57.1C220.371 57.1 220.611 57.0533 220.824 56.96C221.037 56.8533 221.224 56.7267 221.384 56.58L222.284 58.3C221.951 58.62 221.571 58.8533 221.144 59C220.717 59.1467 220.211 59.22 219.624 59.22ZM227.308 59.24C226.095 59.24 225.215 58.9133 224.668 58.26C224.121 57.5933 223.848 56.5933 223.848 55.26V49.12H226.368V54.76C226.368 55.56 226.508 56.1533 226.788 56.54C227.068 56.9267 227.528 57.12 228.168 57.12C228.781 57.12 229.241 56.9133 229.548 56.5C229.868 56.0733 230.028 55.46 230.028 54.66V49.12H232.548V59H230.168V57.4H230.048C229.821 57.9333 229.475 58.3733 229.008 58.72C228.541 59.0667 227.975 59.24 227.308 59.24ZM235.179 49.12H237.559V50.78H237.679C237.879 50.2067 238.186 49.7467 238.599 49.4C239.026 49.0533 239.559 48.88 240.199 48.88C240.693 48.88 241.153 48.96 241.579 49.12L240.879 51.42C240.733 51.3267 240.559 51.26 240.359 51.22C240.159 51.18 239.966 51.16 239.779 51.16C239.166 51.16 238.666 51.3733 238.279 51.8C237.893 52.2133 237.699 52.8 237.699 53.56V59H235.179V49.12Z" fill="white"/>
</g>
<defs>
<clipPath id="clip0_9491_9341">
<path d="M0.5 38C0.5 17.0132 17.5132 0 38.5 0H337.5C358.487 0 375.5 17.0132 375.5 38C375.5 58.9868 358.487 76 337.5 76H38.5C17.5132 76 0.5 58.9868 0.5 38Z" fill="white"/>
</clipPath>
</defs>
</svg>
