<svg width="98" height="56" viewBox="0 0 98 56" fill="none" xmlns="http://www.w3.org/2000/svg">
<g clip-path="url(#clip0_9491_9119)">
<path d="M0.5 28C0.5 12.536 13.036 0 28.5 0H69.5C84.964 0 97.5 12.536 97.5 28C97.5 43.464 84.964 56 69.5 56H28.5C13.036 56 0.5 43.464 0.5 28Z" fill="#262626"/>
<path d="M0.5 28C0.5 12.536 13.036 0 28.5 0H69.5C84.964 0 97.5 12.536 97.5 28C97.5 43.464 84.964 56 69.5 56H28.5C13.036 56 0.5 43.464 0.5 28Z" fill="white" fill-opacity="0.01"/>
<path d="M26.2705 22H28.9505V32.82H34.1305V35H26.2705V22ZM38.6296 35.24C38.1896 35.24 37.7696 35.1667 37.3696 35.02C36.9829 34.8867 36.6429 34.6933 36.3496 34.44C36.0563 34.1733 35.8229 33.8533 35.6496 33.48C35.4896 33.1067 35.4096 32.6867 35.4096 32.22C35.4096 31.34 35.7229 30.64 36.3496 30.12C36.9763 29.6 37.9296 29.3067 39.2096 29.24L41.5296 29.1V28.7C41.5296 28.06 41.3363 27.62 40.9496 27.38C40.5629 27.14 40.0829 27.02 39.5096 27.02C39.0563 27.02 38.6296 27.1067 38.2296 27.28C37.8296 27.44 37.5296 27.64 37.3296 27.88L35.9096 26.44C36.2563 25.9867 36.7563 25.6133 37.4096 25.32C38.0763 25.0267 38.8896 24.88 39.8496 24.88C41.2629 24.88 42.3163 25.2067 43.0096 25.86C43.7029 26.5133 44.0496 27.4 44.0496 28.52V35H41.6696V33.42H41.5496C41.2963 33.98 40.9296 34.4267 40.4496 34.76C39.9696 35.08 39.3629 35.24 38.6296 35.24ZM39.3696 33.42C40.0096 33.42 40.5296 33.24 40.9296 32.88C41.3296 32.5067 41.5296 31.9867 41.5296 31.32V30.66L39.5096 30.82C38.4696 30.8867 37.9496 31.3267 37.9496 32.14C37.9496 32.5533 38.0829 32.8733 38.3496 33.1C38.6163 33.3133 38.9563 33.42 39.3696 33.42ZM52.2612 35.24C51.4878 35.24 50.8145 35.0533 50.2412 34.68C49.6812 34.3067 49.2812 33.7933 49.0412 33.14H48.9212V35H46.5212V20.5H49.0412V26.82H49.1612C49.3878 26.2467 49.7678 25.78 50.3012 25.42C50.8345 25.06 51.4878 24.88 52.2612 24.88C52.8745 24.88 53.4412 25.0067 53.9612 25.26C54.4945 25.5133 54.9478 25.8733 55.3212 26.34C55.7078 26.7933 56.0078 27.34 56.2212 27.98C56.4345 28.62 56.5412 29.3267 56.5412 30.1C56.5412 30.86 56.4345 31.56 56.2212 32.2C56.0078 32.8267 55.7078 33.3667 55.3212 33.82C54.9478 34.26 54.4945 34.6067 53.9612 34.86C53.4412 35.1133 52.8745 35.24 52.2612 35.24ZM51.4812 33.04C52.2278 33.04 52.8278 32.7733 53.2812 32.24C53.7345 31.7067 53.9612 30.98 53.9612 30.06C53.9612 29.14 53.7345 28.4133 53.2812 27.88C52.8278 27.3467 52.2278 27.08 51.4812 27.08C50.7478 27.08 50.1545 27.3467 49.7012 27.88C49.2612 28.4133 49.0412 29.14 49.0412 30.06C49.0412 30.98 49.2612 31.7067 49.7012 32.24C50.1545 32.7733 50.7478 33.04 51.4812 33.04ZM62.7934 35.24C61.9667 35.24 61.2467 35.1067 60.6334 34.84C60.02 34.5733 59.5 34.2067 59.0734 33.74C58.66 33.26 58.3467 32.7067 58.1334 32.08C57.9334 31.4533 57.8334 30.78 57.8334 30.06C57.8334 29.3267 57.9334 28.6467 58.1334 28.02C58.3334 27.38 58.6334 26.8333 59.0334 26.38C59.4334 25.9133 59.9334 25.5467 60.5334 25.28C61.1334 25.0133 61.8334 24.88 62.6334 24.88C63.4334 24.88 64.1334 25.0067 64.7334 25.26C65.3334 25.5133 65.8267 25.8667 66.2134 26.32C66.6 26.7733 66.8867 27.3133 67.0734 27.94C67.2734 28.5533 67.3734 29.2267 67.3734 29.96C67.3734 30.0933 67.36 30.2467 67.3334 30.42C67.32 30.5933 67.3 30.7333 67.2734 30.84H60.3934C60.4334 31.2 60.5267 31.5267 60.6734 31.82C60.8334 32.1 61.0267 32.34 61.2534 32.54C61.4934 32.74 61.7534 32.8933 62.0334 33C62.3267 33.0933 62.6267 33.14 62.9334 33.14C63.5067 33.14 63.9867 33.04 64.3734 32.84C64.76 32.64 65.0734 32.3867 65.3134 32.08L66.7334 33.56C66.36 34.0667 65.84 34.4733 65.1734 34.78C64.5067 35.0867 63.7134 35.24 62.7934 35.24ZM62.6334 26.8C61.9934 26.8 61.4734 27.0067 61.0734 27.42C60.6734 27.8333 60.44 28.38 60.3734 29.06H64.8534C64.7867 28.38 64.5534 27.8333 64.1534 27.42C63.7667 27.0067 63.26 26.8 62.6334 26.8ZM69.3337 20.5H71.8537V35H69.3337V20.5Z" fill="white"/>
</g>
<defs>
<clipPath id="clip0_9491_9119">
<path d="M0.5 28C0.5 12.536 13.036 0 28.5 0H69.5C84.964 0 97.5 12.536 97.5 28C97.5 43.464 84.964 56 69.5 56H28.5C13.036 56 0.5 43.464 0.5 28Z" fill="white"/>
</clipPath>
</defs>
</svg>
