<svg width="97" height="56" viewBox="0 0 97 56" fill="none" xmlns="http://www.w3.org/2000/svg">
<g clip-path="url(#clip0_28001_7825)">
<path d="M0 28C0 12.536 12.536 0 28 0H69C84.464 0 97 12.536 97 28C97 43.464 84.464 56 69 56H28C12.536 56 0 43.464 0 28Z" fill="#D50525"/>
<path d="M0 28C0 12.536 12.536 0 28 0H69C84.464 0 97 12.536 97 28C97 43.464 84.464 56 69 56H28C12.536 56 0 43.464 0 28Z" fill="white" fill-opacity="0.01"/>
<path d="M25.7705 22H28.4505V32.82H33.6305V35H25.7705V22ZM38.1296 35.24C37.6896 35.24 37.2696 35.1667 36.8696 35.02C36.4829 34.8867 36.1429 34.6933 35.8496 34.44C35.5563 34.1733 35.3229 33.8533 35.1496 33.48C34.9896 33.1067 34.9096 32.6867 34.9096 32.22C34.9096 31.34 35.2229 30.64 35.8496 30.12C36.4763 29.6 37.4296 29.3067 38.7096 29.24L41.0296 29.1V28.7C41.0296 28.06 40.8363 27.62 40.4496 27.38C40.0629 27.14 39.5829 27.02 39.0096 27.02C38.5563 27.02 38.1296 27.1067 37.7296 27.28C37.3296 27.44 37.0296 27.64 36.8296 27.88L35.4096 26.44C35.7563 25.9867 36.2563 25.6133 36.9096 25.32C37.5763 25.0267 38.3896 24.88 39.3496 24.88C40.7629 24.88 41.8163 25.2067 42.5096 25.86C43.2029 26.5133 43.5496 27.4 43.5496 28.52V35H41.1696V33.42H41.0496C40.7963 33.98 40.4296 34.4267 39.9496 34.76C39.4696 35.08 38.8629 35.24 38.1296 35.24ZM38.8696 33.42C39.5096 33.42 40.0296 33.24 40.4296 32.88C40.8296 32.5067 41.0296 31.9867 41.0296 31.32V30.66L39.0096 30.82C37.9696 30.8867 37.4496 31.3267 37.4496 32.14C37.4496 32.5533 37.5829 32.8733 37.8496 33.1C38.1163 33.3133 38.4563 33.42 38.8696 33.42ZM51.7612 35.24C50.9878 35.24 50.3145 35.0533 49.7412 34.68C49.1812 34.3067 48.7812 33.7933 48.5412 33.14H48.4212V35H46.0212V20.5H48.5412V26.82H48.6612C48.8878 26.2467 49.2678 25.78 49.8012 25.42C50.3345 25.06 50.9878 24.88 51.7612 24.88C52.3745 24.88 52.9412 25.0067 53.4612 25.26C53.9945 25.5133 54.4478 25.8733 54.8212 26.34C55.2078 26.7933 55.5078 27.34 55.7212 27.98C55.9345 28.62 56.0412 29.3267 56.0412 30.1C56.0412 30.86 55.9345 31.56 55.7212 32.2C55.5078 32.8267 55.2078 33.3667 54.8212 33.82C54.4478 34.26 53.9945 34.6067 53.4612 34.86C52.9412 35.1133 52.3745 35.24 51.7612 35.24ZM50.9812 33.04C51.7278 33.04 52.3278 32.7733 52.7812 32.24C53.2345 31.7067 53.4612 30.98 53.4612 30.06C53.4612 29.14 53.2345 28.4133 52.7812 27.88C52.3278 27.3467 51.7278 27.08 50.9812 27.08C50.2478 27.08 49.6545 27.3467 49.2012 27.88C48.7612 28.4133 48.5412 29.14 48.5412 30.06C48.5412 30.98 48.7612 31.7067 49.2012 32.24C49.6545 32.7733 50.2478 33.04 50.9812 33.04ZM62.2934 35.24C61.4667 35.24 60.7467 35.1067 60.1334 34.84C59.52 34.5733 59 34.2067 58.5734 33.74C58.16 33.26 57.8467 32.7067 57.6334 32.08C57.4334 31.4533 57.3334 30.78 57.3334 30.06C57.3334 29.3267 57.4334 28.6467 57.6334 28.02C57.8334 27.38 58.1334 26.8333 58.5334 26.38C58.9334 25.9133 59.4334 25.5467 60.0334 25.28C60.6334 25.0133 61.3334 24.88 62.1334 24.88C62.9334 24.88 63.6334 25.0067 64.2334 25.26C64.8334 25.5133 65.3267 25.8667 65.7134 26.32C66.1 26.7733 66.3867 27.3133 66.5734 27.94C66.7734 28.5533 66.8734 29.2267 66.8734 29.96C66.8734 30.0933 66.86 30.2467 66.8334 30.42C66.82 30.5933 66.8 30.7333 66.7734 30.84H59.8934C59.9334 31.2 60.0267 31.5267 60.1734 31.82C60.3334 32.1 60.5267 32.34 60.7534 32.54C60.9934 32.74 61.2534 32.8933 61.5334 33C61.8267 33.0933 62.1267 33.14 62.4334 33.14C63.0067 33.14 63.4867 33.04 63.8734 32.84C64.26 32.64 64.5734 32.3867 64.8134 32.08L66.2334 33.56C65.86 34.0667 65.34 34.4733 64.6734 34.78C64.0067 35.0867 63.2134 35.24 62.2934 35.24ZM62.1334 26.8C61.4934 26.8 60.9734 27.0067 60.5734 27.42C60.1734 27.8333 59.94 28.38 59.8734 29.06H64.3534C64.2867 28.38 64.0534 27.8333 63.6534 27.42C63.2667 27.0067 62.76 26.8 62.1334 26.8ZM68.8337 20.5H71.3537V35H68.8337V20.5Z" fill="white"/>
</g>
<defs>
<clipPath id="clip0_28001_7825">
<path d="M0 28C0 12.536 12.536 0 28 0H69C84.464 0 97 12.536 97 28C97 43.464 84.464 56 69 56H28C12.536 56 0 43.464 0 28Z" fill="white"/>
</clipPath>
</defs>
</svg>
