<svg width="98" height="57" fill="none" xmlns="http://www.w3.org/2000/svg"><g clip-path="url(#variation-secondary__a)"><mask id="variation-secondary__b" style="mask-type:luminance" maskUnits="userSpaceOnUse" x="0" y="0" width="98" height="57"><path d="M69.5.5h-41C13.036.5.5 13.036.5 28.5s12.536 28 28 28h41c15.464 0 28-12.536 28-28S84.964.5 69.5.5Z" fill="#fff"/></mask><g mask="url(#variation-secondary__b)"><path d="M69.5.5h-41C13.036.5.5 13.036.5 28.5s12.536 28 28 28h41c15.464 0 28-12.536 28-28S84.964.5 69.5.5Z" fill="#F5F3F1"/><path d="M26.27 22.5h2.68v10.82h5.18v2.18h-7.86v-13Zm12.36 13.24c-.44 0-.86-.073-1.26-.22a3.077 3.077 0 0 1-1.02-.58 2.975 2.975 0 0 1-.7-.96 3.169 3.169 0 0 1-.24-1.26c0-.88.313-1.58.94-2.1.626-.52 1.58-.813 2.86-.88l2.32-.14v-.4c0-.64-.194-1.08-.58-1.32-.387-.24-.867-.36-1.44-.36-.454 0-.88.087-1.28.26-.4.16-.7.36-.9.6l-1.42-1.44c.346-.453.846-.827 1.5-1.12.666-.293 1.48-.44 2.44-.44 1.413 0 2.466.327 3.16.98.693.653 1.04 1.54 1.04 2.66v6.48h-2.38v-1.58h-.12a3.2 3.2 0 0 1-1.1 1.34c-.48.32-1.087.48-1.82.48Zm.74-1.82c.64 0 1.16-.18 1.56-.54.4-.373.6-.893.6-1.56v-.66l-2.02.16c-1.04.067-1.56.507-1.56 1.32 0 .413.133.733.4.96.266.213.606.32 1.02.32Zm12.891 1.82c-.773 0-1.447-.187-2.02-.56a3.072 3.072 0 0 1-1.2-1.54h-.12v1.86h-2.4V21h2.52v6.32h.12a2.986 2.986 0 0 1 1.14-1.4c.533-.36 1.187-.54 1.96-.54.613 0 1.18.127 1.7.38.534.253.987.613 1.36 1.08.387.453.687 1 .9 1.64.214.64.32 1.347.32 2.12 0 .76-.106 1.46-.32 2.1a4.9 4.9 0 0 1-.9 1.62c-.373.44-.826.787-1.36 1.04a3.83 3.83 0 0 1-1.7.38Zm-.78-2.2c.747 0 1.347-.267 1.8-.8.453-.533.68-1.26.68-2.18 0-.92-.227-1.647-.68-2.18-.453-.533-1.053-.8-1.8-.8-.733 0-1.327.267-1.78.8-.44.533-.66 1.26-.66 2.18 0 .92.22 1.647.66 2.18.453.533 1.047.8 1.78.8Zm11.312 2.2c-.826 0-1.546-.133-2.16-.4a4.53 4.53 0 0 1-1.56-1.1 4.969 4.969 0 0 1-.94-1.66c-.2-.627-.3-1.3-.3-2.02 0-.733.1-1.413.3-2.04.2-.64.5-1.187.9-1.64.4-.467.9-.833 1.5-1.1.6-.267 1.3-.4 2.1-.4s1.5.127 2.1.38c.6.253 1.094.607 1.48 1.06.387.453.674.993.86 1.62.2.613.3 1.287.3 2.02 0 .133-.013.287-.04.46a2.638 2.638 0 0 1-.06.42h-6.88c.04.36.134.687.28.98.16.28.354.52.58.72.24.2.5.353.78.46.294.093.594.14.9.14.574 0 1.054-.1 1.44-.3.387-.2.7-.453.94-.76l1.42 1.48c-.373.507-.893.913-1.56 1.22-.666.307-1.46.46-2.38.46Zm-.16-8.44c-.64 0-1.16.207-1.56.62-.4.413-.633.96-.7 1.64h4.48c-.066-.68-.3-1.227-.7-1.64-.386-.413-.893-.62-1.52-.62Zm6.7-6.3h2.52v14.5h-2.52V21Z" fill="#242E30"/></g></g><defs><clipPath id="variation-secondary__a"><path fill="#fff" transform="translate(.5 .5)" d="M0 0h97v56H0z"/></clipPath></defs></svg>