<svg width="1034" height="402" viewBox="0 0 1034 402" fill="none" xmlns="http://www.w3.org/2000/svg">
<rect x="0.5" y="0.5" width="1033" height="401" rx="16.5" fill="#F75E28" stroke="#DBD9D7"/>
<mask id="mask0_742_141271" style="mask-type:alpha" maskUnits="userSpaceOnUse" x="1" y="1" width="1032" height="400">
<rect x="1" y="1" width="1032" height="400" rx="16" fill="#00DCFF"/>
</mask>
<g mask="url(#mask0_742_141271)">
<g filter="url(#filter0_f_742_141271)">
<rect x="231" y="128" width="911" height="359" rx="24" fill="#A4411E"/>
</g>
<rect x="215" y="112" width="906" height="351" rx="20" fill="white" stroke="#F75E28" stroke-width="8"/>
<rect width="876" height="2" transform="translate(219 236)" fill="black" fill-opacity="0.08"/>
<rect width="138" height="84" transform="translate(275 152)" fill="white" fill-opacity="0.01"/>
<path d="M300.739 186.4H307.147C307.883 186.4 308.555 186.512 309.163 186.736C309.787 186.96 310.323 187.288 310.771 187.72C311.219 188.136 311.563 188.648 311.803 189.256C312.059 189.848 312.187 190.512 312.187 191.248C312.187 192.304 311.923 193.208 311.395 193.96C310.867 194.712 310.115 195.24 309.139 195.544L309.115 195.64L312.787 202H309.187L306.067 196.288H303.955V202H300.739V186.4ZM306.715 193.84C307.403 193.84 307.947 193.616 308.347 193.168C308.747 192.72 308.947 192.104 308.947 191.32C308.947 190.536 308.747 189.928 308.347 189.496C307.963 189.064 307.427 188.848 306.739 188.848H303.955V193.84H306.715ZM320.146 202.288C319.154 202.288 318.29 202.128 317.554 201.808C316.818 201.488 316.194 201.048 315.682 200.488C315.186 199.912 314.81 199.248 314.554 198.496C314.314 197.744 314.194 196.936 314.194 196.072C314.194 195.192 314.314 194.376 314.554 193.624C314.794 192.856 315.154 192.2 315.634 191.656C316.114 191.096 316.714 190.656 317.434 190.336C318.154 190.016 318.994 189.856 319.954 189.856C320.914 189.856 321.754 190.008 322.474 190.312C323.194 190.616 323.786 191.04 324.25 191.584C324.714 192.128 325.058 192.776 325.282 193.528C325.522 194.264 325.642 195.072 325.642 195.952C325.642 196.112 325.626 196.296 325.594 196.504C325.578 196.712 325.554 196.88 325.522 197.008H317.266C317.314 197.44 317.426 197.832 317.602 198.184C317.794 198.52 318.026 198.808 318.298 199.048C318.586 199.288 318.898 199.472 319.234 199.6C319.586 199.712 319.946 199.768 320.314 199.768C321.002 199.768 321.578 199.648 322.042 199.408C322.506 199.168 322.882 198.864 323.17 198.496L324.874 200.272C324.426 200.88 323.802 201.368 323.002 201.736C322.202 202.104 321.25 202.288 320.146 202.288ZM319.954 192.16C319.186 192.16 318.562 192.408 318.082 192.904C317.602 193.4 317.322 194.056 317.242 194.872H322.618C322.538 194.056 322.258 193.4 321.778 192.904C321.314 192.408 320.706 192.16 319.954 192.16ZM326.441 190.144H329.753L332.489 198.832H332.633L335.393 190.144H338.489L334.073 202H330.833L326.441 190.144ZM343.705 186.856C343.705 187.304 343.545 187.704 343.225 188.056C342.921 188.408 342.489 188.584 341.929 188.584C341.353 188.584 340.913 188.408 340.609 188.056C340.305 187.704 340.153 187.304 340.153 186.856C340.153 186.392 340.305 185.992 340.609 185.656C340.913 185.304 341.353 185.128 341.929 185.128C342.489 185.128 342.921 185.304 343.225 185.656C343.545 185.992 343.705 186.392 343.705 186.856ZM340.393 190.144H343.417V202H340.393V190.144ZM351.74 202.288C350.748 202.288 349.884 202.128 349.148 201.808C348.412 201.488 347.788 201.048 347.276 200.488C346.78 199.912 346.404 199.248 346.148 198.496C345.908 197.744 345.788 196.936 345.788 196.072C345.788 195.192 345.908 194.376 346.148 193.624C346.388 192.856 346.748 192.2 347.228 191.656C347.708 191.096 348.308 190.656 349.028 190.336C349.748 190.016 350.588 189.856 351.548 189.856C352.508 189.856 353.348 190.008 354.068 190.312C354.788 190.616 355.38 191.04 355.844 191.584C356.308 192.128 356.652 192.776 356.876 193.528C357.116 194.264 357.236 195.072 357.236 195.952C357.236 196.112 357.22 196.296 357.188 196.504C357.172 196.712 357.148 196.88 357.116 197.008H348.86C348.908 197.44 349.02 197.832 349.196 198.184C349.388 198.52 349.62 198.808 349.892 199.048C350.18 199.288 350.492 199.472 350.828 199.6C351.18 199.712 351.54 199.768 351.908 199.768C352.596 199.768 353.172 199.648 353.636 199.408C354.1 199.168 354.476 198.864 354.764 198.496L356.468 200.272C356.02 200.88 355.396 201.368 354.596 201.736C353.796 202.104 352.844 202.288 351.74 202.288ZM351.548 192.16C350.78 192.16 350.156 192.408 349.676 192.904C349.196 193.4 348.916 194.056 348.836 194.872H354.212C354.132 194.056 353.852 193.4 353.372 192.904C352.908 192.408 352.3 192.16 351.548 192.16ZM358.155 190.144H361.491L363.819 198.664H363.963L366.243 190.144H369.627L371.883 198.664H372.027L374.355 190.144H377.499L373.443 202H370.251L367.875 193.24H367.731L365.379 202H362.211L358.155 190.144ZM385.034 198.64C385.034 198.4 384.962 198.2 384.818 198.04C384.69 197.864 384.498 197.72 384.242 197.608C384.002 197.496 383.714 197.4 383.378 197.32C383.042 197.224 382.674 197.128 382.274 197.032C381.81 196.92 381.37 196.776 380.954 196.6C380.538 196.424 380.17 196.2 379.85 195.928C379.546 195.64 379.298 195.304 379.106 194.92C378.914 194.536 378.818 194.072 378.818 193.528C378.818 192.936 378.93 192.416 379.154 191.968C379.394 191.504 379.722 191.12 380.138 190.816C380.554 190.496 381.05 190.256 381.626 190.096C382.202 189.936 382.826 189.856 383.498 189.856C384.554 189.856 385.466 190.024 386.234 190.36C387.002 190.68 387.594 191.112 388.01 191.656L386.33 193.384C386.01 193.032 385.61 192.744 385.13 192.52C384.666 192.296 384.178 192.184 383.666 192.184C383.186 192.184 382.762 192.28 382.394 192.472C382.026 192.664 381.842 192.976 381.842 193.408C381.842 193.648 381.906 193.848 382.034 194.008C382.178 194.168 382.37 194.312 382.61 194.44C382.866 194.552 383.162 194.656 383.498 194.752C383.834 194.832 384.202 194.92 384.602 195.016C385.05 195.128 385.482 195.272 385.898 195.448C386.33 195.624 386.698 195.856 387.002 196.144C387.322 196.416 387.578 196.744 387.77 197.128C387.962 197.512 388.058 197.976 388.058 198.52C388.058 199.144 387.93 199.688 387.674 200.152C387.434 200.616 387.09 201.008 386.642 201.328C386.21 201.648 385.69 201.888 385.082 202.048C384.49 202.208 383.85 202.288 383.162 202.288C381.994 202.288 381.002 202.12 380.186 201.784C379.386 201.448 378.778 201.016 378.362 200.488L379.994 198.736C380.362 199.12 380.81 199.424 381.338 199.648C381.866 199.856 382.442 199.96 383.066 199.96C383.626 199.96 384.09 199.856 384.458 199.648C384.842 199.424 385.034 199.088 385.034 198.64Z" fill="#242E30"/>
<path d="M275 233C275 231.343 276.343 230 278 230H410C411.657 230 413 231.343 413 233V236H275V233Z" fill="#262626"/>
<rect width="92" height="84" transform="translate(413 152)" fill="white" fill-opacity="0.01"/>
<path d="M437.914 199.672H439.666V188.728H437.914V186.4H444.61V188.728H442.858V199.672H444.61V202H437.914V199.672ZM447.025 190.144H449.881V192.064H450.025C450.297 191.424 450.721 190.896 451.297 190.48C451.889 190.064 452.593 189.856 453.409 189.856C454.913 189.856 455.993 190.256 456.649 191.056C457.321 191.84 457.657 193.032 457.657 194.632V202H454.633V195.232C454.633 194.272 454.457 193.56 454.105 193.096C453.769 192.632 453.193 192.4 452.377 192.4C451.609 192.4 451.025 192.656 450.625 193.168C450.241 193.664 450.049 194.392 450.049 195.352V202H447.025V190.144ZM461.433 192.568H459.561V190.144H461.433V188.608C461.433 187.328 461.777 186.296 462.465 185.512C463.153 184.712 464.209 184.312 465.633 184.312C465.969 184.312 466.297 184.344 466.617 184.408C466.937 184.472 467.217 184.56 467.457 184.672L466.521 187C466.441 186.936 466.313 186.888 466.137 186.856C465.977 186.824 465.833 186.808 465.705 186.808C465.305 186.808 464.993 186.952 464.769 187.24C464.561 187.512 464.457 187.96 464.457 188.584V190.144H467.505V192.568H464.457V202H461.433V192.568ZM474.24 202.288C473.248 202.288 472.376 202.128 471.624 201.808C470.888 201.472 470.264 201.024 469.752 200.464C469.256 199.904 468.88 199.248 468.624 198.496C468.384 197.728 468.264 196.92 468.264 196.072C468.264 195.224 468.384 194.424 468.624 193.672C468.88 192.92 469.256 192.264 469.752 191.704C470.264 191.128 470.888 190.68 471.624 190.36C472.376 190.024 473.248 189.856 474.24 189.856C475.232 189.856 476.096 190.024 476.832 190.36C477.584 190.68 478.2 191.128 478.68 191.704C479.176 192.264 479.544 192.92 479.784 193.672C480.04 194.424 480.168 195.224 480.168 196.072C480.168 196.92 480.04 197.728 479.784 198.496C479.544 199.248 479.176 199.904 478.68 200.464C478.2 201.024 477.584 201.472 476.832 201.808C476.096 202.128 475.232 202.288 474.24 202.288ZM471.36 196.072C471.36 197.24 471.608 198.16 472.104 198.832C472.616 199.504 473.328 199.84 474.24 199.84C475.136 199.84 475.832 199.504 476.328 198.832C476.84 198.16 477.096 197.24 477.096 196.072C477.096 194.904 476.84 193.984 476.328 193.312C475.832 192.64 475.136 192.304 474.24 192.304C473.328 192.304 472.616 192.64 472.104 193.312C471.608 193.984 471.36 194.904 471.36 196.072Z" fill="#3C4C4F"/>
<rect x="413" y="230" width="92" height="6" fill="white" fill-opacity="0.01"/>
<rect width="117" height="84" transform="translate(505 152)" fill="white" fill-opacity="0.01"/>
<path d="M538.229 202.288C536.933 202.288 535.797 202.072 534.821 201.64C533.861 201.192 533.061 200.592 532.421 199.84C531.781 199.088 531.301 198.224 530.981 197.248C530.661 196.272 530.501 195.24 530.501 194.152C530.501 193.096 530.661 192.08 530.981 191.104C531.301 190.128 531.781 189.272 532.421 188.536C533.061 187.8 533.861 187.216 534.821 186.784C535.797 186.336 536.933 186.112 538.229 186.112C539.525 186.112 540.653 186.336 541.613 186.784C542.573 187.216 543.373 187.8 544.013 188.536C544.653 189.272 545.133 190.128 545.453 191.104C545.773 192.08 545.933 193.096 545.933 194.152C545.933 195.24 545.773 196.272 545.453 197.248C545.133 198.224 544.653 199.088 544.013 199.84C543.373 200.592 542.573 201.192 541.613 201.64C540.653 202.072 539.525 202.288 538.229 202.288ZM538.229 199.624C538.869 199.624 539.461 199.504 540.005 199.264C540.549 199.024 541.013 198.672 541.397 198.208C541.797 197.744 542.101 197.176 542.309 196.504C542.533 195.816 542.645 195.032 542.645 194.152C542.645 193.272 542.533 192.496 542.309 191.824C542.101 191.152 541.797 190.592 541.397 190.144C541.013 189.696 540.549 189.36 540.005 189.136C539.461 188.896 538.869 188.776 538.229 188.776C537.573 188.776 536.973 188.896 536.429 189.136C535.885 189.36 535.413 189.696 535.013 190.144C534.629 190.592 534.325 191.152 534.101 191.824C533.893 192.496 533.789 193.272 533.789 194.152C533.789 195.928 534.197 197.288 535.013 198.232C535.845 199.16 536.917 199.624 538.229 199.624ZM549.281 192.568H547.409V190.144H549.281V188.608C549.281 187.328 549.625 186.296 550.313 185.512C551.001 184.712 552.057 184.312 553.481 184.312C553.817 184.312 554.145 184.344 554.465 184.408C554.785 184.472 555.065 184.56 555.305 184.672L554.369 187C554.289 186.936 554.161 186.888 553.985 186.856C553.825 186.824 553.681 186.808 553.553 186.808C553.153 186.808 552.841 186.952 552.617 187.24C552.409 187.512 552.305 187.96 552.305 188.584V190.144H555.353V192.568H552.305V202H549.281V192.568ZM557.953 192.568H556.081V190.144H557.953V188.608C557.953 187.328 558.297 186.296 558.985 185.512C559.673 184.712 560.729 184.312 562.153 184.312C562.489 184.312 562.817 184.344 563.137 184.408C563.457 184.472 563.737 184.56 563.977 184.672L563.041 187C562.961 186.936 562.833 186.888 562.657 186.856C562.497 186.824 562.353 186.808 562.225 186.808C561.825 186.808 561.513 186.952 561.289 187.24C561.081 187.512 560.977 187.96 560.977 188.584V190.144H564.025V192.568H560.977V202H557.953V192.568ZM570.736 202.288C569.744 202.288 568.88 202.128 568.144 201.808C567.408 201.488 566.784 201.048 566.272 200.488C565.776 199.912 565.4 199.248 565.144 198.496C564.904 197.744 564.784 196.936 564.784 196.072C564.784 195.192 564.904 194.376 565.144 193.624C565.384 192.856 565.744 192.2 566.224 191.656C566.704 191.096 567.304 190.656 568.024 190.336C568.744 190.016 569.584 189.856 570.544 189.856C571.504 189.856 572.344 190.008 573.064 190.312C573.784 190.616 574.376 191.04 574.84 191.584C575.304 192.128 575.648 192.776 575.872 193.528C576.112 194.264 576.232 195.072 576.232 195.952C576.232 196.112 576.216 196.296 576.184 196.504C576.168 196.712 576.144 196.88 576.112 197.008H567.856C567.904 197.44 568.016 197.832 568.192 198.184C568.384 198.52 568.616 198.808 568.888 199.048C569.176 199.288 569.488 199.472 569.824 199.6C570.176 199.712 570.536 199.768 570.904 199.768C571.592 199.768 572.168 199.648 572.632 199.408C573.096 199.168 573.472 198.864 573.76 198.496L575.464 200.272C575.016 200.88 574.392 201.368 573.592 201.736C572.792 202.104 571.84 202.288 570.736 202.288ZM570.544 192.16C569.776 192.16 569.152 192.408 568.672 192.904C568.192 193.4 567.912 194.056 567.832 194.872H573.208C573.128 194.056 572.848 193.4 572.368 192.904C571.904 192.408 571.296 192.16 570.544 192.16ZM578.584 190.144H581.44V192.136H581.584C581.824 191.448 582.192 190.896 582.688 190.48C583.2 190.064 583.84 189.856 584.608 189.856C585.2 189.856 585.752 189.952 586.264 190.144L585.424 192.904C585.248 192.792 585.04 192.712 584.8 192.664C584.56 192.616 584.328 192.592 584.104 192.592C583.368 192.592 582.768 192.848 582.304 193.36C581.84 193.856 581.608 194.56 581.608 195.472V202H578.584V190.144ZM593.6 198.64C593.6 198.4 593.528 198.2 593.384 198.04C593.256 197.864 593.064 197.72 592.808 197.608C592.568 197.496 592.28 197.4 591.944 197.32C591.608 197.224 591.24 197.128 590.84 197.032C590.376 196.92 589.936 196.776 589.52 196.6C589.104 196.424 588.736 196.2 588.416 195.928C588.112 195.64 587.864 195.304 587.672 194.92C587.48 194.536 587.384 194.072 587.384 193.528C587.384 192.936 587.496 192.416 587.72 191.968C587.96 191.504 588.288 191.12 588.704 190.816C589.12 190.496 589.616 190.256 590.192 190.096C590.768 189.936 591.392 189.856 592.064 189.856C593.12 189.856 594.032 190.024 594.8 190.36C595.568 190.68 596.16 191.112 596.576 191.656L594.896 193.384C594.576 193.032 594.176 192.744 593.696 192.52C593.232 192.296 592.744 192.184 592.232 192.184C591.752 192.184 591.328 192.28 590.96 192.472C590.592 192.664 590.408 192.976 590.408 193.408C590.408 193.648 590.472 193.848 590.6 194.008C590.744 194.168 590.936 194.312 591.176 194.44C591.432 194.552 591.728 194.656 592.064 194.752C592.4 194.832 592.768 194.92 593.168 195.016C593.616 195.128 594.048 195.272 594.464 195.448C594.896 195.624 595.264 195.856 595.568 196.144C595.888 196.416 596.144 196.744 596.336 197.128C596.528 197.512 596.624 197.976 596.624 198.52C596.624 199.144 596.496 199.688 596.24 200.152C596 200.616 595.656 201.008 595.208 201.328C594.776 201.648 594.256 201.888 593.648 202.048C593.056 202.208 592.416 202.288 591.728 202.288C590.56 202.288 589.568 202.12 588.752 201.784C587.952 201.448 587.344 201.016 586.928 200.488L588.56 198.736C588.928 199.12 589.376 199.424 589.904 199.648C590.432 199.856 591.008 199.96 591.632 199.96C592.192 199.96 592.656 199.856 593.024 199.648C593.408 199.424 593.6 199.088 593.6 198.64Z" fill="#3C4C4F"/>
<rect x="505" y="230" width="117" height="6" fill="white" fill-opacity="0.01"/>
<rect width="158" height="84" transform="translate(622 152)" fill="white" fill-opacity="0.01"/>
<path d="M647.873 186.4H657.281V188.968H651.089V192.808H657.089V195.376H651.089V199.432H657.473V202H647.873V186.4ZM663.337 196.048L659.401 190.144H663.073L665.185 193.744H665.305L667.537 190.144H670.753L666.817 195.736L671.017 202H667.321L664.993 198.064H664.873L662.377 202H659.161L663.337 196.048ZM677.494 202.288C676.486 202.288 675.614 202.12 674.878 201.784C674.158 201.432 673.566 200.968 673.102 200.392C672.638 199.816 672.294 199.16 672.07 198.424C671.846 197.672 671.734 196.888 671.734 196.072C671.734 195.256 671.838 194.48 672.046 193.744C672.27 192.992 672.606 192.328 673.054 191.752C673.518 191.176 674.11 190.72 674.83 190.384C675.55 190.032 676.406 189.856 677.398 189.856C678.39 189.856 679.23 190.032 679.918 190.384C680.622 190.736 681.198 191.184 681.646 191.728L679.63 193.552C679.358 193.216 679.054 192.96 678.718 192.784C678.382 192.592 677.958 192.496 677.446 192.496C676.614 192.496 675.966 192.816 675.502 193.456C675.038 194.08 674.806 194.952 674.806 196.072C674.806 197.192 675.046 198.072 675.526 198.712C676.006 199.336 676.662 199.648 677.494 199.648C677.99 199.648 678.422 199.552 678.79 199.36C679.158 199.168 679.478 198.896 679.75 198.544L681.742 200.392C681.294 200.936 680.71 201.392 679.99 201.76C679.286 202.112 678.454 202.288 677.494 202.288ZM683.822 184.6H686.846V202H683.822V184.6ZM694.017 202.288C692.561 202.288 691.505 201.896 690.849 201.112C690.193 200.312 689.865 199.112 689.865 197.512V190.144H692.889V196.912C692.889 197.872 693.057 198.584 693.393 199.048C693.729 199.512 694.281 199.744 695.049 199.744C695.785 199.744 696.337 199.496 696.705 199C697.089 198.488 697.281 197.752 697.281 196.792V190.144H700.305V202H697.449V200.08H697.305C697.033 200.72 696.617 201.248 696.057 201.664C695.497 202.08 694.817 202.288 694.017 202.288ZM709.151 198.64C709.151 198.4 709.079 198.2 708.935 198.04C708.807 197.864 708.615 197.72 708.359 197.608C708.119 197.496 707.831 197.4 707.495 197.32C707.159 197.224 706.791 197.128 706.391 197.032C705.927 196.92 705.487 196.776 705.071 196.6C704.655 196.424 704.287 196.2 703.967 195.928C703.663 195.64 703.415 195.304 703.223 194.92C703.031 194.536 702.935 194.072 702.935 193.528C702.935 192.936 703.047 192.416 703.271 191.968C703.511 191.504 703.839 191.12 704.255 190.816C704.671 190.496 705.167 190.256 705.743 190.096C706.319 189.936 706.943 189.856 707.615 189.856C708.671 189.856 709.583 190.024 710.351 190.36C711.119 190.68 711.711 191.112 712.127 191.656L710.447 193.384C710.127 193.032 709.727 192.744 709.247 192.52C708.783 192.296 708.295 192.184 707.783 192.184C707.303 192.184 706.879 192.28 706.511 192.472C706.143 192.664 705.959 192.976 705.959 193.408C705.959 193.648 706.023 193.848 706.151 194.008C706.295 194.168 706.487 194.312 706.727 194.44C706.983 194.552 707.279 194.656 707.615 194.752C707.951 194.832 708.319 194.92 708.719 195.016C709.167 195.128 709.599 195.272 710.015 195.448C710.447 195.624 710.815 195.856 711.119 196.144C711.439 196.416 711.695 196.744 711.887 197.128C712.079 197.512 712.175 197.976 712.175 198.52C712.175 199.144 712.047 199.688 711.791 200.152C711.551 200.616 711.207 201.008 710.759 201.328C710.327 201.648 709.807 201.888 709.199 202.048C708.607 202.208 707.967 202.288 707.279 202.288C706.111 202.288 705.119 202.12 704.303 201.784C703.503 201.448 702.895 201.016 702.479 200.488L704.111 198.736C704.479 199.12 704.927 199.424 705.455 199.648C705.983 199.856 706.559 199.96 707.183 199.96C707.743 199.96 708.207 199.856 708.575 199.648C708.959 199.424 709.151 199.088 709.151 198.64ZM717.978 186.856C717.978 187.304 717.818 187.704 717.498 188.056C717.194 188.408 716.762 188.584 716.202 188.584C715.626 188.584 715.186 188.408 714.882 188.056C714.578 187.704 714.426 187.304 714.426 186.856C714.426 186.392 714.578 185.992 714.882 185.656C715.186 185.304 715.626 185.128 716.202 185.128C716.762 185.128 717.194 185.304 717.498 185.656C717.818 185.992 717.978 186.392 717.978 186.856ZM714.666 190.144H717.69V202H714.666V190.144ZM719.605 190.144H722.917L725.653 198.832H725.797L728.557 190.144H731.653L727.237 202H723.997L719.605 190.144ZM738.411 202.288C737.419 202.288 736.555 202.128 735.819 201.808C735.083 201.488 734.459 201.048 733.947 200.488C733.451 199.912 733.075 199.248 732.819 198.496C732.579 197.744 732.459 196.936 732.459 196.072C732.459 195.192 732.579 194.376 732.819 193.624C733.059 192.856 733.419 192.2 733.899 191.656C734.379 191.096 734.979 190.656 735.699 190.336C736.419 190.016 737.259 189.856 738.219 189.856C739.179 189.856 740.019 190.008 740.739 190.312C741.459 190.616 742.051 191.04 742.515 191.584C742.979 192.128 743.323 192.776 743.547 193.528C743.787 194.264 743.907 195.072 743.907 195.952C743.907 196.112 743.891 196.296 743.859 196.504C743.843 196.712 743.819 196.88 743.787 197.008H735.531C735.579 197.44 735.691 197.832 735.867 198.184C736.059 198.52 736.291 198.808 736.563 199.048C736.851 199.288 737.163 199.472 737.499 199.6C737.851 199.712 738.211 199.768 738.579 199.768C739.267 199.768 739.843 199.648 740.307 199.408C740.771 199.168 741.147 198.864 741.435 198.496L743.139 200.272C742.691 200.88 742.067 201.368 741.267 201.736C740.467 202.104 739.515 202.288 738.411 202.288ZM738.219 192.16C737.451 192.16 736.827 192.408 736.347 192.904C735.867 193.4 735.587 194.056 735.507 194.872H740.883C740.803 194.056 740.523 193.4 740.043 192.904C739.579 192.408 738.971 192.16 738.219 192.16ZM751.948 198.64C751.948 198.4 751.876 198.2 751.732 198.04C751.604 197.864 751.412 197.72 751.156 197.608C750.916 197.496 750.628 197.4 750.292 197.32C749.956 197.224 749.588 197.128 749.188 197.032C748.724 196.92 748.284 196.776 747.868 196.6C747.452 196.424 747.084 196.2 746.764 195.928C746.46 195.64 746.212 195.304 746.02 194.92C745.828 194.536 745.732 194.072 745.732 193.528C745.732 192.936 745.844 192.416 746.068 191.968C746.308 191.504 746.636 191.12 747.052 190.816C747.468 190.496 747.964 190.256 748.54 190.096C749.116 189.936 749.74 189.856 750.412 189.856C751.468 189.856 752.38 190.024 753.148 190.36C753.916 190.68 754.508 191.112 754.924 191.656L753.244 193.384C752.924 193.032 752.524 192.744 752.044 192.52C751.58 192.296 751.092 192.184 750.58 192.184C750.1 192.184 749.676 192.28 749.308 192.472C748.94 192.664 748.756 192.976 748.756 193.408C748.756 193.648 748.82 193.848 748.948 194.008C749.092 194.168 749.284 194.312 749.524 194.44C749.78 194.552 750.076 194.656 750.412 194.752C750.748 194.832 751.116 194.92 751.516 195.016C751.964 195.128 752.396 195.272 752.812 195.448C753.244 195.624 753.612 195.856 753.916 196.144C754.236 196.416 754.492 196.744 754.684 197.128C754.876 197.512 754.972 197.976 754.972 198.52C754.972 199.144 754.844 199.688 754.588 200.152C754.348 200.616 754.004 201.008 753.556 201.328C753.124 201.648 752.604 201.888 751.996 202.048C751.404 202.208 750.764 202.288 750.076 202.288C748.908 202.288 747.916 202.12 747.1 201.784C746.3 201.448 745.692 201.016 745.276 200.488L746.908 198.736C747.276 199.12 747.724 199.424 748.252 199.648C748.78 199.856 749.356 199.96 749.98 199.96C750.54 199.96 751.004 199.856 751.372 199.648C751.756 199.424 751.948 199.088 751.948 198.64Z" fill="#3C4C4F"/>
<rect x="622" y="230" width="158" height="6" fill="white" fill-opacity="0.01"/>
</g>
<defs>
<filter id="filter0_f_742_141271" x="131" y="28" width="1111" height="559" filterUnits="userSpaceOnUse" color-interpolation-filters="sRGB">
<feFlood flood-opacity="0" result="BackgroundImageFix"/>
<feBlend mode="normal" in="SourceGraphic" in2="BackgroundImageFix" result="shape"/>
<feGaussianBlur stdDeviation="50" result="effect1_foregroundBlur_742_141271"/>
</filter>
</defs>
</svg>
