<svg width="343" height="596" viewBox="0 0 343 596" fill="none" xmlns="http://www.w3.org/2000/svg">
<g clip-path="url(#clip0_4047_198458)">
<path d="M20.9792 7.22249L13.4192 15.36C13.2528 15.5424 13.05 15.688 12.824 15.7874C12.598 15.8869 12.3537 15.938 12.1067 15.9375C11.8603 15.9349 11.6169 15.8824 11.3914 15.7831C11.1658 15.6838 10.9626 15.5399 10.7942 15.36L7.48672 11.6719L8.95672 10.3594L12.133 13.9294L19.8767 5.54249C18.2226 3.54608 15.8645 2.26172 13.2901 1.95502C10.7156 1.64833 8.1218 2.34277 6.04497 3.89472C3.96815 5.44667 2.56719 7.73742 2.13182 10.2932C1.69646 12.8491 2.25999 15.4744 3.70588 17.6265C5.15176 19.7785 7.36941 21.2925 9.90019 21.8555C12.431 22.4184 15.0813 21.9872 17.3031 20.651C19.5249 19.3148 21.1482 17.1759 21.8373 14.6765C22.5264 12.1771 22.2286 9.50848 21.0055 7.22249H20.9792Z" fill="#017A39"/>
</g>
<path d="M33.168 7.6H37.12C37.9627 7.6 38.6933 7.73333 39.312 8C39.9307 8.26667 40.4427 8.63467 40.848 9.104C41.2533 9.57333 41.552 10.1227 41.744 10.752C41.9467 11.3813 42.048 12.064 42.048 12.8C42.048 13.5253 41.9467 14.2027 41.744 14.832C41.5413 15.4613 41.2373 16.0107 40.832 16.48C40.4267 16.9493 39.9147 17.3227 39.296 17.6C38.6773 17.8667 37.952 18 37.12 18H33.168V7.6ZM37.088 16.272C37.952 16.272 38.6293 15.968 39.12 15.36C39.6107 14.7413 39.856 13.8933 39.856 12.816C39.856 11.7067 39.6107 10.848 39.12 10.24C38.6293 9.632 37.952 9.328 37.088 9.328H35.312V16.272H37.088ZM47.2304 18.192C46.569 18.192 45.9877 18.0853 45.4864 17.872C44.9957 17.648 44.5797 17.3493 44.2384 16.976C43.9077 16.6027 43.657 16.1653 43.4864 15.664C43.3264 15.152 43.2464 14.6133 43.2464 14.048C43.2464 13.4827 43.3264 12.9493 43.4864 12.448C43.657 11.9467 43.9077 11.5093 44.2384 11.136C44.5797 10.752 44.9957 10.4533 45.4864 10.24C45.9877 10.016 46.569 9.904 47.2304 9.904C47.8917 9.904 48.4677 10.016 48.9584 10.24C49.4597 10.4533 49.8704 10.752 50.1904 11.136C50.521 11.5093 50.7664 11.9467 50.9264 12.448C51.097 12.9493 51.1824 13.4827 51.1824 14.048C51.1824 14.6133 51.097 15.152 50.9264 15.664C50.7664 16.1653 50.521 16.6027 50.1904 16.976C49.8704 17.3493 49.4597 17.648 48.9584 17.872C48.4677 18.0853 47.8917 18.192 47.2304 18.192ZM45.3104 14.048C45.3104 14.8267 45.4757 15.44 45.8064 15.888C46.1477 16.336 46.6224 16.56 47.2304 16.56C47.8277 16.56 48.2917 16.336 48.6224 15.888C48.9637 15.44 49.1344 14.8267 49.1344 14.048C49.1344 13.2693 48.9637 12.656 48.6224 12.208C48.2917 11.76 47.8277 11.536 47.2304 11.536C46.6224 11.536 46.1477 11.76 45.8064 12.208C45.4757 12.656 45.3104 13.2693 45.3104 14.048Z" fill="#017A39"/>
<path d="M0 40H343V272C343 280.837 335.837 288 327 288H16C7.16345 288 0 280.837 0 272V40Z" fill="#F5F3F1"/>
<rect y="40" width="343" height="4" fill="#017A39"/>
<g clip-path="url(#clip1_4047_198458)">
<rect x="54.5" y="138" width="234" height="56" rx="28" fill="#FB6100"/>
<path d="M99.6872 173.744L95.2247 169.268C96.3941 167.742 96.9394 165.829 96.7501 163.916C96.5608 162.003 95.651 160.233 94.2053 158.966C92.7596 157.699 90.8862 157.029 88.9648 157.092C87.0435 157.156 85.2181 157.947 83.8587 159.306C82.4994 160.666 81.7079 162.491 81.6447 164.413C81.5815 166.334 82.2514 168.207 83.5185 169.653C84.7855 171.099 86.555 172.009 88.468 172.198C90.3811 172.387 92.2945 171.842 93.8203 170.672L98.2435 175.187L99.6872 173.744ZM89.1872 170.266C88.084 170.266 87.0055 169.938 86.0882 169.326C85.1709 168.713 84.4559 167.841 84.0337 166.822C83.6115 165.803 83.501 164.681 83.7163 163.599C83.9315 162.517 84.4628 161.523 85.2429 160.743C86.023 159.963 87.0169 159.432 88.099 159.217C89.181 159.001 90.3026 159.112 91.3219 159.534C92.3411 159.956 93.2123 160.671 93.8253 161.588C94.4382 162.506 94.7653 163.584 94.7653 164.687C94.7619 166.166 94.1731 167.583 93.1277 168.628C92.0824 169.673 90.6656 170.262 89.1872 170.266Z" fill="white"/>
<path d="M112.212 160H119.792V162.16H114.892V165.82H119.612V167.96H114.892V173H112.212V160ZM124.695 160.38C124.695 160.753 124.562 161.087 124.295 161.38C124.042 161.673 123.682 161.82 123.215 161.82C122.735 161.82 122.369 161.673 122.115 161.38C121.862 161.087 121.735 160.753 121.735 160.38C121.735 159.993 121.862 159.66 122.115 159.38C122.369 159.087 122.735 158.94 123.215 158.94C123.682 158.94 124.042 159.087 124.295 159.38C124.562 159.66 124.695 159.993 124.695 160.38ZM121.935 163.12H124.455V173H121.935V163.12ZM127.111 163.12H129.491V164.72H129.611C129.838 164.187 130.191 163.747 130.671 163.4C131.164 163.053 131.751 162.88 132.431 162.88C133.684 162.88 134.584 163.213 135.131 163.88C135.691 164.533 135.971 165.527 135.971 166.86V173H133.451V167.36C133.451 166.56 133.304 165.967 133.011 165.58C132.731 165.193 132.251 165 131.571 165C130.931 165 130.444 165.213 130.111 165.64C129.791 166.053 129.631 166.66 129.631 167.46V173H127.111V163.12ZM142.118 173.24C141.491 173.24 140.918 173.113 140.398 172.86C139.878 172.607 139.431 172.26 139.058 171.82C138.684 171.367 138.391 170.827 138.178 170.2C137.964 169.56 137.858 168.86 137.858 168.1C137.858 167.327 137.964 166.62 138.178 165.98C138.391 165.34 138.684 164.793 139.058 164.34C139.431 163.873 139.878 163.513 140.398 163.26C140.918 163.007 141.491 162.88 142.118 162.88C142.891 162.88 143.538 163.06 144.058 163.42C144.591 163.78 144.971 164.247 145.198 164.82H145.318V158.5H147.838V173H145.458V171.14H145.338C145.098 171.793 144.691 172.307 144.118 172.68C143.558 173.053 142.891 173.24 142.118 173.24ZM142.878 171.04C143.624 171.04 144.218 170.773 144.658 170.24C145.098 169.707 145.318 168.98 145.318 168.06C145.318 167.14 145.098 166.413 144.658 165.88C144.218 165.347 143.624 165.08 142.878 165.08C142.131 165.08 141.538 165.347 141.098 165.88C140.658 166.413 140.438 167.14 140.438 168.06C140.438 168.98 140.658 169.707 141.098 170.24C141.538 170.773 142.131 171.04 142.878 171.04ZM157.755 173.24C157.315 173.24 156.895 173.167 156.495 173.02C156.108 172.887 155.768 172.693 155.475 172.44C155.181 172.173 154.948 171.853 154.775 171.48C154.615 171.107 154.535 170.687 154.535 170.22C154.535 169.34 154.848 168.64 155.475 168.12C156.101 167.6 157.055 167.307 158.335 167.24L160.655 167.1V166.7C160.655 166.06 160.461 165.62 160.075 165.38C159.688 165.14 159.208 165.02 158.635 165.02C158.181 165.02 157.755 165.107 157.355 165.28C156.955 165.44 156.655 165.64 156.455 165.88L155.035 164.44C155.381 163.987 155.881 163.613 156.535 163.32C157.201 163.027 158.015 162.88 158.975 162.88C160.388 162.88 161.441 163.207 162.135 163.86C162.828 164.513 163.175 165.4 163.175 166.52V173H160.795V171.42H160.675C160.421 171.98 160.055 172.427 159.575 172.76C159.095 173.08 158.488 173.24 157.755 173.24ZM158.495 171.42C159.135 171.42 159.655 171.24 160.055 170.88C160.455 170.507 160.655 169.987 160.655 169.32V168.66L158.635 168.82C157.595 168.887 157.075 169.327 157.075 170.14C157.075 170.553 157.208 170.873 157.475 171.1C157.741 171.313 158.081 171.42 158.495 171.42ZM170.451 163.12H172.831V164.78H172.951C173.151 164.207 173.458 163.747 173.871 163.4C174.298 163.053 174.831 162.88 175.471 162.88C175.964 162.88 176.424 162.96 176.851 163.12L176.151 165.42C176.004 165.327 175.831 165.26 175.631 165.22C175.431 165.18 175.238 165.16 175.051 165.16C174.438 165.16 173.938 165.373 173.551 165.8C173.164 166.213 172.971 166.8 172.971 167.56V173H170.451V163.12ZM182.289 173.24C181.463 173.24 180.743 173.107 180.129 172.84C179.516 172.573 178.996 172.207 178.569 171.74C178.156 171.26 177.843 170.707 177.629 170.08C177.429 169.453 177.329 168.78 177.329 168.06C177.329 167.327 177.429 166.647 177.629 166.02C177.829 165.38 178.129 164.833 178.529 164.38C178.929 163.913 179.429 163.547 180.029 163.28C180.629 163.013 181.329 162.88 182.129 162.88C182.929 162.88 183.629 163.007 184.229 163.26C184.829 163.513 185.323 163.867 185.709 164.32C186.096 164.773 186.383 165.313 186.569 165.94C186.769 166.553 186.869 167.227 186.869 167.96C186.869 168.093 186.856 168.247 186.829 168.42C186.816 168.593 186.796 168.733 186.769 168.84H179.889C179.929 169.2 180.023 169.527 180.169 169.82C180.329 170.1 180.523 170.34 180.749 170.54C180.989 170.74 181.249 170.893 181.529 171C181.823 171.093 182.123 171.14 182.429 171.14C183.003 171.14 183.483 171.04 183.869 170.84C184.256 170.64 184.569 170.387 184.809 170.08L186.229 171.56C185.856 172.067 185.336 172.473 184.669 172.78C184.003 173.087 183.209 173.24 182.289 173.24ZM182.129 164.8C181.489 164.8 180.969 165.007 180.569 165.42C180.169 165.833 179.936 166.38 179.869 167.06H184.349C184.283 166.38 184.049 165.833 183.649 165.42C183.263 165.007 182.756 164.8 182.129 164.8ZM193.57 170.2C193.57 170 193.51 169.833 193.39 169.7C193.283 169.553 193.123 169.433 192.91 169.34C192.71 169.247 192.47 169.167 192.19 169.1C191.91 169.02 191.603 168.94 191.27 168.86C190.883 168.767 190.516 168.647 190.17 168.5C189.823 168.353 189.516 168.167 189.25 167.94C188.996 167.7 188.79 167.42 188.63 167.1C188.47 166.78 188.39 166.393 188.39 165.94C188.39 165.447 188.483 165.013 188.67 164.64C188.87 164.253 189.143 163.933 189.49 163.68C189.836 163.413 190.25 163.213 190.73 163.08C191.21 162.947 191.73 162.88 192.29 162.88C193.17 162.88 193.93 163.02 194.57 163.3C195.21 163.567 195.703 163.927 196.05 164.38L194.65 165.82C194.383 165.527 194.05 165.287 193.65 165.1C193.263 164.913 192.856 164.82 192.43 164.82C192.03 164.82 191.676 164.9 191.37 165.06C191.063 165.22 190.91 165.48 190.91 165.84C190.91 166.04 190.963 166.207 191.07 166.34C191.19 166.473 191.35 166.593 191.55 166.7C191.763 166.793 192.01 166.88 192.29 166.96C192.57 167.027 192.876 167.1 193.21 167.18C193.583 167.273 193.943 167.393 194.29 167.54C194.65 167.687 194.956 167.88 195.21 168.12C195.476 168.347 195.69 168.62 195.85 168.94C196.01 169.26 196.09 169.647 196.09 170.1C196.09 170.62 195.983 171.073 195.77 171.46C195.57 171.847 195.283 172.173 194.91 172.44C194.55 172.707 194.116 172.907 193.61 173.04C193.116 173.173 192.583 173.24 192.01 173.24C191.036 173.24 190.21 173.1 189.53 172.82C188.863 172.54 188.356 172.18 188.01 171.74L189.37 170.28C189.676 170.6 190.05 170.853 190.49 171.04C190.93 171.213 191.41 171.3 191.93 171.3C192.396 171.3 192.783 171.213 193.09 171.04C193.41 170.853 193.57 170.573 193.57 170.2ZM201.966 173.22C200.872 173.22 200.072 172.927 199.566 172.34C199.072 171.753 198.826 170.867 198.826 169.68V165.14H197.266V163.12H198.826V160.44H201.326V163.12H204.206V165.14H201.326V169.66C201.326 170.18 201.419 170.553 201.606 170.78C201.792 170.993 202.072 171.1 202.446 171.1C202.712 171.1 202.952 171.053 203.166 170.96C203.379 170.853 203.566 170.727 203.726 170.58L204.626 172.3C204.292 172.62 203.912 172.853 203.486 173C203.059 173.147 202.552 173.22 201.966 173.22ZM208.926 173.24C208.486 173.24 208.066 173.167 207.666 173.02C207.28 172.887 206.94 172.693 206.646 172.44C206.353 172.173 206.12 171.853 205.946 171.48C205.786 171.107 205.706 170.687 205.706 170.22C205.706 169.34 206.02 168.64 206.646 168.12C207.273 167.6 208.226 167.307 209.506 167.24L211.826 167.1V166.7C211.826 166.06 211.633 165.62 211.246 165.38C210.86 165.14 210.38 165.02 209.806 165.02C209.353 165.02 208.926 165.107 208.526 165.28C208.126 165.44 207.826 165.64 207.626 165.88L206.206 164.44C206.553 163.987 207.053 163.613 207.706 163.32C208.373 163.027 209.186 162.88 210.146 162.88C211.56 162.88 212.613 163.207 213.306 163.86C214 164.513 214.346 165.4 214.346 166.52V173H211.966V171.42H211.846C211.593 171.98 211.226 172.427 210.746 172.76C210.266 173.08 209.66 173.24 208.926 173.24ZM209.666 171.42C210.306 171.42 210.826 171.24 211.226 170.88C211.626 170.507 211.826 169.987 211.826 169.32V168.66L209.806 168.82C208.766 168.887 208.246 169.327 208.246 170.14C208.246 170.553 208.38 170.873 208.646 171.1C208.913 171.313 209.253 171.42 209.666 171.42ZM220.138 173.24C218.925 173.24 218.045 172.913 217.498 172.26C216.951 171.593 216.678 170.593 216.678 169.26V163.12H219.198V168.76C219.198 169.56 219.338 170.153 219.618 170.54C219.898 170.927 220.358 171.12 220.998 171.12C221.611 171.12 222.071 170.913 222.378 170.5C222.698 170.073 222.858 169.46 222.858 168.66V163.12H225.378V173H222.998V171.4H222.878C222.651 171.933 222.305 172.373 221.838 172.72C221.371 173.067 220.805 173.24 220.138 173.24ZM228.009 163.12H230.389V164.78H230.509C230.709 164.207 231.016 163.747 231.429 163.4C231.856 163.053 232.389 162.88 233.029 162.88C233.523 162.88 233.983 162.96 234.409 163.12L233.709 165.42C233.563 165.327 233.389 165.26 233.189 165.22C232.989 165.18 232.796 165.16 232.609 165.16C231.996 165.16 231.496 165.373 231.109 165.8C230.723 166.213 230.529 166.8 230.529 167.56V173H228.009V163.12ZM238.126 173.24C237.686 173.24 237.266 173.167 236.866 173.02C236.479 172.887 236.139 172.693 235.846 172.44C235.552 172.173 235.319 171.853 235.146 171.48C234.986 171.107 234.906 170.687 234.906 170.22C234.906 169.34 235.219 168.64 235.846 168.12C236.472 167.6 237.426 167.307 238.706 167.24L241.026 167.1V166.7C241.026 166.06 240.832 165.62 240.446 165.38C240.059 165.14 239.579 165.02 239.006 165.02C238.552 165.02 238.126 165.107 237.726 165.28C237.326 165.44 237.026 165.64 236.826 165.88L235.406 164.44C235.752 163.987 236.252 163.613 236.906 163.32C237.572 163.027 238.386 162.88 239.346 162.88C240.759 162.88 241.812 163.207 242.506 163.86C243.199 164.513 243.546 165.4 243.546 166.52V173H241.166V171.42H241.046C240.792 171.98 240.426 172.427 239.946 172.76C239.466 173.08 238.859 173.24 238.126 173.24ZM238.866 171.42C239.506 171.42 240.026 171.24 240.426 170.88C240.826 170.507 241.026 169.987 241.026 169.32V168.66L239.006 168.82C237.966 168.887 237.446 169.327 237.446 170.14C237.446 170.553 237.579 170.873 237.846 171.1C238.112 171.313 238.452 171.42 238.866 171.42ZM246.017 163.12H248.397V164.72H248.517C248.744 164.187 249.097 163.747 249.577 163.4C250.071 163.053 250.657 162.88 251.337 162.88C252.591 162.88 253.491 163.213 254.037 163.88C254.597 164.533 254.877 165.527 254.877 166.86V173H252.357V167.36C252.357 166.56 252.211 165.967 251.917 165.58C251.637 165.193 251.157 165 250.477 165C249.837 165 249.351 165.213 249.017 165.64C248.697 166.053 248.537 166.66 248.537 167.46V173H246.017V163.12ZM261.204 173.22C260.111 173.22 259.311 172.927 258.804 172.34C258.311 171.753 258.064 170.867 258.064 169.68V165.14H256.504V163.12H258.064V160.44H260.564V163.12H263.444V165.14H260.564V169.66C260.564 170.18 260.657 170.553 260.844 170.78C261.031 170.993 261.311 171.1 261.684 171.1C261.951 171.1 262.191 171.053 262.404 170.96C262.617 170.853 262.804 170.727 262.964 170.58L263.864 172.3C263.531 172.62 263.151 172.853 262.724 173C262.297 173.147 261.791 173.22 261.204 173.22Z" fill="white"/>
</g>
<g clip-path="url(#clip2_4047_198458)">
<path d="M12 309.828C9.9882 309.828 8.02157 310.425 6.34881 311.542C4.67606 312.66 3.3723 314.249 2.60242 316.107C1.83253 317.966 1.6311 320.011 2.02358 321.984C2.41606 323.958 3.38484 325.77 4.8074 327.193C6.22997 328.615 8.04242 329.584 10.0156 329.976C11.9887 330.369 14.0339 330.167 15.8926 329.398C17.7513 328.628 19.3399 327.324 20.4576 325.651C21.5753 323.978 22.1719 322.012 22.1719 320C22.1684 317.303 21.0956 314.718 19.1888 312.811C17.2819 310.904 14.6967 309.832 12 309.828ZM16.305 322.953L14.9138 324.344L12 321.391L9.08625 324.305L7.695 322.914L10.6088 320L7.695 317.086L9.08625 315.695L12 318.609L14.9138 315.695L16.305 317.086L13.3913 320L16.305 322.953Z" fill="#D50525"/>
</g>
<path d="M33.168 315.6H37.12C37.9627 315.6 38.6933 315.733 39.312 316C39.9307 316.267 40.4427 316.635 40.848 317.104C41.2533 317.573 41.552 318.123 41.744 318.752C41.9467 319.381 42.048 320.064 42.048 320.8C42.048 321.525 41.9467 322.203 41.744 322.832C41.5413 323.461 41.2373 324.011 40.832 324.48C40.4267 324.949 39.9147 325.323 39.296 325.6C38.6773 325.867 37.952 326 37.12 326H33.168V315.6ZM37.088 324.272C37.952 324.272 38.6293 323.968 39.12 323.36C39.6107 322.741 39.856 321.893 39.856 320.816C39.856 319.707 39.6107 318.848 39.12 318.24C38.6293 317.632 37.952 317.328 37.088 317.328H35.312V324.272H37.088ZM47.2304 326.192C46.569 326.192 45.9877 326.085 45.4864 325.872C44.9957 325.648 44.5797 325.349 44.2384 324.976C43.9077 324.603 43.657 324.165 43.4864 323.664C43.3264 323.152 43.2464 322.613 43.2464 322.048C43.2464 321.483 43.3264 320.949 43.4864 320.448C43.657 319.947 43.9077 319.509 44.2384 319.136C44.5797 318.752 44.9957 318.453 45.4864 318.24C45.9877 318.016 46.569 317.904 47.2304 317.904C47.8917 317.904 48.4677 318.016 48.9584 318.24C49.4597 318.453 49.8704 318.752 50.1904 319.136C50.521 319.509 50.7664 319.947 50.9264 320.448C51.097 320.949 51.1824 321.483 51.1824 322.048C51.1824 322.613 51.097 323.152 50.9264 323.664C50.7664 324.165 50.521 324.603 50.1904 324.976C49.8704 325.349 49.4597 325.648 48.9584 325.872C48.4677 326.085 47.8917 326.192 47.2304 326.192ZM45.3104 322.048C45.3104 322.827 45.4757 323.44 45.8064 323.888C46.1477 324.336 46.6224 324.56 47.2304 324.56C47.8277 324.56 48.2917 324.336 48.6224 323.888C48.9637 323.44 49.1344 322.827 49.1344 322.048C49.1344 321.269 48.9637 320.656 48.6224 320.208C48.2917 319.76 47.8277 319.536 47.2304 319.536C46.6224 319.536 46.1477 319.76 45.8064 320.208C45.4757 320.656 45.3104 321.269 45.3104 322.048ZM52.7435 318.096H54.6475V319.376H54.7435C54.9248 318.949 55.2075 318.597 55.5915 318.32C55.9862 318.043 56.4555 317.904 56.9995 317.904C58.0022 317.904 58.7222 318.171 59.1595 318.704C59.6075 319.227 59.8315 320.021 59.8315 321.088V326H57.8155V321.488C57.8155 320.848 57.6982 320.373 57.4635 320.064C57.2395 319.755 56.8555 319.6 56.3115 319.6C55.7995 319.6 55.4102 319.771 55.1435 320.112C54.8875 320.443 54.7595 320.928 54.7595 321.568V326H52.7435V318.096ZM61.1281 318.112C61.3628 317.92 61.5708 317.707 61.7521 317.472C61.9441 317.237 62.0988 316.981 62.2161 316.704C61.9068 316.651 61.6615 316.517 61.4801 316.304C61.3095 316.08 61.2241 315.829 61.2241 315.552C61.2241 315.243 61.3361 314.976 61.5601 314.752C61.7841 314.517 62.0881 314.4 62.4721 314.4C62.8561 314.4 63.1708 314.523 63.4161 314.768C63.6615 315.013 63.7841 315.339 63.7841 315.744C63.7841 316.384 63.5921 316.96 63.2081 317.472C62.8348 317.973 62.3548 318.427 61.7681 318.832L61.1281 318.112ZM68.6585 326.176C67.7838 326.176 67.1438 325.941 66.7385 325.472C66.3438 325.003 66.1465 324.293 66.1465 323.344V319.712H64.8985V318.096H66.1465V315.952H68.1465V318.096H70.4505V319.712H68.1465V323.328C68.1465 323.744 68.2212 324.043 68.3705 324.224C68.5198 324.395 68.7438 324.48 69.0425 324.48C69.2558 324.48 69.4478 324.443 69.6185 324.368C69.7892 324.283 69.9385 324.181 70.0665 324.064L70.7865 325.44C70.5198 325.696 70.2158 325.883 69.8745 326C69.5332 326.117 69.1278 326.176 68.6585 326.176Z" fill="#D50525"/>
<path d="M0 348H343V580C343 588.837 335.837 596 327 596H16C7.16345 596 0 588.837 0 580V348Z" fill="#F5F3F1"/>
<rect y="348" width="343" height="4" fill="#D50525"/>
<g clip-path="url(#clip3_4047_198458)">
<rect x="54.5" y="446" width="234" height="56" rx="28" fill="#FB6100"/>
<path d="M96.5263 469.183C95.7748 468.325 94.8485 467.637 93.8095 467.165C92.7705 466.694 91.6428 466.45 90.5019 466.45C89.361 466.45 88.2332 466.694 87.1942 467.165C86.1552 467.637 85.229 468.325 84.4775 469.183L80.0938 474L84.4775 478.817C85.229 479.675 86.1552 480.363 87.1942 480.835C88.2332 481.306 89.361 481.55 90.5019 481.55C91.6428 481.55 92.7705 481.306 93.8095 480.835C94.8485 480.363 95.7748 479.675 96.5263 478.817L100.91 474L96.5263 469.183ZM95.0694 477.491C94.5026 478.156 93.7983 478.69 93.0052 479.056C92.2121 479.422 91.3491 479.611 90.4756 479.611C89.6022 479.611 88.7391 479.422 87.946 479.056C87.1529 478.69 86.4487 478.156 85.8819 477.491L82.7581 474L85.9344 470.509C86.5012 469.844 87.2054 469.311 87.9985 468.945C88.7916 468.579 89.6547 468.389 90.5281 468.389C91.4016 468.389 92.2646 468.579 93.0577 468.945C93.8508 469.311 94.5551 469.844 95.1219 470.509L98.2456 474L95.0694 477.491ZM87.9556 471.454C87.4492 471.958 87.1037 472.601 86.9631 473.302C86.8225 474.002 86.8929 474.729 87.1656 475.389C87.4383 476.05 87.9009 476.615 88.4949 477.012C89.0888 477.409 89.7873 477.621 90.5019 477.621C91.2165 477.621 91.915 477.409 92.5089 477.012C93.1028 476.615 93.5654 476.05 93.8381 475.389C94.1108 474.729 94.1813 474.002 94.0407 473.302C93.9 472.601 93.5546 471.958 93.0481 471.454C92.7159 471.116 92.3196 470.847 91.8824 470.664C91.4452 470.481 90.9759 470.386 90.5019 470.386C90.0278 470.386 89.5585 470.481 89.1214 470.664C88.6842 470.847 88.2879 471.116 87.9556 471.454ZM91.6569 475.155C91.5056 475.307 91.3257 475.428 91.1274 475.511C90.9292 475.593 90.7166 475.636 90.5019 475.636C90.2872 475.636 90.0745 475.593 89.8763 475.511C89.6781 475.428 89.4982 475.307 89.3469 475.155C89.116 474.926 88.9583 474.634 88.8938 474.315C88.8294 473.997 88.861 473.666 88.9848 473.365C89.1085 473.065 89.3188 472.808 89.5889 472.627C89.859 472.446 90.1768 472.349 90.5019 472.349C90.827 472.349 91.1447 472.446 91.4149 472.627C91.685 472.808 91.8952 473.065 92.019 473.365C92.1427 473.666 92.1744 473.997 92.1099 474.315C92.0454 474.634 91.8878 474.926 91.6569 475.155Z" fill="white"/>
<path d="M112.212 468H119.792V470.16H114.892V473.82H119.612V475.96H114.892V481H112.212V468ZM124.695 468.38C124.695 468.753 124.562 469.087 124.295 469.38C124.042 469.673 123.682 469.82 123.215 469.82C122.735 469.82 122.369 469.673 122.115 469.38C121.862 469.087 121.735 468.753 121.735 468.38C121.735 467.993 121.862 467.66 122.115 467.38C122.369 467.087 122.735 466.94 123.215 466.94C123.682 466.94 124.042 467.087 124.295 467.38C124.562 467.66 124.695 467.993 124.695 468.38ZM121.935 471.12H124.455V481H121.935V471.12ZM127.111 471.12H129.491V472.72H129.611C129.838 472.187 130.191 471.747 130.671 471.4C131.164 471.053 131.751 470.88 132.431 470.88C133.684 470.88 134.584 471.213 135.131 471.88C135.691 472.533 135.971 473.527 135.971 474.86V481H133.451V475.36C133.451 474.56 133.304 473.967 133.011 473.58C132.731 473.193 132.251 473 131.571 473C130.931 473 130.444 473.213 130.111 473.64C129.791 474.053 129.631 474.66 129.631 475.46V481H127.111V471.12ZM142.118 481.24C141.491 481.24 140.918 481.113 140.398 480.86C139.878 480.607 139.431 480.26 139.058 479.82C138.684 479.367 138.391 478.827 138.178 478.2C137.964 477.56 137.858 476.86 137.858 476.1C137.858 475.327 137.964 474.62 138.178 473.98C138.391 473.34 138.684 472.793 139.058 472.34C139.431 471.873 139.878 471.513 140.398 471.26C140.918 471.007 141.491 470.88 142.118 470.88C142.891 470.88 143.538 471.06 144.058 471.42C144.591 471.78 144.971 472.247 145.198 472.82H145.318V466.5H147.838V481H145.458V479.14H145.338C145.098 479.793 144.691 480.307 144.118 480.68C143.558 481.053 142.891 481.24 142.118 481.24ZM142.878 479.04C143.624 479.04 144.218 478.773 144.658 478.24C145.098 477.707 145.318 476.98 145.318 476.06C145.318 475.14 145.098 474.413 144.658 473.88C144.218 473.347 143.624 473.08 142.878 473.08C142.131 473.08 141.538 473.347 141.098 473.88C140.658 474.413 140.438 475.14 140.438 476.06C140.438 476.98 140.658 477.707 141.098 478.24C141.538 478.773 142.131 479.04 142.878 479.04ZM157.755 481.24C157.315 481.24 156.895 481.167 156.495 481.02C156.108 480.887 155.768 480.693 155.475 480.44C155.181 480.173 154.948 479.853 154.775 479.48C154.615 479.107 154.535 478.687 154.535 478.22C154.535 477.34 154.848 476.64 155.475 476.12C156.101 475.6 157.055 475.307 158.335 475.24L160.655 475.1V474.7C160.655 474.06 160.461 473.62 160.075 473.38C159.688 473.14 159.208 473.02 158.635 473.02C158.181 473.02 157.755 473.107 157.355 473.28C156.955 473.44 156.655 473.64 156.455 473.88L155.035 472.44C155.381 471.987 155.881 471.613 156.535 471.32C157.201 471.027 158.015 470.88 158.975 470.88C160.388 470.88 161.441 471.207 162.135 471.86C162.828 472.513 163.175 473.4 163.175 474.52V481H160.795V479.42H160.675C160.421 479.98 160.055 480.427 159.575 480.76C159.095 481.08 158.488 481.24 157.755 481.24ZM158.495 479.42C159.135 479.42 159.655 479.24 160.055 478.88C160.455 478.507 160.655 477.987 160.655 477.32V476.66L158.635 476.82C157.595 476.887 157.075 477.327 157.075 478.14C157.075 478.553 157.208 478.873 157.475 479.1C157.741 479.313 158.081 479.42 158.495 479.42ZM170.451 471.12H172.831V472.78H172.951C173.151 472.207 173.458 471.747 173.871 471.4C174.298 471.053 174.831 470.88 175.471 470.88C175.964 470.88 176.424 470.96 176.851 471.12L176.151 473.42C176.004 473.327 175.831 473.26 175.631 473.22C175.431 473.18 175.238 473.16 175.051 473.16C174.438 473.16 173.938 473.373 173.551 473.8C173.164 474.213 172.971 474.8 172.971 475.56V481H170.451V471.12ZM182.289 481.24C181.463 481.24 180.743 481.107 180.129 480.84C179.516 480.573 178.996 480.207 178.569 479.74C178.156 479.26 177.843 478.707 177.629 478.08C177.429 477.453 177.329 476.78 177.329 476.06C177.329 475.327 177.429 474.647 177.629 474.02C177.829 473.38 178.129 472.833 178.529 472.38C178.929 471.913 179.429 471.547 180.029 471.28C180.629 471.013 181.329 470.88 182.129 470.88C182.929 470.88 183.629 471.007 184.229 471.26C184.829 471.513 185.323 471.867 185.709 472.32C186.096 472.773 186.383 473.313 186.569 473.94C186.769 474.553 186.869 475.227 186.869 475.96C186.869 476.093 186.856 476.247 186.829 476.42C186.816 476.593 186.796 476.733 186.769 476.84H179.889C179.929 477.2 180.023 477.527 180.169 477.82C180.329 478.1 180.523 478.34 180.749 478.54C180.989 478.74 181.249 478.893 181.529 479C181.823 479.093 182.123 479.14 182.429 479.14C183.003 479.14 183.483 479.04 183.869 478.84C184.256 478.64 184.569 478.387 184.809 478.08L186.229 479.56C185.856 480.067 185.336 480.473 184.669 480.78C184.003 481.087 183.209 481.24 182.289 481.24ZM182.129 472.8C181.489 472.8 180.969 473.007 180.569 473.42C180.169 473.833 179.936 474.38 179.869 475.06H184.349C184.283 474.38 184.049 473.833 183.649 473.42C183.263 473.007 182.756 472.8 182.129 472.8ZM193.57 478.2C193.57 478 193.51 477.833 193.39 477.7C193.283 477.553 193.123 477.433 192.91 477.34C192.71 477.247 192.47 477.167 192.19 477.1C191.91 477.02 191.603 476.94 191.27 476.86C190.883 476.767 190.516 476.647 190.17 476.5C189.823 476.353 189.516 476.167 189.25 475.94C188.996 475.7 188.79 475.42 188.63 475.1C188.47 474.78 188.39 474.393 188.39 473.94C188.39 473.447 188.483 473.013 188.67 472.64C188.87 472.253 189.143 471.933 189.49 471.68C189.836 471.413 190.25 471.213 190.73 471.08C191.21 470.947 191.73 470.88 192.29 470.88C193.17 470.88 193.93 471.02 194.57 471.3C195.21 471.567 195.703 471.927 196.05 472.38L194.65 473.82C194.383 473.527 194.05 473.287 193.65 473.1C193.263 472.913 192.856 472.82 192.43 472.82C192.03 472.82 191.676 472.9 191.37 473.06C191.063 473.22 190.91 473.48 190.91 473.84C190.91 474.04 190.963 474.207 191.07 474.34C191.19 474.473 191.35 474.593 191.55 474.7C191.763 474.793 192.01 474.88 192.29 474.96C192.57 475.027 192.876 475.1 193.21 475.18C193.583 475.273 193.943 475.393 194.29 475.54C194.65 475.687 194.956 475.88 195.21 476.12C195.476 476.347 195.69 476.62 195.85 476.94C196.01 477.26 196.09 477.647 196.09 478.1C196.09 478.62 195.983 479.073 195.77 479.46C195.57 479.847 195.283 480.173 194.91 480.44C194.55 480.707 194.116 480.907 193.61 481.04C193.116 481.173 192.583 481.24 192.01 481.24C191.036 481.24 190.21 481.1 189.53 480.82C188.863 480.54 188.356 480.18 188.01 479.74L189.37 478.28C189.676 478.6 190.05 478.853 190.49 479.04C190.93 479.213 191.41 479.3 191.93 479.3C192.396 479.3 192.783 479.213 193.09 479.04C193.41 478.853 193.57 478.573 193.57 478.2ZM201.966 481.22C200.872 481.22 200.072 480.927 199.566 480.34C199.072 479.753 198.826 478.867 198.826 477.68V473.14H197.266V471.12H198.826V468.44H201.326V471.12H204.206V473.14H201.326V477.66C201.326 478.18 201.419 478.553 201.606 478.78C201.792 478.993 202.072 479.1 202.446 479.1C202.712 479.1 202.952 479.053 203.166 478.96C203.379 478.853 203.566 478.727 203.726 478.58L204.626 480.3C204.292 480.62 203.912 480.853 203.486 481C203.059 481.147 202.552 481.22 201.966 481.22ZM208.926 481.24C208.486 481.24 208.066 481.167 207.666 481.02C207.28 480.887 206.94 480.693 206.646 480.44C206.353 480.173 206.12 479.853 205.946 479.48C205.786 479.107 205.706 478.687 205.706 478.22C205.706 477.34 206.02 476.64 206.646 476.12C207.273 475.6 208.226 475.307 209.506 475.24L211.826 475.1V474.7C211.826 474.06 211.633 473.62 211.246 473.38C210.86 473.14 210.38 473.02 209.806 473.02C209.353 473.02 208.926 473.107 208.526 473.28C208.126 473.44 207.826 473.64 207.626 473.88L206.206 472.44C206.553 471.987 207.053 471.613 207.706 471.32C208.373 471.027 209.186 470.88 210.146 470.88C211.56 470.88 212.613 471.207 213.306 471.86C214 472.513 214.346 473.4 214.346 474.52V481H211.966V479.42H211.846C211.593 479.98 211.226 480.427 210.746 480.76C210.266 481.08 209.66 481.24 208.926 481.24ZM209.666 479.42C210.306 479.42 210.826 479.24 211.226 478.88C211.626 478.507 211.826 477.987 211.826 477.32V476.66L209.806 476.82C208.766 476.887 208.246 477.327 208.246 478.14C208.246 478.553 208.38 478.873 208.646 479.1C208.913 479.313 209.253 479.42 209.666 479.42ZM220.138 481.24C218.925 481.24 218.045 480.913 217.498 480.26C216.951 479.593 216.678 478.593 216.678 477.26V471.12H219.198V476.76C219.198 477.56 219.338 478.153 219.618 478.54C219.898 478.927 220.358 479.12 220.998 479.12C221.611 479.12 222.071 478.913 222.378 478.5C222.698 478.073 222.858 477.46 222.858 476.66V471.12H225.378V481H222.998V479.4H222.878C222.651 479.933 222.305 480.373 221.838 480.72C221.371 481.067 220.805 481.24 220.138 481.24ZM228.009 471.12H230.389V472.78H230.509C230.709 472.207 231.016 471.747 231.429 471.4C231.856 471.053 232.389 470.88 233.029 470.88C233.523 470.88 233.983 470.96 234.409 471.12L233.709 473.42C233.563 473.327 233.389 473.26 233.189 473.22C232.989 473.18 232.796 473.16 232.609 473.16C231.996 473.16 231.496 473.373 231.109 473.8C230.723 474.213 230.529 474.8 230.529 475.56V481H228.009V471.12ZM238.126 481.24C237.686 481.24 237.266 481.167 236.866 481.02C236.479 480.887 236.139 480.693 235.846 480.44C235.552 480.173 235.319 479.853 235.146 479.48C234.986 479.107 234.906 478.687 234.906 478.22C234.906 477.34 235.219 476.64 235.846 476.12C236.472 475.6 237.426 475.307 238.706 475.24L241.026 475.1V474.7C241.026 474.06 240.832 473.62 240.446 473.38C240.059 473.14 239.579 473.02 239.006 473.02C238.552 473.02 238.126 473.107 237.726 473.28C237.326 473.44 237.026 473.64 236.826 473.88L235.406 472.44C235.752 471.987 236.252 471.613 236.906 471.32C237.572 471.027 238.386 470.88 239.346 470.88C240.759 470.88 241.812 471.207 242.506 471.86C243.199 472.513 243.546 473.4 243.546 474.52V481H241.166V479.42H241.046C240.792 479.98 240.426 480.427 239.946 480.76C239.466 481.08 238.859 481.24 238.126 481.24ZM238.866 479.42C239.506 479.42 240.026 479.24 240.426 478.88C240.826 478.507 241.026 477.987 241.026 477.32V476.66L239.006 476.82C237.966 476.887 237.446 477.327 237.446 478.14C237.446 478.553 237.579 478.873 237.846 479.1C238.112 479.313 238.452 479.42 238.866 479.42ZM246.017 471.12H248.397V472.72H248.517C248.744 472.187 249.097 471.747 249.577 471.4C250.071 471.053 250.657 470.88 251.337 470.88C252.591 470.88 253.491 471.213 254.037 471.88C254.597 472.533 254.877 473.527 254.877 474.86V481H252.357V475.36C252.357 474.56 252.211 473.967 251.917 473.58C251.637 473.193 251.157 473 250.477 473C249.837 473 249.351 473.213 249.017 473.64C248.697 474.053 248.537 474.66 248.537 475.46V481H246.017V471.12ZM261.204 481.22C260.111 481.22 259.311 480.927 258.804 480.34C258.311 479.753 258.064 478.867 258.064 477.68V473.14H256.504V471.12H258.064V468.44H260.564V471.12H263.444V473.14H260.564V477.66C260.564 478.18 260.657 478.553 260.844 478.78C261.031 478.993 261.311 479.1 261.684 479.1C261.951 479.1 262.191 479.053 262.404 478.96C262.617 478.853 262.804 478.727 262.964 478.58L263.864 480.3C263.531 480.62 263.151 480.853 262.724 481C262.297 481.147 261.791 481.22 261.204 481.22Z" fill="white"/>
</g>
<defs>
<clipPath id="clip0_4047_198458">
<rect width="21" height="21" fill="white" transform="translate(1.5 1.5)"/>
</clipPath>
<clipPath id="clip1_4047_198458">
<rect x="54.5" y="138" width="234" height="56" rx="28" fill="white"/>
</clipPath>
<clipPath id="clip2_4047_198458">
<rect width="21" height="21" fill="white" transform="translate(1.5 309.5)"/>
</clipPath>
<clipPath id="clip3_4047_198458">
<rect x="54.5" y="446" width="234" height="56" rx="28" fill="white"/>
</clipPath>
</defs>
</svg>
