<svg fill="none" xmlns="http://www.w3.org/2000/svg" viewBox="0 0 32 32"><path d="M31.9 15.493c-.103-.254-1.496-2.753-4.081-5.887a.507.507 0 0 1-.12-.267 48.166 48.166 0 0 0-.777-5.436.881.881 0 0 0-.282-.468.925.925 0 0 0-.51-.22l-2.678-.324a.595.595 0 0 0-.07 0 .575.575 0 0 0-.402.161.543.543 0 0 0-.166.39v.905a.034.034 0 0 1-.01.024.036.036 0 0 1-.037.007A2.43 2.43 0 0 0 15.992 0c-.472 0-.935.138-1.327.395C5.387 5.956.282 15.005.085 15.493a.87.87 0 0 0 .25 1.064.929.929 0 0 0 .355.175l2.672.5a.917.917 0 0 1 .454.28c.119.135.193.302.213.479.023.457.528 10.69 1.163 13.344a.89.89 0 0 0 .327.48c.161.12.358.185.561.185h.02c1.56-.038 2.986-.063 4.528-.084h.13c.079 0 .154-.032.21-.086a.288.288 0 0 0 .087-.206c-.062-.893-.197-2.936-.306-5.093 0-.054-.007-.121-.01-.176a.558.558 0 0 0-.272-.442 2.847 2.847 0 0 1-.992-.96 2.745 2.745 0 0 1-.41-1.3c-.142-3.59-.211-7.736-.008-10.982a.515.515 0 0 1 .165-.365.547.547 0 0 1 .76.015c.098.1.152.234.149.373v.04c-.132 2.163-.142 4.721-.095 7.244.003.165.073.321.195.435a.648.648 0 0 0 .902-.015.61.61 0 0 0 .179-.442c-.049-2.54-.036-5.114.099-7.285a.515.515 0 0 1 .165-.365.547.547 0 0 1 .76.015c.098.1.152.234.15.373v.04c-.133 2.152-.143 4.695-.097 7.204.002.165.072.321.194.436a.648.648 0 0 0 .902-.014.61.61 0 0 0 .18-.44c-.047-2.53-.035-5.094.1-7.25a.515.515 0 0 1 .165-.366.546.546 0 0 1 .76.016c.099.1.152.234.15.372v.041c-.194 3.154-.131 7.148 0 10.651a.26.26 0 0 1 0 .033v.087c0 .454-.114.902-.332 1.304a2.827 2.827 0 0 1-.919 1.004.54.54 0 0 0-.237.406s-.066.539.179 3.145c.113 1.138.201 1.927.241 2.283a.273.273 0 0 0 .095.172c.052.044.12.068.188.068h4.054l1.516.012c.07 0 .137-.024.19-.069a.273.273 0 0 0 .094-.173c.35-3.124.434-4.879.434-4.879a.307.307 0 0 0-.084-.201.323.323 0 0 0-.2-.099l-1.842-.246a.636.636 0 0 1-.331-.143.606.606 0 0 1-.195-.296.832.832 0 0 1-.024-.276c.747-10.41 4.281-13.92 4.281-13.92a1.05 1.05 0 0 1 .172-.144.576.576 0 0 1 .859.245.968.968 0 0 1 .045.25c.306 3.273.157 8.842-.032 13.187-.16 3.688-.353 6.582-.353 6.582 0 .057.023.112.064.152.042.04.098.063.157.063 1.002.017 1.984.036 3.037.062h.021c.203 0 .4-.065.561-.185a.893.893 0 0 0 .328-.48c.635-2.654 1.134-12.887 1.16-13.344a.877.877 0 0 1 .215-.479.92.92 0 0 1 .453-.28l2.672-.5a.92.92 0 0 0 .5-.316.875.875 0 0 0 .193-.548.883.883 0 0 0-.1-.368Z" fill="#EFEDEA"/></svg>