<svg width="314" height="387" viewBox="0 0 314 387" fill="none" xmlns="http://www.w3.org/2000/svg">
<g clip-path="url(#clip0_2261_4991)">
<path d="M124 64C124 48.536 136.536 36 152 36H226C241.464 36 254 48.536 254 64C254 79.464 241.464 92 226 92H152C136.536 92 124 79.464 124 64Z" fill="#F36805"/>
<path d="M124 64C124 48.536 136.536 36 152 36H226C241.464 36 254 48.536 254 64C254 79.464 241.464 92 226 92H152C136.536 92 124 79.464 124 64Z" fill="white" fill-opacity="0.01"/>
<g clip-path="url(#clip1_2261_4991)">
<path d="M171.876 52L172 52.124V75.876L171.876 76H148.124L148 75.876V52.124L148.124 52H171.876ZM148.248 52.248V75.751H171.751V52.248H148.248ZM167.098 53.5C168.977 53.5002 170.5 55.0234 170.5 56.9023V71.0977C170.5 72.9766 168.977 74.4998 167.098 74.5H152.902C151.023 74.4998 149.5 72.9766 149.5 71.0977V56.9023C149.5 55.0234 151.023 53.5002 152.902 53.5H167.098Z" fill="white"/>
</g>
<path d="M181.542 71V58H184.922V68.3H190.202V71H181.542ZM194.687 71.24C194.1 71.24 193.553 71.12 193.047 70.88C192.54 70.64 192.133 70.3 191.827 69.86C191.52 69.4067 191.367 68.86 191.367 68.22C191.367 67.62 191.507 67.1067 191.787 66.68C192.08 66.24 192.52 65.8933 193.107 65.64C193.707 65.3867 194.467 65.2333 195.387 65.18L197.487 65.06V64.9C197.487 64.5267 197.393 64.2467 197.207 64.06C197.02 63.86 196.78 63.7267 196.487 63.66C196.193 63.58 195.88 63.54 195.547 63.54C195.173 63.54 194.793 63.6067 194.407 63.74C194.02 63.8733 193.733 64.06 193.547 64.3L191.807 62.5C192.167 62.0333 192.693 61.6467 193.387 61.34C194.08 61.0333 194.987 60.88 196.107 60.88C197.053 60.88 197.867 61.0267 198.547 61.32C199.227 61.6133 199.747 62.0467 200.107 62.62C200.48 63.18 200.667 63.8667 200.667 64.68V71H197.687V69.48H197.567C197.313 70 196.947 70.4267 196.467 70.76C195.987 71.08 195.393 71.24 194.687 71.24ZM195.767 69.08C196.273 69.08 196.687 68.94 197.007 68.66C197.327 68.38 197.487 67.9667 197.487 67.42V66.9L195.827 67.02C195.4 67.0467 195.08 67.1533 194.867 67.34C194.667 67.5267 194.567 67.7733 194.567 68.08C194.567 68.4133 194.68 68.6667 194.907 68.84C195.147 69 195.433 69.08 195.767 69.08ZM208.852 71.24C208.118 71.24 207.485 71.0667 206.952 70.72C206.432 70.36 206.045 69.8667 205.792 69.24H205.672V71H202.652V56.5H205.832V62.74H205.952C206.165 62.1933 206.518 61.7467 207.012 61.4C207.505 61.0533 208.118 60.88 208.852 60.88C209.638 60.88 210.345 61.1067 210.972 61.56C211.612 62 212.118 62.6133 212.492 63.4C212.865 64.1867 213.052 65.1067 213.052 66.16C213.052 67.1733 212.865 68.06 212.492 68.82C212.118 69.58 211.612 70.1733 210.972 70.6C210.345 71.0267 209.638 71.24 208.852 71.24ZM207.812 68.5C208.238 68.5 208.598 68.3933 208.892 68.18C209.185 67.9533 209.405 67.66 209.552 67.3C209.712 66.9267 209.792 66.5133 209.792 66.06C209.792 65.6067 209.712 65.2 209.552 64.84C209.405 64.4667 209.185 64.1733 208.892 63.96C208.598 63.7333 208.238 63.62 207.812 63.62C207.385 63.62 207.018 63.7333 206.712 63.96C206.418 64.1733 206.198 64.4667 206.052 64.84C205.905 65.2 205.832 65.6067 205.832 66.06C205.832 66.5133 205.905 66.9267 206.052 67.3C206.198 67.66 206.418 67.9533 206.712 68.18C207.018 68.3933 207.385 68.5 207.812 68.5ZM219.184 71.24C217.984 71.24 217.004 70.9933 216.244 70.5C215.484 69.9933 214.924 69.3467 214.564 68.56C214.218 67.7733 214.044 66.94 214.044 66.06C214.044 65.3933 214.131 64.7533 214.304 64.14C214.491 63.5267 214.778 62.9733 215.164 62.48C215.551 61.9867 216.058 61.6 216.684 61.32C217.324 61.0267 218.098 60.88 219.004 60.88C219.911 60.88 220.678 61.02 221.304 61.3C221.931 61.58 222.431 61.9667 222.804 62.46C223.191 62.94 223.464 63.4867 223.624 64.1C223.798 64.7 223.884 65.3267 223.884 65.98C223.884 66.1267 223.871 66.32 223.844 66.56C223.818 66.7867 223.784 66.96 223.744 67.08H217.264C217.344 67.4667 217.498 67.7733 217.724 68C217.964 68.2267 218.231 68.3933 218.524 68.5C218.831 68.5933 219.111 68.64 219.364 68.64C219.831 68.64 220.231 68.5667 220.564 68.42C220.911 68.2733 221.178 68.08 221.364 67.84L223.104 69.66C222.784 70.1133 222.278 70.4933 221.584 70.8C220.891 71.0933 220.091 71.24 219.184 71.24ZM219.004 63.24C218.724 63.24 218.458 63.3 218.204 63.42C217.964 63.5267 217.751 63.7067 217.564 63.96C217.391 64.2133 217.271 64.5533 217.204 64.98H220.764C220.711 64.5533 220.591 64.2133 220.404 63.96C220.231 63.7067 220.024 63.5267 219.784 63.42C219.544 63.3 219.284 63.24 219.004 63.24ZM225.425 71V56.5H228.605V71H225.425Z" fill="white"/>
</g>
<path d="M123.176 10.704C123.176 10.384 123.232 10.104 123.344 9.864C123.456 9.616 123.608 9.392 123.8 9.192C124 8.984 124.232 8.792 124.496 8.616C124.768 8.44 125.06 8.26 125.372 8.076C125.62 7.924 125.84 7.784 126.032 7.656C126.224 7.52 126.384 7.38 126.512 7.236C126.64 7.092 126.736 6.94 126.8 6.78C126.864 6.62 126.896 6.436 126.896 6.228C126.896 5.804 126.76 5.484 126.488 5.268C126.224 5.044 125.884 4.932 125.468 4.932C125.052 4.932 124.692 5.016 124.388 5.184C124.084 5.344 123.828 5.56 123.62 5.832L123.068 5.256C123.308 4.896 123.624 4.608 124.016 4.392C124.408 4.168 124.88 4.056 125.432 4.056C125.84 4.056 126.2 4.112 126.512 4.224C126.824 4.328 127.084 4.476 127.292 4.668C127.508 4.852 127.668 5.076 127.772 5.34C127.884 5.596 127.94 5.876 127.94 6.18C127.94 6.524 127.88 6.828 127.76 7.092C127.64 7.356 127.48 7.596 127.28 7.812C127.08 8.028 126.848 8.224 126.584 8.4C126.328 8.568 126.056 8.732 125.768 8.892C125.512 9.036 125.284 9.172 125.084 9.3C124.884 9.428 124.716 9.564 124.58 9.708C124.452 9.852 124.352 10.012 124.28 10.188C124.216 10.364 124.184 10.572 124.184 10.812V11.136H128.132V12H123.176V10.704ZM133.515 10.392H129.879V9.588L133.323 4.2H134.463L131.007 9.528H133.515V7.176H134.499V9.528H135.579V10.392H134.499V12H133.515V10.392ZM137.411 6.072H138.323V7.284H138.395C138.467 7.084 138.567 6.9 138.695 6.732C138.831 6.564 138.987 6.42 139.163 6.3C139.347 6.18 139.547 6.088 139.763 6.024C139.987 5.96 140.219 5.928 140.459 5.928C140.851 5.928 141.207 6.008 141.527 6.168C141.855 6.32 142.135 6.536 142.367 6.816C142.599 7.088 142.775 7.416 142.895 7.8C143.023 8.184 143.087 8.6 143.087 9.048C143.087 9.496 143.023 9.912 142.895 10.296C142.775 10.672 142.599 11 142.367 11.28C142.135 11.552 141.855 11.764 141.527 11.916C141.207 12.068 140.851 12.144 140.459 12.144C139.971 12.144 139.551 12.028 139.199 11.796C138.847 11.564 138.595 11.268 138.443 10.908H138.371V14.22H137.411V6.072ZM140.219 11.28C140.483 11.28 140.727 11.236 140.951 11.148C141.183 11.052 141.383 10.912 141.551 10.728C141.727 10.536 141.863 10.3 141.959 10.02C142.055 9.74 142.103 9.412 142.103 9.036C142.103 8.66 142.055 8.332 141.959 8.052C141.863 7.772 141.727 7.54 141.551 7.356C141.383 7.164 141.183 7.024 140.951 6.936C140.727 6.84 140.483 6.792 140.219 6.792C139.963 6.792 139.723 6.84 139.499 6.936C139.275 7.024 139.079 7.164 138.911 7.356C138.743 7.54 138.611 7.772 138.515 8.052C138.419 8.332 138.371 8.66 138.371 9.036C138.371 9.412 138.419 9.74 138.515 10.02C138.611 10.3 138.743 10.536 138.911 10.728C139.079 10.912 139.275 11.052 139.499 11.148C139.723 11.236 139.963 11.28 140.219 11.28ZM145.87 8.988L143.89 6.072H145.042L146.446 8.292H146.494L147.946 6.072H148.978L146.998 8.94L149.074 12H147.922L146.422 9.636H146.374L144.826 12H143.794L145.87 8.988Z" fill="black" fill-opacity="0.55"/>
<rect opacity="0.5" x="124" y="20" width="24" height="90" fill="#C1DADE"/>
<path d="M169.1 12.144C168.636 12.144 168.232 12.084 167.888 11.964C167.552 11.844 167.272 11.684 167.048 11.484C166.824 11.276 166.656 11.04 166.544 10.776C166.432 10.504 166.376 10.216 166.376 9.912C166.376 9.688 166.412 9.472 166.484 9.264C166.556 9.056 166.66 8.868 166.796 8.7C166.932 8.524 167.092 8.376 167.276 8.256C167.468 8.136 167.684 8.056 167.924 8.016V7.944C167.724 7.88 167.544 7.784 167.384 7.656C167.232 7.528 167.1 7.384 166.988 7.224C166.884 7.064 166.804 6.896 166.748 6.72C166.692 6.544 166.664 6.372 166.664 6.204C166.664 5.924 166.712 5.656 166.808 5.4C166.912 5.136 167.064 4.908 167.264 4.716C167.464 4.516 167.716 4.356 168.02 4.236C168.324 4.116 168.684 4.056 169.1 4.056C169.508 4.056 169.864 4.116 170.168 4.236C170.472 4.356 170.724 4.516 170.924 4.716C171.124 4.908 171.272 5.136 171.368 5.4C171.472 5.656 171.524 5.924 171.524 6.204C171.524 6.372 171.496 6.544 171.44 6.72C171.384 6.896 171.3 7.064 171.188 7.224C171.084 7.384 170.952 7.528 170.792 7.656C170.64 7.784 170.464 7.88 170.264 7.944V8.016C170.504 8.056 170.716 8.136 170.9 8.256C171.092 8.376 171.256 8.524 171.392 8.7C171.528 8.868 171.632 9.056 171.704 9.264C171.776 9.472 171.812 9.688 171.812 9.912C171.812 10.216 171.756 10.504 171.644 10.776C171.532 11.04 171.364 11.276 171.14 11.484C170.916 11.684 170.632 11.844 170.288 11.964C169.952 12.084 169.556 12.144 169.1 12.144ZM169.1 7.608C169.276 7.608 169.448 7.584 169.616 7.536C169.784 7.48 169.932 7.4 170.06 7.296C170.188 7.184 170.288 7.048 170.36 6.888C170.44 6.72 170.48 6.52 170.48 6.288C170.48 6.048 170.44 5.844 170.36 5.676C170.288 5.508 170.188 5.372 170.06 5.268C169.932 5.156 169.784 5.076 169.616 5.028C169.448 4.972 169.276 4.944 169.1 4.944C168.916 4.944 168.74 4.972 168.572 5.028C168.404 5.076 168.256 5.156 168.128 5.268C168 5.372 167.896 5.508 167.816 5.676C167.744 5.844 167.708 6.048 167.708 6.288C167.708 6.52 167.744 6.72 167.816 6.888C167.896 7.048 168 7.184 168.128 7.296C168.256 7.4 168.404 7.48 168.572 7.536C168.74 7.584 168.916 7.608 169.1 7.608ZM169.1 11.256C169.58 11.256 169.976 11.136 170.288 10.896C170.608 10.648 170.768 10.292 170.768 9.828C170.768 9.356 170.608 9.004 170.288 8.772C169.976 8.54 169.58 8.424 169.1 8.424C168.62 8.424 168.22 8.54 167.9 8.772C167.58 9.004 167.42 9.356 167.42 9.828C167.42 10.292 167.58 10.648 167.9 10.896C168.22 11.136 168.62 11.256 169.1 11.256ZM173.715 6.072H174.627V7.284H174.699C174.771 7.084 174.871 6.9 174.999 6.732C175.135 6.564 175.291 6.42 175.467 6.3C175.651 6.18 175.851 6.088 176.067 6.024C176.291 5.96 176.523 5.928 176.763 5.928C177.155 5.928 177.511 6.008 177.831 6.168C178.159 6.32 178.439 6.536 178.671 6.816C178.903 7.088 179.079 7.416 179.199 7.8C179.327 8.184 179.391 8.6 179.391 9.048C179.391 9.496 179.327 9.912 179.199 10.296C179.079 10.672 178.903 11 178.671 11.28C178.439 11.552 178.159 11.764 177.831 11.916C177.511 12.068 177.155 12.144 176.763 12.144C176.275 12.144 175.855 12.028 175.503 11.796C175.151 11.564 174.899 11.268 174.747 10.908H174.675V14.22H173.715V6.072ZM176.523 11.28C176.787 11.28 177.031 11.236 177.255 11.148C177.487 11.052 177.687 10.912 177.855 10.728C178.031 10.536 178.167 10.3 178.263 10.02C178.359 9.74 178.407 9.412 178.407 9.036C178.407 8.66 178.359 8.332 178.263 8.052C178.167 7.772 178.031 7.54 177.855 7.356C177.687 7.164 177.487 7.024 177.255 6.936C177.031 6.84 176.787 6.792 176.523 6.792C176.267 6.792 176.027 6.84 175.803 6.936C175.579 7.024 175.383 7.164 175.215 7.356C175.047 7.54 174.915 7.772 174.819 8.052C174.723 8.332 174.675 8.66 174.675 9.036C174.675 9.412 174.723 9.74 174.819 10.02C174.915 10.3 175.047 10.536 175.215 10.728C175.383 10.912 175.579 11.052 175.803 11.148C176.027 11.236 176.267 11.28 176.523 11.28ZM182.175 8.988L180.195 6.072H181.347L182.751 8.292H182.799L184.251 6.072H185.283L183.303 8.94L185.379 12H184.227L182.727 9.636H182.679L181.131 12H180.099L182.175 8.988Z" fill="black" fill-opacity="0.55"/>
<rect opacity="0.5" x="172" y="20" width="8" height="90" fill="#C1DADE"/>
<path d="M228.176 10.704C228.176 10.384 228.232 10.104 228.344 9.864C228.456 9.616 228.608 9.392 228.8 9.192C229 8.984 229.232 8.792 229.496 8.616C229.768 8.44 230.06 8.26 230.372 8.076C230.62 7.924 230.84 7.784 231.032 7.656C231.224 7.52 231.384 7.38 231.512 7.236C231.64 7.092 231.736 6.94 231.8 6.78C231.864 6.62 231.896 6.436 231.896 6.228C231.896 5.804 231.76 5.484 231.488 5.268C231.224 5.044 230.884 4.932 230.468 4.932C230.052 4.932 229.692 5.016 229.388 5.184C229.084 5.344 228.828 5.56 228.62 5.832L228.068 5.256C228.308 4.896 228.624 4.608 229.016 4.392C229.408 4.168 229.88 4.056 230.432 4.056C230.84 4.056 231.2 4.112 231.512 4.224C231.824 4.328 232.084 4.476 232.292 4.668C232.508 4.852 232.668 5.076 232.772 5.34C232.884 5.596 232.94 5.876 232.94 6.18C232.94 6.524 232.88 6.828 232.76 7.092C232.64 7.356 232.48 7.596 232.28 7.812C232.08 8.028 231.848 8.224 231.584 8.4C231.328 8.568 231.056 8.732 230.768 8.892C230.512 9.036 230.284 9.172 230.084 9.3C229.884 9.428 229.716 9.564 229.58 9.708C229.452 9.852 229.352 10.012 229.28 10.188C229.216 10.364 229.184 10.572 229.184 10.812V11.136H233.132V12H228.176V10.704ZM238.515 10.392H234.879V9.588L238.323 4.2H239.463L236.007 9.528H238.515V7.176H239.499V9.528H240.579V10.392H239.499V12H238.515V10.392ZM242.411 6.072H243.323V7.284H243.395C243.467 7.084 243.567 6.9 243.695 6.732C243.831 6.564 243.987 6.42 244.163 6.3C244.347 6.18 244.547 6.088 244.763 6.024C244.987 5.96 245.219 5.928 245.459 5.928C245.851 5.928 246.207 6.008 246.527 6.168C246.855 6.32 247.135 6.536 247.367 6.816C247.599 7.088 247.775 7.416 247.895 7.8C248.023 8.184 248.087 8.6 248.087 9.048C248.087 9.496 248.023 9.912 247.895 10.296C247.775 10.672 247.599 11 247.367 11.28C247.135 11.552 246.855 11.764 246.527 11.916C246.207 12.068 245.851 12.144 245.459 12.144C244.971 12.144 244.551 12.028 244.199 11.796C243.847 11.564 243.595 11.268 243.443 10.908H243.371V14.22H242.411V6.072ZM245.219 11.28C245.483 11.28 245.727 11.236 245.951 11.148C246.183 11.052 246.383 10.912 246.551 10.728C246.727 10.536 246.863 10.3 246.959 10.02C247.055 9.74 247.103 9.412 247.103 9.036C247.103 8.66 247.055 8.332 246.959 8.052C246.863 7.772 246.727 7.54 246.551 7.356C246.383 7.164 246.183 7.024 245.951 6.936C245.727 6.84 245.483 6.792 245.219 6.792C244.963 6.792 244.723 6.84 244.499 6.936C244.275 7.024 244.079 7.164 243.911 7.356C243.743 7.54 243.611 7.772 243.515 8.052C243.419 8.332 243.371 8.66 243.371 9.036C243.371 9.412 243.419 9.74 243.515 10.02C243.611 10.3 243.743 10.536 243.911 10.728C244.079 10.912 244.275 11.052 244.499 11.148C244.723 11.236 244.963 11.28 245.219 11.28ZM250.87 8.988L248.89 6.072H250.042L251.446 8.292H251.494L252.946 6.072H253.978L251.998 8.94L254.074 12H252.922L251.422 9.636H251.374L249.826 12H248.794L250.87 8.988Z" fill="black" fill-opacity="0.55"/>
<rect opacity="0.5" x="229" y="20" width="24" height="90" fill="#C1DADE"/>
<path d="M77.14 46.16H79.372V40.28L77.236 41.264L76.924 40.592L79.552 39.2H80.392V46.16H82.396V47H77.14V46.16ZM87.5153 45.392H83.8793V44.588L87.3233 39.2H88.4633L85.0073 44.528H87.5153V42.176H88.4993V44.528H89.5793V45.392H88.4993V47H87.5153V45.392ZM91.4106 41.072H92.3226V42.284H92.3946C92.4666 42.084 92.5666 41.9 92.6946 41.732C92.8306 41.564 92.9866 41.42 93.1626 41.3C93.3466 41.18 93.5466 41.088 93.7626 41.024C93.9866 40.96 94.2186 40.928 94.4586 40.928C94.8506 40.928 95.2066 41.008 95.5266 41.168C95.8546 41.32 96.1346 41.536 96.3666 41.816C96.5986 42.088 96.7746 42.416 96.8946 42.8C97.0226 43.184 97.0866 43.6 97.0866 44.048C97.0866 44.496 97.0226 44.912 96.8946 45.296C96.7746 45.672 96.5986 46 96.3666 46.28C96.1346 46.552 95.8546 46.764 95.5266 46.916C95.2066 47.068 94.8506 47.144 94.4586 47.144C93.9706 47.144 93.5506 47.028 93.1986 46.796C92.8466 46.564 92.5946 46.268 92.4426 45.908H92.3706V49.22H91.4106V41.072ZM94.2186 46.28C94.4826 46.28 94.7266 46.236 94.9506 46.148C95.1826 46.052 95.3826 45.912 95.5506 45.728C95.7266 45.536 95.8626 45.3 95.9586 45.02C96.0546 44.74 96.1026 44.412 96.1026 44.036C96.1026 43.66 96.0546 43.332 95.9586 43.052C95.8626 42.772 95.7266 42.54 95.5506 42.356C95.3826 42.164 95.1826 42.024 94.9506 41.936C94.7266 41.84 94.4826 41.792 94.2186 41.792C93.9626 41.792 93.7226 41.84 93.4986 41.936C93.2746 42.024 93.0786 42.164 92.9106 42.356C92.7426 42.54 92.6106 42.772 92.5146 43.052C92.4186 43.332 92.3706 43.66 92.3706 44.036C92.3706 44.412 92.4186 44.74 92.5146 45.02C92.6106 45.3 92.7426 45.536 92.9106 45.728C93.0786 45.912 93.2746 46.052 93.4986 46.148C93.7226 46.236 93.9626 46.28 94.2186 46.28ZM99.8704 43.988L97.8904 41.072H99.0424L100.446 43.292H100.494L101.946 41.072H102.978L100.998 43.94L103.074 47H101.922L100.422 44.636H100.374L98.8264 47H97.7944L99.8704 43.988Z" fill="black" fill-opacity="0.55"/>
<rect opacity="0.5" x="108" y="36" width="161" height="14" fill="#F2A6B0"/>
<path d="M77.14 88.16H79.372V82.28L77.236 83.264L76.924 82.592L79.552 81.2H80.392V88.16H82.396V89H77.14V88.16ZM87.5153 87.392H83.8793V86.588L87.3233 81.2H88.4633L85.0073 86.528H87.5153V84.176H88.4993V86.528H89.5793V87.392H88.4993V89H87.5153V87.392ZM91.4106 83.072H92.3226V84.284H92.3946C92.4666 84.084 92.5666 83.9 92.6946 83.732C92.8306 83.564 92.9866 83.42 93.1626 83.3C93.3466 83.18 93.5466 83.088 93.7626 83.024C93.9866 82.96 94.2186 82.928 94.4586 82.928C94.8506 82.928 95.2066 83.008 95.5266 83.168C95.8546 83.32 96.1346 83.536 96.3666 83.816C96.5986 84.088 96.7746 84.416 96.8946 84.8C97.0226 85.184 97.0866 85.6 97.0866 86.048C97.0866 86.496 97.0226 86.912 96.8946 87.296C96.7746 87.672 96.5986 88 96.3666 88.28C96.1346 88.552 95.8546 88.764 95.5266 88.916C95.2066 89.068 94.8506 89.144 94.4586 89.144C93.9706 89.144 93.5506 89.028 93.1986 88.796C92.8466 88.564 92.5946 88.268 92.4426 87.908H92.3706V91.22H91.4106V83.072ZM94.2186 88.28C94.4826 88.28 94.7266 88.236 94.9506 88.148C95.1826 88.052 95.3826 87.912 95.5506 87.728C95.7266 87.536 95.8626 87.3 95.9586 87.02C96.0546 86.74 96.1026 86.412 96.1026 86.036C96.1026 85.66 96.0546 85.332 95.9586 85.052C95.8626 84.772 95.7266 84.54 95.5506 84.356C95.3826 84.164 95.1826 84.024 94.9506 83.936C94.7266 83.84 94.4826 83.792 94.2186 83.792C93.9626 83.792 93.7226 83.84 93.4986 83.936C93.2746 84.024 93.0786 84.164 92.9106 84.356C92.7426 84.54 92.6106 84.772 92.5146 85.052C92.4186 85.332 92.3706 85.66 92.3706 86.036C92.3706 86.412 92.4186 86.74 92.5146 87.02C92.6106 87.3 92.7426 87.536 92.9106 87.728C93.0786 87.912 93.2746 88.052 93.4986 88.148C93.7226 88.236 93.9626 88.28 94.2186 88.28ZM99.8704 85.988L97.8904 83.072H99.0424L100.446 85.292H100.494L101.946 83.072H102.978L100.998 85.94L103.074 89H101.922L100.422 86.636H100.374L98.8264 89H97.7944L99.8704 85.988Z" fill="black" fill-opacity="0.55"/>
<rect opacity="0.5" x="108" y="78" width="161" height="14" fill="#F2A6B0"/>
<circle cx="16" cy="64.5" r="16" fill="#2B2A28"/>
<path d="M9.2958 67.6685H11.7458L11.7458 62.0265L9.6318 62.8805L9.0298 61.5645L12.2778 60.0665H13.6078L13.6078 67.6685H15.7918V69.1665H9.2958V67.6685ZM19.2681 65.6945L16.9721 62.2505H19.1141L20.3461 64.3505H20.4161L21.7181 62.2505H23.5941L21.2981 65.5125L23.7481 69.1665H21.5921L20.2341 66.8705H20.1641L18.7081 69.1665H16.8321L19.2681 65.6945Z" fill="white" fill-opacity="0.9"/>
<rect x="32" y="64" width="48" height="1" rx="0.5" fill="#FF8000"/>
<g clip-path="url(#clip2_2261_4991)">
<path d="M124 198.5C124 180.551 138.551 166 156.5 166H234.5C252.449 166 267 180.551 267 198.5C267 216.449 252.449 231 234.5 231H156.5C138.551 231 124 216.449 124 198.5Z" fill="#F36805"/>
<path d="M124 198.5C124 180.551 138.551 166 156.5 166H234.5C252.449 166 267 180.551 267 198.5C267 216.449 252.449 231 234.5 231H156.5C138.551 231 124 216.449 124 198.5Z" fill="white" fill-opacity="0.01"/>
<g clip-path="url(#clip3_2261_4991)">
<path d="M171.876 186.5L172 186.624V210.376L171.876 210.5H148.124L148 210.376V186.624L148.124 186.5H171.876ZM148.248 186.748V210.251H171.751V186.748H148.248ZM167.098 188C168.977 188 170.5 189.523 170.5 191.402V205.598C170.5 207.477 168.977 209 167.098 209H152.902C151.023 209 149.5 207.477 149.5 205.598V191.402C149.5 189.523 151.023 188 152.902 188H167.098Z" fill="white" fill-opacity="0.9"/>
</g>
<path d="M181.952 190.1H185.436V204.166H192.17V207H181.952V190.1ZM198.018 207.312C197.446 207.312 196.9 207.217 196.38 207.026C195.878 206.853 195.436 206.601 195.054 206.272C194.673 205.925 194.37 205.509 194.144 205.024C193.936 204.539 193.832 203.993 193.832 203.386C193.832 202.242 194.24 201.332 195.054 200.656C195.869 199.98 197.108 199.599 198.772 199.512L201.788 199.33V198.81C201.788 197.978 201.537 197.406 201.034 197.094C200.532 196.782 199.908 196.626 199.162 196.626C198.573 196.626 198.018 196.739 197.498 196.964C196.978 197.172 196.588 197.432 196.328 197.744L194.482 195.872C194.933 195.283 195.583 194.797 196.432 194.416C197.299 194.035 198.356 193.844 199.604 193.844C201.442 193.844 202.811 194.269 203.712 195.118C204.614 195.967 205.064 197.12 205.064 198.576V207H201.97V204.946H201.814C201.485 205.674 201.008 206.255 200.384 206.688C199.76 207.104 198.972 207.312 198.018 207.312ZM198.98 204.946C199.812 204.946 200.488 204.712 201.008 204.244C201.528 203.759 201.788 203.083 201.788 202.216V201.358L199.162 201.566C197.81 201.653 197.134 202.225 197.134 203.282C197.134 203.819 197.308 204.235 197.654 204.53C198.001 204.807 198.443 204.946 198.98 204.946ZM215.74 207.312C214.734 207.312 213.859 207.069 213.114 206.584C212.386 206.099 211.866 205.431 211.554 204.582H211.398V207H208.278V188.15H211.554V196.366H211.71C212.004 195.621 212.498 195.014 213.192 194.546C213.885 194.078 214.734 193.844 215.74 193.844C216.537 193.844 217.274 194.009 217.95 194.338C218.643 194.667 219.232 195.135 219.718 195.742C220.22 196.331 220.61 197.042 220.888 197.874C221.165 198.706 221.304 199.625 221.304 200.63C221.304 201.618 221.165 202.528 220.888 203.36C220.61 204.175 220.22 204.877 219.718 205.466C219.232 206.038 218.643 206.489 217.95 206.818C217.274 207.147 216.537 207.312 215.74 207.312ZM214.726 204.452C215.696 204.452 216.476 204.105 217.066 203.412C217.655 202.719 217.95 201.774 217.95 200.578C217.95 199.382 217.655 198.437 217.066 197.744C216.476 197.051 215.696 196.704 214.726 196.704C213.772 196.704 213.001 197.051 212.412 197.744C211.84 198.437 211.554 199.382 211.554 200.578C211.554 201.774 211.84 202.719 212.412 203.412C213.001 204.105 213.772 204.452 214.726 204.452ZM229.431 207.312C228.357 207.312 227.421 207.139 226.623 206.792C225.826 206.445 225.15 205.969 224.595 205.362C224.058 204.738 223.651 204.019 223.373 203.204C223.113 202.389 222.983 201.514 222.983 200.578C222.983 199.625 223.113 198.741 223.373 197.926C223.633 197.094 224.023 196.383 224.543 195.794C225.063 195.187 225.713 194.711 226.493 194.364C227.273 194.017 228.183 193.844 229.223 193.844C230.263 193.844 231.173 194.009 231.953 194.338C232.733 194.667 233.375 195.127 233.877 195.716C234.38 196.305 234.753 197.007 234.995 197.822C235.255 198.619 235.385 199.495 235.385 200.448C235.385 200.621 235.368 200.821 235.333 201.046C235.316 201.271 235.29 201.453 235.255 201.592H226.311C226.363 202.06 226.485 202.485 226.675 202.866C226.883 203.23 227.135 203.542 227.429 203.802C227.741 204.062 228.079 204.261 228.443 204.4C228.825 204.521 229.215 204.582 229.613 204.582C230.359 204.582 230.983 204.452 231.485 204.192C231.988 203.932 232.395 203.603 232.707 203.204L234.553 205.128C234.068 205.787 233.392 206.315 232.525 206.714C231.659 207.113 230.627 207.312 229.431 207.312ZM229.223 196.34C228.391 196.34 227.715 196.609 227.195 197.146C226.675 197.683 226.372 198.394 226.285 199.278H232.109C232.023 198.394 231.719 197.683 231.199 197.146C230.697 196.609 230.038 196.34 229.223 196.34ZM237.934 188.15H241.21V207H237.934V188.15Z" fill="white" fill-opacity="0.9"/>
</g>
<path d="M123.176 140.704C123.176 140.384 123.232 140.104 123.344 139.864C123.456 139.616 123.608 139.392 123.8 139.192C124 138.984 124.232 138.792 124.496 138.616C124.768 138.44 125.06 138.26 125.372 138.076C125.62 137.924 125.84 137.784 126.032 137.656C126.224 137.52 126.384 137.38 126.512 137.236C126.64 137.092 126.736 136.94 126.8 136.78C126.864 136.62 126.896 136.436 126.896 136.228C126.896 135.804 126.76 135.484 126.488 135.268C126.224 135.044 125.884 134.932 125.468 134.932C125.052 134.932 124.692 135.016 124.388 135.184C124.084 135.344 123.828 135.56 123.62 135.832L123.068 135.256C123.308 134.896 123.624 134.608 124.016 134.392C124.408 134.168 124.88 134.056 125.432 134.056C125.84 134.056 126.2 134.112 126.512 134.224C126.824 134.328 127.084 134.476 127.292 134.668C127.508 134.852 127.668 135.076 127.772 135.34C127.884 135.596 127.94 135.876 127.94 136.18C127.94 136.524 127.88 136.828 127.76 137.092C127.64 137.356 127.48 137.596 127.28 137.812C127.08 138.028 126.848 138.224 126.584 138.4C126.328 138.568 126.056 138.732 125.768 138.892C125.512 139.036 125.284 139.172 125.084 139.3C124.884 139.428 124.716 139.564 124.58 139.708C124.452 139.852 124.352 140.012 124.28 140.188C124.216 140.364 124.184 140.572 124.184 140.812V141.136H128.132V142H123.176V140.704ZM133.515 140.392H129.879V139.588L133.323 134.2H134.463L131.007 139.528H133.515V137.176H134.499V139.528H135.579V140.392H134.499V142H133.515V140.392ZM137.411 136.072H138.323V137.284H138.395C138.467 137.084 138.567 136.9 138.695 136.732C138.831 136.564 138.987 136.42 139.163 136.3C139.347 136.18 139.547 136.088 139.763 136.024C139.987 135.96 140.219 135.928 140.459 135.928C140.851 135.928 141.207 136.008 141.527 136.168C141.855 136.32 142.135 136.536 142.367 136.816C142.599 137.088 142.775 137.416 142.895 137.8C143.023 138.184 143.087 138.6 143.087 139.048C143.087 139.496 143.023 139.912 142.895 140.296C142.775 140.672 142.599 141 142.367 141.28C142.135 141.552 141.855 141.764 141.527 141.916C141.207 142.068 140.851 142.144 140.459 142.144C139.971 142.144 139.551 142.028 139.199 141.796C138.847 141.564 138.595 141.268 138.443 140.908H138.371V144.22H137.411V136.072ZM140.219 141.28C140.483 141.28 140.727 141.236 140.951 141.148C141.183 141.052 141.383 140.912 141.551 140.728C141.727 140.536 141.863 140.3 141.959 140.02C142.055 139.74 142.103 139.412 142.103 139.036C142.103 138.66 142.055 138.332 141.959 138.052C141.863 137.772 141.727 137.54 141.551 137.356C141.383 137.164 141.183 137.024 140.951 136.936C140.727 136.84 140.483 136.792 140.219 136.792C139.963 136.792 139.723 136.84 139.499 136.936C139.275 137.024 139.079 137.164 138.911 137.356C138.743 137.54 138.611 137.772 138.515 138.052C138.419 138.332 138.371 138.66 138.371 139.036C138.371 139.412 138.419 139.74 138.515 140.02C138.611 140.3 138.743 140.536 138.911 140.728C139.079 140.912 139.275 141.052 139.499 141.148C139.723 141.236 139.963 141.28 140.219 141.28ZM145.87 138.988L143.89 136.072H145.042L146.446 138.292H146.494L147.946 136.072H148.978L146.998 138.94L149.074 142H147.922L146.422 139.636H146.374L144.826 142H143.794L145.87 138.988Z" fill="black" fill-opacity="0.55"/>
<rect opacity="0.5" x="124" y="150" width="24" height="90" fill="#C1DADE"/>
<path d="M169.1 142.144C168.636 142.144 168.232 142.084 167.888 141.964C167.552 141.844 167.272 141.684 167.048 141.484C166.824 141.276 166.656 141.04 166.544 140.776C166.432 140.504 166.376 140.216 166.376 139.912C166.376 139.688 166.412 139.472 166.484 139.264C166.556 139.056 166.66 138.868 166.796 138.7C166.932 138.524 167.092 138.376 167.276 138.256C167.468 138.136 167.684 138.056 167.924 138.016V137.944C167.724 137.88 167.544 137.784 167.384 137.656C167.232 137.528 167.1 137.384 166.988 137.224C166.884 137.064 166.804 136.896 166.748 136.72C166.692 136.544 166.664 136.372 166.664 136.204C166.664 135.924 166.712 135.656 166.808 135.4C166.912 135.136 167.064 134.908 167.264 134.716C167.464 134.516 167.716 134.356 168.02 134.236C168.324 134.116 168.684 134.056 169.1 134.056C169.508 134.056 169.864 134.116 170.168 134.236C170.472 134.356 170.724 134.516 170.924 134.716C171.124 134.908 171.272 135.136 171.368 135.4C171.472 135.656 171.524 135.924 171.524 136.204C171.524 136.372 171.496 136.544 171.44 136.72C171.384 136.896 171.3 137.064 171.188 137.224C171.084 137.384 170.952 137.528 170.792 137.656C170.64 137.784 170.464 137.88 170.264 137.944V138.016C170.504 138.056 170.716 138.136 170.9 138.256C171.092 138.376 171.256 138.524 171.392 138.7C171.528 138.868 171.632 139.056 171.704 139.264C171.776 139.472 171.812 139.688 171.812 139.912C171.812 140.216 171.756 140.504 171.644 140.776C171.532 141.04 171.364 141.276 171.14 141.484C170.916 141.684 170.632 141.844 170.288 141.964C169.952 142.084 169.556 142.144 169.1 142.144ZM169.1 137.608C169.276 137.608 169.448 137.584 169.616 137.536C169.784 137.48 169.932 137.4 170.06 137.296C170.188 137.184 170.288 137.048 170.36 136.888C170.44 136.72 170.48 136.52 170.48 136.288C170.48 136.048 170.44 135.844 170.36 135.676C170.288 135.508 170.188 135.372 170.06 135.268C169.932 135.156 169.784 135.076 169.616 135.028C169.448 134.972 169.276 134.944 169.1 134.944C168.916 134.944 168.74 134.972 168.572 135.028C168.404 135.076 168.256 135.156 168.128 135.268C168 135.372 167.896 135.508 167.816 135.676C167.744 135.844 167.708 136.048 167.708 136.288C167.708 136.52 167.744 136.72 167.816 136.888C167.896 137.048 168 137.184 168.128 137.296C168.256 137.4 168.404 137.48 168.572 137.536C168.74 137.584 168.916 137.608 169.1 137.608ZM169.1 141.256C169.58 141.256 169.976 141.136 170.288 140.896C170.608 140.648 170.768 140.292 170.768 139.828C170.768 139.356 170.608 139.004 170.288 138.772C169.976 138.54 169.58 138.424 169.1 138.424C168.62 138.424 168.22 138.54 167.9 138.772C167.58 139.004 167.42 139.356 167.42 139.828C167.42 140.292 167.58 140.648 167.9 140.896C168.22 141.136 168.62 141.256 169.1 141.256ZM173.715 136.072H174.627V137.284H174.699C174.771 137.084 174.871 136.9 174.999 136.732C175.135 136.564 175.291 136.42 175.467 136.3C175.651 136.18 175.851 136.088 176.067 136.024C176.291 135.96 176.523 135.928 176.763 135.928C177.155 135.928 177.511 136.008 177.831 136.168C178.159 136.32 178.439 136.536 178.671 136.816C178.903 137.088 179.079 137.416 179.199 137.8C179.327 138.184 179.391 138.6 179.391 139.048C179.391 139.496 179.327 139.912 179.199 140.296C179.079 140.672 178.903 141 178.671 141.28C178.439 141.552 178.159 141.764 177.831 141.916C177.511 142.068 177.155 142.144 176.763 142.144C176.275 142.144 175.855 142.028 175.503 141.796C175.151 141.564 174.899 141.268 174.747 140.908H174.675V144.22H173.715V136.072ZM176.523 141.28C176.787 141.28 177.031 141.236 177.255 141.148C177.487 141.052 177.687 140.912 177.855 140.728C178.031 140.536 178.167 140.3 178.263 140.02C178.359 139.74 178.407 139.412 178.407 139.036C178.407 138.66 178.359 138.332 178.263 138.052C178.167 137.772 178.031 137.54 177.855 137.356C177.687 137.164 177.487 137.024 177.255 136.936C177.031 136.84 176.787 136.792 176.523 136.792C176.267 136.792 176.027 136.84 175.803 136.936C175.579 137.024 175.383 137.164 175.215 137.356C175.047 137.54 174.915 137.772 174.819 138.052C174.723 138.332 174.675 138.66 174.675 139.036C174.675 139.412 174.723 139.74 174.819 140.02C174.915 140.3 175.047 140.536 175.215 140.728C175.383 140.912 175.579 141.052 175.803 141.148C176.027 141.236 176.267 141.28 176.523 141.28ZM182.175 138.988L180.195 136.072H181.347L182.751 138.292H182.799L184.251 136.072H185.283L183.303 138.94L185.379 142H184.227L182.727 139.636H182.679L181.131 142H180.099L182.175 138.988Z" fill="black" fill-opacity="0.55"/>
<rect opacity="0.5" x="172" y="150" width="8" height="90" fill="#C1DADE"/>
<path d="M242.176 140.704C242.176 140.384 242.232 140.104 242.344 139.864C242.456 139.616 242.608 139.392 242.8 139.192C243 138.984 243.232 138.792 243.496 138.616C243.768 138.44 244.06 138.26 244.372 138.076C244.62 137.924 244.84 137.784 245.032 137.656C245.224 137.52 245.384 137.38 245.512 137.236C245.64 137.092 245.736 136.94 245.8 136.78C245.864 136.62 245.896 136.436 245.896 136.228C245.896 135.804 245.76 135.484 245.488 135.268C245.224 135.044 244.884 134.932 244.468 134.932C244.052 134.932 243.692 135.016 243.388 135.184C243.084 135.344 242.828 135.56 242.62 135.832L242.068 135.256C242.308 134.896 242.624 134.608 243.016 134.392C243.408 134.168 243.88 134.056 244.432 134.056C244.84 134.056 245.2 134.112 245.512 134.224C245.824 134.328 246.084 134.476 246.292 134.668C246.508 134.852 246.668 135.076 246.772 135.34C246.884 135.596 246.94 135.876 246.94 136.18C246.94 136.524 246.88 136.828 246.76 137.092C246.64 137.356 246.48 137.596 246.28 137.812C246.08 138.028 245.848 138.224 245.584 138.4C245.328 138.568 245.056 138.732 244.768 138.892C244.512 139.036 244.284 139.172 244.084 139.3C243.884 139.428 243.716 139.564 243.58 139.708C243.452 139.852 243.352 140.012 243.28 140.188C243.216 140.364 243.184 140.572 243.184 140.812V141.136H247.132V142H242.176V140.704ZM252.515 140.392H248.879V139.588L252.323 134.2H253.463L250.007 139.528H252.515V137.176H253.499V139.528H254.579V140.392H253.499V142H252.515V140.392ZM256.411 136.072H257.323V137.284H257.395C257.467 137.084 257.567 136.9 257.695 136.732C257.831 136.564 257.987 136.42 258.163 136.3C258.347 136.18 258.547 136.088 258.763 136.024C258.987 135.96 259.219 135.928 259.459 135.928C259.851 135.928 260.207 136.008 260.527 136.168C260.855 136.32 261.135 136.536 261.367 136.816C261.599 137.088 261.775 137.416 261.895 137.8C262.023 138.184 262.087 138.6 262.087 139.048C262.087 139.496 262.023 139.912 261.895 140.296C261.775 140.672 261.599 141 261.367 141.28C261.135 141.552 260.855 141.764 260.527 141.916C260.207 142.068 259.851 142.144 259.459 142.144C258.971 142.144 258.551 142.028 258.199 141.796C257.847 141.564 257.595 141.268 257.443 140.908H257.371V144.22H256.411V136.072ZM259.219 141.28C259.483 141.28 259.727 141.236 259.951 141.148C260.183 141.052 260.383 140.912 260.551 140.728C260.727 140.536 260.863 140.3 260.959 140.02C261.055 139.74 261.103 139.412 261.103 139.036C261.103 138.66 261.055 138.332 260.959 138.052C260.863 137.772 260.727 137.54 260.551 137.356C260.383 137.164 260.183 137.024 259.951 136.936C259.727 136.84 259.483 136.792 259.219 136.792C258.963 136.792 258.723 136.84 258.499 136.936C258.275 137.024 258.079 137.164 257.911 137.356C257.743 137.54 257.611 137.772 257.515 138.052C257.419 138.332 257.371 138.66 257.371 139.036C257.371 139.412 257.419 139.74 257.515 140.02C257.611 140.3 257.743 140.536 257.911 140.728C258.079 140.912 258.275 141.052 258.499 141.148C258.723 141.236 258.963 141.28 259.219 141.28ZM264.87 138.988L262.89 136.072H264.042L265.446 138.292H265.494L266.946 136.072H267.978L265.998 138.94L268.074 142H266.922L265.422 139.636H265.374L263.826 142H262.794L264.87 138.988Z" fill="black" fill-opacity="0.55"/>
<rect opacity="0.5" x="243" y="150" width="24" height="90" fill="#C1DADE"/>
<path d="M77.14 176.16H79.372V170.28L77.236 171.264L76.924 170.592L79.552 169.2H80.392V176.16H82.396V177H77.14V176.16ZM87.5153 175.392H83.8793V174.588L87.3233 169.2H88.4633L85.0073 174.528H87.5153V172.176H88.4993V174.528H89.5793V175.392H88.4993V177H87.5153V175.392ZM91.4106 171.072H92.3226V172.284H92.3946C92.4666 172.084 92.5666 171.9 92.6946 171.732C92.8306 171.564 92.9866 171.42 93.1626 171.3C93.3466 171.18 93.5466 171.088 93.7626 171.024C93.9866 170.96 94.2186 170.928 94.4586 170.928C94.8506 170.928 95.2066 171.008 95.5266 171.168C95.8546 171.32 96.1346 171.536 96.3666 171.816C96.5986 172.088 96.7746 172.416 96.8946 172.8C97.0226 173.184 97.0866 173.6 97.0866 174.048C97.0866 174.496 97.0226 174.912 96.8946 175.296C96.7746 175.672 96.5986 176 96.3666 176.28C96.1346 176.552 95.8546 176.764 95.5266 176.916C95.2066 177.068 94.8506 177.144 94.4586 177.144C93.9706 177.144 93.5506 177.028 93.1986 176.796C92.8466 176.564 92.5946 176.268 92.4426 175.908H92.3706V179.22H91.4106V171.072ZM94.2186 176.28C94.4826 176.28 94.7266 176.236 94.9506 176.148C95.1826 176.052 95.3826 175.912 95.5506 175.728C95.7266 175.536 95.8626 175.3 95.9586 175.02C96.0546 174.74 96.1026 174.412 96.1026 174.036C96.1026 173.66 96.0546 173.332 95.9586 173.052C95.8626 172.772 95.7266 172.54 95.5506 172.356C95.3826 172.164 95.1826 172.024 94.9506 171.936C94.7266 171.84 94.4826 171.792 94.2186 171.792C93.9626 171.792 93.7226 171.84 93.4986 171.936C93.2746 172.024 93.0786 172.164 92.9106 172.356C92.7426 172.54 92.6106 172.772 92.5146 173.052C92.4186 173.332 92.3706 173.66 92.3706 174.036C92.3706 174.412 92.4186 174.74 92.5146 175.02C92.6106 175.3 92.7426 175.536 92.9106 175.728C93.0786 175.912 93.2746 176.052 93.4986 176.148C93.7226 176.236 93.9626 176.28 94.2186 176.28ZM99.8704 173.988L97.8904 171.072H99.0424L100.446 173.292H100.494L101.946 171.072H102.978L100.998 173.94L103.074 177H101.922L100.422 174.636H100.374L98.8264 177H97.7944L99.8704 173.988Z" fill="black" fill-opacity="0.55"/>
<rect opacity="0.5" x="108" y="166" width="172" height="14" fill="#F2A6B0"/>
<path d="M77.14 227.16H79.372V221.28L77.236 222.264L76.924 221.592L79.552 220.2H80.392V227.16H82.396V228H77.14V227.16ZM87.5153 226.392H83.8793V225.588L87.3233 220.2H88.4633L85.0073 225.528H87.5153V223.176H88.4993V225.528H89.5793V226.392H88.4993V228H87.5153V226.392ZM91.4106 222.072H92.3226V223.284H92.3946C92.4666 223.084 92.5666 222.9 92.6946 222.732C92.8306 222.564 92.9866 222.42 93.1626 222.3C93.3466 222.18 93.5466 222.088 93.7626 222.024C93.9866 221.96 94.2186 221.928 94.4586 221.928C94.8506 221.928 95.2066 222.008 95.5266 222.168C95.8546 222.32 96.1346 222.536 96.3666 222.816C96.5986 223.088 96.7746 223.416 96.8946 223.8C97.0226 224.184 97.0866 224.6 97.0866 225.048C97.0866 225.496 97.0226 225.912 96.8946 226.296C96.7746 226.672 96.5986 227 96.3666 227.28C96.1346 227.552 95.8546 227.764 95.5266 227.916C95.2066 228.068 94.8506 228.144 94.4586 228.144C93.9706 228.144 93.5506 228.028 93.1986 227.796C92.8466 227.564 92.5946 227.268 92.4426 226.908H92.3706V230.22H91.4106V222.072ZM94.2186 227.28C94.4826 227.28 94.7266 227.236 94.9506 227.148C95.1826 227.052 95.3826 226.912 95.5506 226.728C95.7266 226.536 95.8626 226.3 95.9586 226.02C96.0546 225.74 96.1026 225.412 96.1026 225.036C96.1026 224.66 96.0546 224.332 95.9586 224.052C95.8626 223.772 95.7266 223.54 95.5506 223.356C95.3826 223.164 95.1826 223.024 94.9506 222.936C94.7266 222.84 94.4826 222.792 94.2186 222.792C93.9626 222.792 93.7226 222.84 93.4986 222.936C93.2746 223.024 93.0786 223.164 92.9106 223.356C92.7426 223.54 92.6106 223.772 92.5146 224.052C92.4186 224.332 92.3706 224.66 92.3706 225.036C92.3706 225.412 92.4186 225.74 92.5146 226.02C92.6106 226.3 92.7426 226.536 92.9106 226.728C93.0786 226.912 93.2746 227.052 93.4986 227.148C93.7226 227.236 93.9626 227.28 94.2186 227.28ZM99.8704 224.988L97.8904 222.072H99.0424L100.446 224.292H100.494L101.946 222.072H102.978L100.998 224.94L103.074 228H101.922L100.422 225.636H100.374L98.8264 228H97.7944L99.8704 224.988Z" fill="black" fill-opacity="0.55"/>
<rect opacity="0.5" x="108" y="217" width="172" height="14" fill="#F2A6B0"/>
<circle cx="16" cy="198.5" r="16" fill="#2B2A28"/>
<path d="M3.08877 201.669H5.53877L5.53877 196.027L3.42477 196.881L2.82277 195.565L6.07077 194.067H7.40077L7.40077 201.669H9.58477V203.167H3.08877L3.08877 201.669ZM12.333 203.335C11.9597 203.335 11.675 203.223 11.479 202.999C11.283 202.765 11.185 202.499 11.185 202.201C11.185 201.911 11.283 201.655 11.479 201.431C11.675 201.197 11.9597 201.081 12.333 201.081C12.7064 201.081 12.991 201.197 13.187 201.431C13.383 201.655 13.481 201.911 13.481 202.201C13.481 202.499 13.383 202.765 13.187 202.999C12.991 203.223 12.7064 203.335 12.333 203.335ZM18.1768 203.335C17.4488 203.335 16.8375 203.227 16.3428 203.013C15.8482 202.789 15.4235 202.485 15.0688 202.103L16.0908 200.969C16.3148 201.221 16.5948 201.426 16.9308 201.585C17.2762 201.743 17.6588 201.823 18.0788 201.823C18.5828 201.823 18.9888 201.711 19.2968 201.487C19.6048 201.263 19.7588 200.931 19.7588 200.493C19.7588 200.073 19.6142 199.765 19.3248 199.569C19.0355 199.373 18.6528 199.275 18.1768 199.275H17.2668V197.791H18.1768C18.5968 197.791 18.9095 197.683 19.1148 197.469C19.3202 197.245 19.4228 196.955 19.4228 196.601C19.4228 196.386 19.3855 196.204 19.3108 196.055C19.2362 195.905 19.1335 195.784 19.0028 195.691C18.8815 195.588 18.7368 195.518 18.5688 195.481C18.4008 195.434 18.2282 195.411 18.0508 195.411C17.6682 195.411 17.3182 195.485 17.0008 195.635C16.6835 195.784 16.4175 195.98 16.2028 196.223L15.2368 195.131C15.5728 194.757 15.9788 194.459 16.4548 194.235C16.9308 194.011 17.5188 193.899 18.2188 193.899C18.6762 193.899 19.0962 193.959 19.4788 194.081C19.8615 194.202 20.1882 194.375 20.4588 194.599C20.7295 194.813 20.9395 195.07 21.0888 195.369C21.2382 195.667 21.3128 195.999 21.3128 196.363C21.3128 196.839 21.1728 197.259 20.8928 197.623C20.6128 197.977 20.2068 198.248 19.6748 198.435V198.519C19.9548 198.575 20.2115 198.668 20.4448 198.799C20.6875 198.929 20.8928 199.093 21.0608 199.289C21.2382 199.475 21.3782 199.69 21.4808 199.933C21.5835 200.166 21.6348 200.423 21.6348 200.703C21.6348 201.085 21.5602 201.44 21.4108 201.767C21.2615 202.084 21.0375 202.359 20.7388 202.593C20.4495 202.826 20.0902 203.008 19.6608 203.139C19.2315 203.269 18.7368 203.335 18.1768 203.335ZM25.4751 199.695L23.1791 196.251H25.3211L26.5531 198.351H26.6231L27.9251 196.251H29.8011L27.5051 199.513L29.9551 203.167H27.7991L26.4411 200.871H26.3711L24.9151 203.167H23.0391L25.4751 199.695Z" fill="white" fill-opacity="0.9"/>
<rect x="32" y="198" width="48" height="1" rx="0.5" fill="#FF8000"/>
<g clip-path="url(#clip4_2261_4991)">
<path d="M124 337C124 313.804 142.804 295 166 295H259C282.196 295 301 313.804 301 337C301 360.196 282.196 379 259 379H166C142.804 379 124 360.196 124 337Z" fill="#F36805"/>
<path d="M124 337C124 313.804 142.804 295 166 295H259C282.196 295 301 313.804 301 337C301 360.196 282.196 379 259 379H166C142.804 379 124 360.196 124 337Z" fill="white" fill-opacity="0.01"/>
<g clip-path="url(#clip5_2261_4991)">
<path d="M171.876 325L172 325.124V348.876L171.876 349H148.124L148 348.876V325.124L148.124 325H171.876ZM148.248 325.248V348.751H171.751V325.248H148.248ZM167.098 326.5C168.977 326.5 170.5 328.023 170.5 329.902V344.098C170.5 345.977 168.977 347.5 167.098 347.5H152.902C151.023 347.5 149.5 345.977 149.5 344.098V329.902C149.5 328.023 151.023 326.5 152.902 326.5H167.098Z" fill="white" fill-opacity="0.9"/>
</g>
<path d="M183.041 325H188.401V346.64H198.761V351H183.041V325ZM207.759 351.48C206.879 351.48 206.039 351.333 205.239 351.04C204.466 350.773 203.786 350.387 203.199 349.88C202.613 349.347 202.146 348.707 201.799 347.96C201.479 347.213 201.319 346.373 201.319 345.44C201.319 343.68 201.946 342.28 203.199 341.24C204.453 340.2 206.359 339.613 208.919 339.48L213.559 339.2V338.4C213.559 337.12 213.173 336.24 212.399 335.76C211.626 335.28 210.666 335.04 209.519 335.04C208.613 335.04 207.759 335.213 206.959 335.56C206.159 335.88 205.559 336.28 205.159 336.76L202.319 333.88C203.013 332.973 204.013 332.227 205.319 331.64C206.653 331.053 208.279 330.76 210.199 330.76C213.026 330.76 215.133 331.413 216.519 332.72C217.906 334.027 218.599 335.8 218.599 338.04V351H213.839V347.84H213.599C213.093 348.96 212.359 349.853 211.399 350.52C210.439 351.16 209.226 351.48 207.759 351.48ZM209.239 347.84C210.519 347.84 211.559 347.48 212.359 346.76C213.159 346.013 213.559 344.973 213.559 343.64V342.32L209.519 342.64C207.439 342.773 206.399 343.653 206.399 345.28C206.399 346.107 206.666 346.747 207.199 347.2C207.733 347.627 208.413 347.84 209.239 347.84ZM235.022 351.48C233.476 351.48 232.129 351.107 230.982 350.36C229.862 349.613 229.062 348.587 228.582 347.28H228.342V351H223.542V322H228.582V334.64H228.822C229.276 333.493 230.036 332.56 231.102 331.84C232.169 331.12 233.476 330.76 235.022 330.76C236.249 330.76 237.382 331.013 238.422 331.52C239.489 332.027 240.396 332.747 241.142 333.68C241.916 334.587 242.516 335.68 242.942 336.96C243.369 338.24 243.582 339.653 243.582 341.2C243.582 342.72 243.369 344.12 242.942 345.4C242.516 346.653 241.916 347.733 241.142 348.64C240.396 349.52 239.489 350.213 238.422 350.72C237.382 351.227 236.249 351.48 235.022 351.48ZM233.462 347.08C234.956 347.08 236.156 346.547 237.062 345.48C237.969 344.413 238.422 342.96 238.422 341.12C238.422 339.28 237.969 337.827 237.062 336.76C236.156 335.693 234.956 335.16 233.462 335.16C231.996 335.16 230.809 335.693 229.902 336.76C229.022 337.827 228.582 339.28 228.582 341.12C228.582 342.96 229.022 344.413 229.902 345.48C230.809 346.547 231.996 347.08 233.462 347.08ZM256.087 351.48C254.433 351.48 252.993 351.213 251.767 350.68C250.54 350.147 249.5 349.413 248.647 348.48C247.82 347.52 247.193 346.413 246.767 345.16C246.367 343.907 246.167 342.56 246.167 341.12C246.167 339.653 246.367 338.293 246.767 337.04C247.167 335.76 247.767 334.667 248.567 333.76C249.367 332.827 250.367 332.093 251.567 331.56C252.767 331.027 254.167 330.76 255.767 330.76C257.367 330.76 258.767 331.013 259.967 331.52C261.167 332.027 262.153 332.733 262.927 333.64C263.7 334.547 264.273 335.627 264.647 336.88C265.047 338.107 265.247 339.453 265.247 340.92C265.247 341.187 265.22 341.493 265.167 341.84C265.14 342.187 265.1 342.467 265.047 342.68H251.287C251.367 343.4 251.553 344.053 251.847 344.64C252.167 345.2 252.553 345.68 253.007 346.08C253.487 346.48 254.007 346.787 254.567 347C255.153 347.187 255.753 347.28 256.367 347.28C257.513 347.28 258.473 347.08 259.247 346.68C260.02 346.28 260.647 345.773 261.127 345.16L263.967 348.12C263.22 349.133 262.18 349.947 260.847 350.56C259.513 351.173 257.927 351.48 256.087 351.48ZM255.767 334.6C254.487 334.6 253.447 335.013 252.647 335.84C251.847 336.667 251.38 337.76 251.247 339.12H260.207C260.073 337.76 259.607 336.667 258.807 335.84C258.033 335.013 257.02 334.6 255.767 334.6ZM269.167 322H274.207V351H269.167V322Z" fill="white" fill-opacity="0.9"/>
</g>
<path d="M123.176 270.704C123.176 270.384 123.232 270.104 123.344 269.864C123.456 269.616 123.608 269.392 123.8 269.192C124 268.984 124.232 268.792 124.496 268.616C124.768 268.44 125.06 268.26 125.372 268.076C125.62 267.924 125.84 267.784 126.032 267.656C126.224 267.52 126.384 267.38 126.512 267.236C126.64 267.092 126.736 266.94 126.8 266.78C126.864 266.62 126.896 266.436 126.896 266.228C126.896 265.804 126.76 265.484 126.488 265.268C126.224 265.044 125.884 264.932 125.468 264.932C125.052 264.932 124.692 265.016 124.388 265.184C124.084 265.344 123.828 265.56 123.62 265.832L123.068 265.256C123.308 264.896 123.624 264.608 124.016 264.392C124.408 264.168 124.88 264.056 125.432 264.056C125.84 264.056 126.2 264.112 126.512 264.224C126.824 264.328 127.084 264.476 127.292 264.668C127.508 264.852 127.668 265.076 127.772 265.34C127.884 265.596 127.94 265.876 127.94 266.18C127.94 266.524 127.88 266.828 127.76 267.092C127.64 267.356 127.48 267.596 127.28 267.812C127.08 268.028 126.848 268.224 126.584 268.4C126.328 268.568 126.056 268.732 125.768 268.892C125.512 269.036 125.284 269.172 125.084 269.3C124.884 269.428 124.716 269.564 124.58 269.708C124.452 269.852 124.352 270.012 124.28 270.188C124.216 270.364 124.184 270.572 124.184 270.812V271.136H128.132V272H123.176V270.704ZM133.515 270.392H129.879V269.588L133.323 264.2H134.463L131.007 269.528H133.515V267.176H134.499V269.528H135.579V270.392H134.499V272H133.515V270.392ZM137.411 266.072H138.323V267.284H138.395C138.467 267.084 138.567 266.9 138.695 266.732C138.831 266.564 138.987 266.42 139.163 266.3C139.347 266.18 139.547 266.088 139.763 266.024C139.987 265.96 140.219 265.928 140.459 265.928C140.851 265.928 141.207 266.008 141.527 266.168C141.855 266.32 142.135 266.536 142.367 266.816C142.599 267.088 142.775 267.416 142.895 267.8C143.023 268.184 143.087 268.6 143.087 269.048C143.087 269.496 143.023 269.912 142.895 270.296C142.775 270.672 142.599 271 142.367 271.28C142.135 271.552 141.855 271.764 141.527 271.916C141.207 272.068 140.851 272.144 140.459 272.144C139.971 272.144 139.551 272.028 139.199 271.796C138.847 271.564 138.595 271.268 138.443 270.908H138.371V274.22H137.411V266.072ZM140.219 271.28C140.483 271.28 140.727 271.236 140.951 271.148C141.183 271.052 141.383 270.912 141.551 270.728C141.727 270.536 141.863 270.3 141.959 270.02C142.055 269.74 142.103 269.412 142.103 269.036C142.103 268.66 142.055 268.332 141.959 268.052C141.863 267.772 141.727 267.54 141.551 267.356C141.383 267.164 141.183 267.024 140.951 266.936C140.727 266.84 140.483 266.792 140.219 266.792C139.963 266.792 139.723 266.84 139.499 266.936C139.275 267.024 139.079 267.164 138.911 267.356C138.743 267.54 138.611 267.772 138.515 268.052C138.419 268.332 138.371 268.66 138.371 269.036C138.371 269.412 138.419 269.74 138.515 270.02C138.611 270.3 138.743 270.536 138.911 270.728C139.079 270.912 139.275 271.052 139.499 271.148C139.723 271.236 139.963 271.28 140.219 271.28ZM145.87 268.988L143.89 266.072H145.042L146.446 268.292H146.494L147.946 266.072H148.978L146.998 268.94L149.074 272H147.922L146.422 269.636H146.374L144.826 272H143.794L145.87 268.988Z" fill="black" fill-opacity="0.55"/>
<rect opacity="0.5" x="124" y="280" width="24" height="107" fill="#C1DADE"/>
<path d="M169.1 272.144C168.636 272.144 168.232 272.084 167.888 271.964C167.552 271.844 167.272 271.684 167.048 271.484C166.824 271.276 166.656 271.04 166.544 270.776C166.432 270.504 166.376 270.216 166.376 269.912C166.376 269.688 166.412 269.472 166.484 269.264C166.556 269.056 166.66 268.868 166.796 268.7C166.932 268.524 167.092 268.376 167.276 268.256C167.468 268.136 167.684 268.056 167.924 268.016V267.944C167.724 267.88 167.544 267.784 167.384 267.656C167.232 267.528 167.1 267.384 166.988 267.224C166.884 267.064 166.804 266.896 166.748 266.72C166.692 266.544 166.664 266.372 166.664 266.204C166.664 265.924 166.712 265.656 166.808 265.4C166.912 265.136 167.064 264.908 167.264 264.716C167.464 264.516 167.716 264.356 168.02 264.236C168.324 264.116 168.684 264.056 169.1 264.056C169.508 264.056 169.864 264.116 170.168 264.236C170.472 264.356 170.724 264.516 170.924 264.716C171.124 264.908 171.272 265.136 171.368 265.4C171.472 265.656 171.524 265.924 171.524 266.204C171.524 266.372 171.496 266.544 171.44 266.72C171.384 266.896 171.3 267.064 171.188 267.224C171.084 267.384 170.952 267.528 170.792 267.656C170.64 267.784 170.464 267.88 170.264 267.944V268.016C170.504 268.056 170.716 268.136 170.9 268.256C171.092 268.376 171.256 268.524 171.392 268.7C171.528 268.868 171.632 269.056 171.704 269.264C171.776 269.472 171.812 269.688 171.812 269.912C171.812 270.216 171.756 270.504 171.644 270.776C171.532 271.04 171.364 271.276 171.14 271.484C170.916 271.684 170.632 271.844 170.288 271.964C169.952 272.084 169.556 272.144 169.1 272.144ZM169.1 267.608C169.276 267.608 169.448 267.584 169.616 267.536C169.784 267.48 169.932 267.4 170.06 267.296C170.188 267.184 170.288 267.048 170.36 266.888C170.44 266.72 170.48 266.52 170.48 266.288C170.48 266.048 170.44 265.844 170.36 265.676C170.288 265.508 170.188 265.372 170.06 265.268C169.932 265.156 169.784 265.076 169.616 265.028C169.448 264.972 169.276 264.944 169.1 264.944C168.916 264.944 168.74 264.972 168.572 265.028C168.404 265.076 168.256 265.156 168.128 265.268C168 265.372 167.896 265.508 167.816 265.676C167.744 265.844 167.708 266.048 167.708 266.288C167.708 266.52 167.744 266.72 167.816 266.888C167.896 267.048 168 267.184 168.128 267.296C168.256 267.4 168.404 267.48 168.572 267.536C168.74 267.584 168.916 267.608 169.1 267.608ZM169.1 271.256C169.58 271.256 169.976 271.136 170.288 270.896C170.608 270.648 170.768 270.292 170.768 269.828C170.768 269.356 170.608 269.004 170.288 268.772C169.976 268.54 169.58 268.424 169.1 268.424C168.62 268.424 168.22 268.54 167.9 268.772C167.58 269.004 167.42 269.356 167.42 269.828C167.42 270.292 167.58 270.648 167.9 270.896C168.22 271.136 168.62 271.256 169.1 271.256ZM173.715 266.072H174.627V267.284H174.699C174.771 267.084 174.871 266.9 174.999 266.732C175.135 266.564 175.291 266.42 175.467 266.3C175.651 266.18 175.851 266.088 176.067 266.024C176.291 265.96 176.523 265.928 176.763 265.928C177.155 265.928 177.511 266.008 177.831 266.168C178.159 266.32 178.439 266.536 178.671 266.816C178.903 267.088 179.079 267.416 179.199 267.8C179.327 268.184 179.391 268.6 179.391 269.048C179.391 269.496 179.327 269.912 179.199 270.296C179.079 270.672 178.903 271 178.671 271.28C178.439 271.552 178.159 271.764 177.831 271.916C177.511 272.068 177.155 272.144 176.763 272.144C176.275 272.144 175.855 272.028 175.503 271.796C175.151 271.564 174.899 271.268 174.747 270.908H174.675V274.22H173.715V266.072ZM176.523 271.28C176.787 271.28 177.031 271.236 177.255 271.148C177.487 271.052 177.687 270.912 177.855 270.728C178.031 270.536 178.167 270.3 178.263 270.02C178.359 269.74 178.407 269.412 178.407 269.036C178.407 268.66 178.359 268.332 178.263 268.052C178.167 267.772 178.031 267.54 177.855 267.356C177.687 267.164 177.487 267.024 177.255 266.936C177.031 266.84 176.787 266.792 176.523 266.792C176.267 266.792 176.027 266.84 175.803 266.936C175.579 267.024 175.383 267.164 175.215 267.356C175.047 267.54 174.915 267.772 174.819 268.052C174.723 268.332 174.675 268.66 174.675 269.036C174.675 269.412 174.723 269.74 174.819 270.02C174.915 270.3 175.047 270.536 175.215 270.728C175.383 270.912 175.579 271.052 175.803 271.148C176.027 271.236 176.267 271.28 176.523 271.28ZM182.175 268.988L180.195 266.072H181.347L182.751 268.292H182.799L184.251 266.072H185.283L183.303 268.94L185.379 272H184.227L182.727 269.636H182.679L181.131 272H180.099L182.175 268.988Z" fill="black" fill-opacity="0.55"/>
<rect opacity="0.5" x="172" y="280" width="8" height="107" fill="#C1DADE"/>
<path d="M276.176 270.704C276.176 270.384 276.232 270.104 276.344 269.864C276.456 269.616 276.608 269.392 276.8 269.192C277 268.984 277.232 268.792 277.496 268.616C277.768 268.44 278.06 268.26 278.372 268.076C278.62 267.924 278.84 267.784 279.032 267.656C279.224 267.52 279.384 267.38 279.512 267.236C279.64 267.092 279.736 266.94 279.8 266.78C279.864 266.62 279.896 266.436 279.896 266.228C279.896 265.804 279.76 265.484 279.488 265.268C279.224 265.044 278.884 264.932 278.468 264.932C278.052 264.932 277.692 265.016 277.388 265.184C277.084 265.344 276.828 265.56 276.62 265.832L276.068 265.256C276.308 264.896 276.624 264.608 277.016 264.392C277.408 264.168 277.88 264.056 278.432 264.056C278.84 264.056 279.2 264.112 279.512 264.224C279.824 264.328 280.084 264.476 280.292 264.668C280.508 264.852 280.668 265.076 280.772 265.34C280.884 265.596 280.94 265.876 280.94 266.18C280.94 266.524 280.88 266.828 280.76 267.092C280.64 267.356 280.48 267.596 280.28 267.812C280.08 268.028 279.848 268.224 279.584 268.4C279.328 268.568 279.056 268.732 278.768 268.892C278.512 269.036 278.284 269.172 278.084 269.3C277.884 269.428 277.716 269.564 277.58 269.708C277.452 269.852 277.352 270.012 277.28 270.188C277.216 270.364 277.184 270.572 277.184 270.812V271.136H281.132V272H276.176V270.704ZM286.515 270.392H282.879V269.588L286.323 264.2H287.463L284.007 269.528H286.515V267.176H287.499V269.528H288.579V270.392H287.499V272H286.515V270.392ZM290.411 266.072H291.323V267.284H291.395C291.467 267.084 291.567 266.9 291.695 266.732C291.831 266.564 291.987 266.42 292.163 266.3C292.347 266.18 292.547 266.088 292.763 266.024C292.987 265.96 293.219 265.928 293.459 265.928C293.851 265.928 294.207 266.008 294.527 266.168C294.855 266.32 295.135 266.536 295.367 266.816C295.599 267.088 295.775 267.416 295.895 267.8C296.023 268.184 296.087 268.6 296.087 269.048C296.087 269.496 296.023 269.912 295.895 270.296C295.775 270.672 295.599 271 295.367 271.28C295.135 271.552 294.855 271.764 294.527 271.916C294.207 272.068 293.851 272.144 293.459 272.144C292.971 272.144 292.551 272.028 292.199 271.796C291.847 271.564 291.595 271.268 291.443 270.908H291.371V274.22H290.411V266.072ZM293.219 271.28C293.483 271.28 293.727 271.236 293.951 271.148C294.183 271.052 294.383 270.912 294.551 270.728C294.727 270.536 294.863 270.3 294.959 270.02C295.055 269.74 295.103 269.412 295.103 269.036C295.103 268.66 295.055 268.332 294.959 268.052C294.863 267.772 294.727 267.54 294.551 267.356C294.383 267.164 294.183 267.024 293.951 266.936C293.727 266.84 293.483 266.792 293.219 266.792C292.963 266.792 292.723 266.84 292.499 266.936C292.275 267.024 292.079 267.164 291.911 267.356C291.743 267.54 291.611 267.772 291.515 268.052C291.419 268.332 291.371 268.66 291.371 269.036C291.371 269.412 291.419 269.74 291.515 270.02C291.611 270.3 291.743 270.536 291.911 270.728C292.079 270.912 292.275 271.052 292.499 271.148C292.723 271.236 292.963 271.28 293.219 271.28ZM298.87 268.988L296.89 266.072H298.042L299.446 268.292H299.494L300.946 266.072H301.978L299.998 268.94L302.074 272H300.922L299.422 269.636H299.374L297.826 272H296.794L298.87 268.988Z" fill="black" fill-opacity="0.55"/>
<rect opacity="0.5" x="277" y="280" width="24" height="107" fill="#C1DADE"/>
<path d="M77.14 305.66H79.372V299.78L77.236 300.764L76.924 300.092L79.552 298.7H80.392V305.66H82.396V306.5H77.14V305.66ZM87.5153 304.892H83.8793V304.088L87.3233 298.7H88.4633L85.0073 304.028H87.5153V301.676H88.4993V304.028H89.5793V304.892H88.4993V306.5H87.5153V304.892ZM91.4106 300.572H92.3226V301.784H92.3946C92.4666 301.584 92.5666 301.4 92.6946 301.232C92.8306 301.064 92.9866 300.92 93.1626 300.8C93.3466 300.68 93.5466 300.588 93.7626 300.524C93.9866 300.46 94.2186 300.428 94.4586 300.428C94.8506 300.428 95.2066 300.508 95.5266 300.668C95.8546 300.82 96.1346 301.036 96.3666 301.316C96.5986 301.588 96.7746 301.916 96.8946 302.3C97.0226 302.684 97.0866 303.1 97.0866 303.548C97.0866 303.996 97.0226 304.412 96.8946 304.796C96.7746 305.172 96.5986 305.5 96.3666 305.78C96.1346 306.052 95.8546 306.264 95.5266 306.416C95.2066 306.568 94.8506 306.644 94.4586 306.644C93.9706 306.644 93.5506 306.528 93.1986 306.296C92.8466 306.064 92.5946 305.768 92.4426 305.408H92.3706V308.72H91.4106V300.572ZM94.2186 305.78C94.4826 305.78 94.7266 305.736 94.9506 305.648C95.1826 305.552 95.3826 305.412 95.5506 305.228C95.7266 305.036 95.8626 304.8 95.9586 304.52C96.0546 304.24 96.1026 303.912 96.1026 303.536C96.1026 303.16 96.0546 302.832 95.9586 302.552C95.8626 302.272 95.7266 302.04 95.5506 301.856C95.3826 301.664 95.1826 301.524 94.9506 301.436C94.7266 301.34 94.4826 301.292 94.2186 301.292C93.9626 301.292 93.7226 301.34 93.4986 301.436C93.2746 301.524 93.0786 301.664 92.9106 301.856C92.7426 302.04 92.6106 302.272 92.5146 302.552C92.4186 302.832 92.3706 303.16 92.3706 303.536C92.3706 303.912 92.4186 304.24 92.5146 304.52C92.6106 304.8 92.7426 305.036 92.9106 305.228C93.0786 305.412 93.2746 305.552 93.4986 305.648C93.7226 305.736 93.9626 305.78 94.2186 305.78ZM99.8704 303.488L97.8904 300.572H99.0424L100.446 302.792H100.494L101.946 300.572H102.978L100.998 303.44L103.074 306.5H101.922L100.422 304.136H100.374L98.8264 306.5H97.7944L99.8704 303.488Z" fill="black" fill-opacity="0.55"/>
<rect opacity="0.5" x="108" y="295.5" width="206" height="14" fill="#F2A6B0"/>
<path d="M77.14 375.66H79.372V369.78L77.236 370.764L76.924 370.092L79.552 368.7H80.392V375.66H82.396V376.5H77.14V375.66ZM87.5153 374.892H83.8793V374.088L87.3233 368.7H88.4633L85.0073 374.028H87.5153V371.676H88.4993V374.028H89.5793V374.892H88.4993V376.5H87.5153V374.892ZM91.4106 370.572H92.3226V371.784H92.3946C92.4666 371.584 92.5666 371.4 92.6946 371.232C92.8306 371.064 92.9866 370.92 93.1626 370.8C93.3466 370.68 93.5466 370.588 93.7626 370.524C93.9866 370.46 94.2186 370.428 94.4586 370.428C94.8506 370.428 95.2066 370.508 95.5266 370.668C95.8546 370.82 96.1346 371.036 96.3666 371.316C96.5986 371.588 96.7746 371.916 96.8946 372.3C97.0226 372.684 97.0866 373.1 97.0866 373.548C97.0866 373.996 97.0226 374.412 96.8946 374.796C96.7746 375.172 96.5986 375.5 96.3666 375.78C96.1346 376.052 95.8546 376.264 95.5266 376.416C95.2066 376.568 94.8506 376.644 94.4586 376.644C93.9706 376.644 93.5506 376.528 93.1986 376.296C92.8466 376.064 92.5946 375.768 92.4426 375.408H92.3706V378.72H91.4106V370.572ZM94.2186 375.78C94.4826 375.78 94.7266 375.736 94.9506 375.648C95.1826 375.552 95.3826 375.412 95.5506 375.228C95.7266 375.036 95.8626 374.8 95.9586 374.52C96.0546 374.24 96.1026 373.912 96.1026 373.536C96.1026 373.16 96.0546 372.832 95.9586 372.552C95.8626 372.272 95.7266 372.04 95.5506 371.856C95.3826 371.664 95.1826 371.524 94.9506 371.436C94.7266 371.34 94.4826 371.292 94.2186 371.292C93.9626 371.292 93.7226 371.34 93.4986 371.436C93.2746 371.524 93.0786 371.664 92.9106 371.856C92.7426 372.04 92.6106 372.272 92.5146 372.552C92.4186 372.832 92.3706 373.16 92.3706 373.536C92.3706 373.912 92.4186 374.24 92.5146 374.52C92.6106 374.8 92.7426 375.036 92.9106 375.228C93.0786 375.412 93.2746 375.552 93.4986 375.648C93.7226 375.736 93.9626 375.78 94.2186 375.78ZM99.8704 373.488L97.8904 370.572H99.0424L100.446 372.792H100.494L101.946 370.572H102.978L100.998 373.44L103.074 376.5H101.922L100.422 374.136H100.374L98.8264 376.5H97.7944L99.8704 373.488Z" fill="black" fill-opacity="0.55"/>
<rect opacity="0.5" x="108" y="365.5" width="206" height="14" fill="#F2A6B0"/>
<circle cx="16" cy="337.5" r="16" fill="#2B2A28"/>
<path d="M9.0998 340.697C9.0998 340.277 9.16047 339.908 9.2818 339.591C9.41247 339.274 9.5898 338.989 9.8138 338.737C10.0378 338.485 10.3038 338.256 10.6118 338.051C10.9198 337.846 11.2558 337.645 11.6198 337.449C11.9838 337.253 12.2871 337.085 12.5298 336.945C12.7818 336.796 12.9778 336.651 13.1178 336.511C13.2671 336.371 13.3698 336.231 13.4258 336.091C13.4911 335.942 13.5238 335.769 13.5238 335.573C13.5238 335.19 13.3838 334.91 13.1038 334.733C12.8238 334.556 12.4878 334.467 12.0958 334.467C11.6758 334.467 11.2885 334.546 10.9338 334.705C10.5885 334.854 10.2898 335.064 10.0378 335.335L9.0998 334.229C9.44514 333.837 9.8838 333.52 10.4158 333.277C10.9478 333.025 11.5591 332.899 12.2498 332.899C12.7165 332.899 13.1411 332.955 13.5238 333.067C13.9158 333.179 14.2471 333.347 14.5178 333.571C14.7978 333.786 15.0125 334.052 15.1618 334.369C15.3205 334.686 15.3998 335.05 15.3998 335.461C15.3998 335.862 15.3391 336.217 15.2178 336.525C15.0965 336.824 14.9191 337.104 14.6858 337.365C14.4525 337.617 14.1631 337.855 13.8178 338.079C13.4818 338.303 13.0945 338.532 12.6558 338.765C12.3571 338.933 12.1005 339.078 11.8858 339.199C11.6805 339.32 11.5078 339.442 11.3678 339.563C11.2371 339.684 11.1391 339.806 11.0738 339.927C11.0178 340.048 10.9898 340.193 10.9898 340.361V340.655H15.6378V342.167H9.0998V340.697ZM19.2681 338.695L16.9721 335.251H19.1141L20.3461 337.351H20.4161L21.7181 335.251H23.5941L21.2981 338.513L23.7481 342.167H21.5921L20.2341 339.871H20.1641L18.7081 342.167H16.8321L19.2681 338.695Z" fill="white" fill-opacity="0.9"/>
<rect x="32" y="337" width="48" height="1" rx="0.5" fill="#FF8000"/>
<defs>
<clipPath id="clip0_2261_4991">
<path d="M124 64C124 48.536 136.536 36 152 36H226C241.464 36 254 48.536 254 64C254 79.464 241.464 92 226 92H152C136.536 92 124 79.464 124 64Z" fill="white"/>
</clipPath>
<clipPath id="clip1_2261_4991">
<rect width="24" height="24" fill="white" transform="translate(148 52)"/>
</clipPath>
<clipPath id="clip2_2261_4991">
<path d="M124 198.5C124 180.551 138.551 166 156.5 166H234.5C252.449 166 267 180.551 267 198.5C267 216.449 252.449 231 234.5 231H156.5C138.551 231 124 216.449 124 198.5Z" fill="white"/>
</clipPath>
<clipPath id="clip3_2261_4991">
<rect width="24" height="24" fill="white" transform="translate(148 186.5)"/>
</clipPath>
<clipPath id="clip4_2261_4991">
<path d="M124 337C124 313.804 142.804 295 166 295H259C282.196 295 301 313.804 301 337C301 360.196 282.196 379 259 379H166C142.804 379 124 360.196 124 337Z" fill="white"/>
</clipPath>
<clipPath id="clip5_2261_4991">
<rect width="24" height="24" fill="white" transform="translate(148 325)"/>
</clipPath>
</defs>
</svg>
