<svg width="380" height="292" viewBox="0 0 380 292" fill="none" xmlns="http://www.w3.org/2000/svg">
<rect width="380" height="292" fill="white"/>
<g clip-path="url(#clip0_2261_4942)">
<path d="M39.876 18L40 18.124V41.876L39.876 42H16.124L16 41.876V18.124L16.124 18H39.876ZM16.248 18.248V41.751H39.751V18.248H16.248ZM35.0977 19.5C36.9766 19.5002 38.4998 21.0234 38.5 22.9023V37.0977C38.4998 38.9766 36.9766 40.4998 35.0977 40.5H20.9023C19.0234 40.4998 17.5002 38.9766 17.5 37.0977V22.9023C17.5002 21.0234 19.0234 19.5002 20.9023 19.5H35.0977Z" fill="black" fill-opacity="0.76"/>
</g>
<path d="M66.24 32H74.4L84.24 58H77.08L75.48 53.72H64.88L63.28 58H56.4L66.24 32ZM66.76 48.52H73.6L70.28 38.52H70.04L66.76 48.52ZM95.0459 58.48C93.3126 58.48 91.8193 58.2 90.5659 57.64C89.3393 57.0533 88.3126 56.2933 87.4859 55.36C86.6859 54.4 86.0859 53.2933 85.6859 52.04C85.3126 50.7867 85.1259 49.48 85.1259 48.12C85.1259 46.76 85.3126 45.4533 85.6859 44.2C86.0593 42.9467 86.6459 41.8533 87.4459 40.92C88.2459 39.96 89.2593 39.2 90.4859 38.64C91.7126 38.0533 93.1793 37.76 94.8859 37.76C96.4859 37.76 97.8993 38.0667 99.1259 38.68C100.353 39.2933 101.339 40.04 102.086 40.92L97.8059 44.8C97.4593 44.3467 97.0593 44 96.6059 43.76C96.1526 43.4933 95.6059 43.36 94.9659 43.36C93.8459 43.36 93.0059 43.7733 92.4459 44.6C91.8859 45.4267 91.6059 46.6 91.6059 48.12C91.6059 49.64 91.8993 50.8133 92.4859 51.64C93.0726 52.4667 93.9259 52.88 95.0459 52.88C95.6593 52.88 96.2193 52.7467 96.7259 52.48C97.2593 52.2133 97.6726 51.8533 97.9659 51.4L102.246 55.28C101.526 56.16 100.539 56.92 99.2859 57.56C98.0593 58.1733 96.6459 58.48 95.0459 58.48ZM113.054 58.48C111.32 58.48 109.827 58.2 108.574 57.64C107.347 57.0533 106.32 56.2933 105.494 55.36C104.694 54.4 104.094 53.2933 103.694 52.04C103.32 50.7867 103.134 49.48 103.134 48.12C103.134 46.76 103.32 45.4533 103.694 44.2C104.067 42.9467 104.654 41.8533 105.454 40.92C106.254 39.96 107.267 39.2 108.494 38.64C109.72 38.0533 111.187 37.76 112.894 37.76C114.494 37.76 115.907 38.0667 117.134 38.68C118.36 39.2933 119.347 40.04 120.094 40.92L115.814 44.8C115.467 44.3467 115.067 44 114.614 43.76C114.16 43.4933 113.614 43.36 112.974 43.36C111.854 43.36 111.014 43.7733 110.454 44.6C109.894 45.4267 109.614 46.6 109.614 48.12C109.614 49.64 109.907 50.8133 110.494 51.64C111.08 52.4667 111.934 52.88 113.054 52.88C113.667 52.88 114.227 52.7467 114.734 52.48C115.267 52.2133 115.68 51.8533 115.974 51.4L120.254 55.28C119.534 56.16 118.547 56.92 117.294 57.56C116.067 58.1733 114.654 58.48 113.054 58.48ZM131.342 58.48C129.528 58.48 127.968 58.1867 126.662 57.6C125.382 57.0133 124.328 56.24 123.502 55.28C122.675 54.32 122.062 53.2267 121.662 52C121.262 50.7467 121.062 49.4533 121.062 48.12C121.062 46.8133 121.235 45.5333 121.582 44.28C121.955 43.0267 122.528 41.92 123.302 40.96C124.102 40 125.128 39.2267 126.382 38.64C127.635 38.0533 129.168 37.76 130.982 37.76C132.795 37.76 134.328 38.0533 135.582 38.64C136.835 39.2 137.835 39.96 138.582 40.92C139.355 41.8533 139.902 42.9333 140.222 44.16C140.568 45.3867 140.742 46.6533 140.742 47.96C140.742 48.2533 140.715 48.64 140.662 49.12C140.608 49.5733 140.542 49.92 140.462 50.16H127.502C127.608 50.7467 127.808 51.24 128.102 51.64C128.422 52.04 128.782 52.36 129.182 52.6C129.582 52.84 129.995 53.0133 130.422 53.12C130.875 53.2267 131.302 53.28 131.702 53.28C132.635 53.28 133.435 53.1333 134.102 52.84C134.795 52.5467 135.328 52.16 135.702 51.68L139.182 55.32C138.542 56.2533 137.528 57.0133 136.142 57.6C134.755 58.1867 133.155 58.48 131.342 58.48ZM130.982 42.48C130.128 42.48 129.368 42.7467 128.702 43.28C128.035 43.7867 127.595 44.68 127.382 45.96H134.502C134.315 44.68 133.888 43.7867 133.222 43.28C132.555 42.7467 131.808 42.48 130.982 42.48ZM153.223 52.04C153.223 51.48 152.836 51.0933 152.063 50.88C151.29 50.64 150.223 50.3733 148.863 50.08C148.09 49.92 147.356 49.6933 146.663 49.4C145.97 49.08 145.356 48.6933 144.823 48.24C144.29 47.76 143.863 47.1867 143.543 46.52C143.223 45.8533 143.063 45.0533 143.063 44.12C143.063 43.1067 143.276 42.2133 143.703 41.44C144.13 40.64 144.716 39.9733 145.463 39.44C146.236 38.88 147.143 38.4667 148.183 38.2C149.223 37.9067 150.37 37.76 151.623 37.76C153.596 37.76 155.25 38.04 156.583 38.6C157.916 39.16 158.903 39.8267 159.543 40.6L156.223 44.2C155.743 43.6933 155.116 43.28 154.343 42.96C153.57 42.64 152.81 42.48 152.063 42.48C151.37 42.48 150.77 42.6 150.263 42.84C149.756 43.0533 149.503 43.44 149.503 44C149.503 44.56 149.89 44.96 150.663 45.2C151.436 45.4133 152.503 45.6667 153.863 45.96C154.636 46.12 155.37 46.36 156.063 46.68C156.756 46.9733 157.37 47.36 157.903 47.84C158.436 48.2933 158.863 48.8667 159.183 49.56C159.503 50.2267 159.663 51.0133 159.663 51.92C159.663 52.96 159.45 53.8933 159.023 54.72C158.596 55.52 157.996 56.2 157.223 56.76C156.45 57.32 155.516 57.7467 154.423 58.04C153.356 58.3333 152.183 58.48 150.903 58.48C148.796 58.48 147.023 58.2133 145.583 57.68C144.143 57.12 143.076 56.4267 142.383 55.6L145.543 52C146.156 52.6133 146.916 53.0667 147.823 53.36C148.73 53.6267 149.636 53.76 150.543 53.76C151.396 53.76 152.05 53.6133 152.503 53.32C152.983 53.0267 153.223 52.6 153.223 52.04ZM172.286 52.04C172.286 51.48 171.899 51.0933 171.126 50.88C170.352 50.64 169.286 50.3733 167.926 50.08C167.152 49.92 166.419 49.6933 165.726 49.4C165.032 49.08 164.419 48.6933 163.886 48.24C163.352 47.76 162.926 47.1867 162.606 46.52C162.286 45.8533 162.126 45.0533 162.126 44.12C162.126 43.1067 162.339 42.2133 162.766 41.44C163.192 40.64 163.779 39.9733 164.526 39.44C165.299 38.88 166.206 38.4667 167.246 38.2C168.286 37.9067 169.432 37.76 170.686 37.76C172.659 37.76 174.312 38.04 175.646 38.6C176.979 39.16 177.966 39.8267 178.606 40.6L175.286 44.2C174.806 43.6933 174.179 43.28 173.406 42.96C172.632 42.64 171.872 42.48 171.126 42.48C170.432 42.48 169.832 42.6 169.326 42.84C168.819 43.0533 168.566 43.44 168.566 44C168.566 44.56 168.952 44.96 169.726 45.2C170.499 45.4133 171.566 45.6667 172.926 45.96C173.699 46.12 174.432 46.36 175.126 46.68C175.819 46.9733 176.432 47.36 176.966 47.84C177.499 48.2933 177.926 48.8667 178.246 49.56C178.566 50.2267 178.726 51.0133 178.726 51.92C178.726 52.96 178.512 53.8933 178.086 54.72C177.659 55.52 177.059 56.2 176.286 56.76C175.512 57.32 174.579 57.7467 173.486 58.04C172.419 58.3333 171.246 58.48 169.966 58.48C167.859 58.48 166.086 58.2133 164.646 57.68C163.206 57.12 162.139 56.4267 161.446 55.6L164.606 52C165.219 52.6133 165.979 53.0667 166.886 53.36C167.792 53.6267 168.699 53.76 169.606 53.76C170.459 53.76 171.112 53.6133 171.566 53.32C172.046 53.0267 172.286 52.6 172.286 52.04ZM188.748 32.56C188.748 33.4667 188.441 34.28 187.828 35C187.215 35.6933 186.321 36.04 185.148 36.04C183.948 36.04 183.055 35.6933 182.468 35C181.881 34.28 181.588 33.4667 181.588 32.56C181.588 31.6533 181.881 30.8533 182.468 30.16C183.055 29.44 183.948 29.08 185.148 29.08C186.321 29.08 187.215 29.44 187.828 30.16C188.441 30.8533 188.748 31.6533 188.748 32.56ZM181.948 38.24H188.308V58H181.948V38.24ZM204.934 58.48C203.441 58.48 202.174 58.1333 201.134 57.44C200.094 56.7467 199.321 55.76 198.814 54.48H198.574V58H192.534V29H198.894V41.48H199.134C199.561 40.36 200.254 39.4667 201.214 38.8C202.201 38.1067 203.441 37.76 204.934 37.76C206.107 37.76 207.201 38.0133 208.214 38.52C209.254 39.0267 210.147 39.7467 210.894 40.68C211.667 41.6133 212.267 42.7333 212.694 44.04C213.121 45.32 213.334 46.7467 213.334 48.32C213.334 49.84 213.121 51.2267 212.694 52.48C212.267 53.7333 211.667 54.8 210.894 55.68C210.147 56.56 209.254 57.2533 208.214 57.76C207.201 58.24 206.107 58.48 204.934 58.48ZM202.854 53C204.134 53 205.107 52.5333 205.774 51.6C206.467 50.64 206.814 49.48 206.814 48.12C206.814 46.76 206.467 45.6133 205.774 44.68C205.107 43.72 204.134 43.24 202.854 43.24C201.547 43.24 200.561 43.72 199.894 44.68C199.227 45.6133 198.894 46.76 198.894 48.12C198.894 49.48 199.227 50.64 199.894 51.6C200.561 52.5333 201.547 53 202.854 53ZM216.479 29H222.839V58H216.479V29ZM236.185 58.48C234.372 58.48 232.812 58.1867 231.505 57.6C230.225 57.0133 229.172 56.24 228.345 55.28C227.519 54.32 226.905 53.2267 226.505 52C226.105 50.7467 225.905 49.4533 225.905 48.12C225.905 46.8133 226.079 45.5333 226.425 44.28C226.799 43.0267 227.372 41.92 228.145 40.96C228.945 40 229.972 39.2267 231.225 38.64C232.479 38.0533 234.012 37.76 235.825 37.76C237.639 37.76 239.172 38.0533 240.425 38.64C241.679 39.2 242.679 39.96 243.425 40.92C244.199 41.8533 244.745 42.9333 245.065 44.16C245.412 45.3867 245.585 46.6533 245.585 47.96C245.585 48.2533 245.559 48.64 245.505 49.12C245.452 49.5733 245.385 49.92 245.305 50.16H232.345C232.452 50.7467 232.652 51.24 232.945 51.64C233.265 52.04 233.625 52.36 234.025 52.6C234.425 52.84 234.839 53.0133 235.265 53.12C235.719 53.2267 236.145 53.28 236.545 53.28C237.479 53.28 238.279 53.1333 238.945 52.84C239.639 52.5467 240.172 52.16 240.545 51.68L244.025 55.32C243.385 56.2533 242.372 57.0133 240.985 57.6C239.599 58.1867 237.999 58.48 236.185 58.48ZM235.825 42.48C234.972 42.48 234.212 42.7467 233.545 43.28C232.879 43.7867 232.439 44.68 232.225 45.96H239.345C239.159 44.68 238.732 43.7867 238.065 43.28C237.399 42.7467 236.652 42.48 235.825 42.48ZM66.8 114.44C64.2933 114.44 62.48 113.813 61.36 112.56C60.2667 111.307 59.72 109.307 59.72 106.56V99.32H56.88V94.24H59.72V88.88H66V94.24H71.84V99.32H66V106.68C66 107.56 66.1467 108.2 66.44 108.6C66.76 109 67.28 109.2 68 109.2C68.48 109.2 68.9333 109.107 69.36 108.92C69.8133 108.707 70.1867 108.453 70.48 108.16L72.52 112.48C71.2133 113.787 69.3067 114.44 66.8 114.44ZM84.3494 114.48C82.536 114.48 80.976 114.187 79.6694 113.6C78.3894 113.013 77.336 112.24 76.5094 111.28C75.6827 110.32 75.0694 109.227 74.6694 108C74.2694 106.747 74.0694 105.453 74.0694 104.12C74.0694 102.813 74.2427 101.533 74.5894 100.28C74.9627 99.0267 75.536 97.92 76.3094 96.96C77.1094 96 78.136 95.2267 79.3894 94.64C80.6427 94.0533 82.176 93.76 83.9894 93.76C85.8027 93.76 87.336 94.0533 88.5894 94.64C89.8427 95.2 90.8427 95.96 91.5894 96.92C92.3627 97.8533 92.9094 98.9333 93.2294 100.16C93.576 101.387 93.7494 102.653 93.7494 103.96C93.7494 104.253 93.7227 104.64 93.6694 105.12C93.616 105.573 93.5494 105.92 93.4694 106.16H80.5094C80.616 106.747 80.816 107.24 81.1094 107.64C81.4294 108.04 81.7894 108.36 82.1894 108.6C82.5894 108.84 83.0027 109.013 83.4294 109.12C83.8827 109.227 84.3094 109.28 84.7094 109.28C85.6427 109.28 86.4427 109.133 87.1094 108.84C87.8027 108.547 88.336 108.16 88.7094 107.68L92.1894 111.32C91.5494 112.253 90.536 113.013 89.1494 113.6C87.7627 114.187 86.1627 114.48 84.3494 114.48ZM83.9894 98.48C83.136 98.48 82.376 98.7467 81.7094 99.28C81.0427 99.7867 80.6027 100.68 80.3894 101.96H87.5094C87.3227 100.68 86.896 99.7867 86.2294 99.28C85.5627 98.7467 84.816 98.48 83.9894 98.48ZM101.01 104.16L94.4897 94.24H102.21L104.93 99.24H105.17L108.09 94.24H114.81L108.29 103.4L115.29 114H107.53L104.41 108.36H104.17L100.73 114H94.0097L101.01 104.16ZM126.019 114.44C123.512 114.44 121.699 113.813 120.579 112.56C119.485 111.307 118.939 109.307 118.939 106.56V99.32H116.099V94.24H118.939V88.88H125.219V94.24H131.059V99.32H125.219V106.68C125.219 107.56 125.365 108.2 125.659 108.6C125.979 109 126.499 109.2 127.219 109.2C127.699 109.2 128.152 109.107 128.579 108.92C129.032 108.707 129.405 108.453 129.699 108.16L131.739 112.48C130.432 113.787 128.525 114.44 126.019 114.44ZM153.458 108.04C153.458 107.48 153.071 107.093 152.298 106.88C151.524 106.64 150.458 106.373 149.098 106.08C148.324 105.92 147.591 105.693 146.898 105.4C146.204 105.08 145.591 104.693 145.058 104.24C144.524 103.76 144.098 103.187 143.778 102.52C143.458 101.853 143.298 101.053 143.298 100.12C143.298 99.1067 143.511 98.2133 143.938 97.44C144.364 96.64 144.951 95.9733 145.698 95.44C146.471 94.88 147.378 94.4667 148.418 94.2C149.458 93.9067 150.604 93.76 151.858 93.76C153.831 93.76 155.484 94.04 156.818 94.6C158.151 95.16 159.138 95.8267 159.778 96.6L156.458 100.2C155.978 99.6933 155.351 99.28 154.578 98.96C153.804 98.64 153.044 98.48 152.298 98.48C151.604 98.48 151.004 98.6 150.498 98.84C149.991 99.0533 149.738 99.44 149.738 100C149.738 100.56 150.124 100.96 150.898 101.2C151.671 101.413 152.738 101.667 154.098 101.96C154.871 102.12 155.604 102.36 156.298 102.68C156.991 102.973 157.604 103.36 158.138 103.84C158.671 104.293 159.098 104.867 159.418 105.56C159.738 106.227 159.898 107.013 159.898 107.92C159.898 108.96 159.684 109.893 159.258 110.72C158.831 111.52 158.231 112.2 157.458 112.76C156.684 113.32 155.751 113.747 154.658 114.04C153.591 114.333 152.418 114.48 151.138 114.48C149.031 114.48 147.258 114.213 145.818 113.68C144.378 113.12 143.311 112.427 142.618 111.6L145.778 108C146.391 108.613 147.151 109.067 148.058 109.36C148.964 109.627 149.871 109.76 150.778 109.76C151.631 109.76 152.284 109.613 152.738 109.32C153.218 109.027 153.458 108.6 153.458 108.04ZM171.96 114.48C170.227 114.48 168.733 114.2 167.48 113.64C166.253 113.053 165.227 112.293 164.4 111.36C163.6 110.4 163 109.293 162.6 108.04C162.227 106.787 162.04 105.48 162.04 104.12C162.04 102.76 162.227 101.453 162.6 100.2C162.973 98.9467 163.56 97.8533 164.36 96.92C165.16 95.96 166.173 95.2 167.4 94.64C168.627 94.0533 170.093 93.76 171.8 93.76C173.4 93.76 174.813 94.0667 176.04 94.68C177.267 95.2933 178.253 96.04 179 96.92L174.72 100.8C174.373 100.347 173.973 100 173.52 99.76C173.067 99.4933 172.52 99.36 171.88 99.36C170.76 99.36 169.92 99.7733 169.36 100.6C168.8 101.427 168.52 102.6 168.52 104.12C168.52 105.64 168.813 106.813 169.4 107.64C169.987 108.467 170.84 108.88 171.96 108.88C172.573 108.88 173.133 108.747 173.64 108.48C174.173 108.213 174.587 107.853 174.88 107.4L179.16 111.28C178.44 112.16 177.453 112.92 176.2 113.56C174.973 114.173 173.56 114.48 171.96 114.48ZM187.151 114.48C186.271 114.48 185.418 114.347 184.591 114.08C183.791 113.813 183.084 113.427 182.471 112.92C181.884 112.387 181.404 111.747 181.031 111C180.684 110.253 180.511 109.4 180.511 108.44C180.511 106.627 181.151 105.2 182.431 104.16C183.738 103.12 185.778 102.52 188.551 102.36L192.751 102.12V101.8C192.751 101.24 192.631 100.787 192.391 100.44C192.178 100.093 191.884 99.8267 191.511 99.64C191.164 99.4267 190.751 99.28 190.271 99.2C189.818 99.12 189.351 99.08 188.871 99.08C188.124 99.08 187.364 99.2133 186.591 99.48C185.818 99.7467 185.244 100.12 184.871 100.6L181.391 97C182.111 96.0933 183.164 95.3333 184.551 94.72C185.938 94.08 187.751 93.76 189.991 93.76C192.844 93.76 195.071 94.4133 196.671 95.72C198.298 97.0267 199.111 98.9067 199.111 101.36V114H193.151V110.96H192.911C192.404 112 191.671 112.853 190.711 113.52C189.778 114.16 188.591 114.48 187.151 114.48ZM189.311 110.16C190.324 110.16 191.151 109.893 191.791 109.36C192.431 108.8 192.751 107.96 192.751 106.84V105.8L189.431 106.04C188.578 106.093 187.938 106.307 187.511 106.68C187.111 107.053 186.911 107.547 186.911 108.16C186.911 108.853 187.138 109.36 187.591 109.68C188.071 110 188.644 110.16 189.311 110.16ZM203.081 85H209.441V114H203.081V85ZM220.467 88.56C220.467 89.4667 220.16 90.28 219.547 91C218.934 91.6933 218.04 92.04 216.867 92.04C215.667 92.04 214.774 91.6933 214.187 91C213.6 90.28 213.307 89.4667 213.307 88.56C213.307 87.6533 213.6 86.8533 214.187 86.16C214.774 85.44 215.667 85.08 216.867 85.08C218.04 85.08 218.934 85.44 219.547 86.16C220.16 86.8533 220.467 87.6533 220.467 88.56ZM213.667 94.24H220.027V114H213.667V94.24ZM224.253 94.24H230.213V97.52H230.453C230.853 96.4267 231.573 95.5333 232.613 94.84C233.679 94.12 234.893 93.76 236.253 93.76C237.559 93.76 238.653 93.9467 239.533 94.32C240.439 94.6667 241.159 95.1867 241.693 95.88C242.226 96.5733 242.599 97.44 242.813 98.48C243.053 99.4933 243.173 100.653 243.173 101.96V114H236.813V103.24C236.813 101.987 236.599 101 236.173 100.28C235.746 99.5333 234.946 99.16 233.773 99.16C232.653 99.16 231.839 99.5067 231.333 100.2C230.853 100.893 230.613 101.907 230.613 103.24V114H224.253V94.24ZM255.542 121.88C253.808 121.88 252.248 121.573 250.862 120.96C249.475 120.373 248.462 119.653 247.822 118.8L251.542 115C251.888 115.453 252.448 115.827 253.222 116.12C253.995 116.44 254.782 116.6 255.582 116.6C256.088 116.6 256.595 116.547 257.102 116.44C257.608 116.333 258.062 116.147 258.462 115.88C258.862 115.613 259.182 115.253 259.422 114.8C259.688 114.347 259.822 113.773 259.822 113.08V109.36H259.662C259.235 110.4 258.555 111.267 257.622 111.96C256.688 112.627 255.475 112.96 253.982 112.96C252.782 112.96 251.702 112.733 250.742 112.28C249.782 111.8 248.955 111.133 248.262 110.28C247.595 109.4 247.075 108.36 246.702 107.16C246.328 105.96 246.142 104.64 246.142 103.2C246.142 101.787 246.328 100.507 246.702 99.36C247.075 98.1867 247.608 97.2 248.302 96.4C248.995 95.5733 249.822 94.9333 250.782 94.48C251.768 94.0267 252.862 93.8 254.062 93.8C255.555 93.8 256.782 94.1333 257.742 94.8C258.728 95.44 259.462 96.3467 259.942 97.52H260.182V94.24H266.182V113.2C266.182 114.613 265.928 115.853 265.422 116.92C264.915 118.013 264.195 118.92 263.262 119.64C262.328 120.387 261.208 120.947 259.902 121.32C258.595 121.693 257.142 121.88 255.542 121.88ZM256.222 107.8C256.835 107.8 257.368 107.68 257.822 107.44C258.275 107.173 258.648 106.84 258.942 106.44C259.235 106.013 259.448 105.533 259.582 105C259.742 104.467 259.822 103.907 259.822 103.32C259.822 102.733 259.742 102.173 259.582 101.64C259.448 101.107 259.235 100.64 258.942 100.24C258.648 99.8133 258.275 99.48 257.822 99.24C257.368 98.9733 256.835 98.84 256.222 98.84C255.608 98.84 255.075 98.9733 254.622 99.24C254.168 99.48 253.795 99.8133 253.502 100.24C253.208 100.64 252.982 101.107 252.822 101.64C252.688 102.173 252.622 102.733 252.622 103.32C252.622 103.907 252.688 104.467 252.822 105C252.982 105.533 253.208 106.013 253.502 106.44C253.795 106.84 254.168 107.173 254.622 107.44C255.075 107.68 255.608 107.8 256.222 107.8Z" fill="black" fill-opacity="0.76"/>
<path d="M64.288 146.2H67.84L75.328 167H72.416L70.784 162.424H61.216L59.584 167H56.832L64.288 146.2ZM62.016 160.12H69.984L66.08 148.472H65.888L62.016 160.12ZM78.8763 151.192H81.3083V153.688H81.5003C81.8843 152.856 82.4283 152.173 83.1323 151.64C83.8363 151.085 84.7323 150.808 85.8203 150.808C87.6336 150.808 89.0629 151.288 90.1083 152.248C91.1749 153.208 91.7083 154.755 91.7083 156.888V167H89.1483V157.368C89.1483 155.747 88.8176 154.605 88.1563 153.944C87.5163 153.261 86.5669 152.92 85.3083 152.92C84.0923 152.92 83.1429 153.336 82.4603 154.168C81.7776 155 81.4363 156.216 81.4363 157.816V167H78.8763V151.192ZM110.709 167.384C109.578 167.384 108.543 167.192 107.605 166.808C106.687 166.424 105.898 165.88 105.237 165.176C104.597 164.451 104.095 163.576 103.733 162.552C103.391 161.528 103.221 160.376 103.221 159.096C103.221 157.752 103.402 156.568 103.765 155.544C104.127 154.499 104.629 153.635 105.269 152.952C105.909 152.248 106.666 151.715 107.541 151.352C108.437 150.989 109.418 150.808 110.485 150.808C111.551 150.808 112.533 150.979 113.429 151.32C114.325 151.661 115.093 152.173 115.733 152.856C116.373 153.517 116.874 154.36 117.237 155.384C117.599 156.387 117.781 157.56 117.781 158.904C117.781 159.075 117.77 159.245 117.749 159.416C117.749 159.587 117.738 159.725 117.717 159.832H105.781C105.781 160.579 105.909 161.283 106.165 161.944C106.442 162.584 106.805 163.149 107.253 163.64C107.722 164.109 108.255 164.483 108.853 164.76C109.471 165.037 110.133 165.176 110.837 165.176C111.989 165.176 112.927 164.952 113.653 164.504C114.399 164.056 115.018 163.512 115.509 162.872L117.045 164.44C116.362 165.336 115.509 166.051 114.485 166.584C113.482 167.117 112.223 167.384 110.709 167.384ZM110.485 152.92C109.738 152.92 109.077 153.059 108.501 153.336C107.925 153.613 107.445 153.976 107.061 154.424C106.677 154.872 106.378 155.384 106.165 155.96C105.973 156.536 105.866 157.112 105.845 157.688H115.093C115.071 157.112 114.954 156.536 114.741 155.96C114.549 155.384 114.261 154.872 113.877 154.424C113.493 153.976 113.013 153.613 112.437 153.336C111.882 153.059 111.231 152.92 110.485 152.92ZM125.217 158.968L119.937 151.192H123.009L126.753 157.112H126.881L130.753 151.192H133.505L128.225 158.84L133.761 167H130.689L126.689 160.696H126.561L122.433 167H119.681L125.217 158.968ZM140.771 167.384C140.045 167.384 139.373 167.267 138.755 167.032C138.157 166.797 137.635 166.467 137.187 166.04C136.739 165.613 136.387 165.112 136.131 164.536C135.896 163.939 135.779 163.288 135.779 162.584C135.779 161.219 136.269 160.12 137.251 159.288C138.232 158.456 139.629 157.987 141.443 157.88L145.603 157.624V156.504C145.603 155.288 145.304 154.413 144.707 153.88C144.131 153.325 143.299 153.048 142.211 153.048C141.293 153.048 140.504 153.219 139.843 153.56C139.181 153.901 138.669 154.275 138.307 154.68L136.771 153.144C137.325 152.461 138.072 151.907 139.011 151.48C139.971 151.032 141.059 150.808 142.275 150.808C143.363 150.808 144.28 150.957 145.027 151.256C145.773 151.533 146.371 151.917 146.819 152.408C147.288 152.899 147.619 153.475 147.811 154.136C148.024 154.797 148.131 155.501 148.131 156.248V167H145.731V164.312H145.539C145.112 165.272 144.515 166.029 143.747 166.584C142.979 167.117 141.987 167.384 140.771 167.384ZM141.155 165.208C142.477 165.208 143.544 164.824 144.355 164.056C145.187 163.267 145.603 162.221 145.603 160.92V159.544L141.571 159.832C139.437 160.003 138.371 160.899 138.371 162.52C138.371 163.331 138.627 163.981 139.139 164.472C139.672 164.963 140.344 165.208 141.155 165.208ZM153.283 151.192H155.715V153.688H155.907C156.291 152.856 156.824 152.173 157.507 151.64C158.211 151.085 159.085 150.808 160.131 150.808C161.389 150.808 162.445 151.043 163.299 151.512C164.173 151.96 164.824 152.643 165.251 153.56C165.72 152.664 166.349 151.981 167.139 151.512C167.928 151.043 168.931 150.808 170.147 150.808C171.021 150.808 171.811 150.925 172.515 151.16C173.219 151.395 173.816 151.757 174.307 152.248C174.819 152.739 175.203 153.368 175.459 154.136C175.736 154.904 175.875 155.821 175.875 156.888V167H173.315V157.368C173.315 155.747 172.995 154.605 172.355 153.944C171.736 153.261 170.819 152.92 169.603 152.92C168.429 152.92 167.512 153.336 166.851 154.168C166.189 155 165.859 156.216 165.859 157.816V167H163.299V157.368C163.299 155.747 162.979 154.605 162.339 153.944C161.72 153.261 160.803 152.92 159.587 152.92C158.435 152.92 157.517 153.336 156.835 154.168C156.173 155 155.843 156.216 155.843 157.816V167H153.283V151.192ZM181.033 151.192H183.465V154.424H183.657C183.849 153.891 184.115 153.4 184.457 152.952C184.819 152.504 185.235 152.12 185.705 151.8C186.195 151.48 186.729 151.235 187.305 151.064C187.902 150.893 188.521 150.808 189.161 150.808C190.206 150.808 191.155 151.021 192.009 151.448C192.883 151.853 193.63 152.429 194.249 153.176C194.867 153.901 195.337 154.776 195.657 155.8C195.998 156.824 196.169 157.933 196.169 159.128C196.169 160.323 195.998 161.432 195.657 162.456C195.337 163.459 194.867 164.333 194.249 165.08C193.63 165.805 192.883 166.371 192.009 166.776C191.155 167.181 190.206 167.384 189.161 167.384C187.859 167.384 186.739 167.075 185.801 166.456C184.862 165.837 184.19 165.048 183.785 164.088H183.593V172.92H181.033V151.192ZM188.521 165.08C189.225 165.08 189.875 164.963 190.473 164.728C191.091 164.472 191.625 164.099 192.073 163.608C192.542 163.096 192.905 162.467 193.161 161.72C193.417 160.973 193.545 160.099 193.545 159.096C193.545 158.093 193.417 157.219 193.161 156.472C192.905 155.725 192.542 155.107 192.073 154.616C191.625 154.104 191.091 153.731 190.473 153.496C189.875 153.24 189.225 153.112 188.521 153.112C187.838 153.112 187.198 153.24 186.601 153.496C186.003 153.731 185.481 154.104 185.033 154.616C184.585 155.107 184.233 155.725 183.977 156.472C183.721 157.219 183.593 158.093 183.593 159.096C183.593 160.099 183.721 160.973 183.977 161.72C184.233 162.467 184.585 163.096 185.033 163.608C185.481 164.099 186.003 164.472 186.601 164.728C187.198 164.963 187.838 165.08 188.521 165.08ZM200.283 143.8H202.843V167H200.283V143.8ZM214.459 167.384C213.328 167.384 212.293 167.192 211.355 166.808C210.437 166.424 209.648 165.88 208.987 165.176C208.347 164.451 207.845 163.576 207.483 162.552C207.141 161.528 206.971 160.376 206.971 159.096C206.971 157.752 207.152 156.568 207.515 155.544C207.877 154.499 208.379 153.635 209.019 152.952C209.659 152.248 210.416 151.715 211.291 151.352C212.187 150.989 213.168 150.808 214.235 150.808C215.301 150.808 216.283 150.979 217.179 151.32C218.075 151.661 218.843 152.173 219.483 152.856C220.123 153.517 220.624 154.36 220.987 155.384C221.349 156.387 221.531 157.56 221.531 158.904C221.531 159.075 221.52 159.245 221.499 159.416C221.499 159.587 221.488 159.725 221.467 159.832H209.531C209.531 160.579 209.659 161.283 209.915 161.944C210.192 162.584 210.555 163.149 211.003 163.64C211.472 164.109 212.005 164.483 212.603 164.76C213.221 165.037 213.883 165.176 214.587 165.176C215.739 165.176 216.677 164.952 217.403 164.504C218.149 164.056 218.768 163.512 219.259 162.872L220.795 164.44C220.112 165.336 219.259 166.051 218.235 166.584C217.232 167.117 215.973 167.384 214.459 167.384ZM214.235 152.92C213.488 152.92 212.827 153.059 212.251 153.336C211.675 153.613 211.195 153.976 210.811 154.424C210.427 154.872 210.128 155.384 209.915 155.96C209.723 156.536 209.616 157.112 209.595 157.688H218.843C218.821 157.112 218.704 156.536 218.491 155.96C218.299 155.384 218.011 154.872 217.627 154.424C217.243 153.976 216.763 153.613 216.187 153.336C215.632 153.059 214.981 152.92 214.235 152.92ZM234.145 153.272H231.329V151.192H234.145V148.408C234.145 146.872 234.529 145.656 235.297 144.76C236.086 143.864 237.249 143.416 238.785 143.416C239.169 143.416 239.564 143.459 239.969 143.544C240.374 143.608 240.726 143.715 241.025 143.864L240.161 145.88C240.012 145.795 239.809 145.731 239.553 145.688C239.297 145.624 239.073 145.592 238.881 145.592C238.198 145.592 237.665 145.827 237.281 146.296C236.897 146.765 236.705 147.48 236.705 148.44V151.192H240.929V153.272H236.705V167H234.145V153.272ZM250.116 167.384C248.858 167.384 247.748 167.171 246.788 166.744C245.85 166.296 245.06 165.699 244.42 164.952C243.802 164.205 243.332 163.331 243.012 162.328C242.714 161.325 242.564 160.248 242.564 159.096C242.564 157.944 242.714 156.867 243.012 155.864C243.332 154.861 243.802 153.987 244.42 153.24C245.06 152.493 245.85 151.907 246.788 151.48C247.748 151.032 248.858 150.808 250.116 150.808C251.375 150.808 252.463 151.032 253.38 151.48C254.319 151.907 255.098 152.493 255.716 153.24C256.335 153.987 256.794 154.861 257.092 155.864C257.412 156.867 257.572 157.944 257.572 159.096C257.572 160.248 257.412 161.325 257.092 162.328C256.794 163.331 256.335 164.205 255.716 164.952C255.098 165.699 254.319 166.296 253.38 166.744C252.463 167.171 251.375 167.384 250.116 167.384ZM245.188 159.096C245.188 160.013 245.284 160.856 245.476 161.624C245.69 162.371 245.999 163.021 246.404 163.576C246.81 164.109 247.322 164.525 247.94 164.824C248.559 165.123 249.284 165.272 250.116 165.272C250.927 165.272 251.631 165.123 252.228 164.824C252.847 164.525 253.348 164.109 253.732 163.576C254.138 163.021 254.436 162.371 254.628 161.624C254.842 160.856 254.948 160.013 254.948 159.096C254.948 158.179 254.842 157.347 254.628 156.6C254.436 155.832 254.138 155.181 253.732 154.648C253.348 154.093 252.847 153.667 252.228 153.368C251.631 153.069 250.927 152.92 250.116 152.92C249.284 152.92 248.559 153.069 247.94 153.368C247.322 153.667 246.81 154.093 246.404 154.648C245.999 155.181 245.69 155.832 245.476 156.6C245.284 157.347 245.188 158.179 245.188 159.096ZM261.689 151.192H264.121V153.752H264.313C264.654 152.92 265.145 152.227 265.785 151.672C266.425 151.096 267.225 150.808 268.185 150.808C268.995 150.808 269.71 150.968 270.329 151.288L269.465 153.592C269.187 153.443 268.889 153.347 268.569 153.304C268.27 153.24 267.961 153.208 267.641 153.208C266.595 153.208 265.763 153.635 265.145 154.488C264.547 155.32 264.249 156.387 264.249 157.688V167H261.689V151.192ZM62.208 215.384C61.4827 215.384 60.8107 215.267 60.192 215.032C59.5947 214.797 59.072 214.467 58.624 214.04C58.176 213.613 57.824 213.112 57.568 212.536C57.3333 211.939 57.216 211.288 57.216 210.584C57.216 209.219 57.7067 208.12 58.688 207.288C59.6693 206.456 61.0667 205.987 62.88 205.88L67.04 205.624V204.504C67.04 203.288 66.7413 202.413 66.144 201.88C65.568 201.325 64.736 201.048 63.648 201.048C62.7307 201.048 61.9413 201.219 61.28 201.56C60.6187 201.901 60.1067 202.275 59.744 202.68L58.208 201.144C58.7627 200.461 59.5093 199.907 60.448 199.48C61.408 199.032 62.496 198.808 63.712 198.808C64.8 198.808 65.7173 198.957 66.464 199.256C67.2107 199.533 67.808 199.917 68.256 200.408C68.7253 200.899 69.056 201.475 69.248 202.136C69.4613 202.797 69.568 203.501 69.568 204.248V215H67.168V212.312H66.976C66.5493 213.272 65.952 214.029 65.184 214.584C64.416 215.117 63.424 215.384 62.208 215.384ZM62.592 213.208C63.9147 213.208 64.9813 212.824 65.792 212.056C66.624 211.267 67.04 210.221 67.04 208.92V207.544L63.008 207.832C60.8747 208.003 59.808 208.899 59.808 210.52C59.808 211.331 60.064 211.981 60.576 212.472C61.1093 212.963 61.7813 213.208 62.592 213.208ZM80.736 215.384C79.456 215.384 78.3467 215.149 77.408 214.68C76.4907 214.211 75.7333 213.592 75.136 212.824C74.5387 212.056 74.1013 211.181 73.824 210.2C73.5467 209.197 73.408 208.163 73.408 207.096C73.408 206.029 73.5467 205.005 73.824 204.024C74.1013 203.021 74.528 202.136 75.104 201.368C75.7013 200.6 76.4587 199.981 77.376 199.512C78.2933 199.043 79.392 198.808 80.672 198.808C82.016 198.808 83.1147 199.032 83.968 199.48C84.8213 199.928 85.5467 200.525 86.144 201.272L84.544 202.776C84.032 202.221 83.488 201.795 82.912 201.496C82.3573 201.176 81.632 201.016 80.736 201.016C79.328 201.016 78.1867 201.56 77.312 202.648C76.4587 203.715 76.032 205.197 76.032 207.096C76.032 208.035 76.1493 208.877 76.384 209.624C76.6187 210.371 76.9493 211.011 77.376 211.544C77.8027 212.077 78.304 212.483 78.88 212.76C79.456 213.037 80.096 213.176 80.8 213.176C81.6533 213.176 82.3893 213.027 83.008 212.728C83.6267 212.408 84.2027 211.949 84.736 211.352L86.272 212.888C85.6533 213.635 84.896 214.243 84 214.712C83.104 215.16 82.016 215.384 80.736 215.384ZM95.7048 215.384C94.4248 215.384 93.3154 215.149 92.3768 214.68C91.4594 214.211 90.7021 213.592 90.1048 212.824C89.5074 212.056 89.0701 211.181 88.7928 210.2C88.5154 209.197 88.3768 208.163 88.3768 207.096C88.3768 206.029 88.5154 205.005 88.7928 204.024C89.0701 203.021 89.4968 202.136 90.0728 201.368C90.6701 200.6 91.4274 199.981 92.3448 199.512C93.2621 199.043 94.3608 198.808 95.6408 198.808C96.9848 198.808 98.0834 199.032 98.9368 199.48C99.7901 199.928 100.515 200.525 101.113 201.272L99.5128 202.776C99.0008 202.221 98.4568 201.795 97.8808 201.496C97.3261 201.176 96.6008 201.016 95.7048 201.016C94.2968 201.016 93.1554 201.56 92.2808 202.648C91.4274 203.715 91.0008 205.197 91.0008 207.096C91.0008 208.035 91.1181 208.877 91.3528 209.624C91.5874 210.371 91.9181 211.011 92.3448 211.544C92.7714 212.077 93.2728 212.483 93.8488 212.76C94.4248 213.037 95.0648 213.176 95.7688 213.176C96.6221 213.176 97.3581 213.027 97.9768 212.728C98.5954 212.408 99.1714 211.949 99.7048 211.352L101.241 212.888C100.622 213.635 99.8648 214.243 98.9688 214.712C98.0728 215.16 96.9848 215.384 95.7048 215.384ZM110.834 215.384C109.703 215.384 108.668 215.192 107.73 214.808C106.812 214.424 106.023 213.88 105.362 213.176C104.722 212.451 104.22 211.576 103.858 210.552C103.516 209.528 103.346 208.376 103.346 207.096C103.346 205.752 103.527 204.568 103.89 203.544C104.252 202.499 104.754 201.635 105.394 200.952C106.034 200.248 106.791 199.715 107.666 199.352C108.562 198.989 109.543 198.808 110.61 198.808C111.676 198.808 112.658 198.979 113.554 199.32C114.45 199.661 115.218 200.173 115.858 200.856C116.498 201.517 116.999 202.36 117.362 203.384C117.724 204.387 117.906 205.56 117.906 206.904C117.906 207.075 117.895 207.245 117.874 207.416C117.874 207.587 117.863 207.725 117.842 207.832H105.906C105.906 208.579 106.034 209.283 106.29 209.944C106.567 210.584 106.93 211.149 107.378 211.64C107.847 212.109 108.38 212.483 108.978 212.76C109.596 213.037 110.258 213.176 110.962 213.176C112.114 213.176 113.052 212.952 113.778 212.504C114.524 212.056 115.143 211.512 115.634 210.872L117.17 212.44C116.487 213.336 115.634 214.051 114.61 214.584C113.607 215.117 112.348 215.384 110.834 215.384ZM110.61 200.92C109.863 200.92 109.202 201.059 108.626 201.336C108.05 201.613 107.57 201.976 107.186 202.424C106.802 202.872 106.503 203.384 106.29 203.96C106.098 204.536 105.991 205.112 105.97 205.688H115.218C115.196 205.112 115.079 204.536 114.866 203.96C114.674 203.384 114.386 202.872 114.002 202.424C113.618 201.976 113.138 201.613 112.562 201.336C112.007 201.059 111.356 200.92 110.61 200.92ZM129.649 210.904C129.649 210.435 129.542 210.051 129.329 209.752C129.115 209.432 128.817 209.165 128.433 208.952C128.07 208.739 127.654 208.557 127.185 208.408C126.715 208.259 126.225 208.109 125.713 207.96C125.115 207.789 124.539 207.587 123.985 207.352C123.451 207.117 122.971 206.829 122.545 206.488C122.118 206.125 121.777 205.699 121.521 205.208C121.265 204.717 121.137 204.12 121.137 203.416C121.137 202.669 121.275 202.008 121.553 201.432C121.83 200.856 122.214 200.376 122.705 199.992C123.195 199.608 123.771 199.32 124.433 199.128C125.094 198.915 125.809 198.808 126.577 198.808C127.729 198.808 128.785 199.021 129.745 199.448C130.705 199.853 131.494 200.493 132.113 201.368L130.449 202.904C129.979 202.349 129.425 201.891 128.785 201.528C128.166 201.165 127.43 200.984 126.577 200.984C126.214 200.984 125.851 201.027 125.489 201.112C125.147 201.197 124.838 201.336 124.561 201.528C124.283 201.699 124.059 201.923 123.889 202.2C123.718 202.477 123.633 202.808 123.633 203.192C123.633 203.661 123.739 204.056 123.953 204.376C124.166 204.675 124.454 204.931 124.817 205.144C125.201 205.357 125.627 205.539 126.097 205.688C126.566 205.837 127.057 205.987 127.569 206.136C128.166 206.307 128.731 206.509 129.265 206.744C129.819 206.979 130.31 207.277 130.737 207.64C131.163 207.981 131.505 208.397 131.761 208.888C132.017 209.379 132.145 209.976 132.145 210.68C132.145 211.512 131.985 212.227 131.665 212.824C131.366 213.4 130.95 213.88 130.417 214.264C129.883 214.648 129.265 214.925 128.561 215.096C127.857 215.288 127.11 215.384 126.321 215.384C124.934 215.384 123.75 215.149 122.769 214.68C121.809 214.211 121.051 213.603 120.497 212.856L122.193 211.256C122.683 211.832 123.249 212.301 123.889 212.664C124.55 213.027 125.371 213.208 126.353 213.208C126.801 213.208 127.217 213.165 127.601 213.08C128.006 212.995 128.358 212.856 128.657 212.664C128.955 212.472 129.19 212.237 129.361 211.96C129.553 211.661 129.649 211.309 129.649 210.904ZM144.18 210.904C144.18 210.435 144.073 210.051 143.86 209.752C143.646 209.432 143.348 209.165 142.964 208.952C142.601 208.739 142.185 208.557 141.716 208.408C141.246 208.259 140.756 208.109 140.244 207.96C139.646 207.789 139.07 207.587 138.516 207.352C137.982 207.117 137.502 206.829 137.076 206.488C136.649 206.125 136.308 205.699 136.052 205.208C135.796 204.717 135.668 204.12 135.668 203.416C135.668 202.669 135.806 202.008 136.084 201.432C136.361 200.856 136.745 200.376 137.236 199.992C137.726 199.608 138.302 199.32 138.964 199.128C139.625 198.915 140.34 198.808 141.108 198.808C142.26 198.808 143.316 199.021 144.276 199.448C145.236 199.853 146.025 200.493 146.644 201.368L144.98 202.904C144.51 202.349 143.956 201.891 143.316 201.528C142.697 201.165 141.961 200.984 141.108 200.984C140.745 200.984 140.382 201.027 140.02 201.112C139.678 201.197 139.369 201.336 139.092 201.528C138.814 201.699 138.59 201.923 138.42 202.2C138.249 202.477 138.164 202.808 138.164 203.192C138.164 203.661 138.27 204.056 138.484 204.376C138.697 204.675 138.985 204.931 139.348 205.144C139.732 205.357 140.158 205.539 140.628 205.688C141.097 205.837 141.588 205.987 142.1 206.136C142.697 206.307 143.262 206.509 143.796 206.744C144.35 206.979 144.841 207.277 145.268 207.64C145.694 207.981 146.036 208.397 146.292 208.888C146.548 209.379 146.676 209.976 146.676 210.68C146.676 211.512 146.516 212.227 146.196 212.824C145.897 213.4 145.481 213.88 144.948 214.264C144.414 214.648 143.796 214.925 143.092 215.096C142.388 215.288 141.641 215.384 140.852 215.384C139.465 215.384 138.281 215.149 137.3 214.68C136.34 214.211 135.582 213.603 135.028 212.856L136.724 211.256C137.214 211.832 137.78 212.301 138.42 212.664C139.081 213.027 139.902 213.208 140.884 213.208C141.332 213.208 141.748 213.165 142.132 213.08C142.537 212.995 142.889 212.856 143.188 212.664C143.486 212.472 143.721 212.237 143.892 211.96C144.084 211.661 144.18 211.309 144.18 210.904ZM154.071 195C154.071 195.448 153.911 195.832 153.591 196.152C153.292 196.472 152.887 196.632 152.375 196.632C151.842 196.632 151.426 196.472 151.127 196.152C150.828 195.832 150.679 195.448 150.679 195C150.679 194.573 150.828 194.2 151.127 193.88C151.426 193.539 151.842 193.368 152.375 193.368C152.887 193.368 153.292 193.539 153.591 193.88C153.911 194.2 154.071 194.573 154.071 195ZM151.095 199.192H153.655V215H151.095V199.192ZM167.223 215.384C166.583 215.384 165.964 215.299 165.367 215.128C164.791 214.957 164.258 214.712 163.767 214.392C163.298 214.072 162.882 213.699 162.519 213.272C162.178 212.824 161.911 212.323 161.719 211.768H161.527V215H159.095V191.8H161.655V202.104H161.847C162.252 201.144 162.924 200.355 163.863 199.736C164.802 199.117 165.922 198.808 167.223 198.808C168.268 198.808 169.218 199.011 170.071 199.416C170.946 199.821 171.692 200.397 172.311 201.144C172.93 201.869 173.399 202.744 173.719 203.768C174.06 204.771 174.231 205.869 174.231 207.064C174.231 208.259 174.06 209.368 173.719 210.392C173.399 211.416 172.93 212.301 172.311 213.048C171.692 213.773 170.946 214.349 170.071 214.776C169.218 215.181 168.268 215.384 167.223 215.384ZM166.583 213.08C167.287 213.08 167.938 212.963 168.535 212.728C169.154 212.472 169.687 212.099 170.135 211.608C170.604 211.096 170.967 210.467 171.223 209.72C171.479 208.973 171.607 208.099 171.607 207.096C171.607 206.093 171.479 205.219 171.223 204.472C170.967 203.725 170.604 203.107 170.135 202.616C169.687 202.104 169.154 201.731 168.535 201.496C167.938 201.24 167.287 201.112 166.583 201.112C165.9 201.112 165.26 201.24 164.663 201.496C164.066 201.731 163.543 202.104 163.095 202.616C162.647 203.107 162.295 203.725 162.039 204.472C161.783 205.219 161.655 206.093 161.655 207.096C161.655 208.099 161.783 208.973 162.039 209.72C162.295 210.467 162.647 211.096 163.095 211.608C163.543 212.099 164.066 212.472 164.663 212.728C165.26 212.963 165.9 213.08 166.583 213.08ZM178.345 191.8H180.905V215H178.345V191.8ZM192.521 215.384C191.39 215.384 190.356 215.192 189.417 214.808C188.5 214.424 187.71 213.88 187.049 213.176C186.409 212.451 185.908 211.576 185.545 210.552C185.204 209.528 185.033 208.376 185.033 207.096C185.033 205.752 185.214 204.568 185.577 203.544C185.94 202.499 186.441 201.635 187.081 200.952C187.721 200.248 188.478 199.715 189.353 199.352C190.249 198.989 191.23 198.808 192.297 198.808C193.364 198.808 194.345 198.979 195.241 199.32C196.137 199.661 196.905 200.173 197.545 200.856C198.185 201.517 198.686 202.36 199.049 203.384C199.412 204.387 199.593 205.56 199.593 206.904C199.593 207.075 199.582 207.245 199.561 207.416C199.561 207.587 199.55 207.725 199.529 207.832H187.593C187.593 208.579 187.721 209.283 187.977 209.944C188.254 210.584 188.617 211.149 189.065 211.64C189.534 212.109 190.068 212.483 190.665 212.76C191.284 213.037 191.945 213.176 192.649 213.176C193.801 213.176 194.74 212.952 195.465 212.504C196.212 212.056 196.83 211.512 197.321 210.872L198.857 212.44C198.174 213.336 197.321 214.051 196.297 214.584C195.294 215.117 194.036 215.384 192.521 215.384ZM192.297 200.92C191.55 200.92 190.889 201.059 190.313 201.336C189.737 201.613 189.257 201.976 188.873 202.424C188.489 202.872 188.19 203.384 187.977 203.96C187.785 204.536 187.678 205.112 187.657 205.688H196.905C196.884 205.112 196.766 204.536 196.553 203.96C196.361 203.384 196.073 202.872 195.689 202.424C195.305 201.976 194.825 201.613 194.249 201.336C193.694 201.059 193.044 200.92 192.297 200.92ZM216.272 215.384C214.842 215.384 213.797 214.957 213.136 214.104C212.474 213.251 212.144 212.077 212.144 210.584V201.272H209.328V199.192H212.144V194.904H214.672V199.192H219.248V201.272H214.672V210.36C214.672 211.384 214.864 212.099 215.248 212.504C215.653 212.909 216.165 213.112 216.784 213.112C217.21 213.112 217.594 213.037 217.936 212.888C218.277 212.717 218.597 212.493 218.896 212.216L220.048 214.008C219.066 214.925 217.808 215.384 216.272 215.384ZM229.459 215.384C228.328 215.384 227.293 215.192 226.355 214.808C225.437 214.424 224.648 213.88 223.987 213.176C223.347 212.451 222.845 211.576 222.483 210.552C222.141 209.528 221.971 208.376 221.971 207.096C221.971 205.752 222.152 204.568 222.515 203.544C222.877 202.499 223.379 201.635 224.019 200.952C224.659 200.248 225.416 199.715 226.291 199.352C227.187 198.989 228.168 198.808 229.235 198.808C230.301 198.808 231.283 198.979 232.179 199.32C233.075 199.661 233.843 200.173 234.483 200.856C235.123 201.517 235.624 202.36 235.987 203.384C236.349 204.387 236.531 205.56 236.531 206.904C236.531 207.075 236.52 207.245 236.499 207.416C236.499 207.587 236.488 207.725 236.467 207.832H224.531C224.531 208.579 224.659 209.283 224.915 209.944C225.192 210.584 225.555 211.149 226.003 211.64C226.472 212.109 227.005 212.483 227.603 212.76C228.221 213.037 228.883 213.176 229.587 213.176C230.739 213.176 231.677 212.952 232.403 212.504C233.149 212.056 233.768 211.512 234.259 210.872L235.795 212.44C235.112 213.336 234.259 214.051 233.235 214.584C232.232 215.117 230.973 215.384 229.459 215.384ZM229.235 200.92C228.488 200.92 227.827 201.059 227.251 201.336C226.675 201.613 226.195 201.976 225.811 202.424C225.427 202.872 225.128 203.384 224.915 203.96C224.723 204.536 224.616 205.112 224.595 205.688H233.843C233.821 205.112 233.704 204.536 233.491 203.96C233.299 203.384 233.011 202.872 232.627 202.424C232.243 201.976 231.763 201.613 231.187 201.336C230.632 201.059 229.981 200.92 229.235 200.92ZM243.967 206.968L238.687 199.192H241.759L245.503 205.112H245.631L249.503 199.192H252.255L246.975 206.84L252.511 215H249.439L245.439 208.696H245.311L241.183 215H238.431L243.967 206.968ZM261.147 215.384C259.717 215.384 258.672 214.957 258.011 214.104C257.349 213.251 257.019 212.077 257.019 210.584V201.272H254.203V199.192H257.019V194.904H259.547V199.192H264.123V201.272H259.547V210.36C259.547 211.384 259.739 212.099 260.123 212.504C260.528 212.909 261.04 213.112 261.659 213.112C262.085 213.112 262.469 213.037 262.811 212.888C263.152 212.717 263.472 212.493 263.771 212.216L264.923 214.008C263.941 214.925 262.683 215.384 261.147 215.384ZM66.336 258.904C66.336 258.435 66.2293 258.051 66.016 257.752C65.8027 257.432 65.504 257.165 65.12 256.952C64.7573 256.739 64.3413 256.557 63.872 256.408C63.4027 256.259 62.912 256.109 62.4 255.96C61.8027 255.789 61.2267 255.587 60.672 255.352C60.1387 255.117 59.6587 254.829 59.232 254.488C58.8053 254.125 58.464 253.699 58.208 253.208C57.952 252.717 57.824 252.12 57.824 251.416C57.824 250.669 57.9627 250.008 58.24 249.432C58.5173 248.856 58.9013 248.376 59.392 247.992C59.8827 247.608 60.4587 247.32 61.12 247.128C61.7813 246.915 62.496 246.808 63.264 246.808C64.416 246.808 65.472 247.021 66.432 247.448C67.392 247.853 68.1813 248.493 68.8 249.368L67.136 250.904C66.6667 250.349 66.112 249.891 65.472 249.528C64.8533 249.165 64.1173 248.984 63.264 248.984C62.9013 248.984 62.5387 249.027 62.176 249.112C61.8347 249.197 61.5253 249.336 61.248 249.528C60.9707 249.699 60.7467 249.923 60.576 250.2C60.4053 250.477 60.32 250.808 60.32 251.192C60.32 251.661 60.4267 252.056 60.64 252.376C60.8533 252.675 61.1413 252.931 61.504 253.144C61.888 253.357 62.3147 253.539 62.784 253.688C63.2533 253.837 63.744 253.987 64.256 254.136C64.8533 254.307 65.4187 254.509 65.952 254.744C66.5067 254.979 66.9973 255.277 67.424 255.64C67.8507 255.981 68.192 256.397 68.448 256.888C68.704 257.379 68.832 257.976 68.832 258.68C68.832 259.512 68.672 260.227 68.352 260.824C68.0533 261.4 67.6373 261.88 67.104 262.264C66.5707 262.648 65.952 262.925 65.248 263.096C64.544 263.288 63.7973 263.384 63.008 263.384C61.6213 263.384 60.4373 263.149 59.456 262.68C58.496 262.211 57.7387 261.603 57.184 260.856L58.88 259.256C59.3707 259.832 59.936 260.301 60.576 260.664C61.2373 261.027 62.0587 261.208 63.04 261.208C63.488 261.208 63.904 261.165 64.288 261.08C64.6933 260.995 65.0453 260.856 65.344 260.664C65.6427 260.472 65.8773 260.237 66.048 259.96C66.24 259.661 66.336 259.309 66.336 258.904ZM79.2673 263.384C77.9873 263.384 76.8779 263.149 75.9393 262.68C75.0219 262.211 74.2646 261.592 73.6673 260.824C73.0699 260.056 72.6326 259.181 72.3553 258.2C72.0779 257.197 71.9393 256.163 71.9393 255.096C71.9393 254.029 72.0779 253.005 72.3553 252.024C72.6326 251.021 73.0593 250.136 73.6353 249.368C74.2326 248.6 74.9899 247.981 75.9073 247.512C76.8246 247.043 77.9233 246.808 79.2033 246.808C80.5473 246.808 81.6459 247.032 82.4993 247.48C83.3526 247.928 84.0779 248.525 84.6753 249.272L83.0753 250.776C82.5633 250.221 82.0193 249.795 81.4433 249.496C80.8886 249.176 80.1633 249.016 79.2673 249.016C77.8593 249.016 76.7179 249.56 75.8433 250.648C74.9899 251.715 74.5633 253.197 74.5633 255.096C74.5633 256.035 74.6806 256.877 74.9153 257.624C75.1499 258.371 75.4806 259.011 75.9073 259.544C76.3339 260.077 76.8353 260.483 77.4113 260.76C77.9873 261.037 78.6273 261.176 79.3313 261.176C80.1846 261.176 80.9206 261.027 81.5393 260.728C82.1579 260.408 82.7339 259.949 83.2673 259.352L84.8033 260.888C84.1846 261.635 83.4273 262.243 82.5313 262.712C81.6353 263.16 80.5473 263.384 79.2673 263.384ZM92.0205 263.384C91.2952 263.384 90.6232 263.267 90.0045 263.032C89.4072 262.797 88.8845 262.467 88.4365 262.04C87.9885 261.613 87.6365 261.112 87.3805 260.536C87.1458 259.939 87.0285 259.288 87.0285 258.584C87.0285 257.219 87.5192 256.12 88.5005 255.288C89.4818 254.456 90.8792 253.987 92.6925 253.88L96.8525 253.624V252.504C96.8525 251.288 96.5538 250.413 95.9565 249.88C95.3805 249.325 94.5485 249.048 93.4605 249.048C92.5432 249.048 91.7538 249.219 91.0925 249.56C90.4312 249.901 89.9192 250.275 89.5565 250.68L88.0205 249.144C88.5752 248.461 89.3218 247.907 90.2605 247.48C91.2205 247.032 92.3085 246.808 93.5245 246.808C94.6125 246.808 95.5298 246.957 96.2765 247.256C97.0232 247.533 97.6205 247.917 98.0685 248.408C98.5378 248.899 98.8685 249.475 99.0605 250.136C99.2738 250.797 99.3805 251.501 99.3805 252.248V263H96.9805V260.312H96.7885C96.3618 261.272 95.7645 262.029 94.9965 262.584C94.2285 263.117 93.2365 263.384 92.0205 263.384ZM92.4045 261.208C93.7272 261.208 94.7938 260.824 95.6045 260.056C96.4365 259.267 96.8525 258.221 96.8525 256.92V255.544L92.8205 255.832C90.6872 256.003 89.6205 256.899 89.6205 258.52C89.6205 259.331 89.8765 259.981 90.3885 260.472C90.9218 260.963 91.5938 261.208 92.4045 261.208ZM104.533 239.8H107.093V263H104.533V239.8ZM115.509 243C115.509 243.448 115.349 243.832 115.029 244.152C114.73 244.472 114.325 244.632 113.812 244.632C113.279 244.632 112.863 244.472 112.565 244.152C112.266 243.832 112.117 243.448 112.117 243C112.117 242.573 112.266 242.2 112.565 241.88C112.863 241.539 113.279 241.368 113.812 241.368C114.325 241.368 114.73 241.539 115.029 241.88C115.349 242.2 115.509 242.573 115.509 243ZM112.533 247.192H115.093V263H112.533V247.192ZM120.533 247.192H122.965V249.688H123.157C123.541 248.856 124.085 248.173 124.789 247.64C125.493 247.085 126.389 246.808 127.477 246.808C129.29 246.808 130.719 247.288 131.765 248.248C132.831 249.208 133.365 250.755 133.365 252.888V263H130.805V253.368C130.805 251.747 130.474 250.605 129.813 249.944C129.173 249.261 128.223 248.92 126.965 248.92C125.749 248.92 124.799 249.336 124.117 250.168C123.434 251 123.093 252.216 123.093 253.816V263H120.533V247.192ZM144.805 269.304C143.44 269.304 142.256 269.059 141.253 268.568C140.251 268.099 139.451 267.512 138.853 266.808L140.549 265.176C140.997 265.731 141.573 266.168 142.277 266.488C143.003 266.829 143.803 267 144.677 267C146.043 267 147.109 266.669 147.877 266.008C148.667 265.347 149.061 264.184 149.061 262.52V259.448H148.869C148.699 259.981 148.453 260.461 148.133 260.888C147.813 261.293 147.429 261.645 146.981 261.944C146.555 262.221 146.075 262.445 145.541 262.616C145.029 262.765 144.507 262.84 143.973 262.84C142.971 262.84 142.053 262.659 141.221 262.296C140.411 261.933 139.696 261.411 139.077 260.728C138.48 260.024 138.011 259.171 137.669 258.168C137.349 257.165 137.189 256.035 137.189 254.776C137.189 253.539 137.349 252.429 137.669 251.448C138.011 250.467 138.48 249.635 139.077 248.952C139.696 248.269 140.411 247.747 141.221 247.384C142.053 247 142.971 246.808 143.973 246.808C145.147 246.808 146.192 247.117 147.109 247.736C148.048 248.333 148.677 249.165 148.997 250.232H149.189V247.192H151.621V262.84C151.621 264.781 151.035 266.339 149.861 267.512C148.709 268.707 147.024 269.304 144.805 269.304ZM144.485 260.536C145.893 260.536 147.003 260.045 147.813 259.064C148.645 258.083 149.061 256.664 149.061 254.808C149.061 252.931 148.645 251.512 147.813 250.552C147.003 249.592 145.893 249.112 144.485 249.112C143.056 249.112 141.915 249.592 141.061 250.552C140.229 251.512 139.813 252.931 139.813 254.808C139.813 256.664 140.229 258.083 141.061 259.064C141.915 260.045 143.056 260.536 144.485 260.536Z" fill="black" fill-opacity="0.55"/>
<path d="M344.23 25.5656L352 33.5981L359.796 25.5L361.24 26.8125L353.194 35.16C352.868 35.483 352.427 35.6642 351.967 35.6642C351.508 35.6642 351.067 35.483 350.74 35.16L342.812 26.9175L344.23 25.5656Z" fill="black" fill-opacity="0.76"/>
<rect width="380" height="1" transform="translate(0 291)" fill="white" fill-opacity="0.01"/>
<rect width="380" height="1" transform="translate(0 291)" fill="black" fill-opacity="0.08"/>
<defs>
<clipPath id="clip0_2261_4942">
<rect width="24" height="24" fill="white" transform="translate(16 18)"/>
</clipPath>
</defs>
</svg>
