<svg width="264" height="120" viewBox="0 0 264 120" fill="none" xmlns="http://www.w3.org/2000/svg">
<g clip-path="url(#clip0_13528_7682)">
<path d="M5.022 5.9H6.898V13.474H10.524V15H5.022V5.9ZM13.6733 15.168C13.3653 15.168 13.0713 15.1167 12.7913 15.014C12.5207 14.9207 12.2827 14.7853 12.0773 14.608C11.872 14.4213 11.7087 14.1973 11.5873 13.936C11.4753 13.6747 11.4193 13.3807 11.4193 13.054C11.4193 12.438 11.6387 11.948 12.0773 11.584C12.516 11.22 13.1833 11.0147 14.0793 10.968L15.7033 10.87V10.59C15.7033 10.142 15.568 9.834 15.2973 9.666C15.0267 9.498 14.6907 9.414 14.2893 9.414C13.972 9.414 13.6733 9.47467 13.3933 9.596C13.1133 9.708 12.9033 9.848 12.7633 10.016L11.7693 9.008C12.012 8.69067 12.362 8.42933 12.8193 8.224C13.286 8.01867 13.8553 7.916 14.5273 7.916C15.5167 7.916 16.254 8.14467 16.7393 8.602C17.2247 9.05933 17.4673 9.68 17.4673 10.464V15H15.8013V13.894H15.7173C15.54 14.286 15.2833 14.5987 14.9473 14.832C14.6113 15.056 14.1867 15.168 13.6733 15.168ZM14.1913 13.894C14.6393 13.894 15.0033 13.768 15.2833 13.516C15.5633 13.2547 15.7033 12.8907 15.7033 12.424V11.962L14.2893 12.074C13.5613 12.1207 13.1973 12.4287 13.1973 12.998C13.1973 13.2873 13.2907 13.5113 13.4773 13.67C13.664 13.8193 13.902 13.894 14.1913 13.894ZM23.2154 15.168C22.6741 15.168 22.2028 15.0373 21.8014 14.776C21.4094 14.5147 21.1294 14.1553 20.9614 13.698H20.8774V15H19.1974V4.85H20.9614V9.274H21.0454C21.2041 8.87267 21.4701 8.546 21.8434 8.294C22.2168 8.042 22.6741 7.916 23.2154 7.916C23.6448 7.916 24.0414 8.00467 24.4054 8.182C24.7788 8.35933 25.0961 8.61133 25.3574 8.938C25.6281 9.25533 25.8381 9.638 25.9874 10.086C26.1368 10.534 26.2114 11.0287 26.2114 11.57C26.2114 12.102 26.1368 12.592 25.9874 13.04C25.8381 13.4787 25.6281 13.8567 25.3574 14.174C25.0961 14.482 24.7788 14.7247 24.4054 14.902C24.0414 15.0793 23.6448 15.168 23.2154 15.168ZM22.6694 13.628C23.1921 13.628 23.6121 13.4413 23.9294 13.068C24.2468 12.6947 24.4054 12.186 24.4054 11.542C24.4054 10.898 24.2468 10.3893 23.9294 10.016C23.6121 9.64267 23.1921 9.456 22.6694 9.456C22.1561 9.456 21.7408 9.64267 21.4234 10.016C21.1154 10.3893 20.9614 10.898 20.9614 11.542C20.9614 12.186 21.1154 12.6947 21.4234 13.068C21.7408 13.4413 22.1561 13.628 22.6694 13.628ZM30.588 15.168C30.0093 15.168 29.5053 15.0747 29.076 14.888C28.6466 14.7013 28.2826 14.4447 27.984 14.118C27.6946 13.782 27.4753 13.3947 27.326 12.956C27.186 12.5173 27.116 12.046 27.116 11.542C27.116 11.0287 27.186 10.5527 27.326 10.114C27.466 9.666 27.676 9.28333 27.956 8.966C28.236 8.63933 28.586 8.38267 29.006 8.196C29.426 8.00933 29.916 7.916 30.476 7.916C31.036 7.916 31.526 8.00467 31.946 8.182C32.366 8.35933 32.7113 8.60667 32.982 8.924C33.2526 9.24133 33.4533 9.61933 33.584 10.058C33.724 10.4873 33.794 10.9587 33.794 11.472C33.794 11.5653 33.7846 11.6727 33.766 11.794C33.7566 11.9153 33.7426 12.0133 33.724 12.088H28.908C28.936 12.34 29.0013 12.5687 29.104 12.774C29.216 12.97 29.3513 13.138 29.51 13.278C29.678 13.418 29.86 13.5253 30.056 13.6C30.2613 13.6653 30.4713 13.698 30.686 13.698C31.0873 13.698 31.4233 13.628 31.694 13.488C31.9646 13.348 32.184 13.1707 32.352 12.956L33.346 13.992C33.0846 14.3467 32.7206 14.6313 32.254 14.846C31.7873 15.0607 31.232 15.168 30.588 15.168ZM30.476 9.26C30.028 9.26 29.664 9.40467 29.384 9.694C29.104 9.98333 28.9406 10.366 28.894 10.842H32.03C31.9833 10.366 31.82 9.98333 31.54 9.694C31.2693 9.40467 30.9146 9.26 30.476 9.26ZM35.1662 4.85H36.9302V15H35.1662V4.85Z" fill="#242E30"/>
</g>
<rect y="20" width="264" height="80" rx="14" fill="#094DAC"/>
<rect x="2" y="22" width="260" height="76" rx="13" fill="white"/>
<path d="M16 24.5H248C254.351 24.5 259.5 29.6487 259.5 36V84C259.5 90.3513 254.351 95.5 248 95.5H16C9.64873 95.5 4.5 90.3513 4.5 84V36C4.5 29.6487 9.64873 24.5 16 24.5Z" fill="white"/>
<path d="M16 24.5H248C254.351 24.5 259.5 29.6487 259.5 36V84C259.5 90.3513 254.351 95.5 248 95.5H16C9.64873 95.5 4.5 90.3513 4.5 84V36C4.5 29.6487 9.64873 24.5 16 24.5Z" stroke="#D50525"/>
<path d="M24.192 54.192C23.2853 54.192 22.5493 54.0533 21.984 53.776C21.4187 53.4987 20.9707 53.1413 20.64 52.704L21.504 51.888C21.792 52.24 22.1707 52.5173 22.64 52.72C23.12 52.9227 23.68 53.024 24.32 53.024C24.608 53.024 24.8853 52.992 25.152 52.928C25.4187 52.864 25.6533 52.768 25.856 52.64C26.0693 52.5013 26.2347 52.32 26.352 52.096C26.48 51.872 26.544 51.6 26.544 51.28C26.544 51.0027 26.48 50.768 26.352 50.576C26.224 50.3733 26.048 50.2027 25.824 50.064C25.6107 49.9147 25.3547 49.7867 25.056 49.68C24.7573 49.5627 24.432 49.4453 24.08 49.328C23.7067 49.2 23.3387 49.0667 22.976 48.928C22.6133 48.7787 22.288 48.592 22 48.368C21.712 48.144 21.4773 47.872 21.296 47.552C21.1147 47.2213 21.024 46.816 21.024 46.336C21.024 45.856 21.1093 45.4347 21.28 45.072C21.4613 44.7093 21.7067 44.4053 22.016 44.16C22.3253 43.9147 22.6933 43.728 23.12 43.6C23.5467 43.472 24.0107 43.408 24.512 43.408C25.248 43.408 25.904 43.536 26.48 43.792C27.0667 44.048 27.5413 44.4373 27.904 44.96L27.04 45.808C26.752 45.456 26.384 45.1627 25.936 44.928C25.488 44.6933 24.976 44.576 24.4 44.576C24.1547 44.576 23.9147 44.608 23.68 44.672C23.4453 44.7253 23.232 44.8213 23.04 44.96C22.848 45.0987 22.6933 45.2747 22.576 45.488C22.4587 45.7013 22.4 45.9573 22.4 46.256C22.4 46.5333 22.464 46.7733 22.592 46.976C22.72 47.168 22.8907 47.3387 23.104 47.488C23.328 47.6267 23.5893 47.7547 23.888 47.872C24.1867 47.9787 24.512 48.0907 24.864 48.208C25.2373 48.336 25.6053 48.4747 25.968 48.624C26.3307 48.7733 26.656 48.96 26.944 49.184C27.232 49.408 27.4667 49.68 27.648 50C27.8293 50.32 27.92 50.72 27.92 51.2C27.92 51.712 27.8187 52.16 27.616 52.544C27.424 52.9173 27.1573 53.2267 26.816 53.472C26.4853 53.7173 26.0907 53.8987 25.632 54.016C25.184 54.1333 24.704 54.192 24.192 54.192ZM32.5108 54.192C31.7961 54.192 31.2734 53.9787 30.9428 53.552C30.6121 53.1253 30.4468 52.5387 30.4468 51.792V47.136H29.0388V46.096H30.4468V43.952H31.7108V46.096H33.9988V47.136H31.7108V51.68C31.7108 52.192 31.8068 52.5493 31.9988 52.752C32.2014 52.9547 32.4574 53.056 32.7668 53.056C32.9801 53.056 33.1721 53.0187 33.3428 52.944C33.5134 52.8587 33.6734 52.7467 33.8228 52.608L34.3988 53.504C33.9081 53.9627 33.2788 54.192 32.5108 54.192ZM36.1413 46.096H37.3573V47.376H37.4533C37.6239 46.96 37.8693 46.6133 38.1893 46.336C38.5093 46.048 38.9093 45.904 39.3893 45.904C39.7946 45.904 40.1519 45.984 40.4613 46.144L40.0293 47.296C39.8906 47.2213 39.7413 47.1733 39.5813 47.152C39.4319 47.12 39.2773 47.104 39.1173 47.104C38.5946 47.104 38.1786 47.3173 37.8693 47.744C37.5706 48.16 37.4213 48.6933 37.4213 49.344V54H36.1413V46.096ZM43.598 44C43.598 44.224 43.518 44.416 43.358 44.576C43.2087 44.736 43.006 44.816 42.75 44.816C42.4833 44.816 42.2753 44.736 42.126 44.576C41.9767 44.416 41.902 44.224 41.902 44C41.902 43.7867 41.9767 43.6 42.126 43.44C42.2753 43.2693 42.4833 43.184 42.75 43.184C43.006 43.184 43.2087 43.2693 43.358 43.44C43.518 43.6 43.598 43.7867 43.598 44ZM42.11 46.096H43.39V54H42.11V46.096ZM46.11 46.096H47.326V47.344H47.422C47.614 46.928 47.886 46.5867 48.238 46.32C48.59 46.0427 49.038 45.904 49.582 45.904C50.4887 45.904 51.2033 46.144 51.726 46.624C52.2593 47.104 52.526 47.8773 52.526 48.944V54H51.246V49.184C51.246 48.3733 51.0807 47.8027 50.75 47.472C50.43 47.1307 49.9553 46.96 49.326 46.96C48.718 46.96 48.2433 47.168 47.902 47.584C47.5607 48 47.39 48.608 47.39 49.408V54H46.11V46.096ZM58.2464 57.152C57.5637 57.152 56.9717 57.0293 56.4704 56.784C55.969 56.5493 55.569 56.256 55.2704 55.904L56.1184 55.088C56.3424 55.3653 56.6304 55.584 56.9824 55.744C57.345 55.9147 57.745 56 58.1824 56C58.865 56 59.3984 55.8347 59.7824 55.504C60.177 55.1733 60.3744 54.592 60.3744 53.76V52.224H60.2784C60.193 52.4907 60.0704 52.7307 59.9104 52.944C59.7504 53.1467 59.5584 53.3227 59.3344 53.472C59.121 53.6107 58.881 53.7227 58.6144 53.808C58.3584 53.8827 58.097 53.92 57.8304 53.92C57.329 53.92 56.8704 53.8293 56.4544 53.648C56.049 53.4667 55.6917 53.2053 55.3824 52.864C55.0837 52.512 54.849 52.0853 54.6784 51.584C54.5184 51.0827 54.4384 50.5173 54.4384 49.888C54.4384 49.2693 54.5184 48.7147 54.6784 48.224C54.849 47.7333 55.0837 47.3173 55.3824 46.976C55.6917 46.6347 56.049 46.3733 56.4544 46.192C56.8704 46 57.329 45.904 57.8304 45.904C58.417 45.904 58.9397 46.0587 59.3984 46.368C59.8677 46.6667 60.1824 47.0827 60.3424 47.616H60.4384V46.096H61.6544V53.92C61.6544 54.8907 61.361 55.6693 60.7744 56.256C60.1984 56.8533 59.3557 57.152 58.2464 57.152ZM58.0864 52.768C58.7904 52.768 59.345 52.5227 59.7504 52.032C60.1664 51.5413 60.3744 50.832 60.3744 49.904C60.3744 48.9653 60.1664 48.256 59.7504 47.776C59.345 47.296 58.7904 47.056 58.0864 47.056C57.3717 47.056 56.801 47.296 56.3744 47.776C55.9584 48.256 55.7504 48.9653 55.7504 49.904C55.7504 50.832 55.9584 51.5413 56.3744 52.032C56.801 52.5227 57.3717 52.768 58.0864 52.768Z" fill="#242E30"/>
<g clip-path="url(#clip1_13528_7682)">
<path d="M14 118.477C12.3235 118.477 10.6846 117.979 9.29068 117.048C7.89671 116.117 6.81025 114.793 6.16868 113.244C5.52711 111.695 5.35925 109.991 5.68632 108.346C6.01339 106.702 6.8207 105.192 8.00617 104.006C9.19164 102.821 10.702 102.013 12.3463 101.686C13.9906 101.359 15.695 101.527 17.2438 102.169C18.7927 102.81 20.1166 103.897 21.048 105.291C21.9794 106.685 22.4766 108.323 22.4766 110C22.4737 112.247 21.5797 114.402 19.9906 115.991C18.4016 117.58 16.2472 118.474 14 118.477ZM14 103.164C12.648 103.164 11.3263 103.565 10.2022 104.316C9.078 105.067 8.20182 106.135 7.68442 107.384C7.16702 108.633 7.03165 110.008 7.29542 111.334C7.55918 112.66 8.21024 113.878 9.16627 114.834C10.1223 115.79 11.3403 116.441 12.6664 116.705C13.9924 116.968 15.3669 116.833 16.616 116.316C17.8651 115.798 18.9327 114.922 19.6839 113.798C20.435 112.674 20.8359 111.352 20.8359 110C20.8359 109.102 20.6591 108.213 20.3156 107.384C19.972 106.555 19.4685 105.801 18.8337 105.166C18.199 104.531 17.4454 104.028 16.616 103.684C15.7866 103.341 14.8977 103.164 14 103.164Z" fill="#D50525"/>
<path d="M12.8188 105.789C13.5914 105.572 14.4087 105.572 15.1813 105.789L14.5797 111.094H13.4203L12.8188 105.789ZM15.0938 113.281C15.0938 113.498 15.0296 113.709 14.9094 113.889C14.7892 114.069 14.6184 114.209 14.4186 114.292C14.2187 114.375 13.9988 114.396 13.7866 114.354C13.5745 114.312 13.3796 114.208 13.2266 114.055C13.0736 113.902 12.9695 113.707 12.9273 113.495C12.8851 113.282 12.9067 113.063 12.9895 112.863C13.0723 112.663 13.2125 112.492 13.3923 112.372C13.5722 112.252 13.7837 112.188 14 112.188C14.2901 112.188 14.5683 112.303 14.7734 112.508C14.9785 112.713 15.0938 112.991 15.0938 113.281Z" fill="#D50525"/>
</g>
<path d="M35.626 105.9H37.18L40.456 115H39.182L38.468 112.998H34.282L33.568 115H32.364L35.626 105.9ZM34.632 111.99H38.118L36.41 106.894H36.326L34.632 111.99ZM45.3404 113.208C45.3404 113.003 45.2937 112.835 45.2004 112.704C45.107 112.564 44.9764 112.447 44.8084 112.354C44.6497 112.261 44.4677 112.181 44.2624 112.116C44.057 112.051 43.8424 111.985 43.6184 111.92C43.357 111.845 43.105 111.757 42.8624 111.654C42.629 111.551 42.419 111.425 42.2324 111.276C42.0457 111.117 41.8964 110.931 41.7844 110.716C41.6724 110.501 41.6164 110.24 41.6164 109.932C41.6164 109.605 41.677 109.316 41.7984 109.064C41.9197 108.812 42.0877 108.602 42.3024 108.434C42.517 108.266 42.769 108.14 43.0584 108.056C43.3477 107.963 43.6604 107.916 43.9964 107.916C44.5004 107.916 44.9624 108.009 45.3824 108.196C45.8024 108.373 46.1477 108.653 46.4184 109.036L45.6904 109.708C45.485 109.465 45.2424 109.265 44.9624 109.106C44.6917 108.947 44.3697 108.868 43.9964 108.868C43.8377 108.868 43.679 108.887 43.5204 108.924C43.371 108.961 43.2357 109.022 43.1144 109.106C42.993 109.181 42.895 109.279 42.8204 109.4C42.7457 109.521 42.7084 109.666 42.7084 109.834C42.7084 110.039 42.755 110.212 42.8484 110.352C42.9417 110.483 43.0677 110.595 43.2264 110.688C43.3944 110.781 43.581 110.861 43.7864 110.926C43.9917 110.991 44.2064 111.057 44.4304 111.122C44.6917 111.197 44.939 111.285 45.1724 111.388C45.415 111.491 45.6297 111.621 45.8164 111.78C46.003 111.929 46.1524 112.111 46.2644 112.326C46.3764 112.541 46.4324 112.802 46.4324 113.11C46.4324 113.474 46.3624 113.787 46.2224 114.048C46.0917 114.3 45.9097 114.51 45.6764 114.678C45.443 114.846 45.1724 114.967 44.8644 115.042C44.5564 115.126 44.2297 115.168 43.8844 115.168C43.2777 115.168 42.7597 115.065 42.3304 114.86C41.9104 114.655 41.579 114.389 41.3364 114.062L42.0784 113.362C42.293 113.614 42.5404 113.819 42.8204 113.978C43.1097 114.137 43.469 114.216 43.8984 114.216C44.0944 114.216 44.2764 114.197 44.4444 114.16C44.6217 114.123 44.7757 114.062 44.9064 113.978C45.037 113.894 45.1397 113.791 45.2144 113.67C45.2984 113.539 45.3404 113.385 45.3404 113.208ZM51.6978 113.208C51.6978 113.003 51.6511 112.835 51.5578 112.704C51.4644 112.564 51.3338 112.447 51.1658 112.354C51.0071 112.261 50.8251 112.181 50.6198 112.116C50.4144 112.051 50.1998 111.985 49.9758 111.92C49.7144 111.845 49.4624 111.757 49.2198 111.654C48.9864 111.551 48.7764 111.425 48.5898 111.276C48.4031 111.117 48.2538 110.931 48.1418 110.716C48.0298 110.501 47.9738 110.24 47.9738 109.932C47.9738 109.605 48.0344 109.316 48.1558 109.064C48.2771 108.812 48.4451 108.602 48.6598 108.434C48.8744 108.266 49.1264 108.14 49.4158 108.056C49.7051 107.963 50.0178 107.916 50.3538 107.916C50.8578 107.916 51.3198 108.009 51.7398 108.196C52.1598 108.373 52.5051 108.653 52.7758 109.036L52.0478 109.708C51.8424 109.465 51.5998 109.265 51.3198 109.106C51.0491 108.947 50.7271 108.868 50.3538 108.868C50.1951 108.868 50.0364 108.887 49.8778 108.924C49.7284 108.961 49.5931 109.022 49.4718 109.106C49.3504 109.181 49.2524 109.279 49.1778 109.4C49.1031 109.521 49.0658 109.666 49.0658 109.834C49.0658 110.039 49.1124 110.212 49.2058 110.352C49.2991 110.483 49.4251 110.595 49.5838 110.688C49.7518 110.781 49.9384 110.861 50.1438 110.926C50.3491 110.991 50.5638 111.057 50.7878 111.122C51.0491 111.197 51.2964 111.285 51.5298 111.388C51.7724 111.491 51.9871 111.621 52.1738 111.78C52.3604 111.929 52.5098 112.111 52.6218 112.326C52.7338 112.541 52.7898 112.802 52.7898 113.11C52.7898 113.474 52.7198 113.787 52.5798 114.048C52.4491 114.3 52.2671 114.51 52.0338 114.678C51.8004 114.846 51.5298 114.967 51.2218 115.042C50.9138 115.126 50.5871 115.168 50.2418 115.168C49.6351 115.168 49.1171 115.065 48.6878 114.86C48.2678 114.655 47.9364 114.389 47.6938 114.062L48.4358 113.362C48.6504 113.614 48.8978 113.819 49.1778 113.978C49.4671 114.137 49.8264 114.216 50.2558 114.216C50.4518 114.216 50.6338 114.197 50.8018 114.16C50.9791 114.123 51.1331 114.062 51.2638 113.978C51.3944 113.894 51.4971 113.791 51.5718 113.67C51.6558 113.539 51.6978 113.385 51.6978 113.208ZM56.0252 106.25C56.0252 106.446 55.9552 106.614 55.8152 106.754C55.6845 106.894 55.5072 106.964 55.2832 106.964C55.0499 106.964 54.8679 106.894 54.7372 106.754C54.6065 106.614 54.5412 106.446 54.5412 106.25C54.5412 106.063 54.6065 105.9 54.7372 105.76C54.8679 105.611 55.0499 105.536 55.2832 105.536C55.5072 105.536 55.6845 105.611 55.8152 105.76C55.9552 105.9 56.0252 106.063 56.0252 106.25ZM54.7232 108.084H55.8432V115H54.7232V108.084ZM61.5552 113.208C61.5552 113.003 61.5085 112.835 61.4152 112.704C61.3219 112.564 61.1912 112.447 61.0232 112.354C60.8645 112.261 60.6825 112.181 60.4772 112.116C60.2719 112.051 60.0572 111.985 59.8332 111.92C59.5719 111.845 59.3199 111.757 59.0772 111.654C58.8439 111.551 58.6339 111.425 58.4472 111.276C58.2605 111.117 58.1112 110.931 57.9992 110.716C57.8872 110.501 57.8312 110.24 57.8312 109.932C57.8312 109.605 57.8919 109.316 58.0132 109.064C58.1345 108.812 58.3025 108.602 58.5172 108.434C58.7319 108.266 58.9839 108.14 59.2732 108.056C59.5625 107.963 59.8752 107.916 60.2112 107.916C60.7152 107.916 61.1772 108.009 61.5972 108.196C62.0172 108.373 62.3625 108.653 62.6332 109.036L61.9052 109.708C61.6999 109.465 61.4572 109.265 61.1772 109.106C60.9065 108.947 60.5845 108.868 60.2112 108.868C60.0525 108.868 59.8939 108.887 59.7352 108.924C59.5859 108.961 59.4505 109.022 59.3292 109.106C59.2079 109.181 59.1099 109.279 59.0352 109.4C58.9605 109.521 58.9232 109.666 58.9232 109.834C58.9232 110.039 58.9699 110.212 59.0632 110.352C59.1565 110.483 59.2825 110.595 59.4412 110.688C59.6092 110.781 59.7959 110.861 60.0012 110.926C60.2065 110.991 60.4212 111.057 60.6452 111.122C60.9065 111.197 61.1539 111.285 61.3872 111.388C61.6299 111.491 61.8445 111.621 62.0312 111.78C62.2179 111.929 62.3672 112.111 62.4792 112.326C62.5912 112.541 62.6472 112.802 62.6472 113.11C62.6472 113.474 62.5772 113.787 62.4372 114.048C62.3065 114.3 62.1245 114.51 61.8912 114.678C61.6579 114.846 61.3872 114.967 61.0792 115.042C60.7712 115.126 60.4445 115.168 60.0992 115.168C59.4925 115.168 58.9745 115.065 58.5452 114.86C58.1252 114.655 57.7939 114.389 57.5512 114.062L58.2932 113.362C58.5079 113.614 58.7552 113.819 59.0352 113.978C59.3245 114.137 59.6839 114.216 60.1132 114.216C60.3092 114.216 60.4912 114.197 60.6592 114.16C60.8365 114.123 60.9905 114.062 61.1212 113.978C61.2519 113.894 61.3545 113.791 61.4292 113.67C61.5132 113.539 61.5552 113.385 61.5552 113.208ZM66.7086 115.168C66.0833 115.168 65.626 114.981 65.3366 114.608C65.0473 114.235 64.9026 113.721 64.9026 113.068V108.994H63.6706V108.084H64.9026V106.208H66.0086V108.084H68.0106V108.994H66.0086V112.97C66.0086 113.418 66.0926 113.731 66.2606 113.908C66.438 114.085 66.662 114.174 66.9326 114.174C67.1193 114.174 67.2873 114.141 67.4366 114.076C67.586 114.001 67.726 113.903 67.8566 113.782L68.3606 114.566C67.9313 114.967 67.3806 115.168 66.7086 115.168ZM71.1873 106.25C71.1873 106.446 71.1173 106.614 70.9773 106.754C70.8466 106.894 70.6693 106.964 70.4453 106.964C70.212 106.964 70.03 106.894 69.8993 106.754C69.7686 106.614 69.7033 106.446 69.7033 106.25C69.7033 106.063 69.7686 105.9 69.8993 105.76C70.03 105.611 70.212 105.536 70.4453 105.536C70.6693 105.536 70.8466 105.611 70.9773 105.76C71.1173 105.9 71.1873 106.063 71.1873 106.25ZM69.8853 108.084H71.0053V115H69.8853V108.084ZM72.4753 108.084H73.6933L75.7793 113.852H75.8633L77.9633 108.084H79.0973L76.4093 115H75.1493L72.4753 108.084ZM83.1283 115.168C82.6337 115.168 82.181 115.084 81.7703 114.916C81.369 114.748 81.0237 114.51 80.7343 114.202C80.4543 113.885 80.235 113.502 80.0763 113.054C79.927 112.606 79.8523 112.102 79.8523 111.542C79.8523 110.954 79.9317 110.436 80.0903 109.988C80.249 109.531 80.4683 109.153 80.7483 108.854C81.0283 108.546 81.3597 108.313 81.7423 108.154C82.1343 107.995 82.5637 107.916 83.0303 107.916C83.497 107.916 83.9263 107.991 84.3183 108.14C84.7103 108.289 85.0463 108.513 85.3263 108.812C85.6063 109.101 85.8257 109.47 85.9843 109.918C86.143 110.357 86.2223 110.87 86.2223 111.458C86.2223 111.533 86.2177 111.607 86.2083 111.682C86.2083 111.757 86.2037 111.817 86.1943 111.864H80.9723C80.9723 112.191 81.0283 112.499 81.1403 112.788C81.2617 113.068 81.4203 113.315 81.6163 113.53C81.8217 113.735 82.055 113.899 82.3163 114.02C82.587 114.141 82.8763 114.202 83.1843 114.202C83.6883 114.202 84.099 114.104 84.4163 113.908C84.743 113.712 85.0137 113.474 85.2283 113.194L85.9003 113.88C85.6017 114.272 85.2283 114.585 84.7803 114.818C84.3417 115.051 83.791 115.168 83.1283 115.168ZM83.0303 108.84C82.7037 108.84 82.4143 108.901 82.1623 109.022C81.9103 109.143 81.7003 109.302 81.5323 109.498C81.3643 109.694 81.2337 109.918 81.1403 110.17C81.0563 110.422 81.0097 110.674 81.0003 110.926H85.0463C85.037 110.674 84.9857 110.422 84.8923 110.17C84.8083 109.918 84.6823 109.694 84.5143 109.498C84.3463 109.302 84.1363 109.143 83.8843 109.022C83.6417 108.901 83.357 108.84 83.0303 108.84ZM93.5192 115.168C92.8938 115.168 92.4365 114.981 92.1472 114.608C91.8578 114.235 91.7132 113.721 91.7132 113.068V108.994H90.4812V108.084H91.7132V106.208H92.8192V108.084H94.8212V108.994H92.8192V112.97C92.8192 113.418 92.9032 113.731 93.0712 113.908C93.2485 114.085 93.4725 114.174 93.7432 114.174C93.9298 114.174 94.0978 114.141 94.2472 114.076C94.3965 114.001 94.5365 113.903 94.6672 113.782L95.1712 114.566C94.7418 114.967 94.1912 115.168 93.5192 115.168ZM99.2885 115.168C98.7938 115.168 98.3412 115.084 97.9305 114.916C97.5292 114.748 97.1838 114.51 96.8945 114.202C96.6145 113.885 96.3952 113.502 96.2365 113.054C96.0872 112.606 96.0125 112.102 96.0125 111.542C96.0125 110.954 96.0918 110.436 96.2505 109.988C96.4092 109.531 96.6285 109.153 96.9085 108.854C97.1885 108.546 97.5198 108.313 97.9025 108.154C98.2945 107.995 98.7238 107.916 99.1905 107.916C99.6572 107.916 100.086 107.991 100.478 108.14C100.87 108.289 101.206 108.513 101.486 108.812C101.766 109.101 101.986 109.47 102.144 109.918C102.303 110.357 102.382 110.87 102.382 111.458C102.382 111.533 102.378 111.607 102.368 111.682C102.368 111.757 102.364 111.817 102.354 111.864H97.1325C97.1325 112.191 97.1885 112.499 97.3005 112.788C97.4218 113.068 97.5805 113.315 97.7765 113.53C97.9818 113.735 98.2152 113.899 98.4765 114.02C98.7472 114.141 99.0365 114.202 99.3445 114.202C99.8485 114.202 100.259 114.104 100.576 113.908C100.903 113.712 101.174 113.474 101.388 113.194L102.06 113.88C101.762 114.272 101.388 114.585 100.94 114.818C100.502 115.051 99.9512 115.168 99.2885 115.168ZM99.1905 108.84C98.8638 108.84 98.5745 108.901 98.3225 109.022C98.0705 109.143 97.8605 109.302 97.6925 109.498C97.5245 109.694 97.3938 109.918 97.3005 110.17C97.2165 110.422 97.1698 110.674 97.1605 110.926H101.206C101.197 110.674 101.146 110.422 101.052 110.17C100.968 109.918 100.842 109.694 100.674 109.498C100.506 109.302 100.296 109.143 100.044 109.022C99.8018 108.901 99.5172 108.84 99.1905 108.84ZM105.636 111.486L103.326 108.084H104.67L106.308 110.674H106.364L108.058 108.084H109.262L106.952 111.43L109.374 115H108.03L106.28 112.242H106.224L104.418 115H103.214L105.636 111.486ZM113.152 115.168C112.527 115.168 112.069 114.981 111.78 114.608C111.491 114.235 111.346 113.721 111.346 113.068V108.994H110.114V108.084H111.346V106.208H112.452V108.084H114.454V108.994H112.452V112.97C112.452 113.418 112.536 113.731 112.704 113.908C112.881 114.085 113.105 114.174 113.376 114.174C113.563 114.174 113.731 114.141 113.88 114.076C114.029 114.001 114.169 113.903 114.3 113.782L114.804 114.566C114.375 114.967 113.824 115.168 113.152 115.168Z" fill="#D50525"/>
<defs>
<clipPath id="clip0_13528_7682">
<rect width="34" height="20" fill="white" transform="translate(4)"/>
</clipPath>
<clipPath id="clip1_13528_7682">
<rect width="17.5" height="17.5" fill="white" transform="translate(5.25 101.25)"/>
</clipPath>
</defs>
</svg>
