<svg width="374" height="96" viewBox="0 0 374 96" fill="none" xmlns="http://www.w3.org/2000/svg">
<g clip-path="url(#clip0_7931_13903)">
<g clip-path="url(#clip1_7931_13903)">
<g clip-path="url(#clip2_7931_13903)">
<path d="M1.522 5.9H4.98C5.71733 5.9 6.35667 6.01667 6.898 6.25C7.43933 6.48333 7.88733 6.80533 8.242 7.216C8.59667 7.62667 8.858 8.10733 9.026 8.658C9.20333 9.20867 9.292 9.806 9.292 10.45C9.292 11.0847 9.20333 11.6773 9.026 12.228C8.84867 12.7787 8.58267 13.2593 8.228 13.67C7.87333 14.0807 7.42533 14.4073 6.884 14.65C6.34267 14.8833 5.708 15 4.98 15H1.522V5.9ZM4.952 13.488C5.708 13.488 6.30067 13.222 6.73 12.69C7.15933 12.1487 7.374 11.4067 7.374 10.464C7.374 9.49333 7.15933 8.742 6.73 8.21C6.30067 7.678 5.708 7.412 4.952 7.412H3.398V13.488H4.952ZM13.8126 15.168C13.2339 15.168 12.7299 15.0747 12.3006 14.888C11.8712 14.7013 11.5072 14.4447 11.2086 14.118C10.9192 13.782 10.6999 13.3947 10.5506 12.956C10.4106 12.5173 10.3406 12.046 10.3406 11.542C10.3406 11.0287 10.4106 10.5527 10.5506 10.114C10.6906 9.666 10.9006 9.28333 11.1806 8.966C11.4606 8.63933 11.8106 8.38267 12.2306 8.196C12.6506 8.00933 13.1406 7.916 13.7006 7.916C14.2606 7.916 14.7506 8.00467 15.1706 8.182C15.5906 8.35933 15.9359 8.60667 16.2066 8.924C16.4772 9.24133 16.6779 9.61933 16.8086 10.058C16.9486 10.4873 17.0186 10.9587 17.0186 11.472C17.0186 11.5653 17.0092 11.6727 16.9906 11.794C16.9812 11.9153 16.9672 12.0133 16.9486 12.088H12.1326C12.1606 12.34 12.2259 12.5687 12.3286 12.774C12.4406 12.97 12.5759 13.138 12.7346 13.278C12.9026 13.418 13.0846 13.5253 13.2806 13.6C13.4859 13.6653 13.6959 13.698 13.9106 13.698C14.3119 13.698 14.6479 13.628 14.9186 13.488C15.1892 13.348 15.4086 13.1707 15.5766 12.956L16.5706 13.992C16.3092 14.3467 15.9452 14.6313 15.4786 14.846C15.0119 15.0607 14.4566 15.168 13.8126 15.168ZM13.7006 9.26C13.2526 9.26 12.8886 9.40467 12.6086 9.694C12.3286 9.98333 12.1652 10.366 12.1186 10.842H15.2546C15.2079 10.366 15.0446 9.98333 14.7646 9.694C14.4939 9.40467 14.1392 9.26 13.7006 9.26ZM18.3908 4.85H20.1548V15H18.3908V4.85ZM23.9458 6.166C23.9458 6.42733 23.8525 6.66067 23.6658 6.866C23.4885 7.07133 23.2365 7.174 22.9098 7.174C22.5738 7.174 22.3172 7.07133 22.1398 6.866C21.9625 6.66067 21.8738 6.42733 21.8738 6.166C21.8738 5.89533 21.9625 5.662 22.1398 5.466C22.3172 5.26067 22.5738 5.158 22.9098 5.158C23.2365 5.158 23.4885 5.26067 23.6658 5.466C23.8525 5.662 23.9458 5.89533 23.9458 6.166ZM22.0138 8.084H23.7778V15H22.0138V8.084ZM24.8949 8.084H26.8269L28.4229 13.152H28.5069L30.1169 8.084H31.9229L29.3469 15H27.4569L24.8949 8.084ZM35.8653 15.168C35.2866 15.168 34.7826 15.0747 34.3533 14.888C33.924 14.7013 33.56 14.4447 33.2613 14.118C32.972 13.782 32.7526 13.3947 32.6033 12.956C32.4633 12.5173 32.3933 12.046 32.3933 11.542C32.3933 11.0287 32.4633 10.5527 32.6033 10.114C32.7433 9.666 32.9533 9.28333 33.2333 8.966C33.5133 8.63933 33.8633 8.38267 34.2833 8.196C34.7033 8.00933 35.1933 7.916 35.7533 7.916C36.3133 7.916 36.8033 8.00467 37.2233 8.182C37.6433 8.35933 37.9886 8.60667 38.2593 8.924C38.53 9.24133 38.7306 9.61933 38.8613 10.058C39.0013 10.4873 39.0713 10.9587 39.0713 11.472C39.0713 11.5653 39.062 11.6727 39.0433 11.794C39.034 11.9153 39.02 12.0133 39.0013 12.088H34.1853C34.2133 12.34 34.2786 12.5687 34.3813 12.774C34.4933 12.97 34.6286 13.138 34.7873 13.278C34.9553 13.418 35.1373 13.5253 35.3333 13.6C35.5386 13.6653 35.7486 13.698 35.9633 13.698C36.3646 13.698 36.7006 13.628 36.9713 13.488C37.242 13.348 37.4613 13.1707 37.6293 12.956L38.6233 13.992C38.362 14.3467 37.998 14.6313 37.5313 14.846C37.0646 15.0607 36.5093 15.168 35.8653 15.168ZM35.7533 9.26C35.3053 9.26 34.9413 9.40467 34.6613 9.694C34.3813 9.98333 34.218 10.366 34.1713 10.842H37.3073C37.2606 10.366 37.0973 9.98333 36.8173 9.694C36.5466 9.40467 36.192 9.26 35.7533 9.26ZM40.4435 8.084H42.1095V9.246H42.1935C42.3335 8.84467 42.5482 8.52267 42.8375 8.28C43.1362 8.03733 43.5095 7.916 43.9575 7.916C44.3029 7.916 44.6249 7.972 44.9235 8.084L44.4335 9.694C44.3309 9.62867 44.2095 9.582 44.0695 9.554C43.9295 9.526 43.7942 9.512 43.6635 9.512C43.2342 9.512 42.8842 9.66133 42.6135 9.96C42.3429 10.2493 42.2075 10.66 42.2075 11.192V15H40.4435V8.084ZM46.791 17.688C46.6603 17.688 46.5297 17.6787 46.399 17.66C46.2683 17.6507 46.1517 17.632 46.049 17.604V16.148C46.1237 16.1667 46.2217 16.1807 46.343 16.19C46.4643 16.1993 46.5763 16.204 46.679 16.204C46.8563 16.204 47.0057 16.19 47.127 16.162C47.2577 16.134 47.365 16.0827 47.449 16.008C47.5423 15.9333 47.6263 15.826 47.701 15.686C47.7757 15.546 47.855 15.3687 47.939 15.154L45.307 8.084H47.239L48.835 13.236H48.919L50.529 8.084H52.349L49.745 15.028C49.577 15.476 49.409 15.8633 49.241 16.19C49.073 16.526 48.877 16.8013 48.653 17.016C48.429 17.24 48.1677 17.408 47.869 17.52C47.5703 17.632 47.211 17.688 46.791 17.688ZM56.8224 8.084H58.4884V9.204H58.5724C58.7311 8.83067 58.9784 8.52267 59.3144 8.28C59.6598 8.03733 60.0704 7.916 60.5464 7.916C61.4238 7.916 62.0538 8.14933 62.4364 8.616C62.8284 9.07333 63.0244 9.76867 63.0244 10.702V15H61.2604V11.052C61.2604 10.492 61.1578 10.0767 60.9524 9.806C60.7564 9.53533 60.4204 9.4 59.9444 9.4C59.4964 9.4 59.1558 9.54933 58.9224 9.848C58.6984 10.1373 58.5864 10.562 58.5864 11.122V15H56.8224V8.084ZM67.8031 15.168C67.2245 15.168 66.7158 15.0747 66.2771 14.888C65.8478 14.692 65.4838 14.4307 65.1851 14.104C64.8958 13.7773 64.6765 13.3947 64.5271 12.956C64.3871 12.508 64.3171 12.0367 64.3171 11.542C64.3171 11.0473 64.3871 10.5807 64.5271 10.142C64.6765 9.70333 64.8958 9.32067 65.1851 8.994C65.4838 8.658 65.8478 8.39667 66.2771 8.21C66.7158 8.014 67.2245 7.916 67.8031 7.916C68.3818 7.916 68.8858 8.014 69.3151 8.21C69.7538 8.39667 70.1131 8.658 70.3931 8.994C70.6825 9.32067 70.8971 9.70333 71.0371 10.142C71.1865 10.5807 71.2611 11.0473 71.2611 11.542C71.2611 12.0367 71.1865 12.508 71.0371 12.956C70.8971 13.3947 70.6825 13.7773 70.3931 14.104C70.1131 14.4307 69.7538 14.692 69.3151 14.888C68.8858 15.0747 68.3818 15.168 67.8031 15.168ZM66.1231 11.542C66.1231 12.2233 66.2678 12.76 66.5571 13.152C66.8558 13.544 67.2711 13.74 67.8031 13.74C68.3258 13.74 68.7318 13.544 69.0211 13.152C69.3198 12.76 69.4691 12.2233 69.4691 11.542C69.4691 10.8607 69.3198 10.324 69.0211 9.932C68.7318 9.54 68.3258 9.344 67.8031 9.344C67.2711 9.344 66.8558 9.54 66.5571 9.932C66.2678 10.324 66.1231 10.8607 66.1231 11.542ZM75.2871 15.154C74.5218 15.154 73.9618 14.9487 73.6071 14.538C73.2618 14.1273 73.0891 13.5067 73.0891 12.676V9.498H71.9971V8.084H73.0891V6.208H74.8391V8.084H76.8551V9.498H74.8391V12.662C74.8391 13.026 74.9045 13.2873 75.0351 13.446C75.1658 13.5953 75.3618 13.67 75.6231 13.67C75.8098 13.67 75.9778 13.6373 76.1271 13.572C76.2765 13.4973 76.4071 13.4087 76.5191 13.306L77.1491 14.51C76.9158 14.734 76.6498 14.8973 76.3511 15C76.0525 15.1027 75.6978 15.154 75.2871 15.154ZM81.297 15.168C80.7183 15.168 80.2143 15.0747 79.785 14.888C79.3556 14.7013 78.9916 14.4447 78.693 14.118C78.4036 13.782 78.1843 13.3947 78.035 12.956C77.895 12.5173 77.825 12.046 77.825 11.542C77.825 11.0287 77.895 10.5527 78.035 10.114C78.175 9.666 78.385 9.28333 78.665 8.966C78.945 8.63933 79.295 8.38267 79.715 8.196C80.135 8.00933 80.625 7.916 81.185 7.916C81.745 7.916 82.235 8.00467 82.655 8.182C83.075 8.35933 83.4203 8.60667 83.691 8.924C83.9616 9.24133 84.1623 9.61933 84.293 10.058C84.433 10.4873 84.503 10.9587 84.503 11.472C84.503 11.5653 84.4936 11.6727 84.475 11.794C84.4656 11.9153 84.4516 12.0133 84.433 12.088H79.617C79.645 12.34 79.7103 12.5687 79.813 12.774C79.925 12.97 80.0603 13.138 80.219 13.278C80.387 13.418 80.569 13.5253 80.765 13.6C80.9703 13.6653 81.1803 13.698 81.395 13.698C81.7963 13.698 82.1323 13.628 82.403 13.488C82.6736 13.348 82.893 13.1707 83.061 12.956L84.055 13.992C83.7936 14.3467 83.4296 14.6313 82.963 14.846C82.4963 15.0607 81.941 15.168 81.297 15.168ZM81.185 9.26C80.737 9.26 80.373 9.40467 80.093 9.694C79.813 9.98333 79.6496 10.366 79.603 10.842H82.739C82.6923 10.366 82.529 9.98333 82.249 9.694C81.9783 9.40467 81.6236 9.26 81.185 9.26Z" fill="#242E30"/>
</g>
<path d="M99.0966 15.168C98.3873 15.168 97.762 15.042 97.2206 14.79C96.6886 14.538 96.2406 14.1973 95.8766 13.768C95.5126 13.3387 95.2373 12.8393 95.0506 12.27C94.8733 11.6913 94.7846 11.0753 94.7846 10.422C94.7846 9.76867 94.8733 9.15733 95.0506 8.588C95.2373 8.01867 95.5126 7.524 95.8766 7.104C96.2406 6.67467 96.6886 6.33867 97.2206 6.096C97.762 5.85333 98.3873 5.732 99.0966 5.732C99.7966 5.732 100.413 5.85333 100.945 6.096C101.486 6.33867 101.939 6.67467 102.303 7.104C102.667 7.524 102.937 8.01867 103.115 8.588C103.301 9.15733 103.395 9.76867 103.395 10.422C103.395 11.0753 103.301 11.6913 103.115 12.27C102.937 12.8393 102.667 13.3387 102.303 13.768C101.939 14.1973 101.486 14.538 100.945 14.79C100.413 15.042 99.7966 15.168 99.0966 15.168ZM99.0966 14.146C99.5446 14.146 99.9553 14.062 100.329 13.894C100.711 13.726 101.038 13.4833 101.309 13.166C101.579 12.8487 101.789 12.4613 101.939 12.004C102.097 11.5373 102.177 11.01 102.177 10.422C102.177 9.834 102.097 9.31133 101.939 8.854C101.789 8.39667 101.579 8.014 101.309 7.706C101.038 7.38867 100.711 7.15067 100.329 6.992C99.9553 6.83333 99.5446 6.754 99.0966 6.754C98.6486 6.754 98.2333 6.83333 97.8506 6.992C97.468 7.15067 97.1413 7.38867 96.8706 7.706C96.6 8.014 96.3853 8.39667 96.2266 8.854C96.0773 9.31133 96.0026 9.834 96.0026 10.422C96.0026 11.01 96.0773 11.5373 96.2266 12.004C96.3853 12.4613 96.6 12.8487 96.8706 13.166C97.1413 13.4833 97.468 13.726 97.8506 13.894C98.2333 14.062 98.6486 14.146 99.0966 14.146ZM105.309 8.084H106.373V9.498H106.457C106.541 9.26467 106.658 9.05 106.807 8.854C106.966 8.658 107.148 8.49 107.353 8.35C107.568 8.21 107.801 8.10267 108.053 8.028C108.314 7.95333 108.585 7.916 108.865 7.916C109.322 7.916 109.738 8.00933 110.111 8.196C110.494 8.37333 110.82 8.62533 111.091 8.952C111.362 9.26933 111.567 9.652 111.707 10.1C111.856 10.548 111.931 11.0333 111.931 11.556C111.931 12.0787 111.856 12.564 111.707 13.012C111.567 13.4507 111.362 13.8333 111.091 14.16C110.82 14.4773 110.494 14.7247 110.111 14.902C109.738 15.0793 109.322 15.168 108.865 15.168C108.296 15.168 107.806 15.0327 107.395 14.762C106.984 14.4913 106.69 14.146 106.513 13.726H106.429V17.59H105.309V8.084ZM108.585 14.16C108.893 14.16 109.178 14.1087 109.439 14.006C109.71 13.894 109.943 13.7307 110.139 13.516C110.344 13.292 110.503 13.0167 110.615 12.69C110.727 12.3633 110.783 11.9807 110.783 11.542C110.783 11.1033 110.727 10.7207 110.615 10.394C110.503 10.0673 110.344 9.79667 110.139 9.582C109.943 9.358 109.71 9.19467 109.439 9.092C109.178 8.98 108.893 8.924 108.585 8.924C108.286 8.924 108.006 8.98 107.745 9.092C107.484 9.19467 107.255 9.358 107.059 9.582C106.863 9.79667 106.709 10.0673 106.597 10.394C106.485 10.7207 106.429 11.1033 106.429 11.542C106.429 11.9807 106.485 12.3633 106.597 12.69C106.709 13.0167 106.863 13.292 107.059 13.516C107.255 13.7307 107.484 13.894 107.745 14.006C108.006 14.1087 108.286 14.16 108.585 14.16ZM115.859 15.168C115.234 15.168 114.776 14.9813 114.487 14.608C114.198 14.2347 114.053 13.7213 114.053 13.068V8.994H112.821V8.084H114.053V6.208H115.159V8.084H117.161V8.994H115.159V12.97C115.159 13.418 115.243 13.7307 115.411 13.908C115.588 14.0853 115.812 14.174 116.083 14.174C116.27 14.174 116.438 14.1413 116.587 14.076C116.736 14.0013 116.876 13.9033 117.007 13.782L117.511 14.566C117.082 14.9673 116.531 15.168 115.859 15.168ZM120.338 6.25C120.338 6.446 120.268 6.614 120.128 6.754C119.997 6.894 119.82 6.964 119.596 6.964C119.362 6.964 119.18 6.894 119.05 6.754C118.919 6.614 118.854 6.446 118.854 6.25C118.854 6.06333 118.919 5.9 119.05 5.76C119.18 5.61067 119.362 5.536 119.596 5.536C119.82 5.536 119.997 5.61067 120.128 5.76C120.268 5.9 120.338 6.06333 120.338 6.25ZM119.036 8.084H120.156V15H119.036V8.084ZM125.266 15.168C124.715 15.168 124.23 15.0747 123.81 14.888C123.399 14.692 123.054 14.4307 122.774 14.104C122.503 13.7773 122.298 13.3947 122.158 12.956C122.027 12.5173 121.962 12.046 121.962 11.542C121.962 11.038 122.027 10.5667 122.158 10.128C122.298 9.68933 122.503 9.30667 122.774 8.98C123.054 8.65333 123.399 8.39667 123.81 8.21C124.23 8.014 124.715 7.916 125.266 7.916C125.816 7.916 126.292 8.014 126.694 8.21C127.104 8.39667 127.445 8.65333 127.716 8.98C127.986 9.30667 128.187 9.68933 128.318 10.128C128.458 10.5667 128.528 11.038 128.528 11.542C128.528 12.046 128.458 12.5173 128.318 12.956C128.187 13.3947 127.986 13.7773 127.716 14.104C127.445 14.4307 127.104 14.692 126.694 14.888C126.292 15.0747 125.816 15.168 125.266 15.168ZM123.11 11.542C123.11 11.9433 123.152 12.312 123.236 12.648C123.329 12.9747 123.464 13.2593 123.642 13.502C123.819 13.7353 124.043 13.9173 124.314 14.048C124.584 14.1787 124.902 14.244 125.266 14.244C125.62 14.244 125.928 14.1787 126.19 14.048C126.46 13.9173 126.68 13.7353 126.848 13.502C127.025 13.2593 127.156 12.9747 127.24 12.648C127.333 12.312 127.38 11.9433 127.38 11.542C127.38 11.1407 127.333 10.7767 127.24 10.45C127.156 10.114 127.025 9.82933 126.848 9.596C126.68 9.35333 126.46 9.16667 126.19 9.036C125.928 8.90533 125.62 8.84 125.266 8.84C124.902 8.84 124.584 8.90533 124.314 9.036C124.043 9.16667 123.819 9.35333 123.642 9.596C123.464 9.82933 123.329 10.114 123.236 10.45C123.152 10.7767 123.11 11.1407 123.11 11.542ZM130.329 8.084H131.393V9.176H131.477C131.645 8.812 131.883 8.51333 132.191 8.28C132.499 8.03733 132.891 7.916 133.367 7.916C134.16 7.916 134.785 8.126 135.243 8.546C135.709 8.966 135.943 9.64267 135.943 10.576V15H134.823V10.786C134.823 10.0767 134.678 9.57733 134.389 9.288C134.109 8.98933 133.693 8.84 133.143 8.84C132.611 8.84 132.195 9.022 131.897 9.386C131.598 9.75 131.449 10.282 131.449 10.982V15H130.329V8.084ZM139.716 15.168C139.399 15.168 139.105 15.1167 138.834 15.014C138.573 14.9113 138.344 14.7667 138.148 14.58C137.952 14.3933 137.798 14.174 137.686 13.922C137.583 13.6607 137.532 13.376 137.532 13.068C137.532 12.4707 137.747 11.99 138.176 11.626C138.605 11.262 139.217 11.0567 140.01 11.01L141.83 10.898V10.408C141.83 9.876 141.699 9.49333 141.438 9.26C141.186 9.01733 140.822 8.896 140.346 8.896C139.945 8.896 139.599 8.97067 139.31 9.12C139.021 9.26933 138.797 9.43267 138.638 9.61L137.966 8.938C138.209 8.63933 138.535 8.39667 138.946 8.21C139.366 8.014 139.842 7.916 140.374 7.916C140.85 7.916 141.251 7.98133 141.578 8.112C141.905 8.23333 142.166 8.40133 142.362 8.616C142.567 8.83067 142.712 9.08267 142.796 9.372C142.889 9.66133 142.936 9.96933 142.936 10.296V15H141.886V13.824H141.802C141.615 14.244 141.354 14.5753 141.018 14.818C140.682 15.0513 140.248 15.168 139.716 15.168ZM139.884 14.216C140.463 14.216 140.929 14.048 141.284 13.712C141.648 13.3667 141.83 12.9093 141.83 12.34V11.738L140.066 11.864C139.133 11.9387 138.666 12.3307 138.666 13.04C138.666 13.3947 138.778 13.6793 139.002 13.894C139.235 14.1087 139.529 14.216 139.884 14.216ZM145.19 4.85H146.31V15H145.19V4.85Z" fill="#3C4C4F"/>
</g>
</g>
<path d="M1 36C1 29.6487 6.14873 24.5 12.5 24.5H361.5C367.851 24.5 373 29.6487 373 36V84C373 90.3513 367.851 95.5 361.5 95.5H12.5C6.14873 95.5 1 90.3513 1 84V36Z" fill="white"/>
<path d="M1 36C1 29.6487 6.14873 24.5 12.5 24.5H361.5C367.851 24.5 373 29.6487 373 36V84C373 90.3513 367.851 95.5 361.5 95.5H12.5C6.14873 95.5 1 90.3513 1 84V36Z" stroke="#797876"/>
<path d="M20.692 54.192C19.7853 54.192 19.0493 54.0533 18.484 53.776C17.9187 53.4987 17.4707 53.1413 17.14 52.704L18.004 51.888C18.292 52.24 18.6707 52.5173 19.14 52.72C19.62 52.9227 20.18 53.024 20.82 53.024C21.108 53.024 21.3853 52.992 21.652 52.928C21.9187 52.864 22.1533 52.768 22.356 52.64C22.5693 52.5013 22.7347 52.32 22.852 52.096C22.98 51.872 23.044 51.6 23.044 51.28C23.044 51.0027 22.98 50.768 22.852 50.576C22.724 50.3733 22.548 50.2027 22.324 50.064C22.1107 49.9147 21.8547 49.7867 21.556 49.68C21.2573 49.5627 20.932 49.4453 20.58 49.328C20.2067 49.2 19.8387 49.0667 19.476 48.928C19.1133 48.7787 18.788 48.592 18.5 48.368C18.212 48.144 17.9773 47.872 17.796 47.552C17.6147 47.2213 17.524 46.816 17.524 46.336C17.524 45.856 17.6093 45.4347 17.78 45.072C17.9613 44.7093 18.2067 44.4053 18.516 44.16C18.8253 43.9147 19.1933 43.728 19.62 43.6C20.0467 43.472 20.5107 43.408 21.012 43.408C21.748 43.408 22.404 43.536 22.98 43.792C23.5667 44.048 24.0413 44.4373 24.404 44.96L23.54 45.808C23.252 45.456 22.884 45.1627 22.436 44.928C21.988 44.6933 21.476 44.576 20.9 44.576C20.6547 44.576 20.4147 44.608 20.18 44.672C19.9453 44.7253 19.732 44.8213 19.54 44.96C19.348 45.0987 19.1933 45.2747 19.076 45.488C18.9587 45.7013 18.9 45.9573 18.9 46.256C18.9 46.5333 18.964 46.7733 19.092 46.976C19.22 47.168 19.3907 47.3387 19.604 47.488C19.828 47.6267 20.0893 47.7547 20.388 47.872C20.6867 47.9787 21.012 48.0907 21.364 48.208C21.7373 48.336 22.1053 48.4747 22.468 48.624C22.8307 48.7733 23.156 48.96 23.444 49.184C23.732 49.408 23.9667 49.68 24.148 50C24.3293 50.32 24.42 50.72 24.42 51.2C24.42 51.712 24.3187 52.16 24.116 52.544C23.924 52.9173 23.6573 53.2267 23.316 53.472C22.9853 53.7173 22.5907 53.8987 22.132 54.016C21.684 54.1333 21.204 54.192 20.692 54.192ZM29.6668 54.192C29.1014 54.192 28.5841 54.096 28.1148 53.904C27.6561 53.712 27.2614 53.44 26.9308 53.088C26.6108 52.7253 26.3601 52.288 26.1788 51.776C26.0081 51.264 25.9228 50.688 25.9228 50.048C25.9228 49.376 26.0134 48.784 26.1948 48.272C26.3761 47.7493 26.6268 47.3173 26.9468 46.976C27.2668 46.624 27.6454 46.3573 28.0828 46.176C28.5308 45.9947 29.0214 45.904 29.5548 45.904C30.0881 45.904 30.5788 45.9893 31.0268 46.16C31.4748 46.3307 31.8588 46.5867 32.1788 46.928C32.4988 47.2587 32.7494 47.68 32.9308 48.192C33.1121 48.6933 33.2028 49.28 33.2028 49.952C33.2028 50.0373 33.1974 50.1227 33.1868 50.208C33.1868 50.2933 33.1814 50.3627 33.1708 50.416H27.2028C27.2028 50.7893 27.2668 51.1413 27.3948 51.472C27.5334 51.792 27.7148 52.0747 27.9388 52.32C28.1734 52.5547 28.4401 52.7413 28.7388 52.88C29.0481 53.0187 29.3788 53.088 29.7308 53.088C30.3068 53.088 30.7761 52.976 31.1388 52.752C31.5121 52.528 31.8214 52.256 32.0668 51.936L32.8348 52.72C32.4934 53.168 32.0668 53.5253 31.5548 53.792C31.0534 54.0587 30.4241 54.192 29.6668 54.192ZM29.5548 46.96C29.1814 46.96 28.8508 47.0293 28.5628 47.168C28.2748 47.3067 28.0348 47.488 27.8428 47.712C27.6508 47.936 27.5014 48.192 27.3948 48.48C27.2988 48.768 27.2454 49.056 27.2348 49.344H31.8588C31.8481 49.056 31.7894 48.768 31.6828 48.48C31.5868 48.192 31.4428 47.936 31.2508 47.712C31.0588 47.488 30.8188 47.3067 30.5308 47.168C30.2534 47.0293 29.9281 46.96 29.5548 46.96ZM38.2743 54.192C37.6343 54.192 37.0796 54.0747 36.6103 53.84C36.1516 53.6053 35.7729 53.296 35.4743 52.912C35.1756 52.528 34.9569 52.0907 34.8183 51.6C34.6796 51.0987 34.6103 50.5813 34.6103 50.048C34.6103 49.5147 34.6796 49.0027 34.8183 48.512C34.9569 48.0107 35.1703 47.568 35.4583 47.184C35.7569 46.8 36.1356 46.4907 36.5943 46.256C37.0529 46.0213 37.6023 45.904 38.2423 45.904C38.9143 45.904 39.4636 46.016 39.8903 46.24C40.3169 46.464 40.6796 46.7627 40.9783 47.136L40.1783 47.888C39.9223 47.6107 39.6503 47.3973 39.3623 47.248C39.0849 47.088 38.7223 47.008 38.2743 47.008C37.5703 47.008 36.9996 47.28 36.5623 47.824C36.1356 48.3573 35.9223 49.0987 35.9223 50.048C35.9223 50.5173 35.9809 50.9387 36.0983 51.312C36.2156 51.6853 36.3809 52.0053 36.5943 52.272C36.8076 52.5387 37.0583 52.7413 37.3463 52.88C37.6343 53.0187 37.9543 53.088 38.3063 53.088C38.7329 53.088 39.1009 53.0133 39.4103 52.864C39.7196 52.704 40.0076 52.4747 40.2743 52.176L41.0423 52.944C40.7329 53.3173 40.3543 53.6213 39.9063 53.856C39.4583 54.08 38.9143 54.192 38.2743 54.192ZM45.6269 54.192C45.1895 54.192 44.7949 54.1333 44.4429 54.016C44.0909 53.8987 43.7869 53.7173 43.5309 53.472C43.2855 53.2267 43.0935 52.912 42.9549 52.528C42.8162 52.144 42.7469 51.6853 42.7469 51.152V46.096H44.0269V50.912C44.0269 51.7227 44.1815 52.2987 44.4909 52.64C44.8109 52.9707 45.2749 53.136 45.8829 53.136C46.4589 53.136 46.9122 52.928 47.2429 52.512C47.5842 52.096 47.7549 51.488 47.7549 50.688V46.096H49.0349V54H47.8189V52.752H47.7229C47.5309 53.168 47.2642 53.5147 46.9229 53.792C46.5922 54.0587 46.1602 54.192 45.6269 54.192ZM51.7506 46.096H52.9666V47.376H53.0626C53.2333 46.96 53.4786 46.6133 53.7986 46.336C54.1186 46.048 54.5186 45.904 54.9986 45.904C55.404 45.904 55.7613 45.984 56.0706 46.144L55.6386 47.296C55.5 47.2213 55.3506 47.1733 55.1906 47.152C55.0413 47.12 54.8866 47.104 54.7266 47.104C54.204 47.104 53.788 47.3173 53.4786 47.744C53.18 48.16 53.0306 48.6933 53.0306 49.344V54H51.7506V46.096ZM59.2074 44C59.2074 44.224 59.1274 44.416 58.9674 44.576C58.818 44.736 58.6154 44.816 58.3594 44.816C58.0927 44.816 57.8847 44.736 57.7354 44.576C57.586 44.416 57.5114 44.224 57.5114 44C57.5114 43.7867 57.586 43.6 57.7354 43.44C57.8847 43.2693 58.0927 43.184 58.3594 43.184C58.6154 43.184 58.818 43.2693 58.9674 43.44C59.1274 43.6 59.2074 43.7867 59.2074 44ZM57.7194 46.096H58.9994V54H57.7194V46.096ZM64.1514 54.192C63.4367 54.192 62.914 53.9787 62.5834 53.552C62.2527 53.1253 62.0874 52.5387 62.0874 51.792V47.136H60.6794V46.096H62.0874V43.952H63.3514V46.096H65.6394V47.136H63.3514V51.68C63.3514 52.192 63.4474 52.5493 63.6394 52.752C63.842 52.9547 64.098 53.056 64.4074 53.056C64.6207 53.056 64.8127 53.0187 64.9834 52.944C65.154 52.8587 65.314 52.7467 65.4634 52.608L66.0394 53.504C65.5487 53.9627 64.9194 54.192 64.1514 54.192ZM68.2779 57.024C68.1605 57.024 68.0379 57.0133 67.9099 56.992C67.7925 56.9813 67.6912 56.9653 67.6059 56.944V55.84C67.6592 55.8507 67.7445 55.8613 67.8619 55.872C67.9899 55.8827 68.1072 55.888 68.2139 55.888C68.4272 55.888 68.6085 55.872 68.7579 55.84C68.9072 55.808 69.0405 55.7333 69.1579 55.616C69.2859 55.5093 69.4085 55.344 69.5259 55.12C69.6432 54.9067 69.7712 54.6187 69.9099 54.256L66.7419 46.096H68.1339L70.5179 52.72H70.6139L73.0139 46.096H74.3099L71.2059 54.08C71.0032 54.6027 70.8059 55.0453 70.6139 55.408C70.4325 55.7813 70.2299 56.0853 70.0059 56.32C69.7819 56.5653 69.5312 56.7413 69.2539 56.848C68.9872 56.9653 68.6619 57.024 68.2779 57.024ZM82.9808 57.152C82.2981 57.152 81.7061 57.0293 81.2048 56.784C80.7034 56.5493 80.3034 56.256 80.0048 55.904L80.8528 55.088C81.0768 55.3653 81.3648 55.584 81.7168 55.744C82.0794 55.9147 82.4794 56 82.9168 56C83.5994 56 84.1328 55.8347 84.5168 55.504C84.9114 55.1733 85.1088 54.592 85.1088 53.76V52.224H85.0128C84.9274 52.4907 84.8048 52.7307 84.6448 52.944C84.4848 53.1467 84.2928 53.3227 84.0688 53.472C83.8554 53.6107 83.6154 53.7227 83.3488 53.808C83.0928 53.8827 82.8314 53.92 82.5648 53.92C82.0634 53.92 81.6048 53.8293 81.1888 53.648C80.7834 53.4667 80.4261 53.2053 80.1168 52.864C79.8181 52.512 79.5834 52.0853 79.4128 51.584C79.2528 51.0827 79.1728 50.5173 79.1728 49.888C79.1728 49.2693 79.2528 48.7147 79.4128 48.224C79.5834 47.7333 79.8181 47.3173 80.1168 46.976C80.4261 46.6347 80.7834 46.3733 81.1888 46.192C81.6048 46 82.0634 45.904 82.5648 45.904C83.1514 45.904 83.6741 46.0587 84.1328 46.368C84.6021 46.6667 84.9168 47.0827 85.0768 47.616H85.1728V46.096H86.3888V53.92C86.3888 54.8907 86.0954 55.6693 85.5088 56.256C84.9328 56.8533 84.0901 57.152 82.9808 57.152ZM82.8208 52.768C83.5248 52.768 84.0794 52.5227 84.4848 52.032C84.9008 51.5413 85.1088 50.832 85.1088 49.904C85.1088 48.9653 84.9008 48.256 84.4848 47.776C84.0794 47.296 83.5248 47.056 82.8208 47.056C82.1061 47.056 81.5354 47.296 81.1088 47.776C80.6928 48.256 80.4848 48.9653 80.4848 49.904C80.4848 50.832 80.6928 51.5413 81.1088 52.032C81.5354 52.5227 82.1061 52.768 82.8208 52.768ZM90.854 54.192C90.4913 54.192 90.1553 54.1333 89.846 54.016C89.5473 53.8987 89.286 53.7333 89.062 53.52C88.838 53.3067 88.662 53.056 88.534 52.768C88.4167 52.4693 88.358 52.144 88.358 51.792C88.358 51.1093 88.6033 50.56 89.094 50.144C89.5847 49.728 90.2833 49.4933 91.19 49.44L93.27 49.312V48.752C93.27 48.144 93.1207 47.7067 92.822 47.44C92.534 47.1627 92.118 47.024 91.574 47.024C91.1153 47.024 90.7207 47.1093 90.39 47.28C90.0593 47.4507 89.8033 47.6373 89.622 47.84L88.854 47.072C89.1313 46.7307 89.5047 46.4533 89.974 46.24C90.454 46.016 90.998 45.904 91.606 45.904C92.15 45.904 92.6087 45.9787 92.982 46.128C93.3553 46.2667 93.654 46.4587 93.878 46.704C94.1127 46.9493 94.278 47.2373 94.374 47.568C94.4807 47.8987 94.534 48.2507 94.534 48.624V54H93.334V52.656H93.238C93.0247 53.136 92.726 53.5147 92.342 53.792C91.958 54.0587 91.462 54.192 90.854 54.192ZM91.046 53.104C91.7073 53.104 92.2407 52.912 92.646 52.528C93.062 52.1333 93.27 51.6107 93.27 50.96V50.272L91.254 50.416C90.1873 50.5013 89.654 50.9493 89.654 51.76C89.654 52.1653 89.782 52.4907 90.038 52.736C90.3047 52.9813 90.6407 53.104 91.046 53.104ZM99.542 54.192C98.8273 54.192 98.3047 53.9787 97.974 53.552C97.6433 53.1253 97.478 52.5387 97.478 51.792V47.136H96.07V46.096H97.478V43.952H98.742V46.096H101.03V47.136H98.742V51.68C98.742 52.192 98.838 52.5493 99.03 52.752C99.2327 52.9547 99.4887 53.056 99.798 53.056C100.011 53.056 100.203 53.0187 100.374 52.944C100.545 52.8587 100.705 52.7467 100.854 52.608L101.43 53.504C100.939 53.9627 100.31 54.192 99.542 54.192ZM106.136 54.192C105.57 54.192 105.053 54.096 104.584 53.904C104.125 53.712 103.73 53.44 103.4 53.088C103.08 52.7253 102.829 52.288 102.648 51.776C102.477 51.264 102.392 50.688 102.392 50.048C102.392 49.376 102.482 48.784 102.664 48.272C102.845 47.7493 103.096 47.3173 103.416 46.976C103.736 46.624 104.114 46.3573 104.552 46.176C105 45.9947 105.49 45.904 106.024 45.904C106.557 45.904 107.048 45.9893 107.496 46.16C107.944 46.3307 108.328 46.5867 108.648 46.928C108.968 47.2587 109.218 47.68 109.4 48.192C109.581 48.6933 109.672 49.28 109.672 49.952C109.672 50.0373 109.666 50.1227 109.656 50.208C109.656 50.2933 109.65 50.3627 109.64 50.416H103.672C103.672 50.7893 103.736 51.1413 103.864 51.472C104.002 51.792 104.184 52.0747 104.408 52.32C104.642 52.5547 104.909 52.7413 105.208 52.88C105.517 53.0187 105.848 53.088 106.2 53.088C106.776 53.088 107.245 52.976 107.608 52.752C107.981 52.528 108.29 52.256 108.536 51.936L109.304 52.72C108.962 53.168 108.536 53.5253 108.024 53.792C107.522 54.0587 106.893 54.192 106.136 54.192ZM106.024 46.96C105.65 46.96 105.32 47.0293 105.032 47.168C104.744 47.3067 104.504 47.488 104.312 47.712C104.12 47.936 103.97 48.192 103.864 48.48C103.768 48.768 103.714 49.056 103.704 49.344H108.328C108.317 49.056 108.258 48.768 108.152 48.48C108.056 48.192 107.912 47.936 107.72 47.712C107.528 47.488 107.288 47.3067 107 47.168C106.722 47.0293 106.397 46.96 106.024 46.96ZM118.587 54.192C117.947 54.192 117.392 54.0747 116.923 53.84C116.464 53.6053 116.085 53.296 115.787 52.912C115.488 52.528 115.269 52.0907 115.131 51.6C114.992 51.0987 114.923 50.5813 114.923 50.048C114.923 49.5147 114.992 49.0027 115.131 48.512C115.269 48.0107 115.483 47.568 115.771 47.184C116.069 46.8 116.448 46.4907 116.907 46.256C117.365 46.0213 117.915 45.904 118.555 45.904C119.227 45.904 119.776 46.016 120.203 46.24C120.629 46.464 120.992 46.7627 121.291 47.136L120.491 47.888C120.235 47.6107 119.963 47.3973 119.675 47.248C119.397 47.088 119.035 47.008 118.587 47.008C117.883 47.008 117.312 47.28 116.875 47.824C116.448 48.3573 116.235 49.0987 116.235 50.048C116.235 50.5173 116.293 50.9387 116.411 51.312C116.528 51.6853 116.693 52.0053 116.907 52.272C117.12 52.5387 117.371 52.7413 117.659 52.88C117.947 53.0187 118.267 53.088 118.619 53.088C119.045 53.088 119.413 53.0133 119.723 52.864C120.032 52.704 120.32 52.4747 120.587 52.176L121.355 52.944C121.045 53.3173 120.667 53.6213 120.219 53.856C119.771 54.08 119.227 54.192 118.587 54.192ZM126.183 54.192C125.554 54.192 124.999 54.0853 124.519 53.872C124.05 53.648 123.655 53.3493 123.335 52.976C123.026 52.6027 122.791 52.1653 122.631 51.664C122.482 51.1627 122.407 50.624 122.407 50.048C122.407 49.472 122.482 48.9333 122.631 48.432C122.791 47.9307 123.026 47.4933 123.335 47.12C123.655 46.7467 124.05 46.4533 124.519 46.24C124.999 46.016 125.554 45.904 126.183 45.904C126.812 45.904 127.356 46.016 127.815 46.24C128.284 46.4533 128.674 46.7467 128.983 47.12C129.292 47.4933 129.522 47.9307 129.671 48.432C129.831 48.9333 129.911 49.472 129.911 50.048C129.911 50.624 129.831 51.1627 129.671 51.664C129.522 52.1653 129.292 52.6027 128.983 52.976C128.674 53.3493 128.284 53.648 127.815 53.872C127.356 54.0853 126.812 54.192 126.183 54.192ZM123.719 50.048C123.719 50.5067 123.767 50.928 123.863 51.312C123.97 51.6853 124.124 52.0107 124.327 52.288C124.53 52.5547 124.786 52.7627 125.095 52.912C125.404 53.0613 125.767 53.136 126.183 53.136C126.588 53.136 126.94 53.0613 127.239 52.912C127.548 52.7627 127.799 52.5547 127.991 52.288C128.194 52.0107 128.343 51.6853 128.439 51.312C128.546 50.928 128.599 50.5067 128.599 50.048C128.599 49.5893 128.546 49.1733 128.439 48.8C128.343 48.416 128.194 48.0907 127.991 47.824C127.799 47.5467 127.548 47.3333 127.239 47.184C126.94 47.0347 126.588 46.96 126.183 46.96C125.767 46.96 125.404 47.0347 125.095 47.184C124.786 47.3333 124.53 47.5467 124.327 47.824C124.124 48.0907 123.97 48.416 123.863 48.8C123.767 49.1733 123.719 49.5893 123.719 50.048ZM134.817 54.192C134.284 54.192 133.804 54.0907 133.377 53.888C132.951 53.6747 132.583 53.3867 132.273 53.024C131.964 52.6507 131.724 52.208 131.553 51.696C131.393 51.184 131.313 50.6293 131.313 50.032C131.313 49.4347 131.393 48.8853 131.553 48.384C131.724 47.872 131.964 47.4347 132.273 47.072C132.583 46.6987 132.951 46.4107 133.377 46.208C133.804 46.0053 134.284 45.904 134.817 45.904C135.468 45.904 136.028 46.0587 136.497 46.368C136.967 46.6773 137.303 47.072 137.505 47.552H137.601V42.4H138.881V54H137.665V52.384H137.569C137.473 52.6613 137.335 52.912 137.153 53.136C136.983 53.3493 136.775 53.536 136.529 53.696C136.295 53.856 136.028 53.9787 135.729 54.064C135.441 54.1493 135.137 54.192 134.817 54.192ZM135.137 53.04C135.479 53.04 135.799 52.9813 136.097 52.864C136.396 52.736 136.657 52.5493 136.881 52.304C137.105 52.048 137.281 51.7333 137.409 51.36C137.537 50.9867 137.601 50.5493 137.601 50.048C137.601 49.5467 137.537 49.1093 137.409 48.736C137.281 48.3627 137.105 48.0533 136.881 47.808C136.657 47.552 136.396 47.3653 136.097 47.248C135.799 47.12 135.479 47.056 135.137 47.056C134.785 47.056 134.455 47.12 134.145 47.248C133.847 47.3653 133.58 47.552 133.345 47.808C133.121 48.0533 132.945 48.3627 132.817 48.736C132.689 49.1093 132.625 49.5467 132.625 50.048C132.625 50.5493 132.689 50.9867 132.817 51.36C132.945 51.7333 133.121 52.048 133.345 52.304C133.58 52.5493 133.847 52.736 134.145 52.864C134.455 52.9813 134.785 53.04 135.137 53.04ZM144.682 54.192C144.117 54.192 143.6 54.096 143.13 53.904C142.672 53.712 142.277 53.44 141.946 53.088C141.626 52.7253 141.376 52.288 141.194 51.776C141.024 51.264 140.938 50.688 140.938 50.048C140.938 49.376 141.029 48.784 141.21 48.272C141.392 47.7493 141.642 47.3173 141.962 46.976C142.282 46.624 142.661 46.3573 143.098 46.176C143.546 45.9947 144.037 45.904 144.57 45.904C145.104 45.904 145.594 45.9893 146.042 46.16C146.49 46.3307 146.874 46.5867 147.194 46.928C147.514 47.2587 147.765 47.68 147.946 48.192C148.128 48.6933 148.218 49.28 148.218 49.952C148.218 50.0373 148.213 50.1227 148.202 50.208C148.202 50.2933 148.197 50.3627 148.186 50.416H142.218C142.218 50.7893 142.282 51.1413 142.41 51.472C142.549 51.792 142.73 52.0747 142.954 52.32C143.189 52.5547 143.456 52.7413 143.754 52.88C144.064 53.0187 144.394 53.088 144.746 53.088C145.322 53.088 145.792 52.976 146.154 52.752C146.528 52.528 146.837 52.256 147.082 51.936L147.85 52.72C147.509 53.168 147.082 53.5253 146.57 53.792C146.069 54.0587 145.44 54.192 144.682 54.192ZM144.57 46.96C144.197 46.96 143.866 47.0293 143.578 47.168C143.29 47.3067 143.05 47.488 142.858 47.712C142.666 47.936 142.517 48.192 142.41 48.48C142.314 48.768 142.261 49.056 142.25 49.344H146.874C146.864 49.056 146.805 48.768 146.698 48.48C146.602 48.192 146.458 47.936 146.266 47.712C146.074 47.488 145.834 47.3067 145.546 47.168C145.269 47.0293 144.944 46.96 144.57 46.96ZM155.614 44C155.614 44.224 155.534 44.416 155.374 44.576C155.224 44.736 155.022 44.816 154.766 44.816C154.499 44.816 154.291 44.736 154.142 44.576C153.992 44.416 153.918 44.224 153.918 44C153.918 43.7867 153.992 43.6 154.142 43.44C154.291 43.2693 154.499 43.184 154.766 43.184C155.022 43.184 155.224 43.2693 155.374 43.44C155.534 43.6 155.614 43.7867 155.614 44ZM154.126 46.096H155.406V54H154.126V46.096ZM161.934 51.952C161.934 51.7173 161.88 51.5253 161.774 51.376C161.667 51.216 161.518 51.0827 161.326 50.976C161.144 50.8693 160.936 50.7787 160.702 50.704C160.467 50.6293 160.222 50.5547 159.966 50.48C159.667 50.3947 159.379 50.2933 159.102 50.176C158.835 50.0587 158.595 49.9147 158.382 49.744C158.168 49.5627 157.998 49.3493 157.87 49.104C157.742 48.8587 157.678 48.56 157.678 48.208C157.678 47.8347 157.747 47.504 157.886 47.216C158.024 46.928 158.216 46.688 158.462 46.496C158.707 46.304 158.995 46.16 159.326 46.064C159.656 45.9573 160.014 45.904 160.398 45.904C160.974 45.904 161.502 46.0107 161.982 46.224C162.462 46.4267 162.856 46.7467 163.166 47.184L162.334 47.952C162.099 47.6747 161.822 47.4453 161.502 47.264C161.192 47.0827 160.824 46.992 160.398 46.992C160.216 46.992 160.035 47.0133 159.854 47.056C159.683 47.0987 159.528 47.168 159.39 47.264C159.251 47.3493 159.139 47.4613 159.054 47.6C158.968 47.7387 158.926 47.904 158.926 48.096C158.926 48.3307 158.979 48.528 159.086 48.688C159.192 48.8373 159.336 48.9653 159.518 49.072C159.71 49.1787 159.923 49.2693 160.158 49.344C160.392 49.4187 160.638 49.4933 160.894 49.568C161.192 49.6533 161.475 49.7547 161.742 49.872C162.019 49.9893 162.264 50.1387 162.478 50.32C162.691 50.4907 162.862 50.6987 162.99 50.944C163.118 51.1893 163.182 51.488 163.182 51.84C163.182 52.256 163.102 52.6133 162.942 52.912C162.792 53.2 162.584 53.44 162.318 53.632C162.051 53.824 161.742 53.9627 161.39 54.048C161.038 54.144 160.664 54.192 160.27 54.192C159.576 54.192 158.984 54.0747 158.494 53.84C158.014 53.6053 157.635 53.3013 157.358 52.928L158.206 52.128C158.451 52.416 158.734 52.6507 159.054 52.832C159.384 53.0133 159.795 53.104 160.286 53.104C160.51 53.104 160.718 53.0827 160.91 53.04C161.112 52.9973 161.288 52.928 161.438 52.832C161.587 52.736 161.704 52.6187 161.79 52.48C161.886 52.3307 161.934 52.1547 161.934 51.952ZM170.115 51.424H168.387L168.515 50.464H170.243L170.723 47.136H168.995L169.123 46.176H170.851L171.219 43.6H172.371L172.003 46.176H174.371L174.739 43.6H175.891L175.523 46.176H177.251L177.123 47.136H175.395L174.915 50.464H176.643L176.515 51.424H174.787L174.419 54H173.267L173.635 51.424H171.267L170.899 54H169.747L170.115 51.424ZM173.763 50.464L174.243 47.136H171.875L171.395 50.464H173.763ZM182.23 54.192C181.504 54.192 180.907 54.0693 180.438 53.824C179.968 53.5787 179.558 53.264 179.206 52.88L180.022 52.064C180.278 52.3307 180.582 52.5547 180.934 52.736C181.286 52.9173 181.702 53.008 182.182 53.008C182.854 53.008 183.387 52.832 183.782 52.48C184.187 52.1173 184.39 51.6 184.39 50.928C184.39 50.2453 184.182 49.728 183.766 49.376C183.35 49.0133 182.774 48.832 182.038 48.832H180.406L179.894 48.32V43.6H185.206V44.752H181.174V47.696H182.294C182.87 47.696 183.376 47.776 183.814 47.936C184.251 48.096 184.614 48.32 184.902 48.608C185.19 48.8853 185.408 49.2213 185.558 49.616C185.707 50.0107 185.782 50.448 185.782 50.928C185.782 51.376 185.707 51.7973 185.558 52.192C185.419 52.5867 185.2 52.9333 184.902 53.232C184.614 53.52 184.246 53.7547 183.798 53.936C183.36 54.1067 182.838 54.192 182.23 54.192ZM192.159 54.192C191.541 54.192 191.002 54.112 190.543 53.952C190.095 53.792 189.722 53.5787 189.423 53.312C189.125 53.0347 188.901 52.72 188.751 52.368C188.602 52.0053 188.527 51.6213 188.527 51.216C188.527 50.9173 188.575 50.6293 188.671 50.352C188.767 50.0747 188.906 49.824 189.087 49.6C189.269 49.3653 189.482 49.168 189.727 49.008C189.983 48.848 190.271 48.7413 190.591 48.688V48.592C190.325 48.5067 190.085 48.3787 189.871 48.208C189.669 48.0373 189.493 47.8453 189.343 47.632C189.205 47.4187 189.098 47.1947 189.023 46.96C188.949 46.7253 188.911 46.496 188.911 46.272C188.911 45.8987 188.975 45.5413 189.103 45.2C189.242 44.848 189.445 44.544 189.711 44.288C189.978 44.0213 190.314 43.808 190.719 43.648C191.125 43.488 191.605 43.408 192.159 43.408C192.703 43.408 193.178 43.488 193.583 43.648C193.989 43.808 194.325 44.0213 194.591 44.288C194.858 44.544 195.055 44.848 195.183 45.2C195.322 45.5413 195.391 45.8987 195.391 46.272C195.391 46.496 195.354 46.7253 195.279 46.96C195.205 47.1947 195.093 47.4187 194.943 47.632C194.805 47.8453 194.629 48.0373 194.415 48.208C194.213 48.3787 193.978 48.5067 193.711 48.592V48.688C194.031 48.7413 194.314 48.848 194.559 49.008C194.815 49.168 195.034 49.3653 195.215 49.6C195.397 49.824 195.535 50.0747 195.631 50.352C195.727 50.6293 195.775 50.9173 195.775 51.216C195.775 51.6213 195.701 52.0053 195.551 52.368C195.402 52.72 195.178 53.0347 194.879 53.312C194.581 53.5787 194.202 53.792 193.743 53.952C193.295 54.112 192.767 54.192 192.159 54.192ZM192.159 48.144C192.394 48.144 192.623 48.112 192.847 48.048C193.071 47.9733 193.269 47.8667 193.439 47.728C193.61 47.5787 193.743 47.3973 193.839 47.184C193.946 46.96 193.999 46.6933 193.999 46.384C193.999 46.064 193.946 45.792 193.839 45.568C193.743 45.344 193.61 45.1627 193.439 45.024C193.269 44.8747 193.071 44.768 192.847 44.704C192.623 44.6293 192.394 44.592 192.159 44.592C191.914 44.592 191.679 44.6293 191.455 44.704C191.231 44.768 191.034 44.8747 190.863 45.024C190.693 45.1627 190.554 45.344 190.447 45.568C190.351 45.792 190.303 46.064 190.303 46.384C190.303 46.6933 190.351 46.96 190.447 47.184C190.554 47.3973 190.693 47.5787 190.863 47.728C191.034 47.8667 191.231 47.9733 191.455 48.048C191.679 48.112 191.914 48.144 192.159 48.144ZM192.159 53.008C192.799 53.008 193.327 52.848 193.743 52.528C194.17 52.1973 194.383 51.7227 194.383 51.104C194.383 50.4747 194.17 50.0053 193.743 49.696C193.327 49.3867 192.799 49.232 192.159 49.232C191.519 49.232 190.986 49.3867 190.559 49.696C190.133 50.0053 189.919 50.4747 189.919 51.104C189.919 51.7227 190.133 52.1973 190.559 52.528C190.986 52.848 191.519 53.008 192.159 53.008ZM201.369 54.192C200.601 54.192 199.956 54.0533 199.433 53.776C198.921 53.4987 198.505 53.152 198.185 52.736L199.001 51.936C199.246 52.2453 199.55 52.5013 199.913 52.704C200.286 52.9067 200.756 53.008 201.321 53.008C202.004 53.008 202.542 52.848 202.937 52.528C203.332 52.1973 203.529 51.712 203.529 51.072C203.529 50.4533 203.326 50 202.921 49.712C202.516 49.424 201.998 49.28 201.369 49.28H200.409V48.128H201.321C201.95 48.128 202.414 47.9627 202.713 47.632C203.022 47.3013 203.177 46.8693 203.177 46.336C203.177 46.0267 203.124 45.7653 203.017 45.552C202.921 45.328 202.782 45.1467 202.601 45.008C202.43 44.8587 202.228 44.752 201.993 44.688C201.769 44.624 201.534 44.592 201.289 44.592C200.798 44.592 200.372 44.688 200.009 44.88C199.646 45.072 199.342 45.312 199.097 45.6L198.361 44.8C198.67 44.416 199.07 44.0907 199.561 43.824C200.062 43.5467 200.665 43.408 201.369 43.408C201.796 43.408 202.201 43.472 202.585 43.6C202.98 43.7173 203.321 43.8933 203.609 44.128C203.908 44.352 204.142 44.64 204.313 44.992C204.484 45.3333 204.569 45.728 204.569 46.176C204.569 46.7733 204.414 47.28 204.105 47.696C203.796 48.1013 203.353 48.4053 202.777 48.608V48.704C203.065 48.7573 203.337 48.8533 203.593 48.992C203.86 49.12 204.089 49.2907 204.281 49.504C204.484 49.7067 204.638 49.952 204.745 50.24C204.862 50.528 204.921 50.848 204.921 51.2C204.921 51.6587 204.836 52.0747 204.665 52.448C204.505 52.8107 204.27 53.1253 203.961 53.392C203.652 53.648 203.278 53.8453 202.841 53.984C202.404 54.1227 201.913 54.192 201.369 54.192ZM208.547 54.192C208.248 54.192 208.014 54.096 207.843 53.904C207.672 53.712 207.587 53.4933 207.587 53.248C207.587 52.992 207.672 52.7733 207.843 52.592C208.014 52.4 208.248 52.304 208.547 52.304C208.856 52.304 209.091 52.4 209.251 52.592C209.422 52.7733 209.507 52.992 209.507 53.248C209.507 53.4933 209.422 53.712 209.251 53.904C209.091 54.096 208.856 54.192 208.547 54.192ZM215.863 43.6H217.223V52.848H221.239V54H215.863V43.6ZM226.042 54.192C225.476 54.192 224.959 54.096 224.49 53.904C224.031 53.712 223.636 53.44 223.306 53.088C222.986 52.7253 222.735 52.288 222.554 51.776C222.383 51.264 222.298 50.688 222.298 50.048C222.298 49.376 222.388 48.784 222.57 48.272C222.751 47.7493 223.002 47.3173 223.322 46.976C223.642 46.624 224.02 46.3573 224.458 46.176C224.906 45.9947 225.396 45.904 225.93 45.904C226.463 45.904 226.954 45.9893 227.402 46.16C227.85 46.3307 228.234 46.5867 228.554 46.928C228.874 47.2587 229.124 47.68 229.306 48.192C229.487 48.6933 229.578 49.28 229.578 49.952C229.578 50.0373 229.572 50.1227 229.562 50.208C229.562 50.2933 229.556 50.3627 229.546 50.416H223.578C223.578 50.7893 223.642 51.1413 223.77 51.472C223.908 51.792 224.09 52.0747 224.314 52.32C224.548 52.5547 224.815 52.7413 225.114 52.88C225.423 53.0187 225.754 53.088 226.106 53.088C226.682 53.088 227.151 52.976 227.514 52.752C227.887 52.528 228.196 52.256 228.442 51.936L229.21 52.72C228.868 53.168 228.442 53.5253 227.93 53.792C227.428 54.0587 226.799 54.192 226.042 54.192ZM225.93 46.96C225.556 46.96 225.226 47.0293 224.938 47.168C224.65 47.3067 224.41 47.488 224.218 47.712C224.026 47.936 223.876 48.192 223.77 48.48C223.674 48.768 223.62 49.056 223.61 49.344H228.234C228.223 49.056 228.164 48.768 228.058 48.48C227.962 48.192 227.818 47.936 227.626 47.712C227.434 47.488 227.194 47.3067 226.906 47.168C226.628 47.0293 226.303 46.96 225.93 46.96ZM233.385 54.192C233.023 54.192 232.687 54.1333 232.377 54.016C232.079 53.8987 231.817 53.7333 231.593 53.52C231.369 53.3067 231.193 53.056 231.065 52.768C230.948 52.4693 230.889 52.144 230.889 51.792C230.889 51.1093 231.135 50.56 231.625 50.144C232.116 49.728 232.815 49.4933 233.721 49.44L235.801 49.312V48.752C235.801 48.144 235.652 47.7067 235.353 47.44C235.065 47.1627 234.649 47.024 234.105 47.024C233.647 47.024 233.252 47.1093 232.921 47.28C232.591 47.4507 232.335 47.6373 232.153 47.84L231.385 47.072C231.663 46.7307 232.036 46.4533 232.505 46.24C232.985 46.016 233.529 45.904 234.137 45.904C234.681 45.904 235.14 45.9787 235.513 46.128C235.887 46.2667 236.185 46.4587 236.409 46.704C236.644 46.9493 236.809 47.2373 236.905 47.568C237.012 47.8987 237.065 48.2507 237.065 48.624V54H235.865V52.656H235.769C235.556 53.136 235.257 53.5147 234.873 53.792C234.489 54.0587 233.993 54.192 233.385 54.192ZM233.577 53.104C234.239 53.104 234.772 52.912 235.177 52.528C235.593 52.1333 235.801 51.6107 235.801 50.96V50.272L233.785 50.416C232.719 50.5013 232.185 50.9493 232.185 51.76C232.185 52.1653 232.313 52.4907 232.569 52.736C232.836 52.9813 233.172 53.104 233.577 53.104ZM238.445 46.096H239.837L242.221 52.688H242.317L244.717 46.096H246.013L242.941 54H241.501L238.445 46.096ZM250.62 54.192C250.055 54.192 249.537 54.096 249.068 53.904C248.609 53.712 248.215 53.44 247.884 53.088C247.564 52.7253 247.313 52.288 247.132 51.776C246.961 51.264 246.876 50.688 246.876 50.048C246.876 49.376 246.967 48.784 247.148 48.272C247.329 47.7493 247.58 47.3173 247.9 46.976C248.22 46.624 248.599 46.3573 249.036 46.176C249.484 45.9947 249.975 45.904 250.508 45.904C251.041 45.904 251.532 45.9893 251.98 46.16C252.428 46.3307 252.812 46.5867 253.132 46.928C253.452 47.2587 253.703 47.68 253.884 48.192C254.065 48.6933 254.156 49.28 254.156 49.952C254.156 50.0373 254.151 50.1227 254.14 50.208C254.14 50.2933 254.135 50.3627 254.124 50.416H248.156C248.156 50.7893 248.22 51.1413 248.348 51.472C248.487 51.792 248.668 52.0747 248.892 52.32C249.127 52.5547 249.393 52.7413 249.692 52.88C250.001 53.0187 250.332 53.088 250.684 53.088C251.26 53.088 251.729 52.976 252.092 52.752C252.465 52.528 252.775 52.256 253.02 51.936L253.788 52.72C253.447 53.168 253.02 53.5253 252.508 53.792C252.007 54.0587 251.377 54.192 250.62 54.192ZM250.508 46.96C250.135 46.96 249.804 47.0293 249.516 47.168C249.228 47.3067 248.988 47.488 248.796 47.712C248.604 47.936 248.455 48.192 248.348 48.48C248.252 48.768 248.199 49.056 248.188 49.344H252.812C252.801 49.056 252.743 48.768 252.636 48.48C252.54 48.192 252.396 47.936 252.204 47.712C252.012 47.488 251.772 47.3067 251.484 47.168C251.207 47.0293 250.881 46.96 250.508 46.96ZM260.463 47.136H259.055V46.096H260.463V44.704C260.463 43.936 260.655 43.328 261.039 42.88C261.434 42.432 262.015 42.208 262.783 42.208C262.975 42.208 263.172 42.2293 263.375 42.272C263.578 42.304 263.754 42.3573 263.903 42.432L263.471 43.44C263.396 43.3973 263.295 43.3653 263.167 43.344C263.039 43.312 262.927 43.296 262.831 43.296C262.49 43.296 262.223 43.4133 262.031 43.648C261.839 43.8827 261.743 44.24 261.743 44.72V46.096H263.855V47.136H261.743V54H260.463V47.136ZM268.449 54.192C267.819 54.192 267.265 54.0853 266.785 53.872C266.315 53.648 265.921 53.3493 265.601 52.976C265.291 52.6027 265.057 52.1653 264.897 51.664C264.747 51.1627 264.673 50.624 264.673 50.048C264.673 49.472 264.747 48.9333 264.897 48.432C265.057 47.9307 265.291 47.4933 265.601 47.12C265.921 46.7467 266.315 46.4533 266.785 46.24C267.265 46.016 267.819 45.904 268.449 45.904C269.078 45.904 269.622 46.016 270.081 46.24C270.55 46.4533 270.939 46.7467 271.249 47.12C271.558 47.4933 271.787 47.9307 271.937 48.432C272.097 48.9333 272.177 49.472 272.177 50.048C272.177 50.624 272.097 51.1627 271.937 51.664C271.787 52.1653 271.558 52.6027 271.249 52.976C270.939 53.3493 270.55 53.648 270.081 53.872C269.622 54.0853 269.078 54.192 268.449 54.192ZM265.985 50.048C265.985 50.5067 266.033 50.928 266.129 51.312C266.235 51.6853 266.39 52.0107 266.593 52.288C266.795 52.5547 267.051 52.7627 267.361 52.912C267.67 53.0613 268.033 53.136 268.449 53.136C268.854 53.136 269.206 53.0613 269.505 52.912C269.814 52.7627 270.065 52.5547 270.257 52.288C270.459 52.0107 270.609 51.6853 270.705 51.312C270.811 50.928 270.865 50.5067 270.865 50.048C270.865 49.5893 270.811 49.1733 270.705 48.8C270.609 48.416 270.459 48.0907 270.257 47.824C270.065 47.5467 269.814 47.3333 269.505 47.184C269.206 47.0347 268.854 46.96 268.449 46.96C268.033 46.96 267.67 47.0347 267.361 47.184C267.051 47.3333 266.795 47.5467 266.593 47.824C266.39 48.0907 266.235 48.416 266.129 48.8C266.033 49.1733 265.985 49.5893 265.985 50.048ZM277.355 54.192C276.726 54.192 276.171 54.0853 275.691 53.872C275.222 53.648 274.827 53.3493 274.507 52.976C274.198 52.6027 273.963 52.1653 273.803 51.664C273.654 51.1627 273.579 50.624 273.579 50.048C273.579 49.472 273.654 48.9333 273.803 48.432C273.963 47.9307 274.198 47.4933 274.507 47.12C274.827 46.7467 275.222 46.4533 275.691 46.24C276.171 46.016 276.726 45.904 277.355 45.904C277.984 45.904 278.528 46.016 278.987 46.24C279.456 46.4533 279.846 46.7467 280.155 47.12C280.464 47.4933 280.694 47.9307 280.843 48.432C281.003 48.9333 281.083 49.472 281.083 50.048C281.083 50.624 281.003 51.1627 280.843 51.664C280.694 52.1653 280.464 52.6027 280.155 52.976C279.846 53.3493 279.456 53.648 278.987 53.872C278.528 54.0853 277.984 54.192 277.355 54.192ZM274.891 50.048C274.891 50.5067 274.939 50.928 275.035 51.312C275.142 51.6853 275.296 52.0107 275.499 52.288C275.702 52.5547 275.958 52.7627 276.267 52.912C276.576 53.0613 276.939 53.136 277.355 53.136C277.76 53.136 278.112 53.0613 278.411 52.912C278.72 52.7627 278.971 52.5547 279.163 52.288C279.366 52.0107 279.515 51.6853 279.611 51.312C279.718 50.928 279.771 50.5067 279.771 50.048C279.771 49.5893 279.718 49.1733 279.611 48.8C279.515 48.416 279.366 48.0907 279.163 47.824C278.971 47.5467 278.72 47.3333 278.411 47.184C278.112 47.0347 277.76 46.96 277.355 46.96C276.939 46.96 276.576 47.0347 276.267 47.184C275.958 47.3333 275.702 47.5467 275.499 47.824C275.296 48.0907 275.142 48.416 275.035 48.8C274.939 49.1733 274.891 49.5893 274.891 50.048ZM285.989 54.192C285.456 54.192 284.976 54.0907 284.549 53.888C284.123 53.6747 283.755 53.3867 283.445 53.024C283.136 52.6507 282.896 52.208 282.725 51.696C282.565 51.184 282.485 50.6293 282.485 50.032C282.485 49.4347 282.565 48.8853 282.725 48.384C282.896 47.872 283.136 47.4347 283.445 47.072C283.755 46.6987 284.123 46.4107 284.549 46.208C284.976 46.0053 285.456 45.904 285.989 45.904C286.64 45.904 287.2 46.0587 287.669 46.368C288.139 46.6773 288.475 47.072 288.677 47.552H288.773V42.4H290.053V54H288.837V52.384H288.741C288.645 52.6613 288.507 52.912 288.325 53.136C288.155 53.3493 287.947 53.536 287.701 53.696C287.467 53.856 287.2 53.9787 286.901 54.064C286.613 54.1493 286.309 54.192 285.989 54.192ZM286.309 53.04C286.651 53.04 286.971 52.9813 287.269 52.864C287.568 52.736 287.829 52.5493 288.053 52.304C288.277 52.048 288.453 51.7333 288.581 51.36C288.709 50.9867 288.773 50.5493 288.773 50.048C288.773 49.5467 288.709 49.1093 288.581 48.736C288.453 48.3627 288.277 48.0533 288.053 47.808C287.829 47.552 287.568 47.3653 287.269 47.248C286.971 47.12 286.651 47.056 286.309 47.056C285.957 47.056 285.627 47.12 285.317 47.248C285.019 47.3653 284.752 47.552 284.517 47.808C284.293 48.0533 284.117 48.3627 283.989 48.736C283.861 49.1093 283.797 49.5467 283.797 50.048C283.797 50.5493 283.861 50.9867 283.989 51.36C284.117 51.7333 284.293 52.048 284.517 52.304C284.752 52.5493 285.019 52.736 285.317 52.864C285.627 52.9813 285.957 53.04 286.309 53.04ZM298.354 54.192C297.991 54.192 297.655 54.1333 297.346 54.016C297.047 53.8987 296.786 53.7333 296.562 53.52C296.338 53.3067 296.162 53.056 296.034 52.768C295.917 52.4693 295.858 52.144 295.858 51.792C295.858 51.1093 296.103 50.56 296.594 50.144C297.085 49.728 297.783 49.4933 298.69 49.44L300.77 49.312V48.752C300.77 48.144 300.621 47.7067 300.322 47.44C300.034 47.1627 299.618 47.024 299.074 47.024C298.615 47.024 298.221 47.1093 297.89 47.28C297.559 47.4507 297.303 47.6373 297.122 47.84L296.354 47.072C296.631 46.7307 297.005 46.4533 297.474 46.24C297.954 46.016 298.498 45.904 299.106 45.904C299.65 45.904 300.109 45.9787 300.482 46.128C300.855 46.2667 301.154 46.4587 301.378 46.704C301.613 46.9493 301.778 47.2373 301.874 47.568C301.981 47.8987 302.034 48.2507 302.034 48.624V54H300.834V52.656H300.738C300.525 53.136 300.226 53.5147 299.842 53.792C299.458 54.0587 298.962 54.192 298.354 54.192ZM298.546 53.104C299.207 53.104 299.741 52.912 300.146 52.528C300.562 52.1333 300.77 51.6107 300.77 50.96V50.272L298.754 50.416C297.687 50.5013 297.154 50.9493 297.154 51.76C297.154 52.1653 297.282 52.4907 297.538 52.736C297.805 52.9813 298.141 53.104 298.546 53.104ZM307.042 54.192C306.327 54.192 305.805 53.9787 305.474 53.552C305.143 53.1253 304.978 52.5387 304.978 51.792V47.136H303.57V46.096H304.978V43.952H306.242V46.096H308.53V47.136H306.242V51.68C306.242 52.192 306.338 52.5493 306.53 52.752C306.733 52.9547 306.989 53.056 307.298 53.056C307.511 53.056 307.703 53.0187 307.874 52.944C308.045 52.8587 308.205 52.7467 308.354 52.608L308.93 53.504C308.439 53.9627 307.81 54.192 307.042 54.192ZM316.948 54.192C316.234 54.192 315.711 53.9787 315.38 53.552C315.05 53.1253 314.884 52.5387 314.884 51.792V47.136H313.476V46.096H314.884V43.952H316.148V46.096H318.436V47.136H316.148V51.68C316.148 52.192 316.244 52.5493 316.436 52.752C316.639 52.9547 316.895 53.056 317.204 53.056C317.418 53.056 317.61 53.0187 317.78 52.944C317.951 52.8587 318.111 52.7467 318.26 52.608L318.836 53.504C318.346 53.9627 317.716 54.192 316.948 54.192ZM320.579 42.4H321.859V47.216H321.955C322.136 46.8533 322.397 46.544 322.739 46.288C323.08 46.032 323.517 45.904 324.051 45.904C324.957 45.904 325.672 46.144 326.195 46.624C326.728 47.104 326.995 47.8773 326.995 48.944V54H325.715V49.184C325.715 48.3733 325.549 47.8027 325.219 47.472C324.899 47.1307 324.424 46.96 323.795 46.96C323.187 46.96 322.712 47.168 322.371 47.584C322.029 48 321.859 48.608 321.859 49.408V54H320.579V42.4ZM332.573 54.192C332.008 54.192 331.49 54.096 331.021 53.904C330.562 53.712 330.168 53.44 329.837 53.088C329.517 52.7253 329.266 52.288 329.085 51.776C328.914 51.264 328.829 50.688 328.829 50.048C328.829 49.376 328.92 48.784 329.101 48.272C329.282 47.7493 329.533 47.3173 329.853 46.976C330.173 46.624 330.552 46.3573 330.989 46.176C331.437 45.9947 331.928 45.904 332.461 45.904C332.994 45.904 333.485 45.9893 333.933 46.16C334.381 46.3307 334.765 46.5867 335.085 46.928C335.405 47.2587 335.656 47.68 335.837 48.192C336.018 48.6933 336.109 49.28 336.109 49.952C336.109 50.0373 336.104 50.1227 336.093 50.208C336.093 50.2933 336.088 50.3627 336.077 50.416H330.109C330.109 50.7893 330.173 51.1413 330.301 51.472C330.44 51.792 330.621 52.0747 330.845 52.32C331.08 52.5547 331.346 52.7413 331.645 52.88C331.954 53.0187 332.285 53.088 332.637 53.088C333.213 53.088 333.682 52.976 334.045 52.752C334.418 52.528 334.728 52.256 334.973 51.936L335.741 52.72C335.4 53.168 334.973 53.5253 334.461 53.792C333.96 54.0587 333.33 54.192 332.573 54.192ZM332.461 46.96C332.088 46.96 331.757 47.0293 331.469 47.168C331.181 47.3067 330.941 47.488 330.749 47.712C330.557 47.936 330.408 48.192 330.301 48.48C330.205 48.768 330.152 49.056 330.141 49.344H334.765C334.754 49.056 334.696 48.768 334.589 48.48C334.493 48.192 334.349 47.936 334.157 47.712C333.965 47.488 333.725 47.3067 333.437 47.168C333.16 47.0293 332.834 46.96 332.461 46.96ZM18.26 71.136H16.852V70.096H18.26V68.704C18.26 67.936 18.452 67.328 18.836 66.88C19.2307 66.432 19.812 66.208 20.58 66.208C20.772 66.208 20.9693 66.2293 21.172 66.272C21.3747 66.304 21.5507 66.3573 21.7 66.432L21.268 67.44C21.1933 67.3973 21.092 67.3653 20.964 67.344C20.836 67.312 20.724 67.296 20.628 67.296C20.2867 67.296 20.02 67.4133 19.828 67.648C19.636 67.8827 19.54 68.24 19.54 68.72V70.096H21.652V71.136H19.54V78H18.26V71.136ZM23.2194 70.096H24.4354V71.376H24.5314C24.702 70.96 24.9474 70.6133 25.2674 70.336C25.5874 70.048 25.9874 69.904 26.4674 69.904C26.8727 69.904 27.23 69.984 27.5394 70.144L27.1074 71.296C26.9687 71.2213 26.8194 71.1733 26.6594 71.152C26.51 71.12 26.3554 71.104 26.1954 71.104C25.6727 71.104 25.2567 71.3173 24.9474 71.744C24.6487 72.16 24.4994 72.6933 24.4994 73.344V78H23.2194V70.096ZM31.9175 78.192C31.2882 78.192 30.7335 78.0853 30.2535 77.872C29.7842 77.648 29.3895 77.3493 29.0695 76.976C28.7602 76.6027 28.5255 76.1653 28.3655 75.664C28.2162 75.1627 28.1415 74.624 28.1415 74.048C28.1415 73.472 28.2162 72.9333 28.3655 72.432C28.5255 71.9307 28.7602 71.4933 29.0695 71.12C29.3895 70.7467 29.7842 70.4533 30.2535 70.24C30.7335 70.016 31.2882 69.904 31.9175 69.904C32.5468 69.904 33.0908 70.016 33.5495 70.24C34.0188 70.4533 34.4082 70.7467 34.7175 71.12C35.0268 71.4933 35.2562 71.9307 35.4055 72.432C35.5655 72.9333 35.6455 73.472 35.6455 74.048C35.6455 74.624 35.5655 75.1627 35.4055 75.664C35.2562 76.1653 35.0268 76.6027 34.7175 76.976C34.4082 77.3493 34.0188 77.648 33.5495 77.872C33.0908 78.0853 32.5468 78.192 31.9175 78.192ZM29.4535 74.048C29.4535 74.5067 29.5015 74.928 29.5975 75.312C29.7042 75.6853 29.8588 76.0107 30.0615 76.288C30.2642 76.5547 30.5202 76.7627 30.8295 76.912C31.1388 77.0613 31.5015 77.136 31.9175 77.136C32.3228 77.136 32.6748 77.0613 32.9735 76.912C33.2828 76.7627 33.5335 76.5547 33.7255 76.288C33.9282 76.0107 34.0775 75.6853 34.1735 75.312C34.2802 74.928 34.3335 74.5067 34.3335 74.048C34.3335 73.5893 34.2802 73.1733 34.1735 72.8C34.0775 72.416 33.9282 72.0907 33.7255 71.824C33.5335 71.5467 33.2828 71.3333 32.9735 71.184C32.6748 71.0347 32.3228 70.96 31.9175 70.96C31.5015 70.96 31.1388 71.0347 30.8295 71.184C30.5202 71.3333 30.2642 71.5467 30.0615 71.824C29.8588 72.0907 29.7042 72.416 29.5975 72.8C29.5015 73.1733 29.4535 73.5893 29.4535 74.048ZM37.7038 70.096H38.9198V71.344H39.0158C39.2078 70.928 39.4798 70.5867 39.8318 70.32C40.1838 70.0427 40.6318 69.904 41.1758 69.904C42.0824 69.904 42.7971 70.144 43.3198 70.624C43.8531 71.104 44.1198 71.8773 44.1198 72.944V78H42.8398V73.184C42.8398 72.3733 42.6744 71.8027 42.3438 71.472C42.0238 71.1307 41.5491 70.96 40.9198 70.96C40.3118 70.96 39.8371 71.168 39.4958 71.584C39.1544 72 38.9838 72.608 38.9838 73.408V78H37.7038V70.096ZM49.1201 78.192C48.4055 78.192 47.8828 77.9787 47.5521 77.552C47.2215 77.1253 47.0561 76.5387 47.0561 75.792V71.136H45.6481V70.096H47.0561V67.952H48.3201V70.096H50.6081V71.136H48.3201V75.68C48.3201 76.192 48.4161 76.5493 48.6081 76.752C48.8108 76.9547 49.0668 77.056 49.3761 77.056C49.5895 77.056 49.7815 77.0187 49.9521 76.944C50.1228 76.8587 50.2828 76.7467 50.4321 76.608L51.0081 77.504C50.5175 77.9627 49.8881 78.192 49.1201 78.192ZM59.4424 78.192C58.909 78.192 58.429 78.0907 58.0024 77.888C57.5757 77.6747 57.2077 77.3867 56.8984 77.024C56.589 76.6507 56.349 76.208 56.1784 75.696C56.0184 75.184 55.9384 74.6293 55.9384 74.032C55.9384 73.4347 56.0184 72.8853 56.1784 72.384C56.349 71.872 56.589 71.4347 56.8984 71.072C57.2077 70.6987 57.5757 70.4107 58.0024 70.208C58.429 70.0053 58.909 69.904 59.4424 69.904C60.093 69.904 60.653 70.0587 61.1224 70.368C61.5917 70.6773 61.9277 71.072 62.1304 71.552H62.2264V66.4H63.5064V78H62.2904V76.384H62.1944C62.0984 76.6613 61.9597 76.912 61.7784 77.136C61.6077 77.3493 61.3997 77.536 61.1544 77.696C60.9197 77.856 60.653 77.9787 60.3544 78.064C60.0664 78.1493 59.7624 78.192 59.4424 78.192ZM59.7624 77.04C60.1037 77.04 60.4237 76.9813 60.7224 76.864C61.021 76.736 61.2824 76.5493 61.5064 76.304C61.7304 76.048 61.9064 75.7333 62.0344 75.36C62.1624 74.9867 62.2264 74.5493 62.2264 74.048C62.2264 73.5467 62.1624 73.1093 62.0344 72.736C61.9064 72.3627 61.7304 72.0533 61.5064 71.808C61.2824 71.552 61.021 71.3653 60.7224 71.248C60.4237 71.12 60.1037 71.056 59.7624 71.056C59.4104 71.056 59.0797 71.12 58.7704 71.248C58.4717 71.3653 58.205 71.552 57.9704 71.808C57.7464 72.0533 57.5704 72.3627 57.4424 72.736C57.3144 73.1093 57.2504 73.5467 57.2504 74.048C57.2504 74.5493 57.3144 74.9867 57.4424 75.36C57.5704 75.7333 57.7464 76.048 57.9704 76.304C58.205 76.5493 58.4717 76.736 58.7704 76.864C59.0797 76.9813 59.4104 77.04 59.7624 77.04ZM69.3394 78.192C68.71 78.192 68.1554 78.0853 67.6754 77.872C67.206 77.648 66.8114 77.3493 66.4914 76.976C66.182 76.6027 65.9474 76.1653 65.7874 75.664C65.638 75.1627 65.5634 74.624 65.5634 74.048C65.5634 73.472 65.638 72.9333 65.7874 72.432C65.9474 71.9307 66.182 71.4933 66.4914 71.12C66.8114 70.7467 67.206 70.4533 67.6754 70.24C68.1554 70.016 68.71 69.904 69.3394 69.904C69.9687 69.904 70.5127 70.016 70.9714 70.24C71.4407 70.4533 71.83 70.7467 72.1394 71.12C72.4487 71.4933 72.678 71.9307 72.8274 72.432C72.9874 72.9333 73.0674 73.472 73.0674 74.048C73.0674 74.624 72.9874 75.1627 72.8274 75.664C72.678 76.1653 72.4487 76.6027 72.1394 76.976C71.83 77.3493 71.4407 77.648 70.9714 77.872C70.5127 78.0853 69.9687 78.192 69.3394 78.192ZM66.8754 74.048C66.8754 74.5067 66.9234 74.928 67.0194 75.312C67.126 75.6853 67.2807 76.0107 67.4834 76.288C67.686 76.5547 67.942 76.7627 68.2514 76.912C68.5607 77.0613 68.9234 77.136 69.3394 77.136C69.7447 77.136 70.0967 77.0613 70.3954 76.912C70.7047 76.7627 70.9554 76.5547 71.1474 76.288C71.35 76.0107 71.4994 75.6853 71.5954 75.312C71.702 74.928 71.7554 74.5067 71.7554 74.048C71.7554 73.5893 71.702 73.1733 71.5954 72.8C71.4994 72.416 71.35 72.0907 71.1474 71.824C70.9554 71.5467 70.7047 71.3333 70.3954 71.184C70.0967 71.0347 69.7447 70.96 69.3394 70.96C68.9234 70.96 68.5607 71.0347 68.2514 71.184C67.942 71.3333 67.686 71.5467 67.4834 71.824C67.2807 72.0907 67.126 72.416 67.0194 72.8C66.9234 73.1733 66.8754 73.5893 66.8754 74.048ZM78.2456 78.192C77.6163 78.192 77.0616 78.0853 76.5816 77.872C76.1123 77.648 75.7176 77.3493 75.3976 76.976C75.0883 76.6027 74.8536 76.1653 74.6936 75.664C74.5443 75.1627 74.4696 74.624 74.4696 74.048C74.4696 73.472 74.5443 72.9333 74.6936 72.432C74.8536 71.9307 75.0883 71.4933 75.3976 71.12C75.7176 70.7467 76.1123 70.4533 76.5816 70.24C77.0616 70.016 77.6163 69.904 78.2456 69.904C78.875 69.904 79.419 70.016 79.8776 70.24C80.347 70.4533 80.7363 70.7467 81.0456 71.12C81.355 71.4933 81.5843 71.9307 81.7336 72.432C81.8936 72.9333 81.9736 73.472 81.9736 74.048C81.9736 74.624 81.8936 75.1627 81.7336 75.664C81.5843 76.1653 81.355 76.6027 81.0456 76.976C80.7363 77.3493 80.347 77.648 79.8776 77.872C79.419 78.0853 78.875 78.192 78.2456 78.192ZM75.7816 74.048C75.7816 74.5067 75.8296 74.928 75.9256 75.312C76.0323 75.6853 76.187 76.0107 76.3896 76.288C76.5923 76.5547 76.8483 76.7627 77.1576 76.912C77.467 77.0613 77.8296 77.136 78.2456 77.136C78.651 77.136 79.003 77.0613 79.3016 76.912C79.611 76.7627 79.8616 76.5547 80.0536 76.288C80.2563 76.0107 80.4056 75.6853 80.5016 75.312C80.6083 74.928 80.6616 74.5067 80.6616 74.048C80.6616 73.5893 80.6083 73.1733 80.5016 72.8C80.4056 72.416 80.2563 72.0907 80.0536 71.824C79.8616 71.5467 79.611 71.3333 79.3016 71.184C79.003 71.0347 78.651 70.96 78.2456 70.96C77.8296 70.96 77.467 71.0347 77.1576 71.184C76.8483 71.3333 76.5923 71.5467 76.3896 71.824C76.187 72.0907 76.0323 72.416 75.9256 72.8C75.8296 73.1733 75.7816 73.5893 75.7816 74.048ZM84.0319 70.096H85.2479V71.376H85.3439C85.5145 70.96 85.7599 70.6133 86.0799 70.336C86.3999 70.048 86.7999 69.904 87.2799 69.904C87.6852 69.904 88.0425 69.984 88.3519 70.144L87.9199 71.296C87.7812 71.2213 87.6319 71.1733 87.4719 71.152C87.3225 71.12 87.1679 71.104 87.0079 71.104C86.4852 71.104 86.0692 71.3173 85.7599 71.744C85.4612 72.16 85.3119 72.6933 85.3119 73.344V78H84.0319V70.096ZM89.5469 78.192C89.2482 78.192 89.0135 78.096 88.8429 77.904C88.6722 77.712 88.5869 77.4933 88.5869 77.248C88.5869 76.992 88.6722 76.7733 88.8429 76.592C89.0135 76.4 89.2482 76.304 89.5469 76.304C89.8562 76.304 90.0909 76.4 90.2509 76.592C90.4215 76.7733 90.5069 76.992 90.5069 77.248C90.5069 77.4933 90.4215 77.712 90.2509 77.904C90.0909 78.096 89.8562 78.192 89.5469 78.192Z" fill="#242E30"/>
<defs>
<clipPath id="clip0_7931_13903">
<rect width="373" height="24" fill="white" transform="translate(0.5)"/>
</clipPath>
<clipPath id="clip1_7931_13903">
<rect width="373" height="20" fill="white" transform="translate(0.5)"/>
</clipPath>
<clipPath id="clip2_7931_13903">
<rect width="85" height="20" fill="white" transform="translate(0.5)"/>
</clipPath>
</defs>
</svg>
