<svg width="1048" height="330" viewBox="0 0 1048 330" fill="none" xmlns="http://www.w3.org/2000/svg">
<rect width="1048" height="330" rx="16" fill="#1C1A17"/>
<circle cx="150" cy="165" r="97.5" fill="url(#paint0_linear_3906_11072)"/>
<rect x="881.271" y="86.7596" width="116.972" height="65.7867" rx="23.5463" fill="#31160D"/>
<rect x="881.271" y="86.7596" width="116.972" height="65.7867" rx="23.5463" stroke="#31160D" stroke-width="1.51912"/>
<path d="M898.84 126.111H903.884V115.751L899.904 117.118L898.233 113.472L905.585 110.404H909.018V126.111H913.515V130.152H898.84V126.111ZM924.487 130.517C922.988 130.517 921.701 130.254 920.628 129.727C919.554 129.18 918.673 128.451 917.985 127.539C917.296 126.608 916.78 125.524 916.435 124.289C916.111 123.033 915.949 121.696 915.949 120.278C915.949 118.86 916.111 117.534 916.435 116.298C916.78 115.042 917.296 113.959 917.985 113.047C918.673 112.115 919.554 111.386 920.628 110.86C921.701 110.313 922.988 110.039 924.487 110.039C925.985 110.039 927.272 110.313 928.345 110.86C929.439 111.386 930.33 112.115 931.019 113.047C931.728 113.959 932.244 115.042 932.568 116.298C932.913 117.534 933.085 118.86 933.085 120.278C933.085 121.696 932.913 123.033 932.568 124.289C932.244 125.524 931.728 126.608 931.019 127.539C930.33 128.451 929.439 129.18 928.345 129.727C927.272 130.254 925.985 130.517 924.487 130.517ZM924.517 126.324C925.53 126.324 926.34 125.828 926.948 124.835C927.575 123.843 927.889 122.334 927.889 120.308C927.889 118.242 927.575 116.713 926.948 115.721C926.34 114.728 925.53 114.232 924.517 114.232C923.484 114.232 922.664 114.728 922.056 115.721C921.448 116.713 921.144 118.242 921.144 120.308C921.144 122.334 921.448 123.843 922.056 124.835C922.664 125.828 923.484 126.324 924.517 126.324ZM943.327 130.517C941.828 130.517 940.542 130.254 939.469 129.727C938.395 129.18 937.514 128.451 936.825 127.539C936.137 126.608 935.62 125.524 935.276 124.289C934.952 123.033 934.79 121.696 934.79 120.278C934.79 118.86 934.952 117.534 935.276 116.298C935.62 115.042 936.137 113.959 936.825 113.047C937.514 112.115 938.395 111.386 939.469 110.86C940.542 110.313 941.828 110.039 943.327 110.039C944.826 110.039 946.112 110.313 947.186 110.86C948.279 111.386 949.171 112.115 949.859 113.047C950.568 113.959 951.085 115.042 951.409 116.298C951.753 117.534 951.925 118.86 951.925 120.278C951.925 121.696 951.753 123.033 951.409 124.289C951.085 125.524 950.568 126.608 949.859 127.539C949.171 128.451 948.279 129.18 947.186 129.727C946.112 130.254 944.826 130.517 943.327 130.517ZM943.358 126.324C944.37 126.324 945.18 125.828 945.788 124.835C946.416 123.843 946.73 122.334 946.73 120.308C946.73 118.242 946.416 116.713 945.788 115.721C945.18 114.728 944.37 114.232 943.358 114.232C942.325 114.232 941.504 114.728 940.897 115.721C940.289 116.713 939.985 118.242 939.985 120.308C939.985 122.334 940.289 123.843 940.897 124.835C941.504 125.828 942.325 126.324 943.358 126.324ZM972.194 110.404H976.63L962.988 130.152H958.522L972.194 110.404ZM959.312 121.585C958.34 121.585 957.489 121.422 956.76 121.098C956.031 120.774 955.433 120.349 954.967 119.822C954.501 119.296 954.147 118.688 953.904 117.999C953.681 117.29 953.57 116.561 953.57 115.812C953.57 115.062 953.681 114.343 953.904 113.655C954.147 112.946 954.501 112.328 954.967 111.801C955.433 111.275 956.031 110.849 956.76 110.525C957.489 110.201 958.34 110.039 959.312 110.039C960.284 110.039 961.135 110.201 961.864 110.525C962.593 110.849 963.191 111.275 963.656 111.801C964.122 112.328 964.467 112.946 964.689 113.655C964.933 114.343 965.054 115.062 965.054 115.812C965.054 116.561 964.933 117.29 964.689 117.999C964.467 118.688 964.122 119.296 963.656 119.822C963.191 120.349 962.593 120.774 961.864 121.098C961.135 121.422 960.284 121.585 959.312 121.585ZM959.312 118.577C959.899 118.577 960.406 118.374 960.831 117.969C961.256 117.544 961.469 116.825 961.469 115.812C961.469 114.819 961.256 114.11 960.831 113.685C960.406 113.26 959.899 113.047 959.312 113.047C958.745 113.047 958.238 113.26 957.793 113.685C957.367 114.11 957.155 114.819 957.155 115.812C957.155 116.825 957.367 117.544 957.793 117.969C958.238 118.374 958.745 118.577 959.312 118.577ZM975.84 130.517C974.868 130.517 974.017 130.355 973.288 130.031C972.558 129.707 971.961 129.281 971.495 128.755C971.029 128.228 970.675 127.62 970.432 126.932C970.209 126.223 970.098 125.494 970.098 124.744C970.098 123.995 970.209 123.276 970.432 122.587C970.675 121.878 971.029 121.26 971.495 120.734C971.961 120.207 972.558 119.782 973.288 119.458C974.017 119.134 974.868 118.972 975.84 118.972C976.812 118.972 977.663 119.134 978.392 119.458C979.121 119.782 979.719 120.207 980.184 120.734C980.65 121.26 980.995 121.878 981.217 122.587C981.461 123.276 981.582 123.995 981.582 124.744C981.582 125.494 981.461 126.223 981.217 126.932C980.995 127.62 980.65 128.228 980.184 128.755C979.719 129.281 979.121 129.707 978.392 130.031C977.663 130.355 976.812 130.517 975.84 130.517ZM975.84 127.509C976.427 127.509 976.934 127.307 977.359 126.901C977.784 126.476 977.997 125.757 977.997 124.744C977.997 123.752 977.784 123.043 977.359 122.618C976.934 122.192 976.427 121.98 975.84 121.98C975.273 121.98 974.766 122.192 974.321 122.618C973.895 123.043 973.683 123.752 973.683 124.744C973.683 125.757 973.895 126.476 974.321 126.901C974.766 127.307 975.273 127.509 975.84 127.509Z" fill="white" fill-opacity="0.9"/>
<path d="M607.799 175.455V190M551.868 175.455V190M495.938 175.455V190M441.442 175.455V190M385.512 175.455V190M718.225 175.455V190M774.155 175.455V190M830.085 175.455V190M884.581 175.455V190M940.512 175.455V190M662.295 174V188.545M388.38 182L939.078 182" stroke="url(#paint1_linear_3906_11072)" stroke-width="6.07646" stroke-linecap="round"/>
<path d="M939.758 166.513C938.876 166.513 938.038 166.13 937.461 165.464L925.621 151.792C924.842 150.893 924.66 149.622 925.154 148.54C925.649 147.458 926.728 146.765 927.917 146.765H951.598C952.787 146.765 953.867 147.458 954.361 148.54C954.856 149.622 954.673 150.893 953.895 151.792L942.055 165.464L941.943 165.585C941.373 166.176 940.584 166.513 939.758 166.513Z" fill="#31160D" stroke="#31160D" stroke-width="6.07646" stroke-linejoin="round"/>
<rect x="603.271" y="86.2791" width="116.972" height="65.7867" rx="23.5463" fill="#592C07"/>
<rect x="603.271" y="86.2791" width="116.972" height="65.7867" rx="23.5463" stroke="#592C07" stroke-width="1.51912"/>
<path d="M638.451 126.269H628.759V122.805L636.598 109.923H642.097L634.562 122.289H638.451V118.127H643.404V122.289H645.743V126.269H643.404V129.672H638.451V126.269ZM655.986 130.036C654.487 130.036 653.201 129.773 652.127 129.247C651.054 128.7 650.172 127.97 649.484 127.059C648.795 126.127 648.279 125.044 647.934 123.808C647.61 122.552 647.448 121.215 647.448 119.798C647.448 118.38 647.61 117.053 647.934 115.818C648.279 114.562 648.795 113.478 649.484 112.567C650.172 111.635 651.054 110.906 652.127 110.379C653.201 109.832 654.487 109.559 655.986 109.559C657.484 109.559 658.771 109.832 659.844 110.379C660.938 110.906 661.829 111.635 662.518 112.567C663.227 113.478 663.743 114.562 664.067 115.818C664.412 117.053 664.584 118.38 664.584 119.798C664.584 121.215 664.412 122.552 664.067 123.808C663.743 125.044 663.227 126.127 662.518 127.059C661.829 127.97 660.938 128.7 659.844 129.247C658.771 129.773 657.484 130.036 655.986 130.036ZM656.016 125.844C657.029 125.844 657.839 125.347 658.447 124.355C659.074 123.362 659.388 121.853 659.388 119.828C659.388 117.762 659.074 116.233 658.447 115.24C657.839 114.248 657.029 113.752 656.016 113.752C654.983 113.752 654.163 114.248 653.555 115.24C652.947 116.233 652.644 117.762 652.644 119.828C652.644 121.853 652.947 123.362 653.555 124.355C654.163 125.347 654.983 125.844 656.016 125.844ZM684.852 109.923H689.288L675.646 129.672H671.18L684.852 109.923ZM671.97 121.104C670.998 121.104 670.147 120.942 669.418 120.618C668.689 120.294 668.091 119.869 667.626 119.342C667.16 118.815 666.805 118.208 666.562 117.519C666.339 116.81 666.228 116.081 666.228 115.331C666.228 114.582 666.339 113.863 666.562 113.174C666.805 112.465 667.16 111.848 667.626 111.321C668.091 110.794 668.689 110.369 669.418 110.045C670.147 109.721 670.998 109.559 671.97 109.559C672.942 109.559 673.793 109.721 674.522 110.045C675.252 110.369 675.849 110.794 676.315 111.321C676.781 111.848 677.125 112.465 677.348 113.174C677.591 113.863 677.712 114.582 677.712 115.331C677.712 116.081 677.591 116.81 677.348 117.519C677.125 118.208 676.781 118.815 676.315 119.342C675.849 119.869 675.252 120.294 674.522 120.618C673.793 120.942 672.942 121.104 671.97 121.104ZM671.97 118.096C672.558 118.096 673.064 117.894 673.489 117.489C673.915 117.063 674.127 116.344 674.127 115.331C674.127 114.339 673.915 113.63 673.489 113.205C673.064 112.779 672.558 112.567 671.97 112.567C671.403 112.567 670.897 112.779 670.451 113.205C670.026 113.63 669.813 114.339 669.813 115.331C669.813 116.344 670.026 117.063 670.451 117.489C670.897 117.894 671.403 118.096 671.97 118.096ZM688.498 130.036C687.526 130.036 686.675 129.874 685.946 129.55C685.217 129.226 684.619 128.801 684.154 128.274C683.688 127.748 683.333 127.14 683.09 126.451C682.867 125.742 682.756 125.013 682.756 124.264C682.756 123.514 682.867 122.795 683.09 122.107C683.333 121.398 683.688 120.78 684.154 120.253C684.619 119.727 685.217 119.301 685.946 118.977C686.675 118.653 687.526 118.491 688.498 118.491C689.47 118.491 690.321 118.653 691.05 118.977C691.779 119.301 692.377 119.727 692.843 120.253C693.309 120.78 693.653 121.398 693.876 122.107C694.119 122.795 694.24 123.514 694.24 124.264C694.24 125.013 694.119 125.742 693.876 126.451C693.653 127.14 693.309 127.748 692.843 128.274C692.377 128.801 691.779 129.226 691.05 129.55C690.321 129.874 689.47 130.036 688.498 130.036ZM688.498 127.029C689.086 127.029 689.592 126.826 690.017 126.421C690.443 125.996 690.655 125.277 690.655 124.264C690.655 123.271 690.443 122.562 690.017 122.137C689.592 121.712 689.086 121.499 688.498 121.499C687.931 121.499 687.425 121.712 686.979 122.137C686.554 122.562 686.341 123.271 686.341 124.264C686.341 125.277 686.554 125.996 686.979 126.421C687.425 126.826 687.931 127.029 688.498 127.029Z" fill="white" fill-opacity="0.9"/>
<path d="M661.758 164.515C660.876 164.515 660.038 164.132 659.461 163.466L647.621 149.794C646.842 148.895 646.66 147.624 647.154 146.542C647.649 145.46 648.728 144.767 649.917 144.767H673.598C674.787 144.767 675.867 145.46 676.361 146.542C676.856 147.624 676.673 148.895 675.895 149.794L664.055 163.466L663.943 163.587C663.373 164.178 662.584 164.515 661.758 164.515Z" fill="#592C07" stroke="#592C07" stroke-width="6.07646" stroke-linejoin="round"/>
<rect x="327.271" y="86.2791" width="116.972" height="65.7867" rx="23.5463" fill="#A04C01"/>
<rect x="327.271" y="86.2791" width="116.972" height="65.7867" rx="23.5463" stroke="#A04C01" stroke-width="1.51912"/>
<path d="M370.645 130.036C369.146 130.036 367.86 129.773 366.786 129.247C365.713 128.7 364.832 127.97 364.143 127.059C363.454 126.127 362.938 125.044 362.594 123.808C362.27 122.552 362.108 121.215 362.108 119.798C362.108 118.38 362.27 117.053 362.594 115.818C362.938 114.562 363.454 113.478 364.143 112.567C364.832 111.635 365.713 110.906 366.786 110.379C367.86 109.832 369.146 109.559 370.645 109.559C372.144 109.559 373.43 109.832 374.504 110.379C375.597 110.906 376.489 111.635 377.177 112.567C377.886 113.478 378.403 114.562 378.727 115.818C379.071 117.053 379.243 118.38 379.243 119.798C379.243 121.215 379.071 122.552 378.727 123.808C378.403 125.044 377.886 126.127 377.177 127.059C376.489 127.97 375.597 128.7 374.504 129.247C373.43 129.773 372.144 130.036 370.645 130.036ZM370.675 125.844C371.688 125.844 372.498 125.347 373.106 124.355C373.734 123.362 374.048 121.853 374.048 119.828C374.048 117.762 373.734 116.233 373.106 115.24C372.498 114.248 371.688 113.752 370.675 113.752C369.642 113.752 368.822 114.248 368.214 115.24C367.607 116.233 367.303 117.762 367.303 119.828C367.303 121.853 367.607 123.362 368.214 124.355C368.822 125.347 369.642 125.844 370.675 125.844ZM399.512 109.923H403.948L390.306 129.672H385.84L399.512 109.923ZM386.63 121.104C385.657 121.104 384.807 120.942 384.078 120.618C383.348 120.294 382.751 119.869 382.285 119.342C381.819 118.815 381.465 118.208 381.222 117.519C380.999 116.81 380.887 116.081 380.887 115.331C380.887 114.582 380.999 113.863 381.222 113.174C381.465 112.465 381.819 111.848 382.285 111.321C382.751 110.794 383.348 110.369 384.078 110.045C384.807 109.721 385.657 109.559 386.63 109.559C387.602 109.559 388.453 109.721 389.182 110.045C389.911 110.369 390.508 110.794 390.974 111.321C391.44 111.848 391.784 112.465 392.007 113.174C392.25 113.863 392.372 114.582 392.372 115.331C392.372 116.081 392.25 116.81 392.007 117.519C391.784 118.208 391.44 118.815 390.974 119.342C390.508 119.869 389.911 120.294 389.182 120.618C388.453 120.942 387.602 121.104 386.63 121.104ZM386.63 118.096C387.217 118.096 387.723 117.894 388.149 117.489C388.574 117.063 388.787 116.344 388.787 115.331C388.787 114.339 388.574 113.63 388.149 113.205C387.723 112.779 387.217 112.567 386.63 112.567C386.062 112.567 385.556 112.779 385.111 113.205C384.685 113.63 384.472 114.339 384.472 115.331C384.472 116.344 384.685 117.063 385.111 117.489C385.556 117.894 386.062 118.096 386.63 118.096ZM403.158 130.036C402.185 130.036 401.335 129.874 400.605 129.55C399.876 129.226 399.279 128.801 398.813 128.274C398.347 127.748 397.993 127.14 397.75 126.451C397.527 125.742 397.415 125.013 397.415 124.264C397.415 123.514 397.527 122.795 397.75 122.107C397.993 121.398 398.347 120.78 398.813 120.253C399.279 119.727 399.876 119.301 400.605 118.977C401.335 118.653 402.185 118.491 403.158 118.491C404.13 118.491 404.981 118.653 405.71 118.977C406.439 119.301 407.036 119.727 407.502 120.253C407.968 120.78 408.312 121.398 408.535 122.107C408.778 122.795 408.9 123.514 408.9 124.264C408.9 125.013 408.778 125.742 408.535 126.451C408.312 127.14 407.968 127.748 407.502 128.274C407.036 128.801 406.439 129.226 405.71 129.55C404.981 129.874 404.13 130.036 403.158 130.036ZM403.158 127.029C403.745 127.029 404.251 126.826 404.677 126.421C405.102 125.996 405.315 125.277 405.315 124.264C405.315 123.271 405.102 122.562 404.677 122.137C404.251 121.712 403.745 121.499 403.158 121.499C402.59 121.499 402.084 121.712 401.638 122.137C401.213 122.562 401 123.271 401 124.264C401 125.277 401.213 125.996 401.638 126.421C402.084 126.826 402.59 127.029 403.158 127.029Z" fill="white" fill-opacity="0.9"/>
<path d="M385.758 164.513C384.876 164.513 384.038 164.13 383.461 163.464L371.621 149.792C370.842 148.893 370.66 147.622 371.154 146.54C371.649 145.458 372.728 144.765 373.917 144.765H397.598C398.787 144.765 399.867 145.458 400.361 146.54C400.856 147.622 400.673 148.893 399.895 149.792L388.055 163.464L387.943 163.585C387.373 164.176 386.584 164.513 385.758 164.513Z" fill="#A04C01" stroke="#A04C01" stroke-width="6.07646" stroke-linejoin="round"/>
<rect x="327.481" y="201.305" width="111.01" height="43" rx="20" fill="#A04C01"/>
<path d="M340.626 229.545C339.773 229.545 339.02 229.411 338.366 229.145C337.726 228.865 337.193 228.491 336.766 228.025C336.34 227.545 336.013 226.991 335.786 226.365C335.573 225.738 335.466 225.071 335.466 224.365C335.466 223.658 335.573 222.991 335.786 222.365C336.013 221.738 336.34 221.191 336.766 220.725C337.193 220.245 337.726 219.871 338.366 219.605C339.02 219.325 339.773 219.185 340.626 219.185C341.48 219.185 342.226 219.325 342.866 219.605C343.506 219.871 344.04 220.245 344.466 220.725C344.893 221.191 345.213 221.738 345.426 222.365C345.653 222.991 345.766 223.658 345.766 224.365C345.766 225.071 345.653 225.738 345.426 226.365C345.213 226.991 344.893 227.545 344.466 228.025C344.04 228.491 343.506 228.865 342.866 229.145C342.226 229.411 341.48 229.545 340.626 229.545ZM338.706 224.365C338.706 225.218 338.886 225.871 339.246 226.325C339.606 226.778 340.066 227.005 340.626 227.005C341.186 227.005 341.64 226.778 341.986 226.325C342.346 225.871 342.526 225.218 342.526 224.365C342.526 223.511 342.346 222.858 341.986 222.405C341.64 221.951 341.186 221.725 340.626 221.725C340.066 221.725 339.606 221.951 339.246 222.405C338.886 222.858 338.706 223.511 338.706 224.365ZM347.316 219.425H350.296V221.125H350.416C350.616 220.511 350.929 220.038 351.356 219.705C351.796 219.358 352.349 219.185 353.016 219.185C353.536 219.185 354.003 219.251 354.416 219.385L353.616 222.305C353.469 222.211 353.296 222.145 353.096 222.105C352.909 222.051 352.723 222.025 352.536 222.025C351.936 222.025 351.443 222.198 351.056 222.545C350.683 222.878 350.496 223.411 350.496 224.145V229.305H347.316V219.425ZM357.925 229.545C357.485 229.545 357.058 229.478 356.645 229.345C356.245 229.211 355.892 229.018 355.585 228.765C355.292 228.498 355.052 228.178 354.865 227.805C354.692 227.431 354.605 227.005 354.605 226.525C354.605 225.618 354.925 224.905 355.565 224.385C356.218 223.865 357.238 223.565 358.625 223.485L360.725 223.365V223.205C360.725 222.925 360.665 222.698 360.545 222.525C360.438 222.351 360.292 222.218 360.105 222.125C359.932 222.018 359.725 221.945 359.485 221.905C359.258 221.865 359.025 221.845 358.785 221.845C358.412 221.845 358.032 221.911 357.645 222.045C357.258 222.178 356.972 222.365 356.785 222.605L355.045 220.805C355.405 220.351 355.932 219.971 356.625 219.665C357.318 219.345 358.225 219.185 359.345 219.185C360.772 219.185 361.885 219.511 362.685 220.165C363.498 220.818 363.905 221.758 363.905 222.985V229.305H360.925V227.785H360.805C360.552 228.305 360.185 228.731 359.705 229.065C359.238 229.385 358.645 229.545 357.925 229.545ZM359.005 227.385C359.512 227.385 359.925 227.251 360.245 226.985C360.565 226.705 360.725 226.285 360.725 225.725V225.205L359.065 225.325C358.638 225.351 358.318 225.458 358.105 225.645C357.905 225.831 357.805 226.078 357.805 226.385C357.805 226.731 357.918 226.985 358.145 227.145C358.385 227.305 358.672 227.385 359.005 227.385ZM365.89 219.425H368.87V221.065H368.99C369.19 220.518 369.55 220.071 370.07 219.725C370.603 219.365 371.21 219.185 371.89 219.185C372.543 219.185 373.09 219.278 373.53 219.465C373.983 219.638 374.343 219.898 374.61 220.245C374.877 220.591 375.063 221.025 375.17 221.545C375.29 222.051 375.35 222.631 375.35 223.285V229.305H372.17V223.925C372.17 223.298 372.063 222.805 371.85 222.445C371.637 222.071 371.237 221.885 370.65 221.885C370.09 221.885 369.683 222.058 369.43 222.405C369.19 222.751 369.07 223.258 369.07 223.925V229.305H365.89V219.425ZM381.534 233.245C380.668 233.245 379.888 233.091 379.194 232.785C378.501 232.491 377.994 232.131 377.674 231.705L379.534 229.805C379.708 230.031 379.988 230.218 380.374 230.365C380.761 230.525 381.154 230.605 381.554 230.605C381.808 230.605 382.061 230.578 382.314 230.525C382.568 230.471 382.794 230.378 382.994 230.245C383.194 230.111 383.354 229.931 383.474 229.705C383.608 229.478 383.674 229.191 383.674 228.845V226.985H383.594C383.381 227.505 383.041 227.938 382.574 228.285C382.108 228.618 381.501 228.785 380.754 228.785C380.154 228.785 379.614 228.671 379.134 228.445C378.654 228.205 378.241 227.871 377.894 227.445C377.561 227.005 377.301 226.485 377.114 225.885C376.928 225.285 376.834 224.625 376.834 223.905C376.834 223.198 376.928 222.558 377.114 221.985C377.301 221.398 377.568 220.905 377.914 220.505C378.261 220.091 378.674 219.771 379.154 219.545C379.648 219.318 380.194 219.205 380.794 219.205C381.541 219.205 382.154 219.371 382.634 219.705C383.128 220.025 383.494 220.478 383.734 221.065H383.854V219.425H386.854V228.905C386.854 229.611 386.728 230.231 386.474 230.765C386.221 231.311 385.861 231.765 385.394 232.125C384.928 232.498 384.368 232.778 383.714 232.965C383.061 233.151 382.334 233.245 381.534 233.245ZM381.874 226.205C382.181 226.205 382.448 226.145 382.674 226.025C382.901 225.891 383.088 225.725 383.234 225.525C383.381 225.311 383.488 225.071 383.554 224.805C383.634 224.538 383.674 224.258 383.674 223.965C383.674 223.671 383.634 223.391 383.554 223.125C383.488 222.858 383.381 222.625 383.234 222.425C383.088 222.211 382.901 222.045 382.674 221.925C382.448 221.791 382.181 221.725 381.874 221.725C381.568 221.725 381.301 221.791 381.074 221.925C380.848 222.045 380.661 222.211 380.514 222.425C380.368 222.625 380.254 222.858 380.174 223.125C380.108 223.391 380.074 223.671 380.074 223.965C380.074 224.258 380.108 224.538 380.174 224.805C380.254 225.071 380.368 225.311 380.514 225.525C380.661 225.725 380.848 225.891 381.074 226.025C381.301 226.145 381.568 226.205 381.874 226.205ZM393.536 229.545C392.629 229.545 391.849 229.398 391.196 229.105C390.556 228.811 390.029 228.425 389.616 227.945C389.203 227.465 388.896 226.918 388.696 226.305C388.496 225.678 388.396 225.031 388.396 224.365C388.396 223.711 388.483 223.071 388.656 222.445C388.843 221.818 389.129 221.265 389.516 220.785C389.916 220.305 390.429 219.918 391.056 219.625C391.683 219.331 392.449 219.185 393.356 219.185C394.263 219.185 395.029 219.331 395.656 219.625C396.283 219.905 396.783 220.285 397.156 220.765C397.543 221.231 397.816 221.771 397.976 222.385C398.149 222.998 398.236 223.631 398.236 224.285C398.236 224.431 398.223 224.625 398.196 224.865C398.169 225.091 398.136 225.265 398.096 225.385H391.616C391.669 225.678 391.769 225.925 391.916 226.125C392.076 226.325 392.256 226.485 392.456 226.605C392.656 226.725 392.863 226.811 393.076 226.865C393.303 226.918 393.516 226.945 393.716 226.945C394.183 226.945 394.583 226.871 394.916 226.725C395.263 226.578 395.529 226.385 395.716 226.145L397.456 227.965C397.136 228.431 396.629 228.811 395.936 229.105C395.243 229.398 394.443 229.545 393.536 229.545ZM393.356 221.545C392.929 221.545 392.549 221.678 392.216 221.945C391.883 222.198 391.663 222.645 391.556 223.285H395.116C395.023 222.645 394.809 222.198 394.476 221.945C394.143 221.678 393.769 221.545 393.356 221.545ZM399.717 222.165H405.097V225.005H399.717V222.165ZM413.4 219.005H407.24V216.305H417.36V218.585L411.62 229.305H407.88L413.4 219.005ZM424.322 229.545C423.215 229.545 422.269 229.398 421.482 229.105C420.695 228.811 420.022 228.385 419.462 227.825L421.262 225.765C421.609 226.111 422.015 226.391 422.482 226.605C422.949 226.805 423.469 226.905 424.042 226.905C424.349 226.905 424.635 226.871 424.902 226.805C425.182 226.725 425.422 226.611 425.622 226.465C425.835 226.318 426.002 226.138 426.122 225.925C426.242 225.698 426.302 225.438 426.302 225.145C426.302 224.865 426.242 224.631 426.122 224.445C426.015 224.245 425.869 224.085 425.682 223.965C425.495 223.831 425.282 223.738 425.042 223.685C424.802 223.631 424.555 223.605 424.302 223.605H421.642L420.402 222.365V216.305H428.882V218.965H423.482V221.065H424.662C425.355 221.065 426.009 221.158 426.622 221.345C427.235 221.518 427.769 221.778 428.222 222.125C428.675 222.471 429.029 222.898 429.282 223.405C429.549 223.911 429.682 224.498 429.682 225.165C429.682 225.818 429.562 226.411 429.322 226.945C429.082 227.478 428.735 227.938 428.282 228.325C427.829 228.711 427.269 229.011 426.602 229.225C425.935 229.438 425.175 229.545 424.322 229.545Z" fill="white" fill-opacity="0.9"/>
<rect x="606.87" y="203" width="111.01" height="43" rx="20" fill="#592C07"/>
<path d="M620.015 231.24C619.162 231.24 618.408 231.107 617.755 230.84C617.115 230.56 616.582 230.187 616.155 229.72C615.728 229.24 615.402 228.687 615.175 228.06C614.962 227.433 614.855 226.767 614.855 226.06C614.855 225.353 614.962 224.687 615.175 224.06C615.402 223.433 615.728 222.887 616.155 222.42C616.582 221.94 617.115 221.567 617.755 221.3C618.408 221.02 619.162 220.88 620.015 220.88C620.868 220.88 621.615 221.02 622.255 221.3C622.895 221.567 623.428 221.94 623.855 222.42C624.282 222.887 624.602 223.433 624.815 224.06C625.042 224.687 625.155 225.353 625.155 226.06C625.155 226.767 625.042 227.433 624.815 228.06C624.602 228.687 624.282 229.24 623.855 229.72C623.428 230.187 622.895 230.56 622.255 230.84C621.615 231.107 620.868 231.24 620.015 231.24ZM618.095 226.06C618.095 226.913 618.275 227.567 618.635 228.02C618.995 228.473 619.455 228.7 620.015 228.7C620.575 228.7 621.028 228.473 621.375 228.02C621.735 227.567 621.915 226.913 621.915 226.06C621.915 225.207 621.735 224.553 621.375 224.1C621.028 223.647 620.575 223.42 620.015 223.42C619.455 223.42 618.995 223.647 618.635 224.1C618.275 224.553 618.095 225.207 618.095 226.06ZM626.705 221.12H629.685V222.82H629.805C630.005 222.207 630.318 221.733 630.745 221.4C631.185 221.053 631.738 220.88 632.405 220.88C632.925 220.88 633.391 220.947 633.805 221.08L633.005 224C632.858 223.907 632.685 223.84 632.485 223.8C632.298 223.747 632.111 223.72 631.925 223.72C631.325 223.72 630.831 223.893 630.445 224.24C630.071 224.573 629.885 225.107 629.885 225.84V231H626.705V221.12ZM637.314 231.24C636.874 231.24 636.447 231.173 636.034 231.04C635.634 230.907 635.28 230.713 634.974 230.46C634.68 230.193 634.44 229.873 634.254 229.5C634.08 229.127 633.994 228.7 633.994 228.22C633.994 227.313 634.314 226.6 634.954 226.08C635.607 225.56 636.627 225.26 638.014 225.18L640.114 225.06V224.9C640.114 224.62 640.054 224.393 639.934 224.22C639.827 224.047 639.68 223.913 639.494 223.82C639.32 223.713 639.114 223.64 638.874 223.6C638.647 223.56 638.414 223.54 638.174 223.54C637.8 223.54 637.42 223.607 637.034 223.74C636.647 223.873 636.36 224.06 636.174 224.3L634.434 222.5C634.794 222.047 635.32 221.667 636.014 221.36C636.707 221.04 637.614 220.88 638.734 220.88C640.16 220.88 641.274 221.207 642.074 221.86C642.887 222.513 643.294 223.453 643.294 224.68V231H640.314V229.48H640.194C639.94 230 639.574 230.427 639.094 230.76C638.627 231.08 638.034 231.24 637.314 231.24ZM638.394 229.08C638.9 229.08 639.314 228.947 639.634 228.68C639.954 228.4 640.114 227.98 640.114 227.42V226.9L638.454 227.02C638.027 227.047 637.707 227.153 637.494 227.34C637.294 227.527 637.194 227.773 637.194 228.08C637.194 228.427 637.307 228.68 637.534 228.84C637.774 229 638.06 229.08 638.394 229.08ZM645.279 221.12H648.259V222.76H648.379C648.579 222.213 648.939 221.767 649.459 221.42C649.992 221.06 650.599 220.88 651.279 220.88C651.932 220.88 652.479 220.973 652.919 221.16C653.372 221.333 653.732 221.593 653.999 221.94C654.265 222.287 654.452 222.72 654.559 223.24C654.679 223.747 654.739 224.327 654.739 224.98V231H651.559V225.62C651.559 224.993 651.452 224.5 651.239 224.14C651.025 223.767 650.625 223.58 650.039 223.58C649.479 223.58 649.072 223.753 648.819 224.1C648.579 224.447 648.459 224.953 648.459 225.62V231H645.279V221.12ZM660.923 234.94C660.056 234.94 659.276 234.787 658.583 234.48C657.89 234.187 657.383 233.827 657.063 233.4L658.923 231.5C659.096 231.727 659.376 231.913 659.763 232.06C660.15 232.22 660.543 232.3 660.943 232.3C661.196 232.3 661.45 232.273 661.703 232.22C661.956 232.167 662.183 232.073 662.383 231.94C662.583 231.807 662.743 231.627 662.863 231.4C662.996 231.173 663.063 230.887 663.063 230.54V228.68H662.983C662.77 229.2 662.43 229.633 661.963 229.98C661.496 230.313 660.89 230.48 660.143 230.48C659.543 230.48 659.003 230.367 658.523 230.14C658.043 229.9 657.63 229.567 657.283 229.14C656.95 228.7 656.69 228.18 656.503 227.58C656.316 226.98 656.223 226.32 656.223 225.6C656.223 224.893 656.316 224.253 656.503 223.68C656.69 223.093 656.956 222.6 657.303 222.2C657.65 221.787 658.063 221.467 658.543 221.24C659.036 221.013 659.583 220.9 660.183 220.9C660.93 220.9 661.543 221.067 662.023 221.4C662.516 221.72 662.883 222.173 663.123 222.76H663.243V221.12H666.243V230.6C666.243 231.307 666.116 231.927 665.863 232.46C665.61 233.007 665.25 233.46 664.783 233.82C664.316 234.193 663.756 234.473 663.103 234.66C662.45 234.847 661.723 234.94 660.923 234.94ZM661.263 227.9C661.57 227.9 661.836 227.84 662.063 227.72C662.29 227.587 662.476 227.42 662.623 227.22C662.77 227.007 662.876 226.767 662.943 226.5C663.023 226.233 663.063 225.953 663.063 225.66C663.063 225.367 663.023 225.087 662.943 224.82C662.876 224.553 662.77 224.32 662.623 224.12C662.476 223.907 662.29 223.74 662.063 223.62C661.836 223.487 661.57 223.42 661.263 223.42C660.956 223.42 660.69 223.487 660.463 223.62C660.236 223.74 660.05 223.907 659.903 224.12C659.756 224.32 659.643 224.553 659.563 224.82C659.496 225.087 659.463 225.367 659.463 225.66C659.463 225.953 659.496 226.233 659.563 226.5C659.643 226.767 659.756 227.007 659.903 227.22C660.05 227.42 660.236 227.587 660.463 227.72C660.69 227.84 660.956 227.9 661.263 227.9ZM672.925 231.24C672.018 231.24 671.238 231.093 670.585 230.8C669.945 230.507 669.418 230.12 669.005 229.64C668.591 229.16 668.285 228.613 668.085 228C667.885 227.373 667.785 226.727 667.785 226.06C667.785 225.407 667.871 224.767 668.045 224.14C668.231 223.513 668.518 222.96 668.905 222.48C669.305 222 669.818 221.613 670.445 221.32C671.071 221.027 671.838 220.88 672.745 220.88C673.651 220.88 674.418 221.027 675.045 221.32C675.671 221.6 676.171 221.98 676.545 222.46C676.931 222.927 677.205 223.467 677.365 224.08C677.538 224.693 677.625 225.327 677.625 225.98C677.625 226.127 677.611 226.32 677.585 226.56C677.558 226.787 677.525 226.96 677.485 227.08H671.005C671.058 227.373 671.158 227.62 671.305 227.82C671.465 228.02 671.645 228.18 671.845 228.3C672.045 228.42 672.251 228.507 672.465 228.56C672.691 228.613 672.905 228.64 673.105 228.64C673.571 228.64 673.971 228.567 674.305 228.42C674.651 228.273 674.918 228.08 675.105 227.84L676.845 229.66C676.525 230.127 676.018 230.507 675.325 230.8C674.631 231.093 673.831 231.24 672.925 231.24ZM672.745 223.24C672.318 223.24 671.938 223.373 671.605 223.64C671.271 223.893 671.051 224.34 670.945 224.98H674.505C674.411 224.34 674.198 223.893 673.865 223.64C673.531 223.373 673.158 223.24 672.745 223.24ZM679.105 223.86H684.485V226.7H679.105V223.86ZM691.188 231.24C690.175 231.24 689.322 231.107 688.628 230.84C687.935 230.573 687.375 230.207 686.948 229.74L688.868 227.66C689.095 227.913 689.395 228.12 689.768 228.28C690.142 228.427 690.568 228.5 691.048 228.5C691.848 228.5 692.468 228.18 692.908 227.54C693.348 226.9 693.568 225.973 693.568 224.76H693.448C693.182 225.333 692.802 225.773 692.308 226.08C691.815 226.387 691.228 226.54 690.548 226.54C689.975 226.54 689.435 226.44 688.928 226.24C688.422 226.04 687.975 225.76 687.588 225.4C687.215 225.027 686.915 224.58 686.688 224.06C686.475 223.54 686.368 222.96 686.368 222.32C686.368 221.68 686.488 221.08 686.728 220.52C686.968 219.96 687.308 219.48 687.748 219.08C688.188 218.667 688.728 218.347 689.368 218.12C690.008 217.88 690.728 217.76 691.528 217.76C692.315 217.76 693.035 217.887 693.688 218.14C694.342 218.38 694.902 218.767 695.368 219.3C695.848 219.82 696.215 220.487 696.468 221.3C696.735 222.113 696.868 223.087 696.868 224.22C696.868 225.487 696.715 226.567 696.408 227.46C696.102 228.34 695.688 229.06 695.168 229.62C694.648 230.18 694.042 230.593 693.348 230.86C692.668 231.113 691.948 231.24 691.188 231.24ZM691.568 224.14C692.102 224.14 692.548 223.98 692.908 223.66C693.282 223.34 693.468 222.86 693.468 222.22C693.468 221.593 693.282 221.12 692.908 220.8C692.548 220.467 692.102 220.3 691.568 220.3C691.035 220.3 690.582 220.467 690.208 220.8C689.848 221.12 689.668 221.593 689.668 222.22C689.668 222.86 689.848 223.34 690.208 223.66C690.568 223.98 691.022 224.14 691.568 224.14ZM704.071 231.24C703.084 231.24 702.237 231.067 701.531 230.72C700.824 230.36 700.244 229.88 699.791 229.28C699.337 228.667 698.997 227.953 698.771 227.14C698.557 226.313 698.451 225.433 698.451 224.5C698.451 223.567 698.557 222.693 698.771 221.88C698.997 221.053 699.337 220.34 699.791 219.74C700.244 219.127 700.824 218.647 701.531 218.3C702.237 217.94 703.084 217.76 704.071 217.76C705.057 217.76 705.904 217.94 706.611 218.3C707.331 218.647 707.917 219.127 708.371 219.74C708.837 220.34 709.177 221.053 709.391 221.88C709.617 222.693 709.731 223.567 709.731 224.5C709.731 225.433 709.617 226.313 709.391 227.14C709.177 227.953 708.837 228.667 708.371 229.28C707.917 229.88 707.331 230.36 706.611 230.72C705.904 231.067 705.057 231.24 704.071 231.24ZM704.091 228.48C704.757 228.48 705.291 228.153 705.691 227.5C706.104 226.847 706.311 225.853 706.311 224.52C706.311 223.16 706.104 222.153 705.691 221.5C705.291 220.847 704.757 220.52 704.091 220.52C703.411 220.52 702.871 220.847 702.471 221.5C702.071 222.153 701.871 223.16 701.871 224.52C701.871 225.853 702.071 226.847 702.471 227.5C702.871 228.153 703.411 228.48 704.091 228.48Z" fill="white" fill-opacity="0.9"/>
<rect x="877" y="203.148" width="128" height="43" rx="20" fill="#31160D"/>
<path d="M889.9 231.368C888.647 231.368 887.74 231.055 887.18 230.428C886.633 229.802 886.36 228.802 886.36 227.428V223.808H884.94V221.268H886.36V218.588H889.5V221.268H892.42V223.808H889.5V227.488C889.5 227.928 889.573 228.248 889.72 228.448C889.88 228.648 890.14 228.748 890.5 228.748C890.74 228.748 890.967 228.702 891.18 228.608C891.407 228.502 891.593 228.375 891.74 228.228L892.76 230.388C892.107 231.042 891.153 231.368 889.9 231.368ZM898.695 231.388C897.841 231.388 897.088 231.255 896.435 230.988C895.795 230.708 895.261 230.335 894.835 229.868C894.408 229.388 894.081 228.835 893.855 228.208C893.641 227.582 893.535 226.915 893.535 226.208C893.535 225.502 893.641 224.835 893.855 224.208C894.081 223.582 894.408 223.035 894.835 222.568C895.261 222.088 895.795 221.715 896.435 221.448C897.088 221.168 897.841 221.028 898.695 221.028C899.548 221.028 900.295 221.168 900.935 221.448C901.575 221.715 902.108 222.088 902.535 222.568C902.961 223.035 903.281 223.582 903.495 224.208C903.721 224.835 903.835 225.502 903.835 226.208C903.835 226.915 903.721 227.582 903.495 228.208C903.281 228.835 902.961 229.388 902.535 229.868C902.108 230.335 901.575 230.708 900.935 230.988C900.295 231.255 899.548 231.388 898.695 231.388ZM896.775 226.208C896.775 227.062 896.955 227.715 897.315 228.168C897.675 228.622 898.135 228.848 898.695 228.848C899.255 228.848 899.708 228.622 900.055 228.168C900.415 227.715 900.595 227.062 900.595 226.208C900.595 225.355 900.415 224.702 900.055 224.248C899.708 223.795 899.255 223.568 898.695 223.568C898.135 223.568 897.675 223.795 897.315 224.248C896.955 224.702 896.775 225.355 896.775 226.208ZM905.384 221.268H908.364V222.708H908.484C908.751 222.202 909.124 221.795 909.604 221.488C910.084 221.182 910.658 221.028 911.324 221.028C912.204 221.028 912.884 221.195 913.364 221.528C913.858 221.848 914.211 222.328 914.424 222.968C914.651 222.408 915.038 221.948 915.584 221.588C916.144 221.215 916.778 221.028 917.484 221.028C918.738 221.028 919.618 221.382 920.124 222.088C920.631 222.795 920.884 223.808 920.884 225.128V231.148H917.704V225.648C917.704 225.075 917.598 224.615 917.384 224.268C917.171 223.908 916.791 223.728 916.244 223.728C915.711 223.728 915.324 223.902 915.084 224.248C914.844 224.582 914.724 225.048 914.724 225.648V231.148H911.544V225.648C911.544 225.075 911.438 224.615 911.224 224.268C911.024 223.908 910.644 223.728 910.084 223.728C909.564 223.728 909.178 223.902 908.924 224.248C908.684 224.582 908.564 225.048 908.564 225.648V231.148H905.384V221.268ZM925.642 231.388C925.202 231.388 924.775 231.322 924.362 231.188C923.962 231.055 923.609 230.862 923.302 230.608C923.009 230.342 922.769 230.022 922.582 229.648C922.409 229.275 922.322 228.848 922.322 228.368C922.322 227.462 922.642 226.748 923.282 226.228C923.935 225.708 924.955 225.408 926.342 225.328L928.442 225.208V225.048C928.442 224.768 928.382 224.542 928.262 224.368C928.155 224.195 928.009 224.062 927.822 223.968C927.649 223.862 927.442 223.788 927.202 223.748C926.975 223.708 926.742 223.688 926.502 223.688C926.129 223.688 925.749 223.755 925.362 223.888C924.975 224.022 924.689 224.208 924.502 224.448L922.762 222.648C923.122 222.195 923.649 221.815 924.342 221.508C925.035 221.188 925.942 221.028 927.062 221.028C928.489 221.028 929.602 221.355 930.402 222.008C931.215 222.662 931.622 223.602 931.622 224.828V231.148H928.642V229.628H928.522C928.269 230.148 927.902 230.575 927.422 230.908C926.955 231.228 926.362 231.388 925.642 231.388ZM926.722 229.228C927.229 229.228 927.642 229.095 927.962 228.828C928.282 228.548 928.442 228.128 928.442 227.568V227.048L926.782 227.168C926.355 227.195 926.035 227.302 925.822 227.488C925.622 227.675 925.522 227.922 925.522 228.228C925.522 228.575 925.635 228.828 925.862 228.988C926.102 229.148 926.389 229.228 926.722 229.228ZM937.947 231.368C936.694 231.368 935.787 231.055 935.227 230.428C934.68 229.802 934.407 228.802 934.407 227.428V223.808H932.987V221.268H934.407V218.588H937.547V221.268H940.467V223.808H937.547V227.488C937.547 227.928 937.62 228.248 937.767 228.448C937.927 228.648 938.187 228.748 938.547 228.748C938.787 228.748 939.014 228.702 939.227 228.608C939.454 228.502 939.64 228.375 939.787 228.228L940.807 230.388C940.154 231.042 939.2 231.368 937.947 231.368ZM946.742 231.388C945.888 231.388 945.135 231.255 944.482 230.988C943.842 230.708 943.308 230.335 942.882 229.868C942.455 229.388 942.128 228.835 941.902 228.208C941.688 227.582 941.582 226.915 941.582 226.208C941.582 225.502 941.688 224.835 941.902 224.208C942.128 223.582 942.455 223.035 942.882 222.568C943.308 222.088 943.842 221.715 944.482 221.448C945.135 221.168 945.888 221.028 946.742 221.028C947.595 221.028 948.342 221.168 948.982 221.448C949.622 221.715 950.155 222.088 950.582 222.568C951.008 223.035 951.328 223.582 951.542 224.208C951.768 224.835 951.882 225.502 951.882 226.208C951.882 226.915 951.768 227.582 951.542 228.208C951.328 228.835 951.008 229.388 950.582 229.868C950.155 230.335 949.622 230.708 948.982 230.988C948.342 231.255 947.595 231.388 946.742 231.388ZM944.822 226.208C944.822 227.062 945.002 227.715 945.362 228.168C945.722 228.622 946.182 228.848 946.742 228.848C947.302 228.848 947.755 228.622 948.102 228.168C948.462 227.715 948.642 227.062 948.642 226.208C948.642 225.355 948.462 224.702 948.102 224.248C947.755 223.795 947.302 223.568 946.742 223.568C946.182 223.568 945.722 223.795 945.362 224.248C945.002 224.702 944.822 225.355 944.822 226.208ZM953.371 224.008H958.751V226.848H953.371V224.008ZM961.454 228.488H964.774V221.668L962.154 222.568L961.054 220.168L965.894 218.148H968.154V228.488H971.114V231.148H961.454V228.488ZM978.336 231.388C977.35 231.388 976.503 231.215 975.796 230.868C975.09 230.508 974.51 230.028 974.056 229.428C973.603 228.815 973.263 228.102 973.036 227.288C972.823 226.462 972.716 225.582 972.716 224.648C972.716 223.715 972.823 222.842 973.036 222.028C973.263 221.202 973.603 220.488 974.056 219.888C974.51 219.275 975.09 218.795 975.796 218.448C976.503 218.088 977.35 217.908 978.336 217.908C979.323 217.908 980.17 218.088 980.876 218.448C981.596 218.795 982.183 219.275 982.636 219.888C983.103 220.488 983.443 221.202 983.656 222.028C983.883 222.842 983.996 223.715 983.996 224.648C983.996 225.582 983.883 226.462 983.656 227.288C983.443 228.102 983.103 228.815 982.636 229.428C982.183 230.028 981.596 230.508 980.876 230.868C980.17 231.215 979.323 231.388 978.336 231.388ZM978.356 228.628C979.023 228.628 979.556 228.302 979.956 227.648C980.37 226.995 980.576 226.002 980.576 224.668C980.576 223.308 980.37 222.302 979.956 221.648C979.556 220.995 979.023 220.668 978.356 220.668C977.676 220.668 977.136 220.995 976.736 221.648C976.336 222.302 976.136 223.308 976.136 224.668C976.136 226.002 976.336 226.995 976.736 227.648C977.136 228.302 977.676 228.628 978.356 228.628ZM990.739 231.388C989.752 231.388 988.905 231.215 988.199 230.868C987.492 230.508 986.912 230.028 986.459 229.428C986.005 228.815 985.665 228.102 985.439 227.288C985.225 226.462 985.119 225.582 985.119 224.648C985.119 223.715 985.225 222.842 985.439 222.028C985.665 221.202 986.005 220.488 986.459 219.888C986.912 219.275 987.492 218.795 988.199 218.448C988.905 218.088 989.752 217.908 990.739 217.908C991.725 217.908 992.572 218.088 993.279 218.448C993.999 218.795 994.585 219.275 995.039 219.888C995.505 220.488 995.845 221.202 996.059 222.028C996.285 222.842 996.399 223.715 996.399 224.648C996.399 225.582 996.285 226.462 996.059 227.288C995.845 228.102 995.505 228.815 995.039 229.428C994.585 230.028 993.999 230.508 993.279 230.868C992.572 231.215 991.725 231.388 990.739 231.388ZM990.759 228.628C991.425 228.628 991.959 228.302 992.359 227.648C992.772 226.995 992.979 226.002 992.979 224.668C992.979 223.308 992.772 222.302 992.359 221.648C991.959 220.995 991.425 220.668 990.759 220.668C990.079 220.668 989.539 220.995 989.139 221.648C988.739 222.302 988.539 223.308 988.539 224.668C988.539 226.002 988.739 226.995 989.139 227.648C989.539 228.302 990.079 228.628 990.759 228.628Z" fill="white" fill-opacity="0.9"/>
<path d="M88 41C88 34.3726 93.3726 29 100 29H199C205.627 29 211 34.3726 211 41C211 47.6274 205.627 53 199 53H100C93.3726 53 88 47.6274 88 41Z" fill="#59564F"/>
<path d="M98.31 39.084V46.532C98.31 46.9613 98.24 47.33 98.1 47.638C97.96 47.946 97.764 48.1793 97.512 48.338C97.26 48.506 96.9567 48.59 96.602 48.59C96.5273 48.59 96.462 48.5853 96.406 48.576C96.3593 48.576 96.3173 48.5713 96.28 48.562V47.554C96.2987 47.5633 96.3267 47.568 96.364 47.568C96.4107 47.5773 96.4527 47.582 96.49 47.582C96.7047 47.582 96.8727 47.484 96.994 47.288C97.1247 47.1013 97.19 46.854 97.19 46.546V39.084H98.31ZM97.75 37.964C97.5167 37.964 97.3347 37.894 97.204 37.754C97.0733 37.614 97.008 37.446 97.008 37.25C97.008 37.0633 97.0733 36.9 97.204 36.76C97.3347 36.6107 97.5167 36.536 97.75 36.536C97.974 36.536 98.1513 36.6107 98.282 36.76C98.422 36.9 98.492 37.0633 98.492 37.25C98.492 37.446 98.422 37.614 98.282 37.754C98.1513 37.894 97.974 37.964 97.75 37.964ZM103.392 46.168C102.729 46.168 102.151 46.0233 101.656 45.734C101.171 45.4447 100.793 45.0293 100.522 44.488C100.251 43.9373 100.116 43.2887 100.116 42.542C100.116 41.954 100.191 41.436 100.34 40.988C100.499 40.5307 100.718 40.1527 100.998 39.854C101.287 39.546 101.623 39.3127 102.006 39.154C102.398 38.9953 102.827 38.916 103.294 38.916C103.761 38.916 104.185 38.9907 104.568 39.14C104.96 39.2893 105.296 39.5133 105.576 39.812C105.865 40.1013 106.089 40.47 106.248 40.918C106.407 41.3567 106.486 41.87 106.486 42.458C106.486 42.5327 106.481 42.6073 106.472 42.682C106.472 42.7567 106.467 42.8173 106.458 42.864H101.236C101.245 43.2933 101.348 43.6853 101.544 44.04C101.74 44.3947 102.001 44.6793 102.328 44.894C102.664 45.0993 103.037 45.202 103.448 45.202C103.943 45.202 104.353 45.104 104.68 44.908C105.007 44.712 105.277 44.474 105.492 44.194L106.164 44.88C105.875 45.272 105.506 45.5847 105.058 45.818C104.61 46.0513 104.055 46.168 103.392 46.168ZM103.294 39.84C102.855 39.84 102.487 39.9427 102.188 40.148C101.889 40.3533 101.661 40.6147 101.502 40.932C101.353 41.2493 101.273 41.5807 101.264 41.926H105.31C105.301 41.5807 105.217 41.2493 105.058 40.932C104.909 40.6147 104.685 40.3533 104.386 40.148C104.097 39.9427 103.733 39.84 103.294 39.84ZM110.42 46.168C110.009 46.168 109.668 46.084 109.398 45.916C109.127 45.748 108.926 45.5053 108.796 45.188C108.674 44.8707 108.614 44.4973 108.614 44.068V39.994H107.382V39.084H108.614V37.208H109.72V39.084H111.722V39.994H109.72V43.97C109.72 44.418 109.804 44.7307 109.972 44.908C110.149 45.0853 110.373 45.174 110.644 45.174C110.83 45.174 110.998 45.1413 111.148 45.076C111.297 45.0013 111.437 44.9033 111.568 44.782L112.072 45.566C111.857 45.7713 111.61 45.9207 111.33 46.014C111.059 46.1167 110.756 46.168 110.42 46.168ZM113.596 48.59V39.084H114.66V40.498H114.744C114.903 40.022 115.202 39.6393 115.64 39.35C116.079 39.0607 116.583 38.916 117.152 38.916C117.768 38.916 118.305 39.0747 118.762 39.392C119.22 39.7 119.574 40.1293 119.826 40.68C120.088 41.2307 120.218 41.856 120.218 42.556C120.218 43.256 120.088 43.8767 119.826 44.418C119.574 44.9593 119.22 45.3887 118.762 45.706C118.305 46.014 117.768 46.168 117.152 46.168C116.583 46.168 116.093 46.0327 115.682 45.762C115.272 45.4913 114.978 45.146 114.8 44.726H114.716V48.59H113.596ZM116.872 45.16C117.283 45.16 117.652 45.0667 117.978 44.88C118.314 44.684 118.58 44.39 118.776 43.998C118.972 43.606 119.07 43.1207 119.07 42.542C119.07 41.954 118.972 41.4687 118.776 41.086C118.58 40.694 118.314 40.4047 117.978 40.218C117.652 40.022 117.283 39.924 116.872 39.924C116.48 39.924 116.121 40.022 115.794 40.218C115.468 40.4047 115.206 40.694 115.01 41.086C114.814 41.4687 114.716 41.954 114.716 42.542C114.716 43.1207 114.814 43.606 115.01 43.998C115.206 44.39 115.468 44.684 115.794 44.88C116.121 45.0667 116.48 45.16 116.872 45.16ZM122.018 46V35.85H123.138V46H122.018ZM127.898 46.168C127.394 46.168 126.951 46.0793 126.568 45.902C126.195 45.7153 125.901 45.426 125.686 45.034C125.481 44.642 125.378 44.1333 125.378 43.508V39.084H126.498V43.298C126.498 43.7647 126.559 44.1427 126.68 44.432C126.811 44.7213 126.997 44.9313 127.24 45.062C127.483 45.1833 127.777 45.244 128.122 45.244C128.626 45.244 129.023 45.062 129.312 44.698C129.611 44.334 129.76 43.802 129.76 43.102V39.084H130.88V46H129.816V44.908H129.732C129.564 45.272 129.331 45.5753 129.032 45.818C128.743 46.0513 128.365 46.168 127.898 46.168ZM135.132 46.168C134.535 46.168 134.022 46.0653 133.592 45.86C133.163 45.6547 132.827 45.3887 132.584 45.062L133.326 44.362C133.541 44.614 133.788 44.8193 134.068 44.978C134.358 45.1367 134.717 45.216 135.146 45.216C135.529 45.216 135.865 45.1367 136.154 44.978C136.444 44.81 136.588 44.5533 136.588 44.208C136.588 43.9373 136.504 43.7273 136.336 43.578C136.178 43.4193 135.968 43.2933 135.706 43.2C135.445 43.0973 135.165 43.004 134.866 42.92C134.521 42.8173 134.194 42.6913 133.886 42.542C133.588 42.3833 133.34 42.178 133.144 41.926C132.958 41.6647 132.864 41.3333 132.864 40.932C132.864 40.4933 132.967 40.1247 133.172 39.826C133.387 39.5273 133.672 39.3033 134.026 39.154C134.39 38.9953 134.796 38.916 135.244 38.916C135.739 38.916 136.201 39.0093 136.63 39.196C137.06 39.3733 137.405 39.6533 137.666 40.036L136.938 40.708C136.733 40.4653 136.49 40.2647 136.21 40.106C135.94 39.9473 135.618 39.868 135.244 39.868C134.927 39.868 134.633 39.9473 134.362 40.106C134.092 40.2553 133.956 40.498 133.956 40.834C133.956 41.1047 134.036 41.3193 134.194 41.478C134.362 41.6273 134.577 41.7487 134.838 41.842C135.1 41.9353 135.38 42.0287 135.678 42.122C136.024 42.2247 136.346 42.3553 136.644 42.514C136.952 42.6633 137.2 42.864 137.386 43.116C137.582 43.368 137.68 43.6993 137.68 44.11C137.68 44.586 137.564 44.978 137.33 45.286C137.097 45.5847 136.784 45.8087 136.392 45.958C136.01 46.098 135.59 46.168 135.132 46.168ZM139.348 42.584V41.408H142.568V42.584H139.348ZM148.242 46.168C147.673 46.168 147.169 46.0233 146.73 45.734C146.291 45.4447 145.993 45.062 145.834 44.586H145.75V46H144.686V35.85H145.806V40.358H145.89C146.067 39.938 146.361 39.5927 146.772 39.322C147.183 39.0513 147.673 38.916 148.242 38.916C148.858 38.916 149.395 39.07 149.852 39.378C150.309 39.686 150.664 40.1153 150.916 40.666C151.177 41.2073 151.308 41.828 151.308 42.528C151.308 43.228 151.177 43.8533 150.916 44.404C150.664 44.9453 150.309 45.3747 149.852 45.692C149.395 46.0093 148.858 46.168 148.242 46.168ZM147.962 45.16C148.373 45.16 148.741 45.0667 149.068 44.88C149.404 44.684 149.67 44.39 149.866 43.998C150.062 43.606 150.16 43.1207 150.16 42.542C150.16 41.954 150.062 41.4687 149.866 41.086C149.67 40.694 149.404 40.4047 149.068 40.218C148.741 40.022 148.373 39.924 147.962 39.924C147.57 39.924 147.211 40.022 146.884 40.218C146.557 40.4047 146.296 40.694 146.1 41.086C145.904 41.4687 145.806 41.954 145.806 42.542C145.806 43.1207 145.904 43.606 146.1 43.998C146.296 44.39 146.557 44.684 146.884 44.88C147.211 45.0667 147.57 45.16 147.962 45.16ZM153.108 46V39.084H154.172V40.204H154.256C154.405 39.84 154.62 39.5367 154.9 39.294C155.189 39.042 155.539 38.916 155.95 38.916C156.118 38.916 156.281 38.9347 156.44 38.972C156.608 39 156.757 39.0513 156.888 39.126L156.51 40.134C156.389 40.0687 156.258 40.0267 156.118 40.008C155.987 39.98 155.852 39.966 155.712 39.966C155.255 39.966 154.891 40.1527 154.62 40.526C154.359 40.89 154.228 41.3567 154.228 41.926V46H153.108ZM159.72 46.168C159.3 46.168 158.922 46.0793 158.586 45.902C158.259 45.7247 158.003 45.4773 157.816 45.16C157.629 44.8427 157.536 44.4787 157.536 44.068C157.536 43.6667 157.629 43.3213 157.816 43.032C158.012 42.7333 158.297 42.4953 158.67 42.318C159.043 42.1407 159.491 42.038 160.014 42.01L161.834 41.898V41.408C161.834 41.0533 161.773 40.7687 161.652 40.554C161.54 40.33 161.372 40.1667 161.148 40.064C160.933 39.952 160.667 39.896 160.35 39.896C159.949 39.896 159.603 39.9707 159.314 40.12C159.025 40.2693 158.801 40.4327 158.642 40.61L157.97 39.938C158.213 39.6393 158.544 39.3967 158.964 39.21C159.384 39.014 159.855 38.916 160.378 38.916C161.013 38.916 161.517 39.0233 161.89 39.238C162.263 39.4527 162.529 39.742 162.688 40.106C162.856 40.4607 162.94 40.8573 162.94 41.296V46H161.89V44.824H161.806C161.629 45.2347 161.367 45.5613 161.022 45.804C160.677 46.0467 160.243 46.168 159.72 46.168ZM159.888 45.216C160.467 45.216 160.933 45.048 161.288 44.712C161.652 44.3667 161.834 43.9093 161.834 43.34V42.738L160.07 42.864C159.613 42.9013 159.263 43.018 159.02 43.214C158.787 43.41 158.67 43.6853 158.67 44.04C158.67 44.3947 158.782 44.6793 159.006 44.894C159.239 45.1087 159.533 45.216 159.888 45.216ZM165.194 46V39.084H166.258V40.176H166.342C166.454 39.9333 166.599 39.7187 166.776 39.532C166.953 39.336 167.163 39.1867 167.406 39.084C167.649 38.972 167.924 38.916 168.232 38.916C169.025 38.916 169.651 39.126 170.108 39.546C170.575 39.9567 170.808 40.6333 170.808 41.576V46H169.688V41.786C169.688 41.0767 169.543 40.5773 169.254 40.288C168.974 39.9893 168.559 39.84 168.008 39.84C167.485 39.84 167.07 40.022 166.762 40.386C166.463 40.75 166.314 41.282 166.314 41.982V46H165.194ZM175.547 46.168C174.931 46.168 174.395 46.0093 173.937 45.692C173.48 45.3747 173.121 44.9453 172.859 44.404C172.607 43.8533 172.481 43.228 172.481 42.528C172.481 41.828 172.607 41.2073 172.859 40.666C173.121 40.1153 173.48 39.686 173.937 39.378C174.395 39.07 174.931 38.916 175.547 38.916C176.117 38.916 176.607 39.0513 177.017 39.322C177.428 39.5927 177.722 39.938 177.899 40.358H177.983V35.85H179.103V46H178.039V44.586H177.955C177.797 45.062 177.498 45.4447 177.059 45.734C176.621 46.0233 176.117 46.168 175.547 46.168ZM175.827 45.16C176.229 45.16 176.588 45.0667 176.905 44.88C177.232 44.684 177.493 44.39 177.689 43.998C177.885 43.606 177.983 43.1207 177.983 42.542C177.983 41.954 177.885 41.4687 177.689 41.086C177.493 40.694 177.232 40.4047 176.905 40.218C176.588 40.022 176.229 39.924 175.827 39.924C175.417 39.924 175.043 40.022 174.707 40.218C174.381 40.4047 174.119 40.694 173.923 41.086C173.727 41.4687 173.629 41.954 173.629 42.542C173.629 43.1207 173.727 43.606 173.923 43.998C174.119 44.39 174.381 44.684 174.707 44.88C175.043 45.0667 175.417 45.16 175.827 45.16ZM181.211 42.584V41.408H184.431V42.584H181.211ZM189.559 46.168C188.794 46.168 188.169 45.9627 187.683 45.552C187.198 45.132 186.839 44.5673 186.605 43.858C186.381 43.1393 186.269 42.3367 186.269 41.45C186.269 40.7873 186.33 40.1713 186.451 39.602C186.582 39.0233 186.778 38.5193 187.039 38.09C187.31 37.6607 187.651 37.3293 188.061 37.096C188.481 36.8533 188.981 36.732 189.559 36.732C190.334 36.732 190.959 36.942 191.435 37.362C191.921 37.7727 192.275 38.3373 192.499 39.056C192.733 39.7653 192.849 40.5633 192.849 41.45C192.849 42.1127 192.784 42.7333 192.653 43.312C192.532 43.8813 192.336 44.3807 192.065 44.81C191.804 45.2393 191.463 45.5753 191.043 45.818C190.633 46.0513 190.138 46.168 189.559 46.168ZM189.559 45.16C189.839 45.16 190.087 45.104 190.301 44.992C190.525 44.88 190.721 44.7213 190.889 44.516C191.057 44.3013 191.193 44.0447 191.295 43.746C191.407 43.438 191.491 43.0927 191.547 42.71C191.603 42.3273 191.631 41.9073 191.631 41.45C191.631 40.3113 191.459 39.4107 191.113 38.748C190.768 38.076 190.25 37.74 189.559 37.74C189.289 37.74 189.041 37.796 188.817 37.908C188.593 38.02 188.397 38.1833 188.229 38.398C188.071 38.6033 187.935 38.86 187.823 39.168C187.711 39.4667 187.627 39.8073 187.571 40.19C187.515 40.5727 187.487 40.9927 187.487 41.45C187.487 42.5793 187.66 43.48 188.005 44.152C188.36 44.824 188.878 45.16 189.559 45.16ZM197.618 46.168C196.946 46.168 196.381 46.0467 195.924 45.804C195.476 45.5613 195.112 45.258 194.832 44.894L195.546 44.194C195.686 44.3713 195.849 44.53 196.036 44.67C196.232 44.81 196.456 44.922 196.708 45.006C196.96 45.09 197.249 45.132 197.576 45.132C198.173 45.132 198.645 44.992 198.99 44.712C199.335 44.4227 199.508 43.998 199.508 43.438C199.508 42.8967 199.331 42.5 198.976 42.248C198.621 41.996 198.169 41.87 197.618 41.87H196.778V40.862H197.576C198.127 40.862 198.533 40.7173 198.794 40.428C199.065 40.1293 199.2 39.7513 199.2 39.294C199.2 38.7527 199.032 38.3653 198.696 38.132C198.369 37.8893 197.987 37.768 197.548 37.768C197.119 37.768 196.745 37.852 196.428 38.02C196.111 38.188 195.845 38.398 195.63 38.65L194.986 37.95C195.257 37.614 195.607 37.3293 196.036 37.096C196.475 36.8533 197.002 36.732 197.618 36.732C198.122 36.732 198.584 36.8253 199.004 37.012C199.433 37.1987 199.774 37.474 200.026 37.838C200.287 38.1927 200.418 38.6313 200.418 39.154C200.418 39.4993 200.357 39.812 200.236 40.092C200.115 40.3627 199.937 40.6007 199.704 40.806C199.471 41.002 199.186 41.1607 198.85 41.282V41.366C199.195 41.4313 199.508 41.5573 199.788 41.744C200.068 41.9307 200.292 42.1733 200.46 42.472C200.637 42.7707 200.726 43.13 200.726 43.55C200.726 44.082 200.6 44.544 200.348 44.936C200.096 45.328 199.737 45.6313 199.27 45.846C198.803 46.0607 198.253 46.168 197.618 46.168Z" fill="white" fill-opacity="0.9"/>
<defs>
<linearGradient id="paint0_linear_3906_11072" x1="77.85" y1="67.5" x2="246.394" y2="95.041" gradientUnits="userSpaceOnUse">
<stop stop-color="#A04C00"/>
<stop offset="0.4" stop-color="#613105"/>
<stop offset="1" stop-color="#31160D"/>
</linearGradient>
<linearGradient id="paint1_linear_3906_11072" x1="457.662" y1="174" x2="472.529" y2="258.268" gradientUnits="userSpaceOnUse">
<stop stop-color="#A04C00"/>
<stop offset="0.4" stop-color="#613105"/>
<stop offset="1" stop-color="#31160D"/>
</linearGradient>
</defs>
</svg>
