<svg width="679" height="232" viewBox="0 0 679 232" fill="none" xmlns="http://www.w3.org/2000/svg">
<path d="M0.489977 177.984C-0.162768 178.637 -0.162768 179.695 0.489977 180.348L11.1271 190.985C11.7798 191.638 12.8381 191.638 13.4909 190.985C14.1436 190.332 14.1436 189.274 13.4909 188.621L4.03567 179.166L13.4909 169.711C14.1436 169.058 14.1436 168 13.4909 167.347C12.8381 166.694 11.7798 166.694 11.1271 167.347L0.489977 177.984ZM90.3851 180.348C91.0378 179.695 91.0378 178.637 90.3851 177.984L79.748 167.347C79.0953 166.694 78.0369 166.694 77.3842 167.347C76.7315 168 76.7315 169.058 77.3842 169.711L86.8394 179.166L77.3842 188.621C76.7315 189.274 76.7315 190.332 77.3842 190.985C78.0369 191.638 79.0953 191.638 79.748 190.985L90.3851 180.348ZM1.67188 179.166V180.837H3.29283V179.166V177.495H1.67188V179.166ZM9.77663 179.166V180.837H13.0185V179.166V177.495H9.77663V179.166ZM19.5023 179.166V180.837H22.7442V179.166V177.495H19.5023V179.166ZM29.228 179.166V180.837H32.4699V179.166V177.495H29.228V179.166ZM38.9537 179.166V180.837H42.1956V179.166V177.495H38.9537V179.166ZM48.6794 179.166V180.837H51.9213V179.166V177.495H48.6794V179.166ZM58.4051 179.166V180.837H61.647V179.166V177.495H58.4051V179.166ZM68.1308 179.166V180.837H71.3727V179.166V177.495H68.1308V179.166ZM77.8565 179.166V180.837H81.0984V179.166V177.495H77.8565V179.166ZM87.5822 179.166V180.837H89.2032V179.166V177.495H87.5822V179.166Z" fill="#F36805"/>
<path d="M15.3486 104.078L35.4211 9.72555H66.1116L51.4209 78.6754H90.2568L84.8751 104.078H15.3486Z" fill="#242E30"/>
<path d="M91.8863 104.078L107.304 32.3701H135.959L120.686 104.078H91.8863ZM123.013 28.4509C118.844 28.4509 115.547 27.4348 113.122 25.4026C110.698 23.2736 109.486 20.3221 109.486 16.548C109.486 13.3545 110.262 10.4997 111.813 7.98366C113.462 5.4676 115.644 3.53217 118.359 2.17736C121.074 0.725787 123.983 0 127.086 0C131.159 0 134.407 1.06449 136.831 3.19346C139.352 5.32244 140.613 8.37075 140.613 12.3384C140.613 15.5319 139.789 18.3382 138.14 20.7575C136.492 23.1768 134.31 25.0639 131.595 26.4187C128.977 27.7735 126.116 28.4509 123.013 28.4509Z" fill="#242E30"/>
<path d="M129.954 104.078L145.372 32.3701H171.99L170.244 40.499H170.535C172.475 37.6926 175.432 35.3701 179.408 33.5314C183.384 31.596 187.456 30.6282 191.626 30.6282C196.668 30.6282 200.935 31.4992 204.426 33.2411C208.014 34.983 210.777 37.4023 212.717 40.499C214.753 43.5957 216.014 47.1278 216.498 51.0955C217.08 55.0631 216.886 59.2727 215.917 63.7242L207.335 104.078H178.681L185.662 70.8369C186.244 68.4176 186.487 66.0951 186.39 63.8693C186.39 61.6436 185.808 59.8533 184.644 58.4985C183.481 57.0469 181.444 56.3211 178.535 56.3211C175.529 56.3211 172.96 57.3372 170.826 59.3694C168.693 61.4017 167.238 64.2564 166.463 67.9338L158.754 104.078H129.954Z" fill="#242E30"/>
<path d="M257.493 105.82C251.675 105.82 246.487 104.997 241.93 103.352C237.469 101.61 233.639 99.191 230.439 96.0943C227.336 92.9976 224.96 89.3687 223.312 85.2075C221.664 81.0463 220.839 76.5464 220.839 71.7078C220.839 65.9015 221.954 60.5307 224.185 55.5954C226.512 50.5632 229.712 46.2085 233.785 42.5312C237.857 38.7571 242.56 35.8539 247.894 33.8217C253.227 31.6927 258.899 30.6282 264.911 30.6282C270.148 30.6282 274.754 31.4508 278.729 33.0959C282.705 34.741 286.002 36.9668 288.62 39.7732C291.335 42.4828 293.323 45.5795 294.584 49.0633C295.941 52.4503 296.62 55.9824 296.62 59.6598C296.62 62.8532 296.329 65.8048 295.747 68.5144C295.166 71.1272 294.293 73.7401 293.129 76.3529H247.748C248.039 77.9012 248.718 79.3044 249.784 80.5625C250.851 81.7237 252.209 82.6431 253.857 83.3205C255.603 83.9011 257.542 84.1914 259.675 84.1914C262.002 84.1914 264.281 83.8043 266.511 83.0301C268.839 82.1592 270.778 80.9979 272.33 79.5464L289.057 94.6428C285.76 98.1265 281.299 100.885 275.675 102.917C270.148 104.852 264.087 105.82 257.493 105.82ZM261.275 51.6761C259.433 51.6761 257.639 52.0148 255.893 52.6922C254.245 53.2728 252.79 54.2406 251.53 55.5954C250.269 56.8534 249.251 58.5469 248.475 60.6759H270.584C270.681 58.8372 270.39 57.2405 269.711 55.8857C269.033 54.5309 267.966 53.5148 266.511 52.8374C265.154 52.0632 263.408 51.6761 261.275 51.6761Z" fill="#242E30"/>
<path d="M371.808 105.82C366.572 105.82 361.772 104.997 357.408 103.352C353.141 101.707 349.408 99.3362 346.208 96.2395C343.105 93.1428 340.681 89.5138 338.936 85.3527C337.287 81.0947 336.463 76.4013 336.463 71.2724C336.463 65.4661 337.578 60.0952 339.808 55.1599C342.039 50.2245 345.142 45.9182 349.117 42.2409C353.093 38.5635 357.747 35.7088 363.081 33.6766C368.511 31.6444 374.378 30.6282 380.681 30.6282C386.014 30.6282 390.814 31.4508 395.08 33.0959C399.444 34.741 403.177 37.112 406.28 40.2087C409.383 43.3053 411.759 46.9827 413.407 51.2406C415.153 55.4986 416.026 60.2404 416.026 65.4661C416.026 71.2724 414.91 76.6432 412.68 81.5786C410.45 86.4172 407.347 90.6751 403.371 94.3524C399.395 97.933 394.692 100.739 389.262 102.772C383.929 104.804 378.111 105.82 371.808 105.82ZM374.862 79.2561C377.19 79.2561 379.226 78.7238 380.971 77.6593C382.814 76.5948 384.268 75.1432 385.335 73.3046C386.402 71.4659 386.935 69.4337 386.935 67.208C386.935 65.1758 386.499 63.4339 385.626 61.9823C384.85 60.4339 383.735 59.2727 382.281 58.4985C380.826 57.6276 379.081 57.1921 377.044 57.1921C375.008 57.1921 373.117 57.7727 371.372 58.934C369.626 59.9985 368.22 61.4984 367.153 63.4339C366.087 65.2725 365.553 67.3047 365.553 69.5305C365.553 71.5627 365.893 73.3046 366.572 74.7562C367.347 76.2077 368.414 77.3206 369.772 78.0948C371.226 78.869 372.923 79.2561 374.862 79.2561Z" fill="#242E30"/>
<path d="M415.036 104.078L430.454 32.3701H457.072L455.326 40.499H455.617C457.556 37.6926 460.514 35.3701 464.49 33.5314C468.465 31.596 472.538 30.6282 476.708 30.6282C481.75 30.6282 486.017 31.4992 489.508 33.2411C493.095 34.983 495.859 37.4023 497.798 40.499C499.835 43.5957 501.095 47.1278 501.58 51.0955C502.162 55.0631 501.968 59.2727 500.998 63.7242L492.417 104.078H463.762L470.744 70.8369C471.326 68.4176 471.568 66.0951 471.471 63.8693C471.471 61.6436 470.89 59.8533 469.726 58.4985C468.562 57.0469 466.526 56.3211 463.617 56.3211C460.611 56.3211 458.041 57.3372 455.908 59.3694C453.775 61.4017 452.32 64.2564 451.544 67.9338L443.835 104.078H415.036Z" fill="#242E30"/>
<path d="M542.575 105.82C536.757 105.82 531.569 104.997 527.012 103.352C522.551 101.61 518.721 99.191 515.521 96.0943C512.418 92.9976 510.042 89.3687 508.394 85.2075C506.745 81.0463 505.921 76.5464 505.921 71.7078C505.921 65.9015 507.036 60.5307 509.266 55.5954C511.594 50.5632 514.794 46.2085 518.866 42.5312C522.939 38.7571 527.642 35.8539 532.975 33.8217C538.309 31.6927 543.981 30.6282 549.993 30.6282C555.229 30.6282 559.836 31.4508 563.811 33.0959C567.787 34.741 571.084 36.9668 573.702 39.7732C576.417 42.4828 578.405 45.5795 579.666 49.0633C581.023 52.4503 581.702 55.9824 581.702 59.6598C581.702 62.8532 581.411 65.8048 580.829 68.5144C580.247 71.1272 579.375 73.7401 578.211 76.3529H532.83C533.121 77.9012 533.799 79.3044 534.866 80.5625C535.933 81.7237 537.29 82.6431 538.939 83.3205C540.684 83.9011 542.624 84.1914 544.757 84.1914C547.084 84.1914 549.363 83.8043 551.593 83.0301C553.92 82.1592 555.86 80.9979 557.411 79.5464L574.138 94.6428C570.841 98.1265 566.381 100.885 560.757 102.917C555.229 104.852 549.169 105.82 542.575 105.82ZM546.357 51.6761C544.514 51.6761 542.721 52.0148 540.975 52.6922C539.327 53.2728 537.872 54.2406 536.612 55.5954C535.351 56.8534 534.333 58.5469 533.557 60.6759H555.666C555.763 58.8372 555.472 57.2405 554.793 55.8857C554.114 54.5309 553.048 53.5148 551.593 52.8374C550.236 52.0632 548.49 51.6761 546.357 51.6761Z" fill="#242E30"/>
<path d="M84.2473 229.395L104.32 135.043H135.01L120.32 203.993H159.156L153.774 229.395H84.2473Z" fill="#242E30"/>
<path d="M160.785 229.395L176.203 157.688H204.857L189.585 229.395H160.785ZM191.912 153.768C187.742 153.768 184.445 152.752 182.021 150.72C179.597 148.591 178.385 145.64 178.385 141.865C178.385 138.672 179.161 135.817 180.712 133.301C182.36 130.785 184.542 128.85 187.257 127.495C189.973 126.043 192.882 125.317 195.985 125.317C200.057 125.317 203.306 126.382 205.73 128.511C208.251 130.64 209.512 133.688 209.512 137.656C209.512 140.849 208.687 143.656 207.039 146.075C205.391 148.494 203.209 150.381 200.494 151.736C197.875 153.091 195.015 153.768 191.912 153.768Z" fill="#242E30"/>
<path d="M198.853 229.395L214.271 157.688H240.889L239.143 165.816H239.434C241.373 163.01 244.331 160.688 248.307 158.849C252.282 156.913 256.355 155.946 260.525 155.946C265.567 155.946 269.834 156.817 273.325 158.559C276.912 160.3 279.676 162.72 281.615 165.816C283.652 168.913 284.912 172.445 285.397 176.413C285.979 180.381 285.785 184.59 284.815 189.042L276.234 229.395H247.579L254.561 196.154C255.143 193.735 255.385 191.413 255.288 189.187C255.288 186.961 254.707 185.171 253.543 183.816C252.379 182.364 250.343 181.639 247.434 181.639C244.428 181.639 241.858 182.655 239.725 184.687C237.592 186.719 236.137 189.574 235.361 193.251L227.652 229.395H198.853Z" fill="#242E30"/>
<path d="M326.392 231.137C320.574 231.137 315.386 230.315 310.829 228.67C306.368 226.928 302.538 224.508 299.338 221.412C296.235 218.315 293.859 214.686 292.211 210.525C290.562 206.364 289.738 201.864 289.738 197.025C289.738 191.219 290.853 185.848 293.083 180.913C295.411 175.881 298.611 171.526 302.683 167.849C306.756 164.075 311.459 161.171 316.792 159.139C322.125 157.01 327.798 155.946 333.81 155.946C339.046 155.946 343.652 156.768 347.628 158.413C351.604 160.059 354.901 162.284 357.519 165.091C360.234 167.8 362.222 170.897 363.483 174.381C364.84 177.768 365.519 181.3 365.519 184.977C365.519 188.171 365.228 191.122 364.646 193.832C364.064 196.445 363.192 199.058 362.028 201.67H316.647C316.938 203.219 317.616 204.622 318.683 205.88C319.75 207.041 321.107 207.961 322.756 208.638C324.501 209.219 326.441 209.509 328.574 209.509C330.901 209.509 333.18 209.122 335.41 208.348C337.737 207.477 339.677 206.315 341.228 204.864L357.955 219.96C354.658 223.444 350.198 226.202 344.574 228.234C339.046 230.17 332.986 231.137 326.392 231.137ZM330.174 176.994C328.331 176.994 326.538 177.332 324.792 178.01C323.144 178.59 321.689 179.558 320.428 180.913C319.168 182.171 318.15 183.864 317.374 185.993H339.483C339.58 184.155 339.289 182.558 338.61 181.203C337.931 179.848 336.865 178.832 335.41 178.155C334.053 177.381 332.307 176.994 330.174 176.994Z" fill="#242E30"/>
<path d="M437.361 231.137C430.573 231.137 425.046 229.734 420.78 226.928C416.61 224.121 413.798 220.299 412.343 215.46C410.889 210.622 410.792 205.251 412.052 199.348L415.834 181.493H407.398L412.489 157.688H420.925L425.143 138.236H453.797L449.579 157.688H471.397L466.306 181.493H444.488L440.707 199.348C440.319 201.477 440.561 203.219 441.434 204.574C442.404 205.928 444.1 206.606 446.525 206.606C448.173 206.606 449.676 206.364 451.034 205.88C452.391 205.299 453.846 204.477 455.397 203.412L463.106 224.46C461.07 225.718 458.694 226.879 455.979 227.944C453.361 228.912 450.5 229.686 447.397 230.266C444.294 230.847 440.949 231.137 437.361 231.137Z" fill="#242E30"/>
<path d="M484.727 229.395L474.399 157.688H505.09L507.853 193.832H507.999L526.326 157.688H551.926L558.326 193.832H558.617L573.453 157.688H605.016L566.18 229.395H538.253L532.871 191.074L512.799 229.395H484.727Z" fill="#242E30"/>
<path d="M634.454 231.137C629.218 231.137 624.418 230.315 620.054 228.67C615.788 227.025 612.055 224.654 608.855 221.557C605.752 218.46 603.327 214.831 601.582 210.67C599.933 206.412 599.109 201.719 599.109 196.59C599.109 190.784 600.224 185.413 602.455 180.477C604.685 175.542 607.788 171.236 611.764 167.558C615.739 163.881 620.394 161.026 625.727 158.994C631.157 156.962 637.024 155.946 643.327 155.946C648.66 155.946 653.46 156.768 657.727 158.413C662.09 160.059 665.823 162.429 668.926 165.526C672.029 168.623 674.405 172.3 676.054 176.558C677.799 180.816 678.672 185.558 678.672 190.784C678.672 196.59 677.557 201.961 675.326 206.896C673.096 211.735 669.993 215.993 666.017 219.67C662.042 223.25 657.339 226.057 651.909 228.089C646.575 230.121 640.757 231.137 634.454 231.137ZM637.509 204.574C639.836 204.574 641.872 204.041 643.618 202.977C645.46 201.912 646.915 200.461 647.981 198.622C649.048 196.783 649.581 194.751 649.581 192.525C649.581 190.493 649.145 188.751 648.272 187.3C647.497 185.751 646.381 184.59 644.927 183.816C643.472 182.945 641.727 182.51 639.69 182.51C637.654 182.51 635.763 183.09 634.018 184.251C632.272 185.316 630.866 186.816 629.8 188.751C628.733 190.59 628.2 192.622 628.2 194.848C628.2 196.88 628.539 198.622 629.218 200.074C629.994 201.525 631.06 202.638 632.418 203.412C633.872 204.186 635.569 204.574 637.509 204.574Z" fill="#242E30"/>
</svg>
