<svg width="16" height="16" viewBox="0 0 16 16" fill="none" xmlns="http://www.w3.org/2000/svg">
<path d="M7.99986 1.1748C6.66053 1.17483 5.35119 1.57146 4.23699 2.31468C3.12279 3.05789 2.25362 4.11441 1.7391 5.35097C1.22458 6.58754 1.08776 7.94878 1.34589 9.26301C1.60402 10.5772 2.24554 11.7856 3.18954 12.7357C4.13354 13.6858 5.33775 14.335 6.65029 14.6016C7.96283 14.8682 9.32491 14.7401 10.5648 14.2336C11.8046 13.727 12.8667 12.8647 13.6171 11.7553C14.3674 10.6459 14.7725 9.33911 14.7811 7.9998C14.7857 7.10592 14.6138 6.21992 14.2752 5.39265C13.9365 4.56538 13.4379 3.81311 12.8079 3.179C12.1778 2.54489 11.4288 2.04143 10.6037 1.6975C9.77862 1.35357 8.89375 1.17594 7.99986 1.1748ZM7.99986 5.71605C8.04665 5.37455 8.19789 5.05587 8.43286 4.80367C8.66782 4.55147 8.97502 4.3781 9.31236 4.3073H9.46986C9.50225 4.57411 9.45667 4.84459 9.33861 5.08605C9.24608 5.30666 9.1014 5.50153 8.91699 5.65393C8.73259 5.80633 8.51395 5.91172 8.27986 5.96105C7.93861 6.04855 7.94736 6.0573 7.99986 5.71605ZM11.0186 9.74981C11.0153 9.78181 11.0153 9.81406 11.0186 9.84606C10.817 10.428 10.4916 10.9594 10.0649 11.4035C9.90713 11.5644 9.70074 11.6687 9.47768 11.7004C9.25462 11.732 9.02736 11.6892 8.83111 11.5785C8.63249 11.4607 8.40581 11.3985 8.17486 11.3985C7.94392 11.3985 7.71724 11.4607 7.51861 11.5785C7.32575 11.6735 7.11216 11.7186 6.89736 11.7098C6.76753 11.7012 6.64126 11.6637 6.52773 11.6001C6.41421 11.5366 6.31629 11.4485 6.24111 11.3423C5.42573 10.4901 4.97386 9.35419 4.98111 8.1748C4.98637 7.84691 5.05469 7.5231 5.18236 7.22105C5.27194 6.99616 5.4072 6.7923 5.57959 6.62236C5.75199 6.45241 5.95776 6.32009 6.18391 6.23374C6.41006 6.14739 6.65167 6.1089 6.89345 6.1207C7.13524 6.1325 7.37195 6.19434 7.58861 6.3023C7.72961 6.3837 7.88955 6.42656 8.05236 6.42656C8.21517 6.42656 8.37511 6.3837 8.51611 6.3023C8.66554 6.23113 8.82067 6.17259 8.97986 6.1273C9.36835 6.04938 9.77137 6.09213 10.1349 6.2498C10.4222 6.35778 10.6633 6.56181 10.8174 6.8273C10.7124 6.92355 10.6074 7.0023 10.5111 7.09855C10.4035 7.19575 10.3067 7.30429 10.2224 7.4223C10.0523 7.72459 9.98267 8.0731 10.0236 8.41753C10.0645 8.76196 10.2137 9.0845 10.4499 9.33856C10.6004 9.51674 10.7972 9.64995 11.0186 9.72355V9.74981Z" fill="#242E30"/>
</svg>
