<svg width="16" height="16" viewBox="0 0 16 16" fill="none" xmlns="http://www.w3.org/2000/svg">
<path d="M8.00022 1.45514C6.3497 1.44772 4.75731 2.06418 3.54203 3.18104C2.32675 4.2979 1.57832 5.83269 1.44665 7.47797C1.31498 9.12325 1.80981 10.7575 2.832 12.0534C3.85419 13.3493 5.32827 14.2112 6.95897 14.4664V9.89014H5.29647V8.00014H6.95897V6.55639C6.92328 6.2193 6.96222 5.87848 7.07303 5.55812C7.18383 5.23776 7.36378 4.94571 7.60011 4.70269C7.83645 4.45968 8.12337 4.27166 8.44051 4.15197C8.75766 4.03228 9.09726 3.98386 9.43522 4.01014C9.92489 4.01755 10.4133 4.06142 10.8965 4.14139V5.75139H10.074C9.9331 5.73236 9.78974 5.74535 9.65458 5.78941C9.51942 5.83346 9.39594 5.90744 9.29334 6.00584C9.19074 6.10423 9.11166 6.22451 9.06199 6.35771C9.01232 6.4909 8.99335 6.63359 9.00647 6.77514V8.00014H10.8177L10.529 9.89014H9.00647V14.4664C10.6341 14.2116 12.1058 13.3524 13.1277 12.0602C14.1497 10.768 14.6468 9.13802 14.5198 7.49548C14.3927 5.85293 13.6509 4.31871 12.4424 3.19904C11.234 2.07938 9.64767 1.45665 8.00022 1.45514Z" fill="#1778F2"/>
</svg>
