<svg width="32" height="32" viewBox="0 0 32 32" fill="none" xmlns="http://www.w3.org/2000/svg">
<path d="M16 3.67139C13.5772 3.67139 11.2088 4.38984 9.19427 5.73589C7.17977 7.08194 5.60965 8.99513 4.68248 11.2335C3.75531 13.4719 3.51272 15.935 3.98539 18.3112C4.45805 20.6875 5.62475 22.8702 7.33795 24.5834C9.05114 26.2966 11.2339 27.4633 13.6101 27.936C15.9864 28.4087 18.4495 28.1661 20.6879 27.2389C22.9263 26.3117 24.8395 24.7416 26.1855 22.7271C27.5316 20.7126 28.25 18.3442 28.25 15.9214C28.25 12.6725 26.9594 9.55666 24.6621 7.25934C22.3647 4.96202 19.2489 3.67139 16 3.67139ZM11.7563 22.8164H9.13126C8.97375 22.8164 8.91251 22.8164 8.91251 22.6064C8.91251 19.6401 8.91251 16.6826 8.91251 13.7164C8.91251 13.5589 8.91251 13.5064 9.11376 13.5151H11.8088C11.9925 13.5151 12.0188 13.5764 12.0188 13.7339C12.0188 15.2126 12.0188 16.6914 12.0188 18.1701C12.0188 19.6489 12.0188 21.1014 12.0188 22.5451C11.9925 22.7551 11.9575 22.8251 11.7563 22.8164ZM12.1413 11.0739C12.0024 11.4883 11.7134 11.8357 11.3313 12.0479C10.9491 12.26 10.5014 12.3214 10.0763 12.2201C9.83331 12.1886 9.60098 12.1012 9.39755 11.9647C9.19411 11.8282 9.02512 11.6464 8.90384 11.4335C8.78257 11.2206 8.71234 10.9826 8.69866 10.738C8.68498 10.4934 8.72823 10.2489 8.82501 10.0239C8.95731 9.70421 9.18605 9.43376 9.47935 9.25025C9.77265 9.06674 10.1159 8.97931 10.4613 9.00014C10.7237 8.97722 10.9878 9.01906 11.2304 9.12201C11.4729 9.22495 11.6865 9.38584 11.8523 9.59057C12.0182 9.7953 12.1313 10.0376 12.1816 10.2962C12.232 10.5548 12.2181 10.8219 12.1413 11.0739ZM22.895 22.8164H20.27C20.0775 22.8164 20.025 22.7639 20.025 22.5801C20.025 21.0226 20.025 19.4651 20.025 17.8989C20.0337 17.554 19.9954 17.2096 19.9113 16.8751C19.845 16.6255 19.7164 16.3968 19.5375 16.2106C19.3586 16.0244 19.1352 15.8868 18.8885 15.8106C18.6417 15.7345 18.3796 15.7224 18.1269 15.7754C17.8742 15.8285 17.6391 15.9449 17.4438 16.1139C17.221 16.2994 17.0448 16.5345 16.9293 16.8005C16.8138 17.0664 16.7622 17.3557 16.7788 17.6451C16.7788 19.1151 16.7788 20.5851 16.7788 22.0201C16.7788 22.2214 16.7788 22.4139 16.7788 22.6064C16.7788 22.7989 16.7175 22.7989 16.5688 22.7989H13.9C13.7425 22.7989 13.6813 22.7989 13.6813 22.5889C13.6813 21.2676 13.6813 19.9639 13.6813 18.6164C13.6813 16.9801 13.6813 15.3526 13.6813 13.7251C13.6813 13.5414 13.6813 13.4889 13.9 13.4889C14.775 13.4889 15.65 13.4889 16.5775 13.4889C16.735 13.4889 16.7788 13.5326 16.7788 13.6901C16.7788 14.0226 16.7788 14.3639 16.7788 14.7576L16.8838 14.6526C17.2441 14.1264 17.756 13.7224 18.3515 13.4942C18.947 13.266 19.5978 13.2245 20.2175 13.3751C20.9615 13.4822 21.6468 13.8396 22.1606 14.3883C22.6743 14.9371 22.9858 15.6444 23.0438 16.3939C23.0993 16.7911 23.1285 17.1915 23.1313 17.5926C23.1313 19.2639 23.1313 20.9351 23.1313 22.6064C23.1313 22.7639 23.0875 22.8251 22.895 22.8164Z" fill="#242E30"/>
</svg>
