<svg width="16" height="16" viewBox="0 0 16 16" fill="none" xmlns="http://www.w3.org/2000/svg">
<path fill-rule="evenodd" clip-rule="evenodd" d="M5.18357 5.70526C4.90728 5.3755 4.69337 5.09029 4.69337 5.09029H4.68446C4.68446 5.09029 4.68895 5.09023 4.69551 5.09012C4.76803 5.08893 5.18413 5.08212 5.68268 5.09029H6.67199L8.34757 7.15803L9.04276 6.47175C9.426 6.09742 9.89838 5.62505 10.0856 5.43788L10.4332 5.09029H11.0303L8.63277 7.4878C8.63277 7.49238 8.70335 7.57929 8.81428 7.71592C8.91928 7.84522 9.06042 8.01904 9.2121 8.20973C9.52404 8.60188 9.88055 9.03861 10.0054 9.19012L10.0064 9.19147C10.1234 9.3354 10.4698 9.7617 10.7718 10.1349C10.8804 10.2689 10.9832 10.395 11.0705 10.502C11.2269 10.6938 11.3333 10.8243 11.3333 10.8301C11.3423 10.8479 11.1729 10.8479 10.3531 10.8479H9.36361L8.71299 10.0547C8.42333 9.69982 8.09837 9.29792 7.90543 9.05929C7.86089 9.00421 7.82339 8.95784 7.79498 8.92274L7.51869 8.58406L7.48304 8.61971C7.48107 8.62168 7.47369 8.62917 7.46135 8.64168C7.36189 8.74261 6.94081 9.16987 6.44917 9.65358C5.89692 10.1969 5.40698 10.6869 5.35301 10.7408L5.25487 10.839H4.96075C4.79141 10.839 4.67555 10.8301 4.67555 10.8301C4.67555 10.8247 4.88182 10.6195 5.19515 10.3079C5.39877 10.1055 5.6476 9.858 5.91441 9.59119L7.25131 8.25429L6.46699 7.28281C6.29321 7.07001 6.09825 6.82898 5.90908 6.59511C5.62287 6.24127 5.34992 5.90381 5.18357 5.70526ZM8.14258 7.56801C7.85737 7.22042 7.35826 6.60544 7.03741 6.20437L7.01958 6.19546L6.43134 5.47353H5.9768C5.62029 5.47353 5.54008 5.48245 5.54008 5.49136C5.54663 5.49791 5.69053 5.67555 5.97266 6.02381C6.45789 6.62279 7.352 7.72652 8.65951 9.33272L9.55078 10.4379H10.0054C10.3619 10.4379 10.451 10.429 10.451 10.4201C10.451 10.4145 10.288 10.2139 10.0446 9.91453C9.902 9.73916 9.73186 9.52987 9.55078 9.30599C9.44546 9.17577 9.33355 9.03732 9.21992 8.89675C8.8047 8.38305 8.3665 7.84092 8.14258 7.56801Z" fill="#242E30"/>
<path fill-rule="evenodd" clip-rule="evenodd" d="M7.99997 1.18018C4.25548 1.18018 1.21997 4.21569 1.21997 7.96018C1.21997 11.7047 4.25548 14.7402 7.99997 14.7402C11.7445 14.7402 14.78 11.7047 14.78 7.96018C14.78 4.21569 11.7445 1.18018 7.99997 1.18018ZM2.74786 7.96018C2.74786 5.05952 5.09931 2.70807 7.99997 2.70807C10.9007 2.70807 13.2521 5.05952 13.2521 7.96018C13.2521 10.8609 10.9007 13.2123 7.99997 13.2123C5.09931 13.2123 2.74786 10.8609 2.74786 7.96018Z" fill="#242E30"/>
</svg>
