<svg width="32" height="32" viewBox="0 0 32 32" fill="none" xmlns="http://www.w3.org/2000/svg">
<path fill-rule="evenodd" clip-rule="evenodd" d="M28.25 16C28.25 22.7655 22.7655 28.25 16 28.25C9.23451 28.25 3.75 22.7655 3.75 16C3.75 9.23451 9.23451 3.75 16 3.75C22.7655 3.75 28.25 9.23451 28.25 16ZM10.0446 11.2319C9.46981 10.5252 9.00808 9.93154 9.00808 9.93154L9.0175 9.92212C9.0175 9.91269 9.96923 9.91269 11.1188 9.93154H13.2108L14.9823 12.1177L16.7538 14.2944L18.2144 12.8433C19.0153 12.0518 20.0045 11.0626 20.4098 10.6573L20.41 10.6571L21.145 9.92212H22.4077L22.0685 10.2613C20.8623 11.4392 17.3287 14.9729 17.3287 14.9917C17.3287 15.0012 17.8752 15.689 18.5442 16.5088C18.9312 16.9831 19.3466 17.4951 19.6773 17.9028C19.9183 18.1998 20.1143 18.4414 20.2215 18.5725C20.3134 18.6848 20.468 18.8745 20.6581 19.1079C20.9946 19.5209 21.4424 20.0705 21.8517 20.5702C21.9475 20.6886 22.0411 20.804 22.1308 20.9148C22.6412 21.5447 23.0296 22.0241 23.0296 22.0402C23.039 22.0779 22.6904 22.0779 20.9565 22.0779H18.8646L17.4983 20.4006C17.1244 19.9425 16.7226 19.4451 16.3736 19.0129C16.0189 18.5737 15.7186 18.2018 15.5571 18.0071L14.9823 17.3004L14.9069 17.3758C14.899 17.3837 14.8643 17.4182 14.8065 17.4755C14.5214 17.7583 13.675 18.5982 12.7113 19.5619C11.8398 20.4335 11.0322 21.2357 10.6371 21.6282C10.5068 21.7577 10.4213 21.8425 10.3933 21.8706L10.1954 22.0779H9.58288C9.22481 22.0873 8.97981 22.0685 8.97981 22.059L11.5994 19.4394C13.0412 18.0165 14.2662 16.7915 14.3227 16.735L14.4263 16.6219L12.7585 14.5677C12.0696 13.7241 11.2181 12.6761 10.5914 11.9047C10.378 11.642 10.1906 11.4114 10.0446 11.2319ZM14.1674 12.528C14.0971 12.4413 14.0293 12.3576 13.9646 12.2779V12.2685L12.7208 10.7419H11.769H11.7689C11.0152 10.7419 10.8173 10.7419 10.8362 10.7702C10.8536 10.7992 11.6961 11.8356 13.3595 13.8815C14.3977 15.1585 15.7557 16.8288 17.4323 18.8929L19.3263 21.2204H20.2781H20.2783C21.0225 21.2204 21.2298 21.2204 21.211 21.1921C21.1921 21.1733 20.3346 20.1179 19.2981 18.8363C18.2615 17.5642 16.914 15.9058 16.311 15.1613C15.7561 14.4869 14.8453 13.3639 14.1674 12.528Z" fill="#242E30"/>
</svg>
