<svg width="16" height="16" viewBox="0 0 16 16" fill="none" xmlns="http://www.w3.org/2000/svg">
<path fill-rule="evenodd" clip-rule="evenodd" d="M4.23699 2.31517C5.35119 1.57195 6.66053 1.17532 7.99986 1.17529C8.89375 1.17643 9.77862 1.35406 10.6037 1.69799C11.4288 2.04192 12.1778 2.54538 12.8079 3.17949C13.4379 3.8136 13.9365 4.56587 14.2752 5.39314C14.6138 6.22042 14.7857 7.10641 14.7811 8.00029C14.7725 9.3396 14.3674 10.6463 13.6171 11.7557C12.8667 12.8651 11.8046 13.7275 10.5648 14.234C9.32491 14.7406 7.96283 14.8686 6.65029 14.6021C5.33775 14.3355 4.13354 13.6862 3.18954 12.7361C2.24554 11.786 1.60402 10.5777 1.34589 9.26349C1.08776 7.94926 1.22458 6.58803 1.7391 5.35146C2.25362 4.1149 3.12278 3.05838 4.23699 2.31517ZM10.8746 6.67119C10.8056 6.40709 10.6023 6.19911 10.3441 6.12852C9.87628 6.00024 8 6.00024 8 6.00024C8 6.00024 6.12375 6.00024 5.65585 6.12852C5.39766 6.19911 5.19432 6.40709 5.12536 6.67119C5 7.14988 5 8.14865 5 8.14865C5 8.14865 5 9.14737 5.12536 9.62611C5.19432 9.89023 5.39766 10.0981 5.65583 10.1688C6.12372 10.297 7.99997 10.297 7.99997 10.297C7.99997 10.297 9.87625 10.297 10.3441 10.1688C10.6023 10.0982 10.8056 9.89023 10.8746 9.62614C11 9.1474 11 8.14868 11 8.14868C11 8.14868 11 7.14987 10.8746 6.67119ZM7.38633 9.20889L8.95451 8.30214L7.38633 7.39529V9.20889Z" fill="#242E30"/>
</svg>
