<svg width="322" height="226" viewBox="0 0 322 226" fill="none" xmlns="http://www.w3.org/2000/svg">
<g filter="url(#filter0_ddd_3774_3409)">
<g clip-path="url(#clip0_3774_3409)">
<path d="M17 25C17 16.1634 24.1634 9 33 9H289C297.837 9 305 16.1634 305 25V185C305 193.837 297.837 201 289 201H33C24.1635 201 17 193.837 17 185V25Z" fill="white"/>
<rect width="288" height="56" transform="translate(17 9)" fill="white"/>
<path d="M38.52 44.24C37.3067 44.24 36.28 44.0533 35.44 43.68C34.6133 43.2933 33.92 42.7667 33.36 42.1L35.54 40.08C35.7267 40.28 35.9133 40.4667 36.1 40.64C36.3 40.8 36.5133 40.9467 36.74 41.08C36.98 41.2133 37.24 41.32 37.52 41.4C37.8133 41.4667 38.14 41.5 38.5 41.5C39.0467 41.5 39.4933 41.3933 39.84 41.18C40.1867 40.9667 40.36 40.64 40.36 40.2C40.36 39.9867 40.2933 39.8067 40.16 39.66C40.04 39.5133 39.8533 39.3867 39.6 39.28C39.3467 39.16 39.0267 39.0467 38.64 38.94C38.2667 38.8333 37.8267 38.7067 37.32 38.56C36.8667 38.4267 36.4267 38.2667 36 38.08C35.5867 37.8933 35.2133 37.6533 34.88 37.36C34.56 37.0533 34.3 36.6867 34.1 36.26C33.9 35.8333 33.8 35.32 33.8 34.72C33.8 34.0933 33.92 33.54 34.16 33.06C34.4133 32.5667 34.76 32.1533 35.2 31.82C35.6533 31.4733 36.1867 31.2133 36.8 31.04C37.4267 30.8533 38.12 30.76 38.88 30.76C40.0533 30.76 41.02 30.94 41.78 31.3C42.54 31.66 43.1533 32.14 43.62 32.74L41.46 34.74C41.1533 34.3933 40.8067 34.1067 40.42 33.88C40.0467 33.64 39.5533 33.52 38.94 33.52C38.4733 33.52 38.0667 33.6067 37.72 33.78C37.3867 33.9533 37.22 34.2533 37.22 34.68C37.22 34.9067 37.28 35.0933 37.4 35.24C37.5333 35.3733 37.7267 35.5 37.98 35.62C38.2333 35.7267 38.5467 35.8333 38.92 35.94C39.3067 36.0467 39.7533 36.1733 40.26 36.32C40.7133 36.4533 41.1467 36.6133 41.56 36.8C41.9867 36.9867 42.36 37.2333 42.68 37.54C43.0133 37.8333 43.28 38.1933 43.48 38.62C43.68 39.0467 43.78 39.56 43.78 40.16C43.78 40.8 43.6533 41.3733 43.4 41.88C43.1467 42.3733 42.7867 42.8 42.32 43.16C41.8667 43.5067 41.3133 43.7733 40.66 43.96C40.02 44.1467 39.3067 44.24 38.52 44.24ZM48.3411 44.24C47.9011 44.24 47.4744 44.1733 47.0611 44.04C46.6611 43.9067 46.3078 43.7133 46.0011 43.46C45.7078 43.1933 45.4678 42.8733 45.2811 42.5C45.1078 42.1267 45.0211 41.7 45.0211 41.22C45.0211 40.3133 45.3411 39.6 45.9811 39.08C46.6344 38.56 47.6544 38.26 49.0411 38.18L51.1411 38.06V37.9C51.1411 37.62 51.0811 37.3933 50.9611 37.22C50.8544 37.0467 50.7078 36.9133 50.5211 36.82C50.3478 36.7133 50.1411 36.64 49.9011 36.6C49.6744 36.56 49.4411 36.54 49.2011 36.54C48.8278 36.54 48.4478 36.6067 48.0611 36.74C47.6744 36.8733 47.3878 37.06 47.2011 37.3L45.4611 35.5C45.8211 35.0467 46.3478 34.6667 47.0411 34.36C47.7344 34.04 48.6411 33.88 49.7611 33.88C51.1878 33.88 52.3011 34.2067 53.1011 34.86C53.9144 35.5133 54.3211 36.4533 54.3211 37.68V44H51.3411V42.48H51.2211C50.9678 43 50.6011 43.4267 50.1211 43.76C49.6544 44.08 49.0611 44.24 48.3411 44.24ZM49.4211 42.08C49.9278 42.08 50.3411 41.9467 50.6611 41.68C50.9811 41.4 51.1411 40.98 51.1411 40.42V39.9L49.4811 40.02C49.0544 40.0467 48.7344 40.1533 48.5211 40.34C48.3211 40.5267 48.2211 40.7733 48.2211 41.08C48.2211 41.4267 48.3344 41.68 48.5611 41.84C48.8011 42 49.0878 42.08 49.4211 42.08ZM55.2498 34.12H58.7498L60.5298 40.64H60.6498L62.4498 34.12H65.7098L62.1498 44H58.8098L55.2498 34.12ZM71.2177 44.24C70.311 44.24 69.531 44.0933 68.8777 43.8C68.2377 43.5067 67.711 43.12 67.2977 42.64C66.8843 42.16 66.5777 41.6133 66.3777 41C66.1777 40.3733 66.0777 39.7267 66.0777 39.06C66.0777 38.4067 66.1643 37.7667 66.3377 37.14C66.5243 36.5133 66.811 35.96 67.1977 35.48C67.5977 35 68.111 34.6133 68.7377 34.32C69.3643 34.0267 70.131 33.88 71.0377 33.88C71.9443 33.88 72.711 34.0267 73.3377 34.32C73.9643 34.6 74.4643 34.98 74.8377 35.46C75.2243 35.9267 75.4977 36.4667 75.6577 37.08C75.831 37.6933 75.9177 38.3267 75.9177 38.98C75.9177 39.1267 75.9043 39.32 75.8777 39.56C75.851 39.7867 75.8177 39.96 75.7777 40.08H69.2977C69.351 40.3733 69.451 40.62 69.5977 40.82C69.7577 41.02 69.9377 41.18 70.1377 41.3C70.3377 41.42 70.5443 41.5067 70.7577 41.56C70.9843 41.6133 71.1977 41.64 71.3977 41.64C71.8643 41.64 72.2643 41.5667 72.5977 41.42C72.9443 41.2733 73.211 41.08 73.3977 40.84L75.1377 42.66C74.8177 43.1267 74.311 43.5067 73.6177 43.8C72.9243 44.0933 72.1243 44.24 71.2177 44.24ZM71.0377 36.24C70.611 36.24 70.231 36.3733 69.8977 36.64C69.5643 36.8933 69.3443 37.34 69.2377 37.98H72.7977C72.7043 37.34 72.491 36.8933 72.1577 36.64C71.8243 36.3733 71.451 36.24 71.0377 36.24ZM86.6831 44.24C85.8165 44.24 85.0698 44.1 84.4431 43.82C83.8298 43.5267 83.3165 43.1467 82.9031 42.68C82.5031 42.2 82.2031 41.6467 82.0031 41.02C81.8165 40.3933 81.7231 39.74 81.7231 39.06C81.7231 38.38 81.8165 37.7267 82.0031 37.1C82.1898 36.4733 82.4831 35.9267 82.8831 35.46C83.2831 34.98 83.7898 34.6 84.4031 34.32C85.0165 34.0267 85.7498 33.88 86.6031 33.88C87.4031 33.88 88.1098 34.0333 88.7231 34.34C89.3365 34.6467 89.8298 35.02 90.2031 35.46L88.0631 37.4C87.8898 37.1733 87.6898 37 87.4631 36.88C87.2365 36.7467 86.9631 36.68 86.6431 36.68C86.0831 36.68 85.6631 36.8867 85.3831 37.3C85.1031 37.7133 84.9631 38.3 84.9631 39.06C84.9631 39.82 85.1098 40.4067 85.4031 40.82C85.6965 41.2333 86.1231 41.44 86.6831 41.44C86.9898 41.44 87.2698 41.3733 87.5231 41.24C87.7898 41.1067 87.9965 40.9267 88.1431 40.7L90.2831 42.64C89.9231 43.08 89.4298 43.46 88.8031 43.78C88.1898 44.0867 87.4831 44.24 86.6831 44.24ZM91.6186 29.5H94.7986V35.4H94.8986C95.1519 34.9467 95.5186 34.58 95.9986 34.3C96.4786 34.02 97.0186 33.88 97.6186 33.88C98.2719 33.88 98.8186 33.9733 99.2586 34.16C99.7119 34.3333 100.072 34.5933 100.339 34.94C100.605 35.2867 100.792 35.72 100.899 36.24C101.019 36.7467 101.079 37.3267 101.079 37.98V44H97.8986V38.62C97.8986 37.9933 97.7919 37.5 97.5786 37.14C97.3653 36.7667 96.9653 36.58 96.3786 36.58C95.8186 36.58 95.4119 36.7533 95.1586 37.1C94.9186 37.4467 94.7986 37.9533 94.7986 38.62V44H91.6186V29.5ZM105.841 44.24C105.401 44.24 104.974 44.1733 104.561 44.04C104.161 43.9067 103.808 43.7133 103.501 43.46C103.208 43.1933 102.968 42.8733 102.781 42.5C102.608 42.1267 102.521 41.7 102.521 41.22C102.521 40.3133 102.841 39.6 103.481 39.08C104.134 38.56 105.154 38.26 106.541 38.18L108.641 38.06V37.9C108.641 37.62 108.581 37.3933 108.461 37.22C108.354 37.0467 108.208 36.9133 108.021 36.82C107.848 36.7133 107.641 36.64 107.401 36.6C107.174 36.56 106.941 36.54 106.701 36.54C106.328 36.54 105.948 36.6067 105.561 36.74C105.174 36.8733 104.888 37.06 104.701 37.3L102.961 35.5C103.321 35.0467 103.848 34.6667 104.541 34.36C105.234 34.04 106.141 33.88 107.261 33.88C108.688 33.88 109.801 34.2067 110.601 34.86C111.414 35.5133 111.821 36.4533 111.821 37.68V44H108.841V42.48H108.721C108.468 43 108.101 43.4267 107.621 43.76C107.154 44.08 106.561 44.24 105.841 44.24ZM106.921 42.08C107.428 42.08 107.841 41.9467 108.161 41.68C108.481 41.4 108.641 40.98 108.641 40.42V39.9L106.981 40.02C106.554 40.0467 106.234 40.1533 106.021 40.34C105.821 40.5267 105.721 40.7733 105.721 41.08C105.721 41.4267 105.834 41.68 106.061 41.84C106.301 42 106.588 42.08 106.921 42.08ZM113.806 34.12H116.786V35.76H116.906C117.106 35.2133 117.466 34.7667 117.986 34.42C118.519 34.06 119.126 33.88 119.806 33.88C120.459 33.88 121.006 33.9733 121.446 34.16C121.899 34.3333 122.259 34.5933 122.526 34.94C122.793 35.2867 122.979 35.72 123.086 36.24C123.206 36.7467 123.266 37.3267 123.266 37.98V44H120.086V38.62C120.086 37.9933 119.979 37.5 119.766 37.14C119.553 36.7667 119.153 36.58 118.566 36.58C118.006 36.58 117.599 36.7533 117.346 37.1C117.106 37.4467 116.986 37.9533 116.986 38.62V44H113.806V34.12ZM129.45 47.94C128.584 47.94 127.804 47.7867 127.11 47.48C126.417 47.1867 125.91 46.8267 125.59 46.4L127.45 44.5C127.624 44.7267 127.904 44.9133 128.29 45.06C128.677 45.22 129.07 45.3 129.47 45.3C129.724 45.3 129.977 45.2733 130.23 45.22C130.484 45.1667 130.71 45.0733 130.91 44.94C131.11 44.8067 131.27 44.6267 131.39 44.4C131.524 44.1733 131.59 43.8867 131.59 43.54V41.68H131.51C131.297 42.2 130.957 42.6333 130.49 42.98C130.024 43.3133 129.417 43.48 128.67 43.48C128.07 43.48 127.53 43.3667 127.05 43.14C126.57 42.9 126.157 42.5667 125.81 42.14C125.477 41.7 125.217 41.18 125.03 40.58C124.844 39.98 124.75 39.32 124.75 38.6C124.75 37.8933 124.844 37.2533 125.03 36.68C125.217 36.0933 125.484 35.6 125.83 35.2C126.177 34.7867 126.59 34.4667 127.07 34.24C127.564 34.0133 128.11 33.9 128.71 33.9C129.457 33.9 130.07 34.0667 130.55 34.4C131.044 34.72 131.41 35.1733 131.65 35.76H131.77V34.12H134.77V43.6C134.77 44.3067 134.644 44.9267 134.39 45.46C134.137 46.0067 133.777 46.46 133.31 46.82C132.844 47.1933 132.284 47.4733 131.63 47.66C130.977 47.8467 130.25 47.94 129.45 47.94ZM129.79 40.9C130.097 40.9 130.364 40.84 130.59 40.72C130.817 40.5867 131.004 40.42 131.15 40.22C131.297 40.0067 131.404 39.7667 131.47 39.5C131.55 39.2333 131.59 38.9533 131.59 38.66C131.59 38.3667 131.55 38.0867 131.47 37.82C131.404 37.5533 131.297 37.32 131.15 37.12C131.004 36.9067 130.817 36.74 130.59 36.62C130.364 36.4867 130.097 36.42 129.79 36.42C129.484 36.42 129.217 36.4867 128.99 36.62C128.764 36.74 128.577 36.9067 128.43 37.12C128.284 37.32 128.17 37.5533 128.09 37.82C128.024 38.0867 127.99 38.3667 127.99 38.66C127.99 38.9533 128.024 39.2333 128.09 39.5C128.17 39.7667 128.284 40.0067 128.43 40.22C128.577 40.42 128.764 40.5867 128.99 40.72C129.217 40.84 129.484 40.9 129.79 40.9ZM141.452 44.24C140.545 44.24 139.765 44.0933 139.112 43.8C138.472 43.5067 137.945 43.12 137.532 42.64C137.119 42.16 136.812 41.6133 136.612 41C136.412 40.3733 136.312 39.7267 136.312 39.06C136.312 38.4067 136.399 37.7667 136.572 37.14C136.759 36.5133 137.045 35.96 137.432 35.48C137.832 35 138.345 34.6133 138.972 34.32C139.599 34.0267 140.365 33.88 141.272 33.88C142.179 33.88 142.945 34.0267 143.572 34.32C144.199 34.6 144.699 34.98 145.072 35.46C145.459 35.9267 145.732 36.4667 145.892 37.08C146.065 37.6933 146.152 38.3267 146.152 38.98C146.152 39.1267 146.139 39.32 146.112 39.56C146.085 39.7867 146.052 39.96 146.012 40.08H139.532C139.585 40.3733 139.685 40.62 139.832 40.82C139.992 41.02 140.172 41.18 140.372 41.3C140.572 41.42 140.779 41.5067 140.992 41.56C141.219 41.6133 141.432 41.64 141.632 41.64C142.099 41.64 142.499 41.5667 142.832 41.42C143.179 41.2733 143.445 41.08 143.632 40.84L145.372 42.66C145.052 43.1267 144.545 43.5067 143.852 43.8C143.159 44.0933 142.359 44.24 141.452 44.24ZM141.272 36.24C140.845 36.24 140.465 36.3733 140.132 36.64C139.799 36.8933 139.579 37.34 139.472 37.98H143.032C142.939 37.34 142.725 36.8933 142.392 36.64C142.059 36.3733 141.685 36.24 141.272 36.24ZM152.393 41.02C152.393 40.74 152.199 40.5467 151.813 40.44C151.426 40.32 150.893 40.1867 150.213 40.04C149.826 39.96 149.459 39.8467 149.113 39.7C148.766 39.54 148.459 39.3467 148.193 39.12C147.926 38.88 147.713 38.5933 147.553 38.26C147.393 37.9267 147.313 37.5267 147.313 37.06C147.313 36.5533 147.419 36.1067 147.633 35.72C147.846 35.32 148.139 34.9867 148.513 34.72C148.899 34.44 149.353 34.2333 149.873 34.1C150.393 33.9533 150.966 33.88 151.593 33.88C152.579 33.88 153.406 34.02 154.073 34.3C154.739 34.58 155.233 34.9133 155.553 35.3L153.893 37.1C153.653 36.8467 153.339 36.64 152.953 36.48C152.566 36.32 152.186 36.24 151.813 36.24C151.466 36.24 151.166 36.3 150.913 36.42C150.659 36.5267 150.533 36.72 150.533 37C150.533 37.28 150.726 37.48 151.113 37.6C151.499 37.7067 152.033 37.8333 152.713 37.98C153.099 38.06 153.466 38.18 153.813 38.34C154.159 38.4867 154.466 38.68 154.733 38.92C154.999 39.1467 155.213 39.4333 155.373 39.78C155.533 40.1133 155.613 40.5067 155.613 40.96C155.613 41.48 155.506 41.9467 155.293 42.36C155.079 42.76 154.779 43.1 154.393 43.38C154.006 43.66 153.539 43.8733 152.993 44.02C152.459 44.1667 151.873 44.24 151.233 44.24C150.179 44.24 149.293 44.1067 148.573 43.84C147.853 43.56 147.319 43.2133 146.973 42.8L148.553 41C148.859 41.3067 149.239 41.5333 149.693 41.68C150.146 41.8133 150.599 41.88 151.053 41.88C151.479 41.88 151.806 41.8067 152.033 41.66C152.273 41.5133 152.393 41.3 152.393 41.02Z" fill="#242E30"/>
<path d="M36.856 83.096L33.384 76.6H34.968L37.528 81.784H37.624L40.184 76.6H41.688L38.216 83.096V87H36.856V83.096ZM45.7613 87.192C45.1319 87.192 44.5773 87.0853 44.0973 86.872C43.6279 86.648 43.2333 86.3493 42.9133 85.976C42.6039 85.6027 42.3693 85.1653 42.2093 84.664C42.0599 84.1627 41.9853 83.624 41.9853 83.048C41.9853 82.472 42.0599 81.9333 42.2093 81.432C42.3693 80.9307 42.6039 80.4933 42.9133 80.12C43.2333 79.7467 43.6279 79.4533 44.0973 79.24C44.5773 79.016 45.1319 78.904 45.7613 78.904C46.3906 78.904 46.9346 79.016 47.3933 79.24C47.8626 79.4533 48.2519 79.7467 48.5613 80.12C48.8706 80.4933 49.0999 80.9307 49.2493 81.432C49.4093 81.9333 49.4893 82.472 49.4893 83.048C49.4893 83.624 49.4093 84.1627 49.2493 84.664C49.0999 85.1653 48.8706 85.6027 48.5613 85.976C48.2519 86.3493 47.8626 86.648 47.3933 86.872C46.9346 87.0853 46.3906 87.192 45.7613 87.192ZM43.2973 83.048C43.2973 83.5067 43.3453 83.928 43.4413 84.312C43.5479 84.6853 43.7026 85.0107 43.9053 85.288C44.1079 85.5547 44.3639 85.7627 44.6733 85.912C44.9826 86.0613 45.3453 86.136 45.7613 86.136C46.1666 86.136 46.5186 86.0613 46.8173 85.912C47.1266 85.7627 47.3773 85.5547 47.5693 85.288C47.7719 85.0107 47.9213 84.6853 48.0173 84.312C48.1239 83.928 48.1773 83.5067 48.1773 83.048C48.1773 82.5893 48.1239 82.1733 48.0173 81.8C47.9213 81.416 47.7719 81.0907 47.5693 80.824C47.3773 80.5467 47.1266 80.3333 46.8173 80.184C46.5186 80.0347 46.1666 79.96 45.7613 79.96C45.3453 79.96 44.9826 80.0347 44.6733 80.184C44.3639 80.3333 44.1079 80.5467 43.9053 80.824C43.7026 81.0907 43.5479 81.416 43.4413 81.8C43.3453 82.1733 43.2973 82.5893 43.2973 83.048ZM54.2675 87.192C53.8302 87.192 53.4355 87.1333 53.0835 87.016C52.7315 86.8987 52.4275 86.7173 52.1715 86.472C51.9262 86.2267 51.7342 85.912 51.5955 85.528C51.4568 85.144 51.3875 84.6853 51.3875 84.152V79.096H52.6675V83.912C52.6675 84.7227 52.8222 85.2987 53.1315 85.64C53.4515 85.9707 53.9155 86.136 54.5235 86.136C55.0995 86.136 55.5528 85.928 55.8835 85.512C56.2248 85.096 56.3955 84.488 56.3955 83.688V79.096H57.6755V87H56.4595V85.752H56.3635C56.1715 86.168 55.9048 86.5147 55.5635 86.792C55.2328 87.0587 54.8008 87.192 54.2675 87.192ZM64.235 75.4H65.515V80.216H65.611C65.7923 79.8533 66.0537 79.544 66.395 79.288C66.7363 79.032 67.1737 78.904 67.707 78.904C68.6137 78.904 69.3283 79.144 69.851 79.624C70.3843 80.104 70.651 80.8773 70.651 81.944V87H69.371V82.184C69.371 81.3733 69.2057 80.8027 68.875 80.472C68.555 80.1307 68.0803 79.96 67.451 79.96C66.843 79.96 66.3683 80.168 66.027 80.584C65.6857 81 65.515 81.608 65.515 82.408V87H64.235V75.4ZM74.8853 87.192C74.5226 87.192 74.1866 87.1333 73.8773 87.016C73.5786 86.8987 73.3173 86.7333 73.0933 86.52C72.8693 86.3067 72.6933 86.056 72.5653 85.768C72.4479 85.4693 72.3893 85.144 72.3893 84.792C72.3893 84.1093 72.6346 83.56 73.1253 83.144C73.6159 82.728 74.3146 82.4933 75.2213 82.44L77.3013 82.312V81.752C77.3013 81.144 77.1519 80.7067 76.8533 80.44C76.5653 80.1627 76.1493 80.024 75.6053 80.024C75.1466 80.024 74.7519 80.1093 74.4213 80.28C74.0906 80.4507 73.8346 80.6373 73.6533 80.84L72.8853 80.072C73.1626 79.7307 73.5359 79.4533 74.0053 79.24C74.4853 79.016 75.0293 78.904 75.6373 78.904C76.1813 78.904 76.6399 78.9787 77.0133 79.128C77.3866 79.2667 77.6853 79.4587 77.9093 79.704C78.1439 79.9493 78.3093 80.2373 78.4053 80.568C78.5119 80.8987 78.5653 81.2507 78.5653 81.624V87H77.3653V85.656H77.2693C77.0559 86.136 76.7573 86.5147 76.3733 86.792C75.9893 87.0587 75.4933 87.192 74.8853 87.192ZM75.0773 86.104C75.7386 86.104 76.2719 85.912 76.6773 85.528C77.0933 85.1333 77.3013 84.6107 77.3013 83.96V83.272L75.2853 83.416C74.2186 83.5013 73.6853 83.9493 73.6853 84.76C73.6853 85.1653 73.8133 85.4907 74.0693 85.736C74.3359 85.9813 74.6719 86.104 75.0773 86.104ZM79.945 79.096H81.337L83.721 85.688H83.817L86.217 79.096H87.513L84.441 87H83.001L79.945 79.096ZM92.1199 87.192C91.5545 87.192 91.0372 87.096 90.5679 86.904C90.1092 86.712 89.7145 86.44 89.3839 86.088C89.0639 85.7253 88.8132 85.288 88.6319 84.776C88.4612 84.264 88.3759 83.688 88.3759 83.048C88.3759 82.376 88.4665 81.784 88.6479 81.272C88.8292 80.7493 89.0799 80.3173 89.3999 79.976C89.7199 79.624 90.0985 79.3573 90.5359 79.176C90.9839 78.9947 91.4745 78.904 92.0079 78.904C92.5412 78.904 93.0319 78.9893 93.4799 79.16C93.9279 79.3307 94.3119 79.5867 94.6319 79.928C94.9519 80.2587 95.2025 80.68 95.3839 81.192C95.5652 81.6933 95.6559 82.28 95.6559 82.952C95.6559 83.0373 95.6505 83.1227 95.6399 83.208C95.6399 83.2933 95.6345 83.3627 95.6239 83.416H89.6559C89.6559 83.7893 89.7199 84.1413 89.8479 84.472C89.9865 84.792 90.1679 85.0747 90.3919 85.32C90.6265 85.5547 90.8932 85.7413 91.1919 85.88C91.5012 86.0187 91.8319 86.088 92.1839 86.088C92.7599 86.088 93.2292 85.976 93.5919 85.752C93.9652 85.528 94.2745 85.256 94.5199 84.936L95.2879 85.72C94.9465 86.168 94.5199 86.5253 94.0079 86.792C93.5065 87.0587 92.8772 87.192 92.1199 87.192ZM92.0079 79.96C91.6345 79.96 91.3039 80.0293 91.0159 80.168C90.7279 80.3067 90.4879 80.488 90.2959 80.712C90.1039 80.936 89.9545 81.192 89.8479 81.48C89.7519 81.768 89.6985 82.056 89.6879 82.344H94.3119C94.3012 82.056 94.2425 81.768 94.1359 81.48C94.0399 81.192 93.8959 80.936 93.7039 80.712C93.5119 80.488 93.2719 80.3067 92.9839 80.168C92.7065 80.0293 92.3812 79.96 92.0079 79.96ZM104.283 87.192C103.846 87.192 103.451 87.1333 103.099 87.016C102.747 86.8987 102.443 86.7173 102.187 86.472C101.942 86.2267 101.75 85.912 101.611 85.528C101.472 85.144 101.403 84.6853 101.403 84.152V79.096H102.683V83.912C102.683 84.7227 102.838 85.2987 103.147 85.64C103.467 85.9707 103.931 86.136 104.539 86.136C105.115 86.136 105.568 85.928 105.899 85.512C106.24 85.096 106.411 84.488 106.411 83.688V79.096H107.691V87H106.475V85.752H106.379C106.187 86.168 105.92 86.5147 105.579 86.792C105.248 87.0587 104.816 87.192 104.283 87.192ZM110.407 79.096H111.623V80.344H111.719C111.911 79.928 112.183 79.5867 112.535 79.32C112.887 79.0427 113.335 78.904 113.879 78.904C114.786 78.904 115.5 79.144 116.023 79.624C116.556 80.104 116.823 80.8773 116.823 81.944V87H115.543V82.184C115.543 81.3733 115.378 80.8027 115.047 80.472C114.727 80.1307 114.252 79.96 113.623 79.96C113.015 79.96 112.54 80.168 112.199 80.584C111.858 81 111.687 81.608 111.687 82.408V87H110.407V79.096ZM123.199 84.952C123.199 84.7173 123.146 84.5253 123.039 84.376C122.933 84.216 122.783 84.0827 122.591 83.976C122.41 83.8693 122.202 83.7787 121.967 83.704C121.733 83.6293 121.487 83.5547 121.231 83.48C120.933 83.3947 120.645 83.2933 120.367 83.176C120.101 83.0587 119.861 82.9147 119.647 82.744C119.434 82.5627 119.263 82.3493 119.135 82.104C119.007 81.8587 118.943 81.56 118.943 81.208C118.943 80.8347 119.013 80.504 119.151 80.216C119.29 79.928 119.482 79.688 119.727 79.496C119.973 79.304 120.261 79.16 120.591 79.064C120.922 78.9573 121.279 78.904 121.663 78.904C122.239 78.904 122.767 79.0107 123.247 79.224C123.727 79.4267 124.122 79.7467 124.431 80.184L123.599 80.952C123.365 80.6747 123.087 80.4453 122.767 80.264C122.458 80.0827 122.09 79.992 121.663 79.992C121.482 79.992 121.301 80.0133 121.119 80.056C120.949 80.0987 120.794 80.168 120.655 80.264C120.517 80.3493 120.405 80.4613 120.319 80.6C120.234 80.7387 120.191 80.904 120.191 81.096C120.191 81.3307 120.245 81.528 120.351 81.688C120.458 81.8373 120.602 81.9653 120.783 82.072C120.975 82.1787 121.189 82.2693 121.423 82.344C121.658 82.4187 121.903 82.4933 122.159 82.568C122.458 82.6533 122.741 82.7547 123.007 82.872C123.285 82.9893 123.53 83.1387 123.743 83.32C123.957 83.4907 124.127 83.6987 124.255 83.944C124.383 84.1893 124.447 84.488 124.447 84.84C124.447 85.256 124.367 85.6133 124.207 85.912C124.058 86.2 123.85 86.44 123.583 86.632C123.317 86.824 123.007 86.9627 122.655 87.048C122.303 87.144 121.93 87.192 121.535 87.192C120.842 87.192 120.25 87.0747 119.759 86.84C119.279 86.6053 118.901 86.3013 118.623 85.928L119.471 85.128C119.717 85.416 119.999 85.6507 120.319 85.832C120.65 86.0133 121.061 86.104 121.551 86.104C121.775 86.104 121.983 86.0827 122.175 86.04C122.378 85.9973 122.554 85.928 122.703 85.832C122.853 85.736 122.97 85.6187 123.055 85.48C123.151 85.3307 123.199 85.1547 123.199 84.952ZM128.495 87.192C128.132 87.192 127.796 87.1333 127.487 87.016C127.188 86.8987 126.927 86.7333 126.703 86.52C126.479 86.3067 126.303 86.056 126.175 85.768C126.057 85.4693 125.999 85.144 125.999 84.792C125.999 84.1093 126.244 83.56 126.735 83.144C127.225 82.728 127.924 82.4933 128.831 82.44L130.911 82.312V81.752C130.911 81.144 130.761 80.7067 130.463 80.44C130.175 80.1627 129.759 80.024 129.215 80.024C128.756 80.024 128.361 80.1093 128.031 80.28C127.7 80.4507 127.444 80.6373 127.263 80.84L126.495 80.072C126.772 79.7307 127.145 79.4533 127.615 79.24C128.095 79.016 128.639 78.904 129.247 78.904C129.791 78.904 130.249 78.9787 130.623 79.128C130.996 79.2667 131.295 79.4587 131.519 79.704C131.753 79.9493 131.919 80.2373 132.015 80.568C132.121 80.8987 132.175 81.2507 132.175 81.624V87H130.975V85.656H130.879C130.665 86.136 130.367 86.5147 129.983 86.792C129.599 87.0587 129.103 87.192 128.495 87.192ZM128.687 86.104C129.348 86.104 129.881 85.912 130.287 85.528C130.703 85.1333 130.911 84.6107 130.911 83.96V83.272L128.895 83.416C127.828 83.5013 127.295 83.9493 127.295 84.76C127.295 85.1653 127.423 85.4907 127.679 85.736C127.945 85.9813 128.281 86.104 128.687 86.104ZM133.554 79.096H134.946L137.33 85.688H137.426L139.826 79.096H141.122L138.05 87H136.61L133.554 79.096ZM145.729 87.192C145.164 87.192 144.647 87.096 144.177 86.904C143.719 86.712 143.324 86.44 142.993 86.088C142.673 85.7253 142.423 85.288 142.241 84.776C142.071 84.264 141.985 83.688 141.985 83.048C141.985 82.376 142.076 81.784 142.257 81.272C142.439 80.7493 142.689 80.3173 143.009 79.976C143.329 79.624 143.708 79.3573 144.145 79.176C144.593 78.9947 145.084 78.904 145.617 78.904C146.151 78.904 146.641 78.9893 147.089 79.16C147.537 79.3307 147.921 79.5867 148.241 79.928C148.561 80.2587 148.812 80.68 148.993 81.192C149.175 81.6933 149.265 82.28 149.265 82.952C149.265 83.0373 149.26 83.1227 149.249 83.208C149.249 83.2933 149.244 83.3627 149.233 83.416H143.265C143.265 83.7893 143.329 84.1413 143.457 84.472C143.596 84.792 143.777 85.0747 144.001 85.32C144.236 85.5547 144.503 85.7413 144.801 85.88C145.111 86.0187 145.441 86.088 145.793 86.088C146.369 86.088 146.839 85.976 147.201 85.752C147.575 85.528 147.884 85.256 148.129 84.936L148.897 85.72C148.556 86.168 148.129 86.5253 147.617 86.792C147.116 87.0587 146.487 87.192 145.729 87.192ZM145.617 79.96C145.244 79.96 144.913 80.0293 144.625 80.168C144.337 80.3067 144.097 80.488 143.905 80.712C143.713 80.936 143.564 81.192 143.457 81.48C143.361 81.768 143.308 82.056 143.297 82.344H147.921C147.911 82.056 147.852 81.768 147.745 81.48C147.649 81.192 147.505 80.936 147.313 80.712C147.121 80.488 146.881 80.3067 146.593 80.168C146.316 80.0293 145.991 79.96 145.617 79.96ZM154.177 87.192C153.643 87.192 153.163 87.0907 152.737 86.888C152.31 86.6747 151.942 86.3867 151.633 86.024C151.323 85.6507 151.083 85.208 150.913 84.696C150.753 84.184 150.673 83.6293 150.673 83.032C150.673 82.4347 150.753 81.8853 150.913 81.384C151.083 80.872 151.323 80.4347 151.633 80.072C151.942 79.6987 152.31 79.4107 152.737 79.208C153.163 79.0053 153.643 78.904 154.177 78.904C154.827 78.904 155.387 79.0587 155.857 79.368C156.326 79.6773 156.662 80.072 156.865 80.552H156.961V75.4H158.241V87H157.025V85.384H156.929C156.833 85.6613 156.694 85.912 156.513 86.136C156.342 86.3493 156.134 86.536 155.889 86.696C155.654 86.856 155.387 86.9787 155.089 87.064C154.801 87.1493 154.497 87.192 154.177 87.192ZM154.497 86.04C154.838 86.04 155.158 85.9813 155.457 85.864C155.755 85.736 156.017 85.5493 156.241 85.304C156.465 85.048 156.641 84.7333 156.769 84.36C156.897 83.9867 156.961 83.5493 156.961 83.048C156.961 82.5467 156.897 82.1093 156.769 81.736C156.641 81.3627 156.465 81.0533 156.241 80.808C156.017 80.552 155.755 80.3653 155.457 80.248C155.158 80.12 154.838 80.056 154.497 80.056C154.145 80.056 153.814 80.12 153.505 80.248C153.206 80.3653 152.939 80.552 152.705 80.808C152.481 81.0533 152.305 81.3627 152.177 81.736C152.049 82.1093 151.985 82.5467 151.985 83.048C151.985 83.5493 152.049 83.9867 152.177 84.36C152.305 84.7333 152.481 85.048 152.705 85.304C152.939 85.5493 153.206 85.736 153.505 85.864C153.814 85.9813 154.145 86.04 154.497 86.04ZM167.806 87.192C167.166 87.192 166.611 87.0747 166.142 86.84C165.683 86.6053 165.304 86.296 165.006 85.912C164.707 85.528 164.488 85.0907 164.35 84.6C164.211 84.0987 164.142 83.5813 164.142 83.048C164.142 82.5147 164.211 82.0027 164.35 81.512C164.488 81.0107 164.702 80.568 164.99 80.184C165.288 79.8 165.667 79.4907 166.126 79.256C166.584 79.0213 167.134 78.904 167.774 78.904C168.446 78.904 168.995 79.016 169.422 79.24C169.848 79.464 170.211 79.7627 170.51 80.136L169.71 80.888C169.454 80.6107 169.182 80.3973 168.894 80.248C168.616 80.088 168.254 80.008 167.806 80.008C167.102 80.008 166.531 80.28 166.094 80.824C165.667 81.3573 165.454 82.0987 165.454 83.048C165.454 83.5173 165.512 83.9387 165.63 84.312C165.747 84.6853 165.912 85.0053 166.126 85.272C166.339 85.5387 166.59 85.7413 166.878 85.88C167.166 86.0187 167.486 86.088 167.838 86.088C168.264 86.088 168.632 86.0133 168.942 85.864C169.251 85.704 169.539 85.4747 169.806 85.176L170.574 85.944C170.264 86.3173 169.886 86.6213 169.438 86.856C168.99 87.08 168.446 87.192 167.806 87.192ZM172.438 75.4H173.718V80.216H173.814C173.995 79.8533 174.257 79.544 174.598 79.288C174.939 79.032 175.377 78.904 175.91 78.904C176.817 78.904 177.531 79.144 178.054 79.624C178.587 80.104 178.854 80.8773 178.854 81.944V87H177.574V82.184C177.574 81.3733 177.409 80.8027 177.078 80.472C176.758 80.1307 176.283 79.96 175.654 79.96C175.046 79.96 174.571 80.168 174.23 80.584C173.889 81 173.718 81.608 173.718 82.408V87H172.438V75.4ZM183.088 87.192C182.726 87.192 182.39 87.1333 182.08 87.016C181.782 86.8987 181.52 86.7333 181.296 86.52C181.072 86.3067 180.896 86.056 180.768 85.768C180.651 85.4693 180.592 85.144 180.592 84.792C180.592 84.1093 180.838 83.56 181.328 83.144C181.819 82.728 182.518 82.4933 183.424 82.44L185.504 82.312V81.752C185.504 81.144 185.355 80.7067 185.056 80.44C184.768 80.1627 184.352 80.024 183.808 80.024C183.35 80.024 182.955 80.1093 182.624 80.28C182.294 80.4507 182.038 80.6373 181.856 80.84L181.088 80.072C181.366 79.7307 181.739 79.4533 182.208 79.24C182.688 79.016 183.232 78.904 183.84 78.904C184.384 78.904 184.843 78.9787 185.216 79.128C185.59 79.2667 185.888 79.4587 186.112 79.704C186.347 79.9493 186.512 80.2373 186.608 80.568C186.715 80.8987 186.768 81.2507 186.768 81.624V87H185.568V85.656H185.472C185.259 86.136 184.96 86.5147 184.576 86.792C184.192 87.0587 183.696 87.192 183.088 87.192ZM183.28 86.104C183.942 86.104 184.475 85.912 184.88 85.528C185.296 85.1333 185.504 84.6107 185.504 83.96V83.272L183.488 83.416C182.422 83.5013 181.888 83.9493 181.888 84.76C181.888 85.1653 182.016 85.4907 182.272 85.736C182.539 85.9813 182.875 86.104 183.28 86.104ZM189.344 79.096H190.56V80.344H190.656C190.848 79.928 191.12 79.5867 191.472 79.32C191.824 79.0427 192.272 78.904 192.816 78.904C193.723 78.904 194.438 79.144 194.96 79.624C195.494 80.104 195.76 80.8773 195.76 81.944V87H194.48V82.184C194.48 81.3733 194.315 80.8027 193.984 80.472C193.664 80.1307 193.19 79.96 192.56 79.96C191.952 79.96 191.478 80.168 191.136 80.584C190.795 81 190.624 81.608 190.624 82.408V87H189.344V79.096ZM201.481 90.152C200.798 90.152 200.206 90.0293 199.705 89.784C199.203 89.5493 198.803 89.256 198.505 88.904L199.353 88.088C199.577 88.3653 199.865 88.584 200.217 88.744C200.579 88.9147 200.979 89 201.417 89C202.099 89 202.633 88.8347 203.017 88.504C203.411 88.1733 203.609 87.592 203.609 86.76V85.224H203.513C203.427 85.4907 203.305 85.7307 203.145 85.944C202.985 86.1467 202.793 86.3227 202.569 86.472C202.355 86.6107 202.115 86.7227 201.849 86.808C201.593 86.8827 201.331 86.92 201.065 86.92C200.563 86.92 200.105 86.8293 199.689 86.648C199.283 86.4667 198.926 86.2053 198.617 85.864C198.318 85.512 198.083 85.0853 197.913 84.584C197.753 84.0827 197.673 83.5173 197.673 82.888C197.673 82.2693 197.753 81.7147 197.913 81.224C198.083 80.7333 198.318 80.3173 198.617 79.976C198.926 79.6347 199.283 79.3733 199.689 79.192C200.105 79 200.563 78.904 201.065 78.904C201.651 78.904 202.174 79.0587 202.633 79.368C203.102 79.6667 203.417 80.0827 203.577 80.616H203.673V79.096H204.889V86.92C204.889 87.8907 204.595 88.6693 204.009 89.256C203.433 89.8533 202.59 90.152 201.481 90.152ZM201.321 85.768C202.025 85.768 202.579 85.5227 202.985 85.032C203.401 84.5413 203.609 83.832 203.609 82.904C203.609 81.9653 203.401 81.256 202.985 80.776C202.579 80.296 202.025 80.056 201.321 80.056C200.606 80.056 200.035 80.296 199.609 80.776C199.193 81.256 198.985 81.9653 198.985 82.904C198.985 83.832 199.193 84.5413 199.609 85.032C200.035 85.5227 200.606 85.768 201.321 85.768ZM210.698 87.192C210.133 87.192 209.615 87.096 209.146 86.904C208.687 86.712 208.293 86.44 207.962 86.088C207.642 85.7253 207.391 85.288 207.21 84.776C207.039 84.264 206.954 83.688 206.954 83.048C206.954 82.376 207.045 81.784 207.226 81.272C207.407 80.7493 207.658 80.3173 207.978 79.976C208.298 79.624 208.677 79.3573 209.114 79.176C209.562 78.9947 210.053 78.904 210.586 78.904C211.119 78.904 211.61 78.9893 212.058 79.16C212.506 79.3307 212.89 79.5867 213.21 79.928C213.53 80.2587 213.781 80.68 213.962 81.192C214.143 81.6933 214.234 82.28 214.234 82.952C214.234 83.0373 214.229 83.1227 214.218 83.208C214.218 83.2933 214.213 83.3627 214.202 83.416H208.234C208.234 83.7893 208.298 84.1413 208.426 84.472C208.565 84.792 208.746 85.0747 208.97 85.32C209.205 85.5547 209.471 85.7413 209.77 85.88C210.079 86.0187 210.41 86.088 210.762 86.088C211.338 86.088 211.807 85.976 212.17 85.752C212.543 85.528 212.853 85.256 213.098 84.936L213.866 85.72C213.525 86.168 213.098 86.5253 212.586 86.792C212.085 87.0587 211.455 87.192 210.698 87.192ZM210.586 79.96C210.213 79.96 209.882 80.0293 209.594 80.168C209.306 80.3067 209.066 80.488 208.874 80.712C208.682 80.936 208.533 81.192 208.426 81.48C208.33 81.768 208.277 82.056 208.266 82.344H212.89C212.879 82.056 212.821 81.768 212.714 81.48C212.618 81.192 212.474 80.936 212.282 80.712C212.09 80.488 211.85 80.3067 211.562 80.168C211.285 80.0293 210.959 79.96 210.586 79.96ZM220.106 84.952C220.106 84.7173 220.052 84.5253 219.946 84.376C219.839 84.216 219.69 84.0827 219.498 83.976C219.316 83.8693 219.108 83.7787 218.874 83.704C218.639 83.6293 218.394 83.5547 218.138 83.48C217.839 83.3947 217.551 83.2933 217.274 83.176C217.007 83.0587 216.767 82.9147 216.554 82.744C216.34 82.5627 216.17 82.3493 216.042 82.104C215.914 81.8587 215.85 81.56 215.85 81.208C215.85 80.8347 215.919 80.504 216.058 80.216C216.196 79.928 216.388 79.688 216.634 79.496C216.879 79.304 217.167 79.16 217.498 79.064C217.828 78.9573 218.186 78.904 218.57 78.904C219.146 78.904 219.674 79.0107 220.154 79.224C220.634 79.4267 221.028 79.7467 221.338 80.184L220.506 80.952C220.271 80.6747 219.994 80.4453 219.674 80.264C219.364 80.0827 218.996 79.992 218.57 79.992C218.388 79.992 218.207 80.0133 218.026 80.056C217.855 80.0987 217.7 80.168 217.562 80.264C217.423 80.3493 217.311 80.4613 217.226 80.6C217.14 80.7387 217.098 80.904 217.098 81.096C217.098 81.3307 217.151 81.528 217.258 81.688C217.364 81.8373 217.508 81.9653 217.69 82.072C217.882 82.1787 218.095 82.2693 218.33 82.344C218.564 82.4187 218.81 82.4933 219.066 82.568C219.364 82.6533 219.647 82.7547 219.914 82.872C220.191 82.9893 220.436 83.1387 220.65 83.32C220.863 83.4907 221.034 83.6987 221.162 83.944C221.29 84.1893 221.354 84.488 221.354 84.84C221.354 85.256 221.274 85.6133 221.114 85.912C220.964 86.2 220.756 86.44 220.49 86.632C220.223 86.824 219.914 86.9627 219.562 87.048C219.21 87.144 218.836 87.192 218.442 87.192C217.748 87.192 217.156 87.0747 216.666 86.84C216.186 86.6053 215.807 86.3013 215.53 85.928L216.378 85.128C216.623 85.416 216.906 85.6507 217.226 85.832C217.556 86.0133 217.967 86.104 218.458 86.104C218.682 86.104 218.89 86.0827 219.082 86.04C219.284 85.9973 219.46 85.928 219.61 85.832C219.759 85.736 219.876 85.6187 219.962 85.48C220.058 85.3307 220.106 85.1547 220.106 84.952ZM224.016 87.192C223.717 87.192 223.482 87.096 223.312 86.904C223.141 86.712 223.056 86.4933 223.056 86.248C223.056 85.992 223.141 85.7733 223.312 85.592C223.482 85.4 223.717 85.304 224.016 85.304C224.325 85.304 224.56 85.4 224.72 85.592C224.89 85.7733 224.976 85.992 224.976 86.248C224.976 86.4933 224.89 86.712 224.72 86.904C224.56 87.096 224.325 87.192 224.016 87.192ZM231.331 76.6H234.723C236.238 76.6 237.401 77.0587 238.211 77.976C239.022 78.8933 239.427 80.1733 239.427 81.816C239.427 82.616 239.321 83.336 239.107 83.976C238.894 84.616 238.579 85.16 238.163 85.608C237.758 86.056 237.257 86.4027 236.659 86.648C236.073 86.8827 235.406 87 234.659 87H231.331V76.6ZM234.819 85.848C235.31 85.848 235.753 85.7573 236.147 85.576C236.542 85.384 236.878 85.1173 237.155 84.776C237.443 84.424 237.662 84.0027 237.811 83.512C237.961 83.0107 238.035 82.4453 238.035 81.816C238.035 80.5253 237.753 79.528 237.187 78.824C236.633 78.1093 235.854 77.752 234.851 77.752H232.691V85.848H234.819ZM244.746 87.192C244.116 87.192 243.562 87.0853 243.082 86.872C242.612 86.648 242.218 86.3493 241.898 85.976C241.588 85.6027 241.354 85.1653 241.194 84.664C241.044 84.1627 240.97 83.624 240.97 83.048C240.97 82.472 241.044 81.9333 241.194 81.432C241.354 80.9307 241.588 80.4933 241.898 80.12C242.218 79.7467 242.612 79.4533 243.082 79.24C243.562 79.016 244.116 78.904 244.746 78.904C245.375 78.904 245.919 79.016 246.378 79.24C246.847 79.4533 247.236 79.7467 247.546 80.12C247.855 80.4933 248.084 80.9307 248.234 81.432C248.394 81.9333 248.474 82.472 248.474 83.048C248.474 83.624 248.394 84.1627 248.234 84.664C248.084 85.1653 247.855 85.6027 247.546 85.976C247.236 86.3493 246.847 86.648 246.378 86.872C245.919 87.0853 245.375 87.192 244.746 87.192ZM242.282 83.048C242.282 83.5067 242.33 83.928 242.426 84.312C242.532 84.6853 242.687 85.0107 242.89 85.288C243.092 85.5547 243.348 85.7627 243.658 85.912C243.967 86.0613 244.33 86.136 244.746 86.136C245.151 86.136 245.503 86.0613 245.802 85.912C246.111 85.7627 246.362 85.5547 246.554 85.288C246.756 85.0107 246.906 84.6853 247.002 84.312C247.108 83.928 247.162 83.5067 247.162 83.048C247.162 82.5893 247.108 82.1733 247.002 81.8C246.906 81.416 246.756 81.0907 246.554 80.824C246.362 80.5467 246.111 80.3333 245.802 80.184C245.503 80.0347 245.151 79.96 244.746 79.96C244.33 79.96 243.967 80.0347 243.658 80.184C243.348 80.3333 243.092 80.5467 242.89 80.824C242.687 81.0907 242.532 81.416 242.426 81.8C242.33 82.1733 242.282 82.5893 242.282 83.048ZM254.872 90.024C254.754 90.024 254.632 90.0133 254.504 89.992C254.386 89.9813 254.285 89.9653 254.2 89.944V88.84C254.253 88.8507 254.338 88.8613 254.456 88.872C254.584 88.8827 254.701 88.888 254.808 88.888C255.021 88.888 255.202 88.872 255.352 88.84C255.501 88.808 255.634 88.7333 255.752 88.616C255.88 88.5093 256.002 88.344 256.12 88.12C256.237 87.9067 256.365 87.6187 256.504 87.256L253.336 79.096H254.728L257.112 85.72H257.208L259.608 79.096H260.904L257.8 87.08C257.597 87.6027 257.4 88.0453 257.208 88.408C257.026 88.7813 256.824 89.0853 256.6 89.32C256.376 89.5653 256.125 89.7413 255.848 89.848C255.581 89.9653 255.256 90.024 254.872 90.024ZM265.543 87.192C264.913 87.192 264.359 87.0853 263.879 86.872C263.409 86.648 263.015 86.3493 262.695 85.976C262.385 85.6027 262.151 85.1653 261.991 84.664C261.841 84.1627 261.767 83.624 261.767 83.048C261.767 82.472 261.841 81.9333 261.991 81.432C262.151 80.9307 262.385 80.4933 262.695 80.12C263.015 79.7467 263.409 79.4533 263.879 79.24C264.359 79.016 264.913 78.904 265.543 78.904C266.172 78.904 266.716 79.016 267.175 79.24C267.644 79.4533 268.033 79.7467 268.343 80.12C268.652 80.4933 268.881 80.9307 269.031 81.432C269.191 81.9333 269.271 82.472 269.271 83.048C269.271 83.624 269.191 84.1627 269.031 84.664C268.881 85.1653 268.652 85.6027 268.343 85.976C268.033 86.3493 267.644 86.648 267.175 86.872C266.716 87.0853 266.172 87.192 265.543 87.192ZM263.079 83.048C263.079 83.5067 263.127 83.928 263.223 84.312C263.329 84.6853 263.484 85.0107 263.687 85.288C263.889 85.5547 264.145 85.7627 264.455 85.912C264.764 86.0613 265.127 86.136 265.543 86.136C265.948 86.136 266.3 86.0613 266.599 85.912C266.908 85.7627 267.159 85.5547 267.351 85.288C267.553 85.0107 267.703 84.6853 267.799 84.312C267.905 83.928 267.959 83.5067 267.959 83.048C267.959 82.5893 267.905 82.1733 267.799 81.8C267.703 81.416 267.553 81.0907 267.351 80.824C267.159 80.5467 266.908 80.3333 266.599 80.184C266.3 80.0347 265.948 79.96 265.543 79.96C265.127 79.96 264.764 80.0347 264.455 80.184C264.145 80.3333 263.889 80.5467 263.687 80.824C263.484 81.0907 263.329 81.416 263.223 81.8C263.127 82.1733 263.079 82.5893 263.079 83.048ZM274.049 87.192C273.611 87.192 273.217 87.1333 272.865 87.016C272.513 86.8987 272.209 86.7173 271.953 86.472C271.707 86.2267 271.515 85.912 271.377 85.528C271.238 85.144 271.169 84.6853 271.169 84.152V79.096H272.449V83.912C272.449 84.7227 272.603 85.2987 272.913 85.64C273.233 85.9707 273.697 86.136 274.305 86.136C274.881 86.136 275.334 85.928 275.665 85.512C276.006 85.096 276.177 84.488 276.177 83.688V79.096H277.457V87H276.241V85.752H276.145C275.953 86.168 275.686 86.5147 275.345 86.792C275.014 87.0587 274.582 87.192 274.049 87.192ZM33.432 103.096H34.808L36.808 109.672H36.904L38.76 103.096H40.28L42.136 109.672H42.232L44.232 103.096H45.512L42.824 111H41.384L39.528 104.456H39.432L37.592 111H36.12L33.432 103.096ZM48.8228 111.192C48.4601 111.192 48.1241 111.133 47.8148 111.016C47.5161 110.899 47.2548 110.733 47.0308 110.52C46.8068 110.307 46.6308 110.056 46.5028 109.768C46.3854 109.469 46.3268 109.144 46.3268 108.792C46.3268 108.109 46.5721 107.56 47.0628 107.144C47.5534 106.728 48.2521 106.493 49.1588 106.44L51.2388 106.312V105.752C51.2388 105.144 51.0894 104.707 50.7908 104.44C50.5028 104.163 50.0868 104.024 49.5428 104.024C49.0841 104.024 48.6894 104.109 48.3588 104.28C48.0281 104.451 47.7721 104.637 47.5908 104.84L46.8228 104.072C47.1001 103.731 47.4734 103.453 47.9428 103.24C48.4228 103.016 48.9668 102.904 49.5748 102.904C50.1188 102.904 50.5774 102.979 50.9508 103.128C51.3241 103.267 51.6228 103.459 51.8468 103.704C52.0814 103.949 52.2468 104.237 52.3428 104.568C52.4494 104.899 52.5028 105.251 52.5028 105.624V111H51.3028V109.656H51.2068C50.9934 110.136 50.6948 110.515 50.3108 110.792C49.9268 111.059 49.4308 111.192 48.8228 111.192ZM49.0148 110.104C49.6761 110.104 50.2094 109.912 50.6148 109.528C51.0308 109.133 51.2388 108.611 51.2388 107.96V107.272L49.2228 107.416C48.1561 107.501 47.6228 107.949 47.6228 108.76C47.6228 109.165 47.7508 109.491 48.0068 109.736C48.2734 109.981 48.6094 110.104 49.0148 110.104ZM55.0788 103.096H56.2948V104.344H56.3908C56.5828 103.928 56.8548 103.587 57.2068 103.32C57.5588 103.043 58.0068 102.904 58.5508 102.904C59.4574 102.904 60.1721 103.144 60.6948 103.624C61.2281 104.104 61.4948 104.877 61.4948 105.944V111H60.2148V106.184C60.2148 105.373 60.0494 104.803 59.7188 104.472C59.3988 104.131 58.9241 103.96 58.2948 103.96C57.6868 103.96 57.2121 104.168 56.8708 104.584C56.5294 105 56.3588 105.608 56.3588 106.408V111H55.0788V103.096ZM66.4951 111.192C65.7805 111.192 65.2578 110.979 64.9271 110.552C64.5965 110.125 64.4311 109.539 64.4311 108.792V104.136H63.0231V103.096H64.4311V100.952H65.6951V103.096H67.9831V104.136H65.6951V108.68C65.6951 109.192 65.7911 109.549 65.9831 109.752C66.1858 109.955 66.4418 110.056 66.7511 110.056C66.9645 110.056 67.1565 110.019 67.3271 109.944C67.4978 109.859 67.6578 109.747 67.8071 109.608L68.3831 110.504C67.8925 110.963 67.2631 111.192 66.4951 111.192ZM76.4014 111.192C75.6867 111.192 75.164 110.979 74.8334 110.552C74.5027 110.125 74.3374 109.539 74.3374 108.792V104.136H72.9294V103.096H74.3374V100.952H75.6014V103.096H77.8894V104.136H75.6014V108.68C75.6014 109.192 75.6974 109.549 75.8894 109.752C76.092 109.955 76.348 110.056 76.6574 110.056C76.8707 110.056 77.0627 110.019 77.2334 109.944C77.404 109.859 77.564 109.747 77.7134 109.608L78.2894 110.504C77.7987 110.963 77.1694 111.192 76.4014 111.192ZM83.0269 111.192C82.3975 111.192 81.8429 111.085 81.3629 110.872C80.8935 110.648 80.4989 110.349 80.1789 109.976C79.8695 109.603 79.6349 109.165 79.4749 108.664C79.3255 108.163 79.2509 107.624 79.2509 107.048C79.2509 106.472 79.3255 105.933 79.4749 105.432C79.6349 104.931 79.8695 104.493 80.1789 104.12C80.4989 103.747 80.8935 103.453 81.3629 103.24C81.8429 103.016 82.3975 102.904 83.0269 102.904C83.6562 102.904 84.2002 103.016 84.6589 103.24C85.1282 103.453 85.5175 103.747 85.8269 104.12C86.1362 104.493 86.3655 104.931 86.5149 105.432C86.6749 105.933 86.7549 106.472 86.7549 107.048C86.7549 107.624 86.6749 108.163 86.5149 108.664C86.3655 109.165 86.1362 109.603 85.8269 109.976C85.5175 110.349 85.1282 110.648 84.6589 110.872C84.2002 111.085 83.6562 111.192 83.0269 111.192ZM80.5629 107.048C80.5629 107.507 80.6109 107.928 80.7069 108.312C80.8135 108.685 80.9682 109.011 81.1709 109.288C81.3735 109.555 81.6295 109.763 81.9389 109.912C82.2482 110.061 82.6109 110.136 83.0269 110.136C83.4322 110.136 83.7842 110.061 84.0829 109.912C84.3922 109.763 84.6429 109.555 84.8349 109.288C85.0375 109.011 85.1869 108.685 85.2829 108.312C85.3895 107.928 85.4429 107.507 85.4429 107.048C85.4429 106.589 85.3895 106.173 85.2829 105.8C85.1869 105.416 85.0375 105.091 84.8349 104.824C84.6429 104.547 84.3922 104.333 84.0829 104.184C83.7842 104.035 83.4322 103.96 83.0269 103.96C82.6109 103.96 82.2482 104.035 81.9389 104.184C81.6295 104.333 81.3735 104.547 81.1709 104.824C80.9682 105.091 80.8135 105.416 80.7069 105.8C80.6109 106.173 80.5629 106.589 80.5629 107.048ZM96.4649 108.952C96.4649 108.717 96.4115 108.525 96.3049 108.376C96.1982 108.216 96.0489 108.083 95.8569 107.976C95.6755 107.869 95.4675 107.779 95.2329 107.704C94.9982 107.629 94.7529 107.555 94.4969 107.48C94.1982 107.395 93.9102 107.293 93.6329 107.176C93.3662 107.059 93.1262 106.915 92.9129 106.744C92.6995 106.563 92.5289 106.349 92.4009 106.104C92.2729 105.859 92.2089 105.56 92.2089 105.208C92.2089 104.835 92.2782 104.504 92.4169 104.216C92.5555 103.928 92.7475 103.688 92.9929 103.496C93.2382 103.304 93.5262 103.16 93.8569 103.064C94.1875 102.957 94.5449 102.904 94.9289 102.904C95.5049 102.904 96.0329 103.011 96.5129 103.224C96.9929 103.427 97.3875 103.747 97.6969 104.184L96.8649 104.952C96.6302 104.675 96.3529 104.445 96.0329 104.264C95.7235 104.083 95.3555 103.992 94.9289 103.992C94.7475 103.992 94.5662 104.013 94.3849 104.056C94.2142 104.099 94.0595 104.168 93.9209 104.264C93.7822 104.349 93.6702 104.461 93.5849 104.6C93.4995 104.739 93.4569 104.904 93.4569 105.096C93.4569 105.331 93.5102 105.528 93.6169 105.688C93.7235 105.837 93.8675 105.965 94.0489 106.072C94.2409 106.179 94.4542 106.269 94.6889 106.344C94.9235 106.419 95.1689 106.493 95.4249 106.568C95.7235 106.653 96.0062 106.755 96.2729 106.872C96.5502 106.989 96.7955 107.139 97.0089 107.32C97.2222 107.491 97.3929 107.699 97.5209 107.944C97.6489 108.189 97.7129 108.488 97.7129 108.84C97.7129 109.256 97.6329 109.613 97.4729 109.912C97.3235 110.2 97.1155 110.44 96.8489 110.632C96.5822 110.824 96.2729 110.963 95.9209 111.048C95.5689 111.144 95.1955 111.192 94.8009 111.192C94.1075 111.192 93.5155 111.075 93.0249 110.84C92.5449 110.605 92.1662 110.301 91.8889 109.928L92.7369 109.128C92.9822 109.416 93.2649 109.651 93.5849 109.832C93.9155 110.013 94.3262 110.104 94.8169 110.104C95.0409 110.104 95.2489 110.083 95.4409 110.04C95.6435 109.997 95.8195 109.928 95.9689 109.832C96.1182 109.736 96.2355 109.619 96.3209 109.48C96.4169 109.331 96.4649 109.155 96.4649 108.952ZM101.76 111.192C101.398 111.192 101.062 111.133 100.752 111.016C100.454 110.899 100.192 110.733 99.9683 110.52C99.7443 110.307 99.5683 110.056 99.4403 109.768C99.3229 109.469 99.2643 109.144 99.2643 108.792C99.2643 108.109 99.5096 107.56 100 107.144C100.491 106.728 101.19 106.493 102.096 106.44L104.176 106.312V105.752C104.176 105.144 104.027 104.707 103.728 104.44C103.44 104.163 103.024 104.024 102.48 104.024C102.022 104.024 101.627 104.109 101.296 104.28C100.966 104.451 100.71 104.637 100.528 104.84L99.7603 104.072C100.038 103.731 100.411 103.453 100.88 103.24C101.36 103.016 101.904 102.904 102.512 102.904C103.056 102.904 103.515 102.979 103.888 103.128C104.262 103.267 104.56 103.459 104.784 103.704C105.019 103.949 105.184 104.237 105.28 104.568C105.387 104.899 105.44 105.251 105.44 105.624V111H104.24V109.656H104.144C103.931 110.136 103.632 110.515 103.248 110.792C102.864 111.059 102.368 111.192 101.76 111.192ZM101.952 110.104C102.614 110.104 103.147 109.912 103.552 109.528C103.968 109.133 104.176 108.611 104.176 107.96V107.272L102.16 107.416C101.094 107.501 100.56 107.949 100.56 108.76C100.56 109.165 100.688 109.491 100.944 109.736C101.211 109.981 101.547 110.104 101.952 110.104ZM106.82 103.096H108.212L110.596 109.688H110.692L113.092 103.096H114.388L111.316 111H109.876L106.82 103.096ZM118.995 111.192C118.43 111.192 117.912 111.096 117.443 110.904C116.984 110.712 116.59 110.44 116.259 110.088C115.939 109.725 115.688 109.288 115.507 108.776C115.336 108.264 115.251 107.688 115.251 107.048C115.251 106.376 115.342 105.784 115.523 105.272C115.704 104.749 115.955 104.317 116.275 103.976C116.595 103.624 116.974 103.357 117.411 103.176C117.859 102.995 118.35 102.904 118.883 102.904C119.416 102.904 119.907 102.989 120.355 103.16C120.803 103.331 121.187 103.587 121.507 103.928C121.827 104.259 122.078 104.68 122.259 105.192C122.44 105.693 122.531 106.28 122.531 106.952C122.531 107.037 122.526 107.123 122.515 107.208C122.515 107.293 122.51 107.363 122.499 107.416H116.531C116.531 107.789 116.595 108.141 116.723 108.472C116.862 108.792 117.043 109.075 117.267 109.32C117.502 109.555 117.768 109.741 118.067 109.88C118.376 110.019 118.707 110.088 119.059 110.088C119.635 110.088 120.104 109.976 120.467 109.752C120.84 109.528 121.15 109.256 121.395 108.936L122.163 109.72C121.822 110.168 121.395 110.525 120.883 110.792C120.382 111.059 119.752 111.192 118.995 111.192ZM118.883 103.96C118.51 103.96 118.179 104.029 117.891 104.168C117.603 104.307 117.363 104.488 117.171 104.712C116.979 104.936 116.83 105.192 116.723 105.48C116.627 105.768 116.574 106.056 116.563 106.344H121.187C121.176 106.056 121.118 105.768 121.011 105.48C120.915 105.192 120.771 104.936 120.579 104.712C120.387 104.488 120.147 104.307 119.859 104.168C119.582 104.029 119.256 103.96 118.883 103.96ZM130.87 111.192C130.155 111.192 129.633 110.979 129.302 110.552C128.971 110.125 128.806 109.539 128.806 108.792V104.136H127.398V103.096H128.806V100.952H130.07V103.096H132.358V104.136H130.07V108.68C130.07 109.192 130.166 109.549 130.358 109.752C130.561 109.955 130.817 110.056 131.126 110.056C131.339 110.056 131.531 110.019 131.702 109.944C131.873 109.859 132.033 109.747 132.182 109.608L132.758 110.504C132.267 110.963 131.638 111.192 130.87 111.192ZM134.501 99.4H135.781V104.216H135.877C136.058 103.853 136.319 103.544 136.661 103.288C137.002 103.032 137.439 102.904 137.973 102.904C138.879 102.904 139.594 103.144 140.117 103.624C140.65 104.104 140.917 104.877 140.917 105.944V111H139.637V106.184C139.637 105.373 139.471 104.803 139.141 104.472C138.821 104.131 138.346 103.96 137.717 103.96C137.109 103.96 136.634 104.168 136.293 104.584C135.951 105 135.781 105.608 135.781 106.408V111H134.501V99.4ZM146.495 111.192C145.93 111.192 145.412 111.096 144.943 110.904C144.484 110.712 144.09 110.44 143.759 110.088C143.439 109.725 143.188 109.288 143.007 108.776C142.836 108.264 142.751 107.688 142.751 107.048C142.751 106.376 142.842 105.784 143.023 105.272C143.204 104.749 143.455 104.317 143.775 103.976C144.095 103.624 144.474 103.357 144.911 103.176C145.359 102.995 145.85 102.904 146.383 102.904C146.916 102.904 147.407 102.989 147.855 103.16C148.303 103.331 148.687 103.587 149.007 103.928C149.327 104.259 149.578 104.68 149.759 105.192C149.94 105.693 150.031 106.28 150.031 106.952C150.031 107.037 150.026 107.123 150.015 107.208C150.015 107.293 150.01 107.363 149.999 107.416H144.031C144.031 107.789 144.095 108.141 144.223 108.472C144.362 108.792 144.543 109.075 144.767 109.32C145.002 109.555 145.268 109.741 145.567 109.88C145.876 110.019 146.207 110.088 146.559 110.088C147.135 110.088 147.604 109.976 147.967 109.752C148.34 109.528 148.65 109.256 148.895 108.936L149.663 109.72C149.322 110.168 148.895 110.525 148.383 110.792C147.882 111.059 147.252 111.192 146.495 111.192ZM146.383 103.96C146.01 103.96 145.679 104.029 145.391 104.168C145.103 104.307 144.863 104.488 144.671 104.712C144.479 104.936 144.33 105.192 144.223 105.48C144.127 105.768 144.074 106.056 144.063 106.344H148.687C148.676 106.056 148.618 105.768 148.511 105.48C148.415 105.192 148.271 104.936 148.079 104.712C147.887 104.488 147.647 104.307 147.359 104.168C147.082 104.029 146.756 103.96 146.383 103.96ZM152.094 103.096H153.31V104.344H153.406C153.598 103.928 153.865 103.587 154.206 103.32C154.558 103.043 154.996 102.904 155.518 102.904C156.148 102.904 156.676 103.021 157.102 103.256C157.54 103.48 157.865 103.821 158.078 104.28C158.313 103.832 158.628 103.491 159.022 103.256C159.417 103.021 159.918 102.904 160.526 102.904C160.964 102.904 161.358 102.963 161.71 103.08C162.062 103.197 162.361 103.379 162.606 103.624C162.862 103.869 163.054 104.184 163.182 104.568C163.321 104.952 163.39 105.411 163.39 105.944V111H162.11V106.184C162.11 105.373 161.95 104.803 161.63 104.472C161.321 104.131 160.862 103.96 160.254 103.96C159.668 103.96 159.209 104.168 158.878 104.584C158.548 105 158.382 105.608 158.382 106.408V111H157.102V106.184C157.102 105.373 156.942 104.803 156.622 104.472C156.313 104.131 155.854 103.96 155.246 103.96C154.67 103.96 154.212 104.168 153.87 104.584C153.54 105 153.374 105.608 153.374 106.408V111H152.094V103.096ZM173.877 111.192C173.557 111.192 173.248 111.149 172.949 111.064C172.661 110.979 172.394 110.856 172.149 110.696C171.914 110.536 171.706 110.349 171.525 110.136C171.354 109.912 171.221 109.661 171.125 109.384H171.029V111H169.813V99.4H171.093V104.552H171.189C171.392 104.072 171.728 103.677 172.197 103.368C172.666 103.059 173.226 102.904 173.877 102.904C174.4 102.904 174.874 103.005 175.301 103.208C175.738 103.411 176.112 103.699 176.421 104.072C176.73 104.435 176.965 104.872 177.125 105.384C177.296 105.885 177.381 106.435 177.381 107.032C177.381 107.629 177.296 108.184 177.125 108.696C176.965 109.208 176.73 109.651 176.421 110.024C176.112 110.387 175.738 110.675 175.301 110.888C174.874 111.091 174.4 111.192 173.877 111.192ZM173.557 110.04C173.909 110.04 174.234 109.981 174.533 109.864C174.842 109.736 175.109 109.549 175.333 109.304C175.568 109.048 175.749 108.733 175.877 108.36C176.005 107.987 176.069 107.549 176.069 107.048C176.069 106.547 176.005 106.109 175.877 105.736C175.749 105.363 175.568 105.053 175.333 104.808C175.109 104.552 174.842 104.365 174.533 104.248C174.234 104.12 173.909 104.056 173.557 104.056C173.216 104.056 172.896 104.12 172.597 104.248C172.298 104.365 172.037 104.552 171.813 104.808C171.589 105.053 171.413 105.363 171.285 105.736C171.157 106.109 171.093 106.547 171.093 107.048C171.093 107.549 171.157 107.987 171.285 108.36C171.413 108.733 171.589 109.048 171.813 109.304C172.037 109.549 172.298 109.736 172.597 109.864C172.896 109.981 173.216 110.04 173.557 110.04ZM182.526 111.192C181.961 111.192 181.443 111.096 180.974 110.904C180.515 110.712 180.121 110.44 179.79 110.088C179.47 109.725 179.219 109.288 179.038 108.776C178.867 108.264 178.782 107.688 178.782 107.048C178.782 106.376 178.873 105.784 179.054 105.272C179.235 104.749 179.486 104.317 179.806 103.976C180.126 103.624 180.505 103.357 180.942 103.176C181.39 102.995 181.881 102.904 182.414 102.904C182.947 102.904 183.438 102.989 183.886 103.16C184.334 103.331 184.718 103.587 185.038 103.928C185.358 104.259 185.609 104.68 185.79 105.192C185.971 105.693 186.062 106.28 186.062 106.952C186.062 107.037 186.057 107.123 186.046 107.208C186.046 107.293 186.041 107.363 186.03 107.416H180.062C180.062 107.789 180.126 108.141 180.254 108.472C180.393 108.792 180.574 109.075 180.798 109.32C181.033 109.555 181.299 109.741 181.598 109.88C181.907 110.019 182.238 110.088 182.59 110.088C183.166 110.088 183.635 109.976 183.998 109.752C184.371 109.528 184.681 109.256 184.926 108.936L185.694 109.72C185.353 110.168 184.926 110.525 184.414 110.792C183.913 111.059 183.283 111.192 182.526 111.192ZM182.414 103.96C182.041 103.96 181.71 104.029 181.422 104.168C181.134 104.307 180.894 104.488 180.702 104.712C180.51 104.936 180.361 105.192 180.254 105.48C180.158 105.768 180.105 106.056 180.094 106.344H184.718C184.707 106.056 184.649 105.768 184.542 105.48C184.446 105.192 184.302 104.936 184.11 104.712C183.918 104.488 183.678 104.307 183.39 104.168C183.113 104.029 182.787 103.96 182.414 103.96ZM188.526 104.136H187.118V103.096H188.526V101.704C188.526 100.936 188.718 100.328 189.102 99.88C189.496 99.432 190.078 99.208 190.846 99.208C191.038 99.208 191.235 99.2293 191.438 99.272C191.64 99.304 191.816 99.3573 191.966 99.432L191.534 100.44C191.459 100.397 191.358 100.365 191.23 100.344C191.102 100.312 190.99 100.296 190.894 100.296C190.552 100.296 190.286 100.413 190.094 100.648C189.902 100.883 189.806 101.24 189.806 101.72V103.096H191.918V104.136H189.806V111H188.526V104.136ZM196.511 111.192C195.882 111.192 195.327 111.085 194.847 110.872C194.378 110.648 193.983 110.349 193.663 109.976C193.354 109.603 193.119 109.165 192.959 108.664C192.81 108.163 192.735 107.624 192.735 107.048C192.735 106.472 192.81 105.933 192.959 105.432C193.119 104.931 193.354 104.493 193.663 104.12C193.983 103.747 194.378 103.453 194.847 103.24C195.327 103.016 195.882 102.904 196.511 102.904C197.141 102.904 197.685 103.016 198.143 103.24C198.613 103.453 199.002 103.747 199.311 104.12C199.621 104.493 199.85 104.931 199.999 105.432C200.159 105.933 200.239 106.472 200.239 107.048C200.239 107.624 200.159 108.163 199.999 108.664C199.85 109.165 199.621 109.603 199.311 109.976C199.002 110.349 198.613 110.648 198.143 110.872C197.685 111.085 197.141 111.192 196.511 111.192ZM194.047 107.048C194.047 107.507 194.095 107.928 194.191 108.312C194.298 108.685 194.453 109.011 194.655 109.288C194.858 109.555 195.114 109.763 195.423 109.912C195.733 110.061 196.095 110.136 196.511 110.136C196.917 110.136 197.269 110.061 197.567 109.912C197.877 109.763 198.127 109.555 198.319 109.288C198.522 109.011 198.671 108.685 198.767 108.312C198.874 107.928 198.927 107.507 198.927 107.048C198.927 106.589 198.874 106.173 198.767 105.8C198.671 105.416 198.522 105.091 198.319 104.824C198.127 104.547 197.877 104.333 197.567 104.184C197.269 104.035 196.917 103.96 196.511 103.96C196.095 103.96 195.733 104.035 195.423 104.184C195.114 104.333 194.858 104.547 194.655 104.824C194.453 105.091 194.298 105.416 194.191 105.8C194.095 106.173 194.047 106.589 194.047 107.048ZM202.298 103.096H203.514V104.376H203.61C203.78 103.96 204.026 103.613 204.346 103.336C204.666 103.048 205.066 102.904 205.546 102.904C205.951 102.904 206.308 102.984 206.618 103.144L206.186 104.296C206.047 104.221 205.898 104.173 205.738 104.152C205.588 104.12 205.434 104.104 205.274 104.104C204.751 104.104 204.335 104.317 204.026 104.744C203.727 105.16 203.578 105.693 203.578 106.344V111H202.298V103.096ZM210.964 111.192C210.398 111.192 209.881 111.096 209.412 110.904C208.953 110.712 208.558 110.44 208.228 110.088C207.908 109.725 207.657 109.288 207.476 108.776C207.305 108.264 207.22 107.688 207.22 107.048C207.22 106.376 207.31 105.784 207.492 105.272C207.673 104.749 207.924 104.317 208.244 103.976C208.564 103.624 208.942 103.357 209.38 103.176C209.828 102.995 210.318 102.904 210.852 102.904C211.385 102.904 211.876 102.989 212.324 103.16C212.772 103.331 213.156 103.587 213.476 103.928C213.796 104.259 214.046 104.68 214.228 105.192C214.409 105.693 214.5 106.28 214.5 106.952C214.5 107.037 214.494 107.123 214.484 107.208C214.484 107.293 214.478 107.363 214.468 107.416H208.5C208.5 107.789 208.564 108.141 208.692 108.472C208.83 108.792 209.012 109.075 209.236 109.32C209.47 109.555 209.737 109.741 210.036 109.88C210.345 110.019 210.676 110.088 211.028 110.088C211.604 110.088 212.073 109.976 212.436 109.752C212.809 109.528 213.118 109.256 213.364 108.936L214.132 109.72C213.79 110.168 213.364 110.525 212.852 110.792C212.35 111.059 211.721 111.192 210.964 111.192ZM210.852 103.96C210.478 103.96 210.148 104.029 209.86 104.168C209.572 104.307 209.332 104.488 209.14 104.712C208.948 104.936 208.798 105.192 208.692 105.48C208.596 105.768 208.542 106.056 208.532 106.344H213.156C213.145 106.056 213.086 105.768 212.98 105.48C212.884 105.192 212.74 104.936 212.548 104.712C212.356 104.488 212.116 104.307 211.828 104.168C211.55 104.029 211.225 103.96 210.852 103.96ZM223.495 111.192C222.93 111.192 222.412 111.096 221.943 110.904C221.484 110.712 221.09 110.44 220.759 110.088C220.439 109.725 220.188 109.288 220.007 108.776C219.836 108.264 219.751 107.688 219.751 107.048C219.751 106.376 219.842 105.784 220.023 105.272C220.204 104.749 220.455 104.317 220.775 103.976C221.095 103.624 221.474 103.357 221.911 103.176C222.359 102.995 222.85 102.904 223.383 102.904C223.916 102.904 224.407 102.989 224.855 103.16C225.303 103.331 225.687 103.587 226.007 103.928C226.327 104.259 226.578 104.68 226.759 105.192C226.94 105.693 227.031 106.28 227.031 106.952C227.031 107.037 227.026 107.123 227.015 107.208C227.015 107.293 227.01 107.363 226.999 107.416H221.031C221.031 107.789 221.095 108.141 221.223 108.472C221.362 108.792 221.543 109.075 221.767 109.32C222.002 109.555 222.268 109.741 222.567 109.88C222.876 110.019 223.207 110.088 223.559 110.088C224.135 110.088 224.604 109.976 224.967 109.752C225.34 109.528 225.65 109.256 225.895 108.936L226.663 109.72C226.322 110.168 225.895 110.525 225.383 110.792C224.882 111.059 224.252 111.192 223.495 111.192ZM223.383 103.96C223.01 103.96 222.679 104.029 222.391 104.168C222.103 104.307 221.863 104.488 221.671 104.712C221.479 104.936 221.33 105.192 221.223 105.48C221.127 105.768 221.074 106.056 221.063 106.344H225.687C225.676 106.056 225.618 105.768 225.511 105.48C225.415 105.192 225.271 104.936 225.079 104.712C224.887 104.488 224.647 104.307 224.359 104.168C224.082 104.029 223.756 103.96 223.383 103.96ZM230.749 106.984L228.109 103.096H229.645L231.517 106.056H231.581L233.517 103.096H234.893L232.253 106.92L235.021 111H233.485L231.485 107.848H231.421L229.357 111H227.981L230.749 106.984ZM238.395 101C238.395 101.224 238.315 101.416 238.155 101.576C238.006 101.736 237.803 101.816 237.547 101.816C237.28 101.816 237.072 101.736 236.923 101.576C236.774 101.416 236.699 101.224 236.699 101C236.699 100.787 236.774 100.6 236.923 100.44C237.072 100.269 237.28 100.184 237.547 100.184C237.803 100.184 238.006 100.269 238.155 100.44C238.315 100.6 238.395 100.787 238.395 101ZM236.907 103.096H238.187V111H236.907V103.096ZM243.339 111.192C242.624 111.192 242.102 110.979 241.771 110.552C241.44 110.125 241.275 109.539 241.275 108.792V104.136H239.867V103.096H241.275V100.952H242.539V103.096H244.827V104.136H242.539V108.68C242.539 109.192 242.635 109.549 242.827 109.752C243.03 109.955 243.286 110.056 243.595 110.056C243.808 110.056 244 110.019 244.171 109.944C244.342 109.859 244.502 109.747 244.651 109.608L245.227 110.504C244.736 110.963 244.107 111.192 243.339 111.192ZM248.457 101C248.457 101.224 248.377 101.416 248.217 101.576C248.068 101.736 247.865 101.816 247.609 101.816C247.343 101.816 247.135 101.736 246.985 101.576C246.836 101.416 246.761 101.224 246.761 101C246.761 100.787 246.836 100.6 246.985 100.44C247.135 100.269 247.343 100.184 247.609 100.184C247.865 100.184 248.068 100.269 248.217 100.44C248.377 100.6 248.457 100.787 248.457 101ZM246.969 103.096H248.249V111H246.969V103.096ZM250.969 103.096H252.185V104.344H252.281C252.473 103.928 252.745 103.587 253.097 103.32C253.449 103.043 253.897 102.904 254.441 102.904C255.348 102.904 256.063 103.144 256.585 103.624C257.119 104.104 257.385 104.877 257.385 105.944V111H256.105V106.184C256.105 105.373 255.94 104.803 255.609 104.472C255.289 104.131 254.815 103.96 254.185 103.96C253.577 103.96 253.103 104.168 252.761 104.584C252.42 105 252.249 105.608 252.249 106.408V111H250.969V103.096ZM263.106 114.152C262.423 114.152 261.831 114.029 261.33 113.784C260.828 113.549 260.428 113.256 260.13 112.904L260.978 112.088C261.202 112.365 261.49 112.584 261.842 112.744C262.204 112.915 262.604 113 263.042 113C263.724 113 264.258 112.835 264.642 112.504C265.036 112.173 265.234 111.592 265.234 110.76V109.224H265.138C265.052 109.491 264.93 109.731 264.77 109.944C264.61 110.147 264.418 110.323 264.194 110.472C263.98 110.611 263.74 110.723 263.474 110.808C263.218 110.883 262.956 110.92 262.69 110.92C262.188 110.92 261.73 110.829 261.314 110.648C260.908 110.467 260.551 110.205 260.242 109.864C259.943 109.512 259.708 109.085 259.538 108.584C259.378 108.083 259.298 107.517 259.298 106.888C259.298 106.269 259.378 105.715 259.538 105.224C259.708 104.733 259.943 104.317 260.242 103.976C260.551 103.635 260.908 103.373 261.314 103.192C261.73 103 262.188 102.904 262.69 102.904C263.276 102.904 263.799 103.059 264.258 103.368C264.727 103.667 265.042 104.083 265.202 104.616H265.298V103.096H266.514V110.92C266.514 111.891 266.22 112.669 265.634 113.256C265.058 113.853 264.215 114.152 263.106 114.152ZM262.946 109.768C263.65 109.768 264.204 109.523 264.61 109.032C265.026 108.541 265.234 107.832 265.234 106.904C265.234 105.965 265.026 105.256 264.61 104.776C264.204 104.296 263.65 104.056 262.946 104.056C262.231 104.056 261.66 104.296 261.234 104.776C260.818 105.256 260.61 105.965 260.61 106.904C260.61 107.832 260.818 108.541 261.234 109.032C261.66 109.523 262.231 109.768 262.946 109.768ZM270.195 105.496C270.558 105.347 270.894 105.176 271.203 104.984C271.512 104.792 271.779 104.573 272.003 104.328C272.238 104.083 272.419 103.805 272.547 103.496C272.686 103.176 272.755 102.819 272.755 102.424C272.755 102.061 272.702 101.752 272.595 101.496C272.499 101.24 272.36 101.032 272.179 100.872C271.998 100.701 271.784 100.579 271.539 100.504C271.304 100.419 271.043 100.376 270.755 100.376C270.35 100.376 269.987 100.456 269.667 100.616C269.358 100.765 269.112 100.936 268.931 101.128L268.243 100.328C268.531 99.9973 268.894 99.7307 269.331 99.528C269.779 99.3147 270.318 99.208 270.947 99.208C271.427 99.208 271.864 99.2827 272.259 99.432C272.654 99.5707 272.99 99.7733 273.267 100.04C273.555 100.307 273.774 100.632 273.923 101.016C274.083 101.4 274.163 101.837 274.163 102.328C274.163 102.723 274.094 103.101 273.955 103.464C273.816 103.827 273.624 104.168 273.379 104.488C273.144 104.797 272.862 105.075 272.531 105.32C272.2 105.565 271.843 105.768 271.459 105.928L271.219 107.96H270.579L270.195 105.496ZM270.899 111.192C270.6 111.192 270.366 111.096 270.195 110.904C270.024 110.712 269.939 110.493 269.939 110.248C269.939 109.992 270.024 109.773 270.195 109.592C270.366 109.4 270.6 109.304 270.899 109.304C271.208 109.304 271.443 109.4 271.603 109.592C271.774 109.773 271.859 109.992 271.859 110.248C271.859 110.493 271.774 110.712 271.603 110.904C271.443 111.096 271.208 111.192 270.899 111.192Z" fill="#242E30"/>
<rect width="288" height="80" transform="translate(17 121)" fill="white"/>
<g clip-path="url(#clip1_3774_3409)">
<path d="M66 161C66 147.745 76.7452 137 90 137H158C171.255 137 182 147.745 182 161C182 174.255 171.255 185 158 185H90C76.7452 185 66 174.255 66 161Z" fill="white" fill-opacity="0.01"/>
<path d="M91.8272 155H96.7672C97.8205 155 98.7339 155.167 99.5072 155.5C100.281 155.833 100.921 156.293 101.427 156.88C101.934 157.467 102.307 158.153 102.547 158.94C102.801 159.727 102.927 160.58 102.927 161.5C102.927 162.407 102.801 163.253 102.547 164.04C102.294 164.827 101.914 165.513 101.407 166.1C100.901 166.687 100.261 167.153 99.4872 167.5C98.7139 167.833 97.8072 168 96.7672 168H91.8272V155ZM96.7272 165.84C97.8072 165.84 98.6539 165.46 99.2672 164.7C99.8805 163.927 100.187 162.867 100.187 161.52C100.187 160.133 99.8805 159.06 99.2672 158.3C98.6539 157.54 97.8072 157.16 96.7272 157.16H94.5072V165.84H96.7272ZM107.865 155.38C107.865 155.753 107.732 156.087 107.465 156.38C107.212 156.673 106.852 156.82 106.385 156.82C105.905 156.82 105.538 156.673 105.285 156.38C105.032 156.087 104.905 155.753 104.905 155.38C104.905 154.993 105.032 154.66 105.285 154.38C105.538 154.087 105.905 153.94 106.385 153.94C106.852 153.94 107.212 154.087 107.465 154.38C107.732 154.66 107.865 154.993 107.865 155.38ZM105.105 158.12H107.625V168H105.105V158.12ZM115.021 165.2C115.021 165 114.961 164.833 114.841 164.7C114.734 164.553 114.574 164.433 114.361 164.34C114.161 164.247 113.921 164.167 113.641 164.1C113.361 164.02 113.054 163.94 112.721 163.86C112.334 163.767 111.968 163.647 111.621 163.5C111.274 163.353 110.968 163.167 110.701 162.94C110.448 162.7 110.241 162.42 110.081 162.1C109.921 161.78 109.841 161.393 109.841 160.94C109.841 160.447 109.934 160.013 110.121 159.64C110.321 159.253 110.594 158.933 110.941 158.68C111.288 158.413 111.701 158.213 112.181 158.08C112.661 157.947 113.181 157.88 113.741 157.88C114.621 157.88 115.381 158.02 116.021 158.3C116.661 158.567 117.154 158.927 117.501 159.38L116.101 160.82C115.834 160.527 115.501 160.287 115.101 160.1C114.714 159.913 114.308 159.82 113.881 159.82C113.481 159.82 113.128 159.9 112.821 160.06C112.514 160.22 112.361 160.48 112.361 160.84C112.361 161.04 112.414 161.207 112.521 161.34C112.641 161.473 112.801 161.593 113.001 161.7C113.214 161.793 113.461 161.88 113.741 161.96C114.021 162.027 114.328 162.1 114.661 162.18C115.034 162.273 115.394 162.393 115.741 162.54C116.101 162.687 116.408 162.88 116.661 163.12C116.928 163.347 117.141 163.62 117.301 163.94C117.461 164.26 117.541 164.647 117.541 165.1C117.541 165.62 117.434 166.073 117.221 166.46C117.021 166.847 116.734 167.173 116.361 167.44C116.001 167.707 115.568 167.907 115.061 168.04C114.568 168.173 114.034 168.24 113.461 168.24C112.488 168.24 111.661 168.1 110.981 167.82C110.314 167.54 109.808 167.18 109.461 166.74L110.821 165.28C111.128 165.6 111.501 165.853 111.941 166.04C112.381 166.213 112.861 166.3 113.381 166.3C113.848 166.3 114.234 166.213 114.541 166.04C114.861 165.853 115.021 165.573 115.021 165.2ZM123.777 168.24C122.937 168.24 122.21 168.1 121.597 167.82C120.997 167.527 120.504 167.14 120.117 166.66C119.73 166.18 119.444 165.633 119.257 165.02C119.07 164.393 118.977 163.74 118.977 163.06C118.977 162.38 119.064 161.733 119.237 161.12C119.424 160.493 119.704 159.94 120.077 159.46C120.464 158.98 120.957 158.6 121.557 158.32C122.157 158.027 122.87 157.88 123.697 157.88C124.524 157.88 125.224 158.027 125.797 158.32C126.384 158.613 126.864 158.987 127.237 159.44L125.557 160.96C125.33 160.68 125.077 160.467 124.797 160.32C124.517 160.16 124.164 160.08 123.737 160.08C123.044 160.08 122.504 160.347 122.117 160.88C121.73 161.4 121.537 162.127 121.537 163.06C121.537 163.993 121.737 164.727 122.137 165.26C122.537 165.78 123.084 166.04 123.777 166.04C124.19 166.04 124.55 165.96 124.857 165.8C125.164 165.64 125.43 165.413 125.657 165.12L127.317 166.66C126.944 167.113 126.457 167.493 125.857 167.8C125.27 168.093 124.577 168.24 123.777 168.24ZM131.51 168.24C131.07 168.24 130.65 168.167 130.25 168.02C129.864 167.887 129.524 167.693 129.23 167.44C128.937 167.173 128.704 166.853 128.53 166.48C128.37 166.107 128.29 165.687 128.29 165.22C128.29 164.34 128.604 163.64 129.23 163.12C129.857 162.6 130.81 162.307 132.09 162.24L134.41 162.1V161.7C134.41 161.06 134.217 160.62 133.83 160.38C133.444 160.14 132.964 160.02 132.39 160.02C131.937 160.02 131.51 160.107 131.11 160.28C130.71 160.44 130.41 160.64 130.21 160.88L128.79 159.44C129.137 158.987 129.637 158.613 130.29 158.32C130.957 158.027 131.77 157.88 132.73 157.88C134.144 157.88 135.197 158.207 135.89 158.86C136.584 159.513 136.93 160.4 136.93 161.52V168H134.55V166.42H134.43C134.177 166.98 133.81 167.427 133.33 167.76C132.85 168.08 132.244 168.24 131.51 168.24ZM132.25 166.42C132.89 166.42 133.41 166.24 133.81 165.88C134.21 165.507 134.41 164.987 134.41 164.32V163.66L132.39 163.82C131.35 163.887 130.83 164.327 130.83 165.14C130.83 165.553 130.964 165.873 131.23 166.1C131.497 166.313 131.837 166.42 132.25 166.42ZM139.402 158.12H141.782V159.78H141.902C142.102 159.207 142.409 158.747 142.822 158.4C143.249 158.053 143.782 157.88 144.422 157.88C144.915 157.88 145.375 157.96 145.802 158.12L145.102 160.42C144.955 160.327 144.782 160.26 144.582 160.22C144.382 160.18 144.189 160.16 144.002 160.16C143.389 160.16 142.889 160.373 142.502 160.8C142.115 161.213 141.922 161.8 141.922 162.56V168H139.402V158.12ZM150.581 168.24C149.954 168.24 149.381 168.113 148.861 167.86C148.341 167.607 147.894 167.26 147.521 166.82C147.147 166.367 146.854 165.827 146.641 165.2C146.427 164.56 146.321 163.86 146.321 163.1C146.321 162.327 146.427 161.62 146.641 160.98C146.854 160.34 147.147 159.793 147.521 159.34C147.894 158.873 148.341 158.513 148.861 158.26C149.381 158.007 149.954 157.88 150.581 157.88C151.354 157.88 152.001 158.06 152.521 158.42C153.054 158.78 153.434 159.247 153.661 159.82H153.781V153.5H156.301V168H153.921V166.14H153.801C153.561 166.793 153.154 167.307 152.581 167.68C152.021 168.053 151.354 168.24 150.581 168.24ZM151.341 166.04C152.087 166.04 152.681 165.773 153.121 165.24C153.561 164.707 153.781 163.98 153.781 163.06C153.781 162.14 153.561 161.413 153.121 160.88C152.681 160.347 152.087 160.08 151.341 160.08C150.594 160.08 150.001 160.347 149.561 160.88C149.121 161.413 148.901 162.14 148.901 163.06C148.901 163.98 149.121 164.707 149.561 165.24C150.001 165.773 150.594 166.04 151.341 166.04Z" fill="#242E30"/>
</g>
<g clip-path="url(#clip2_3774_3409)">
<path d="M198 161C198 147.745 208.745 137 222 137H265C278.255 137 289 147.745 289 161C289 174.255 278.255 185 265 185H222C208.745 185 198 174.255 198 161Z" fill="#F36805"/>
<path d="M198 161C198 147.745 208.745 137 222 137H265C278.255 137 289 147.745 289 161C289 174.255 278.255 185 265 185H222C208.745 185 198 174.255 198 161Z" fill="white" fill-opacity="0.01"/>
<path d="M227.582 168.24C226.395 168.24 225.415 168.06 224.642 167.7C223.868 167.327 223.228 166.833 222.722 166.22L224.442 164.62C224.815 165.033 225.248 165.373 225.742 165.64C226.248 165.907 226.882 166.04 227.642 166.04C228.255 166.04 228.782 165.907 229.222 165.64C229.662 165.373 229.882 164.947 229.882 164.36C229.882 164.08 229.808 163.853 229.662 163.68C229.528 163.493 229.328 163.333 229.062 163.2C228.808 163.053 228.488 162.92 228.102 162.8C227.728 162.68 227.302 162.547 226.822 162.4C226.368 162.267 225.922 162.107 225.482 161.92C225.042 161.72 224.648 161.48 224.302 161.2C223.968 160.907 223.695 160.553 223.482 160.14C223.282 159.713 223.182 159.2 223.182 158.6C223.182 157.987 223.295 157.44 223.522 156.96C223.762 156.48 224.088 156.08 224.502 155.76C224.928 155.427 225.435 155.18 226.022 155.02C226.608 154.847 227.255 154.76 227.962 154.76C229.028 154.76 229.935 154.933 230.682 155.28C231.428 155.613 232.035 156.093 232.502 156.72L230.782 158.34C230.462 157.953 230.068 157.633 229.602 157.38C229.148 157.113 228.595 156.98 227.942 156.98C227.675 156.98 227.415 157.007 227.162 157.06C226.922 157.113 226.708 157.207 226.522 157.34C226.335 157.46 226.182 157.62 226.062 157.82C225.955 158.007 225.902 158.24 225.902 158.52C225.902 158.8 225.968 159.033 226.102 159.22C226.248 159.407 226.448 159.573 226.702 159.72C226.968 159.853 227.288 159.98 227.662 160.1C228.035 160.22 228.462 160.353 228.942 160.5C229.395 160.647 229.842 160.813 230.282 161C230.722 161.187 231.115 161.427 231.462 161.72C231.808 162 232.082 162.353 232.282 162.78C232.495 163.193 232.602 163.7 232.602 164.3C232.602 164.94 232.475 165.507 232.222 166C231.982 166.493 231.635 166.907 231.182 167.24C230.742 167.56 230.215 167.807 229.602 167.98C228.988 168.153 228.315 168.24 227.582 168.24ZM237.27 168.24C236.83 168.24 236.41 168.167 236.01 168.02C235.624 167.887 235.284 167.693 234.99 167.44C234.697 167.173 234.464 166.853 234.29 166.48C234.13 166.107 234.05 165.687 234.05 165.22C234.05 164.34 234.364 163.64 234.99 163.12C235.617 162.6 236.57 162.307 237.85 162.24L240.17 162.1V161.7C240.17 161.06 239.977 160.62 239.59 160.38C239.204 160.14 238.724 160.02 238.15 160.02C237.697 160.02 237.27 160.107 236.87 160.28C236.47 160.44 236.17 160.64 235.97 160.88L234.55 159.44C234.897 158.987 235.397 158.613 236.05 158.32C236.717 158.027 237.53 157.88 238.49 157.88C239.904 157.88 240.957 158.207 241.65 158.86C242.344 159.513 242.69 160.4 242.69 161.52V168H240.31V166.42H240.19C239.937 166.98 239.57 167.427 239.09 167.76C238.61 168.08 238.004 168.24 237.27 168.24ZM238.01 166.42C238.65 166.42 239.17 166.24 239.57 165.88C239.97 165.507 240.17 164.987 240.17 164.32V163.66L238.15 163.82C237.11 163.887 236.59 164.327 236.59 165.14C236.59 165.553 236.724 165.873 236.99 166.1C237.257 166.313 237.597 166.42 238.01 166.42ZM243.926 158.12H246.686L248.966 165.36H249.086L251.386 158.12H253.966L250.286 168H247.586L243.926 158.12ZM259.598 168.24C258.771 168.24 258.051 168.107 257.438 167.84C256.825 167.573 256.305 167.207 255.878 166.74C255.465 166.26 255.151 165.707 254.938 165.08C254.738 164.453 254.638 163.78 254.638 163.06C254.638 162.327 254.738 161.647 254.938 161.02C255.138 160.38 255.438 159.833 255.838 159.38C256.238 158.913 256.738 158.547 257.338 158.28C257.938 158.013 258.638 157.88 259.438 157.88C260.238 157.88 260.938 158.007 261.538 158.26C262.138 158.513 262.631 158.867 263.018 159.32C263.405 159.773 263.691 160.313 263.878 160.94C264.078 161.553 264.178 162.227 264.178 162.96C264.178 163.093 264.165 163.247 264.138 163.42C264.125 163.593 264.105 163.733 264.078 163.84H257.198C257.238 164.2 257.331 164.527 257.478 164.82C257.638 165.1 257.831 165.34 258.058 165.54C258.298 165.74 258.558 165.893 258.838 166C259.131 166.093 259.431 166.14 259.738 166.14C260.311 166.14 260.791 166.04 261.178 165.84C261.565 165.64 261.878 165.387 262.118 165.08L263.538 166.56C263.165 167.067 262.645 167.473 261.978 167.78C261.311 168.087 260.518 168.24 259.598 168.24ZM259.438 159.8C258.798 159.8 258.278 160.007 257.878 160.42C257.478 160.833 257.245 161.38 257.178 162.06H261.658C261.591 161.38 261.358 160.833 260.958 160.42C260.571 160.007 260.065 159.8 259.438 159.8Z" fill="white"/>
</g>
</g>
</g>
<defs>
<filter id="filter0_ddd_3774_3409" x="0" y="0" width="322" height="226" filterUnits="userSpaceOnUse" color-interpolation-filters="sRGB">
<feFlood flood-opacity="0" result="BackgroundImageFix"/>
<feColorMatrix in="SourceAlpha" type="matrix" values="0 0 0 0 0 0 0 0 0 0 0 0 0 0 0 0 0 0 127 0" result="hardAlpha"/>
<feMorphology radius="2" operator="erode" in="SourceAlpha" result="effect1_dropShadow_3774_3409"/>
<feOffset dy="4"/>
<feGaussianBlur stdDeviation="4"/>
<feColorMatrix type="matrix" values="0 0 0 0 0 0 0 0 0 0 0 0 0 0 0 0 0 0 0.06 0"/>
<feBlend mode="normal" in2="BackgroundImageFix" result="effect1_dropShadow_3774_3409"/>
<feColorMatrix in="SourceAlpha" type="matrix" values="0 0 0 0 0 0 0 0 0 0 0 0 0 0 0 0 0 0 127 0" result="hardAlpha"/>
<feMorphology radius="3" operator="erode" in="SourceAlpha" result="effect2_dropShadow_3774_3409"/>
<feOffset dy="8"/>
<feGaussianBlur stdDeviation="10"/>
<feColorMatrix type="matrix" values="0 0 0 0 0 0 0 0 0 0 0 0 0 0 0 0 0 0 0.1 0"/>
<feBlend mode="normal" in2="effect1_dropShadow_3774_3409" result="effect2_dropShadow_3774_3409"/>
<feColorMatrix in="SourceAlpha" type="matrix" values="0 0 0 0 0 0 0 0 0 0 0 0 0 0 0 0 0 0 127 0" result="hardAlpha"/>
<feOffset dy="8"/>
<feGaussianBlur stdDeviation="4"/>
<feColorMatrix type="matrix" values="0 0 0 0 0 0 0 0 0 0 0 0 0 0 0 0 0 0 0.04 0"/>
<feBlend mode="normal" in2="effect2_dropShadow_3774_3409" result="effect3_dropShadow_3774_3409"/>
<feBlend mode="normal" in="SourceGraphic" in2="effect3_dropShadow_3774_3409" result="shape"/>
</filter>
<clipPath id="clip0_3774_3409">
<path d="M17 25C17 16.1634 24.1634 9 33 9H289C297.837 9 305 16.1634 305 25V185C305 193.837 297.837 201 289 201H33C24.1635 201 17 193.837 17 185V25Z" fill="white"/>
</clipPath>
<clipPath id="clip1_3774_3409">
<path d="M66 161C66 147.745 76.7452 137 90 137H158C171.255 137 182 147.745 182 161C182 174.255 171.255 185 158 185H90C76.7452 185 66 174.255 66 161Z" fill="white"/>
</clipPath>
<clipPath id="clip2_3774_3409">
<path d="M198 161C198 147.745 208.745 137 222 137H265C278.255 137 289 147.745 289 161C289 174.255 278.255 185 265 185H222C208.745 185 198 174.255 198 161Z" fill="white"/>
</clipPath>
</defs>
</svg>
