<svg width="339" height="160" viewBox="0 0 339 160" fill="none" xmlns="http://www.w3.org/2000/svg">
<g clip-path="url(#clip0_18560_8380)">
<g clip-path="url(#clip1_18560_8380)">
<path d="M81.522 94.25V85.15H83.398V92.724H87.024V94.25H81.522ZM90.1733 94.418C89.7627 94.418 89.3847 94.334 89.0393 94.166C88.694 93.9887 88.4187 93.746 88.2133 93.438C88.0173 93.1207 87.9193 92.7427 87.9193 92.304C87.9193 91.8933 88.0173 91.5387 88.2133 91.24C88.4093 90.9413 88.7033 90.7033 89.0953 90.526C89.4967 90.3487 89.9913 90.246 90.5793 90.218L92.2033 90.12V89.84C92.2033 89.5413 92.138 89.308 92.0073 89.14C91.886 88.972 91.718 88.8507 91.5033 88.776C91.298 88.7013 91.06 88.664 90.7893 88.664C90.472 88.664 90.1733 88.7247 89.8933 88.846C89.6133 88.958 89.4033 89.098 89.2633 89.266L88.2693 88.258C88.5213 87.9407 88.876 87.6793 89.3333 87.474C89.7907 87.2687 90.3553 87.166 91.0273 87.166C91.6807 87.166 92.222 87.2733 92.6513 87.488C93.09 87.6933 93.4167 87.9873 93.6313 88.37C93.8553 88.7433 93.9673 89.1913 93.9673 89.714V94.25H92.3013V93.144H92.2173C92.04 93.5267 91.7833 93.8347 91.4473 94.068C91.1113 94.3013 90.6867 94.418 90.1733 94.418ZM90.6913 93.144C91.1393 93.144 91.5033 93.018 91.7833 92.766C92.0633 92.5047 92.2033 92.1407 92.2033 91.674V91.212L90.7893 91.324C90.4253 91.3427 90.15 91.4313 89.9633 91.59C89.786 91.7487 89.6973 91.968 89.6973 92.248C89.6973 92.528 89.7907 92.7473 89.9773 92.906C90.164 93.0647 90.402 93.144 90.6913 93.144ZM99.7154 94.418C99.1741 94.418 98.7028 94.2873 98.3014 94.026C97.9094 93.7553 97.6294 93.396 97.4614 92.948H97.3774V94.25H95.6974V84.1H97.4614V88.524H97.5454C97.7134 88.132 97.9794 87.81 98.3434 87.558C98.7168 87.2967 99.1741 87.166 99.7154 87.166C100.294 87.166 100.807 87.3247 101.255 87.642C101.703 87.95 102.058 88.3793 102.319 88.93C102.581 89.4713 102.711 90.1013 102.711 90.82C102.711 91.5293 102.581 92.1547 102.319 92.696C102.058 93.228 101.703 93.648 101.255 93.956C100.807 94.264 100.294 94.418 99.7154 94.418ZM99.1694 92.878C99.5148 92.878 99.8181 92.794 100.079 92.626C100.341 92.458 100.541 92.22 100.681 91.912C100.831 91.5947 100.905 91.2213 100.905 90.792C100.905 90.3627 100.831 89.994 100.681 89.686C100.541 89.3687 100.341 89.126 100.079 88.958C99.8181 88.79 99.5148 88.706 99.1694 88.706C98.8334 88.706 98.5348 88.79 98.2734 88.958C98.0214 89.126 97.8208 89.3687 97.6714 89.686C97.5314 89.994 97.4614 90.3627 97.4614 90.792C97.4614 91.2213 97.5314 91.5947 97.6714 91.912C97.8208 92.22 98.0214 92.458 98.2734 92.626C98.5348 92.794 98.8334 92.878 99.1694 92.878ZM107.088 94.418C106.323 94.418 105.679 94.2547 105.156 93.928C104.643 93.6013 104.255 93.1673 103.994 92.626C103.742 92.0753 103.616 91.464 103.616 90.792C103.616 90.2787 103.686 89.8027 103.826 89.364C103.966 88.916 104.171 88.5287 104.442 88.202C104.722 87.8753 105.072 87.6233 105.492 87.446C105.912 87.2593 106.407 87.166 106.976 87.166C107.536 87.166 108.021 87.2547 108.432 87.432C108.852 87.6093 109.197 87.8613 109.468 88.188C109.748 88.5053 109.953 88.8787 110.084 89.308C110.224 89.7373 110.294 90.2087 110.294 90.722C110.294 90.8153 110.285 90.9273 110.266 91.058C110.257 91.1793 110.243 91.2727 110.224 91.338H105.408C105.436 91.674 105.539 91.9633 105.716 92.206C105.893 92.4487 106.113 92.6353 106.374 92.766C106.635 92.8873 106.906 92.948 107.186 92.948C107.578 92.948 107.909 92.878 108.18 92.738C108.46 92.598 108.684 92.4207 108.852 92.206L109.846 93.242C109.594 93.5873 109.23 93.872 108.754 94.096C108.287 94.3107 107.732 94.418 107.088 94.418ZM106.976 88.51C106.677 88.51 106.411 88.58 106.178 88.72C105.954 88.8507 105.772 89.0327 105.632 89.266C105.501 89.4993 105.422 89.7747 105.394 90.092H108.53C108.502 89.7747 108.418 89.4993 108.278 89.266C108.147 89.0327 107.97 88.8507 107.746 88.72C107.522 88.58 107.265 88.51 106.976 88.51ZM111.666 94.25V84.1H113.43V94.25H111.666Z" fill="#242E30"/>
</g>
</g>
<mask id="mask0_18560_8380" style="mask-type:luminance" maskUnits="userSpaceOnUse" x="82" y="109" width="21" height="21">
<mask id="path-2-inside-1_18560_8380" fill="white">
<path fill-rule="evenodd" clip-rule="evenodd" d="M82.5 119.25C82.5 113.73 86.98 109.25 92.5 109.25C98.02 109.25 102.5 113.73 102.5 119.25C102.5 124.77 98.02 129.25 92.5 129.25C86.98 129.25 82.5 124.77 82.5 119.25ZM84.5 119.25C84.5 123.67 88.08 127.25 92.5 127.25C96.92 127.25 100.5 123.67 100.5 119.25C100.5 114.83 96.92 111.25 92.5 111.25C88.08 111.25 84.5 114.83 84.5 119.25Z"/>
</mask>
<path d="M92.5 109.25V108.25C86.4277 108.25 81.5 113.178 81.5 119.25H82.5H83.5C83.5 114.282 87.5323 110.25 92.5 110.25V109.25ZM102.5 119.25H103.5C103.5 113.178 98.5723 108.25 92.5 108.25V109.25V110.25C97.4677 110.25 101.5 114.282 101.5 119.25H102.5ZM92.5 129.25V130.25C98.5723 130.25 103.5 125.322 103.5 119.25H102.5H101.5C101.5 124.218 97.4677 128.25 92.5 128.25V129.25ZM82.5 119.25H81.5C81.5 125.322 86.4277 130.25 92.5 130.25V129.25V128.25C87.5323 128.25 83.5 124.218 83.5 119.25H82.5ZM92.5 127.25V126.25C88.6323 126.25 85.5 123.118 85.5 119.25H84.5H83.5C83.5 124.222 87.5277 128.25 92.5 128.25V127.25ZM100.5 119.25H99.5C99.5 123.118 96.3677 126.25 92.5 126.25V127.25V128.25C97.4723 128.25 101.5 124.222 101.5 119.25H100.5ZM92.5 111.25V112.25C96.3677 112.25 99.5 115.382 99.5 119.25H100.5H101.5C101.5 114.278 97.4723 110.25 92.5 110.25V111.25ZM84.5 119.25H85.5C85.5 115.382 88.6323 112.25 92.5 112.25V111.25V110.25C87.5277 110.25 83.5 114.278 83.5 119.25H84.5Z" fill="white" mask="url(#path-2-inside-1_18560_8380)"/>
</mask>
<g mask="url(#mask0_18560_8380)">
<rect x="80.5" y="107.25" width="24" height="24" fill="#8C867E"/>
</g>
<path d="M113.972 125.25V114.85H115.332V124.098H119.348V125.25H113.972ZM122.995 125.442C122.515 125.442 122.083 125.341 121.699 125.138C121.325 124.935 121.032 124.653 120.819 124.29C120.605 123.927 120.499 123.511 120.499 123.042C120.499 122.583 120.605 122.189 120.819 121.858C121.043 121.517 121.368 121.245 121.795 121.042C122.221 120.839 122.733 120.722 123.331 120.69L125.411 120.562V120.002C125.411 119.597 125.341 119.271 125.203 119.026C125.075 118.77 124.883 118.583 124.627 118.466C124.381 118.338 124.077 118.274 123.715 118.274C123.256 118.274 122.861 118.359 122.531 118.53C122.2 118.701 121.944 118.887 121.763 119.09L120.995 118.322C121.272 117.981 121.651 117.703 122.131 117.49C122.611 117.266 123.149 117.154 123.747 117.154C124.472 117.154 125.048 117.277 125.475 117.522C125.901 117.767 126.205 118.098 126.387 118.514C126.579 118.919 126.675 119.373 126.675 119.874V125.25H125.475V123.906H125.379C125.176 124.375 124.877 124.749 124.483 125.026C124.088 125.303 123.592 125.442 122.995 125.442ZM123.187 124.354C123.848 124.354 124.381 124.162 124.787 123.778C125.203 123.383 125.411 122.861 125.411 122.21V121.522L123.395 121.666C122.872 121.709 122.472 121.842 122.195 122.066C121.928 122.29 121.795 122.605 121.795 123.01C121.795 123.415 121.923 123.741 122.179 123.986C122.445 124.231 122.781 124.354 123.187 124.354ZM133.315 125.442C132.664 125.442 132.088 125.277 131.587 124.946C131.085 124.615 130.744 124.178 130.563 123.634H130.467V125.25H129.251V113.65H130.531V118.802H130.627C130.829 118.322 131.165 117.927 131.635 117.618C132.104 117.309 132.664 117.154 133.315 117.154C134.019 117.154 134.632 117.33 135.155 117.682C135.677 118.034 136.083 118.525 136.371 119.154C136.669 119.773 136.819 120.482 136.819 121.282C136.819 122.082 136.669 122.797 136.371 123.426C136.083 124.045 135.677 124.535 135.155 124.898C134.632 125.261 134.019 125.442 133.315 125.442ZM132.995 124.29C133.464 124.29 133.885 124.183 134.259 123.97C134.643 123.746 134.947 123.41 135.171 122.962C135.395 122.514 135.507 121.959 135.507 121.298C135.507 120.626 135.395 120.071 135.171 119.634C134.947 119.186 134.643 118.855 134.259 118.642C133.885 118.418 133.464 118.306 132.995 118.306C132.547 118.306 132.136 118.418 131.763 118.642C131.389 118.855 131.091 119.186 130.867 119.634C130.643 120.071 130.531 120.626 130.531 121.298C130.531 121.959 130.643 122.514 130.867 122.962C131.091 123.41 131.389 123.746 131.763 123.97C132.136 124.183 132.547 124.29 132.995 124.29ZM141.964 125.442C141.206 125.442 140.545 125.277 139.98 124.946C139.425 124.615 138.993 124.141 138.684 123.522C138.374 122.893 138.22 122.151 138.22 121.298C138.22 120.626 138.305 120.034 138.476 119.522C138.657 118.999 138.908 118.567 139.228 118.226C139.558 117.874 139.942 117.607 140.38 117.426C140.828 117.245 141.318 117.154 141.852 117.154C142.385 117.154 142.87 117.239 143.308 117.41C143.756 117.581 144.14 117.837 144.46 118.178C144.79 118.509 145.046 118.93 145.228 119.442C145.409 119.943 145.5 120.53 145.5 121.202C145.5 121.287 145.494 121.373 145.484 121.458C145.484 121.543 145.478 121.613 145.468 121.666H139.5C139.51 122.157 139.628 122.605 139.852 123.01C140.076 123.415 140.374 123.741 140.748 123.986C141.132 124.221 141.558 124.338 142.028 124.338C142.593 124.338 143.062 124.226 143.436 124.002C143.809 123.778 144.118 123.506 144.364 123.186L145.132 123.97C144.801 124.418 144.38 124.775 143.868 125.042C143.356 125.309 142.721 125.442 141.964 125.442ZM141.852 118.21C141.35 118.21 140.929 118.327 140.588 118.562C140.246 118.797 139.985 119.095 139.804 119.458C139.633 119.821 139.542 120.199 139.532 120.594H144.156C144.145 120.199 144.049 119.821 143.868 119.458C143.697 119.095 143.441 118.797 143.1 118.562C142.769 118.327 142.353 118.21 141.852 118.21ZM147.563 125.25V113.65H148.843V125.25H147.563Z" fill="#242E30"/>
<mask id="mask1_18560_8380" style="mask-type:luminance" maskUnits="userSpaceOnUse" x="176" y="109" width="21" height="21">
<mask id="path-6-inside-2_18560_8380" fill="white">
<path fill-rule="evenodd" clip-rule="evenodd" d="M176.5 119.25C176.5 113.73 180.98 109.25 186.5 109.25C192.02 109.25 196.5 113.73 196.5 119.25C196.5 124.77 192.02 129.25 186.5 129.25C180.98 129.25 176.5 124.77 176.5 119.25ZM178.5 119.25C178.5 123.67 182.08 127.25 186.5 127.25C190.92 127.25 194.5 123.67 194.5 119.25C194.5 114.83 190.92 111.25 186.5 111.25C182.08 111.25 178.5 114.83 178.5 119.25Z"/>
</mask>
<path d="M186.5 109.25V108.25C180.428 108.25 175.5 113.178 175.5 119.25H176.5H177.5C177.5 114.282 181.532 110.25 186.5 110.25V109.25ZM196.5 119.25H197.5C197.5 113.178 192.572 108.25 186.5 108.25V109.25V110.25C191.468 110.25 195.5 114.282 195.5 119.25H196.5ZM186.5 129.25V130.25C192.572 130.25 197.5 125.322 197.5 119.25H196.5H195.5C195.5 124.218 191.468 128.25 186.5 128.25V129.25ZM176.5 119.25H175.5C175.5 125.322 180.428 130.25 186.5 130.25V129.25V128.25C181.532 128.25 177.5 124.218 177.5 119.25H176.5ZM186.5 127.25V126.25C182.632 126.25 179.5 123.118 179.5 119.25H178.5H177.5C177.5 124.222 181.528 128.25 186.5 128.25V127.25ZM194.5 119.25H193.5C193.5 123.118 190.368 126.25 186.5 126.25V127.25V128.25C191.472 128.25 195.5 124.222 195.5 119.25H194.5ZM186.5 111.25V112.25C190.368 112.25 193.5 115.382 193.5 119.25H194.5H195.5C195.5 114.278 191.472 110.25 186.5 110.25V111.25ZM178.5 119.25H179.5C179.5 115.382 182.632 112.25 186.5 112.25V111.25V110.25C181.528 110.25 177.5 114.278 177.5 119.25H178.5Z" fill="white" mask="url(#path-6-inside-2_18560_8380)"/>
</mask>
<g mask="url(#mask1_18560_8380)">
<rect x="174.5" y="107.25" width="24" height="24" fill="#8C867E"/>
</g>
<path d="M207.972 125.25V114.85H209.332V124.098H213.348V125.25H207.972ZM216.995 125.442C216.515 125.442 216.083 125.341 215.699 125.138C215.325 124.935 215.032 124.653 214.819 124.29C214.605 123.927 214.499 123.511 214.499 123.042C214.499 122.583 214.605 122.189 214.819 121.858C215.043 121.517 215.368 121.245 215.795 121.042C216.221 120.839 216.733 120.722 217.331 120.69L219.411 120.562V120.002C219.411 119.597 219.341 119.271 219.203 119.026C219.075 118.77 218.883 118.583 218.627 118.466C218.381 118.338 218.077 118.274 217.715 118.274C217.256 118.274 216.861 118.359 216.531 118.53C216.2 118.701 215.944 118.887 215.763 119.09L214.995 118.322C215.272 117.981 215.651 117.703 216.131 117.49C216.611 117.266 217.149 117.154 217.747 117.154C218.472 117.154 219.048 117.277 219.475 117.522C219.901 117.767 220.205 118.098 220.387 118.514C220.579 118.919 220.675 119.373 220.675 119.874V125.25H219.475V123.906H219.379C219.176 124.375 218.877 124.749 218.483 125.026C218.088 125.303 217.592 125.442 216.995 125.442ZM217.187 124.354C217.848 124.354 218.381 124.162 218.787 123.778C219.203 123.383 219.411 122.861 219.411 122.21V121.522L217.395 121.666C216.872 121.709 216.472 121.842 216.195 122.066C215.928 122.29 215.795 122.605 215.795 123.01C215.795 123.415 215.923 123.741 216.179 123.986C216.445 124.231 216.781 124.354 217.187 124.354ZM227.315 125.442C226.664 125.442 226.088 125.277 225.587 124.946C225.085 124.615 224.744 124.178 224.563 123.634H224.467V125.25H223.251V113.65H224.531V118.802H224.627C224.829 118.322 225.165 117.927 225.635 117.618C226.104 117.309 226.664 117.154 227.315 117.154C228.019 117.154 228.632 117.33 229.155 117.682C229.677 118.034 230.083 118.525 230.371 119.154C230.669 119.773 230.819 120.482 230.819 121.282C230.819 122.082 230.669 122.797 230.371 123.426C230.083 124.045 229.677 124.535 229.155 124.898C228.632 125.261 228.019 125.442 227.315 125.442ZM226.995 124.29C227.464 124.29 227.885 124.183 228.259 123.97C228.643 123.746 228.947 123.41 229.171 122.962C229.395 122.514 229.507 121.959 229.507 121.298C229.507 120.626 229.395 120.071 229.171 119.634C228.947 119.186 228.643 118.855 228.259 118.642C227.885 118.418 227.464 118.306 226.995 118.306C226.547 118.306 226.136 118.418 225.763 118.642C225.389 118.855 225.091 119.186 224.867 119.634C224.643 120.071 224.531 120.626 224.531 121.298C224.531 121.959 224.643 122.514 224.867 122.962C225.091 123.41 225.389 123.746 225.763 123.97C226.136 124.183 226.547 124.29 226.995 124.29ZM235.964 125.442C235.206 125.442 234.545 125.277 233.98 124.946C233.425 124.615 232.993 124.141 232.684 123.522C232.374 122.893 232.22 122.151 232.22 121.298C232.22 120.626 232.305 120.034 232.476 119.522C232.657 118.999 232.908 118.567 233.228 118.226C233.558 117.874 233.942 117.607 234.38 117.426C234.828 117.245 235.318 117.154 235.852 117.154C236.385 117.154 236.87 117.239 237.308 117.41C237.756 117.581 238.14 117.837 238.46 118.178C238.79 118.509 239.046 118.93 239.228 119.442C239.409 119.943 239.5 120.53 239.5 121.202C239.5 121.287 239.494 121.373 239.484 121.458C239.484 121.543 239.478 121.613 239.468 121.666H233.5C233.51 122.157 233.628 122.605 233.852 123.01C234.076 123.415 234.374 123.741 234.748 123.986C235.132 124.221 235.558 124.338 236.028 124.338C236.593 124.338 237.062 124.226 237.436 124.002C237.809 123.778 238.118 123.506 238.364 123.186L239.132 123.97C238.801 124.418 238.38 124.775 237.868 125.042C237.356 125.309 236.721 125.442 235.964 125.442ZM235.852 118.21C235.35 118.21 234.929 118.327 234.588 118.562C234.246 118.797 233.985 119.095 233.804 119.458C233.633 119.821 233.542 120.199 233.532 120.594H238.156C238.145 120.199 238.049 119.821 237.868 119.458C237.697 119.095 237.441 118.797 237.1 118.562C236.769 118.327 236.353 118.21 235.852 118.21ZM241.563 125.25V113.65H242.843V125.25H241.563Z" fill="#242E30"/>
<mask id="mask2_18560_8380" style="mask-type:luminance" maskUnits="userSpaceOnUse" x="270" y="109" width="21" height="21">
<mask id="path-10-inside-3_18560_8380" fill="white">
<path fill-rule="evenodd" clip-rule="evenodd" d="M270.5 119.25C270.5 113.73 274.98 109.25 280.5 109.25C286.02 109.25 290.5 113.73 290.5 119.25C290.5 124.77 286.02 129.25 280.5 129.25C274.98 129.25 270.5 124.77 270.5 119.25ZM272.5 119.25C272.5 123.67 276.08 127.25 280.5 127.25C284.92 127.25 288.5 123.67 288.5 119.25C288.5 114.83 284.92 111.25 280.5 111.25C276.08 111.25 272.5 114.83 272.5 119.25Z"/>
</mask>
<path d="M280.5 109.25V108.25C274.428 108.25 269.5 113.178 269.5 119.25H270.5H271.5C271.5 114.282 275.532 110.25 280.5 110.25V109.25ZM290.5 119.25H291.5C291.5 113.178 286.572 108.25 280.5 108.25V109.25V110.25C285.468 110.25 289.5 114.282 289.5 119.25H290.5ZM280.5 129.25V130.25C286.572 130.25 291.5 125.322 291.5 119.25H290.5H289.5C289.5 124.218 285.468 128.25 280.5 128.25V129.25ZM270.5 119.25H269.5C269.5 125.322 274.428 130.25 280.5 130.25V129.25V128.25C275.532 128.25 271.5 124.218 271.5 119.25H270.5ZM280.5 127.25V126.25C276.632 126.25 273.5 123.118 273.5 119.25H272.5H271.5C271.5 124.222 275.528 128.25 280.5 128.25V127.25ZM288.5 119.25H287.5C287.5 123.118 284.368 126.25 280.5 126.25V127.25V128.25C285.472 128.25 289.5 124.222 289.5 119.25H288.5ZM280.5 111.25V112.25C284.368 112.25 287.5 115.382 287.5 119.25H288.5H289.5C289.5 114.278 285.472 110.25 280.5 110.25V111.25ZM272.5 119.25H273.5C273.5 115.382 276.632 112.25 280.5 112.25V111.25V110.25C275.528 110.25 271.5 114.278 271.5 119.25H272.5Z" fill="white" mask="url(#path-10-inside-3_18560_8380)"/>
</mask>
<g mask="url(#mask2_18560_8380)">
<rect x="268.5" y="107.25" width="24" height="24" fill="#8C867E"/>
</g>
<path d="M301.972 125.25V114.85H303.332V124.098H307.348V125.25H301.972ZM310.995 125.442C310.515 125.442 310.083 125.341 309.699 125.138C309.325 124.935 309.032 124.653 308.819 124.29C308.605 123.927 308.499 123.511 308.499 123.042C308.499 122.583 308.605 122.189 308.819 121.858C309.043 121.517 309.368 121.245 309.795 121.042C310.221 120.839 310.733 120.722 311.331 120.69L313.411 120.562V120.002C313.411 119.597 313.341 119.271 313.203 119.026C313.075 118.77 312.883 118.583 312.627 118.466C312.381 118.338 312.077 118.274 311.715 118.274C311.256 118.274 310.861 118.359 310.531 118.53C310.2 118.701 309.944 118.887 309.763 119.09L308.995 118.322C309.272 117.981 309.651 117.703 310.131 117.49C310.611 117.266 311.149 117.154 311.747 117.154C312.472 117.154 313.048 117.277 313.475 117.522C313.901 117.767 314.205 118.098 314.387 118.514C314.579 118.919 314.675 119.373 314.675 119.874V125.25H313.475V123.906H313.379C313.176 124.375 312.877 124.749 312.483 125.026C312.088 125.303 311.592 125.442 310.995 125.442ZM311.187 124.354C311.848 124.354 312.381 124.162 312.787 123.778C313.203 123.383 313.411 122.861 313.411 122.21V121.522L311.395 121.666C310.872 121.709 310.472 121.842 310.195 122.066C309.928 122.29 309.795 122.605 309.795 123.01C309.795 123.415 309.923 123.741 310.179 123.986C310.445 124.231 310.781 124.354 311.187 124.354ZM321.315 125.442C320.664 125.442 320.088 125.277 319.587 124.946C319.085 124.615 318.744 124.178 318.563 123.634H318.467V125.25H317.251V113.65H318.531V118.802H318.627C318.829 118.322 319.165 117.927 319.635 117.618C320.104 117.309 320.664 117.154 321.315 117.154C322.019 117.154 322.632 117.33 323.155 117.682C323.677 118.034 324.083 118.525 324.371 119.154C324.669 119.773 324.819 120.482 324.819 121.282C324.819 122.082 324.669 122.797 324.371 123.426C324.083 124.045 323.677 124.535 323.155 124.898C322.632 125.261 322.019 125.442 321.315 125.442ZM320.995 124.29C321.464 124.29 321.885 124.183 322.259 123.97C322.643 123.746 322.947 123.41 323.171 122.962C323.395 122.514 323.507 121.959 323.507 121.298C323.507 120.626 323.395 120.071 323.171 119.634C322.947 119.186 322.643 118.855 322.259 118.642C321.885 118.418 321.464 118.306 320.995 118.306C320.547 118.306 320.136 118.418 319.763 118.642C319.389 118.855 319.091 119.186 318.867 119.634C318.643 120.071 318.531 120.626 318.531 121.298C318.531 121.959 318.643 122.514 318.867 122.962C319.091 123.41 319.389 123.746 319.763 123.97C320.136 124.183 320.547 124.29 320.995 124.29ZM329.964 125.442C329.206 125.442 328.545 125.277 327.98 124.946C327.425 124.615 326.993 124.141 326.684 123.522C326.374 122.893 326.22 122.151 326.22 121.298C326.22 120.626 326.305 120.034 326.476 119.522C326.657 118.999 326.908 118.567 327.228 118.226C327.558 117.874 327.942 117.607 328.38 117.426C328.828 117.245 329.318 117.154 329.852 117.154C330.385 117.154 330.87 117.239 331.308 117.41C331.756 117.581 332.14 117.837 332.46 118.178C332.79 118.509 333.046 118.93 333.228 119.442C333.409 119.943 333.5 120.53 333.5 121.202C333.5 121.287 333.494 121.373 333.484 121.458C333.484 121.543 333.478 121.613 333.468 121.666H327.5C327.51 122.157 327.628 122.605 327.852 123.01C328.076 123.415 328.374 123.741 328.748 123.986C329.132 124.221 329.558 124.338 330.028 124.338C330.593 124.338 331.062 124.226 331.436 124.002C331.809 123.778 332.118 123.506 332.364 123.186L333.132 123.97C332.801 124.418 332.38 124.775 331.868 125.042C331.356 125.309 330.721 125.442 329.964 125.442ZM329.852 118.21C329.35 118.21 328.929 118.327 328.588 118.562C328.246 118.797 327.985 119.095 327.804 119.458C327.633 119.821 327.542 120.199 327.532 120.594H332.156C332.145 120.199 332.049 119.821 331.868 119.458C331.697 119.095 331.441 118.797 331.1 118.562C330.769 118.327 330.353 118.21 329.852 118.21ZM335.563 125.25V113.65H336.843V125.25H335.563Z" fill="#242E30"/>
<g clip-path="url(#clip2_18560_8380)">
<path d="M80.864 154.25L84.126 145.15H85.68L88.956 154.25H87.682L86.968 152.248H82.782L82.068 154.25H80.864ZM84.826 146.144L83.132 151.24H86.618L84.91 146.144H84.826ZM92.3844 154.418C91.787 154.418 91.2737 154.315 90.8444 154.11C90.415 153.905 90.079 153.639 89.8364 153.312L90.5784 152.612C90.793 152.864 91.0404 153.069 91.3204 153.228C91.6097 153.387 91.969 153.466 92.3984 153.466C92.781 153.466 93.117 153.387 93.4064 153.228C93.6957 153.06 93.8404 152.803 93.8404 152.458C93.8404 152.187 93.7564 151.977 93.5884 151.828C93.4297 151.669 93.2197 151.543 92.9584 151.45C92.697 151.347 92.417 151.254 92.1184 151.17C91.773 151.067 91.4464 150.941 91.1384 150.792C90.8397 150.633 90.5924 150.428 90.3964 150.176C90.2097 149.915 90.1164 149.583 90.1164 149.182C90.1164 148.743 90.219 148.375 90.4244 148.076C90.639 147.777 90.9237 147.553 91.2784 147.404C91.6424 147.245 92.0484 147.166 92.4964 147.166C92.991 147.166 93.453 147.259 93.8824 147.446C94.3117 147.623 94.657 147.903 94.9184 148.286L94.1904 148.958C93.985 148.715 93.7424 148.515 93.4624 148.356C93.1917 148.197 92.8697 148.118 92.4964 148.118C92.179 148.118 91.885 148.197 91.6144 148.356C91.3437 148.505 91.2084 148.748 91.2084 149.084C91.2084 149.355 91.2877 149.569 91.4464 149.728C91.6144 149.877 91.829 149.999 92.0904 150.092C92.3517 150.185 92.6317 150.279 92.9304 150.372C93.2757 150.475 93.5977 150.605 93.8964 150.764C94.2044 150.913 94.4517 151.114 94.6384 151.366C94.8344 151.618 94.9324 151.949 94.9324 152.36C94.9324 152.836 94.8157 153.228 94.5824 153.536C94.349 153.835 94.0364 154.059 93.6444 154.208C93.2617 154.348 92.8417 154.418 92.3844 154.418ZM98.7418 154.418C98.1444 154.418 97.6311 154.315 97.2018 154.11C96.7724 153.905 96.4364 153.639 96.1938 153.312L96.9358 152.612C97.1504 152.864 97.3978 153.069 97.6778 153.228C97.9671 153.387 98.3264 153.466 98.7558 153.466C99.1384 153.466 99.4744 153.387 99.7638 153.228C100.053 153.06 100.198 152.803 100.198 152.458C100.198 152.187 100.114 151.977 99.9458 151.828C99.7871 151.669 99.5771 151.543 99.3158 151.45C99.0544 151.347 98.7744 151.254 98.4758 151.17C98.1304 151.067 97.8038 150.941 97.4958 150.792C97.1971 150.633 96.9498 150.428 96.7538 150.176C96.5671 149.915 96.4738 149.583 96.4738 149.182C96.4738 148.743 96.5764 148.375 96.7818 148.076C96.9964 147.777 97.2811 147.553 97.6358 147.404C97.9998 147.245 98.4058 147.166 98.8538 147.166C99.3484 147.166 99.8104 147.259 100.24 147.446C100.669 147.623 101.014 147.903 101.276 148.286L100.548 148.958C100.342 148.715 100.1 148.515 99.8198 148.356C99.5491 148.197 99.2271 148.118 98.8538 148.118C98.5364 148.118 98.2424 148.197 97.9718 148.356C97.7011 148.505 97.5658 148.748 97.5658 149.084C97.5658 149.355 97.6451 149.569 97.8038 149.728C97.9718 149.877 98.1864 149.999 98.4478 150.092C98.7091 150.185 98.9891 150.279 99.2878 150.372C99.6331 150.475 99.9551 150.605 100.254 150.764C100.562 150.913 100.809 151.114 100.996 151.366C101.192 151.618 101.29 151.949 101.29 152.36C101.29 152.836 101.173 153.228 100.94 153.536C100.706 153.835 100.394 154.059 100.002 154.208C99.6191 154.348 99.1991 154.418 98.7418 154.418ZM103.223 154.25V147.334H104.343V154.25H103.223ZM103.783 146.214C103.55 146.214 103.368 146.144 103.237 146.004C103.107 145.864 103.041 145.696 103.041 145.5C103.041 145.313 103.107 145.15 103.237 145.01C103.368 144.861 103.55 144.786 103.783 144.786C104.007 144.786 104.185 144.861 104.315 145.01C104.455 145.15 104.525 145.313 104.525 145.5C104.525 145.696 104.455 145.864 104.315 146.004C104.185 146.144 104.007 146.214 103.783 146.214ZM108.599 154.418C108.002 154.418 107.489 154.315 107.059 154.11C106.63 153.905 106.294 153.639 106.051 153.312L106.793 152.612C107.008 152.864 107.255 153.069 107.535 153.228C107.825 153.387 108.184 153.466 108.613 153.466C108.996 153.466 109.332 153.387 109.621 153.228C109.911 153.06 110.055 152.803 110.055 152.458C110.055 152.187 109.971 151.977 109.803 151.828C109.645 151.669 109.435 151.543 109.173 151.45C108.912 151.347 108.632 151.254 108.333 151.17C107.988 151.067 107.661 150.941 107.353 150.792C107.055 150.633 106.807 150.428 106.611 150.176C106.425 149.915 106.331 149.583 106.331 149.182C106.331 148.743 106.434 148.375 106.639 148.076C106.854 147.777 107.139 147.553 107.493 147.404C107.857 147.245 108.263 147.166 108.711 147.166C109.206 147.166 109.668 147.259 110.097 147.446C110.527 147.623 110.872 147.903 111.133 148.286L110.405 148.958C110.2 148.715 109.957 148.515 109.677 148.356C109.407 148.197 109.085 148.118 108.711 148.118C108.394 148.118 108.1 148.197 107.829 148.356C107.559 148.505 107.423 148.748 107.423 149.084C107.423 149.355 107.503 149.569 107.661 149.728C107.829 149.877 108.044 149.999 108.305 150.092C108.567 150.185 108.847 150.279 109.145 150.372C109.491 150.475 109.813 150.605 110.111 150.764C110.419 150.913 110.667 151.114 110.853 151.366C111.049 151.618 111.147 151.949 111.147 152.36C111.147 152.836 111.031 153.228 110.797 153.536C110.564 153.835 110.251 154.059 109.859 154.208C109.477 154.348 109.057 154.418 108.599 154.418ZM115.209 154.418C114.798 154.418 114.457 154.334 114.187 154.166C113.916 153.998 113.715 153.755 113.585 153.438C113.463 153.121 113.403 152.747 113.403 152.318V148.244H112.171V147.334H113.403V145.458H114.509V147.334H116.511V148.244H114.509V152.22C114.509 152.668 114.593 152.981 114.761 153.158C114.938 153.335 115.162 153.424 115.433 153.424C115.619 153.424 115.787 153.391 115.937 153.326C116.086 153.251 116.226 153.153 116.357 153.032L116.861 153.816C116.646 154.021 116.399 154.171 116.119 154.264C115.848 154.367 115.545 154.418 115.209 154.418ZM118.385 154.25V147.334H119.505V154.25H118.385ZM118.945 146.214C118.712 146.214 118.53 146.144 118.399 146.004C118.269 145.864 118.203 145.696 118.203 145.5C118.203 145.313 118.269 145.15 118.399 145.01C118.53 144.861 118.712 144.786 118.945 144.786C119.169 144.786 119.347 144.861 119.477 145.01C119.617 145.15 119.687 145.313 119.687 145.5C119.687 145.696 119.617 145.864 119.477 146.004C119.347 146.144 119.169 146.214 118.945 146.214ZM123.649 154.25L120.975 147.334H122.193L124.279 153.102H124.363L126.463 147.334H127.597L124.909 154.25H123.649ZM131.628 154.418C130.966 154.418 130.387 154.273 129.892 153.984C129.407 153.695 129.029 153.279 128.758 152.738C128.488 152.187 128.352 151.539 128.352 150.792C128.352 150.204 128.427 149.686 128.576 149.238C128.735 148.781 128.954 148.403 129.234 148.104C129.524 147.796 129.86 147.563 130.242 147.404C130.634 147.245 131.064 147.166 131.53 147.166C131.997 147.166 132.422 147.241 132.804 147.39C133.196 147.539 133.532 147.763 133.812 148.062C134.102 148.351 134.326 148.72 134.484 149.168C134.643 149.607 134.722 150.12 134.722 150.708C134.722 150.783 134.718 150.857 134.708 150.932C134.708 151.007 134.704 151.067 134.694 151.114H129.472C129.482 151.543 129.584 151.935 129.78 152.29C129.976 152.645 130.238 152.929 130.564 153.144C130.9 153.349 131.274 153.452 131.684 153.452C132.179 153.452 132.59 153.354 132.916 153.158C133.243 152.962 133.514 152.724 133.728 152.444L134.4 153.13C134.111 153.522 133.742 153.835 133.294 154.068C132.846 154.301 132.291 154.418 131.628 154.418ZM131.53 148.09C131.092 148.09 130.723 148.193 130.424 148.398C130.126 148.603 129.897 148.865 129.738 149.182C129.589 149.499 129.51 149.831 129.5 150.176H133.546C133.537 149.831 133.453 149.499 133.294 149.182C133.145 148.865 132.921 148.603 132.622 148.398C132.333 148.193 131.969 148.09 131.53 148.09ZM142.019 154.418C141.609 154.418 141.268 154.334 140.997 154.166C140.727 153.998 140.526 153.755 140.395 153.438C140.274 153.121 140.213 152.747 140.213 152.318V148.244H138.981V147.334H140.213V145.458H141.319V147.334H143.321V148.244H141.319V152.22C141.319 152.668 141.403 152.981 141.571 153.158C141.749 153.335 141.973 153.424 142.243 153.424C142.43 153.424 142.598 153.391 142.747 153.326C142.897 153.251 143.037 153.153 143.167 153.032L143.671 153.816C143.457 154.021 143.209 154.171 142.929 154.264C142.659 154.367 142.355 154.418 142.019 154.418ZM147.788 154.418C147.126 154.418 146.547 154.273 146.052 153.984C145.567 153.695 145.189 153.279 144.918 152.738C144.648 152.187 144.512 151.539 144.512 150.792C144.512 150.204 144.587 149.686 144.736 149.238C144.895 148.781 145.114 148.403 145.394 148.104C145.684 147.796 146.02 147.563 146.402 147.404C146.794 147.245 147.224 147.166 147.69 147.166C148.157 147.166 148.582 147.241 148.964 147.39C149.356 147.539 149.692 147.763 149.972 148.062C150.262 148.351 150.486 148.72 150.644 149.168C150.803 149.607 150.882 150.12 150.882 150.708C150.882 150.783 150.878 150.857 150.868 150.932C150.868 151.007 150.864 151.067 150.854 151.114H145.632C145.642 151.543 145.744 151.935 145.94 152.29C146.136 152.645 146.398 152.929 146.724 153.144C147.06 153.349 147.434 153.452 147.844 153.452C148.339 153.452 148.75 153.354 149.076 153.158C149.403 152.962 149.674 152.724 149.888 152.444L150.56 153.13C150.271 153.522 149.902 153.835 149.454 154.068C149.006 154.301 148.451 154.418 147.788 154.418ZM147.69 148.09C147.252 148.09 146.883 148.193 146.584 148.398C146.286 148.603 146.057 148.865 145.898 149.182C145.749 149.499 145.67 149.831 145.66 150.176H149.706C149.697 149.831 149.613 149.499 149.454 149.182C149.305 148.865 149.081 148.603 148.782 148.398C148.493 148.193 148.129 148.09 147.69 148.09ZM151.714 154.25L154.136 150.736L151.826 147.334H153.17L154.808 149.924H154.864L156.558 147.334H157.762L155.452 150.68L157.874 154.25H156.53L154.78 151.492H154.724L152.918 154.25H151.714ZM161.652 154.418C161.241 154.418 160.901 154.334 160.63 154.166C160.359 153.998 160.159 153.755 160.028 153.438C159.907 153.121 159.846 152.747 159.846 152.318V148.244H158.614V147.334H159.846V145.458H160.952V147.334H162.954V148.244H160.952V152.22C160.952 152.668 161.036 152.981 161.204 153.158C161.381 153.335 161.605 153.424 161.876 153.424C162.063 153.424 162.231 153.391 162.38 153.326C162.529 153.251 162.669 153.153 162.8 153.032L163.304 153.816C163.089 154.021 162.842 154.171 162.562 154.264C162.291 154.367 161.988 154.418 161.652 154.418Z" fill="#3C4C4F"/>
</g>
<circle cx="93" cy="12.75" r="12.5" fill="#2B2A28"/>
<path d="M89.9599 15.752H92.4099V10.11L90.2959 10.964L89.6939 9.648L92.9419 8.15H94.2719V15.752H96.4559V17.25H89.9599V15.752Z" fill="white" fill-opacity="0.9"/>
<rect x="92.5" y="25.25" width="1" height="56" rx="0.5" fill="#FF8000"/>
<circle cx="131.75" cy="12.5" r="12.5" fill="#2B2A28"/>
<path d="M131.384 17.168C130.656 17.168 130.045 17.0607 129.55 16.846C129.055 16.622 128.631 16.3187 128.276 15.936L129.298 14.802C129.522 15.054 129.802 15.2593 130.138 15.418C130.483 15.5767 130.866 15.656 131.286 15.656C131.79 15.656 132.196 15.544 132.504 15.32C132.812 15.096 132.966 14.7647 132.966 14.326C132.966 13.906 132.821 13.598 132.532 13.402C132.243 13.206 131.86 13.108 131.384 13.108H130.474V11.624H131.384C131.804 11.624 132.117 11.5167 132.322 11.302C132.527 11.078 132.63 10.7887 132.63 10.434C132.63 10.2193 132.593 10.0373 132.518 9.888C132.443 9.73867 132.341 9.61733 132.21 9.524C132.089 9.42133 131.944 9.35133 131.776 9.314C131.608 9.26733 131.435 9.244 131.258 9.244C130.875 9.244 130.525 9.31867 130.208 9.468C129.891 9.61733 129.625 9.81333 129.41 10.056L128.444 8.964C128.78 8.59067 129.186 8.292 129.662 8.068C130.138 7.844 130.726 7.732 131.426 7.732C131.883 7.732 132.303 7.79267 132.686 7.914C133.069 8.03533 133.395 8.208 133.666 8.432C133.937 8.64667 134.147 8.90333 134.296 9.202C134.445 9.50067 134.52 9.832 134.52 10.196C134.52 10.672 134.38 11.092 134.1 11.456C133.82 11.8107 133.414 12.0813 132.882 12.268V12.352C133.162 12.408 133.419 12.5013 133.652 12.632C133.895 12.7627 134.1 12.926 134.268 13.122C134.445 13.3087 134.585 13.5233 134.688 13.766C134.791 13.9993 134.842 14.256 134.842 14.536C134.842 14.9187 134.767 15.2733 134.618 15.6C134.469 15.9173 134.245 16.1927 133.946 16.426C133.657 16.6593 133.297 16.8413 132.868 16.972C132.439 17.1027 131.944 17.168 131.384 17.168Z" fill="white" fill-opacity="0.9"/>
<rect x="131.25" y="25" width="1" height="84" rx="0.5" fill="#FF8000"/>
<circle cx="12.5" cy="119.5" r="12.5" fill="#2B2A28"/>
<path d="M9.26387 122.53C9.26387 122.11 9.32453 121.741 9.44587 121.424C9.57653 121.107 9.75387 120.822 9.97787 120.57C10.2019 120.318 10.4679 120.089 10.7759 119.884C11.0839 119.679 11.4199 119.478 11.7839 119.282C12.1479 119.086 12.4512 118.918 12.6939 118.778C12.9459 118.629 13.1419 118.484 13.2819 118.344C13.4312 118.204 13.5339 118.064 13.5899 117.924C13.6552 117.775 13.6879 117.602 13.6879 117.406C13.6879 117.023 13.5479 116.743 13.2679 116.566C12.9879 116.389 12.6519 116.3 12.2599 116.3C11.8399 116.3 11.4525 116.379 11.0979 116.538C10.7525 116.687 10.4539 116.897 10.2019 117.168L9.26387 116.062C9.6092 115.67 10.0479 115.353 10.5799 115.11C11.1119 114.858 11.7232 114.732 12.4139 114.732C12.8805 114.732 13.3052 114.788 13.6879 114.9C14.0799 115.012 14.4112 115.18 14.6819 115.404C14.9619 115.619 15.1765 115.885 15.3259 116.202C15.4845 116.519 15.5639 116.883 15.5639 117.294C15.5639 117.695 15.5032 118.05 15.3819 118.358C15.2605 118.657 15.0832 118.937 14.8499 119.198C14.6165 119.45 14.3272 119.688 13.9819 119.912C13.6459 120.136 13.2585 120.365 12.8199 120.598C12.5212 120.766 12.2645 120.911 12.0499 121.032C11.8445 121.153 11.6719 121.275 11.5319 121.396C11.4012 121.517 11.3032 121.639 11.2379 121.76C11.1819 121.881 11.1539 122.026 11.1539 122.194V122.488H15.8019L15.8019 124H9.26387L9.26387 122.53Z" fill="white"/>
<rect x="25" y="119" width="56" height="1" rx="0.5" fill="#FF8000"/>
<circle cx="12.5" cy="145.25" r="12.5" fill="#2B2A28"/>
<path d="M13.1839 148.056H8.81587V146.726L12.5959 140.65H14.6259L10.9299 146.558H13.1839V144.304H15.0039V146.558H16.1519V148.056H15.0039L15.0039 149.75H13.1839L13.1839 148.056Z" fill="white"/>
<rect x="25" y="144.75" width="56" height="1" rx="0.5" fill="#FF8000"/>
<defs>
<clipPath id="clip0_18560_8380">
<rect width="34" height="20" fill="white" transform="translate(80.5 79.25)"/>
</clipPath>
<clipPath id="clip1_18560_8380">
<rect width="34" height="20" fill="white" transform="translate(80.5 79.25)"/>
</clipPath>
<clipPath id="clip2_18560_8380">
<rect width="258" height="24" fill="white" transform="translate(80.5 135.25)"/>
</clipPath>
</defs>
</svg>
