<svg width="461" height="104" viewBox="0 0 461 104" fill="none" xmlns="http://www.w3.org/2000/svg">
<g clip-path="url(#clip0_27620_9461)">
<g clip-path="url(#clip1_27620_9461)">
<path d="M1.022 15V5.9H2.898V13.474H6.524V15H1.022ZM9.67334 15.168C9.26268 15.168 8.88468 15.084 8.53934 14.916C8.19401 14.7387 7.91868 14.496 7.71334 14.188C7.51734 13.8707 7.41934 13.4927 7.41934 13.054C7.41934 12.6433 7.51734 12.2887 7.71334 11.99C7.90934 11.6913 8.20334 11.4533 8.59534 11.276C8.99668 11.0987 9.49134 10.996 10.0793 10.968L11.7033 10.87V10.59C11.7033 10.2913 11.638 10.058 11.5073 9.89C11.386 9.722 11.218 9.60067 11.0033 9.526C10.798 9.45133 10.56 9.414 10.2893 9.414C9.97201 9.414 9.67334 9.47467 9.39334 9.596C9.11334 9.708 8.90334 9.848 8.76334 10.016L7.76934 9.008C8.02134 8.69067 8.37601 8.42933 8.83334 8.224C9.29068 8.01867 9.85534 7.916 10.5273 7.916C11.1807 7.916 11.722 8.02333 12.1513 8.238C12.59 8.44333 12.9167 8.73733 13.1313 9.12C13.3553 9.49333 13.4673 9.94133 13.4673 10.464V15H11.8013V13.894H11.7173C11.54 14.2767 11.2833 14.5847 10.9473 14.818C10.6113 15.0513 10.1867 15.168 9.67334 15.168ZM10.1913 13.894C10.6393 13.894 11.0033 13.768 11.2833 13.516C11.5633 13.2547 11.7033 12.8907 11.7033 12.424V11.962L10.2893 12.074C9.92534 12.0927 9.65001 12.1813 9.46334 12.34C9.28601 12.4987 9.19734 12.718 9.19734 12.998C9.19734 13.278 9.29068 13.4973 9.47734 13.656C9.66401 13.8147 9.90201 13.894 10.1913 13.894ZM19.2154 15.168C18.6741 15.168 18.2028 15.0373 17.8014 14.776C17.4094 14.5053 17.1294 14.146 16.9614 13.698H16.8774V15H15.1974V4.85H16.9614V9.274H17.0454C17.2134 8.882 17.4794 8.56 17.8434 8.308C18.2168 8.04667 18.6741 7.916 19.2154 7.916C19.7941 7.916 20.3074 8.07467 20.7554 8.392C21.2034 8.7 21.5581 9.12933 21.8194 9.68C22.0808 10.2213 22.2114 10.8513 22.2114 11.57C22.2114 12.2793 22.0808 12.9047 21.8194 13.446C21.5581 13.978 21.2034 14.398 20.7554 14.706C20.3074 15.014 19.7941 15.168 19.2154 15.168ZM18.6694 13.628C19.0148 13.628 19.3181 13.544 19.5794 13.376C19.8408 13.208 20.0414 12.97 20.1814 12.662C20.3308 12.3447 20.4054 11.9713 20.4054 11.542C20.4054 11.1127 20.3308 10.744 20.1814 10.436C20.0414 10.1187 19.8408 9.876 19.5794 9.708C19.3181 9.54 19.0148 9.456 18.6694 9.456C18.3334 9.456 18.0348 9.54 17.7734 9.708C17.5214 9.876 17.3208 10.1187 17.1714 10.436C17.0314 10.744 16.9614 11.1127 16.9614 11.542C16.9614 11.9713 17.0314 12.3447 17.1714 12.662C17.3208 12.97 17.5214 13.208 17.7734 13.376C18.0348 13.544 18.3334 13.628 18.6694 13.628ZM26.588 15.168C25.8226 15.168 25.1786 15.0047 24.656 14.678C24.1426 14.3513 23.7553 13.9173 23.494 13.376C23.242 12.8253 23.116 12.214 23.116 11.542C23.116 11.0287 23.186 10.5527 23.326 10.114C23.466 9.666 23.6713 9.27867 23.942 8.952C24.222 8.62533 24.572 8.37333 24.992 8.196C25.412 8.00933 25.9066 7.916 26.476 7.916C27.036 7.916 27.5213 8.00467 27.932 8.182C28.352 8.35933 28.6973 8.61133 28.968 8.938C29.248 9.25533 29.4533 9.62867 29.584 10.058C29.724 10.4873 29.794 10.9587 29.794 11.472C29.794 11.5653 29.7846 11.6773 29.766 11.808C29.7566 11.9293 29.7426 12.0227 29.724 12.088H24.908C24.936 12.424 25.0386 12.7133 25.216 12.956C25.3933 13.1987 25.6126 13.3853 25.874 13.516C26.1353 13.6373 26.406 13.698 26.686 13.698C27.078 13.698 27.4093 13.628 27.68 13.488C27.96 13.348 28.184 13.1707 28.352 12.956L29.346 13.992C29.094 14.3373 28.73 14.622 28.254 14.846C27.7873 15.0607 27.232 15.168 26.588 15.168ZM26.476 9.26C26.1773 9.26 25.9113 9.33 25.678 9.47C25.454 9.60067 25.272 9.78267 25.132 10.016C25.0013 10.2493 24.922 10.5247 24.894 10.842H28.03C28.002 10.5247 27.918 10.2493 27.778 10.016C27.6473 9.78267 27.47 9.60067 27.246 9.47C27.022 9.33 26.7653 9.26 26.476 9.26ZM31.1662 15V4.85H32.9302V15H31.1662Z" fill="#242E30"/>
</g>
</g>
<mask id="mask0_27620_9461" style="mask-type:luminance" maskUnits="userSpaceOnUse" x="2" y="30" width="20" height="20">
<mask id="path-2-inside-1_27620_9461" fill="white">
<path fill-rule="evenodd" clip-rule="evenodd" d="M2 40C2 34.48 6.48 30 12 30C17.52 30 22 34.48 22 40C22 45.52 17.52 50 12 50C6.48 50 2 45.52 2 40ZM4 40C4 44.42 7.58 48 12 48C16.42 48 20 44.42 20 40C20 35.58 16.42 32 12 32C7.58 32 4 35.58 4 40Z"/>
</mask>
<path d="M12 30V29C5.92772 29 1 33.9277 1 40H2H3C3 35.0323 7.03228 31 12 31V30ZM22 40H23C23 33.9277 18.0723 29 12 29V30V31C16.9677 31 21 35.0323 21 40H22ZM12 50V51C18.0723 51 23 46.0723 23 40H22H21C21 44.9677 16.9677 49 12 49V50ZM2 40H1C1 46.0723 5.92772 51 12 51V50V49C7.03228 49 3 44.9677 3 40H2ZM12 48V47C8.13228 47 5 43.8677 5 40H4H3C3 44.9723 7.02772 49 12 49V48ZM20 40H19C19 43.8677 15.8677 47 12 47V48V49C16.9723 49 21 44.9723 21 40H20ZM12 32V33C15.8677 33 19 36.1323 19 40H20H21C21 35.0277 16.9723 31 12 31V32ZM4 40H5C5 36.1323 8.13228 33 12 33V32V31C7.02772 31 3 35.0277 3 40H4Z" fill="white" mask="url(#path-2-inside-1_27620_9461)"/>
</mask>
<g mask="url(#mask0_27620_9461)">
<rect y="28" width="24" height="24" fill="#8C867E"/>
</g>
<path d="M33.472 46V35.6H34.832V44.848H38.848V46H33.472ZM42.4946 46.192C42.0146 46.192 41.5826 46.0907 41.1986 45.888C40.8253 45.6853 40.532 45.4027 40.3186 45.04C40.1053 44.6773 39.9986 44.2613 39.9986 43.792C39.9986 43.3333 40.1053 42.9387 40.3186 42.608C40.5426 42.2667 40.868 41.9947 41.2946 41.792C41.7213 41.5893 42.2333 41.472 42.8306 41.44L44.9106 41.312V40.752C44.9106 40.3467 44.8413 40.0213 44.7026 39.776C44.5746 39.52 44.3826 39.3333 44.1266 39.216C43.8813 39.088 43.5773 39.024 43.2146 39.024C42.756 39.024 42.3613 39.1093 42.0306 39.28C41.7 39.4507 41.444 39.6373 41.2626 39.84L40.4946 39.072C40.772 38.7307 41.1506 38.4533 41.6306 38.24C42.1106 38.016 42.6493 37.904 43.2466 37.904C43.972 37.904 44.548 38.0267 44.9746 38.272C45.4013 38.5173 45.7053 38.848 45.8866 39.264C46.0786 39.6693 46.1746 40.1227 46.1746 40.624V46H44.9746V44.656H44.8786C44.676 45.1253 44.3773 45.4987 43.9826 45.776C43.588 46.0533 43.092 46.192 42.4946 46.192ZM42.6866 45.104C43.348 45.104 43.8813 44.912 44.2866 44.528C44.7026 44.1333 44.9106 43.6107 44.9106 42.96V42.272L42.8946 42.416C42.372 42.4587 41.972 42.592 41.6946 42.816C41.428 43.04 41.2946 43.3547 41.2946 43.76C41.2946 44.1653 41.4226 44.4907 41.6786 44.736C41.9453 44.9813 42.2813 45.104 42.6866 45.104ZM52.8146 46.192C52.164 46.192 51.588 46.0267 51.0866 45.696C50.5853 45.3653 50.244 44.928 50.0626 44.384H49.9666V46H48.7506V34.4H50.0306V39.552H50.1266C50.3293 39.072 50.6653 38.6773 51.1346 38.368C51.604 38.0587 52.164 37.904 52.8146 37.904C53.5186 37.904 54.132 38.08 54.6546 38.432C55.1773 38.784 55.5826 39.2747 55.8706 39.904C56.1693 40.5227 56.3186 41.232 56.3186 42.032C56.3186 42.832 56.1693 43.5467 55.8706 44.176C55.5826 44.7947 55.1773 45.2853 54.6546 45.648C54.132 46.0107 53.5186 46.192 52.8146 46.192ZM52.4946 45.04C52.964 45.04 53.3853 44.9333 53.7586 44.72C54.1426 44.496 54.4466 44.16 54.6706 43.712C54.8946 43.264 55.0066 42.7093 55.0066 42.048C55.0066 41.376 54.8946 40.8213 54.6706 40.384C54.4466 39.936 54.1426 39.6053 53.7586 39.392C53.3853 39.168 52.964 39.056 52.4946 39.056C52.0466 39.056 51.636 39.168 51.2626 39.392C50.8893 39.6053 50.5906 39.936 50.3666 40.384C50.1426 40.8213 50.0306 41.376 50.0306 42.048C50.0306 42.7093 50.1426 43.264 50.3666 43.712C50.5906 44.16 50.8893 44.496 51.2626 44.72C51.636 44.9333 52.0466 45.04 52.4946 45.04ZM61.4636 46.192C60.7063 46.192 60.045 46.0267 59.4796 45.696C58.925 45.3653 58.493 44.8907 58.1836 44.272C57.8743 43.6427 57.7196 42.9013 57.7196 42.048C57.7196 41.376 57.805 40.784 57.9756 40.272C58.157 39.7493 58.4076 39.3173 58.7276 38.976C59.0583 38.624 59.4423 38.3573 59.8796 38.176C60.3276 37.9947 60.8183 37.904 61.3516 37.904C61.885 37.904 62.3703 37.9893 62.8076 38.16C63.2556 38.3307 63.6396 38.5867 63.9596 38.928C64.2903 39.2587 64.5463 39.68 64.7276 40.192C64.909 40.6933 64.9996 41.28 64.9996 41.952C64.9996 42.0373 64.9943 42.1227 64.9836 42.208C64.9836 42.2933 64.9783 42.3627 64.9676 42.416H58.9996C59.0103 42.9067 59.1276 43.3547 59.3516 43.76C59.5756 44.1653 59.8743 44.4907 60.2476 44.736C60.6316 44.9707 61.0583 45.088 61.5276 45.088C62.093 45.088 62.5623 44.976 62.9356 44.752C63.309 44.528 63.6183 44.256 63.8636 43.936L64.6316 44.72C64.301 45.168 63.8796 45.5253 63.3676 45.792C62.8556 46.0587 62.221 46.192 61.4636 46.192ZM61.3516 38.96C60.8503 38.96 60.429 39.0773 60.0876 39.312C59.7463 39.5467 59.485 39.8453 59.3036 40.208C59.133 40.5707 59.0423 40.9493 59.0316 41.344H63.6556C63.645 40.9493 63.549 40.5707 63.3676 40.208C63.197 39.8453 62.941 39.5467 62.5996 39.312C62.269 39.0773 61.853 38.96 61.3516 38.96ZM67.0631 46V34.4H68.3431V46H67.0631ZM74.9069 46V34.4H76.1869V46H74.9069ZM82.0269 46.192C81.1842 46.192 80.4802 46.0053 79.9149 45.632C79.3602 45.2587 78.9442 44.7573 78.6669 44.128C78.3895 43.4987 78.2509 42.8053 78.2509 42.048C78.2509 41.472 78.3255 40.9333 78.4749 40.432C78.6349 39.9307 78.8695 39.4933 79.1789 39.12C79.4989 38.736 79.8935 38.4373 80.3629 38.224C80.8429 38.0107 81.3975 37.904 82.0269 37.904C82.8695 37.904 83.5629 38.0907 84.1069 38.464C84.6615 38.8373 85.0722 39.3387 85.3389 39.968C85.6162 40.5867 85.7549 41.28 85.7549 42.048C85.7549 42.624 85.6749 43.1627 85.5149 43.664C85.3655 44.1653 85.1362 44.608 84.8269 44.992C84.5175 45.3653 84.1282 45.6587 83.6589 45.872C83.2002 46.0853 82.6562 46.192 82.0269 46.192ZM79.5629 42.048C79.5629 42.656 79.6535 43.1947 79.8349 43.664C80.0162 44.1227 80.2882 44.4853 80.6509 44.752C81.0135 45.008 81.4722 45.136 82.0269 45.136C82.5709 45.136 83.0189 45.008 83.3709 44.752C83.7335 44.4853 84.0002 44.1227 84.1709 43.664C84.3522 43.1947 84.4429 42.656 84.4429 42.048C84.4429 41.44 84.3522 40.9067 84.1709 40.448C84.0002 39.9787 83.7335 39.616 83.3709 39.36C83.0189 39.0933 82.5709 38.96 82.0269 38.96C81.4722 38.96 81.0135 39.0933 80.6509 39.36C80.2882 39.616 80.0162 39.9787 79.8349 40.448C79.6535 40.9067 79.5629 41.44 79.5629 42.048ZM87.8131 46V38.096H89.0291V39.376H89.1251C89.2958 38.96 89.5411 38.6133 89.8611 38.336C90.1918 38.048 90.5918 37.904 91.0611 37.904C91.2531 37.904 91.4398 37.9253 91.6211 37.968C91.8131 38 91.9838 38.0587 92.1331 38.144L91.7011 39.296C91.5625 39.2213 91.4131 39.1733 91.2531 39.152C91.1038 39.12 90.9491 39.104 90.7891 39.104C90.2665 39.104 89.8505 39.3173 89.5411 39.744C89.2425 40.16 89.0931 40.6933 89.0931 41.344V46H87.8131ZM96.4793 46.192C95.7219 46.192 95.0606 46.0267 94.4953 45.696C93.9406 45.3653 93.5086 44.8907 93.1993 44.272C92.8899 43.6427 92.7353 42.9013 92.7353 42.048C92.7353 41.376 92.8206 40.784 92.9913 40.272C93.1726 39.7493 93.4233 39.3173 93.7433 38.976C94.0739 38.624 94.4579 38.3573 94.8953 38.176C95.3433 37.9947 95.8339 37.904 96.3673 37.904C96.9006 37.904 97.3859 37.9893 97.8233 38.16C98.2713 38.3307 98.6553 38.5867 98.9753 38.928C99.3059 39.2587 99.5619 39.68 99.7433 40.192C99.9246 40.6933 100.015 41.28 100.015 41.952C100.015 42.0373 100.01 42.1227 99.9993 42.208C99.9993 42.2933 99.9939 42.3627 99.9833 42.416H94.0153C94.0259 42.9067 94.1433 43.3547 94.3673 43.76C94.5913 44.1653 94.8899 44.4907 95.2633 44.736C95.6473 44.9707 96.0739 45.088 96.5433 45.088C97.1086 45.088 97.5779 44.976 97.9513 44.752C98.3246 44.528 98.6339 44.256 98.8793 43.936L99.6473 44.72C99.3166 45.168 98.8953 45.5253 98.3833 45.792C97.8713 46.0587 97.2366 46.192 96.4793 46.192ZM96.3673 38.96C95.8659 38.96 95.4446 39.0773 95.1033 39.312C94.7619 39.5467 94.5006 39.8453 94.3193 40.208C94.1486 40.5707 94.0579 40.9493 94.0473 41.344H98.6713C98.6606 40.9493 98.5646 40.5707 98.3833 40.208C98.2126 39.8453 97.9566 39.5467 97.6153 39.312C97.2846 39.0773 96.8686 38.96 96.3673 38.96ZM102.079 46V38.096H103.295V39.344H103.391C103.583 38.928 103.849 38.5867 104.191 38.32C104.543 38.0427 104.98 37.904 105.503 37.904C106.132 37.904 106.665 38.0213 107.103 38.256C107.54 38.48 107.86 38.8213 108.063 39.28C108.223 38.9813 108.415 38.7307 108.639 38.528C108.863 38.3253 109.129 38.1707 109.439 38.064C109.759 37.9573 110.116 37.904 110.511 37.904C111.097 37.904 111.604 38.0107 112.031 38.224C112.457 38.4267 112.788 38.752 113.023 39.2C113.257 39.648 113.375 40.2293 113.375 40.944V46H112.095V41.184C112.095 40.64 112.02 40.208 111.871 39.888C111.732 39.5573 111.524 39.3227 111.247 39.184C110.98 39.0347 110.644 38.96 110.239 38.96C109.652 38.96 109.193 39.168 108.863 39.584C108.532 40 108.367 40.608 108.367 41.408V46H107.087V41.184C107.087 40.64 107.017 40.208 106.879 39.888C106.74 39.5573 106.532 39.3227 106.255 39.184C105.977 39.0347 105.636 38.96 105.231 38.96C104.655 38.96 104.196 39.168 103.855 39.584C103.524 40 103.359 40.608 103.359 41.408V46H102.079ZM119.798 46V38.096H121.078V46H119.798ZM120.438 36.816C120.171 36.816 119.963 36.736 119.814 36.576C119.664 36.416 119.59 36.224 119.59 36C119.59 35.7867 119.664 35.6 119.814 35.44C119.963 35.2693 120.171 35.184 120.438 35.184C120.694 35.184 120.896 35.2693 121.046 35.44C121.206 35.6 121.286 35.7867 121.286 36C121.286 36.224 121.206 36.416 121.046 36.576C120.896 36.736 120.694 36.816 120.438 36.816ZM123.798 48.96V38.096H125.014V39.712H125.11C125.291 39.168 125.632 38.7307 126.134 38.4C126.635 38.0693 127.211 37.904 127.862 37.904C128.566 37.904 129.179 38.0853 129.702 38.448C130.224 38.8 130.63 39.2907 130.918 39.92C131.216 40.5493 131.366 41.264 131.366 42.064C131.366 42.864 131.216 43.5733 130.918 44.192C130.63 44.8107 130.224 45.3013 129.702 45.664C129.179 46.016 128.566 46.192 127.862 46.192C127.211 46.192 126.651 46.0373 126.182 45.728C125.712 45.4187 125.376 45.024 125.174 44.544H125.078V48.96H123.798ZM127.542 45.04C128.011 45.04 128.432 44.9333 128.806 44.72C129.19 44.496 129.494 44.16 129.718 43.712C129.942 43.264 130.054 42.7093 130.054 42.048C130.054 41.376 129.942 40.8213 129.718 40.384C129.494 39.936 129.19 39.6053 128.806 39.392C128.432 39.168 128.011 39.056 127.542 39.056C127.094 39.056 126.683 39.168 126.31 39.392C125.936 39.6053 125.638 39.936 125.414 40.384C125.19 40.8213 125.078 41.376 125.078 42.048C125.078 42.7093 125.19 43.264 125.414 43.712C125.638 44.16 125.936 44.496 126.31 44.72C126.683 44.9333 127.094 45.04 127.542 45.04ZM135.567 46.192C134.884 46.192 134.297 46.0747 133.807 45.84C133.316 45.6053 132.932 45.3013 132.655 44.928L133.503 44.128C133.748 44.416 134.031 44.6507 134.351 44.832C134.681 45.0133 135.092 45.104 135.583 45.104C136.02 45.104 136.404 45.0133 136.735 44.832C137.065 44.64 137.231 44.3467 137.231 43.952C137.231 43.6427 137.135 43.4027 136.943 43.232C136.761 43.0507 136.521 42.9067 136.223 42.8C135.924 42.6827 135.604 42.576 135.263 42.48C134.868 42.3627 134.495 42.2187 134.143 42.048C133.801 41.8667 133.519 41.632 133.295 41.344C133.081 41.0453 132.975 40.6667 132.975 40.208C132.975 39.7067 133.092 39.2853 133.327 38.944C133.572 38.6027 133.897 38.3467 134.303 38.176C134.719 37.9947 135.183 37.904 135.695 37.904C136.26 37.904 136.788 38.0107 137.279 38.224C137.769 38.4267 138.164 38.7467 138.463 39.184L137.631 39.952C137.396 39.6747 137.119 39.4453 136.799 39.264C136.489 39.0827 136.121 38.992 135.695 38.992C135.332 38.992 134.996 39.0827 134.687 39.264C134.377 39.4347 134.223 39.712 134.223 40.096C134.223 40.4053 134.313 40.6507 134.495 40.832C134.687 41.0027 134.932 41.1413 135.231 41.248C135.529 41.3547 135.849 41.4613 136.191 41.568C136.585 41.6853 136.953 41.8347 137.295 42.016C137.647 42.1867 137.929 42.416 138.143 42.704C138.367 42.992 138.479 43.3707 138.479 43.84C138.479 44.384 138.345 44.832 138.079 45.184C137.812 45.5253 137.455 45.7813 137.007 45.952C136.569 46.112 136.089 46.192 135.567 46.192ZM143.408 46.192C142.832 46.192 142.325 46.0907 141.888 45.888C141.461 45.6747 141.125 45.344 140.88 44.896C140.645 44.448 140.528 43.8667 140.528 43.152V38.096H141.808V42.912C141.808 43.4453 141.877 43.8773 142.016 44.208C142.165 44.5387 142.379 44.7787 142.656 44.928C142.933 45.0667 143.269 45.136 143.664 45.136C144.24 45.136 144.693 44.928 145.024 44.512C145.365 44.096 145.536 43.488 145.536 42.688V38.096H146.816V46H145.6V44.752H145.504C145.312 45.168 145.045 45.5147 144.704 45.792C144.373 46.0587 143.941 46.192 143.408 46.192ZM149.532 46V38.096H150.748V39.344H150.844C151.036 38.928 151.303 38.5867 151.644 38.32C151.996 38.0427 152.433 37.904 152.956 37.904C153.585 37.904 154.119 38.0213 154.556 38.256C154.993 38.48 155.313 38.8213 155.516 39.28C155.676 38.9813 155.868 38.7307 156.092 38.528C156.316 38.3253 156.583 38.1707 156.892 38.064C157.212 37.9573 157.569 37.904 157.964 37.904C158.551 37.904 159.057 38.0107 159.484 38.224C159.911 38.4267 160.241 38.752 160.476 39.2C160.711 39.648 160.828 40.2293 160.828 40.944V46H159.548V41.184C159.548 40.64 159.473 40.208 159.324 39.888C159.185 39.5573 158.977 39.3227 158.7 39.184C158.433 39.0347 158.097 38.96 157.692 38.96C157.105 38.96 156.647 39.168 156.316 39.584C155.985 40 155.82 40.608 155.82 41.408V46H154.54V41.184C154.54 40.64 154.471 40.208 154.332 39.888C154.193 39.5573 153.985 39.3227 153.708 39.184C153.431 39.0347 153.089 38.96 152.684 38.96C152.108 38.96 151.649 39.168 151.308 39.584C150.977 40 150.812 40.608 150.812 41.408V46H149.532ZM170.099 46.192C169.395 46.192 168.781 46.0107 168.259 45.648C167.736 45.2853 167.325 44.7947 167.027 44.176C166.739 43.5467 166.595 42.832 166.595 42.032C166.595 41.232 166.739 40.5227 167.027 39.904C167.325 39.2747 167.736 38.784 168.259 38.432C168.781 38.08 169.395 37.904 170.099 37.904C170.749 37.904 171.309 38.0587 171.779 38.368C172.248 38.6773 172.584 39.072 172.787 39.552H172.883V34.4H174.163V46H172.947V44.384H172.851C172.669 44.928 172.328 45.3653 171.827 45.696C171.325 46.0267 170.749 46.192 170.099 46.192ZM170.419 45.04C170.877 45.04 171.288 44.9333 171.651 44.72C172.024 44.496 172.323 44.16 172.547 43.712C172.771 43.264 172.883 42.7093 172.883 42.048C172.883 41.376 172.771 40.8213 172.547 40.384C172.323 39.936 172.024 39.6053 171.651 39.392C171.288 39.168 170.877 39.056 170.419 39.056C169.949 39.056 169.523 39.168 169.139 39.392C168.765 39.6053 168.467 39.936 168.243 40.384C168.019 40.8213 167.907 41.376 167.907 42.048C167.907 42.7093 168.019 43.264 168.243 43.712C168.467 44.16 168.765 44.496 169.139 44.72C169.523 44.9333 169.949 45.04 170.419 45.04ZM179.996 46.192C179.153 46.192 178.449 46.0053 177.884 45.632C177.329 45.2587 176.913 44.7573 176.636 44.128C176.358 43.4987 176.22 42.8053 176.22 42.048C176.22 41.472 176.294 40.9333 176.444 40.432C176.604 39.9307 176.838 39.4933 177.148 39.12C177.468 38.736 177.862 38.4373 178.332 38.224C178.812 38.0107 179.366 37.904 179.996 37.904C180.838 37.904 181.532 38.0907 182.076 38.464C182.63 38.8373 183.041 39.3387 183.308 39.968C183.585 40.5867 183.724 41.28 183.724 42.048C183.724 42.624 183.644 43.1627 183.484 43.664C183.334 44.1653 183.105 44.608 182.796 44.992C182.486 45.3653 182.097 45.6587 181.628 45.872C181.169 46.0853 180.625 46.192 179.996 46.192ZM177.532 42.048C177.532 42.656 177.622 43.1947 177.804 43.664C177.985 44.1227 178.257 44.4853 178.62 44.752C178.982 45.008 179.441 45.136 179.996 45.136C180.54 45.136 180.988 45.008 181.34 44.752C181.702 44.4853 181.969 44.1227 182.14 43.664C182.321 43.1947 182.412 42.656 182.412 42.048C182.412 41.44 182.321 40.9067 182.14 40.448C181.969 39.9787 181.702 39.616 181.34 39.36C180.988 39.0933 180.54 38.96 179.996 38.96C179.441 38.96 178.982 39.0933 178.62 39.36C178.257 39.616 177.985 39.9787 177.804 40.448C177.622 40.9067 177.532 41.44 177.532 42.048ZM185.782 46V34.4H187.062V46H185.782ZM192.902 46.192C192.059 46.192 191.355 46.0053 190.79 45.632C190.235 45.2587 189.819 44.7573 189.542 44.128C189.265 43.4987 189.126 42.8053 189.126 42.048C189.126 41.472 189.201 40.9333 189.35 40.432C189.51 39.9307 189.745 39.4933 190.054 39.12C190.374 38.736 190.769 38.4373 191.238 38.224C191.718 38.0107 192.273 37.904 192.902 37.904C193.745 37.904 194.438 38.0907 194.982 38.464C195.537 38.8373 195.947 39.3387 196.214 39.968C196.491 40.5867 196.63 41.28 196.63 42.048C196.63 42.624 196.55 43.1627 196.39 43.664C196.241 44.1653 196.011 44.608 195.702 44.992C195.393 45.3653 195.003 45.6587 194.534 45.872C194.075 46.0853 193.531 46.192 192.902 46.192ZM190.438 42.048C190.438 42.656 190.529 43.1947 190.71 43.664C190.891 44.1227 191.163 44.4853 191.526 44.752C191.889 45.008 192.347 45.136 192.902 45.136C193.446 45.136 193.894 45.008 194.246 44.752C194.609 44.4853 194.875 44.1227 195.046 43.664C195.227 43.1947 195.318 42.656 195.318 42.048C195.318 41.44 195.227 40.9067 195.046 40.448C194.875 39.9787 194.609 39.616 194.246 39.36C193.894 39.0933 193.446 38.96 192.902 38.96C192.347 38.96 191.889 39.0933 191.526 39.36C191.163 39.616 190.891 39.9787 190.71 40.448C190.529 40.9067 190.438 41.44 190.438 42.048ZM198.688 46V38.096H199.904V39.376H200C200.171 38.96 200.416 38.6133 200.736 38.336C201.067 38.048 201.467 37.904 201.936 37.904C202.128 37.904 202.315 37.9253 202.496 37.968C202.688 38 202.859 38.0587 203.008 38.144L202.576 39.296C202.437 39.2213 202.288 39.1733 202.128 39.152C201.979 39.12 201.824 39.104 201.664 39.104C201.141 39.104 200.725 39.3173 200.416 39.744C200.117 40.16 199.968 40.6933 199.968 41.344V46H198.688ZM210.645 46.192C209.962 46.192 209.375 46.0747 208.885 45.84C208.394 45.6053 208.01 45.3013 207.733 44.928L208.581 44.128C208.826 44.416 209.109 44.6507 209.429 44.832C209.759 45.0133 210.17 45.104 210.661 45.104C211.098 45.104 211.482 45.0133 211.813 44.832C212.143 44.64 212.309 44.3467 212.309 43.952C212.309 43.6427 212.213 43.4027 212.021 43.232C211.839 43.0507 211.599 42.9067 211.301 42.8C211.002 42.6827 210.682 42.576 210.341 42.48C209.946 42.3627 209.573 42.2187 209.221 42.048C208.879 41.8667 208.597 41.632 208.373 41.344C208.159 41.0453 208.053 40.6667 208.053 40.208C208.053 39.7067 208.17 39.2853 208.405 38.944C208.65 38.6027 208.975 38.3467 209.381 38.176C209.797 37.9947 210.261 37.904 210.773 37.904C211.338 37.904 211.866 38.0107 212.357 38.224C212.847 38.4267 213.242 38.7467 213.541 39.184L212.709 39.952C212.474 39.6747 212.197 39.4453 211.877 39.264C211.567 39.0827 211.199 38.992 210.773 38.992C210.41 38.992 210.074 39.0827 209.765 39.264C209.455 39.4347 209.301 39.712 209.301 40.096C209.301 40.4053 209.391 40.6507 209.573 40.832C209.765 41.0027 210.01 41.1413 210.309 41.248C210.607 41.3547 210.927 41.4613 211.269 41.568C211.663 41.6853 212.031 41.8347 212.373 42.016C212.725 42.1867 213.007 42.416 213.221 42.704C213.445 42.992 213.557 43.3707 213.557 43.84C213.557 44.384 213.423 44.832 213.157 45.184C212.89 45.5253 212.533 45.7813 212.085 45.952C211.647 46.112 211.167 46.192 210.645 46.192ZM215.766 46V38.096H217.046V46H215.766ZM216.406 36.816C216.14 36.816 215.932 36.736 215.782 36.576C215.633 36.416 215.558 36.224 215.558 36C215.558 35.7867 215.633 35.6 215.782 35.44C215.932 35.2693 216.14 35.184 216.406 35.184C216.662 35.184 216.865 35.2693 217.014 35.44C217.174 35.6 217.254 35.7867 217.254 36C217.254 36.224 217.174 36.416 217.014 36.576C216.865 36.736 216.662 36.816 216.406 36.816ZM222.198 46.192C221.729 46.192 221.34 46.096 221.03 45.904C220.721 45.712 220.492 45.4347 220.342 45.072C220.204 44.7093 220.134 44.2827 220.134 43.792V39.136H218.726V38.096H220.134V35.952H221.398V38.096H223.686V39.136H221.398V43.68C221.398 44.192 221.494 44.5493 221.686 44.752C221.889 44.9547 222.145 45.056 222.454 45.056C222.668 45.056 222.86 45.0187 223.03 44.944C223.201 44.8587 223.361 44.7467 223.51 44.608L224.086 45.504C223.841 45.7387 223.558 45.9093 223.238 46.016C222.929 46.1333 222.582 46.192 222.198 46.192ZM231.417 46.192C230.937 46.192 230.505 46.0907 230.121 45.888C229.747 45.6853 229.454 45.4027 229.241 45.04C229.027 44.6773 228.921 44.2613 228.921 43.792C228.921 43.3333 229.027 42.9387 229.241 42.608C229.465 42.2667 229.79 41.9947 230.217 41.792C230.643 41.5893 231.155 41.472 231.753 41.44L233.833 41.312V40.752C233.833 40.3467 233.763 40.0213 233.625 39.776C233.497 39.52 233.305 39.3333 233.049 39.216C232.803 39.088 232.499 39.024 232.137 39.024C231.678 39.024 231.283 39.1093 230.953 39.28C230.622 39.4507 230.366 39.6373 230.185 39.84L229.417 39.072C229.694 38.7307 230.073 38.4533 230.553 38.24C231.033 38.016 231.571 37.904 232.169 37.904C232.894 37.904 233.47 38.0267 233.897 38.272C234.323 38.5173 234.627 38.848 234.809 39.264C235.001 39.6693 235.097 40.1227 235.097 40.624V46H233.897V44.656H233.801C233.598 45.1253 233.299 45.4987 232.905 45.776C232.51 46.0533 232.014 46.192 231.417 46.192ZM231.609 45.104C232.27 45.104 232.803 44.912 233.209 44.528C233.625 44.1333 233.833 43.6107 233.833 42.96V42.272L231.817 42.416C231.294 42.4587 230.894 42.592 230.617 42.816C230.35 43.04 230.217 43.3547 230.217 43.76C230.217 44.1653 230.345 44.4907 230.601 44.736C230.867 44.9813 231.203 45.104 231.609 45.104ZM237.673 46V38.096H238.889V39.344H238.985C239.177 38.928 239.443 38.5867 239.785 38.32C240.137 38.0427 240.574 37.904 241.097 37.904C241.726 37.904 242.259 38.0213 242.697 38.256C243.134 38.48 243.454 38.8213 243.657 39.28C243.817 38.9813 244.009 38.7307 244.233 38.528C244.457 38.3253 244.723 38.1707 245.033 38.064C245.353 37.9573 245.71 37.904 246.105 37.904C246.691 37.904 247.198 38.0107 247.625 38.224C248.051 38.4267 248.382 38.752 248.617 39.2C248.851 39.648 248.969 40.2293 248.969 40.944V46H247.689V41.184C247.689 40.64 247.614 40.208 247.465 39.888C247.326 39.5573 247.118 39.3227 246.841 39.184C246.574 39.0347 246.238 38.96 245.833 38.96C245.246 38.96 244.787 39.168 244.457 39.584C244.126 40 243.961 40.608 243.961 41.408V46H242.681V41.184C242.681 40.64 242.611 40.208 242.473 39.888C242.334 39.5573 242.126 39.3227 241.849 39.184C241.571 39.0347 241.23 38.96 240.825 38.96C240.249 38.96 239.79 39.168 239.449 39.584C239.118 40 238.953 40.608 238.953 41.408V46H237.673ZM254.636 46.192C253.878 46.192 253.217 46.0267 252.652 45.696C252.097 45.3653 251.665 44.8907 251.356 44.272C251.046 43.6427 250.892 42.9013 250.892 42.048C250.892 41.376 250.977 40.784 251.148 40.272C251.329 39.7493 251.58 39.3173 251.9 38.976C252.23 38.624 252.614 38.3573 253.052 38.176C253.5 37.9947 253.99 37.904 254.524 37.904C255.057 37.904 255.542 37.9893 255.98 38.16C256.428 38.3307 256.812 38.5867 257.132 38.928C257.462 39.2587 257.718 39.68 257.9 40.192C258.081 40.6933 258.172 41.28 258.172 41.952C258.172 42.0373 258.166 42.1227 258.156 42.208C258.156 42.2933 258.15 42.3627 258.14 42.416H252.172C252.182 42.9067 252.3 43.3547 252.524 43.76C252.748 44.1653 253.046 44.4907 253.42 44.736C253.804 44.9707 254.23 45.088 254.7 45.088C255.265 45.088 255.734 44.976 256.108 44.752C256.481 44.528 256.79 44.256 257.036 43.936L257.804 44.72C257.473 45.168 257.052 45.5253 256.54 45.792C256.028 46.0587 255.393 46.192 254.636 46.192ZM254.524 38.96C254.022 38.96 253.601 39.0773 253.26 39.312C252.918 39.5467 252.657 39.8453 252.476 40.208C252.305 40.5707 252.214 40.9493 252.204 41.344H256.828C256.817 40.9493 256.721 40.5707 256.54 40.208C256.369 39.8453 256.113 39.5467 255.772 39.312C255.441 39.0773 255.025 38.96 254.524 38.96ZM262.667 46.192C262.198 46.192 261.808 46.096 261.499 45.904C261.19 45.712 260.96 45.4347 260.811 45.072C260.672 44.7093 260.603 44.2827 260.603 43.792V39.136H259.195V38.096H260.603V35.952H261.867V38.096H264.155V39.136H261.867V43.68C261.867 44.192 261.963 44.5493 262.155 44.752C262.358 44.9547 262.614 45.056 262.923 45.056C263.136 45.056 263.328 45.0187 263.499 44.944C263.67 44.8587 263.83 44.7467 263.979 44.608L264.555 45.504C264.31 45.7387 264.027 45.9093 263.707 46.016C263.398 46.1333 263.051 46.192 262.667 46.192ZM266.938 44.304C267.236 44.304 267.471 44.4107 267.642 44.624C267.812 44.8373 267.898 45.0933 267.898 45.392C267.898 45.7227 267.828 46.0427 267.69 46.352C267.551 46.672 267.354 46.976 267.098 47.264C266.842 47.5627 266.538 47.8453 266.186 48.112L265.69 47.584C265.903 47.3813 266.095 47.1573 266.266 46.912C266.436 46.6667 266.57 46.3947 266.666 46.096C266.452 46.0427 266.282 45.936 266.154 45.776C266.036 45.6053 265.978 45.4187 265.978 45.216C265.978 45.0453 266.015 44.896 266.09 44.768C266.175 44.6293 266.287 44.5173 266.426 44.432C266.575 44.3467 266.746 44.304 266.938 44.304ZM36.368 70.192C35.5147 70.192 34.816 69.9947 34.272 69.6C33.728 69.2053 33.328 68.6933 33.072 68.064C32.8267 67.424 32.704 66.752 32.704 66.048C32.704 65.3333 32.8267 64.6613 33.072 64.032C33.3173 63.4027 33.7067 62.8907 34.24 62.496C34.784 62.1013 35.4827 61.904 36.336 61.904C36.9973 61.904 37.5413 62.016 37.968 62.24C38.4053 62.464 38.7733 62.7627 39.072 63.136L38.272 63.888C38.016 63.6107 37.744 63.3973 37.456 63.248C37.1787 63.088 36.816 63.008 36.368 63.008C35.9093 63.008 35.4987 63.1307 35.136 63.376C34.784 63.6213 34.5067 63.9733 34.304 64.432C34.112 64.88 34.016 65.4187 34.016 66.048C34.016 66.9867 34.24 67.728 34.688 68.272C35.136 68.816 35.7067 69.088 36.4 69.088C36.8267 69.088 37.1947 69.0133 37.504 68.864C37.8133 68.704 38.1013 68.4747 38.368 68.176L39.136 68.944C38.8373 69.3173 38.4587 69.6213 38 69.856C37.552 70.08 37.008 70.192 36.368 70.192ZM43.9644 70.192C43.1217 70.192 42.4177 70.0053 41.8524 69.632C41.2977 69.2587 40.8817 68.7573 40.6044 68.128C40.327 67.4987 40.1884 66.8053 40.1884 66.048C40.1884 65.472 40.263 64.9333 40.4124 64.432C40.5724 63.9307 40.807 63.4933 41.1164 63.12C41.4364 62.736 41.831 62.4373 42.3004 62.224C42.7804 62.0107 43.335 61.904 43.9644 61.904C44.807 61.904 45.5004 62.0907 46.0444 62.464C46.599 62.8373 47.0097 63.3387 47.2764 63.968C47.5537 64.5867 47.6924 65.28 47.6924 66.048C47.6924 66.624 47.6124 67.1627 47.4524 67.664C47.303 68.1653 47.0737 68.608 46.7644 68.992C46.455 69.3653 46.0657 69.6587 45.5964 69.872C45.1377 70.0853 44.5937 70.192 43.9644 70.192ZM41.5004 66.048C41.5004 66.656 41.591 67.1947 41.7724 67.664C41.9537 68.1227 42.2257 68.4853 42.5884 68.752C42.951 69.008 43.4097 69.136 43.9644 69.136C44.5084 69.136 44.9564 69.008 45.3084 68.752C45.671 68.4853 45.9377 68.1227 46.1084 67.664C46.2897 67.1947 46.3804 66.656 46.3804 66.048C46.3804 65.44 46.2897 64.9067 46.1084 64.448C45.9377 63.9787 45.671 63.616 45.3084 63.36C44.9564 63.0933 44.5084 62.96 43.9644 62.96C43.4097 62.96 42.951 63.0933 42.5884 63.36C42.2257 63.616 41.9537 63.9787 41.7724 64.448C41.591 64.9067 41.5004 65.44 41.5004 66.048ZM49.7506 70V62.096H50.9666V63.344H51.0626C51.1906 63.0667 51.356 62.8213 51.5586 62.608C51.7613 62.384 52.0013 62.2133 52.2786 62.096C52.556 61.968 52.8706 61.904 53.2226 61.904C54.1293 61.904 54.844 62.144 55.3666 62.624C55.9 63.0933 56.1666 63.8667 56.1666 64.944V70H54.8866V65.184C54.8866 64.3733 54.7213 63.8027 54.3906 63.472C54.0706 63.1307 53.596 62.96 52.9666 62.96C52.3693 62.96 51.8946 63.168 51.5426 63.584C51.2013 64 51.0306 64.608 51.0306 65.408V70H49.7506ZM60.879 70.192C60.1963 70.192 59.6097 70.0747 59.119 69.84C58.6283 69.6053 58.2443 69.3013 57.967 68.928L58.815 68.128C59.0603 68.416 59.343 68.6507 59.663 68.832C59.9937 69.0133 60.4043 69.104 60.895 69.104C61.3323 69.104 61.7163 69.0133 62.047 68.832C62.3777 68.64 62.543 68.3467 62.543 67.952C62.543 67.6427 62.447 67.4027 62.255 67.232C62.0737 67.0507 61.8337 66.9067 61.535 66.8C61.2363 66.6827 60.9163 66.576 60.575 66.48C60.1803 66.3627 59.807 66.2187 59.455 66.048C59.1137 65.8667 58.831 65.632 58.607 65.344C58.3937 65.0453 58.287 64.6667 58.287 64.208C58.287 63.7067 58.4043 63.2853 58.639 62.944C58.8843 62.6027 59.2097 62.3467 59.615 62.176C60.031 61.9947 60.495 61.904 61.007 61.904C61.5723 61.904 62.1003 62.0107 62.591 62.224C63.0817 62.4267 63.4763 62.7467 63.775 63.184L62.943 63.952C62.7083 63.6747 62.431 63.4453 62.111 63.264C61.8017 63.0827 61.4337 62.992 61.007 62.992C60.6443 62.992 60.3083 63.0827 59.999 63.264C59.6897 63.4347 59.535 63.712 59.535 64.096C59.535 64.4053 59.6257 64.6507 59.807 64.832C59.999 65.0027 60.2443 65.1413 60.543 65.248C60.8417 65.3547 61.1617 65.4613 61.503 65.568C61.8977 65.6853 62.2657 65.8347 62.607 66.016C62.959 66.1867 63.2417 66.416 63.455 66.704C63.679 66.992 63.791 67.3707 63.791 67.84C63.791 68.384 63.6577 68.832 63.391 69.184C63.1243 69.5253 62.767 69.7813 62.319 69.952C61.8817 70.112 61.4017 70.192 60.879 70.192ZM69.0886 70.192C68.3313 70.192 67.67 70.0267 67.1046 69.696C66.55 69.3653 66.118 68.8907 65.8086 68.272C65.4993 67.6427 65.3446 66.9013 65.3446 66.048C65.3446 65.376 65.43 64.784 65.6006 64.272C65.782 63.7493 66.0326 63.3173 66.3526 62.976C66.6833 62.624 67.0673 62.3573 67.5046 62.176C67.9526 61.9947 68.4433 61.904 68.9766 61.904C69.51 61.904 69.9953 61.9893 70.4326 62.16C70.8806 62.3307 71.2646 62.5867 71.5846 62.928C71.9153 63.2587 72.1713 63.68 72.3526 64.192C72.534 64.6933 72.6246 65.28 72.6246 65.952C72.6246 66.0373 72.6193 66.1227 72.6086 66.208C72.6086 66.2933 72.6033 66.3627 72.5926 66.416H66.6246C66.6353 66.9067 66.7526 67.3547 66.9766 67.76C67.2006 68.1653 67.4993 68.4907 67.8726 68.736C68.2566 68.9707 68.6833 69.088 69.1526 69.088C69.718 69.088 70.1873 68.976 70.5606 68.752C70.934 68.528 71.2433 68.256 71.4886 67.936L72.2566 68.72C71.926 69.168 71.5046 69.5253 70.9926 69.792C70.4806 70.0587 69.846 70.192 69.0886 70.192ZM68.9766 62.96C68.4753 62.96 68.054 63.0773 67.7126 63.312C67.3713 63.5467 67.11 63.8453 66.9286 64.208C66.758 64.5707 66.6673 64.9493 66.6566 65.344H71.2806C71.27 64.9493 71.174 64.5707 70.9926 64.208C70.822 63.8453 70.566 63.5467 70.2246 63.312C69.894 63.0773 69.478 62.96 68.9766 62.96ZM77.6961 70.192C76.8428 70.192 76.1441 69.9947 75.6001 69.6C75.0561 69.2053 74.6561 68.6933 74.4001 68.064C74.1548 67.424 74.0321 66.752 74.0321 66.048C74.0321 65.3333 74.1548 64.6613 74.4001 64.032C74.6455 63.4027 75.0348 62.8907 75.5681 62.496C76.1121 62.1013 76.8108 61.904 77.6641 61.904C78.3255 61.904 78.8695 62.016 79.2961 62.24C79.7335 62.464 80.1015 62.7627 80.4001 63.136L79.6001 63.888C79.3441 63.6107 79.0721 63.3973 78.7841 63.248C78.5068 63.088 78.1441 63.008 77.6961 63.008C77.2375 63.008 76.8268 63.1307 76.4641 63.376C76.1121 63.6213 75.8348 63.9733 75.6321 64.432C75.4401 64.88 75.3441 65.4187 75.3441 66.048C75.3441 66.9867 75.5681 67.728 76.0161 68.272C76.4641 68.816 77.0348 69.088 77.7281 69.088C78.1548 69.088 78.5228 69.0133 78.8321 68.864C79.1415 68.704 79.4295 68.4747 79.6961 68.176L80.4641 68.944C80.1655 69.3173 79.7868 69.6213 79.3281 69.856C78.8801 70.08 78.3361 70.192 77.6961 70.192ZM84.7608 70.192C84.2914 70.192 83.9021 70.096 83.5928 69.904C83.2834 69.712 83.0541 69.4347 82.9048 69.072C82.7661 68.7093 82.6968 68.2827 82.6968 67.792V63.136H81.2888V62.096H82.6968V59.952H83.9608V62.096H86.2488V63.136H83.9608V67.68C83.9608 68.192 84.0568 68.5493 84.2488 68.752C84.4514 68.9547 84.7074 69.056 85.0168 69.056C85.2301 69.056 85.4221 69.0187 85.5928 68.944C85.7634 68.8587 85.9234 68.7467 86.0728 68.608L86.6488 69.504C86.4034 69.7387 86.1208 69.9093 85.8008 70.016C85.4914 70.1333 85.1448 70.192 84.7608 70.192ZM91.3543 70.192C90.5969 70.192 89.9356 70.0267 89.3703 69.696C88.8156 69.3653 88.3836 68.8907 88.0743 68.272C87.7649 67.6427 87.6103 66.9013 87.6103 66.048C87.6103 65.376 87.6956 64.784 87.8663 64.272C88.0476 63.7493 88.2983 63.3173 88.6183 62.976C88.9489 62.624 89.3329 62.3573 89.7703 62.176C90.2183 61.9947 90.7089 61.904 91.2423 61.904C91.7756 61.904 92.2609 61.9893 92.6983 62.16C93.1463 62.3307 93.5303 62.5867 93.8503 62.928C94.1809 63.2587 94.4369 63.68 94.6183 64.192C94.7996 64.6933 94.8903 65.28 94.8903 65.952C94.8903 66.0373 94.8849 66.1227 94.8743 66.208C94.8743 66.2933 94.8689 66.3627 94.8583 66.416H88.8903C88.9009 66.9067 89.0183 67.3547 89.2423 67.76C89.4663 68.1653 89.7649 68.4907 90.1383 68.736C90.5223 68.9707 90.9489 69.088 91.4183 69.088C91.9836 69.088 92.4529 68.976 92.8263 68.752C93.1996 68.528 93.5089 68.256 93.7543 67.936L94.5223 68.72C94.1916 69.168 93.7703 69.5253 93.2583 69.792C92.7463 70.0587 92.1116 70.192 91.3543 70.192ZM91.2423 62.96C90.7409 62.96 90.3196 63.0773 89.9783 63.312C89.6369 63.5467 89.3756 63.8453 89.1943 64.208C89.0236 64.5707 88.9329 64.9493 88.9223 65.344H93.5463C93.5356 64.9493 93.4396 64.5707 93.2583 64.208C93.0876 63.8453 92.8316 63.5467 92.4903 63.312C92.1596 63.0773 91.7436 62.96 91.2423 62.96ZM99.3858 70.192C98.9164 70.192 98.5271 70.096 98.2178 69.904C97.9084 69.712 97.6791 69.4347 97.5298 69.072C97.3911 68.7093 97.3218 68.2827 97.3218 67.792V63.136H95.9138V62.096H97.3218V59.952H98.5858V62.096H100.874V63.136H98.5858V67.68C98.5858 68.192 98.6818 68.5493 98.8738 68.752C99.0764 68.9547 99.3324 69.056 99.6418 69.056C99.8551 69.056 100.047 69.0187 100.218 68.944C100.388 68.8587 100.548 68.7467 100.698 68.608L101.274 69.504C101.028 69.7387 100.746 69.9093 100.426 70.016C100.116 70.1333 99.7698 70.192 99.3858 70.192ZM105.736 70.192C105.16 70.192 104.654 70.0907 104.216 69.888C103.79 69.6747 103.454 69.344 103.208 68.896C102.974 68.448 102.856 67.8667 102.856 67.152V62.096H104.136V66.912C104.136 67.4453 104.206 67.8773 104.344 68.208C104.494 68.5387 104.707 68.7787 104.984 68.928C105.262 69.0667 105.598 69.136 105.992 69.136C106.568 69.136 107.022 68.928 107.352 68.512C107.694 68.096 107.864 67.488 107.864 66.688V62.096H109.144V70H107.928V68.752H107.832C107.64 69.168 107.374 69.5147 107.032 69.792C106.702 70.0587 106.27 70.192 105.736 70.192ZM111.86 70V62.096H113.076V63.376H113.172C113.343 62.96 113.588 62.6133 113.908 62.336C114.239 62.048 114.639 61.904 115.108 61.904C115.3 61.904 115.487 61.9253 115.668 61.968C115.86 62 116.031 62.0587 116.18 62.144L115.748 63.296C115.609 63.2213 115.46 63.1733 115.3 63.152C115.151 63.12 114.996 63.104 114.836 63.104C114.313 63.104 113.897 63.3173 113.588 63.744C113.289 64.16 113.14 64.6933 113.14 65.344V70H111.86ZM123.417 70.192C122.937 70.192 122.505 70.0907 122.121 69.888C121.747 69.6853 121.454 69.4027 121.241 69.04C121.027 68.6773 120.921 68.2613 120.921 67.792C120.921 67.3333 121.027 66.9387 121.241 66.608C121.465 66.2667 121.79 65.9947 122.217 65.792C122.643 65.5893 123.155 65.472 123.753 65.44L125.833 65.312V64.752C125.833 64.3467 125.763 64.0213 125.625 63.776C125.497 63.52 125.305 63.3333 125.049 63.216C124.803 63.088 124.499 63.024 124.137 63.024C123.678 63.024 123.283 63.1093 122.953 63.28C122.622 63.4507 122.366 63.6373 122.185 63.84L121.417 63.072C121.694 62.7307 122.073 62.4533 122.553 62.24C123.033 62.016 123.571 61.904 124.169 61.904C124.894 61.904 125.47 62.0267 125.897 62.272C126.323 62.5173 126.627 62.848 126.809 63.264C127.001 63.6693 127.097 64.1227 127.097 64.624V70H125.897V68.656H125.801C125.598 69.1253 125.299 69.4987 124.905 69.776C124.51 70.0533 124.014 70.192 123.417 70.192ZM123.609 69.104C124.27 69.104 124.803 68.912 125.209 68.528C125.625 68.1333 125.833 67.6107 125.833 66.96V66.272L123.817 66.416C123.294 66.4587 122.894 66.592 122.617 66.816C122.35 67.04 122.217 67.3547 122.217 67.76C122.217 68.1653 122.345 68.4907 122.601 68.736C122.867 68.9813 123.203 69.104 123.609 69.104ZM132.521 70.192C131.817 70.192 131.203 70.0107 130.681 69.648C130.158 69.2853 129.747 68.7947 129.449 68.176C129.161 67.5467 129.017 66.832 129.017 66.032C129.017 65.232 129.161 64.5227 129.449 63.904C129.747 63.2747 130.158 62.784 130.681 62.432C131.203 62.08 131.817 61.904 132.521 61.904C133.171 61.904 133.731 62.0587 134.201 62.368C134.67 62.6773 135.006 63.072 135.209 63.552H135.305V58.4H136.585V70H135.369V68.384H135.273C135.091 68.928 134.75 69.3653 134.249 69.696C133.747 70.0267 133.171 70.192 132.521 70.192ZM132.841 69.04C133.299 69.04 133.71 68.9333 134.073 68.72C134.446 68.496 134.745 68.16 134.969 67.712C135.193 67.264 135.305 66.7093 135.305 66.048C135.305 65.376 135.193 64.8213 134.969 64.384C134.745 63.936 134.446 63.6053 134.073 63.392C133.71 63.168 133.299 63.056 132.841 63.056C132.371 63.056 131.945 63.168 131.561 63.392C131.187 63.6053 130.889 63.936 130.664 64.384C130.441 64.8213 130.329 65.376 130.329 66.048C130.329 66.7093 130.441 67.264 130.664 67.712C130.889 68.16 131.187 68.496 131.561 68.72C131.945 68.9333 132.371 69.04 132.841 69.04ZM139.298 70V62.096H140.578V70H139.298ZM139.938 60.816C139.671 60.816 139.463 60.736 139.314 60.576C139.164 60.416 139.09 60.224 139.09 60C139.09 59.7867 139.164 59.6 139.314 59.44C139.463 59.2693 139.671 59.184 139.938 59.184C140.194 59.184 140.396 59.2693 140.546 59.44C140.706 59.6 140.786 59.7867 140.786 60C140.786 60.224 140.706 60.416 140.546 60.576C140.396 60.736 140.194 60.816 139.938 60.816ZM143.298 72.96V62.096H144.514V63.712H144.61C144.791 63.168 145.132 62.7307 145.634 62.4C146.135 62.0693 146.711 61.904 147.362 61.904C148.066 61.904 148.679 62.0853 149.202 62.448C149.724 62.8 150.13 63.2907 150.418 63.92C150.716 64.5493 150.866 65.264 150.866 66.064C150.866 66.864 150.716 67.5733 150.418 68.192C150.13 68.8107 149.724 69.3013 149.202 69.664C148.679 70.016 148.066 70.192 147.362 70.192C146.711 70.192 146.151 70.0373 145.682 69.728C145.212 69.4187 144.876 69.024 144.674 68.544H144.578V72.96H143.298ZM147.042 69.04C147.511 69.04 147.932 68.9333 148.306 68.72C148.69 68.496 148.994 68.16 149.218 67.712C149.442 67.264 149.554 66.7093 149.554 66.048C149.554 65.376 149.442 64.8213 149.218 64.384C148.994 63.936 148.69 63.6053 148.306 63.392C147.932 63.168 147.511 63.056 147.042 63.056C146.594 63.056 146.183 63.168 145.81 63.392C145.436 63.6053 145.138 63.936 144.914 64.384C144.69 64.8213 144.578 65.376 144.578 66.048C144.578 66.7093 144.69 67.264 144.914 67.712C145.138 68.16 145.436 68.496 145.81 68.72C146.183 68.9333 146.594 69.04 147.042 69.04ZM152.923 70V62.096H154.203V70H152.923ZM153.562 60.816C153.296 60.816 153.088 60.736 152.939 60.576C152.789 60.416 152.715 60.224 152.715 60C152.715 59.7867 152.789 59.6 152.939 59.44C153.088 59.2693 153.296 59.184 153.562 59.184C153.819 59.184 154.021 59.2693 154.171 59.44C154.331 59.6 154.411 59.7867 154.411 60C154.411 60.224 154.331 60.416 154.171 60.576C154.021 60.736 153.819 60.816 153.562 60.816ZM159.067 70.192C158.384 70.192 157.797 70.0747 157.307 69.84C156.816 69.6053 156.432 69.3013 156.155 68.928L157.003 68.128C157.248 68.416 157.531 68.6507 157.851 68.832C158.181 69.0133 158.592 69.104 159.083 69.104C159.52 69.104 159.904 69.0133 160.235 68.832C160.565 68.64 160.731 68.3467 160.731 67.952C160.731 67.6427 160.635 67.4027 160.443 67.232C160.261 67.0507 160.021 66.9067 159.723 66.8C159.424 66.6827 159.104 66.576 158.763 66.48C158.368 66.3627 157.995 66.2187 157.643 66.048C157.301 65.8667 157.019 65.632 156.795 65.344C156.581 65.0453 156.475 64.6667 156.475 64.208C156.475 63.7067 156.592 63.2853 156.827 62.944C157.072 62.6027 157.397 62.3467 157.803 62.176C158.219 61.9947 158.683 61.904 159.195 61.904C159.76 61.904 160.288 62.0107 160.779 62.224C161.269 62.4267 161.664 62.7467 161.963 63.184L161.131 63.952C160.896 63.6747 160.619 63.4453 160.299 63.264C159.989 63.0827 159.621 62.992 159.195 62.992C158.832 62.992 158.496 63.0827 158.187 63.264C157.877 63.4347 157.723 63.712 157.723 64.096C157.723 64.4053 157.813 64.6507 157.995 64.832C158.187 65.0027 158.432 65.1413 158.731 65.248C159.029 65.3547 159.349 65.4613 159.691 65.568C160.085 65.6853 160.453 65.8347 160.795 66.016C161.147 66.1867 161.429 66.416 161.643 66.704C161.867 66.992 161.979 67.3707 161.979 67.84C161.979 68.384 161.845 68.832 161.579 69.184C161.312 69.5253 160.955 69.7813 160.507 69.952C160.069 70.112 159.589 70.192 159.067 70.192ZM167.196 70.192C166.343 70.192 165.644 69.9947 165.1 69.6C164.556 69.2053 164.156 68.6933 163.9 68.064C163.655 67.424 163.532 66.752 163.532 66.048C163.532 65.3333 163.655 64.6613 163.9 64.032C164.145 63.4027 164.535 62.8907 165.068 62.496C165.612 62.1013 166.311 61.904 167.164 61.904C167.825 61.904 168.369 62.016 168.796 62.24C169.233 62.464 169.601 62.7627 169.9 63.136L169.1 63.888C168.844 63.6107 168.572 63.3973 168.284 63.248C168.007 63.088 167.644 63.008 167.196 63.008C166.737 63.008 166.327 63.1307 165.964 63.376C165.612 63.6213 165.335 63.9733 165.132 64.432C164.94 64.88 164.844 65.4187 164.844 66.048C164.844 66.9867 165.068 67.728 165.516 68.272C165.964 68.816 166.535 69.088 167.228 69.088C167.655 69.088 168.023 69.0133 168.332 68.864C168.641 68.704 168.929 68.4747 169.196 68.176L169.964 68.944C169.665 69.3173 169.287 69.6213 168.828 69.856C168.38 70.08 167.836 70.192 167.196 70.192ZM171.829 70V62.096H173.109V70H171.829ZM172.469 60.816C172.202 60.816 171.994 60.736 171.845 60.576C171.695 60.416 171.621 60.224 171.621 60C171.621 59.7867 171.695 59.6 171.845 59.44C171.994 59.2693 172.202 59.184 172.469 59.184C172.725 59.184 172.927 59.2693 173.077 59.44C173.237 59.6 173.317 59.7867 173.317 60C173.317 60.224 173.237 60.416 173.077 60.576C172.927 60.736 172.725 60.816 172.469 60.816ZM175.829 70V62.096H177.045V63.344H177.141C177.269 63.0667 177.434 62.8213 177.637 62.608C177.839 62.384 178.079 62.2133 178.357 62.096C178.634 61.968 178.949 61.904 179.301 61.904C180.207 61.904 180.922 62.144 181.445 62.624C181.978 63.0933 182.245 63.8667 182.245 64.944V70H180.965V65.184C180.965 64.3733 180.799 63.8027 180.469 63.472C180.149 63.1307 179.674 62.96 179.045 62.96C178.447 62.96 177.973 63.168 177.621 63.584C177.279 64 177.109 64.608 177.109 65.408V70H175.829ZM187.965 73.152C187.282 73.152 186.69 73.0293 186.189 72.784C185.688 72.5493 185.288 72.256 184.989 71.904L185.837 71.088C186.061 71.3547 186.354 71.5733 186.717 71.744C187.08 71.9147 187.474 72 187.901 72C188.36 72 188.749 71.9253 189.069 71.776C189.4 71.6373 189.65 71.4027 189.821 71.072C190.002 70.752 190.093 70.3147 190.093 69.76V68.224H189.997C189.837 68.7467 189.522 69.1627 189.053 69.472C188.594 69.7707 188.093 69.92 187.549 69.92C186.888 69.92 186.301 69.76 185.789 69.44C185.277 69.12 184.877 68.6613 184.589 68.064C184.301 67.456 184.157 66.7307 184.157 65.888C184.157 65.0667 184.301 64.3573 184.589 63.76C184.877 63.1627 185.277 62.704 185.789 62.384C186.301 62.064 186.888 61.904 187.549 61.904C188.136 61.904 188.658 62.0587 189.117 62.368C189.586 62.6667 189.901 63.0827 190.061 63.616H190.157V62.096H191.373V69.92C191.373 70.56 191.24 71.12 190.973 71.6C190.717 72.0907 190.333 72.4693 189.821 72.736C189.32 73.0133 188.701 73.152 187.965 73.152ZM187.805 68.768C188.274 68.768 188.68 68.656 189.021 68.432C189.362 68.208 189.624 67.8827 189.805 67.456C189.997 67.0293 190.093 66.512 190.093 65.904C190.093 65.2853 189.997 64.768 189.805 64.352C189.624 63.9253 189.362 63.6053 189.021 63.392C188.68 63.168 188.274 63.056 187.805 63.056C187.336 63.056 186.925 63.168 186.573 63.392C186.221 63.6053 185.949 63.9253 185.757 64.352C185.565 64.768 185.469 65.2853 185.469 65.904C185.469 66.512 185.565 67.0293 185.757 67.456C185.949 67.8827 186.221 68.208 186.573 68.432C186.925 68.656 187.336 68.768 187.805 68.768ZM201.026 70.192C200.269 70.192 199.607 70.0267 199.042 69.696C198.487 69.3653 198.055 68.8907 197.746 68.272C197.437 67.6427 197.282 66.9013 197.282 66.048C197.282 65.376 197.367 64.784 197.538 64.272C197.719 63.7493 197.97 63.3173 198.29 62.976C198.621 62.624 199.005 62.3573 199.442 62.176C199.89 61.9947 200.381 61.904 200.914 61.904C201.447 61.904 201.933 61.9893 202.37 62.16C202.818 62.3307 203.202 62.5867 203.522 62.928C203.853 63.2587 204.109 63.68 204.29 64.192C204.471 64.6933 204.562 65.28 204.562 65.952C204.562 66.0373 204.557 66.1227 204.546 66.208C204.546 66.2933 204.541 66.3627 204.53 66.416H198.562C198.573 66.9067 198.69 67.3547 198.914 67.76C199.138 68.1653 199.437 68.4907 199.81 68.736C200.194 68.9707 200.621 69.088 201.09 69.088C201.655 69.088 202.125 68.976 202.498 68.752C202.871 68.528 203.181 68.256 203.426 67.936L204.194 68.72C203.863 69.168 203.442 69.5253 202.93 69.792C202.418 70.0587 201.783 70.192 201.026 70.192ZM200.914 62.96C200.413 62.96 199.991 63.0773 199.65 63.312C199.309 63.5467 199.047 63.8453 198.866 64.208C198.695 64.5707 198.605 64.9493 198.594 65.344H203.218C203.207 64.9493 203.111 64.5707 202.93 64.208C202.759 63.8453 202.503 63.5467 202.162 63.312C201.831 63.0773 201.415 62.96 200.914 62.96ZM206.626 70V58.4H207.906V70H206.626ZM210.626 70V62.096H211.906V70H210.626ZM211.266 60.816C210.999 60.816 210.791 60.736 210.642 60.576C210.492 60.416 210.418 60.224 210.418 60C210.418 59.7867 210.492 59.6 210.642 59.44C210.791 59.2693 210.999 59.184 211.266 59.184C211.522 59.184 211.724 59.2693 211.874 59.44C212.034 59.6 212.114 59.7867 212.114 60C212.114 60.224 212.034 60.416 211.874 60.576C211.724 60.736 211.522 60.816 211.266 60.816ZM217.058 70.192C216.588 70.192 216.199 70.096 215.89 69.904C215.58 69.712 215.351 69.4347 215.202 69.072C215.063 68.7093 214.994 68.2827 214.994 67.792V63.136H213.586V62.096H214.994V59.952H216.258V62.096H218.546V63.136H216.258V67.68C216.258 68.192 216.354 68.5493 216.546 68.752C216.748 68.9547 217.004 69.056 217.314 69.056C217.527 69.056 217.719 69.0187 217.89 68.944C218.06 68.8587 218.22 68.7467 218.37 68.608L218.946 69.504C218.7 69.7387 218.418 69.9093 218.098 70.016C217.788 70.1333 217.442 70.192 217.058 70.192ZM221.328 70.192C221.029 70.192 220.795 70.096 220.624 69.904C220.453 69.712 220.368 69.4933 220.368 69.248C220.368 69.0773 220.405 68.9227 220.48 68.784C220.565 68.6347 220.677 68.5173 220.816 68.432C220.965 68.3467 221.136 68.304 221.328 68.304C221.637 68.304 221.872 68.4 222.032 68.592C222.203 68.7733 222.288 68.992 222.288 69.248C222.288 69.4187 222.251 69.5733 222.176 69.712C222.101 69.8507 221.989 69.9627 221.84 70.048C221.701 70.144 221.531 70.192 221.328 70.192Z" fill="#242E30"/>
<mask id="mask1_27620_9461" style="mask-type:luminance" maskUnits="userSpaceOnUse" x="299" y="30" width="20" height="20">
<mask id="path-6-inside-2_27620_9461" fill="white">
<path fill-rule="evenodd" clip-rule="evenodd" d="M299 40C299 34.48 303.48 30 309 30C314.52 30 319 34.48 319 40C319 45.52 314.52 50 309 50C303.48 50 299 45.52 299 40ZM301 40C301 44.42 304.58 48 309 48C313.42 48 317 44.42 317 40C317 35.58 313.42 32 309 32C304.58 32 301 35.58 301 40Z"/>
</mask>
<path d="M309 30V29C302.928 29 298 33.9277 298 40H299H300C300 35.0323 304.032 31 309 31V30ZM319 40H320C320 33.9277 315.072 29 309 29V30V31C313.968 31 318 35.0323 318 40H319ZM309 50V51C315.072 51 320 46.0723 320 40H319H318C318 44.9677 313.968 49 309 49V50ZM299 40H298C298 46.0723 302.928 51 309 51V50V49C304.032 49 300 44.9677 300 40H299ZM309 48V47C305.132 47 302 43.8677 302 40H301H300C300 44.9723 304.028 49 309 49V48ZM317 40H316C316 43.8677 312.868 47 309 47V48V49C313.972 49 318 44.9723 318 40H317ZM309 32V33C312.868 33 316 36.1323 316 40H317H318C318 35.0277 313.972 31 309 31V32ZM301 40H302C302 36.1323 305.132 33 309 33V32V31C304.028 31 300 35.0277 300 40H301Z" fill="white" mask="url(#path-6-inside-2_27620_9461)"/>
</mask>
<g mask="url(#mask1_27620_9461)">
<rect x="297" y="28" width="24" height="24" fill="#8C867E"/>
</g>
<path d="M330.472 46V35.6H331.832V44.848H335.848V46H330.472ZM339.495 46.192C339.015 46.192 338.583 46.0907 338.199 45.888C337.825 45.6853 337.532 45.4027 337.319 45.04C337.105 44.6773 336.999 44.2613 336.999 43.792C336.999 43.3333 337.105 42.9387 337.319 42.608C337.543 42.2667 337.868 41.9947 338.295 41.792C338.721 41.5893 339.233 41.472 339.831 41.44L341.911 41.312V40.752C341.911 40.3467 341.841 40.0213 341.703 39.776C341.575 39.52 341.383 39.3333 341.127 39.216C340.881 39.088 340.577 39.024 340.215 39.024C339.756 39.024 339.361 39.1093 339.031 39.28C338.7 39.4507 338.444 39.6373 338.263 39.84L337.495 39.072C337.772 38.7307 338.151 38.4533 338.631 38.24C339.111 38.016 339.649 37.904 340.247 37.904C340.972 37.904 341.548 38.0267 341.975 38.272C342.401 38.5173 342.705 38.848 342.887 39.264C343.079 39.6693 343.175 40.1227 343.175 40.624V46H341.975V44.656H341.879C341.676 45.1253 341.377 45.4987 340.983 45.776C340.588 46.0533 340.092 46.192 339.495 46.192ZM339.687 45.104C340.348 45.104 340.881 44.912 341.287 44.528C341.703 44.1333 341.911 43.6107 341.911 42.96V42.272L339.895 42.416C339.372 42.4587 338.972 42.592 338.695 42.816C338.428 43.04 338.295 43.3547 338.295 43.76C338.295 44.1653 338.423 44.4907 338.679 44.736C338.945 44.9813 339.281 45.104 339.687 45.104ZM349.815 46.192C349.164 46.192 348.588 46.0267 348.087 45.696C347.585 45.3653 347.244 44.928 347.063 44.384H346.967V46H345.751V34.4H347.031V39.552H347.127C347.329 39.072 347.665 38.6773 348.135 38.368C348.604 38.0587 349.164 37.904 349.815 37.904C350.519 37.904 351.132 38.08 351.655 38.432C352.177 38.784 352.583 39.2747 352.871 39.904C353.169 40.5227 353.319 41.232 353.319 42.032C353.319 42.832 353.169 43.5467 352.871 44.176C352.583 44.7947 352.177 45.2853 351.655 45.648C351.132 46.0107 350.519 46.192 349.815 46.192ZM349.495 45.04C349.964 45.04 350.385 44.9333 350.759 44.72C351.143 44.496 351.447 44.16 351.671 43.712C351.895 43.264 352.007 42.7093 352.007 42.048C352.007 41.376 351.895 40.8213 351.671 40.384C351.447 39.936 351.143 39.6053 350.759 39.392C350.385 39.168 349.964 39.056 349.495 39.056C349.047 39.056 348.636 39.168 348.263 39.392C347.889 39.6053 347.591 39.936 347.367 40.384C347.143 40.8213 347.031 41.376 347.031 42.048C347.031 42.7093 347.143 43.264 347.367 43.712C347.591 44.16 347.889 44.496 348.263 44.72C348.636 44.9333 349.047 45.04 349.495 45.04ZM358.464 46.192C357.706 46.192 357.045 46.0267 356.48 45.696C355.925 45.3653 355.493 44.8907 355.184 44.272C354.874 43.6427 354.72 42.9013 354.72 42.048C354.72 41.376 354.805 40.784 354.976 40.272C355.157 39.7493 355.408 39.3173 355.728 38.976C356.058 38.624 356.442 38.3573 356.88 38.176C357.328 37.9947 357.818 37.904 358.352 37.904C358.885 37.904 359.37 37.9893 359.808 38.16C360.256 38.3307 360.64 38.5867 360.96 38.928C361.29 39.2587 361.546 39.68 361.728 40.192C361.909 40.6933 362 41.28 362 41.952C362 42.0373 361.994 42.1227 361.984 42.208C361.984 42.2933 361.978 42.3627 361.968 42.416H356C356.01 42.9067 356.128 43.3547 356.352 43.76C356.576 44.1653 356.874 44.4907 357.248 44.736C357.632 44.9707 358.058 45.088 358.528 45.088C359.093 45.088 359.562 44.976 359.936 44.752C360.309 44.528 360.618 44.256 360.864 43.936L361.632 44.72C361.301 45.168 360.88 45.5253 360.368 45.792C359.856 46.0587 359.221 46.192 358.464 46.192ZM358.352 38.96C357.85 38.96 357.429 39.0773 357.088 39.312C356.746 39.5467 356.485 39.8453 356.304 40.208C356.133 40.5707 356.042 40.9493 356.032 41.344H360.656C360.645 40.9493 360.549 40.5707 360.368 40.208C360.197 39.8453 359.941 39.5467 359.6 39.312C359.269 39.0773 358.853 38.96 358.352 38.96ZM364.063 46V34.4H365.343V46H364.063Z" fill="#242E30"/>
<mask id="mask2_27620_9461" style="mask-type:luminance" maskUnits="userSpaceOnUse" x="393" y="30" width="20" height="20">
<mask id="path-10-inside-3_27620_9461" fill="white">
<path fill-rule="evenodd" clip-rule="evenodd" d="M393 40C393 34.48 397.48 30 403 30C408.52 30 413 34.48 413 40C413 45.52 408.52 50 403 50C397.48 50 393 45.52 393 40ZM395 40C395 44.42 398.58 48 403 48C407.42 48 411 44.42 411 40C411 35.58 407.42 32 403 32C398.58 32 395 35.58 395 40Z"/>
</mask>
<path d="M403 30V29C396.928 29 392 33.9277 392 40H393H394C394 35.0323 398.032 31 403 31V30ZM413 40H414C414 33.9277 409.072 29 403 29V30V31C407.968 31 412 35.0323 412 40H413ZM403 50V51C409.072 51 414 46.0723 414 40H413H412C412 44.9677 407.968 49 403 49V50ZM393 40H392C392 46.0723 396.928 51 403 51V50V49C398.032 49 394 44.9677 394 40H393ZM403 48V47C399.132 47 396 43.8677 396 40H395H394C394 44.9723 398.028 49 403 49V48ZM411 40H410C410 43.8677 406.868 47 403 47V48V49C407.972 49 412 44.9723 412 40H411ZM403 32V33C406.868 33 410 36.1323 410 40H411H412C412 35.0277 407.972 31 403 31V32ZM395 40H396C396 36.1323 399.132 33 403 33V32V31C398.028 31 394 35.0277 394 40H395Z" fill="white" mask="url(#path-10-inside-3_27620_9461)"/>
</mask>
<g mask="url(#mask2_27620_9461)">
<rect x="391" y="28" width="24" height="24" fill="#8C867E"/>
</g>
<path d="M424.472 46V35.6H425.832V44.848H429.848V46H424.472ZM433.495 46.192C433.015 46.192 432.583 46.0907 432.199 45.888C431.825 45.6853 431.532 45.4027 431.319 45.04C431.105 44.6773 430.999 44.2613 430.999 43.792C430.999 43.3333 431.105 42.9387 431.319 42.608C431.543 42.2667 431.868 41.9947 432.295 41.792C432.721 41.5893 433.233 41.472 433.831 41.44L435.911 41.312V40.752C435.911 40.3467 435.841 40.0213 435.703 39.776C435.575 39.52 435.383 39.3333 435.127 39.216C434.881 39.088 434.577 39.024 434.215 39.024C433.756 39.024 433.361 39.1093 433.031 39.28C432.7 39.4507 432.444 39.6373 432.263 39.84L431.495 39.072C431.772 38.7307 432.151 38.4533 432.631 38.24C433.111 38.016 433.649 37.904 434.247 37.904C434.972 37.904 435.548 38.0267 435.975 38.272C436.401 38.5173 436.705 38.848 436.887 39.264C437.079 39.6693 437.175 40.1227 437.175 40.624V46H435.975V44.656H435.879C435.676 45.1253 435.377 45.4987 434.983 45.776C434.588 46.0533 434.092 46.192 433.495 46.192ZM433.687 45.104C434.348 45.104 434.881 44.912 435.287 44.528C435.703 44.1333 435.911 43.6107 435.911 42.96V42.272L433.895 42.416C433.372 42.4587 432.972 42.592 432.695 42.816C432.428 43.04 432.295 43.3547 432.295 43.76C432.295 44.1653 432.423 44.4907 432.679 44.736C432.945 44.9813 433.281 45.104 433.687 45.104ZM443.815 46.192C443.164 46.192 442.588 46.0267 442.087 45.696C441.585 45.3653 441.244 44.928 441.063 44.384H440.967V46H439.751V34.4H441.031V39.552H441.127C441.329 39.072 441.665 38.6773 442.135 38.368C442.604 38.0587 443.164 37.904 443.815 37.904C444.519 37.904 445.132 38.08 445.655 38.432C446.177 38.784 446.583 39.2747 446.871 39.904C447.169 40.5227 447.319 41.232 447.319 42.032C447.319 42.832 447.169 43.5467 446.871 44.176C446.583 44.7947 446.177 45.2853 445.655 45.648C445.132 46.0107 444.519 46.192 443.815 46.192ZM443.495 45.04C443.964 45.04 444.385 44.9333 444.759 44.72C445.143 44.496 445.447 44.16 445.671 43.712C445.895 43.264 446.007 42.7093 446.007 42.048C446.007 41.376 445.895 40.8213 445.671 40.384C445.447 39.936 445.143 39.6053 444.759 39.392C444.385 39.168 443.964 39.056 443.495 39.056C443.047 39.056 442.636 39.168 442.263 39.392C441.889 39.6053 441.591 39.936 441.367 40.384C441.143 40.8213 441.031 41.376 441.031 42.048C441.031 42.7093 441.143 43.264 441.367 43.712C441.591 44.16 441.889 44.496 442.263 44.72C442.636 44.9333 443.047 45.04 443.495 45.04ZM452.464 46.192C451.706 46.192 451.045 46.0267 450.48 45.696C449.925 45.3653 449.493 44.8907 449.184 44.272C448.874 43.6427 448.72 42.9013 448.72 42.048C448.72 41.376 448.805 40.784 448.976 40.272C449.157 39.7493 449.408 39.3173 449.728 38.976C450.058 38.624 450.442 38.3573 450.88 38.176C451.328 37.9947 451.818 37.904 452.352 37.904C452.885 37.904 453.37 37.9893 453.808 38.16C454.256 38.3307 454.64 38.5867 454.96 38.928C455.29 39.2587 455.546 39.68 455.728 40.192C455.909 40.6933 456 41.28 456 41.952C456 42.0373 455.994 42.1227 455.984 42.208C455.984 42.2933 455.978 42.3627 455.968 42.416H450C450.01 42.9067 450.128 43.3547 450.352 43.76C450.576 44.1653 450.874 44.4907 451.248 44.736C451.632 44.9707 452.058 45.088 452.528 45.088C453.093 45.088 453.562 44.976 453.936 44.752C454.309 44.528 454.618 44.256 454.864 43.936L455.632 44.72C455.301 45.168 454.88 45.5253 454.368 45.792C453.856 46.0587 453.221 46.192 452.464 46.192ZM452.352 38.96C451.85 38.96 451.429 39.0773 451.088 39.312C450.746 39.5467 450.485 39.8453 450.304 40.208C450.133 40.5707 450.042 40.9493 450.032 41.344H454.656C454.645 40.9493 454.549 40.5707 454.368 40.208C454.197 39.8453 453.941 39.5467 453.6 39.312C453.269 39.0773 452.853 38.96 452.352 38.96ZM458.063 46V34.4H459.343V46H458.063Z" fill="#242E30"/>
<mask id="mask3_27620_9461" style="mask-type:luminance" maskUnits="userSpaceOnUse" x="2" y="82" width="20" height="20">
<mask id="path-14-inside-4_27620_9461" fill="white">
<path fill-rule="evenodd" clip-rule="evenodd" d="M2 92C2 86.48 6.48 82 12 82C17.52 82 22 86.48 22 92C22 97.52 17.52 102 12 102C6.48 102 2 97.52 2 92ZM4 92C4 96.42 7.58 100 12 100C16.42 100 20 96.42 20 92C20 87.58 16.42 84 12 84C7.58 84 4 87.58 4 92Z"/>
</mask>
<path d="M12 82V81C5.92772 81 1 85.9277 1 92H2H3C3 87.0323 7.03228 83 12 83V82ZM22 92H23C23 85.9277 18.0723 81 12 81V82V83C16.9677 83 21 87.0323 21 92H22ZM12 102V103C18.0723 103 23 98.0723 23 92H22H21C21 96.9677 16.9677 101 12 101V102ZM2 92H1C1 98.0723 5.92772 103 12 103V102V101C7.03228 101 3 96.9677 3 92H2ZM12 100V99C8.13228 99 5 95.8677 5 92H4H3C3 96.9723 7.02772 101 12 101V100ZM20 92H19C19 95.8677 15.8677 99 12 99V100V101C16.9723 101 21 96.9723 21 92H20ZM12 84V85C15.8677 85 19 88.1323 19 92H20H21C21 87.0277 16.9723 83 12 83V84ZM4 92H5C5 88.1323 8.13228 85 12 85V84V83C7.02772 83 3 87.0277 3 92H4Z" fill="white" mask="url(#path-14-inside-4_27620_9461)"/>
</mask>
<g mask="url(#mask3_27620_9461)">
<rect y="80" width="24" height="24" fill="#8C867E"/>
</g>
<path d="M33.472 98V87.6H34.832V96.848H38.848V98H33.472ZM42.4946 98.192C42.0146 98.192 41.5826 98.0907 41.1986 97.888C40.8253 97.6853 40.532 97.4027 40.3186 97.04C40.1053 96.6773 39.9986 96.2613 39.9986 95.792C39.9986 95.3333 40.1053 94.9387 40.3186 94.608C40.5426 94.2667 40.868 93.9947 41.2946 93.792C41.7213 93.5893 42.2333 93.472 42.8306 93.44L44.9106 93.312V92.752C44.9106 92.3467 44.8413 92.0213 44.7026 91.776C44.5746 91.52 44.3826 91.3333 44.1266 91.216C43.8813 91.088 43.5773 91.024 43.2146 91.024C42.756 91.024 42.3613 91.1093 42.0306 91.28C41.7 91.4507 41.444 91.6373 41.2626 91.84L40.4946 91.072C40.772 90.7307 41.1506 90.4533 41.6306 90.24C42.1106 90.016 42.6493 89.904 43.2466 89.904C43.972 89.904 44.548 90.0267 44.9746 90.272C45.4013 90.5173 45.7053 90.848 45.8866 91.264C46.0786 91.6693 46.1746 92.1227 46.1746 92.624V98H44.9746V96.656H44.8786C44.676 97.1253 44.3773 97.4987 43.9826 97.776C43.588 98.0533 43.092 98.192 42.4946 98.192ZM42.6866 97.104C43.348 97.104 43.8813 96.912 44.2866 96.528C44.7026 96.1333 44.9106 95.6107 44.9106 94.96V94.272L42.8946 94.416C42.372 94.4587 41.972 94.592 41.6946 94.816C41.428 95.04 41.2946 95.3547 41.2946 95.76C41.2946 96.1653 41.4226 96.4907 41.6786 96.736C41.9453 96.9813 42.2813 97.104 42.6866 97.104ZM52.8146 98.192C52.164 98.192 51.588 98.0267 51.0866 97.696C50.5853 97.3653 50.244 96.928 50.0626 96.384H49.9666V98H48.7506V86.4H50.0306V91.552H50.1266C50.3293 91.072 50.6653 90.6773 51.1346 90.368C51.604 90.0587 52.164 89.904 52.8146 89.904C53.5186 89.904 54.132 90.08 54.6546 90.432C55.1773 90.784 55.5826 91.2747 55.8706 91.904C56.1693 92.5227 56.3186 93.232 56.3186 94.032C56.3186 94.832 56.1693 95.5467 55.8706 96.176C55.5826 96.7947 55.1773 97.2853 54.6546 97.648C54.132 98.0107 53.5186 98.192 52.8146 98.192ZM52.4946 97.04C52.964 97.04 53.3853 96.9333 53.7586 96.72C54.1426 96.496 54.4466 96.16 54.6706 95.712C54.8946 95.264 55.0066 94.7093 55.0066 94.048C55.0066 93.376 54.8946 92.8213 54.6706 92.384C54.4466 91.936 54.1426 91.6053 53.7586 91.392C53.3853 91.168 52.964 91.056 52.4946 91.056C52.0466 91.056 51.636 91.168 51.2626 91.392C50.8893 91.6053 50.5906 91.936 50.3666 92.384C50.1426 92.8213 50.0306 93.376 50.0306 94.048C50.0306 94.7093 50.1426 95.264 50.3666 95.712C50.5906 96.16 50.8893 96.496 51.2626 96.72C51.636 96.9333 52.0466 97.04 52.4946 97.04ZM61.4636 98.192C60.7063 98.192 60.045 98.0267 59.4796 97.696C58.925 97.3653 58.493 96.8907 58.1836 96.272C57.8743 95.6427 57.7196 94.9013 57.7196 94.048C57.7196 93.376 57.805 92.784 57.9756 92.272C58.157 91.7493 58.4076 91.3173 58.7276 90.976C59.0583 90.624 59.4423 90.3573 59.8796 90.176C60.3276 89.9947 60.8183 89.904 61.3516 89.904C61.885 89.904 62.3703 89.9893 62.8076 90.16C63.2556 90.3307 63.6396 90.5867 63.9596 90.928C64.2903 91.2587 64.5463 91.68 64.7276 92.192C64.909 92.6933 64.9996 93.28 64.9996 93.952C64.9996 94.0373 64.9943 94.1227 64.9836 94.208C64.9836 94.2933 64.9783 94.3627 64.9676 94.416H58.9996C59.0103 94.9067 59.1276 95.3547 59.3516 95.76C59.5756 96.1653 59.8743 96.4907 60.2476 96.736C60.6316 96.9707 61.0583 97.088 61.5276 97.088C62.093 97.088 62.5623 96.976 62.9356 96.752C63.309 96.528 63.6183 96.256 63.8636 95.936L64.6316 96.72C64.301 97.168 63.8796 97.5253 63.3676 97.792C62.8556 98.0587 62.221 98.192 61.4636 98.192ZM61.3516 90.96C60.8503 90.96 60.429 91.0773 60.0876 91.312C59.7463 91.5467 59.485 91.8453 59.3036 92.208C59.133 92.5707 59.0423 92.9493 59.0316 93.344H63.6556C63.645 92.9493 63.549 92.5707 63.3676 92.208C63.197 91.8453 62.941 91.5467 62.5996 91.312C62.269 91.0773 61.853 90.96 61.3516 90.96ZM67.0631 98V86.4H68.3431V98H67.0631Z" fill="#242E30"/>
<mask id="mask4_27620_9461" style="mask-type:luminance" maskUnits="userSpaceOnUse" x="96" y="82" width="20" height="20">
<mask id="path-18-inside-5_27620_9461" fill="white">
<path fill-rule="evenodd" clip-rule="evenodd" d="M96 92C96 86.48 100.48 82 106 82C111.52 82 116 86.48 116 92C116 97.52 111.52 102 106 102C100.48 102 96 97.52 96 92ZM98 92C98 96.42 101.58 100 106 100C110.42 100 114 96.42 114 92C114 87.58 110.42 84 106 84C101.58 84 98 87.58 98 92Z"/>
</mask>
<path d="M106 82V81C99.9277 81 95 85.9277 95 92H96H97C97 87.0323 101.032 83 106 83V82ZM116 92H117C117 85.9277 112.072 81 106 81V82V83C110.968 83 115 87.0323 115 92H116ZM106 102V103C112.072 103 117 98.0723 117 92H116H115C115 96.9677 110.968 101 106 101V102ZM96 92H95C95 98.0723 99.9277 103 106 103V102V101C101.032 101 97 96.9677 97 92H96ZM106 100V99C102.132 99 99 95.8677 99 92H98H97C97 96.9723 101.028 101 106 101V100ZM114 92H113C113 95.8677 109.868 99 106 99V100V101C110.972 101 115 96.9723 115 92H114ZM106 84V85C109.868 85 113 88.1323 113 92H114H115C115 87.0277 110.972 83 106 83V84ZM98 92H99C99 88.1323 102.132 85 106 85V84V83C101.028 83 97 87.0277 97 92H98Z" fill="white" mask="url(#path-18-inside-5_27620_9461)"/>
</mask>
<g mask="url(#mask4_27620_9461)">
<rect x="94" y="80" width="24" height="24" fill="#8C867E"/>
</g>
<path d="M127.472 98V87.6H128.832V96.848H132.848V98H127.472ZM136.495 98.192C136.015 98.192 135.583 98.0907 135.199 97.888C134.825 97.6853 134.532 97.4027 134.319 97.04C134.105 96.6773 133.999 96.2613 133.999 95.792C133.999 95.3333 134.105 94.9387 134.319 94.608C134.543 94.2667 134.868 93.9947 135.295 93.792C135.721 93.5893 136.233 93.472 136.831 93.44L138.911 93.312V92.752C138.911 92.3467 138.841 92.0213 138.703 91.776C138.575 91.52 138.383 91.3333 138.127 91.216C137.881 91.088 137.577 91.024 137.215 91.024C136.756 91.024 136.361 91.1093 136.031 91.28C135.7 91.4507 135.444 91.6373 135.263 91.84L134.495 91.072C134.772 90.7307 135.151 90.4533 135.631 90.24C136.111 90.016 136.649 89.904 137.247 89.904C137.972 89.904 138.548 90.0267 138.975 90.272C139.401 90.5173 139.705 90.848 139.887 91.264C140.079 91.6693 140.175 92.1227 140.175 92.624V98H138.975V96.656H138.879C138.676 97.1253 138.377 97.4987 137.983 97.776C137.588 98.0533 137.092 98.192 136.495 98.192ZM136.687 97.104C137.348 97.104 137.881 96.912 138.287 96.528C138.703 96.1333 138.911 95.6107 138.911 94.96V94.272L136.895 94.416C136.372 94.4587 135.972 94.592 135.695 94.816C135.428 95.04 135.295 95.3547 135.295 95.76C135.295 96.1653 135.423 96.4907 135.679 96.736C135.945 96.9813 136.281 97.104 136.687 97.104ZM146.815 98.192C146.164 98.192 145.588 98.0267 145.087 97.696C144.585 97.3653 144.244 96.928 144.063 96.384H143.967V98H142.751V86.4H144.031V91.552H144.127C144.329 91.072 144.665 90.6773 145.135 90.368C145.604 90.0587 146.164 89.904 146.815 89.904C147.519 89.904 148.132 90.08 148.655 90.432C149.177 90.784 149.583 91.2747 149.871 91.904C150.169 92.5227 150.319 93.232 150.319 94.032C150.319 94.832 150.169 95.5467 149.871 96.176C149.583 96.7947 149.177 97.2853 148.655 97.648C148.132 98.0107 147.519 98.192 146.815 98.192ZM146.495 97.04C146.964 97.04 147.385 96.9333 147.759 96.72C148.143 96.496 148.447 96.16 148.671 95.712C148.895 95.264 149.007 94.7093 149.007 94.048C149.007 93.376 148.895 92.8213 148.671 92.384C148.447 91.936 148.143 91.6053 147.759 91.392C147.385 91.168 146.964 91.056 146.495 91.056C146.047 91.056 145.636 91.168 145.263 91.392C144.889 91.6053 144.591 91.936 144.367 92.384C144.143 92.8213 144.031 93.376 144.031 94.048C144.031 94.7093 144.143 95.264 144.367 95.712C144.591 96.16 144.889 96.496 145.263 96.72C145.636 96.9333 146.047 97.04 146.495 97.04ZM155.464 98.192C154.706 98.192 154.045 98.0267 153.48 97.696C152.925 97.3653 152.493 96.8907 152.184 96.272C151.874 95.6427 151.72 94.9013 151.72 94.048C151.72 93.376 151.805 92.784 151.976 92.272C152.157 91.7493 152.408 91.3173 152.728 90.976C153.058 90.624 153.442 90.3573 153.88 90.176C154.328 89.9947 154.818 89.904 155.352 89.904C155.885 89.904 156.37 89.9893 156.808 90.16C157.256 90.3307 157.64 90.5867 157.96 90.928C158.29 91.2587 158.546 91.68 158.728 92.192C158.909 92.6933 159 93.28 159 93.952C159 94.0373 158.994 94.1227 158.984 94.208C158.984 94.2933 158.978 94.3627 158.968 94.416H153C153.01 94.9067 153.128 95.3547 153.352 95.76C153.576 96.1653 153.874 96.4907 154.248 96.736C154.632 96.9707 155.058 97.088 155.528 97.088C156.093 97.088 156.562 96.976 156.936 96.752C157.309 96.528 157.618 96.256 157.864 95.936L158.632 96.72C158.301 97.168 157.88 97.5253 157.368 97.792C156.856 98.0587 156.221 98.192 155.464 98.192ZM155.352 90.96C154.85 90.96 154.429 91.0773 154.088 91.312C153.746 91.5467 153.485 91.8453 153.304 92.208C153.133 92.5707 153.042 92.9493 153.032 93.344H157.656C157.645 92.9493 157.549 92.5707 157.368 92.208C157.197 91.8453 156.941 91.5467 156.6 91.312C156.269 91.0773 155.853 90.96 155.352 90.96ZM161.063 98V86.4H162.343V98H161.063Z" fill="#242E30"/>
<mask id="mask5_27620_9461" style="mask-type:luminance" maskUnits="userSpaceOnUse" x="190" y="82" width="20" height="20">
<mask id="path-22-inside-6_27620_9461" fill="white">
<path fill-rule="evenodd" clip-rule="evenodd" d="M190 92C190 86.48 194.48 82 200 82C205.52 82 210 86.48 210 92C210 97.52 205.52 102 200 102C194.48 102 190 97.52 190 92ZM192 92C192 96.42 195.58 100 200 100C204.42 100 208 96.42 208 92C208 87.58 204.42 84 200 84C195.58 84 192 87.58 192 92Z"/>
</mask>
<path d="M200 82V81C193.928 81 189 85.9277 189 92H190H191C191 87.0323 195.032 83 200 83V82ZM210 92H211C211 85.9277 206.072 81 200 81V82V83C204.968 83 209 87.0323 209 92H210ZM200 102V103C206.072 103 211 98.0723 211 92H210H209C209 96.9677 204.968 101 200 101V102ZM190 92H189C189 98.0723 193.928 103 200 103V102V101C195.032 101 191 96.9677 191 92H190ZM200 100V99C196.132 99 193 95.8677 193 92H192H191C191 96.9723 195.028 101 200 101V100ZM208 92H207C207 95.8677 203.868 99 200 99V100V101C204.972 101 209 96.9723 209 92H208ZM200 84V85C203.868 85 207 88.1323 207 92H208H209C209 87.0277 204.972 83 200 83V84ZM192 92H193C193 88.1323 196.132 85 200 85V84V83C195.028 83 191 87.0277 191 92H192Z" fill="white" mask="url(#path-22-inside-6_27620_9461)"/>
</mask>
<g mask="url(#mask5_27620_9461)">
<rect x="188" y="80" width="24" height="24" fill="#8C867E"/>
</g>
<path d="M221.472 98V87.6H222.832V96.848H226.848V98H221.472ZM230.495 98.192C230.015 98.192 229.583 98.0907 229.199 97.888C228.825 97.6853 228.532 97.4027 228.319 97.04C228.105 96.6773 227.999 96.2613 227.999 95.792C227.999 95.3333 228.105 94.9387 228.319 94.608C228.543 94.2667 228.868 93.9947 229.295 93.792C229.721 93.5893 230.233 93.472 230.831 93.44L232.911 93.312V92.752C232.911 92.3467 232.841 92.0213 232.703 91.776C232.575 91.52 232.383 91.3333 232.127 91.216C231.881 91.088 231.577 91.024 231.215 91.024C230.756 91.024 230.361 91.1093 230.031 91.28C229.7 91.4507 229.444 91.6373 229.263 91.84L228.495 91.072C228.772 90.7307 229.151 90.4533 229.631 90.24C230.111 90.016 230.649 89.904 231.247 89.904C231.972 89.904 232.548 90.0267 232.975 90.272C233.401 90.5173 233.705 90.848 233.887 91.264C234.079 91.6693 234.175 92.1227 234.175 92.624V98H232.975V96.656H232.879C232.676 97.1253 232.377 97.4987 231.983 97.776C231.588 98.0533 231.092 98.192 230.495 98.192ZM230.687 97.104C231.348 97.104 231.881 96.912 232.287 96.528C232.703 96.1333 232.911 95.6107 232.911 94.96V94.272L230.895 94.416C230.372 94.4587 229.972 94.592 229.695 94.816C229.428 95.04 229.295 95.3547 229.295 95.76C229.295 96.1653 229.423 96.4907 229.679 96.736C229.945 96.9813 230.281 97.104 230.687 97.104ZM240.815 98.192C240.164 98.192 239.588 98.0267 239.087 97.696C238.585 97.3653 238.244 96.928 238.063 96.384H237.967V98H236.751V86.4H238.031V91.552H238.127C238.329 91.072 238.665 90.6773 239.135 90.368C239.604 90.0587 240.164 89.904 240.815 89.904C241.519 89.904 242.132 90.08 242.655 90.432C243.177 90.784 243.583 91.2747 243.871 91.904C244.169 92.5227 244.319 93.232 244.319 94.032C244.319 94.832 244.169 95.5467 243.871 96.176C243.583 96.7947 243.177 97.2853 242.655 97.648C242.132 98.0107 241.519 98.192 240.815 98.192ZM240.495 97.04C240.964 97.04 241.385 96.9333 241.759 96.72C242.143 96.496 242.447 96.16 242.671 95.712C242.895 95.264 243.007 94.7093 243.007 94.048C243.007 93.376 242.895 92.8213 242.671 92.384C242.447 91.936 242.143 91.6053 241.759 91.392C241.385 91.168 240.964 91.056 240.495 91.056C240.047 91.056 239.636 91.168 239.263 91.392C238.889 91.6053 238.591 91.936 238.367 92.384C238.143 92.8213 238.031 93.376 238.031 94.048C238.031 94.7093 238.143 95.264 238.367 95.712C238.591 96.16 238.889 96.496 239.263 96.72C239.636 96.9333 240.047 97.04 240.495 97.04ZM249.464 98.192C248.706 98.192 248.045 98.0267 247.48 97.696C246.925 97.3653 246.493 96.8907 246.184 96.272C245.874 95.6427 245.72 94.9013 245.72 94.048C245.72 93.376 245.805 92.784 245.976 92.272C246.157 91.7493 246.408 91.3173 246.728 90.976C247.058 90.624 247.442 90.3573 247.88 90.176C248.328 89.9947 248.818 89.904 249.352 89.904C249.885 89.904 250.37 89.9893 250.808 90.16C251.256 90.3307 251.64 90.5867 251.96 90.928C252.29 91.2587 252.546 91.68 252.728 92.192C252.909 92.6933 253 93.28 253 93.952C253 94.0373 252.994 94.1227 252.984 94.208C252.984 94.2933 252.978 94.3627 252.968 94.416H247C247.01 94.9067 247.128 95.3547 247.352 95.76C247.576 96.1653 247.874 96.4907 248.248 96.736C248.632 96.9707 249.058 97.088 249.528 97.088C250.093 97.088 250.562 96.976 250.936 96.752C251.309 96.528 251.618 96.256 251.864 95.936L252.632 96.72C252.301 97.168 251.88 97.5253 251.368 97.792C250.856 98.0587 250.221 98.192 249.464 98.192ZM249.352 90.96C248.85 90.96 248.429 91.0773 248.088 91.312C247.746 91.5467 247.485 91.8453 247.304 92.208C247.133 92.5707 247.042 92.9493 247.032 93.344H251.656C251.645 92.9493 251.549 92.5707 251.368 92.208C251.197 91.8453 250.941 91.5467 250.6 91.312C250.269 91.0773 249.853 90.96 249.352 90.96ZM255.063 98V86.4H256.343V98H255.063Z" fill="#242E30"/>
<defs>
<clipPath id="clip0_27620_9461">
<rect width="34" height="20" fill="white"/>
</clipPath>
<clipPath id="clip1_27620_9461">
<rect width="34" height="20" fill="white"/>
</clipPath>
</defs>
</svg>
