<svg width="984" height="288" viewBox="0 0 984 288" fill="none" xmlns="http://www.w3.org/2000/svg">
<rect width="984" height="288" rx="16" fill="white"/>
<rect y="8" width="8" height="8" rx="2" fill="#FF8000"/>
<path d="M19.76 17.824C18.992 17.7707 18.368 17.616 17.888 17.36C17.408 17.104 17.0133 16.7893 16.704 16.416L17.584 15.616C17.872 15.9467 18.24 16.2133 18.688 16.416C19.136 16.608 19.68 16.704 20.32 16.704C20.608 16.704 20.88 16.6827 21.136 16.64C21.392 16.5867 21.6213 16.5013 21.824 16.384C22.0267 16.256 22.1867 16.096 22.304 15.904C22.4213 15.7013 22.48 15.456 22.48 15.168C22.48 14.9013 22.4213 14.6827 22.304 14.512C22.1867 14.3307 22.0213 14.1707 21.808 14.032C21.5947 13.8933 21.3387 13.7707 21.04 13.664C20.752 13.5573 20.432 13.44 20.08 13.312C19.7067 13.184 19.3387 13.0453 18.976 12.896C18.624 12.7467 18.304 12.5653 18.016 12.352C17.7387 12.1387 17.5147 11.8827 17.344 11.584C17.1733 11.2747 17.088 10.896 17.088 10.448C17.088 9.65867 17.344 9.04 17.856 8.592C18.3787 8.144 19.0613 7.87733 19.904 7.792V6.32H21.088V7.792C22.2933 7.90933 23.2107 8.39467 23.84 9.248L22.96 10.064C22.672 9.73333 22.3147 9.456 21.888 9.232C21.472 9.008 20.976 8.896 20.4 8.896C20.1547 8.896 19.9147 8.92267 19.68 8.976C19.456 9.01867 19.2533 9.09867 19.072 9.216C18.8907 9.33333 18.7413 9.488 18.624 9.68C18.5173 9.86133 18.464 10.0907 18.464 10.368C18.464 10.6347 18.5227 10.8587 18.64 11.04C18.7573 11.2107 18.9227 11.3653 19.136 11.504C19.3493 11.6427 19.6 11.7653 19.888 11.872C20.1867 11.9787 20.512 12.096 20.864 12.224C21.2373 12.352 21.6 12.4907 21.952 12.64C22.3147 12.7893 22.6347 12.9707 22.912 13.184C23.2 13.3973 23.4293 13.6587 23.6 13.968C23.7707 14.2667 23.856 14.64 23.856 15.088C23.856 15.504 23.7813 15.872 23.632 16.192C23.4933 16.5013 23.2907 16.768 23.024 16.992C22.768 17.216 22.4587 17.3973 22.096 17.536C21.744 17.664 21.36 17.7493 20.944 17.792V19.28H19.76V17.824ZM28.542 18.192C27.8273 18.192 27.3047 17.9787 26.974 17.552C26.6433 17.1253 26.478 16.5387 26.478 15.792V11.136H25.07V10.096H26.478V7.952H27.742V10.096H30.03V11.136H27.742V15.68C27.742 16.192 27.838 16.5493 28.03 16.752C28.2327 16.9547 28.4887 17.056 28.798 17.056C29.0113 17.056 29.2033 17.0187 29.374 16.944C29.5447 16.8587 29.7047 16.7467 29.854 16.608L30.43 17.504C29.9393 17.9627 29.31 18.192 28.542 18.192ZM33.6605 8C33.6605 8.224 33.5805 8.416 33.4205 8.576C33.2712 8.736 33.0685 8.816 32.8125 8.816C32.5458 8.816 32.3378 8.736 32.1885 8.576C32.0392 8.416 31.9645 8.224 31.9645 8C31.9645 7.78667 32.0392 7.6 32.1885 7.44C32.3378 7.26933 32.5458 7.184 32.8125 7.184C33.0685 7.184 33.2712 7.26933 33.4205 7.44C33.5805 7.6 33.6605 7.78667 33.6605 8ZM32.1725 10.096H33.4525V18H32.1725V10.096ZM36.1725 10.096H37.3885V11.344H37.4845C37.6765 10.928 37.9432 10.5867 38.2845 10.32C38.6365 10.0427 39.0738 9.904 39.5965 9.904C40.2258 9.904 40.7538 10.0213 41.1805 10.256C41.6178 10.48 41.9432 10.8213 42.1565 11.28C42.3912 10.832 42.7058 10.4907 43.1005 10.256C43.4952 10.0213 43.9965 9.904 44.6045 9.904C45.0418 9.904 45.4365 9.96267 45.7885 10.08C46.1405 10.1973 46.4392 10.3787 46.6845 10.624C46.9405 10.8693 47.1325 11.184 47.2605 11.568C47.3992 11.952 47.4685 12.4107 47.4685 12.944V18H46.1885V13.184C46.1885 12.3733 46.0285 11.8027 45.7085 11.472C45.3992 11.1307 44.9405 10.96 44.3325 10.96C43.7458 10.96 43.2872 11.168 42.9565 11.584C42.6258 12 42.4605 12.608 42.4605 13.408V18H41.1805V13.184C41.1805 12.3733 41.0205 11.8027 40.7005 11.472C40.3912 11.1307 39.9325 10.96 39.3245 10.96C38.7485 10.96 38.2898 11.168 37.9485 11.584C37.6178 12 37.4525 12.608 37.4525 13.408V18H36.1725V10.096ZM51.5355 8C51.5355 8.224 51.4555 8.416 51.2955 8.576C51.1462 8.736 50.9435 8.816 50.6875 8.816C50.4208 8.816 50.2128 8.736 50.0635 8.576C49.9142 8.416 49.8395 8.224 49.8395 8C49.8395 7.78667 49.9142 7.6 50.0635 7.44C50.2128 7.26933 50.4208 7.184 50.6875 7.184C50.9435 7.184 51.1462 7.26933 51.2955 7.44C51.4555 7.6 51.5355 7.78667 51.5355 8ZM50.0475 10.096H51.3275V18H50.0475V10.096ZM54.0475 10.096H55.2635V11.344H55.3595C55.5515 10.928 55.8235 10.5867 56.1755 10.32C56.5275 10.0427 56.9755 9.904 57.5195 9.904C58.4262 9.904 59.1408 10.144 59.6635 10.624C60.1968 11.104 60.4635 11.8773 60.4635 12.944V18H59.1835V13.184C59.1835 12.3733 59.0182 11.8027 58.6875 11.472C58.3675 11.1307 57.8928 10.96 57.2635 10.96C56.6555 10.96 56.1808 11.168 55.8395 11.584C55.4982 12 55.3275 12.608 55.3275 13.408V18H54.0475V10.096ZM66.1839 21.152C65.5012 21.152 64.9092 21.0293 64.4079 20.784C63.9065 20.5493 63.5065 20.256 63.2079 19.904L64.0559 19.088C64.2799 19.3653 64.5679 19.584 64.9199 19.744C65.2825 19.9147 65.6825 20 66.1199 20C66.8025 20 67.3359 19.8347 67.7199 19.504C68.1145 19.1733 68.3119 18.592 68.3119 17.76V16.224H68.2159C68.1305 16.4907 68.0079 16.7307 67.8479 16.944C67.6879 17.1467 67.4959 17.3227 67.2719 17.472C67.0585 17.6107 66.8185 17.7227 66.5519 17.808C66.2959 17.8827 66.0345 17.92 65.7679 17.92C65.2665 17.92 64.8079 17.8293 64.3919 17.648C63.9865 17.4667 63.6292 17.2053 63.3199 16.864C63.0212 16.512 62.7865 16.0853 62.6159 15.584C62.4559 15.0827 62.3759 14.5173 62.3759 13.888C62.3759 13.2693 62.4559 12.7147 62.6159 12.224C62.7865 11.7333 63.0212 11.3173 63.3199 10.976C63.6292 10.6347 63.9865 10.3733 64.3919 10.192C64.8079 10 65.2665 9.904 65.7679 9.904C66.3545 9.904 66.8772 10.0587 67.3359 10.368C67.8052 10.6667 68.1199 11.0827 68.2799 11.616H68.3759V10.096H69.5919V17.92C69.5919 18.8907 69.2985 19.6693 68.7119 20.256C68.1359 20.8533 67.2932 21.152 66.1839 21.152ZM66.0239 16.768C66.7279 16.768 67.2825 16.5227 67.6879 16.032C68.1039 15.5413 68.3119 14.832 68.3119 13.904C68.3119 12.9653 68.1039 12.256 67.6879 11.776C67.2825 11.296 66.7279 11.056 66.0239 11.056C65.3092 11.056 64.7385 11.296 64.3119 11.776C63.8959 12.256 63.6879 12.9653 63.6879 13.904C63.6879 14.832 63.8959 15.5413 64.3119 16.032C64.7385 16.5227 65.3092 16.768 66.0239 16.768Z" fill="#242E30"/>
<path d="M5.07481 95.168C4.44947 95.168 3.88014 95.0513 3.3668 94.818C2.85347 94.5753 2.4148 94.244 2.0508 93.824C1.6868 93.3947 1.40214 92.8907 1.1968 92.312C1.0008 91.7333 0.902805 91.1033 0.902805 90.422C0.902805 89.722 1.00547 89.0827 1.2108 88.504C1.41614 87.9253 1.7008 87.4307 2.0648 87.02C2.4288 86.6093 2.8628 86.292 3.3668 86.068C3.8708 85.844 4.42147 85.732 5.0188 85.732C5.70947 85.732 6.31614 85.8533 6.8388 86.096C7.36147 86.3293 7.81414 86.656 8.1968 87.076L7.44081 87.818C7.17014 87.4913 6.8248 87.2393 6.40481 87.062C5.99414 86.8753 5.55081 86.782 5.07481 86.782C4.63614 86.782 4.2348 86.8707 3.8708 87.048C3.51614 87.2253 3.20814 87.4773 2.9468 87.804C2.68547 88.1213 2.48014 88.504 2.3308 88.952C2.1908 89.4 2.1208 89.89 2.1208 90.422C2.1208 90.9447 2.19547 91.43 2.3448 91.878C2.49414 92.326 2.69947 92.718 2.9608 93.054C3.22214 93.3807 3.5348 93.642 3.8988 93.838C4.2628 94.0247 4.66414 94.118 5.10281 94.118C5.57881 94.118 6.03614 94.0293 6.4748 93.852C6.91347 93.6653 7.26814 93.3947 7.53881 93.04L8.29481 93.782C7.9308 94.23 7.46414 94.5753 6.8948 94.818C6.3348 95.0513 5.72814 95.168 5.07481 95.168ZM12.6124 95.168C12.0617 95.168 11.5764 95.0747 11.1564 94.888C10.7457 94.692 10.4004 94.4307 10.1204 94.104C9.84972 93.7773 9.64438 93.3947 9.50438 92.956C9.37372 92.5173 9.30838 92.046 9.30838 91.542C9.30838 91.038 9.37372 90.5667 9.50438 90.128C9.64438 89.6893 9.84972 89.3067 10.1204 88.98C10.4004 88.6533 10.7457 88.3967 11.1564 88.21C11.5764 88.014 12.0617 87.916 12.6124 87.916C13.163 87.916 13.639 88.014 14.0404 88.21C14.451 88.3967 14.7917 88.6533 15.0624 88.98C15.333 89.3067 15.5337 89.6893 15.6644 90.128C15.8044 90.5667 15.8744 91.038 15.8744 91.542C15.8744 92.046 15.8044 92.5173 15.6644 92.956C15.5337 93.3947 15.333 93.7773 15.0624 94.104C14.7917 94.4307 14.451 94.692 14.0404 94.888C13.639 95.0747 13.163 95.168 12.6124 95.168ZM10.4564 91.542C10.4564 91.9433 10.4984 92.312 10.5824 92.648C10.6757 92.9747 10.811 93.2593 10.9884 93.502C11.1657 93.7353 11.3897 93.9173 11.6604 94.048C11.931 94.1787 12.2484 94.244 12.6124 94.244C12.967 94.244 13.275 94.1787 13.5364 94.048C13.807 93.9173 14.0264 93.7353 14.1944 93.502C14.3717 93.2593 14.5024 92.9747 14.5864 92.648C14.6797 92.312 14.7264 91.9433 14.7264 91.542C14.7264 91.1407 14.6797 90.7767 14.5864 90.45C14.5024 90.114 14.3717 89.8293 14.1944 89.596C14.0264 89.3533 13.807 89.1667 13.5364 89.036C13.275 88.9053 12.967 88.84 12.6124 88.84C12.2484 88.84 11.931 88.9053 11.6604 89.036C11.3897 89.1667 11.1657 89.3533 10.9884 89.596C10.811 89.8293 10.6757 90.114 10.5824 90.45C10.4984 90.7767 10.4564 91.1407 10.4564 91.542ZM17.6754 88.084H18.7394V89.176H18.8234C18.9914 88.812 19.2294 88.5133 19.5374 88.28C19.8454 88.0373 20.2374 87.916 20.7134 87.916C21.5067 87.916 22.132 88.126 22.5894 88.546C23.056 88.966 23.2894 89.6427 23.2894 90.576V95H22.1694V90.786C22.1694 90.0767 22.0247 89.5773 21.7354 89.288C21.4554 88.9893 21.04 88.84 20.4894 88.84C19.9574 88.84 19.542 89.022 19.2434 89.386C18.9447 89.75 18.7954 90.282 18.7954 90.982V95H17.6754V88.084ZM27.6647 95.168C27.0393 95.168 26.582 94.9813 26.2927 94.608C26.0033 94.2347 25.8587 93.7213 25.8587 93.068V88.994H24.6267V88.084H25.8587V86.208H26.9647V88.084H28.9667V88.994H26.9647V92.97C26.9647 93.418 27.0487 93.7307 27.2167 93.908C27.394 94.0853 27.618 94.174 27.8887 94.174C28.0753 94.174 28.2433 94.1413 28.3927 94.076C28.542 94.0013 28.682 93.9033 28.8127 93.782L29.3167 94.566C28.8873 94.9673 28.3367 95.168 27.6647 95.168ZM30.8414 88.084H31.9054V89.204H31.9894C32.1387 88.84 32.3534 88.5367 32.6334 88.294C32.9134 88.042 33.2634 87.916 33.6834 87.916C34.038 87.916 34.3507 87.986 34.6214 88.126L34.2434 89.134C34.122 89.0687 33.9914 89.0267 33.8514 89.008C33.7207 88.98 33.5854 88.966 33.4454 88.966C32.988 88.966 32.624 89.1527 32.3534 89.526C32.092 89.89 31.9614 90.3567 31.9614 90.926V95H30.8414V88.084ZM38.4522 95.168C37.9016 95.168 37.4162 95.0747 36.9962 94.888C36.5856 94.692 36.2402 94.4307 35.9602 94.104C35.6896 93.7773 35.4842 93.3947 35.3442 92.956C35.2136 92.5173 35.1482 92.046 35.1482 91.542C35.1482 91.038 35.2136 90.5667 35.3442 90.128C35.4842 89.6893 35.6896 89.3067 35.9602 88.98C36.2402 88.6533 36.5856 88.3967 36.9962 88.21C37.4162 88.014 37.9016 87.916 38.4522 87.916C39.0029 87.916 39.4789 88.014 39.8802 88.21C40.2909 88.3967 40.6316 88.6533 40.9022 88.98C41.1729 89.3067 41.3736 89.6893 41.5042 90.128C41.6442 90.5667 41.7142 91.038 41.7142 91.542C41.7142 92.046 41.6442 92.5173 41.5042 92.956C41.3736 93.3947 41.1729 93.7773 40.9022 94.104C40.6316 94.4307 40.2909 94.692 39.8802 94.888C39.4789 95.0747 39.0029 95.168 38.4522 95.168ZM36.2962 91.542C36.2962 91.9433 36.3382 92.312 36.4222 92.648C36.5156 92.9747 36.6509 93.2593 36.8282 93.502C37.0056 93.7353 37.2296 93.9173 37.5002 94.048C37.7709 94.1787 38.0882 94.244 38.4522 94.244C38.8069 94.244 39.1149 94.1787 39.3762 94.048C39.6469 93.9173 39.8662 93.7353 40.0342 93.502C40.2116 93.2593 40.3422 92.9747 40.4262 92.648C40.5196 92.312 40.5662 91.9433 40.5662 91.542C40.5662 91.1407 40.5196 90.7767 40.4262 90.45C40.3422 90.114 40.2116 89.8293 40.0342 89.596C39.8662 89.3533 39.6469 89.1667 39.3762 89.036C39.1149 88.9053 38.8069 88.84 38.4522 88.84C38.0882 88.84 37.7709 88.9053 37.5002 89.036C37.2296 89.1667 37.0056 89.3533 36.8282 89.596C36.6509 89.8293 36.5156 90.114 36.4222 90.45C36.3382 90.7767 36.2962 91.1407 36.2962 91.542ZM43.5152 84.85H44.6352V95H43.5152V84.85Z" fill="#3C4C4F"/>
<path d="M29.7431 153.9H34.3491V154.908H30.9331V158.114H34.2231V159.122H30.9331V163H29.7431V153.9ZM37.5369 154.25C37.5369 154.446 37.4669 154.614 37.3269 154.754C37.1963 154.894 37.0189 154.964 36.7949 154.964C36.5616 154.964 36.3796 154.894 36.2489 154.754C36.1183 154.614 36.0529 154.446 36.0529 154.25C36.0529 154.063 36.1183 153.9 36.2489 153.76C36.3796 153.611 36.5616 153.536 36.7949 153.536C37.0189 153.536 37.1963 153.611 37.3269 153.76C37.4669 153.9 37.5369 154.063 37.5369 154.25ZM36.2349 156.084H37.3549V163H36.2349V156.084ZM39.7349 152.85H40.8549V163H39.7349V152.85ZM43.2349 152.85H44.3549V163H43.2349V152.85Z" fill="#3C4C4F"/>
<rect width="1" height="34" transform="translate(73.5 56)" fill="black" fill-opacity="0.08"/>
<rect x="86" y="56" width="184.5" height="34" fill="white" fill-opacity="0.01"/>
<rect width="1" height="34" transform="translate(290 56)" fill="black" fill-opacity="0.08"/>
<rect x="310.5" y="56" width="184.5" height="34" fill="white" fill-opacity="0.01"/>
<rect width="1" height="34" transform="translate(514.5 56)" fill="black" fill-opacity="0.08"/>
<rect x="535" y="56" width="184.5" height="34" fill="white" fill-opacity="0.01"/>
<rect width="1" height="34" transform="translate(739 56)" fill="black" fill-opacity="0.08"/>
<rect width="1" height="34" transform="translate(963.5 56)" fill="black" fill-opacity="0.08"/>
<rect width="1" height="34" transform="translate(73.5 90)" fill="black" fill-opacity="0.08"/>
<rect width="1" height="34" transform="translate(290 90)" fill="black" fill-opacity="0.08"/>
<rect width="1" height="34" transform="translate(514.5 90)" fill="black" fill-opacity="0.08"/>
<rect width="1" height="34" transform="translate(739 90)" fill="black" fill-opacity="0.08"/>
<rect width="1" height="34" transform="translate(963.5 90)" fill="black" fill-opacity="0.08"/>
<rect width="1" height="34" transform="translate(73.5 124)" fill="black" fill-opacity="0.08"/>
<rect x="86" y="124" width="184.5" height="34" fill="white" fill-opacity="0.01"/>
<rect width="1" height="34" transform="translate(290 124)" fill="black" fill-opacity="0.08"/>
<rect x="310.5" y="124" width="184.5" height="34" fill="white" fill-opacity="0.01"/>
<rect width="1" height="34" transform="translate(514.5 124)" fill="black" fill-opacity="0.08"/>
<rect x="535" y="124" width="184.5" height="34" fill="white" fill-opacity="0.01"/>
<rect width="1" height="34" transform="translate(739 124)" fill="black" fill-opacity="0.08"/>
<rect width="1" height="34" transform="translate(963.5 124)" fill="black" fill-opacity="0.08"/>
<rect width="1" height="34" transform="translate(73.5 158)" fill="black" fill-opacity="0.08"/>
<rect x="86" y="158" width="184.5" height="34" fill="white" fill-opacity="0.01"/>
<rect width="1" height="34" transform="translate(290 158)" fill="black" fill-opacity="0.08"/>
<rect x="310.5" y="158" width="184.5" height="34" fill="white" fill-opacity="0.01"/>
<rect width="1" height="34" transform="translate(514.5 158)" fill="black" fill-opacity="0.08"/>
<rect x="535" y="158" width="184.5" height="34" fill="white" fill-opacity="0.01"/>
<rect width="1" height="34" transform="translate(739 158)" fill="black" fill-opacity="0.08"/>
<rect width="1" height="34" transform="translate(963.5 158)" fill="black" fill-opacity="0.08"/>
<path d="M74.0027 223.168C73.4241 223.168 72.9247 223.047 72.5047 222.804C72.0941 222.561 71.7534 222.23 71.4827 221.81C71.2214 221.381 71.0254 220.881 70.8947 220.312C70.7734 219.733 70.7127 219.113 70.7127 218.45C70.7127 217.787 70.7734 217.171 70.8947 216.602C71.0254 216.023 71.2214 215.524 71.4827 215.104C71.7534 214.675 72.0941 214.339 72.5047 214.096C72.9247 213.853 73.4241 213.732 74.0027 213.732C74.5814 213.732 75.0761 213.853 75.4867 214.096C75.9067 214.339 76.2474 214.675 76.5087 215.104C76.7794 215.524 76.9754 216.023 77.0967 216.602C77.2274 217.171 77.2927 217.787 77.2927 218.45C77.2927 219.113 77.2274 219.733 77.0967 220.312C76.9754 220.881 76.7794 221.381 76.5087 221.81C76.2474 222.23 75.9067 222.561 75.4867 222.804C75.0761 223.047 74.5814 223.168 74.0027 223.168ZM74.0027 222.16C74.3481 222.16 74.6514 222.076 74.9127 221.908C75.1741 221.731 75.3887 221.483 75.5567 221.166C75.7341 220.839 75.8647 220.447 75.9487 219.99C76.0327 219.533 76.0747 219.019 76.0747 218.45C76.0747 217.881 76.0327 217.367 75.9487 216.91C75.8647 216.453 75.7341 216.065 75.5567 215.748C75.3887 215.421 75.1741 215.174 74.9127 215.006C74.6514 214.829 74.3481 214.74 74.0027 214.74C73.6574 214.74 73.3541 214.829 73.0927 215.006C72.8407 215.174 72.6261 215.421 72.4487 215.748C72.2807 216.065 72.1501 216.453 72.0567 216.91C71.9727 217.367 71.9307 217.881 71.9307 218.45C71.9307 219.019 71.9727 219.533 72.0567 219.99C72.1501 220.447 72.2807 220.839 72.4487 221.166C72.6261 221.483 72.8407 221.731 73.0927 221.908C73.3541 222.076 73.6574 222.16 74.0027 222.16Z" fill="#3C4C4F"/>
<path d="M280.238 222.02H282.842V215.16L280.35 216.308L279.986 215.524L283.052 213.9H284.032V222.02H286.37V223H280.238V222.02ZM291.503 223.168C290.924 223.168 290.425 223.047 290.005 222.804C289.594 222.561 289.253 222.23 288.983 221.81C288.721 221.381 288.525 220.881 288.395 220.312C288.273 219.733 288.213 219.113 288.213 218.45C288.213 217.787 288.273 217.171 288.395 216.602C288.525 216.023 288.721 215.524 288.983 215.104C289.253 214.675 289.594 214.339 290.005 214.096C290.425 213.853 290.924 213.732 291.503 213.732C292.081 213.732 292.576 213.853 292.987 214.096C293.407 214.339 293.747 214.675 294.009 215.104C294.279 215.524 294.475 216.023 294.597 216.602C294.727 217.171 294.793 217.787 294.793 218.45C294.793 219.113 294.727 219.733 294.597 220.312C294.475 220.881 294.279 221.381 294.009 221.81C293.747 222.23 293.407 222.561 292.987 222.804C292.576 223.047 292.081 223.168 291.503 223.168ZM291.503 222.16C291.848 222.16 292.151 222.076 292.413 221.908C292.674 221.731 292.889 221.483 293.057 221.166C293.234 220.839 293.365 220.447 293.449 219.99C293.533 219.533 293.575 219.019 293.575 218.45C293.575 217.881 293.533 217.367 293.449 216.91C293.365 216.453 293.234 216.065 293.057 215.748C292.889 215.421 292.674 215.174 292.413 215.006C292.151 214.829 291.848 214.74 291.503 214.74C291.157 214.74 290.854 214.829 290.593 215.006C290.341 215.174 290.126 215.421 289.949 215.748C289.781 216.065 289.65 216.453 289.557 216.91C289.473 217.367 289.431 217.881 289.431 218.45C289.431 219.019 289.473 219.533 289.557 219.99C289.65 220.447 289.781 220.839 289.949 221.166C290.126 221.483 290.341 221.731 290.593 221.908C290.854 222.076 291.157 222.16 291.503 222.16ZM299.897 223.168C299.319 223.168 298.819 223.047 298.399 222.804C297.989 222.561 297.648 222.23 297.377 221.81C297.116 221.381 296.92 220.881 296.789 220.312C296.668 219.733 296.607 219.113 296.607 218.45C296.607 217.787 296.668 217.171 296.789 216.602C296.92 216.023 297.116 215.524 297.377 215.104C297.648 214.675 297.989 214.339 298.399 214.096C298.819 213.853 299.319 213.732 299.897 213.732C300.476 213.732 300.971 213.853 301.381 214.096C301.801 214.339 302.142 214.675 302.403 215.104C302.674 215.524 302.87 216.023 302.991 216.602C303.122 217.171 303.187 217.787 303.187 218.45C303.187 219.113 303.122 219.733 302.991 220.312C302.87 220.881 302.674 221.381 302.403 221.81C302.142 222.23 301.801 222.561 301.381 222.804C300.971 223.047 300.476 223.168 299.897 223.168ZM299.897 222.16C300.243 222.16 300.546 222.076 300.807 221.908C301.069 221.731 301.283 221.483 301.451 221.166C301.629 220.839 301.759 220.447 301.843 219.99C301.927 219.533 301.969 219.019 301.969 218.45C301.969 217.881 301.927 217.367 301.843 216.91C301.759 216.453 301.629 216.065 301.451 215.748C301.283 215.421 301.069 215.174 300.807 215.006C300.546 214.829 300.243 214.74 299.897 214.74C299.552 214.74 299.249 214.829 298.987 215.006C298.735 215.174 298.521 215.421 298.343 215.748C298.175 216.065 298.045 216.453 297.951 216.91C297.867 217.367 297.825 217.881 297.825 218.45C297.825 219.019 297.867 219.533 297.951 219.99C298.045 220.447 298.175 220.839 298.343 221.166C298.521 221.483 298.735 221.731 298.987 221.908C299.249 222.076 299.552 222.16 299.897 222.16Z" fill="#3C4C4F"/>
<path d="M504.78 221.488C504.78 221.115 504.846 220.788 504.976 220.508C505.107 220.219 505.284 219.957 505.508 219.724C505.742 219.481 506.012 219.257 506.32 219.052C506.638 218.847 506.978 218.637 507.342 218.422C507.632 218.245 507.888 218.081 508.112 217.932C508.336 217.773 508.523 217.61 508.672 217.442C508.822 217.274 508.934 217.097 509.008 216.91C509.083 216.723 509.12 216.509 509.12 216.266C509.12 215.771 508.962 215.398 508.644 215.146C508.336 214.885 507.94 214.754 507.454 214.754C506.969 214.754 506.549 214.852 506.194 215.048C505.84 215.235 505.541 215.487 505.298 215.804L504.654 215.132C504.934 214.712 505.303 214.376 505.76 214.124C506.218 213.863 506.768 213.732 507.412 213.732C507.888 213.732 508.308 213.797 508.672 213.928C509.036 214.049 509.34 214.222 509.582 214.446C509.834 214.661 510.021 214.922 510.142 215.23C510.273 215.529 510.338 215.855 510.338 216.21C510.338 216.611 510.268 216.966 510.128 217.274C509.988 217.582 509.802 217.862 509.568 218.114C509.335 218.366 509.064 218.595 508.756 218.8C508.458 218.996 508.14 219.187 507.804 219.374C507.506 219.542 507.24 219.701 507.006 219.85C506.773 219.999 506.577 220.158 506.418 220.326C506.269 220.494 506.152 220.681 506.068 220.886C505.994 221.091 505.956 221.334 505.956 221.614V221.992H510.562V223H504.78V221.488ZM516.003 223.168C515.424 223.168 514.925 223.047 514.505 222.804C514.094 222.561 513.753 222.23 513.483 221.81C513.221 221.381 513.025 220.881 512.895 220.312C512.773 219.733 512.713 219.113 512.713 218.45C512.713 217.787 512.773 217.171 512.895 216.602C513.025 216.023 513.221 215.524 513.483 215.104C513.753 214.675 514.094 214.339 514.505 214.096C514.925 213.853 515.424 213.732 516.003 213.732C516.581 213.732 517.076 213.853 517.487 214.096C517.907 214.339 518.247 214.675 518.509 215.104C518.779 215.524 518.975 216.023 519.097 216.602C519.227 217.171 519.293 217.787 519.293 218.45C519.293 219.113 519.227 219.733 519.097 220.312C518.975 220.881 518.779 221.381 518.509 221.81C518.247 222.23 517.907 222.561 517.487 222.804C517.076 223.047 516.581 223.168 516.003 223.168ZM516.003 222.16C516.348 222.16 516.651 222.076 516.913 221.908C517.174 221.731 517.389 221.483 517.557 221.166C517.734 220.839 517.865 220.447 517.949 219.99C518.033 219.533 518.075 219.019 518.075 218.45C518.075 217.881 518.033 217.367 517.949 216.91C517.865 216.453 517.734 216.065 517.557 215.748C517.389 215.421 517.174 215.174 516.913 215.006C516.651 214.829 516.348 214.74 516.003 214.74C515.657 214.74 515.354 214.829 515.093 215.006C514.841 215.174 514.626 215.421 514.449 215.748C514.281 216.065 514.15 216.453 514.057 216.91C513.973 217.367 513.931 217.881 513.931 218.45C513.931 219.019 513.973 219.533 514.057 219.99C514.15 220.447 514.281 220.839 514.449 221.166C514.626 221.483 514.841 221.731 515.093 221.908C515.354 222.076 515.657 222.16 516.003 222.16ZM524.397 223.168C523.819 223.168 523.319 223.047 522.899 222.804C522.489 222.561 522.148 222.23 521.877 221.81C521.616 221.381 521.42 220.881 521.289 220.312C521.168 219.733 521.107 219.113 521.107 218.45C521.107 217.787 521.168 217.171 521.289 216.602C521.42 216.023 521.616 215.524 521.877 215.104C522.148 214.675 522.489 214.339 522.899 214.096C523.319 213.853 523.819 213.732 524.397 213.732C524.976 213.732 525.471 213.853 525.881 214.096C526.301 214.339 526.642 214.675 526.903 215.104C527.174 215.524 527.37 216.023 527.491 216.602C527.622 217.171 527.687 217.787 527.687 218.45C527.687 219.113 527.622 219.733 527.491 220.312C527.37 220.881 527.174 221.381 526.903 221.81C526.642 222.23 526.301 222.561 525.881 222.804C525.471 223.047 524.976 223.168 524.397 223.168ZM524.397 222.16C524.743 222.16 525.046 222.076 525.307 221.908C525.569 221.731 525.783 221.483 525.951 221.166C526.129 220.839 526.259 220.447 526.343 219.99C526.427 219.533 526.469 219.019 526.469 218.45C526.469 217.881 526.427 217.367 526.343 216.91C526.259 216.453 526.129 216.065 525.951 215.748C525.783 215.421 525.569 215.174 525.307 215.006C525.046 214.829 524.743 214.74 524.397 214.74C524.052 214.74 523.749 214.829 523.487 215.006C523.235 215.174 523.021 215.421 522.843 215.748C522.675 216.065 522.545 216.453 522.451 216.91C522.367 217.367 522.325 217.881 522.325 218.45C522.325 219.019 522.367 219.533 522.451 219.99C522.545 220.447 522.675 220.839 522.843 221.166C523.021 221.483 523.235 221.731 523.487 221.908C523.749 222.076 524.052 222.16 524.397 222.16Z" fill="#3C4C4F"/>
<path d="M731.772 223.168C731.1 223.168 730.536 223.047 730.078 222.804C729.63 222.561 729.266 222.258 728.986 221.894L729.7 221.194C729.915 221.465 730.181 221.689 730.498 221.866C730.825 222.043 731.236 222.132 731.73 222.132C732.328 222.132 732.799 221.992 733.144 221.712C733.49 221.423 733.662 220.998 733.662 220.438C733.662 219.897 733.485 219.5 733.13 219.248C732.776 218.996 732.323 218.87 731.772 218.87H730.932V217.862H731.73C732.281 217.862 732.687 217.717 732.948 217.428C733.219 217.139 733.354 216.761 733.354 216.294C733.354 216.023 733.308 215.795 733.214 215.608C733.13 215.412 733.009 215.253 732.85 215.132C732.701 215.001 732.524 214.908 732.318 214.852C732.122 214.796 731.917 214.768 731.702 214.768C731.273 214.768 730.9 214.852 730.582 215.02C730.265 215.188 729.999 215.398 729.784 215.65L729.14 214.95C729.411 214.614 729.761 214.329 730.19 214.096C730.629 213.853 731.156 213.732 731.772 213.732C732.146 213.732 732.5 213.788 732.836 213.9C733.182 214.003 733.48 214.157 733.732 214.362C733.994 214.558 734.199 214.81 734.348 215.118C734.498 215.417 734.572 215.762 734.572 216.154C734.572 216.677 734.437 217.12 734.166 217.484C733.896 217.839 733.508 218.105 733.004 218.282V218.366C733.256 218.413 733.494 218.497 733.718 218.618C733.952 218.73 734.152 218.879 734.32 219.066C734.498 219.243 734.633 219.458 734.726 219.71C734.829 219.962 734.88 220.242 734.88 220.55C734.88 220.951 734.806 221.315 734.656 221.642C734.516 221.959 734.311 222.235 734.04 222.468C733.77 222.692 733.443 222.865 733.06 222.986C732.678 223.107 732.248 223.168 731.772 223.168ZM740.503 223.168C739.924 223.168 739.425 223.047 739.005 222.804C738.594 222.561 738.253 222.23 737.983 221.81C737.721 221.381 737.525 220.881 737.395 220.312C737.273 219.733 737.213 219.113 737.213 218.45C737.213 217.787 737.273 217.171 737.395 216.602C737.525 216.023 737.721 215.524 737.983 215.104C738.253 214.675 738.594 214.339 739.005 214.096C739.425 213.853 739.924 213.732 740.503 213.732C741.081 213.732 741.576 213.853 741.987 214.096C742.407 214.339 742.747 214.675 743.009 215.104C743.279 215.524 743.475 216.023 743.597 216.602C743.727 217.171 743.793 217.787 743.793 218.45C743.793 219.113 743.727 219.733 743.597 220.312C743.475 220.881 743.279 221.381 743.009 221.81C742.747 222.23 742.407 222.561 741.987 222.804C741.576 223.047 741.081 223.168 740.503 223.168ZM740.503 222.16C740.848 222.16 741.151 222.076 741.413 221.908C741.674 221.731 741.889 221.483 742.057 221.166C742.234 220.839 742.365 220.447 742.449 219.99C742.533 219.533 742.575 219.019 742.575 218.45C742.575 217.881 742.533 217.367 742.449 216.91C742.365 216.453 742.234 216.065 742.057 215.748C741.889 215.421 741.674 215.174 741.413 215.006C741.151 214.829 740.848 214.74 740.503 214.74C740.157 214.74 739.854 214.829 739.593 215.006C739.341 215.174 739.126 215.421 738.949 215.748C738.781 216.065 738.65 216.453 738.557 216.91C738.473 217.367 738.431 217.881 738.431 218.45C738.431 219.019 738.473 219.533 738.557 219.99C738.65 220.447 738.781 220.839 738.949 221.166C739.126 221.483 739.341 221.731 739.593 221.908C739.854 222.076 740.157 222.16 740.503 222.16ZM748.897 223.168C748.319 223.168 747.819 223.047 747.399 222.804C746.989 222.561 746.648 222.23 746.377 221.81C746.116 221.381 745.92 220.881 745.789 220.312C745.668 219.733 745.607 219.113 745.607 218.45C745.607 217.787 745.668 217.171 745.789 216.602C745.92 216.023 746.116 215.524 746.377 215.104C746.648 214.675 746.989 214.339 747.399 214.096C747.819 213.853 748.319 213.732 748.897 213.732C749.476 213.732 749.971 213.853 750.381 214.096C750.801 214.339 751.142 214.675 751.403 215.104C751.674 215.524 751.87 216.023 751.991 216.602C752.122 217.171 752.187 217.787 752.187 218.45C752.187 219.113 752.122 219.733 751.991 220.312C751.87 220.881 751.674 221.381 751.403 221.81C751.142 222.23 750.801 222.561 750.381 222.804C749.971 223.047 749.476 223.168 748.897 223.168ZM748.897 222.16C749.243 222.16 749.546 222.076 749.807 221.908C750.069 221.731 750.283 221.483 750.451 221.166C750.629 220.839 750.759 220.447 750.843 219.99C750.927 219.533 750.969 219.019 750.969 218.45C750.969 217.881 750.927 217.367 750.843 216.91C750.759 216.453 750.629 216.065 750.451 215.748C750.283 215.421 750.069 215.174 749.807 215.006C749.546 214.829 749.243 214.74 748.897 214.74C748.552 214.74 748.249 214.829 747.987 215.006C747.735 215.174 747.521 215.421 747.343 215.748C747.175 216.065 747.045 216.453 746.951 216.91C746.867 217.367 746.825 217.881 746.825 218.45C746.825 219.019 746.867 219.533 746.951 219.99C747.045 220.447 747.175 220.839 747.343 221.166C747.521 221.483 747.735 221.731 747.987 221.908C748.249 222.076 748.552 222.16 748.897 222.16Z" fill="#3C4C4F"/>
<path d="M957.448 221.124H953.206V220.186L957.224 213.9H958.554L954.522 220.116H957.448V217.372H958.596V220.116H959.856V221.124H958.596V223H957.448V221.124ZM965.003 223.168C964.424 223.168 963.925 223.047 963.505 222.804C963.094 222.561 962.753 222.23 962.483 221.81C962.221 221.381 962.025 220.881 961.895 220.312C961.773 219.733 961.713 219.113 961.713 218.45C961.713 217.787 961.773 217.171 961.895 216.602C962.025 216.023 962.221 215.524 962.483 215.104C962.753 214.675 963.094 214.339 963.505 214.096C963.925 213.853 964.424 213.732 965.003 213.732C965.581 213.732 966.076 213.853 966.487 214.096C966.907 214.339 967.247 214.675 967.509 215.104C967.779 215.524 967.975 216.023 968.097 216.602C968.227 217.171 968.293 217.787 968.293 218.45C968.293 219.113 968.227 219.733 968.097 220.312C967.975 220.881 967.779 221.381 967.509 221.81C967.247 222.23 966.907 222.561 966.487 222.804C966.076 223.047 965.581 223.168 965.003 223.168ZM965.003 222.16C965.348 222.16 965.651 222.076 965.913 221.908C966.174 221.731 966.389 221.483 966.557 221.166C966.734 220.839 966.865 220.447 966.949 219.99C967.033 219.533 967.075 219.019 967.075 218.45C967.075 217.881 967.033 217.367 966.949 216.91C966.865 216.453 966.734 216.065 966.557 215.748C966.389 215.421 966.174 215.174 965.913 215.006C965.651 214.829 965.348 214.74 965.003 214.74C964.657 214.74 964.354 214.829 964.093 215.006C963.841 215.174 963.626 215.421 963.449 215.748C963.281 216.065 963.15 216.453 963.057 216.91C962.973 217.367 962.931 217.881 962.931 218.45C962.931 219.019 962.973 219.533 963.057 219.99C963.15 220.447 963.281 220.839 963.449 221.166C963.626 221.483 963.841 221.731 964.093 221.908C964.354 222.076 964.657 222.16 965.003 222.16ZM973.397 223.168C972.819 223.168 972.319 223.047 971.899 222.804C971.489 222.561 971.148 222.23 970.877 221.81C970.616 221.381 970.42 220.881 970.289 220.312C970.168 219.733 970.107 219.113 970.107 218.45C970.107 217.787 970.168 217.171 970.289 216.602C970.42 216.023 970.616 215.524 970.877 215.104C971.148 214.675 971.489 214.339 971.899 214.096C972.319 213.853 972.819 213.732 973.397 213.732C973.976 213.732 974.471 213.853 974.881 214.096C975.301 214.339 975.642 214.675 975.903 215.104C976.174 215.524 976.37 216.023 976.491 216.602C976.622 217.171 976.687 217.787 976.687 218.45C976.687 219.113 976.622 219.733 976.491 220.312C976.37 220.881 976.174 221.381 975.903 221.81C975.642 222.23 975.301 222.561 974.881 222.804C974.471 223.047 973.976 223.168 973.397 223.168ZM973.397 222.16C973.743 222.16 974.046 222.076 974.307 221.908C974.569 221.731 974.783 221.483 974.951 221.166C975.129 220.839 975.259 220.447 975.343 219.99C975.427 219.533 975.469 219.019 975.469 218.45C975.469 217.881 975.427 217.367 975.343 216.91C975.259 216.453 975.129 216.065 974.951 215.748C974.783 215.421 974.569 215.174 974.307 215.006C974.046 214.829 973.743 214.74 973.397 214.74C973.052 214.74 972.749 214.829 972.487 215.006C972.235 215.174 972.021 215.421 971.843 215.748C971.675 216.065 971.545 216.453 971.451 216.91C971.367 217.367 971.325 217.881 971.325 218.45C971.325 219.019 971.367 219.533 971.451 219.99C971.545 220.447 971.675 220.839 971.843 221.166C972.021 221.483 972.235 221.731 972.487 221.908C972.749 222.076 973.052 222.16 973.397 222.16Z" fill="#3C4C4F"/>
<path d="M468.676 252.084H470.342V253.134H470.426C470.603 252.77 470.851 252.476 471.168 252.252C471.495 252.028 471.891 251.916 472.358 251.916C473.497 251.916 474.229 252.345 474.556 253.204C474.733 252.812 475.009 252.499 475.382 252.266C475.755 252.033 476.194 251.916 476.698 251.916C477.538 251.916 478.154 252.149 478.546 252.616C478.938 253.073 479.134 253.769 479.134 254.702V259H477.37V254.996C477.37 253.932 476.945 253.4 476.096 253.4C475.657 253.4 475.326 253.545 475.102 253.834C474.887 254.123 474.78 254.539 474.78 255.08V259H473.016V254.996C473.016 254.464 472.913 254.067 472.708 253.806C472.512 253.535 472.19 253.4 471.742 253.4C471.322 253.4 471 253.545 470.776 253.834C470.552 254.123 470.44 254.539 470.44 255.08V259H468.676V252.084ZM482.817 250.166C482.817 250.427 482.724 250.661 482.537 250.866C482.36 251.071 482.108 251.174 481.781 251.174C481.445 251.174 481.188 251.071 481.011 250.866C480.834 250.661 480.745 250.427 480.745 250.166C480.745 249.895 480.834 249.662 481.011 249.466C481.188 249.261 481.445 249.158 481.781 249.158C482.108 249.158 482.36 249.261 482.537 249.466C482.724 249.662 482.817 249.895 482.817 250.166ZM480.885 252.084H482.649V259H480.885V252.084ZM484.508 248.85H486.272V259H484.508V248.85ZM488.131 248.85H489.895V259H488.131V248.85ZM493.686 250.166C493.686 250.427 493.593 250.661 493.406 250.866C493.229 251.071 492.977 251.174 492.65 251.174C492.314 251.174 492.057 251.071 491.88 250.866C491.703 250.661 491.614 250.427 491.614 250.166C491.614 249.895 491.703 249.662 491.88 249.466C492.057 249.261 492.314 249.158 492.65 249.158C492.977 249.158 493.229 249.261 493.406 249.466C493.593 249.662 493.686 249.895 493.686 250.166ZM491.754 252.084H493.518V259H491.754V252.084ZM498.695 257.04C498.695 256.9 498.653 256.783 498.569 256.69C498.494 256.587 498.382 256.503 498.233 256.438C498.093 256.373 497.925 256.317 497.729 256.27C497.533 256.214 497.318 256.158 497.085 256.102C496.814 256.037 496.558 255.953 496.315 255.85C496.072 255.747 495.858 255.617 495.671 255.458C495.494 255.29 495.349 255.094 495.237 254.87C495.125 254.646 495.069 254.375 495.069 254.058C495.069 253.713 495.134 253.409 495.265 253.148C495.405 252.877 495.596 252.653 495.839 252.476C496.082 252.289 496.371 252.149 496.707 252.056C497.043 251.963 497.407 251.916 497.799 251.916C498.415 251.916 498.947 252.014 499.395 252.21C499.843 252.397 500.188 252.649 500.431 252.966L499.451 253.974C499.264 253.769 499.031 253.601 498.751 253.47C498.48 253.339 498.196 253.274 497.897 253.274C497.617 253.274 497.37 253.33 497.155 253.442C496.94 253.554 496.833 253.736 496.833 253.988C496.833 254.128 496.87 254.245 496.945 254.338C497.029 254.431 497.141 254.515 497.281 254.59C497.43 254.655 497.603 254.716 497.799 254.772C497.995 254.819 498.21 254.87 498.443 254.926C498.704 254.991 498.956 255.075 499.199 255.178C499.451 255.281 499.666 255.416 499.843 255.584C500.03 255.743 500.179 255.934 500.291 256.158C500.403 256.382 500.459 256.653 500.459 256.97C500.459 257.334 500.384 257.651 500.235 257.922C500.095 258.193 499.894 258.421 499.633 258.608C499.381 258.795 499.078 258.935 498.723 259.028C498.378 259.121 498.004 259.168 497.603 259.168C496.922 259.168 496.343 259.07 495.867 258.874C495.4 258.678 495.046 258.426 494.803 258.118L495.755 257.096C495.97 257.32 496.231 257.497 496.539 257.628C496.847 257.749 497.183 257.81 497.547 257.81C497.874 257.81 498.144 257.749 498.359 257.628C498.583 257.497 498.695 257.301 498.695 257.04ZM504.908 259.168C504.33 259.168 503.826 259.075 503.396 258.888C502.967 258.701 502.603 258.445 502.304 258.118C502.015 257.782 501.796 257.395 501.646 256.956C501.506 256.517 501.436 256.046 501.436 255.542C501.436 255.029 501.506 254.553 501.646 254.114C501.786 253.666 501.996 253.283 502.276 252.966C502.556 252.639 502.906 252.383 503.326 252.196C503.746 252.009 504.236 251.916 504.796 251.916C505.356 251.916 505.846 252.005 506.266 252.182C506.686 252.359 507.032 252.607 507.302 252.924C507.573 253.241 507.774 253.619 507.904 254.058C508.044 254.487 508.114 254.959 508.114 255.472C508.114 255.565 508.105 255.673 508.086 255.794C508.077 255.915 508.063 256.013 508.044 256.088H503.228C503.256 256.34 503.322 256.569 503.424 256.774C503.536 256.97 503.672 257.138 503.83 257.278C503.998 257.418 504.18 257.525 504.376 257.6C504.582 257.665 504.792 257.698 505.006 257.698C505.408 257.698 505.744 257.628 506.014 257.488C506.285 257.348 506.504 257.171 506.672 256.956L507.666 257.992C507.405 258.347 507.041 258.631 506.574 258.846C506.108 259.061 505.552 259.168 504.908 259.168ZM504.796 253.26C504.348 253.26 503.984 253.405 503.704 253.694C503.424 253.983 503.261 254.366 503.214 254.842H506.35C506.304 254.366 506.14 253.983 505.86 253.694C505.59 253.405 505.235 253.26 504.796 253.26ZM512.399 259.168C511.811 259.168 511.302 259.07 510.873 258.874C510.453 258.669 510.107 258.398 509.837 258.062C509.566 257.726 509.365 257.343 509.235 256.914C509.104 256.475 509.039 256.018 509.039 255.542C509.039 255.066 509.099 254.613 509.221 254.184C509.351 253.745 509.547 253.358 509.809 253.022C510.079 252.686 510.425 252.42 510.845 252.224C511.265 252.019 511.764 251.916 512.343 251.916C512.921 251.916 513.411 252.019 513.813 252.224C514.223 252.429 514.559 252.691 514.821 253.008L513.645 254.072C513.486 253.876 513.309 253.727 513.113 253.624C512.917 253.512 512.669 253.456 512.371 253.456C511.885 253.456 511.507 253.643 511.237 254.016C510.966 254.38 510.831 254.889 510.831 255.542C510.831 256.195 510.971 256.709 511.251 257.082C511.531 257.446 511.913 257.628 512.399 257.628C512.688 257.628 512.94 257.572 513.155 257.46C513.369 257.348 513.556 257.189 513.715 256.984L514.877 258.062C514.615 258.379 514.275 258.645 513.855 258.86C513.444 259.065 512.959 259.168 512.399 259.168ZM518.895 259.168C518.316 259.168 517.808 259.075 517.369 258.888C516.94 258.692 516.576 258.431 516.277 258.104C515.988 257.777 515.768 257.395 515.619 256.956C515.479 256.508 515.409 256.037 515.409 255.542C515.409 255.047 515.479 254.581 515.619 254.142C515.768 253.703 515.988 253.321 516.277 252.994C516.576 252.658 516.94 252.397 517.369 252.21C517.808 252.014 518.316 251.916 518.895 251.916C519.474 251.916 519.978 252.014 520.407 252.21C520.846 252.397 521.205 252.658 521.485 252.994C521.774 253.321 521.989 253.703 522.129 254.142C522.278 254.581 522.353 255.047 522.353 255.542C522.353 256.037 522.278 256.508 522.129 256.956C521.989 257.395 521.774 257.777 521.485 258.104C521.205 258.431 520.846 258.692 520.407 258.888C519.978 259.075 519.474 259.168 518.895 259.168ZM517.215 255.542C517.215 256.223 517.36 256.76 517.649 257.152C517.948 257.544 518.363 257.74 518.895 257.74C519.418 257.74 519.824 257.544 520.113 257.152C520.412 256.76 520.561 256.223 520.561 255.542C520.561 254.861 520.412 254.324 520.113 253.932C519.824 253.54 519.418 253.344 518.895 253.344C518.363 253.344 517.948 253.54 517.649 253.932C517.36 254.324 517.215 254.861 517.215 255.542ZM523.719 252.084H525.385V253.204H525.469C525.628 252.831 525.875 252.523 526.211 252.28C526.556 252.037 526.967 251.916 527.443 251.916C528.32 251.916 528.95 252.149 529.333 252.616C529.725 253.073 529.921 253.769 529.921 254.702V259H528.157V255.052C528.157 254.492 528.054 254.077 527.849 253.806C527.653 253.535 527.317 253.4 526.841 253.4C526.393 253.4 526.052 253.549 525.819 253.848C525.595 254.137 525.483 254.562 525.483 255.122V259H523.719V252.084ZM534.224 259.168C533.785 259.168 533.384 259.079 533.02 258.902C532.656 258.725 532.343 258.482 532.082 258.174C531.82 257.857 531.615 257.479 531.466 257.04C531.316 256.592 531.242 256.102 531.242 255.57C531.242 255.029 531.316 254.534 531.466 254.086C531.615 253.638 531.82 253.255 532.082 252.938C532.343 252.611 532.656 252.359 533.02 252.182C533.384 252.005 533.785 251.916 534.224 251.916C534.765 251.916 535.218 252.042 535.582 252.294C535.955 252.546 536.221 252.873 536.38 253.274H536.464V248.85H538.228V259H536.562V257.698H536.478C536.31 258.155 536.025 258.515 535.624 258.776C535.232 259.037 534.765 259.168 534.224 259.168ZM534.756 257.628C535.278 257.628 535.694 257.441 536.002 257.068C536.31 256.695 536.464 256.186 536.464 255.542C536.464 254.898 536.31 254.389 536.002 254.016C535.694 253.643 535.278 253.456 534.756 253.456C534.233 253.456 533.818 253.643 533.51 254.016C533.202 254.389 533.048 254.898 533.048 255.542C533.048 256.186 533.202 256.695 533.51 257.068C533.818 257.441 534.233 257.628 534.756 257.628ZM543.402 257.04C543.402 256.9 543.36 256.783 543.276 256.69C543.201 256.587 543.089 256.503 542.94 256.438C542.8 256.373 542.632 256.317 542.436 256.27C542.24 256.214 542.025 256.158 541.792 256.102C541.521 256.037 541.265 255.953 541.022 255.85C540.779 255.747 540.565 255.617 540.378 255.458C540.201 255.29 540.056 255.094 539.944 254.87C539.832 254.646 539.776 254.375 539.776 254.058C539.776 253.713 539.841 253.409 539.972 253.148C540.112 252.877 540.303 252.653 540.546 252.476C540.789 252.289 541.078 252.149 541.414 252.056C541.75 251.963 542.114 251.916 542.506 251.916C543.122 251.916 543.654 252.014 544.102 252.21C544.55 252.397 544.895 252.649 545.138 252.966L544.158 253.974C543.971 253.769 543.738 253.601 543.458 253.47C543.187 253.339 542.903 253.274 542.604 253.274C542.324 253.274 542.077 253.33 541.862 253.442C541.647 253.554 541.54 253.736 541.54 253.988C541.54 254.128 541.577 254.245 541.652 254.338C541.736 254.431 541.848 254.515 541.988 254.59C542.137 254.655 542.31 254.716 542.506 254.772C542.702 254.819 542.917 254.87 543.15 254.926C543.411 254.991 543.663 255.075 543.906 255.178C544.158 255.281 544.373 255.416 544.55 255.584C544.737 255.743 544.886 255.934 544.998 256.158C545.11 256.382 545.166 256.653 545.166 256.97C545.166 257.334 545.091 257.651 544.942 257.922C544.802 258.193 544.601 258.421 544.34 258.608C544.088 258.795 543.785 258.935 543.43 259.028C543.085 259.121 542.711 259.168 542.31 259.168C541.629 259.168 541.05 259.07 540.574 258.874C540.107 258.678 539.753 258.426 539.51 258.118L540.462 257.096C540.677 257.32 540.938 257.497 541.246 257.628C541.554 257.749 541.89 257.81 542.254 257.81C542.581 257.81 542.851 257.749 543.066 257.628C543.29 257.497 543.402 257.301 543.402 257.04ZM550.081 255.164C550.081 254.436 550.179 253.745 550.375 253.092C550.58 252.429 550.851 251.823 551.187 251.272C551.523 250.712 551.905 250.217 552.335 249.788C552.773 249.349 553.226 248.99 553.693 248.71L554.295 249.27C554.015 249.55 553.739 249.9 553.469 250.32C553.198 250.731 552.955 251.193 552.741 251.706C552.535 252.21 552.367 252.756 552.237 253.344C552.106 253.932 552.041 254.539 552.041 255.164C552.041 255.799 552.106 256.41 552.237 256.998C552.367 257.577 552.535 258.123 552.741 258.636C552.955 259.14 553.198 259.597 553.469 260.008C553.739 260.428 554.015 260.778 554.295 261.058L553.693 261.632C553.226 261.352 552.773 260.993 552.335 260.554C551.905 260.115 551.523 259.616 551.187 259.056C550.851 258.505 550.58 257.903 550.375 257.25C550.179 256.587 550.081 255.892 550.081 255.164ZM555.315 252.084H556.981V253.134H557.065C557.242 252.77 557.489 252.476 557.807 252.252C558.133 252.028 558.53 251.916 558.997 251.916C560.135 251.916 560.868 252.345 561.195 253.204C561.372 252.812 561.647 252.499 562.021 252.266C562.394 252.033 562.833 251.916 563.337 251.916C564.177 251.916 564.793 252.149 565.185 252.616C565.577 253.073 565.773 253.769 565.773 254.702V259H564.009V254.996C564.009 253.932 563.584 253.4 562.735 253.4C562.296 253.4 561.965 253.545 561.741 253.834C561.526 254.123 561.419 254.539 561.419 255.08V259H559.655V254.996C559.655 254.464 559.552 254.067 559.347 253.806C559.151 253.535 558.829 253.4 558.381 253.4C557.961 253.4 557.639 253.545 557.415 253.834C557.191 254.123 557.079 254.539 557.079 255.08V259H555.315V252.084ZM570.842 257.04C570.842 256.9 570.8 256.783 570.716 256.69C570.641 256.587 570.529 256.503 570.38 256.438C570.24 256.373 570.072 256.317 569.876 256.27C569.68 256.214 569.465 256.158 569.232 256.102C568.961 256.037 568.704 255.953 568.462 255.85C568.219 255.747 568.004 255.617 567.818 255.458C567.64 255.29 567.496 255.094 567.384 254.87C567.272 254.646 567.216 254.375 567.216 254.058C567.216 253.713 567.281 253.409 567.412 253.148C567.552 252.877 567.743 252.653 567.986 252.476C568.228 252.289 568.518 252.149 568.854 252.056C569.19 251.963 569.554 251.916 569.946 251.916C570.562 251.916 571.094 252.014 571.542 252.21C571.99 252.397 572.335 252.649 572.578 252.966L571.598 253.974C571.411 253.769 571.178 253.601 570.898 253.47C570.627 253.339 570.342 253.274 570.044 253.274C569.764 253.274 569.516 253.33 569.302 253.442C569.087 253.554 568.98 253.736 568.98 253.988C568.98 254.128 569.017 254.245 569.092 254.338C569.176 254.431 569.288 254.515 569.428 254.59C569.577 254.655 569.75 254.716 569.946 254.772C570.142 254.819 570.356 254.87 570.59 254.926C570.851 254.991 571.103 255.075 571.346 255.178C571.598 255.281 571.812 255.416 571.99 255.584C572.176 255.743 572.326 255.934 572.438 256.158C572.55 256.382 572.606 256.653 572.606 256.97C572.606 257.334 572.531 257.651 572.382 257.922C572.242 258.193 572.041 258.421 571.78 258.608C571.528 258.795 571.224 258.935 570.87 259.028C570.524 259.121 570.151 259.168 569.75 259.168C569.068 259.168 568.49 259.07 568.014 258.874C567.547 258.678 567.192 258.426 566.95 258.118L567.902 257.096C568.116 257.32 568.378 257.497 568.686 257.628C568.994 257.749 569.33 257.81 569.694 257.81C570.02 257.81 570.291 257.749 570.506 257.628C570.73 257.497 570.842 257.301 570.842 257.04ZM575.268 255.164C575.268 254.539 575.203 253.932 575.072 253.344C574.941 252.756 574.769 252.21 574.554 251.706C574.349 251.193 574.111 250.731 573.84 250.32C573.569 249.9 573.294 249.55 573.014 249.27L573.616 248.71C574.083 248.99 574.531 249.349 574.96 249.788C575.399 250.217 575.786 250.712 576.122 251.272C576.458 251.823 576.724 252.429 576.92 253.092C577.125 253.745 577.228 254.436 577.228 255.164C577.228 255.892 577.125 256.587 576.92 257.25C576.724 257.903 576.458 258.505 576.122 259.056C575.786 259.616 575.399 260.115 574.96 260.554C574.531 260.993 574.083 261.352 573.616 261.632L573.014 261.058C573.294 260.778 573.569 260.428 573.84 260.008C574.111 259.597 574.349 259.14 574.554 258.636C574.769 258.123 574.941 257.577 575.072 256.998C575.203 256.41 575.268 255.799 575.268 255.164Z" fill="#3C4C4F"/>
<ellipse cx="113.947" cy="160" rx="3.94682" ry="4" fill="#FF8000"/>
<ellipse cx="320.947" cy="160" rx="3.94682" ry="4" fill="#FF8000"/>
<path d="M115 160L321 160" stroke="#FF8000" stroke-width="2"/>
<ellipse cx="113.947" cy="90" rx="3.94682" ry="4" fill="#FF8000"/>
<ellipse cx="320.947" cy="90" rx="3.94682" ry="4" fill="#FF8000"/>
<path d="M113 90H319" stroke="#FF8000" stroke-width="2"/>
</svg>
