<svg width="168" height="140" viewBox="0 0 168 140" fill="none" xmlns="http://www.w3.org/2000/svg">
<g filter="url(#filter0_d_3763_4087)">
<g clip-path="url(#clip0_3763_4087)">
<path d="M4 12C4 5.37258 9.37258 0 16 0H152C158.627 0 164 5.37258 164 12V120C164 126.627 158.627 132 152 132H16C9.37258 132 4 126.627 4 120V12Z" fill="#F1F1F1" fill-opacity="0.82" shape-rendering="crispEdges"/>
<path d="M41.4536 28.2822C40.5793 28.2822 39.8156 28.1411 39.1626 27.8589C38.5151 27.5711 38.0005 27.1782 37.6187 26.6802C37.2424 26.1766 37.0238 25.6011 36.9629 24.9536L36.9546 24.8623H38.4487L38.457 24.9536C38.4958 25.3521 38.6479 25.6979 38.9136 25.9912C39.1847 26.279 39.5444 26.5031 39.9927 26.6636C40.4465 26.8241 40.9611 26.9043 41.5366 26.9043C42.0789 26.9043 42.5604 26.8185 42.981 26.647C43.4071 26.4699 43.7419 26.2264 43.9854 25.9165C44.2288 25.6066 44.3506 25.2497 44.3506 24.8457V24.8374C44.3506 24.3394 44.168 23.9215 43.8027 23.584C43.4375 23.2409 42.8426 22.978 42.0181 22.7954L40.6899 22.5049C39.4891 22.2393 38.6147 21.8298 38.0669 21.2764C37.5246 20.7174 37.2534 20.0036 37.2534 19.1348V19.1265C37.259 18.4624 37.4388 17.8758 37.793 17.3667C38.1527 16.8576 38.6479 16.4591 39.2788 16.1714C39.9152 15.8836 40.6457 15.7397 41.4702 15.7397C42.2671 15.7397 42.9727 15.8836 43.5869 16.1714C44.2012 16.4536 44.6882 16.8354 45.0479 17.3169C45.4131 17.7983 45.6151 18.3379 45.6538 18.9355L45.6621 19.0518H44.168L44.1514 18.9438C44.096 18.5897 43.9521 18.277 43.7197 18.0059C43.4873 17.7292 43.1774 17.5106 42.79 17.3501C42.4027 17.1896 41.9489 17.1121 41.4287 17.1177C40.9307 17.1177 40.4824 17.1951 40.084 17.3501C39.6855 17.505 39.3674 17.7292 39.1294 18.0225C38.897 18.3102 38.7808 18.6644 38.7808 19.085V19.0933C38.7808 19.5692 38.9578 19.9704 39.312 20.2969C39.6662 20.6234 40.25 20.8752 41.0635 21.0522L42.3916 21.3511C43.2272 21.5337 43.8996 21.7716 44.4087 22.0649C44.9178 22.3582 45.2886 22.7179 45.521 23.144C45.759 23.5646 45.8779 24.0627 45.8779 24.6382V24.6465C45.8779 25.3936 45.6953 26.0382 45.3301 26.5806C44.9648 27.1229 44.4502 27.5435 43.7861 27.8423C43.1221 28.1356 42.3446 28.2822 41.4536 28.2822ZM51.8628 28.1577C51.0161 28.1577 50.2829 27.9723 49.6631 27.6016C49.0488 27.2253 48.5729 26.6912 48.2354 25.9995C47.9033 25.3078 47.7373 24.486 47.7373 23.5342V23.5176C47.7373 22.5602 47.9033 21.7357 48.2354 21.0439C48.5729 20.3522 49.0488 19.821 49.6631 19.4502C50.2829 19.0794 51.0161 18.894 51.8628 18.894C52.715 18.894 53.4482 19.0794 54.0625 19.4502C54.6768 19.821 55.1499 20.3522 55.4819 21.0439C55.8195 21.7357 55.9883 22.5602 55.9883 23.5176V23.5342C55.9883 24.486 55.8195 25.3078 55.4819 25.9995C55.1499 26.6912 54.6768 27.2253 54.0625 27.6016C53.4482 27.9723 52.715 28.1577 51.8628 28.1577ZM51.8628 26.8794C52.4272 26.8794 52.9059 26.7466 53.2988 26.481C53.6917 26.2153 53.9906 25.8335 54.1953 25.3354C54.4056 24.8374 54.5107 24.237 54.5107 23.5342V23.5176C54.5107 22.8092 54.4056 22.2061 54.1953 21.708C53.9906 21.21 53.6917 20.8309 53.2988 20.5708C52.9059 20.3052 52.4272 20.1724 51.8628 20.1724C51.2983 20.1724 50.8197 20.3052 50.4268 20.5708C50.0339 20.8309 49.7323 21.21 49.522 21.708C49.3172 22.2061 49.2148 22.8092 49.2148 23.5176V23.5342C49.2148 24.237 49.3172 24.8374 49.522 25.3354C49.7323 25.8335 50.0339 26.2153 50.4268 26.481C50.8197 26.7466 51.2983 26.8794 51.8628 26.8794ZM58.2295 28V19.0518H59.6738V20.3799H59.8066C59.9782 19.9095 60.2687 19.5443 60.6782 19.2842C61.0877 19.0241 61.5941 18.894 62.1973 18.894C62.3356 18.894 62.4712 18.9023 62.604 18.9189C62.7424 18.93 62.8475 18.9411 62.9194 18.9521V20.355C62.77 20.3273 62.6234 20.3079 62.4795 20.2969C62.3411 20.2803 62.1917 20.272 62.0312 20.272C61.5719 20.272 61.1652 20.3633 60.811 20.5459C60.4569 20.7285 60.1774 20.9831 59.9727 21.3096C59.7734 21.6361 59.6738 22.0179 59.6738 22.4551V28H58.2295ZM68.0493 28.0664C67.1307 28.0664 66.4639 27.881 66.0488 27.5103C65.6393 27.1395 65.4346 26.528 65.4346 25.6758V20.2471H64.0234V19.0518H65.4346V16.7358H66.9287V19.0518H68.8877V20.2471H66.9287V25.3105C66.9287 25.8363 67.0283 26.2153 67.2275 26.4478C67.4268 26.6746 67.7588 26.7881 68.2236 26.7881C68.3509 26.7881 68.4588 26.7853 68.5474 26.7798C68.6414 26.7743 68.7549 26.766 68.8877 26.7549V27.9834C68.7493 28.0055 68.611 28.0249 68.4727 28.0415C68.3343 28.0581 68.1932 28.0664 68.0493 28.0664ZM71.0791 28V19.0518H72.5234V28H71.0791ZM71.8096 17.3252C71.5384 17.3252 71.3032 17.2284 71.104 17.0347C70.9103 16.8354 70.8135 16.6003 70.8135 16.3291C70.8135 16.0524 70.9103 15.8172 71.104 15.6235C71.3032 15.4299 71.5384 15.333 71.8096 15.333C72.0863 15.333 72.3215 15.4299 72.5151 15.6235C72.7088 15.8172 72.8057 16.0524 72.8057 16.3291C72.8057 16.6003 72.7088 16.8354 72.5151 17.0347C72.3215 17.2284 72.0863 17.3252 71.8096 17.3252ZM75.2461 28V19.0518H76.6904V20.3965H76.8232C77.0501 19.9206 77.3766 19.5526 77.8027 19.2925C78.2288 19.0269 78.7712 18.894 79.4297 18.894C80.4368 18.894 81.2088 19.1818 81.7456 19.7573C82.2879 20.3273 82.5591 21.1436 82.5591 22.2061V28H81.1147V22.5547C81.1147 21.7467 80.9432 21.1491 80.6001 20.7617C80.2625 20.3688 79.7368 20.1724 79.0229 20.1724C78.547 20.1724 78.1348 20.2747 77.7861 20.4795C77.4375 20.6842 77.1663 20.9748 76.9727 21.3511C76.7845 21.7274 76.6904 22.1784 76.6904 22.7041V28H75.2461ZM88.8594 31.1543C88.14 31.1543 87.5119 31.0519 86.9751 30.8472C86.4383 30.6479 86.0094 30.363 85.6885 29.9922C85.373 29.627 85.1766 29.2008 85.0991 28.7139L85.1157 28.7056H86.6099L86.6182 28.7139C86.6956 29.0514 86.9281 29.3281 87.3154 29.5439C87.7028 29.7653 88.2174 29.876 88.8594 29.876C89.6618 29.876 90.2871 29.6934 90.7354 29.3281C91.1891 28.9684 91.416 28.4593 91.416 27.8008V25.9912H91.2832C91.0951 26.3177 90.8599 26.5972 90.5776 26.8296C90.2954 27.062 89.9772 27.2391 89.623 27.3608C89.2689 27.4771 88.887 27.5352 88.4775 27.5352C87.7083 27.5352 87.0415 27.3525 86.4771 26.9873C85.9181 26.6165 85.4865 26.1074 85.1821 25.46C84.8778 24.8125 84.7256 24.071 84.7256 23.2354V23.2188C84.7256 22.3831 84.8778 21.6416 85.1821 20.9941C85.492 20.3411 85.9292 19.8293 86.4937 19.4585C87.0581 19.0822 87.7305 18.894 88.5107 18.894C88.9313 18.894 89.3187 18.9604 89.6729 19.0933C90.027 19.2261 90.3397 19.4142 90.6108 19.6577C90.8875 19.9012 91.1172 20.1917 91.2998 20.5293H91.3994V19.0518H92.8438V27.8755C92.8438 28.5396 92.6805 29.1178 92.354 29.6104C92.033 30.1029 91.5737 30.4819 90.9761 30.7476C90.3784 31.0187 89.6729 31.1543 88.8594 31.1543ZM88.793 26.2568C89.3464 26.2568 89.8195 26.1296 90.2124 25.875C90.6108 25.6149 90.9152 25.258 91.1255 24.8042C91.3413 24.3504 91.4492 23.8275 91.4492 23.2354V23.2188C91.4492 22.6266 91.3413 22.1009 91.1255 21.6416C90.9152 21.1823 90.6108 20.8226 90.2124 20.5625C89.8195 20.3024 89.3464 20.1724 88.793 20.1724C88.2396 20.1724 87.7692 20.3024 87.3818 20.5625C87 20.8226 86.7067 21.1823 86.502 21.6416C86.3027 22.1009 86.2031 22.6266 86.2031 23.2188V23.2354C86.2031 23.8275 86.3027 24.3504 86.502 24.8042C86.7067 25.258 87 25.6149 87.3818 25.875C87.7692 26.1296 88.2396 26.2568 88.793 26.2568Z" fill="black"/>
<path d="M133 21.3438H139.816L139.265 22.6563H133V21.3438ZM141.286 17.8438H133V19.1563H140.735L141.286 17.8438ZM133 26.1563H137.786L138.346 24.8438H133V26.1563ZM145.994 23.6538L144.156 25.5V20.25H142.844V25.5L141.006 23.6538L140.079 24.625L142.704 27.25C142.804 27.3527 142.924 27.4342 143.056 27.4899C143.188 27.5456 143.33 27.5743 143.474 27.5743C143.617 27.5743 143.759 27.5456 143.892 27.4899C144.024 27.4342 144.144 27.3527 144.244 27.25L146.869 24.625L145.994 23.6538Z" fill="#242E30"/>
<path d="M4 44H164" stroke="#3C3C43" stroke-opacity="0.36"/>
<path d="M42.5576 72.2822C41.4121 72.2822 40.4299 72.0277 39.6108 71.5186C38.7918 71.0039 38.161 70.2762 37.7183 69.3354C37.2811 68.3947 37.0625 67.2879 37.0625 66.0151V65.9985C37.0625 64.7147 37.2839 63.6051 37.7266 62.6699C38.1748 61.7347 38.8084 61.0125 39.6274 60.5034C40.452 59.9943 41.4287 59.7397 42.5576 59.7397C43.6921 59.7397 44.6688 59.9943 45.4878 60.5034C46.3123 61.0125 46.946 61.7375 47.3887 62.6782C47.8314 63.6134 48.0527 64.7202 48.0527 65.9985V66.0151C48.0527 67.2879 47.8314 68.3947 47.3887 69.3354C46.9515 70.2707 46.3206 70.9956 45.4961 71.5103C44.6771 72.0249 43.6976 72.2822 42.5576 72.2822ZM42.5576 70.9043C43.3766 70.9043 44.0822 70.7023 44.6743 70.2983C45.2664 69.8944 45.723 69.3271 46.0439 68.5967C46.3649 67.8607 46.5254 67.0002 46.5254 66.0151V65.9985C46.5254 65.0024 46.3649 64.1392 46.0439 63.4087C45.723 62.6782 45.2664 62.1138 44.6743 61.7153C44.0822 61.3169 43.3766 61.1177 42.5576 61.1177C41.7441 61.1177 41.0413 61.3169 40.4492 61.7153C39.8571 62.1138 39.3978 62.6782 39.0713 63.4087C38.7503 64.1392 38.5898 65.0024 38.5898 65.9985V66.0151C38.5898 67.0002 38.7476 67.8607 39.063 68.5967C39.3784 69.3271 39.8322 69.8944 40.4243 70.2983C41.0164 70.7023 41.7275 70.9043 42.5576 70.9043ZM51.0576 72V64.2471H49.5718V63.0518H51.0576V62.0557C51.0576 61.458 51.1545 60.9655 51.3481 60.5781C51.5474 60.1852 51.8407 59.8947 52.228 59.7065C52.6154 59.5129 53.0913 59.416 53.6558 59.416C53.8328 59.416 53.9989 59.4243 54.1538 59.4409C54.3143 59.452 54.4692 59.4714 54.6187 59.499V60.6528C54.5301 60.6362 54.4277 60.6252 54.3115 60.6196C54.1953 60.6141 54.0736 60.6113 53.9463 60.6113C53.4316 60.6113 53.0609 60.7358 52.834 60.9849C52.6126 61.2339 52.502 61.6047 52.502 62.0972V63.0518H54.5356V64.2471H52.502V72H51.0576ZM57.2168 72V64.2471H55.731V63.0518H57.2168V62.0557C57.2168 61.458 57.3136 60.9655 57.5073 60.5781C57.7065 60.1852 57.9998 59.8947 58.3872 59.7065C58.7746 59.5129 59.2505 59.416 59.8149 59.416C59.992 59.416 60.158 59.4243 60.313 59.4409C60.4735 59.452 60.6284 59.4714 60.7778 59.499V60.6528C60.6893 60.6362 60.5869 60.6252 60.4707 60.6196C60.3545 60.6141 60.2327 60.6113 60.1055 60.6113C59.5908 60.6113 59.2201 60.7358 58.9932 60.9849C58.7718 61.2339 58.6611 61.6047 58.6611 62.0972V63.0518H60.6948V64.2471H58.6611V72H57.2168ZM66.0654 72.1577C65.2132 72.1577 64.48 71.9696 63.8657 71.5933C63.257 71.217 62.7866 70.6857 62.4546 69.9995C62.1281 69.3078 61.9648 68.4943 61.9648 67.5591V67.5508C61.9648 66.6266 62.1281 65.8159 62.4546 65.1187C62.7866 64.4214 63.2542 63.8763 63.8574 63.4834C64.4606 63.0905 65.1662 62.894 65.9741 62.894C66.7876 62.894 67.4849 63.0822 68.0659 63.4585C68.6525 63.8348 69.1007 64.3605 69.4106 65.0356C69.7261 65.7052 69.8838 66.4855 69.8838 67.3765V67.9409H62.7119V66.7871H69.145L68.4312 67.8413V67.2686C68.4312 66.5658 68.326 65.9875 68.1157 65.5337C67.9054 65.0799 67.6149 64.7424 67.2441 64.521C66.8734 64.2941 66.4473 64.1807 65.9658 64.1807C65.4844 64.1807 65.0527 64.2996 64.6709 64.5376C64.2946 64.77 63.9958 65.1159 63.7744 65.5752C63.5531 66.0345 63.4424 66.599 63.4424 67.2686V67.8413C63.4424 68.4777 63.5503 69.0228 63.7661 69.4766C63.9819 69.9248 64.2891 70.2707 64.6875 70.5142C65.0859 70.7521 65.5563 70.8711 66.0986 70.8711C66.5026 70.8711 66.854 70.8158 67.1528 70.7051C67.4517 70.5944 67.6979 70.4533 67.8916 70.2817C68.0853 70.1102 68.2209 69.9359 68.2983 69.7588L68.3315 69.6841H69.7759L69.7593 69.7505C69.6818 70.0549 69.5435 70.3509 69.3442 70.6387C69.1506 70.9209 68.8988 71.1782 68.5889 71.4106C68.279 71.6375 67.911 71.8201 67.4849 71.9585C67.0643 72.0913 66.5911 72.1577 66.0654 72.1577ZM72.125 72V63.0518H73.5693V64.3799H73.7021C73.8737 63.9095 74.1642 63.5443 74.5737 63.2842C74.9832 63.0241 75.4896 62.894 76.0928 62.894C76.2311 62.894 76.3667 62.9023 76.4995 62.9189C76.6379 62.93 76.743 62.9411 76.8149 62.9521V64.355C76.6655 64.3273 76.5189 64.3079 76.375 64.2969C76.2367 64.2803 76.0872 64.272 75.9268 64.272C75.4674 64.272 75.0607 64.3633 74.7065 64.5459C74.3524 64.7285 74.0729 64.9831 73.8682 65.3096C73.6689 65.6361 73.5693 66.0179 73.5693 66.4551V72H72.125ZM81.5049 72.1577C80.8408 72.1577 80.2542 72.0581 79.7451 71.8589C79.236 71.6541 78.8265 71.3691 78.5166 71.0039C78.2122 70.6387 78.0324 70.2098 77.9771 69.7173H79.4546C79.5763 70.0881 79.8143 70.3869 80.1685 70.6138C80.5226 70.8407 80.9847 70.9541 81.5547 70.9541C81.9587 70.9541 82.3128 70.896 82.6172 70.7798C82.9271 70.658 83.1706 70.4948 83.3477 70.29C83.5247 70.0798 83.6133 69.839 83.6133 69.5679V69.5513C83.6133 69.2469 83.4915 68.9896 83.248 68.7793C83.0046 68.5635 82.6061 68.3892 82.0527 68.2563L80.6665 67.9243C80.1076 67.7915 79.6483 67.62 79.2886 67.4097C78.9289 67.1938 78.6632 66.931 78.4917 66.6211C78.3201 66.3057 78.2344 65.9349 78.2344 65.5088V65.5005C78.2344 65.0024 78.3783 64.557 78.666 64.1641C78.9593 63.7712 79.3577 63.4613 79.8613 63.2344C80.3649 63.0075 80.9321 62.894 81.563 62.894C82.1883 62.894 82.7417 62.9937 83.2231 63.1929C83.7101 63.3866 84.1003 63.6632 84.3936 64.0229C84.6924 64.3826 84.875 64.806 84.9414 65.293H83.522C83.4279 64.9388 83.2121 64.651 82.8745 64.4297C82.5369 64.2083 82.097 64.0977 81.5547 64.0977C81.2005 64.0977 80.8851 64.1558 80.6084 64.272C80.3317 64.3826 80.1131 64.5376 79.9526 64.7368C79.7922 64.936 79.7119 65.1685 79.7119 65.4341V65.4507C79.7119 65.6499 79.7645 65.827 79.8696 65.9819C79.9748 66.1369 80.138 66.2725 80.3594 66.3887C80.5807 66.5049 80.8657 66.6073 81.2144 66.6958L82.5923 67.0278C83.4334 67.2326 84.0588 67.5259 84.4683 67.9077C84.8833 68.2896 85.0908 68.8014 85.0908 69.4434V69.46C85.0908 69.9912 84.9331 70.4616 84.6177 70.8711C84.3022 71.2751 83.8734 71.5905 83.3311 71.8174C82.7943 72.0443 82.1855 72.1577 81.5049 72.1577Z" fill="black"/>
<g clip-path="url(#clip1_3763_4087)">
<path d="M139.676 72.9388L133.087 66.35L139.466 59.9625C139.612 59.8178 139.788 59.7067 139.982 59.6372C140.175 59.5677 140.381 59.5413 140.586 59.56L145.924 60.0938L146.457 65.44C146.478 65.6429 146.454 65.8478 146.386 66.0401C146.318 66.2323 146.208 66.4069 146.064 66.5513L139.676 72.9388ZM134.942 66.35L139.676 71.0838L145.136 65.6238L144.725 61.2925L140.455 60.8725L134.942 66.35ZM142.625 62.5C142.452 62.5 142.283 62.5514 142.139 62.6475C141.995 62.7437 141.883 62.8803 141.817 63.0402C141.75 63.2001 141.733 63.376 141.767 63.5457C141.8 63.7155 141.884 63.8714 142.006 63.9938C142.129 64.1161 142.284 64.1995 142.454 64.2332C142.624 64.267 142.8 64.2497 142.96 64.1834C143.12 64.1172 143.256 64.0051 143.352 63.8612C143.449 63.7173 143.5 63.5481 143.5 63.375C143.5 63.143 143.408 62.9204 143.244 62.7563C143.08 62.5922 142.857 62.5 142.625 62.5Z" fill="#242E30"/>
</g>
<path d="M4 88H164" stroke="#3C3C43" stroke-opacity="0.36"/>
<path d="M42.3501 116.282C41.2655 116.282 40.3275 116.028 39.5361 115.519C38.7448 115.009 38.1333 114.287 37.7017 113.352C37.2756 112.417 37.0625 111.307 37.0625 110.023V110.007C37.0625 108.717 37.2756 107.605 37.7017 106.67C38.1333 105.735 38.742 105.013 39.5278 104.503C40.3192 103.994 41.2572 103.74 42.3418 103.74C43.1829 103.74 43.9466 103.906 44.6328 104.238C45.3245 104.564 45.8945 105.021 46.3428 105.607C46.791 106.188 47.0732 106.861 47.1895 107.625L47.1812 107.641H45.6787L45.6704 107.625C45.5376 107.11 45.3135 106.667 44.998 106.296C44.6826 105.92 44.298 105.63 43.8442 105.425C43.396 105.22 42.8952 105.118 42.3418 105.118C41.5781 105.118 40.9141 105.317 40.3496 105.715C39.7907 106.114 39.359 106.678 39.0547 107.409C38.7503 108.139 38.5981 109.005 38.5981 110.007V110.023C38.5981 111.02 38.7503 111.883 39.0547 112.613C39.359 113.344 39.7907 113.908 40.3496 114.307C40.9141 114.705 41.5809 114.904 42.3501 114.904C42.909 114.904 43.4154 114.816 43.8691 114.639C44.3229 114.456 44.7048 114.199 45.0146 113.867C45.3245 113.529 45.5404 113.131 45.6621 112.671L45.6787 112.655H47.1895V112.671C47.0566 113.402 46.7689 114.038 46.3262 114.581C45.8835 115.117 45.3218 115.535 44.6411 115.834C43.966 116.133 43.2023 116.282 42.3501 116.282ZM52.5103 116.158C51.8351 116.158 51.2679 116.03 50.8086 115.776C50.3493 115.516 50.0034 115.139 49.771 114.647C49.5441 114.149 49.4307 113.549 49.4307 112.846V107.052H50.875V112.497C50.875 113.299 51.0299 113.897 51.3398 114.29C51.6553 114.683 52.1699 114.879 52.8838 114.879C53.2767 114.879 53.6226 114.821 53.9214 114.705C54.2257 114.589 54.4803 114.423 54.6851 114.207C54.8898 113.986 55.042 113.72 55.1416 113.41C55.2467 113.095 55.2993 112.741 55.2993 112.348V107.052H56.7437V116H55.2993V114.664H55.1665C55.0226 114.979 54.8262 115.25 54.5771 115.477C54.3281 115.698 54.0293 115.867 53.6807 115.983C53.3376 116.1 52.9474 116.158 52.5103 116.158ZM59.4746 116V107.052H60.9189V116H59.4746ZM60.2051 105.325C59.9339 105.325 59.6987 105.228 59.4995 105.035C59.3058 104.835 59.209 104.6 59.209 104.329C59.209 104.052 59.3058 103.817 59.4995 103.624C59.6987 103.43 59.9339 103.333 60.2051 103.333C60.4818 103.333 60.717 103.43 60.9106 103.624C61.1043 103.817 61.2012 104.052 61.2012 104.329C61.2012 104.6 61.1043 104.835 60.9106 105.035C60.717 105.228 60.4818 105.325 60.2051 105.325ZM66.7129 116.158C66.0488 116.158 65.4622 116.058 64.9531 115.859C64.444 115.654 64.0345 115.369 63.7246 115.004C63.4202 114.639 63.2404 114.21 63.1851 113.717H64.6626C64.7843 114.088 65.0223 114.387 65.3765 114.614C65.7306 114.841 66.1927 114.954 66.7627 114.954C67.1667 114.954 67.5208 114.896 67.8252 114.78C68.1351 114.658 68.3786 114.495 68.5557 114.29C68.7327 114.08 68.8213 113.839 68.8213 113.568V113.551C68.8213 113.247 68.6995 112.99 68.4561 112.779C68.2126 112.563 67.8141 112.389 67.2607 112.256L65.8745 111.924C65.3156 111.792 64.8563 111.62 64.4966 111.41C64.1369 111.194 63.8713 110.931 63.6997 110.621C63.5282 110.306 63.4424 109.935 63.4424 109.509V109.5C63.4424 109.002 63.5863 108.557 63.874 108.164C64.1673 107.771 64.5658 107.461 65.0693 107.234C65.5729 107.007 66.1401 106.894 66.771 106.894C67.3963 106.894 67.9497 106.994 68.4312 107.193C68.9181 107.387 69.3083 107.663 69.6016 108.023C69.9004 108.383 70.083 108.806 70.1494 109.293H68.73C68.6359 108.939 68.4201 108.651 68.0825 108.43C67.745 108.208 67.305 108.098 66.7627 108.098C66.4085 108.098 66.0931 108.156 65.8164 108.272C65.5397 108.383 65.3211 108.538 65.1606 108.737C65.0002 108.936 64.9199 109.168 64.9199 109.434V109.451C64.9199 109.65 64.9725 109.827 65.0776 109.982C65.1828 110.137 65.346 110.272 65.5674 110.389C65.7887 110.505 66.0737 110.607 66.4224 110.696L67.8003 111.028C68.6414 111.233 69.2668 111.526 69.6763 111.908C70.0913 112.29 70.2988 112.801 70.2988 113.443V113.46C70.2988 113.991 70.1411 114.462 69.8257 114.871C69.5103 115.275 69.0814 115.59 68.5391 115.817C68.0023 116.044 67.3936 116.158 66.7129 116.158ZM72.5732 116V107.052H74.0176V116H72.5732ZM73.3037 105.325C73.0326 105.325 72.7974 105.228 72.5981 105.035C72.4045 104.835 72.3076 104.6 72.3076 104.329C72.3076 104.052 72.4045 103.817 72.5981 103.624C72.7974 103.43 73.0326 103.333 73.3037 103.333C73.5804 103.333 73.8156 103.43 74.0093 103.624C74.203 103.817 74.2998 104.052 74.2998 104.329C74.2998 104.6 74.203 104.835 74.0093 105.035C73.8156 105.228 73.5804 105.325 73.3037 105.325ZM76.7402 116V107.052H78.1846V108.396H78.3174C78.5443 107.921 78.8708 107.553 79.2969 107.292C79.723 107.027 80.2653 106.894 80.9238 106.894C81.931 106.894 82.703 107.182 83.2397 107.757C83.7821 108.327 84.0532 109.144 84.0532 110.206V116H82.6089V110.555C82.6089 109.747 82.4373 109.149 82.0942 108.762C81.7567 108.369 81.231 108.172 80.5171 108.172C80.0412 108.172 79.6289 108.275 79.2803 108.479C78.9316 108.684 78.6605 108.975 78.4668 109.351C78.2786 109.727 78.1846 110.178 78.1846 110.704V116H76.7402ZM90.3203 116.158C89.4681 116.158 88.7349 115.97 88.1206 115.593C87.5119 115.217 87.0415 114.686 86.7095 114C86.383 113.308 86.2197 112.494 86.2197 111.559V111.551C86.2197 110.627 86.383 109.816 86.7095 109.119C87.0415 108.421 87.5091 107.876 88.1123 107.483C88.7155 107.09 89.4211 106.894 90.229 106.894C91.0425 106.894 91.7397 107.082 92.3208 107.458C92.9074 107.835 93.3556 108.361 93.6655 109.036C93.981 109.705 94.1387 110.486 94.1387 111.376V111.941H86.9668V110.787H93.3999L92.686 111.841V111.269C92.686 110.566 92.5809 109.987 92.3706 109.534C92.1603 109.08 91.8698 108.742 91.499 108.521C91.1283 108.294 90.7021 108.181 90.2207 108.181C89.7393 108.181 89.3076 108.3 88.9258 108.538C88.5495 108.77 88.2507 109.116 88.0293 109.575C87.8079 110.035 87.6973 110.599 87.6973 111.269V111.841C87.6973 112.478 87.8052 113.023 88.021 113.477C88.2368 113.925 88.5439 114.271 88.9424 114.514C89.3408 114.752 89.8112 114.871 90.3535 114.871C90.7575 114.871 91.1089 114.816 91.4077 114.705C91.7065 114.594 91.9528 114.453 92.1465 114.282C92.3402 114.11 92.4757 113.936 92.5532 113.759L92.5864 113.684H94.0308L94.0142 113.75C93.9367 114.055 93.7983 114.351 93.5991 114.639C93.4054 114.921 93.1536 115.178 92.8438 115.411C92.5339 115.638 92.1659 115.82 91.7397 115.958C91.3192 116.091 90.846 116.158 90.3203 116.158ZM99.4512 116.158C98.7871 116.158 98.2005 116.058 97.6914 115.859C97.1823 115.654 96.7728 115.369 96.4629 115.004C96.1585 114.639 95.9787 114.21 95.9233 113.717H97.4009C97.5226 114.088 97.7606 114.387 98.1147 114.614C98.4689 114.841 98.931 114.954 99.501 114.954C99.9049 114.954 100.259 114.896 100.563 114.78C100.873 114.658 101.117 114.495 101.294 114.29C101.471 114.08 101.56 113.839 101.56 113.568V113.551C101.56 113.247 101.438 112.99 101.194 112.779C100.951 112.563 100.552 112.389 99.999 112.256L98.6128 111.924C98.0539 111.792 97.5946 111.62 97.2349 111.41C96.8752 111.194 96.6095 110.931 96.438 110.621C96.2664 110.306 96.1807 109.935 96.1807 109.509V109.5C96.1807 109.002 96.3245 108.557 96.6123 108.164C96.9056 107.771 97.304 107.461 97.8076 107.234C98.3112 107.007 98.8784 106.894 99.5093 106.894C100.135 106.894 100.688 106.994 101.169 107.193C101.656 107.387 102.047 107.663 102.34 108.023C102.639 108.383 102.821 108.806 102.888 109.293H101.468C101.374 108.939 101.158 108.651 100.821 108.43C100.483 108.208 100.043 108.098 99.501 108.098C99.1468 108.098 98.8314 108.156 98.5547 108.272C98.278 108.383 98.0594 108.538 97.8989 108.737C97.7384 108.936 97.6582 109.168 97.6582 109.434V109.451C97.6582 109.65 97.7108 109.827 97.8159 109.982C97.9211 110.137 98.0843 110.272 98.3057 110.389C98.527 110.505 98.812 110.607 99.1606 110.696L100.539 111.028C101.38 111.233 102.005 111.526 102.415 111.908C102.83 112.29 103.037 112.801 103.037 113.443V113.46C103.037 113.991 102.879 114.462 102.564 114.871C102.249 115.275 101.82 115.59 101.277 115.817C100.741 116.044 100.132 116.158 99.4512 116.158Z" fill="black"/>
<g clip-path="url(#clip2_3763_4087)">
<path d="M133.963 112.713C133.686 112.504 133.346 112.396 133 112.406V111.094C133.591 111.082 134.171 111.26 134.654 111.601C134.934 111.809 135.276 111.916 135.625 111.908C135.971 111.917 136.31 111.809 136.587 111.601C137.074 111.259 137.656 111.082 138.25 111.094C138.844 111.081 139.427 111.259 139.912 111.601C140.19 111.808 140.529 111.916 140.875 111.908C141.221 111.917 141.56 111.809 141.838 111.601C142.325 111.262 142.906 111.084 143.5 111.094V112.406C143.151 112.397 142.809 112.505 142.529 112.713C142.046 113.054 141.466 113.231 140.875 113.22C140.281 113.231 139.699 113.054 139.213 112.713C138.935 112.506 138.596 112.398 138.25 112.406C137.904 112.397 137.565 112.505 137.287 112.713C136.802 113.055 136.219 113.233 135.625 113.22C135.031 113.231 134.449 113.054 133.963 112.713ZM144.156 104.969V103H142.844V104.969H139.694L139.974 107.594C139.412 107.439 138.832 107.366 138.25 107.375C135.888 107.375 133.971 108.6 133.674 110.28L134.969 110.508C135.152 109.484 136.579 108.688 138.25 108.688C139.921 108.688 141.339 109.484 141.514 110.508L142.809 110.28C142.721 109.86 142.548 109.463 142.299 109.114C142.051 108.765 141.733 108.47 141.365 108.25L141.155 106.281H145.53L144.812 114.375C144.808 114.43 144.783 114.481 144.743 114.518C144.702 114.556 144.649 114.576 144.594 114.576H142.765C142.805 114.345 142.825 114.111 142.826 113.876H141.514C141.514 114.891 141.514 115.451 138.233 115.451C134.951 115.451 134.951 114.891 134.951 113.876H133.639C133.639 116.318 135.188 116.764 138.233 116.764C140.114 116.764 141.417 116.589 142.144 115.889H144.594C144.975 115.895 145.345 115.757 145.629 115.502C145.912 115.247 146.09 114.895 146.125 114.515L147 104.969H144.156Z" fill="#242E30"/>
</g>
<path d="M4 132H164" stroke="#3C3C43" stroke-opacity="0.36"/>
</g>
</g>
<defs>
<filter id="filter0_d_3763_4087" x="-46" y="-50" width="260" height="232" filterUnits="userSpaceOnUse" color-interpolation-filters="sRGB">
<feFlood flood-opacity="0" result="BackgroundImageFix"/>
<feColorMatrix in="SourceAlpha" type="matrix" values="0 0 0 0 0 0 0 0 0 0 0 0 0 0 0 0 0 0 127 0" result="hardAlpha"/>
<feOffset dy="4"/>
<feGaussianBlur stdDeviation="2"/>
<feComposite in2="hardAlpha" operator="out"/>
<feColorMatrix type="matrix" values="0 0 0 0 0 0 0 0 0 0 0 0 0 0 0 0 0 0 0.25 0"/>
<feBlend mode="normal" in2="BackgroundImageFix" result="effect1_dropShadow_3763_4087"/>
<feBlend mode="normal" in="SourceGraphic" in2="effect1_dropShadow_3763_4087" result="shape"/>
</filter>
<clipPath id="clip0_3763_4087">
<path d="M4 12C4 5.37258 9.37258 0 16 0H152C158.627 0 164 5.37258 164 12V120C164 126.627 158.627 132 152 132H16C9.37258 132 4 126.627 4 120V12Z" fill="white"/>
</clipPath>
<clipPath id="clip1_3763_4087">
<rect width="14" height="14" fill="white" transform="translate(133 59)"/>
</clipPath>
<clipPath id="clip2_3763_4087">
<rect width="14" height="14" fill="white" transform="translate(133 103)"/>
</clipPath>
</defs>
</svg>
