<svg width="314" height="216" viewBox="0 0 314 216" fill="none" xmlns="http://www.w3.org/2000/svg">
<g filter="url(#filter0_d_3763_4147)">
<g clip-path="url(#clip0_3763_4147)">
<rect x="20.5" y="16" width="273" height="176" rx="14" fill="#F2F2F2" fill-opacity="0.8" shape-rendering="crispEdges"/>
<mask id="path-2-inside-1_3763_4147" fill="white">
<path d="M20.5 16H293.5V148H20.5V16Z"/>
</mask>
<path d="M293.5 147.5H20.5V148.5H293.5V147.5Z" fill="#3C3C43" fill-opacity="0.36" mask="url(#path-2-inside-1_3763_4147)"/>
<path d="M47.917 37.022L47.1948 42.0107H45.0615L46.4975 37.022H47.917ZM51.146 37.022L50.4155 42.0107H48.2905L49.7265 37.022H51.146ZM54.9797 49.2988C52.6555 49.2988 51.2692 47.896 51.1862 45.8457L51.1779 45.7544H53.2697L53.278 45.8125C53.3361 46.7339 53.9006 47.4229 54.9631 47.4229C56.1169 47.4229 56.7311 46.7256 56.7311 45.4307V37.022H58.8727V45.4473C58.8727 47.8711 57.4367 49.2988 54.9797 49.2988ZM64.2089 49.1826C62.1669 49.1826 61.121 47.9541 61.121 45.7959V39.9272H63.1879V45.3228C63.1879 46.7256 63.7108 47.4395 64.956 47.4395C66.2924 47.4395 67.0063 46.5762 67.0063 45.2148V39.9272H69.0731V49H67.0063V47.6221H66.8651C66.4418 48.5933 65.5204 49.1826 64.2089 49.1826ZM74.6168 49.1826C72.3092 49.1826 70.9147 48.1201 70.7403 46.5845V46.5679H72.7906L72.7989 46.5845C73.0148 47.2153 73.6207 47.6553 74.65 47.6553C75.6793 47.6553 76.3932 47.1904 76.3932 46.5098V46.4932C76.3932 45.9619 75.9947 45.6133 74.9986 45.3892L73.5294 45.0571C71.8028 44.6753 70.9811 43.8618 70.9811 42.5254V42.5171C70.9811 40.8818 72.4752 39.7529 74.6168 39.7529C76.8248 39.7529 78.1446 40.8486 78.2775 42.3179V42.3345H76.3351L76.3268 42.3096C76.1774 41.7368 75.5797 41.272 74.6085 41.272C73.6871 41.272 73.0231 41.7202 73.0231 42.4009V42.4092C73.0231 42.9404 73.4049 43.2642 74.3844 43.4883L75.8536 43.812C77.63 44.2104 78.4684 44.9658 78.4684 46.2856V46.3022C78.4684 48.0288 76.8497 49.1826 74.6168 49.1826ZM83.6468 49.0415C81.5633 49.0415 80.7083 48.3442 80.7083 46.5928V41.5293H79.2972V39.9272H80.7083V37.7026H82.8084V39.9272H84.7259V41.5293H82.8084V46.103C82.8084 47.0078 83.1653 47.3896 84.0286 47.3896C84.3192 47.3896 84.4769 47.3813 84.7259 47.3564V48.9502C84.4271 49.0083 84.0452 49.0415 83.6468 49.0415ZM90.7165 49V37.022H98.4695V38.8232H92.8581V42.0688H98.1623V43.7705H92.8581V47.1987H98.4695V49H90.7165ZM102.976 49.1494C101.249 49.1494 99.9955 48.0869 99.9955 46.4351V46.4185C99.9955 44.7998 101.232 43.8535 103.44 43.7207L105.773 43.5796V42.7993C105.773 41.8945 105.184 41.3965 104.071 41.3965C103.125 41.3965 102.511 41.7368 102.303 42.3345L102.295 42.3677H100.344L100.352 42.293C100.552 40.7656 102.013 39.7529 104.171 39.7529C106.503 39.7529 107.815 40.8818 107.815 42.7993V49H105.773V47.7549H105.632C105.134 48.6348 104.171 49.1494 102.976 49.1494ZM102.038 46.3354C102.038 47.1074 102.693 47.564 103.606 47.564C104.852 47.564 105.773 46.7505 105.773 45.6714V44.9409L103.731 45.0737C102.577 45.1484 102.038 45.5718 102.038 46.3188V46.3354ZM113.458 49.0415C111.375 49.0415 110.52 48.3442 110.52 46.5928V41.5293H109.109V39.9272H110.52V37.7026H112.62V39.9272H114.537V41.5293H112.62V46.103C112.62 47.0078 112.977 47.3896 113.84 47.3896C114.131 47.3896 114.288 47.3813 114.537 47.3564V48.9502C114.238 49.0083 113.857 49.0415 113.458 49.0415ZM116.528 42.0107L117.25 37.022H119.384L117.948 42.0107H116.528ZM119.757 42.0107L120.479 37.022H122.613L121.168 42.0107H119.757ZM130.695 49L128.238 39.9272H130.313L131.824 46.7422H131.965L133.708 39.9272H135.676L137.435 46.7422H137.576L139.079 39.9272H141.129L138.672 49H136.506L134.738 42.4258H134.596L132.837 49H130.695ZM146.075 49.1826C143.353 49.1826 141.709 47.4062 141.709 44.4678V44.4512C141.709 41.5376 143.377 39.7529 146.075 39.7529C148.781 39.7529 150.441 41.5293 150.441 44.4512V44.4678C150.441 47.4062 148.79 49.1826 146.075 49.1826ZM146.075 47.5059C147.511 47.5059 148.325 46.3853 148.325 44.4761V44.4595C148.325 42.5503 147.503 41.4214 146.075 41.4214C144.639 41.4214 143.817 42.5503 143.817 44.4595V44.4761C143.817 46.3853 144.639 47.5059 146.075 47.5059ZM155.113 49.1826C153.071 49.1826 152.026 47.9541 152.026 45.7959V39.9272H154.092V45.3228C154.092 46.7256 154.615 47.4395 155.861 47.4395C157.197 47.4395 157.911 46.5762 157.911 45.2148V39.9272H159.978V49H157.911V47.6221H157.77C157.346 48.5933 156.425 49.1826 155.113 49.1826ZM162.176 49V36.416H164.243V49H162.176ZM169.72 49.1494C167.446 49.1494 166.002 47.3481 166.002 44.4761V44.4595C166.002 41.5708 167.421 39.7778 169.72 39.7778C170.965 39.7778 172.003 40.3921 172.476 41.3716H172.617V36.416H174.692V49H172.617V47.5806H172.476C171.978 48.5684 170.999 49.1494 169.72 49.1494ZM170.368 47.4062C171.779 47.4062 172.65 46.2939 172.65 44.4761V44.4595C172.65 42.6416 171.771 41.521 170.368 41.521C168.965 41.521 168.102 42.6333 168.102 44.4595V44.4761C168.102 46.3022 168.957 47.4062 170.368 47.4062ZM181.09 49V36.416H183.157V49H181.09ZM186.426 38.4082C185.745 38.4082 185.189 37.8687 185.189 37.188C185.189 36.5156 185.745 35.9678 186.426 35.9678C187.098 35.9678 187.655 36.5156 187.655 37.188C187.655 37.8687 187.098 38.4082 186.426 38.4082ZM185.388 49V39.9272H187.455V49H185.388ZM189.67 49V36.416H191.737V43.646H191.878L195.224 39.9272H197.614L193.962 43.7622L197.863 49H195.373L192.459 45.0737L191.737 45.8125V49H189.67ZM202.427 49.1826C199.73 49.1826 198.094 47.373 198.094 44.4844V44.4761C198.094 41.6206 199.746 39.7529 202.328 39.7529C204.909 39.7529 206.503 41.5625 206.503 44.3018V44.9824H200.161C200.186 46.6094 201.066 47.5557 202.469 47.5557C203.589 47.5557 204.229 46.9912 204.428 46.5762L204.453 46.5181H206.42L206.395 46.5928C206.105 47.7632 204.893 49.1826 202.427 49.1826ZM202.353 41.3716C201.199 41.3716 200.336 42.1519 200.178 43.5962H204.486C204.345 42.1104 203.506 41.3716 202.353 41.3716ZM215.856 49.0415C213.772 49.0415 212.917 48.3442 212.917 46.5928V41.5293H211.506V39.9272H212.917V37.7026H215.017V39.9272H216.935V41.5293H215.017V46.103C215.017 47.0078 215.374 47.3896 216.237 47.3896C216.528 47.3896 216.686 47.3813 216.935 47.3564V48.9502C216.636 49.0083 216.254 49.0415 215.856 49.0415ZM222.42 49.1826C219.698 49.1826 218.054 47.4062 218.054 44.4678V44.4512C218.054 41.5376 219.722 39.7529 222.42 39.7529C225.126 39.7529 226.786 41.5293 226.786 44.4512V44.4678C226.786 47.4062 225.135 49.1826 222.42 49.1826ZM222.42 47.5059C223.856 47.5059 224.67 46.3853 224.67 44.4761V44.4595C224.67 42.5503 223.848 41.4214 222.42 41.4214C220.984 41.4214 220.162 42.5503 220.162 44.4595V44.4761C220.162 46.3853 220.984 47.5059 222.42 47.5059ZM236.006 49.1826C233.698 49.1826 232.304 48.1201 232.13 46.5845V46.5679H234.18L234.188 46.5845C234.404 47.2153 235.01 47.6553 236.039 47.6553C237.069 47.6553 237.782 47.1904 237.782 46.5098V46.4932C237.782 45.9619 237.384 45.6133 236.388 45.3892L234.919 45.0571C233.192 44.6753 232.37 43.8618 232.37 42.5254V42.5171C232.37 40.8818 233.864 39.7529 236.006 39.7529C238.214 39.7529 239.534 40.8486 239.667 42.3179V42.3345H237.724L237.716 42.3096C237.567 41.7368 236.969 41.272 235.998 41.272C235.076 41.272 234.412 41.7202 234.412 42.4009V42.4092C234.412 42.9404 234.794 43.2642 235.774 43.4883L237.243 43.812C239.019 44.2104 239.858 44.9658 239.858 46.2856V46.3022C239.858 48.0288 238.239 49.1826 236.006 49.1826ZM245.418 49.1826C242.72 49.1826 241.085 47.373 241.085 44.4844V44.4761C241.085 41.6206 242.737 39.7529 245.318 39.7529C247.9 39.7529 249.494 41.5625 249.494 44.3018V44.9824H243.152C243.177 46.6094 244.057 47.5557 245.459 47.5557C246.58 47.5557 247.219 46.9912 247.418 46.5762L247.443 46.5181H249.411L249.386 46.5928C249.095 47.7632 247.883 49.1826 245.418 49.1826ZM245.343 41.3716C244.189 41.3716 243.326 42.1519 243.168 43.5962H247.476C247.335 42.1104 246.497 41.3716 245.343 41.3716ZM251.152 49V39.9272H253.219V41.3135H253.36C253.792 40.3423 254.664 39.7529 255.975 39.7529C258.001 39.7529 259.105 40.9731 259.105 43.1313V49H257.038V43.6128C257.038 42.2017 256.465 41.4878 255.212 41.4878C253.983 41.4878 253.219 42.3511 253.219 43.7124V49H251.152ZM264.408 49.1494C262.133 49.1494 260.689 47.3481 260.689 44.4761V44.4595C260.689 41.5708 262.108 39.7778 264.408 39.7778C265.653 39.7778 266.69 40.3921 267.163 41.3716H267.305V36.416H269.38V49H267.305V47.5806H267.163C266.665 48.5684 265.686 49.1494 264.408 49.1494ZM265.055 47.4062C266.466 47.4062 267.338 46.2939 267.338 44.4761V44.4595C267.338 42.6416 266.458 41.521 265.055 41.521C263.652 41.521 262.789 42.6333 262.789 44.4595V44.4761C262.789 46.3022 263.644 47.4062 265.055 47.4062ZM92.9032 74.1875C92.6541 74.1875 92.3636 74.1792 92.1146 74.1543V72.5688C92.2806 72.5854 92.513 72.5938 92.7288 72.5938C93.5755 72.5938 94.0819 72.2451 94.306 71.4233L94.4139 71.0083L91.1683 61.9272H93.4261L95.5428 69.0161H95.7005L97.8089 61.9272H99.9837L96.7298 71.1909C95.9495 73.4653 94.9119 74.1875 92.9032 74.1875ZM104.905 71.1826C102.182 71.1826 100.539 69.4062 100.539 66.4678V66.4512C100.539 63.5376 102.207 61.7529 104.905 61.7529C107.611 61.7529 109.271 63.5293 109.271 66.4512V66.4678C109.271 69.4062 107.619 71.1826 104.905 71.1826ZM104.905 69.5059C106.341 69.5059 107.154 68.3853 107.154 66.4761V66.4595C107.154 64.5503 106.333 63.4214 104.905 63.4214C103.469 63.4214 102.647 64.5503 102.647 66.4595V66.4761C102.647 68.3853 103.469 69.5059 104.905 69.5059ZM113.943 71.1826C111.901 71.1826 110.855 69.9541 110.855 67.7959V61.9272H112.922V67.3228C112.922 68.7256 113.445 69.4395 114.69 69.4395C116.027 69.4395 116.74 68.5762 116.74 67.2148V61.9272H118.807V71H116.74V69.6221H116.599C116.176 70.5933 115.255 71.1826 113.943 71.1826ZM125.047 71V61.9272H127.114V63.3135H127.255C127.687 62.3423 128.558 61.7529 129.87 61.7529C131.895 61.7529 132.999 62.9731 132.999 65.1313V71H130.932V65.6128C130.932 64.2017 130.36 63.4878 129.106 63.4878C127.878 63.4878 127.114 64.3511 127.114 65.7124V71H125.047ZM138.95 71.1826C136.227 71.1826 134.583 69.4062 134.583 66.4678V66.4512C134.583 63.5376 136.252 61.7529 138.95 61.7529C141.656 61.7529 143.316 63.5293 143.316 66.4512V66.4678C143.316 69.4062 141.664 71.1826 138.95 71.1826ZM138.95 69.5059C140.386 69.5059 141.199 68.3853 141.199 66.4761V66.4595C141.199 64.5503 140.377 63.4214 138.95 63.4214C137.514 63.4214 136.692 64.5503 136.692 66.4595V66.4761C136.692 68.3853 137.514 69.5059 138.95 69.5059ZM148.552 71.0415C146.469 71.0415 145.614 70.3442 145.614 68.5928V63.5293H144.203V61.9272H145.614V59.7026H147.714V61.9272H149.631V63.5293H147.714V68.103C147.714 69.0078 148.071 69.3896 148.934 69.3896C149.225 69.3896 149.382 69.3813 149.631 69.3564V70.9502C149.333 71.0083 148.951 71.0415 148.552 71.0415ZM152.345 60.4082C151.664 60.4082 151.108 59.8687 151.108 59.188C151.108 58.5156 151.664 57.9678 152.345 57.9678C153.017 57.9678 153.573 58.5156 153.573 59.188C153.573 59.8687 153.017 60.4082 152.345 60.4082ZM151.307 71V61.9272H153.374V71H151.307ZM156.17 71V63.5293H154.684V61.9272H156.17V61.0308C156.17 59.2212 157.083 58.333 159.108 58.333C159.548 58.333 159.922 58.3579 160.254 58.416V59.8604C160.096 59.8354 159.839 59.8188 159.548 59.8188C158.577 59.8188 158.204 60.2837 158.204 61.147V61.9272H160.171V63.5293H158.237V71H156.17ZM162.818 60.4082C162.137 60.4082 161.581 59.8687 161.581 59.188C161.581 58.5156 162.137 57.9678 162.818 57.9678C163.49 57.9678 164.046 58.5156 164.046 59.188C164.046 59.8687 163.49 60.4082 162.818 60.4082ZM161.78 71V61.9272H163.847V71H161.78ZM169.872 71.1826C167.141 71.1826 165.531 69.4146 165.531 66.4512V66.4346C165.531 63.5044 167.133 61.7529 169.864 61.7529C172.196 61.7529 173.591 63.0479 173.823 64.9238V64.957H171.872L171.864 64.9321C171.673 64.0522 171.001 63.4214 169.872 63.4214C168.461 63.4214 167.631 64.5337 167.631 66.4346V66.4512C167.631 68.377 168.469 69.5059 169.872 69.5059C170.943 69.5059 171.599 69.0161 171.856 68.0615L171.872 68.0283L173.823 68.02L173.807 68.0864C173.508 69.9458 172.171 71.1826 169.872 71.1826ZM177.856 71.1494C176.13 71.1494 174.876 70.0869 174.876 68.4351V68.4185C174.876 66.7998 176.113 65.8535 178.321 65.7207L180.653 65.5796V64.7993C180.653 63.8945 180.064 63.3965 178.952 63.3965C178.005 63.3965 177.391 63.7368 177.184 64.3345L177.175 64.3677H175.225L175.233 64.293C175.432 62.7656 176.893 61.7529 179.051 61.7529C181.384 61.7529 182.695 62.8818 182.695 64.7993V71H180.653V69.7549H180.512C180.014 70.6348 179.051 71.1494 177.856 71.1494ZM176.918 68.3354C176.918 69.1074 177.574 69.564 178.487 69.564C179.732 69.564 180.653 68.7505 180.653 67.6714V66.9409L178.611 67.0737C177.458 67.1484 176.918 67.5718 176.918 68.3188V68.3354ZM188.339 71.0415C186.255 71.0415 185.4 70.3442 185.4 68.5928V63.5293H183.989V61.9272H185.4V59.7026H187.5V61.9272H189.418V63.5293H187.5V68.103C187.5 69.0078 187.857 69.3896 188.721 69.3896C189.011 69.3896 189.169 69.3813 189.418 69.3564V70.9502C189.119 71.0083 188.737 71.0415 188.339 71.0415ZM192.131 60.4082C191.45 60.4082 190.894 59.8687 190.894 59.188C190.894 58.5156 191.45 57.9678 192.131 57.9678C192.803 57.9678 193.359 58.5156 193.359 59.188C193.359 59.8687 192.803 60.4082 192.131 60.4082ZM191.093 71V61.9272H193.16V71H191.093ZM199.21 71.1826C196.488 71.1826 194.844 69.4062 194.844 66.4678V66.4512C194.844 63.5376 196.512 61.7529 199.21 61.7529C201.916 61.7529 203.576 63.5293 203.576 66.4512V66.4678C203.576 69.4062 201.925 71.1826 199.21 71.1826ZM199.21 69.5059C200.646 69.5059 201.46 68.3853 201.46 66.4761V66.4595C201.46 64.5503 200.638 63.4214 199.21 63.4214C197.774 63.4214 196.952 64.5503 196.952 66.4595V66.4761C196.952 68.3853 197.774 69.5059 199.21 69.5059ZM205.244 71V61.9272H207.311V63.3135H207.452C207.883 62.3423 208.755 61.7529 210.066 61.7529C212.092 61.7529 213.196 62.9731 213.196 65.1313V71H211.129V65.6128C211.129 64.2017 210.556 63.4878 209.303 63.4878C208.074 63.4878 207.311 64.3511 207.311 65.7124V71H205.244ZM218.656 71.1826C216.349 71.1826 214.954 70.1201 214.78 68.5845V68.5679H216.83L216.839 68.5845C217.054 69.2153 217.66 69.6553 218.69 69.6553C219.719 69.6553 220.433 69.1904 220.433 68.5098V68.4932C220.433 67.9619 220.034 67.6133 219.038 67.3892L217.569 67.0571C215.842 66.6753 215.021 65.8618 215.021 64.5254V64.5171C215.021 62.8818 216.515 61.7529 218.656 61.7529C220.864 61.7529 222.184 62.8486 222.317 64.3179V64.3345H220.375L220.366 64.3096C220.217 63.7368 219.619 63.272 218.648 63.272C217.727 63.272 217.063 63.7202 217.063 64.4009V64.4092C217.063 64.9404 217.444 65.2642 218.424 65.4883L219.893 65.812C221.67 66.2104 222.508 66.9658 222.508 68.2856V68.3022C222.508 70.0288 220.889 71.1826 218.656 71.1826Z" fill="black"/>
<path d="M61.2059 92V82.8403H62.3168L67.287 89.9688H67.3886V82.8403H68.5184V92H67.4076L62.4374 84.897H62.3358V92H61.2059ZM73.4487 92.1206C71.5 92.1206 70.294 90.7749 70.294 88.585V88.5723C70.294 86.376 71.5 85.0366 73.4487 85.0366C75.3975 85.0366 76.6035 86.376 76.6035 88.5723V88.585C76.6035 90.7749 75.3975 92.1206 73.4487 92.1206ZM73.4487 91.1431C74.7437 91.1431 75.4737 90.1973 75.4737 88.585V88.5723C75.4737 86.9536 74.7437 86.0142 73.4487 86.0142C72.1538 86.0142 71.4238 86.9536 71.4238 88.5723V88.585C71.4238 90.1973 72.1538 91.1431 73.4487 91.1431ZM80.6706 92.0508C79.2614 92.0508 78.671 91.5303 78.671 90.2227V86.0713H77.5919V85.1572H78.671V83.3862H79.8136V85.1572H81.3117V86.0713H79.8136V89.9434C79.8136 90.7495 80.0929 91.0732 80.8039 91.0732C81.0006 91.0732 81.1085 91.0669 81.3117 91.0479V91.9873C81.0958 92.0254 80.8864 92.0508 80.6706 92.0508ZM83.468 83.8369C83.0491 83.8369 82.7063 83.4941 82.7063 83.0752C82.7063 82.6562 83.0491 82.3135 83.468 82.3135C83.887 82.3135 84.2298 82.6562 84.2298 83.0752C84.2298 83.4941 83.887 83.8369 83.468 83.8369ZM82.9094 92V85.1572H84.0139V92H82.9094ZM86.475 92V86.0713H85.3388V85.1572H86.475V84.3955C86.475 83.0308 87.1605 82.377 88.4618 82.377C88.7284 82.377 88.9696 82.396 89.1981 82.4404V83.3228C89.0648 83.2974 88.8808 83.291 88.684 83.291C87.8969 83.291 87.5795 83.6782 87.5795 84.4272V85.1572H89.1347V86.0713H87.5795V92H86.475ZM91.2339 83.8369C90.815 83.8369 90.4722 83.4941 90.4722 83.0752C90.4722 82.6562 90.815 82.3135 91.2339 82.3135C91.6529 82.3135 91.9956 82.6562 91.9956 83.0752C91.9956 83.4941 91.6529 83.8369 91.2339 83.8369ZM90.6753 92V85.1572H91.7798V92H90.6753ZM96.5832 92.1206C94.6662 92.1206 93.4411 90.7305 93.4411 88.5596V88.5469C93.4411 86.4204 94.6598 85.0366 96.5768 85.0366C98.2399 85.0366 99.2365 85.9951 99.4396 87.2139L99.446 87.252H98.3478L98.3415 87.2329C98.1701 86.5601 97.5607 86.0142 96.5768 86.0142C95.3454 86.0142 94.571 87.0044 94.571 88.5469V88.5596C94.571 90.1338 95.3581 91.1431 96.5768 91.1431C97.4972 91.1431 98.0812 90.7368 98.3351 89.9751L98.3478 89.937L99.4396 89.9307L99.4269 90.0005C99.1476 91.2383 98.2272 92.1206 96.5832 92.1206ZM102.859 92.1206C101.558 92.1206 100.574 91.3335 100.574 90.0894V90.0767C100.574 88.8579 101.475 88.1533 103.069 88.0581L105.03 87.9375V87.3154C105.03 86.4712 104.516 86.0142 103.494 86.0142C102.675 86.0142 102.136 86.3188 101.958 86.8521L101.951 86.8711H100.847L100.853 86.833C101.031 85.7603 102.072 85.0366 103.532 85.0366C105.201 85.0366 106.135 85.8936 106.135 87.3154V92H105.03V90.9907H104.929C104.497 91.7207 103.78 92.1206 102.859 92.1206ZM101.704 90.064C101.704 90.7559 102.294 91.1621 103.088 91.1621C104.211 91.1621 105.03 90.4258 105.03 89.4482V88.8262L103.202 88.9404C102.161 89.0039 101.704 89.3721 101.704 90.0513V90.064ZM110.506 92.0508C109.097 92.0508 108.507 91.5303 108.507 90.2227V86.0713H107.428V85.1572H108.507V83.3862H109.649V85.1572H111.147V86.0713H109.649V89.9434C109.649 90.7495 109.929 91.0732 110.64 91.0732C110.836 91.0732 110.944 91.0669 111.147 91.0479V91.9873C110.932 92.0254 110.722 92.0508 110.506 92.0508ZM113.304 83.8369C112.885 83.8369 112.542 83.4941 112.542 83.0752C112.542 82.6562 112.885 82.3135 113.304 82.3135C113.723 82.3135 114.065 82.6562 114.065 83.0752C114.065 83.4941 113.723 83.8369 113.304 83.8369ZM112.745 92V85.1572H113.85V92H112.745ZM118.666 92.1206C116.717 92.1206 115.511 90.7749 115.511 88.585V88.5723C115.511 86.376 116.717 85.0366 118.666 85.0366C120.614 85.0366 121.82 86.376 121.82 88.5723V88.585C121.82 90.7749 120.614 92.1206 118.666 92.1206ZM118.666 91.1431C119.961 91.1431 120.691 90.1973 120.691 88.585V88.5723C120.691 86.9536 119.961 86.0142 118.666 86.0142C117.371 86.0142 116.641 86.9536 116.641 88.5723V88.585C116.641 90.1973 117.371 91.1431 118.666 91.1431ZM123.456 92V85.1572H124.561V86.1855H124.662C125.005 85.4619 125.646 85.0366 126.656 85.0366C128.192 85.0366 129.049 85.9443 129.049 87.5693V92H127.944V87.8359C127.944 86.6045 127.436 86.0142 126.345 86.0142C125.253 86.0142 124.561 86.7505 124.561 87.9502V92H123.456ZM133.319 92.1206C131.795 92.1206 130.748 91.3843 130.621 90.2544H131.751C131.935 90.8257 132.481 91.2002 133.357 91.2002C134.277 91.2002 134.931 90.7622 134.931 90.1401V90.1274C134.931 89.6641 134.582 89.3403 133.738 89.1372L132.678 88.8833C131.395 88.5786 130.818 88.02 130.818 87.0361V87.0298C130.818 85.8936 131.91 85.0366 133.363 85.0366C134.798 85.0366 135.794 85.7539 135.947 86.8711H134.861C134.715 86.3315 134.182 85.957 133.357 85.957C132.544 85.957 131.948 86.376 131.948 86.979V86.9917C131.948 87.4551 132.29 87.7471 133.097 87.9438L134.15 88.1978C135.439 88.5088 136.061 89.0674 136.061 90.0449V90.0576C136.061 91.2764 134.874 92.1206 133.319 92.1206ZM141.275 92V85.1572H142.38V86.1982H142.481C142.786 85.4619 143.433 85.0366 144.328 85.0366C145.255 85.0366 145.903 85.5254 146.22 86.2363H146.321C146.69 85.5127 147.47 85.0366 148.416 85.0366C149.813 85.0366 150.593 85.8364 150.593 87.271V92H149.489V87.5249C149.489 86.5156 149.026 86.0142 148.061 86.0142C147.109 86.0142 146.48 86.7314 146.48 87.6011V92H145.376V87.3535C145.376 86.541 144.817 86.0142 143.954 86.0142C143.059 86.0142 142.38 86.7949 142.38 87.7598V92H141.275ZM154.388 92.1206C153.086 92.1206 152.102 91.3335 152.102 90.0894V90.0767C152.102 88.8579 153.004 88.1533 154.597 88.0581L156.558 87.9375V87.3154C156.558 86.4712 156.044 86.0142 155.022 86.0142C154.203 86.0142 153.664 86.3188 153.486 86.8521L153.48 86.8711H152.375L152.382 86.833C152.559 85.7603 153.6 85.0366 155.06 85.0366C156.73 85.0366 157.663 85.8936 157.663 87.3154V92H156.558V90.9907H156.457C156.025 91.7207 155.308 92.1206 154.388 92.1206ZM153.232 90.064C153.232 90.7559 153.823 91.1621 154.616 91.1621C155.74 91.1621 156.558 90.4258 156.558 89.4482V88.8262L154.73 88.9404C153.689 89.0039 153.232 89.3721 153.232 90.0513V90.064ZM159.934 94.3994C159.788 94.3994 159.597 94.3867 159.445 94.3613V93.4536C159.578 93.479 159.749 93.4854 159.902 93.4854C160.53 93.4854 160.911 93.1997 161.159 92.4126L161.286 92.0063L158.753 85.1572H159.934L161.812 90.7876H161.914L163.787 85.1572H164.948L162.276 92.4189C161.711 93.9551 161.146 94.3994 159.934 94.3994ZM170.492 83.8369C170.073 83.8369 169.731 83.4941 169.731 83.0752C169.731 82.6562 170.073 82.3135 170.492 82.3135C170.911 82.3135 171.254 82.6562 171.254 83.0752C171.254 83.4941 170.911 83.8369 170.492 83.8369ZM169.934 92V85.1572H171.038V92H169.934ZM173.042 92V85.1572H174.147V86.1855H174.248C174.591 85.4619 175.232 85.0366 176.242 85.0366C177.778 85.0366 178.635 85.9443 178.635 87.5693V92H177.53V87.8359C177.53 86.6045 177.022 86.0142 175.93 86.0142C174.839 86.0142 174.147 86.7505 174.147 87.9502V92H173.042ZM183.355 92.1206C181.438 92.1206 180.213 90.7305 180.213 88.5596V88.5469C180.213 86.4204 181.432 85.0366 183.349 85.0366C185.012 85.0366 186.009 85.9951 186.212 87.2139L186.218 87.252H185.12L185.114 87.2329C184.942 86.5601 184.333 86.0142 183.349 86.0142C182.118 86.0142 181.343 87.0044 181.343 88.5469V88.5596C181.343 90.1338 182.13 91.1431 183.349 91.1431C184.269 91.1431 184.853 90.7368 185.107 89.9751L185.12 89.937L186.212 89.9307L186.199 90.0005C185.92 91.2383 184.999 92.1206 183.355 92.1206ZM187.816 92V82.4404H188.92V92H187.816ZM193.254 92.1206C191.699 92.1206 190.899 91.2065 190.899 89.5879V85.1572H192.004V89.3213C192.004 90.5527 192.448 91.1431 193.54 91.1431C194.746 91.1431 195.387 90.4067 195.387 89.207V85.1572H196.491V92H195.387V90.978H195.285C194.949 91.708 194.257 92.1206 193.254 92.1206ZM201.003 92.1206C199.27 92.1206 198.134 90.7178 198.134 88.585V88.5723C198.134 86.4268 199.264 85.0366 201.003 85.0366C201.942 85.0366 202.761 85.5063 203.136 86.2363H203.237V82.4404H204.342V92H203.237V90.9082H203.136C202.717 91.6699 201.955 92.1206 201.003 92.1206ZM201.257 91.1431C202.501 91.1431 203.263 90.1655 203.263 88.585V88.5723C203.263 86.9917 202.501 86.0142 201.257 86.0142C200.006 86.0142 199.264 86.979 199.264 88.5723V88.585C199.264 90.1782 200.006 91.1431 201.257 91.1431ZM209.177 92.1206C207.222 92.1206 206.041 90.7495 206.041 88.604V88.5977C206.041 86.4839 207.247 85.0366 209.107 85.0366C210.967 85.0366 212.097 86.4204 212.097 88.4644V88.896H207.171C207.203 90.3115 207.983 91.1367 209.202 91.1367C210.129 91.1367 210.7 90.6987 210.884 90.2861L210.91 90.229H212.014L212.001 90.2798C211.767 91.2065 210.789 92.1206 209.177 92.1206ZM209.101 86.0205C208.085 86.0205 207.311 86.7124 207.19 88.0137H210.973C210.859 86.6616 210.11 86.0205 209.101 86.0205ZM219.19 92.1206C217.888 92.1206 216.905 91.3335 216.905 90.0894V90.0767C216.905 88.8579 217.806 88.1533 219.399 88.0581L221.361 87.9375V87.3154C221.361 86.4712 220.846 86.0142 219.824 86.0142C219.006 86.0142 218.466 86.3188 218.288 86.8521L218.282 86.8711H217.177L217.184 86.833C217.362 85.7603 218.403 85.0366 219.863 85.0366C221.532 85.0366 222.465 85.8936 222.465 87.3154V92H221.361V90.9907H221.259C220.827 91.7207 220.11 92.1206 219.19 92.1206ZM218.034 90.064C218.034 90.7559 218.625 91.1621 219.418 91.1621C220.542 91.1621 221.361 90.4258 221.361 89.4482V88.8262L219.532 88.9404C218.491 89.0039 218.034 89.3721 218.034 90.0513V90.064ZM224.469 92V82.4404H225.574V92H224.469ZM230.409 92.1206C228.454 92.1206 227.273 90.7495 227.273 88.604V88.5977C227.273 86.4839 228.479 85.0366 230.339 85.0366C232.199 85.0366 233.329 86.4204 233.329 88.4644V88.896H228.403C228.435 90.3115 229.215 91.1367 230.434 91.1367C231.361 91.1367 231.932 90.6987 232.116 90.2861L232.142 90.229H233.246L233.233 90.2798C232.999 91.2065 232.021 92.1206 230.409 92.1206ZM230.332 86.0205C229.317 86.0205 228.542 86.7124 228.422 88.0137H232.205C232.091 86.6616 231.342 86.0205 230.332 86.0205ZM234.964 92V85.1572H236.069V86.1729H236.171C236.431 85.4556 237.072 85.0366 237.999 85.0366C238.208 85.0366 238.443 85.062 238.551 85.0811V86.1538C238.322 86.1157 238.113 86.0903 237.872 86.0903C236.818 86.0903 236.069 86.7568 236.069 87.7598V92H234.964ZM242.396 92.0508C240.987 92.0508 240.396 91.5303 240.396 90.2227V86.0713H239.317V85.1572H240.396V83.3862H241.539V85.1572H243.037V86.0713H241.539V89.9434C241.539 90.7495 241.818 91.0732 242.529 91.0732C242.726 91.0732 242.834 91.0669 243.037 91.0479V91.9873C242.821 92.0254 242.612 92.0508 242.396 92.0508ZM246.831 92.1206C245.307 92.1206 244.26 91.3843 244.133 90.2544H245.263C245.447 90.8257 245.993 91.2002 246.869 91.2002C247.789 91.2002 248.443 90.7622 248.443 90.1401V90.1274C248.443 89.6641 248.094 89.3403 247.25 89.1372L246.19 88.8833C244.908 88.5786 244.33 88.02 244.33 87.0361V87.0298C244.33 85.8936 245.422 85.0366 246.875 85.0366C248.31 85.0366 249.307 85.7539 249.459 86.8711H248.373C248.227 86.3315 247.694 85.957 246.869 85.957C246.057 85.957 245.46 86.376 245.46 86.979V86.9917C245.46 87.4551 245.803 87.7471 246.609 87.9438L247.662 88.1978C248.951 88.5088 249.573 89.0674 249.573 90.0449V90.0576C249.573 91.2764 248.386 92.1206 246.831 92.1206ZM250.93 94.3296L251.482 90.7178H252.745L251.749 94.3296H250.93ZM47.9466 110.121C46.4232 110.121 45.3758 109.384 45.2488 108.254H46.3787C46.5628 108.826 47.1087 109.2 47.9847 109.2C48.9051 109.2 49.5589 108.762 49.5589 108.14V108.127C49.5589 107.664 49.2098 107.34 48.3655 107.137L47.3055 106.883C46.0233 106.579 45.4456 106.02 45.4456 105.036V105.03C45.4456 103.894 46.5374 103.037 47.991 103.037C49.4256 103.037 50.4222 103.754 50.5745 104.871H49.4891C49.3431 104.332 48.8099 103.957 47.9847 103.957C47.1722 103.957 46.5755 104.376 46.5755 104.979V104.992C46.5755 105.455 46.9183 105.747 47.7244 105.944L48.7781 106.198C50.0667 106.509 50.6888 107.067 50.6888 108.045V108.058C50.6888 109.276 49.5018 110.121 47.9466 110.121ZM55.1367 110.121C53.1879 110.121 51.9819 108.775 51.9819 106.585V106.572C51.9819 104.376 53.1879 103.037 55.1367 103.037C57.0854 103.037 58.2915 104.376 58.2915 106.572V106.585C58.2915 108.775 57.0854 110.121 55.1367 110.121ZM55.1367 109.143C56.4316 109.143 57.1616 108.197 57.1616 106.585V106.572C57.1616 104.954 56.4316 104.014 55.1367 104.014C53.8417 104.014 53.1118 104.954 53.1118 106.572V106.585C53.1118 108.197 53.8417 109.143 55.1367 109.143ZM62.2188 110.121C60.6636 110.121 59.8638 109.207 59.8638 107.588V103.157H60.9683V107.321C60.9683 108.553 61.4127 109.143 62.5045 109.143C63.7105 109.143 64.3516 108.407 64.3516 107.207V103.157H65.4561V110H64.3516V108.978H64.2501C63.9136 109.708 63.2218 110.121 62.2188 110.121ZM67.4411 110V103.157H68.5456V104.186H68.6472C68.9899 103.462 69.6311 103.037 70.6403 103.037C72.1765 103.037 73.0334 103.944 73.0334 105.569V110H71.9289V105.836C71.9289 104.604 71.4211 104.014 70.3293 104.014C69.2375 104.014 68.5456 104.75 68.5456 105.95V110H67.4411ZM77.4813 110.121C75.7484 110.121 74.6121 108.718 74.6121 106.585V106.572C74.6121 104.427 75.742 103.037 77.4813 103.037C78.4207 103.037 79.2396 103.506 79.6141 104.236H79.7157V100.44H80.8201V110H79.7157V108.908H79.6141C79.1951 109.67 78.4334 110.121 77.4813 110.121ZM77.7352 109.143C78.9793 109.143 79.741 108.166 79.741 106.585V106.572C79.741 104.992 78.9793 104.014 77.7352 104.014C76.4847 104.014 75.742 104.979 75.742 106.572V106.585C75.742 108.178 76.4847 109.143 77.7352 109.143ZM85.2109 110.121C83.6875 110.121 82.6401 109.384 82.5131 108.254H83.643C83.8271 108.826 84.373 109.2 85.249 109.2C86.1694 109.2 86.8232 108.762 86.8232 108.14V108.127C86.8232 107.664 86.4741 107.34 85.6298 107.137L84.5698 106.883C83.2876 106.579 82.7099 106.02 82.7099 105.036V105.03C82.7099 103.894 83.8017 103.037 85.2553 103.037C86.6899 103.037 87.6865 103.754 87.8388 104.871H86.7534C86.6074 104.332 86.0742 103.957 85.249 103.957C84.4365 103.957 83.8398 104.376 83.8398 104.979V104.992C83.8398 105.455 84.1826 105.747 84.9887 105.944L86.0424 106.198C87.331 106.509 87.9531 107.067 87.9531 108.045V108.058C87.9531 109.276 86.7661 110.121 85.2109 110.121ZM89.3097 112.33L89.8619 108.718H91.1251L90.1285 112.33H89.3097ZM98.8275 110.121C97.5262 110.121 96.5423 109.333 96.5423 108.089V108.077C96.5423 106.858 97.4437 106.153 99.037 106.058L100.998 105.938V105.315C100.998 104.471 100.484 104.014 99.4622 104.014C98.6434 104.014 98.1039 104.319 97.9261 104.852L97.9198 104.871H96.8153L96.8216 104.833C96.9994 103.76 98.0404 103.037 99.5003 103.037C101.17 103.037 102.103 103.894 102.103 105.315V110H100.998V108.991H100.897C100.465 109.721 99.7479 110.121 98.8275 110.121ZM97.6722 108.064C97.6722 108.756 98.2625 109.162 99.056 109.162C100.18 109.162 100.998 108.426 100.998 107.448V106.826L99.1703 106.94C98.1292 107.004 97.6722 107.372 97.6722 108.051V108.064ZM104.043 110V103.157H105.148V104.186H105.249C105.592 103.462 106.233 103.037 107.243 103.037C108.779 103.037 109.636 103.944 109.636 105.569V110H108.531V105.836C108.531 104.604 108.023 104.014 106.932 104.014C105.84 104.014 105.148 104.75 105.148 105.95V110H104.043ZM114.084 110.121C112.351 110.121 111.214 108.718 111.214 106.585V106.572C111.214 104.427 112.344 103.037 114.084 103.037C115.023 103.037 115.842 103.506 116.216 104.236H116.318V100.44H117.422V110H116.318V108.908H116.216C115.797 109.67 115.036 110.121 114.084 110.121ZM114.338 109.143C115.582 109.143 116.343 108.166 116.343 106.585V106.572C116.343 104.992 115.582 104.014 114.338 104.014C113.087 104.014 112.344 104.979 112.344 106.572V106.585C112.344 108.178 113.087 109.143 114.338 109.143ZM123.627 101.837C123.208 101.837 122.865 101.494 122.865 101.075C122.865 100.656 123.208 100.313 123.627 100.313C124.046 100.313 124.389 100.656 124.389 101.075C124.389 101.494 124.046 101.837 123.627 101.837ZM123.068 110V103.157H124.173V110H123.068ZM128.976 110.121C127.059 110.121 125.834 108.73 125.834 106.56V106.547C125.834 104.42 127.053 103.037 128.97 103.037C130.633 103.037 131.629 103.995 131.833 105.214L131.839 105.252H130.741L130.734 105.233C130.563 104.56 129.954 104.014 128.97 104.014C127.738 104.014 126.964 105.004 126.964 106.547V106.56C126.964 108.134 127.751 109.143 128.97 109.143C129.89 109.143 130.474 108.737 130.728 107.975L130.741 107.937L131.833 107.931L131.82 108C131.541 109.238 130.62 110.121 128.976 110.121ZM136.185 110.121C134.236 110.121 133.03 108.775 133.03 106.585V106.572C133.03 104.376 134.236 103.037 136.185 103.037C138.134 103.037 139.34 104.376 139.34 106.572V106.585C139.34 108.775 138.134 110.121 136.185 110.121ZM136.185 109.143C137.48 109.143 138.21 108.197 138.21 106.585V106.572C138.21 104.954 137.48 104.014 136.185 104.014C134.89 104.014 134.16 104.954 134.16 106.572V106.585C134.16 108.197 134.89 109.143 136.185 109.143ZM140.976 110V103.157H142.08V104.186H142.182C142.525 103.462 143.166 103.037 144.175 103.037C145.711 103.037 146.568 103.944 146.568 105.569V110H145.464V105.836C145.464 104.604 144.956 104.014 143.864 104.014C142.772 104.014 142.08 104.75 142.08 105.95V110H140.976ZM155.47 110.121C154.518 110.121 153.756 109.67 153.337 108.908H153.236V110H152.131V100.44H153.236V104.236H153.337C153.712 103.506 154.531 103.037 155.47 103.037C157.209 103.037 158.339 104.427 158.339 106.572V106.585C158.339 108.718 157.203 110.121 155.47 110.121ZM155.216 109.143C156.467 109.143 157.209 108.178 157.209 106.585V106.572C157.209 104.979 156.467 104.014 155.216 104.014C153.972 104.014 153.21 104.992 153.21 106.572V106.585C153.21 108.166 153.972 109.143 155.216 109.143ZM161.854 110.121C160.553 110.121 159.569 109.333 159.569 108.089V108.077C159.569 106.858 160.47 106.153 162.064 106.058L164.025 105.938V105.315C164.025 104.471 163.511 104.014 162.489 104.014C161.67 104.014 161.13 104.319 160.953 104.852L160.946 104.871H159.842L159.848 104.833C160.026 103.76 161.067 103.037 162.527 103.037C164.196 103.037 165.13 103.894 165.13 105.315V110H164.025V108.991H163.923C163.492 109.721 162.775 110.121 161.854 110.121ZM160.699 108.064C160.699 108.756 161.289 109.162 162.083 109.162C163.206 109.162 164.025 108.426 164.025 107.448V106.826L162.197 106.94C161.156 107.004 160.699 107.372 160.699 108.051V108.064ZM169.596 110.121C167.864 110.121 166.727 108.718 166.727 106.585V106.572C166.727 104.427 167.857 103.037 169.596 103.037C170.536 103.037 171.355 103.506 171.729 104.236H171.831V100.44H172.935V110H171.831V108.908H171.729C171.31 109.67 170.549 110.121 169.596 110.121ZM169.85 109.143C171.094 109.143 171.856 108.166 171.856 106.585V106.572C171.856 104.992 171.094 104.014 169.85 104.014C168.6 104.014 167.857 104.979 167.857 106.572V106.585C167.857 108.178 168.6 109.143 169.85 109.143ZM177.796 112.412C176.145 112.412 175.092 111.669 174.92 110.546L174.933 110.54H176.076L176.082 110.546C176.203 111.066 176.812 111.435 177.796 111.435C179.021 111.435 179.751 110.857 179.751 109.848V108.464H179.649C179.218 109.219 178.443 109.645 177.504 109.645C175.733 109.645 174.635 108.273 174.635 106.356V106.344C174.635 104.427 175.739 103.037 177.529 103.037C178.494 103.037 179.243 103.513 179.662 104.287H179.738V103.157H180.843V109.905C180.843 111.435 179.662 112.412 177.796 112.412ZM177.745 108.667C179.015 108.667 179.776 107.715 179.776 106.356V106.344C179.776 104.985 179.008 104.014 177.745 104.014C176.475 104.014 175.765 104.985 175.765 106.344V106.356C175.765 107.715 176.475 108.667 177.745 108.667ZM185.614 110.121C183.659 110.121 182.479 108.75 182.479 106.604V106.598C182.479 104.484 183.685 103.037 185.544 103.037C187.404 103.037 188.534 104.42 188.534 106.464V106.896H183.608C183.64 108.312 184.421 109.137 185.64 109.137C186.566 109.137 187.138 108.699 187.322 108.286L187.347 108.229H188.452L188.439 108.28C188.204 109.207 187.227 110.121 185.614 110.121ZM185.538 104.021C184.522 104.021 183.748 104.712 183.627 106.014H187.411C187.296 104.662 186.547 104.021 185.538 104.021ZM192.519 110.121C190.995 110.121 189.948 109.384 189.821 108.254H190.951C191.135 108.826 191.681 109.2 192.557 109.2C193.477 109.2 194.131 108.762 194.131 108.14V108.127C194.131 107.664 193.782 107.34 192.938 107.137L191.878 106.883C190.595 106.579 190.018 106.02 190.018 105.036V105.03C190.018 103.894 191.109 103.037 192.563 103.037C193.998 103.037 194.994 103.754 195.147 104.871H194.061C193.915 104.332 193.382 103.957 192.557 103.957C191.744 103.957 191.148 104.376 191.148 104.979V104.992C191.148 105.455 191.49 105.747 192.297 105.944L193.35 106.198C194.639 106.509 195.261 107.067 195.261 108.045V108.058C195.261 109.276 194.074 110.121 192.519 110.121ZM197.798 110.063C197.347 110.063 196.973 109.689 196.973 109.238C196.973 108.781 197.347 108.413 197.798 108.413C198.255 108.413 198.623 108.781 198.623 109.238C198.623 109.689 198.255 110.063 197.798 110.063ZM206.776 110V101.869H203.825V100.84H210.871V101.869H207.919V110H206.776ZM212.481 110V100.44H213.586V104.186H213.687C214.03 103.462 214.671 103.037 215.68 103.037C217.216 103.037 218.073 103.944 218.073 105.569V110H216.969V105.836C216.969 104.604 216.461 104.014 215.369 104.014C214.277 104.014 213.586 104.75 213.586 105.95V110H212.481ZM222.788 110.121C220.833 110.121 219.652 108.75 219.652 106.604V106.598C219.652 104.484 220.858 103.037 222.718 103.037C224.578 103.037 225.708 104.42 225.708 106.464V106.896H220.782C220.814 108.312 221.595 109.137 222.813 109.137C223.74 109.137 224.311 108.699 224.495 108.286L224.521 108.229H225.625L225.613 108.28C225.378 109.207 224.4 110.121 222.788 110.121ZM222.712 104.021C221.696 104.021 220.922 104.712 220.801 106.014H224.584C224.47 104.662 223.721 104.021 222.712 104.021ZM229.692 110.121C228.169 110.121 227.121 109.384 226.995 108.254H228.124C228.309 108.826 228.854 109.2 229.73 109.2C230.651 109.2 231.305 108.762 231.305 108.14V108.127C231.305 107.664 230.955 107.34 230.111 107.137L229.051 106.883C227.769 106.579 227.191 106.02 227.191 105.036V105.03C227.191 103.894 228.283 103.037 229.737 103.037C231.171 103.037 232.168 103.754 232.32 104.871H231.235C231.089 104.332 230.556 103.957 229.73 103.957C228.918 103.957 228.321 104.376 228.321 104.979V104.992C228.321 105.455 228.664 105.747 229.47 105.944L230.524 106.198C231.812 106.509 232.434 107.067 232.434 108.045V108.058C232.434 109.276 231.247 110.121 229.692 110.121ZM236.863 110.121C234.908 110.121 233.728 108.75 233.728 106.604V106.598C233.728 104.484 234.934 103.037 236.793 103.037C238.653 103.037 239.783 104.42 239.783 106.464V106.896H234.857C234.889 108.312 235.67 109.137 236.889 109.137C237.815 109.137 238.387 108.699 238.571 108.286L238.596 108.229H239.701L239.688 108.28C239.453 109.207 238.476 110.121 236.863 110.121ZM236.787 104.021C235.772 104.021 234.997 104.712 234.876 106.014H238.66C238.545 104.662 237.796 104.021 236.787 104.021ZM247.797 110.121C245.88 110.121 244.655 108.73 244.655 106.56V106.547C244.655 104.42 245.873 103.037 247.79 103.037C249.453 103.037 250.45 103.995 250.653 105.214L250.659 105.252H249.561L249.555 105.233C249.384 104.56 248.774 104.014 247.79 104.014C246.559 104.014 245.784 105.004 245.784 106.547V106.56C245.784 108.134 246.572 109.143 247.79 109.143C248.711 109.143 249.295 108.737 249.549 107.975L249.561 107.937L250.653 107.931L250.64 108C250.361 109.238 249.441 110.121 247.797 110.121ZM254.073 110.121C252.771 110.121 251.788 109.333 251.788 108.089V108.077C251.788 106.858 252.689 106.153 254.282 106.058L256.244 105.938V105.315C256.244 104.471 255.729 104.014 254.707 104.014C253.889 104.014 253.349 104.319 253.171 104.852L253.165 104.871H252.06L252.067 104.833C252.245 103.76 253.286 103.037 254.746 103.037C256.415 103.037 257.348 103.894 257.348 105.315V110H256.244V108.991H256.142C255.71 109.721 254.993 110.121 254.073 110.121ZM252.917 108.064C252.917 108.756 253.508 109.162 254.301 109.162C255.425 109.162 256.244 108.426 256.244 107.448V106.826L254.415 106.94C253.374 107.004 252.917 107.372 252.917 108.051V108.064ZM259.289 110V103.157H260.393V104.186H260.495C260.837 103.462 261.479 103.037 262.488 103.037C264.024 103.037 264.881 103.944 264.881 105.569V110H263.776V105.836C263.776 104.604 263.269 104.014 262.177 104.014C261.085 104.014 260.393 104.75 260.393 105.95V110H259.289ZM83.4599 128.121C82.5077 128.121 81.746 127.67 81.327 126.908H81.2255V128H80.121V118.44H81.2255V122.236H81.327C81.7016 121.506 82.5204 121.037 83.4599 121.037C85.1991 121.037 86.329 122.427 86.329 124.572V124.585C86.329 126.718 85.1928 128.121 83.4599 128.121ZM83.206 127.143C84.4564 127.143 85.1991 126.178 85.1991 124.585V124.572C85.1991 122.979 84.4564 122.014 83.206 122.014C81.9618 122.014 81.2001 122.992 81.2001 124.572V124.585C81.2001 126.166 81.9618 127.143 83.206 127.143ZM90.7578 128.121C88.8028 128.121 87.6221 126.75 87.6221 124.604V124.598C87.6221 122.484 88.8282 121.037 90.688 121.037C92.5479 121.037 93.6778 122.42 93.6778 124.464V124.896H88.752C88.7837 126.312 89.5645 127.137 90.7832 127.137C91.71 127.137 92.2813 126.699 92.4654 126.286L92.4907 126.229H93.5952L93.5825 126.28C93.3477 127.207 92.3701 128.121 90.7578 128.121ZM90.6817 122.021C89.666 122.021 88.8916 122.712 88.771 124.014H92.5542C92.44 122.662 91.6909 122.021 90.6817 122.021ZM101.691 128.121C99.7742 128.121 98.5491 126.73 98.5491 124.56V124.547C98.5491 122.42 99.7679 121.037 101.685 121.037C103.348 121.037 104.345 121.995 104.548 123.214L104.554 123.252H103.456L103.449 123.233C103.278 122.56 102.669 122.014 101.685 122.014C100.453 122.014 99.679 123.004 99.679 124.547V124.56C99.679 126.134 100.466 127.143 101.685 127.143C102.605 127.143 103.189 126.737 103.443 125.975L103.456 125.937L104.548 125.931L104.535 126C104.256 127.238 103.335 128.121 101.691 128.121ZM108.9 128.121C106.952 128.121 105.746 126.775 105.746 124.585V124.572C105.746 122.376 106.952 121.037 108.9 121.037C110.849 121.037 112.055 122.376 112.055 124.572V124.585C112.055 126.775 110.849 128.121 108.9 128.121ZM108.9 127.143C110.195 127.143 110.925 126.197 110.925 124.585V124.572C110.925 122.954 110.195 122.014 108.9 122.014C107.605 122.014 106.875 122.954 106.875 124.572V124.585C106.875 126.197 107.605 127.143 108.9 127.143ZM113.691 128V121.157H114.795V122.186H114.897C115.24 121.462 115.881 121.037 116.89 121.037C118.426 121.037 119.283 121.944 119.283 123.569V128H118.179V123.836C118.179 122.604 117.671 122.014 116.579 122.014C115.487 122.014 114.795 122.75 114.795 123.95V128H113.691ZM121.662 128V122.071H120.526V121.157H121.662V120.396C121.662 119.031 122.347 118.377 123.649 118.377C123.915 118.377 124.156 118.396 124.385 118.44V119.323C124.252 119.297 124.068 119.291 123.871 119.291C123.084 119.291 122.766 119.678 122.766 120.427V121.157H124.321V122.071H122.766V128H121.662ZM126.421 119.837C126.002 119.837 125.659 119.494 125.659 119.075C125.659 118.656 126.002 118.313 126.421 118.313C126.84 118.313 127.182 118.656 127.182 119.075C127.182 119.494 126.84 119.837 126.421 119.837ZM125.862 128V121.157H126.967V128H125.862ZM131.789 130.412C130.139 130.412 129.085 129.669 128.913 128.546L128.926 128.54H130.069L130.075 128.546C130.196 129.066 130.805 129.435 131.789 129.435C133.014 129.435 133.744 128.857 133.744 127.848V126.464H133.643C133.211 127.219 132.436 127.645 131.497 127.645C129.726 127.645 128.628 126.273 128.628 124.356V124.344C128.628 122.427 129.732 121.037 131.522 121.037C132.487 121.037 133.236 121.513 133.655 122.287H133.731V121.157H134.836V127.905C134.836 129.435 133.655 130.412 131.789 130.412ZM131.738 126.667C133.008 126.667 133.769 125.715 133.769 124.356V124.344C133.769 122.985 133.001 122.014 131.738 122.014C130.469 122.014 129.758 122.985 129.758 124.344V124.356C129.758 125.715 130.469 126.667 131.738 126.667ZM139.106 128.121C137.551 128.121 136.751 127.207 136.751 125.588V121.157H137.856V125.321C137.856 126.553 138.3 127.143 139.392 127.143C140.598 127.143 141.239 126.407 141.239 125.207V121.157H142.343V128H141.239V126.978H141.137C140.801 127.708 140.109 128.121 139.106 128.121ZM144.328 128V121.157H145.433V122.173H145.534C145.795 121.456 146.436 121.037 147.362 121.037C147.572 121.037 147.807 121.062 147.915 121.081V122.154C147.686 122.116 147.477 122.09 147.236 122.09C146.182 122.09 145.433 122.757 145.433 123.76V128H144.328ZM151.804 128.121C149.849 128.121 148.668 126.75 148.668 124.604V124.598C148.668 122.484 149.874 121.037 151.734 121.037C153.594 121.037 154.724 122.42 154.724 124.464V124.896H149.798C149.83 126.312 150.611 127.137 151.829 127.137C152.756 127.137 153.327 126.699 153.512 126.286L153.537 126.229H154.641L154.629 126.28C154.394 127.207 153.416 128.121 151.804 128.121ZM151.728 122.021C150.712 122.021 149.938 122.712 149.817 124.014H153.6C153.486 122.662 152.737 122.021 151.728 122.021ZM158.886 128.121C157.153 128.121 156.017 126.718 156.017 124.585V124.572C156.017 122.427 157.147 121.037 158.886 121.037C159.826 121.037 160.644 121.506 161.019 122.236H161.121V118.44H162.225V128H161.121V126.908H161.019C160.6 127.67 159.838 128.121 158.886 128.121ZM159.14 127.143C160.384 127.143 161.146 126.166 161.146 124.585V124.572C161.146 122.992 160.384 122.014 159.14 122.014C157.89 122.014 157.147 122.979 157.147 124.572V124.585C157.147 126.178 157.89 127.143 159.14 127.143ZM168.429 119.837C168.01 119.837 167.668 119.494 167.668 119.075C167.668 118.656 168.01 118.313 168.429 118.313C168.848 118.313 169.191 118.656 169.191 119.075C169.191 119.494 168.848 119.837 168.429 119.837ZM167.871 128V121.157H168.975V128H167.871ZM170.979 128V121.157H172.084V122.186H172.185C172.528 121.462 173.169 121.037 174.179 121.037C175.715 121.037 176.572 121.944 176.572 123.569V128H175.467V123.836C175.467 122.604 174.959 122.014 173.867 122.014C172.776 122.014 172.084 122.75 172.084 123.95V128H170.979ZM185.213 128.216C183.208 128.216 181.913 127.162 181.779 125.67L181.773 125.601H182.916L182.922 125.67C183.004 126.584 183.957 127.162 185.277 127.162C186.521 127.162 187.429 126.521 187.429 125.588V125.582C187.429 124.82 186.902 124.299 185.645 124.02L184.629 123.798C182.795 123.392 182.002 122.547 182.002 121.221V121.214C182.008 119.697 183.335 118.625 185.226 118.625C187.054 118.625 188.33 119.704 188.425 121.068L188.432 121.157H187.289L187.276 121.075C187.149 120.269 186.388 119.672 185.194 119.678C184.052 119.685 183.17 120.224 183.17 121.183V121.189C183.17 121.919 183.671 122.414 184.915 122.687L185.931 122.916C187.841 123.341 188.597 124.109 188.597 125.429V125.436C188.597 127.149 187.257 128.216 185.213 128.216ZM193.076 128.121C191.121 128.121 189.941 126.75 189.941 124.604V124.598C189.941 122.484 191.147 121.037 193.007 121.037C194.866 121.037 195.996 122.42 195.996 124.464V124.896H191.071C191.102 126.312 191.883 127.137 193.102 127.137C194.029 127.137 194.6 126.699 194.784 126.286L194.809 126.229H195.914L195.901 126.28C195.666 127.207 194.689 128.121 193.076 128.121ZM193 122.021C191.985 122.021 191.21 122.712 191.09 124.014H194.873C194.758 122.662 194.009 122.021 193 122.021ZM200.063 128.051C198.654 128.051 198.064 127.53 198.064 126.223V122.071H196.985V121.157H198.064V119.386H199.206V121.157H200.704V122.071H199.206V125.943C199.206 126.75 199.486 127.073 200.197 127.073C200.393 127.073 200.501 127.067 200.704 127.048V127.987C200.489 128.025 200.279 128.051 200.063 128.051ZM204.708 128.051C203.299 128.051 202.708 127.53 202.708 126.223V122.071H201.629V121.157H202.708V119.386H203.851V121.157H205.349V122.071H203.851V125.943C203.851 126.75 204.13 127.073 204.841 127.073C205.038 127.073 205.146 127.067 205.349 127.048V127.987C205.133 128.025 204.924 128.051 204.708 128.051ZM207.505 119.837C207.087 119.837 206.744 119.494 206.744 119.075C206.744 118.656 207.087 118.313 207.505 118.313C207.924 118.313 208.267 118.656 208.267 119.075C208.267 119.494 207.924 119.837 207.505 119.837ZM206.947 128V121.157H208.051V128H206.947ZM210.055 128V121.157H211.16V122.186H211.261C211.604 121.462 212.245 121.037 213.255 121.037C214.791 121.037 215.648 121.944 215.648 123.569V128H214.543V123.836C214.543 122.604 214.035 122.014 212.944 122.014C211.852 122.014 211.16 122.75 211.16 123.95V128H210.055ZM220.388 130.412C218.737 130.412 217.683 129.669 217.512 128.546L217.525 128.54H218.667L218.674 128.546C218.794 129.066 219.404 129.435 220.388 129.435C221.613 129.435 222.343 128.857 222.343 127.848V126.464H222.241C221.809 127.219 221.035 127.645 220.096 127.645C218.325 127.645 217.226 126.273 217.226 124.356V124.344C217.226 122.427 218.331 121.037 220.121 121.037C221.086 121.037 221.835 121.513 222.254 122.287H222.33V121.157H223.434V127.905C223.434 129.435 222.254 130.412 220.388 130.412ZM220.337 126.667C221.606 126.667 222.368 125.715 222.368 124.356V124.344C222.368 122.985 221.6 122.014 220.337 122.014C219.067 122.014 218.356 122.985 218.356 124.344V124.356C218.356 125.715 219.067 126.667 220.337 126.667ZM227.762 128.121C226.238 128.121 225.191 127.384 225.064 126.254H226.194C226.378 126.826 226.924 127.2 227.8 127.2C228.72 127.2 229.374 126.762 229.374 126.14V126.127C229.374 125.664 229.025 125.34 228.181 125.137L227.121 124.883C225.838 124.579 225.261 124.02 225.261 123.036V123.03C225.261 121.894 226.353 121.037 227.806 121.037C229.241 121.037 230.237 121.754 230.39 122.871H229.304C229.158 122.332 228.625 121.957 227.8 121.957C226.987 121.957 226.391 122.376 226.391 122.979V122.992C226.391 123.455 226.733 123.747 227.54 123.944L228.593 124.198C229.882 124.509 230.504 125.067 230.504 126.045V126.058C230.504 127.276 229.317 128.121 227.762 128.121ZM233.041 128.063C232.59 128.063 232.216 127.689 232.216 127.238C232.216 126.781 232.59 126.413 233.041 126.413C233.498 126.413 233.866 126.781 233.866 127.238C233.866 127.689 233.498 128.063 233.041 128.063Z" fill="black"/>
<mask id="path-6-inside-2_3763_4147" fill="white">
<path d="M20.5 148H157V192H20.5V148Z"/>
</mask>
<path d="M156.5 148V192H157.5V148H156.5Z" fill="#3C3C43" fill-opacity="0.36" mask="url(#path-6-inside-2_3763_4147)"/>
<path d="M47.7255 176V164.022H51.8344C55.3872 164.022 57.4873 166.238 57.4873 169.999V170.015C57.4873 173.784 55.3955 176 51.8344 176H47.7255ZM49.2197 174.655H51.7348C54.4077 174.655 55.9599 172.945 55.9599 170.032V170.015C55.9599 167.093 54.3911 165.367 51.7348 165.367H49.2197V174.655ZM63.1637 176.158C60.6154 176.158 59.0382 174.398 59.0382 171.534V171.518C59.0382 168.646 60.6154 166.894 63.1637 166.894C65.7121 166.894 67.2892 168.646 67.2892 171.518V171.534C67.2892 174.398 65.7121 176.158 63.1637 176.158ZM63.1637 174.879C64.8571 174.879 65.8117 173.643 65.8117 171.534V171.518C65.8117 169.401 64.8571 168.172 63.1637 168.172C61.4704 168.172 60.5158 169.401 60.5158 171.518V171.534C60.5158 173.643 61.4704 174.879 63.1637 174.879ZM69.1224 176V167.052H70.5668V168.396H70.6996C71.1478 167.45 71.9862 166.894 73.306 166.894C75.3148 166.894 76.4354 168.081 76.4354 170.206V176H74.9911V170.555C74.9911 168.944 74.327 168.172 72.8993 168.172C71.4716 168.172 70.5668 169.135 70.5668 170.704V176H69.1224ZM78.6339 168.745L79.356 164.022H81.0079L79.7047 168.745H78.6339ZM86.4602 176.066C84.6175 176.066 83.8455 175.386 83.8455 173.676V168.247H82.4344V167.052H83.8455V164.736H85.3396V167.052H87.2986V168.247H85.3396V173.311C85.3396 174.365 85.7049 174.788 86.6346 174.788C86.8919 174.788 87.033 174.78 87.2986 174.755V175.983C87.0164 176.033 86.7425 176.066 86.4602 176.066ZM95.8791 176.158C94.1775 176.158 92.8908 175.128 92.8908 173.501V173.485C92.8908 171.891 94.0695 170.97 96.153 170.845L98.718 170.688V169.874C98.718 168.77 98.0456 168.172 96.7092 168.172C95.6384 168.172 94.9328 168.571 94.7004 169.268L94.6921 169.293H93.2478L93.2561 169.243C93.4885 167.84 94.8498 166.894 96.759 166.894C98.9421 166.894 100.162 168.015 100.162 169.874V176H98.718V174.68H98.5852C98.0207 175.635 97.0827 176.158 95.8791 176.158ZM94.3684 173.468C94.3684 174.373 95.1403 174.904 96.1779 174.904C97.6472 174.904 98.718 173.941 98.718 172.663V171.85L96.3274 171.999C94.966 172.082 94.3684 172.563 94.3684 173.452V173.468ZM102.477 176V163.499H103.921V176H102.477ZM106.369 176V163.499H107.813V176H106.369ZM113.855 176.158C111.306 176.158 109.729 174.398 109.729 171.534V171.518C109.729 168.646 111.306 166.894 113.855 166.894C116.403 166.894 117.98 168.646 117.98 171.518V171.534C117.98 174.398 116.403 176.158 113.855 176.158ZM113.855 174.879C115.548 174.879 116.503 173.643 116.503 171.534V171.518C116.503 169.401 115.548 168.172 113.855 168.172C112.161 168.172 111.207 169.401 111.207 171.518V171.534C111.207 173.643 112.161 174.879 113.855 174.879ZM121.208 176L118.701 167.052H120.146L121.905 174.207H122.038L124.039 167.052H125.408L127.409 174.207H127.542L129.301 167.052H130.737L128.231 176H126.778L124.777 169.077H124.645L122.652 176H121.208Z" fill="#007AFF"/>
<path d="M219.577 176.299C216.066 176.299 213.908 173.867 213.908 170.015V169.999C213.908 166.139 216.099 163.723 219.577 163.723C223.063 163.723 225.238 166.139 225.238 169.999V170.015C225.238 173.867 223.072 176.299 219.577 176.299ZM219.577 174.448C221.71 174.448 223.055 172.705 223.055 170.015V169.999C223.055 167.292 221.702 165.574 219.577 165.574C217.452 165.574 216.091 167.292 216.091 169.999V170.015C216.091 172.705 217.419 174.448 219.577 174.448ZM227.287 176V164.022H229.429V169.559H229.57L234.293 164.022H236.75L232.234 169.243L237.107 176H234.492L230.707 170.663L229.429 172.148V176H227.287Z" fill="#007AFF"/>
</g>
</g>
<defs>
<filter id="filter0_d_3763_4147" x="-1.5" y="-6" width="317" height="222" filterUnits="userSpaceOnUse" color-interpolation-filters="sRGB">
<feFlood flood-opacity="0" result="BackgroundImageFix"/>
<feColorMatrix in="SourceAlpha" type="matrix" values="0 0 0 0 0 0 0 0 0 0 0 0 0 0 0 0 0 0 127 0" result="hardAlpha"/>
<feOffset dy="4"/>
<feGaussianBlur stdDeviation="10"/>
<feComposite in2="hardAlpha" operator="out"/>
<feColorMatrix type="matrix" values="0 0 0 0 0 0 0 0 0 0 0 0 0 0 0 0 0 0 0.15 0"/>
<feBlend mode="normal" in2="BackgroundImageFix" result="effect1_dropShadow_3763_4147"/>
<feBlend mode="normal" in="SourceGraphic" in2="effect1_dropShadow_3763_4147" result="shape"/>
</filter>
<clipPath id="clip0_3763_4147">
<rect x="20.5" y="16" width="273" height="176" rx="14" fill="white"/>
</clipPath>
</defs>
</svg>
