<svg width="88" height="32" viewBox="0 0 88 32" fill="none" xmlns="http://www.w3.org/2000/svg">
<g clip-path="url(#clip0_884_3062)">
<path d="M0.5 16C0.5 7.16344 7.66344 0 16.5 0H71.5C80.3366 0 87.5 7.16344 87.5 16C87.5 24.8366 80.3366 32 71.5 32H16.5C7.66344 32 0.5 24.8366 0.5 16Z" fill="#262626"/>
<path d="M0.5 16C0.5 7.16344 7.66344 0 16.5 0H71.5C80.3366 0 87.5 7.16344 87.5 16C87.5 24.8366 80.3366 32 71.5 32H16.5C7.66344 32 0.5 24.8366 0.5 16Z" fill="white" fill-opacity="0.01"/>
<path d="M18.365 20.4889C18.2007 20.4871 18.0385 20.4521 17.8881 20.386C17.7377 20.3198 17.6023 20.2238 17.49 20.1039L14.375 16.6564L15.355 15.7814L18.3825 19.1501L25.6362 11.3276L26.5988 12.2026L19.2488 20.0776C19.1365 20.1976 19.001 20.2935 18.8507 20.3597C18.7003 20.4259 18.538 20.4609 18.3738 20.4626L18.365 20.4889Z" fill="white"/>
<path d="M40.28 21.168C39.4493 21.168 38.7633 21.042 38.222 20.79C37.6807 20.5287 37.2327 20.1833 36.878 19.754L38.082 18.634C38.3433 18.9233 38.6467 19.1613 38.992 19.348C39.3467 19.5347 39.79 19.628 40.322 19.628C40.7513 19.628 41.12 19.5347 41.428 19.348C41.736 19.1613 41.89 18.8627 41.89 18.452C41.89 18.256 41.8387 18.0973 41.736 17.976C41.6427 17.8453 41.5027 17.7333 41.316 17.64C41.1387 17.5373 40.9147 17.444 40.644 17.36C40.3827 17.276 40.084 17.1827 39.748 17.08C39.4307 16.9867 39.118 16.8747 38.81 16.744C38.502 16.604 38.2267 16.436 37.984 16.24C37.7507 16.0347 37.5593 15.7873 37.41 15.498C37.27 15.1993 37.2 14.84 37.2 14.42C37.2 13.9907 37.2793 13.608 37.438 13.272C37.606 12.936 37.8347 12.656 38.124 12.432C38.4227 12.1987 38.7773 12.026 39.188 11.914C39.5987 11.7927 40.0513 11.732 40.546 11.732C41.2927 11.732 41.9273 11.8533 42.45 12.096C42.9727 12.3293 43.3973 12.6653 43.724 13.104L42.52 14.238C42.296 13.9673 42.0207 13.7433 41.694 13.566C41.3767 13.3793 40.9893 13.286 40.532 13.286C40.3453 13.286 40.1633 13.3047 39.986 13.342C39.818 13.3793 39.6687 13.4447 39.538 13.538C39.4073 13.622 39.3 13.734 39.216 13.874C39.1413 14.0047 39.104 14.168 39.104 14.364C39.104 14.56 39.1507 14.7233 39.244 14.854C39.3467 14.9847 39.4867 15.1013 39.664 15.204C39.8507 15.2973 40.0747 15.386 40.336 15.47C40.5973 15.554 40.896 15.6473 41.232 15.75C41.5493 15.8527 41.862 15.9693 42.17 16.1C42.478 16.2307 42.7533 16.3987 42.996 16.604C43.2387 16.8 43.43 17.0473 43.57 17.346C43.7193 17.6353 43.794 17.99 43.794 18.41C43.794 18.858 43.7053 19.2547 43.528 19.6C43.36 19.9453 43.1173 20.2347 42.8 20.468C42.492 20.692 42.1233 20.8647 41.694 20.986C41.2647 21.1073 40.7933 21.168 40.28 21.168ZM47.918 21.154C47.1527 21.154 46.5927 20.9487 46.238 20.538C45.8927 20.1273 45.72 19.5067 45.72 18.676V15.498H44.628V14.084H45.72V12.208H47.47V14.084H49.486V15.498H47.47V18.662C47.47 19.026 47.5353 19.2873 47.666 19.446C47.7967 19.5953 47.9927 19.67 48.254 19.67C48.4407 19.67 48.6087 19.6373 48.758 19.572C48.9073 19.4973 49.038 19.4087 49.15 19.306L49.78 20.51C49.5467 20.734 49.2807 20.8973 48.982 21C48.6833 21.1027 48.3287 21.154 47.918 21.154ZM50.9728 14.084H52.6388V15.246H52.7228C52.8628 14.8447 53.0775 14.5227 53.3668 14.28C53.6655 14.0373 54.0388 13.916 54.4868 13.916C54.8322 13.916 55.1542 13.972 55.4528 14.084L54.9628 15.694C54.8602 15.6287 54.7388 15.582 54.5988 15.554C54.4588 15.526 54.3235 15.512 54.1928 15.512C53.7635 15.512 53.4135 15.6613 53.1428 15.96C52.8722 16.2493 52.7368 16.66 52.7368 17.192V21H50.9728V14.084ZM58.4146 12.166C58.4146 12.4273 58.3213 12.6607 58.1346 12.866C57.9573 13.0713 57.7053 13.174 57.3786 13.174C57.0426 13.174 56.7859 13.0713 56.6086 12.866C56.4313 12.6607 56.3426 12.4273 56.3426 12.166C56.3426 11.8953 56.4313 11.662 56.6086 11.466C56.7859 11.2607 57.0426 11.158 57.3786 11.158C57.7053 11.158 57.9573 11.2607 58.1346 11.466C58.3213 11.662 58.4146 11.8953 58.4146 12.166ZM56.4826 14.084H58.2466V21H56.4826V14.084ZM60.1056 14.084H61.7716V15.204H61.8556C62.0143 14.8307 62.2616 14.5227 62.5976 14.28C62.943 14.0373 63.3536 13.916 63.8296 13.916C64.707 13.916 65.337 14.1493 65.7196 14.616C66.1116 15.0733 66.3076 15.7687 66.3076 16.702V21H64.5436V17.052C64.5436 16.492 64.441 16.0767 64.2356 15.806C64.0396 15.5353 63.7036 15.4 63.2276 15.4C62.7796 15.4 62.439 15.5493 62.2056 15.848C61.9816 16.1373 61.8696 16.562 61.8696 17.122V21H60.1056V14.084ZM70.9323 23.758C70.3257 23.758 69.789 23.6507 69.3223 23.436C68.865 23.2307 68.515 22.9787 68.2723 22.68L69.3363 21.602C69.495 21.798 69.7143 21.9567 69.9943 22.078C70.2837 22.1993 70.5917 22.26 70.9183 22.26C71.1423 22.26 71.357 22.232 71.5623 22.176C71.7677 22.1293 71.945 22.0453 72.0943 21.924C72.2437 21.812 72.3603 21.658 72.4443 21.462C72.5377 21.266 72.5843 21.0187 72.5843 20.72V19.404H72.5143C72.365 19.8147 72.1083 20.146 71.7443 20.398C71.3897 20.6407 70.9603 20.762 70.4563 20.762C70.0363 20.762 69.649 20.6827 69.2943 20.524C68.949 20.356 68.6503 20.1227 68.3983 19.824C68.1557 19.516 67.9643 19.152 67.8243 18.732C67.6937 18.3027 67.6283 17.822 67.6283 17.29C67.6283 16.7767 67.6937 16.3147 67.8243 15.904C67.9643 15.4933 68.1603 15.1433 68.4123 14.854C68.6643 14.5553 68.963 14.3267 69.3083 14.168C69.663 14.0093 70.0503 13.93 70.4703 13.93C70.993 13.93 71.4363 14.0513 71.8003 14.294C72.1737 14.5367 72.4397 14.8727 72.5983 15.302H72.6823V14.084H74.3483V20.804C74.3483 21.7373 74.045 22.4607 73.4383 22.974C72.8317 23.4967 71.9963 23.758 70.9323 23.758ZM71.0023 19.292C71.5157 19.292 71.9077 19.11 72.1783 18.746C72.449 18.3727 72.5843 17.9013 72.5843 17.332C72.5843 16.744 72.449 16.2727 72.1783 15.918C71.9077 15.554 71.5157 15.372 71.0023 15.372C70.4983 15.372 70.1063 15.554 69.8263 15.918C69.5557 16.2727 69.4203 16.744 69.4203 17.332C69.4203 17.9013 69.5557 18.3727 69.8263 18.746C70.1063 19.11 70.4983 19.292 71.0023 19.292Z" fill="white"/>
</g>
<defs>
<clipPath id="clip0_884_3062">
<path d="M0.5 16C0.5 7.16344 7.66344 0 16.5 0H71.5C80.3366 0 87.5 7.16344 87.5 16C87.5 24.8366 80.3366 32 71.5 32H16.5C7.66344 32 0.5 24.8366 0.5 16Z" fill="white"/>
</clipPath>
</defs>
</svg>
