<svg width="300" height="64" fill="none" xmlns="http://www.w3.org/2000/svg"><g clip-path="url(#structure__a)"><rect x="33" y="28" width="107" height="32" rx="16" fill="#262626"/><g clip-path="url(#structure__b)"><g clip-path="url(#structure__c)"><path fill-rule="evenodd" clip-rule="evenodd" d="M45.083 36h15.834l.083.083v15.834l-.083.083H45.083L45 51.917V36.083l.083-.083Zm15.75 15.834V36.165H45.167v15.669h15.668ZM48.27 37h9.462A2.269 2.269 0 0 1 60 39.269v9.462A2.268 2.268 0 0 1 57.731 51H48.27A2.269 2.269 0 0 1 46 48.731V39.27A2.269 2.269 0 0 1 48.269 37Z" fill="#fff"/></g><path d="M72.893 49.168c-.83 0-1.516-.126-2.058-.378a3.93 3.93 0 0 1-1.344-1.036l1.204-1.12c.262.29.565.527.91.714.355.187.798.28 1.33.28.43 0 .798-.093 1.106-.28.308-.187.462-.485.462-.896a.712.712 0 0 0-.154-.476 1.114 1.114 0 0 0-.42-.336 3.315 3.315 0 0 0-.672-.28 66.47 66.47 0 0 0-.896-.28 8.63 8.63 0 0 1-.938-.336 3.826 3.826 0 0 1-.826-.504 2.51 2.51 0 0 1-.574-.742c-.14-.299-.21-.658-.21-1.078 0-.43.08-.812.238-1.148.168-.336.397-.616.686-.84a2.979 2.979 0 0 1 1.064-.518 4.78 4.78 0 0 1 1.358-.182c.747 0 1.382.121 1.904.364.523.233.948.57 1.274 1.008l-1.204 1.134a2.78 2.78 0 0 0-.826-.672c-.317-.187-.704-.28-1.162-.28-.186 0-.368.019-.546.056a1.214 1.214 0 0 0-.448.196 1.01 1.01 0 0 0-.322.336.976.976 0 0 0-.112.49c0 .196.047.36.14.49.103.13.243.247.42.35.187.093.41.182.672.266.262.084.56.177.896.28.318.103.63.22.938.35.308.13.584.299.826.504.243.196.434.443.574.742.15.29.224.644.224 1.064 0 .448-.088.845-.266 1.19a2.33 2.33 0 0 1-.728.868 3.463 3.463 0 0 1-1.106.518 5.2 5.2 0 0 1-1.414.182Zm7.638-.014c-.765 0-1.325-.205-1.68-.616-.345-.41-.518-1.031-.518-1.862v-3.178h-1.092v-1.414h1.092v-1.876h1.75v1.876H82.1v1.414h-2.016v3.164c0 .364.066.625.196.784.13.15.327.224.588.224.187 0 .355-.033.504-.098.15-.075.28-.163.392-.266l.63 1.204c-.233.224-.5.387-.798.49a3.282 3.282 0 0 1-1.064.154Zm3.055-7.07h1.666v1.162h.084a2.16 2.16 0 0 1 .644-.966c.299-.243.672-.364 1.12-.364.345 0 .667.056.966.168l-.49 1.61a1.059 1.059 0 0 0-.364-.14 2.069 2.069 0 0 0-.406-.042c-.43 0-.78.15-1.05.448-.27.29-.406.7-.406 1.232V49h-1.764v-6.916Zm7.442-1.918c0 .261-.094.495-.28.7-.178.205-.43.308-.756.308-.336 0-.593-.103-.77-.308a1.041 1.041 0 0 1-.266-.7c0-.27.088-.504.266-.7.177-.205.434-.308.77-.308.326 0 .578.103.756.308a.98.98 0 0 1 .28.7Zm-1.932 1.918h1.764V49h-1.764v-6.916Zm3.623 0h1.666v1.12h.084c.159-.373.406-.681.742-.924.345-.243.756-.364 1.232-.364.877 0 1.507.233 1.89.7.392.457.588 1.153.588 2.086V49h-1.764v-3.948c0-.56-.103-.975-.308-1.246-.196-.27-.532-.406-1.008-.406-.448 0-.789.15-1.022.448-.224.29-.336.714-.336 1.274V49h-1.764v-6.916Zm10.827 9.674c-.607 0-1.144-.107-1.61-.322-.458-.205-.808-.457-1.05-.756l1.064-1.078c.158.196.378.355.658.476.289.121.597.182.924.182.224 0 .438-.028.644-.084.205-.047.382-.13.532-.252a1.11 1.11 0 0 0 .35-.462c.093-.196.14-.443.14-.742v-1.316h-.07c-.15.41-.406.742-.77.994-.355.243-.784.364-1.288.364-.42 0-.808-.08-1.162-.238a2.709 2.709 0 0 1-.896-.7 3.564 3.564 0 0 1-.574-1.092 4.932 4.932 0 0 1-.196-1.442c0-.513.065-.975.196-1.386a3.1 3.1 0 0 1 .588-1.05c.252-.299.55-.527.896-.686a2.81 2.81 0 0 1 1.162-.238c.522 0 .966.121 1.33.364.373.243.639.579.798 1.008h.084v-1.218h1.666v6.72c0 .933-.304 1.657-.91 2.17-.607.523-1.442.784-2.506.784Zm.07-4.466c.513 0 .905-.182 1.176-.546.27-.373.406-.845.406-1.414 0-.588-.136-1.06-.406-1.414-.271-.364-.663-.546-1.176-.546-.504 0-.896.182-1.176.546-.271.355-.406.826-.406 1.414 0 .57.135 1.04.406 1.414.28.364.672.546 1.176.546Z" fill="#fff"/><g clip-path="url(#structure__d)"><path d="M124 33.828A10.171 10.171 0 1 0 134.172 44 10.187 10.187 0 0 0 124 33.828Zm4.305 13.125-1.391 1.391L124 45.391l-2.914 2.914-1.391-1.391L122.609 44l-2.914-2.914 1.391-1.391L124 42.609l2.914-2.914 1.391 1.391L125.391 44l2.914 2.953Z" fill="#fff"/></g></g></g><path d="M58.1 12.144c-.464 0-.868-.06-1.212-.18a2.514 2.514 0 0 1-.84-.48 2.058 2.058 0 0 1-.504-.708 2.247 2.247 0 0 1-.168-.864c0-.224.036-.44.108-.648.072-.208.176-.396.312-.564.136-.176.296-.324.48-.444.192-.12.408-.2.648-.24v-.072c-.2-.064-.38-.16-.54-.288a2.25 2.25 0 0 1-.396-.432 2.078 2.078 0 0 1-.24-.504 1.697 1.697 0 0 1-.084-.516c0-.28.048-.548.144-.804.104-.264.256-.492.456-.684.2-.2.452-.36.756-.48s.664-.18 1.08-.18a2.9 2.9 0 0 1 1.068.18c.304.12.556.28.756.48.2.192.348.42.444.684.104.256.156.524.156.804 0 .168-.028.34-.084.516a1.86 1.86 0 0 1-.252.504c-.104.16-.236.304-.396.432a1.538 1.538 0 0 1-.528.288v.072c.24.04.452.12.636.24.192.12.356.268.492.444.136.168.24.356.312.564.072.208.108.424.108.648 0 .304-.056.592-.168.864-.112.264-.28.5-.504.708-.224.2-.508.36-.852.48-.336.12-.732.18-1.188.18Zm0-4.536c.176 0 .348-.024.516-.072.168-.056.316-.136.444-.24.128-.112.228-.248.3-.408.08-.168.12-.368.12-.6 0-.24-.04-.444-.12-.612a1.044 1.044 0 0 0-.3-.408 1.141 1.141 0 0 0-.444-.24 1.659 1.659 0 0 0-1.044 0 1.141 1.141 0 0 0-.444.24c-.128.104-.232.24-.312.408a1.551 1.551 0 0 0-.108.612c0 .232.036.432.108.6.08.16.184.296.312.408.128.104.276.184.444.24.168.048.344.072.528.072Zm0 3.648c.48 0 .876-.12 1.188-.36.32-.248.48-.604.48-1.068 0-.472-.16-.824-.48-1.056-.312-.232-.708-.348-1.188-.348s-.88.116-1.2.348c-.32.232-.48.584-.48 1.056 0 .464.16.82.48 1.068.32.24.72.36 1.2.36Zm4.615-5.184h.912v1.212h.072c.072-.2.172-.384.3-.552.136-.168.292-.312.468-.432.184-.12.384-.212.6-.276.224-.064.456-.096.696-.096.392 0 .748.08 1.068.24.328.152.608.368.84.648.232.272.408.6.528.984.128.384.192.8.192 1.248 0 .448-.064.864-.192 1.248a2.91 2.91 0 0 1-.528.984 2.458 2.458 0 0 1-1.908.864c-.488 0-.908-.116-1.26-.348a1.97 1.97 0 0 1-.756-.888h-.072v3.312h-.96V6.072Zm2.808 5.208c.264 0 .508-.044.732-.132.232-.096.432-.236.6-.42.176-.192.312-.428.408-.708.096-.28.144-.608.144-.984s-.048-.704-.144-.984a1.865 1.865 0 0 0-.408-.696 1.49 1.49 0 0 0-.6-.42 1.839 1.839 0 0 0-.732-.144c-.256 0-.496.048-.72.144-.224.088-.42.228-.588.42-.168.184-.3.416-.396.696-.096.28-.144.608-.144.984s.048.704.144.984c.096.28.228.516.396.708.168.184.364.324.588.42.224.088.464.132.72.132Zm5.652-2.292-1.98-2.916h1.152l1.404 2.22h.048l1.452-2.22h1.032l-1.98 2.868L74.38 12h-1.152l-1.5-2.364h-.048L70.131 12H69.1l2.076-3.012Z" fill="#3C4C4F"/><path opacity=".5" fill="#C1DADE" d="M61 20h8v40h-8z"/><path d="M103.82 10.392h-3.636v-.804l3.444-5.388h1.14l-3.456 5.328h2.508V7.176h.984v2.352h1.08v.864h-1.08V12h-.984v-1.608Zm3.895-4.32h.912v1.212h.072c.072-.2.172-.384.3-.552.136-.168.292-.312.468-.432.184-.12.384-.212.6-.276.224-.064.456-.096.696-.096.392 0 .748.08 1.068.24.328.152.608.368.84.648.232.272.408.6.528.984.128.384.192.8.192 1.248 0 .448-.064.864-.192 1.248a2.91 2.91 0 0 1-.528.984 2.458 2.458 0 0 1-1.908.864c-.488 0-.908-.116-1.26-.348a1.97 1.97 0 0 1-.756-.888h-.072v3.312h-.96V6.072Zm2.808 5.208c.264 0 .508-.044.732-.132.232-.096.432-.236.6-.42.176-.192.312-.428.408-.708.096-.28.144-.608.144-.984s-.048-.704-.144-.984a1.865 1.865 0 0 0-.408-.696 1.49 1.49 0 0 0-.6-.42 1.839 1.839 0 0 0-.732-.144c-.256 0-.496.048-.72.144-.224.088-.42.228-.588.42-.168.184-.3.416-.396.696-.096.28-.144.608-.144.984s.048.704.144.984c.096.28.228.516.396.708.168.184.364.324.588.42.224.088.464.132.72.132Zm5.652-2.292-1.98-2.916h1.152l1.404 2.22h.048l1.452-2.22h1.032l-1.98 2.868 2.076 3.06h-1.152l-1.5-2.364h-.048L115.131 12h-1.032l2.076-3.012Z" fill="#3C4C4F"/><path opacity=".5" fill="#C1DADE" d="M108 20h4v40h-4z"/><path d="M131.82 10.392h-3.636v-.804l3.444-5.388h1.14l-3.456 5.328h2.508V7.176h.984v2.352h1.08v.864h-1.08V12h-.984v-1.608Zm3.895-4.32h.912v1.212h.072c.072-.2.172-.384.3-.552.136-.168.292-.312.468-.432.184-.12.384-.212.6-.276.224-.064.456-.096.696-.096.392 0 .748.08 1.068.24.328.152.608.368.84.648.232.272.408.6.528.984.128.384.192.8.192 1.248 0 .448-.064.864-.192 1.248a2.91 2.91 0 0 1-.528.984 2.458 2.458 0 0 1-1.908.864c-.488 0-.908-.116-1.26-.348a1.97 1.97 0 0 1-.756-.888h-.072v3.312h-.96V6.072Zm2.808 5.208c.264 0 .508-.044.732-.132.232-.096.432-.236.6-.42.176-.192.312-.428.408-.708.096-.28.144-.608.144-.984s-.048-.704-.144-.984a1.865 1.865 0 0 0-.408-.696 1.49 1.49 0 0 0-.6-.42 1.839 1.839 0 0 0-.732-.144c-.256 0-.496.048-.72.144-.224.088-.42.228-.588.42-.168.184-.3.416-.396.696-.096.28-.144.608-.144.984s.048.704.144.984c.096.28.228.516.396.708.168.184.364.324.588.42.224.088.464.132.72.132Zm5.652-2.292-1.98-2.916h1.152l1.404 2.22h.048l1.452-2.22h1.032l-1.98 2.868 2.076 3.06h-1.152l-1.5-2.364h-.048L143.131 12h-1.032l2.076-3.012Z" fill="#3C4C4F"/><path opacity=".5" fill="#C1DADE" d="M136 20h4v40h-4z"/><path d="M26.14 11.16h2.232V5.28l-2.136.984-.312-.672L28.552 4.2h.84v6.96h2.004V12H26.14v-.84Zm7.231-.456c0-.32.056-.6.168-.84.112-.248.264-.472.456-.672.2-.208.432-.4.696-.576.272-.176.564-.356.876-.54.248-.152.468-.292.66-.42.192-.136.352-.276.48-.42.128-.144.224-.296.288-.456.064-.16.096-.344.096-.552 0-.424-.136-.744-.408-.96-.264-.224-.604-.336-1.02-.336-.416 0-.776.084-1.08.252a2.31 2.31 0 0 0-.768.648l-.552-.576c.24-.36.556-.648.948-.864.392-.224.864-.336 1.416-.336.408 0 .768.056 1.08.168.312.104.572.252.78.444.216.184.376.408.48.672.112.256.168.536.168.84 0 .344-.06.648-.18.912s-.28.504-.48.72c-.2.216-.432.412-.696.588-.256.168-.528.332-.816.492-.256.144-.484.28-.684.408-.2.128-.368.264-.504.408a1.67 1.67 0 0 0-.3.48 1.827 1.827 0 0 0-.096.624v.324h3.948V12h-4.956v-1.296Zm7.04-4.632h.912v1.212h.072c.072-.2.172-.384.3-.552.136-.168.292-.312.468-.432.184-.12.384-.212.6-.276.224-.064.456-.096.696-.096.392 0 .748.08 1.068.24.328.152.608.368.84.648.232.272.408.6.528.984.128.384.192.8.192 1.248 0 .448-.064.864-.192 1.248a2.91 2.91 0 0 1-.528.984 2.458 2.458 0 0 1-1.908.864c-.488 0-.908-.116-1.26-.348a1.97 1.97 0 0 1-.756-.888h-.072v3.312h-.96V6.072Zm2.808 5.208c.264 0 .508-.044.732-.132.232-.096.432-.236.6-.42.176-.192.312-.428.408-.708.096-.28.144-.608.144-.984s-.048-.704-.144-.984a1.865 1.865 0 0 0-.408-.696 1.49 1.49 0 0 0-.6-.42 1.839 1.839 0 0 0-.732-.144c-.256 0-.496.048-.72.144-.224.088-.42.228-.588.42-.168.184-.3.416-.396.696-.096.28-.144.608-.144.984s.048.704.144.984c.096.28.228.516.396.708.168.184.364.324.588.42.224.088.464.132.72.132Zm5.651-2.292-1.98-2.916h1.152l1.404 2.22h.048l1.452-2.22h1.032l-1.98 2.868L52.074 12h-1.152l-1.5-2.364h-.048L47.826 12h-1.032l2.076-3.012Z" fill="#3C4C4F"/><path opacity=".5" fill="#C1DADE" d="M33 20h12v40H33z"/><path d="M3.6 36.144c-.464 0-.868-.06-1.212-.18a2.514 2.514 0 0 1-.84-.48 2.058 2.058 0 0 1-.504-.708 2.247 2.247 0 0 1-.168-.864c0-.224.036-.44.108-.648.072-.208.176-.396.312-.564.136-.176.296-.324.48-.444.192-.12.408-.2.648-.24v-.072c-.2-.064-.38-.16-.54-.288a2.25 2.25 0 0 1-.396-.432 2.078 2.078 0 0 1-.24-.504 1.697 1.697 0 0 1-.084-.516c0-.28.048-.548.144-.804.104-.264.256-.492.456-.684.2-.2.452-.36.756-.48s.664-.18 1.08-.18a2.9 2.9 0 0 1 1.068.18c.304.12.556.28.756.48.2.192.348.42.444.684.104.256.156.524.156.804 0 .168-.028.34-.084.516a1.86 1.86 0 0 1-.252.504c-.104.16-.236.304-.396.432a1.538 1.538 0 0 1-.528.288v.072c.24.04.452.12.636.24.192.12.356.268.492.444.136.168.24.356.312.564.072.208.108.424.108.648 0 .304-.056.592-.168.864-.112.264-.28.5-.504.708-.224.2-.508.36-.852.48-.336.12-.732.18-1.188.18Zm0-4.536c.176 0 .348-.024.516-.072.168-.056.316-.136.444-.24.128-.112.228-.248.3-.408.08-.168.12-.368.12-.6 0-.24-.04-.444-.12-.612a1.044 1.044 0 0 0-.3-.408 1.141 1.141 0 0 0-.444-.24 1.659 1.659 0 0 0-1.044 0 1.141 1.141 0 0 0-.444.24c-.128.104-.232.24-.312.408a1.551 1.551 0 0 0-.108.612c0 .232.036.432.108.6.08.16.184.296.312.408.128.104.276.184.444.24.168.048.344.072.528.072Zm0 3.648c.48 0 .876-.12 1.188-.36.32-.248.48-.604.48-1.068 0-.472-.16-.824-.48-1.056-.312-.232-.708-.348-1.188-.348s-.88.116-1.2.348c-.32.232-.48.584-.48 1.056 0 .464.16.82.48 1.068.32.24.72.36 1.2.36Zm4.615-5.184h.912v1.212H9.2c.072-.2.172-.384.3-.552.136-.168.292-.312.468-.432.184-.12.384-.212.6-.276.224-.064.456-.096.696-.096.392 0 .748.08 1.068.24.328.152.608.368.84.648.232.272.408.6.528.984.128.384.192.8.192 1.248 0 .448-.064.864-.192 1.248a2.91 2.91 0 0 1-.528.984 2.458 2.458 0 0 1-1.908.864c-.488 0-.908-.116-1.26-.348a1.97 1.97 0 0 1-.756-.888h-.072v3.312h-.96v-8.148Zm2.808 5.208c.264 0 .508-.044.732-.132.232-.096.432-.236.6-.42.176-.192.312-.428.408-.708.096-.28.144-.608.144-.984s-.048-.704-.144-.984a1.865 1.865 0 0 0-.408-.696 1.49 1.49 0 0 0-.6-.42 1.839 1.839 0 0 0-.732-.144c-.256 0-.496.048-.72.144-.224.088-.42.228-.588.42-.168.184-.3.416-.396.696-.096.28-.144.608-.144.984s.048.704.144.984c.096.28.228.516.396.708.168.184.364.324.588.42.224.088.464.132.72.132Zm5.652-2.292-1.98-2.916h1.152l1.404 2.22h.048l1.452-2.22h1.032l-1.98 2.868L19.88 36h-1.152l-1.5-2.364h-.048L15.631 36H14.6l2.076-3.012Z" fill="#3C4C4F"/><path opacity=".5" fill="#F2A6B0" d="M25 28h115v8H25z"/><path d="M3.6 60.144c-.464 0-.868-.06-1.212-.18a2.514 2.514 0 0 1-.84-.48 2.058 2.058 0 0 1-.504-.708 2.247 2.247 0 0 1-.168-.864c0-.224.036-.44.108-.648.072-.208.176-.396.312-.564.136-.176.296-.324.48-.444.192-.12.408-.2.648-.24v-.072c-.2-.064-.38-.16-.54-.288a2.25 2.25 0 0 1-.396-.432 2.078 2.078 0 0 1-.24-.504 1.697 1.697 0 0 1-.084-.516c0-.28.048-.548.144-.804.104-.264.256-.492.456-.684.2-.2.452-.36.756-.48s.664-.18 1.08-.18a2.9 2.9 0 0 1 1.068.18c.304.12.556.28.756.48.2.192.348.42.444.684.104.256.156.524.156.804 0 .168-.028.34-.084.516a1.86 1.86 0 0 1-.252.504c-.104.16-.236.304-.396.432a1.538 1.538 0 0 1-.528.288v.072c.24.04.452.12.636.24.192.12.356.268.492.444.136.168.24.356.312.564.072.208.108.424.108.648 0 .304-.056.592-.168.864-.112.264-.28.5-.504.708-.224.2-.508.36-.852.48-.336.12-.732.18-1.188.18Zm0-4.536c.176 0 .348-.024.516-.072.168-.056.316-.136.444-.24.128-.112.228-.248.3-.408.08-.168.12-.368.12-.6 0-.24-.04-.444-.12-.612a1.044 1.044 0 0 0-.3-.408 1.141 1.141 0 0 0-.444-.24 1.659 1.659 0 0 0-1.044 0 1.141 1.141 0 0 0-.444.24c-.128.104-.232.24-.312.408a1.551 1.551 0 0 0-.108.612c0 .232.036.432.108.6.08.16.184.296.312.408.128.104.276.184.444.24.168.048.344.072.528.072Zm0 3.648c.48 0 .876-.12 1.188-.36.32-.248.48-.604.48-1.068 0-.472-.16-.824-.48-1.056-.312-.232-.708-.348-1.188-.348s-.88.116-1.2.348c-.32.232-.48.584-.48 1.056 0 .464.16.82.48 1.068.32.24.72.36 1.2.36Zm4.615-5.184h.912v1.212H9.2c.072-.2.172-.384.3-.552.136-.168.292-.312.468-.432.184-.12.384-.212.6-.276.224-.064.456-.096.696-.096.392 0 .748.08 1.068.24.328.152.608.368.84.648.232.272.408.6.528.984.128.384.192.8.192 1.248 0 .448-.064.864-.192 1.248a2.91 2.91 0 0 1-.528.984 2.458 2.458 0 0 1-1.908.864c-.488 0-.908-.116-1.26-.348a1.97 1.97 0 0 1-.756-.888h-.072v3.312h-.96v-8.148Zm2.808 5.208c.264 0 .508-.044.732-.132.232-.096.432-.236.6-.42.176-.192.312-.428.408-.708.096-.28.144-.608.144-.984s-.048-.704-.144-.984a1.865 1.865 0 0 0-.408-.696 1.49 1.49 0 0 0-.6-.42 1.839 1.839 0 0 0-.732-.144c-.256 0-.496.048-.72.144-.224.088-.42.228-.588.42-.168.184-.3.416-.396.696-.096.28-.144.608-.144.984s.048.704.144.984c.096.28.228.516.396.708.168.184.364.324.588.42.224.088.464.132.72.132Zm5.652-2.292-1.98-2.916h1.152l1.404 2.22h.048l1.452-2.22h1.032l-1.98 2.868L19.88 60h-1.152l-1.5-2.364h-.048L15.631 60H14.6l2.076-3.012Z" fill="#3C4C4F"/><path opacity=".5" fill="#F2A6B0" d="M25 52h115v8H25z"/><g clip-path="url(#structure__e)"><rect x="205" y="28" width="87" height="32" rx="16" fill="#262626"/><g clip-path="url(#structure__f)"><g clip-path="url(#structure__g)"><path fill-rule="evenodd" clip-rule="evenodd" d="M217.083 36h15.834l.083.083v15.834l-.083.083h-15.834l-.083-.083V36.083l.083-.083Zm15.751 15.834V36.165h-15.669v15.669h15.669ZM220.269 37h9.462A2.269 2.269 0 0 1 232 39.269v9.462A2.269 2.269 0 0 1 229.731 51h-9.462A2.269 2.269 0 0 1 218 48.731V39.27a2.269 2.269 0 0 1 2.269-2.27Z" fill="#fff"/></g><path d="M244.893 49.168c-.83 0-1.516-.126-2.058-.378a3.937 3.937 0 0 1-1.344-1.036l1.204-1.12c.262.29.565.527.91.714.355.187.798.28 1.33.28.43 0 .798-.093 1.106-.28.308-.187.462-.485.462-.896a.71.71 0 0 0-.154-.476 1.108 1.108 0 0 0-.42-.336 3.295 3.295 0 0 0-.672-.28c-.261-.084-.56-.177-.896-.28a8.66 8.66 0 0 1-.938-.336 3.836 3.836 0 0 1-.826-.504 2.528 2.528 0 0 1-.574-.742c-.14-.299-.21-.658-.21-1.078 0-.43.08-.812.238-1.148.168-.336.397-.616.686-.84a2.988 2.988 0 0 1 1.064-.518 4.786 4.786 0 0 1 1.358-.182c.747 0 1.382.121 1.904.364.523.233.948.57 1.274 1.008l-1.204 1.134a2.775 2.775 0 0 0-.826-.672c-.317-.187-.704-.28-1.162-.28-.186 0-.368.019-.546.056a1.217 1.217 0 0 0-.448.196c-.13.084-.238.196-.322.336a.983.983 0 0 0-.112.49c0 .196.047.36.14.49.103.13.243.247.42.35.187.093.411.182.672.266.262.084.56.177.896.28.318.103.63.22.938.35a3.2 3.2 0 0 1 .826.504c.243.196.434.443.574.742.15.29.224.644.224 1.064 0 .448-.088.845-.266 1.19-.168.345-.41.635-.728.868a3.456 3.456 0 0 1-1.106.518c-.429.121-.9.182-1.414.182Zm7.638-.014c-.765 0-1.325-.205-1.68-.616-.345-.41-.518-1.031-.518-1.862v-3.178h-1.092v-1.414h1.092v-1.876h1.75v1.876h2.016v1.414h-2.016v3.164c0 .364.066.625.196.784.131.15.327.224.588.224.187 0 .355-.033.504-.098.15-.075.28-.163.392-.266l.63 1.204a2.145 2.145 0 0 1-.798.49 3.277 3.277 0 0 1-1.064.154Zm3.055-7.07h1.666v1.162h.084a2.16 2.16 0 0 1 .644-.966c.299-.243.672-.364 1.12-.364.345 0 .667.056.966.168l-.49 1.61a1.061 1.061 0 0 0-.364-.14 2.067 2.067 0 0 0-.406-.042c-.429 0-.779.15-1.05.448-.271.29-.406.7-.406 1.232V49h-1.764v-6.916Zm7.442-1.918c0 .261-.093.495-.28.7-.177.205-.429.308-.756.308-.336 0-.593-.103-.77-.308a1.043 1.043 0 0 1-.266-.7c0-.27.089-.504.266-.7.177-.205.434-.308.77-.308.327 0 .579.103.756.308a.98.98 0 0 1 .28.7Zm-1.932 1.918h1.764V49h-1.764v-6.916Zm3.623 0h1.666v1.12h.084c.159-.373.406-.681.742-.924.345-.243.756-.364 1.232-.364.877 0 1.507.233 1.89.7.392.457.588 1.153.588 2.086V49h-1.764v-3.948c0-.56-.103-.975-.308-1.246-.196-.27-.532-.406-1.008-.406-.448 0-.789.15-1.022.448-.224.29-.336.714-.336 1.274V49h-1.764v-6.916Zm10.827 9.674c-.607 0-1.144-.107-1.61-.322-.458-.205-.808-.457-1.05-.756l1.064-1.078c.158.196.378.355.658.476.289.121.597.182.924.182.224 0 .438-.028.644-.084.205-.047.382-.13.532-.252a1.11 1.11 0 0 0 .35-.462c.093-.196.14-.443.14-.742v-1.316h-.07c-.15.41-.406.742-.77.994-.355.243-.784.364-1.288.364-.42 0-.808-.08-1.162-.238a2.709 2.709 0 0 1-.896-.7 3.564 3.564 0 0 1-.574-1.092 4.932 4.932 0 0 1-.196-1.442c0-.513.065-.975.196-1.386a3.1 3.1 0 0 1 .588-1.05c.252-.299.55-.527.896-.686a2.81 2.81 0 0 1 1.162-.238c.522 0 .966.121 1.33.364.373.243.639.579.798 1.008h.084v-1.218h1.666v6.72c0 .933-.304 1.657-.91 2.17-.607.523-1.442.784-2.506.784Zm.07-4.466c.513 0 .905-.182 1.176-.546.27-.373.406-.845.406-1.414 0-.588-.136-1.06-.406-1.414-.271-.364-.663-.546-1.176-.546-.504 0-.896.182-1.176.546-.271.355-.406.826-.406 1.414 0 .57.135 1.04.406 1.414.28.364.672.546 1.176.546Z" fill="#fff"/></g></g><path d="M230.1 12.144c-.464 0-.868-.06-1.212-.18a2.514 2.514 0 0 1-.84-.48 2.058 2.058 0 0 1-.504-.708 2.247 2.247 0 0 1-.168-.864c0-.224.036-.44.108-.648.072-.208.176-.396.312-.564.136-.176.296-.324.48-.444.192-.12.408-.2.648-.24v-.072c-.2-.064-.38-.16-.54-.288a2.25 2.25 0 0 1-.396-.432 2.078 2.078 0 0 1-.24-.504 1.697 1.697 0 0 1-.084-.516c0-.28.048-.548.144-.804.104-.264.256-.492.456-.684.2-.2.452-.36.756-.48s.664-.18 1.08-.18a2.9 2.9 0 0 1 1.068.18c.304.12.556.28.756.48.2.192.348.42.444.684.104.256.156.524.156.804 0 .168-.028.34-.084.516a1.86 1.86 0 0 1-.252.504c-.104.16-.236.304-.396.432a1.538 1.538 0 0 1-.528.288v.072c.24.04.452.12.636.24.192.12.356.268.492.444.136.168.24.356.312.564.072.208.108.424.108.648 0 .304-.056.592-.168.864-.112.264-.28.5-.504.708-.224.2-.508.36-.852.48-.336.12-.732.18-1.188.18Zm0-4.536c.176 0 .348-.024.516-.072.168-.056.316-.136.444-.24.128-.112.228-.248.3-.408.08-.168.12-.368.12-.6 0-.24-.04-.444-.12-.612a1.044 1.044 0 0 0-.3-.408 1.141 1.141 0 0 0-.444-.24 1.659 1.659 0 0 0-1.044 0 1.141 1.141 0 0 0-.444.24c-.128.104-.232.24-.312.408a1.551 1.551 0 0 0-.108.612c0 .232.036.432.108.6.08.16.184.296.312.408.128.104.276.184.444.24.168.048.344.072.528.072Zm0 3.648c.48 0 .876-.12 1.188-.36.32-.248.48-.604.48-1.068 0-.472-.16-.824-.48-1.056-.312-.232-.708-.348-1.188-.348s-.88.116-1.2.348c-.32.232-.48.584-.48 1.056 0 .464.16.82.48 1.068.32.24.72.36 1.2.36Zm4.615-5.184h.912v1.212h.072c.072-.2.172-.384.3-.552.136-.168.292-.312.468-.432.184-.12.384-.212.6-.276.224-.064.456-.096.696-.096.392 0 .748.08 1.068.24.328.152.608.368.84.648.232.272.408.6.528.984.128.384.192.8.192 1.248 0 .448-.064.864-.192 1.248a2.91 2.91 0 0 1-.528.984 2.458 2.458 0 0 1-1.908.864c-.488 0-.908-.116-1.26-.348a1.97 1.97 0 0 1-.756-.888h-.072v3.312h-.96V6.072Zm2.808 5.208c.264 0 .508-.044.732-.132.232-.096.432-.236.6-.42.176-.192.312-.428.408-.708.096-.28.144-.608.144-.984s-.048-.704-.144-.984a1.865 1.865 0 0 0-.408-.696 1.49 1.49 0 0 0-.6-.42 1.839 1.839 0 0 0-.732-.144c-.256 0-.496.048-.72.144-.224.088-.42.228-.588.42-.168.184-.3.416-.396.696-.096.28-.144.608-.144.984s.048.704.144.984c.096.28.228.516.396.708.168.184.364.324.588.42.224.088.464.132.72.132Zm5.652-2.292-1.98-2.916h1.152l1.404 2.22h.048l1.452-2.22h1.032l-1.98 2.868 2.076 3.06h-1.152l-1.5-2.364h-.048L242.131 12h-1.032l2.076-3.012Z" fill="#3C4C4F"/><path opacity=".5" fill="#C1DADE" d="M233 20h8v40h-8z"/><path d="M273.14 11.16h2.232V5.28l-2.136.984-.312-.672 2.628-1.392h.84v6.96h2.004V12h-5.256v-.84Zm7.231-.456c0-.32.056-.6.168-.84.112-.248.264-.472.456-.672.2-.208.432-.4.696-.576.272-.176.564-.356.876-.54.248-.152.468-.292.66-.42.192-.136.352-.276.48-.42.128-.144.224-.296.288-.456.064-.16.096-.344.096-.552 0-.424-.136-.744-.408-.96-.264-.224-.604-.336-1.02-.336-.416 0-.776.084-1.08.252a2.31 2.31 0 0 0-.768.648l-.552-.576c.24-.36.556-.648.948-.864.392-.224.864-.336 1.416-.336.408 0 .768.056 1.08.168.312.104.572.252.78.444.216.184.376.408.48.672.112.256.168.536.168.84 0 .344-.06.648-.18.912s-.28.504-.48.72c-.2.216-.432.412-.696.588-.256.168-.528.332-.816.492-.256.144-.484.28-.684.408-.2.128-.368.264-.504.408a1.67 1.67 0 0 0-.3.48 1.827 1.827 0 0 0-.096.624v.324h3.948V12h-4.956v-1.296Zm7.04-4.632h.912v1.212h.072c.072-.2.172-.384.3-.552.136-.168.292-.312.468-.432.184-.12.384-.212.6-.276.224-.064.456-.096.696-.096.392 0 .748.08 1.068.24.328.152.608.368.84.648.232.272.408.6.528.984.128.384.192.8.192 1.248 0 .448-.064.864-.192 1.248a2.91 2.91 0 0 1-.528.984 2.458 2.458 0 0 1-1.908.864c-.488 0-.908-.116-1.26-.348a1.97 1.97 0 0 1-.756-.888h-.072v3.312h-.96V6.072Zm2.808 5.208c.264 0 .508-.044.732-.132.232-.096.432-.236.6-.42.176-.192.312-.428.408-.708.096-.28.144-.608.144-.984s-.048-.704-.144-.984a1.865 1.865 0 0 0-.408-.696 1.49 1.49 0 0 0-.6-.42 1.839 1.839 0 0 0-.732-.144c-.256 0-.496.048-.72.144-.224.088-.42.228-.588.42-.168.184-.3.416-.396.696-.096.28-.144.608-.144.984s.048.704.144.984c.096.28.228.516.396.708.168.184.364.324.588.42.224.088.464.132.72.132Zm5.651-2.292-1.98-2.916h1.152l1.404 2.22h.048l1.452-2.22h1.032l-1.98 2.868 2.076 3.06h-1.152l-1.5-2.364h-.048L294.826 12h-1.032l2.076-3.012Z" fill="#3C4C4F"/><path opacity=".5" fill="#C1DADE" d="M280 20h12v40h-12z"/><path d="M198.14 11.16h2.232V5.28l-2.136.984-.312-.672 2.628-1.392h.84v6.96h2.004V12h-5.256v-.84Zm7.231-.456c0-.32.056-.6.168-.84.112-.248.264-.472.456-.672.2-.208.432-.4.696-.576.272-.176.564-.356.876-.54.248-.152.468-.292.66-.42.192-.136.352-.276.48-.42.128-.144.224-.296.288-.456.064-.16.096-.344.096-.552 0-.424-.136-.744-.408-.96-.264-.224-.604-.336-1.02-.336-.416 0-.776.084-1.08.252a2.31 2.31 0 0 0-.768.648l-.552-.576c.24-.36.556-.648.948-.864.392-.224.864-.336 1.416-.336.408 0 .768.056 1.08.168.312.104.572.252.78.444.216.184.376.408.48.672.112.256.168.536.168.84 0 .344-.06.648-.18.912s-.28.504-.48.72c-.2.216-.432.412-.696.588-.256.168-.528.332-.816.492-.256.144-.484.28-.684.408-.2.128-.368.264-.504.408a1.67 1.67 0 0 0-.3.48 1.827 1.827 0 0 0-.096.624v.324h3.948V12h-4.956v-1.296Zm7.04-4.632h.912v1.212h.072c.072-.2.172-.384.3-.552.136-.168.292-.312.468-.432.184-.12.384-.212.6-.276.224-.064.456-.096.696-.096.392 0 .748.08 1.068.24.328.152.608.368.84.648.232.272.408.6.528.984.128.384.192.8.192 1.248 0 .448-.064.864-.192 1.248a2.91 2.91 0 0 1-.528.984 2.458 2.458 0 0 1-1.908.864c-.488 0-.908-.116-1.26-.348a1.97 1.97 0 0 1-.756-.888h-.072v3.312h-.96V6.072Zm2.808 5.208c.264 0 .508-.044.732-.132.232-.096.432-.236.6-.42.176-.192.312-.428.408-.708.096-.28.144-.608.144-.984s-.048-.704-.144-.984a1.865 1.865 0 0 0-.408-.696 1.49 1.49 0 0 0-.6-.42 1.839 1.839 0 0 0-.732-.144c-.256 0-.496.048-.72.144-.224.088-.42.228-.588.42-.168.184-.3.416-.396.696-.096.28-.144.608-.144.984s.048.704.144.984c.096.28.228.516.396.708.168.184.364.324.588.42.224.088.464.132.72.132Zm5.651-2.292-1.98-2.916h1.152l1.404 2.22h.048l1.452-2.22h1.032l-1.98 2.868 2.076 3.06h-1.152l-1.5-2.364h-.048L219.826 12h-1.032l2.076-3.012Z" fill="#3C4C4F"/><path opacity=".5" fill="#C1DADE" d="M205 20h12v40h-12z"/><path d="M175.6 36.144c-.464 0-.868-.06-1.212-.18a2.514 2.514 0 0 1-.84-.48 2.058 2.058 0 0 1-.504-.708 2.247 2.247 0 0 1-.168-.864c0-.224.036-.44.108-.648.072-.208.176-.396.312-.564.136-.176.296-.324.48-.444.192-.12.408-.2.648-.24v-.072c-.2-.064-.38-.16-.54-.288a2.25 2.25 0 0 1-.396-.432 2.078 2.078 0 0 1-.24-.504 1.697 1.697 0 0 1-.084-.516c0-.28.048-.548.144-.804.104-.264.256-.492.456-.684.2-.2.452-.36.756-.48s.664-.18 1.08-.18a2.9 2.9 0 0 1 1.068.18c.304.12.556.28.756.48.2.192.348.42.444.684.104.256.156.524.156.804 0 .168-.028.34-.084.516a1.86 1.86 0 0 1-.252.504c-.104.16-.236.304-.396.432a1.538 1.538 0 0 1-.528.288v.072c.24.04.452.12.636.24.192.12.356.268.492.444.136.168.24.356.312.564.072.208.108.424.108.648 0 .304-.056.592-.168.864-.112.264-.28.5-.504.708-.224.2-.508.36-.852.48-.336.12-.732.18-1.188.18Zm0-4.536c.176 0 .348-.024.516-.072.168-.056.316-.136.444-.24.128-.112.228-.248.3-.408.08-.168.12-.368.12-.6 0-.24-.04-.444-.12-.612a1.044 1.044 0 0 0-.3-.408 1.141 1.141 0 0 0-.444-.24 1.659 1.659 0 0 0-1.044 0 1.141 1.141 0 0 0-.444.24c-.128.104-.232.24-.312.408a1.551 1.551 0 0 0-.108.612c0 .232.036.432.108.6.08.16.184.296.312.408.128.104.276.184.444.24.168.048.344.072.528.072Zm0 3.648c.48 0 .876-.12 1.188-.36.32-.248.48-.604.48-1.068 0-.472-.16-.824-.48-1.056-.312-.232-.708-.348-1.188-.348s-.88.116-1.2.348c-.32.232-.48.584-.48 1.056 0 .464.16.82.48 1.068.32.24.72.36 1.2.36Zm4.615-5.184h.912v1.212h.072c.072-.2.172-.384.3-.552.136-.168.292-.312.468-.432.184-.12.384-.212.6-.276.224-.064.456-.096.696-.096.392 0 .748.08 1.068.24.328.152.608.368.84.648.232.272.408.6.528.984.128.384.192.8.192 1.248 0 .448-.064.864-.192 1.248a2.91 2.91 0 0 1-.528.984 2.458 2.458 0 0 1-1.908.864c-.488 0-.908-.116-1.26-.348a1.97 1.97 0 0 1-.756-.888h-.072v3.312h-.96v-8.148Zm2.808 5.208c.264 0 .508-.044.732-.132.232-.096.432-.236.6-.42.176-.192.312-.428.408-.708.096-.28.144-.608.144-.984s-.048-.704-.144-.984a1.865 1.865 0 0 0-.408-.696 1.49 1.49 0 0 0-.6-.42 1.839 1.839 0 0 0-.732-.144c-.256 0-.496.048-.72.144-.224.088-.42.228-.588.42-.168.184-.3.416-.396.696-.096.28-.144.608-.144.984s.048.704.144.984c.096.28.228.516.396.708.168.184.364.324.588.42.224.088.464.132.72.132Zm5.652-2.292-1.98-2.916h1.152l1.404 2.22h.048l1.452-2.22h1.032l-1.98 2.868 2.076 3.06h-1.152l-1.5-2.364h-.048L187.631 36h-1.032l2.076-3.012Z" fill="#3C4C4F"/><path opacity=".5" fill="#F2A6B0" d="M197 28h95v8h-95z"/><path d="M175.6 60.144c-.464 0-.868-.06-1.212-.18a2.514 2.514 0 0 1-.84-.48 2.058 2.058 0 0 1-.504-.708 2.247 2.247 0 0 1-.168-.864c0-.224.036-.44.108-.648.072-.208.176-.396.312-.564.136-.176.296-.324.48-.444.192-.12.408-.2.648-.24v-.072c-.2-.064-.38-.16-.54-.288a2.25 2.25 0 0 1-.396-.432 2.078 2.078 0 0 1-.24-.504 1.697 1.697 0 0 1-.084-.516c0-.28.048-.548.144-.804.104-.264.256-.492.456-.684.2-.2.452-.36.756-.48s.664-.18 1.08-.18a2.9 2.9 0 0 1 1.068.18c.304.12.556.28.756.48.2.192.348.42.444.684.104.256.156.524.156.804 0 .168-.028.34-.084.516a1.86 1.86 0 0 1-.252.504c-.104.16-.236.304-.396.432a1.538 1.538 0 0 1-.528.288v.072c.24.04.452.12.636.24.192.12.356.268.492.444.136.168.24.356.312.564.072.208.108.424.108.648 0 .304-.056.592-.168.864-.112.264-.28.5-.504.708-.224.2-.508.36-.852.48-.336.12-.732.18-1.188.18Zm0-4.536c.176 0 .348-.024.516-.072.168-.056.316-.136.444-.24.128-.112.228-.248.3-.408.08-.168.12-.368.12-.6 0-.24-.04-.444-.12-.612a1.044 1.044 0 0 0-.3-.408 1.141 1.141 0 0 0-.444-.24 1.659 1.659 0 0 0-1.044 0 1.141 1.141 0 0 0-.444.24c-.128.104-.232.24-.312.408a1.551 1.551 0 0 0-.108.612c0 .232.036.432.108.6.08.16.184.296.312.408.128.104.276.184.444.24.168.048.344.072.528.072Zm0 3.648c.48 0 .876-.12 1.188-.36.32-.248.48-.604.48-1.068 0-.472-.16-.824-.48-1.056-.312-.232-.708-.348-1.188-.348s-.88.116-1.2.348c-.32.232-.48.584-.48 1.056 0 .464.16.82.48 1.068.32.24.72.36 1.2.36Zm4.615-5.184h.912v1.212h.072c.072-.2.172-.384.3-.552.136-.168.292-.312.468-.432.184-.12.384-.212.6-.276.224-.064.456-.096.696-.096.392 0 .748.08 1.068.24.328.152.608.368.84.648.232.272.408.6.528.984.128.384.192.8.192 1.248 0 .448-.064.864-.192 1.248a2.91 2.91 0 0 1-.528.984 2.458 2.458 0 0 1-1.908.864c-.488 0-.908-.116-1.26-.348a1.97 1.97 0 0 1-.756-.888h-.072v3.312h-.96v-8.148Zm2.808 5.208c.264 0 .508-.044.732-.132.232-.096.432-.236.6-.42.176-.192.312-.428.408-.708.096-.28.144-.608.144-.984s-.048-.704-.144-.984a1.865 1.865 0 0 0-.408-.696 1.49 1.49 0 0 0-.6-.42 1.839 1.839 0 0 0-.732-.144c-.256 0-.496.048-.72.144-.224.088-.42.228-.588.42-.168.184-.3.416-.396.696-.096.28-.144.608-.144.984s.048.704.144.984c.096.28.228.516.396.708.168.184.364.324.588.42.224.088.464.132.72.132Zm5.652-2.292-1.98-2.916h1.152l1.404 2.22h.048l1.452-2.22h1.032l-1.98 2.868 2.076 3.06h-1.152l-1.5-2.364h-.048L187.631 60h-1.032l2.076-3.012Z" fill="#3C4C4F"/><path opacity=".5" fill="#F2A6B0" d="M197 52h95v8h-95z"/><defs><clipPath id="structure__a"><rect x="33" y="28" width="107" height="32" rx="16" fill="#fff"/></clipPath><clipPath id="structure__b"><rect x="33" y="28" width="107" height="32" rx="16" fill="#fff"/></clipPath><clipPath id="structure__c"><path fill="#fff" transform="translate(45 36)" d="M0 0h16v16H0z"/></clipPath><clipPath id="structure__d"><path fill="#fff" transform="translate(113.5 33.5)" d="M0 0h21v21H0z"/></clipPath><clipPath id="structure__e"><rect x="205" y="28" width="87" height="32" rx="16" fill="#fff"/></clipPath><clipPath id="structure__f"><rect x="205" y="28" width="87" height="32" rx="16" fill="#fff"/></clipPath><clipPath id="structure__g"><path fill="#fff" transform="translate(217 36)" d="M0 0h16v16H0z"/></clipPath></defs></svg>