<svg width="374" height="32" fill="none" xmlns="http://www.w3.org/2000/svg"><g clip-path="url(#usage-filter__a)"><rect width="99" height="32" rx="16" fill="#F5F3F1"/><g clip-path="url(#usage-filter__b)"><path d="m20.912 21-1.596-7.126h-.084L17.636 21h-2.254l-2.604-9.1h2.002l1.722 6.916h.084l1.54-6.916h2.352l1.54 6.944h.084l1.722-6.944h1.946L23.166 21h-2.254Zm8.562.168c-.579 0-1.083-.093-1.512-.28a3.172 3.172 0 0 1-1.092-.77 3.48 3.48 0 0 1-.658-1.162c-.14-.439-.21-.91-.21-1.414 0-.513.07-.99.21-1.428.14-.448.35-.83.63-1.148.28-.327.63-.583 1.05-.77.42-.187.91-.28 1.47-.28.56 0 1.05.089 1.47.266.42.177.765.425 1.036.742.27.317.471.695.602 1.134.14.43.21.9.21 1.414 0 .093-.01.2-.028.322-.01.121-.024.22-.042.294h-4.816c.028.252.093.48.196.686.112.196.247.364.406.504.168.14.35.247.546.322.205.065.415.098.63.098.401 0 .737-.07 1.008-.21.27-.14.49-.317.658-.532l.994 1.036c-.262.355-.626.64-1.092.854-.467.215-1.022.322-1.666.322Zm-.112-5.908c-.448 0-.812.145-1.092.434-.28.29-.444.672-.49 1.148h3.136c-.047-.476-.21-.859-.49-1.148-.271-.29-.626-.434-1.064-.434Zm7.224 5.908c-.439 0-.84-.089-1.204-.266a2.86 2.86 0 0 1-.938-.728 3.578 3.578 0 0 1-.616-1.134 4.625 4.625 0 0 1-.224-1.47c0-.541.075-1.036.224-1.484.15-.448.355-.83.616-1.148a2.71 2.71 0 0 1 .938-.756 2.713 2.713 0 0 1 1.204-.266c.541 0 .994.126 1.358.378.373.252.64.579.798.98h.084V10.85h1.764V21h-1.666v-1.302h-.084a2.127 2.127 0 0 1-.854 1.078c-.392.261-.859.392-1.4.392Zm.532-1.54c.523 0 .938-.187 1.246-.56.308-.373.462-.882.462-1.526s-.154-1.153-.462-1.526c-.308-.373-.723-.56-1.246-.56s-.938.187-1.246.56c-.308.373-.462.882-.462 1.526s.154 1.153.462 1.526c.308.373.723.56 1.246.56Zm5.328-5.544h1.666v1.12h.084a2.19 2.19 0 0 1 .742-.924c.346-.243.756-.364 1.232-.364.878 0 1.508.233 1.89.7.392.457.588 1.153.588 2.086V21h-1.764v-3.948c0-.56-.102-.975-.307-1.246-.197-.27-.532-.406-1.008-.406-.449 0-.79.15-1.023.448-.224.29-.335.714-.335 1.274V21h-1.764v-6.916Zm10.967 7.084c-.578 0-1.082-.093-1.512-.28a3.17 3.17 0 0 1-1.092-.77 3.477 3.477 0 0 1-.658-1.162c-.14-.439-.21-.91-.21-1.414 0-.513.07-.99.21-1.428.14-.448.35-.83.63-1.148.28-.327.63-.583 1.05-.77.42-.187.91-.28 1.47-.28.56 0 1.05.089 1.47.266.42.177.765.425 1.036.742.27.317.471.695.602 1.134.14.43.21.9.21 1.414 0 .093-.01.2-.028.322-.01.121-.023.22-.042.294h-4.816c.028.252.094.48.196.686.112.196.247.364.406.504.168.14.35.247.546.322.206.065.416.098.63.098.401 0 .737-.07 1.008-.21.27-.14.49-.317.658-.532l.994 1.036c-.261.355-.625.64-1.092.854-.467.215-1.022.322-1.666.322Zm-.112-5.908c-.448 0-.812.145-1.092.434-.28.29-.443.672-.49 1.148h3.136c-.046-.476-.21-.859-.49-1.148-.27-.29-.625-.434-1.064-.434Zm8.008 3.78a.504.504 0 0 0-.126-.35.798.798 0 0 0-.336-.252 2.656 2.656 0 0 0-.504-.168c-.196-.056-.41-.112-.644-.168a4.948 4.948 0 0 1-.77-.252 2.474 2.474 0 0 1-.644-.392 2.09 2.09 0 0 1-.434-.588 1.8 1.8 0 0 1-.168-.812c0-.345.066-.649.196-.91.14-.27.332-.495.574-.672.243-.187.532-.327.868-.42.336-.093.7-.14 1.092-.14.616 0 1.148.098 1.596.294.448.187.794.439 1.036.756l-.98 1.008a2.175 2.175 0 0 0-.7-.504 1.94 1.94 0 0 0-.854-.196c-.28 0-.527.056-.742.168a.571.571 0 0 0-.322.546c0 .14.038.257.112.35.084.093.196.177.336.252.15.065.322.126.518.182l.644.154c.262.065.514.15.756.252.252.103.467.238.644.406.187.159.336.35.448.574a1.8 1.8 0 0 1 .168.812c0 .364-.074.681-.224.952-.14.27-.34.5-.602.686a2.64 2.64 0 0 1-.91.42 4.29 4.29 0 0 1-1.12.14c-.681 0-1.26-.098-1.736-.294-.466-.196-.821-.448-1.064-.756l.952-1.022c.215.224.476.401.784.532.308.121.644.182 1.008.182.327 0 .598-.06.812-.182a.638.638 0 0 0 .336-.588Zm5.752 2.128c-.44 0-.84-.089-1.205-.266a2.86 2.86 0 0 1-.938-.728 3.578 3.578 0 0 1-.616-1.134 4.625 4.625 0 0 1-.224-1.47c0-.541.075-1.036.224-1.484.15-.448.355-.83.616-1.148a2.71 2.71 0 0 1 .938-.756 2.713 2.713 0 0 1 1.205-.266c.54 0 .993.126 1.357.378.374.252.64.579.798.98h.085V10.85h1.763V21H69.4v-1.302h-.085a2.127 2.127 0 0 1-.853 1.078c-.392.261-.86.392-1.4.392Zm.531-1.54c.523 0 .939-.187 1.246-.56.309-.373.463-.882.463-1.526s-.154-1.153-.463-1.526c-.307-.373-.723-.56-1.245-.56-.523 0-.939.187-1.246.56-.308.373-.462.882-.462 1.526s.153 1.153.462 1.526c.308.373.723.56 1.246.56Zm7.051 1.54a2.54 2.54 0 0 1-.882-.154 2.154 2.154 0 0 1-.714-.406 2.081 2.081 0 0 1-.49-.672 2.218 2.218 0 0 1-.168-.882c0-.616.22-1.106.658-1.47.439-.364 1.106-.57 2.002-.616l1.624-.098v-.28c0-.448-.135-.756-.406-.924-.27-.168-.607-.252-1.008-.252-.317 0-.616.06-.896.182-.28.112-.49.252-.63.42l-.994-1.008c.243-.317.593-.579 1.05-.784.467-.205 1.036-.308 1.708-.308.99 0 1.727.229 2.212.686.485.457.728 1.078.728 1.862V21h-1.666v-1.106h-.084a2.24 2.24 0 0 1-.77.938c-.336.224-.76.336-1.274.336Zm.518-1.274c.448 0 .812-.126 1.092-.378.28-.261.42-.625.42-1.092v-.462l-1.414.112c-.728.047-1.092.355-1.092.924 0 .29.093.513.28.672.187.15.425.224.714.224Zm5.625 3.794c-.13 0-.261-.01-.392-.028a1.83 1.83 0 0 1-.35-.056v-1.456c.075.019.173.033.294.042.122.01.234.014.336.014.177 0 .327-.014.448-.042a.692.692 0 0 0 .322-.154c.093-.075.177-.182.252-.322.075-.14.154-.317.238-.532l-2.632-7.07h1.932l1.596 5.152h.084l1.61-5.152h1.82l-2.604 6.944a11.04 11.04 0 0 1-.504 1.162 2.97 2.97 0 0 1-.588.826 2.176 2.176 0 0 1-.784.504c-.299.112-.658.168-1.078.168Z" fill="#242E30"/></g></g><g clip-path="url(#usage-filter__c)"><rect x="107" width="107" height="32" rx="16" fill="#262626"/><g clip-path="url(#usage-filter__d)" fill="#fff"><path d="M124.865 20.489a1.218 1.218 0 0 1-.875-.385l-3.115-3.448.98-.875 3.027 3.37 7.254-7.823.963.875-7.35 7.875a1.227 1.227 0 0 1-.875.385l-.009.026Zm21.348-7.063h-2.52V11.9h6.93v1.526h-2.534V21h-1.876v-7.574Zm5.63-2.576h1.764v4.172h.084c.168-.317.411-.579.728-.784.317-.215.7-.322 1.148-.322.877 0 1.507.233 1.89.7.392.457.588 1.153.588 2.086V21h-1.764v-3.948c0-.56-.103-.975-.308-1.246-.196-.27-.532-.406-1.008-.406-.448 0-.789.15-1.022.448-.224.29-.336.714-.336 1.274V21h-1.764V10.85Zm10.267 10.318c-.849 0-1.465-.229-1.848-.686-.382-.467-.574-1.167-.574-2.1v-4.298h1.764v3.948c0 .56.098.975.294 1.246.196.27.518.406.966.406.43 0 .752-.145.966-.434.224-.299.336-.728.336-1.288v-3.878h1.764V21h-1.666v-1.12h-.084a2.2 2.2 0 0 1-.728.924c-.326.243-.723.364-1.19.364Zm5.51-7.084h1.666v1.162h.084a2.16 2.16 0 0 1 .644-.966c.299-.243.672-.364 1.12-.364.346 0 .668.056.966.168l-.49 1.61a1.054 1.054 0 0 0-.364-.14 2.067 2.067 0 0 0-.406-.042c-.429 0-.779.15-1.05.448-.27.29-.406.7-.406 1.232V21h-1.764v-6.916Zm8.76 4.956a.504.504 0 0 0-.126-.35.802.802 0 0 0-.336-.252 2.656 2.656 0 0 0-.504-.168 15.785 15.785 0 0 0-.644-.168 4.917 4.917 0 0 1-.77-.252 2.46 2.46 0 0 1-.644-.392 2.078 2.078 0 0 1-.434-.588 1.8 1.8 0 0 1-.168-.812c0-.345.065-.649.196-.91a1.9 1.9 0 0 1 .574-.672 2.5 2.5 0 0 1 .868-.42c.336-.093.7-.14 1.092-.14.616 0 1.148.098 1.596.294.448.187.793.439 1.036.756l-.98 1.008a2.179 2.179 0 0 0-.7-.504 1.943 1.943 0 0 0-.854-.196c-.28 0-.528.056-.742.168a.57.57 0 0 0-.322.546c0 .14.037.257.112.35.084.093.196.177.336.252.149.065.322.126.518.182l.644.154c.261.065.513.15.756.252.252.103.466.238.644.406.186.159.336.35.448.574a1.8 1.8 0 0 1 .168.812 1.944 1.944 0 0 1-.826 1.638 2.645 2.645 0 0 1-.91.42 4.3 4.3 0 0 1-1.12.14c-.682 0-1.26-.098-1.736-.294-.467-.196-.822-.448-1.064-.756l.952-1.022c.214.224.476.401.784.532.308.121.644.182 1.008.182.326 0 .597-.06.812-.182a.638.638 0 0 0 .336-.588Zm5.751 2.128c-.439 0-.84-.089-1.204-.266a2.855 2.855 0 0 1-.938-.728 3.576 3.576 0 0 1-.616-1.134 4.633 4.633 0 0 1-.224-1.47c0-.541.075-1.036.224-1.484.149-.448.355-.83.616-1.148a2.7 2.7 0 0 1 .938-.756 2.711 2.711 0 0 1 1.204-.266c.541 0 .994.126 1.358.378.373.252.639.579.798.98h.084V10.85h1.764V21h-1.666v-1.302h-.084a2.129 2.129 0 0 1-.854 1.078c-.392.261-.859.392-1.4.392Zm.532-1.54c.523 0 .938-.187 1.246-.56.308-.373.462-.882.462-1.526s-.154-1.153-.462-1.526c-.308-.373-.723-.56-1.246-.56s-.938.187-1.246.56c-.308.373-.462.882-.462 1.526s.154 1.153.462 1.526c.308.373.723.56 1.246.56Zm7.05 1.54a2.54 2.54 0 0 1-.882-.154 2.168 2.168 0 0 1-.714-.406 2.097 2.097 0 0 1-.49-.672 2.218 2.218 0 0 1-.168-.882c0-.616.22-1.106.658-1.47.439-.364 1.106-.57 2.002-.616l1.624-.098v-.28c0-.448-.135-.756-.406-.924-.27-.168-.606-.252-1.008-.252-.317 0-.616.06-.896.182-.28.112-.49.252-.63.42l-.994-1.008c.243-.317.593-.579 1.05-.784.467-.205 1.036-.308 1.708-.308.99 0 1.727.229 2.212.686.486.457.728 1.078.728 1.862V21h-1.666v-1.106h-.084a2.237 2.237 0 0 1-.77.938c-.336.224-.76.336-1.274.336Zm.518-1.274c.448 0 .812-.126 1.092-.378.28-.261.42-.625.42-1.092v-.462l-1.414.112c-.728.047-1.092.355-1.092.924 0 .29.094.513.28.672.187.15.425.224.714.224Zm5.625 3.794c-.13 0-.261-.01-.392-.028a1.842 1.842 0 0 1-.35-.056v-1.456c.075.019.173.033.294.042.122.01.234.014.336.014.178 0 .327-.014.448-.042a.69.69 0 0 0 .322-.154 1 1 0 0 0 .252-.322 5.04 5.04 0 0 0 .238-.532l-2.632-7.07h1.932l1.596 5.152h.084l1.61-5.152h1.82l-2.604 6.944a11.04 11.04 0 0 1-.504 1.162 2.97 2.97 0 0 1-.588.826 2.174 2.174 0 0 1-.784.504c-.298.112-.658.168-1.078.168Z"/></g></g><g clip-path="url(#usage-filter__e)"><rect x="222" width="63" height="32" rx="16" fill="#F5F3F1"/><g clip-path="url(#usage-filter__f)"><path d="M235.04 11.9h5.306v1.512h-3.43v2.562h3.304v1.498h-3.304V21h-1.876v-9.1Zm6.806 2.184h1.666v1.162h.084a2.16 2.16 0 0 1 .644-.966c.299-.243.672-.364 1.12-.364.345 0 .667.056.966.168l-.49 1.61a1.061 1.061 0 0 0-.364-.14 2.067 2.067 0 0 0-.406-.042c-.429 0-.779.15-1.05.448-.271.29-.406.7-.406 1.232V21h-1.764v-6.916Zm7.442-1.918c0 .261-.094.495-.28.7-.178.205-.43.308-.756.308-.336 0-.593-.103-.77-.308a1.038 1.038 0 0 1-.266-.7c0-.27.088-.504.266-.7.177-.205.434-.308.77-.308.326 0 .578.103.756.308.186.196.28.43.28.7Zm-1.932 1.918h1.764V21h-1.764v-6.916Zm6.157 7.084c-.439 0-.84-.089-1.204-.266a2.855 2.855 0 0 1-.938-.728 3.557 3.557 0 0 1-.616-1.134 4.605 4.605 0 0 1-.224-1.47c0-.541.074-1.036.224-1.484a3.54 3.54 0 0 1 .616-1.148 2.7 2.7 0 0 1 .938-.756 2.711 2.711 0 0 1 1.204-.266c.541 0 .994.126 1.358.378.373.252.639.579.798.98h.084V10.85h1.764V21h-1.666v-1.302h-.084a2.129 2.129 0 0 1-.854 1.078c-.392.261-.859.392-1.4.392Zm.532-1.54c.522 0 .938-.187 1.246-.56.308-.373.462-.882.462-1.526s-.154-1.153-.462-1.526c-.308-.373-.724-.56-1.246-.56-.523 0-.938.187-1.246.56-.308.373-.462.882-.462 1.526s.154 1.153.462 1.526c.308.373.723.56 1.246.56Zm7.05 1.54a2.54 2.54 0 0 1-.882-.154 2.168 2.168 0 0 1-.714-.406 2.097 2.097 0 0 1-.49-.672 2.218 2.218 0 0 1-.168-.882c0-.616.22-1.106.658-1.47.439-.364 1.106-.57 2.002-.616l1.624-.098v-.28c0-.448-.135-.756-.406-.924-.27-.168-.606-.252-1.008-.252-.317 0-.616.06-.896.182-.28.112-.49.252-.63.42l-.994-1.008c.243-.317.593-.579 1.05-.784.467-.205 1.036-.308 1.708-.308.99 0 1.727.229 2.212.686.486.457.728 1.078.728 1.862V21h-1.666v-1.106h-.084a2.237 2.237 0 0 1-.77.938c-.336.224-.76.336-1.274.336Zm.518-1.274c.448 0 .812-.126 1.092-.378.28-.261.42-.625.42-1.092v-.462l-1.414.112c-.728.047-1.092.355-1.092.924 0 .29.094.513.28.672.187.15.425.224.714.224Zm5.625 3.794c-.13 0-.261-.01-.392-.028a1.842 1.842 0 0 1-.35-.056v-1.456c.075.019.173.033.294.042.122.01.234.014.336.014.178 0 .327-.014.448-.042a.69.69 0 0 0 .322-.154 1 1 0 0 0 .252-.322 5.04 5.04 0 0 0 .238-.532l-2.632-7.07h1.932l1.596 5.152h.084l1.61-5.152h1.82l-2.604 6.944a11.04 11.04 0 0 1-.504 1.162 2.97 2.97 0 0 1-.588.826 2.174 2.174 0 0 1-.784.504c-.298.112-.658.168-1.078.168Z" fill="#242E30"/></g></g><g clip-path="url(#usage-filter__g)"><rect x="293" width="81" height="32" rx="16" fill="#EFEDEA"/><g clip-path="url(#usage-filter__h)"><path d="M308.815 21.168c-.831 0-1.517-.126-2.058-.378a3.937 3.937 0 0 1-1.344-1.036l1.204-1.12c.261.29.565.527.91.714.355.187.798.28 1.33.28.429 0 .798-.093 1.106-.28.308-.187.462-.485.462-.896a.71.71 0 0 0-.154-.476 1.108 1.108 0 0 0-.42-.336 3.295 3.295 0 0 0-.672-.28c-.261-.084-.56-.177-.896-.28a8.66 8.66 0 0 1-.938-.336 3.836 3.836 0 0 1-.826-.504 2.511 2.511 0 0 1-.574-.742c-.14-.299-.21-.658-.21-1.078 0-.43.079-.812.238-1.148.168-.336.397-.616.686-.84a2.98 2.98 0 0 1 1.064-.518 4.781 4.781 0 0 1 1.358-.182c.747 0 1.381.121 1.904.364.523.233.947.57 1.274 1.008l-1.204 1.134a2.775 2.775 0 0 0-.826-.672c-.317-.187-.705-.28-1.162-.28a2.64 2.64 0 0 0-.546.056 1.217 1.217 0 0 0-.448.196 1.007 1.007 0 0 0-.322.336.973.973 0 0 0-.112.49c0 .196.047.36.14.49.103.13.243.247.42.35.187.093.411.182.672.266.261.084.56.177.896.28.317.103.63.22.938.35.308.13.583.299.826.504.243.196.434.443.574.742.149.29.224.644.224 1.064 0 .448-.089.845-.266 1.19a2.333 2.333 0 0 1-.728.868 3.466 3.466 0 0 1-1.106.518 5.189 5.189 0 0 1-1.414.182Zm6.782 0a2.54 2.54 0 0 1-.882-.154 2.168 2.168 0 0 1-.714-.406 2.097 2.097 0 0 1-.49-.672 2.218 2.218 0 0 1-.168-.882c0-.616.22-1.106.658-1.47.439-.364 1.106-.57 2.002-.616l1.624-.098v-.28c0-.448-.135-.756-.406-.924-.27-.168-.606-.252-1.008-.252-.317 0-.616.06-.896.182-.28.112-.49.252-.63.42l-.994-1.008c.243-.317.593-.579 1.05-.784.467-.205 1.036-.308 1.708-.308.99 0 1.727.229 2.212.686.486.457.728 1.078.728 1.862V21h-1.666v-1.106h-.084a2.237 2.237 0 0 1-.77.938c-.336.224-.76.336-1.274.336Zm.518-1.274c.448 0 .812-.126 1.092-.378.28-.261.42-.625.42-1.092v-.462l-1.414.112c-.728.047-1.092.355-1.092.924 0 .29.094.513.28.672.187.15.425.224.714.224Zm7.666 1.26c-.765 0-1.325-.205-1.68-.616-.345-.41-.518-1.031-.518-1.862v-3.178h-1.092v-1.414h1.092v-1.876h1.75v1.876h2.016v1.414h-2.016v3.164c0 .364.066.625.196.784.131.15.327.224.588.224.187 0 .355-.033.504-.098.15-.075.28-.163.392-.266l.63 1.204a2.145 2.145 0 0 1-.798.49 3.277 3.277 0 0 1-1.064.154Zm5.379.014c-.849 0-1.465-.229-1.848-.686-.383-.467-.574-1.167-.574-2.1v-4.298h1.764v3.948c0 .56.098.975.294 1.246.196.27.518.406.966.406.429 0 .751-.145.966-.434.224-.299.336-.728.336-1.288v-3.878h1.764V21h-1.666v-1.12h-.084a2.208 2.208 0 0 1-.728.924c-.327.243-.723.364-1.19.364Zm5.51-7.084h1.666v1.162h.084a2.16 2.16 0 0 1 .644-.966c.299-.243.672-.364 1.12-.364.345 0 .667.056.966.168l-.49 1.61a1.061 1.061 0 0 0-.364-.14 2.067 2.067 0 0 0-.406-.042c-.429 0-.779.15-1.05.448-.271.29-.406.7-.406 1.232V21h-1.764v-6.916Zm7.825 7.084c-.439 0-.84-.089-1.204-.266a2.855 2.855 0 0 1-.938-.728 3.576 3.576 0 0 1-.616-1.134 4.633 4.633 0 0 1-.224-1.47c0-.541.075-1.036.224-1.484.149-.448.355-.83.616-1.148a2.7 2.7 0 0 1 .938-.756 2.711 2.711 0 0 1 1.204-.266c.541 0 .994.126 1.358.378.373.252.639.579.798.98h.084V10.85h1.764V21h-1.666v-1.302h-.084a2.129 2.129 0 0 1-.854 1.078c-.392.261-.859.392-1.4.392Zm.532-1.54c.523 0 .938-.187 1.246-.56.308-.373.462-.882.462-1.526s-.154-1.153-.462-1.526c-.308-.373-.723-.56-1.246-.56s-.938.187-1.246.56c-.308.373-.462.882-.462 1.526s.154 1.153.462 1.526c.308.373.723.56 1.246.56Zm7.051 1.54a2.54 2.54 0 0 1-.882-.154 2.148 2.148 0 0 1-.714-.406 2.068 2.068 0 0 1-.49-.672 2.218 2.218 0 0 1-.168-.882c0-.616.219-1.106.658-1.47.438-.364 1.106-.57 2.002-.616l1.624-.098v-.28c0-.448-.136-.756-.406-.924-.271-.168-.607-.252-1.008-.252-.318 0-.616.06-.896.182-.28.112-.49.252-.63.42l-.994-1.008c.242-.317.592-.579 1.05-.784.466-.205 1.036-.308 1.708-.308.989 0 1.726.229 2.212.686.485.457.728 1.078.728 1.862V21h-1.666v-1.106h-.084a2.245 2.245 0 0 1-.77.938c-.336.224-.761.336-1.274.336Zm.518-1.274c.448 0 .812-.126 1.092-.378.28-.261.42-.625.42-1.092v-.462l-1.414.112c-.728.047-1.092.355-1.092.924 0 .29.093.513.28.672.186.15.424.224.714.224Zm5.625 3.794a2.86 2.86 0 0 1-.392-.028 1.816 1.816 0 0 1-.35-.056v-1.456c.074.019.172.033.294.042.121.01.233.014.336.014.177 0 .326-.014.448-.042a.695.695 0 0 0 .322-.154c.093-.075.177-.182.252-.322.074-.14.154-.317.238-.532l-2.632-7.07h1.932l1.596 5.152h.084l1.61-5.152h1.82l-2.604 6.944a11.04 11.04 0 0 1-.504 1.162 2.97 2.97 0 0 1-.588.826 2.182 2.182 0 0 1-.784.504c-.299.112-.658.168-1.078.168Z" fill="#8C999B"/></g></g><defs><clipPath id="usage-filter__a"><rect width="99" height="32" rx="16" fill="#fff"/></clipPath><clipPath id="usage-filter__b"><rect width="99" height="32" rx="16" fill="#fff"/></clipPath><clipPath id="usage-filter__c"><rect x="107" width="107" height="32" rx="16" fill="#fff"/></clipPath><clipPath id="usage-filter__d"><rect x="107" width="107" height="32" rx="16" fill="#fff"/></clipPath><clipPath id="usage-filter__e"><rect x="222" width="63" height="32" rx="16" fill="#fff"/></clipPath><clipPath id="usage-filter__f"><rect x="222" width="63" height="32" rx="16" fill="#fff"/></clipPath><clipPath id="usage-filter__g"><rect x="293" width="81" height="32" rx="16" fill="#fff"/></clipPath><clipPath id="usage-filter__h"><rect x="293" width="81" height="32" rx="16" fill="#fff"/></clipPath></defs></svg>