<svg width="528" height="84" viewBox="0 0 528 84" fill="none" xmlns="http://www.w3.org/2000/svg">

<g id="Accordion documentation">

<g id="Content">
<g id="Template">
<g id="Modifiers">
<g id="Secondary Text">
<g id="Container">

<g id="modifiers-secondary-text">
<g id="Accordion">
<rect width="528" height="84" fill="white"/>
<g id="Content_2">
<g id="Text">
<path id="Primary text" d="M16.96 35V22H23.26C24.1267 22 24.9 22.1867 25.58 22.56C26.26 22.9333 26.7933 23.46 27.18 24.14C27.58 24.82 27.78 25.62 27.78 26.54C27.78 27.22 27.6667 27.84 27.44 28.4C27.2267 28.96 26.9133 29.44 26.5 29.84C26.1 30.2267 25.62 30.5267 25.06 30.74C24.5133 30.9533 23.9133 31.06 23.26 31.06H20.96V35H16.96ZM20.96 28.18H22.38C22.6867 28.18 22.94 28.1067 23.14 27.96C23.3533 27.8 23.5133 27.6 23.62 27.36C23.7267 27.1067 23.78 26.8333 23.78 26.54C23.78 26.0867 23.66 25.7 23.42 25.38C23.1933 25.06 22.8467 24.9 22.38 24.9H20.96V28.18ZM29.1638 35V25.12H32.6838V26.86H32.8038C33.0038 26.2067 33.3238 25.7133 33.7638 25.38C34.2171 25.0467 34.7838 24.88 35.4638 24.88C35.7171 24.88 35.9638 24.9 36.2038 24.94C36.4438 24.9667 36.6704 25.0133 36.8838 25.08L35.9638 28.42C35.8304 28.34 35.6638 28.28 35.4638 28.24C35.2638 28.1867 35.0704 28.16 34.8838 28.16C34.3104 28.16 33.8371 28.3067 33.4638 28.6C33.1038 28.8933 32.9238 29.3933 32.9238 30.1V35H29.1638ZM37.6013 35V25.12H41.3613V35H37.6013ZM39.4813 24.2C38.8013 24.2 38.2946 24.0067 37.9613 23.62C37.6279 23.2333 37.4613 22.7933 37.4613 22.3C37.4613 21.7933 37.6279 21.3467 37.9613 20.96C38.2946 20.5733 38.8013 20.38 39.4813 20.38C40.1613 20.38 40.6679 20.5733 41.0013 20.96C41.3479 21.3467 41.5213 21.7933 41.5213 22.3C41.5213 22.7933 41.3479 23.2333 41.0013 23.62C40.6679 24.0067 40.1613 24.2 39.4813 24.2ZM42.9919 35V25.12H46.5119V26.78H46.6319C46.8719 26.1533 47.2719 25.68 47.8319 25.36C48.3919 25.04 48.9785 24.88 49.5919 24.88C50.4719 24.88 51.1452 25.0533 51.6119 25.4C52.0919 25.7467 52.4252 26.24 52.6119 26.88C52.7585 26.5067 52.9785 26.1733 53.2719 25.88C53.5785 25.5733 53.9385 25.3333 54.3519 25.16C54.7785 24.9733 55.2185 24.88 55.6719 24.88C56.5519 24.88 57.2319 25.0467 57.7119 25.38C58.2052 25.7133 58.5452 26.1933 58.7319 26.82C58.9185 27.4467 59.0119 28.2 59.0119 29.08V35H55.2519V29.68C55.2519 29.3867 55.2185 29.12 55.1519 28.88C55.0852 28.6267 54.9652 28.42 54.7919 28.26C54.6319 28.1 54.3919 28.02 54.0719 28.02C53.6319 28.02 53.3185 28.16 53.1319 28.44C52.9585 28.72 52.8719 29.1 52.8719 29.58V35H49.1119V29.68C49.1119 29.3867 49.0785 29.12 49.0119 28.88C48.9585 28.6267 48.8519 28.42 48.6919 28.26C48.5319 28.1 48.2852 28.02 47.9519 28.02C47.5119 28.02 47.1985 28.16 47.0119 28.44C46.8385 28.72 46.7519 29.1 46.7519 29.58V35H42.9919ZM63.3881 35.24C62.8415 35.24 62.3148 35.1267 61.8081 34.9C61.3015 34.66 60.8881 34.32 60.5681 33.88C60.2481 33.4267 60.0881 32.8667 60.0881 32.2C60.0881 31.6 60.2348 31.0867 60.5281 30.66C60.8215 30.22 61.2748 29.88 61.8881 29.64C62.5148 29.4 63.3148 29.2533 64.2881 29.2L66.2281 29.08V28.96C66.2281 28.6667 66.1415 28.4467 65.9681 28.3C65.8081 28.14 65.5881 28.0267 65.3081 27.96C65.0415 27.8933 64.7615 27.86 64.4681 27.86C64.0681 27.86 63.6815 27.9267 63.3081 28.06C62.9348 28.1933 62.6415 28.3733 62.4281 28.6L60.4681 26.52C60.9081 26.0133 61.5015 25.6133 62.2481 25.32C63.0081 25.0267 63.9615 24.88 65.1081 24.88C66.0681 24.88 66.9081 25.02 67.6281 25.3C68.3615 25.58 68.9348 26.0067 69.3481 26.58C69.7615 27.1533 69.9681 27.88 69.9681 28.76V35H66.4481V33.54H66.3281C66.0748 34.0333 65.7081 34.44 65.2281 34.76C64.7481 35.08 64.1348 35.24 63.3881 35.24ZM64.8881 32.86C65.2748 32.86 65.5948 32.7533 65.8481 32.54C66.1015 32.3133 66.2281 31.96 66.2281 31.48V31.04L64.8681 31.14C64.5215 31.1533 64.2681 31.2467 64.1081 31.42C63.9481 31.5933 63.8681 31.8 63.8681 32.04C63.8681 32.32 63.9681 32.5267 64.1681 32.66C64.3815 32.7933 64.6215 32.86 64.8881 32.86ZM71.488 35V25.12H75.008V26.86H75.128C75.328 26.2067 75.648 25.7133 76.088 25.38C76.5413 25.0467 77.108 24.88 77.788 24.88C78.0413 24.88 78.288 24.9 78.528 24.94C78.768 24.9667 78.9946 25.0133 79.208 25.08L78.288 28.42C78.1546 28.34 77.988 28.28 77.788 28.24C77.588 28.1867 77.3946 28.16 77.208 28.16C76.6346 28.16 76.1613 28.3067 75.788 28.6C75.428 28.8933 75.248 29.3933 75.248 30.1V35H71.488ZM81.7998 38.92C81.5732 38.92 81.3398 38.9067 81.0998 38.88C80.8732 38.8667 80.6532 38.8333 80.4398 38.78V35.8C80.5998 35.8267 80.7798 35.8467 80.9798 35.86C81.1798 35.8867 81.3598 35.9 81.5198 35.9C81.8398 35.9 82.0932 35.8667 82.2798 35.8C82.4665 35.7467 82.6065 35.6533 82.6998 35.52C82.7932 35.4 82.8665 35.26 82.9198 35.1L79.3998 25.12H83.4798L84.8998 31.2H85.0198L86.4398 25.12H90.2598L86.7998 34.96C86.5198 35.7867 86.1865 36.4933 85.7998 37.08C85.4132 37.6667 84.9065 38.12 84.2798 38.44C83.6532 38.76 82.8265 38.92 81.7998 38.92ZM100.681 35.2C99.8006 35.2 99.0806 35.06 98.5206 34.78C97.9606 34.4867 97.5406 34.04 97.2606 33.44C96.994 32.8267 96.8606 32.04 96.8606 31.08V28.06H95.6006V25.12H96.8606V22.44H100.601V25.12H103.541V28.06H100.601V31.1C100.601 31.4733 100.661 31.7533 100.781 31.94C100.914 32.1267 101.154 32.22 101.501 32.22C101.741 32.22 101.967 32.1733 102.181 32.08C102.394 31.9733 102.567 31.8467 102.701 31.7L103.821 34.2C103.474 34.5333 103.041 34.7867 102.521 34.96C102.014 35.12 101.401 35.2 100.681 35.2ZM109.666 35.24C108.533 35.24 107.573 35.0133 106.786 34.56C106 34.0933 105.406 33.4733 105.006 32.7C104.606 31.9133 104.406 31.0333 104.406 30.06C104.406 29.3133 104.513 28.6267 104.726 28C104.94 27.3733 105.253 26.8267 105.666 26.36C106.093 25.88 106.626 25.5133 107.266 25.26C107.92 25.0067 108.673 24.88 109.526 24.88C110.366 24.88 111.1 25.0067 111.726 25.26C112.353 25.5133 112.873 25.8733 113.286 26.34C113.7 26.7933 114.006 27.3333 114.206 27.96C114.406 28.5733 114.506 29.2533 114.506 30C114.506 30.1733 114.486 30.3733 114.446 30.6C114.42 30.8267 114.386 31 114.346 31.12H108.026C108.093 31.4133 108.22 31.6533 108.406 31.84C108.593 32.0267 108.82 32.1667 109.086 32.26C109.366 32.34 109.646 32.38 109.926 32.38C110.326 32.38 110.68 32.32 110.986 32.2C111.293 32.08 111.533 31.9267 111.706 31.74L113.686 33.76C113.34 34.2133 112.806 34.5733 112.086 34.84C111.366 35.1067 110.56 35.24 109.666 35.24ZM109.486 27.46C109.233 27.46 109 27.52 108.786 27.64C108.586 27.7467 108.42 27.9133 108.286 28.14C108.153 28.3533 108.066 28.62 108.026 28.94H110.946C110.906 28.6067 110.813 28.3333 110.666 28.12C110.533 27.9067 110.366 27.7467 110.166 27.64C109.98 27.52 109.753 27.46 109.486 27.46ZM114.277 35L117.837 30.04L114.537 25.12H118.877L120.077 27.26H120.217L121.377 25.12H125.317L121.997 29.72L125.577 35H121.157L119.757 32.5H119.617L118.177 35H114.277ZM130.856 35.2C129.976 35.2 129.256 35.06 128.696 34.78C128.136 34.4867 127.716 34.04 127.436 33.44C127.17 32.8267 127.036 32.04 127.036 31.08V28.06H125.776V25.12H127.036V22.44H130.776V25.12H133.716V28.06H130.776V31.1C130.776 31.4733 130.836 31.7533 130.956 31.94C131.09 32.1267 131.33 32.22 131.676 32.22C131.916 32.22 132.143 32.1733 132.356 32.08C132.57 31.9733 132.743 31.8467 132.876 31.7L133.996 34.2C133.65 34.5333 133.216 34.7867 132.696 34.96C132.19 35.12 131.576 35.2 130.856 35.2Z" fill="black" fill-opacity="0.76"/>
<path id="Primary text_2" d="M20.192 62.192C19.2853 62.192 18.5493 62.0533 17.984 61.776C17.4187 61.488 16.9707 61.1307 16.64 60.704L17.504 59.888C17.792 60.24 18.176 60.5173 18.656 60.72C19.136 60.9227 19.6907 61.024 20.32 61.024C20.704 61.024 21.0613 60.9707 21.392 60.864C21.7333 60.7467 22.0107 60.56 22.224 60.304C22.4373 60.048 22.544 59.7067 22.544 59.28C22.544 58.9067 22.432 58.608 22.208 58.384C21.9947 58.1493 21.7013 57.952 21.328 57.792C20.9653 57.632 20.5493 57.4773 20.08 57.328C19.7067 57.2 19.3387 57.0613 18.976 56.912C18.6133 56.7627 18.2827 56.5813 17.984 56.368C17.696 56.144 17.4613 55.872 17.28 55.552C17.1093 55.2213 17.024 54.816 17.024 54.336C17.024 53.856 17.1093 53.4347 17.28 53.072C17.4507 52.7093 17.6907 52.4053 18 52.16C18.32 51.9147 18.6933 51.728 19.12 51.6C19.5467 51.472 20.0107 51.408 20.512 51.408C21.248 51.408 21.904 51.536 22.48 51.792C23.0667 52.048 23.5413 52.4373 23.904 52.96L23.04 53.808C22.752 53.456 22.3787 53.1627 21.92 52.928C21.472 52.6933 20.9653 52.576 20.4 52.576C20.08 52.576 19.7653 52.6347 19.456 52.752C19.1573 52.8587 18.9067 53.0347 18.704 53.28C18.5013 53.5253 18.4 53.8507 18.4 54.256C18.4 54.6293 18.5067 54.9333 18.72 55.168C18.944 55.392 19.2427 55.584 19.616 55.744C19.9893 55.8933 20.4053 56.048 20.864 56.208C21.2373 56.336 21.6053 56.4747 21.968 56.624C22.3307 56.7733 22.656 56.96 22.944 57.184C23.2427 57.3973 23.4773 57.6693 23.648 58C23.8293 58.32 23.92 58.72 23.92 59.2C23.92 59.712 23.824 60.16 23.632 60.544C23.44 60.9173 23.1733 61.2267 22.832 61.472C22.4907 61.7173 22.0907 61.8987 21.632 62.016C21.184 62.1333 20.704 62.192 20.192 62.192ZM29.1668 62.192C28.4094 62.192 27.7481 62.0267 27.1828 61.696C26.6281 61.3653 26.1961 60.8907 25.8868 60.272C25.5774 59.6427 25.4228 58.9013 25.4228 58.048C25.4228 57.376 25.5081 56.784 25.6788 56.272C25.8601 55.7493 26.1108 55.3173 26.4308 54.976C26.7614 54.624 27.1454 54.3573 27.5828 54.176C28.0308 53.9947 28.5214 53.904 29.0548 53.904C29.5881 53.904 30.0734 53.9893 30.5108 54.16C30.9588 54.3307 31.3428 54.5867 31.6628 54.928C31.9934 55.2587 32.2494 55.68 32.4308 56.192C32.6121 56.6933 32.7028 57.28 32.7028 57.952C32.7028 58.0373 32.6974 58.1227 32.6868 58.208C32.6868 58.2933 32.6814 58.3627 32.6708 58.416H26.7028C26.7134 58.9067 26.8308 59.3547 27.0548 59.76C27.2788 60.1653 27.5774 60.4907 27.9508 60.736C28.3348 60.9707 28.7614 61.088 29.2308 61.088C29.7961 61.088 30.2654 60.976 30.6388 60.752C31.0121 60.528 31.3214 60.256 31.5668 59.936L32.3348 60.72C32.0041 61.168 31.5828 61.5253 31.0708 61.792C30.5588 62.0587 29.9241 62.192 29.1668 62.192ZM29.0548 54.96C28.5534 54.96 28.1321 55.0773 27.7908 55.312C27.4494 55.5467 27.1881 55.8453 27.0068 56.208C26.8361 56.5707 26.7454 56.9493 26.7348 57.344H31.3588C31.3481 56.9493 31.2521 56.5707 31.0708 56.208C30.9001 55.8453 30.6441 55.5467 30.3028 55.312C29.9721 55.0773 29.5561 54.96 29.0548 54.96ZM37.7743 62.192C36.9209 62.192 36.2223 61.9947 35.6783 61.6C35.1343 61.2053 34.7343 60.6933 34.4783 60.064C34.2329 59.424 34.1103 58.752 34.1103 58.048C34.1103 57.3333 34.2329 56.6613 34.4783 56.032C34.7236 55.4027 35.1129 54.8907 35.6463 54.496C36.1903 54.1013 36.8889 53.904 37.7423 53.904C38.4036 53.904 38.9476 54.016 39.3743 54.24C39.8116 54.464 40.1796 54.7627 40.4783 55.136L39.6783 55.888C39.4223 55.6107 39.1503 55.3973 38.8623 55.248C38.5849 55.088 38.2223 55.008 37.7743 55.008C37.3156 55.008 36.9049 55.1307 36.5423 55.376C36.1903 55.6213 35.9129 55.9733 35.7103 56.432C35.5183 56.88 35.4223 57.4187 35.4223 58.048C35.4223 58.9867 35.6463 59.728 36.0943 60.272C36.5423 60.816 37.1129 61.088 37.8063 61.088C38.2329 61.088 38.6009 61.0133 38.9103 60.864C39.2196 60.704 39.5076 60.4747 39.7743 60.176L40.5423 60.944C40.2436 61.3173 39.8649 61.6213 39.4063 61.856C38.9583 62.08 38.4143 62.192 37.7743 62.192ZM45.3706 62.192C44.528 62.192 43.824 62.0053 43.2586 61.632C42.704 61.2587 42.288 60.7573 42.0106 60.128C41.7333 59.4987 41.5946 58.8053 41.5946 58.048C41.5946 57.472 41.6693 56.9333 41.8186 56.432C41.9786 55.9307 42.2133 55.4933 42.5226 55.12C42.8426 54.736 43.2373 54.4373 43.7066 54.224C44.1866 54.0107 44.7413 53.904 45.3706 53.904C46.2133 53.904 46.9066 54.0907 47.4506 54.464C48.0053 54.8373 48.416 55.3387 48.6826 55.968C48.96 56.5867 49.0986 57.28 49.0986 58.048C49.0986 58.624 49.0186 59.1627 48.8586 59.664C48.7093 60.1653 48.48 60.608 48.1706 60.992C47.8613 61.3653 47.472 61.6587 47.0026 61.872C46.544 62.0853 46 62.192 45.3706 62.192ZM42.9066 58.048C42.9066 58.656 42.9973 59.1947 43.1786 59.664C43.36 60.1227 43.632 60.4853 43.9946 60.752C44.3573 61.008 44.816 61.136 45.3706 61.136C45.9146 61.136 46.3626 61.008 46.7146 60.752C47.0773 60.4853 47.344 60.1227 47.5146 59.664C47.696 59.1947 47.7866 58.656 47.7866 58.048C47.7866 57.44 47.696 56.9067 47.5146 56.448C47.344 55.9787 47.0773 55.616 46.7146 55.36C46.3626 55.0933 45.9146 54.96 45.3706 54.96C44.816 54.96 44.3573 55.0933 43.9946 55.36C43.632 55.616 43.36 55.9787 43.1786 56.448C42.9973 56.9067 42.9066 57.44 42.9066 58.048ZM51.1569 62V54.096H52.3729V55.344H52.4689C52.5969 55.0667 52.7622 54.8213 52.9649 54.608C53.1675 54.384 53.4075 54.2133 53.6849 54.096C53.9622 53.968 54.2769 53.904 54.6289 53.904C55.5355 53.904 56.2502 54.144 56.7729 54.624C57.3062 55.0933 57.5729 55.8667 57.5729 56.944V62H56.2929V57.184C56.2929 56.3733 56.1275 55.8027 55.7969 55.472C55.4769 55.1307 55.0022 54.96 54.3729 54.96C53.7755 54.96 53.3009 55.168 52.9489 55.584C52.6075 56 52.4369 56.608 52.4369 57.408V62H51.1569ZM62.9893 62.192C62.2853 62.192 61.6719 62.0107 61.1493 61.648C60.6266 61.2853 60.2159 60.7947 59.9173 60.176C59.6293 59.5467 59.4853 58.832 59.4853 58.032C59.4853 57.232 59.6293 56.5227 59.9173 55.904C60.2159 55.2747 60.6266 54.784 61.1493 54.432C61.6719 54.08 62.2853 53.904 62.9893 53.904C63.6399 53.904 64.1999 54.0587 64.6693 54.368C65.1386 54.6773 65.4746 55.072 65.6773 55.552H65.7733V50.4H67.0533V62H65.8373V60.384H65.7413C65.5599 60.928 65.2186 61.3653 64.7173 61.696C64.2159 62.0267 63.6399 62.192 62.9893 62.192ZM63.3093 61.04C63.7679 61.04 64.1786 60.9333 64.5413 60.72C64.9146 60.496 65.2133 60.16 65.4373 59.712C65.6613 59.264 65.7733 58.7093 65.7733 58.048C65.7733 57.376 65.6613 56.8213 65.4373 56.384C65.2133 55.936 64.9146 55.6053 64.5413 55.392C64.1786 55.168 63.7679 55.056 63.3093 55.056C62.8399 55.056 62.4133 55.168 62.0293 55.392C61.6559 55.6053 61.3573 55.936 61.1332 56.384C60.9093 56.8213 60.7973 57.376 60.7973 58.048C60.7973 58.7093 60.9093 59.264 61.1332 59.712C61.3573 60.16 61.6559 60.496 62.0293 60.72C62.4133 60.9333 62.8399 61.04 63.3093 61.04ZM71.5103 62.192C71.0303 62.192 70.5983 62.0907 70.2143 61.888C69.8409 61.6853 69.5476 61.4027 69.3343 61.04C69.1209 60.6773 69.0143 60.2613 69.0143 59.792C69.0143 59.3333 69.1209 58.9387 69.3343 58.608C69.5583 58.2667 69.8836 57.9947 70.3103 57.792C70.7369 57.5893 71.2489 57.472 71.8463 57.44L73.9263 57.312V56.752C73.9263 56.3467 73.8569 56.0213 73.7183 55.776C73.5903 55.52 73.3983 55.3333 73.1423 55.216C72.8969 55.088 72.5929 55.024 72.2303 55.024C71.7716 55.024 71.3769 55.1093 71.0463 55.28C70.7156 55.4507 70.4596 55.6373 70.2783 55.84L69.5103 55.072C69.7876 54.7307 70.1663 54.4533 70.6463 54.24C71.1263 54.016 71.6649 53.904 72.2623 53.904C72.9876 53.904 73.5636 54.0267 73.9903 54.272C74.4169 54.5173 74.7209 54.848 74.9023 55.264C75.0943 55.6693 75.1903 56.1227 75.1903 56.624V62H73.9903V60.656H73.8943C73.6916 61.1253 73.3929 61.4987 72.9983 61.776C72.6036 62.0533 72.1076 62.192 71.5103 62.192ZM71.7023 61.104C72.3636 61.104 72.8969 60.912 73.3023 60.528C73.7183 60.1333 73.9263 59.6107 73.9263 58.96V58.272L71.9103 58.416C71.3876 58.4587 70.9876 58.592 70.7103 58.816C70.4436 59.04 70.3103 59.3547 70.3103 59.76C70.3103 60.1653 70.4383 60.4907 70.6943 60.736C70.9609 60.9813 71.2969 61.104 71.7023 61.104ZM77.7663 62V54.096H78.9823V55.376H79.0783C79.2489 54.96 79.4943 54.6133 79.8143 54.336C80.1449 54.048 80.5449 53.904 81.0143 53.904C81.2063 53.904 81.3929 53.9253 81.5743 53.968C81.7663 54 81.9369 54.0587 82.0863 54.144L81.6543 55.296C81.5156 55.2213 81.3663 55.1733 81.2063 55.152C81.0569 55.12 80.9023 55.104 80.7423 55.104C80.2196 55.104 79.8036 55.3173 79.4943 55.744C79.1956 56.16 79.0463 56.6933 79.0463 57.344V62H77.7663ZM84.231 65.024C84.1243 65.024 84.007 65.0133 83.879 64.992C83.751 64.9813 83.6443 64.9653 83.559 64.944V63.84C83.6123 63.8507 83.6977 63.8613 83.815 63.872C83.943 63.8827 84.0603 63.888 84.167 63.888C84.455 63.888 84.6897 63.8507 84.871 63.776C85.0523 63.712 85.2177 63.5627 85.367 63.328C85.5163 63.0933 85.6817 62.736 85.863 62.256L82.695 54.096H84.087L86.471 60.72H86.567L88.967 54.096H90.263L87.159 62.08C86.8923 62.7733 86.631 63.3333 86.375 63.76C86.119 64.1973 85.8257 64.5173 85.495 64.72C85.1643 64.9227 84.743 65.024 84.231 65.024ZM98.2139 62.192C97.7445 62.192 97.3552 62.096 97.0459 61.904C96.7365 61.712 96.5072 61.4347 96.3579 61.072C96.2192 60.7093 96.1499 60.2827 96.1499 59.792V55.136H94.7419V54.096H96.1499V51.952H97.4139V54.096H99.7019V55.136H97.4139V59.68C97.4139 60.192 97.5099 60.5493 97.7019 60.752C97.9045 60.9547 98.1605 61.056 98.4699 61.056C98.6832 61.056 98.8752 61.0187 99.0459 60.944C99.2165 60.8587 99.3765 60.7467 99.5259 60.608L100.102 61.504C99.8565 61.7387 99.5739 61.9093 99.2539 62.016C98.9445 62.1333 98.5979 62.192 98.2139 62.192ZM104.807 62.192C104.05 62.192 103.389 62.0267 102.823 61.696C102.269 61.3653 101.837 60.8907 101.527 60.272C101.218 59.6427 101.063 58.9013 101.063 58.048C101.063 57.376 101.149 56.784 101.319 56.272C101.501 55.7493 101.751 55.3173 102.071 54.976C102.402 54.624 102.786 54.3573 103.223 54.176C103.671 53.9947 104.162 53.904 104.695 53.904C105.229 53.904 105.714 53.9893 106.151 54.16C106.599 54.3307 106.983 54.5867 107.303 54.928C107.634 55.2587 107.89 55.68 108.071 56.192C108.253 56.6933 108.343 57.28 108.343 57.952C108.343 58.0373 108.338 58.1227 108.327 58.208C108.327 58.2933 108.322 58.3627 108.311 58.416H102.343C102.354 58.9067 102.471 59.3547 102.695 59.76C102.919 60.1653 103.218 60.4907 103.591 60.736C103.975 60.9707 104.402 61.088 104.871 61.088C105.437 61.088 105.906 60.976 106.279 60.752C106.653 60.528 106.962 60.256 107.207 59.936L107.975 60.72C107.645 61.168 107.223 61.5253 106.711 61.792C106.199 62.0587 105.565 62.192 104.807 62.192ZM104.695 54.96C104.194 54.96 103.773 55.0773 103.431 55.312C103.09 55.5467 102.829 55.8453 102.647 56.208C102.477 56.5707 102.386 56.9493 102.375 57.344H106.999C106.989 56.9493 106.893 56.5707 106.711 56.208C106.541 55.8453 106.285 55.5467 105.943 55.312C105.613 55.0773 105.197 54.96 104.695 54.96ZM109.294 62L112.062 57.984L109.422 54.096H110.958L112.83 57.056H112.894L114.83 54.096H116.206L113.566 57.92L116.334 62H114.798L112.798 58.848H112.734L110.67 62H109.294ZM120.651 62.192C120.182 62.192 119.793 62.096 119.483 61.904C119.174 61.712 118.945 61.4347 118.795 61.072C118.657 60.7093 118.587 60.2827 118.587 59.792V55.136H117.179V54.096H118.587V51.952H119.851V54.096H122.139V55.136H119.851V59.68C119.851 60.192 119.947 60.5493 120.139 60.752C120.342 60.9547 120.598 61.056 120.907 61.056C121.121 61.056 121.313 61.0187 121.483 60.944C121.654 60.8587 121.814 60.7467 121.963 60.608L122.539 61.504C122.294 61.7387 122.011 61.9093 121.691 62.016C121.382 62.1333 121.035 62.192 120.651 62.192Z" fill="black" fill-opacity="0.64"/>
</g>
<g id="Chevron ">
<g id="Chevron / Chevron Down">
<g id="chevron-down">
<path id="Vector" d="M492.23 23.5656L500 31.5981L507.796 23.5L509.24 24.8125L501.194 33.16C500.868 33.483 500.427 33.6642 499.967 33.6642C499.508 33.6642 499.067 33.483 498.74 33.16L490.812 24.9175L492.23 23.5656Z" fill="black" fill-opacity="0.76"/>
</g>
</g>
</g>
</g>
<g id="Divider">
<rect width="528" height="1" transform="translate(0 83)" fill="white" fill-opacity="0.01"/>
<g id="Divider_2">
<rect width="528" height="1" transform="translate(0 83)" fill="black" fill-opacity="0.08"/>
</g>
</g>
</g>
</g>
</g>
</g>
</g>
</g>
</g>
</g>
</svg>
