<svg width="343" height="140" viewBox="0 0 343 140" fill="none" xmlns="http://www.w3.org/2000/svg">
<path d="M0 12C0 5.37258 5.37258 0 12 0H331C337.627 0 343 5.37258 343 12V120C343 126.627 337.627 132 331 132H12C5.37258 132 0 126.627 0 120V12Z" fill="white"/>
<path d="M12.736 26V15.6H18.048C18.7093 15.6 19.3013 15.744 19.824 16.032C20.3573 16.3093 20.7733 16.6933 21.072 17.184C21.3813 17.6747 21.536 18.2347 21.536 18.864C21.536 19.5253 21.3867 20.1227 21.088 20.656C20.8 21.1893 20.3467 21.5627 19.728 21.776L19.712 21.84L21.968 26H18.496L16.8 22.512H15.936V26H12.736ZM15.936 20.24H17.36C17.6693 20.24 17.9093 20.1333 18.08 19.92C18.2613 19.696 18.352 19.4027 18.352 19.04C18.352 18.656 18.2613 18.368 18.08 18.176C17.8987 17.984 17.6427 17.888 17.312 17.888H15.936V20.24ZM26.6988 26.192C25.7921 26.192 25.0241 26.0107 24.3948 25.648C23.7654 25.2747 23.2908 24.7787 22.9708 24.16C22.6508 23.5307 22.4908 22.8267 22.4908 22.048C22.4908 21.4507 22.5761 20.9013 22.7467 20.4C22.9174 19.8987 23.1681 19.4613 23.4988 19.088C23.8401 18.704 24.2668 18.4107 24.7788 18.208C25.3014 18.0053 25.9041 17.904 26.5868 17.904C27.2588 17.904 27.8454 18.0053 28.3468 18.208C28.8481 18.4107 29.2641 18.6987 29.5948 19.072C29.9254 19.4347 30.1708 19.8667 30.3308 20.368C30.4908 20.8587 30.5708 21.4027 30.5708 22C30.5708 22.1387 30.5548 22.2987 30.5228 22.48C30.5014 22.6613 30.4748 22.8 30.4427 22.896H25.3868C25.4401 23.1307 25.5414 23.3227 25.6908 23.472C25.8401 23.6213 26.0214 23.7333 26.2348 23.808C26.4588 23.872 26.6828 23.904 26.9068 23.904C27.2268 23.904 27.5094 23.856 27.7548 23.76C28.0001 23.664 28.1921 23.5413 28.3308 23.392L29.9148 25.008C29.6374 25.3707 29.2108 25.6587 28.6348 25.872C28.0588 26.0853 27.4134 26.192 26.6988 26.192ZM26.5548 19.968C26.3521 19.968 26.1654 20.016 25.9948 20.112C25.8348 20.1973 25.7014 20.3307 25.5948 20.512C25.4881 20.6827 25.4188 20.896 25.3868 21.152H27.7228C27.6908 20.8853 27.6161 20.6667 27.4988 20.496C27.3921 20.3253 27.2588 20.1973 27.0988 20.112C26.9494 20.016 26.7681 19.968 26.5548 19.968ZM33.6918 26.192C33.2544 26.192 32.8331 26.1013 32.4278 25.92C32.0224 25.728 31.6918 25.456 31.4358 25.104C31.1798 24.7413 31.0518 24.2933 31.0518 23.76C31.0518 23.28 31.1691 22.8693 31.4038 22.528C31.6384 22.176 32.0011 21.904 32.4918 21.712C32.9931 21.52 33.6331 21.4027 34.4118 21.36L35.9638 21.264V21.168C35.9638 20.9333 35.8944 20.7573 35.7558 20.64C35.6278 20.512 35.4518 20.4213 35.2278 20.368C35.0144 20.3147 34.7904 20.288 34.5558 20.288C34.2358 20.288 33.9264 20.3413 33.6278 20.448C33.3291 20.5547 33.0944 20.6987 32.9238 20.88L31.3558 19.216C31.7078 18.8107 32.1824 18.4907 32.7798 18.256C33.3878 18.0213 34.1504 17.904 35.0677 17.904C35.8358 17.904 36.5078 18.016 37.0838 18.24C37.6704 18.464 38.1291 18.8053 38.4598 19.264C38.7904 19.7227 38.9558 20.304 38.9558 21.008V26H36.1398V24.832H36.0438C35.8411 25.2267 35.5478 25.552 35.1638 25.808C34.7798 26.064 34.2891 26.192 33.6918 26.192ZM34.8918 24.288C35.2011 24.288 35.4571 24.2027 35.6598 24.032C35.8624 23.8507 35.9638 23.568 35.9638 23.184V22.832L34.8758 22.912C34.5984 22.9227 34.3958 22.9973 34.2678 23.136C34.1398 23.2747 34.0758 23.44 34.0758 23.632C34.0758 23.856 34.1558 24.0213 34.3158 24.128C34.4864 24.2347 34.6784 24.288 34.8918 24.288ZM40.1716 26V14.4H43.1796V26H40.1716ZM44.5321 22.704V20.144H49.0761V22.704H44.5321ZM54.2133 26.16C53.5093 26.16 52.9333 26.048 52.4853 25.824C52.0373 25.5893 51.7013 25.232 51.4773 24.752C51.2639 24.2613 51.1573 23.632 51.1573 22.864V20.448H50.1493V18.096H51.1573V15.952H54.1493V18.096H56.5013V20.448H54.1493V22.88C54.1493 23.1787 54.1973 23.4027 54.2933 23.552C54.3999 23.7013 54.5919 23.776 54.8693 23.776C55.0613 23.776 55.2426 23.7387 55.4133 23.664C55.5839 23.5787 55.7226 23.4773 55.8293 23.36L56.7253 25.36C56.4479 25.6267 56.1013 25.8293 55.6853 25.968C55.2799 26.096 54.7893 26.16 54.2133 26.16ZM57.5779 26V18.096H60.5859V26H57.5779ZM59.0819 17.36C58.5379 17.36 58.1325 17.2053 57.8659 16.896C57.5992 16.5867 57.4659 16.2347 57.4659 15.84C57.4659 15.4347 57.5992 15.0773 57.8659 14.768C58.1325 14.4587 58.5379 14.304 59.0819 14.304C59.6259 14.304 60.0312 14.4587 60.2979 14.768C60.5752 15.0773 60.7139 15.4347 60.7139 15.84C60.7139 16.2347 60.5752 16.5867 60.2979 16.896C60.0312 17.2053 59.6259 17.36 59.0819 17.36ZM61.8904 26V18.096H64.7064V19.424H64.8024C64.9944 18.9227 65.3144 18.544 65.7624 18.288C66.2104 18.032 66.6797 17.904 67.1704 17.904C67.8744 17.904 68.413 18.0427 68.7864 18.32C69.1704 18.5973 69.437 18.992 69.5864 19.504C69.7037 19.2053 69.8797 18.9387 70.1144 18.704C70.3597 18.4587 70.6477 18.2667 70.9784 18.128C71.3197 17.9787 71.6717 17.904 72.0344 17.904C72.7384 17.904 73.2824 18.0373 73.6664 18.304C74.061 18.5707 74.333 18.9547 74.4824 19.456C74.6317 19.9573 74.7064 20.56 74.7064 21.264V26H71.6984V21.744C71.6984 21.5093 71.6717 21.296 71.6184 21.104C71.565 20.9013 71.469 20.736 71.3304 20.608C71.2024 20.48 71.0104 20.416 70.7544 20.416C70.4024 20.416 70.1517 20.528 70.0024 20.752C69.8637 20.976 69.7944 21.28 69.7944 21.664V26H66.7864V21.744C66.7864 21.5093 66.7597 21.296 66.7064 21.104C66.6637 20.9013 66.5784 20.736 66.4504 20.608C66.3224 20.48 66.125 20.416 65.8584 20.416C65.5064 20.416 65.2557 20.528 65.1064 20.752C64.9677 20.976 64.8984 21.28 64.8984 21.664V26H61.8904ZM79.7769 26.192C78.8702 26.192 78.1022 26.0107 77.4729 25.648C76.8435 25.2747 76.3689 24.7787 76.0489 24.16C75.7289 23.5307 75.5689 22.8267 75.5689 22.048C75.5689 21.4507 75.6542 20.9013 75.8249 20.4C75.9955 19.8987 76.2462 19.4613 76.5769 19.088C76.9182 18.704 77.3449 18.4107 77.8569 18.208C78.3795 18.0053 78.9822 17.904 79.6649 17.904C80.3369 17.904 80.9235 18.0053 81.4249 18.208C81.9262 18.4107 82.3422 18.6987 82.6729 19.072C83.0035 19.4347 83.2489 19.8667 83.4089 20.368C83.5689 20.8587 83.6489 21.4027 83.6489 22C83.6489 22.1387 83.6329 22.2987 83.6009 22.48C83.5795 22.6613 83.5529 22.8 83.5209 22.896H78.4649C78.5182 23.1307 78.6195 23.3227 78.7689 23.472C78.9182 23.6213 79.0995 23.7333 79.3129 23.808C79.5369 23.872 79.7609 23.904 79.9849 23.904C80.3049 23.904 80.5875 23.856 80.8329 23.76C81.0782 23.664 81.2702 23.5413 81.4089 23.392L82.9929 25.008C82.7155 25.3707 82.2889 25.6587 81.7129 25.872C81.1369 26.0853 80.4915 26.192 79.7769 26.192ZM79.6329 19.968C79.4302 19.968 79.2435 20.016 79.0729 20.112C78.9129 20.1973 78.7795 20.3307 78.6729 20.512C78.5662 20.6827 78.4969 20.896 78.4649 21.152H80.8009C80.7689 20.8853 80.6942 20.6667 80.5769 20.496C80.4702 20.3253 80.3369 20.1973 80.1769 20.112C80.0275 20.016 79.8462 19.968 79.6329 19.968ZM92.1336 26.192C91.2803 26.192 90.5443 26.016 89.9256 25.664C89.3176 25.3013 88.8483 24.8107 88.5176 24.192C88.1976 23.5627 88.0376 22.848 88.0376 22.048C88.0376 21.248 88.1976 20.5387 88.5176 19.92C88.8376 19.2907 89.2963 18.8 89.8936 18.448C90.491 18.0853 91.211 17.904 92.0536 17.904C92.747 17.904 93.339 18.016 93.8296 18.24C94.3203 18.4533 94.7416 18.768 95.0936 19.184L93.2216 20.88C93.1043 20.7307 92.9656 20.6187 92.8056 20.544C92.6563 20.4693 92.4803 20.432 92.2776 20.432C92.0323 20.432 91.8243 20.496 91.6536 20.624C91.483 20.752 91.3496 20.9387 91.2536 21.184C91.1576 21.4187 91.1096 21.7067 91.1096 22.048C91.1096 22.5493 91.2163 22.944 91.4296 23.232C91.6536 23.5093 91.9363 23.648 92.2776 23.648C92.491 23.648 92.683 23.6107 92.8536 23.536C93.0243 23.4507 93.163 23.3387 93.2696 23.2L95.1576 24.896C94.8163 25.312 94.4003 25.632 93.9096 25.856C93.419 26.08 92.827 26.192 92.1336 26.192ZM99.528 26.192C98.5893 26.192 97.8 26.0053 97.16 25.632C96.5307 25.248 96.056 24.7413 95.736 24.112C95.4267 23.4827 95.272 22.7947 95.272 22.048C95.272 21.4827 95.3627 20.9547 95.544 20.464C95.7253 19.9627 95.992 19.52 96.344 19.136C96.696 18.752 97.1387 18.4533 97.672 18.24C98.2053 18.016 98.824 17.904 99.528 17.904C100.456 17.904 101.235 18.096 101.864 18.48C102.493 18.8533 102.968 19.3547 103.288 19.984C103.619 20.6133 103.784 21.3013 103.784 22.048C103.784 22.6027 103.693 23.1307 103.512 23.632C103.331 24.1333 103.059 24.576 102.696 24.96C102.344 25.344 101.901 25.648 101.368 25.872C100.835 26.0853 100.221 26.192 99.528 26.192ZM98.328 22.048C98.328 22.4427 98.376 22.7787 98.472 23.056C98.5787 23.3227 98.7227 23.5253 98.904 23.664C99.0853 23.792 99.2933 23.856 99.528 23.856C99.7627 23.856 99.9653 23.792 100.136 23.664C100.317 23.5253 100.456 23.3227 100.552 23.056C100.659 22.7787 100.712 22.4427 100.712 22.048C100.712 21.6427 100.659 21.3067 100.552 21.04C100.456 20.7733 100.317 20.576 100.136 20.448C99.9653 20.3093 99.7627 20.24 99.528 20.24C99.2933 20.24 99.0853 20.3093 98.904 20.448C98.7227 20.576 98.5787 20.7733 98.472 21.04C98.376 21.3067 98.328 21.6427 98.328 22.048ZM107.279 26.192C106.564 26.192 106.015 26.0587 105.631 25.792C105.258 25.5253 104.996 25.1413 104.847 24.64C104.708 24.1387 104.639 23.536 104.639 22.832V18.096H107.647V22.24C107.647 22.5067 107.668 22.752 107.711 22.976C107.754 23.1893 107.839 23.36 107.967 23.488C108.095 23.616 108.287 23.68 108.543 23.68C108.916 23.68 109.167 23.5627 109.295 23.328C109.423 23.0827 109.487 22.7413 109.487 22.304V18.096H112.495V26H109.695V24.672H109.599C109.45 25.0987 109.156 25.4613 108.719 25.76C108.292 26.048 107.812 26.192 107.279 26.192ZM113.828 26V18.096H116.644V19.488H116.74C116.9 18.9653 117.156 18.5707 117.508 18.304C117.871 18.0373 118.324 17.904 118.868 17.904C119.071 17.904 119.268 17.92 119.46 17.952C119.652 17.9733 119.833 18.0107 120.004 18.064L119.268 20.736C119.161 20.672 119.028 20.624 118.868 20.592C118.708 20.5493 118.553 20.528 118.404 20.528C117.945 20.528 117.567 20.6453 117.268 20.88C116.98 21.1147 116.836 21.5147 116.836 22.08V26H113.828ZM120.578 26V18.096H123.586V26H120.578ZM122.082 17.36C121.538 17.36 121.133 17.2053 120.866 16.896C120.599 16.5867 120.466 16.2347 120.466 15.84C120.466 15.4347 120.599 15.0773 120.866 14.768C121.133 14.4587 121.538 14.304 122.082 14.304C122.626 14.304 123.031 14.4587 123.298 14.768C123.575 15.0773 123.714 15.4347 123.714 15.84C123.714 16.2347 123.575 16.5867 123.298 16.896C123.031 17.2053 122.626 17.36 122.082 17.36ZM128.714 26.192C127.808 26.192 127.04 26.0107 126.41 25.648C125.781 25.2747 125.306 24.7787 124.986 24.16C124.666 23.5307 124.506 22.8267 124.506 22.048C124.506 21.4507 124.592 20.9013 124.762 20.4C124.933 19.8987 125.184 19.4613 125.514 19.088C125.856 18.704 126.282 18.4107 126.794 18.208C127.317 18.0053 127.92 17.904 128.602 17.904C129.274 17.904 129.861 18.0053 130.362 18.208C130.864 18.4107 131.28 18.6987 131.61 19.072C131.941 19.4347 132.186 19.8667 132.346 20.368C132.506 20.8587 132.586 21.4027 132.586 22C132.586 22.1387 132.57 22.2987 132.538 22.48C132.517 22.6613 132.49 22.8 132.458 22.896H127.402C127.456 23.1307 127.557 23.3227 127.706 23.472C127.856 23.6213 128.037 23.7333 128.25 23.808C128.474 23.872 128.698 23.904 128.922 23.904C129.242 23.904 129.525 23.856 129.77 23.76C130.016 23.664 130.208 23.5413 130.346 23.392L131.93 25.008C131.653 25.3707 131.226 25.6587 130.65 25.872C130.074 26.0853 129.429 26.192 128.714 26.192ZM128.57 19.968C128.368 19.968 128.181 20.016 128.01 20.112C127.85 20.1973 127.717 20.3307 127.61 20.512C127.504 20.6827 127.434 20.896 127.402 21.152H129.738C129.706 20.8853 129.632 20.6667 129.514 20.496C129.408 20.3253 129.274 20.1973 129.114 20.112C128.965 20.016 128.784 19.968 128.57 19.968ZM133.515 26V18.096H136.331V19.488H136.427C136.587 18.9653 136.843 18.5707 137.195 18.304C137.558 18.0373 138.011 17.904 138.555 17.904C138.758 17.904 138.955 17.92 139.147 17.952C139.339 17.9733 139.521 18.0107 139.691 18.064L138.955 20.736C138.849 20.672 138.715 20.624 138.555 20.592C138.395 20.5493 138.241 20.528 138.091 20.528C137.633 20.528 137.254 20.6453 136.955 20.88C136.667 21.1147 136.523 21.5147 136.523 22.08V26H133.515ZM147.885 26.16C147.181 26.16 146.605 26.048 146.157 25.824C145.709 25.5893 145.373 25.232 145.149 24.752C144.936 24.2613 144.829 23.632 144.829 22.864V20.448H143.821V18.096H144.829V15.952H147.821V18.096H150.173V20.448H147.821V22.88C147.821 23.1787 147.869 23.4027 147.965 23.552C148.072 23.7013 148.264 23.776 148.541 23.776C148.733 23.776 148.914 23.7387 149.085 23.664C149.256 23.5787 149.394 23.4773 149.501 23.36L150.397 25.36C150.12 25.6267 149.773 25.8293 149.357 25.968C148.952 26.096 148.461 26.16 147.885 26.16ZM151.25 26V18.096H154.066V19.488H154.162C154.322 18.9653 154.578 18.5707 154.93 18.304C155.292 18.0373 155.746 17.904 156.29 17.904C156.492 17.904 156.69 17.92 156.882 17.952C157.074 17.9733 157.255 18.0107 157.426 18.064L156.69 20.736C156.583 20.672 156.45 20.624 156.29 20.592C156.13 20.5493 155.975 20.528 155.826 20.528C155.367 20.528 154.988 20.6453 154.69 20.88C154.402 21.1147 154.258 21.5147 154.258 22.08V26H151.25ZM160.004 26.192C159.567 26.192 159.146 26.1013 158.74 25.92C158.335 25.728 158.004 25.456 157.748 25.104C157.492 24.7413 157.364 24.2933 157.364 23.76C157.364 23.28 157.482 22.8693 157.716 22.528C157.951 22.176 158.314 21.904 158.804 21.712C159.306 21.52 159.946 21.4027 160.724 21.36L162.276 21.264V21.168C162.276 20.9333 162.207 20.7573 162.068 20.64C161.94 20.512 161.764 20.4213 161.54 20.368C161.327 20.3147 161.103 20.288 160.868 20.288C160.548 20.288 160.239 20.3413 159.94 20.448C159.642 20.5547 159.407 20.6987 159.236 20.88L157.668 19.216C158.02 18.8107 158.495 18.4907 159.092 18.256C159.7 18.0213 160.463 17.904 161.38 17.904C162.148 17.904 162.82 18.016 163.396 18.24C163.983 18.464 164.442 18.8053 164.772 19.264C165.103 19.7227 165.268 20.304 165.268 21.008V26H162.452V24.832H162.356C162.154 25.2267 161.86 25.552 161.476 25.808C161.092 26.064 160.602 26.192 160.004 26.192ZM161.204 24.288C161.514 24.288 161.77 24.2027 161.972 24.032C162.175 23.8507 162.276 23.568 162.276 23.184V22.832L161.188 22.912C160.911 22.9227 160.708 22.9973 160.58 23.136C160.452 23.2747 160.388 23.44 160.388 23.632C160.388 23.856 160.468 24.0213 160.628 24.128C160.799 24.2347 160.991 24.288 161.204 24.288ZM170.196 26.192C169.343 26.192 168.607 26.016 167.988 25.664C167.38 25.3013 166.911 24.8107 166.58 24.192C166.26 23.5627 166.1 22.848 166.1 22.048C166.1 21.248 166.26 20.5387 166.58 19.92C166.9 19.2907 167.359 18.8 167.956 18.448C168.553 18.0853 169.273 17.904 170.116 17.904C170.809 17.904 171.401 18.016 171.892 18.24C172.383 18.4533 172.804 18.768 173.156 19.184L171.284 20.88C171.167 20.7307 171.028 20.6187 170.868 20.544C170.719 20.4693 170.543 20.432 170.34 20.432C170.095 20.432 169.887 20.496 169.716 20.624C169.545 20.752 169.412 20.9387 169.316 21.184C169.22 21.4187 169.172 21.7067 169.172 22.048C169.172 22.5493 169.279 22.944 169.492 23.232C169.716 23.5093 169.999 23.648 170.34 23.648C170.553 23.648 170.745 23.6107 170.916 23.536C171.087 23.4507 171.225 23.3387 171.332 23.2L173.22 24.896C172.879 25.312 172.463 25.632 171.972 25.856C171.481 26.08 170.889 26.192 170.196 26.192ZM174 26V14.4H177.008V21.088H177.104L179.232 18.096H182.496L179.76 21.456L182.672 26H179.136L177.664 23.28L177.008 24.144V26H174ZM183.234 26V18.096H186.242V26H183.234ZM184.738 17.36C184.194 17.36 183.789 17.2053 183.522 16.896C183.255 16.5867 183.122 16.2347 183.122 15.84C183.122 15.4347 183.255 15.0773 183.522 14.768C183.789 14.4587 184.194 14.304 184.738 14.304C185.282 14.304 185.687 14.4587 185.954 14.768C186.231 15.0773 186.37 15.4347 186.37 15.84C186.37 16.2347 186.231 16.5867 185.954 16.896C185.687 17.2053 185.282 17.36 184.738 17.36ZM187.547 26V18.096H190.363V19.424H190.459C190.555 19.136 190.72 18.88 190.955 18.656C191.2 18.4213 191.483 18.24 191.803 18.112C192.133 17.9733 192.48 17.904 192.843 17.904C193.856 17.904 194.56 18.1707 194.955 18.704C195.349 19.2373 195.547 20.0267 195.547 21.072V26H192.539V21.856C192.539 21.3653 192.464 21.0027 192.315 20.768C192.176 20.5333 191.925 20.416 191.563 20.416C191.2 20.416 190.939 20.528 190.779 20.752C190.629 20.9653 190.555 21.312 190.555 21.792V26H187.547ZM200.38 29.152C199.602 29.152 198.919 29.0293 198.332 28.784C197.746 28.5493 197.33 28.2667 197.084 27.936L198.812 26.176C198.919 26.336 199.116 26.4693 199.404 26.576C199.703 26.6827 199.991 26.736 200.268 26.736C200.524 26.736 200.764 26.6933 200.988 26.608C201.223 26.5333 201.41 26.4 201.548 26.208C201.698 26.016 201.772 25.7493 201.772 25.408V24.192H201.724C201.554 24.5653 201.292 24.8853 200.94 25.152C200.599 25.4187 200.119 25.552 199.5 25.552C198.882 25.552 198.343 25.3867 197.884 25.056C197.426 24.7147 197.074 24.2507 196.828 23.664C196.583 23.0667 196.46 22.3947 196.46 21.648C196.46 20.9227 196.588 20.2827 196.844 19.728C197.1 19.1627 197.458 18.7253 197.916 18.416C198.386 18.096 198.93 17.936 199.548 17.936C200.146 17.936 200.626 18.0587 200.988 18.304C201.362 18.5493 201.65 18.896 201.852 19.344H201.948V18.096H204.78V25.6C204.78 26.3893 204.588 27.0453 204.204 27.568C203.831 28.1013 203.308 28.496 202.636 28.752C201.975 29.0187 201.223 29.152 200.38 29.152ZM200.636 23.2C200.924 23.2 201.148 23.1253 201.308 22.976C201.479 22.8267 201.602 22.64 201.676 22.416C201.751 22.1813 201.788 21.9467 201.788 21.712C201.788 21.4773 201.751 21.248 201.676 21.024C201.602 20.7893 201.479 20.5973 201.308 20.448C201.148 20.2987 200.924 20.224 200.636 20.224C200.37 20.224 200.151 20.2987 199.98 20.448C199.82 20.5973 199.703 20.7893 199.628 21.024C199.554 21.248 199.516 21.4773 199.516 21.712C199.516 21.9467 199.554 22.1813 199.628 22.416C199.703 22.64 199.82 22.8267 199.98 22.976C200.151 23.1253 200.37 23.2 200.636 23.2Z" fill="black" fill-opacity="0.76"/>
<path d="M324.802 12.8066L319.001 18.6079L313.2 12.8066L311.809 14.1979L317.61 19.9992L311.809 25.8005L313.2 27.1917L319.001 21.3904L324.802 27.1917L326.194 25.8005L320.392 19.9992L326.194 14.1979L324.802 12.8066Z" fill="black" fill-opacity="0.76"/>
<path d="M13.288 45.9H14.618L18.972 53.334H19.056V45.9H20.134V55H18.804L14.45 47.552H14.366V55H13.288V45.9ZM25.3119 55.168C24.8173 55.168 24.3646 55.084 23.9539 54.916C23.5526 54.748 23.2073 54.51 22.9179 54.202C22.6379 53.8847 22.4186 53.502 22.2599 53.054C22.1106 52.606 22.0359 52.102 22.0359 51.542C22.0359 50.954 22.1153 50.436 22.2739 49.988C22.4326 49.5307 22.6519 49.1527 22.9319 48.854C23.2119 48.546 23.5433 48.3127 23.9259 48.154C24.3179 47.9953 24.7473 47.916 25.2139 47.916C25.6806 47.916 26.1099 47.9907 26.5019 48.14C26.8939 48.2893 27.2299 48.5133 27.5099 48.812C27.7899 49.1013 28.0093 49.47 28.1679 49.918C28.3266 50.3567 28.4059 50.87 28.4059 51.458C28.4059 51.5327 28.4013 51.6073 28.3919 51.682C28.3919 51.7567 28.3873 51.8173 28.3779 51.864H23.1559C23.1559 52.1907 23.2119 52.4987 23.3239 52.788C23.4453 53.068 23.6039 53.3153 23.7999 53.53C24.0053 53.7353 24.2386 53.8987 24.4999 54.02C24.7706 54.1413 25.0599 54.202 25.3679 54.202C25.8719 54.202 26.2826 54.104 26.5999 53.908C26.9266 53.712 27.1973 53.474 27.4119 53.194L28.0839 53.88C27.7853 54.272 27.4119 54.5847 26.9639 54.818C26.5253 55.0513 25.9746 55.168 25.3119 55.168ZM25.2139 48.84C24.8873 48.84 24.5979 48.9007 24.3459 49.022C24.0939 49.1433 23.8839 49.302 23.7159 49.498C23.5479 49.694 23.4173 49.918 23.3239 50.17C23.2399 50.422 23.1933 50.674 23.1839 50.926H27.2299C27.2206 50.674 27.1693 50.422 27.0759 50.17C26.9919 49.918 26.8659 49.694 26.6979 49.498C26.5299 49.302 26.3199 49.1433 26.0679 49.022C25.8253 48.9007 25.5406 48.84 25.2139 48.84ZM29.2628 48.084H30.4668L32.2168 53.838H32.3008L33.9248 48.084H35.2548L36.8788 53.838H36.9628L38.7128 48.084H39.8328L37.4808 55H36.2208L34.5968 49.274H34.5128L32.9028 55H31.6148L29.2628 48.084ZM44.7584 48.084H45.8224V49.498H45.9064C45.9904 49.2647 46.107 49.05 46.2564 48.854C46.415 48.658 46.597 48.49 46.8024 48.35C47.017 48.21 47.2504 48.1027 47.5024 48.028C47.7637 47.9533 48.0344 47.916 48.3144 47.916C48.7717 47.916 49.187 48.0093 49.5604 48.196C49.943 48.3733 50.2697 48.6253 50.5404 48.952C50.811 49.2693 51.0164 49.652 51.1564 50.1C51.3057 50.548 51.3804 51.0333 51.3804 51.556C51.3804 52.0787 51.3057 52.564 51.1564 53.012C51.0164 53.4507 50.811 53.8333 50.5404 54.16C50.2697 54.4773 49.943 54.7247 49.5604 54.902C49.187 55.0793 48.7717 55.168 48.3144 55.168C47.745 55.168 47.255 55.0327 46.8444 54.762C46.4337 54.4913 46.1397 54.146 45.9624 53.726H45.8784V57.59H44.7584V48.084ZM48.0344 54.16C48.3424 54.16 48.627 54.1087 48.8884 54.006C49.159 53.894 49.3924 53.7307 49.5884 53.516C49.7937 53.292 49.9524 53.0167 50.0644 52.69C50.1764 52.3633 50.2324 51.9807 50.2324 51.542C50.2324 51.1033 50.1764 50.7207 50.0644 50.394C49.9524 50.0673 49.7937 49.7967 49.5884 49.582C49.3924 49.358 49.159 49.1947 48.8884 49.092C48.627 48.98 48.3424 48.924 48.0344 48.924C47.7357 48.924 47.4557 48.98 47.1944 49.092C46.933 49.1947 46.7044 49.358 46.5084 49.582C46.3124 49.7967 46.1584 50.0673 46.0464 50.394C45.9344 50.7207 45.8784 51.1033 45.8784 51.542C45.8784 51.9807 45.9344 52.3633 46.0464 52.69C46.1584 53.0167 46.3124 53.292 46.5084 53.516C46.7044 53.7307 46.933 53.894 47.1944 54.006C47.4557 54.1087 47.7357 54.16 48.0344 54.16ZM55.9102 55.168C55.3596 55.168 54.8742 55.0747 54.4542 54.888C54.0436 54.692 53.6982 54.4307 53.4182 54.104C53.1476 53.7773 52.9422 53.3947 52.8022 52.956C52.6716 52.5173 52.6062 52.046 52.6062 51.542C52.6062 51.038 52.6716 50.5667 52.8022 50.128C52.9422 49.6893 53.1476 49.3067 53.4182 48.98C53.6982 48.6533 54.0436 48.3967 54.4542 48.21C54.8742 48.014 55.3596 47.916 55.9102 47.916C56.4609 47.916 56.9369 48.014 57.3382 48.21C57.7489 48.3967 58.0896 48.6533 58.3602 48.98C58.6309 49.3067 58.8316 49.6893 58.9622 50.128C59.1022 50.5667 59.1722 51.038 59.1722 51.542C59.1722 52.046 59.1022 52.5173 58.9622 52.956C58.8316 53.3947 58.6309 53.7773 58.3602 54.104C58.0896 54.4307 57.7489 54.692 57.3382 54.888C56.9369 55.0747 56.4609 55.168 55.9102 55.168ZM53.7542 51.542C53.7542 51.9433 53.7962 52.312 53.8802 52.648C53.9736 52.9747 54.1089 53.2593 54.2862 53.502C54.4636 53.7353 54.6876 53.9173 54.9582 54.048C55.2289 54.1787 55.5462 54.244 55.9102 54.244C56.2649 54.244 56.5729 54.1787 56.8342 54.048C57.1049 53.9173 57.3242 53.7353 57.4922 53.502C57.6696 53.2593 57.8002 52.9747 57.8842 52.648C57.9776 52.312 58.0242 51.9433 58.0242 51.542C58.0242 51.1407 57.9776 50.7767 57.8842 50.45C57.8002 50.114 57.6696 49.8293 57.4922 49.596C57.3242 49.3533 57.1049 49.1667 56.8342 49.036C56.5729 48.9053 56.2649 48.84 55.9102 48.84C55.5462 48.84 55.2289 48.9053 54.9582 49.036C54.6876 49.1667 54.4636 49.3533 54.2862 49.596C54.1089 49.8293 53.9736 50.114 53.8802 50.45C53.7962 50.7767 53.7542 51.1407 53.7542 51.542ZM60.9732 48.084H62.0372V49.204H62.1212C62.2705 48.84 62.4852 48.5367 62.7652 48.294C63.0452 48.042 63.3952 47.916 63.8152 47.916C64.1699 47.916 64.4825 47.986 64.7532 48.126L64.3752 49.134C64.2539 49.0687 64.1232 49.0267 63.9832 49.008C63.8525 48.98 63.7172 48.966 63.5772 48.966C63.1199 48.966 62.7559 49.1527 62.4852 49.526C62.2239 49.89 62.0932 50.3567 62.0932 50.926V55H60.9732V48.084ZM68.3239 55.168C67.6985 55.168 67.2412 54.9813 66.9519 54.608C66.6625 54.2347 66.5179 53.7213 66.5179 53.068V48.994H65.2859V48.084H66.5179V46.208H67.6239V48.084H69.6259V48.994H67.6239V52.97C67.6239 53.418 67.7079 53.7307 67.8759 53.908C68.0532 54.0853 68.2772 54.174 68.5479 54.174C68.7345 54.174 68.9025 54.1413 69.0519 54.076C69.2012 54.0013 69.3412 53.9033 69.4719 53.782L69.9759 54.566C69.5465 54.9673 68.9959 55.168 68.3239 55.168ZM73.0265 55.168C72.7092 55.168 72.4152 55.1167 72.1445 55.014C71.8832 54.9113 71.6545 54.7667 71.4585 54.58C71.2625 54.3933 71.1085 54.174 70.9965 53.922C70.8939 53.6607 70.8425 53.376 70.8425 53.068C70.8425 52.4707 71.0572 51.99 71.4865 51.626C71.9159 51.262 72.5272 51.0567 73.3205 51.01L75.1405 50.898V50.408C75.1405 49.876 75.0099 49.4933 74.7485 49.26C74.4965 49.0173 74.1325 48.896 73.6565 48.896C73.2552 48.896 72.9099 48.9707 72.6205 49.12C72.3312 49.2693 72.1072 49.4327 71.9485 49.61L71.2765 48.938C71.5192 48.6393 71.8459 48.3967 72.2565 48.21C72.6765 48.014 73.1525 47.916 73.6845 47.916C74.1605 47.916 74.5619 47.9813 74.8885 48.112C75.2152 48.2333 75.4765 48.4013 75.6725 48.616C75.8779 48.8307 76.0225 49.0827 76.1065 49.372C76.1999 49.6613 76.2465 49.9693 76.2465 50.296V55H75.1965V53.824H75.1125C74.9259 54.244 74.6645 54.5753 74.3285 54.818C73.9925 55.0513 73.5585 55.168 73.0265 55.168ZM73.1945 54.216C73.7732 54.216 74.2399 54.048 74.5945 53.712C74.9585 53.3667 75.1405 52.9093 75.1405 52.34V51.738L73.3765 51.864C72.4432 51.9387 71.9765 52.3307 71.9765 53.04C71.9765 53.3947 72.0885 53.6793 72.3125 53.894C72.5459 54.1087 72.8399 54.216 73.1945 54.216ZM78.5005 44.85H79.6205V55H78.5005V44.85ZM85.7138 48.994H84.4818V48.084H85.7138V46.866C85.7138 46.194 85.8818 45.662 86.2178 45.27C86.5632 44.878 87.0718 44.682 87.7438 44.682C87.9118 44.682 88.0845 44.7007 88.2618 44.738C88.4392 44.766 88.5932 44.8127 88.7238 44.878L88.3458 45.76C88.2805 45.7227 88.1918 45.6947 88.0798 45.676C87.9678 45.648 87.8698 45.634 87.7858 45.634C87.4872 45.634 87.2538 45.7367 87.0858 45.942C86.9178 46.1473 86.8338 46.46 86.8338 46.88V48.084H88.6818V48.994H86.8338V55H85.7138V48.994ZM92.6733 55.168C92.1786 55.168 91.7259 55.084 91.3153 54.916C90.9139 54.748 90.5686 54.51 90.2793 54.202C89.9993 53.8847 89.7799 53.502 89.6213 53.054C89.4719 52.606 89.3973 52.102 89.3973 51.542C89.3973 50.954 89.4766 50.436 89.6353 49.988C89.7939 49.5307 90.0133 49.1527 90.2933 48.854C90.5733 48.546 90.9046 48.3127 91.2873 48.154C91.6793 47.9953 92.1086 47.916 92.5753 47.916C93.0419 47.916 93.4713 47.9907 93.8633 48.14C94.2553 48.2893 94.5913 48.5133 94.8713 48.812C95.1513 49.1013 95.3706 49.47 95.5293 49.918C95.6879 50.3567 95.7673 50.87 95.7673 51.458C95.7673 51.5327 95.7626 51.6073 95.7533 51.682C95.7533 51.7567 95.7486 51.8173 95.7393 51.864H90.5173C90.5173 52.1907 90.5733 52.4987 90.6853 52.788C90.8066 53.068 90.9653 53.3153 91.1613 53.53C91.3666 53.7353 91.5999 53.8987 91.8613 54.02C92.1319 54.1413 92.4213 54.202 92.7293 54.202C93.2333 54.202 93.6439 54.104 93.9613 53.908C94.2879 53.712 94.5586 53.474 94.7733 53.194L95.4453 53.88C95.1466 54.272 94.7733 54.5847 94.3253 54.818C93.8866 55.0513 93.3359 55.168 92.6733 55.168ZM92.5753 48.84C92.2486 48.84 91.9593 48.9007 91.7073 49.022C91.4553 49.1433 91.2453 49.302 91.0773 49.498C90.9093 49.694 90.7786 49.918 90.6853 50.17C90.6013 50.422 90.5546 50.674 90.5453 50.926H94.5913C94.5819 50.674 94.5306 50.422 94.4373 50.17C94.3533 49.918 94.2273 49.694 94.0593 49.498C93.8913 49.302 93.6813 49.1433 93.4293 49.022C93.1866 48.9007 92.9019 48.84 92.5753 48.84ZM99.0988 55.168C98.7815 55.168 98.4875 55.1167 98.2168 55.014C97.9555 54.9113 97.7268 54.7667 97.5308 54.58C97.3348 54.3933 97.1808 54.174 97.0688 53.922C96.9661 53.6607 96.9148 53.376 96.9148 53.068C96.9148 52.4707 97.1295 51.99 97.5588 51.626C97.9881 51.262 98.5995 51.0567 99.3928 51.01L101.213 50.898V50.408C101.213 49.876 101.082 49.4933 100.821 49.26C100.569 49.0173 100.205 48.896 99.7288 48.896C99.3275 48.896 98.9821 48.9707 98.6928 49.12C98.4035 49.2693 98.1795 49.4327 98.0208 49.61L97.3488 48.938C97.5915 48.6393 97.9181 48.3967 98.3288 48.21C98.7488 48.014 99.2248 47.916 99.7568 47.916C100.233 47.916 100.634 47.9813 100.961 48.112C101.287 48.2333 101.549 48.4013 101.745 48.616C101.95 48.8307 102.095 49.0827 102.179 49.372C102.272 49.6613 102.319 49.9693 102.319 50.296V55H101.269V53.824H101.185C100.998 54.244 100.737 54.5753 100.401 54.818C100.065 55.0513 99.6308 55.168 99.0988 55.168ZM99.2668 54.216C99.8455 54.216 100.312 54.048 100.667 53.712C101.031 53.3667 101.213 52.9093 101.213 52.34V51.738L99.4488 51.864C98.5155 51.9387 98.0488 52.3307 98.0488 53.04C98.0488 53.3947 98.1608 53.6793 98.3848 53.894C98.6181 54.1087 98.9121 54.216 99.2668 54.216ZM106.701 55.168C106.075 55.168 105.618 54.9813 105.329 54.608C105.039 54.2347 104.895 53.7213 104.895 53.068V48.994H103.663V48.084H104.895V46.208H106.001V48.084H108.003V48.994H106.001V52.97C106.001 53.418 106.085 53.7307 106.253 53.908C106.43 54.0853 106.654 54.174 106.925 54.174C107.111 54.174 107.279 54.1413 107.429 54.076C107.578 54.0013 107.718 53.9033 107.849 53.782L108.353 54.566C107.923 54.9673 107.373 55.168 106.701 55.168ZM112.258 55.168C111.875 55.168 111.53 55.1167 111.222 55.014C110.914 54.9113 110.648 54.7527 110.424 54.538C110.209 54.3233 110.041 54.048 109.92 53.712C109.798 53.376 109.738 52.9747 109.738 52.508V48.084H110.858V52.298C110.858 53.0073 110.993 53.5113 111.264 53.81C111.544 54.0993 111.95 54.244 112.482 54.244C112.986 54.244 113.382 54.062 113.672 53.698C113.97 53.334 114.12 52.802 114.12 52.102V48.084H115.24V55H114.176V53.908H114.092C113.924 54.272 113.69 54.5753 113.392 54.818C113.102 55.0513 112.724 55.168 112.258 55.168ZM117.616 48.084H118.68V49.204H118.764C118.913 48.84 119.128 48.5367 119.408 48.294C119.688 48.042 120.038 47.916 120.458 47.916C120.812 47.916 121.125 47.986 121.396 48.126L121.018 49.134C120.896 49.0687 120.766 49.0267 120.626 49.008C120.495 48.98 120.36 48.966 120.22 48.966C119.762 48.966 119.398 49.1527 119.128 49.526C118.866 49.89 118.736 50.3567 118.736 50.926V55H117.616V48.084ZM125.199 55.168C124.704 55.168 124.251 55.084 123.841 54.916C123.439 54.748 123.094 54.51 122.805 54.202C122.525 53.8847 122.305 53.502 122.147 53.054C121.997 52.606 121.923 52.102 121.923 51.542C121.923 50.954 122.002 50.436 122.161 49.988C122.319 49.5307 122.539 49.1527 122.819 48.854C123.099 48.546 123.43 48.3127 123.813 48.154C124.205 47.9953 124.634 47.916 125.101 47.916C125.567 47.916 125.997 47.9907 126.389 48.14C126.781 48.2893 127.117 48.5133 127.397 48.812C127.677 49.1013 127.896 49.47 128.055 49.918C128.213 50.3567 128.293 50.87 128.293 51.458C128.293 51.5327 128.288 51.6073 128.279 51.682C128.279 51.7567 128.274 51.8173 128.265 51.864H123.043C123.043 52.1907 123.099 52.4987 123.211 52.788C123.332 53.068 123.491 53.3153 123.687 53.53C123.892 53.7353 124.125 53.8987 124.387 54.02C124.657 54.1413 124.947 54.202 125.255 54.202C125.759 54.202 126.169 54.104 126.487 53.908C126.813 53.712 127.084 53.474 127.299 53.194L127.971 53.88C127.672 54.272 127.299 54.5847 126.851 54.818C126.412 55.0513 125.861 55.168 125.199 55.168ZM125.101 48.84C124.774 48.84 124.485 48.9007 124.233 49.022C123.981 49.1433 123.771 49.302 123.603 49.498C123.435 49.694 123.304 49.918 123.211 50.17C123.127 50.422 123.08 50.674 123.071 50.926H127.117C127.107 50.674 127.056 50.422 126.963 50.17C126.879 49.918 126.753 49.694 126.585 49.498C126.417 49.302 126.207 49.1433 125.955 49.022C125.712 48.9007 125.427 48.84 125.101 48.84ZM133.43 53.208C133.43 53.0027 133.384 52.8347 133.29 52.704C133.197 52.564 133.066 52.4473 132.898 52.354C132.74 52.2607 132.558 52.1813 132.352 52.116C132.147 52.0507 131.932 51.9853 131.708 51.92C131.447 51.8453 131.195 51.7567 130.952 51.654C130.719 51.5513 130.509 51.4253 130.322 51.276C130.136 51.1173 129.986 50.9307 129.874 50.716C129.762 50.5013 129.706 50.24 129.706 49.932C129.706 49.6053 129.767 49.316 129.888 49.064C130.01 48.812 130.178 48.602 130.392 48.434C130.607 48.266 130.859 48.14 131.148 48.056C131.438 47.9627 131.75 47.916 132.086 47.916C132.59 47.916 133.052 48.0093 133.472 48.196C133.892 48.3733 134.238 48.6533 134.508 49.036L133.78 49.708C133.575 49.4653 133.332 49.2647 133.052 49.106C132.782 48.9473 132.46 48.868 132.086 48.868C131.928 48.868 131.769 48.8867 131.61 48.924C131.461 48.9613 131.326 49.022 131.204 49.106C131.083 49.1807 130.985 49.2787 130.91 49.4C130.836 49.5213 130.798 49.666 130.798 49.834C130.798 50.0393 130.845 50.212 130.938 50.352C131.032 50.4827 131.158 50.5947 131.316 50.688C131.484 50.7813 131.671 50.8607 131.876 50.926C132.082 50.9913 132.296 51.0567 132.52 51.122C132.782 51.1967 133.029 51.2853 133.262 51.388C133.505 51.4907 133.72 51.6213 133.906 51.78C134.093 51.9293 134.242 52.1113 134.354 52.326C134.466 52.5407 134.522 52.802 134.522 53.11C134.522 53.474 134.452 53.7867 134.312 54.048C134.182 54.3 134 54.51 133.766 54.678C133.533 54.846 133.262 54.9673 132.954 55.042C132.646 55.126 132.32 55.168 131.974 55.168C131.368 55.168 130.85 55.0653 130.42 54.86C130 54.6547 129.669 54.3887 129.426 54.062L130.168 53.362C130.383 53.614 130.63 53.8193 130.91 53.978C131.2 54.1367 131.559 54.216 131.988 54.216C132.184 54.216 132.366 54.1973 132.534 54.16C132.712 54.1227 132.866 54.062 132.996 53.978C133.127 53.894 133.23 53.7913 133.304 53.67C133.388 53.5393 133.43 53.3853 133.43 53.208ZM139.819 48.084H140.883V49.176H140.967C141.135 48.812 141.368 48.5133 141.667 48.28C141.975 48.0373 142.358 47.916 142.815 47.916C143.366 47.916 143.828 48.0187 144.201 48.224C144.584 48.42 144.868 48.7187 145.055 49.12C145.26 48.728 145.536 48.4293 145.881 48.224C146.226 48.0187 146.665 47.916 147.197 47.916C147.58 47.916 147.925 47.9673 148.233 48.07C148.541 48.1727 148.802 48.3313 149.017 48.546C149.241 48.7607 149.409 49.036 149.521 49.372C149.642 49.708 149.703 50.1093 149.703 50.576V55H148.583V50.786C148.583 50.0767 148.443 49.5773 148.163 49.288C147.892 48.9893 147.491 48.84 146.959 48.84C146.446 48.84 146.044 49.022 145.755 49.386C145.466 49.75 145.321 50.282 145.321 50.982V55H144.201V50.786C144.201 50.0767 144.061 49.5773 143.781 49.288C143.51 48.9893 143.109 48.84 142.577 48.84C142.073 48.84 141.672 49.022 141.373 49.386C141.084 49.75 140.939 50.282 140.939 50.982V55H139.819V48.084ZM154.662 55.168C154.167 55.168 153.714 55.084 153.304 54.916C152.902 54.748 152.557 54.51 152.268 54.202C151.988 53.8847 151.768 53.502 151.61 53.054C151.46 52.606 151.386 52.102 151.386 51.542C151.386 50.954 151.465 50.436 151.624 49.988C151.782 49.5307 152.002 49.1527 152.282 48.854C152.562 48.546 152.893 48.3127 153.276 48.154C153.668 47.9953 154.097 47.916 154.564 47.916C155.03 47.916 155.46 47.9907 155.852 48.14C156.244 48.2893 156.58 48.5133 156.86 48.812C157.14 49.1013 157.359 49.47 157.518 49.918C157.676 50.3567 157.756 50.87 157.756 51.458C157.756 51.5327 157.751 51.6073 157.742 51.682C157.742 51.7567 157.737 51.8173 157.728 51.864H152.506C152.506 52.1907 152.562 52.4987 152.674 52.788C152.795 53.068 152.954 53.3153 153.15 53.53C153.355 53.7353 153.588 53.8987 153.85 54.02C154.12 54.1413 154.41 54.202 154.718 54.202C155.222 54.202 155.632 54.104 155.95 53.908C156.276 53.712 156.547 53.474 156.762 53.194L157.434 53.88C157.135 54.272 156.762 54.5847 156.314 54.818C155.875 55.0513 155.324 55.168 154.662 55.168ZM154.564 48.84C154.237 48.84 153.948 48.9007 153.696 49.022C153.444 49.1433 153.234 49.302 153.066 49.498C152.898 49.694 152.767 49.918 152.674 50.17C152.59 50.422 152.543 50.674 152.534 50.926H156.58C156.57 50.674 156.519 50.422 156.426 50.17C156.342 49.918 156.216 49.694 156.048 49.498C155.88 49.302 155.67 49.1433 155.418 49.022C155.175 48.9007 154.89 48.84 154.564 48.84ZM161.087 55.168C160.77 55.168 160.476 55.1167 160.205 55.014C159.944 54.9113 159.715 54.7667 159.519 54.58C159.323 54.3933 159.169 54.174 159.057 53.922C158.954 53.6607 158.903 53.376 158.903 53.068C158.903 52.4707 159.118 51.99 159.547 51.626C159.976 51.262 160.588 51.0567 161.381 51.01L163.201 50.898V50.408C163.201 49.876 163.07 49.4933 162.809 49.26C162.557 49.0173 162.193 48.896 161.717 48.896C161.316 48.896 160.97 48.9707 160.681 49.12C160.392 49.2693 160.168 49.4327 160.009 49.61L159.337 48.938C159.58 48.6393 159.906 48.3967 160.317 48.21C160.737 48.014 161.213 47.916 161.745 47.916C162.221 47.916 162.622 47.9813 162.949 48.112C163.276 48.2333 163.537 48.4013 163.733 48.616C163.938 48.8307 164.083 49.0827 164.167 49.372C164.26 49.6613 164.307 49.9693 164.307 50.296V55H163.257V53.824H163.173C162.986 54.244 162.725 54.5753 162.389 54.818C162.053 55.0513 161.619 55.168 161.087 55.168ZM161.255 54.216C161.834 54.216 162.3 54.048 162.655 53.712C163.019 53.3667 163.201 52.9093 163.201 52.34V51.738L161.437 51.864C160.504 51.9387 160.037 52.3307 160.037 53.04C160.037 53.3947 160.149 53.6793 160.373 53.894C160.606 54.1087 160.9 54.216 161.255 54.216ZM166.561 48.084H167.625V49.176H167.709C167.877 48.812 168.115 48.5133 168.423 48.28C168.731 48.0373 169.123 47.916 169.599 47.916C170.392 47.916 171.018 48.126 171.475 48.546C171.942 48.966 172.175 49.6427 172.175 50.576V55H171.055V50.786C171.055 50.0767 170.91 49.5773 170.621 49.288C170.341 48.9893 169.926 48.84 169.375 48.84C168.843 48.84 168.428 49.022 168.129 49.386C167.83 49.75 167.681 50.282 167.681 50.982V55H166.561V48.084ZM177.786 48.084H178.85V49.176H178.934C179.102 48.812 179.335 48.5133 179.634 48.28C179.942 48.0373 180.324 47.916 180.782 47.916C181.332 47.916 181.794 48.0187 182.168 48.224C182.55 48.42 182.835 48.7187 183.022 49.12C183.227 48.728 183.502 48.4293 183.848 48.224C184.193 48.0187 184.632 47.916 185.164 47.916C185.546 47.916 185.892 47.9673 186.2 48.07C186.508 48.1727 186.769 48.3313 186.984 48.546C187.208 48.7607 187.376 49.036 187.488 49.372C187.609 49.708 187.67 50.1093 187.67 50.576V55H186.55V50.786C186.55 50.0767 186.41 49.5773 186.13 49.288C185.859 48.9893 185.458 48.84 184.926 48.84C184.412 48.84 184.011 49.022 183.722 49.386C183.432 49.75 183.288 50.282 183.288 50.982V55H182.168V50.786C182.168 50.0767 182.028 49.5773 181.748 49.288C181.477 48.9893 181.076 48.84 180.544 48.84C180.04 48.84 179.638 49.022 179.34 49.386C179.05 49.75 178.906 50.282 178.906 50.982V55H177.786V48.084ZM192.656 55.168C192.106 55.168 191.62 55.0747 191.2 54.888C190.79 54.692 190.444 54.4307 190.164 54.104C189.894 53.7773 189.688 53.3947 189.548 52.956C189.418 52.5173 189.352 52.046 189.352 51.542C189.352 51.038 189.418 50.5667 189.548 50.128C189.688 49.6893 189.894 49.3067 190.164 48.98C190.444 48.6533 190.79 48.3967 191.2 48.21C191.62 48.014 192.106 47.916 192.656 47.916C193.207 47.916 193.683 48.014 194.084 48.21C194.495 48.3967 194.836 48.6533 195.106 48.98C195.377 49.3067 195.578 49.6893 195.708 50.128C195.848 50.5667 195.918 51.038 195.918 51.542C195.918 52.046 195.848 52.5173 195.708 52.956C195.578 53.3947 195.377 53.7773 195.106 54.104C194.836 54.4307 194.495 54.692 194.084 54.888C193.683 55.0747 193.207 55.168 192.656 55.168ZM190.5 51.542C190.5 51.9433 190.542 52.312 190.626 52.648C190.72 52.9747 190.855 53.2593 191.032 53.502C191.21 53.7353 191.434 53.9173 191.704 54.048C191.975 54.1787 192.292 54.244 192.656 54.244C193.011 54.244 193.319 54.1787 193.58 54.048C193.851 53.9173 194.07 53.7353 194.238 53.502C194.416 53.2593 194.546 52.9747 194.63 52.648C194.724 52.312 194.77 51.9433 194.77 51.542C194.77 51.1407 194.724 50.7767 194.63 50.45C194.546 50.114 194.416 49.8293 194.238 49.596C194.07 49.3533 193.851 49.1667 193.58 49.036C193.319 48.9053 193.011 48.84 192.656 48.84C192.292 48.84 191.975 48.9053 191.704 49.036C191.434 49.1667 191.21 49.3533 191.032 49.596C190.855 49.8293 190.72 50.114 190.626 50.45C190.542 50.7767 190.5 51.1407 190.5 51.542ZM197.719 48.084H198.783V49.204H198.867C199.017 48.84 199.231 48.5367 199.511 48.294C199.791 48.042 200.141 47.916 200.561 47.916C200.916 47.916 201.229 47.986 201.499 48.126L201.121 49.134C201 49.0687 200.869 49.0267 200.729 49.008C200.599 48.98 200.463 48.966 200.323 48.966C199.866 48.966 199.502 49.1527 199.231 49.526C198.97 49.89 198.839 50.3567 198.839 50.926V55H197.719V48.084ZM205.302 55.168C204.807 55.168 204.355 55.084 203.944 54.916C203.543 54.748 203.197 54.51 202.908 54.202C202.628 53.8847 202.409 53.502 202.25 53.054C202.101 52.606 202.026 52.102 202.026 51.542C202.026 50.954 202.105 50.436 202.264 49.988C202.423 49.5307 202.642 49.1527 202.922 48.854C203.202 48.546 203.533 48.3127 203.916 48.154C204.308 47.9953 204.737 47.916 205.204 47.916C205.671 47.916 206.1 47.9907 206.492 48.14C206.884 48.2893 207.22 48.5133 207.5 48.812C207.78 49.1013 207.999 49.47 208.158 49.918C208.317 50.3567 208.396 50.87 208.396 51.458C208.396 51.5327 208.391 51.6073 208.382 51.682C208.382 51.7567 208.377 51.8173 208.368 51.864H203.146C203.146 52.1907 203.202 52.4987 203.314 52.788C203.435 53.068 203.594 53.3153 203.79 53.53C203.995 53.7353 204.229 53.8987 204.49 54.02C204.761 54.1413 205.05 54.202 205.358 54.202C205.862 54.202 206.273 54.104 206.59 53.908C206.917 53.712 207.187 53.474 207.402 53.194L208.074 53.88C207.775 54.272 207.402 54.5847 206.954 54.818C206.515 55.0513 205.965 55.168 205.302 55.168ZM205.204 48.84C204.877 48.84 204.588 48.9007 204.336 49.022C204.084 49.1433 203.874 49.302 203.706 49.498C203.538 49.694 203.407 49.918 203.314 50.17C203.23 50.422 203.183 50.674 203.174 50.926H207.22C207.211 50.674 207.159 50.422 207.066 50.17C206.982 49.918 206.856 49.694 206.688 49.498C206.52 49.302 206.31 49.1433 206.058 49.022C205.815 48.9007 205.531 48.84 205.204 48.84ZM212.655 48.084H213.873L215.959 53.852H216.043L218.143 48.084H219.277L216.589 55H215.329L212.655 48.084ZM222.045 46.25C222.045 46.446 221.975 46.614 221.835 46.754C221.704 46.894 221.527 46.964 221.303 46.964C221.069 46.964 220.887 46.894 220.757 46.754C220.626 46.614 220.561 46.446 220.561 46.25C220.561 46.0633 220.626 45.9 220.757 45.76C220.887 45.6107 221.069 45.536 221.303 45.536C221.527 45.536 221.704 45.6107 221.835 45.76C221.975 45.9 222.045 46.0633 222.045 46.25ZM220.743 48.084H221.863V55H220.743V48.084ZM227.575 53.208C227.575 53.0027 227.528 52.8347 227.435 52.704C227.341 52.564 227.211 52.4473 227.043 52.354C226.884 52.2607 226.702 52.1813 226.497 52.116C226.291 52.0507 226.077 51.9853 225.853 51.92C225.591 51.8453 225.339 51.7567 225.097 51.654C224.863 51.5513 224.653 51.4253 224.467 51.276C224.28 51.1173 224.131 50.9307 224.019 50.716C223.907 50.5013 223.851 50.24 223.851 49.932C223.851 49.6053 223.911 49.316 224.033 49.064C224.154 48.812 224.322 48.602 224.537 48.434C224.751 48.266 225.003 48.14 225.293 48.056C225.582 47.9627 225.895 47.916 226.231 47.916C226.735 47.916 227.197 48.0093 227.617 48.196C228.037 48.3733 228.382 48.6533 228.653 49.036L227.925 49.708C227.719 49.4653 227.477 49.2647 227.197 49.106C226.926 48.9473 226.604 48.868 226.231 48.868C226.072 48.868 225.913 48.8867 225.755 48.924C225.605 48.9613 225.47 49.022 225.349 49.106C225.227 49.1807 225.129 49.2787 225.055 49.4C224.98 49.5213 224.943 49.666 224.943 49.834C224.943 50.0393 224.989 50.212 225.083 50.352C225.176 50.4827 225.302 50.5947 225.461 50.688C225.629 50.7813 225.815 50.8607 226.021 50.926C226.226 50.9913 226.441 51.0567 226.665 51.122C226.926 51.1967 227.173 51.2853 227.407 51.388C227.649 51.4907 227.864 51.6213 228.051 51.78C228.237 51.9293 228.387 52.1113 228.499 52.326C228.611 52.5407 228.667 52.802 228.667 53.11C228.667 53.474 228.597 53.7867 228.457 54.048C228.326 54.3 228.144 54.51 227.911 54.678C227.677 54.846 227.407 54.9673 227.099 55.042C226.791 55.126 226.464 55.168 226.119 55.168C225.512 55.168 224.994 55.0653 224.565 54.86C224.145 54.6547 223.813 54.3887 223.571 54.062L224.313 53.362C224.527 53.614 224.775 53.8193 225.055 53.978C225.344 54.1367 225.703 54.216 226.133 54.216C226.329 54.216 226.511 54.1973 226.679 54.16C226.856 54.1227 227.01 54.062 227.141 53.978C227.271 53.894 227.374 53.7913 227.449 53.67C227.533 53.5393 227.575 53.3853 227.575 53.208ZM231.902 46.25C231.902 46.446 231.832 46.614 231.692 46.754C231.561 46.894 231.384 46.964 231.16 46.964C230.927 46.964 230.745 46.894 230.614 46.754C230.483 46.614 230.418 46.446 230.418 46.25C230.418 46.0633 230.483 45.9 230.614 45.76C230.745 45.6107 230.927 45.536 231.16 45.536C231.384 45.536 231.561 45.6107 231.692 45.76C231.832 45.9 231.902 46.0633 231.902 46.25ZM230.6 48.084H231.72V55H230.6V48.084ZM237.656 55.168C237.376 55.168 237.105 55.1307 236.844 55.056C236.592 54.9813 236.359 54.874 236.144 54.734C235.939 54.594 235.757 54.4307 235.598 54.244C235.449 54.048 235.332 53.8287 235.248 53.586H235.164V55H234.1V44.85H235.22V49.358H235.304C235.481 48.938 235.775 48.5927 236.186 48.322C236.597 48.0513 237.087 47.916 237.656 47.916C238.113 47.916 238.529 48.0047 238.902 48.182C239.285 48.3593 239.611 48.6113 239.882 48.938C240.153 49.2553 240.358 49.638 240.498 50.086C240.647 50.5247 240.722 51.0053 240.722 51.528C240.722 52.0507 240.647 52.536 240.498 52.984C240.358 53.432 240.153 53.8193 239.882 54.146C239.611 54.4633 239.285 54.7153 238.902 54.902C238.529 55.0793 238.113 55.168 237.656 55.168ZM237.376 54.16C237.684 54.16 237.969 54.1087 238.23 54.006C238.501 53.894 238.734 53.7307 238.93 53.516C239.135 53.292 239.294 53.0167 239.406 52.69C239.518 52.3633 239.574 51.9807 239.574 51.542C239.574 51.1033 239.518 50.7207 239.406 50.394C239.294 50.0673 239.135 49.7967 238.93 49.582C238.734 49.358 238.501 49.1947 238.23 49.092C237.969 48.98 237.684 48.924 237.376 48.924C237.077 48.924 236.797 48.98 236.536 49.092C236.275 49.1947 236.046 49.358 235.85 49.582C235.654 49.7967 235.5 50.0673 235.388 50.394C235.276 50.7207 235.22 51.1033 235.22 51.542C235.22 51.9807 235.276 52.3633 235.388 52.69C235.5 53.0167 235.654 53.292 235.85 53.516C236.046 53.7307 236.275 53.894 236.536 54.006C236.797 54.1087 237.077 54.16 237.376 54.16ZM243.824 46.25C243.824 46.446 243.754 46.614 243.614 46.754C243.483 46.894 243.306 46.964 243.082 46.964C242.849 46.964 242.667 46.894 242.536 46.754C242.405 46.614 242.34 46.446 242.34 46.25C242.34 46.0633 242.405 45.9 242.536 45.76C242.667 45.6107 242.849 45.536 243.082 45.536C243.306 45.536 243.483 45.6107 243.614 45.76C243.754 45.9 243.824 46.0633 243.824 46.25ZM242.522 48.084H243.642V55H242.522V48.084ZM246.022 44.85H247.142V55H246.022V44.85ZM250.824 46.25C250.824 46.446 250.754 46.614 250.614 46.754C250.483 46.894 250.306 46.964 250.082 46.964C249.849 46.964 249.667 46.894 249.536 46.754C249.405 46.614 249.34 46.446 249.34 46.25C249.34 46.0633 249.405 45.9 249.536 45.76C249.667 45.6107 249.849 45.536 250.082 45.536C250.306 45.536 250.483 45.6107 250.614 45.76C250.754 45.9 250.824 46.0633 250.824 46.25ZM249.522 48.084H250.642V55H249.522V48.084ZM255.15 55.168C254.525 55.168 254.067 54.9813 253.778 54.608C253.489 54.2347 253.344 53.7213 253.344 53.068V48.994H252.112V48.084H253.344V46.208H254.45V48.084H256.452V48.994H254.45V52.97C254.45 53.418 254.534 53.7307 254.702 53.908C254.879 54.0853 255.103 54.174 255.374 54.174C255.561 54.174 255.729 54.1413 255.878 54.076C256.027 54.0013 256.167 53.9033 256.298 53.782L256.802 54.566C256.373 54.9673 255.822 55.168 255.15 55.168ZM258.761 57.646C258.658 57.646 258.551 57.6367 258.439 57.618C258.336 57.6087 258.247 57.5947 258.173 57.576V56.61C258.219 56.6193 258.294 56.6287 258.397 56.638C258.509 56.6473 258.611 56.652 258.705 56.652C258.891 56.652 259.05 56.638 259.181 56.61C259.311 56.582 259.428 56.5167 259.531 56.414C259.643 56.3207 259.75 56.176 259.853 55.98C259.955 55.7933 260.067 55.5413 260.189 55.224L257.417 48.084H258.635L260.721 53.88H260.805L262.905 48.084H264.039L261.323 55.07C261.145 55.5273 260.973 55.9147 260.805 56.232C260.646 56.5587 260.469 56.8247 260.273 57.03C260.077 57.2447 259.857 57.3987 259.615 57.492C259.381 57.5947 259.097 57.646 258.761 57.646ZM265.23 55.168C264.969 55.168 264.764 55.084 264.614 54.916C264.465 54.748 264.39 54.5567 264.39 54.342C264.39 54.118 264.465 53.9267 264.614 53.768C264.764 53.6 264.969 53.516 265.23 53.516C265.501 53.516 265.706 53.6 265.846 53.768C265.996 53.9267 266.07 54.118 266.07 54.342C266.07 54.5567 265.996 54.748 265.846 54.916C265.706 55.084 265.501 55.168 265.23 55.168ZM275.244 55.168C274.618 55.168 274.049 55.0513 273.536 54.818C273.022 54.5753 272.584 54.244 272.22 53.824C271.856 53.3947 271.571 52.8907 271.366 52.312C271.17 51.7333 271.072 51.1033 271.072 50.422C271.072 49.722 271.174 49.0827 271.38 48.504C271.585 47.9253 271.87 47.4307 272.234 47.02C272.598 46.6093 273.032 46.292 273.536 46.068C274.04 45.844 274.59 45.732 275.188 45.732C275.878 45.732 276.485 45.8533 277.008 46.096C277.53 46.3293 277.983 46.656 278.366 47.076L277.61 47.818C277.339 47.4913 276.994 47.2393 276.574 47.062C276.163 46.8753 275.72 46.782 275.244 46.782C274.805 46.782 274.404 46.8707 274.04 47.048C273.685 47.2253 273.377 47.4773 273.116 47.804C272.854 48.1213 272.649 48.504 272.5 48.952C272.36 49.4 272.29 49.89 272.29 50.422C272.29 50.9447 272.364 51.43 272.514 51.878C272.663 52.326 272.868 52.718 273.13 53.054C273.391 53.3807 273.704 53.642 274.068 53.838C274.432 54.0247 274.833 54.118 275.272 54.118C275.748 54.118 276.205 54.0293 276.644 53.852C277.082 53.6653 277.437 53.3947 277.708 53.04L278.464 53.782C278.1 54.23 277.633 54.5753 277.064 54.818C276.504 55.0513 275.897 55.168 275.244 55.168ZM280.215 44.85H281.335V55H280.215V44.85ZM285.017 46.25C285.017 46.446 284.947 46.614 284.807 46.754C284.677 46.894 284.499 46.964 284.275 46.964C284.042 46.964 283.86 46.894 283.729 46.754C283.599 46.614 283.533 46.446 283.533 46.25C283.533 46.0633 283.599 45.9 283.729 45.76C283.86 45.6107 284.042 45.536 284.275 45.536C284.499 45.536 284.677 45.6107 284.807 45.76C284.947 45.9 285.017 46.0633 285.017 46.25ZM283.715 48.084H284.835V55H283.715V48.084ZM289.847 55.168C289.287 55.168 288.802 55.0653 288.391 54.86C287.99 54.6547 287.659 54.384 287.397 54.048C287.136 53.712 286.945 53.3293 286.823 52.9C286.702 52.4613 286.641 52.0087 286.641 51.542C286.641 51.0753 286.702 50.6273 286.823 50.198C286.945 49.7593 287.131 49.372 287.383 49.036C287.645 48.7 287.976 48.4293 288.377 48.224C288.779 48.0187 289.259 47.916 289.819 47.916C290.407 47.916 290.888 48.014 291.261 48.21C291.635 48.406 291.952 48.6673 292.213 48.994L291.513 49.652C291.289 49.4093 291.051 49.2227 290.799 49.092C290.557 48.952 290.239 48.882 289.847 48.882C289.231 48.882 288.732 49.12 288.349 49.596C287.976 50.0627 287.789 50.7113 287.789 51.542C287.789 51.9527 287.841 52.3213 287.943 52.648C288.046 52.9747 288.191 53.2547 288.377 53.488C288.564 53.7213 288.783 53.8987 289.035 54.02C289.287 54.1413 289.567 54.202 289.875 54.202C290.249 54.202 290.571 54.1367 290.841 54.006C291.112 53.866 291.364 53.6653 291.597 53.404L292.269 54.076C291.999 54.4027 291.667 54.6687 291.275 54.874C290.883 55.07 290.407 55.168 289.847 55.168ZM295.021 55H293.901V44.85H295.021V51.724H295.105L298.269 48.084H299.627L296.729 51.248L299.739 55H298.339L295.959 51.976L295.021 53.054V55ZM307.391 55.168C306.84 55.168 306.355 55.0747 305.935 54.888C305.524 54.692 305.179 54.4307 304.899 54.104C304.628 53.7773 304.423 53.3947 304.283 52.956C304.152 52.5173 304.087 52.046 304.087 51.542C304.087 51.038 304.152 50.5667 304.283 50.128C304.423 49.6893 304.628 49.3067 304.899 48.98C305.179 48.6533 305.524 48.3967 305.935 48.21C306.355 48.014 306.84 47.916 307.391 47.916C307.941 47.916 308.417 48.014 308.819 48.21C309.229 48.3967 309.57 48.6533 309.841 48.98C310.111 49.3067 310.312 49.6893 310.443 50.128C310.583 50.5667 310.653 51.038 310.653 51.542C310.653 52.046 310.583 52.5173 310.443 52.956C310.312 53.3947 310.111 53.7773 309.841 54.104C309.57 54.4307 309.229 54.692 308.819 54.888C308.417 55.0747 307.941 55.168 307.391 55.168ZM305.235 51.542C305.235 51.9433 305.277 52.312 305.361 52.648C305.454 52.9747 305.589 53.2593 305.767 53.502C305.944 53.7353 306.168 53.9173 306.439 54.048C306.709 54.1787 307.027 54.244 307.391 54.244C307.745 54.244 308.053 54.1787 308.315 54.048C308.585 53.9173 308.805 53.7353 308.973 53.502C309.15 53.2593 309.281 52.9747 309.365 52.648C309.458 52.312 309.505 51.9433 309.505 51.542C309.505 51.1407 309.458 50.7767 309.365 50.45C309.281 50.114 309.15 49.8293 308.973 49.596C308.805 49.3533 308.585 49.1667 308.315 49.036C308.053 48.9053 307.745 48.84 307.391 48.84C307.027 48.84 306.709 48.9053 306.439 49.036C306.168 49.1667 305.944 49.3533 305.767 49.596C305.589 49.8293 305.454 50.114 305.361 50.45C305.277 50.7767 305.235 51.1407 305.235 51.542ZM312.454 48.084H313.518V49.204H313.602C313.751 48.84 313.966 48.5367 314.246 48.294C314.526 48.042 314.876 47.916 315.296 47.916C315.65 47.916 315.963 47.986 316.234 48.126L315.856 49.134C315.734 49.0687 315.604 49.0267 315.464 49.008C315.333 48.98 315.198 48.966 315.058 48.966C314.6 48.966 314.236 49.1527 313.966 49.526C313.704 49.89 313.574 50.3567 313.574 50.926V55H312.454V48.084ZM15.318 75.168C14.6927 75.168 14.2353 74.9813 13.946 74.608C13.6567 74.2347 13.512 73.7213 13.512 73.068V68.994H12.28V68.084H13.512V66.208H14.618V68.084H16.62V68.994H14.618V72.97C14.618 73.418 14.702 73.7307 14.87 73.908C15.0473 74.0853 15.2713 74.174 15.542 74.174C15.7287 74.174 15.8967 74.1413 16.046 74.076C16.1953 74.0013 16.3353 73.9033 16.466 73.782L16.97 74.566C16.5407 74.9673 15.99 75.168 15.318 75.168ZM20.0207 75.168C19.7034 75.168 19.4094 75.1167 19.1387 75.014C18.8774 74.9113 18.6487 74.7667 18.4527 74.58C18.2567 74.3933 18.1027 74.174 17.9907 73.922C17.888 73.6607 17.8367 73.376 17.8367 73.068C17.8367 72.4707 18.0514 71.99 18.4807 71.626C18.91 71.262 19.5214 71.0567 20.3147 71.01L22.1347 70.898V70.408C22.1347 69.876 22.004 69.4933 21.7427 69.26C21.4907 69.0173 21.1267 68.896 20.6507 68.896C20.2494 68.896 19.904 68.9707 19.6147 69.12C19.3254 69.2693 19.1014 69.4327 18.9427 69.61L18.2707 68.938C18.5134 68.6393 18.84 68.3967 19.2507 68.21C19.6707 68.014 20.1467 67.916 20.6787 67.916C21.1547 67.916 21.556 67.9813 21.8827 68.112C22.2094 68.2333 22.4707 68.4013 22.6667 68.616C22.872 68.8307 23.0167 69.0827 23.1007 69.372C23.194 69.6613 23.2407 69.9693 23.2407 70.296V75H22.1907V73.824H22.1067C21.92 74.244 21.6587 74.5753 21.3227 74.818C20.9867 75.0513 20.5527 75.168 20.0207 75.168ZM20.1887 74.216C20.7674 74.216 21.234 74.048 21.5887 73.712C21.9527 73.3667 22.1347 72.9093 22.1347 72.34V71.738L20.3707 71.864C19.4374 71.9387 18.9707 72.3307 18.9707 73.04C18.9707 73.3947 19.0827 73.6793 19.3067 73.894C19.54 74.1087 19.834 74.216 20.1887 74.216ZM25.4947 68.084H26.5587V69.498H26.6427C26.7267 69.2647 26.8434 69.05 26.9927 68.854C27.1514 68.658 27.3334 68.49 27.5387 68.35C27.7534 68.21 27.9867 68.1027 28.2387 68.028C28.5 67.9533 28.7707 67.916 29.0507 67.916C29.508 67.916 29.9234 68.0093 30.2967 68.196C30.6794 68.3733 31.006 68.6253 31.2767 68.952C31.5474 69.2693 31.7527 69.652 31.8927 70.1C32.042 70.548 32.1167 71.0333 32.1167 71.556C32.1167 72.0787 32.042 72.564 31.8927 73.012C31.7527 73.4507 31.5474 73.8333 31.2767 74.16C31.006 74.4773 30.6794 74.7247 30.2967 74.902C29.9234 75.0793 29.508 75.168 29.0507 75.168C28.4814 75.168 27.9914 75.0327 27.5807 74.762C27.17 74.4913 26.876 74.146 26.6987 73.726H26.6147V77.59H25.4947V68.084ZM28.7707 74.16C29.0787 74.16 29.3634 74.1087 29.6247 74.006C29.8954 73.894 30.1287 73.7307 30.3247 73.516C30.53 73.292 30.6887 73.0167 30.8007 72.69C30.9127 72.3633 30.9687 71.9807 30.9687 71.542C30.9687 71.1033 30.9127 70.7207 30.8007 70.394C30.6887 70.0673 30.53 69.7967 30.3247 69.582C30.1287 69.358 29.8954 69.1947 29.6247 69.092C29.3634 68.98 29.0787 68.924 28.7707 68.924C28.472 68.924 28.192 68.98 27.9307 69.092C27.6694 69.1947 27.4407 69.358 27.2447 69.582C27.0487 69.7967 26.8947 70.0673 26.7827 70.394C26.6707 70.7207 26.6147 71.1033 26.6147 71.542C26.6147 71.9807 26.6707 72.3633 26.7827 72.69C26.8947 73.0167 27.0487 73.292 27.2447 73.516C27.4407 73.7307 27.6694 73.894 27.9307 74.006C28.192 74.1087 28.472 74.16 28.7707 74.16ZM37.0138 64.85C37.1072 64.8127 37.2145 64.7847 37.3358 64.766C37.4665 64.738 37.5972 64.724 37.7278 64.724C37.8585 64.724 37.9845 64.738 38.1058 64.766C38.2272 64.7847 38.3392 64.8127 38.4418 64.85L37.9518 68.308H37.5038L37.0138 64.85ZM40.6591 65.9H41.9891L46.3431 73.334H46.4271V65.9H47.5051V75H46.1751L41.8211 67.552H41.7371V75H40.6591V65.9ZM52.683 75.168C52.1883 75.168 51.7357 75.084 51.325 74.916C50.9237 74.748 50.5783 74.51 50.289 74.202C50.009 73.8847 49.7897 73.502 49.631 73.054C49.4817 72.606 49.407 72.102 49.407 71.542C49.407 70.954 49.4863 70.436 49.645 69.988C49.8037 69.5307 50.023 69.1527 50.303 68.854C50.583 68.546 50.9143 68.3127 51.297 68.154C51.689 67.9953 52.1183 67.916 52.585 67.916C53.0517 67.916 53.481 67.9907 53.873 68.14C54.265 68.2893 54.601 68.5133 54.881 68.812C55.161 69.1013 55.3803 69.47 55.539 69.918C55.6977 70.3567 55.777 70.87 55.777 71.458C55.777 71.5327 55.7723 71.6073 55.763 71.682C55.763 71.7567 55.7583 71.8173 55.749 71.864H50.527C50.527 72.1907 50.583 72.4987 50.695 72.788C50.8163 73.068 50.975 73.3153 51.171 73.53C51.3763 73.7353 51.6097 73.8987 51.871 74.02C52.1417 74.1413 52.431 74.202 52.739 74.202C53.243 74.202 53.6537 74.104 53.971 73.908C54.2977 73.712 54.5683 73.474 54.783 73.194L55.455 73.88C55.1563 74.272 54.783 74.5847 54.335 74.818C53.8963 75.0513 53.3457 75.168 52.683 75.168ZM52.585 68.84C52.2583 68.84 51.969 68.9007 51.717 69.022C51.465 69.1433 51.255 69.302 51.087 69.498C50.919 69.694 50.7883 69.918 50.695 70.17C50.611 70.422 50.5643 70.674 50.555 70.926H54.601C54.5917 70.674 54.5403 70.422 54.447 70.17C54.363 69.918 54.237 69.694 54.069 69.498C53.901 69.302 53.691 69.1433 53.439 69.022C53.1963 68.9007 52.9117 68.84 52.585 68.84ZM59.0305 71.486L56.7205 68.084H58.0645L59.7025 70.674H59.7585L61.4525 68.084H62.6565L60.3465 71.43L62.7685 75H61.4245L59.6745 72.242H59.6185L57.8125 75H56.6085L59.0305 71.486ZM66.5465 75.168C65.9212 75.168 65.4638 74.9813 65.1745 74.608C64.8852 74.2347 64.7405 73.7213 64.7405 73.068V68.994H63.5085V68.084H64.7405V66.208H65.8465V68.084H67.8485V68.994H65.8465V72.97C65.8465 73.418 65.9305 73.7307 66.0985 73.908C66.2758 74.0853 66.4998 74.174 66.7705 74.174C66.9572 74.174 67.1252 74.1413 67.2745 74.076C67.4238 74.0013 67.5638 73.9033 67.6945 73.782L68.1985 74.566C67.7692 74.9673 67.2185 75.168 66.5465 75.168ZM69.4572 64.85C69.5505 64.8127 69.6579 64.7847 69.7792 64.766C69.9099 64.738 70.0405 64.724 70.1712 64.724C70.3019 64.724 70.4279 64.738 70.5492 64.766C70.6705 64.7847 70.7825 64.8127 70.8852 64.85L70.3952 68.308H69.9472L69.4572 64.85ZM76.7177 68.994H75.4857V68.084H76.7177V66.866C76.7177 66.194 76.8857 65.662 77.2217 65.27C77.5671 64.878 78.0757 64.682 78.7477 64.682C78.9157 64.682 79.0884 64.7007 79.2657 64.738C79.4431 64.766 79.5971 64.8127 79.7277 64.878L79.3497 65.76C79.2844 65.7227 79.1957 65.6947 79.0837 65.676C78.9717 65.648 78.8737 65.634 78.7897 65.634C78.4911 65.634 78.2577 65.7367 78.0897 65.942C77.9217 66.1473 77.8377 66.46 77.8377 66.88V68.084H79.6857V68.994H77.8377V75H76.7177V68.994ZM83.7052 75.168C83.1545 75.168 82.6692 75.0747 82.2492 74.888C81.8385 74.692 81.4932 74.4307 81.2132 74.104C80.9425 73.7773 80.7372 73.3947 80.5972 72.956C80.4665 72.5173 80.4012 72.046 80.4012 71.542C80.4012 71.038 80.4665 70.5667 80.5972 70.128C80.7372 69.6893 80.9425 69.3067 81.2132 68.98C81.4932 68.6533 81.8385 68.3967 82.2492 68.21C82.6692 68.014 83.1545 67.916 83.7052 67.916C84.2558 67.916 84.7318 68.014 85.1332 68.21C85.5438 68.3967 85.8845 68.6533 86.1552 68.98C86.4258 69.3067 86.6265 69.6893 86.7572 70.128C86.8972 70.5667 86.9672 71.038 86.9672 71.542C86.9672 72.046 86.8972 72.5173 86.7572 72.956C86.6265 73.3947 86.4258 73.7773 86.1552 74.104C85.8845 74.4307 85.5438 74.692 85.1332 74.888C84.7318 75.0747 84.2558 75.168 83.7052 75.168ZM81.5492 71.542C81.5492 71.9433 81.5912 72.312 81.6752 72.648C81.7685 72.9747 81.9038 73.2593 82.0812 73.502C82.2585 73.7353 82.4825 73.9173 82.7532 74.048C83.0238 74.1787 83.3412 74.244 83.7052 74.244C84.0598 74.244 84.3678 74.1787 84.6292 74.048C84.8998 73.9173 85.1192 73.7353 85.2872 73.502C85.4645 73.2593 85.5952 72.9747 85.6792 72.648C85.7725 72.312 85.8192 71.9433 85.8192 71.542C85.8192 71.1407 85.7725 70.7767 85.6792 70.45C85.5952 70.114 85.4645 69.8293 85.2872 69.596C85.1192 69.3533 84.8998 69.1667 84.6292 69.036C84.3678 68.9053 84.0598 68.84 83.7052 68.84C83.3412 68.84 83.0238 68.9053 82.7532 69.036C82.4825 69.1667 82.2585 69.3533 82.0812 69.596C81.9038 69.8293 81.7685 70.114 81.6752 70.45C81.5912 70.7767 81.5492 71.1407 81.5492 71.542ZM88.7681 68.084H89.8321V69.204H89.9161C90.0655 68.84 90.2801 68.5367 90.5601 68.294C90.8401 68.042 91.1901 67.916 91.6101 67.916C91.9648 67.916 92.2775 67.986 92.5481 68.126L92.1701 69.134C92.0488 69.0687 91.9181 69.0267 91.7781 69.008C91.6475 68.98 91.5121 68.966 91.3721 68.966C90.9148 68.966 90.5508 69.1527 90.2801 69.526C90.0188 69.89 89.8881 70.3567 89.8881 70.926V75H88.7681V68.084ZM99.8461 75.168C99.3794 75.168 98.9594 75.0793 98.5861 74.902C98.2127 74.7153 97.8907 74.4633 97.6201 74.146C97.3494 73.8193 97.1394 73.432 96.9901 72.984C96.8501 72.536 96.7801 72.0507 96.7801 71.528C96.7801 71.0053 96.8501 70.5247 96.9901 70.086C97.1394 69.638 97.3494 69.2553 97.6201 68.938C97.8907 68.6113 98.2127 68.3593 98.5861 68.182C98.9594 68.0047 99.3794 67.916 99.8461 67.916C100.415 67.916 100.905 68.0513 101.316 68.322C101.727 68.5927 102.021 68.938 102.198 69.358H102.282V64.85H103.402V75H102.338V73.586H102.254C102.17 73.8287 102.049 74.048 101.89 74.244C101.741 74.4307 101.559 74.594 101.344 74.734C101.139 74.874 100.905 74.9813 100.644 75.056C100.392 75.1307 100.126 75.168 99.8461 75.168ZM100.126 74.16C100.425 74.16 100.705 74.1087 100.966 74.006C101.227 73.894 101.456 73.7307 101.652 73.516C101.848 73.292 102.002 73.0167 102.114 72.69C102.226 72.3633 102.282 71.9807 102.282 71.542C102.282 71.1033 102.226 70.7207 102.114 70.394C102.002 70.0673 101.848 69.7967 101.652 69.582C101.456 69.358 101.227 69.1947 100.966 69.092C100.705 68.98 100.425 68.924 100.126 68.924C99.8181 68.924 99.5287 68.98 99.2581 69.092C98.9967 69.1947 98.7634 69.358 98.5581 69.582C98.3621 69.7967 98.2081 70.0673 98.0961 70.394C97.9841 70.7207 97.9281 71.1033 97.9281 71.542C97.9281 71.9807 97.9841 72.3633 98.0961 72.69C98.2081 73.0167 98.3621 73.292 98.5581 73.516C98.7634 73.7307 98.9967 73.894 99.2581 74.006C99.5287 74.1087 99.8181 74.16 100.126 74.16ZM108.478 75.168C107.983 75.168 107.531 75.084 107.12 74.916C106.719 74.748 106.373 74.51 106.084 74.202C105.804 73.8847 105.585 73.502 105.426 73.054C105.277 72.606 105.202 72.102 105.202 71.542C105.202 70.954 105.281 70.436 105.44 69.988C105.599 69.5307 105.818 69.1527 106.098 68.854C106.378 68.546 106.709 68.3127 107.092 68.154C107.484 67.9953 107.913 67.916 108.38 67.916C108.847 67.916 109.276 67.9907 109.668 68.14C110.06 68.2893 110.396 68.5133 110.676 68.812C110.956 69.1013 111.175 69.47 111.334 69.918C111.493 70.3567 111.572 70.87 111.572 71.458C111.572 71.5327 111.567 71.6073 111.558 71.682C111.558 71.7567 111.553 71.8173 111.544 71.864H106.322C106.322 72.1907 106.378 72.4987 106.49 72.788C106.611 73.068 106.77 73.3153 106.966 73.53C107.171 73.7353 107.405 73.8987 107.666 74.02C107.937 74.1413 108.226 74.202 108.534 74.202C109.038 74.202 109.449 74.104 109.766 73.908C110.093 73.712 110.363 73.474 110.578 73.194L111.25 73.88C110.951 74.272 110.578 74.5847 110.13 74.818C109.691 75.0513 109.141 75.168 108.478 75.168ZM108.38 68.84C108.053 68.84 107.764 68.9007 107.512 69.022C107.26 69.1433 107.05 69.302 106.882 69.498C106.714 69.694 106.583 69.918 106.49 70.17C106.406 70.422 106.359 70.674 106.35 70.926H110.396C110.387 70.674 110.335 70.422 110.242 70.17C110.158 69.918 110.032 69.694 109.864 69.498C109.696 69.302 109.486 69.1433 109.234 69.022C108.991 68.9007 108.707 68.84 108.38 68.84ZM115.506 75.168C114.88 75.168 114.423 74.9813 114.134 74.608C113.844 74.2347 113.7 73.7213 113.7 73.068V68.994H112.468V68.084H113.7V66.208H114.806V68.084H116.808V68.994H114.806V72.97C114.806 73.418 114.89 73.7307 115.058 73.908C115.235 74.0853 115.459 74.174 115.73 74.174C115.916 74.174 116.084 74.1413 116.234 74.076C116.383 74.0013 116.523 73.9033 116.654 73.782L117.158 74.566C116.728 74.9673 116.178 75.168 115.506 75.168ZM120.208 75.168C119.891 75.168 119.597 75.1167 119.326 75.014C119.065 74.9113 118.836 74.7667 118.64 74.58C118.444 74.3933 118.29 74.174 118.178 73.922C118.076 73.6607 118.024 73.376 118.024 73.068C118.024 72.4707 118.239 71.99 118.668 71.626C119.098 71.262 119.709 71.0567 120.502 71.01L122.322 70.898V70.408C122.322 69.876 122.192 69.4933 121.93 69.26C121.678 69.0173 121.314 68.896 120.838 68.896C120.437 68.896 120.092 68.9707 119.802 69.12C119.513 69.2693 119.289 69.4327 119.13 69.61L118.458 68.938C118.701 68.6393 119.028 68.3967 119.438 68.21C119.858 68.014 120.334 67.916 120.866 67.916C121.342 67.916 121.744 67.9813 122.07 68.112C122.397 68.2333 122.658 68.4013 122.854 68.616C123.06 68.8307 123.204 69.0827 123.288 69.372C123.382 69.6613 123.428 69.9693 123.428 70.296V75H122.378V73.824H122.294C122.108 74.244 121.846 74.5753 121.51 74.818C121.174 75.0513 120.74 75.168 120.208 75.168ZM120.376 74.216C120.955 74.216 121.422 74.048 121.776 73.712C122.14 73.3667 122.322 72.9093 122.322 72.34V71.738L120.558 71.864C119.625 71.9387 119.158 72.3307 119.158 73.04C119.158 73.3947 119.27 73.6793 119.494 73.894C119.728 74.1087 120.022 74.216 120.376 74.216ZM126.984 66.25C126.984 66.446 126.914 66.614 126.774 66.754C126.644 66.894 126.466 66.964 126.242 66.964C126.009 66.964 125.827 66.894 125.696 66.754C125.566 66.614 125.5 66.446 125.5 66.25C125.5 66.0633 125.566 65.9 125.696 65.76C125.827 65.6107 126.009 65.536 126.242 65.536C126.466 65.536 126.644 65.6107 126.774 65.76C126.914 65.9 126.984 66.0633 126.984 66.25ZM125.682 68.084H126.802V75H125.682V68.084ZM129.182 64.85H130.302V75H129.182V64.85ZM136.014 73.208C136.014 73.0027 135.968 72.8347 135.874 72.704C135.781 72.564 135.65 72.4473 135.482 72.354C135.324 72.2607 135.142 72.1813 134.936 72.116C134.731 72.0507 134.516 71.9853 134.292 71.92C134.031 71.8453 133.779 71.7567 133.536 71.654C133.303 71.5513 133.093 71.4253 132.906 71.276C132.72 71.1173 132.57 70.9307 132.458 70.716C132.346 70.5013 132.29 70.24 132.29 69.932C132.29 69.6053 132.351 69.316 132.472 69.064C132.594 68.812 132.762 68.602 132.976 68.434C133.191 68.266 133.443 68.14 133.732 68.056C134.022 67.9627 134.334 67.916 134.67 67.916C135.174 67.916 135.636 68.0093 136.056 68.196C136.476 68.3733 136.822 68.6533 137.092 69.036L136.364 69.708C136.159 69.4653 135.916 69.2647 135.636 69.106C135.366 68.9473 135.044 68.868 134.67 68.868C134.512 68.868 134.353 68.8867 134.194 68.924C134.045 68.9613 133.91 69.022 133.788 69.106C133.667 69.1807 133.569 69.2787 133.494 69.4C133.42 69.5213 133.382 69.666 133.382 69.834C133.382 70.0393 133.429 70.212 133.522 70.352C133.616 70.4827 133.742 70.5947 133.9 70.688C134.068 70.7813 134.255 70.8607 134.46 70.926C134.666 70.9913 134.88 71.0567 135.104 71.122C135.366 71.1967 135.613 71.2853 135.846 71.388C136.089 71.4907 136.304 71.6213 136.49 71.78C136.677 71.9293 136.826 72.1113 136.938 72.326C137.05 72.5407 137.106 72.802 137.106 73.11C137.106 73.474 137.036 73.7867 136.896 74.048C136.766 74.3 136.584 74.51 136.35 74.678C136.117 74.846 135.846 74.9673 135.538 75.042C135.23 75.126 134.904 75.168 134.558 75.168C133.952 75.168 133.434 75.0653 133.004 74.86C132.584 74.6547 132.253 74.3887 132.01 74.062L132.752 73.362C132.967 73.614 133.214 73.8193 133.494 73.978C133.784 74.1367 134.143 74.216 134.572 74.216C134.768 74.216 134.95 74.1973 135.118 74.16C135.296 74.1227 135.45 74.062 135.58 73.978C135.711 73.894 135.814 73.7913 135.888 73.67C135.972 73.5393 136.014 73.3853 136.014 73.208ZM139.436 75.168C139.174 75.168 138.969 75.084 138.82 74.916C138.67 74.748 138.596 74.5567 138.596 74.342C138.596 74.118 138.67 73.9267 138.82 73.768C138.969 73.6 139.174 73.516 139.436 73.516C139.706 73.516 139.912 73.6 140.052 73.768C140.201 73.9267 140.276 74.118 140.276 74.342C140.276 74.5567 140.201 74.748 140.052 74.916C139.912 75.084 139.706 75.168 139.436 75.168Z" fill="black" fill-opacity="0.76"/>
<g clip-path="url(#clip0_4377_85669)">
<path d="M249 104C249 95.1634 256.163 88 265 88H315C323.837 88 331 95.1634 331 104C331 112.837 323.837 120 315 120H265C256.163 120 249 112.837 249 104Z" fill="#2B2A28"/>
<path d="M249 104C249 95.1634 256.163 88 265 88H315C323.837 88 331 95.1634 331 104C331 112.837 323.837 120 315 120H265C256.163 120 249 112.837 249 104Z" fill="white" fill-opacity="0.01"/>
<path d="M276.058 109V99.9H278.018L281.798 106.284H281.882V99.9H283.618V109H281.658L277.892 102.616H277.808V109H276.058ZM288.554 109.168C287.788 109.168 287.144 109.005 286.622 108.678C286.108 108.351 285.721 107.917 285.46 107.376C285.208 106.825 285.082 106.214 285.082 105.542C285.082 105.029 285.152 104.553 285.292 104.114C285.432 103.666 285.637 103.279 285.908 102.952C286.188 102.625 286.538 102.373 286.958 102.196C287.378 102.009 287.872 101.916 288.442 101.916C289.002 101.916 289.487 102.005 289.898 102.182C290.318 102.359 290.663 102.611 290.934 102.938C291.214 103.255 291.419 103.629 291.55 104.058C291.69 104.487 291.76 104.959 291.76 105.472C291.76 105.565 291.75 105.677 291.732 105.808C291.722 105.929 291.708 106.023 291.69 106.088H286.874C286.902 106.424 287.004 106.713 287.182 106.956C287.359 107.199 287.578 107.385 287.84 107.516C288.101 107.637 288.372 107.698 288.652 107.698C289.044 107.698 289.375 107.628 289.646 107.488C289.926 107.348 290.15 107.171 290.318 106.956L291.312 107.992C291.06 108.337 290.696 108.622 290.22 108.846C289.753 109.061 289.198 109.168 288.554 109.168ZM288.442 103.26C288.143 103.26 287.877 103.33 287.644 103.47C287.42 103.601 287.238 103.783 287.098 104.016C286.967 104.249 286.888 104.525 286.86 104.842H289.996C289.968 104.525 289.884 104.249 289.744 104.016C289.613 103.783 289.436 103.601 289.212 103.47C288.988 103.33 288.731 103.26 288.442 103.26ZM292.158 109L294.594 105.528L292.298 102.084H294.44L295.672 104.184H295.742L297.044 102.084H298.92L296.624 105.346L299.074 109H296.918L295.56 106.704H295.49L294.034 109H292.158ZM302.833 109.154C302.329 109.154 301.914 109.065 301.587 108.888C301.26 108.701 301.018 108.426 300.859 108.062C300.71 107.689 300.635 107.227 300.635 106.676V103.498H299.543V102.084H300.635V100.208H302.385V102.084H304.401V103.498H302.385V106.662C302.385 107.026 302.45 107.287 302.581 107.446C302.721 107.595 302.917 107.67 303.169 107.67C303.346 107.67 303.51 107.637 303.659 107.572C303.818 107.497 303.953 107.409 304.065 107.306L304.695 108.51C304.471 108.734 304.205 108.897 303.897 109C303.589 109.103 303.234 109.154 302.833 109.154Z" fill="white" fill-opacity="0.9"/>
</g>
<path d="M20 140L28 132H12L20 140Z" fill="white"/>
<defs>
<clipPath id="clip0_4377_85669">
<path d="M249 104C249 95.1634 256.163 88 265 88H315C323.837 88 331 95.1634 331 104C331 112.837 323.837 120 315 120H265C256.163 120 249 112.837 249 104Z" fill="white"/>
</clipPath>
</defs>
</svg>
