<svg width="498" height="190" viewBox="0 0 498 190" fill="none" xmlns="http://www.w3.org/2000/svg">
<g filter="url(#filter0_ddd_7646_3028)">
<g clip-path="url(#clip0_7646_3028)">
<path d="M14 24.8C14 17.7308 19.7308 12 26.8 12H471.2C478.269 12 484 17.7308 484 24.8V161C484 168.069 478.269 173.8 471.2 173.8H26.8C19.7307 173.8 14 168.069 14 161V24.8Z" fill="white"/>
<rect width="470" height="58" transform="translate(14 12)" fill="white"/>
<path d="M44.8152 47L42.9336 37.9376H42.8184L40.9368 47H37.0968L33.468 34.52H36.9624L39.036 43.1792H39.1512L40.9368 34.52H44.9112L46.6776 43.1792H46.7928L48.8856 34.52H52.284L48.6552 47H44.8152ZM57.1382 47.2304C56.2678 47.2304 55.519 47.0896 54.8918 46.808C54.2774 46.5264 53.7718 46.1552 53.375 45.6944C52.9782 45.2336 52.6838 44.7088 52.4918 44.12C52.2998 43.5184 52.2038 42.8976 52.2038 42.2576C52.2038 41.6304 52.287 41.016 52.4534 40.4144C52.6326 39.8128 52.9078 39.2816 53.279 38.8208C53.663 38.36 54.1558 37.9888 54.7574 37.7072C55.359 37.4256 56.095 37.2848 56.9654 37.2848C57.8358 37.2848 58.5718 37.4256 59.1734 37.7072C59.775 37.976 60.255 38.3408 60.6134 38.8016C60.9846 39.2496 61.247 39.768 61.4006 40.3568C61.567 40.9456 61.6502 41.5536 61.6502 42.1808C61.6502 42.3216 61.6374 42.5072 61.6118 42.7376C61.5862 42.9552 61.5542 43.1216 61.5158 43.2368H55.295C55.3462 43.5184 55.4422 43.7552 55.583 43.9472C55.7366 44.1392 55.9094 44.2928 56.1014 44.408C56.2934 44.5232 56.4918 44.6064 56.6966 44.6576C56.9142 44.7088 57.119 44.7344 57.311 44.7344C57.759 44.7344 58.143 44.664 58.463 44.5232C58.7958 44.3824 59.0518 44.1968 59.231 43.9664L60.9014 45.7136C60.5942 46.1616 60.1078 46.5264 59.4422 46.808C58.7766 47.0896 58.0086 47.2304 57.1382 47.2304ZM56.9654 39.5504C56.5558 39.5504 56.191 39.6784 55.871 39.9344C55.551 40.1776 55.3398 40.6064 55.2374 41.2208H58.655C58.5654 40.6064 58.3606 40.1776 58.0406 39.9344C57.7206 39.6784 57.3622 39.5504 56.9654 39.5504ZM70.8714 47.2304C70.257 47.2304 69.7386 47.1472 69.3162 46.9808C68.9066 46.8016 68.5738 46.5456 68.3178 46.2128C68.0746 45.88 67.8954 45.4704 67.7802 44.984C67.6778 44.4976 67.6266 43.9344 67.6266 43.2944V37.5152H70.6794V42.68C70.6794 43.2944 70.7754 43.7744 70.9674 44.12C71.1594 44.4656 71.5242 44.6384 72.0618 44.6384C72.5738 44.6384 72.9386 44.472 73.1562 44.1392C73.3866 43.8064 73.5018 43.32 73.5018 42.68V37.5152H76.5546V47H73.6938V45.4256H73.5786C73.3866 45.9504 73.0474 46.3856 72.561 46.7312C72.0746 47.064 71.5114 47.2304 70.8714 47.2304ZM78.5981 37.5152H81.4973V39.2048H81.6125C81.8557 38.5904 82.2269 38.1168 82.7261 37.784C83.2253 37.4512 83.8333 37.2848 84.5501 37.2848C85.1133 37.2848 85.6381 37.4064 86.1245 37.6496C86.6237 37.88 87.0525 38.2064 87.4109 38.6288C87.7821 39.0512 88.0701 39.5632 88.2749 40.1648C88.4797 40.7664 88.5821 41.432 88.5821 42.1616C88.5821 42.9168 88.4797 43.608 88.2749 44.2352C88.0701 44.8496 87.7821 45.3808 87.4109 45.8288C87.0525 46.2768 86.6237 46.6224 86.1245 46.8656C85.6381 47.1088 85.1133 47.2304 84.5501 47.2304C83.8333 47.2304 83.2381 47.0704 82.7645 46.7504C82.3037 46.4176 81.9709 45.9824 81.7661 45.4448H81.6509V50.552H78.5981V37.5152ZM83.5517 44.6C84.1661 44.6 84.6333 44.376 84.9533 43.928C85.2861 43.4672 85.4525 42.9104 85.4525 42.2576C85.4525 41.6048 85.2861 41.0544 84.9533 40.6064C84.6333 40.1456 84.1661 39.9152 83.5517 39.9152C82.9245 39.9152 82.4509 40.1456 82.1309 40.6064C81.8109 41.0544 81.6509 41.6048 81.6509 42.2576C81.6509 42.9104 81.8109 43.4672 82.1309 43.928C82.4509 44.376 82.9245 44.6 83.5517 44.6ZM93.6054 47.2304C93.0294 47.2304 92.4982 47.1152 92.0118 46.8848C91.5254 46.6416 91.0966 46.3088 90.7254 45.8864C90.367 45.464 90.0854 44.952 89.8806 44.3504C89.6758 43.7488 89.5734 43.0832 89.5734 42.3536C89.5734 41.5984 89.6758 40.9136 89.8806 40.2992C90.0854 39.672 90.367 39.1344 90.7254 38.6864C91.0966 38.2384 91.5254 37.8928 92.0118 37.6496C92.4982 37.4064 93.0294 37.2848 93.6054 37.2848C94.3094 37.2848 94.8918 37.4512 95.3526 37.784C95.8262 38.104 96.1654 38.5328 96.3702 39.0704H96.4854V33.08H99.5382V47H96.639V45.3104H96.5238C96.2934 45.9248 95.9222 46.3984 95.4102 46.7312C94.911 47.064 94.3094 47.2304 93.6054 47.2304ZM94.5846 44.6C95.2246 44.6 95.6982 44.376 96.0054 43.928C96.3254 43.4672 96.4854 42.9104 96.4854 42.2576C96.4854 41.6048 96.3254 41.0544 96.0054 40.6064C95.6982 40.1456 95.2246 39.9152 94.5846 39.9152C93.9702 39.9152 93.503 40.1456 93.183 40.6064C92.863 41.0544 92.703 41.6048 92.703 42.2576C92.703 42.9104 92.863 43.4672 93.183 43.928C93.503 44.376 93.9702 44.6 94.5846 44.6ZM104.12 47.2304C103.698 47.2304 103.288 47.1664 102.892 47.0384C102.508 46.9104 102.168 46.7248 101.874 46.4816C101.592 46.2256 101.362 45.9184 101.183 45.56C101.016 45.2016 100.933 44.792 100.933 44.3312C100.933 43.4608 101.24 42.776 101.855 42.2768C102.482 41.7776 103.461 41.4896 104.792 41.4128L106.808 41.2976V41.144C106.808 40.8752 106.751 40.6576 106.636 40.4912C106.533 40.3248 106.392 40.1968 106.213 40.1072C106.047 40.0048 105.848 39.9344 105.618 39.896C105.4 39.8576 105.176 39.8384 104.946 39.8384C104.588 39.8384 104.223 39.9024 103.852 40.0304C103.48 40.1584 103.205 40.3376 103.026 40.568L101.356 38.84C101.701 38.4048 102.207 38.04 102.872 37.7456C103.538 37.4384 104.408 37.2848 105.484 37.2848C106.853 37.2848 107.922 37.5984 108.69 38.2256C109.471 38.8528 109.861 39.7552 109.861 40.9328V47H107V45.5408H106.885C106.642 46.04 106.29 46.4496 105.829 46.7696C105.381 47.0768 104.812 47.2304 104.12 47.2304ZM105.157 45.1568C105.644 45.1568 106.04 45.0288 106.348 44.7728C106.655 44.504 106.808 44.1008 106.808 43.5632V43.064L105.215 43.1792C104.805 43.2048 104.498 43.3072 104.293 43.4864C104.101 43.6656 104.005 43.9024 104.005 44.1968C104.005 44.5296 104.114 44.7728 104.332 44.9264C104.562 45.08 104.837 45.1568 105.157 45.1568ZM115.933 47.2112C114.73 47.2112 113.86 46.9104 113.322 46.3088C112.797 45.7072 112.535 44.7472 112.535 43.4288V39.9536H111.172V37.5152H112.535V34.9424H115.549V37.5152H118.352V39.9536H115.549V43.4864C115.549 43.9088 115.62 44.216 115.76 44.408C115.914 44.6 116.164 44.696 116.509 44.696C116.74 44.696 116.957 44.6512 117.162 44.5616C117.38 44.4592 117.559 44.3376 117.7 44.1968L118.679 46.2704C118.052 46.8976 117.136 47.2112 115.933 47.2112ZM124.357 47.2304C123.487 47.2304 122.738 47.0896 122.111 46.808C121.496 46.5264 120.991 46.1552 120.594 45.6944C120.197 45.2336 119.903 44.7088 119.711 44.12C119.519 43.5184 119.423 42.8976 119.423 42.2576C119.423 41.6304 119.506 41.016 119.672 40.4144C119.851 39.8128 120.127 39.2816 120.498 38.8208C120.882 38.36 121.375 37.9888 121.976 37.7072C122.578 37.4256 123.314 37.2848 124.184 37.2848C125.055 37.2848 125.791 37.4256 126.392 37.7072C126.994 37.976 127.474 38.3408 127.832 38.8016C128.203 39.2496 128.466 39.768 128.619 40.3568C128.786 40.9456 128.869 41.5536 128.869 42.1808C128.869 42.3216 128.856 42.5072 128.831 42.7376C128.805 42.9552 128.773 43.1216 128.735 43.2368H122.514C122.565 43.5184 122.661 43.7552 122.802 43.9472C122.955 44.1392 123.128 44.2928 123.32 44.408C123.512 44.5232 123.711 44.6064 123.915 44.6576C124.133 44.7088 124.338 44.7344 124.53 44.7344C124.978 44.7344 125.362 44.664 125.682 44.5232C126.015 44.3824 126.271 44.1968 126.45 43.9664L128.12 45.7136C127.813 46.1616 127.327 46.5264 126.661 46.808C125.995 47.0896 125.227 47.2304 124.357 47.2304ZM124.184 39.5504C123.775 39.5504 123.41 39.6784 123.09 39.9344C122.77 40.1776 122.559 40.6064 122.456 41.2208H125.874C125.784 40.6064 125.579 40.1776 125.259 39.9344C124.939 39.6784 124.581 39.5504 124.184 39.5504ZM133.862 47.2304C133.286 47.2304 132.754 47.1152 132.268 46.8848C131.782 46.6416 131.353 46.3088 130.982 45.8864C130.623 45.464 130.342 44.952 130.137 44.3504C129.932 43.7488 129.83 43.0832 129.83 42.3536C129.83 41.5984 129.932 40.9136 130.137 40.2992C130.342 39.672 130.623 39.1344 130.982 38.6864C131.353 38.2384 131.782 37.8928 132.268 37.6496C132.754 37.4064 133.286 37.2848 133.862 37.2848C134.566 37.2848 135.148 37.4512 135.609 37.784C136.082 38.104 136.422 38.5328 136.626 39.0704H136.742V33.08H139.794V47H136.895V45.3104H136.78C136.55 45.9248 136.178 46.3984 135.666 46.7312C135.167 47.064 134.566 47.2304 133.862 47.2304ZM134.841 44.6C135.481 44.6 135.954 44.376 136.262 43.928C136.582 43.4672 136.742 42.9104 136.742 42.2576C136.742 41.6048 136.582 41.0544 136.262 40.6064C135.954 40.1456 135.481 39.9152 134.841 39.9152C134.226 39.9152 133.759 40.1456 133.439 40.6064C133.119 41.0544 132.959 41.6048 132.959 42.2576C132.959 42.9104 133.119 43.4672 133.439 43.928C133.759 44.376 134.226 44.6 134.841 44.6ZM148.989 47.2304C148.567 47.2304 148.157 47.1664 147.76 47.0384C147.376 46.9104 147.037 46.7248 146.743 46.4816C146.461 46.2256 146.231 45.9184 146.052 45.56C145.885 45.2016 145.802 44.792 145.802 44.3312C145.802 43.4608 146.109 42.776 146.724 42.2768C147.351 41.7776 148.33 41.4896 149.661 41.4128L151.677 41.2976V41.144C151.677 40.8752 151.62 40.6576 151.504 40.4912C151.402 40.3248 151.261 40.1968 151.082 40.1072C150.916 40.0048 150.717 39.9344 150.487 39.896C150.269 39.8576 150.045 39.8384 149.815 39.8384C149.456 39.8384 149.092 39.9024 148.72 40.0304C148.349 40.1584 148.074 40.3376 147.895 40.568L146.224 38.84C146.57 38.4048 147.076 38.04 147.741 37.7456C148.407 37.4384 149.277 37.2848 150.352 37.2848C151.722 37.2848 152.791 37.5984 153.559 38.2256C154.34 38.8528 154.73 39.7552 154.73 40.9328V47H151.869V45.5408H151.754C151.511 46.04 151.159 46.4496 150.698 46.7696C150.25 47.0768 149.68 47.2304 148.989 47.2304ZM150.026 45.1568C150.512 45.1568 150.909 45.0288 151.216 44.7728C151.524 44.504 151.677 44.1008 151.677 43.5632V43.064L150.084 43.1792C149.674 43.2048 149.367 43.3072 149.162 43.4864C148.97 43.6656 148.874 43.9024 148.874 44.1968C148.874 44.5296 148.983 44.7728 149.2 44.9264C149.431 45.08 149.706 45.1568 150.026 45.1568ZM161.901 39.9536H160.557V37.5152H161.901V36.6128C161.901 36.0624 161.971 35.5568 162.112 35.096C162.266 34.6224 162.496 34.2256 162.803 33.9056C163.123 33.5728 163.52 33.3168 163.994 33.1376C164.467 32.9456 165.03 32.8496 165.683 32.8496C165.978 32.8496 166.259 32.8752 166.528 32.9264C166.797 32.9776 167.027 33.048 167.219 33.1376L166.317 35.48C166.253 35.4288 166.163 35.3904 166.048 35.3648C165.946 35.3392 165.843 35.3264 165.741 35.3264C165.485 35.3264 165.286 35.4224 165.146 35.6144C165.018 35.7936 164.954 36.1072 164.954 36.5552V37.5152H167.334V39.9536H164.954V47H161.901V39.9536ZM172.619 47.2304C171.749 47.2304 171 47.0896 170.373 46.808C169.759 46.5264 169.253 46.1552 168.856 45.6944C168.459 45.2336 168.165 44.7088 167.973 44.12C167.781 43.5184 167.685 42.8976 167.685 42.2576C167.685 41.6304 167.768 41.016 167.935 40.4144C168.114 39.8128 168.389 39.2816 168.76 38.8208C169.144 38.36 169.637 37.9888 170.239 37.7072C170.84 37.4256 171.576 37.2848 172.447 37.2848C173.317 37.2848 174.053 37.4256 174.655 37.7072C175.256 37.976 175.736 38.3408 176.095 38.8016C176.466 39.2496 176.728 39.768 176.882 40.3568C177.048 40.9456 177.131 41.5536 177.131 42.1808C177.131 42.3216 177.119 42.5072 177.093 42.7376C177.067 42.9552 177.035 43.1216 176.997 43.2368H170.776C170.827 43.5184 170.923 43.7552 171.064 43.9472C171.218 44.1392 171.391 44.2928 171.583 44.408C171.775 44.5232 171.973 44.6064 172.178 44.6576C172.395 44.7088 172.6 44.7344 172.792 44.7344C173.24 44.7344 173.624 44.664 173.944 44.5232C174.277 44.3824 174.533 44.1968 174.712 43.9664L176.383 45.7136C176.075 46.1616 175.589 46.5264 174.923 46.808C174.258 47.0896 173.49 47.2304 172.619 47.2304ZM172.447 39.5504C172.037 39.5504 171.672 39.6784 171.352 39.9344C171.032 40.1776 170.821 40.6064 170.719 41.2208H174.136C174.047 40.6064 173.842 40.1776 173.522 39.9344C173.202 39.6784 172.843 39.5504 172.447 39.5504ZM177.561 37.5152H180.959L182.438 43.544H182.553L184.07 37.5152H187.41L188.927 43.544H189.042L190.521 37.5152H193.727L190.463 47H187.314L185.663 40.6064H185.548L183.897 47H180.825L177.561 37.5152ZM203.758 47.2112C202.555 47.2112 201.685 46.9104 201.147 46.3088C200.622 45.7072 200.36 44.7472 200.36 43.4288V39.9536H198.997V37.5152H200.36V34.9424H203.374V37.5152H206.177V39.9536H203.374V43.4864C203.374 43.9088 203.445 44.216 203.585 44.408C203.739 44.6 203.989 44.696 204.334 44.696C204.565 44.696 204.782 44.6512 204.987 44.5616C205.205 44.4592 205.384 44.3376 205.525 44.1968L206.504 46.2704C205.877 46.8976 204.961 47.2112 203.758 47.2112ZM207.804 33.08H210.857V38.744H210.953C211.196 38.3088 211.548 37.9568 212.009 37.688C212.47 37.4192 212.988 37.2848 213.564 37.2848C214.192 37.2848 214.716 37.3744 215.139 37.5536C215.574 37.72 215.92 37.9696 216.176 38.3024C216.432 38.6352 216.611 39.0512 216.713 39.5504C216.828 40.0368 216.886 40.5936 216.886 41.2208V47H213.833V41.8352C213.833 41.2336 213.731 40.76 213.526 40.4144C213.321 40.056 212.937 39.8768 212.374 39.8768C211.836 39.8768 211.446 40.0432 211.203 40.376C210.972 40.7088 210.857 41.1952 210.857 41.8352V47H207.804V33.08ZM222.093 34.7888C222.093 35.224 221.946 35.6144 221.652 35.96C221.357 36.2928 220.929 36.4592 220.365 36.4592C219.789 36.4592 219.361 36.2928 219.079 35.96C218.797 35.6144 218.657 35.224 218.657 34.7888C218.657 34.3536 218.797 33.9696 219.079 33.6368C219.361 33.2912 219.789 33.1184 220.365 33.1184C220.929 33.1184 221.357 33.2912 221.652 33.6368C221.946 33.9696 222.093 34.3536 222.093 34.7888ZM218.829 37.5152H221.882V47H218.829V37.5152ZM223.911 37.5152H226.771V39.0896H226.887C227.079 38.5648 227.424 38.136 227.923 37.8032C228.435 37.4576 229.018 37.2848 229.671 37.2848C230.298 37.2848 230.823 37.3744 231.245 37.5536C231.68 37.72 232.026 37.9696 232.282 38.3024C232.538 38.6352 232.717 39.0512 232.819 39.5504C232.935 40.0368 232.992 40.5936 232.992 41.2208V47H229.939V41.8352C229.939 41.2336 229.837 40.76 229.632 40.4144C229.427 40.056 229.043 39.8768 228.48 39.8768C227.943 39.8768 227.552 40.0432 227.309 40.376C227.079 40.7088 226.963 41.1952 226.963 41.8352V47H223.911V37.5152ZM238.929 50.7824C238.097 50.7824 237.348 50.6352 236.683 50.3408C236.017 50.0592 235.531 49.7136 235.224 49.304L237.009 47.48C237.176 47.6976 237.444 47.8768 237.816 48.0176C238.187 48.1712 238.564 48.248 238.948 48.248C239.192 48.248 239.435 48.2224 239.678 48.1712C239.921 48.12 240.139 48.0304 240.331 47.9024C240.523 47.7744 240.676 47.6016 240.792 47.384C240.92 47.1664 240.984 46.8912 240.984 46.5584V44.7728H240.907C240.702 45.272 240.376 45.688 239.928 46.0208C239.48 46.3408 238.897 46.5008 238.18 46.5008C237.604 46.5008 237.086 46.392 236.625 46.1744C236.164 45.944 235.768 45.624 235.435 45.2144C235.115 44.792 234.865 44.2928 234.686 43.7168C234.507 43.1408 234.417 42.5072 234.417 41.816C234.417 41.1376 234.507 40.5232 234.686 39.9728C234.865 39.4096 235.121 38.936 235.454 38.552C235.787 38.1552 236.184 37.848 236.644 37.6304C237.118 37.4128 237.643 37.304 238.219 37.304C238.936 37.304 239.524 37.464 239.985 37.784C240.459 38.0912 240.811 38.5264 241.041 39.0896H241.156V37.5152H244.036V46.616C244.036 47.2944 243.915 47.8896 243.672 48.4016C243.428 48.9264 243.083 49.3616 242.635 49.7072C242.187 50.0656 241.649 50.3344 241.022 50.5136C240.395 50.6928 239.697 50.7824 238.929 50.7824ZM239.256 44.024C239.55 44.024 239.806 43.9664 240.024 43.8512C240.241 43.7232 240.42 43.5632 240.561 43.3712C240.702 43.1664 240.804 42.936 240.868 42.68C240.945 42.424 240.984 42.1552 240.984 41.8736C240.984 41.592 240.945 41.3232 240.868 41.0672C240.804 40.8112 240.702 40.5872 240.561 40.3952C240.42 40.1904 240.241 40.0304 240.024 39.9152C239.806 39.7872 239.55 39.7232 239.256 39.7232C238.961 39.7232 238.705 39.7872 238.488 39.9152C238.27 40.0304 238.091 40.1904 237.95 40.3952C237.809 40.5872 237.7 40.8112 237.624 41.0672C237.56 41.3232 237.528 41.592 237.528 41.8736C237.528 42.1552 237.56 42.424 237.624 42.68C237.7 42.936 237.809 43.1664 237.95 43.3712C238.091 43.5632 238.27 43.7232 238.488 43.8512C238.705 43.9664 238.961 44.024 239.256 44.024ZM250.585 44.1392C250.585 43.8704 250.399 43.6848 250.028 43.5824C249.657 43.4672 249.145 43.3392 248.492 43.1984C248.121 43.1216 247.769 43.0128 247.436 42.872C247.103 42.7184 246.809 42.5328 246.553 42.3152C246.297 42.0848 246.092 41.8096 245.939 41.4896C245.785 41.1696 245.708 40.7856 245.708 40.3376C245.708 39.8512 245.811 39.4224 246.015 39.0512C246.22 38.6672 246.502 38.3472 246.86 38.0912C247.231 37.8224 247.667 37.624 248.166 37.496C248.665 37.3552 249.215 37.2848 249.817 37.2848C250.764 37.2848 251.558 37.4192 252.198 37.688C252.838 37.9568 253.311 38.2768 253.619 38.648L252.025 40.376C251.795 40.1328 251.494 39.9344 251.123 39.7808C250.751 39.6272 250.387 39.5504 250.028 39.5504C249.695 39.5504 249.407 39.608 249.164 39.7232C248.921 39.8256 248.799 40.0112 248.799 40.28C248.799 40.5488 248.985 40.7408 249.356 40.856C249.727 40.9584 250.239 41.08 250.892 41.2208C251.263 41.2976 251.615 41.4128 251.948 41.5664C252.281 41.7072 252.575 41.8928 252.831 42.1232C253.087 42.3408 253.292 42.616 253.446 42.9488C253.599 43.2688 253.676 43.6464 253.676 44.0816C253.676 44.5808 253.574 45.0288 253.369 45.4256C253.164 45.8096 252.876 46.136 252.505 46.4048C252.134 46.6736 251.686 46.8784 251.161 47.0192C250.649 47.16 250.086 47.2304 249.471 47.2304C248.46 47.2304 247.609 47.1024 246.918 46.8464C246.227 46.5776 245.715 46.2448 245.382 45.848L246.899 44.12C247.193 44.4144 247.558 44.632 247.993 44.7728C248.428 44.9008 248.863 44.9648 249.299 44.9648C249.708 44.9648 250.022 44.8944 250.239 44.7536C250.47 44.6128 250.585 44.408 250.585 44.1392Z" fill="#242E30"/>
<path d="M439.199 40.8008C439.199 31.9642 446.363 24.8008 455.199 24.8008C464.036 24.8008 471.199 31.9642 471.199 40.8008C471.199 49.6373 464.036 56.8008 455.199 56.8008C446.363 56.8008 439.199 49.6373 439.199 40.8008Z" fill="white" fill-opacity="0.01"/>
<path d="M459.84 35.0449L455.199 39.6859L450.558 35.0449L449.445 36.1579L454.086 40.799L449.445 45.44L450.558 46.553L455.199 41.912L459.84 46.553L460.953 45.44L456.312 40.799L460.953 36.1579L459.84 35.0449Z" fill="#242E30"/>
<path d="M32.6752 79.8008H30.3072V78.8792H36.1312V79.8008H33.7632V87.1992H32.6752V79.8008ZM37.5255 77.9192H38.5495V81.772H38.6263C38.7714 81.4819 38.9804 81.2344 39.2535 81.0296C39.5266 80.8248 39.8764 80.7224 40.3031 80.7224C41.0284 80.7224 41.6002 80.9144 42.0183 81.2984C42.445 81.6824 42.6583 82.3011 42.6583 83.1544V87.1992H41.6343V83.3464C41.6343 82.6979 41.502 82.2414 41.2375 81.9768C40.9815 81.7038 40.6018 81.5672 40.0983 81.5672C39.6119 81.5672 39.2322 81.7336 38.9591 82.0664C38.686 82.3992 38.5495 82.8856 38.5495 83.5256V87.1992H37.5255V77.9192ZM47.1209 87.3528C46.6686 87.3528 46.2548 87.276 45.8793 87.1224C45.5124 86.9688 45.1966 86.7512 44.9321 86.4696C44.6761 86.1795 44.4756 85.8296 44.3305 85.42C44.194 85.0104 44.1257 84.5496 44.1257 84.0376C44.1257 83.5 44.1982 83.0264 44.3433 82.6168C44.4884 82.1987 44.6889 81.8531 44.9449 81.58C45.2009 81.2984 45.5038 81.0851 45.8537 80.94C46.2121 80.795 46.6046 80.7224 47.0313 80.7224C47.458 80.7224 47.8505 80.7907 48.2089 80.9272C48.5673 81.0638 48.8745 81.2686 49.1305 81.5416C49.3865 81.8062 49.587 82.1432 49.7321 82.5528C49.8772 82.9539 49.9497 83.4232 49.9497 83.9608C49.9497 84.0291 49.9454 84.0974 49.9369 84.1656C49.9369 84.2339 49.9326 84.2894 49.9241 84.332H45.1497C45.1497 84.6307 45.2009 84.9123 45.3033 85.1768C45.4142 85.4328 45.5593 85.659 45.7385 85.8552C45.9262 86.043 46.1396 86.1923 46.3785 86.3032C46.626 86.4142 46.8905 86.4696 47.1721 86.4696C47.6329 86.4696 48.0084 86.38 48.2985 86.2008C48.5972 86.0216 48.8446 85.804 49.0409 85.548L49.6553 86.1752C49.3822 86.5336 49.0409 86.8195 48.6313 87.0328C48.2302 87.2462 47.7268 87.3528 47.1209 87.3528ZM47.0313 81.5672C46.7326 81.5672 46.4681 81.6227 46.2377 81.7336C46.0073 81.8446 45.8153 81.9896 45.6617 82.1688C45.5081 82.348 45.3886 82.5528 45.3033 82.7832C45.2265 83.0136 45.1838 83.244 45.1753 83.4744H48.8745C48.866 83.244 48.819 83.0136 48.7337 82.7832C48.6569 82.5528 48.5417 82.348 48.3881 82.1688C48.2345 81.9896 48.0425 81.8446 47.8121 81.7336C47.5902 81.6227 47.33 81.5672 47.0313 81.5672ZM51.6005 80.876H52.5733V81.9H52.6501C52.7866 81.5672 52.9829 81.2899 53.2389 81.068C53.4949 80.8376 53.8149 80.7224 54.1989 80.7224C54.5232 80.7224 54.809 80.7864 55.0565 80.9144L54.7109 81.836C54.6 81.7763 54.4805 81.7379 54.3525 81.7208C54.233 81.6952 54.1093 81.6824 53.9813 81.6824C53.5632 81.6824 53.2304 81.8531 52.9829 82.1944C52.744 82.5272 52.6245 82.9539 52.6245 83.4744V87.1992H51.6005V80.876ZM58.5334 87.3528C58.0811 87.3528 57.6673 87.276 57.2918 87.1224C56.9249 86.9688 56.6091 86.7512 56.3446 86.4696C56.0886 86.1795 55.8881 85.8296 55.743 85.42C55.6065 85.0104 55.5382 84.5496 55.5382 84.0376C55.5382 83.5 55.6107 83.0264 55.7558 82.6168C55.9009 82.1987 56.1014 81.8531 56.3574 81.58C56.6134 81.2984 56.9163 81.0851 57.2662 80.94C57.6246 80.795 58.0171 80.7224 58.4438 80.7224C58.8705 80.7224 59.263 80.7907 59.6214 80.9272C59.9798 81.0638 60.287 81.2686 60.543 81.5416C60.799 81.8062 60.9995 82.1432 61.1446 82.5528C61.2897 82.9539 61.3622 83.4232 61.3622 83.9608C61.3622 84.0291 61.3579 84.0974 61.3494 84.1656C61.3494 84.2339 61.3451 84.2894 61.3366 84.332H56.5622C56.5622 84.6307 56.6134 84.9123 56.7158 85.1768C56.8267 85.4328 56.9718 85.659 57.151 85.8552C57.3387 86.043 57.5521 86.1923 57.791 86.3032C58.0385 86.4142 58.303 86.4696 58.5846 86.4696C59.0454 86.4696 59.4209 86.38 59.711 86.2008C60.0097 86.0216 60.2571 85.804 60.4534 85.548L61.0678 86.1752C60.7947 86.5336 60.4534 86.8195 60.0438 87.0328C59.6427 87.2462 59.1393 87.3528 58.5334 87.3528ZM58.4438 81.5672C58.1451 81.5672 57.8806 81.6227 57.6502 81.7336C57.4198 81.8446 57.2278 81.9896 57.0742 82.1688C56.9206 82.348 56.8011 82.5528 56.7158 82.7832C56.639 83.0136 56.5963 83.244 56.5878 83.4744H60.287C60.2785 83.244 60.2315 83.0136 60.1462 82.7832C60.0694 82.5528 59.9542 82.348 59.8006 82.1688C59.647 81.9896 59.455 81.8446 59.2246 81.7336C59.0027 81.6227 58.7425 81.5672 58.4438 81.5672ZM67.4832 87.3528C67.1931 87.3528 66.9243 87.3059 66.6768 87.212C66.4379 87.1182 66.2288 86.9859 66.0496 86.8152C65.8704 86.6446 65.7296 86.444 65.6272 86.2136C65.5333 85.9747 65.4864 85.7144 65.4864 85.4328C65.4864 84.8867 65.6827 84.4472 66.0752 84.1144C66.4677 83.7816 67.0267 83.5939 67.752 83.5512L69.416 83.4488V83.0008C69.416 82.5144 69.2965 82.1646 69.0576 81.9512C68.8272 81.7294 68.4944 81.6184 68.0592 81.6184C67.6923 81.6184 67.3765 81.6867 67.112 81.8232C66.8475 81.9598 66.6427 82.1091 66.4976 82.2712L65.8832 81.6568C66.1051 81.3838 66.4037 81.1619 66.7792 80.9912C67.1632 80.812 67.5984 80.7224 68.0848 80.7224C68.52 80.7224 68.8869 80.7822 69.1856 80.9016C69.4843 81.0126 69.7232 81.1662 69.9024 81.3624C70.0901 81.5587 70.2224 81.7891 70.2992 82.0536C70.3845 82.3182 70.4272 82.5998 70.4272 82.8984V87.1992H69.4672V86.124H69.3904C69.2197 86.508 68.9808 86.811 68.6736 87.0328C68.3664 87.2462 67.9696 87.3528 67.4832 87.3528ZM67.6368 86.4824C68.1659 86.4824 68.5925 86.3288 68.9168 86.0216C69.2496 85.7059 69.416 85.2878 69.416 84.7672V84.2168L67.8032 84.332C66.9499 84.4003 66.5232 84.7587 66.5232 85.4072C66.5232 85.7315 66.6256 85.9918 66.8304 86.188C67.0437 86.3843 67.3125 86.4824 67.6368 86.4824ZM72.488 80.876H73.4608V81.9H73.5376C73.6741 81.5672 73.8704 81.2899 74.1264 81.068C74.3824 80.8376 74.7024 80.7224 75.0864 80.7224C75.4107 80.7224 75.6965 80.7864 75.944 80.9144L75.5984 81.836C75.4875 81.7763 75.368 81.7379 75.24 81.7208C75.1205 81.6952 74.9968 81.6824 74.8688 81.6824C74.4507 81.6824 74.1179 81.8531 73.8704 82.1944C73.6315 82.5272 73.512 82.9539 73.512 83.4744V87.1992H72.488V80.876ZM79.4209 87.3528C78.9686 87.3528 78.5548 87.276 78.1793 87.1224C77.8124 86.9688 77.4966 86.7512 77.2321 86.4696C76.9761 86.1795 76.7756 85.8296 76.6305 85.42C76.494 85.0104 76.4257 84.5496 76.4257 84.0376C76.4257 83.5 76.4982 83.0264 76.6433 82.6168C76.7884 82.1987 76.9889 81.8531 77.2449 81.58C77.5009 81.2984 77.8038 81.0851 78.1537 80.94C78.5121 80.795 78.9046 80.7224 79.3313 80.7224C79.758 80.7224 80.1505 80.7907 80.5089 80.9272C80.8673 81.0638 81.1745 81.2686 81.4305 81.5416C81.6865 81.8062 81.887 82.1432 82.0321 82.5528C82.1772 82.9539 82.2497 83.4232 82.2497 83.9608C82.2497 84.0291 82.2454 84.0974 82.2369 84.1656C82.2369 84.2339 82.2326 84.2894 82.2241 84.332H77.4497C77.4497 84.6307 77.5009 84.9123 77.6033 85.1768C77.7142 85.4328 77.8593 85.659 78.0385 85.8552C78.2262 86.043 78.4396 86.1923 78.6785 86.3032C78.926 86.4142 79.1905 86.4696 79.4721 86.4696C79.9329 86.4696 80.3084 86.38 80.5985 86.2008C80.8972 86.0216 81.1446 85.804 81.3409 85.548L81.9553 86.1752C81.6822 86.5336 81.3409 86.8195 80.9313 87.0328C80.5302 87.2462 80.0268 87.3528 79.4209 87.3528ZM79.3313 81.5672C79.0326 81.5672 78.7681 81.6227 78.5377 81.7336C78.3073 81.8446 78.1153 81.9896 77.9617 82.1688C77.8081 82.348 77.6886 82.5528 77.6033 82.7832C77.5265 83.0136 77.4838 83.244 77.4753 83.4744H81.1745C81.166 83.244 81.119 83.0136 81.0337 82.7832C80.9569 82.5528 80.8417 82.348 80.6881 82.1688C80.5345 81.9896 80.3425 81.8446 80.1121 81.7336C79.8902 81.6227 79.63 81.5672 79.3313 81.5672ZM86.9755 80.876H87.9483V81.8744H88.0251C88.1787 81.5416 88.3963 81.2686 88.6779 81.0552C88.9595 80.8334 89.3179 80.7224 89.7531 80.7224C90.4784 80.7224 91.0502 80.9144 91.4683 81.2984C91.895 81.6824 92.1083 82.3011 92.1083 83.1544V87.1992H91.0843V83.3464C91.0843 82.6979 90.952 82.2414 90.6875 81.9768C90.4315 81.7038 90.0518 81.5672 89.5483 81.5672C89.0619 81.5672 88.6822 81.7336 88.4091 82.0664C88.136 82.3992 87.9995 82.8856 87.9995 83.5256V87.1992H86.9755V80.876ZM96.6334 87.3528C96.1811 87.3528 95.7673 87.276 95.3918 87.1224C95.0249 86.9688 94.7091 86.7512 94.4446 86.4696C94.1886 86.1795 93.9881 85.8296 93.843 85.42C93.7065 85.0104 93.6382 84.5496 93.6382 84.0376C93.6382 83.5 93.7107 83.0264 93.8558 82.6168C94.0009 82.1987 94.2014 81.8531 94.4574 81.58C94.7134 81.2984 95.0163 81.0851 95.3662 80.94C95.7246 80.795 96.1171 80.7224 96.5438 80.7224C96.9705 80.7224 97.363 80.7907 97.7214 80.9272C98.0798 81.0638 98.387 81.2686 98.643 81.5416C98.899 81.8062 99.0995 82.1432 99.2446 82.5528C99.3897 82.9539 99.4622 83.4232 99.4622 83.9608C99.4622 84.0291 99.4579 84.0974 99.4494 84.1656C99.4494 84.2339 99.4451 84.2894 99.4366 84.332H94.6622C94.6622 84.6307 94.7134 84.9123 94.8158 85.1768C94.9267 85.4328 95.0718 85.659 95.251 85.8552C95.4387 86.043 95.6521 86.1923 95.891 86.3032C96.1385 86.4142 96.403 86.4696 96.6846 86.4696C97.1454 86.4696 97.5209 86.38 97.811 86.2008C98.1097 86.0216 98.3571 85.804 98.5534 85.548L99.1678 86.1752C98.8947 86.5336 98.5534 86.8195 98.1438 87.0328C97.7427 87.2462 97.2393 87.3528 96.6334 87.3528ZM96.5438 81.5672C96.2451 81.5672 95.9806 81.6227 95.7502 81.7336C95.5198 81.8446 95.3278 81.9896 95.1742 82.1688C95.0206 82.348 94.9011 82.5528 94.8158 82.7832C94.739 83.0136 94.6963 83.244 94.6878 83.4744H98.387C98.3785 83.244 98.3315 83.0136 98.2462 82.7832C98.1694 82.5528 98.0542 82.348 97.9006 82.1688C97.747 81.9896 97.555 81.8446 97.3246 81.7336C97.1027 81.6227 96.8425 81.5672 96.5438 81.5672ZM100.246 80.876H101.346L102.946 86.1368H103.023L104.508 80.876H105.724L107.209 86.1368H107.286L108.886 80.876H109.91L107.759 87.1992H106.607L105.122 81.964H105.046L103.574 87.1992H102.396L100.246 80.876ZM114.733 81.708H113.607V80.876H114.733V79.7624C114.733 79.148 114.887 78.6616 115.194 78.3032C115.51 77.9448 115.975 77.7656 116.589 77.7656C116.743 77.7656 116.9 77.7827 117.063 77.8168C117.225 77.8424 117.366 77.8851 117.485 77.9448L117.139 78.7512C117.08 78.7171 116.999 78.6915 116.896 78.6744C116.794 78.6488 116.704 78.636 116.627 78.636C116.354 78.636 116.141 78.7299 115.987 78.9176C115.834 79.1054 115.757 79.3912 115.757 79.7752V80.876H117.447V81.708H115.757V87.1992H114.733V81.708ZM121.096 87.3528C120.644 87.3528 120.23 87.276 119.854 87.1224C119.487 86.9688 119.172 86.7512 118.907 86.4696C118.651 86.1795 118.451 85.8296 118.305 85.42C118.169 85.0104 118.101 84.5496 118.101 84.0376C118.101 83.5 118.173 83.0264 118.318 82.6168C118.463 82.1987 118.664 81.8531 118.92 81.58C119.176 81.2984 119.479 81.0851 119.829 80.94C120.187 80.795 120.58 80.7224 121.006 80.7224C121.433 80.7224 121.825 80.7907 122.184 80.9272C122.542 81.0638 122.849 81.2686 123.105 81.5416C123.361 81.8062 123.562 82.1432 123.707 82.5528C123.852 82.9539 123.925 83.4232 123.925 83.9608C123.925 84.0291 123.92 84.0974 123.912 84.1656C123.912 84.2339 123.908 84.2894 123.899 84.332H119.125C119.125 84.6307 119.176 84.9123 119.278 85.1768C119.389 85.4328 119.534 85.659 119.713 85.8552C119.901 86.043 120.115 86.1923 120.353 86.3032C120.601 86.4142 120.865 86.4696 121.147 86.4696C121.608 86.4696 121.983 86.38 122.273 86.2008C122.572 86.0216 122.82 85.804 123.016 85.548L123.63 86.1752C123.357 86.5336 123.016 86.8195 122.606 87.0328C122.205 87.2462 121.702 87.3528 121.096 87.3528ZM121.006 81.5672C120.708 81.5672 120.443 81.6227 120.213 81.7336C119.982 81.8446 119.79 81.9896 119.637 82.1688C119.483 82.348 119.364 82.5528 119.278 82.7832C119.201 83.0136 119.159 83.244 119.15 83.4744H122.849C122.841 83.244 122.794 83.0136 122.709 82.7832C122.632 82.5528 122.517 82.348 122.363 82.1688C122.209 81.9896 122.017 81.8446 121.787 81.7336C121.565 81.6227 121.305 81.5672 121.006 81.5672ZM126.971 87.3528C126.681 87.3528 126.412 87.3059 126.164 87.212C125.925 87.1182 125.716 86.9859 125.537 86.8152C125.358 86.6446 125.217 86.444 125.115 86.2136C125.021 85.9747 124.974 85.7144 124.974 85.4328C124.974 84.8867 125.17 84.4472 125.563 84.1144C125.955 83.7816 126.514 83.5939 127.24 83.5512L128.904 83.4488V83.0008C128.904 82.5144 128.784 82.1646 128.545 81.9512C128.315 81.7294 127.982 81.6184 127.547 81.6184C127.18 81.6184 126.864 81.6867 126.6 81.8232C126.335 81.9598 126.13 82.1091 125.985 82.2712L125.371 81.6568C125.593 81.3838 125.891 81.1619 126.267 80.9912C126.651 80.812 127.086 80.7224 127.572 80.7224C128.008 80.7224 128.374 80.7822 128.673 80.9016C128.972 81.0126 129.211 81.1662 129.39 81.3624C129.578 81.5587 129.71 81.7891 129.787 82.0536C129.872 82.3182 129.915 82.5998 129.915 82.8984V87.1992H128.955V86.124H128.878C128.707 86.508 128.468 86.811 128.161 87.0328C127.854 87.2462 127.457 87.3528 126.971 87.3528ZM127.124 86.4824C127.653 86.4824 128.08 86.3288 128.404 86.0216C128.737 85.7059 128.904 85.2878 128.904 84.7672V84.2168L127.291 84.332C126.437 84.4003 126.011 84.7587 126.011 85.4072C126.011 85.7315 126.113 85.9918 126.318 86.188C126.531 86.3843 126.8 86.4824 127.124 86.4824ZM133.921 87.3528C133.349 87.3528 132.931 87.1822 132.667 86.8408C132.402 86.4995 132.27 86.0302 132.27 85.4328V81.708H131.144V80.876H132.27V79.1608H133.281V80.876H135.112V81.708H133.281V85.3432C133.281 85.7528 133.358 86.0387 133.512 86.2008C133.674 86.363 133.878 86.444 134.126 86.444C134.297 86.444 134.45 86.4142 134.587 86.3544C134.723 86.2862 134.851 86.1966 134.971 86.0856L135.432 86.8024C135.039 87.1694 134.536 87.3528 133.921 87.3528ZM139.002 87.3528C138.652 87.3528 138.336 87.3059 138.054 87.212C137.773 87.1182 137.53 86.9731 137.325 86.7768C137.128 86.5806 136.975 86.3288 136.864 86.0216C136.753 85.7144 136.698 85.3475 136.698 84.9208V80.876H137.722V84.7288C137.722 85.3774 137.845 85.8382 138.093 86.1112C138.349 86.3758 138.72 86.508 139.206 86.508C139.667 86.508 140.03 86.3416 140.294 86.0088C140.567 85.676 140.704 85.1896 140.704 84.5496V80.876H141.728V87.1992H140.755V86.2008H140.678C140.525 86.5336 140.311 86.811 140.038 87.0328C139.774 87.2462 139.428 87.3528 139.002 87.3528ZM143.901 80.876H144.873V81.9H144.95C145.087 81.5672 145.283 81.2899 145.539 81.068C145.795 80.8376 146.115 80.7224 146.499 80.7224C146.823 80.7224 147.109 80.7864 147.357 80.9144L147.011 81.836C146.9 81.7763 146.781 81.7379 146.653 81.7208C146.533 81.6952 146.409 81.6824 146.281 81.6824C145.863 81.6824 145.53 81.8531 145.283 82.1944C145.044 82.5272 144.925 82.9539 144.925 83.4744V87.1992H143.901V80.876ZM150.833 87.3528C150.381 87.3528 149.967 87.276 149.592 87.1224C149.225 86.9688 148.909 86.7512 148.645 86.4696C148.389 86.1795 148.188 85.8296 148.043 85.42C147.906 85.0104 147.838 84.5496 147.838 84.0376C147.838 83.5 147.911 83.0264 148.056 82.6168C148.201 82.1987 148.401 81.8531 148.657 81.58C148.913 81.2984 149.216 81.0851 149.566 80.94C149.925 80.795 150.317 80.7224 150.744 80.7224C151.17 80.7224 151.563 80.7907 151.921 80.9272C152.28 81.0638 152.587 81.2686 152.843 81.5416C153.099 81.8062 153.3 82.1432 153.445 82.5528C153.59 82.9539 153.662 83.4232 153.662 83.9608C153.662 84.0291 153.658 84.0974 153.649 84.1656C153.649 84.2339 153.645 84.2894 153.637 84.332H148.862C148.862 84.6307 148.913 84.9123 149.016 85.1768C149.127 85.4328 149.272 85.659 149.451 85.8552C149.639 86.043 149.852 86.1923 150.091 86.3032C150.338 86.4142 150.603 86.4696 150.885 86.4696C151.345 86.4696 151.721 86.38 152.011 86.2008C152.31 86.0216 152.557 85.804 152.753 85.548L153.368 86.1752C153.095 86.5336 152.753 86.8195 152.344 87.0328C151.943 87.2462 151.439 87.3528 150.833 87.3528ZM150.744 81.5672C150.445 81.5672 150.181 81.6227 149.95 81.7336C149.72 81.8446 149.528 81.9896 149.374 82.1688C149.221 82.348 149.101 82.5528 149.016 82.7832C148.939 83.0136 148.896 83.244 148.888 83.4744H152.587C152.578 83.244 152.532 83.0136 152.446 82.7832C152.369 82.5528 152.254 82.348 152.101 82.1688C151.947 81.9896 151.755 81.8446 151.525 81.7336C151.303 81.6227 151.042 81.5672 150.744 81.5672ZM158.359 85.5608C158.359 85.3731 158.317 85.2195 158.231 85.1C158.146 84.972 158.027 84.8654 157.873 84.78C157.728 84.6947 157.562 84.6222 157.374 84.5624C157.186 84.5027 156.99 84.443 156.785 84.3832C156.546 84.315 156.316 84.2339 156.094 84.14C155.88 84.0462 155.688 83.931 155.518 83.7944C155.347 83.6494 155.211 83.4787 155.108 83.2824C155.006 83.0862 154.955 82.8472 154.955 82.5656C154.955 82.267 155.01 82.0024 155.121 81.772C155.232 81.5416 155.386 81.3496 155.582 81.196C155.778 81.0424 156.008 80.9272 156.273 80.8504C156.538 80.7651 156.823 80.7224 157.131 80.7224C157.591 80.7224 158.014 80.8078 158.398 80.9784C158.782 81.1406 159.098 81.3966 159.345 81.7464L158.679 82.3608C158.492 82.139 158.27 81.9555 158.014 81.8104C157.766 81.6654 157.472 81.5928 157.131 81.5928C156.986 81.5928 156.84 81.6099 156.695 81.644C156.559 81.6782 156.435 81.7336 156.324 81.8104C156.213 81.8787 156.124 81.9683 156.055 82.0792C155.987 82.1902 155.953 82.3224 155.953 82.476C155.953 82.6638 155.996 82.8216 156.081 82.9496C156.166 83.0691 156.282 83.1715 156.427 83.2568C156.58 83.3422 156.751 83.4147 156.939 83.4744C157.126 83.5342 157.323 83.5939 157.527 83.6536C157.766 83.7219 157.992 83.803 158.206 83.8968C158.428 83.9907 158.624 84.1102 158.795 84.2552C158.965 84.3918 159.102 84.5582 159.204 84.7544C159.307 84.9507 159.358 85.1896 159.358 85.4712C159.358 85.804 159.294 86.0899 159.166 86.3288C159.046 86.5592 158.88 86.7512 158.667 86.9048C158.453 87.0584 158.206 87.1694 157.924 87.2376C157.643 87.3144 157.344 87.3528 157.028 87.3528C156.474 87.3528 156 87.259 155.607 87.0712C155.223 86.8835 154.92 86.6403 154.699 86.3416L155.377 85.7016C155.573 85.932 155.799 86.1198 156.055 86.2648C156.32 86.4099 156.648 86.4824 157.041 86.4824C157.22 86.4824 157.387 86.4654 157.54 86.4312C157.702 86.3971 157.843 86.3416 157.963 86.2648C158.082 86.188 158.176 86.0942 158.244 85.9832C158.321 85.8638 158.359 85.723 158.359 85.5608ZM166.697 87.3528C166.193 87.3528 165.749 87.2675 165.365 87.0968C164.99 86.9176 164.674 86.6787 164.418 86.38C164.171 86.0814 163.983 85.7315 163.855 85.3304C163.735 84.9294 163.676 84.4984 163.676 84.0376C163.676 83.5768 163.735 83.1459 163.855 82.7448C163.983 82.3438 164.171 81.9939 164.418 81.6952C164.674 81.3966 164.99 81.1619 165.365 80.9912C165.749 80.812 166.193 80.7224 166.697 80.7224C167.2 80.7224 167.635 80.812 168.002 80.9912C168.378 81.1619 168.689 81.3966 168.937 81.6952C169.184 81.9939 169.367 82.3438 169.487 82.7448C169.615 83.1459 169.679 83.5768 169.679 84.0376C169.679 84.4984 169.615 84.9294 169.487 85.3304C169.367 85.7315 169.184 86.0814 168.937 86.38C168.689 86.6787 168.378 86.9176 168.002 87.0968C167.635 87.2675 167.2 87.3528 166.697 87.3528ZM164.725 84.0376C164.725 84.4046 164.764 84.7416 164.841 85.0488C164.926 85.3475 165.05 85.6078 165.212 85.8296C165.374 86.043 165.579 86.2094 165.826 86.3288C166.074 86.4483 166.364 86.508 166.697 86.508C167.021 86.508 167.302 86.4483 167.541 86.3288C167.789 86.2094 167.989 86.043 168.143 85.8296C168.305 85.6078 168.425 85.3475 168.501 85.0488C168.587 84.7416 168.629 84.4046 168.629 84.0376C168.629 83.6707 168.587 83.3379 168.501 83.0392C168.425 82.732 168.305 82.4718 168.143 82.2584C167.989 82.0366 167.789 81.8659 167.541 81.7464C167.302 81.627 167.021 81.5672 166.697 81.5672C166.364 81.5672 166.074 81.627 165.826 81.7464C165.579 81.8659 165.374 82.0366 165.212 82.2584C165.05 82.4718 164.926 82.732 164.841 83.0392C164.764 83.3379 164.725 83.6707 164.725 84.0376ZM171.326 80.876H172.298V81.8744H172.375C172.529 81.5416 172.746 81.2686 173.028 81.0552C173.31 80.8334 173.668 80.7224 174.103 80.7224C174.828 80.7224 175.4 80.9144 175.818 81.2984C176.245 81.6824 176.458 82.3011 176.458 83.1544V87.1992H175.434V83.3464C175.434 82.6979 175.302 82.2414 175.038 81.9768C174.782 81.7038 174.402 81.5672 173.898 81.5672C173.412 81.5672 173.032 81.7336 172.759 82.0664C172.486 82.3992 172.35 82.8856 172.35 83.5256V87.1992H171.326V80.876ZM181.985 89.6184C181.891 89.6184 181.793 89.6099 181.69 89.5928C181.597 89.5843 181.515 89.5715 181.447 89.5544V88.6712C181.49 88.6798 181.558 88.6883 181.652 88.6968C181.754 88.7054 181.848 88.7096 181.934 88.7096C182.104 88.7096 182.249 88.6968 182.369 88.6712C182.488 88.6456 182.595 88.5859 182.689 88.492C182.791 88.4067 182.889 88.2744 182.983 88.0952C183.077 87.9246 183.179 87.6942 183.29 87.404L180.756 80.876H181.87L183.777 86.1752H183.854L185.774 80.876H186.81L184.327 87.2632C184.165 87.6814 184.007 88.0355 183.854 88.3256C183.709 88.6243 183.546 88.8675 183.367 89.0552C183.188 89.2515 182.987 89.3923 182.766 89.4776C182.552 89.5715 182.292 89.6184 181.985 89.6184ZM190.522 87.3528C190.018 87.3528 189.574 87.2675 189.19 87.0968C188.815 86.9176 188.499 86.6787 188.243 86.38C187.996 86.0814 187.808 85.7315 187.68 85.3304C187.56 84.9294 187.501 84.4984 187.501 84.0376C187.501 83.5768 187.56 83.1459 187.68 82.7448C187.808 82.3438 187.996 81.9939 188.243 81.6952C188.499 81.3966 188.815 81.1619 189.19 80.9912C189.574 80.812 190.018 80.7224 190.522 80.7224C191.025 80.7224 191.46 80.812 191.827 80.9912C192.203 81.1619 192.514 81.3966 192.762 81.6952C193.009 81.9939 193.192 82.3438 193.312 82.7448C193.44 83.1459 193.504 83.5768 193.504 84.0376C193.504 84.4984 193.44 84.9294 193.312 85.3304C193.192 85.7315 193.009 86.0814 192.762 86.38C192.514 86.6787 192.203 86.9176 191.827 87.0968C191.46 87.2675 191.025 87.3528 190.522 87.3528ZM188.55 84.0376C188.55 84.4046 188.589 84.7416 188.666 85.0488C188.751 85.3475 188.875 85.6078 189.037 85.8296C189.199 86.043 189.404 86.2094 189.651 86.3288C189.899 86.4483 190.189 86.508 190.522 86.508C190.846 86.508 191.127 86.4483 191.366 86.3288C191.614 86.2094 191.814 86.043 191.968 85.8296C192.13 85.6078 192.25 85.3475 192.326 85.0488C192.412 84.7416 192.454 84.4046 192.454 84.0376C192.454 83.6707 192.412 83.3379 192.326 83.0392C192.25 82.732 192.13 82.4718 191.968 82.2584C191.814 82.0366 191.614 81.8659 191.366 81.7464C191.127 81.627 190.846 81.5672 190.522 81.5672C190.189 81.5672 189.899 81.627 189.651 81.7464C189.404 81.8659 189.199 82.0366 189.037 82.2584C188.875 82.4718 188.751 82.732 188.666 83.0392C188.589 83.3379 188.55 83.6707 188.55 84.0376ZM197.327 87.3528C196.977 87.3528 196.661 87.3059 196.379 87.212C196.098 87.1182 195.855 86.9731 195.65 86.7768C195.453 86.5806 195.3 86.3288 195.189 86.0216C195.078 85.7144 195.023 85.3475 195.023 84.9208V80.876H196.047V84.7288C196.047 85.3774 196.17 85.8382 196.418 86.1112C196.674 86.3758 197.045 86.508 197.531 86.508C197.992 86.508 198.355 86.3416 198.619 86.0088C198.892 85.676 199.029 85.1896 199.029 84.5496V80.876H200.053V87.1992H199.08V86.2008H199.003C198.85 86.5336 198.636 86.811 198.363 87.0328C198.099 87.2462 197.753 87.3528 197.327 87.3528ZM202.225 80.876H203.198V81.9H203.275C203.412 81.5672 203.608 81.2899 203.864 81.068C204.12 80.8376 204.44 80.7224 204.824 80.7224C205.148 80.7224 205.434 80.7864 205.681 80.9144L205.336 81.836C205.225 81.7763 205.105 81.7379 204.977 81.7208C204.858 81.6952 204.734 81.6824 204.606 81.6824C204.188 81.6824 203.855 81.8531 203.608 82.1944C203.369 82.5272 203.249 82.9539 203.249 83.4744V87.1992H202.225V80.876ZM212.354 87.3528C211.927 87.3528 211.543 87.2718 211.202 87.1096C210.861 86.939 210.566 86.7086 210.319 86.4184C210.071 86.1198 209.879 85.7656 209.743 85.356C209.615 84.9464 209.551 84.5027 209.551 84.0248C209.551 83.547 209.615 83.1075 209.743 82.7064C209.879 82.2968 210.071 81.947 210.319 81.6568C210.566 81.3582 210.861 81.1278 211.202 80.9656C211.543 80.8035 211.927 80.7224 212.354 80.7224C212.874 80.7224 213.322 80.8462 213.698 81.0936C214.073 81.3411 214.342 81.6568 214.504 82.0408H214.581V77.9192H215.605V87.1992H214.632V85.9064H214.556C214.479 86.1283 214.368 86.3288 214.223 86.508C214.086 86.6787 213.92 86.828 213.724 86.956C213.536 87.084 213.322 87.1822 213.084 87.2504C212.853 87.3187 212.61 87.3528 212.354 87.3528ZM212.61 86.4312C212.883 86.4312 213.139 86.3843 213.378 86.2904C213.617 86.188 213.826 86.0387 214.005 85.8424C214.184 85.6376 214.325 85.3859 214.428 85.0872C214.53 84.7886 214.581 84.4387 214.581 84.0376C214.581 83.6366 214.53 83.2867 214.428 82.988C214.325 82.6894 214.184 82.4419 214.005 82.2456C213.826 82.0408 213.617 81.8915 213.378 81.7976C213.139 81.6952 212.883 81.644 212.61 81.644C212.328 81.644 212.064 81.6952 211.816 81.7976C211.577 81.8915 211.364 82.0408 211.176 82.2456C210.997 82.4419 210.856 82.6894 210.754 82.988C210.652 83.2867 210.6 83.6366 210.6 84.0376C210.6 84.4387 210.652 84.7886 210.754 85.0872C210.856 85.3859 210.997 85.6376 211.176 85.8424C211.364 86.0387 211.577 86.188 211.816 86.2904C212.064 86.3843 212.328 86.4312 212.61 86.4312ZM220.246 87.3528C219.794 87.3528 219.38 87.276 219.004 87.1224C218.637 86.9688 218.322 86.7512 218.057 86.4696C217.801 86.1795 217.601 85.8296 217.456 85.42C217.319 85.0104 217.251 84.5496 217.251 84.0376C217.251 83.5 217.323 83.0264 217.468 82.6168C217.613 82.1987 217.814 81.8531 218.07 81.58C218.326 81.2984 218.629 81.0851 218.979 80.94C219.337 80.795 219.73 80.7224 220.156 80.7224C220.583 80.7224 220.976 80.7907 221.334 80.9272C221.692 81.0638 222 81.2686 222.256 81.5416C222.512 81.8062 222.712 82.1432 222.857 82.5528C223.002 82.9539 223.075 83.4232 223.075 83.9608C223.075 84.0291 223.07 84.0974 223.062 84.1656C223.062 84.2339 223.058 84.2894 223.049 84.332H218.275C218.275 84.6307 218.326 84.9123 218.428 85.1768C218.539 85.4328 218.684 85.659 218.864 85.8552C219.051 86.043 219.265 86.1923 219.504 86.3032C219.751 86.4142 220.016 86.4696 220.297 86.4696C220.758 86.4696 221.133 86.38 221.424 86.2008C221.722 86.0216 221.97 85.804 222.166 85.548L222.78 86.1752C222.507 86.5336 222.166 86.8195 221.756 87.0328C221.355 87.2462 220.852 87.3528 220.246 87.3528ZM220.156 81.5672C219.858 81.5672 219.593 81.6227 219.363 81.7336C219.132 81.8446 218.94 81.9896 218.787 82.1688C218.633 82.348 218.514 82.5528 218.428 82.7832C218.352 83.0136 218.309 83.244 218.3 83.4744H222C221.991 83.244 221.944 83.0136 221.859 82.7832C221.782 82.5528 221.667 82.348 221.513 82.1688C221.36 81.9896 221.168 81.8446 220.937 81.7336C220.715 81.6227 220.455 81.5672 220.156 81.5672ZM224.725 77.9192H225.749V87.1992H224.725V77.9192ZM229.116 79.1992C229.116 79.3784 229.052 79.532 228.924 79.66C228.804 79.788 228.642 79.852 228.438 79.852C228.224 79.852 228.058 79.788 227.938 79.66C227.819 79.532 227.759 79.3784 227.759 79.1992C227.759 79.0286 227.819 78.8792 227.938 78.7512C228.058 78.6147 228.224 78.5464 228.438 78.5464C228.642 78.5464 228.804 78.6147 228.924 78.7512C229.052 78.8792 229.116 79.0286 229.116 79.1992ZM227.926 80.876H228.95V87.1992H227.926V80.876ZM230.294 80.876H231.407L233.314 86.1496H233.391L235.311 80.876H236.348L233.89 87.1992H232.738L230.294 80.876ZM240.033 87.3528C239.581 87.3528 239.167 87.276 238.792 87.1224C238.425 86.9688 238.109 86.7512 237.845 86.4696C237.589 86.1795 237.388 85.8296 237.243 85.42C237.106 85.0104 237.038 84.5496 237.038 84.0376C237.038 83.5 237.111 83.0264 237.256 82.6168C237.401 82.1987 237.601 81.8531 237.857 81.58C238.113 81.2984 238.416 81.0851 238.766 80.94C239.125 80.795 239.517 80.7224 239.944 80.7224C240.37 80.7224 240.763 80.7907 241.121 80.9272C241.48 81.0638 241.787 81.2686 242.043 81.5416C242.299 81.8062 242.5 82.1432 242.645 82.5528C242.79 82.9539 242.862 83.4232 242.862 83.9608C242.862 84.0291 242.858 84.0974 242.849 84.1656C242.849 84.2339 242.845 84.2894 242.837 84.332H238.062C238.062 84.6307 238.113 84.9123 238.216 85.1768C238.327 85.4328 238.472 85.659 238.651 85.8552C238.839 86.043 239.052 86.1923 239.291 86.3032C239.538 86.4142 239.803 86.4696 240.085 86.4696C240.545 86.4696 240.921 86.38 241.211 86.2008C241.51 86.0216 241.757 85.804 241.953 85.548L242.568 86.1752C242.295 86.5336 241.953 86.8195 241.544 87.0328C241.143 87.2462 240.639 87.3528 240.033 87.3528ZM239.944 81.5672C239.645 81.5672 239.381 81.6227 239.15 81.7336C238.92 81.8446 238.728 81.9896 238.574 82.1688C238.421 82.348 238.301 82.5528 238.216 82.7832C238.139 83.0136 238.096 83.244 238.088 83.4744H241.787C241.778 83.244 241.732 83.0136 241.646 82.7832C241.569 82.5528 241.454 82.348 241.301 82.1688C241.147 81.9896 240.955 81.8446 240.725 81.7336C240.503 81.6227 240.242 81.5672 239.944 81.5672ZM244.513 80.876H245.486V81.9H245.563C245.699 81.5672 245.895 81.2899 246.151 81.068C246.407 80.8376 246.727 80.7224 247.111 80.7224C247.436 80.7224 247.722 80.7864 247.969 80.9144L247.623 81.836C247.512 81.7763 247.393 81.7379 247.265 81.7208C247.146 81.6952 247.022 81.6824 246.894 81.6824C246.476 81.6824 246.143 81.8531 245.895 82.1944C245.656 82.5272 245.537 82.9539 245.537 83.4744V87.1992H244.513V80.876ZM249.685 89.6184C249.591 89.6184 249.493 89.6099 249.39 89.5928C249.297 89.5843 249.215 89.5715 249.147 89.5544V88.6712C249.19 88.6798 249.258 88.6883 249.352 88.6968C249.454 88.7054 249.548 88.7096 249.634 88.7096C249.804 88.7096 249.949 88.6968 250.069 88.6712C250.188 88.6456 250.295 88.5859 250.389 88.492C250.491 88.4067 250.589 88.2744 250.683 88.0952C250.777 87.9246 250.879 87.6942 250.99 87.404L248.456 80.876H249.57L251.477 86.1752H251.554L253.474 80.876H254.51L252.027 87.2632C251.865 87.6814 251.707 88.0355 251.554 88.3256C251.409 88.6243 251.246 88.8675 251.067 89.0552C250.888 89.2515 250.687 89.3923 250.466 89.4776C250.252 89.5715 249.992 89.6184 249.685 89.6184ZM261.204 87.3528C260.777 87.3528 260.393 87.2718 260.052 87.1096C259.711 86.939 259.416 86.7086 259.169 86.4184C258.921 86.1198 258.729 85.7656 258.593 85.356C258.465 84.9464 258.401 84.5027 258.401 84.0248C258.401 83.547 258.465 83.1075 258.593 82.7064C258.729 82.2968 258.921 81.947 259.169 81.6568C259.416 81.3582 259.711 81.1278 260.052 80.9656C260.393 80.8035 260.777 80.7224 261.204 80.7224C261.724 80.7224 262.172 80.8462 262.548 81.0936C262.923 81.3411 263.192 81.6568 263.354 82.0408H263.431V77.9192H264.455V87.1992H263.482V85.9064H263.406C263.329 86.1283 263.218 86.3288 263.073 86.508C262.936 86.6787 262.77 86.828 262.574 86.956C262.386 87.084 262.172 87.1822 261.934 87.2504C261.703 87.3187 261.46 87.3528 261.204 87.3528ZM261.46 86.4312C261.733 86.4312 261.989 86.3843 262.228 86.2904C262.467 86.188 262.676 86.0387 262.855 85.8424C263.034 85.6376 263.175 85.3859 263.278 85.0872C263.38 84.7886 263.431 84.4387 263.431 84.0376C263.431 83.6366 263.38 83.2867 263.278 82.988C263.175 82.6894 263.034 82.4419 262.855 82.2456C262.676 82.0408 262.467 81.8915 262.228 81.7976C261.989 81.6952 261.733 81.644 261.46 81.644C261.178 81.644 260.914 81.6952 260.666 81.7976C260.427 81.8915 260.214 82.0408 260.026 82.2456C259.847 82.4419 259.706 82.6894 259.604 82.988C259.502 83.2867 259.45 83.6366 259.45 84.0376C259.45 84.4387 259.502 84.7886 259.604 85.0872C259.706 85.3859 259.847 85.6376 260.026 85.8424C260.214 86.0387 260.427 86.188 260.666 86.2904C260.914 86.3843 261.178 86.4312 261.46 86.4312ZM268.021 87.3528C267.731 87.3528 267.462 87.3059 267.214 87.212C266.975 87.1182 266.766 86.9859 266.587 86.8152C266.408 86.6446 266.267 86.444 266.165 86.2136C266.071 85.9747 266.024 85.7144 266.024 85.4328C266.024 84.8867 266.22 84.4472 266.613 84.1144C267.005 83.7816 267.564 83.5939 268.29 83.5512L269.954 83.4488V83.0008C269.954 82.5144 269.834 82.1646 269.595 81.9512C269.365 81.7294 269.032 81.6184 268.597 81.6184C268.23 81.6184 267.914 81.6867 267.65 81.8232C267.385 81.9598 267.18 82.1091 267.035 82.2712L266.421 81.6568C266.643 81.3838 266.941 81.1619 267.317 80.9912C267.701 80.812 268.136 80.7224 268.622 80.7224C269.058 80.7224 269.424 80.7822 269.723 80.9016C270.022 81.0126 270.261 81.1662 270.44 81.3624C270.628 81.5587 270.76 81.7891 270.837 82.0536C270.922 82.3182 270.965 82.5998 270.965 82.8984V87.1992H270.005V86.124H269.928C269.757 86.508 269.518 86.811 269.211 87.0328C268.904 87.2462 268.507 87.3528 268.021 87.3528ZM268.174 86.4824C268.703 86.4824 269.13 86.3288 269.454 86.0216C269.787 85.7059 269.954 85.2878 269.954 84.7672V84.2168L268.341 84.332C267.487 84.4003 267.061 84.7587 267.061 85.4072C267.061 85.7315 267.163 85.9918 267.368 86.188C267.581 86.3843 267.85 86.4824 268.174 86.4824ZM276.072 85.5608C276.072 85.3731 276.029 85.2195 275.944 85.1C275.859 84.972 275.739 84.8654 275.586 84.78C275.44 84.6947 275.274 84.6222 275.086 84.5624C274.899 84.5027 274.702 84.443 274.498 84.3832C274.259 84.315 274.028 84.2339 273.806 84.14C273.593 84.0462 273.401 83.931 273.23 83.7944C273.06 83.6494 272.923 83.4787 272.821 83.2824C272.718 83.0862 272.667 82.8472 272.667 82.5656C272.667 82.267 272.723 82.0024 272.834 81.772C272.944 81.5416 273.098 81.3496 273.294 81.196C273.491 81.0424 273.721 80.9272 273.986 80.8504C274.25 80.7651 274.536 80.7224 274.843 80.7224C275.304 80.7224 275.726 80.8078 276.11 80.9784C276.494 81.1406 276.81 81.3966 277.058 81.7464L276.392 82.3608C276.204 82.139 275.982 81.9555 275.726 81.8104C275.479 81.6654 275.184 81.5928 274.843 81.5928C274.698 81.5928 274.553 81.6099 274.408 81.644C274.271 81.6782 274.148 81.7336 274.037 81.8104C273.926 81.8787 273.836 81.9683 273.768 82.0792C273.7 82.1902 273.666 82.3224 273.666 82.476C273.666 82.6638 273.708 82.8216 273.794 82.9496C273.879 83.0691 273.994 83.1715 274.139 83.2568C274.293 83.3422 274.463 83.4147 274.651 83.4744C274.839 83.5342 275.035 83.5939 275.24 83.6536C275.479 83.7219 275.705 83.803 275.918 83.8968C276.14 83.9907 276.336 84.1102 276.507 84.2552C276.678 84.3918 276.814 84.5582 276.917 84.7544C277.019 84.9507 277.07 85.1896 277.07 85.4712C277.07 85.804 277.006 86.0899 276.878 86.3288C276.759 86.5592 276.592 86.7512 276.379 86.9048C276.166 87.0584 275.918 87.1694 275.637 87.2376C275.355 87.3144 275.056 87.3528 274.741 87.3528C274.186 87.3528 273.712 87.259 273.32 87.0712C272.936 86.8835 272.633 86.6403 272.411 86.3416L273.09 85.7016C273.286 85.932 273.512 86.1198 273.768 86.2648C274.032 86.4099 274.361 86.4824 274.754 86.4824C274.933 86.4824 275.099 86.4654 275.253 86.4312C275.415 86.3971 275.556 86.3416 275.675 86.2648C275.795 86.188 275.888 86.0942 275.957 85.9832C276.034 85.8638 276.072 85.723 276.072 85.5608ZM278.838 77.9192H279.862V81.772H279.939C280.084 81.4819 280.293 81.2344 280.566 81.0296C280.839 80.8248 281.189 80.7224 281.616 80.7224C282.341 80.7224 282.913 80.9144 283.331 81.2984C283.757 81.6824 283.971 82.3011 283.971 83.1544V87.1992H282.947V83.3464C282.947 82.6979 282.815 82.2414 282.55 81.9768C282.294 81.7038 281.914 81.5672 281.411 81.5672C280.924 81.5672 280.545 81.7336 280.272 82.0664C279.999 82.3992 279.862 82.8856 279.862 83.5256V87.1992H278.838V77.9192ZM289.214 87.3528C288.958 87.3528 288.711 87.3187 288.472 87.2504C288.241 87.1822 288.028 87.084 287.832 86.956C287.644 86.828 287.478 86.6787 287.333 86.508C287.196 86.3288 287.089 86.1283 287.013 85.9064H286.936V87.1992H285.963V77.9192H286.987V82.0408H287.064C287.226 81.6568 287.495 81.3411 287.87 81.0936C288.246 80.8462 288.694 80.7224 289.214 80.7224C289.632 80.7224 290.012 80.8035 290.353 80.9656C290.703 81.1278 291.002 81.3582 291.249 81.6568C291.497 81.947 291.685 82.2968 291.813 82.7064C291.949 83.1075 292.017 83.547 292.017 84.0248C292.017 84.5027 291.949 84.9464 291.813 85.356C291.685 85.7656 291.497 86.1198 291.249 86.4184C291.002 86.7086 290.703 86.939 290.353 87.1096C290.012 87.2718 289.632 87.3528 289.214 87.3528ZM288.958 86.4312C289.24 86.4312 289.5 86.3843 289.739 86.2904C289.986 86.188 290.2 86.0387 290.379 85.8424C290.567 85.6376 290.712 85.3859 290.814 85.0872C290.917 84.7886 290.968 84.4387 290.968 84.0376C290.968 83.6366 290.917 83.2867 290.814 82.988C290.712 82.6894 290.567 82.4419 290.379 82.2456C290.2 82.0408 289.986 81.8915 289.739 81.7976C289.5 81.6952 289.24 81.644 288.958 81.644C288.685 81.644 288.429 81.6952 288.19 81.7976C287.951 81.8915 287.742 82.0408 287.563 82.2456C287.384 82.4419 287.243 82.6894 287.141 82.988C287.038 83.2867 286.987 83.6366 286.987 84.0376C286.987 84.4387 287.038 84.7886 287.141 85.0872C287.243 85.3859 287.384 85.6376 287.563 85.8424C287.742 86.0387 287.951 86.188 288.19 86.2904C288.429 86.3843 288.685 86.4312 288.958 86.4312ZM296.159 87.3528C295.656 87.3528 295.212 87.2675 294.828 87.0968C294.452 86.9176 294.137 86.6787 293.881 86.38C293.633 86.0814 293.445 85.7315 293.317 85.3304C293.198 84.9294 293.138 84.4984 293.138 84.0376C293.138 83.5768 293.198 83.1459 293.317 82.7448C293.445 82.3438 293.633 81.9939 293.881 81.6952C294.137 81.3966 294.452 81.1619 294.828 80.9912C295.212 80.812 295.656 80.7224 296.159 80.7224C296.662 80.7224 297.098 80.812 297.465 80.9912C297.84 81.1619 298.152 81.3966 298.399 81.6952C298.646 81.9939 298.83 82.3438 298.949 82.7448C299.077 83.1459 299.141 83.5768 299.141 84.0376C299.141 84.4984 299.077 84.9294 298.949 85.3304C298.83 85.7315 298.646 86.0814 298.399 86.38C298.152 86.6787 297.84 86.9176 297.465 87.0968C297.098 87.2675 296.662 87.3528 296.159 87.3528ZM294.188 84.0376C294.188 84.4046 294.226 84.7416 294.303 85.0488C294.388 85.3475 294.512 85.6078 294.674 85.8296C294.836 86.043 295.041 86.2094 295.289 86.3288C295.536 86.4483 295.826 86.508 296.159 86.508C296.483 86.508 296.765 86.4483 297.004 86.3288C297.251 86.2094 297.452 86.043 297.605 85.8296C297.768 85.6078 297.887 85.3475 297.964 85.0488C298.049 84.7416 298.092 84.4046 298.092 84.0376C298.092 83.6707 298.049 83.3379 297.964 83.0392C297.887 82.732 297.768 82.4718 297.605 82.2584C297.452 82.0366 297.251 81.8659 297.004 81.7464C296.765 81.627 296.483 81.5672 296.159 81.5672C295.826 81.5672 295.536 81.627 295.289 81.7464C295.041 81.8659 294.836 82.0366 294.674 82.2584C294.512 82.4718 294.388 82.732 294.303 83.0392C294.226 83.3379 294.188 83.6707 294.188 84.0376ZM302.183 87.3528C301.893 87.3528 301.624 87.3059 301.377 87.212C301.138 87.1182 300.929 86.9859 300.75 86.8152C300.57 86.6446 300.43 86.444 300.327 86.2136C300.233 85.9747 300.186 85.7144 300.186 85.4328C300.186 84.8867 300.383 84.4472 300.775 84.1144C301.168 83.7816 301.727 83.5939 302.452 83.5512L304.116 83.4488V83.0008C304.116 82.5144 303.997 82.1646 303.758 81.9512C303.527 81.7294 303.194 81.6184 302.759 81.6184C302.392 81.6184 302.077 81.6867 301.812 81.8232C301.547 81.9598 301.343 82.1091 301.198 82.2712L300.583 81.6568C300.805 81.3838 301.104 81.1619 301.479 80.9912C301.863 80.812 302.298 80.7224 302.785 80.7224C303.22 80.7224 303.587 80.7822 303.886 80.9016C304.184 81.0126 304.423 81.1662 304.602 81.3624C304.79 81.5587 304.922 81.7891 304.999 82.0536C305.085 82.3182 305.127 82.5998 305.127 82.8984V87.1992H304.167V86.124H304.09C303.92 86.508 303.681 86.811 303.374 87.0328C303.066 87.2462 302.67 87.3528 302.183 87.3528ZM302.337 86.4824C302.866 86.4824 303.293 86.3288 303.617 86.0216C303.95 85.7059 304.116 85.2878 304.116 84.7672V84.2168L302.503 84.332C301.65 84.4003 301.223 84.7587 301.223 85.4072C301.223 85.7315 301.326 85.9918 301.53 86.188C301.744 86.3843 302.013 86.4824 302.337 86.4824ZM307.188 80.876H308.161V81.9H308.238C308.374 81.5672 308.57 81.2899 308.826 81.068C309.082 80.8376 309.402 80.7224 309.786 80.7224C310.111 80.7224 310.397 80.7864 310.644 80.9144L310.298 81.836C310.187 81.7763 310.068 81.7379 309.94 81.7208C309.821 81.6952 309.697 81.6824 309.569 81.6824C309.151 81.6824 308.818 81.8531 308.57 82.1944C308.331 82.5272 308.212 82.9539 308.212 83.4744V87.1992H307.188V80.876ZM313.929 87.3528C313.502 87.3528 313.118 87.2718 312.777 87.1096C312.436 86.939 312.141 86.7086 311.894 86.4184C311.646 86.1198 311.454 85.7656 311.318 85.356C311.19 84.9464 311.126 84.5027 311.126 84.0248C311.126 83.547 311.19 83.1075 311.318 82.7064C311.454 82.2968 311.646 81.947 311.894 81.6568C312.141 81.3582 312.436 81.1278 312.777 80.9656C313.118 80.8035 313.502 80.7224 313.929 80.7224C314.449 80.7224 314.897 80.8462 315.273 81.0936C315.648 81.3411 315.917 81.6568 316.079 82.0408H316.156V77.9192H317.18V87.1992H316.207V85.9064H316.131C316.054 86.1283 315.943 86.3288 315.798 86.508C315.661 86.6787 315.495 86.828 315.299 86.956C315.111 87.084 314.897 87.1822 314.659 87.2504C314.428 87.3187 314.185 87.3528 313.929 87.3528ZM314.185 86.4312C314.458 86.4312 314.714 86.3843 314.953 86.2904C315.192 86.188 315.401 86.0387 315.58 85.8424C315.759 85.6376 315.9 85.3859 316.003 85.0872C316.105 84.7886 316.156 84.4387 316.156 84.0376C316.156 83.6366 316.105 83.2867 316.003 82.988C315.9 82.6894 315.759 82.4419 315.58 82.2456C315.401 82.0408 315.192 81.8915 314.953 81.7976C314.714 81.6952 314.458 81.644 314.185 81.644C313.903 81.644 313.639 81.6952 313.391 81.7976C313.152 81.8915 312.939 82.0408 312.751 82.2456C312.572 82.4419 312.431 82.6894 312.329 82.988C312.227 83.2867 312.175 83.6366 312.175 84.0376C312.175 84.4387 312.227 84.7886 312.329 85.0872C312.431 85.3859 312.572 85.6376 312.751 85.8424C312.939 86.0387 313.152 86.188 313.391 86.2904C313.639 86.3843 313.903 86.4312 314.185 86.4312ZM319.427 77.9064C319.624 77.8382 319.875 77.804 320.183 77.804C320.49 77.804 320.741 77.8382 320.938 77.9064L320.439 84.7672H319.927L319.427 77.9064ZM320.183 87.3528C319.944 87.3528 319.756 87.276 319.619 87.1224C319.483 86.9688 319.415 86.7939 319.415 86.5976C319.415 86.3928 319.483 86.2179 319.619 86.0728C319.756 85.9192 319.944 85.8424 320.183 85.8424C320.43 85.8424 320.618 85.9192 320.746 86.0728C320.882 86.2179 320.951 86.3928 320.951 86.5976C320.951 86.7939 320.882 86.9688 320.746 87.1224C320.618 87.276 320.43 87.3528 320.183 87.3528Z" fill="#242E30"/>
<rect width="470" height="77.4" transform="translate(14 96.4004)" fill="white"/>
<g clip-path="url(#clip1_7646_3028)">
<path d="M354.398 135.1C354.398 124.33 363.129 115.6 373.898 115.6H445.298C456.068 115.6 464.798 124.33 464.798 135.1C464.798 145.869 456.068 154.6 445.298 154.6H373.898C363.129 154.6 354.398 145.869 354.398 135.1Z" fill="#F36805"/>
<path d="M354.398 135.1C354.398 124.33 363.129 115.6 373.898 115.6H445.298C456.068 115.6 464.798 124.33 464.798 135.1C464.798 145.869 456.068 154.6 445.298 154.6H373.898C363.129 154.6 354.398 145.869 354.398 135.1Z" fill="white" fill-opacity="0.01"/>
<path d="M378.3 140.792C377.351 140.792 376.567 140.648 375.948 140.36C375.33 140.061 374.818 139.666 374.412 139.176L375.788 137.896C376.087 138.226 376.434 138.498 376.828 138.712C377.234 138.925 377.74 139.032 378.348 139.032C378.839 139.032 379.26 138.925 379.612 138.712C379.964 138.498 380.14 138.157 380.14 137.688C380.14 137.464 380.082 137.282 379.964 137.144C379.858 136.994 379.698 136.866 379.484 136.76C379.282 136.642 379.026 136.536 378.716 136.44C378.418 136.344 378.076 136.237 377.692 136.12C377.33 136.013 376.972 135.885 376.62 135.736C376.268 135.576 375.954 135.384 375.676 135.16C375.41 134.925 375.191 134.642 375.02 134.312C374.86 133.97 374.78 133.56 374.78 133.08C374.78 132.589 374.871 132.152 375.052 131.768C375.244 131.384 375.506 131.064 375.836 130.808C376.178 130.541 376.583 130.344 377.052 130.216C377.522 130.077 378.039 130.008 378.604 130.008C379.458 130.008 380.183 130.146 380.78 130.424C381.378 130.69 381.863 131.074 382.236 131.576L380.86 132.872C380.604 132.562 380.29 132.306 379.916 132.104C379.554 131.89 379.111 131.784 378.588 131.784C378.375 131.784 378.167 131.805 377.964 131.848C377.772 131.89 377.602 131.965 377.452 132.072C377.303 132.168 377.18 132.296 377.084 132.456C376.999 132.605 376.956 132.792 376.956 133.016C376.956 133.24 377.01 133.426 377.116 133.576C377.234 133.725 377.394 133.858 377.596 133.976C377.81 134.082 378.066 134.184 378.364 134.28C378.663 134.376 379.004 134.482 379.388 134.6C379.751 134.717 380.108 134.85 380.46 135C380.812 135.149 381.127 135.341 381.404 135.576C381.682 135.8 381.9 136.082 382.06 136.424C382.231 136.754 382.316 137.16 382.316 137.64C382.316 138.152 382.215 138.605 382.012 139C381.82 139.394 381.543 139.725 381.18 139.992C380.828 140.248 380.407 140.445 379.916 140.584C379.426 140.722 378.887 140.792 378.3 140.792ZM387.03 140.776C386.155 140.776 385.515 140.541 385.11 140.072C384.715 139.602 384.518 138.893 384.518 137.944V134.312H383.27V132.696H384.518V130.552H386.518V132.696H388.822V134.312H386.518V137.928C386.518 138.344 386.592 138.642 386.742 138.824C386.891 138.994 387.115 139.08 387.414 139.08C387.627 139.08 387.819 139.042 387.99 138.968C388.16 138.882 388.31 138.781 388.438 138.664L389.158 140.04C388.891 140.296 388.587 140.482 388.246 140.6C387.904 140.717 387.499 140.776 387.03 140.776ZM392.598 140.792C392.246 140.792 391.91 140.733 391.59 140.616C391.281 140.509 391.009 140.354 390.774 140.152C390.54 139.938 390.353 139.682 390.214 139.384C390.086 139.085 390.022 138.749 390.022 138.376C390.022 137.672 390.273 137.112 390.774 136.696C391.276 136.28 392.038 136.045 393.062 135.992L394.918 135.88V135.56C394.918 135.048 394.764 134.696 394.454 134.504C394.145 134.312 393.761 134.216 393.302 134.216C392.94 134.216 392.598 134.285 392.278 134.424C391.958 134.552 391.718 134.712 391.558 134.904L390.422 133.752C390.7 133.389 391.1 133.09 391.622 132.856C392.156 132.621 392.806 132.504 393.574 132.504C394.705 132.504 395.548 132.765 396.102 133.288C396.657 133.81 396.934 134.52 396.934 135.416V140.6H395.03V139.336H394.934C394.732 139.784 394.438 140.141 394.054 140.408C393.67 140.664 393.185 140.792 392.598 140.792ZM393.19 139.336C393.702 139.336 394.118 139.192 394.438 138.904C394.758 138.605 394.918 138.189 394.918 137.656V137.128L393.302 137.256C392.47 137.309 392.054 137.661 392.054 138.312C392.054 138.642 392.161 138.898 392.374 139.08C392.588 139.25 392.86 139.336 393.19 139.336ZM398.911 132.696H400.815V134.024H400.911C401.071 133.565 401.317 133.197 401.647 132.92C401.989 132.642 402.415 132.504 402.927 132.504C403.322 132.504 403.69 132.568 404.031 132.696L403.471 134.536C403.354 134.461 403.215 134.408 403.055 134.376C402.895 134.344 402.741 134.328 402.591 134.328C402.101 134.328 401.701 134.498 401.391 134.84C401.082 135.17 400.927 135.64 400.927 136.248V140.6H398.911V132.696ZM408.248 140.776C407.374 140.776 406.734 140.541 406.328 140.072C405.934 139.602 405.736 138.893 405.736 137.944V134.312H404.488V132.696H405.736V130.552H407.736V132.696H410.04V134.312H407.736V137.928C407.736 138.344 407.811 138.642 407.96 138.824C408.11 138.994 408.334 139.08 408.632 139.08C408.846 139.08 409.038 139.042 409.208 138.968C409.379 138.882 409.528 138.781 409.656 138.664L410.376 140.04C410.11 140.296 409.806 140.482 409.464 140.6C409.123 140.717 408.718 140.776 408.248 140.776ZM418.623 140.776C417.749 140.776 417.109 140.541 416.703 140.072C416.309 139.602 416.111 138.893 416.111 137.944V134.312H414.863V132.696H416.111V130.552H418.111V132.696H420.415V134.312H418.111V137.928C418.111 138.344 418.186 138.642 418.335 138.824C418.485 138.994 418.709 139.08 419.007 139.08C419.221 139.08 419.413 139.042 419.583 138.968C419.754 138.882 419.903 138.781 420.031 138.664L420.751 140.04C420.485 140.296 420.181 140.482 419.839 140.6C419.498 140.717 419.093 140.776 418.623 140.776ZM425.508 140.792C424.846 140.792 424.265 140.685 423.764 140.472C423.273 140.248 422.857 139.949 422.516 139.576C422.185 139.202 421.934 138.765 421.764 138.264C421.604 137.752 421.524 137.213 421.524 136.648C421.524 136.082 421.604 135.549 421.764 135.048C421.934 134.546 422.185 134.109 422.516 133.736C422.857 133.352 423.273 133.053 423.764 132.84C424.265 132.616 424.846 132.504 425.508 132.504C426.169 132.504 426.745 132.616 427.236 132.84C427.737 133.053 428.148 133.352 428.468 133.736C428.798 134.109 429.044 134.546 429.204 135.048C429.374 135.549 429.46 136.082 429.46 136.648C429.46 137.213 429.374 137.752 429.204 138.264C429.044 138.765 428.798 139.202 428.468 139.576C428.148 139.949 427.737 140.248 427.236 140.472C426.745 140.685 426.169 140.792 425.508 140.792ZM423.588 136.648C423.588 137.426 423.753 138.04 424.084 138.488C424.425 138.936 424.9 139.16 425.508 139.16C426.105 139.16 426.569 138.936 426.9 138.488C427.241 138.04 427.412 137.426 427.412 136.648C427.412 135.869 427.241 135.256 426.9 134.808C426.569 134.36 426.105 134.136 425.508 134.136C424.9 134.136 424.425 134.36 424.084 134.808C423.753 135.256 423.588 135.869 423.588 136.648ZM433.677 140.792C432.706 140.792 432.002 140.53 431.565 140.008C431.128 139.474 430.909 138.674 430.909 137.608V132.696H432.925V137.208C432.925 137.848 433.037 138.322 433.261 138.632C433.485 138.941 433.853 139.096 434.365 139.096C434.856 139.096 435.224 138.93 435.469 138.6C435.725 138.258 435.853 137.768 435.853 137.128V132.696H437.869V140.6H435.965V139.32H435.869C435.688 139.746 435.41 140.098 435.037 140.376C434.664 140.653 434.21 140.792 433.677 140.792ZM439.974 132.696H441.878V134.024H441.974C442.134 133.565 442.379 133.197 442.71 132.92C443.051 132.642 443.478 132.504 443.99 132.504C444.385 132.504 444.753 132.568 445.094 132.696L444.534 134.536C444.417 134.461 444.278 134.408 444.118 134.376C443.958 134.344 443.803 134.328 443.654 134.328C443.163 134.328 442.763 134.498 442.454 134.84C442.145 135.17 441.99 135.64 441.99 136.248V140.6H439.974V132.696Z" fill="white"/>
</g>
<g clip-path="url(#clip2_7646_3028)">
<path d="M224.199 135.1C224.199 124.33 232.93 115.6 243.699 115.6H322.099C332.869 115.6 341.599 124.33 341.599 135.1C341.599 145.869 332.869 154.6 322.099 154.6H243.699C232.93 154.6 224.199 145.869 224.199 135.1Z" fill="white" fill-opacity="0.01"/>
<path d="M247.976 140.792C247.027 140.792 246.243 140.648 245.624 140.36C245.006 140.061 244.494 139.666 244.088 139.176L245.464 137.896C245.763 138.226 246.11 138.498 246.504 138.712C246.91 138.925 247.416 139.032 248.024 139.032C248.515 139.032 248.936 138.925 249.288 138.712C249.64 138.498 249.816 138.157 249.816 137.688C249.816 137.464 249.758 137.282 249.64 137.144C249.534 136.994 249.374 136.866 249.16 136.76C248.958 136.642 248.702 136.536 248.392 136.44C248.094 136.344 247.752 136.237 247.368 136.12C247.006 136.013 246.648 135.885 246.296 135.736C245.944 135.576 245.63 135.384 245.352 135.16C245.086 134.925 244.867 134.642 244.696 134.312C244.536 133.97 244.456 133.56 244.456 133.08C244.456 132.589 244.547 132.152 244.728 131.768C244.92 131.384 245.182 131.064 245.512 130.808C245.854 130.541 246.259 130.344 246.728 130.216C247.198 130.077 247.715 130.008 248.28 130.008C249.134 130.008 249.859 130.146 250.456 130.424C251.054 130.69 251.539 131.074 251.912 131.576L250.536 132.872C250.28 132.562 249.966 132.306 249.592 132.104C249.23 131.89 248.787 131.784 248.264 131.784C248.051 131.784 247.843 131.805 247.64 131.848C247.448 131.89 247.278 131.965 247.128 132.072C246.979 132.168 246.856 132.296 246.76 132.456C246.675 132.605 246.632 132.792 246.632 133.016C246.632 133.24 246.686 133.426 246.792 133.576C246.91 133.725 247.07 133.858 247.272 133.976C247.486 134.082 247.742 134.184 248.04 134.28C248.339 134.376 248.68 134.482 249.064 134.6C249.427 134.717 249.784 134.85 250.136 135C250.488 135.149 250.803 135.341 251.08 135.576C251.358 135.8 251.576 136.082 251.736 136.424C251.907 136.754 251.992 137.16 251.992 137.64C251.992 138.152 251.891 138.605 251.688 139C251.496 139.394 251.219 139.725 250.856 139.992C250.504 140.248 250.083 140.445 249.592 140.584C249.102 140.722 248.563 140.792 247.976 140.792ZM257.089 140.792C256.428 140.792 255.852 140.685 255.361 140.472C254.871 140.258 254.455 139.965 254.113 139.592C253.783 139.208 253.532 138.765 253.361 138.264C253.201 137.762 253.121 137.224 253.121 136.648C253.121 136.061 253.201 135.517 253.361 135.016C253.521 134.504 253.761 134.066 254.081 133.704C254.401 133.33 254.801 133.037 255.281 132.824C255.761 132.61 256.321 132.504 256.961 132.504C257.601 132.504 258.161 132.605 258.641 132.808C259.121 133.01 259.516 133.293 259.825 133.656C260.135 134.018 260.364 134.45 260.513 134.952C260.673 135.442 260.753 135.981 260.753 136.568C260.753 136.674 260.743 136.797 260.721 136.936C260.711 137.074 260.695 137.186 260.673 137.272H255.169C255.201 137.56 255.276 137.821 255.393 138.056C255.521 138.28 255.676 138.472 255.857 138.632C256.049 138.792 256.257 138.914 256.481 139C256.716 139.074 256.956 139.112 257.201 139.112C257.66 139.112 258.044 139.032 258.353 138.872C258.663 138.712 258.913 138.509 259.105 138.264L260.241 139.448C259.943 139.853 259.527 140.178 258.993 140.424C258.46 140.669 257.825 140.792 257.089 140.792ZM256.961 134.04C256.449 134.04 256.033 134.205 255.713 134.536C255.393 134.866 255.207 135.304 255.153 135.848H258.737C258.684 135.304 258.497 134.866 258.177 134.536C257.868 134.205 257.463 134.04 256.961 134.04ZM265.746 140.792C265.084 140.792 264.508 140.685 264.018 140.472C263.527 140.258 263.111 139.965 262.77 139.592C262.439 139.208 262.188 138.765 262.018 138.264C261.858 137.762 261.778 137.224 261.778 136.648C261.778 136.061 261.858 135.517 262.018 135.016C262.178 134.504 262.418 134.066 262.738 133.704C263.058 133.33 263.458 133.037 263.938 132.824C264.418 132.61 264.978 132.504 265.618 132.504C266.258 132.504 266.818 132.605 267.298 132.808C267.778 133.01 268.172 133.293 268.482 133.656C268.791 134.018 269.02 134.45 269.17 134.952C269.33 135.442 269.41 135.981 269.41 136.568C269.41 136.674 269.399 136.797 269.378 136.936C269.367 137.074 269.351 137.186 269.33 137.272H263.826C263.858 137.56 263.932 137.821 264.05 138.056C264.178 138.28 264.332 138.472 264.514 138.632C264.706 138.792 264.914 138.914 265.138 139C265.372 139.074 265.612 139.112 265.858 139.112C266.316 139.112 266.7 139.032 267.01 138.872C267.319 138.712 267.57 138.509 267.762 138.264L268.898 139.448C268.599 139.853 268.183 140.178 267.65 140.424C267.116 140.669 266.482 140.792 265.746 140.792ZM265.618 134.04C265.106 134.04 264.69 134.205 264.37 134.536C264.05 134.866 263.863 135.304 263.81 135.848H267.394C267.34 135.304 267.154 134.866 266.834 134.536C266.524 134.205 266.119 134.04 265.618 134.04ZM277.03 130.504C277.03 130.802 276.923 131.069 276.71 131.304C276.507 131.538 276.219 131.656 275.846 131.656C275.462 131.656 275.168 131.538 274.966 131.304C274.763 131.069 274.662 130.802 274.662 130.504C274.662 130.194 274.763 129.928 274.966 129.704C275.168 129.469 275.462 129.352 275.846 129.352C276.219 129.352 276.507 129.469 276.71 129.704C276.923 129.928 277.03 130.194 277.03 130.504ZM274.822 132.696H276.838V140.6H274.822V132.696ZM282.002 140.776C281.128 140.776 280.488 140.541 280.082 140.072C279.688 139.602 279.49 138.893 279.49 137.944V134.312H278.242V132.696H279.49V130.552H281.49V132.696H283.794V134.312H281.49V137.928C281.49 138.344 281.565 138.642 281.714 138.824C281.864 138.994 282.088 139.08 282.386 139.08C282.6 139.08 282.792 139.042 282.962 138.968C283.133 138.882 283.282 138.781 283.41 138.664L284.13 140.04C283.864 140.296 283.56 140.482 283.218 140.6C282.877 140.717 282.472 140.776 282.002 140.776ZM289.337 129H291.353V140.6H289.337V129ZM295.446 140.792C295.094 140.792 294.758 140.733 294.438 140.616C294.129 140.509 293.857 140.354 293.622 140.152C293.387 139.938 293.201 139.682 293.062 139.384C292.934 139.085 292.87 138.749 292.87 138.376C292.87 137.672 293.121 137.112 293.622 136.696C294.123 136.28 294.886 136.045 295.91 135.992L297.766 135.88V135.56C297.766 135.048 297.611 134.696 297.302 134.504C296.993 134.312 296.609 134.216 296.15 134.216C295.787 134.216 295.446 134.285 295.126 134.424C294.806 134.552 294.566 134.712 294.406 134.904L293.27 133.752C293.547 133.389 293.947 133.09 294.47 132.856C295.003 132.621 295.654 132.504 296.422 132.504C297.553 132.504 298.395 132.765 298.95 133.288C299.505 133.81 299.782 134.52 299.782 135.416V140.6H297.878V139.336H297.782C297.579 139.784 297.286 140.141 296.902 140.408C296.518 140.664 296.033 140.792 295.446 140.792ZM296.038 139.336C296.55 139.336 296.966 139.192 297.286 138.904C297.606 138.605 297.766 138.189 297.766 137.656V137.128L296.15 137.256C295.318 137.309 294.902 137.661 294.902 138.312C294.902 138.642 295.009 138.898 295.222 139.08C295.435 139.25 295.707 139.336 296.038 139.336ZM304.799 140.776C303.924 140.776 303.284 140.541 302.879 140.072C302.484 139.602 302.287 138.893 302.287 137.944V134.312H301.039V132.696H302.287V130.552H304.287V132.696H306.591V134.312H304.287V137.928C304.287 138.344 304.362 138.642 304.511 138.824C304.66 138.994 304.884 139.08 305.183 139.08C305.396 139.08 305.588 139.042 305.759 138.968C305.93 138.882 306.079 138.781 306.207 138.664L306.927 140.04C306.66 140.296 306.356 140.482 306.015 140.6C305.674 140.717 305.268 140.776 304.799 140.776ZM311.668 140.792C311.006 140.792 310.43 140.685 309.94 140.472C309.449 140.258 309.033 139.965 308.692 139.592C308.361 139.208 308.11 138.765 307.94 138.264C307.78 137.762 307.7 137.224 307.7 136.648C307.7 136.061 307.78 135.517 307.94 135.016C308.1 134.504 308.34 134.066 308.66 133.704C308.98 133.33 309.38 133.037 309.86 132.824C310.34 132.61 310.9 132.504 311.54 132.504C312.18 132.504 312.74 132.605 313.22 132.808C313.7 133.01 314.094 133.293 314.404 133.656C314.713 134.018 314.942 134.45 315.092 134.952C315.252 135.442 315.332 135.981 315.332 136.568C315.332 136.674 315.321 136.797 315.3 136.936C315.289 137.074 315.273 137.186 315.252 137.272H309.748C309.78 137.56 309.854 137.821 309.972 138.056C310.1 138.28 310.254 138.472 310.436 138.632C310.628 138.792 310.836 138.914 311.06 139C311.294 139.074 311.534 139.112 311.78 139.112C312.238 139.112 312.622 139.032 312.932 138.872C313.241 138.712 313.492 138.509 313.684 138.264L314.82 139.448C314.521 139.853 314.105 140.178 313.572 140.424C313.038 140.669 312.404 140.792 311.668 140.792ZM311.54 134.04C311.028 134.04 310.612 134.205 310.292 134.536C309.972 134.866 309.785 135.304 309.732 135.848H313.316C313.262 135.304 313.076 134.866 312.756 134.536C312.446 134.205 312.041 134.04 311.54 134.04ZM316.9 132.696H318.804V134.024H318.9C319.06 133.565 319.305 133.197 319.636 132.92C319.977 132.642 320.404 132.504 320.916 132.504C321.31 132.504 321.678 132.568 322.02 132.696L321.46 134.536C321.342 134.461 321.204 134.408 321.044 134.376C320.884 134.344 320.729 134.328 320.58 134.328C320.089 134.328 319.689 134.498 319.38 134.84C319.07 135.17 318.916 135.64 318.916 136.248V140.6H316.9V132.696Z" fill="black" fill-opacity="0.76"/>
</g>
</g>
</g>
<defs>
<filter id="filter0_ddd_7646_3028" x="0" y="0" width="498" height="189.801" filterUnits="userSpaceOnUse" color-interpolation-filters="sRGB">
<feFlood flood-opacity="0" result="BackgroundImageFix"/>
<feColorMatrix in="SourceAlpha" type="matrix" values="0 0 0 0 0 0 0 0 0 0 0 0 0 0 0 0 0 0 127 0" result="hardAlpha"/>
<feOffset dy="3"/>
<feGaussianBlur stdDeviation="2"/>
<feColorMatrix type="matrix" values="0 0 0 0 0 0 0 0 0 0 0 0 0 0 0 0 0 0 0.04 0"/>
<feBlend mode="normal" in2="BackgroundImageFix" result="effect1_dropShadow_7646_3028"/>
<feColorMatrix in="SourceAlpha" type="matrix" values="0 0 0 0 0 0 0 0 0 0 0 0 0 0 0 0 0 0 127 0" result="hardAlpha"/>
<feMorphology radius="2" operator="dilate" in="SourceAlpha" result="effect2_dropShadow_7646_3028"/>
<feOffset dy="2"/>
<feGaussianBlur stdDeviation="6"/>
<feColorMatrix type="matrix" values="0 0 0 0 0 0 0 0 0 0 0 0 0 0 0 0 0 0 0.04 0"/>
<feBlend mode="normal" in2="effect1_dropShadow_7646_3028" result="effect2_dropShadow_7646_3028"/>
<feColorMatrix in="SourceAlpha" type="matrix" values="0 0 0 0 0 0 0 0 0 0 0 0 0 0 0 0 0 0 127 0" result="hardAlpha"/>
<feOffset dy="4"/>
<feGaussianBlur stdDeviation="3"/>
<feColorMatrix type="matrix" values="0 0 0 0 0 0 0 0 0 0 0 0 0 0 0 0 0 0 0.02 0"/>
<feBlend mode="normal" in2="effect2_dropShadow_7646_3028" result="effect3_dropShadow_7646_3028"/>
<feBlend mode="normal" in="SourceGraphic" in2="effect3_dropShadow_7646_3028" result="shape"/>
</filter>
<clipPath id="clip0_7646_3028">
<path d="M14 24.8C14 17.7308 19.7308 12 26.8 12H471.2C478.269 12 484 17.7308 484 24.8V161C484 168.069 478.269 173.8 471.2 173.8H26.8C19.7307 173.8 14 168.069 14 161V24.8Z" fill="white"/>
</clipPath>
<clipPath id="clip1_7646_3028">
<path d="M354.398 135.1C354.398 124.33 363.129 115.6 373.898 115.6H445.298C456.068 115.6 464.798 124.33 464.798 135.1C464.798 145.869 456.068 154.6 445.298 154.6H373.898C363.129 154.6 354.398 145.869 354.398 135.1Z" fill="white"/>
</clipPath>
<clipPath id="clip2_7646_3028">
<path d="M224.199 135.1C224.199 124.33 232.93 115.6 243.699 115.6H322.099C332.869 115.6 341.599 124.33 341.599 135.1C341.599 145.869 332.869 154.6 322.099 154.6H243.699C232.93 154.6 224.199 145.869 224.199 135.1Z" fill="white"/>
</clipPath>
</defs>
</svg>
