<svg width="70" height="186" viewBox="0 0 70 186" fill="none" xmlns="http://www.w3.org/2000/svg">
<circle cx="12" cy="93" r="10.5" stroke="#8C867E"/>
<path d="M33.472 99V88.6H34.832V97.848H38.848V99H33.472ZM42.4946 99.192C42.0146 99.192 41.5826 99.0907 41.1986 98.888C40.8253 98.6853 40.532 98.4027 40.3186 98.04C40.1053 97.6773 39.9986 97.2613 39.9986 96.792C39.9986 96.3333 40.1053 95.9387 40.3186 95.608C40.5426 95.2667 40.868 94.9947 41.2946 94.792C41.7213 94.5893 42.2333 94.472 42.8306 94.44L44.9106 94.312V93.752C44.9106 93.3467 44.8413 93.0213 44.7026 92.776C44.5746 92.52 44.3826 92.3333 44.1266 92.216C43.8813 92.088 43.5773 92.024 43.2146 92.024C42.756 92.024 42.3613 92.1093 42.0306 92.28C41.7 92.4507 41.444 92.6373 41.2626 92.84L40.4946 92.072C40.772 91.7307 41.1506 91.4533 41.6306 91.24C42.1106 91.016 42.6493 90.904 43.2466 90.904C43.972 90.904 44.548 91.0267 44.9746 91.272C45.4013 91.5173 45.7053 91.848 45.8866 92.264C46.0786 92.6693 46.1746 93.1227 46.1746 93.624V99H44.9746V97.656H44.8786C44.676 98.1253 44.3773 98.4987 43.9826 98.776C43.588 99.0533 43.092 99.192 42.4946 99.192ZM42.6866 98.104C43.348 98.104 43.8813 97.912 44.2866 97.528C44.7026 97.1333 44.9106 96.6107 44.9106 95.96V95.272L42.8946 95.416C42.372 95.4587 41.972 95.592 41.6946 95.816C41.428 96.04 41.2946 96.3547 41.2946 96.76C41.2946 97.1653 41.4226 97.4907 41.6786 97.736C41.9453 97.9813 42.2813 98.104 42.6866 98.104ZM52.8146 99.192C52.164 99.192 51.588 99.0267 51.0866 98.696C50.5853 98.3653 50.244 97.928 50.0626 97.384H49.9666V99H48.7506V87.4H50.0306V92.552H50.1266C50.3293 92.072 50.6653 91.6773 51.1346 91.368C51.604 91.0587 52.164 90.904 52.8146 90.904C53.5186 90.904 54.132 91.08 54.6546 91.432C55.1773 91.784 55.5826 92.2747 55.8706 92.904C56.1693 93.5227 56.3186 94.232 56.3186 95.032C56.3186 95.832 56.1693 96.5467 55.8706 97.176C55.5826 97.7947 55.1773 98.2853 54.6546 98.648C54.132 99.0107 53.5186 99.192 52.8146 99.192ZM52.4946 98.04C52.964 98.04 53.3853 97.9333 53.7586 97.72C54.1426 97.496 54.4466 97.16 54.6706 96.712C54.8946 96.264 55.0066 95.7093 55.0066 95.048C55.0066 94.376 54.8946 93.8213 54.6706 93.384C54.4466 92.936 54.1426 92.6053 53.7586 92.392C53.3853 92.168 52.964 92.056 52.4946 92.056C52.0466 92.056 51.636 92.168 51.2626 92.392C50.8893 92.6053 50.5906 92.936 50.3666 93.384C50.1426 93.8213 50.0306 94.376 50.0306 95.048C50.0306 95.7093 50.1426 96.264 50.3666 96.712C50.5906 97.16 50.8893 97.496 51.2626 97.72C51.636 97.9333 52.0466 98.04 52.4946 98.04ZM61.4636 99.192C60.7063 99.192 60.045 99.0267 59.4796 98.696C58.925 98.3653 58.493 97.8907 58.1836 97.272C57.8743 96.6427 57.7196 95.9013 57.7196 95.048C57.7196 94.376 57.805 93.784 57.9756 93.272C58.157 92.7493 58.4076 92.3173 58.7276 91.976C59.0583 91.624 59.4423 91.3573 59.8796 91.176C60.3276 90.9947 60.8183 90.904 61.3516 90.904C61.885 90.904 62.3703 90.9893 62.8076 91.16C63.2556 91.3307 63.6396 91.5867 63.9596 91.928C64.2903 92.2587 64.5463 92.68 64.7276 93.192C64.909 93.6933 64.9996 94.28 64.9996 94.952C64.9996 95.0373 64.9943 95.1227 64.9836 95.208C64.9836 95.2933 64.9783 95.3627 64.9676 95.416H58.9996C59.0103 95.9067 59.1276 96.3547 59.3516 96.76C59.5756 97.1653 59.8743 97.4907 60.2476 97.736C60.6316 97.9707 61.0583 98.088 61.5276 98.088C62.093 98.088 62.5623 97.976 62.9356 97.752C63.309 97.528 63.6183 97.256 63.8636 96.936L64.6316 97.72C64.301 98.168 63.8796 98.5253 63.3676 98.792C62.8556 99.0587 62.221 99.192 61.4636 99.192ZM61.3516 91.96C60.8503 91.96 60.429 92.0773 60.0876 92.312C59.7463 92.5467 59.485 92.8453 59.3036 93.208C59.133 93.5707 59.0423 93.9493 59.0316 94.344H63.6556C63.645 93.9493 63.549 93.5707 63.3676 93.208C63.197 92.8453 62.941 92.5467 62.5996 92.312C62.269 92.0773 61.853 91.96 61.3516 91.96ZM67.0631 99V87.4H68.3431V99H67.0631Z" fill="#242E30"/>
<circle cx="12.5" cy="12.5" r="12.5" fill="#2B2A28"/>
<path d="M9.45987 15.502H11.9099V9.86L9.79587 10.714L9.19387 9.398L12.4419 7.9H13.7719V15.502H15.9559V17H9.45987V15.502Z" fill="white" fill-opacity="0.9"/>
<rect x="12" y="25" width="1" height="56" rx="0.5" fill="#FF8000"/>
<rect x="44.0022" y="105" width="1" height="56" rx="0.5" fill="#FF8000"/>
<circle cx="44.5044" cy="173.5" r="12.5" fill="#2B2A28"/>
<path d="M41.2639 176.53C41.2639 176.11 41.3245 175.741 41.4459 175.424C41.5765 175.107 41.7539 174.822 41.9779 174.57C42.2019 174.318 42.4679 174.089 42.7759 173.884C43.0839 173.679 43.4199 173.478 43.7839 173.282C44.1479 173.086 44.4512 172.918 44.6939 172.778C44.9459 172.629 45.1419 172.484 45.2819 172.344C45.4312 172.204 45.5339 172.064 45.5899 171.924C45.6552 171.775 45.6879 171.602 45.6879 171.406C45.6879 171.023 45.5479 170.743 45.2679 170.566C44.9879 170.389 44.6519 170.3 44.2599 170.3C43.8399 170.3 43.4525 170.379 43.0979 170.538C42.7525 170.687 42.4539 170.897 42.2019 171.168L41.2639 170.062C41.6092 169.67 42.0479 169.353 42.5799 169.11C43.1119 168.858 43.7232 168.732 44.4139 168.732C44.8805 168.732 45.3052 168.788 45.6879 168.9C46.0799 169.012 46.4112 169.18 46.6819 169.404C46.9619 169.619 47.1765 169.885 47.3259 170.202C47.4845 170.519 47.5639 170.883 47.5639 171.294C47.5639 171.695 47.5032 172.05 47.3819 172.358C47.2605 172.657 47.0832 172.937 46.8499 173.198C46.6165 173.45 46.3272 173.688 45.9819 173.912C45.6459 174.136 45.2585 174.365 44.8199 174.598C44.5212 174.766 44.2645 174.911 44.0499 175.032C43.8445 175.153 43.6719 175.275 43.5319 175.396C43.4012 175.517 43.3032 175.639 43.2379 175.76C43.1819 175.881 43.1539 176.026 43.1539 176.194V176.488H47.8019V178H41.2639V176.53Z" fill="white" fill-opacity="0.9"/>
</svg>
