<svg width="328" height="216" viewBox="0 0 328 216" fill="none" xmlns="http://www.w3.org/2000/svg">
<path d="M0 12C0 5.37259 5.37258 0 12 0H316C322.627 0 328 5.37258 328 12V204C328 210.627 322.627 216 316 216H12C5.37259 216 0 210.627 0 204V12Z" fill="#CC0300"/>
<g clip-path="url(#clip0_2670_459)">
<path d="M22.5 88C22.5 81.3726 27.8726 76 34.5 76H293.5C300.127 76 305.5 81.3726 305.5 88V128C305.5 134.627 300.127 140 293.5 140H34.5C27.8726 140 22.5 134.627 22.5 128V88Z" fill="#FFD2D1"/>
<path d="M38.5 100C38.5 95.5817 42.0817 92 46.5 92H62.5C66.9183 92 70.5 95.5817 70.5 100V116C70.5 120.418 66.9183 124 62.5 124H46.5C42.0817 124 38.5 120.418 38.5 116V100Z" fill="#CC0300"/>
<rect x="38.5" y="92" width="32" height="32" rx="16" fill="white" fill-opacity="0.01"/>
<g clip-path="url(#clip1_2670_459)">
<path d="M54.5 118.172C52.4882 118.172 50.5216 117.575 48.8488 116.458C47.1761 115.34 45.8723 113.751 45.1024 111.893C44.3325 110.034 44.1311 107.989 44.5236 106.016C44.9161 104.042 45.8848 102.23 47.3074 100.807C48.73 99.3848 50.5424 98.4161 52.5156 98.0236C54.4887 97.6311 56.5339 97.8325 58.3926 98.6024C60.2513 99.3723 61.8399 100.676 62.9576 102.349C64.0753 104.022 64.6719 105.988 64.6719 108C64.6684 110.697 63.5956 113.282 61.6888 115.189C59.7819 117.096 57.1967 118.168 54.5 118.172ZM54.5 99.7969C52.8776 99.7969 51.2916 100.278 49.9426 101.179C48.5936 102.081 47.5422 103.362 46.9213 104.861C46.3004 106.36 46.138 108.009 46.4545 109.6C46.771 111.192 47.5523 112.653 48.6995 113.8C49.8467 114.948 51.3084 115.729 52.8997 116.046C54.4909 116.362 56.1403 116.2 57.6392 115.579C59.1381 114.958 60.4193 113.906 61.3207 112.557C62.222 111.208 62.7031 109.622 62.7031 108C62.7031 106.923 62.491 105.856 62.0787 104.861C61.6665 103.866 61.0622 102.961 60.3005 102.2C59.5388 101.438 58.6345 100.834 57.6392 100.421C56.644 100.009 55.5773 99.7969 54.5 99.7969Z" fill="white" fill-opacity="0.9"/>
<path d="M53.0825 102.947C54.0096 102.687 54.9904 102.687 55.9175 102.947L55.1956 109.313H53.8044L53.0825 102.947ZM55.8125 111.938C55.8125 112.197 55.7355 112.451 55.5913 112.667C55.4471 112.883 55.2421 113.051 55.0023 113.15C54.7624 113.249 54.4985 113.275 54.2439 113.225C53.9893 113.174 53.7555 113.049 53.5719 112.866C53.3884 112.682 53.2634 112.448 53.2127 112.194C53.1621 111.939 53.1881 111.675 53.2874 111.435C53.3868 111.195 53.555 110.99 53.7708 110.846C53.9867 110.702 54.2404 110.625 54.5 110.625C54.8481 110.625 55.1819 110.763 55.4281 111.009C55.6742 111.256 55.8125 111.589 55.8125 111.938Z" fill="white" fill-opacity="0.9"/>
</g>
<rect x="82.5" y="100.355" width="185.687" height="5.64516" fill="black" fill-opacity="0.76"/>
<rect x="82.5" y="110" width="95.6797" height="5.64516" fill="black" fill-opacity="0.76"/>
</g>
<defs>
<clipPath id="clip0_2670_459">
<path d="M22.5 88C22.5 81.3726 27.8726 76 34.5 76H293.5C300.127 76 305.5 81.3726 305.5 88V128C305.5 134.627 300.127 140 293.5 140H34.5C27.8726 140 22.5 134.627 22.5 128V88Z" fill="white"/>
</clipPath>
<clipPath id="clip1_2670_459">
<rect width="21" height="21" fill="white" transform="translate(44 97.5)"/>
</clipPath>
</defs>
</svg>
