<svg width="1034" height="402" viewBox="0 0 1034 402" fill="none" xmlns="http://www.w3.org/2000/svg">
<rect x="0.5" y="0.5" width="1033" height="401" rx="16.5" fill="#F75E28" stroke="#DBD9D7"/>
<mask id="mask0_783_138519" style="mask-type:alpha" maskUnits="userSpaceOnUse" x="1" y="1" width="1032" height="400">
<rect x="1" y="1" width="1032" height="400" rx="16" fill="#00DCFF"/>
</mask>
<g mask="url(#mask0_783_138519)">
<g filter="url(#filter0_f_783_138519)">
<rect x="239" y="49" width="556" height="506" rx="26" fill="#A4411E"/>
</g>
<rect x="243" y="41" width="548" height="390" rx="22" fill="white" stroke="#F75E28" stroke-width="8"/>
<g filter="url(#filter1_ddd_783_138519)">
<rect x="247" y="49" width="540" height="630" rx="18" fill="white"/>
<path d="M287.416 105.288C286.488 105.288 285.68 105.128 284.992 104.808C284.32 104.488 283.784 104.088 283.384 103.608L285.496 101.664C285.72 101.936 285.984 102.152 286.288 102.312C286.592 102.472 286.928 102.552 287.296 102.552C287.968 102.552 288.488 102.344 288.856 101.928C289.24 101.512 289.432 100.88 289.432 100.032V89.4H292.648V100.128C292.648 100.88 292.536 101.576 292.312 102.216C292.104 102.84 291.784 103.384 291.352 103.848C290.92 104.296 290.376 104.648 289.72 104.904C289.064 105.16 288.296 105.288 287.416 105.288ZM298.809 105.288C298.281 105.288 297.777 105.2 297.297 105.024C296.833 104.864 296.425 104.632 296.073 104.328C295.721 104.008 295.441 103.624 295.233 103.176C295.041 102.728 294.945 102.224 294.945 101.664C294.945 100.608 295.321 99.768 296.073 99.144C296.825 98.52 297.969 98.168 299.505 98.088L302.289 97.92V97.44C302.289 96.672 302.057 96.144 301.593 95.856C301.129 95.568 300.553 95.424 299.865 95.424C299.321 95.424 298.809 95.528 298.329 95.736C297.849 95.928 297.489 96.168 297.249 96.456L295.545 94.728C295.961 94.184 296.561 93.736 297.345 93.384C298.145 93.032 299.121 92.856 300.273 92.856C301.969 92.856 303.233 93.248 304.065 94.032C304.897 94.816 305.313 95.88 305.313 97.224V105H302.457V103.104H302.313C302.009 103.776 301.569 104.312 300.993 104.712C300.417 105.096 299.689 105.288 298.809 105.288ZM299.697 103.104C300.465 103.104 301.089 102.888 301.569 102.456C302.049 102.008 302.289 101.384 302.289 100.584V99.792L299.865 99.984C298.617 100.064 297.993 100.592 297.993 101.568C297.993 102.064 298.153 102.448 298.473 102.72C298.793 102.976 299.201 103.104 299.697 103.104ZM308.279 93.144H311.135V95.064H311.279C311.551 94.424 311.975 93.896 312.551 93.48C313.143 93.064 313.847 92.856 314.663 92.856C316.167 92.856 317.247 93.256 317.903 94.056C318.575 94.84 318.911 96.032 318.911 97.632V105H315.887V98.232C315.887 97.272 315.711 96.56 315.359 96.096C315.023 95.632 314.447 95.4 313.631 95.4C312.863 95.4 312.279 95.656 311.879 96.168C311.495 96.664 311.303 97.392 311.303 98.352V105H308.279V93.144ZM325.927 105.288C324.471 105.288 323.415 104.896 322.759 104.112C322.103 103.312 321.775 102.112 321.775 100.512V93.144H324.799V99.912C324.799 100.872 324.967 101.584 325.303 102.048C325.639 102.512 326.191 102.744 326.959 102.744C327.695 102.744 328.247 102.496 328.615 102C328.999 101.488 329.191 100.752 329.191 99.792V93.144H332.215V105H329.359V103.08H329.215C328.943 103.72 328.527 104.248 327.967 104.664C327.407 105.08 326.727 105.288 325.927 105.288ZM338.325 105.288C337.797 105.288 337.293 105.2 336.813 105.024C336.349 104.864 335.941 104.632 335.589 104.328C335.237 104.008 334.957 103.624 334.749 103.176C334.557 102.728 334.461 102.224 334.461 101.664C334.461 100.608 334.837 99.768 335.589 99.144C336.341 98.52 337.485 98.168 339.021 98.088L341.805 97.92V97.44C341.805 96.672 341.573 96.144 341.109 95.856C340.645 95.568 340.069 95.424 339.381 95.424C338.837 95.424 338.325 95.528 337.845 95.736C337.365 95.928 337.005 96.168 336.765 96.456L335.061 94.728C335.477 94.184 336.077 93.736 336.861 93.384C337.661 93.032 338.637 92.856 339.789 92.856C341.485 92.856 342.749 93.248 343.581 94.032C344.413 94.816 344.829 95.88 344.829 97.224V105H341.973V103.104H341.829C341.525 103.776 341.085 104.312 340.509 104.712C339.933 105.096 339.205 105.288 338.325 105.288ZM339.213 103.104C339.981 103.104 340.605 102.888 341.085 102.456C341.565 102.008 341.805 101.384 341.805 100.584V99.792L339.381 99.984C338.133 100.064 337.509 100.592 337.509 101.568C337.509 102.064 337.669 102.448 337.989 102.72C338.309 102.976 338.717 103.104 339.213 103.104ZM347.795 93.144H350.651V95.136H350.795C351.035 94.448 351.403 93.896 351.899 93.48C352.411 93.064 353.051 92.856 353.819 92.856C354.411 92.856 354.963 92.952 355.475 93.144L354.635 95.904C354.459 95.792 354.251 95.712 354.011 95.664C353.771 95.616 353.539 95.592 353.315 95.592C352.579 95.592 351.979 95.848 351.515 96.36C351.051 96.856 350.819 97.56 350.819 98.472V105H347.795V93.144ZM358.676 109.608C358.452 109.608 358.228 109.592 358.004 109.56C357.78 109.544 357.58 109.512 357.404 109.464V106.968C357.532 107 357.7 107.024 357.908 107.04C358.116 107.056 358.308 107.064 358.484 107.064C358.788 107.064 359.044 107.04 359.252 106.992C359.476 106.944 359.66 106.856 359.804 106.728C359.964 106.6 360.108 106.416 360.236 106.176C360.364 105.936 360.5 105.632 360.644 105.264L356.132 93.144H359.444L362.18 101.976H362.324L365.084 93.144H368.204L363.74 105.048C363.452 105.816 363.164 106.48 362.876 107.04C362.588 107.616 362.252 108.088 361.868 108.456C361.484 108.84 361.036 109.128 360.524 109.32C360.012 109.512 359.396 109.608 358.676 109.608ZM376.089 102.48C376.089 101.76 376.193 101.128 376.401 100.584C376.625 100.04 376.929 99.552 377.313 99.12C377.697 98.688 378.153 98.296 378.681 97.944C379.209 97.592 379.785 97.248 380.409 96.912C381.033 96.576 381.553 96.288 381.969 96.048C382.401 95.792 382.737 95.544 382.977 95.304C383.233 95.064 383.409 94.824 383.505 94.584C383.617 94.328 383.673 94.032 383.673 93.696C383.673 93.04 383.433 92.56 382.953 92.256C382.473 91.952 381.897 91.8 381.225 91.8C380.505 91.8 379.841 91.936 379.233 92.208C378.641 92.464 378.129 92.824 377.697 93.288L376.089 91.392C376.681 90.72 377.433 90.176 378.345 89.76C379.257 89.328 380.305 89.112 381.489 89.112C382.289 89.112 383.017 89.208 383.673 89.4C384.345 89.592 384.913 89.88 385.377 90.264C385.857 90.632 386.225 91.088 386.481 91.632C386.753 92.176 386.889 92.8 386.889 93.504C386.889 94.192 386.785 94.8 386.577 95.328C386.369 95.84 386.065 96.32 385.665 96.768C385.265 97.2 384.769 97.608 384.177 97.992C383.601 98.376 382.937 98.768 382.185 99.168C381.673 99.456 381.233 99.704 380.865 99.912C380.513 100.12 380.217 100.328 379.977 100.536C379.753 100.744 379.585 100.952 379.473 101.16C379.377 101.368 379.329 101.616 379.329 101.904V102.408H387.297V105H376.089V102.48ZM396.304 105.288C395.2 105.288 394.248 105.08 393.448 104.664C392.664 104.248 392.016 103.672 391.504 102.936C390.992 102.2 390.616 101.344 390.376 100.368C390.136 99.392 390.016 98.336 390.016 97.2C390.016 96.08 390.136 95.032 390.376 94.056C390.616 93.064 390.992 92.2 391.504 91.464C392.016 90.728 392.664 90.152 393.448 89.736C394.248 89.32 395.2 89.112 396.304 89.112C397.408 89.112 398.352 89.32 399.136 89.736C399.936 90.152 400.592 90.728 401.104 91.464C401.632 92.2 402.016 93.064 402.256 94.056C402.496 95.032 402.616 96.08 402.616 97.2C402.616 98.336 402.496 99.392 402.256 100.368C402.016 101.344 401.632 102.2 401.104 102.936C400.592 103.672 399.936 104.248 399.136 104.664C398.352 105.08 397.408 105.288 396.304 105.288ZM396.328 102.648C397.288 102.648 398.032 102.184 398.56 101.256C399.088 100.312 399.352 98.968 399.352 97.224C399.352 95.448 399.088 94.096 398.56 93.168C398.032 92.224 397.288 91.752 396.328 91.752C395.368 91.752 394.616 92.224 394.072 93.168C393.544 94.096 393.28 95.448 393.28 97.224C393.28 98.968 393.544 100.312 394.072 101.256C394.616 102.184 395.368 102.648 396.328 102.648ZM405.48 102.48C405.48 101.76 405.584 101.128 405.792 100.584C406.016 100.04 406.32 99.552 406.704 99.12C407.088 98.688 407.544 98.296 408.072 97.944C408.6 97.592 409.176 97.248 409.8 96.912C410.424 96.576 410.944 96.288 411.36 96.048C411.792 95.792 412.128 95.544 412.368 95.304C412.624 95.064 412.8 94.824 412.896 94.584C413.008 94.328 413.064 94.032 413.064 93.696C413.064 93.04 412.824 92.56 412.344 92.256C411.864 91.952 411.288 91.8 410.616 91.8C409.896 91.8 409.232 91.936 408.624 92.208C408.032 92.464 407.52 92.824 407.088 93.288L405.48 91.392C406.072 90.72 406.824 90.176 407.736 89.76C408.648 89.328 409.696 89.112 410.88 89.112C411.68 89.112 412.408 89.208 413.064 89.4C413.736 89.592 414.304 89.88 414.768 90.264C415.248 90.632 415.616 91.088 415.872 91.632C416.144 92.176 416.28 92.8 416.28 93.504C416.28 94.192 416.176 94.8 415.968 95.328C415.76 95.84 415.456 96.32 415.056 96.768C414.656 97.2 414.16 97.608 413.568 97.992C412.992 98.376 412.328 98.768 411.576 99.168C411.064 99.456 410.624 99.704 410.256 99.912C409.904 100.12 409.608 100.328 409.368 100.536C409.144 100.744 408.976 100.952 408.864 101.16C408.768 101.368 408.72 101.616 408.72 101.904V102.408H416.688V105H405.48V102.48ZM420.511 102.432H424.711V92.76L421.087 94.224L420.055 91.968L425.623 89.4H427.903V102.432H431.647V105H420.511V102.432Z" fill="#242E30"/>
<rect x="625" y="61" width="72" height="72" rx="36" fill="white" fill-opacity="0.01"/>
<path d="M667.66 85.345L655.611 97L667.759 108.694L665.79 110.86L653.269 98.7916C653.017 98.5475 652.817 98.2552 652.68 97.9323C652.543 97.6093 652.473 97.2621 652.473 96.9114C652.473 96.5607 652.543 96.2135 652.68 95.8905C652.817 95.5676 653.017 95.2754 653.269 95.0312L665.632 83.2188L667.66 85.345Z" fill="#242E30"/>
<rect x="697" y="61" width="72" height="72" rx="36" fill="white" fill-opacity="0.01"/>
<path d="M726.348 108.655L738.397 97.0003L726.25 85.3453L728.219 83.1797L740.681 95.2087C741.165 95.6989 741.437 96.3603 741.437 97.0495C741.437 97.7387 741.165 98.4002 740.681 98.8903L728.376 110.782L726.348 108.655Z" fill="#242E30"/>
<path d="M300.78 179.252C299.59 179.252 298.624 179.07 297.882 178.706C297.14 178.342 296.552 177.873 296.118 177.299L297.252 176.228C297.63 176.69 298.127 177.054 298.743 177.32C299.373 177.586 300.108 177.719 300.948 177.719C301.326 177.719 301.69 177.677 302.04 177.593C302.39 177.509 302.698 177.383 302.964 177.215C303.244 177.033 303.461 176.795 303.615 176.501C303.783 176.207 303.867 175.85 303.867 175.43C303.867 175.066 303.783 174.758 303.615 174.506C303.447 174.24 303.216 174.016 302.922 173.834C302.642 173.638 302.306 173.47 301.914 173.33C301.522 173.176 301.095 173.022 300.633 172.868C300.143 172.7 299.66 172.525 299.184 172.343C298.708 172.147 298.281 171.902 297.903 171.608C297.525 171.314 297.217 170.957 296.979 170.537C296.741 170.103 296.622 169.571 296.622 168.941C296.622 168.311 296.734 167.758 296.958 167.282C297.196 166.806 297.518 166.407 297.924 166.085C298.33 165.763 298.813 165.518 299.373 165.35C299.933 165.182 300.542 165.098 301.2 165.098C302.166 165.098 303.027 165.266 303.783 165.602C304.553 165.938 305.176 166.449 305.652 167.135L304.518 168.248C304.14 167.786 303.657 167.401 303.069 167.093C302.481 166.785 301.809 166.631 301.053 166.631C300.731 166.631 300.416 166.673 300.108 166.757C299.8 166.827 299.52 166.953 299.268 167.135C299.016 167.317 298.813 167.548 298.659 167.828C298.505 168.108 298.428 168.444 298.428 168.836C298.428 169.2 298.512 169.515 298.68 169.781C298.848 170.033 299.072 170.257 299.352 170.453C299.646 170.635 299.989 170.803 300.381 170.957C300.773 171.097 301.2 171.244 301.662 171.398C302.152 171.566 302.635 171.748 303.111 171.944C303.587 172.14 304.014 172.385 304.392 172.679C304.77 172.973 305.078 173.33 305.316 173.75C305.554 174.17 305.673 174.695 305.673 175.325C305.673 175.997 305.54 176.585 305.274 177.089C305.022 177.579 304.672 177.985 304.224 178.307C303.79 178.629 303.272 178.867 302.67 179.021C302.082 179.175 301.452 179.252 300.78 179.252Z" fill="#8C999B"/>
<path d="M365.837 165.35H368.231L372.914 176.984H373.04L377.723 165.35H380.159V179H378.479V167.723H378.353L373.859 179H372.095L367.601 167.723H367.475V179H365.837V165.35Z" fill="#8C999B"/>
<path d="M444.108 166.862H440.223V165.35H449.778V166.862H445.893V179H444.108V166.862Z" fill="#8C999B"/>
<path d="M519.931 179L517.054 167.219H516.928L514.072 179H511.825L508.003 165.35H509.872L512.896 177.005H513.022L515.857 165.35H518.209L521.044 177.068H521.17L524.194 165.35H526L522.178 179H519.931Z" fill="#8C999B"/>
<path d="M588.108 166.862H584.223V165.35H593.778V166.862H589.893V179H588.108V166.862Z" fill="#8C999B"/>
<path d="M657.99 165.35H664.899V166.862H659.775V171.671H664.71V173.183H659.775V179H657.99V165.35Z" fill="#8C999B"/>
<path d="M732.78 179.252C731.59 179.252 730.624 179.07 729.882 178.706C729.14 178.342 728.552 177.873 728.118 177.299L729.252 176.228C729.63 176.69 730.127 177.054 730.743 177.32C731.373 177.586 732.108 177.719 732.948 177.719C733.326 177.719 733.69 177.677 734.04 177.593C734.39 177.509 734.698 177.383 734.964 177.215C735.244 177.033 735.461 176.795 735.615 176.501C735.783 176.207 735.867 175.85 735.867 175.43C735.867 175.066 735.783 174.758 735.615 174.506C735.447 174.24 735.216 174.016 734.922 173.834C734.642 173.638 734.306 173.47 733.914 173.33C733.522 173.176 733.095 173.022 732.633 172.868C732.143 172.7 731.66 172.525 731.184 172.343C730.708 172.147 730.281 171.902 729.903 171.608C729.525 171.314 729.217 170.957 728.979 170.537C728.741 170.103 728.622 169.571 728.622 168.941C728.622 168.311 728.734 167.758 728.958 167.282C729.196 166.806 729.518 166.407 729.924 166.085C730.33 165.763 730.813 165.518 731.373 165.35C731.933 165.182 732.542 165.098 733.2 165.098C734.166 165.098 735.027 165.266 735.783 165.602C736.553 165.938 737.176 166.449 737.652 167.135L736.518 168.248C736.14 167.786 735.657 167.401 735.069 167.093C734.481 166.785 733.809 166.631 733.053 166.631C732.731 166.631 732.416 166.673 732.108 166.757C731.8 166.827 731.52 166.953 731.268 167.135C731.016 167.317 730.813 167.548 730.659 167.828C730.505 168.108 730.428 168.444 730.428 168.836C730.428 169.2 730.512 169.515 730.68 169.781C730.848 170.033 731.072 170.257 731.352 170.453C731.646 170.635 731.989 170.803 732.381 170.957C732.773 171.097 733.2 171.244 733.662 171.398C734.152 171.566 734.635 171.748 735.111 171.944C735.587 172.14 736.014 172.385 736.392 172.679C736.77 172.973 737.078 173.33 737.316 173.75C737.554 174.17 737.673 174.695 737.673 175.325C737.673 175.997 737.54 176.585 737.274 177.089C737.022 177.579 736.672 177.985 736.224 178.307C735.79 178.629 735.272 178.867 734.67 179.021C734.082 179.175 733.452 179.252 732.78 179.252Z" fill="#8C999B"/>
<g clip-path="url(#clip0_783_138519)">
<path d="M288.961 240.408C288.961 239.768 289.073 239.208 289.297 238.728C289.521 238.232 289.825 237.784 290.209 237.384C290.609 236.968 291.073 236.584 291.601 236.232C292.145 235.88 292.729 235.52 293.353 235.152C293.849 234.848 294.289 234.568 294.673 234.312C295.057 234.04 295.377 233.76 295.633 233.472C295.889 233.184 296.081 232.88 296.209 232.56C296.337 232.24 296.401 231.872 296.401 231.456C296.401 230.608 296.129 229.968 295.585 229.536C295.057 229.088 294.377 228.864 293.545 228.864C292.713 228.864 291.993 229.032 291.385 229.368C290.777 229.688 290.265 230.12 289.849 230.664L288.745 229.512C289.225 228.792 289.857 228.216 290.641 227.784C291.425 227.336 292.369 227.112 293.473 227.112C294.289 227.112 295.009 227.224 295.633 227.448C296.257 227.656 296.777 227.952 297.193 228.336C297.625 228.704 297.945 229.152 298.153 229.68C298.377 230.192 298.489 230.752 298.489 231.36C298.489 232.048 298.369 232.656 298.129 233.184C297.889 233.712 297.569 234.192 297.169 234.624C296.769 235.056 296.305 235.448 295.777 235.8C295.265 236.136 294.721 236.464 294.145 236.784C293.633 237.072 293.177 237.344 292.777 237.6C292.377 237.856 292.041 238.128 291.769 238.416C291.513 238.704 291.313 239.024 291.169 239.376C291.041 239.728 290.977 240.144 290.977 240.624V241.272H298.873V243H288.961V240.408ZM311.008 229.128H303.184V227.4H313.312V228.936L306.496 243H304.288L311.008 229.128Z" fill="#8C999B"/>
</g>
<g clip-path="url(#clip1_783_138519)">
<path d="M360.961 240.408C360.961 239.768 361.073 239.208 361.297 238.728C361.521 238.232 361.825 237.784 362.209 237.384C362.609 236.968 363.073 236.584 363.601 236.232C364.145 235.88 364.729 235.52 365.353 235.152C365.849 234.848 366.289 234.568 366.673 234.312C367.057 234.04 367.377 233.76 367.633 233.472C367.889 233.184 368.081 232.88 368.209 232.56C368.337 232.24 368.401 231.872 368.401 231.456C368.401 230.608 368.129 229.968 367.585 229.536C367.057 229.088 366.377 228.864 365.545 228.864C364.713 228.864 363.993 229.032 363.385 229.368C362.777 229.688 362.265 230.12 361.849 230.664L360.745 229.512C361.225 228.792 361.857 228.216 362.641 227.784C363.425 227.336 364.369 227.112 365.473 227.112C366.289 227.112 367.009 227.224 367.633 227.448C368.257 227.656 368.777 227.952 369.193 228.336C369.625 228.704 369.945 229.152 370.153 229.68C370.377 230.192 370.489 230.752 370.489 231.36C370.489 232.048 370.369 232.656 370.129 233.184C369.889 233.712 369.569 234.192 369.169 234.624C368.769 235.056 368.305 235.448 367.777 235.8C367.265 236.136 366.721 236.464 366.145 236.784C365.633 237.072 365.177 237.344 364.777 237.6C364.377 237.856 364.041 238.128 363.769 238.416C363.513 238.704 363.313 239.024 363.169 239.376C363.041 239.728 362.977 240.144 362.977 240.624V241.272H370.873V243H360.961V240.408ZM380.2 243.288C379.272 243.288 378.464 243.168 377.776 242.928C377.104 242.688 376.544 242.368 376.096 241.968C375.648 241.552 375.312 241.08 375.088 240.552C374.864 240.008 374.752 239.432 374.752 238.824C374.752 238.376 374.824 237.944 374.968 237.528C375.112 237.112 375.32 236.736 375.592 236.4C375.864 236.048 376.184 235.752 376.552 235.512C376.936 235.272 377.368 235.112 377.848 235.032V234.888C377.448 234.76 377.088 234.568 376.768 234.312C376.464 234.056 376.2 233.768 375.976 233.448C375.768 233.128 375.608 232.792 375.496 232.44C375.384 232.088 375.328 231.744 375.328 231.408C375.328 230.848 375.424 230.312 375.616 229.8C375.824 229.272 376.128 228.816 376.528 228.432C376.928 228.032 377.432 227.712 378.04 227.472C378.648 227.232 379.368 227.112 380.2 227.112C381.016 227.112 381.728 227.232 382.336 227.472C382.944 227.712 383.448 228.032 383.848 228.432C384.248 228.816 384.544 229.272 384.736 229.8C384.944 230.312 385.048 230.848 385.048 231.408C385.048 231.744 384.992 232.088 384.88 232.44C384.768 232.792 384.6 233.128 384.376 233.448C384.168 233.768 383.904 234.056 383.584 234.312C383.28 234.568 382.928 234.76 382.528 234.888V235.032C383.008 235.112 383.432 235.272 383.8 235.512C384.184 235.752 384.512 236.048 384.784 236.4C385.056 236.736 385.264 237.112 385.408 237.528C385.552 237.944 385.624 238.376 385.624 238.824C385.624 239.432 385.512 240.008 385.288 240.552C385.064 241.08 384.728 241.552 384.28 241.968C383.832 242.368 383.264 242.688 382.576 242.928C381.904 243.168 381.112 243.288 380.2 243.288ZM380.2 234.216C380.552 234.216 380.896 234.168 381.232 234.072C381.568 233.96 381.864 233.8 382.12 233.592C382.376 233.368 382.576 233.096 382.72 232.776C382.88 232.44 382.96 232.04 382.96 231.576C382.96 231.096 382.88 230.688 382.72 230.352C382.576 230.016 382.376 229.744 382.12 229.536C381.864 229.312 381.568 229.152 381.232 229.056C380.896 228.944 380.552 228.888 380.2 228.888C379.832 228.888 379.48 228.944 379.144 229.056C378.808 229.152 378.512 229.312 378.256 229.536C378 229.744 377.792 230.016 377.632 230.352C377.488 230.688 377.416 231.096 377.416 231.576C377.416 232.04 377.488 232.44 377.632 232.776C377.792 233.096 378 233.368 378.256 233.592C378.512 233.8 378.808 233.96 379.144 234.072C379.48 234.168 379.832 234.216 380.2 234.216ZM380.2 241.512C381.16 241.512 381.952 241.272 382.576 240.792C383.216 240.296 383.536 239.584 383.536 238.656C383.536 237.712 383.216 237.008 382.576 236.544C381.952 236.08 381.16 235.848 380.2 235.848C379.24 235.848 378.44 236.08 377.8 236.544C377.16 237.008 376.84 237.712 376.84 238.656C376.84 239.584 377.16 240.296 377.8 240.792C378.44 241.272 379.24 241.512 380.2 241.512Z" fill="#8C999B"/>
</g>
<g clip-path="url(#clip2_783_138519)">
<path d="M432.961 240.408C432.961 239.768 433.073 239.208 433.297 238.728C433.521 238.232 433.825 237.784 434.209 237.384C434.609 236.968 435.073 236.584 435.601 236.232C436.145 235.88 436.729 235.52 437.353 235.152C437.849 234.848 438.289 234.568 438.673 234.312C439.057 234.04 439.377 233.76 439.633 233.472C439.889 233.184 440.081 232.88 440.209 232.56C440.337 232.24 440.401 231.872 440.401 231.456C440.401 230.608 440.129 229.968 439.585 229.536C439.057 229.088 438.377 228.864 437.545 228.864C436.713 228.864 435.993 229.032 435.385 229.368C434.777 229.688 434.265 230.12 433.849 230.664L432.745 229.512C433.225 228.792 433.857 228.216 434.641 227.784C435.425 227.336 436.369 227.112 437.473 227.112C438.289 227.112 439.009 227.224 439.633 227.448C440.257 227.656 440.777 227.952 441.193 228.336C441.625 228.704 441.945 229.152 442.153 229.68C442.377 230.192 442.489 230.752 442.489 231.36C442.489 232.048 442.369 232.656 442.129 233.184C441.889 233.712 441.569 234.192 441.169 234.624C440.769 235.056 440.305 235.448 439.777 235.8C439.265 236.136 438.721 236.464 438.145 236.784C437.633 237.072 437.177 237.344 436.777 237.6C436.377 237.856 436.041 238.128 435.769 238.416C435.513 238.704 435.313 239.024 435.169 239.376C435.041 239.728 434.977 240.144 434.977 240.624V241.272H442.873V243H432.961V240.408ZM451.552 243.288C450.448 243.288 449.552 243.128 448.864 242.808C448.176 242.472 447.6 242.048 447.136 241.536L448.336 240.264C448.736 240.68 449.184 240.992 449.68 241.2C450.192 241.408 450.792 241.512 451.48 241.512C452.712 241.512 453.688 240.96 454.408 239.856C455.144 238.736 455.512 237.088 455.512 234.912H455.368C455.064 235.568 454.592 236.128 453.952 236.592C453.312 237.04 452.496 237.264 451.504 237.264C450.896 237.264 450.304 237.16 449.728 236.952C449.152 236.744 448.64 236.432 448.192 236.016C447.744 235.6 447.376 235.088 447.088 234.48C446.816 233.872 446.68 233.168 446.68 232.368C446.68 231.632 446.792 230.944 447.016 230.304C447.256 229.664 447.6 229.112 448.048 228.648C448.496 228.168 449.048 227.792 449.704 227.52C450.36 227.248 451.104 227.112 451.936 227.112C453.728 227.112 455.088 227.752 456.016 229.032C456.96 230.296 457.432 232.2 457.432 234.744C457.432 237.512 456.904 239.632 455.848 241.104C454.792 242.56 453.36 243.288 451.552 243.288ZM451.912 235.512C452.904 235.512 453.68 235.224 454.24 234.648C454.8 234.056 455.08 233.256 455.08 232.248C455.08 231.272 454.8 230.472 454.24 229.848C453.696 229.208 452.92 228.888 451.912 228.888C450.904 228.888 450.128 229.208 449.584 229.848C449.04 230.472 448.768 231.272 448.768 232.248C448.768 233.256 449.04 234.056 449.584 234.648C450.144 235.224 450.92 235.512 451.912 235.512Z" fill="#8C999B"/>
</g>
<g clip-path="url(#clip3_783_138519)">
<path d="M509.233 243.288C508.081 243.288 507.113 243.08 506.329 242.664C505.561 242.248 504.937 241.728 504.457 241.104L505.681 239.904C506.049 240.368 506.505 240.752 507.049 241.056C507.609 241.36 508.313 241.512 509.161 241.512C510.185 241.512 510.993 241.272 511.585 240.792C512.177 240.296 512.473 239.568 512.473 238.608C512.473 237.68 512.169 237 511.561 236.568C510.953 236.136 510.177 235.92 509.233 235.92H507.793V234.192H509.161C510.105 234.192 510.801 233.944 511.249 233.448C511.713 232.952 511.945 232.304 511.945 231.504C511.945 231.04 511.865 230.648 511.705 230.328C511.561 229.992 511.353 229.72 511.081 229.512C510.825 229.288 510.521 229.128 510.169 229.032C509.833 228.936 509.481 228.888 509.113 228.888C508.377 228.888 507.737 229.032 507.193 229.32C506.649 229.608 506.193 229.968 505.825 230.4L504.721 229.2C505.185 228.624 505.785 228.136 506.521 227.736C507.273 227.32 508.177 227.112 509.233 227.112C509.873 227.112 510.481 227.208 511.057 227.4C511.649 227.576 512.161 227.84 512.593 228.192C513.041 228.528 513.393 228.96 513.649 229.488C513.905 230 514.033 230.592 514.033 231.264C514.033 232.16 513.801 232.92 513.337 233.544C512.873 234.152 512.209 234.608 511.345 234.912V235.056C511.777 235.136 512.185 235.28 512.569 235.488C512.969 235.68 513.313 235.936 513.601 236.256C513.905 236.56 514.137 236.928 514.297 237.36C514.473 237.792 514.561 238.272 514.561 238.8C514.561 239.488 514.433 240.112 514.177 240.672C513.937 241.216 513.585 241.688 513.121 242.088C512.657 242.472 512.097 242.768 511.441 242.976C510.785 243.184 510.049 243.288 509.233 243.288ZM524.2 243.288C523.208 243.288 522.352 243.08 521.632 242.664C520.928 242.248 520.344 241.68 519.88 240.96C519.432 240.224 519.096 239.368 518.872 238.392C518.664 237.4 518.56 236.336 518.56 235.2C518.56 234.064 518.664 233.008 518.872 232.032C519.096 231.04 519.432 230.184 519.88 229.464C520.344 228.728 520.928 228.152 521.632 227.736C522.352 227.32 523.208 227.112 524.2 227.112C525.192 227.112 526.04 227.32 526.744 227.736C527.464 228.152 528.048 228.728 528.496 229.464C528.96 230.184 529.296 231.04 529.504 232.032C529.728 233.008 529.84 234.064 529.84 235.2C529.84 236.336 529.728 237.4 529.504 238.392C529.296 239.368 528.96 240.224 528.496 240.96C528.048 241.68 527.464 242.248 526.744 242.664C526.04 243.08 525.192 243.288 524.2 243.288ZM524.2 241.56C524.792 241.56 525.312 241.416 525.76 241.128C526.208 240.824 526.576 240.4 526.864 239.856C527.168 239.296 527.392 238.624 527.536 237.84C527.68 237.056 527.752 236.176 527.752 235.2C527.752 234.224 527.68 233.344 527.536 232.56C527.392 231.776 527.168 231.112 526.864 230.568C526.576 230.008 526.208 229.584 525.76 229.296C525.312 228.992 524.792 228.84 524.2 228.84C523.608 228.84 523.088 228.992 522.64 229.296C522.208 229.584 521.84 230.008 521.536 230.568C521.248 231.112 521.024 231.776 520.864 232.56C520.72 233.344 520.648 234.224 520.648 235.2C520.648 236.176 520.72 237.056 520.864 237.84C521.024 238.624 521.248 239.296 521.536 239.856C521.84 240.4 522.208 240.824 522.64 241.128C523.088 241.416 523.608 241.56 524.2 241.56Z" fill="#8C999B"/>
</g>
<g clip-path="url(#clip4_783_138519)">
<path d="M581.233 243.288C580.081 243.288 579.113 243.08 578.329 242.664C577.561 242.248 576.937 241.728 576.457 241.104L577.681 239.904C578.049 240.368 578.505 240.752 579.049 241.056C579.609 241.36 580.313 241.512 581.161 241.512C582.185 241.512 582.993 241.272 583.585 240.792C584.177 240.296 584.473 239.568 584.473 238.608C584.473 237.68 584.169 237 583.561 236.568C582.953 236.136 582.177 235.92 581.233 235.92H579.793V234.192H581.161C582.105 234.192 582.801 233.944 583.249 233.448C583.713 232.952 583.945 232.304 583.945 231.504C583.945 231.04 583.865 230.648 583.705 230.328C583.561 229.992 583.353 229.72 583.081 229.512C582.825 229.288 582.521 229.128 582.169 229.032C581.833 228.936 581.481 228.888 581.113 228.888C580.377 228.888 579.737 229.032 579.193 229.32C578.649 229.608 578.193 229.968 577.825 230.4L576.721 229.2C577.185 228.624 577.785 228.136 578.521 227.736C579.273 227.32 580.177 227.112 581.233 227.112C581.873 227.112 582.481 227.208 583.057 227.4C583.649 227.576 584.161 227.84 584.593 228.192C585.041 228.528 585.393 228.96 585.649 229.488C585.905 230 586.033 230.592 586.033 231.264C586.033 232.16 585.801 232.92 585.337 233.544C584.873 234.152 584.209 234.608 583.345 234.912V235.056C583.777 235.136 584.185 235.28 584.569 235.488C584.969 235.68 585.313 235.936 585.601 236.256C585.905 236.56 586.137 236.928 586.297 237.36C586.473 237.792 586.561 238.272 586.561 238.8C586.561 239.488 586.433 240.112 586.177 240.672C585.937 241.216 585.585 241.688 585.121 242.088C584.657 242.472 584.097 242.768 583.441 242.976C582.785 243.184 582.049 243.288 581.233 243.288ZM591.28 241.32H595.744V229.56L591.472 231.528L590.848 230.184L596.104 227.4H597.784V241.32H601.792V243H591.28V241.32Z" fill="#8C999B"/>
</g>
<g clip-path="url(#clip5_783_138519)">
<rect x="631" y="205" width="60" height="60" rx="30" fill="white" fill-opacity="0.01"/>
<path d="M656.085 241.32H660.549V229.56L656.277 231.528L655.653 230.184L660.909 227.4H662.589V241.32H666.597V243H656.085V241.32Z" fill="#242E30"/>
</g>
<g clip-path="url(#clip6_783_138519)">
<rect x="703" y="205" width="60" height="60" rx="30" fill="white" fill-opacity="0.01"/>
<path d="M728.157 240.408C728.157 239.768 728.269 239.208 728.493 238.728C728.717 238.232 729.021 237.784 729.405 237.384C729.805 236.968 730.269 236.584 730.797 236.232C731.341 235.88 731.925 235.52 732.549 235.152C733.045 234.848 733.485 234.568 733.869 234.312C734.253 234.04 734.573 233.76 734.829 233.472C735.085 233.184 735.277 232.88 735.405 232.56C735.533 232.24 735.597 231.872 735.597 231.456C735.597 230.608 735.325 229.968 734.781 229.536C734.253 229.088 733.573 228.864 732.741 228.864C731.909 228.864 731.189 229.032 730.581 229.368C729.973 229.688 729.461 230.12 729.045 230.664L727.941 229.512C728.421 228.792 729.053 228.216 729.837 227.784C730.621 227.336 731.565 227.112 732.669 227.112C733.485 227.112 734.205 227.224 734.829 227.448C735.453 227.656 735.973 227.952 736.389 228.336C736.821 228.704 737.141 229.152 737.349 229.68C737.573 230.192 737.685 230.752 737.685 231.36C737.685 232.048 737.565 232.656 737.325 233.184C737.085 233.712 736.765 234.192 736.365 234.624C735.965 235.056 735.501 235.448 734.973 235.8C734.461 236.136 733.917 236.464 733.341 236.784C732.829 237.072 732.373 237.344 731.973 237.6C731.573 237.856 731.237 238.128 730.965 238.416C730.709 238.704 730.509 239.024 730.365 239.376C730.237 239.728 730.173 240.144 730.173 240.624V241.272H738.069V243H728.157V240.408Z" fill="#242E30"/>
</g>
<g clip-path="url(#clip7_783_138519)">
<rect x="271" y="277" width="60" height="60" rx="30" fill="white" fill-opacity="0.01"/>
<path d="M300.429 315.288C299.277 315.288 298.309 315.08 297.525 314.664C296.757 314.248 296.133 313.728 295.653 313.104L296.877 311.904C297.245 312.368 297.701 312.752 298.245 313.056C298.805 313.36 299.509 313.512 300.357 313.512C301.381 313.512 302.189 313.272 302.781 312.792C303.373 312.296 303.669 311.568 303.669 310.608C303.669 309.68 303.365 309 302.757 308.568C302.149 308.136 301.373 307.92 300.429 307.92H298.989V306.192H300.357C301.301 306.192 301.997 305.944 302.445 305.448C302.909 304.952 303.141 304.304 303.141 303.504C303.141 303.04 303.061 302.648 302.901 302.328C302.757 301.992 302.549 301.72 302.277 301.512C302.021 301.288 301.717 301.128 301.365 301.032C301.029 300.936 300.677 300.888 300.309 300.888C299.573 300.888 298.933 301.032 298.389 301.32C297.845 301.608 297.389 301.968 297.021 302.4L295.917 301.2C296.381 300.624 296.981 300.136 297.717 299.736C298.469 299.32 299.373 299.112 300.429 299.112C301.069 299.112 301.677 299.208 302.253 299.4C302.845 299.576 303.357 299.84 303.789 300.192C304.237 300.528 304.589 300.96 304.845 301.488C305.101 302 305.229 302.592 305.229 303.264C305.229 304.16 304.997 304.92 304.533 305.544C304.069 306.152 303.405 306.608 302.541 306.912V307.056C302.973 307.136 303.381 307.28 303.765 307.488C304.165 307.68 304.509 307.936 304.797 308.256C305.101 308.56 305.333 308.928 305.493 309.36C305.669 309.792 305.757 310.272 305.757 310.8C305.757 311.488 305.629 312.112 305.373 312.672C305.133 313.216 304.781 313.688 304.317 314.088C303.853 314.472 303.293 314.768 302.637 314.976C301.981 315.184 301.245 315.288 300.429 315.288Z" fill="#242E30"/>
</g>
<g clip-path="url(#clip8_783_138519)">
<rect x="343" y="277" width="60" height="60" rx="30" fill="white" fill-opacity="0.01"/>
<path d="M374.445 311.784H367.173V310.176L374.061 299.4H376.341L369.429 310.056H374.445V305.352H376.413V310.056H378.573V311.784H376.413V315H374.445V311.784Z" fill="#242E30"/>
</g>
<g clip-path="url(#clip9_783_138519)">
<rect x="415" y="277" width="60" height="60" rx="30" fill="white" fill-opacity="0.01"/>
<path d="M444.501 315.288C443.413 315.288 442.517 315.104 441.813 314.736C441.109 314.368 440.493 313.896 439.965 313.32L441.189 312.096C441.573 312.496 442.029 312.832 442.557 313.104C443.085 313.376 443.709 313.512 444.429 313.512C445.437 313.512 446.237 313.248 446.829 312.72C447.437 312.176 447.741 311.4 447.741 310.392C447.741 309.368 447.429 308.592 446.805 308.064C446.181 307.52 445.317 307.248 444.213 307.248H441.765L440.997 306.48V299.4H448.965V301.128H442.917V305.544H444.597C445.461 305.544 446.221 305.664 446.877 305.904C447.533 306.144 448.077 306.48 448.509 306.912C448.941 307.328 449.269 307.832 449.493 308.424C449.717 309.016 449.829 309.672 449.829 310.392C449.829 311.064 449.717 311.696 449.493 312.288C449.285 312.88 448.957 313.4 448.509 313.848C448.077 314.28 447.525 314.632 446.853 314.904C446.197 315.16 445.413 315.288 444.501 315.288Z" fill="#242E30"/>
</g>
<g clip-path="url(#clip10_783_138519)">
<rect x="487" y="277" width="60" height="60" rx="30" fill="#262626"/>
<path d="M517.269 315.288C515.477 315.288 514.109 314.656 513.165 313.392C512.237 312.112 511.773 310.2 511.773 307.656C511.773 304.888 512.301 302.776 513.357 301.32C514.413 299.848 515.845 299.112 517.653 299.112C518.757 299.112 519.653 299.28 520.341 299.616C521.029 299.936 521.605 300.352 522.069 300.864L520.845 302.16C520.445 301.744 519.997 301.432 519.501 301.224C519.005 301 518.413 300.888 517.725 300.888C516.493 300.888 515.509 301.44 514.773 302.544C514.053 303.648 513.693 305.296 513.693 307.488H513.837C514.141 306.832 514.613 306.28 515.253 305.832C515.893 305.368 516.709 305.136 517.701 305.136C518.293 305.136 518.877 305.24 519.453 305.448C520.045 305.656 520.565 305.968 521.013 306.384C521.461 306.8 521.821 307.312 522.093 307.92C522.381 308.528 522.525 309.232 522.525 310.032C522.525 310.768 522.405 311.456 522.165 312.096C521.941 312.736 521.605 313.296 521.157 313.776C520.709 314.24 520.157 314.608 519.501 314.88C518.845 315.152 518.101 315.288 517.269 315.288ZM517.293 313.512C518.301 313.512 519.077 313.2 519.621 312.576C520.165 311.936 520.437 311.128 520.437 310.152C520.437 309.144 520.157 308.352 519.597 307.776C519.053 307.184 518.285 306.888 517.293 306.888C516.301 306.888 515.525 307.184 514.965 307.776C514.405 308.352 514.125 309.144 514.125 310.152C514.125 311.128 514.397 311.936 514.941 312.576C515.501 313.2 516.285 313.512 517.293 313.512Z" fill="white"/>
</g>
<g clip-path="url(#clip11_783_138519)">
<rect x="559" y="277" width="60" height="60" rx="30" fill="white" fill-opacity="0.01"/>
<path d="M591.813 301.128H583.989V299.4H594.117V300.936L587.301 315H585.093L591.813 301.128Z" fill="#242E30"/>
</g>
<g clip-path="url(#clip12_783_138519)">
<rect x="631" y="277" width="60" height="60" rx="30" fill="white" fill-opacity="0.01"/>
<path d="M661.005 315.288C660.077 315.288 659.269 315.168 658.581 314.928C657.909 314.688 657.349 314.368 656.901 313.968C656.453 313.552 656.117 313.08 655.893 312.552C655.669 312.008 655.557 311.432 655.557 310.824C655.557 310.376 655.629 309.944 655.773 309.528C655.917 309.112 656.125 308.736 656.397 308.4C656.669 308.048 656.989 307.752 657.357 307.512C657.741 307.272 658.173 307.112 658.653 307.032V306.888C658.253 306.76 657.893 306.568 657.573 306.312C657.269 306.056 657.005 305.768 656.781 305.448C656.573 305.128 656.413 304.792 656.301 304.44C656.189 304.088 656.133 303.744 656.133 303.408C656.133 302.848 656.229 302.312 656.421 301.8C656.629 301.272 656.933 300.816 657.333 300.432C657.733 300.032 658.237 299.712 658.845 299.472C659.453 299.232 660.173 299.112 661.005 299.112C661.821 299.112 662.533 299.232 663.141 299.472C663.749 299.712 664.253 300.032 664.653 300.432C665.053 300.816 665.349 301.272 665.541 301.8C665.749 302.312 665.853 302.848 665.853 303.408C665.853 303.744 665.797 304.088 665.685 304.44C665.573 304.792 665.405 305.128 665.181 305.448C664.973 305.768 664.709 306.056 664.389 306.312C664.085 306.568 663.733 306.76 663.333 306.888V307.032C663.813 307.112 664.237 307.272 664.605 307.512C664.989 307.752 665.317 308.048 665.589 308.4C665.861 308.736 666.069 309.112 666.213 309.528C666.357 309.944 666.429 310.376 666.429 310.824C666.429 311.432 666.317 312.008 666.093 312.552C665.869 313.08 665.533 313.552 665.085 313.968C664.637 314.368 664.069 314.688 663.381 314.928C662.709 315.168 661.917 315.288 661.005 315.288ZM661.005 306.216C661.357 306.216 661.701 306.168 662.037 306.072C662.373 305.96 662.669 305.8 662.925 305.592C663.181 305.368 663.381 305.096 663.525 304.776C663.685 304.44 663.765 304.04 663.765 303.576C663.765 303.096 663.685 302.688 663.525 302.352C663.381 302.016 663.181 301.744 662.925 301.536C662.669 301.312 662.373 301.152 662.037 301.056C661.701 300.944 661.357 300.888 661.005 300.888C660.637 300.888 660.285 300.944 659.949 301.056C659.613 301.152 659.317 301.312 659.061 301.536C658.805 301.744 658.597 302.016 658.437 302.352C658.293 302.688 658.221 303.096 658.221 303.576C658.221 304.04 658.293 304.44 658.437 304.776C658.597 305.096 658.805 305.368 659.061 305.592C659.317 305.8 659.613 305.96 659.949 306.072C660.285 306.168 660.637 306.216 661.005 306.216ZM661.005 313.512C661.965 313.512 662.757 313.272 663.381 312.792C664.021 312.296 664.341 311.584 664.341 310.656C664.341 309.712 664.021 309.008 663.381 308.544C662.757 308.08 661.965 307.848 661.005 307.848C660.045 307.848 659.245 308.08 658.605 308.544C657.965 309.008 657.645 309.712 657.645 310.656C657.645 311.584 657.965 312.296 658.605 312.792C659.245 313.272 660.045 313.512 661.005 313.512Z" fill="#242E30"/>
</g>
<g clip-path="url(#clip13_783_138519)">
<rect x="703" y="277" width="60" height="60" rx="30" fill="white" fill-opacity="0.01"/>
<path d="M732.357 315.288C731.253 315.288 730.357 315.128 729.669 314.808C728.981 314.472 728.405 314.048 727.941 313.536L729.141 312.264C729.541 312.68 729.989 312.992 730.485 313.2C730.997 313.408 731.597 313.512 732.285 313.512C733.517 313.512 734.493 312.96 735.213 311.856C735.949 310.736 736.317 309.088 736.317 306.912H736.173C735.869 307.568 735.397 308.128 734.757 308.592C734.117 309.04 733.301 309.264 732.309 309.264C731.701 309.264 731.109 309.16 730.533 308.952C729.957 308.744 729.445 308.432 728.997 308.016C728.549 307.6 728.181 307.088 727.893 306.48C727.621 305.872 727.485 305.168 727.485 304.368C727.485 303.632 727.597 302.944 727.821 302.304C728.061 301.664 728.405 301.112 728.853 300.648C729.301 300.168 729.853 299.792 730.509 299.52C731.165 299.248 731.909 299.112 732.741 299.112C734.533 299.112 735.893 299.752 736.821 301.032C737.765 302.296 738.237 304.2 738.237 306.744C738.237 309.512 737.709 311.632 736.653 313.104C735.597 314.56 734.165 315.288 732.357 315.288ZM732.717 307.512C733.709 307.512 734.485 307.224 735.045 306.648C735.605 306.056 735.885 305.256 735.885 304.248C735.885 303.272 735.605 302.472 735.045 301.848C734.501 301.208 733.725 300.888 732.717 300.888C731.709 300.888 730.933 301.208 730.389 301.848C729.845 302.472 729.573 303.272 729.573 304.248C729.573 305.256 729.845 306.056 730.389 306.648C730.949 307.224 731.725 307.512 732.717 307.512Z" fill="#242E30"/>
</g>
<g clip-path="url(#clip14_783_138519)">
<rect x="271" y="349" width="60" height="60" rx="30" fill="white" fill-opacity="0.01"/>
<path d="M288.889 385.32H293.353V373.56L289.081 375.528L288.457 374.184L293.713 371.4H295.393V385.32H299.401V387H288.889V385.32ZM308.2 387.288C307.208 387.288 306.352 387.08 305.632 386.664C304.928 386.248 304.344 385.68 303.88 384.96C303.432 384.224 303.096 383.368 302.872 382.392C302.664 381.4 302.56 380.336 302.56 379.2C302.56 378.064 302.664 377.008 302.872 376.032C303.096 375.04 303.432 374.184 303.88 373.464C304.344 372.728 304.928 372.152 305.632 371.736C306.352 371.32 307.208 371.112 308.2 371.112C309.192 371.112 310.04 371.32 310.744 371.736C311.464 372.152 312.048 372.728 312.496 373.464C312.96 374.184 313.296 375.04 313.504 376.032C313.728 377.008 313.84 378.064 313.84 379.2C313.84 380.336 313.728 381.4 313.504 382.392C313.296 383.368 312.96 384.224 312.496 384.96C312.048 385.68 311.464 386.248 310.744 386.664C310.04 387.08 309.192 387.288 308.2 387.288ZM308.2 385.56C308.792 385.56 309.312 385.416 309.76 385.128C310.208 384.824 310.576 384.4 310.864 383.856C311.168 383.296 311.392 382.624 311.536 381.84C311.68 381.056 311.752 380.176 311.752 379.2C311.752 378.224 311.68 377.344 311.536 376.56C311.392 375.776 311.168 375.112 310.864 374.568C310.576 374.008 310.208 373.584 309.76 373.296C309.312 372.992 308.792 372.84 308.2 372.84C307.608 372.84 307.088 372.992 306.64 373.296C306.208 373.584 305.84 374.008 305.536 374.568C305.248 375.112 305.024 375.776 304.864 376.56C304.72 377.344 304.648 378.224 304.648 379.2C304.648 380.176 304.72 381.056 304.864 381.84C305.024 382.624 305.248 383.296 305.536 383.856C305.84 384.4 306.208 384.824 306.64 385.128C307.088 385.416 307.608 385.56 308.2 385.56Z" fill="#242E30"/>
</g>
<g clip-path="url(#clip15_783_138519)">
<rect x="343" y="349" width="60" height="60" rx="30" fill="white" fill-opacity="0.01"/>
<path d="M360.889 385.32H365.353V373.56L361.081 375.528L360.457 374.184L365.713 371.4H367.393V385.32H371.401V387H360.889V385.32ZM375.28 385.32H379.744V373.56L375.472 375.528L374.848 374.184L380.104 371.4H381.784V385.32H385.792V387H375.28V385.32Z" fill="#242E30"/>
</g>
<g clip-path="url(#clip16_783_138519)">
<rect x="415" y="349" width="60" height="60" rx="30" fill="white" fill-opacity="0.01"/>
<path d="M432.889 385.32H437.353V373.56L433.081 375.528L432.457 374.184L437.713 371.4H439.393V385.32H443.401V387H432.889V385.32ZM447.352 384.408C447.352 383.768 447.464 383.208 447.688 382.728C447.912 382.232 448.216 381.784 448.6 381.384C449 380.968 449.464 380.584 449.992 380.232C450.536 379.88 451.12 379.52 451.744 379.152C452.24 378.848 452.68 378.568 453.064 378.312C453.448 378.04 453.768 377.76 454.024 377.472C454.28 377.184 454.472 376.88 454.6 376.56C454.728 376.24 454.792 375.872 454.792 375.456C454.792 374.608 454.52 373.968 453.976 373.536C453.448 373.088 452.768 372.864 451.936 372.864C451.104 372.864 450.384 373.032 449.776 373.368C449.168 373.688 448.656 374.12 448.24 374.664L447.136 373.512C447.616 372.792 448.248 372.216 449.032 371.784C449.816 371.336 450.76 371.112 451.864 371.112C452.68 371.112 453.4 371.224 454.024 371.448C454.648 371.656 455.168 371.952 455.584 372.336C456.016 372.704 456.336 373.152 456.544 373.68C456.768 374.192 456.88 374.752 456.88 375.36C456.88 376.048 456.76 376.656 456.52 377.184C456.28 377.712 455.96 378.192 455.56 378.624C455.16 379.056 454.696 379.448 454.168 379.8C453.656 380.136 453.112 380.464 452.536 380.784C452.024 381.072 451.568 381.344 451.168 381.6C450.768 381.856 450.432 382.128 450.16 382.416C449.904 382.704 449.704 383.024 449.56 383.376C449.432 383.728 449.368 384.144 449.368 384.624V385.272H457.264V387H447.352V384.408Z" fill="#242E30"/>
</g>
<g clip-path="url(#clip17_783_138519)">
<rect x="487" y="349" width="60" height="60" rx="30" fill="white" fill-opacity="0.01"/>
<path d="M504.889 385.32H509.353V373.56L505.081 375.528L504.457 374.184L509.713 371.4H511.393V385.32H515.401V387H504.889V385.32ZM523.624 387.288C522.472 387.288 521.504 387.08 520.72 386.664C519.952 386.248 519.328 385.728 518.848 385.104L520.072 383.904C520.44 384.368 520.896 384.752 521.44 385.056C522 385.36 522.704 385.512 523.552 385.512C524.576 385.512 525.384 385.272 525.976 384.792C526.568 384.296 526.864 383.568 526.864 382.608C526.864 381.68 526.56 381 525.952 380.568C525.344 380.136 524.568 379.92 523.624 379.92H522.184V378.192H523.552C524.496 378.192 525.192 377.944 525.64 377.448C526.104 376.952 526.336 376.304 526.336 375.504C526.336 375.04 526.256 374.648 526.096 374.328C525.952 373.992 525.744 373.72 525.472 373.512C525.216 373.288 524.912 373.128 524.56 373.032C524.224 372.936 523.872 372.888 523.504 372.888C522.768 372.888 522.128 373.032 521.584 373.32C521.04 373.608 520.584 373.968 520.216 374.4L519.112 373.2C519.576 372.624 520.176 372.136 520.912 371.736C521.664 371.32 522.568 371.112 523.624 371.112C524.264 371.112 524.872 371.208 525.448 371.4C526.04 371.576 526.552 371.84 526.984 372.192C527.432 372.528 527.784 372.96 528.04 373.488C528.296 374 528.424 374.592 528.424 375.264C528.424 376.16 528.192 376.92 527.728 377.544C527.264 378.152 526.6 378.608 525.736 378.912V379.056C526.168 379.136 526.576 379.28 526.96 379.488C527.36 379.68 527.704 379.936 527.992 380.256C528.296 380.56 528.528 380.928 528.688 381.36C528.864 381.792 528.952 382.272 528.952 382.8C528.952 383.488 528.824 384.112 528.568 384.672C528.328 385.216 527.976 385.688 527.512 386.088C527.048 386.472 526.488 386.768 525.832 386.976C525.176 387.184 524.44 387.288 523.624 387.288Z" fill="#242E30"/>
</g>
<g clip-path="url(#clip18_783_138519)">
<rect x="559" y="349" width="60" height="60" rx="30" fill="white" fill-opacity="0.01"/>
<path d="M576.889 385.32H581.353V373.56L577.081 375.528L576.457 374.184L581.713 371.4H583.393V385.32H587.401V387H576.889V385.32ZM597.64 383.784H590.368V382.176L597.256 371.4H599.536L592.624 382.056H597.64V377.352H599.608V382.056H601.768V383.784H599.608V387H597.64V383.784Z" fill="#242E30"/>
</g>
<g clip-path="url(#clip19_783_138519)">
<rect x="631" y="349" width="60" height="60" rx="30" fill="white" fill-opacity="0.01"/>
<path d="M648.889 385.32H653.353V373.56L649.081 375.528L648.457 374.184L653.713 371.4H655.393V385.32H659.401V387H648.889V385.32ZM667.696 387.288C666.608 387.288 665.712 387.104 665.008 386.736C664.304 386.368 663.688 385.896 663.16 385.32L664.384 384.096C664.768 384.496 665.224 384.832 665.752 385.104C666.28 385.376 666.904 385.512 667.624 385.512C668.632 385.512 669.432 385.248 670.024 384.72C670.632 384.176 670.936 383.4 670.936 382.392C670.936 381.368 670.624 380.592 670 380.064C669.376 379.52 668.512 379.248 667.408 379.248H664.96L664.192 378.48V371.4H672.16V373.128H666.112V377.544H667.792C668.656 377.544 669.416 377.664 670.072 377.904C670.728 378.144 671.272 378.48 671.704 378.912C672.136 379.328 672.464 379.832 672.688 380.424C672.912 381.016 673.024 381.672 673.024 382.392C673.024 383.064 672.912 383.696 672.688 384.288C672.48 384.88 672.152 385.4 671.704 385.848C671.272 386.28 670.72 386.632 670.048 386.904C669.392 387.16 668.608 387.288 667.696 387.288Z" fill="#242E30"/>
</g>
<g clip-path="url(#clip20_783_138519)">
<rect x="703" y="349" width="60" height="60" rx="30" fill="white" fill-opacity="0.01"/>
<path d="M720.889 385.32H725.353V373.56L721.081 375.528L720.457 374.184L725.713 371.4H727.393V385.32H731.401V387H720.889V385.32ZM740.464 387.288C738.672 387.288 737.304 386.656 736.36 385.392C735.432 384.112 734.968 382.2 734.968 379.656C734.968 376.888 735.496 374.776 736.552 373.32C737.608 371.848 739.04 371.112 740.848 371.112C741.952 371.112 742.848 371.28 743.536 371.616C744.224 371.936 744.8 372.352 745.264 372.864L744.04 374.16C743.64 373.744 743.192 373.432 742.696 373.224C742.2 373 741.608 372.888 740.92 372.888C739.688 372.888 738.704 373.44 737.968 374.544C737.248 375.648 736.888 377.296 736.888 379.488H737.032C737.336 378.832 737.808 378.28 738.448 377.832C739.088 377.368 739.904 377.136 740.896 377.136C741.488 377.136 742.072 377.24 742.648 377.448C743.24 377.656 743.76 377.968 744.208 378.384C744.656 378.8 745.016 379.312 745.288 379.92C745.576 380.528 745.72 381.232 745.72 382.032C745.72 382.768 745.6 383.456 745.36 384.096C745.136 384.736 744.8 385.296 744.352 385.776C743.904 386.24 743.352 386.608 742.696 386.88C742.04 387.152 741.296 387.288 740.464 387.288ZM740.488 385.512C741.496 385.512 742.272 385.2 742.816 384.576C743.36 383.936 743.632 383.128 743.632 382.152C743.632 381.144 743.352 380.352 742.792 379.776C742.248 379.184 741.48 378.888 740.488 378.888C739.496 378.888 738.72 379.184 738.16 379.776C737.6 380.352 737.32 381.144 737.32 382.152C737.32 383.128 737.592 383.936 738.136 384.576C738.696 385.2 739.48 385.512 740.488 385.512Z" fill="#242E30"/>
</g>
</g>
</g>
<defs>
<filter id="filter0_f_783_138519" x="139" y="-51" width="756" height="706" filterUnits="userSpaceOnUse" color-interpolation-filters="sRGB">
<feFlood flood-opacity="0" result="BackgroundImageFix"/>
<feBlend mode="normal" in="SourceGraphic" in2="BackgroundImageFix" result="shape"/>
<feGaussianBlur stdDeviation="50" result="effect1_foregroundBlur_783_138519"/>
</filter>
<filter id="filter1_ddd_783_138519" x="232" y="37" width="570" height="660" filterUnits="userSpaceOnUse" color-interpolation-filters="sRGB">
<feFlood flood-opacity="0" result="BackgroundImageFix"/>
<feColorMatrix in="SourceAlpha" type="matrix" values="0 0 0 0 0 0 0 0 0 0 0 0 0 0 0 0 0 0 127 0" result="hardAlpha"/>
<feOffset dy="4.5"/>
<feGaussianBlur stdDeviation="4.5"/>
<feColorMatrix type="matrix" values="0 0 0 0 0 0 0 0 0 0 0 0 0 0 0 0 0 0 0.06 0"/>
<feBlend mode="normal" in2="BackgroundImageFix" result="effect1_dropShadow_783_138519"/>
<feColorMatrix in="SourceAlpha" type="matrix" values="0 0 0 0 0 0 0 0 0 0 0 0 0 0 0 0 0 0 127 0" result="hardAlpha"/>
<feMorphology radius="3" operator="erode" in="SourceAlpha" result="effect2_dropShadow_783_138519"/>
<feOffset dy="3"/>
<feGaussianBlur stdDeviation="9"/>
<feColorMatrix type="matrix" values="0 0 0 0 0 0 0 0 0 0 0 0 0 0 0 0 0 0 0.08 0"/>
<feBlend mode="normal" in2="effect1_dropShadow_783_138519" result="effect2_dropShadow_783_138519"/>
<feColorMatrix in="SourceAlpha" type="matrix" values="0 0 0 0 0 0 0 0 0 0 0 0 0 0 0 0 0 0 127 0" result="hardAlpha"/>
<feOffset dy="6"/>
<feGaussianBlur stdDeviation="4.5"/>
<feColorMatrix type="matrix" values="0 0 0 0 0 0 0 0 0 0 0 0 0 0 0 0 0 0 0.02 0"/>
<feBlend mode="normal" in2="effect2_dropShadow_783_138519" result="effect3_dropShadow_783_138519"/>
<feBlend mode="normal" in="SourceGraphic" in2="effect3_dropShadow_783_138519" result="shape"/>
</filter>
<clipPath id="clip0_783_138519">
<rect x="271" y="205" width="60" height="60" rx="30" fill="white"/>
</clipPath>
<clipPath id="clip1_783_138519">
<rect x="343" y="205" width="60" height="60" rx="30" fill="white"/>
</clipPath>
<clipPath id="clip2_783_138519">
<rect x="415" y="205" width="60" height="60" rx="30" fill="white"/>
</clipPath>
<clipPath id="clip3_783_138519">
<rect x="487" y="205" width="60" height="60" rx="30" fill="white"/>
</clipPath>
<clipPath id="clip4_783_138519">
<rect x="559" y="205" width="60" height="60" rx="30" fill="white"/>
</clipPath>
<clipPath id="clip5_783_138519">
<rect x="631" y="205" width="60" height="60" rx="30" fill="white"/>
</clipPath>
<clipPath id="clip6_783_138519">
<rect x="703" y="205" width="60" height="60" rx="30" fill="white"/>
</clipPath>
<clipPath id="clip7_783_138519">
<rect x="271" y="277" width="60" height="60" rx="30" fill="white"/>
</clipPath>
<clipPath id="clip8_783_138519">
<rect x="343" y="277" width="60" height="60" rx="30" fill="white"/>
</clipPath>
<clipPath id="clip9_783_138519">
<rect x="415" y="277" width="60" height="60" rx="30" fill="white"/>
</clipPath>
<clipPath id="clip10_783_138519">
<rect x="487" y="277" width="60" height="60" rx="30" fill="white"/>
</clipPath>
<clipPath id="clip11_783_138519">
<rect x="559" y="277" width="60" height="60" rx="30" fill="white"/>
</clipPath>
<clipPath id="clip12_783_138519">
<rect x="631" y="277" width="60" height="60" rx="30" fill="white"/>
</clipPath>
<clipPath id="clip13_783_138519">
<rect x="703" y="277" width="60" height="60" rx="30" fill="white"/>
</clipPath>
<clipPath id="clip14_783_138519">
<rect x="271" y="349" width="60" height="60" rx="30" fill="white"/>
</clipPath>
<clipPath id="clip15_783_138519">
<rect x="343" y="349" width="60" height="60" rx="30" fill="white"/>
</clipPath>
<clipPath id="clip16_783_138519">
<rect x="415" y="349" width="60" height="60" rx="30" fill="white"/>
</clipPath>
<clipPath id="clip17_783_138519">
<rect x="487" y="349" width="60" height="60" rx="30" fill="white"/>
</clipPath>
<clipPath id="clip18_783_138519">
<rect x="559" y="349" width="60" height="60" rx="30" fill="white"/>
</clipPath>
<clipPath id="clip19_783_138519">
<rect x="631" y="349" width="60" height="60" rx="30" fill="white"/>
</clipPath>
<clipPath id="clip20_783_138519">
<rect x="703" y="349" width="60" height="60" rx="30" fill="white"/>
</clipPath>
</defs>
</svg>
