<svg width="446" height="300" fill="none" xmlns="http://www.w3.org/2000/svg"><path fill="#000" fill-opacity=".08" d="M.75 120h300v1H.75z"/><rect x="149.752" y="120" width="1" height="36" rx=".5" fill="#FF8000"/><circle cx="150.254" cy="168.5" r="12.5" fill="#262626"/><path d="M147.21 171.502h2.45v-5.642l-2.114.854-.602-1.316 3.248-1.498h1.33v7.602h2.184V173h-6.496v-1.498Z" fill="#fff"/><path fill="#000" fill-opacity=".08" d="M364.25 0h1v300h-1z"/><rect x="364.25" y="150" width="56" height="1" rx=".5" fill="#FF8000"/><circle cx="432.75" cy="150.5" r="12.5" fill="#262626"/><path d="M429.71 153.502h2.45v-5.642l-2.114.854-.602-1.316 3.248-1.498h1.33v7.602h2.184V155h-6.496v-1.498Z" fill="#fff"/></svg>