<svg width="364" height="24" viewBox="0 0 364 24" fill="none" xmlns="http://www.w3.org/2000/svg">
<rect width="155" height="1" transform="translate(0 11.5)" fill="black" fill-opacity="0.08"/>
<path d="M164.62 7.6H165.98V16.848H169.996V18H164.62V7.6ZM173.643 18.192C173.28 18.192 172.944 18.1333 172.635 18.016C172.336 17.8987 172.075 17.7333 171.851 17.52C171.627 17.3067 171.451 17.056 171.323 16.768C171.206 16.4693 171.147 16.144 171.147 15.792C171.147 15.1093 171.392 14.56 171.883 14.144C172.374 13.728 173.072 13.4933 173.979 13.44L176.059 13.312V12.752C176.059 12.144 175.91 11.7067 175.611 11.44C175.323 11.1627 174.907 11.024 174.363 11.024C173.904 11.024 173.51 11.1093 173.179 11.28C172.848 11.4507 172.592 11.6373 172.411 11.84L171.643 11.072C171.92 10.7307 172.294 10.4533 172.763 10.24C173.243 10.016 173.787 9.904 174.395 9.904C174.939 9.904 175.398 9.97867 175.771 10.128C176.144 10.2667 176.443 10.4587 176.667 10.704C176.902 10.9493 177.067 11.2373 177.163 11.568C177.27 11.8987 177.323 12.2507 177.323 12.624V18H176.123V16.656H176.027C175.814 17.136 175.515 17.5147 175.131 17.792C174.747 18.0587 174.251 18.192 173.643 18.192ZM173.835 17.104C174.496 17.104 175.03 16.912 175.435 16.528C175.851 16.1333 176.059 15.6107 176.059 14.96V14.272L174.043 14.416C172.976 14.5013 172.443 14.9493 172.443 15.76C172.443 16.1653 172.571 16.4907 172.827 16.736C173.094 16.9813 173.43 17.104 173.835 17.104ZM183.963 18.192C183.643 18.192 183.334 18.1493 183.035 18.064C182.747 17.9787 182.48 17.856 182.235 17.696C182 17.536 181.792 17.3493 181.611 17.136C181.44 16.912 181.307 16.6613 181.211 16.384H181.115V18H179.899V6.4H181.179V11.552H181.275C181.478 11.072 181.814 10.6773 182.283 10.368C182.752 10.0587 183.312 9.904 183.963 9.904C184.486 9.904 184.96 10.0053 185.387 10.208C185.824 10.4107 186.198 10.6987 186.507 11.072C186.816 11.4347 187.051 11.872 187.211 12.384C187.382 12.8853 187.467 13.4347 187.467 14.032C187.467 14.6293 187.382 15.184 187.211 15.696C187.051 16.208 186.816 16.6507 186.507 17.024C186.198 17.3867 185.824 17.6747 185.387 17.888C184.96 18.0907 184.486 18.192 183.963 18.192ZM183.643 17.04C183.995 17.04 184.32 16.9813 184.619 16.864C184.928 16.736 185.195 16.5493 185.419 16.304C185.654 16.048 185.835 15.7333 185.963 15.36C186.091 14.9867 186.155 14.5493 186.155 14.048C186.155 13.5467 186.091 13.1093 185.963 12.736C185.835 12.3627 185.654 12.0533 185.419 11.808C185.195 11.552 184.928 11.3653 184.619 11.248C184.32 11.12 183.995 11.056 183.643 11.056C183.302 11.056 182.982 11.12 182.683 11.248C182.384 11.3653 182.123 11.552 181.899 11.808C181.675 12.0533 181.499 12.3627 181.371 12.736C181.243 13.1093 181.179 13.5467 181.179 14.048C181.179 14.5493 181.243 14.9867 181.371 15.36C181.499 15.7333 181.675 16.048 181.899 16.304C182.123 16.5493 182.384 16.736 182.683 16.864C182.982 16.9813 183.302 17.04 183.643 17.04ZM192.612 18.192C192.047 18.192 191.529 18.096 191.06 17.904C190.601 17.712 190.207 17.44 189.876 17.088C189.556 16.7253 189.305 16.288 189.124 15.776C188.953 15.264 188.868 14.688 188.868 14.048C188.868 13.376 188.959 12.784 189.14 12.272C189.321 11.7493 189.572 11.3173 189.892 10.976C190.212 10.624 190.591 10.3573 191.028 10.176C191.476 9.99467 191.967 9.904 192.5 9.904C193.033 9.904 193.524 9.98933 193.972 10.16C194.42 10.3307 194.804 10.5867 195.124 10.928C195.444 11.2587 195.695 11.68 195.876 12.192C196.057 12.6933 196.148 13.28 196.148 13.952C196.148 14.0373 196.143 14.1227 196.132 14.208C196.132 14.2933 196.127 14.3627 196.116 14.416H190.148C190.148 14.7893 190.212 15.1413 190.34 15.472C190.479 15.792 190.66 16.0747 190.884 16.32C191.119 16.5547 191.385 16.7413 191.684 16.88C191.993 17.0187 192.324 17.088 192.676 17.088C193.252 17.088 193.721 16.976 194.084 16.752C194.457 16.528 194.767 16.256 195.012 15.936L195.78 16.72C195.439 17.168 195.012 17.5253 194.5 17.792C193.999 18.0587 193.369 18.192 192.612 18.192ZM192.5 10.96C192.127 10.96 191.796 11.0293 191.508 11.168C191.22 11.3067 190.98 11.488 190.788 11.712C190.596 11.936 190.447 12.192 190.34 12.48C190.244 12.768 190.191 13.056 190.18 13.344H194.804C194.793 13.056 194.735 12.768 194.628 12.48C194.532 12.192 194.388 11.936 194.196 11.712C194.004 11.488 193.764 11.3067 193.476 11.168C193.199 11.0293 192.873 10.96 192.5 10.96ZM198.212 6.4H199.492V18H198.212V6.4Z" fill="#3C4C4F"/>
<rect width="155" height="1" transform="translate(209 11.5)" fill="black" fill-opacity="0.08"/>
</svg>
