<svg width="173" height="144" viewBox="0 0 173 144" fill="none" xmlns="http://www.w3.org/2000/svg">
<g opacity="0.5">
<rect x="38.5" y="8" width="24" height="24" rx="4" fill="#FF8000"/>
<path d="M72.74 23.424H71.012L71.14 22.464H72.868L73.348 19.136H71.62L71.748 18.176H73.476L73.844 15.6H74.996L74.628 18.176H76.996L77.364 15.6H78.516L78.148 18.176H79.876L79.748 19.136H78.02L77.54 22.464H79.268L79.14 23.424H77.412L77.044 26H75.892L76.26 23.424H73.892L73.524 26H72.372L72.74 23.424ZM76.388 22.464L76.868 19.136H74.5L74.02 22.464H76.388ZM81.8626 15.6H87.1266V16.752H83.2226V20.416H86.9826V21.568H83.2226V26H81.8626V15.6ZM89.3939 15.6H94.6579V16.752H90.7539V20.416H94.5139V21.568H90.7539V26H89.3939V15.6ZM100.253 26.192C99.6345 26.192 99.0958 26.112 98.6371 25.952C98.1891 25.792 97.8158 25.5787 97.5171 25.312C97.2185 25.0347 96.9945 24.72 96.8451 24.368C96.6958 24.0053 96.6211 23.6213 96.6211 23.216C96.6211 22.9173 96.6691 22.6293 96.7651 22.352C96.8611 22.0747 96.9998 21.824 97.1811 21.6C97.3625 21.3653 97.5758 21.168 97.8211 21.008C98.0771 20.848 98.3651 20.7413 98.6851 20.688V20.592C98.4185 20.5067 98.1785 20.3787 97.9651 20.208C97.7625 20.0373 97.5865 19.8453 97.4371 19.632C97.2985 19.4187 97.1918 19.1947 97.1171 18.96C97.0425 18.7253 97.0051 18.496 97.0051 18.272C97.0051 17.8987 97.0691 17.5413 97.1971 17.2C97.3358 16.848 97.5385 16.544 97.8051 16.288C98.0718 16.0213 98.4078 15.808 98.8131 15.648C99.2185 15.488 99.6985 15.408 100.253 15.408C100.797 15.408 101.272 15.488 101.677 15.648C102.082 15.808 102.418 16.0213 102.685 16.288C102.952 16.544 103.149 16.848 103.277 17.2C103.416 17.5413 103.485 17.8987 103.485 18.272C103.485 18.496 103.448 18.7253 103.373 18.96C103.298 19.1947 103.186 19.4187 103.037 19.632C102.898 19.8453 102.722 20.0373 102.509 20.208C102.306 20.3787 102.072 20.5067 101.805 20.592V20.688C102.125 20.7413 102.408 20.848 102.653 21.008C102.909 21.168 103.128 21.3653 103.309 21.6C103.49 21.824 103.629 22.0747 103.725 22.352C103.821 22.6293 103.869 22.9173 103.869 23.216C103.869 23.6213 103.794 24.0053 103.645 24.368C103.496 24.72 103.272 25.0347 102.973 25.312C102.674 25.5787 102.296 25.792 101.837 25.952C101.389 26.112 100.861 26.192 100.253 26.192ZM100.253 20.144C100.488 20.144 100.717 20.112 100.941 20.048C101.165 19.9733 101.362 19.8667 101.533 19.728C101.704 19.5787 101.837 19.3973 101.933 19.184C102.04 18.96 102.093 18.6933 102.093 18.384C102.093 18.064 102.04 17.792 101.933 17.568C101.837 17.344 101.704 17.1627 101.533 17.024C101.362 16.8747 101.165 16.768 100.941 16.704C100.717 16.6293 100.488 16.592 100.253 16.592C100.008 16.592 99.7731 16.6293 99.5491 16.704C99.3251 16.768 99.1278 16.8747 98.9571 17.024C98.7865 17.1627 98.6478 17.344 98.5411 17.568C98.4451 17.792 98.3971 18.064 98.3971 18.384C98.3971 18.6933 98.4451 18.96 98.5411 19.184C98.6478 19.3973 98.7865 19.5787 98.9571 19.728C99.1278 19.8667 99.3251 19.9733 99.5491 20.048C99.7731 20.112 100.008 20.144 100.253 20.144ZM100.253 25.008C100.893 25.008 101.421 24.848 101.837 24.528C102.264 24.1973 102.477 23.7227 102.477 23.104C102.477 22.4747 102.264 22.0053 101.837 21.696C101.421 21.3867 100.893 21.232 100.253 21.232C99.6131 21.232 99.0798 21.3867 98.6531 21.696C98.2265 22.0053 98.0131 22.4747 98.0131 23.104C98.0131 23.7227 98.2265 24.1973 98.6531 24.528C99.0798 24.848 99.6131 25.008 100.253 25.008ZM109.847 26.192C109.186 26.192 108.615 26.0533 108.135 25.776C107.666 25.4987 107.276 25.12 106.967 24.64C106.668 24.1493 106.444 23.5787 106.295 22.928C106.156 22.2667 106.087 21.5573 106.087 20.8C106.087 20.0427 106.156 19.3387 106.295 18.688C106.444 18.0267 106.668 17.456 106.967 16.976C107.276 16.4853 107.666 16.1013 108.135 15.824C108.615 15.5467 109.186 15.408 109.847 15.408C110.508 15.408 111.074 15.5467 111.543 15.824C112.023 16.1013 112.412 16.4853 112.711 16.976C113.02 17.456 113.244 18.0267 113.383 18.688C113.532 19.3387 113.607 20.0427 113.607 20.8C113.607 21.5573 113.532 22.2667 113.383 22.928C113.244 23.5787 113.02 24.1493 112.711 24.64C112.412 25.12 112.023 25.4987 111.543 25.776C111.074 26.0533 110.508 26.192 109.847 26.192ZM109.847 25.04C110.242 25.04 110.588 24.944 110.887 24.752C111.186 24.5493 111.431 24.2667 111.623 23.904C111.826 23.5307 111.975 23.0827 112.071 22.56C112.167 22.0373 112.215 21.4507 112.215 20.8C112.215 20.1493 112.167 19.5627 112.071 19.04C111.975 18.5173 111.826 18.0747 111.623 17.712C111.431 17.3387 111.186 17.056 110.887 16.864C110.588 16.6613 110.242 16.56 109.847 16.56C109.452 16.56 109.106 16.6613 108.807 16.864C108.519 17.056 108.274 17.3387 108.071 17.712C107.879 18.0747 107.73 18.5173 107.623 19.04C107.527 19.5627 107.479 20.1493 107.479 20.8C107.479 21.4507 107.527 22.0373 107.623 22.56C107.73 23.0827 107.879 23.5307 108.071 23.904C108.274 24.2667 108.519 24.5493 108.807 24.752C109.106 24.944 109.452 25.04 109.847 25.04ZM119.441 26.192C118.779 26.192 118.209 26.0533 117.729 25.776C117.259 25.4987 116.87 25.12 116.561 24.64C116.262 24.1493 116.038 23.5787 115.889 22.928C115.75 22.2667 115.681 21.5573 115.681 20.8C115.681 20.0427 115.75 19.3387 115.889 18.688C116.038 18.0267 116.262 17.456 116.561 16.976C116.87 16.4853 117.259 16.1013 117.729 15.824C118.209 15.5467 118.779 15.408 119.441 15.408C120.102 15.408 120.667 15.5467 121.137 15.824C121.617 16.1013 122.006 16.4853 122.305 16.976C122.614 17.456 122.838 18.0267 122.977 18.688C123.126 19.3387 123.201 20.0427 123.201 20.8C123.201 21.5573 123.126 22.2667 122.977 22.928C122.838 23.5787 122.614 24.1493 122.305 24.64C122.006 25.12 121.617 25.4987 121.137 25.776C120.667 26.0533 120.102 26.192 119.441 26.192ZM119.441 25.04C119.835 25.04 120.182 24.944 120.481 24.752C120.779 24.5493 121.025 24.2667 121.217 23.904C121.419 23.5307 121.569 23.0827 121.665 22.56C121.761 22.0373 121.809 21.4507 121.809 20.8C121.809 20.1493 121.761 19.5627 121.665 19.04C121.569 18.5173 121.419 18.0747 121.217 17.712C121.025 17.3387 120.779 17.056 120.481 16.864C120.182 16.6613 119.835 16.56 119.441 16.56C119.046 16.56 118.699 16.6613 118.401 16.864C118.113 17.056 117.867 17.3387 117.665 17.712C117.473 18.0747 117.323 18.5173 117.217 19.04C117.121 19.5627 117.073 20.1493 117.073 20.8C117.073 21.4507 117.121 22.0373 117.217 22.56C117.323 23.0827 117.473 23.5307 117.665 23.904C117.867 24.2667 118.113 24.5493 118.401 24.752C118.699 24.944 119.046 25.04 119.441 25.04ZM129.034 26.192C128.373 26.192 127.802 26.0533 127.322 25.776C126.853 25.4987 126.464 25.12 126.154 24.64C125.856 24.1493 125.632 23.5787 125.482 22.928C125.344 22.2667 125.274 21.5573 125.274 20.8C125.274 20.0427 125.344 19.3387 125.482 18.688C125.632 18.0267 125.856 17.456 126.154 16.976C126.464 16.4853 126.853 16.1013 127.322 15.824C127.802 15.5467 128.373 15.408 129.034 15.408C129.696 15.408 130.261 15.5467 130.73 15.824C131.21 16.1013 131.6 16.4853 131.898 16.976C132.208 17.456 132.432 18.0267 132.57 18.688C132.72 19.3387 132.794 20.0427 132.794 20.8C132.794 21.5573 132.72 22.2667 132.57 22.928C132.432 23.5787 132.208 24.1493 131.898 24.64C131.6 25.12 131.21 25.4987 130.73 25.776C130.261 26.0533 129.696 26.192 129.034 26.192ZM129.034 25.04C129.429 25.04 129.776 24.944 130.074 24.752C130.373 24.5493 130.618 24.2667 130.81 23.904C131.013 23.5307 131.162 23.0827 131.258 22.56C131.354 22.0373 131.402 21.4507 131.402 20.8C131.402 20.1493 131.354 19.5627 131.258 19.04C131.162 18.5173 131.013 18.0747 130.81 17.712C130.618 17.3387 130.373 17.056 130.074 16.864C129.776 16.6613 129.429 16.56 129.034 16.56C128.64 16.56 128.293 16.6613 127.994 16.864C127.706 17.056 127.461 17.3387 127.258 17.712C127.066 18.0747 126.917 18.5173 126.81 19.04C126.714 19.5627 126.666 20.1493 126.666 20.8C126.666 21.4507 126.714 22.0373 126.81 22.56C126.917 23.0827 127.066 23.5307 127.258 23.904C127.461 24.2667 127.706 24.5493 127.994 24.752C128.293 24.944 128.64 25.04 129.034 25.04Z" fill="#425457"/>
</g>
<path d="M86.1464 88.3536C86.3417 88.5488 86.6583 88.5488 86.8536 88.3536L90.0355 85.1716C90.2308 84.9763 90.2308 84.6597 90.0355 84.4645C89.8403 84.2692 89.5237 84.2692 89.3284 84.4645L86.5 87.2929L83.6716 84.4645C83.4763 84.2692 83.1597 84.2692 82.9645 84.4645C82.7692 84.6597 82.7692 84.9763 82.9645 85.1716L86.1464 88.3536ZM86 56L86 88L87 88L87 56L86 56Z" fill="#242E30"/>
<rect y="104" width="173" height="40" rx="8" fill="white"/>
<rect x="8" y="112" width="24" height="24" rx="4" fill="#FF8000"/>
<path d="M43.76 129.824C42.992 129.771 42.368 129.616 41.888 129.36C41.408 129.104 41.0133 128.789 40.704 128.416L41.584 127.616C41.872 127.947 42.24 128.213 42.688 128.416C43.136 128.608 43.68 128.704 44.32 128.704C44.608 128.704 44.88 128.683 45.136 128.64C45.392 128.587 45.6213 128.501 45.824 128.384C46.0267 128.256 46.1867 128.096 46.304 127.904C46.4213 127.701 46.48 127.456 46.48 127.168C46.48 126.901 46.4213 126.683 46.304 126.512C46.1867 126.331 46.0213 126.171 45.808 126.032C45.5947 125.893 45.3387 125.771 45.04 125.664C44.752 125.557 44.432 125.44 44.08 125.312C43.7067 125.184 43.3387 125.045 42.976 124.896C42.624 124.747 42.304 124.565 42.016 124.352C41.7387 124.139 41.5147 123.883 41.344 123.584C41.1733 123.275 41.088 122.896 41.088 122.448C41.088 121.659 41.344 121.04 41.856 120.592C42.3787 120.144 43.0613 119.877 43.904 119.792V118.32H45.088V119.792C46.2933 119.909 47.2107 120.395 47.84 121.248L46.96 122.064C46.672 121.733 46.3147 121.456 45.888 121.232C45.472 121.008 44.976 120.896 44.4 120.896C44.1547 120.896 43.9147 120.923 43.68 120.976C43.456 121.019 43.2533 121.099 43.072 121.216C42.8907 121.333 42.7413 121.488 42.624 121.68C42.5173 121.861 42.464 122.091 42.464 122.368C42.464 122.635 42.5227 122.859 42.64 123.04C42.7573 123.211 42.9227 123.365 43.136 123.504C43.3493 123.643 43.6 123.765 43.888 123.872C44.1867 123.979 44.512 124.096 44.864 124.224C45.2373 124.352 45.6 124.491 45.952 124.64C46.3147 124.789 46.6347 124.971 46.912 125.184C47.2 125.397 47.4293 125.659 47.6 125.968C47.7707 126.267 47.856 126.64 47.856 127.088C47.856 127.504 47.7813 127.872 47.632 128.192C47.4933 128.501 47.2907 128.768 47.024 128.992C46.768 129.216 46.4587 129.397 46.096 129.536C45.744 129.664 45.36 129.749 44.944 129.792V131.28H43.76V129.824ZM53.118 130.192C52.478 130.192 51.9233 130.075 51.454 129.84C50.9953 129.605 50.6167 129.296 50.318 128.912C50.0193 128.528 49.8007 128.091 49.662 127.6C49.5233 127.099 49.454 126.581 49.454 126.048C49.454 125.515 49.5233 125.003 49.662 124.512C49.8007 124.011 50.014 123.568 50.302 123.184C50.6007 122.8 50.9793 122.491 51.438 122.256C51.8967 122.021 52.446 121.904 53.086 121.904C53.758 121.904 54.3073 122.016 54.734 122.24C55.1607 122.464 55.5233 122.763 55.822 123.136L55.022 123.888C54.766 123.611 54.494 123.397 54.206 123.248C53.9287 123.088 53.566 123.008 53.118 123.008C52.414 123.008 51.8433 123.28 51.406 123.824C50.9793 124.357 50.766 125.099 50.766 126.048C50.766 126.517 50.8247 126.939 50.942 127.312C51.0593 127.685 51.2247 128.005 51.438 128.272C51.6513 128.539 51.902 128.741 52.19 128.88C52.478 129.019 52.798 129.088 53.15 129.088C53.5767 129.088 53.9447 129.013 54.254 128.864C54.5633 128.704 54.8513 128.475 55.118 128.176L55.886 128.944C55.5767 129.317 55.198 129.621 54.75 129.856C54.302 130.08 53.758 130.192 53.118 130.192ZM60.7144 130.192C60.085 130.192 59.5304 130.085 59.0504 129.872C58.581 129.648 58.1864 129.349 57.8664 128.976C57.557 128.603 57.3224 128.165 57.1624 127.664C57.013 127.163 56.9384 126.624 56.9384 126.048C56.9384 125.472 57.013 124.933 57.1624 124.432C57.3224 123.931 57.557 123.493 57.8664 123.12C58.1864 122.747 58.581 122.453 59.0504 122.24C59.5304 122.016 60.085 121.904 60.7144 121.904C61.3437 121.904 61.8877 122.016 62.3464 122.24C62.8157 122.453 63.205 122.747 63.5144 123.12C63.8237 123.493 64.053 123.931 64.2024 124.432C64.3624 124.933 64.4424 125.472 64.4424 126.048C64.4424 126.624 64.3624 127.163 64.2024 127.664C64.053 128.165 63.8237 128.603 63.5144 128.976C63.205 129.349 62.8157 129.648 62.3464 129.872C61.8877 130.085 61.3437 130.192 60.7144 130.192ZM58.2504 126.048C58.2504 126.507 58.2984 126.928 58.3944 127.312C58.501 127.685 58.6557 128.011 58.8584 128.288C59.061 128.555 59.317 128.763 59.6264 128.912C59.9357 129.061 60.2984 129.136 60.7144 129.136C61.1197 129.136 61.4717 129.061 61.7704 128.912C62.0797 128.763 62.3304 128.555 62.5224 128.288C62.725 128.011 62.8744 127.685 62.9704 127.312C63.077 126.928 63.1304 126.507 63.1304 126.048C63.1304 125.589 63.077 125.173 62.9704 124.8C62.8744 124.416 62.725 124.091 62.5224 123.824C62.3304 123.547 62.0797 123.333 61.7704 123.184C61.4717 123.035 61.1197 122.96 60.7144 122.96C60.2984 122.96 59.9357 123.035 59.6264 123.184C59.317 123.333 59.061 123.547 58.8584 123.824C58.6557 124.091 58.501 124.416 58.3944 124.8C58.2984 125.173 58.2504 125.589 58.2504 126.048ZM66.5006 118.4H67.7806V130H66.5006V118.4ZM73.6206 130.192C72.9913 130.192 72.4366 130.085 71.9566 129.872C71.4873 129.648 71.0926 129.349 70.7726 128.976C70.4633 128.603 70.2286 128.165 70.0686 127.664C69.9193 127.163 69.8446 126.624 69.8446 126.048C69.8446 125.472 69.9193 124.933 70.0686 124.432C70.2286 123.931 70.4633 123.493 70.7726 123.12C71.0926 122.747 71.4873 122.453 71.9566 122.24C72.4366 122.016 72.9913 121.904 73.6206 121.904C74.25 121.904 74.794 122.016 75.2526 122.24C75.722 122.453 76.1113 122.747 76.4206 123.12C76.73 123.493 76.9593 123.931 77.1086 124.432C77.2686 124.933 77.3486 125.472 77.3486 126.048C77.3486 126.624 77.2686 127.163 77.1086 127.664C76.9593 128.165 76.73 128.603 76.4206 128.976C76.1113 129.349 75.722 129.648 75.2526 129.872C74.794 130.085 74.25 130.192 73.6206 130.192ZM71.1566 126.048C71.1566 126.507 71.2046 126.928 71.3006 127.312C71.4073 127.685 71.562 128.011 71.7646 128.288C71.9673 128.555 72.2233 128.763 72.5326 128.912C72.842 129.061 73.2046 129.136 73.6206 129.136C74.026 129.136 74.378 129.061 74.6766 128.912C74.986 128.763 75.2366 128.555 75.4286 128.288C75.6313 128.011 75.7806 127.685 75.8766 127.312C75.9833 126.928 76.0366 126.507 76.0366 126.048C76.0366 125.589 75.9833 125.173 75.8766 124.8C75.7806 124.416 75.6313 124.091 75.4286 123.824C75.2366 123.547 74.986 123.333 74.6766 123.184C74.378 123.035 74.026 122.96 73.6206 122.96C73.2046 122.96 72.842 123.035 72.5326 123.184C72.2233 123.333 71.9673 123.547 71.7646 123.824C71.562 124.091 71.4073 124.416 71.3006 124.8C71.2046 125.173 71.1566 125.589 71.1566 126.048ZM79.4069 122.096H80.6229V123.376H80.7189C80.8895 122.96 81.1349 122.613 81.4549 122.336C81.7749 122.048 82.1749 121.904 82.6549 121.904C83.0602 121.904 83.4175 121.984 83.7269 122.144L83.2949 123.296C83.1562 123.221 83.0069 123.173 82.8469 123.152C82.6975 123.12 82.5429 123.104 82.3829 123.104C81.8602 123.104 81.4442 123.317 81.1349 123.744C80.8362 124.16 80.6869 124.693 80.6869 125.344V130H79.4069V122.096ZM84.7904 124.752H88.4704V126.096H84.7904V124.752ZM94.0113 130.192C93.3819 130.192 92.8273 130.085 92.3473 129.872C91.8779 129.648 91.4833 129.349 91.1633 128.976C90.8539 128.603 90.6193 128.165 90.4593 127.664C90.3099 127.163 90.2353 126.624 90.2353 126.048C90.2353 125.472 90.3099 124.933 90.4593 124.432C90.6193 123.931 90.8539 123.493 91.1633 123.12C91.4833 122.747 91.8779 122.453 92.3473 122.24C92.8273 122.016 93.3819 121.904 94.0113 121.904C94.6406 121.904 95.1846 122.016 95.6433 122.24C96.1126 122.453 96.5019 122.747 96.8113 123.12C97.1206 123.493 97.3499 123.931 97.4993 124.432C97.6593 124.933 97.7393 125.472 97.7393 126.048C97.7393 126.624 97.6593 127.163 97.4993 127.664C97.3499 128.165 97.1206 128.603 96.8113 128.976C96.5019 129.349 96.1126 129.648 95.6433 129.872C95.1846 130.085 94.6406 130.192 94.0113 130.192ZM91.5473 126.048C91.5473 126.507 91.5953 126.928 91.6913 127.312C91.7979 127.685 91.9526 128.011 92.1553 128.288C92.3579 128.555 92.6139 128.763 92.9233 128.912C93.2326 129.061 93.5953 129.136 94.0113 129.136C94.4166 129.136 94.7686 129.061 95.0673 128.912C95.3766 128.763 95.6273 128.555 95.8193 128.288C96.0219 128.011 96.1713 127.685 96.2673 127.312C96.3739 126.928 96.4273 126.507 96.4273 126.048C96.4273 125.589 96.3739 125.173 96.2673 124.8C96.1713 124.416 96.0219 124.091 95.8193 123.824C95.6273 123.547 95.3766 123.333 95.0673 123.184C94.7686 123.035 94.4166 122.96 94.0113 122.96C93.5953 122.96 93.2326 123.035 92.9233 123.184C92.6139 123.333 92.3579 123.547 92.1553 123.824C91.9526 124.091 91.7979 124.416 91.6913 124.8C91.5953 125.173 91.5473 125.589 91.5473 126.048ZM99.7975 122.096H101.014V123.376H101.11C101.28 122.96 101.526 122.613 101.846 122.336C102.166 122.048 102.566 121.904 103.046 121.904C103.451 121.904 103.808 121.984 104.118 122.144L103.686 123.296C103.547 123.221 103.398 123.173 103.238 123.152C103.088 123.12 102.934 123.104 102.774 123.104C102.251 123.104 101.835 123.317 101.526 123.744C101.227 124.16 101.078 124.693 101.078 125.344V130H99.7975V122.096ZM107.354 130.192C106.991 130.192 106.655 130.133 106.346 130.016C106.047 129.899 105.786 129.733 105.562 129.52C105.338 129.307 105.162 129.056 105.034 128.768C104.917 128.469 104.858 128.144 104.858 127.792C104.858 127.109 105.103 126.56 105.594 126.144C106.085 125.728 106.783 125.493 107.69 125.44L109.77 125.312V124.752C109.77 124.144 109.621 123.707 109.322 123.44C109.034 123.163 108.618 123.024 108.074 123.024C107.615 123.024 107.221 123.109 106.89 123.28C106.559 123.451 106.303 123.637 106.122 123.84L105.354 123.072C105.631 122.731 106.005 122.453 106.474 122.24C106.954 122.016 107.498 121.904 108.106 121.904C108.65 121.904 109.109 121.979 109.482 122.128C109.855 122.267 110.154 122.459 110.378 122.704C110.613 122.949 110.778 123.237 110.874 123.568C110.981 123.899 111.034 124.251 111.034 124.624V130H109.834V128.656H109.738C109.525 129.136 109.226 129.515 108.842 129.792C108.458 130.059 107.962 130.192 107.354 130.192ZM107.546 129.104C108.207 129.104 108.741 128.912 109.146 128.528C109.562 128.133 109.77 127.611 109.77 126.96V126.272L107.754 126.416C106.687 126.501 106.154 126.949 106.154 127.76C106.154 128.165 106.282 128.491 106.538 128.736C106.805 128.981 107.141 129.104 107.546 129.104ZM113.61 122.096H114.826V123.344H114.922C115.114 122.928 115.386 122.587 115.738 122.32C116.09 122.043 116.538 121.904 117.082 121.904C117.989 121.904 118.703 122.144 119.226 122.624C119.759 123.104 120.026 123.877 120.026 124.944V130H118.746V125.184C118.746 124.373 118.581 123.803 118.25 123.472C117.93 123.131 117.455 122.96 116.826 122.96C116.218 122.96 115.743 123.168 115.402 123.584C115.061 124 114.89 124.608 114.89 125.408V130H113.61V122.096ZM125.746 133.152C125.064 133.152 124.472 133.029 123.97 132.784C123.469 132.549 123.069 132.256 122.77 131.904L123.618 131.088C123.842 131.365 124.13 131.584 124.482 131.744C124.845 131.915 125.245 132 125.682 132C126.365 132 126.898 131.835 127.282 131.504C127.677 131.173 127.874 130.592 127.874 129.76V128.224H127.778C127.693 128.491 127.57 128.731 127.41 128.944C127.25 129.147 127.058 129.323 126.834 129.472C126.621 129.611 126.381 129.723 126.114 129.808C125.858 129.883 125.597 129.92 125.33 129.92C124.829 129.92 124.37 129.829 123.954 129.648C123.549 129.467 123.192 129.205 122.882 128.864C122.584 128.512 122.349 128.085 122.178 127.584C122.018 127.083 121.938 126.517 121.938 125.888C121.938 125.269 122.018 124.715 122.178 124.224C122.349 123.733 122.584 123.317 122.882 122.976C123.192 122.635 123.549 122.373 123.954 122.192C124.37 122 124.829 121.904 125.33 121.904C125.917 121.904 126.44 122.059 126.898 122.368C127.368 122.667 127.682 123.083 127.842 123.616H127.938V122.096H129.154V129.92C129.154 130.891 128.861 131.669 128.274 132.256C127.698 132.853 126.856 133.152 125.746 133.152ZM125.586 128.768C126.29 128.768 126.845 128.523 127.25 128.032C127.666 127.541 127.874 126.832 127.874 125.904C127.874 124.965 127.666 124.256 127.25 123.776C126.845 123.296 126.29 123.056 125.586 123.056C124.872 123.056 124.301 123.296 123.874 123.776C123.458 124.256 123.25 124.965 123.25 125.904C123.25 126.832 123.458 127.541 123.874 128.032C124.301 128.523 124.872 128.768 125.586 128.768ZM134.964 130.192C134.398 130.192 133.881 130.096 133.412 129.904C132.953 129.712 132.558 129.44 132.228 129.088C131.908 128.725 131.657 128.288 131.476 127.776C131.305 127.264 131.22 126.688 131.22 126.048C131.22 125.376 131.31 124.784 131.492 124.272C131.673 123.749 131.924 123.317 132.244 122.976C132.564 122.624 132.942 122.357 133.38 122.176C133.828 121.995 134.318 121.904 134.852 121.904C135.385 121.904 135.876 121.989 136.324 122.16C136.772 122.331 137.156 122.587 137.476 122.928C137.796 123.259 138.046 123.68 138.228 124.192C138.409 124.693 138.5 125.28 138.5 125.952C138.5 126.037 138.494 126.123 138.484 126.208C138.484 126.293 138.478 126.363 138.468 126.416H132.5C132.5 126.789 132.564 127.141 132.692 127.472C132.83 127.792 133.012 128.075 133.236 128.32C133.47 128.555 133.737 128.741 134.036 128.88C134.345 129.019 134.676 129.088 135.028 129.088C135.604 129.088 136.073 128.976 136.436 128.752C136.809 128.528 137.118 128.256 137.364 127.936L138.132 128.72C137.79 129.168 137.364 129.525 136.852 129.792C136.35 130.059 135.721 130.192 134.964 130.192ZM134.852 122.96C134.478 122.96 134.148 123.029 133.86 123.168C133.572 123.307 133.332 123.488 133.14 123.712C132.948 123.936 132.798 124.192 132.692 124.48C132.596 124.768 132.542 125.056 132.532 125.344H137.156C137.145 125.056 137.086 124.768 136.98 124.48C136.884 124.192 136.74 123.936 136.548 123.712C136.356 123.488 136.116 123.307 135.828 123.168C135.55 123.029 135.225 122.96 134.852 122.96ZM140.259 124.752H143.939V126.096H140.259V124.752ZM149.416 130.192C148.648 130.192 148.003 130.053 147.48 129.776C146.968 129.499 146.552 129.152 146.232 128.736L147.048 127.936C147.293 128.245 147.597 128.501 147.96 128.704C148.333 128.907 148.803 129.008 149.368 129.008C150.051 129.008 150.589 128.848 150.984 128.528C151.379 128.197 151.576 127.712 151.576 127.072C151.576 126.453 151.373 126 150.968 125.712C150.563 125.424 150.045 125.28 149.416 125.28H148.456V124.128H149.368C149.997 124.128 150.461 123.963 150.76 123.632C151.069 123.301 151.224 122.869 151.224 122.336C151.224 122.027 151.171 121.765 151.064 121.552C150.968 121.328 150.829 121.147 150.648 121.008C150.477 120.859 150.275 120.752 150.04 120.688C149.816 120.624 149.581 120.592 149.336 120.592C148.845 120.592 148.419 120.688 148.056 120.88C147.693 121.072 147.389 121.312 147.144 121.6L146.408 120.8C146.717 120.416 147.117 120.091 147.608 119.824C148.109 119.547 148.712 119.408 149.416 119.408C149.843 119.408 150.248 119.472 150.632 119.6C151.027 119.717 151.368 119.893 151.656 120.128C151.955 120.352 152.189 120.64 152.36 120.992C152.531 121.333 152.616 121.728 152.616 122.176C152.616 122.773 152.461 123.28 152.152 123.696C151.843 124.101 151.4 124.405 150.824 124.608V124.704C151.112 124.757 151.384 124.853 151.64 124.992C151.907 125.12 152.136 125.291 152.328 125.504C152.531 125.707 152.685 125.952 152.792 126.24C152.909 126.528 152.968 126.848 152.968 127.2C152.968 127.659 152.883 128.075 152.712 128.448C152.552 128.811 152.317 129.125 152.008 129.392C151.699 129.648 151.325 129.845 150.888 129.984C150.451 130.123 149.96 130.192 149.416 130.192ZM159.394 130.192C158.732 130.192 158.162 130.053 157.682 129.776C157.212 129.499 156.823 129.12 156.514 128.64C156.215 128.149 155.991 127.579 155.842 126.928C155.703 126.267 155.634 125.557 155.634 124.8C155.634 124.043 155.703 123.339 155.842 122.688C155.991 122.027 156.215 121.456 156.514 120.976C156.823 120.485 157.212 120.101 157.682 119.824C158.162 119.547 158.732 119.408 159.394 119.408C160.055 119.408 160.62 119.547 161.09 119.824C161.57 120.101 161.959 120.485 162.258 120.976C162.567 121.456 162.791 122.027 162.93 122.688C163.079 123.339 163.154 124.043 163.154 124.8C163.154 125.557 163.079 126.267 162.93 126.928C162.791 127.579 162.567 128.149 162.258 128.64C161.959 129.12 161.57 129.499 161.09 129.776C160.62 130.053 160.055 130.192 159.394 130.192ZM159.394 129.04C159.788 129.04 160.135 128.944 160.434 128.752C160.732 128.549 160.978 128.267 161.17 127.904C161.372 127.531 161.522 127.083 161.618 126.56C161.714 126.037 161.762 125.451 161.762 124.8C161.762 124.149 161.714 123.563 161.618 123.04C161.522 122.517 161.372 122.075 161.17 121.712C160.978 121.339 160.732 121.056 160.434 120.864C160.135 120.661 159.788 120.56 159.394 120.56C158.999 120.56 158.652 120.661 158.354 120.864C158.066 121.056 157.82 121.339 157.618 121.712C157.426 122.075 157.276 122.517 157.17 123.04C157.074 123.563 157.026 124.149 157.026 124.8C157.026 125.451 157.074 126.037 157.17 126.56C157.276 127.083 157.426 127.531 157.618 127.904C157.82 128.267 158.066 128.549 158.354 128.752C158.652 128.944 158.999 129.04 159.394 129.04Z" fill="#425457"/>
</svg>
