<svg width="100" height="100" fill="none" xmlns="http://www.w3.org/2000/svg"><g clip-path="url(#content-spacing__a)"><mask id="content-spacing__b" style="mask-type:luminance" maskUnits="userSpaceOnUse" x="0" y="0" width="100" height="100"><path d="M0 12C0 5.373 5.373 0 12 0h76c6.627 0 12 5.373 12 12v76c0 6.627-5.373 12-12 12H12c-6.627 0-12-5.373-12-12V12Z" fill="#fff"/></mask><g mask="url(#content-spacing__b)"><path d="M88 0H12C5.373 0 0 5.373 0 12v76c0 6.627 5.373 12 12 12h76c6.627 0 12-5.373 12-12V12c0-6.627-5.373-12-12-12Z" fill="#fff"/><path d="M88 .5H12C5.649.5.5 5.649.5 12v76c0 6.351 5.149 11.5 11.5 11.5h76c6.351 0 11.5-5.149 11.5-11.5V12C99.5 5.649 94.351.5 88 .5Z" stroke="#DBD9D7"/></g><path d="M13.357 20h3.38v5h4.76v-5h3.38v13h-3.38v-5.3h-4.76V33h-3.38V20Zm18.346 13.24c-.906 0-1.686-.147-2.34-.44a4.549 4.549 0 0 1-1.58-1.16 4.738 4.738 0 0 1-.92-1.64c-.2-.627-.3-1.273-.3-1.94 0-.653.087-1.293.26-1.92.187-.627.474-1.18.86-1.66.4-.48.913-.867 1.54-1.16.627-.293 1.393-.44 2.3-.44.907 0 1.674.147 2.3.44.627.28 1.127.66 1.5 1.14.387.467.66 1.007.82 1.62.173.613.26 1.247.26 1.9 0 .147-.013.34-.04.58-.026.227-.06.4-.1.52h-6.48c.053.293.153.54.3.74.16.2.34.36.54.48s.407.207.62.26c.227.053.44.08.64.08.467 0 .867-.073 1.2-.22.347-.147.614-.34.8-.58l1.74 1.82c-.32.467-.826.847-1.52 1.14-.693.293-1.493.44-2.4.44Zm-.18-8c-.427 0-.806.133-1.14.4-.333.253-.553.7-.66 1.34h3.56c-.093-.64-.306-1.087-.64-1.34a1.748 1.748 0 0 0-1.12-.4Zm9.081 8c-.44 0-.867-.067-1.28-.2a3.27 3.27 0 0 1-1.06-.58 3.24 3.24 0 0 1-.72-.96 3.01 3.01 0 0 1-.26-1.28c0-.907.32-1.62.96-2.14.653-.52 1.673-.82 3.06-.9l2.1-.12v-.16c0-.28-.06-.507-.18-.68a1.065 1.065 0 0 0-.44-.4 1.707 1.707 0 0 0-.62-.22c-.227-.04-.46-.06-.7-.06-.373 0-.753.067-1.14.2-.387.133-.673.32-.86.56l-1.74-1.8c.36-.453.887-.833 1.58-1.14.693-.32 1.6-.48 2.72-.48 1.427 0 2.54.327 3.34.98.813.653 1.22 1.593 1.22 2.82V33h-2.98v-1.52h-.12a3.29 3.29 0 0 1-1.1 1.28c-.467.32-1.06.48-1.78.48Zm1.08-2.16c.507 0 .92-.133 1.24-.4.32-.28.48-.7.48-1.26v-.52l-1.66.12c-.427.027-.747.133-.96.32-.2.187-.3.433-.3.74 0 .347.113.6.34.76.24.16.527.24.86.24Zm10.545 2.16c-.6 0-1.153-.12-1.66-.36a4.378 4.378 0 0 1-1.34-1.04 4.864 4.864 0 0 1-.88-1.6 6.421 6.421 0 0 1-.32-2.08c0-.787.107-1.5.32-2.14a5.285 5.285 0 0 1 .88-1.68 4.132 4.132 0 0 1 1.34-1.08 3.66 3.66 0 0 1 1.66-.38c.733 0 1.34.173 1.82.52.493.333.847.78 1.06 1.34h.12V18.5h3.18V33h-3.02v-1.76h-.12c-.24.64-.627 1.133-1.16 1.48-.52.347-1.147.52-1.88.52Zm1.02-2.74c.667 0 1.16-.233 1.48-.7.333-.48.5-1.06.5-1.74 0-.68-.167-1.253-.5-1.72-.32-.48-.813-.72-1.48-.72-.64 0-1.127.24-1.46.72-.333.467-.5 1.04-.5 1.72 0 .68.167 1.26.5 1.74.333.467.82.7 1.46.7Zm10.673-10.22c0 .453-.153.86-.46 1.22-.307.347-.753.52-1.34.52-.6 0-1.047-.173-1.34-.52a1.88 1.88 0 0 1-.44-1.22c0-.453.147-.853.44-1.2.293-.36.74-.54 1.34-.54.587 0 1.033.18 1.34.54.307.347.46.747.46 1.2Zm-3.4 2.84h3.18V33h-3.18v-9.88Zm5.293 0h2.98v1.64h.12c.2-.547.56-.993 1.08-1.34.533-.36 1.14-.54 1.82-.54.653 0 1.2.093 1.64.28.453.173.813.433 1.08.78.267.347.453.78.56 1.3.12.507.18 1.087.18 1.74V33h-3.18v-5.38c0-.627-.107-1.12-.32-1.48-.213-.373-.613-.56-1.2-.56-.56 0-.967.173-1.22.52-.24.347-.36.853-.36 1.52V33h-3.18v-9.88ZM81.46 36.94c-.866 0-1.646-.153-2.34-.46-.693-.293-1.2-.653-1.52-1.08l1.86-1.9c.174.227.454.413.84.56.387.16.78.24 1.18.24.254 0 .507-.027.76-.08.254-.053.48-.147.68-.28.2-.133.36-.313.48-.54.134-.227.2-.513.2-.86v-1.86h-.08c-.213.52-.553.953-1.02 1.3-.466.333-1.073.5-1.82.5-.6 0-1.14-.113-1.62-.34a3.736 3.736 0 0 1-1.24-1 5.036 5.036 0 0 1-.78-1.56c-.186-.6-.28-1.26-.28-1.98 0-.707.094-1.347.28-1.92.187-.587.454-1.08.8-1.48a3.62 3.62 0 0 1 1.24-.96 3.881 3.881 0 0 1 1.64-.34c.747 0 1.36.167 1.84.5.494.32.86.773 1.1 1.36h.12v-1.64h3v9.48c0 .707-.126 1.327-.38 1.86-.253.547-.613 1-1.08 1.36-.466.373-1.026.653-1.68.84-.653.187-1.38.28-2.18.28Zm.34-7.04c.307 0 .574-.06.8-.18.227-.133.414-.3.56-.5.147-.213.254-.453.32-.72.08-.267.12-.547.12-.84 0-.293-.04-.573-.12-.84a1.98 1.98 0 0 0-.32-.7 1.551 1.551 0 0 0-.56-.5 1.55 1.55 0 0 0-.8-.2 1.55 1.55 0 0 0-.8.2c-.226.12-.413.287-.56.5-.146.2-.26.433-.34.7-.066.267-.1.547-.1.84 0 .293.034.573.1.84.08.267.194.507.34.72.147.2.334.367.56.5.227.12.494.18.8.18ZM36.685 66.192c-.907 0-1.643-.139-2.208-.416-.566-.277-1.013-.635-1.344-1.072l.864-.816c.288.352.666.63 1.136.832.48.203 1.04.304 1.68.304.288 0 .565-.032.832-.096.266-.064.501-.16.704-.288a1.43 1.43 0 0 0 .496-.544c.128-.224.192-.496.192-.816a1.24 1.24 0 0 0-.192-.704 1.619 1.619 0 0 0-.528-.512 3.227 3.227 0 0 0-.768-.384 19.82 19.82 0 0 0-.976-.352 33.621 33.621 0 0 1-1.104-.4 4.157 4.157 0 0 1-.976-.56 2.725 2.725 0 0 1-.704-.816c-.181-.33-.272-.736-.272-1.216s.085-.901.256-1.264c.181-.363.426-.667.736-.912s.677-.432 1.104-.56c.426-.128.89-.192 1.392-.192.736 0 1.392.128 1.968.384a3.312 3.312 0 0 1 1.424 1.168l-.864.848a3.504 3.504 0 0 0-1.104-.88c-.448-.235-.96-.352-1.536-.352-.245 0-.486.032-.72.096-.235.053-.448.15-.64.288a1.583 1.583 0 0 0-.464.528c-.117.213-.176.47-.176.768 0 .277.064.517.192.72.128.192.298.363.512.512.224.139.485.267.784.384.298.107.624.219.976.336.373.128.741.267 1.104.416.363.15.688.336.976.56.288.224.523.496.704.816.181.32.272.72.272 1.2 0 .512-.101.96-.304 1.344a2.581 2.581 0 0 1-.8.928c-.33.245-.725.427-1.184.544a5.668 5.668 0 0 1-1.44.176Zm8.319 0c-.715 0-1.238-.213-1.569-.64-.33-.427-.495-1.013-.495-1.76v-4.656h-1.408v-1.04h1.408v-2.144h1.264v2.144h2.288v1.04h-2.288v4.544c0 .512.096.87.288 1.072.202.203.458.304.768.304.213 0 .405-.037.576-.112.17-.085.33-.197.48-.336l.575.896c-.49.459-1.12.688-1.887.688Zm3.63-8.096h1.216v1.28h.096c.17-.416.416-.763.736-1.04.32-.288.72-.432 1.2-.432a2.3 2.3 0 0 1 1.072.24l-.432 1.152a1.297 1.297 0 0 0-.448-.144 2.208 2.208 0 0 0-.464-.048c-.523 0-.939.213-1.248.64-.299.416-.448.95-.448 1.6V66h-1.28v-7.904ZM56.091 56c0 .224-.08.416-.24.576-.15.16-.352.24-.608.24-.267 0-.475-.08-.624-.24a.815.815 0 0 1-.224-.576c0-.213.074-.4.224-.56.15-.17.357-.256.624-.256.256 0 .459.085.608.256.16.16.24.347.24.56Zm-1.488 2.096h1.28V66h-1.28v-7.904Zm4 0h1.216v1.248h.096a2.66 2.66 0 0 1 .816-1.024c.352-.277.8-.416 1.344-.416.906 0 1.621.24 2.144.72.533.48.8 1.253.8 2.32V66h-1.28v-4.816c0-.81-.165-1.381-.496-1.712-.32-.341-.795-.512-1.424-.512-.608 0-1.083.208-1.424.624-.342.416-.512 1.024-.512 1.824V66h-1.28v-7.904Zm12.136 11.056c-.683 0-1.275-.123-1.776-.368-.501-.235-.901-.528-1.2-.88l.848-.816c.224.277.512.496.864.656.363.17.763.256 1.2.256.683 0 1.216-.165 1.6-.496.395-.33.592-.912.592-1.744v-1.536h-.096a2.419 2.419 0 0 1-.368.72c-.16.203-.352.379-.576.528a2.98 2.98 0 0 1-.72.336 2.785 2.785 0 0 1-.784.112c-.501 0-.96-.09-1.376-.272a3.198 3.198 0 0 1-1.072-.784 3.892 3.892 0 0 1-.704-1.28 5.567 5.567 0 0 1-.24-1.696c0-.619.08-1.173.24-1.664.17-.49.405-.907.704-1.248a3.244 3.244 0 0 1 2.448-1.072c.587 0 1.11.155 1.568.464.47.299.784.715.944 1.248h.096v-1.52h1.216v7.824c0 .97-.293 1.75-.88 2.336-.576.597-1.418.896-2.528.896Zm-.16-4.384c.704 0 1.259-.245 1.664-.736.416-.49.624-1.2.624-2.128 0-.939-.208-1.648-.624-2.128-.405-.48-.96-.72-1.664-.72-.714 0-1.285.24-1.712.72-.416.48-.624 1.19-.624 2.128 0 .928.208 1.637.624 2.128.427.49.998.736 1.712.736Z" fill="#000"/><mask id="content-spacing__c" style="mask-type:luminance" maskUnits="userSpaceOnUse" x="12" y="52" width="16" height="16"><path d="M28 52H12v16h16V52Z" fill="#fff"/></mask><g mask="url(#content-spacing__c)"><path fill-rule="evenodd" clip-rule="evenodd" d="M12.083 52h15.834l.083.083v15.834l-.083.083H12.083L12 67.917V52.083l.083-.083Zm15.75 15.834V52.165H12.167v15.669h15.668ZM15.27 53h9.463A2.269 2.269 0 0 1 27 55.269v9.462A2.268 2.268 0 0 1 24.732 67h-9.463A2.269 2.269 0 0 1 13 64.731V55.27A2.269 2.269 0 0 1 15.268 53Z" fill="#242E30"/></g><path opacity=".5" d="M100 40H0v8h100v-8Z" fill="#C1DADE"/><path opacity=".5" d="M32 40h-4v60h4V40Z" fill="#C1DADE"/></g><defs><clipPath id="content-spacing__a"><path fill="#fff" d="M0 0h100v100H0z"/></clipPath></defs></svg>