<svg width="468" height="48" viewBox="0 0 468 48" fill="none" xmlns="http://www.w3.org/2000/svg">
<g clip-path="url(#clip0_18382_11957)">
<path d="M0.5 24C0.5 15.1634 7.66344 8 16.5 8H65.5C74.3366 8 81.5 15.1634 81.5 24C81.5 32.8366 74.3366 40 65.5 40H16.5C7.66344 40 0.5 32.8366 0.5 24Z" fill="#2B2A28"/>
<path d="M0.5 24C0.5 15.1634 7.66344 8 16.5 8H65.5C74.3366 8 81.5 15.1634 81.5 24C81.5 32.8366 74.3366 40 65.5 40H16.5C7.66344 40 0.5 32.8366 0.5 24Z" fill="white" fill-opacity="0.01"/>
<g clip-path="url(#clip1_18382_11957)">
<path d="M26.4238 20.9902C25.6013 19.704 23.125 16.764 17.7525 17.0877C17.371 17.1101 17.0126 17.2775 16.7506 17.5557C16.4887 17.8339 16.3431 18.2018 16.3438 18.584V31.0002L26.1175 22.959C26.4014 22.7257 26.5895 22.3961 26.646 22.033C26.7025 21.6699 26.6234 21.2987 26.4238 20.9902ZM17.6738 25.8202C17.8343 25.8323 17.9956 25.8097 18.1466 25.7538C18.2976 25.6979 18.4347 25.6101 18.5488 25.4965C18.763 25.2816 18.8833 24.9905 18.8833 24.6871C18.8833 24.3836 18.763 24.0926 18.5488 23.8777C18.4339 23.7647 18.2968 23.6768 18.1462 23.6196C17.9955 23.5624 17.8347 23.537 17.6738 23.5452V20.6227C18.808 20.5664 19.9392 20.7825 20.9728 21.2529C22.0064 21.7233 22.9124 22.4343 23.615 23.3265L17.6563 28.1827L17.6738 25.8202ZM25.3038 21.944L24.63 22.4952C23.7986 21.4555 22.734 20.6261 21.5224 20.0743C20.3109 19.5225 18.9864 19.2637 17.6563 19.319V18.584C17.656 18.5563 17.6617 18.5289 17.673 18.5037C17.6842 18.4784 17.7008 18.4559 17.7216 18.4376C17.7423 18.4194 17.7668 18.4058 17.7933 18.3978C17.8197 18.3899 17.8476 18.3877 17.875 18.3915H18.5925C22.7488 18.3915 24.7175 20.684 25.365 21.7165C25.3797 21.7577 25.3799 21.8027 25.3656 21.844C25.3513 21.8854 25.3233 21.9206 25.2863 21.944H25.3038ZM21.8038 23.064C21.8037 23.2641 21.7439 23.4596 21.6322 23.6256C21.5204 23.7916 21.3617 23.9205 21.1763 23.9959C20.9909 24.0712 20.7872 24.0895 20.5913 24.0485C20.3955 24.0075 20.2163 23.909 20.0766 23.7657C19.937 23.6223 19.8433 23.4406 19.8075 23.2437C19.7717 23.0468 19.7954 22.8437 19.8756 22.6603C19.9558 22.477 20.0888 22.3217 20.2577 22.2144C20.4266 22.107 20.6237 22.0525 20.8238 22.0577C21.0906 22.0577 21.3466 22.1637 21.5353 22.3524C21.724 22.5411 21.83 22.7971 21.83 23.064H21.8038Z" fill="white" fill-opacity="0.9"/>
</g>
<path d="M37.522 19.9H41.036C41.4933 19.9 41.904 19.97 42.268 20.11C42.6413 20.25 42.9587 20.4507 43.22 20.712C43.4813 20.9733 43.682 21.2907 43.822 21.664C43.9713 22.0373 44.046 22.4527 44.046 22.91C44.046 23.3673 43.9713 23.7827 43.822 24.156C43.682 24.5293 43.4813 24.8467 43.22 25.108C42.9587 25.3693 42.6413 25.57 42.268 25.71C41.8947 25.85 41.484 25.92 41.036 25.92H39.398V29H37.522V19.9ZM40.812 24.464C41.2507 24.464 41.582 24.324 41.806 24.044C42.0393 23.7547 42.156 23.3767 42.156 22.91C42.156 22.434 42.0393 22.056 41.806 21.776C41.582 21.496 41.2507 21.356 40.812 21.356H39.398V24.464H40.812ZM47.3951 20.166C47.3951 20.4273 47.3017 20.6607 47.1151 20.866C46.9377 21.0713 46.6857 21.174 46.3591 21.174C46.0231 21.174 45.7664 21.0713 45.5891 20.866C45.4117 20.6607 45.3231 20.4273 45.3231 20.166C45.3231 19.8953 45.4117 19.662 45.5891 19.466C45.7664 19.2607 46.0231 19.158 46.3591 19.158C46.6857 19.158 46.9377 19.2607 47.1151 19.466C47.3017 19.662 47.3951 19.8953 47.3951 20.166ZM45.4631 22.084H47.2271V29H45.4631V22.084ZM48.6661 27.866L52.0401 23.498H48.7781V22.084H54.3781V23.218L51.0041 27.586H54.4901V29H48.6661V27.866ZM55.502 27.866L58.876 23.498H55.614V22.084H61.214V23.218L57.84 27.586H61.326V29H55.502V27.866ZM64.562 29.168C64.254 29.168 63.96 29.1167 63.68 29.014C63.4093 28.9207 63.1713 28.7853 62.966 28.608C62.7607 28.4213 62.5973 28.1973 62.476 27.936C62.364 27.6747 62.308 27.3807 62.308 27.054C62.308 26.438 62.5273 25.948 62.966 25.584C63.4047 25.22 64.072 25.0147 64.968 24.968L66.592 24.87V24.59C66.592 24.142 66.4567 23.834 66.186 23.666C65.9153 23.498 65.5793 23.414 65.178 23.414C64.8607 23.414 64.562 23.4747 64.282 23.596C64.002 23.708 63.792 23.848 63.652 24.016L62.658 23.008C62.9007 22.6907 63.2507 22.4293 63.708 22.224C64.1747 22.0187 64.744 21.916 65.416 21.916C66.4053 21.916 67.1427 22.1447 67.628 22.602C68.1133 23.0593 68.356 23.68 68.356 24.464V29H66.69V27.894H66.606C66.4287 28.286 66.172 28.5987 65.836 28.832C65.5 29.056 65.0753 29.168 64.562 29.168ZM65.08 27.894C65.528 27.894 65.892 27.768 66.172 27.516C66.452 27.2547 66.592 26.8907 66.592 26.424V25.962L65.178 26.074C64.45 26.1207 64.086 26.4287 64.086 26.998C64.086 27.2873 64.1793 27.5113 64.366 27.67C64.5527 27.8193 64.7907 27.894 65.08 27.894Z" fill="white" fill-opacity="0.9"/>
</g>
<path d="M121.5 24C121.5 17.3726 126.873 12 133.5 12H206.5C213.127 12 218.5 17.3726 218.5 24C218.5 30.6274 213.127 36 206.5 36H133.5C126.873 36 121.5 30.6274 121.5 24Z" fill="#B4E4BB"/>
<path d="M122.5 24C122.5 17.9249 127.425 13 133.5 13C139.575 13 144.5 17.9249 144.5 24C144.5 30.0751 139.575 35 133.5 35C127.425 35 122.5 30.0751 122.5 24Z" fill="#2B7836"/>
<path d="M131.365 28.4889C131.201 28.4871 131.038 28.4521 130.888 28.386C130.738 28.3198 130.602 28.2238 130.49 28.1039L127.375 24.6564L128.355 23.7814L131.382 27.1501L138.636 19.3276L139.599 20.2026L132.249 28.0776C132.136 28.1976 132.001 28.2935 131.851 28.3597C131.7 28.4259 131.529 28.4871 131.365 28.4889Z" fill="white" fill-opacity="0.9"/>
<path d="M152.126 19.9H153.68L156.956 29H155.682L154.968 26.998H150.782L150.068 29H148.864L152.126 19.9ZM151.132 25.99H154.618L152.91 20.894H152.826L151.132 25.99ZM158.508 22.084H159.572V23.498H159.656C159.74 23.2647 159.857 23.05 160.006 22.854C160.165 22.658 160.347 22.49 160.552 22.35C160.767 22.21 161 22.1027 161.252 22.028C161.514 21.9533 161.784 21.916 162.064 21.916C162.522 21.916 162.937 22.0093 163.31 22.196C163.693 22.3733 164.02 22.6253 164.29 22.952C164.561 23.2693 164.766 23.652 164.906 24.1C165.056 24.548 165.13 25.0333 165.13 25.556C165.13 26.0787 165.056 26.564 164.906 27.012C164.766 27.4507 164.561 27.8333 164.29 28.16C164.02 28.4773 163.693 28.7247 163.31 28.902C162.937 29.0793 162.522 29.168 162.064 29.168C161.495 29.168 161.005 29.0327 160.594 28.762C160.184 28.4913 159.89 28.146 159.712 27.726H159.628V31.59H158.508V22.084ZM161.784 28.16C162.092 28.16 162.377 28.1087 162.638 28.006C162.909 27.894 163.142 27.7307 163.338 27.516C163.544 27.292 163.702 27.0167 163.814 26.69C163.926 26.3633 163.982 25.9807 163.982 25.542C163.982 25.1033 163.926 24.7207 163.814 24.394C163.702 24.0673 163.544 23.7967 163.338 23.582C163.142 23.358 162.909 23.1947 162.638 23.092C162.377 22.98 162.092 22.924 161.784 22.924C161.486 22.924 161.206 22.98 160.944 23.092C160.683 23.1947 160.454 23.358 160.258 23.582C160.062 23.7967 159.908 24.0673 159.796 24.394C159.684 24.7207 159.628 25.1033 159.628 25.542C159.628 25.9807 159.684 26.3633 159.796 26.69C159.908 27.0167 160.062 27.292 160.258 27.516C160.454 27.7307 160.683 27.894 160.944 28.006C161.206 28.1087 161.486 28.16 161.784 28.16ZM166.93 22.084H167.994V23.498H168.078C168.162 23.2647 168.279 23.05 168.428 22.854C168.587 22.658 168.769 22.49 168.974 22.35C169.189 22.21 169.422 22.1027 169.674 22.028C169.936 21.9533 170.206 21.916 170.486 21.916C170.944 21.916 171.359 22.0093 171.732 22.196C172.115 22.3733 172.442 22.6253 172.712 22.952C172.983 23.2693 173.188 23.652 173.328 24.1C173.478 24.548 173.552 25.0333 173.552 25.556C173.552 26.0787 173.478 26.564 173.328 27.012C173.188 27.4507 172.983 27.8333 172.712 28.16C172.442 28.4773 172.115 28.7247 171.732 28.902C171.359 29.0793 170.944 29.168 170.486 29.168C169.917 29.168 169.427 29.0327 169.016 28.762C168.606 28.4913 168.312 28.146 168.134 27.726H168.05V31.59H166.93V22.084ZM170.206 28.16C170.514 28.16 170.799 28.1087 171.06 28.006C171.331 27.894 171.564 27.7307 171.76 27.516C171.966 27.292 172.124 27.0167 172.236 26.69C172.348 26.3633 172.404 25.9807 172.404 25.542C172.404 25.1033 172.348 24.7207 172.236 24.394C172.124 24.0673 171.966 23.7967 171.76 23.582C171.564 23.358 171.331 23.1947 171.06 23.092C170.799 22.98 170.514 22.924 170.206 22.924C169.908 22.924 169.628 22.98 169.366 23.092C169.105 23.1947 168.876 23.358 168.68 23.582C168.484 23.7967 168.33 24.0673 168.218 24.394C168.106 24.7207 168.05 25.1033 168.05 25.542C168.05 25.9807 168.106 26.3633 168.218 26.69C168.33 27.0167 168.484 27.292 168.68 27.516C168.876 27.7307 169.105 27.894 169.366 28.006C169.628 28.1087 169.908 28.16 170.206 28.16ZM175.352 22.084H176.416V23.204H176.5C176.649 22.84 176.864 22.5367 177.144 22.294C177.424 22.042 177.774 21.916 178.194 21.916C178.549 21.916 178.861 21.986 179.132 22.126L178.754 23.134C178.633 23.0687 178.502 23.0267 178.362 23.008C178.231 22.98 178.096 22.966 177.956 22.966C177.499 22.966 177.135 23.1527 176.864 23.526C176.603 23.89 176.472 24.3567 176.472 24.926V29H175.352V22.084ZM182.963 29.168C182.412 29.168 181.927 29.0747 181.507 28.888C181.096 28.692 180.751 28.4307 180.471 28.104C180.2 27.7773 179.995 27.3947 179.855 26.956C179.724 26.5173 179.659 26.046 179.659 25.542C179.659 25.038 179.724 24.5667 179.855 24.128C179.995 23.6893 180.2 23.3067 180.471 22.98C180.751 22.6533 181.096 22.3967 181.507 22.21C181.927 22.014 182.412 21.916 182.963 21.916C183.514 21.916 183.99 22.014 184.391 22.21C184.802 22.3967 185.142 22.6533 185.413 22.98C185.684 23.3067 185.884 23.6893 186.015 24.128C186.155 24.5667 186.225 25.038 186.225 25.542C186.225 26.046 186.155 26.5173 186.015 26.956C185.884 27.3947 185.684 27.7773 185.413 28.104C185.142 28.4307 184.802 28.692 184.391 28.888C183.99 29.0747 183.514 29.168 182.963 29.168ZM180.807 25.542C180.807 25.9433 180.849 26.312 180.933 26.648C181.026 26.9747 181.162 27.2593 181.339 27.502C181.516 27.7353 181.74 27.9173 182.011 28.048C182.282 28.1787 182.599 28.244 182.963 28.244C183.318 28.244 183.626 28.1787 183.887 28.048C184.158 27.9173 184.377 27.7353 184.545 27.502C184.722 27.2593 184.853 26.9747 184.937 26.648C185.03 26.312 185.077 25.9433 185.077 25.542C185.077 25.1407 185.03 24.7767 184.937 24.45C184.853 24.114 184.722 23.8293 184.545 23.596C184.377 23.3533 184.158 23.1667 183.887 23.036C183.626 22.9053 183.318 22.84 182.963 22.84C182.599 22.84 182.282 22.9053 182.011 23.036C181.74 23.1667 181.516 23.3533 181.339 23.596C181.162 23.8293 181.026 24.114 180.933 24.45C180.849 24.7767 180.807 25.1407 180.807 25.542ZM186.979 22.084H188.197L190.283 27.852H190.367L192.467 22.084H193.601L190.913 29H189.653L186.979 22.084ZM197.632 29.168C197.138 29.168 196.685 29.084 196.274 28.916C195.873 28.748 195.528 28.51 195.238 28.202C194.958 27.8847 194.739 27.502 194.58 27.054C194.431 26.606 194.356 26.102 194.356 25.542C194.356 24.954 194.436 24.436 194.594 23.988C194.753 23.5307 194.972 23.1527 195.252 22.854C195.532 22.546 195.864 22.3127 196.246 22.154C196.638 21.9953 197.068 21.916 197.534 21.916C198.001 21.916 198.43 21.9907 198.822 22.14C199.214 22.2893 199.55 22.5133 199.83 22.812C200.11 23.1013 200.33 23.47 200.488 23.918C200.647 24.3567 200.726 24.87 200.726 25.458C200.726 25.5327 200.722 25.6073 200.712 25.682C200.712 25.7567 200.708 25.8173 200.698 25.864H195.476C195.476 26.1907 195.532 26.4987 195.644 26.788C195.766 27.068 195.924 27.3153 196.12 27.53C196.326 27.7353 196.559 27.8987 196.82 28.02C197.091 28.1413 197.38 28.202 197.688 28.202C198.192 28.202 198.603 28.104 198.92 27.908C199.247 27.712 199.518 27.474 199.732 27.194L200.404 27.88C200.106 28.272 199.732 28.5847 199.284 28.818C198.846 29.0513 198.295 29.168 197.632 29.168ZM197.534 22.84C197.208 22.84 196.918 22.9007 196.666 23.022C196.414 23.1433 196.204 23.302 196.036 23.498C195.868 23.694 195.738 23.918 195.644 24.17C195.56 24.422 195.514 24.674 195.504 24.926H199.55C199.541 24.674 199.49 24.422 199.396 24.17C199.312 23.918 199.186 23.694 199.018 23.498C198.85 23.302 198.64 23.1433 198.388 23.022C198.146 22.9007 197.861 22.84 197.534 22.84ZM205.024 29.168C204.557 29.168 204.137 29.0793 203.764 28.902C203.39 28.7153 203.068 28.4633 202.798 28.146C202.527 27.8193 202.317 27.432 202.168 26.984C202.028 26.536 201.958 26.0507 201.958 25.528C201.958 25.0053 202.028 24.5247 202.168 24.086C202.317 23.638 202.527 23.2553 202.798 22.938C203.068 22.6113 203.39 22.3593 203.764 22.182C204.137 22.0047 204.557 21.916 205.024 21.916C205.593 21.916 206.083 22.0513 206.494 22.322C206.904 22.5927 207.198 22.938 207.376 23.358H207.46V18.85H208.58V29H207.516V27.586H207.432C207.348 27.8287 207.226 28.048 207.068 28.244C206.918 28.4307 206.736 28.594 206.522 28.734C206.316 28.874 206.083 28.9813 205.822 29.056C205.57 29.1307 205.304 29.168 205.024 29.168ZM205.304 28.16C205.602 28.16 205.882 28.1087 206.144 28.006C206.405 27.894 206.634 27.7307 206.83 27.516C207.026 27.292 207.18 27.0167 207.292 26.69C207.404 26.3633 207.46 25.9807 207.46 25.542C207.46 25.1033 207.404 24.7207 207.292 24.394C207.18 24.0673 207.026 23.7967 206.83 23.582C206.634 23.358 206.405 23.1947 206.144 23.092C205.882 22.98 205.602 22.924 205.304 22.924C204.996 22.924 204.706 22.98 204.436 23.092C204.174 23.1947 203.941 23.358 203.736 23.582C203.54 23.7967 203.386 24.0673 203.274 24.394C203.162 24.7207 203.106 25.1033 203.106 25.542C203.106 25.9807 203.162 26.3633 203.274 26.69C203.386 27.0167 203.54 27.292 203.736 27.516C203.941 27.7307 204.174 27.894 204.436 28.006C204.706 28.1087 204.996 28.16 205.304 28.16Z" fill="black" fill-opacity="0.76"/>
<path d="M270.5 0.5H455.5C461.851 0.5 467 5.64873 467 12V36C467 42.3513 461.851 47.5 455.5 47.5H270.5C264.149 47.5 259 42.3513 259 36V12C259 5.64873 264.149 0.5 270.5 0.5Z" fill="white"/>
<path d="M270.5 0.5H455.5C461.851 0.5 467 5.64873 467 12V36C467 42.3513 461.851 47.5 455.5 47.5H270.5C264.149 47.5 259 42.3513 259 36V12C259 5.64873 264.149 0.5 270.5 0.5Z" stroke="#797876"/>
<g clip-path="url(#clip2_18382_11957)">
<path d="M258.5 12C258.5 5.37258 263.873 0 270.5 0H455.5C462.127 0 467.5 5.37258 467.5 12V36C467.5 42.6274 462.127 48 455.5 48H270.5C263.873 48 258.5 42.6274 258.5 36V12Z" fill="white" fill-opacity="0.01"/>
<g clip-path="url(#clip3_18382_11957)">
<path d="M295.688 31.7437L291.225 27.2681C292.394 25.7423 292.94 23.8288 292.75 21.9158C292.561 20.0027 291.651 18.2333 290.206 16.9662C288.76 15.6991 286.887 15.0293 284.965 15.0925C283.044 15.1557 281.218 15.9472 279.859 17.3065C278.5 18.6658 277.708 20.4912 277.645 22.4126C277.582 24.3339 278.252 26.2074 279.519 27.6531C280.786 29.0988 282.555 30.0085 284.468 30.1978C286.381 30.3871 288.295 29.8418 289.821 28.6725L294.244 33.1875L295.688 31.7437ZM285.188 28.2656C284.084 28.2656 283.006 27.9384 282.089 27.3255C281.171 26.7126 280.456 25.8414 280.034 24.8221C279.612 23.8029 279.501 22.6813 279.717 21.5992C279.932 20.5172 280.463 19.5233 281.243 18.7431C282.023 17.963 283.017 17.4318 284.099 17.2165C285.181 17.0013 286.303 17.1118 287.322 17.534C288.342 17.9561 289.213 18.6711 289.826 19.5884C290.439 20.5057 290.766 21.5842 290.766 22.6875C290.762 24.1658 290.173 25.5826 289.128 26.628C288.083 27.6733 286.666 28.2621 285.188 28.2656Z" fill="black" fill-opacity="0.64"/>
</g>
<path d="M318.692 30.192C317.785 30.192 317.049 30.0533 316.484 29.776C315.919 29.4987 315.471 29.1413 315.14 28.704L316.004 27.888C316.292 28.24 316.671 28.5173 317.14 28.72C317.62 28.9227 318.18 29.024 318.82 29.024C319.108 29.024 319.385 28.992 319.652 28.928C319.919 28.864 320.153 28.768 320.356 28.64C320.569 28.5013 320.735 28.32 320.852 28.096C320.98 27.872 321.044 27.6 321.044 27.28C321.044 27.0027 320.98 26.768 320.852 26.576C320.724 26.3733 320.548 26.2027 320.324 26.064C320.111 25.9147 319.855 25.7867 319.556 25.68C319.257 25.5627 318.932 25.4453 318.58 25.328C318.207 25.2 317.839 25.0667 317.476 24.928C317.113 24.7787 316.788 24.592 316.5 24.368C316.212 24.144 315.977 23.872 315.796 23.552C315.615 23.2213 315.524 22.816 315.524 22.336C315.524 21.856 315.609 21.4347 315.78 21.072C315.961 20.7093 316.207 20.4053 316.516 20.16C316.825 19.9147 317.193 19.728 317.62 19.6C318.047 19.472 318.511 19.408 319.012 19.408C319.748 19.408 320.404 19.536 320.98 19.792C321.567 20.048 322.041 20.4373 322.404 20.96L321.54 21.808C321.252 21.456 320.884 21.1627 320.436 20.928C319.988 20.6933 319.476 20.576 318.9 20.576C318.655 20.576 318.415 20.608 318.18 20.672C317.945 20.7253 317.732 20.8213 317.54 20.96C317.348 21.0987 317.193 21.2747 317.076 21.488C316.959 21.7013 316.9 21.9573 316.9 22.256C316.9 22.5333 316.964 22.7733 317.092 22.976C317.22 23.168 317.391 23.3387 317.604 23.488C317.828 23.6267 318.089 23.7547 318.388 23.872C318.687 23.9787 319.012 24.0907 319.364 24.208C319.737 24.336 320.105 24.4747 320.468 24.624C320.831 24.7733 321.156 24.96 321.444 25.184C321.732 25.408 321.967 25.68 322.148 26C322.329 26.32 322.42 26.72 322.42 27.2C322.42 27.712 322.319 28.16 322.116 28.544C321.924 28.9173 321.657 29.2267 321.316 29.472C320.985 29.7173 320.591 29.8987 320.132 30.016C319.684 30.1333 319.204 30.192 318.692 30.192ZM327.667 30.192C327.101 30.192 326.584 30.096 326.115 29.904C325.656 29.712 325.261 29.44 324.931 29.088C324.611 28.7253 324.36 28.288 324.179 27.776C324.008 27.264 323.923 26.688 323.923 26.048C323.923 25.376 324.013 24.784 324.195 24.272C324.376 23.7493 324.627 23.3173 324.947 22.976C325.267 22.624 325.645 22.3573 326.083 22.176C326.531 21.9947 327.021 21.904 327.555 21.904C328.088 21.904 328.579 21.9893 329.027 22.16C329.475 22.3307 329.859 22.5867 330.179 22.928C330.499 23.2587 330.749 23.68 330.931 24.192C331.112 24.6933 331.203 25.28 331.203 25.952C331.203 26.0373 331.197 26.1227 331.187 26.208C331.187 26.2933 331.181 26.3627 331.171 26.416H325.203C325.203 26.7893 325.267 27.1413 325.395 27.472C325.533 27.792 325.715 28.0747 325.939 28.32C326.173 28.5547 326.44 28.7413 326.739 28.88C327.048 29.0187 327.379 29.088 327.731 29.088C328.307 29.088 328.776 28.976 329.139 28.752C329.512 28.528 329.821 28.256 330.067 27.936L330.835 28.72C330.493 29.168 330.067 29.5253 329.555 29.792C329.053 30.0587 328.424 30.192 327.667 30.192ZM327.555 22.96C327.181 22.96 326.851 23.0293 326.563 23.168C326.275 23.3067 326.035 23.488 325.843 23.712C325.651 23.936 325.501 24.192 325.395 24.48C325.299 24.768 325.245 25.056 325.235 25.344H329.859C329.848 25.056 329.789 24.768 329.683 24.48C329.587 24.192 329.443 23.936 329.251 23.712C329.059 23.488 328.819 23.3067 328.531 23.168C328.253 23.0293 327.928 22.96 327.555 22.96ZM335.01 30.192C334.648 30.192 334.312 30.1333 334.002 30.016C333.704 29.8987 333.442 29.7333 333.218 29.52C332.994 29.3067 332.818 29.056 332.69 28.768C332.573 28.4693 332.514 28.144 332.514 27.792C332.514 27.1093 332.76 26.56 333.25 26.144C333.741 25.728 334.44 25.4933 335.346 25.44L337.426 25.312V24.752C337.426 24.144 337.277 23.7067 336.978 23.44C336.69 23.1627 336.274 23.024 335.73 23.024C335.272 23.024 334.877 23.1093 334.546 23.28C334.216 23.4507 333.96 23.6373 333.778 23.84L333.01 23.072C333.288 22.7307 333.661 22.4533 334.13 22.24C334.61 22.016 335.154 21.904 335.762 21.904C336.306 21.904 336.765 21.9787 337.138 22.128C337.512 22.2667 337.81 22.4587 338.034 22.704C338.269 22.9493 338.434 23.2373 338.53 23.568C338.637 23.8987 338.69 24.2507 338.69 24.624V30H337.49V28.656H337.394C337.181 29.136 336.882 29.5147 336.498 29.792C336.114 30.0587 335.618 30.192 335.01 30.192ZM335.202 29.104C335.864 29.104 336.397 28.912 336.802 28.528C337.218 28.1333 337.426 27.6107 337.426 26.96V26.272L335.41 26.416C334.344 26.5013 333.81 26.9493 333.81 27.76C333.81 28.1653 333.938 28.4907 334.194 28.736C334.461 28.9813 334.797 29.104 335.202 29.104ZM341.266 22.096H342.482V23.376H342.578C342.749 22.96 342.994 22.6133 343.314 22.336C343.634 22.048 344.034 21.904 344.514 21.904C344.92 21.904 345.277 21.984 345.586 22.144L345.154 23.296C345.016 23.2213 344.866 23.1733 344.706 23.152C344.557 23.12 344.402 23.104 344.242 23.104C343.72 23.104 343.304 23.3173 342.994 23.744C342.696 24.16 342.546 24.6933 342.546 25.344V30H341.266V22.096ZM349.852 30.192C349.212 30.192 348.658 30.0747 348.188 29.84C347.73 29.6053 347.351 29.296 347.052 28.912C346.754 28.528 346.535 28.0907 346.396 27.6C346.258 27.0987 346.188 26.5813 346.188 26.048C346.188 25.5147 346.258 25.0027 346.396 24.512C346.535 24.0107 346.748 23.568 347.036 23.184C347.335 22.8 347.714 22.4907 348.172 22.256C348.631 22.0213 349.18 21.904 349.82 21.904C350.492 21.904 351.042 22.016 351.468 22.24C351.895 22.464 352.258 22.7627 352.556 23.136L351.756 23.888C351.5 23.6107 351.228 23.3973 350.94 23.248C350.663 23.088 350.3 23.008 349.852 23.008C349.148 23.008 348.578 23.28 348.14 23.824C347.714 24.3573 347.5 25.0987 347.5 26.048C347.5 26.5173 347.559 26.9387 347.676 27.312C347.794 27.6853 347.959 28.0053 348.172 28.272C348.386 28.5387 348.636 28.7413 348.924 28.88C349.212 29.0187 349.532 29.088 349.884 29.088C350.311 29.088 350.679 29.0133 350.988 28.864C351.298 28.704 351.586 28.4747 351.852 28.176L352.62 28.944C352.311 29.3173 351.932 29.6213 351.484 29.856C351.036 30.08 350.492 30.192 349.852 30.192ZM354.485 18.4H355.765V23.216H355.861C356.042 22.8533 356.304 22.544 356.645 22.288C356.986 22.032 357.424 21.904 357.957 21.904C358.864 21.904 359.578 22.144 360.101 22.624C360.634 23.104 360.901 23.8773 360.901 24.944V30H359.621V25.184C359.621 24.3733 359.456 23.8027 359.125 23.472C358.805 23.1307 358.33 22.96 357.701 22.96C357.093 22.96 356.618 23.168 356.277 23.584C355.936 24 355.765 24.608 355.765 25.408V30H354.485V18.4ZM364.031 30.192C363.733 30.192 363.498 30.096 363.327 29.904C363.157 29.712 363.071 29.4933 363.071 29.248C363.071 28.992 363.157 28.7733 363.327 28.592C363.498 28.4 363.733 28.304 364.031 28.304C364.341 28.304 364.575 28.4 364.735 28.592C364.906 28.7733 364.991 28.992 364.991 29.248C364.991 29.4933 364.906 29.712 364.735 29.904C364.575 30.096 364.341 30.192 364.031 30.192ZM368.031 30.192C367.733 30.192 367.498 30.096 367.327 29.904C367.157 29.712 367.071 29.4933 367.071 29.248C367.071 28.992 367.157 28.7733 367.327 28.592C367.498 28.4 367.733 28.304 368.031 28.304C368.341 28.304 368.575 28.4 368.735 28.592C368.906 28.7733 368.991 28.992 368.991 29.248C368.991 29.4933 368.906 29.712 368.735 29.904C368.575 30.096 368.341 30.192 368.031 30.192ZM372.031 30.192C371.733 30.192 371.498 30.096 371.327 29.904C371.157 29.712 371.071 29.4933 371.071 29.248C371.071 28.992 371.157 28.7733 371.327 28.592C371.498 28.4 371.733 28.304 372.031 28.304C372.341 28.304 372.575 28.4 372.735 28.592C372.906 28.7733 372.991 28.992 372.991 29.248C372.991 29.4933 372.906 29.712 372.735 29.904C372.575 30.096 372.341 30.192 372.031 30.192Z" fill="#3C4C4F"/>
</g>
<defs>
<clipPath id="clip0_18382_11957">
<path d="M0.5 24C0.5 15.1634 7.66344 8 16.5 8H65.5C74.3366 8 81.5 15.1634 81.5 24C81.5 32.8366 74.3366 40 65.5 40H16.5C7.66344 40 0.5 32.8366 0.5 24Z" fill="white"/>
</clipPath>
<clipPath id="clip1_18382_11957">
<rect width="14" height="14" fill="white" transform="translate(13.5 17)"/>
</clipPath>
<clipPath id="clip2_18382_11957">
<path d="M258.5 12C258.5 5.37258 263.873 0 270.5 0H455.5C462.127 0 467.5 5.37258 467.5 12V36C467.5 42.6274 462.127 48 455.5 48H270.5C263.873 48 258.5 42.6274 258.5 36V12Z" fill="white"/>
</clipPath>
<clipPath id="clip3_18382_11957">
<rect width="40" height="48" fill="white" transform="translate(258.5)"/>
</clipPath>
</defs>
</svg>
