<svg width="904" height="264" viewBox="0 0 904 264" fill="none" xmlns="http://www.w3.org/2000/svg">
<rect y="8" width="8" height="8" rx="2" fill="#FF8000"/>
<path d="M19.76 17.824C18.992 17.7707 18.368 17.616 17.888 17.36C17.408 17.104 17.0133 16.7893 16.704 16.416L17.584 15.616C17.872 15.9467 18.24 16.2133 18.688 16.416C19.136 16.608 19.68 16.704 20.32 16.704C20.608 16.704 20.88 16.6827 21.136 16.64C21.392 16.5867 21.6213 16.5013 21.824 16.384C22.0267 16.256 22.1867 16.096 22.304 15.904C22.4213 15.7013 22.48 15.456 22.48 15.168C22.48 14.9013 22.4213 14.6827 22.304 14.512C22.1867 14.3307 22.0213 14.1707 21.808 14.032C21.5947 13.8933 21.3387 13.7707 21.04 13.664C20.752 13.5573 20.432 13.44 20.08 13.312C19.7067 13.184 19.3387 13.0453 18.976 12.896C18.624 12.7467 18.304 12.5653 18.016 12.352C17.7387 12.1387 17.5147 11.8827 17.344 11.584C17.1733 11.2747 17.088 10.896 17.088 10.448C17.088 9.65867 17.344 9.04 17.856 8.592C18.3787 8.144 19.0613 7.87733 19.904 7.792V6.32H21.088V7.792C22.2933 7.90933 23.2107 8.39467 23.84 9.248L22.96 10.064C22.672 9.73333 22.3147 9.456 21.888 9.232C21.472 9.008 20.976 8.896 20.4 8.896C20.1547 8.896 19.9147 8.92267 19.68 8.976C19.456 9.01867 19.2533 9.09867 19.072 9.216C18.8907 9.33333 18.7413 9.488 18.624 9.68C18.5173 9.86133 18.464 10.0907 18.464 10.368C18.464 10.6347 18.5227 10.8587 18.64 11.04C18.7573 11.2107 18.9227 11.3653 19.136 11.504C19.3493 11.6427 19.6 11.7653 19.888 11.872C20.1867 11.9787 20.512 12.096 20.864 12.224C21.2373 12.352 21.6 12.4907 21.952 12.64C22.3147 12.7893 22.6347 12.9707 22.912 13.184C23.2 13.3973 23.4293 13.6587 23.6 13.968C23.7707 14.2667 23.856 14.64 23.856 15.088C23.856 15.504 23.7813 15.872 23.632 16.192C23.4933 16.5013 23.2907 16.768 23.024 16.992C22.768 17.216 22.4587 17.3973 22.096 17.536C21.744 17.664 21.36 17.7493 20.944 17.792V19.28H19.76V17.824ZM28.542 18.192C27.8273 18.192 27.3047 17.9787 26.974 17.552C26.6433 17.1253 26.478 16.5387 26.478 15.792V11.136H25.07V10.096H26.478V7.952H27.742V10.096H30.03V11.136H27.742V15.68C27.742 16.192 27.838 16.5493 28.03 16.752C28.2327 16.9547 28.4887 17.056 28.798 17.056C29.0113 17.056 29.2033 17.0187 29.374 16.944C29.5447 16.8587 29.7047 16.7467 29.854 16.608L30.43 17.504C29.9393 17.9627 29.31 18.192 28.542 18.192ZM33.6605 8C33.6605 8.224 33.5805 8.416 33.4205 8.576C33.2712 8.736 33.0685 8.816 32.8125 8.816C32.5458 8.816 32.3378 8.736 32.1885 8.576C32.0392 8.416 31.9645 8.224 31.9645 8C31.9645 7.78667 32.0392 7.6 32.1885 7.44C32.3378 7.26933 32.5458 7.184 32.8125 7.184C33.0685 7.184 33.2712 7.26933 33.4205 7.44C33.5805 7.6 33.6605 7.78667 33.6605 8ZM32.1725 10.096H33.4525V18H32.1725V10.096ZM36.1725 10.096H37.3885V11.344H37.4845C37.6765 10.928 37.9432 10.5867 38.2845 10.32C38.6365 10.0427 39.0738 9.904 39.5965 9.904C40.2258 9.904 40.7538 10.0213 41.1805 10.256C41.6178 10.48 41.9432 10.8213 42.1565 11.28C42.3912 10.832 42.7058 10.4907 43.1005 10.256C43.4952 10.0213 43.9965 9.904 44.6045 9.904C45.0418 9.904 45.4365 9.96267 45.7885 10.08C46.1405 10.1973 46.4392 10.3787 46.6845 10.624C46.9405 10.8693 47.1325 11.184 47.2605 11.568C47.3992 11.952 47.4685 12.4107 47.4685 12.944V18H46.1885V13.184C46.1885 12.3733 46.0285 11.8027 45.7085 11.472C45.3992 11.1307 44.9405 10.96 44.3325 10.96C43.7458 10.96 43.2872 11.168 42.9565 11.584C42.6258 12 42.4605 12.608 42.4605 13.408V18H41.1805V13.184C41.1805 12.3733 41.0205 11.8027 40.7005 11.472C40.3912 11.1307 39.9325 10.96 39.3245 10.96C38.7485 10.96 38.2898 11.168 37.9485 11.584C37.6178 12 37.4525 12.608 37.4525 13.408V18H36.1725V10.096ZM51.5355 8C51.5355 8.224 51.4555 8.416 51.2955 8.576C51.1462 8.736 50.9435 8.816 50.6875 8.816C50.4208 8.816 50.2128 8.736 50.0635 8.576C49.9142 8.416 49.8395 8.224 49.8395 8C49.8395 7.78667 49.9142 7.6 50.0635 7.44C50.2128 7.26933 50.4208 7.184 50.6875 7.184C50.9435 7.184 51.1462 7.26933 51.2955 7.44C51.4555 7.6 51.5355 7.78667 51.5355 8ZM50.0475 10.096H51.3275V18H50.0475V10.096ZM54.0475 10.096H55.2635V11.344H55.3595C55.5515 10.928 55.8235 10.5867 56.1755 10.32C56.5275 10.0427 56.9755 9.904 57.5195 9.904C58.4262 9.904 59.1408 10.144 59.6635 10.624C60.1968 11.104 60.4635 11.8773 60.4635 12.944V18H59.1835V13.184C59.1835 12.3733 59.0182 11.8027 58.6875 11.472C58.3675 11.1307 57.8928 10.96 57.2635 10.96C56.6555 10.96 56.1808 11.168 55.8395 11.584C55.4982 12 55.3275 12.608 55.3275 13.408V18H54.0475V10.096ZM66.1839 21.152C65.5012 21.152 64.9092 21.0293 64.4079 20.784C63.9065 20.5493 63.5065 20.256 63.2079 19.904L64.0559 19.088C64.2799 19.3653 64.5679 19.584 64.9199 19.744C65.2825 19.9147 65.6825 20 66.1199 20C66.8025 20 67.3359 19.8347 67.7199 19.504C68.1145 19.1733 68.3119 18.592 68.3119 17.76V16.224H68.2159C68.1305 16.4907 68.0079 16.7307 67.8479 16.944C67.6879 17.1467 67.4959 17.3227 67.2719 17.472C67.0585 17.6107 66.8185 17.7227 66.5519 17.808C66.2959 17.8827 66.0345 17.92 65.7679 17.92C65.2665 17.92 64.8079 17.8293 64.3919 17.648C63.9865 17.4667 63.6292 17.2053 63.3199 16.864C63.0212 16.512 62.7865 16.0853 62.6159 15.584C62.4559 15.0827 62.3759 14.5173 62.3759 13.888C62.3759 13.2693 62.4559 12.7147 62.6159 12.224C62.7865 11.7333 63.0212 11.3173 63.3199 10.976C63.6292 10.6347 63.9865 10.3733 64.3919 10.192C64.8079 10 65.2665 9.904 65.7679 9.904C66.3545 9.904 66.8772 10.0587 67.3359 10.368C67.8052 10.6667 68.1199 11.0827 68.2799 11.616H68.3759V10.096H69.5919V17.92C69.5919 18.8907 69.2985 19.6693 68.7119 20.256C68.1359 20.8533 67.2932 21.152 66.1839 21.152ZM66.0239 16.768C66.7279 16.768 67.2825 16.5227 67.6879 16.032C68.1039 15.5413 68.3119 14.832 68.3119 13.904C68.3119 12.9653 68.1039 12.256 67.6879 11.776C67.2825 11.296 66.7279 11.056 66.0239 11.056C65.3092 11.056 64.7385 11.296 64.3119 11.776C63.8959 12.256 63.6879 12.9653 63.6879 13.904C63.6879 14.832 63.8959 15.5413 64.3119 16.032C64.7385 16.5227 65.3092 16.768 66.0239 16.768Z" fill="#242E30"/>
<path d="M3.11448 86.908H0.524477V85.9H6.89448V86.908H4.30448V95H3.11448V86.908ZM9.72149 86.25C9.72149 86.446 9.65149 86.614 9.51149 86.754C9.38083 86.894 9.20349 86.964 8.97949 86.964C8.74616 86.964 8.56416 86.894 8.43349 86.754C8.30283 86.614 8.23749 86.446 8.23749 86.25C8.23749 86.0633 8.30283 85.9 8.43349 85.76C8.56416 85.6107 8.74616 85.536 8.97949 85.536C9.20349 85.536 9.38083 85.6107 9.51149 85.76C9.65149 85.9 9.72149 86.0633 9.72149 86.25ZM8.41949 88.084H9.53949V95H8.41949V88.084ZM14.5515 95.168C13.9915 95.168 13.5062 95.0653 13.0955 94.86C12.6942 94.6547 12.3628 94.384 12.1015 94.048C11.8402 93.712 11.6488 93.3293 11.5275 92.9C11.4062 92.4613 11.3455 92.0087 11.3455 91.542C11.3455 91.0753 11.4062 90.6273 11.5275 90.198C11.6488 89.7593 11.8355 89.372 12.0875 89.036C12.3488 88.7 12.6802 88.4293 13.0815 88.224C13.4828 88.0187 13.9635 87.916 14.5235 87.916C15.1115 87.916 15.5922 88.014 15.9655 88.21C16.3388 88.406 16.6562 88.6673 16.9175 88.994L16.2175 89.652C15.9935 89.4093 15.7555 89.2227 15.5035 89.092C15.2608 88.952 14.9435 88.882 14.5515 88.882C13.9355 88.882 13.4362 89.12 13.0535 89.596C12.6802 90.0627 12.4935 90.7113 12.4935 91.542C12.4935 91.9527 12.5448 92.3213 12.6475 92.648C12.7502 92.9747 12.8948 93.2547 13.0815 93.488C13.2682 93.7213 13.4875 93.8987 13.7395 94.02C13.9915 94.1413 14.2715 94.202 14.5795 94.202C14.9528 94.202 15.2748 94.1367 15.5455 94.006C15.8162 93.866 16.0682 93.6653 16.3015 93.404L16.9735 94.076C16.7028 94.4027 16.3715 94.6687 15.9795 94.874C15.5875 95.07 15.1115 95.168 14.5515 95.168ZM19.725 95H18.605V84.85H19.725V91.724H19.809L22.973 88.084H24.331L21.433 91.248L24.443 95H23.043L20.663 91.976L19.725 93.054V95Z" fill="#3C4C4F"/>
<path d="M8.74308 153.9H13.3491V154.908H9.93308V158.114H13.2231V159.122H9.93308V163H8.74308V153.9ZM16.5369 154.25C16.5369 154.446 16.4669 154.614 16.3269 154.754C16.1963 154.894 16.0189 154.964 15.7949 154.964C15.5616 154.964 15.3796 154.894 15.2489 154.754C15.1183 154.614 15.0529 154.446 15.0529 154.25C15.0529 154.063 15.1183 153.9 15.2489 153.76C15.3796 153.611 15.5616 153.536 15.7949 153.536C16.0189 153.536 16.1963 153.611 16.3269 153.76C16.4669 153.9 16.5369 154.063 16.5369 154.25ZM15.2349 156.084H16.3549V163H15.2349V156.084ZM18.7349 152.85H19.8549V163H18.7349V152.85ZM22.2349 152.85H23.3549V163H22.2349V152.85Z" fill="#3C4C4F"/>
<rect width="1" height="34" transform="translate(52.5 56)" fill="black" fill-opacity="0.08"/>
<rect x="65" y="56" width="169.75" height="34" fill="white" fill-opacity="0.01"/>
<rect width="1" height="34" transform="translate(254.25 56)" fill="black" fill-opacity="0.08"/>
<rect x="274.75" y="56" width="169.75" height="34" fill="white" fill-opacity="0.01"/>
<rect width="1" height="34" transform="translate(464 56)" fill="black" fill-opacity="0.08"/>
<rect x="484.5" y="56" width="169.75" height="34" fill="white" fill-opacity="0.01"/>
<rect width="1" height="34" transform="translate(673.75 56)" fill="black" fill-opacity="0.08"/>
<rect width="1" height="34" transform="translate(883.5 56)" fill="black" fill-opacity="0.08"/>
<rect width="1" height="34" transform="translate(52.5 90)" fill="black" fill-opacity="0.08"/>
<rect width="1" height="34" transform="translate(254.25 90)" fill="black" fill-opacity="0.08"/>
<rect width="1" height="34" transform="translate(464 90)" fill="black" fill-opacity="0.08"/>
<rect width="1" height="34" transform="translate(673.75 90)" fill="black" fill-opacity="0.08"/>
<rect width="1" height="34" transform="translate(883.5 90)" fill="black" fill-opacity="0.08"/>
<rect width="1" height="34" transform="translate(52.5 124)" fill="black" fill-opacity="0.08"/>
<rect x="65" y="124" width="169.75" height="34" fill="white" fill-opacity="0.01"/>
<rect width="1" height="34" transform="translate(254.25 124)" fill="black" fill-opacity="0.08"/>
<rect x="274.75" y="124" width="169.75" height="34" fill="white" fill-opacity="0.01"/>
<rect width="1" height="34" transform="translate(464 124)" fill="black" fill-opacity="0.08"/>
<rect x="484.5" y="124" width="169.75" height="34" fill="white" fill-opacity="0.01"/>
<rect width="1" height="34" transform="translate(673.75 124)" fill="black" fill-opacity="0.08"/>
<rect width="1" height="34" transform="translate(883.5 124)" fill="black" fill-opacity="0.08"/>
<rect width="1" height="34" transform="translate(52.5 158)" fill="black" fill-opacity="0.08"/>
<rect x="65" y="158" width="169.75" height="34" fill="white" fill-opacity="0.01"/>
<rect width="1" height="34" transform="translate(254.25 158)" fill="black" fill-opacity="0.08"/>
<rect x="274.75" y="158" width="169.75" height="34" fill="white" fill-opacity="0.01"/>
<rect width="1" height="34" transform="translate(464 158)" fill="black" fill-opacity="0.08"/>
<rect x="484.5" y="158" width="169.75" height="34" fill="white" fill-opacity="0.01"/>
<rect width="1" height="34" transform="translate(673.75 158)" fill="black" fill-opacity="0.08"/>
<rect width="1" height="34" transform="translate(883.5 158)" fill="black" fill-opacity="0.08"/>
<path d="M53.0027 223.168C52.4241 223.168 51.9247 223.047 51.5047 222.804C51.0941 222.561 50.7534 222.23 50.4827 221.81C50.2214 221.381 50.0254 220.881 49.8947 220.312C49.7734 219.733 49.7127 219.113 49.7127 218.45C49.7127 217.787 49.7734 217.171 49.8947 216.602C50.0254 216.023 50.2214 215.524 50.4827 215.104C50.7534 214.675 51.0941 214.339 51.5047 214.096C51.9247 213.853 52.4241 213.732 53.0027 213.732C53.5814 213.732 54.0761 213.853 54.4867 214.096C54.9067 214.339 55.2474 214.675 55.5087 215.104C55.7794 215.524 55.9754 216.023 56.0967 216.602C56.2274 217.171 56.2927 217.787 56.2927 218.45C56.2927 219.113 56.2274 219.733 56.0967 220.312C55.9754 220.881 55.7794 221.381 55.5087 221.81C55.2474 222.23 54.9067 222.561 54.4867 222.804C54.0761 223.047 53.5814 223.168 53.0027 223.168ZM53.0027 222.16C53.3481 222.16 53.6514 222.076 53.9127 221.908C54.1741 221.731 54.3887 221.483 54.5567 221.166C54.7341 220.839 54.8647 220.447 54.9487 219.99C55.0327 219.533 55.0747 219.019 55.0747 218.45C55.0747 217.881 55.0327 217.367 54.9487 216.91C54.8647 216.453 54.7341 216.065 54.5567 215.748C54.3887 215.421 54.1741 215.174 53.9127 215.006C53.6514 214.829 53.3481 214.74 53.0027 214.74C52.6574 214.74 52.3541 214.829 52.0927 215.006C51.8407 215.174 51.6261 215.421 51.4487 215.748C51.2807 216.065 51.1501 216.453 51.0567 216.91C50.9727 217.367 50.9307 217.881 50.9307 218.45C50.9307 219.019 50.9727 219.533 51.0567 219.99C51.1501 220.447 51.2807 220.839 51.4487 221.166C51.6261 221.483 51.8407 221.731 52.0927 221.908C52.3541 222.076 52.6574 222.16 53.0027 222.16Z" fill="#3C4C4F"/>
<path d="M244.488 222.02H247.092V215.16L244.6 216.308L244.236 215.524L247.302 213.9H248.282V222.02H250.62V223H244.488V222.02ZM255.753 223.168C255.174 223.168 254.675 223.047 254.255 222.804C253.844 222.561 253.503 222.23 253.233 221.81C252.971 221.381 252.775 220.881 252.645 220.312C252.523 219.733 252.463 219.113 252.463 218.45C252.463 217.787 252.523 217.171 252.645 216.602C252.775 216.023 252.971 215.524 253.233 215.104C253.503 214.675 253.844 214.339 254.255 214.096C254.675 213.853 255.174 213.732 255.753 213.732C256.331 213.732 256.826 213.853 257.237 214.096C257.657 214.339 257.997 214.675 258.259 215.104C258.529 215.524 258.725 216.023 258.847 216.602C258.977 217.171 259.043 217.787 259.043 218.45C259.043 219.113 258.977 219.733 258.847 220.312C258.725 220.881 258.529 221.381 258.259 221.81C257.997 222.23 257.657 222.561 257.237 222.804C256.826 223.047 256.331 223.168 255.753 223.168ZM255.753 222.16C256.098 222.16 256.401 222.076 256.663 221.908C256.924 221.731 257.139 221.483 257.307 221.166C257.484 220.839 257.615 220.447 257.699 219.99C257.783 219.533 257.825 219.019 257.825 218.45C257.825 217.881 257.783 217.367 257.699 216.91C257.615 216.453 257.484 216.065 257.307 215.748C257.139 215.421 256.924 215.174 256.663 215.006C256.401 214.829 256.098 214.74 255.753 214.74C255.407 214.74 255.104 214.829 254.843 215.006C254.591 215.174 254.376 215.421 254.199 215.748C254.031 216.065 253.9 216.453 253.807 216.91C253.723 217.367 253.681 217.881 253.681 218.45C253.681 219.019 253.723 219.533 253.807 219.99C253.9 220.447 254.031 220.839 254.199 221.166C254.376 221.483 254.591 221.731 254.843 221.908C255.104 222.076 255.407 222.16 255.753 222.16ZM264.147 223.168C263.569 223.168 263.069 223.047 262.649 222.804C262.239 222.561 261.898 222.23 261.627 221.81C261.366 221.381 261.17 220.881 261.039 220.312C260.918 219.733 260.857 219.113 260.857 218.45C260.857 217.787 260.918 217.171 261.039 216.602C261.17 216.023 261.366 215.524 261.627 215.104C261.898 214.675 262.239 214.339 262.649 214.096C263.069 213.853 263.569 213.732 264.147 213.732C264.726 213.732 265.221 213.853 265.631 214.096C266.051 214.339 266.392 214.675 266.653 215.104C266.924 215.524 267.12 216.023 267.241 216.602C267.372 217.171 267.437 217.787 267.437 218.45C267.437 219.113 267.372 219.733 267.241 220.312C267.12 220.881 266.924 221.381 266.653 221.81C266.392 222.23 266.051 222.561 265.631 222.804C265.221 223.047 264.726 223.168 264.147 223.168ZM264.147 222.16C264.493 222.16 264.796 222.076 265.057 221.908C265.319 221.731 265.533 221.483 265.701 221.166C265.879 220.839 266.009 220.447 266.093 219.99C266.177 219.533 266.219 219.019 266.219 218.45C266.219 217.881 266.177 217.367 266.093 216.91C266.009 216.453 265.879 216.065 265.701 215.748C265.533 215.421 265.319 215.174 265.057 215.006C264.796 214.829 264.493 214.74 264.147 214.74C263.802 214.74 263.499 214.829 263.237 215.006C262.985 215.174 262.771 215.421 262.593 215.748C262.425 216.065 262.295 216.453 262.201 216.91C262.117 217.367 262.075 217.881 262.075 218.45C262.075 219.019 262.117 219.533 262.201 219.99C262.295 220.447 262.425 220.839 262.593 221.166C262.771 221.483 262.985 221.731 263.237 221.908C263.499 222.076 263.802 222.16 264.147 222.16Z" fill="#3C4C4F"/>
<path d="M454.28 221.488C454.28 221.115 454.346 220.788 454.476 220.508C454.607 220.219 454.784 219.957 455.008 219.724C455.242 219.481 455.512 219.257 455.82 219.052C456.138 218.847 456.478 218.637 456.842 218.422C457.132 218.245 457.388 218.081 457.612 217.932C457.836 217.773 458.023 217.61 458.172 217.442C458.322 217.274 458.434 217.097 458.508 216.91C458.583 216.723 458.62 216.509 458.62 216.266C458.62 215.771 458.462 215.398 458.144 215.146C457.836 214.885 457.44 214.754 456.954 214.754C456.469 214.754 456.049 214.852 455.694 215.048C455.34 215.235 455.041 215.487 454.798 215.804L454.154 215.132C454.434 214.712 454.803 214.376 455.26 214.124C455.718 213.863 456.268 213.732 456.912 213.732C457.388 213.732 457.808 213.797 458.172 213.928C458.536 214.049 458.84 214.222 459.082 214.446C459.334 214.661 459.521 214.922 459.642 215.23C459.773 215.529 459.838 215.855 459.838 216.21C459.838 216.611 459.768 216.966 459.628 217.274C459.488 217.582 459.302 217.862 459.068 218.114C458.835 218.366 458.564 218.595 458.256 218.8C457.958 218.996 457.64 219.187 457.304 219.374C457.006 219.542 456.74 219.701 456.506 219.85C456.273 219.999 456.077 220.158 455.918 220.326C455.769 220.494 455.652 220.681 455.568 220.886C455.494 221.091 455.456 221.334 455.456 221.614V221.992H460.062V223H454.28V221.488ZM465.503 223.168C464.924 223.168 464.425 223.047 464.005 222.804C463.594 222.561 463.253 222.23 462.983 221.81C462.721 221.381 462.525 220.881 462.395 220.312C462.273 219.733 462.213 219.113 462.213 218.45C462.213 217.787 462.273 217.171 462.395 216.602C462.525 216.023 462.721 215.524 462.983 215.104C463.253 214.675 463.594 214.339 464.005 214.096C464.425 213.853 464.924 213.732 465.503 213.732C466.081 213.732 466.576 213.853 466.987 214.096C467.407 214.339 467.747 214.675 468.009 215.104C468.279 215.524 468.475 216.023 468.597 216.602C468.727 217.171 468.793 217.787 468.793 218.45C468.793 219.113 468.727 219.733 468.597 220.312C468.475 220.881 468.279 221.381 468.009 221.81C467.747 222.23 467.407 222.561 466.987 222.804C466.576 223.047 466.081 223.168 465.503 223.168ZM465.503 222.16C465.848 222.16 466.151 222.076 466.413 221.908C466.674 221.731 466.889 221.483 467.057 221.166C467.234 220.839 467.365 220.447 467.449 219.99C467.533 219.533 467.575 219.019 467.575 218.45C467.575 217.881 467.533 217.367 467.449 216.91C467.365 216.453 467.234 216.065 467.057 215.748C466.889 215.421 466.674 215.174 466.413 215.006C466.151 214.829 465.848 214.74 465.503 214.74C465.157 214.74 464.854 214.829 464.593 215.006C464.341 215.174 464.126 215.421 463.949 215.748C463.781 216.065 463.65 216.453 463.557 216.91C463.473 217.367 463.431 217.881 463.431 218.45C463.431 219.019 463.473 219.533 463.557 219.99C463.65 220.447 463.781 220.839 463.949 221.166C464.126 221.483 464.341 221.731 464.593 221.908C464.854 222.076 465.157 222.16 465.503 222.16ZM473.897 223.168C473.319 223.168 472.819 223.047 472.399 222.804C471.989 222.561 471.648 222.23 471.377 221.81C471.116 221.381 470.92 220.881 470.789 220.312C470.668 219.733 470.607 219.113 470.607 218.45C470.607 217.787 470.668 217.171 470.789 216.602C470.92 216.023 471.116 215.524 471.377 215.104C471.648 214.675 471.989 214.339 472.399 214.096C472.819 213.853 473.319 213.732 473.897 213.732C474.476 213.732 474.971 213.853 475.381 214.096C475.801 214.339 476.142 214.675 476.403 215.104C476.674 215.524 476.87 216.023 476.991 216.602C477.122 217.171 477.187 217.787 477.187 218.45C477.187 219.113 477.122 219.733 476.991 220.312C476.87 220.881 476.674 221.381 476.403 221.81C476.142 222.23 475.801 222.561 475.381 222.804C474.971 223.047 474.476 223.168 473.897 223.168ZM473.897 222.16C474.243 222.16 474.546 222.076 474.807 221.908C475.069 221.731 475.283 221.483 475.451 221.166C475.629 220.839 475.759 220.447 475.843 219.99C475.927 219.533 475.969 219.019 475.969 218.45C475.969 217.881 475.927 217.367 475.843 216.91C475.759 216.453 475.629 216.065 475.451 215.748C475.283 215.421 475.069 215.174 474.807 215.006C474.546 214.829 474.243 214.74 473.897 214.74C473.552 214.74 473.249 214.829 472.987 215.006C472.735 215.174 472.521 215.421 472.343 215.748C472.175 216.065 472.045 216.453 471.951 216.91C471.867 217.367 471.825 217.881 471.825 218.45C471.825 219.019 471.867 219.533 471.951 219.99C472.045 220.447 472.175 220.839 472.343 221.166C472.521 221.483 472.735 221.731 472.987 221.908C473.249 222.076 473.552 222.16 473.897 222.16Z" fill="#3C4C4F"/>
<path d="M666.522 223.168C665.85 223.168 665.286 223.047 664.828 222.804C664.38 222.561 664.016 222.258 663.736 221.894L664.45 221.194C664.665 221.465 664.931 221.689 665.248 221.866C665.575 222.043 665.986 222.132 666.48 222.132C667.078 222.132 667.549 221.992 667.894 221.712C668.24 221.423 668.412 220.998 668.412 220.438C668.412 219.897 668.235 219.5 667.88 219.248C667.526 218.996 667.073 218.87 666.522 218.87H665.682V217.862H666.48C667.031 217.862 667.437 217.717 667.698 217.428C667.969 217.139 668.104 216.761 668.104 216.294C668.104 216.023 668.058 215.795 667.964 215.608C667.88 215.412 667.759 215.253 667.6 215.132C667.451 215.001 667.274 214.908 667.068 214.852C666.872 214.796 666.667 214.768 666.452 214.768C666.023 214.768 665.65 214.852 665.332 215.02C665.015 215.188 664.749 215.398 664.534 215.65L663.89 214.95C664.161 214.614 664.511 214.329 664.94 214.096C665.379 213.853 665.906 213.732 666.522 213.732C666.896 213.732 667.25 213.788 667.586 213.9C667.932 214.003 668.23 214.157 668.482 214.362C668.744 214.558 668.949 214.81 669.098 215.118C669.248 215.417 669.322 215.762 669.322 216.154C669.322 216.677 669.187 217.12 668.916 217.484C668.646 217.839 668.258 218.105 667.754 218.282V218.366C668.006 218.413 668.244 218.497 668.468 218.618C668.702 218.73 668.902 218.879 669.07 219.066C669.248 219.243 669.383 219.458 669.476 219.71C669.579 219.962 669.63 220.242 669.63 220.55C669.63 220.951 669.556 221.315 669.406 221.642C669.266 221.959 669.061 222.235 668.79 222.468C668.52 222.692 668.193 222.865 667.81 222.986C667.428 223.107 666.998 223.168 666.522 223.168ZM675.253 223.168C674.674 223.168 674.175 223.047 673.755 222.804C673.344 222.561 673.003 222.23 672.733 221.81C672.471 221.381 672.275 220.881 672.145 220.312C672.023 219.733 671.963 219.113 671.963 218.45C671.963 217.787 672.023 217.171 672.145 216.602C672.275 216.023 672.471 215.524 672.733 215.104C673.003 214.675 673.344 214.339 673.755 214.096C674.175 213.853 674.674 213.732 675.253 213.732C675.831 213.732 676.326 213.853 676.737 214.096C677.157 214.339 677.497 214.675 677.759 215.104C678.029 215.524 678.225 216.023 678.347 216.602C678.477 217.171 678.543 217.787 678.543 218.45C678.543 219.113 678.477 219.733 678.347 220.312C678.225 220.881 678.029 221.381 677.759 221.81C677.497 222.23 677.157 222.561 676.737 222.804C676.326 223.047 675.831 223.168 675.253 223.168ZM675.253 222.16C675.598 222.16 675.901 222.076 676.163 221.908C676.424 221.731 676.639 221.483 676.807 221.166C676.984 220.839 677.115 220.447 677.199 219.99C677.283 219.533 677.325 219.019 677.325 218.45C677.325 217.881 677.283 217.367 677.199 216.91C677.115 216.453 676.984 216.065 676.807 215.748C676.639 215.421 676.424 215.174 676.163 215.006C675.901 214.829 675.598 214.74 675.253 214.74C674.907 214.74 674.604 214.829 674.343 215.006C674.091 215.174 673.876 215.421 673.699 215.748C673.531 216.065 673.4 216.453 673.307 216.91C673.223 217.367 673.181 217.881 673.181 218.45C673.181 219.019 673.223 219.533 673.307 219.99C673.4 220.447 673.531 220.839 673.699 221.166C673.876 221.483 674.091 221.731 674.343 221.908C674.604 222.076 674.907 222.16 675.253 222.16ZM683.647 223.168C683.069 223.168 682.569 223.047 682.149 222.804C681.739 222.561 681.398 222.23 681.127 221.81C680.866 221.381 680.67 220.881 680.539 220.312C680.418 219.733 680.357 219.113 680.357 218.45C680.357 217.787 680.418 217.171 680.539 216.602C680.67 216.023 680.866 215.524 681.127 215.104C681.398 214.675 681.739 214.339 682.149 214.096C682.569 213.853 683.069 213.732 683.647 213.732C684.226 213.732 684.721 213.853 685.131 214.096C685.551 214.339 685.892 214.675 686.153 215.104C686.424 215.524 686.62 216.023 686.741 216.602C686.872 217.171 686.937 217.787 686.937 218.45C686.937 219.113 686.872 219.733 686.741 220.312C686.62 220.881 686.424 221.381 686.153 221.81C685.892 222.23 685.551 222.561 685.131 222.804C684.721 223.047 684.226 223.168 683.647 223.168ZM683.647 222.16C683.993 222.16 684.296 222.076 684.557 221.908C684.819 221.731 685.033 221.483 685.201 221.166C685.379 220.839 685.509 220.447 685.593 219.99C685.677 219.533 685.719 219.019 685.719 218.45C685.719 217.881 685.677 217.367 685.593 216.91C685.509 216.453 685.379 216.065 685.201 215.748C685.033 215.421 684.819 215.174 684.557 215.006C684.296 214.829 683.993 214.74 683.647 214.74C683.302 214.74 682.999 214.829 682.737 215.006C682.485 215.174 682.271 215.421 682.093 215.748C681.925 216.065 681.795 216.453 681.701 216.91C681.617 217.367 681.575 217.881 681.575 218.45C681.575 219.019 681.617 219.533 681.701 219.99C681.795 220.447 681.925 220.839 682.093 221.166C682.271 221.483 682.485 221.731 682.737 221.908C682.999 222.076 683.302 222.16 683.647 222.16Z" fill="#3C4C4F"/>
<path d="M877.448 221.124H873.206V220.186L877.224 213.9H878.554L874.522 220.116H877.448V217.372H878.596V220.116H879.856V221.124H878.596V223H877.448V221.124ZM885.003 223.168C884.424 223.168 883.925 223.047 883.505 222.804C883.094 222.561 882.753 222.23 882.483 221.81C882.221 221.381 882.025 220.881 881.895 220.312C881.773 219.733 881.713 219.113 881.713 218.45C881.713 217.787 881.773 217.171 881.895 216.602C882.025 216.023 882.221 215.524 882.483 215.104C882.753 214.675 883.094 214.339 883.505 214.096C883.925 213.853 884.424 213.732 885.003 213.732C885.581 213.732 886.076 213.853 886.487 214.096C886.907 214.339 887.247 214.675 887.509 215.104C887.779 215.524 887.975 216.023 888.097 216.602C888.227 217.171 888.293 217.787 888.293 218.45C888.293 219.113 888.227 219.733 888.097 220.312C887.975 220.881 887.779 221.381 887.509 221.81C887.247 222.23 886.907 222.561 886.487 222.804C886.076 223.047 885.581 223.168 885.003 223.168ZM885.003 222.16C885.348 222.16 885.651 222.076 885.913 221.908C886.174 221.731 886.389 221.483 886.557 221.166C886.734 220.839 886.865 220.447 886.949 219.99C887.033 219.533 887.075 219.019 887.075 218.45C887.075 217.881 887.033 217.367 886.949 216.91C886.865 216.453 886.734 216.065 886.557 215.748C886.389 215.421 886.174 215.174 885.913 215.006C885.651 214.829 885.348 214.74 885.003 214.74C884.657 214.74 884.354 214.829 884.093 215.006C883.841 215.174 883.626 215.421 883.449 215.748C883.281 216.065 883.15 216.453 883.057 216.91C882.973 217.367 882.931 217.881 882.931 218.45C882.931 219.019 882.973 219.533 883.057 219.99C883.15 220.447 883.281 220.839 883.449 221.166C883.626 221.483 883.841 221.731 884.093 221.908C884.354 222.076 884.657 222.16 885.003 222.16ZM893.397 223.168C892.819 223.168 892.319 223.047 891.899 222.804C891.489 222.561 891.148 222.23 890.877 221.81C890.616 221.381 890.42 220.881 890.289 220.312C890.168 219.733 890.107 219.113 890.107 218.45C890.107 217.787 890.168 217.171 890.289 216.602C890.42 216.023 890.616 215.524 890.877 215.104C891.148 214.675 891.489 214.339 891.899 214.096C892.319 213.853 892.819 213.732 893.397 213.732C893.976 213.732 894.471 213.853 894.881 214.096C895.301 214.339 895.642 214.675 895.903 215.104C896.174 215.524 896.37 216.023 896.491 216.602C896.622 217.171 896.687 217.787 896.687 218.45C896.687 219.113 896.622 219.733 896.491 220.312C896.37 220.881 896.174 221.381 895.903 221.81C895.642 222.23 895.301 222.561 894.881 222.804C894.471 223.047 893.976 223.168 893.397 223.168ZM893.397 222.16C893.743 222.16 894.046 222.076 894.307 221.908C894.569 221.731 894.783 221.483 894.951 221.166C895.129 220.839 895.259 220.447 895.343 219.99C895.427 219.533 895.469 219.019 895.469 218.45C895.469 217.881 895.427 217.367 895.343 216.91C895.259 216.453 895.129 216.065 894.951 215.748C894.783 215.421 894.569 215.174 894.307 215.006C894.046 214.829 893.743 214.74 893.397 214.74C893.052 214.74 892.749 214.829 892.487 215.006C892.235 215.174 892.021 215.421 891.843 215.748C891.675 216.065 891.545 216.453 891.451 216.91C891.367 217.367 891.325 217.881 891.325 218.45C891.325 219.019 891.367 219.533 891.451 219.99C891.545 220.447 891.675 220.839 891.843 221.166C892.021 221.483 892.235 221.731 892.487 221.908C892.749 222.076 893.052 222.16 893.397 222.16Z" fill="#3C4C4F"/>
<path d="M418.176 252.084H419.842V253.134H419.926C420.103 252.77 420.351 252.476 420.668 252.252C420.995 252.028 421.391 251.916 421.858 251.916C422.997 251.916 423.729 252.345 424.056 253.204C424.233 252.812 424.509 252.499 424.882 252.266C425.255 252.033 425.694 251.916 426.198 251.916C427.038 251.916 427.654 252.149 428.046 252.616C428.438 253.073 428.634 253.769 428.634 254.702V259H426.87V254.996C426.87 253.932 426.445 253.4 425.596 253.4C425.157 253.4 424.826 253.545 424.602 253.834C424.387 254.123 424.28 254.539 424.28 255.08V259H422.516V254.996C422.516 254.464 422.413 254.067 422.208 253.806C422.012 253.535 421.69 253.4 421.242 253.4C420.822 253.4 420.5 253.545 420.276 253.834C420.052 254.123 419.94 254.539 419.94 255.08V259H418.176V252.084ZM432.317 250.166C432.317 250.427 432.224 250.661 432.037 250.866C431.86 251.071 431.608 251.174 431.281 251.174C430.945 251.174 430.688 251.071 430.511 250.866C430.334 250.661 430.245 250.427 430.245 250.166C430.245 249.895 430.334 249.662 430.511 249.466C430.688 249.261 430.945 249.158 431.281 249.158C431.608 249.158 431.86 249.261 432.037 249.466C432.224 249.662 432.317 249.895 432.317 250.166ZM430.385 252.084H432.149V259H430.385V252.084ZM434.008 248.85H435.772V259H434.008V248.85ZM437.631 248.85H439.395V259H437.631V248.85ZM443.186 250.166C443.186 250.427 443.093 250.661 442.906 250.866C442.729 251.071 442.477 251.174 442.15 251.174C441.814 251.174 441.557 251.071 441.38 250.866C441.203 250.661 441.114 250.427 441.114 250.166C441.114 249.895 441.203 249.662 441.38 249.466C441.557 249.261 441.814 249.158 442.15 249.158C442.477 249.158 442.729 249.261 442.906 249.466C443.093 249.662 443.186 249.895 443.186 250.166ZM441.254 252.084H443.018V259H441.254V252.084ZM448.195 257.04C448.195 256.9 448.153 256.783 448.069 256.69C447.994 256.587 447.882 256.503 447.733 256.438C447.593 256.373 447.425 256.317 447.229 256.27C447.033 256.214 446.818 256.158 446.585 256.102C446.314 256.037 446.058 255.953 445.815 255.85C445.572 255.747 445.358 255.617 445.171 255.458C444.994 255.29 444.849 255.094 444.737 254.87C444.625 254.646 444.569 254.375 444.569 254.058C444.569 253.713 444.634 253.409 444.765 253.148C444.905 252.877 445.096 252.653 445.339 252.476C445.582 252.289 445.871 252.149 446.207 252.056C446.543 251.963 446.907 251.916 447.299 251.916C447.915 251.916 448.447 252.014 448.895 252.21C449.343 252.397 449.688 252.649 449.931 252.966L448.951 253.974C448.764 253.769 448.531 253.601 448.251 253.47C447.98 253.339 447.696 253.274 447.397 253.274C447.117 253.274 446.87 253.33 446.655 253.442C446.44 253.554 446.333 253.736 446.333 253.988C446.333 254.128 446.37 254.245 446.445 254.338C446.529 254.431 446.641 254.515 446.781 254.59C446.93 254.655 447.103 254.716 447.299 254.772C447.495 254.819 447.71 254.87 447.943 254.926C448.204 254.991 448.456 255.075 448.699 255.178C448.951 255.281 449.166 255.416 449.343 255.584C449.53 255.743 449.679 255.934 449.791 256.158C449.903 256.382 449.959 256.653 449.959 256.97C449.959 257.334 449.884 257.651 449.735 257.922C449.595 258.193 449.394 258.421 449.133 258.608C448.881 258.795 448.578 258.935 448.223 259.028C447.878 259.121 447.504 259.168 447.103 259.168C446.422 259.168 445.843 259.07 445.367 258.874C444.9 258.678 444.546 258.426 444.303 258.118L445.255 257.096C445.47 257.32 445.731 257.497 446.039 257.628C446.347 257.749 446.683 257.81 447.047 257.81C447.374 257.81 447.644 257.749 447.859 257.628C448.083 257.497 448.195 257.301 448.195 257.04ZM454.408 259.168C453.83 259.168 453.326 259.075 452.896 258.888C452.467 258.701 452.103 258.445 451.804 258.118C451.515 257.782 451.296 257.395 451.146 256.956C451.006 256.517 450.936 256.046 450.936 255.542C450.936 255.029 451.006 254.553 451.146 254.114C451.286 253.666 451.496 253.283 451.776 252.966C452.056 252.639 452.406 252.383 452.826 252.196C453.246 252.009 453.736 251.916 454.296 251.916C454.856 251.916 455.346 252.005 455.766 252.182C456.186 252.359 456.532 252.607 456.802 252.924C457.073 253.241 457.274 253.619 457.404 254.058C457.544 254.487 457.614 254.959 457.614 255.472C457.614 255.565 457.605 255.673 457.586 255.794C457.577 255.915 457.563 256.013 457.544 256.088H452.728C452.756 256.34 452.822 256.569 452.924 256.774C453.036 256.97 453.172 257.138 453.33 257.278C453.498 257.418 453.68 257.525 453.876 257.6C454.082 257.665 454.292 257.698 454.506 257.698C454.908 257.698 455.244 257.628 455.514 257.488C455.785 257.348 456.004 257.171 456.172 256.956L457.166 257.992C456.905 258.347 456.541 258.631 456.074 258.846C455.608 259.061 455.052 259.168 454.408 259.168ZM454.296 253.26C453.848 253.26 453.484 253.405 453.204 253.694C452.924 253.983 452.761 254.366 452.714 254.842H455.85C455.804 254.366 455.64 253.983 455.36 253.694C455.09 253.405 454.735 253.26 454.296 253.26ZM461.899 259.168C461.311 259.168 460.802 259.07 460.373 258.874C459.953 258.669 459.607 258.398 459.337 258.062C459.066 257.726 458.865 257.343 458.735 256.914C458.604 256.475 458.539 256.018 458.539 255.542C458.539 255.066 458.599 254.613 458.721 254.184C458.851 253.745 459.047 253.358 459.309 253.022C459.579 252.686 459.925 252.42 460.345 252.224C460.765 252.019 461.264 251.916 461.843 251.916C462.421 251.916 462.911 252.019 463.313 252.224C463.723 252.429 464.059 252.691 464.321 253.008L463.145 254.072C462.986 253.876 462.809 253.727 462.613 253.624C462.417 253.512 462.169 253.456 461.871 253.456C461.385 253.456 461.007 253.643 460.737 254.016C460.466 254.38 460.331 254.889 460.331 255.542C460.331 256.195 460.471 256.709 460.751 257.082C461.031 257.446 461.413 257.628 461.899 257.628C462.188 257.628 462.44 257.572 462.655 257.46C462.869 257.348 463.056 257.189 463.215 256.984L464.377 258.062C464.115 258.379 463.775 258.645 463.355 258.86C462.944 259.065 462.459 259.168 461.899 259.168ZM468.395 259.168C467.816 259.168 467.308 259.075 466.869 258.888C466.44 258.692 466.076 258.431 465.777 258.104C465.488 257.777 465.268 257.395 465.119 256.956C464.979 256.508 464.909 256.037 464.909 255.542C464.909 255.047 464.979 254.581 465.119 254.142C465.268 253.703 465.488 253.321 465.777 252.994C466.076 252.658 466.44 252.397 466.869 252.21C467.308 252.014 467.816 251.916 468.395 251.916C468.974 251.916 469.478 252.014 469.907 252.21C470.346 252.397 470.705 252.658 470.985 252.994C471.274 253.321 471.489 253.703 471.629 254.142C471.778 254.581 471.853 255.047 471.853 255.542C471.853 256.037 471.778 256.508 471.629 256.956C471.489 257.395 471.274 257.777 470.985 258.104C470.705 258.431 470.346 258.692 469.907 258.888C469.478 259.075 468.974 259.168 468.395 259.168ZM466.715 255.542C466.715 256.223 466.86 256.76 467.149 257.152C467.448 257.544 467.863 257.74 468.395 257.74C468.918 257.74 469.324 257.544 469.613 257.152C469.912 256.76 470.061 256.223 470.061 255.542C470.061 254.861 469.912 254.324 469.613 253.932C469.324 253.54 468.918 253.344 468.395 253.344C467.863 253.344 467.448 253.54 467.149 253.932C466.86 254.324 466.715 254.861 466.715 255.542ZM473.219 252.084H474.885V253.204H474.969C475.128 252.831 475.375 252.523 475.711 252.28C476.056 252.037 476.467 251.916 476.943 251.916C477.82 251.916 478.45 252.149 478.833 252.616C479.225 253.073 479.421 253.769 479.421 254.702V259H477.657V255.052C477.657 254.492 477.554 254.077 477.349 253.806C477.153 253.535 476.817 253.4 476.341 253.4C475.893 253.4 475.552 253.549 475.319 253.848C475.095 254.137 474.983 254.562 474.983 255.122V259H473.219V252.084ZM483.724 259.168C483.285 259.168 482.884 259.079 482.52 258.902C482.156 258.725 481.843 258.482 481.582 258.174C481.32 257.857 481.115 257.479 480.966 257.04C480.816 256.592 480.742 256.102 480.742 255.57C480.742 255.029 480.816 254.534 480.966 254.086C481.115 253.638 481.32 253.255 481.582 252.938C481.843 252.611 482.156 252.359 482.52 252.182C482.884 252.005 483.285 251.916 483.724 251.916C484.265 251.916 484.718 252.042 485.082 252.294C485.455 252.546 485.721 252.873 485.88 253.274H485.964V248.85H487.728V259H486.062V257.698H485.978C485.81 258.155 485.525 258.515 485.124 258.776C484.732 259.037 484.265 259.168 483.724 259.168ZM484.256 257.628C484.778 257.628 485.194 257.441 485.502 257.068C485.81 256.695 485.964 256.186 485.964 255.542C485.964 254.898 485.81 254.389 485.502 254.016C485.194 253.643 484.778 253.456 484.256 253.456C483.733 253.456 483.318 253.643 483.01 254.016C482.702 254.389 482.548 254.898 482.548 255.542C482.548 256.186 482.702 256.695 483.01 257.068C483.318 257.441 483.733 257.628 484.256 257.628ZM492.902 257.04C492.902 256.9 492.86 256.783 492.776 256.69C492.701 256.587 492.589 256.503 492.44 256.438C492.3 256.373 492.132 256.317 491.936 256.27C491.74 256.214 491.525 256.158 491.292 256.102C491.021 256.037 490.765 255.953 490.522 255.85C490.279 255.747 490.065 255.617 489.878 255.458C489.701 255.29 489.556 255.094 489.444 254.87C489.332 254.646 489.276 254.375 489.276 254.058C489.276 253.713 489.341 253.409 489.472 253.148C489.612 252.877 489.803 252.653 490.046 252.476C490.289 252.289 490.578 252.149 490.914 252.056C491.25 251.963 491.614 251.916 492.006 251.916C492.622 251.916 493.154 252.014 493.602 252.21C494.05 252.397 494.395 252.649 494.638 252.966L493.658 253.974C493.471 253.769 493.238 253.601 492.958 253.47C492.687 253.339 492.403 253.274 492.104 253.274C491.824 253.274 491.577 253.33 491.362 253.442C491.147 253.554 491.04 253.736 491.04 253.988C491.04 254.128 491.077 254.245 491.152 254.338C491.236 254.431 491.348 254.515 491.488 254.59C491.637 254.655 491.81 254.716 492.006 254.772C492.202 254.819 492.417 254.87 492.65 254.926C492.911 254.991 493.163 255.075 493.406 255.178C493.658 255.281 493.873 255.416 494.05 255.584C494.237 255.743 494.386 255.934 494.498 256.158C494.61 256.382 494.666 256.653 494.666 256.97C494.666 257.334 494.591 257.651 494.442 257.922C494.302 258.193 494.101 258.421 493.84 258.608C493.588 258.795 493.285 258.935 492.93 259.028C492.585 259.121 492.211 259.168 491.81 259.168C491.129 259.168 490.55 259.07 490.074 258.874C489.607 258.678 489.253 258.426 489.01 258.118L489.962 257.096C490.177 257.32 490.438 257.497 490.746 257.628C491.054 257.749 491.39 257.81 491.754 257.81C492.081 257.81 492.351 257.749 492.566 257.628C492.79 257.497 492.902 257.301 492.902 257.04ZM499.581 255.164C499.581 254.436 499.679 253.745 499.875 253.092C500.08 252.429 500.351 251.823 500.687 251.272C501.023 250.712 501.405 250.217 501.835 249.788C502.273 249.349 502.726 248.99 503.193 248.71L503.795 249.27C503.515 249.55 503.239 249.9 502.969 250.32C502.698 250.731 502.455 251.193 502.241 251.706C502.035 252.21 501.867 252.756 501.737 253.344C501.606 253.932 501.541 254.539 501.541 255.164C501.541 255.799 501.606 256.41 501.737 256.998C501.867 257.577 502.035 258.123 502.241 258.636C502.455 259.14 502.698 259.597 502.969 260.008C503.239 260.428 503.515 260.778 503.795 261.058L503.193 261.632C502.726 261.352 502.273 260.993 501.835 260.554C501.405 260.115 501.023 259.616 500.687 259.056C500.351 258.505 500.08 257.903 499.875 257.25C499.679 256.587 499.581 255.892 499.581 255.164ZM504.815 252.084H506.481V253.134H506.565C506.742 252.77 506.989 252.476 507.307 252.252C507.633 252.028 508.03 251.916 508.497 251.916C509.635 251.916 510.368 252.345 510.695 253.204C510.872 252.812 511.147 252.499 511.521 252.266C511.894 252.033 512.333 251.916 512.837 251.916C513.677 251.916 514.293 252.149 514.685 252.616C515.077 253.073 515.273 253.769 515.273 254.702V259H513.509V254.996C513.509 253.932 513.084 253.4 512.235 253.4C511.796 253.4 511.465 253.545 511.241 253.834C511.026 254.123 510.919 254.539 510.919 255.08V259H509.155V254.996C509.155 254.464 509.052 254.067 508.847 253.806C508.651 253.535 508.329 253.4 507.881 253.4C507.461 253.4 507.139 253.545 506.915 253.834C506.691 254.123 506.579 254.539 506.579 255.08V259H504.815V252.084ZM520.342 257.04C520.342 256.9 520.3 256.783 520.216 256.69C520.141 256.587 520.029 256.503 519.88 256.438C519.74 256.373 519.572 256.317 519.376 256.27C519.18 256.214 518.965 256.158 518.732 256.102C518.461 256.037 518.204 255.953 517.962 255.85C517.719 255.747 517.504 255.617 517.318 255.458C517.14 255.29 516.996 255.094 516.884 254.87C516.772 254.646 516.716 254.375 516.716 254.058C516.716 253.713 516.781 253.409 516.912 253.148C517.052 252.877 517.243 252.653 517.486 252.476C517.728 252.289 518.018 252.149 518.354 252.056C518.69 251.963 519.054 251.916 519.446 251.916C520.062 251.916 520.594 252.014 521.042 252.21C521.49 252.397 521.835 252.649 522.078 252.966L521.098 253.974C520.911 253.769 520.678 253.601 520.398 253.47C520.127 253.339 519.842 253.274 519.544 253.274C519.264 253.274 519.016 253.33 518.802 253.442C518.587 253.554 518.48 253.736 518.48 253.988C518.48 254.128 518.517 254.245 518.592 254.338C518.676 254.431 518.788 254.515 518.928 254.59C519.077 254.655 519.25 254.716 519.446 254.772C519.642 254.819 519.856 254.87 520.09 254.926C520.351 254.991 520.603 255.075 520.846 255.178C521.098 255.281 521.312 255.416 521.49 255.584C521.676 255.743 521.826 255.934 521.938 256.158C522.05 256.382 522.106 256.653 522.106 256.97C522.106 257.334 522.031 257.651 521.882 257.922C521.742 258.193 521.541 258.421 521.28 258.608C521.028 258.795 520.724 258.935 520.37 259.028C520.024 259.121 519.651 259.168 519.25 259.168C518.568 259.168 517.99 259.07 517.514 258.874C517.047 258.678 516.692 258.426 516.45 258.118L517.402 257.096C517.616 257.32 517.878 257.497 518.186 257.628C518.494 257.749 518.83 257.81 519.194 257.81C519.52 257.81 519.791 257.749 520.006 257.628C520.23 257.497 520.342 257.301 520.342 257.04ZM524.768 255.164C524.768 254.539 524.703 253.932 524.572 253.344C524.441 252.756 524.269 252.21 524.054 251.706C523.849 251.193 523.611 250.731 523.34 250.32C523.069 249.9 522.794 249.55 522.514 249.27L523.116 248.71C523.583 248.99 524.031 249.349 524.46 249.788C524.899 250.217 525.286 250.712 525.622 251.272C525.958 251.823 526.224 252.429 526.42 253.092C526.625 253.745 526.728 254.436 526.728 255.164C526.728 255.892 526.625 256.587 526.42 257.25C526.224 257.903 525.958 258.505 525.622 259.056C525.286 259.616 524.899 260.115 524.46 260.554C524.031 260.993 523.583 261.352 523.116 261.632L522.514 261.058C522.794 260.778 523.069 260.428 523.34 260.008C523.611 259.597 523.849 259.14 524.054 258.636C524.269 258.123 524.441 257.577 524.572 256.998C524.703 256.41 524.768 255.799 524.768 255.164Z" fill="#3C4C4F"/>
<ellipse cx="52.9468" cy="160" rx="3.94682" ry="4" fill="#FF8000"/>
<ellipse cx="255.947" cy="160" rx="3.94682" ry="4" fill="#FF8000"/>
<path d="M54 160L256 160" stroke="#FF8000" stroke-width="2"/>
<ellipse cx="52.9468" cy="90" rx="3.94682" ry="4" fill="#FF8000"/>
<ellipse cx="254.947" cy="90" rx="3.94682" ry="4" fill="#FF8000"/>
<path d="M51 90H255" stroke="#FF8000" stroke-width="2"/>
</svg>
