<svg width="396" height="48" viewBox="0 0 396 48" fill="none" xmlns="http://www.w3.org/2000/svg">
<path d="M5 1.5H19C20.933 1.5 22.5 3.067 22.5 5V19C22.5 20.933 20.933 22.5 19 22.5H5C3.067 22.5 1.5 20.933 1.5 19V5C1.5 3.067 3.067 1.5 5 1.5Z" stroke="#CC0300"/>
<path d="M32.608 18V16.944H33.808V8.656H32.608V7.6H36.336V8.656H35.136V16.944H36.336V18H32.608ZM42.1413 18V6.4H43.4213V11.216H43.5173C43.6986 10.8533 43.9599 10.544 44.3013 10.288C44.6533 10.032 45.0906 9.904 45.6133 9.904C46.5199 9.904 47.2346 10.144 47.7573 10.624C48.2906 11.0933 48.5573 11.8667 48.5573 12.944V18H47.2773V13.184C47.2773 12.3733 47.1119 11.8027 46.7813 11.472C46.4613 11.1307 45.9866 10.96 45.3573 10.96C44.7599 10.96 44.2853 11.168 43.9333 11.584C43.5919 12 43.4213 12.608 43.4213 13.408V18H42.1413ZM52.7915 18.192C52.3115 18.192 51.8795 18.0907 51.4955 17.888C51.1222 17.6853 50.8288 17.4027 50.6155 17.04C50.4022 16.6773 50.2955 16.2613 50.2955 15.792C50.2955 15.3333 50.4022 14.9387 50.6155 14.608C50.8395 14.2667 51.1648 13.9947 51.5915 13.792C52.0182 13.5893 52.5302 13.472 53.1275 13.44L55.2075 13.312V12.752C55.2075 12.3467 55.1382 12.0213 54.9995 11.776C54.8715 11.52 54.6795 11.3333 54.4235 11.216C54.1782 11.088 53.8742 11.024 53.5115 11.024C53.0528 11.024 52.6582 11.1093 52.3275 11.28C51.9968 11.4507 51.7408 11.6373 51.5595 11.84L50.7915 11.072C51.0688 10.7307 51.4475 10.4533 51.9275 10.24C52.4075 10.016 52.9462 9.904 53.5435 9.904C54.2688 9.904 54.8448 10.0267 55.2715 10.272C55.6982 10.5173 56.0022 10.848 56.1835 11.264C56.3755 11.6693 56.4715 12.1227 56.4715 12.624V18H55.2715V16.656H55.1755C54.9728 17.1253 54.6742 17.4987 54.2795 17.776C53.8848 18.0533 53.3888 18.192 52.7915 18.192ZM52.9835 17.104C53.6448 17.104 54.1782 16.912 54.5835 16.528C54.9995 16.1333 55.2075 15.6107 55.2075 14.96V14.272L53.1915 14.416C52.6688 14.4587 52.2688 14.592 51.9915 14.816C51.7248 15.04 51.5915 15.3547 51.5915 15.76C51.5915 16.1653 51.7195 16.4907 51.9755 16.736C52.2422 16.9813 52.5782 17.104 52.9835 17.104ZM60.9073 18L57.8513 10.096H59.2433L61.6273 16.688H61.7233L64.1233 10.096H65.4193L62.3473 18H60.9073ZM70.0261 18.192C69.2688 18.192 68.6075 18.0267 68.0421 17.696C67.4875 17.3653 67.0555 16.8907 66.7461 16.272C66.4368 15.6427 66.2821 14.9013 66.2821 14.048C66.2821 13.376 66.3675 12.784 66.5381 12.272C66.7195 11.7493 66.9701 11.3173 67.2901 10.976C67.6208 10.624 68.0048 10.3573 68.4421 10.176C68.8901 9.99467 69.3808 9.904 69.9141 9.904C70.4475 9.904 70.9328 9.98933 71.3701 10.16C71.8181 10.3307 72.2021 10.5867 72.5221 10.928C72.8528 11.2587 73.1088 11.68 73.2901 12.192C73.4715 12.6933 73.5621 13.28 73.5621 13.952C73.5621 14.0373 73.5568 14.1227 73.5461 14.208C73.5461 14.2933 73.5408 14.3627 73.5301 14.416H67.5621C67.5728 14.9067 67.6901 15.3547 67.9141 15.76C68.1381 16.1653 68.4368 16.4907 68.8101 16.736C69.1941 16.9707 69.6208 17.088 70.0901 17.088C70.6555 17.088 71.1248 16.976 71.4981 16.752C71.8715 16.528 72.1808 16.256 72.4261 15.936L73.1941 16.72C72.8635 17.168 72.4421 17.5253 71.9301 17.792C71.4181 18.0587 70.7835 18.192 70.0261 18.192ZM69.9141 10.96C69.4128 10.96 68.9915 11.0773 68.6501 11.312C68.3088 11.5467 68.0475 11.8453 67.8661 12.208C67.6955 12.5707 67.6048 12.9493 67.5941 13.344H72.2181C72.2075 12.9493 72.1115 12.5707 71.9301 12.208C71.7595 11.8453 71.5035 11.5467 71.1621 11.312C70.8315 11.0773 70.4155 10.96 69.9141 10.96ZM79.4694 18V10.096H80.6854V11.376H80.7814C80.952 10.96 81.1974 10.6133 81.5174 10.336C81.848 10.048 82.248 9.904 82.7174 9.904C82.9094 9.904 83.096 9.92533 83.2774 9.968C83.4694 10 83.64 10.0587 83.7894 10.144L83.3574 11.296C83.2187 11.2213 83.0694 11.1733 82.9094 11.152C82.76 11.12 82.6054 11.104 82.4454 11.104C81.9227 11.104 81.5067 11.3173 81.1974 11.744C80.8987 12.16 80.7494 12.6933 80.7494 13.344V18H79.4694ZM88.1355 18.192C87.3782 18.192 86.7168 18.0267 86.1515 17.696C85.5968 17.3653 85.1648 16.8907 84.8555 16.272C84.5462 15.6427 84.3915 14.9013 84.3915 14.048C84.3915 13.376 84.4768 12.784 84.6475 12.272C84.8288 11.7493 85.0795 11.3173 85.3995 10.976C85.7302 10.624 86.1142 10.3573 86.5515 10.176C86.9995 9.99467 87.4902 9.904 88.0235 9.904C88.5568 9.904 89.0422 9.98933 89.4795 10.16C89.9275 10.3307 90.3115 10.5867 90.6315 10.928C90.9622 11.2587 91.2182 11.68 91.3995 12.192C91.5808 12.6933 91.6715 13.28 91.6715 13.952C91.6715 14.0373 91.6662 14.1227 91.6555 14.208C91.6555 14.2933 91.6502 14.3627 91.6395 14.416H85.6715C85.6822 14.9067 85.7995 15.3547 86.0235 15.76C86.2475 16.1653 86.5462 16.4907 86.9195 16.736C87.3035 16.9707 87.7302 17.088 88.1995 17.088C88.7648 17.088 89.2342 16.976 89.6075 16.752C89.9808 16.528 90.2902 16.256 90.5355 15.936L91.3035 16.72C90.9728 17.168 90.5515 17.5253 90.0395 17.792C89.5275 18.0587 88.8928 18.192 88.1355 18.192ZM88.0235 10.96C87.5222 10.96 87.1008 11.0773 86.7595 11.312C86.4182 11.5467 86.1568 11.8453 85.9755 12.208C85.8048 12.5707 85.7142 12.9493 85.7035 13.344H90.3275C90.3168 12.9493 90.2208 12.5707 90.0395 12.208C89.8688 11.8453 89.6128 11.5467 89.2715 11.312C88.9408 11.0773 88.5248 10.96 88.0235 10.96ZM95.479 18.192C94.999 18.192 94.567 18.0907 94.183 17.888C93.8097 17.6853 93.5163 17.4027 93.303 17.04C93.0897 16.6773 92.983 16.2613 92.983 15.792C92.983 15.3333 93.0897 14.9387 93.303 14.608C93.527 14.2667 93.8523 13.9947 94.279 13.792C94.7057 13.5893 95.2177 13.472 95.815 13.44L97.895 13.312V12.752C97.895 12.3467 97.8257 12.0213 97.687 11.776C97.559 11.52 97.367 11.3333 97.111 11.216C96.8657 11.088 96.5617 11.024 96.199 11.024C95.7403 11.024 95.3457 11.1093 95.015 11.28C94.6843 11.4507 94.4283 11.6373 94.247 11.84L93.479 11.072C93.7563 10.7307 94.135 10.4533 94.615 10.24C95.095 10.016 95.6337 9.904 96.231 9.904C96.9563 9.904 97.5323 10.0267 97.959 10.272C98.3857 10.5173 98.6897 10.848 98.871 11.264C99.063 11.6693 99.159 12.1227 99.159 12.624V18H97.959V16.656H97.863C97.6603 17.1253 97.3617 17.4987 96.967 17.776C96.5723 18.0533 96.0763 18.192 95.479 18.192ZM95.671 17.104C96.3323 17.104 96.8657 16.912 97.271 16.528C97.687 16.1333 97.895 15.6107 97.895 14.96V14.272L95.879 14.416C95.3563 14.4587 94.9563 14.592 94.679 14.816C94.4123 15.04 94.279 15.3547 94.279 15.76C94.279 16.1653 94.407 16.4907 94.663 16.736C94.9297 16.9813 95.2657 17.104 95.671 17.104ZM104.583 18.192C103.879 18.192 103.266 18.0107 102.743 17.648C102.22 17.2853 101.81 16.7947 101.511 16.176C101.223 15.5467 101.079 14.832 101.079 14.032C101.079 13.232 101.223 12.5227 101.511 11.904C101.81 11.2747 102.22 10.784 102.743 10.432C103.266 10.08 103.879 9.904 104.583 9.904C105.234 9.904 105.794 10.0587 106.263 10.368C106.732 10.6773 107.068 11.072 107.271 11.552H107.367V6.4H108.647V18H107.431V16.384H107.335C107.154 16.928 106.812 17.3653 106.311 17.696C105.81 18.0267 105.234 18.192 104.583 18.192ZM104.903 17.04C105.362 17.04 105.772 16.9333 106.135 16.72C106.508 16.496 106.807 16.16 107.031 15.712C107.255 15.264 107.367 14.7093 107.367 14.048C107.367 13.376 107.255 12.8213 107.031 12.384C106.807 11.936 106.508 11.6053 106.135 11.392C105.772 11.168 105.362 11.056 104.903 11.056C104.434 11.056 104.007 11.168 103.623 11.392C103.25 11.6053 102.951 11.936 102.727 12.384C102.503 12.8213 102.391 13.376 102.391 14.048C102.391 14.7093 102.503 15.264 102.727 15.712C102.951 16.16 103.25 16.496 103.623 16.72C104.007 16.9333 104.434 17.04 104.903 17.04ZM116.948 18.192C116.468 18.192 116.036 18.0907 115.652 17.888C115.278 17.6853 114.985 17.4027 114.772 17.04C114.558 16.6773 114.452 16.2613 114.452 15.792C114.452 15.3333 114.558 14.9387 114.772 14.608C114.996 14.2667 115.321 13.9947 115.748 13.792C116.174 13.5893 116.686 13.472 117.284 13.44L119.364 13.312V12.752C119.364 12.3467 119.294 12.0213 119.156 11.776C119.028 11.52 118.836 11.3333 118.58 11.216C118.334 11.088 118.03 11.024 117.668 11.024C117.209 11.024 116.814 11.1093 116.484 11.28C116.153 11.4507 115.897 11.6373 115.716 11.84L114.948 11.072C115.225 10.7307 115.604 10.4533 116.084 10.24C116.564 10.016 117.102 9.904 117.7 9.904C118.425 9.904 119.001 10.0267 119.428 10.272C119.854 10.5173 120.158 10.848 120.34 11.264C120.532 11.6693 120.628 12.1227 120.628 12.624V18H119.428V16.656H119.332C119.129 17.1253 118.83 17.4987 118.436 17.776C118.041 18.0533 117.545 18.192 116.948 18.192ZM117.14 17.104C117.801 17.104 118.334 16.912 118.74 16.528C119.156 16.1333 119.364 15.6107 119.364 14.96V14.272L117.348 14.416C116.825 14.4587 116.425 14.592 116.148 14.816C115.881 15.04 115.748 15.3547 115.748 15.76C115.748 16.1653 115.876 16.4907 116.132 16.736C116.398 16.9813 116.734 17.104 117.14 17.104ZM123.204 18V10.096H124.42V11.344H124.516C124.644 11.0667 124.809 10.8213 125.012 10.608C125.214 10.384 125.454 10.2133 125.732 10.096C126.009 9.968 126.324 9.904 126.676 9.904C127.582 9.904 128.297 10.144 128.82 10.624C129.353 11.0933 129.62 11.8667 129.62 12.944V18H128.34V13.184C128.34 12.3733 128.174 11.8027 127.844 11.472C127.524 11.1307 127.049 10.96 126.42 10.96C125.822 10.96 125.348 11.168 124.996 11.584C124.654 12 124.484 12.608 124.484 13.408V18H123.204ZM135.036 18.192C134.332 18.192 133.719 18.0107 133.196 17.648C132.673 17.2853 132.263 16.7947 131.964 16.176C131.676 15.5467 131.532 14.832 131.532 14.032C131.532 13.232 131.676 12.5227 131.964 11.904C132.263 11.2747 132.673 10.784 133.196 10.432C133.719 10.08 134.332 9.904 135.036 9.904C135.687 9.904 136.247 10.0587 136.716 10.368C137.185 10.6773 137.521 11.072 137.724 11.552H137.82V6.4H139.1V18H137.884V16.384H137.788C137.607 16.928 137.265 17.3653 136.764 17.696C136.263 18.0267 135.687 18.192 135.036 18.192ZM135.356 17.04C135.815 17.04 136.225 16.9333 136.588 16.72C136.961 16.496 137.26 16.16 137.484 15.712C137.708 15.264 137.82 14.7093 137.82 14.048C137.82 13.376 137.708 12.8213 137.484 12.384C137.26 11.936 136.961 11.6053 136.588 11.392C136.225 11.168 135.815 11.056 135.356 11.056C134.887 11.056 134.46 11.168 134.076 11.392C133.703 11.6053 133.404 11.936 133.18 12.384C132.956 12.8213 132.844 13.376 132.844 14.048C132.844 14.7093 132.956 15.264 133.18 15.712C133.404 16.16 133.703 16.496 134.076 16.72C134.46 16.9333 134.887 17.04 135.356 17.04ZM147.401 18.192C146.921 18.192 146.489 18.0907 146.105 17.888C145.732 17.6853 145.438 17.4027 145.225 17.04C145.012 16.6773 144.905 16.2613 144.905 15.792C144.905 15.3333 145.012 14.9387 145.225 14.608C145.449 14.2667 145.774 13.9947 146.201 13.792C146.628 13.5893 147.14 13.472 147.737 13.44L149.817 13.312V12.752C149.817 12.3467 149.748 12.0213 149.609 11.776C149.481 11.52 149.289 11.3333 149.033 11.216C148.788 11.088 148.484 11.024 148.121 11.024C147.662 11.024 147.268 11.1093 146.937 11.28C146.606 11.4507 146.35 11.6373 146.169 11.84L145.401 11.072C145.678 10.7307 146.057 10.4533 146.537 10.24C147.017 10.016 147.556 9.904 148.153 9.904C148.878 9.904 149.454 10.0267 149.881 10.272C150.308 10.5173 150.612 10.848 150.793 11.264C150.985 11.6693 151.081 12.1227 151.081 12.624V18H149.881V16.656H149.785C149.582 17.1253 149.284 17.4987 148.889 17.776C148.494 18.0533 147.998 18.192 147.401 18.192ZM147.593 17.104C148.254 17.104 148.788 16.912 149.193 16.528C149.609 16.1333 149.817 15.6107 149.817 14.96V14.272L147.801 14.416C147.278 14.4587 146.878 14.592 146.601 14.816C146.334 15.04 146.201 15.3547 146.201 15.76C146.201 16.1653 146.329 16.4907 146.585 16.736C146.852 16.9813 147.188 17.104 147.593 17.104ZM156.665 18.192C155.812 18.192 155.113 17.9947 154.569 17.6C154.025 17.2053 153.625 16.6933 153.369 16.064C153.124 15.424 153.001 14.752 153.001 14.048C153.001 13.3333 153.124 12.6613 153.369 12.032C153.614 11.4027 154.004 10.8907 154.537 10.496C155.081 10.1013 155.78 9.904 156.633 9.904C157.294 9.904 157.838 10.016 158.265 10.24C158.702 10.464 159.07 10.7627 159.369 11.136L158.569 11.888C158.313 11.6107 158.041 11.3973 157.753 11.248C157.476 11.088 157.113 11.008 156.665 11.008C156.206 11.008 155.796 11.1307 155.433 11.376C155.081 11.6213 154.804 11.9733 154.601 12.432C154.409 12.88 154.313 13.4187 154.313 14.048C154.313 14.9867 154.537 15.728 154.985 16.272C155.433 16.816 156.004 17.088 156.697 17.088C157.124 17.088 157.492 17.0133 157.801 16.864C158.11 16.704 158.398 16.4747 158.665 16.176L159.433 16.944C159.134 17.3173 158.756 17.6213 158.297 17.856C157.849 18.08 157.305 18.192 156.665 18.192ZM164.149 18.192C163.296 18.192 162.597 17.9947 162.053 17.6C161.509 17.2053 161.109 16.6933 160.853 16.064C160.608 15.424 160.485 14.752 160.485 14.048C160.485 13.3333 160.608 12.6613 160.853 12.032C161.099 11.4027 161.488 10.8907 162.021 10.496C162.565 10.1013 163.264 9.904 164.117 9.904C164.779 9.904 165.323 10.016 165.749 10.24C166.187 10.464 166.555 10.7627 166.853 11.136L166.053 11.888C165.797 11.6107 165.525 11.3973 165.237 11.248C164.96 11.088 164.597 11.008 164.149 11.008C163.691 11.008 163.28 11.1307 162.917 11.376C162.565 11.6213 162.288 11.9733 162.085 12.432C161.893 12.88 161.797 13.4187 161.797 14.048C161.797 14.9867 162.021 15.728 162.469 16.272C162.917 16.816 163.488 17.088 164.181 17.088C164.608 17.088 164.976 17.0133 165.285 16.864C165.595 16.704 165.883 16.4747 166.149 16.176L166.917 16.944C166.619 17.3173 166.24 17.6213 165.781 17.856C165.333 18.08 164.789 18.192 164.149 18.192ZM171.714 18.192C170.956 18.192 170.295 18.0267 169.73 17.696C169.175 17.3653 168.743 16.8907 168.434 16.272C168.124 15.6427 167.97 14.9013 167.97 14.048C167.97 13.376 168.055 12.784 168.226 12.272C168.407 11.7493 168.658 11.3173 168.978 10.976C169.308 10.624 169.692 10.3573 170.13 10.176C170.578 9.99467 171.068 9.904 171.602 9.904C172.135 9.904 172.62 9.98933 173.058 10.16C173.506 10.3307 173.89 10.5867 174.21 10.928C174.54 11.2587 174.796 11.68 174.978 12.192C175.159 12.6933 175.25 13.28 175.25 13.952C175.25 14.0373 175.244 14.1227 175.234 14.208C175.234 14.2933 175.228 14.3627 175.218 14.416H169.25C169.26 14.9067 169.378 15.3547 169.602 15.76C169.826 16.1653 170.124 16.4907 170.498 16.736C170.882 16.9707 171.308 17.088 171.778 17.088C172.343 17.088 172.812 16.976 173.186 16.752C173.559 16.528 173.868 16.256 174.114 15.936L174.882 16.72C174.551 17.168 174.13 17.5253 173.618 17.792C173.106 18.0587 172.471 18.192 171.714 18.192ZM171.602 10.96C171.1 10.96 170.679 11.0773 170.338 11.312C169.996 11.5467 169.735 11.8453 169.554 12.208C169.383 12.5707 169.292 12.9493 169.282 13.344H173.906C173.895 12.9493 173.799 12.5707 173.618 12.208C173.447 11.8453 173.191 11.5467 172.85 11.312C172.519 11.0773 172.103 10.96 171.602 10.96ZM177.313 20.96V10.096H178.529V11.712H178.625C178.806 11.168 179.148 10.7307 179.649 10.4C180.15 10.0693 180.726 9.904 181.377 9.904C182.081 9.904 182.694 10.0853 183.217 10.448C183.74 10.8 184.145 11.2907 184.433 11.92C184.732 12.5493 184.881 13.264 184.881 14.064C184.881 14.864 184.732 15.5733 184.433 16.192C184.145 16.8107 183.74 17.3013 183.217 17.664C182.694 18.016 182.081 18.192 181.377 18.192C180.726 18.192 180.166 18.0373 179.697 17.728C179.228 17.4187 178.892 17.024 178.689 16.544H178.593V20.96H177.313ZM181.057 17.04C181.526 17.04 181.948 16.9333 182.321 16.72C182.705 16.496 183.009 16.16 183.233 15.712C183.457 15.264 183.569 14.7093 183.569 14.048C183.569 13.376 183.457 12.8213 183.233 12.384C183.009 11.936 182.705 11.6053 182.321 11.392C181.948 11.168 181.526 11.056 181.057 11.056C180.609 11.056 180.198 11.168 179.825 11.392C179.452 11.6053 179.153 11.936 178.929 12.384C178.705 12.8213 178.593 13.376 178.593 14.048C178.593 14.7093 178.705 15.264 178.929 15.712C179.153 16.16 179.452 16.496 179.825 16.72C180.198 16.9333 180.609 17.04 181.057 17.04ZM189.37 18.192C188.901 18.192 188.511 18.096 188.202 17.904C187.893 17.712 187.663 17.4347 187.514 17.072C187.375 16.7093 187.306 16.2827 187.306 15.792V11.136H185.898V10.096H187.306V7.952H188.57V10.096H190.858V11.136H188.57V15.68C188.57 16.192 188.666 16.5493 188.858 16.752C189.061 16.9547 189.317 17.056 189.626 17.056C189.839 17.056 190.031 17.0187 190.202 16.944C190.373 16.8587 190.533 16.7467 190.682 16.608L191.258 17.504C191.013 17.7387 190.73 17.9093 190.41 18.016C190.101 18.1333 189.754 18.192 189.37 18.192ZM195.964 18.192C195.206 18.192 194.545 18.0267 193.98 17.696C193.425 17.3653 192.993 16.8907 192.684 16.272C192.374 15.6427 192.22 14.9013 192.22 14.048C192.22 13.376 192.305 12.784 192.476 12.272C192.657 11.7493 192.908 11.3173 193.228 10.976C193.558 10.624 193.942 10.3573 194.38 10.176C194.828 9.99467 195.318 9.904 195.852 9.904C196.385 9.904 196.87 9.98933 197.308 10.16C197.756 10.3307 198.14 10.5867 198.46 10.928C198.79 11.2587 199.046 11.68 199.228 12.192C199.409 12.6933 199.5 13.28 199.5 13.952C199.5 14.0373 199.494 14.1227 199.484 14.208C199.484 14.2933 199.478 14.3627 199.468 14.416H193.5C193.51 14.9067 193.628 15.3547 193.852 15.76C194.076 16.1653 194.374 16.4907 194.748 16.736C195.132 16.9707 195.558 17.088 196.028 17.088C196.593 17.088 197.062 16.976 197.436 16.752C197.809 16.528 198.118 16.256 198.364 15.936L199.132 16.72C198.801 17.168 198.38 17.5253 197.868 17.792C197.356 18.0587 196.721 18.192 195.964 18.192ZM195.852 10.96C195.35 10.96 194.929 11.0773 194.588 11.312C194.246 11.5467 193.985 11.8453 193.804 12.208C193.633 12.5707 193.542 12.9493 193.532 13.344H198.156C198.145 12.9493 198.049 12.5707 197.868 12.208C197.697 11.8453 197.441 11.5467 197.1 11.312C196.769 11.0773 196.353 10.96 195.852 10.96ZM204.411 18.192C203.707 18.192 203.094 18.0107 202.571 17.648C202.048 17.2853 201.638 16.7947 201.339 16.176C201.051 15.5467 200.907 14.832 200.907 14.032C200.907 13.232 201.051 12.5227 201.339 11.904C201.638 11.2747 202.048 10.784 202.571 10.432C203.094 10.08 203.707 9.904 204.411 9.904C205.062 9.904 205.622 10.0587 206.091 10.368C206.56 10.6773 206.896 11.072 207.099 11.552H207.195V6.4H208.475V18H207.259V16.384H207.163C206.982 16.928 206.64 17.3653 206.139 17.696C205.638 18.0267 205.062 18.192 204.411 18.192ZM204.731 17.04C205.19 17.04 205.6 16.9333 205.963 16.72C206.336 16.496 206.635 16.16 206.859 15.712C207.083 15.264 207.195 14.7093 207.195 14.048C207.195 13.376 207.083 12.8213 206.859 12.384C206.635 11.936 206.336 11.6053 205.963 11.392C205.6 11.168 205.19 11.056 204.731 11.056C204.262 11.056 203.835 11.168 203.451 11.392C203.078 11.6053 202.779 11.936 202.555 12.384C202.331 12.8213 202.219 13.376 202.219 14.048C202.219 14.7093 202.331 15.264 202.555 15.712C202.779 16.16 203.078 16.496 203.451 16.72C203.835 16.9333 204.262 17.04 204.731 17.04ZM217.464 18.192C216.995 18.192 216.605 18.096 216.296 17.904C215.987 17.712 215.757 17.4347 215.608 17.072C215.469 16.7093 215.4 16.2827 215.4 15.792V11.136H213.992V10.096H215.4V7.952H216.664V10.096H218.952V11.136H216.664V15.68C216.664 16.192 216.76 16.5493 216.952 16.752C217.155 16.9547 217.411 17.056 217.72 17.056C217.933 17.056 218.125 17.0187 218.296 16.944C218.467 16.8587 218.627 16.7467 218.776 16.608L219.352 17.504C219.107 17.7387 218.824 17.9093 218.504 18.016C218.195 18.1333 217.848 18.192 217.464 18.192ZM221.094 18V6.4H222.374V11.216H222.47C222.652 10.8533 222.913 10.544 223.254 10.288C223.606 10.032 224.044 9.904 224.566 9.904C225.473 9.904 226.188 10.144 226.71 10.624C227.244 11.0933 227.51 11.8667 227.51 12.944V18H226.23V13.184C226.23 12.3733 226.065 11.8027 225.734 11.472C225.414 11.1307 224.94 10.96 224.31 10.96C223.713 10.96 223.238 11.168 222.886 11.584C222.545 12 222.374 12.608 222.374 13.408V18H221.094ZM233.089 18.192C232.331 18.192 231.67 18.0267 231.105 17.696C230.55 17.3653 230.118 16.8907 229.809 16.272C229.499 15.6427 229.345 14.9013 229.345 14.048C229.345 13.376 229.43 12.784 229.601 12.272C229.782 11.7493 230.033 11.3173 230.353 10.976C230.683 10.624 231.067 10.3573 231.505 10.176C231.953 9.99467 232.443 9.904 232.977 9.904C233.51 9.904 233.995 9.98933 234.433 10.16C234.881 10.3307 235.265 10.5867 235.585 10.928C235.915 11.2587 236.171 11.68 236.353 12.192C236.534 12.6933 236.625 13.28 236.625 13.952C236.625 14.0373 236.619 14.1227 236.609 14.208C236.609 14.2933 236.603 14.3627 236.593 14.416H230.625C230.635 14.9067 230.753 15.3547 230.977 15.76C231.201 16.1653 231.499 16.4907 231.873 16.736C232.257 16.9707 232.683 17.088 233.153 17.088C233.718 17.088 234.187 16.976 234.561 16.752C234.934 16.528 235.243 16.256 235.489 15.936L236.257 16.72C235.926 17.168 235.505 17.5253 234.993 17.792C234.481 18.0587 233.846 18.192 233.089 18.192ZM232.977 10.96C232.475 10.96 232.054 11.0773 231.713 11.312C231.371 11.5467 231.11 11.8453 230.929 12.208C230.758 12.5707 230.667 12.9493 230.657 13.344H235.281C235.27 12.9493 235.174 12.5707 234.993 12.208C234.822 11.8453 234.566 11.5467 234.225 11.312C233.894 11.0773 233.478 10.96 232.977 10.96ZM244.964 18.192C244.495 18.192 244.105 18.096 243.796 17.904C243.487 17.712 243.257 17.4347 243.108 17.072C242.969 16.7093 242.9 16.2827 242.9 15.792V11.136H241.492V10.096H242.9V7.952H244.164V10.096H246.452V11.136H244.164V15.68C244.164 16.192 244.26 16.5493 244.452 16.752C244.655 16.9547 244.911 17.056 245.22 17.056C245.433 17.056 245.625 17.0187 245.796 16.944C245.967 16.8587 246.127 16.7467 246.276 16.608L246.852 17.504C246.607 17.7387 246.324 17.9093 246.004 18.016C245.695 18.1333 245.348 18.192 244.964 18.192ZM251.557 18.192C250.8 18.192 250.139 18.0267 249.573 17.696C249.019 17.3653 248.587 16.8907 248.277 16.272C247.968 15.6427 247.813 14.9013 247.813 14.048C247.813 13.376 247.899 12.784 248.069 12.272C248.251 11.7493 248.501 11.3173 248.821 10.976C249.152 10.624 249.536 10.3573 249.973 10.176C250.421 9.99467 250.912 9.904 251.445 9.904C251.979 9.904 252.464 9.98933 252.901 10.16C253.349 10.3307 253.733 10.5867 254.053 10.928C254.384 11.2587 254.64 11.68 254.821 12.192C255.003 12.6933 255.093 13.28 255.093 13.952C255.093 14.0373 255.088 14.1227 255.077 14.208C255.077 14.2933 255.072 14.3627 255.061 14.416H249.093C249.104 14.9067 249.221 15.3547 249.445 15.76C249.669 16.1653 249.968 16.4907 250.341 16.736C250.725 16.9707 251.152 17.088 251.621 17.088C252.187 17.088 252.656 16.976 253.029 16.752C253.403 16.528 253.712 16.256 253.957 15.936L254.725 16.72C254.395 17.168 253.973 17.5253 253.461 17.792C252.949 18.0587 252.315 18.192 251.557 18.192ZM251.445 10.96C250.944 10.96 250.523 11.0773 250.181 11.312C249.84 11.5467 249.579 11.8453 249.397 12.208C249.227 12.5707 249.136 12.9493 249.125 13.344H253.749C253.739 12.9493 253.643 12.5707 253.461 12.208C253.291 11.8453 253.035 11.5467 252.693 11.312C252.363 11.0773 251.947 10.96 251.445 10.96ZM257.157 18V10.096H258.373V11.376H258.469C258.64 10.96 258.885 10.6133 259.205 10.336C259.536 10.048 259.936 9.904 260.405 9.904C260.597 9.904 260.784 9.92533 260.965 9.968C261.157 10 261.328 10.0587 261.477 10.144L261.045 11.296C260.906 11.2213 260.757 11.1733 260.597 11.152C260.448 11.12 260.293 11.104 260.133 11.104C259.61 11.104 259.194 11.3173 258.885 11.744C258.586 12.16 258.437 12.6933 258.437 13.344V18H257.157ZM263.126 18V10.096H264.342V11.344H264.438C264.63 10.928 264.896 10.5867 265.238 10.32C265.59 10.0427 266.027 9.904 266.55 9.904C267.179 9.904 267.712 10.0213 268.15 10.256C268.587 10.48 268.907 10.8213 269.11 11.28C269.27 10.9813 269.462 10.7307 269.686 10.528C269.91 10.3253 270.176 10.1707 270.486 10.064C270.806 9.95733 271.163 9.904 271.558 9.904C272.144 9.904 272.651 10.0107 273.078 10.224C273.504 10.4267 273.835 10.752 274.07 11.2C274.304 11.648 274.422 12.2293 274.422 12.944V18H273.142V13.184C273.142 12.64 273.067 12.208 272.918 11.888C272.779 11.5573 272.571 11.3227 272.294 11.184C272.027 11.0347 271.691 10.96 271.286 10.96C270.699 10.96 270.24 11.168 269.91 11.584C269.579 12 269.414 12.608 269.414 13.408V18H268.134V13.184C268.134 12.64 268.064 12.208 267.926 11.888C267.787 11.5573 267.579 11.3227 267.302 11.184C267.024 11.0347 266.683 10.96 266.278 10.96C265.702 10.96 265.243 11.168 264.902 11.584C264.571 12 264.406 12.608 264.406 13.408V18H263.126ZM279.145 18.192C278.462 18.192 277.875 18.0747 277.385 17.84C276.894 17.6053 276.51 17.3013 276.233 16.928L277.081 16.128C277.326 16.416 277.609 16.6507 277.929 16.832C278.259 17.0133 278.67 17.104 279.161 17.104C279.598 17.104 279.982 17.0133 280.313 16.832C280.643 16.64 280.809 16.3467 280.809 15.952C280.809 15.6427 280.713 15.4027 280.521 15.232C280.339 15.0507 280.099 14.9067 279.801 14.8C279.502 14.6827 279.182 14.576 278.841 14.48C278.446 14.3627 278.073 14.2187 277.721 14.048C277.379 13.8667 277.097 13.632 276.873 13.344C276.659 13.0453 276.553 12.6667 276.553 12.208C276.553 11.7067 276.67 11.2853 276.905 10.944C277.15 10.6027 277.475 10.3467 277.881 10.176C278.297 9.99467 278.761 9.904 279.273 9.904C279.838 9.904 280.366 10.0107 280.857 10.224C281.347 10.4267 281.742 10.7467 282.041 11.184L281.209 11.952C280.974 11.6747 280.697 11.4453 280.377 11.264C280.067 11.0827 279.699 10.992 279.273 10.992C278.91 10.992 278.574 11.0827 278.265 11.264C277.955 11.4347 277.801 11.712 277.801 12.096C277.801 12.4053 277.891 12.6507 278.073 12.832C278.265 13.0027 278.51 13.1413 278.809 13.248C279.107 13.3547 279.427 13.4613 279.769 13.568C280.163 13.6853 280.531 13.8347 280.873 14.016C281.225 14.1867 281.507 14.416 281.721 14.704C281.945 14.992 282.057 15.3707 282.057 15.84C282.057 16.384 281.923 16.832 281.657 17.184C281.39 17.5253 281.033 17.7813 280.585 17.952C280.147 18.112 279.667 18.192 279.145 18.192ZM289.854 18.192C289.374 18.192 288.942 18.0907 288.558 17.888C288.185 17.6853 287.891 17.4027 287.678 17.04C287.465 16.6773 287.358 16.2613 287.358 15.792C287.358 15.3333 287.465 14.9387 287.678 14.608C287.902 14.2667 288.227 13.9947 288.654 13.792C289.081 13.5893 289.593 13.472 290.19 13.44L292.27 13.312V12.752C292.27 12.3467 292.201 12.0213 292.062 11.776C291.934 11.52 291.742 11.3333 291.486 11.216C291.241 11.088 290.937 11.024 290.574 11.024C290.115 11.024 289.721 11.1093 289.39 11.28C289.059 11.4507 288.803 11.6373 288.622 11.84L287.854 11.072C288.131 10.7307 288.51 10.4533 288.99 10.24C289.47 10.016 290.009 9.904 290.606 9.904C291.331 9.904 291.907 10.0267 292.334 10.272C292.761 10.5173 293.065 10.848 293.246 11.264C293.438 11.6693 293.534 12.1227 293.534 12.624V18H292.334V16.656H292.238C292.035 17.1253 291.737 17.4987 291.342 17.776C290.947 18.0533 290.451 18.192 289.854 18.192ZM290.046 17.104C290.707 17.104 291.241 16.912 291.646 16.528C292.062 16.1333 292.27 15.6107 292.27 14.96V14.272L290.254 14.416C289.731 14.4587 289.331 14.592 289.054 14.816C288.787 15.04 288.654 15.3547 288.654 15.76C288.654 16.1653 288.782 16.4907 289.038 16.736C289.305 16.9813 289.641 17.104 290.046 17.104ZM296.11 18V10.096H297.326V11.344H297.422C297.55 11.0667 297.715 10.8213 297.918 10.608C298.121 10.384 298.361 10.2133 298.638 10.096C298.915 9.968 299.23 9.904 299.582 9.904C300.489 9.904 301.203 10.144 301.726 10.624C302.259 11.0933 302.526 11.8667 302.526 12.944V18H301.246V13.184C301.246 12.3733 301.081 11.8027 300.75 11.472C300.43 11.1307 299.955 10.96 299.326 10.96C298.729 10.96 298.254 11.168 297.902 11.584C297.561 12 297.39 12.608 297.39 13.408V18H296.11ZM307.942 18.192C307.238 18.192 306.625 18.0107 306.102 17.648C305.58 17.2853 305.169 16.7947 304.87 16.176C304.582 15.5467 304.438 14.832 304.438 14.032C304.438 13.232 304.582 12.5227 304.87 11.904C305.169 11.2747 305.58 10.784 306.102 10.432C306.625 10.08 307.238 9.904 307.942 9.904C308.593 9.904 309.153 10.0587 309.622 10.368C310.092 10.6773 310.428 11.072 310.63 11.552H310.726V6.4H312.006V18H310.79V16.384H310.694C310.513 16.928 310.172 17.3653 309.67 17.696C309.169 18.0267 308.593 18.192 307.942 18.192ZM308.262 17.04C308.721 17.04 309.132 16.9333 309.494 16.72C309.868 16.496 310.166 16.16 310.39 15.712C310.614 15.264 310.726 14.7093 310.726 14.048C310.726 13.376 310.614 12.8213 310.39 12.384C310.166 11.936 309.868 11.6053 309.494 11.392C309.132 11.168 308.721 11.056 308.262 11.056C307.793 11.056 307.366 11.168 306.982 11.392C306.609 11.6053 306.31 11.936 306.086 12.384C305.862 12.8213 305.75 13.376 305.75 14.048C305.75 14.7093 305.862 15.264 306.086 15.712C306.31 16.16 306.609 16.496 306.982 16.72C307.366 16.9333 307.793 17.04 308.262 17.04ZM321.571 18.192C320.718 18.192 320.019 17.9947 319.475 17.6C318.931 17.2053 318.531 16.6933 318.275 16.064C318.03 15.424 317.907 14.752 317.907 14.048C317.907 13.3333 318.03 12.6613 318.275 12.032C318.52 11.4027 318.91 10.8907 319.443 10.496C319.987 10.1013 320.686 9.904 321.539 9.904C322.2 9.904 322.744 10.016 323.171 10.24C323.608 10.464 323.976 10.7627 324.275 11.136L323.475 11.888C323.219 11.6107 322.947 11.3973 322.659 11.248C322.382 11.088 322.019 11.008 321.571 11.008C321.112 11.008 320.702 11.1307 320.339 11.376C319.987 11.6213 319.71 11.9733 319.507 12.432C319.315 12.88 319.219 13.4187 319.219 14.048C319.219 14.9867 319.443 15.728 319.891 16.272C320.339 16.816 320.91 17.088 321.603 17.088C322.03 17.088 322.398 17.0133 322.707 16.864C323.016 16.704 323.304 16.4747 323.571 16.176L324.339 16.944C324.04 17.3173 323.662 17.6213 323.203 17.856C322.755 18.08 322.211 18.192 321.571 18.192ZM329.168 18.192C328.325 18.192 327.621 18.0053 327.056 17.632C326.501 17.2587 326.085 16.7573 325.808 16.128C325.53 15.4987 325.392 14.8053 325.392 14.048C325.392 13.472 325.466 12.9333 325.616 12.432C325.776 11.9307 326.01 11.4933 326.32 11.12C326.64 10.736 327.034 10.4373 327.504 10.224C327.984 10.0107 328.538 9.904 329.168 9.904C330.01 9.904 330.704 10.0907 331.248 10.464C331.802 10.8373 332.213 11.3387 332.48 11.968C332.757 12.5867 332.896 13.28 332.896 14.048C332.896 14.624 332.816 15.1627 332.656 15.664C332.506 16.1653 332.277 16.608 331.968 16.992C331.658 17.3653 331.269 17.6587 330.8 17.872C330.341 18.0853 329.797 18.192 329.168 18.192ZM326.704 14.048C326.704 14.656 326.794 15.1947 326.976 15.664C327.157 16.1227 327.429 16.4853 327.792 16.752C328.154 17.008 328.613 17.136 329.168 17.136C329.712 17.136 330.16 17.008 330.512 16.752C330.874 16.4853 331.141 16.1227 331.312 15.664C331.493 15.1947 331.584 14.656 331.584 14.048C331.584 13.44 331.493 12.9067 331.312 12.448C331.141 11.9787 330.874 11.616 330.512 11.36C330.16 11.0933 329.712 10.96 329.168 10.96C328.613 10.96 328.154 11.0933 327.792 11.36C327.429 11.616 327.157 11.9787 326.976 12.448C326.794 12.9067 326.704 13.44 326.704 14.048ZM334.954 18V10.096H336.17V11.344H336.266C336.394 11.0667 336.559 10.8213 336.762 10.608C336.964 10.384 337.204 10.2133 337.482 10.096C337.759 9.968 338.074 9.904 338.426 9.904C339.332 9.904 340.047 10.144 340.57 10.624C341.103 11.0933 341.37 11.8667 341.37 12.944V18H340.09V13.184C340.09 12.3733 339.924 11.8027 339.594 11.472C339.274 11.1307 338.799 10.96 338.17 10.96C337.572 10.96 337.098 11.168 336.746 11.584C336.404 12 336.234 12.608 336.234 13.408V18H334.954ZM346.786 18.192C346.082 18.192 345.469 18.0107 344.946 17.648C344.423 17.2853 344.013 16.7947 343.714 16.176C343.426 15.5467 343.282 14.832 343.282 14.032C343.282 13.232 343.426 12.5227 343.714 11.904C344.013 11.2747 344.423 10.784 344.946 10.432C345.469 10.08 346.082 9.904 346.786 9.904C347.437 9.904 347.997 10.0587 348.466 10.368C348.935 10.6773 349.271 11.072 349.474 11.552H349.57V6.4H350.85V18H349.634V16.384H349.538C349.357 16.928 349.015 17.3653 348.514 17.696C348.013 18.0267 347.437 18.192 346.786 18.192ZM347.106 17.04C347.565 17.04 347.975 16.9333 348.338 16.72C348.711 16.496 349.01 16.16 349.234 15.712C349.458 15.264 349.57 14.7093 349.57 14.048C349.57 13.376 349.458 12.8213 349.234 12.384C349.01 11.936 348.711 11.6053 348.338 11.392C347.975 11.168 347.565 11.056 347.106 11.056C346.637 11.056 346.21 11.168 345.826 11.392C345.453 11.6053 345.154 11.936 344.93 12.384C344.706 12.8213 344.594 13.376 344.594 14.048C344.594 14.7093 344.706 15.264 344.93 15.712C345.154 16.16 345.453 16.496 345.826 16.72C346.21 16.9333 346.637 17.04 347.106 17.04ZM353.563 18V10.096H354.843V18H353.563ZM354.203 8.816C353.936 8.816 353.728 8.736 353.579 8.576C353.43 8.416 353.355 8.224 353.355 8C353.355 7.78667 353.43 7.6 353.579 7.44C353.728 7.26933 353.936 7.184 354.203 7.184C354.459 7.184 354.662 7.26933 354.811 7.44C354.971 7.6 355.051 7.78667 355.051 8C355.051 8.224 354.971 8.416 354.811 8.576C354.662 8.736 354.459 8.816 354.203 8.816ZM359.995 18.192C359.526 18.192 359.136 18.096 358.827 17.904C358.518 17.712 358.288 17.4347 358.139 17.072C358 16.7093 357.931 16.2827 357.931 15.792V11.136H356.523V10.096H357.931V7.952H359.195V10.096H361.483V11.136H359.195V15.68C359.195 16.192 359.291 16.5493 359.483 16.752C359.686 16.9547 359.942 17.056 360.251 17.056C360.464 17.056 360.656 17.0187 360.827 16.944C360.998 16.8587 361.158 16.7467 361.307 16.608L361.883 17.504C361.638 17.7387 361.355 17.9093 361.035 18.016C360.726 18.1333 360.379 18.192 359.995 18.192ZM363.626 18V10.096H364.906V18H363.626ZM364.266 8.816C363.999 8.816 363.791 8.736 363.642 8.576C363.492 8.416 363.418 8.224 363.418 8C363.418 7.78667 363.492 7.6 363.642 7.44C363.791 7.26933 363.999 7.184 364.266 7.184C364.522 7.184 364.724 7.26933 364.874 7.44C365.034 7.6 365.114 7.78667 365.114 8C365.114 8.224 365.034 8.416 364.874 8.576C364.724 8.736 364.522 8.816 364.266 8.816ZM370.746 18.192C369.903 18.192 369.199 18.0053 368.634 17.632C368.079 17.2587 367.663 16.7573 367.386 16.128C367.108 15.4987 366.97 14.8053 366.97 14.048C366.97 13.472 367.044 12.9333 367.194 12.432C367.354 11.9307 367.588 11.4933 367.898 11.12C368.218 10.736 368.612 10.4373 369.082 10.224C369.562 10.0107 370.116 9.904 370.746 9.904C371.588 9.904 372.282 10.0907 372.826 10.464C373.38 10.8373 373.791 11.3387 374.058 11.968C374.335 12.5867 374.474 13.28 374.474 14.048C374.474 14.624 374.394 15.1627 374.234 15.664C374.084 16.1653 373.855 16.608 373.546 16.992C373.236 17.3653 372.847 17.6587 372.378 17.872C371.919 18.0853 371.375 18.192 370.746 18.192ZM368.282 14.048C368.282 14.656 368.372 15.1947 368.554 15.664C368.735 16.1227 369.007 16.4853 369.37 16.752C369.732 17.008 370.191 17.136 370.746 17.136C371.29 17.136 371.738 17.008 372.09 16.752C372.452 16.4853 372.719 16.1227 372.89 15.664C373.071 15.1947 373.162 14.656 373.162 14.048C373.162 13.44 373.071 12.9067 372.89 12.448C372.719 11.9787 372.452 11.616 372.09 11.36C371.738 11.0933 371.29 10.96 370.746 10.96C370.191 10.96 369.732 11.0933 369.37 11.36C369.007 11.616 368.735 11.9787 368.554 12.448C368.372 12.9067 368.282 13.44 368.282 14.048ZM376.532 18V10.096H377.748V11.344H377.844C377.972 11.0667 378.137 10.8213 378.34 10.608C378.543 10.384 378.783 10.2133 379.06 10.096C379.337 9.968 379.652 9.904 380.004 9.904C380.911 9.904 381.625 10.144 382.148 10.624C382.681 11.0933 382.948 11.8667 382.948 12.944V18H381.668V13.184C381.668 12.3733 381.503 11.8027 381.172 11.472C380.852 11.1307 380.377 10.96 379.748 10.96C379.151 10.96 378.676 11.168 378.324 11.584C377.983 12 377.812 12.608 377.812 13.408V18H376.532ZM387.66 18.192C386.978 18.192 386.391 18.0747 385.9 17.84C385.41 17.6053 385.026 17.3013 384.748 16.928L385.596 16.128C385.842 16.416 386.124 16.6507 386.444 16.832C386.775 17.0133 387.186 17.104 387.676 17.104C388.114 17.104 388.498 17.0133 388.828 16.832C389.159 16.64 389.324 16.3467 389.324 15.952C389.324 15.6427 389.228 15.4027 389.036 15.232C388.855 15.0507 388.615 14.9067 388.316 14.8C388.018 14.6827 387.698 14.576 387.356 14.48C386.962 14.3627 386.588 14.2187 386.236 14.048C385.895 13.8667 385.612 13.632 385.388 13.344C385.175 13.0453 385.068 12.6667 385.068 12.208C385.068 11.7067 385.186 11.2853 385.42 10.944C385.666 10.6027 385.991 10.3467 386.396 10.176C386.812 9.99467 387.276 9.904 387.788 9.904C388.354 9.904 388.882 10.0107 389.372 10.224C389.863 10.4267 390.258 10.7467 390.556 11.184L389.724 11.952C389.49 11.6747 389.212 11.4453 388.892 11.264C388.583 11.0827 388.215 10.992 387.788 10.992C387.426 10.992 387.09 11.0827 386.78 11.264C386.471 11.4347 386.316 11.712 386.316 12.096C386.316 12.4053 386.407 12.6507 386.588 12.832C386.78 13.0027 387.026 13.1413 387.324 13.248C387.623 13.3547 387.943 13.4613 388.284 13.568C388.679 13.6853 389.047 13.8347 389.388 14.016C389.74 14.1867 390.023 14.416 390.236 14.704C390.46 14.992 390.572 15.3707 390.572 15.84C390.572 16.384 390.439 16.832 390.172 17.184C389.906 17.5253 389.548 17.7813 389.1 17.952C388.663 18.112 388.183 18.192 387.66 18.192ZM393.422 18.192C393.123 18.192 392.889 18.096 392.718 17.904C392.547 17.712 392.462 17.4933 392.462 17.248C392.462 17.0773 392.499 16.9227 392.574 16.784C392.659 16.6347 392.771 16.5173 392.91 16.432C393.059 16.3467 393.23 16.304 393.422 16.304C393.731 16.304 393.966 16.4 394.126 16.592C394.297 16.7733 394.382 16.992 394.382 17.248C394.382 17.4187 394.345 17.5733 394.27 17.712C394.195 17.8507 394.083 17.9627 393.934 18.048C393.795 18.144 393.625 18.192 393.422 18.192Z" fill="#242E30"/>
<path d="M241.172 20.592H391.422V21.392H241.172V20.592Z" fill="#242E30"/>
<g clip-path="url(#clip0_22539_4321)">
<path d="M10 46.4766C8.3235 46.4766 6.68464 45.9794 5.29068 45.048C3.89671 44.1166 2.81025 42.7927 2.16868 41.2438C1.52711 39.695 1.35925 37.9906 1.68632 36.3463C2.01339 34.702 2.8207 33.1916 4.00617 32.0062C5.19164 30.8207 6.70202 30.0134 8.34631 29.6863C9.9906 29.3592 11.695 29.5271 13.2438 30.1687C14.7927 30.8103 16.1166 31.8967 17.048 33.2907C17.9794 34.6846 18.4766 36.3235 18.4766 38C18.4737 40.2472 17.5797 42.4016 15.9906 43.9906C14.4016 45.5797 12.2472 46.4737 10 46.4766ZM10 31.1641C8.64798 31.1641 7.32632 31.565 6.20216 32.3161C5.078 33.0673 4.20182 34.1349 3.68442 35.384C3.16702 36.6331 3.03165 38.0076 3.29542 39.3336C3.55918 40.6597 4.21024 41.8777 5.16627 42.8337C6.12229 43.7898 7.34034 44.4408 8.66638 44.7046C9.99242 44.9684 11.3669 44.833 12.616 44.3156C13.8651 43.7982 14.9327 42.922 15.6839 41.7978C16.435 40.6737 16.8359 39.352 16.8359 38C16.8359 37.1023 16.6591 36.2134 16.3156 35.384C15.972 34.5546 15.4685 33.801 14.8337 33.1663C14.199 32.5315 13.4454 32.028 12.616 31.6844C11.7866 31.3409 10.8977 31.1641 10 31.1641Z" fill="#CC0300"/>
<path d="M8.81875 33.7891C9.59135 33.5724 10.4087 33.5724 11.1813 33.7891L10.5797 39.0937H9.42031L8.81875 33.7891ZM11.0938 41.2813C11.0938 41.4976 11.0296 41.709 10.9094 41.8889C10.7892 42.0688 10.6184 42.209 10.4186 42.2917C10.2187 42.3745 9.99879 42.3962 9.78662 42.354C9.57446 42.3118 9.37957 42.2076 9.2266 42.0546C9.07364 41.9017 8.96947 41.7068 8.92727 41.4946C8.88507 41.2825 8.90672 41.0625 8.98951 40.8627C9.07229 40.6628 9.21248 40.492 9.39235 40.3718C9.57221 40.2516 9.78368 40.1875 10 40.1875C10.2901 40.1875 10.5683 40.3027 10.7734 40.5079C10.9785 40.713 11.0938 40.9912 11.0938 41.2813Z" fill="#CC0300"/>
</g>
<path d="M28.364 43L31.626 33.9H33.18L36.456 43H35.182L34.468 40.998H30.282L29.568 43H28.364ZM32.326 34.894L30.632 39.99H34.118L32.41 34.894H32.326ZM40.531 43.168C39.7843 43.168 39.173 42.9953 38.697 42.65C38.221 42.3047 37.871 41.8567 37.647 41.306C37.4323 40.746 37.325 40.158 37.325 39.542C37.325 38.9167 37.4323 38.3287 37.647 37.778C37.8617 37.2273 38.2023 36.7793 38.669 36.434C39.145 36.0887 39.7563 35.916 40.503 35.916C41.0817 35.916 41.5577 36.014 41.931 36.21C42.3137 36.406 42.6357 36.6673 42.897 36.994L42.197 37.652C41.973 37.4093 41.735 37.2227 41.483 37.092C41.2403 36.952 40.923 36.882 40.531 36.882C40.1297 36.882 39.7703 36.9893 39.453 37.204C39.145 37.4187 38.9023 37.7267 38.725 38.128C38.557 38.52 38.473 38.9913 38.473 39.542C38.473 40.3633 38.669 41.012 39.061 41.488C39.453 41.964 39.9523 42.202 40.559 42.202C40.9323 42.202 41.2543 42.1367 41.525 42.006C41.7957 41.866 42.0477 41.6653 42.281 41.404L42.953 42.076C42.6917 42.4027 42.3603 42.6687 41.959 42.874C41.567 43.07 41.091 43.168 40.531 43.168ZM47.0798 43.168C46.3331 43.168 45.7218 42.9953 45.2458 42.65C44.7698 42.3047 44.4198 41.8567 44.1958 41.306C43.9811 40.746 43.8738 40.158 43.8738 39.542C43.8738 38.9167 43.9811 38.3287 44.1958 37.778C44.4105 37.2273 44.7511 36.7793 45.2178 36.434C45.6938 36.0887 46.3051 35.916 47.0518 35.916C47.6305 35.916 48.1065 36.014 48.4798 36.21C48.8625 36.406 49.1845 36.6673 49.4458 36.994L48.7458 37.652C48.5218 37.4093 48.2838 37.2227 48.0318 37.092C47.7891 36.952 47.4718 36.882 47.0798 36.882C46.6785 36.882 46.3191 36.9893 46.0018 37.204C45.6938 37.4187 45.4511 37.7267 45.2738 38.128C45.1058 38.52 45.0218 38.9913 45.0218 39.542C45.0218 40.3633 45.2178 41.012 45.6098 41.488C46.0018 41.964 46.5011 42.202 47.1078 42.202C47.4811 42.202 47.8031 42.1367 48.0738 42.006C48.3445 41.866 48.5965 41.6653 48.8298 41.404L49.5018 42.076C49.2405 42.4027 48.9091 42.6687 48.5078 42.874C48.1158 43.07 47.6398 43.168 47.0798 43.168ZM53.6986 43.168C53.036 43.168 52.4573 43.0233 51.9626 42.734C51.4773 42.4447 51.0993 42.0293 50.8286 41.488C50.558 40.9373 50.4226 40.2887 50.4226 39.542C50.4226 38.954 50.4973 38.436 50.6466 37.988C50.8053 37.5307 51.0246 37.1527 51.3046 36.854C51.594 36.546 51.93 36.3127 52.3126 36.154C52.7046 35.9953 53.134 35.916 53.6006 35.916C54.0673 35.916 54.492 35.9907 54.8746 36.14C55.2666 36.2893 55.6026 36.5133 55.8826 36.812C56.172 37.1013 56.396 37.47 56.5546 37.918C56.7133 38.3567 56.7926 38.87 56.7926 39.458C56.7926 39.5327 56.788 39.6073 56.7786 39.682C56.7786 39.7567 56.774 39.8173 56.7646 39.864H51.5426C51.552 40.2933 51.6546 40.6853 51.8506 41.04C52.0466 41.3947 52.308 41.6793 52.6346 41.894C52.9706 42.0993 53.344 42.202 53.7546 42.202C54.2493 42.202 54.66 42.104 54.9866 41.908C55.3133 41.712 55.584 41.474 55.7986 41.194L56.4706 41.88C56.1813 42.272 55.8126 42.5847 55.3646 42.818C54.9166 43.0513 54.3613 43.168 53.6986 43.168ZM53.6006 36.84C53.162 36.84 52.7933 36.9427 52.4946 37.148C52.196 37.3533 51.9673 37.6147 51.8086 37.932C51.6593 38.2493 51.58 38.5807 51.5706 38.926H55.6166C55.6073 38.5807 55.5233 38.2493 55.3646 37.932C55.2153 37.6147 54.9913 37.3533 54.6926 37.148C54.4033 36.9427 54.0393 36.84 53.6006 36.84ZM58.5982 45.59V36.084H59.6622V37.498H59.7462C59.9049 37.022 60.2035 36.6393 60.6422 36.35C61.0809 36.0607 61.5849 35.916 62.1542 35.916C62.7702 35.916 63.3069 36.0747 63.7642 36.392C64.2215 36.7 64.5762 37.1293 64.8282 37.68C65.0895 38.2307 65.2202 38.856 65.2202 39.556C65.2202 40.256 65.0895 40.8767 64.8282 41.418C64.5762 41.9593 64.2215 42.3887 63.7642 42.706C63.3069 43.014 62.7702 43.168 62.1542 43.168C61.5849 43.168 61.0949 43.0327 60.6842 42.762C60.2735 42.4913 59.9795 42.146 59.8022 41.726H59.7182V45.59H58.5982ZM61.8742 42.16C62.2849 42.16 62.6535 42.0667 62.9802 41.88C63.3162 41.684 63.5822 41.39 63.7782 40.998C63.9742 40.606 64.0722 40.1207 64.0722 39.542C64.0722 38.954 63.9742 38.4687 63.7782 38.086C63.5822 37.694 63.3162 37.4047 62.9802 37.218C62.6535 37.022 62.2849 36.924 61.8742 36.924C61.4822 36.924 61.1229 37.022 60.7962 37.218C60.4695 37.4047 60.2082 37.694 60.0122 38.086C59.8162 38.4687 59.7182 38.954 59.7182 39.542C59.7182 40.1207 59.8162 40.606 60.0122 40.998C60.2082 41.39 60.4695 41.684 60.7962 41.88C61.1229 42.0667 61.4822 42.16 61.8742 42.16ZM69.1481 43.168C68.7374 43.168 68.3967 43.084 68.1261 42.916C67.8554 42.748 67.6547 42.5053 67.5241 42.188C67.4027 41.8707 67.3421 41.4973 67.3421 41.068V36.994H66.1101V36.084H67.3421V34.208H68.4481V36.084H70.4501V36.994H68.4481V40.97C68.4481 41.418 68.5321 41.7307 68.7001 41.908C68.8774 42.0853 69.1014 42.174 69.3721 42.174C69.5587 42.174 69.7267 42.1413 69.8761 42.076C70.0254 42.0013 70.1654 41.9033 70.2961 41.782L70.8001 42.566C70.5854 42.7713 70.3381 42.9207 70.0581 43.014C69.7874 43.1167 69.4841 43.168 69.1481 43.168ZM73.8508 43.168C73.4308 43.168 73.0528 43.0793 72.7168 42.902C72.3901 42.7247 72.1334 42.4773 71.9468 42.16C71.7601 41.8427 71.6668 41.4787 71.6668 41.068C71.6668 40.6667 71.7601 40.3213 71.9468 40.032C72.1428 39.7333 72.4274 39.4953 72.8008 39.318C73.1741 39.1407 73.6221 39.038 74.1448 39.01L75.9648 38.898V38.408C75.9648 38.0533 75.9041 37.7687 75.7828 37.554C75.6708 37.33 75.5028 37.1667 75.2788 37.064C75.0641 36.952 74.7981 36.896 74.4808 36.896C74.0794 36.896 73.7341 36.9707 73.4448 37.12C73.1554 37.2693 72.9314 37.4327 72.7728 37.61L72.1008 36.938C72.3434 36.6393 72.6748 36.3967 73.0948 36.21C73.5148 36.014 73.9861 35.916 74.5088 35.916C75.1434 35.916 75.6474 36.0233 76.0208 36.238C76.3941 36.4527 76.6601 36.742 76.8188 37.106C76.9868 37.4607 77.0708 37.8573 77.0708 38.296V43H76.0208V41.824H75.9368C75.7594 42.2347 75.4981 42.5613 75.1528 42.804C74.8074 43.0467 74.3734 43.168 73.8508 43.168ZM74.0188 42.216C74.5974 42.216 75.0641 42.048 75.4188 41.712C75.7828 41.3667 75.9648 40.9093 75.9648 40.34V39.738L74.2008 39.864C73.7434 39.9013 73.3934 40.018 73.1508 40.214C72.9174 40.41 72.8008 40.6853 72.8008 41.04C72.8008 41.3947 72.9128 41.6793 73.1368 41.894C73.3701 42.1087 73.6641 42.216 74.0188 42.216ZM79.3248 43V36.084H80.3888V37.176H80.4728C80.5848 36.9333 80.7294 36.7187 80.9068 36.532C81.0841 36.336 81.2941 36.1867 81.5368 36.084C81.7794 35.972 82.0548 35.916 82.3628 35.916C83.1561 35.916 83.7814 36.126 84.2388 36.546C84.7054 36.9567 84.9388 37.6333 84.9388 38.576V43H83.8188V38.786C83.8188 38.0767 83.6741 37.5773 83.3848 37.288C83.1048 36.9893 82.6894 36.84 82.1388 36.84C81.6161 36.84 81.2008 37.022 80.8928 37.386C80.5941 37.75 80.4448 38.282 80.4448 38.982V43H79.3248ZM89.8181 43.168C89.0714 43.168 88.4601 42.9953 87.9841 42.65C87.5081 42.3047 87.1581 41.8567 86.9341 41.306C86.7194 40.746 86.6121 40.158 86.6121 39.542C86.6121 38.9167 86.7194 38.3287 86.9341 37.778C87.1488 37.2273 87.4894 36.7793 87.9561 36.434C88.4321 36.0887 89.0434 35.916 89.7901 35.916C90.3688 35.916 90.8448 36.014 91.2181 36.21C91.6008 36.406 91.9228 36.6673 92.1841 36.994L91.4841 37.652C91.2601 37.4093 91.0221 37.2227 90.7701 37.092C90.5274 36.952 90.2101 36.882 89.8181 36.882C89.4168 36.882 89.0574 36.9893 88.7401 37.204C88.4321 37.4187 88.1894 37.7267 88.0121 38.128C87.8441 38.52 87.7601 38.9913 87.7601 39.542C87.7601 40.3633 87.9561 41.012 88.3481 41.488C88.7401 41.964 89.2394 42.202 89.8461 42.202C90.2194 42.202 90.5414 42.1367 90.8121 42.006C91.0828 41.866 91.3348 41.6653 91.5681 41.404L92.2401 42.076C91.9788 42.4027 91.6474 42.6687 91.2461 42.874C90.8541 43.07 90.3781 43.168 89.8181 43.168ZM96.4369 43.168C95.7743 43.168 95.1956 43.0233 94.7009 42.734C94.2156 42.4447 93.8376 42.0293 93.5669 41.488C93.2963 40.9373 93.1609 40.2887 93.1609 39.542C93.1609 38.954 93.2356 38.436 93.3849 37.988C93.5436 37.5307 93.7629 37.1527 94.0429 36.854C94.3323 36.546 94.6683 36.3127 95.0509 36.154C95.4429 35.9953 95.8723 35.916 96.3389 35.916C96.8056 35.916 97.2303 35.9907 97.6129 36.14C98.0049 36.2893 98.3409 36.5133 98.6209 36.812C98.9103 37.1013 99.1343 37.47 99.2929 37.918C99.4516 38.3567 99.5309 38.87 99.5309 39.458C99.5309 39.5327 99.5263 39.6073 99.5169 39.682C99.5169 39.7567 99.5123 39.8173 99.5029 39.864H94.2809C94.2903 40.2933 94.3929 40.6853 94.5889 41.04C94.7849 41.3947 95.0463 41.6793 95.3729 41.894C95.7089 42.0993 96.0823 42.202 96.4929 42.202C96.9876 42.202 97.3983 42.104 97.7249 41.908C98.0516 41.712 98.3223 41.474 98.5369 41.194L99.2089 41.88C98.9196 42.272 98.5509 42.5847 98.1029 42.818C97.6549 43.0513 97.0996 43.168 96.4369 43.168ZM96.3389 36.84C95.9003 36.84 95.5316 36.9427 95.2329 37.148C94.9343 37.3533 94.7056 37.6147 94.5469 37.932C94.3976 38.2493 94.3183 38.5807 94.3089 38.926H98.3549C98.3456 38.5807 98.2616 38.2493 98.1029 37.932C97.9536 37.6147 97.7296 37.3533 97.4309 37.148C97.1416 36.9427 96.7776 36.84 96.3389 36.84ZM107.43 43.168C106.692 43.168 106.076 43.0047 105.582 42.678C105.096 42.3513 104.732 41.9127 104.49 41.362C104.247 40.8113 104.126 40.2047 104.126 39.542C104.126 39.038 104.191 38.5667 104.322 38.128C104.462 37.6893 104.667 37.3067 104.938 36.98C105.218 36.644 105.563 36.3827 105.974 36.196C106.394 36.0093 106.879 35.916 107.43 35.916C108.167 35.916 108.774 36.0793 109.25 36.406C109.735 36.7327 110.094 37.1713 110.328 37.722C110.57 38.2633 110.692 38.87 110.692 39.542C110.692 40.046 110.622 40.5173 110.482 40.956C110.351 41.3947 110.15 41.782 109.88 42.118C109.609 42.4447 109.268 42.7013 108.858 42.888C108.456 43.0747 107.98 43.168 107.43 43.168ZM105.274 39.542C105.274 40.074 105.353 40.5453 105.512 40.956C105.67 41.3573 105.908 41.6747 106.226 41.908C106.543 42.132 106.944 42.244 107.43 42.244C107.906 42.244 108.298 42.132 108.606 41.908C108.923 41.6747 109.156 41.3573 109.306 40.956C109.464 40.5453 109.544 40.074 109.544 39.542C109.544 39.01 109.464 38.5433 109.306 38.142C109.156 37.7313 108.923 37.414 108.606 37.19C108.298 36.9567 107.906 36.84 107.43 36.84C106.944 36.84 106.543 36.9567 106.226 37.19C105.908 37.414 105.67 37.7313 105.512 38.142C105.353 38.5433 105.274 39.01 105.274 39.542ZM112.843 43V36.994H111.611V36.084H112.843V34.866C112.843 34.418 112.917 34.0307 113.067 33.704C113.225 33.3773 113.454 33.1253 113.753 32.948C114.061 32.7707 114.434 32.682 114.873 32.682C115.041 32.682 115.213 32.7007 115.391 32.738C115.568 32.766 115.722 32.8127 115.853 32.878L115.475 33.76C115.409 33.7227 115.321 33.6947 115.209 33.676C115.097 33.648 114.999 33.634 114.915 33.634C114.625 33.634 114.392 33.7367 114.215 33.942C114.047 34.1473 113.963 34.46 113.963 34.88V36.084H115.811V36.994H113.963V43H112.843ZM122.673 43.168C122.263 43.168 121.922 43.084 121.651 42.916C121.381 42.748 121.18 42.5053 121.049 42.188C120.928 41.8707 120.867 41.4973 120.867 41.068V36.994H119.635V36.084H120.867V34.208H121.973V36.084H123.975V36.994H121.973V40.97C121.973 41.418 122.057 41.7307 122.225 41.908C122.403 42.0853 122.627 42.174 122.897 42.174C123.084 42.174 123.252 42.1413 123.401 42.076C123.551 42.0013 123.691 41.9033 123.821 41.782L124.325 42.566C124.111 42.7713 123.863 42.9207 123.583 43.014C123.313 43.1167 123.009 43.168 122.673 43.168ZM128.443 43.168C127.78 43.168 127.201 43.0233 126.707 42.734C126.221 42.4447 125.843 42.0293 125.573 41.488C125.302 40.9373 125.167 40.2887 125.167 39.542C125.167 38.954 125.241 38.436 125.391 37.988C125.549 37.5307 125.769 37.1527 126.049 36.854C126.338 36.546 126.674 36.3127 127.057 36.154C127.449 35.9953 127.878 35.916 128.345 35.916C128.811 35.916 129.236 35.9907 129.619 36.14C130.011 36.2893 130.347 36.5133 130.627 36.812C130.916 37.1013 131.14 37.47 131.299 37.918C131.457 38.3567 131.537 38.87 131.537 39.458C131.537 39.5327 131.532 39.6073 131.523 39.682C131.523 39.7567 131.518 39.8173 131.509 39.864H126.287C126.296 40.2933 126.399 40.6853 126.595 41.04C126.791 41.3947 127.052 41.6793 127.379 41.894C127.715 42.0993 128.088 42.202 128.499 42.202C128.993 42.202 129.404 42.104 129.731 41.908C130.057 41.712 130.328 41.474 130.543 41.194L131.215 41.88C130.925 42.272 130.557 42.5847 130.109 42.818C129.661 43.0513 129.105 43.168 128.443 43.168ZM128.345 36.84C127.906 36.84 127.537 36.9427 127.239 37.148C126.94 37.3533 126.711 37.6147 126.553 37.932C126.403 38.2493 126.324 38.5807 126.315 38.926H130.361C130.351 38.5807 130.267 38.2493 130.109 37.932C129.959 37.6147 129.735 37.3533 129.437 37.148C129.147 36.9427 128.783 36.84 128.345 36.84ZM133.342 43V36.084H134.406V37.204H134.49C134.64 36.84 134.854 36.5367 135.134 36.294C135.424 36.042 135.774 35.916 136.184 35.916C136.352 35.916 136.516 35.9347 136.674 35.972C136.842 36 136.992 36.0513 137.122 36.126L136.744 37.134C136.623 37.0687 136.492 37.0267 136.352 37.008C136.222 36.98 136.086 36.966 135.946 36.966C135.489 36.966 135.125 37.1527 134.854 37.526C134.593 37.89 134.462 38.3567 134.462 38.926V43H133.342ZM138.565 43V36.084H139.629V37.176H139.713C139.881 36.812 140.114 36.5133 140.413 36.28C140.721 36.0373 141.104 35.916 141.561 35.916C142.112 35.916 142.578 36.0187 142.961 36.224C143.344 36.42 143.624 36.7187 143.801 37.12C143.941 36.8587 144.109 36.6393 144.305 36.462C144.501 36.2847 144.734 36.1493 145.005 36.056C145.285 35.9627 145.598 35.916 145.943 35.916C146.456 35.916 146.9 36.0093 147.273 36.196C147.646 36.3733 147.936 36.658 148.141 37.05C148.346 37.442 148.449 37.9507 148.449 38.576V43H147.329V38.786C147.329 38.31 147.264 37.932 147.133 37.652C147.012 37.3627 146.83 37.1573 146.587 37.036C146.354 36.9053 146.06 36.84 145.705 36.84C145.192 36.84 144.79 37.022 144.501 37.386C144.212 37.75 144.067 38.282 144.067 38.982V43H142.947V38.786C142.947 38.31 142.886 37.932 142.765 37.652C142.644 37.3627 142.462 37.1573 142.219 37.036C141.976 36.9053 141.678 36.84 141.323 36.84C140.819 36.84 140.418 37.022 140.119 37.386C139.83 37.75 139.685 38.282 139.685 38.982V43H138.565ZM152.582 43.168C151.984 43.168 151.471 43.0653 151.042 42.86C150.612 42.6547 150.276 42.3887 150.034 42.062L150.776 41.362C150.99 41.614 151.238 41.8193 151.518 41.978C151.807 42.1367 152.166 42.216 152.596 42.216C152.978 42.216 153.314 42.1367 153.604 41.978C153.893 41.81 154.038 41.5533 154.038 41.208C154.038 40.9373 153.954 40.7273 153.786 40.578C153.627 40.4193 153.417 40.2933 153.156 40.2C152.894 40.0973 152.614 40.004 152.316 39.92C151.97 39.8173 151.644 39.6913 151.336 39.542C151.037 39.3833 150.79 39.178 150.594 38.926C150.407 38.6647 150.314 38.3333 150.314 37.932C150.314 37.4933 150.416 37.1247 150.622 36.826C150.836 36.5273 151.121 36.3033 151.476 36.154C151.84 35.9953 152.246 35.916 152.694 35.916C153.188 35.916 153.65 36.0093 154.08 36.196C154.509 36.3733 154.854 36.6533 155.116 37.036L154.388 37.708C154.182 37.4653 153.94 37.2647 153.66 37.106C153.389 36.9473 153.067 36.868 152.694 36.868C152.376 36.868 152.082 36.9473 151.812 37.106C151.541 37.2553 151.406 37.498 151.406 37.834C151.406 38.1047 151.485 38.3193 151.644 38.478C151.812 38.6273 152.026 38.7487 152.288 38.842C152.549 38.9353 152.829 39.0287 153.128 39.122C153.473 39.2247 153.795 39.3553 154.094 39.514C154.402 39.6633 154.649 39.864 154.836 40.116C155.032 40.368 155.13 40.6993 155.13 41.11C155.13 41.586 155.013 41.978 154.78 42.286C154.546 42.5847 154.234 42.8087 153.842 42.958C153.459 43.098 153.039 43.168 152.582 43.168ZM161.952 43.168C161.532 43.168 161.154 43.0793 160.818 42.902C160.492 42.7247 160.235 42.4773 160.048 42.16C159.862 41.8427 159.768 41.4787 159.768 41.068C159.768 40.6667 159.862 40.3213 160.048 40.032C160.244 39.7333 160.529 39.4953 160.902 39.318C161.276 39.1407 161.724 39.038 162.246 39.01L164.066 38.898V38.408C164.066 38.0533 164.006 37.7687 163.884 37.554C163.772 37.33 163.604 37.1667 163.38 37.064C163.166 36.952 162.9 36.896 162.582 36.896C162.181 36.896 161.836 36.9707 161.546 37.12C161.257 37.2693 161.033 37.4327 160.874 37.61L160.202 36.938C160.445 36.6393 160.776 36.3967 161.196 36.21C161.616 36.014 162.088 35.916 162.61 35.916C163.245 35.916 163.749 36.0233 164.122 36.238C164.496 36.4527 164.762 36.742 164.92 37.106C165.088 37.4607 165.172 37.8573 165.172 38.296V43H164.122V41.824H164.038C163.861 42.2347 163.6 42.5613 163.254 42.804C162.909 43.0467 162.475 43.168 161.952 43.168ZM162.12 42.216C162.699 42.216 163.166 42.048 163.52 41.712C163.884 41.3667 164.066 40.9093 164.066 40.34V39.738L162.302 39.864C161.845 39.9013 161.495 40.018 161.252 40.214C161.019 40.41 160.902 40.6853 160.902 41.04C160.902 41.3947 161.014 41.6793 161.238 41.894C161.472 42.1087 161.766 42.216 162.12 42.216ZM167.426 43V36.084H168.49V37.176H168.574C168.686 36.9333 168.831 36.7187 169.008 36.532C169.186 36.336 169.396 36.1867 169.638 36.084C169.881 35.972 170.156 35.916 170.464 35.916C171.258 35.916 171.883 36.126 172.34 36.546C172.807 36.9567 173.04 37.6333 173.04 38.576V43H171.92V38.786C171.92 38.0767 171.776 37.5773 171.486 37.288C171.206 36.9893 170.791 36.84 170.24 36.84C169.718 36.84 169.302 37.022 168.994 37.386C168.696 37.75 168.546 38.282 168.546 38.982V43H167.426ZM177.78 43.168C177.164 43.168 176.627 43.0093 176.17 42.692C175.712 42.3747 175.353 41.9453 175.092 41.404C174.84 40.8533 174.714 40.228 174.714 39.528C174.714 38.828 174.84 38.2073 175.092 37.666C175.353 37.1153 175.712 36.686 176.17 36.378C176.627 36.07 177.164 35.916 177.78 35.916C178.349 35.916 178.839 36.0513 179.25 36.322C179.66 36.5927 179.954 36.938 180.132 37.358H180.216V32.85H181.336V43H180.272V41.586H180.188C180.029 42.062 179.73 42.4447 179.292 42.734C178.853 43.0233 178.349 43.168 177.78 43.168ZM178.06 42.16C178.461 42.16 178.82 42.0667 179.138 41.88C179.464 41.684 179.726 41.39 179.922 40.998C180.118 40.606 180.216 40.1207 180.216 39.542C180.216 38.954 180.118 38.4687 179.922 38.086C179.726 37.694 179.464 37.4047 179.138 37.218C178.82 37.022 178.461 36.924 178.06 36.924C177.649 36.924 177.276 37.022 176.94 37.218C176.613 37.4047 176.352 37.694 176.156 38.086C175.96 38.4687 175.862 38.954 175.862 39.542C175.862 40.1207 175.96 40.606 176.156 40.998C176.352 41.39 176.613 41.684 176.94 41.88C177.276 42.0667 177.649 42.16 178.06 42.16ZM189.705 43.168C188.958 43.168 188.347 42.9953 187.871 42.65C187.395 42.3047 187.045 41.8567 186.821 41.306C186.606 40.746 186.499 40.158 186.499 39.542C186.499 38.9167 186.606 38.3287 186.821 37.778C187.035 37.2273 187.376 36.7793 187.843 36.434C188.319 36.0887 188.93 35.916 189.677 35.916C190.255 35.916 190.731 36.014 191.105 36.21C191.487 36.406 191.809 36.6673 192.071 36.994L191.371 37.652C191.147 37.4093 190.909 37.2227 190.657 37.092C190.414 36.952 190.097 36.882 189.705 36.882C189.303 36.882 188.944 36.9893 188.627 37.204C188.319 37.4187 188.076 37.7267 187.899 38.128C187.731 38.52 187.647 38.9913 187.647 39.542C187.647 40.3633 187.843 41.012 188.235 41.488C188.627 41.964 189.126 42.202 189.733 42.202C190.106 42.202 190.428 42.1367 190.699 42.006C190.969 41.866 191.221 41.6653 191.455 41.404L192.127 42.076C191.865 42.4027 191.534 42.6687 191.133 42.874C190.741 43.07 190.265 43.168 189.705 43.168ZM196.352 43.168C195.614 43.168 194.998 43.0047 194.504 42.678C194.018 42.3513 193.654 41.9127 193.412 41.362C193.169 40.8113 193.048 40.2047 193.048 39.542C193.048 39.038 193.113 38.5667 193.244 38.128C193.384 37.6893 193.589 37.3067 193.86 36.98C194.14 36.644 194.485 36.3827 194.896 36.196C195.316 36.0093 195.801 35.916 196.352 35.916C197.089 35.916 197.696 36.0793 198.172 36.406C198.657 36.7327 199.016 37.1713 199.25 37.722C199.492 38.2633 199.614 38.87 199.614 39.542C199.614 40.046 199.544 40.5173 199.404 40.956C199.273 41.3947 199.072 41.782 198.802 42.118C198.531 42.4447 198.19 42.7013 197.78 42.888C197.378 43.0747 196.902 43.168 196.352 43.168ZM194.196 39.542C194.196 40.074 194.275 40.5453 194.434 40.956C194.592 41.3573 194.83 41.6747 195.148 41.908C195.465 42.132 195.866 42.244 196.352 42.244C196.828 42.244 197.22 42.132 197.528 41.908C197.845 41.6747 198.078 41.3573 198.228 40.956C198.386 40.5453 198.466 40.074 198.466 39.542C198.466 39.01 198.386 38.5433 198.228 38.142C198.078 37.7313 197.845 37.414 197.528 37.19C197.22 36.9567 196.828 36.84 196.352 36.84C195.866 36.84 195.465 36.9567 195.148 37.19C194.83 37.414 194.592 37.7313 194.434 38.142C194.275 38.5433 194.196 39.01 194.196 39.542ZM201.415 43V36.084H202.479V37.176H202.563C202.675 36.9333 202.819 36.7187 202.997 36.532C203.174 36.336 203.384 36.1867 203.627 36.084C203.869 35.972 204.145 35.916 204.453 35.916C205.246 35.916 205.871 36.126 206.329 36.546C206.795 36.9567 207.029 37.6333 207.029 38.576V43H205.909V38.786C205.909 38.0767 205.764 37.5773 205.475 37.288C205.195 36.9893 204.779 36.84 204.229 36.84C203.706 36.84 203.291 37.022 202.983 37.386C202.684 37.75 202.535 38.282 202.535 38.982V43H201.415ZM211.768 43.168C211.152 43.168 210.615 43.0093 210.158 42.692C209.701 42.3747 209.341 41.9453 209.08 41.404C208.828 40.8533 208.702 40.228 208.702 39.528C208.702 38.828 208.828 38.2073 209.08 37.666C209.341 37.1153 209.701 36.686 210.158 36.378C210.615 36.07 211.152 35.916 211.768 35.916C212.337 35.916 212.827 36.0513 213.238 36.322C213.649 36.5927 213.943 36.938 214.12 37.358H214.204V32.85H215.324V43H214.26V41.586H214.176C214.017 42.062 213.719 42.4447 213.28 42.734C212.841 43.0233 212.337 43.168 211.768 43.168ZM212.048 42.16C212.449 42.16 212.809 42.0667 213.126 41.88C213.453 41.684 213.714 41.39 213.91 40.998C214.106 40.606 214.204 40.1207 214.204 39.542C214.204 38.954 214.106 38.4687 213.91 38.086C213.714 37.694 213.453 37.4047 213.126 37.218C212.809 37.022 212.449 36.924 212.048 36.924C211.637 36.924 211.264 37.022 210.928 37.218C210.601 37.4047 210.34 37.694 210.144 38.086C209.948 38.4687 209.85 38.954 209.85 39.542C209.85 40.1207 209.948 40.606 210.144 40.998C210.34 41.39 210.601 41.684 210.928 41.88C211.264 42.0667 211.637 42.16 212.048 42.16ZM217.698 43V36.084H218.818V43H217.698ZM218.258 34.964C218.024 34.964 217.842 34.894 217.712 34.754C217.581 34.614 217.516 34.446 217.516 34.25C217.516 34.0633 217.581 33.9 217.712 33.76C217.842 33.6107 218.024 33.536 218.258 33.536C218.482 33.536 218.659 33.6107 218.79 33.76C218.93 33.9 219 34.0633 219 34.25C219 34.446 218.93 34.614 218.79 34.754C218.659 34.894 218.482 34.964 218.258 34.964ZM223.326 43.168C222.915 43.168 222.574 43.084 222.304 42.916C222.033 42.748 221.832 42.5053 221.702 42.188C221.58 41.8707 221.52 41.4973 221.52 41.068V36.994H220.288V36.084H221.52V34.208H222.626V36.084H224.628V36.994H222.626V40.97C222.626 41.418 222.71 41.7307 222.878 41.908C223.055 42.0853 223.279 42.174 223.55 42.174C223.736 42.174 223.904 42.1413 224.054 42.076C224.203 42.0013 224.343 41.9033 224.474 41.782L224.978 42.566C224.763 42.7713 224.516 42.9207 224.236 43.014C223.965 43.1167 223.662 43.168 223.326 43.168ZM226.503 43V36.084H227.623V43H226.503ZM227.062 34.964C226.829 34.964 226.647 34.894 226.517 34.754C226.386 34.614 226.321 34.446 226.321 34.25C226.321 34.0633 226.386 33.9 226.517 33.76C226.647 33.6107 226.829 33.536 227.062 33.536C227.287 33.536 227.464 33.6107 227.595 33.76C227.735 33.9 227.805 34.0633 227.805 34.25C227.805 34.446 227.735 34.614 227.595 34.754C227.464 34.894 227.287 34.964 227.062 34.964ZM232.733 43.168C231.995 43.168 231.379 43.0047 230.885 42.678C230.399 42.3513 230.035 41.9127 229.793 41.362C229.55 40.8113 229.429 40.2047 229.429 39.542C229.429 39.038 229.494 38.5667 229.625 38.128C229.765 37.6893 229.97 37.3067 230.241 36.98C230.521 36.644 230.866 36.3827 231.277 36.196C231.697 36.0093 232.182 35.916 232.733 35.916C233.47 35.916 234.077 36.0793 234.553 36.406C235.038 36.7327 235.397 37.1713 235.631 37.722C235.873 38.2633 235.995 38.87 235.995 39.542C235.995 40.046 235.925 40.5173 235.785 40.956C235.654 41.3947 235.453 41.782 235.183 42.118C234.912 42.4447 234.571 42.7013 234.161 42.888C233.759 43.0747 233.283 43.168 232.733 43.168ZM230.577 39.542C230.577 40.074 230.656 40.5453 230.815 40.956C230.973 41.3573 231.211 41.6747 231.529 41.908C231.846 42.132 232.247 42.244 232.733 42.244C233.209 42.244 233.601 42.132 233.909 41.908C234.226 41.6747 234.459 41.3573 234.609 40.956C234.767 40.5453 234.847 40.074 234.847 39.542C234.847 39.01 234.767 38.5433 234.609 38.142C234.459 37.7313 234.226 37.414 233.909 37.19C233.601 36.9567 233.209 36.84 232.733 36.84C232.247 36.84 231.846 36.9567 231.529 37.19C231.211 37.414 230.973 37.7313 230.815 38.142C230.656 38.5433 230.577 39.01 230.577 39.542ZM237.795 43V36.084H238.859V37.176H238.943C239.055 36.9333 239.2 36.7187 239.377 36.532C239.555 36.336 239.765 36.1867 240.007 36.084C240.25 35.972 240.525 35.916 240.833 35.916C241.627 35.916 242.252 36.126 242.709 36.546C243.176 36.9567 243.409 37.6333 243.409 38.576V43H242.289V38.786C242.289 38.0767 242.145 37.5773 241.855 37.288C241.575 36.9893 241.16 36.84 240.609 36.84C240.087 36.84 239.671 37.022 239.363 37.386C239.065 37.75 238.915 38.282 238.915 38.982V43H237.795ZM247.533 43.168C246.935 43.168 246.422 43.0653 245.993 42.86C245.563 42.6547 245.227 42.3887 244.985 42.062L245.727 41.362C245.941 41.614 246.189 41.8193 246.469 41.978C246.758 42.1367 247.117 42.216 247.547 42.216C247.929 42.216 248.265 42.1367 248.555 41.978C248.844 41.81 248.989 41.5533 248.989 41.208C248.989 40.9373 248.905 40.7273 248.737 40.578C248.578 40.4193 248.368 40.2933 248.107 40.2C247.845 40.0973 247.565 40.004 247.267 39.92C246.921 39.8173 246.595 39.6913 246.287 39.542C245.988 39.3833 245.741 39.178 245.545 38.926C245.358 38.6647 245.265 38.3333 245.265 37.932C245.265 37.4933 245.367 37.1247 245.573 36.826C245.787 36.5273 246.072 36.3033 246.427 36.154C246.791 35.9953 247.197 35.916 247.645 35.916C248.139 35.916 248.601 36.0093 249.031 36.196C249.46 36.3733 249.805 36.6533 250.067 37.036L249.339 37.708C249.133 37.4653 248.891 37.2647 248.611 37.106C248.34 36.9473 248.018 36.868 247.645 36.868C247.327 36.868 247.033 36.9473 246.763 37.106C246.492 37.2553 246.357 37.498 246.357 37.834C246.357 38.1047 246.436 38.3193 246.595 38.478C246.763 38.6273 246.977 38.7487 247.239 38.842C247.5 38.9353 247.78 39.0287 248.079 39.122C248.424 39.2247 248.746 39.3553 249.045 39.514C249.353 39.6633 249.6 39.864 249.787 40.116C249.983 40.368 250.081 40.6993 250.081 41.11C250.081 41.586 249.964 41.978 249.731 42.286C249.497 42.5847 249.185 42.8087 248.793 42.958C248.41 43.098 247.99 43.168 247.533 43.168ZM255.378 43V36.084H256.498V43H255.378ZM255.938 34.964C255.704 34.964 255.522 34.894 255.392 34.754C255.261 34.614 255.196 34.446 255.196 34.25C255.196 34.0633 255.261 33.9 255.392 33.76C255.522 33.6107 255.704 33.536 255.938 33.536C256.162 33.536 256.339 33.6107 256.47 33.76C256.61 33.9 256.68 34.0633 256.68 34.25C256.68 34.446 256.61 34.614 256.47 34.754C256.339 34.894 256.162 34.964 255.938 34.964ZM260.754 43.168C260.156 43.168 259.643 43.0653 259.214 42.86C258.784 42.6547 258.448 42.3887 258.206 42.062L258.948 41.362C259.162 41.614 259.41 41.8193 259.69 41.978C259.979 42.1367 260.338 42.216 260.768 42.216C261.15 42.216 261.486 42.1367 261.776 41.978C262.065 41.81 262.21 41.5533 262.21 41.208C262.21 40.9373 262.126 40.7273 261.958 40.578C261.799 40.4193 261.589 40.2933 261.328 40.2C261.066 40.0973 260.786 40.004 260.488 39.92C260.142 39.8173 259.816 39.6913 259.508 39.542C259.209 39.3833 258.962 39.178 258.766 38.926C258.579 38.6647 258.486 38.3333 258.486 37.932C258.486 37.4933 258.588 37.1247 258.794 36.826C259.008 36.5273 259.293 36.3033 259.648 36.154C260.012 35.9953 260.418 35.916 260.866 35.916C261.36 35.916 261.822 36.0093 262.252 36.196C262.681 36.3733 263.026 36.6533 263.288 37.036L262.56 37.708C262.354 37.4653 262.112 37.2647 261.832 37.106C261.561 36.9473 261.239 36.868 260.866 36.868C260.548 36.868 260.254 36.9473 259.984 37.106C259.713 37.2553 259.578 37.498 259.578 37.834C259.578 38.1047 259.657 38.3193 259.816 38.478C259.984 38.6273 260.198 38.7487 260.46 38.842C260.721 38.9353 261.001 39.0287 261.3 39.122C261.645 39.2247 261.967 39.3553 262.266 39.514C262.574 39.6633 262.821 39.864 263.008 40.116C263.204 40.368 263.302 40.6993 263.302 41.11C263.302 41.586 263.185 41.978 262.952 42.286C262.718 42.5847 262.406 42.8087 262.014 42.958C261.631 43.098 261.211 43.168 260.754 43.168ZM268.598 43V36.084H269.662V37.204H269.746C269.896 36.84 270.11 36.5367 270.39 36.294C270.68 36.042 271.03 35.916 271.44 35.916C271.608 35.916 271.772 35.9347 271.93 35.972C272.098 36 272.248 36.0513 272.378 36.126L272 37.134C271.879 37.0687 271.748 37.0267 271.608 37.008C271.478 36.98 271.342 36.966 271.202 36.966C270.745 36.966 270.381 37.1527 270.11 37.526C269.849 37.89 269.718 38.3567 269.718 38.926V43H268.598ZM276.181 43.168C275.518 43.168 274.94 43.0233 274.445 42.734C273.96 42.4447 273.582 42.0293 273.311 41.488C273.04 40.9373 272.905 40.2887 272.905 39.542C272.905 38.954 272.98 38.436 273.129 37.988C273.288 37.5307 273.507 37.1527 273.787 36.854C274.076 36.546 274.412 36.3127 274.795 36.154C275.187 35.9953 275.616 35.916 276.083 35.916C276.55 35.916 276.974 35.9907 277.357 36.14C277.749 36.2893 278.085 36.5133 278.365 36.812C278.654 37.1013 278.878 37.47 279.037 37.918C279.196 38.3567 279.275 38.87 279.275 39.458C279.275 39.5327 279.27 39.6073 279.261 39.682C279.261 39.7567 279.256 39.8173 279.247 39.864H274.025C274.034 40.2933 274.137 40.6853 274.333 41.04C274.529 41.3947 274.79 41.6793 275.117 41.894C275.453 42.0993 275.826 42.202 276.237 42.202C276.732 42.202 277.142 42.104 277.469 41.908C277.796 41.712 278.066 41.474 278.281 41.194L278.953 41.88C278.664 42.272 278.295 42.5847 277.847 42.818C277.399 43.0513 276.844 43.168 276.181 43.168ZM276.083 36.84C275.644 36.84 275.276 36.9427 274.977 37.148C274.678 37.3533 274.45 37.6147 274.291 37.932C274.142 38.2493 274.062 38.5807 274.053 38.926H278.099C278.09 38.5807 278.006 38.2493 277.847 37.932C277.698 37.6147 277.474 37.3533 277.175 37.148C276.886 36.9427 276.522 36.84 276.083 36.84ZM286.009 45.59V41.726H285.925C285.747 42.146 285.453 42.4913 285.043 42.762C284.632 43.0327 284.142 43.168 283.573 43.168C282.957 43.168 282.42 43.014 281.963 42.706C281.505 42.3887 281.146 41.9593 280.885 41.418C280.633 40.8767 280.507 40.256 280.507 39.556C280.507 38.856 280.633 38.2307 280.885 37.68C281.146 37.1293 281.505 36.7 281.963 36.392C282.42 36.0747 282.957 35.916 283.573 35.916C284.142 35.916 284.646 36.0607 285.085 36.35C285.523 36.6393 285.822 37.022 285.981 37.498H286.065V36.084H287.129V45.59H286.009ZM283.853 42.16C284.254 42.16 284.613 42.0667 284.931 41.88C285.257 41.684 285.519 41.39 285.715 40.998C285.911 40.606 286.009 40.1207 286.009 39.542C286.009 38.954 285.911 38.4687 285.715 38.086C285.519 37.694 285.257 37.4047 284.931 37.218C284.613 37.022 284.254 36.924 283.853 36.924C283.442 36.924 283.069 37.022 282.733 37.218C282.406 37.4047 282.145 37.694 281.949 38.086C281.753 38.4687 281.655 38.954 281.655 39.542C281.655 40.1207 281.753 40.606 281.949 40.998C282.145 41.39 282.406 41.684 282.733 41.88C283.069 42.0667 283.442 42.16 283.853 42.16ZM291.883 43.168C291.379 43.168 290.935 43.0793 290.553 42.902C290.179 42.7153 289.885 42.426 289.671 42.034C289.465 41.642 289.363 41.1333 289.363 40.508V36.084H290.483V40.298C290.483 40.7647 290.543 41.1427 290.665 41.432C290.795 41.7213 290.982 41.9313 291.225 42.062C291.467 42.1833 291.761 42.244 292.107 42.244C292.611 42.244 293.007 42.062 293.297 41.698C293.595 41.334 293.745 40.802 293.745 40.102V36.084H294.865V43H293.801V41.908H293.717C293.549 42.272 293.315 42.5753 293.017 42.818C292.727 43.0513 292.349 43.168 291.883 43.168ZM297.241 43V36.084H298.361V43H297.241ZM297.801 34.964C297.567 34.964 297.385 34.894 297.255 34.754C297.124 34.614 297.059 34.446 297.059 34.25C297.059 34.0633 297.124 33.9 297.255 33.76C297.385 33.6107 297.567 33.536 297.801 33.536C298.025 33.536 298.202 33.6107 298.333 33.76C298.473 33.9 298.543 34.0633 298.543 34.25C298.543 34.446 298.473 34.614 298.333 34.754C298.202 34.894 298.025 34.964 297.801 34.964ZM300.741 43V36.084H301.805V37.204H301.889C302.038 36.84 302.253 36.5367 302.533 36.294C302.822 36.042 303.172 35.916 303.583 35.916C303.751 35.916 303.914 35.9347 304.073 35.972C304.241 36 304.39 36.0513 304.521 36.126L304.143 37.134C304.021 37.0687 303.891 37.0267 303.751 37.008C303.62 36.98 303.485 36.966 303.345 36.966C302.887 36.966 302.523 37.1527 302.253 37.526C301.991 37.89 301.861 38.3567 301.861 38.926V43H300.741ZM308.324 43.168C307.661 43.168 307.082 43.0233 306.588 42.734C306.102 42.4447 305.724 42.0293 305.454 41.488C305.183 40.9373 305.048 40.2887 305.048 39.542C305.048 38.954 305.122 38.436 305.272 37.988C305.43 37.5307 305.65 37.1527 305.93 36.854C306.219 36.546 306.555 36.3127 306.938 36.154C307.33 35.9953 307.759 35.916 308.226 35.916C308.692 35.916 309.117 35.9907 309.5 36.14C309.892 36.2893 310.228 36.5133 310.508 36.812C310.797 37.1013 311.021 37.47 311.18 37.918C311.338 38.3567 311.418 38.87 311.418 39.458C311.418 39.5327 311.413 39.6073 311.404 39.682C311.404 39.7567 311.399 39.8173 311.39 39.864H306.168C306.177 40.2933 306.28 40.6853 306.476 41.04C306.672 41.3947 306.933 41.6793 307.26 41.894C307.596 42.0993 307.969 42.202 308.38 42.202C308.874 42.202 309.285 42.104 309.612 41.908C309.938 41.712 310.209 41.474 310.424 41.194L311.096 41.88C310.806 42.272 310.438 42.5847 309.99 42.818C309.542 43.0513 308.986 43.168 308.324 43.168ZM308.226 36.84C307.787 36.84 307.418 36.9427 307.12 37.148C306.821 37.3533 306.592 37.6147 306.434 37.932C306.284 38.2493 306.205 38.5807 306.196 38.926H310.242C310.232 38.5807 310.148 38.2493 309.99 37.932C309.84 37.6147 309.616 37.3533 309.318 37.148C309.028 36.9427 308.664 36.84 308.226 36.84ZM315.715 43.168C315.099 43.168 314.563 43.0093 314.105 42.692C313.648 42.3747 313.289 41.9453 313.027 41.404C312.775 40.8533 312.649 40.228 312.649 39.528C312.649 38.828 312.775 38.2073 313.027 37.666C313.289 37.1153 313.648 36.686 314.105 36.378C314.563 36.07 315.099 35.916 315.715 35.916C316.285 35.916 316.775 36.0513 317.185 36.322C317.596 36.5927 317.89 36.938 318.067 37.358H318.151V32.85H319.271V43H318.207V41.586H318.123C317.965 42.062 317.666 42.4447 317.227 42.734C316.789 43.0233 316.285 43.168 315.715 43.168ZM315.995 42.16C316.397 42.16 316.756 42.0667 317.073 41.88C317.4 41.684 317.661 41.39 317.857 40.998C318.053 40.606 318.151 40.1207 318.151 39.542C318.151 38.954 318.053 38.4687 317.857 38.086C317.661 37.694 317.4 37.4047 317.073 37.218C316.756 37.022 316.397 36.924 315.995 36.924C315.585 36.924 315.211 37.022 314.875 37.218C314.549 37.4047 314.287 37.694 314.091 38.086C313.895 38.4687 313.797 38.954 313.797 39.542C313.797 40.1207 313.895 40.606 314.091 40.998C314.287 41.39 314.549 41.684 314.875 41.88C315.211 42.0667 315.585 42.16 315.995 42.16Z" fill="#CC0300"/>
<defs>
<clipPath id="clip0_22539_4321">
<rect width="17.5" height="17.5" fill="white" transform="translate(1.25 29.25)"/>
</clipPath>
</defs>
</svg>
