<svg width="147" height="92" viewBox="0 0 147 92" fill="none" xmlns="http://www.w3.org/2000/svg">
<g clip-path="url(#clip0_22539_4951)">
<g clip-path="url(#clip1_22539_4951)">
<path d="M15.8526 6.908H22.3766V8.392H21.2986V15H19.4506V8.392H15.8526V6.908ZM23.2416 13.516H24.7816L23.1436 6.908H25.0756L26.6996 13.474C26.9236 13.4367 27.1196 13.3527 27.2876 13.222C27.465 13.0913 27.6096 12.8907 27.7216 12.62C27.843 12.3493 27.9316 11.9947 27.9876 11.556C28.0436 11.108 28.0716 10.5527 28.0716 9.89V6.908H29.9196V9.946C29.9196 10.898 29.8403 11.7007 29.6816 12.354C29.5323 12.998 29.3036 13.516 28.9956 13.908C28.697 14.3 28.319 14.58 27.8616 14.748C27.4136 14.916 26.8863 15 26.2796 15H23.2416V13.516ZM36.001 15.168C35.8797 15.168 35.7537 15.1633 35.623 15.154C35.4923 15.154 35.3617 15.1493 35.231 15.14C35.1097 15.1307 34.9977 15.1213 34.895 15.112C34.8017 15.1027 34.727 15.0933 34.671 15.084V13.614C34.839 13.6327 35.0023 13.6513 35.161 13.67C35.329 13.6793 35.4783 13.684 35.609 13.684C36.0663 13.684 36.295 13.3853 36.295 12.788V8.392H34.671V6.908H42.707V15H40.845V8.392H38.157V12.816C38.157 13.1613 38.1103 13.4787 38.017 13.768C37.9237 14.048 37.7837 14.2953 37.597 14.51C37.4197 14.7153 37.1957 14.8787 36.925 15C36.6543 15.112 36.3463 15.168 36.001 15.168ZM44.6616 6.908H46.5236V15H44.6616V6.908ZM48.0698 13.516H49.6098L47.9718 6.908H49.9038L51.5278 13.474C51.7518 13.4367 51.9478 13.3527 52.1158 13.222C52.2931 13.0913 52.4378 12.8907 52.5498 12.62C52.6711 12.3493 52.7598 11.9947 52.8158 11.556C52.8718 11.108 52.8998 10.5527 52.8998 9.89V6.908H54.7478V9.946C54.7478 10.898 54.6684 11.7007 54.5098 12.354C54.3604 12.998 54.1318 13.516 53.8238 13.908C53.5251 14.3 53.1471 14.58 52.6898 14.748C52.2418 14.916 51.7144 15 51.1078 15H48.0698V13.516ZM56.2758 13.516H60.1398L56.0518 6.908H58.1938L60.2938 10.45C60.5925 10.2913 60.8305 10.0393 61.0078 9.694C61.1945 9.33933 61.2878 8.91 61.2878 8.406V6.908H63.1358V8.322C63.1358 9.106 62.9678 9.806 62.6318 10.422C62.3052 11.038 61.8525 11.4907 61.2738 11.78L63.3318 15H56.2758V13.516ZM70.0467 9.834C70.0467 9.386 69.9254 9.036 69.6827 8.784C69.44 8.52267 69.1367 8.392 68.7727 8.392H64.9367V6.908H68.9127C69.3514 6.908 69.7527 6.978 70.1167 7.118C70.4807 7.258 70.7934 7.45867 71.0547 7.72C71.3254 7.972 71.5307 8.28 71.6707 8.644C71.82 8.99867 71.8947 9.39533 71.8947 9.834V15H70.0467V9.834ZM64.9367 10.38H66.7847V15H64.9367V10.38ZM73.7417 6.908H75.6037V15H73.7417V6.908ZM81.8291 15.168C81.7078 15.168 81.5818 15.1633 81.4511 15.154C81.3205 15.154 81.1898 15.1493 81.0591 15.14C80.9378 15.1307 80.8258 15.1213 80.7231 15.112C80.6298 15.1027 80.5551 15.0933 80.4991 15.084V13.614C80.6671 13.6327 80.8305 13.6513 80.9891 13.67C81.1571 13.6793 81.3065 13.684 81.4371 13.684C81.8945 13.684 82.1231 13.3853 82.1231 12.788V8.392H80.4991V6.908H88.5351V15H86.6731V8.392H83.9851V12.816C83.9851 13.1613 83.9385 13.4787 83.8451 13.768C83.7518 14.048 83.6118 14.2953 83.4251 14.51C83.2478 14.7153 83.0238 14.8787 82.7531 15C82.4825 15.112 82.1745 15.168 81.8291 15.168ZM90.4898 6.908H92.3518V15H90.4898V6.908ZM98.6159 15.168C97.8599 15.168 97.2019 15.0327 96.6419 14.762C96.0912 14.482 95.6292 14.1227 95.2559 13.684C94.8919 13.2453 94.6166 12.7553 94.4299 12.214C94.2526 11.6633 94.1639 11.1127 94.1639 10.562V6.908H96.0119V10.562C96.0119 11.0287 96.0772 11.4487 96.2079 11.822C96.3386 12.1953 96.5206 12.5173 96.7539 12.788C96.9872 13.0493 97.2626 13.2547 97.5799 13.404C97.8972 13.544 98.2426 13.614 98.6159 13.614C98.9892 13.614 99.3346 13.544 99.6519 13.404C99.9692 13.2547 100.245 13.0493 100.478 12.788C100.711 12.5173 100.893 12.1953 101.024 11.822C101.155 11.4487 101.22 11.0287 101.22 10.562V6.908H103.082V10.562C103.082 11.1127 102.989 11.6633 102.802 12.214C102.625 12.7553 102.349 13.2453 101.976 13.684C101.603 14.1227 101.136 14.482 100.576 14.762C100.025 15.0327 99.3719 15.168 98.6159 15.168ZM97.6919 6.908H99.5399V12.144H97.6919V6.908ZM104.187 6.908H110.711V8.392H109.633V15H107.785V8.392H104.187V6.908ZM111.982 6.908H116.098C116.536 6.908 116.938 6.978 117.302 7.118C117.666 7.258 117.978 7.45867 118.24 7.72C118.51 7.972 118.72 8.28 118.87 8.644C119.019 8.99867 119.094 9.39533 119.094 9.834V15H117.232V9.834C117.232 9.386 117.11 9.036 116.868 8.784C116.625 8.52267 116.322 8.392 115.958 8.392H113.83V15H111.982V6.908ZM128.081 8.392H123.601V5.13H125.449V6.908H130.055V8.196L127.325 15H125.449L128.081 8.392ZM131.058 13.516H135.048V10.394C135.048 9.694 134.917 9.18533 134.656 8.868C134.394 8.55067 133.96 8.392 133.354 8.392H131.058V6.908H133.55C135.78 6.908 136.896 8.07 136.896 10.394V13.516H137.988V15H131.058V13.516ZM144.531 8.392H139.407V6.908H146.533V8.196L144.447 15H142.487L144.531 8.392ZM139.407 10.366H141.255V17.59H139.407V10.366Z" fill="black" fill-opacity="0.76"/>
</g>
</g>
<path d="M81.4434 41.904H76.2914V38.72H77.6354V40.752H82.9314V41.84L79.8434 50H78.3554L81.4434 41.904ZM85.0159 40.752H86.3759V46.88H85.0159V40.752ZM89.0628 40.752H90.4228V46.88H89.0628V40.752ZM93.0776 43.6L92.8216 40.752H94.0216L94.1496 42.048H94.1656C94.411 41.5787 94.7683 41.216 95.2376 40.96C95.7176 40.6933 96.2936 40.56 96.9656 40.56C97.5096 40.56 97.995 40.656 98.4216 40.848C98.8483 41.0293 99.2056 41.2853 99.4936 41.616C99.7923 41.936 100.016 42.3253 100.166 42.784C100.315 43.2427 100.39 43.744 100.39 44.288V50H96.6616V48.848H99.0456V44.608C99.0456 44.192 98.9976 43.808 98.9016 43.456C98.8163 43.104 98.683 42.8 98.5016 42.544C98.3203 42.2773 98.0803 42.0693 97.7816 41.92C97.4936 41.7707 97.1523 41.696 96.7576 41.696C96.363 41.696 96.0216 41.7707 95.7336 41.92C95.4456 42.0693 95.2056 42.2773 95.0136 42.544C94.8216 42.8 94.6776 43.104 94.5816 43.456C94.4856 43.808 94.4376 44.192 94.4376 44.608V50H93.0776V43.6ZM102.985 40.752H104.345V46.88H102.985V40.752ZM106.696 48.096C106.696 47.6907 106.744 47.2907 106.84 46.896C106.936 46.5013 107.074 46.1387 107.256 45.808C107.437 45.4667 107.661 45.1627 107.928 44.896C108.194 44.6187 108.498 44.4 108.84 44.24L106.6 40.752H108.088L110.808 45.024C111.352 44.8747 111.794 44.544 112.136 44.032C112.477 43.5093 112.648 42.848 112.648 42.048V40.752H114.008V42.016C114.008 42.464 113.949 42.896 113.832 43.312C113.725 43.728 113.565 44.1173 113.352 44.48C113.149 44.832 112.893 45.1467 112.584 45.424C112.285 45.6907 111.944 45.8933 111.56 46.032L114.088 50H112.616L109.56 45.216C109.101 45.4293 108.733 45.7867 108.456 46.288C108.178 46.7787 108.039 47.3813 108.039 48.096V50H106.696V48.096Z" fill="black" fill-opacity="0.76"/>
<rect x="124" y="33" width="22" height="22" rx="2" fill="#F36805"/>
<path d="M132.331 49.611C132.126 49.6088 131.923 49.565 131.735 49.4823C131.547 49.3996 131.378 49.2797 131.237 49.1297L127.344 44.8204L128.569 43.7266L132.353 47.9375L141.42 38.1594L142.623 39.2532L133.436 49.0969C133.296 49.2469 133.126 49.3668 132.938 49.4495C132.75 49.5322 132.548 49.576 132.342 49.5782L132.331 49.611Z" fill="white" fill-opacity="0.9"/>
<path d="M34.9485 86.176C34.1912 86.176 33.5458 86.032 33.0125 85.744C32.4792 85.4453 32.0418 85.0667 31.7005 84.608C31.3698 84.1387 31.1245 83.6213 30.9645 83.056C30.8152 82.48 30.7405 81.9147 30.7405 81.36V76.752H32.1005V81.36C32.1005 81.8827 32.1645 82.368 32.2925 82.816C32.4205 83.264 32.6072 83.6533 32.8525 83.984C33.0978 84.304 33.3965 84.5547 33.7485 84.736C34.1005 84.9173 34.5058 85.008 34.9645 85.008C35.8285 85.008 36.5005 84.6667 36.9805 83.984C37.4712 83.3013 37.7165 82.2507 37.7165 80.832C37.7165 80.192 37.6632 79.6693 37.5565 79.264C37.4498 78.8587 37.3058 78.544 37.1245 78.32C36.9432 78.0853 36.7298 77.9307 36.4845 77.856C36.2392 77.7707 35.9725 77.728 35.6845 77.728C35.4712 77.728 35.2632 77.7493 35.0605 77.792C34.8578 77.824 34.6712 77.8827 34.5005 77.968V76.752C34.8312 76.624 35.2312 76.56 35.7005 76.56C36.1805 76.56 36.6232 76.6347 37.0285 76.784C37.4445 76.9333 37.8018 77.1787 38.1005 77.52C38.4098 77.8507 38.6498 78.2933 38.8205 78.848C39.0018 79.392 39.0925 80.064 39.0925 80.864C39.0925 81.6533 39.0072 82.3733 38.8365 83.024C38.6765 83.6747 38.4205 84.2347 38.0685 84.704C37.7272 85.1627 37.2952 85.5253 36.7725 85.792C36.2605 86.048 35.6525 86.176 34.9485 86.176ZM44.9798 86.192C44.2331 86.192 43.5824 86.048 43.0278 85.76C42.4731 85.4613 42.0144 85.0827 41.6518 84.624C41.2891 84.1547 41.0171 83.6373 40.8358 83.072C40.6651 82.496 40.5798 81.9253 40.5798 81.36C40.5798 80.8053 40.6651 80.2453 40.8358 79.68C41.0171 79.104 41.2891 78.5867 41.6518 78.128C42.0144 77.6587 42.4731 77.28 43.0278 76.992C43.5824 76.704 44.2331 76.56 44.9798 76.56C45.7264 76.56 46.3718 76.704 46.9158 76.992C47.4704 77.28 47.9291 77.6587 48.2917 78.128C48.6544 78.5867 48.9211 79.104 49.0918 79.68C49.2731 80.2453 49.3638 80.8053 49.3638 81.36C49.3638 81.9253 49.2731 82.496 49.0918 83.072C48.9211 83.6373 48.6544 84.1547 48.2917 84.624C47.9291 85.0827 47.4704 85.4613 46.9158 85.76C46.3718 86.048 45.7264 86.192 44.9798 86.192ZM44.9798 85.008C45.4171 85.008 45.8171 84.9173 46.1798 84.736C46.5531 84.5547 46.8731 84.304 47.1398 83.984C47.4064 83.6533 47.6144 83.264 47.7638 82.816C47.9131 82.368 47.9878 81.8827 47.9878 81.36C47.9878 80.848 47.9131 80.3733 47.7638 79.936C47.6144 79.488 47.4064 79.104 47.1398 78.784C46.8731 78.4533 46.5531 78.1973 46.1798 78.016C45.8171 77.824 45.4171 77.728 44.9798 77.728C44.5424 77.728 44.1371 77.824 43.7638 78.016C43.4011 78.1973 43.0864 78.4533 42.8198 78.784C42.5531 79.104 42.3451 79.488 42.1957 79.936C42.0464 80.3733 41.9718 80.848 41.9718 81.36C41.9718 81.8827 42.0464 82.368 42.1957 82.816C42.3451 83.264 42.5531 83.6533 42.8198 83.984C43.0864 84.304 43.4011 84.5547 43.7638 84.736C44.1371 84.9173 44.5424 85.008 44.9798 85.008ZM57.5338 77.904H51.5178V76.752H59.0218V77.84L56.3818 86H54.8938L57.5338 77.904ZM51.5178 80.544H52.8778V88.96H51.5178V80.544ZM64.886 86.176C64.1287 86.176 63.4833 86.032 62.95 85.744C62.4167 85.4453 61.9793 85.0667 61.638 84.608C61.3073 84.1387 61.062 83.6213 60.902 83.056C60.7527 82.48 60.678 81.9147 60.678 81.36V76.752H62.038V81.36C62.038 81.8827 62.102 82.368 62.23 82.816C62.358 83.264 62.5447 83.6533 62.79 83.984C63.0353 84.304 63.334 84.5547 63.686 84.736C64.038 84.9173 64.4433 85.008 64.902 85.008C65.766 85.008 66.438 84.6667 66.918 83.984C67.4087 83.3013 67.654 82.2507 67.654 80.832C67.654 80.192 67.6007 79.6693 67.494 79.264C67.3873 78.8587 67.2433 78.544 67.062 78.32C66.8807 78.0853 66.6673 77.9307 66.422 77.856C66.1767 77.7707 65.91 77.728 65.622 77.728C65.4087 77.728 65.2007 77.7493 64.998 77.792C64.7953 77.824 64.6087 77.8827 64.438 77.968V76.752C64.7687 76.624 65.1687 76.56 65.638 76.56C66.118 76.56 66.5607 76.6347 66.966 76.784C67.382 76.9333 67.7393 77.1787 68.038 77.52C68.3473 77.8507 68.5873 78.2933 68.758 78.848C68.9393 79.392 69.03 80.064 69.03 80.864C69.03 81.6533 68.9447 82.3733 68.774 83.024C68.614 83.6747 68.358 84.2347 68.006 84.704C67.6647 85.1627 67.2327 85.5253 66.71 85.792C66.198 86.048 65.59 86.176 64.886 86.176ZM75.817 86.192C75.5397 86.192 75.2837 86.1813 75.049 86.16C74.8143 86.1493 74.633 86.1387 74.505 86.128V84.96C74.6543 84.9813 74.841 85.0027 75.065 85.024C75.289 85.0347 75.449 85.04 75.545 85.04C75.8437 85.04 76.0677 84.9493 76.217 84.768C76.3663 84.5867 76.441 84.2613 76.441 83.792V77.904H74.505V76.752H83.065V86H81.721V77.904H77.801V84C77.801 84.256 77.7637 84.5173 77.689 84.784C77.6143 85.04 77.497 85.2747 77.337 85.488C77.177 85.6907 76.969 85.8613 76.713 86C76.4677 86.128 76.169 86.192 75.817 86.192ZM85.3164 84.848H86.9964L85.3164 76.752H86.7244L88.4044 84.864C88.8204 84.8853 89.1777 84.8373 89.4764 84.72C89.7857 84.592 90.0417 84.336 90.2444 83.952C90.447 83.5573 90.5964 82.9973 90.6924 82.272C90.799 81.536 90.8524 80.576 90.8524 79.392V76.752H92.2124V79.472C92.2124 80.88 92.1324 82.0107 91.9724 82.864C91.8124 83.7173 91.5724 84.3787 91.2524 84.848C90.9324 85.3067 90.5377 85.616 90.0684 85.776C89.599 85.9253 89.055 86 88.4364 86H85.3164V84.848ZM93.5726 76.752H100.453V77.904H99.1246V86H97.7806V77.904H93.5726V76.752ZM102.362 76.752H103.722V86H102.362V76.752ZM112.405 79.904C112.405 79.264 112.255 78.7733 111.957 78.432C111.658 78.08 111.221 77.904 110.645 77.904H106.565V76.752H110.645C111.594 76.752 112.346 77.0187 112.901 77.552C113.466 78.0853 113.749 78.8693 113.749 79.904V86H112.405V79.904ZM106.565 80.56H107.925V86H106.565V80.56Z" fill="black" fill-opacity="0.76"/>
<rect x="124" y="69" width="22" height="22" rx="2" fill="#F36805"/>
<path d="M132.331 85.611C132.126 85.6088 131.923 85.565 131.735 85.4823C131.547 85.3996 131.378 85.2797 131.237 85.1297L127.344 80.8204L128.569 79.7266L132.353 83.9375L141.42 74.1594L142.623 75.2532L133.436 85.0969C133.296 85.2469 133.126 85.3668 132.938 85.4495C132.75 85.5322 132.548 85.576 132.342 85.5782L132.331 85.611Z" fill="white" fill-opacity="0.9"/>
<defs>
<clipPath id="clip0_22539_4951">
<rect width="147" height="24" fill="white"/>
</clipPath>
<clipPath id="clip1_22539_4951">
<rect width="147" height="20" fill="white"/>
</clipPath>
</defs>
</svg>
