<svg width="520" height="176" viewBox="0 0 520 176" fill="none" xmlns="http://www.w3.org/2000/svg">
<rect width="360" height="76" transform="translate(80 100)" fill="white"/>
<path d="M96 138C96 126.954 104.954 118 116 118C127.046 118 136 126.954 136 138C136 149.046 127.046 158 116 158C104.954 158 96 149.046 96 138Z" fill="#EFEDEA"/>
<path d="M96 138C96 126.954 104.954 118 116 118C127.046 118 136 126.954 136 138C136 149.046 127.046 158 116 158C104.954 158 96 149.046 96 138Z" fill="white" fill-opacity="0.01"/>
<path d="M110.066 133.6H111.842L115.586 144H114.13L113.314 141.712H108.53L107.714 144H106.338L110.066 133.6ZM108.93 140.56H112.914L110.962 134.736H110.866L108.93 140.56ZM120.144 133.6H121.92L125.664 144H124.208L123.392 141.712H118.608L117.792 144H116.416L120.144 133.6ZM119.008 140.56H122.992L121.04 134.736H120.944L119.008 140.56Z" fill="#242E30"/>
<path d="M149.472 123.6H152.72C153.787 123.6 154.603 123.899 155.168 124.496C155.744 125.083 156.032 125.883 156.032 126.896C156.032 127.92 155.739 128.731 155.152 129.328C154.565 129.915 153.755 130.208 152.72 130.208H150.832V134H149.472V123.6ZM152.624 129.072C153.296 129.072 153.797 128.88 154.128 128.496C154.469 128.101 154.64 127.568 154.64 126.896C154.64 126.224 154.469 125.696 154.128 125.312C153.797 124.928 153.296 124.736 152.624 124.736H150.832V129.072H152.624ZM158.032 126.096H159.248V127.376H159.344C159.515 126.96 159.76 126.613 160.08 126.336C160.4 126.048 160.8 125.904 161.28 125.904C161.685 125.904 162.043 125.984 162.352 126.144L161.92 127.296C161.781 127.221 161.632 127.173 161.472 127.152C161.323 127.12 161.168 127.104 161.008 127.104C160.485 127.104 160.069 127.317 159.76 127.744C159.461 128.16 159.312 128.693 159.312 129.344V134H158.032V126.096ZM165.489 124C165.489 124.224 165.409 124.416 165.249 124.576C165.099 124.736 164.897 124.816 164.641 124.816C164.374 124.816 164.166 124.736 164.017 124.576C163.867 124.416 163.793 124.224 163.793 124C163.793 123.787 163.867 123.6 164.017 123.44C164.166 123.269 164.374 123.184 164.641 123.184C164.897 123.184 165.099 123.269 165.249 123.44C165.409 123.6 165.489 123.787 165.489 124ZM164.001 126.096H165.281V134H164.001V126.096ZM168.001 126.096H169.217V127.344H169.313C169.505 126.928 169.771 126.587 170.113 126.32C170.465 126.043 170.902 125.904 171.425 125.904C172.054 125.904 172.582 126.021 173.009 126.256C173.446 126.48 173.771 126.821 173.985 127.28C174.219 126.832 174.534 126.491 174.929 126.256C175.323 126.021 175.825 125.904 176.433 125.904C176.87 125.904 177.265 125.963 177.617 126.08C177.969 126.197 178.267 126.379 178.513 126.624C178.769 126.869 178.961 127.184 179.089 127.568C179.227 127.952 179.297 128.411 179.297 128.944V134H178.017V129.184C178.017 128.373 177.857 127.803 177.537 127.472C177.227 127.131 176.769 126.96 176.161 126.96C175.574 126.96 175.115 127.168 174.785 127.584C174.454 128 174.289 128.608 174.289 129.408V134H173.009V129.184C173.009 128.373 172.849 127.803 172.529 127.472C172.219 127.131 171.761 126.96 171.153 126.96C170.577 126.96 170.118 127.168 169.777 127.584C169.446 128 169.281 128.608 169.281 129.408V134H168.001V126.096ZM183.62 134.192C183.257 134.192 182.921 134.133 182.612 134.016C182.313 133.899 182.052 133.733 181.828 133.52C181.604 133.307 181.428 133.056 181.3 132.768C181.182 132.469 181.124 132.144 181.124 131.792C181.124 131.109 181.369 130.56 181.86 130.144C182.35 129.728 183.049 129.493 183.956 129.44L186.036 129.312V128.752C186.036 128.144 185.886 127.707 185.588 127.44C185.3 127.163 184.884 127.024 184.34 127.024C183.881 127.024 183.486 127.109 183.156 127.28C182.825 127.451 182.569 127.637 182.388 127.84L181.62 127.072C181.897 126.731 182.27 126.453 182.74 126.24C183.22 126.016 183.764 125.904 184.372 125.904C184.916 125.904 185.374 125.979 185.748 126.128C186.121 126.267 186.42 126.459 186.644 126.704C186.878 126.949 187.044 127.237 187.14 127.568C187.246 127.899 187.3 128.251 187.3 128.624V134H186.1V132.656H186.004C185.79 133.136 185.492 133.515 185.108 133.792C184.724 134.059 184.228 134.192 183.62 134.192ZM183.812 133.104C184.473 133.104 185.006 132.912 185.412 132.528C185.828 132.133 186.036 131.611 186.036 130.96V130.272L184.02 130.416C182.953 130.501 182.42 130.949 182.42 131.76C182.42 132.165 182.548 132.491 182.804 132.736C183.07 132.981 183.406 133.104 183.812 133.104ZM189.876 126.096H191.092V127.376H191.188C191.358 126.96 191.604 126.613 191.924 126.336C192.244 126.048 192.644 125.904 193.124 125.904C193.529 125.904 193.886 125.984 194.196 126.144L193.764 127.296C193.625 127.221 193.476 127.173 193.316 127.152C193.166 127.12 193.012 127.104 192.852 127.104C192.329 127.104 191.913 127.317 191.604 127.744C191.305 128.16 191.156 128.693 191.156 129.344V134H189.876V126.096ZM196.34 137.024C196.223 137.024 196.1 137.013 195.972 136.992C195.855 136.981 195.754 136.965 195.668 136.944V135.84C195.722 135.851 195.807 135.861 195.924 135.872C196.052 135.883 196.17 135.888 196.276 135.888C196.49 135.888 196.671 135.872 196.82 135.84C196.97 135.808 197.103 135.733 197.22 135.616C197.348 135.509 197.471 135.344 197.588 135.12C197.706 134.907 197.834 134.619 197.972 134.256L194.804 126.096H196.196L198.58 132.72H198.676L201.076 126.096H202.372L199.268 134.08C199.066 134.603 198.868 135.045 198.676 135.408C198.495 135.781 198.292 136.085 198.068 136.32C197.844 136.565 197.594 136.741 197.316 136.848C197.05 136.965 196.724 137.024 196.34 137.024ZM210.323 134.192C209.609 134.192 209.086 133.979 208.755 133.552C208.425 133.125 208.259 132.539 208.259 131.792V127.136H206.851V126.096H208.259V123.952H209.523V126.096H211.811V127.136H209.523V131.68C209.523 132.192 209.619 132.549 209.811 132.752C210.014 132.955 210.27 133.056 210.579 133.056C210.793 133.056 210.985 133.019 211.155 132.944C211.326 132.859 211.486 132.747 211.635 132.608L212.211 133.504C211.721 133.963 211.091 134.192 210.323 134.192ZM216.917 134.192C216.351 134.192 215.834 134.096 215.365 133.904C214.906 133.712 214.511 133.44 214.181 133.088C213.861 132.725 213.61 132.288 213.429 131.776C213.258 131.264 213.173 130.688 213.173 130.048C213.173 129.376 213.263 128.784 213.445 128.272C213.626 127.749 213.877 127.317 214.197 126.976C214.517 126.624 214.895 126.357 215.333 126.176C215.781 125.995 216.271 125.904 216.805 125.904C217.338 125.904 217.829 125.989 218.277 126.16C218.725 126.331 219.109 126.587 219.429 126.928C219.749 127.259 219.999 127.68 220.181 128.192C220.362 128.693 220.453 129.28 220.453 129.952C220.453 130.037 220.447 130.123 220.437 130.208C220.437 130.293 220.431 130.363 220.421 130.416H214.453C214.453 130.789 214.517 131.141 214.645 131.472C214.783 131.792 214.965 132.075 215.189 132.32C215.423 132.555 215.69 132.741 215.989 132.88C216.298 133.019 216.629 133.088 216.981 133.088C217.557 133.088 218.026 132.976 218.389 132.752C218.762 132.528 219.071 132.256 219.317 131.936L220.085 132.72C219.743 133.168 219.317 133.525 218.805 133.792C218.303 134.059 217.674 134.192 216.917 134.192ZM216.805 126.96C216.431 126.96 216.101 127.029 215.813 127.168C215.525 127.307 215.285 127.488 215.093 127.712C214.901 127.936 214.751 128.192 214.645 128.48C214.549 128.768 214.495 129.056 214.485 129.344H219.109C219.098 129.056 219.039 128.768 218.933 128.48C218.837 128.192 218.693 127.936 218.501 127.712C218.309 127.488 218.069 127.307 217.781 127.168C217.503 127.029 217.178 126.96 216.805 126.96ZM224.171 129.984L221.531 126.096H223.067L224.939 129.056H225.003L226.939 126.096H228.315L225.675 129.92L228.443 134H226.907L224.907 130.848H224.843L222.779 134H221.403L224.171 129.984ZM232.761 134.192C232.046 134.192 231.523 133.979 231.193 133.552C230.862 133.125 230.697 132.539 230.697 131.792V127.136H229.289V126.096H230.697V123.952H231.961V126.096H234.249V127.136H231.961V131.68C231.961 132.192 232.057 132.549 232.249 132.752C232.451 132.955 232.707 133.056 233.017 133.056C233.23 133.056 233.422 133.019 233.593 132.944C233.763 132.859 233.923 132.747 234.073 132.608L234.649 133.504C234.158 133.963 233.529 134.192 232.761 134.192Z" fill="#242E30"/>
<path d="M151.668 155.168C150.875 155.168 150.231 155.047 149.736 154.804C149.241 154.561 148.849 154.249 148.56 153.866L149.316 153.152C149.568 153.46 149.899 153.703 150.31 153.88C150.73 154.057 151.22 154.146 151.78 154.146C152.032 154.146 152.275 154.118 152.508 154.062C152.741 154.006 152.947 153.922 153.124 153.81C153.311 153.689 153.455 153.53 153.558 153.334C153.67 153.138 153.726 152.9 153.726 152.62C153.726 152.377 153.67 152.172 153.558 152.004C153.446 151.827 153.292 151.677 153.096 151.556C152.909 151.425 152.685 151.313 152.424 151.22C152.163 151.117 151.878 151.015 151.57 150.912C151.243 150.8 150.921 150.683 150.604 150.562C150.287 150.431 150.002 150.268 149.75 150.072C149.498 149.876 149.293 149.638 149.134 149.358C148.975 149.069 148.896 148.714 148.896 148.294C148.896 147.874 148.971 147.505 149.12 147.188C149.279 146.871 149.493 146.605 149.764 146.39C150.035 146.175 150.357 146.012 150.73 145.9C151.103 145.788 151.509 145.732 151.948 145.732C152.592 145.732 153.166 145.844 153.67 146.068C154.183 146.292 154.599 146.633 154.916 147.09L154.16 147.832C153.908 147.524 153.586 147.267 153.194 147.062C152.802 146.857 152.354 146.754 151.85 146.754C151.635 146.754 151.425 146.782 151.22 146.838C151.015 146.885 150.828 146.969 150.66 147.09C150.492 147.211 150.357 147.365 150.254 147.552C150.151 147.739 150.1 147.963 150.1 148.224C150.1 148.467 150.156 148.677 150.268 148.854C150.38 149.022 150.529 149.171 150.716 149.302C150.912 149.423 151.141 149.535 151.402 149.638C151.663 149.731 151.948 149.829 152.256 149.932C152.583 150.044 152.905 150.165 153.222 150.296C153.539 150.427 153.824 150.59 154.076 150.786C154.328 150.982 154.533 151.22 154.692 151.5C154.851 151.78 154.93 152.13 154.93 152.55C154.93 152.998 154.841 153.39 154.664 153.726C154.496 154.053 154.263 154.323 153.964 154.538C153.675 154.753 153.329 154.911 152.928 155.014C152.536 155.117 152.116 155.168 151.668 155.168ZM159.521 155.168C159.026 155.168 158.574 155.084 158.163 154.916C157.762 154.748 157.416 154.51 157.127 154.202C156.847 153.885 156.628 153.502 156.469 153.054C156.32 152.606 156.245 152.102 156.245 151.542C156.245 150.954 156.324 150.436 156.483 149.988C156.642 149.531 156.861 149.153 157.141 148.854C157.421 148.546 157.752 148.313 158.135 148.154C158.527 147.995 158.956 147.916 159.423 147.916C159.89 147.916 160.319 147.991 160.711 148.14C161.103 148.289 161.439 148.513 161.719 148.812C161.999 149.101 162.218 149.47 162.377 149.918C162.536 150.357 162.615 150.87 162.615 151.458C162.615 151.533 162.61 151.607 162.601 151.682C162.601 151.757 162.596 151.817 162.587 151.864H157.365C157.365 152.191 157.421 152.499 157.533 152.788C157.654 153.068 157.813 153.315 158.009 153.53C158.214 153.735 158.448 153.899 158.709 154.02C158.98 154.141 159.269 154.202 159.577 154.202C160.081 154.202 160.492 154.104 160.809 153.908C161.136 153.712 161.406 153.474 161.621 153.194L162.293 153.88C161.994 154.272 161.621 154.585 161.173 154.818C160.734 155.051 160.184 155.168 159.521 155.168ZM159.423 148.84C159.096 148.84 158.807 148.901 158.555 149.022C158.303 149.143 158.093 149.302 157.925 149.498C157.757 149.694 157.626 149.918 157.533 150.17C157.449 150.422 157.402 150.674 157.393 150.926H161.439C161.43 150.674 161.378 150.422 161.285 150.17C161.201 149.918 161.075 149.694 160.907 149.498C160.739 149.302 160.529 149.143 160.277 149.022C160.034 148.901 159.75 148.84 159.423 148.84ZM167.052 155.168C166.492 155.168 166.007 155.065 165.596 154.86C165.195 154.655 164.864 154.384 164.602 154.048C164.341 153.712 164.15 153.329 164.028 152.9C163.907 152.461 163.846 152.009 163.846 151.542C163.846 151.075 163.907 150.627 164.028 150.198C164.15 149.759 164.336 149.372 164.588 149.036C164.85 148.7 165.181 148.429 165.582 148.224C165.984 148.019 166.464 147.916 167.024 147.916C167.612 147.916 168.093 148.014 168.466 148.21C168.84 148.406 169.157 148.667 169.418 148.994L168.718 149.652C168.494 149.409 168.256 149.223 168.004 149.092C167.762 148.952 167.444 148.882 167.052 148.882C166.436 148.882 165.937 149.12 165.554 149.596C165.181 150.063 164.994 150.711 164.994 151.542C164.994 151.953 165.046 152.321 165.148 152.648C165.251 152.975 165.396 153.255 165.582 153.488C165.769 153.721 165.988 153.899 166.24 154.02C166.492 154.141 166.772 154.202 167.08 154.202C167.454 154.202 167.776 154.137 168.046 154.006C168.317 153.866 168.569 153.665 168.802 153.404L169.474 154.076C169.204 154.403 168.872 154.669 168.48 154.874C168.088 155.07 167.612 155.168 167.052 155.168ZM173.699 155.168C173.149 155.168 172.663 155.075 172.243 154.888C171.833 154.692 171.487 154.431 171.207 154.104C170.937 153.777 170.731 153.395 170.591 152.956C170.461 152.517 170.395 152.046 170.395 151.542C170.395 151.038 170.461 150.567 170.591 150.128C170.731 149.689 170.937 149.307 171.207 148.98C171.487 148.653 171.833 148.397 172.243 148.21C172.663 148.014 173.149 147.916 173.699 147.916C174.25 147.916 174.726 148.014 175.127 148.21C175.538 148.397 175.879 148.653 176.149 148.98C176.42 149.307 176.621 149.689 176.751 150.128C176.891 150.567 176.961 151.038 176.961 151.542C176.961 152.046 176.891 152.517 176.751 152.956C176.621 153.395 176.42 153.777 176.149 154.104C175.879 154.431 175.538 154.692 175.127 154.888C174.726 155.075 174.25 155.168 173.699 155.168ZM171.543 151.542C171.543 151.943 171.585 152.312 171.669 152.648C171.763 152.975 171.898 153.259 172.075 153.502C172.253 153.735 172.477 153.917 172.747 154.048C173.018 154.179 173.335 154.244 173.699 154.244C174.054 154.244 174.362 154.179 174.623 154.048C174.894 153.917 175.113 153.735 175.281 153.502C175.459 153.259 175.589 152.975 175.673 152.648C175.767 152.312 175.813 151.943 175.813 151.542C175.813 151.141 175.767 150.777 175.673 150.45C175.589 150.114 175.459 149.829 175.281 149.596C175.113 149.353 174.894 149.167 174.623 149.036C174.362 148.905 174.054 148.84 173.699 148.84C173.335 148.84 173.018 148.905 172.747 149.036C172.477 149.167 172.253 149.353 172.075 149.596C171.898 149.829 171.763 150.114 171.669 150.45C171.585 150.777 171.543 151.141 171.543 151.542ZM178.762 148.084H179.826V149.176H179.91C180.078 148.812 180.316 148.513 180.624 148.28C180.932 148.037 181.324 147.916 181.8 147.916C182.594 147.916 183.219 148.126 183.676 148.546C184.143 148.966 184.376 149.643 184.376 150.576V155H183.256V150.786C183.256 150.077 183.112 149.577 182.822 149.288C182.542 148.989 182.127 148.84 181.576 148.84C181.044 148.84 180.629 149.022 180.33 149.386C180.032 149.75 179.882 150.282 179.882 150.982V155H178.762V148.084ZM189.116 155.168C188.649 155.168 188.229 155.079 187.856 154.902C187.482 154.715 187.16 154.463 186.89 154.146C186.619 153.819 186.409 153.432 186.26 152.984C186.12 152.536 186.05 152.051 186.05 151.528C186.05 151.005 186.12 150.525 186.26 150.086C186.409 149.638 186.619 149.255 186.89 148.938C187.16 148.611 187.482 148.359 187.856 148.182C188.229 148.005 188.649 147.916 189.116 147.916C189.685 147.916 190.175 148.051 190.586 148.322C190.996 148.593 191.29 148.938 191.468 149.358H191.552V144.85H192.672V155H191.608V153.586H191.524C191.44 153.829 191.318 154.048 191.16 154.244C191.01 154.431 190.828 154.594 190.614 154.734C190.408 154.874 190.175 154.981 189.914 155.056C189.662 155.131 189.396 155.168 189.116 155.168ZM189.396 154.16C189.694 154.16 189.974 154.109 190.236 154.006C190.497 153.894 190.726 153.731 190.922 153.516C191.118 153.292 191.272 153.017 191.384 152.69C191.496 152.363 191.552 151.981 191.552 151.542C191.552 151.103 191.496 150.721 191.384 150.394C191.272 150.067 191.118 149.797 190.922 149.582C190.726 149.358 190.497 149.195 190.236 149.092C189.974 148.98 189.694 148.924 189.396 148.924C189.088 148.924 188.798 148.98 188.528 149.092C188.266 149.195 188.033 149.358 187.828 149.582C187.632 149.797 187.478 150.067 187.366 150.394C187.254 150.721 187.198 151.103 187.198 151.542C187.198 151.981 187.254 152.363 187.366 152.69C187.478 153.017 187.632 153.292 187.828 153.516C188.033 153.731 188.266 153.894 188.528 154.006C188.798 154.109 189.088 154.16 189.396 154.16ZM196.571 155.168C196.254 155.168 195.96 155.117 195.689 155.014C195.428 154.911 195.199 154.767 195.003 154.58C194.807 154.393 194.653 154.174 194.541 153.922C194.439 153.661 194.387 153.376 194.387 153.068C194.387 152.471 194.602 151.99 195.031 151.626C195.461 151.262 196.072 151.057 196.865 151.01L198.685 150.898V150.408C198.685 149.876 198.555 149.493 198.293 149.26C198.041 149.017 197.677 148.896 197.201 148.896C196.8 148.896 196.455 148.971 196.165 149.12C195.876 149.269 195.652 149.433 195.493 149.61L194.821 148.938C195.064 148.639 195.391 148.397 195.801 148.21C196.221 148.014 196.697 147.916 197.229 147.916C197.705 147.916 198.107 147.981 198.433 148.112C198.76 148.233 199.021 148.401 199.217 148.616C199.423 148.831 199.567 149.083 199.651 149.372C199.745 149.661 199.791 149.969 199.791 150.296V155H198.741V153.824H198.657C198.471 154.244 198.209 154.575 197.873 154.818C197.537 155.051 197.103 155.168 196.571 155.168ZM196.739 154.216C197.318 154.216 197.785 154.048 198.139 153.712C198.503 153.367 198.685 152.909 198.685 152.34V151.738L196.921 151.864C195.988 151.939 195.521 152.331 195.521 153.04C195.521 153.395 195.633 153.679 195.857 153.894C196.091 154.109 196.385 154.216 196.739 154.216ZM202.045 148.084H203.109V149.204H203.193C203.343 148.84 203.557 148.537 203.837 148.294C204.117 148.042 204.467 147.916 204.887 147.916C205.242 147.916 205.555 147.986 205.825 148.126L205.447 149.134C205.326 149.069 205.195 149.027 205.055 149.008C204.925 148.98 204.789 148.966 204.649 148.966C204.192 148.966 203.828 149.153 203.557 149.526C203.296 149.89 203.165 150.357 203.165 150.926V155H202.045V148.084ZM207.702 157.646C207.599 157.646 207.492 157.637 207.38 157.618C207.277 157.609 207.189 157.595 207.114 157.576V156.61C207.161 156.619 207.235 156.629 207.338 156.638C207.45 156.647 207.553 156.652 207.646 156.652C207.833 156.652 207.991 156.638 208.122 156.61C208.253 156.582 208.369 156.517 208.472 156.414C208.584 156.321 208.691 156.176 208.794 155.98C208.897 155.793 209.009 155.541 209.13 155.224L206.358 148.084H207.576L209.662 153.88H209.746L211.846 148.084H212.98L210.264 155.07C210.087 155.527 209.914 155.915 209.746 156.232C209.587 156.559 209.41 156.825 209.214 157.03C209.018 157.245 208.799 157.399 208.556 157.492C208.323 157.595 208.038 157.646 207.702 157.646ZM219.937 155.168C219.312 155.168 218.854 154.981 218.565 154.608C218.276 154.235 218.131 153.721 218.131 153.068V148.994H216.899V148.084H218.131V146.208H219.237V148.084H221.239V148.994H219.237V152.97C219.237 153.418 219.321 153.731 219.489 153.908C219.666 154.085 219.89 154.174 220.161 154.174C220.348 154.174 220.516 154.141 220.665 154.076C220.814 154.001 220.954 153.903 221.085 153.782L221.589 154.566C221.16 154.967 220.609 155.168 219.937 155.168ZM225.706 155.168C225.212 155.168 224.759 155.084 224.348 154.916C223.947 154.748 223.602 154.51 223.312 154.202C223.032 153.885 222.813 153.502 222.654 153.054C222.505 152.606 222.43 152.102 222.43 151.542C222.43 150.954 222.51 150.436 222.668 149.988C222.827 149.531 223.046 149.153 223.326 148.854C223.606 148.546 223.938 148.313 224.32 148.154C224.712 147.995 225.142 147.916 225.608 147.916C226.075 147.916 226.504 147.991 226.896 148.14C227.288 148.289 227.624 148.513 227.904 148.812C228.184 149.101 228.404 149.47 228.562 149.918C228.721 150.357 228.8 150.87 228.8 151.458C228.8 151.533 228.796 151.607 228.786 151.682C228.786 151.757 228.782 151.817 228.772 151.864H223.55C223.55 152.191 223.606 152.499 223.718 152.788C223.84 153.068 223.998 153.315 224.194 153.53C224.4 153.735 224.633 153.899 224.894 154.02C225.165 154.141 225.454 154.202 225.762 154.202C226.266 154.202 226.677 154.104 226.994 153.908C227.321 153.712 227.592 153.474 227.806 153.194L228.478 153.88C228.18 154.272 227.806 154.585 227.358 154.818C226.92 155.051 226.369 155.168 225.706 155.168ZM225.608 148.84C225.282 148.84 224.992 148.901 224.74 149.022C224.488 149.143 224.278 149.302 224.11 149.498C223.942 149.694 223.812 149.918 223.718 150.17C223.634 150.422 223.588 150.674 223.578 150.926H227.624C227.615 150.674 227.564 150.422 227.47 150.17C227.386 149.918 227.26 149.694 227.092 149.498C226.924 149.302 226.714 149.143 226.462 149.022C226.22 148.901 225.935 148.84 225.608 148.84ZM232.054 151.486L229.744 148.084H231.088L232.726 150.674H232.782L234.476 148.084H235.68L233.37 151.43L235.792 155H234.448L232.698 152.242H232.642L230.836 155H229.632L232.054 151.486ZM239.57 155.168C238.945 155.168 238.487 154.981 238.198 154.608C237.909 154.235 237.764 153.721 237.764 153.068V148.994H236.532V148.084H237.764V146.208H238.87V148.084H240.872V148.994H238.87V152.97C238.87 153.418 238.954 153.731 239.122 153.908C239.299 154.085 239.523 154.174 239.794 154.174C239.981 154.174 240.149 154.141 240.298 154.076C240.447 154.001 240.587 153.903 240.718 153.782L241.222 154.566C240.793 154.967 240.242 155.168 239.57 155.168Z" fill="#3C4C4F"/>
<path d="M375 124C375 119.582 378.582 116 383 116H416C420.418 116 424 119.582 424 124V132C424 136.418 420.418 140 416 140H383C378.582 140 375 136.418 375 132V124Z" fill="#EFEDEA"/>
<path d="M384.288 123.9H385.478V131.992H388.992V133H384.288V123.9ZM392.183 133.168C391.865 133.168 391.571 133.117 391.301 133.014C391.039 132.911 390.811 132.767 390.615 132.58C390.419 132.393 390.265 132.174 390.153 131.922C390.05 131.661 389.999 131.376 389.999 131.068C389.999 130.471 390.213 129.99 390.643 129.626C391.072 129.262 391.683 129.057 392.477 129.01L394.297 128.898V128.408C394.297 127.876 394.166 127.493 393.905 127.26C393.653 127.017 393.289 126.896 392.813 126.896C392.411 126.896 392.066 126.971 391.777 127.12C391.487 127.269 391.263 127.433 391.105 127.61L390.433 126.938C390.675 126.639 391.002 126.397 391.413 126.21C391.833 126.014 392.309 125.916 392.841 125.916C393.317 125.916 393.718 125.981 394.045 126.112C394.371 126.233 394.633 126.401 394.829 126.616C395.034 126.831 395.179 127.083 395.263 127.372C395.356 127.661 395.403 127.969 395.403 128.296V133H394.353V131.824H394.269C394.082 132.244 393.821 132.575 393.485 132.818C393.149 133.051 392.715 133.168 392.183 133.168ZM392.351 132.216C392.929 132.216 393.396 132.048 393.751 131.712C394.115 131.367 394.297 130.909 394.297 130.34V129.738L392.533 129.864C391.599 129.939 391.133 130.331 391.133 131.04C391.133 131.395 391.245 131.679 391.469 131.894C391.702 132.109 391.996 132.216 392.351 132.216ZM401.213 133.168C400.933 133.168 400.662 133.131 400.401 133.056C400.149 132.981 399.915 132.874 399.701 132.734C399.495 132.594 399.313 132.431 399.155 132.244C399.005 132.048 398.889 131.829 398.805 131.586H398.721V133H397.657V122.85H398.777V127.358H398.861C399.038 126.938 399.332 126.593 399.743 126.322C400.153 126.051 400.643 125.916 401.213 125.916C401.67 125.916 402.085 126.005 402.459 126.182C402.841 126.359 403.168 126.611 403.439 126.938C403.709 127.255 403.915 127.638 404.055 128.086C404.204 128.525 404.279 129.005 404.279 129.528C404.279 130.051 404.204 130.536 404.055 130.984C403.915 131.432 403.709 131.819 403.439 132.146C403.168 132.463 402.841 132.715 402.459 132.902C402.085 133.079 401.67 133.168 401.213 133.168ZM400.933 132.16C401.241 132.16 401.525 132.109 401.787 132.006C402.057 131.894 402.291 131.731 402.487 131.516C402.692 131.292 402.851 131.017 402.963 130.69C403.075 130.363 403.131 129.981 403.131 129.542C403.131 129.103 403.075 128.721 402.963 128.394C402.851 128.067 402.692 127.797 402.487 127.582C402.291 127.358 402.057 127.195 401.787 127.092C401.525 126.98 401.241 126.924 400.933 126.924C400.634 126.924 400.354 126.98 400.093 127.092C399.831 127.195 399.603 127.358 399.407 127.582C399.211 127.797 399.057 128.067 398.945 128.394C398.833 128.721 398.777 129.103 398.777 129.542C398.777 129.981 398.833 130.363 398.945 130.69C399.057 131.017 399.211 131.292 399.407 131.516C399.603 131.731 399.831 131.894 400.093 132.006C400.354 132.109 400.634 132.16 400.933 132.16ZM408.781 133.168C408.286 133.168 407.833 133.084 407.423 132.916C407.021 132.748 406.676 132.51 406.387 132.202C406.107 131.885 405.887 131.502 405.729 131.054C405.579 130.606 405.505 130.102 405.505 129.542C405.505 128.954 405.584 128.436 405.743 127.988C405.901 127.531 406.121 127.153 406.401 126.854C406.681 126.546 407.012 126.313 407.395 126.154C407.787 125.995 408.216 125.916 408.683 125.916C409.149 125.916 409.579 125.991 409.971 126.14C410.363 126.289 410.699 126.513 410.979 126.812C411.259 127.101 411.478 127.47 411.637 127.918C411.795 128.357 411.875 128.87 411.875 129.458C411.875 129.533 411.87 129.607 411.861 129.682C411.861 129.757 411.856 129.817 411.847 129.864H406.625C406.625 130.191 406.681 130.499 406.793 130.788C406.914 131.068 407.073 131.315 407.269 131.53C407.474 131.735 407.707 131.899 407.969 132.02C408.239 132.141 408.529 132.202 408.837 132.202C409.341 132.202 409.751 132.104 410.069 131.908C410.395 131.712 410.666 131.474 410.881 131.194L411.553 131.88C411.254 132.272 410.881 132.585 410.433 132.818C409.994 133.051 409.443 133.168 408.781 133.168ZM408.683 126.84C408.356 126.84 408.067 126.901 407.815 127.022C407.563 127.143 407.353 127.302 407.185 127.498C407.017 127.694 406.886 127.918 406.793 128.17C406.709 128.422 406.662 128.674 406.653 128.926H410.699C410.689 128.674 410.638 128.422 410.545 128.17C410.461 127.918 410.335 127.694 410.167 127.498C409.999 127.302 409.789 127.143 409.537 127.022C409.294 126.901 409.009 126.84 408.683 126.84ZM413.68 122.85H414.8V133H413.68V122.85Z" fill="#242E30"/>
<rect width="360" height="1" transform="translate(80 175)" fill="black" fill-opacity="0.08"/>
<rect width="360" height="76" transform="translate(80 100)" fill="white"/>
<path d="M96 138C96 129.163 103.163 122 112 122C120.837 122 128 129.163 128 138C128 146.837 120.837 154 112 154C103.163 154 96 146.837 96 138Z" fill="#262626"/>
<rect x="96" y="122" width="32" height="32" rx="16" fill="#262626"/>
<g clip-path="url(#clip0_26811_7365)">
<path d="M121.896 128L122 128.104V147.896L121.896 148H102.104L102 147.896V128.104L102.104 128H121.896ZM102.207 128.207V147.792H121.792V128.207H102.207ZM117.914 129.25C119.48 129.25 120.75 130.52 120.75 132.086V143.914C120.75 145.48 119.48 146.75 117.914 146.75H106.086C104.52 146.75 103.25 145.48 103.25 143.914V132.086C103.25 130.52 104.52 129.25 106.086 129.25H117.914Z" fill="white"/>
</g>
<path d="M141.472 134V123.6H144.72C145.424 123.6 146.021 123.733 146.512 124C147.013 124.267 147.392 124.651 147.648 125.152C147.904 125.643 148.032 126.224 148.032 126.896C148.032 127.408 147.952 127.867 147.792 128.272C147.643 128.677 147.424 129.024 147.136 129.312C146.859 129.6 146.512 129.824 146.096 129.984C145.691 130.133 145.232 130.208 144.72 130.208H142.832V134H141.472ZM142.832 129.072H144.624C145.072 129.072 145.445 128.987 145.744 128.816C146.043 128.635 146.267 128.384 146.416 128.064C146.565 127.733 146.64 127.344 146.64 126.896C146.64 126.235 146.469 125.712 146.128 125.328C145.797 124.933 145.296 124.736 144.624 124.736H142.832V129.072ZM150.032 134V126.096H151.248V127.376H151.344C151.515 126.96 151.76 126.613 152.08 126.336C152.411 126.048 152.811 125.904 153.28 125.904C153.472 125.904 153.659 125.925 153.84 125.968C154.032 126 154.203 126.059 154.352 126.144L153.92 127.296C153.781 127.221 153.632 127.173 153.472 127.152C153.323 127.12 153.168 127.104 153.008 127.104C152.485 127.104 152.069 127.317 151.76 127.744C151.461 128.16 151.312 128.693 151.312 129.344V134H150.032ZM156.001 134V126.096H157.281V134H156.001ZM156.641 124.816C156.374 124.816 156.166 124.736 156.017 124.576C155.867 124.416 155.793 124.224 155.793 124C155.793 123.787 155.867 123.6 156.017 123.44C156.166 123.269 156.374 123.184 156.641 123.184C156.897 123.184 157.099 123.269 157.249 123.44C157.409 123.6 157.489 123.787 157.489 124C157.489 124.224 157.409 124.416 157.249 124.576C157.099 124.736 156.897 124.816 156.641 124.816ZM160.001 134V126.096H161.217V127.344H161.313C161.505 126.928 161.771 126.587 162.113 126.32C162.465 126.043 162.902 125.904 163.425 125.904C164.054 125.904 164.587 126.021 165.025 126.256C165.462 126.48 165.782 126.821 165.985 127.28C166.145 126.981 166.337 126.731 166.561 126.528C166.785 126.325 167.051 126.171 167.361 126.064C167.681 125.957 168.038 125.904 168.433 125.904C169.019 125.904 169.526 126.011 169.953 126.224C170.379 126.427 170.71 126.752 170.945 127.2C171.179 127.648 171.297 128.229 171.297 128.944V134H170.017V129.184C170.017 128.64 169.942 128.208 169.793 127.888C169.654 127.557 169.446 127.323 169.169 127.184C168.902 127.035 168.566 126.96 168.161 126.96C167.574 126.96 167.115 127.168 166.785 127.584C166.454 128 166.289 128.608 166.289 129.408V134H165.009V129.184C165.009 128.64 164.939 128.208 164.801 127.888C164.662 127.557 164.454 127.323 164.177 127.184C163.899 127.035 163.558 126.96 163.153 126.96C162.577 126.96 162.118 127.168 161.777 127.584C161.446 128 161.281 128.608 161.281 129.408V134H160.001ZM175.62 134.192C175.14 134.192 174.708 134.091 174.324 133.888C173.95 133.685 173.657 133.403 173.444 133.04C173.23 132.677 173.124 132.261 173.124 131.792C173.124 131.333 173.23 130.939 173.444 130.608C173.668 130.267 173.993 129.995 174.42 129.792C174.846 129.589 175.358 129.472 175.956 129.44L178.036 129.312V128.752C178.036 128.347 177.966 128.021 177.828 127.776C177.7 127.52 177.508 127.333 177.252 127.216C177.006 127.088 176.702 127.024 176.34 127.024C175.881 127.024 175.486 127.109 175.156 127.28C174.825 127.451 174.569 127.637 174.388 127.84L173.62 127.072C173.897 126.731 174.276 126.453 174.756 126.24C175.236 126.016 175.774 125.904 176.372 125.904C177.097 125.904 177.673 126.027 178.1 126.272C178.526 126.517 178.83 126.848 179.012 127.264C179.204 127.669 179.3 128.123 179.3 128.624V134H178.1V132.656H178.004C177.801 133.125 177.502 133.499 177.108 133.776C176.713 134.053 176.217 134.192 175.62 134.192ZM175.812 133.104C176.473 133.104 177.006 132.912 177.412 132.528C177.828 132.133 178.036 131.611 178.036 130.96V130.272L176.02 130.416C175.497 130.459 175.097 130.592 174.82 130.816C174.553 131.04 174.42 131.355 174.42 131.76C174.42 132.165 174.548 132.491 174.804 132.736C175.07 132.981 175.406 133.104 175.812 133.104ZM181.876 134V126.096H183.092V127.376H183.188C183.358 126.96 183.604 126.613 183.924 126.336C184.254 126.048 184.654 125.904 185.124 125.904C185.316 125.904 185.502 125.925 185.684 125.968C185.876 126 186.046 126.059 186.196 126.144L185.764 127.296C185.625 127.221 185.476 127.173 185.316 127.152C185.166 127.12 185.012 127.104 184.852 127.104C184.329 127.104 183.913 127.317 183.604 127.744C183.305 128.16 183.156 128.693 183.156 129.344V134H181.876ZM188.34 137.024C188.234 137.024 188.116 137.013 187.988 136.992C187.86 136.981 187.754 136.965 187.668 136.944V135.84C187.722 135.851 187.807 135.861 187.924 135.872C188.052 135.883 188.17 135.888 188.276 135.888C188.564 135.888 188.799 135.851 188.98 135.776C189.162 135.712 189.327 135.563 189.476 135.328C189.626 135.093 189.791 134.736 189.972 134.256L186.804 126.096H188.196L190.58 132.72H190.676L193.076 126.096H194.372L191.268 134.08C191.002 134.773 190.74 135.333 190.484 135.76C190.228 136.197 189.935 136.517 189.604 136.72C189.274 136.923 188.852 137.024 188.34 137.024ZM202.323 134.192C201.854 134.192 201.465 134.096 201.155 133.904C200.846 133.712 200.617 133.435 200.467 133.072C200.329 132.709 200.259 132.283 200.259 131.792V127.136H198.851V126.096H200.259V123.952H201.523V126.096H203.811V127.136H201.523V131.68C201.523 132.192 201.619 132.549 201.811 132.752C202.014 132.955 202.27 133.056 202.579 133.056C202.793 133.056 202.985 133.019 203.155 132.944C203.326 132.859 203.486 132.747 203.635 132.608L204.211 133.504C203.966 133.739 203.683 133.909 203.363 134.016C203.054 134.133 202.707 134.192 202.323 134.192ZM208.917 134.192C208.159 134.192 207.498 134.027 206.933 133.696C206.378 133.365 205.946 132.891 205.637 132.272C205.327 131.643 205.173 130.901 205.173 130.048C205.173 129.376 205.258 128.784 205.429 128.272C205.61 127.749 205.861 127.317 206.181 126.976C206.511 126.624 206.895 126.357 207.333 126.176C207.781 125.995 208.271 125.904 208.805 125.904C209.338 125.904 209.823 125.989 210.261 126.16C210.709 126.331 211.093 126.587 211.413 126.928C211.743 127.259 211.999 127.68 212.181 128.192C212.362 128.693 212.453 129.28 212.453 129.952C212.453 130.037 212.447 130.123 212.437 130.208C212.437 130.293 212.431 130.363 212.421 130.416H206.453C206.463 130.907 206.581 131.355 206.805 131.76C207.029 132.165 207.327 132.491 207.701 132.736C208.085 132.971 208.511 133.088 208.981 133.088C209.546 133.088 210.015 132.976 210.389 132.752C210.762 132.528 211.071 132.256 211.317 131.936L212.085 132.72C211.754 133.168 211.333 133.525 210.821 133.792C210.309 134.059 209.674 134.192 208.917 134.192ZM208.805 126.96C208.303 126.96 207.882 127.077 207.541 127.312C207.199 127.547 206.938 127.845 206.757 128.208C206.586 128.571 206.495 128.949 206.485 129.344H211.109C211.098 128.949 211.002 128.571 210.821 128.208C210.65 127.845 210.394 127.547 210.053 127.312C209.722 127.077 209.306 126.96 208.805 126.96ZM213.403 134L216.171 129.984L213.531 126.096H215.067L216.939 129.056H217.003L218.939 126.096H220.315L217.675 129.92L220.443 134H218.907L216.907 130.848H216.843L214.779 134H213.403ZM224.761 134.192C224.291 134.192 223.902 134.096 223.593 133.904C223.283 133.712 223.054 133.435 222.905 133.072C222.766 132.709 222.697 132.283 222.697 131.792V127.136H221.289V126.096H222.697V123.952H223.961V126.096H226.249V127.136H223.961V131.68C223.961 132.192 224.057 132.549 224.249 132.752C224.451 132.955 224.707 133.056 225.017 133.056C225.23 133.056 225.422 133.019 225.593 132.944C225.763 132.859 225.923 132.747 226.073 132.608L226.649 133.504C226.403 133.739 226.121 133.909 225.801 134.016C225.491 134.133 225.145 134.192 224.761 134.192Z" fill="black" fill-opacity="0.76"/>
<path d="M143.668 155.168C142.875 155.168 142.231 155.047 141.736 154.804C141.241 154.552 140.849 154.239 140.56 153.866L141.316 153.152C141.568 153.46 141.904 153.703 142.324 153.88C142.744 154.057 143.229 154.146 143.78 154.146C144.116 154.146 144.429 154.099 144.718 154.006C145.017 153.903 145.259 153.74 145.446 153.516C145.633 153.292 145.726 152.993 145.726 152.62C145.726 152.293 145.628 152.032 145.432 151.836C145.245 151.631 144.989 151.458 144.662 151.318C144.345 151.178 143.981 151.043 143.57 150.912C143.243 150.8 142.921 150.679 142.604 150.548C142.287 150.417 141.997 150.259 141.736 150.072C141.484 149.876 141.279 149.638 141.12 149.358C140.971 149.069 140.896 148.714 140.896 148.294C140.896 147.874 140.971 147.505 141.12 147.188C141.269 146.871 141.479 146.605 141.75 146.39C142.03 146.175 142.357 146.012 142.73 145.9C143.103 145.788 143.509 145.732 143.948 145.732C144.592 145.732 145.166 145.844 145.67 146.068C146.183 146.292 146.599 146.633 146.916 147.09L146.16 147.832C145.908 147.524 145.581 147.267 145.18 147.062C144.788 146.857 144.345 146.754 143.85 146.754C143.57 146.754 143.295 146.805 143.024 146.908C142.763 147.001 142.543 147.155 142.366 147.37C142.189 147.585 142.1 147.869 142.1 148.224C142.1 148.551 142.193 148.817 142.38 149.022C142.576 149.218 142.837 149.386 143.164 149.526C143.491 149.657 143.855 149.792 144.256 149.932C144.583 150.044 144.905 150.165 145.222 150.296C145.539 150.427 145.824 150.59 146.076 150.786C146.337 150.973 146.543 151.211 146.692 151.5C146.851 151.78 146.93 152.13 146.93 152.55C146.93 152.998 146.846 153.39 146.678 153.726C146.51 154.053 146.277 154.323 145.978 154.538C145.679 154.753 145.329 154.911 144.928 155.014C144.536 155.117 144.116 155.168 143.668 155.168ZM151.521 155.168C150.858 155.168 150.28 155.023 149.785 154.734C149.3 154.445 148.922 154.029 148.651 153.488C148.38 152.937 148.245 152.289 148.245 151.542C148.245 150.954 148.32 150.436 148.469 149.988C148.628 149.531 148.847 149.153 149.127 148.854C149.416 148.546 149.752 148.313 150.135 148.154C150.527 147.995 150.956 147.916 151.423 147.916C151.89 147.916 152.314 147.991 152.697 148.14C153.089 148.289 153.425 148.513 153.705 148.812C153.994 149.101 154.218 149.47 154.377 149.918C154.536 150.357 154.615 150.87 154.615 151.458C154.615 151.533 154.61 151.607 154.601 151.682C154.601 151.757 154.596 151.817 154.587 151.864H149.365C149.374 152.293 149.477 152.685 149.673 153.04C149.869 153.395 150.13 153.679 150.457 153.894C150.793 154.099 151.166 154.202 151.577 154.202C152.072 154.202 152.482 154.104 152.809 153.908C153.136 153.712 153.406 153.474 153.621 153.194L154.293 153.88C154.004 154.272 153.635 154.585 153.187 154.818C152.739 155.051 152.184 155.168 151.521 155.168ZM151.423 148.84C150.984 148.84 150.616 148.943 150.317 149.148C150.018 149.353 149.79 149.615 149.631 149.932C149.482 150.249 149.402 150.581 149.393 150.926H153.439C153.43 150.581 153.346 150.249 153.187 149.932C153.038 149.615 152.814 149.353 152.515 149.148C152.226 148.943 151.862 148.84 151.423 148.84ZM159.052 155.168C158.306 155.168 157.694 154.995 157.218 154.65C156.742 154.305 156.392 153.857 156.168 153.306C155.954 152.746 155.846 152.158 155.846 151.542C155.846 150.917 155.954 150.329 156.168 149.778C156.383 149.227 156.724 148.779 157.19 148.434C157.666 148.089 158.278 147.916 159.024 147.916C159.603 147.916 160.079 148.014 160.452 148.21C160.835 148.406 161.157 148.667 161.418 148.994L160.718 149.652C160.494 149.409 160.256 149.223 160.004 149.092C159.762 148.952 159.444 148.882 159.052 148.882C158.651 148.882 158.292 148.989 157.974 149.204C157.666 149.419 157.424 149.727 157.246 150.128C157.078 150.52 156.994 150.991 156.994 151.542C156.994 152.363 157.19 153.012 157.582 153.488C157.974 153.964 158.474 154.202 159.08 154.202C159.454 154.202 159.776 154.137 160.046 154.006C160.317 153.866 160.569 153.665 160.802 153.404L161.474 154.076C161.213 154.403 160.882 154.669 160.48 154.874C160.088 155.07 159.612 155.168 159.052 155.168ZM165.699 155.168C164.962 155.168 164.346 155.005 163.851 154.678C163.366 154.351 163.002 153.913 162.759 153.362C162.517 152.811 162.395 152.205 162.395 151.542C162.395 151.038 162.461 150.567 162.591 150.128C162.731 149.689 162.937 149.307 163.207 148.98C163.487 148.644 163.833 148.383 164.243 148.196C164.663 148.009 165.149 147.916 165.699 147.916C166.437 147.916 167.043 148.079 167.519 148.406C168.005 148.733 168.364 149.171 168.597 149.722C168.84 150.263 168.961 150.87 168.961 151.542C168.961 152.046 168.891 152.517 168.751 152.956C168.621 153.395 168.42 153.782 168.149 154.118C167.879 154.445 167.538 154.701 167.127 154.888C166.726 155.075 166.25 155.168 165.699 155.168ZM163.543 151.542C163.543 152.074 163.623 152.545 163.781 152.956C163.94 153.357 164.178 153.675 164.495 153.908C164.813 154.132 165.214 154.244 165.699 154.244C166.175 154.244 166.567 154.132 166.875 153.908C167.193 153.675 167.426 153.357 167.575 152.956C167.734 152.545 167.813 152.074 167.813 151.542C167.813 151.01 167.734 150.543 167.575 150.142C167.426 149.731 167.193 149.414 166.875 149.19C166.567 148.957 166.175 148.84 165.699 148.84C165.214 148.84 164.813 148.957 164.495 149.19C164.178 149.414 163.94 149.731 163.781 150.142C163.623 150.543 163.543 151.01 163.543 151.542ZM170.762 155V148.084H171.826V149.176H171.91C172.022 148.933 172.167 148.719 172.344 148.532C172.522 148.336 172.732 148.187 172.974 148.084C173.217 147.972 173.492 147.916 173.8 147.916C174.594 147.916 175.219 148.126 175.676 148.546C176.143 148.957 176.376 149.633 176.376 150.576V155H175.256V150.786C175.256 150.077 175.112 149.577 174.822 149.288C174.542 148.989 174.127 148.84 173.576 148.84C173.054 148.84 172.638 149.022 172.33 149.386C172.032 149.75 171.882 150.282 171.882 150.982V155H170.762ZM181.116 155.168C180.5 155.168 179.963 155.009 179.506 154.692C179.048 154.375 178.689 153.945 178.428 153.404C178.176 152.853 178.05 152.228 178.05 151.528C178.05 150.828 178.176 150.207 178.428 149.666C178.689 149.115 179.048 148.686 179.506 148.378C179.963 148.07 180.5 147.916 181.116 147.916C181.685 147.916 182.175 148.051 182.586 148.322C182.996 148.593 183.29 148.938 183.468 149.358H183.552V144.85H184.672V155H183.608V153.586H183.524C183.365 154.062 183.066 154.445 182.628 154.734C182.189 155.023 181.685 155.168 181.116 155.168ZM181.396 154.16C181.797 154.16 182.156 154.067 182.474 153.88C182.8 153.684 183.062 153.39 183.258 152.998C183.454 152.606 183.552 152.121 183.552 151.542C183.552 150.954 183.454 150.469 183.258 150.086C183.062 149.694 182.8 149.405 182.474 149.218C182.156 149.022 181.797 148.924 181.396 148.924C180.985 148.924 180.612 149.022 180.276 149.218C179.949 149.405 179.688 149.694 179.492 150.086C179.296 150.469 179.198 150.954 179.198 151.542C179.198 152.121 179.296 152.606 179.492 152.998C179.688 153.39 179.949 153.684 180.276 153.88C180.612 154.067 180.985 154.16 181.396 154.16ZM188.571 155.168C188.151 155.168 187.773 155.079 187.437 154.902C187.111 154.725 186.854 154.477 186.667 154.16C186.481 153.843 186.387 153.479 186.387 153.068C186.387 152.667 186.481 152.321 186.667 152.032C186.863 151.733 187.148 151.495 187.521 151.318C187.895 151.141 188.343 151.038 188.865 151.01L190.685 150.898V150.408C190.685 150.053 190.625 149.769 190.503 149.554C190.391 149.33 190.223 149.167 189.999 149.064C189.785 148.952 189.519 148.896 189.201 148.896C188.8 148.896 188.455 148.971 188.165 149.12C187.876 149.269 187.652 149.433 187.493 149.61L186.821 148.938C187.064 148.639 187.395 148.397 187.815 148.21C188.235 148.014 188.707 147.916 189.229 147.916C189.864 147.916 190.368 148.023 190.741 148.238C191.115 148.453 191.381 148.742 191.539 149.106C191.707 149.461 191.791 149.857 191.791 150.296V155H190.741V153.824H190.657C190.48 154.235 190.219 154.561 189.873 154.804C189.528 155.047 189.094 155.168 188.571 155.168ZM188.739 154.216C189.318 154.216 189.785 154.048 190.139 153.712C190.503 153.367 190.685 152.909 190.685 152.34V151.738L188.921 151.864C188.464 151.901 188.114 152.018 187.871 152.214C187.638 152.41 187.521 152.685 187.521 153.04C187.521 153.395 187.633 153.679 187.857 153.894C188.091 154.109 188.385 154.216 188.739 154.216ZM194.045 155V148.084H195.109V149.204H195.193C195.343 148.84 195.557 148.537 195.837 148.294C196.127 148.042 196.477 147.916 196.887 147.916C197.055 147.916 197.219 147.935 197.377 147.972C197.545 148 197.695 148.051 197.825 148.126L197.447 149.134C197.326 149.069 197.195 149.027 197.055 149.008C196.925 148.98 196.789 148.966 196.649 148.966C196.192 148.966 195.828 149.153 195.557 149.526C195.296 149.89 195.165 150.357 195.165 150.926V155H194.045ZM199.702 157.646C199.609 157.646 199.506 157.637 199.394 157.618C199.282 157.609 199.189 157.595 199.114 157.576V156.61C199.161 156.619 199.235 156.629 199.338 156.638C199.45 156.647 199.553 156.652 199.646 156.652C199.898 156.652 200.103 156.619 200.262 156.554C200.421 156.498 200.565 156.367 200.696 156.162C200.827 155.957 200.971 155.644 201.13 155.224L198.358 148.084H199.576L201.662 153.88H201.746L203.846 148.084H204.98L202.264 155.07C202.031 155.677 201.802 156.167 201.578 156.54C201.354 156.923 201.097 157.203 200.808 157.38C200.519 157.557 200.15 157.646 199.702 157.646ZM211.937 155.168C211.526 155.168 211.186 155.084 210.915 154.916C210.644 154.748 210.444 154.505 210.313 154.188C210.192 153.871 210.131 153.497 210.131 153.068V148.994H208.899V148.084H210.131V146.208H211.237V148.084H213.239V148.994H211.237V152.97C211.237 153.418 211.321 153.731 211.489 153.908C211.666 154.085 211.89 154.174 212.161 154.174C212.348 154.174 212.516 154.141 212.665 154.076C212.814 154.001 212.954 153.903 213.085 153.782L213.589 154.566C213.374 154.771 213.127 154.921 212.847 155.014C212.576 155.117 212.273 155.168 211.937 155.168ZM217.706 155.168C217.044 155.168 216.465 155.023 215.97 154.734C215.485 154.445 215.107 154.029 214.836 153.488C214.566 152.937 214.43 152.289 214.43 151.542C214.43 150.954 214.505 150.436 214.654 149.988C214.813 149.531 215.032 149.153 215.312 148.854C215.602 148.546 215.938 148.313 216.32 148.154C216.712 147.995 217.142 147.916 217.608 147.916C218.075 147.916 218.5 147.991 218.882 148.14C219.274 148.289 219.61 148.513 219.89 148.812C220.18 149.101 220.404 149.47 220.562 149.918C220.721 150.357 220.8 150.87 220.8 151.458C220.8 151.533 220.796 151.607 220.786 151.682C220.786 151.757 220.782 151.817 220.772 151.864H215.55C215.56 152.293 215.662 152.685 215.858 153.04C216.054 153.395 216.316 153.679 216.642 153.894C216.978 154.099 217.352 154.202 217.762 154.202C218.257 154.202 218.668 154.104 218.994 153.908C219.321 153.712 219.592 153.474 219.806 153.194L220.478 153.88C220.189 154.272 219.82 154.585 219.372 154.818C218.924 155.051 218.369 155.168 217.706 155.168ZM217.608 148.84C217.17 148.84 216.801 148.943 216.502 149.148C216.204 149.353 215.975 149.615 215.816 149.932C215.667 150.249 215.588 150.581 215.578 150.926H219.624C219.615 150.581 219.531 150.249 219.372 149.932C219.223 149.615 218.999 149.353 218.7 149.148C218.411 148.943 218.047 148.84 217.608 148.84ZM221.632 155L224.054 151.486L221.744 148.084H223.088L224.726 150.674H224.782L226.476 148.084H227.68L225.37 151.43L227.792 155H226.448L224.698 152.242H224.642L222.836 155H221.632ZM231.57 155.168C231.159 155.168 230.819 155.084 230.548 154.916C230.277 154.748 230.077 154.505 229.946 154.188C229.825 153.871 229.764 153.497 229.764 153.068V148.994H228.532V148.084H229.764V146.208H230.87V148.084H232.872V148.994H230.87V152.97C230.87 153.418 230.954 153.731 231.122 153.908C231.299 154.085 231.523 154.174 231.794 154.174C231.981 154.174 232.149 154.141 232.298 154.076C232.447 154.001 232.587 153.903 232.718 153.782L233.222 154.566C233.007 154.771 232.76 154.921 232.48 155.014C232.209 155.117 231.906 155.168 231.57 155.168Z" fill="black" fill-opacity="0.64"/>
<rect width="360" height="1" transform="translate(80 175)" fill="black" fill-opacity="0.08"/>
<circle cx="12" cy="138" r="12" fill="#2B2A28"/>
<path d="M8.95987 141.502H11.4099L11.4099 135.86L9.29587 136.714L8.69387 135.398L11.9419 133.9H13.2719L13.2719 141.502H15.4559L15.4559 143H8.95987L8.95987 141.502Z" fill="white" fill-opacity="0.9"/>
<rect x="24" y="137.5" width="72" height="1" rx="0.5" fill="#FF8000"/>
<circle cx="12" cy="138" r="12" fill="#2B2A28"/>
<path d="M11.6339 143.168C10.9059 143.168 10.2945 143.061 9.79987 142.846C9.3052 142.622 8.88053 142.319 8.52587 141.936L9.54787 140.802C9.77187 141.054 10.0519 141.259 10.3879 141.418C10.7332 141.577 11.1159 141.656 11.5359 141.656C12.0399 141.656 12.4459 141.544 12.7539 141.32C13.0619 141.096 13.2159 140.765 13.2159 140.326C13.2159 139.906 13.0712 139.598 12.7819 139.402C12.4925 139.206 12.1099 139.108 11.6339 139.108H10.7239V137.624H11.6339C12.0539 137.624 12.3665 137.517 12.5719 137.302C12.7772 137.078 12.8799 136.789 12.8799 136.434C12.8799 136.219 12.8425 136.037 12.7679 135.888C12.6932 135.739 12.5905 135.617 12.4599 135.524C12.3385 135.421 12.1939 135.351 12.0259 135.314C11.8579 135.267 11.6852 135.244 11.5079 135.244C11.1252 135.244 10.7752 135.319 10.4579 135.468C10.1405 135.617 9.87453 135.813 9.65987 136.056L8.69387 134.964C9.02987 134.591 9.43587 134.292 9.91187 134.068C10.3879 133.844 10.9759 133.732 11.6759 133.732C12.1332 133.732 12.5532 133.793 12.9359 133.914C13.3185 134.035 13.6452 134.208 13.9159 134.432C14.1865 134.647 14.3965 134.903 14.5459 135.202C14.6952 135.501 14.7699 135.832 14.7699 136.196C14.7699 136.672 14.6299 137.092 14.3499 137.456C14.0699 137.811 13.6639 138.081 13.1319 138.268V138.352C13.4119 138.408 13.6685 138.501 13.9019 138.632C14.1445 138.763 14.3499 138.926 14.5179 139.122C14.6952 139.309 14.8352 139.523 14.9379 139.766C15.0405 139.999 15.0919 140.256 15.0919 140.536C15.0919 140.919 15.0172 141.273 14.8679 141.6C14.7185 141.917 14.4945 142.193 14.1959 142.426C13.9065 142.659 13.5472 142.841 13.1179 142.972C12.6885 143.103 12.1939 143.168 11.6339 143.168Z" fill="white" fill-opacity="0.9"/>
<rect x="24" y="137.5" width="72" height="1" rx="0.5" fill="#FF8000"/>
<rect width="360" height="76" transform="translate(80)" fill="white"/>
<path d="M96 38C96 26.9543 104.954 18 116 18C127.046 18 136 26.9543 136 38C136 49.0457 127.046 58 116 58C104.954 58 96 49.0457 96 38Z" fill="#EFEDEA"/>
<path d="M96 38C96 26.9543 104.954 18 116 18C127.046 18 136 26.9543 136 38C136 49.0457 127.046 58 116 58C104.954 58 96 49.0457 96 38Z" fill="white" fill-opacity="0.01"/>
<path d="M110.066 33.6H111.842L115.586 44H114.13L113.314 41.712H108.53L107.714 44H106.338L110.066 33.6ZM108.93 40.56H112.914L110.962 34.736H110.866L108.93 40.56ZM120.144 33.6H121.92L125.664 44H124.208L123.392 41.712H118.608L117.792 44H116.416L120.144 33.6ZM119.008 40.56H122.992L121.04 34.736H120.944L119.008 40.56Z" fill="#242E30"/>
<path d="M149.472 23.6H152.72C153.787 23.6 154.603 23.8987 155.168 24.496C155.744 25.0827 156.032 25.8827 156.032 26.896C156.032 27.92 155.739 28.7307 155.152 29.328C154.565 29.9147 153.755 30.208 152.72 30.208H150.832V34H149.472V23.6ZM152.624 29.072C153.296 29.072 153.797 28.88 154.128 28.496C154.469 28.1013 154.64 27.568 154.64 26.896C154.64 26.224 154.469 25.696 154.128 25.312C153.797 24.928 153.296 24.736 152.624 24.736H150.832V29.072H152.624ZM158.032 26.096H159.248V27.376H159.344C159.515 26.96 159.76 26.6133 160.08 26.336C160.4 26.048 160.8 25.904 161.28 25.904C161.685 25.904 162.043 25.984 162.352 26.144L161.92 27.296C161.781 27.2213 161.632 27.1733 161.472 27.152C161.323 27.12 161.168 27.104 161.008 27.104C160.485 27.104 160.069 27.3173 159.76 27.744C159.461 28.16 159.312 28.6933 159.312 29.344V34H158.032V26.096ZM165.489 24C165.489 24.224 165.409 24.416 165.249 24.576C165.099 24.736 164.897 24.816 164.641 24.816C164.374 24.816 164.166 24.736 164.017 24.576C163.867 24.416 163.793 24.224 163.793 24C163.793 23.7867 163.867 23.6 164.017 23.44C164.166 23.2693 164.374 23.184 164.641 23.184C164.897 23.184 165.099 23.2693 165.249 23.44C165.409 23.6 165.489 23.7867 165.489 24ZM164.001 26.096H165.281V34H164.001V26.096ZM168.001 26.096H169.217V27.344H169.313C169.505 26.928 169.771 26.5867 170.113 26.32C170.465 26.0427 170.902 25.904 171.425 25.904C172.054 25.904 172.582 26.0213 173.009 26.256C173.446 26.48 173.771 26.8213 173.985 27.28C174.219 26.832 174.534 26.4907 174.929 26.256C175.323 26.0213 175.825 25.904 176.433 25.904C176.87 25.904 177.265 25.9627 177.617 26.08C177.969 26.1973 178.267 26.3787 178.513 26.624C178.769 26.8693 178.961 27.184 179.089 27.568C179.227 27.952 179.297 28.4107 179.297 28.944V34H178.017V29.184C178.017 28.3733 177.857 27.8027 177.537 27.472C177.227 27.1307 176.769 26.96 176.161 26.96C175.574 26.96 175.115 27.168 174.785 27.584C174.454 28 174.289 28.608 174.289 29.408V34H173.009V29.184C173.009 28.3733 172.849 27.8027 172.529 27.472C172.219 27.1307 171.761 26.96 171.153 26.96C170.577 26.96 170.118 27.168 169.777 27.584C169.446 28 169.281 28.608 169.281 29.408V34H168.001V26.096ZM183.62 34.192C183.257 34.192 182.921 34.1333 182.612 34.016C182.313 33.8987 182.052 33.7333 181.828 33.52C181.604 33.3067 181.428 33.056 181.3 32.768C181.182 32.4693 181.124 32.144 181.124 31.792C181.124 31.1093 181.369 30.56 181.86 30.144C182.35 29.728 183.049 29.4933 183.956 29.44L186.036 29.312V28.752C186.036 28.144 185.886 27.7067 185.588 27.44C185.3 27.1627 184.884 27.024 184.34 27.024C183.881 27.024 183.486 27.1093 183.156 27.28C182.825 27.4507 182.569 27.6373 182.388 27.84L181.62 27.072C181.897 26.7307 182.27 26.4533 182.74 26.24C183.22 26.016 183.764 25.904 184.372 25.904C184.916 25.904 185.374 25.9787 185.748 26.128C186.121 26.2667 186.42 26.4587 186.644 26.704C186.878 26.9493 187.044 27.2373 187.14 27.568C187.246 27.8987 187.3 28.2507 187.3 28.624V34H186.1V32.656H186.004C185.79 33.136 185.492 33.5147 185.108 33.792C184.724 34.0587 184.228 34.192 183.62 34.192ZM183.812 33.104C184.473 33.104 185.006 32.912 185.412 32.528C185.828 32.1333 186.036 31.6107 186.036 30.96V30.272L184.02 30.416C182.953 30.5013 182.42 30.9493 182.42 31.76C182.42 32.1653 182.548 32.4907 182.804 32.736C183.07 32.9813 183.406 33.104 183.812 33.104ZM189.876 26.096H191.092V27.376H191.188C191.358 26.96 191.604 26.6133 191.924 26.336C192.244 26.048 192.644 25.904 193.124 25.904C193.529 25.904 193.886 25.984 194.196 26.144L193.764 27.296C193.625 27.2213 193.476 27.1733 193.316 27.152C193.166 27.12 193.012 27.104 192.852 27.104C192.329 27.104 191.913 27.3173 191.604 27.744C191.305 28.16 191.156 28.6933 191.156 29.344V34H189.876V26.096ZM196.34 37.024C196.223 37.024 196.1 37.0133 195.972 36.992C195.855 36.9813 195.754 36.9653 195.668 36.944V35.84C195.722 35.8507 195.807 35.8613 195.924 35.872C196.052 35.8827 196.17 35.888 196.276 35.888C196.49 35.888 196.671 35.872 196.82 35.84C196.97 35.808 197.103 35.7333 197.22 35.616C197.348 35.5093 197.471 35.344 197.588 35.12C197.706 34.9067 197.834 34.6187 197.972 34.256L194.804 26.096H196.196L198.58 32.72H198.676L201.076 26.096H202.372L199.268 34.08C199.066 34.6027 198.868 35.0453 198.676 35.408C198.495 35.7813 198.292 36.0853 198.068 36.32C197.844 36.5653 197.594 36.7413 197.316 36.848C197.05 36.9653 196.724 37.024 196.34 37.024ZM210.323 34.192C209.609 34.192 209.086 33.9787 208.755 33.552C208.425 33.1253 208.259 32.5387 208.259 31.792V27.136H206.851V26.096H208.259V23.952H209.523V26.096H211.811V27.136H209.523V31.68C209.523 32.192 209.619 32.5493 209.811 32.752C210.014 32.9547 210.27 33.056 210.579 33.056C210.793 33.056 210.985 33.0187 211.155 32.944C211.326 32.8587 211.486 32.7467 211.635 32.608L212.211 33.504C211.721 33.9627 211.091 34.192 210.323 34.192ZM216.917 34.192C216.351 34.192 215.834 34.096 215.365 33.904C214.906 33.712 214.511 33.44 214.181 33.088C213.861 32.7253 213.61 32.288 213.429 31.776C213.258 31.264 213.173 30.688 213.173 30.048C213.173 29.376 213.263 28.784 213.445 28.272C213.626 27.7493 213.877 27.3173 214.197 26.976C214.517 26.624 214.895 26.3573 215.333 26.176C215.781 25.9947 216.271 25.904 216.805 25.904C217.338 25.904 217.829 25.9893 218.277 26.16C218.725 26.3307 219.109 26.5867 219.429 26.928C219.749 27.2587 219.999 27.68 220.181 28.192C220.362 28.6933 220.453 29.28 220.453 29.952C220.453 30.0373 220.447 30.1227 220.437 30.208C220.437 30.2933 220.431 30.3627 220.421 30.416H214.453C214.453 30.7893 214.517 31.1413 214.645 31.472C214.783 31.792 214.965 32.0747 215.189 32.32C215.423 32.5547 215.69 32.7413 215.989 32.88C216.298 33.0187 216.629 33.088 216.981 33.088C217.557 33.088 218.026 32.976 218.389 32.752C218.762 32.528 219.071 32.256 219.317 31.936L220.085 32.72C219.743 33.168 219.317 33.5253 218.805 33.792C218.303 34.0587 217.674 34.192 216.917 34.192ZM216.805 26.96C216.431 26.96 216.101 27.0293 215.813 27.168C215.525 27.3067 215.285 27.488 215.093 27.712C214.901 27.936 214.751 28.192 214.645 28.48C214.549 28.768 214.495 29.056 214.485 29.344H219.109C219.098 29.056 219.039 28.768 218.933 28.48C218.837 28.192 218.693 27.936 218.501 27.712C218.309 27.488 218.069 27.3067 217.781 27.168C217.503 27.0293 217.178 26.96 216.805 26.96ZM224.171 29.984L221.531 26.096H223.067L224.939 29.056H225.003L226.939 26.096H228.315L225.675 29.92L228.443 34H226.907L224.907 30.848H224.843L222.779 34H221.403L224.171 29.984ZM232.761 34.192C232.046 34.192 231.523 33.9787 231.193 33.552C230.862 33.1253 230.697 32.5387 230.697 31.792V27.136H229.289V26.096H230.697V23.952H231.961V26.096H234.249V27.136H231.961V31.68C231.961 32.192 232.057 32.5493 232.249 32.752C232.451 32.9547 232.707 33.056 233.017 33.056C233.23 33.056 233.422 33.0187 233.593 32.944C233.763 32.8587 233.923 32.7467 234.073 32.608L234.649 33.504C234.158 33.9627 233.529 34.192 232.761 34.192Z" fill="#242E30"/>
<path d="M151.668 55.168C150.875 55.168 150.231 55.0467 149.736 54.804C149.241 54.5613 148.849 54.2487 148.56 53.866L149.316 53.152C149.568 53.46 149.899 53.7027 150.31 53.88C150.73 54.0573 151.22 54.146 151.78 54.146C152.032 54.146 152.275 54.118 152.508 54.062C152.741 54.006 152.947 53.922 153.124 53.81C153.311 53.6887 153.455 53.53 153.558 53.334C153.67 53.138 153.726 52.9 153.726 52.62C153.726 52.3773 153.67 52.172 153.558 52.004C153.446 51.8267 153.292 51.6773 153.096 51.556C152.909 51.4253 152.685 51.3133 152.424 51.22C152.163 51.1173 151.878 51.0147 151.57 50.912C151.243 50.8 150.921 50.6833 150.604 50.562C150.287 50.4313 150.002 50.268 149.75 50.072C149.498 49.876 149.293 49.638 149.134 49.358C148.975 49.0687 148.896 48.714 148.896 48.294C148.896 47.874 148.971 47.5053 149.12 47.188C149.279 46.8707 149.493 46.6047 149.764 46.39C150.035 46.1753 150.357 46.012 150.73 45.9C151.103 45.788 151.509 45.732 151.948 45.732C152.592 45.732 153.166 45.844 153.67 46.068C154.183 46.292 154.599 46.6327 154.916 47.09L154.16 47.832C153.908 47.524 153.586 47.2673 153.194 47.062C152.802 46.8567 152.354 46.754 151.85 46.754C151.635 46.754 151.425 46.782 151.22 46.838C151.015 46.8847 150.828 46.9687 150.66 47.09C150.492 47.2113 150.357 47.3653 150.254 47.552C150.151 47.7387 150.1 47.9627 150.1 48.224C150.1 48.4667 150.156 48.6767 150.268 48.854C150.38 49.022 150.529 49.1713 150.716 49.302C150.912 49.4233 151.141 49.5353 151.402 49.638C151.663 49.7313 151.948 49.8293 152.256 49.932C152.583 50.044 152.905 50.1653 153.222 50.296C153.539 50.4267 153.824 50.59 154.076 50.786C154.328 50.982 154.533 51.22 154.692 51.5C154.851 51.78 154.93 52.13 154.93 52.55C154.93 52.998 154.841 53.39 154.664 53.726C154.496 54.0527 154.263 54.3233 153.964 54.538C153.675 54.7527 153.329 54.9113 152.928 55.014C152.536 55.1167 152.116 55.168 151.668 55.168ZM159.521 55.168C159.026 55.168 158.574 55.084 158.163 54.916C157.762 54.748 157.416 54.51 157.127 54.202C156.847 53.8847 156.628 53.502 156.469 53.054C156.32 52.606 156.245 52.102 156.245 51.542C156.245 50.954 156.324 50.436 156.483 49.988C156.642 49.5307 156.861 49.1527 157.141 48.854C157.421 48.546 157.752 48.3127 158.135 48.154C158.527 47.9953 158.956 47.916 159.423 47.916C159.89 47.916 160.319 47.9907 160.711 48.14C161.103 48.2893 161.439 48.5133 161.719 48.812C161.999 49.1013 162.218 49.47 162.377 49.918C162.536 50.3567 162.615 50.87 162.615 51.458C162.615 51.5327 162.61 51.6073 162.601 51.682C162.601 51.7567 162.596 51.8173 162.587 51.864H157.365C157.365 52.1907 157.421 52.4987 157.533 52.788C157.654 53.068 157.813 53.3153 158.009 53.53C158.214 53.7353 158.448 53.8987 158.709 54.02C158.98 54.1413 159.269 54.202 159.577 54.202C160.081 54.202 160.492 54.104 160.809 53.908C161.136 53.712 161.406 53.474 161.621 53.194L162.293 53.88C161.994 54.272 161.621 54.5847 161.173 54.818C160.734 55.0513 160.184 55.168 159.521 55.168ZM159.423 48.84C159.096 48.84 158.807 48.9007 158.555 49.022C158.303 49.1433 158.093 49.302 157.925 49.498C157.757 49.694 157.626 49.918 157.533 50.17C157.449 50.422 157.402 50.674 157.393 50.926H161.439C161.43 50.674 161.378 50.422 161.285 50.17C161.201 49.918 161.075 49.694 160.907 49.498C160.739 49.302 160.529 49.1433 160.277 49.022C160.034 48.9007 159.75 48.84 159.423 48.84ZM167.052 55.168C166.492 55.168 166.007 55.0653 165.596 54.86C165.195 54.6547 164.864 54.384 164.602 54.048C164.341 53.712 164.15 53.3293 164.028 52.9C163.907 52.4613 163.846 52.0087 163.846 51.542C163.846 51.0753 163.907 50.6273 164.028 50.198C164.15 49.7593 164.336 49.372 164.588 49.036C164.85 48.7 165.181 48.4293 165.582 48.224C165.984 48.0187 166.464 47.916 167.024 47.916C167.612 47.916 168.093 48.014 168.466 48.21C168.84 48.406 169.157 48.6673 169.418 48.994L168.718 49.652C168.494 49.4093 168.256 49.2227 168.004 49.092C167.762 48.952 167.444 48.882 167.052 48.882C166.436 48.882 165.937 49.12 165.554 49.596C165.181 50.0627 164.994 50.7113 164.994 51.542C164.994 51.9527 165.046 52.3213 165.148 52.648C165.251 52.9747 165.396 53.2547 165.582 53.488C165.769 53.7213 165.988 53.8987 166.24 54.02C166.492 54.1413 166.772 54.202 167.08 54.202C167.454 54.202 167.776 54.1367 168.046 54.006C168.317 53.866 168.569 53.6653 168.802 53.404L169.474 54.076C169.204 54.4027 168.872 54.6687 168.48 54.874C168.088 55.07 167.612 55.168 167.052 55.168ZM173.699 55.168C173.149 55.168 172.663 55.0747 172.243 54.888C171.833 54.692 171.487 54.4307 171.207 54.104C170.937 53.7773 170.731 53.3947 170.591 52.956C170.461 52.5173 170.395 52.046 170.395 51.542C170.395 51.038 170.461 50.5667 170.591 50.128C170.731 49.6893 170.937 49.3067 171.207 48.98C171.487 48.6533 171.833 48.3967 172.243 48.21C172.663 48.014 173.149 47.916 173.699 47.916C174.25 47.916 174.726 48.014 175.127 48.21C175.538 48.3967 175.879 48.6533 176.149 48.98C176.42 49.3067 176.621 49.6893 176.751 50.128C176.891 50.5667 176.961 51.038 176.961 51.542C176.961 52.046 176.891 52.5173 176.751 52.956C176.621 53.3947 176.42 53.7773 176.149 54.104C175.879 54.4307 175.538 54.692 175.127 54.888C174.726 55.0747 174.25 55.168 173.699 55.168ZM171.543 51.542C171.543 51.9433 171.585 52.312 171.669 52.648C171.763 52.9747 171.898 53.2593 172.075 53.502C172.253 53.7353 172.477 53.9173 172.747 54.048C173.018 54.1787 173.335 54.244 173.699 54.244C174.054 54.244 174.362 54.1787 174.623 54.048C174.894 53.9173 175.113 53.7353 175.281 53.502C175.459 53.2593 175.589 52.9747 175.673 52.648C175.767 52.312 175.813 51.9433 175.813 51.542C175.813 51.1407 175.767 50.7767 175.673 50.45C175.589 50.114 175.459 49.8293 175.281 49.596C175.113 49.3533 174.894 49.1667 174.623 49.036C174.362 48.9053 174.054 48.84 173.699 48.84C173.335 48.84 173.018 48.9053 172.747 49.036C172.477 49.1667 172.253 49.3533 172.075 49.596C171.898 49.8293 171.763 50.114 171.669 50.45C171.585 50.7767 171.543 51.1407 171.543 51.542ZM178.762 48.084H179.826V49.176H179.91C180.078 48.812 180.316 48.5133 180.624 48.28C180.932 48.0373 181.324 47.916 181.8 47.916C182.594 47.916 183.219 48.126 183.676 48.546C184.143 48.966 184.376 49.6427 184.376 50.576V55H183.256V50.786C183.256 50.0767 183.112 49.5773 182.822 49.288C182.542 48.9893 182.127 48.84 181.576 48.84C181.044 48.84 180.629 49.022 180.33 49.386C180.032 49.75 179.882 50.282 179.882 50.982V55H178.762V48.084ZM189.116 55.168C188.649 55.168 188.229 55.0793 187.856 54.902C187.482 54.7153 187.16 54.4633 186.89 54.146C186.619 53.8193 186.409 53.432 186.26 52.984C186.12 52.536 186.05 52.0507 186.05 51.528C186.05 51.0053 186.12 50.5247 186.26 50.086C186.409 49.638 186.619 49.2553 186.89 48.938C187.16 48.6113 187.482 48.3593 187.856 48.182C188.229 48.0047 188.649 47.916 189.116 47.916C189.685 47.916 190.175 48.0513 190.586 48.322C190.996 48.5927 191.29 48.938 191.468 49.358H191.552V44.85H192.672V55H191.608V53.586H191.524C191.44 53.8287 191.318 54.048 191.16 54.244C191.01 54.4307 190.828 54.594 190.614 54.734C190.408 54.874 190.175 54.9813 189.914 55.056C189.662 55.1307 189.396 55.168 189.116 55.168ZM189.396 54.16C189.694 54.16 189.974 54.1087 190.236 54.006C190.497 53.894 190.726 53.7307 190.922 53.516C191.118 53.292 191.272 53.0167 191.384 52.69C191.496 52.3633 191.552 51.9807 191.552 51.542C191.552 51.1033 191.496 50.7207 191.384 50.394C191.272 50.0673 191.118 49.7967 190.922 49.582C190.726 49.358 190.497 49.1947 190.236 49.092C189.974 48.98 189.694 48.924 189.396 48.924C189.088 48.924 188.798 48.98 188.528 49.092C188.266 49.1947 188.033 49.358 187.828 49.582C187.632 49.7967 187.478 50.0673 187.366 50.394C187.254 50.7207 187.198 51.1033 187.198 51.542C187.198 51.9807 187.254 52.3633 187.366 52.69C187.478 53.0167 187.632 53.292 187.828 53.516C188.033 53.7307 188.266 53.894 188.528 54.006C188.798 54.1087 189.088 54.16 189.396 54.16ZM196.571 55.168C196.254 55.168 195.96 55.1167 195.689 55.014C195.428 54.9113 195.199 54.7667 195.003 54.58C194.807 54.3933 194.653 54.174 194.541 53.922C194.439 53.6607 194.387 53.376 194.387 53.068C194.387 52.4707 194.602 51.99 195.031 51.626C195.461 51.262 196.072 51.0567 196.865 51.01L198.685 50.898V50.408C198.685 49.876 198.555 49.4933 198.293 49.26C198.041 49.0173 197.677 48.896 197.201 48.896C196.8 48.896 196.455 48.9707 196.165 49.12C195.876 49.2693 195.652 49.4327 195.493 49.61L194.821 48.938C195.064 48.6393 195.391 48.3967 195.801 48.21C196.221 48.014 196.697 47.916 197.229 47.916C197.705 47.916 198.107 47.9813 198.433 48.112C198.76 48.2333 199.021 48.4013 199.217 48.616C199.423 48.8307 199.567 49.0827 199.651 49.372C199.745 49.6613 199.791 49.9693 199.791 50.296V55H198.741V53.824H198.657C198.471 54.244 198.209 54.5753 197.873 54.818C197.537 55.0513 197.103 55.168 196.571 55.168ZM196.739 54.216C197.318 54.216 197.785 54.048 198.139 53.712C198.503 53.3667 198.685 52.9093 198.685 52.34V51.738L196.921 51.864C195.988 51.9387 195.521 52.3307 195.521 53.04C195.521 53.3947 195.633 53.6793 195.857 53.894C196.091 54.1087 196.385 54.216 196.739 54.216ZM202.045 48.084H203.109V49.204H203.193C203.343 48.84 203.557 48.5367 203.837 48.294C204.117 48.042 204.467 47.916 204.887 47.916C205.242 47.916 205.555 47.986 205.825 48.126L205.447 49.134C205.326 49.0687 205.195 49.0267 205.055 49.008C204.925 48.98 204.789 48.966 204.649 48.966C204.192 48.966 203.828 49.1527 203.557 49.526C203.296 49.89 203.165 50.3567 203.165 50.926V55H202.045V48.084ZM207.702 57.646C207.599 57.646 207.492 57.6367 207.38 57.618C207.277 57.6087 207.189 57.5947 207.114 57.576V56.61C207.161 56.6193 207.235 56.6287 207.338 56.638C207.45 56.6473 207.553 56.652 207.646 56.652C207.833 56.652 207.991 56.638 208.122 56.61C208.253 56.582 208.369 56.5167 208.472 56.414C208.584 56.3207 208.691 56.176 208.794 55.98C208.897 55.7933 209.009 55.5413 209.13 55.224L206.358 48.084H207.576L209.662 53.88H209.746L211.846 48.084H212.98L210.264 55.07C210.087 55.5273 209.914 55.9147 209.746 56.232C209.587 56.5587 209.41 56.8247 209.214 57.03C209.018 57.2447 208.799 57.3987 208.556 57.492C208.323 57.5947 208.038 57.646 207.702 57.646ZM219.937 55.168C219.312 55.168 218.854 54.9813 218.565 54.608C218.276 54.2347 218.131 53.7213 218.131 53.068V48.994H216.899V48.084H218.131V46.208H219.237V48.084H221.239V48.994H219.237V52.97C219.237 53.418 219.321 53.7307 219.489 53.908C219.666 54.0853 219.89 54.174 220.161 54.174C220.348 54.174 220.516 54.1413 220.665 54.076C220.814 54.0013 220.954 53.9033 221.085 53.782L221.589 54.566C221.16 54.9673 220.609 55.168 219.937 55.168ZM225.706 55.168C225.212 55.168 224.759 55.084 224.348 54.916C223.947 54.748 223.602 54.51 223.312 54.202C223.032 53.8847 222.813 53.502 222.654 53.054C222.505 52.606 222.43 52.102 222.43 51.542C222.43 50.954 222.51 50.436 222.668 49.988C222.827 49.5307 223.046 49.1527 223.326 48.854C223.606 48.546 223.938 48.3127 224.32 48.154C224.712 47.9953 225.142 47.916 225.608 47.916C226.075 47.916 226.504 47.9907 226.896 48.14C227.288 48.2893 227.624 48.5133 227.904 48.812C228.184 49.1013 228.404 49.47 228.562 49.918C228.721 50.3567 228.8 50.87 228.8 51.458C228.8 51.5327 228.796 51.6073 228.786 51.682C228.786 51.7567 228.782 51.8173 228.772 51.864H223.55C223.55 52.1907 223.606 52.4987 223.718 52.788C223.84 53.068 223.998 53.3153 224.194 53.53C224.4 53.7353 224.633 53.8987 224.894 54.02C225.165 54.1413 225.454 54.202 225.762 54.202C226.266 54.202 226.677 54.104 226.994 53.908C227.321 53.712 227.592 53.474 227.806 53.194L228.478 53.88C228.18 54.272 227.806 54.5847 227.358 54.818C226.92 55.0513 226.369 55.168 225.706 55.168ZM225.608 48.84C225.282 48.84 224.992 48.9007 224.74 49.022C224.488 49.1433 224.278 49.302 224.11 49.498C223.942 49.694 223.812 49.918 223.718 50.17C223.634 50.422 223.588 50.674 223.578 50.926H227.624C227.615 50.674 227.564 50.422 227.47 50.17C227.386 49.918 227.26 49.694 227.092 49.498C226.924 49.302 226.714 49.1433 226.462 49.022C226.22 48.9007 225.935 48.84 225.608 48.84ZM232.054 51.486L229.744 48.084H231.088L232.726 50.674H232.782L234.476 48.084H235.68L233.37 51.43L235.792 55H234.448L232.698 52.242H232.642L230.836 55H229.632L232.054 51.486ZM239.57 55.168C238.945 55.168 238.487 54.9813 238.198 54.608C237.909 54.2347 237.764 53.7213 237.764 53.068V48.994H236.532V48.084H237.764V46.208H238.87V48.084H240.872V48.994H238.87V52.97C238.87 53.418 238.954 53.7307 239.122 53.908C239.299 54.0853 239.523 54.174 239.794 54.174C239.981 54.174 240.149 54.1413 240.298 54.076C240.447 54.0013 240.587 53.9033 240.718 53.782L241.222 54.566C240.793 54.9673 240.242 55.168 239.57 55.168Z" fill="#3C4C4F"/>
<path d="M375 24C375 19.5817 378.582 16 383 16H416C420.418 16 424 19.5817 424 24V32C424 36.4183 420.418 40 416 40H383C378.582 40 375 36.4183 375 32V24Z" fill="#EFEDEA"/>
<path d="M384.288 23.9H385.478V31.992H388.992V33H384.288V23.9ZM392.183 33.168C391.865 33.168 391.571 33.1167 391.301 33.014C391.039 32.9113 390.811 32.7667 390.615 32.58C390.419 32.3933 390.265 32.174 390.153 31.922C390.05 31.6607 389.999 31.376 389.999 31.068C389.999 30.4707 390.213 29.99 390.643 29.626C391.072 29.262 391.683 29.0567 392.477 29.01L394.297 28.898V28.408C394.297 27.876 394.166 27.4933 393.905 27.26C393.653 27.0173 393.289 26.896 392.813 26.896C392.411 26.896 392.066 26.9707 391.777 27.12C391.487 27.2693 391.263 27.4327 391.105 27.61L390.433 26.938C390.675 26.6393 391.002 26.3967 391.413 26.21C391.833 26.014 392.309 25.916 392.841 25.916C393.317 25.916 393.718 25.9813 394.045 26.112C394.371 26.2333 394.633 26.4013 394.829 26.616C395.034 26.8307 395.179 27.0827 395.263 27.372C395.356 27.6613 395.403 27.9693 395.403 28.296V33H394.353V31.824H394.269C394.082 32.244 393.821 32.5753 393.485 32.818C393.149 33.0513 392.715 33.168 392.183 33.168ZM392.351 32.216C392.929 32.216 393.396 32.048 393.751 31.712C394.115 31.3667 394.297 30.9093 394.297 30.34V29.738L392.533 29.864C391.599 29.9387 391.133 30.3307 391.133 31.04C391.133 31.3947 391.245 31.6793 391.469 31.894C391.702 32.1087 391.996 32.216 392.351 32.216ZM401.213 33.168C400.933 33.168 400.662 33.1307 400.401 33.056C400.149 32.9813 399.915 32.874 399.701 32.734C399.495 32.594 399.313 32.4307 399.155 32.244C399.005 32.048 398.889 31.8287 398.805 31.586H398.721V33H397.657V22.85H398.777V27.358H398.861C399.038 26.938 399.332 26.5927 399.743 26.322C400.153 26.0513 400.643 25.916 401.213 25.916C401.67 25.916 402.085 26.0047 402.459 26.182C402.841 26.3593 403.168 26.6113 403.439 26.938C403.709 27.2553 403.915 27.638 404.055 28.086C404.204 28.5247 404.279 29.0053 404.279 29.528C404.279 30.0507 404.204 30.536 404.055 30.984C403.915 31.432 403.709 31.8193 403.439 32.146C403.168 32.4633 402.841 32.7153 402.459 32.902C402.085 33.0793 401.67 33.168 401.213 33.168ZM400.933 32.16C401.241 32.16 401.525 32.1087 401.787 32.006C402.057 31.894 402.291 31.7307 402.487 31.516C402.692 31.292 402.851 31.0167 402.963 30.69C403.075 30.3633 403.131 29.9807 403.131 29.542C403.131 29.1033 403.075 28.7207 402.963 28.394C402.851 28.0673 402.692 27.7967 402.487 27.582C402.291 27.358 402.057 27.1947 401.787 27.092C401.525 26.98 401.241 26.924 400.933 26.924C400.634 26.924 400.354 26.98 400.093 27.092C399.831 27.1947 399.603 27.358 399.407 27.582C399.211 27.7967 399.057 28.0673 398.945 28.394C398.833 28.7207 398.777 29.1033 398.777 29.542C398.777 29.9807 398.833 30.3633 398.945 30.69C399.057 31.0167 399.211 31.292 399.407 31.516C399.603 31.7307 399.831 31.894 400.093 32.006C400.354 32.1087 400.634 32.16 400.933 32.16ZM408.781 33.168C408.286 33.168 407.833 33.084 407.423 32.916C407.021 32.748 406.676 32.51 406.387 32.202C406.107 31.8847 405.887 31.502 405.729 31.054C405.579 30.606 405.505 30.102 405.505 29.542C405.505 28.954 405.584 28.436 405.743 27.988C405.901 27.5307 406.121 27.1527 406.401 26.854C406.681 26.546 407.012 26.3127 407.395 26.154C407.787 25.9953 408.216 25.916 408.683 25.916C409.149 25.916 409.579 25.9907 409.971 26.14C410.363 26.2893 410.699 26.5133 410.979 26.812C411.259 27.1013 411.478 27.47 411.637 27.918C411.795 28.3567 411.875 28.87 411.875 29.458C411.875 29.5327 411.87 29.6073 411.861 29.682C411.861 29.7567 411.856 29.8173 411.847 29.864H406.625C406.625 30.1907 406.681 30.4987 406.793 30.788C406.914 31.068 407.073 31.3153 407.269 31.53C407.474 31.7353 407.707 31.8987 407.969 32.02C408.239 32.1413 408.529 32.202 408.837 32.202C409.341 32.202 409.751 32.104 410.069 31.908C410.395 31.712 410.666 31.474 410.881 31.194L411.553 31.88C411.254 32.272 410.881 32.5847 410.433 32.818C409.994 33.0513 409.443 33.168 408.781 33.168ZM408.683 26.84C408.356 26.84 408.067 26.9007 407.815 27.022C407.563 27.1433 407.353 27.302 407.185 27.498C407.017 27.694 406.886 27.918 406.793 28.17C406.709 28.422 406.662 28.674 406.653 28.926H410.699C410.689 28.674 410.638 28.422 410.545 28.17C410.461 27.918 410.335 27.694 410.167 27.498C409.999 27.302 409.789 27.1433 409.537 27.022C409.294 26.9007 409.009 26.84 408.683 26.84ZM413.68 22.85H414.8V33H413.68V22.85Z" fill="#242E30"/>
<rect width="360" height="1" transform="translate(80 75)" fill="black" fill-opacity="0.08"/>
<rect width="360" height="76" transform="translate(80)" fill="white"/>
<path d="M96 38C96 26.9543 104.954 18 116 18C127.046 18 136 26.9543 136 38C136 49.0457 127.046 58 116 58C104.954 58 96 49.0457 96 38Z" fill="#EFEDEA"/>
<path d="M96 38C96 26.9543 104.954 18 116 18C127.046 18 136 26.9543 136 38C136 49.0457 127.046 58 116 58C104.954 58 96 49.0457 96 38Z" fill="white" fill-opacity="0.01"/>
<path d="M110.066 33.6H111.842L115.586 44H114.13L113.314 41.712H108.53L107.714 44H106.338L110.066 33.6ZM108.93 40.56H112.914L110.962 34.736H110.866L108.93 40.56ZM120.144 33.6H121.92L125.664 44H124.208L123.392 41.712H118.608L117.792 44H116.416L120.144 33.6ZM119.008 40.56H122.992L121.04 34.736H120.944L119.008 40.56Z" fill="#242E30"/>
<path d="M149.472 34V23.6H152.72C153.424 23.6 154.021 23.7333 154.512 24C155.013 24.2667 155.392 24.6507 155.648 25.152C155.904 25.6427 156.032 26.224 156.032 26.896C156.032 27.408 155.952 27.8667 155.792 28.272C155.643 28.6773 155.424 29.024 155.136 29.312C154.859 29.6 154.512 29.824 154.096 29.984C153.691 30.1333 153.232 30.208 152.72 30.208H150.832V34H149.472ZM150.832 29.072H152.624C153.072 29.072 153.445 28.9867 153.744 28.816C154.043 28.6347 154.267 28.384 154.416 28.064C154.565 27.7333 154.64 27.344 154.64 26.896C154.64 26.2347 154.469 25.712 154.128 25.328C153.797 24.9333 153.296 24.736 152.624 24.736H150.832V29.072ZM158.032 34V26.096H159.248V27.376H159.344C159.515 26.96 159.76 26.6133 160.08 26.336C160.411 26.048 160.811 25.904 161.28 25.904C161.472 25.904 161.659 25.9253 161.84 25.968C162.032 26 162.203 26.0587 162.352 26.144L161.92 27.296C161.781 27.2213 161.632 27.1733 161.472 27.152C161.323 27.12 161.168 27.104 161.008 27.104C160.485 27.104 160.069 27.3173 159.76 27.744C159.461 28.16 159.312 28.6933 159.312 29.344V34H158.032ZM164.001 34V26.096H165.281V34H164.001ZM164.641 24.816C164.374 24.816 164.166 24.736 164.017 24.576C163.867 24.416 163.793 24.224 163.793 24C163.793 23.7867 163.867 23.6 164.017 23.44C164.166 23.2693 164.374 23.184 164.641 23.184C164.897 23.184 165.099 23.2693 165.249 23.44C165.409 23.6 165.489 23.7867 165.489 24C165.489 24.224 165.409 24.416 165.249 24.576C165.099 24.736 164.897 24.816 164.641 24.816ZM168.001 34V26.096H169.217V27.344H169.313C169.505 26.928 169.771 26.5867 170.113 26.32C170.465 26.0427 170.902 25.904 171.425 25.904C172.054 25.904 172.587 26.0213 173.025 26.256C173.462 26.48 173.782 26.8213 173.985 27.28C174.145 26.9813 174.337 26.7307 174.561 26.528C174.785 26.3253 175.051 26.1707 175.361 26.064C175.681 25.9573 176.038 25.904 176.433 25.904C177.019 25.904 177.526 26.0107 177.953 26.224C178.379 26.4267 178.71 26.752 178.945 27.2C179.179 27.648 179.297 28.2293 179.297 28.944V34H178.017V29.184C178.017 28.64 177.942 28.208 177.793 27.888C177.654 27.5573 177.446 27.3227 177.169 27.184C176.902 27.0347 176.566 26.96 176.161 26.96C175.574 26.96 175.115 27.168 174.785 27.584C174.454 28 174.289 28.608 174.289 29.408V34H173.009V29.184C173.009 28.64 172.939 28.208 172.801 27.888C172.662 27.5573 172.454 27.3227 172.177 27.184C171.899 27.0347 171.558 26.96 171.153 26.96C170.577 26.96 170.118 27.168 169.777 27.584C169.446 28 169.281 28.608 169.281 29.408V34H168.001ZM183.62 34.192C183.14 34.192 182.708 34.0907 182.324 33.888C181.95 33.6853 181.657 33.4027 181.444 33.04C181.23 32.6773 181.124 32.2613 181.124 31.792C181.124 31.3333 181.23 30.9387 181.444 30.608C181.668 30.2667 181.993 29.9947 182.42 29.792C182.846 29.5893 183.358 29.472 183.956 29.44L186.036 29.312V28.752C186.036 28.3467 185.966 28.0213 185.828 27.776C185.7 27.52 185.508 27.3333 185.252 27.216C185.006 27.088 184.702 27.024 184.34 27.024C183.881 27.024 183.486 27.1093 183.156 27.28C182.825 27.4507 182.569 27.6373 182.388 27.84L181.62 27.072C181.897 26.7307 182.276 26.4533 182.756 26.24C183.236 26.016 183.774 25.904 184.372 25.904C185.097 25.904 185.673 26.0267 186.1 26.272C186.526 26.5173 186.83 26.848 187.012 27.264C187.204 27.6693 187.3 28.1227 187.3 28.624V34H186.1V32.656H186.004C185.801 33.1253 185.502 33.4987 185.108 33.776C184.713 34.0533 184.217 34.192 183.62 34.192ZM183.812 33.104C184.473 33.104 185.006 32.912 185.412 32.528C185.828 32.1333 186.036 31.6107 186.036 30.96V30.272L184.02 30.416C183.497 30.4587 183.097 30.592 182.82 30.816C182.553 31.04 182.42 31.3547 182.42 31.76C182.42 32.1653 182.548 32.4907 182.804 32.736C183.07 32.9813 183.406 33.104 183.812 33.104ZM189.876 34V26.096H191.092V27.376H191.188C191.358 26.96 191.604 26.6133 191.924 26.336C192.254 26.048 192.654 25.904 193.124 25.904C193.316 25.904 193.502 25.9253 193.684 25.968C193.876 26 194.046 26.0587 194.196 26.144L193.764 27.296C193.625 27.2213 193.476 27.1733 193.316 27.152C193.166 27.12 193.012 27.104 192.852 27.104C192.329 27.104 191.913 27.3173 191.604 27.744C191.305 28.16 191.156 28.6933 191.156 29.344V34H189.876ZM196.34 37.024C196.234 37.024 196.116 37.0133 195.988 36.992C195.86 36.9813 195.754 36.9653 195.668 36.944V35.84C195.722 35.8507 195.807 35.8613 195.924 35.872C196.052 35.8827 196.17 35.888 196.276 35.888C196.564 35.888 196.799 35.8507 196.98 35.776C197.162 35.712 197.327 35.5627 197.476 35.328C197.626 35.0933 197.791 34.736 197.972 34.256L194.804 26.096H196.196L198.58 32.72H198.676L201.076 26.096H202.372L199.268 34.08C199.002 34.7733 198.74 35.3333 198.484 35.76C198.228 36.1973 197.935 36.5173 197.604 36.72C197.274 36.9227 196.852 37.024 196.34 37.024ZM210.323 34.192C209.854 34.192 209.465 34.096 209.155 33.904C208.846 33.712 208.617 33.4347 208.467 33.072C208.329 32.7093 208.259 32.2827 208.259 31.792V27.136H206.851V26.096H208.259V23.952H209.523V26.096H211.811V27.136H209.523V31.68C209.523 32.192 209.619 32.5493 209.811 32.752C210.014 32.9547 210.27 33.056 210.579 33.056C210.793 33.056 210.985 33.0187 211.155 32.944C211.326 32.8587 211.486 32.7467 211.635 32.608L212.211 33.504C211.966 33.7387 211.683 33.9093 211.363 34.016C211.054 34.1333 210.707 34.192 210.323 34.192ZM216.917 34.192C216.159 34.192 215.498 34.0267 214.933 33.696C214.378 33.3653 213.946 32.8907 213.637 32.272C213.327 31.6427 213.173 30.9013 213.173 30.048C213.173 29.376 213.258 28.784 213.429 28.272C213.61 27.7493 213.861 27.3173 214.181 26.976C214.511 26.624 214.895 26.3573 215.333 26.176C215.781 25.9947 216.271 25.904 216.805 25.904C217.338 25.904 217.823 25.9893 218.261 26.16C218.709 26.3307 219.093 26.5867 219.413 26.928C219.743 27.2587 219.999 27.68 220.181 28.192C220.362 28.6933 220.453 29.28 220.453 29.952C220.453 30.0373 220.447 30.1227 220.437 30.208C220.437 30.2933 220.431 30.3627 220.421 30.416H214.453C214.463 30.9067 214.581 31.3547 214.805 31.76C215.029 32.1653 215.327 32.4907 215.701 32.736C216.085 32.9707 216.511 33.088 216.981 33.088C217.546 33.088 218.015 32.976 218.389 32.752C218.762 32.528 219.071 32.256 219.317 31.936L220.085 32.72C219.754 33.168 219.333 33.5253 218.821 33.792C218.309 34.0587 217.674 34.192 216.917 34.192ZM216.805 26.96C216.303 26.96 215.882 27.0773 215.541 27.312C215.199 27.5467 214.938 27.8453 214.757 28.208C214.586 28.5707 214.495 28.9493 214.485 29.344H219.109C219.098 28.9493 219.002 28.5707 218.821 28.208C218.65 27.8453 218.394 27.5467 218.053 27.312C217.722 27.0773 217.306 26.96 216.805 26.96ZM221.403 34L224.171 29.984L221.531 26.096H223.067L224.939 29.056H225.003L226.939 26.096H228.315L225.675 29.92L228.443 34H226.907L224.907 30.848H224.843L222.779 34H221.403ZM232.761 34.192C232.291 34.192 231.902 34.096 231.593 33.904C231.283 33.712 231.054 33.4347 230.905 33.072C230.766 32.7093 230.697 32.2827 230.697 31.792V27.136H229.289V26.096H230.697V23.952H231.961V26.096H234.249V27.136H231.961V31.68C231.961 32.192 232.057 32.5493 232.249 32.752C232.451 32.9547 232.707 33.056 233.017 33.056C233.23 33.056 233.422 33.0187 233.593 32.944C233.763 32.8587 233.923 32.7467 234.073 32.608L234.649 33.504C234.403 33.7387 234.121 33.9093 233.801 34.016C233.491 34.1333 233.145 34.192 232.761 34.192Z" fill="black" fill-opacity="0.76"/>
<path d="M151.668 55.168C150.875 55.168 150.231 55.0467 149.736 54.804C149.241 54.552 148.849 54.2393 148.56 53.866L149.316 53.152C149.568 53.46 149.904 53.7027 150.324 53.88C150.744 54.0573 151.229 54.146 151.78 54.146C152.116 54.146 152.429 54.0993 152.718 54.006C153.017 53.9033 153.259 53.74 153.446 53.516C153.633 53.292 153.726 52.9933 153.726 52.62C153.726 52.2933 153.628 52.032 153.432 51.836C153.245 51.6307 152.989 51.458 152.662 51.318C152.345 51.178 151.981 51.0427 151.57 50.912C151.243 50.8 150.921 50.6787 150.604 50.548C150.287 50.4173 149.997 50.2587 149.736 50.072C149.484 49.876 149.279 49.638 149.12 49.358C148.971 49.0687 148.896 48.714 148.896 48.294C148.896 47.874 148.971 47.5053 149.12 47.188C149.269 46.8707 149.479 46.6047 149.75 46.39C150.03 46.1753 150.357 46.012 150.73 45.9C151.103 45.788 151.509 45.732 151.948 45.732C152.592 45.732 153.166 45.844 153.67 46.068C154.183 46.292 154.599 46.6327 154.916 47.09L154.16 47.832C153.908 47.524 153.581 47.2673 153.18 47.062C152.788 46.8567 152.345 46.754 151.85 46.754C151.57 46.754 151.295 46.8053 151.024 46.908C150.763 47.0013 150.543 47.1553 150.366 47.37C150.189 47.5847 150.1 47.8693 150.1 48.224C150.1 48.5507 150.193 48.8167 150.38 49.022C150.576 49.218 150.837 49.386 151.164 49.526C151.491 49.6567 151.855 49.792 152.256 49.932C152.583 50.044 152.905 50.1653 153.222 50.296C153.539 50.4267 153.824 50.59 154.076 50.786C154.337 50.9727 154.543 51.2107 154.692 51.5C154.851 51.78 154.93 52.13 154.93 52.55C154.93 52.998 154.846 53.39 154.678 53.726C154.51 54.0527 154.277 54.3233 153.978 54.538C153.679 54.7527 153.329 54.9113 152.928 55.014C152.536 55.1167 152.116 55.168 151.668 55.168ZM159.521 55.168C158.858 55.168 158.28 55.0233 157.785 54.734C157.3 54.4447 156.922 54.0293 156.651 53.488C156.38 52.9373 156.245 52.2887 156.245 51.542C156.245 50.954 156.32 50.436 156.469 49.988C156.628 49.5307 156.847 49.1527 157.127 48.854C157.416 48.546 157.752 48.3127 158.135 48.154C158.527 47.9953 158.956 47.916 159.423 47.916C159.89 47.916 160.314 47.9907 160.697 48.14C161.089 48.2893 161.425 48.5133 161.705 48.812C161.994 49.1013 162.218 49.47 162.377 49.918C162.536 50.3567 162.615 50.87 162.615 51.458C162.615 51.5327 162.61 51.6073 162.601 51.682C162.601 51.7567 162.596 51.8173 162.587 51.864H157.365C157.374 52.2933 157.477 52.6853 157.673 53.04C157.869 53.3947 158.13 53.6793 158.457 53.894C158.793 54.0993 159.166 54.202 159.577 54.202C160.072 54.202 160.482 54.104 160.809 53.908C161.136 53.712 161.406 53.474 161.621 53.194L162.293 53.88C162.004 54.272 161.635 54.5847 161.187 54.818C160.739 55.0513 160.184 55.168 159.521 55.168ZM159.423 48.84C158.984 48.84 158.616 48.9427 158.317 49.148C158.018 49.3533 157.79 49.6147 157.631 49.932C157.482 50.2493 157.402 50.5807 157.393 50.926H161.439C161.43 50.5807 161.346 50.2493 161.187 49.932C161.038 49.6147 160.814 49.3533 160.515 49.148C160.226 48.9427 159.862 48.84 159.423 48.84ZM167.052 55.168C166.306 55.168 165.694 54.9953 165.218 54.65C164.742 54.3047 164.392 53.8567 164.168 53.306C163.954 52.746 163.846 52.158 163.846 51.542C163.846 50.9167 163.954 50.3287 164.168 49.778C164.383 49.2273 164.724 48.7793 165.19 48.434C165.666 48.0887 166.278 47.916 167.024 47.916C167.603 47.916 168.079 48.014 168.452 48.21C168.835 48.406 169.157 48.6673 169.418 48.994L168.718 49.652C168.494 49.4093 168.256 49.2227 168.004 49.092C167.762 48.952 167.444 48.882 167.052 48.882C166.651 48.882 166.292 48.9893 165.974 49.204C165.666 49.4187 165.424 49.7267 165.246 50.128C165.078 50.52 164.994 50.9913 164.994 51.542C164.994 52.3633 165.19 53.012 165.582 53.488C165.974 53.964 166.474 54.202 167.08 54.202C167.454 54.202 167.776 54.1367 168.046 54.006C168.317 53.866 168.569 53.6653 168.802 53.404L169.474 54.076C169.213 54.4027 168.882 54.6687 168.48 54.874C168.088 55.07 167.612 55.168 167.052 55.168ZM173.699 55.168C172.962 55.168 172.346 55.0047 171.851 54.678C171.366 54.3513 171.002 53.9127 170.759 53.362C170.517 52.8113 170.395 52.2047 170.395 51.542C170.395 51.038 170.461 50.5667 170.591 50.128C170.731 49.6893 170.937 49.3067 171.207 48.98C171.487 48.644 171.833 48.3827 172.243 48.196C172.663 48.0093 173.149 47.916 173.699 47.916C174.437 47.916 175.043 48.0793 175.519 48.406C176.005 48.7327 176.364 49.1713 176.597 49.722C176.84 50.2633 176.961 50.87 176.961 51.542C176.961 52.046 176.891 52.5173 176.751 52.956C176.621 53.3947 176.42 53.782 176.149 54.118C175.879 54.4447 175.538 54.7013 175.127 54.888C174.726 55.0747 174.25 55.168 173.699 55.168ZM171.543 51.542C171.543 52.074 171.623 52.5453 171.781 52.956C171.94 53.3573 172.178 53.6747 172.495 53.908C172.813 54.132 173.214 54.244 173.699 54.244C174.175 54.244 174.567 54.132 174.875 53.908C175.193 53.6747 175.426 53.3573 175.575 52.956C175.734 52.5453 175.813 52.074 175.813 51.542C175.813 51.01 175.734 50.5433 175.575 50.142C175.426 49.7313 175.193 49.414 174.875 49.19C174.567 48.9567 174.175 48.84 173.699 48.84C173.214 48.84 172.813 48.9567 172.495 49.19C172.178 49.414 171.94 49.7313 171.781 50.142C171.623 50.5433 171.543 51.01 171.543 51.542ZM178.762 55V48.084H179.826V49.176H179.91C180.022 48.9333 180.167 48.7187 180.344 48.532C180.522 48.336 180.732 48.1867 180.974 48.084C181.217 47.972 181.492 47.916 181.8 47.916C182.594 47.916 183.219 48.126 183.676 48.546C184.143 48.9567 184.376 49.6333 184.376 50.576V55H183.256V50.786C183.256 50.0767 183.112 49.5773 182.822 49.288C182.542 48.9893 182.127 48.84 181.576 48.84C181.054 48.84 180.638 49.022 180.33 49.386C180.032 49.75 179.882 50.282 179.882 50.982V55H178.762ZM189.116 55.168C188.5 55.168 187.963 55.0093 187.506 54.692C187.048 54.3747 186.689 53.9453 186.428 53.404C186.176 52.8533 186.05 52.228 186.05 51.528C186.05 50.828 186.176 50.2073 186.428 49.666C186.689 49.1153 187.048 48.686 187.506 48.378C187.963 48.07 188.5 47.916 189.116 47.916C189.685 47.916 190.175 48.0513 190.586 48.322C190.996 48.5927 191.29 48.938 191.468 49.358H191.552V44.85H192.672V55H191.608V53.586H191.524C191.365 54.062 191.066 54.4447 190.628 54.734C190.189 55.0233 189.685 55.168 189.116 55.168ZM189.396 54.16C189.797 54.16 190.156 54.0667 190.474 53.88C190.8 53.684 191.062 53.39 191.258 52.998C191.454 52.606 191.552 52.1207 191.552 51.542C191.552 50.954 191.454 50.4687 191.258 50.086C191.062 49.694 190.8 49.4047 190.474 49.218C190.156 49.022 189.797 48.924 189.396 48.924C188.985 48.924 188.612 49.022 188.276 49.218C187.949 49.4047 187.688 49.694 187.492 50.086C187.296 50.4687 187.198 50.954 187.198 51.542C187.198 52.1207 187.296 52.606 187.492 52.998C187.688 53.39 187.949 53.684 188.276 53.88C188.612 54.0667 188.985 54.16 189.396 54.16ZM196.571 55.168C196.151 55.168 195.773 55.0793 195.437 54.902C195.111 54.7247 194.854 54.4773 194.667 54.16C194.481 53.8427 194.387 53.4787 194.387 53.068C194.387 52.6667 194.481 52.3213 194.667 52.032C194.863 51.7333 195.148 51.4953 195.521 51.318C195.895 51.1407 196.343 51.038 196.865 51.01L198.685 50.898V50.408C198.685 50.0533 198.625 49.7687 198.503 49.554C198.391 49.33 198.223 49.1667 197.999 49.064C197.785 48.952 197.519 48.896 197.201 48.896C196.8 48.896 196.455 48.9707 196.165 49.12C195.876 49.2693 195.652 49.4327 195.493 49.61L194.821 48.938C195.064 48.6393 195.395 48.3967 195.815 48.21C196.235 48.014 196.707 47.916 197.229 47.916C197.864 47.916 198.368 48.0233 198.741 48.238C199.115 48.4527 199.381 48.742 199.539 49.106C199.707 49.4607 199.791 49.8573 199.791 50.296V55H198.741V53.824H198.657C198.48 54.2347 198.219 54.5613 197.873 54.804C197.528 55.0467 197.094 55.168 196.571 55.168ZM196.739 54.216C197.318 54.216 197.785 54.048 198.139 53.712C198.503 53.3667 198.685 52.9093 198.685 52.34V51.738L196.921 51.864C196.464 51.9013 196.114 52.018 195.871 52.214C195.638 52.41 195.521 52.6853 195.521 53.04C195.521 53.3947 195.633 53.6793 195.857 53.894C196.091 54.1087 196.385 54.216 196.739 54.216ZM202.045 55V48.084H203.109V49.204H203.193C203.343 48.84 203.557 48.5367 203.837 48.294C204.127 48.042 204.477 47.916 204.887 47.916C205.055 47.916 205.219 47.9347 205.377 47.972C205.545 48 205.695 48.0513 205.825 48.126L205.447 49.134C205.326 49.0687 205.195 49.0267 205.055 49.008C204.925 48.98 204.789 48.966 204.649 48.966C204.192 48.966 203.828 49.1527 203.557 49.526C203.296 49.89 203.165 50.3567 203.165 50.926V55H202.045ZM207.702 57.646C207.609 57.646 207.506 57.6367 207.394 57.618C207.282 57.6087 207.189 57.5947 207.114 57.576V56.61C207.161 56.6193 207.235 56.6287 207.338 56.638C207.45 56.6473 207.553 56.652 207.646 56.652C207.898 56.652 208.103 56.6193 208.262 56.554C208.421 56.498 208.565 56.3673 208.696 56.162C208.827 55.9567 208.971 55.644 209.13 55.224L206.358 48.084H207.576L209.662 53.88H209.746L211.846 48.084H212.98L210.264 55.07C210.031 55.6767 209.802 56.1667 209.578 56.54C209.354 56.9227 209.097 57.2027 208.808 57.38C208.519 57.5573 208.15 57.646 207.702 57.646ZM219.937 55.168C219.526 55.168 219.186 55.084 218.915 54.916C218.644 54.748 218.444 54.5053 218.313 54.188C218.192 53.8707 218.131 53.4973 218.131 53.068V48.994H216.899V48.084H218.131V46.208H219.237V48.084H221.239V48.994H219.237V52.97C219.237 53.418 219.321 53.7307 219.489 53.908C219.666 54.0853 219.89 54.174 220.161 54.174C220.348 54.174 220.516 54.1413 220.665 54.076C220.814 54.0013 220.954 53.9033 221.085 53.782L221.589 54.566C221.374 54.7713 221.127 54.9207 220.847 55.014C220.576 55.1167 220.273 55.168 219.937 55.168ZM225.706 55.168C225.044 55.168 224.465 55.0233 223.97 54.734C223.485 54.4447 223.107 54.0293 222.836 53.488C222.566 52.9373 222.43 52.2887 222.43 51.542C222.43 50.954 222.505 50.436 222.654 49.988C222.813 49.5307 223.032 49.1527 223.312 48.854C223.602 48.546 223.938 48.3127 224.32 48.154C224.712 47.9953 225.142 47.916 225.608 47.916C226.075 47.916 226.5 47.9907 226.882 48.14C227.274 48.2893 227.61 48.5133 227.89 48.812C228.18 49.1013 228.404 49.47 228.562 49.918C228.721 50.3567 228.8 50.87 228.8 51.458C228.8 51.5327 228.796 51.6073 228.786 51.682C228.786 51.7567 228.782 51.8173 228.772 51.864H223.55C223.56 52.2933 223.662 52.6853 223.858 53.04C224.054 53.3947 224.316 53.6793 224.642 53.894C224.978 54.0993 225.352 54.202 225.762 54.202C226.257 54.202 226.668 54.104 226.994 53.908C227.321 53.712 227.592 53.474 227.806 53.194L228.478 53.88C228.189 54.272 227.82 54.5847 227.372 54.818C226.924 55.0513 226.369 55.168 225.706 55.168ZM225.608 48.84C225.17 48.84 224.801 48.9427 224.502 49.148C224.204 49.3533 223.975 49.6147 223.816 49.932C223.667 50.2493 223.588 50.5807 223.578 50.926H227.624C227.615 50.5807 227.531 50.2493 227.372 49.932C227.223 49.6147 226.999 49.3533 226.7 49.148C226.411 48.9427 226.047 48.84 225.608 48.84ZM229.632 55L232.054 51.486L229.744 48.084H231.088L232.726 50.674H232.782L234.476 48.084H235.68L233.37 51.43L235.792 55H234.448L232.698 52.242H232.642L230.836 55H229.632ZM239.57 55.168C239.159 55.168 238.819 55.084 238.548 54.916C238.277 54.748 238.077 54.5053 237.946 54.188C237.825 53.8707 237.764 53.4973 237.764 53.068V48.994H236.532V48.084H237.764V46.208H238.87V48.084H240.872V48.994H238.87V52.97C238.87 53.418 238.954 53.7307 239.122 53.908C239.299 54.0853 239.523 54.174 239.794 54.174C239.981 54.174 240.149 54.1413 240.298 54.076C240.447 54.0013 240.587 53.9033 240.718 53.782L241.222 54.566C241.007 54.7713 240.76 54.9207 240.48 55.014C240.209 55.1167 239.906 55.168 239.57 55.168Z" fill="black" fill-opacity="0.64"/>
<path d="M375 28C375 21.3726 380.373 16 387 16H412C418.627 16 424 21.3726 424 28V28C424 34.6274 418.627 40 412 40H387C380.373 40 375 34.6274 375 28V28Z" fill="#EFEDEA"/>
<path d="M384.288 33V23.9H385.478V31.992H388.992V33H384.288ZM392.183 33.168C391.763 33.168 391.385 33.0793 391.049 32.902C390.722 32.7247 390.465 32.4773 390.279 32.16C390.092 31.8427 389.999 31.4787 389.999 31.068C389.999 30.6667 390.092 30.3213 390.279 30.032C390.475 29.7333 390.759 29.4953 391.133 29.318C391.506 29.1407 391.954 29.038 392.477 29.01L394.297 28.898V28.408C394.297 28.0533 394.236 27.7687 394.115 27.554C394.003 27.33 393.835 27.1667 393.611 27.064C393.396 26.952 393.13 26.896 392.813 26.896C392.411 26.896 392.066 26.9707 391.777 27.12C391.487 27.2693 391.263 27.4327 391.105 27.61L390.433 26.938C390.675 26.6393 391.007 26.3967 391.427 26.21C391.847 26.014 392.318 25.916 392.841 25.916C393.475 25.916 393.979 26.0233 394.353 26.238C394.726 26.4527 394.992 26.742 395.151 27.106C395.319 27.4607 395.403 27.8573 395.403 28.296V33H394.353V31.824H394.269C394.091 32.2347 393.83 32.5613 393.485 32.804C393.139 33.0467 392.705 33.168 392.183 33.168ZM392.351 32.216C392.929 32.216 393.396 32.048 393.751 31.712C394.115 31.3667 394.297 30.9093 394.297 30.34V29.738L392.533 29.864C392.075 29.9013 391.725 30.018 391.483 30.214C391.249 30.41 391.133 30.6853 391.133 31.04C391.133 31.3947 391.245 31.6793 391.469 31.894C391.702 32.1087 391.996 32.216 392.351 32.216ZM401.213 33.168C400.643 33.168 400.139 33.0233 399.701 32.734C399.262 32.4447 398.963 32.062 398.805 31.586H398.721V33H397.657V22.85H398.777V27.358H398.861C399.038 26.938 399.332 26.5927 399.743 26.322C400.153 26.0513 400.643 25.916 401.213 25.916C401.829 25.916 402.365 26.07 402.823 26.378C403.28 26.686 403.635 27.1153 403.887 27.666C404.148 28.2073 404.279 28.828 404.279 29.528C404.279 30.228 404.148 30.8533 403.887 31.404C403.635 31.9453 403.28 32.3747 402.823 32.692C402.365 33.0093 401.829 33.168 401.213 33.168ZM400.933 32.16C401.343 32.16 401.712 32.0667 402.039 31.88C402.375 31.684 402.641 31.39 402.837 30.998C403.033 30.606 403.131 30.1207 403.131 29.542C403.131 28.954 403.033 28.4687 402.837 28.086C402.641 27.694 402.375 27.4047 402.039 27.218C401.712 27.022 401.343 26.924 400.933 26.924C400.541 26.924 400.181 27.022 399.855 27.218C399.528 27.4047 399.267 27.694 399.071 28.086C398.875 28.4687 398.777 28.954 398.777 29.542C398.777 30.1207 398.875 30.606 399.071 30.998C399.267 31.39 399.528 31.684 399.855 31.88C400.181 32.0667 400.541 32.16 400.933 32.16ZM408.781 33.168C408.118 33.168 407.539 33.0233 407.045 32.734C406.559 32.4447 406.181 32.0293 405.911 31.488C405.64 30.9373 405.505 30.2887 405.505 29.542C405.505 28.954 405.579 28.436 405.729 27.988C405.887 27.5307 406.107 27.1527 406.387 26.854C406.676 26.546 407.012 26.3127 407.395 26.154C407.787 25.9953 408.216 25.916 408.683 25.916C409.149 25.916 409.574 25.9907 409.957 26.14C410.349 26.2893 410.685 26.5133 410.965 26.812C411.254 27.1013 411.478 27.47 411.637 27.918C411.795 28.3567 411.875 28.87 411.875 29.458C411.875 29.5327 411.87 29.6073 411.861 29.682C411.861 29.7567 411.856 29.8173 411.847 29.864H406.625C406.634 30.2933 406.737 30.6853 406.933 31.04C407.129 31.3947 407.39 31.6793 407.717 31.894C408.053 32.0993 408.426 32.202 408.837 32.202C409.331 32.202 409.742 32.104 410.069 31.908C410.395 31.712 410.666 31.474 410.881 31.194L411.553 31.88C411.263 32.272 410.895 32.5847 410.447 32.818C409.999 33.0513 409.443 33.168 408.781 33.168ZM408.683 26.84C408.244 26.84 407.875 26.9427 407.577 27.148C407.278 27.3533 407.049 27.6147 406.891 27.932C406.741 28.2493 406.662 28.5807 406.653 28.926H410.699C410.689 28.5807 410.605 28.2493 410.447 27.932C410.297 27.6147 410.073 27.3533 409.775 27.148C409.485 26.9427 409.121 26.84 408.683 26.84ZM413.68 33V22.85H414.8V33H413.68Z" fill="black" fill-opacity="0.76"/>
<rect width="360" height="1" transform="translate(80 75)" fill="black" fill-opacity="0.08"/>
<circle cx="12" cy="38" r="12" fill="#2B2A28"/>
<path d="M8.95987 41.502H11.4099L11.4099 35.86L9.29587 36.714L8.69387 35.398L11.9419 33.9L13.2719 33.9L13.2719 41.502L15.4559 41.502L15.4559 43L8.95987 43L8.95987 41.502Z" fill="white" fill-opacity="0.9"/>
<rect x="24" y="37.5" width="72" height="1" rx="0.5" fill="#FF8000"/>
<circle cx="12" cy="38" r="12" fill="#2B2A28"/>
<path d="M8.95987 41.502H11.4099L11.4099 35.86L9.29587 36.714L8.69387 35.398L11.9419 33.9L13.2719 33.9L13.2719 41.502L15.4559 41.502L15.4559 43L8.95987 43L8.95987 41.502Z" fill="white" fill-opacity="0.9"/>
<rect x="24" y="37.5" width="72" height="1" rx="0.5" fill="#FF8000"/>
<rect x="424" y="27.5" width="72" height="1" rx="0.5" fill="#FF8000"/>
<circle cx="508" cy="28" r="12" fill="#2B2A28"/>
<path d="M504.764 31.53C504.764 31.11 504.825 30.7413 504.946 30.424C505.077 30.1067 505.254 29.822 505.478 29.57C505.702 29.318 505.968 29.0893 506.276 28.884C506.584 28.6787 506.92 28.478 507.284 28.282C507.648 28.086 507.951 27.918 508.194 27.778C508.446 27.6287 508.642 27.484 508.782 27.344C508.931 27.204 509.034 27.064 509.09 26.924C509.155 26.7747 509.188 26.602 509.188 26.406C509.188 26.0233 509.048 25.7433 508.768 25.566C508.488 25.3887 508.152 25.3 507.76 25.3C507.34 25.3 506.953 25.3793 506.598 25.538C506.253 25.6873 505.954 25.8973 505.702 26.168L504.764 25.062C505.109 24.67 505.548 24.3527 506.08 24.11C506.612 23.858 507.223 23.732 507.914 23.732C508.381 23.732 508.805 23.788 509.188 23.9C509.58 24.012 509.911 24.18 510.182 24.404C510.462 24.6187 510.677 24.8847 510.826 25.202C510.985 25.5193 511.064 25.8833 511.064 26.294C511.064 26.6953 511.003 27.05 510.882 27.358C510.761 27.6567 510.583 27.9367 510.35 28.198C510.117 28.45 509.827 28.688 509.482 28.912C509.146 29.136 508.759 29.3647 508.32 29.598C508.021 29.766 507.765 29.9107 507.55 30.032C507.345 30.1533 507.172 30.2747 507.032 30.396C506.901 30.5173 506.803 30.6387 506.738 30.76C506.682 30.8813 506.654 31.026 506.654 31.194V31.488L511.302 31.488V33L504.764 33V31.53Z" fill="white" fill-opacity="0.9"/>
<defs>
<clipPath id="clip0_26811_7365">
<rect width="20" height="20" fill="white" transform="translate(102 128)"/>
</clipPath>
</defs>
</svg>
