<svg width="302" height="82" viewBox="0 0 302 82" fill="none" xmlns="http://www.w3.org/2000/svg">
<path d="M53.1249 65.1665C53.1249 60.7482 56.7066 57.1665 61.1249 57.1665H114.125C118.543 57.1665 122.125 60.7482 122.125 65.1665V73.1665C122.125 77.5848 118.543 81.1665 114.125 81.1665H61.1249C56.7066 81.1665 53.1249 77.5848 53.1249 73.1665V65.1665Z" fill="#262626"/>
<g clip-path="url(#clip0_7631_2929)">
<path fill-rule="evenodd" clip-rule="evenodd" d="M61.2076 61.1665H77.0421L77.1249 61.2493V77.0837L77.0421 77.1665H61.2076L61.1249 77.0837V61.2493L61.2076 61.1665ZM76.9587 77.0003V61.332H61.2904V77.0003H76.9587ZM64.3934 62.1665H73.8564C75.1092 62.1665 76.1249 63.1822 76.1249 64.435V73.898C76.1249 75.1509 75.1092 76.1665 73.8564 76.1665H64.3934C63.1405 76.1665 62.1249 75.1509 62.1249 73.898V64.435C62.1249 63.1822 63.1405 62.1665 64.3934 62.1665Z" fill="white"/>
</g>
<path d="M82.4129 65.0665H83.6029V73.1585H87.1169V74.1665H82.4129V65.0665ZM90.3077 74.3345C89.9903 74.3345 89.6963 74.2832 89.4257 74.1805C89.1643 74.0778 88.9357 73.9332 88.7397 73.7465C88.5437 73.5598 88.3897 73.3405 88.2777 73.0885C88.175 72.8272 88.1237 72.5425 88.1237 72.2345C88.1237 71.6372 88.3383 71.1565 88.7677 70.7925C89.197 70.4285 89.8083 70.2232 90.6017 70.1765L92.4217 70.0645V69.5745C92.4217 69.0425 92.291 68.6598 92.0297 68.4265C91.7777 68.1838 91.4137 68.0625 90.9377 68.0625C90.5363 68.0625 90.191 68.1372 89.9017 68.2865C89.6123 68.4358 89.3883 68.5992 89.2297 68.7765L88.5577 68.1045C88.8003 67.8058 89.127 67.5632 89.5377 67.3765C89.9577 67.1805 90.4337 67.0825 90.9657 67.0825C91.4417 67.0825 91.843 67.1478 92.1697 67.2785C92.4963 67.3998 92.7577 67.5678 92.9537 67.7825C93.159 67.9972 93.3037 68.2492 93.3877 68.5385C93.481 68.8278 93.5277 69.1358 93.5277 69.4625V74.1665H92.4777V72.9905H92.3937C92.207 73.4105 91.9457 73.7418 91.6097 73.9845C91.2737 74.2178 90.8397 74.3345 90.3077 74.3345ZM90.4757 73.3825C91.0543 73.3825 91.521 73.2145 91.8757 72.8785C92.2397 72.5332 92.4217 72.0758 92.4217 71.5065V70.9045L90.6577 71.0305C89.7243 71.1052 89.2577 71.4972 89.2577 72.2065C89.2577 72.5612 89.3697 72.8458 89.5937 73.0605C89.827 73.2752 90.121 73.3825 90.4757 73.3825ZM99.3377 74.3345C99.0577 74.3345 98.787 74.2972 98.5257 74.2225C98.2737 74.1478 98.0403 74.0405 97.8257 73.9005C97.6203 73.7605 97.4383 73.5972 97.2797 73.4105C97.1303 73.2145 97.0137 72.9952 96.9297 72.7525H96.8457V74.1665H95.7817V64.0165H96.9017V68.5245H96.9857C97.163 68.1045 97.457 67.7592 97.8677 67.4885C98.2783 67.2178 98.7683 67.0825 99.3377 67.0825C99.795 67.0825 100.21 67.1712 100.584 67.3485C100.966 67.5258 101.293 67.7778 101.564 68.1045C101.834 68.4218 102.04 68.8045 102.18 69.2525C102.329 69.6912 102.404 70.1718 102.404 70.6945C102.404 71.2172 102.329 71.7025 102.18 72.1505C102.04 72.5985 101.834 72.9858 101.564 73.3125C101.293 73.6298 100.966 73.8818 100.584 74.0685C100.21 74.2458 99.795 74.3345 99.3377 74.3345ZM99.0577 73.3265C99.3657 73.3265 99.6503 73.2752 99.9117 73.1725C100.182 73.0605 100.416 72.8972 100.612 72.6825C100.817 72.4585 100.976 72.1832 101.088 71.8565C101.2 71.5298 101.256 71.1472 101.256 70.7085C101.256 70.2698 101.2 69.8872 101.088 69.5605C100.976 69.2338 100.817 68.9632 100.612 68.7485C100.416 68.5245 100.182 68.3612 99.9117 68.2585C99.6503 68.1465 99.3657 68.0905 99.0577 68.0905C98.759 68.0905 98.479 68.1465 98.2177 68.2585C97.9563 68.3612 97.7277 68.5245 97.5317 68.7485C97.3357 68.9632 97.1817 69.2338 97.0697 69.5605C96.9577 69.8872 96.9017 70.2698 96.9017 70.7085C96.9017 71.1472 96.9577 71.5298 97.0697 71.8565C97.1817 72.1832 97.3357 72.4585 97.5317 72.6825C97.7277 72.8972 97.9563 73.0605 98.2177 73.1725C98.479 73.2752 98.759 73.3265 99.0577 73.3265ZM106.906 74.3345C106.411 74.3345 105.958 74.2505 105.548 74.0825C105.146 73.9145 104.801 73.6765 104.512 73.3685C104.232 73.0512 104.012 72.6685 103.854 72.2205C103.704 71.7725 103.63 71.2685 103.63 70.7085C103.63 70.1205 103.709 69.6025 103.868 69.1545C104.026 68.6972 104.246 68.3192 104.526 68.0205C104.806 67.7125 105.137 67.4792 105.52 67.3205C105.912 67.1618 106.341 67.0825 106.808 67.0825C107.274 67.0825 107.704 67.1572 108.096 67.3065C108.488 67.4558 108.824 67.6798 109.104 67.9785C109.384 68.2678 109.603 68.6365 109.762 69.0845C109.92 69.5232 110 70.0365 110 70.6245C110 70.6992 109.995 70.7738 109.986 70.8485C109.986 70.9232 109.981 70.9838 109.972 71.0305H104.75C104.75 71.3572 104.806 71.6652 104.918 71.9545C105.039 72.2345 105.198 72.4818 105.394 72.6965C105.599 72.9018 105.832 73.0652 106.094 73.1865C106.364 73.3078 106.654 73.3685 106.962 73.3685C107.466 73.3685 107.876 73.2705 108.194 73.0745C108.52 72.8785 108.791 72.6405 109.006 72.3605L109.678 73.0465C109.379 73.4385 109.006 73.7512 108.558 73.9845C108.119 74.2178 107.568 74.3345 106.906 74.3345ZM106.808 68.0065C106.481 68.0065 106.192 68.0672 105.94 68.1885C105.688 68.3098 105.478 68.4685 105.31 68.6645C105.142 68.8605 105.011 69.0845 104.918 69.3365C104.834 69.5885 104.787 69.8405 104.778 70.0925H108.824C108.814 69.8405 108.763 69.5885 108.67 69.3365C108.586 69.0845 108.46 68.8605 108.292 68.6645C108.124 68.4685 107.914 68.3098 107.662 68.1885C107.419 68.0672 107.134 68.0065 106.808 68.0065ZM111.805 64.0165H112.925V74.1665H111.805V64.0165Z" fill="white"/>
<circle cx="12.7499" cy="68.9165" r="12" fill="#262626"/>
<path d="M9.70975 72.4185H12.1597L12.1597 66.7765L10.0457 67.6305L9.44375 66.3145L12.6917 64.8165H14.0217L14.0217 72.4185H16.2057L16.2057 73.9165H9.70975L9.70975 72.4185Z" fill="white"/>
<rect x="24.7499" y="68.4165" width="36" height="1" rx="0.5" fill="#FF8000"/>
<circle cx="97.3124" cy="12.9165" r="12" fill="#262626"/>
<path d="M94.0762 16.4465C94.0762 16.0265 94.1369 15.6578 94.2582 15.3405C94.3889 15.0232 94.5662 14.7385 94.7902 14.4865C95.0142 14.2345 95.2802 14.0058 95.5882 13.8005C95.8962 13.5952 96.2322 13.3945 96.5962 13.1985C96.9602 13.0025 97.2636 12.8345 97.5062 12.6945C97.7582 12.5452 97.9542 12.4005 98.0942 12.2605C98.2436 12.1205 98.3462 11.9805 98.4022 11.8405C98.4676 11.6912 98.5002 11.5185 98.5002 11.3225C98.5002 10.9398 98.3602 10.6598 98.0802 10.4825C97.8002 10.3052 97.4642 10.2165 97.0722 10.2165C96.6522 10.2165 96.2649 10.2958 95.9102 10.4545C95.5649 10.6038 95.2662 10.8138 95.0142 11.0845L94.0762 9.9785C94.4216 9.5865 94.8602 9.26917 95.3922 9.0265C95.9242 8.7745 96.5356 8.6485 97.2262 8.6485C97.6929 8.6485 98.1176 8.7045 98.5002 8.8165C98.8922 8.9285 99.2236 9.0965 99.4942 9.3205C99.7742 9.53517 99.9889 9.80117 100.138 10.1185C100.297 10.4358 100.376 10.7998 100.376 11.2105C100.376 11.6118 100.316 11.9665 100.194 12.2745C100.073 12.5732 99.8956 12.8532 99.6622 13.1145C99.4289 13.3665 99.1396 13.6045 98.7942 13.8285C98.4582 14.0525 98.0709 14.2812 97.6322 14.5145C97.3336 14.6825 97.0769 14.8272 96.8622 14.9485C96.6569 15.0698 96.4842 15.1912 96.3442 15.3125C96.2136 15.4338 96.1156 15.5552 96.0502 15.6765C95.9942 15.7978 95.9662 15.9425 95.9662 16.1105V16.4045H100.614V17.9165H94.0762V16.4465Z" fill="white"/>
<rect x="96.8124" y="24.9165" width="1" height="36" rx="0.5" fill="#FF8000"/>
<path d="M178.125 64.7915C178.125 60.3732 181.707 56.7915 186.125 56.7915H239.125C243.543 56.7915 247.125 60.3732 247.125 64.7915V72.7915C247.125 77.2098 243.543 80.7915 239.125 80.7915H186.125C181.707 80.7915 178.125 77.2098 178.125 72.7915V64.7915Z" fill="#262626"/>
<path d="M187.413 64.6915H188.603V72.7835H192.117V73.7915H187.413V64.6915ZM195.308 73.9595C194.99 73.9595 194.696 73.9082 194.426 73.8055C194.164 73.7028 193.936 73.5582 193.74 73.3715C193.544 73.1848 193.39 72.9655 193.278 72.7135C193.175 72.4522 193.124 72.1675 193.124 71.8595C193.124 71.2622 193.338 70.7815 193.768 70.4175C194.197 70.0535 194.808 69.8482 195.602 69.8015L197.422 69.6895V69.1995C197.422 68.6675 197.291 68.2848 197.03 68.0515C196.778 67.8088 196.414 67.6875 195.938 67.6875C195.536 67.6875 195.191 67.7622 194.902 67.9115C194.612 68.0608 194.388 68.2242 194.23 68.4015L193.558 67.7295C193.8 67.4308 194.127 67.1882 194.538 67.0015C194.958 66.8055 195.434 66.7075 195.966 66.7075C196.442 66.7075 196.843 66.7728 197.17 66.9035C197.496 67.0248 197.758 67.1928 197.954 67.4075C198.159 67.6222 198.304 67.8742 198.388 68.1635C198.481 68.4528 198.528 68.7608 198.528 69.0875V73.7915H197.478V72.6155H197.394C197.207 73.0355 196.946 73.3668 196.61 73.6095C196.274 73.8428 195.84 73.9595 195.308 73.9595ZM195.476 73.0075C196.054 73.0075 196.521 72.8395 196.876 72.5035C197.24 72.1582 197.422 71.7008 197.422 71.1315V70.5295L195.658 70.6555C194.724 70.7302 194.258 71.1222 194.258 71.8315C194.258 72.1862 194.37 72.4708 194.594 72.6855C194.827 72.9002 195.121 73.0075 195.476 73.0075ZM204.338 73.9595C204.058 73.9595 203.787 73.9222 203.526 73.8475C203.274 73.7728 203.04 73.6655 202.826 73.5255C202.62 73.3855 202.438 73.2222 202.28 73.0355C202.13 72.8395 202.014 72.6202 201.93 72.3775H201.846V73.7915H200.782V63.6415H201.902V68.1495H201.986C202.163 67.7295 202.457 67.3842 202.868 67.1135C203.278 66.8428 203.768 66.7075 204.338 66.7075C204.795 66.7075 205.21 66.7962 205.584 66.9735C205.966 67.1508 206.293 67.4028 206.564 67.7295C206.834 68.0468 207.04 68.4295 207.18 68.8775C207.329 69.3162 207.404 69.7968 207.404 70.3195C207.404 70.8422 207.329 71.3275 207.18 71.7755C207.04 72.2235 206.834 72.6108 206.564 72.9375C206.293 73.2548 205.966 73.5068 205.584 73.6935C205.21 73.8708 204.795 73.9595 204.338 73.9595ZM204.058 72.9515C204.366 72.9515 204.65 72.9002 204.912 72.7975C205.182 72.6855 205.416 72.5222 205.612 72.3075C205.817 72.0835 205.976 71.8082 206.088 71.4815C206.2 71.1548 206.256 70.7722 206.256 70.3335C206.256 69.8948 206.2 69.5122 206.088 69.1855C205.976 68.8588 205.817 68.5882 205.612 68.3735C205.416 68.1495 205.182 67.9862 204.912 67.8835C204.65 67.7715 204.366 67.7155 204.058 67.7155C203.759 67.7155 203.479 67.7715 203.218 67.8835C202.956 67.9862 202.728 68.1495 202.532 68.3735C202.336 68.5882 202.182 68.8588 202.07 69.1855C201.958 69.5122 201.902 69.8948 201.902 70.3335C201.902 70.7722 201.958 71.1548 202.07 71.4815C202.182 71.8082 202.336 72.0835 202.532 72.3075C202.728 72.5222 202.956 72.6855 203.218 72.7975C203.479 72.9002 203.759 72.9515 204.058 72.9515ZM211.906 73.9595C211.411 73.9595 210.958 73.8755 210.548 73.7075C210.146 73.5395 209.801 73.3015 209.512 72.9935C209.232 72.6762 209.012 72.2935 208.854 71.8455C208.704 71.3975 208.63 70.8935 208.63 70.3335C208.63 69.7455 208.709 69.2275 208.868 68.7795C209.026 68.3222 209.246 67.9442 209.526 67.6455C209.806 67.3375 210.137 67.1042 210.52 66.9455C210.912 66.7868 211.341 66.7075 211.808 66.7075C212.274 66.7075 212.704 66.7822 213.096 66.9315C213.488 67.0808 213.824 67.3048 214.104 67.6035C214.384 67.8928 214.603 68.2615 214.762 68.7095C214.92 69.1482 215 69.6615 215 70.2495C215 70.3242 214.995 70.3988 214.986 70.4735C214.986 70.5482 214.981 70.6088 214.972 70.6555H209.75C209.75 70.9822 209.806 71.2902 209.918 71.5795C210.039 71.8595 210.198 72.1068 210.394 72.3215C210.599 72.5268 210.832 72.6902 211.094 72.8115C211.364 72.9328 211.654 72.9935 211.962 72.9935C212.466 72.9935 212.876 72.8955 213.194 72.6995C213.52 72.5035 213.791 72.2655 214.006 71.9855L214.678 72.6715C214.379 73.0635 214.006 73.3762 213.558 73.6095C213.119 73.8428 212.568 73.9595 211.906 73.9595ZM211.808 67.6315C211.481 67.6315 211.192 67.6922 210.94 67.8135C210.688 67.9348 210.478 68.0935 210.31 68.2895C210.142 68.4855 210.011 68.7095 209.918 68.9615C209.834 69.2135 209.787 69.4655 209.778 69.7175H213.824C213.814 69.4655 213.763 69.2135 213.67 68.9615C213.586 68.7095 213.46 68.4855 213.292 68.2895C213.124 68.0935 212.914 67.9348 212.662 67.8135C212.419 67.6922 212.134 67.6315 211.808 67.6315ZM216.805 63.6415H217.925V73.7915H216.805V63.6415Z" fill="white"/>
<g clip-path="url(#clip1_7631_2929)">
<path fill-rule="evenodd" clip-rule="evenodd" d="M223.208 60.7915H239.042L239.125 60.8743V76.7087L239.042 76.7915H223.208L223.125 76.7087V60.8743L223.208 60.7915ZM238.959 76.6253V60.957H223.29V76.6253H238.959ZM226.393 61.7915H235.856C237.109 61.7915 238.125 62.8072 238.125 64.06V73.523C238.125 74.7759 237.109 75.7915 235.856 75.7915H226.393C225.141 75.7915 224.125 74.7759 224.125 73.523V64.06C224.125 62.8072 225.141 61.7915 226.393 61.7915Z" fill="white"/>
</g>
<rect x="241.25" y="68.6665" width="36" height="1" rx="0.5" fill="#FF8000"/>
<circle cx="289.25" cy="69.1665" r="12" fill="#262626"/>
<path d="M288.884 74.3345C288.156 74.3345 287.545 74.2272 287.05 74.0125C286.555 73.7885 286.131 73.4852 285.776 73.1025L286.798 71.9685C287.022 72.2205 287.302 72.4258 287.638 72.5845C287.983 72.7432 288.366 72.8225 288.786 72.8225C289.29 72.8225 289.696 72.7105 290.004 72.4865C290.312 72.2625 290.466 71.9312 290.466 71.4925C290.466 71.0725 290.321 70.7645 290.032 70.5685C289.743 70.3725 289.36 70.2745 288.884 70.2745H287.974V68.7905H288.884C289.304 68.7905 289.617 68.6832 289.822 68.4685C290.027 68.2445 290.13 67.9552 290.13 67.6005C290.13 67.3858 290.093 67.2038 290.018 67.0545C289.943 66.9052 289.841 66.7838 289.71 66.6905C289.589 66.5878 289.444 66.5178 289.276 66.4805C289.108 66.4338 288.935 66.4105 288.758 66.4105C288.375 66.4105 288.025 66.4852 287.708 66.6345C287.391 66.7838 287.125 66.9798 286.91 67.2225L285.944 66.1305C286.28 65.7572 286.686 65.4585 287.162 65.2345C287.638 65.0105 288.226 64.8985 288.926 64.8985C289.383 64.8985 289.803 64.9592 290.186 65.0805C290.569 65.2018 290.895 65.3745 291.166 65.5985C291.437 65.8132 291.647 66.0698 291.796 66.3685C291.945 66.6672 292.02 66.9985 292.02 67.3625C292.02 67.8385 291.88 68.2585 291.6 68.6225C291.32 68.9772 290.914 69.2478 290.382 69.4345V69.5185C290.662 69.5745 290.919 69.6678 291.152 69.7985C291.395 69.9292 291.6 70.0925 291.768 70.2885C291.945 70.4752 292.085 70.6898 292.188 70.9325C292.291 71.1658 292.342 71.4225 292.342 71.7025C292.342 72.0852 292.267 72.4398 292.118 72.7665C291.969 73.0838 291.745 73.3592 291.446 73.5925C291.157 73.8258 290.797 74.0078 290.368 74.1385C289.939 74.2692 289.444 74.3345 288.884 74.3345Z" fill="white"/>
<circle cx="203" cy="12.8335" r="12" fill="#262626"/>
<path d="M199.764 16.3635C199.764 15.9435 199.825 15.5748 199.946 15.2575C200.077 14.9402 200.254 14.6555 200.478 14.4035C200.702 14.1515 200.968 13.9228 201.276 13.7175C201.584 13.5122 201.92 13.3115 202.284 13.1155C202.648 12.9195 202.951 12.7515 203.194 12.6115C203.446 12.4622 203.642 12.3175 203.782 12.1775C203.931 12.0375 204.034 11.8975 204.09 11.7575C204.155 11.6082 204.188 11.4355 204.188 11.2395C204.188 10.8568 204.048 10.5768 203.768 10.3995C203.488 10.2222 203.152 10.1335 202.76 10.1335C202.34 10.1335 201.953 10.2128 201.598 10.3715C201.253 10.5208 200.954 10.7308 200.702 11.0015L199.764 9.8955C200.109 9.5035 200.548 9.18616 201.08 8.9435C201.612 8.6915 202.223 8.5655 202.914 8.5655C203.381 8.5655 203.805 8.6215 204.188 8.7335C204.58 8.8455 204.911 9.0135 205.182 9.2375C205.462 9.45216 205.677 9.71816 205.826 10.0355C205.985 10.3528 206.064 10.7168 206.064 11.1275C206.064 11.5288 206.003 11.8835 205.882 12.1915C205.761 12.4902 205.583 12.7702 205.35 13.0315C205.117 13.2835 204.827 13.5215 204.482 13.7455C204.146 13.9695 203.759 14.1982 203.32 14.4315C203.021 14.5995 202.765 14.7442 202.55 14.8655C202.345 14.9868 202.172 15.1082 202.032 15.2295C201.901 15.3508 201.803 15.4722 201.738 15.5935C201.682 15.7148 201.654 15.8595 201.654 16.0275V16.3215H206.302V17.8335H199.764V16.3635Z" fill="white"/>
<rect x="202.5" y="24.8335" width="1" height="36" rx="0.5" fill="#FF8000"/>
<defs>
<clipPath id="clip0_7631_2929">
<rect width="16" height="16" fill="white" transform="translate(61.1249 61.1665)"/>
</clipPath>
<clipPath id="clip1_7631_2929">
<rect width="16" height="16" fill="white" transform="translate(223.125 60.7915)"/>
</clipPath>
</defs>
</svg>
