<svg width="1034" height="402" viewBox="0 0 1034 402" fill="none" xmlns="http://www.w3.org/2000/svg">
<rect x="0.5" y="0.5" width="1033" height="401" rx="16.5" fill="#5B3D5B" stroke="#DBD9D7"/>
<mask id="mask0_807_139220" style="mask-type:alpha" maskUnits="userSpaceOnUse" x="1" y="1" width="1032" height="400">
<rect x="1" y="1" width="1032" height="400" rx="16" fill="#00DCFF"/>
</mask>
<g mask="url(#mask0_807_139220)">
<g filter="url(#filter0_f_807_139220)">
<rect x="231" y="128" width="911" height="359" rx="24" fill="#170B17"/>
</g>
<rect x="215" y="112" width="906" height="351" rx="20" fill="white" stroke="#724E72" stroke-width="8"/>
<rect x="275" y="172" width="189" height="36" rx="12" fill="#262626"/>
<path d="M282.932 183.35H290.24V184.862H284.717V189.293H290.051V190.805H284.717V195.488H290.387V197H282.932V183.35ZM292.064 186.626H293.891L297.02 195.278H297.146L300.296 186.626H301.997L297.965 197H296.075L292.064 186.626ZM308.043 197.252C307.301 197.252 306.622 197.126 306.006 196.874C305.404 196.622 304.886 196.265 304.452 195.803C304.032 195.327 303.703 194.753 303.465 194.081C303.241 193.409 303.129 192.653 303.129 191.813C303.129 190.931 303.248 190.154 303.486 189.482C303.724 188.796 304.053 188.229 304.473 187.781C304.893 187.319 305.39 186.969 305.964 186.731C306.552 186.493 307.196 186.374 307.896 186.374C308.596 186.374 309.24 186.486 309.828 186.71C310.416 186.934 310.92 187.27 311.34 187.718C311.76 188.152 312.089 188.705 312.327 189.377C312.565 190.035 312.684 190.805 312.684 191.687C312.684 191.799 312.677 191.911 312.663 192.023C312.663 192.135 312.656 192.226 312.642 192.296H304.809C304.809 192.786 304.893 193.248 305.061 193.682C305.243 194.102 305.481 194.473 305.775 194.795C306.083 195.103 306.433 195.348 306.825 195.53C307.231 195.712 307.665 195.803 308.127 195.803C308.883 195.803 309.499 195.656 309.975 195.362C310.465 195.068 310.871 194.711 311.193 194.291L312.201 195.32C311.753 195.908 311.193 196.377 310.521 196.727C309.863 197.077 309.037 197.252 308.043 197.252ZM307.896 187.76C307.406 187.76 306.972 187.851 306.594 188.033C306.216 188.215 305.901 188.453 305.649 188.747C305.397 189.041 305.201 189.377 305.061 189.755C304.935 190.133 304.865 190.511 304.851 190.889H310.92C310.906 190.511 310.829 190.133 310.689 189.755C310.563 189.377 310.374 189.041 310.122 188.747C309.87 188.453 309.555 188.215 309.177 188.033C308.813 187.851 308.386 187.76 307.896 187.76ZM315.392 186.626H316.988V188.264H317.114C317.366 187.718 317.723 187.27 318.185 186.92C318.647 186.556 319.235 186.374 319.949 186.374C321.139 186.374 322.077 186.689 322.763 187.319C323.463 187.949 323.813 188.964 323.813 190.364V197H322.133V190.679C322.133 189.615 321.916 188.866 321.482 188.432C321.062 187.984 320.439 187.76 319.613 187.76C318.815 187.76 318.192 188.033 317.744 188.579C317.296 189.125 317.072 189.923 317.072 190.973V197H315.392V186.626ZM329.137 183.875C329.137 184.169 329.032 184.421 328.822 184.631C328.626 184.841 328.36 184.946 328.024 184.946C327.674 184.946 327.401 184.841 327.205 184.631C327.009 184.421 326.911 184.169 326.911 183.875C326.911 183.595 327.009 183.35 327.205 183.14C327.401 182.916 327.674 182.804 328.024 182.804C328.36 182.804 328.626 182.916 328.822 183.14C329.032 183.35 329.137 183.595 329.137 183.875ZM327.184 186.626H328.864V197H327.184V186.626ZM332.434 186.626H334.03V188.264H334.156C334.408 187.718 334.765 187.27 335.227 186.92C335.689 186.556 336.277 186.374 336.991 186.374C338.181 186.374 339.119 186.689 339.805 187.319C340.505 187.949 340.855 188.964 340.855 190.364V197H339.175V190.679C339.175 189.615 338.958 188.866 338.524 188.432C338.104 187.984 337.481 187.76 336.655 187.76C335.857 187.76 335.234 188.033 334.786 188.579C334.338 189.125 334.114 189.923 334.114 190.973V197H332.434V186.626ZM348.363 201.137C347.467 201.137 346.69 200.976 346.032 200.654C345.374 200.346 344.849 199.961 344.457 199.499L345.57 198.428C345.864 198.792 346.242 199.079 346.704 199.289C347.18 199.513 347.705 199.625 348.279 199.625C349.175 199.625 349.875 199.408 350.379 198.974C350.897 198.54 351.156 197.777 351.156 196.685V194.669H351.03C350.918 195.019 350.757 195.334 350.547 195.614C350.337 195.88 350.085 196.111 349.791 196.307C349.511 196.489 349.196 196.636 348.846 196.748C348.51 196.846 348.167 196.895 347.817 196.895C347.159 196.895 346.557 196.776 346.011 196.538C345.479 196.3 345.01 195.957 344.604 195.509C344.212 195.047 343.904 194.487 343.68 193.829C343.47 193.171 343.365 192.429 343.365 191.603C343.365 190.791 343.47 190.063 343.68 189.419C343.904 188.775 344.212 188.229 344.604 187.781C345.01 187.333 345.479 186.99 346.011 186.752C346.557 186.5 347.159 186.374 347.817 186.374C348.587 186.374 349.273 186.577 349.875 186.983C350.491 187.375 350.904 187.921 351.114 188.621H351.24V186.626H352.836V196.895C352.836 198.169 352.451 199.191 351.681 199.961C350.925 200.745 349.819 201.137 348.363 201.137ZM348.153 195.383C349.077 195.383 349.805 195.061 350.337 194.417C350.883 193.773 351.156 192.842 351.156 191.624C351.156 190.392 350.883 189.461 350.337 188.831C349.805 188.201 349.077 187.886 348.153 187.886C347.215 187.886 346.466 188.201 345.906 188.831C345.36 189.461 345.087 190.392 345.087 191.624C345.087 192.842 345.36 193.773 345.906 194.417C346.466 195.061 347.215 195.383 348.153 195.383ZM361.453 186.626H363.049V188.264H363.175C363.427 187.718 363.777 187.27 364.225 186.92C364.687 186.556 365.261 186.374 365.947 186.374C366.773 186.374 367.466 186.528 368.026 186.836C368.6 187.13 369.027 187.578 369.307 188.18C369.615 187.592 370.028 187.144 370.546 186.836C371.064 186.528 371.722 186.374 372.52 186.374C373.094 186.374 373.612 186.451 374.074 186.605C374.536 186.759 374.928 186.997 375.25 187.319C375.586 187.641 375.838 188.054 376.006 188.558C376.188 189.062 376.279 189.664 376.279 190.364V197H374.599V190.679C374.599 189.615 374.389 188.866 373.969 188.432C373.563 187.984 372.961 187.76 372.163 187.76C371.393 187.76 370.791 188.033 370.357 188.579C369.923 189.125 369.706 189.923 369.706 190.973V197H368.026V190.679C368.026 189.615 367.816 188.866 367.396 188.432C366.99 187.984 366.388 187.76 365.59 187.76C364.834 187.76 364.232 188.033 363.784 188.579C363.35 189.125 363.133 189.923 363.133 190.973V197H361.453V186.626ZM383.717 197.252C382.975 197.252 382.296 197.126 381.68 196.874C381.078 196.622 380.56 196.265 380.126 195.803C379.706 195.327 379.377 194.753 379.139 194.081C378.915 193.409 378.803 192.653 378.803 191.813C378.803 190.931 378.922 190.154 379.16 189.482C379.398 188.796 379.727 188.229 380.147 187.781C380.567 187.319 381.064 186.969 381.638 186.731C382.226 186.493 382.87 186.374 383.57 186.374C384.27 186.374 384.914 186.486 385.502 186.71C386.09 186.934 386.594 187.27 387.014 187.718C387.434 188.152 387.763 188.705 388.001 189.377C388.239 190.035 388.358 190.805 388.358 191.687C388.358 191.799 388.351 191.911 388.337 192.023C388.337 192.135 388.33 192.226 388.316 192.296H380.483C380.483 192.786 380.567 193.248 380.735 193.682C380.917 194.102 381.155 194.473 381.449 194.795C381.757 195.103 382.107 195.348 382.499 195.53C382.905 195.712 383.339 195.803 383.801 195.803C384.557 195.803 385.173 195.656 385.649 195.362C386.139 195.068 386.545 194.711 386.867 194.291L387.875 195.32C387.427 195.908 386.867 196.377 386.195 196.727C385.537 197.077 384.711 197.252 383.717 197.252ZM383.57 187.76C383.08 187.76 382.646 187.851 382.268 188.033C381.89 188.215 381.575 188.453 381.323 188.747C381.071 189.041 380.875 189.377 380.735 189.755C380.609 190.133 380.539 190.511 380.525 190.889H386.594C386.58 190.511 386.503 190.133 386.363 189.755C386.237 189.377 386.048 189.041 385.796 188.747C385.544 188.453 385.229 188.215 384.851 188.033C384.487 187.851 384.06 187.76 383.57 187.76ZM391.066 186.626H392.662V188.264H392.788C393.04 187.718 393.397 187.27 393.859 186.92C394.321 186.556 394.909 186.374 395.623 186.374C396.813 186.374 397.751 186.689 398.437 187.319C399.137 187.949 399.487 188.964 399.487 190.364V197H397.807V190.679C397.807 189.615 397.59 188.866 397.156 188.432C396.736 187.984 396.113 187.76 395.287 187.76C394.489 187.76 393.866 188.033 393.418 188.579C392.97 189.125 392.746 189.923 392.746 190.973V197H391.066V186.626ZM406.428 197.252C405.854 197.252 405.336 197.175 404.874 197.021C404.412 196.867 404.013 196.629 403.677 196.307C403.355 195.985 403.103 195.572 402.921 195.068C402.739 194.564 402.648 193.962 402.648 193.262V186.626H404.328V192.947C404.328 194.011 404.531 194.767 404.937 195.215C405.357 195.649 405.966 195.866 406.764 195.866C407.52 195.866 408.115 195.593 408.549 195.047C408.997 194.501 409.221 193.703 409.221 192.653V186.626H410.901V197H409.305V195.362H409.179C408.927 195.908 408.577 196.363 408.129 196.727C407.695 197.077 407.128 197.252 406.428 197.252ZM423.606 197.252C422.78 197.252 422.052 197.112 421.422 196.832C420.806 196.538 420.288 196.146 419.868 195.656C419.462 195.166 419.154 194.592 418.944 193.934C418.748 193.276 418.65 192.569 418.65 191.813C418.65 191.057 418.748 190.35 418.944 189.692C419.154 189.034 419.462 188.46 419.868 187.97C420.288 187.48 420.806 187.095 421.422 186.815C422.052 186.521 422.78 186.374 423.606 186.374C424.432 186.374 425.146 186.521 425.748 186.815C426.364 187.095 426.875 187.48 427.281 187.97C427.687 188.46 427.988 189.034 428.184 189.692C428.394 190.35 428.499 191.057 428.499 191.813C428.499 192.569 428.394 193.276 428.184 193.934C427.988 194.592 427.687 195.166 427.281 195.656C426.875 196.146 426.364 196.538 425.748 196.832C425.146 197.112 424.432 197.252 423.606 197.252ZM420.372 191.813C420.372 192.415 420.435 192.968 420.561 193.472C420.701 193.962 420.904 194.389 421.17 194.753C421.436 195.103 421.772 195.376 422.178 195.572C422.584 195.768 423.06 195.866 423.606 195.866C424.138 195.866 424.6 195.768 424.992 195.572C425.398 195.376 425.727 195.103 425.979 194.753C426.245 194.389 426.441 193.962 426.567 193.472C426.707 192.968 426.777 192.415 426.777 191.813C426.777 191.211 426.707 190.665 426.567 190.175C426.441 189.671 426.245 189.244 425.979 188.894C425.727 188.53 425.398 188.25 424.992 188.054C424.6 187.858 424.138 187.76 423.606 187.76C423.06 187.76 422.584 187.858 422.178 188.054C421.772 188.25 421.436 188.53 421.17 188.894C420.904 189.244 420.701 189.671 420.561 190.175C420.435 190.665 420.372 191.211 420.372 191.813ZM431.2 186.626H432.796V188.264H432.922C433.174 187.718 433.531 187.27 433.993 186.92C434.455 186.556 435.043 186.374 435.757 186.374C436.947 186.374 437.885 186.689 438.571 187.319C439.271 187.949 439.621 188.964 439.621 190.364V197H437.941V190.679C437.941 189.615 437.724 188.866 437.29 188.432C436.87 187.984 436.247 187.76 435.421 187.76C434.623 187.76 434 188.033 433.552 188.579C433.104 189.125 432.88 189.923 432.88 190.973V197H431.2V186.626ZM442.992 181.775H444.672V197H442.992V181.775ZM448.893 200.969C448.739 200.969 448.578 200.955 448.41 200.927C448.256 200.913 448.123 200.892 448.011 200.864V199.415C448.081 199.429 448.193 199.443 448.347 199.457C448.515 199.471 448.669 199.478 448.809 199.478C449.089 199.478 449.327 199.457 449.523 199.415C449.719 199.373 449.894 199.275 450.048 199.121C450.216 198.981 450.377 198.764 450.531 198.47C450.685 198.19 450.853 197.812 451.035 197.336L446.877 186.626H448.704L451.833 195.32H451.959L455.109 186.626H456.81L452.736 197.105C452.47 197.791 452.211 198.372 451.959 198.848C451.721 199.338 451.455 199.737 451.161 200.045C450.867 200.367 450.538 200.598 450.174 200.738C449.824 200.892 449.397 200.969 448.893 200.969Z" fill="white"/>
<rect x="482.75" y="172.75" width="91.5" height="34.5" rx="11.25" fill="white" fill-opacity="0.01"/>
<g clip-path="url(#clip0_807_139220)">
<path d="M494.159 198.636C493.413 198.697 492.663 198.574 491.976 198.276C491.29 197.978 490.687 197.516 490.221 196.93L489.578 195.906L490.72 195.473C494.132 194.161 495.97 190.643 497.479 187.598C498.228 185.89 499.218 184.299 500.419 182.873C500.91 182.357 501.5 181.946 502.155 181.665C502.809 181.384 503.514 181.239 504.226 181.239C504.938 181.239 505.642 181.384 506.297 181.665C506.951 181.946 507.541 182.357 508.032 182.873C509.03 183.91 509.587 185.293 509.587 186.732C509.587 188.171 509.03 189.554 508.032 190.591C505.249 193.321 500.301 197.022 497.23 198.072C496.244 198.427 495.206 198.618 494.159 198.636ZM493.017 196.562C494.215 196.825 495.466 196.715 496.6 196.247C499.225 195.329 504.107 191.759 506.614 189.186C507.258 188.518 507.618 187.627 507.618 186.699C507.618 185.771 507.258 184.88 506.614 184.212C505.976 183.583 505.115 183.23 504.219 183.23C503.323 183.23 502.462 183.583 501.824 184.212C500.759 185.503 499.876 186.934 499.199 188.464C497.821 191.221 496.062 194.62 493.017 196.562Z" fill="#D50525"/>
<path d="M507.717 183.674L506.089 182.571C506.554 181.796 507.196 181.144 507.963 180.666C508.73 180.189 509.599 179.902 510.499 179.828V181.797C509.923 181.876 509.372 182.087 508.89 182.412C508.408 182.737 508.006 183.169 507.717 183.674Z" fill="#D50525"/>
<path d="M507.704 188.11C506.259 188.11 504.874 187.536 503.852 186.515C502.831 185.493 502.257 184.108 502.257 182.663C502.234 182.463 502.234 182.26 502.257 182.059L504.173 182.506L503.215 182.282L504.173 182.492V182.663C504.173 183.586 504.54 184.47 505.192 185.123C505.844 185.775 506.729 186.141 507.651 186.141C507.869 186.163 508.089 186.163 508.307 186.141L508.754 188.057C508.407 188.112 508.055 188.13 507.704 188.11Z" fill="#D50525"/>
</g>
<path d="M523.502 197.252C522.312 197.252 521.346 197.07 520.604 196.706C519.862 196.342 519.274 195.873 518.84 195.299L519.974 194.228C520.352 194.69 520.849 195.054 521.465 195.32C522.095 195.586 522.83 195.719 523.67 195.719C524.048 195.719 524.412 195.677 524.762 195.593C525.112 195.509 525.42 195.383 525.686 195.215C525.966 195.033 526.183 194.795 526.337 194.501C526.505 194.207 526.589 193.85 526.589 193.43C526.589 193.066 526.505 192.758 526.337 192.506C526.169 192.24 525.938 192.016 525.644 191.834C525.364 191.638 525.028 191.47 524.636 191.33C524.244 191.176 523.817 191.022 523.355 190.868C522.865 190.7 522.382 190.525 521.906 190.343C521.43 190.147 521.003 189.902 520.625 189.608C520.247 189.314 519.939 188.957 519.701 188.537C519.463 188.103 519.344 187.571 519.344 186.941C519.344 186.311 519.456 185.758 519.68 185.282C519.918 184.806 520.24 184.407 520.646 184.085C521.052 183.763 521.535 183.518 522.095 183.35C522.655 183.182 523.264 183.098 523.922 183.098C524.888 183.098 525.749 183.266 526.505 183.602C527.275 183.938 527.898 184.449 528.374 185.135L527.24 186.248C526.862 185.786 526.379 185.401 525.791 185.093C525.203 184.785 524.531 184.631 523.775 184.631C523.453 184.631 523.138 184.673 522.83 184.757C522.522 184.827 522.242 184.953 521.99 185.135C521.738 185.317 521.535 185.548 521.381 185.828C521.227 186.108 521.15 186.444 521.15 186.836C521.15 187.2 521.234 187.515 521.402 187.781C521.57 188.033 521.794 188.257 522.074 188.453C522.368 188.635 522.711 188.803 523.103 188.957C523.495 189.097 523.922 189.244 524.384 189.398C524.874 189.566 525.357 189.748 525.833 189.944C526.309 190.14 526.736 190.385 527.114 190.679C527.492 190.973 527.8 191.33 528.038 191.75C528.276 192.17 528.395 192.695 528.395 193.325C528.395 193.997 528.262 194.585 527.996 195.089C527.744 195.579 527.394 195.985 526.946 196.307C526.512 196.629 525.994 196.867 525.392 197.021C524.804 197.175 524.174 197.252 523.502 197.252ZM531.228 186.626H532.824V188.747H532.95C533.076 188.397 533.251 188.075 533.475 187.781C533.713 187.487 533.986 187.235 534.294 187.025C534.616 186.815 534.966 186.654 535.344 186.542C535.736 186.43 536.142 186.374 536.562 186.374C537.248 186.374 537.871 186.514 538.431 186.794C539.005 187.06 539.495 187.438 539.901 187.928C540.307 188.404 540.615 188.978 540.825 189.65C541.049 190.322 541.161 191.05 541.161 191.834C541.161 192.618 541.049 193.346 540.825 194.018C540.615 194.676 540.307 195.25 539.901 195.74C539.495 196.216 539.005 196.587 538.431 196.853C537.871 197.119 537.248 197.252 536.562 197.252C535.708 197.252 534.973 197.049 534.357 196.643C533.741 196.237 533.3 195.719 533.034 195.089H532.908V200.885H531.228V186.626ZM536.142 195.74C536.604 195.74 537.031 195.663 537.423 195.509C537.829 195.341 538.179 195.096 538.473 194.774C538.781 194.438 539.019 194.025 539.187 193.535C539.355 193.045 539.439 192.471 539.439 191.813C539.439 191.155 539.355 190.581 539.187 190.091C539.019 189.601 538.781 189.195 538.473 188.873C538.179 188.537 537.829 188.292 537.423 188.138C537.031 187.97 536.604 187.886 536.142 187.886C535.694 187.886 535.274 187.97 534.882 188.138C534.49 188.292 534.147 188.537 533.853 188.873C533.559 189.195 533.328 189.601 533.16 190.091C532.992 190.581 532.908 191.155 532.908 191.813C532.908 192.471 532.992 193.045 533.16 193.535C533.328 194.025 533.559 194.438 533.853 194.774C534.147 195.096 534.49 195.341 534.882 195.509C535.274 195.663 535.694 195.74 536.142 195.74ZM545.814 183.875C545.814 184.169 545.709 184.421 545.499 184.631C545.303 184.841 545.037 184.946 544.701 184.946C544.351 184.946 544.078 184.841 543.882 184.631C543.686 184.421 543.588 184.169 543.588 183.875C543.588 183.595 543.686 183.35 543.882 183.14C544.078 182.916 544.351 182.804 544.701 182.804C545.037 182.804 545.303 182.916 545.499 183.14C545.709 183.35 545.814 183.595 545.814 183.875ZM543.861 186.626H545.541V197H543.861V186.626ZM553.059 197.252C552.219 197.252 551.491 197.098 550.875 196.79C550.273 196.482 549.776 196.076 549.384 195.572C548.992 195.068 548.705 194.494 548.523 193.85C548.341 193.192 548.25 192.513 548.25 191.813C548.25 191.113 548.341 190.441 548.523 189.797C548.705 189.139 548.985 188.558 549.363 188.054C549.755 187.55 550.252 187.144 550.854 186.836C551.456 186.528 552.177 186.374 553.017 186.374C553.899 186.374 554.62 186.521 555.18 186.815C555.74 187.109 556.216 187.501 556.608 187.991L555.558 188.978C555.222 188.614 554.865 188.334 554.487 188.138C554.123 187.928 553.647 187.823 553.059 187.823C552.135 187.823 551.386 188.18 550.812 188.894C550.252 189.594 549.972 190.567 549.972 191.813C549.972 192.429 550.049 192.982 550.203 193.472C550.357 193.962 550.574 194.382 550.854 194.732C551.134 195.082 551.463 195.348 551.841 195.53C552.219 195.712 552.639 195.803 553.101 195.803C553.661 195.803 554.144 195.705 554.55 195.509C554.956 195.299 555.334 194.998 555.684 194.606L556.692 195.614C556.286 196.104 555.789 196.503 555.201 196.811C554.613 197.105 553.899 197.252 553.059 197.252ZM559.79 200.969C559.636 200.969 559.475 200.955 559.307 200.927C559.153 200.913 559.02 200.892 558.908 200.864V199.415C558.978 199.429 559.09 199.443 559.244 199.457C559.412 199.471 559.566 199.478 559.706 199.478C559.986 199.478 560.224 199.457 560.42 199.415C560.616 199.373 560.791 199.275 560.945 199.121C561.113 198.981 561.274 198.764 561.428 198.47C561.582 198.19 561.75 197.812 561.932 197.336L557.774 186.626H559.601L562.73 195.32H562.856L566.006 186.626H567.707L563.633 197.105C563.367 197.791 563.108 198.372 562.856 198.848C562.618 199.338 562.352 199.737 562.058 200.045C561.764 200.367 561.435 200.598 561.071 200.738C560.721 200.892 560.294 200.969 559.79 200.969Z" fill="#242E30"/>
<rect x="482.75" y="172.75" width="91.5" height="34.5" rx="11.25" stroke="#DBD9D7" stroke-width="1.5"/>
<rect x="593.75" y="172.75" width="141.5" height="34.5" rx="11.25" fill="white" fill-opacity="0.01"/>
<g clip-path="url(#clip1_807_139220)">
<path fill-rule="evenodd" clip-rule="evenodd" d="M615.266 179.562L615.751 180.416C615.763 180.438 615.789 180.487 615.828 180.56C616.472 181.757 620.595 189.425 619.321 194.039C618.872 195.674 617.9 197.117 616.554 198.148C615.208 199.178 613.562 199.741 611.866 199.749C611.169 199.749 610.476 199.652 609.806 199.46C609.253 199.313 608.72 199.102 608.217 198.83C606.829 199.546 605.291 199.924 603.729 199.932C603.148 199.927 602.57 199.87 602 199.76V197.76C603.463 198.096 604.993 198.004 606.406 197.491C605.451 196.524 604.766 195.322 604.421 194.007C604.076 192.692 604.081 191.309 604.438 189.997C605.723 185.152 613.716 180.457 614.38 180.067C614.394 180.059 614.405 180.052 614.413 180.048L615.266 179.562ZM614.716 197.029C616.047 196.271 617.023 195.017 617.431 193.541V193.527C618.258 190.482 615.935 185.009 614.518 182.279C611.906 183.907 607.062 187.372 606.288 190.522C605.99 191.611 606.018 192.763 606.368 193.836C606.718 194.909 607.375 195.855 608.257 196.559C609.777 195.482 610.858 193.893 611.302 192.084L613.205 192.622C612.703 194.525 611.631 196.228 610.134 197.504L610.331 197.583C611.808 197.986 613.385 197.786 614.716 197.029Z" fill="#017A39"/>
</g>
<path d="M629.588 183.35H631.541L635.258 195.131H635.384L639.122 183.35H640.97L636.371 197H634.187L629.588 183.35ZM646.671 197.252C645.929 197.252 645.25 197.126 644.634 196.874C644.032 196.622 643.514 196.265 643.08 195.803C642.66 195.327 642.331 194.753 642.093 194.081C641.869 193.409 641.757 192.653 641.757 191.813C641.757 190.931 641.876 190.154 642.114 189.482C642.352 188.796 642.681 188.229 643.101 187.781C643.521 187.319 644.018 186.969 644.592 186.731C645.18 186.493 645.824 186.374 646.524 186.374C647.224 186.374 647.868 186.486 648.456 186.71C649.044 186.934 649.548 187.27 649.968 187.718C650.388 188.152 650.717 188.705 650.955 189.377C651.193 190.035 651.312 190.805 651.312 191.687C651.312 191.799 651.305 191.911 651.291 192.023C651.291 192.135 651.284 192.226 651.27 192.296H643.437C643.437 192.786 643.521 193.248 643.689 193.682C643.871 194.102 644.109 194.473 644.403 194.795C644.711 195.103 645.061 195.348 645.453 195.53C645.859 195.712 646.293 195.803 646.755 195.803C647.511 195.803 648.127 195.656 648.603 195.362C649.093 195.068 649.499 194.711 649.821 194.291L650.829 195.32C650.381 195.908 649.821 196.377 649.149 196.727C648.491 197.077 647.665 197.252 646.671 197.252ZM646.524 187.76C646.034 187.76 645.6 187.851 645.222 188.033C644.844 188.215 644.529 188.453 644.277 188.747C644.025 189.041 643.829 189.377 643.689 189.755C643.563 190.133 643.493 190.511 643.479 190.889H649.548C649.534 190.511 649.457 190.133 649.317 189.755C649.191 189.377 649.002 189.041 648.75 188.747C648.498 188.453 648.183 188.215 647.805 188.033C647.441 187.851 647.014 187.76 646.524 187.76ZM658.157 201.137C657.261 201.137 656.484 200.976 655.826 200.654C655.168 200.346 654.643 199.961 654.251 199.499L655.364 198.428C655.658 198.792 656.036 199.079 656.498 199.289C656.974 199.513 657.499 199.625 658.073 199.625C658.969 199.625 659.669 199.408 660.173 198.974C660.691 198.54 660.95 197.777 660.95 196.685V194.669H660.824C660.712 195.019 660.551 195.334 660.341 195.614C660.131 195.88 659.879 196.111 659.585 196.307C659.305 196.489 658.99 196.636 658.64 196.748C658.304 196.846 657.961 196.895 657.611 196.895C656.953 196.895 656.351 196.776 655.805 196.538C655.273 196.3 654.804 195.957 654.398 195.509C654.006 195.047 653.698 194.487 653.474 193.829C653.264 193.171 653.159 192.429 653.159 191.603C653.159 190.791 653.264 190.063 653.474 189.419C653.698 188.775 654.006 188.229 654.398 187.781C654.804 187.333 655.273 186.99 655.805 186.752C656.351 186.5 656.953 186.374 657.611 186.374C658.381 186.374 659.067 186.577 659.669 186.983C660.285 187.375 660.698 187.921 660.908 188.621H661.034V186.626H662.63V196.895C662.63 198.169 662.245 199.191 661.475 199.961C660.719 200.745 659.613 201.137 658.157 201.137ZM657.947 195.383C658.871 195.383 659.599 195.061 660.131 194.417C660.677 193.773 660.95 192.842 660.95 191.624C660.95 190.392 660.677 189.461 660.131 188.831C659.599 188.201 658.871 187.886 657.947 187.886C657.009 187.886 656.26 188.201 655.7 188.831C655.154 189.461 654.881 190.392 654.881 191.624C654.881 192.842 655.154 193.773 655.7 194.417C656.26 195.061 657.009 195.383 657.947 195.383ZM670.255 197.252C669.513 197.252 668.834 197.126 668.218 196.874C667.616 196.622 667.098 196.265 666.664 195.803C666.244 195.327 665.915 194.753 665.677 194.081C665.453 193.409 665.341 192.653 665.341 191.813C665.341 190.931 665.46 190.154 665.698 189.482C665.936 188.796 666.265 188.229 666.685 187.781C667.105 187.319 667.602 186.969 668.176 186.731C668.764 186.493 669.408 186.374 670.108 186.374C670.808 186.374 671.452 186.486 672.04 186.71C672.628 186.934 673.132 187.27 673.552 187.718C673.972 188.152 674.301 188.705 674.539 189.377C674.777 190.035 674.896 190.805 674.896 191.687C674.896 191.799 674.889 191.911 674.875 192.023C674.875 192.135 674.868 192.226 674.854 192.296H667.021C667.021 192.786 667.105 193.248 667.273 193.682C667.455 194.102 667.693 194.473 667.987 194.795C668.295 195.103 668.645 195.348 669.037 195.53C669.443 195.712 669.877 195.803 670.339 195.803C671.095 195.803 671.711 195.656 672.187 195.362C672.677 195.068 673.083 194.711 673.405 194.291L674.413 195.32C673.965 195.908 673.405 196.377 672.733 196.727C672.075 197.077 671.249 197.252 670.255 197.252ZM670.108 187.76C669.618 187.76 669.184 187.851 668.806 188.033C668.428 188.215 668.113 188.453 667.861 188.747C667.609 189.041 667.413 189.377 667.273 189.755C667.147 190.133 667.077 190.511 667.063 190.889H673.132C673.118 190.511 673.041 190.133 672.901 189.755C672.775 189.377 672.586 189.041 672.334 188.747C672.082 188.453 671.767 188.215 671.389 188.033C671.025 187.851 670.598 187.76 670.108 187.76ZM680.796 197.252C679.858 197.252 679.172 196.972 678.738 196.412C678.304 195.852 678.087 195.082 678.087 194.102V187.991H676.239V186.626H678.087V183.812H679.746V186.626H682.749V187.991H679.746V193.955C679.746 194.627 679.872 195.096 680.124 195.362C680.39 195.628 680.726 195.761 681.132 195.761C681.412 195.761 681.664 195.712 681.888 195.614C682.112 195.502 682.322 195.355 682.518 195.173L683.274 196.349C682.63 196.951 681.804 197.252 680.796 197.252ZM687.85 197.252C687.374 197.252 686.933 197.175 686.527 197.021C686.135 196.867 685.792 196.65 685.498 196.37C685.204 196.09 684.973 195.761 684.805 195.383C684.651 194.991 684.574 194.564 684.574 194.102C684.574 193.206 684.896 192.485 685.54 191.939C686.184 191.393 687.101 191.085 688.291 191.015L691.021 190.847V190.112C691.021 189.314 690.825 188.74 690.433 188.39C690.055 188.026 689.509 187.844 688.795 187.844C688.193 187.844 687.675 187.956 687.241 188.18C686.807 188.404 686.471 188.649 686.233 188.915L685.225 187.907C685.589 187.459 686.079 187.095 686.695 186.815C687.325 186.521 688.039 186.374 688.837 186.374C689.551 186.374 690.153 186.472 690.643 186.668C691.133 186.85 691.525 187.102 691.819 187.424C692.127 187.746 692.344 188.124 692.47 188.558C692.61 188.992 692.68 189.454 692.68 189.944V197H691.105V195.236H690.979C690.699 195.866 690.307 196.363 689.803 196.727C689.299 197.077 688.648 197.252 687.85 197.252ZM688.102 195.824C688.97 195.824 689.67 195.572 690.202 195.068C690.748 194.55 691.021 193.864 691.021 193.01V192.107L688.375 192.296C686.975 192.408 686.275 192.996 686.275 194.06C686.275 194.592 686.443 195.019 686.779 195.341C687.129 195.663 687.57 195.824 688.102 195.824ZM696.061 186.626H697.657V188.306H697.783C698.007 187.76 698.329 187.305 698.749 186.941C699.169 186.563 699.694 186.374 700.324 186.374C700.856 186.374 701.325 186.479 701.731 186.689L701.164 188.201C700.982 188.103 700.786 188.04 700.576 188.012C700.38 187.97 700.177 187.949 699.967 187.949C699.281 187.949 698.735 188.229 698.329 188.789C697.937 189.335 697.741 190.035 697.741 190.889V197H696.061V186.626ZM705.848 183.875C705.848 184.169 705.743 184.421 705.533 184.631C705.337 184.841 705.071 184.946 704.735 184.946C704.385 184.946 704.112 184.841 703.916 184.631C703.72 184.421 703.622 184.169 703.622 183.875C703.622 183.595 703.72 183.35 703.916 183.14C704.112 182.916 704.385 182.804 704.735 182.804C705.071 182.804 705.337 182.916 705.533 183.14C705.743 183.35 705.848 183.595 705.848 183.875ZM703.895 186.626H705.575V197H703.895V186.626ZM711.434 197.252C710.958 197.252 710.517 197.175 710.111 197.021C709.719 196.867 709.376 196.65 709.082 196.37C708.788 196.09 708.557 195.761 708.389 195.383C708.235 194.991 708.158 194.564 708.158 194.102C708.158 193.206 708.48 192.485 709.124 191.939C709.768 191.393 710.685 191.085 711.875 191.015L714.605 190.847V190.112C714.605 189.314 714.409 188.74 714.017 188.39C713.639 188.026 713.093 187.844 712.379 187.844C711.777 187.844 711.259 187.956 710.825 188.18C710.391 188.404 710.055 188.649 709.817 188.915L708.809 187.907C709.173 187.459 709.663 187.095 710.279 186.815C710.909 186.521 711.623 186.374 712.421 186.374C713.135 186.374 713.737 186.472 714.227 186.668C714.717 186.85 715.109 187.102 715.403 187.424C715.711 187.746 715.928 188.124 716.054 188.558C716.194 188.992 716.264 189.454 716.264 189.944V197H714.689V195.236H714.563C714.283 195.866 713.891 196.363 713.387 196.727C712.883 197.077 712.232 197.252 711.434 197.252ZM711.686 195.824C712.554 195.824 713.254 195.572 713.786 195.068C714.332 194.55 714.605 193.864 714.605 193.01V192.107L711.959 192.296C710.559 192.408 709.859 192.996 709.859 194.06C709.859 194.592 710.027 195.019 710.363 195.341C710.713 195.663 711.154 195.824 711.686 195.824ZM719.645 186.626H721.241V188.264H721.367C721.619 187.718 721.976 187.27 722.438 186.92C722.9 186.556 723.488 186.374 724.202 186.374C725.392 186.374 726.33 186.689 727.016 187.319C727.716 187.949 728.066 188.964 728.066 190.364V197H726.386V190.679C726.386 189.615 726.169 188.866 725.735 188.432C725.315 187.984 724.692 187.76 723.866 187.76C723.068 187.76 722.445 188.033 721.997 188.579C721.549 189.125 721.325 189.923 721.325 190.973V197H719.645V186.626Z" fill="#242E30"/>
<rect x="593.75" y="172.75" width="141.5" height="34.5" rx="11.25" stroke="#DBD9D7" stroke-width="1.5"/>
<rect width="876" height="2" transform="translate(219 264)" fill="black" fill-opacity="0.08"/>
</g>
<defs>
<filter id="filter0_f_807_139220" x="131" y="28" width="1111" height="559" filterUnits="userSpaceOnUse" color-interpolation-filters="sRGB">
<feFlood flood-opacity="0" result="BackgroundImageFix"/>
<feBlend mode="normal" in="SourceGraphic" in2="BackgroundImageFix" result="shape"/>
<feGaussianBlur stdDeviation="50" result="effect1_foregroundBlur_807_139220"/>
</filter>
<clipPath id="clip0_807_139220">
<rect width="21" height="21" fill="white" transform="translate(489.5 179.5)"/>
</clipPath>
<clipPath id="clip1_807_139220">
<rect width="21" height="21" fill="white" transform="translate(600.5 179.5)"/>
</clipPath>
</defs>
</svg>
