<svg width="360" height="200" fill="none" xmlns="http://www.w3.org/2000/svg"><mask id="rtl-example-amount-breakdown__a" fill="#fff"><path d="M.5 0h359v200H.5V0Z"/></mask><path d="M.5 0h359v200H.5V0Z" fill="#fff"/><path d="M359.5 199H.5v2h359v-2Z" fill="#EBEBEB" mask="url(#rtl-example-amount-breakdown__a)"/><path d="M266.132 28.096c0-.512-.139-.912-.416-1.2a1.361 1.361 0 0 0-1.04-.448h-4.384v-1.696h4.544c.501 0 .96.08 1.376.24.416.16.773.39 1.072.688.309.288.544.64.704 1.056.17.405.256.859.256 1.36V34h-2.112v-5.904Zm-5.84.624h2.112V34h-2.112v-5.28Zm9.566 3.584h2.592v-4.448c0-.512-.096-.875-.288-1.088-.192-.213-.49-.32-.896-.32h-1.312v-1.696h1.52c1.003 0 1.766.267 2.288.8.534.533.8 1.301.8 2.304V34h-4.704v-1.696Zm6.841-4.512-.432-3.04h2.016l.144 1.072h.032c.214-.33.528-.624.944-.88.427-.256 1.003-.384 1.728-.384.619 0 1.147.096 1.584.288.448.192.816.464 1.104.816.288.352.496.773.624 1.264a5.68 5.68 0 0 1 .208 1.584V34h-4.064v-1.696h1.968v-3.488c0-.341-.037-.661-.112-.96a2.236 2.236 0 0 0-.32-.8 1.473 1.473 0 0 0-.56-.528c-.234-.128-.517-.192-.848-.192-.64 0-1.12.235-1.44.704-.309.47-.464 1.061-.464 1.776V34h-2.112v-6.208Zm10.749 2.432a29 29 0 0 0-.032-.4v-.384c0-.704.064-1.285.192-1.744.139-.47.315-.885.528-1.248h-1.952v-1.696h5.376v1.696h-1.312a4.911 4.911 0 0 0-.56 1.2c-.117.416-.176.939-.176 1.568 0 .31.016.645.048 1.008l.336 3.776h-2.112l-.336-3.776Zm11.434-2.128c0-.512-.139-.912-.416-1.2a1.361 1.361 0 0 0-1.04-.448h-4.384v-1.696h4.544c.501 0 .96.08 1.376.24.416.16.773.39 1.072.688.309.288.544.64.704 1.056.17.405.256.859.256 1.36V34h-2.112v-5.904Zm-5.84.624h2.112V34h-2.112v-5.28Zm13.89-3.968h4.784c.501 0 .96.08 1.376.24.416.16.773.39 1.072.688.309.288.544.64.704 1.056.171.405.256.859.256 1.36V34h-8.192v-9.248Zm2.112 1.696v5.856h3.968v-4.208c0-.512-.139-.912-.416-1.2a1.36 1.36 0 0 0-1.04-.448h-2.512Zm8.185-1.696h2.128V34h-2.128v-9.248Zm3.879 7.536h2.4c.363 0 .694-.07.992-.208a2.36 2.36 0 0 0 .768-.608 2.96 2.96 0 0 0 .496-.928c.118-.363.176-.752.176-1.168 0-.416-.058-.8-.176-1.152a2.74 2.74 0 0 0-.496-.928 2.273 2.273 0 0 0-.768-.624 2.184 2.184 0 0 0-.992-.224h-2.4v-1.696h2.4c.779 0 1.456.139 2.032.416.576.277 1.056.64 1.44 1.088.384.437.667.933.848 1.488.192.544.288 1.088.288 1.632a4.97 4.97 0 0 1-.288 1.632 4.409 4.409 0 0 1-.848 1.488c-.384.437-.864.8-1.44 1.088-.576.277-1.253.416-2.032.416h-2.4v-1.712Zm8.715-7.536h2.112v6.224h-2.112v-6.224Zm8.472 9.44c-.79 0-1.472-.144-2.048-.432a4.63 4.63 0 0 1-1.44-1.136 4.906 4.906 0 0 1-.848-1.536 5.657 5.657 0 0 1-.272-1.712c0-.555.09-1.12.272-1.696a4.868 4.868 0 0 1 .848-1.552 4.437 4.437 0 0 1 1.44-1.12c.576-.299 1.258-.448 2.048-.448.778 0 1.456.15 2.032.448a4.27 4.27 0 0 1 1.424 1.12c.384.459.666.976.848 1.552.192.576.288 1.141.288 1.696a5.39 5.39 0 0 1-.288 1.712 4.536 4.536 0 0 1-.848 1.536 4.45 4.45 0 0 1-1.424 1.136c-.576.288-1.254.432-2.032.432Zm0-1.792c.352 0 .677-.075.976-.224.298-.15.554-.357.768-.624.213-.267.378-.581.496-.944.117-.373.176-.784.176-1.232a3.95 3.95 0 0 0-.176-1.216 2.94 2.94 0 0 0-.496-.96 2.292 2.292 0 0 0-.768-.624 2.153 2.153 0 0 0-.976-.224c-.363 0-.694.075-.992.224-.299.15-.56.357-.784.624a2.903 2.903 0 0 0-.496.96 3.918 3.918 0 0 0-.176 1.216c0 .448.058.859.176 1.232.117.363.282.677.496.944.224.267.485.475.784.624.298.15.629.224.992.224ZM20.238 64.84h1.19v5.152h2.254c.504 0 .887-.15 1.148-.448.27-.308.406-.742.406-1.302v-5.81h1.176v5.81c0 .905-.247 1.591-.742 2.058-.485.467-1.148.7-1.988.7h-3.444v-6.16Zm2.492.35c0-.56-.13-.99-.392-1.288-.261-.308-.644-.462-1.148-.462h-2.254V71h-1.19v-8.568h3.444c.84 0 1.503.233 1.988.7.495.467.742 1.153.742 2.058v3.402h-1.19V65.19Zm8.682 5.978c-.635 0-1.157-.107-1.568-.322-.41-.215-.77-.49-1.078-.826l.714-.714a3 3 0 0 0 .798.588c.308.159.672.238 1.092.238.588 0 1.055-.154 1.4-.462.354-.317.532-.77.532-1.358 0-.597-.182-1.05-.546-1.358-.364-.317-.868-.476-1.512-.476h-1.428l-.448-.448V61.9h4.648v1.008h-3.528v2.576h.98c.504 0 .947.07 1.33.21.383.14.7.336.952.588.252.243.443.537.574.882.13.345.196.728.196 1.148a3.1 3.1 0 0 1-.196 1.106 2.396 2.396 0 0 1-.574.91 2.866 2.866 0 0 1-.966.616c-.383.15-.84.224-1.372.224Zm10.326-8.26h-4.564V61.9h5.908v.896L39.106 71h-1.288l3.92-8.092Zm4.307 8.26c-.261 0-.467-.084-.616-.252a.84.84 0 0 1-.224-.574.81.81 0 0 1 .224-.574c.15-.168.355-.252.616-.252.27 0 .476.084.616.252.15.159.224.35.224.574a.84.84 0 0 1-.224.574c-.14.168-.345.252-.616.252Zm6.104 0c-1.045 0-1.843-.369-2.394-1.106-.541-.747-.812-1.862-.812-3.346 0-1.615.308-2.847.924-3.696.616-.859 1.451-1.288 2.506-1.288.644 0 1.167.098 1.568.294.401.187.737.43 1.008.728l-.714.756a2.334 2.334 0 0 0-.784-.546c-.29-.13-.635-.196-1.036-.196-.719 0-1.293.322-1.722.966-.42.644-.63 1.605-.63 2.884h.084c.177-.383.453-.705.826-.966.373-.27.85-.406 1.428-.406.345 0 .686.06 1.022.182.345.121.649.303.91.546.261.243.471.541.63.896.168.355.252.765.252 1.232 0 .43-.07.83-.21 1.204-.13.373-.327.7-.588.98-.261.27-.583.485-.966.644a3.372 3.372 0 0 1-1.302.238Zm.014-1.036c.588 0 1.04-.182 1.358-.546.317-.373.476-.845.476-1.414 0-.588-.163-1.05-.49-1.386-.317-.345-.765-.518-1.344-.518-.579 0-1.031.173-1.358.518-.327.336-.49.798-.49 1.386 0 .57.159 1.04.476 1.414.327.364.784.546 1.372.546Zm8.227 1.036c-.58 0-1.078-.121-1.498-.364a3.056 3.056 0 0 1-1.023-.994 5.018 5.018 0 0 1-.587-1.498 9.061 9.061 0 0 1-.182-1.862c0-.663.06-1.279.181-1.848a4.819 4.819 0 0 1 .589-1.498c.27-.43.61-.765 1.022-1.008.42-.243.919-.364 1.497-.364.58 0 1.074.121 1.484.364.42.243.761.579 1.023 1.008.27.42.466.92.587 1.498.131.57.197 1.185.197 1.848s-.066 1.283-.197 1.862a4.573 4.573 0 0 1-.587 1.498c-.262.42-.602.751-1.023.994-.41.243-.905.364-1.483.364Zm0-1.008c.345 0 .648-.084.91-.252.26-.177.476-.425.644-.742a4 4 0 0 0 .392-1.176c.084-.457.126-.97.126-1.54 0-.57-.043-1.083-.127-1.54a3.775 3.775 0 0 0-.392-1.162 1.873 1.873 0 0 0-.643-.742 1.582 1.582 0 0 0-.91-.266c-.346 0-.65.089-.91.266-.252.168-.467.415-.644.742a4.342 4.342 0 0 0-.392 1.162c-.085.457-.127.97-.127 1.54 0 .57.042 1.083.127 1.54.093.457.223.85.392 1.176.177.317.392.565.644.742.26.168.564.252.91.252Zm184.948-7.252h3.766c.83 0 1.488.233 1.974.7.494.467.742 1.153.742 2.058V71h-6.482v-8.092Zm1.19.994v6.09h4.116v-4.326c0-.56-.136-.994-.406-1.302-.262-.308-.644-.462-1.148-.462h-2.562Zm7.558-.994h1.19v5.362h-1.19v-5.362Zm6.859 8.246c-.662 0-1.227-.126-1.694-.378a3.612 3.612 0 0 1-1.148-.994 4.445 4.445 0 0 1-.644-1.358 5.93 5.93 0 0 1-.196-1.484v-4.032h1.19v4.032c0 .457.056.882.168 1.274.112.392.276.733.49 1.022.215.28.476.5.784.658.308.159.663.238 1.064.238.756 0 1.344-.299 1.764-.896.43-.597.644-1.517.644-2.758 0-.56-.046-1.017-.14-1.372-.093-.355-.219-.63-.378-.826a1.112 1.112 0 0 0-.56-.406 2.114 2.114 0 0 0-.7-.112c-.186 0-.368.019-.546.056a1.68 1.68 0 0 0-.49.154v-1.064c.29-.112.64-.168 1.05-.168.42 0 .808.065 1.162.196.364.13.677.345.938.644.271.29.481.677.63 1.162.159.476.238 1.064.238 1.764 0 .69-.074 1.32-.224 1.89-.14.57-.364 1.06-.672 1.47a3.2 3.2 0 0 1-1.134.952c-.448.224-.98.336-1.596.336Zm5.46-8.246h1.19v5.362h-1.19v-5.362Zm6.957 3.36c0-.85-.15-1.451-.448-1.806-.299-.364-.789-.546-1.47-.546h-2.296v-1.008h2.324c1.045 0 1.815.28 2.31.84.504.56.756 1.4.756 2.52V71h-1.176v-4.732Zm5.771 4.9c-.308 0-.616-.023-.924-.07a9.572 9.572 0 0 1-.854-.14 25.297 25.297 0 0 1-.658-.154 18.89 18.89 0 0 0-.364-.112l.378-1.064c.093.047.219.098.378.154.168.056.354.112.56.168.214.056.448.103.7.14.252.037.513.056.784.056.532-.01.98-.112 1.344-.308a2.62 2.62 0 0 0 .896-.742c.233-.308.401-.649.504-1.022.102-.373.154-.747.154-1.12 0-.457-.066-.882-.196-1.274a3.086 3.086 0 0 0-.546-1.008 2.449 2.449 0 0 0-.84-.672 2.435 2.435 0 0 0-1.078-.238c-.243 0-.481.037-.714.112a1.75 1.75 0 0 0-.602.308c-.168.14-.304.322-.406.546-.103.224-.154.49-.154.798 0 .457.116.83.35 1.12.233.29.564.434.994.434.186 0 .317-.01.392-.028v1.008a2.45 2.45 0 0 1-.504.042c-.411 0-.77-.065-1.078-.196a2.278 2.278 0 0 1-.756-.56c-.206-.233-.36-.5-.462-.798a3.025 3.025 0 0 1-.154-.966c0-.401.07-.775.21-1.12a2.69 2.69 0 0 1 .616-.91c.27-.252.597-.448.98-.588a3.67 3.67 0 0 1 1.316-.224c.653 0 1.218.13 1.694.392.485.252.886.583 1.204.994.317.401.55.854.7 1.358.158.504.238 1.003.238 1.498 0 .467-.075.947-.224 1.442a3.88 3.88 0 0 1-.7 1.344c-.318.41-.738.747-1.26 1.008-.523.261-1.162.392-1.918.392Zm11.1-5.502c0-.56-.131-.99-.392-1.288-.261-.308-.644-.462-1.148-.462h-3.57v-1.008h3.57c.831 0 1.489.233 1.974.7.495.467.742 1.153.742 2.058V71h-1.176v-5.334Zm-5.11.574h1.19V71h-1.19v-4.76Zm15.336.028c0-.85-.149-1.451-.448-1.806-.298-.364-.788-.546-1.47-.546h-2.296v-1.008h2.324c1.046 0 1.816.28 2.31.84.504.56.756 1.4.756 2.52V71h-1.176v-4.732Zm3.447-3.36h1.19v5.362h-1.19v-5.362Zm3.611 0h3.696c.831 0 1.494.233 1.988.7.495.467.742 1.153.742 2.058V71h-1.19v-5.334c0-.56-.135-.99-.406-1.288-.261-.308-.644-.462-1.148-.462h-2.492V71h-1.19v-8.092Zm8.666 2.492-.224-2.492h1.05l.112 1.134h.014a2.25 2.25 0 0 1 .938-.952c.42-.233.924-.35 1.512-.35.476 0 .901.084 1.274.252.373.159.686.383.938.672.261.28.457.62.588 1.022.131.401.196.84.196 1.316V71h-3.262v-1.008h2.086v-3.71c0-.364-.042-.7-.126-1.008a2.305 2.305 0 0 0-.35-.798 1.632 1.632 0 0 0-.63-.546 1.923 1.923 0 0 0-.896-.196 1.92 1.92 0 0 0-.896.196c-.252.13-.462.313-.63.546-.168.224-.294.49-.378.798a3.822 3.822 0 0 0-.126 1.008V71h-1.19v-5.6Zm16.134 1.708c0-.457-.07-.877-.21-1.26a2.937 2.937 0 0 0-.56-1.008 2.43 2.43 0 0 0-.84-.672 2.292 2.292 0 0 0-1.064-.252h-2.226v-1.008h2.24c.653 0 1.218.126 1.694.378.485.252.887.583 1.204.994.317.401.551.854.7 1.358.159.495.238.985.238 1.47v6.482h-1.176v-6.482Zm6.708 4.06c-.653 0-1.222-.126-1.708-.378a3.83 3.83 0 0 1-1.204-.994 4.419 4.419 0 0 1-.714-1.358 5.264 5.264 0 0 1-.224-1.498c0-.485.075-.975.224-1.47.159-.504.397-.957.714-1.358.318-.41.719-.742 1.204-.994.486-.252 1.055-.378 1.708-.378.654 0 1.218.126 1.694.378.486.252.887.583 1.204.994.318.401.551.854.7 1.358.159.495.238.985.238 1.47 0 .495-.079.994-.238 1.498a4.159 4.159 0 0 1-.7 1.358 3.809 3.809 0 0 1-1.204.994c-.476.252-1.04.378-1.694.378Zm0-1.036c.383 0 .733-.08 1.05-.238.327-.159.607-.378.84-.658.234-.29.416-.63.546-1.022.131-.392.196-.817.196-1.274 0-.448-.065-.863-.196-1.246a3.05 3.05 0 0 0-.546-1.008 2.43 2.43 0 0 0-.84-.672 2.207 2.207 0 0 0-1.05-.252c-.382 0-.737.084-1.064.252a2.488 2.488 0 0 0-.826.672c-.233.28-.415.616-.546 1.008a3.85 3.85 0 0 0-.196 1.246c0 .457.066.882.196 1.274.131.392.313.733.546 1.022.234.28.509.5.826.658.327.159.682.238 1.064.238ZM20.238 92.84h1.19v5.152h2.254c.504 0 .887-.15 1.148-.448.27-.308.406-.742.406-1.302v-5.81h1.176v5.81c0 .905-.247 1.591-.742 2.058-.485.467-1.148.7-1.988.7h-3.444v-6.16Zm2.492.35c0-.56-.13-.99-.392-1.288-.261-.308-.644-.462-1.148-.462h-2.254V99h-1.19v-8.568h3.444c.84 0 1.503.233 1.988.7.495.467.742 1.153.742 2.058v3.402h-1.19V93.19Zm6.106 4.83h2.604v-6.86l-2.492 1.148-.364-.784L31.65 89.9h.98v8.12h2.338V99h-6.132v-.98ZM40.1 99.168c-.578 0-1.078-.121-1.498-.364a3.057 3.057 0 0 1-1.022-.994 5.023 5.023 0 0 1-.588-1.498 9.068 9.068 0 0 1-.182-1.862c0-.663.061-1.279.182-1.848a4.843 4.843 0 0 1 .588-1.498 3.02 3.02 0 0 1 1.022-1.008c.42-.243.92-.364 1.498-.364.58 0 1.074.121 1.484.364.42.243.761.579 1.022 1.008.271.42.467.92.588 1.498.131.57.196 1.185.196 1.848a8.44 8.44 0 0 1-.196 1.862 4.568 4.568 0 0 1-.588 1.498c-.26.42-.602.751-1.022.994-.41.243-.905.364-1.484.364Zm0-1.008c.346 0 .65-.084.91-.252.262-.177.476-.425.644-.742.178-.327.308-.719.392-1.176.084-.457.126-.97.126-1.54 0-.57-.042-1.083-.126-1.54a3.775 3.775 0 0 0-.392-1.162 1.873 1.873 0 0 0-.644-.742 1.582 1.582 0 0 0-.91-.266c-.345 0-.648.089-.91.266-.252.168-.466.415-.644.742a4.342 4.342 0 0 0-.392 1.162c-.084.457-.126.97-.126 1.54 0 .57.042 1.083.126 1.54.094.457.224.85.392 1.176.178.317.392.565.644.742.262.168.565.252.91.252Zm5.945 1.008c-.261 0-.467-.084-.616-.252a.84.84 0 0 1-.224-.574.81.81 0 0 1 .224-.574c.15-.168.355-.252.616-.252.27 0 .476.084.616.252.15.159.224.35.224.574a.84.84 0 0 1-.224.574c-.14.168-.345.252-.616.252Zm5.95 0c-.579 0-1.078-.121-1.498-.364a3.058 3.058 0 0 1-1.022-.994 5.023 5.023 0 0 1-.588-1.498 9.068 9.068 0 0 1-.182-1.862c0-.663.06-1.279.182-1.848.13-.579.327-1.078.588-1.498.27-.43.611-.765 1.022-1.008.42-.243.92-.364 1.498-.364.579 0 1.073.121 1.484.364.42.243.76.579 1.022 1.008.27.42.467.92.588 1.498.13.57.196 1.185.196 1.848a8.44 8.44 0 0 1-.196 1.862 4.568 4.568 0 0 1-.588 1.498c-.261.42-.602.751-1.022.994-.41.243-.905.364-1.484.364Zm0-1.008c.345 0 .649-.084.91-.252a2.01 2.01 0 0 0 .644-.742c.177-.327.308-.719.392-1.176.084-.457.126-.97.126-1.54 0-.57-.042-1.083-.126-1.54a3.772 3.772 0 0 0-.392-1.162 1.872 1.872 0 0 0-.644-.742 1.582 1.582 0 0 0-.91-.266c-.345 0-.649.089-.91.266-.252.168-.467.415-.644.742a4.345 4.345 0 0 0-.392 1.162c-.084.457-.126.97-.126 1.54 0 .57.042 1.083.126 1.54.093.457.224.85.392 1.176.177.317.392.565.644.742.261.168.565.252.91.252Zm8.395 1.008c-.58 0-1.078-.121-1.498-.364a3.056 3.056 0 0 1-1.023-.994 5.018 5.018 0 0 1-.587-1.498 9.061 9.061 0 0 1-.182-1.862c0-.663.06-1.279.181-1.848a4.819 4.819 0 0 1 .589-1.498c.27-.43.61-.765 1.022-1.008.42-.243.919-.364 1.497-.364.58 0 1.074.121 1.484.364.42.243.761.579 1.023 1.008.27.42.466.92.587 1.498.131.57.197 1.185.197 1.848s-.066 1.283-.197 1.862a4.573 4.573 0 0 1-.587 1.498c-.262.42-.602.751-1.023.994-.41.243-.905.364-1.483.364Zm0-1.008c.345 0 .648-.084.91-.252.26-.177.476-.425.644-.742a4 4 0 0 0 .392-1.176c.084-.457.126-.97.126-1.54 0-.57-.043-1.083-.127-1.54a3.775 3.775 0 0 0-.392-1.162 1.873 1.873 0 0 0-.643-.742 1.582 1.582 0 0 0-.91-.266c-.346 0-.65.089-.91.266-.252.168-.467.415-.644.742a4.342 4.342 0 0 0-.392 1.162c-.085.457-.127.97-.127 1.54 0 .57.042 1.083.127 1.54.093.457.223.85.392 1.176.177.317.392.565.644.742.26.168.564.252.91.252Zm224.282-7.252h3.696c.83 0 1.493.233 1.988.7.494.467.742 1.153.742 2.058V99h-1.19v-5.334c0-.56-.136-.99-.406-1.288-.262-.308-.644-.462-1.148-.462h-2.492V99h-1.19v-8.092Zm8.763 0h1.19V99h-1.19v-8.092Zm7.318 1.008h-4.508V89.13h1.176v1.778h4.634v.952L299.353 99h-1.302l2.702-7.084Zm6.85 7.252c-.681 0-1.279-.13-1.792-.392a4.024 4.024 0 0 1-1.274-1.022 4.58 4.58 0 0 1-.77-1.428 5.363 5.363 0 0 1-.252-1.624v-3.794h1.19v3.794c0 .541.075 1.027.224 1.456.159.43.369.798.63 1.106.261.299.565.527.91.686.355.159.733.238 1.134.238.401 0 .775-.08 1.12-.238.355-.159.663-.387.924-.686.261-.308.467-.677.616-1.106.159-.43.238-.915.238-1.456v-3.794h1.176v3.794c0 .55-.089 1.092-.266 1.624a4.238 4.238 0 0 1-.77 1.428c-.336.42-.761.76-1.274 1.022-.504.261-1.092.392-1.764.392Zm-.588-8.26h1.162v5.6h-1.162v-5.6Zm6.625 2.492-.224-2.492h1.05l.112 1.134h.014a2.26 2.26 0 0 1 .938-.952c.42-.233.924-.35 1.512-.35.476 0 .901.084 1.274.252.374.159.686.383.938.672.262.28.458.62.588 1.022.131.401.196.84.196 1.316V99h-3.262v-1.008h2.086v-3.71c0-.364-.042-.7-.126-1.008a2.286 2.286 0 0 0-.35-.798 1.618 1.618 0 0 0-.63-.546 1.92 1.92 0 0 0-.896-.196 1.92 1.92 0 0 0-.896.196c-.252.13-.462.313-.63.546-.168.224-.294.49-.378.798a3.822 3.822 0 0 0-.126 1.008V99h-1.19v-5.6Zm12.032-2.492h1.19v5.362h-1.19v-5.362Zm3.513 2.492-.224-2.492h1.05l.112 1.134h.014a2.25 2.25 0 0 1 .938-.952c.42-.233.924-.35 1.512-.35.476 0 .901.084 1.274.252.373.159.686.383.938.672.261.28.457.62.588 1.022.131.401.196.84.196 1.316V99h-3.262v-1.008h2.086v-3.71c0-.364-.042-.7-.126-1.008a2.305 2.305 0 0 0-.35-.798 1.632 1.632 0 0 0-.63-.546 1.923 1.923 0 0 0-.896-.196 1.92 1.92 0 0 0-.896.196c-.252.13-.462.313-.63.546-.168.224-.294.49-.378.798a3.822 3.822 0 0 0-.126 1.008V99h-1.19v-5.6Zm7.871-2.492h6.02v1.008h-1.162V99h-1.176v-7.084h-3.682v-1.008Z" fill="#0A3847"/><path fill="#fff" d="M16.5 112h327v40h-327z"/><path d="M20.692 122.992h2.112v5.312h2.608c.427 0 .779-.144 1.056-.432.277-.299.416-.704.416-1.216v-6.448h2.112v6.448c0 .501-.085.96-.256 1.376-.16.405-.395.757-.704 1.056a3.156 3.156 0 0 1-1.072.672c-.416.16-.875.24-1.376.24h-4.896v-7.008Zm3.088.56c0-.512-.139-.912-.416-1.2a1.359 1.359 0 0 0-1.04-.448h-2.608V130h-2.112v-9.792H22.5c.49 0 .944.08 1.36.24.427.16.79.389 1.088.688.299.288.533.64.704 1.056.17.405.256.859.256 1.36v3.664H23.78v-3.664Zm11.26 6.64a4.44 4.44 0 0 1-1.68-.304 3.21 3.21 0 0 1-1.263-.944c-.342-.427-.608-.96-.8-1.6-.182-.64-.272-1.403-.272-2.288 0-.971.106-1.808.32-2.512.224-.715.528-1.301.912-1.76a3.555 3.555 0 0 1 1.36-1.04 4.219 4.219 0 0 1 1.68-.336c.778 0 1.424.112 1.936.336.522.213.95.496 1.28.848l-1.248 1.328a2.23 2.23 0 0 0-.8-.528 2.593 2.593 0 0 0-1.072-.208c-.715 0-1.28.304-1.696.912-.406.608-.608 1.493-.608 2.656h.096a2.59 2.59 0 0 1 .928-1.072c.405-.267.906-.4 1.504-.4.426 0 .837.075 1.232.224.405.149.757.368 1.056.656.298.288.538.64.72 1.056.181.405.272.869.272 1.392 0 .501-.09.971-.272 1.408-.17.437-.422.816-.752 1.136a3.7 3.7 0 0 1-1.216.768c-.47.181-1.008.272-1.616.272Zm-.015-1.68c.522 0 .944-.16 1.264-.48.33-.331.496-.779.496-1.344 0-.576-.16-1.019-.48-1.328-.32-.32-.747-.48-1.28-.48-.523 0-.95.16-1.28.48-.33.309-.496.752-.496 1.328 0 .565.16 1.013.48 1.344.33.32.762.48 1.296.48Zm10.917-7.168h-5.04V119.6h7.536v1.488L43.862 130H41.51l4.432-8.656Zm5.813 8.848c-.427 0-.753-.128-.977-.384a1.38 1.38 0 0 1-.335-.912c0-.331.111-.624.336-.88.223-.267.549-.4.975-.4.427 0 .753.133.977.4.224.256.335.549.335.88 0 .341-.111.645-.336.912-.223.256-.549.384-.975.384Zm7.27 0a4.44 4.44 0 0 1-1.68-.304 3.21 3.21 0 0 1-1.264-.944c-.341-.427-.608-.96-.8-1.6-.181-.64-.272-1.403-.272-2.288 0-.971.107-1.808.32-2.512.224-.715.528-1.301.912-1.76a3.556 3.556 0 0 1 1.36-1.04 4.22 4.22 0 0 1 1.68-.336c.779 0 1.424.112 1.936.336.523.213.95.496 1.28.848l-1.248 1.328a2.23 2.23 0 0 0-.8-.528 2.592 2.592 0 0 0-1.072-.208c-.715 0-1.28.304-1.696.912-.405.608-.608 1.493-.608 2.656h.096c.214-.448.523-.805.928-1.072s.907-.4 1.504-.4c.427 0 .837.075 1.232.224.406.149.758.368 1.056.656.299.288.539.64.72 1.056.181.405.272.869.272 1.392 0 .501-.09.971-.272 1.408a3.16 3.16 0 0 1-.752 1.136 3.7 3.7 0 0 1-1.216.768c-.47.181-1.008.272-1.616.272Zm-.016-1.68c.523 0 .944-.16 1.264-.48.33-.331.496-.779.496-1.344 0-.576-.16-1.019-.48-1.328-.32-.32-.747-.48-1.28-.48-.523 0-.95.16-1.28.48-.33.309-.496.752-.496 1.328 0 .565.16 1.013.48 1.344.33.32.763.48 1.296.48Zm9.621 1.68c-.736 0-1.37-.139-1.904-.416a3.626 3.626 0 0 1-1.296-1.152 5.099 5.099 0 0 1-.752-1.712 8.834 8.834 0 0 1-.24-2.112c0-.747.08-1.445.24-2.096.16-.661.41-1.237.752-1.728a3.626 3.626 0 0 1 1.296-1.152c.533-.277 1.168-.416 1.904-.416s1.365.139 1.888.416c.533.277.97.661 1.312 1.152.352.491.608 1.067.768 1.728.16.651.24 1.349.24 2.096 0 .757-.08 1.461-.24 2.112a4.918 4.918 0 0 1-.768 1.712 3.588 3.588 0 0 1-1.312 1.152c-.523.277-1.152.416-1.888.416Zm.016-1.76c.64 0 1.136-.309 1.488-.928.352-.629.528-1.525.528-2.688 0-1.184-.176-2.085-.528-2.704-.352-.629-.848-.944-1.488-.944s-1.141.315-1.504.944c-.352.619-.528 1.52-.528 2.704 0 1.163.176 2.059.528 2.688.363.619.864.928 1.504.928Zm185.939-4.336c0-.512-.139-.912-.416-1.2a1.36 1.36 0 0 0-1.04-.448h-4.384v-1.696h4.544c.501 0 .96.08 1.376.24.416.16.773.389 1.072.688.309.288.544.64.704 1.056.17.405.256.859.256 1.36V130h-2.112v-5.904Zm-5.84.624h2.112V130h-2.112v-5.28Zm9.567 3.584h2.592v-4.448c0-.512-.096-.875-.288-1.088-.192-.213-.491-.32-.896-.32h-1.312v-1.696h1.52c1.002 0 1.765.267 2.288.8.533.533.8 1.301.8 2.304V130h-4.704v-1.696Zm6.84-4.512-.432-3.04h2.016l.144 1.072h.032c.214-.331.528-.624.944-.88.427-.256 1.003-.384 1.728-.384.619 0 1.147.096 1.584.288.448.192.816.464 1.104.816.288.352.496.773.624 1.264a5.68 5.68 0 0 1 .208 1.584V130h-4.064v-1.696h1.968v-3.488c0-.341-.037-.661-.112-.96a2.238 2.238 0 0 0-.32-.8 1.473 1.473 0 0 0-.56-.528c-.234-.128-.517-.192-.848-.192-.64 0-1.12.235-1.44.704-.309.469-.464 1.061-.464 1.776V130h-2.112v-6.208Zm10.749 2.432a28.63 28.63 0 0 0-.032-.4v-.384c0-.704.064-1.285.192-1.744.139-.469.315-.885.528-1.248h-1.952v-1.696h5.376v1.696h-1.312a4.911 4.911 0 0 0-.56 1.2c-.117.416-.176.939-.176 1.568 0 .309.016.645.048 1.008l.336 3.776h-2.112l-.336-3.776Zm11.434-2.128c0-.512-.139-.912-.416-1.2a1.36 1.36 0 0 0-1.04-.448h-4.384v-1.696h4.544c.501 0 .96.08 1.376.24.416.16.773.389 1.072.688.309.288.544.64.704 1.056.17.405.256.859.256 1.36V130h-2.112v-5.904Zm-5.84.624h2.112V130h-2.112v-5.28Zm15.887-.624c0-.512-.139-.912-.416-1.2a1.36 1.36 0 0 0-1.04-.448h-4.384v-1.696h4.544c.501 0 .96.08 1.376.24.416.16.773.389 1.072.688.309.288.544.64.704 1.056.17.405.256.859.256 1.36V130h-2.112v-5.904Zm-5.84.624h2.112V130h-2.112v-5.28Zm18.242-2.272h-5.12v-3.728h2.112v2.032h5.264v1.472L308.92 130h-2.144l3.008-7.552Zm3.403 5.84h2.4c.362 0 .693-.069.992-.208.298-.149.554-.352.768-.608.213-.267.378-.576.496-.928.117-.363.176-.752.176-1.168 0-.416-.059-.8-.176-1.152a2.771 2.771 0 0 0-.496-.928 2.194 2.194 0 0 0-1.76-.848h-2.4v-1.696h2.4c.778 0 1.456.139 2.032.416.576.277 1.056.64 1.44 1.088.384.437.666.933.848 1.488.192.544.288 1.088.288 1.632 0 .533-.096 1.077-.288 1.632a4.425 4.425 0 0 1-.848 1.488c-.384.437-.864.8-1.44 1.088-.576.277-1.254.416-2.032.416h-2.4v-1.712Zm16.846-2.72c0-.448-.064-.859-.192-1.232a2.924 2.924 0 0 0-.512-.992 2.11 2.11 0 0 0-.784-.656c-.31-.16-.646-.24-1.008-.24h-2.56v-1.696h2.576c.778 0 1.456.149 2.032.448.576.288 1.05.661 1.424 1.12.384.459.666.976.848 1.552.192.576.288 1.141.288 1.696v7.392h-2.112v-7.392Zm8.262 4.624c-.79 0-1.472-.144-2.048-.432a4.63 4.63 0 0 1-1.44-1.136 4.913 4.913 0 0 1-.848-1.536 5.658 5.658 0 0 1-.272-1.712c0-.555.09-1.12.272-1.696a4.871 4.871 0 0 1 .848-1.552 4.433 4.433 0 0 1 1.44-1.12c.576-.299 1.258-.448 2.048-.448.778 0 1.456.149 2.032.448.576.288 1.05.661 1.424 1.12.384.459.666.976.848 1.552.192.576.288 1.141.288 1.696 0 .565-.096 1.136-.288 1.712a4.542 4.542 0 0 1-.848 1.536 4.45 4.45 0 0 1-1.424 1.136c-.576.288-1.254.432-2.032.432Zm0-1.792c.352 0 .677-.075.976-.224.298-.149.554-.357.768-.624.213-.267.378-.581.496-.944.117-.373.176-.784.176-1.232a3.95 3.95 0 0 0-.176-1.216 2.947 2.947 0 0 0-.496-.96 2.285 2.285 0 0 0-.768-.624 2.157 2.157 0 0 0-.976-.224c-.363 0-.694.075-.992.224-.299.149-.56.357-.784.624a2.908 2.908 0 0 0-.496.96 3.92 3.92 0 0 0-.176 1.216c0 .448.058.859.176 1.232.117.363.282.677.496.944.224.267.485.475.784.624.298.149.629.224.992.224Z" fill="#0A3847"/><path d="M149.25 170.84h1.19v5.152h2.254c.504 0 .886-.149 1.148-.448.27-.308.406-.742.406-1.302v-5.81h1.176v5.81c0 .905-.248 1.591-.742 2.058-.486.467-1.148.7-1.988.7h-3.444v-6.16Zm2.492.35c0-.56-.131-.989-.392-1.288-.262-.308-.644-.462-1.148-.462h-2.254V177h-1.19v-8.568h3.444c.84 0 1.502.233 1.988.7.494.467.742 1.153.742 2.058v3.402h-1.19v-3.402Zm9.469 4.83h2.604v-6.86l-2.492 1.148-.364-.784 3.066-1.624h.98v8.12h2.338v.98h-6.132v-.98Zm12.104-.896h-4.242v-.938l4.018-6.286h1.33l-4.032 6.216h2.926v-2.744h1.148v2.744h1.26v1.008h-1.26V177h-1.148v-1.876Zm5.105 2.044c-.261 0-.467-.084-.616-.252a.84.84 0 0 1-.224-.574.81.81 0 0 1 .224-.574c.149-.168.355-.252.616-.252.271 0 .476.084.616.252a.81.81 0 0 1 .224.574.84.84 0 0 1-.224.574c-.14.168-.345.252-.616.252Zm6.79-2.044h-4.242v-.938l4.018-6.286h1.33l-4.032 6.216h2.926v-2.744h1.148v2.744h1.26v1.008h-1.26V177h-1.148v-1.876Zm7.554 2.044c-.578 0-1.078-.121-1.498-.364a3.069 3.069 0 0 1-1.022-.994 5.039 5.039 0 0 1-.588-1.498 9.09 9.09 0 0 1-.182-1.862c0-.663.061-1.279.182-1.848a4.843 4.843 0 0 1 .588-1.498 3.028 3.028 0 0 1 1.022-1.008c.42-.243.92-.364 1.498-.364.579 0 1.074.121 1.484.364.42.243.761.579 1.022 1.008.271.42.467.919.588 1.498a8.23 8.23 0 0 1 .196 1.848c0 .663-.065 1.283-.196 1.862a4.555 4.555 0 0 1-.588 1.498c-.261.42-.602.751-1.022.994-.41.243-.905.364-1.484.364Zm0-1.008c.346 0 .649-.084.91-.252.262-.177.476-.425.644-.742.178-.327.308-.719.392-1.176.084-.457.126-.971.126-1.54 0-.569-.042-1.083-.126-1.54-.084-.457-.214-.845-.392-1.162a1.866 1.866 0 0 0-.644-.742 1.582 1.582 0 0 0-.91-.266c-.345 0-.648.089-.91.266-.252.168-.466.415-.644.742a4.366 4.366 0 0 0-.392 1.162 8.566 8.566 0 0 0-.126 1.54c0 .569.042 1.083.126 1.54.094.457.224.849.392 1.176.178.317.392.565.644.742.262.168.565.252.91.252Zm9.574-4.592c-.261 0-.466-.084-.616-.252a.84.84 0 0 1-.224-.574.81.81 0 0 1 .224-.574c.15-.168.355-.252.616-.252.271 0 .476.084.616.252.15.159.224.35.224.574a.836.836 0 0 1-.224.574c-.14.168-.345.252-.616.252Zm0 5.6c-.261 0-.466-.084-.616-.252a.84.84 0 0 1-.224-.574.81.81 0 0 1 .224-.574c.15-.168.355-.252.616-.252.271 0 .476.084.616.252.15.159.224.35.224.574a.836.836 0 0 1-.224.574c-.14.168-.345.252-.616.252Zm3.935 0c-.242 0-.466-.009-.672-.028a13.583 13.583 0 0 1-.476-.028v-1.022c.131.019.294.037.49.056.196.009.336.014.42.014.262 0 .458-.079.588-.238.131-.159.196-.443.196-.854v-5.152h-1.694v-1.008h7.49V177h-1.176v-7.084h-3.43v5.334c0 .224-.032.453-.098.686a1.906 1.906 0 0 1-.308.616c-.14.177-.322.327-.546.448a1.676 1.676 0 0 1-.784.168Zm8.354-1.19h2.268c.383 0 .738-.079 1.064-.238.327-.168.607-.387.84-.658.234-.28.416-.602.546-.966.131-.373.196-.765.196-1.176 0-.401-.065-.784-.196-1.148a2.941 2.941 0 0 0-.546-.966 2.506 2.506 0 0 0-.84-.658 2.29 2.29 0 0 0-1.064-.252h-2.268v-1.008h2.268c.654 0 1.223.131 1.708.392.486.252.887.574 1.204.966.318.392.556.826.714 1.302.159.476.238.933.238 1.372 0 .439-.079.901-.238 1.386a4.269 4.269 0 0 1-.714 1.316 3.894 3.894 0 0 1-1.204.98c-.485.252-1.054.378-1.708.378h-2.268v-1.022Zm11.271 1.19c-.653 0-1.222-.126-1.708-.378a3.83 3.83 0 0 1-1.204-.994 4.419 4.419 0 0 1-.714-1.358 5.263 5.263 0 0 1-.224-1.498c0-.485.075-.975.224-1.47.159-.504.397-.957.714-1.358a3.592 3.592 0 0 1 1.204-.994c.486-.252 1.055-.378 1.708-.378.654 0 1.218.126 1.694.378.486.252.887.583 1.204.994.318.401.551.854.7 1.358.159.495.238.985.238 1.47 0 .495-.079.994-.238 1.498a4.159 4.159 0 0 1-.7 1.358 3.809 3.809 0 0 1-1.204.994c-.476.252-1.04.378-1.694.378Zm0-1.036c.383 0 .733-.079 1.05-.238.327-.159.607-.378.84-.658.234-.289.416-.63.546-1.022.131-.392.196-.817.196-1.274 0-.448-.065-.863-.196-1.246a3.05 3.05 0 0 0-.546-1.008 2.437 2.437 0 0 0-.84-.672 2.207 2.207 0 0 0-1.05-.252c-.382 0-.737.084-1.064.252a2.495 2.495 0 0 0-.826.672c-.233.28-.415.616-.546 1.008-.13.383-.196.798-.196 1.246 0 .457.066.882.196 1.274.131.392.313.733.546 1.022.234.28.509.499.826.658.327.159.682.238 1.064.238Zm5.721-7.224h3.696c.831 0 1.493.233 1.988.7.495.467.742 1.153.742 2.058V177h-1.19v-5.334c0-.56-.135-.989-.406-1.288-.261-.308-.644-.462-1.148-.462h-2.492V177h-1.19v-8.092Z" fill="#666"/><rect x="250.5" y="160" width="93" height="24" rx="8" fill="#F6C243"/><path d="M260.856 171.666c0-.56-.131-.989-.392-1.288-.261-.308-.644-.462-1.148-.462h-3.57v-1.008h3.57c.831 0 1.489.233 1.974.7.495.467.742 1.153.742 2.058V177h-1.176v-5.334Zm-5.11.574h1.19V177h-1.19v-4.76Zm8.627-3.332h3.696c.831 0 1.493.233 1.988.7.495.467.742 1.153.742 2.058V177h-1.19v-5.334c0-.56-.135-.989-.406-1.288-.261-.308-.644-.462-1.148-.462h-2.492V177h-1.19v-8.092Zm8.288 7.084h2.254v-4.634c0-.551-.089-.929-.266-1.134-.178-.205-.514-.308-1.008-.308h-.91v-1.008h.994c.821 0 1.418.187 1.792.56.382.364.574.994.574 1.89V177h-3.43v-1.008Zm10.877-4.326c0-.56-.131-.989-.392-1.288-.262-.308-.644-.462-1.148-.462h-3.57v-1.008h3.57c.83 0 1.488.233 1.974.7.494.467.742 1.153.742 2.058V177h-1.176v-5.334Zm-5.11.574h1.19V177h-1.19v-4.76Zm12.116 3.248c0-.373.065-.7.196-.98a2.78 2.78 0 0 1 .532-.784c.233-.243.504-.467.812-.672.317-.205.658-.415 1.022-.63.289-.177.546-.341.77-.49.224-.159.411-.322.56-.49.149-.168.261-.345.336-.532.075-.187.112-.401.112-.644 0-.495-.159-.868-.476-1.12-.308-.261-.705-.392-1.19-.392s-.905.098-1.26.294a2.702 2.702 0 0 0-.896.756l-.644-.672c.28-.42.649-.756 1.106-1.008.457-.261 1.008-.392 1.652-.392.476 0 .896.065 1.26.196.364.121.667.294.91.518.252.215.439.476.56.784.131.299.196.625.196.98 0 .401-.07.756-.21 1.064-.14.308-.327.588-.56.84a4.482 4.482 0 0 1-.812.686c-.299.196-.616.387-.952.574-.299.168-.565.327-.798.476a3.116 3.116 0 0 0-.588.476 1.96 1.96 0 0 0-.35.56 2.122 2.122 0 0 0-.112.728v.378h4.606V177h-5.782v-1.512Zm11.222 1.68c-.578 0-1.078-.121-1.498-.364a3.069 3.069 0 0 1-1.022-.994 5.039 5.039 0 0 1-.588-1.498 9.09 9.09 0 0 1-.182-1.862c0-.663.061-1.279.182-1.848a4.843 4.843 0 0 1 .588-1.498 3.028 3.028 0 0 1 1.022-1.008c.42-.243.92-.364 1.498-.364.579 0 1.074.121 1.484.364.42.243.761.579 1.022 1.008.271.42.467.919.588 1.498a8.23 8.23 0 0 1 .196 1.848c0 .663-.065 1.283-.196 1.862a4.555 4.555 0 0 1-.588 1.498c-.261.42-.602.751-1.022.994-.41.243-.905.364-1.484.364Zm0-1.008c.346 0 .649-.084.91-.252.262-.177.476-.425.644-.742.178-.327.308-.719.392-1.176.084-.457.126-.971.126-1.54 0-.569-.042-1.083-.126-1.54-.084-.457-.214-.845-.392-1.162a1.866 1.866 0 0 0-.644-.742 1.582 1.582 0 0 0-.91-.266c-.345 0-.648.089-.91.266-.252.168-.466.415-.644.742a4.366 4.366 0 0 0-.392 1.162 8.566 8.566 0 0 0-.126 1.54c0 .569.042 1.083.126 1.54.094.457.224.849.392 1.176.178.317.392.565.644.742.262.168.565.252.91.252Zm13.085-8.26h1.176l-6.16 9.1h-1.176l6.16-9.1Zm-5.614 4.844c-.392 0-.737-.07-1.036-.21a2.041 2.041 0 0 1-.714-.56 2.4 2.4 0 0 1-.42-.798 3.23 3.23 0 0 1-.14-.938c0-.317.047-.625.14-.924.093-.308.233-.579.42-.812.187-.233.425-.42.714-.56.299-.14.644-.21 1.036-.21.401 0 .747.07 1.036.21.289.14.527.327.714.56.187.233.327.504.42.812.093.299.14.607.14.924 0 .317-.047.63-.14.938a2.4 2.4 0 0 1-.42.798c-.187.233-.425.42-.714.56-.289.14-.635.21-1.036.21Zm0-.854c.383 0 .695-.145.938-.434.252-.299.378-.705.378-1.218s-.126-.915-.378-1.204a1.153 1.153 0 0 0-.938-.448c-.383 0-.7.149-.952.448-.243.289-.364.691-.364 1.204s.121.919.364 1.218c.252.289.569.434.952.434Zm6.244 5.278c-.392 0-.737-.07-1.036-.21a2.041 2.041 0 0 1-.714-.56 2.4 2.4 0 0 1-.42-.798 3.23 3.23 0 0 1-.14-.938c0-.317.047-.625.14-.924.093-.308.233-.579.42-.812.187-.233.425-.42.714-.56.299-.14.644-.21 1.036-.21.401 0 .747.07 1.036.21.289.14.527.327.714.56.187.233.327.504.42.812.093.299.14.607.14.924 0 .317-.047.63-.14.938a2.4 2.4 0 0 1-.42.798c-.187.233-.425.42-.714.56-.289.14-.635.21-1.036.21Zm0-.854c.383 0 .695-.145.938-.434.252-.299.378-.705.378-1.218s-.126-.915-.378-1.204a1.153 1.153 0 0 0-.938-.448c-.383 0-.7.149-.952.448-.243.289-.364.691-.364 1.204s.121.919.364 1.218c.252.289.569.434.952.434Z" fill="#242E30"/><g clip-path="url(#rtl-example-amount-breakdown__b)"><path d="M337.371 170.355a2.47 2.47 0 0 1-.472-.586 2.645 2.645 0 0 1-.088-.797 2.47 2.47 0 0 0-.516-1.75 2.468 2.468 0 0 0-1.75-.516 2.638 2.638 0 0 1-.796-.087 2.31 2.31 0 0 1-.578-.473 2.45 2.45 0 0 0-1.671-.927 2.45 2.45 0 0 0-1.654.875c-.165.188-.36.347-.577.472-.26.07-.528.099-.797.088a2.415 2.415 0 0 0-1.75.516 2.468 2.468 0 0 0-.516 1.75c.012.268-.018.537-.087.796a2.435 2.435 0 0 1-.473.586 2.428 2.428 0 0 0-.927 1.698 2.406 2.406 0 0 0 .875 1.645c.186.17.346.368.472.586.07.26.099.528.088.797a2.47 2.47 0 0 0 .516 1.75 2.468 2.468 0 0 0 1.75.516c.268-.012.537.018.796.087.217.125.412.285.578.473a2.452 2.452 0 0 0 1.654.875 2.452 2.452 0 0 0 1.653-.875 2.31 2.31 0 0 1 .578-.473c.259-.069.528-.099.796-.087a2.418 2.418 0 0 0 1.75-.516 2.47 2.47 0 0 0 .516-1.75 2.645 2.645 0 0 1 .088-.797 2.47 2.47 0 0 1 .472-.586 2.405 2.405 0 0 0 .875-1.645 2.414 2.414 0 0 0-.805-1.645Zm-.936 2.38a3.37 3.37 0 0 0-.753 1.015 3.505 3.505 0 0 0-.183 1.269c.026.298-.019.598-.131.875a1.9 1.9 0 0 1-.875.131 3.505 3.505 0 0 0-1.269.184 3.357 3.357 0 0 0-.998.752c-.245.237-.551.534-.735.534-.184 0-.49-.297-.735-.534a3.381 3.381 0 0 0-1.006-.779 3.505 3.505 0 0 0-1.269-.183 1.895 1.895 0 0 1-.875-.131 1.9 1.9 0 0 1-.131-.875 3.509 3.509 0 0 0-.157-1.243 3.377 3.377 0 0 0-.753-.998c-.236-.245-.534-.551-.534-.734 0-.184.298-.491.534-.736a3.38 3.38 0 0 0 .753-1.032c.138-.408.201-.838.183-1.269a1.895 1.895 0 0 1 .131-.875 1.9 1.9 0 0 1 .875-.131c.421.023.842-.031 1.243-.157a3.36 3.36 0 0 0 .997-.753c.245-.236.552-.534.736-.534.183 0 .489.298.734.534.294.314.644.57 1.033.753.408.138.838.201 1.269.183.298-.026.598.019.875.131a1.9 1.9 0 0 1 .131.875c-.023.421.031.842.157 1.243.187.377.442.715.753.997.236.245.534.552.534.736 0 .183-.298.507-.534.752ZM334.23 172a4.81 4.81 0 0 0-2.73 2.73 4.81 4.81 0 0 0-2.73-2.73 4.81 4.81 0 0 0 2.73-2.73 4.81 4.81 0 0 0 2.73 2.73Z" fill="#242E30"/></g><defs><clipPath id="rtl-example-amount-breakdown__b"><path fill="#fff" transform="translate(324.5 165)" d="M0 0h14v14H0z"/></clipPath></defs></svg>