<svg width="49" height="24" viewBox="0 0 49 24" fill="none" xmlns="http://www.w3.org/2000/svg">
<path d="M0 12C0 5.37258 5.37258 0 12 0H37C43.6274 0 49 5.37258 49 12C49 18.6274 43.6274 24 37 24H12C5.37258 24 0 18.6274 0 12Z" fill="#F0ECE6"/>
<path d="M9.288 17V7.9H10.478V15.992H13.992V17H9.288ZM17.1828 17.168C16.7628 17.168 16.3848 17.0793 16.0488 16.902C15.7221 16.7247 15.4655 16.4773 15.2788 16.16C15.0921 15.8427 14.9988 15.4787 14.9988 15.068C14.9988 14.6667 15.0921 14.3213 15.2788 14.032C15.4748 13.7333 15.7595 13.4953 16.1328 13.318C16.5061 13.1407 16.9541 13.038 17.4768 13.01L19.2968 12.898V12.408C19.2968 12.0533 19.2361 11.7687 19.1148 11.554C19.0028 11.33 18.8348 11.1667 18.6108 11.064C18.3961 10.952 18.1301 10.896 17.8128 10.896C17.4115 10.896 17.0661 10.9707 16.7768 11.12C16.4875 11.2693 16.2635 11.4327 16.1048 11.61L15.4328 10.938C15.6755 10.6393 16.0068 10.3967 16.4268 10.21C16.8468 10.014 17.3181 9.916 17.8408 9.916C18.4755 9.916 18.9795 10.0233 19.3528 10.238C19.7261 10.4527 19.9921 10.742 20.1508 11.106C20.3188 11.4607 20.4028 11.8573 20.4028 12.296V17H19.3528V15.824H19.2688C19.0915 16.2347 18.8301 16.5613 18.4848 16.804C18.1395 17.0467 17.7055 17.168 17.1828 17.168ZM17.3508 16.216C17.9295 16.216 18.3961 16.048 18.7508 15.712C19.1148 15.3667 19.2968 14.9093 19.2968 14.34V13.738L17.5328 13.864C17.0755 13.9013 16.7255 14.018 16.4828 14.214C16.2495 14.41 16.1328 14.6853 16.1328 15.04C16.1328 15.3947 16.2448 15.6793 16.4688 15.894C16.7021 16.1087 16.9961 16.216 17.3508 16.216ZM26.2128 17.168C25.6435 17.168 25.1395 17.0233 24.7008 16.734C24.2621 16.4447 23.9635 16.062 23.8048 15.586H23.7208V17H22.6568V6.85H23.7768V11.358H23.8608C24.0381 10.938 24.3321 10.5927 24.7428 10.322C25.1535 10.0513 25.6435 9.916 26.2128 9.916C26.8288 9.916 27.3655 10.07 27.8228 10.378C28.2801 10.686 28.6348 11.1153 28.8868 11.666C29.1481 12.2073 29.2788 12.828 29.2788 13.528C29.2788 14.228 29.1481 14.8533 28.8868 15.404C28.6348 15.9453 28.2801 16.3747 27.8228 16.692C27.3655 17.0093 26.8288 17.168 26.2128 17.168ZM25.9328 16.16C26.3435 16.16 26.7121 16.0667 27.0388 15.88C27.3748 15.684 27.6408 15.39 27.8368 14.998C28.0328 14.606 28.1308 14.1207 28.1308 13.542C28.1308 12.954 28.0328 12.4687 27.8368 12.086C27.6408 11.694 27.3748 11.4047 27.0388 11.218C26.7121 11.022 26.3435 10.924 25.9328 10.924C25.5408 10.924 25.1815 11.022 24.8548 11.218C24.5281 11.4047 24.2668 11.694 24.0708 12.086C23.8748 12.4687 23.7768 12.954 23.7768 13.542C23.7768 14.1207 23.8748 14.606 24.0708 14.998C24.2668 15.39 24.5281 15.684 24.8548 15.88C25.1815 16.0667 25.5408 16.16 25.9328 16.16ZM33.7807 17.168C33.118 17.168 32.5393 17.0233 32.0447 16.734C31.5593 16.4447 31.1813 16.0293 30.9107 15.488C30.64 14.9373 30.5047 14.2887 30.5047 13.542C30.5047 12.954 30.5793 12.436 30.7287 11.988C30.8873 11.5307 31.1067 11.1527 31.3867 10.854C31.676 10.546 32.012 10.3127 32.3947 10.154C32.7867 9.99533 33.216 9.916 33.6827 9.916C34.1493 9.916 34.574 9.99067 34.9567 10.14C35.3487 10.2893 35.6847 10.5133 35.9647 10.812C36.254 11.1013 36.478 11.47 36.6367 11.918C36.7953 12.3567 36.8747 12.87 36.8747 13.458C36.8747 13.5327 36.87 13.6073 36.8607 13.682C36.8607 13.7567 36.856 13.8173 36.8467 13.864H31.6247C31.634 14.2933 31.7367 14.6853 31.9327 15.04C32.1287 15.3947 32.39 15.6793 32.7167 15.894C33.0527 16.0993 33.426 16.202 33.8367 16.202C34.3313 16.202 34.742 16.104 35.0687 15.908C35.3953 15.712 35.666 15.474 35.8807 15.194L36.5527 15.88C36.2633 16.272 35.8947 16.5847 35.4467 16.818C34.9987 17.0513 34.4433 17.168 33.7807 17.168ZM33.6827 10.84C33.244 10.84 32.8753 10.9427 32.5767 11.148C32.278 11.3533 32.0493 11.6147 31.8907 11.932C31.7413 12.2493 31.662 12.5807 31.6527 12.926H35.6987C35.6893 12.5807 35.6053 12.2493 35.4467 11.932C35.2973 11.6147 35.0733 11.3533 34.7747 11.148C34.4853 10.9427 34.1213 10.84 33.6827 10.84ZM38.6802 17V6.85H39.8002V17H38.6802Z" fill="black" fill-opacity="0.76"/>
</svg>
