<svg width="286" height="24" fill="none" xmlns="http://www.w3.org/2000/svg"><rect width="74" height="24" rx="8" fill="#262626"/><g clip-path="url(#variation-strong__a)"><path fill-rule="evenodd" clip-rule="evenodd" d="M4.083 4h15.834l.083.083v15.834l-.083.083H4.083L4 19.917V4.083L4.083 4Zm15.75 15.834V4.166H4.166v15.668h15.669ZM7.27 5h9.463A2.268 2.268 0 0 1 19 7.269v9.463A2.268 2.268 0 0 1 16.732 19H7.269A2.268 2.268 0 0 1 5 16.732V7.269A2.269 2.269 0 0 1 7.269 5Z" fill="#fff"/></g><path d="M25.288 7.9h1.33l4.354 7.434h.084V7.9h1.078V17h-1.33L26.45 9.552h-.084V17h-1.078V7.9Zm12.024 9.268c-.495 0-.947-.084-1.358-.252a2.985 2.985 0 0 1-1.036-.714c-.28-.317-.5-.7-.658-1.148a4.768 4.768 0 0 1-.224-1.512c0-.588.08-1.106.238-1.554.159-.457.378-.835.658-1.134.28-.308.611-.541.994-.7a3.402 3.402 0 0 1 1.288-.238c.467 0 .896.075 1.288.224.392.15.728.373 1.008.672.28.29.5.658.658 1.106.159.439.238.952.238 1.54 0 .075-.005.15-.014.224a.954.954 0 0 1-.014.182h-5.222c0 .327.056.635.168.924.121.28.28.527.476.742.205.205.439.369.7.49.27.121.56.182.868.182.504 0 .915-.098 1.232-.294.327-.196.597-.434.812-.714l.672.686a3.31 3.31 0 0 1-1.12.938c-.439.233-.99.35-1.652.35Zm-.098-6.328c-.327 0-.616.06-.868.182-.252.121-.462.28-.63.476-.168.196-.299.42-.392.672a2.7 2.7 0 0 0-.14.756h4.046a2.423 2.423 0 0 0-.154-.756 1.905 1.905 0 0 0-1.008-1.148 1.888 1.888 0 0 0-.854-.182Zm7.378 6.328c-.383 0-.728-.051-1.036-.154a2.093 2.093 0 0 1-.798-.476 2.207 2.207 0 0 1-.505-.826c-.12-.336-.181-.737-.181-1.204v-4.424h1.12v4.214c0 .71.135 1.213.405 1.512.28.29.686.434 1.218.434.505 0 .901-.182 1.19-.546.3-.364.448-.896.448-1.596v-4.018h1.12V17H46.51v-1.092h-.084a2.508 2.508 0 0 1-.7.91c-.29.233-.668.35-1.134.35Zm7.486 0c-.626 0-1.083-.187-1.372-.56-.29-.373-.434-.887-.434-1.54v-4.074H49.04v-.91h1.232V8.208h1.106v1.876h2.002v.91h-2.002v3.976c0 .448.084.76.252.938a.91.91 0 0 0 .672.266c.186 0 .354-.033.504-.098.15-.075.29-.173.42-.294l.504.784c-.43.401-.98.602-1.652.602Zm3.176-7.084h1.065v1.12h.084c.149-.364.364-.667.644-.91.28-.252.63-.378 1.05-.378.354 0 .667.07.938.21l-.378 1.008a1.138 1.138 0 0 0-.392-.126 1.933 1.933 0 0 0-.407-.042c-.457 0-.82.187-1.091.56-.262.364-.393.83-.393 1.4V17h-1.12v-6.916Zm6.612 7.084c-.317 0-.61-.051-.882-.154a2.047 2.047 0 0 1-1.148-1.092 2.315 2.315 0 0 1-.154-.854c0-.597.215-1.078.644-1.442.43-.364 1.041-.57 1.834-.616l1.82-.112v-.49c0-.532-.13-.915-.392-1.148-.252-.243-.616-.364-1.092-.364-.4 0-.746.075-1.036.224a2.32 2.32 0 0 0-.672.49l-.672-.672c.243-.299.57-.541.98-.728.42-.196.896-.294 1.428-.294.476 0 .878.065 1.204.196.327.121.588.29.784.504.206.215.35.467.434.756.094.29.14.597.14.924V17h-1.05v-1.176h-.084a2.39 2.39 0 0 1-.784.994c-.336.233-.77.35-1.302.35Zm.168-.952c.58 0 1.046-.168 1.4-.504.364-.345.546-.803.546-1.372v-.602l-1.764.126c-.933.075-1.4.467-1.4 1.176 0 .355.112.64.336.854.234.215.528.322.882.322ZM67.34 6.85h1.12V17h-1.12V6.85Z" fill="#fff"/><rect x="82" width="69" height="24" rx="8" fill="#F6C243"/><g clip-path="url(#variation-strong__b)"><path fill-rule="evenodd" clip-rule="evenodd" d="M86.083 4h15.834l.083.083v15.834l-.083.083H86.083L86 19.917V4.083L86.083 4Zm15.751 15.834V4.166H86.165v15.668h15.669ZM89.268 5h9.463A2.268 2.268 0 0 1 101 7.269v9.463A2.268 2.268 0 0 1 98.731 19H89.27A2.269 2.269 0 0 1 87 16.732V7.269A2.269 2.269 0 0 1 89.269 5Z" fill="#242E30"/></g><path d="M109.374 13.584 106.336 7.9h1.386l2.24 4.536h.084l2.24-4.536h1.316l-3.038 5.684V17h-1.19v-3.416Zm7.764 3.584c-.495 0-.947-.084-1.358-.252a2.984 2.984 0 0 1-1.036-.714 3.46 3.46 0 0 1-.658-1.148 4.776 4.776 0 0 1-.224-1.512c0-.588.079-1.106.238-1.554.159-.457.378-.835.658-1.134a2.75 2.75 0 0 1 .994-.7 3.4 3.4 0 0 1 1.288-.238c.467 0 .896.075 1.288.224.392.15.728.373 1.008.672.28.29.499.658.658 1.106.159.439.238.952.238 1.54 0 .075-.005.15-.014.224a.988.988 0 0 1-.014.182h-5.222c0 .327.056.635.168.924.121.28.28.527.476.742.205.205.439.369.7.49a2.1 2.1 0 0 0 .868.182c.504 0 .915-.098 1.232-.294.327-.196.597-.434.812-.714l.672.686a3.314 3.314 0 0 1-1.12.938c-.439.233-.989.35-1.652.35Zm-.098-6.328c-.327 0-.616.06-.868.182-.252.121-.462.28-.63.476-.168.196-.299.42-.392.672a2.685 2.685 0 0 0-.14.756h4.046a2.425 2.425 0 0 0-.154-.756 1.905 1.905 0 0 0-1.008-1.148 1.888 1.888 0 0 0-.854-.182Zm4.998-3.99h1.12V17h-1.12V6.85Zm3.5 0h1.12V17h-1.12V6.85Zm6.23 10.318c-.551 0-1.036-.093-1.456-.28a3.104 3.104 0 0 1-1.036-.784 3.39 3.39 0 0 1-.616-1.148 4.92 4.92 0 0 1-.196-1.414c0-.504.065-.975.196-1.414a3.39 3.39 0 0 1 .616-1.148 2.95 2.95 0 0 1 1.036-.77c.42-.196.905-.294 1.456-.294.55 0 1.026.098 1.428.294.41.187.751.443 1.022.77.27.327.471.71.602 1.148.14.439.21.91.21 1.414 0 .504-.07.975-.21 1.414a3.23 3.23 0 0 1-.602 1.148 2.971 2.971 0 0 1-1.022.784c-.402.187-.878.28-1.428.28Zm-2.156-3.626c0 .401.042.77.126 1.106.093.327.228.611.406.854.177.233.401.415.672.546.27.13.588.196.952.196.354 0 .662-.065.924-.196.27-.13.49-.313.658-.546.177-.243.308-.527.392-.854.093-.336.14-.705.14-1.106 0-.401-.047-.765-.14-1.092a2.33 2.33 0 0 0-.392-.854 1.672 1.672 0 0 0-.658-.56 2.047 2.047 0 0 0-.924-.196 2.16 2.16 0 0 0-.952.196c-.271.13-.495.317-.672.56a2.484 2.484 0 0 0-.406.854c-.084.327-.126.69-.126 1.092Zm6.27-3.458h1.204l1.75 5.754h.084l1.624-5.754h1.33l1.624 5.754h.084l1.75-5.754h1.12L144.1 17h-1.26l-1.624-5.726h-.084L139.522 17h-1.288l-2.352-6.916Z" fill="#242E30"/><rect x="159" width="66" height="24" rx="8" fill="#017A39"/><g clip-path="url(#variation-strong__c)"><path fill-rule="evenodd" clip-rule="evenodd" d="M163.083 4h15.834l.083.083v15.834l-.083.083h-15.834l-.083-.083V4.083l.083-.083Zm15.751 15.834V4.166h-15.669v15.668h15.669ZM166.269 5h9.462A2.269 2.269 0 0 1 178 7.269v9.463A2.269 2.269 0 0 1 175.731 19h-9.462A2.269 2.269 0 0 1 164 16.732V7.269A2.269 2.269 0 0 1 166.269 5Z" fill="#fff"/></g><path d="M187.998 17.168c-.7 0-1.316-.126-1.848-.378a3.958 3.958 0 0 1-1.344-1.022 4.718 4.718 0 0 1-.812-1.512 6.236 6.236 0 0 1-.266-1.834c0-.644.089-1.246.266-1.806.177-.57.439-1.069.784-1.498.355-.43.798-.765 1.33-1.008.532-.252 1.148-.378 1.848-.378.7 0 1.321.126 1.862.378a3.915 3.915 0 0 1 1.358.994l-.784.728c-.271-.327-.635-.583-1.092-.77a3.39 3.39 0 0 0-1.372-.294 2.747 2.747 0 0 0-2.184 1.036c-.252.317-.448.7-.588 1.148-.14.448-.21.938-.21 1.47 0 .513.07.999.21 1.456.149.448.355.84.616 1.176.261.336.574.602.938.798.373.187.789.28 1.246.28.56 0 1.059-.07 1.498-.21.439-.15.798-.364 1.078-.644v-2.086h-2.548v-1.008h3.696v3.528a3.006 3.006 0 0 1-.644.574 4.789 4.789 0 0 1-.868.462c-.317.13-.663.233-1.036.308a5.628 5.628 0 0 1-1.134.112Zm5.831-7.084h1.064v1.12h.084c.149-.364.364-.667.644-.91.28-.252.63-.378 1.05-.378.354 0 .667.07.938.21l-.378 1.008a1.142 1.142 0 0 0-.392-.126 1.935 1.935 0 0 0-.406-.042 1.28 1.28 0 0 0-1.092.56c-.262.364-.392.83-.392 1.4V17h-1.12v-6.916Zm7.583 7.084a3.55 3.55 0 0 1-1.358-.252 2.975 2.975 0 0 1-1.036-.714c-.28-.317-.5-.7-.658-1.148a4.748 4.748 0 0 1-.224-1.512c0-.588.079-1.106.238-1.554a3.13 3.13 0 0 1 .658-1.134 2.75 2.75 0 0 1 .994-.7 3.4 3.4 0 0 1 1.288-.238 3.6 3.6 0 0 1 1.288.224c.392.15.728.373 1.008.672.28.29.499.658.658 1.106.158.439.238.952.238 1.54 0 .075-.005.15-.014.224a.988.988 0 0 1-.014.182h-5.222c0 .327.056.635.168.924.121.28.28.527.476.742.205.205.438.369.7.49.27.121.56.182.868.182.504 0 .914-.098 1.232-.294.326-.196.597-.434.812-.714l.672.686a3.314 3.314 0 0 1-1.12.938c-.439.233-.99.35-1.652.35Zm-.098-6.328c-.327 0-.616.06-.868.182-.252.121-.462.28-.63.476-.168.196-.299.42-.392.672a2.685 2.685 0 0 0-.14.756h4.046a2.454 2.454 0 0 0-.154-.756 1.905 1.905 0 0 0-1.008-1.148 1.89 1.89 0 0 0-.854-.182Zm7.699 6.328c-.495 0-.947-.084-1.358-.252a2.984 2.984 0 0 1-1.036-.714 3.46 3.46 0 0 1-.658-1.148 4.776 4.776 0 0 1-.224-1.512c0-.588.079-1.106.238-1.554.159-.457.378-.835.658-1.134a2.75 2.75 0 0 1 .994-.7 3.4 3.4 0 0 1 1.288-.238c.467 0 .896.075 1.288.224.392.15.728.373 1.008.672.28.29.499.658.658 1.106.159.439.238.952.238 1.54 0 .075-.005.15-.014.224a.988.988 0 0 1-.014.182h-5.222c0 .327.056.635.168.924.121.28.28.527.476.742.205.205.439.369.7.49a2.1 2.1 0 0 0 .868.182c.504 0 .915-.098 1.232-.294.327-.196.597-.434.812-.714l.672.686a3.314 3.314 0 0 1-1.12.938c-.439.233-.989.35-1.652.35Zm-.098-6.328c-.327 0-.616.06-.868.182-.252.121-.462.28-.63.476-.168.196-.299.42-.392.672a2.685 2.685 0 0 0-.14.756h4.046a2.425 2.425 0 0 0-.154-.756 1.905 1.905 0 0 0-1.008-1.148 1.888 1.888 0 0 0-.854-.182Zm4.998-.756h1.064v1.092h.084c.168-.364.406-.663.714-.896.308-.243.7-.364 1.176-.364.793 0 1.418.21 1.876.63.466.42.7 1.097.7 2.03V17h-1.12v-4.214c0-.71-.145-1.209-.434-1.498-.28-.299-.696-.448-1.246-.448-.532 0-.948.182-1.246.546-.299.364-.448.896-.448 1.596V17h-1.12v-6.916Z" fill="#fff"/><rect x="233" width="53" height="24" rx="8" fill="#D50525"/><g clip-path="url(#variation-strong__d)"><path fill-rule="evenodd" clip-rule="evenodd" d="M237.083 4h15.834l.083.083v15.834l-.083.083h-15.834l-.083-.083V4.083l.083-.083Zm15.751 15.834V4.166h-15.669v15.668h15.669ZM240.269 5h9.462A2.269 2.269 0 0 1 252 7.269v9.463A2.269 2.269 0 0 1 249.731 19h-9.462A2.269 2.269 0 0 1 238 16.732V7.269A2.269 2.269 0 0 1 240.269 5Z" fill="#fff"/></g><path d="M258.288 7.9h3.066c.429 0 .817.065 1.162.196.355.121.658.303.91.546.252.233.443.523.574.868a3 3 0 0 1 .21 1.162c0 .653-.177 1.2-.532 1.638-.355.43-.821.728-1.4.896l-.014.056L264.546 17h-1.4l-2.086-3.528h-1.582V17h-1.19V7.9Zm2.884 4.578c.569 0 1.013-.159 1.33-.476.327-.327.49-.77.49-1.33s-.154-.994-.462-1.302c-.308-.317-.742-.476-1.302-.476h-1.75v3.584h1.694Zm7.745 4.69c-.494 0-.947-.084-1.358-.252a2.993 2.993 0 0 1-1.036-.714 3.46 3.46 0 0 1-.658-1.148 4.776 4.776 0 0 1-.224-1.512c0-.588.08-1.106.238-1.554.159-.457.378-.835.658-1.134.28-.308.612-.541.994-.7a3.404 3.404 0 0 1 1.288-.238c.467 0 .896.075 1.288.224.392.15.728.373 1.008.672.28.29.5.658.658 1.106.159.439.238.952.238 1.54 0 .075-.004.15-.014.224a.907.907 0 0 1-.014.182h-5.222c0 .327.056.635.168.924.122.28.28.527.476.742.206.205.439.369.7.49a2.1 2.1 0 0 0 .868.182c.504 0 .915-.098 1.232-.294.327-.196.598-.434.812-.714l.672.686a3.304 3.304 0 0 1-1.12.938c-.438.233-.989.35-1.652.35Zm-.098-6.328c-.326 0-.616.06-.868.182-.252.121-.462.28-.63.476-.168.196-.298.42-.392.672-.084.252-.13.504-.14.756h4.046a2.397 2.397 0 0 0-.154-.756 1.905 1.905 0 0 0-1.008-1.148 1.885 1.885 0 0 0-.854-.182Zm7.49 6.328c-.467 0-.887-.089-1.26-.266a3.058 3.058 0 0 1-.966-.756 3.557 3.557 0 0 1-.63-1.162 4.858 4.858 0 0 1-.21-1.456c0-.523.07-1.003.21-1.442a3.4 3.4 0 0 1 .63-1.148c.271-.327.593-.579.966-.756a2.899 2.899 0 0 1 1.26-.266c.569 0 1.059.135 1.47.406.411.27.705.616.882 1.036h.084V6.85h1.12V17h-1.064v-1.414h-.084a2.153 2.153 0 0 1-.364.658 2.29 2.29 0 0 1-.546.49c-.205.14-.439.247-.7.322a2.794 2.794 0 0 1-.798.112Zm.28-1.008c.299 0 .579-.051.84-.154.261-.112.49-.275.686-.49.196-.224.35-.5.462-.826.112-.327.168-.71.168-1.148 0-.439-.056-.821-.168-1.148a2.285 2.285 0 0 0-.462-.812 1.76 1.76 0 0 0-.686-.49 2.107 2.107 0 0 0-.84-.168c-.308 0-.597.056-.868.168a1.875 1.875 0 0 0-.7.49c-.196.215-.35.485-.462.812-.112.327-.168.71-.168 1.148 0 .439.056.821.168 1.148.112.327.266.602.462.826.205.215.439.378.7.49.271.103.56.154.868.154Z" fill="#fff"/><defs><clipPath id="variation-strong__a"><path fill="#fff" transform="translate(4 4)" d="M0 0h16v16H0z"/></clipPath><clipPath id="variation-strong__b"><path fill="#fff" transform="translate(86 4)" d="M0 0h16v16H0z"/></clipPath><clipPath id="variation-strong__c"><path fill="#fff" transform="translate(163 4)" d="M0 0h16v16H0z"/></clipPath><clipPath id="variation-strong__d"><path fill="#fff" transform="translate(237 4)" d="M0 0h16v16H0z"/></clipPath></defs></svg>