<svg width="50" height="24" fill="none" xmlns="http://www.w3.org/2000/svg"><path d="M.5 8a8 8 0 0 1 8-8h33a8 8 0 0 1 8 8v8a8 8 0 0 1-8 8h-33a8 8 0 0 1-8-8V8Z" fill="#FFEAD4"/><path d="M9.788 7.9h1.19v8.092h3.514V17H9.788V7.9Zm7.895 9.268c-.317 0-.611-.051-.882-.154a2.047 2.047 0 0 1-1.148-1.092 2.315 2.315 0 0 1-.154-.854c0-.597.214-1.078.644-1.442.43-.364 1.04-.57 1.834-.616l1.82-.112v-.49c0-.532-.13-.915-.392-1.148-.252-.243-.616-.364-1.092-.364-.401 0-.747.075-1.036.224a2.32 2.32 0 0 0-.672.49l-.672-.672c.242-.299.57-.541.98-.728.42-.196.896-.294 1.428-.294.476 0 .877.065 1.204.196.326.121.588.29.784.504.205.215.35.467.434.756.093.29.14.597.14.924V17h-1.05v-1.176h-.084c-.187.42-.448.751-.784.994-.336.233-.77.35-1.302.35Zm.168-.952c.579 0 1.045-.168 1.4-.504.364-.345.546-.803.546-1.372v-.602l-1.764.126c-.934.075-1.4.467-1.4 1.176 0 .355.112.64.336.854.233.215.527.322.882.322Zm8.862.952c-.28 0-.55-.037-.812-.112a2.656 2.656 0 0 1-.7-.322 2.736 2.736 0 0 1-.546-.49 2.341 2.341 0 0 1-.35-.658h-.084V17h-1.064V6.85h1.12v4.508h.084c.177-.42.471-.765.882-1.036.41-.27.9-.406 1.47-.406.457 0 .872.089 1.246.266.383.177.71.43.98.756.27.317.476.7.616 1.148.15.439.224.92.224 1.442 0 .523-.075 1.008-.224 1.456-.14.448-.346.835-.616 1.162-.27.317-.598.57-.98.756a2.868 2.868 0 0 1-1.246.266Zm-.28-1.008c.308 0 .593-.051.854-.154a1.94 1.94 0 0 0 .7-.49c.205-.224.364-.5.476-.826.112-.327.168-.71.168-1.148 0-.439-.056-.821-.168-1.148a2.176 2.176 0 0 0-.476-.812 1.738 1.738 0 0 0-.7-.49 2.145 2.145 0 0 0-.854-.168 2.11 2.11 0 0 0-.84.168c-.262.103-.49.266-.686.49-.196.215-.35.485-.462.812-.112.327-.168.71-.168 1.148 0 .439.056.821.168 1.148.112.327.266.602.462.826.196.215.424.378.686.49.261.103.541.154.84.154Zm7.848 1.008a3.55 3.55 0 0 1-1.358-.252 2.983 2.983 0 0 1-1.036-.714c-.28-.317-.5-.7-.658-1.148a4.765 4.765 0 0 1-.224-1.512c0-.588.079-1.106.238-1.554a3.13 3.13 0 0 1 .658-1.134c.28-.308.611-.541.994-.7a3.401 3.401 0 0 1 1.288-.238 3.6 3.6 0 0 1 1.288.224c.392.15.728.373 1.008.672.28.29.499.658.658 1.106.158.439.238.952.238 1.54 0 .075-.005.15-.014.224a.963.963 0 0 1-.014.182h-5.222c0 .327.056.635.168.924.121.28.28.527.476.742.205.205.438.369.7.49.27.121.56.182.868.182.504 0 .914-.098 1.232-.294a2.87 2.87 0 0 0 .812-.714l.672.686a3.311 3.311 0 0 1-1.12.938c-.439.233-.99.35-1.652.35Zm-.098-6.328c-.327 0-.616.06-.868.182-.252.121-.462.28-.63.476-.168.196-.299.42-.392.672a2.685 2.685 0 0 0-.14.756h4.046a2.428 2.428 0 0 0-.154-.756 1.905 1.905 0 0 0-1.008-1.148 1.888 1.888 0 0 0-.854-.182Zm4.997-3.99h1.12V17h-1.12V6.85Z" fill="#242E30"/></svg>