<svg width="1034" height="402" viewBox="0 0 1034 402" fill="none" xmlns="http://www.w3.org/2000/svg">
<rect x="0.5" y="0.5" width="1033" height="401" rx="16.5" fill="#F2A6B0" stroke="#DBD9D7"/>
<mask id="mask0_740_146612" style="mask-type:alpha" maskUnits="userSpaceOnUse" x="1" y="1" width="1032" height="400">
<rect x="1" y="1" width="1032" height="400" rx="16" fill="#00DCFF"/>
</mask>
<g mask="url(#mask0_740_146612)">
<g filter="url(#filter0_f_740_146612)">
<path d="M-5 11C-5 2.16345 2.16344 -5 11 -5H712V281C712 294.255 701.255 305 688 305H-5V11Z" fill="#AD5762"/>
</g>
<path d="M6 -7H708V281C708 292.046 699.046 301 688 301H-6V4.99999C-6 -1.62742 -0.627419 -7 6 -7Z" fill="white" stroke="#E18C97" stroke-width="8"/>
<path d="M75.636 136.932H79.836V127.26L76.212 128.724L75.18 126.468L80.748 123.9H83.028V136.932H86.772V139.5H75.636V136.932Z" fill="#242E30"/>
<path d="M119.616 141.288C118.368 141.288 117.272 141.072 116.328 140.64C115.384 140.192 114.592 139.6 113.952 138.864C113.328 138.112 112.848 137.248 112.512 136.272C112.192 135.28 112.032 134.24 112.032 133.152C112.032 132.064 112.192 131.032 112.512 130.056C112.832 129.08 113.304 128.232 113.928 127.512C114.568 126.776 115.352 126.192 116.28 125.76C117.208 125.328 118.28 125.112 119.496 125.112C120.696 125.112 121.752 125.328 122.664 125.76C123.592 126.176 124.384 126.736 125.04 127.44L122.976 129.36C122.56 128.88 122.048 128.512 121.44 128.256C120.832 127.984 120.192 127.848 119.52 127.848C118.912 127.848 118.344 127.976 117.816 128.232C117.304 128.472 116.864 128.824 116.496 129.288C116.128 129.752 115.84 130.312 115.632 130.968C115.424 131.624 115.32 132.36 115.32 133.176C115.32 133.976 115.432 134.704 115.656 135.36C115.88 136.016 116.184 136.584 116.568 137.064C116.952 137.528 117.408 137.896 117.936 138.168C118.464 138.424 119.032 138.552 119.64 138.552C120.312 138.552 120.952 138.424 121.56 138.168C122.184 137.896 122.704 137.512 123.12 137.016L125.16 138.936C124.52 139.656 123.728 140.232 122.784 140.664C121.856 141.08 120.8 141.288 119.616 141.288ZM132.205 141.288C131.213 141.288 130.341 141.128 129.589 140.808C128.853 140.472 128.229 140.024 127.717 139.464C127.221 138.904 126.845 138.248 126.589 137.496C126.349 136.728 126.229 135.92 126.229 135.072C126.229 134.224 126.349 133.424 126.589 132.672C126.845 131.92 127.221 131.264 127.717 130.704C128.229 130.128 128.853 129.68 129.589 129.36C130.341 129.024 131.213 128.856 132.205 128.856C133.197 128.856 134.061 129.024 134.797 129.36C135.549 129.68 136.165 130.128 136.645 130.704C137.141 131.264 137.509 131.92 137.749 132.672C138.005 133.424 138.133 134.224 138.133 135.072C138.133 135.92 138.005 136.728 137.749 137.496C137.509 138.248 137.141 138.904 136.645 139.464C136.165 140.024 135.549 140.472 134.797 140.808C134.061 141.128 133.197 141.288 132.205 141.288ZM129.325 135.072C129.325 136.24 129.573 137.16 130.069 137.832C130.581 138.504 131.293 138.84 132.205 138.84C133.101 138.84 133.797 138.504 134.293 137.832C134.805 137.16 135.061 136.24 135.061 135.072C135.061 133.904 134.805 132.984 134.293 132.312C133.797 131.64 133.101 131.304 132.205 131.304C131.293 131.304 130.581 131.64 130.069 132.312C129.573 132.984 129.325 133.904 129.325 135.072ZM145.467 141.288C144.459 141.288 143.587 141.12 142.851 140.784C142.131 140.432 141.539 139.968 141.075 139.392C140.611 138.816 140.267 138.16 140.043 137.424C139.819 136.672 139.707 135.888 139.707 135.072C139.707 134.256 139.811 133.48 140.019 132.744C140.243 131.992 140.579 131.328 141.027 130.752C141.491 130.176 142.083 129.72 142.803 129.384C143.523 129.032 144.379 128.856 145.371 128.856C146.363 128.856 147.203 129.032 147.891 129.384C148.595 129.736 149.171 130.184 149.619 130.728L147.603 132.552C147.331 132.216 147.027 131.96 146.691 131.784C146.355 131.592 145.931 131.496 145.419 131.496C144.587 131.496 143.939 131.816 143.475 132.456C143.011 133.08 142.779 133.952 142.779 135.072C142.779 136.192 143.019 137.072 143.499 137.712C143.979 138.336 144.635 138.648 145.467 138.648C145.963 138.648 146.395 138.552 146.763 138.36C147.131 138.168 147.451 137.896 147.723 137.544L149.715 139.392C149.267 139.936 148.683 140.392 147.963 140.76C147.259 141.112 146.427 141.288 145.467 141.288ZM154.747 141.288C154.219 141.288 153.715 141.2 153.235 141.024C152.771 140.864 152.363 140.632 152.011 140.328C151.659 140.008 151.379 139.624 151.171 139.176C150.979 138.728 150.883 138.224 150.883 137.664C150.883 136.608 151.259 135.768 152.011 135.144C152.763 134.52 153.907 134.168 155.443 134.088L158.227 133.92V133.44C158.227 132.672 157.995 132.144 157.531 131.856C157.067 131.568 156.491 131.424 155.803 131.424C155.259 131.424 154.747 131.528 154.267 131.736C153.787 131.928 153.427 132.168 153.187 132.456L151.483 130.728C151.899 130.184 152.499 129.736 153.283 129.384C154.083 129.032 155.059 128.856 156.211 128.856C157.907 128.856 159.171 129.248 160.003 130.032C160.835 130.816 161.251 131.88 161.251 133.224V141H158.395V139.104H158.251C157.947 139.776 157.507 140.312 156.931 140.712C156.355 141.096 155.627 141.288 154.747 141.288ZM155.635 139.104C156.403 139.104 157.027 138.888 157.507 138.456C157.987 138.008 158.227 137.384 158.227 136.584V135.792L155.803 135.984C154.555 136.064 153.931 136.592 153.931 137.568C153.931 138.064 154.091 138.448 154.411 138.72C154.731 138.976 155.139 139.104 155.635 139.104ZM177.014 141.288C175.766 141.288 174.67 141.072 173.726 140.64C172.782 140.192 171.99 139.6 171.35 138.864C170.726 138.112 170.246 137.248 169.91 136.272C169.59 135.28 169.43 134.24 169.43 133.152C169.43 132.064 169.59 131.032 169.91 130.056C170.23 129.08 170.702 128.232 171.326 127.512C171.966 126.776 172.75 126.192 173.678 125.76C174.606 125.328 175.678 125.112 176.894 125.112C178.094 125.112 179.15 125.328 180.062 125.76C180.99 126.176 181.782 126.736 182.438 127.44L180.374 129.36C179.958 128.88 179.446 128.512 178.838 128.256C178.23 127.984 177.59 127.848 176.918 127.848C176.31 127.848 175.742 127.976 175.214 128.232C174.702 128.472 174.262 128.824 173.894 129.288C173.526 129.752 173.238 130.312 173.03 130.968C172.822 131.624 172.718 132.36 172.718 133.176C172.718 133.976 172.83 134.704 173.054 135.36C173.278 136.016 173.582 136.584 173.966 137.064C174.35 137.528 174.806 137.896 175.334 138.168C175.862 138.424 176.43 138.552 177.038 138.552C177.71 138.552 178.35 138.424 178.958 138.168C179.582 137.896 180.102 137.512 180.518 137.016L182.558 138.936C181.918 139.656 181.126 140.232 180.182 140.664C179.254 141.08 178.198 141.288 177.014 141.288ZM189.603 141.288C188.611 141.288 187.739 141.128 186.987 140.808C186.251 140.472 185.627 140.024 185.115 139.464C184.619 138.904 184.243 138.248 183.987 137.496C183.747 136.728 183.627 135.92 183.627 135.072C183.627 134.224 183.747 133.424 183.987 132.672C184.243 131.92 184.619 131.264 185.115 130.704C185.627 130.128 186.251 129.68 186.987 129.36C187.739 129.024 188.611 128.856 189.603 128.856C190.595 128.856 191.459 129.024 192.195 129.36C192.947 129.68 193.563 130.128 194.043 130.704C194.539 131.264 194.907 131.92 195.147 132.672C195.403 133.424 195.531 134.224 195.531 135.072C195.531 135.92 195.403 136.728 195.147 137.496C194.907 138.248 194.539 138.904 194.043 139.464C193.563 140.024 192.947 140.472 192.195 140.808C191.459 141.128 190.595 141.288 189.603 141.288ZM186.723 135.072C186.723 136.24 186.971 137.16 187.467 137.832C187.979 138.504 188.691 138.84 189.603 138.84C190.499 138.84 191.195 138.504 191.691 137.832C192.203 137.16 192.459 136.24 192.459 135.072C192.459 133.904 192.203 132.984 191.691 132.312C191.195 131.64 190.499 131.304 189.603 131.304C188.691 131.304 187.979 131.64 187.467 132.312C186.971 132.984 186.723 133.904 186.723 135.072ZM197.873 123.6H200.897V141H197.873V123.6ZM207.036 141.288C206.508 141.288 206.004 141.2 205.524 141.024C205.06 140.864 204.652 140.632 204.3 140.328C203.948 140.008 203.668 139.624 203.46 139.176C203.268 138.728 203.172 138.224 203.172 137.664C203.172 136.608 203.548 135.768 204.3 135.144C205.052 134.52 206.196 134.168 207.732 134.088L210.516 133.92V133.44C210.516 132.672 210.284 132.144 209.82 131.856C209.356 131.568 208.78 131.424 208.092 131.424C207.548 131.424 207.036 131.528 206.556 131.736C206.076 131.928 205.716 132.168 205.476 132.456L203.772 130.728C204.188 130.184 204.788 129.736 205.572 129.384C206.372 129.032 207.348 128.856 208.5 128.856C210.196 128.856 211.46 129.248 212.292 130.032C213.124 130.816 213.54 131.88 213.54 133.224V141H210.684V139.104H210.54C210.236 139.776 209.796 140.312 209.22 140.712C208.644 141.096 207.916 141.288 207.036 141.288ZM207.924 139.104C208.692 139.104 209.316 138.888 209.796 138.456C210.276 138.008 210.516 137.384 210.516 136.584V135.792L208.092 135.984C206.844 136.064 206.22 136.592 206.22 137.568C206.22 138.064 206.38 138.448 206.7 138.72C207.02 138.976 207.428 139.104 207.924 139.104ZM222.44 125.4H225.656V138.384H231.872V141H222.44V125.4ZM237.49 125.856C237.49 126.304 237.33 126.704 237.01 127.056C236.706 127.408 236.274 127.584 235.714 127.584C235.138 127.584 234.698 127.408 234.394 127.056C234.09 126.704 233.938 126.304 233.938 125.856C233.938 125.392 234.09 124.992 234.394 124.656C234.698 124.304 235.138 124.128 235.714 124.128C236.274 124.128 236.706 124.304 237.01 124.656C237.33 124.992 237.49 125.392 237.49 125.856ZM234.178 129.144H237.202V141H234.178V129.144ZM245.285 145.728C244.245 145.728 243.325 145.544 242.525 145.176C241.741 144.824 241.141 144.392 240.725 143.88L242.549 142.032C242.821 142.368 243.197 142.64 243.677 142.848C244.173 143.056 244.701 143.16 245.261 143.16C245.645 143.16 246.013 143.112 246.365 143.016C246.717 142.936 247.021 142.792 247.277 142.584C247.533 142.392 247.733 142.128 247.877 141.792C248.037 141.456 248.117 141.032 248.117 140.52V138.264H247.997C247.741 138.968 247.301 139.536 246.677 139.968C246.069 140.384 245.333 140.592 244.469 140.592C243.749 140.592 243.085 140.456 242.477 140.184C241.885 139.896 241.373 139.496 240.941 138.984C240.525 138.456 240.197 137.832 239.957 137.112C239.733 136.376 239.621 135.552 239.621 134.64C239.621 133.76 239.733 132.968 239.957 132.264C240.197 131.56 240.533 130.96 240.965 130.464C241.397 129.952 241.909 129.56 242.501 129.288C243.109 129.016 243.773 128.88 244.493 128.88C245.389 128.88 246.149 129.088 246.773 129.504C247.413 129.92 247.869 130.496 248.141 131.232H248.285V129.144H251.141V140.664C251.141 142.264 250.621 143.504 249.581 144.384C248.541 145.28 247.109 145.728 245.285 145.728ZM245.405 138.072C246.285 138.072 246.957 137.76 247.421 137.136C247.885 136.496 248.117 135.688 248.117 134.712C248.117 133.704 247.885 132.896 247.421 132.288C246.957 131.664 246.285 131.352 245.405 131.352C244.541 131.352 243.869 131.664 243.389 132.288C242.925 132.896 242.693 133.704 242.693 134.712C242.693 135.688 242.925 136.496 243.389 137.136C243.869 137.76 244.541 138.072 245.405 138.072ZM254.311 123.6H257.335V130.752H257.479C257.767 130.208 258.183 129.76 258.727 129.408C259.271 129.04 259.927 128.856 260.695 128.856C262.199 128.856 263.279 129.256 263.935 130.056C264.607 130.84 264.943 132.032 264.943 133.632V141H261.919V134.232C261.919 133.272 261.743 132.56 261.391 132.096C261.055 131.632 260.479 131.4 259.663 131.4C258.895 131.4 258.311 131.656 257.911 132.168C257.527 132.664 257.335 133.392 257.335 134.352V141H254.311V123.6ZM272.488 141.264C271.176 141.264 270.216 140.912 269.608 140.208C269.016 139.504 268.72 138.44 268.72 137.016V131.568H266.848V129.144H268.72V125.928H271.72V129.144H275.176V131.568H271.72V136.992C271.72 137.616 271.832 138.064 272.056 138.336C272.28 138.592 272.616 138.72 273.064 138.72C273.384 138.72 273.672 138.664 273.928 138.552C274.184 138.424 274.408 138.272 274.6 138.096L275.68 140.16C275.28 140.544 274.824 140.824 274.312 141C273.8 141.176 273.192 141.264 272.488 141.264Z" fill="#242E30"/>
<path d="M81.216 179.4H83.88L89.496 195H87.312L86.088 191.568H78.912L77.688 195H75.624L81.216 179.4ZM79.512 189.84H85.488L82.56 181.104H82.416L79.512 189.84ZM96.2417 195.288C95.4417 195.288 94.7217 195.136 94.0817 194.832C93.4417 194.512 92.8897 194.08 92.4257 193.536C91.9617 192.976 91.6017 192.312 91.3457 191.544C91.1057 190.776 90.9857 189.944 90.9857 189.048C90.9857 188.152 91.1057 187.328 91.3457 186.576C91.6017 185.808 91.9617 185.152 92.4257 184.608C92.8897 184.048 93.4417 183.616 94.0817 183.312C94.7217 183.008 95.4417 182.856 96.2417 182.856C97.2177 182.856 98.0577 183.088 98.7617 183.552C99.4657 184.016 99.9697 184.608 100.274 185.328H100.418V177.6H102.338V195H100.514V192.576H100.37C100.226 192.992 100.018 193.368 99.7457 193.704C99.4897 194.024 99.1777 194.304 98.8097 194.544C98.4577 194.784 98.0577 194.968 97.6097 195.096C97.1777 195.224 96.7217 195.288 96.2417 195.288ZM96.7217 193.56C97.2337 193.56 97.7137 193.472 98.1617 193.296C98.6097 193.104 99.0017 192.824 99.3377 192.456C99.6737 192.072 99.9377 191.6 100.13 191.04C100.322 190.48 100.418 189.824 100.418 189.072C100.418 188.32 100.322 187.664 100.13 187.104C99.9377 186.544 99.6737 186.08 99.3377 185.712C99.0017 185.328 98.6097 185.048 98.1617 184.872C97.7137 184.68 97.2337 184.584 96.7217 184.584C96.1937 184.584 95.6977 184.68 95.2337 184.872C94.7857 185.048 94.3857 185.328 94.0337 185.712C93.6977 186.08 93.4337 186.544 93.2417 187.104C93.0497 187.664 92.9537 188.32 92.9537 189.072C92.9537 189.824 93.0497 190.48 93.2417 191.04C93.4337 191.6 93.6977 192.072 94.0337 192.456C94.3857 192.824 94.7857 193.104 95.2337 193.296C95.6977 193.472 96.1937 193.56 96.7217 193.56ZM110.679 195.288C109.879 195.288 109.159 195.136 108.519 194.832C107.879 194.512 107.327 194.08 106.863 193.536C106.399 192.976 106.039 192.312 105.783 191.544C105.543 190.776 105.423 189.944 105.423 189.048C105.423 188.152 105.543 187.328 105.783 186.576C106.039 185.808 106.399 185.152 106.863 184.608C107.327 184.048 107.879 183.616 108.519 183.312C109.159 183.008 109.879 182.856 110.679 182.856C111.655 182.856 112.495 183.088 113.199 183.552C113.903 184.016 114.407 184.608 114.711 185.328H114.855V177.6H116.775V195H114.951V192.576H114.807C114.663 192.992 114.455 193.368 114.183 193.704C113.927 194.024 113.615 194.304 113.247 194.544C112.895 194.784 112.495 194.968 112.047 195.096C111.615 195.224 111.159 195.288 110.679 195.288ZM111.159 193.56C111.671 193.56 112.151 193.472 112.599 193.296C113.047 193.104 113.439 192.824 113.775 192.456C114.111 192.072 114.375 191.6 114.567 191.04C114.759 190.48 114.855 189.824 114.855 189.072C114.855 188.32 114.759 187.664 114.567 187.104C114.375 186.544 114.111 186.08 113.775 185.712C113.439 185.328 113.047 185.048 112.599 184.872C112.151 184.68 111.671 184.584 111.159 184.584C110.631 184.584 110.135 184.68 109.671 184.872C109.223 185.048 108.823 185.328 108.471 185.712C108.135 186.08 107.871 186.544 107.679 187.104C107.487 187.664 107.391 188.32 107.391 189.072C107.391 189.824 107.487 190.48 107.679 191.04C107.871 191.6 108.135 192.072 108.471 192.456C108.823 192.824 109.223 193.104 109.671 193.296C110.135 193.472 110.631 193.56 111.159 193.56ZM126.61 183.144H128.434V185.016H128.578C128.866 184.392 129.274 183.88 129.802 183.48C130.33 183.064 131.002 182.856 131.818 182.856C133.178 182.856 134.25 183.216 135.034 183.936C135.834 184.656 136.234 185.816 136.234 187.416V195H134.314V187.776C134.314 186.56 134.066 185.704 133.57 185.208C133.09 184.696 132.378 184.44 131.434 184.44C130.522 184.44 129.81 184.752 129.298 185.376C128.786 186 128.53 186.912 128.53 188.112V195H126.61V183.144ZM144.767 195.288C143.823 195.288 142.991 195.128 142.271 194.808C141.567 194.472 140.975 194.024 140.495 193.464C140.031 192.904 139.679 192.248 139.439 191.496C139.215 190.744 139.103 189.936 139.103 189.072C139.103 188.208 139.215 187.4 139.439 186.648C139.679 185.896 140.031 185.24 140.495 184.68C140.975 184.12 141.567 183.68 142.271 183.36C142.991 183.024 143.823 182.856 144.767 182.856C145.711 182.856 146.527 183.024 147.215 183.36C147.919 183.68 148.503 184.12 148.967 184.68C149.431 185.24 149.775 185.896 149.999 186.648C150.239 187.4 150.359 188.208 150.359 189.072C150.359 189.936 150.239 190.744 149.999 191.496C149.775 192.248 149.431 192.904 148.967 193.464C148.503 194.024 147.919 194.472 147.215 194.808C146.527 195.128 145.711 195.288 144.767 195.288ZM141.071 189.072C141.071 189.76 141.143 190.392 141.287 190.968C141.447 191.528 141.679 192.016 141.983 192.432C142.287 192.832 142.671 193.144 143.135 193.368C143.599 193.592 144.143 193.704 144.767 193.704C145.375 193.704 145.903 193.592 146.351 193.368C146.815 193.144 147.191 192.832 147.479 192.432C147.783 192.016 148.007 191.528 148.151 190.968C148.311 190.392 148.391 189.76 148.391 189.072C148.391 188.384 148.311 187.76 148.151 187.2C148.007 186.624 147.783 186.136 147.479 185.736C147.191 185.32 146.815 185 146.351 184.776C145.903 184.552 145.375 184.44 144.767 184.44C144.143 184.44 143.599 184.552 143.135 184.776C142.671 185 142.287 185.32 141.983 185.736C141.679 186.136 141.447 186.624 141.287 187.2C141.143 187.76 141.071 188.384 141.071 189.072ZM157.094 195.288C156.022 195.288 155.238 194.968 154.742 194.328C154.246 193.688 153.998 192.808 153.998 191.688V184.704H151.886V183.144H153.998V179.928H155.894V183.144H159.326V184.704H155.894V191.52C155.894 192.288 156.038 192.824 156.326 193.128C156.63 193.432 157.014 193.584 157.478 193.584C157.798 193.584 158.086 193.528 158.342 193.416C158.598 193.288 158.838 193.12 159.062 192.912L159.926 194.256C159.19 194.944 158.246 195.288 157.094 195.288ZM166.985 195.288C166.137 195.288 165.361 195.144 164.657 194.856C163.969 194.568 163.377 194.16 162.881 193.632C162.401 193.088 162.025 192.432 161.753 191.664C161.497 190.896 161.369 190.032 161.369 189.072C161.369 188.064 161.505 187.176 161.777 186.408C162.049 185.624 162.425 184.976 162.905 184.464C163.385 183.936 163.953 183.536 164.609 183.264C165.281 182.992 166.017 182.856 166.817 182.856C167.617 182.856 168.353 182.984 169.025 183.24C169.697 183.496 170.273 183.88 170.753 184.392C171.233 184.888 171.609 185.52 171.881 186.288C172.153 187.04 172.289 187.92 172.289 188.928C172.289 189.056 172.281 189.184 172.265 189.312C172.265 189.44 172.257 189.544 172.241 189.624H163.289C163.289 190.184 163.385 190.712 163.577 191.208C163.785 191.688 164.057 192.112 164.393 192.48C164.745 192.832 165.145 193.112 165.593 193.32C166.057 193.528 166.553 193.632 167.081 193.632C167.945 193.632 168.649 193.464 169.193 193.128C169.753 192.792 170.217 192.384 170.585 191.904L171.737 193.08C171.225 193.752 170.585 194.288 169.817 194.688C169.065 195.088 168.121 195.288 166.985 195.288ZM166.817 184.44C166.257 184.44 165.761 184.544 165.329 184.752C164.897 184.96 164.537 185.232 164.249 185.568C163.961 185.904 163.737 186.288 163.577 186.72C163.433 187.152 163.353 187.584 163.337 188.016H170.273C170.257 187.584 170.169 187.152 170.009 186.72C169.865 186.288 169.649 185.904 169.361 185.568C169.073 185.232 168.713 184.96 168.281 184.752C167.865 184.544 167.377 184.44 166.817 184.44Z" fill="#242E30"/>
<path d="M75 198.288H173.344V199.488H75V198.288Z" fill="#242E30"/>
<rect x="480" y="169" width="72" height="72" rx="36" fill="#F5F3F1"/>
<g clip-path="url(#clip0_740_146612)">
<path d="M529.781 203.523H517.477H514.523H502.219V206.477H514.523H517.477H529.781V203.523Z" fill="#242E30"/>
</g>
<rect x="576" y="169" width="72" height="72" rx="36" fill="#F5F3F1"/>
<g clip-path="url(#clip1_740_146612)">
<path d="M625.781 203.523H613.477V191.219H610.523V203.523H598.219V206.477H610.523V218.781H613.477V206.477H625.781V203.523Z" fill="#242E30"/>
</g>
</g>
<defs>
<filter id="filter0_f_740_146612" x="-105" y="-105" width="917" height="510" filterUnits="userSpaceOnUse" color-interpolation-filters="sRGB">
<feFlood flood-opacity="0" result="BackgroundImageFix"/>
<feBlend mode="normal" in="SourceGraphic" in2="BackgroundImageFix" result="shape"/>
<feGaussianBlur stdDeviation="50" result="effect1_foregroundBlur_740_146612"/>
</filter>
<clipPath id="clip0_740_146612">
<rect width="31.5" height="31.5" fill="white" transform="translate(500.25 189.25)"/>
</clipPath>
<clipPath id="clip1_740_146612">
<rect width="31.5" height="31.5" fill="white" transform="translate(596.25 189.25)"/>
</clipPath>
</defs>
</svg>
