<svg width="418" height="181" viewBox="0 0 418 181" fill="none" xmlns="http://www.w3.org/2000/svg">
<g clip-path="url(#clip0_9315_6738)">
<path d="M209 80.7507L217 88.7507H201L209 80.7507Z" fill="#2B2A28"/>
<path d="M69 96.7507C69 92.3325 72.5817 88.7507 77 88.7507H341C345.418 88.7507 349 92.3325 349 96.7507V172.751C349 177.169 345.418 180.751 341 180.751H77C72.5817 180.751 69 177.169 69 172.751V96.7507Z" fill="#2B2A28"/>
<path d="M83.814 111.751V104.177H81.294V102.651H88.224V104.177H85.69V111.751H83.814ZM89.4435 111.751V104.835H91.2075V111.751H89.4435ZM90.3395 103.925C90.0035 103.925 89.7469 103.822 89.5695 103.617C89.3922 103.411 89.3035 103.178 89.3035 102.917C89.3035 102.646 89.3922 102.413 89.5695 102.217C89.7469 102.011 90.0035 101.909 90.3395 101.909C90.6662 101.909 90.9182 102.011 91.0955 102.217C91.2822 102.413 91.3755 102.646 91.3755 102.917C91.3755 103.178 91.2822 103.411 91.0955 103.617C90.9182 103.822 90.6662 103.925 90.3395 103.925ZM95.7266 111.905C95.2226 111.905 94.8072 111.816 94.4806 111.639C94.1539 111.452 93.9112 111.177 93.7526 110.813C93.6032 110.439 93.5286 109.977 93.5286 109.427V106.249H92.4366V104.835H93.5286V102.959H95.2786V104.835H97.2946V106.249H95.2786V109.413C95.2786 109.777 95.3439 110.038 95.4746 110.197C95.6146 110.346 95.8106 110.421 96.0626 110.421C96.2399 110.421 96.4032 110.388 96.5526 110.323C96.7112 110.248 96.8466 110.159 96.9586 110.057L97.5886 111.261C97.3646 111.485 97.0986 111.648 96.7906 111.751C96.4826 111.853 96.1279 111.905 95.7266 111.905ZM98.7814 111.751V101.601H100.545V111.751H98.7814ZM105.4 111.919C104.635 111.919 103.991 111.755 103.468 111.429C102.955 111.102 102.568 110.668 102.306 110.127C102.054 109.576 101.928 108.965 101.928 108.293C101.928 107.779 101.998 107.303 102.138 106.865C102.278 106.417 102.484 106.029 102.754 105.703C103.034 105.376 103.384 105.124 103.804 104.947C104.224 104.76 104.719 104.667 105.288 104.667C105.848 104.667 106.334 104.755 106.744 104.933C107.164 105.11 107.51 105.362 107.78 105.689C108.06 106.006 108.266 106.379 108.396 106.809C108.536 107.238 108.606 107.709 108.606 108.223C108.606 108.316 108.597 108.428 108.578 108.559C108.569 108.68 108.555 108.773 108.536 108.839H103.72C103.748 109.175 103.851 109.464 104.028 109.707C104.206 109.949 104.425 110.136 104.686 110.267C104.948 110.388 105.218 110.449 105.498 110.449C105.89 110.449 106.222 110.379 106.492 110.239C106.772 110.099 106.996 109.921 107.164 109.707L108.158 110.743C107.906 111.088 107.542 111.373 107.066 111.597C106.6 111.811 106.044 111.919 105.4 111.919ZM105.288 106.011C104.99 106.011 104.724 106.081 104.49 106.221C104.266 106.351 104.084 106.533 103.944 106.767C103.814 107 103.734 107.275 103.706 107.593H106.842C106.814 107.275 106.73 107 106.59 106.767C106.46 106.533 106.282 106.351 106.058 106.221C105.834 106.081 105.578 106.011 105.288 106.011Z" fill="white" fill-opacity="0.9"/>
<path d="M82.288 131.751V122.651H85.242C85.7367 122.651 86.166 122.744 86.53 122.931C86.9033 123.117 87.1927 123.388 87.398 123.743C87.6033 124.097 87.706 124.527 87.706 125.031C87.706 125.348 87.6407 125.642 87.51 125.913C87.3887 126.183 87.216 126.412 86.992 126.599C86.768 126.785 86.5113 126.916 86.222 126.991V127.075C86.53 127.121 86.824 127.247 87.104 127.453C87.3933 127.649 87.6267 127.905 87.804 128.223C87.9907 128.54 88.084 128.899 88.084 129.301C88.084 129.795 87.9627 130.229 87.72 130.603C87.4867 130.967 87.1693 131.251 86.768 131.457C86.3667 131.653 85.9093 131.751 85.396 131.751H82.288ZM83.478 126.641H85.102C85.382 126.641 85.6247 126.58 85.83 126.459C86.0447 126.337 86.208 126.165 86.32 125.941C86.432 125.707 86.488 125.441 86.488 125.143C86.488 124.676 86.362 124.312 86.11 124.051C85.858 123.78 85.5267 123.645 85.116 123.645H83.478V126.641ZM83.478 130.757H85.382C85.69 130.757 85.9513 130.691 86.166 130.561C86.39 130.43 86.5627 130.248 86.684 130.015C86.8053 129.781 86.866 129.511 86.866 129.203C86.866 128.708 86.7307 128.321 86.46 128.041C86.1987 127.761 85.8393 127.621 85.382 127.621H83.478V130.757ZM92.8223 131.919C92.085 131.919 91.469 131.755 90.9743 131.429C90.489 131.102 90.125 130.663 89.8823 130.113C89.6397 129.562 89.5183 128.955 89.5183 128.293C89.5183 127.789 89.5837 127.317 89.7143 126.879C89.8543 126.44 90.0597 126.057 90.3303 125.731C90.6103 125.395 90.9557 125.133 91.3663 124.947C91.7863 124.76 92.2717 124.667 92.8223 124.667C93.5597 124.667 94.1663 124.83 94.6423 125.157C95.1277 125.483 95.487 125.922 95.7203 126.473C95.963 127.014 96.0843 127.621 96.0843 128.293C96.0843 128.797 96.0143 129.268 95.8743 129.707C95.7437 130.145 95.543 130.533 95.2723 130.869C95.0017 131.195 94.661 131.452 94.2503 131.639C93.849 131.825 93.373 131.919 92.8223 131.919ZM90.6663 128.293C90.6663 128.825 90.7457 129.296 90.9043 129.707C91.063 130.108 91.301 130.425 91.6183 130.659C91.9357 130.883 92.337 130.995 92.8223 130.995C93.2983 130.995 93.6903 130.883 93.9983 130.659C94.3157 130.425 94.549 130.108 94.6983 129.707C94.857 129.296 94.9363 128.825 94.9363 128.293C94.9363 127.761 94.857 127.294 94.6983 126.893C94.549 126.482 94.3157 126.165 93.9983 125.941C93.6903 125.707 93.2983 125.591 92.8223 125.591C92.337 125.591 91.9357 125.707 91.6183 125.941C91.301 126.165 91.063 126.482 90.9043 126.893C90.7457 127.294 90.6663 127.761 90.6663 128.293ZM100.377 131.919C99.7613 131.919 99.2246 131.76 98.7673 131.443C98.31 131.125 97.9506 130.696 97.6893 130.155C97.4373 129.604 97.3113 128.979 97.3113 128.279C97.3113 127.579 97.4373 126.958 97.6893 126.417C97.9506 125.866 98.31 125.437 98.7673 125.129C99.2246 124.821 99.7613 124.667 100.377 124.667C100.947 124.667 101.437 124.802 101.847 125.073C102.258 125.343 102.552 125.689 102.729 126.109H102.813V121.601H103.933V131.751H102.869V130.337H102.785C102.627 130.813 102.328 131.195 101.889 131.485C101.451 131.774 100.947 131.919 100.377 131.919ZM100.657 130.911C101.059 130.911 101.418 130.817 101.735 130.631C102.062 130.435 102.323 130.141 102.519 129.749C102.715 129.357 102.813 128.871 102.813 128.293C102.813 127.705 102.715 127.219 102.519 126.837C102.323 126.445 102.062 126.155 101.735 125.969C101.418 125.773 101.059 125.675 100.657 125.675C100.247 125.675 99.8733 125.773 99.5373 125.969C99.2106 126.155 98.9493 126.445 98.7533 126.837C98.5573 127.219 98.4593 127.705 98.4593 128.293C98.4593 128.871 98.5573 129.357 98.7533 129.749C98.9493 130.141 99.2106 130.435 99.5373 130.631C99.8733 130.817 100.247 130.911 100.657 130.911ZM106.741 134.397C106.648 134.397 106.545 134.387 106.433 134.369C106.321 134.359 106.228 134.345 106.153 134.327V133.361C106.2 133.37 106.275 133.379 106.377 133.389C106.489 133.398 106.592 133.403 106.685 133.403C106.937 133.403 107.143 133.37 107.301 133.305C107.46 133.249 107.605 133.118 107.735 132.913C107.866 132.707 108.011 132.395 108.169 131.975L105.397 124.835H106.615L108.701 130.631H108.785L110.885 124.835H112.019L109.303 131.821C109.07 132.427 108.841 132.917 108.617 133.291C108.393 133.673 108.137 133.953 107.847 134.131C107.558 134.308 107.189 134.397 106.741 134.397Z" fill="white" fill-opacity="0.9"/>
<path d="M335.834 100.757L331 105.591L326.166 100.757L325.006 101.916L329.841 106.751L325.006 111.585L326.166 112.745L331 107.91L335.834 112.745L336.994 111.585L332.159 106.751L336.994 101.916L335.834 100.757Z" fill="white" fill-opacity="0.9"/>
<g clip-path="url(#clip1_9315_6738)">
<path d="M283 156.751C283 147.914 290.163 140.751 299 140.751H325C333.837 140.751 341 147.914 341 156.751C341 165.587 333.837 172.751 325 172.751H299C290.163 172.751 283 165.587 283 156.751Z" fill="white" fill-opacity="0.01"/>
<path d="M291.689 161.751L295.049 152.651H297.359L300.733 161.751H298.745L298.129 160.043H294.209L293.593 161.751H291.689ZM296.113 154.401L294.741 158.559H297.597L296.197 154.401H296.113ZM304.639 161.919C303.855 161.919 303.211 161.751 302.707 161.415C302.212 161.069 301.848 160.621 301.615 160.071C301.391 159.511 301.279 158.918 301.279 158.293C301.279 157.658 301.391 157.065 301.615 156.515C301.839 155.964 302.198 155.521 302.693 155.185C303.187 154.839 303.817 154.667 304.583 154.667C305.152 154.667 305.642 154.769 306.053 154.975C306.463 155.18 306.799 155.441 307.061 155.759L305.885 156.823C305.726 156.636 305.549 156.487 305.353 156.375C305.157 156.263 304.909 156.207 304.611 156.207C304.293 156.207 304.018 156.291 303.785 156.459C303.561 156.627 303.383 156.865 303.253 157.173C303.131 157.481 303.071 157.854 303.071 158.293C303.071 158.937 303.211 159.445 303.491 159.819C303.78 160.192 304.163 160.379 304.639 160.379C304.928 160.379 305.18 160.323 305.395 160.211C305.609 160.099 305.796 159.94 305.955 159.735L307.117 160.813C306.855 161.13 306.515 161.396 306.095 161.611C305.675 161.816 305.189 161.919 304.639 161.919ZM310.99 161.905C310.486 161.905 310.071 161.816 309.744 161.639C309.418 161.452 309.175 161.177 309.016 160.813C308.867 160.439 308.792 159.977 308.792 159.427V156.249H307.7V154.835H308.792V152.959H310.542V154.835H312.558V156.249H310.542V159.413C310.542 159.777 310.608 160.038 310.738 160.197C310.878 160.346 311.074 160.421 311.326 160.421C311.504 160.421 311.667 160.388 311.816 160.323C311.975 160.248 312.11 160.159 312.222 160.057L312.852 161.261C312.628 161.485 312.362 161.648 312.054 161.751C311.746 161.853 311.392 161.905 310.99 161.905ZM314.045 161.751V154.835H315.809V161.751H314.045ZM314.941 153.925C314.605 153.925 314.348 153.822 314.171 153.617C313.994 153.411 313.905 153.178 313.905 152.917C313.905 152.646 313.994 152.413 314.171 152.217C314.348 152.011 314.605 151.909 314.941 151.909C315.268 151.909 315.52 152.011 315.697 152.217C315.884 152.413 315.977 152.646 315.977 152.917C315.977 153.178 315.884 153.411 315.697 153.617C315.52 153.822 315.268 153.925 314.941 153.925ZM320.678 161.919C319.913 161.919 319.269 161.755 318.746 161.429C318.233 161.093 317.845 160.649 317.584 160.099C317.323 159.548 317.192 158.946 317.192 158.293C317.192 157.798 317.267 157.331 317.416 156.893C317.565 156.454 317.785 156.071 318.074 155.745C318.363 155.409 318.723 155.147 319.152 154.961C319.591 154.765 320.099 154.667 320.678 154.667C321.453 154.667 322.092 154.835 322.596 155.171C323.109 155.497 323.492 155.936 323.744 156.487C324.005 157.028 324.136 157.63 324.136 158.293C324.136 158.787 324.061 159.254 323.912 159.693C323.772 160.131 323.557 160.519 323.268 160.855C322.979 161.181 322.619 161.443 322.19 161.639C321.761 161.825 321.257 161.919 320.678 161.919ZM318.998 158.293C318.998 158.741 319.063 159.133 319.194 159.469C319.334 159.795 319.525 160.047 319.768 160.225C320.02 160.402 320.323 160.491 320.678 160.491C321.033 160.491 321.331 160.402 321.574 160.225C321.817 160.047 322.003 159.795 322.134 159.469C322.274 159.133 322.344 158.741 322.344 158.293C322.344 157.835 322.274 157.443 322.134 157.117C322.003 156.79 321.817 156.538 321.574 156.361C321.331 156.183 321.033 156.095 320.678 156.095C320.323 156.095 320.02 156.183 319.768 156.361C319.525 156.538 319.334 156.79 319.194 157.117C319.063 157.443 318.998 157.835 318.998 158.293ZM325.502 161.751V154.835H327.168V155.955H327.252C327.355 155.712 327.499 155.493 327.686 155.297C327.882 155.101 328.111 154.947 328.372 154.835C328.633 154.723 328.918 154.667 329.226 154.667C330.094 154.667 330.724 154.9 331.116 155.367C331.508 155.824 331.704 156.519 331.704 157.453V161.751H329.94V157.803C329.94 157.252 329.837 156.841 329.632 156.571C329.427 156.291 329.091 156.151 328.624 156.151C328.176 156.151 327.835 156.3 327.602 156.599C327.378 156.888 327.266 157.313 327.266 157.873V161.751H325.502Z" fill="white"/>
</g>
</g>
<circle cx="12.5" cy="128.188" r="12.5" fill="#2B2A28"/>
<path d="M9.26387 131.217C9.26387 130.797 9.32453 130.429 9.44587 130.111C9.57653 129.794 9.75387 129.509 9.97787 129.257C10.2019 129.005 10.4679 128.777 10.7759 128.572C11.0839 128.366 11.4199 128.165 11.7839 127.969C12.1479 127.773 12.4512 127.605 12.6939 127.465C12.9459 127.316 13.1419 127.171 13.2819 127.031C13.4312 126.891 13.5339 126.751 13.5899 126.611C13.6552 126.462 13.6879 126.289 13.6879 126.093C13.6879 125.711 13.5479 125.431 13.2679 125.253C12.9879 125.076 12.6519 124.987 12.2599 124.987C11.8399 124.987 11.4525 125.067 11.0979 125.225C10.7525 125.375 10.4539 125.585 10.2019 125.855L9.26387 124.749C9.6092 124.357 10.0479 124.04 10.5799 123.797C11.1119 123.545 11.7232 123.419 12.4139 123.419C12.8805 123.419 13.3052 123.475 13.6879 123.587C14.0799 123.699 14.4112 123.867 14.6819 124.091C14.9619 124.306 15.1765 124.572 15.3259 124.889C15.4845 125.207 15.5639 125.571 15.5639 125.981C15.5639 126.383 15.5032 126.737 15.3819 127.045C15.2605 127.344 15.0832 127.624 14.8499 127.885C14.6165 128.137 14.3272 128.375 13.9819 128.599C13.6459 128.823 13.2585 129.052 12.8199 129.285C12.5212 129.453 12.2645 129.598 12.0499 129.719C11.8445 129.841 11.6719 129.962 11.5319 130.083C11.4012 130.205 11.3032 130.326 11.2379 130.447C11.1819 130.569 11.1539 130.713 11.1539 130.881V131.175H15.8019L15.8019 132.688H9.26387L9.26387 131.217Z" fill="white" fill-opacity="0.9"/>
<rect x="25" y="127.688" width="56" height="1" rx="0.5" fill="#FF8000"/>
<circle cx="209.5" cy="12.5" r="12.5" fill="#2B2A28"/>
<path d="M210.184 15.306H205.816V13.976L209.596 7.9H211.626L207.93 13.808H210.184V11.554H212.004V13.808H213.152V15.306H212.004V17H210.184V15.306Z" fill="white"/>
<rect x="209" y="25" width="1" height="56" rx="0.5" fill="#FF8000"/>
<circle cx="93.5" cy="43.0007" r="12.5" fill="#2B2A28"/>
<path d="M90.4599 46.0027H92.9099V40.3607L90.7959 41.2147L90.1939 39.8987L93.4419 38.4007H94.7719V46.0027H96.9559V47.5007H90.4599V46.0027Z" fill="white" fill-opacity="0.9"/>
<rect x="93" y="55.5007" width="1" height="46" rx="0.5" fill="#FF8000"/>
<circle cx="330.5" cy="43.0007" r="12.5" fill="#2B2A28"/>
<path d="M330.134 47.6687C329.406 47.6687 328.795 47.5614 328.3 47.3467C327.805 47.1227 327.381 46.8194 327.026 46.4367L328.048 45.3027C328.272 45.5547 328.552 45.7601 328.888 45.9187C329.233 46.0774 329.616 46.1567 330.036 46.1567C330.54 46.1567 330.946 46.0447 331.254 45.8207C331.562 45.5967 331.716 45.2654 331.716 44.8267C331.716 44.4067 331.571 44.0987 331.282 43.9027C330.993 43.7067 330.61 43.6087 330.134 43.6087H329.224V42.1247H330.134C330.554 42.1247 330.867 42.0174 331.072 41.8027C331.277 41.5787 331.38 41.2894 331.38 40.9347C331.38 40.7201 331.343 40.5381 331.268 40.3887C331.193 40.2394 331.091 40.1181 330.96 40.0247C330.839 39.9221 330.694 39.8521 330.526 39.8147C330.358 39.7681 330.185 39.7447 330.008 39.7447C329.625 39.7447 329.275 39.8194 328.958 39.9687C328.641 40.1181 328.375 40.3141 328.16 40.5567L327.194 39.4647C327.53 39.0914 327.936 38.7927 328.412 38.5687C328.888 38.3447 329.476 38.2327 330.176 38.2327C330.633 38.2327 331.053 38.2934 331.436 38.4147C331.819 38.5361 332.145 38.7087 332.416 38.9327C332.687 39.1474 332.897 39.4041 333.046 39.7027C333.195 40.0014 333.27 40.3327 333.27 40.6967C333.27 41.1727 333.13 41.5927 332.85 41.9567C332.57 42.3114 332.164 42.5821 331.632 42.7687V42.8527C331.912 42.9087 332.169 43.0021 332.402 43.1327C332.645 43.2634 332.85 43.4267 333.018 43.6227C333.195 43.8094 333.335 44.0241 333.438 44.2667C333.541 44.5001 333.592 44.7567 333.592 45.0367C333.592 45.4194 333.517 45.7741 333.368 46.1007C333.219 46.4181 332.995 46.6934 332.696 46.9267C332.407 47.1601 332.047 47.3421 331.618 47.4727C331.189 47.6034 330.694 47.6687 330.134 47.6687Z" fill="white" fill-opacity="0.9"/>
<rect x="330" y="55.5007" width="1" height="46" rx="0.5" fill="#FF8000"/>
<rect x="337" y="158.375" width="56" height="1" rx="0.5" fill="#FF8000"/>
<circle cx="405.5" cy="158.875" r="12.5" fill="#2B2A28"/>
<path d="M405.218 163.543C404.499 163.543 403.893 163.441 403.398 163.235C402.913 163.021 402.493 162.731 402.138 162.367L403.16 161.219C403.393 161.462 403.669 161.658 403.986 161.807C404.303 161.957 404.672 162.031 405.092 162.031C405.587 162.031 405.997 161.905 406.324 161.653C406.651 161.401 406.814 161.037 406.814 160.561C406.814 160.085 406.651 159.735 406.324 159.511C406.007 159.278 405.61 159.161 405.134 159.161H403.454L402.768 158.475V154.275H408.172V155.787H404.49V157.719H405.386C405.881 157.719 406.329 157.785 406.73 157.915C407.141 158.046 407.491 158.233 407.78 158.475C408.079 158.718 408.307 159.017 408.466 159.371C408.625 159.717 408.704 160.113 408.704 160.561C408.704 160.991 408.629 161.387 408.48 161.751C408.331 162.115 408.107 162.433 407.808 162.703C407.519 162.965 407.155 163.17 406.716 163.319C406.287 163.469 405.787 163.543 405.218 163.543Z" fill="white" fill-opacity="0.9"/>
<defs>
<clipPath id="clip0_9315_6738">
<rect width="280" height="100" fill="white" transform="translate(69 80.7507)"/>
</clipPath>
<clipPath id="clip1_9315_6738">
<path d="M283 156.751C283 147.914 290.163 140.751 299 140.751H325C333.837 140.751 341 147.914 341 156.751C341 165.587 333.837 172.751 325 172.751H299C290.163 172.751 283 165.587 283 156.751Z" fill="white"/>
</clipPath>
</defs>
</svg>
