<svg width="256" height="56" viewBox="0 0 256 56" fill="none" xmlns="http://www.w3.org/2000/svg">
<g clip-path="url(#clip0_9315_6854)">
<path d="M0 28L8 20L8 36L0 28Z" fill="#2B2A28"/>
<path d="M8 8C8 3.58172 11.5817 0 16 0H248C252.418 0 256 3.58172 256 8V48C256 52.4183 252.418 56 248 56H16C11.5817 56 8 52.4183 8 48V8Z" fill="#2B2A28"/>
<path d="M22.814 23V15.426H20.294V13.9H27.224V15.426H24.69V23H22.814ZM28.4435 23V16.084H30.2075V23H28.4435ZM29.3395 15.174C29.0035 15.174 28.7469 15.0713 28.5695 14.866C28.3922 14.6607 28.3035 14.4273 28.3035 14.166C28.3035 13.8953 28.3922 13.662 28.5695 13.466C28.7469 13.2607 29.0035 13.158 29.3395 13.158C29.6662 13.158 29.9182 13.2607 30.0955 13.466C30.2822 13.662 30.3755 13.8953 30.3755 14.166C30.3755 14.4273 30.2822 14.6607 30.0955 14.866C29.9182 15.0713 29.6662 15.174 29.3395 15.174ZM34.7266 23.154C34.2226 23.154 33.8072 23.0653 33.4806 22.888C33.1539 22.7013 32.9112 22.426 32.7526 22.062C32.6032 21.6887 32.5286 21.2267 32.5286 20.676V17.498H31.4366V16.084H32.5286V14.208H34.2786V16.084H36.2946V17.498H34.2786V20.662C34.2786 21.026 34.3439 21.2873 34.4746 21.446C34.6146 21.5953 34.8106 21.67 35.0626 21.67C35.2399 21.67 35.4032 21.6373 35.5526 21.572C35.7112 21.4973 35.8466 21.4087 35.9586 21.306L36.5886 22.51C36.3646 22.734 36.0986 22.8973 35.7906 23C35.4826 23.1027 35.1279 23.154 34.7266 23.154ZM37.7814 23V12.85H39.5454V23H37.7814ZM44.4005 23.168C43.6351 23.168 42.9911 23.0047 42.4685 22.678C41.9551 22.3513 41.5678 21.9173 41.3065 21.376C41.0545 20.8253 40.9285 20.214 40.9285 19.542C40.9285 19.0287 40.9985 18.5527 41.1385 18.114C41.2785 17.666 41.4838 17.2787 41.7545 16.952C42.0345 16.6253 42.3845 16.3733 42.8045 16.196C43.2245 16.0093 43.7191 15.916 44.2885 15.916C44.8485 15.916 45.3338 16.0047 45.7445 16.182C46.1645 16.3593 46.5098 16.6113 46.7805 16.938C47.0605 17.2553 47.2658 17.6287 47.3965 18.058C47.5365 18.4873 47.6065 18.9587 47.6065 19.472C47.6065 19.5653 47.5971 19.6773 47.5785 19.808C47.5691 19.9293 47.5551 20.0227 47.5365 20.088H42.7205C42.7485 20.424 42.8511 20.7133 43.0285 20.956C43.2058 21.1987 43.4251 21.3853 43.6865 21.516C43.9478 21.6373 44.2185 21.698 44.4985 21.698C44.8905 21.698 45.2218 21.628 45.4925 21.488C45.7725 21.348 45.9965 21.1707 46.1645 20.956L47.1585 21.992C46.9065 22.3373 46.5425 22.622 46.0665 22.846C45.5998 23.0607 45.0445 23.168 44.4005 23.168ZM44.2885 17.26C43.9898 17.26 43.7238 17.33 43.4905 17.47C43.2665 17.6007 43.0845 17.7827 42.9445 18.016C42.8138 18.2493 42.7345 18.5247 42.7065 18.842H45.8425C45.8145 18.5247 45.7305 18.2493 45.5905 18.016C45.4598 17.7827 45.2825 17.6007 45.0585 17.47C44.8345 17.33 44.5778 17.26 44.2885 17.26Z" fill="white" fill-opacity="0.9"/>
<path d="M21.288 43V33.9H24.242C24.7367 33.9 25.166 33.9933 25.53 34.18C25.9033 34.3667 26.1927 34.6373 26.398 34.992C26.6033 35.3467 26.706 35.776 26.706 36.28C26.706 36.5973 26.6407 36.8913 26.51 37.162C26.3887 37.4327 26.216 37.6613 25.992 37.848C25.768 38.0347 25.5113 38.1653 25.222 38.24V38.324C25.53 38.3707 25.824 38.4967 26.104 38.702C26.3933 38.898 26.6267 39.1547 26.804 39.472C26.9907 39.7893 27.084 40.1487 27.084 40.55C27.084 41.0447 26.9627 41.4787 26.72 41.852C26.4867 42.216 26.1693 42.5007 25.768 42.706C25.3667 42.902 24.9093 43 24.396 43H21.288ZM22.478 37.89H24.102C24.382 37.89 24.6247 37.8293 24.83 37.708C25.0447 37.5867 25.208 37.414 25.32 37.19C25.432 36.9567 25.488 36.6907 25.488 36.392C25.488 35.9253 25.362 35.5613 25.11 35.3C24.858 35.0293 24.5267 34.894 24.116 34.894H22.478V37.89ZM22.478 42.006H24.382C24.69 42.006 24.9513 41.9407 25.166 41.81C25.39 41.6793 25.5627 41.4973 25.684 41.264C25.8053 41.0307 25.866 40.76 25.866 40.452C25.866 39.9573 25.7307 39.57 25.46 39.29C25.1987 39.01 24.8393 38.87 24.382 38.87H22.478V42.006ZM31.8223 43.168C31.085 43.168 30.469 43.0047 29.9743 42.678C29.489 42.3513 29.125 41.9127 28.8823 41.362C28.6397 40.8113 28.5183 40.2047 28.5183 39.542C28.5183 39.038 28.5837 38.5667 28.7143 38.128C28.8543 37.6893 29.0597 37.3067 29.3303 36.98C29.6103 36.644 29.9557 36.3827 30.3663 36.196C30.7863 36.0093 31.2717 35.916 31.8223 35.916C32.5597 35.916 33.1663 36.0793 33.6423 36.406C34.1277 36.7327 34.487 37.1713 34.7203 37.722C34.963 38.2633 35.0843 38.87 35.0843 39.542C35.0843 40.046 35.0143 40.5173 34.8743 40.956C34.7437 41.3947 34.543 41.782 34.2723 42.118C34.0017 42.4447 33.661 42.7013 33.2503 42.888C32.849 43.0747 32.373 43.168 31.8223 43.168ZM29.6663 39.542C29.6663 40.074 29.7457 40.5453 29.9043 40.956C30.063 41.3573 30.301 41.6747 30.6183 41.908C30.9357 42.132 31.337 42.244 31.8223 42.244C32.2983 42.244 32.6903 42.132 32.9983 41.908C33.3157 41.6747 33.549 41.3573 33.6983 40.956C33.857 40.5453 33.9363 40.074 33.9363 39.542C33.9363 39.01 33.857 38.5433 33.6983 38.142C33.549 37.7313 33.3157 37.414 32.9983 37.19C32.6903 36.9567 32.2983 36.84 31.8223 36.84C31.337 36.84 30.9357 36.9567 30.6183 37.19C30.301 37.414 30.063 37.7313 29.9043 38.142C29.7457 38.5433 29.6663 39.01 29.6663 39.542ZM39.3773 43.168C38.7613 43.168 38.2246 43.0093 37.7673 42.692C37.31 42.3747 36.9506 41.9453 36.6893 41.404C36.4373 40.8533 36.3113 40.228 36.3113 39.528C36.3113 38.828 36.4373 38.2073 36.6893 37.666C36.9506 37.1153 37.31 36.686 37.7673 36.378C38.2246 36.07 38.7613 35.916 39.3773 35.916C39.9466 35.916 40.4366 36.0513 40.8473 36.322C41.258 36.5927 41.552 36.938 41.7293 37.358H41.8133V32.85H42.9333V43H41.8693V41.586H41.7853C41.6266 42.062 41.328 42.4447 40.8893 42.734C40.4506 43.0233 39.9466 43.168 39.3773 43.168ZM39.6573 42.16C40.0586 42.16 40.418 42.0667 40.7353 41.88C41.062 41.684 41.3233 41.39 41.5193 40.998C41.7153 40.606 41.8133 40.1207 41.8133 39.542C41.8133 38.954 41.7153 38.4687 41.5193 38.086C41.3233 37.694 41.062 37.4047 40.7353 37.218C40.418 37.022 40.0586 36.924 39.6573 36.924C39.2466 36.924 38.8733 37.022 38.5373 37.218C38.2106 37.4047 37.9493 37.694 37.7533 38.086C37.5573 38.4687 37.4593 38.954 37.4593 39.542C37.4593 40.1207 37.5573 40.606 37.7533 40.998C37.9493 41.39 38.2106 41.684 38.5373 41.88C38.8733 42.0667 39.2466 42.16 39.6573 42.16ZM45.7412 45.646C45.6479 45.646 45.5452 45.6367 45.4332 45.618C45.3212 45.6087 45.2279 45.5947 45.1532 45.576V44.61C45.1999 44.6193 45.2745 44.6287 45.3772 44.638C45.4892 44.6473 45.5919 44.652 45.6852 44.652C45.9372 44.652 46.1425 44.6193 46.3012 44.554C46.4599 44.498 46.6045 44.3673 46.7352 44.162C46.8659 43.9567 47.0105 43.644 47.1692 43.224L44.3972 36.084H45.6152L47.7012 41.88H47.7852L49.8852 36.084H51.0192L48.3032 43.07C48.0699 43.6767 47.8412 44.1667 47.6172 44.54C47.3932 44.9227 47.1365 45.2027 46.8472 45.38C46.5579 45.5573 46.1892 45.646 45.7412 45.646Z" fill="white" fill-opacity="0.9"/>
<path d="M242.834 12.0063L238 16.8407L233.166 12.0063L232.006 13.1657L236.841 18.0001L232.006 22.8345L233.166 23.9939L238 19.1595L242.834 23.9939L243.994 22.8345L239.159 18.0001L243.994 13.1657L242.834 12.0063Z" fill="white" fill-opacity="0.9"/>
</g>
<defs>
<clipPath id="clip0_9315_6854">
<rect width="256" height="56" fill="white"/>
</clipPath>
</defs>
</svg>
