<svg width="340" height="108" viewBox="0 0 340 108" fill="none" xmlns="http://www.w3.org/2000/svg">
<g clip-path="url(#clip0_9315_6936)">
<path d="M170 64L178 72H162L170 64Z" fill="#2B2A28"/>
<path d="M0 80C0 75.5817 3.58172 72 8 72H332C336.418 72 340 75.5817 340 80V100C340 104.418 336.418 108 332 108H8C3.58172 108 0 104.418 0 100V80Z" fill="#2B2A28"/>
<path d="M13.288 95V85.9H16.242C16.7367 85.9 17.166 85.9933 17.53 86.18C17.9033 86.3667 18.1927 86.6373 18.398 86.992C18.6033 87.3467 18.706 87.776 18.706 88.28C18.706 88.5973 18.6407 88.8913 18.51 89.162C18.3887 89.4327 18.216 89.6613 17.992 89.848C17.768 90.0347 17.5113 90.1653 17.222 90.24V90.324C17.53 90.3707 17.824 90.4967 18.104 90.702C18.3933 90.898 18.6267 91.1547 18.804 91.472C18.9907 91.7893 19.084 92.1487 19.084 92.55C19.084 93.0447 18.9627 93.4787 18.72 93.852C18.4867 94.216 18.1693 94.5007 17.768 94.706C17.3667 94.902 16.9093 95 16.396 95H13.288ZM14.478 89.89H16.102C16.382 89.89 16.6247 89.8293 16.83 89.708C17.0447 89.5867 17.208 89.414 17.32 89.19C17.432 88.9567 17.488 88.6907 17.488 88.392C17.488 87.9253 17.362 87.5613 17.11 87.3C16.858 87.0293 16.5267 86.894 16.116 86.894H14.478V89.89ZM14.478 94.006H16.382C16.69 94.006 16.9513 93.9407 17.166 93.81C17.39 93.6793 17.5627 93.4973 17.684 93.264C17.8053 93.0307 17.866 92.76 17.866 92.452C17.866 91.9573 17.7307 91.57 17.46 91.29C17.1987 91.01 16.8393 90.87 16.382 90.87H14.478V94.006ZM23.8223 95.168C23.085 95.168 22.469 95.0047 21.9743 94.678C21.489 94.3513 21.125 93.9127 20.8823 93.362C20.6397 92.8113 20.5183 92.2047 20.5183 91.542C20.5183 91.038 20.5837 90.5667 20.7143 90.128C20.8543 89.6893 21.0597 89.3067 21.3303 88.98C21.6103 88.644 21.9557 88.3827 22.3663 88.196C22.7863 88.0093 23.2717 87.916 23.8223 87.916C24.5597 87.916 25.1663 88.0793 25.6423 88.406C26.1277 88.7327 26.487 89.1713 26.7203 89.722C26.963 90.2633 27.0843 90.87 27.0843 91.542C27.0843 92.046 27.0143 92.5173 26.8743 92.956C26.7437 93.3947 26.543 93.782 26.2723 94.118C26.0017 94.4447 25.661 94.7013 25.2503 94.888C24.849 95.0747 24.373 95.168 23.8223 95.168ZM21.6663 91.542C21.6663 92.074 21.7457 92.5453 21.9043 92.956C22.063 93.3573 22.301 93.6747 22.6183 93.908C22.9357 94.132 23.337 94.244 23.8223 94.244C24.2983 94.244 24.6903 94.132 24.9983 93.908C25.3157 93.6747 25.549 93.3573 25.6983 92.956C25.857 92.5453 25.9363 92.074 25.9363 91.542C25.9363 91.01 25.857 90.5433 25.6983 90.142C25.549 89.7313 25.3157 89.414 24.9983 89.19C24.6903 88.9567 24.2983 88.84 23.8223 88.84C23.337 88.84 22.9357 88.9567 22.6183 89.19C22.301 89.414 22.063 89.7313 21.9043 90.142C21.7457 90.5433 21.6663 91.01 21.6663 91.542ZM31.3773 95.168C30.7613 95.168 30.2246 95.0093 29.7673 94.692C29.31 94.3747 28.9506 93.9453 28.6893 93.404C28.4373 92.8533 28.3113 92.228 28.3113 91.528C28.3113 90.828 28.4373 90.2073 28.6893 89.666C28.9506 89.1153 29.31 88.686 29.7673 88.378C30.2246 88.07 30.7613 87.916 31.3773 87.916C31.9466 87.916 32.4366 88.0513 32.8473 88.322C33.258 88.5927 33.552 88.938 33.7293 89.358H33.8133V84.85H34.9333V95H33.8693V93.586H33.7853C33.6266 94.062 33.328 94.4447 32.8893 94.734C32.4506 95.0233 31.9466 95.168 31.3773 95.168ZM31.6573 94.16C32.0586 94.16 32.418 94.0667 32.7353 93.88C33.062 93.684 33.3233 93.39 33.5193 92.998C33.7153 92.606 33.8133 92.1207 33.8133 91.542C33.8133 90.954 33.7153 90.4687 33.5193 90.086C33.3233 89.694 33.062 89.4047 32.7353 89.218C32.418 89.022 32.0586 88.924 31.6573 88.924C31.2466 88.924 30.8733 89.022 30.5373 89.218C30.2106 89.4047 29.9493 89.694 29.7533 90.086C29.5573 90.4687 29.4593 90.954 29.4593 91.542C29.4593 92.1207 29.5573 92.606 29.7533 92.998C29.9493 93.39 30.2106 93.684 30.5373 93.88C30.8733 94.0667 31.2466 94.16 31.6573 94.16ZM37.7412 97.646C37.6479 97.646 37.5452 97.6367 37.4332 97.618C37.3212 97.6087 37.2279 97.5947 37.1532 97.576V96.61C37.1999 96.6193 37.2745 96.6287 37.3772 96.638C37.4892 96.6473 37.5919 96.652 37.6852 96.652C37.9372 96.652 38.1425 96.6193 38.3012 96.554C38.4599 96.498 38.6045 96.3673 38.7352 96.162C38.8659 95.9567 39.0105 95.644 39.1692 95.224L36.3972 88.084H37.6152L39.7012 93.88H39.7852L41.8852 88.084H43.0192L40.3032 95.07C40.0699 95.6767 39.8412 96.1667 39.6172 96.54C39.3932 96.9227 39.1365 97.2027 38.8472 97.38C38.5579 97.5573 38.1892 97.646 37.7412 97.646Z" fill="white" fill-opacity="0.9"/>
<path d="M326.834 84.0063L322 88.8407L317.166 84.0063L316.006 85.1657L320.841 90.0001L316.006 94.8345L317.166 95.9939L322 91.1595L326.834 95.9939L327.994 94.8345L323.159 90.0001L327.994 85.1657L326.834 84.0063Z" fill="white" fill-opacity="0.9"/>
</g>
<g clip-path="url(#clip1_9315_6936)">
<path d="M0 28C0 12.536 12.536 0 28 0H312C327.464 0 340 12.536 340 28C340 43.464 327.464 56 312 56H28C12.536 56 0 43.464 0 28Z" fill="#F36805"/>
<path d="M0 28C0 12.536 12.536 0 28 0H312C327.464 0 340 12.536 340 28C340 43.464 327.464 56 312 56H28C12.536 56 0 43.464 0 28Z" fill="black" fill-opacity="0.04"/>
<path d="M139.911 35V22H145.571C146.424 22 147.138 22.16 147.711 22.48C148.284 22.7867 148.718 23.2133 149.011 23.76C149.304 24.3067 149.451 24.9333 149.451 25.64C149.451 25.9733 149.358 26.32 149.171 26.68C148.998 27.0267 148.751 27.34 148.431 27.62C148.124 27.9 147.758 28.1133 147.331 28.26V28.38C147.758 28.42 148.171 28.58 148.571 28.86C148.984 29.14 149.324 29.4933 149.591 29.92C149.871 30.3333 150.011 30.7733 150.011 31.24C150.011 31.9733 149.851 32.6267 149.531 33.2C149.211 33.76 148.718 34.2 148.051 34.52C147.384 34.84 146.531 35 145.491 35H139.911ZM143.291 27.26H144.911C145.151 27.26 145.358 27.2067 145.531 27.1C145.704 26.98 145.838 26.82 145.931 26.62C146.024 26.4067 146.071 26.16 146.071 25.88C146.071 25.4667 145.964 25.1333 145.751 24.88C145.538 24.6267 145.258 24.5 144.911 24.5H143.291V27.26ZM143.291 32.5H145.191C145.498 32.5 145.758 32.4467 145.971 32.34C146.184 32.22 146.344 32.0533 146.451 31.84C146.571 31.6133 146.631 31.3333 146.631 31C146.631 30.52 146.504 30.1533 146.251 29.9C145.998 29.6467 145.644 29.52 145.191 29.52H143.291V32.5ZM154.925 35.24C154.072 35.24 153.399 35.08 152.905 34.76C152.412 34.44 152.059 33.98 151.845 33.38C151.645 32.7667 151.545 32.02 151.545 31.14V25.12H154.725V30.5C154.725 30.9133 154.765 31.2733 154.845 31.58C154.939 31.8867 155.085 32.1267 155.285 32.3C155.499 32.46 155.792 32.54 156.165 32.54C156.699 32.54 157.079 32.3667 157.305 32.02C157.545 31.66 157.665 31.1533 157.665 30.5V25.12H160.845V35H157.865V33.36H157.745C157.545 33.8933 157.192 34.34 156.685 34.7C156.179 35.06 155.592 35.24 154.925 35.24ZM167.314 35.22C166.487 35.22 165.814 35.08 165.294 34.8C164.774 34.52 164.387 34.0933 164.134 33.52C163.894 32.9333 163.774 32.1867 163.774 31.28V27.66H162.354V25.12H163.774V22.44H166.914V25.12H169.834V27.66H166.914V31.34C166.914 31.78 166.987 32.1 167.134 32.3C167.294 32.5 167.554 32.6 167.914 32.6C168.154 32.6 168.387 32.5533 168.614 32.46C168.841 32.3533 169.021 32.2267 169.154 32.08L170.174 34.24C169.841 34.5733 169.441 34.82 168.974 34.98C168.507 35.14 167.954 35.22 167.314 35.22ZM175.38 35.22C174.554 35.22 173.88 35.08 173.36 34.8C172.84 34.52 172.454 34.0933 172.2 33.52C171.96 32.9333 171.84 32.1867 171.84 31.28V27.66H170.42V25.12H171.84V22.44H174.98V25.12H177.9V27.66H174.98V31.34C174.98 31.78 175.054 32.1 175.2 32.3C175.36 32.5 175.62 32.6 175.98 32.6C176.22 32.6 176.454 32.5533 176.68 32.46C176.907 32.3533 177.087 32.2267 177.22 32.08L178.24 34.24C177.907 34.5733 177.507 34.82 177.04 34.98C176.574 35.14 176.02 35.22 175.38 35.22ZM184.175 35.24C183.042 35.24 182.088 35.0067 181.315 34.54C180.555 34.06 179.982 33.4267 179.595 32.64C179.208 31.8533 179.015 30.9933 179.015 30.06C179.015 29.3533 179.122 28.6867 179.335 28.06C179.562 27.4333 179.888 26.8867 180.315 26.42C180.742 25.94 181.275 25.5667 181.915 25.3C182.568 25.02 183.322 24.88 184.175 24.88C185.308 24.88 186.255 25.12 187.015 25.6C187.775 26.0667 188.348 26.6933 188.735 27.48C189.122 28.2533 189.315 29.1133 189.315 30.06C189.315 30.7667 189.208 31.4333 188.995 32.06C188.782 32.6867 188.455 33.24 188.015 33.72C187.588 34.1867 187.055 34.56 186.415 34.84C185.775 35.1067 185.028 35.24 184.175 35.24ZM182.255 30.06C182.255 30.62 182.335 31.1 182.495 31.5C182.668 31.8867 182.895 32.1867 183.175 32.4C183.468 32.6 183.802 32.7 184.175 32.7C184.548 32.7 184.875 32.6 185.155 32.4C185.435 32.1867 185.655 31.8867 185.815 31.5C185.988 31.1 186.075 30.62 186.075 30.06C186.075 29.4867 185.988 29.0067 185.815 28.62C185.655 28.2333 185.435 27.94 185.155 27.74C184.875 27.5267 184.548 27.42 184.175 27.42C183.802 27.42 183.468 27.5267 183.175 27.74C182.895 27.94 182.668 28.2333 182.495 28.62C182.335 29.0067 182.255 29.4867 182.255 30.06ZM190.865 35V25.12H193.845V26.76H193.965C194.098 26.4 194.305 26.08 194.585 25.8C194.878 25.5067 195.218 25.28 195.605 25.12C196.005 24.96 196.425 24.88 196.865 24.88C198.185 24.88 199.091 25.2333 199.585 25.94C200.078 26.6467 200.325 27.66 200.325 28.98V35H197.145V29.62C197.145 28.9933 197.038 28.5 196.825 28.14C196.611 27.7667 196.211 27.58 195.625 27.58C195.065 27.58 194.658 27.7533 194.405 28.1C194.165 28.4467 194.045 28.9533 194.045 29.62V35H190.865Z" fill="white"/>
</g>
<defs>
<clipPath id="clip0_9315_6936">
<rect width="340" height="44" fill="white" transform="translate(0 64)"/>
</clipPath>
<clipPath id="clip1_9315_6936">
<path d="M0 28C0 12.536 12.536 0 28 0H312C327.464 0 340 12.536 340 28C340 43.464 327.464 56 312 56H28C12.536 56 0 43.464 0 28Z" fill="white"/>
</clipPath>
</defs>
</svg>
