<svg width="32" height="32" viewBox="0 0 32 32" fill="none" xmlns="http://www.w3.org/2000/svg">
<path d="M11.5 29C13.984 29 16 27.0587 16 24.6667V20.3333H11.5C9.016 20.3333 7 22.2747 7 24.6667C7 27.0587 9.016 29 11.5 29Z" fill="#0ACF83"/>
<path d="M7 16C7 13.608 9.016 11.6667 11.5 11.6667H16V20.3333H11.5C9.016 20.3333 7 18.392 7 16Z" fill="#A259FF"/>
<path d="M7 7.33333C7 4.94133 9.016 3 11.5 3H16V11.6667H11.5C9.016 11.6667 7 9.72533 7 7.33333Z" fill="#F24E1E"/>
<path d="M16 3H20.5C22.984 3 25 4.94133 25 7.33333C25 9.72533 22.984 11.6667 20.5 11.6667H16V3Z" fill="#FF7262"/>
<path d="M25 16C25 18.392 22.984 20.3333 20.5 20.3333C18.016 20.3333 16 18.392 16 16C16 13.608 18.016 11.6667 20.5 11.6667C22.984 11.6667 25 13.608 25 16Z" fill="#1ABCFE"/>
</svg>
