<svg width="1034" height="402" viewBox="0 0 1034 402" fill="none" xmlns="http://www.w3.org/2000/svg">
<rect x="0.5" y="0.5" width="1033" height="401" rx="16.5" fill="#C1DADE" stroke="#DBD9D7"/>
<mask id="mask0_14465_4978" style="mask-type:alpha" maskUnits="userSpaceOnUse" x="1" y="1" width="1032" height="400">
<rect x="1" y="1" width="1032" height="400" rx="16" fill="#F6C243"/>
</mask>
<g mask="url(#mask0_14465_4978)">
<g filter="url(#filter0_f_14465_4978)">
<path d="M156 -112C156 -120.837 163.163 -128 172 -128H878V281C878 294.255 867.255 305 854 305H156V-112Z" fill="#577F85"/>
</g>
<path d="M172 -131H874V281C874 292.046 865.046 301 854 301H180C168.954 301 160 292.046 160 281V-119C160 -125.627 165.373 -131 172 -131Z" fill="white" stroke="#AACBD0" stroke-width="8"/>
<g clip-path="url(#clip0_14465_4978)">
<g clip-path="url(#clip1_14465_4978)">
<path d="M251.191 32.8413L248.513 30.5576C247.895 30.0078 247.096 29.7062 246.269 29.711H229.79C228.968 29.7115 228.172 30.0046 227.546 30.5379L224.849 32.8413C224.202 33.374 223.679 34.0407 223.315 34.7952C222.952 35.5498 222.756 36.3744 222.742 37.2119C222.75 38.017 222.929 38.8112 223.269 39.5412C223.609 40.2712 224.1 40.9202 224.711 41.4447V56.2891H251.289V41.4447C251.899 40.9194 252.39 40.2702 252.729 39.5404C253.069 38.8105 253.249 38.0168 253.258 37.2119C253.241 36.3788 253.048 35.5587 252.692 34.8054C252.336 34.0521 251.824 33.3828 251.191 32.8413ZM239.831 53.336H236.169V50.5994C236.169 50.1138 236.362 49.6481 236.705 49.3048C237.049 48.9614 237.514 48.7685 238 48.7685C238.486 48.7685 238.951 48.9614 239.295 49.3048C239.638 49.6481 239.831 50.1138 239.831 50.5994V53.336ZM248.336 53.336H242.784V50.5994C242.784 49.3306 242.28 48.1138 241.383 47.2166C240.486 46.3194 239.269 45.8154 238 45.8154C236.731 45.8154 235.514 46.3194 234.617 47.2166C233.72 48.1138 233.216 49.3306 233.216 50.5994V53.336H227.664V43.0001C228.691 43.2162 229.752 43.2029 230.773 42.9613C231.794 42.7197 232.749 42.2556 233.57 41.6022C234.818 42.5957 236.366 43.1366 237.961 43.1366C239.556 43.1366 241.103 42.5957 242.351 41.6022C243.172 42.2556 244.127 42.7197 245.148 42.9613C246.169 43.2029 247.231 43.2162 248.257 43.0001H248.356L248.336 53.336ZM247.667 40.0863C246.923 40.2577 246.146 40.2093 245.429 39.9472C244.713 39.6851 244.088 39.2204 243.631 38.6097H241.15C240.794 39.1084 240.32 39.5112 239.77 39.7826C239.221 40.0539 238.613 40.1853 238 40.1651C237.387 40.1853 236.779 40.0539 236.23 39.7826C235.68 39.5112 235.206 39.1084 234.85 38.6097H232.369C231.92 39.2028 231.311 39.6564 230.614 39.9177C229.917 40.179 229.161 40.2375 228.432 40.0863C227.712 40.0009 227.045 39.667 226.546 39.1422C226.046 38.6175 225.745 37.9348 225.695 37.2119C225.711 36.8079 225.814 36.4121 225.998 36.0518C226.181 35.6915 226.441 35.3753 226.758 35.1251L229.475 32.7822C229.561 32.7039 229.674 32.6616 229.79 32.6641H246.269C246.385 32.6616 246.498 32.7039 246.584 32.7822L249.261 35.1251C249.578 35.3833 249.836 35.707 250.016 36.074C250.196 36.441 250.294 36.8426 250.305 37.2513C250.25 37.9525 249.96 38.6145 249.481 39.1294C249.001 39.6443 248.362 39.9816 247.667 40.0863Z" fill="#3C4C4F"/>
</g>
<path d="M238 59.5L238 140.5" stroke="#DBD9D7" stroke-width="3" stroke-dasharray="4.5 4.5"/>
<path d="M238 150.543C238.498 150.543 238.985 150.69 239.4 150.967C239.814 151.244 240.137 151.638 240.328 152.098C240.519 152.559 240.569 153.065 240.471 153.554C240.374 154.043 240.134 154.492 239.782 154.844C239.429 155.197 238.98 155.437 238.491 155.534C238.003 155.631 237.496 155.581 237.035 155.391C236.575 155.2 236.181 154.877 235.904 154.463C235.628 154.048 235.48 153.561 235.48 153.063C235.48 152.394 235.745 151.753 236.218 151.281C236.69 150.808 237.331 150.543 238 150.543ZM238 147.589C236.917 147.589 235.859 147.91 234.959 148.512C234.059 149.113 233.357 149.968 232.943 150.968C232.529 151.968 232.421 153.069 232.632 154.13C232.843 155.192 233.364 156.167 234.13 156.933C234.895 157.698 235.87 158.219 236.932 158.43C237.994 158.642 239.094 158.533 240.094 158.119C241.094 157.705 241.949 157.003 242.55 156.103C243.152 155.203 243.473 154.145 243.473 153.063C243.468 151.613 242.889 150.223 241.864 149.198C240.839 148.173 239.45 147.595 238 147.589Z" fill="#3C4C4F"/>
<path d="M238 142.234C235.166 142.235 232.391 143.052 230.008 144.587C227.625 146.121 225.735 148.31 224.562 150.89C223.389 153.47 222.983 156.334 223.394 159.138C223.804 161.943 225.013 164.57 226.877 166.706C227.547 167.431 228.286 168.09 229.082 168.675C231.644 170.629 234.777 171.687 238 171.687C241.223 171.687 244.356 170.629 246.918 168.675C247.714 168.09 248.453 167.431 249.123 166.706C250.987 164.57 252.196 161.943 252.606 159.138C253.016 156.334 252.611 153.47 251.438 150.89C250.265 148.31 248.374 146.121 245.992 144.587C243.609 143.052 240.834 142.235 238 142.234ZM244.93 166.548C242.922 167.991 240.512 168.766 238.039 168.766C235.567 168.766 233.157 167.991 231.149 166.548C230.755 166.253 230.361 165.938 229.987 165.603C230.331 165.216 230.721 164.873 231.149 164.58C232.26 163.851 233.561 163.468 234.889 163.477H241.189C242.518 163.468 243.819 163.851 244.93 164.58C245.357 164.873 245.747 165.216 246.092 165.603C245.717 165.938 245.324 166.253 244.93 166.548ZM247.942 163.32C247.679 163.044 247.396 162.787 247.096 162.552C245.403 161.253 243.323 160.56 241.189 160.583H234.811C232.677 160.56 230.597 161.253 228.904 162.552C228.604 162.787 228.321 163.044 228.058 163.32C226.913 161.535 226.269 159.475 226.195 157.356C226.12 155.237 226.618 153.137 227.635 151.276C228.651 149.415 230.151 147.863 231.974 146.781C233.798 145.699 235.88 145.128 238 145.128C240.12 145.128 242.202 145.699 244.026 146.781C245.849 147.863 247.348 149.415 248.365 151.276C249.382 153.137 249.88 155.237 249.805 157.356C249.731 159.475 249.087 161.535 247.942 163.32Z" fill="#3C4C4F"/>
<path d="M281.44 35.4H288.256C289.04 35.4 289.752 35.528 290.392 35.784C291.048 36.024 291.608 36.376 292.072 36.84C292.536 37.304 292.896 37.864 293.152 38.52C293.424 39.16 293.56 39.888 293.56 40.704C293.56 41.52 293.424 42.256 293.152 42.912C292.896 43.552 292.536 44.104 292.072 44.568C291.608 45.032 291.048 45.392 290.392 45.648C289.752 45.888 289.04 46.008 288.256 46.008H285.496V51H281.44V35.4ZM287.704 42.96C288.264 42.96 288.704 42.752 289.024 42.336C289.344 41.904 289.504 41.36 289.504 40.704C289.504 40.032 289.344 39.488 289.024 39.072C288.704 38.656 288.264 38.448 287.704 38.448H285.496V42.96H287.704ZM299.672 35.736C299.672 36.28 299.488 36.768 299.12 37.2C298.752 37.616 298.216 37.824 297.512 37.824C296.792 37.824 296.256 37.616 295.904 37.2C295.552 36.768 295.376 36.28 295.376 35.736C295.376 35.192 295.552 34.712 295.904 34.296C296.256 33.864 296.792 33.648 297.512 33.648C298.216 33.648 298.752 33.864 299.12 34.296C299.488 34.712 299.672 35.192 299.672 35.736ZM295.592 39.144H299.408V51H295.592V39.144ZM307.248 51.288C306.208 51.288 305.312 51.12 304.56 50.784C303.824 50.432 303.208 49.976 302.712 49.416C302.232 48.84 301.872 48.176 301.632 47.424C301.408 46.672 301.296 45.888 301.296 45.072C301.296 44.256 301.408 43.472 301.632 42.72C301.856 41.968 302.208 41.312 302.688 40.752C303.168 40.176 303.776 39.72 304.512 39.384C305.248 39.032 306.128 38.856 307.152 38.856C308.112 38.856 308.96 39.04 309.696 39.408C310.432 39.776 311.024 40.224 311.472 40.752L308.904 43.08C308.696 42.808 308.456 42.6 308.184 42.456C307.912 42.296 307.584 42.216 307.2 42.216C306.528 42.216 306.024 42.464 305.688 42.96C305.352 43.456 305.184 44.16 305.184 45.072C305.184 45.984 305.36 46.688 305.712 47.184C306.064 47.68 306.576 47.928 307.248 47.928C307.616 47.928 307.952 47.848 308.256 47.688C308.576 47.528 308.824 47.312 309 47.04L311.568 49.368C311.136 49.896 310.544 50.352 309.792 50.736C309.056 51.104 308.208 51.288 307.248 51.288ZM316.986 51H313.17V33.6H316.986V44.064H317.13L320.922 39.144H325.122L320.778 44.28L325.362 51H320.85L318.138 46.656L316.986 48.072V51ZM330.629 51.288C329.861 51.288 329.213 51.184 328.685 50.976C328.173 50.752 327.757 50.432 327.437 50.016C327.133 49.6 326.909 49.088 326.765 48.48C326.637 47.872 326.573 47.168 326.573 46.368V39.144H330.389V45.6C330.389 46.368 330.509 46.968 330.749 47.4C330.989 47.832 331.445 48.048 332.117 48.048C332.757 48.048 333.213 47.84 333.485 47.424C333.773 47.008 333.917 46.4 333.917 45.6V39.144H337.733V51H334.157V49.032H334.013C333.773 49.688 333.349 50.232 332.741 50.664C332.133 51.08 331.429 51.288 330.629 51.288ZM340.288 39.144H343.912V41.256H344.056C344.36 40.488 344.824 39.896 345.448 39.48C346.072 39.064 346.832 38.856 347.728 38.856C348.432 38.856 349.088 39.008 349.696 39.312C350.32 39.6 350.856 40.008 351.304 40.536C351.768 41.064 352.128 41.704 352.384 42.456C352.64 43.208 352.768 44.04 352.768 44.952C352.768 45.896 352.64 46.76 352.384 47.544C352.128 48.312 351.768 48.976 351.304 49.536C350.856 50.096 350.32 50.528 349.696 50.832C349.088 51.136 348.432 51.288 347.728 51.288C346.832 51.288 346.088 51.088 345.496 50.688C344.92 50.272 344.504 49.728 344.248 49.056H344.104V55.44H340.288V39.144ZM346.48 48C347.248 48 347.832 47.72 348.232 47.16C348.648 46.584 348.856 45.888 348.856 45.072C348.856 44.256 348.648 43.568 348.232 43.008C347.832 42.432 347.248 42.144 346.48 42.144C345.696 42.144 345.104 42.432 344.704 43.008C344.304 43.568 344.104 44.256 344.104 45.072C344.104 45.888 344.304 46.584 344.704 47.16C345.104 47.72 345.696 48 346.48 48ZM357.271 43.44C356.887 43.44 356.543 43.376 356.239 43.248C355.951 43.12 355.703 42.952 355.495 42.744C355.303 42.52 355.159 42.272 355.063 42C354.967 41.728 354.919 41.44 354.919 41.136C354.919 40.848 354.967 40.568 355.063 40.296C355.159 40.008 355.303 39.76 355.495 39.552C355.703 39.344 355.951 39.176 356.239 39.048C356.543 38.92 356.887 38.856 357.271 38.856C358.039 38.856 358.623 39.088 359.023 39.552C359.423 40.016 359.623 40.544 359.623 41.136C359.623 41.44 359.567 41.728 359.455 42C359.359 42.272 359.215 42.52 359.023 42.744C358.831 42.952 358.583 43.12 358.279 43.248C357.991 43.376 357.655 43.44 357.271 43.44ZM357.271 51.288C356.887 51.288 356.543 51.224 356.239 51.096C355.951 50.968 355.703 50.8 355.495 50.592C355.303 50.368 355.159 50.12 355.063 49.848C354.967 49.576 354.919 49.288 354.919 48.984C354.919 48.696 354.967 48.416 355.063 48.144C355.159 47.856 355.303 47.608 355.495 47.4C355.703 47.192 355.951 47.024 356.239 46.896C356.543 46.768 356.887 46.704 357.271 46.704C358.039 46.704 358.623 46.936 359.023 47.4C359.423 47.864 359.623 48.392 359.623 48.984C359.623 49.288 359.567 49.576 359.455 49.848C359.359 50.12 359.215 50.368 359.023 50.592C358.831 50.8 358.583 50.968 358.279 51.096C357.991 51.224 357.655 51.288 357.271 51.288ZM371.634 38.64H367.362V35.4H379.962V38.64H375.69V51H371.634V38.64ZM381.655 33.6H385.471V40.68H385.591C385.895 40.136 386.335 39.696 386.911 39.36C387.487 39.024 388.135 38.856 388.855 38.856C389.639 38.856 390.295 38.968 390.823 39.192C391.367 39.4 391.799 39.712 392.119 40.128C392.439 40.544 392.663 41.064 392.791 41.688C392.935 42.296 393.007 42.992 393.007 43.776V51H389.191V44.544C389.191 43.792 389.063 43.2 388.807 42.768C388.551 42.32 388.071 42.096 387.367 42.096C386.695 42.096 386.207 42.304 385.903 42.72C385.615 43.136 385.471 43.744 385.471 44.544V51H381.655V33.6ZM400.908 51.288C399.82 51.288 398.884 51.112 398.1 50.76C397.332 50.408 396.7 49.944 396.204 49.368C395.708 48.792 395.34 48.136 395.1 47.4C394.86 46.648 394.74 45.872 394.74 45.072C394.74 44.288 394.844 43.52 395.052 42.768C395.276 42.016 395.62 41.352 396.084 40.776C396.564 40.2 397.18 39.736 397.932 39.384C398.684 39.032 399.604 38.856 400.692 38.856C401.78 38.856 402.7 39.032 403.452 39.384C404.204 39.72 404.804 40.176 405.252 40.752C405.716 41.312 406.044 41.96 406.236 42.696C406.444 43.432 406.548 44.192 406.548 44.976C406.548 45.152 406.532 45.384 406.5 45.672C406.468 45.944 406.428 46.152 406.38 46.296H398.604C398.668 46.648 398.788 46.944 398.964 47.184C399.156 47.424 399.372 47.616 399.612 47.76C399.852 47.904 400.1 48.008 400.356 48.072C400.628 48.136 400.884 48.168 401.124 48.168C401.684 48.168 402.164 48.08 402.564 47.904C402.98 47.728 403.3 47.496 403.524 47.208L405.612 49.392C405.228 49.952 404.62 50.408 403.788 50.76C402.956 51.112 401.996 51.288 400.908 51.288ZM400.692 41.688C400.18 41.688 399.724 41.848 399.324 42.168C398.924 42.472 398.66 43.008 398.532 43.776H402.804C402.692 43.008 402.436 42.472 402.036 42.168C401.636 41.848 401.188 41.688 400.692 41.688ZM414.331 35.4H421.147C421.931 35.4 422.643 35.528 423.283 35.784C423.939 36.024 424.499 36.376 424.963 36.84C425.427 37.304 425.787 37.864 426.043 38.52C426.315 39.16 426.451 39.888 426.451 40.704C426.451 41.52 426.315 42.256 426.043 42.912C425.787 43.552 425.427 44.104 424.963 44.568C424.499 45.032 423.939 45.392 423.283 45.648C422.643 45.888 421.931 46.008 421.147 46.008H418.387V51H414.331V35.4ZM420.595 42.96C421.155 42.96 421.595 42.752 421.915 42.336C422.235 41.904 422.395 41.36 422.395 40.704C422.395 40.032 422.235 39.488 421.915 39.072C421.595 38.656 421.155 38.448 420.595 38.448H418.387V42.96H420.595ZM432.563 35.736C432.563 36.28 432.379 36.768 432.011 37.2C431.643 37.616 431.107 37.824 430.403 37.824C429.683 37.824 429.147 37.616 428.795 37.2C428.443 36.768 428.267 36.28 428.267 35.736C428.267 35.192 428.443 34.712 428.795 34.296C429.147 33.864 429.683 33.648 430.403 33.648C431.107 33.648 431.643 33.864 432.011 34.296C432.379 34.712 432.563 35.192 432.563 35.736ZM428.483 39.144H432.299V51H428.483V39.144ZM434.235 48.624L439.419 42.192H434.427V39.144H444.651V41.52L439.467 47.952H444.843V51H434.235V48.624ZM446.188 48.624L451.372 42.192H446.38V39.144H456.604V41.52L451.42 47.952H456.796V51H446.188V48.624ZM462.167 51.288C461.639 51.288 461.127 51.208 460.631 51.048C460.151 50.888 459.727 50.656 459.359 50.352C459.007 50.032 458.719 49.648 458.495 49.2C458.287 48.752 458.183 48.24 458.183 47.664C458.183 46.576 458.567 45.72 459.335 45.096C460.119 44.472 461.343 44.112 463.007 44.016L465.527 43.872V43.68C465.527 43.344 465.455 43.072 465.311 42.864C465.183 42.656 465.007 42.496 464.783 42.384C464.575 42.256 464.327 42.168 464.039 42.12C463.767 42.072 463.487 42.048 463.199 42.048C462.751 42.048 462.295 42.128 461.831 42.288C461.367 42.448 461.023 42.672 460.799 42.96L458.711 40.8C459.143 40.256 459.775 39.8 460.607 39.432C461.439 39.048 462.527 38.856 463.871 38.856C465.583 38.856 466.919 39.248 467.879 40.032C468.855 40.816 469.343 41.944 469.343 43.416V51H465.767V49.176H465.623C465.319 49.8 464.879 50.312 464.303 50.712C463.743 51.096 463.031 51.288 462.167 51.288ZM463.463 48.696C464.071 48.696 464.567 48.536 464.951 48.216C465.335 47.88 465.527 47.376 465.527 46.704V46.08L463.535 46.224C463.023 46.256 462.639 46.384 462.383 46.608C462.143 46.832 462.023 47.128 462.023 47.496C462.023 47.912 462.159 48.216 462.431 48.408C462.719 48.6 463.063 48.696 463.463 48.696ZM477.659 35.4H484.475C485.259 35.4 485.971 35.528 486.611 35.784C487.267 36.024 487.827 36.376 488.291 36.84C488.755 37.304 489.115 37.864 489.371 38.52C489.643 39.16 489.779 39.888 489.779 40.704C489.779 41.52 489.643 42.256 489.371 42.912C489.115 43.552 488.755 44.104 488.291 44.568C487.827 45.032 487.267 45.392 486.611 45.648C485.971 45.888 485.259 46.008 484.475 46.008H481.715V51H477.659V35.4ZM483.923 42.96C484.483 42.96 484.923 42.752 485.243 42.336C485.563 41.904 485.723 41.36 485.723 40.704C485.723 40.032 485.563 39.488 485.243 39.072C484.923 38.656 484.483 38.448 483.923 38.448H481.715V42.96H483.923ZM491.811 33.6H495.627V51H491.811V33.6ZM501.355 51.288C500.827 51.288 500.315 51.208 499.819 51.048C499.339 50.888 498.915 50.656 498.547 50.352C498.195 50.032 497.907 49.648 497.683 49.2C497.475 48.752 497.371 48.24 497.371 47.664C497.371 46.576 497.755 45.72 498.523 45.096C499.307 44.472 500.531 44.112 502.195 44.016L504.715 43.872V43.68C504.715 43.344 504.643 43.072 504.499 42.864C504.371 42.656 504.195 42.496 503.971 42.384C503.763 42.256 503.515 42.168 503.227 42.12C502.955 42.072 502.675 42.048 502.387 42.048C501.939 42.048 501.483 42.128 501.019 42.288C500.555 42.448 500.211 42.672 499.987 42.96L497.899 40.8C498.331 40.256 498.963 39.8 499.795 39.432C500.627 39.048 501.715 38.856 503.059 38.856C504.771 38.856 506.107 39.248 507.067 40.032C508.043 40.816 508.531 41.944 508.531 43.416V51H504.955V49.176H504.811C504.507 49.8 504.067 50.312 503.491 50.712C502.931 51.096 502.219 51.288 501.355 51.288ZM502.651 48.696C503.259 48.696 503.755 48.536 504.139 48.216C504.523 47.88 504.715 47.376 504.715 46.704V46.08L502.723 46.224C502.211 46.256 501.827 46.384 501.571 46.608C501.331 46.832 501.211 47.128 501.211 47.496C501.211 47.912 501.347 48.216 501.619 48.408C501.907 48.6 502.251 48.696 502.651 48.696ZM516.217 51.288C515.177 51.288 514.281 51.12 513.529 50.784C512.793 50.432 512.177 49.976 511.681 49.416C511.201 48.84 510.841 48.176 510.601 47.424C510.377 46.672 510.265 45.888 510.265 45.072C510.265 44.256 510.377 43.472 510.601 42.72C510.825 41.968 511.177 41.312 511.657 40.752C512.137 40.176 512.745 39.72 513.481 39.384C514.217 39.032 515.097 38.856 516.121 38.856C517.081 38.856 517.929 39.04 518.665 39.408C519.401 39.776 519.993 40.224 520.441 40.752L517.873 43.08C517.665 42.808 517.425 42.6 517.153 42.456C516.881 42.296 516.553 42.216 516.169 42.216C515.497 42.216 514.993 42.464 514.657 42.96C514.321 43.456 514.153 44.16 514.153 45.072C514.153 45.984 514.329 46.688 514.681 47.184C515.033 47.68 515.545 47.928 516.217 47.928C516.585 47.928 516.921 47.848 517.225 47.688C517.545 47.528 517.793 47.312 517.969 47.04L520.537 49.368C520.105 49.896 519.513 50.352 518.761 50.736C518.025 51.104 517.177 51.288 516.217 51.288ZM527.189 51.288C526.101 51.288 525.165 51.112 524.381 50.76C523.613 50.408 522.981 49.944 522.485 49.368C521.989 48.792 521.621 48.136 521.381 47.4C521.141 46.648 521.021 45.872 521.021 45.072C521.021 44.288 521.125 43.52 521.333 42.768C521.557 42.016 521.901 41.352 522.365 40.776C522.845 40.2 523.461 39.736 524.213 39.384C524.965 39.032 525.885 38.856 526.973 38.856C528.061 38.856 528.981 39.032 529.733 39.384C530.485 39.72 531.085 40.176 531.533 40.752C531.997 41.312 532.325 41.96 532.517 42.696C532.725 43.432 532.829 44.192 532.829 44.976C532.829 45.152 532.813 45.384 532.781 45.672C532.749 45.944 532.709 46.152 532.661 46.296H524.885C524.949 46.648 525.069 46.944 525.245 47.184C525.437 47.424 525.653 47.616 525.893 47.76C526.133 47.904 526.381 48.008 526.637 48.072C526.909 48.136 527.165 48.168 527.405 48.168C527.965 48.168 528.445 48.08 528.845 47.904C529.261 47.728 529.581 47.496 529.805 47.208L531.893 49.392C531.509 49.952 530.901 50.408 530.069 50.76C529.237 51.112 528.277 51.288 527.189 51.288ZM526.973 41.688C526.461 41.688 526.005 41.848 525.605 42.168C525.205 42.472 524.941 43.008 524.813 43.776H529.085C528.973 43.008 528.717 42.472 528.317 42.168C527.917 41.848 527.469 41.688 526.973 41.688Z" fill="#242E30"/>
<path d="M766 43C766 33.0589 774.059 25 784 25H796C805.941 25 814 33.0589 814 43C814 52.9411 805.941 61 796 61H784C774.059 61 766 52.9411 766 43Z" fill="#F2A6B0"/>
<g clip-path="url(#clip2_14465_4978)">
<path d="M786.719 44.6406H785.406C784.798 44.6372 784.216 44.3941 783.786 43.9641C783.356 43.5341 783.113 42.9519 783.109 42.3438V41.0312C783.113 40.4231 783.356 39.8409 783.786 39.4109C784.216 38.9809 784.798 38.7378 785.406 38.7344H786.719C787.327 38.7378 787.909 38.9809 788.339 39.4109C788.769 39.8409 789.012 40.4231 789.016 41.0312V42.3438C789.012 42.9519 788.769 43.5341 788.339 43.9641C787.909 44.3941 787.327 44.6372 786.719 44.6406ZM785.406 40.7031C785.319 40.7031 785.236 40.7377 785.174 40.7992C785.113 40.8608 785.078 40.9442 785.078 41.0312V42.3438C785.078 42.4308 785.113 42.5142 785.174 42.5758C785.236 42.6373 785.319 42.6719 785.406 42.6719H786.719C786.806 42.6719 786.889 42.6373 786.951 42.5758C787.012 42.5142 787.047 42.4308 787.047 42.3438V41.0312C787.047 40.9442 787.012 40.8608 786.951 40.7992C786.889 40.7377 786.806 40.7031 786.719 40.7031H785.406Z" fill="black" fill-opacity="0.76"/>
<path d="M797.875 35.4531H782.125C781.517 35.4566 780.935 35.6997 780.505 36.1297C780.075 36.5597 779.832 37.1419 779.828 37.75V48.25C779.832 48.8581 780.075 49.4403 780.505 49.8703C780.935 50.3003 781.517 50.5434 782.125 50.5469H797.875C798.483 50.5434 799.065 50.3003 799.495 49.8703C799.925 49.4403 800.168 48.8581 800.172 48.25V37.75C800.168 37.1419 799.925 36.5597 799.495 36.1297C799.065 35.6997 798.483 35.4566 797.875 35.4531ZM798.203 48.25C798.203 48.337 798.169 48.4205 798.107 48.482C798.045 48.5436 797.962 48.5781 797.875 48.5781H782.125C782.038 48.5781 781.955 48.5436 781.893 48.482C781.831 48.4205 781.797 48.337 781.797 48.25V37.75C781.797 37.663 781.831 37.5795 781.893 37.518C781.955 37.4564 782.038 37.4219 782.125 37.4219H797.875C797.962 37.4219 798.045 37.4564 798.107 37.518C798.169 37.5795 798.203 37.663 798.203 37.75V48.25Z" fill="black" fill-opacity="0.76"/>
<path d="M795.237 46.6094L796.221 44.6406H791.654V46.6094" fill="black" fill-opacity="0.76"/>
</g>
<path d="M282.28 85.32H286.744V73.56L282.472 75.528L281.848 74.184L287.104 71.4H288.784V85.32H292.792V87H282.28V85.32ZM296.743 84.408C296.743 83.768 296.855 83.208 297.079 82.728C297.303 82.232 297.607 81.784 297.991 81.384C298.391 80.968 298.855 80.584 299.383 80.232C299.927 79.88 300.511 79.52 301.135 79.152C301.631 78.848 302.071 78.568 302.455 78.312C302.839 78.04 303.159 77.76 303.415 77.472C303.671 77.184 303.863 76.88 303.991 76.56C304.119 76.24 304.183 75.872 304.183 75.456C304.183 74.608 303.911 73.968 303.367 73.536C302.839 73.088 302.159 72.864 301.327 72.864C300.495 72.864 299.775 73.032 299.167 73.368C298.559 73.688 298.047 74.12 297.631 74.664L296.527 73.512C297.007 72.792 297.639 72.216 298.423 71.784C299.207 71.336 300.151 71.112 301.255 71.112C302.071 71.112 302.791 71.224 303.415 71.448C304.039 71.656 304.559 71.952 304.975 72.336C305.407 72.704 305.727 73.152 305.935 73.68C306.159 74.192 306.271 74.752 306.271 75.36C306.271 76.048 306.151 76.656 305.911 77.184C305.671 77.712 305.351 78.192 304.951 78.624C304.551 79.056 304.087 79.448 303.559 79.8C303.047 80.136 302.503 80.464 301.927 80.784C301.415 81.072 300.959 81.344 300.559 81.6C300.159 81.856 299.823 82.128 299.551 82.416C299.295 82.704 299.095 83.024 298.951 83.376C298.823 83.728 298.759 84.144 298.759 84.624V85.272H306.655V87H296.743V84.408ZM315.405 87.288C314.253 87.288 313.285 87.08 312.501 86.664C311.733 86.248 311.109 85.728 310.629 85.104L311.853 83.904C312.221 84.368 312.677 84.752 313.221 85.056C313.781 85.36 314.485 85.512 315.333 85.512C316.357 85.512 317.165 85.272 317.757 84.792C318.349 84.296 318.645 83.568 318.645 82.608C318.645 81.68 318.341 81 317.733 80.568C317.125 80.136 316.349 79.92 315.405 79.92H313.965V78.192H315.333C316.277 78.192 316.973 77.944 317.421 77.448C317.885 76.952 318.117 76.304 318.117 75.504C318.117 75.04 318.037 74.648 317.877 74.328C317.733 73.992 317.525 73.72 317.253 73.512C316.997 73.288 316.693 73.128 316.341 73.032C316.005 72.936 315.653 72.888 315.285 72.888C314.549 72.888 313.909 73.032 313.365 73.32C312.821 73.608 312.365 73.968 311.997 74.4L310.893 73.2C311.357 72.624 311.957 72.136 312.693 71.736C313.445 71.32 314.349 71.112 315.405 71.112C316.045 71.112 316.653 71.208 317.229 71.4C317.821 71.576 318.333 71.84 318.765 72.192C319.213 72.528 319.565 72.96 319.821 73.488C320.077 74 320.205 74.592 320.205 75.264C320.205 76.16 319.973 76.92 319.509 77.544C319.045 78.152 318.381 78.608 317.517 78.912V79.056C317.949 79.136 318.357 79.28 318.741 79.488C319.141 79.68 319.485 79.936 319.773 80.256C320.077 80.56 320.309 80.928 320.469 81.36C320.645 81.792 320.733 82.272 320.733 82.8C320.733 83.488 320.605 84.112 320.349 84.672C320.109 85.216 319.757 85.688 319.293 86.088C318.829 86.472 318.269 86.768 317.613 86.976C316.957 87.184 316.221 87.288 315.405 87.288ZM331.146 71.4H333.186V78.192H340.842V71.4H342.882V87H340.842V79.92H333.186V87H331.146V71.4ZM351.758 87.288C350.91 87.288 350.134 87.144 349.43 86.856C348.742 86.568 348.15 86.16 347.654 85.632C347.174 85.088 346.798 84.432 346.526 83.664C346.27 82.896 346.142 82.032 346.142 81.072C346.142 80.064 346.278 79.176 346.55 78.408C346.822 77.624 347.198 76.976 347.678 76.464C348.158 75.936 348.726 75.536 349.382 75.264C350.054 74.992 350.79 74.856 351.59 74.856C352.39 74.856 353.126 74.984 353.798 75.24C354.47 75.496 355.046 75.88 355.526 76.392C356.006 76.888 356.382 77.52 356.654 78.288C356.926 79.04 357.062 79.92 357.062 80.928C357.062 81.056 357.054 81.184 357.038 81.312C357.038 81.44 357.03 81.544 357.014 81.624H348.062C348.062 82.184 348.158 82.712 348.35 83.208C348.558 83.688 348.83 84.112 349.166 84.48C349.518 84.832 349.918 85.112 350.366 85.32C350.83 85.528 351.326 85.632 351.854 85.632C352.718 85.632 353.422 85.464 353.966 85.128C354.526 84.792 354.99 84.384 355.358 83.904L356.51 85.08C355.998 85.752 355.358 86.288 354.59 86.688C353.838 87.088 352.894 87.288 351.758 87.288ZM351.59 76.44C351.03 76.44 350.534 76.544 350.102 76.752C349.67 76.96 349.31 77.232 349.022 77.568C348.734 77.904 348.51 78.288 348.35 78.72C348.206 79.152 348.126 79.584 348.11 80.016H355.046C355.03 79.584 354.942 79.152 354.782 78.72C354.638 78.288 354.422 77.904 354.134 77.568C353.846 77.232 353.486 76.96 353.054 76.752C352.638 76.544 352.15 76.44 351.59 76.44ZM362.389 72C362.389 72.336 362.269 72.624 362.029 72.864C361.805 73.104 361.501 73.224 361.117 73.224C360.717 73.224 360.405 73.104 360.181 72.864C359.957 72.624 359.845 72.336 359.845 72C359.845 71.68 359.957 71.4 360.181 71.16C360.405 70.904 360.717 70.776 361.117 70.776C361.501 70.776 361.805 70.904 362.029 71.16C362.269 71.4 362.389 71.68 362.389 72ZM360.157 75.144H362.077V87H360.157V75.144ZM366.157 75.144H367.981V77.064H368.125C368.381 76.44 368.749 75.92 369.229 75.504C369.709 75.072 370.309 74.856 371.029 74.856C371.637 74.856 372.173 74.976 372.637 75.216L371.989 76.944C371.781 76.832 371.557 76.76 371.317 76.728C371.093 76.68 370.861 76.656 370.621 76.656C369.837 76.656 369.213 76.976 368.749 77.616C368.301 78.24 368.077 79.04 368.077 80.016V87H366.157V75.144ZM375.11 69.6H377.03V87H375.11V69.6ZM385.79 87.288C384.846 87.288 384.014 87.128 383.294 86.808C382.59 86.472 381.998 86.024 381.518 85.464C381.054 84.904 380.702 84.248 380.462 83.496C380.238 82.744 380.126 81.936 380.126 81.072C380.126 80.208 380.238 79.4 380.462 78.648C380.702 77.896 381.054 77.24 381.518 76.68C381.998 76.12 382.59 75.68 383.294 75.36C384.014 75.024 384.846 74.856 385.79 74.856C386.734 74.856 387.55 75.024 388.238 75.36C388.942 75.68 389.526 76.12 389.99 76.68C390.454 77.24 390.798 77.896 391.022 78.648C391.262 79.4 391.382 80.208 391.382 81.072C391.382 81.936 391.262 82.744 391.022 83.496C390.798 84.248 390.454 84.904 389.99 85.464C389.526 86.024 388.942 86.472 388.238 86.808C387.55 87.128 386.734 87.288 385.79 87.288ZM382.094 81.072C382.094 81.76 382.166 82.392 382.31 82.968C382.47 83.528 382.702 84.016 383.006 84.432C383.31 84.832 383.694 85.144 384.158 85.368C384.622 85.592 385.166 85.704 385.79 85.704C386.398 85.704 386.926 85.592 387.374 85.368C387.838 85.144 388.214 84.832 388.502 84.432C388.806 84.016 389.03 83.528 389.174 82.968C389.334 82.392 389.414 81.76 389.414 81.072C389.414 80.384 389.334 79.76 389.174 79.2C389.03 78.624 388.806 78.136 388.502 77.736C388.214 77.32 387.838 77 387.374 76.776C386.926 76.552 386.398 76.44 385.79 76.44C385.166 76.44 384.622 76.552 384.158 76.776C383.694 77 383.31 77.32 383.006 77.736C382.702 78.136 382.47 78.624 382.31 79.2C382.166 79.76 382.094 80.384 382.094 81.072ZM399.15 87.288C398.206 87.288 397.374 87.128 396.654 86.808C395.95 86.472 395.358 86.024 394.878 85.464C394.414 84.904 394.062 84.248 393.822 83.496C393.598 82.744 393.486 81.936 393.486 81.072C393.486 80.208 393.598 79.4 393.822 78.648C394.062 77.896 394.414 77.24 394.878 76.68C395.358 76.12 395.95 75.68 396.654 75.36C397.374 75.024 398.206 74.856 399.15 74.856C400.094 74.856 400.91 75.024 401.598 75.36C402.302 75.68 402.886 76.12 403.35 76.68C403.814 77.24 404.158 77.896 404.382 78.648C404.622 79.4 404.742 80.208 404.742 81.072C404.742 81.936 404.622 82.744 404.382 83.496C404.158 84.248 403.814 84.904 403.35 85.464C402.886 86.024 402.302 86.472 401.598 86.808C400.91 87.128 400.094 87.288 399.15 87.288ZM395.454 81.072C395.454 81.76 395.526 82.392 395.67 82.968C395.83 83.528 396.062 84.016 396.366 84.432C396.67 84.832 397.054 85.144 397.518 85.368C397.982 85.592 398.526 85.704 399.15 85.704C399.758 85.704 400.286 85.592 400.734 85.368C401.198 85.144 401.574 84.832 401.862 84.432C402.166 84.016 402.39 83.528 402.534 82.968C402.694 82.392 402.774 81.76 402.774 81.072C402.774 80.384 402.694 79.76 402.534 79.2C402.39 78.624 402.166 78.136 401.862 77.736C401.574 77.32 401.198 77 400.734 76.776C400.286 76.552 399.758 76.44 399.15 76.44C398.526 76.44 397.982 76.552 397.518 76.776C397.054 77 396.67 77.32 396.366 77.736C396.062 78.136 395.83 78.624 395.67 79.2C395.526 79.76 395.454 80.384 395.454 81.072ZM407.829 75.144H409.653V77.016H409.797C410.085 76.392 410.485 75.88 410.997 75.48C411.525 75.064 412.181 74.856 412.965 74.856C413.909 74.856 414.701 75.032 415.341 75.384C415.997 75.72 416.485 76.232 416.805 76.92C417.157 76.248 417.629 75.736 418.221 75.384C418.813 75.032 419.565 74.856 420.477 74.856C421.133 74.856 421.725 74.944 422.253 75.12C422.781 75.296 423.229 75.568 423.597 75.936C423.981 76.304 424.269 76.776 424.461 77.352C424.669 77.928 424.773 78.616 424.773 79.416V87H422.853V79.776C422.853 78.56 422.613 77.704 422.133 77.208C421.669 76.696 420.981 76.44 420.069 76.44C419.189 76.44 418.501 76.752 418.005 77.376C417.509 78 417.261 78.912 417.261 80.112V87H415.341V79.776C415.341 78.56 415.101 77.704 414.621 77.208C414.157 76.696 413.469 76.44 412.557 76.44C411.693 76.44 411.005 76.752 410.493 77.376C409.997 78 409.749 78.912 409.749 80.112V87H407.829V75.144ZM434.575 71.4H439.663C441.935 71.4 443.679 72.088 444.895 73.464C446.111 74.84 446.719 76.76 446.719 79.224C446.719 80.424 446.559 81.504 446.239 82.464C445.919 83.424 445.447 84.24 444.823 84.912C444.215 85.584 443.463 86.104 442.567 86.472C441.687 86.824 440.687 87 439.567 87H434.575V71.4ZM439.807 85.272C440.543 85.272 441.207 85.136 441.799 84.864C442.391 84.576 442.895 84.176 443.311 83.664C443.743 83.136 444.071 82.504 444.295 81.768C444.519 81.016 444.631 80.168 444.631 79.224C444.631 77.288 444.207 75.792 443.359 74.736C442.527 73.664 441.359 73.128 439.855 73.128H436.615V85.272H439.807ZM450.017 75.144H451.841V77.064H451.985C452.241 76.44 452.609 75.92 453.089 75.504C453.569 75.072 454.169 74.856 454.889 74.856C455.497 74.856 456.033 74.976 456.497 75.216L455.849 76.944C455.641 76.832 455.417 76.76 455.177 76.728C454.953 76.68 454.721 76.656 454.481 76.656C453.697 76.656 453.073 76.976 452.609 77.616C452.161 78.24 451.937 79.04 451.937 80.016V87H450.017V75.144ZM458.289 84.456C458.737 84.456 459.089 84.616 459.345 84.936C459.601 85.256 459.729 85.64 459.729 86.088C459.729 86.856 459.497 87.576 459.033 88.248C458.569 88.92 457.945 89.56 457.161 90.168L456.417 89.376C456.737 89.072 457.025 88.736 457.281 88.368C457.537 88.016 457.737 87.608 457.881 87.144C457.561 87.064 457.305 86.904 457.113 86.664C456.937 86.424 456.849 86.144 456.849 85.824C456.849 85.456 456.977 85.136 457.233 84.864C457.489 84.592 457.841 84.456 458.289 84.456ZM481.455 87L478.167 73.536H478.023L474.759 87H472.191L467.823 71.4H469.959L473.415 84.72H473.559L476.799 71.4H479.487L482.727 84.792H482.871L486.327 71.4H488.391L484.023 87H481.455ZM493.428 72C493.428 72.336 493.308 72.624 493.068 72.864C492.844 73.104 492.54 73.224 492.156 73.224C491.756 73.224 491.444 73.104 491.22 72.864C490.996 72.624 490.884 72.336 490.884 72C490.884 71.68 490.996 71.4 491.22 71.16C491.444 70.904 491.756 70.776 492.156 70.776C492.54 70.776 492.844 70.904 493.068 71.16C493.308 71.4 493.428 71.68 493.428 72ZM491.196 75.144H493.116V87H491.196V75.144ZM497.196 75.144H499.02V77.016H499.164C499.452 76.392 499.86 75.88 500.388 75.48C500.916 75.064 501.588 74.856 502.404 74.856C503.764 74.856 504.836 75.216 505.62 75.936C506.42 76.656 506.82 77.816 506.82 79.416V87H504.9V79.776C504.9 78.56 504.652 77.704 504.156 77.208C503.676 76.696 502.964 76.44 502.02 76.44C501.108 76.44 500.396 76.752 499.884 77.376C499.372 78 499.116 78.912 499.116 80.112V87H497.196V75.144ZM510.673 75.144H512.497V77.016H512.641C512.929 76.392 513.337 75.88 513.865 75.48C514.393 75.064 515.065 74.856 515.881 74.856C517.241 74.856 518.313 75.216 519.097 75.936C519.897 76.656 520.297 77.816 520.297 79.416V87H518.377V79.776C518.377 78.56 518.129 77.704 517.633 77.208C517.153 76.696 516.441 76.44 515.497 76.44C514.585 76.44 513.873 76.752 513.361 77.376C512.849 78 512.593 78.912 512.593 80.112V87H510.673V75.144ZM526.381 72C526.381 72.336 526.261 72.624 526.021 72.864C525.797 73.104 525.493 73.224 525.109 73.224C524.709 73.224 524.397 73.104 524.173 72.864C523.949 72.624 523.837 72.336 523.837 72C523.837 71.68 523.949 71.4 524.173 71.16C524.397 70.904 524.709 70.776 525.109 70.776C525.493 70.776 525.797 70.904 526.021 71.16C526.261 71.4 526.381 71.68 526.381 72ZM524.149 75.144H526.069V87H524.149V75.144ZM530.149 75.144H531.973V77.568H532.117C532.261 77.168 532.461 76.8 532.717 76.464C532.989 76.128 533.301 75.84 533.653 75.6C534.021 75.36 534.421 75.176 534.853 75.048C535.301 74.92 535.765 74.856 536.245 74.856C537.029 74.856 537.741 75.016 538.381 75.336C539.037 75.64 539.597 76.072 540.061 76.632C540.525 77.176 540.877 77.832 541.117 78.6C541.373 79.368 541.501 80.2 541.501 81.096C541.501 81.992 541.373 82.824 541.117 83.592C540.877 84.344 540.525 85 540.061 85.56C539.597 86.104 539.037 86.528 538.381 86.832C537.741 87.136 537.029 87.288 536.245 87.288C535.269 87.288 534.429 87.056 533.725 86.592C533.021 86.128 532.517 85.536 532.213 84.816H532.069V91.44H530.149V75.144ZM535.765 85.56C536.293 85.56 536.781 85.472 537.229 85.296C537.693 85.104 538.093 84.824 538.429 84.456C538.781 84.072 539.053 83.6 539.245 83.04C539.437 82.48 539.533 81.824 539.533 81.072C539.533 80.32 539.437 79.664 539.245 79.104C539.053 78.544 538.781 78.08 538.429 77.712C538.093 77.328 537.693 77.048 537.229 76.872C536.781 76.68 536.293 76.584 535.765 76.584C535.253 76.584 534.773 76.68 534.325 76.872C533.877 77.048 533.485 77.328 533.149 77.712C532.813 78.08 532.549 78.544 532.357 79.104C532.165 79.664 532.069 80.32 532.069 81.072C532.069 81.824 532.165 82.48 532.357 83.04C532.549 83.6 532.813 84.072 533.149 84.456C533.485 84.824 533.877 85.104 534.325 85.296C534.773 85.472 535.253 85.56 535.765 85.56ZM549.219 87.288C548.371 87.288 547.595 87.144 546.891 86.856C546.203 86.568 545.611 86.16 545.115 85.632C544.635 85.088 544.259 84.432 543.987 83.664C543.731 82.896 543.603 82.032 543.603 81.072C543.603 80.064 543.739 79.176 544.011 78.408C544.283 77.624 544.659 76.976 545.139 76.464C545.619 75.936 546.187 75.536 546.843 75.264C547.515 74.992 548.251 74.856 549.051 74.856C549.851 74.856 550.587 74.984 551.259 75.24C551.931 75.496 552.507 75.88 552.987 76.392C553.467 76.888 553.843 77.52 554.115 78.288C554.387 79.04 554.523 79.92 554.523 80.928C554.523 81.056 554.515 81.184 554.499 81.312C554.499 81.44 554.491 81.544 554.475 81.624H545.523C545.523 82.184 545.619 82.712 545.811 83.208C546.019 83.688 546.291 84.112 546.627 84.48C546.979 84.832 547.379 85.112 547.827 85.32C548.291 85.528 548.787 85.632 549.315 85.632C550.179 85.632 550.883 85.464 551.427 85.128C551.987 84.792 552.451 84.384 552.819 83.904L553.971 85.08C553.459 85.752 552.819 86.288 552.051 86.688C551.299 87.088 550.355 87.288 549.219 87.288ZM549.051 76.44C548.491 76.44 547.995 76.544 547.563 76.752C547.131 76.96 546.771 77.232 546.483 77.568C546.195 77.904 545.971 78.288 545.811 78.72C545.667 79.152 545.587 79.584 545.571 80.016H552.507C552.491 79.584 552.403 79.152 552.243 78.72C552.099 78.288 551.883 77.904 551.595 77.568C551.307 77.232 550.947 76.96 550.515 76.752C550.099 76.544 549.611 76.44 549.051 76.44ZM562.346 91.728C561.322 91.728 560.434 91.544 559.682 91.176C558.93 90.824 558.33 90.384 557.882 89.856L559.154 88.632C559.49 89.048 559.922 89.376 560.45 89.616C560.994 89.872 561.594 90 562.25 90C563.274 90 564.074 89.752 564.65 89.256C565.242 88.76 565.538 87.888 565.538 86.64V84.336H565.394C565.266 84.736 565.082 85.096 564.842 85.416C564.602 85.72 564.314 85.984 563.978 86.208C563.658 86.416 563.298 86.584 562.898 86.712C562.514 86.824 562.122 86.88 561.722 86.88C560.97 86.88 560.282 86.744 559.658 86.472C559.05 86.2 558.514 85.808 558.05 85.296C557.602 84.768 557.25 84.128 556.994 83.376C556.754 82.624 556.634 81.776 556.634 80.832C556.634 79.904 556.754 79.072 556.994 78.336C557.25 77.6 557.602 76.976 558.05 76.464C558.514 75.952 559.05 75.56 559.658 75.288C560.282 75 560.97 74.856 561.722 74.856C562.602 74.856 563.386 75.088 564.074 75.552C564.778 76 565.25 76.624 565.49 77.424H565.634V75.144H567.458V86.88C567.458 88.336 567.018 89.504 566.138 90.384C565.274 91.28 564.01 91.728 562.346 91.728ZM562.106 85.152C563.162 85.152 563.994 84.784 564.602 84.048C565.226 83.312 565.538 82.248 565.538 80.856C565.538 79.448 565.226 78.384 564.602 77.664C563.994 76.944 563.162 76.584 562.106 76.584C561.034 76.584 560.178 76.944 559.538 77.664C558.914 78.384 558.602 79.448 558.602 80.856C558.602 82.248 558.914 83.312 559.538 84.048C560.178 84.784 561.034 85.152 562.106 85.152Z" fill="#3C4C4F"/>
<path d="M285.439 105.35H287.77L292.684 119H290.773L289.702 115.997H283.423L282.352 119H280.546L285.439 105.35ZM283.948 114.485H289.177L286.615 106.841H286.489L283.948 114.485ZM295.013 108.626H296.609V110.306H296.735C296.959 109.76 297.281 109.305 297.701 108.941C298.121 108.563 298.646 108.374 299.276 108.374C299.808 108.374 300.277 108.479 300.683 108.689L300.116 110.201C299.934 110.103 299.738 110.04 299.528 110.012C299.332 109.97 299.129 109.949 298.919 109.949C298.233 109.949 297.687 110.229 297.281 110.789C296.889 111.335 296.693 112.035 296.693 112.889V119H295.013V108.626ZM302.847 108.626H304.443V110.306H304.569C304.793 109.76 305.115 109.305 305.535 108.941C305.955 108.563 306.48 108.374 307.11 108.374C307.642 108.374 308.111 108.479 308.517 108.689L307.95 110.201C307.768 110.103 307.572 110.04 307.362 110.012C307.166 109.97 306.963 109.949 306.753 109.949C306.067 109.949 305.521 110.229 305.115 110.789C304.723 111.335 304.527 112.035 304.527 112.889V119H302.847V108.626ZM312.634 105.875C312.634 106.169 312.529 106.421 312.319 106.631C312.123 106.841 311.857 106.946 311.521 106.946C311.171 106.946 310.898 106.841 310.702 106.631C310.506 106.421 310.408 106.169 310.408 105.875C310.408 105.595 310.506 105.35 310.702 105.14C310.898 104.916 311.171 104.804 311.521 104.804C311.857 104.804 312.123 104.916 312.319 105.14C312.529 105.35 312.634 105.595 312.634 105.875ZM310.681 108.626H312.361V119H310.681V108.626ZM314.566 108.626H316.393L319.522 117.278H319.648L322.798 108.626H324.499L320.467 119H318.577L314.566 108.626ZM330.545 119.252C329.803 119.252 329.124 119.126 328.508 118.874C327.906 118.622 327.388 118.265 326.954 117.803C326.534 117.327 326.205 116.753 325.967 116.081C325.743 115.409 325.631 114.653 325.631 113.813C325.631 112.931 325.75 112.154 325.988 111.482C326.226 110.796 326.555 110.229 326.975 109.781C327.395 109.319 327.892 108.969 328.466 108.731C329.054 108.493 329.698 108.374 330.398 108.374C331.098 108.374 331.742 108.486 332.33 108.71C332.918 108.934 333.422 109.27 333.842 109.718C334.262 110.152 334.591 110.705 334.829 111.377C335.067 112.035 335.186 112.805 335.186 113.687C335.186 113.799 335.179 113.911 335.165 114.023C335.165 114.135 335.158 114.226 335.144 114.296H327.311C327.311 114.786 327.395 115.248 327.563 115.682C327.745 116.102 327.983 116.473 328.277 116.795C328.585 117.103 328.935 117.348 329.327 117.53C329.733 117.712 330.167 117.803 330.629 117.803C331.385 117.803 332.001 117.656 332.477 117.362C332.967 117.068 333.373 116.711 333.695 116.291L334.703 117.32C334.255 117.908 333.695 118.377 333.023 118.727C332.365 119.077 331.539 119.252 330.545 119.252ZM330.398 109.76C329.908 109.76 329.474 109.851 329.096 110.033C328.718 110.215 328.403 110.453 328.151 110.747C327.899 111.041 327.703 111.377 327.563 111.755C327.437 112.133 327.367 112.511 327.353 112.889H333.422C333.408 112.511 333.331 112.133 333.191 111.755C333.065 111.377 332.876 111.041 332.624 110.747C332.372 110.453 332.057 110.215 331.679 110.033C331.315 109.851 330.888 109.76 330.398 109.76ZM345.228 119.252C344.752 119.252 344.311 119.175 343.905 119.021C343.513 118.867 343.17 118.65 342.876 118.37C342.582 118.09 342.351 117.761 342.183 117.383C342.029 116.991 341.952 116.564 341.952 116.102C341.952 115.206 342.274 114.485 342.918 113.939C343.562 113.393 344.479 113.085 345.669 113.015L348.399 112.847V112.112C348.399 111.314 348.203 110.74 347.811 110.39C347.433 110.026 346.887 109.844 346.173 109.844C345.571 109.844 345.053 109.956 344.619 110.18C344.185 110.404 343.849 110.649 343.611 110.915L342.603 109.907C342.967 109.459 343.457 109.095 344.073 108.815C344.703 108.521 345.417 108.374 346.215 108.374C346.929 108.374 347.531 108.472 348.021 108.668C348.511 108.85 348.903 109.102 349.197 109.424C349.505 109.746 349.722 110.124 349.848 110.558C349.988 110.992 350.058 111.454 350.058 111.944V119H348.483V117.236H348.357C348.077 117.866 347.685 118.363 347.181 118.727C346.677 119.077 346.026 119.252 345.228 119.252ZM345.48 117.824C346.348 117.824 347.048 117.572 347.58 117.068C348.126 116.55 348.399 115.864 348.399 115.01V114.107L345.753 114.296C344.353 114.408 343.653 114.996 343.653 116.06C343.653 116.592 343.821 117.019 344.157 117.341C344.507 117.663 344.948 117.824 345.48 117.824ZM356.631 119.252C355.693 119.252 355.007 118.972 354.573 118.412C354.139 117.852 353.922 117.082 353.922 116.102V109.991H352.074V108.626H353.922V105.812H355.581V108.626H358.584V109.991H355.581V115.955C355.581 116.627 355.707 117.096 355.959 117.362C356.225 117.628 356.561 117.761 356.967 117.761C357.247 117.761 357.499 117.712 357.723 117.614C357.947 117.502 358.157 117.355 358.353 117.173L359.109 118.349C358.465 118.951 357.639 119.252 356.631 119.252ZM370.452 119.252C369.444 119.252 368.597 119.07 367.911 118.706C367.239 118.342 366.693 117.887 366.273 117.341L367.344 116.291C367.666 116.697 368.065 117.033 368.541 117.299C369.031 117.565 369.647 117.698 370.389 117.698C371.285 117.698 371.992 117.488 372.51 117.068C373.028 116.634 373.287 115.997 373.287 115.157C373.287 114.345 373.021 113.75 372.489 113.372C371.957 112.994 371.278 112.805 370.452 112.805H369.192V111.293H370.389C371.215 111.293 371.824 111.076 372.216 110.642C372.622 110.208 372.825 109.641 372.825 108.941C372.825 108.535 372.755 108.192 372.615 107.912C372.489 107.618 372.307 107.38 372.069 107.198C371.845 107.002 371.579 106.862 371.271 106.778C370.977 106.694 370.669 106.652 370.347 106.652C369.703 106.652 369.143 106.778 368.667 107.03C368.191 107.282 367.792 107.597 367.47 107.975L366.504 106.925C366.91 106.421 367.435 105.994 368.079 105.644C368.737 105.28 369.528 105.098 370.452 105.098C371.012 105.098 371.544 105.182 372.048 105.35C372.566 105.504 373.014 105.735 373.392 106.043C373.784 106.337 374.092 106.715 374.316 107.177C374.54 107.625 374.652 108.143 374.652 108.731C374.652 109.515 374.449 110.18 374.043 110.726C373.637 111.258 373.056 111.657 372.3 111.923V112.049C372.678 112.119 373.035 112.245 373.371 112.427C373.721 112.595 374.022 112.819 374.274 113.099C374.54 113.365 374.743 113.687 374.883 114.065C375.037 114.443 375.114 114.863 375.114 115.325C375.114 115.927 375.002 116.473 374.778 116.963C374.568 117.439 374.26 117.852 373.854 118.202C373.448 118.538 372.958 118.797 372.384 118.979C371.81 119.161 371.166 119.252 370.452 119.252ZM380.272 110.852C379.88 110.852 379.572 110.726 379.348 110.474C379.124 110.222 379.012 109.935 379.012 109.613C379.012 109.277 379.124 108.99 379.348 108.752C379.572 108.5 379.88 108.374 380.272 108.374C380.678 108.374 380.986 108.5 381.196 108.752C381.42 108.99 381.532 109.277 381.532 109.613C381.532 109.935 381.42 110.222 381.196 110.474C380.986 110.726 380.678 110.852 380.272 110.852ZM380.272 119.252C379.88 119.252 379.572 119.126 379.348 118.874C379.124 118.622 379.012 118.335 379.012 118.013C379.012 117.677 379.124 117.39 379.348 117.152C379.572 116.9 379.88 116.774 380.272 116.774C380.678 116.774 380.986 116.9 381.196 117.152C381.42 117.39 381.532 117.677 381.532 118.013C381.532 118.335 381.42 118.622 381.196 118.874C380.986 119.126 380.678 119.252 380.272 119.252ZM389.094 119.252C388.086 119.252 387.239 119.07 386.553 118.706C385.881 118.342 385.335 117.887 384.915 117.341L385.986 116.291C386.308 116.697 386.707 117.033 387.183 117.299C387.673 117.565 388.289 117.698 389.031 117.698C389.927 117.698 390.634 117.488 391.152 117.068C391.67 116.634 391.929 115.997 391.929 115.157C391.929 114.345 391.663 113.75 391.131 113.372C390.599 112.994 389.92 112.805 389.094 112.805H387.834V111.293H389.031C389.857 111.293 390.466 111.076 390.858 110.642C391.264 110.208 391.467 109.641 391.467 108.941C391.467 108.535 391.397 108.192 391.257 107.912C391.131 107.618 390.949 107.38 390.711 107.198C390.487 107.002 390.221 106.862 389.913 106.778C389.619 106.694 389.311 106.652 388.989 106.652C388.345 106.652 387.785 106.778 387.309 107.03C386.833 107.282 386.434 107.597 386.112 107.975L385.146 106.925C385.552 106.421 386.077 105.994 386.721 105.644C387.379 105.28 388.17 105.098 389.094 105.098C389.654 105.098 390.186 105.182 390.69 105.35C391.208 105.504 391.656 105.735 392.034 106.043C392.426 106.337 392.734 106.715 392.958 107.177C393.182 107.625 393.294 108.143 393.294 108.731C393.294 109.515 393.091 110.18 392.685 110.726C392.279 111.258 391.698 111.657 390.942 111.923V112.049C391.32 112.119 391.677 112.245 392.013 112.427C392.363 112.595 392.664 112.819 392.916 113.099C393.182 113.365 393.385 113.687 393.525 114.065C393.679 114.443 393.756 114.863 393.756 115.325C393.756 115.927 393.644 116.473 393.42 116.963C393.21 117.439 392.902 117.852 392.496 118.202C392.09 118.538 391.6 118.797 391.026 118.979C390.452 119.161 389.808 119.252 389.094 119.252ZM402.19 119.252C401.322 119.252 400.573 119.07 399.943 118.706C399.327 118.342 398.816 117.845 398.41 117.215C398.018 116.571 397.724 115.822 397.528 114.968C397.346 114.1 397.255 113.169 397.255 112.175C397.255 111.181 397.346 110.257 397.528 109.403C397.724 108.535 398.018 107.786 398.41 107.156C398.816 106.512 399.327 106.008 399.943 105.644C400.573 105.28 401.322 105.098 402.19 105.098C403.058 105.098 403.8 105.28 404.416 105.644C405.046 106.008 405.557 106.512 405.949 107.156C406.355 107.786 406.649 108.535 406.831 109.403C407.027 110.257 407.125 111.181 407.125 112.175C407.125 113.169 407.027 114.1 406.831 114.968C406.649 115.822 406.355 116.571 405.949 117.215C405.557 117.845 405.046 118.342 404.416 118.706C403.8 119.07 403.058 119.252 402.19 119.252ZM402.19 117.74C402.708 117.74 403.163 117.614 403.555 117.362C403.947 117.096 404.269 116.725 404.521 116.249C404.787 115.759 404.983 115.171 405.109 114.485C405.235 113.799 405.298 113.029 405.298 112.175C405.298 111.321 405.235 110.551 405.109 109.865C404.983 109.179 404.787 108.598 404.521 108.122C404.269 107.632 403.947 107.261 403.555 107.009C403.163 106.743 402.708 106.61 402.19 106.61C401.672 106.61 401.217 106.743 400.825 107.009C400.447 107.261 400.125 107.632 399.859 108.122C399.607 108.598 399.411 109.179 399.271 109.865C399.145 110.551 399.082 111.321 399.082 112.175C399.082 113.029 399.145 113.799 399.271 114.485C399.411 115.171 399.607 115.759 399.859 116.249C400.125 116.725 400.447 117.096 400.825 117.362C401.217 117.614 401.672 117.74 402.19 117.74ZM415.458 105.35H419.721C421.121 105.35 422.192 105.742 422.934 106.526C423.69 107.296 424.068 108.346 424.068 109.676C424.068 111.02 423.683 112.084 422.913 112.868C422.143 113.638 421.079 114.023 419.721 114.023H417.243V119H415.458V105.35ZM419.595 112.532C420.477 112.532 421.135 112.28 421.569 111.776C422.017 111.258 422.241 110.558 422.241 109.676C422.241 108.794 422.017 108.101 421.569 107.597C421.135 107.093 420.477 106.841 419.595 106.841H417.243V112.532H419.595ZM426.84 105.35H429.234L433.917 116.984H434.043L438.726 105.35H441.162V119H439.482V107.723H439.356L434.862 119H433.098L428.604 107.723H428.478V119H426.84V105.35Z" fill="black" fill-opacity="0.64"/>
<path d="M281.44 149.4H287.968C289.312 149.4 290.464 149.616 291.424 150.048C292.384 150.48 293.176 151.064 293.8 151.8C294.424 152.52 294.88 153.352 295.168 154.296C295.456 155.224 295.6 156.192 295.6 157.2C295.6 158.208 295.456 159.184 295.168 160.128C294.88 161.056 294.424 161.88 293.8 162.6C293.192 163.32 292.408 163.904 291.448 164.352C290.504 164.784 289.36 165 288.016 165H281.44V149.4ZM287.776 161.808C288.928 161.808 289.824 161.4 290.464 160.584C291.12 159.768 291.448 158.648 291.448 157.224C291.448 155.752 291.12 154.616 290.464 153.816C289.808 153 288.904 152.592 287.752 152.592H285.496V161.808H287.776ZM303.197 165.288C302.109 165.288 301.173 165.112 300.389 164.76C299.621 164.408 298.989 163.944 298.493 163.368C297.997 162.792 297.629 162.136 297.389 161.4C297.149 160.648 297.029 159.872 297.029 159.072C297.029 158.288 297.133 157.52 297.341 156.768C297.565 156.016 297.909 155.352 298.373 154.776C298.853 154.2 299.469 153.736 300.221 153.384C300.973 153.032 301.893 152.856 302.981 152.856C304.069 152.856 304.989 153.032 305.741 153.384C306.493 153.72 307.093 154.176 307.541 154.752C308.005 155.312 308.333 155.96 308.525 156.696C308.733 157.432 308.837 158.192 308.837 158.976C308.837 159.152 308.821 159.384 308.789 159.672C308.757 159.944 308.717 160.152 308.669 160.296H300.893C300.957 160.648 301.077 160.944 301.253 161.184C301.445 161.424 301.661 161.616 301.901 161.76C302.141 161.904 302.389 162.008 302.645 162.072C302.917 162.136 303.173 162.168 303.413 162.168C303.973 162.168 304.453 162.08 304.853 161.904C305.269 161.728 305.589 161.496 305.813 161.208L307.901 163.392C307.517 163.952 306.909 164.408 306.077 164.76C305.245 165.112 304.285 165.288 303.197 165.288ZM302.981 155.688C302.469 155.688 302.013 155.848 301.613 156.168C301.213 156.472 300.949 157.008 300.821 157.776H305.093C304.981 157.008 304.725 156.472 304.325 156.168C303.925 155.848 303.477 155.688 302.981 155.688ZM310.686 147.6H314.502V165H310.686V147.6ZM321.118 149.736C321.118 150.28 320.934 150.768 320.566 151.2C320.198 151.616 319.662 151.824 318.958 151.824C318.238 151.824 317.702 151.616 317.35 151.2C316.998 150.768 316.822 150.28 316.822 149.736C316.822 149.192 316.998 148.712 317.35 148.296C317.702 147.864 318.238 147.648 318.958 147.648C319.662 147.648 320.198 147.864 320.566 148.296C320.934 148.712 321.118 149.192 321.118 149.736ZM317.038 153.144H320.854V165H317.038V153.144ZM322.309 153.144H326.509L328.645 160.968H328.789L330.949 153.144H334.861L330.589 165H326.581L322.309 153.144ZM341.471 165.288C340.383 165.288 339.447 165.112 338.663 164.76C337.895 164.408 337.263 163.944 336.767 163.368C336.271 162.792 335.903 162.136 335.663 161.4C335.423 160.648 335.303 159.872 335.303 159.072C335.303 158.288 335.407 157.52 335.615 156.768C335.839 156.016 336.183 155.352 336.647 154.776C337.127 154.2 337.743 153.736 338.495 153.384C339.247 153.032 340.167 152.856 341.255 152.856C342.343 152.856 343.263 153.032 344.015 153.384C344.767 153.72 345.367 154.176 345.815 154.752C346.279 155.312 346.607 155.96 346.799 156.696C347.007 157.432 347.111 158.192 347.111 158.976C347.111 159.152 347.095 159.384 347.063 159.672C347.031 159.944 346.991 160.152 346.943 160.296H339.167C339.231 160.648 339.351 160.944 339.527 161.184C339.719 161.424 339.935 161.616 340.175 161.76C340.415 161.904 340.663 162.008 340.919 162.072C341.191 162.136 341.447 162.168 341.687 162.168C342.247 162.168 342.727 162.08 343.127 161.904C343.543 161.728 343.863 161.496 344.087 161.208L346.175 163.392C345.791 163.952 345.183 164.408 344.351 164.76C343.519 165.112 342.559 165.288 341.471 165.288ZM341.255 155.688C340.743 155.688 340.287 155.848 339.887 156.168C339.487 156.472 339.223 157.008 339.095 157.776H343.367C343.255 157.008 342.999 156.472 342.599 156.168C342.199 155.848 341.751 155.688 341.255 155.688ZM348.96 153.144H352.536V155.184H352.68C352.92 154.448 353.296 153.88 353.808 153.48C354.336 153.064 355 152.856 355.8 152.856C356.424 152.856 356.984 152.936 357.48 153.096L356.52 156.6C356.344 156.488 356.136 156.408 355.896 156.36C355.672 156.296 355.448 156.264 355.224 156.264C354.504 156.264 353.912 156.472 353.448 156.888C353 157.288 352.776 157.928 352.776 158.808V165H348.96V153.144ZM360.693 169.656C360.453 169.656 360.205 169.64 359.949 169.608C359.693 169.592 359.453 169.56 359.229 169.512V166.392C359.389 166.424 359.581 166.448 359.805 166.464C360.045 166.496 360.253 166.512 360.429 166.512C361.021 166.512 361.437 166.416 361.677 166.224C361.933 166.032 362.149 165.688 362.325 165.192L357.981 153.144H362.181L364.317 161.184H364.461L366.621 153.144H370.557L366.261 165C365.989 165.752 365.701 166.416 365.397 166.992C365.093 167.568 364.733 168.056 364.317 168.456C363.901 168.856 363.397 169.152 362.805 169.344C362.229 169.552 361.525 169.656 360.693 169.656ZM374.638 157.44C374.254 157.44 373.91 157.376 373.606 157.248C373.318 157.12 373.07 156.952 372.862 156.744C372.67 156.52 372.526 156.272 372.43 156C372.334 155.728 372.286 155.44 372.286 155.136C372.286 154.848 372.334 154.568 372.43 154.296C372.526 154.008 372.67 153.76 372.862 153.552C373.07 153.344 373.318 153.176 373.606 153.048C373.91 152.92 374.254 152.856 374.638 152.856C375.406 152.856 375.99 153.088 376.39 153.552C376.79 154.016 376.99 154.544 376.99 155.136C376.99 155.44 376.934 155.728 376.822 156C376.726 156.272 376.582 156.52 376.39 156.744C376.198 156.952 375.95 157.12 375.646 157.248C375.358 157.376 375.022 157.44 374.638 157.44ZM374.638 165.288C374.254 165.288 373.91 165.224 373.606 165.096C373.318 164.968 373.07 164.8 372.862 164.592C372.67 164.368 372.526 164.12 372.43 163.848C372.334 163.576 372.286 163.288 372.286 162.984C372.286 162.696 372.334 162.416 372.43 162.144C372.526 161.856 372.67 161.608 372.862 161.4C373.07 161.192 373.318 161.024 373.606 160.896C373.91 160.768 374.254 160.704 374.638 160.704C375.406 160.704 375.99 160.936 376.39 161.4C376.79 161.864 376.99 162.392 376.99 162.984C376.99 163.288 376.934 163.576 376.822 163.848C376.726 164.12 376.582 164.368 376.39 164.592C376.198 164.8 375.95 164.968 375.646 165.096C375.358 165.224 375.022 165.288 374.638 165.288ZM390.441 149.4H395.337L401.241 165H396.945L395.985 162.432H389.625L388.665 165H384.537L390.441 149.4ZM390.753 159.312H394.857L392.865 153.312H392.721L390.753 159.312ZM402.749 153.144H406.325V154.872H406.469C406.789 154.264 407.237 153.776 407.813 153.408C408.389 153.04 409.077 152.856 409.877 152.856C410.933 152.856 411.749 153.056 412.325 153.456C412.917 153.84 413.341 154.416 413.597 155.184C413.869 154.512 414.333 153.96 414.989 153.528C415.661 153.08 416.421 152.856 417.269 152.856C418.773 152.856 419.829 153.28 420.437 154.128C421.045 154.976 421.349 156.192 421.349 157.776V165H417.533V158.4C417.533 157.712 417.405 157.16 417.149 156.744C416.893 156.312 416.437 156.096 415.781 156.096C415.141 156.096 414.677 156.304 414.389 156.72C414.101 157.12 413.957 157.68 413.957 158.4V165H410.141V158.4C410.141 157.712 410.013 157.16 409.757 156.744C409.517 156.312 409.061 156.096 408.389 156.096C407.765 156.096 407.301 156.304 406.997 156.72C406.709 157.12 406.565 157.68 406.565 158.4V165H402.749V153.144ZM425.217 169.656C424.977 169.656 424.729 169.64 424.473 169.608C424.217 169.592 423.977 169.56 423.753 169.512V166.392C423.913 166.424 424.105 166.448 424.329 166.464C424.569 166.496 424.777 166.512 424.953 166.512C425.545 166.512 425.961 166.416 426.201 166.224C426.457 166.032 426.673 165.688 426.849 165.192L422.505 153.144H426.705L428.841 161.184H428.985L431.145 153.144H435.081L430.785 165C430.513 165.752 430.225 166.416 429.921 166.992C429.617 167.568 429.257 168.056 428.841 168.456C428.425 168.856 427.921 169.152 427.329 169.344C426.753 169.552 426.049 169.656 425.217 169.656ZM447.183 149.4H452.079L457.983 165H453.687L452.727 162.432H446.367L445.407 165H441.279L447.183 149.4ZM447.495 159.312H451.599L449.607 153.312H449.463L447.495 159.312ZM463.555 165.288C462.835 165.288 462.171 165.144 461.563 164.856C460.955 164.552 460.419 164.136 459.955 163.608C459.507 163.08 459.155 162.44 458.899 161.688C458.643 160.936 458.515 160.104 458.515 159.192C458.515 158.248 458.643 157.392 458.899 156.624C459.155 155.84 459.507 155.168 459.955 154.608C460.419 154.048 460.955 153.616 461.563 153.312C462.171 153.008 462.835 152.856 463.555 152.856C464.435 152.856 465.163 153.064 465.739 153.48C466.331 153.88 466.755 154.416 467.011 155.088H467.155V147.6H470.971V165H467.347V162.888H467.203C466.915 163.656 466.451 164.248 465.811 164.664C465.187 165.08 464.435 165.288 463.555 165.288ZM464.779 162C465.579 162 466.171 161.72 466.555 161.16C466.955 160.584 467.155 159.888 467.155 159.072C467.155 158.256 466.955 157.568 466.555 157.008C466.171 156.432 465.579 156.144 464.779 156.144C464.011 156.144 463.427 156.432 463.027 157.008C462.627 157.568 462.427 158.256 462.427 159.072C462.427 159.888 462.627 160.584 463.027 161.16C463.427 161.72 464.011 162 464.779 162ZM476.698 165.288C476.17 165.288 475.658 165.208 475.162 165.048C474.682 164.888 474.258 164.656 473.89 164.352C473.538 164.032 473.25 163.648 473.026 163.2C472.818 162.752 472.714 162.24 472.714 161.664C472.714 160.576 473.098 159.72 473.866 159.096C474.65 158.472 475.874 158.112 477.538 158.016L480.058 157.872V157.68C480.058 157.344 479.986 157.072 479.842 156.864C479.714 156.656 479.538 156.496 479.314 156.384C479.106 156.256 478.858 156.168 478.57 156.12C478.298 156.072 478.018 156.048 477.73 156.048C477.282 156.048 476.826 156.128 476.362 156.288C475.898 156.448 475.554 156.672 475.33 156.96L473.242 154.8C473.674 154.256 474.306 153.8 475.138 153.432C475.97 153.048 477.058 152.856 478.402 152.856C480.114 152.856 481.45 153.248 482.41 154.032C483.386 154.816 483.874 155.944 483.874 157.416V165H480.298V163.176H480.154C479.85 163.8 479.41 164.312 478.834 164.712C478.274 165.096 477.562 165.288 476.698 165.288ZM477.994 162.696C478.602 162.696 479.098 162.536 479.482 162.216C479.866 161.88 480.058 161.376 480.058 160.704V160.08L478.066 160.224C477.554 160.256 477.17 160.384 476.914 160.608C476.674 160.832 476.554 161.128 476.554 161.496C476.554 161.912 476.69 162.216 476.962 162.408C477.25 162.6 477.594 162.696 477.994 162.696ZM486.256 153.144H489.832V154.872H489.976C490.296 154.264 490.744 153.776 491.32 153.408C491.896 153.04 492.584 152.856 493.384 152.856C494.44 152.856 495.256 153.056 495.832 153.456C496.424 153.84 496.848 154.416 497.104 155.184C497.376 154.512 497.84 153.96 498.496 153.528C499.168 153.08 499.928 152.856 500.776 152.856C502.28 152.856 503.336 153.28 503.944 154.128C504.552 154.976 504.856 156.192 504.856 157.776V165H501.04V158.4C501.04 157.712 500.912 157.16 500.656 156.744C500.4 156.312 499.944 156.096 499.288 156.096C498.648 156.096 498.184 156.304 497.896 156.72C497.608 157.12 497.464 157.68 497.464 158.4V165H493.648V158.4C493.648 157.712 493.52 157.16 493.264 156.744C493.024 156.312 492.568 156.096 491.896 156.096C491.272 156.096 490.808 156.304 490.504 156.72C490.216 157.12 490.072 157.68 490.072 158.4V165H486.256V153.144ZM512.92 161.424C512.92 161.088 512.688 160.856 512.224 160.728C511.76 160.584 511.12 160.424 510.304 160.248C509.84 160.152 509.4 160.016 508.984 159.84C508.568 159.648 508.2 159.416 507.88 159.144C507.56 158.856 507.304 158.512 507.112 158.112C506.92 157.712 506.824 157.232 506.824 156.672C506.824 156.064 506.952 155.528 507.208 155.064C507.464 154.584 507.816 154.184 508.264 153.864C508.728 153.528 509.272 153.28 509.896 153.12C510.52 152.944 511.208 152.856 511.96 152.856C513.144 152.856 514.136 153.024 514.936 153.36C515.736 153.696 516.328 154.096 516.712 154.56L514.72 156.72C514.432 156.416 514.056 156.168 513.592 155.976C513.128 155.784 512.672 155.688 512.224 155.688C511.808 155.688 511.448 155.76 511.144 155.904C510.84 156.032 510.688 156.264 510.688 156.6C510.688 156.936 510.92 157.176 511.384 157.32C511.848 157.448 512.488 157.6 513.304 157.776C513.768 157.872 514.208 158.016 514.624 158.208C515.04 158.384 515.408 158.616 515.728 158.904C516.048 159.176 516.304 159.52 516.496 159.936C516.688 160.336 516.784 160.808 516.784 161.352C516.784 161.976 516.656 162.536 516.4 163.032C516.144 163.512 515.784 163.92 515.32 164.256C514.856 164.592 514.296 164.848 513.64 165.024C513 165.2 512.296 165.288 511.528 165.288C510.264 165.288 509.2 165.128 508.336 164.808C507.472 164.472 506.832 164.056 506.416 163.56L508.312 161.4C508.68 161.768 509.136 162.04 509.68 162.216C510.224 162.376 510.768 162.456 511.312 162.456C511.824 162.456 512.216 162.368 512.488 162.192C512.776 162.016 512.92 161.76 512.92 161.424Z" fill="#242E30"/>
<path d="M766 157C766 147.059 774.059 139 784 139H796C805.941 139 814 147.059 814 157C814 166.941 805.941 175 796 175H784C774.059 175 766 166.941 766 157Z" fill="#F2A6B0"/>
<g clip-path="url(#clip3_14465_4978)">
<path d="M786.719 158.641H785.406C784.798 158.637 784.216 158.394 783.786 157.964C783.356 157.534 783.113 156.952 783.109 156.344V155.031C783.113 154.423 783.356 153.841 783.786 153.411C784.216 152.981 784.798 152.738 785.406 152.734H786.719C787.327 152.738 787.909 152.981 788.339 153.411C788.769 153.841 789.012 154.423 789.016 155.031V156.344C789.012 156.952 788.769 157.534 788.339 157.964C787.909 158.394 787.327 158.637 786.719 158.641ZM785.406 154.703C785.319 154.703 785.236 154.738 785.174 154.799C785.113 154.861 785.078 154.944 785.078 155.031V156.344C785.078 156.431 785.113 156.514 785.174 156.576C785.236 156.637 785.319 156.672 785.406 156.672H786.719C786.806 156.672 786.889 156.637 786.951 156.576C787.012 156.514 787.047 156.431 787.047 156.344V155.031C787.047 154.944 787.012 154.861 786.951 154.799C786.889 154.738 786.806 154.703 786.719 154.703H785.406Z" fill="black" fill-opacity="0.76"/>
<path d="M797.875 149.453H782.125C781.517 149.457 780.935 149.7 780.505 150.13C780.075 150.56 779.832 151.142 779.828 151.75V162.25C779.832 162.858 780.075 163.44 780.505 163.87C780.935 164.3 781.517 164.543 782.125 164.547H797.875C798.483 164.543 799.065 164.3 799.495 163.87C799.925 163.44 800.168 162.858 800.172 162.25V151.75C800.168 151.142 799.925 150.56 799.495 150.13C799.065 149.7 798.483 149.457 797.875 149.453ZM798.203 162.25C798.203 162.337 798.169 162.42 798.107 162.482C798.045 162.544 797.962 162.578 797.875 162.578H782.125C782.038 162.578 781.955 162.544 781.893 162.482C781.831 162.42 781.797 162.337 781.797 162.25V151.75C781.797 151.663 781.831 151.58 781.893 151.518C781.955 151.456 782.038 151.422 782.125 151.422H797.875C797.962 151.422 798.045 151.456 798.107 151.518C798.169 151.58 798.203 151.663 798.203 151.75V162.25Z" fill="black" fill-opacity="0.76"/>
<path d="M795.237 160.609L796.221 158.641H791.654V160.609" fill="black" fill-opacity="0.76"/>
</g>
<path d="M288.64 197.784H281.368V196.176L288.256 185.4H290.536L283.624 196.056H288.64V191.352H290.608V196.056H292.768V197.784H290.608V201H288.64V197.784ZM302.364 185.4H307.428C308.692 185.4 309.708 185.76 310.476 186.48C311.26 187.184 311.652 188.184 311.652 189.48C311.652 190.312 311.412 191.032 310.932 191.64C310.468 192.248 309.86 192.648 309.108 192.84V192.984C309.492 193.048 309.876 193.192 310.26 193.416C310.644 193.624 310.988 193.896 311.292 194.232C311.596 194.552 311.836 194.936 312.012 195.384C312.204 195.816 312.3 196.288 312.3 196.8C312.3 197.44 312.18 198.016 311.94 198.528C311.716 199.04 311.396 199.48 310.98 199.848C310.564 200.216 310.076 200.504 309.516 200.712C308.956 200.904 308.348 201 307.692 201H302.364V185.4ZM307.188 192.24C307.908 192.24 308.484 192.008 308.916 191.544C309.348 191.08 309.564 190.456 309.564 189.672C309.564 188.872 309.348 188.248 308.916 187.8C308.5 187.336 307.932 187.104 307.212 187.104H304.404V192.24H307.188ZM307.668 199.296C308.452 199.296 309.068 199.056 309.516 198.576C309.98 198.096 310.212 197.448 310.212 196.632C310.212 195.784 309.98 195.12 309.516 194.64C309.068 194.16 308.452 193.92 307.668 193.92H304.404V199.296H307.668ZM320.375 201.288C319.527 201.288 318.751 201.144 318.047 200.856C317.359 200.568 316.767 200.16 316.271 199.632C315.791 199.088 315.415 198.432 315.143 197.664C314.887 196.896 314.759 196.032 314.759 195.072C314.759 194.064 314.895 193.176 315.167 192.408C315.439 191.624 315.815 190.976 316.295 190.464C316.775 189.936 317.343 189.536 317.999 189.264C318.671 188.992 319.407 188.856 320.207 188.856C321.007 188.856 321.743 188.984 322.415 189.24C323.087 189.496 323.663 189.88 324.143 190.392C324.623 190.888 324.999 191.52 325.271 192.288C325.543 193.04 325.679 193.92 325.679 194.928C325.679 195.056 325.671 195.184 325.655 195.312C325.655 195.44 325.647 195.544 325.631 195.624H316.679C316.679 196.184 316.775 196.712 316.967 197.208C317.175 197.688 317.447 198.112 317.783 198.48C318.135 198.832 318.535 199.112 318.983 199.32C319.447 199.528 319.943 199.632 320.471 199.632C321.335 199.632 322.039 199.464 322.583 199.128C323.143 198.792 323.607 198.384 323.975 197.904L325.127 199.08C324.615 199.752 323.975 200.288 323.207 200.688C322.455 201.088 321.511 201.288 320.375 201.288ZM320.207 190.44C319.647 190.44 319.151 190.544 318.719 190.752C318.287 190.96 317.927 191.232 317.639 191.568C317.351 191.904 317.127 192.288 316.967 192.72C316.823 193.152 316.743 193.584 316.727 194.016H323.663C323.647 193.584 323.559 193.152 323.399 192.72C323.255 192.288 323.039 191.904 322.751 191.568C322.463 191.232 322.103 190.96 321.671 190.752C321.255 190.544 320.767 190.44 320.207 190.44ZM328.774 189.144H330.598V191.064H330.742C330.998 190.44 331.366 189.92 331.846 189.504C332.326 189.072 332.926 188.856 333.646 188.856C334.254 188.856 334.79 188.976 335.254 189.216L334.606 190.944C334.398 190.832 334.174 190.76 333.934 190.728C333.71 190.68 333.478 190.656 333.238 190.656C332.454 190.656 331.83 190.976 331.366 191.616C330.918 192.24 330.694 193.04 330.694 194.016V201H328.774V189.144ZM339.648 201H337.728V183.6H339.648V195.384H339.792L345.216 189.144H347.544L342.576 194.568L347.736 201H345.336L341.256 195.816L339.648 197.664V201ZM354.477 201.288C353.629 201.288 352.853 201.144 352.149 200.856C351.461 200.568 350.869 200.16 350.373 199.632C349.893 199.088 349.517 198.432 349.245 197.664C348.989 196.896 348.861 196.032 348.861 195.072C348.861 194.064 348.997 193.176 349.269 192.408C349.541 191.624 349.917 190.976 350.397 190.464C350.877 189.936 351.445 189.536 352.101 189.264C352.773 188.992 353.509 188.856 354.309 188.856C355.109 188.856 355.845 188.984 356.517 189.24C357.189 189.496 357.765 189.88 358.245 190.392C358.725 190.888 359.101 191.52 359.373 192.288C359.645 193.04 359.781 193.92 359.781 194.928C359.781 195.056 359.773 195.184 359.757 195.312C359.757 195.44 359.749 195.544 359.733 195.624H350.781C350.781 196.184 350.877 196.712 351.069 197.208C351.277 197.688 351.549 198.112 351.885 198.48C352.237 198.832 352.637 199.112 353.085 199.32C353.549 199.528 354.045 199.632 354.573 199.632C355.437 199.632 356.141 199.464 356.685 199.128C357.245 198.792 357.709 198.384 358.077 197.904L359.229 199.08C358.717 199.752 358.077 200.288 357.309 200.688C356.557 201.088 355.613 201.288 354.477 201.288ZM354.309 190.44C353.749 190.44 353.253 190.544 352.821 190.752C352.389 190.96 352.029 191.232 351.741 191.568C351.453 191.904 351.229 192.288 351.069 192.72C350.925 193.152 350.845 193.584 350.829 194.016H357.765C357.749 193.584 357.661 193.152 357.501 192.72C357.357 192.288 357.141 191.904 356.853 191.568C356.565 191.232 356.205 190.96 355.773 190.752C355.357 190.544 354.869 190.44 354.309 190.44ZM362.876 183.6H364.796V201H362.876V183.6ZM373.508 201.288C372.66 201.288 371.884 201.144 371.18 200.856C370.492 200.568 369.9 200.16 369.404 199.632C368.924 199.088 368.548 198.432 368.276 197.664C368.02 196.896 367.892 196.032 367.892 195.072C367.892 194.064 368.028 193.176 368.3 192.408C368.572 191.624 368.948 190.976 369.428 190.464C369.908 189.936 370.476 189.536 371.132 189.264C371.804 188.992 372.54 188.856 373.34 188.856C374.14 188.856 374.876 188.984 375.548 189.24C376.22 189.496 376.796 189.88 377.276 190.392C377.756 190.888 378.132 191.52 378.404 192.288C378.676 193.04 378.812 193.92 378.812 194.928C378.812 195.056 378.804 195.184 378.788 195.312C378.788 195.44 378.78 195.544 378.764 195.624H369.812C369.812 196.184 369.908 196.712 370.1 197.208C370.308 197.688 370.58 198.112 370.916 198.48C371.268 198.832 371.668 199.112 372.116 199.32C372.58 199.528 373.076 199.632 373.604 199.632C374.468 199.632 375.172 199.464 375.716 199.128C376.276 198.792 376.74 198.384 377.108 197.904L378.26 199.08C377.748 199.752 377.108 200.288 376.34 200.688C375.588 201.088 374.644 201.288 373.508 201.288ZM373.34 190.44C372.78 190.44 372.284 190.544 371.852 190.752C371.42 190.96 371.06 191.232 370.772 191.568C370.484 191.904 370.26 192.288 370.1 192.72C369.956 193.152 369.876 193.584 369.86 194.016H376.796C376.78 193.584 376.692 193.152 376.532 192.72C376.388 192.288 376.172 191.904 375.884 191.568C375.596 191.232 375.236 190.96 374.804 190.752C374.388 190.544 373.9 190.44 373.34 190.44ZM382.417 205.536C382.241 205.536 382.057 205.52 381.865 205.488C381.689 205.472 381.537 205.448 381.409 205.416V203.76C381.489 203.776 381.617 203.792 381.793 203.808C381.985 203.824 382.161 203.832 382.321 203.832C382.641 203.832 382.913 203.808 383.137 203.76C383.361 203.712 383.561 203.6 383.737 203.424C383.929 203.264 384.113 203.016 384.289 202.68C384.465 202.36 384.657 201.928 384.865 201.384L380.113 189.144H382.201L385.777 199.08H385.921L389.521 189.144H391.465L386.809 201.12C386.505 201.904 386.209 202.568 385.921 203.112C385.649 203.672 385.345 204.128 385.009 204.48C384.673 204.848 384.297 205.112 383.881 205.272C383.481 205.448 382.993 205.536 382.417 205.536ZM403.991 201.288C402.631 201.288 401.527 201.08 400.679 200.664C399.831 200.248 399.159 199.712 398.663 199.056L399.959 197.832C400.391 198.36 400.959 198.776 401.663 199.08C402.383 199.384 403.223 199.536 404.183 199.536C404.615 199.536 405.031 199.488 405.431 199.392C405.831 199.296 406.183 199.152 406.487 198.96C406.807 198.752 407.055 198.48 407.231 198.144C407.423 197.808 407.519 197.4 407.519 196.92C407.519 196.504 407.423 196.152 407.231 195.864C407.039 195.56 406.775 195.304 406.439 195.096C406.119 194.872 405.735 194.68 405.287 194.52C404.839 194.344 404.351 194.168 403.823 193.992C403.263 193.8 402.711 193.6 402.167 193.392C401.623 193.168 401.135 192.888 400.703 192.552C400.271 192.216 399.919 191.808 399.647 191.328C399.375 190.832 399.239 190.224 399.239 189.504C399.239 188.784 399.367 188.152 399.623 187.608C399.895 187.064 400.263 186.608 400.727 186.24C401.191 185.872 401.743 185.592 402.383 185.4C403.023 185.208 403.719 185.112 404.471 185.112C405.575 185.112 406.559 185.304 407.423 185.688C408.303 186.072 409.015 186.656 409.559 187.44L408.263 188.712C407.831 188.184 407.279 187.744 406.607 187.392C405.935 187.04 405.167 186.864 404.303 186.864C403.935 186.864 403.575 186.912 403.223 187.008C402.871 187.088 402.551 187.232 402.263 187.44C401.975 187.648 401.743 187.912 401.567 188.232C401.391 188.552 401.303 188.936 401.303 189.384C401.303 189.8 401.399 190.16 401.591 190.464C401.783 190.752 402.039 191.008 402.359 191.232C402.695 191.44 403.087 191.632 403.535 191.808C403.983 191.968 404.471 192.136 404.999 192.312C405.559 192.504 406.111 192.712 406.655 192.936C407.199 193.16 407.687 193.44 408.119 193.776C408.551 194.112 408.903 194.52 409.175 195C409.447 195.48 409.583 196.08 409.583 196.8C409.583 197.568 409.431 198.24 409.127 198.816C408.839 199.376 408.439 199.84 407.927 200.208C407.431 200.576 406.839 200.848 406.151 201.024C405.479 201.2 404.759 201.288 403.991 201.288ZM416.469 201.288C415.397 201.288 414.613 200.968 414.117 200.328C413.621 199.688 413.373 198.808 413.373 197.688V190.704H411.261V189.144H413.373V185.928H415.269V189.144H418.701V190.704H415.269V197.52C415.269 198.288 415.413 198.824 415.701 199.128C416.005 199.432 416.389 199.584 416.853 199.584C417.173 199.584 417.461 199.528 417.717 199.416C417.973 199.288 418.213 199.12 418.437 198.912L419.301 200.256C418.565 200.944 417.621 201.288 416.469 201.288ZM422.875 198.456C423.323 198.456 423.675 198.616 423.931 198.936C424.187 199.256 424.315 199.64 424.315 200.088C424.315 200.856 424.083 201.576 423.619 202.248C423.155 202.92 422.531 203.56 421.747 204.168L421.003 203.376C421.323 203.072 421.611 202.736 421.867 202.368C422.123 202.016 422.323 201.608 422.467 201.144C422.147 201.064 421.891 200.904 421.699 200.664C421.523 200.424 421.435 200.144 421.435 199.824C421.435 199.456 421.563 199.136 421.819 198.864C422.075 198.592 422.427 198.456 422.875 198.456ZM446.041 201L442.753 187.536H442.609L439.345 201H436.777L432.409 185.4H434.545L438.001 198.72H438.145L441.385 185.4H444.073L447.313 198.792H447.457L450.913 185.4H452.977L448.609 201H446.041ZM458.014 186C458.014 186.336 457.894 186.624 457.654 186.864C457.43 187.104 457.126 187.224 456.742 187.224C456.342 187.224 456.03 187.104 455.806 186.864C455.582 186.624 455.47 186.336 455.47 186C455.47 185.68 455.582 185.4 455.806 185.16C456.03 184.904 456.342 184.776 456.742 184.776C457.126 184.776 457.43 184.904 457.654 185.16C457.894 185.4 458.014 185.68 458.014 186ZM455.782 189.144H457.702V201H455.782V189.144ZM461.782 189.144H463.606V191.016H463.75C464.038 190.392 464.446 189.88 464.974 189.48C465.502 189.064 466.174 188.856 466.99 188.856C468.35 188.856 469.422 189.216 470.206 189.936C471.006 190.656 471.406 191.816 471.406 193.416V201H469.486V193.776C469.486 192.56 469.238 191.704 468.742 191.208C468.262 190.696 467.55 190.44 466.606 190.44C465.694 190.44 464.982 190.752 464.47 191.376C463.958 192 463.702 192.912 463.702 194.112V201H461.782V189.144ZM475.259 189.144H477.083V191.016H477.227C477.515 190.392 477.923 189.88 478.451 189.48C478.979 189.064 479.651 188.856 480.467 188.856C481.827 188.856 482.899 189.216 483.683 189.936C484.483 190.656 484.883 191.816 484.883 193.416V201H482.963V193.776C482.963 192.56 482.715 191.704 482.219 191.208C481.739 190.696 481.027 190.44 480.083 190.44C479.171 190.44 478.459 190.752 477.947 191.376C477.435 192 477.179 192.912 477.179 194.112V201H475.259V189.144ZM490.967 186C490.967 186.336 490.847 186.624 490.607 186.864C490.383 187.104 490.079 187.224 489.695 187.224C489.295 187.224 488.983 187.104 488.759 186.864C488.535 186.624 488.423 186.336 488.423 186C488.423 185.68 488.535 185.4 488.759 185.16C488.983 184.904 489.295 184.776 489.695 184.776C490.079 184.776 490.383 184.904 490.607 185.16C490.847 185.4 490.967 185.68 490.967 186ZM488.735 189.144H490.655V201H488.735V189.144ZM494.735 189.144H496.559V191.568H496.703C496.847 191.168 497.047 190.8 497.303 190.464C497.575 190.128 497.887 189.84 498.239 189.6C498.607 189.36 499.007 189.176 499.439 189.048C499.887 188.92 500.351 188.856 500.831 188.856C501.615 188.856 502.327 189.016 502.967 189.336C503.623 189.64 504.183 190.072 504.647 190.632C505.111 191.176 505.463 191.832 505.703 192.6C505.959 193.368 506.087 194.2 506.087 195.096C506.087 195.992 505.959 196.824 505.703 197.592C505.463 198.344 505.111 199 504.647 199.56C504.183 200.104 503.623 200.528 502.967 200.832C502.327 201.136 501.615 201.288 500.831 201.288C499.855 201.288 499.015 201.056 498.311 200.592C497.607 200.128 497.103 199.536 496.799 198.816H496.655V205.44H494.735V189.144ZM500.351 199.56C500.879 199.56 501.367 199.472 501.815 199.296C502.279 199.104 502.679 198.824 503.015 198.456C503.367 198.072 503.639 197.6 503.831 197.04C504.023 196.48 504.119 195.824 504.119 195.072C504.119 194.32 504.023 193.664 503.831 193.104C503.639 192.544 503.367 192.08 503.015 191.712C502.679 191.328 502.279 191.048 501.815 190.872C501.367 190.68 500.879 190.584 500.351 190.584C499.839 190.584 499.359 190.68 498.911 190.872C498.463 191.048 498.071 191.328 497.735 191.712C497.399 192.08 497.135 192.544 496.943 193.104C496.751 193.664 496.655 194.32 496.655 195.072C496.655 195.824 496.751 196.48 496.943 197.04C497.135 197.6 497.399 198.072 497.735 198.456C498.071 198.824 498.463 199.104 498.911 199.296C499.359 199.472 499.839 199.56 500.351 199.56ZM513.805 201.288C512.957 201.288 512.181 201.144 511.477 200.856C510.789 200.568 510.197 200.16 509.701 199.632C509.221 199.088 508.845 198.432 508.573 197.664C508.317 196.896 508.189 196.032 508.189 195.072C508.189 194.064 508.325 193.176 508.597 192.408C508.869 191.624 509.245 190.976 509.725 190.464C510.205 189.936 510.773 189.536 511.429 189.264C512.101 188.992 512.837 188.856 513.637 188.856C514.437 188.856 515.173 188.984 515.845 189.24C516.517 189.496 517.093 189.88 517.573 190.392C518.053 190.888 518.429 191.52 518.701 192.288C518.973 193.04 519.109 193.92 519.109 194.928C519.109 195.056 519.101 195.184 519.085 195.312C519.085 195.44 519.077 195.544 519.061 195.624H510.109C510.109 196.184 510.205 196.712 510.397 197.208C510.605 197.688 510.877 198.112 511.213 198.48C511.565 198.832 511.965 199.112 512.413 199.32C512.877 199.528 513.373 199.632 513.901 199.632C514.765 199.632 515.469 199.464 516.013 199.128C516.573 198.792 517.037 198.384 517.405 197.904L518.557 199.08C518.045 199.752 517.405 200.288 516.637 200.688C515.885 201.088 514.941 201.288 513.805 201.288ZM513.637 190.44C513.077 190.44 512.581 190.544 512.149 190.752C511.717 190.96 511.357 191.232 511.069 191.568C510.781 191.904 510.557 192.288 510.397 192.72C510.253 193.152 510.173 193.584 510.157 194.016H517.093C517.077 193.584 516.989 193.152 516.829 192.72C516.685 192.288 516.469 191.904 516.181 191.568C515.893 191.232 515.533 190.96 515.101 190.752C514.685 190.544 514.197 190.44 513.637 190.44ZM526.932 205.728C525.908 205.728 525.02 205.544 524.268 205.176C523.516 204.824 522.916 204.384 522.468 203.856L523.74 202.632C524.076 203.048 524.508 203.376 525.036 203.616C525.58 203.872 526.18 204 526.836 204C527.86 204 528.66 203.752 529.236 203.256C529.828 202.76 530.124 201.888 530.124 200.64V198.336H529.98C529.852 198.736 529.668 199.096 529.428 199.416C529.188 199.72 528.9 199.984 528.564 200.208C528.244 200.416 527.884 200.584 527.484 200.712C527.1 200.824 526.708 200.88 526.308 200.88C525.556 200.88 524.868 200.744 524.244 200.472C523.636 200.2 523.1 199.808 522.636 199.296C522.188 198.768 521.836 198.128 521.58 197.376C521.34 196.624 521.22 195.776 521.22 194.832C521.22 193.904 521.34 193.072 521.58 192.336C521.836 191.6 522.188 190.976 522.636 190.464C523.1 189.952 523.636 189.56 524.244 189.288C524.868 189 525.556 188.856 526.308 188.856C527.188 188.856 527.972 189.088 528.66 189.552C529.364 190 529.836 190.624 530.076 191.424H530.22V189.144H532.044V200.88C532.044 202.336 531.604 203.504 530.724 204.384C529.86 205.28 528.596 205.728 526.932 205.728ZM526.692 199.152C527.748 199.152 528.58 198.784 529.188 198.048C529.812 197.312 530.124 196.248 530.124 194.856C530.124 193.448 529.812 192.384 529.188 191.664C528.58 190.944 527.748 190.584 526.692 190.584C525.62 190.584 524.764 190.944 524.124 191.664C523.5 192.384 523.188 193.448 523.188 194.856C523.188 196.248 523.5 197.312 524.124 198.048C524.764 198.784 525.62 199.152 526.692 199.152Z" fill="#3C4C4F"/>
<path d="M285.439 219.35H287.77L292.684 233H290.773L289.702 229.997H283.423L282.352 233H280.546L285.439 219.35ZM283.948 228.485H289.177L286.615 220.841H286.489L283.948 228.485ZM295.013 222.626H296.609V224.306H296.735C296.959 223.76 297.281 223.305 297.701 222.941C298.121 222.563 298.646 222.374 299.276 222.374C299.808 222.374 300.277 222.479 300.683 222.689L300.116 224.201C299.934 224.103 299.738 224.04 299.528 224.012C299.332 223.97 299.129 223.949 298.919 223.949C298.233 223.949 297.687 224.229 297.281 224.789C296.889 225.335 296.693 226.035 296.693 226.889V233H295.013V222.626ZM302.847 222.626H304.443V224.306H304.569C304.793 223.76 305.115 223.305 305.535 222.941C305.955 222.563 306.48 222.374 307.11 222.374C307.642 222.374 308.111 222.479 308.517 222.689L307.95 224.201C307.768 224.103 307.572 224.04 307.362 224.012C307.166 223.97 306.963 223.949 306.753 223.949C306.067 223.949 305.521 224.229 305.115 224.789C304.723 225.335 304.527 226.035 304.527 226.889V233H302.847V222.626ZM312.634 219.875C312.634 220.169 312.529 220.421 312.319 220.631C312.123 220.841 311.857 220.946 311.521 220.946C311.171 220.946 310.898 220.841 310.702 220.631C310.506 220.421 310.408 220.169 310.408 219.875C310.408 219.595 310.506 219.35 310.702 219.14C310.898 218.916 311.171 218.804 311.521 218.804C311.857 218.804 312.123 218.916 312.319 219.14C312.529 219.35 312.634 219.595 312.634 219.875ZM310.681 222.626H312.361V233H310.681V222.626ZM314.566 222.626H316.393L319.522 231.278H319.648L322.798 222.626H324.499L320.467 233H318.577L314.566 222.626ZM330.545 233.252C329.803 233.252 329.124 233.126 328.508 232.874C327.906 232.622 327.388 232.265 326.954 231.803C326.534 231.327 326.205 230.753 325.967 230.081C325.743 229.409 325.631 228.653 325.631 227.813C325.631 226.931 325.75 226.154 325.988 225.482C326.226 224.796 326.555 224.229 326.975 223.781C327.395 223.319 327.892 222.969 328.466 222.731C329.054 222.493 329.698 222.374 330.398 222.374C331.098 222.374 331.742 222.486 332.33 222.71C332.918 222.934 333.422 223.27 333.842 223.718C334.262 224.152 334.591 224.705 334.829 225.377C335.067 226.035 335.186 226.805 335.186 227.687C335.186 227.799 335.179 227.911 335.165 228.023C335.165 228.135 335.158 228.226 335.144 228.296H327.311C327.311 228.786 327.395 229.248 327.563 229.682C327.745 230.102 327.983 230.473 328.277 230.795C328.585 231.103 328.935 231.348 329.327 231.53C329.733 231.712 330.167 231.803 330.629 231.803C331.385 231.803 332.001 231.656 332.477 231.362C332.967 231.068 333.373 230.711 333.695 230.291L334.703 231.32C334.255 231.908 333.695 232.377 333.023 232.727C332.365 233.077 331.539 233.252 330.545 233.252ZM330.398 223.76C329.908 223.76 329.474 223.851 329.096 224.033C328.718 224.215 328.403 224.453 328.151 224.747C327.899 225.041 327.703 225.377 327.563 225.755C327.437 226.133 327.367 226.511 327.353 226.889H333.422C333.408 226.511 333.331 226.133 333.191 225.755C333.065 225.377 332.876 225.041 332.624 224.747C332.372 224.453 332.057 224.215 331.679 224.033C331.315 223.851 330.888 223.76 330.398 223.76ZM345.228 233.252C344.752 233.252 344.311 233.175 343.905 233.021C343.513 232.867 343.17 232.65 342.876 232.37C342.582 232.09 342.351 231.761 342.183 231.383C342.029 230.991 341.952 230.564 341.952 230.102C341.952 229.206 342.274 228.485 342.918 227.939C343.562 227.393 344.479 227.085 345.669 227.015L348.399 226.847V226.112C348.399 225.314 348.203 224.74 347.811 224.39C347.433 224.026 346.887 223.844 346.173 223.844C345.571 223.844 345.053 223.956 344.619 224.18C344.185 224.404 343.849 224.649 343.611 224.915L342.603 223.907C342.967 223.459 343.457 223.095 344.073 222.815C344.703 222.521 345.417 222.374 346.215 222.374C346.929 222.374 347.531 222.472 348.021 222.668C348.511 222.85 348.903 223.102 349.197 223.424C349.505 223.746 349.722 224.124 349.848 224.558C349.988 224.992 350.058 225.454 350.058 225.944V233H348.483V231.236H348.357C348.077 231.866 347.685 232.363 347.181 232.727C346.677 233.077 346.026 233.252 345.228 233.252ZM345.48 231.824C346.348 231.824 347.048 231.572 347.58 231.068C348.126 230.55 348.399 229.864 348.399 229.01V228.107L345.753 228.296C344.353 228.408 343.653 228.996 343.653 230.06C343.653 230.592 343.821 231.019 344.157 231.341C344.507 231.663 344.948 231.824 345.48 231.824ZM356.631 233.252C355.693 233.252 355.007 232.972 354.573 232.412C354.139 231.852 353.922 231.082 353.922 230.102V223.991H352.074V222.626H353.922V219.812H355.581V222.626H358.584V223.991H355.581V229.955C355.581 230.627 355.707 231.096 355.959 231.362C356.225 231.628 356.561 231.761 356.967 231.761C357.247 231.761 357.499 231.712 357.723 231.614C357.947 231.502 358.157 231.355 358.353 231.173L359.109 232.349C358.465 232.951 357.639 233.252 356.631 233.252ZM370.452 233.252C369.444 233.252 368.597 233.07 367.911 232.706C367.239 232.342 366.693 231.887 366.273 231.341L367.344 230.291C367.666 230.697 368.065 231.033 368.541 231.299C369.031 231.565 369.647 231.698 370.389 231.698C371.285 231.698 371.992 231.488 372.51 231.068C373.028 230.634 373.287 229.997 373.287 229.157C373.287 228.345 373.021 227.75 372.489 227.372C371.957 226.994 371.278 226.805 370.452 226.805H369.192V225.293H370.389C371.215 225.293 371.824 225.076 372.216 224.642C372.622 224.208 372.825 223.641 372.825 222.941C372.825 222.535 372.755 222.192 372.615 221.912C372.489 221.618 372.307 221.38 372.069 221.198C371.845 221.002 371.579 220.862 371.271 220.778C370.977 220.694 370.669 220.652 370.347 220.652C369.703 220.652 369.143 220.778 368.667 221.03C368.191 221.282 367.792 221.597 367.47 221.975L366.504 220.925C366.91 220.421 367.435 219.994 368.079 219.644C368.737 219.28 369.528 219.098 370.452 219.098C371.012 219.098 371.544 219.182 372.048 219.35C372.566 219.504 373.014 219.735 373.392 220.043C373.784 220.337 374.092 220.715 374.316 221.177C374.54 221.625 374.652 222.143 374.652 222.731C374.652 223.515 374.449 224.18 374.043 224.726C373.637 225.258 373.056 225.657 372.3 225.923V226.049C372.678 226.119 373.035 226.245 373.371 226.427C373.721 226.595 374.022 226.819 374.274 227.099C374.54 227.365 374.743 227.687 374.883 228.065C375.037 228.443 375.114 228.863 375.114 229.325C375.114 229.927 375.002 230.473 374.778 230.963C374.568 231.439 374.26 231.852 373.854 232.202C373.448 232.538 372.958 232.797 372.384 232.979C371.81 233.161 371.166 233.252 370.452 233.252ZM380.272 224.852C379.88 224.852 379.572 224.726 379.348 224.474C379.124 224.222 379.012 223.935 379.012 223.613C379.012 223.277 379.124 222.99 379.348 222.752C379.572 222.5 379.88 222.374 380.272 222.374C380.678 222.374 380.986 222.5 381.196 222.752C381.42 222.99 381.532 223.277 381.532 223.613C381.532 223.935 381.42 224.222 381.196 224.474C380.986 224.726 380.678 224.852 380.272 224.852ZM380.272 233.252C379.88 233.252 379.572 233.126 379.348 232.874C379.124 232.622 379.012 232.335 379.012 232.013C379.012 231.677 379.124 231.39 379.348 231.152C379.572 230.9 379.88 230.774 380.272 230.774C380.678 230.774 380.986 230.9 381.196 231.152C381.42 231.39 381.532 231.677 381.532 232.013C381.532 232.335 381.42 232.622 381.196 232.874C380.986 233.126 380.678 233.252 380.272 233.252ZM390.858 230.186H384.495V228.779L390.522 219.35H392.517L386.469 228.674H390.858V224.558H392.58V228.674H394.47V230.186H392.58V233H390.858V230.186ZM402.19 233.252C401.322 233.252 400.573 233.07 399.943 232.706C399.327 232.342 398.816 231.845 398.41 231.215C398.018 230.571 397.724 229.822 397.528 228.968C397.346 228.1 397.255 227.169 397.255 226.175C397.255 225.181 397.346 224.257 397.528 223.403C397.724 222.535 398.018 221.786 398.41 221.156C398.816 220.512 399.327 220.008 399.943 219.644C400.573 219.28 401.322 219.098 402.19 219.098C403.058 219.098 403.8 219.28 404.416 219.644C405.046 220.008 405.557 220.512 405.949 221.156C406.355 221.786 406.649 222.535 406.831 223.403C407.027 224.257 407.125 225.181 407.125 226.175C407.125 227.169 407.027 228.1 406.831 228.968C406.649 229.822 406.355 230.571 405.949 231.215C405.557 231.845 405.046 232.342 404.416 232.706C403.8 233.07 403.058 233.252 402.19 233.252ZM402.19 231.74C402.708 231.74 403.163 231.614 403.555 231.362C403.947 231.096 404.269 230.725 404.521 230.249C404.787 229.759 404.983 229.171 405.109 228.485C405.235 227.799 405.298 227.029 405.298 226.175C405.298 225.321 405.235 224.551 405.109 223.865C404.983 223.179 404.787 222.598 404.521 222.122C404.269 221.632 403.947 221.261 403.555 221.009C403.163 220.743 402.708 220.61 402.19 220.61C401.672 220.61 401.217 220.743 400.825 221.009C400.447 221.261 400.125 221.632 399.859 222.122C399.607 222.598 399.411 223.179 399.271 223.865C399.145 224.551 399.082 225.321 399.082 226.175C399.082 227.029 399.145 227.799 399.271 228.485C399.411 229.171 399.607 229.759 399.859 230.249C400.125 230.725 400.447 231.096 400.825 231.362C401.217 231.614 401.672 231.74 402.19 231.74ZM415.458 219.35H419.721C421.121 219.35 422.192 219.742 422.934 220.526C423.69 221.296 424.068 222.346 424.068 223.676C424.068 225.02 423.683 226.084 422.913 226.868C422.143 227.638 421.079 228.023 419.721 228.023H417.243V233H415.458V219.35ZM419.595 226.532C420.477 226.532 421.135 226.28 421.569 225.776C422.017 225.258 422.241 224.558 422.241 223.676C422.241 222.794 422.017 222.101 421.569 221.597C421.135 221.093 420.477 220.841 419.595 220.841H417.243V226.532H419.595ZM426.84 219.35H429.234L433.917 230.984H434.043L438.726 219.35H441.162V233H439.482V221.723H439.356L434.862 233H433.098L428.604 221.723H428.478V233H426.84V219.35Z" fill="black" fill-opacity="0.64"/>
</g>
</g>
<defs>
<filter id="filter0_f_14465_4978" x="56" y="-228" width="922" height="633" filterUnits="userSpaceOnUse" color-interpolation-filters="sRGB">
<feFlood flood-opacity="0" result="BackgroundImageFix"/>
<feBlend mode="normal" in="SourceGraphic" in2="BackgroundImageFix" result="shape"/>
<feGaussianBlur stdDeviation="50" result="effect1_foregroundBlur_14465_4978"/>
</filter>
<clipPath id="clip0_14465_4978">
<rect width="594" height="216" fill="white" transform="translate(220 25)"/>
</clipPath>
<clipPath id="clip1_14465_4978">
<rect width="31.5" height="31.5" fill="white" transform="translate(222.25 27.25)"/>
</clipPath>
<clipPath id="clip2_14465_4978">
<rect width="21" height="21" fill="white" transform="translate(779.5 32.5)"/>
</clipPath>
<clipPath id="clip3_14465_4978">
<rect width="21" height="21" fill="white" transform="translate(779.5 146.5)"/>
</clipPath>
</defs>
</svg>
