<svg width="32" height="24" viewBox="0 0 32 24" fill="none" xmlns="http://www.w3.org/2000/svg">
<path d="M0 12C0 5.37258 5.37258 0 12 0H20C26.6274 0 32 5.37258 32 12C32 18.6274 26.6274 24 20 24H12C5.37258 24 0 18.6274 0 12Z" fill="#2B2A28"/>
<g clip-path="url(#clip0_14465_5244)">
<path d="M23.917 4L24 4.08301V19.917L23.917 20H8.08301L8 19.917V4.08301L8.08301 4H23.917ZM8.16504 4.16504V19.834H23.834V4.16504H8.16504ZM20.7314 5C21.9843 5 23 6.01569 23 7.26855V16.7314C23 17.9843 21.9843 19 20.7314 19H11.2686C10.0157 19 9 17.9843 9 16.7314V7.26855C9 6.01569 10.0157 5 11.2686 5H20.7314Z" fill="white" fill-opacity="0.9"/>
</g>
<defs>
<clipPath id="clip0_14465_5244">
<rect width="16" height="16" fill="white" transform="translate(8 4)"/>
</clipPath>
</defs>
</svg>
