<svg width="48" height="48" viewBox="0 0 48 48" fill="none" xmlns="http://www.w3.org/2000/svg">
<path d="M0 24C0 10.7452 10.7452 0 24 0C37.2548 0 48 10.7452 48 24C48 37.2548 37.2548 48 24 48C10.7452 48 0 37.2548 0 24Z" fill="#F36805"/>
<circle cx="24" cy="24" r="24" fill="black" fill-opacity="0.12"/>
<path fill-rule="evenodd" clip-rule="evenodd" d="M24 36C30.6274 36 36 30.6274 36 24C36 17.3726 30.6274 12 24 12V14.1818C29.4224 14.1818 33.8182 18.5776 33.8182 24C33.8182 29.4224 29.4224 33.8182 24 33.8182C18.5776 33.8182 14.1818 29.4224 14.1818 24H12C12 30.6274 17.3726 36 24 36Z" fill="white"/>
<mask id="mask0_28020_2819" style="mask-type:luminance" maskUnits="userSpaceOnUse" x="12" y="12" width="24" height="24">
<path fill-rule="evenodd" clip-rule="evenodd" d="M24 36C30.6274 36 36 30.6274 36 24C36 17.3726 30.6274 12 24 12V14.1818C29.4224 14.1818 33.8182 18.5776 33.8182 24C33.8182 29.4224 29.4224 33.8182 24 33.8182C18.5776 33.8182 14.1818 29.4224 14.1818 24H12C12 30.6274 17.3726 36 24 36Z" fill="white"/>
</mask>
<g mask="url(#mask0_28020_2819)">
</g>
</svg>
