<svg width="427" height="97" fill="none" xmlns="http://www.w3.org/2000/svg"><rect x="40" y="13" width="56" height="56" rx="28" fill="#F36805"/><g clip-path="url(#structure__a)"><path fill-rule="evenodd" clip-rule="evenodd" d="M54.145 27h27.71l.145.145v27.71l-.145.145h-27.71L54 54.855v-27.71l.145-.145Zm27.564 27.71V27.29H54.29v27.42h27.42ZM59.72 28.75h16.56a3.97 3.97 0 0 1 3.97 3.97v16.56a3.97 3.97 0 0 1-3.97 3.97H59.72a3.97 3.97 0 0 1-3.97-3.97V32.72a3.97 3.97 0 0 1 3.97-3.97Z" fill="#fff"/></g><path opacity=".5" fill="#C1DADE" d="M40 13h14v64H40z"/><path d="M34.14 92.16h2.232v-5.88l-2.136.984-.312-.672 2.628-1.392h.84v6.96h2.004V93H34.14v-.84Zm10.375-.768H40.88v-.804l3.444-5.388h1.14l-3.456 5.328h2.508v-2.352h.984v2.352h1.08v.864H45.5V93h-.984v-1.608Zm3.896-4.32h.912v1.212h.072c.072-.2.172-.384.3-.552.136-.168.292-.312.468-.432.184-.12.384-.212.6-.276.224-.064.456-.096.696-.096.392 0 .748.08 1.068.24.328.152.608.368.84.648.232.272.408.6.528.984.128.384.192.8.192 1.248 0 .448-.064.864-.192 1.248a2.91 2.91 0 0 1-.528.984 2.458 2.458 0 0 1-1.908.864c-.488 0-.908-.116-1.26-.348a1.97 1.97 0 0 1-.756-.888h-.072v3.312h-.96v-8.148Zm2.808 5.208c.264 0 .508-.044.732-.132.232-.096.432-.236.6-.42.176-.192.312-.428.408-.708.096-.28.144-.608.144-.984s-.048-.704-.144-.984a1.865 1.865 0 0 0-.408-.696 1.49 1.49 0 0 0-.6-.42 1.839 1.839 0 0 0-.732-.144c-.256 0-.496.048-.72.144-.224.088-.42.228-.588.42-.168.184-.3.416-.396.696-.096.28-.144.608-.144.984s.048.704.144.984c.096.28.228.516.396.708.168.184.364.324.588.42.224.088.464.132.72.132Zm5.651-2.292-1.98-2.916h1.152l1.404 2.22h.048l1.452-2.22h1.032l-1.98 2.868L60.074 93h-1.152l-1.5-2.364h-.048L55.826 93h-1.032l2.076-3.012Z" fill="#3C4C4F"/><path opacity=".5" fill="#C1DADE" d="M82 13h14v64H82z"/><path d="M76.14 92.16h2.232v-5.88l-2.136.984-.312-.672 2.628-1.392h.84v6.96h2.004V93H76.14v-.84Zm10.375-.768H82.88v-.804l3.444-5.388h1.14l-3.456 5.328h2.508v-2.352h.984v2.352h1.08v.864H87.5V93h-.984v-1.608Zm3.896-4.32h.912v1.212h.072c.072-.2.172-.384.3-.552.136-.168.292-.312.468-.432.184-.12.384-.212.6-.276.224-.064.456-.096.696-.096.392 0 .748.08 1.068.24.328.152.608.368.84.648.232.272.408.6.528.984.128.384.192.8.192 1.248 0 .448-.064.864-.192 1.248a2.91 2.91 0 0 1-.528.984 2.458 2.458 0 0 1-1.908.864c-.488 0-.908-.116-1.26-.348a1.97 1.97 0 0 1-.756-.888h-.072v3.312h-.96v-8.148Zm2.808 5.208c.264 0 .508-.044.732-.132.232-.096.432-.236.6-.42.176-.192.312-.428.408-.708.096-.28.144-.608.144-.984s-.048-.704-.144-.984a1.865 1.865 0 0 0-.408-.696 1.49 1.49 0 0 0-.6-.42 1.839 1.839 0 0 0-.732-.144c-.256 0-.496.048-.72.144-.224.088-.42.228-.588.42-.168.184-.3.416-.396.696-.096.28-.144.608-.144.984s.048.704.144.984c.096.28.228.516.396.708.168.184.364.324.588.42.224.088.464.132.72.132Zm5.651-2.292-1.98-2.916h1.152l1.404 2.22h.048l1.452-2.22h1.032l-1.98 2.868 2.076 3.06h-1.152l-1.5-2.364h-.048L97.826 93h-1.032l2.076-3.012ZM1.14 23.16h2.232v-5.88l-2.136.984-.312-.672L3.552 16.2h.84v6.96h2.004V24H1.14v-.84Zm10.375-.768H7.88v-.804l3.444-5.388h1.14l-3.456 5.328h2.508v-2.352h.984v2.352h1.08v.864H12.5V24h-.984v-1.608Zm3.896-4.32h.912v1.212h.072c.072-.2.172-.384.3-.552.136-.168.292-.312.468-.432.184-.12.384-.212.6-.276.224-.064.456-.096.696-.096.392 0 .748.08 1.068.24.328.152.608.368.84.648.232.272.408.6.528.984.128.384.192.8.192 1.248 0 .448-.064.864-.192 1.248a2.91 2.91 0 0 1-.528.984 2.458 2.458 0 0 1-1.908.864c-.488 0-.908-.116-1.26-.348a1.97 1.97 0 0 1-.756-.888h-.072v3.312h-.96v-8.148Zm2.808 5.208c.264 0 .508-.044.732-.132.232-.096.432-.236.6-.42.176-.192.312-.428.408-.708.096-.28.144-.608.144-.984s-.048-.704-.144-.984a1.865 1.865 0 0 0-.408-.696 1.49 1.49 0 0 0-.6-.42 1.839 1.839 0 0 0-.732-.144c-.256 0-.496.048-.72.144-.224.088-.42.228-.588.42-.168.184-.3.416-.396.696-.096.28-.144.608-.144.984s.048.704.144.984c.096.28.228.516.396.708.168.184.364.324.588.42.224.088.464.132.72.132Zm5.651-2.292-1.98-2.916h1.152l1.404 2.22h.048l1.452-2.22h1.032l-1.98 2.868L27.074 24h-1.152l-1.5-2.364h-.048L22.826 24h-1.032l2.076-3.012Z" fill="#3C4C4F"/><path opacity=".5" fill="#F2A6B0" d="M32 13h64v14H32z"/><path d="M1.14 65.16h2.232v-5.88l-2.136.984-.312-.672L3.552 58.2h.84v6.96h2.004V66H1.14v-.84Zm10.375-.768H7.88v-.804l3.444-5.388h1.14l-3.456 5.328h2.508v-2.352h.984v2.352h1.08v.864H12.5V66h-.984v-1.608Zm3.896-4.32h.912v1.212h.072c.072-.2.172-.384.3-.552.136-.168.292-.312.468-.432.184-.12.384-.212.6-.276.224-.064.456-.096.696-.096.392 0 .748.08 1.068.24.328.152.608.368.84.648.232.272.408.6.528.984.128.384.192.8.192 1.248 0 .448-.064.864-.192 1.248a2.91 2.91 0 0 1-.528.984 2.458 2.458 0 0 1-1.908.864c-.488 0-.908-.116-1.26-.348a1.97 1.97 0 0 1-.756-.888h-.072v3.312h-.96v-8.148Zm2.808 5.208c.264 0 .508-.044.732-.132.232-.096.432-.236.6-.42.176-.192.312-.428.408-.708.096-.28.144-.608.144-.984s-.048-.704-.144-.984a1.865 1.865 0 0 0-.408-.696 1.49 1.49 0 0 0-.6-.42 1.839 1.839 0 0 0-.732-.144c-.256 0-.496.048-.72.144-.224.088-.42.228-.588.42-.168.184-.3.416-.396.696-.096.28-.144.608-.144.984s.048.704.144.984c.096.28.228.516.396.708.168.184.364.324.588.42.224.088.464.132.72.132Zm5.651-2.292-1.98-2.916h1.152l1.404 2.22h.048l1.452-2.22h1.032l-1.98 2.868L27.074 66h-1.152l-1.5-2.364h-.048L22.826 66h-1.032l2.076-3.012Z" fill="#3C4C4F"/><path opacity=".5" fill="#F2A6B0" d="M32 55h64v14H32z"/><rect x="169" y="15.5" width="48" height="48" rx="24" fill="#F36805"/><g clip-path="url(#structure__b)"><path fill-rule="evenodd" clip-rule="evenodd" d="M181.124 27.5h23.752l.124.124v23.752l-.124.124h-23.752l-.124-.124V27.624l.124-.124Zm23.627 23.75V27.749h-23.503v23.503h23.503ZM185.903 29h14.194a3.403 3.403 0 0 1 3.403 3.403v14.194A3.403 3.403 0 0 1 200.097 50h-14.194a3.403 3.403 0 0 1-3.403-3.403V32.403A3.403 3.403 0 0 1 185.903 29Z" fill="#fff"/></g><path d="M130.14 24.66h2.232v-5.88l-2.136.984-.312-.672 2.628-1.392h.84v6.96h2.004v.84h-5.256v-.84Zm7.231-.456c0-.32.056-.6.168-.84.112-.248.264-.472.456-.672.2-.208.432-.4.696-.576.272-.176.564-.356.876-.54.248-.152.468-.292.66-.42.192-.136.352-.276.48-.42.128-.144.224-.296.288-.456.064-.16.096-.344.096-.552 0-.424-.136-.744-.408-.96-.264-.224-.604-.336-1.02-.336-.416 0-.776.084-1.08.252a2.31 2.31 0 0 0-.768.648l-.552-.576c.24-.36.556-.648.948-.864.392-.224.864-.336 1.416-.336.408 0 .768.056 1.08.168.312.104.572.252.78.444.216.184.376.408.48.672.112.256.168.536.168.84 0 .344-.06.648-.18.912s-.28.504-.48.72c-.2.216-.432.412-.696.588-.256.168-.528.332-.816.492-.256.144-.484.28-.684.408-.2.128-.368.264-.504.408a1.67 1.67 0 0 0-.3.48 1.827 1.827 0 0 0-.096.624v.324h3.948v.864h-4.956v-1.296Zm7.04-4.632h.912v1.212h.072c.072-.2.172-.384.3-.552.136-.168.292-.312.468-.432.184-.12.384-.212.6-.276.224-.064.456-.096.696-.096.392 0 .748.08 1.068.24.328.152.608.368.84.648.232.272.408.6.528.984.128.384.192.8.192 1.248 0 .448-.064.864-.192 1.248a2.91 2.91 0 0 1-.528.984 2.458 2.458 0 0 1-1.908.864c-.488 0-.908-.116-1.26-.348a1.97 1.97 0 0 1-.756-.888h-.072v3.312h-.96v-8.148Zm2.808 5.208c.264 0 .508-.044.732-.132.232-.096.432-.236.6-.42.176-.192.312-.428.408-.708.096-.28.144-.608.144-.984s-.048-.704-.144-.984a1.865 1.865 0 0 0-.408-.696 1.49 1.49 0 0 0-.6-.42 1.839 1.839 0 0 0-.732-.144c-.256 0-.496.048-.72.144-.224.088-.42.228-.588.42-.168.184-.3.416-.396.696-.096.28-.144.608-.144.984s.048.704.144.984c.096.28.228.516.396.708.168.184.364.324.588.42.224.088.464.132.72.132Zm5.651-2.292-1.98-2.916h1.152l1.404 2.22h.048l1.452-2.22h1.032l-1.98 2.868 2.076 3.06h-1.152l-1.5-2.364h-.048l-1.548 2.364h-1.032l2.076-3.012Z" fill="#3C4C4F"/><path opacity=".5" fill="#F2A6B0" d="M161 15.5h56v12h-56z"/><path d="M130.14 60.66h2.232v-5.88l-2.136.984-.312-.672 2.628-1.392h.84v6.96h2.004v.84h-5.256v-.84Zm7.231-.456c0-.32.056-.6.168-.84.112-.248.264-.472.456-.672.2-.208.432-.4.696-.576.272-.176.564-.356.876-.54.248-.152.468-.292.66-.42.192-.136.352-.276.48-.42.128-.144.224-.296.288-.456.064-.16.096-.344.096-.552 0-.424-.136-.744-.408-.96-.264-.224-.604-.336-1.02-.336-.416 0-.776.084-1.08.252a2.31 2.31 0 0 0-.768.648l-.552-.576c.24-.36.556-.648.948-.864.392-.224.864-.336 1.416-.336.408 0 .768.056 1.08.168.312.104.572.252.78.444.216.184.376.408.48.672.112.256.168.536.168.84 0 .344-.06.648-.18.912s-.28.504-.48.72c-.2.216-.432.412-.696.588-.256.168-.528.332-.816.492-.256.144-.484.28-.684.408-.2.128-.368.264-.504.408a1.67 1.67 0 0 0-.3.48 1.827 1.827 0 0 0-.096.624v.324h3.948v.864h-4.956v-1.296Zm7.04-4.632h.912v1.212h.072c.072-.2.172-.384.3-.552.136-.168.292-.312.468-.432.184-.12.384-.212.6-.276.224-.064.456-.096.696-.096.392 0 .748.08 1.068.24.328.152.608.368.84.648.232.272.408.6.528.984.128.384.192.8.192 1.248 0 .448-.064.864-.192 1.248a2.91 2.91 0 0 1-.528.984 2.458 2.458 0 0 1-1.908.864c-.488 0-.908-.116-1.26-.348a1.97 1.97 0 0 1-.756-.888h-.072v3.312h-.96v-8.148Zm2.808 5.208c.264 0 .508-.044.732-.132.232-.096.432-.236.6-.42.176-.192.312-.428.408-.708.096-.28.144-.608.144-.984s-.048-.704-.144-.984a1.865 1.865 0 0 0-.408-.696 1.49 1.49 0 0 0-.6-.42 1.839 1.839 0 0 0-.732-.144c-.256 0-.496.048-.72.144-.224.088-.42.228-.588.42-.168.184-.3.416-.396.696-.096.28-.144.608-.144.984s.048.704.144.984c.096.28.228.516.396.708.168.184.364.324.588.42.224.088.464.132.72.132Zm5.651-2.292-1.98-2.916h1.152l1.404 2.22h.048l1.452-2.22h1.032l-1.98 2.868 2.076 3.06h-1.152l-1.5-2.364h-.048l-1.548 2.364h-1.032l2.076-3.012Z" fill="#3C4C4F"/><path opacity=".5" fill="#F2A6B0" d="M161 51.5h56v12h-56z"/><path opacity=".5" fill="#C1DADE" d="M169 15.5h12v48h-12z"/><path d="M162.14 78.66h2.232v-5.88l-2.136.984-.312-.672 2.628-1.392h.84v6.96h2.004v.84h-5.256v-.84Zm7.231-.456c0-.32.056-.6.168-.84.112-.248.264-.472.456-.672.2-.208.432-.4.696-.576.272-.176.564-.356.876-.54.248-.152.468-.292.66-.42.192-.136.352-.276.48-.42.128-.144.224-.296.288-.456.064-.16.096-.344.096-.552 0-.424-.136-.744-.408-.96-.264-.224-.604-.336-1.02-.336-.416 0-.776.084-1.08.252a2.31 2.31 0 0 0-.768.648l-.552-.576c.24-.36.556-.648.948-.864.392-.224.864-.336 1.416-.336.408 0 .768.056 1.08.168.312.104.572.252.78.444.216.184.376.408.48.672.112.256.168.536.168.84 0 .344-.06.648-.18.912s-.28.504-.48.72c-.2.216-.432.412-.696.588-.256.168-.528.332-.816.492-.256.144-.484.28-.684.408-.2.128-.368.264-.504.408a1.67 1.67 0 0 0-.3.48 1.827 1.827 0 0 0-.096.624v.324h3.948v.864h-4.956v-1.296Zm7.04-4.632h.912v1.212h.072c.072-.2.172-.384.3-.552.136-.168.292-.312.468-.432.184-.12.384-.212.6-.276.224-.064.456-.096.696-.096.392 0 .748.08 1.068.24.328.152.608.368.84.648.232.272.408.6.528.984.128.384.192.8.192 1.248 0 .448-.064.864-.192 1.248a2.91 2.91 0 0 1-.528.984 2.458 2.458 0 0 1-1.908.864c-.488 0-.908-.116-1.26-.348a1.97 1.97 0 0 1-.756-.888h-.072v3.312h-.96v-8.148Zm2.808 5.208c.264 0 .508-.044.732-.132.232-.096.432-.236.6-.42.176-.192.312-.428.408-.708.096-.28.144-.608.144-.984s-.048-.704-.144-.984a1.865 1.865 0 0 0-.408-.696 1.49 1.49 0 0 0-.6-.42 1.839 1.839 0 0 0-.732-.144c-.256 0-.496.048-.72.144-.224.088-.42.228-.588.42-.168.184-.3.416-.396.696-.096.28-.144.608-.144.984s.048.704.144.984c.096.28.228.516.396.708.168.184.364.324.588.42.224.088.464.132.72.132Zm5.651-2.292-1.98-2.916h1.152l1.404 2.22h.048l1.452-2.22h1.032l-1.98 2.868 2.076 3.06h-1.152l-1.5-2.364h-.048l-1.548 2.364h-1.032l2.076-3.012Z" fill="#3C4C4F"/><path opacity=".5" fill="#C1DADE" d="M205 15.5h12v48h-12z"/><path d="M198.14 78.66h2.232v-5.88l-2.136.984-.312-.672 2.628-1.392h.84v6.96h2.004v.84h-5.256v-.84Zm7.231-.456c0-.32.056-.6.168-.84.112-.248.264-.472.456-.672.2-.208.432-.4.696-.576.272-.176.564-.356.876-.54.248-.152.468-.292.66-.42.192-.136.352-.276.48-.42.128-.144.224-.296.288-.456.064-.16.096-.344.096-.552 0-.424-.136-.744-.408-.96-.264-.224-.604-.336-1.02-.336-.416 0-.776.084-1.08.252a2.31 2.31 0 0 0-.768.648l-.552-.576c.24-.36.556-.648.948-.864.392-.224.864-.336 1.416-.336.408 0 .768.056 1.08.168.312.104.572.252.78.444.216.184.376.408.48.672.112.256.168.536.168.84 0 .344-.06.648-.18.912s-.28.504-.48.72c-.2.216-.432.412-.696.588-.256.168-.528.332-.816.492-.256.144-.484.28-.684.408-.2.128-.368.264-.504.408a1.67 1.67 0 0 0-.3.48 1.827 1.827 0 0 0-.096.624v.324h3.948v.864h-4.956v-1.296Zm7.04-4.632h.912v1.212h.072c.072-.2.172-.384.3-.552.136-.168.292-.312.468-.432.184-.12.384-.212.6-.276.224-.064.456-.096.696-.096.392 0 .748.08 1.068.24.328.152.608.368.84.648.232.272.408.6.528.984.128.384.192.8.192 1.248 0 .448-.064.864-.192 1.248a2.91 2.91 0 0 1-.528.984 2.458 2.458 0 0 1-1.908.864c-.488 0-.908-.116-1.26-.348a1.97 1.97 0 0 1-.756-.888h-.072v3.312h-.96v-8.148Zm2.808 5.208c.264 0 .508-.044.732-.132.232-.096.432-.236.6-.42.176-.192.312-.428.408-.708.096-.28.144-.608.144-.984s-.048-.704-.144-.984a1.865 1.865 0 0 0-.408-.696 1.49 1.49 0 0 0-.6-.42 1.839 1.839 0 0 0-.732-.144c-.256 0-.496.048-.72.144-.224.088-.42.228-.588.42-.168.184-.3.416-.396.696-.096.28-.144.608-.144.984s.048.704.144.984c.096.28.228.516.396.708.168.184.364.324.588.42.224.088.464.132.72.132Zm5.651-2.292-1.98-2.916h1.152l1.404 2.22h.048l1.452-2.22h1.032l-1.98 2.868 2.076 3.06h-1.152l-1.5-2.364h-.048l-1.548 2.364h-1.032l2.076-3.012Z" fill="#3C4C4F"/><rect x="282" y="16.5" width="40" height="40" rx="20" fill="#F36805"/><g clip-path="url(#structure__c)"><path fill-rule="evenodd" clip-rule="evenodd" d="M290.124 24.5h23.752l.124.124v23.752l-.124.124h-23.752l-.124-.124V24.624l.124-.124Zm23.627 23.75V24.749h-23.503v23.503h23.503ZM294.903 26h14.194a3.403 3.403 0 0 1 3.403 3.403v14.194A3.403 3.403 0 0 1 309.097 47h-14.194a3.403 3.403 0 0 1-3.403-3.403V29.403A3.403 3.403 0 0 1 294.903 26Z" fill="#fff"/></g><path d="M252.6 24.644c-.464 0-.868-.06-1.212-.18a2.514 2.514 0 0 1-.84-.48 2.058 2.058 0 0 1-.504-.708 2.247 2.247 0 0 1-.168-.864c0-.224.036-.44.108-.648.072-.208.176-.396.312-.564.136-.176.296-.324.48-.444.192-.12.408-.2.648-.24v-.072c-.2-.064-.38-.16-.54-.288a2.25 2.25 0 0 1-.396-.432 2.078 2.078 0 0 1-.24-.504 1.697 1.697 0 0 1-.084-.516c0-.28.048-.548.144-.804.104-.264.256-.492.456-.684.2-.2.452-.36.756-.48s.664-.18 1.08-.18a2.9 2.9 0 0 1 1.068.18c.304.12.556.28.756.48.2.192.348.42.444.684.104.256.156.524.156.804 0 .168-.028.34-.084.516a1.86 1.86 0 0 1-.252.504c-.104.16-.236.304-.396.432a1.538 1.538 0 0 1-.528.288v.072c.24.04.452.12.636.24.192.12.356.268.492.444.136.168.24.356.312.564.072.208.108.424.108.648 0 .304-.056.592-.168.864-.112.264-.28.5-.504.708-.224.2-.508.36-.852.48-.336.12-.732.18-1.188.18Zm0-4.536c.176 0 .348-.024.516-.072.168-.056.316-.136.444-.24.128-.112.228-.248.3-.408.08-.168.12-.368.12-.6 0-.24-.04-.444-.12-.612a1.044 1.044 0 0 0-.3-.408 1.141 1.141 0 0 0-.444-.24 1.659 1.659 0 0 0-1.044 0 1.141 1.141 0 0 0-.444.24c-.128.104-.232.24-.312.408a1.551 1.551 0 0 0-.108.612c0 .232.036.432.108.6.08.16.184.296.312.408.128.104.276.184.444.24.168.048.344.072.528.072Zm0 3.648c.48 0 .876-.12 1.188-.36.32-.248.48-.604.48-1.068 0-.472-.16-.824-.48-1.056-.312-.232-.708-.348-1.188-.348s-.88.116-1.2.348c-.32.232-.48.584-.48 1.056 0 .464.16.82.48 1.068.32.24.72.36 1.2.36Zm4.615-5.184h.912v1.212h.072c.072-.2.172-.384.3-.552.136-.168.292-.312.468-.432.184-.12.384-.212.6-.276.224-.064.456-.096.696-.096.392 0 .748.08 1.068.24.328.152.608.368.84.648.232.272.408.6.528.984.128.384.192.8.192 1.248 0 .448-.064.864-.192 1.248a2.91 2.91 0 0 1-.528.984 2.458 2.458 0 0 1-1.908.864c-.488 0-.908-.116-1.26-.348a1.97 1.97 0 0 1-.756-.888h-.072v3.312h-.96v-8.148Zm2.808 5.208c.264 0 .508-.044.732-.132.232-.096.432-.236.6-.42.176-.192.312-.428.408-.708.096-.28.144-.608.144-.984s-.048-.704-.144-.984a1.865 1.865 0 0 0-.408-.696 1.49 1.49 0 0 0-.6-.42 1.839 1.839 0 0 0-.732-.144c-.256 0-.496.048-.72.144-.224.088-.42.228-.588.42-.168.184-.3.416-.396.696-.096.28-.144.608-.144.984s.048.704.144.984c.096.28.228.516.396.708.168.184.364.324.588.42.224.088.464.132.72.132Zm5.652-2.292-1.98-2.916h1.152l1.404 2.22h.048l1.452-2.22h1.032l-1.98 2.868 2.076 3.06h-1.152l-1.5-2.364h-.048l-1.548 2.364h-1.032l2.076-3.012Z" fill="#3C4C4F"/><path opacity=".5" fill="#F2A6B0" d="M274 16.5h48v8h-48z"/><path d="M252.6 56.644c-.464 0-.868-.06-1.212-.18a2.514 2.514 0 0 1-.84-.48 2.058 2.058 0 0 1-.504-.708 2.247 2.247 0 0 1-.168-.864c0-.224.036-.44.108-.648.072-.208.176-.396.312-.564.136-.176.296-.324.48-.444.192-.12.408-.2.648-.24v-.072c-.2-.064-.38-.16-.54-.288a2.25 2.25 0 0 1-.396-.432 2.078 2.078 0 0 1-.24-.504 1.697 1.697 0 0 1-.084-.516c0-.28.048-.548.144-.804.104-.264.256-.492.456-.684.2-.2.452-.36.756-.48s.664-.18 1.08-.18a2.9 2.9 0 0 1 1.068.18c.304.12.556.28.756.48.2.192.348.42.444.684.104.256.156.524.156.804 0 .168-.028.34-.084.516a1.86 1.86 0 0 1-.252.504c-.104.16-.236.304-.396.432a1.538 1.538 0 0 1-.528.288v.072c.24.04.452.12.636.24.192.12.356.268.492.444.136.168.24.356.312.564.072.208.108.424.108.648 0 .304-.056.592-.168.864-.112.264-.28.5-.504.708-.224.2-.508.36-.852.48-.336.12-.732.18-1.188.18Zm0-4.536c.176 0 .348-.024.516-.072.168-.056.316-.136.444-.24.128-.112.228-.248.3-.408.08-.168.12-.368.12-.6 0-.24-.04-.444-.12-.612a1.044 1.044 0 0 0-.3-.408 1.141 1.141 0 0 0-.444-.24 1.659 1.659 0 0 0-1.044 0 1.141 1.141 0 0 0-.444.24c-.128.104-.232.24-.312.408a1.551 1.551 0 0 0-.108.612c0 .232.036.432.108.6.08.16.184.296.312.408.128.104.276.184.444.24.168.048.344.072.528.072Zm0 3.648c.48 0 .876-.12 1.188-.36.32-.248.48-.604.48-1.068 0-.472-.16-.824-.48-1.056-.312-.232-.708-.348-1.188-.348s-.88.116-1.2.348c-.32.232-.48.584-.48 1.056 0 .464.16.82.48 1.068.32.24.72.36 1.2.36Zm4.615-5.184h.912v1.212h.072c.072-.2.172-.384.3-.552.136-.168.292-.312.468-.432.184-.12.384-.212.6-.276.224-.064.456-.096.696-.096.392 0 .748.08 1.068.24.328.152.608.368.84.648.232.272.408.6.528.984.128.384.192.8.192 1.248 0 .448-.064.864-.192 1.248a2.91 2.91 0 0 1-.528.984 2.458 2.458 0 0 1-1.908.864c-.488 0-.908-.116-1.26-.348a1.97 1.97 0 0 1-.756-.888h-.072v3.312h-.96v-8.148Zm2.808 5.208c.264 0 .508-.044.732-.132.232-.096.432-.236.6-.42.176-.192.312-.428.408-.708.096-.28.144-.608.144-.984s-.048-.704-.144-.984a1.865 1.865 0 0 0-.408-.696 1.49 1.49 0 0 0-.6-.42 1.839 1.839 0 0 0-.732-.144c-.256 0-.496.048-.72.144-.224.088-.42.228-.588.42-.168.184-.3.416-.396.696-.096.28-.144.608-.144.984s.048.704.144.984c.096.28.228.516.396.708.168.184.364.324.588.42.224.088.464.132.72.132Zm5.652-2.292-1.98-2.916h1.152l1.404 2.22h.048l1.452-2.22h1.032l-1.98 2.868 2.076 3.06h-1.152l-1.5-2.364h-.048l-1.548 2.364h-1.032l2.076-3.012Z" fill="#3C4C4F"/><path opacity=".5" fill="#F2A6B0" d="M274 48.5h48v8h-48z"/><path opacity=".5" fill="#C1DADE" d="M282 16.5h8v48h-8z"/><path d="M279.1 80.644c-.464 0-.868-.06-1.212-.18a2.514 2.514 0 0 1-.84-.48 2.058 2.058 0 0 1-.504-.708 2.247 2.247 0 0 1-.168-.864c0-.224.036-.44.108-.648.072-.208.176-.396.312-.564.136-.176.296-.324.48-.444.192-.12.408-.2.648-.24v-.072c-.2-.064-.38-.16-.54-.288a2.25 2.25 0 0 1-.396-.432 2.078 2.078 0 0 1-.24-.504 1.697 1.697 0 0 1-.084-.516c0-.28.048-.548.144-.804.104-.264.256-.492.456-.684.2-.2.452-.36.756-.48s.664-.18 1.08-.18a2.9 2.9 0 0 1 1.068.18c.304.12.556.28.756.48.2.192.348.42.444.684.104.256.156.524.156.804 0 .168-.028.34-.084.516a1.86 1.86 0 0 1-.252.504c-.104.16-.236.304-.396.432a1.538 1.538 0 0 1-.528.288v.072c.24.04.452.12.636.24.192.12.356.268.492.444.136.168.24.356.312.564.072.208.108.424.108.648 0 .304-.056.592-.168.864-.112.264-.28.5-.504.708-.224.2-.508.36-.852.48-.336.12-.732.18-1.188.18Zm0-4.536c.176 0 .348-.024.516-.072.168-.056.316-.136.444-.24.128-.112.228-.248.3-.408.08-.168.12-.368.12-.6 0-.24-.04-.444-.12-.612a1.044 1.044 0 0 0-.3-.408 1.141 1.141 0 0 0-.444-.24 1.659 1.659 0 0 0-1.044 0 1.141 1.141 0 0 0-.444.24c-.128.104-.232.24-.312.408a1.551 1.551 0 0 0-.108.612c0 .232.036.432.108.6.08.16.184.296.312.408.128.104.276.184.444.24.168.048.344.072.528.072Zm0 3.648c.48 0 .876-.12 1.188-.36.32-.248.48-.604.48-1.068 0-.472-.16-.824-.48-1.056-.312-.232-.708-.348-1.188-.348s-.88.116-1.2.348c-.32.232-.48.584-.48 1.056 0 .464.16.82.48 1.068.32.24.72.36 1.2.36Zm4.615-5.184h.912v1.212h.072c.072-.2.172-.384.3-.552.136-.168.292-.312.468-.432.184-.12.384-.212.6-.276.224-.064.456-.096.696-.096.392 0 .748.08 1.068.24.328.152.608.368.84.648.232.272.408.6.528.984.128.384.192.8.192 1.248 0 .448-.064.864-.192 1.248a2.91 2.91 0 0 1-.528.984 2.458 2.458 0 0 1-1.908.864c-.488 0-.908-.116-1.26-.348a1.97 1.97 0 0 1-.756-.888h-.072v3.312h-.96v-8.148Zm2.808 5.208c.264 0 .508-.044.732-.132.232-.096.432-.236.6-.42.176-.192.312-.428.408-.708.096-.28.144-.608.144-.984s-.048-.704-.144-.984a1.865 1.865 0 0 0-.408-.696 1.49 1.49 0 0 0-.6-.42 1.839 1.839 0 0 0-.732-.144c-.256 0-.496.048-.72.144-.224.088-.42.228-.588.42-.168.184-.3.416-.396.696-.096.28-.144.608-.144.984s.048.704.144.984c.096.28.228.516.396.708.168.184.364.324.588.42.224.088.464.132.72.132Zm5.652-2.292-1.98-2.916h1.152l1.404 2.22h.048l1.452-2.22h1.032l-1.98 2.868 2.076 3.06h-1.152l-1.5-2.364h-.048l-1.548 2.364h-1.032l2.076-3.012Z" fill="#3C4C4F"/><path opacity=".5" fill="#C1DADE" d="M314 16.5h8v48h-8z"/><path d="M311.1 80.644c-.464 0-.868-.06-1.212-.18a2.514 2.514 0 0 1-.84-.48 2.058 2.058 0 0 1-.504-.708 2.247 2.247 0 0 1-.168-.864c0-.224.036-.44.108-.648.072-.208.176-.396.312-.564.136-.176.296-.324.48-.444.192-.12.408-.2.648-.24v-.072c-.2-.064-.38-.16-.54-.288a2.25 2.25 0 0 1-.396-.432 2.078 2.078 0 0 1-.24-.504 1.697 1.697 0 0 1-.084-.516c0-.28.048-.548.144-.804.104-.264.256-.492.456-.684.2-.2.452-.36.756-.48s.664-.18 1.08-.18a2.9 2.9 0 0 1 1.068.18c.304.12.556.28.756.48.2.192.348.42.444.684.104.256.156.524.156.804 0 .168-.028.34-.084.516a1.86 1.86 0 0 1-.252.504c-.104.16-.236.304-.396.432a1.538 1.538 0 0 1-.528.288v.072c.24.04.452.12.636.24.192.12.356.268.492.444.136.168.24.356.312.564.072.208.108.424.108.648 0 .304-.056.592-.168.864-.112.264-.28.5-.504.708-.224.2-.508.36-.852.48-.336.12-.732.18-1.188.18Zm0-4.536c.176 0 .348-.024.516-.072.168-.056.316-.136.444-.24.128-.112.228-.248.3-.408.08-.168.12-.368.12-.6 0-.24-.04-.444-.12-.612a1.044 1.044 0 0 0-.3-.408 1.141 1.141 0 0 0-.444-.24 1.659 1.659 0 0 0-1.044 0 1.141 1.141 0 0 0-.444.24c-.128.104-.232.24-.312.408a1.551 1.551 0 0 0-.108.612c0 .232.036.432.108.6.08.16.184.296.312.408.128.104.276.184.444.24.168.048.344.072.528.072Zm0 3.648c.48 0 .876-.12 1.188-.36.32-.248.48-.604.48-1.068 0-.472-.16-.824-.48-1.056-.312-.232-.708-.348-1.188-.348s-.88.116-1.2.348c-.32.232-.48.584-.48 1.056 0 .464.16.82.48 1.068.32.24.72.36 1.2.36Zm4.615-5.184h.912v1.212h.072c.072-.2.172-.384.3-.552.136-.168.292-.312.468-.432.184-.12.384-.212.6-.276.224-.064.456-.096.696-.096.392 0 .748.08 1.068.24.328.152.608.368.84.648.232.272.408.6.528.984.128.384.192.8.192 1.248 0 .448-.064.864-.192 1.248a2.91 2.91 0 0 1-.528.984 2.458 2.458 0 0 1-1.908.864c-.488 0-.908-.116-1.26-.348a1.97 1.97 0 0 1-.756-.888h-.072v3.312h-.96v-8.148Zm2.808 5.208c.264 0 .508-.044.732-.132.232-.096.432-.236.6-.42.176-.192.312-.428.408-.708.096-.28.144-.608.144-.984s-.048-.704-.144-.984a1.865 1.865 0 0 0-.408-.696 1.49 1.49 0 0 0-.6-.42 1.839 1.839 0 0 0-.732-.144c-.256 0-.496.048-.72.144-.224.088-.42.228-.588.42-.168.184-.3.416-.396.696-.096.28-.144.608-.144.984s.048.704.144.984c.096.28.228.516.396.708.168.184.364.324.588.42.224.088.464.132.72.132Zm5.652-2.292-1.98-2.916h1.152l1.404 2.22h.048l1.452-2.22h1.032l-1.98 2.868 2.076 3.06h-1.152l-1.5-2.364h-.048l-1.548 2.364h-1.032l2.076-3.012Z" fill="#3C4C4F"/><rect x="387" y="21.5" width="32" height="32" rx="16" fill="#F36805"/><g clip-path="url(#structure__d)"><path fill-rule="evenodd" clip-rule="evenodd" d="M391.124 25.5h23.752l.124.124v23.752l-.124.124h-23.752l-.124-.124V25.624l.124-.124Zm23.627 23.75V25.749h-23.503v23.503h23.503ZM395.903 27h14.194a3.403 3.403 0 0 1 3.403 3.403v14.194A3.403 3.403 0 0 1 410.097 48h-14.194a3.403 3.403 0 0 1-3.403-3.403V30.403A3.403 3.403 0 0 1 395.903 27Z" fill="#fff"/></g><path d="M358.32 25.892h-3.636v-.804l3.444-5.388h1.14l-3.456 5.328h2.508v-2.352h.984v2.352h1.08v.864h-1.08V27.5h-.984v-1.608Zm3.895-4.32h.912v1.212h.072c.072-.2.172-.384.3-.552.136-.168.292-.312.468-.432.184-.12.384-.212.6-.276.224-.064.456-.096.696-.096.392 0 .748.08 1.068.24.328.152.608.368.84.648.232.272.408.6.528.984.128.384.192.8.192 1.248 0 .448-.064.864-.192 1.248a2.91 2.91 0 0 1-.528.984 2.458 2.458 0 0 1-1.908.864c-.488 0-.908-.116-1.26-.348a1.97 1.97 0 0 1-.756-.888h-.072v3.312h-.96v-8.148Zm2.808 5.208c.264 0 .508-.044.732-.132.232-.096.432-.236.6-.42.176-.192.312-.428.408-.708.096-.28.144-.608.144-.984s-.048-.704-.144-.984a1.865 1.865 0 0 0-.408-.696 1.49 1.49 0 0 0-.6-.42 1.839 1.839 0 0 0-.732-.144c-.256 0-.496.048-.72.144-.224.088-.42.228-.588.42-.168.184-.3.416-.396.696-.096.28-.144.608-.144.984s.048.704.144.984c.096.28.228.516.396.708.168.184.364.324.588.42.224.088.464.132.72.132Zm5.652-2.292-1.98-2.916h1.152l1.404 2.22h.048l1.452-2.22h1.032l-1.98 2.868 2.076 3.06h-1.152l-1.5-2.364h-.048l-1.548 2.364h-1.032l2.076-3.012Z" fill="#3C4C4F"/><path opacity=".5" fill="#F2A6B0" d="M379 21.5h40v4h-40z"/><path d="M358.32 53.892h-3.636v-.804l3.444-5.388h1.14l-3.456 5.328h2.508v-2.352h.984v2.352h1.08v.864h-1.08V55.5h-.984v-1.608Zm3.895-4.32h.912v1.212h.072c.072-.2.172-.384.3-.552.136-.168.292-.312.468-.432.184-.12.384-.212.6-.276.224-.064.456-.096.696-.096.392 0 .748.08 1.068.24.328.152.608.368.84.648.232.272.408.6.528.984.128.384.192.8.192 1.248 0 .448-.064.864-.192 1.248a2.91 2.91 0 0 1-.528.984 2.458 2.458 0 0 1-1.908.864c-.488 0-.908-.116-1.26-.348a1.97 1.97 0 0 1-.756-.888h-.072v3.312h-.96v-8.148Zm2.808 5.208c.264 0 .508-.044.732-.132.232-.096.432-.236.6-.42.176-.192.312-.428.408-.708.096-.28.144-.608.144-.984s-.048-.704-.144-.984a1.865 1.865 0 0 0-.408-.696 1.49 1.49 0 0 0-.6-.42 1.839 1.839 0 0 0-.732-.144c-.256 0-.496.048-.72.144-.224.088-.42.228-.588.42-.168.184-.3.416-.396.696-.096.28-.144.608-.144.984s.048.704.144.984c.096.28.228.516.396.708.168.184.364.324.588.42.224.088.464.132.72.132Zm5.652-2.292-1.98-2.916h1.152l1.404 2.22h.048l1.452-2.22h1.032l-1.98 2.868 2.076 3.06h-1.152l-1.5-2.364h-.048l-1.548 2.364h-1.032l2.076-3.012Z" fill="#3C4C4F"/><path opacity=".5" fill="#F2A6B0" d="M379 49.5h40v4h-40z"/><path opacity=".5" fill="#C1DADE" d="M387 21.5h4v40h-4z"/><path d="M382.82 75.892h-3.636v-.804l3.444-5.388h1.14l-3.456 5.328h2.508v-2.352h.984v2.352h1.08v.864h-1.08V77.5h-.984v-1.608Zm3.895-4.32h.912v1.212h.072c.072-.2.172-.384.3-.552.136-.168.292-.312.468-.432.184-.12.384-.212.6-.276.224-.064.456-.096.696-.096.392 0 .748.08 1.068.24.328.152.608.368.84.648.232.272.408.6.528.984.128.384.192.8.192 1.248 0 .448-.064.864-.192 1.248a2.91 2.91 0 0 1-.528.984 2.458 2.458 0 0 1-1.908.864c-.488 0-.908-.116-1.26-.348a1.97 1.97 0 0 1-.756-.888h-.072v3.312h-.96v-8.148Zm2.808 5.208c.264 0 .508-.044.732-.132.232-.096.432-.236.6-.42.176-.192.312-.428.408-.708.096-.28.144-.608.144-.984s-.048-.704-.144-.984a1.865 1.865 0 0 0-.408-.696 1.49 1.49 0 0 0-.6-.42 1.839 1.839 0 0 0-.732-.144c-.256 0-.496.048-.72.144-.224.088-.42.228-.588.42-.168.184-.3.416-.396.696-.096.28-.144.608-.144.984s.048.704.144.984c.096.28.228.516.396.708.168.184.364.324.588.42.224.088.464.132.72.132Zm5.652-2.292-1.98-2.916h1.152l1.404 2.22h.048l1.452-2.22h1.032l-1.98 2.868 2.076 3.06h-1.152l-1.5-2.364h-.048l-1.548 2.364h-1.032l2.076-3.012Z" fill="#3C4C4F"/><path opacity=".5" fill="#C1DADE" d="M415 21.5h4v40h-4z"/><path d="M410.82 75.892h-3.636v-.804l3.444-5.388h1.14l-3.456 5.328h2.508v-2.352h.984v2.352h1.08v.864h-1.08V77.5h-.984v-1.608Zm3.895-4.32h.912v1.212h.072c.072-.2.172-.384.3-.552.136-.168.292-.312.468-.432.184-.12.384-.212.6-.276.224-.064.456-.096.696-.096.392 0 .748.08 1.068.24.328.152.608.368.84.648.232.272.408.6.528.984.128.384.192.8.192 1.248 0 .448-.064.864-.192 1.248a2.91 2.91 0 0 1-.528.984 2.458 2.458 0 0 1-1.908.864c-.488 0-.908-.116-1.26-.348a1.97 1.97 0 0 1-.756-.888h-.072v3.312h-.96v-8.148Zm2.808 5.208c.264 0 .508-.044.732-.132.232-.096.432-.236.6-.42.176-.192.312-.428.408-.708.096-.28.144-.608.144-.984s-.048-.704-.144-.984a1.865 1.865 0 0 0-.408-.696 1.49 1.49 0 0 0-.6-.42 1.839 1.839 0 0 0-.732-.144c-.256 0-.496.048-.72.144-.224.088-.42.228-.588.42-.168.184-.3.416-.396.696-.096.28-.144.608-.144.984s.048.704.144.984c.096.28.228.516.396.708.168.184.364.324.588.42.224.088.464.132.72.132Zm5.652-2.292-1.98-2.916h1.152l1.404 2.22h.048l1.452-2.22h1.032l-1.98 2.868 2.076 3.06h-1.152l-1.5-2.364h-.048l-1.548 2.364h-1.032l2.076-3.012Z" fill="#3C4C4F"/><defs><clipPath id="structure__a"><path fill="#fff" transform="translate(54 27)" d="M0 0h28v28H0z"/></clipPath><clipPath id="structure__b"><path fill="#fff" transform="translate(181 27.5)" d="M0 0h24v24H0z"/></clipPath><clipPath id="structure__c"><path fill="#fff" transform="translate(290 24.5)" d="M0 0h24v24H0z"/></clipPath><clipPath id="structure__d"><path fill="#fff" transform="translate(391 25.5)" d="M0 0h24v24H0z"/></clipPath></defs></svg>