<svg width="56" height="56" fill="none" xmlns="http://www.w3.org/2000/svg"><g clip-path="url(#variation-outline__a)"><path fill-rule="evenodd" clip-rule="evenodd" d="M14.145 14h27.71l.145.145v27.71l-.145.145h-27.71L14 41.855v-27.71l.145-.145Zm27.564 27.71V14.29H14.29v27.42h27.42ZM19.72 15.75h16.56a3.97 3.97 0 0 1 3.97 3.97v16.56a3.97 3.97 0 0 1-3.97 3.97H19.72a3.97 3.97 0 0 1-3.97-3.97V19.72a3.97 3.97 0 0 1 3.97-3.97Z" fill="#F36805"/></g><path d="M28 55.5C12.812 55.5.5 43.188.5 28S12.812.5 28 .5 55.5 12.812 55.5 28 43.188 55.5 28 55.5Z" stroke="#DBD9D7"/><defs><clipPath id="variation-outline__a"><path fill="#fff" transform="translate(14 14)" d="M0 0h28v28H0z"/></clipPath></defs></svg>