<svg width="24" height="24" viewBox="0 0 24 24" fill="none" xmlns="http://www.w3.org/2000/svg">
<path d="M20.7776 6.70743L17.9592 5.08099L15.1408 3.37457C14.708 3.12711 14.218 2.99795 13.7198 3.00002C13.2215 3.0021 12.7326 3.13533 12.3019 3.3864C11.8711 3.63746 11.5137 3.99754 11.2653 4.43063C11.0169 4.86372 10.8863 5.35462 10.8865 5.85422V6.20083C10.8864 6.30059 10.9106 6.39887 10.9569 6.48715C11.0033 6.57543 11.0704 6.65104 11.1524 6.70743L12.4819 7.45399C12.5442 7.49119 12.6134 7.51523 12.6853 7.52462C12.7573 7.534 12.8303 7.52854 12.9001 7.50856C12.9698 7.48858 13.0347 7.45451 13.0908 7.40844C13.1469 7.36238 13.1931 7.30529 13.2264 7.24068C13.2501 7.1534 13.2501 7.06134 13.2264 6.97406V6.12084C13.2228 6.04729 13.2337 5.97376 13.2585 5.90445C13.2833 5.83514 13.3215 5.77142 13.3709 5.71694C13.4203 5.66245 13.4799 5.61827 13.5464 5.58692C13.6128 5.55558 13.6848 5.53768 13.7582 5.53426H14.0772L16.7361 7.05404L19.395 8.54716C19.5243 8.62952 19.6162 8.75943 19.651 8.90899C19.6858 9.05855 19.6607 9.21583 19.5811 9.34705L19.395 9.53369L16.7361 11.0268L14.0772 12.5466C14.0145 12.5854 13.9447 12.6114 13.8718 12.6231C13.799 12.6347 13.7246 12.6318 13.6529 12.6144C13.5812 12.5971 13.5136 12.5657 13.4541 12.522C13.3946 12.4783 13.3443 12.4232 13.3061 12.3599C13.2791 12.255 13.2791 12.1449 13.3061 12.04V11.6134C13.3064 11.1138 13.1758 10.6229 12.9274 10.1898C12.679 9.75672 12.3216 9.39663 11.8908 9.14557C11.4601 8.89451 10.9712 8.76128 10.4729 8.7592C9.97473 8.75713 9.48471 8.88628 9.0519 9.13375L6.18029 10.7868L3.36186 12.4133C2.71112 12.7928 2.23504 13.4135 2.03612 14.1415C1.8372 14.8696 1.93135 15.6469 2.2983 16.306C2.54307 16.7568 2.91237 17.1271 3.36186 17.3726L6.18029 18.999L9.0519 20.6254C9.48471 20.8729 9.97473 21.0021 10.4729 21C10.9712 20.9979 11.4601 20.8647 11.8908 20.6136C12.3216 20.3625 12.679 20.0025 12.9274 19.5694C13.1758 19.1363 13.3064 18.6454 13.3061 18.1458V17.7992C13.3063 17.6994 13.2821 17.6011 13.2358 17.5128C13.1894 17.4246 13.1223 17.349 13.0402 17.2926L11.7108 16.5194C11.6485 16.4821 11.5792 16.4581 11.5073 16.4487C11.4354 16.4393 11.3624 16.4448 11.2926 16.4648C11.2229 16.4848 11.158 16.5188 11.1019 16.5649C11.0457 16.611 10.9996 16.6681 10.9663 16.7327C10.9427 16.829 10.9427 16.9296 10.9663 17.0259V17.8792C10.9699 17.9527 10.959 18.0262 10.9342 18.0955C10.9094 18.1649 10.8712 18.2286 10.8218 18.2831C10.7724 18.3376 10.7127 18.3817 10.6463 18.4131C10.5798 18.4444 10.5079 18.4623 10.4345 18.4657C10.3295 18.4897 10.2205 18.4897 10.1155 18.4657L7.45657 16.946L4.79767 15.4528C4.6635 15.3889 4.55861 15.2762 4.50429 15.1375C4.44997 14.9989 4.4503 14.8447 4.50519 14.7063L4.69131 14.5196L7.35021 13.0265L10.0091 11.5067C10.0719 11.4679 10.1417 11.4419 10.2145 11.4302C10.2873 11.4186 10.3618 11.4215 10.4334 11.4389C10.5051 11.4562 10.5727 11.4877 10.6322 11.5313C10.6917 11.575 10.742 11.6301 10.7802 11.6934C10.8072 11.7983 10.8072 11.9084 10.7802 12.0133V12.4399C10.78 12.9395 10.9106 13.4304 11.159 13.8635C11.4073 14.2966 11.7648 14.6567 12.1955 14.9078C12.6262 15.1588 13.1152 15.2921 13.6134 15.2941C14.1116 15.2962 14.6016 15.167 15.0344 14.9196L17.906 13.2665L20.7245 11.6401C21.0423 11.4439 21.3182 11.1865 21.536 10.8826C21.7539 10.5787 21.9094 10.2344 21.9935 9.86982C22.0776 9.50519 22.0886 9.12745 22.0259 8.75851C21.9633 8.38957 21.8282 8.03678 21.6285 7.72061C21.4344 7.31649 21.1417 6.96801 20.7776 6.70743Z" fill="black"/>
</svg>
