<svg width="24" height="24" viewBox="0 0 24 24" fill="none" xmlns="http://www.w3.org/2000/svg">
<path fill-rule="evenodd" clip-rule="evenodd" d="M5.01581 9.5L3 14.0941H5.4132L5.71237 13.3616H6.3962L6.69537 14.0941H9.35163V13.535L9.58832 14.0941H10.9623L11.199 13.5232V14.0941H16.7233L17.3951 13.3806L18.024 14.0941L20.8614 14.1L18.8393 11.8099L20.8614 9.5H18.068L17.4142 10.2003L16.805 9.5H10.7953L10.2792 10.6858L9.75105 9.5H7.34289V10.04L7.07499 9.5H5.01581ZM5.48274 10.1524H6.65905L7.99614 13.2677V10.1524H9.28474L10.3175 12.386L11.2693 10.1524H12.5514V13.449H11.7713L11.7649 10.8658L10.6275 13.449H9.9296L8.78582 10.8658V13.449H7.18084L6.87657 12.7099H5.23269L4.92905 13.4483H4.06912L5.48274 10.1524ZM16.4375 10.1524H13.2652V13.447H16.3884L17.3951 12.3551L18.3653 13.447H19.3796L17.9054 11.8092L19.3796 10.1524H18.4093L17.4078 11.2317L16.4375 10.1524ZM6.055 10.7102L5.5134 12.0267H6.59596L6.055 10.7102ZM14.0486 11.4367V10.8349V10.8343H16.028L16.8917 11.7968L15.9898 12.7644H14.0486V12.1075H15.7792V11.4367H14.0486Z" fill="#1F72CD"/>
</svg>
