<svg width="24" height="24" viewBox="0 0 24 24" fill="none" xmlns="http://www.w3.org/2000/svg">
<path d="M10.859 3.64793C10.3848 3.59853 10.0983 3.64793 9.9402 3.67756C9.77225 3.7072 9.53516 3.76648 9.26842 3.96406C9.21902 4.00358 9.13999 4.07273 9.07084 4.1814C9.64383 3.8949 10.5033 4.24067 10.8194 4.58644C11.1949 5.00137 11.1751 5.72255 11.1158 6.13747C11.0565 6.59191 10.7602 7.81692 9.37709 8.05402C8.87325 8.14293 7.48029 8.09354 7.21356 6.90804C7.63836 6.96732 8.07304 6.46348 7.74703 5.99916C7.4309 5.53484 6.64057 5.5546 6.08734 5.70279C5.40568 5.89049 4.84256 6.60179 4.59559 7.09575C4.28933 7.71813 4.07199 8.5875 4.03248 9.26916C3.98308 10.02 3.99296 10.8597 4.04235 11.4821C4.11151 12.2625 4.28933 13.0627 4.55607 13.7543C4.82281 14.4557 5.13894 15.0682 5.47483 15.7104L5.50447 15.7696C5.51435 15.7597 5.56374 15.7104 5.61314 15.6511C5.75145 15.493 6.0577 15.1275 6.17625 14.9595C6.2948 14.7916 6.68996 14.1001 6.79863 13.8531C7.32223 14.1988 7.41114 14.4359 7.4309 14.7718C7.45066 15.1374 7.1444 15.9475 6.66033 16.8069C6.63069 16.8563 6.59117 16.9354 6.55166 16.9946C6.58129 16.965 6.62081 16.9255 6.70972 16.8267C6.81839 16.7081 7.23332 16.2537 7.63836 15.6708C8.04341 15.088 8.60652 14.1593 8.91277 13.3295C9.32769 13.4974 9.50552 13.7345 9.61419 13.9617C9.76238 14.2779 9.64383 14.9595 9.21902 15.9672C8.92265 16.6686 8.50773 17.3207 8.02365 18.0023C7.96437 18.0813 7.88534 18.1999 7.82606 18.2691L7.97425 18.3876C8.5176 18.8025 9.16963 19.257 9.79201 19.6225C10.4638 20.0078 11.3233 20.4227 11.9951 20.5808C12.6668 20.4227 13.5263 20.0078 14.1981 19.6225C14.8106 19.2668 15.4725 18.8124 16.0159 18.3876L16.1641 18.2691C16.1147 18.1999 16.0257 18.0813 15.9665 18.0023C15.4923 17.3207 15.0774 16.6686 14.781 15.9672C14.3463 14.9595 14.2277 14.268 14.3858 13.9617C14.4945 13.7345 14.6723 13.5073 15.0872 13.3295C15.3935 14.1593 15.9566 15.088 16.3616 15.6708C16.7667 16.2438 17.1816 16.7081 17.2903 16.8267C17.3792 16.9255 17.4187 16.965 17.4483 16.9946C17.4187 16.9255 17.3693 16.8563 17.3397 16.8069C16.8556 15.9475 16.5493 15.1374 16.5691 14.7718C16.5889 14.4261 16.6778 14.1988 17.2014 13.8531C17.3199 14.1001 17.7052 14.7916 17.8238 14.9595C17.9423 15.1275 18.2486 15.493 18.3869 15.6511C18.4363 15.7104 18.4857 15.7597 18.4955 15.7696L18.5252 15.7104C18.8611 15.0682 19.1772 14.4557 19.4439 13.7543C19.7008 13.0627 19.8885 12.2625 19.9576 11.4821C20.007 10.8597 20.0169 10.02 19.9675 9.26916C19.928 8.5875 19.7107 7.71813 19.4044 7.09575C19.1673 6.60179 18.5943 5.90037 17.9127 5.70279C17.3496 5.54472 16.5691 5.52496 16.253 5.99916C15.927 6.47336 16.3715 6.9772 16.7864 6.90804C16.658 7.50079 16.1147 8.08366 14.9884 8.08366C14.4648 8.08366 13.7634 7.78729 13.4374 7.24393C13.0126 6.52276 13.0324 5.80158 12.9731 5.18907C12.9336 4.85318 12.9138 4.50741 12.8052 4.1814C12.6965 3.85539 12.489 3.63805 12.1828 3.54913C11.9259 3.4701 11.7184 3.44046 11.4023 3.41083H11.2936C11.0565 3.40095 10.9084 3.47998 10.859 3.64793Z" fill="#009DDF"/>
</svg>
