<svg width="24" height="24" viewBox="0 0 24 24" fill="none" xmlns="http://www.w3.org/2000/svg">
<g clip-path="url(#clip0_10207_12006)">
<path d="M17.1201 12.4011H15.685C15.5256 12.4011 15.3971 12.2779 15.3971 12.1224C15.3971 11.9668 15.5256 11.8307 15.685 11.8307H17.8686V10.7808H15.685C14.9232 10.7808 14.3032 11.3878 14.3032 12.1289C14.3032 12.8699 14.9232 13.477 15.685 13.477H17.1001C17.2596 13.477 17.388 13.6001 17.388 13.7557C17.388 13.9112 17.2596 14.0257 17.1001 14.0257H14.0662C13.8093 14.5053 13.5591 14.9158 13.0497 15.1211H17.1201C17.8686 15.1103 18.482 14.4924 18.482 13.7578C18.482 13.0211 17.8686 12.4119 17.1201 12.4011Z" fill="#71706F"/>
<path d="M11.6213 10.7808C10.4055 10.7808 9.4156 11.753 9.4156 12.9455V17.45H10.5162V15.1211H11.6191C12.8349 15.1211 13.8204 14.1359 13.8204 12.9433C13.8226 11.7486 12.8371 10.7808 11.6213 10.7808ZM11.6213 14.0236H10.5162V12.9412C10.5162 12.3363 11.0101 11.8437 11.6213 11.8437C12.2325 11.8437 12.7308 12.3363 12.7308 12.9412C12.7308 13.5461 12.2325 14.0236 11.6213 14.0236Z" fill="#71706F"/>
<path d="M5.93209 15.1211C4.89124 15.1211 4.01649 14.3973 3.77953 13.4532C3.77953 13.4532 3.71088 13.1399 3.71088 12.9347C3.71088 12.7295 3.7751 12.414 3.7751 12.414C4.01427 11.4721 4.88681 10.77 5.92544 10.77C7.14788 10.77 8.15108 11.7378 8.15108 12.9304V13.4554H4.90453C5.09719 13.8205 5.48474 14.0257 5.93209 14.0257H8.85089L8.85531 10.9341C8.85531 10.474 8.46998 10.0959 7.99606 10.0959H3.85925C3.38755 10.0959 3 10.461 3 10.9233V14.959C3 15.4192 3.38755 15.8081 3.85925 15.8081H7.99606C8.41904 15.8081 8.77338 15.5121 8.84203 15.1232H5.93209V15.1211Z" fill="#B90466"/>
<path d="M5.92766 11.794C5.48253 11.794 5.09498 12.0597 4.90231 12.4032H6.953C6.76033 12.0597 6.37279 11.794 5.92766 11.794Z" fill="#B90466"/>
<path d="M7.80118 8.78236C7.80118 7.7972 6.96186 7 5.92766 7C4.89346 7 4.08293 7.77343 4.05635 8.73483V9.28142C4.05635 9.34623 4.1095 9.40888 4.17815 9.40888H4.86688C4.93332 9.40888 4.99311 9.34623 4.99311 9.28142V8.78236C4.99311 8.28978 5.41167 7.8901 5.92987 7.8901C6.44808 7.8901 6.86664 8.28978 6.86664 8.78236V9.28142C6.86664 9.34623 6.91979 9.40888 6.98844 9.40888H7.67717C7.7436 9.40888 7.8034 9.34623 7.8034 9.28142V8.78236H7.80118Z" fill="#B90466"/>
<path d="M12.857 16.5145L12.7574 17.0655C12.7087 17.3441 12.5204 17.4716 12.268 17.4716C12.0532 17.4716 11.8871 17.3355 11.9358 17.0655L12.0354 16.5145H12.1882L12.0886 17.0655C12.0576 17.2383 12.1373 17.3355 12.2857 17.3355C12.4341 17.3355 12.5714 17.2469 12.6024 17.0655L12.702 16.5145H12.857ZM12.2525 16.3417C12.2525 16.3871 12.2879 16.4087 12.3278 16.4087C12.3765 16.4087 12.4296 16.3763 12.4296 16.3115C12.4296 16.2661 12.3986 16.2445 12.3588 16.2445C12.3078 16.2445 12.2525 16.2747 12.2525 16.3417ZM12.5846 16.3395C12.5846 16.3871 12.6223 16.4087 12.6622 16.4087C12.7042 16.4087 12.7618 16.3763 12.7618 16.3136C12.7618 16.2683 12.7286 16.2445 12.6909 16.2445C12.6422 16.2445 12.5846 16.2747 12.5846 16.3395Z" fill="#71706F"/>
<path d="M13.2269 16.5145L13.1582 16.8948C13.218 16.817 13.3376 16.776 13.4195 16.776C13.5923 16.776 13.7096 16.8753 13.7096 17.0568C13.7096 17.3139 13.5258 17.4695 13.2911 17.4695C13.2003 17.4695 13.1228 17.437 13.0741 17.3528L13.0475 17.4522H12.9124L13.0829 16.5145H13.2269ZM13.1206 17.1562C13.1139 17.2664 13.1892 17.3377 13.2955 17.3377C13.4306 17.3377 13.5591 17.2361 13.5679 17.0827C13.5746 16.9704 13.4993 16.9034 13.3952 16.9034C13.2623 16.9034 13.1272 17.0093 13.1206 17.1562Z" fill="#71706F"/>
<path d="M13.9909 17.1756C13.9865 17.2664 14.0595 17.342 14.1836 17.342C14.2522 17.342 14.343 17.3161 14.3939 17.2707L14.4715 17.3571C14.3873 17.4327 14.2633 17.4716 14.157 17.4716C13.9599 17.4716 13.8447 17.3571 13.8447 17.18C13.8447 16.9466 14.033 16.7716 14.2744 16.7716C14.4958 16.7716 14.6198 16.9013 14.5445 17.1756H13.9909ZM14.4294 17.0611C14.4405 16.9466 14.3718 16.8991 14.2566 16.8991C14.1526 16.8991 14.0573 16.9466 14.0153 17.0611H14.4294Z" fill="#71706F"/>
<path d="M14.9254 16.7868L14.9188 16.8753C14.9852 16.7911 15.065 16.7716 15.138 16.7716C15.2045 16.7716 15.2643 16.7954 15.2953 16.8278L15.2089 16.9488C15.1779 16.9207 15.1469 16.9077 15.096 16.9077C14.9985 16.9077 14.9011 16.9661 14.8789 17.0892L14.8125 17.4478H14.6708L14.7926 16.7846H14.9254V16.7868Z" fill="#71706F"/>
<path d="M15.984 16.7868L16.0549 17.3117L16.3162 16.7868H16.4734L16.1169 17.45H15.9508L15.8821 17.0136L15.7736 17.2296L15.654 17.45H15.4879L15.3684 16.7868H15.5278L15.5987 17.3117L15.86 16.7868H15.984Z" fill="#71706F"/>
<path d="M16.6572 17.1756C16.6528 17.2664 16.7259 17.342 16.8499 17.342C16.9186 17.342 17.0093 17.3161 17.0603 17.2707L17.1378 17.3571C17.0536 17.4327 16.9296 17.4716 16.8233 17.4716C16.6262 17.4716 16.5111 17.3571 16.5111 17.18C16.5111 16.9466 16.6993 16.7716 16.9407 16.7716C17.1622 16.7716 17.2862 16.9013 17.2109 17.1756H16.6572ZM17.0957 17.0611C17.1068 16.9466 17.0381 16.8991 16.923 16.8991C16.8189 16.8991 16.7237 16.9466 16.6816 17.0611H17.0957Z" fill="#71706F"/>
<path d="M17.6029 16.7868L17.4833 17.45H17.3415L17.4611 16.7868H17.6029ZM17.4766 16.6074C17.4766 16.655 17.5121 16.6787 17.5519 16.6787C17.6073 16.6787 17.6582 16.6442 17.6582 16.5772C17.6582 16.5318 17.625 16.5059 17.5874 16.5059C17.5342 16.5081 17.4766 16.5405 17.4766 16.6074Z" fill="#71706F"/>
<path d="M18.234 16.9509C18.1897 16.9034 18.1321 16.8883 18.0657 16.8883C17.9727 16.8883 17.904 16.9185 17.904 16.9769C17.904 17.0266 17.9572 17.046 18.0391 17.0525C18.1631 17.0633 18.3226 17.1043 18.2894 17.275C18.265 17.3982 18.1388 17.4716 17.9616 17.4716C17.8509 17.4716 17.7446 17.4478 17.6715 17.3485L17.7645 17.2491C17.8155 17.3182 17.9063 17.3463 17.986 17.3485C18.0546 17.3485 18.1344 17.3247 18.1476 17.2621C18.1609 17.2016 18.1056 17.18 18.0059 17.1713C17.8885 17.1605 17.7623 17.1195 17.7623 16.992C17.7623 16.8256 17.9461 16.7673 18.0856 16.7673C18.1919 16.7673 18.2672 16.7911 18.3314 16.8559L18.234 16.9509Z" fill="#71706F"/>
<path d="M18.6858 16.7868L18.6216 17.1432C18.5994 17.2577 18.6526 17.3355 18.7721 17.3355C18.8851 17.3355 18.9803 17.2448 18.998 17.1346L19.06 16.7868H19.2018L19.0822 17.45H18.9537L18.9626 17.3549C18.8829 17.4284 18.8032 17.4651 18.7079 17.4651C18.5396 17.4651 18.44 17.3485 18.4776 17.1475L18.5418 16.7889H18.6858V16.7868Z" fill="#71706F"/>
<path d="M19.8285 17.45L19.8949 17.0957C19.9149 16.9812 19.875 16.9056 19.7443 16.9056C19.6314 16.9056 19.5362 16.9942 19.5162 17.1043L19.4542 17.4522H19.3125L19.4321 16.7889H19.5627L19.5517 16.8861C19.6314 16.8148 19.7133 16.7803 19.8019 16.7803C19.968 16.7803 20.0765 16.8926 20.0389 17.0957L19.9724 17.4522H19.8285V17.45Z" fill="#71706F"/>
<path d="M20.3113 17.5407C20.3024 17.6315 20.3733 17.6682 20.4929 17.6682C20.5992 17.6682 20.7121 17.612 20.7387 17.4651L20.7586 17.3506C20.6966 17.4349 20.5837 17.4695 20.4973 17.4695C20.3223 17.4695 20.2005 17.3679 20.2005 17.1843C20.2005 16.9229 20.3999 16.7716 20.6257 16.7716C20.721 16.7716 20.8073 16.817 20.8383 16.8926L20.8627 16.7868H21L20.8804 17.4695C20.8361 17.7222 20.6435 17.8 20.4685 17.8C20.2581 17.8 20.143 17.7006 20.1718 17.5407H20.3113ZM20.3511 17.1605C20.3511 17.275 20.4264 17.342 20.5372 17.342C20.8317 17.342 20.9114 16.9013 20.6169 16.9013C20.4774 16.9013 20.3511 17.0028 20.3511 17.1605Z" fill="#71706F"/>
</g>
<defs>
<clipPath id="clip0_10207_12006">
<rect width="18" height="10.8" fill="white" transform="translate(3 7)"/>
</clipPath>
</defs>
</svg>
