<svg width="24" height="24" viewBox="0 0 24 24" fill="none" xmlns="http://www.w3.org/2000/svg">
<path d="M2.15625 8.91566C2.15625 7.97066 2.83875 7.19629 3.67875 7.19629H20.3213C21.1613 7.19629 21.8438 7.97066 21.8438 8.91566V15.0713C21.8438 16.0163 21.1613 16.7907 20.3213 16.7907H3.67875C2.83875 16.7907 2.15625 16.0163 2.15625 15.0713V8.91566Z" fill="#000268"/>
<path d="M2.78625 8.98129V15.0188C2.78625 15.6095 3.21938 16.0951 3.74437 16.0951H12.4594V7.90504H3.73125C3.20625 7.90504 2.77313 8.39066 2.77313 8.98129H2.78625ZM14.7037 11.9738C14.7037 12.3545 14.5331 12.617 14.2575 12.617C14.0081 12.617 13.8112 12.3545 13.8112 12.0001C13.8112 11.6457 13.995 11.3701 14.2575 11.3701C14.5463 11.3701 14.7037 11.6457 14.7037 11.9738ZM13.0763 14.1788H13.8112V12.8663C13.9556 13.1551 14.2313 13.2601 14.4806 13.2601C15.1106 13.2601 15.4519 12.6695 15.4519 11.9476C15.4519 11.357 15.1237 10.727 14.5462 10.727C14.205 10.727 13.9031 10.8845 13.7587 11.2126V10.7795H13.0763V14.1788ZM16.4756 12.4332C16.4756 12.197 16.6725 12.1182 16.9219 12.1182C17.0269 12.1182 17.1319 12.1182 17.2369 12.1182C17.2369 12.407 17.0663 12.6826 16.7775 12.6826C16.6069 12.6826 16.4756 12.5907 16.4756 12.4201V12.4332ZM17.9587 13.1945C17.9194 13.0107 17.9194 12.8138 17.9194 12.6301V11.7245C17.9194 10.9895 17.4469 10.727 16.9088 10.727C16.5938 10.727 16.3181 10.7795 16.0556 10.8976V11.462C16.2787 11.3307 16.515 11.2782 16.7512 11.2782C17.0138 11.2782 17.2369 11.3701 17.2369 11.6982C17.145 11.6851 17.0138 11.672 16.8956 11.672C16.5019 11.672 15.7931 11.7638 15.7931 12.4988C15.7931 13.0238 16.1737 13.2601 16.5938 13.2601C16.8956 13.2601 17.1056 13.1288 17.2631 12.827C17.2631 12.9582 17.2631 13.0763 17.2762 13.2076H17.9456L17.9587 13.1945ZM18.2869 14.1657C18.4444 14.2051 18.5887 14.2182 18.7463 14.2182C19.4156 14.2182 19.5731 13.6276 19.7831 13.0238L20.5575 10.7795H19.8225L19.3894 12.3545L18.93 10.7795H18.1425L19.0087 13.247C18.9562 13.457 18.8119 13.5751 18.6413 13.5751C18.5363 13.5751 18.4444 13.562 18.3525 13.5226L18.3 14.1526L18.2869 14.1657Z" fill="white"/>
<path d="M4.58437 11.9738C4.58437 11.6457 4.72875 11.3701 5.00437 11.3701C5.3325 11.3701 5.47687 11.672 5.47687 11.9345C5.47687 12.302 5.26688 12.5513 5.00437 12.5513C4.78125 12.5513 4.58437 12.3413 4.58437 11.9607V11.9738ZM6.18563 10.7926H5.51625V11.2257C5.35875 10.9238 5.10938 10.7401 4.79437 10.7401C4.13812 10.7401 3.83625 11.2782 3.83625 12.0001C3.83625 12.722 4.20375 13.2207 4.78125 13.2207C5.08313 13.2207 5.31937 13.0895 5.50312 12.8007V12.932C5.50312 13.4045 5.28 13.6276 4.84688 13.6276C4.545 13.6276 4.34812 13.5488 4.125 13.4307L4.08563 14.087C4.25625 14.1526 4.545 14.2445 4.89937 14.2445C5.7525 14.2445 6.18563 13.9295 6.18563 12.932V10.7926ZM7.4325 9.78191H6.6975V10.3988H7.4325V9.78191ZM6.6975 13.2076H7.4325V10.7926H6.6975V13.2076ZM9.48 10.7663C9.40125 10.7663 9.30937 10.7401 9.23062 10.7401C8.91562 10.7401 8.73187 10.937 8.60063 11.2388V10.7926H7.93125V13.2076H8.66625V12.1838C8.66625 11.7113 8.86312 11.4226 9.20438 11.4226C9.29625 11.4226 9.375 11.4226 9.45375 11.4488L9.49312 10.7532L9.48 10.7663ZM10.74 12.6826C10.3988 12.6826 10.2675 12.3676 10.2675 12.0132C10.2675 11.6588 10.3988 11.3307 10.74 11.3307C11.0813 11.3307 11.2125 11.6457 11.2125 12.0132C11.2125 12.3807 11.0681 12.6826 10.74 12.6826ZM10.74 13.2732C11.4356 13.2732 11.9737 12.8138 11.9737 12.0132C11.9737 11.2126 11.4356 10.7532 10.74 10.7532C10.0444 10.7532 9.50625 11.2126 9.50625 12.0132C9.50625 12.8138 10.0444 13.2732 10.74 13.2732Z" fill="#FF0007"/>
</svg>
