<svg width="24" height="24" viewBox="0 0 24 24" fill="none" xmlns="http://www.w3.org/2000/svg">
<path d="M11.4881 11.9212V14.0606H10.8056V8.78438H12.6038C13.0369 8.78438 13.4569 8.94188 13.7719 9.24375C14.0869 9.5325 14.2575 9.92625 14.2575 10.3594C14.2575 10.7794 14.0869 11.1994 13.7719 11.475C13.4569 11.7769 13.0763 11.9212 12.6038 11.9212H11.4881ZM11.4881 9.44063V11.2781H12.63C12.8794 11.2781 13.1288 11.1862 13.2994 11.0025C13.6538 10.6612 13.6669 10.0837 13.3125 9.72937H13.2994C13.1288 9.5325 12.8794 9.4275 12.63 9.4275H11.4881V9.44063Z" fill="#5F6368"/>
<path d="M15.8062 10.3331C16.305 10.3331 16.6987 10.4644 16.9875 10.74C17.2762 11.0025 17.4206 11.37 17.4206 11.8425V14.0606H16.7775V13.5619H16.7512C16.4756 13.9687 16.095 14.1787 15.6356 14.1787C15.2419 14.1787 14.9006 14.0606 14.6381 13.8244C14.3756 13.6013 14.2312 13.2863 14.2312 12.945C14.2312 12.5775 14.3756 12.2756 14.6512 12.0525C14.9269 11.8294 15.3075 11.7244 15.78 11.7244C16.1869 11.7244 16.515 11.8031 16.7775 11.9475V11.79C16.7775 11.5538 16.6725 11.3438 16.5019 11.1863C16.3181 11.0288 16.095 10.9369 15.8456 10.9369C15.465 10.9369 15.1631 11.0944 14.9531 11.4094L14.3625 11.0288C14.6906 10.5563 15.1762 10.32 15.8194 10.32L15.8062 10.3331ZM14.9269 12.9581C14.9269 13.1287 15.0056 13.2994 15.15 13.4044C15.2944 13.5225 15.4912 13.5881 15.675 13.575C15.9637 13.575 16.2394 13.4569 16.4362 13.26C16.6594 13.05 16.7775 12.8006 16.7775 12.5119C16.5675 12.3413 16.2656 12.2625 15.8981 12.2625C15.6225 12.2625 15.3994 12.3281 15.2156 12.4594C15.0319 12.5906 14.94 12.7612 14.94 12.9581H14.9269Z" fill="#5F6368"/>
<path d="M21.1481 10.4513L18.8906 15.6487H18.195L19.035 13.8244L17.5519 10.4513H18.2869L19.3631 13.0369H19.3763L20.4263 10.4513H21.1613H21.1481Z" fill="#5F6368"/>
<path d="M8.745 11.4619C8.745 11.2519 8.73188 11.055 8.6925 10.845H5.84438V12.0131H7.485C7.41938 12.3938 7.19625 12.7219 6.88125 12.9319V13.6931H7.8525C8.43 13.1681 8.75813 12.3806 8.75813 11.4619H8.745Z" fill="#4285F4"/>
<path d="M5.84437 14.415C6.65812 14.415 7.35375 14.1525 7.8525 13.68L6.88125 12.9187C6.60562 13.1025 6.26437 13.2075 5.84437 13.2075C5.05687 13.2075 4.3875 12.6694 4.13812 11.9606H3.1275V12.735C3.63937 13.7588 4.68937 14.4019 5.83125 14.4019L5.84437 14.415Z" fill="#34A853"/>
<path d="M4.13813 11.9606C4.00688 11.58 4.00688 11.1731 4.13813 10.8056V10.0312H3.1275C2.69438 10.8844 2.69438 11.895 3.1275 12.7481L4.13813 11.9737V11.9606Z" fill="#FBBC04"/>
<path d="M5.84437 9.55875C6.2775 9.55875 6.6975 9.71625 6.99938 10.0181L7.86562 9.15187C7.31437 8.64 6.5925 8.35125 5.84437 8.36437C4.7025 8.36437 3.6525 9.0075 3.14062 10.0312L4.15125 10.8056C4.3875 10.0838 5.05687 9.55875 5.8575 9.55875H5.84437Z" fill="#EA4335"/>
</svg>
