<svg width="24" height="24" viewBox="0 0 24 24" fill="none" xmlns="http://www.w3.org/2000/svg">
<path d="M2.5 5.96H9.43991L12.9347 9.59298H6.33467L2.5 5.96Z" fill="#005D9D"/>
<path d="M12.3955 8.17137L14.5601 5.96H21.5L17.6653 9.59298H13.7629L12.3955 8.17137Z" fill="#005D9D"/>
<path d="M13.763 14.393L12.3955 15.8146L14.5601 18.026H21.5L17.6653 14.393H13.763Z" fill="#005D9D"/>
<path d="M12.9347 14.393H6.3347L2.502 18.0241L9.4399 18.026L12.9347 14.393Z" fill="#005D9D"/>
<path d="M3.38514 11.683H4.57559V10.2724H5.39232V13.7136H4.57559V12.4089H3.38514V13.7136H2.57341V10.2724H3.38514V11.683Z" fill="#005D9D"/>
<path d="M9.17974 10.2724H9.99647V12.9877H11.2635V13.7136H9.17974V10.2724Z" fill="#005D9D"/>
<path d="M11.6423 13.7136H12.4688V10.2724H11.6423V13.7136Z" fill="#005D9D"/>
<path d="M15.29 10.9983H13.7513V11.683H15.0262V12.4089H13.7513V13.7136H12.9347V10.2724H15.29V10.9983Z" fill="#005D9D"/>
<path fill-rule="evenodd" clip-rule="evenodd" d="M6.83928 10.2724L5.65699 13.7136H6.49636L6.6964 13.0883H7.87566L8.07571 13.7136H8.91508L7.73396 10.2724H6.83928ZM6.91374 12.4089L7.28601 11.2452L7.65829 12.4089H6.91374Z" fill="#005D9D"/>
<path fill-rule="evenodd" clip-rule="evenodd" d="M20.4118 10.2724H21.3383L20.1978 11.993L21.3383 13.7136H20.4118L19.7536 12.674L19.0954 13.7136H17.459L17.2589 13.0883H16.0796L15.8796 13.7136H15.0402L16.2225 10.2724H17.1172L18.2541 13.585L19.3094 11.993L18.1689 10.2724H19.0954L19.7536 11.3121L20.4118 10.2724ZM16.6693 11.2452L16.297 12.4089H17.0415L16.6693 11.2452Z" fill="#005D9D"/>
</svg>
