<svg width="16" height="16" viewBox="0 0 16 16" fill="none" xmlns="http://www.w3.org/2000/svg">
<path fill-rule="evenodd" clip-rule="evenodd" d="M5.83758 13.3116L6.04151 12.0131L5.58786 12.0006H3.41533L4.92195 2.42815C4.92612 2.39901 4.94276 2.37404 4.96357 2.35323C4.98438 2.33242 5.01352 2.3241 5.04265 2.3241H8.70515C9.92044 2.3241 10.7612 2.57797 11.1982 3.07741C11.4021 3.31048 11.5353 3.55603 11.5977 3.82656C11.6643 4.10957 11.6643 4.44668 11.5977 4.85872V5.15421L11.7975 5.27075C11.9723 5.36231 12.1096 5.46636 12.2137 5.58705C12.3885 5.78683 12.505 6.04071 12.5508 6.34453C12.6007 6.65667 12.5841 7.02292 12.5008 7.44328C12.4051 7.92606 12.2553 8.34226 12.0514 8.6877C11.8641 9.00401 11.6227 9.26621 11.3397 9.47014C11.0691 9.66159 10.7445 9.81142 10.3783 9.90298C10.0245 9.99455 9.62078 10.0403 9.17961 10.0403H8.89244C8.68851 10.0403 8.48873 10.1152 8.33474 10.2443C8.18075 10.3774 8.0767 10.5606 8.04341 10.7645L8.0226 10.881L7.66051 13.1659L7.64386 13.2492C7.6397 13.2742 7.63137 13.2866 7.62305 13.2991C7.61473 13.3074 7.59808 13.3116 7.58559 13.3116H5.82509H5.83758Z" fill="#253B80"/>
<path fill-rule="evenodd" clip-rule="evenodd" d="M12.0017 4.91703C11.9893 4.98778 11.9768 5.05854 11.9643 5.13345C11.4815 7.61397 9.82922 8.47133 7.71912 8.47133H6.64534C6.3873 8.47133 6.17088 8.65861 6.12926 8.91249L5.57988 12.4044L5.42589 13.3949C5.40092 13.5614 5.52994 13.7112 5.69641 13.7112H7.60258C7.82733 13.7112 8.01878 13.5489 8.05623 13.3241L8.07704 13.2284L8.43497 10.9518L8.45994 10.827C8.49324 10.6022 8.68885 10.4399 8.91359 10.4399H9.20077C11.0487 10.4399 12.4929 9.69077 12.9174 7.51824C13.0922 6.61094 13.0006 5.85347 12.5345 5.32074C12.393 5.15842 12.2182 5.02524 12.0142 4.91703" fill="#179BD7"/>
<path fill-rule="evenodd" clip-rule="evenodd" d="M11.4941 4.71729C11.4192 4.69648 11.3443 4.67567 11.2652 4.65902C11.1862 4.64237 11.1071 4.62573 11.0238 4.61324C10.7325 4.56746 10.4162 4.54249 10.0749 4.54249H7.20319C7.13244 4.54249 7.06585 4.55913 7.00342 4.58827C6.87023 4.6507 6.77451 4.77556 6.74954 4.92955L6.13773 8.80015L6.12109 8.91252C6.16271 8.65864 6.37913 8.47136 6.63717 8.47136H7.71095C9.82105 8.47136 11.4733 7.614 11.9561 5.13348C11.9686 5.05857 11.9811 4.98781 11.9936 4.91706C11.8729 4.85047 11.7397 4.79637 11.5982 4.75058C11.5649 4.7381 11.5274 4.72561 11.49 4.71729" fill="#222D65"/>
<path fill-rule="evenodd" clip-rule="evenodd" d="M6.75362 5.10489C6.77859 4.9509 6.87432 4.82604 7.0075 4.76362C7.06993 4.73448 7.13652 4.71783 7.20727 4.71783H10.079C10.4203 4.71783 10.7366 4.73864 11.0279 4.78859C11.1112 4.80107 11.1902 4.81772 11.2693 4.83437C11.3484 4.85102 11.4233 4.87183 11.4982 4.89264C11.5357 4.90512 11.5731 4.91345 11.6064 4.92593C11.7479 4.97171 11.8811 5.02998 12.0018 5.09241C12.1475 4.17678 12.0018 3.55249 11.5066 2.98647C10.9613 2.36634 9.97496 2.09998 8.71389 2.09998H5.04723C4.78919 2.09998 4.56861 2.28726 4.53115 2.54114L3.00372 12.2135C2.97458 12.4049 3.12025 12.5756 3.31586 12.5756H5.57579L6.75362 5.10073V5.10489Z" fill="#253B80"/>
</svg>
