<svg width="24" height="24" viewBox="0 0 24 24" fill="none" xmlns="http://www.w3.org/2000/svg">
<path fill-rule="evenodd" clip-rule="evenodd" d="M13.739 12.6655H14.5643C14.826 12.6558 14.9852 12.635 15.0425 12.6025C15.1207 12.5582 15.1732 12.4694 15.1994 12.3362C15.2161 12.2476 15.2244 12.1158 15.2244 11.9407C15.2244 11.7262 15.2078 11.5672 15.1745 11.4634C15.1268 11.3179 15.0128 11.2293 14.8322 11.1972C14.7965 11.1923 14.711 11.1897 14.5755 11.1897H13.739V12.6655ZM12.4151 15.1512V10.08H14.8816C15.2199 10.08 15.478 10.1085 15.6554 10.1654C16.0611 10.2964 16.3333 10.5647 16.4727 10.9702C16.5446 11.183 16.5806 11.5034 16.5806 11.9313C16.5806 12.4457 16.5407 12.8154 16.4617 13.0404C16.3035 13.4855 15.9779 13.7418 15.4862 13.8083C15.4283 13.8183 15.1823 13.8272 14.748 13.8343L14.5282 13.8419H13.739V15.1512H12.4151ZM6.99914 11.6977H5.76754C5.76754 11.4893 5.74379 11.3494 5.69653 11.2783C5.62324 11.1729 5.42094 11.1202 5.08986 11.1202C4.76832 11.1202 4.55516 11.1505 4.45114 11.2113C4.34719 11.2722 4.29515 11.4046 4.29515 11.6086C4.29515 11.7932 4.34122 11.9148 4.4336 11.973C4.49978 12.0144 4.58721 12.0387 4.69623 12.046L4.94461 12.064C5.47692 12.1005 5.80937 12.1261 5.94197 12.1407C6.36293 12.1844 6.66811 12.2999 6.85747 12.4869C7.00648 12.6328 7.09533 12.8235 7.12368 13.0591C7.14027 13.1999 7.14851 13.3593 7.14851 13.5365C7.14851 13.9447 7.11073 14.2437 7.03506 14.4332C6.89793 14.7809 6.58988 15.0005 6.11056 15.0927C5.90975 15.1317 5.60254 15.1512 5.18934 15.1512C4.4996 15.1512 4.01891 15.1089 3.7475 15.0238C3.41439 14.9196 3.19478 14.7084 3.0885 14.3905C3.0293 14.2135 3 13.9187 3 13.5061H4.2316L4.23172 13.6115C4.23172 13.8317 4.29312 13.9734 4.41564 14.0364C4.50056 14.0799 4.60308 14.1027 4.72363 14.1054H5.17639C5.40745 14.1054 5.55491 14.0933 5.61853 14.0688C5.73173 14.0229 5.80603 13.949 5.84154 13.8467C5.8604 13.7838 5.86977 13.7023 5.86977 13.6027C5.86977 13.3794 5.79069 13.2436 5.63285 13.1948C5.57383 13.1756 5.2992 13.1488 4.80902 13.1147C4.4154 13.0858 4.14196 13.0579 3.98883 13.0309C3.5856 12.9531 3.31688 12.7932 3.18279 12.5504C3.06493 12.3442 3.00597 12.032 3.00597 11.6146C3.00597 11.2966 3.03783 11.0416 3.10151 10.8499C3.16524 10.658 3.26795 10.5124 3.40968 10.4128C3.61729 10.2599 3.88297 10.1702 4.20635 10.1433C4.47543 10.1192 4.77393 10.1068 5.10227 10.1068C5.61919 10.1068 5.98757 10.1374 6.20717 10.1982C6.74313 10.3466 7.01107 10.7625 7.01107 11.4458C7.01107 11.5018 7.00707 11.5856 6.99914 11.6977ZM18.5233 11.0885L19.1435 13.2868H17.9213L18.5233 11.0885ZM17.6365 14.2748H19.4065L19.6591 15.1512H21L19.5039 10.08H17.5069L16.029 15.1512H17.3987L17.6365 14.2748Z" fill="#10298E"/>
<path fill-rule="evenodd" clip-rule="evenodd" d="M10.5879 10.7935C11.1339 10.7935 11.6212 11.0528 11.9416 11.459L12.2269 10.8282C11.7806 10.3933 11.1732 10.1252 10.5032 10.1252C9.46006 10.1252 8.56772 10.7747 8.20149 11.6941H7.64501L7.31643 12.4203H8.0323C8.02693 12.4876 8.02347 12.5551 8.02347 12.6239C8.02347 12.7071 8.02765 12.7894 8.03565 12.8706H7.67586L7.34734 13.5971H8.21855C8.59523 14.4932 9.47641 15.1224 10.5032 15.1224C11.0206 15.1224 11.5008 14.9625 11.8984 14.6895V13.7992C11.5782 14.175 11.1099 14.4125 10.5879 14.4125C9.97763 14.4125 9.44084 14.088 9.12826 13.5971H10.9526L11.2811 12.8706H8.85983C8.84736 12.7832 8.84068 12.6939 8.84068 12.6029C8.84068 12.5414 8.84378 12.4804 8.84951 12.4203H11.4847L11.8133 11.6941H9.07741C9.37997 11.1557 9.94301 10.7935 10.5879 10.7935Z" fill="#FFBE00"/>
</svg>
