<svg width="24" height="24" viewBox="0 0 24 24" fill="none" xmlns="http://www.w3.org/2000/svg">
<path d="M9.86705 13.4884C9.79424 13.5272 9.71228 13.5496 9.62513 13.5496C9.42343 13.5496 9.24812 13.4327 9.15607 13.2596L9.12081 13.1783L7.6523 9.78229C7.63645 9.74537 7.62664 9.70358 7.62664 9.66292C7.62664 9.50641 7.74706 9.37962 7.89558 9.37962C7.95582 9.37962 8.0116 9.40066 8.05644 9.43579L9.78938 10.7361C9.91596 10.8233 10.0672 10.8745 10.2299 10.8745C10.3269 10.8745 10.4194 10.8555 10.5057 10.8224L18.6551 7.00001C17.1943 5.18576 14.7886 4 12.0662 4C7.61118 4 4 7.1715 4 11.084C4 13.2184 5.08648 15.1398 6.7871 16.4385C6.92349 16.5412 7.01283 16.7098 7.01283 16.9001C7.01283 16.9631 7.00003 17.0205 6.98441 17.0805C6.84858 17.6145 6.6312 18.4695 6.6211 18.5096C6.60412 18.5766 6.57767 18.6466 6.57767 18.7167C6.57767 18.8732 6.69798 19 6.84672 19C6.90499 19 6.95271 18.9771 7.00195 18.9473L8.76783 17.8728C8.90066 17.7921 9.04128 17.742 9.19628 17.742C9.27869 17.742 9.35834 17.7554 9.43324 17.7796C10.257 18.0293 11.1459 18.168 12.0662 18.168C16.521 18.168 20.1327 14.9964 20.1327 11.084C20.1327 9.89897 19.7994 8.78294 19.2138 7.80118L9.92617 13.4525L9.86705 13.4884Z" fill="#1AAD19"/>
</svg>
