<svg width="419" height="97" viewBox="0 0 419 97" fill="none" xmlns="http://www.w3.org/2000/svg">
<g clip-path="url(#clip0_11497_37564)">
<g clip-path="url(#clip1_11497_37564)">
<g clip-path="url(#clip2_11497_37564)">
<path d="M82.272 6.61875H84.148V14.1927H87.774V15.7188H82.272V6.61875ZM90.9233 15.8868C90.6153 15.8868 90.3213 15.8354 90.0413 15.7328C89.7707 15.6394 89.5327 15.5041 89.3273 15.3267C89.122 15.1401 88.9587 14.9161 88.8373 14.6547C88.7253 14.3934 88.6693 14.0994 88.6693 13.7727C88.6693 13.1567 88.8887 12.6667 89.3273 12.3027C89.766 11.9387 90.4333 11.7334 91.3293 11.6867L92.9533 11.5887V11.3087C92.9533 10.8607 92.818 10.5527 92.5473 10.3847C92.2767 10.2167 91.9407 10.1327 91.5393 10.1327C91.222 10.1327 90.9233 10.1934 90.6433 10.3147C90.3633 10.4267 90.1533 10.5667 90.0133 10.7347L89.0193 9.72675C89.262 9.40942 89.612 9.14808 90.0693 8.94275C90.536 8.73742 91.1053 8.63475 91.7773 8.63475C92.7667 8.63475 93.504 8.86342 93.9893 9.32075C94.4747 9.77808 94.7173 10.3987 94.7173 11.1827V15.7188H93.0513V14.6127H92.9673C92.79 15.0047 92.5333 15.3174 92.1973 15.5507C91.8613 15.7748 91.4367 15.8868 90.9233 15.8868ZM91.4413 14.6127C91.8893 14.6127 92.2533 14.4867 92.5333 14.2347C92.8133 13.9734 92.9533 13.6094 92.9533 13.1427V12.6807L91.5393 12.7927C90.8113 12.8394 90.4473 13.1474 90.4473 13.7167C90.4473 14.0061 90.5407 14.2301 90.7273 14.3887C90.914 14.5381 91.152 14.6127 91.4413 14.6127ZM100.465 15.8868C99.9241 15.8868 99.4528 15.7561 99.0514 15.4947C98.6594 15.2334 98.3794 14.8741 98.2114 14.4167H98.1274V15.7188H96.4474V5.56875H98.2114V9.99275H98.2954C98.4541 9.59142 98.7201 9.26475 99.0934 9.01275C99.4668 8.76075 99.9241 8.63475 100.465 8.63475C100.895 8.63475 101.291 8.72342 101.655 8.90075C102.029 9.07808 102.346 9.33008 102.607 9.65675C102.878 9.97408 103.088 10.3567 103.237 10.8047C103.387 11.2527 103.461 11.7474 103.461 12.2887C103.461 12.8207 103.387 13.3107 103.237 13.7587C103.088 14.1974 102.878 14.5754 102.607 14.8927C102.346 15.2007 102.029 15.4434 101.655 15.6207C101.291 15.7981 100.895 15.8868 100.465 15.8868ZM99.9194 14.3467C100.442 14.3467 100.862 14.1601 101.179 13.7867C101.497 13.4134 101.655 12.9047 101.655 12.2607C101.655 11.6167 101.497 11.1081 101.179 10.7347C100.862 10.3614 100.442 10.1747 99.9194 10.1747C99.4061 10.1747 98.9908 10.3614 98.6734 10.7347C98.3654 11.1081 98.2114 11.6167 98.2114 12.2607C98.2114 12.9047 98.3654 13.4134 98.6734 13.7867C98.9908 14.1601 99.4061 14.3467 99.9194 14.3467ZM107.838 15.8868C107.259 15.8868 106.755 15.7934 106.326 15.6067C105.897 15.4201 105.533 15.1634 105.234 14.8367C104.945 14.5007 104.725 14.1134 104.576 13.6747C104.436 13.2361 104.366 12.7647 104.366 12.2607C104.366 11.7474 104.436 11.2714 104.576 10.8327C104.716 10.3847 104.926 10.0021 105.206 9.68475C105.486 9.35808 105.836 9.10142 106.256 8.91475C106.676 8.72808 107.166 8.63475 107.726 8.63475C108.286 8.63475 108.776 8.72342 109.196 8.90075C109.616 9.07808 109.961 9.32542 110.232 9.64275C110.503 9.96008 110.703 10.3381 110.834 10.7767C110.974 11.2061 111.044 11.6774 111.044 12.1907C111.044 12.2841 111.035 12.3914 111.016 12.5127C111.007 12.6341 110.993 12.7321 110.974 12.8067H106.158C106.186 13.0587 106.251 13.2874 106.354 13.4927C106.466 13.6887 106.601 13.8567 106.76 13.9967C106.928 14.1367 107.11 14.2441 107.306 14.3187C107.511 14.3841 107.721 14.4167 107.936 14.4167C108.337 14.4167 108.673 14.3467 108.944 14.2067C109.215 14.0667 109.434 13.8894 109.602 13.6747L110.596 14.7107C110.335 15.0654 109.971 15.3501 109.504 15.5647C109.037 15.7794 108.482 15.8868 107.838 15.8868ZM107.726 9.97875C107.278 9.97875 106.914 10.1234 106.634 10.4127C106.354 10.7021 106.191 11.0847 106.144 11.5607H109.28C109.233 11.0847 109.07 10.7021 108.79 10.4127C108.519 10.1234 108.165 9.97875 107.726 9.97875ZM112.416 5.56875H114.18V15.7188H112.416V5.56875Z" fill="#242E30"/>
</g>
</g>
</g>
<g clip-path="url(#clip3_11497_37564)">
<path d="M81.25 36.7188C81.25 30.0913 86.6226 24.7188 93.25 24.7188H325.25C331.877 24.7188 337.25 30.0913 337.25 36.7188V60.7188C337.25 67.3462 331.877 72.7188 325.25 72.7188H93.25C86.6226 72.7188 81.25 67.3462 81.25 60.7188V36.7188Z" fill="white"/>
<g clip-path="url(#clip4_11497_37564)">
<g opacity="0.08">
<rect width="4" height="48" transform="translate(81.25 24.7188)" fill="white" fill-opacity="0.01"/>
</g>
<path d="M101.442 54.9108C100.535 54.9108 99.7993 54.7721 99.234 54.4947C98.6687 54.2174 98.2207 53.8601 97.89 53.4227L98.754 52.6068C99.042 52.9587 99.4207 53.2361 99.89 53.4387C100.37 53.6414 100.93 53.7427 101.57 53.7427C101.858 53.7427 102.135 53.7107 102.402 53.6467C102.669 53.5827 102.903 53.4867 103.106 53.3587C103.319 53.2201 103.485 53.0387 103.602 52.8147C103.73 52.5907 103.794 52.3187 103.794 51.9987C103.794 51.7214 103.73 51.4867 103.602 51.2947C103.474 51.0921 103.298 50.9214 103.074 50.7827C102.861 50.6334 102.605 50.5054 102.306 50.3987C102.007 50.2814 101.682 50.1641 101.33 50.0467C100.957 49.9187 100.589 49.7854 100.226 49.6467C99.8633 49.4974 99.538 49.3107 99.25 49.0867C98.962 48.8627 98.7273 48.5907 98.546 48.2707C98.3647 47.9401 98.274 47.5347 98.274 47.0547C98.274 46.5747 98.3593 46.1534 98.53 45.7907C98.7113 45.4281 98.9567 45.1241 99.266 44.8787C99.5753 44.6334 99.9433 44.4467 100.37 44.3187C100.797 44.1907 101.261 44.1267 101.762 44.1267C102.498 44.1267 103.154 44.2547 103.73 44.5107C104.317 44.7667 104.791 45.1561 105.154 45.6788L104.29 46.5267C104.002 46.1747 103.634 45.8814 103.186 45.6467C102.738 45.4121 102.226 45.2947 101.65 45.2947C101.405 45.2947 101.165 45.3267 100.93 45.3907C100.695 45.4441 100.482 45.5401 100.29 45.6788C100.098 45.8174 99.9433 45.9934 99.826 46.2067C99.7087 46.4201 99.65 46.6761 99.65 46.9747C99.65 47.2521 99.714 47.4921 99.842 47.6947C99.97 47.8867 100.141 48.0574 100.354 48.2067C100.578 48.3454 100.839 48.4734 101.138 48.5907C101.437 48.6974 101.762 48.8094 102.114 48.9267C102.487 49.0547 102.855 49.1934 103.218 49.3427C103.581 49.4921 103.906 49.6787 104.194 49.9027C104.482 50.1267 104.717 50.3987 104.898 50.7188C105.079 51.0387 105.17 51.4387 105.17 51.9187C105.17 52.4307 105.069 52.8787 104.866 53.2627C104.674 53.6361 104.407 53.9454 104.066 54.1908C103.735 54.4361 103.341 54.6174 102.882 54.7348C102.434 54.8521 101.954 54.9108 101.442 54.9108ZM110.417 54.9108C109.851 54.9108 109.334 54.8148 108.865 54.6227C108.406 54.4307 108.011 54.1587 107.681 53.8067C107.361 53.4441 107.11 53.0067 106.929 52.4947C106.758 51.9827 106.673 51.4067 106.673 50.7667C106.673 50.0947 106.763 49.5027 106.945 48.9907C107.126 48.4681 107.377 48.0361 107.697 47.6947C108.017 47.3427 108.395 47.0761 108.833 46.8947C109.281 46.7134 109.771 46.6227 110.305 46.6227C110.838 46.6227 111.329 46.7081 111.777 46.8787C112.225 47.0494 112.609 47.3054 112.929 47.6467C113.249 47.9774 113.499 48.3987 113.681 48.9107C113.862 49.4121 113.953 49.9987 113.953 50.6707C113.953 50.7561 113.947 50.8414 113.937 50.9267C113.937 51.0121 113.931 51.0814 113.921 51.1347H107.953C107.953 51.5081 108.017 51.8601 108.145 52.1907C108.283 52.5107 108.465 52.7934 108.689 53.0387C108.923 53.2734 109.19 53.4601 109.489 53.5987C109.798 53.7374 110.129 53.8067 110.481 53.8067C111.057 53.8067 111.526 53.6947 111.889 53.4707C112.262 53.2467 112.571 52.9747 112.817 52.6547L113.585 53.4387C113.243 53.8867 112.817 54.2441 112.305 54.5107C111.803 54.7774 111.174 54.9108 110.417 54.9108ZM110.305 47.6787C109.931 47.6787 109.601 47.7481 109.313 47.8867C109.025 48.0254 108.785 48.2067 108.593 48.4307C108.401 48.6547 108.251 48.9107 108.145 49.1987C108.049 49.4867 107.995 49.7747 107.985 50.0627H112.609C112.598 49.7747 112.539 49.4867 112.433 49.1987C112.337 48.9107 112.193 48.6547 112.001 48.4307C111.809 48.2067 111.569 48.0254 111.281 47.8867C111.003 47.7481 110.678 47.6787 110.305 47.6787ZM116.016 43.1187H117.296V54.7188H116.016V43.1187ZM123.104 54.9108C122.539 54.9108 122.022 54.8148 121.552 54.6227C121.094 54.4307 120.699 54.1587 120.368 53.8067C120.048 53.4441 119.798 53.0067 119.616 52.4947C119.446 51.9827 119.36 51.4067 119.36 50.7667C119.36 50.0947 119.451 49.5027 119.632 48.9907C119.814 48.4681 120.064 48.0361 120.384 47.6947C120.704 47.3427 121.083 47.0761 121.52 46.8947C121.968 46.7134 122.459 46.6227 122.992 46.6227C123.526 46.6227 124.016 46.7081 124.464 46.8787C124.912 47.0494 125.296 47.3054 125.616 47.6467C125.936 47.9774 126.187 48.3987 126.368 48.9107C126.55 49.4121 126.64 49.9987 126.64 50.6707C126.64 50.7561 126.635 50.8414 126.624 50.9267C126.624 51.0121 126.619 51.0814 126.608 51.1347H120.64C120.64 51.5081 120.704 51.8601 120.832 52.1907C120.971 52.5107 121.152 52.7934 121.376 53.0387C121.611 53.2734 121.878 53.4601 122.176 53.5987C122.486 53.7374 122.816 53.8067 123.168 53.8067C123.744 53.8067 124.214 53.6947 124.576 53.4707C124.95 53.2467 125.259 52.9747 125.504 52.6547L126.272 53.4387C125.931 53.8867 125.504 54.2441 124.992 54.5107C124.491 54.7774 123.862 54.9108 123.104 54.9108ZM122.992 47.6787C122.619 47.6787 122.288 47.7481 122 47.8867C121.712 48.0254 121.472 48.2067 121.28 48.4307C121.088 48.6547 120.939 48.9107 120.832 49.1987C120.736 49.4867 120.683 49.7747 120.672 50.0627H125.296C125.286 49.7747 125.227 49.4867 125.12 49.1987C125.024 48.9107 124.88 48.6547 124.688 48.4307C124.496 48.2067 124.256 48.0254 123.968 47.8867C123.691 47.7481 123.366 47.6787 122.992 47.6787ZM131.712 54.9108C131.072 54.9108 130.517 54.7934 130.048 54.5587C129.589 54.3241 129.21 54.0147 128.912 53.6307C128.613 53.2467 128.394 52.8094 128.256 52.3187C128.117 51.8174 128.048 51.3001 128.048 50.7667C128.048 50.2334 128.117 49.7214 128.256 49.2307C128.394 48.7294 128.608 48.2867 128.896 47.9027C129.194 47.5187 129.573 47.2094 130.032 46.9747C130.49 46.7401 131.04 46.6227 131.68 46.6227C132.352 46.6227 132.901 46.7347 133.328 46.9587C133.754 47.1827 134.117 47.4814 134.416 47.8547L133.616 48.6067C133.36 48.3294 133.088 48.1161 132.8 47.9667C132.522 47.8067 132.16 47.7267 131.712 47.7267C131.008 47.7267 130.437 47.9987 130 48.5427C129.573 49.0761 129.36 49.8174 129.36 50.7667C129.36 51.2361 129.418 51.6574 129.536 52.0307C129.653 52.4041 129.818 52.7241 130.032 52.9907C130.245 53.2574 130.496 53.4601 130.784 53.5987C131.072 53.7374 131.392 53.8067 131.744 53.8067C132.17 53.8067 132.538 53.7321 132.848 53.5827C133.157 53.4227 133.445 53.1934 133.712 52.8947L134.48 53.6628C134.17 54.0361 133.792 54.3401 133.344 54.5747C132.896 54.7987 132.352 54.9108 131.712 54.9108ZM138.776 54.9108C138.062 54.9108 137.539 54.6974 137.208 54.2707C136.878 53.8441 136.712 53.2574 136.712 52.5107V47.8547H135.304V46.8147H136.712V44.6707H137.976V46.8147H140.264V47.8547H137.976V52.3987C137.976 52.9107 138.072 53.2681 138.264 53.4707C138.467 53.6734 138.723 53.7747 139.032 53.7747C139.246 53.7747 139.438 53.7374 139.608 53.6628C139.779 53.5774 139.939 53.4654 140.088 53.3267L140.664 54.2227C140.174 54.6814 139.544 54.9108 138.776 54.9108ZM143.047 54.9108C142.748 54.9108 142.514 54.8148 142.343 54.6227C142.172 54.4307 142.087 54.2121 142.087 53.9667C142.087 53.7107 142.172 53.4921 142.343 53.3107C142.514 53.1187 142.748 53.0227 143.047 53.0227C143.356 53.0227 143.591 53.1187 143.751 53.3107C143.922 53.4921 144.007 53.7107 144.007 53.9667C144.007 54.2121 143.922 54.4307 143.751 54.6227C143.591 54.8148 143.356 54.9108 143.047 54.9108ZM147.047 54.9108C146.748 54.9108 146.514 54.8148 146.343 54.6227C146.172 54.4307 146.087 54.2121 146.087 53.9667C146.087 53.7107 146.172 53.4921 146.343 53.3107C146.514 53.1187 146.748 53.0227 147.047 53.0227C147.356 53.0227 147.591 53.1187 147.751 53.3107C147.922 53.4921 148.007 53.7107 148.007 53.9667C148.007 54.2121 147.922 54.4307 147.751 54.6227C147.591 54.8148 147.356 54.9108 147.047 54.9108ZM151.047 54.9108C150.748 54.9108 150.514 54.8148 150.343 54.6227C150.172 54.4307 150.087 54.2121 150.087 53.9667C150.087 53.7107 150.172 53.4921 150.343 53.3107C150.514 53.1187 150.748 53.0227 151.047 53.0227C151.356 53.0227 151.591 53.1187 151.751 53.3107C151.922 53.4921 152.007 53.7107 152.007 53.9667C152.007 54.2121 151.922 54.4307 151.751 54.6227C151.591 54.8148 151.356 54.9108 151.047 54.9108Z" fill="#242E30"/>
<path d="M304.775 45.0234L311.25 51.7172L317.747 44.9688L318.95 46.0625L312.245 53.0187C311.973 53.2879 311.606 53.4389 311.223 53.4389C310.84 53.4389 310.472 53.2879 310.2 53.0187L303.594 46.15L304.775 45.0234Z" fill="#242E30"/>
</g>
</g>
<path d="M81.75 36.7188C81.75 30.3675 86.8987 25.2188 93.25 25.2188H325.25C331.601 25.2188 336.75 30.3675 336.75 36.7188V60.7188C336.75 67.07 331.601 72.2188 325.25 72.2188H93.25C86.8987 72.2188 81.75 67.07 81.75 60.7188V36.7188Z" stroke="#82817F"/>
<g clip-path="url(#clip5_11497_37564)">
<path d="M84.876 82.6187H86.43L89.706 91.7188H88.432L87.718 89.7167H83.532L82.818 91.7188H81.614L84.876 82.6187ZM83.882 88.7087H87.368L85.66 83.6127H85.576L83.882 88.7087ZM94.5904 89.9267C94.5904 89.7214 94.5437 89.5534 94.4504 89.4227C94.357 89.2827 94.2264 89.1661 94.0584 89.0727C93.8997 88.9794 93.7177 88.9001 93.5124 88.8347C93.307 88.7694 93.0924 88.7041 92.8684 88.6387C92.607 88.5641 92.355 88.4754 92.1124 88.3727C91.879 88.2701 91.669 88.1441 91.4824 87.9947C91.2957 87.8361 91.1464 87.6494 91.0344 87.4347C90.9224 87.2201 90.8664 86.9587 90.8664 86.6507C90.8664 86.3241 90.927 86.0347 91.0484 85.7827C91.1697 85.5307 91.3377 85.3207 91.5524 85.1527C91.767 84.9847 92.019 84.8587 92.3084 84.7747C92.5977 84.6814 92.9104 84.6347 93.2464 84.6347C93.7504 84.6347 94.2124 84.7281 94.6324 84.9147C95.0524 85.0921 95.3977 85.3721 95.6684 85.7547L94.9404 86.4267C94.735 86.1841 94.4924 85.9834 94.2124 85.8247C93.9417 85.6661 93.6197 85.5867 93.2464 85.5867C93.0877 85.5867 92.929 85.6054 92.7704 85.6427C92.621 85.6801 92.4857 85.7407 92.3644 85.8247C92.243 85.8994 92.145 85.9974 92.0704 86.1187C91.9957 86.2401 91.9584 86.3847 91.9584 86.5527C91.9584 86.7581 92.005 86.9307 92.0984 87.0707C92.1917 87.2014 92.3177 87.3134 92.4764 87.4067C92.6444 87.5001 92.831 87.5794 93.0364 87.6447C93.2417 87.7101 93.4564 87.7754 93.6804 87.8407C93.9417 87.9154 94.189 88.0041 94.4224 88.1067C94.665 88.2094 94.8797 88.3401 95.0664 88.4987C95.253 88.6481 95.4024 88.8301 95.5144 89.0447C95.6264 89.2594 95.6824 89.5207 95.6824 89.8287C95.6824 90.1927 95.6124 90.5054 95.4724 90.7667C95.3417 91.0187 95.1597 91.2287 94.9264 91.3967C94.693 91.5647 94.4224 91.6861 94.1144 91.7608C93.8064 91.8448 93.4797 91.8868 93.1344 91.8868C92.5277 91.8868 92.0097 91.7841 91.5804 91.5787C91.1604 91.3734 90.829 91.1074 90.5864 90.7807L91.3284 90.0807C91.543 90.3327 91.7904 90.5381 92.0704 90.6967C92.3597 90.8554 92.719 90.9347 93.1484 90.9347C93.3444 90.9347 93.5264 90.9161 93.6944 90.8787C93.8717 90.8414 94.0257 90.7807 94.1564 90.6967C94.287 90.6127 94.3897 90.5101 94.4644 90.3887C94.5484 90.2581 94.5904 90.1041 94.5904 89.9267ZM100.948 89.9267C100.948 89.7214 100.901 89.5534 100.808 89.4227C100.714 89.2827 100.584 89.1661 100.416 89.0727C100.257 88.9794 100.075 88.9001 99.8698 88.8347C99.6644 88.7694 99.4498 88.7041 99.2258 88.6387C98.9644 88.5641 98.7124 88.4754 98.4698 88.3727C98.2364 88.2701 98.0264 88.1441 97.8398 87.9947C97.6531 87.8361 97.5038 87.6494 97.3918 87.4347C97.2798 87.2201 97.2238 86.9587 97.2238 86.6507C97.2238 86.3241 97.2844 86.0347 97.4058 85.7827C97.5271 85.5307 97.6951 85.3207 97.9098 85.1527C98.1244 84.9847 98.3764 84.8587 98.6658 84.7747C98.9551 84.6814 99.2678 84.6347 99.6038 84.6347C100.108 84.6347 100.57 84.7281 100.99 84.9147C101.41 85.0921 101.755 85.3721 102.026 85.7547L101.298 86.4267C101.092 86.1841 100.85 85.9834 100.57 85.8247C100.299 85.6661 99.9771 85.5867 99.6038 85.5867C99.4451 85.5867 99.2864 85.6054 99.1278 85.6427C98.9784 85.6801 98.8431 85.7407 98.7218 85.8247C98.6004 85.8994 98.5024 85.9974 98.4278 86.1187C98.3531 86.2401 98.3158 86.3847 98.3158 86.5527C98.3158 86.7581 98.3624 86.9307 98.4558 87.0707C98.5491 87.2014 98.6751 87.3134 98.8338 87.4067C99.0018 87.5001 99.1884 87.5794 99.3938 87.6447C99.5991 87.7101 99.8138 87.7754 100.038 87.8407C100.299 87.9154 100.546 88.0041 100.78 88.1067C101.022 88.2094 101.237 88.3401 101.424 88.4987C101.61 88.6481 101.76 88.8301 101.872 89.0447C101.984 89.2594 102.04 89.5207 102.04 89.8287C102.04 90.1927 101.97 90.5054 101.83 90.7667C101.699 91.0187 101.517 91.2287 101.284 91.3967C101.05 91.5647 100.78 91.6861 100.472 91.7608C100.164 91.8448 99.8371 91.8868 99.4918 91.8868C98.8851 91.8868 98.3671 91.7841 97.9378 91.5787C97.5178 91.3734 97.1864 91.1074 96.9438 90.7807L97.6858 90.0807C97.9004 90.3327 98.1478 90.5381 98.4278 90.6967C98.7171 90.8554 99.0764 90.9347 99.5058 90.9347C99.7018 90.9347 99.8838 90.9161 100.052 90.8787C100.229 90.8414 100.383 90.7807 100.514 90.6967C100.644 90.6127 100.747 90.5101 100.822 90.3887C100.906 90.2581 100.948 90.1041 100.948 89.9267ZM105.275 82.9688C105.275 83.1647 105.205 83.3327 105.065 83.4727C104.935 83.6127 104.757 83.6827 104.533 83.6827C104.3 83.6827 104.118 83.6127 103.987 83.4727C103.857 83.3327 103.791 83.1647 103.791 82.9688C103.791 82.7821 103.857 82.6187 103.987 82.4787C104.118 82.3294 104.3 82.2547 104.533 82.2547C104.757 82.2547 104.935 82.3294 105.065 82.4787C105.205 82.6187 105.275 82.7821 105.275 82.9688ZM103.973 84.8027H105.093V91.7188H103.973V84.8027ZM110.805 89.9267C110.805 89.7214 110.759 89.5534 110.665 89.4227C110.572 89.2827 110.441 89.1661 110.273 89.0727C110.115 88.9794 109.933 88.9001 109.727 88.8347C109.522 88.7694 109.307 88.7041 109.083 88.6387C108.822 88.5641 108.57 88.4754 108.327 88.3727C108.094 88.2701 107.884 88.1441 107.697 87.9947C107.511 87.8361 107.361 87.6494 107.249 87.4347C107.137 87.2201 107.081 86.9587 107.081 86.6507C107.081 86.3241 107.142 86.0347 107.263 85.7827C107.385 85.5307 107.553 85.3207 107.767 85.1527C107.982 84.9847 108.234 84.8587 108.523 84.7747C108.813 84.6814 109.125 84.6347 109.461 84.6347C109.965 84.6347 110.427 84.7281 110.847 84.9147C111.267 85.0921 111.613 85.3721 111.883 85.7547L111.155 86.4267C110.95 86.1841 110.707 85.9834 110.427 85.8247C110.157 85.6661 109.835 85.5867 109.461 85.5867C109.303 85.5867 109.144 85.6054 108.985 85.6427C108.836 85.6801 108.701 85.7407 108.579 85.8247C108.458 85.8994 108.36 85.9974 108.285 86.1187C108.211 86.2401 108.173 86.3847 108.173 86.5527C108.173 86.7581 108.22 86.9307 108.313 87.0707C108.407 87.2014 108.533 87.3134 108.691 87.4067C108.859 87.5001 109.046 87.5794 109.251 87.6447C109.457 87.7101 109.671 87.7754 109.895 87.8407C110.157 87.9154 110.404 88.0041 110.637 88.1067C110.88 88.2094 111.095 88.3401 111.281 88.4987C111.468 88.6481 111.617 88.8301 111.729 89.0447C111.841 89.2594 111.897 89.5207 111.897 89.8287C111.897 90.1927 111.827 90.5054 111.687 90.7667C111.557 91.0187 111.375 91.2287 111.141 91.3967C110.908 91.5647 110.637 91.6861 110.329 91.7608C110.021 91.8448 109.695 91.8868 109.349 91.8868C108.743 91.8868 108.225 91.7841 107.795 91.5787C107.375 91.3734 107.044 91.1074 106.801 90.7807L107.543 90.0807C107.758 90.3327 108.005 90.5381 108.285 90.6967C108.575 90.8554 108.934 90.9347 109.363 90.9347C109.559 90.9347 109.741 90.9161 109.909 90.8787C110.087 90.8414 110.241 90.7807 110.371 90.6967C110.502 90.6127 110.605 90.5101 110.679 90.3887C110.763 90.2581 110.805 90.1041 110.805 89.9267ZM115.959 91.8868C115.333 91.8868 114.876 91.7001 114.587 91.3267C114.297 90.9534 114.153 90.4401 114.153 89.7867V85.7127H112.921V84.8027H114.153V82.9267H115.259V84.8027H117.261V85.7127H115.259V89.6887C115.259 90.1367 115.343 90.4494 115.511 90.6267C115.688 90.8041 115.912 90.8927 116.183 90.8927C116.369 90.8927 116.537 90.8601 116.687 90.7948C116.836 90.7201 116.976 90.6221 117.107 90.5007L117.611 91.2847C117.181 91.6861 116.631 91.8868 115.959 91.8868ZM120.437 82.9688C120.437 83.1647 120.367 83.3327 120.227 83.4727C120.097 83.6127 119.919 83.6827 119.695 83.6827C119.462 83.6827 119.28 83.6127 119.149 83.4727C119.019 83.3327 118.953 83.1647 118.953 82.9688C118.953 82.7821 119.019 82.6187 119.149 82.4787C119.28 82.3294 119.462 82.2547 119.695 82.2547C119.919 82.2547 120.097 82.3294 120.227 82.4787C120.367 82.6187 120.437 82.7821 120.437 82.9688ZM119.135 84.8027H120.255V91.7188H119.135V84.8027ZM121.725 84.8027H122.943L125.029 90.5707H125.113L127.213 84.8027H128.347L125.659 91.7188H124.399L121.725 84.8027ZM132.378 91.8868C131.884 91.8868 131.431 91.8028 131.02 91.6347C130.619 91.4667 130.274 91.2287 129.984 90.9207C129.704 90.6034 129.485 90.2207 129.326 89.7727C129.177 89.3247 129.102 88.8207 129.102 88.2607C129.102 87.6727 129.182 87.1547 129.34 86.7067C129.499 86.2494 129.718 85.8714 129.998 85.5727C130.278 85.2647 130.61 85.0314 130.992 84.8727C131.384 84.7141 131.814 84.6347 132.28 84.6347C132.747 84.6347 133.176 84.7094 133.568 84.8587C133.96 85.0081 134.296 85.2321 134.576 85.5307C134.856 85.8201 135.076 86.1887 135.234 86.6367C135.393 87.0754 135.472 87.5887 135.472 88.1767C135.472 88.2514 135.468 88.3261 135.458 88.4007C135.458 88.4754 135.454 88.5361 135.444 88.5827H130.222C130.222 88.9094 130.278 89.2174 130.39 89.5067C130.512 89.7867 130.67 90.0341 130.866 90.2487C131.072 90.4541 131.305 90.6174 131.566 90.7387C131.837 90.8601 132.126 90.9207 132.434 90.9207C132.938 90.9207 133.349 90.8227 133.666 90.6267C133.993 90.4307 134.264 90.1927 134.478 89.9127L135.15 90.5987C134.852 90.9907 134.478 91.3034 134.03 91.5367C133.592 91.7701 133.041 91.8868 132.378 91.8868ZM132.28 85.5587C131.954 85.5587 131.664 85.6194 131.412 85.7407C131.16 85.8621 130.95 86.0207 130.782 86.2167C130.614 86.4127 130.484 86.6367 130.39 86.8887C130.306 87.1407 130.26 87.3927 130.25 87.6447H134.296C134.287 87.3927 134.236 87.1407 134.142 86.8887C134.058 86.6367 133.932 86.4127 133.764 86.2167C133.596 86.0207 133.386 85.8621 133.134 85.7407C132.892 85.6194 132.607 85.5587 132.28 85.5587ZM142.769 91.8868C142.144 91.8868 141.687 91.7001 141.397 91.3267C141.108 90.9534 140.963 90.4401 140.963 89.7867V85.7127H139.731V84.8027H140.963V82.9267H142.069V84.8027H144.071V85.7127H142.069V89.6887C142.069 90.1367 142.153 90.4494 142.321 90.6267C142.499 90.8041 142.723 90.8927 142.993 90.8927C143.18 90.8927 143.348 90.8601 143.497 90.7948C143.647 90.7201 143.787 90.6221 143.917 90.5007L144.421 91.2847C143.992 91.6861 143.441 91.8868 142.769 91.8868ZM148.538 91.8868C148.044 91.8868 147.591 91.8028 147.18 91.6347C146.779 91.4667 146.434 91.2287 146.144 90.9207C145.864 90.6034 145.645 90.2207 145.486 89.7727C145.337 89.3247 145.262 88.8207 145.262 88.2607C145.262 87.6727 145.342 87.1547 145.5 86.7067C145.659 86.2494 145.878 85.8714 146.158 85.5727C146.438 85.2647 146.77 85.0314 147.152 84.8727C147.544 84.7141 147.974 84.6347 148.44 84.6347C148.907 84.6347 149.336 84.7094 149.728 84.8587C150.12 85.0081 150.456 85.2321 150.736 85.5307C151.016 85.8201 151.236 86.1887 151.394 86.6367C151.553 87.0754 151.632 87.5887 151.632 88.1767C151.632 88.2514 151.628 88.3261 151.618 88.4007C151.618 88.4754 151.614 88.5361 151.604 88.5827H146.382C146.382 88.9094 146.438 89.2174 146.55 89.5067C146.672 89.7867 146.83 90.0341 147.026 90.2487C147.232 90.4541 147.465 90.6174 147.726 90.7387C147.997 90.8601 148.286 90.9207 148.594 90.9207C149.098 90.9207 149.509 90.8227 149.826 90.6267C150.153 90.4307 150.424 90.1927 150.638 89.9127L151.31 90.5987C151.012 90.9907 150.638 91.3034 150.19 91.5367C149.752 91.7701 149.201 91.8868 148.538 91.8868ZM148.44 85.5587C148.114 85.5587 147.824 85.6194 147.572 85.7407C147.32 85.8621 147.11 86.0207 146.942 86.2167C146.774 86.4127 146.644 86.6367 146.55 86.8887C146.466 87.1407 146.42 87.3927 146.41 87.6447H150.456C150.447 87.3927 150.396 87.1407 150.302 86.8887C150.218 86.6367 150.092 86.4127 149.924 86.2167C149.756 86.0207 149.546 85.8621 149.294 85.7407C149.052 85.6194 148.767 85.5587 148.44 85.5587ZM154.886 88.2047L152.576 84.8027H153.92L155.558 87.3927H155.614L157.308 84.8027H158.512L156.202 88.1487L158.624 91.7188H157.28L155.53 88.9607H155.474L153.668 91.7188H152.464L154.886 88.2047ZM162.402 91.8868C161.777 91.8868 161.319 91.7001 161.03 91.3267C160.741 90.9534 160.596 90.4401 160.596 89.7867V85.7127H159.364V84.8027H160.596V82.9267H161.702V84.8027H163.704V85.7127H161.702V89.6887C161.702 90.1367 161.786 90.4494 161.954 90.6267C162.131 90.8041 162.355 90.8927 162.626 90.8927C162.813 90.8927 162.981 90.8601 163.13 90.7948C163.279 90.7201 163.419 90.6221 163.55 90.5007L164.054 91.2847C163.625 91.6861 163.074 91.8868 162.402 91.8868Z" fill="#3C4C4F"/>
</g>
<circle cx="12.5" cy="12.5" r="12.5" fill="#262626"/>
<path d="M9.45987 15.502H11.9099L11.9099 9.86L9.79587 10.714L9.19387 9.398L12.4419 7.9H13.7719L13.7719 15.502L15.9559 15.502L15.9559 17L9.45987 17L9.45987 15.502Z" fill="white"/>
<rect x="25" y="12" width="56" height="1" rx="0.5" fill="#FF8000"/>
<rect x="81.5" y="0.5" width="255" height="23" rx="1.5" stroke="#F36805" stroke-dasharray="4 4"/>
<circle cx="13" cy="49" r="12.5" fill="#262626"/>
<path d="M9.76387 52.03C9.76387 51.61 9.82453 51.2413 9.94587 50.924C10.0765 50.6067 10.2539 50.322 10.4779 50.07C10.7019 49.818 10.9679 49.5893 11.2759 49.384C11.5839 49.1787 11.9199 48.978 12.2839 48.782C12.6479 48.586 12.9512 48.418 13.1939 48.278C13.4459 48.1287 13.6419 47.984 13.7819 47.844C13.9312 47.704 14.0339 47.564 14.0899 47.424C14.1552 47.2747 14.1879 47.102 14.1879 46.906C14.1879 46.5233 14.0479 46.2433 13.7679 46.066C13.4879 45.8887 13.1519 45.8 12.7599 45.8C12.3399 45.8 11.9525 45.8793 11.5979 46.038C11.2525 46.1873 10.9539 46.3973 10.7019 46.668L9.76387 45.562C10.1092 45.17 10.5479 44.8527 11.0799 44.61C11.6119 44.358 12.2232 44.232 12.9139 44.232C13.3805 44.232 13.8052 44.288 14.1879 44.4C14.5799 44.512 14.9112 44.68 15.1819 44.904C15.4619 45.1187 15.6765 45.3847 15.8259 45.702C15.9845 46.0193 16.0639 46.3833 16.0639 46.794C16.0639 47.1953 16.0032 47.55 15.8819 47.858C15.7605 48.1567 15.5832 48.4367 15.3499 48.698C15.1165 48.95 14.8272 49.188 14.4819 49.412C14.1459 49.636 13.7585 49.8647 13.3199 50.098C13.0212 50.266 12.7645 50.4107 12.5499 50.532C12.3445 50.6533 12.1719 50.7747 12.0319 50.896C11.9012 51.0173 11.8032 51.1387 11.7379 51.26C11.6819 51.3813 11.6539 51.526 11.6539 51.694V51.988L16.3019 51.988L16.3019 53.5L9.76387 53.5L9.76387 52.03Z" fill="white"/>
<rect x="25.5" y="48.5" width="72" height="1" rx="0.5" fill="#FF8000"/>
<rect x="321.25" y="47.5" width="72" height="1" rx="0.5" fill="#FF8000"/>
<circle cx="405.75" cy="48" r="12.5" fill="#262626"/>
<path d="M405.384 52.668C404.656 52.668 404.045 52.5607 403.55 52.346C403.055 52.122 402.631 51.8187 402.276 51.436L403.298 50.302C403.522 50.554 403.802 50.7593 404.138 50.918C404.483 51.0767 404.866 51.156 405.286 51.156C405.79 51.156 406.196 51.044 406.504 50.82C406.812 50.596 406.966 50.2647 406.966 49.826C406.966 49.406 406.821 49.098 406.532 48.902C406.243 48.706 405.86 48.608 405.384 48.608H404.474V47.124H405.384C405.804 47.124 406.117 47.0167 406.322 46.802C406.527 46.578 406.63 46.2887 406.63 45.934C406.63 45.7193 406.593 45.5373 406.518 45.388C406.443 45.2387 406.341 45.1173 406.21 45.024C406.089 44.9213 405.944 44.8513 405.776 44.814C405.608 44.7673 405.435 44.744 405.258 44.744C404.875 44.744 404.525 44.8187 404.208 44.968C403.891 45.1173 403.625 45.3133 403.41 45.556L402.444 44.464C402.78 44.0907 403.186 43.792 403.662 43.568C404.138 43.344 404.726 43.232 405.426 43.232C405.883 43.232 406.303 43.2927 406.686 43.414C407.069 43.5353 407.395 43.708 407.666 43.932C407.937 44.1467 408.147 44.4033 408.296 44.702C408.445 45.0007 408.52 45.332 408.52 45.696C408.52 46.172 408.38 46.592 408.1 46.956C407.82 47.3107 407.414 47.5813 406.882 47.768V47.852C407.162 47.908 407.419 48.0013 407.652 48.132C407.895 48.2627 408.1 48.426 408.268 48.622C408.445 48.8087 408.585 49.0233 408.688 49.266C408.791 49.4993 408.842 49.756 408.842 50.036C408.842 50.4187 408.767 50.7733 408.618 51.1C408.469 51.4173 408.245 51.6927 407.946 51.926C407.657 52.1593 407.297 52.3413 406.868 52.472C406.439 52.6027 405.944 52.668 405.384 52.668Z" fill="white"/>
<circle cx="12.5" cy="84.5" r="12.5" fill="#262626"/>
<path d="M13.1839 87.306H8.81587V85.976L12.5959 79.9H14.6259L10.9299 85.808H13.1839V83.554H15.0039V85.808H16.1519V87.306H15.0039L15.0039 89H13.1839L13.1839 87.306Z" fill="white"/>
<rect x="25" y="84" width="56" height="1" rx="0.5" fill="#FF8000"/>
<defs>
<clipPath id="clip0_11497_37564">
<rect width="256" height="24" fill="white" transform="translate(81.25 0.71875)"/>
</clipPath>
<clipPath id="clip1_11497_37564">
<rect width="256" height="20" fill="white" transform="translate(81.25 0.71875)"/>
</clipPath>
<clipPath id="clip2_11497_37564">
<rect width="34" height="20" fill="white" transform="translate(81.25 0.71875)"/>
</clipPath>
<clipPath id="clip3_11497_37564">
<path d="M81.25 36.7188C81.25 30.0913 86.6226 24.7188 93.25 24.7188H325.25C331.877 24.7188 337.25 30.0913 337.25 36.7188V60.7188C337.25 67.3462 331.877 72.7188 325.25 72.7188H93.25C86.6226 72.7188 81.25 67.3462 81.25 60.7188V36.7188Z" fill="white"/>
</clipPath>
<clipPath id="clip4_11497_37564">
<rect width="256" height="48" fill="white" transform="translate(81.25 24.7188)"/>
</clipPath>
<clipPath id="clip5_11497_37564">
<rect width="256" height="24" fill="white" transform="translate(81.25 72.7188)"/>
</clipPath>
</defs>
</svg>
