<svg width="266" height="262" viewBox="0 0 266 262" fill="none" xmlns="http://www.w3.org/2000/svg">
<rect x="4" y="127" width="258" height="46" rx="13" stroke="white" stroke-width="2"/>
<rect x="2" y="125" width="262" height="48" rx="15" stroke="#094DAC" stroke-width="2"/>
<g clip-path="url(#clip0_11616_13523)">
<path d="M6.022 5.9H7.898V13.474H11.524V15H6.022V5.9ZM14.6733 15.168C14.3653 15.168 14.0713 15.1167 13.7913 15.014C13.5207 14.9207 13.2827 14.7853 13.0773 14.608C12.872 14.4213 12.7087 14.1973 12.5873 13.936C12.4753 13.6747 12.4193 13.3807 12.4193 13.054C12.4193 12.438 12.6387 11.948 13.0773 11.584C13.516 11.22 14.1833 11.0147 15.0793 10.968L16.7033 10.87V10.59C16.7033 10.142 16.568 9.834 16.2973 9.666C16.0267 9.498 15.6907 9.414 15.2893 9.414C14.972 9.414 14.6733 9.47467 14.3933 9.596C14.1133 9.708 13.9033 9.848 13.7633 10.016L12.7693 9.008C13.012 8.69067 13.362 8.42933 13.8193 8.224C14.286 8.01867 14.8553 7.916 15.5273 7.916C16.5167 7.916 17.254 8.14467 17.7393 8.602C18.2247 9.05933 18.4673 9.68 18.4673 10.464V15H16.8013V13.894H16.7173C16.54 14.286 16.2833 14.5987 15.9473 14.832C15.6113 15.056 15.1867 15.168 14.6733 15.168ZM15.1913 13.894C15.6393 13.894 16.0033 13.768 16.2833 13.516C16.5633 13.2547 16.7033 12.8907 16.7033 12.424V11.962L15.2893 12.074C14.5613 12.1207 14.1973 12.4287 14.1973 12.998C14.1973 13.2873 14.2907 13.5113 14.4773 13.67C14.664 13.8193 14.902 13.894 15.1913 13.894ZM24.2154 15.168C23.6741 15.168 23.2028 15.0373 22.8014 14.776C22.4094 14.5147 22.1294 14.1553 21.9614 13.698H21.8774V15H20.1974V4.85H21.9614V9.274H22.0454C22.2041 8.87267 22.4701 8.546 22.8434 8.294C23.2168 8.042 23.6741 7.916 24.2154 7.916C24.6448 7.916 25.0414 8.00467 25.4054 8.182C25.7788 8.35933 26.0961 8.61133 26.3574 8.938C26.6281 9.25533 26.8381 9.638 26.9874 10.086C27.1368 10.534 27.2114 11.0287 27.2114 11.57C27.2114 12.102 27.1368 12.592 26.9874 13.04C26.8381 13.4787 26.6281 13.8567 26.3574 14.174C26.0961 14.482 25.7788 14.7247 25.4054 14.902C25.0414 15.0793 24.6448 15.168 24.2154 15.168ZM23.6694 13.628C24.1921 13.628 24.6121 13.4413 24.9294 13.068C25.2468 12.6947 25.4054 12.186 25.4054 11.542C25.4054 10.898 25.2468 10.3893 24.9294 10.016C24.6121 9.64267 24.1921 9.456 23.6694 9.456C23.1561 9.456 22.7408 9.64267 22.4234 10.016C22.1154 10.3893 21.9614 10.898 21.9614 11.542C21.9614 12.186 22.1154 12.6947 22.4234 13.068C22.7408 13.4413 23.1561 13.628 23.6694 13.628ZM31.588 15.168C31.0093 15.168 30.5053 15.0747 30.076 14.888C29.6466 14.7013 29.2826 14.4447 28.984 14.118C28.6946 13.782 28.4753 13.3947 28.326 12.956C28.186 12.5173 28.116 12.046 28.116 11.542C28.116 11.0287 28.186 10.5527 28.326 10.114C28.466 9.666 28.676 9.28333 28.956 8.966C29.236 8.63933 29.586 8.38267 30.006 8.196C30.426 8.00933 30.916 7.916 31.476 7.916C32.036 7.916 32.526 8.00467 32.946 8.182C33.366 8.35933 33.7113 8.60667 33.982 8.924C34.2526 9.24133 34.4533 9.61933 34.584 10.058C34.724 10.4873 34.794 10.9587 34.794 11.472C34.794 11.5653 34.7846 11.6727 34.766 11.794C34.7566 11.9153 34.7426 12.0133 34.724 12.088H29.908C29.936 12.34 30.0013 12.5687 30.104 12.774C30.216 12.97 30.3513 13.138 30.51 13.278C30.678 13.418 30.86 13.5253 31.056 13.6C31.2613 13.6653 31.4713 13.698 31.686 13.698C32.0873 13.698 32.4233 13.628 32.694 13.488C32.9646 13.348 33.184 13.1707 33.352 12.956L34.346 13.992C34.0846 14.3467 33.7206 14.6313 33.254 14.846C32.7873 15.0607 32.232 15.168 31.588 15.168ZM31.476 9.26C31.028 9.26 30.664 9.40467 30.384 9.694C30.104 9.98333 29.9406 10.366 29.894 10.842H33.03C32.9833 10.366 32.82 9.98333 32.54 9.694C32.2693 9.40467 31.9146 9.26 31.476 9.26ZM36.1662 4.85H37.9302V15H36.1662V4.85Z" fill="#242E30"/>
</g>
<g clip-path="url(#clip1_11616_13523)">
<path d="M5 36C5 29.3726 10.3726 24 17 24H249C255.627 24 261 29.3726 261 36V60C261 66.6274 255.627 72 249 72H17C10.3726 72 5 66.6274 5 60V36Z" fill="white"/>
<g clip-path="url(#clip2_11616_13523)">
<g opacity="0.08">
<rect width="4" height="48" transform="translate(5 24)" fill="white" fill-opacity="0.01"/>
</g>
<path d="M25.192 54.192C24.2853 54.192 23.5493 54.0533 22.984 53.776C22.4187 53.4987 21.9707 53.1413 21.64 52.704L22.504 51.888C22.792 52.24 23.1707 52.5173 23.64 52.72C24.12 52.9227 24.68 53.024 25.32 53.024C25.608 53.024 25.8853 52.992 26.152 52.928C26.4187 52.864 26.6533 52.768 26.856 52.64C27.0693 52.5013 27.2347 52.32 27.352 52.096C27.48 51.872 27.544 51.6 27.544 51.28C27.544 51.0027 27.48 50.768 27.352 50.576C27.224 50.3733 27.048 50.2027 26.824 50.064C26.6107 49.9147 26.3547 49.7867 26.056 49.68C25.7573 49.5627 25.432 49.4453 25.08 49.328C24.7067 49.2 24.3387 49.0667 23.976 48.928C23.6133 48.7787 23.288 48.592 23 48.368C22.712 48.144 22.4773 47.872 22.296 47.552C22.1147 47.2213 22.024 46.816 22.024 46.336C22.024 45.856 22.1093 45.4347 22.28 45.072C22.4613 44.7093 22.7067 44.4053 23.016 44.16C23.3253 43.9147 23.6933 43.728 24.12 43.6C24.5467 43.472 25.0107 43.408 25.512 43.408C26.248 43.408 26.904 43.536 27.48 43.792C28.0667 44.048 28.5413 44.4373 28.904 44.96L28.04 45.808C27.752 45.456 27.384 45.1627 26.936 44.928C26.488 44.6933 25.976 44.576 25.4 44.576C25.1547 44.576 24.9147 44.608 24.68 44.672C24.4453 44.7253 24.232 44.8213 24.04 44.96C23.848 45.0987 23.6933 45.2747 23.576 45.488C23.4587 45.7013 23.4 45.9573 23.4 46.256C23.4 46.5333 23.464 46.7733 23.592 46.976C23.72 47.168 23.8907 47.3387 24.104 47.488C24.328 47.6267 24.5893 47.7547 24.888 47.872C25.1867 47.9787 25.512 48.0907 25.864 48.208C26.2373 48.336 26.6053 48.4747 26.968 48.624C27.3307 48.7733 27.656 48.96 27.944 49.184C28.232 49.408 28.4667 49.68 28.648 50C28.8293 50.32 28.92 50.72 28.92 51.2C28.92 51.712 28.8187 52.16 28.616 52.544C28.424 52.9173 28.1573 53.2267 27.816 53.472C27.4853 53.7173 27.0907 53.8987 26.632 54.016C26.184 54.1333 25.704 54.192 25.192 54.192ZM34.1668 54.192C33.6014 54.192 33.0841 54.096 32.6148 53.904C32.1561 53.712 31.7614 53.44 31.4308 53.088C31.1108 52.7253 30.8601 52.288 30.6788 51.776C30.5081 51.264 30.4228 50.688 30.4228 50.048C30.4228 49.376 30.5134 48.784 30.6948 48.272C30.8761 47.7493 31.1268 47.3173 31.4468 46.976C31.7668 46.624 32.1454 46.3573 32.5828 46.176C33.0308 45.9947 33.5214 45.904 34.0548 45.904C34.5881 45.904 35.0788 45.9893 35.5268 46.16C35.9748 46.3307 36.3588 46.5867 36.6788 46.928C36.9988 47.2587 37.2494 47.68 37.4308 48.192C37.6121 48.6933 37.7028 49.28 37.7028 49.952C37.7028 50.0373 37.6974 50.1227 37.6868 50.208C37.6868 50.2933 37.6814 50.3627 37.6708 50.416H31.7028C31.7028 50.7893 31.7668 51.1413 31.8948 51.472C32.0334 51.792 32.2148 52.0747 32.4388 52.32C32.6734 52.5547 32.9401 52.7413 33.2388 52.88C33.5481 53.0187 33.8788 53.088 34.2308 53.088C34.8068 53.088 35.2761 52.976 35.6388 52.752C36.0121 52.528 36.3214 52.256 36.5668 51.936L37.3348 52.72C36.9934 53.168 36.5668 53.5253 36.0548 53.792C35.5534 54.0587 34.9241 54.192 34.1668 54.192ZM34.0548 46.96C33.6814 46.96 33.3508 47.0293 33.0628 47.168C32.7748 47.3067 32.5348 47.488 32.3428 47.712C32.1508 47.936 32.0014 48.192 31.8948 48.48C31.7988 48.768 31.7454 49.056 31.7348 49.344H36.3588C36.3481 49.056 36.2894 48.768 36.1828 48.48C36.0868 48.192 35.9428 47.936 35.7508 47.712C35.5588 47.488 35.3188 47.3067 35.0308 47.168C34.7534 47.0293 34.4281 46.96 34.0548 46.96ZM39.7663 42.4H41.0463V54H39.7663V42.4ZM46.8543 54.192C46.2889 54.192 45.7716 54.096 45.3023 53.904C44.8436 53.712 44.4489 53.44 44.1183 53.088C43.7983 52.7253 43.5476 52.288 43.3663 51.776C43.1956 51.264 43.1103 50.688 43.1103 50.048C43.1103 49.376 43.2009 48.784 43.3823 48.272C43.5636 47.7493 43.8143 47.3173 44.1343 46.976C44.4543 46.624 44.8329 46.3573 45.2703 46.176C45.7183 45.9947 46.2089 45.904 46.7423 45.904C47.2756 45.904 47.7663 45.9893 48.2143 46.16C48.6623 46.3307 49.0463 46.5867 49.3663 46.928C49.6863 47.2587 49.9369 47.68 50.1183 48.192C50.2996 48.6933 50.3903 49.28 50.3903 49.952C50.3903 50.0373 50.3849 50.1227 50.3743 50.208C50.3743 50.2933 50.3689 50.3627 50.3583 50.416H44.3903C44.3903 50.7893 44.4543 51.1413 44.5823 51.472C44.7209 51.792 44.9023 52.0747 45.1263 52.32C45.3609 52.5547 45.6276 52.7413 45.9263 52.88C46.2356 53.0187 46.5663 53.088 46.9183 53.088C47.4943 53.088 47.9636 52.976 48.3263 52.752C48.6996 52.528 49.0089 52.256 49.2543 51.936L50.0223 52.72C49.6809 53.168 49.2543 53.5253 48.7423 53.792C48.2409 54.0587 47.6116 54.192 46.8543 54.192ZM46.7423 46.96C46.3689 46.96 46.0383 47.0293 45.7503 47.168C45.4623 47.3067 45.2223 47.488 45.0303 47.712C44.8383 47.936 44.6889 48.192 44.5823 48.48C44.4863 48.768 44.4329 49.056 44.4223 49.344H49.0463C49.0356 49.056 48.9769 48.768 48.8703 48.48C48.7743 48.192 48.6303 47.936 48.4383 47.712C48.2463 47.488 48.0063 47.3067 47.7183 47.168C47.4409 47.0293 47.1156 46.96 46.7423 46.96ZM55.4618 54.192C54.8218 54.192 54.2671 54.0747 53.7978 53.84C53.3391 53.6053 52.9604 53.296 52.6618 52.912C52.3631 52.528 52.1444 52.0907 52.0058 51.6C51.8671 51.0987 51.7978 50.5813 51.7978 50.048C51.7978 49.5147 51.8671 49.0027 52.0058 48.512C52.1444 48.0107 52.3578 47.568 52.6458 47.184C52.9444 46.8 53.3231 46.4907 53.7818 46.256C54.2404 46.0213 54.7898 45.904 55.4298 45.904C56.1018 45.904 56.6511 46.016 57.0778 46.24C57.5044 46.464 57.8671 46.7627 58.1658 47.136L57.3658 47.888C57.1098 47.6107 56.8378 47.3973 56.5498 47.248C56.2724 47.088 55.9098 47.008 55.4618 47.008C54.7578 47.008 54.1871 47.28 53.7498 47.824C53.3231 48.3573 53.1098 49.0987 53.1098 50.048C53.1098 50.5173 53.1684 50.9387 53.2858 51.312C53.4031 51.6853 53.5684 52.0053 53.7818 52.272C53.9951 52.5387 54.2458 52.7413 54.5338 52.88C54.8218 53.0187 55.1418 53.088 55.4938 53.088C55.9204 53.088 56.2884 53.0133 56.5978 52.864C56.9071 52.704 57.1951 52.4747 57.4618 52.176L58.2298 52.944C57.9204 53.3173 57.5418 53.6213 57.0938 53.856C56.6458 54.08 56.1018 54.192 55.4618 54.192ZM62.5264 54.192C61.8117 54.192 61.289 53.9787 60.9584 53.552C60.6277 53.1253 60.4624 52.5387 60.4624 51.792V47.136H59.0544V46.096H60.4624V43.952H61.7264V46.096H64.0144V47.136H61.7264V51.68C61.7264 52.192 61.8224 52.5493 62.0144 52.752C62.217 52.9547 62.473 53.056 62.7824 53.056C62.9957 53.056 63.1877 53.0187 63.3584 52.944C63.529 52.8587 63.689 52.7467 63.8384 52.608L64.4144 53.504C63.9237 53.9627 63.2944 54.192 62.5264 54.192ZM66.7969 54.192C66.4982 54.192 66.2635 54.096 66.0929 53.904C65.9222 53.712 65.8369 53.4933 65.8369 53.248C65.8369 52.992 65.9222 52.7733 66.0929 52.592C66.2635 52.4 66.4982 52.304 66.7969 52.304C67.1062 52.304 67.3409 52.4 67.5009 52.592C67.6715 52.7733 67.7569 52.992 67.7569 53.248C67.7569 53.4933 67.6715 53.712 67.5009 53.904C67.3409 54.096 67.1062 54.192 66.7969 54.192ZM70.7969 54.192C70.4982 54.192 70.2635 54.096 70.0929 53.904C69.9222 53.712 69.8369 53.4933 69.8369 53.248C69.8369 52.992 69.9222 52.7733 70.0929 52.592C70.2635 52.4 70.4982 52.304 70.7969 52.304C71.1062 52.304 71.3409 52.4 71.5009 52.592C71.6715 52.7733 71.7569 52.992 71.7569 53.248C71.7569 53.4933 71.6715 53.712 71.5009 53.904C71.3409 54.096 71.1062 54.192 70.7969 54.192ZM74.7969 54.192C74.4982 54.192 74.2635 54.096 74.0929 53.904C73.9222 53.712 73.8369 53.4933 73.8369 53.248C73.8369 52.992 73.9222 52.7733 74.0929 52.592C74.2635 52.4 74.4982 52.304 74.7969 52.304C75.1062 52.304 75.3409 52.4 75.5009 52.592C75.6715 52.7733 75.7569 52.992 75.7569 53.248C75.7569 53.4933 75.6715 53.712 75.5009 53.904C75.3409 54.096 75.1062 54.192 74.7969 54.192Z" fill="#242E30"/>
<path d="M228.525 44.3047L235 50.9984L241.497 44.25L242.7 45.3437L235.995 52.3C235.723 52.5692 235.356 52.7201 234.973 52.7201C234.59 52.7201 234.222 52.5692 233.95 52.3L227.344 45.4312L228.525 44.3047Z" fill="#242E30"/>
</g>
</g>
<path d="M5.5 36C5.5 29.6487 10.6487 24.5 17 24.5H249C255.351 24.5 260.5 29.6487 260.5 36V60C260.5 66.3513 255.351 71.5 249 71.5H17C10.6487 71.5 5.5 66.3513 5.5 60V36Z" stroke="#82817F"/>
<g clip-path="url(#clip3_11616_13523)">
<path d="M5 140C5 133.373 10.3726 128 17 128H249C255.627 128 261 133.373 261 140V164C261 170.627 255.627 176 249 176H17C10.3726 176 5 170.627 5 164V140Z" fill="white"/>
<g clip-path="url(#clip4_11616_13523)">
<rect width="256" height="48" transform="translate(5 128)" fill="black" fill-opacity="0.04"/>
<g opacity="0.08">
<rect width="4" height="48" transform="translate(5 128)" fill="white" fill-opacity="0.01"/>
</g>
<path d="M25.192 158.192C24.2853 158.192 23.5493 158.053 22.984 157.776C22.4187 157.499 21.9707 157.141 21.64 156.704L22.504 155.888C22.792 156.24 23.1707 156.517 23.64 156.72C24.12 156.923 24.68 157.024 25.32 157.024C25.608 157.024 25.8853 156.992 26.152 156.928C26.4187 156.864 26.6533 156.768 26.856 156.64C27.0693 156.501 27.2347 156.32 27.352 156.096C27.48 155.872 27.544 155.6 27.544 155.28C27.544 155.003 27.48 154.768 27.352 154.576C27.224 154.373 27.048 154.203 26.824 154.064C26.6107 153.915 26.3547 153.787 26.056 153.68C25.7573 153.563 25.432 153.445 25.08 153.328C24.7067 153.2 24.3387 153.067 23.976 152.928C23.6133 152.779 23.288 152.592 23 152.368C22.712 152.144 22.4773 151.872 22.296 151.552C22.1147 151.221 22.024 150.816 22.024 150.336C22.024 149.856 22.1093 149.435 22.28 149.072C22.4613 148.709 22.7067 148.405 23.016 148.16C23.3253 147.915 23.6933 147.728 24.12 147.6C24.5467 147.472 25.0107 147.408 25.512 147.408C26.248 147.408 26.904 147.536 27.48 147.792C28.0667 148.048 28.5413 148.437 28.904 148.96L28.04 149.808C27.752 149.456 27.384 149.163 26.936 148.928C26.488 148.693 25.976 148.576 25.4 148.576C25.1547 148.576 24.9147 148.608 24.68 148.672C24.4453 148.725 24.232 148.821 24.04 148.96C23.848 149.099 23.6933 149.275 23.576 149.488C23.4587 149.701 23.4 149.957 23.4 150.256C23.4 150.533 23.464 150.773 23.592 150.976C23.72 151.168 23.8907 151.339 24.104 151.488C24.328 151.627 24.5893 151.755 24.888 151.872C25.1867 151.979 25.512 152.091 25.864 152.208C26.2373 152.336 26.6053 152.475 26.968 152.624C27.3307 152.773 27.656 152.96 27.944 153.184C28.232 153.408 28.4667 153.68 28.648 154C28.8293 154.32 28.92 154.72 28.92 155.2C28.92 155.712 28.8187 156.16 28.616 156.544C28.424 156.917 28.1573 157.227 27.816 157.472C27.4853 157.717 27.0907 157.899 26.632 158.016C26.184 158.133 25.704 158.192 25.192 158.192ZM34.1668 158.192C33.6014 158.192 33.0841 158.096 32.6148 157.904C32.1561 157.712 31.7614 157.44 31.4308 157.088C31.1108 156.725 30.8601 156.288 30.6788 155.776C30.5081 155.264 30.4228 154.688 30.4228 154.048C30.4228 153.376 30.5134 152.784 30.6948 152.272C30.8761 151.749 31.1268 151.317 31.4468 150.976C31.7668 150.624 32.1454 150.357 32.5828 150.176C33.0308 149.995 33.5214 149.904 34.0548 149.904C34.5881 149.904 35.0788 149.989 35.5268 150.16C35.9748 150.331 36.3588 150.587 36.6788 150.928C36.9988 151.259 37.2494 151.68 37.4308 152.192C37.6121 152.693 37.7028 153.28 37.7028 153.952C37.7028 154.037 37.6974 154.123 37.6868 154.208C37.6868 154.293 37.6814 154.363 37.6708 154.416H31.7028C31.7028 154.789 31.7668 155.141 31.8948 155.472C32.0334 155.792 32.2148 156.075 32.4388 156.32C32.6734 156.555 32.9401 156.741 33.2388 156.88C33.5481 157.019 33.8788 157.088 34.2308 157.088C34.8068 157.088 35.2761 156.976 35.6388 156.752C36.0121 156.528 36.3214 156.256 36.5668 155.936L37.3348 156.72C36.9934 157.168 36.5668 157.525 36.0548 157.792C35.5534 158.059 34.9241 158.192 34.1668 158.192ZM34.0548 150.96C33.6814 150.96 33.3508 151.029 33.0628 151.168C32.7748 151.307 32.5348 151.488 32.3428 151.712C32.1508 151.936 32.0014 152.192 31.8948 152.48C31.7988 152.768 31.7454 153.056 31.7348 153.344H36.3588C36.3481 153.056 36.2894 152.768 36.1828 152.48C36.0868 152.192 35.9428 151.936 35.7508 151.712C35.5588 151.488 35.3188 151.307 35.0308 151.168C34.7534 151.029 34.4281 150.96 34.0548 150.96ZM39.7663 146.4H41.0463V158H39.7663V146.4ZM46.8543 158.192C46.2889 158.192 45.7716 158.096 45.3023 157.904C44.8436 157.712 44.4489 157.44 44.1183 157.088C43.7983 156.725 43.5476 156.288 43.3663 155.776C43.1956 155.264 43.1103 154.688 43.1103 154.048C43.1103 153.376 43.2009 152.784 43.3823 152.272C43.5636 151.749 43.8143 151.317 44.1343 150.976C44.4543 150.624 44.8329 150.357 45.2703 150.176C45.7183 149.995 46.2089 149.904 46.7423 149.904C47.2756 149.904 47.7663 149.989 48.2143 150.16C48.6623 150.331 49.0463 150.587 49.3663 150.928C49.6863 151.259 49.9369 151.68 50.1183 152.192C50.2996 152.693 50.3903 153.28 50.3903 153.952C50.3903 154.037 50.3849 154.123 50.3743 154.208C50.3743 154.293 50.3689 154.363 50.3583 154.416H44.3903C44.3903 154.789 44.4543 155.141 44.5823 155.472C44.7209 155.792 44.9023 156.075 45.1263 156.32C45.3609 156.555 45.6276 156.741 45.9263 156.88C46.2356 157.019 46.5663 157.088 46.9183 157.088C47.4943 157.088 47.9636 156.976 48.3263 156.752C48.6996 156.528 49.0089 156.256 49.2543 155.936L50.0223 156.72C49.6809 157.168 49.2543 157.525 48.7423 157.792C48.2409 158.059 47.6116 158.192 46.8543 158.192ZM46.7423 150.96C46.3689 150.96 46.0383 151.029 45.7503 151.168C45.4623 151.307 45.2223 151.488 45.0303 151.712C44.8383 151.936 44.6889 152.192 44.5823 152.48C44.4863 152.768 44.4329 153.056 44.4223 153.344H49.0463C49.0356 153.056 48.9769 152.768 48.8703 152.48C48.7743 152.192 48.6303 151.936 48.4383 151.712C48.2463 151.488 48.0063 151.307 47.7183 151.168C47.4409 151.029 47.1156 150.96 46.7423 150.96ZM55.4618 158.192C54.8218 158.192 54.2671 158.075 53.7978 157.84C53.3391 157.605 52.9604 157.296 52.6618 156.912C52.3631 156.528 52.1444 156.091 52.0058 155.6C51.8671 155.099 51.7978 154.581 51.7978 154.048C51.7978 153.515 51.8671 153.003 52.0058 152.512C52.1444 152.011 52.3578 151.568 52.6458 151.184C52.9444 150.8 53.3231 150.491 53.7818 150.256C54.2404 150.021 54.7898 149.904 55.4298 149.904C56.1018 149.904 56.6511 150.016 57.0778 150.24C57.5044 150.464 57.8671 150.763 58.1658 151.136L57.3658 151.888C57.1098 151.611 56.8378 151.397 56.5498 151.248C56.2724 151.088 55.9098 151.008 55.4618 151.008C54.7578 151.008 54.1871 151.28 53.7498 151.824C53.3231 152.357 53.1098 153.099 53.1098 154.048C53.1098 154.517 53.1684 154.939 53.2858 155.312C53.4031 155.685 53.5684 156.005 53.7818 156.272C53.9951 156.539 54.2458 156.741 54.5338 156.88C54.8218 157.019 55.1418 157.088 55.4938 157.088C55.9204 157.088 56.2884 157.013 56.5978 156.864C56.9071 156.704 57.1951 156.475 57.4618 156.176L58.2298 156.944C57.9204 157.317 57.5418 157.621 57.0938 157.856C56.6458 158.08 56.1018 158.192 55.4618 158.192ZM62.5264 158.192C61.8117 158.192 61.289 157.979 60.9584 157.552C60.6277 157.125 60.4624 156.539 60.4624 155.792V151.136H59.0544V150.096H60.4624V147.952H61.7264V150.096H64.0144V151.136H61.7264V155.68C61.7264 156.192 61.8224 156.549 62.0144 156.752C62.217 156.955 62.473 157.056 62.7824 157.056C62.9957 157.056 63.1877 157.019 63.3584 156.944C63.529 156.859 63.689 156.747 63.8384 156.608L64.4144 157.504C63.9237 157.963 63.2944 158.192 62.5264 158.192ZM66.7969 158.192C66.4982 158.192 66.2635 158.096 66.0929 157.904C65.9222 157.712 65.8369 157.493 65.8369 157.248C65.8369 156.992 65.9222 156.773 66.0929 156.592C66.2635 156.4 66.4982 156.304 66.7969 156.304C67.1062 156.304 67.3409 156.4 67.5009 156.592C67.6715 156.773 67.7569 156.992 67.7569 157.248C67.7569 157.493 67.6715 157.712 67.5009 157.904C67.3409 158.096 67.1062 158.192 66.7969 158.192ZM70.7969 158.192C70.4982 158.192 70.2635 158.096 70.0929 157.904C69.9222 157.712 69.8369 157.493 69.8369 157.248C69.8369 156.992 69.9222 156.773 70.0929 156.592C70.2635 156.4 70.4982 156.304 70.7969 156.304C71.1062 156.304 71.3409 156.4 71.5009 156.592C71.6715 156.773 71.7569 156.992 71.7569 157.248C71.7569 157.493 71.6715 157.712 71.5009 157.904C71.3409 158.096 71.1062 158.192 70.7969 158.192ZM74.7969 158.192C74.4982 158.192 74.2635 158.096 74.0929 157.904C73.9222 157.712 73.8369 157.493 73.8369 157.248C73.8369 156.992 73.9222 156.773 74.0929 156.592C74.2635 156.4 74.4982 156.304 74.7969 156.304C75.1062 156.304 75.3409 156.4 75.5009 156.592C75.6715 156.773 75.7569 156.992 75.7569 157.248C75.7569 157.493 75.6715 157.712 75.5009 157.904C75.3409 158.096 75.1062 158.192 74.7969 158.192Z" fill="#242E30"/>
<path d="M228.525 148.305L235 154.998L241.497 148.25L242.7 149.344L235.995 156.3C235.723 156.569 235.356 156.72 234.973 156.72C234.59 156.72 234.222 156.569 233.95 156.3L227.344 149.431L228.525 148.305Z" fill="#242E30"/>
</g>
</g>
<path d="M5.5 140C5.5 133.649 10.6487 128.5 17 128.5H249C255.351 128.5 260.5 133.649 260.5 140V164C260.5 170.351 255.351 175.5 249 175.5H17C10.6487 175.5 5.5 170.351 5.5 164V140Z" stroke="#82817F"/>
<g filter="url(#filter0_ddd_11616_13523)">
<rect x="5" y="132" width="256" height="124" rx="6" fill="#E9E9E9"/>
<rect x="5.5" y="132.5" width="255" height="123" rx="5.5" stroke="#B7B7B7"/>
<path d="M22.865 156.489C22.7007 156.487 22.5385 156.452 22.3881 156.386C22.2377 156.32 22.1023 156.224 21.99 156.104L18.875 152.656L19.855 151.781L22.8825 155.15L30.1362 147.328L31.0988 148.203L23.7488 156.078C23.6365 156.198 23.501 156.294 23.3507 156.36C23.2003 156.426 23.038 156.461 22.8738 156.463L22.865 156.489Z" fill="#242E30"/>
<path d="M35.7188 154.32L37.1484 154.195C37.2161 154.768 37.3724 155.24 37.6172 155.609C37.8672 155.974 38.2526 156.271 38.7734 156.5C39.2943 156.724 39.8802 156.836 40.5312 156.836C41.1094 156.836 41.6198 156.75 42.0625 156.578C42.5052 156.406 42.8333 156.172 43.0469 155.875C43.2656 155.573 43.375 155.245 43.375 154.891C43.375 154.531 43.2708 154.219 43.0625 153.953C42.8542 153.682 42.5104 153.456 42.0312 153.273C41.724 153.154 41.0443 152.969 39.9922 152.719C38.9401 152.464 38.2031 152.224 37.7812 152C37.2344 151.714 36.8255 151.359 36.5547 150.938C36.2891 150.51 36.1562 150.034 36.1562 149.508C36.1562 148.93 36.3203 148.391 36.6484 147.891C36.9766 147.385 37.4557 147.003 38.0859 146.742C38.7161 146.482 39.4167 146.352 40.1875 146.352C41.0365 146.352 41.7839 146.49 42.4297 146.766C43.0807 147.036 43.5807 147.438 43.9297 147.969C44.2786 148.5 44.4661 149.102 44.4922 149.773L43.0391 149.883C42.9609 149.159 42.6953 148.612 42.2422 148.242C41.7943 147.872 41.1302 147.688 40.25 147.688C39.3333 147.688 38.6641 147.857 38.2422 148.195C37.8255 148.529 37.6172 148.932 37.6172 149.406C37.6172 149.818 37.7656 150.156 38.0625 150.422C38.3542 150.688 39.1146 150.961 40.3438 151.242C41.5781 151.518 42.4245 151.76 42.8828 151.969C43.5495 152.276 44.0417 152.667 44.3594 153.141C44.6771 153.609 44.8359 154.151 44.8359 154.766C44.8359 155.375 44.6615 155.951 44.3125 156.492C43.9635 157.029 43.4609 157.448 42.8047 157.75C42.1536 158.047 41.4193 158.195 40.6016 158.195C39.5651 158.195 38.6953 158.044 37.9922 157.742C37.2943 157.44 36.7448 156.987 36.3438 156.383C35.9479 155.773 35.7396 155.086 35.7188 154.32ZM52.4062 155.328L53.8594 155.508C53.6302 156.357 53.2057 157.016 52.5859 157.484C51.9661 157.953 51.1745 158.188 50.2109 158.188C48.9974 158.188 48.0339 157.815 47.3203 157.07C46.612 156.32 46.2578 155.271 46.2578 153.922C46.2578 152.526 46.6172 151.443 47.3359 150.672C48.0547 149.901 48.987 149.516 50.1328 149.516C51.2422 149.516 52.1484 149.893 52.8516 150.648C53.5547 151.404 53.9062 152.466 53.9062 153.836C53.9062 153.919 53.9036 154.044 53.8984 154.211H47.7109C47.763 155.122 48.0208 155.82 48.4844 156.305C48.9479 156.789 49.526 157.031 50.2188 157.031C50.7344 157.031 51.1745 156.896 51.5391 156.625C51.9036 156.354 52.1927 155.922 52.4062 155.328ZM47.7891 153.055H52.4219C52.3594 152.357 52.1823 151.833 51.8906 151.484C51.4427 150.943 50.862 150.672 50.1484 150.672C49.5026 150.672 48.9583 150.888 48.5156 151.32C48.0781 151.753 47.8359 152.331 47.7891 153.055ZM55.6016 158V146.547H57.0078V158H55.6016ZM64.875 155.328L66.3281 155.508C66.099 156.357 65.6745 157.016 65.0547 157.484C64.4349 157.953 63.6432 158.188 62.6797 158.188C61.4661 158.188 60.5026 157.815 59.7891 157.07C59.0807 156.32 58.7266 155.271 58.7266 153.922C58.7266 152.526 59.0859 151.443 59.8047 150.672C60.5234 149.901 61.4557 149.516 62.6016 149.516C63.7109 149.516 64.6172 149.893 65.3203 150.648C66.0234 151.404 66.375 152.466 66.375 153.836C66.375 153.919 66.3724 154.044 66.3672 154.211H60.1797C60.2318 155.122 60.4896 155.82 60.9531 156.305C61.4167 156.789 61.9948 157.031 62.6875 157.031C63.2031 157.031 63.6432 156.896 64.0078 156.625C64.3724 156.354 64.6615 155.922 64.875 155.328ZM60.2578 153.055H64.8906C64.8281 152.357 64.651 151.833 64.3594 151.484C63.9115 150.943 63.3307 150.672 62.6172 150.672C61.9714 150.672 61.4271 150.888 60.9844 151.32C60.5469 151.753 60.3047 152.331 60.2578 153.055ZM73.5156 154.961L74.8984 155.141C74.7474 156.094 74.3594 156.841 73.7344 157.383C73.1146 157.919 72.3516 158.188 71.4453 158.188C70.3099 158.188 69.3958 157.818 68.7031 157.078C68.0156 156.333 67.6719 155.268 67.6719 153.883C67.6719 152.987 67.8203 152.203 68.1172 151.531C68.4141 150.859 68.8646 150.357 69.4688 150.023C70.0781 149.685 70.7396 149.516 71.4531 149.516C72.3542 149.516 73.0911 149.745 73.6641 150.203C74.237 150.656 74.6042 151.302 74.7656 152.141L73.3984 152.352C73.2682 151.794 73.0365 151.375 72.7031 151.094C72.375 150.812 71.9766 150.672 71.5078 150.672C70.7995 150.672 70.224 150.927 69.7812 151.438C69.3385 151.943 69.1172 152.745 69.1172 153.844C69.1172 154.958 69.3307 155.768 69.7578 156.273C70.1849 156.779 70.7422 157.031 71.4297 157.031C71.9818 157.031 72.4427 156.862 72.8125 156.523C73.1823 156.185 73.4167 155.664 73.5156 154.961ZM79.1719 156.742L79.375 157.984C78.9792 158.068 78.625 158.109 78.3125 158.109C77.8021 158.109 77.4062 158.029 77.125 157.867C76.8438 157.706 76.6458 157.495 76.5312 157.234C76.4167 156.969 76.3594 156.414 76.3594 155.57V150.797H75.3281V149.703H76.3594V147.648L77.7578 146.805V149.703H79.1719V150.797H77.7578V155.648C77.7578 156.049 77.7812 156.307 77.8281 156.422C77.8802 156.536 77.9609 156.628 78.0703 156.695C78.1849 156.763 78.3464 156.797 78.5547 156.797C78.7109 156.797 78.9167 156.779 79.1719 156.742ZM80.9531 158V156.398H82.5547V158H80.9531ZM85.4062 158V156.398H87.0078V158H85.4062ZM89.8594 158V156.398H91.4609V158H89.8594Z" fill="black"/>
<path d="M35.7734 180.422C35.7734 178.521 36.2839 177.034 37.3047 175.961C38.3255 174.883 39.6432 174.344 41.2578 174.344C42.3151 174.344 43.2682 174.596 44.1172 175.102C44.9661 175.607 45.612 176.312 46.0547 177.219C46.5026 178.12 46.7266 179.143 46.7266 180.289C46.7266 181.451 46.4922 182.49 46.0234 183.406C45.5547 184.323 44.8906 185.018 44.0312 185.492C43.1719 185.961 42.2448 186.195 41.25 186.195C40.1719 186.195 39.2083 185.935 38.3594 185.414C37.5104 184.893 36.8672 184.182 36.4297 183.281C35.9922 182.38 35.7734 181.427 35.7734 180.422ZM37.3359 180.445C37.3359 181.826 37.7057 182.914 38.4453 183.711C39.1901 184.503 40.1224 184.898 41.2422 184.898C42.3828 184.898 43.3203 184.497 44.0547 183.695C44.7943 182.893 45.1641 181.755 45.1641 180.281C45.1641 179.349 45.0052 178.536 44.6875 177.844C44.375 177.146 43.9141 176.607 43.3047 176.227C42.7005 175.841 42.0208 175.648 41.2656 175.648C40.1927 175.648 39.2682 176.018 38.4922 176.758C37.7214 177.492 37.3359 178.721 37.3359 180.445ZM48.5078 189.18V177.703H49.7891V178.781C50.0911 178.359 50.4323 178.044 50.8125 177.836C51.1927 177.622 51.6536 177.516 52.1953 177.516C52.9036 177.516 53.5286 177.698 54.0703 178.062C54.612 178.427 55.0208 178.943 55.2969 179.609C55.5729 180.271 55.7109 180.997 55.7109 181.789C55.7109 182.638 55.5573 183.404 55.25 184.086C54.9479 184.763 54.5052 185.284 53.9219 185.648C53.3438 186.008 52.7344 186.188 52.0938 186.188C51.625 186.188 51.2031 186.089 50.8281 185.891C50.4583 185.693 50.1536 185.443 49.9141 185.141V189.18H48.5078ZM49.7812 181.898C49.7812 182.966 49.9974 183.755 50.4297 184.266C50.862 184.776 51.3854 185.031 52 185.031C52.625 185.031 53.1589 184.768 53.6016 184.242C54.0495 183.711 54.2734 182.891 54.2734 181.781C54.2734 180.724 54.0547 179.932 53.6172 179.406C53.1849 178.88 52.6667 178.617 52.0625 178.617C51.4635 178.617 50.9323 178.898 50.4688 179.461C50.0104 180.018 49.7812 180.831 49.7812 181.898ZM60.4844 184.742L60.6875 185.984C60.2917 186.068 59.9375 186.109 59.625 186.109C59.1146 186.109 58.7188 186.029 58.4375 185.867C58.1562 185.706 57.9583 185.495 57.8438 185.234C57.7292 184.969 57.6719 184.414 57.6719 183.57V178.797H56.6406V177.703H57.6719V175.648L59.0703 174.805V177.703H60.4844V178.797H59.0703V183.648C59.0703 184.049 59.0938 184.307 59.1406 184.422C59.1927 184.536 59.2734 184.628 59.3828 184.695C59.4974 184.763 59.6589 184.797 59.8672 184.797C60.0234 184.797 60.2292 184.779 60.4844 184.742ZM61.875 176.164V174.547H63.2812V176.164H61.875ZM61.875 186V177.703H63.2812V186H61.875ZM64.9062 181.852C64.9062 180.315 65.3333 179.177 66.1875 178.438C66.901 177.823 67.7708 177.516 68.7969 177.516C69.9375 177.516 70.8698 177.891 71.5938 178.641C72.3177 179.385 72.6797 180.417 72.6797 181.734C72.6797 182.802 72.5182 183.643 72.1953 184.258C71.8776 184.867 71.4115 185.341 70.7969 185.68C70.1875 186.018 69.5208 186.188 68.7969 186.188C67.6354 186.188 66.6953 185.815 65.9766 185.07C65.263 184.326 64.9062 183.253 64.9062 181.852ZM66.3516 181.852C66.3516 182.914 66.5833 183.711 67.0469 184.242C67.5104 184.768 68.0938 185.031 68.7969 185.031C69.4948 185.031 70.0755 184.766 70.5391 184.234C71.0026 183.703 71.2344 182.893 71.2344 181.805C71.2344 180.779 71 180.003 70.5312 179.477C70.0677 178.945 69.4896 178.68 68.7969 178.68C68.0938 178.68 67.5104 178.943 67.0469 179.469C66.5833 179.995 66.3516 180.789 66.3516 181.852ZM74.3359 186V177.703H75.6016V178.883C76.2109 177.971 77.0911 177.516 78.2422 177.516C78.7422 177.516 79.2005 177.607 79.6172 177.789C80.0391 177.966 80.3542 178.201 80.5625 178.492C80.7708 178.784 80.9167 179.13 81 179.531C81.0521 179.792 81.0781 180.247 81.0781 180.898V186H79.6719V180.953C79.6719 180.38 79.6172 179.953 79.5078 179.672C79.3984 179.385 79.2031 179.159 78.9219 178.992C78.6458 178.82 78.3203 178.734 77.9453 178.734C77.3464 178.734 76.8281 178.924 76.3906 179.305C75.9583 179.685 75.7422 180.406 75.7422 181.469V186H74.3359Z" fill="black"/>
<path d="M35.7734 208.422C35.7734 206.521 36.2839 205.034 37.3047 203.961C38.3255 202.883 39.6432 202.344 41.2578 202.344C42.3151 202.344 43.2682 202.596 44.1172 203.102C44.9661 203.607 45.612 204.312 46.0547 205.219C46.5026 206.12 46.7266 207.143 46.7266 208.289C46.7266 209.451 46.4922 210.49 46.0234 211.406C45.5547 212.323 44.8906 213.018 44.0312 213.492C43.1719 213.961 42.2448 214.195 41.25 214.195C40.1719 214.195 39.2083 213.935 38.3594 213.414C37.5104 212.893 36.8672 212.182 36.4297 211.281C35.9922 210.38 35.7734 209.427 35.7734 208.422ZM37.3359 208.445C37.3359 209.826 37.7057 210.914 38.4453 211.711C39.1901 212.503 40.1224 212.898 41.2422 212.898C42.3828 212.898 43.3203 212.497 44.0547 211.695C44.7943 210.893 45.1641 209.755 45.1641 208.281C45.1641 207.349 45.0052 206.536 44.6875 205.844C44.375 205.146 43.9141 204.607 43.3047 204.227C42.7005 203.841 42.0208 203.648 41.2656 203.648C40.1927 203.648 39.2682 204.018 38.4922 204.758C37.7214 205.492 37.3359 206.721 37.3359 208.445ZM48.5078 217.18V205.703H49.7891V206.781C50.0911 206.359 50.4323 206.044 50.8125 205.836C51.1927 205.622 51.6536 205.516 52.1953 205.516C52.9036 205.516 53.5286 205.698 54.0703 206.062C54.612 206.427 55.0208 206.943 55.2969 207.609C55.5729 208.271 55.7109 208.997 55.7109 209.789C55.7109 210.638 55.5573 211.404 55.25 212.086C54.9479 212.763 54.5052 213.284 53.9219 213.648C53.3438 214.008 52.7344 214.188 52.0938 214.188C51.625 214.188 51.2031 214.089 50.8281 213.891C50.4583 213.693 50.1536 213.443 49.9141 213.141V217.18H48.5078ZM49.7812 209.898C49.7812 210.966 49.9974 211.755 50.4297 212.266C50.862 212.776 51.3854 213.031 52 213.031C52.625 213.031 53.1589 212.768 53.6016 212.242C54.0495 211.711 54.2734 210.891 54.2734 209.781C54.2734 208.724 54.0547 207.932 53.6172 207.406C53.1849 206.88 52.6667 206.617 52.0625 206.617C51.4635 206.617 50.9323 206.898 50.4688 207.461C50.0104 208.018 49.7812 208.831 49.7812 209.898ZM60.4844 212.742L60.6875 213.984C60.2917 214.068 59.9375 214.109 59.625 214.109C59.1146 214.109 58.7188 214.029 58.4375 213.867C58.1562 213.706 57.9583 213.495 57.8438 213.234C57.7292 212.969 57.6719 212.414 57.6719 211.57V206.797H56.6406V205.703H57.6719V203.648L59.0703 202.805V205.703H60.4844V206.797H59.0703V211.648C59.0703 212.049 59.0938 212.307 59.1406 212.422C59.1927 212.536 59.2734 212.628 59.3828 212.695C59.4974 212.763 59.6589 212.797 59.8672 212.797C60.0234 212.797 60.2292 212.779 60.4844 212.742ZM61.875 204.164V202.547H63.2812V204.164H61.875ZM61.875 214V205.703H63.2812V214H61.875ZM64.9062 209.852C64.9062 208.315 65.3333 207.177 66.1875 206.438C66.901 205.823 67.7708 205.516 68.7969 205.516C69.9375 205.516 70.8698 205.891 71.5938 206.641C72.3177 207.385 72.6797 208.417 72.6797 209.734C72.6797 210.802 72.5182 211.643 72.1953 212.258C71.8776 212.867 71.4115 213.341 70.7969 213.68C70.1875 214.018 69.5208 214.188 68.7969 214.188C67.6354 214.188 66.6953 213.815 65.9766 213.07C65.263 212.326 64.9062 211.253 64.9062 209.852ZM66.3516 209.852C66.3516 210.914 66.5833 211.711 67.0469 212.242C67.5104 212.768 68.0938 213.031 68.7969 213.031C69.4948 213.031 70.0755 212.766 70.5391 212.234C71.0026 211.703 71.2344 210.893 71.2344 209.805C71.2344 208.779 71 208.003 70.5312 207.477C70.0677 206.945 69.4896 206.68 68.7969 206.68C68.0938 206.68 67.5104 206.943 67.0469 207.469C66.5833 207.995 66.3516 208.789 66.3516 209.852ZM74.3359 214V205.703H75.6016V206.883C76.2109 205.971 77.0911 205.516 78.2422 205.516C78.7422 205.516 79.2005 205.607 79.6172 205.789C80.0391 205.966 80.3542 206.201 80.5625 206.492C80.7708 206.784 80.9167 207.13 81 207.531C81.0521 207.792 81.0781 208.247 81.0781 208.898V214H79.6719V208.953C79.6719 208.38 79.6172 207.953 79.5078 207.672C79.3984 207.385 79.2031 207.159 78.9219 206.992C78.6458 206.82 78.3203 206.734 77.9453 206.734C77.3464 206.734 76.8281 206.924 76.3906 207.305C75.9583 207.685 75.7422 208.406 75.7422 209.469V214H74.3359Z" fill="black"/>
<path d="M35.7734 236.422C35.7734 234.521 36.2839 233.034 37.3047 231.961C38.3255 230.883 39.6432 230.344 41.2578 230.344C42.3151 230.344 43.2682 230.596 44.1172 231.102C44.9661 231.607 45.612 232.312 46.0547 233.219C46.5026 234.12 46.7266 235.143 46.7266 236.289C46.7266 237.451 46.4922 238.49 46.0234 239.406C45.5547 240.323 44.8906 241.018 44.0312 241.492C43.1719 241.961 42.2448 242.195 41.25 242.195C40.1719 242.195 39.2083 241.935 38.3594 241.414C37.5104 240.893 36.8672 240.182 36.4297 239.281C35.9922 238.38 35.7734 237.427 35.7734 236.422ZM37.3359 236.445C37.3359 237.826 37.7057 238.914 38.4453 239.711C39.1901 240.503 40.1224 240.898 41.2422 240.898C42.3828 240.898 43.3203 240.497 44.0547 239.695C44.7943 238.893 45.1641 237.755 45.1641 236.281C45.1641 235.349 45.0052 234.536 44.6875 233.844C44.375 233.146 43.9141 232.607 43.3047 232.227C42.7005 231.841 42.0208 231.648 41.2656 231.648C40.1927 231.648 39.2682 232.018 38.4922 232.758C37.7214 233.492 37.3359 234.721 37.3359 236.445ZM48.5078 245.18V233.703H49.7891V234.781C50.0911 234.359 50.4323 234.044 50.8125 233.836C51.1927 233.622 51.6536 233.516 52.1953 233.516C52.9036 233.516 53.5286 233.698 54.0703 234.062C54.612 234.427 55.0208 234.943 55.2969 235.609C55.5729 236.271 55.7109 236.997 55.7109 237.789C55.7109 238.638 55.5573 239.404 55.25 240.086C54.9479 240.763 54.5052 241.284 53.9219 241.648C53.3438 242.008 52.7344 242.188 52.0938 242.188C51.625 242.188 51.2031 242.089 50.8281 241.891C50.4583 241.693 50.1536 241.443 49.9141 241.141V245.18H48.5078ZM49.7812 237.898C49.7812 238.966 49.9974 239.755 50.4297 240.266C50.862 240.776 51.3854 241.031 52 241.031C52.625 241.031 53.1589 240.768 53.6016 240.242C54.0495 239.711 54.2734 238.891 54.2734 237.781C54.2734 236.724 54.0547 235.932 53.6172 235.406C53.1849 234.88 52.6667 234.617 52.0625 234.617C51.4635 234.617 50.9323 234.898 50.4688 235.461C50.0104 236.018 49.7812 236.831 49.7812 237.898ZM60.4844 240.742L60.6875 241.984C60.2917 242.068 59.9375 242.109 59.625 242.109C59.1146 242.109 58.7188 242.029 58.4375 241.867C58.1562 241.706 57.9583 241.495 57.8438 241.234C57.7292 240.969 57.6719 240.414 57.6719 239.57V234.797H56.6406V233.703H57.6719V231.648L59.0703 230.805V233.703H60.4844V234.797H59.0703V239.648C59.0703 240.049 59.0938 240.307 59.1406 240.422C59.1927 240.536 59.2734 240.628 59.3828 240.695C59.4974 240.763 59.6589 240.797 59.8672 240.797C60.0234 240.797 60.2292 240.779 60.4844 240.742ZM61.875 232.164V230.547H63.2812V232.164H61.875ZM61.875 242V233.703H63.2812V242H61.875ZM64.9062 237.852C64.9062 236.315 65.3333 235.177 66.1875 234.438C66.901 233.823 67.7708 233.516 68.7969 233.516C69.9375 233.516 70.8698 233.891 71.5938 234.641C72.3177 235.385 72.6797 236.417 72.6797 237.734C72.6797 238.802 72.5182 239.643 72.1953 240.258C71.8776 240.867 71.4115 241.341 70.7969 241.68C70.1875 242.018 69.5208 242.188 68.7969 242.188C67.6354 242.188 66.6953 241.815 65.9766 241.07C65.263 240.326 64.9062 239.253 64.9062 237.852ZM66.3516 237.852C66.3516 238.914 66.5833 239.711 67.0469 240.242C67.5104 240.768 68.0938 241.031 68.7969 241.031C69.4948 241.031 70.0755 240.766 70.5391 240.234C71.0026 239.703 71.2344 238.893 71.2344 237.805C71.2344 236.779 71 236.003 70.5312 235.477C70.0677 234.945 69.4896 234.68 68.7969 234.68C68.0938 234.68 67.5104 234.943 67.0469 235.469C66.5833 235.995 66.3516 236.789 66.3516 237.852ZM74.3359 242V233.703H75.6016V234.883C76.2109 233.971 77.0911 233.516 78.2422 233.516C78.7422 233.516 79.2005 233.607 79.6172 233.789C80.0391 233.966 80.3542 234.201 80.5625 234.492C80.7708 234.784 80.9167 235.13 81 235.531C81.0521 235.792 81.0781 236.247 81.0781 236.898V242H79.6719V236.953C79.6719 236.38 79.6172 235.953 79.5078 235.672C79.3984 235.385 79.2031 235.159 78.9219 234.992C78.6458 234.82 78.3203 234.734 77.9453 234.734C77.3464 234.734 76.8281 234.924 76.3906 235.305C75.9583 235.685 75.7422 236.406 75.7422 237.469V242H74.3359Z" fill="black"/>
</g>
<g clip-path="url(#clip5_11616_13523)">
<path d="M6.022 109.9H7.898V117.474H11.524V119H6.022V109.9ZM14.6733 119.168C14.3653 119.168 14.0713 119.117 13.7913 119.014C13.5207 118.921 13.2827 118.785 13.0773 118.608C12.872 118.421 12.7087 118.197 12.5873 117.936C12.4753 117.675 12.4193 117.381 12.4193 117.054C12.4193 116.438 12.6387 115.948 13.0773 115.584C13.516 115.22 14.1833 115.015 15.0793 114.968L16.7033 114.87V114.59C16.7033 114.142 16.568 113.834 16.2973 113.666C16.0267 113.498 15.6907 113.414 15.2893 113.414C14.972 113.414 14.6733 113.475 14.3933 113.596C14.1133 113.708 13.9033 113.848 13.7633 114.016L12.7693 113.008C13.012 112.691 13.362 112.429 13.8193 112.224C14.286 112.019 14.8553 111.916 15.5273 111.916C16.5167 111.916 17.254 112.145 17.7393 112.602C18.2247 113.059 18.4673 113.68 18.4673 114.464V119H16.8013V117.894H16.7173C16.54 118.286 16.2833 118.599 15.9473 118.832C15.6113 119.056 15.1867 119.168 14.6733 119.168ZM15.1913 117.894C15.6393 117.894 16.0033 117.768 16.2833 117.516C16.5633 117.255 16.7033 116.891 16.7033 116.424V115.962L15.2893 116.074C14.5613 116.121 14.1973 116.429 14.1973 116.998C14.1973 117.287 14.2907 117.511 14.4773 117.67C14.664 117.819 14.902 117.894 15.1913 117.894ZM24.2154 119.168C23.6741 119.168 23.2028 119.037 22.8014 118.776C22.4094 118.515 22.1294 118.155 21.9614 117.698H21.8774V119H20.1974V108.85H21.9614V113.274H22.0454C22.2041 112.873 22.4701 112.546 22.8434 112.294C23.2168 112.042 23.6741 111.916 24.2154 111.916C24.6448 111.916 25.0414 112.005 25.4054 112.182C25.7788 112.359 26.0961 112.611 26.3574 112.938C26.6281 113.255 26.8381 113.638 26.9874 114.086C27.1368 114.534 27.2114 115.029 27.2114 115.57C27.2114 116.102 27.1368 116.592 26.9874 117.04C26.8381 117.479 26.6281 117.857 26.3574 118.174C26.0961 118.482 25.7788 118.725 25.4054 118.902C25.0414 119.079 24.6448 119.168 24.2154 119.168ZM23.6694 117.628C24.1921 117.628 24.6121 117.441 24.9294 117.068C25.2468 116.695 25.4054 116.186 25.4054 115.542C25.4054 114.898 25.2468 114.389 24.9294 114.016C24.6121 113.643 24.1921 113.456 23.6694 113.456C23.1561 113.456 22.7408 113.643 22.4234 114.016C22.1154 114.389 21.9614 114.898 21.9614 115.542C21.9614 116.186 22.1154 116.695 22.4234 117.068C22.7408 117.441 23.1561 117.628 23.6694 117.628ZM31.588 119.168C31.0093 119.168 30.5053 119.075 30.076 118.888C29.6466 118.701 29.2826 118.445 28.984 118.118C28.6946 117.782 28.4753 117.395 28.326 116.956C28.186 116.517 28.116 116.046 28.116 115.542C28.116 115.029 28.186 114.553 28.326 114.114C28.466 113.666 28.676 113.283 28.956 112.966C29.236 112.639 29.586 112.383 30.006 112.196C30.426 112.009 30.916 111.916 31.476 111.916C32.036 111.916 32.526 112.005 32.946 112.182C33.366 112.359 33.7113 112.607 33.982 112.924C34.2526 113.241 34.4533 113.619 34.584 114.058C34.724 114.487 34.794 114.959 34.794 115.472C34.794 115.565 34.7846 115.673 34.766 115.794C34.7566 115.915 34.7426 116.013 34.724 116.088H29.908C29.936 116.34 30.0013 116.569 30.104 116.774C30.216 116.97 30.3513 117.138 30.51 117.278C30.678 117.418 30.86 117.525 31.056 117.6C31.2613 117.665 31.4713 117.698 31.686 117.698C32.0873 117.698 32.4233 117.628 32.694 117.488C32.9646 117.348 33.184 117.171 33.352 116.956L34.346 117.992C34.0846 118.347 33.7206 118.631 33.254 118.846C32.7873 119.061 32.232 119.168 31.588 119.168ZM31.476 113.26C31.028 113.26 30.664 113.405 30.384 113.694C30.104 113.983 29.9406 114.366 29.894 114.842H33.03C32.9833 114.366 32.82 113.983 32.54 113.694C32.2693 113.405 31.9146 113.26 31.476 113.26ZM36.1662 108.85H37.9302V119H36.1662V108.85Z" fill="#242E30"/>
</g>
<defs>
<filter id="filter0_ddd_11616_13523" x="0" y="128" width="266" height="134" filterUnits="userSpaceOnUse" color-interpolation-filters="sRGB">
<feFlood flood-opacity="0" result="BackgroundImageFix"/>
<feColorMatrix in="SourceAlpha" type="matrix" values="0 0 0 0 0 0 0 0 0 0 0 0 0 0 0 0 0 0 127 0" result="hardAlpha"/>
<feOffset/>
<feGaussianBlur stdDeviation="2"/>
<feColorMatrix type="matrix" values="0 0 0 0 0 0 0 0 0 0 0 0 0 0 0 0 0 0 0.1 0"/>
<feBlend mode="normal" in2="BackgroundImageFix" result="effect1_dropShadow_11616_13523"/>
<feColorMatrix in="SourceAlpha" type="matrix" values="0 0 0 0 0 0 0 0 0 0 0 0 0 0 0 0 0 0 127 0" result="hardAlpha"/>
<feOffset dy="1"/>
<feGaussianBlur stdDeviation="2.5"/>
<feColorMatrix type="matrix" values="0 0 0 0 0 0 0 0 0 0 0 0 0 0 0 0 0 0 0.04 0"/>
<feBlend mode="normal" in2="effect1_dropShadow_11616_13523" result="effect2_dropShadow_11616_13523"/>
<feColorMatrix in="SourceAlpha" type="matrix" values="0 0 0 0 0 0 0 0 0 0 0 0 0 0 0 0 0 0 127 0" result="hardAlpha"/>
<feOffset/>
<feGaussianBlur stdDeviation="0.5"/>
<feColorMatrix type="matrix" values="0 0 0 0 0 0 0 0 0 0 0 0 0 0 0 0 0 0 0.12 0"/>
<feBlend mode="normal" in2="effect2_dropShadow_11616_13523" result="effect3_dropShadow_11616_13523"/>
<feBlend mode="normal" in="SourceGraphic" in2="effect3_dropShadow_11616_13523" result="shape"/>
</filter>
<clipPath id="clip0_11616_13523">
<rect width="34" height="20" fill="white" transform="translate(5)"/>
</clipPath>
<clipPath id="clip1_11616_13523">
<path d="M5 36C5 29.3726 10.3726 24 17 24H249C255.627 24 261 29.3726 261 36V60C261 66.6274 255.627 72 249 72H17C10.3726 72 5 66.6274 5 60V36Z" fill="white"/>
</clipPath>
<clipPath id="clip2_11616_13523">
<rect width="256" height="48" fill="white" transform="translate(5 24)"/>
</clipPath>
<clipPath id="clip3_11616_13523">
<path d="M5 140C5 133.373 10.3726 128 17 128H249C255.627 128 261 133.373 261 140V164C261 170.627 255.627 176 249 176H17C10.3726 176 5 170.627 5 164V140Z" fill="white"/>
</clipPath>
<clipPath id="clip4_11616_13523">
<rect width="256" height="48" fill="white" transform="translate(5 128)"/>
</clipPath>
<clipPath id="clip5_11616_13523">
<rect width="34" height="20" fill="white" transform="translate(5 104)"/>
</clipPath>
</defs>
</svg>
