<svg width="266" height="234" viewBox="0 0 266 234" fill="none" xmlns="http://www.w3.org/2000/svg">
<rect x="4" y="127" width="258" height="46" rx="13" stroke="white" stroke-width="2"/>
<rect x="2" y="125" width="262" height="48" rx="15" stroke="#094DAC" stroke-width="2"/>
<g clip-path="url(#clip0_11616_13530)">
<path d="M6.022 5.9H7.898V13.474H11.524V15H6.022V5.9ZM14.6733 15.168C14.3653 15.168 14.0713 15.1167 13.7913 15.014C13.5207 14.9207 13.2827 14.7853 13.0773 14.608C12.872 14.4213 12.7087 14.1973 12.5873 13.936C12.4753 13.6747 12.4193 13.3807 12.4193 13.054C12.4193 12.438 12.6387 11.948 13.0773 11.584C13.516 11.22 14.1833 11.0147 15.0793 10.968L16.7033 10.87V10.59C16.7033 10.142 16.568 9.834 16.2973 9.666C16.0267 9.498 15.6907 9.414 15.2893 9.414C14.972 9.414 14.6733 9.47467 14.3933 9.596C14.1133 9.708 13.9033 9.848 13.7633 10.016L12.7693 9.008C13.012 8.69067 13.362 8.42933 13.8193 8.224C14.286 8.01867 14.8553 7.916 15.5273 7.916C16.5167 7.916 17.254 8.14467 17.7393 8.602C18.2247 9.05933 18.4673 9.68 18.4673 10.464V15H16.8013V13.894H16.7173C16.54 14.286 16.2833 14.5987 15.9473 14.832C15.6113 15.056 15.1867 15.168 14.6733 15.168ZM15.1913 13.894C15.6393 13.894 16.0033 13.768 16.2833 13.516C16.5633 13.2547 16.7033 12.8907 16.7033 12.424V11.962L15.2893 12.074C14.5613 12.1207 14.1973 12.4287 14.1973 12.998C14.1973 13.2873 14.2907 13.5113 14.4773 13.67C14.664 13.8193 14.902 13.894 15.1913 13.894ZM24.2154 15.168C23.6741 15.168 23.2028 15.0373 22.8014 14.776C22.4094 14.5147 22.1294 14.1553 21.9614 13.698H21.8774V15H20.1974V4.85H21.9614V9.274H22.0454C22.2041 8.87267 22.4701 8.546 22.8434 8.294C23.2168 8.042 23.6741 7.916 24.2154 7.916C24.6448 7.916 25.0414 8.00467 25.4054 8.182C25.7788 8.35933 26.0961 8.61133 26.3574 8.938C26.6281 9.25533 26.8381 9.638 26.9874 10.086C27.1368 10.534 27.2114 11.0287 27.2114 11.57C27.2114 12.102 27.1368 12.592 26.9874 13.04C26.8381 13.4787 26.6281 13.8567 26.3574 14.174C26.0961 14.482 25.7788 14.7247 25.4054 14.902C25.0414 15.0793 24.6448 15.168 24.2154 15.168ZM23.6694 13.628C24.1921 13.628 24.6121 13.4413 24.9294 13.068C25.2468 12.6947 25.4054 12.186 25.4054 11.542C25.4054 10.898 25.2468 10.3893 24.9294 10.016C24.6121 9.64267 24.1921 9.456 23.6694 9.456C23.1561 9.456 22.7408 9.64267 22.4234 10.016C22.1154 10.3893 21.9614 10.898 21.9614 11.542C21.9614 12.186 22.1154 12.6947 22.4234 13.068C22.7408 13.4413 23.1561 13.628 23.6694 13.628ZM31.588 15.168C31.0093 15.168 30.5053 15.0747 30.076 14.888C29.6466 14.7013 29.2826 14.4447 28.984 14.118C28.6946 13.782 28.4753 13.3947 28.326 12.956C28.186 12.5173 28.116 12.046 28.116 11.542C28.116 11.0287 28.186 10.5527 28.326 10.114C28.466 9.666 28.676 9.28333 28.956 8.966C29.236 8.63933 29.586 8.38267 30.006 8.196C30.426 8.00933 30.916 7.916 31.476 7.916C32.036 7.916 32.526 8.00467 32.946 8.182C33.366 8.35933 33.7113 8.60667 33.982 8.924C34.2526 9.24133 34.4533 9.61933 34.584 10.058C34.724 10.4873 34.794 10.9587 34.794 11.472C34.794 11.5653 34.7846 11.6727 34.766 11.794C34.7566 11.9153 34.7426 12.0133 34.724 12.088H29.908C29.936 12.34 30.0013 12.5687 30.104 12.774C30.216 12.97 30.3513 13.138 30.51 13.278C30.678 13.418 30.86 13.5253 31.056 13.6C31.2613 13.6653 31.4713 13.698 31.686 13.698C32.0873 13.698 32.4233 13.628 32.694 13.488C32.9646 13.348 33.184 13.1707 33.352 12.956L34.346 13.992C34.0846 14.3467 33.7206 14.6313 33.254 14.846C32.7873 15.0607 32.232 15.168 31.588 15.168ZM31.476 9.26C31.028 9.26 30.664 9.40467 30.384 9.694C30.104 9.98333 29.9406 10.366 29.894 10.842H33.03C32.9833 10.366 32.82 9.98333 32.54 9.694C32.2693 9.40467 31.9146 9.26 31.476 9.26ZM36.1662 4.85H37.9302V15H36.1662V4.85Z" fill="#242E30"/>
</g>
<g clip-path="url(#clip1_11616_13530)">
<path d="M5 36C5 29.3726 10.3726 24 17 24H249C255.627 24 261 29.3726 261 36V60C261 66.6274 255.627 72 249 72H17C10.3726 72 5 66.6274 5 60V36Z" fill="white"/>
<g clip-path="url(#clip2_11616_13530)">
<g opacity="0.08">
<rect width="4" height="48" transform="translate(5 24)" fill="white" fill-opacity="0.01"/>
</g>
<path d="M26.76 54.192C25.9493 54.192 25.2347 54.048 24.616 53.76C24.008 53.472 23.496 53.0827 23.08 52.592C22.664 52.1013 22.3493 51.5307 22.136 50.88C21.9333 50.2187 21.832 49.5147 21.832 48.768C21.832 48.0213 21.9333 47.3227 22.136 46.672C22.3493 46.0213 22.664 45.456 23.08 44.976C23.496 44.4853 24.008 44.1013 24.616 43.824C25.2347 43.5467 25.9493 43.408 26.76 43.408C27.56 43.408 28.264 43.5467 28.872 43.824C29.4907 44.1013 30.008 44.4853 30.424 44.976C30.84 45.456 31.1493 46.0213 31.352 46.672C31.5653 47.3227 31.672 48.0213 31.672 48.768C31.672 49.5147 31.5653 50.2187 31.352 50.88C31.1493 51.5307 30.84 52.1013 30.424 52.592C30.008 53.0827 29.4907 53.472 28.872 53.76C28.264 54.048 27.56 54.192 26.76 54.192ZM26.76 53.024C27.272 53.024 27.7413 52.928 28.168 52.736C28.6053 52.544 28.9787 52.2667 29.288 51.904C29.5973 51.5413 29.8373 51.0987 30.008 50.576C30.1893 50.0427 30.28 49.44 30.28 48.768C30.28 48.096 30.1893 47.4987 30.008 46.976C29.8373 46.4533 29.5973 46.016 29.288 45.664C28.9787 45.3013 28.6053 45.0293 28.168 44.848C27.7413 44.6667 27.272 44.576 26.76 44.576C26.248 44.576 25.7733 44.6667 25.336 44.848C24.8987 45.0293 24.5253 45.3013 24.216 45.664C23.9067 46.016 23.6613 46.4533 23.48 46.976C23.3093 47.4987 23.224 48.096 23.224 48.768C23.224 49.44 23.3093 50.0427 23.48 50.576C23.6613 51.0987 23.9067 51.5413 24.216 51.904C24.5253 52.2667 24.8987 52.544 25.336 52.736C25.7733 52.928 26.248 53.024 26.76 53.024ZM33.86 46.096H35.076V47.712H35.172C35.268 47.4453 35.4013 47.2 35.572 46.976C35.7533 46.752 35.9613 46.56 36.196 46.4C36.4413 46.24 36.708 46.1173 36.996 46.032C37.2947 45.9467 37.604 45.904 37.924 45.904C38.4467 45.904 38.9213 46.0107 39.348 46.224C39.7853 46.4267 40.1587 46.7147 40.468 47.088C40.7773 47.4507 41.012 47.888 41.172 48.4C41.3427 48.912 41.428 49.4667 41.428 50.064C41.428 50.6613 41.3427 51.216 41.172 51.728C41.012 52.2293 40.7773 52.6667 40.468 53.04C40.1587 53.4027 39.7853 53.6853 39.348 53.888C38.9213 54.0907 38.4467 54.192 37.924 54.192C37.2733 54.192 36.7133 54.0373 36.244 53.728C35.7747 53.4187 35.4387 53.024 35.236 52.544H35.14V56.96H33.86V46.096ZM37.604 53.04C37.956 53.04 38.2813 52.9813 38.58 52.864C38.8893 52.736 39.156 52.5493 39.38 52.304C39.6147 52.048 39.796 51.7333 39.924 51.36C40.052 50.9867 40.116 50.5493 40.116 50.048C40.116 49.5467 40.052 49.1093 39.924 48.736C39.796 48.3627 39.6147 48.0533 39.38 47.808C39.156 47.552 38.8893 47.3653 38.58 47.248C38.2813 47.12 37.956 47.056 37.604 47.056C37.2627 47.056 36.9427 47.12 36.644 47.248C36.3453 47.3653 36.084 47.552 35.86 47.808C35.636 48.0533 35.46 48.3627 35.332 48.736C35.204 49.1093 35.14 49.5467 35.14 50.048C35.14 50.5493 35.204 50.9867 35.332 51.36C35.46 51.7333 35.636 52.048 35.86 52.304C36.084 52.5493 36.3453 52.736 36.644 52.864C36.9427 52.9813 37.2627 53.04 37.604 53.04ZM45.917 54.192C45.2023 54.192 44.6797 53.9787 44.349 53.552C44.0183 53.1253 43.853 52.5387 43.853 51.792V47.136H42.445V46.096H43.853V43.952H45.117V46.096H47.405V47.136H45.117V51.68C45.117 52.192 45.213 52.5493 45.405 52.752C45.6077 52.9547 45.8637 53.056 46.173 53.056C46.3863 53.056 46.5783 53.0187 46.749 52.944C46.9197 52.8587 47.0797 52.7467 47.229 52.608L47.805 53.504C47.3143 53.9627 46.685 54.192 45.917 54.192ZM51.0355 44C51.0355 44.224 50.9555 44.416 50.7955 44.576C50.6462 44.736 50.4435 44.816 50.1875 44.816C49.9208 44.816 49.7128 44.736 49.5635 44.576C49.4142 44.416 49.3395 44.224 49.3395 44C49.3395 43.7867 49.4142 43.6 49.5635 43.44C49.7128 43.2693 49.9208 43.184 50.1875 43.184C50.4435 43.184 50.6462 43.2693 50.7955 43.44C50.9555 43.6 51.0355 43.7867 51.0355 44ZM49.5475 46.096H50.8275V54H49.5475V46.096ZM56.6675 54.192C56.0382 54.192 55.4835 54.0853 55.0035 53.872C54.5342 53.648 54.1395 53.3493 53.8195 52.976C53.5102 52.6027 53.2755 52.1653 53.1155 51.664C52.9662 51.1627 52.8915 50.624 52.8915 50.048C52.8915 49.472 52.9662 48.9333 53.1155 48.432C53.2755 47.9307 53.5102 47.4933 53.8195 47.12C54.1395 46.7467 54.5342 46.4533 55.0035 46.24C55.4835 46.016 56.0382 45.904 56.6675 45.904C57.2968 45.904 57.8408 46.016 58.2995 46.24C58.7688 46.4533 59.1582 46.7467 59.4675 47.12C59.7768 47.4933 60.0062 47.9307 60.1555 48.432C60.3155 48.9333 60.3955 49.472 60.3955 50.048C60.3955 50.624 60.3155 51.1627 60.1555 51.664C60.0062 52.1653 59.7768 52.6027 59.4675 52.976C59.1582 53.3493 58.7688 53.648 58.2995 53.872C57.8408 54.0853 57.2968 54.192 56.6675 54.192ZM54.2035 50.048C54.2035 50.5067 54.2515 50.928 54.3475 51.312C54.4542 51.6853 54.6088 52.0107 54.8115 52.288C55.0142 52.5547 55.2702 52.7627 55.5795 52.912C55.8888 53.0613 56.2515 53.136 56.6675 53.136C57.0728 53.136 57.4248 53.0613 57.7235 52.912C58.0328 52.7627 58.2835 52.5547 58.4755 52.288C58.6782 52.0107 58.8275 51.6853 58.9235 51.312C59.0302 50.928 59.0835 50.5067 59.0835 50.048C59.0835 49.5893 59.0302 49.1733 58.9235 48.8C58.8275 48.416 58.6782 48.0907 58.4755 47.824C58.2835 47.5467 58.0328 47.3333 57.7235 47.184C57.4248 47.0347 57.0728 46.96 56.6675 46.96C56.2515 46.96 55.8888 47.0347 55.5795 47.184C55.2702 47.3333 55.0142 47.5467 54.8115 47.824C54.6088 48.0907 54.4542 48.416 54.3475 48.8C54.2515 49.1733 54.2035 49.5893 54.2035 50.048ZM62.4538 46.096H63.6698V47.344H63.7658C63.9578 46.928 64.2298 46.5867 64.5818 46.32C64.9338 46.0427 65.3818 45.904 65.9258 45.904C66.8324 45.904 67.5471 46.144 68.0698 46.624C68.6031 47.104 68.8698 47.8773 68.8698 48.944V54H67.5898V49.184C67.5898 48.3733 67.4244 47.8027 67.0938 47.472C66.7738 47.1307 66.2991 46.96 65.6698 46.96C65.0618 46.96 64.5871 47.168 64.2458 47.584C63.9044 48 63.7338 48.608 63.7338 49.408V54H62.4538V46.096ZM75.4419 52.88H78.4179V45.04L75.5699 46.352L75.1539 45.456L78.6579 43.6H79.7779V52.88H82.4499V54H75.4419V52.88Z" fill="#242E30"/>
<path d="M228.525 44.3047L235 50.9984L241.497 44.25L242.7 45.3437L235.995 52.3C235.723 52.5692 235.356 52.7201 234.973 52.7201C234.59 52.7201 234.222 52.5692 233.95 52.3L227.344 45.4312L228.525 44.3047Z" fill="#242E30"/>
</g>
</g>
<path d="M5.5 36C5.5 29.6487 10.6487 24.5 17 24.5H249C255.351 24.5 260.5 29.6487 260.5 36V60C260.5 66.3513 255.351 71.5 249 71.5H17C10.6487 71.5 5.5 66.3513 5.5 60V36Z" stroke="#82817F"/>
<g clip-path="url(#clip3_11616_13530)">
<path d="M5 140C5 133.373 10.3726 128 17 128H249C255.627 128 261 133.373 261 140V164C261 170.627 255.627 176 249 176H17C10.3726 176 5 170.627 5 164V140Z" fill="white"/>
<g clip-path="url(#clip4_11616_13530)">
<rect width="256" height="48" transform="translate(5 128)" fill="black" fill-opacity="0.04"/>
<g opacity="0.08">
<rect width="4" height="48" transform="translate(5 128)" fill="white" fill-opacity="0.01"/>
</g>
<path d="M25.192 158.192C24.2853 158.192 23.5493 158.053 22.984 157.776C22.4187 157.499 21.9707 157.141 21.64 156.704L22.504 155.888C22.792 156.24 23.1707 156.517 23.64 156.72C24.12 156.923 24.68 157.024 25.32 157.024C25.608 157.024 25.8853 156.992 26.152 156.928C26.4187 156.864 26.6533 156.768 26.856 156.64C27.0693 156.501 27.2347 156.32 27.352 156.096C27.48 155.872 27.544 155.6 27.544 155.28C27.544 155.003 27.48 154.768 27.352 154.576C27.224 154.373 27.048 154.203 26.824 154.064C26.6107 153.915 26.3547 153.787 26.056 153.68C25.7573 153.563 25.432 153.445 25.08 153.328C24.7067 153.2 24.3387 153.067 23.976 152.928C23.6133 152.779 23.288 152.592 23 152.368C22.712 152.144 22.4773 151.872 22.296 151.552C22.1147 151.221 22.024 150.816 22.024 150.336C22.024 149.856 22.1093 149.435 22.28 149.072C22.4613 148.709 22.7067 148.405 23.016 148.16C23.3253 147.915 23.6933 147.728 24.12 147.6C24.5467 147.472 25.0107 147.408 25.512 147.408C26.248 147.408 26.904 147.536 27.48 147.792C28.0667 148.048 28.5413 148.437 28.904 148.96L28.04 149.808C27.752 149.456 27.384 149.163 26.936 148.928C26.488 148.693 25.976 148.576 25.4 148.576C25.1547 148.576 24.9147 148.608 24.68 148.672C24.4453 148.725 24.232 148.821 24.04 148.96C23.848 149.099 23.6933 149.275 23.576 149.488C23.4587 149.701 23.4 149.957 23.4 150.256C23.4 150.533 23.464 150.773 23.592 150.976C23.72 151.168 23.8907 151.339 24.104 151.488C24.328 151.627 24.5893 151.755 24.888 151.872C25.1867 151.979 25.512 152.091 25.864 152.208C26.2373 152.336 26.6053 152.475 26.968 152.624C27.3307 152.773 27.656 152.96 27.944 153.184C28.232 153.408 28.4667 153.68 28.648 154C28.8293 154.32 28.92 154.72 28.92 155.2C28.92 155.712 28.8187 156.16 28.616 156.544C28.424 156.917 28.1573 157.227 27.816 157.472C27.4853 157.717 27.0907 157.899 26.632 158.016C26.184 158.133 25.704 158.192 25.192 158.192ZM34.1668 158.192C33.6014 158.192 33.0841 158.096 32.6148 157.904C32.1561 157.712 31.7614 157.44 31.4308 157.088C31.1108 156.725 30.8601 156.288 30.6788 155.776C30.5081 155.264 30.4228 154.688 30.4228 154.048C30.4228 153.376 30.5134 152.784 30.6948 152.272C30.8761 151.749 31.1268 151.317 31.4468 150.976C31.7668 150.624 32.1454 150.357 32.5828 150.176C33.0308 149.995 33.5214 149.904 34.0548 149.904C34.5881 149.904 35.0788 149.989 35.5268 150.16C35.9748 150.331 36.3588 150.587 36.6788 150.928C36.9988 151.259 37.2494 151.68 37.4308 152.192C37.6121 152.693 37.7028 153.28 37.7028 153.952C37.7028 154.037 37.6974 154.123 37.6868 154.208C37.6868 154.293 37.6814 154.363 37.6708 154.416H31.7028C31.7028 154.789 31.7668 155.141 31.8948 155.472C32.0334 155.792 32.2148 156.075 32.4388 156.32C32.6734 156.555 32.9401 156.741 33.2388 156.88C33.5481 157.019 33.8788 157.088 34.2308 157.088C34.8068 157.088 35.2761 156.976 35.6388 156.752C36.0121 156.528 36.3214 156.256 36.5668 155.936L37.3348 156.72C36.9934 157.168 36.5668 157.525 36.0548 157.792C35.5534 158.059 34.9241 158.192 34.1668 158.192ZM34.0548 150.96C33.6814 150.96 33.3508 151.029 33.0628 151.168C32.7748 151.307 32.5348 151.488 32.3428 151.712C32.1508 151.936 32.0014 152.192 31.8948 152.48C31.7988 152.768 31.7454 153.056 31.7348 153.344H36.3588C36.3481 153.056 36.2894 152.768 36.1828 152.48C36.0868 152.192 35.9428 151.936 35.7508 151.712C35.5588 151.488 35.3188 151.307 35.0308 151.168C34.7534 151.029 34.4281 150.96 34.0548 150.96ZM39.7663 146.4H41.0463V158H39.7663V146.4ZM46.8543 158.192C46.2889 158.192 45.7716 158.096 45.3023 157.904C44.8436 157.712 44.4489 157.44 44.1183 157.088C43.7983 156.725 43.5476 156.288 43.3663 155.776C43.1956 155.264 43.1103 154.688 43.1103 154.048C43.1103 153.376 43.2009 152.784 43.3823 152.272C43.5636 151.749 43.8143 151.317 44.1343 150.976C44.4543 150.624 44.8329 150.357 45.2703 150.176C45.7183 149.995 46.2089 149.904 46.7423 149.904C47.2756 149.904 47.7663 149.989 48.2143 150.16C48.6623 150.331 49.0463 150.587 49.3663 150.928C49.6863 151.259 49.9369 151.68 50.1183 152.192C50.2996 152.693 50.3903 153.28 50.3903 153.952C50.3903 154.037 50.3849 154.123 50.3743 154.208C50.3743 154.293 50.3689 154.363 50.3583 154.416H44.3903C44.3903 154.789 44.4543 155.141 44.5823 155.472C44.7209 155.792 44.9023 156.075 45.1263 156.32C45.3609 156.555 45.6276 156.741 45.9263 156.88C46.2356 157.019 46.5663 157.088 46.9183 157.088C47.4943 157.088 47.9636 156.976 48.3263 156.752C48.6996 156.528 49.0089 156.256 49.2543 155.936L50.0223 156.72C49.6809 157.168 49.2543 157.525 48.7423 157.792C48.2409 158.059 47.6116 158.192 46.8543 158.192ZM46.7423 150.96C46.3689 150.96 46.0383 151.029 45.7503 151.168C45.4623 151.307 45.2223 151.488 45.0303 151.712C44.8383 151.936 44.6889 152.192 44.5823 152.48C44.4863 152.768 44.4329 153.056 44.4223 153.344H49.0463C49.0356 153.056 48.9769 152.768 48.8703 152.48C48.7743 152.192 48.6303 151.936 48.4383 151.712C48.2463 151.488 48.0063 151.307 47.7183 151.168C47.4409 151.029 47.1156 150.96 46.7423 150.96ZM55.4618 158.192C54.8218 158.192 54.2671 158.075 53.7978 157.84C53.3391 157.605 52.9604 157.296 52.6618 156.912C52.3631 156.528 52.1444 156.091 52.0058 155.6C51.8671 155.099 51.7978 154.581 51.7978 154.048C51.7978 153.515 51.8671 153.003 52.0058 152.512C52.1444 152.011 52.3578 151.568 52.6458 151.184C52.9444 150.8 53.3231 150.491 53.7818 150.256C54.2404 150.021 54.7898 149.904 55.4298 149.904C56.1018 149.904 56.6511 150.016 57.0778 150.24C57.5044 150.464 57.8671 150.763 58.1658 151.136L57.3658 151.888C57.1098 151.611 56.8378 151.397 56.5498 151.248C56.2724 151.088 55.9098 151.008 55.4618 151.008C54.7578 151.008 54.1871 151.28 53.7498 151.824C53.3231 152.357 53.1098 153.099 53.1098 154.048C53.1098 154.517 53.1684 154.939 53.2858 155.312C53.4031 155.685 53.5684 156.005 53.7818 156.272C53.9951 156.539 54.2458 156.741 54.5338 156.88C54.8218 157.019 55.1418 157.088 55.4938 157.088C55.9204 157.088 56.2884 157.013 56.5978 156.864C56.9071 156.704 57.1951 156.475 57.4618 156.176L58.2298 156.944C57.9204 157.317 57.5418 157.621 57.0938 157.856C56.6458 158.08 56.1018 158.192 55.4618 158.192ZM62.5264 158.192C61.8117 158.192 61.289 157.979 60.9584 157.552C60.6277 157.125 60.4624 156.539 60.4624 155.792V151.136H59.0544V150.096H60.4624V147.952H61.7264V150.096H64.0144V151.136H61.7264V155.68C61.7264 156.192 61.8224 156.549 62.0144 156.752C62.217 156.955 62.473 157.056 62.7824 157.056C62.9957 157.056 63.1877 157.019 63.3584 156.944C63.529 156.859 63.689 156.747 63.8384 156.608L64.4144 157.504C63.9237 157.963 63.2944 158.192 62.5264 158.192ZM66.7969 158.192C66.4982 158.192 66.2635 158.096 66.0929 157.904C65.9222 157.712 65.8369 157.493 65.8369 157.248C65.8369 156.992 65.9222 156.773 66.0929 156.592C66.2635 156.4 66.4982 156.304 66.7969 156.304C67.1062 156.304 67.3409 156.4 67.5009 156.592C67.6715 156.773 67.7569 156.992 67.7569 157.248C67.7569 157.493 67.6715 157.712 67.5009 157.904C67.3409 158.096 67.1062 158.192 66.7969 158.192ZM70.7969 158.192C70.4982 158.192 70.2635 158.096 70.0929 157.904C69.9222 157.712 69.8369 157.493 69.8369 157.248C69.8369 156.992 69.9222 156.773 70.0929 156.592C70.2635 156.4 70.4982 156.304 70.7969 156.304C71.1062 156.304 71.3409 156.4 71.5009 156.592C71.6715 156.773 71.7569 156.992 71.7569 157.248C71.7569 157.493 71.6715 157.712 71.5009 157.904C71.3409 158.096 71.1062 158.192 70.7969 158.192ZM74.7969 158.192C74.4982 158.192 74.2635 158.096 74.0929 157.904C73.9222 157.712 73.8369 157.493 73.8369 157.248C73.8369 156.992 73.9222 156.773 74.0929 156.592C74.2635 156.4 74.4982 156.304 74.7969 156.304C75.1062 156.304 75.3409 156.4 75.5009 156.592C75.6715 156.773 75.7569 156.992 75.7569 157.248C75.7569 157.493 75.6715 157.712 75.5009 157.904C75.3409 158.096 75.1062 158.192 74.7969 158.192Z" fill="#242E30"/>
<path d="M228.525 148.305L235 154.998L241.497 148.25L242.7 149.344L235.995 156.3C235.723 156.569 235.356 156.72 234.973 156.72C234.59 156.72 234.222 156.569 233.95 156.3L227.344 149.431L228.525 148.305Z" fill="#242E30"/>
</g>
</g>
<path d="M5.5 140C5.5 133.649 10.6487 128.5 17 128.5H249C255.351 128.5 260.5 133.649 260.5 140V164C260.5 170.351 255.351 175.5 249 175.5H17C10.6487 175.5 5.5 170.351 5.5 164V140Z" stroke="#82817F"/>
<g filter="url(#filter0_ddd_11616_13530)">
<rect x="5" y="132" width="256" height="96" rx="6" fill="#E9E9E9"/>
<rect x="5.5" y="132.5" width="255" height="95" rx="5.5" stroke="#B7B7B7"/>
<path d="M22.865 156.489C22.7007 156.487 22.5385 156.452 22.3881 156.386C22.2377 156.32 22.1023 156.224 21.99 156.104L18.875 152.656L19.855 151.781L22.8825 155.15L30.1362 147.328L31.0988 148.203L23.7488 156.078C23.6365 156.198 23.501 156.294 23.3507 156.36C23.2003 156.426 23.038 156.461 22.8738 156.463L22.865 156.489Z" fill="#242E30"/>
<path d="M35.7734 152.422C35.7734 150.521 36.2839 149.034 37.3047 147.961C38.3255 146.883 39.6432 146.344 41.2578 146.344C42.3151 146.344 43.2682 146.596 44.1172 147.102C44.9661 147.607 45.612 148.312 46.0547 149.219C46.5026 150.12 46.7266 151.143 46.7266 152.289C46.7266 153.451 46.4922 154.49 46.0234 155.406C45.5547 156.323 44.8906 157.018 44.0312 157.492C43.1719 157.961 42.2448 158.195 41.25 158.195C40.1719 158.195 39.2083 157.935 38.3594 157.414C37.5104 156.893 36.8672 156.182 36.4297 155.281C35.9922 154.38 35.7734 153.427 35.7734 152.422ZM37.3359 152.445C37.3359 153.826 37.7057 154.914 38.4453 155.711C39.1901 156.503 40.1224 156.898 41.2422 156.898C42.3828 156.898 43.3203 156.497 44.0547 155.695C44.7943 154.893 45.1641 153.755 45.1641 152.281C45.1641 151.349 45.0052 150.536 44.6875 149.844C44.375 149.146 43.9141 148.607 43.3047 148.227C42.7005 147.841 42.0208 147.648 41.2656 147.648C40.1927 147.648 39.2682 148.018 38.4922 148.758C37.7214 149.492 37.3359 150.721 37.3359 152.445ZM48.5078 161.18V149.703H49.7891V150.781C50.0911 150.359 50.4323 150.044 50.8125 149.836C51.1927 149.622 51.6536 149.516 52.1953 149.516C52.9036 149.516 53.5286 149.698 54.0703 150.062C54.612 150.427 55.0208 150.943 55.2969 151.609C55.5729 152.271 55.7109 152.997 55.7109 153.789C55.7109 154.638 55.5573 155.404 55.25 156.086C54.9479 156.763 54.5052 157.284 53.9219 157.648C53.3438 158.008 52.7344 158.188 52.0938 158.188C51.625 158.188 51.2031 158.089 50.8281 157.891C50.4583 157.693 50.1536 157.443 49.9141 157.141V161.18H48.5078ZM49.7812 153.898C49.7812 154.966 49.9974 155.755 50.4297 156.266C50.862 156.776 51.3854 157.031 52 157.031C52.625 157.031 53.1589 156.768 53.6016 156.242C54.0495 155.711 54.2734 154.891 54.2734 153.781C54.2734 152.724 54.0547 151.932 53.6172 151.406C53.1849 150.88 52.6667 150.617 52.0625 150.617C51.4635 150.617 50.9323 150.898 50.4688 151.461C50.0104 152.018 49.7812 152.831 49.7812 153.898ZM60.4844 156.742L60.6875 157.984C60.2917 158.068 59.9375 158.109 59.625 158.109C59.1146 158.109 58.7188 158.029 58.4375 157.867C58.1562 157.706 57.9583 157.495 57.8438 157.234C57.7292 156.969 57.6719 156.414 57.6719 155.57V150.797H56.6406V149.703H57.6719V147.648L59.0703 146.805V149.703H60.4844V150.797H59.0703V155.648C59.0703 156.049 59.0938 156.307 59.1406 156.422C59.1927 156.536 59.2734 156.628 59.3828 156.695C59.4974 156.763 59.6589 156.797 59.8672 156.797C60.0234 156.797 60.2292 156.779 60.4844 156.742ZM61.875 148.164V146.547H63.2812V148.164H61.875ZM61.875 158V149.703H63.2812V158H61.875ZM64.9062 153.852C64.9062 152.315 65.3333 151.177 66.1875 150.438C66.901 149.823 67.7708 149.516 68.7969 149.516C69.9375 149.516 70.8698 149.891 71.5938 150.641C72.3177 151.385 72.6797 152.417 72.6797 153.734C72.6797 154.802 72.5182 155.643 72.1953 156.258C71.8776 156.867 71.4115 157.341 70.7969 157.68C70.1875 158.018 69.5208 158.188 68.7969 158.188C67.6354 158.188 66.6953 157.815 65.9766 157.07C65.263 156.326 64.9062 155.253 64.9062 153.852ZM66.3516 153.852C66.3516 154.914 66.5833 155.711 67.0469 156.242C67.5104 156.768 68.0938 157.031 68.7969 157.031C69.4948 157.031 70.0755 156.766 70.5391 156.234C71.0026 155.703 71.2344 154.893 71.2344 153.805C71.2344 152.779 71 152.003 70.5312 151.477C70.0677 150.945 69.4896 150.68 68.7969 150.68C68.0938 150.68 67.5104 150.943 67.0469 151.469C66.5833 151.995 66.3516 152.789 66.3516 153.852ZM74.3359 158V149.703H75.6016V150.883C76.2109 149.971 77.0911 149.516 78.2422 149.516C78.7422 149.516 79.2005 149.607 79.6172 149.789C80.0391 149.966 80.3542 150.201 80.5625 150.492C80.7708 150.784 80.9167 151.13 81 151.531C81.0521 151.792 81.0781 152.247 81.0781 152.898V158H79.6719V152.953C79.6719 152.38 79.6172 151.953 79.5078 151.672C79.3984 151.385 79.2031 151.159 78.9219 150.992C78.6458 150.82 78.3203 150.734 77.9453 150.734C77.3464 150.734 76.8281 150.924 76.3906 151.305C75.9583 151.685 75.7422 152.406 75.7422 153.469V158H74.3359ZM92.6016 158H91.1953V149.039C90.8568 149.362 90.4115 149.685 89.8594 150.008C89.3125 150.331 88.8203 150.573 88.3828 150.734V149.375C89.1693 149.005 89.8568 148.557 90.4453 148.031C91.0339 147.505 91.4505 146.995 91.6953 146.5H92.6016V158Z" fill="black"/>
<path d="M35.7734 180.422C35.7734 178.521 36.2839 177.034 37.3047 175.961C38.3255 174.883 39.6432 174.344 41.2578 174.344C42.3151 174.344 43.2682 174.596 44.1172 175.102C44.9661 175.607 45.612 176.312 46.0547 177.219C46.5026 178.12 46.7266 179.143 46.7266 180.289C46.7266 181.451 46.4922 182.49 46.0234 183.406C45.5547 184.323 44.8906 185.018 44.0312 185.492C43.1719 185.961 42.2448 186.195 41.25 186.195C40.1719 186.195 39.2083 185.935 38.3594 185.414C37.5104 184.893 36.8672 184.182 36.4297 183.281C35.9922 182.38 35.7734 181.427 35.7734 180.422ZM37.3359 180.445C37.3359 181.826 37.7057 182.914 38.4453 183.711C39.1901 184.503 40.1224 184.898 41.2422 184.898C42.3828 184.898 43.3203 184.497 44.0547 183.695C44.7943 182.893 45.1641 181.755 45.1641 180.281C45.1641 179.349 45.0052 178.536 44.6875 177.844C44.375 177.146 43.9141 176.607 43.3047 176.227C42.7005 175.841 42.0208 175.648 41.2656 175.648C40.1927 175.648 39.2682 176.018 38.4922 176.758C37.7214 177.492 37.3359 178.721 37.3359 180.445ZM48.5078 189.18V177.703H49.7891V178.781C50.0911 178.359 50.4323 178.044 50.8125 177.836C51.1927 177.622 51.6536 177.516 52.1953 177.516C52.9036 177.516 53.5286 177.698 54.0703 178.062C54.612 178.427 55.0208 178.943 55.2969 179.609C55.5729 180.271 55.7109 180.997 55.7109 181.789C55.7109 182.638 55.5573 183.404 55.25 184.086C54.9479 184.763 54.5052 185.284 53.9219 185.648C53.3438 186.008 52.7344 186.188 52.0938 186.188C51.625 186.188 51.2031 186.089 50.8281 185.891C50.4583 185.693 50.1536 185.443 49.9141 185.141V189.18H48.5078ZM49.7812 181.898C49.7812 182.966 49.9974 183.755 50.4297 184.266C50.862 184.776 51.3854 185.031 52 185.031C52.625 185.031 53.1589 184.768 53.6016 184.242C54.0495 183.711 54.2734 182.891 54.2734 181.781C54.2734 180.724 54.0547 179.932 53.6172 179.406C53.1849 178.88 52.6667 178.617 52.0625 178.617C51.4635 178.617 50.9323 178.898 50.4688 179.461C50.0104 180.018 49.7812 180.831 49.7812 181.898ZM60.4844 184.742L60.6875 185.984C60.2917 186.068 59.9375 186.109 59.625 186.109C59.1146 186.109 58.7188 186.029 58.4375 185.867C58.1562 185.706 57.9583 185.495 57.8438 185.234C57.7292 184.969 57.6719 184.414 57.6719 183.57V178.797H56.6406V177.703H57.6719V175.648L59.0703 174.805V177.703H60.4844V178.797H59.0703V183.648C59.0703 184.049 59.0938 184.307 59.1406 184.422C59.1927 184.536 59.2734 184.628 59.3828 184.695C59.4974 184.763 59.6589 184.797 59.8672 184.797C60.0234 184.797 60.2292 184.779 60.4844 184.742ZM61.875 176.164V174.547H63.2812V176.164H61.875ZM61.875 186V177.703H63.2812V186H61.875ZM64.9062 181.852C64.9062 180.315 65.3333 179.177 66.1875 178.438C66.901 177.823 67.7708 177.516 68.7969 177.516C69.9375 177.516 70.8698 177.891 71.5938 178.641C72.3177 179.385 72.6797 180.417 72.6797 181.734C72.6797 182.802 72.5182 183.643 72.1953 184.258C71.8776 184.867 71.4115 185.341 70.7969 185.68C70.1875 186.018 69.5208 186.188 68.7969 186.188C67.6354 186.188 66.6953 185.815 65.9766 185.07C65.263 184.326 64.9062 183.253 64.9062 181.852ZM66.3516 181.852C66.3516 182.914 66.5833 183.711 67.0469 184.242C67.5104 184.768 68.0938 185.031 68.7969 185.031C69.4948 185.031 70.0755 184.766 70.5391 184.234C71.0026 183.703 71.2344 182.893 71.2344 181.805C71.2344 180.779 71 180.003 70.5312 179.477C70.0677 178.945 69.4896 178.68 68.7969 178.68C68.0938 178.68 67.5104 178.943 67.0469 179.469C66.5833 179.995 66.3516 180.789 66.3516 181.852ZM74.3359 186V177.703H75.6016V178.883C76.2109 177.971 77.0911 177.516 78.2422 177.516C78.7422 177.516 79.2005 177.607 79.6172 177.789C80.0391 177.966 80.3542 178.201 80.5625 178.492C80.7708 178.784 80.9167 179.13 81 179.531C81.0521 179.792 81.0781 180.247 81.0781 180.898V186H79.6719V180.953C79.6719 180.38 79.6172 179.953 79.5078 179.672C79.3984 179.385 79.2031 179.159 78.9219 178.992C78.6458 178.82 78.3203 178.734 77.9453 178.734C77.3464 178.734 76.8281 178.924 76.3906 179.305C75.9583 179.685 75.7422 180.406 75.7422 181.469V186H74.3359ZM94.6953 184.648V186H87.125C87.1146 185.661 87.1693 185.336 87.2891 185.023C87.4818 184.508 87.7891 184 88.2109 183.5C88.638 183 89.2526 182.422 90.0547 181.766C91.2995 180.745 92.1406 179.938 92.5781 179.344C93.0156 178.745 93.2344 178.18 93.2344 177.648C93.2344 177.091 93.0339 176.622 92.6328 176.242C92.237 175.857 91.7188 175.664 91.0781 175.664C90.401 175.664 89.8594 175.867 89.4531 176.273C89.0469 176.68 88.8411 177.242 88.8359 177.961L87.3906 177.812C87.4896 176.734 87.862 175.914 88.5078 175.352C89.1536 174.784 90.0208 174.5 91.1094 174.5C92.2083 174.5 93.0781 174.805 93.7188 175.414C94.3594 176.023 94.6797 176.779 94.6797 177.68C94.6797 178.138 94.5859 178.589 94.3984 179.031C94.2109 179.474 93.8984 179.94 93.4609 180.43C93.0286 180.919 92.3073 181.591 91.2969 182.445C90.4531 183.154 89.9115 183.635 89.6719 183.891C89.4323 184.141 89.2344 184.393 89.0781 184.648H94.6953Z" fill="black"/>
<path d="M35.7734 208.422C35.7734 206.521 36.2839 205.034 37.3047 203.961C38.3255 202.883 39.6432 202.344 41.2578 202.344C42.3151 202.344 43.2682 202.596 44.1172 203.102C44.9661 203.607 45.612 204.312 46.0547 205.219C46.5026 206.12 46.7266 207.143 46.7266 208.289C46.7266 209.451 46.4922 210.49 46.0234 211.406C45.5547 212.323 44.8906 213.018 44.0312 213.492C43.1719 213.961 42.2448 214.195 41.25 214.195C40.1719 214.195 39.2083 213.935 38.3594 213.414C37.5104 212.893 36.8672 212.182 36.4297 211.281C35.9922 210.38 35.7734 209.427 35.7734 208.422ZM37.3359 208.445C37.3359 209.826 37.7057 210.914 38.4453 211.711C39.1901 212.503 40.1224 212.898 41.2422 212.898C42.3828 212.898 43.3203 212.497 44.0547 211.695C44.7943 210.893 45.1641 209.755 45.1641 208.281C45.1641 207.349 45.0052 206.536 44.6875 205.844C44.375 205.146 43.9141 204.607 43.3047 204.227C42.7005 203.841 42.0208 203.648 41.2656 203.648C40.1927 203.648 39.2682 204.018 38.4922 204.758C37.7214 205.492 37.3359 206.721 37.3359 208.445ZM48.5078 217.18V205.703H49.7891V206.781C50.0911 206.359 50.4323 206.044 50.8125 205.836C51.1927 205.622 51.6536 205.516 52.1953 205.516C52.9036 205.516 53.5286 205.698 54.0703 206.062C54.612 206.427 55.0208 206.943 55.2969 207.609C55.5729 208.271 55.7109 208.997 55.7109 209.789C55.7109 210.638 55.5573 211.404 55.25 212.086C54.9479 212.763 54.5052 213.284 53.9219 213.648C53.3438 214.008 52.7344 214.188 52.0938 214.188C51.625 214.188 51.2031 214.089 50.8281 213.891C50.4583 213.693 50.1536 213.443 49.9141 213.141V217.18H48.5078ZM49.7812 209.898C49.7812 210.966 49.9974 211.755 50.4297 212.266C50.862 212.776 51.3854 213.031 52 213.031C52.625 213.031 53.1589 212.768 53.6016 212.242C54.0495 211.711 54.2734 210.891 54.2734 209.781C54.2734 208.724 54.0547 207.932 53.6172 207.406C53.1849 206.88 52.6667 206.617 52.0625 206.617C51.4635 206.617 50.9323 206.898 50.4688 207.461C50.0104 208.018 49.7812 208.831 49.7812 209.898ZM60.4844 212.742L60.6875 213.984C60.2917 214.068 59.9375 214.109 59.625 214.109C59.1146 214.109 58.7188 214.029 58.4375 213.867C58.1562 213.706 57.9583 213.495 57.8438 213.234C57.7292 212.969 57.6719 212.414 57.6719 211.57V206.797H56.6406V205.703H57.6719V203.648L59.0703 202.805V205.703H60.4844V206.797H59.0703V211.648C59.0703 212.049 59.0938 212.307 59.1406 212.422C59.1927 212.536 59.2734 212.628 59.3828 212.695C59.4974 212.763 59.6589 212.797 59.8672 212.797C60.0234 212.797 60.2292 212.779 60.4844 212.742ZM61.875 204.164V202.547H63.2812V204.164H61.875ZM61.875 214V205.703H63.2812V214H61.875ZM64.9062 209.852C64.9062 208.315 65.3333 207.177 66.1875 206.438C66.901 205.823 67.7708 205.516 68.7969 205.516C69.9375 205.516 70.8698 205.891 71.5938 206.641C72.3177 207.385 72.6797 208.417 72.6797 209.734C72.6797 210.802 72.5182 211.643 72.1953 212.258C71.8776 212.867 71.4115 213.341 70.7969 213.68C70.1875 214.018 69.5208 214.188 68.7969 214.188C67.6354 214.188 66.6953 213.815 65.9766 213.07C65.263 212.326 64.9062 211.253 64.9062 209.852ZM66.3516 209.852C66.3516 210.914 66.5833 211.711 67.0469 212.242C67.5104 212.768 68.0938 213.031 68.7969 213.031C69.4948 213.031 70.0755 212.766 70.5391 212.234C71.0026 211.703 71.2344 210.893 71.2344 209.805C71.2344 208.779 71 208.003 70.5312 207.477C70.0677 206.945 69.4896 206.68 68.7969 206.68C68.0938 206.68 67.5104 206.943 67.0469 207.469C66.5833 207.995 66.3516 208.789 66.3516 209.852ZM74.3359 214V205.703H75.6016V206.883C76.2109 205.971 77.0911 205.516 78.2422 205.516C78.7422 205.516 79.2005 205.607 79.6172 205.789C80.0391 205.966 80.3542 206.201 80.5625 206.492C80.7708 206.784 80.9167 207.13 81 207.531C81.0521 207.792 81.0781 208.247 81.0781 208.898V214H79.6719V208.953C79.6719 208.38 79.6172 207.953 79.5078 207.672C79.3984 207.385 79.2031 207.159 78.9219 206.992C78.6458 206.82 78.3203 206.734 77.9453 206.734C77.3464 206.734 76.8281 206.924 76.3906 207.305C75.9583 207.685 75.7422 208.406 75.7422 209.469V214H74.3359ZM87.3125 210.977L88.7188 210.789C88.8802 211.586 89.1536 212.161 89.5391 212.516C89.9297 212.865 90.4036 213.039 90.9609 213.039C91.6224 213.039 92.1797 212.81 92.6328 212.352C93.0911 211.893 93.3203 211.326 93.3203 210.648C93.3203 210.003 93.1094 209.471 92.6875 209.055C92.2656 208.633 91.7292 208.422 91.0781 208.422C90.8125 208.422 90.4818 208.474 90.0859 208.578L90.2422 207.344C90.3359 207.354 90.4115 207.359 90.4688 207.359C91.0677 207.359 91.6068 207.203 92.0859 206.891C92.5651 206.578 92.8047 206.096 92.8047 205.445C92.8047 204.93 92.6302 204.503 92.2812 204.164C91.9323 203.826 91.4818 203.656 90.9297 203.656C90.3828 203.656 89.9271 203.828 89.5625 204.172C89.1979 204.516 88.9635 205.031 88.8594 205.719L87.4531 205.469C87.625 204.526 88.0156 203.797 88.625 203.281C89.2344 202.76 89.9922 202.5 90.8984 202.5C91.5234 202.5 92.099 202.635 92.625 202.906C93.151 203.172 93.5521 203.536 93.8281 204C94.1094 204.464 94.25 204.956 94.25 205.477C94.25 205.971 94.1172 206.422 93.8516 206.828C93.5859 207.234 93.1927 207.557 92.6719 207.797C93.349 207.953 93.875 208.279 94.25 208.773C94.625 209.263 94.8125 209.878 94.8125 210.617C94.8125 211.617 94.4479 212.466 93.7188 213.164C92.9896 213.857 92.0677 214.203 90.9531 214.203C89.9479 214.203 89.112 213.904 88.4453 213.305C87.7839 212.706 87.4062 211.93 87.3125 210.977Z" fill="black"/>
</g>
<g clip-path="url(#clip5_11616_13530)">
<path d="M6.022 109.9H7.898V117.474H11.524V119H6.022V109.9ZM14.6733 119.168C14.3653 119.168 14.0713 119.117 13.7913 119.014C13.5207 118.921 13.2827 118.785 13.0773 118.608C12.872 118.421 12.7087 118.197 12.5873 117.936C12.4753 117.675 12.4193 117.381 12.4193 117.054C12.4193 116.438 12.6387 115.948 13.0773 115.584C13.516 115.22 14.1833 115.015 15.0793 114.968L16.7033 114.87V114.59C16.7033 114.142 16.568 113.834 16.2973 113.666C16.0267 113.498 15.6907 113.414 15.2893 113.414C14.972 113.414 14.6733 113.475 14.3933 113.596C14.1133 113.708 13.9033 113.848 13.7633 114.016L12.7693 113.008C13.012 112.691 13.362 112.429 13.8193 112.224C14.286 112.019 14.8553 111.916 15.5273 111.916C16.5167 111.916 17.254 112.145 17.7393 112.602C18.2247 113.059 18.4673 113.68 18.4673 114.464V119H16.8013V117.894H16.7173C16.54 118.286 16.2833 118.599 15.9473 118.832C15.6113 119.056 15.1867 119.168 14.6733 119.168ZM15.1913 117.894C15.6393 117.894 16.0033 117.768 16.2833 117.516C16.5633 117.255 16.7033 116.891 16.7033 116.424V115.962L15.2893 116.074C14.5613 116.121 14.1973 116.429 14.1973 116.998C14.1973 117.287 14.2907 117.511 14.4773 117.67C14.664 117.819 14.902 117.894 15.1913 117.894ZM24.2154 119.168C23.6741 119.168 23.2028 119.037 22.8014 118.776C22.4094 118.515 22.1294 118.155 21.9614 117.698H21.8774V119H20.1974V108.85H21.9614V113.274H22.0454C22.2041 112.873 22.4701 112.546 22.8434 112.294C23.2168 112.042 23.6741 111.916 24.2154 111.916C24.6448 111.916 25.0414 112.005 25.4054 112.182C25.7788 112.359 26.0961 112.611 26.3574 112.938C26.6281 113.255 26.8381 113.638 26.9874 114.086C27.1368 114.534 27.2114 115.029 27.2114 115.57C27.2114 116.102 27.1368 116.592 26.9874 117.04C26.8381 117.479 26.6281 117.857 26.3574 118.174C26.0961 118.482 25.7788 118.725 25.4054 118.902C25.0414 119.079 24.6448 119.168 24.2154 119.168ZM23.6694 117.628C24.1921 117.628 24.6121 117.441 24.9294 117.068C25.2468 116.695 25.4054 116.186 25.4054 115.542C25.4054 114.898 25.2468 114.389 24.9294 114.016C24.6121 113.643 24.1921 113.456 23.6694 113.456C23.1561 113.456 22.7408 113.643 22.4234 114.016C22.1154 114.389 21.9614 114.898 21.9614 115.542C21.9614 116.186 22.1154 116.695 22.4234 117.068C22.7408 117.441 23.1561 117.628 23.6694 117.628ZM31.588 119.168C31.0093 119.168 30.5053 119.075 30.076 118.888C29.6466 118.701 29.2826 118.445 28.984 118.118C28.6946 117.782 28.4753 117.395 28.326 116.956C28.186 116.517 28.116 116.046 28.116 115.542C28.116 115.029 28.186 114.553 28.326 114.114C28.466 113.666 28.676 113.283 28.956 112.966C29.236 112.639 29.586 112.383 30.006 112.196C30.426 112.009 30.916 111.916 31.476 111.916C32.036 111.916 32.526 112.005 32.946 112.182C33.366 112.359 33.7113 112.607 33.982 112.924C34.2526 113.241 34.4533 113.619 34.584 114.058C34.724 114.487 34.794 114.959 34.794 115.472C34.794 115.565 34.7846 115.673 34.766 115.794C34.7566 115.915 34.7426 116.013 34.724 116.088H29.908C29.936 116.34 30.0013 116.569 30.104 116.774C30.216 116.97 30.3513 117.138 30.51 117.278C30.678 117.418 30.86 117.525 31.056 117.6C31.2613 117.665 31.4713 117.698 31.686 117.698C32.0873 117.698 32.4233 117.628 32.694 117.488C32.9646 117.348 33.184 117.171 33.352 116.956L34.346 117.992C34.0846 118.347 33.7206 118.631 33.254 118.846C32.7873 119.061 32.232 119.168 31.588 119.168ZM31.476 113.26C31.028 113.26 30.664 113.405 30.384 113.694C30.104 113.983 29.9406 114.366 29.894 114.842H33.03C32.9833 114.366 32.82 113.983 32.54 113.694C32.2693 113.405 31.9146 113.26 31.476 113.26ZM36.1662 108.85H37.9302V119H36.1662V108.85Z" fill="#242E30"/>
</g>
<defs>
<filter id="filter0_ddd_11616_13530" x="0" y="128" width="266" height="106" filterUnits="userSpaceOnUse" color-interpolation-filters="sRGB">
<feFlood flood-opacity="0" result="BackgroundImageFix"/>
<feColorMatrix in="SourceAlpha" type="matrix" values="0 0 0 0 0 0 0 0 0 0 0 0 0 0 0 0 0 0 127 0" result="hardAlpha"/>
<feOffset/>
<feGaussianBlur stdDeviation="2"/>
<feColorMatrix type="matrix" values="0 0 0 0 0 0 0 0 0 0 0 0 0 0 0 0 0 0 0.1 0"/>
<feBlend mode="normal" in2="BackgroundImageFix" result="effect1_dropShadow_11616_13530"/>
<feColorMatrix in="SourceAlpha" type="matrix" values="0 0 0 0 0 0 0 0 0 0 0 0 0 0 0 0 0 0 127 0" result="hardAlpha"/>
<feOffset dy="1"/>
<feGaussianBlur stdDeviation="2.5"/>
<feColorMatrix type="matrix" values="0 0 0 0 0 0 0 0 0 0 0 0 0 0 0 0 0 0 0.04 0"/>
<feBlend mode="normal" in2="effect1_dropShadow_11616_13530" result="effect2_dropShadow_11616_13530"/>
<feColorMatrix in="SourceAlpha" type="matrix" values="0 0 0 0 0 0 0 0 0 0 0 0 0 0 0 0 0 0 127 0" result="hardAlpha"/>
<feOffset/>
<feGaussianBlur stdDeviation="0.5"/>
<feColorMatrix type="matrix" values="0 0 0 0 0 0 0 0 0 0 0 0 0 0 0 0 0 0 0.12 0"/>
<feBlend mode="normal" in2="effect2_dropShadow_11616_13530" result="effect3_dropShadow_11616_13530"/>
<feBlend mode="normal" in="SourceGraphic" in2="effect3_dropShadow_11616_13530" result="shape"/>
</filter>
<clipPath id="clip0_11616_13530">
<rect width="34" height="20" fill="white" transform="translate(5)"/>
</clipPath>
<clipPath id="clip1_11616_13530">
<path d="M5 36C5 29.3726 10.3726 24 17 24H249C255.627 24 261 29.3726 261 36V60C261 66.6274 255.627 72 249 72H17C10.3726 72 5 66.6274 5 60V36Z" fill="white"/>
</clipPath>
<clipPath id="clip2_11616_13530">
<rect width="256" height="48" fill="white" transform="translate(5 24)"/>
</clipPath>
<clipPath id="clip3_11616_13530">
<path d="M5 140C5 133.373 10.3726 128 17 128H249C255.627 128 261 133.373 261 140V164C261 170.627 255.627 176 249 176H17C10.3726 176 5 170.627 5 164V140Z" fill="white"/>
</clipPath>
<clipPath id="clip4_11616_13530">
<rect width="256" height="48" fill="white" transform="translate(5 128)"/>
</clipPath>
<clipPath id="clip5_11616_13530">
<rect width="34" height="20" fill="white" transform="translate(5 104)"/>
</clipPath>
</defs>
</svg>
