<svg width="252" height="28" viewBox="0 0 252 28" fill="none" xmlns="http://www.w3.org/2000/svg">
<path d="M24.7734 14.4219C24.7734 12.5208 25.2839 11.0339 26.3047 9.96094C27.3255 8.88281 28.6432 8.34375 30.2578 8.34375C31.3151 8.34375 32.2682 8.59635 33.1172 9.10156C33.9661 9.60677 34.612 10.3125 35.0547 11.2188C35.5026 12.1198 35.7266 13.1432 35.7266 14.2891C35.7266 15.4505 35.4922 16.4896 35.0234 17.4062C34.5547 18.3229 33.8906 19.0182 33.0312 19.4922C32.1719 19.9609 31.2448 20.1953 30.25 20.1953C29.1719 20.1953 28.2083 19.9349 27.3594 19.4141C26.5104 18.8932 25.8672 18.1823 25.4297 17.2812C24.9922 16.3802 24.7734 15.4271 24.7734 14.4219ZM26.3359 14.4453C26.3359 15.8255 26.7057 16.9141 27.4453 17.7109C28.1901 18.5026 29.1224 18.8984 30.2422 18.8984C31.3828 18.8984 32.3203 18.4974 33.0547 17.6953C33.7943 16.8932 34.1641 15.7552 34.1641 14.2812C34.1641 13.349 34.0052 12.5365 33.6875 11.8438C33.375 11.1458 32.9141 10.6068 32.3047 10.2266C31.7005 9.84115 31.0208 9.64844 30.2656 9.64844C29.1927 9.64844 28.2682 10.0182 27.4922 10.7578C26.7214 11.4922 26.3359 12.7214 26.3359 14.4453ZM37.5078 23.1797V11.7031H38.7891V12.7812C39.0911 12.3594 39.4323 12.0443 39.8125 11.8359C40.1927 11.6224 40.6536 11.5156 41.1953 11.5156C41.9036 11.5156 42.5286 11.6979 43.0703 12.0625C43.612 12.4271 44.0208 12.9427 44.2969 13.6094C44.5729 14.2708 44.7109 14.9974 44.7109 15.7891C44.7109 16.638 44.5573 17.4036 44.25 18.0859C43.9479 18.763 43.5052 19.2839 42.9219 19.6484C42.3438 20.0078 41.7344 20.1875 41.0938 20.1875C40.625 20.1875 40.2031 20.0885 39.8281 19.8906C39.4583 19.6927 39.1536 19.4427 38.9141 19.1406V23.1797H37.5078ZM38.7812 15.8984C38.7812 16.9661 38.9974 17.7552 39.4297 18.2656C39.862 18.776 40.3854 19.0312 41 19.0312C41.625 19.0312 42.1589 18.7682 42.6016 18.2422C43.0495 17.7109 43.2734 16.8906 43.2734 15.7812C43.2734 14.724 43.0547 13.9323 42.6172 13.4062C42.1849 12.8802 41.6667 12.6172 41.0625 12.6172C40.4635 12.6172 39.9323 12.8984 39.4688 13.4609C39.0104 14.0182 38.7812 14.8307 38.7812 15.8984ZM49.4844 18.7422L49.6875 19.9844C49.2917 20.0677 48.9375 20.1094 48.625 20.1094C48.1146 20.1094 47.7188 20.0286 47.4375 19.8672C47.1562 19.7057 46.9583 19.4948 46.8438 19.2344C46.7292 18.9688 46.6719 18.4141 46.6719 17.5703V12.7969H45.6406V11.7031H46.6719V9.64844L48.0703 8.80469V11.7031H49.4844V12.7969H48.0703V17.6484C48.0703 18.0495 48.0938 18.3073 48.1406 18.4219C48.1927 18.5365 48.2734 18.6276 48.3828 18.6953C48.4974 18.763 48.6589 18.7969 48.8672 18.7969C49.0234 18.7969 49.2292 18.7786 49.4844 18.7422ZM50.875 10.1641V8.54688H52.2812V10.1641H50.875ZM50.875 20V11.7031H52.2812V20H50.875ZM53.9062 15.8516C53.9062 14.3151 54.3333 13.1771 55.1875 12.4375C55.901 11.8229 56.7708 11.5156 57.7969 11.5156C58.9375 11.5156 59.8698 11.8906 60.5938 12.6406C61.3177 13.3854 61.6797 14.4167 61.6797 15.7344C61.6797 16.8021 61.5182 17.6432 61.1953 18.2578C60.8776 18.8672 60.4115 19.3411 59.7969 19.6797C59.1875 20.0182 58.5208 20.1875 57.7969 20.1875C56.6354 20.1875 55.6953 19.8151 54.9766 19.0703C54.263 18.3255 53.9062 17.2526 53.9062 15.8516ZM55.3516 15.8516C55.3516 16.9141 55.5833 17.7109 56.0469 18.2422C56.5104 18.7682 57.0938 19.0312 57.7969 19.0312C58.4948 19.0312 59.0755 18.7656 59.5391 18.2344C60.0026 17.7031 60.2344 16.8932 60.2344 15.8047C60.2344 14.7786 60 14.0026 59.5312 13.4766C59.0677 12.9453 58.4896 12.6797 57.7969 12.6797C57.0938 12.6797 56.5104 12.9427 56.0469 13.4688C55.5833 13.9948 55.3516 14.7891 55.3516 15.8516ZM63.3359 20V11.7031H64.6016V12.8828C65.2109 11.9714 66.0911 11.5156 67.2422 11.5156C67.7422 11.5156 68.2005 11.6068 68.6172 11.7891C69.0391 11.9661 69.3542 12.2005 69.5625 12.4922C69.7708 12.7839 69.9167 13.1302 70 13.5312C70.0521 13.7917 70.0781 14.2474 70.0781 14.8984V20H68.6719V14.9531C68.6719 14.3802 68.6172 13.9531 68.5078 13.6719C68.3984 13.3854 68.2031 13.1589 67.9219 12.9922C67.6458 12.8203 67.3203 12.7344 66.9453 12.7344C66.3464 12.7344 65.8281 12.9245 65.3906 13.3047C64.9583 13.6849 64.7422 14.4062 64.7422 15.4688V20H63.3359Z" fill="black"/>
</svg>
