<svg width="266" height="182" viewBox="0 0 266 182" fill="none" xmlns="http://www.w3.org/2000/svg">
<rect x="4" y="23" width="258" height="46" rx="13" stroke="white" stroke-width="2"/>
<rect x="2" y="21" width="262" height="49" rx="15" stroke="#094DAC" stroke-width="2"/>
<g clip-path="url(#clip0_11772_14581)">
<path d="M5 36C5 29.3726 10.3726 24 17 24H249C255.627 24 261 29.3726 261 36V60C261 66.6274 255.627 72 249 72H17C10.3726 72 5 66.6274 5 60V36Z" fill="white"/>
<g clip-path="url(#clip1_11772_14581)">
<rect width="256" height="72" transform="translate(5 24)" fill="black" fill-opacity="0.04"/>
<g opacity="0.08">
<rect width="4" height="72" transform="translate(5 24)" fill="white" fill-opacity="0.01"/>
</g>
<path d="M22.472 43.6H23.832V52.848H27.848V54H22.472V43.6ZM32.6831 54.192C32.0538 54.192 31.4991 54.0853 31.0191 53.872C30.5498 53.648 30.1551 53.3493 29.8351 52.976C29.5258 52.6027 29.2911 52.1653 29.1311 51.664C28.9818 51.1627 28.9071 50.624 28.9071 50.048C28.9071 49.472 28.9818 48.9333 29.1311 48.432C29.2911 47.9307 29.5258 47.4933 29.8351 47.12C30.1551 46.7467 30.5498 46.4533 31.0191 46.24C31.4991 46.016 32.0538 45.904 32.6831 45.904C33.3125 45.904 33.8565 46.016 34.3151 46.24C34.7845 46.4533 35.1738 46.7467 35.4831 47.12C35.7925 47.4933 36.0218 47.9307 36.1711 48.432C36.3311 48.9333 36.4111 49.472 36.4111 50.048C36.4111 50.624 36.3311 51.1627 36.1711 51.664C36.0218 52.1653 35.7925 52.6027 35.4831 52.976C35.1738 53.3493 34.7845 53.648 34.3151 53.872C33.8565 54.0853 33.3125 54.192 32.6831 54.192ZM30.2191 50.048C30.2191 50.5067 30.2671 50.928 30.3631 51.312C30.4698 51.6853 30.6245 52.0107 30.8271 52.288C31.0298 52.5547 31.2858 52.7627 31.5951 52.912C31.9045 53.0613 32.2671 53.136 32.6831 53.136C33.0885 53.136 33.4405 53.0613 33.7391 52.912C34.0485 52.7627 34.2991 52.5547 34.4911 52.288C34.6938 52.0107 34.8431 51.6853 34.9391 51.312C35.0458 50.928 35.0991 50.5067 35.0991 50.048C35.0991 49.5893 35.0458 49.1733 34.9391 48.8C34.8431 48.416 34.6938 48.0907 34.4911 47.824C34.2991 47.5467 34.0485 47.3333 33.7391 47.184C33.4405 47.0347 33.0885 46.96 32.6831 46.96C32.2671 46.96 31.9045 47.0347 31.5951 47.184C31.2858 47.3333 31.0298 47.5467 30.8271 47.824C30.6245 48.0907 30.4698 48.416 30.3631 48.8C30.2671 49.1733 30.2191 49.5893 30.2191 50.048ZM38.4694 46.096H39.6854V47.376H39.7814C39.952 46.96 40.1974 46.6133 40.5174 46.336C40.8374 46.048 41.2374 45.904 41.7174 45.904C42.1227 45.904 42.48 45.984 42.7894 46.144L42.3574 47.296C42.2187 47.2213 42.0694 47.1733 41.9094 47.152C41.76 47.12 41.6054 47.104 41.4454 47.104C40.9227 47.104 40.5067 47.3173 40.1974 47.744C39.8987 48.16 39.7494 48.6933 39.7494 49.344V54H38.4694V46.096ZM47.1355 54.192C46.5702 54.192 46.0528 54.096 45.5835 53.904C45.1248 53.712 44.7302 53.44 44.3995 53.088C44.0795 52.7253 43.8288 52.288 43.6475 51.776C43.4768 51.264 43.3915 50.688 43.3915 50.048C43.3915 49.376 43.4822 48.784 43.6635 48.272C43.8448 47.7493 44.0955 47.3173 44.4155 46.976C44.7355 46.624 45.1142 46.3573 45.5515 46.176C45.9995 45.9947 46.4902 45.904 47.0235 45.904C47.5568 45.904 48.0475 45.9893 48.4955 46.16C48.9435 46.3307 49.3275 46.5867 49.6475 46.928C49.9675 47.2587 50.2182 47.68 50.3995 48.192C50.5808 48.6933 50.6715 49.28 50.6715 49.952C50.6715 50.0373 50.6662 50.1227 50.6555 50.208C50.6555 50.2933 50.6502 50.3627 50.6395 50.416H44.6715C44.6715 50.7893 44.7355 51.1413 44.8635 51.472C45.0022 51.792 45.1835 52.0747 45.4075 52.32C45.6422 52.5547 45.9088 52.7413 46.2075 52.88C46.5168 53.0187 46.8475 53.088 47.1995 53.088C47.7755 53.088 48.2448 52.976 48.6075 52.752C48.9808 52.528 49.2902 52.256 49.5355 51.936L50.3035 52.72C49.9622 53.168 49.5355 53.5253 49.0235 53.792C48.5222 54.0587 47.8928 54.192 47.1355 54.192ZM47.0235 46.96C46.6502 46.96 46.3195 47.0293 46.0315 47.168C45.7435 47.3067 45.5035 47.488 45.3115 47.712C45.1195 47.936 44.9702 48.192 44.8635 48.48C44.7675 48.768 44.7142 49.056 44.7035 49.344H49.3275C49.3168 49.056 49.2582 48.768 49.1515 48.48C49.0555 48.192 48.9115 47.936 48.7195 47.712C48.5275 47.488 48.2875 47.3067 47.9995 47.168C47.7222 47.0293 47.3968 46.96 47.0235 46.96ZM52.735 46.096H53.951V47.344H54.047C54.239 46.928 54.5057 46.5867 54.847 46.32C55.199 46.0427 55.6363 45.904 56.159 45.904C56.7883 45.904 57.3163 46.0213 57.743 46.256C58.1803 46.48 58.5057 46.8213 58.719 47.28C58.9537 46.832 59.2683 46.4907 59.663 46.256C60.0577 46.0213 60.559 45.904 61.167 45.904C61.6043 45.904 61.999 45.9627 62.351 46.08C62.703 46.1973 63.0017 46.3787 63.247 46.624C63.503 46.8693 63.695 47.184 63.823 47.568C63.9617 47.952 64.031 48.4107 64.031 48.944V54H62.751V49.184C62.751 48.3733 62.591 47.8027 62.271 47.472C61.9617 47.1307 61.503 46.96 60.895 46.96C60.3083 46.96 59.8497 47.168 59.519 47.584C59.1883 48 59.023 48.608 59.023 49.408V54H57.743V49.184C57.743 48.3733 57.583 47.8027 57.263 47.472C56.9537 47.1307 56.495 46.96 55.887 46.96C55.311 46.96 54.8523 47.168 54.511 47.584C54.1803 48 54.015 48.608 54.015 49.408V54H52.735V46.096ZM71.9418 44C71.9418 44.224 71.8618 44.416 71.7018 44.576C71.5524 44.736 71.3498 44.816 71.0938 44.816C70.8271 44.816 70.6191 44.736 70.4698 44.576C70.3204 44.416 70.2458 44.224 70.2458 44C70.2458 43.7867 70.3204 43.6 70.4698 43.44C70.6191 43.2693 70.8271 43.184 71.0938 43.184C71.3498 43.184 71.5524 43.2693 71.7018 43.44C71.8618 43.6 71.9418 43.7867 71.9418 44ZM70.4538 46.096H71.7338V54H70.4538V46.096ZM74.4538 46.096H75.6698V47.712H75.7658C75.8618 47.4453 75.9951 47.2 76.1658 46.976C76.3471 46.752 76.5551 46.56 76.7898 46.4C77.0351 46.24 77.3018 46.1173 77.5898 46.032C77.8884 45.9467 78.1978 45.904 78.5178 45.904C79.0404 45.904 79.5151 46.0107 79.9418 46.224C80.3791 46.4267 80.7524 46.7147 81.0618 47.088C81.3711 47.4507 81.6058 47.888 81.7658 48.4C81.9364 48.912 82.0218 49.4667 82.0218 50.064C82.0218 50.6613 81.9364 51.216 81.7658 51.728C81.6058 52.2293 81.3711 52.6667 81.0618 53.04C80.7524 53.4027 80.3791 53.6853 79.9418 53.888C79.5151 54.0907 79.0404 54.192 78.5178 54.192C77.8671 54.192 77.3071 54.0373 76.8378 53.728C76.3684 53.4187 76.0324 53.024 75.8298 52.544H75.7338V56.96H74.4538V46.096ZM78.1978 53.04C78.5498 53.04 78.8751 52.9813 79.1738 52.864C79.4831 52.736 79.7498 52.5493 79.9738 52.304C80.2084 52.048 80.3898 51.7333 80.5178 51.36C80.6458 50.9867 80.7098 50.5493 80.7098 50.048C80.7098 49.5467 80.6458 49.1093 80.5178 48.736C80.3898 48.3627 80.2084 48.0533 79.9738 47.808C79.7498 47.552 79.4831 47.3653 79.1738 47.248C78.8751 47.12 78.5498 47.056 78.1978 47.056C77.8564 47.056 77.5364 47.12 77.2378 47.248C76.9391 47.3653 76.6778 47.552 76.4538 47.808C76.2298 48.0533 76.0538 48.3627 75.9258 48.736C75.7978 49.1093 75.7338 49.5467 75.7338 50.048C75.7338 50.5493 75.7978 50.9867 75.9258 51.36C76.0538 51.7333 76.2298 52.048 76.4538 52.304C76.6778 52.5493 76.9391 52.736 77.2378 52.864C77.5364 52.9813 77.8564 53.04 78.1978 53.04ZM87.8868 51.952C87.8868 51.7173 87.8334 51.5253 87.7268 51.376C87.6201 51.216 87.4708 51.0827 87.2788 50.976C87.0974 50.8693 86.8894 50.7787 86.6548 50.704C86.4201 50.6293 86.1748 50.5547 85.9188 50.48C85.6201 50.3947 85.3321 50.2933 85.0548 50.176C84.7881 50.0587 84.5481 49.9147 84.3348 49.744C84.1214 49.5627 83.9508 49.3493 83.8228 49.104C83.6948 48.8587 83.6308 48.56 83.6308 48.208C83.6308 47.8347 83.7001 47.504 83.8388 47.216C83.9774 46.928 84.1694 46.688 84.4148 46.496C84.6601 46.304 84.9481 46.16 85.2788 46.064C85.6094 45.9573 85.9668 45.904 86.3508 45.904C86.9268 45.904 87.4548 46.0107 87.9348 46.224C88.4148 46.4267 88.8094 46.7467 89.1188 47.184L88.2868 47.952C88.0521 47.6747 87.7748 47.4453 87.4548 47.264C87.1454 47.0827 86.7774 46.992 86.3508 46.992C86.1694 46.992 85.9881 47.0133 85.8068 47.056C85.6361 47.0987 85.4814 47.168 85.3428 47.264C85.2041 47.3493 85.0921 47.4613 85.0068 47.6C84.9214 47.7387 84.8788 47.904 84.8788 48.096C84.8788 48.3307 84.9321 48.528 85.0388 48.688C85.1454 48.8373 85.2894 48.9653 85.4708 49.072C85.6628 49.1787 85.8761 49.2693 86.1108 49.344C86.3454 49.4187 86.5908 49.4933 86.8468 49.568C87.1454 49.6533 87.4281 49.7547 87.6948 49.872C87.9721 49.9893 88.2174 50.1387 88.4308 50.32C88.6441 50.4907 88.8148 50.6987 88.9428 50.944C89.0708 51.1893 89.1348 51.488 89.1348 51.84C89.1348 52.256 89.0548 52.6133 88.8948 52.912C88.7454 53.2 88.5374 53.44 88.2708 53.632C88.0041 53.824 87.6948 53.9627 87.3428 54.048C86.9908 54.144 86.6174 54.192 86.2228 54.192C85.5294 54.192 84.9374 54.0747 84.4468 53.84C83.9668 53.6053 83.5881 53.3013 83.3108 52.928L84.1588 52.128C84.4041 52.416 84.6868 52.6507 85.0068 52.832C85.3374 53.0133 85.7481 53.104 86.2388 53.104C86.4628 53.104 86.6708 53.0827 86.8628 53.04C87.0654 52.9973 87.2414 52.928 87.3908 52.832C87.5401 52.736 87.6574 52.6187 87.7428 52.48C87.8388 52.3307 87.8868 52.1547 87.8868 51.952ZM94.0644 54.192C93.627 54.192 93.2324 54.1333 92.8804 54.016C92.5284 53.8987 92.2244 53.7173 91.9684 53.472C91.723 53.2267 91.531 52.912 91.3924 52.528C91.2537 52.144 91.1844 51.6853 91.1844 51.152V46.096H92.4644V50.912C92.4644 51.7227 92.619 52.2987 92.9284 52.64C93.2484 52.9707 93.7124 53.136 94.3204 53.136C94.8964 53.136 95.3497 52.928 95.6804 52.512C96.0217 52.096 96.1924 51.488 96.1924 50.688V46.096H97.4724V54H96.2564V52.752H96.1604C95.9684 53.168 95.7017 53.5147 95.3604 53.792C95.0297 54.0587 94.5977 54.192 94.0644 54.192ZM100.188 46.096H101.404V47.344H101.5C101.692 46.928 101.959 46.5867 102.3 46.32C102.652 46.0427 103.089 45.904 103.612 45.904C104.241 45.904 104.769 46.0213 105.196 46.256C105.633 46.48 105.959 46.8213 106.172 47.28C106.407 46.832 106.721 46.4907 107.116 46.256C107.511 46.0213 108.012 45.904 108.62 45.904C109.057 45.904 109.452 45.9627 109.804 46.08C110.156 46.1973 110.455 46.3787 110.7 46.624C110.956 46.8693 111.148 47.184 111.276 47.568C111.415 47.952 111.484 48.4107 111.484 48.944V54H110.204V49.184C110.204 48.3733 110.044 47.8027 109.724 47.472C109.415 47.1307 108.956 46.96 108.348 46.96C107.761 46.96 107.303 47.168 106.972 47.584C106.641 48 106.476 48.608 106.476 49.408V54H105.196V49.184C105.196 48.3733 105.036 47.8027 104.716 47.472C104.407 47.1307 103.948 46.96 103.34 46.96C102.764 46.96 102.305 47.168 101.964 47.584C101.633 48 101.468 48.608 101.468 49.408V54H100.188V46.096ZM120.755 54.192C120.222 54.192 119.742 54.0907 119.315 53.888C118.888 53.6747 118.52 53.3867 118.211 53.024C117.902 52.6507 117.662 52.208 117.491 51.696C117.331 51.184 117.251 50.6293 117.251 50.032C117.251 49.4347 117.331 48.8853 117.491 48.384C117.662 47.872 117.902 47.4347 118.211 47.072C118.52 46.6987 118.888 46.4107 119.315 46.208C119.742 46.0053 120.222 45.904 120.755 45.904C121.406 45.904 121.966 46.0587 122.435 46.368C122.904 46.6773 123.24 47.072 123.443 47.552H123.539V42.4H124.819V54H123.603V52.384H123.507C123.411 52.6613 123.272 52.912 123.091 53.136C122.92 53.3493 122.712 53.536 122.467 53.696C122.232 53.856 121.966 53.9787 121.667 54.064C121.379 54.1493 121.075 54.192 120.755 54.192ZM121.075 53.04C121.416 53.04 121.736 52.9813 122.035 52.864C122.334 52.736 122.595 52.5493 122.819 52.304C123.043 52.048 123.219 51.7333 123.347 51.36C123.475 50.9867 123.539 50.5493 123.539 50.048C123.539 49.5467 123.475 49.1093 123.347 48.736C123.219 48.3627 123.043 48.0533 122.819 47.808C122.595 47.552 122.334 47.3653 122.035 47.248C121.736 47.12 121.416 47.056 121.075 47.056C120.723 47.056 120.392 47.12 120.083 47.248C119.784 47.3653 119.518 47.552 119.283 47.808C119.059 48.0533 118.883 48.3627 118.755 48.736C118.627 49.1093 118.563 49.5467 118.563 50.048C118.563 50.5493 118.627 50.9867 118.755 51.36C118.883 51.7333 119.059 52.048 119.283 52.304C119.518 52.5493 119.784 52.736 120.083 52.864C120.392 52.9813 120.723 53.04 121.075 53.04ZM130.652 54.192C130.023 54.192 129.468 54.0853 128.988 53.872C128.519 53.648 128.124 53.3493 127.804 52.976C127.495 52.6027 127.26 52.1653 127.1 51.664C126.951 51.1627 126.876 50.624 126.876 50.048C126.876 49.472 126.951 48.9333 127.1 48.432C127.26 47.9307 127.495 47.4933 127.804 47.12C128.124 46.7467 128.519 46.4533 128.988 46.24C129.468 46.016 130.023 45.904 130.652 45.904C131.281 45.904 131.825 46.016 132.284 46.24C132.753 46.4533 133.143 46.7467 133.452 47.12C133.761 47.4933 133.991 47.9307 134.14 48.432C134.3 48.9333 134.38 49.472 134.38 50.048C134.38 50.624 134.3 51.1627 134.14 51.664C133.991 52.1653 133.761 52.6027 133.452 52.976C133.143 53.3493 132.753 53.648 132.284 53.872C131.825 54.0853 131.281 54.192 130.652 54.192ZM128.188 50.048C128.188 50.5067 128.236 50.928 128.332 51.312C128.439 51.6853 128.593 52.0107 128.796 52.288C128.999 52.5547 129.255 52.7627 129.564 52.912C129.873 53.0613 130.236 53.136 130.652 53.136C131.057 53.136 131.409 53.0613 131.708 52.912C132.017 52.7627 132.268 52.5547 132.46 52.288C132.663 52.0107 132.812 51.6853 132.908 51.312C133.015 50.928 133.068 50.5067 133.068 50.048C133.068 49.5893 133.015 49.1733 132.908 48.8C132.812 48.416 132.663 48.0907 132.46 47.824C132.268 47.5467 132.017 47.3333 131.708 47.184C131.409 47.0347 131.057 46.96 130.652 46.96C130.236 46.96 129.873 47.0347 129.564 47.184C129.255 47.3333 128.999 47.5467 128.796 47.824C128.593 48.0907 128.439 48.416 128.332 48.8C128.236 49.1733 128.188 49.5893 128.188 50.048ZM136.438 42.4H137.718V54H136.438V42.4ZM143.558 54.192C142.929 54.192 142.374 54.0853 141.894 53.872C141.425 53.648 141.03 53.3493 140.71 52.976C140.401 52.6027 140.166 52.1653 140.006 51.664C139.857 51.1627 139.782 50.624 139.782 50.048C139.782 49.472 139.857 48.9333 140.006 48.432C140.166 47.9307 140.401 47.4933 140.71 47.12C141.03 46.7467 141.425 46.4533 141.894 46.24C142.374 46.016 142.929 45.904 143.558 45.904C144.187 45.904 144.731 46.016 145.19 46.24C145.659 46.4533 146.049 46.7467 146.358 47.12C146.667 47.4933 146.897 47.9307 147.046 48.432C147.206 48.9333 147.286 49.472 147.286 50.048C147.286 50.624 147.206 51.1627 147.046 51.664C146.897 52.1653 146.667 52.6027 146.358 52.976C146.049 53.3493 145.659 53.648 145.19 53.872C144.731 54.0853 144.187 54.192 143.558 54.192ZM141.094 50.048C141.094 50.5067 141.142 50.928 141.238 51.312C141.345 51.6853 141.499 52.0107 141.702 52.288C141.905 52.5547 142.161 52.7627 142.47 52.912C142.779 53.0613 143.142 53.136 143.558 53.136C143.963 53.136 144.315 53.0613 144.614 52.912C144.923 52.7627 145.174 52.5547 145.366 52.288C145.569 52.0107 145.718 51.6853 145.814 51.312C145.921 50.928 145.974 50.5067 145.974 50.048C145.974 49.5893 145.921 49.1733 145.814 48.8C145.718 48.416 145.569 48.0907 145.366 47.824C145.174 47.5467 144.923 47.3333 144.614 47.184C144.315 47.0347 143.963 46.96 143.558 46.96C143.142 46.96 142.779 47.0347 142.47 47.184C142.161 47.3333 141.905 47.5467 141.702 47.824C141.499 48.0907 141.345 48.416 141.238 48.8C141.142 49.1733 141.094 49.5893 141.094 50.048ZM149.344 46.096H150.56V47.376H150.656C150.827 46.96 151.072 46.6133 151.392 46.336C151.712 46.048 152.112 45.904 152.592 45.904C152.998 45.904 153.355 45.984 153.664 46.144L153.232 47.296C153.094 47.2213 152.944 47.1733 152.784 47.152C152.635 47.12 152.48 47.104 152.32 47.104C151.798 47.104 151.382 47.3173 151.072 47.744C150.774 48.16 150.624 48.6933 150.624 49.344V54H149.344V46.096ZM162.965 51.952C162.965 51.7173 162.912 51.5253 162.805 51.376C162.698 51.216 162.549 51.0827 162.357 50.976C162.176 50.8693 161.968 50.7787 161.733 50.704C161.498 50.6293 161.253 50.5547 160.997 50.48C160.698 50.3947 160.41 50.2933 160.133 50.176C159.866 50.0587 159.626 49.9147 159.413 49.744C159.2 49.5627 159.029 49.3493 158.901 49.104C158.773 48.8587 158.709 48.56 158.709 48.208C158.709 47.8347 158.778 47.504 158.917 47.216C159.056 46.928 159.248 46.688 159.493 46.496C159.738 46.304 160.026 46.16 160.357 46.064C160.688 45.9573 161.045 45.904 161.429 45.904C162.005 45.904 162.533 46.0107 163.013 46.224C163.493 46.4267 163.888 46.7467 164.197 47.184L163.365 47.952C163.13 47.6747 162.853 47.4453 162.533 47.264C162.224 47.0827 161.856 46.992 161.429 46.992C161.248 46.992 161.066 47.0133 160.885 47.056C160.714 47.0987 160.56 47.168 160.421 47.264C160.282 47.3493 160.17 47.4613 160.085 47.6C160 47.7387 159.957 47.904 159.957 48.096C159.957 48.3307 160.01 48.528 160.117 48.688C160.224 48.8373 160.368 48.9653 160.549 49.072C160.741 49.1787 160.954 49.2693 161.189 49.344C161.424 49.4187 161.669 49.4933 161.925 49.568C162.224 49.6533 162.506 49.7547 162.773 49.872C163.05 49.9893 163.296 50.1387 163.509 50.32C163.722 50.4907 163.893 50.6987 164.021 50.944C164.149 51.1893 164.213 51.488 164.213 51.84C164.213 52.256 164.133 52.6133 163.973 52.912C163.824 53.2 163.616 53.44 163.349 53.632C163.082 53.824 162.773 53.9627 162.421 54.048C162.069 54.144 161.696 54.192 161.301 54.192C160.608 54.192 160.016 54.0747 159.525 53.84C159.045 53.6053 158.666 53.3013 158.389 52.928L159.237 52.128C159.482 52.416 159.765 52.6507 160.085 52.832C160.416 53.0133 160.826 53.104 161.317 53.104C161.541 53.104 161.749 53.0827 161.941 53.04C162.144 52.9973 162.32 52.928 162.469 52.832C162.618 52.736 162.736 52.6187 162.821 52.48C162.917 52.3307 162.965 52.1547 162.965 51.952ZM167.911 44C167.911 44.224 167.831 44.416 167.671 44.576C167.521 44.736 167.319 44.816 167.062 44.816C166.796 44.816 166.588 44.736 166.439 44.576C166.289 44.416 166.215 44.224 166.215 44C166.215 43.7867 166.289 43.6 166.439 43.44C166.588 43.2693 166.796 43.184 167.062 43.184C167.319 43.184 167.521 43.2693 167.671 43.44C167.831 43.6 167.911 43.7867 167.911 44ZM166.423 46.096H167.703V54H166.423V46.096ZM172.855 54.192C172.14 54.192 171.617 53.9787 171.287 53.552C170.956 53.1253 170.791 52.5387 170.791 51.792V47.136H169.383V46.096H170.791V43.952H172.055V46.096H174.343V47.136H172.055V51.68C172.055 52.192 172.151 52.5493 172.343 52.752C172.545 52.9547 172.801 53.056 173.111 53.056C173.324 53.056 173.516 53.0187 173.687 52.944C173.857 52.8587 174.017 52.7467 174.167 52.608L174.743 53.504C174.252 53.9627 173.623 54.192 172.855 54.192ZM24.104 78.192C23.7413 78.192 23.4053 78.1333 23.096 78.016C22.7973 77.8987 22.536 77.7333 22.312 77.52C22.088 77.3067 21.912 77.056 21.784 76.768C21.6667 76.4693 21.608 76.144 21.608 75.792C21.608 75.1093 21.8533 74.56 22.344 74.144C22.8347 73.728 23.5333 73.4933 24.44 73.44L26.52 73.312V72.752C26.52 72.144 26.3707 71.7067 26.072 71.44C25.784 71.1627 25.368 71.024 24.824 71.024C24.3653 71.024 23.9707 71.1093 23.64 71.28C23.3093 71.4507 23.0533 71.6373 22.872 71.84L22.104 71.072C22.3813 70.7307 22.7547 70.4533 23.224 70.24C23.704 70.016 24.248 69.904 24.856 69.904C25.4 69.904 25.8587 69.9787 26.232 70.128C26.6053 70.2667 26.904 70.4587 27.128 70.704C27.3627 70.9493 27.528 71.2373 27.624 71.568C27.7307 71.8987 27.784 72.2507 27.784 72.624V78H26.584V76.656H26.488C26.2747 77.136 25.976 77.5147 25.592 77.792C25.208 78.0587 24.712 78.192 24.104 78.192ZM24.296 77.104C24.9573 77.104 25.4907 76.912 25.896 76.528C26.312 76.1333 26.52 75.6107 26.52 74.96V74.272L24.504 74.416C23.4373 74.5013 22.904 74.9493 22.904 75.76C22.904 76.1653 23.032 76.4907 23.288 76.736C23.5547 76.9813 23.8907 77.104 24.296 77.104ZM30.36 70.096H31.576V71.344H31.672C31.864 70.928 32.1307 70.5867 32.472 70.32C32.824 70.0427 33.2613 69.904 33.784 69.904C34.4133 69.904 34.9413 70.0213 35.368 70.256C35.8053 70.48 36.1307 70.8213 36.344 71.28C36.5787 70.832 36.8933 70.4907 37.288 70.256C37.6827 70.0213 38.184 69.904 38.792 69.904C39.2293 69.904 39.624 69.9627 39.976 70.08C40.328 70.1973 40.6267 70.3787 40.872 70.624C41.128 70.8693 41.32 71.184 41.448 71.568C41.5867 71.952 41.656 72.4107 41.656 72.944V78H40.376V73.184C40.376 72.3733 40.216 71.8027 39.896 71.472C39.5867 71.1307 39.128 70.96 38.52 70.96C37.9333 70.96 37.4747 71.168 37.144 71.584C36.8133 72 36.648 72.608 36.648 73.408V78H35.368V73.184C35.368 72.3733 35.208 71.8027 34.888 71.472C34.5787 71.1307 34.12 70.96 33.512 70.96C32.936 70.96 32.4773 71.168 32.136 71.584C31.8053 72 31.64 72.608 31.64 73.408V78H30.36V70.096ZM47.323 78.192C46.7577 78.192 46.2403 78.096 45.771 77.904C45.3123 77.712 44.9177 77.44 44.587 77.088C44.267 76.7253 44.0163 76.288 43.835 75.776C43.6643 75.264 43.579 74.688 43.579 74.048C43.579 73.376 43.6697 72.784 43.851 72.272C44.0323 71.7493 44.283 71.3173 44.603 70.976C44.923 70.624 45.3017 70.3573 45.739 70.176C46.187 69.9947 46.6777 69.904 47.211 69.904C47.7443 69.904 48.235 69.9893 48.683 70.16C49.131 70.3307 49.515 70.5867 49.835 70.928C50.155 71.2587 50.4057 71.68 50.587 72.192C50.7683 72.6933 50.859 73.28 50.859 73.952C50.859 74.0373 50.8537 74.1227 50.843 74.208C50.843 74.2933 50.8377 74.3627 50.827 74.416H44.859C44.859 74.7893 44.923 75.1413 45.051 75.472C45.1897 75.792 45.371 76.0747 45.595 76.32C45.8297 76.5547 46.0963 76.7413 46.395 76.88C46.7043 77.0187 47.035 77.088 47.387 77.088C47.963 77.088 48.4323 76.976 48.795 76.752C49.1683 76.528 49.4777 76.256 49.723 75.936L50.491 76.72C50.1497 77.168 49.723 77.5253 49.211 77.792C48.7097 78.0587 48.0803 78.192 47.323 78.192ZM47.211 70.96C46.8377 70.96 46.507 71.0293 46.219 71.168C45.931 71.3067 45.691 71.488 45.499 71.712C45.307 71.936 45.1577 72.192 45.051 72.48C44.955 72.768 44.9017 73.056 44.891 73.344H49.515C49.5043 73.056 49.4457 72.768 49.339 72.48C49.243 72.192 49.099 71.936 48.907 71.712C48.715 71.488 48.475 71.3067 48.187 71.168C47.9097 71.0293 47.5843 70.96 47.211 70.96ZM55.3545 78.192C54.6398 78.192 54.1172 77.9787 53.7865 77.552C53.4558 77.1253 53.2905 76.5387 53.2905 75.792V71.136H51.8825V70.096H53.2905V67.952H54.5545V70.096H56.8425V71.136H54.5545V75.68C54.5545 76.192 54.6505 76.5493 54.8425 76.752C55.0452 76.9547 55.3012 77.056 55.6105 77.056C55.8238 77.056 56.0158 77.0187 56.1865 76.944C56.3572 76.8587 56.5172 76.7467 56.6665 76.608L57.2425 77.504C56.7518 77.9627 56.1225 78.192 55.3545 78.192ZM65.8368 78.192C65.1968 78.192 64.6421 78.0747 64.1728 77.84C63.7141 77.6053 63.3354 77.296 63.0368 76.912C62.7381 76.528 62.5194 76.0907 62.3808 75.6C62.2421 75.0987 62.1728 74.5813 62.1728 74.048C62.1728 73.5147 62.2421 73.0027 62.3808 72.512C62.5194 72.0107 62.7328 71.568 63.0208 71.184C63.3194 70.8 63.6981 70.4907 64.1568 70.256C64.6154 70.0213 65.1648 69.904 65.8048 69.904C66.4768 69.904 67.0261 70.016 67.4528 70.24C67.8794 70.464 68.2421 70.7627 68.5408 71.136L67.7408 71.888C67.4848 71.6107 67.2128 71.3973 66.9248 71.248C66.6474 71.088 66.2848 71.008 65.8368 71.008C65.1328 71.008 64.5621 71.28 64.1248 71.824C63.6981 72.3573 63.4848 73.0987 63.4848 74.048C63.4848 74.5173 63.5434 74.9387 63.6608 75.312C63.7781 75.6853 63.9434 76.0053 64.1568 76.272C64.3701 76.5387 64.6208 76.7413 64.9088 76.88C65.1968 77.0187 65.5168 77.088 65.8688 77.088C66.2954 77.088 66.6634 77.0133 66.9728 76.864C67.2821 76.704 67.5701 76.4747 67.8368 76.176L68.6048 76.944C68.2954 77.3173 67.9168 77.6213 67.4688 77.856C67.0208 78.08 66.4768 78.192 65.8368 78.192ZM73.4331 78.192C72.8038 78.192 72.2491 78.0853 71.7691 77.872C71.2998 77.648 70.9051 77.3493 70.5851 76.976C70.2758 76.6027 70.0411 76.1653 69.8811 75.664C69.7318 75.1627 69.6571 74.624 69.6571 74.048C69.6571 73.472 69.7318 72.9333 69.8811 72.432C70.0411 71.9307 70.2758 71.4933 70.5851 71.12C70.9051 70.7467 71.2998 70.4533 71.7691 70.24C72.2491 70.016 72.8038 69.904 73.4331 69.904C74.0625 69.904 74.6065 70.016 75.0651 70.24C75.5345 70.4533 75.9238 70.7467 76.2331 71.12C76.5425 71.4933 76.7718 71.9307 76.9211 72.432C77.0811 72.9333 77.1611 73.472 77.1611 74.048C77.1611 74.624 77.0811 75.1627 76.9211 75.664C76.7718 76.1653 76.5425 76.6027 76.2331 76.976C75.9238 77.3493 75.5345 77.648 75.0651 77.872C74.6065 78.0853 74.0625 78.192 73.4331 78.192ZM70.9691 74.048C70.9691 74.5067 71.0171 74.928 71.1131 75.312C71.2198 75.6853 71.3745 76.0107 71.5771 76.288C71.7798 76.5547 72.0358 76.7627 72.3451 76.912C72.6545 77.0613 73.0171 77.136 73.4331 77.136C73.8385 77.136 74.1905 77.0613 74.4891 76.912C74.7985 76.7627 75.0491 76.5547 75.2411 76.288C75.4438 76.0107 75.5931 75.6853 75.6891 75.312C75.7958 74.928 75.8491 74.5067 75.8491 74.048C75.8491 73.5893 75.7958 73.1733 75.6891 72.8C75.5931 72.416 75.4438 72.0907 75.2411 71.824C75.0491 71.5467 74.7985 71.3333 74.4891 71.184C74.1905 71.0347 73.8385 70.96 73.4331 70.96C73.0171 70.96 72.6545 71.0347 72.3451 71.184C72.0358 71.3333 71.7798 71.5467 71.5771 71.824C71.3745 72.0907 71.2198 72.416 71.1131 72.8C71.0171 73.1733 70.9691 73.5893 70.9691 74.048ZM79.2194 70.096H80.4354V71.344H80.5314C80.7234 70.928 80.9954 70.5867 81.3474 70.32C81.6994 70.0427 82.1474 69.904 82.6914 69.904C83.598 69.904 84.3127 70.144 84.8354 70.624C85.3687 71.104 85.6354 71.8773 85.6354 72.944V78H84.3554V73.184C84.3554 72.3733 84.19 71.8027 83.8594 71.472C83.5394 71.1307 83.0647 70.96 82.4354 70.96C81.8274 70.96 81.3527 71.168 81.0114 71.584C80.67 72 80.4994 72.608 80.4994 73.408V78H79.2194V70.096ZM92.0118 75.952C92.0118 75.7173 91.9584 75.5253 91.8518 75.376C91.7451 75.216 91.5958 75.0827 91.4038 74.976C91.2224 74.8693 91.0144 74.7787 90.7798 74.704C90.5451 74.6293 90.2998 74.5547 90.0438 74.48C89.7451 74.3947 89.4571 74.2933 89.1798 74.176C88.9131 74.0587 88.6731 73.9147 88.4598 73.744C88.2464 73.5627 88.0758 73.3493 87.9478 73.104C87.8198 72.8587 87.7558 72.56 87.7558 72.208C87.7558 71.8347 87.8251 71.504 87.9638 71.216C88.1024 70.928 88.2944 70.688 88.5398 70.496C88.7851 70.304 89.0731 70.16 89.4038 70.064C89.7344 69.9573 90.0918 69.904 90.4758 69.904C91.0518 69.904 91.5798 70.0107 92.0598 70.224C92.5398 70.4267 92.9344 70.7467 93.2438 71.184L92.4118 71.952C92.1771 71.6747 91.8998 71.4453 91.5798 71.264C91.2704 71.0827 90.9024 70.992 90.4758 70.992C90.2944 70.992 90.1131 71.0133 89.9318 71.056C89.7611 71.0987 89.6064 71.168 89.4678 71.264C89.3291 71.3493 89.2171 71.4613 89.1318 71.6C89.0464 71.7387 89.0038 71.904 89.0038 72.096C89.0038 72.3307 89.0571 72.528 89.1638 72.688C89.2704 72.8373 89.4144 72.9653 89.5958 73.072C89.7878 73.1787 90.0011 73.2693 90.2358 73.344C90.4704 73.4187 90.7158 73.4933 90.9718 73.568C91.2704 73.6533 91.5531 73.7547 91.8198 73.872C92.0971 73.9893 92.3424 74.1387 92.5558 74.32C92.7691 74.4907 92.9398 74.6987 93.0678 74.944C93.1958 75.1893 93.2598 75.488 93.2598 75.84C93.2598 76.256 93.1798 76.6133 93.0198 76.912C92.8704 77.2 92.6624 77.44 92.3958 77.632C92.1291 77.824 91.8198 77.9627 91.4678 78.048C91.1158 78.144 90.7424 78.192 90.3478 78.192C89.6544 78.192 89.0624 78.0747 88.5718 77.84C88.0918 77.6053 87.7131 77.3013 87.4358 76.928L88.2838 76.128C88.5291 76.416 88.8118 76.6507 89.1318 76.832C89.4624 77.0133 89.8731 77.104 90.3638 77.104C90.5878 77.104 90.7958 77.0827 90.9878 77.04C91.1904 76.9973 91.3664 76.928 91.5158 76.832C91.6651 76.736 91.7824 76.6187 91.8678 76.48C91.9638 76.3307 92.0118 76.1547 92.0118 75.952ZM98.5574 78.192C97.992 78.192 97.4747 78.096 97.0054 77.904C96.5467 77.712 96.152 77.44 95.8214 77.088C95.5014 76.7253 95.2507 76.288 95.0694 75.776C94.8987 75.264 94.8134 74.688 94.8134 74.048C94.8134 73.376 94.904 72.784 95.0854 72.272C95.2667 71.7493 95.5174 71.3173 95.8374 70.976C96.1574 70.624 96.536 70.3573 96.9734 70.176C97.4214 69.9947 97.912 69.904 98.4454 69.904C98.9787 69.904 99.4694 69.9893 99.9174 70.16C100.365 70.3307 100.749 70.5867 101.069 70.928C101.389 71.2587 101.64 71.68 101.821 72.192C102.003 72.6933 102.093 73.28 102.093 73.952C102.093 74.0373 102.088 74.1227 102.077 74.208C102.077 74.2933 102.072 74.3627 102.061 74.416H96.0934C96.0934 74.7893 96.1574 75.1413 96.2854 75.472C96.424 75.792 96.6054 76.0747 96.8294 76.32C97.064 76.5547 97.3307 76.7413 97.6294 76.88C97.9387 77.0187 98.2694 77.088 98.6214 77.088C99.1974 77.088 99.6667 76.976 100.029 76.752C100.403 76.528 100.712 76.256 100.957 75.936L101.725 76.72C101.384 77.168 100.957 77.5253 100.445 77.792C99.944 78.0587 99.3147 78.192 98.5574 78.192ZM98.4454 70.96C98.072 70.96 97.7414 71.0293 97.4534 71.168C97.1654 71.3067 96.9254 71.488 96.7334 71.712C96.5414 71.936 96.392 72.192 96.2854 72.48C96.1894 72.768 96.136 73.056 96.1254 73.344H100.749C100.739 73.056 100.68 72.768 100.573 72.48C100.477 72.192 100.333 71.936 100.141 71.712C99.9494 71.488 99.7094 71.3067 99.4214 71.168C99.144 71.0293 98.8187 70.96 98.4454 70.96ZM107.165 78.192C106.525 78.192 105.97 78.0747 105.501 77.84C105.042 77.6053 104.664 77.296 104.365 76.912C104.066 76.528 103.848 76.0907 103.709 75.6C103.57 75.0987 103.501 74.5813 103.501 74.048C103.501 73.5147 103.57 73.0027 103.709 72.512C103.848 72.0107 104.061 71.568 104.349 71.184C104.648 70.8 105.026 70.4907 105.485 70.256C105.944 70.0213 106.493 69.904 107.133 69.904C107.805 69.904 108.354 70.016 108.781 70.24C109.208 70.464 109.57 70.7627 109.869 71.136L109.069 71.888C108.813 71.6107 108.541 71.3973 108.253 71.248C107.976 71.088 107.613 71.008 107.165 71.008C106.461 71.008 105.89 71.28 105.453 71.824C105.026 72.3573 104.813 73.0987 104.813 74.048C104.813 74.5173 104.872 74.9387 104.989 75.312C105.106 75.6853 105.272 76.0053 105.485 76.272C105.698 76.5387 105.949 76.7413 106.237 76.88C106.525 77.0187 106.845 77.088 107.197 77.088C107.624 77.088 107.992 77.0133 108.301 76.864C108.61 76.704 108.898 76.4747 109.165 76.176L109.933 76.944C109.624 77.3173 109.245 77.6213 108.797 77.856C108.349 78.08 107.805 78.192 107.165 78.192ZM114.23 78.192C113.515 78.192 112.992 77.9787 112.662 77.552C112.331 77.1253 112.166 76.5387 112.166 75.792V71.136H110.758V70.096H112.166V67.952H113.43V70.096H115.718V71.136H113.43V75.68C113.43 76.192 113.526 76.5493 113.718 76.752C113.92 76.9547 114.176 77.056 114.486 77.056C114.699 77.056 114.891 77.0187 115.062 76.944C115.232 76.8587 115.392 76.7467 115.542 76.608L116.118 77.504C115.627 77.9627 114.998 78.192 114.23 78.192ZM120.823 78.192C120.258 78.192 119.74 78.096 119.271 77.904C118.812 77.712 118.418 77.44 118.087 77.088C117.767 76.7253 117.516 76.288 117.335 75.776C117.164 75.264 117.079 74.688 117.079 74.048C117.079 73.376 117.17 72.784 117.351 72.272C117.532 71.7493 117.783 71.3173 118.103 70.976C118.423 70.624 118.802 70.3573 119.239 70.176C119.687 69.9947 120.178 69.904 120.711 69.904C121.244 69.904 121.735 69.9893 122.183 70.16C122.631 70.3307 123.015 70.5867 123.335 70.928C123.655 71.2587 123.906 71.68 124.087 72.192C124.268 72.6933 124.359 73.28 124.359 73.952C124.359 74.0373 124.354 74.1227 124.343 74.208C124.343 74.2933 124.338 74.3627 124.327 74.416H118.359C118.359 74.7893 118.423 75.1413 118.551 75.472C118.69 75.792 118.871 76.0747 119.095 76.32C119.33 76.5547 119.596 76.7413 119.895 76.88C120.204 77.0187 120.535 77.088 120.887 77.088C121.463 77.088 121.932 76.976 122.295 76.752C122.668 76.528 122.978 76.256 123.223 75.936L123.991 76.72C123.65 77.168 123.223 77.5253 122.711 77.792C122.21 78.0587 121.58 78.192 120.823 78.192ZM120.711 70.96C120.338 70.96 120.007 71.0293 119.719 71.168C119.431 71.3067 119.191 71.488 118.999 71.712C118.807 71.936 118.658 72.192 118.551 72.48C118.455 72.768 118.402 73.056 118.391 73.344H123.015C123.004 73.056 122.946 72.768 122.839 72.48C122.743 72.192 122.599 71.936 122.407 71.712C122.215 71.488 121.975 71.3067 121.687 71.168C121.41 71.0293 121.084 70.96 120.711 70.96ZM128.855 78.192C128.14 78.192 127.617 77.9787 127.287 77.552C126.956 77.1253 126.791 76.5387 126.791 75.792V71.136H125.383V70.096H126.791V67.952H128.055V70.096H130.343V71.136H128.055V75.68C128.055 76.192 128.151 76.5493 128.343 76.752C128.545 76.9547 128.801 77.056 129.111 77.056C129.324 77.056 129.516 77.0187 129.687 76.944C129.857 76.8587 130.017 76.7467 130.167 76.608L130.743 77.504C130.252 77.9627 129.623 78.192 128.855 78.192ZM135.205 78.192C134.768 78.192 134.373 78.1333 134.021 78.016C133.669 77.8987 133.365 77.7173 133.109 77.472C132.864 77.2267 132.672 76.912 132.533 76.528C132.394 76.144 132.325 75.6853 132.325 75.152V70.096H133.605V74.912C133.605 75.7227 133.76 76.2987 134.069 76.64C134.389 76.9707 134.853 77.136 135.461 77.136C136.037 77.136 136.49 76.928 136.821 76.512C137.162 76.096 137.333 75.488 137.333 74.688V70.096H138.613V78H137.397V76.752H137.301C137.109 77.168 136.842 77.5147 136.501 77.792C136.17 78.0587 135.738 78.192 135.205 78.192ZM141.329 70.096H142.545V71.376H142.641C142.811 70.96 143.057 70.6133 143.377 70.336C143.697 70.048 144.097 69.904 144.577 69.904C144.982 69.904 145.339 69.984 145.649 70.144L145.217 71.296C145.078 71.2213 144.929 71.1733 144.769 71.152C144.619 71.12 144.465 71.104 144.305 71.104C143.782 71.104 143.366 71.3173 143.057 71.744C142.758 72.16 142.609 72.6933 142.609 73.344V78H141.329V70.096Z" fill="#242E30"/>
<path d="M228.525 56.3047L235 62.9984L241.497 56.25L242.7 57.3437L235.995 64.3C235.723 64.5692 235.356 64.7201 234.973 64.7201C234.59 64.7201 234.222 64.5692 233.95 64.3L227.344 57.4312L228.525 56.3047Z" fill="#242E30"/>
</g>
</g>
<path d="M5.5 36C5.5 29.6487 10.6487 24.5 17 24.5H249C255.351 24.5 260.5 29.6487 260.5 36V60C260.5 66.3513 255.351 71.5 249 71.5H17C10.6487 71.5 5.5 66.3513 5.5 60V36Z" stroke="#82817F"/>
<g filter="url(#filter0_ddd_11772_14581)">
<rect x="5" y="28" width="256" height="148" rx="6" fill="#E9E9E9"/>
<rect x="5.5" y="28.5" width="255" height="147" rx="5.5" stroke="#B7B7B7"/>
<path d="M35.7188 50.3203L37.1484 50.1953C37.2161 50.7682 37.3724 51.2396 37.6172 51.6094C37.8672 51.974 38.2526 52.2708 38.7734 52.5C39.2943 52.724 39.8802 52.8359 40.5312 52.8359C41.1094 52.8359 41.6198 52.75 42.0625 52.5781C42.5052 52.4062 42.8333 52.1719 43.0469 51.875C43.2656 51.5729 43.375 51.2448 43.375 50.8906C43.375 50.5312 43.2708 50.2188 43.0625 49.9531C42.8542 49.6823 42.5104 49.4557 42.0312 49.2734C41.724 49.1536 41.0443 48.9688 39.9922 48.7188C38.9401 48.4635 38.2031 48.224 37.7812 48C37.2344 47.7135 36.8255 47.3594 36.5547 46.9375C36.2891 46.5104 36.1562 46.0339 36.1562 45.5078C36.1562 44.9297 36.3203 44.3906 36.6484 43.8906C36.9766 43.3854 37.4557 43.0026 38.0859 42.7422C38.7161 42.4818 39.4167 42.3516 40.1875 42.3516C41.0365 42.3516 41.7839 42.4896 42.4297 42.7656C43.0807 43.0365 43.5807 43.4375 43.9297 43.9688C44.2786 44.5 44.4661 45.1016 44.4922 45.7734L43.0391 45.8828C42.9609 45.1589 42.6953 44.612 42.2422 44.2422C41.7943 43.8724 41.1302 43.6875 40.25 43.6875C39.3333 43.6875 38.6641 43.8568 38.2422 44.1953C37.8255 44.5286 37.6172 44.9323 37.6172 45.4062C37.6172 45.8177 37.7656 46.1562 38.0625 46.4219C38.3542 46.6875 39.1146 46.9609 40.3438 47.2422C41.5781 47.5182 42.4245 47.7604 42.8828 47.9688C43.5495 48.276 44.0417 48.6667 44.3594 49.1406C44.6771 49.6094 44.8359 50.151 44.8359 50.7656C44.8359 51.375 44.6615 51.9505 44.3125 52.4922C43.9635 53.0286 43.4609 53.4479 42.8047 53.75C42.1536 54.0469 41.4193 54.1953 40.6016 54.1953C39.5651 54.1953 38.6953 54.0443 37.9922 53.7422C37.2943 53.4401 36.7448 52.987 36.3438 52.3828C35.9479 51.7734 35.7396 51.0859 35.7188 50.3203ZM52.4062 51.3281L53.8594 51.5078C53.6302 52.3568 53.2057 53.0156 52.5859 53.4844C51.9661 53.9531 51.1745 54.1875 50.2109 54.1875C48.9974 54.1875 48.0339 53.8151 47.3203 53.0703C46.612 52.3203 46.2578 51.2708 46.2578 49.9219C46.2578 48.526 46.6172 47.4427 47.3359 46.6719C48.0547 45.901 48.987 45.5156 50.1328 45.5156C51.2422 45.5156 52.1484 45.8932 52.8516 46.6484C53.5547 47.4036 53.9062 48.4661 53.9062 49.8359C53.9062 49.9193 53.9036 50.0443 53.8984 50.2109H47.7109C47.763 51.1224 48.0208 51.8203 48.4844 52.3047C48.9479 52.7891 49.526 53.0312 50.2188 53.0312C50.7344 53.0312 51.1745 52.8958 51.5391 52.625C51.9036 52.3542 52.1927 51.9219 52.4062 51.3281ZM47.7891 49.0547H52.4219C52.3594 48.3568 52.1823 47.8333 51.8906 47.4844C51.4427 46.9427 50.862 46.6719 50.1484 46.6719C49.5026 46.6719 48.9583 46.888 48.5156 47.3203C48.0781 47.7526 47.8359 48.3307 47.7891 49.0547ZM55.6016 54V42.5469H57.0078V54H55.6016ZM64.875 51.3281L66.3281 51.5078C66.099 52.3568 65.6745 53.0156 65.0547 53.4844C64.4349 53.9531 63.6432 54.1875 62.6797 54.1875C61.4661 54.1875 60.5026 53.8151 59.7891 53.0703C59.0807 52.3203 58.7266 51.2708 58.7266 49.9219C58.7266 48.526 59.0859 47.4427 59.8047 46.6719C60.5234 45.901 61.4557 45.5156 62.6016 45.5156C63.7109 45.5156 64.6172 45.8932 65.3203 46.6484C66.0234 47.4036 66.375 48.4661 66.375 49.8359C66.375 49.9193 66.3724 50.0443 66.3672 50.2109H60.1797C60.2318 51.1224 60.4896 51.8203 60.9531 52.3047C61.4167 52.7891 61.9948 53.0312 62.6875 53.0312C63.2031 53.0312 63.6432 52.8958 64.0078 52.625C64.3724 52.3542 64.6615 51.9219 64.875 51.3281ZM60.2578 49.0547H64.8906C64.8281 48.3568 64.651 47.8333 64.3594 47.4844C63.9115 46.9427 63.3307 46.6719 62.6172 46.6719C61.9714 46.6719 61.4271 46.888 60.9844 47.3203C60.5469 47.7526 60.3047 48.3307 60.2578 49.0547ZM73.5156 50.9609L74.8984 51.1406C74.7474 52.0938 74.3594 52.8411 73.7344 53.3828C73.1146 53.9193 72.3516 54.1875 71.4453 54.1875C70.3099 54.1875 69.3958 53.8177 68.7031 53.0781C68.0156 52.3333 67.6719 51.2682 67.6719 49.8828C67.6719 48.987 67.8203 48.2031 68.1172 47.5312C68.4141 46.8594 68.8646 46.3568 69.4688 46.0234C70.0781 45.6849 70.7396 45.5156 71.4531 45.5156C72.3542 45.5156 73.0911 45.7448 73.6641 46.2031C74.237 46.6562 74.6042 47.3021 74.7656 48.1406L73.3984 48.3516C73.2682 47.7943 73.0365 47.375 72.7031 47.0938C72.375 46.8125 71.9766 46.6719 71.5078 46.6719C70.7995 46.6719 70.224 46.9271 69.7812 47.4375C69.3385 47.9427 69.1172 48.7448 69.1172 49.8438C69.1172 50.9583 69.3307 51.7682 69.7578 52.2734C70.1849 52.7786 70.7422 53.0312 71.4297 53.0312C71.9818 53.0312 72.4427 52.862 72.8125 52.5234C73.1823 52.1849 73.4167 51.6641 73.5156 50.9609ZM79.1719 52.7422L79.375 53.9844C78.9792 54.0677 78.625 54.1094 78.3125 54.1094C77.8021 54.1094 77.4062 54.0286 77.125 53.8672C76.8438 53.7057 76.6458 53.4948 76.5312 53.2344C76.4167 52.9688 76.3594 52.4141 76.3594 51.5703V46.7969H75.3281V45.7031H76.3594V43.6484L77.7578 42.8047V45.7031H79.1719V46.7969H77.7578V51.6484C77.7578 52.0495 77.7812 52.3073 77.8281 52.4219C77.8802 52.5365 77.9609 52.6276 78.0703 52.6953C78.1849 52.763 78.3464 52.7969 78.5547 52.7969C78.7109 52.7969 78.9167 52.7786 79.1719 52.7422ZM80.9531 54V52.3984H82.5547V54H80.9531ZM85.4062 54V52.3984H87.0078V54H85.4062ZM89.8594 54V52.3984H91.4609V54H89.8594Z" fill="black"/>
<path d="M22.865 92.4889C22.7007 92.4871 22.5385 92.4521 22.3881 92.386C22.2377 92.3198 22.1023 92.2238 21.99 92.1039L18.875 88.6564L19.855 87.7814L22.8825 91.1501L30.1362 83.3276L31.0988 84.2026L23.7488 92.0776C23.6365 92.1976 23.501 92.2935 23.3507 92.3597C23.2003 92.4259 23.038 92.4609 22.8738 92.4626L22.865 92.4889Z" fill="#242E30"/>
<path d="M35.7734 76.4219C35.7734 74.5208 36.2839 73.0339 37.3047 71.9609C38.3255 70.8828 39.6432 70.3438 41.2578 70.3438C42.3151 70.3438 43.2682 70.5964 44.1172 71.1016C44.9661 71.6068 45.612 72.3125 46.0547 73.2188C46.5026 74.1198 46.7266 75.1432 46.7266 76.2891C46.7266 77.4505 46.4922 78.4896 46.0234 79.4062C45.5547 80.3229 44.8906 81.0182 44.0312 81.4922C43.1719 81.9609 42.2448 82.1953 41.25 82.1953C40.1719 82.1953 39.2083 81.9349 38.3594 81.4141C37.5104 80.8932 36.8672 80.1823 36.4297 79.2812C35.9922 78.3802 35.7734 77.4271 35.7734 76.4219ZM37.3359 76.4453C37.3359 77.8255 37.7057 78.9141 38.4453 79.7109C39.1901 80.5026 40.1224 80.8984 41.2422 80.8984C42.3828 80.8984 43.3203 80.4974 44.0547 79.6953C44.7943 78.8932 45.1641 77.7552 45.1641 76.2812C45.1641 75.349 45.0052 74.5365 44.6875 73.8438C44.375 73.1458 43.9141 72.6068 43.3047 72.2266C42.7005 71.8411 42.0208 71.6484 41.2656 71.6484C40.1927 71.6484 39.2682 72.0182 38.4922 72.7578C37.7214 73.4922 37.3359 74.7214 37.3359 76.4453ZM48.5078 85.1797V73.7031H49.7891V74.7812C50.0911 74.3594 50.4323 74.0443 50.8125 73.8359C51.1927 73.6224 51.6536 73.5156 52.1953 73.5156C52.9036 73.5156 53.5286 73.6979 54.0703 74.0625C54.612 74.4271 55.0208 74.9427 55.2969 75.6094C55.5729 76.2708 55.7109 76.9974 55.7109 77.7891C55.7109 78.638 55.5573 79.4036 55.25 80.0859C54.9479 80.763 54.5052 81.2839 53.9219 81.6484C53.3438 82.0078 52.7344 82.1875 52.0938 82.1875C51.625 82.1875 51.2031 82.0885 50.8281 81.8906C50.4583 81.6927 50.1536 81.4427 49.9141 81.1406V85.1797H48.5078ZM49.7812 77.8984C49.7812 78.9661 49.9974 79.7552 50.4297 80.2656C50.862 80.776 51.3854 81.0312 52 81.0312C52.625 81.0312 53.1589 80.7682 53.6016 80.2422C54.0495 79.7109 54.2734 78.8906 54.2734 77.7812C54.2734 76.724 54.0547 75.9323 53.6172 75.4062C53.1849 74.8802 52.6667 74.6172 52.0625 74.6172C51.4635 74.6172 50.9323 74.8984 50.4688 75.4609C50.0104 76.0182 49.7812 76.8307 49.7812 77.8984ZM60.4844 80.7422L60.6875 81.9844C60.2917 82.0677 59.9375 82.1094 59.625 82.1094C59.1146 82.1094 58.7188 82.0286 58.4375 81.8672C58.1562 81.7057 57.9583 81.4948 57.8438 81.2344C57.7292 80.9688 57.6719 80.4141 57.6719 79.5703V74.7969H56.6406V73.7031H57.6719V71.6484L59.0703 70.8047V73.7031H60.4844V74.7969H59.0703V79.6484C59.0703 80.0495 59.0938 80.3073 59.1406 80.4219C59.1927 80.5365 59.2734 80.6276 59.3828 80.6953C59.4974 80.763 59.6589 80.7969 59.8672 80.7969C60.0234 80.7969 60.2292 80.7786 60.4844 80.7422ZM61.875 72.1641V70.5469H63.2812V72.1641H61.875ZM61.875 82V73.7031H63.2812V82H61.875ZM64.9062 77.8516C64.9062 76.3151 65.3333 75.1771 66.1875 74.4375C66.901 73.8229 67.7708 73.5156 68.7969 73.5156C69.9375 73.5156 70.8698 73.8906 71.5938 74.6406C72.3177 75.3854 72.6797 76.4167 72.6797 77.7344C72.6797 78.8021 72.5182 79.6432 72.1953 80.2578C71.8776 80.8672 71.4115 81.3411 70.7969 81.6797C70.1875 82.0182 69.5208 82.1875 68.7969 82.1875C67.6354 82.1875 66.6953 81.8151 65.9766 81.0703C65.263 80.3255 64.9062 79.2526 64.9062 77.8516ZM66.3516 77.8516C66.3516 78.9141 66.5833 79.7109 67.0469 80.2422C67.5104 80.7682 68.0938 81.0312 68.7969 81.0312C69.4948 81.0312 70.0755 80.7656 70.5391 80.2344C71.0026 79.7031 71.2344 78.8932 71.2344 77.8047C71.2344 76.7786 71 76.0026 70.5312 75.4766C70.0677 74.9453 69.4896 74.6797 68.7969 74.6797C68.0938 74.6797 67.5104 74.9427 67.0469 75.4688C66.5833 75.9948 66.3516 76.7891 66.3516 77.8516ZM74.3359 82V73.7031H75.6016V74.8828C76.2109 73.9714 77.0911 73.5156 78.2422 73.5156C78.7422 73.5156 79.2005 73.6068 79.6172 73.7891C80.0391 73.9661 80.3542 74.2005 80.5625 74.4922C80.7708 74.7839 80.9167 75.1302 81 75.5312C81.0521 75.7917 81.0781 76.2474 81.0781 76.8984V82H79.6719V76.9531C79.6719 76.3802 79.6172 75.9531 79.5078 75.6719C79.3984 75.3854 79.2031 75.1589 78.9219 74.9922C78.6458 74.8203 78.3203 74.7344 77.9453 74.7344C77.3464 74.7344 76.8281 74.9245 76.3906 75.3047C75.9583 75.6849 75.7422 76.4062 75.7422 77.4688V82H74.3359ZM83.6328 75.3047V73.7031H85.2344V75.3047H83.6328ZM83.6328 82V80.3984H85.2344V82H83.6328ZM87.8125 82V70.5469H89.3281V80.6484H94.9688V82H87.8125ZM96.0781 77.8516C96.0781 76.3151 96.5052 75.1771 97.3594 74.4375C98.0729 73.8229 98.9427 73.5156 99.9688 73.5156C101.109 73.5156 102.042 73.8906 102.766 74.6406C103.49 75.3854 103.852 76.4167 103.852 77.7344C103.852 78.8021 103.69 79.6432 103.367 80.2578C103.049 80.8672 102.583 81.3411 101.969 81.6797C101.359 82.0182 100.693 82.1875 99.9688 82.1875C98.8073 82.1875 97.8672 81.8151 97.1484 81.0703C96.4349 80.3255 96.0781 79.2526 96.0781 77.8516ZM97.5234 77.8516C97.5234 78.9141 97.7552 79.7109 98.2188 80.2422C98.6823 80.7682 99.2656 81.0312 99.9688 81.0312C100.667 81.0312 101.247 80.7656 101.711 80.2344C102.174 79.7031 102.406 78.8932 102.406 77.8047C102.406 76.7786 102.172 76.0026 101.703 75.4766C101.24 74.9453 100.661 74.6797 99.9688 74.6797C99.2656 74.6797 98.6823 74.9427 98.2188 75.4688C97.7552 75.9948 97.5234 76.7891 97.5234 77.8516ZM105.492 82V73.7031H106.758V74.9609C107.081 74.3724 107.378 73.9844 107.648 73.7969C107.924 73.6094 108.227 73.5156 108.555 73.5156C109.029 73.5156 109.51 73.6667 110 73.9688L109.516 75.2734C109.172 75.0703 108.828 74.9688 108.484 74.9688C108.177 74.9688 107.901 75.0625 107.656 75.25C107.411 75.4323 107.237 75.6875 107.133 76.0156C106.977 76.5156 106.898 77.0625 106.898 77.6562V82H105.492ZM116.516 79.3281L117.969 79.5078C117.74 80.3568 117.315 81.0156 116.695 81.4844C116.076 81.9531 115.284 82.1875 114.32 82.1875C113.107 82.1875 112.143 81.8151 111.43 81.0703C110.721 80.3203 110.367 79.2708 110.367 77.9219C110.367 76.526 110.727 75.4427 111.445 74.6719C112.164 73.901 113.096 73.5156 114.242 73.5156C115.352 73.5156 116.258 73.8932 116.961 74.6484C117.664 75.4036 118.016 76.4661 118.016 77.8359C118.016 77.9193 118.013 78.0443 118.008 78.2109H111.82C111.872 79.1224 112.13 79.8203 112.594 80.3047C113.057 80.7891 113.635 81.0312 114.328 81.0312C114.844 81.0312 115.284 80.8958 115.648 80.625C116.013 80.3542 116.302 79.9219 116.516 79.3281ZM111.898 77.0547H116.531C116.469 76.3568 116.292 75.8333 116 75.4844C115.552 74.9427 114.971 74.6719 114.258 74.6719C113.612 74.6719 113.068 74.888 112.625 75.3203C112.188 75.7526 111.945 76.3307 111.898 77.0547ZM119.742 82V73.7031H121V74.8672C121.26 74.4609 121.607 74.1354 122.039 73.8906C122.471 73.6406 122.964 73.5156 123.516 73.5156C124.13 73.5156 124.633 73.6432 125.023 73.8984C125.419 74.1536 125.698 74.5104 125.859 74.9688C126.516 74 127.37 73.5156 128.422 73.5156C129.245 73.5156 129.878 73.7448 130.32 74.2031C130.763 74.6562 130.984 75.3568 130.984 76.3047V82H129.586V76.7734C129.586 76.2109 129.539 75.8073 129.445 75.5625C129.357 75.3125 129.193 75.112 128.953 74.9609C128.714 74.8099 128.432 74.7344 128.109 74.7344C127.526 74.7344 127.042 74.9297 126.656 75.3203C126.271 75.7057 126.078 76.3255 126.078 77.1797V82H124.672V76.6094C124.672 75.9844 124.557 75.5156 124.328 75.2031C124.099 74.8906 123.724 74.7344 123.203 74.7344C122.807 74.7344 122.44 74.8385 122.102 75.0469C121.768 75.2552 121.526 75.5599 121.375 75.9609C121.224 76.362 121.148 76.9401 121.148 77.6953V82H119.742ZM137.531 72.1641V70.5469H138.938V72.1641H137.531ZM137.531 82V73.7031H138.938V82H137.531ZM141.086 85.1797V73.7031H142.367V74.7812C142.669 74.3594 143.01 74.0443 143.391 73.8359C143.771 73.6224 144.232 73.5156 144.773 73.5156C145.482 73.5156 146.107 73.6979 146.648 74.0625C147.19 74.4271 147.599 74.9427 147.875 75.6094C148.151 76.2708 148.289 76.9974 148.289 77.7891C148.289 78.638 148.135 79.4036 147.828 80.0859C147.526 80.763 147.083 81.2839 146.5 81.6484C145.922 82.0078 145.312 82.1875 144.672 82.1875C144.203 82.1875 143.781 82.0885 143.406 81.8906C143.036 81.6927 142.732 81.4427 142.492 81.1406V85.1797H141.086ZM142.359 77.8984C142.359 78.9661 142.576 79.7552 143.008 80.2656C143.44 80.776 143.964 81.0312 144.578 81.0312C145.203 81.0312 145.737 80.7682 146.18 80.2422C146.628 79.7109 146.852 78.8906 146.852 77.7812C146.852 76.724 146.633 75.9323 146.195 75.4062C145.763 74.8802 145.245 74.6172 144.641 74.6172C144.042 74.6172 143.51 74.8984 143.047 75.4609C142.589 76.0182 142.359 76.8307 142.359 77.8984ZM149.43 79.5234L150.82 79.3047C150.898 79.862 151.115 80.2891 151.469 80.5859C151.828 80.8828 152.328 81.0312 152.969 81.0312C153.615 81.0312 154.094 80.901 154.406 80.6406C154.719 80.375 154.875 80.0651 154.875 79.7109C154.875 79.3932 154.737 79.1432 154.461 78.9609C154.268 78.8359 153.789 78.6771 153.023 78.4844C151.992 78.224 151.276 78 150.875 77.8125C150.479 77.6198 150.177 77.3568 149.969 77.0234C149.766 76.6849 149.664 76.3125 149.664 75.9062C149.664 75.5365 149.747 75.1953 149.914 74.8828C150.086 74.5651 150.318 74.3021 150.609 74.0938C150.828 73.9323 151.125 73.7969 151.5 73.6875C151.88 73.5729 152.286 73.5156 152.719 73.5156C153.37 73.5156 153.94 73.6094 154.43 73.7969C154.924 73.9844 155.289 74.2396 155.523 74.5625C155.758 74.8802 155.919 75.3073 156.008 75.8438L154.633 76.0312C154.57 75.6042 154.388 75.2708 154.086 75.0312C153.789 74.7917 153.367 74.6719 152.82 74.6719C152.174 74.6719 151.714 74.7786 151.438 74.9922C151.161 75.2057 151.023 75.4557 151.023 75.7422C151.023 75.9245 151.081 76.0885 151.195 76.2344C151.31 76.3854 151.49 76.5104 151.734 76.6094C151.875 76.6615 152.289 76.7812 152.977 76.9688C153.971 77.2344 154.664 77.4531 155.055 77.625C155.451 77.7917 155.76 78.0365 155.984 78.3594C156.208 78.6823 156.32 79.0833 156.32 79.5625C156.32 80.0312 156.182 80.474 155.906 80.8906C155.635 81.3021 155.242 81.6224 154.727 81.8516C154.211 82.0755 153.628 82.1875 152.977 82.1875C151.898 82.1875 151.076 81.9635 150.508 81.5156C149.945 81.0677 149.586 80.4036 149.43 79.5234ZM163.43 82V80.7812C162.784 81.7188 161.906 82.1875 160.797 82.1875C160.307 82.1875 159.849 82.0938 159.422 81.9062C159 81.7188 158.685 81.4844 158.477 81.2031C158.273 80.9167 158.13 80.5677 158.047 80.1562C157.99 79.8802 157.961 79.4427 157.961 78.8438V73.7031H159.367V78.3047C159.367 79.0391 159.396 79.5339 159.453 79.7891C159.542 80.1589 159.729 80.4505 160.016 80.6641C160.302 80.8724 160.656 80.9766 161.078 80.9766C161.5 80.9766 161.896 80.8698 162.266 80.6562C162.635 80.4375 162.896 80.1432 163.047 79.7734C163.203 79.3984 163.281 78.8568 163.281 78.1484V73.7031H164.688V82H163.43ZM166.898 82V73.7031H168.156V74.8672C168.417 74.4609 168.763 74.1354 169.195 73.8906C169.628 73.6406 170.12 73.5156 170.672 73.5156C171.286 73.5156 171.789 73.6432 172.18 73.8984C172.576 74.1536 172.854 74.5104 173.016 74.9688C173.672 74 174.526 73.5156 175.578 73.5156C176.401 73.5156 177.034 73.7448 177.477 74.2031C177.919 74.6562 178.141 75.3568 178.141 76.3047V82H176.742V76.7734C176.742 76.2109 176.695 75.8073 176.602 75.5625C176.513 75.3125 176.349 75.112 176.109 74.9609C175.87 74.8099 175.589 74.7344 175.266 74.7344C174.682 74.7344 174.198 74.9297 173.812 75.3203C173.427 75.7057 173.234 76.3255 173.234 77.1797V82H171.828V76.6094C171.828 75.9844 171.714 75.5156 171.484 75.2031C171.255 74.8906 170.88 74.7344 170.359 74.7344C169.964 74.7344 169.596 74.8385 169.258 75.0469C168.924 75.2552 168.682 75.5599 168.531 75.9609C168.38 76.362 168.305 76.9401 168.305 77.6953V82H166.898ZM190.062 82V80.9531C189.536 81.776 188.763 82.1875 187.742 82.1875C187.081 82.1875 186.471 82.0052 185.914 81.6406C185.362 81.276 184.932 80.7682 184.625 80.1172C184.323 79.4609 184.172 78.7083 184.172 77.8594C184.172 77.0312 184.31 76.2812 184.586 75.6094C184.862 74.9323 185.276 74.4141 185.828 74.0547C186.38 73.6953 186.997 73.5156 187.68 73.5156C188.18 73.5156 188.625 73.6224 189.016 73.8359C189.406 74.0443 189.724 74.3177 189.969 74.6562V70.5469H191.367V82H190.062ZM185.617 77.8594C185.617 78.9219 185.841 79.7161 186.289 80.2422C186.737 80.7682 187.266 81.0312 187.875 81.0312C188.49 81.0312 189.01 80.7812 189.438 80.2812C189.87 79.776 190.086 79.0078 190.086 77.9766C190.086 76.8411 189.867 76.0078 189.43 75.4766C188.992 74.9453 188.453 74.6797 187.812 74.6797C187.188 74.6797 186.664 74.9349 186.242 75.4453C185.826 75.9557 185.617 76.7604 185.617 77.8594ZM193.062 77.8516C193.062 76.3151 193.49 75.1771 194.344 74.4375C195.057 73.8229 195.927 73.5156 196.953 73.5156C198.094 73.5156 199.026 73.8906 199.75 74.6406C200.474 75.3854 200.836 76.4167 200.836 77.7344C200.836 78.8021 200.674 79.6432 200.352 80.2578C200.034 80.8672 199.568 81.3411 198.953 81.6797C198.344 82.0182 197.677 82.1875 196.953 82.1875C195.792 82.1875 194.852 81.8151 194.133 81.0703C193.419 80.3255 193.062 79.2526 193.062 77.8516ZM194.508 77.8516C194.508 78.9141 194.74 79.7109 195.203 80.2422C195.667 80.7682 196.25 81.0312 196.953 81.0312C197.651 81.0312 198.232 80.7656 198.695 80.2344C199.159 79.7031 199.391 78.8932 199.391 77.8047C199.391 76.7786 199.156 76.0026 198.688 75.4766C198.224 74.9453 197.646 74.6797 196.953 74.6797C196.25 74.6797 195.667 74.9427 195.203 75.4688C194.74 75.9948 194.508 76.7891 194.508 77.8516ZM202.461 82V70.5469H203.867V82H202.461ZM205.531 77.8516C205.531 76.3151 205.958 75.1771 206.812 74.4375C207.526 73.8229 208.396 73.5156 209.422 73.5156C210.562 73.5156 211.495 73.8906 212.219 74.6406C212.943 75.3854 213.305 76.4167 213.305 77.7344C213.305 78.8021 213.143 79.6432 212.82 80.2578C212.503 80.8672 212.036 81.3411 211.422 81.6797C210.812 82.0182 210.146 82.1875 209.422 82.1875C208.26 82.1875 207.32 81.8151 206.602 81.0703C205.888 80.3255 205.531 79.2526 205.531 77.8516ZM206.977 77.8516C206.977 78.9141 207.208 79.7109 207.672 80.2422C208.135 80.7682 208.719 81.0312 209.422 81.0312C210.12 81.0312 210.701 80.7656 211.164 80.2344C211.628 79.7031 211.859 78.8932 211.859 77.8047C211.859 76.7786 211.625 76.0026 211.156 75.4766C210.693 74.9453 210.115 74.6797 209.422 74.6797C208.719 74.6797 208.135 74.9427 207.672 75.4688C207.208 75.9948 206.977 76.7891 206.977 77.8516ZM214.945 82V73.7031H216.211V74.9609C216.534 74.3724 216.831 73.9844 217.102 73.7969C217.378 73.6094 217.68 73.5156 218.008 73.5156C218.482 73.5156 218.964 73.6667 219.453 73.9688L218.969 75.2734C218.625 75.0703 218.281 74.9688 217.938 74.9688C217.63 74.9688 217.354 75.0625 217.109 75.25C216.865 75.4323 216.69 75.6875 216.586 76.0156C216.43 76.5156 216.352 77.0625 216.352 77.6562V82H214.945ZM35.4922 103.523L36.8828 103.305C36.9609 103.862 37.1771 104.289 37.5312 104.586C37.8906 104.883 38.3906 105.031 39.0312 105.031C39.6771 105.031 40.1562 104.901 40.4688 104.641C40.7812 104.375 40.9375 104.065 40.9375 103.711C40.9375 103.393 40.7995 103.143 40.5234 102.961C40.3307 102.836 39.8516 102.677 39.0859 102.484C38.0547 102.224 37.3385 102 36.9375 101.812C36.5417 101.62 36.2396 101.357 36.0312 101.023C35.8281 100.685 35.7266 100.312 35.7266 99.9062C35.7266 99.5365 35.8099 99.1953 35.9766 98.8828C36.1484 98.5651 36.3802 98.3021 36.6719 98.0938C36.8906 97.9323 37.1875 97.7969 37.5625 97.6875C37.9427 97.5729 38.349 97.5156 38.7812 97.5156C39.4323 97.5156 40.0026 97.6094 40.4922 97.7969C40.987 97.9844 41.3516 98.2396 41.5859 98.5625C41.8203 98.8802 41.9818 99.3073 42.0703 99.8438L40.6953 100.031C40.6328 99.6042 40.4505 99.2708 40.1484 99.0312C39.8516 98.7917 39.4297 98.6719 38.8828 98.6719C38.237 98.6719 37.776 98.7786 37.5 98.9922C37.224 99.2057 37.0859 99.4557 37.0859 99.7422C37.0859 99.9245 37.1432 100.089 37.2578 100.234C37.3724 100.385 37.5521 100.51 37.7969 100.609C37.9375 100.661 38.3516 100.781 39.0391 100.969C40.0339 101.234 40.7266 101.453 41.1172 101.625C41.513 101.792 41.8229 102.036 42.0469 102.359C42.2708 102.682 42.3828 103.083 42.3828 103.562C42.3828 104.031 42.2448 104.474 41.9688 104.891C41.6979 105.302 41.3047 105.622 40.7891 105.852C40.2734 106.076 39.6901 106.188 39.0391 106.188C37.9609 106.188 37.138 105.964 36.5703 105.516C36.0078 105.068 35.6484 104.404 35.4922 103.523ZM44.0625 96.1641V94.5469H45.4688V96.1641H44.0625ZM44.0625 106V97.7031H45.4688V106H44.0625ZM50.6875 104.742L50.8906 105.984C50.4948 106.068 50.1406 106.109 49.8281 106.109C49.3177 106.109 48.9219 106.029 48.6406 105.867C48.3594 105.706 48.1615 105.495 48.0469 105.234C47.9323 104.969 47.875 104.414 47.875 103.57V98.7969H46.8438V97.7031H47.875V95.6484L49.2734 94.8047V97.7031H50.6875V98.7969H49.2734V103.648C49.2734 104.049 49.2969 104.307 49.3438 104.422C49.3958 104.536 49.4766 104.628 49.5859 104.695C49.7005 104.763 49.862 104.797 50.0703 104.797C50.2266 104.797 50.4323 104.779 50.6875 104.742ZM61.9375 104.977C61.4167 105.419 60.9141 105.732 60.4297 105.914C59.9505 106.096 59.4349 106.188 58.8828 106.188C57.9714 106.188 57.2708 105.966 56.7812 105.523C56.2917 105.076 56.0469 104.505 56.0469 103.812C56.0469 103.406 56.138 103.036 56.3203 102.703C56.5078 102.365 56.75 102.094 57.0469 101.891C57.349 101.688 57.6875 101.534 58.0625 101.43C58.3385 101.357 58.7552 101.286 59.3125 101.219C60.4479 101.083 61.2839 100.922 61.8203 100.734C61.8255 100.542 61.8281 100.419 61.8281 100.367C61.8281 99.7943 61.6953 99.3906 61.4297 99.1562C61.0703 98.8385 60.5365 98.6797 59.8281 98.6797C59.1667 98.6797 58.6771 98.7969 58.3594 99.0312C58.0469 99.2604 57.8151 99.6693 57.6641 100.258L56.2891 100.07C56.4141 99.4818 56.6198 99.0078 56.9062 98.6484C57.1927 98.2839 57.6068 98.0052 58.1484 97.8125C58.6901 97.6146 59.3177 97.5156 60.0312 97.5156C60.7396 97.5156 61.3151 97.599 61.7578 97.7656C62.2005 97.9323 62.526 98.1432 62.7344 98.3984C62.9427 98.6484 63.0885 98.9661 63.1719 99.3516C63.2188 99.5911 63.2422 100.023 63.2422 100.648V102.523C63.2422 103.831 63.2708 104.659 63.3281 105.008C63.3906 105.352 63.5104 105.682 63.6875 106H62.2188C62.0729 105.708 61.9792 105.367 61.9375 104.977ZM61.8203 101.836C61.3099 102.044 60.5443 102.221 59.5234 102.367C58.9453 102.451 58.5365 102.544 58.2969 102.648C58.0573 102.753 57.8724 102.906 57.7422 103.109C57.612 103.307 57.5469 103.529 57.5469 103.773C57.5469 104.148 57.6875 104.461 57.9688 104.711C58.2552 104.961 58.6719 105.086 59.2188 105.086C59.7604 105.086 60.2422 104.969 60.6641 104.734C61.0859 104.495 61.3958 104.169 61.5938 103.758C61.7448 103.44 61.8203 102.971 61.8203 102.352V101.836ZM65.4297 106V97.7031H66.6875V98.8672C66.9479 98.4609 67.2943 98.1354 67.7266 97.8906C68.1589 97.6406 68.651 97.5156 69.2031 97.5156C69.8177 97.5156 70.3203 97.6432 70.7109 97.8984C71.1068 98.1536 71.3854 98.5104 71.5469 98.9688C72.2031 98 73.0573 97.5156 74.1094 97.5156C74.9323 97.5156 75.5651 97.7448 76.0078 98.2031C76.4505 98.6562 76.6719 99.3568 76.6719 100.305V106H75.2734V100.773C75.2734 100.211 75.2266 99.8073 75.1328 99.5625C75.0443 99.3125 74.8802 99.112 74.6406 98.9609C74.401 98.8099 74.1198 98.7344 73.7969 98.7344C73.2135 98.7344 72.7292 98.9297 72.3438 99.3203C71.9583 99.7057 71.7656 100.326 71.7656 101.18V106H70.3594V100.609C70.3594 99.9844 70.2448 99.5156 70.0156 99.2031C69.7865 98.8906 69.4115 98.7344 68.8906 98.7344C68.4948 98.7344 68.1276 98.8385 67.7891 99.0469C67.4557 99.2552 67.2135 99.5599 67.0625 99.9609C66.9115 100.362 66.8359 100.94 66.8359 101.695V106H65.4297ZM84.4375 103.328L85.8906 103.508C85.6615 104.357 85.237 105.016 84.6172 105.484C83.9974 105.953 83.2057 106.188 82.2422 106.188C81.0286 106.188 80.0651 105.815 79.3516 105.07C78.6432 104.32 78.2891 103.271 78.2891 101.922C78.2891 100.526 78.6484 99.4427 79.3672 98.6719C80.0859 97.901 81.0182 97.5156 82.1641 97.5156C83.2734 97.5156 84.1797 97.8932 84.8828 98.6484C85.5859 99.4036 85.9375 100.466 85.9375 101.836C85.9375 101.919 85.9349 102.044 85.9297 102.211H79.7422C79.7943 103.122 80.0521 103.82 80.5156 104.305C80.9792 104.789 81.5573 105.031 82.25 105.031C82.7656 105.031 83.2057 104.896 83.5703 104.625C83.9349 104.354 84.224 103.922 84.4375 103.328ZM79.8203 101.055H84.4531C84.3906 100.357 84.2135 99.8333 83.9219 99.4844C83.474 98.9427 82.8932 98.6719 82.1797 98.6719C81.5339 98.6719 80.9896 98.888 80.5469 99.3203C80.1094 99.7526 79.8672 100.331 79.8203 101.055ZM90.7344 104.742L90.9375 105.984C90.5417 106.068 90.1875 106.109 89.875 106.109C89.3646 106.109 88.9688 106.029 88.6875 105.867C88.4062 105.706 88.2083 105.495 88.0938 105.234C87.9792 104.969 87.9219 104.414 87.9219 103.57V98.7969H86.8906V97.7031H87.9219V95.6484L89.3203 94.8047V97.7031H90.7344V98.7969H89.3203V103.648C89.3203 104.049 89.3438 104.307 89.3906 104.422C89.4427 104.536 89.5234 104.628 89.6328 104.695C89.7474 104.763 89.9089 104.797 90.1172 104.797C90.2734 104.797 90.4792 104.779 90.7344 104.742ZM101.984 102.961L103.367 103.141C103.216 104.094 102.828 104.841 102.203 105.383C101.583 105.919 100.82 106.188 99.9141 106.188C98.7786 106.188 97.8646 105.818 97.1719 105.078C96.4844 104.333 96.1406 103.268 96.1406 101.883C96.1406 100.987 96.2891 100.203 96.5859 99.5312C96.8828 98.8594 97.3333 98.3568 97.9375 98.0234C98.5469 97.6849 99.2083 97.5156 99.9219 97.5156C100.823 97.5156 101.56 97.7448 102.133 98.2031C102.706 98.6562 103.073 99.3021 103.234 100.141L101.867 100.352C101.737 99.7943 101.505 99.375 101.172 99.0938C100.844 98.8125 100.445 98.6719 99.9766 98.6719C99.2682 98.6719 98.6927 98.9271 98.25 99.4375C97.8073 99.9427 97.5859 100.745 97.5859 101.844C97.5859 102.958 97.7995 103.768 98.2266 104.273C98.6536 104.779 99.2109 105.031 99.8984 105.031C100.451 105.031 100.911 104.862 101.281 104.523C101.651 104.185 101.885 103.664 101.984 102.961ZM104.047 101.852C104.047 100.315 104.474 99.1771 105.328 98.4375C106.042 97.8229 106.911 97.5156 107.938 97.5156C109.078 97.5156 110.01 97.8906 110.734 98.6406C111.458 99.3854 111.82 100.417 111.82 101.734C111.82 102.802 111.659 103.643 111.336 104.258C111.018 104.867 110.552 105.341 109.938 105.68C109.328 106.018 108.661 106.188 107.938 106.188C106.776 106.188 105.836 105.815 105.117 105.07C104.404 104.326 104.047 103.253 104.047 101.852ZM105.492 101.852C105.492 102.914 105.724 103.711 106.188 104.242C106.651 104.768 107.234 105.031 107.938 105.031C108.635 105.031 109.216 104.766 109.68 104.234C110.143 103.703 110.375 102.893 110.375 101.805C110.375 100.779 110.141 100.003 109.672 99.4766C109.208 98.9453 108.63 98.6797 107.938 98.6797C107.234 98.6797 106.651 98.9427 106.188 99.4688C105.724 99.9948 105.492 100.789 105.492 101.852ZM113.477 106V97.7031H114.742V98.8828C115.352 97.9714 116.232 97.5156 117.383 97.5156C117.883 97.5156 118.341 97.6068 118.758 97.7891C119.18 97.9661 119.495 98.2005 119.703 98.4922C119.911 98.7839 120.057 99.1302 120.141 99.5312C120.193 99.7917 120.219 100.247 120.219 100.898V106H118.812V100.953C118.812 100.38 118.758 99.9531 118.648 99.6719C118.539 99.3854 118.344 99.1589 118.062 98.9922C117.786 98.8203 117.461 98.7344 117.086 98.7344C116.487 98.7344 115.969 98.9245 115.531 99.3047C115.099 99.6849 114.883 100.406 114.883 101.469V106H113.477ZM121.82 103.523L123.211 103.305C123.289 103.862 123.505 104.289 123.859 104.586C124.219 104.883 124.719 105.031 125.359 105.031C126.005 105.031 126.484 104.901 126.797 104.641C127.109 104.375 127.266 104.065 127.266 103.711C127.266 103.393 127.128 103.143 126.852 102.961C126.659 102.836 126.18 102.677 125.414 102.484C124.383 102.224 123.667 102 123.266 101.812C122.87 101.62 122.568 101.357 122.359 101.023C122.156 100.685 122.055 100.312 122.055 99.9062C122.055 99.5365 122.138 99.1953 122.305 98.8828C122.477 98.5651 122.708 98.3021 123 98.0938C123.219 97.9323 123.516 97.7969 123.891 97.6875C124.271 97.5729 124.677 97.5156 125.109 97.5156C125.76 97.5156 126.331 97.6094 126.82 97.7969C127.315 97.9844 127.68 98.2396 127.914 98.5625C128.148 98.8802 128.31 99.3073 128.398 99.8438L127.023 100.031C126.961 99.6042 126.779 99.2708 126.477 99.0312C126.18 98.7917 125.758 98.6719 125.211 98.6719C124.565 98.6719 124.104 98.7786 123.828 98.9922C123.552 99.2057 123.414 99.4557 123.414 99.7422C123.414 99.9245 123.471 100.089 123.586 100.234C123.701 100.385 123.88 100.51 124.125 100.609C124.266 100.661 124.68 100.781 125.367 100.969C126.362 101.234 127.055 101.453 127.445 101.625C127.841 101.792 128.151 102.036 128.375 102.359C128.599 102.682 128.711 103.083 128.711 103.562C128.711 104.031 128.573 104.474 128.297 104.891C128.026 105.302 127.633 105.622 127.117 105.852C126.602 106.076 126.018 106.188 125.367 106.188C124.289 106.188 123.466 105.964 122.898 105.516C122.336 105.068 121.977 104.404 121.82 103.523ZM136.062 103.328L137.516 103.508C137.286 104.357 136.862 105.016 136.242 105.484C135.622 105.953 134.831 106.188 133.867 106.188C132.654 106.188 131.69 105.815 130.977 105.07C130.268 104.32 129.914 103.271 129.914 101.922C129.914 100.526 130.273 99.4427 130.992 98.6719C131.711 97.901 132.643 97.5156 133.789 97.5156C134.898 97.5156 135.805 97.8932 136.508 98.6484C137.211 99.4036 137.562 100.466 137.562 101.836C137.562 101.919 137.56 102.044 137.555 102.211H131.367C131.419 103.122 131.677 103.82 132.141 104.305C132.604 104.789 133.182 105.031 133.875 105.031C134.391 105.031 134.831 104.896 135.195 104.625C135.56 104.354 135.849 103.922 136.062 103.328ZM131.445 101.055H136.078C136.016 100.357 135.839 99.8333 135.547 99.4844C135.099 98.9427 134.518 98.6719 133.805 98.6719C133.159 98.6719 132.615 98.888 132.172 99.3203C131.734 99.7526 131.492 100.331 131.445 101.055ZM144.703 102.961L146.086 103.141C145.935 104.094 145.547 104.841 144.922 105.383C144.302 105.919 143.539 106.188 142.633 106.188C141.497 106.188 140.583 105.818 139.891 105.078C139.203 104.333 138.859 103.268 138.859 101.883C138.859 100.987 139.008 100.203 139.305 99.5312C139.602 98.8594 140.052 98.3568 140.656 98.0234C141.266 97.6849 141.927 97.5156 142.641 97.5156C143.542 97.5156 144.279 97.7448 144.852 98.2031C145.424 98.6562 145.792 99.3021 145.953 100.141L144.586 100.352C144.456 99.7943 144.224 99.375 143.891 99.0938C143.562 98.8125 143.164 98.6719 142.695 98.6719C141.987 98.6719 141.411 98.9271 140.969 99.4375C140.526 99.9427 140.305 100.745 140.305 101.844C140.305 102.958 140.518 103.768 140.945 104.273C141.372 104.779 141.93 105.031 142.617 105.031C143.169 105.031 143.63 104.862 144 104.523C144.37 104.185 144.604 103.664 144.703 102.961ZM150.359 104.742L150.562 105.984C150.167 106.068 149.812 106.109 149.5 106.109C148.99 106.109 148.594 106.029 148.312 105.867C148.031 105.706 147.833 105.495 147.719 105.234C147.604 104.969 147.547 104.414 147.547 103.57V98.7969H146.516V97.7031H147.547V95.6484L148.945 94.8047V97.7031H150.359V98.7969H148.945V103.648C148.945 104.049 148.969 104.307 149.016 104.422C149.068 104.536 149.148 104.628 149.258 104.695C149.372 104.763 149.534 104.797 149.742 104.797C149.898 104.797 150.104 104.779 150.359 104.742ZM157.422 103.328L158.875 103.508C158.646 104.357 158.221 105.016 157.602 105.484C156.982 105.953 156.19 106.188 155.227 106.188C154.013 106.188 153.049 105.815 152.336 105.07C151.628 104.32 151.273 103.271 151.273 101.922C151.273 100.526 151.633 99.4427 152.352 98.6719C153.07 97.901 154.003 97.5156 155.148 97.5156C156.258 97.5156 157.164 97.8932 157.867 98.6484C158.57 99.4036 158.922 100.466 158.922 101.836C158.922 101.919 158.919 102.044 158.914 102.211H152.727C152.779 103.122 153.036 103.82 153.5 104.305C153.964 104.789 154.542 105.031 155.234 105.031C155.75 105.031 156.19 104.896 156.555 104.625C156.919 104.354 157.208 103.922 157.422 103.328ZM152.805 101.055H157.438C157.375 100.357 157.198 99.8333 156.906 99.4844C156.458 98.9427 155.878 98.6719 155.164 98.6719C154.518 98.6719 153.974 98.888 153.531 99.3203C153.094 99.7526 152.852 100.331 152.805 101.055ZM163.719 104.742L163.922 105.984C163.526 106.068 163.172 106.109 162.859 106.109C162.349 106.109 161.953 106.029 161.672 105.867C161.391 105.706 161.193 105.495 161.078 105.234C160.964 104.969 160.906 104.414 160.906 103.57V98.7969H159.875V97.7031H160.906V95.6484L162.305 94.8047V97.7031H163.719V98.7969H162.305V103.648C162.305 104.049 162.328 104.307 162.375 104.422C162.427 104.536 162.508 104.628 162.617 104.695C162.732 104.763 162.893 104.797 163.102 104.797C163.258 104.797 163.464 104.779 163.719 104.742ZM170.539 106V104.781C169.893 105.719 169.016 106.188 167.906 106.188C167.417 106.188 166.958 106.094 166.531 105.906C166.109 105.719 165.794 105.484 165.586 105.203C165.383 104.917 165.24 104.568 165.156 104.156C165.099 103.88 165.07 103.443 165.07 102.844V97.7031H166.477V102.305C166.477 103.039 166.505 103.534 166.562 103.789C166.651 104.159 166.839 104.451 167.125 104.664C167.411 104.872 167.766 104.977 168.188 104.977C168.609 104.977 169.005 104.87 169.375 104.656C169.745 104.438 170.005 104.143 170.156 103.773C170.312 103.398 170.391 102.857 170.391 102.148V97.7031H171.797V106H170.539ZM173.992 106V97.7031H175.258V98.9609C175.581 98.3724 175.878 97.9844 176.148 97.7969C176.424 97.6094 176.727 97.5156 177.055 97.5156C177.529 97.5156 178.01 97.6667 178.5 97.9688L178.016 99.2734C177.672 99.0703 177.328 98.9688 176.984 98.9688C176.677 98.9688 176.401 99.0625 176.156 99.25C175.911 99.4323 175.737 99.6875 175.633 100.016C175.477 100.516 175.398 101.062 175.398 101.656V106H173.992Z" fill="black"/>
<path d="M35.7734 128.422C35.7734 126.521 36.2839 125.034 37.3047 123.961C38.3255 122.883 39.6432 122.344 41.2578 122.344C42.3151 122.344 43.2682 122.596 44.1172 123.102C44.9661 123.607 45.612 124.312 46.0547 125.219C46.5026 126.12 46.7266 127.143 46.7266 128.289C46.7266 129.451 46.4922 130.49 46.0234 131.406C45.5547 132.323 44.8906 133.018 44.0312 133.492C43.1719 133.961 42.2448 134.195 41.25 134.195C40.1719 134.195 39.2083 133.935 38.3594 133.414C37.5104 132.893 36.8672 132.182 36.4297 131.281C35.9922 130.38 35.7734 129.427 35.7734 128.422ZM37.3359 128.445C37.3359 129.826 37.7057 130.914 38.4453 131.711C39.1901 132.503 40.1224 132.898 41.2422 132.898C42.3828 132.898 43.3203 132.497 44.0547 131.695C44.7943 130.893 45.1641 129.755 45.1641 128.281C45.1641 127.349 45.0052 126.536 44.6875 125.844C44.375 125.146 43.9141 124.607 43.3047 124.227C42.7005 123.841 42.0208 123.648 41.2656 123.648C40.1927 123.648 39.2682 124.018 38.4922 124.758C37.7214 125.492 37.3359 126.721 37.3359 128.445ZM48.5078 137.18V125.703H49.7891V126.781C50.0911 126.359 50.4323 126.044 50.8125 125.836C51.1927 125.622 51.6536 125.516 52.1953 125.516C52.9036 125.516 53.5286 125.698 54.0703 126.062C54.612 126.427 55.0208 126.943 55.2969 127.609C55.5729 128.271 55.7109 128.997 55.7109 129.789C55.7109 130.638 55.5573 131.404 55.25 132.086C54.9479 132.763 54.5052 133.284 53.9219 133.648C53.3438 134.008 52.7344 134.188 52.0938 134.188C51.625 134.188 51.2031 134.089 50.8281 133.891C50.4583 133.693 50.1536 133.443 49.9141 133.141V137.18H48.5078ZM49.7812 129.898C49.7812 130.966 49.9974 131.755 50.4297 132.266C50.862 132.776 51.3854 133.031 52 133.031C52.625 133.031 53.1589 132.768 53.6016 132.242C54.0495 131.711 54.2734 130.891 54.2734 129.781C54.2734 128.724 54.0547 127.932 53.6172 127.406C53.1849 126.88 52.6667 126.617 52.0625 126.617C51.4635 126.617 50.9323 126.898 50.4688 127.461C50.0104 128.018 49.7812 128.831 49.7812 129.898ZM60.4844 132.742L60.6875 133.984C60.2917 134.068 59.9375 134.109 59.625 134.109C59.1146 134.109 58.7188 134.029 58.4375 133.867C58.1562 133.706 57.9583 133.495 57.8438 133.234C57.7292 132.969 57.6719 132.414 57.6719 131.57V126.797H56.6406V125.703H57.6719V123.648L59.0703 122.805V125.703H60.4844V126.797H59.0703V131.648C59.0703 132.049 59.0938 132.307 59.1406 132.422C59.1927 132.536 59.2734 132.628 59.3828 132.695C59.4974 132.763 59.6589 132.797 59.8672 132.797C60.0234 132.797 60.2292 132.779 60.4844 132.742ZM61.875 124.164V122.547H63.2812V124.164H61.875ZM61.875 134V125.703H63.2812V134H61.875ZM64.9062 129.852C64.9062 128.315 65.3333 127.177 66.1875 126.438C66.901 125.823 67.7708 125.516 68.7969 125.516C69.9375 125.516 70.8698 125.891 71.5938 126.641C72.3177 127.385 72.6797 128.417 72.6797 129.734C72.6797 130.802 72.5182 131.643 72.1953 132.258C71.8776 132.867 71.4115 133.341 70.7969 133.68C70.1875 134.018 69.5208 134.188 68.7969 134.188C67.6354 134.188 66.6953 133.815 65.9766 133.07C65.263 132.326 64.9062 131.253 64.9062 129.852ZM66.3516 129.852C66.3516 130.914 66.5833 131.711 67.0469 132.242C67.5104 132.768 68.0938 133.031 68.7969 133.031C69.4948 133.031 70.0755 132.766 70.5391 132.234C71.0026 131.703 71.2344 130.893 71.2344 129.805C71.2344 128.779 71 128.003 70.5312 127.477C70.0677 126.945 69.4896 126.68 68.7969 126.68C68.0938 126.68 67.5104 126.943 67.0469 127.469C66.5833 127.995 66.3516 128.789 66.3516 129.852ZM74.3359 134V125.703H75.6016V126.883C76.2109 125.971 77.0911 125.516 78.2422 125.516C78.7422 125.516 79.2005 125.607 79.6172 125.789C80.0391 125.966 80.3542 126.201 80.5625 126.492C80.7708 126.784 80.9167 127.13 81 127.531C81.0521 127.792 81.0781 128.247 81.0781 128.898V134H79.6719V128.953C79.6719 128.38 79.6172 127.953 79.5078 127.672C79.3984 127.385 79.2031 127.159 78.9219 126.992C78.6458 126.82 78.3203 126.734 77.9453 126.734C77.3464 126.734 76.8281 126.924 76.3906 127.305C75.9583 127.685 75.7422 128.406 75.7422 129.469V134H74.3359Z" fill="black"/>
<path d="M35.7734 156.422C35.7734 154.521 36.2839 153.034 37.3047 151.961C38.3255 150.883 39.6432 150.344 41.2578 150.344C42.3151 150.344 43.2682 150.596 44.1172 151.102C44.9661 151.607 45.612 152.312 46.0547 153.219C46.5026 154.12 46.7266 155.143 46.7266 156.289C46.7266 157.451 46.4922 158.49 46.0234 159.406C45.5547 160.323 44.8906 161.018 44.0312 161.492C43.1719 161.961 42.2448 162.195 41.25 162.195C40.1719 162.195 39.2083 161.935 38.3594 161.414C37.5104 160.893 36.8672 160.182 36.4297 159.281C35.9922 158.38 35.7734 157.427 35.7734 156.422ZM37.3359 156.445C37.3359 157.826 37.7057 158.914 38.4453 159.711C39.1901 160.503 40.1224 160.898 41.2422 160.898C42.3828 160.898 43.3203 160.497 44.0547 159.695C44.7943 158.893 45.1641 157.755 45.1641 156.281C45.1641 155.349 45.0052 154.536 44.6875 153.844C44.375 153.146 43.9141 152.607 43.3047 152.227C42.7005 151.841 42.0208 151.648 41.2656 151.648C40.1927 151.648 39.2682 152.018 38.4922 152.758C37.7214 153.492 37.3359 154.721 37.3359 156.445ZM48.5078 165.18V153.703H49.7891V154.781C50.0911 154.359 50.4323 154.044 50.8125 153.836C51.1927 153.622 51.6536 153.516 52.1953 153.516C52.9036 153.516 53.5286 153.698 54.0703 154.062C54.612 154.427 55.0208 154.943 55.2969 155.609C55.5729 156.271 55.7109 156.997 55.7109 157.789C55.7109 158.638 55.5573 159.404 55.25 160.086C54.9479 160.763 54.5052 161.284 53.9219 161.648C53.3438 162.008 52.7344 162.188 52.0938 162.188C51.625 162.188 51.2031 162.089 50.8281 161.891C50.4583 161.693 50.1536 161.443 49.9141 161.141V165.18H48.5078ZM49.7812 157.898C49.7812 158.966 49.9974 159.755 50.4297 160.266C50.862 160.776 51.3854 161.031 52 161.031C52.625 161.031 53.1589 160.768 53.6016 160.242C54.0495 159.711 54.2734 158.891 54.2734 157.781C54.2734 156.724 54.0547 155.932 53.6172 155.406C53.1849 154.88 52.6667 154.617 52.0625 154.617C51.4635 154.617 50.9323 154.898 50.4688 155.461C50.0104 156.018 49.7812 156.831 49.7812 157.898ZM60.4844 160.742L60.6875 161.984C60.2917 162.068 59.9375 162.109 59.625 162.109C59.1146 162.109 58.7188 162.029 58.4375 161.867C58.1562 161.706 57.9583 161.495 57.8438 161.234C57.7292 160.969 57.6719 160.414 57.6719 159.57V154.797H56.6406V153.703H57.6719V151.648L59.0703 150.805V153.703H60.4844V154.797H59.0703V159.648C59.0703 160.049 59.0938 160.307 59.1406 160.422C59.1927 160.536 59.2734 160.628 59.3828 160.695C59.4974 160.763 59.6589 160.797 59.8672 160.797C60.0234 160.797 60.2292 160.779 60.4844 160.742ZM61.875 152.164V150.547H63.2812V152.164H61.875ZM61.875 162V153.703H63.2812V162H61.875ZM64.9062 157.852C64.9062 156.315 65.3333 155.177 66.1875 154.438C66.901 153.823 67.7708 153.516 68.7969 153.516C69.9375 153.516 70.8698 153.891 71.5938 154.641C72.3177 155.385 72.6797 156.417 72.6797 157.734C72.6797 158.802 72.5182 159.643 72.1953 160.258C71.8776 160.867 71.4115 161.341 70.7969 161.68C70.1875 162.018 69.5208 162.188 68.7969 162.188C67.6354 162.188 66.6953 161.815 65.9766 161.07C65.263 160.326 64.9062 159.253 64.9062 157.852ZM66.3516 157.852C66.3516 158.914 66.5833 159.711 67.0469 160.242C67.5104 160.768 68.0938 161.031 68.7969 161.031C69.4948 161.031 70.0755 160.766 70.5391 160.234C71.0026 159.703 71.2344 158.893 71.2344 157.805C71.2344 156.779 71 156.003 70.5312 155.477C70.0677 154.945 69.4896 154.68 68.7969 154.68C68.0938 154.68 67.5104 154.943 67.0469 155.469C66.5833 155.995 66.3516 156.789 66.3516 157.852ZM74.3359 162V153.703H75.6016V154.883C76.2109 153.971 77.0911 153.516 78.2422 153.516C78.7422 153.516 79.2005 153.607 79.6172 153.789C80.0391 153.966 80.3542 154.201 80.5625 154.492C80.7708 154.784 80.9167 155.13 81 155.531C81.0521 155.792 81.0781 156.247 81.0781 156.898V162H79.6719V156.953C79.6719 156.38 79.6172 155.953 79.5078 155.672C79.3984 155.385 79.2031 155.159 78.9219 154.992C78.6458 154.82 78.3203 154.734 77.9453 154.734C77.3464 154.734 76.8281 154.924 76.3906 155.305C75.9583 155.685 75.7422 156.406 75.7422 157.469V162H74.3359Z" fill="black"/>
</g>
<g clip-path="url(#clip2_11772_14581)">
<path d="M6.022 5.9H7.898V13.474H11.524V15H6.022V5.9ZM14.6733 15.168C14.3653 15.168 14.0713 15.1167 13.7913 15.014C13.5207 14.9207 13.2827 14.7853 13.0773 14.608C12.872 14.4213 12.7087 14.1973 12.5873 13.936C12.4753 13.6747 12.4193 13.3807 12.4193 13.054C12.4193 12.438 12.6387 11.948 13.0773 11.584C13.516 11.22 14.1833 11.0147 15.0793 10.968L16.7033 10.87V10.59C16.7033 10.142 16.568 9.834 16.2973 9.666C16.0267 9.498 15.6907 9.414 15.2893 9.414C14.972 9.414 14.6733 9.47467 14.3933 9.596C14.1133 9.708 13.9033 9.848 13.7633 10.016L12.7693 9.008C13.012 8.69067 13.362 8.42933 13.8193 8.224C14.286 8.01867 14.8553 7.916 15.5273 7.916C16.5167 7.916 17.254 8.14467 17.7393 8.602C18.2247 9.05933 18.4673 9.68 18.4673 10.464V15H16.8013V13.894H16.7173C16.54 14.286 16.2833 14.5987 15.9473 14.832C15.6113 15.056 15.1867 15.168 14.6733 15.168ZM15.1913 13.894C15.6393 13.894 16.0033 13.768 16.2833 13.516C16.5633 13.2547 16.7033 12.8907 16.7033 12.424V11.962L15.2893 12.074C14.5613 12.1207 14.1973 12.4287 14.1973 12.998C14.1973 13.2873 14.2907 13.5113 14.4773 13.67C14.664 13.8193 14.902 13.894 15.1913 13.894ZM24.2154 15.168C23.6741 15.168 23.2028 15.0373 22.8014 14.776C22.4094 14.5147 22.1294 14.1553 21.9614 13.698H21.8774V15H20.1974V4.85H21.9614V9.274H22.0454C22.2041 8.87267 22.4701 8.546 22.8434 8.294C23.2168 8.042 23.6741 7.916 24.2154 7.916C24.6448 7.916 25.0414 8.00467 25.4054 8.182C25.7788 8.35933 26.0961 8.61133 26.3574 8.938C26.6281 9.25533 26.8381 9.638 26.9874 10.086C27.1368 10.534 27.2114 11.0287 27.2114 11.57C27.2114 12.102 27.1368 12.592 26.9874 13.04C26.8381 13.4787 26.6281 13.8567 26.3574 14.174C26.0961 14.482 25.7788 14.7247 25.4054 14.902C25.0414 15.0793 24.6448 15.168 24.2154 15.168ZM23.6694 13.628C24.1921 13.628 24.6121 13.4413 24.9294 13.068C25.2468 12.6947 25.4054 12.186 25.4054 11.542C25.4054 10.898 25.2468 10.3893 24.9294 10.016C24.6121 9.64267 24.1921 9.456 23.6694 9.456C23.1561 9.456 22.7408 9.64267 22.4234 10.016C22.1154 10.3893 21.9614 10.898 21.9614 11.542C21.9614 12.186 22.1154 12.6947 22.4234 13.068C22.7408 13.4413 23.1561 13.628 23.6694 13.628ZM31.588 15.168C31.0093 15.168 30.5053 15.0747 30.076 14.888C29.6466 14.7013 29.2826 14.4447 28.984 14.118C28.6946 13.782 28.4753 13.3947 28.326 12.956C28.186 12.5173 28.116 12.046 28.116 11.542C28.116 11.0287 28.186 10.5527 28.326 10.114C28.466 9.666 28.676 9.28333 28.956 8.966C29.236 8.63933 29.586 8.38267 30.006 8.196C30.426 8.00933 30.916 7.916 31.476 7.916C32.036 7.916 32.526 8.00467 32.946 8.182C33.366 8.35933 33.7113 8.60667 33.982 8.924C34.2526 9.24133 34.4533 9.61933 34.584 10.058C34.724 10.4873 34.794 10.9587 34.794 11.472C34.794 11.5653 34.7846 11.6727 34.766 11.794C34.7566 11.9153 34.7426 12.0133 34.724 12.088H29.908C29.936 12.34 30.0013 12.5687 30.104 12.774C30.216 12.97 30.3513 13.138 30.51 13.278C30.678 13.418 30.86 13.5253 31.056 13.6C31.2613 13.6653 31.4713 13.698 31.686 13.698C32.0873 13.698 32.4233 13.628 32.694 13.488C32.9646 13.348 33.184 13.1707 33.352 12.956L34.346 13.992C34.0846 14.3467 33.7206 14.6313 33.254 14.846C32.7873 15.0607 32.232 15.168 31.588 15.168ZM31.476 9.26C31.028 9.26 30.664 9.40467 30.384 9.694C30.104 9.98333 29.9406 10.366 29.894 10.842H33.03C32.9833 10.366 32.82 9.98333 32.54 9.694C32.2693 9.40467 31.9146 9.26 31.476 9.26ZM36.1662 4.85H37.9302V15H36.1662V4.85Z" fill="#242E30"/>
</g>
<defs>
<filter id="filter0_ddd_11772_14581" x="0" y="24" width="266" height="158" filterUnits="userSpaceOnUse" color-interpolation-filters="sRGB">
<feFlood flood-opacity="0" result="BackgroundImageFix"/>
<feColorMatrix in="SourceAlpha" type="matrix" values="0 0 0 0 0 0 0 0 0 0 0 0 0 0 0 0 0 0 127 0" result="hardAlpha"/>
<feOffset/>
<feGaussianBlur stdDeviation="2"/>
<feColorMatrix type="matrix" values="0 0 0 0 0 0 0 0 0 0 0 0 0 0 0 0 0 0 0.1 0"/>
<feBlend mode="normal" in2="BackgroundImageFix" result="effect1_dropShadow_11772_14581"/>
<feColorMatrix in="SourceAlpha" type="matrix" values="0 0 0 0 0 0 0 0 0 0 0 0 0 0 0 0 0 0 127 0" result="hardAlpha"/>
<feOffset dy="1"/>
<feGaussianBlur stdDeviation="2.5"/>
<feColorMatrix type="matrix" values="0 0 0 0 0 0 0 0 0 0 0 0 0 0 0 0 0 0 0.04 0"/>
<feBlend mode="normal" in2="effect1_dropShadow_11772_14581" result="effect2_dropShadow_11772_14581"/>
<feColorMatrix in="SourceAlpha" type="matrix" values="0 0 0 0 0 0 0 0 0 0 0 0 0 0 0 0 0 0 127 0" result="hardAlpha"/>
<feOffset/>
<feGaussianBlur stdDeviation="0.5"/>
<feColorMatrix type="matrix" values="0 0 0 0 0 0 0 0 0 0 0 0 0 0 0 0 0 0 0.12 0"/>
<feBlend mode="normal" in2="effect2_dropShadow_11772_14581" result="effect3_dropShadow_11772_14581"/>
<feBlend mode="normal" in="SourceGraphic" in2="effect3_dropShadow_11772_14581" result="shape"/>
</filter>
<clipPath id="clip0_11772_14581">
<path d="M5 36C5 29.3726 10.3726 24 17 24H249C255.627 24 261 29.3726 261 36V60C261 66.6274 255.627 72 249 72H17C10.3726 72 5 66.6274 5 60V36Z" fill="white"/>
</clipPath>
<clipPath id="clip1_11772_14581">
<rect width="256" height="72" fill="white" transform="translate(5 24)"/>
</clipPath>
<clipPath id="clip2_11772_14581">
<rect width="34" height="20" fill="white" transform="translate(5)"/>
</clipPath>
</defs>
</svg>
