<svg width="366" height="32" viewBox="0 0 366 32" fill="none" xmlns="http://www.w3.org/2000/svg">
<path d="M1.668 11.6H3.812V15.824H8.164V11.6H10.308V22H8.164V17.552H3.812V22H1.668V11.6ZM15.9648 22.192C15.3034 22.192 14.7221 22.0853 14.2208 21.872C13.7301 21.648 13.3141 21.3493 12.9728 20.976C12.6421 20.6027 12.3914 20.1653 12.2208 19.664C12.0608 19.152 11.9808 18.6133 11.9808 18.048C11.9808 17.4827 12.0608 16.9493 12.2208 16.448C12.3914 15.9467 12.6421 15.5093 12.9728 15.136C13.3141 14.752 13.7301 14.4533 14.2208 14.24C14.7221 14.016 15.3034 13.904 15.9648 13.904C16.6261 13.904 17.2021 14.016 17.6928 14.24C18.1941 14.4533 18.6048 14.752 18.9248 15.136C19.2554 15.5093 19.5008 15.9467 19.6608 16.448C19.8314 16.9493 19.9167 17.4827 19.9167 18.048C19.9167 18.6133 19.8314 19.152 19.6608 19.664C19.5008 20.1653 19.2554 20.6027 18.9248 20.976C18.6048 21.3493 18.1941 21.648 17.6928 21.872C17.2021 22.0853 16.6261 22.192 15.9648 22.192ZM14.0448 18.048C14.0448 18.8267 14.2101 19.44 14.5408 19.888C14.8821 20.336 15.3568 20.56 15.9648 20.56C16.5621 20.56 17.0261 20.336 17.3568 19.888C17.6981 19.44 17.8688 18.8267 17.8688 18.048C17.8688 17.2693 17.6981 16.656 17.3568 16.208C17.0261 15.76 16.5621 15.536 15.9648 15.536C15.3568 15.536 14.8821 15.76 14.5408 16.208C14.2101 16.656 14.0448 17.2693 14.0448 18.048ZM21.4779 14.096H23.3819V15.296H23.4779C23.6805 14.88 23.9632 14.544 24.3259 14.288C24.6992 14.032 25.1525 13.904 25.6859 13.904C26.9872 13.904 27.8245 14.3947 28.1979 15.376C28.4005 14.928 28.7152 14.5707 29.1419 14.304C29.5685 14.0373 30.0699 13.904 30.6459 13.904C31.6059 13.904 32.3099 14.1707 32.7579 14.704C33.2059 15.2267 33.4299 16.0213 33.4299 17.088V22H31.4139V17.424C31.4139 16.208 30.9285 15.6 29.9579 15.6C29.4565 15.6 29.0779 15.7653 28.8219 16.096C28.5765 16.4267 28.4539 16.9013 28.4539 17.52V22H26.4379V17.424C26.4379 16.816 26.3205 16.3627 26.0859 16.064C25.8619 15.7547 25.4939 15.6 24.9819 15.6C24.5019 15.6 24.1339 15.7653 23.8779 16.096C23.6219 16.4267 23.4939 16.9013 23.4939 17.52V22H21.4779V14.096ZM38.855 22.192C38.1937 22.192 37.6177 22.0853 37.127 21.872C36.6363 21.6587 36.2203 21.3653 35.879 20.992C35.5483 20.608 35.2977 20.1653 35.127 19.664C34.967 19.1627 34.887 18.624 34.887 18.048C34.887 17.4613 34.967 16.9173 35.127 16.416C35.287 15.904 35.527 15.4667 35.847 15.104C36.167 14.7307 36.567 14.4373 37.047 14.224C37.527 14.0107 38.087 13.904 38.727 13.904C39.367 13.904 39.927 14.0053 40.407 14.208C40.887 14.4107 41.2817 14.6933 41.591 15.056C41.9003 15.4187 42.1297 15.8507 42.279 16.352C42.439 16.8427 42.519 17.3813 42.519 17.968C42.519 18.0747 42.5083 18.1973 42.487 18.336C42.4763 18.4747 42.4603 18.5867 42.439 18.672H36.935C36.967 18.96 37.0417 19.2213 37.159 19.456C37.287 19.68 37.4417 19.872 37.623 20.032C37.815 20.192 38.023 20.3147 38.247 20.4C38.4817 20.4747 38.7217 20.512 38.967 20.512C39.4257 20.512 39.8097 20.432 40.119 20.272C40.4283 20.112 40.679 19.9093 40.871 19.664L42.007 20.848C41.7083 21.2533 41.2923 21.5787 40.759 21.824C40.2257 22.0693 39.591 22.192 38.855 22.192ZM38.727 15.44C38.215 15.44 37.799 15.6053 37.479 15.936C37.159 16.2667 36.9723 16.704 36.919 17.248H40.503C40.4497 16.704 40.263 16.2667 39.943 15.936C39.6337 15.6053 39.2283 15.44 38.727 15.44Z" fill="#242E30"/>
<path d="M51.2828 19.8854L55.2991 16.0004L51.25 12.1154L51.9062 11.3936L56.0603 15.4032C56.2218 15.5666 56.3124 15.7871 56.3124 16.0168C56.3124 16.2466 56.2218 16.467 56.0603 16.6304L51.9587 20.5942L51.2828 19.8854Z" fill="#3C4C4F"/>
<path d="M64.636 11.6H68.908C69.3987 11.6 69.8467 11.6747 70.252 11.824C70.668 11.9733 71.0253 12.192 71.324 12.48C71.6227 12.7573 71.852 13.0987 72.012 13.504C72.1827 13.8987 72.268 14.3413 72.268 14.832C72.268 15.536 72.092 16.1387 71.74 16.64C71.388 17.1413 70.8867 17.4933 70.236 17.696L70.22 17.76L72.668 22H70.268L68.188 18.192H66.78V22H64.636V11.6ZM68.62 16.56C69.0787 16.56 69.4413 16.4107 69.708 16.112C69.9747 15.8133 70.108 15.4027 70.108 14.88C70.108 14.3573 69.9747 13.952 69.708 13.664C69.452 13.376 69.0947 13.232 68.636 13.232H66.78V16.56H68.62ZM77.5738 22.192C76.9124 22.192 76.3364 22.0853 75.8458 21.872C75.3551 21.6587 74.9391 21.3653 74.5978 20.992C74.2671 20.608 74.0164 20.1653 73.8458 19.664C73.6858 19.1627 73.6058 18.624 73.6058 18.048C73.6058 17.4613 73.6858 16.9173 73.8458 16.416C74.0058 15.904 74.2458 15.4667 74.5658 15.104C74.8858 14.7307 75.2858 14.4373 75.7658 14.224C76.2458 14.0107 76.8058 13.904 77.4458 13.904C78.0858 13.904 78.6458 14.0053 79.1258 14.208C79.6058 14.4107 80.0004 14.6933 80.3098 15.056C80.6191 15.4187 80.8484 15.8507 80.9978 16.352C81.1578 16.8427 81.2378 17.3813 81.2378 17.968C81.2378 18.0747 81.2271 18.1973 81.2058 18.336C81.1951 18.4747 81.1791 18.5867 81.1578 18.672H75.6538C75.6858 18.96 75.7604 19.2213 75.8778 19.456C76.0058 19.68 76.1604 19.872 76.3418 20.032C76.5338 20.192 76.7418 20.3147 76.9658 20.4C77.2004 20.4747 77.4404 20.512 77.6858 20.512C78.1444 20.512 78.5284 20.432 78.8378 20.272C79.1471 20.112 79.3978 19.9093 79.5898 19.664L80.7258 20.848C80.4271 21.2533 80.0111 21.5787 79.4778 21.824C78.9444 22.0693 78.3098 22.192 77.5738 22.192ZM77.4458 15.44C76.9338 15.44 76.5178 15.6053 76.1978 15.936C75.8778 16.2667 75.6911 16.704 75.6378 17.248H79.2218C79.1684 16.704 78.9818 16.2667 78.6618 15.936C78.3524 15.6053 77.9471 15.44 77.4458 15.44ZM86.598 19.76C86.598 19.6 86.55 19.4667 86.454 19.36C86.3687 19.2427 86.2407 19.1467 86.07 19.072C85.91 18.9973 85.718 18.9333 85.494 18.88C85.27 18.816 85.0247 18.752 84.758 18.688C84.4487 18.6133 84.1553 18.5173 83.878 18.4C83.6007 18.2827 83.3553 18.1333 83.142 17.952C82.9393 17.76 82.774 17.536 82.646 17.28C82.518 17.024 82.454 16.7147 82.454 16.352C82.454 15.9573 82.5287 15.6107 82.678 15.312C82.838 15.0027 83.0567 14.7467 83.334 14.544C83.6113 14.3307 83.942 14.1707 84.326 14.064C84.71 13.9573 85.126 13.904 85.574 13.904C86.278 13.904 86.886 14.016 87.398 14.24C87.91 14.4533 88.3047 14.7413 88.582 15.104L87.462 16.256C87.2487 16.0213 86.982 15.8293 86.662 15.68C86.3527 15.5307 86.0273 15.456 85.686 15.456C85.366 15.456 85.0833 15.52 84.838 15.648C84.5927 15.776 84.47 15.984 84.47 16.272C84.47 16.432 84.5127 16.5653 84.598 16.672C84.694 16.7787 84.822 16.8747 84.982 16.96C85.1527 17.0347 85.35 17.104 85.574 17.168C85.798 17.2213 86.0433 17.28 86.31 17.344C86.6087 17.4187 86.8967 17.5147 87.174 17.632C87.462 17.7493 87.7073 17.904 87.91 18.096C88.1233 18.2773 88.294 18.496 88.422 18.752C88.55 19.008 88.614 19.3173 88.614 19.68C88.614 20.096 88.5287 20.4587 88.358 20.768C88.198 21.0773 87.9687 21.3387 87.67 21.552C87.382 21.7653 87.0353 21.9253 86.63 22.032C86.2353 22.1387 85.8087 22.192 85.35 22.192C84.5713 22.192 83.91 22.08 83.366 21.856C82.8327 21.632 82.4273 21.344 82.15 20.992L83.238 19.824C83.4833 20.08 83.782 20.2827 84.134 20.432C84.486 20.5707 84.87 20.64 85.286 20.64C85.6593 20.64 85.9687 20.5707 86.214 20.432C86.47 20.2827 86.598 20.0587 86.598 19.76ZM93.3148 22.176C92.4401 22.176 91.8001 21.9413 91.3948 21.472C91.0001 21.0027 90.8028 20.2933 90.8028 19.344V15.712H89.5548V14.096H90.8028V11.952H92.8028V14.096H95.1068V15.712H92.8028V19.328C92.8028 19.744 92.8774 20.0427 93.0268 20.224C93.1761 20.3947 93.4001 20.48 93.6988 20.48C93.9121 20.48 94.1041 20.4427 94.2748 20.368C94.4454 20.2827 94.5948 20.1813 94.7228 20.064L95.4428 21.44C95.1761 21.696 94.8721 21.8827 94.5308 22C94.1894 22.1173 93.7841 22.176 93.3148 22.176ZM98.8834 22.192C98.5314 22.192 98.1954 22.1333 97.8754 22.016C97.566 21.9093 97.294 21.7547 97.0594 21.552C96.8247 21.3387 96.638 21.0827 96.4994 20.784C96.3714 20.4853 96.3074 20.1493 96.3074 19.776C96.3074 19.072 96.558 18.512 97.0594 18.096C97.5607 17.68 98.3234 17.4453 99.3474 17.392L101.203 17.28V16.96C101.203 16.448 101.049 16.096 100.739 15.904C100.43 15.712 100.046 15.616 99.5874 15.616C99.2247 15.616 98.8834 15.6853 98.5634 15.824C98.2434 15.952 98.0034 16.112 97.8434 16.304L96.7074 15.152C96.9847 14.7893 97.3847 14.4907 97.9074 14.256C98.4407 14.0213 99.0914 13.904 99.8594 13.904C100.99 13.904 101.833 14.1653 102.387 14.688C102.942 15.2107 103.219 15.92 103.219 16.816V22H101.315V20.736H101.219C101.017 21.184 100.723 21.5413 100.339 21.808C99.9554 22.064 99.47 22.192 98.8834 22.192ZM99.4754 20.736C99.9874 20.736 100.403 20.592 100.723 20.304C101.043 20.0053 101.203 19.5893 101.203 19.056V18.528L99.5874 18.656C98.7554 18.7093 98.3394 19.0613 98.3394 19.712C98.3394 20.0427 98.446 20.2987 98.6594 20.48C98.8727 20.6507 99.1447 20.736 99.4754 20.736ZM107.853 22.192C106.882 22.192 106.178 21.9307 105.741 21.408C105.303 20.8747 105.085 20.0747 105.085 19.008V14.096H107.101V18.608C107.101 19.248 107.213 19.7227 107.437 20.032C107.661 20.3413 108.029 20.496 108.541 20.496C109.031 20.496 109.399 20.3307 109.645 20C109.901 19.6587 110.029 19.168 110.029 18.528V14.096H112.045V22H110.141V20.72H110.045C109.863 21.1467 109.586 21.4987 109.213 21.776C108.839 22.0533 108.386 22.192 107.853 22.192ZM114.15 14.096H116.054V15.424H116.15C116.31 14.9653 116.555 14.5973 116.886 14.32C117.227 14.0427 117.654 13.904 118.166 13.904C118.56 13.904 118.928 13.968 119.27 14.096L118.71 15.936C118.592 15.8613 118.454 15.808 118.294 15.776C118.134 15.744 117.979 15.728 117.83 15.728C117.339 15.728 116.939 15.8987 116.63 16.24C116.32 16.5707 116.166 17.04 116.166 17.648V22H114.15V14.096ZM122.243 22.192C121.891 22.192 121.555 22.1333 121.235 22.016C120.925 21.9093 120.653 21.7547 120.419 21.552C120.184 21.3387 119.997 21.0827 119.859 20.784C119.731 20.4853 119.667 20.1493 119.667 19.776C119.667 19.072 119.917 18.512 120.419 18.096C120.92 17.68 121.683 17.4453 122.707 17.392L124.563 17.28V16.96C124.563 16.448 124.408 16.096 124.099 15.904C123.789 15.712 123.405 15.616 122.947 15.616C122.584 15.616 122.243 15.6853 121.923 15.824C121.603 15.952 121.363 16.112 121.203 16.304L120.067 15.152C120.344 14.7893 120.744 14.4907 121.267 14.256C121.8 14.0213 122.451 13.904 123.219 13.904C124.349 13.904 125.192 14.1653 125.747 14.688C126.301 15.2107 126.579 15.92 126.579 16.816V22H124.675V20.736H124.579C124.376 21.184 124.083 21.5413 123.699 21.808C123.315 22.064 122.829 22.192 122.243 22.192ZM122.835 20.736C123.347 20.736 123.763 20.592 124.083 20.304C124.403 20.0053 124.563 19.5893 124.563 19.056V18.528L122.947 18.656C122.115 18.7093 121.699 19.0613 121.699 19.712C121.699 20.0427 121.805 20.2987 122.019 20.48C122.232 20.6507 122.504 20.736 122.835 20.736ZM128.556 14.096H130.46V15.376H130.556C130.737 14.9493 131.02 14.5973 131.404 14.32C131.799 14.0427 132.268 13.904 132.812 13.904C133.815 13.904 134.535 14.1707 134.972 14.704C135.42 15.2267 135.644 16.0213 135.644 17.088V22H133.628V17.488C133.628 16.848 133.511 16.3733 133.276 16.064C133.052 15.7547 132.668 15.6 132.124 15.6C131.612 15.6 131.223 15.7707 130.956 16.112C130.7 16.4427 130.572 16.928 130.572 17.568V22H128.556V14.096ZM140.705 22.176C139.831 22.176 139.191 21.9413 138.785 21.472C138.391 21.0027 138.193 20.2933 138.193 19.344V15.712H136.945V14.096H138.193V11.952H140.193V14.096H142.497V15.712H140.193V19.328C140.193 19.744 140.268 20.0427 140.417 20.224C140.567 20.3947 140.791 20.48 141.089 20.48C141.303 20.48 141.495 20.4427 141.665 20.368C141.836 20.2827 141.985 20.1813 142.113 20.064L142.833 21.44C142.567 21.696 142.263 21.8827 141.921 22C141.58 22.1173 141.175 22.176 140.705 22.176ZM147.989 19.76C147.989 19.6 147.941 19.4667 147.845 19.36C147.759 19.2427 147.631 19.1467 147.461 19.072C147.301 18.9973 147.109 18.9333 146.885 18.88C146.661 18.816 146.415 18.752 146.149 18.688C145.839 18.6133 145.546 18.5173 145.269 18.4C144.991 18.2827 144.746 18.1333 144.533 17.952C144.33 17.76 144.165 17.536 144.037 17.28C143.909 17.024 143.845 16.7147 143.845 16.352C143.845 15.9573 143.919 15.6107 144.069 15.312C144.229 15.0027 144.447 14.7467 144.725 14.544C145.002 14.3307 145.333 14.1707 145.717 14.064C146.101 13.9573 146.517 13.904 146.965 13.904C147.669 13.904 148.277 14.016 148.789 14.24C149.301 14.4533 149.695 14.7413 149.973 15.104L148.853 16.256C148.639 16.0213 148.373 15.8293 148.053 15.68C147.743 15.5307 147.418 15.456 147.077 15.456C146.757 15.456 146.474 15.52 146.229 15.648C145.983 15.776 145.861 15.984 145.861 16.272C145.861 16.432 145.903 16.5653 145.989 16.672C146.085 16.7787 146.213 16.8747 146.373 16.96C146.543 17.0347 146.741 17.104 146.965 17.168C147.189 17.2213 147.434 17.28 147.701 17.344C147.999 17.4187 148.287 17.5147 148.565 17.632C148.853 17.7493 149.098 17.904 149.301 18.096C149.514 18.2773 149.685 18.496 149.813 18.752C149.941 19.008 150.005 19.3173 150.005 19.68C150.005 20.096 149.919 20.4587 149.749 20.768C149.589 21.0773 149.359 21.3387 149.061 21.552C148.773 21.7653 148.426 21.9253 148.021 22.032C147.626 22.1387 147.199 22.192 146.741 22.192C145.962 22.192 145.301 22.08 144.757 21.856C144.223 21.632 143.818 21.344 143.541 20.992L144.629 19.824C144.874 20.08 145.173 20.2827 145.525 20.432C145.877 20.5707 146.261 20.64 146.677 20.64C147.05 20.64 147.359 20.5707 147.605 20.432C147.861 20.2827 147.989 20.0587 147.989 19.76Z" fill="#242E30"/>
<path d="M159.283 19.8854L163.299 16.0004L159.25 12.1154L159.906 11.3936L164.06 15.4032C164.222 15.5666 164.312 15.7871 164.312 16.0168C164.312 16.2466 164.222 16.467 164.06 16.6304L159.959 20.5942L159.283 19.8854Z" fill="#3C4C4F"/>
<path d="M172.668 11.6H176.684C177.207 11.6 177.676 11.68 178.092 11.84C178.519 12 178.881 12.2293 179.18 12.528C179.479 12.8267 179.708 13.1893 179.868 13.616C180.039 14.0427 180.124 14.5173 180.124 15.04C180.124 15.5627 180.039 16.0373 179.868 16.464C179.708 16.8907 179.479 17.2533 179.18 17.552C178.881 17.8507 178.519 18.08 178.092 18.24C177.665 18.4 177.196 18.48 176.684 18.48H174.812V22H172.668V11.6ZM176.428 16.816C176.929 16.816 177.308 16.656 177.564 16.336C177.831 16.0053 177.964 15.5733 177.964 15.04C177.964 14.496 177.831 14.064 177.564 13.744C177.308 13.424 176.929 13.264 176.428 13.264H174.812V16.816H176.428ZM183.952 11.904C183.952 12.2027 183.845 12.4693 183.632 12.704C183.429 12.9387 183.141 13.056 182.768 13.056C182.384 13.056 182.09 12.9387 181.888 12.704C181.685 12.4693 181.584 12.2027 181.584 11.904C181.584 11.5947 181.685 11.328 181.888 11.104C182.09 10.8693 182.384 10.752 182.768 10.752C183.141 10.752 183.429 10.8693 183.632 11.104C183.845 11.328 183.952 11.5947 183.952 11.904ZM181.743 14.096H183.76V22H181.743V14.096ZM185.404 20.704L189.26 15.712H185.532V14.096H191.932V15.392L188.076 20.384H192.06V22H185.404V20.704ZM193.217 20.704L197.073 15.712H193.345V14.096H199.745V15.392L195.889 20.384H199.873V22H193.217V20.704ZM203.571 22.192C203.219 22.192 202.883 22.1333 202.563 22.016C202.254 21.9093 201.982 21.7547 201.747 21.552C201.512 21.3387 201.326 21.0827 201.187 20.784C201.059 20.4853 200.995 20.1493 200.995 19.776C200.995 19.072 201.246 18.512 201.747 18.096C202.248 17.68 203.011 17.4453 204.035 17.392L205.891 17.28V16.96C205.891 16.448 205.736 16.096 205.427 15.904C205.118 15.712 204.734 15.616 204.275 15.616C203.912 15.616 203.571 15.6853 203.251 15.824C202.931 15.952 202.691 16.112 202.531 16.304L201.395 15.152C201.672 14.7893 202.072 14.4907 202.595 14.256C203.128 14.0213 203.779 13.904 204.547 13.904C205.678 13.904 206.52 14.1653 207.075 14.688C207.63 15.2107 207.907 15.92 207.907 16.816V22H206.003V20.736H205.907C205.704 21.184 205.411 21.5413 205.027 21.808C204.643 22.064 204.158 22.192 203.571 22.192ZM204.163 20.736C204.675 20.736 205.091 20.592 205.411 20.304C205.731 20.0053 205.891 19.5893 205.891 19.056V18.528L204.275 18.656C203.443 18.7093 203.027 19.0613 203.027 19.712C203.027 20.0427 203.134 20.2987 203.347 20.48C203.56 20.6507 203.832 20.736 204.163 20.736Z" fill="#242E30"/>
<path d="M217.283 19.8854L221.299 16.0004L217.25 12.1154L217.906 11.3936L222.06 15.4032C222.222 15.5666 222.312 15.7871 222.312 16.0168C222.312 16.2466 222.222 16.467 222.06 16.6304L217.959 20.5942L217.283 19.8854Z" fill="#3C4C4F"/>
<path d="M229.948 11.6H231.436L234.268 20.576H234.364L237.212 11.6H238.62L235.116 22H233.452L229.948 11.6ZM239.671 20.944H240.871V12.656H239.671V11.6H243.399V12.656H242.199V20.944H243.399V22H239.671V20.944ZM245.472 11.6H248.72C249.787 11.6 250.603 11.8987 251.168 12.496C251.744 13.0827 252.032 13.8827 252.032 14.896C252.032 15.92 251.739 16.7307 251.152 17.328C250.565 17.9147 249.755 18.208 248.72 18.208H246.832V22H245.472V11.6ZM248.624 17.072C249.296 17.072 249.797 16.88 250.128 16.496C250.469 16.1013 250.64 15.568 250.64 14.896C250.64 14.224 250.469 13.696 250.128 13.312C249.797 12.928 249.296 12.736 248.624 12.736H246.832V17.072H248.624ZM257.988 11.6H259.812L263.38 20.464H263.476L267.044 11.6H268.9V22H267.62V13.408H267.524L264.1 22H262.756L259.332 13.408H259.236V22H257.988V11.6ZM273.479 22.192C273.116 22.192 272.78 22.1333 272.471 22.016C272.172 21.8987 271.911 21.7333 271.687 21.52C271.463 21.3067 271.287 21.056 271.159 20.768C271.042 20.4693 270.983 20.144 270.983 19.792C270.983 19.1093 271.228 18.56 271.719 18.144C272.21 17.728 272.908 17.4933 273.815 17.44L275.895 17.312V16.752C275.895 16.144 275.746 15.7067 275.447 15.44C275.159 15.1627 274.743 15.024 274.199 15.024C273.74 15.024 273.346 15.1093 273.015 15.28C272.684 15.4507 272.428 15.6373 272.247 15.84L271.479 15.072C271.756 14.7307 272.13 14.4533 272.599 14.24C273.079 14.016 273.623 13.904 274.231 13.904C274.775 13.904 275.234 13.9787 275.607 14.128C275.98 14.2667 276.279 14.4587 276.503 14.704C276.738 14.9493 276.903 15.2373 276.999 15.568C277.106 15.8987 277.159 16.2507 277.159 16.624V22H275.959V20.656H275.863C275.65 21.136 275.351 21.5147 274.967 21.792C274.583 22.0587 274.087 22.192 273.479 22.192ZM273.671 21.104C274.332 21.104 274.866 20.912 275.271 20.528C275.687 20.1333 275.895 19.6107 275.895 18.96V18.272L273.879 18.416C272.812 18.5013 272.279 18.9493 272.279 19.76C272.279 20.1653 272.407 20.4907 272.663 20.736C272.93 20.9813 273.266 21.104 273.671 21.104ZM279.735 14.096H280.951V15.376H281.047C281.218 14.96 281.463 14.6133 281.783 14.336C282.103 14.048 282.503 13.904 282.983 13.904C283.388 13.904 283.746 13.984 284.055 14.144L283.623 15.296C283.484 15.2213 283.335 15.1733 283.175 15.152C283.026 15.12 282.871 15.104 282.711 15.104C282.188 15.104 281.772 15.3173 281.463 15.744C281.164 16.16 281.015 16.6933 281.015 17.344V22H279.735V14.096ZM288.465 25.152C287.782 25.152 287.19 25.0293 286.689 24.784C286.188 24.5493 285.788 24.256 285.489 23.904L286.337 23.088C286.561 23.3653 286.849 23.584 287.201 23.744C287.564 23.9147 287.964 24 288.401 24C289.084 24 289.617 23.8347 290.001 23.504C290.396 23.1733 290.593 22.592 290.593 21.76V20.224H290.497C290.412 20.4907 290.289 20.7307 290.129 20.944C289.969 21.1467 289.777 21.3227 289.553 21.472C289.34 21.6107 289.1 21.7227 288.833 21.808C288.577 21.8827 288.316 21.92 288.049 21.92C287.548 21.92 287.089 21.8293 286.673 21.648C286.268 21.4667 285.91 21.2053 285.601 20.864C285.302 20.512 285.068 20.0853 284.897 19.584C284.737 19.0827 284.657 18.5173 284.657 17.888C284.657 17.2693 284.737 16.7147 284.897 16.224C285.068 15.7333 285.302 15.3173 285.601 14.976C285.91 14.6347 286.268 14.3733 286.673 14.192C287.089 14 287.548 13.904 288.049 13.904C288.636 13.904 289.158 14.0587 289.617 14.368C290.086 14.6667 290.401 15.0827 290.561 15.616H290.657V14.096H291.873V21.92C291.873 22.8907 291.58 23.6693 290.993 24.256C290.417 24.8533 289.574 25.152 288.465 25.152ZM288.305 20.768C289.009 20.768 289.564 20.5227 289.969 20.032C290.385 19.5413 290.593 18.832 290.593 17.904C290.593 16.9653 290.385 16.256 289.969 15.776C289.564 15.296 289.009 15.056 288.305 15.056C287.59 15.056 287.02 15.296 286.593 15.776C286.177 16.256 285.969 16.9653 285.969 17.904C285.969 18.832 286.177 19.5413 286.593 20.032C287.02 20.5227 287.59 20.768 288.305 20.768ZM296.338 22.192C295.976 22.192 295.64 22.1333 295.33 22.016C295.032 21.8987 294.77 21.7333 294.546 21.52C294.322 21.3067 294.146 21.056 294.018 20.768C293.901 20.4693 293.842 20.144 293.842 19.792C293.842 19.1093 294.088 18.56 294.578 18.144C295.069 17.728 295.768 17.4933 296.674 17.44L298.754 17.312V16.752C298.754 16.144 298.605 15.7067 298.306 15.44C298.018 15.1627 297.602 15.024 297.058 15.024C296.6 15.024 296.205 15.1093 295.874 15.28C295.544 15.4507 295.288 15.6373 295.106 15.84L294.338 15.072C294.616 14.7307 294.989 14.4533 295.458 14.24C295.938 14.016 296.482 13.904 297.09 13.904C297.634 13.904 298.093 13.9787 298.466 14.128C298.84 14.2667 299.138 14.4587 299.362 14.704C299.597 14.9493 299.762 15.2373 299.858 15.568C299.965 15.8987 300.018 16.2507 300.018 16.624V22H298.818V20.656H298.722C298.509 21.136 298.21 21.5147 297.826 21.792C297.442 22.0587 296.946 22.192 296.338 22.192ZM296.53 21.104C297.192 21.104 297.725 20.912 298.13 20.528C298.546 20.1333 298.754 19.6107 298.754 18.96V18.272L296.738 18.416C295.672 18.5013 295.138 18.9493 295.138 19.76C295.138 20.1653 295.266 20.4907 295.522 20.736C295.789 20.9813 296.125 21.104 296.53 21.104ZM302.594 14.096H303.81V15.376H303.906C304.077 14.96 304.322 14.6133 304.642 14.336C304.962 14.048 305.362 13.904 305.842 13.904C306.248 13.904 306.605 13.984 306.914 14.144L306.482 15.296C306.344 15.2213 306.194 15.1733 306.034 15.152C305.885 15.12 305.73 15.104 305.57 15.104C305.048 15.104 304.632 15.3173 304.322 15.744C304.024 16.16 303.874 16.6933 303.874 17.344V22H302.594V14.096ZM310.051 12C310.051 12.224 309.971 12.416 309.811 12.576C309.662 12.736 309.459 12.816 309.203 12.816C308.936 12.816 308.728 12.736 308.579 12.576C308.43 12.416 308.355 12.224 308.355 12C308.355 11.7867 308.43 11.6 308.579 11.44C308.728 11.2693 308.936 11.184 309.203 11.184C309.459 11.184 309.662 11.2693 309.811 11.44C309.971 11.6 310.051 11.7867 310.051 12ZM308.563 14.096H309.843V22H308.563V14.096ZM314.995 22.192C314.28 22.192 313.758 21.9787 313.427 21.552C313.096 21.1253 312.931 20.5387 312.931 19.792V15.136H311.523V14.096H312.931V11.952H314.195V14.096H316.483V15.136H314.195V19.68C314.195 20.192 314.291 20.5493 314.483 20.752C314.686 20.9547 314.942 21.056 315.251 21.056C315.464 21.056 315.656 21.0187 315.827 20.944C315.998 20.8587 316.158 20.7467 316.307 20.608L316.883 21.504C316.392 21.9627 315.763 22.192 314.995 22.192ZM320.37 22.192C320.007 22.192 319.671 22.1333 319.362 22.016C319.063 21.8987 318.802 21.7333 318.578 21.52C318.354 21.3067 318.178 21.056 318.05 20.768C317.932 20.4693 317.874 20.144 317.874 19.792C317.874 19.1093 318.119 18.56 318.61 18.144C319.1 17.728 319.799 17.4933 320.706 17.44L322.786 17.312V16.752C322.786 16.144 322.636 15.7067 322.338 15.44C322.05 15.1627 321.634 15.024 321.09 15.024C320.631 15.024 320.236 15.1093 319.906 15.28C319.575 15.4507 319.319 15.6373 319.138 15.84L318.37 15.072C318.647 14.7307 319.02 14.4533 319.49 14.24C319.97 14.016 320.514 13.904 321.122 13.904C321.666 13.904 322.124 13.9787 322.498 14.128C322.871 14.2667 323.17 14.4587 323.394 14.704C323.628 14.9493 323.794 15.2373 323.89 15.568C323.996 15.8987 324.05 16.2507 324.05 16.624V22H322.85V20.656H322.754C322.54 21.136 322.242 21.5147 321.858 21.792C321.474 22.0587 320.978 22.192 320.37 22.192ZM320.562 21.104C321.223 21.104 321.756 20.912 322.162 20.528C322.578 20.1333 322.786 19.6107 322.786 18.96V18.272L320.77 18.416C319.703 18.5013 319.17 18.9493 319.17 19.76C319.17 20.1653 319.298 20.4907 319.554 20.736C319.82 20.9813 320.156 21.104 320.562 21.104ZM330.581 11.6H333.829C334.896 11.6 335.712 11.8987 336.277 12.496C336.853 13.0827 337.141 13.8827 337.141 14.896C337.141 15.92 336.848 16.7307 336.261 17.328C335.675 17.9147 334.864 18.208 333.829 18.208H331.941V22H330.581V11.6ZM333.733 17.072C334.405 17.072 334.907 16.88 335.237 16.496C335.579 16.1013 335.749 15.568 335.749 14.896C335.749 14.224 335.579 13.696 335.237 13.312C334.907 12.928 334.405 12.736 333.733 12.736H331.941V17.072H333.733ZM340.629 12C340.629 12.224 340.549 12.416 340.389 12.576C340.24 12.736 340.037 12.816 339.781 12.816C339.515 12.816 339.307 12.736 339.157 12.576C339.008 12.416 338.933 12.224 338.933 12C338.933 11.7867 339.008 11.6 339.157 11.44C339.307 11.2693 339.515 11.184 339.781 11.184C340.037 11.184 340.24 11.2693 340.389 11.44C340.549 11.6 340.629 11.7867 340.629 12ZM339.141 14.096H340.421V22H339.141V14.096ZM342.533 21.088L346.965 15.136H342.661V14.096H348.501V15.008L344.069 20.96H348.629V22H342.533V21.088ZM350.127 21.088L354.559 15.136H350.255V14.096H356.095V15.008L351.663 20.96H356.223V22H350.127V21.088ZM360.073 22.192C359.71 22.192 359.374 22.1333 359.065 22.016C358.766 21.8987 358.505 21.7333 358.281 21.52C358.057 21.3067 357.881 21.056 357.753 20.768C357.635 20.4693 357.577 20.144 357.577 19.792C357.577 19.1093 357.822 18.56 358.313 18.144C358.803 17.728 359.502 17.4933 360.409 17.44L362.489 17.312V16.752C362.489 16.144 362.339 15.7067 362.041 15.44C361.753 15.1627 361.337 15.024 360.793 15.024C360.334 15.024 359.939 15.1093 359.609 15.28C359.278 15.4507 359.022 15.6373 358.841 15.84L358.073 15.072C358.35 14.7307 358.723 14.4533 359.193 14.24C359.673 14.016 360.217 13.904 360.825 13.904C361.369 13.904 361.827 13.9787 362.201 14.128C362.574 14.2667 362.873 14.4587 363.097 14.704C363.331 14.9493 363.497 15.2373 363.593 15.568C363.699 15.8987 363.753 16.2507 363.753 16.624V22H362.553V20.656H362.457C362.243 21.136 361.945 21.5147 361.561 21.792C361.177 22.0587 360.681 22.192 360.073 22.192ZM360.265 21.104C360.926 21.104 361.459 20.912 361.865 20.528C362.281 20.1333 362.489 19.6107 362.489 18.96V18.272L360.473 18.416C359.406 18.5013 358.873 18.9493 358.873 19.76C358.873 20.1653 359.001 20.4907 359.257 20.736C359.523 20.9813 359.859 21.104 360.265 21.104Z" fill="#3C4C4F"/>
</svg>
