<svg width="118" height="24" viewBox="0 0 118 24" fill="none" xmlns="http://www.w3.org/2000/svg">
<path d="M1.168 7.6H5.216C6.176 7.6 6.912 7.86133 7.424 8.384C7.94667 8.896 8.208 9.57867 8.208 10.432C8.208 10.6667 8.16533 10.896 8.08 11.12C7.99467 11.344 7.87733 11.552 7.728 11.744C7.57867 11.936 7.39733 12.1067 7.184 12.256C6.98133 12.4053 6.75733 12.5173 6.512 12.592V12.688C6.768 12.72 7.024 12.8053 7.28 12.944C7.536 13.0827 7.76 13.2587 7.952 13.472C8.15467 13.6853 8.32 13.9307 8.448 14.208C8.576 14.4853 8.64 14.7733 8.64 15.072C8.64 15.9467 8.34667 16.656 7.76 17.2C7.184 17.7333 6.352 18 5.264 18H1.168V7.6ZM4.848 11.952C5.21067 11.952 5.49867 11.8293 5.712 11.584C5.936 11.3387 6.048 11.008 6.048 10.592C6.048 10.1867 5.936 9.86133 5.712 9.616C5.49867 9.36 5.21067 9.232 4.848 9.232H3.312V11.952H4.848ZM5.104 16.368C5.54133 16.368 5.88267 16.2453 6.128 16C6.37333 15.744 6.496 15.3867 6.496 14.928C6.496 14.4587 6.37333 14.1013 6.128 13.856C5.88267 13.6 5.54133 13.472 5.104 13.472H3.312V16.368H5.104ZM10.3685 10.096H12.2725V11.424H12.3685C12.5285 10.9653 12.7738 10.5973 13.1045 10.32C13.4458 10.0427 13.8725 9.904 14.3845 9.904C14.7792 9.904 15.1472 9.968 15.4885 10.096L14.9285 11.936C14.8112 11.8613 14.6725 11.808 14.5125 11.776C14.3525 11.744 14.1978 11.728 14.0485 11.728C13.5578 11.728 13.1578 11.8987 12.8485 12.24C12.5392 12.5707 12.3845 13.04 12.3845 13.648V18H10.3685V10.096ZM19.8394 18.192C19.178 18.192 18.602 18.0853 18.1114 17.872C17.6207 17.6587 17.2047 17.3653 16.8634 16.992C16.5327 16.608 16.282 16.1653 16.1114 15.664C15.9514 15.1627 15.8714 14.624 15.8714 14.048C15.8714 13.4613 15.9514 12.9173 16.1114 12.416C16.2714 11.904 16.5114 11.4667 16.8314 11.104C17.1514 10.7307 17.5514 10.4373 18.0314 10.224C18.5114 10.0107 19.0714 9.904 19.7114 9.904C20.3514 9.904 20.9114 10.0053 21.3914 10.208C21.8714 10.4107 22.266 10.6933 22.5754 11.056C22.8847 11.4187 23.114 11.8507 23.2634 12.352C23.4234 12.8427 23.5034 13.3813 23.5034 13.968C23.5034 14.0747 23.4927 14.1973 23.4714 14.336C23.4607 14.4747 23.4447 14.5867 23.4234 14.672H17.9194C17.9514 14.96 18.026 15.2213 18.1434 15.456C18.2714 15.68 18.426 15.872 18.6074 16.032C18.7994 16.192 19.0074 16.3147 19.2314 16.4C19.466 16.4747 19.706 16.512 19.9514 16.512C20.41 16.512 20.794 16.432 21.1034 16.272C21.4127 16.112 21.6634 15.9093 21.8554 15.664L22.9914 16.848C22.6927 17.2533 22.2767 17.5787 21.7434 17.824C21.21 18.0693 20.5754 18.192 19.8394 18.192ZM19.7114 11.44C19.1994 11.44 18.7834 11.6053 18.4634 11.936C18.1434 12.2667 17.9567 12.704 17.9034 13.248H21.4874C21.434 12.704 21.2474 12.2667 20.9274 11.936C20.618 11.6053 20.2127 11.44 19.7114 11.44ZM27.0396 18.192C26.6876 18.192 26.3516 18.1333 26.0316 18.016C25.7223 17.9093 25.4503 17.7547 25.2156 17.552C24.981 17.3387 24.7943 17.0827 24.6556 16.784C24.5276 16.4853 24.4636 16.1493 24.4636 15.776C24.4636 15.072 24.7143 14.512 25.2156 14.096C25.717 13.68 26.4796 13.4453 27.5036 13.392L29.3596 13.28V12.96C29.3596 12.448 29.205 12.096 28.8956 11.904C28.5863 11.712 28.2023 11.616 27.7436 11.616C27.381 11.616 27.0396 11.6853 26.7196 11.824C26.3996 11.952 26.1596 12.112 25.9996 12.304L24.8636 11.152C25.141 10.7893 25.541 10.4907 26.0636 10.256C26.597 10.0213 27.2476 9.904 28.0156 9.904C29.1463 9.904 29.989 10.1653 30.5436 10.688C31.0983 11.2107 31.3756 11.92 31.3756 12.816V18H29.4716V16.736H29.3756C29.173 17.184 28.8796 17.5413 28.4956 17.808C28.1116 18.064 27.6263 18.192 27.0396 18.192ZM27.6316 16.736C28.1436 16.736 28.5596 16.592 28.8796 16.304C29.1996 16.0053 29.3596 15.5893 29.3596 15.056V14.528L27.7436 14.656C26.9116 14.7093 26.4956 15.0613 26.4956 15.712C26.4956 16.0427 26.6023 16.2987 26.8156 16.48C27.029 16.6507 27.301 16.736 27.6316 16.736ZM36.2489 18.192C35.7475 18.192 35.2889 18.0907 34.8729 17.888C34.4569 17.6853 34.0995 17.408 33.8009 17.056C33.5022 16.6933 33.2675 16.2613 33.0969 15.76C32.9262 15.248 32.8409 14.688 32.8409 14.08C32.8409 13.4613 32.9262 12.896 33.0969 12.384C33.2675 11.872 33.5022 11.4347 33.8009 11.072C34.0995 10.6987 34.4569 10.4107 34.8729 10.208C35.2889 10.0053 35.7475 9.904 36.2489 9.904C36.8675 9.904 37.3849 10.048 37.8009 10.336C38.2275 10.624 38.5315 10.9973 38.7129 11.456H38.8089V6.4H40.8249V18H38.9209V16.512H38.8249C38.6329 17.0347 38.3075 17.4453 37.8489 17.744C37.4009 18.0427 36.8675 18.192 36.2489 18.192ZM36.8569 16.432C37.4542 16.432 37.9289 16.2187 38.2809 15.792C38.6329 15.3653 38.8089 14.784 38.8089 14.048C38.8089 13.312 38.6329 12.7307 38.2809 12.304C37.9289 11.8773 37.4542 11.664 36.8569 11.664C36.2595 11.664 35.7849 11.8773 35.4329 12.304C35.0809 12.7307 34.9049 13.312 34.9049 14.048C34.9049 14.784 35.0809 15.3653 35.4329 15.792C35.7849 16.2187 36.2595 16.432 36.8569 16.432ZM46.2746 18.192C45.6026 18.192 45.0213 18.08 44.5306 17.856C44.0506 17.6213 43.656 17.312 43.3466 16.928C43.0373 16.544 42.808 16.1067 42.6586 15.616C42.5093 15.1147 42.4346 14.592 42.4346 14.048C42.4346 13.504 42.504 12.9867 42.6426 12.496C42.792 11.9947 43.016 11.552 43.3146 11.168C43.624 10.784 44.0186 10.48 44.4986 10.256C44.9786 10.0213 45.5493 9.904 46.2106 9.904C46.872 9.904 47.432 10.0213 47.8906 10.256C48.36 10.4907 48.744 10.7893 49.0426 11.152L47.6986 12.368C47.5173 12.144 47.3146 11.9733 47.0906 11.856C46.8666 11.728 46.584 11.664 46.2426 11.664C45.688 11.664 45.256 11.8773 44.9466 12.304C44.6373 12.72 44.4826 13.3013 44.4826 14.048C44.4826 14.7947 44.6426 15.3813 44.9626 15.808C45.2826 16.224 45.72 16.432 46.2746 16.432C46.6053 16.432 46.8933 16.368 47.1386 16.24C47.384 16.112 47.5973 15.9307 47.7786 15.696L49.1066 16.928C48.808 17.2907 48.4186 17.5947 47.9386 17.84C47.4693 18.0747 46.9146 18.192 46.2746 18.192ZM50.4935 10.096H52.3975V11.424H52.4935C52.6535 10.9653 52.8988 10.5973 53.2295 10.32C53.5708 10.0427 53.9975 9.904 54.5095 9.904C54.9042 9.904 55.2722 9.968 55.6135 10.096L55.0535 11.936C54.9362 11.8613 54.7975 11.808 54.6375 11.776C54.4775 11.744 54.3228 11.728 54.1735 11.728C53.6828 11.728 53.2828 11.8987 52.9735 12.24C52.6642 12.5707 52.5095 13.04 52.5095 13.648V18H50.4935V10.096ZM59.4464 18.192C58.4757 18.192 57.7717 17.9307 57.3344 17.408C56.897 16.8747 56.6784 16.0747 56.6784 15.008V10.096H58.6944V14.608C58.6944 15.248 58.8064 15.7227 59.0304 16.032C59.2544 16.3413 59.6224 16.496 60.1344 16.496C60.625 16.496 60.993 16.3307 61.2384 16C61.4944 15.6587 61.6224 15.168 61.6224 14.528V10.096H63.6384V18H61.7344V16.72H61.6384C61.457 17.1467 61.1797 17.4987 60.8064 17.776C60.433 18.0533 59.9797 18.192 59.4464 18.192ZM65.7435 10.096H67.6475V11.296H67.7435C67.9462 10.88 68.2288 10.544 68.5915 10.288C68.9648 10.032 69.4182 9.904 69.9515 9.904C71.2528 9.904 72.0902 10.3947 72.4635 11.376C72.6662 10.928 72.9808 10.5707 73.4075 10.304C73.8342 10.0373 74.3355 9.904 74.9115 9.904C75.8715 9.904 76.5755 10.1707 77.0235 10.704C77.4715 11.2267 77.6955 12.0213 77.6955 13.088V18H75.6795V13.424C75.6795 12.208 75.1942 11.6 74.2235 11.6C73.7222 11.6 73.3435 11.7653 73.0875 12.096C72.8422 12.4267 72.7195 12.9013 72.7195 13.52V18H70.7035V13.424C70.7035 12.816 70.5862 12.3627 70.3515 12.064C70.1275 11.7547 69.7595 11.6 69.2475 11.6C68.7675 11.6 68.3995 11.7653 68.1435 12.096C67.8875 12.4267 67.7595 12.9013 67.7595 13.52V18H65.7435V10.096ZM84.2886 18.192C83.67 18.192 83.1313 18.0427 82.6726 17.744C82.2246 17.4453 81.9046 17.0347 81.7126 16.512H81.6166V18H79.6966V6.4H81.7126V11.456H81.8086C81.99 10.9973 82.294 10.624 82.7206 10.336C83.1473 10.048 83.67 9.904 84.2886 9.904C84.7793 9.904 85.2326 10.0053 85.6486 10.208C86.0753 10.4107 86.438 10.6987 86.7366 11.072C87.046 11.4347 87.286 11.872 87.4566 12.384C87.6273 12.896 87.7126 13.4613 87.7126 14.08C87.7126 14.688 87.6273 15.248 87.4566 15.76C87.286 16.2613 87.046 16.6933 86.7366 17.056C86.438 17.408 86.0753 17.6853 85.6486 17.888C85.2326 18.0907 84.7793 18.192 84.2886 18.192ZM83.6646 16.432C84.262 16.432 84.742 16.2187 85.1046 15.792C85.4673 15.3653 85.6486 14.784 85.6486 14.048C85.6486 13.312 85.4673 12.7307 85.1046 12.304C84.742 11.8773 84.262 11.664 83.6646 11.664C83.078 11.664 82.6033 11.8773 82.2406 12.304C81.8886 12.7307 81.7126 13.312 81.7126 14.048C81.7126 14.784 81.8886 15.3653 82.2406 15.792C82.6033 16.2187 83.078 16.432 83.6646 16.432ZM93.5021 16.288H96.3021V9.84L93.8861 10.816L93.1981 9.312L96.9101 7.6H98.4301V16.288H100.926V18H93.5021V16.288Z" fill="#242E30"/>
<path d="M0 20.192H101.87V21.168H0V20.192Z" fill="#242E30"/>
<g clip-path="url(#clip0_21433_15262)">
<path d="M109.783 15.8854L113.799 12.0004L109.75 8.11543L110.406 7.39355L114.56 11.4032C114.722 11.5666 114.812 11.7871 114.812 12.0168C114.812 12.2466 114.722 12.467 114.56 12.6304L110.459 16.5942L109.783 15.8854Z" fill="#3C4C4F"/>
</g>
<defs>
<clipPath id="clip0_21433_15262">
<rect width="12" height="12" fill="white" transform="translate(106 6)"/>
</clipPath>
</defs>
</svg>
