<svg width="732" height="528" viewBox="0 0 732 528" fill="none" xmlns="http://www.w3.org/2000/svg">
<g filter="url(#filter0_ddd_21145_12952)">
<rect x="8" y="10" width="716" height="478" rx="19.2" fill="#FCFCFC"/>
</g>
<rect x="26.8003" y="13.4004" width="678.4" height="53.6" rx="6.4" fill="white"/>
<g filter="url(#filter1_ddd_21145_12952)">
<path d="M7.6001 26.2002C7.6001 17.3636 14.7635 10.2002 23.6001 10.2002H708.4C717.237 10.2002 724.4 17.3636 724.4 26.2002V67.0002H7.6001V26.2002Z" fill="white"/>
</g>
<g clip-path="url(#clip0_21145_12952)">
<path d="M77.6669 35.1318H74.3128C73.2251 35.1318 73.2251 35.1318 72.9989 36.3887C72.7727 37.6456 72.7716 37.6907 73.7695 37.6907H75.7631L74.6299 44.1144C74.3583 45.5525 73.724 46.5403 71.7758 47.1237C71.2769 47.2588 71.1416 47.4379 71.1416 47.6631C71.1416 47.9323 71.2315 48.1564 71.4587 48.6958C71.7758 49.4594 71.9566 49.5935 72.2293 49.5935C72.5021 49.5935 72.9999 49.4594 73.1807 49.4144C75.946 48.5157 77.0792 46.4051 77.5316 43.8903L78.8001 36.6632C79.0263 35.136 79.0263 35.136 77.6669 35.136" fill="#FF8000"/>
<path d="M89.0433 35.1318C87.6839 35.1318 87.6839 35.1318 87.5021 36.2547L86.5053 42.0929C86.2336 43.7992 85.7802 44.7879 84.1036 44.7879C82.4715 44.7879 81.8838 43.7992 82.1544 42.2741L83.1058 36.7061C83.3785 35.135 83.333 35.135 81.9282 35.135C80.5677 35.135 80.5223 35.135 80.3426 36.2128L79.3458 42.051C78.7559 45.3745 80.8405 47.44 83.7855 47.44C87.0952 47.44 88.7717 45.9579 89.3161 42.4553L90.3129 36.6621C90.5391 35.135 90.4482 35.135 89.0444 35.135" fill="#FF8000"/>
<path d="M95.2526 44.6981C96.3414 44.653 96.9302 44.1587 96.9302 43.6653C96.9302 43.0369 96.1596 42.8117 95.1173 42.4975C93.0772 41.869 91.2188 41.1505 91.2188 38.9939C91.2188 36.434 93.3499 35.042 96.0232 35.042C97.1564 35.042 98.426 35.087 99.242 35.1771C99.9672 35.2672 100.148 35.4913 99.9217 36.6142C99.6955 37.737 99.4228 37.8271 98.7885 37.782C98.0179 37.737 97.0211 37.6469 95.8425 37.6469C94.4831 37.6469 94.075 38.1413 94.075 38.5896C94.075 39.173 94.6184 39.4872 95.8879 39.8465C98.2441 40.52 99.7854 41.4637 99.7854 43.4841C99.7854 45.8649 98.0179 47.2548 95.1628 47.347C93.799 47.3943 92.4336 47.3189 91.0835 47.1218C90.1766 46.9877 90.1322 46.9877 90.3584 45.6848C90.5846 44.5169 90.5846 44.4279 91.4461 44.5169C93.1226 44.697 94.1649 44.7421 95.2516 44.697" fill="#FF8000"/>
<path d="M110.072 35.1318H102.414C101.326 35.1318 101.326 35.1318 101.1 36.4338C100.874 37.7357 100.918 37.7368 101.87 37.7368H104.364L102.958 45.7756C102.685 47.3468 102.731 47.3468 104.136 47.3468C105.451 47.3468 105.496 47.3468 105.677 46.2239L107.127 37.7399H109.53C110.618 37.7399 110.618 37.7399 110.844 36.4369C111.07 35.1339 111.071 35.135 110.073 35.135" fill="#FF8000"/>
<path d="M123.581 37.6928C124.669 37.6928 124.669 37.6928 124.895 36.3909C125.121 35.0889 125.122 35.0879 124.124 35.0879H118.64C116.691 35.0879 116.737 35.0879 116.42 37.0193L115.015 45.1483C114.653 47.2588 114.698 47.2588 116.647 47.2588H121.995C123.128 47.2588 123.083 47.2588 123.31 46.0019C123.536 44.7 123.536 44.7 122.54 44.7H117.915L118.277 42.3643H122.131C123.173 42.3643 123.173 42.3643 123.354 41.1524C123.535 39.8955 123.535 39.8955 122.131 39.8955H118.731L119.094 37.6959L123.581 37.6928Z" fill="#FF8000"/>
<path d="M129.382 42.004L131.149 38.1453C131.286 37.8311 131.286 37.8311 131.512 37.8311C131.738 37.8311 131.739 37.8311 131.785 38.1903L132.328 42.0071L129.382 42.004ZM134.186 36.615C133.914 35.0879 133.914 35.0879 131.739 35.0879C129.699 35.0879 129.744 35.0879 129.11 36.3448L124.532 45.8207C123.852 47.1677 123.989 47.3028 125.665 47.3028C126.98 47.3028 126.98 47.3028 127.523 46.0899L128.254 44.4738H132.694L132.921 46.091C133.102 47.3039 133.147 47.3039 134.461 47.3039C135.957 47.3039 136.093 47.2138 135.821 45.7327L134.186 36.615Z" fill="#FF8000"/>
<path d="M145.019 35.1318H137.314C136.227 35.1318 136.227 35.1318 135.999 36.4338C135.772 37.7357 135.819 37.7368 136.77 37.7368H139.263L137.858 45.7756C137.586 47.3468 137.632 47.3468 139.036 47.3468C140.35 47.3468 140.396 47.3468 140.578 46.2239L142.028 37.7399H144.427C145.515 37.7399 145.515 37.7399 145.742 36.4369C146.014 35.135 146.014 35.135 145.017 35.135" fill="#FF8000"/>
<path d="M66.5929 37.9836C66.5168 37.7898 65.4777 35.8888 63.5496 33.5038C63.5009 33.4459 63.4701 33.3754 63.4608 33.3006C63.3448 31.9126 63.1507 30.532 62.8795 29.1654C62.8488 29.0282 62.7755 28.9039 62.6699 28.8099C62.5643 28.716 62.4317 28.6572 62.2907 28.6417L60.2843 28.3977C60.2668 28.3961 60.2491 28.3961 60.2315 28.3977C60.1193 28.3977 60.0118 28.4418 59.9325 28.5204C59.8532 28.599 59.8087 28.7055 59.8087 28.8166V29.5058C59.8087 29.5125 59.806 29.5189 59.8012 29.5236C59.7965 29.5283 59.79 29.531 59.7833 29.531C59.7771 29.5309 59.7711 29.5287 59.7664 29.5247C58.5112 28.3974 57.1562 27.3844 55.7178 26.4977C55.4245 26.303 55.0793 26.1994 54.7263 26.2002C54.3732 26.1991 54.0279 26.3027 53.7347 26.4977C46.8194 30.7271 43.0118 37.6065 42.8649 37.9836C42.8215 38.0743 42.7991 38.1734 42.7993 38.2737C42.7995 38.4248 42.8504 38.5715 42.944 38.6908C43.0375 38.8101 43.1685 38.8951 43.3162 38.9326L45.3088 39.3117C45.4399 39.348 45.557 39.4224 45.645 39.5252C45.733 39.6281 45.7878 39.7548 45.8025 39.8888C45.8194 40.2376 46.1957 48.023 46.6682 50.0425C46.7071 50.1875 46.7933 50.3157 46.9133 50.4072C47.0334 50.4987 47.1806 50.5483 47.332 50.5484H47.3468C48.5096 50.519 49.5741 50.5002 50.7242 50.4845H50.8193C50.8487 50.4845 50.8778 50.4787 50.9049 50.4675C50.9321 50.4564 50.9567 50.44 50.9774 50.4194C50.9981 50.3987 51.0145 50.3742 51.0257 50.3473C51.0368 50.3204 51.0425 50.2915 51.0424 50.2624V50.2572C50.9959 49.5774 50.8954 48.023 50.814 46.3817C50.814 46.3409 50.814 46.2896 50.8066 46.2477C50.803 46.1795 50.7826 46.1132 50.7473 46.0546C50.7119 45.996 50.6626 45.9469 50.6037 45.9115C50.3003 45.7319 50.0461 45.4811 49.8638 45.1811C49.6815 44.8812 49.5765 44.5413 49.5582 44.1916C49.4525 41.4621 49.4007 38.3062 49.5519 35.8374C49.5588 35.7357 49.605 35.6404 49.6809 35.5715C49.7568 35.5025 49.8566 35.4652 49.9596 35.4672C50.0625 35.4692 50.1607 35.5105 50.2338 35.5823C50.3069 35.6542 50.3493 35.7512 50.3521 35.8532C50.3521 35.8636 50.3521 35.8741 50.3521 35.8846C50.2538 37.5301 50.2464 39.4762 50.2802 41.3961C50.2813 41.458 50.2947 41.519 50.3197 41.5758C50.3446 41.6326 50.3806 41.6839 50.4255 41.7269C50.4705 41.7699 50.5235 41.8037 50.5817 41.8263C50.6398 41.849 50.7019 41.8601 50.7644 41.859C50.8268 41.8579 50.8885 41.8446 50.9457 41.8199C51.003 41.7952 51.0549 41.7596 51.0982 41.715C51.1416 41.6705 51.1757 41.6179 51.1986 41.5603C51.2215 41.5027 51.2327 41.4412 51.2316 41.3793C51.1956 39.4468 51.2052 37.4882 51.3056 35.8374C51.3077 35.7322 51.3519 35.632 51.4285 35.559C51.5051 35.4861 51.6079 35.4462 51.7141 35.4483C51.8204 35.4504 51.9215 35.4942 51.9951 35.5702C52.0687 35.6461 52.1089 35.7479 52.1068 35.8532V35.8846C52.0085 37.5217 52.0011 39.4563 52.035 41.3657C52.0369 41.4907 52.0889 41.6098 52.1795 41.6968C52.2701 41.7838 52.3919 41.8316 52.518 41.8297C52.6442 41.8277 52.7644 41.7762 52.8522 41.6865C52.94 41.5967 52.9883 41.476 52.9863 41.351C52.9514 39.4269 52.9609 37.4756 53.0614 35.8364C53.0635 35.7311 53.1077 35.631 53.1843 35.558C53.2609 35.485 53.3637 35.4452 53.4699 35.4473C53.5762 35.4494 53.6772 35.4932 53.7509 35.5691C53.8245 35.645 53.8647 35.7468 53.8626 35.8521C53.8626 35.8626 53.8626 35.8731 53.8626 35.8835C53.7199 38.2842 53.7664 41.3217 53.8626 43.9874C53.8626 43.9874 53.8626 44.0104 53.8626 44.0125C53.8626 44.0146 53.8626 44.0397 53.8626 44.0534V44.0795C53.8629 44.4253 53.7782 44.766 53.6157 45.0721C53.4533 45.3781 53.218 45.6403 52.9303 45.836C52.8792 45.871 52.8368 45.9169 52.8062 45.9704C52.7756 46.0239 52.7577 46.0837 52.7538 46.145C52.7538 46.145 52.7041 46.5546 52.887 48.5373C52.9715 49.4035 53.0371 50.0037 53.0667 50.275C53.0734 50.3257 53.0986 50.3722 53.1375 50.4058C53.1765 50.4394 53.2265 50.4577 53.2781 50.4572H53.4641C53.8478 50.4572 54.2432 50.4572 54.6544 50.4572H54.8087H56.3013L57.4324 50.4667C57.4843 50.467 57.5346 50.4484 57.5736 50.4144C57.6125 50.3804 57.6375 50.3334 57.6438 50.2823C57.9049 47.9057 57.9662 46.5703 57.9662 46.5703C57.9648 46.5133 57.9425 46.4588 57.9037 46.4168C57.8648 46.3749 57.8119 46.3483 57.7548 46.3419L56.3806 46.1545C56.2894 46.1433 56.2036 46.1057 56.1338 46.0465C56.0641 45.9873 56.0135 45.909 55.9884 45.8214C55.9711 45.753 55.9651 45.6822 55.9704 45.6119C56.5275 37.6903 59.1638 35.0205 59.1638 35.0205C59.2024 34.9793 59.2452 34.9425 59.2918 34.9105C59.3634 34.8583 59.4502 34.8304 59.5391 34.8309C59.624 34.831 59.707 34.8564 59.7771 34.9038C59.8472 34.9513 59.9013 35.0186 59.9323 35.0969C59.9518 35.1588 59.9632 35.2228 59.9662 35.2876C60.1945 37.7773 60.0824 42.0151 59.9419 45.3207C59.8224 48.1267 59.6786 50.3294 59.6786 50.3294C59.6785 50.3509 59.6826 50.3721 59.6908 50.3919C59.699 50.4117 59.711 50.4297 59.7263 50.4449C59.7415 50.4601 59.7596 50.4722 59.7795 50.4804C59.7995 50.4886 59.8209 50.4928 59.8425 50.4928C60.5909 50.5054 61.3277 50.5201 62.1088 50.54H62.1236C62.2751 50.5399 62.4223 50.4903 62.5423 50.3988C62.6624 50.3073 62.7486 50.1791 62.7875 50.0341C63.2611 48.0147 63.6331 40.2292 63.6532 39.8805C63.6684 39.746 63.724 39.6191 63.8128 39.5162C63.9015 39.4133 64.0194 39.3392 64.1511 39.3033L66.1437 38.9242C66.2914 38.8868 66.4224 38.8017 66.516 38.6824C66.6095 38.5632 66.6604 38.4164 66.6606 38.2653C66.6585 38.1677 66.6354 38.0717 66.5929 37.9836Z" fill="#FF8000"/>
</g>
<rect x="120" y="160" width="493" height="290.4" rx="9.6" fill="#F5F3F1"/>
<rect x="148.38" y="187.199" width="431.375" height="51.2" rx="6.4" fill="white"/>
<rect x="148.38" y="251.199" width="431.375" height="51.2" rx="6.4" fill="white"/>
<rect x="148.38" y="315.199" width="431.375" height="51.2" rx="6.4" fill="white"/>
<g clip-path="url(#clip1_21145_12952)">
<rect x="517.319" y="388.399" width="64.8684" height="32" rx="16" fill="#F36805"/>
<rect x="517.319" y="384.899" width="64.8684" height="39" rx="19.5" fill="white" fill-opacity="0.01"/>
<path d="M531.569 399.499H533.713V408.155H537.857V409.899H531.569V399.499ZM541.457 410.091C541.105 410.091 540.769 410.033 540.449 409.915C540.139 409.809 539.867 409.654 539.633 409.451C539.398 409.238 539.211 408.982 539.073 408.683C538.945 408.385 538.881 408.049 538.881 407.675C538.881 406.971 539.131 406.411 539.633 405.995C540.134 405.579 540.897 405.345 541.921 405.291L543.777 405.179V404.859C543.777 404.347 543.622 403.995 543.313 403.803C543.003 403.611 542.619 403.515 542.161 403.515C541.798 403.515 541.457 403.585 541.137 403.723C540.817 403.851 540.577 404.011 540.417 404.203L539.281 403.051C539.558 402.689 539.958 402.39 540.481 402.155C541.014 401.921 541.665 401.803 542.433 401.803C543.563 401.803 544.406 402.065 544.961 402.587C545.515 403.11 545.793 403.819 545.793 404.715V409.899H543.889V408.635H543.793C543.59 409.083 543.297 409.441 542.913 409.707C542.529 409.963 542.043 410.091 541.457 410.091ZM542.049 408.635C542.561 408.635 542.977 408.491 543.297 408.203C543.617 407.905 543.777 407.489 543.777 406.955V406.427L542.161 406.555C541.329 406.609 540.913 406.961 540.913 407.611C540.913 407.942 541.019 408.198 541.233 408.379C541.446 408.55 541.718 408.635 542.049 408.635ZM552.362 410.091C551.743 410.091 551.205 409.942 550.746 409.643C550.298 409.345 549.978 408.934 549.786 408.411H549.69V409.899H547.77V398.299H549.786V403.355H549.882C550.063 402.897 550.367 402.523 550.794 402.235C551.221 401.947 551.743 401.803 552.362 401.803C552.853 401.803 553.306 401.905 553.722 402.107C554.149 402.31 554.511 402.598 554.81 402.971C555.119 403.334 555.359 403.771 555.53 404.283C555.701 404.795 555.786 405.361 555.786 405.979C555.786 406.587 555.701 407.147 555.53 407.659C555.359 408.161 555.119 408.593 554.81 408.955C554.511 409.307 554.149 409.585 553.722 409.787C553.306 409.99 552.853 410.091 552.362 410.091ZM551.738 408.331C552.335 408.331 552.815 408.118 553.178 407.691C553.541 407.265 553.722 406.683 553.722 405.947C553.722 405.211 553.541 404.63 553.178 404.203C552.815 403.777 552.335 403.563 551.738 403.563C551.151 403.563 550.677 403.777 550.314 404.203C549.962 404.63 549.786 405.211 549.786 405.947C549.786 406.683 549.962 407.265 550.314 407.691C550.677 408.118 551.151 408.331 551.738 408.331ZM560.788 410.091C560.126 410.091 559.55 409.985 559.06 409.771C558.569 409.558 558.153 409.265 557.812 408.891C557.481 408.507 557.23 408.065 557.06 407.563C556.9 407.062 556.82 406.523 556.82 405.947C556.82 405.361 556.9 404.817 557.06 404.315C557.22 403.803 557.46 403.366 557.78 403.003C558.1 402.63 558.5 402.337 558.98 402.123C559.46 401.91 560.02 401.803 560.66 401.803C561.3 401.803 561.86 401.905 562.34 402.107C562.82 402.31 563.214 402.593 563.524 402.955C563.833 403.318 564.062 403.75 564.212 404.251C564.372 404.742 564.452 405.281 564.452 405.867C564.452 405.974 564.441 406.097 564.42 406.235C564.409 406.374 564.393 406.486 564.372 406.571H558.868C558.9 406.859 558.974 407.121 559.092 407.355C559.22 407.579 559.374 407.771 559.556 407.931C559.748 408.091 559.956 408.214 560.18 408.299C560.414 408.374 560.654 408.411 560.9 408.411C561.358 408.411 561.742 408.331 562.052 408.171C562.361 408.011 562.612 407.809 562.804 407.563L563.94 408.747C563.641 409.153 563.225 409.478 562.692 409.723C562.158 409.969 561.524 410.091 560.788 410.091ZM560.66 403.339C560.148 403.339 559.732 403.505 559.412 403.835C559.092 404.166 558.905 404.603 558.852 405.147H562.436C562.382 404.603 562.196 404.166 561.876 403.835C561.566 403.505 561.161 403.339 560.66 403.339ZM566.02 398.299H568.036V409.899H566.02V398.299Z" fill="white"/>
</g>
<path d="M121.152 122.52H126.605C127.232 122.52 127.802 122.622 128.314 122.827C128.838 123.019 129.286 123.301 129.658 123.672C130.029 124.043 130.317 124.491 130.522 125.016C130.739 125.528 130.848 126.11 130.848 126.763C130.848 127.416 130.739 128.005 130.522 128.53C130.317 129.042 130.029 129.483 129.658 129.854C129.286 130.226 128.838 130.514 128.314 130.718C127.802 130.91 127.232 131.006 126.605 131.006H124.397V135H121.152V122.52ZM126.163 128.568C126.611 128.568 126.963 128.402 127.219 128.069C127.475 127.723 127.603 127.288 127.603 126.763C127.603 126.226 127.475 125.79 127.219 125.458C126.963 125.125 126.611 124.958 126.163 124.958H124.397V128.568H126.163ZM134.802 135.23C134.38 135.23 133.97 135.166 133.574 135.038C133.19 134.91 132.85 134.725 132.556 134.482C132.274 134.226 132.044 133.918 131.865 133.56C131.698 133.202 131.615 132.792 131.615 132.331C131.615 131.461 131.922 130.776 132.537 130.277C133.164 129.778 134.143 129.49 135.474 129.413L137.49 129.298V129.144C137.49 128.875 137.433 128.658 137.318 128.491C137.215 128.325 137.074 128.197 136.895 128.107C136.729 128.005 136.53 127.934 136.3 127.896C136.082 127.858 135.858 127.838 135.628 127.838C135.27 127.838 134.905 127.902 134.534 128.03C134.162 128.158 133.887 128.338 133.708 128.568L132.038 126.84C132.383 126.405 132.889 126.04 133.554 125.746C134.22 125.438 135.09 125.285 136.166 125.285C137.535 125.285 138.604 125.598 139.372 126.226C140.153 126.853 140.543 127.755 140.543 128.933V135H137.682V133.541H137.567C137.324 134.04 136.972 134.45 136.511 134.77C136.063 135.077 135.494 135.23 134.802 135.23ZM135.839 133.157C136.326 133.157 136.722 133.029 137.03 132.773C137.337 132.504 137.49 132.101 137.49 131.563V131.064L135.897 131.179C135.487 131.205 135.18 131.307 134.975 131.486C134.783 131.666 134.687 131.902 134.687 132.197C134.687 132.53 134.796 132.773 135.014 132.926C135.244 133.08 135.519 133.157 135.839 133.157ZM146.442 138.782C145.61 138.782 144.862 138.635 144.196 138.341C143.53 138.059 143.044 137.714 142.737 137.304L144.522 135.48C144.689 135.698 144.958 135.877 145.329 136.018C145.7 136.171 146.078 136.248 146.462 136.248C146.705 136.248 146.948 136.222 147.191 136.171C147.434 136.12 147.652 136.03 147.844 135.902C148.036 135.774 148.19 135.602 148.305 135.384C148.433 135.166 148.497 134.891 148.497 134.558V132.773H148.42C148.215 133.272 147.889 133.688 147.441 134.021C146.993 134.341 146.41 134.501 145.694 134.501C145.118 134.501 144.599 134.392 144.138 134.174C143.678 133.944 143.281 133.624 142.948 133.214C142.628 132.792 142.378 132.293 142.199 131.717C142.02 131.141 141.93 130.507 141.93 129.816C141.93 129.138 142.02 128.523 142.199 127.973C142.378 127.41 142.634 126.936 142.967 126.552C143.3 126.155 143.697 125.848 144.158 125.63C144.631 125.413 145.156 125.304 145.732 125.304C146.449 125.304 147.038 125.464 147.498 125.784C147.972 126.091 148.324 126.526 148.554 127.09H148.67V125.515H151.55V134.616C151.55 135.294 151.428 135.89 151.185 136.402C150.942 136.926 150.596 137.362 150.148 137.707C149.7 138.066 149.162 138.334 148.535 138.514C147.908 138.693 147.21 138.782 146.442 138.782ZM146.769 132.024C147.063 132.024 147.319 131.966 147.537 131.851C147.754 131.723 147.934 131.563 148.074 131.371C148.215 131.166 148.318 130.936 148.382 130.68C148.458 130.424 148.497 130.155 148.497 129.874C148.497 129.592 148.458 129.323 148.382 129.067C148.318 128.811 148.215 128.587 148.074 128.395C147.934 128.19 147.754 128.03 147.537 127.915C147.319 127.787 147.063 127.723 146.769 127.723C146.474 127.723 146.218 127.787 146.001 127.915C145.783 128.03 145.604 128.19 145.463 128.395C145.322 128.587 145.214 128.811 145.137 129.067C145.073 129.323 145.041 129.592 145.041 129.874C145.041 130.155 145.073 130.424 145.137 130.68C145.214 130.936 145.322 131.166 145.463 131.371C145.604 131.563 145.783 131.723 146.001 131.851C146.218 131.966 146.474 132.024 146.769 132.024ZM157.964 135.23C157.094 135.23 156.345 135.09 155.718 134.808C155.103 134.526 154.598 134.155 154.201 133.694C153.804 133.234 153.51 132.709 153.318 132.12C153.126 131.518 153.03 130.898 153.03 130.258C153.03 129.63 153.113 129.016 153.279 128.414C153.458 127.813 153.734 127.282 154.105 126.821C154.489 126.36 154.982 125.989 155.583 125.707C156.185 125.426 156.921 125.285 157.791 125.285C158.662 125.285 159.398 125.426 159.999 125.707C160.601 125.976 161.081 126.341 161.439 126.802C161.81 127.25 162.073 127.768 162.226 128.357C162.393 128.946 162.476 129.554 162.476 130.181C162.476 130.322 162.463 130.507 162.438 130.738C162.412 130.955 162.38 131.122 162.342 131.237H156.121C156.172 131.518 156.268 131.755 156.409 131.947C156.562 132.139 156.735 132.293 156.927 132.408C157.119 132.523 157.318 132.606 157.522 132.658C157.74 132.709 157.945 132.734 158.137 132.734C158.585 132.734 158.969 132.664 159.289 132.523C159.622 132.382 159.878 132.197 160.057 131.966L161.727 133.714C161.42 134.162 160.934 134.526 160.268 134.808C159.602 135.09 158.834 135.23 157.964 135.23ZM157.791 127.55C157.382 127.55 157.017 127.678 156.697 127.934C156.377 128.178 156.166 128.606 156.063 129.221H159.481C159.391 128.606 159.186 128.178 158.866 127.934C158.546 127.678 158.188 127.55 157.791 127.55ZM172.734 135.211C171.531 135.211 170.66 134.91 170.123 134.309C169.598 133.707 169.336 132.747 169.336 131.429V127.954H167.972V125.515H169.336V122.942H172.35V125.515H175.153V127.954H172.35V131.486C172.35 131.909 172.42 132.216 172.561 132.408C172.715 132.6 172.964 132.696 173.31 132.696C173.54 132.696 173.758 132.651 173.963 132.562C174.18 132.459 174.36 132.338 174.5 132.197L175.48 134.27C174.852 134.898 173.937 135.211 172.734 135.211ZM180.044 122.789C180.044 123.224 179.897 123.614 179.603 123.96C179.308 124.293 178.879 124.459 178.316 124.459C177.74 124.459 177.311 124.293 177.03 123.96C176.748 123.614 176.607 123.224 176.607 122.789C176.607 122.354 176.748 121.97 177.03 121.637C177.311 121.291 177.74 121.118 178.316 121.118C178.879 121.118 179.308 121.291 179.603 121.637C179.897 121.97 180.044 122.354 180.044 122.789ZM176.78 125.515H179.833V135H176.78V125.515ZM186.028 135.211C184.825 135.211 183.954 134.91 183.417 134.309C182.892 133.707 182.629 132.747 182.629 131.429V127.954H181.266V125.515H182.629V122.942H185.644V125.515H188.447V127.954H185.644V131.486C185.644 131.909 185.714 132.216 185.855 132.408C186.009 132.6 186.258 132.696 186.604 132.696C186.834 132.696 187.052 132.651 187.257 132.562C187.474 132.459 187.653 132.338 187.794 132.197L188.773 134.27C188.146 134.898 187.231 135.211 186.028 135.211ZM190.074 121.08H193.127V135H190.074V121.08ZM199.533 135.23C198.662 135.23 197.914 135.09 197.286 134.808C196.672 134.526 196.166 134.155 195.77 133.694C195.373 133.234 195.078 132.709 194.886 132.12C194.694 131.518 194.598 130.898 194.598 130.258C194.598 129.63 194.682 129.016 194.848 128.414C195.027 127.813 195.302 127.282 195.674 126.821C196.058 126.36 196.55 125.989 197.152 125.707C197.754 125.426 198.49 125.285 199.36 125.285C200.23 125.285 200.966 125.426 201.568 125.707C202.17 125.976 202.65 126.341 203.008 126.802C203.379 127.25 203.642 127.768 203.795 128.357C203.962 128.946 204.045 129.554 204.045 130.181C204.045 130.322 204.032 130.507 204.006 130.738C203.981 130.955 203.949 131.122 203.91 131.237H197.69C197.741 131.518 197.837 131.755 197.978 131.947C198.131 132.139 198.304 132.293 198.496 132.408C198.688 132.523 198.886 132.606 199.091 132.658C199.309 132.709 199.514 132.734 199.706 132.734C200.154 132.734 200.538 132.664 200.858 132.523C201.19 132.382 201.446 132.197 201.626 131.966L203.296 133.714C202.989 134.162 202.502 134.526 201.837 134.808C201.171 135.09 200.403 135.23 199.533 135.23ZM199.36 127.55C198.95 127.55 198.586 127.678 198.266 127.934C197.946 128.178 197.734 128.606 197.632 129.221H201.05C200.96 128.606 200.755 128.178 200.435 127.934C200.115 127.678 199.757 127.55 199.36 127.55Z" fill="#242E30"/>
<path d="M120.168 90.6H124.216C125.176 90.6 125.912 90.8613 126.424 91.384C126.947 91.896 127.208 92.5787 127.208 93.432C127.208 93.6667 127.165 93.896 127.08 94.12C126.995 94.344 126.877 94.552 126.728 94.744C126.579 94.936 126.397 95.1067 126.184 95.256C125.981 95.4053 125.757 95.5173 125.512 95.592V95.688C125.768 95.72 126.024 95.8053 126.28 95.944C126.536 96.0827 126.76 96.2587 126.952 96.472C127.155 96.6853 127.32 96.9307 127.448 97.208C127.576 97.4853 127.64 97.7733 127.64 98.072C127.64 98.9467 127.347 99.656 126.76 100.2C126.184 100.733 125.352 101 124.264 101H120.168V90.6ZM123.848 94.952C124.211 94.952 124.499 94.8293 124.712 94.584C124.936 94.3387 125.048 94.008 125.048 93.592C125.048 93.1867 124.936 92.8613 124.712 92.616C124.499 92.36 124.211 92.232 123.848 92.232H122.312V94.952H123.848ZM124.104 99.368C124.541 99.368 124.883 99.2453 125.128 99C125.373 98.744 125.496 98.3867 125.496 97.928C125.496 97.4587 125.373 97.1013 125.128 96.856C124.883 96.6 124.541 96.472 124.104 96.472H122.312V99.368H124.104ZM129.368 93.096H131.273V94.424H131.369C131.529 93.9653 131.774 93.5973 132.105 93.32C132.446 93.0427 132.873 92.904 133.385 92.904C133.779 92.904 134.147 92.968 134.489 93.096L133.929 94.936C133.811 94.8613 133.673 94.808 133.513 94.776C133.353 94.744 133.198 94.728 133.049 94.728C132.558 94.728 132.158 94.8987 131.849 95.24C131.539 95.5707 131.385 96.04 131.385 96.648V101H129.368V93.096ZM138.839 101.192C138.178 101.192 137.602 101.085 137.111 100.872C136.621 100.659 136.205 100.365 135.863 99.992C135.533 99.608 135.282 99.1653 135.111 98.664C134.951 98.1627 134.871 97.624 134.871 97.048C134.871 96.4613 134.951 95.9173 135.111 95.416C135.271 94.904 135.511 94.4667 135.831 94.104C136.151 93.7307 136.551 93.4373 137.031 93.224C137.511 93.0107 138.071 92.904 138.711 92.904C139.351 92.904 139.911 93.0053 140.391 93.208C140.871 93.4107 141.266 93.6933 141.575 94.056C141.885 94.4187 142.114 94.8507 142.263 95.352C142.423 95.8427 142.503 96.3813 142.503 96.968C142.503 97.0747 142.493 97.1973 142.471 97.336C142.461 97.4747 142.445 97.5867 142.423 97.672H136.919C136.951 97.96 137.026 98.2213 137.143 98.456C137.271 98.68 137.426 98.872 137.607 99.032C137.799 99.192 138.007 99.3147 138.231 99.4C138.466 99.4747 138.706 99.512 138.951 99.512C139.41 99.512 139.794 99.432 140.103 99.272C140.413 99.112 140.663 98.9093 140.855 98.664L141.991 99.848C141.693 100.253 141.277 100.579 140.743 100.824C140.21 101.069 139.575 101.192 138.839 101.192ZM138.711 94.44C138.199 94.44 137.783 94.6053 137.463 94.936C137.143 95.2667 136.957 95.704 136.903 96.248H140.487C140.434 95.704 140.247 95.2667 139.927 94.936C139.618 94.6053 139.213 94.44 138.711 94.44ZM146.04 101.192C145.688 101.192 145.352 101.133 145.032 101.016C144.722 100.909 144.45 100.755 144.216 100.552C143.981 100.339 143.794 100.083 143.656 99.784C143.528 99.4853 143.464 99.1493 143.464 98.776C143.464 98.072 143.714 97.512 144.216 97.096C144.717 96.68 145.48 96.4453 146.504 96.392L148.36 96.28V95.96C148.36 95.448 148.205 95.096 147.896 94.904C147.586 94.712 147.202 94.616 146.744 94.616C146.381 94.616 146.04 94.6853 145.72 94.824C145.4 94.952 145.16 95.112 145 95.304L143.864 94.152C144.141 93.7893 144.541 93.4907 145.064 93.256C145.597 93.0213 146.248 92.904 147.016 92.904C148.146 92.904 148.989 93.1653 149.544 93.688C150.098 94.2107 150.376 94.92 150.376 95.816V101H148.472V99.736H148.376C148.173 100.184 147.88 100.541 147.496 100.808C147.112 101.064 146.626 101.192 146.04 101.192ZM146.632 99.736C147.144 99.736 147.56 99.592 147.88 99.304C148.2 99.0053 148.36 98.5893 148.36 98.056V97.528L146.744 97.656C145.912 97.7093 145.496 98.0613 145.496 98.712C145.496 99.0427 145.602 99.2987 145.816 99.48C146.029 99.6507 146.301 99.736 146.632 99.736ZM155.249 101.192C154.748 101.192 154.289 101.091 153.873 100.888C153.457 100.685 153.1 100.408 152.801 100.056C152.502 99.6933 152.268 99.2613 152.097 98.76C151.926 98.248 151.841 97.688 151.841 97.08C151.841 96.4613 151.926 95.896 152.097 95.384C152.268 94.872 152.502 94.4347 152.801 94.072C153.1 93.6987 153.457 93.4107 153.873 93.208C154.289 93.0053 154.748 92.904 155.249 92.904C155.868 92.904 156.385 93.048 156.801 93.336C157.228 93.624 157.532 93.9973 157.713 94.456H157.809V89.4H159.825V101H157.921V99.512H157.825C157.633 100.035 157.308 100.445 156.849 100.744C156.401 101.043 155.868 101.192 155.249 101.192ZM155.857 99.432C156.454 99.432 156.929 99.2187 157.281 98.792C157.633 98.3653 157.809 97.784 157.809 97.048C157.809 96.312 157.633 95.7307 157.281 95.304C156.929 94.8773 156.454 94.664 155.857 94.664C155.26 94.664 154.785 94.8773 154.433 95.304C154.081 95.7307 153.905 96.312 153.905 97.048C153.905 97.784 154.081 98.3653 154.433 98.792C154.785 99.2187 155.26 99.432 155.857 99.432ZM165.275 101.192C164.603 101.192 164.021 101.08 163.531 100.856C163.051 100.621 162.656 100.312 162.347 99.928C162.037 99.544 161.808 99.1067 161.659 98.616C161.509 98.1147 161.435 97.592 161.435 97.048C161.435 96.504 161.504 95.9867 161.643 95.496C161.792 94.9947 162.016 94.552 162.315 94.168C162.624 93.784 163.019 93.48 163.499 93.256C163.979 93.0213 164.549 92.904 165.211 92.904C165.872 92.904 166.432 93.0213 166.891 93.256C167.36 93.4907 167.744 93.7893 168.043 94.152L166.699 95.368C166.517 95.144 166.315 94.9733 166.091 94.856C165.867 94.728 165.584 94.664 165.243 94.664C164.688 94.664 164.256 94.8773 163.947 95.304C163.637 95.72 163.483 96.3013 163.483 97.048C163.483 97.7947 163.643 98.3813 163.963 98.808C164.283 99.224 164.72 99.432 165.275 99.432C165.605 99.432 165.893 99.368 166.139 99.24C166.384 99.112 166.597 98.9307 166.779 98.696L168.107 99.928C167.808 100.291 167.419 100.595 166.939 100.84C166.469 101.075 165.915 101.192 165.275 101.192ZM169.493 93.096H171.398V94.424H171.494C171.654 93.9653 171.899 93.5973 172.23 93.32C172.571 93.0427 172.998 92.904 173.51 92.904C173.904 92.904 174.272 92.968 174.614 93.096L174.054 94.936C173.936 94.8613 173.798 94.808 173.638 94.776C173.478 94.744 173.323 94.728 173.174 94.728C172.683 94.728 172.283 94.8987 171.974 95.24C171.664 95.5707 171.51 96.04 171.51 96.648V101H169.493V93.096ZM178.446 101.192C177.476 101.192 176.772 100.931 176.334 100.408C175.897 99.8747 175.678 99.0747 175.678 98.008V93.096H177.694V97.608C177.694 98.248 177.806 98.7227 178.03 99.032C178.254 99.3413 178.622 99.496 179.134 99.496C179.625 99.496 179.993 99.3307 180.238 99C180.494 98.6587 180.622 98.168 180.622 97.528V93.096H182.638V101H180.734V99.72H180.638C180.457 100.147 180.18 100.499 179.806 100.776C179.433 101.053 178.98 101.192 178.446 101.192ZM184.743 93.096H186.648V94.296H186.744C186.946 93.88 187.229 93.544 187.592 93.288C187.965 93.032 188.418 92.904 188.952 92.904C190.253 92.904 191.09 93.3947 191.464 94.376C191.666 93.928 191.981 93.5707 192.408 93.304C192.834 93.0373 193.336 92.904 193.912 92.904C194.872 92.904 195.576 93.1707 196.024 93.704C196.472 94.2267 196.696 95.0213 196.696 96.088V101H194.68V96.424C194.68 95.208 194.194 94.6 193.224 94.6C192.722 94.6 192.344 94.7653 192.088 95.096C191.842 95.4267 191.72 95.9013 191.72 96.52V101H189.704V96.424C189.704 95.816 189.586 95.3627 189.352 95.064C189.128 94.7547 188.76 94.6 188.248 94.6C187.768 94.6 187.4 94.7653 187.144 95.096C186.888 95.4267 186.76 95.9013 186.76 96.52V101H184.743V93.096ZM203.289 101.192C202.67 101.192 202.131 101.043 201.673 100.744C201.225 100.445 200.905 100.035 200.713 99.512H200.617V101H198.697V89.4H200.713V94.456H200.809C200.99 93.9973 201.294 93.624 201.721 93.336C202.147 93.048 202.67 92.904 203.289 92.904C203.779 92.904 204.233 93.0053 204.649 93.208C205.075 93.4107 205.438 93.6987 205.737 94.072C206.046 94.4347 206.286 94.872 206.457 95.384C206.627 95.896 206.713 96.4613 206.713 97.08C206.713 97.688 206.627 98.248 206.457 98.76C206.286 99.2613 206.046 99.6933 205.737 100.056C205.438 100.408 205.075 100.685 204.649 100.888C204.233 101.091 203.779 101.192 203.289 101.192ZM202.665 99.432C203.262 99.432 203.742 99.2187 204.105 98.792C204.467 98.3653 204.649 97.784 204.649 97.048C204.649 96.312 204.467 95.7307 204.105 95.304C203.742 94.8773 203.262 94.664 202.665 94.664C202.078 94.664 201.603 94.8773 201.241 95.304C200.889 95.7307 200.713 96.312 200.713 97.048C200.713 97.784 200.889 98.3653 201.241 98.792C201.603 99.2187 202.078 99.432 202.665 99.432ZM212.502 99.288H215.302V92.84L212.886 93.816L212.198 92.312L215.91 90.6H217.43V99.288H219.926V101H212.502V99.288Z" fill="#242E30"/>
<g clip-path="url(#clip2_21145_12952)">
<path d="M228.783 98.8854L232.799 95.0004L228.75 91.1154L229.406 90.3936L233.56 94.4032C233.722 94.5666 233.812 94.7871 233.812 95.0168C233.812 95.2466 233.722 95.467 233.56 95.6304L229.459 99.5942L228.783 98.8854Z" fill="#3C4C4F"/>
</g>
<path d="M243.192 101.192C242.765 101.192 242.44 101.064 242.216 100.808C241.992 100.541 241.88 100.237 241.88 99.896C241.88 99.5653 241.992 99.272 242.216 99.016C242.44 98.7493 242.765 98.616 243.192 98.616C243.619 98.616 243.944 98.7493 244.168 99.016C244.392 99.272 244.504 99.5653 244.504 99.896C244.504 100.237 244.392 100.541 244.168 100.808C243.944 101.064 243.619 101.192 243.192 101.192ZM247.583 101.192C247.156 101.192 246.831 101.064 246.607 100.808C246.383 100.541 246.271 100.237 246.271 99.896C246.271 99.5653 246.383 99.272 246.607 99.016C246.831 98.7493 247.156 98.616 247.583 98.616C248.009 98.616 248.335 98.7493 248.559 99.016C248.783 99.272 248.895 99.5653 248.895 99.896C248.895 100.237 248.783 100.541 248.559 100.808C248.335 101.064 248.009 101.192 247.583 101.192ZM251.973 101.192C251.547 101.192 251.221 101.064 250.997 100.808C250.773 100.541 250.661 100.237 250.661 99.896C250.661 99.5653 250.773 99.272 250.997 99.016C251.221 98.7493 251.547 98.616 251.973 98.616C252.4 98.616 252.725 98.7493 252.949 99.016C253.173 99.272 253.285 99.5653 253.285 99.896C253.285 100.237 253.173 100.541 252.949 100.808C252.725 101.064 252.4 101.192 251.973 101.192Z" fill="#242E30"/>
<g clip-path="url(#clip3_21145_12952)">
<path d="M262.783 98.8854L266.799 95.0004L262.75 91.1154L263.406 90.3936L267.56 94.4032C267.722 94.5666 267.812 94.7871 267.812 95.0168C267.812 95.2466 267.722 95.467 267.56 95.6304L263.459 99.5942L262.783 98.8854Z" fill="#3C4C4F"/>
</g>
<g filter="url(#filter2_ddd_21145_12952)">
<path d="M241 131C241 124.373 246.373 119 253 119H509C515.627 119 521 124.373 521 131V219C521 225.627 515.627 231 509 231H253C246.373 231 241 225.627 241 219V131Z" fill="white"/>
<rect width="264" height="48" transform="translate(249 127)" fill="white"/>
<rect width="264" height="47" transform="translate(249 127)" fill="white" fill-opacity="0.01"/>
<path d="M266.472 146.6H269.848C270.691 146.6 271.368 146.84 271.88 147.32C272.403 147.789 272.664 148.456 272.664 149.32C272.664 149.875 272.504 150.355 272.184 150.76C271.875 151.165 271.469 151.432 270.968 151.56V151.656C271.224 151.699 271.48 151.795 271.736 151.944C271.992 152.083 272.221 152.264 272.424 152.488C272.627 152.701 272.787 152.957 272.904 153.256C273.032 153.544 273.096 153.859 273.096 154.2C273.096 154.627 273.016 155.011 272.856 155.352C272.707 155.693 272.493 155.987 272.216 156.232C271.939 156.477 271.613 156.669 271.24 156.808C270.867 156.936 270.461 157 270.024 157H266.472V146.6ZM269.688 151.16C270.168 151.16 270.552 151.005 270.84 150.696C271.128 150.387 271.272 149.971 271.272 149.448C271.272 148.915 271.128 148.499 270.84 148.2C270.563 147.891 270.184 147.736 269.704 147.736H267.832V151.16H269.688ZM270.008 155.864C270.531 155.864 270.941 155.704 271.24 155.384C271.549 155.064 271.704 154.632 271.704 154.088C271.704 153.523 271.549 153.08 271.24 152.76C270.941 152.44 270.531 152.28 270.008 152.28H267.832V155.864H270.008ZM275.391 149.096H276.607V150.376H276.703C276.874 149.96 277.119 149.613 277.439 149.336C277.759 149.048 278.159 148.904 278.639 148.904C279.045 148.904 279.402 148.984 279.711 149.144L279.279 150.296C279.141 150.221 278.991 150.173 278.831 150.152C278.682 150.12 278.527 150.104 278.367 150.104C277.845 150.104 277.429 150.317 277.119 150.744C276.821 151.16 276.671 151.693 276.671 152.344V157H275.391V149.096ZM284.057 157.192C283.492 157.192 282.975 157.096 282.505 156.904C282.047 156.712 281.652 156.44 281.321 156.088C281.001 155.725 280.751 155.288 280.569 154.776C280.399 154.264 280.313 153.688 280.313 153.048C280.313 152.376 280.404 151.784 280.585 151.272C280.767 150.749 281.017 150.317 281.337 149.976C281.657 149.624 282.036 149.357 282.473 149.176C282.921 148.995 283.412 148.904 283.945 148.904C284.479 148.904 284.969 148.989 285.417 149.16C285.865 149.331 286.249 149.587 286.569 149.928C286.889 150.259 287.14 150.68 287.321 151.192C287.503 151.693 287.593 152.28 287.593 152.952C287.593 153.037 287.588 153.123 287.577 153.208C287.577 153.293 287.572 153.363 287.561 153.416H281.593C281.593 153.789 281.657 154.141 281.785 154.472C281.924 154.792 282.105 155.075 282.329 155.32C282.564 155.555 282.831 155.741 283.129 155.88C283.439 156.019 283.769 156.088 284.121 156.088C284.697 156.088 285.167 155.976 285.529 155.752C285.903 155.528 286.212 155.256 286.457 154.936L287.225 155.72C286.884 156.168 286.457 156.525 285.945 156.792C285.444 157.059 284.815 157.192 284.057 157.192ZM283.945 149.96C283.572 149.96 283.241 150.029 282.953 150.168C282.665 150.307 282.425 150.488 282.233 150.712C282.041 150.936 281.892 151.192 281.785 151.48C281.689 151.768 281.636 152.056 281.625 152.344H286.249C286.239 152.056 286.18 151.768 286.073 151.48C285.977 151.192 285.833 150.936 285.641 150.712C285.449 150.488 285.209 150.307 284.921 150.168C284.644 150.029 284.319 149.96 283.945 149.96ZM291.401 157.192C291.038 157.192 290.702 157.133 290.393 157.016C290.094 156.899 289.833 156.733 289.609 156.52C289.385 156.307 289.209 156.056 289.081 155.768C288.964 155.469 288.905 155.144 288.905 154.792C288.905 154.109 289.15 153.56 289.641 153.144C290.132 152.728 290.83 152.493 291.737 152.44L293.817 152.312V151.752C293.817 151.144 293.668 150.707 293.369 150.44C293.081 150.163 292.665 150.024 292.121 150.024C291.662 150.024 291.268 150.109 290.937 150.28C290.606 150.451 290.35 150.637 290.169 150.84L289.401 150.072C289.678 149.731 290.052 149.453 290.521 149.24C291.001 149.016 291.545 148.904 292.153 148.904C292.697 148.904 293.156 148.979 293.529 149.128C293.902 149.267 294.201 149.459 294.425 149.704C294.66 149.949 294.825 150.237 294.921 150.568C295.028 150.899 295.081 151.251 295.081 151.624V157H293.881V155.656H293.785C293.572 156.136 293.273 156.515 292.889 156.792C292.505 157.059 292.009 157.192 291.401 157.192ZM291.593 156.104C292.254 156.104 292.788 155.912 293.193 155.528C293.609 155.133 293.817 154.611 293.817 153.96V153.272L291.801 153.416C290.734 153.501 290.201 153.949 290.201 154.76C290.201 155.165 290.329 155.491 290.585 155.736C290.852 155.981 291.188 156.104 291.593 156.104ZM300.505 157.192C299.972 157.192 299.492 157.091 299.065 156.888C298.638 156.675 298.27 156.387 297.961 156.024C297.652 155.651 297.412 155.208 297.241 154.696C297.081 154.184 297.001 153.629 297.001 153.032C297.001 152.435 297.081 151.885 297.241 151.384C297.412 150.872 297.652 150.435 297.961 150.072C298.27 149.699 298.638 149.411 299.065 149.208C299.492 149.005 299.972 148.904 300.505 148.904C301.156 148.904 301.716 149.059 302.185 149.368C302.654 149.677 302.99 150.072 303.193 150.552H303.289V145.4H304.569V157H303.353V155.384H303.257C303.161 155.661 303.022 155.912 302.841 156.136C302.67 156.349 302.462 156.536 302.217 156.696C301.982 156.856 301.716 156.979 301.417 157.064C301.129 157.149 300.825 157.192 300.505 157.192ZM300.825 156.04C301.166 156.04 301.486 155.981 301.785 155.864C302.084 155.736 302.345 155.549 302.569 155.304C302.793 155.048 302.969 154.733 303.097 154.36C303.225 153.987 303.289 153.549 303.289 153.048C303.289 152.547 303.225 152.109 303.097 151.736C302.969 151.363 302.793 151.053 302.569 150.808C302.345 150.552 302.084 150.365 301.785 150.248C301.486 150.12 301.166 150.056 300.825 150.056C300.473 150.056 300.142 150.12 299.833 150.248C299.534 150.365 299.268 150.552 299.033 150.808C298.809 151.053 298.633 151.363 298.505 151.736C298.377 152.109 298.313 152.547 298.313 153.048C298.313 153.549 298.377 153.987 298.505 154.36C298.633 154.733 298.809 155.048 299.033 155.304C299.268 155.549 299.534 155.736 299.833 155.864C300.142 155.981 300.473 156.04 300.825 156.04ZM310.29 157.192C309.65 157.192 309.095 157.075 308.626 156.84C308.167 156.605 307.789 156.296 307.49 155.912C307.191 155.528 306.973 155.091 306.834 154.6C306.695 154.099 306.626 153.581 306.626 153.048C306.626 152.515 306.695 152.003 306.834 151.512C306.973 151.011 307.186 150.568 307.474 150.184C307.773 149.8 308.151 149.491 308.61 149.256C309.069 149.021 309.618 148.904 310.258 148.904C310.93 148.904 311.479 149.016 311.906 149.24C312.333 149.464 312.695 149.763 312.994 150.136L312.194 150.888C311.938 150.611 311.666 150.397 311.378 150.248C311.101 150.088 310.738 150.008 310.29 150.008C309.586 150.008 309.015 150.28 308.578 150.824C308.151 151.357 307.938 152.099 307.938 153.048C307.938 153.517 307.997 153.939 308.114 154.312C308.231 154.685 308.397 155.005 308.61 155.272C308.823 155.539 309.074 155.741 309.362 155.88C309.65 156.019 309.97 156.088 310.322 156.088C310.749 156.088 311.117 156.013 311.426 155.864C311.735 155.704 312.023 155.475 312.29 155.176L313.058 155.944C312.749 156.317 312.37 156.621 311.922 156.856C311.474 157.08 310.93 157.192 310.29 157.192ZM314.923 149.096H316.139V150.376H316.235C316.405 149.96 316.651 149.613 316.971 149.336C317.291 149.048 317.691 148.904 318.171 148.904C318.576 148.904 318.933 148.984 319.243 149.144L318.811 150.296C318.672 150.221 318.523 150.173 318.363 150.152C318.213 150.12 318.059 150.104 317.899 150.104C317.376 150.104 316.96 150.317 316.651 150.744C316.352 151.16 316.203 151.693 316.203 152.344V157H314.923V149.096ZM323.611 157.192C323.174 157.192 322.779 157.133 322.427 157.016C322.075 156.899 321.771 156.717 321.515 156.472C321.27 156.227 321.078 155.912 320.939 155.528C320.801 155.144 320.731 154.685 320.731 154.152V149.096H322.011V153.912C322.011 154.723 322.166 155.299 322.475 155.64C322.795 155.971 323.259 156.136 323.867 156.136C324.443 156.136 324.897 155.928 325.227 155.512C325.569 155.096 325.739 154.488 325.739 153.688V149.096H327.019V157H325.803V155.752H325.707C325.515 156.168 325.249 156.515 324.907 156.792C324.577 157.059 324.145 157.192 323.611 157.192ZM329.735 149.096H330.951V150.344H331.047C331.239 149.928 331.506 149.587 331.847 149.32C332.199 149.043 332.636 148.904 333.159 148.904C333.788 148.904 334.316 149.021 334.743 149.256C335.18 149.48 335.506 149.821 335.719 150.28C335.954 149.832 336.268 149.491 336.663 149.256C337.058 149.021 337.559 148.904 338.167 148.904C338.604 148.904 338.999 148.963 339.351 149.08C339.703 149.197 340.002 149.379 340.247 149.624C340.503 149.869 340.695 150.184 340.823 150.568C340.962 150.952 341.031 151.411 341.031 151.944V157H339.751V152.184C339.751 151.373 339.591 150.803 339.271 150.472C338.962 150.131 338.503 149.96 337.895 149.96C337.308 149.96 336.85 150.168 336.519 150.584C336.188 151 336.023 151.608 336.023 152.408V157H334.743V152.184C334.743 151.373 334.583 150.803 334.263 150.472C333.954 150.131 333.495 149.96 332.887 149.96C332.311 149.96 331.852 150.168 331.511 150.584C331.18 151 331.015 151.608 331.015 152.408V157H329.735V149.096ZM347.674 157.192C347.354 157.192 347.045 157.149 346.746 157.064C346.458 156.979 346.191 156.856 345.946 156.696C345.711 156.536 345.503 156.349 345.322 156.136C345.151 155.912 345.018 155.661 344.922 155.384H344.826V157H343.61V145.4H344.89V150.552H344.986C345.189 150.072 345.525 149.677 345.994 149.368C346.463 149.059 347.023 148.904 347.674 148.904C348.197 148.904 348.671 149.005 349.098 149.208C349.535 149.411 349.909 149.699 350.218 150.072C350.527 150.435 350.762 150.872 350.922 151.384C351.093 151.885 351.178 152.435 351.178 153.032C351.178 153.629 351.093 154.184 350.922 154.696C350.762 155.208 350.527 155.651 350.218 156.024C349.909 156.387 349.535 156.675 349.098 156.888C348.671 157.091 348.197 157.192 347.674 157.192ZM347.354 156.04C347.706 156.04 348.031 155.981 348.33 155.864C348.639 155.736 348.906 155.549 349.13 155.304C349.365 155.048 349.546 154.733 349.674 154.36C349.802 153.987 349.866 153.549 349.866 153.048C349.866 152.547 349.802 152.109 349.674 151.736C349.546 151.363 349.365 151.053 349.13 150.808C348.906 150.552 348.639 150.365 348.33 150.248C348.031 150.12 347.706 150.056 347.354 150.056C347.013 150.056 346.693 150.12 346.394 150.248C346.095 150.365 345.834 150.552 345.61 150.808C345.386 151.053 345.21 151.363 345.082 151.736C344.954 152.109 344.89 152.547 344.89 153.048C344.89 153.549 344.954 153.987 345.082 154.36C345.21 154.733 345.386 155.048 345.61 155.304C345.834 155.549 346.095 155.736 346.394 155.864C346.693 155.981 347.013 156.04 347.354 156.04ZM357.287 155.272C357.287 154.845 357.361 154.472 357.511 154.152C357.66 153.821 357.863 153.523 358.119 153.256C358.385 152.979 358.695 152.723 359.047 152.488C359.409 152.253 359.799 152.013 360.215 151.768C360.545 151.565 360.839 151.379 361.095 151.208C361.351 151.027 361.564 150.84 361.735 150.648C361.905 150.456 362.033 150.253 362.119 150.04C362.204 149.827 362.247 149.581 362.247 149.304C362.247 148.739 362.065 148.312 361.703 148.024C361.351 147.725 360.897 147.576 360.343 147.576C359.788 147.576 359.308 147.688 358.903 147.912C358.497 148.125 358.156 148.413 357.879 148.776L357.143 148.008C357.463 147.528 357.884 147.144 358.407 146.856C358.929 146.557 359.559 146.408 360.295 146.408C360.839 146.408 361.319 146.483 361.735 146.632C362.151 146.771 362.497 146.968 362.775 147.224C363.063 147.469 363.276 147.768 363.415 148.12C363.564 148.461 363.639 148.835 363.639 149.24C363.639 149.699 363.559 150.104 363.399 150.456C363.239 150.808 363.025 151.128 362.759 151.416C362.492 151.704 362.183 151.965 361.831 152.2C361.489 152.424 361.127 152.643 360.743 152.856C360.401 153.048 360.097 153.229 359.831 153.4C359.564 153.571 359.34 153.752 359.159 153.944C358.988 154.136 358.855 154.349 358.759 154.584C358.673 154.819 358.631 155.096 358.631 155.416V155.848H363.895V157H357.287V155.272Z" fill="#242E30"/>
<rect width="264" height="1" transform="translate(249 174)" fill="black" fill-opacity="0.08"/>
<rect width="264" height="48" transform="translate(249 175)" fill="white"/>
<rect width="264" height="47" transform="translate(249 175)" fill="white" fill-opacity="0.01"/>
<path d="M266.472 194.6H269.848C270.691 194.6 271.368 194.84 271.88 195.32C272.403 195.789 272.664 196.456 272.664 197.32C272.664 197.875 272.504 198.355 272.184 198.76C271.875 199.165 271.469 199.432 270.968 199.56V199.656C271.224 199.699 271.48 199.795 271.736 199.944C271.992 200.083 272.221 200.264 272.424 200.488C272.627 200.701 272.787 200.957 272.904 201.256C273.032 201.544 273.096 201.859 273.096 202.2C273.096 202.627 273.016 203.011 272.856 203.352C272.707 203.693 272.493 203.987 272.216 204.232C271.939 204.477 271.613 204.669 271.24 204.808C270.867 204.936 270.461 205 270.024 205H266.472V194.6ZM269.688 199.16C270.168 199.16 270.552 199.005 270.84 198.696C271.128 198.387 271.272 197.971 271.272 197.448C271.272 196.915 271.128 196.499 270.84 196.2C270.563 195.891 270.184 195.736 269.704 195.736H267.832V199.16H269.688ZM270.008 203.864C270.531 203.864 270.941 203.704 271.24 203.384C271.549 203.064 271.704 202.632 271.704 202.088C271.704 201.523 271.549 201.08 271.24 200.76C270.941 200.44 270.531 200.28 270.008 200.28H267.832V203.864H270.008ZM275.391 197.096H276.607V198.376H276.703C276.874 197.96 277.119 197.613 277.439 197.336C277.759 197.048 278.159 196.904 278.639 196.904C279.045 196.904 279.402 196.984 279.711 197.144L279.279 198.296C279.141 198.221 278.991 198.173 278.831 198.152C278.682 198.12 278.527 198.104 278.367 198.104C277.845 198.104 277.429 198.317 277.119 198.744C276.821 199.16 276.671 199.693 276.671 200.344V205H275.391V197.096ZM284.057 205.192C283.492 205.192 282.975 205.096 282.505 204.904C282.047 204.712 281.652 204.44 281.321 204.088C281.001 203.725 280.751 203.288 280.569 202.776C280.399 202.264 280.313 201.688 280.313 201.048C280.313 200.376 280.404 199.784 280.585 199.272C280.767 198.749 281.017 198.317 281.337 197.976C281.657 197.624 282.036 197.357 282.473 197.176C282.921 196.995 283.412 196.904 283.945 196.904C284.479 196.904 284.969 196.989 285.417 197.16C285.865 197.331 286.249 197.587 286.569 197.928C286.889 198.259 287.14 198.68 287.321 199.192C287.503 199.693 287.593 200.28 287.593 200.952C287.593 201.037 287.588 201.123 287.577 201.208C287.577 201.293 287.572 201.363 287.561 201.416H281.593C281.593 201.789 281.657 202.141 281.785 202.472C281.924 202.792 282.105 203.075 282.329 203.32C282.564 203.555 282.831 203.741 283.129 203.88C283.439 204.019 283.769 204.088 284.121 204.088C284.697 204.088 285.167 203.976 285.529 203.752C285.903 203.528 286.212 203.256 286.457 202.936L287.225 203.72C286.884 204.168 286.457 204.525 285.945 204.792C285.444 205.059 284.815 205.192 284.057 205.192ZM283.945 197.96C283.572 197.96 283.241 198.029 282.953 198.168C282.665 198.307 282.425 198.488 282.233 198.712C282.041 198.936 281.892 199.192 281.785 199.48C281.689 199.768 281.636 200.056 281.625 200.344H286.249C286.239 200.056 286.18 199.768 286.073 199.48C285.977 199.192 285.833 198.936 285.641 198.712C285.449 198.488 285.209 198.307 284.921 198.168C284.644 198.029 284.319 197.96 283.945 197.96ZM291.401 205.192C291.038 205.192 290.702 205.133 290.393 205.016C290.094 204.899 289.833 204.733 289.609 204.52C289.385 204.307 289.209 204.056 289.081 203.768C288.964 203.469 288.905 203.144 288.905 202.792C288.905 202.109 289.15 201.56 289.641 201.144C290.132 200.728 290.83 200.493 291.737 200.44L293.817 200.312V199.752C293.817 199.144 293.668 198.707 293.369 198.44C293.081 198.163 292.665 198.024 292.121 198.024C291.662 198.024 291.268 198.109 290.937 198.28C290.606 198.451 290.35 198.637 290.169 198.84L289.401 198.072C289.678 197.731 290.052 197.453 290.521 197.24C291.001 197.016 291.545 196.904 292.153 196.904C292.697 196.904 293.156 196.979 293.529 197.128C293.902 197.267 294.201 197.459 294.425 197.704C294.66 197.949 294.825 198.237 294.921 198.568C295.028 198.899 295.081 199.251 295.081 199.624V205H293.881V203.656H293.785C293.572 204.136 293.273 204.515 292.889 204.792C292.505 205.059 292.009 205.192 291.401 205.192ZM291.593 204.104C292.254 204.104 292.788 203.912 293.193 203.528C293.609 203.133 293.817 202.611 293.817 201.96V201.272L291.801 201.416C290.734 201.501 290.201 201.949 290.201 202.76C290.201 203.165 290.329 203.491 290.585 203.736C290.852 203.981 291.188 204.104 291.593 204.104ZM300.505 205.192C299.972 205.192 299.492 205.091 299.065 204.888C298.638 204.675 298.27 204.387 297.961 204.024C297.652 203.651 297.412 203.208 297.241 202.696C297.081 202.184 297.001 201.629 297.001 201.032C297.001 200.435 297.081 199.885 297.241 199.384C297.412 198.872 297.652 198.435 297.961 198.072C298.27 197.699 298.638 197.411 299.065 197.208C299.492 197.005 299.972 196.904 300.505 196.904C301.156 196.904 301.716 197.059 302.185 197.368C302.654 197.677 302.99 198.072 303.193 198.552H303.289V193.4H304.569V205H303.353V203.384H303.257C303.161 203.661 303.022 203.912 302.841 204.136C302.67 204.349 302.462 204.536 302.217 204.696C301.982 204.856 301.716 204.979 301.417 205.064C301.129 205.149 300.825 205.192 300.505 205.192ZM300.825 204.04C301.166 204.04 301.486 203.981 301.785 203.864C302.084 203.736 302.345 203.549 302.569 203.304C302.793 203.048 302.969 202.733 303.097 202.36C303.225 201.987 303.289 201.549 303.289 201.048C303.289 200.547 303.225 200.109 303.097 199.736C302.969 199.363 302.793 199.053 302.569 198.808C302.345 198.552 302.084 198.365 301.785 198.248C301.486 198.12 301.166 198.056 300.825 198.056C300.473 198.056 300.142 198.12 299.833 198.248C299.534 198.365 299.268 198.552 299.033 198.808C298.809 199.053 298.633 199.363 298.505 199.736C298.377 200.109 298.313 200.547 298.313 201.048C298.313 201.549 298.377 201.987 298.505 202.36C298.633 202.733 298.809 203.048 299.033 203.304C299.268 203.549 299.534 203.736 299.833 203.864C300.142 203.981 300.473 204.04 300.825 204.04ZM310.29 205.192C309.65 205.192 309.095 205.075 308.626 204.84C308.167 204.605 307.789 204.296 307.49 203.912C307.191 203.528 306.973 203.091 306.834 202.6C306.695 202.099 306.626 201.581 306.626 201.048C306.626 200.515 306.695 200.003 306.834 199.512C306.973 199.011 307.186 198.568 307.474 198.184C307.773 197.8 308.151 197.491 308.61 197.256C309.069 197.021 309.618 196.904 310.258 196.904C310.93 196.904 311.479 197.016 311.906 197.24C312.333 197.464 312.695 197.763 312.994 198.136L312.194 198.888C311.938 198.611 311.666 198.397 311.378 198.248C311.101 198.088 310.738 198.008 310.29 198.008C309.586 198.008 309.015 198.28 308.578 198.824C308.151 199.357 307.938 200.099 307.938 201.048C307.938 201.517 307.997 201.939 308.114 202.312C308.231 202.685 308.397 203.005 308.61 203.272C308.823 203.539 309.074 203.741 309.362 203.88C309.65 204.019 309.97 204.088 310.322 204.088C310.749 204.088 311.117 204.013 311.426 203.864C311.735 203.704 312.023 203.475 312.29 203.176L313.058 203.944C312.749 204.317 312.37 204.621 311.922 204.856C311.474 205.08 310.93 205.192 310.29 205.192ZM314.923 197.096H316.139V198.376H316.235C316.405 197.96 316.651 197.613 316.971 197.336C317.291 197.048 317.691 196.904 318.171 196.904C318.576 196.904 318.933 196.984 319.243 197.144L318.811 198.296C318.672 198.221 318.523 198.173 318.363 198.152C318.213 198.12 318.059 198.104 317.899 198.104C317.376 198.104 316.96 198.317 316.651 198.744C316.352 199.16 316.203 199.693 316.203 200.344V205H314.923V197.096ZM323.611 205.192C323.174 205.192 322.779 205.133 322.427 205.016C322.075 204.899 321.771 204.717 321.515 204.472C321.27 204.227 321.078 203.912 320.939 203.528C320.801 203.144 320.731 202.685 320.731 202.152V197.096H322.011V201.912C322.011 202.723 322.166 203.299 322.475 203.64C322.795 203.971 323.259 204.136 323.867 204.136C324.443 204.136 324.897 203.928 325.227 203.512C325.569 203.096 325.739 202.488 325.739 201.688V197.096H327.019V205H325.803V203.752H325.707C325.515 204.168 325.249 204.515 324.907 204.792C324.577 205.059 324.145 205.192 323.611 205.192ZM329.735 197.096H330.951V198.344H331.047C331.239 197.928 331.506 197.587 331.847 197.32C332.199 197.043 332.636 196.904 333.159 196.904C333.788 196.904 334.316 197.021 334.743 197.256C335.18 197.48 335.506 197.821 335.719 198.28C335.954 197.832 336.268 197.491 336.663 197.256C337.058 197.021 337.559 196.904 338.167 196.904C338.604 196.904 338.999 196.963 339.351 197.08C339.703 197.197 340.002 197.379 340.247 197.624C340.503 197.869 340.695 198.184 340.823 198.568C340.962 198.952 341.031 199.411 341.031 199.944V205H339.751V200.184C339.751 199.373 339.591 198.803 339.271 198.472C338.962 198.131 338.503 197.96 337.895 197.96C337.308 197.96 336.85 198.168 336.519 198.584C336.188 199 336.023 199.608 336.023 200.408V205H334.743V200.184C334.743 199.373 334.583 198.803 334.263 198.472C333.954 198.131 333.495 197.96 332.887 197.96C332.311 197.96 331.852 198.168 331.511 198.584C331.18 199 331.015 199.608 331.015 200.408V205H329.735V197.096ZM347.674 205.192C347.354 205.192 347.045 205.149 346.746 205.064C346.458 204.979 346.191 204.856 345.946 204.696C345.711 204.536 345.503 204.349 345.322 204.136C345.151 203.912 345.018 203.661 344.922 203.384H344.826V205H343.61V193.4H344.89V198.552H344.986C345.189 198.072 345.525 197.677 345.994 197.368C346.463 197.059 347.023 196.904 347.674 196.904C348.197 196.904 348.671 197.005 349.098 197.208C349.535 197.411 349.909 197.699 350.218 198.072C350.527 198.435 350.762 198.872 350.922 199.384C351.093 199.885 351.178 200.435 351.178 201.032C351.178 201.629 351.093 202.184 350.922 202.696C350.762 203.208 350.527 203.651 350.218 204.024C349.909 204.387 349.535 204.675 349.098 204.888C348.671 205.091 348.197 205.192 347.674 205.192ZM347.354 204.04C347.706 204.04 348.031 203.981 348.33 203.864C348.639 203.736 348.906 203.549 349.13 203.304C349.365 203.048 349.546 202.733 349.674 202.36C349.802 201.987 349.866 201.549 349.866 201.048C349.866 200.547 349.802 200.109 349.674 199.736C349.546 199.363 349.365 199.053 349.13 198.808C348.906 198.552 348.639 198.365 348.33 198.248C348.031 198.12 347.706 198.056 347.354 198.056C347.013 198.056 346.693 198.12 346.394 198.248C346.095 198.365 345.834 198.552 345.61 198.808C345.386 199.053 345.21 199.363 345.082 199.736C344.954 200.109 344.89 200.547 344.89 201.048C344.89 201.549 344.954 201.987 345.082 202.36C345.21 202.733 345.386 203.048 345.61 203.304C345.834 203.549 346.095 203.736 346.394 203.864C346.693 203.981 347.013 204.04 347.354 204.04ZM360.135 205.192C359.367 205.192 358.721 205.053 358.199 204.776C357.687 204.499 357.271 204.152 356.951 203.736L357.767 202.936C358.012 203.245 358.316 203.501 358.679 203.704C359.052 203.907 359.521 204.008 360.087 204.008C360.769 204.008 361.308 203.848 361.703 203.528C362.097 203.197 362.295 202.712 362.295 202.072C362.295 201.453 362.092 201 361.687 200.712C361.281 200.424 360.764 200.28 360.135 200.28H359.175V199.128H360.087C360.716 199.128 361.18 198.963 361.479 198.632C361.788 198.301 361.943 197.869 361.943 197.336C361.943 197.027 361.889 196.765 361.783 196.552C361.687 196.328 361.548 196.147 361.367 196.008C361.196 195.859 360.993 195.752 360.759 195.688C360.535 195.624 360.3 195.592 360.055 195.592C359.564 195.592 359.137 195.688 358.775 195.88C358.412 196.072 358.108 196.312 357.863 196.6L357.127 195.8C357.436 195.416 357.836 195.091 358.327 194.824C358.828 194.547 359.431 194.408 360.135 194.408C360.561 194.408 360.967 194.472 361.351 194.6C361.745 194.717 362.087 194.893 362.375 195.128C362.673 195.352 362.908 195.64 363.079 195.992C363.249 196.333 363.335 196.728 363.335 197.176C363.335 197.773 363.18 198.28 362.871 198.696C362.561 199.101 362.119 199.405 361.543 199.608V199.704C361.831 199.757 362.103 199.853 362.359 199.992C362.625 200.12 362.855 200.291 363.047 200.504C363.249 200.707 363.404 200.952 363.511 201.24C363.628 201.528 363.687 201.848 363.687 202.2C363.687 202.659 363.601 203.075 363.431 203.448C363.271 203.811 363.036 204.125 362.727 204.392C362.417 204.648 362.044 204.845 361.607 204.984C361.169 205.123 360.679 205.192 360.135 205.192Z" fill="#242E30"/>
</g>
<path d="M276.168 90.6H280.216C281.176 90.6 281.912 90.8613 282.424 91.384C282.947 91.896 283.208 92.5787 283.208 93.432C283.208 93.6667 283.165 93.896 283.08 94.12C282.995 94.344 282.877 94.552 282.728 94.744C282.579 94.936 282.397 95.1067 282.184 95.256C281.981 95.4053 281.757 95.5173 281.512 95.592V95.688C281.768 95.72 282.024 95.8053 282.28 95.944C282.536 96.0827 282.76 96.2587 282.952 96.472C283.155 96.6853 283.32 96.9307 283.448 97.208C283.576 97.4853 283.64 97.7733 283.64 98.072C283.64 98.9467 283.347 99.656 282.76 100.2C282.184 100.733 281.352 101 280.264 101H276.168V90.6ZM279.848 94.952C280.211 94.952 280.499 94.8293 280.712 94.584C280.936 94.3387 281.048 94.008 281.048 93.592C281.048 93.1867 280.936 92.8613 280.712 92.616C280.499 92.36 280.211 92.232 279.848 92.232H278.312V94.952H279.848ZM280.104 99.368C280.541 99.368 280.883 99.2453 281.128 99C281.373 98.744 281.496 98.3867 281.496 97.928C281.496 97.4587 281.373 97.1013 281.128 96.856C280.883 96.6 280.541 96.472 280.104 96.472H278.312V99.368H280.104ZM285.368 93.096H287.273V94.424H287.369C287.529 93.9653 287.774 93.5973 288.105 93.32C288.446 93.0427 288.873 92.904 289.385 92.904C289.779 92.904 290.147 92.968 290.489 93.096L289.929 94.936C289.811 94.8613 289.673 94.808 289.513 94.776C289.353 94.744 289.198 94.728 289.049 94.728C288.558 94.728 288.158 94.8987 287.849 95.24C287.539 95.5707 287.385 96.04 287.385 96.648V101H285.368V93.096ZM294.839 101.192C294.178 101.192 293.602 101.085 293.111 100.872C292.621 100.659 292.205 100.365 291.863 99.992C291.533 99.608 291.282 99.1653 291.111 98.664C290.951 98.1627 290.871 97.624 290.871 97.048C290.871 96.4613 290.951 95.9173 291.111 95.416C291.271 94.904 291.511 94.4667 291.831 94.104C292.151 93.7307 292.551 93.4373 293.031 93.224C293.511 93.0107 294.071 92.904 294.711 92.904C295.351 92.904 295.911 93.0053 296.391 93.208C296.871 93.4107 297.266 93.6933 297.575 94.056C297.885 94.4187 298.114 94.8507 298.263 95.352C298.423 95.8427 298.503 96.3813 298.503 96.968C298.503 97.0747 298.493 97.1973 298.471 97.336C298.461 97.4747 298.445 97.5867 298.423 97.672H292.919C292.951 97.96 293.026 98.2213 293.143 98.456C293.271 98.68 293.426 98.872 293.607 99.032C293.799 99.192 294.007 99.3147 294.231 99.4C294.466 99.4747 294.706 99.512 294.951 99.512C295.41 99.512 295.794 99.432 296.103 99.272C296.413 99.112 296.663 98.9093 296.855 98.664L297.991 99.848C297.693 100.253 297.277 100.579 296.743 100.824C296.21 101.069 295.575 101.192 294.839 101.192ZM294.711 94.44C294.199 94.44 293.783 94.6053 293.463 94.936C293.143 95.2667 292.957 95.704 292.903 96.248H296.487C296.434 95.704 296.247 95.2667 295.927 94.936C295.618 94.6053 295.213 94.44 294.711 94.44ZM302.04 101.192C301.688 101.192 301.352 101.133 301.032 101.016C300.722 100.909 300.45 100.755 300.216 100.552C299.981 100.339 299.794 100.083 299.656 99.784C299.528 99.4853 299.464 99.1493 299.464 98.776C299.464 98.072 299.714 97.512 300.216 97.096C300.717 96.68 301.48 96.4453 302.504 96.392L304.36 96.28V95.96C304.36 95.448 304.205 95.096 303.896 94.904C303.586 94.712 303.202 94.616 302.744 94.616C302.381 94.616 302.04 94.6853 301.72 94.824C301.4 94.952 301.16 95.112 301 95.304L299.864 94.152C300.141 93.7893 300.541 93.4907 301.064 93.256C301.597 93.0213 302.248 92.904 303.016 92.904C304.146 92.904 304.989 93.1653 305.544 93.688C306.098 94.2107 306.376 94.92 306.376 95.816V101H304.472V99.736H304.376C304.173 100.184 303.88 100.541 303.496 100.808C303.112 101.064 302.626 101.192 302.04 101.192ZM302.632 99.736C303.144 99.736 303.56 99.592 303.88 99.304C304.2 99.0053 304.36 98.5893 304.36 98.056V97.528L302.744 97.656C301.912 97.7093 301.496 98.0613 301.496 98.712C301.496 99.0427 301.602 99.2987 301.816 99.48C302.029 99.6507 302.301 99.736 302.632 99.736ZM311.249 101.192C310.748 101.192 310.289 101.091 309.873 100.888C309.457 100.685 309.1 100.408 308.801 100.056C308.502 99.6933 308.268 99.2613 308.097 98.76C307.926 98.248 307.841 97.688 307.841 97.08C307.841 96.4613 307.926 95.896 308.097 95.384C308.268 94.872 308.502 94.4347 308.801 94.072C309.1 93.6987 309.457 93.4107 309.873 93.208C310.289 93.0053 310.748 92.904 311.249 92.904C311.868 92.904 312.385 93.048 312.801 93.336C313.228 93.624 313.532 93.9973 313.713 94.456H313.809V89.4H315.825V101H313.921V99.512H313.825C313.633 100.035 313.308 100.445 312.849 100.744C312.401 101.043 311.868 101.192 311.249 101.192ZM311.857 99.432C312.454 99.432 312.929 99.2187 313.281 98.792C313.633 98.3653 313.809 97.784 313.809 97.048C313.809 96.312 313.633 95.7307 313.281 95.304C312.929 94.8773 312.454 94.664 311.857 94.664C311.26 94.664 310.785 94.8773 310.433 95.304C310.081 95.7307 309.905 96.312 309.905 97.048C309.905 97.784 310.081 98.3653 310.433 98.792C310.785 99.2187 311.26 99.432 311.857 99.432ZM321.275 101.192C320.603 101.192 320.021 101.08 319.531 100.856C319.051 100.621 318.656 100.312 318.347 99.928C318.037 99.544 317.808 99.1067 317.659 98.616C317.509 98.1147 317.435 97.592 317.435 97.048C317.435 96.504 317.504 95.9867 317.643 95.496C317.792 94.9947 318.016 94.552 318.315 94.168C318.624 93.784 319.019 93.48 319.499 93.256C319.979 93.0213 320.549 92.904 321.211 92.904C321.872 92.904 322.432 93.0213 322.891 93.256C323.36 93.4907 323.744 93.7893 324.043 94.152L322.699 95.368C322.517 95.144 322.315 94.9733 322.091 94.856C321.867 94.728 321.584 94.664 321.243 94.664C320.688 94.664 320.256 94.8773 319.947 95.304C319.637 95.72 319.483 96.3013 319.483 97.048C319.483 97.7947 319.643 98.3813 319.963 98.808C320.283 99.224 320.72 99.432 321.275 99.432C321.605 99.432 321.893 99.368 322.139 99.24C322.384 99.112 322.597 98.9307 322.779 98.696L324.107 99.928C323.808 100.291 323.419 100.595 322.939 100.84C322.469 101.075 321.915 101.192 321.275 101.192ZM325.493 93.096H327.398V94.424H327.494C327.654 93.9653 327.899 93.5973 328.23 93.32C328.571 93.0427 328.998 92.904 329.51 92.904C329.904 92.904 330.272 92.968 330.614 93.096L330.054 94.936C329.936 94.8613 329.798 94.808 329.638 94.776C329.478 94.744 329.323 94.728 329.174 94.728C328.683 94.728 328.283 94.8987 327.974 95.24C327.664 95.5707 327.51 96.04 327.51 96.648V101H325.493V93.096ZM334.446 101.192C333.476 101.192 332.772 100.931 332.334 100.408C331.897 99.8747 331.678 99.0747 331.678 98.008V93.096H333.694V97.608C333.694 98.248 333.806 98.7227 334.03 99.032C334.254 99.3413 334.622 99.496 335.134 99.496C335.625 99.496 335.993 99.3307 336.238 99C336.494 98.6587 336.622 98.168 336.622 97.528V93.096H338.638V101H336.734V99.72H336.638C336.457 100.147 336.18 100.499 335.806 100.776C335.433 101.053 334.98 101.192 334.446 101.192ZM340.743 93.096H342.648V94.296H342.744C342.946 93.88 343.229 93.544 343.592 93.288C343.965 93.032 344.418 92.904 344.952 92.904C346.253 92.904 347.09 93.3947 347.464 94.376C347.666 93.928 347.981 93.5707 348.408 93.304C348.834 93.0373 349.336 92.904 349.912 92.904C350.872 92.904 351.576 93.1707 352.024 93.704C352.472 94.2267 352.696 95.0213 352.696 96.088V101H350.68V96.424C350.68 95.208 350.194 94.6 349.224 94.6C348.722 94.6 348.344 94.7653 348.088 95.096C347.842 95.4267 347.72 95.9013 347.72 96.52V101H345.704V96.424C345.704 95.816 345.586 95.3627 345.352 95.064C345.128 94.7547 344.76 94.6 344.248 94.6C343.768 94.6 343.4 94.7653 343.144 95.096C342.888 95.4267 342.76 95.9013 342.76 96.52V101H340.743V93.096ZM359.289 101.192C358.67 101.192 358.131 101.043 357.673 100.744C357.225 100.445 356.905 100.035 356.713 99.512H356.617V101H354.697V89.4H356.713V94.456H356.809C356.99 93.9973 357.294 93.624 357.721 93.336C358.147 93.048 358.67 92.904 359.289 92.904C359.779 92.904 360.233 93.0053 360.649 93.208C361.075 93.4107 361.438 93.6987 361.737 94.072C362.046 94.4347 362.286 94.872 362.457 95.384C362.627 95.896 362.713 96.4613 362.713 97.08C362.713 97.688 362.627 98.248 362.457 98.76C362.286 99.2613 362.046 99.6933 361.737 100.056C361.438 100.408 361.075 100.685 360.649 100.888C360.233 101.091 359.779 101.192 359.289 101.192ZM358.665 99.432C359.262 99.432 359.742 99.2187 360.105 98.792C360.467 98.3653 360.649 97.784 360.649 97.048C360.649 96.312 360.467 95.7307 360.105 95.304C359.742 94.8773 359.262 94.664 358.665 94.664C358.078 94.664 357.603 94.8773 357.241 95.304C356.889 95.7307 356.713 96.312 356.713 97.048C356.713 97.784 356.889 98.3653 357.241 98.792C357.603 99.2187 358.078 99.432 358.665 99.432ZM372.758 99.064H367.766V97.544L372.086 90.6H374.406L370.182 97.352H372.758V94.776H374.838V97.352H376.15V99.064H374.838V101H372.758V99.064Z" fill="#242E30"/>
<g clip-path="url(#clip4_21145_12952)">
<path d="M384.783 98.8854L388.799 95.0004L384.75 91.1154L385.406 90.3936L389.56 94.4032C389.722 94.5666 389.812 94.7871 389.812 95.0168C389.812 95.2466 389.722 95.467 389.56 95.6304L385.459 99.5942L384.783 98.8854Z" fill="#3C4C4F"/>
</g>
<path d="M398.168 90.6H402.216C403.176 90.6 403.912 90.8613 404.424 91.384C404.947 91.896 405.208 92.5787 405.208 93.432C405.208 93.6667 405.165 93.896 405.08 94.12C404.995 94.344 404.877 94.552 404.728 94.744C404.579 94.936 404.397 95.1067 404.184 95.256C403.981 95.4053 403.757 95.5173 403.512 95.592V95.688C403.768 95.72 404.024 95.8053 404.28 95.944C404.536 96.0827 404.76 96.2587 404.952 96.472C405.155 96.6853 405.32 96.9307 405.448 97.208C405.576 97.4853 405.64 97.7733 405.64 98.072C405.64 98.9467 405.347 99.656 404.76 100.2C404.184 100.733 403.352 101 402.264 101H398.168V90.6ZM401.848 94.952C402.211 94.952 402.499 94.8293 402.712 94.584C402.936 94.3387 403.048 94.008 403.048 93.592C403.048 93.1867 402.936 92.8613 402.712 92.616C402.499 92.36 402.211 92.232 401.848 92.232H400.312V94.952H401.848ZM402.104 99.368C402.541 99.368 402.883 99.2453 403.128 99C403.373 98.744 403.496 98.3867 403.496 97.928C403.496 97.4587 403.373 97.1013 403.128 96.856C402.883 96.6 402.541 96.472 402.104 96.472H400.312V99.368H402.104ZM407.368 93.096H409.273V94.424H409.369C409.529 93.9653 409.774 93.5973 410.105 93.32C410.446 93.0427 410.873 92.904 411.385 92.904C411.779 92.904 412.147 92.968 412.489 93.096L411.929 94.936C411.811 94.8613 411.673 94.808 411.513 94.776C411.353 94.744 411.198 94.728 411.049 94.728C410.558 94.728 410.158 94.8987 409.849 95.24C409.539 95.5707 409.385 96.04 409.385 96.648V101H407.368V93.096ZM416.839 101.192C416.178 101.192 415.602 101.085 415.111 100.872C414.621 100.659 414.205 100.365 413.863 99.992C413.533 99.608 413.282 99.1653 413.111 98.664C412.951 98.1627 412.871 97.624 412.871 97.048C412.871 96.4613 412.951 95.9173 413.111 95.416C413.271 94.904 413.511 94.4667 413.831 94.104C414.151 93.7307 414.551 93.4373 415.031 93.224C415.511 93.0107 416.071 92.904 416.711 92.904C417.351 92.904 417.911 93.0053 418.391 93.208C418.871 93.4107 419.266 93.6933 419.575 94.056C419.885 94.4187 420.114 94.8507 420.263 95.352C420.423 95.8427 420.503 96.3813 420.503 96.968C420.503 97.0747 420.493 97.1973 420.471 97.336C420.461 97.4747 420.445 97.5867 420.423 97.672H414.919C414.951 97.96 415.026 98.2213 415.143 98.456C415.271 98.68 415.426 98.872 415.607 99.032C415.799 99.192 416.007 99.3147 416.231 99.4C416.466 99.4747 416.706 99.512 416.951 99.512C417.41 99.512 417.794 99.432 418.103 99.272C418.413 99.112 418.663 98.9093 418.855 98.664L419.991 99.848C419.693 100.253 419.277 100.579 418.743 100.824C418.21 101.069 417.575 101.192 416.839 101.192ZM416.711 94.44C416.199 94.44 415.783 94.6053 415.463 94.936C415.143 95.2667 414.957 95.704 414.903 96.248H418.487C418.434 95.704 418.247 95.2667 417.927 94.936C417.618 94.6053 417.213 94.44 416.711 94.44ZM424.04 101.192C423.688 101.192 423.352 101.133 423.032 101.016C422.722 100.909 422.45 100.755 422.216 100.552C421.981 100.339 421.794 100.083 421.656 99.784C421.528 99.4853 421.464 99.1493 421.464 98.776C421.464 98.072 421.714 97.512 422.216 97.096C422.717 96.68 423.48 96.4453 424.504 96.392L426.36 96.28V95.96C426.36 95.448 426.205 95.096 425.896 94.904C425.586 94.712 425.202 94.616 424.744 94.616C424.381 94.616 424.04 94.6853 423.72 94.824C423.4 94.952 423.16 95.112 423 95.304L421.864 94.152C422.141 93.7893 422.541 93.4907 423.064 93.256C423.597 93.0213 424.248 92.904 425.016 92.904C426.146 92.904 426.989 93.1653 427.544 93.688C428.098 94.2107 428.376 94.92 428.376 95.816V101H426.472V99.736H426.376C426.173 100.184 425.88 100.541 425.496 100.808C425.112 101.064 424.626 101.192 424.04 101.192ZM424.632 99.736C425.144 99.736 425.56 99.592 425.88 99.304C426.2 99.0053 426.36 98.5893 426.36 98.056V97.528L424.744 97.656C423.912 97.7093 423.496 98.0613 423.496 98.712C423.496 99.0427 423.602 99.2987 423.816 99.48C424.029 99.6507 424.301 99.736 424.632 99.736ZM433.249 101.192C432.748 101.192 432.289 101.091 431.873 100.888C431.457 100.685 431.1 100.408 430.801 100.056C430.502 99.6933 430.268 99.2613 430.097 98.76C429.926 98.248 429.841 97.688 429.841 97.08C429.841 96.4613 429.926 95.896 430.097 95.384C430.268 94.872 430.502 94.4347 430.801 94.072C431.1 93.6987 431.457 93.4107 431.873 93.208C432.289 93.0053 432.748 92.904 433.249 92.904C433.868 92.904 434.385 93.048 434.801 93.336C435.228 93.624 435.532 93.9973 435.713 94.456H435.809V89.4H437.825V101H435.921V99.512H435.825C435.633 100.035 435.308 100.445 434.849 100.744C434.401 101.043 433.868 101.192 433.249 101.192ZM433.857 99.432C434.454 99.432 434.929 99.2187 435.281 98.792C435.633 98.3653 435.809 97.784 435.809 97.048C435.809 96.312 435.633 95.7307 435.281 95.304C434.929 94.8773 434.454 94.664 433.857 94.664C433.26 94.664 432.785 94.8773 432.433 95.304C432.081 95.7307 431.905 96.312 431.905 97.048C431.905 97.784 432.081 98.3653 432.433 98.792C432.785 99.2187 433.26 99.432 433.857 99.432ZM443.275 101.192C442.603 101.192 442.021 101.08 441.531 100.856C441.051 100.621 440.656 100.312 440.347 99.928C440.037 99.544 439.808 99.1067 439.659 98.616C439.509 98.1147 439.435 97.592 439.435 97.048C439.435 96.504 439.504 95.9867 439.643 95.496C439.792 94.9947 440.016 94.552 440.315 94.168C440.624 93.784 441.019 93.48 441.499 93.256C441.979 93.0213 442.549 92.904 443.211 92.904C443.872 92.904 444.432 93.0213 444.891 93.256C445.36 93.4907 445.744 93.7893 446.043 94.152L444.699 95.368C444.517 95.144 444.315 94.9733 444.091 94.856C443.867 94.728 443.584 94.664 443.243 94.664C442.688 94.664 442.256 94.8773 441.947 95.304C441.637 95.72 441.483 96.3013 441.483 97.048C441.483 97.7947 441.643 98.3813 441.963 98.808C442.283 99.224 442.72 99.432 443.275 99.432C443.605 99.432 443.893 99.368 444.139 99.24C444.384 99.112 444.597 98.9307 444.779 98.696L446.107 99.928C445.808 100.291 445.419 100.595 444.939 100.84C444.469 101.075 443.915 101.192 443.275 101.192ZM447.493 93.096H449.398V94.424H449.494C449.654 93.9653 449.899 93.5973 450.23 93.32C450.571 93.0427 450.998 92.904 451.51 92.904C451.904 92.904 452.272 92.968 452.614 93.096L452.054 94.936C451.936 94.8613 451.798 94.808 451.638 94.776C451.478 94.744 451.323 94.728 451.174 94.728C450.683 94.728 450.283 94.8987 449.974 95.24C449.664 95.5707 449.51 96.04 449.51 96.648V101H447.493V93.096ZM456.446 101.192C455.476 101.192 454.772 100.931 454.334 100.408C453.897 99.8747 453.678 99.0747 453.678 98.008V93.096H455.694V97.608C455.694 98.248 455.806 98.7227 456.03 99.032C456.254 99.3413 456.622 99.496 457.134 99.496C457.625 99.496 457.993 99.3307 458.238 99C458.494 98.6587 458.622 98.168 458.622 97.528V93.096H460.638V101H458.734V99.72H458.638C458.457 100.147 458.18 100.499 457.806 100.776C457.433 101.053 456.98 101.192 456.446 101.192ZM462.743 93.096H464.648V94.296H464.744C464.946 93.88 465.229 93.544 465.592 93.288C465.965 93.032 466.418 92.904 466.952 92.904C468.253 92.904 469.09 93.3947 469.464 94.376C469.666 93.928 469.981 93.5707 470.408 93.304C470.834 93.0373 471.336 92.904 471.912 92.904C472.872 92.904 473.576 93.1707 474.024 93.704C474.472 94.2267 474.696 95.0213 474.696 96.088V101H472.68V96.424C472.68 95.208 472.194 94.6 471.224 94.6C470.722 94.6 470.344 94.7653 470.088 95.096C469.842 95.4267 469.72 95.9013 469.72 96.52V101H467.704V96.424C467.704 95.816 467.586 95.3627 467.352 95.064C467.128 94.7547 466.76 94.6 466.248 94.6C465.768 94.6 465.4 94.7653 465.144 95.096C464.888 95.4267 464.76 95.9013 464.76 96.52V101H462.743V93.096ZM481.289 101.192C480.67 101.192 480.131 101.043 479.673 100.744C479.225 100.445 478.905 100.035 478.713 99.512H478.617V101H476.697V89.4H478.713V94.456H478.809C478.99 93.9973 479.294 93.624 479.721 93.336C480.147 93.048 480.67 92.904 481.289 92.904C481.779 92.904 482.233 93.0053 482.649 93.208C483.075 93.4107 483.438 93.6987 483.737 94.072C484.046 94.4347 484.286 94.872 484.457 95.384C484.627 95.896 484.713 96.4613 484.713 97.08C484.713 97.688 484.627 98.248 484.457 98.76C484.286 99.2613 484.046 99.6933 483.737 100.056C483.438 100.408 483.075 100.685 482.649 100.888C482.233 101.091 481.779 101.192 481.289 101.192ZM480.665 99.432C481.262 99.432 481.742 99.2187 482.105 98.792C482.467 98.3653 482.649 97.784 482.649 97.048C482.649 96.312 482.467 95.7307 482.105 95.304C481.742 94.8773 481.262 94.664 480.665 94.664C480.078 94.664 479.603 94.8773 479.241 95.304C478.889 95.7307 478.713 96.312 478.713 97.048C478.713 97.784 478.889 98.3653 479.241 98.792C479.603 99.2187 480.078 99.432 480.665 99.432ZM493.654 101.192C492.833 101.192 492.139 101.075 491.574 100.84C491.019 100.595 490.539 100.264 490.134 99.848L491.302 98.536C491.569 98.8133 491.883 99.0373 492.246 99.208C492.609 99.3787 493.03 99.464 493.51 99.464C494.075 99.464 494.545 99.32 494.918 99.032C495.291 98.744 495.478 98.328 495.478 97.784C495.478 97.24 495.291 96.84 494.918 96.584C494.555 96.3173 494.102 96.184 493.558 96.184H491.638L490.854 95.4V90.6H497.03V92.328H492.822V94.536H493.846C494.411 94.536 494.923 94.6107 495.382 94.76C495.851 94.9093 496.251 95.1227 496.582 95.4C496.923 95.6773 497.185 96.0187 497.366 96.424C497.547 96.8187 497.638 97.272 497.638 97.784C497.638 98.2747 497.553 98.728 497.382 99.144C497.211 99.56 496.955 99.9227 496.614 100.232C496.283 100.531 495.867 100.765 495.366 100.936C494.875 101.107 494.305 101.192 493.654 101.192Z" fill="#242E30"/>
<g clip-path="url(#clip5_21145_12952)">
<path d="M506.783 98.8854L510.799 95.0004L506.75 91.1154L507.406 90.3936L511.56 94.4032C511.722 94.5666 511.812 94.7871 511.812 95.0168C511.812 95.2466 511.722 95.467 511.56 95.6304L507.459 99.5942L506.783 98.8854Z" fill="#3C4C4F"/>
</g>
<path d="M524.6 101.192C523.885 101.192 523.235 101.059 522.648 100.792C522.061 100.515 521.56 100.136 521.144 99.656C520.728 99.1653 520.403 98.5893 520.168 97.928C519.944 97.2667 519.832 96.5467 519.832 95.768C519.832 94.968 519.949 94.2373 520.184 93.576C520.419 92.9147 520.744 92.3493 521.16 91.88C521.576 91.4107 522.072 91.048 522.648 90.792C523.224 90.536 523.853 90.408 524.536 90.408C525.325 90.408 526.019 90.5467 526.616 90.824C527.213 91.0907 527.731 91.464 528.168 91.944L527.304 92.792C526.995 92.4187 526.6 92.1307 526.12 91.928C525.651 91.7147 525.144 91.608 524.6 91.608C524.099 91.608 523.64 91.7093 523.224 91.912C522.819 92.1147 522.467 92.4027 522.168 92.776C521.869 93.1387 521.635 93.576 521.464 94.088C521.304 94.6 521.224 95.16 521.224 95.768C521.224 96.3653 521.309 96.92 521.48 97.432C521.651 97.944 521.885 98.392 522.184 98.776C522.483 99.1493 522.84 99.448 523.256 99.672C523.672 99.8853 524.131 99.992 524.632 99.992C525.176 99.992 525.699 99.8907 526.2 99.688C526.701 99.4747 527.107 99.1653 527.416 98.76L528.28 99.608C527.864 100.12 527.331 100.515 526.68 100.792C526.04 101.059 525.347 101.192 524.6 101.192ZM533.002 101.192C532.565 101.192 532.17 101.133 531.818 101.016C531.466 100.899 531.162 100.717 530.906 100.472C530.661 100.227 530.469 99.912 530.33 99.528C530.191 99.144 530.122 98.6853 530.122 98.152V93.096H531.402V97.912C531.402 98.7227 531.557 99.2987 531.866 99.64C532.186 99.9707 532.65 100.136 533.258 100.136C533.834 100.136 534.287 99.928 534.618 99.512C534.959 99.096 535.13 98.488 535.13 97.688V93.096H536.41V101H535.194V99.752H535.098C534.906 100.168 534.639 100.515 534.298 100.792C533.967 101.059 533.535 101.192 533.002 101.192ZM539.126 93.096H540.342V94.376H540.438C540.608 93.96 540.854 93.6133 541.174 93.336C541.494 93.048 541.894 92.904 542.374 92.904C542.779 92.904 543.136 92.984 543.446 93.144L543.014 94.296C542.875 94.2213 542.726 94.1733 542.566 94.152C542.416 94.12 542.262 94.104 542.102 94.104C541.579 94.104 541.163 94.3173 540.854 94.744C540.555 95.16 540.406 95.6933 540.406 96.344V101H539.126V93.096ZM545.094 93.096H546.31V94.376H546.406C546.577 93.96 546.822 93.6133 547.142 93.336C547.462 93.048 547.862 92.904 548.342 92.904C548.748 92.904 549.105 92.984 549.414 93.144L548.982 94.296C548.844 94.2213 548.694 94.1733 548.534 94.152C548.385 94.12 548.23 94.104 548.07 94.104C547.548 94.104 547.132 94.3173 546.822 94.744C546.524 95.16 546.374 95.6933 546.374 96.344V101H545.094V93.096ZM553.761 101.192C553.195 101.192 552.678 101.096 552.209 100.904C551.75 100.712 551.355 100.44 551.025 100.088C550.705 99.7253 550.454 99.288 550.273 98.776C550.102 98.264 550.017 97.688 550.017 97.048C550.017 96.376 550.107 95.784 550.289 95.272C550.47 94.7493 550.721 94.3173 551.041 93.976C551.361 93.624 551.739 93.3573 552.177 93.176C552.625 92.9947 553.115 92.904 553.649 92.904C554.182 92.904 554.673 92.9893 555.121 93.16C555.569 93.3307 555.953 93.5867 556.273 93.928C556.593 94.2587 556.843 94.68 557.025 95.192C557.206 95.6933 557.297 96.28 557.297 96.952C557.297 97.0373 557.291 97.1227 557.281 97.208C557.281 97.2933 557.275 97.3627 557.265 97.416H551.297C551.297 97.7893 551.361 98.1413 551.489 98.472C551.627 98.792 551.809 99.0747 552.033 99.32C552.267 99.5547 552.534 99.7413 552.833 99.88C553.142 100.019 553.473 100.088 553.825 100.088C554.401 100.088 554.87 99.976 555.233 99.752C555.606 99.528 555.915 99.256 556.161 98.936L556.929 99.72C556.587 100.168 556.161 100.525 555.649 100.792C555.147 101.059 554.518 101.192 553.761 101.192ZM553.649 93.96C553.275 93.96 552.945 94.0293 552.657 94.168C552.369 94.3067 552.129 94.488 551.937 94.712C551.745 94.936 551.595 95.192 551.489 95.48C551.393 95.768 551.339 96.056 551.329 96.344H555.953C555.942 96.056 555.883 95.768 555.777 95.48C555.681 95.192 555.537 94.936 555.345 94.712C555.153 94.488 554.913 94.3067 554.625 94.168C554.347 94.0293 554.022 93.96 553.649 93.96ZM559.36 93.096H560.576V94.344H560.672C560.864 93.928 561.136 93.5867 561.488 93.32C561.84 93.0427 562.288 92.904 562.832 92.904C563.739 92.904 564.453 93.144 564.976 93.624C565.509 94.104 565.776 94.8773 565.776 95.944V101H564.496V96.184C564.496 95.3733 564.331 94.8027 564 94.472C563.68 94.1307 563.205 93.96 562.576 93.96C561.968 93.96 561.493 94.168 561.152 94.584C560.811 95 560.64 95.608 560.64 96.408V101H559.36V93.096ZM570.776 101.192C570.062 101.192 569.539 100.979 569.208 100.552C568.878 100.125 568.712 99.5387 568.712 98.792V94.136H567.304V93.096H568.712V90.952H569.976V93.096H572.264V94.136H569.976V98.68C569.976 99.192 570.072 99.5493 570.264 99.752C570.467 99.9547 570.723 100.056 571.032 100.056C571.246 100.056 571.438 100.019 571.608 99.944C571.779 99.8587 571.939 99.7467 572.088 99.608L572.664 100.504C572.174 100.963 571.544 101.192 570.776 101.192ZM578.251 93.096H579.467V94.712H579.563C579.659 94.4453 579.792 94.2 579.963 93.976C580.144 93.752 580.352 93.56 580.587 93.4C580.832 93.24 581.099 93.1173 581.387 93.032C581.685 92.9467 581.995 92.904 582.315 92.904C582.837 92.904 583.312 93.0107 583.739 93.224C584.176 93.4267 584.549 93.7147 584.859 94.088C585.168 94.4507 585.403 94.888 585.563 95.4C585.733 95.912 585.819 96.4667 585.819 97.064C585.819 97.6613 585.733 98.216 585.563 98.728C585.403 99.2293 585.168 99.6667 584.859 100.04C584.549 100.403 584.176 100.685 583.739 100.888C583.312 101.091 582.837 101.192 582.315 101.192C581.664 101.192 581.104 101.037 580.635 100.728C580.165 100.419 579.829 100.024 579.627 99.544H579.531V103.96H578.251V93.096ZM581.995 100.04C582.347 100.04 582.672 99.9813 582.971 99.864C583.28 99.736 583.547 99.5493 583.771 99.304C584.005 99.048 584.187 98.7333 584.315 98.36C584.443 97.9867 584.507 97.5493 584.507 97.048C584.507 96.5467 584.443 96.1093 584.315 95.736C584.187 95.3627 584.005 95.0533 583.771 94.808C583.547 94.552 583.28 94.3653 582.971 94.248C582.672 94.12 582.347 94.056 581.995 94.056C581.653 94.056 581.333 94.12 581.035 94.248C580.736 94.3653 580.475 94.552 580.251 94.808C580.027 95.0533 579.851 95.3627 579.723 95.736C579.595 96.1093 579.531 96.5467 579.531 97.048C579.531 97.5493 579.595 97.9867 579.723 98.36C579.851 98.7333 580.027 99.048 580.251 99.304C580.475 99.5493 580.736 99.736 581.035 99.864C581.333 99.9813 581.653 100.04 581.995 100.04ZM589.62 101.192C589.257 101.192 588.921 101.133 588.612 101.016C588.313 100.899 588.052 100.733 587.828 100.52C587.604 100.307 587.428 100.056 587.3 99.768C587.182 99.4693 587.124 99.144 587.124 98.792C587.124 98.1093 587.369 97.56 587.86 97.144C588.35 96.728 589.049 96.4933 589.956 96.44L592.036 96.312V95.752C592.036 95.144 591.886 94.7067 591.588 94.44C591.3 94.1627 590.884 94.024 590.34 94.024C589.881 94.024 589.486 94.1093 589.156 94.28C588.825 94.4507 588.569 94.6373 588.388 94.84L587.62 94.072C587.897 93.7307 588.27 93.4533 588.74 93.24C589.22 93.016 589.764 92.904 590.372 92.904C590.916 92.904 591.374 92.9787 591.748 93.128C592.121 93.2667 592.42 93.4587 592.644 93.704C592.878 93.9493 593.044 94.2373 593.14 94.568C593.246 94.8987 593.3 95.2507 593.3 95.624V101H592.1V99.656H592.004C591.79 100.136 591.492 100.515 591.108 100.792C590.724 101.059 590.228 101.192 589.62 101.192ZM589.812 100.104C590.473 100.104 591.006 99.912 591.412 99.528C591.828 99.1333 592.036 98.6107 592.036 97.96V97.272L590.02 97.416C588.953 97.5013 588.42 97.9493 588.42 98.76C588.42 99.1653 588.548 99.4907 588.804 99.736C589.07 99.9813 589.406 100.104 589.812 100.104ZM599.028 104.152C598.345 104.152 597.753 104.029 597.252 103.784C596.75 103.549 596.35 103.256 596.052 102.904L596.9 102.088C597.124 102.365 597.412 102.584 597.764 102.744C598.126 102.915 598.526 103 598.964 103C599.646 103 600.18 102.835 600.564 102.504C600.958 102.173 601.156 101.592 601.156 100.76V99.224H601.06C600.974 99.4907 600.852 99.7307 600.692 99.944C600.532 100.147 600.34 100.323 600.116 100.472C599.902 100.611 599.662 100.723 599.396 100.808C599.14 100.883 598.878 100.92 598.612 100.92C598.11 100.92 597.652 100.829 597.236 100.648C596.83 100.467 596.473 100.205 596.164 99.864C595.865 99.512 595.63 99.0853 595.46 98.584C595.3 98.0827 595.22 97.5173 595.22 96.888C595.22 96.2693 595.3 95.7147 595.46 95.224C595.63 94.7333 595.865 94.3173 596.164 93.976C596.473 93.6347 596.83 93.3733 597.236 93.192C597.652 93 598.11 92.904 598.612 92.904C599.198 92.904 599.721 93.0587 600.18 93.368C600.649 93.6667 600.964 94.0827 601.124 94.616H601.22V93.096H602.436V100.92C602.436 101.891 602.142 102.669 601.556 103.256C600.98 103.853 600.137 104.152 599.028 104.152ZM598.868 99.768C599.572 99.768 600.126 99.5227 600.532 99.032C600.948 98.5413 601.156 97.832 601.156 96.904C601.156 95.9653 600.948 95.256 600.532 94.776C600.126 94.296 599.572 94.056 598.868 94.056C598.153 94.056 597.582 94.296 597.156 94.776C596.74 95.256 596.532 95.9653 596.532 96.904C596.532 97.832 596.74 98.5413 597.156 99.032C597.582 99.5227 598.153 99.768 598.868 99.768ZM608.245 101.192C607.68 101.192 607.162 101.096 606.693 100.904C606.234 100.712 605.84 100.44 605.509 100.088C605.189 99.7253 604.938 99.288 604.757 98.776C604.586 98.264 604.501 97.688 604.501 97.048C604.501 96.376 604.592 95.784 604.773 95.272C604.954 94.7493 605.205 94.3173 605.525 93.976C605.845 93.624 606.224 93.3573 606.661 93.176C607.109 92.9947 607.6 92.904 608.133 92.904C608.666 92.904 609.157 92.9893 609.605 93.16C610.053 93.3307 610.437 93.5867 610.757 93.928C611.077 94.2587 611.328 94.68 611.509 95.192C611.69 95.6933 611.781 96.28 611.781 96.952C611.781 97.0373 611.776 97.1227 611.765 97.208C611.765 97.2933 611.76 97.3627 611.749 97.416H605.781C605.781 97.7893 605.845 98.1413 605.973 98.472C606.112 98.792 606.293 99.0747 606.517 99.32C606.752 99.5547 607.018 99.7413 607.317 99.88C607.626 100.019 607.957 100.088 608.309 100.088C608.885 100.088 609.354 99.976 609.717 99.752C610.09 99.528 610.4 99.256 610.645 98.936L611.413 99.72C611.072 100.168 610.645 100.525 610.133 100.792C609.632 101.059 609.002 101.192 608.245 101.192ZM608.133 93.96C607.76 93.96 607.429 94.0293 607.141 94.168C606.853 94.3067 606.613 94.488 606.421 94.712C606.229 94.936 606.08 95.192 605.973 95.48C605.877 95.768 605.824 96.056 605.813 96.344H610.437C610.426 96.056 610.368 95.768 610.261 95.48C610.165 95.192 610.021 94.936 609.829 94.712C609.637 94.488 609.397 94.3067 609.109 94.168C608.832 94.0293 608.506 93.96 608.133 93.96Z" fill="#3C4C4F"/>
<defs>
<filter id="filter0_ddd_21145_12952" x="-3.57628e-07" y="0.4" width="732" height="494" filterUnits="userSpaceOnUse" color-interpolation-filters="sRGB">
<feFlood flood-opacity="0" result="BackgroundImageFix"/>
<feColorMatrix in="SourceAlpha" type="matrix" values="0 0 0 0 0 0 0 0 0 0 0 0 0 0 0 0 0 0 127 0" result="hardAlpha"/>
<feOffset dy="-2.4"/>
<feGaussianBlur stdDeviation="2.4"/>
<feColorMatrix type="matrix" values="0 0 0 0 0 0 0 0 0 0 0 0 0 0 0 0 0 0 0.06 0"/>
<feBlend mode="normal" in2="BackgroundImageFix" result="effect1_dropShadow_21145_12952"/>
<feColorMatrix in="SourceAlpha" type="matrix" values="0 0 0 0 0 0 0 0 0 0 0 0 0 0 0 0 0 0 127 0" result="hardAlpha"/>
<feMorphology radius="1.6" operator="erode" in="SourceAlpha" result="effect2_dropShadow_21145_12952"/>
<feOffset dy="-1.6"/>
<feGaussianBlur stdDeviation="4.8"/>
<feColorMatrix type="matrix" values="0 0 0 0 0 0 0 0 0 0 0 0 0 0 0 0 0 0 0.08 0"/>
<feBlend mode="normal" in2="effect1_dropShadow_21145_12952" result="effect2_dropShadow_21145_12952"/>
<feColorMatrix in="SourceAlpha" type="matrix" values="0 0 0 0 0 0 0 0 0 0 0 0 0 0 0 0 0 0 127 0" result="hardAlpha"/>
<feOffset dy="-3.2"/>
<feGaussianBlur stdDeviation="2.4"/>
<feColorMatrix type="matrix" values="0 0 0 0 0 0 0 0 0 0 0 0 0 0 0 0 0 0 0.02 0"/>
<feBlend mode="normal" in2="effect2_dropShadow_21145_12952" result="effect3_dropShadow_21145_12952"/>
<feBlend mode="normal" in="SourceGraphic" in2="effect3_dropShadow_21145_12952" result="shape"/>
</filter>
<filter id="filter1_ddd_21145_12952" x="3.6001" y="7.0002" width="724.8" height="64.7998" filterUnits="userSpaceOnUse" color-interpolation-filters="sRGB">
<feFlood flood-opacity="0" result="BackgroundImageFix"/>
<feColorMatrix in="SourceAlpha" type="matrix" values="0 0 0 0 0 0 0 0 0 0 0 0 0 0 0 0 0 0 127 0" result="hardAlpha"/>
<feOffset dy="0.8"/>
<feGaussianBlur stdDeviation="2"/>
<feColorMatrix type="matrix" values="0 0 0 0 0 0 0 0 0 0 0 0 0 0 0 0 0 0 0.06 0"/>
<feBlend mode="normal" in2="BackgroundImageFix" result="effect1_dropShadow_21145_12952"/>
<feColorMatrix in="SourceAlpha" type="matrix" values="0 0 0 0 0 0 0 0 0 0 0 0 0 0 0 0 0 0 127 0" result="hardAlpha"/>
<feMorphology radius="1.6" operator="erode" in="SourceAlpha" result="effect2_dropShadow_21145_12952"/>
<feOffset dy="2.4"/>
<feGaussianBlur stdDeviation="0.4"/>
<feColorMatrix type="matrix" values="0 0 0 0 0 0 0 0 0 0 0 0 0 0 0 0 0 0 0.07 0"/>
<feBlend mode="normal" in2="effect1_dropShadow_21145_12952" result="effect2_dropShadow_21145_12952"/>
<feColorMatrix in="SourceAlpha" type="matrix" values="0 0 0 0 0 0 0 0 0 0 0 0 0 0 0 0 0 0 127 0" result="hardAlpha"/>
<feOffset dy="1.6"/>
<feGaussianBlur stdDeviation="0.8"/>
<feColorMatrix type="matrix" values="0 0 0 0 0 0 0 0 0 0 0 0 0 0 0 0 0 0 0.03 0"/>
<feBlend mode="normal" in2="effect2_dropShadow_21145_12952" result="effect3_dropShadow_21145_12952"/>
<feBlend mode="normal" in="SourceGraphic" in2="effect3_dropShadow_21145_12952" result="shape"/>
</filter>
<filter id="filter2_ddd_21145_12952" x="231" y="111" width="300" height="132" filterUnits="userSpaceOnUse" color-interpolation-filters="sRGB">
<feFlood flood-opacity="0" result="BackgroundImageFix"/>
<feColorMatrix in="SourceAlpha" type="matrix" values="0 0 0 0 0 0 0 0 0 0 0 0 0 0 0 0 0 0 127 0" result="hardAlpha"/>
<feOffset dy="3"/>
<feGaussianBlur stdDeviation="3"/>
<feColorMatrix type="matrix" values="0 0 0 0 0 0 0 0 0 0 0 0 0 0 0 0 0 0 0.06 0"/>
<feBlend mode="normal" in2="BackgroundImageFix" result="effect1_dropShadow_21145_12952"/>
<feColorMatrix in="SourceAlpha" type="matrix" values="0 0 0 0 0 0 0 0 0 0 0 0 0 0 0 0 0 0 127 0" result="hardAlpha"/>
<feMorphology radius="2" operator="erode" in="SourceAlpha" result="effect2_dropShadow_21145_12952"/>
<feOffset dy="2"/>
<feGaussianBlur stdDeviation="6"/>
<feColorMatrix type="matrix" values="0 0 0 0 0 0 0 0 0 0 0 0 0 0 0 0 0 0 0.08 0"/>
<feBlend mode="normal" in2="effect1_dropShadow_21145_12952" result="effect2_dropShadow_21145_12952"/>
<feColorMatrix in="SourceAlpha" type="matrix" values="0 0 0 0 0 0 0 0 0 0 0 0 0 0 0 0 0 0 127 0" result="hardAlpha"/>
<feOffset dy="4"/>
<feGaussianBlur stdDeviation="3"/>
<feColorMatrix type="matrix" values="0 0 0 0 0 0 0 0 0 0 0 0 0 0 0 0 0 0 0.02 0"/>
<feBlend mode="normal" in2="effect2_dropShadow_21145_12952" result="effect3_dropShadow_21145_12952"/>
<feBlend mode="normal" in="SourceGraphic" in2="effect3_dropShadow_21145_12952" result="shape"/>
</filter>
<clipPath id="clip0_21145_12952">
<rect width="103.2" height="24.8" fill="white" transform="translate(42.7993 26.2002)"/>
</clipPath>
<clipPath id="clip1_21145_12952">
<rect x="517.319" y="388.399" width="64.8684" height="32" rx="16" fill="white"/>
</clipPath>
<clipPath id="clip2_21145_12952">
<rect width="12" height="12" fill="white" transform="translate(225 89)"/>
</clipPath>
<clipPath id="clip3_21145_12952">
<rect width="12" height="12" fill="white" transform="translate(259 89)"/>
</clipPath>
<clipPath id="clip4_21145_12952">
<rect width="12" height="12" fill="white" transform="translate(381 89)"/>
</clipPath>
<clipPath id="clip5_21145_12952">
<rect width="12" height="12" fill="white" transform="translate(503 89)"/>
</clipPath>
</defs>
</svg>
