<svg width="362" height="72" viewBox="0 0 362 72" fill="none" xmlns="http://www.w3.org/2000/svg">
<path d="M1.168 11.6H5.216C6.176 11.6 6.912 11.8613 7.424 12.384C7.94667 12.896 8.208 13.5787 8.208 14.432C8.208 14.6667 8.16533 14.896 8.08 15.12C7.99467 15.344 7.87733 15.552 7.728 15.744C7.57867 15.936 7.39733 16.1067 7.184 16.256C6.98133 16.4053 6.75733 16.5173 6.512 16.592V16.688C6.768 16.72 7.024 16.8053 7.28 16.944C7.536 17.0827 7.76 17.2587 7.952 17.472C8.15467 17.6853 8.32 17.9307 8.448 18.208C8.576 18.4853 8.64 18.7733 8.64 19.072C8.64 19.9467 8.34667 20.656 7.76 21.2C7.184 21.7333 6.352 22 5.264 22H1.168V11.6ZM4.848 15.952C5.21067 15.952 5.49867 15.8293 5.712 15.584C5.936 15.3387 6.048 15.008 6.048 14.592C6.048 14.1867 5.936 13.8613 5.712 13.616C5.49867 13.36 5.21067 13.232 4.848 13.232H3.312V15.952H4.848ZM5.104 20.368C5.54133 20.368 5.88267 20.2453 6.128 20C6.37333 19.744 6.496 19.3867 6.496 18.928C6.496 18.4587 6.37333 18.1013 6.128 17.856C5.88267 17.6 5.54133 17.472 5.104 17.472H3.312V20.368H5.104ZM10.3685 14.096H12.2725V15.424H12.3685C12.5285 14.9653 12.7738 14.5973 13.1045 14.32C13.4458 14.0427 13.8725 13.904 14.3845 13.904C14.7792 13.904 15.1472 13.968 15.4885 14.096L14.9285 15.936C14.8112 15.8613 14.6725 15.808 14.5125 15.776C14.3525 15.744 14.1978 15.728 14.0485 15.728C13.5578 15.728 13.1578 15.8987 12.8485 16.24C12.5392 16.5707 12.3845 17.04 12.3845 17.648V22H10.3685V14.096ZM19.8394 22.192C19.178 22.192 18.602 22.0853 18.1114 21.872C17.6207 21.6587 17.2047 21.3653 16.8634 20.992C16.5327 20.608 16.282 20.1653 16.1114 19.664C15.9514 19.1627 15.8714 18.624 15.8714 18.048C15.8714 17.4613 15.9514 16.9173 16.1114 16.416C16.2714 15.904 16.5114 15.4667 16.8314 15.104C17.1514 14.7307 17.5514 14.4373 18.0314 14.224C18.5114 14.0107 19.0714 13.904 19.7114 13.904C20.3514 13.904 20.9114 14.0053 21.3914 14.208C21.8714 14.4107 22.266 14.6933 22.5754 15.056C22.8847 15.4187 23.114 15.8507 23.2634 16.352C23.4234 16.8427 23.5034 17.3813 23.5034 17.968C23.5034 18.0747 23.4927 18.1973 23.4714 18.336C23.4607 18.4747 23.4447 18.5867 23.4234 18.672H17.9194C17.9514 18.96 18.026 19.2213 18.1434 19.456C18.2714 19.68 18.426 19.872 18.6074 20.032C18.7994 20.192 19.0074 20.3147 19.2314 20.4C19.466 20.4747 19.706 20.512 19.9514 20.512C20.41 20.512 20.794 20.432 21.1034 20.272C21.4127 20.112 21.6634 19.9093 21.8554 19.664L22.9914 20.848C22.6927 21.2533 22.2767 21.5787 21.7434 21.824C21.21 22.0693 20.5754 22.192 19.8394 22.192ZM19.7114 15.44C19.1994 15.44 18.7834 15.6053 18.4634 15.936C18.1434 16.2667 17.9567 16.704 17.9034 17.248H21.4874C21.434 16.704 21.2474 16.2667 20.9274 15.936C20.618 15.6053 20.2127 15.44 19.7114 15.44ZM27.0396 22.192C26.6876 22.192 26.3516 22.1333 26.0316 22.016C25.7223 21.9093 25.4503 21.7547 25.2156 21.552C24.981 21.3387 24.7943 21.0827 24.6556 20.784C24.5276 20.4853 24.4636 20.1493 24.4636 19.776C24.4636 19.072 24.7143 18.512 25.2156 18.096C25.717 17.68 26.4796 17.4453 27.5036 17.392L29.3596 17.28V16.96C29.3596 16.448 29.205 16.096 28.8956 15.904C28.5863 15.712 28.2023 15.616 27.7436 15.616C27.381 15.616 27.0396 15.6853 26.7196 15.824C26.3996 15.952 26.1596 16.112 25.9996 16.304L24.8636 15.152C25.141 14.7893 25.541 14.4907 26.0636 14.256C26.597 14.0213 27.2476 13.904 28.0156 13.904C29.1463 13.904 29.989 14.1653 30.5436 14.688C31.0983 15.2107 31.3756 15.92 31.3756 16.816V22H29.4716V20.736H29.3756C29.173 21.184 28.8796 21.5413 28.4956 21.808C28.1116 22.064 27.6263 22.192 27.0396 22.192ZM27.6316 20.736C28.1436 20.736 28.5596 20.592 28.8796 20.304C29.1996 20.0053 29.3596 19.5893 29.3596 19.056V18.528L27.7436 18.656C26.9116 18.7093 26.4956 19.0613 26.4956 19.712C26.4956 20.0427 26.6023 20.2987 26.8156 20.48C27.029 20.6507 27.301 20.736 27.6316 20.736ZM36.2489 22.192C35.7475 22.192 35.2889 22.0907 34.8729 21.888C34.4569 21.6853 34.0995 21.408 33.8009 21.056C33.5022 20.6933 33.2675 20.2613 33.0969 19.76C32.9262 19.248 32.8409 18.688 32.8409 18.08C32.8409 17.4613 32.9262 16.896 33.0969 16.384C33.2675 15.872 33.5022 15.4347 33.8009 15.072C34.0995 14.6987 34.4569 14.4107 34.8729 14.208C35.2889 14.0053 35.7475 13.904 36.2489 13.904C36.8675 13.904 37.3849 14.048 37.8009 14.336C38.2275 14.624 38.5315 14.9973 38.7129 15.456H38.8089V10.4H40.8249V22H38.9209V20.512H38.8249C38.6329 21.0347 38.3075 21.4453 37.8489 21.744C37.4009 22.0427 36.8675 22.192 36.2489 22.192ZM36.8569 20.432C37.4542 20.432 37.9289 20.2187 38.2809 19.792C38.6329 19.3653 38.8089 18.784 38.8089 18.048C38.8089 17.312 38.6329 16.7307 38.2809 16.304C37.9289 15.8773 37.4542 15.664 36.8569 15.664C36.2595 15.664 35.7849 15.8773 35.4329 16.304C35.0809 16.7307 34.9049 17.312 34.9049 18.048C34.9049 18.784 35.0809 19.3653 35.4329 19.792C35.7849 20.2187 36.2595 20.432 36.8569 20.432ZM46.2746 22.192C45.6026 22.192 45.0213 22.08 44.5306 21.856C44.0506 21.6213 43.656 21.312 43.3466 20.928C43.0373 20.544 42.808 20.1067 42.6586 19.616C42.5093 19.1147 42.4346 18.592 42.4346 18.048C42.4346 17.504 42.504 16.9867 42.6426 16.496C42.792 15.9947 43.016 15.552 43.3146 15.168C43.624 14.784 44.0186 14.48 44.4986 14.256C44.9786 14.0213 45.5493 13.904 46.2106 13.904C46.872 13.904 47.432 14.0213 47.8906 14.256C48.36 14.4907 48.744 14.7893 49.0426 15.152L47.6986 16.368C47.5173 16.144 47.3146 15.9733 47.0906 15.856C46.8666 15.728 46.584 15.664 46.2426 15.664C45.688 15.664 45.256 15.8773 44.9466 16.304C44.6373 16.72 44.4826 17.3013 44.4826 18.048C44.4826 18.7947 44.6426 19.3813 44.9626 19.808C45.2826 20.224 45.72 20.432 46.2746 20.432C46.6053 20.432 46.8933 20.368 47.1386 20.24C47.384 20.112 47.5973 19.9307 47.7786 19.696L49.1066 20.928C48.808 21.2907 48.4186 21.5947 47.9386 21.84C47.4693 22.0747 46.9146 22.192 46.2746 22.192ZM50.4935 14.096H52.3975V15.424H52.4935C52.6535 14.9653 52.8988 14.5973 53.2295 14.32C53.5708 14.0427 53.9975 13.904 54.5095 13.904C54.9042 13.904 55.2722 13.968 55.6135 14.096L55.0535 15.936C54.9362 15.8613 54.7975 15.808 54.6375 15.776C54.4775 15.744 54.3228 15.728 54.1735 15.728C53.6828 15.728 53.2828 15.8987 52.9735 16.24C52.6642 16.5707 52.5095 17.04 52.5095 17.648V22H50.4935V14.096ZM59.4464 22.192C58.4757 22.192 57.7717 21.9307 57.3344 21.408C56.897 20.8747 56.6784 20.0747 56.6784 19.008V14.096H58.6944V18.608C58.6944 19.248 58.8064 19.7227 59.0304 20.032C59.2544 20.3413 59.6224 20.496 60.1344 20.496C60.625 20.496 60.993 20.3307 61.2384 20C61.4944 19.6587 61.6224 19.168 61.6224 18.528V14.096H63.6384V22H61.7344V20.72H61.6384C61.457 21.1467 61.1797 21.4987 60.8064 21.776C60.433 22.0533 59.9797 22.192 59.4464 22.192ZM65.7435 14.096H67.6475V15.296H67.7435C67.9462 14.88 68.2288 14.544 68.5915 14.288C68.9648 14.032 69.4182 13.904 69.9515 13.904C71.2528 13.904 72.0902 14.3947 72.4635 15.376C72.6662 14.928 72.9808 14.5707 73.4075 14.304C73.8342 14.0373 74.3355 13.904 74.9115 13.904C75.8715 13.904 76.5755 14.1707 77.0235 14.704C77.4715 15.2267 77.6955 16.0213 77.6955 17.088V22H75.6795V17.424C75.6795 16.208 75.1942 15.6 74.2235 15.6C73.7222 15.6 73.3435 15.7653 73.0875 16.096C72.8422 16.4267 72.7195 16.9013 72.7195 17.52V22H70.7035V17.424C70.7035 16.816 70.5862 16.3627 70.3515 16.064C70.1275 15.7547 69.7595 15.6 69.2475 15.6C68.7675 15.6 68.3995 15.7653 68.1435 16.096C67.8875 16.4267 67.7595 16.9013 67.7595 17.52V22H65.7435V14.096ZM84.2886 22.192C83.67 22.192 83.1313 22.0427 82.6726 21.744C82.2246 21.4453 81.9046 21.0347 81.7126 20.512H81.6166V22H79.6966V10.4H81.7126V15.456H81.8086C81.99 14.9973 82.294 14.624 82.7206 14.336C83.1473 14.048 83.67 13.904 84.2886 13.904C84.7793 13.904 85.2326 14.0053 85.6486 14.208C86.0753 14.4107 86.438 14.6987 86.7366 15.072C87.046 15.4347 87.286 15.872 87.4566 16.384C87.6273 16.896 87.7126 17.4613 87.7126 18.08C87.7126 18.688 87.6273 19.248 87.4566 19.76C87.286 20.2613 87.046 20.6933 86.7366 21.056C86.438 21.408 86.0753 21.6853 85.6486 21.888C85.2326 22.0907 84.7793 22.192 84.2886 22.192ZM83.6646 20.432C84.262 20.432 84.742 20.2187 85.1046 19.792C85.4673 19.3653 85.6486 18.784 85.6486 18.048C85.6486 17.312 85.4673 16.7307 85.1046 16.304C84.742 15.8773 84.262 15.664 83.6646 15.664C83.078 15.664 82.6033 15.8773 82.2406 16.304C81.8886 16.7307 81.7126 17.312 81.7126 18.048C81.7126 18.784 81.8886 19.3653 82.2406 19.792C82.6033 20.2187 83.078 20.432 83.6646 20.432ZM93.5021 20.288H96.3021V13.84L93.8861 14.816L93.1981 13.312L96.9101 11.6H98.4301V20.288H100.926V22H93.5021V20.288Z" fill="#242E30"/>
<g clip-path="url(#clip0_21359_2364)">
<path d="M109.783 19.8854L113.799 16.0004L109.75 12.1154L110.406 11.3936L114.56 15.4032C114.722 15.5666 114.812 15.7871 114.812 16.0168C114.812 16.2466 114.722 16.467 114.56 16.6304L110.459 20.5942L109.783 19.8854Z" fill="#3C4C4F"/>
</g>
<path d="M123.168 11.6H127.216C128.176 11.6 128.912 11.8613 129.424 12.384C129.947 12.896 130.208 13.5787 130.208 14.432C130.208 14.6667 130.165 14.896 130.08 15.12C129.995 15.344 129.877 15.552 129.728 15.744C129.579 15.936 129.397 16.1067 129.184 16.256C128.981 16.4053 128.757 16.5173 128.512 16.592V16.688C128.768 16.72 129.024 16.8053 129.28 16.944C129.536 17.0827 129.76 17.2587 129.952 17.472C130.155 17.6853 130.32 17.9307 130.448 18.208C130.576 18.4853 130.64 18.7733 130.64 19.072C130.64 19.9467 130.347 20.656 129.76 21.2C129.184 21.7333 128.352 22 127.264 22H123.168V11.6ZM126.848 15.952C127.211 15.952 127.499 15.8293 127.712 15.584C127.936 15.3387 128.048 15.008 128.048 14.592C128.048 14.1867 127.936 13.8613 127.712 13.616C127.499 13.36 127.211 13.232 126.848 13.232H125.312V15.952H126.848ZM127.104 20.368C127.541 20.368 127.883 20.2453 128.128 20C128.373 19.744 128.496 19.3867 128.496 18.928C128.496 18.4587 128.373 18.1013 128.128 17.856C127.883 17.6 127.541 17.472 127.104 17.472H125.312V20.368H127.104ZM132.368 14.096H134.273V15.424H134.369C134.529 14.9653 134.774 14.5973 135.105 14.32C135.446 14.0427 135.873 13.904 136.385 13.904C136.779 13.904 137.147 13.968 137.489 14.096L136.929 15.936C136.811 15.8613 136.673 15.808 136.513 15.776C136.353 15.744 136.198 15.728 136.049 15.728C135.558 15.728 135.158 15.8987 134.849 16.24C134.539 16.5707 134.385 17.04 134.385 17.648V22H132.368V14.096ZM141.839 22.192C141.178 22.192 140.602 22.0853 140.111 21.872C139.621 21.6587 139.205 21.3653 138.863 20.992C138.533 20.608 138.282 20.1653 138.111 19.664C137.951 19.1627 137.871 18.624 137.871 18.048C137.871 17.4613 137.951 16.9173 138.111 16.416C138.271 15.904 138.511 15.4667 138.831 15.104C139.151 14.7307 139.551 14.4373 140.031 14.224C140.511 14.0107 141.071 13.904 141.711 13.904C142.351 13.904 142.911 14.0053 143.391 14.208C143.871 14.4107 144.266 14.6933 144.575 15.056C144.885 15.4187 145.114 15.8507 145.263 16.352C145.423 16.8427 145.503 17.3813 145.503 17.968C145.503 18.0747 145.493 18.1973 145.471 18.336C145.461 18.4747 145.445 18.5867 145.423 18.672H139.919C139.951 18.96 140.026 19.2213 140.143 19.456C140.271 19.68 140.426 19.872 140.607 20.032C140.799 20.192 141.007 20.3147 141.231 20.4C141.466 20.4747 141.706 20.512 141.951 20.512C142.41 20.512 142.794 20.432 143.103 20.272C143.413 20.112 143.663 19.9093 143.855 19.664L144.991 20.848C144.693 21.2533 144.277 21.5787 143.743 21.824C143.21 22.0693 142.575 22.192 141.839 22.192ZM141.711 15.44C141.199 15.44 140.783 15.6053 140.463 15.936C140.143 16.2667 139.957 16.704 139.903 17.248H143.487C143.434 16.704 143.247 16.2667 142.927 15.936C142.618 15.6053 142.213 15.44 141.711 15.44ZM149.04 22.192C148.688 22.192 148.352 22.1333 148.032 22.016C147.722 21.9093 147.45 21.7547 147.216 21.552C146.981 21.3387 146.794 21.0827 146.656 20.784C146.528 20.4853 146.464 20.1493 146.464 19.776C146.464 19.072 146.714 18.512 147.216 18.096C147.717 17.68 148.48 17.4453 149.504 17.392L151.36 17.28V16.96C151.36 16.448 151.205 16.096 150.896 15.904C150.586 15.712 150.202 15.616 149.744 15.616C149.381 15.616 149.04 15.6853 148.72 15.824C148.4 15.952 148.16 16.112 148 16.304L146.864 15.152C147.141 14.7893 147.541 14.4907 148.064 14.256C148.597 14.0213 149.248 13.904 150.016 13.904C151.146 13.904 151.989 14.1653 152.544 14.688C153.098 15.2107 153.376 15.92 153.376 16.816V22H151.472V20.736H151.376C151.173 21.184 150.88 21.5413 150.496 21.808C150.112 22.064 149.626 22.192 149.04 22.192ZM149.632 20.736C150.144 20.736 150.56 20.592 150.88 20.304C151.2 20.0053 151.36 19.5893 151.36 19.056V18.528L149.744 18.656C148.912 18.7093 148.496 19.0613 148.496 19.712C148.496 20.0427 148.602 20.2987 148.816 20.48C149.029 20.6507 149.301 20.736 149.632 20.736ZM158.249 22.192C157.748 22.192 157.289 22.0907 156.873 21.888C156.457 21.6853 156.1 21.408 155.801 21.056C155.502 20.6933 155.268 20.2613 155.097 19.76C154.926 19.248 154.841 18.688 154.841 18.08C154.841 17.4613 154.926 16.896 155.097 16.384C155.268 15.872 155.502 15.4347 155.801 15.072C156.1 14.6987 156.457 14.4107 156.873 14.208C157.289 14.0053 157.748 13.904 158.249 13.904C158.868 13.904 159.385 14.048 159.801 14.336C160.228 14.624 160.532 14.9973 160.713 15.456H160.809V10.4H162.825V22H160.921V20.512H160.825C160.633 21.0347 160.308 21.4453 159.849 21.744C159.401 22.0427 158.868 22.192 158.249 22.192ZM158.857 20.432C159.454 20.432 159.929 20.2187 160.281 19.792C160.633 19.3653 160.809 18.784 160.809 18.048C160.809 17.312 160.633 16.7307 160.281 16.304C159.929 15.8773 159.454 15.664 158.857 15.664C158.26 15.664 157.785 15.8773 157.433 16.304C157.081 16.7307 156.905 17.312 156.905 18.048C156.905 18.784 157.081 19.3653 157.433 19.792C157.785 20.2187 158.26 20.432 158.857 20.432ZM168.275 22.192C167.603 22.192 167.021 22.08 166.531 21.856C166.051 21.6213 165.656 21.312 165.347 20.928C165.037 20.544 164.808 20.1067 164.659 19.616C164.509 19.1147 164.435 18.592 164.435 18.048C164.435 17.504 164.504 16.9867 164.643 16.496C164.792 15.9947 165.016 15.552 165.315 15.168C165.624 14.784 166.019 14.48 166.499 14.256C166.979 14.0213 167.549 13.904 168.211 13.904C168.872 13.904 169.432 14.0213 169.891 14.256C170.36 14.4907 170.744 14.7893 171.043 15.152L169.699 16.368C169.517 16.144 169.315 15.9733 169.091 15.856C168.867 15.728 168.584 15.664 168.243 15.664C167.688 15.664 167.256 15.8773 166.947 16.304C166.637 16.72 166.483 17.3013 166.483 18.048C166.483 18.7947 166.643 19.3813 166.963 19.808C167.283 20.224 167.72 20.432 168.275 20.432C168.605 20.432 168.893 20.368 169.139 20.24C169.384 20.112 169.597 19.9307 169.779 19.696L171.107 20.928C170.808 21.2907 170.419 21.5947 169.939 21.84C169.469 22.0747 168.915 22.192 168.275 22.192ZM172.493 14.096H174.398V15.424H174.494C174.654 14.9653 174.899 14.5973 175.23 14.32C175.571 14.0427 175.998 13.904 176.51 13.904C176.904 13.904 177.272 13.968 177.614 14.096L177.054 15.936C176.936 15.8613 176.798 15.808 176.638 15.776C176.478 15.744 176.323 15.728 176.174 15.728C175.683 15.728 175.283 15.8987 174.974 16.24C174.664 16.5707 174.51 17.04 174.51 17.648V22H172.493V14.096ZM181.446 22.192C180.476 22.192 179.772 21.9307 179.334 21.408C178.897 20.8747 178.678 20.0747 178.678 19.008V14.096H180.694V18.608C180.694 19.248 180.806 19.7227 181.03 20.032C181.254 20.3413 181.622 20.496 182.134 20.496C182.625 20.496 182.993 20.3307 183.238 20C183.494 19.6587 183.622 19.168 183.622 18.528V14.096H185.638V22H183.734V20.72H183.638C183.457 21.1467 183.18 21.4987 182.806 21.776C182.433 22.0533 181.98 22.192 181.446 22.192ZM187.743 14.096H189.648V15.296H189.744C189.946 14.88 190.229 14.544 190.592 14.288C190.965 14.032 191.418 13.904 191.952 13.904C193.253 13.904 194.09 14.3947 194.464 15.376C194.666 14.928 194.981 14.5707 195.408 14.304C195.834 14.0373 196.336 13.904 196.912 13.904C197.872 13.904 198.576 14.1707 199.024 14.704C199.472 15.2267 199.696 16.0213 199.696 17.088V22H197.68V17.424C197.68 16.208 197.194 15.6 196.224 15.6C195.722 15.6 195.344 15.7653 195.088 16.096C194.842 16.4267 194.72 16.9013 194.72 17.52V22H192.704V17.424C192.704 16.816 192.586 16.3627 192.352 16.064C192.128 15.7547 191.76 15.6 191.248 15.6C190.768 15.6 190.4 15.7653 190.144 16.096C189.888 16.4267 189.76 16.9013 189.76 17.52V22H187.743V14.096ZM206.289 22.192C205.67 22.192 205.131 22.0427 204.673 21.744C204.225 21.4453 203.905 21.0347 203.713 20.512H203.617V22H201.697V10.4H203.713V15.456H203.809C203.99 14.9973 204.294 14.624 204.721 14.336C205.147 14.048 205.67 13.904 206.289 13.904C206.779 13.904 207.233 14.0053 207.649 14.208C208.075 14.4107 208.438 14.6987 208.737 15.072C209.046 15.4347 209.286 15.872 209.457 16.384C209.627 16.896 209.713 17.4613 209.713 18.08C209.713 18.688 209.627 19.248 209.457 19.76C209.286 20.2613 209.046 20.6933 208.737 21.056C208.438 21.408 208.075 21.6853 207.649 21.888C207.233 22.0907 206.779 22.192 206.289 22.192ZM205.665 20.432C206.262 20.432 206.742 20.2187 207.105 19.792C207.467 19.3653 207.649 18.784 207.649 18.048C207.649 17.312 207.467 16.7307 207.105 16.304C206.742 15.8773 206.262 15.664 205.665 15.664C205.078 15.664 204.603 15.8773 204.241 16.304C203.889 16.7307 203.713 17.312 203.713 18.048C203.713 18.784 203.889 19.3653 204.241 19.792C204.603 20.2187 205.078 20.432 205.665 20.432ZM215.278 20.32C215.278 19.84 215.347 19.4187 215.486 19.056C215.635 18.6933 215.838 18.368 216.094 18.08C216.35 17.792 216.654 17.5307 217.006 17.296C217.358 17.0613 217.742 16.832 218.158 16.608C218.574 16.384 218.921 16.192 219.198 16.032C219.486 15.8613 219.71 15.696 219.87 15.536C220.041 15.376 220.158 15.216 220.222 15.056C220.297 14.8853 220.334 14.688 220.334 14.464C220.334 14.0267 220.174 13.7067 219.854 13.504C219.534 13.3013 219.15 13.2 218.702 13.2C218.222 13.2 217.779 13.2907 217.374 13.472C216.979 13.6427 216.638 13.8827 216.35 14.192L215.278 12.928C215.673 12.48 216.174 12.1173 216.782 11.84C217.39 11.552 218.089 11.408 218.878 11.408C219.411 11.408 219.897 11.472 220.334 11.6C220.782 11.728 221.161 11.92 221.47 12.176C221.79 12.4213 222.035 12.7253 222.206 13.088C222.387 13.4507 222.478 13.8667 222.478 14.336C222.478 14.7947 222.409 15.2 222.27 15.552C222.131 15.8933 221.929 16.2133 221.662 16.512C221.395 16.8 221.065 17.072 220.67 17.328C220.286 17.584 219.843 17.8453 219.342 18.112C219.001 18.304 218.707 18.4693 218.462 18.608C218.227 18.7467 218.03 18.8853 217.87 19.024C217.721 19.1627 217.609 19.3013 217.534 19.44C217.47 19.5787 217.438 19.744 217.438 19.936V20.272H222.75V22H215.278V20.32Z" fill="#242E30"/>
<g clip-path="url(#clip1_21359_2364)">
<path d="M231.783 19.8854L235.799 16.0004L231.75 12.1154L232.406 11.3936L236.56 15.4032C236.722 15.5666 236.812 15.7871 236.812 16.0168C236.812 16.2466 236.722 16.467 236.56 16.6304L232.459 20.5942L231.783 19.8854Z" fill="#3C4C4F"/>
</g>
<path d="M245.168 11.6H249.216C250.176 11.6 250.912 11.8613 251.424 12.384C251.947 12.896 252.208 13.5787 252.208 14.432C252.208 14.6667 252.165 14.896 252.08 15.12C251.995 15.344 251.877 15.552 251.728 15.744C251.579 15.936 251.397 16.1067 251.184 16.256C250.981 16.4053 250.757 16.5173 250.512 16.592V16.688C250.768 16.72 251.024 16.8053 251.28 16.944C251.536 17.0827 251.76 17.2587 251.952 17.472C252.155 17.6853 252.32 17.9307 252.448 18.208C252.576 18.4853 252.64 18.7733 252.64 19.072C252.64 19.9467 252.347 20.656 251.76 21.2C251.184 21.7333 250.352 22 249.264 22H245.168V11.6ZM248.848 15.952C249.211 15.952 249.499 15.8293 249.712 15.584C249.936 15.3387 250.048 15.008 250.048 14.592C250.048 14.1867 249.936 13.8613 249.712 13.616C249.499 13.36 249.211 13.232 248.848 13.232H247.312V15.952H248.848ZM249.104 20.368C249.541 20.368 249.883 20.2453 250.128 20C250.373 19.744 250.496 19.3867 250.496 18.928C250.496 18.4587 250.373 18.1013 250.128 17.856C249.883 17.6 249.541 17.472 249.104 17.472H247.312V20.368H249.104ZM254.368 14.096H256.273V15.424H256.369C256.529 14.9653 256.774 14.5973 257.105 14.32C257.446 14.0427 257.873 13.904 258.385 13.904C258.779 13.904 259.147 13.968 259.489 14.096L258.929 15.936C258.811 15.8613 258.673 15.808 258.513 15.776C258.353 15.744 258.198 15.728 258.049 15.728C257.558 15.728 257.158 15.8987 256.849 16.24C256.539 16.5707 256.385 17.04 256.385 17.648V22H254.368V14.096ZM263.839 22.192C263.178 22.192 262.602 22.0853 262.111 21.872C261.621 21.6587 261.205 21.3653 260.863 20.992C260.533 20.608 260.282 20.1653 260.111 19.664C259.951 19.1627 259.871 18.624 259.871 18.048C259.871 17.4613 259.951 16.9173 260.111 16.416C260.271 15.904 260.511 15.4667 260.831 15.104C261.151 14.7307 261.551 14.4373 262.031 14.224C262.511 14.0107 263.071 13.904 263.711 13.904C264.351 13.904 264.911 14.0053 265.391 14.208C265.871 14.4107 266.266 14.6933 266.575 15.056C266.885 15.4187 267.114 15.8507 267.263 16.352C267.423 16.8427 267.503 17.3813 267.503 17.968C267.503 18.0747 267.493 18.1973 267.471 18.336C267.461 18.4747 267.445 18.5867 267.423 18.672H261.919C261.951 18.96 262.026 19.2213 262.143 19.456C262.271 19.68 262.426 19.872 262.607 20.032C262.799 20.192 263.007 20.3147 263.231 20.4C263.466 20.4747 263.706 20.512 263.951 20.512C264.41 20.512 264.794 20.432 265.103 20.272C265.413 20.112 265.663 19.9093 265.855 19.664L266.991 20.848C266.693 21.2533 266.277 21.5787 265.743 21.824C265.21 22.0693 264.575 22.192 263.839 22.192ZM263.711 15.44C263.199 15.44 262.783 15.6053 262.463 15.936C262.143 16.2667 261.957 16.704 261.903 17.248H265.487C265.434 16.704 265.247 16.2667 264.927 15.936C264.618 15.6053 264.213 15.44 263.711 15.44ZM271.04 22.192C270.688 22.192 270.352 22.1333 270.032 22.016C269.722 21.9093 269.45 21.7547 269.216 21.552C268.981 21.3387 268.794 21.0827 268.656 20.784C268.528 20.4853 268.464 20.1493 268.464 19.776C268.464 19.072 268.714 18.512 269.216 18.096C269.717 17.68 270.48 17.4453 271.504 17.392L273.36 17.28V16.96C273.36 16.448 273.205 16.096 272.896 15.904C272.586 15.712 272.202 15.616 271.744 15.616C271.381 15.616 271.04 15.6853 270.72 15.824C270.4 15.952 270.16 16.112 270 16.304L268.864 15.152C269.141 14.7893 269.541 14.4907 270.064 14.256C270.597 14.0213 271.248 13.904 272.016 13.904C273.146 13.904 273.989 14.1653 274.544 14.688C275.098 15.2107 275.376 15.92 275.376 16.816V22H273.472V20.736H273.376C273.173 21.184 272.88 21.5413 272.496 21.808C272.112 22.064 271.626 22.192 271.04 22.192ZM271.632 20.736C272.144 20.736 272.56 20.592 272.88 20.304C273.2 20.0053 273.36 19.5893 273.36 19.056V18.528L271.744 18.656C270.912 18.7093 270.496 19.0613 270.496 19.712C270.496 20.0427 270.602 20.2987 270.816 20.48C271.029 20.6507 271.301 20.736 271.632 20.736ZM280.249 22.192C279.748 22.192 279.289 22.0907 278.873 21.888C278.457 21.6853 278.1 21.408 277.801 21.056C277.502 20.6933 277.268 20.2613 277.097 19.76C276.926 19.248 276.841 18.688 276.841 18.08C276.841 17.4613 276.926 16.896 277.097 16.384C277.268 15.872 277.502 15.4347 277.801 15.072C278.1 14.6987 278.457 14.4107 278.873 14.208C279.289 14.0053 279.748 13.904 280.249 13.904C280.868 13.904 281.385 14.048 281.801 14.336C282.228 14.624 282.532 14.9973 282.713 15.456H282.809V10.4H284.825V22H282.921V20.512H282.825C282.633 21.0347 282.308 21.4453 281.849 21.744C281.401 22.0427 280.868 22.192 280.249 22.192ZM280.857 20.432C281.454 20.432 281.929 20.2187 282.281 19.792C282.633 19.3653 282.809 18.784 282.809 18.048C282.809 17.312 282.633 16.7307 282.281 16.304C281.929 15.8773 281.454 15.664 280.857 15.664C280.26 15.664 279.785 15.8773 279.433 16.304C279.081 16.7307 278.905 17.312 278.905 18.048C278.905 18.784 279.081 19.3653 279.433 19.792C279.785 20.2187 280.26 20.432 280.857 20.432ZM290.275 22.192C289.603 22.192 289.021 22.08 288.531 21.856C288.051 21.6213 287.656 21.312 287.347 20.928C287.037 20.544 286.808 20.1067 286.659 19.616C286.509 19.1147 286.435 18.592 286.435 18.048C286.435 17.504 286.504 16.9867 286.643 16.496C286.792 15.9947 287.016 15.552 287.315 15.168C287.624 14.784 288.019 14.48 288.499 14.256C288.979 14.0213 289.549 13.904 290.211 13.904C290.872 13.904 291.432 14.0213 291.891 14.256C292.36 14.4907 292.744 14.7893 293.043 15.152L291.699 16.368C291.517 16.144 291.315 15.9733 291.091 15.856C290.867 15.728 290.584 15.664 290.243 15.664C289.688 15.664 289.256 15.8773 288.947 16.304C288.637 16.72 288.483 17.3013 288.483 18.048C288.483 18.7947 288.643 19.3813 288.963 19.808C289.283 20.224 289.72 20.432 290.275 20.432C290.605 20.432 290.893 20.368 291.139 20.24C291.384 20.112 291.597 19.9307 291.779 19.696L293.107 20.928C292.808 21.2907 292.419 21.5947 291.939 21.84C291.469 22.0747 290.915 22.192 290.275 22.192ZM294.493 14.096H296.398V15.424H296.494C296.654 14.9653 296.899 14.5973 297.23 14.32C297.571 14.0427 297.998 13.904 298.51 13.904C298.904 13.904 299.272 13.968 299.614 14.096L299.054 15.936C298.936 15.8613 298.798 15.808 298.638 15.776C298.478 15.744 298.323 15.728 298.174 15.728C297.683 15.728 297.283 15.8987 296.974 16.24C296.664 16.5707 296.51 17.04 296.51 17.648V22H294.493V14.096ZM303.446 22.192C302.476 22.192 301.772 21.9307 301.334 21.408C300.897 20.8747 300.678 20.0747 300.678 19.008V14.096H302.694V18.608C302.694 19.248 302.806 19.7227 303.03 20.032C303.254 20.3413 303.622 20.496 304.134 20.496C304.625 20.496 304.993 20.3307 305.238 20C305.494 19.6587 305.622 19.168 305.622 18.528V14.096H307.638V22H305.734V20.72H305.638C305.457 21.1467 305.18 21.4987 304.806 21.776C304.433 22.0533 303.98 22.192 303.446 22.192ZM309.743 14.096H311.648V15.296H311.744C311.946 14.88 312.229 14.544 312.592 14.288C312.965 14.032 313.418 13.904 313.952 13.904C315.253 13.904 316.09 14.3947 316.464 15.376C316.666 14.928 316.981 14.5707 317.408 14.304C317.834 14.0373 318.336 13.904 318.912 13.904C319.872 13.904 320.576 14.1707 321.024 14.704C321.472 15.2267 321.696 16.0213 321.696 17.088V22H319.68V17.424C319.68 16.208 319.194 15.6 318.224 15.6C317.722 15.6 317.344 15.7653 317.088 16.096C316.842 16.4267 316.72 16.9013 316.72 17.52V22H314.704V17.424C314.704 16.816 314.586 16.3627 314.352 16.064C314.128 15.7547 313.76 15.6 313.248 15.6C312.768 15.6 312.4 15.7653 312.144 16.096C311.888 16.4267 311.76 16.9013 311.76 17.52V22H309.743V14.096ZM328.289 22.192C327.67 22.192 327.131 22.0427 326.673 21.744C326.225 21.4453 325.905 21.0347 325.713 20.512H325.617V22H323.697V10.4H325.713V15.456H325.809C325.99 14.9973 326.294 14.624 326.721 14.336C327.147 14.048 327.67 13.904 328.289 13.904C328.779 13.904 329.233 14.0053 329.649 14.208C330.075 14.4107 330.438 14.6987 330.737 15.072C331.046 15.4347 331.286 15.872 331.457 16.384C331.627 16.896 331.713 17.4613 331.713 18.08C331.713 18.688 331.627 19.248 331.457 19.76C331.286 20.2613 331.046 20.6933 330.737 21.056C330.438 21.408 330.075 21.6853 329.649 21.888C329.233 22.0907 328.779 22.192 328.289 22.192ZM327.665 20.432C328.262 20.432 328.742 20.2187 329.105 19.792C329.467 19.3653 329.649 18.784 329.649 18.048C329.649 17.312 329.467 16.7307 329.105 16.304C328.742 15.8773 328.262 15.664 327.665 15.664C327.078 15.664 326.603 15.8773 326.241 16.304C325.889 16.7307 325.713 17.312 325.713 18.048C325.713 18.784 325.889 19.3653 326.241 19.792C326.603 20.2187 327.078 20.432 327.665 20.432ZM340.558 22.192C339.726 22.192 339.027 22.0693 338.462 21.824C337.897 21.568 337.411 21.2213 337.006 20.784L338.174 19.488C338.43 19.776 338.75 20.0107 339.134 20.192C339.529 20.3733 339.966 20.464 340.446 20.464C341.022 20.464 341.486 20.336 341.838 20.08C342.19 19.824 342.366 19.4453 342.366 18.944C342.366 18.464 342.201 18.112 341.87 17.888C341.539 17.664 341.102 17.552 340.558 17.552H339.518V15.856H340.558C341.038 15.856 341.395 15.7333 341.63 15.488C341.865 15.232 341.982 14.9013 341.982 14.496C341.982 14.2507 341.939 14.0427 341.854 13.872C341.769 13.7013 341.651 13.5627 341.502 13.456C341.363 13.3387 341.198 13.2587 341.006 13.216C340.814 13.1627 340.617 13.136 340.414 13.136C339.977 13.136 339.577 13.2213 339.214 13.392C338.851 13.5627 338.547 13.7867 338.302 14.064L337.198 12.816C337.582 12.3893 338.046 12.048 338.59 11.792C339.134 11.536 339.806 11.408 340.606 11.408C341.129 11.408 341.609 11.4773 342.046 11.616C342.483 11.7547 342.857 11.952 343.166 12.208C343.475 12.4533 343.715 12.7467 343.886 13.088C344.057 13.4293 344.142 13.808 344.142 14.224C344.142 14.768 343.982 15.248 343.662 15.664C343.342 16.0693 342.878 16.3787 342.27 16.592V16.688C342.59 16.752 342.883 16.8587 343.15 17.008C343.427 17.1573 343.662 17.344 343.854 17.568C344.057 17.7813 344.217 18.0267 344.334 18.304C344.451 18.5707 344.51 18.864 344.51 19.184C344.51 19.6213 344.425 20.0267 344.254 20.4C344.083 20.7627 343.827 21.0773 343.486 21.344C343.155 21.6107 342.745 21.8187 342.254 21.968C341.763 22.1173 341.198 22.192 340.558 22.192Z" fill="#242E30"/>
<g clip-path="url(#clip2_21359_2364)">
<path d="M353.783 19.8854L357.799 16.0004L353.75 12.1154L354.406 11.3936L358.56 15.4032C358.722 15.5666 358.812 15.7871 358.812 16.0168C358.812 16.2466 358.722 16.467 358.56 16.6304L354.459 20.5942L353.783 19.8854Z" fill="#3C4C4F"/>
</g>
<path d="M1.168 51.6H5.216C6.176 51.6 6.912 51.8613 7.424 52.384C7.94667 52.896 8.208 53.5787 8.208 54.432C8.208 54.6667 8.16533 54.896 8.08 55.12C7.99467 55.344 7.87733 55.552 7.728 55.744C7.57867 55.936 7.39733 56.1067 7.184 56.256C6.98133 56.4053 6.75733 56.5173 6.512 56.592V56.688C6.768 56.72 7.024 56.8053 7.28 56.944C7.536 57.0827 7.76 57.2587 7.952 57.472C8.15467 57.6853 8.32 57.9307 8.448 58.208C8.576 58.4853 8.64 58.7733 8.64 59.072C8.64 59.9467 8.34667 60.656 7.76 61.2C7.184 61.7333 6.352 62 5.264 62H1.168V51.6ZM4.848 55.952C5.21067 55.952 5.49867 55.8293 5.712 55.584C5.936 55.3387 6.048 55.008 6.048 54.592C6.048 54.1867 5.936 53.8613 5.712 53.616C5.49867 53.36 5.21067 53.232 4.848 53.232H3.312V55.952H4.848ZM5.104 60.368C5.54133 60.368 5.88267 60.2453 6.128 60C6.37333 59.744 6.496 59.3867 6.496 58.928C6.496 58.4587 6.37333 58.1013 6.128 57.856C5.88267 57.6 5.54133 57.472 5.104 57.472H3.312V60.368H5.104ZM10.3685 54.096H12.2725V55.424H12.3685C12.5285 54.9653 12.7738 54.5973 13.1045 54.32C13.4458 54.0427 13.8725 53.904 14.3845 53.904C14.7792 53.904 15.1472 53.968 15.4885 54.096L14.9285 55.936C14.8112 55.8613 14.6725 55.808 14.5125 55.776C14.3525 55.744 14.1978 55.728 14.0485 55.728C13.5578 55.728 13.1578 55.8987 12.8485 56.24C12.5392 56.5707 12.3845 57.04 12.3845 57.648V62H10.3685V54.096ZM19.8394 62.192C19.178 62.192 18.602 62.0853 18.1114 61.872C17.6207 61.6587 17.2047 61.3653 16.8634 60.992C16.5327 60.608 16.282 60.1653 16.1114 59.664C15.9514 59.1627 15.8714 58.624 15.8714 58.048C15.8714 57.4613 15.9514 56.9173 16.1114 56.416C16.2714 55.904 16.5114 55.4667 16.8314 55.104C17.1514 54.7307 17.5514 54.4373 18.0314 54.224C18.5114 54.0107 19.0714 53.904 19.7114 53.904C20.3514 53.904 20.9114 54.0053 21.3914 54.208C21.8714 54.4107 22.266 54.6933 22.5754 55.056C22.8847 55.4187 23.114 55.8507 23.2634 56.352C23.4234 56.8427 23.5034 57.3813 23.5034 57.968C23.5034 58.0747 23.4927 58.1973 23.4714 58.336C23.4607 58.4747 23.4447 58.5867 23.4234 58.672H17.9194C17.9514 58.96 18.026 59.2213 18.1434 59.456C18.2714 59.68 18.426 59.872 18.6074 60.032C18.7994 60.192 19.0074 60.3147 19.2314 60.4C19.466 60.4747 19.706 60.512 19.9514 60.512C20.41 60.512 20.794 60.432 21.1034 60.272C21.4127 60.112 21.6634 59.9093 21.8554 59.664L22.9914 60.848C22.6927 61.2533 22.2767 61.5787 21.7434 61.824C21.21 62.0693 20.5754 62.192 19.8394 62.192ZM19.7114 55.44C19.1994 55.44 18.7834 55.6053 18.4634 55.936C18.1434 56.2667 17.9567 56.704 17.9034 57.248H21.4874C21.434 56.704 21.2474 56.2667 20.9274 55.936C20.618 55.6053 20.2127 55.44 19.7114 55.44ZM27.0396 62.192C26.6876 62.192 26.3516 62.1333 26.0316 62.016C25.7223 61.9093 25.4503 61.7547 25.2156 61.552C24.981 61.3387 24.7943 61.0827 24.6556 60.784C24.5276 60.4853 24.4636 60.1493 24.4636 59.776C24.4636 59.072 24.7143 58.512 25.2156 58.096C25.717 57.68 26.4796 57.4453 27.5036 57.392L29.3596 57.28V56.96C29.3596 56.448 29.205 56.096 28.8956 55.904C28.5863 55.712 28.2023 55.616 27.7436 55.616C27.381 55.616 27.0396 55.6853 26.7196 55.824C26.3996 55.952 26.1596 56.112 25.9996 56.304L24.8636 55.152C25.141 54.7893 25.541 54.4907 26.0636 54.256C26.597 54.0213 27.2476 53.904 28.0156 53.904C29.1463 53.904 29.989 54.1653 30.5436 54.688C31.0983 55.2107 31.3756 55.92 31.3756 56.816V62H29.4716V60.736H29.3756C29.173 61.184 28.8796 61.5413 28.4956 61.808C28.1116 62.064 27.6263 62.192 27.0396 62.192ZM27.6316 60.736C28.1436 60.736 28.5596 60.592 28.8796 60.304C29.1996 60.0053 29.3596 59.5893 29.3596 59.056V58.528L27.7436 58.656C26.9116 58.7093 26.4956 59.0613 26.4956 59.712C26.4956 60.0427 26.6023 60.2987 26.8156 60.48C27.029 60.6507 27.301 60.736 27.6316 60.736ZM36.2489 62.192C35.7475 62.192 35.2889 62.0907 34.8729 61.888C34.4569 61.6853 34.0995 61.408 33.8009 61.056C33.5022 60.6933 33.2675 60.2613 33.0969 59.76C32.9262 59.248 32.8409 58.688 32.8409 58.08C32.8409 57.4613 32.9262 56.896 33.0969 56.384C33.2675 55.872 33.5022 55.4347 33.8009 55.072C34.0995 54.6987 34.4569 54.4107 34.8729 54.208C35.2889 54.0053 35.7475 53.904 36.2489 53.904C36.8675 53.904 37.3849 54.048 37.8009 54.336C38.2275 54.624 38.5315 54.9973 38.7129 55.456H38.8089V50.4H40.8249V62H38.9209V60.512H38.8249C38.6329 61.0347 38.3075 61.4453 37.8489 61.744C37.4009 62.0427 36.8675 62.192 36.2489 62.192ZM36.8569 60.432C37.4542 60.432 37.9289 60.2187 38.2809 59.792C38.6329 59.3653 38.8089 58.784 38.8089 58.048C38.8089 57.312 38.6329 56.7307 38.2809 56.304C37.9289 55.8773 37.4542 55.664 36.8569 55.664C36.2595 55.664 35.7849 55.8773 35.4329 56.304C35.0809 56.7307 34.9049 57.312 34.9049 58.048C34.9049 58.784 35.0809 59.3653 35.4329 59.792C35.7849 60.2187 36.2595 60.432 36.8569 60.432ZM46.2746 62.192C45.6026 62.192 45.0213 62.08 44.5306 61.856C44.0506 61.6213 43.656 61.312 43.3466 60.928C43.0373 60.544 42.808 60.1067 42.6586 59.616C42.5093 59.1147 42.4346 58.592 42.4346 58.048C42.4346 57.504 42.504 56.9867 42.6426 56.496C42.792 55.9947 43.016 55.552 43.3146 55.168C43.624 54.784 44.0186 54.48 44.4986 54.256C44.9786 54.0213 45.5493 53.904 46.2106 53.904C46.872 53.904 47.432 54.0213 47.8906 54.256C48.36 54.4907 48.744 54.7893 49.0426 55.152L47.6986 56.368C47.5173 56.144 47.3146 55.9733 47.0906 55.856C46.8666 55.728 46.584 55.664 46.2426 55.664C45.688 55.664 45.256 55.8773 44.9466 56.304C44.6373 56.72 44.4826 57.3013 44.4826 58.048C44.4826 58.7947 44.6426 59.3813 44.9626 59.808C45.2826 60.224 45.72 60.432 46.2746 60.432C46.6053 60.432 46.8933 60.368 47.1386 60.24C47.384 60.112 47.5973 59.9307 47.7786 59.696L49.1066 60.928C48.808 61.2907 48.4186 61.5947 47.9386 61.84C47.4693 62.0747 46.9146 62.192 46.2746 62.192ZM50.4935 54.096H52.3975V55.424H52.4935C52.6535 54.9653 52.8988 54.5973 53.2295 54.32C53.5708 54.0427 53.9975 53.904 54.5095 53.904C54.9042 53.904 55.2722 53.968 55.6135 54.096L55.0535 55.936C54.9362 55.8613 54.7975 55.808 54.6375 55.776C54.4775 55.744 54.3228 55.728 54.1735 55.728C53.6828 55.728 53.2828 55.8987 52.9735 56.24C52.6642 56.5707 52.5095 57.04 52.5095 57.648V62H50.4935V54.096ZM59.4464 62.192C58.4757 62.192 57.7717 61.9307 57.3344 61.408C56.897 60.8747 56.6784 60.0747 56.6784 59.008V54.096H58.6944V58.608C58.6944 59.248 58.8064 59.7227 59.0304 60.032C59.2544 60.3413 59.6224 60.496 60.1344 60.496C60.625 60.496 60.993 60.3307 61.2384 60C61.4944 59.6587 61.6224 59.168 61.6224 58.528V54.096H63.6384V62H61.7344V60.72H61.6384C61.457 61.1467 61.1797 61.4987 60.8064 61.776C60.433 62.0533 59.9797 62.192 59.4464 62.192ZM65.7435 54.096H67.6475V55.296H67.7435C67.9462 54.88 68.2288 54.544 68.5915 54.288C68.9648 54.032 69.4182 53.904 69.9515 53.904C71.2528 53.904 72.0902 54.3947 72.4635 55.376C72.6662 54.928 72.9808 54.5707 73.4075 54.304C73.8342 54.0373 74.3355 53.904 74.9115 53.904C75.8715 53.904 76.5755 54.1707 77.0235 54.704C77.4715 55.2267 77.6955 56.0213 77.6955 57.088V62H75.6795V57.424C75.6795 56.208 75.1942 55.6 74.2235 55.6C73.7222 55.6 73.3435 55.7653 73.0875 56.096C72.8422 56.4267 72.7195 56.9013 72.7195 57.52V62H70.7035V57.424C70.7035 56.816 70.5862 56.3627 70.3515 56.064C70.1275 55.7547 69.7595 55.6 69.2475 55.6C68.7675 55.6 68.3995 55.7653 68.1435 56.096C67.8875 56.4267 67.7595 56.9013 67.7595 57.52V62H65.7435V54.096ZM84.2886 62.192C83.67 62.192 83.1313 62.0427 82.6726 61.744C82.2246 61.4453 81.9046 61.0347 81.7126 60.512H81.6166V62H79.6966V50.4H81.7126V55.456H81.8086C81.99 54.9973 82.294 54.624 82.7206 54.336C83.1473 54.048 83.67 53.904 84.2886 53.904C84.7793 53.904 85.2326 54.0053 85.6486 54.208C86.0753 54.4107 86.438 54.6987 86.7366 55.072C87.046 55.4347 87.286 55.872 87.4566 56.384C87.6273 56.896 87.7126 57.4613 87.7126 58.08C87.7126 58.688 87.6273 59.248 87.4566 59.76C87.286 60.2613 87.046 60.6933 86.7366 61.056C86.438 61.408 86.0753 61.6853 85.6486 61.888C85.2326 62.0907 84.7793 62.192 84.2886 62.192ZM83.6646 60.432C84.262 60.432 84.742 60.2187 85.1046 59.792C85.4673 59.3653 85.6486 58.784 85.6486 58.048C85.6486 57.312 85.4673 56.7307 85.1046 56.304C84.742 55.8773 84.262 55.664 83.6646 55.664C83.078 55.664 82.6033 55.8773 82.2406 56.304C81.8886 56.7307 81.7126 57.312 81.7126 58.048C81.7126 58.784 81.8886 59.3653 82.2406 59.792C82.6033 60.2187 83.078 60.432 83.6646 60.432ZM97.7581 60.064H92.7661V58.544L97.0861 51.6H99.4061L95.1821 58.352H97.7581V55.776H99.8381V58.352H101.15V60.064H99.8381V62H97.7581V60.064Z" fill="#242E30"/>
<g clip-path="url(#clip3_21359_2364)">
<path d="M109.783 59.8854L113.799 56.0004L109.75 52.1154L110.406 51.3936L114.56 55.4032C114.722 55.5666 114.812 55.7871 114.812 56.0168C114.812 56.2466 114.722 56.467 114.56 56.6304L110.459 60.5942L109.783 59.8854Z" fill="#3C4C4F"/>
</g>
<path d="M123.168 51.6H127.216C128.176 51.6 128.912 51.8613 129.424 52.384C129.947 52.896 130.208 53.5787 130.208 54.432C130.208 54.6667 130.165 54.896 130.08 55.12C129.995 55.344 129.877 55.552 129.728 55.744C129.579 55.936 129.397 56.1067 129.184 56.256C128.981 56.4053 128.757 56.5173 128.512 56.592V56.688C128.768 56.72 129.024 56.8053 129.28 56.944C129.536 57.0827 129.76 57.2587 129.952 57.472C130.155 57.6853 130.32 57.9307 130.448 58.208C130.576 58.4853 130.64 58.7733 130.64 59.072C130.64 59.9467 130.347 60.656 129.76 61.2C129.184 61.7333 128.352 62 127.264 62H123.168V51.6ZM126.848 55.952C127.211 55.952 127.499 55.8293 127.712 55.584C127.936 55.3387 128.048 55.008 128.048 54.592C128.048 54.1867 127.936 53.8613 127.712 53.616C127.499 53.36 127.211 53.232 126.848 53.232H125.312V55.952H126.848ZM127.104 60.368C127.541 60.368 127.883 60.2453 128.128 60C128.373 59.744 128.496 59.3867 128.496 58.928C128.496 58.4587 128.373 58.1013 128.128 57.856C127.883 57.6 127.541 57.472 127.104 57.472H125.312V60.368H127.104ZM132.368 54.096H134.273V55.424H134.369C134.529 54.9653 134.774 54.5973 135.105 54.32C135.446 54.0427 135.873 53.904 136.385 53.904C136.779 53.904 137.147 53.968 137.489 54.096L136.929 55.936C136.811 55.8613 136.673 55.808 136.513 55.776C136.353 55.744 136.198 55.728 136.049 55.728C135.558 55.728 135.158 55.8987 134.849 56.24C134.539 56.5707 134.385 57.04 134.385 57.648V62H132.368V54.096ZM141.839 62.192C141.178 62.192 140.602 62.0853 140.111 61.872C139.621 61.6587 139.205 61.3653 138.863 60.992C138.533 60.608 138.282 60.1653 138.111 59.664C137.951 59.1627 137.871 58.624 137.871 58.048C137.871 57.4613 137.951 56.9173 138.111 56.416C138.271 55.904 138.511 55.4667 138.831 55.104C139.151 54.7307 139.551 54.4373 140.031 54.224C140.511 54.0107 141.071 53.904 141.711 53.904C142.351 53.904 142.911 54.0053 143.391 54.208C143.871 54.4107 144.266 54.6933 144.575 55.056C144.885 55.4187 145.114 55.8507 145.263 56.352C145.423 56.8427 145.503 57.3813 145.503 57.968C145.503 58.0747 145.493 58.1973 145.471 58.336C145.461 58.4747 145.445 58.5867 145.423 58.672H139.919C139.951 58.96 140.026 59.2213 140.143 59.456C140.271 59.68 140.426 59.872 140.607 60.032C140.799 60.192 141.007 60.3147 141.231 60.4C141.466 60.4747 141.706 60.512 141.951 60.512C142.41 60.512 142.794 60.432 143.103 60.272C143.413 60.112 143.663 59.9093 143.855 59.664L144.991 60.848C144.693 61.2533 144.277 61.5787 143.743 61.824C143.21 62.0693 142.575 62.192 141.839 62.192ZM141.711 55.44C141.199 55.44 140.783 55.6053 140.463 55.936C140.143 56.2667 139.957 56.704 139.903 57.248H143.487C143.434 56.704 143.247 56.2667 142.927 55.936C142.618 55.6053 142.213 55.44 141.711 55.44ZM149.04 62.192C148.688 62.192 148.352 62.1333 148.032 62.016C147.722 61.9093 147.45 61.7547 147.216 61.552C146.981 61.3387 146.794 61.0827 146.656 60.784C146.528 60.4853 146.464 60.1493 146.464 59.776C146.464 59.072 146.714 58.512 147.216 58.096C147.717 57.68 148.48 57.4453 149.504 57.392L151.36 57.28V56.96C151.36 56.448 151.205 56.096 150.896 55.904C150.586 55.712 150.202 55.616 149.744 55.616C149.381 55.616 149.04 55.6853 148.72 55.824C148.4 55.952 148.16 56.112 148 56.304L146.864 55.152C147.141 54.7893 147.541 54.4907 148.064 54.256C148.597 54.0213 149.248 53.904 150.016 53.904C151.146 53.904 151.989 54.1653 152.544 54.688C153.098 55.2107 153.376 55.92 153.376 56.816V62H151.472V60.736H151.376C151.173 61.184 150.88 61.5413 150.496 61.808C150.112 62.064 149.626 62.192 149.04 62.192ZM149.632 60.736C150.144 60.736 150.56 60.592 150.88 60.304C151.2 60.0053 151.36 59.5893 151.36 59.056V58.528L149.744 58.656C148.912 58.7093 148.496 59.0613 148.496 59.712C148.496 60.0427 148.602 60.2987 148.816 60.48C149.029 60.6507 149.301 60.736 149.632 60.736ZM158.249 62.192C157.748 62.192 157.289 62.0907 156.873 61.888C156.457 61.6853 156.1 61.408 155.801 61.056C155.502 60.6933 155.268 60.2613 155.097 59.76C154.926 59.248 154.841 58.688 154.841 58.08C154.841 57.4613 154.926 56.896 155.097 56.384C155.268 55.872 155.502 55.4347 155.801 55.072C156.1 54.6987 156.457 54.4107 156.873 54.208C157.289 54.0053 157.748 53.904 158.249 53.904C158.868 53.904 159.385 54.048 159.801 54.336C160.228 54.624 160.532 54.9973 160.713 55.456H160.809V50.4H162.825V62H160.921V60.512H160.825C160.633 61.0347 160.308 61.4453 159.849 61.744C159.401 62.0427 158.868 62.192 158.249 62.192ZM158.857 60.432C159.454 60.432 159.929 60.2187 160.281 59.792C160.633 59.3653 160.809 58.784 160.809 58.048C160.809 57.312 160.633 56.7307 160.281 56.304C159.929 55.8773 159.454 55.664 158.857 55.664C158.26 55.664 157.785 55.8773 157.433 56.304C157.081 56.7307 156.905 57.312 156.905 58.048C156.905 58.784 157.081 59.3653 157.433 59.792C157.785 60.2187 158.26 60.432 158.857 60.432ZM168.275 62.192C167.603 62.192 167.021 62.08 166.531 61.856C166.051 61.6213 165.656 61.312 165.347 60.928C165.037 60.544 164.808 60.1067 164.659 59.616C164.509 59.1147 164.435 58.592 164.435 58.048C164.435 57.504 164.504 56.9867 164.643 56.496C164.792 55.9947 165.016 55.552 165.315 55.168C165.624 54.784 166.019 54.48 166.499 54.256C166.979 54.0213 167.549 53.904 168.211 53.904C168.872 53.904 169.432 54.0213 169.891 54.256C170.36 54.4907 170.744 54.7893 171.043 55.152L169.699 56.368C169.517 56.144 169.315 55.9733 169.091 55.856C168.867 55.728 168.584 55.664 168.243 55.664C167.688 55.664 167.256 55.8773 166.947 56.304C166.637 56.72 166.483 57.3013 166.483 58.048C166.483 58.7947 166.643 59.3813 166.963 59.808C167.283 60.224 167.72 60.432 168.275 60.432C168.605 60.432 168.893 60.368 169.139 60.24C169.384 60.112 169.597 59.9307 169.779 59.696L171.107 60.928C170.808 61.2907 170.419 61.5947 169.939 61.84C169.469 62.0747 168.915 62.192 168.275 62.192ZM172.493 54.096H174.398V55.424H174.494C174.654 54.9653 174.899 54.5973 175.23 54.32C175.571 54.0427 175.998 53.904 176.51 53.904C176.904 53.904 177.272 53.968 177.614 54.096L177.054 55.936C176.936 55.8613 176.798 55.808 176.638 55.776C176.478 55.744 176.323 55.728 176.174 55.728C175.683 55.728 175.283 55.8987 174.974 56.24C174.664 56.5707 174.51 57.04 174.51 57.648V62H172.493V54.096ZM181.446 62.192C180.476 62.192 179.772 61.9307 179.334 61.408C178.897 60.8747 178.678 60.0747 178.678 59.008V54.096H180.694V58.608C180.694 59.248 180.806 59.7227 181.03 60.032C181.254 60.3413 181.622 60.496 182.134 60.496C182.625 60.496 182.993 60.3307 183.238 60C183.494 59.6587 183.622 59.168 183.622 58.528V54.096H185.638V62H183.734V60.72H183.638C183.457 61.1467 183.18 61.4987 182.806 61.776C182.433 62.0533 181.98 62.192 181.446 62.192ZM187.743 54.096H189.648V55.296H189.744C189.946 54.88 190.229 54.544 190.592 54.288C190.965 54.032 191.418 53.904 191.952 53.904C193.253 53.904 194.09 54.3947 194.464 55.376C194.666 54.928 194.981 54.5707 195.408 54.304C195.834 54.0373 196.336 53.904 196.912 53.904C197.872 53.904 198.576 54.1707 199.024 54.704C199.472 55.2267 199.696 56.0213 199.696 57.088V62H197.68V57.424C197.68 56.208 197.194 55.6 196.224 55.6C195.722 55.6 195.344 55.7653 195.088 56.096C194.842 56.4267 194.72 56.9013 194.72 57.52V62H192.704V57.424C192.704 56.816 192.586 56.3627 192.352 56.064C192.128 55.7547 191.76 55.6 191.248 55.6C190.768 55.6 190.4 55.7653 190.144 56.096C189.888 56.4267 189.76 56.9013 189.76 57.52V62H187.743V54.096ZM206.289 62.192C205.67 62.192 205.131 62.0427 204.673 61.744C204.225 61.4453 203.905 61.0347 203.713 60.512H203.617V62H201.697V50.4H203.713V55.456H203.809C203.99 54.9973 204.294 54.624 204.721 54.336C205.147 54.048 205.67 53.904 206.289 53.904C206.779 53.904 207.233 54.0053 207.649 54.208C208.075 54.4107 208.438 54.6987 208.737 55.072C209.046 55.4347 209.286 55.872 209.457 56.384C209.627 56.896 209.713 57.4613 209.713 58.08C209.713 58.688 209.627 59.248 209.457 59.76C209.286 60.2613 209.046 60.6933 208.737 61.056C208.438 61.408 208.075 61.6853 207.649 61.888C207.233 62.0907 206.779 62.192 206.289 62.192ZM205.665 60.432C206.262 60.432 206.742 60.2187 207.105 59.792C207.467 59.3653 207.649 58.784 207.649 58.048C207.649 57.312 207.467 56.7307 207.105 56.304C206.742 55.8773 206.262 55.664 205.665 55.664C205.078 55.664 204.603 55.8773 204.241 56.304C203.889 56.7307 203.713 57.312 203.713 58.048C203.713 58.784 203.889 59.3653 204.241 59.792C204.603 60.2187 205.078 60.432 205.665 60.432ZM218.654 62.192C217.833 62.192 217.139 62.0747 216.574 61.84C216.019 61.5947 215.539 61.264 215.134 60.848L216.302 59.536C216.569 59.8133 216.883 60.0373 217.246 60.208C217.609 60.3787 218.03 60.464 218.51 60.464C219.075 60.464 219.545 60.32 219.918 60.032C220.291 59.744 220.478 59.328 220.478 58.784C220.478 58.24 220.291 57.84 219.918 57.584C219.555 57.3173 219.102 57.184 218.558 57.184H216.638L215.854 56.4V51.6H222.03V53.328H217.822V55.536H218.846C219.411 55.536 219.923 55.6107 220.382 55.76C220.851 55.9093 221.251 56.1227 221.582 56.4C221.923 56.6773 222.185 57.0187 222.366 57.424C222.547 57.8187 222.638 58.272 222.638 58.784C222.638 59.2747 222.553 59.728 222.382 60.144C222.211 60.56 221.955 60.9227 221.614 61.232C221.283 61.5307 220.867 61.7653 220.366 61.936C219.875 62.1067 219.305 62.192 218.654 62.192Z" fill="#242E30"/>
<g clip-path="url(#clip4_21359_2364)">
<path d="M231.783 59.8854L235.799 56.0004L231.75 52.1154L232.406 51.3936L236.56 55.4032C236.722 55.5666 236.812 55.7871 236.812 56.0168C236.812 56.2466 236.722 56.467 236.56 56.6304L232.459 60.5942L231.783 59.8854Z" fill="#3C4C4F"/>
</g>
<path d="M249.6 62.192C248.885 62.192 248.235 62.0587 247.648 61.792C247.061 61.5147 246.56 61.136 246.144 60.656C245.728 60.1653 245.403 59.5893 245.168 58.928C244.944 58.2667 244.832 57.5467 244.832 56.768C244.832 55.968 244.949 55.2373 245.184 54.576C245.419 53.9147 245.744 53.3493 246.16 52.88C246.576 52.4107 247.072 52.048 247.648 51.792C248.224 51.536 248.853 51.408 249.536 51.408C250.325 51.408 251.019 51.5467 251.616 51.824C252.213 52.0907 252.731 52.464 253.168 52.944L252.304 53.792C251.995 53.4187 251.6 53.1307 251.12 52.928C250.651 52.7147 250.144 52.608 249.6 52.608C249.099 52.608 248.64 52.7093 248.224 52.912C247.819 53.1147 247.467 53.4027 247.168 53.776C246.869 54.1387 246.635 54.576 246.464 55.088C246.304 55.6 246.224 56.16 246.224 56.768C246.224 57.3653 246.309 57.92 246.48 58.432C246.651 58.944 246.885 59.392 247.184 59.776C247.483 60.1493 247.84 60.448 248.256 60.672C248.672 60.8853 249.131 60.992 249.632 60.992C250.176 60.992 250.699 60.8907 251.2 60.688C251.701 60.4747 252.107 60.1653 252.416 59.76L253.28 60.608C252.864 61.12 252.331 61.5147 251.68 61.792C251.04 62.0587 250.347 62.192 249.6 62.192ZM258.002 62.192C257.565 62.192 257.17 62.1333 256.818 62.016C256.466 61.8987 256.162 61.7173 255.906 61.472C255.661 61.2267 255.469 60.912 255.33 60.528C255.191 60.144 255.122 59.6853 255.122 59.152V54.096H256.402V58.912C256.402 59.7227 256.557 60.2987 256.866 60.64C257.186 60.9707 257.65 61.136 258.258 61.136C258.834 61.136 259.287 60.928 259.618 60.512C259.959 60.096 260.13 59.488 260.13 58.688V54.096H261.41V62H260.194V60.752H260.098C259.906 61.168 259.639 61.5147 259.298 61.792C258.967 62.0587 258.535 62.192 258.002 62.192ZM264.126 54.096H265.342V55.376H265.438C265.608 54.96 265.854 54.6133 266.174 54.336C266.494 54.048 266.894 53.904 267.374 53.904C267.779 53.904 268.136 53.984 268.446 54.144L268.014 55.296C267.875 55.2213 267.726 55.1733 267.566 55.152C267.416 55.12 267.262 55.104 267.102 55.104C266.579 55.104 266.163 55.3173 265.854 55.744C265.555 56.16 265.406 56.6933 265.406 57.344V62H264.126V54.096ZM270.094 54.096H271.31V55.376H271.406C271.577 54.96 271.822 54.6133 272.142 54.336C272.462 54.048 272.862 53.904 273.342 53.904C273.748 53.904 274.105 53.984 274.414 54.144L273.982 55.296C273.844 55.2213 273.694 55.1733 273.534 55.152C273.385 55.12 273.23 55.104 273.07 55.104C272.548 55.104 272.132 55.3173 271.822 55.744C271.524 56.16 271.374 56.6933 271.374 57.344V62H270.094V54.096ZM278.761 62.192C278.195 62.192 277.678 62.096 277.209 61.904C276.75 61.712 276.355 61.44 276.025 61.088C275.705 60.7253 275.454 60.288 275.273 59.776C275.102 59.264 275.017 58.688 275.017 58.048C275.017 57.376 275.107 56.784 275.289 56.272C275.47 55.7493 275.721 55.3173 276.041 54.976C276.361 54.624 276.739 54.3573 277.177 54.176C277.625 53.9947 278.115 53.904 278.649 53.904C279.182 53.904 279.673 53.9893 280.121 54.16C280.569 54.3307 280.953 54.5867 281.273 54.928C281.593 55.2587 281.843 55.68 282.025 56.192C282.206 56.6933 282.297 57.28 282.297 57.952C282.297 58.0373 282.291 58.1227 282.281 58.208C282.281 58.2933 282.275 58.3627 282.265 58.416H276.297C276.297 58.7893 276.361 59.1413 276.489 59.472C276.627 59.792 276.809 60.0747 277.033 60.32C277.267 60.5547 277.534 60.7413 277.833 60.88C278.142 61.0187 278.473 61.088 278.825 61.088C279.401 61.088 279.87 60.976 280.233 60.752C280.606 60.528 280.915 60.256 281.161 59.936L281.929 60.72C281.587 61.168 281.161 61.5253 280.649 61.792C280.147 62.0587 279.518 62.192 278.761 62.192ZM278.649 54.96C278.275 54.96 277.945 55.0293 277.657 55.168C277.369 55.3067 277.129 55.488 276.937 55.712C276.745 55.936 276.595 56.192 276.489 56.48C276.393 56.768 276.339 57.056 276.329 57.344H280.953C280.942 57.056 280.883 56.768 280.777 56.48C280.681 56.192 280.537 55.936 280.345 55.712C280.153 55.488 279.913 55.3067 279.625 55.168C279.347 55.0293 279.022 54.96 278.649 54.96ZM284.36 54.096H285.576V55.344H285.672C285.864 54.928 286.136 54.5867 286.488 54.32C286.84 54.0427 287.288 53.904 287.832 53.904C288.739 53.904 289.453 54.144 289.976 54.624C290.509 55.104 290.776 55.8773 290.776 56.944V62H289.496V57.184C289.496 56.3733 289.331 55.8027 289 55.472C288.68 55.1307 288.205 54.96 287.576 54.96C286.968 54.96 286.493 55.168 286.152 55.584C285.811 56 285.64 56.608 285.64 57.408V62H284.36V54.096ZM295.776 62.192C295.062 62.192 294.539 61.9787 294.208 61.552C293.878 61.1253 293.712 60.5387 293.712 59.792V55.136H292.304V54.096H293.712V51.952H294.976V54.096H297.264V55.136H294.976V59.68C294.976 60.192 295.072 60.5493 295.264 60.752C295.467 60.9547 295.723 61.056 296.032 61.056C296.246 61.056 296.438 61.0187 296.608 60.944C296.779 60.8587 296.939 60.7467 297.088 60.608L297.664 61.504C297.174 61.9627 296.544 62.192 295.776 62.192ZM303.251 54.096H304.467V55.712H304.563C304.659 55.4453 304.792 55.2 304.963 54.976C305.144 54.752 305.352 54.56 305.587 54.4C305.832 54.24 306.099 54.1173 306.387 54.032C306.685 53.9467 306.995 53.904 307.315 53.904C307.837 53.904 308.312 54.0107 308.739 54.224C309.176 54.4267 309.549 54.7147 309.859 55.088C310.168 55.4507 310.403 55.888 310.563 56.4C310.733 56.912 310.819 57.4667 310.819 58.064C310.819 58.6613 310.733 59.216 310.563 59.728C310.403 60.2293 310.168 60.6667 309.859 61.04C309.549 61.4027 309.176 61.6853 308.739 61.888C308.312 62.0907 307.837 62.192 307.315 62.192C306.664 62.192 306.104 62.0373 305.635 61.728C305.165 61.4187 304.829 61.024 304.627 60.544H304.531V64.96H303.251V54.096ZM306.995 61.04C307.347 61.04 307.672 60.9813 307.971 60.864C308.28 60.736 308.547 60.5493 308.771 60.304C309.005 60.048 309.187 59.7333 309.315 59.36C309.443 58.9867 309.507 58.5493 309.507 58.048C309.507 57.5467 309.443 57.1093 309.315 56.736C309.187 56.3627 309.005 56.0533 308.771 55.808C308.547 55.552 308.28 55.3653 307.971 55.248C307.672 55.12 307.347 55.056 306.995 55.056C306.653 55.056 306.333 55.12 306.035 55.248C305.736 55.3653 305.475 55.552 305.251 55.808C305.027 56.0533 304.851 56.3627 304.723 56.736C304.595 57.1093 304.531 57.5467 304.531 58.048C304.531 58.5493 304.595 58.9867 304.723 59.36C304.851 59.7333 305.027 60.048 305.251 60.304C305.475 60.5493 305.736 60.736 306.035 60.864C306.333 60.9813 306.653 61.04 306.995 61.04ZM314.62 62.192C314.257 62.192 313.921 62.1333 313.612 62.016C313.313 61.8987 313.052 61.7333 312.828 61.52C312.604 61.3067 312.428 61.056 312.3 60.768C312.182 60.4693 312.124 60.144 312.124 59.792C312.124 59.1093 312.369 58.56 312.86 58.144C313.35 57.728 314.049 57.4933 314.956 57.44L317.036 57.312V56.752C317.036 56.144 316.886 55.7067 316.588 55.44C316.3 55.1627 315.884 55.024 315.34 55.024C314.881 55.024 314.486 55.1093 314.156 55.28C313.825 55.4507 313.569 55.6373 313.388 55.84L312.62 55.072C312.897 54.7307 313.27 54.4533 313.74 54.24C314.22 54.016 314.764 53.904 315.372 53.904C315.916 53.904 316.374 53.9787 316.748 54.128C317.121 54.2667 317.42 54.4587 317.644 54.704C317.878 54.9493 318.044 55.2373 318.14 55.568C318.246 55.8987 318.3 56.2507 318.3 56.624V62H317.1V60.656H317.004C316.79 61.136 316.492 61.5147 316.108 61.792C315.724 62.0587 315.228 62.192 314.62 62.192ZM314.812 61.104C315.473 61.104 316.006 60.912 316.412 60.528C316.828 60.1333 317.036 59.6107 317.036 58.96V58.272L315.02 58.416C313.953 58.5013 313.42 58.9493 313.42 59.76C313.42 60.1653 313.548 60.4907 313.804 60.736C314.07 60.9813 314.406 61.104 314.812 61.104ZM324.028 65.152C323.345 65.152 322.753 65.0293 322.252 64.784C321.75 64.5493 321.35 64.256 321.052 63.904L321.9 63.088C322.124 63.3653 322.412 63.584 322.764 63.744C323.126 63.9147 323.526 64 323.964 64C324.646 64 325.18 63.8347 325.564 63.504C325.958 63.1733 326.156 62.592 326.156 61.76V60.224H326.06C325.974 60.4907 325.852 60.7307 325.692 60.944C325.532 61.1467 325.34 61.3227 325.116 61.472C324.902 61.6107 324.662 61.7227 324.396 61.808C324.14 61.8827 323.878 61.92 323.612 61.92C323.11 61.92 322.652 61.8293 322.236 61.648C321.83 61.4667 321.473 61.2053 321.164 60.864C320.865 60.512 320.63 60.0853 320.46 59.584C320.3 59.0827 320.22 58.5173 320.22 57.888C320.22 57.2693 320.3 56.7147 320.46 56.224C320.63 55.7333 320.865 55.3173 321.164 54.976C321.473 54.6347 321.83 54.3733 322.236 54.192C322.652 54 323.11 53.904 323.612 53.904C324.198 53.904 324.721 54.0587 325.18 54.368C325.649 54.6667 325.964 55.0827 326.124 55.616H326.22V54.096H327.436V61.92C327.436 62.8907 327.142 63.6693 326.556 64.256C325.98 64.8533 325.137 65.152 324.028 65.152ZM323.868 60.768C324.572 60.768 325.126 60.5227 325.532 60.032C325.948 59.5413 326.156 58.832 326.156 57.904C326.156 56.9653 325.948 56.256 325.532 55.776C325.126 55.296 324.572 55.056 323.868 55.056C323.153 55.056 322.582 55.296 322.156 55.776C321.74 56.256 321.532 56.9653 321.532 57.904C321.532 58.832 321.74 59.5413 322.156 60.032C322.582 60.5227 323.153 60.768 323.868 60.768ZM333.245 62.192C332.68 62.192 332.162 62.096 331.693 61.904C331.234 61.712 330.84 61.44 330.509 61.088C330.189 60.7253 329.938 60.288 329.757 59.776C329.586 59.264 329.501 58.688 329.501 58.048C329.501 57.376 329.592 56.784 329.773 56.272C329.954 55.7493 330.205 55.3173 330.525 54.976C330.845 54.624 331.224 54.3573 331.661 54.176C332.109 53.9947 332.6 53.904 333.133 53.904C333.666 53.904 334.157 53.9893 334.605 54.16C335.053 54.3307 335.437 54.5867 335.757 54.928C336.077 55.2587 336.328 55.68 336.509 56.192C336.69 56.6933 336.781 57.28 336.781 57.952C336.781 58.0373 336.776 58.1227 336.765 58.208C336.765 58.2933 336.76 58.3627 336.749 58.416H330.781C330.781 58.7893 330.845 59.1413 330.973 59.472C331.112 59.792 331.293 60.0747 331.517 60.32C331.752 60.5547 332.018 60.7413 332.317 60.88C332.626 61.0187 332.957 61.088 333.309 61.088C333.885 61.088 334.354 60.976 334.717 60.752C335.09 60.528 335.4 60.256 335.645 59.936L336.413 60.72C336.072 61.168 335.645 61.5253 335.133 61.792C334.632 62.0587 334.002 62.192 333.245 62.192ZM333.133 54.96C332.76 54.96 332.429 55.0293 332.141 55.168C331.853 55.3067 331.613 55.488 331.421 55.712C331.229 55.936 331.08 56.192 330.973 56.48C330.877 56.768 330.824 57.056 330.813 57.344H335.437C335.426 57.056 335.368 56.768 335.261 56.48C335.165 56.192 335.021 55.936 334.829 55.712C334.637 55.488 334.397 55.3067 334.109 55.168C333.832 55.0293 333.506 54.96 333.133 54.96Z" fill="#3C4C4F"/>
<defs>
<clipPath id="clip0_21359_2364">
<rect width="12" height="12" fill="white" transform="translate(106 10)"/>
</clipPath>
<clipPath id="clip1_21359_2364">
<rect width="12" height="12" fill="white" transform="translate(228 10)"/>
</clipPath>
<clipPath id="clip2_21359_2364">
<rect width="12" height="12" fill="white" transform="translate(350 10)"/>
</clipPath>
<clipPath id="clip3_21359_2364">
<rect width="12" height="12" fill="white" transform="translate(106 50)"/>
</clipPath>
<clipPath id="clip4_21359_2364">
<rect width="12" height="12" fill="white" transform="translate(228 50)"/>
</clipPath>
</defs>
</svg>
