<svg width="144" height="32" viewBox="0 0 144 32" fill="none" xmlns="http://www.w3.org/2000/svg">
<path d="M10.96 10.82L5.60499 16L11.0037 21.1975L10.1287 22.16L4.56375 16.7962C4.45182 16.6878 4.36282 16.5579 4.30205 16.4143C4.24128 16.2708 4.20996 16.1165 4.20996 15.9606C4.20996 15.8047 4.24128 15.6505 4.30205 15.5069C4.36282 15.3634 4.45182 15.2335 4.56375 15.125L10.0587 9.875L10.96 10.82Z" fill="#242E30"/>
<path d="M21.168 11.6H25.12C25.9627 11.6 26.6933 11.7333 27.312 12C27.9307 12.2667 28.4427 12.6347 28.848 13.104C29.2533 13.5733 29.552 14.1227 29.744 14.752C29.9467 15.3813 30.048 16.064 30.048 16.8C30.048 17.5253 29.9467 18.2027 29.744 18.832C29.5413 19.4613 29.2373 20.0107 28.832 20.48C28.4267 20.9493 27.9147 21.3227 27.296 21.6C26.6773 21.8667 25.952 22 25.12 22H21.168V11.6ZM25.088 20.272C25.952 20.272 26.6293 19.968 27.12 19.36C27.6107 18.7413 27.856 17.8933 27.856 16.816C27.856 15.7067 27.6107 14.848 27.12 14.24C26.6293 13.632 25.952 13.328 25.088 13.328H23.312V20.272H25.088ZM35.2144 22.192C34.553 22.192 33.977 22.0853 33.4864 21.872C32.9957 21.6587 32.5797 21.3653 32.2384 20.992C31.9077 20.608 31.657 20.1653 31.4864 19.664C31.3264 19.1627 31.2464 18.624 31.2464 18.048C31.2464 17.4613 31.3264 16.9173 31.4864 16.416C31.6464 15.904 31.8864 15.4667 32.2064 15.104C32.5264 14.7307 32.9264 14.4373 33.4064 14.224C33.8864 14.0107 34.4464 13.904 35.0864 13.904C35.7264 13.904 36.2864 14.0053 36.7664 14.208C37.2464 14.4107 37.641 14.6933 37.9504 15.056C38.2597 15.4187 38.489 15.8507 38.6384 16.352C38.7984 16.8427 38.8784 17.3813 38.8784 17.968C38.8784 18.0747 38.8677 18.1973 38.8464 18.336C38.8357 18.4747 38.8197 18.5867 38.7984 18.672H33.2944C33.3264 18.96 33.401 19.2213 33.5184 19.456C33.6464 19.68 33.801 19.872 33.9824 20.032C34.1744 20.192 34.3824 20.3147 34.6064 20.4C34.841 20.4747 35.081 20.512 35.3264 20.512C35.785 20.512 36.169 20.432 36.4784 20.272C36.7877 20.112 37.0384 19.9093 37.2304 19.664L38.3664 20.848C38.0677 21.2533 37.6517 21.5787 37.1184 21.824C36.585 22.0693 35.9504 22.192 35.2144 22.192ZM35.0864 15.44C34.5744 15.44 34.1584 15.6053 33.8384 15.936C33.5184 16.2667 33.3317 16.704 33.2784 17.248H36.8624C36.809 16.704 36.6224 16.2667 36.3024 15.936C35.993 15.6053 35.5877 15.44 35.0864 15.44ZM44.2386 19.76C44.2386 19.6 44.1906 19.4667 44.0946 19.36C44.0093 19.2427 43.8813 19.1467 43.7106 19.072C43.5506 18.9973 43.3586 18.9333 43.1346 18.88C42.9106 18.816 42.6653 18.752 42.3986 18.688C42.0893 18.6133 41.796 18.5173 41.5186 18.4C41.2413 18.2827 40.996 18.1333 40.7826 17.952C40.58 17.76 40.4146 17.536 40.2866 17.28C40.1586 17.024 40.0946 16.7147 40.0946 16.352C40.0946 15.9573 40.1693 15.6107 40.3186 15.312C40.4786 15.0027 40.6973 14.7467 40.9746 14.544C41.252 14.3307 41.5826 14.1707 41.9666 14.064C42.3506 13.9573 42.7666 13.904 43.2146 13.904C43.9186 13.904 44.5266 14.016 45.0386 14.24C45.5506 14.4533 45.9453 14.7413 46.2226 15.104L45.1026 16.256C44.8893 16.0213 44.6226 15.8293 44.3026 15.68C43.9933 15.5307 43.668 15.456 43.3266 15.456C43.0066 15.456 42.724 15.52 42.4786 15.648C42.2333 15.776 42.1106 15.984 42.1106 16.272C42.1106 16.432 42.1533 16.5653 42.2386 16.672C42.3346 16.7787 42.4626 16.8747 42.6226 16.96C42.7933 17.0347 42.9906 17.104 43.2146 17.168C43.4386 17.2213 43.684 17.28 43.9506 17.344C44.2493 17.4187 44.5373 17.5147 44.8146 17.632C45.1026 17.7493 45.348 17.904 45.5506 18.096C45.764 18.2773 45.9346 18.496 46.0626 18.752C46.1906 19.008 46.2546 19.3173 46.2546 19.68C46.2546 20.096 46.1693 20.4587 45.9986 20.768C45.8386 21.0773 45.6093 21.3387 45.3106 21.552C45.0226 21.7653 44.676 21.9253 44.2706 22.032C43.876 22.1387 43.4493 22.192 42.9906 22.192C42.212 22.192 41.5506 22.08 41.0066 21.856C40.4733 21.632 40.068 21.344 39.7906 20.992L40.8786 19.824C41.124 20.08 41.4226 20.2827 41.7746 20.432C42.1266 20.5707 42.5106 20.64 42.9266 20.64C43.3 20.64 43.6093 20.5707 43.8546 20.432C44.1106 20.2827 44.2386 20.0587 44.2386 19.76ZM50.9554 22.176C50.0807 22.176 49.4407 21.9413 49.0354 21.472C48.6407 21.0027 48.4434 20.2933 48.4434 19.344V15.712H47.1954V14.096H48.4434V11.952H50.4434V14.096H52.7474V15.712H50.4434V19.328C50.4434 19.744 50.518 20.0427 50.6674 20.224C50.8167 20.3947 51.0407 20.48 51.3394 20.48C51.5527 20.48 51.7447 20.4427 51.9154 20.368C52.086 20.2827 52.2354 20.1813 52.3634 20.064L53.0834 21.44C52.8167 21.696 52.5127 21.8827 52.1714 22C51.83 22.1173 51.4247 22.176 50.9554 22.176ZM56.6546 11.904C56.6546 12.2027 56.548 12.4693 56.3346 12.704C56.132 12.9387 55.844 13.056 55.4706 13.056C55.0866 13.056 54.7933 12.9387 54.5906 12.704C54.388 12.4693 54.2866 12.2027 54.2866 11.904C54.2866 11.5947 54.388 11.328 54.5906 11.104C54.7933 10.8693 55.0866 10.752 55.4706 10.752C55.844 10.752 56.132 10.8693 56.3346 11.104C56.548 11.328 56.6546 11.5947 56.6546 11.904ZM54.4466 14.096H56.4626V22H54.4466V14.096ZM58.5872 14.096H60.4913V15.376H60.5873C60.7686 14.9493 61.0513 14.5973 61.4353 14.32C61.8299 14.0427 62.2993 13.904 62.8433 13.904C63.8459 13.904 64.5659 14.1707 65.0033 14.704C65.4513 15.2267 65.6753 16.0213 65.6753 17.088V22H63.6593V17.488C63.6593 16.848 63.5419 16.3733 63.3073 16.064C63.0833 15.7547 62.6993 15.6 62.1553 15.6C61.6433 15.6 61.2539 15.7707 60.9873 16.112C60.7313 16.4427 60.6033 16.928 60.6033 17.568V22H58.5872V14.096ZM69.6959 22.192C69.3439 22.192 69.0079 22.1333 68.6879 22.016C68.3785 21.9093 68.1065 21.7547 67.8719 21.552C67.6372 21.3387 67.4505 21.0827 67.3119 20.784C67.1839 20.4853 67.1199 20.1493 67.1199 19.776C67.1199 19.072 67.3705 18.512 67.8719 18.096C68.3732 17.68 69.1359 17.4453 70.1599 17.392L72.0159 17.28V16.96C72.0159 16.448 71.8612 16.096 71.5519 15.904C71.2425 15.712 70.8585 15.616 70.3999 15.616C70.0372 15.616 69.6959 15.6853 69.3759 15.824C69.0559 15.952 68.8159 16.112 68.6559 16.304L67.5199 15.152C67.7972 14.7893 68.1972 14.4907 68.7199 14.256C69.2532 14.0213 69.9039 13.904 70.6719 13.904C71.8025 13.904 72.6452 14.1653 73.1999 14.688C73.7545 15.2107 74.0319 15.92 74.0319 16.816V22H72.1279V20.736H72.0319C71.8292 21.184 71.5359 21.5413 71.1519 21.808C70.7679 22.064 70.2825 22.192 69.6959 22.192ZM70.2879 20.736C70.7999 20.736 71.2159 20.592 71.5359 20.304C71.8559 20.0053 72.0159 19.5893 72.0159 19.056V18.528L70.3999 18.656C69.5679 18.7093 69.1519 19.0613 69.1519 19.712C69.1519 20.0427 69.2585 20.2987 69.4719 20.48C69.6852 20.6507 69.9572 20.736 70.2879 20.736ZM79.0491 22.176C78.1745 22.176 77.5345 21.9413 77.1291 21.472C76.7345 21.0027 76.5371 20.2933 76.5371 19.344V15.712H75.2891V14.096H76.5371V11.952H78.5371V14.096H80.8411V15.712H78.5371V19.328C78.5371 19.744 78.6118 20.0427 78.7611 20.224C78.9105 20.3947 79.1345 20.48 79.4331 20.48C79.6465 20.48 79.8385 20.4427 80.0091 20.368C80.1798 20.2827 80.3291 20.1813 80.4571 20.064L81.1771 21.44C80.9105 21.696 80.6065 21.8827 80.2651 22C79.9238 22.1173 79.5185 22.176 79.0491 22.176ZM84.7484 11.904C84.7484 12.2027 84.6417 12.4693 84.4284 12.704C84.2257 12.9387 83.9377 13.056 83.5644 13.056C83.1804 13.056 82.887 12.9387 82.6844 12.704C82.4817 12.4693 82.3804 12.2027 82.3804 11.904C82.3804 11.5947 82.4817 11.328 82.6844 11.104C82.887 10.8693 83.1804 10.752 83.5644 10.752C83.9377 10.752 84.2257 10.8693 84.4284 11.104C84.6417 11.328 84.7484 11.5947 84.7484 11.904ZM82.5404 14.096H84.5564V22H82.5404V14.096ZM90.121 22.192C89.4597 22.192 88.8783 22.0853 88.377 21.872C87.8863 21.648 87.4703 21.3493 87.129 20.976C86.7983 20.6027 86.5477 20.1653 86.377 19.664C86.217 19.152 86.137 18.6133 86.137 18.048C86.137 17.4827 86.217 16.9493 86.377 16.448C86.5477 15.9467 86.7983 15.5093 87.129 15.136C87.4703 14.752 87.8863 14.4533 88.377 14.24C88.8783 14.016 89.4597 13.904 90.121 13.904C90.7823 13.904 91.3583 14.016 91.849 14.24C92.3503 14.4533 92.761 14.752 93.081 15.136C93.4117 15.5093 93.657 15.9467 93.817 16.448C93.9877 16.9493 94.073 17.4827 94.073 18.048C94.073 18.6133 93.9877 19.152 93.817 19.664C93.657 20.1653 93.4117 20.6027 93.081 20.976C92.761 21.3493 92.3503 21.648 91.849 21.872C91.3583 22.0853 90.7823 22.192 90.121 22.192ZM88.201 18.048C88.201 18.8267 88.3663 19.44 88.697 19.888C89.0383 20.336 89.513 20.56 90.121 20.56C90.7183 20.56 91.1823 20.336 91.513 19.888C91.8543 19.44 92.025 18.8267 92.025 18.048C92.025 17.2693 91.8543 16.656 91.513 16.208C91.1823 15.76 90.7183 15.536 90.121 15.536C89.513 15.536 89.0383 15.76 88.697 16.208C88.3663 16.656 88.201 17.2693 88.201 18.048ZM95.6341 14.096H97.5381V15.376H97.6341C97.8155 14.9493 98.0981 14.5973 98.4821 14.32C98.8768 14.0427 99.3461 13.904 99.8901 13.904C100.893 13.904 101.613 14.1707 102.05 14.704C102.498 15.2267 102.722 16.0213 102.722 17.088V22H100.706V17.488C100.706 16.848 100.589 16.3733 100.354 16.064C100.13 15.7547 99.7461 15.6 99.2021 15.6C98.6901 15.6 98.3008 15.7707 98.0341 16.112C97.7781 16.4427 97.6501 16.928 97.6501 17.568V22H95.6341V14.096ZM108.587 14.096H110.507V15.584H110.603C110.795 15.0613 111.115 14.6507 111.563 14.352C112.022 14.0533 112.561 13.904 113.179 13.904C113.67 13.904 114.123 14.0053 114.539 14.208C114.966 14.4107 115.329 14.6933 115.627 15.056C115.937 15.408 116.177 15.84 116.347 16.352C116.518 16.8533 116.603 17.408 116.603 18.016C116.603 18.6347 116.518 19.2 116.347 19.712C116.177 20.224 115.937 20.6667 115.627 21.04C115.329 21.4027 114.966 21.6853 114.539 21.888C114.123 22.0907 113.67 22.192 113.179 22.192C112.561 22.192 112.038 22.048 111.611 21.76C111.185 21.472 110.881 21.0987 110.699 20.64H110.603V24.96H108.587V14.096ZM112.555 20.432C113.153 20.432 113.633 20.2187 113.995 19.792C114.358 19.3653 114.539 18.784 114.539 18.048C114.539 17.312 114.358 16.7307 113.995 16.304C113.633 15.8773 113.153 15.664 112.555 15.664C111.969 15.664 111.494 15.8773 111.131 16.304C110.779 16.7307 110.603 17.312 110.603 18.048C110.603 18.784 110.779 19.3653 111.131 19.792C111.494 20.2187 111.969 20.432 112.555 20.432ZM120.149 22.192C119.797 22.192 119.461 22.1333 119.141 22.016C118.832 21.9093 118.56 21.7547 118.325 21.552C118.09 21.3387 117.904 21.0827 117.765 20.784C117.637 20.4853 117.573 20.1493 117.573 19.776C117.573 19.072 117.824 18.512 118.325 18.096C118.826 17.68 119.589 17.4453 120.613 17.392L122.469 17.28V16.96C122.469 16.448 122.314 16.096 122.005 15.904C121.696 15.712 121.312 15.616 120.853 15.616C120.49 15.616 120.149 15.6853 119.829 15.824C119.509 15.952 119.269 16.112 119.109 16.304L117.973 15.152C118.25 14.7893 118.65 14.4907 119.173 14.256C119.706 14.0213 120.357 13.904 121.125 13.904C122.256 13.904 123.098 14.1653 123.653 14.688C124.208 15.2107 124.485 15.92 124.485 16.816V22H122.581V20.736H122.485C122.282 21.184 121.989 21.5413 121.605 21.808C121.221 22.064 120.736 22.192 120.149 22.192ZM120.741 20.736C121.253 20.736 121.669 20.592 121.989 20.304C122.309 20.0053 122.469 19.5893 122.469 19.056V18.528L120.853 18.656C120.021 18.7093 119.605 19.0613 119.605 19.712C119.605 20.0427 119.712 20.2987 119.925 20.48C120.138 20.6507 120.41 20.736 120.741 20.736ZM129.726 25.152C129.033 25.152 128.42 25.0293 127.886 24.784C127.364 24.5493 126.964 24.2613 126.686 23.92L127.902 22.688C128.084 22.912 128.334 23.0933 128.654 23.232C128.985 23.3707 129.337 23.44 129.71 23.44C129.966 23.44 130.212 23.408 130.446 23.344C130.681 23.2907 130.884 23.1947 131.054 23.056C131.225 22.928 131.358 22.752 131.454 22.528C131.561 22.304 131.614 22.0213 131.614 21.68V20.176H131.534C131.364 20.6453 131.07 21.024 130.654 21.312C130.249 21.5893 129.758 21.728 129.182 21.728C128.702 21.728 128.26 21.6373 127.854 21.456C127.46 21.264 127.118 20.9973 126.83 20.656C126.553 20.304 126.334 19.888 126.174 19.408C126.025 18.9173 125.95 18.368 125.95 17.76C125.95 17.1733 126.025 16.6453 126.174 16.176C126.334 15.7067 126.558 15.3067 126.846 14.976C127.134 14.6347 127.476 14.3733 127.87 14.192C128.276 14.0107 128.718 13.92 129.198 13.92C129.796 13.92 130.302 14.0587 130.718 14.336C131.145 14.6133 131.449 14.9973 131.63 15.488H131.726V14.096H133.63V21.776C133.63 22.8427 133.284 23.6693 132.59 24.256C131.897 24.8533 130.942 25.152 129.726 25.152ZM129.806 20.048C130.393 20.048 130.841 19.84 131.15 19.424C131.46 18.9973 131.614 18.4587 131.614 17.808C131.614 17.136 131.46 16.5973 131.15 16.192C130.841 15.776 130.393 15.568 129.806 15.568C129.23 15.568 128.782 15.776 128.462 16.192C128.153 16.5973 127.998 17.136 127.998 17.808C127.998 18.4587 128.153 18.9973 128.462 19.424C128.782 19.84 129.23 20.048 129.806 20.048ZM139.168 22.192C138.506 22.192 137.93 22.0853 137.44 21.872C136.949 21.6587 136.533 21.3653 136.192 20.992C135.861 20.608 135.61 20.1653 135.44 19.664C135.28 19.1627 135.2 18.624 135.2 18.048C135.2 17.4613 135.28 16.9173 135.44 16.416C135.6 15.904 135.84 15.4667 136.16 15.104C136.48 14.7307 136.88 14.4373 137.36 14.224C137.84 14.0107 138.4 13.904 139.04 13.904C139.68 13.904 140.24 14.0053 140.72 14.208C141.2 14.4107 141.594 14.6933 141.904 15.056C142.213 15.4187 142.442 15.8507 142.592 16.352C142.752 16.8427 142.832 17.3813 142.832 17.968C142.832 18.0747 142.821 18.1973 142.8 18.336C142.789 18.4747 142.773 18.5867 142.752 18.672H137.248C137.28 18.96 137.354 19.2213 137.472 19.456C137.6 19.68 137.754 19.872 137.936 20.032C138.128 20.192 138.336 20.3147 138.56 20.4C138.794 20.4747 139.034 20.512 139.28 20.512C139.738 20.512 140.122 20.432 140.432 20.272C140.741 20.112 140.992 19.9093 141.184 19.664L142.32 20.848C142.021 21.2533 141.605 21.5787 141.072 21.824C140.538 22.0693 139.904 22.192 139.168 22.192ZM139.04 15.44C138.528 15.44 138.112 15.6053 137.792 15.936C137.472 16.2667 137.285 16.704 137.232 17.248H140.816C140.762 16.704 140.576 16.2667 140.256 15.936C139.946 15.6053 139.541 15.44 139.04 15.44Z" fill="#242E30"/>
</svg>
