<svg width="343" height="120" viewBox="0 0 343 120" fill="none" xmlns="http://www.w3.org/2000/svg">
<g clip-path="url(#clip0_2107_5985)">
<rect width="343" height="120" rx="12" transform="matrix(1 0 0 -1 0 120)" fill="#F6C243"/>
<g clip-path="url(#clip1_2107_5985)">
<rect width="343" height="120" fill="#5B3D5B"/>
<g style="mix-blend-mode:soft-light" opacity="0.7">
<path d="M200.379 54.3033C198.488 50.7028 195.898 47.5154 192.761 44.9277C189.624 42.3399 186.002 40.4037 182.108 39.2324C179.024 38.3082 175.785 38.0196 172.587 38.3842C169.389 38.7488 166.298 39.759 163.501 41.3535C161.789 42.3764 160.224 43.6284 158.85 45.0747L103.962 86.864C102.405 88.0547 101.324 89.7627 100.914 91.6799C100.505 93.5972 100.794 95.5976 101.729 97.3206L102.92 99.4789L96.5195 102.791L99.9431 109.415L106.492 106.028L107.274 107.405C107.964 108.686 108.991 109.755 110.243 110.496C111.496 111.236 112.926 111.622 114.381 111.61C114.981 111.603 115.579 111.541 116.168 111.424L134.067 107.331L121.34 140.412H129.303L142.811 105.321H143.221L156.766 140.412H164.729L150.552 103.572L184.564 95.7577H185.047C187.468 95.2879 189.794 94.4202 191.932 93.19C204.435 85.9337 208.156 68.5556 200.379 54.3033ZM114.456 104.168C114.335 104.175 114.215 104.147 114.109 104.087C114.003 104.028 113.917 103.94 113.86 103.833L108.353 93.7482C108.261 93.592 108.229 93.4074 108.263 93.2293C108.297 93.0511 108.395 92.8916 108.539 92.7807L151.408 59.9596C150.427 66.9082 151.733 73.9874 155.129 80.1286C157.84 85.1629 161.865 89.3682 166.776 92.297L114.456 104.168ZM188.21 86.6407C186.28 87.7214 184.152 88.4035 181.953 88.6464C179.754 88.8893 177.529 88.6881 175.409 88.0548C172.47 87.1513 169.739 85.6729 167.375 83.7053C165.012 81.7378 163.063 79.3204 161.641 76.5934C155.761 65.9879 158.292 52.9265 167.223 47.7912C169.664 46.4141 172.421 45.696 175.223 45.7073C176.859 45.7104 178.486 45.9357 180.061 46.3771C183.001 47.2806 185.731 48.759 188.095 50.7265C190.459 52.6941 192.408 55.1115 193.829 57.8385C199.709 68.5928 197.178 81.5054 188.21 86.6407Z" fill="#E7D6E7"/>
<path d="M178.386 54.8243C177.425 57.3997 176.069 59.81 174.367 61.969C172.208 63.6707 169.798 65.0265 167.223 65.9879C169.798 66.9494 172.208 68.3052 174.367 70.0069C176.069 72.1659 177.425 74.5762 178.386 77.1516C179.348 74.5762 180.704 72.1659 182.405 70.0069C184.564 68.3052 186.975 66.9494 189.55 65.9879C186.975 65.0265 184.564 63.6707 182.405 61.969C180.704 59.81 179.348 57.3997 178.386 54.8243Z" fill="#E7D6E7"/>
</g>
<path d="M194.086 49.1354C192.196 45.5349 189.606 42.3475 186.469 39.7598C183.331 37.172 179.71 35.2359 175.815 34.0645C172.732 33.1403 169.493 32.8517 166.294 33.2163C163.096 33.5809 160.005 34.5911 157.209 36.1856C155.496 37.2085 153.931 38.4605 152.557 39.9068L97.6695 81.6961C96.112 82.8868 95.0312 84.5948 94.6218 86.512C94.2125 88.4293 94.5015 90.4297 95.4368 92.1527L96.6275 94.311L90.2271 97.6229L93.6506 104.247L100.2 100.86L100.981 102.237C101.672 103.518 102.698 104.587 103.951 105.328C105.203 106.069 106.634 106.454 108.089 106.442C108.689 106.435 109.287 106.373 109.875 106.256L127.774 102.163L115.048 135.244H123.011L136.519 100.153H136.928L150.474 135.244H158.437L144.259 98.4044L178.271 90.5898H178.755C181.176 90.12 183.502 89.2523 185.639 88.0222C198.142 80.7658 201.864 63.3877 194.086 49.1354ZM108.163 98.9998C108.042 99.0068 107.922 98.9789 107.817 98.9196C107.711 98.8602 107.625 98.7718 107.568 98.6648L102.061 88.5803C101.968 88.4241 101.936 88.2396 101.971 88.0614C102.005 87.8832 102.103 87.7237 102.247 87.6128L145.115 54.7917C144.134 61.7404 145.44 68.8196 148.836 74.9607C151.547 79.995 155.573 84.2003 160.484 87.1291L108.163 98.9998ZM181.918 81.4728C179.988 82.5535 177.86 83.2356 175.661 83.4785C173.462 83.7214 171.237 83.5202 169.117 82.8869C166.177 81.9834 163.446 80.505 161.083 78.5375C158.719 76.57 156.77 74.1525 155.348 71.4255C149.469 60.8201 151.999 47.7586 160.93 42.6233C163.371 41.2463 166.128 40.5281 168.931 40.5394C170.566 40.5425 172.194 40.7678 173.768 41.2092C176.708 42.1127 179.439 43.5911 181.802 45.5587C184.166 47.5262 186.115 49.9436 187.537 52.6706C193.416 63.4249 190.886 76.3375 181.918 81.4728Z" fill="white"/>
<path d="M172.094 49.6564C171.132 52.2318 169.777 54.6422 168.075 56.8012C165.916 58.5028 163.506 59.8587 160.93 60.8201C163.506 61.7815 165.916 63.1373 168.075 64.839C169.777 66.998 171.132 69.4083 172.094 71.9837C173.055 69.4083 174.411 66.998 176.113 64.839C178.272 63.1373 180.682 61.7815 183.258 60.8201C180.682 59.8587 178.272 58.5028 176.113 56.8012C174.411 54.6422 173.055 52.2318 172.094 49.6564Z" fill="white"/>
<g opacity="0.7" style="mix-blend-mode:soft-light">
<path d="M216.034 29.6413L211.486 30.4657C210.563 30.6329 210.358 31.864 211.176 32.3222L215.591 34.7945C215.866 34.9486 216.052 35.2237 216.094 35.5366L216.627 39.5912C216.752 40.5444 218.019 40.7888 218.49 39.9505L220.646 36.113C220.792 35.8532 221.046 35.672 221.34 35.6188L225.788 34.8126C226.722 34.6433 226.917 33.3903 226.078 32.9453L222.42 31.0032C222.156 30.863 221.968 30.6123 221.909 30.3194L220.891 25.3225C220.706 24.4148 219.493 24.2247 219.039 25.0323L216.728 29.1471C216.582 29.407 216.328 29.5882 216.034 29.6413Z" fill="#E7D6E7"/>
</g>
<path d="M214.089 28.342L210.321 29.0042C209.397 29.1665 209.185 30.3964 210.001 30.859L213.668 32.9385C213.943 33.0941 214.127 33.3702 214.167 33.6832L214.583 36.9784C214.703 37.9323 215.969 38.1834 216.444 37.3477L218.226 34.2143C218.374 33.9552 218.629 33.7754 218.922 33.7238L222.59 33.0792C223.525 32.9149 223.727 31.6629 222.891 31.2135L219.91 29.611C219.647 29.4695 219.461 29.2177 219.403 28.9246L218.574 24.7416C218.394 23.8329 217.182 23.6363 216.724 24.4416L214.785 27.8515C214.637 28.1106 214.382 28.2904 214.089 28.342Z" fill="#E7D6E7"/>
<g opacity="0.7" style="mix-blend-mode:soft-light">
<path d="M240.216 52.3239L235.437 55.0199C234.62 55.4807 234.83 56.7111 235.753 56.8754L241.637 57.9224C241.948 57.9777 242.214 58.1764 242.355 58.4584L244.564 62.8585C244.995 63.7178 246.272 63.5328 246.442 62.5864L247.371 57.4031C247.424 57.1097 247.605 56.8551 247.864 56.7086L252.555 54.0624C253.381 53.5961 253.154 52.3485 252.216 52.2033L247.309 51.4434C247.014 51.3976 246.755 51.2222 246.602 50.9652L243.539 45.7994C243.066 45.0026 241.858 45.2211 241.694 46.133L240.709 51.6294C240.656 51.9228 240.475 52.1774 240.216 52.3239Z" fill="#E7D6E7"/>
</g>
<path d="M237.836 49.789L233.424 52.2782C232.608 52.739 232.817 53.9694 233.741 54.1337L239.185 55.1025C239.496 55.1578 239.762 55.3565 239.904 55.6385L241.93 59.6757C242.361 60.535 243.638 60.35 243.808 59.4036L244.663 54.6347C244.716 54.3414 244.896 54.0868 245.156 53.9403L249.48 51.501C250.306 51.0347 250.079 49.787 249.141 49.6418L244.631 48.9433C244.335 48.8975 244.076 48.7222 243.923 48.4651L241.085 43.679C240.613 42.8822 239.404 43.1007 239.241 44.0126L238.329 49.0946C238.277 49.388 238.096 49.6426 237.836 49.789Z" fill="#E7D6E7"/>
<g opacity="0.7" style="mix-blend-mode:soft-light">
<path d="M240.15 23.1034L237.121 24.1938C236.239 24.5114 236.24 25.7596 237.122 26.076L240.486 27.2819C240.783 27.3884 241.012 27.6288 241.105 27.9305L241.906 30.5472C242.187 31.4665 243.477 31.4978 243.803 30.5932L244.819 27.7721C244.919 27.4916 245.14 27.2709 245.421 27.1699L248.354 26.1139C249.247 25.7924 249.232 24.5244 248.332 24.2243L245.669 23.3369C245.386 23.2424 245.159 23.0261 245.052 22.7472L243.75 19.3606C243.417 18.496 242.189 18.5092 241.875 19.3809L240.752 22.5012C240.651 22.7817 240.43 23.0025 240.15 23.1034Z" fill="#E7D6E7"/>
</g>
<path d="M238.849 21.8028L236.537 22.6351C235.655 22.9527 235.656 24.2009 236.538 24.5173L239.142 25.4508C239.439 25.5573 239.669 25.7977 239.761 26.0994L240.347 28.0135C240.628 28.9328 241.918 28.9641 242.244 28.0595L243.001 25.9553C243.102 25.6749 243.323 25.4541 243.604 25.3531L245.82 24.5552C246.713 24.2338 246.698 22.9657 245.798 22.6656L243.823 22.0076C243.54 21.9131 243.314 21.6968 243.206 21.4179L242.191 18.7769C241.858 17.9123 240.63 17.9256 240.316 18.7972L239.451 21.2006C239.35 21.4811 239.129 21.7019 238.849 21.8028Z" fill="#E7D6E7"/>
</g>
</g>
<rect x="0.5" y="-0.5" width="342" height="119" rx="11.5" transform="matrix(1 0 0 -1 0 119)" stroke="#EFEDEA"/>
<defs>
<clipPath id="clip0_2107_5985">
<rect width="343" height="120" rx="12" transform="matrix(1 0 0 -1 0 120)" fill="white"/>
</clipPath>
<clipPath id="clip1_2107_5985">
<rect width="343" height="120" fill="white"/>
</clipPath>
</defs>
</svg>
