<svg width="134" height="72" viewBox="0 0 134 72" fill="none" xmlns="http://www.w3.org/2000/svg">
<path d="M0.5 12C0.5 5.37258 5.87258 0 12.5 0H121.5C128.127 0 133.5 5.37258 133.5 12V36C133.5 42.6274 128.127 48 121.5 48H2.5C1.39543 48 0.5 47.1046 0.5 46V12Z" fill="#EFEDEA"/>
<path d="M13.972 19.6H15.796L19.364 28.464H19.46L23.028 19.6H24.884V30H23.604V21.408H23.508L20.084 30H18.74L15.316 21.408H15.22V30H13.972V19.6ZM30.8074 30.192C30.242 30.192 29.7247 30.096 29.2554 29.904C28.7967 29.712 28.402 29.44 28.0714 29.088C27.7514 28.7253 27.5007 28.288 27.3194 27.776C27.1487 27.264 27.0634 26.688 27.0634 26.048C27.0634 25.376 27.154 24.784 27.3354 24.272C27.5167 23.7493 27.7674 23.3173 28.0874 22.976C28.4074 22.624 28.786 22.3573 29.2234 22.176C29.6714 21.9947 30.162 21.904 30.6954 21.904C31.2287 21.904 31.7194 21.9893 32.1674 22.16C32.6154 22.3307 32.9994 22.5867 33.3194 22.928C33.6394 23.2587 33.89 23.68 34.0714 24.192C34.2527 24.6933 34.3434 25.28 34.3434 25.952C34.3434 26.0373 34.338 26.1227 34.3274 26.208C34.3274 26.2933 34.322 26.3627 34.3114 26.416H28.3434C28.3434 26.7893 28.4074 27.1413 28.5354 27.472C28.674 27.792 28.8554 28.0747 29.0794 28.32C29.314 28.5547 29.5807 28.7413 29.8794 28.88C30.1887 29.0187 30.5194 29.088 30.8714 29.088C31.4474 29.088 31.9167 28.976 32.2794 28.752C32.6527 28.528 32.962 28.256 33.2074 27.936L33.9754 28.72C33.634 29.168 33.2074 29.5253 32.6954 29.792C32.194 30.0587 31.5647 30.192 30.8074 30.192ZM30.6954 22.96C30.322 22.96 29.9914 23.0293 29.7034 23.168C29.4154 23.3067 29.1754 23.488 28.9834 23.712C28.7914 23.936 28.642 24.192 28.5354 24.48C28.4394 24.768 28.386 25.056 28.3754 25.344H32.9994C32.9887 25.056 32.93 24.768 32.8234 24.48C32.7274 24.192 32.5834 23.936 32.3914 23.712C32.1994 23.488 31.9594 23.3067 31.6714 23.168C31.394 23.0293 31.0687 22.96 30.6954 22.96ZM40.2149 27.952C40.2149 27.7173 40.1615 27.5253 40.0549 27.376C39.9482 27.216 39.7989 27.0827 39.6069 26.976C39.4255 26.8693 39.2175 26.7787 38.9829 26.704C38.7482 26.6293 38.5029 26.5547 38.2469 26.48C37.9482 26.3947 37.6602 26.2933 37.3829 26.176C37.1162 26.0587 36.8762 25.9147 36.6629 25.744C36.4495 25.5627 36.2789 25.3493 36.1509 25.104C36.0229 24.8587 35.9589 24.56 35.9589 24.208C35.9589 23.8347 36.0282 23.504 36.1669 23.216C36.3055 22.928 36.4975 22.688 36.7429 22.496C36.9882 22.304 37.2762 22.16 37.6069 22.064C37.9375 21.9573 38.2949 21.904 38.6789 21.904C39.2549 21.904 39.7829 22.0107 40.2629 22.224C40.7429 22.4267 41.1375 22.7467 41.4469 23.184L40.6149 23.952C40.3802 23.6747 40.1029 23.4453 39.7829 23.264C39.4735 23.0827 39.1055 22.992 38.6789 22.992C38.4975 22.992 38.3162 23.0133 38.1349 23.056C37.9642 23.0987 37.8095 23.168 37.6709 23.264C37.5322 23.3493 37.4202 23.4613 37.3349 23.6C37.2495 23.7387 37.2069 23.904 37.2069 24.096C37.2069 24.3307 37.2602 24.528 37.3669 24.688C37.4735 24.8373 37.6175 24.9653 37.7989 25.072C37.9909 25.1787 38.2042 25.2693 38.4389 25.344C38.6735 25.4187 38.9189 25.4933 39.1749 25.568C39.4735 25.6533 39.7562 25.7547 40.0229 25.872C40.3002 25.9893 40.5455 26.1387 40.7589 26.32C40.9722 26.4907 41.1429 26.6987 41.2709 26.944C41.3989 27.1893 41.4629 27.488 41.4629 27.84C41.4629 28.256 41.3829 28.6133 41.2229 28.912C41.0735 29.2 40.8655 29.44 40.5989 29.632C40.3322 29.824 40.0229 29.9627 39.6709 30.048C39.3189 30.144 38.9455 30.192 38.5509 30.192C37.8575 30.192 37.2655 30.0747 36.7749 29.84C36.2949 29.6053 35.9162 29.3013 35.6389 28.928L36.4869 28.128C36.7322 28.416 37.0149 28.6507 37.3349 28.832C37.6655 29.0133 38.0762 29.104 38.5669 29.104C38.7909 29.104 38.9989 29.0827 39.1909 29.04C39.3935 28.9973 39.5695 28.928 39.7189 28.832C39.8682 28.736 39.9855 28.6187 40.0709 28.48C40.1669 28.3307 40.2149 28.1547 40.2149 27.952ZM47.4805 27.952C47.4805 27.7173 47.4272 27.5253 47.3205 27.376C47.2138 27.216 47.0645 27.0827 46.8725 26.976C46.6912 26.8693 46.4832 26.7787 46.2485 26.704C46.0138 26.6293 45.7685 26.5547 45.5125 26.48C45.2138 26.3947 44.9258 26.2933 44.6485 26.176C44.3818 26.0587 44.1418 25.9147 43.9285 25.744C43.7152 25.5627 43.5445 25.3493 43.4165 25.104C43.2885 24.8587 43.2245 24.56 43.2245 24.208C43.2245 23.8347 43.2938 23.504 43.4325 23.216C43.5712 22.928 43.7632 22.688 44.0085 22.496C44.2538 22.304 44.5418 22.16 44.8725 22.064C45.2032 21.9573 45.5605 21.904 45.9445 21.904C46.5205 21.904 47.0485 22.0107 47.5285 22.224C48.0085 22.4267 48.4032 22.7467 48.7125 23.184L47.8805 23.952C47.6458 23.6747 47.3685 23.4453 47.0485 23.264C46.7392 23.0827 46.3712 22.992 45.9445 22.992C45.7632 22.992 45.5818 23.0133 45.4005 23.056C45.2298 23.0987 45.0752 23.168 44.9365 23.264C44.7978 23.3493 44.6858 23.4613 44.6005 23.6C44.5152 23.7387 44.4725 23.904 44.4725 24.096C44.4725 24.3307 44.5258 24.528 44.6325 24.688C44.7392 24.8373 44.8832 24.9653 45.0645 25.072C45.2565 25.1787 45.4698 25.2693 45.7045 25.344C45.9392 25.4187 46.1845 25.4933 46.4405 25.568C46.7392 25.6533 47.0218 25.7547 47.2885 25.872C47.5658 25.9893 47.8112 26.1387 48.0245 26.32C48.2378 26.4907 48.4085 26.6987 48.5365 26.944C48.6645 27.1893 48.7285 27.488 48.7285 27.84C48.7285 28.256 48.6485 28.6133 48.4885 28.912C48.3392 29.2 48.1312 29.44 47.8645 29.632C47.5978 29.824 47.2885 29.9627 46.9365 30.048C46.5845 30.144 46.2112 30.192 45.8165 30.192C45.1232 30.192 44.5312 30.0747 44.0405 29.84C43.5605 29.6053 43.1818 29.3013 42.9045 28.928L43.7525 28.128C43.9978 28.416 44.2805 28.6507 44.6005 28.832C44.9312 29.0133 45.3418 29.104 45.8325 29.104C46.0565 29.104 46.2645 29.0827 46.4565 29.04C46.6592 28.9973 46.8352 28.928 46.9845 28.832C47.1338 28.736 47.2512 28.6187 47.3365 28.48C47.4325 28.3307 47.4805 28.1547 47.4805 27.952ZM52.7759 30.192C52.4132 30.192 52.0772 30.1333 51.7679 30.016C51.4692 29.8987 51.2079 29.7333 50.9839 29.52C50.7599 29.3067 50.5839 29.056 50.4559 28.768C50.3385 28.4693 50.2799 28.144 50.2799 27.792C50.2799 27.1093 50.5252 26.56 51.0159 26.144C51.5065 25.728 52.2052 25.4933 53.1119 25.44L55.1919 25.312V24.752C55.1919 24.144 55.0425 23.7067 54.7439 23.44C54.4559 23.1627 54.0399 23.024 53.4959 23.024C53.0372 23.024 52.6425 23.1093 52.3119 23.28C51.9812 23.4507 51.7252 23.6373 51.5439 23.84L50.7759 23.072C51.0532 22.7307 51.4265 22.4533 51.8959 22.24C52.3759 22.016 52.9199 21.904 53.5279 21.904C54.0719 21.904 54.5305 21.9787 54.9039 22.128C55.2772 22.2667 55.5759 22.4587 55.7999 22.704C56.0345 22.9493 56.1999 23.2373 56.2959 23.568C56.4025 23.8987 56.4559 24.2507 56.4559 24.624V30H55.2559V28.656H55.1599C54.9465 29.136 54.6479 29.5147 54.2639 29.792C53.8799 30.0587 53.3839 30.192 52.7759 30.192ZM52.9679 29.104C53.6292 29.104 54.1625 28.912 54.5679 28.528C54.9839 28.1333 55.1919 27.6107 55.1919 26.96V26.272L53.1759 26.416C52.1092 26.5013 51.5759 26.9493 51.5759 27.76C51.5759 28.1653 51.7039 28.4907 51.9599 28.736C52.2265 28.9813 52.5625 29.104 52.9679 29.104ZM62.1839 33.152C61.5012 33.152 60.9092 33.0293 60.4079 32.784C59.9065 32.5493 59.5065 32.256 59.2079 31.904L60.0559 31.088C60.2799 31.3653 60.5679 31.584 60.9199 31.744C61.2825 31.9147 61.6825 32 62.1199 32C62.8025 32 63.3359 31.8347 63.7199 31.504C64.1145 31.1733 64.3119 30.592 64.3119 29.76V28.224H64.2159C64.1305 28.4907 64.0079 28.7307 63.8479 28.944C63.6879 29.1467 63.4959 29.3227 63.2719 29.472C63.0585 29.6107 62.8185 29.7227 62.5519 29.808C62.2959 29.8827 62.0345 29.92 61.7679 29.92C61.2665 29.92 60.8079 29.8293 60.3919 29.648C59.9865 29.4667 59.6292 29.2053 59.3199 28.864C59.0212 28.512 58.7865 28.0853 58.6159 27.584C58.4559 27.0827 58.3759 26.5173 58.3759 25.888C58.3759 25.2693 58.4559 24.7147 58.6159 24.224C58.7865 23.7333 59.0212 23.3173 59.3199 22.976C59.6292 22.6347 59.9865 22.3733 60.3919 22.192C60.8079 22 61.2665 21.904 61.7679 21.904C62.3545 21.904 62.8772 22.0587 63.3359 22.368C63.8052 22.6667 64.1199 23.0827 64.2799 23.616H64.3759V22.096H65.5919V29.92C65.5919 30.8907 65.2985 31.6693 64.7119 32.256C64.1359 32.8533 63.2932 33.152 62.1839 33.152ZM62.0239 28.768C62.7279 28.768 63.2825 28.5227 63.6879 28.032C64.1039 27.5413 64.3119 26.832 64.3119 25.904C64.3119 24.9653 64.1039 24.256 63.6879 23.776C63.2825 23.296 62.7279 23.056 62.0239 23.056C61.3092 23.056 60.7385 23.296 60.3119 23.776C59.8959 24.256 59.6879 24.9653 59.6879 25.904C59.6879 26.832 59.8959 27.5413 60.3119 28.032C60.7385 28.5227 61.3092 28.768 62.0239 28.768ZM71.4011 30.192C70.8358 30.192 70.3185 30.096 69.8491 29.904C69.3905 29.712 68.9958 29.44 68.6651 29.088C68.3451 28.7253 68.0945 28.288 67.9131 27.776C67.7425 27.264 67.6571 26.688 67.6571 26.048C67.6571 25.376 67.7478 24.784 67.9291 24.272C68.1105 23.7493 68.3611 23.3173 68.6811 22.976C69.0011 22.624 69.3798 22.3573 69.8171 22.176C70.2651 21.9947 70.7558 21.904 71.2891 21.904C71.8225 21.904 72.3131 21.9893 72.7611 22.16C73.2091 22.3307 73.5931 22.5867 73.9131 22.928C74.2331 23.2587 74.4838 23.68 74.6651 24.192C74.8465 24.6933 74.9371 25.28 74.9371 25.952C74.9371 26.0373 74.9318 26.1227 74.9211 26.208C74.9211 26.2933 74.9158 26.3627 74.9051 26.416H68.9371C68.9371 26.7893 69.0011 27.1413 69.1291 27.472C69.2678 27.792 69.4491 28.0747 69.6731 28.32C69.9078 28.5547 70.1745 28.7413 70.4731 28.88C70.7825 29.0187 71.1131 29.088 71.4651 29.088C72.0411 29.088 72.5105 28.976 72.8731 28.752C73.2465 28.528 73.5558 28.256 73.8011 27.936L74.5691 28.72C74.2278 29.168 73.8011 29.5253 73.2891 29.792C72.7878 30.0587 72.1585 30.192 71.4011 30.192ZM71.2891 22.96C70.9158 22.96 70.5851 23.0293 70.2971 23.168C70.0091 23.3067 69.7691 23.488 69.5771 23.712C69.3851 23.936 69.2358 24.192 69.1291 24.48C69.0331 24.768 68.9798 25.056 68.9691 25.344H73.5931C73.5825 25.056 73.5238 24.768 73.4171 24.48C73.3211 24.192 73.1771 23.936 72.9851 23.712C72.7931 23.488 72.5531 23.3067 72.2651 23.168C71.9878 23.0293 71.6625 22.96 71.2891 22.96ZM84.6524 27.952C84.6524 27.7173 84.599 27.5253 84.4924 27.376C84.3857 27.216 84.2364 27.0827 84.0444 26.976C83.863 26.8693 83.655 26.7787 83.4204 26.704C83.1857 26.6293 82.9404 26.5547 82.6844 26.48C82.3857 26.3947 82.0977 26.2933 81.8204 26.176C81.5537 26.0587 81.3137 25.9147 81.1004 25.744C80.887 25.5627 80.7164 25.3493 80.5884 25.104C80.4604 24.8587 80.3964 24.56 80.3964 24.208C80.3964 23.8347 80.4657 23.504 80.6044 23.216C80.743 22.928 80.935 22.688 81.1804 22.496C81.4257 22.304 81.7137 22.16 82.0444 22.064C82.375 21.9573 82.7324 21.904 83.1164 21.904C83.6924 21.904 84.2204 22.0107 84.7004 22.224C85.1804 22.4267 85.575 22.7467 85.8844 23.184L85.0524 23.952C84.8177 23.6747 84.5404 23.4453 84.2204 23.264C83.911 23.0827 83.543 22.992 83.1164 22.992C82.935 22.992 82.7537 23.0133 82.5724 23.056C82.4017 23.0987 82.247 23.168 82.1084 23.264C81.9697 23.3493 81.8577 23.4613 81.7724 23.6C81.687 23.7387 81.6444 23.904 81.6444 24.096C81.6444 24.3307 81.6977 24.528 81.8044 24.688C81.911 24.8373 82.055 24.9653 82.2364 25.072C82.4284 25.1787 82.6417 25.2693 82.8764 25.344C83.111 25.4187 83.3564 25.4933 83.6124 25.568C83.911 25.6533 84.1937 25.7547 84.4604 25.872C84.7377 25.9893 84.983 26.1387 85.1964 26.32C85.4097 26.4907 85.5804 26.6987 85.7084 26.944C85.8364 27.1893 85.9004 27.488 85.9004 27.84C85.9004 28.256 85.8204 28.6133 85.6604 28.912C85.511 29.2 85.303 29.44 85.0364 29.632C84.7697 29.824 84.4604 29.9627 84.1084 30.048C83.7564 30.144 83.383 30.192 82.9884 30.192C82.295 30.192 81.703 30.0747 81.2124 29.84C80.7324 29.6053 80.3537 29.3013 80.0764 28.928L80.9244 28.128C81.1697 28.416 81.4524 28.6507 81.7724 28.832C82.103 29.0133 82.5137 29.104 83.0044 29.104C83.2284 29.104 83.4364 29.0827 83.6284 29.04C83.831 28.9973 84.007 28.928 84.1564 28.832C84.3057 28.736 84.423 28.6187 84.5084 28.48C84.6044 28.3307 84.6524 28.1547 84.6524 27.952ZM90.542 30.192C89.8273 30.192 89.3047 29.9787 88.974 29.552C88.6433 29.1253 88.478 28.5387 88.478 27.792V23.136H87.07V22.096H88.478V19.952H89.742V22.096H92.03V23.136H89.742V27.68C89.742 28.192 89.838 28.5493 90.03 28.752C90.2327 28.9547 90.4887 29.056 90.798 29.056C91.0113 29.056 91.2033 29.0187 91.374 28.944C91.5447 28.8587 91.7047 28.7467 91.854 28.608L92.43 29.504C91.9393 29.9627 91.31 30.192 90.542 30.192ZM94.1725 22.096H95.3885V23.376H95.4845C95.6552 22.96 95.9005 22.6133 96.2205 22.336C96.5405 22.048 96.9405 21.904 97.4205 21.904C97.8258 21.904 98.1832 21.984 98.4925 22.144L98.0605 23.296C97.9218 23.2213 97.7725 23.1733 97.6125 23.152C97.4632 23.12 97.3085 23.104 97.1485 23.104C96.6258 23.104 96.2098 23.3173 95.9005 23.744C95.6018 24.16 95.4525 24.6933 95.4525 25.344V30H94.1725V22.096ZM101.629 20C101.629 20.224 101.549 20.416 101.389 20.576C101.24 20.736 101.037 20.816 100.781 20.816C100.515 20.816 100.307 20.736 100.157 20.576C100.008 20.416 99.9333 20.224 99.9333 20C99.9333 19.7867 100.008 19.6 100.157 19.44C100.307 19.2693 100.515 19.184 100.781 19.184C101.037 19.184 101.24 19.2693 101.389 19.44C101.549 19.6 101.629 19.7867 101.629 20ZM100.141 22.096H101.421V30H100.141V22.096ZM104.141 22.096H105.357V23.344H105.453C105.645 22.928 105.917 22.5867 106.269 22.32C106.621 22.0427 107.069 21.904 107.613 21.904C108.52 21.904 109.235 22.144 109.757 22.624C110.291 23.104 110.557 23.8773 110.557 24.944V30H109.277V25.184C109.277 24.3733 109.112 23.8027 108.781 23.472C108.461 23.1307 107.987 22.96 107.357 22.96C106.749 22.96 106.275 23.168 105.933 23.584C105.592 24 105.421 24.608 105.421 25.408V30H104.141V22.096ZM116.278 33.152C115.595 33.152 115.003 33.0293 114.502 32.784C114 32.5493 113.6 32.256 113.302 31.904L114.15 31.088C114.374 31.3653 114.662 31.584 115.014 31.744C115.376 31.9147 115.776 32 116.214 32C116.896 32 117.43 31.8347 117.814 31.504C118.208 31.1733 118.406 30.592 118.406 29.76V28.224H118.31C118.224 28.4907 118.102 28.7307 117.942 28.944C117.782 29.1467 117.59 29.3227 117.366 29.472C117.152 29.6107 116.912 29.7227 116.646 29.808C116.39 29.8827 116.128 29.92 115.862 29.92C115.36 29.92 114.902 29.8293 114.486 29.648C114.08 29.4667 113.723 29.2053 113.414 28.864C113.115 28.512 112.88 28.0853 112.71 27.584C112.55 27.0827 112.47 26.5173 112.47 25.888C112.47 25.2693 112.55 24.7147 112.71 24.224C112.88 23.7333 113.115 23.3173 113.414 22.976C113.723 22.6347 114.08 22.3733 114.486 22.192C114.902 22 115.36 21.904 115.862 21.904C116.448 21.904 116.971 22.0587 117.43 22.368C117.899 22.6667 118.214 23.0827 118.374 23.616H118.47V22.096H119.686V29.92C119.686 30.8907 119.392 31.6693 118.806 32.256C118.23 32.8533 117.387 33.152 116.278 33.152ZM116.118 28.768C116.822 28.768 117.376 28.5227 117.782 28.032C118.198 27.5413 118.406 26.832 118.406 25.904C118.406 24.9653 118.198 24.256 117.782 23.776C117.376 23.296 116.822 23.056 116.118 23.056C115.403 23.056 114.832 23.296 114.406 23.776C113.99 24.256 113.782 24.9653 113.782 25.904C113.782 26.832 113.99 27.5413 114.406 28.032C114.832 28.5227 115.403 28.768 116.118 28.768Z" fill="#242E30"/>
<path d="M1.604 60.2H4.148C5.284 60.2 6.156 60.544 6.764 61.232C7.372 61.92 7.676 62.88 7.676 64.112C7.676 64.712 7.596 65.252 7.436 65.732C7.276 66.212 7.04 66.62 6.728 66.956C6.424 67.292 6.048 67.552 5.6 67.736C5.16 67.912 4.66 68 4.1 68H1.604V60.2ZM4.22 67.136C4.588 67.136 4.92 67.068 5.216 66.932C5.512 66.788 5.764 66.588 5.972 66.332C6.188 66.068 6.352 65.752 6.464 65.384C6.576 65.008 6.632 64.584 6.632 64.112C6.632 63.144 6.42 62.396 5.996 61.868C5.58 61.332 4.996 61.064 4.244 61.064H2.624V67.136H4.22ZM10.6327 68.144C10.3607 68.144 10.1087 68.1 9.87669 68.012C9.65269 67.924 9.45669 67.8 9.28869 67.64C9.12069 67.48 8.98869 67.292 8.89269 67.076C8.80469 66.852 8.76069 66.608 8.76069 66.344C8.76069 65.832 8.94469 65.42 9.31269 65.108C9.68069 64.796 10.2047 64.62 10.8847 64.58L12.4447 64.484V64.064C12.4447 63.608 12.3327 63.28 12.1087 63.08C11.8927 62.872 11.5807 62.768 11.1727 62.768C10.8287 62.768 10.5327 62.832 10.2847 62.96C10.0367 63.088 9.84469 63.228 9.70869 63.38L9.13269 62.804C9.34069 62.548 9.62069 62.34 9.97269 62.18C10.3327 62.012 10.7407 61.928 11.1967 61.928C11.6047 61.928 11.9487 61.984 12.2287 62.096C12.5087 62.2 12.7327 62.344 12.9007 62.528C13.0767 62.712 13.2007 62.928 13.2727 63.176C13.3527 63.424 13.3927 63.688 13.3927 63.968V68H12.4927V66.992H12.4207C12.2607 67.352 12.0367 67.636 11.7487 67.844C11.4607 68.044 11.0887 68.144 10.6327 68.144ZM10.7767 67.328C11.2727 67.328 11.6727 67.184 11.9767 66.896C12.2887 66.6 12.4447 66.208 12.4447 65.72V65.204L10.9327 65.312C10.1327 65.376 9.73269 65.712 9.73269 66.32C9.73269 66.624 9.82869 66.868 10.0207 67.052C10.2207 67.236 10.4727 67.328 10.7767 67.328ZM17.1487 68.144C16.6127 68.144 16.2207 67.984 15.9727 67.664C15.7247 67.344 15.6007 66.904 15.6007 66.344V62.852H14.5447V62.072H15.6007V60.464H16.5487V62.072H18.2647V62.852H16.5487V66.26C16.5487 66.644 16.6207 66.912 16.7647 67.064C16.9167 67.216 17.1087 67.292 17.3407 67.292C17.5007 67.292 17.6447 67.264 17.7727 67.208C17.9007 67.144 18.0207 67.06 18.1327 66.956L18.5647 67.628C18.1967 67.972 17.7247 68.144 17.1487 68.144ZM22.0938 68.144C21.6698 68.144 21.2818 68.072 20.9298 67.928C20.5858 67.784 20.2898 67.58 20.0418 67.316C19.8018 67.044 19.6138 66.716 19.4778 66.332C19.3498 65.948 19.2858 65.516 19.2858 65.036C19.2858 64.532 19.3538 64.088 19.4898 63.704C19.6258 63.312 19.8138 62.988 20.0538 62.732C20.2938 62.468 20.5778 62.268 20.9058 62.132C21.2418 61.996 21.6098 61.928 22.0098 61.928C22.4098 61.928 22.7778 61.992 23.1138 62.12C23.4498 62.248 23.7378 62.44 23.9778 62.696C24.2178 62.944 24.4058 63.26 24.5418 63.644C24.6778 64.02 24.7458 64.46 24.7458 64.964C24.7458 65.028 24.7418 65.092 24.7338 65.156C24.7338 65.22 24.7298 65.272 24.7218 65.312H20.2458C20.2458 65.592 20.2938 65.856 20.3898 66.104C20.4938 66.344 20.6298 66.556 20.7978 66.74C20.9738 66.916 21.1738 67.056 21.3978 67.16C21.6298 67.264 21.8778 67.316 22.1418 67.316C22.5738 67.316 22.9258 67.232 23.1978 67.064C23.4778 66.896 23.7098 66.692 23.8938 66.452L24.4698 67.04C24.2138 67.376 23.8938 67.644 23.5098 67.844C23.1338 68.044 22.6618 68.144 22.0938 68.144ZM22.0098 62.72C21.7298 62.72 21.4818 62.772 21.2658 62.876C21.0498 62.98 20.8698 63.116 20.7258 63.284C20.5818 63.452 20.4698 63.644 20.3898 63.86C20.3178 64.076 20.2778 64.292 20.2698 64.508H23.7378C23.7298 64.292 23.6858 64.076 23.6058 63.86C23.5338 63.644 23.4258 63.452 23.2818 63.284C23.1378 63.116 22.9578 62.98 22.7418 62.876C22.5338 62.772 22.2898 62.72 22.0098 62.72ZM30.2803 65.972C29.9443 65.972 29.6803 65.868 29.4883 65.66C29.3043 65.452 29.2123 65.208 29.2123 64.928C29.2123 64.648 29.3043 64.404 29.4883 64.196C29.6803 63.988 29.9443 63.884 30.2803 63.884C30.6163 63.884 30.8763 63.988 31.0603 64.196C31.2443 64.404 31.3363 64.648 31.3363 64.928C31.3363 65.208 31.2443 65.452 31.0603 65.66C30.8763 65.868 30.6163 65.972 30.2803 65.972ZM38.1135 68.144C37.5775 68.144 37.1855 67.984 36.9375 67.664C36.6895 67.344 36.5655 66.904 36.5655 66.344V62.852H35.5095V62.072H36.5655V60.464H37.5135V62.072H39.2295V62.852H37.5135V66.26C37.5135 66.644 37.5855 66.912 37.7295 67.064C37.8815 67.216 38.0735 67.292 38.3055 67.292C38.4655 67.292 38.6095 67.264 38.7375 67.208C38.8655 67.144 38.9855 67.06 39.0975 66.956L39.5295 67.628C39.1615 67.972 38.6895 68.144 38.1135 68.144ZM41.9524 60.5C41.9524 60.668 41.8924 60.812 41.7724 60.932C41.6604 61.052 41.5084 61.112 41.3164 61.112C41.1164 61.112 40.9604 61.052 40.8484 60.932C40.7364 60.812 40.6804 60.668 40.6804 60.5C40.6804 60.34 40.7364 60.2 40.8484 60.08C40.9604 59.952 41.1164 59.888 41.3164 59.888C41.5084 59.888 41.6604 59.952 41.7724 60.08C41.8924 60.2 41.9524 60.34 41.9524 60.5ZM40.8364 62.072H41.7964V68H40.8364V62.072ZM43.8364 62.072H44.7484V63.008H44.8204C44.9644 62.696 45.1644 62.44 45.4204 62.24C45.6844 62.032 46.0124 61.928 46.4044 61.928C46.8764 61.928 47.2724 62.016 47.5924 62.192C47.9204 62.36 48.1644 62.616 48.3244 62.96C48.5004 62.624 48.7364 62.368 49.0324 62.192C49.3284 62.016 49.7044 61.928 50.1604 61.928C50.4884 61.928 50.7844 61.972 51.0484 62.06C51.3124 62.148 51.5364 62.284 51.7204 62.468C51.9124 62.652 52.0564 62.888 52.1524 63.176C52.2564 63.464 52.3084 63.808 52.3084 64.208V68H51.3484V64.388C51.3484 63.78 51.2284 63.352 50.9884 63.104C50.7564 62.848 50.4124 62.72 49.9564 62.72C49.5164 62.72 49.1724 62.876 48.9244 63.188C48.6764 63.5 48.5524 63.956 48.5524 64.556V68H47.5924V64.388C47.5924 63.78 47.4724 63.352 47.2324 63.104C47.0004 62.848 46.6564 62.72 46.2004 62.72C45.7684 62.72 45.4244 62.876 45.1684 63.188C44.9204 63.5 44.7964 63.956 44.7964 64.556V68H43.8364V62.072ZM56.5587 68.144C56.1347 68.144 55.7467 68.072 55.3947 67.928C55.0507 67.784 54.7547 67.58 54.5067 67.316C54.2667 67.044 54.0787 66.716 53.9427 66.332C53.8147 65.948 53.7507 65.516 53.7507 65.036C53.7507 64.532 53.8187 64.088 53.9547 63.704C54.0907 63.312 54.2787 62.988 54.5187 62.732C54.7587 62.468 55.0427 62.268 55.3707 62.132C55.7067 61.996 56.0747 61.928 56.4747 61.928C56.8747 61.928 57.2427 61.992 57.5787 62.12C57.9147 62.248 58.2027 62.44 58.4427 62.696C58.6827 62.944 58.8707 63.26 59.0067 63.644C59.1427 64.02 59.2107 64.46 59.2107 64.964C59.2107 65.028 59.2067 65.092 59.1987 65.156C59.1987 65.22 59.1947 65.272 59.1867 65.312H54.7107C54.7107 65.592 54.7587 65.856 54.8547 66.104C54.9587 66.344 55.0947 66.556 55.2627 66.74C55.4387 66.916 55.6387 67.056 55.8627 67.16C56.0947 67.264 56.3427 67.316 56.6067 67.316C57.0387 67.316 57.3907 67.232 57.6627 67.064C57.9427 66.896 58.1747 66.692 58.3587 66.452L58.9347 67.04C58.6787 67.376 58.3587 67.644 57.9747 67.844C57.5987 68.044 57.1267 68.144 56.5587 68.144ZM56.4747 62.72C56.1947 62.72 55.9467 62.772 55.7307 62.876C55.5147 62.98 55.3347 63.116 55.1907 63.284C55.0467 63.452 54.9347 63.644 54.8547 63.86C54.7827 64.076 54.7427 64.292 54.7347 64.508H58.2027C58.1947 64.292 58.1507 64.076 58.0707 63.86C57.9987 63.644 57.8907 63.452 57.7467 63.284C57.6027 63.116 57.4227 62.98 57.2067 62.876C56.9987 62.772 56.7547 62.72 56.4747 62.72ZM63.6143 66.464C63.6143 66.288 63.5743 66.144 63.4943 66.032C63.4143 65.912 63.3023 65.812 63.1583 65.732C63.0223 65.652 62.8663 65.584 62.6903 65.528C62.5143 65.472 62.3303 65.416 62.1383 65.36C61.9143 65.296 61.6983 65.22 61.4903 65.132C61.2903 65.044 61.1103 64.936 60.9503 64.808C60.7903 64.672 60.6623 64.512 60.5663 64.328C60.4703 64.144 60.4223 63.92 60.4223 63.656C60.4223 63.376 60.4743 63.128 60.5783 62.912C60.6823 62.696 60.8263 62.516 61.0103 62.372C61.1943 62.228 61.4103 62.12 61.6583 62.048C61.9063 61.968 62.1743 61.928 62.4623 61.928C62.8943 61.928 63.2903 62.008 63.6503 62.168C64.0103 62.32 64.3063 62.56 64.5383 62.888L63.9143 63.464C63.7383 63.256 63.5303 63.084 63.2903 62.948C63.0583 62.812 62.7823 62.744 62.4623 62.744C62.3263 62.744 62.1903 62.76 62.0543 62.792C61.9263 62.824 61.8103 62.876 61.7063 62.948C61.6023 63.012 61.5183 63.096 61.4543 63.2C61.3903 63.304 61.3583 63.428 61.3583 63.572C61.3583 63.748 61.3983 63.896 61.4783 64.016C61.5583 64.128 61.6663 64.224 61.8023 64.304C61.9463 64.384 62.1063 64.452 62.2823 64.508C62.4583 64.564 62.6423 64.62 62.8343 64.676C63.0583 64.74 63.2703 64.816 63.4703 64.904C63.6783 64.992 63.8623 65.104 64.0223 65.24C64.1823 65.368 64.3103 65.524 64.4063 65.708C64.5023 65.892 64.5503 66.116 64.5503 66.38C64.5503 66.692 64.4903 66.96 64.3703 67.184C64.2583 67.4 64.1023 67.58 63.9023 67.724C63.7023 67.868 63.4703 67.972 63.2063 68.036C62.9423 68.108 62.6623 68.144 62.3663 68.144C61.8463 68.144 61.4023 68.056 61.0343 67.88C60.6743 67.704 60.3903 67.476 60.1823 67.196L60.8183 66.596C61.0023 66.812 61.2143 66.988 61.4543 67.124C61.7023 67.26 62.0103 67.328 62.3783 67.328C62.5463 67.328 62.7023 67.312 62.8463 67.28C62.9983 67.248 63.1303 67.196 63.2423 67.124C63.3543 67.052 63.4423 66.964 63.5063 66.86C63.5783 66.748 63.6143 66.616 63.6143 66.464ZM68.0315 68.144C67.4955 68.144 67.1035 67.984 66.8555 67.664C66.6075 67.344 66.4835 66.904 66.4835 66.344V62.852H65.4275V62.072H66.4835V60.464H67.4315V62.072H69.1475V62.852H67.4315V66.26C67.4315 66.644 67.5035 66.912 67.6475 67.064C67.7995 67.216 67.9915 67.292 68.2235 67.292C68.3835 67.292 68.5275 67.264 68.6555 67.208C68.7835 67.144 68.9035 67.06 69.0155 66.956L69.4475 67.628C69.0795 67.972 68.6075 68.144 68.0315 68.144ZM72.0624 68.144C71.7904 68.144 71.5384 68.1 71.3064 68.012C71.0824 67.924 70.8864 67.8 70.7184 67.64C70.5504 67.48 70.4184 67.292 70.3224 67.076C70.2344 66.852 70.1904 66.608 70.1904 66.344C70.1904 65.832 70.3744 65.42 70.7424 65.108C71.1104 64.796 71.6344 64.62 72.3144 64.58L73.8744 64.484V64.064C73.8744 63.608 73.7624 63.28 73.5384 63.08C73.3224 62.872 73.0104 62.768 72.6024 62.768C72.2584 62.768 71.9624 62.832 71.7144 62.96C71.4664 63.088 71.2744 63.228 71.1384 63.38L70.5624 62.804C70.7704 62.548 71.0504 62.34 71.4024 62.18C71.7624 62.012 72.1704 61.928 72.6264 61.928C73.0344 61.928 73.3784 61.984 73.6584 62.096C73.9384 62.2 74.1624 62.344 74.3304 62.528C74.5064 62.712 74.6304 62.928 74.7024 63.176C74.7824 63.424 74.8224 63.688 74.8224 63.968V68H73.9224V66.992H73.8504C73.6904 67.352 73.4664 67.636 73.1784 67.844C72.8904 68.044 72.5184 68.144 72.0624 68.144ZM72.2064 67.328C72.7024 67.328 73.1024 67.184 73.4064 66.896C73.7184 66.6 73.8744 66.208 73.8744 65.72V65.204L72.3624 65.312C71.5624 65.376 71.1624 65.712 71.1624 66.32C71.1624 66.624 71.2584 66.868 71.4504 67.052C71.6504 67.236 71.9024 67.328 72.2064 67.328ZM76.7544 62.072H77.6664V63.008H77.7384C77.8824 62.696 78.0824 62.44 78.3384 62.24C78.6024 62.032 78.9304 61.928 79.3224 61.928C79.7944 61.928 80.1904 62.016 80.5104 62.192C80.8384 62.36 81.0824 62.616 81.2424 62.96C81.4184 62.624 81.6544 62.368 81.9504 62.192C82.2464 62.016 82.6224 61.928 83.0784 61.928C83.4064 61.928 83.7024 61.972 83.9664 62.06C84.2304 62.148 84.4544 62.284 84.6384 62.468C84.8304 62.652 84.9744 62.888 85.0704 63.176C85.1744 63.464 85.2264 63.808 85.2264 64.208V68H84.2664V64.388C84.2664 63.78 84.1464 63.352 83.9064 63.104C83.6744 62.848 83.3304 62.72 82.8744 62.72C82.4344 62.72 82.0904 62.876 81.8424 63.188C81.5944 63.5 81.4704 63.956 81.4704 64.556V68H80.5104V64.388C80.5104 63.78 80.3904 63.352 80.1504 63.104C79.9184 62.848 79.5744 62.72 79.1184 62.72C78.6864 62.72 78.3424 62.876 78.0864 63.188C77.8384 63.5 77.7144 63.956 77.7144 64.556V68H76.7544V62.072ZM87.1606 62.072H88.0726V63.284H88.1446C88.2166 63.084 88.3166 62.9 88.4446 62.732C88.5806 62.564 88.7366 62.42 88.9126 62.3C89.0966 62.18 89.2966 62.088 89.5126 62.024C89.7366 61.96 89.9686 61.928 90.2086 61.928C90.6006 61.928 90.9566 62.008 91.2766 62.168C91.6046 62.32 91.8846 62.536 92.1166 62.816C92.3486 63.088 92.5246 63.416 92.6446 63.8C92.7726 64.184 92.8366 64.6 92.8366 65.048C92.8366 65.496 92.7726 65.912 92.6446 66.296C92.5246 66.672 92.3486 67 92.1166 67.28C91.8846 67.552 91.6046 67.764 91.2766 67.916C90.9566 68.068 90.6006 68.144 90.2086 68.144C89.7206 68.144 89.3006 68.028 88.9486 67.796C88.5966 67.564 88.3446 67.268 88.1926 66.908H88.1206V70.22H87.1606V62.072ZM89.9686 67.28C90.2326 67.28 90.4766 67.236 90.7006 67.148C90.9326 67.052 91.1326 66.912 91.3006 66.728C91.4766 66.536 91.6126 66.3 91.7086 66.02C91.8046 65.74 91.8526 65.412 91.8526 65.036C91.8526 64.66 91.8046 64.332 91.7086 64.052C91.6126 63.772 91.4766 63.54 91.3006 63.356C91.1326 63.164 90.9326 63.024 90.7006 62.936C90.4766 62.84 90.2326 62.792 89.9686 62.792C89.7126 62.792 89.4726 62.84 89.2486 62.936C89.0246 63.024 88.8286 63.164 88.6606 63.356C88.4926 63.54 88.3606 63.772 88.2646 64.052C88.1686 64.332 88.1206 64.66 88.1206 65.036C88.1206 65.412 88.1686 65.74 88.2646 66.02C88.3606 66.3 88.4926 66.536 88.6606 66.728C88.8286 66.912 89.0246 67.052 89.2486 67.148C89.4726 67.236 89.7126 67.28 89.9686 67.28Z" fill="#3C4C4F"/>
</svg>
