<svg width="500" height="200" viewBox="0 0 500 200" fill="none" xmlns="http://www.w3.org/2000/svg">
<rect x="0.5" y="0.5" width="499" height="199" rx="15.5" fill="white"/>
<rect x="0.5" y="0.5" width="499" height="199" rx="15.5" stroke="#DBD9D7"/>
<path d="M183.5 76C183.5 69.3726 188.873 64 195.5 64H304.5C311.127 64 316.5 69.3726 316.5 76V100C316.5 106.627 311.127 112 304.5 112H185.5C184.395 112 183.5 111.105 183.5 110V76Z" fill="#EFEDEA"/>
<path d="M196.972 83.6H198.796L202.364 92.464H202.46L206.028 83.6H207.884V94H206.604V85.408H206.508L203.084 94H201.74L198.316 85.408H198.22V94H196.972V83.6ZM213.807 94.192C213.242 94.192 212.725 94.096 212.255 93.904C211.797 93.712 211.402 93.44 211.071 93.088C210.751 92.7253 210.501 92.288 210.319 91.776C210.149 91.264 210.063 90.688 210.063 90.048C210.063 89.376 210.154 88.784 210.335 88.272C210.517 87.7493 210.767 87.3173 211.087 86.976C211.407 86.624 211.786 86.3573 212.223 86.176C212.671 85.9947 213.162 85.904 213.695 85.904C214.229 85.904 214.719 85.9893 215.167 86.16C215.615 86.3307 215.999 86.5867 216.319 86.928C216.639 87.2587 216.89 87.68 217.071 88.192C217.253 88.6933 217.343 89.28 217.343 89.952C217.343 90.0373 217.338 90.1227 217.327 90.208C217.327 90.2933 217.322 90.3627 217.311 90.416H211.343C211.343 90.7893 211.407 91.1413 211.535 91.472C211.674 91.792 211.855 92.0747 212.079 92.32C212.314 92.5547 212.581 92.7413 212.879 92.88C213.189 93.0187 213.519 93.088 213.871 93.088C214.447 93.088 214.917 92.976 215.279 92.752C215.653 92.528 215.962 92.256 216.207 91.936L216.975 92.72C216.634 93.168 216.207 93.5253 215.695 93.792C215.194 94.0587 214.565 94.192 213.807 94.192ZM213.695 86.96C213.322 86.96 212.991 87.0293 212.703 87.168C212.415 87.3067 212.175 87.488 211.983 87.712C211.791 87.936 211.642 88.192 211.535 88.48C211.439 88.768 211.386 89.056 211.375 89.344H215.999C215.989 89.056 215.93 88.768 215.823 88.48C215.727 88.192 215.583 87.936 215.391 87.712C215.199 87.488 214.959 87.3067 214.671 87.168C214.394 87.0293 214.069 86.96 213.695 86.96ZM223.215 91.952C223.215 91.7173 223.162 91.5253 223.055 91.376C222.948 91.216 222.799 91.0827 222.607 90.976C222.426 90.8693 222.218 90.7787 221.983 90.704C221.748 90.6293 221.503 90.5547 221.247 90.48C220.948 90.3947 220.66 90.2933 220.383 90.176C220.116 90.0587 219.876 89.9147 219.663 89.744C219.45 89.5627 219.279 89.3493 219.151 89.104C219.023 88.8587 218.959 88.56 218.959 88.208C218.959 87.8347 219.028 87.504 219.167 87.216C219.306 86.928 219.498 86.688 219.743 86.496C219.988 86.304 220.276 86.16 220.607 86.064C220.938 85.9573 221.295 85.904 221.679 85.904C222.255 85.904 222.783 86.0107 223.263 86.224C223.743 86.4267 224.138 86.7467 224.447 87.184L223.615 87.952C223.38 87.6747 223.103 87.4453 222.783 87.264C222.474 87.0827 222.106 86.992 221.679 86.992C221.498 86.992 221.316 87.0133 221.135 87.056C220.964 87.0987 220.81 87.168 220.671 87.264C220.532 87.3493 220.42 87.4613 220.335 87.6C220.25 87.7387 220.207 87.904 220.207 88.096C220.207 88.3307 220.26 88.528 220.367 88.688C220.474 88.8373 220.618 88.9653 220.799 89.072C220.991 89.1787 221.204 89.2693 221.439 89.344C221.674 89.4187 221.919 89.4933 222.175 89.568C222.474 89.6533 222.756 89.7547 223.023 89.872C223.3 89.9893 223.546 90.1387 223.759 90.32C223.972 90.4907 224.143 90.6987 224.271 90.944C224.399 91.1893 224.463 91.488 224.463 91.84C224.463 92.256 224.383 92.6133 224.223 92.912C224.074 93.2 223.866 93.44 223.599 93.632C223.332 93.824 223.023 93.9627 222.671 94.048C222.319 94.144 221.946 94.192 221.551 94.192C220.858 94.192 220.266 94.0747 219.775 93.84C219.295 93.6053 218.916 93.3013 218.639 92.928L219.487 92.128C219.732 92.416 220.015 92.6507 220.335 92.832C220.666 93.0133 221.076 93.104 221.567 93.104C221.791 93.104 221.999 93.0827 222.191 93.04C222.394 92.9973 222.57 92.928 222.719 92.832C222.868 92.736 222.986 92.6187 223.071 92.48C223.167 92.3307 223.215 92.1547 223.215 91.952ZM230.481 91.952C230.481 91.7173 230.427 91.5253 230.321 91.376C230.214 91.216 230.065 91.0827 229.873 90.976C229.691 90.8693 229.483 90.7787 229.249 90.704C229.014 90.6293 228.769 90.5547 228.513 90.48C228.214 90.3947 227.926 90.2933 227.649 90.176C227.382 90.0587 227.142 89.9147 226.929 89.744C226.715 89.5627 226.545 89.3493 226.417 89.104C226.289 88.8587 226.225 88.56 226.225 88.208C226.225 87.8347 226.294 87.504 226.433 87.216C226.571 86.928 226.763 86.688 227.009 86.496C227.254 86.304 227.542 86.16 227.873 86.064C228.203 85.9573 228.561 85.904 228.945 85.904C229.521 85.904 230.049 86.0107 230.529 86.224C231.009 86.4267 231.403 86.7467 231.713 87.184L230.881 87.952C230.646 87.6747 230.369 87.4453 230.049 87.264C229.739 87.0827 229.371 86.992 228.945 86.992C228.763 86.992 228.582 87.0133 228.401 87.056C228.23 87.0987 228.075 87.168 227.937 87.264C227.798 87.3493 227.686 87.4613 227.601 87.6C227.515 87.7387 227.473 87.904 227.473 88.096C227.473 88.3307 227.526 88.528 227.633 88.688C227.739 88.8373 227.883 88.9653 228.065 89.072C228.257 89.1787 228.47 89.2693 228.705 89.344C228.939 89.4187 229.185 89.4933 229.441 89.568C229.739 89.6533 230.022 89.7547 230.289 89.872C230.566 89.9893 230.811 90.1387 231.025 90.32C231.238 90.4907 231.409 90.6987 231.537 90.944C231.665 91.1893 231.729 91.488 231.729 91.84C231.729 92.256 231.649 92.6133 231.489 92.912C231.339 93.2 231.131 93.44 230.865 93.632C230.598 93.824 230.289 93.9627 229.937 94.048C229.585 94.144 229.211 94.192 228.817 94.192C228.123 94.192 227.531 94.0747 227.041 93.84C226.561 93.6053 226.182 93.3013 225.905 92.928L226.753 92.128C226.998 92.416 227.281 92.6507 227.601 92.832C227.931 93.0133 228.342 93.104 228.833 93.104C229.057 93.104 229.265 93.0827 229.457 93.04C229.659 92.9973 229.835 92.928 229.985 92.832C230.134 92.736 230.251 92.6187 230.337 92.48C230.433 92.3307 230.481 92.1547 230.481 91.952ZM235.776 94.192C235.413 94.192 235.077 94.1333 234.768 94.016C234.469 93.8987 234.208 93.7333 233.984 93.52C233.76 93.3067 233.584 93.056 233.456 92.768C233.339 92.4693 233.28 92.144 233.28 91.792C233.28 91.1093 233.525 90.56 234.016 90.144C234.507 89.728 235.205 89.4933 236.112 89.44L238.192 89.312V88.752C238.192 88.144 238.043 87.7067 237.744 87.44C237.456 87.1627 237.04 87.024 236.496 87.024C236.037 87.024 235.643 87.1093 235.312 87.28C234.981 87.4507 234.725 87.6373 234.544 87.84L233.776 87.072C234.053 86.7307 234.427 86.4533 234.896 86.24C235.376 86.016 235.92 85.904 236.528 85.904C237.072 85.904 237.531 85.9787 237.904 86.128C238.277 86.2667 238.576 86.4587 238.8 86.704C239.035 86.9493 239.2 87.2373 239.296 87.568C239.403 87.8987 239.456 88.2507 239.456 88.624V94H238.256V92.656H238.16C237.947 93.136 237.648 93.5147 237.264 93.792C236.88 94.0587 236.384 94.192 235.776 94.192ZM235.968 93.104C236.629 93.104 237.163 92.912 237.568 92.528C237.984 92.1333 238.192 91.6107 238.192 90.96V90.272L236.176 90.416C235.109 90.5013 234.576 90.9493 234.576 91.76C234.576 92.1653 234.704 92.4907 234.96 92.736C235.227 92.9813 235.563 93.104 235.968 93.104ZM245.184 97.152C244.501 97.152 243.909 97.0293 243.408 96.784C242.907 96.5493 242.507 96.256 242.208 95.904L243.056 95.088C243.28 95.3653 243.568 95.584 243.92 95.744C244.283 95.9147 244.683 96 245.12 96C245.803 96 246.336 95.8347 246.72 95.504C247.115 95.1733 247.312 94.592 247.312 93.76V92.224H247.216C247.131 92.4907 247.008 92.7307 246.848 92.944C246.688 93.1467 246.496 93.3227 246.272 93.472C246.059 93.6107 245.819 93.7227 245.552 93.808C245.296 93.8827 245.035 93.92 244.768 93.92C244.267 93.92 243.808 93.8293 243.392 93.648C242.987 93.4667 242.629 93.2053 242.32 92.864C242.021 92.512 241.787 92.0853 241.616 91.584C241.456 91.0827 241.376 90.5173 241.376 89.888C241.376 89.2693 241.456 88.7147 241.616 88.224C241.787 87.7333 242.021 87.3173 242.32 86.976C242.629 86.6347 242.987 86.3733 243.392 86.192C243.808 86 244.267 85.904 244.768 85.904C245.355 85.904 245.877 86.0587 246.336 86.368C246.805 86.6667 247.12 87.0827 247.28 87.616H247.376V86.096H248.592V93.92C248.592 94.8907 248.299 95.6693 247.712 96.256C247.136 96.8533 246.293 97.152 245.184 97.152ZM245.024 92.768C245.728 92.768 246.283 92.5227 246.688 92.032C247.104 91.5413 247.312 90.832 247.312 89.904C247.312 88.9653 247.104 88.256 246.688 87.776C246.283 87.296 245.728 87.056 245.024 87.056C244.309 87.056 243.739 87.296 243.312 87.776C242.896 88.256 242.688 88.9653 242.688 89.904C242.688 90.832 242.896 91.5413 243.312 92.032C243.739 92.5227 244.309 92.768 245.024 92.768ZM254.401 94.192C253.836 94.192 253.318 94.096 252.849 93.904C252.39 93.712 251.996 93.44 251.665 93.088C251.345 92.7253 251.094 92.288 250.913 91.776C250.742 91.264 250.657 90.688 250.657 90.048C250.657 89.376 250.748 88.784 250.929 88.272C251.11 87.7493 251.361 87.3173 251.681 86.976C252.001 86.624 252.38 86.3573 252.817 86.176C253.265 85.9947 253.756 85.904 254.289 85.904C254.822 85.904 255.313 85.9893 255.761 86.16C256.209 86.3307 256.593 86.5867 256.913 86.928C257.233 87.2587 257.484 87.68 257.665 88.192C257.846 88.6933 257.937 89.28 257.937 89.952C257.937 90.0373 257.932 90.1227 257.921 90.208C257.921 90.2933 257.916 90.3627 257.905 90.416H251.937C251.937 90.7893 252.001 91.1413 252.129 91.472C252.268 91.792 252.449 92.0747 252.673 92.32C252.908 92.5547 253.174 92.7413 253.473 92.88C253.782 93.0187 254.113 93.088 254.465 93.088C255.041 93.088 255.51 92.976 255.873 92.752C256.246 92.528 256.556 92.256 256.801 91.936L257.569 92.72C257.228 93.168 256.801 93.5253 256.289 93.792C255.788 94.0587 255.158 94.192 254.401 94.192ZM254.289 86.96C253.916 86.96 253.585 87.0293 253.297 87.168C253.009 87.3067 252.769 87.488 252.577 87.712C252.385 87.936 252.236 88.192 252.129 88.48C252.033 88.768 251.98 89.056 251.969 89.344H256.593C256.582 89.056 256.524 88.768 256.417 88.48C256.321 88.192 256.177 87.936 255.985 87.712C255.793 87.488 255.553 87.3067 255.265 87.168C254.988 87.0293 254.662 86.96 254.289 86.96ZM267.652 91.952C267.652 91.7173 267.599 91.5253 267.492 91.376C267.386 91.216 267.236 91.0827 267.044 90.976C266.863 90.8693 266.655 90.7787 266.42 90.704C266.186 90.6293 265.94 90.5547 265.684 90.48C265.386 90.3947 265.098 90.2933 264.82 90.176C264.554 90.0587 264.314 89.9147 264.1 89.744C263.887 89.5627 263.716 89.3493 263.588 89.104C263.46 88.8587 263.396 88.56 263.396 88.208C263.396 87.8347 263.466 87.504 263.604 87.216C263.743 86.928 263.935 86.688 264.18 86.496C264.426 86.304 264.714 86.16 265.044 86.064C265.375 85.9573 265.732 85.904 266.116 85.904C266.692 85.904 267.22 86.0107 267.7 86.224C268.18 86.4267 268.575 86.7467 268.884 87.184L268.052 87.952C267.818 87.6747 267.54 87.4453 267.22 87.264C266.911 87.0827 266.543 86.992 266.116 86.992C265.935 86.992 265.754 87.0133 265.572 87.056C265.402 87.0987 265.247 87.168 265.108 87.264C264.97 87.3493 264.858 87.4613 264.772 87.6C264.687 87.7387 264.644 87.904 264.644 88.096C264.644 88.3307 264.698 88.528 264.804 88.688C264.911 88.8373 265.055 88.9653 265.236 89.072C265.428 89.1787 265.642 89.2693 265.876 89.344C266.111 89.4187 266.356 89.4933 266.612 89.568C266.911 89.6533 267.194 89.7547 267.46 89.872C267.738 89.9893 267.983 90.1387 268.196 90.32C268.41 90.4907 268.58 90.6987 268.708 90.944C268.836 91.1893 268.9 91.488 268.9 91.84C268.9 92.256 268.82 92.6133 268.66 92.912C268.511 93.2 268.303 93.44 268.036 93.632C267.77 93.824 267.46 93.9627 267.108 94.048C266.756 94.144 266.383 94.192 265.988 94.192C265.295 94.192 264.703 94.0747 264.212 93.84C263.732 93.6053 263.354 93.3013 263.076 92.928L263.924 92.128C264.17 92.416 264.452 92.6507 264.772 92.832C265.103 93.0133 265.514 93.104 266.004 93.104C266.228 93.104 266.436 93.0827 266.628 93.04C266.831 92.9973 267.007 92.928 267.156 92.832C267.306 92.736 267.423 92.6187 267.508 92.48C267.604 92.3307 267.652 92.1547 267.652 91.952ZM273.542 94.192C272.827 94.192 272.305 93.9787 271.974 93.552C271.643 93.1253 271.478 92.5387 271.478 91.792V87.136H270.07V86.096H271.478V83.952H272.742V86.096H275.03V87.136H272.742V91.68C272.742 92.192 272.838 92.5493 273.03 92.752C273.233 92.9547 273.489 93.056 273.798 93.056C274.011 93.056 274.203 93.0187 274.374 92.944C274.545 92.8587 274.705 92.7467 274.854 92.608L275.43 93.504C274.939 93.9627 274.31 94.192 273.542 94.192ZM277.173 86.096H278.389V87.376H278.485C278.655 86.96 278.901 86.6133 279.221 86.336C279.541 86.048 279.941 85.904 280.421 85.904C280.826 85.904 281.183 85.984 281.493 86.144L281.061 87.296C280.922 87.2213 280.773 87.1733 280.613 87.152C280.463 87.12 280.309 87.104 280.149 87.104C279.626 87.104 279.21 87.3173 278.901 87.744C278.602 88.16 278.453 88.6933 278.453 89.344V94H277.173V86.096ZM284.629 84C284.629 84.224 284.549 84.416 284.389 84.576C284.24 84.736 284.037 84.816 283.781 84.816C283.515 84.816 283.307 84.736 283.157 84.576C283.008 84.416 282.933 84.224 282.933 84C282.933 83.7867 283.008 83.6 283.157 83.44C283.307 83.2693 283.515 83.184 283.781 83.184C284.037 83.184 284.24 83.2693 284.389 83.44C284.549 83.6 284.629 83.7867 284.629 84ZM283.141 86.096H284.421V94H283.141V86.096ZM287.141 86.096H288.357V87.344H288.453C288.645 86.928 288.917 86.5867 289.269 86.32C289.621 86.0427 290.069 85.904 290.613 85.904C291.52 85.904 292.235 86.144 292.757 86.624C293.291 87.104 293.557 87.8773 293.557 88.944V94H292.277V89.184C292.277 88.3733 292.112 87.8027 291.781 87.472C291.461 87.1307 290.987 86.96 290.357 86.96C289.749 86.96 289.275 87.168 288.933 87.584C288.592 88 288.421 88.608 288.421 89.408V94H287.141V86.096ZM299.278 97.152C298.595 97.152 298.003 97.0293 297.502 96.784C297 96.5493 296.6 96.256 296.302 95.904L297.15 95.088C297.374 95.3653 297.662 95.584 298.014 95.744C298.376 95.9147 298.776 96 299.214 96C299.896 96 300.43 95.8347 300.814 95.504C301.208 95.1733 301.406 94.592 301.406 93.76V92.224H301.31C301.224 92.4907 301.102 92.7307 300.942 92.944C300.782 93.1467 300.59 93.3227 300.366 93.472C300.152 93.6107 299.912 93.7227 299.646 93.808C299.39 93.8827 299.128 93.92 298.862 93.92C298.36 93.92 297.902 93.8293 297.486 93.648C297.08 93.4667 296.723 93.2053 296.414 92.864C296.115 92.512 295.88 92.0853 295.71 91.584C295.55 91.0827 295.47 90.5173 295.47 89.888C295.47 89.2693 295.55 88.7147 295.71 88.224C295.88 87.7333 296.115 87.3173 296.414 86.976C296.723 86.6347 297.08 86.3733 297.486 86.192C297.902 86 298.36 85.904 298.862 85.904C299.448 85.904 299.971 86.0587 300.43 86.368C300.899 86.6667 301.214 87.0827 301.374 87.616H301.47V86.096H302.686V93.92C302.686 94.8907 302.392 95.6693 301.806 96.256C301.23 96.8533 300.387 97.152 299.278 97.152ZM299.118 92.768C299.822 92.768 300.376 92.5227 300.782 92.032C301.198 91.5413 301.406 90.832 301.406 89.904C301.406 88.9653 301.198 88.256 300.782 87.776C300.376 87.296 299.822 87.056 299.118 87.056C298.403 87.056 297.832 87.296 297.406 87.776C296.99 88.256 296.782 88.9653 296.782 89.904C296.782 90.832 296.99 91.5413 297.406 92.032C297.832 92.5227 298.403 92.768 299.118 92.768Z" fill="#242E30"/>
<path d="M184.604 124.2H188.552V125.064H185.624V127.812H188.444V128.676H185.624V132H184.604V124.2ZM191.284 124.5C191.284 124.668 191.224 124.812 191.104 124.932C190.992 125.052 190.84 125.112 190.648 125.112C190.448 125.112 190.292 125.052 190.18 124.932C190.068 124.812 190.012 124.668 190.012 124.5C190.012 124.34 190.068 124.2 190.18 124.08C190.292 123.952 190.448 123.888 190.648 123.888C190.84 123.888 190.992 123.952 191.104 124.08C191.224 124.2 191.284 124.34 191.284 124.5ZM190.168 126.072H191.128V132H190.168V126.072ZM193.168 126.072H194.08V127.032H194.152C194.28 126.72 194.464 126.46 194.704 126.252C194.944 126.036 195.244 125.928 195.604 125.928C195.908 125.928 196.176 125.988 196.408 126.108L196.084 126.972C195.98 126.916 195.868 126.88 195.748 126.864C195.636 126.84 195.52 126.828 195.4 126.828C195.008 126.828 194.696 126.988 194.464 127.308C194.24 127.62 194.128 128.02 194.128 128.508V132H193.168V126.072ZM200.36 130.464C200.36 130.288 200.32 130.144 200.24 130.032C200.16 129.912 200.048 129.812 199.904 129.732C199.768 129.652 199.612 129.584 199.436 129.528C199.26 129.472 199.076 129.416 198.884 129.36C198.66 129.296 198.444 129.22 198.236 129.132C198.036 129.044 197.856 128.936 197.696 128.808C197.536 128.672 197.408 128.512 197.312 128.328C197.216 128.144 197.168 127.92 197.168 127.656C197.168 127.376 197.22 127.128 197.324 126.912C197.428 126.696 197.572 126.516 197.756 126.372C197.94 126.228 198.156 126.12 198.404 126.048C198.652 125.968 198.92 125.928 199.208 125.928C199.64 125.928 200.036 126.008 200.396 126.168C200.756 126.32 201.052 126.56 201.284 126.888L200.66 127.464C200.484 127.256 200.276 127.084 200.036 126.948C199.804 126.812 199.528 126.744 199.208 126.744C199.072 126.744 198.936 126.76 198.8 126.792C198.672 126.824 198.556 126.876 198.452 126.948C198.348 127.012 198.264 127.096 198.2 127.2C198.136 127.304 198.104 127.428 198.104 127.572C198.104 127.748 198.144 127.896 198.224 128.016C198.304 128.128 198.412 128.224 198.548 128.304C198.692 128.384 198.852 128.452 199.028 128.508C199.204 128.564 199.388 128.62 199.58 128.676C199.804 128.74 200.016 128.816 200.216 128.904C200.424 128.992 200.608 129.104 200.768 129.24C200.928 129.368 201.056 129.524 201.152 129.708C201.248 129.892 201.296 130.116 201.296 130.38C201.296 130.692 201.236 130.96 201.116 131.184C201.004 131.4 200.848 131.58 200.648 131.724C200.448 131.868 200.216 131.972 199.952 132.036C199.688 132.108 199.408 132.144 199.112 132.144C198.592 132.144 198.148 132.056 197.78 131.88C197.42 131.704 197.136 131.476 196.928 131.196L197.564 130.596C197.748 130.812 197.96 130.988 198.2 131.124C198.448 131.26 198.756 131.328 199.124 131.328C199.292 131.328 199.448 131.312 199.592 131.28C199.744 131.248 199.876 131.196 199.988 131.124C200.1 131.052 200.188 130.964 200.252 130.86C200.324 130.748 200.36 130.616 200.36 130.464ZM204.778 132.144C204.242 132.144 203.85 131.984 203.602 131.664C203.354 131.344 203.23 130.904 203.23 130.344V126.852H202.174V126.072H203.23V124.464H204.178V126.072H205.894V126.852H204.178V130.26C204.178 130.644 204.25 130.912 204.394 131.064C204.546 131.216 204.738 131.292 204.97 131.292C205.13 131.292 205.274 131.264 205.402 131.208C205.53 131.144 205.65 131.06 205.762 130.956L206.194 131.628C205.826 131.972 205.354 132.144 204.778 132.144ZM212.483 128.952H210.179V128.136H212.483V125.724H213.443V128.136H215.747V128.952H213.443V131.46H212.483V128.952ZM220.461 123.3H221.421V132H220.461V123.3ZM224.769 132.144C224.497 132.144 224.245 132.1 224.013 132.012C223.789 131.924 223.593 131.8 223.425 131.64C223.257 131.48 223.125 131.292 223.029 131.076C222.941 130.852 222.897 130.608 222.897 130.344C222.897 129.832 223.081 129.42 223.449 129.108C223.817 128.796 224.341 128.62 225.021 128.58L226.581 128.484V128.064C226.581 127.608 226.469 127.28 226.245 127.08C226.029 126.872 225.717 126.768 225.309 126.768C224.965 126.768 224.669 126.832 224.421 126.96C224.173 127.088 223.981 127.228 223.845 127.38L223.269 126.804C223.477 126.548 223.757 126.34 224.109 126.18C224.469 126.012 224.877 125.928 225.333 125.928C225.741 125.928 226.085 125.984 226.365 126.096C226.645 126.2 226.869 126.344 227.037 126.528C227.213 126.712 227.337 126.928 227.409 127.176C227.489 127.424 227.529 127.688 227.529 127.968V132H226.629V130.992H226.557C226.397 131.352 226.173 131.636 225.885 131.844C225.597 132.044 225.225 132.144 224.769 132.144ZM224.913 131.328C225.409 131.328 225.809 131.184 226.113 130.896C226.425 130.6 226.581 130.208 226.581 129.72V129.204L225.069 129.312C224.269 129.376 223.869 129.712 223.869 130.32C223.869 130.624 223.965 130.868 224.157 131.052C224.357 131.236 224.609 131.328 224.913 131.328ZM232.317 130.464C232.317 130.288 232.277 130.144 232.197 130.032C232.117 129.912 232.005 129.812 231.861 129.732C231.725 129.652 231.569 129.584 231.393 129.528C231.217 129.472 231.033 129.416 230.841 129.36C230.617 129.296 230.401 129.22 230.193 129.132C229.993 129.044 229.813 128.936 229.653 128.808C229.493 128.672 229.365 128.512 229.269 128.328C229.173 128.144 229.125 127.92 229.125 127.656C229.125 127.376 229.177 127.128 229.281 126.912C229.385 126.696 229.529 126.516 229.713 126.372C229.897 126.228 230.113 126.12 230.361 126.048C230.609 125.968 230.877 125.928 231.165 125.928C231.597 125.928 231.993 126.008 232.353 126.168C232.713 126.32 233.009 126.56 233.241 126.888L232.617 127.464C232.441 127.256 232.233 127.084 231.993 126.948C231.761 126.812 231.485 126.744 231.165 126.744C231.029 126.744 230.893 126.76 230.757 126.792C230.629 126.824 230.513 126.876 230.409 126.948C230.305 127.012 230.221 127.096 230.157 127.2C230.093 127.304 230.061 127.428 230.061 127.572C230.061 127.748 230.101 127.896 230.181 128.016C230.261 128.128 230.369 128.224 230.505 128.304C230.649 128.384 230.809 128.452 230.985 128.508C231.161 128.564 231.345 128.62 231.537 128.676C231.761 128.74 231.973 128.816 232.173 128.904C232.381 128.992 232.565 129.104 232.725 129.24C232.885 129.368 233.013 129.524 233.109 129.708C233.205 129.892 233.253 130.116 233.253 130.38C233.253 130.692 233.193 130.96 233.073 131.184C232.961 131.4 232.805 131.58 232.605 131.724C232.405 131.868 232.173 131.972 231.909 132.036C231.645 132.108 231.365 132.144 231.069 132.144C230.549 132.144 230.105 132.056 229.737 131.88C229.377 131.704 229.093 131.476 228.885 131.196L229.521 130.596C229.705 130.812 229.917 130.988 230.157 131.124C230.405 131.26 230.713 131.328 231.081 131.328C231.249 131.328 231.405 131.312 231.549 131.28C231.701 131.248 231.833 131.196 231.945 131.124C232.057 131.052 232.145 130.964 232.209 130.86C232.281 130.748 232.317 130.616 232.317 130.464ZM236.735 132.144C236.199 132.144 235.807 131.984 235.559 131.664C235.311 131.344 235.187 130.904 235.187 130.344V126.852H234.131V126.072H235.187V124.464H236.135V126.072H237.851V126.852H236.135V130.26C236.135 130.644 236.207 130.912 236.351 131.064C236.503 131.216 236.695 131.292 236.927 131.292C237.087 131.292 237.231 131.264 237.359 131.208C237.487 131.144 237.607 131.06 237.719 130.956L238.151 131.628C237.783 131.972 237.311 132.144 236.735 132.144ZM242.34 126.072H243.252V127.008H243.324C243.468 126.696 243.672 126.44 243.936 126.24C244.2 126.032 244.536 125.928 244.944 125.928C245.624 125.928 246.16 126.108 246.552 126.468C246.952 126.828 247.152 127.408 247.152 128.208V132H246.192V128.388C246.192 127.78 246.068 127.352 245.82 127.104C245.58 126.848 245.224 126.72 244.752 126.72C244.296 126.72 243.94 126.876 243.684 127.188C243.428 127.5 243.3 127.956 243.3 128.556V132H242.34V126.072ZM250.387 132.144C250.115 132.144 249.863 132.1 249.631 132.012C249.407 131.924 249.211 131.8 249.043 131.64C248.875 131.48 248.743 131.292 248.647 131.076C248.559 130.852 248.515 130.608 248.515 130.344C248.515 129.832 248.699 129.42 249.067 129.108C249.435 128.796 249.959 128.62 250.639 128.58L252.199 128.484V128.064C252.199 127.608 252.087 127.28 251.863 127.08C251.647 126.872 251.335 126.768 250.927 126.768C250.583 126.768 250.287 126.832 250.039 126.96C249.791 127.088 249.599 127.228 249.463 127.38L248.887 126.804C249.095 126.548 249.375 126.34 249.727 126.18C250.087 126.012 250.495 125.928 250.951 125.928C251.359 125.928 251.703 125.984 251.983 126.096C252.263 126.2 252.487 126.344 252.655 126.528C252.831 126.712 252.955 126.928 253.027 127.176C253.107 127.424 253.147 127.688 253.147 127.968V132H252.247V130.992H252.175C252.015 131.352 251.791 131.636 251.503 131.844C251.215 132.044 250.843 132.144 250.387 132.144ZM250.531 131.328C251.027 131.328 251.427 131.184 251.731 130.896C252.043 130.6 252.199 130.208 252.199 129.72V129.204L250.687 129.312C249.887 129.376 249.487 129.712 249.487 130.32C249.487 130.624 249.583 130.868 249.775 131.052C249.975 131.236 250.227 131.328 250.531 131.328ZM255.079 126.072H255.991V127.008H256.063C256.207 126.696 256.407 126.44 256.663 126.24C256.927 126.032 257.255 125.928 257.647 125.928C258.119 125.928 258.515 126.016 258.835 126.192C259.163 126.36 259.407 126.616 259.567 126.96C259.743 126.624 259.979 126.368 260.275 126.192C260.571 126.016 260.947 125.928 261.403 125.928C261.731 125.928 262.027 125.972 262.291 126.06C262.555 126.148 262.779 126.284 262.963 126.468C263.155 126.652 263.299 126.888 263.395 127.176C263.499 127.464 263.551 127.808 263.551 128.208V132H262.591V128.388C262.591 127.78 262.471 127.352 262.231 127.104C261.999 126.848 261.655 126.72 261.199 126.72C260.759 126.72 260.415 126.876 260.167 127.188C259.919 127.5 259.795 127.956 259.795 128.556V132H258.835V128.388C258.835 127.78 258.715 127.352 258.475 127.104C258.243 126.848 257.899 126.72 257.443 126.72C257.011 126.72 256.667 126.876 256.411 127.188C256.163 127.5 256.039 127.956 256.039 128.556V132H255.079V126.072ZM267.801 132.144C267.377 132.144 266.989 132.072 266.637 131.928C266.293 131.784 265.997 131.58 265.749 131.316C265.509 131.044 265.321 130.716 265.185 130.332C265.057 129.948 264.993 129.516 264.993 129.036C264.993 128.532 265.061 128.088 265.197 127.704C265.333 127.312 265.521 126.988 265.761 126.732C266.001 126.468 266.285 126.268 266.613 126.132C266.949 125.996 267.317 125.928 267.717 125.928C268.117 125.928 268.485 125.992 268.821 126.12C269.157 126.248 269.445 126.44 269.685 126.696C269.925 126.944 270.113 127.26 270.249 127.644C270.385 128.02 270.453 128.46 270.453 128.964C270.453 129.028 270.449 129.092 270.441 129.156C270.441 129.22 270.437 129.272 270.429 129.312H265.953C265.953 129.592 266.001 129.856 266.097 130.104C266.201 130.344 266.337 130.556 266.505 130.74C266.681 130.916 266.881 131.056 267.105 131.16C267.337 131.264 267.585 131.316 267.849 131.316C268.281 131.316 268.633 131.232 268.905 131.064C269.185 130.896 269.417 130.692 269.601 130.452L270.177 131.04C269.921 131.376 269.601 131.644 269.217 131.844C268.841 132.044 268.369 132.144 267.801 132.144ZM267.717 126.72C267.437 126.72 267.189 126.772 266.973 126.876C266.757 126.98 266.577 127.116 266.433 127.284C266.289 127.452 266.177 127.644 266.097 127.86C266.025 128.076 265.985 128.292 265.977 128.508H269.445C269.437 128.292 269.393 128.076 269.313 127.86C269.241 127.644 269.133 127.452 268.989 127.284C268.845 127.116 268.665 126.98 268.449 126.876C268.241 126.772 267.997 126.72 267.717 126.72Z" fill="#3C4C4F"/>
</svg>
