<svg width="158" height="40" viewBox="0 0 158 40" fill="none" xmlns="http://www.w3.org/2000/svg">
<g filter="url(#filter0_dd_3573_5443)">
<g clip-path="url(#clip0_3573_5443)">
<path d="M4 20C4 11.1634 11.1634 4 20 4H51C59.8366 4 67 11.1634 67 20C67 28.8366 59.8366 36 51 36H20C11.1634 36 4 28.8366 4 20Z" fill="white" fill-opacity="0.01" shape-rendering="crispEdges"/>
<path d="M19.78 25.168C18.9493 25.168 18.2633 25.042 17.722 24.79C17.1807 24.5287 16.7327 24.1833 16.378 23.754L17.582 22.634C17.8433 22.9233 18.1467 23.1613 18.492 23.348C18.8467 23.5347 19.29 23.628 19.822 23.628C20.2513 23.628 20.62 23.5347 20.928 23.348C21.236 23.1613 21.39 22.8627 21.39 22.452C21.39 22.256 21.3387 22.0973 21.236 21.976C21.1427 21.8453 21.0027 21.7333 20.816 21.64C20.6387 21.5373 20.4147 21.444 20.144 21.36C19.8827 21.276 19.584 21.1827 19.248 21.08C18.9307 20.9867 18.618 20.8747 18.31 20.744C18.002 20.604 17.7267 20.436 17.484 20.24C17.2507 20.0347 17.0593 19.7873 16.91 19.498C16.77 19.1993 16.7 18.84 16.7 18.42C16.7 17.9907 16.7793 17.608 16.938 17.272C17.106 16.936 17.3347 16.656 17.624 16.432C17.9227 16.1987 18.2773 16.026 18.688 15.914C19.0987 15.7927 19.5513 15.732 20.046 15.732C20.7927 15.732 21.4273 15.8533 21.95 16.096C22.4727 16.3293 22.8973 16.6653 23.224 17.104L22.02 18.238C21.796 17.9673 21.5207 17.7433 21.194 17.566C20.8767 17.3793 20.4893 17.286 20.032 17.286C19.8453 17.286 19.6633 17.3047 19.486 17.342C19.318 17.3793 19.1687 17.4447 19.038 17.538C18.9073 17.622 18.8 17.734 18.716 17.874C18.6413 18.0047 18.604 18.168 18.604 18.364C18.604 18.56 18.6507 18.7233 18.744 18.854C18.8467 18.9847 18.9867 19.1013 19.164 19.204C19.3507 19.2973 19.5747 19.386 19.836 19.47C20.0973 19.554 20.396 19.6473 20.732 19.75C21.0493 19.8527 21.362 19.9693 21.67 20.1C21.978 20.2307 22.2533 20.3987 22.496 20.604C22.7387 20.8 22.93 21.0473 23.07 21.346C23.2193 21.6353 23.294 21.99 23.294 22.41C23.294 22.858 23.2053 23.2547 23.028 23.6C22.86 23.9453 22.6173 24.2347 22.3 24.468C21.992 24.692 21.6233 24.8647 21.194 24.986C20.7647 25.1073 20.2933 25.168 19.78 25.168ZM27.418 25.154C26.6527 25.154 26.0927 24.9487 25.738 24.538C25.3927 24.1273 25.22 23.5067 25.22 22.676V19.498H24.128V18.084H25.22V16.208H26.97V18.084H28.986V19.498H26.97V22.662C26.97 23.026 27.0353 23.2873 27.166 23.446C27.2967 23.5953 27.4927 23.67 27.754 23.67C27.9407 23.67 28.1087 23.6373 28.258 23.572C28.4073 23.4973 28.538 23.4087 28.65 23.306L29.28 24.51C29.0467 24.734 28.7807 24.8973 28.482 25C28.1833 25.1027 27.8287 25.154 27.418 25.154ZM30.4728 18.084H32.1388V19.246H32.2228C32.3628 18.8447 32.5775 18.5227 32.8668 18.28C33.1655 18.0373 33.5388 17.916 33.9868 17.916C34.3322 17.916 34.6542 17.972 34.9528 18.084L34.4628 19.694C34.3602 19.6287 34.2388 19.582 34.0988 19.554C33.9588 19.526 33.8235 19.512 33.6928 19.512C33.2635 19.512 32.9135 19.6613 32.6428 19.96C32.3722 20.2493 32.2368 20.66 32.2368 21.192V25H30.4728V18.084ZM37.9146 16.166C37.9146 16.4273 37.8213 16.6607 37.6346 16.866C37.4573 17.0713 37.2053 17.174 36.8786 17.174C36.5426 17.174 36.2859 17.0713 36.1086 16.866C35.9313 16.6607 35.8426 16.4273 35.8426 16.166C35.8426 15.8953 35.9313 15.662 36.1086 15.466C36.2859 15.2607 36.5426 15.158 36.8786 15.158C37.2053 15.158 37.4573 15.2607 37.6346 15.466C37.8213 15.662 37.9146 15.8953 37.9146 16.166ZM35.9826 18.084H37.7466V25H35.9826V18.084ZM39.6056 18.084H41.2716V19.204H41.3556C41.5143 18.8307 41.7616 18.5227 42.0976 18.28C42.443 18.0373 42.8536 17.916 43.3296 17.916C44.207 17.916 44.837 18.1493 45.2196 18.616C45.6116 19.0733 45.8076 19.7687 45.8076 20.702V25H44.0436V21.052C44.0436 20.492 43.941 20.0767 43.7356 19.806C43.5396 19.5353 43.2036 19.4 42.7276 19.4C42.2796 19.4 41.939 19.5493 41.7056 19.848C41.4816 20.1373 41.3696 20.562 41.3696 21.122V25H39.6056V18.084ZM50.4323 27.758C49.8257 27.758 49.289 27.6507 48.8223 27.436C48.365 27.2307 48.015 26.9787 47.7723 26.68L48.8363 25.602C48.995 25.798 49.2143 25.9567 49.4943 26.078C49.7837 26.1993 50.0917 26.26 50.4183 26.26C50.6423 26.26 50.857 26.232 51.0623 26.176C51.2677 26.1293 51.445 26.0453 51.5943 25.924C51.7437 25.812 51.8603 25.658 51.9443 25.462C52.0377 25.266 52.0843 25.0187 52.0843 24.72V23.404H52.0143C51.865 23.8147 51.6083 24.146 51.2443 24.398C50.8897 24.6407 50.4603 24.762 49.9563 24.762C49.5363 24.762 49.149 24.6827 48.7943 24.524C48.449 24.356 48.1503 24.1227 47.8983 23.824C47.6557 23.516 47.4643 23.152 47.3243 22.732C47.1937 22.3027 47.1283 21.822 47.1283 21.29C47.1283 20.7767 47.1937 20.3147 47.3243 19.904C47.4643 19.4933 47.6603 19.1433 47.9123 18.854C48.1643 18.5553 48.463 18.3267 48.8083 18.168C49.163 18.0093 49.5503 17.93 49.9703 17.93C50.493 17.93 50.9363 18.0513 51.3003 18.294C51.6737 18.5367 51.9397 18.8727 52.0983 19.302H52.1823V18.084H53.8483V24.804C53.8483 25.7373 53.545 26.4607 52.9383 26.974C52.3317 27.4967 51.4963 27.758 50.4323 27.758ZM50.5023 23.292C51.0157 23.292 51.4077 23.11 51.6783 22.746C51.949 22.3727 52.0843 21.9013 52.0843 21.332C52.0843 20.744 51.949 20.2727 51.6783 19.918C51.4077 19.554 51.0157 19.372 50.5023 19.372C49.9983 19.372 49.6063 19.554 49.3263 19.918C49.0557 20.2727 48.9203 20.744 48.9203 21.332C48.9203 21.9013 49.0557 22.3727 49.3263 22.746C49.6063 23.11 49.9983 23.292 50.5023 23.292Z" fill="#242E30"/>
</g>
<path d="M4.5 20C4.5 11.4396 11.4396 4.5 20 4.5H51C59.5604 4.5 66.5 11.4396 66.5 20C66.5 28.5604 59.5604 35.5 51 35.5H20C11.4396 35.5 4.5 28.5604 4.5 20Z" stroke="#575655" shape-rendering="crispEdges"/>
</g>
<g filter="url(#filter1_dd_3573_5443)">
<g clip-path="url(#clip1_3573_5443)">
<path d="M91 20C91 11.1634 98.1634 4 107 4H138C146.837 4 154 11.1634 154 20C154 28.8366 146.837 36 138 36H107C98.1634 36 91 28.8366 91 20Z" fill="#EFEDEA"/>
<path d="M106.78 25.168C105.949 25.168 105.263 25.042 104.722 24.79C104.181 24.5287 103.733 24.1833 103.378 23.754L104.582 22.634C104.843 22.9233 105.147 23.1613 105.492 23.348C105.847 23.5347 106.29 23.628 106.822 23.628C107.251 23.628 107.62 23.5347 107.928 23.348C108.236 23.1613 108.39 22.8627 108.39 22.452C108.39 22.256 108.339 22.0973 108.236 21.976C108.143 21.8453 108.003 21.7333 107.816 21.64C107.639 21.5373 107.415 21.444 107.144 21.36C106.883 21.276 106.584 21.1827 106.248 21.08C105.931 20.9867 105.618 20.8747 105.31 20.744C105.002 20.604 104.727 20.436 104.484 20.24C104.251 20.0347 104.059 19.7873 103.91 19.498C103.77 19.1993 103.7 18.84 103.7 18.42C103.7 17.9907 103.779 17.608 103.938 17.272C104.106 16.936 104.335 16.656 104.624 16.432C104.923 16.1987 105.277 16.026 105.688 15.914C106.099 15.7927 106.551 15.732 107.046 15.732C107.793 15.732 108.427 15.8533 108.95 16.096C109.473 16.3293 109.897 16.6653 110.224 17.104L109.02 18.238C108.796 17.9673 108.521 17.7433 108.194 17.566C107.877 17.3793 107.489 17.286 107.032 17.286C106.845 17.286 106.663 17.3047 106.486 17.342C106.318 17.3793 106.169 17.4447 106.038 17.538C105.907 17.622 105.8 17.734 105.716 17.874C105.641 18.0047 105.604 18.168 105.604 18.364C105.604 18.56 105.651 18.7233 105.744 18.854C105.847 18.9847 105.987 19.1013 106.164 19.204C106.351 19.2973 106.575 19.386 106.836 19.47C107.097 19.554 107.396 19.6473 107.732 19.75C108.049 19.8527 108.362 19.9693 108.67 20.1C108.978 20.2307 109.253 20.3987 109.496 20.604C109.739 20.8 109.93 21.0473 110.07 21.346C110.219 21.6353 110.294 21.99 110.294 22.41C110.294 22.858 110.205 23.2547 110.028 23.6C109.86 23.9453 109.617 24.2347 109.3 24.468C108.992 24.692 108.623 24.8647 108.194 24.986C107.765 25.1073 107.293 25.168 106.78 25.168ZM114.418 25.154C113.653 25.154 113.093 24.9487 112.738 24.538C112.393 24.1273 112.22 23.5067 112.22 22.676V19.498H111.128V18.084H112.22V16.208H113.97V18.084H115.986V19.498H113.97V22.662C113.97 23.026 114.035 23.2873 114.166 23.446C114.297 23.5953 114.493 23.67 114.754 23.67C114.941 23.67 115.109 23.6373 115.258 23.572C115.407 23.4973 115.538 23.4087 115.65 23.306L116.28 24.51C116.047 24.734 115.781 24.8973 115.482 25C115.183 25.1027 114.829 25.154 114.418 25.154ZM117.473 18.084H119.139V19.246H119.223C119.363 18.8447 119.577 18.5227 119.867 18.28C120.165 18.0373 120.539 17.916 120.987 17.916C121.332 17.916 121.654 17.972 121.953 18.084L121.463 19.694C121.36 19.6287 121.239 19.582 121.099 19.554C120.959 19.526 120.823 19.512 120.693 19.512C120.263 19.512 119.913 19.6613 119.643 19.96C119.372 20.2493 119.237 20.66 119.237 21.192V25H117.473V18.084ZM124.915 16.166C124.915 16.4273 124.821 16.6607 124.635 16.866C124.457 17.0713 124.205 17.174 123.879 17.174C123.543 17.174 123.286 17.0713 123.109 16.866C122.931 16.6607 122.843 16.4273 122.843 16.166C122.843 15.8953 122.931 15.662 123.109 15.466C123.286 15.2607 123.543 15.158 123.879 15.158C124.205 15.158 124.457 15.2607 124.635 15.466C124.821 15.662 124.915 15.8953 124.915 16.166ZM122.983 18.084H124.747V25H122.983V18.084ZM126.606 18.084H128.272V19.204H128.356C128.514 18.8307 128.762 18.5227 129.098 18.28C129.443 18.0373 129.854 17.916 130.33 17.916C131.207 17.916 131.837 18.1493 132.22 18.616C132.612 19.0733 132.808 19.7687 132.808 20.702V25H131.044V21.052C131.044 20.492 130.941 20.0767 130.736 19.806C130.54 19.5353 130.204 19.4 129.728 19.4C129.28 19.4 128.939 19.5493 128.706 19.848C128.482 20.1373 128.37 20.562 128.37 21.122V25H126.606V18.084ZM137.432 27.758C136.826 27.758 136.289 27.6507 135.822 27.436C135.365 27.2307 135.015 26.9787 134.772 26.68L135.836 25.602C135.995 25.798 136.214 25.9567 136.494 26.078C136.784 26.1993 137.092 26.26 137.418 26.26C137.642 26.26 137.857 26.232 138.062 26.176C138.268 26.1293 138.445 26.0453 138.594 25.924C138.744 25.812 138.86 25.658 138.944 25.462C139.038 25.266 139.084 25.0187 139.084 24.72V23.404H139.014C138.865 23.8147 138.608 24.146 138.244 24.398C137.89 24.6407 137.46 24.762 136.956 24.762C136.536 24.762 136.149 24.6827 135.794 24.524C135.449 24.356 135.15 24.1227 134.898 23.824C134.656 23.516 134.464 23.152 134.324 22.732C134.194 22.3027 134.128 21.822 134.128 21.29C134.128 20.7767 134.194 20.3147 134.324 19.904C134.464 19.4933 134.66 19.1433 134.912 18.854C135.164 18.5553 135.463 18.3267 135.808 18.168C136.163 18.0093 136.55 17.93 136.97 17.93C137.493 17.93 137.936 18.0513 138.3 18.294C138.674 18.5367 138.94 18.8727 139.098 19.302H139.182V18.084H140.848V24.804C140.848 25.7373 140.545 26.4607 139.938 26.974C139.332 27.4967 138.496 27.758 137.432 27.758ZM137.502 23.292C138.016 23.292 138.408 23.11 138.678 22.746C138.949 22.3727 139.084 21.9013 139.084 21.332C139.084 20.744 138.949 20.2727 138.678 19.918C138.408 19.554 138.016 19.372 137.502 19.372C136.998 19.372 136.606 19.554 136.326 19.918C136.056 20.2727 135.92 20.744 135.92 21.332C135.92 21.9013 136.056 22.3727 136.326 22.746C136.606 23.11 136.998 23.292 137.502 23.292Z" fill="#242E30"/>
</g>
<path d="M91.5 20C91.5 11.4396 98.4396 4.5 107 4.5H138C146.56 4.5 153.5 11.4396 153.5 20C153.5 28.5604 146.56 35.5 138 35.5H107C98.4396 35.5 91.5 28.5604 91.5 20Z" stroke="#575655"/>
</g>
<defs>
<filter id="filter0_dd_3573_5443" x="0" y="0" width="71" height="40" filterUnits="userSpaceOnUse" color-interpolation-filters="sRGB">
<feFlood flood-opacity="0" result="BackgroundImageFix"/>
<feColorMatrix in="SourceAlpha" type="matrix" values="0 0 0 0 0 0 0 0 0 0 0 0 0 0 0 0 0 0 127 0" result="hardAlpha"/>
<feMorphology radius="4" operator="dilate" in="SourceAlpha" result="effect1_dropShadow_3573_5443"/>
<feOffset/>
<feComposite in2="hardAlpha" operator="out"/>
<feColorMatrix type="matrix" values="0 0 0 0 0.0352941 0 0 0 0 0.301961 0 0 0 0 0.67451 0 0 0 1 0"/>
<feBlend mode="normal" in2="BackgroundImageFix" result="effect1_dropShadow_3573_5443"/>
<feColorMatrix in="SourceAlpha" type="matrix" values="0 0 0 0 0 0 0 0 0 0 0 0 0 0 0 0 0 0 127 0" result="hardAlpha"/>
<feMorphology radius="2" operator="dilate" in="SourceAlpha" result="effect2_dropShadow_3573_5443"/>
<feOffset/>
<feComposite in2="hardAlpha" operator="out"/>
<feColorMatrix type="matrix" values="0 0 0 0 1 0 0 0 0 1 0 0 0 0 1 0 0 0 1 0"/>
<feBlend mode="normal" in2="effect1_dropShadow_3573_5443" result="effect2_dropShadow_3573_5443"/>
<feBlend mode="normal" in="SourceGraphic" in2="effect2_dropShadow_3573_5443" result="shape"/>
</filter>
<filter id="filter1_dd_3573_5443" x="87" y="0" width="71" height="40" filterUnits="userSpaceOnUse" color-interpolation-filters="sRGB">
<feFlood flood-opacity="0" result="BackgroundImageFix"/>
<feColorMatrix in="SourceAlpha" type="matrix" values="0 0 0 0 0 0 0 0 0 0 0 0 0 0 0 0 0 0 127 0" result="hardAlpha"/>
<feMorphology radius="4" operator="dilate" in="SourceAlpha" result="effect1_dropShadow_3573_5443"/>
<feOffset/>
<feComposite in2="hardAlpha" operator="out"/>
<feColorMatrix type="matrix" values="0 0 0 0 0.0352941 0 0 0 0 0.301961 0 0 0 0 0.67451 0 0 0 1 0"/>
<feBlend mode="normal" in2="BackgroundImageFix" result="effect1_dropShadow_3573_5443"/>
<feColorMatrix in="SourceAlpha" type="matrix" values="0 0 0 0 0 0 0 0 0 0 0 0 0 0 0 0 0 0 127 0" result="hardAlpha"/>
<feMorphology radius="2" operator="dilate" in="SourceAlpha" result="effect2_dropShadow_3573_5443"/>
<feOffset/>
<feComposite in2="hardAlpha" operator="out"/>
<feColorMatrix type="matrix" values="0 0 0 0 1 0 0 0 0 1 0 0 0 0 1 0 0 0 1 0"/>
<feBlend mode="normal" in2="effect1_dropShadow_3573_5443" result="effect2_dropShadow_3573_5443"/>
<feBlend mode="normal" in="SourceGraphic" in2="effect2_dropShadow_3573_5443" result="shape"/>
</filter>
<clipPath id="clip0_3573_5443">
<path d="M4 20C4 11.1634 11.1634 4 20 4H51C59.8366 4 67 11.1634 67 20C67 28.8366 59.8366 36 51 36H20C11.1634 36 4 28.8366 4 20Z" fill="white"/>
</clipPath>
<clipPath id="clip1_3573_5443">
<path d="M91 20C91 11.1634 98.1634 4 107 4H138C146.837 4 154 11.1634 154 20C154 28.8366 146.837 36 138 36H107C98.1634 36 91 28.8366 91 20Z" fill="white"/>
</clipPath>
</defs>
</svg>
