<svg width="290" height="60" viewBox="0 0 290 60" fill="none" xmlns="http://www.w3.org/2000/svg">
<path d="M0.499512 12.5C0.499512 6.14873 5.64824 1 11.9995 1H121C127.351 1 132.5 6.14873 132.5 12.5V36.5C132.5 42.8513 127.351 48 121 48H1.99951C1.17109 48 0.499512 47.3284 0.499512 46.5V12.5Z" fill="white"/>
<path d="M0.499512 12.5C0.499512 6.14873 5.64824 1 11.9995 1H121C127.351 1 132.5 6.14873 132.5 12.5V36.5C132.5 42.8513 127.351 48 121 48H1.99951C1.17109 48 0.499512 47.3284 0.499512 46.5V12.5Z" stroke="#575655"/>
<path d="M13.4715 20.1H15.2955L18.8635 28.964H18.9595L22.5275 20.1H24.3835V30.5H23.1035V21.908H23.0075L19.5835 30.5H18.2395L14.8155 21.908H14.7195V30.5H13.4715V20.1ZM30.3069 30.692C29.7416 30.692 29.2242 30.596 28.7549 30.404C28.2962 30.212 27.9016 29.94 27.5709 29.588C27.2509 29.2253 27.0002 28.788 26.8189 28.276C26.6482 27.764 26.5629 27.188 26.5629 26.548C26.5629 25.876 26.6536 25.284 26.8349 24.772C27.0162 24.2493 27.2669 23.8173 27.5869 23.476C27.9069 23.124 28.2856 22.8573 28.7229 22.676C29.1709 22.4947 29.6616 22.404 30.1949 22.404C30.7282 22.404 31.2189 22.4893 31.6669 22.66C32.1149 22.8307 32.4989 23.0867 32.8189 23.428C33.1389 23.7587 33.3896 24.18 33.5709 24.692C33.7522 25.1933 33.8429 25.78 33.8429 26.452C33.8429 26.5373 33.8376 26.6227 33.8269 26.708C33.8269 26.7933 33.8216 26.8627 33.8109 26.916H27.8429C27.8429 27.2893 27.9069 27.6413 28.0349 27.972C28.1736 28.292 28.3549 28.5747 28.5789 28.82C28.8136 29.0547 29.0802 29.2413 29.3789 29.38C29.6882 29.5187 30.0189 29.588 30.3709 29.588C30.9469 29.588 31.4162 29.476 31.7789 29.252C32.1522 29.028 32.4616 28.756 32.7069 28.436L33.4749 29.22C33.1336 29.668 32.7069 30.0253 32.1949 30.292C31.6936 30.5587 31.0642 30.692 30.3069 30.692ZM30.1949 23.46C29.8216 23.46 29.4909 23.5293 29.2029 23.668C28.9149 23.8067 28.6749 23.988 28.4829 24.212C28.2909 24.436 28.1416 24.692 28.0349 24.98C27.9389 25.268 27.8856 25.556 27.8749 25.844H32.4989C32.4882 25.556 32.4296 25.268 32.3229 24.98C32.2269 24.692 32.0829 24.436 31.8909 24.212C31.6989 23.988 31.4589 23.8067 31.1709 23.668C30.8936 23.5293 30.5682 23.46 30.1949 23.46ZM39.7144 28.452C39.7144 28.2173 39.6611 28.0253 39.5544 27.876C39.4477 27.716 39.2984 27.5827 39.1064 27.476C38.9251 27.3693 38.7171 27.2787 38.4824 27.204C38.2477 27.1293 38.0024 27.0547 37.7464 26.98C37.4477 26.8947 37.1597 26.7933 36.8824 26.676C36.6157 26.5587 36.3757 26.4147 36.1624 26.244C35.9491 26.0627 35.7784 25.8493 35.6504 25.604C35.5224 25.3587 35.4584 25.06 35.4584 24.708C35.4584 24.3347 35.5277 24.004 35.6664 23.716C35.8051 23.428 35.9971 23.188 36.2424 22.996C36.4877 22.804 36.7757 22.66 37.1064 22.564C37.4371 22.4573 37.7944 22.404 38.1784 22.404C38.7544 22.404 39.2824 22.5107 39.7624 22.724C40.2424 22.9267 40.6371 23.2467 40.9464 23.684L40.1144 24.452C39.8797 24.1747 39.6024 23.9453 39.2824 23.764C38.9731 23.5827 38.6051 23.492 38.1784 23.492C37.9971 23.492 37.8157 23.5133 37.6344 23.556C37.4637 23.5987 37.3091 23.668 37.1704 23.764C37.0317 23.8493 36.9197 23.9613 36.8344 24.1C36.7491 24.2387 36.7064 24.404 36.7064 24.596C36.7064 24.8307 36.7597 25.028 36.8664 25.188C36.9731 25.3373 37.1171 25.4653 37.2984 25.572C37.4904 25.6787 37.7037 25.7693 37.9384 25.844C38.1731 25.9187 38.4184 25.9933 38.6744 26.068C38.9731 26.1533 39.2557 26.2547 39.5224 26.372C39.7997 26.4893 40.0451 26.6387 40.2584 26.82C40.4717 26.9907 40.6424 27.1987 40.7704 27.444C40.8984 27.6893 40.9624 27.988 40.9624 28.34C40.9624 28.756 40.8824 29.1133 40.7224 29.412C40.5731 29.7 40.3651 29.94 40.0984 30.132C39.8317 30.324 39.5224 30.4627 39.1704 30.548C38.8184 30.644 38.4451 30.692 38.0504 30.692C37.3571 30.692 36.7651 30.5747 36.2744 30.34C35.7944 30.1053 35.4157 29.8013 35.1384 29.428L35.9864 28.628C36.2317 28.916 36.5144 29.1507 36.8344 29.332C37.1651 29.5133 37.5757 29.604 38.0664 29.604C38.2904 29.604 38.4984 29.5827 38.6904 29.54C38.8931 29.4973 39.0691 29.428 39.2184 29.332C39.3677 29.236 39.4851 29.1187 39.5704 28.98C39.6664 28.8307 39.7144 28.6547 39.7144 28.452ZM46.98 28.452C46.98 28.2173 46.9267 28.0253 46.82 27.876C46.7133 27.716 46.564 27.5827 46.372 27.476C46.1907 27.3693 45.9827 27.2787 45.748 27.204C45.5133 27.1293 45.268 27.0547 45.012 26.98C44.7133 26.8947 44.4253 26.7933 44.148 26.676C43.8813 26.5587 43.6413 26.4147 43.428 26.244C43.2147 26.0627 43.044 25.8493 42.916 25.604C42.788 25.3587 42.724 25.06 42.724 24.708C42.724 24.3347 42.7933 24.004 42.932 23.716C43.0707 23.428 43.2627 23.188 43.508 22.996C43.7533 22.804 44.0413 22.66 44.372 22.564C44.7027 22.4573 45.06 22.404 45.444 22.404C46.02 22.404 46.548 22.5107 47.028 22.724C47.508 22.9267 47.9027 23.2467 48.212 23.684L47.38 24.452C47.1453 24.1747 46.868 23.9453 46.548 23.764C46.2387 23.5827 45.8707 23.492 45.444 23.492C45.2627 23.492 45.0813 23.5133 44.9 23.556C44.7293 23.5987 44.5747 23.668 44.436 23.764C44.2973 23.8493 44.1853 23.9613 44.1 24.1C44.0147 24.2387 43.972 24.404 43.972 24.596C43.972 24.8307 44.0253 25.028 44.132 25.188C44.2387 25.3373 44.3827 25.4653 44.564 25.572C44.756 25.6787 44.9693 25.7693 45.204 25.844C45.4387 25.9187 45.684 25.9933 45.94 26.068C46.2387 26.1533 46.5213 26.2547 46.788 26.372C47.0653 26.4893 47.3107 26.6387 47.524 26.82C47.7373 26.9907 47.908 27.1987 48.036 27.444C48.164 27.6893 48.228 27.988 48.228 28.34C48.228 28.756 48.148 29.1133 47.988 29.412C47.8387 29.7 47.6307 29.94 47.364 30.132C47.0973 30.324 46.788 30.4627 46.436 30.548C46.084 30.644 45.7107 30.692 45.316 30.692C44.6227 30.692 44.0307 30.5747 43.54 30.34C43.06 30.1053 42.6813 29.8013 42.404 29.428L43.252 28.628C43.4973 28.916 43.78 29.1507 44.1 29.332C44.4307 29.5133 44.8413 29.604 45.332 29.604C45.556 29.604 45.764 29.5827 45.956 29.54C46.1587 29.4973 46.3347 29.428 46.484 29.332C46.6333 29.236 46.7507 29.1187 46.836 28.98C46.932 28.8307 46.98 28.6547 46.98 28.452ZM52.2754 30.692C51.9127 30.692 51.5767 30.6333 51.2674 30.516C50.9687 30.3987 50.7074 30.2333 50.4834 30.02C50.2594 29.8067 50.0834 29.556 49.9554 29.268C49.8381 28.9693 49.7794 28.644 49.7794 28.292C49.7794 27.6093 50.0247 27.06 50.5154 26.644C51.0061 26.228 51.7047 25.9933 52.6114 25.94L54.6914 25.812V25.252C54.6914 24.644 54.5421 24.2067 54.2434 23.94C53.9554 23.6627 53.5394 23.524 52.9954 23.524C52.5367 23.524 52.1421 23.6093 51.8114 23.78C51.4807 23.9507 51.2247 24.1373 51.0434 24.34L50.2754 23.572C50.5527 23.2307 50.9261 22.9533 51.3954 22.74C51.8754 22.516 52.4194 22.404 53.0274 22.404C53.5714 22.404 54.0301 22.4787 54.4034 22.628C54.7767 22.7667 55.0754 22.9587 55.2994 23.204C55.5341 23.4493 55.6994 23.7373 55.7954 24.068C55.9021 24.3987 55.9554 24.7507 55.9554 25.124V30.5H54.7554V29.156H54.6594C54.4461 29.636 54.1474 30.0147 53.7634 30.292C53.3794 30.5587 52.8834 30.692 52.2754 30.692ZM52.4674 29.604C53.1287 29.604 53.6621 29.412 54.0674 29.028C54.4834 28.6333 54.6914 28.1107 54.6914 27.46V26.772L52.6754 26.916C51.6087 27.0013 51.0754 27.4493 51.0754 28.26C51.0754 28.6653 51.2034 28.9907 51.4594 29.236C51.7261 29.4813 52.0621 29.604 52.4674 29.604ZM61.6834 33.652C61.0007 33.652 60.4087 33.5293 59.9074 33.284C59.4061 33.0493 59.0061 32.756 58.7074 32.404L59.5554 31.588C59.7794 31.8653 60.0674 32.084 60.4194 32.244C60.7821 32.4147 61.1821 32.5 61.6194 32.5C62.3021 32.5 62.8354 32.3347 63.2194 32.004C63.6141 31.6733 63.8114 31.092 63.8114 30.26V28.724H63.7154C63.6301 28.9907 63.5074 29.2307 63.3474 29.444C63.1874 29.6467 62.9954 29.8227 62.7714 29.972C62.5581 30.1107 62.3181 30.2227 62.0514 30.308C61.7954 30.3827 61.5341 30.42 61.2674 30.42C60.7661 30.42 60.3074 30.3293 59.8914 30.148C59.4861 29.9667 59.1287 29.7053 58.8194 29.364C58.5207 29.012 58.2861 28.5853 58.1154 28.084C57.9554 27.5827 57.8754 27.0173 57.8754 26.388C57.8754 25.7693 57.9554 25.2147 58.1154 24.724C58.2861 24.2333 58.5207 23.8173 58.8194 23.476C59.1287 23.1347 59.4861 22.8733 59.8914 22.692C60.3074 22.5 60.7661 22.404 61.2674 22.404C61.8541 22.404 62.3767 22.5587 62.8354 22.868C63.3047 23.1667 63.6194 23.5827 63.7794 24.116H63.8754V22.596H65.0914V30.42C65.0914 31.3907 64.7981 32.1693 64.2114 32.756C63.6354 33.3533 62.7927 33.652 61.6834 33.652ZM61.5234 29.268C62.2274 29.268 62.7821 29.0227 63.1874 28.532C63.6034 28.0413 63.8114 27.332 63.8114 26.404C63.8114 25.4653 63.6034 24.756 63.1874 24.276C62.7821 23.796 62.2274 23.556 61.5234 23.556C60.8087 23.556 60.2381 23.796 59.8114 24.276C59.3954 24.756 59.1874 25.4653 59.1874 26.404C59.1874 27.332 59.3954 28.0413 59.8114 28.532C60.2381 29.0227 60.8087 29.268 61.5234 29.268ZM70.9006 30.692C70.3353 30.692 69.818 30.596 69.3486 30.404C68.89 30.212 68.4953 29.94 68.1646 29.588C67.8446 29.2253 67.594 28.788 67.4126 28.276C67.242 27.764 67.1566 27.188 67.1566 26.548C67.1566 25.876 67.2473 25.284 67.4286 24.772C67.61 24.2493 67.8606 23.8173 68.1806 23.476C68.5006 23.124 68.8793 22.8573 69.3166 22.676C69.7646 22.4947 70.2553 22.404 70.7886 22.404C71.322 22.404 71.8126 22.4893 72.2606 22.66C72.7086 22.8307 73.0926 23.0867 73.4126 23.428C73.7326 23.7587 73.9833 24.18 74.1646 24.692C74.346 25.1933 74.4366 25.78 74.4366 26.452C74.4366 26.5373 74.4313 26.6227 74.4206 26.708C74.4206 26.7933 74.4153 26.8627 74.4046 26.916H68.4366C68.4366 27.2893 68.5006 27.6413 68.6286 27.972C68.7673 28.292 68.9486 28.5747 69.1726 28.82C69.4073 29.0547 69.674 29.2413 69.9726 29.38C70.282 29.5187 70.6126 29.588 70.9646 29.588C71.5406 29.588 72.01 29.476 72.3726 29.252C72.746 29.028 73.0553 28.756 73.3006 28.436L74.0686 29.22C73.7273 29.668 73.3006 30.0253 72.7886 30.292C72.2873 30.5587 71.658 30.692 70.9006 30.692ZM70.7886 23.46C70.4153 23.46 70.0846 23.5293 69.7966 23.668C69.5086 23.8067 69.2686 23.988 69.0766 24.212C68.8846 24.436 68.7353 24.692 68.6286 24.98C68.5326 25.268 68.4793 25.556 68.4686 25.844H73.0926C73.082 25.556 73.0233 25.268 72.9166 24.98C72.8206 24.692 72.6766 24.436 72.4846 24.212C72.2926 23.988 72.0526 23.8067 71.7646 23.668C71.4873 23.5293 71.162 23.46 70.7886 23.46ZM84.1519 28.452C84.1519 28.2173 84.0986 28.0253 83.9919 27.876C83.8852 27.716 83.7359 27.5827 83.5439 27.476C83.3626 27.3693 83.1546 27.2787 82.9199 27.204C82.6852 27.1293 82.4399 27.0547 82.1839 26.98C81.8852 26.8947 81.5972 26.7933 81.3199 26.676C81.0532 26.5587 80.8132 26.4147 80.5999 26.244C80.3866 26.0627 80.2159 25.8493 80.0879 25.604C79.9599 25.3587 79.8959 25.06 79.8959 24.708C79.8959 24.3347 79.9652 24.004 80.1039 23.716C80.2426 23.428 80.4346 23.188 80.6799 22.996C80.9252 22.804 81.2132 22.66 81.5439 22.564C81.8746 22.4573 82.2319 22.404 82.6159 22.404C83.1919 22.404 83.7199 22.5107 84.1999 22.724C84.6799 22.9267 85.0746 23.2467 85.3839 23.684L84.5519 24.452C84.3172 24.1747 84.0399 23.9453 83.7199 23.764C83.4106 23.5827 83.0426 23.492 82.6159 23.492C82.4346 23.492 82.2532 23.5133 82.0719 23.556C81.9012 23.5987 81.7466 23.668 81.6079 23.764C81.4692 23.8493 81.3572 23.9613 81.2719 24.1C81.1866 24.2387 81.1439 24.404 81.1439 24.596C81.1439 24.8307 81.1972 25.028 81.3039 25.188C81.4106 25.3373 81.5546 25.4653 81.7359 25.572C81.9279 25.6787 82.1412 25.7693 82.3759 25.844C82.6106 25.9187 82.8559 25.9933 83.1119 26.068C83.4106 26.1533 83.6932 26.2547 83.9599 26.372C84.2372 26.4893 84.4826 26.6387 84.6959 26.82C84.9092 26.9907 85.0799 27.1987 85.2079 27.444C85.3359 27.6893 85.3999 27.988 85.3999 28.34C85.3999 28.756 85.3199 29.1133 85.1599 29.412C85.0106 29.7 84.8026 29.94 84.5359 30.132C84.2692 30.324 83.9599 30.4627 83.6079 30.548C83.2559 30.644 82.8826 30.692 82.4879 30.692C81.7946 30.692 81.2026 30.5747 80.7119 30.34C80.2319 30.1053 79.8532 29.8013 79.5759 29.428L80.4239 28.628C80.6692 28.916 80.9519 29.1507 81.2719 29.332C81.6026 29.5133 82.0132 29.604 82.5039 29.604C82.7279 29.604 82.9359 29.5827 83.1279 29.54C83.3306 29.4973 83.5066 29.428 83.6559 29.332C83.8052 29.236 83.9226 29.1187 84.0079 28.98C84.1039 28.8307 84.1519 28.6547 84.1519 28.452ZM90.0415 30.692C89.3268 30.692 88.8042 30.4787 88.4735 30.052C88.1428 29.6253 87.9775 29.0387 87.9775 28.292V23.636H86.5695V22.596H87.9775V20.452H89.2415V22.596H91.5295V23.636H89.2415V28.18C89.2415 28.692 89.3375 29.0493 89.5295 29.252C89.7322 29.4547 89.9882 29.556 90.2975 29.556C90.5108 29.556 90.7028 29.5187 90.8735 29.444C91.0442 29.3587 91.2042 29.2467 91.3535 29.108L91.9295 30.004C91.4388 30.4627 90.8095 30.692 90.0415 30.692ZM93.672 22.596H94.888V23.876H94.984C95.1547 23.46 95.4 23.1133 95.72 22.836C96.04 22.548 96.44 22.404 96.92 22.404C97.3253 22.404 97.6827 22.484 97.992 22.644L97.56 23.796C97.4213 23.7213 97.272 23.6733 97.112 23.652C96.9627 23.62 96.808 23.604 96.648 23.604C96.1253 23.604 95.7093 23.8173 95.4 24.244C95.1013 24.66 94.952 25.1933 94.952 25.844V30.5H93.672V22.596ZM101.129 20.5C101.129 20.724 101.049 20.916 100.889 21.076C100.739 21.236 100.537 21.316 100.281 21.316C100.014 21.316 99.8061 21.236 99.6568 21.076C99.5074 20.916 99.4328 20.724 99.4328 20.5C99.4328 20.2867 99.5074 20.1 99.6568 19.94C99.8061 19.7693 100.014 19.684 100.281 19.684C100.537 19.684 100.739 19.7693 100.889 19.94C101.049 20.1 101.129 20.2867 101.129 20.5ZM99.6408 22.596H100.921V30.5H99.6408V22.596ZM103.641 22.596H104.857V23.844H104.953C105.145 23.428 105.417 23.0867 105.769 22.82C106.121 22.5427 106.569 22.404 107.113 22.404C108.019 22.404 108.734 22.644 109.257 23.124C109.79 23.604 110.057 24.3773 110.057 25.444V30.5H108.777V25.684C108.777 24.8733 108.611 24.3027 108.281 23.972C107.961 23.6307 107.486 23.46 106.857 23.46C106.249 23.46 105.774 23.668 105.433 24.084C105.091 24.5 104.921 25.108 104.921 25.908V30.5H103.641V22.596ZM115.777 33.652C115.094 33.652 114.502 33.5293 114.001 33.284C113.5 33.0493 113.1 32.756 112.801 32.404L113.649 31.588C113.873 31.8653 114.161 32.084 114.513 32.244C114.876 32.4147 115.276 32.5 115.713 32.5C116.396 32.5 116.929 32.3347 117.313 32.004C117.708 31.6733 117.905 31.092 117.905 30.26V28.724H117.809C117.724 28.9907 117.601 29.2307 117.441 29.444C117.281 29.6467 117.089 29.8227 116.865 29.972C116.652 30.1107 116.412 30.2227 116.145 30.308C115.889 30.3827 115.628 30.42 115.361 30.42C114.86 30.42 114.401 30.3293 113.985 30.148C113.58 29.9667 113.222 29.7053 112.913 29.364C112.614 29.012 112.38 28.5853 112.209 28.084C112.049 27.5827 111.969 27.0173 111.969 26.388C111.969 25.7693 112.049 25.2147 112.209 24.724C112.38 24.2333 112.614 23.8173 112.913 23.476C113.222 23.1347 113.58 22.8733 113.985 22.692C114.401 22.5 114.86 22.404 115.361 22.404C115.948 22.404 116.47 22.5587 116.929 22.868C117.398 23.1667 117.713 23.5827 117.873 24.116H117.969V22.596H119.185V30.42C119.185 31.3907 118.892 32.1693 118.305 32.756C117.729 33.3533 116.886 33.652 115.777 33.652ZM115.617 29.268C116.321 29.268 116.876 29.0227 117.281 28.532C117.697 28.0413 117.905 27.332 117.905 26.404C117.905 25.4653 117.697 24.756 117.281 24.276C116.876 23.796 116.321 23.556 115.617 23.556C114.902 23.556 114.332 23.796 113.905 24.276C113.489 24.756 113.281 25.4653 113.281 26.404C113.281 27.332 113.489 28.0413 113.905 28.532C114.332 29.0227 114.902 29.268 115.617 29.268Z" fill="#242E30"/>
<path d="M157.5 12.6137C157.5 6.26667 162.643 1.1197 168.99 1.11373L277.99 1.01129C284.345 1.00532 289.5 6.15579 289.5 12.5113V36.5C289.5 42.8513 284.352 48 278 48H219.5H175.15C172.349 48 169.629 48.9406 167.427 50.671L159.927 56.5643C158.942 57.3376 157.5 56.6364 157.5 55.3847L157.5 48.5V12.6137Z" fill="white" stroke="#575655"/>
<path d="M170.472 20.1H172.296L175.864 28.964H175.96L179.528 20.1H181.384V30.5H180.104V21.908H180.008L176.584 30.5H175.24L171.816 21.908H171.72V30.5H170.472V20.1ZM187.308 30.692C186.743 30.692 186.225 30.596 185.756 30.404C185.297 30.212 184.903 29.94 184.572 29.588C184.252 29.2253 184.001 28.788 183.82 28.276C183.649 27.764 183.564 27.188 183.564 26.548C183.564 25.876 183.655 25.284 183.836 24.772C184.017 24.2493 184.268 23.8173 184.588 23.476C184.908 23.124 185.287 22.8573 185.724 22.676C186.172 22.4947 186.663 22.404 187.196 22.404C187.729 22.404 188.22 22.4893 188.668 22.66C189.116 22.8307 189.5 23.0867 189.82 23.428C190.14 23.7587 190.391 24.18 190.572 24.692C190.753 25.1933 190.844 25.78 190.844 26.452C190.844 26.5373 190.839 26.6227 190.828 26.708C190.828 26.7933 190.823 26.8627 190.812 26.916H184.844C184.844 27.2893 184.908 27.6413 185.036 27.972C185.175 28.292 185.356 28.5747 185.58 28.82C185.815 29.0547 186.081 29.2413 186.38 29.38C186.689 29.5187 187.02 29.588 187.372 29.588C187.948 29.588 188.417 29.476 188.78 29.252C189.153 29.028 189.463 28.756 189.708 28.436L190.476 29.22C190.135 29.668 189.708 30.0253 189.196 30.292C188.695 30.5587 188.065 30.692 187.308 30.692ZM187.196 23.46C186.823 23.46 186.492 23.5293 186.204 23.668C185.916 23.8067 185.676 23.988 185.484 24.212C185.292 24.436 185.143 24.692 185.036 24.98C184.94 25.268 184.887 25.556 184.876 25.844H189.5C189.489 25.556 189.431 25.268 189.324 24.98C189.228 24.692 189.084 24.436 188.892 24.212C188.7 23.988 188.46 23.8067 188.172 23.668C187.895 23.5293 187.569 23.46 187.196 23.46ZM196.715 28.452C196.715 28.2173 196.662 28.0253 196.555 27.876C196.449 27.716 196.299 27.5827 196.107 27.476C195.926 27.3693 195.718 27.2787 195.483 27.204C195.249 27.1293 195.003 27.0547 194.747 26.98C194.449 26.8947 194.161 26.7933 193.883 26.676C193.617 26.5587 193.377 26.4147 193.163 26.244C192.95 26.0627 192.779 25.8493 192.651 25.604C192.523 25.3587 192.459 25.06 192.459 24.708C192.459 24.3347 192.529 24.004 192.667 23.716C192.806 23.428 192.998 23.188 193.243 22.996C193.489 22.804 193.777 22.66 194.107 22.564C194.438 22.4573 194.795 22.404 195.179 22.404C195.755 22.404 196.283 22.5107 196.763 22.724C197.243 22.9267 197.638 23.2467 197.947 23.684L197.115 24.452C196.881 24.1747 196.603 23.9453 196.283 23.764C195.974 23.5827 195.606 23.492 195.179 23.492C194.998 23.492 194.817 23.5133 194.635 23.556C194.465 23.5987 194.31 23.668 194.171 23.764C194.033 23.8493 193.921 23.9613 193.835 24.1C193.75 24.2387 193.707 24.404 193.707 24.596C193.707 24.8307 193.761 25.028 193.867 25.188C193.974 25.3373 194.118 25.4653 194.299 25.572C194.491 25.6787 194.705 25.7693 194.939 25.844C195.174 25.9187 195.419 25.9933 195.675 26.068C195.974 26.1533 196.257 26.2547 196.523 26.372C196.801 26.4893 197.046 26.6387 197.259 26.82C197.473 26.9907 197.643 27.1987 197.771 27.444C197.899 27.6893 197.963 27.988 197.963 28.34C197.963 28.756 197.883 29.1133 197.723 29.412C197.574 29.7 197.366 29.94 197.099 30.132C196.833 30.324 196.523 30.4627 196.171 30.548C195.819 30.644 195.446 30.692 195.051 30.692C194.358 30.692 193.766 30.5747 193.275 30.34C192.795 30.1053 192.417 29.8013 192.139 29.428L192.987 28.628C193.233 28.916 193.515 29.1507 193.835 29.332C194.166 29.5133 194.577 29.604 195.067 29.604C195.291 29.604 195.499 29.5827 195.691 29.54C195.894 29.4973 196.07 29.428 196.219 29.332C196.369 29.236 196.486 29.1187 196.571 28.98C196.667 28.8307 196.715 28.6547 196.715 28.452ZM203.981 28.452C203.981 28.2173 203.928 28.0253 203.821 27.876C203.714 27.716 203.565 27.5827 203.373 27.476C203.192 27.3693 202.984 27.2787 202.749 27.204C202.514 27.1293 202.269 27.0547 202.013 26.98C201.714 26.8947 201.426 26.7933 201.149 26.676C200.882 26.5587 200.642 26.4147 200.429 26.244C200.216 26.0627 200.045 25.8493 199.917 25.604C199.789 25.3587 199.725 25.06 199.725 24.708C199.725 24.3347 199.794 24.004 199.933 23.716C200.072 23.428 200.264 23.188 200.509 22.996C200.754 22.804 201.042 22.66 201.373 22.564C201.704 22.4573 202.061 22.404 202.445 22.404C203.021 22.404 203.549 22.5107 204.029 22.724C204.509 22.9267 204.904 23.2467 205.213 23.684L204.381 24.452C204.146 24.1747 203.869 23.9453 203.549 23.764C203.24 23.5827 202.872 23.492 202.445 23.492C202.264 23.492 202.082 23.5133 201.901 23.556C201.73 23.5987 201.576 23.668 201.437 23.764C201.298 23.8493 201.186 23.9613 201.101 24.1C201.016 24.2387 200.973 24.404 200.973 24.596C200.973 24.8307 201.026 25.028 201.133 25.188C201.24 25.3373 201.384 25.4653 201.565 25.572C201.757 25.6787 201.97 25.7693 202.205 25.844C202.44 25.9187 202.685 25.9933 202.941 26.068C203.24 26.1533 203.522 26.2547 203.789 26.372C204.066 26.4893 204.312 26.6387 204.525 26.82C204.738 26.9907 204.909 27.1987 205.037 27.444C205.165 27.6893 205.229 27.988 205.229 28.34C205.229 28.756 205.149 29.1133 204.989 29.412C204.84 29.7 204.632 29.94 204.365 30.132C204.098 30.324 203.789 30.4627 203.437 30.548C203.085 30.644 202.712 30.692 202.317 30.692C201.624 30.692 201.032 30.5747 200.541 30.34C200.061 30.1053 199.682 29.8013 199.405 29.428L200.253 28.628C200.498 28.916 200.781 29.1507 201.101 29.332C201.432 29.5133 201.842 29.604 202.333 29.604C202.557 29.604 202.765 29.5827 202.957 29.54C203.16 29.4973 203.336 29.428 203.485 29.332C203.634 29.236 203.752 29.1187 203.837 28.98C203.933 28.8307 203.981 28.6547 203.981 28.452ZM209.276 30.692C208.914 30.692 208.578 30.6333 208.268 30.516C207.97 30.3987 207.708 30.2333 207.484 30.02C207.26 29.8067 207.084 29.556 206.956 29.268C206.839 28.9693 206.78 28.644 206.78 28.292C206.78 27.6093 207.026 27.06 207.516 26.644C208.007 26.228 208.706 25.9933 209.612 25.94L211.692 25.812V25.252C211.692 24.644 211.543 24.2067 211.244 23.94C210.956 23.6627 210.54 23.524 209.996 23.524C209.538 23.524 209.143 23.6093 208.812 23.78C208.482 23.9507 208.226 24.1373 208.044 24.34L207.276 23.572C207.554 23.2307 207.927 22.9533 208.396 22.74C208.876 22.516 209.42 22.404 210.028 22.404C210.572 22.404 211.031 22.4787 211.404 22.628C211.778 22.7667 212.076 22.9587 212.3 23.204C212.535 23.4493 212.7 23.7373 212.796 24.068C212.903 24.3987 212.956 24.7507 212.956 25.124V30.5H211.756V29.156H211.66C211.447 29.636 211.148 30.0147 210.764 30.292C210.38 30.5587 209.884 30.692 209.276 30.692ZM209.468 29.604C210.13 29.604 210.663 29.412 211.068 29.028C211.484 28.6333 211.692 28.1107 211.692 27.46V26.772L209.676 26.916C208.61 27.0013 208.076 27.4493 208.076 28.26C208.076 28.6653 208.204 28.9907 208.46 29.236C208.727 29.4813 209.063 29.604 209.468 29.604ZM218.684 33.652C218.002 33.652 217.41 33.5293 216.908 33.284C216.407 33.0493 216.007 32.756 215.708 32.404L216.556 31.588C216.78 31.8653 217.068 32.084 217.42 32.244C217.783 32.4147 218.183 32.5 218.62 32.5C219.303 32.5 219.836 32.3347 220.22 32.004C220.615 31.6733 220.812 31.092 220.812 30.26V28.724H220.716C220.631 28.9907 220.508 29.2307 220.348 29.444C220.188 29.6467 219.996 29.8227 219.772 29.972C219.559 30.1107 219.319 30.2227 219.052 30.308C218.796 30.3827 218.535 30.42 218.268 30.42C217.767 30.42 217.308 30.3293 216.892 30.148C216.487 29.9667 216.13 29.7053 215.82 29.364C215.522 29.012 215.287 28.5853 215.116 28.084C214.956 27.5827 214.876 27.0173 214.876 26.388C214.876 25.7693 214.956 25.2147 215.116 24.724C215.287 24.2333 215.522 23.8173 215.82 23.476C216.13 23.1347 216.487 22.8733 216.892 22.692C217.308 22.5 217.767 22.404 218.268 22.404C218.855 22.404 219.378 22.5587 219.836 22.868C220.306 23.1667 220.62 23.5827 220.78 24.116H220.876V22.596H222.092V30.42C222.092 31.3907 221.799 32.1693 221.212 32.756C220.636 33.3533 219.794 33.652 218.684 33.652ZM218.524 29.268C219.228 29.268 219.783 29.0227 220.188 28.532C220.604 28.0413 220.812 27.332 220.812 26.404C220.812 25.4653 220.604 24.756 220.188 24.276C219.783 23.796 219.228 23.556 218.524 23.556C217.81 23.556 217.239 23.796 216.812 24.276C216.396 24.756 216.188 25.4653 216.188 26.404C216.188 27.332 216.396 28.0413 216.812 28.532C217.239 29.0227 217.81 29.268 218.524 29.268ZM227.902 30.692C227.336 30.692 226.819 30.596 226.35 30.404C225.891 30.212 225.496 29.94 225.166 29.588C224.846 29.2253 224.595 28.788 224.414 28.276C224.243 27.764 224.158 27.188 224.158 26.548C224.158 25.876 224.248 25.284 224.43 24.772C224.611 24.2493 224.862 23.8173 225.182 23.476C225.502 23.124 225.88 22.8573 226.318 22.676C226.766 22.4947 227.256 22.404 227.79 22.404C228.323 22.404 228.814 22.4893 229.262 22.66C229.71 22.8307 230.094 23.0867 230.414 23.428C230.734 23.7587 230.984 24.18 231.166 24.692C231.347 25.1933 231.438 25.78 231.438 26.452C231.438 26.5373 231.432 26.6227 231.422 26.708C231.422 26.7933 231.416 26.8627 231.406 26.916H225.438C225.438 27.2893 225.502 27.6413 225.63 27.972C225.768 28.292 225.95 28.5747 226.174 28.82C226.408 29.0547 226.675 29.2413 226.974 29.38C227.283 29.5187 227.614 29.588 227.966 29.588C228.542 29.588 229.011 29.476 229.374 29.252C229.747 29.028 230.056 28.756 230.302 28.436L231.07 29.22C230.728 29.668 230.302 30.0253 229.79 30.292C229.288 30.5587 228.659 30.692 227.902 30.692ZM227.79 23.46C227.416 23.46 227.086 23.5293 226.798 23.668C226.51 23.8067 226.27 23.988 226.078 24.212C225.886 24.436 225.736 24.692 225.63 24.98C225.534 25.268 225.48 25.556 225.47 25.844H230.094C230.083 25.556 230.024 25.268 229.918 24.98C229.822 24.692 229.678 24.436 229.486 24.212C229.294 23.988 229.054 23.8067 228.766 23.668C228.488 23.5293 228.163 23.46 227.79 23.46ZM241.153 28.452C241.153 28.2173 241.1 28.0253 240.993 27.876C240.886 27.716 240.737 27.5827 240.545 27.476C240.364 27.3693 240.156 27.2787 239.921 27.204C239.686 27.1293 239.441 27.0547 239.185 26.98C238.886 26.8947 238.598 26.7933 238.321 26.676C238.054 26.5587 237.814 26.4147 237.601 26.244C237.388 26.0627 237.217 25.8493 237.089 25.604C236.961 25.3587 236.897 25.06 236.897 24.708C236.897 24.3347 236.966 24.004 237.105 23.716C237.244 23.428 237.436 23.188 237.681 22.996C237.926 22.804 238.214 22.66 238.545 22.564C238.876 22.4573 239.233 22.404 239.617 22.404C240.193 22.404 240.721 22.5107 241.201 22.724C241.681 22.9267 242.076 23.2467 242.385 23.684L241.553 24.452C241.318 24.1747 241.041 23.9453 240.721 23.764C240.412 23.5827 240.044 23.492 239.617 23.492C239.436 23.492 239.254 23.5133 239.073 23.556C238.902 23.5987 238.748 23.668 238.609 23.764C238.47 23.8493 238.358 23.9613 238.273 24.1C238.188 24.2387 238.145 24.404 238.145 24.596C238.145 24.8307 238.198 25.028 238.305 25.188C238.412 25.3373 238.556 25.4653 238.737 25.572C238.929 25.6787 239.142 25.7693 239.377 25.844C239.612 25.9187 239.857 25.9933 240.113 26.068C240.412 26.1533 240.694 26.2547 240.961 26.372C241.238 26.4893 241.484 26.6387 241.697 26.82C241.91 26.9907 242.081 27.1987 242.209 27.444C242.337 27.6893 242.401 27.988 242.401 28.34C242.401 28.756 242.321 29.1133 242.161 29.412C242.012 29.7 241.804 29.94 241.537 30.132C241.27 30.324 240.961 30.4627 240.609 30.548C240.257 30.644 239.884 30.692 239.489 30.692C238.796 30.692 238.204 30.5747 237.713 30.34C237.233 30.1053 236.854 29.8013 236.577 29.428L237.425 28.628C237.67 28.916 237.953 29.1507 238.273 29.332C238.604 29.5133 239.014 29.604 239.505 29.604C239.729 29.604 239.937 29.5827 240.129 29.54C240.332 29.4973 240.508 29.428 240.657 29.332C240.806 29.236 240.924 29.1187 241.009 28.98C241.105 28.8307 241.153 28.6547 241.153 28.452ZM247.042 30.692C246.328 30.692 245.805 30.4787 245.474 30.052C245.144 29.6253 244.978 29.0387 244.978 28.292V23.636H243.57V22.596H244.978V20.452H246.242V22.596H248.53V23.636H246.242V28.18C246.242 28.692 246.338 29.0493 246.53 29.252C246.733 29.4547 246.989 29.556 247.298 29.556C247.512 29.556 247.704 29.5187 247.874 29.444C248.045 29.3587 248.205 29.2467 248.354 29.108L248.93 30.004C248.44 30.4627 247.81 30.692 247.042 30.692ZM250.673 22.596H251.889V23.876H251.985C252.156 23.46 252.401 23.1133 252.721 22.836C253.041 22.548 253.441 22.404 253.921 22.404C254.326 22.404 254.684 22.484 254.993 22.644L254.561 23.796C254.422 23.7213 254.273 23.6733 254.113 23.652C253.964 23.62 253.809 23.604 253.649 23.604C253.126 23.604 252.71 23.8173 252.401 24.244C252.102 24.66 251.953 25.1933 251.953 25.844V30.5H250.673V22.596ZM258.13 20.5C258.13 20.724 258.05 20.916 257.89 21.076C257.74 21.236 257.538 21.316 257.282 21.316C257.015 21.316 256.807 21.236 256.658 21.076C256.508 20.916 256.434 20.724 256.434 20.5C256.434 20.2867 256.508 20.1 256.658 19.94C256.807 19.7693 257.015 19.684 257.282 19.684C257.538 19.684 257.74 19.7693 257.89 19.94C258.05 20.1 258.13 20.2867 258.13 20.5ZM256.642 22.596H257.922V30.5H256.642V22.596ZM260.642 22.596H261.858V23.844H261.954C262.146 23.428 262.418 23.0867 262.77 22.82C263.122 22.5427 263.57 22.404 264.114 22.404C265.02 22.404 265.735 22.644 266.258 23.124C266.791 23.604 267.058 24.3773 267.058 25.444V30.5H265.778V25.684C265.778 24.8733 265.612 24.3027 265.282 23.972C264.962 23.6307 264.487 23.46 263.858 23.46C263.25 23.46 262.775 23.668 262.434 24.084C262.092 24.5 261.922 25.108 261.922 25.908V30.5H260.642V22.596ZM272.778 33.652C272.095 33.652 271.503 33.5293 271.002 33.284C270.501 33.0493 270.101 32.756 269.802 32.404L270.65 31.588C270.874 31.8653 271.162 32.084 271.514 32.244C271.877 32.4147 272.277 32.5 272.714 32.5C273.397 32.5 273.93 32.3347 274.314 32.004C274.709 31.6733 274.906 31.092 274.906 30.26V28.724H274.81C274.725 28.9907 274.602 29.2307 274.442 29.444C274.282 29.6467 274.09 29.8227 273.866 29.972C273.653 30.1107 273.413 30.2227 273.146 30.308C272.89 30.3827 272.629 30.42 272.362 30.42C271.861 30.42 271.402 30.3293 270.986 30.148C270.581 29.9667 270.223 29.7053 269.914 29.364C269.615 29.012 269.381 28.5853 269.21 28.084C269.05 27.5827 268.97 27.0173 268.97 26.388C268.97 25.7693 269.05 25.2147 269.21 24.724C269.381 24.2333 269.615 23.8173 269.914 23.476C270.223 23.1347 270.581 22.8733 270.986 22.692C271.402 22.5 271.861 22.404 272.362 22.404C272.949 22.404 273.471 22.5587 273.93 22.868C274.399 23.1667 274.714 23.5827 274.874 24.116H274.97V22.596H276.186V30.42C276.186 31.3907 275.893 32.1693 275.306 32.756C274.73 33.3533 273.887 33.652 272.778 33.652ZM272.618 29.268C273.322 29.268 273.877 29.0227 274.282 28.532C274.698 28.0413 274.906 27.332 274.906 26.404C274.906 25.4653 274.698 24.756 274.282 24.276C273.877 23.796 273.322 23.556 272.618 23.556C271.903 23.556 271.333 23.796 270.906 24.276C270.49 24.756 270.282 25.4653 270.282 26.404C270.282 27.332 270.49 28.0413 270.906 28.532C271.333 29.0227 271.903 29.268 272.618 29.268Z" fill="#242E30"/>
</svg>
