<svg width="134" height="72" viewBox="0 0 134 72" fill="none" xmlns="http://www.w3.org/2000/svg">
<path d="M0.5 12C0.5 5.37258 5.87258 0 12.5 0H121.5C128.127 0 133.5 5.37258 133.5 12V36C133.5 42.6274 128.127 48 121.5 48H2.5C1.39543 48 0.5 47.1046 0.5 46V12Z" fill="#EFEDEA"/>
<path d="M13.972 19.6H15.796L19.364 28.464H19.46L23.028 19.6H24.884V30H23.604V21.408H23.508L20.084 30H18.74L15.316 21.408H15.22V30H13.972V19.6ZM30.8074 30.192C30.242 30.192 29.7247 30.096 29.2554 29.904C28.7967 29.712 28.402 29.44 28.0714 29.088C27.7514 28.7253 27.5007 28.288 27.3194 27.776C27.1487 27.264 27.0634 26.688 27.0634 26.048C27.0634 25.376 27.154 24.784 27.3354 24.272C27.5167 23.7493 27.7674 23.3173 28.0874 22.976C28.4074 22.624 28.786 22.3573 29.2234 22.176C29.6714 21.9947 30.162 21.904 30.6954 21.904C31.2287 21.904 31.7194 21.9893 32.1674 22.16C32.6154 22.3307 32.9994 22.5867 33.3194 22.928C33.6394 23.2587 33.89 23.68 34.0714 24.192C34.2527 24.6933 34.3434 25.28 34.3434 25.952C34.3434 26.0373 34.338 26.1227 34.3274 26.208C34.3274 26.2933 34.322 26.3627 34.3114 26.416H28.3434C28.3434 26.7893 28.4074 27.1413 28.5354 27.472C28.674 27.792 28.8554 28.0747 29.0794 28.32C29.314 28.5547 29.5807 28.7413 29.8794 28.88C30.1887 29.0187 30.5194 29.088 30.8714 29.088C31.4474 29.088 31.9167 28.976 32.2794 28.752C32.6527 28.528 32.962 28.256 33.2074 27.936L33.9754 28.72C33.634 29.168 33.2074 29.5253 32.6954 29.792C32.194 30.0587 31.5647 30.192 30.8074 30.192ZM30.6954 22.96C30.322 22.96 29.9914 23.0293 29.7034 23.168C29.4154 23.3067 29.1754 23.488 28.9834 23.712C28.7914 23.936 28.642 24.192 28.5354 24.48C28.4394 24.768 28.386 25.056 28.3754 25.344H32.9994C32.9887 25.056 32.93 24.768 32.8234 24.48C32.7274 24.192 32.5834 23.936 32.3914 23.712C32.1994 23.488 31.9594 23.3067 31.6714 23.168C31.394 23.0293 31.0687 22.96 30.6954 22.96ZM40.2149 27.952C40.2149 27.7173 40.1615 27.5253 40.0549 27.376C39.9482 27.216 39.7989 27.0827 39.6069 26.976C39.4255 26.8693 39.2175 26.7787 38.9829 26.704C38.7482 26.6293 38.5029 26.5547 38.2469 26.48C37.9482 26.3947 37.6602 26.2933 37.3829 26.176C37.1162 26.0587 36.8762 25.9147 36.6629 25.744C36.4495 25.5627 36.2789 25.3493 36.1509 25.104C36.0229 24.8587 35.9589 24.56 35.9589 24.208C35.9589 23.8347 36.0282 23.504 36.1669 23.216C36.3055 22.928 36.4975 22.688 36.7429 22.496C36.9882 22.304 37.2762 22.16 37.6069 22.064C37.9375 21.9573 38.2949 21.904 38.6789 21.904C39.2549 21.904 39.7829 22.0107 40.2629 22.224C40.7429 22.4267 41.1375 22.7467 41.4469 23.184L40.6149 23.952C40.3802 23.6747 40.1029 23.4453 39.7829 23.264C39.4735 23.0827 39.1055 22.992 38.6789 22.992C38.4975 22.992 38.3162 23.0133 38.1349 23.056C37.9642 23.0987 37.8095 23.168 37.6709 23.264C37.5322 23.3493 37.4202 23.4613 37.3349 23.6C37.2495 23.7387 37.2069 23.904 37.2069 24.096C37.2069 24.3307 37.2602 24.528 37.3669 24.688C37.4735 24.8373 37.6175 24.9653 37.7989 25.072C37.9909 25.1787 38.2042 25.2693 38.4389 25.344C38.6735 25.4187 38.9189 25.4933 39.1749 25.568C39.4735 25.6533 39.7562 25.7547 40.0229 25.872C40.3002 25.9893 40.5455 26.1387 40.7589 26.32C40.9722 26.4907 41.1429 26.6987 41.2709 26.944C41.3989 27.1893 41.4629 27.488 41.4629 27.84C41.4629 28.256 41.3829 28.6133 41.2229 28.912C41.0735 29.2 40.8655 29.44 40.5989 29.632C40.3322 29.824 40.0229 29.9627 39.6709 30.048C39.3189 30.144 38.9455 30.192 38.5509 30.192C37.8575 30.192 37.2655 30.0747 36.7749 29.84C36.2949 29.6053 35.9162 29.3013 35.6389 28.928L36.4869 28.128C36.7322 28.416 37.0149 28.6507 37.3349 28.832C37.6655 29.0133 38.0762 29.104 38.5669 29.104C38.7909 29.104 38.9989 29.0827 39.1909 29.04C39.3935 28.9973 39.5695 28.928 39.7189 28.832C39.8682 28.736 39.9855 28.6187 40.0709 28.48C40.1669 28.3307 40.2149 28.1547 40.2149 27.952ZM47.4805 27.952C47.4805 27.7173 47.4272 27.5253 47.3205 27.376C47.2138 27.216 47.0645 27.0827 46.8725 26.976C46.6912 26.8693 46.4832 26.7787 46.2485 26.704C46.0138 26.6293 45.7685 26.5547 45.5125 26.48C45.2138 26.3947 44.9258 26.2933 44.6485 26.176C44.3818 26.0587 44.1418 25.9147 43.9285 25.744C43.7152 25.5627 43.5445 25.3493 43.4165 25.104C43.2885 24.8587 43.2245 24.56 43.2245 24.208C43.2245 23.8347 43.2938 23.504 43.4325 23.216C43.5712 22.928 43.7632 22.688 44.0085 22.496C44.2538 22.304 44.5418 22.16 44.8725 22.064C45.2032 21.9573 45.5605 21.904 45.9445 21.904C46.5205 21.904 47.0485 22.0107 47.5285 22.224C48.0085 22.4267 48.4032 22.7467 48.7125 23.184L47.8805 23.952C47.6458 23.6747 47.3685 23.4453 47.0485 23.264C46.7392 23.0827 46.3712 22.992 45.9445 22.992C45.7632 22.992 45.5818 23.0133 45.4005 23.056C45.2298 23.0987 45.0752 23.168 44.9365 23.264C44.7978 23.3493 44.6858 23.4613 44.6005 23.6C44.5152 23.7387 44.4725 23.904 44.4725 24.096C44.4725 24.3307 44.5258 24.528 44.6325 24.688C44.7392 24.8373 44.8832 24.9653 45.0645 25.072C45.2565 25.1787 45.4698 25.2693 45.7045 25.344C45.9392 25.4187 46.1845 25.4933 46.4405 25.568C46.7392 25.6533 47.0218 25.7547 47.2885 25.872C47.5658 25.9893 47.8112 26.1387 48.0245 26.32C48.2378 26.4907 48.4085 26.6987 48.5365 26.944C48.6645 27.1893 48.7285 27.488 48.7285 27.84C48.7285 28.256 48.6485 28.6133 48.4885 28.912C48.3392 29.2 48.1312 29.44 47.8645 29.632C47.5978 29.824 47.2885 29.9627 46.9365 30.048C46.5845 30.144 46.2112 30.192 45.8165 30.192C45.1232 30.192 44.5312 30.0747 44.0405 29.84C43.5605 29.6053 43.1818 29.3013 42.9045 28.928L43.7525 28.128C43.9978 28.416 44.2805 28.6507 44.6005 28.832C44.9312 29.0133 45.3418 29.104 45.8325 29.104C46.0565 29.104 46.2645 29.0827 46.4565 29.04C46.6592 28.9973 46.8352 28.928 46.9845 28.832C47.1338 28.736 47.2512 28.6187 47.3365 28.48C47.4325 28.3307 47.4805 28.1547 47.4805 27.952ZM52.7759 30.192C52.4132 30.192 52.0772 30.1333 51.7679 30.016C51.4692 29.8987 51.2079 29.7333 50.9839 29.52C50.7599 29.3067 50.5839 29.056 50.4559 28.768C50.3385 28.4693 50.2799 28.144 50.2799 27.792C50.2799 27.1093 50.5252 26.56 51.0159 26.144C51.5065 25.728 52.2052 25.4933 53.1119 25.44L55.1919 25.312V24.752C55.1919 24.144 55.0425 23.7067 54.7439 23.44C54.4559 23.1627 54.0399 23.024 53.4959 23.024C53.0372 23.024 52.6425 23.1093 52.3119 23.28C51.9812 23.4507 51.7252 23.6373 51.5439 23.84L50.7759 23.072C51.0532 22.7307 51.4265 22.4533 51.8959 22.24C52.3759 22.016 52.9199 21.904 53.5279 21.904C54.0719 21.904 54.5305 21.9787 54.9039 22.128C55.2772 22.2667 55.5759 22.4587 55.7999 22.704C56.0345 22.9493 56.1999 23.2373 56.2959 23.568C56.4025 23.8987 56.4559 24.2507 56.4559 24.624V30H55.2559V28.656H55.1599C54.9465 29.136 54.6479 29.5147 54.2639 29.792C53.8799 30.0587 53.3839 30.192 52.7759 30.192ZM52.9679 29.104C53.6292 29.104 54.1625 28.912 54.5679 28.528C54.9839 28.1333 55.1919 27.6107 55.1919 26.96V26.272L53.1759 26.416C52.1092 26.5013 51.5759 26.9493 51.5759 27.76C51.5759 28.1653 51.7039 28.4907 51.9599 28.736C52.2265 28.9813 52.5625 29.104 52.9679 29.104ZM62.1839 33.152C61.5012 33.152 60.9092 33.0293 60.4079 32.784C59.9065 32.5493 59.5065 32.256 59.2079 31.904L60.0559 31.088C60.2799 31.3653 60.5679 31.584 60.9199 31.744C61.2825 31.9147 61.6825 32 62.1199 32C62.8025 32 63.3359 31.8347 63.7199 31.504C64.1145 31.1733 64.3119 30.592 64.3119 29.76V28.224H64.2159C64.1305 28.4907 64.0079 28.7307 63.8479 28.944C63.6879 29.1467 63.4959 29.3227 63.2719 29.472C63.0585 29.6107 62.8185 29.7227 62.5519 29.808C62.2959 29.8827 62.0345 29.92 61.7679 29.92C61.2665 29.92 60.8079 29.8293 60.3919 29.648C59.9865 29.4667 59.6292 29.2053 59.3199 28.864C59.0212 28.512 58.7865 28.0853 58.6159 27.584C58.4559 27.0827 58.3759 26.5173 58.3759 25.888C58.3759 25.2693 58.4559 24.7147 58.6159 24.224C58.7865 23.7333 59.0212 23.3173 59.3199 22.976C59.6292 22.6347 59.9865 22.3733 60.3919 22.192C60.8079 22 61.2665 21.904 61.7679 21.904C62.3545 21.904 62.8772 22.0587 63.3359 22.368C63.8052 22.6667 64.1199 23.0827 64.2799 23.616H64.3759V22.096H65.5919V29.92C65.5919 30.8907 65.2985 31.6693 64.7119 32.256C64.1359 32.8533 63.2932 33.152 62.1839 33.152ZM62.0239 28.768C62.7279 28.768 63.2825 28.5227 63.6879 28.032C64.1039 27.5413 64.3119 26.832 64.3119 25.904C64.3119 24.9653 64.1039 24.256 63.6879 23.776C63.2825 23.296 62.7279 23.056 62.0239 23.056C61.3092 23.056 60.7385 23.296 60.3119 23.776C59.8959 24.256 59.6879 24.9653 59.6879 25.904C59.6879 26.832 59.8959 27.5413 60.3119 28.032C60.7385 28.5227 61.3092 28.768 62.0239 28.768ZM71.4011 30.192C70.8358 30.192 70.3185 30.096 69.8491 29.904C69.3905 29.712 68.9958 29.44 68.6651 29.088C68.3451 28.7253 68.0945 28.288 67.9131 27.776C67.7425 27.264 67.6571 26.688 67.6571 26.048C67.6571 25.376 67.7478 24.784 67.9291 24.272C68.1105 23.7493 68.3611 23.3173 68.6811 22.976C69.0011 22.624 69.3798 22.3573 69.8171 22.176C70.2651 21.9947 70.7558 21.904 71.2891 21.904C71.8225 21.904 72.3131 21.9893 72.7611 22.16C73.2091 22.3307 73.5931 22.5867 73.9131 22.928C74.2331 23.2587 74.4838 23.68 74.6651 24.192C74.8465 24.6933 74.9371 25.28 74.9371 25.952C74.9371 26.0373 74.9318 26.1227 74.9211 26.208C74.9211 26.2933 74.9158 26.3627 74.9051 26.416H68.9371C68.9371 26.7893 69.0011 27.1413 69.1291 27.472C69.2678 27.792 69.4491 28.0747 69.6731 28.32C69.9078 28.5547 70.1745 28.7413 70.4731 28.88C70.7825 29.0187 71.1131 29.088 71.4651 29.088C72.0411 29.088 72.5105 28.976 72.8731 28.752C73.2465 28.528 73.5558 28.256 73.8011 27.936L74.5691 28.72C74.2278 29.168 73.8011 29.5253 73.2891 29.792C72.7878 30.0587 72.1585 30.192 71.4011 30.192ZM71.2891 22.96C70.9158 22.96 70.5851 23.0293 70.2971 23.168C70.0091 23.3067 69.7691 23.488 69.5771 23.712C69.3851 23.936 69.2358 24.192 69.1291 24.48C69.0331 24.768 68.9798 25.056 68.9691 25.344H73.5931C73.5825 25.056 73.5238 24.768 73.4171 24.48C73.3211 24.192 73.1771 23.936 72.9851 23.712C72.7931 23.488 72.5531 23.3067 72.2651 23.168C71.9878 23.0293 71.6625 22.96 71.2891 22.96ZM84.6524 27.952C84.6524 27.7173 84.599 27.5253 84.4924 27.376C84.3857 27.216 84.2364 27.0827 84.0444 26.976C83.863 26.8693 83.655 26.7787 83.4204 26.704C83.1857 26.6293 82.9404 26.5547 82.6844 26.48C82.3857 26.3947 82.0977 26.2933 81.8204 26.176C81.5537 26.0587 81.3137 25.9147 81.1004 25.744C80.887 25.5627 80.7164 25.3493 80.5884 25.104C80.4604 24.8587 80.3964 24.56 80.3964 24.208C80.3964 23.8347 80.4657 23.504 80.6044 23.216C80.743 22.928 80.935 22.688 81.1804 22.496C81.4257 22.304 81.7137 22.16 82.0444 22.064C82.375 21.9573 82.7324 21.904 83.1164 21.904C83.6924 21.904 84.2204 22.0107 84.7004 22.224C85.1804 22.4267 85.575 22.7467 85.8844 23.184L85.0524 23.952C84.8177 23.6747 84.5404 23.4453 84.2204 23.264C83.911 23.0827 83.543 22.992 83.1164 22.992C82.935 22.992 82.7537 23.0133 82.5724 23.056C82.4017 23.0987 82.247 23.168 82.1084 23.264C81.9697 23.3493 81.8577 23.4613 81.7724 23.6C81.687 23.7387 81.6444 23.904 81.6444 24.096C81.6444 24.3307 81.6977 24.528 81.8044 24.688C81.911 24.8373 82.055 24.9653 82.2364 25.072C82.4284 25.1787 82.6417 25.2693 82.8764 25.344C83.111 25.4187 83.3564 25.4933 83.6124 25.568C83.911 25.6533 84.1937 25.7547 84.4604 25.872C84.7377 25.9893 84.983 26.1387 85.1964 26.32C85.4097 26.4907 85.5804 26.6987 85.7084 26.944C85.8364 27.1893 85.9004 27.488 85.9004 27.84C85.9004 28.256 85.8204 28.6133 85.6604 28.912C85.511 29.2 85.303 29.44 85.0364 29.632C84.7697 29.824 84.4604 29.9627 84.1084 30.048C83.7564 30.144 83.383 30.192 82.9884 30.192C82.295 30.192 81.703 30.0747 81.2124 29.84C80.7324 29.6053 80.3537 29.3013 80.0764 28.928L80.9244 28.128C81.1697 28.416 81.4524 28.6507 81.7724 28.832C82.103 29.0133 82.5137 29.104 83.0044 29.104C83.2284 29.104 83.4364 29.0827 83.6284 29.04C83.831 28.9973 84.007 28.928 84.1564 28.832C84.3057 28.736 84.423 28.6187 84.5084 28.48C84.6044 28.3307 84.6524 28.1547 84.6524 27.952ZM90.542 30.192C89.8273 30.192 89.3047 29.9787 88.974 29.552C88.6433 29.1253 88.478 28.5387 88.478 27.792V23.136H87.07V22.096H88.478V19.952H89.742V22.096H92.03V23.136H89.742V27.68C89.742 28.192 89.838 28.5493 90.03 28.752C90.2327 28.9547 90.4887 29.056 90.798 29.056C91.0113 29.056 91.2033 29.0187 91.374 28.944C91.5447 28.8587 91.7047 28.7467 91.854 28.608L92.43 29.504C91.9393 29.9627 91.31 30.192 90.542 30.192ZM94.1725 22.096H95.3885V23.376H95.4845C95.6552 22.96 95.9005 22.6133 96.2205 22.336C96.5405 22.048 96.9405 21.904 97.4205 21.904C97.8258 21.904 98.1832 21.984 98.4925 22.144L98.0605 23.296C97.9218 23.2213 97.7725 23.1733 97.6125 23.152C97.4632 23.12 97.3085 23.104 97.1485 23.104C96.6258 23.104 96.2098 23.3173 95.9005 23.744C95.6018 24.16 95.4525 24.6933 95.4525 25.344V30H94.1725V22.096ZM101.629 20C101.629 20.224 101.549 20.416 101.389 20.576C101.24 20.736 101.037 20.816 100.781 20.816C100.515 20.816 100.307 20.736 100.157 20.576C100.008 20.416 99.9333 20.224 99.9333 20C99.9333 19.7867 100.008 19.6 100.157 19.44C100.307 19.2693 100.515 19.184 100.781 19.184C101.037 19.184 101.24 19.2693 101.389 19.44C101.549 19.6 101.629 19.7867 101.629 20ZM100.141 22.096H101.421V30H100.141V22.096ZM104.141 22.096H105.357V23.344H105.453C105.645 22.928 105.917 22.5867 106.269 22.32C106.621 22.0427 107.069 21.904 107.613 21.904C108.52 21.904 109.235 22.144 109.757 22.624C110.291 23.104 110.557 23.8773 110.557 24.944V30H109.277V25.184C109.277 24.3733 109.112 23.8027 108.781 23.472C108.461 23.1307 107.987 22.96 107.357 22.96C106.749 22.96 106.275 23.168 105.933 23.584C105.592 24 105.421 24.608 105.421 25.408V30H104.141V22.096ZM116.278 33.152C115.595 33.152 115.003 33.0293 114.502 32.784C114 32.5493 113.6 32.256 113.302 31.904L114.15 31.088C114.374 31.3653 114.662 31.584 115.014 31.744C115.376 31.9147 115.776 32 116.214 32C116.896 32 117.43 31.8347 117.814 31.504C118.208 31.1733 118.406 30.592 118.406 29.76V28.224H118.31C118.224 28.4907 118.102 28.7307 117.942 28.944C117.782 29.1467 117.59 29.3227 117.366 29.472C117.152 29.6107 116.912 29.7227 116.646 29.808C116.39 29.8827 116.128 29.92 115.862 29.92C115.36 29.92 114.902 29.8293 114.486 29.648C114.08 29.4667 113.723 29.2053 113.414 28.864C113.115 28.512 112.88 28.0853 112.71 27.584C112.55 27.0827 112.47 26.5173 112.47 25.888C112.47 25.2693 112.55 24.7147 112.71 24.224C112.88 23.7333 113.115 23.3173 113.414 22.976C113.723 22.6347 114.08 22.3733 114.486 22.192C114.902 22 115.36 21.904 115.862 21.904C116.448 21.904 116.971 22.0587 117.43 22.368C117.899 22.6667 118.214 23.0827 118.374 23.616H118.47V22.096H119.686V29.92C119.686 30.8907 119.392 31.6693 118.806 32.256C118.23 32.8533 117.387 33.152 116.278 33.152ZM116.118 28.768C116.822 28.768 117.376 28.5227 117.782 28.032C118.198 27.5413 118.406 26.832 118.406 25.904C118.406 24.9653 118.198 24.256 117.782 23.776C117.376 23.296 116.822 23.056 116.118 23.056C115.403 23.056 114.832 23.296 114.406 23.776C113.99 24.256 113.782 24.9653 113.782 25.904C113.782 26.832 113.99 27.5413 114.406 28.032C114.832 28.5227 115.403 28.768 116.118 28.768Z" fill="#242E30"/>
<path d="M1.604 60.2H4.232C4.6 60.2 4.932 60.256 5.228 60.368C5.532 60.472 5.792 60.628 6.008 60.836C6.224 61.036 6.388 61.284 6.5 61.58C6.62 61.868 6.68 62.2 6.68 62.576C6.68 63.136 6.528 63.604 6.224 63.98C5.92 64.348 5.52 64.604 5.024 64.748L5.012 64.796L6.968 68H5.768L3.98 64.976H2.624V68H1.604V60.2ZM4.076 64.124C4.564 64.124 4.944 63.988 5.216 63.716C5.496 63.436 5.636 63.056 5.636 62.576C5.636 62.096 5.504 61.724 5.24 61.46C4.976 61.188 4.604 61.052 4.124 61.052H2.624V64.124H4.076ZM10.7149 68.144C10.2909 68.144 9.90291 68.072 9.55091 67.928C9.20691 67.784 8.91091 67.58 8.66291 67.316C8.42291 67.044 8.23491 66.716 8.09891 66.332C7.97091 65.948 7.90691 65.516 7.90691 65.036C7.90691 64.532 7.97491 64.088 8.11091 63.704C8.24691 63.312 8.43491 62.988 8.67491 62.732C8.91491 62.468 9.19891 62.268 9.52691 62.132C9.86291 61.996 10.2309 61.928 10.6309 61.928C11.0309 61.928 11.3989 61.992 11.7349 62.12C12.0709 62.248 12.3589 62.44 12.5989 62.696C12.8389 62.944 13.0269 63.26 13.1629 63.644C13.2989 64.02 13.3669 64.46 13.3669 64.964C13.3669 65.028 13.3629 65.092 13.3549 65.156C13.3549 65.22 13.3509 65.272 13.3429 65.312H8.86691C8.86691 65.592 8.91491 65.856 9.01091 66.104C9.11491 66.344 9.25091 66.556 9.41891 66.74C9.59491 66.916 9.79491 67.056 10.0189 67.16C10.2509 67.264 10.4989 67.316 10.7629 67.316C11.1949 67.316 11.5469 67.232 11.8189 67.064C12.0989 66.896 12.3309 66.692 12.5149 66.452L13.0909 67.04C12.8349 67.376 12.5149 67.644 12.1309 67.844C11.7549 68.044 11.2829 68.144 10.7149 68.144ZM10.6309 62.72C10.3509 62.72 10.1029 62.772 9.88691 62.876C9.67091 62.98 9.49091 63.116 9.34691 63.284C9.20291 63.452 9.09091 63.644 9.01091 63.86C8.93891 64.076 8.89891 64.292 8.89091 64.508H12.3589C12.3509 64.292 12.3069 64.076 12.2269 63.86C12.1549 63.644 12.0469 63.452 11.9029 63.284C11.7589 63.116 11.5789 62.98 11.3629 62.876C11.1549 62.772 10.9109 62.72 10.6309 62.72ZM17.7705 66.464C17.7705 66.288 17.7305 66.144 17.6505 66.032C17.5705 65.912 17.4585 65.812 17.3145 65.732C17.1785 65.652 17.0225 65.584 16.8465 65.528C16.6705 65.472 16.4865 65.416 16.2945 65.36C16.0705 65.296 15.8545 65.22 15.6465 65.132C15.4465 65.044 15.2665 64.936 15.1065 64.808C14.9465 64.672 14.8185 64.512 14.7225 64.328C14.6265 64.144 14.5785 63.92 14.5785 63.656C14.5785 63.376 14.6305 63.128 14.7345 62.912C14.8385 62.696 14.9825 62.516 15.1665 62.372C15.3505 62.228 15.5665 62.12 15.8145 62.048C16.0625 61.968 16.3305 61.928 16.6185 61.928C17.0505 61.928 17.4465 62.008 17.8065 62.168C18.1665 62.32 18.4625 62.56 18.6945 62.888L18.0705 63.464C17.8945 63.256 17.6865 63.084 17.4465 62.948C17.2145 62.812 16.9385 62.744 16.6185 62.744C16.4825 62.744 16.3465 62.76 16.2105 62.792C16.0825 62.824 15.9665 62.876 15.8625 62.948C15.7585 63.012 15.6745 63.096 15.6105 63.2C15.5465 63.304 15.5145 63.428 15.5145 63.572C15.5145 63.748 15.5545 63.896 15.6345 64.016C15.7145 64.128 15.8225 64.224 15.9585 64.304C16.1025 64.384 16.2625 64.452 16.4385 64.508C16.6145 64.564 16.7985 64.62 16.9905 64.676C17.2145 64.74 17.4265 64.816 17.6265 64.904C17.8345 64.992 18.0185 65.104 18.1785 65.24C18.3385 65.368 18.4665 65.524 18.5625 65.708C18.6585 65.892 18.7065 66.116 18.7065 66.38C18.7065 66.692 18.6465 66.96 18.5265 67.184C18.4145 67.4 18.2585 67.58 18.0585 67.724C17.8585 67.868 17.6265 67.972 17.3625 68.036C17.0985 68.108 16.8185 68.144 16.5225 68.144C16.0025 68.144 15.5585 68.056 15.1905 67.88C14.8305 67.704 14.5465 67.476 14.3385 67.196L14.9745 66.596C15.1585 66.812 15.3705 66.988 15.6105 67.124C15.8585 67.26 16.1665 67.328 16.5345 67.328C16.7025 67.328 16.8585 67.312 17.0025 67.28C17.1545 67.248 17.2865 67.196 17.3985 67.124C17.5105 67.052 17.5985 66.964 17.6625 66.86C17.7345 66.748 17.7705 66.616 17.7705 66.464ZM22.1878 68.144C21.6518 68.144 21.2598 67.984 21.0118 67.664C20.7638 67.344 20.6398 66.904 20.6398 66.344V62.852H19.5838V62.072H20.6398V60.464H21.5878V62.072H23.3038V62.852H21.5878V66.26C21.5878 66.644 21.6598 66.912 21.8038 67.064C21.9558 67.216 22.1478 67.292 22.3798 67.292C22.5398 67.292 22.6838 67.264 22.8118 67.208C22.9398 67.144 23.0598 67.06 23.1718 66.956L23.6038 67.628C23.2358 67.972 22.7638 68.144 22.1878 68.144ZM26.2186 68.144C25.9466 68.144 25.6946 68.1 25.4626 68.012C25.2386 67.924 25.0426 67.8 24.8746 67.64C24.7066 67.48 24.5746 67.292 24.4786 67.076C24.3906 66.852 24.3466 66.608 24.3466 66.344C24.3466 65.832 24.5306 65.42 24.8986 65.108C25.2666 64.796 25.7906 64.62 26.4706 64.58L28.0306 64.484V64.064C28.0306 63.608 27.9186 63.28 27.6946 63.08C27.4786 62.872 27.1666 62.768 26.7586 62.768C26.4146 62.768 26.1186 62.832 25.8706 62.96C25.6226 63.088 25.4306 63.228 25.2946 63.38L24.7186 62.804C24.9266 62.548 25.2066 62.34 25.5586 62.18C25.9186 62.012 26.3266 61.928 26.7826 61.928C27.1906 61.928 27.5346 61.984 27.8146 62.096C28.0946 62.2 28.3186 62.344 28.4866 62.528C28.6626 62.712 28.7866 62.928 28.8586 63.176C28.9386 63.424 28.9786 63.688 28.9786 63.968V68H28.0786V66.992H28.0066C27.8466 67.352 27.6226 67.636 27.3346 67.844C27.0466 68.044 26.6746 68.144 26.2186 68.144ZM26.3626 67.328C26.8586 67.328 27.2586 67.184 27.5626 66.896C27.8746 66.6 28.0306 66.208 28.0306 65.72V65.204L26.5186 65.312C25.7186 65.376 25.3186 65.712 25.3186 66.32C25.3186 66.624 25.4146 66.868 25.6066 67.052C25.8066 67.236 26.0586 67.328 26.3626 67.328ZM32.9506 68.144C32.6226 68.144 32.3266 68.1 32.0626 68.012C31.7986 67.924 31.5706 67.788 31.3786 67.604C31.1946 67.42 31.0506 67.184 30.9466 66.896C30.8426 66.608 30.7906 66.264 30.7906 65.864V62.072H31.7506V65.684C31.7506 66.292 31.8666 66.724 32.0986 66.98C32.3386 67.228 32.6866 67.352 33.1426 67.352C33.5746 67.352 33.9146 67.196 34.1626 66.884C34.4186 66.572 34.5466 66.116 34.5466 65.516V62.072H35.5066V68H34.5946V67.064H34.5226C34.3786 67.376 34.1786 67.636 33.9226 67.844C33.6746 68.044 33.3506 68.144 32.9506 68.144ZM37.5434 62.072H38.4554V63.032H38.5274C38.6554 62.72 38.8394 62.46 39.0794 62.252C39.3194 62.036 39.6194 61.928 39.9794 61.928C40.2834 61.928 40.5514 61.988 40.7834 62.108L40.4594 62.972C40.3554 62.916 40.2434 62.88 40.1234 62.864C40.0114 62.84 39.8954 62.828 39.7754 62.828C39.3834 62.828 39.0714 62.988 38.8394 63.308C38.6154 63.62 38.5034 64.02 38.5034 64.508V68H37.5434V62.072ZM43.2108 68.144C42.9388 68.144 42.6868 68.1 42.4548 68.012C42.2308 67.924 42.0348 67.8 41.8668 67.64C41.6988 67.48 41.5668 67.292 41.4708 67.076C41.3828 66.852 41.3388 66.608 41.3388 66.344C41.3388 65.832 41.5228 65.42 41.8908 65.108C42.2588 64.796 42.7828 64.62 43.4628 64.58L45.0228 64.484V64.064C45.0228 63.608 44.9108 63.28 44.6868 63.08C44.4708 62.872 44.1588 62.768 43.7508 62.768C43.4068 62.768 43.1108 62.832 42.8628 62.96C42.6148 63.088 42.4228 63.228 42.2868 63.38L41.7108 62.804C41.9188 62.548 42.1988 62.34 42.5508 62.18C42.9108 62.012 43.3188 61.928 43.7748 61.928C44.1828 61.928 44.5268 61.984 44.8068 62.096C45.0868 62.2 45.3108 62.344 45.4788 62.528C45.6548 62.712 45.7788 62.928 45.8508 63.176C45.9308 63.424 45.9708 63.688 45.9708 63.968V68H45.0708V66.992H44.9988C44.8388 67.352 44.6148 67.636 44.3268 67.844C44.0388 68.044 43.6668 68.144 43.2108 68.144ZM43.3548 67.328C43.8508 67.328 44.2508 67.184 44.5548 66.896C44.8668 66.6 45.0228 66.208 45.0228 65.72V65.204L43.5108 65.312C42.7108 65.376 42.3108 65.712 42.3108 66.32C42.3108 66.624 42.4068 66.868 42.5988 67.052C42.7988 67.236 43.0508 67.328 43.3548 67.328ZM47.9028 62.072H48.8148V63.008H48.8868C49.0308 62.696 49.2348 62.44 49.4988 62.24C49.7628 62.032 50.0988 61.928 50.5068 61.928C51.1868 61.928 51.7228 62.108 52.1148 62.468C52.5148 62.828 52.7148 63.408 52.7148 64.208V68H51.7548V64.388C51.7548 63.78 51.6308 63.352 51.3828 63.104C51.1428 62.848 50.7868 62.72 50.3148 62.72C49.8588 62.72 49.5028 62.876 49.2468 63.188C48.9908 63.5 48.8628 63.956 48.8628 64.556V68H47.9028V62.072ZM56.4651 68.144C55.9291 68.144 55.5371 67.984 55.2891 67.664C55.0411 67.344 54.9171 66.904 54.9171 66.344V62.852H53.8611V62.072H54.9171V60.464H55.8651V62.072H57.5811V62.852H55.8651V66.26C55.8651 66.644 55.9371 66.912 56.0811 67.064C56.2331 67.216 56.4251 67.292 56.6571 67.292C56.8171 67.292 56.9611 67.264 57.0891 67.208C57.2171 67.144 57.3371 67.06 57.4491 66.956L57.8811 67.628C57.5131 67.972 57.0411 68.144 56.4651 68.144ZM62.0708 62.072H62.9828V63.008H63.0548C63.1988 62.696 63.4028 62.44 63.6668 62.24C63.9308 62.032 64.2668 61.928 64.6748 61.928C65.3548 61.928 65.8908 62.108 66.2828 62.468C66.6828 62.828 66.8828 63.408 66.8828 64.208V68H65.9228V64.388C65.9228 63.78 65.7988 63.352 65.5508 63.104C65.3108 62.848 64.9548 62.72 64.4828 62.72C64.0268 62.72 63.6708 62.876 63.4148 63.188C63.1588 63.5 63.0308 63.956 63.0308 64.556V68H62.0708V62.072ZM70.1171 68.144C69.8451 68.144 69.5931 68.1 69.3611 68.012C69.1371 67.924 68.9411 67.8 68.7731 67.64C68.6051 67.48 68.4731 67.292 68.3771 67.076C68.2891 66.852 68.2451 66.608 68.2451 66.344C68.2451 65.832 68.4291 65.42 68.7971 65.108C69.1651 64.796 69.6891 64.62 70.3691 64.58L71.9291 64.484V64.064C71.9291 63.608 71.8171 63.28 71.5931 63.08C71.3771 62.872 71.0651 62.768 70.6571 62.768C70.3131 62.768 70.0171 62.832 69.7691 62.96C69.5211 63.088 69.3291 63.228 69.1931 63.38L68.6171 62.804C68.8251 62.548 69.1051 62.34 69.4571 62.18C69.8171 62.012 70.2251 61.928 70.6811 61.928C71.0891 61.928 71.4331 61.984 71.7131 62.096C71.9931 62.2 72.2171 62.344 72.3851 62.528C72.5611 62.712 72.6851 62.928 72.7571 63.176C72.8371 63.424 72.8771 63.688 72.8771 63.968V68H71.9771V66.992H71.9051C71.7451 67.352 71.5211 67.636 71.2331 67.844C70.9451 68.044 70.5731 68.144 70.1171 68.144ZM70.2611 67.328C70.7571 67.328 71.1571 67.184 71.4611 66.896C71.7731 66.6 71.9291 66.208 71.9291 65.72V65.204L70.4171 65.312C69.6171 65.376 69.2171 65.712 69.2171 66.32C69.2171 66.624 69.3131 66.868 69.5051 67.052C69.7051 67.236 69.9571 67.328 70.2611 67.328ZM74.8091 62.072H75.7211V63.008H75.7931C75.9371 62.696 76.1371 62.44 76.3931 62.24C76.6571 62.032 76.9851 61.928 77.3771 61.928C77.8491 61.928 78.2451 62.016 78.5651 62.192C78.8931 62.36 79.1371 62.616 79.2971 62.96C79.4731 62.624 79.7091 62.368 80.0051 62.192C80.3011 62.016 80.6771 61.928 81.1331 61.928C81.4611 61.928 81.7571 61.972 82.0211 62.06C82.2851 62.148 82.5091 62.284 82.6931 62.468C82.8851 62.652 83.0291 62.888 83.1251 63.176C83.2291 63.464 83.2811 63.808 83.2811 64.208V68H82.3211V64.388C82.3211 63.78 82.2011 63.352 81.9611 63.104C81.7291 62.848 81.3851 62.72 80.9291 62.72C80.4891 62.72 80.1451 62.876 79.8971 63.188C79.6491 63.5 79.5251 63.956 79.5251 64.556V68H78.5651V64.388C78.5651 63.78 78.4451 63.352 78.2051 63.104C77.9731 62.848 77.6291 62.72 77.1731 62.72C76.7411 62.72 76.3971 62.876 76.1411 63.188C75.8931 63.5 75.7691 63.956 75.7691 64.556V68H74.8091V62.072ZM87.5313 68.144C87.1073 68.144 86.7193 68.072 86.3673 67.928C86.0233 67.784 85.7273 67.58 85.4793 67.316C85.2393 67.044 85.0513 66.716 84.9153 66.332C84.7873 65.948 84.7233 65.516 84.7233 65.036C84.7233 64.532 84.7913 64.088 84.9273 63.704C85.0633 63.312 85.2513 62.988 85.4913 62.732C85.7313 62.468 86.0153 62.268 86.3433 62.132C86.6793 61.996 87.0473 61.928 87.4473 61.928C87.8473 61.928 88.2153 61.992 88.5513 62.12C88.8873 62.248 89.1753 62.44 89.4153 62.696C89.6553 62.944 89.8433 63.26 89.9793 63.644C90.1153 64.02 90.1833 64.46 90.1833 64.964C90.1833 65.028 90.1793 65.092 90.1713 65.156C90.1713 65.22 90.1673 65.272 90.1593 65.312H85.6833C85.6833 65.592 85.7313 65.856 85.8273 66.104C85.9313 66.344 86.0673 66.556 86.2353 66.74C86.4113 66.916 86.6113 67.056 86.8353 67.16C87.0673 67.264 87.3153 67.316 87.5793 67.316C88.0113 67.316 88.3633 67.232 88.6353 67.064C88.9153 66.896 89.1473 66.692 89.3313 66.452L89.9073 67.04C89.6513 67.376 89.3313 67.644 88.9473 67.844C88.5713 68.044 88.0993 68.144 87.5313 68.144ZM87.4473 62.72C87.1673 62.72 86.9193 62.772 86.7033 62.876C86.4873 62.98 86.3073 63.116 86.1633 63.284C86.0193 63.452 85.9073 63.644 85.8273 63.86C85.7553 64.076 85.7153 64.292 85.7073 64.508H89.1753C89.1673 64.292 89.1233 64.076 89.0433 63.86C88.9713 63.644 88.8633 63.452 88.7193 63.284C88.5753 63.116 88.3953 62.98 88.1793 62.876C87.9713 62.772 87.7273 62.72 87.4473 62.72Z" fill="#3C4C4F"/>
</svg>
