<svg width="97" height="30" viewBox="0 0 97 30" fill="none" xmlns="http://www.w3.org/2000/svg">
<path d="M1.76888 9.6H3.12888V18.848H7.14488V20H1.76888V9.6ZM10.7915 20.192C10.4288 20.192 10.0928 20.1333 9.7835 20.016C9.48483 19.8987 9.2235 19.7333 8.9995 19.52C8.7755 19.3067 8.5995 19.056 8.4715 18.768C8.35417 18.4693 8.2955 18.144 8.2955 17.792C8.2955 17.1093 8.54083 16.56 9.0315 16.144C9.52217 15.728 10.2208 15.4933 11.1275 15.44L13.2075 15.312V14.752C13.2075 14.144 13.0582 13.7067 12.7595 13.44C12.4715 13.1627 12.0555 13.024 11.5115 13.024C11.0528 13.024 10.6582 13.1093 10.3275 13.28C9.99683 13.4507 9.74083 13.6373 9.5595 13.84L8.7915 13.072C9.06883 12.7307 9.44217 12.4533 9.9115 12.24C10.3915 12.016 10.9355 11.904 11.5435 11.904C12.0875 11.904 12.5462 11.9787 12.9195 12.128C13.2928 12.2667 13.5915 12.4587 13.8155 12.704C14.0502 12.9493 14.2155 13.2373 14.3115 13.568C14.4182 13.8987 14.4715 14.2507 14.4715 14.624V20H13.2715V18.656H13.1755C12.9622 19.136 12.6635 19.5147 12.2795 19.792C11.8955 20.0587 11.3995 20.192 10.7915 20.192ZM10.9835 19.104C11.6448 19.104 12.1782 18.912 12.5835 18.528C12.9995 18.1333 13.2075 17.6107 13.2075 16.96V16.272L11.1915 16.416C10.1248 16.5013 9.5915 16.9493 9.5915 17.76C9.5915 18.1653 9.7195 18.4907 9.9755 18.736C10.2422 18.9813 10.5782 19.104 10.9835 19.104ZM21.1115 20.192C20.7915 20.192 20.4822 20.1493 20.1835 20.064C19.8955 19.9787 19.6288 19.856 19.3835 19.696C19.1488 19.536 18.9408 19.3493 18.7595 19.136C18.5888 18.912 18.4555 18.6613 18.3595 18.384H18.2635V20H17.0475V8.4H18.3275V13.552H18.4235C18.6262 13.072 18.9622 12.6773 19.4315 12.368C19.9008 12.0587 20.4608 11.904 21.1115 11.904C21.6342 11.904 22.1088 12.0053 22.5355 12.208C22.9728 12.4107 23.3462 12.6987 23.6555 13.072C23.9648 13.4347 24.1995 13.872 24.3595 14.384C24.5302 14.8853 24.6155 15.4347 24.6155 16.032C24.6155 16.6293 24.5302 17.184 24.3595 17.696C24.1995 18.208 23.9648 18.6507 23.6555 19.024C23.3462 19.3867 22.9728 19.6747 22.5355 19.888C22.1088 20.0907 21.6342 20.192 21.1115 20.192ZM20.7915 19.04C21.1435 19.04 21.4688 18.9813 21.7675 18.864C22.0768 18.736 22.3435 18.5493 22.5675 18.304C22.8022 18.048 22.9835 17.7333 23.1115 17.36C23.2395 16.9867 23.3035 16.5493 23.3035 16.048C23.3035 15.5467 23.2395 15.1093 23.1115 14.736C22.9835 14.3627 22.8022 14.0533 22.5675 13.808C22.3435 13.552 22.0768 13.3653 21.7675 13.248C21.4688 13.12 21.1435 13.056 20.7915 13.056C20.4502 13.056 20.1302 13.12 19.8315 13.248C19.5328 13.3653 19.2715 13.552 19.0475 13.808C18.8235 14.0533 18.6475 14.3627 18.5195 14.736C18.3915 15.1093 18.3275 15.5467 18.3275 16.048C18.3275 16.5493 18.3915 16.9867 18.5195 17.36C18.6475 17.7333 18.8235 18.048 19.0475 18.304C19.2715 18.5493 19.5328 18.736 19.8315 18.864C20.1302 18.9813 20.4502 19.04 20.7915 19.04ZM29.7605 20.192C29.1952 20.192 28.6778 20.096 28.2085 19.904C27.7498 19.712 27.3552 19.44 27.0245 19.088C26.7045 18.7253 26.4538 18.288 26.2725 17.776C26.1018 17.264 26.0165 16.688 26.0165 16.048C26.0165 15.376 26.1072 14.784 26.2885 14.272C26.4698 13.7493 26.7205 13.3173 27.0405 12.976C27.3605 12.624 27.7392 12.3573 28.1765 12.176C28.6245 11.9947 29.1152 11.904 29.6485 11.904C30.1818 11.904 30.6725 11.9893 31.1205 12.16C31.5685 12.3307 31.9525 12.5867 32.2725 12.928C32.5925 13.2587 32.8432 13.68 33.0245 14.192C33.2058 14.6933 33.2965 15.28 33.2965 15.952C33.2965 16.0373 33.2912 16.1227 33.2805 16.208C33.2805 16.2933 33.2752 16.3627 33.2645 16.416H27.2965C27.2965 16.7893 27.3605 17.1413 27.4885 17.472C27.6272 17.792 27.8085 18.0747 28.0325 18.32C28.2672 18.5547 28.5338 18.7413 28.8325 18.88C29.1418 19.0187 29.4725 19.088 29.8245 19.088C30.4005 19.088 30.8698 18.976 31.2325 18.752C31.6058 18.528 31.9152 18.256 32.1605 17.936L32.9285 18.72C32.5872 19.168 32.1605 19.5253 31.6485 19.792C31.1472 20.0587 30.5178 20.192 29.7605 20.192ZM29.6485 12.96C29.2752 12.96 28.9445 13.0293 28.6565 13.168C28.3685 13.3067 28.1285 13.488 27.9365 13.712C27.7445 13.936 27.5952 14.192 27.4885 14.48C27.3925 14.768 27.3392 15.056 27.3285 15.344H31.9525C31.9418 15.056 31.8832 14.768 31.7765 14.48C31.6805 14.192 31.5365 13.936 31.3445 13.712C31.1525 13.488 30.9125 13.3067 30.6245 13.168C30.3472 13.0293 30.0218 12.96 29.6485 12.96ZM35.36 8.4H36.64V20H35.36V8.4Z" fill="#242E30"/>
<path d="M46 14C46 7.37258 51.3726 2 58 2H82C88.6274 2 94 7.37258 94 14C94 20.6274 88.6274 26 82 26H58C51.3726 26 46 20.6274 46 14Z" fill="#F36805"/>
<g filter="url(#filter0_ddd_2245_20899)">
<circle cx="82" cy="14" r="10" fill="white"/>
</g>
<path d="M79.865 18.4888C79.7007 18.487 79.5385 18.452 79.3881 18.3858C79.2377 18.3197 79.1023 18.2237 78.99 18.1038L75.875 14.6563L76.855 13.7813L79.8825 17.15L87.1362 9.32751L88.0988 10.2025L80.7488 18.0775C80.6365 18.1975 80.501 18.2934 80.3507 18.3596C80.2003 18.4258 80.038 18.4608 79.8738 18.4625L79.865 18.4888Z" fill="#F36805"/>
<defs>
<filter id="filter0_ddd_2245_20899" x="67" y="0" width="30" height="30" filterUnits="userSpaceOnUse" color-interpolation-filters="sRGB">
<feFlood flood-opacity="0" result="BackgroundImageFix"/>
<feColorMatrix in="SourceAlpha" type="matrix" values="0 0 0 0 0 0 0 0 0 0 0 0 0 0 0 0 0 0 127 0" result="hardAlpha"/>
<feOffset dy="1"/>
<feGaussianBlur stdDeviation="2.5"/>
<feColorMatrix type="matrix" values="0 0 0 0 0 0 0 0 0 0 0 0 0 0 0 0 0 0 0.06 0"/>
<feBlend mode="normal" in2="BackgroundImageFix" result="effect1_dropShadow_2245_20899"/>
<feColorMatrix in="SourceAlpha" type="matrix" values="0 0 0 0 0 0 0 0 0 0 0 0 0 0 0 0 0 0 127 0" result="hardAlpha"/>
<feMorphology radius="2" operator="erode" in="SourceAlpha" result="effect2_dropShadow_2245_20899"/>
<feOffset dy="3"/>
<feGaussianBlur stdDeviation="0.5"/>
<feColorMatrix type="matrix" values="0 0 0 0 0 0 0 0 0 0 0 0 0 0 0 0 0 0 0.07 0"/>
<feBlend mode="normal" in2="effect1_dropShadow_2245_20899" result="effect2_dropShadow_2245_20899"/>
<feColorMatrix in="SourceAlpha" type="matrix" values="0 0 0 0 0 0 0 0 0 0 0 0 0 0 0 0 0 0 127 0" result="hardAlpha"/>
<feOffset dy="2"/>
<feGaussianBlur stdDeviation="1"/>
<feColorMatrix type="matrix" values="0 0 0 0 0 0 0 0 0 0 0 0 0 0 0 0 0 0 0.03 0"/>
<feBlend mode="normal" in2="effect2_dropShadow_2245_20899" result="effect3_dropShadow_2245_20899"/>
<feBlend mode="normal" in="SourceGraphic" in2="effect3_dropShadow_2245_20899" result="shape"/>
</filter>
</defs>
</svg>
