<svg fill="none" xmlns="http://www.w3.org/2000/svg" viewBox="0 0 1032 400">
  <path d="M0 16C0 7.163 7.163 0 16 0h242v400H16c-8.837 0-16-7.163-16-16V16Z" fill="#E5FAEF"/>
  <path d="m145.541 169.07-2.008 2.139a15.885 15.885 0 0 1-8.273 19.259 15.88 15.88 0 1 1 3.863-26.084l1.798-1.916a18.304 18.304 0 0 0-24.423-.153 18.307 18.307 0 0 0 8.001 31.557 18.312 18.312 0 0 0 21.4-11.773 18.305 18.305 0 0 0-.358-13.068v.039Z" fill="#017A39"/>
  <path d="M126.891 181.25h-.145l-5.591-6.3-1.969 1.746 5.618 6.326a2.741 2.741 0 0 0 1.995.866 2.696 2.696 0 0 0 1.995-.879l13.545-14.438 1.89-1.995 1.404-1.496-1.942-1.785-.998 1.076-1.824 1.943-13.978 14.936Z" fill="#017A39"/>
  <path d="M105.265 221.9h2.842c.933 0 1.647.261 2.142.784.504.513.756 1.213.756 2.1 0 .896-.257 1.605-.77 2.128-.514.513-1.223.77-2.128.77h-1.652V231h-1.19v-9.1Zm2.758 4.788c.588 0 1.026-.168 1.316-.504.298-.345.448-.812.448-1.4 0-.588-.15-1.05-.448-1.386-.29-.336-.728-.504-1.316-.504h-1.568v3.794h1.568Zm7.297 4.48c-.55 0-1.036-.093-1.456-.28a3.11 3.11 0 0 1-1.036-.784 3.408 3.408 0 0 1-.616-1.148 4.956 4.956 0 0 1-.196-1.414c0-.504.066-.975.196-1.414.14-.439.346-.821.616-1.148a2.96 2.96 0 0 1 1.036-.77c.42-.196.906-.294 1.456-.294.551 0 1.027.098 1.428.294.411.187.752.443 1.022.77.271.327.472.709.602 1.148.14.439.21.91.21 1.414 0 .504-.07.975-.21 1.414-.13.439-.331.821-.602 1.148-.27.327-.611.588-1.022.784-.401.187-.877.28-1.428.28Zm-2.156-3.626c0 .401.042.77.126 1.106.094.327.229.611.406.854.178.233.402.415.672.546.271.131.588.196.952.196.355 0 .663-.065.924-.196.271-.131.49-.313.658-.546.178-.243.308-.527.392-.854.094-.336.14-.705.14-1.106 0-.401-.046-.765-.14-1.092a2.312 2.312 0 0 0-.392-.854 1.665 1.665 0 0 0-.658-.56 2.037 2.037 0 0 0-.924-.196c-.364 0-.681.065-.952.196-.27.131-.494.317-.672.56a2.518 2.518 0 0 0-.406.854 4.39 4.39 0 0 0-.126 1.092Zm10.551 1.666a.844.844 0 0 0-.14-.504 1.098 1.098 0 0 0-.392-.35 2.64 2.64 0 0 0-.546-.238c-.205-.065-.42-.131-.644-.196a6.616 6.616 0 0 1-.756-.266 2.862 2.862 0 0 1-.63-.378 1.865 1.865 0 0 1-.448-.56 1.679 1.679 0 0 1-.168-.784c0-.327.061-.616.182-.868.122-.252.29-.462.504-.63a2.22 2.22 0 0 1 .756-.378c.29-.093.602-.14.938-.14.504 0 .966.093 1.386.28.42.177.766.457 1.036.84l-.728.672a2.664 2.664 0 0 0-.728-.602c-.27-.159-.592-.238-.966-.238-.158 0-.317.019-.476.056a1.234 1.234 0 0 0-.406.182.817.817 0 0 0-.406.728c0 .205.047.378.14.518.094.131.22.243.378.336.168.093.355.173.56.238.206.065.42.131.644.196.262.075.509.163.742.266.243.103.458.233.644.392.187.149.336.331.448.546.112.215.168.476.168.784 0 .364-.07.677-.21.938-.13.252-.312.462-.546.63a2.305 2.305 0 0 1-.812.364 3.706 3.706 0 0 1-.98.126c-.606 0-1.124-.103-1.554-.308a2.665 2.665 0 0 1-.994-.798l.742-.7c.215.252.462.457.742.616.29.159.649.238 1.078.238.196 0 .378-.019.546-.056a1.35 1.35 0 0 0 .462-.182.963.963 0 0 0 .308-.308.837.837 0 0 0 .126-.462Zm4.328-6.958c0 .196-.07.364-.21.504-.131.14-.308.21-.532.21-.234 0-.416-.07-.546-.21a.711.711 0 0 1-.196-.504c0-.187.065-.35.196-.49.13-.149.312-.224.546-.224.224 0 .401.075.532.224.14.14.21.303.21.49Zm-1.302 1.834h1.12V231h-1.12v-6.916Zm5.628 7.084c-.626 0-1.083-.187-1.372-.56-.29-.373-.434-.887-.434-1.54v-4.074h-1.232v-.91h1.232v-1.876h1.106v1.876h2.002v.91h-2.002v3.976c0 .448.084.761.252.938a.911.911 0 0 0 .672.266c.186 0 .354-.033.504-.098.149-.075.289-.173.42-.294l.504.784c-.43.401-.98.602-1.652.602Zm4.478-8.918c0 .196-.07.364-.21.504-.13.14-.308.21-.532.21-.233 0-.415-.07-.546-.21a.716.716 0 0 1-.196-.504c0-.187.066-.35.196-.49.131-.149.313-.224.546-.224a.67.67 0 0 1 .532.224c.14.14.21.303.21.49Zm-1.302 1.834h1.12V231h-1.12v-6.916Zm2.59 0h1.218l2.086 5.768h.084l2.1-5.768h1.134L142.069 231h-1.26l-2.674-6.916Zm10.653 7.084c-.494 0-.947-.084-1.358-.252a2.993 2.993 0 0 1-1.036-.714 3.46 3.46 0 0 1-.658-1.148 4.776 4.776 0 0 1-.224-1.512c0-.588.08-1.106.238-1.554.159-.457.378-.835.658-1.134.28-.308.612-.541.994-.7a3.398 3.398 0 0 1 1.288-.238c.467 0 .896.075 1.288.224.392.149.728.373 1.008.672.28.289.5.658.658 1.106.159.439.238.952.238 1.54 0 .075-.004.149-.014.224a.907.907 0 0 1-.014.182h-5.222c0 .327.056.635.168.924.122.28.28.527.476.742.206.205.439.369.7.49.271.121.56.182.868.182.504 0 .915-.098 1.232-.294.327-.196.598-.434.812-.714l.672.686a3.301 3.301 0 0 1-1.12.938c-.438.233-.989.35-1.652.35Zm-.098-6.328c-.326 0-.616.061-.868.182s-.462.28-.63.476c-.168.196-.298.42-.392.672-.084.252-.13.504-.14.756h4.046a2.397 2.397 0 0 0-.154-.756 1.901 1.901 0 0 0-1.008-1.148 1.889 1.889 0 0 0-.854-.182Z" fill="#000"/>
  <path d="M258 0h258v400H258V0Z" fill="#EBF6FA"/>
  <path d="M385.688 173.375h2.625v11.812h-2.625v-11.812Zm1.312-6.563a1.974 1.974 0 0 0-1.819 1.216 1.967 1.967 0 0 0 2.572 2.572 1.965 1.965 0 0 0 1.216-1.819 1.97 1.97 0 0 0-1.969-1.969ZM405.375 176a18.378 18.378 0 0 1-11.343 16.976A18.374 18.374 0 1 1 405.375 176Zm-2.625 0a15.754 15.754 0 0 0-9.723-14.551 15.748 15.748 0 0 0-21.474 11.478A15.748 15.748 0 0 0 387 191.75 15.75 15.75 0 0 0 402.75 176Z" fill="#125FCA"/>
  <path d="M350.532 230.076h1.05v-7.252h-1.05v-.924h3.262v.924h-1.05v7.252h1.05V231h-3.262v-.924Zm4.978-5.992h1.064v1.092h.084c.168-.364.406-.663.714-.896.308-.243.7-.364 1.176-.364.794 0 1.419.21 1.876.63.467.42.7 1.097.7 2.03V231h-1.12v-4.214c0-.709-.144-1.209-.434-1.498-.28-.299-.695-.448-1.246-.448-.532 0-.947.182-1.246.546-.298.364-.448.896-.448 1.596V231h-1.12v-6.916Zm8.212.91h-1.232v-.91h1.232v-1.218c0-.672.168-1.204.504-1.596.345-.392.854-.588 1.526-.588.168 0 .34.019.518.056.177.028.331.075.462.14l-.378.882a.833.833 0 0 0-.266-.084 1.234 1.234 0 0 0-.294-.042c-.299 0-.532.103-.7.308-.168.205-.252.518-.252.938v1.204h1.848v.91h-1.848V231h-1.12v-6.006Zm6.987 6.174c-.551 0-1.036-.093-1.456-.28a3.1 3.1 0 0 1-1.036-.784 3.39 3.39 0 0 1-.616-1.148 4.921 4.921 0 0 1-.196-1.414c0-.504.065-.975.196-1.414a3.39 3.39 0 0 1 .616-1.148 2.95 2.95 0 0 1 1.036-.77c.42-.196.905-.294 1.456-.294.551 0 1.027.098 1.428.294a2.82 2.82 0 0 1 1.022.77c.271.327.471.709.602 1.148.14.439.21.91.21 1.414 0 .504-.07.975-.21 1.414a3.214 3.214 0 0 1-.602 1.148 2.958 2.958 0 0 1-1.022.784c-.401.187-.877.28-1.428.28Zm-2.156-3.626c0 .401.042.77.126 1.106.093.327.229.611.406.854.177.233.401.415.672.546.271.131.588.196.952.196.355 0 .663-.065.924-.196.271-.131.49-.313.658-.546.177-.243.308-.527.392-.854.093-.336.14-.705.14-1.106 0-.401-.047-.765-.14-1.092a2.328 2.328 0 0 0-.392-.854 1.665 1.665 0 0 0-.658-.56 2.037 2.037 0 0 0-.924-.196c-.364 0-.681.065-.952.196a1.772 1.772 0 0 0-.672.56 2.5 2.5 0 0 0-.406.854 4.39 4.39 0 0 0-.126 1.092Zm7.219-3.458h1.064v1.12h.084c.149-.364.364-.667.644-.91.28-.252.63-.378 1.05-.378.355 0 .667.07.938.21l-.378 1.008a1.148 1.148 0 0 0-.392-.126 1.935 1.935 0 0 0-.406-.042c-.457 0-.821.187-1.092.56-.261.364-.392.831-.392 1.4V231h-1.12v-6.916Zm5.223 0h1.064v1.092h.084c.168-.364.401-.663.7-.896.308-.243.69-.364 1.148-.364.55 0 1.012.103 1.386.308.382.196.667.495.854.896a2.19 2.19 0 0 1 .826-.896c.345-.205.784-.308 1.316-.308.382 0 .728.051 1.036.154a1.995 1.995 0 0 1 1.288 1.302c.121.336.182.737.182 1.204V231h-1.12v-4.214c0-.709-.14-1.209-.42-1.498-.271-.299-.672-.448-1.204-.448-.514 0-.915.182-1.204.546-.29.364-.434.896-.434 1.596V231h-1.12v-4.214c0-.709-.14-1.209-.42-1.498-.271-.299-.672-.448-1.204-.448-.504 0-.906.182-1.204.546-.29.364-.434.896-.434 1.596V231h-1.12v-6.916Zm13.666 7.084c-.317 0-.611-.051-.882-.154a2.05 2.05 0 0 1-1.148-1.092 2.328 2.328 0 0 1-.154-.854c0-.597.215-1.078.644-1.442.43-.364 1.041-.569 1.834-.616l1.82-.112v-.49c0-.532-.13-.915-.392-1.148-.252-.243-.616-.364-1.092-.364-.401 0-.746.075-1.036.224a2.328 2.328 0 0 0-.672.49l-.672-.672c.243-.299.57-.541.98-.728.42-.196.896-.294 1.428-.294.476 0 .878.065 1.204.196.327.121.588.289.784.504.206.215.35.467.434.756.094.289.14.597.14.924V231h-1.05v-1.176h-.084a2.39 2.39 0 0 1-.784.994c-.336.233-.77.35-1.302.35Zm.168-.952c.579 0 1.046-.168 1.4-.504.364-.345.546-.803.546-1.372v-.602l-1.764.126c-.933.075-1.4.467-1.4 1.176 0 .355.112.639.336.854.234.215.528.322.882.322Zm7.434.952c-.625 0-1.082-.187-1.372-.56-.289-.373-.434-.887-.434-1.54v-4.074h-1.232v-.91h1.232v-1.876h1.106v1.876h2.002v.91h-2.002v3.976c0 .448.084.761.252.938a.914.914 0 0 0 .672.266c.187 0 .355-.033.504-.098.15-.075.29-.173.42-.294l.504.784c-.429.401-.98.602-1.652.602Zm4.479-8.918c0 .196-.07.364-.21.504-.131.14-.308.21-.532.21-.233 0-.415-.07-.546-.21a.711.711 0 0 1-.196-.504c0-.187.065-.35.196-.49.131-.149.313-.224.546-.224.224 0 .401.075.532.224.14.14.21.303.21.49Zm-1.302 1.834h1.12V231h-1.12v-6.916Zm6.23 7.084c-.551 0-1.036-.093-1.456-.28a3.1 3.1 0 0 1-1.036-.784 3.39 3.39 0 0 1-.616-1.148 4.921 4.921 0 0 1-.196-1.414c0-.504.065-.975.196-1.414a3.39 3.39 0 0 1 .616-1.148 2.95 2.95 0 0 1 1.036-.77c.42-.196.905-.294 1.456-.294.551 0 1.027.098 1.428.294a2.82 2.82 0 0 1 1.022.77c.271.327.471.709.602 1.148.14.439.21.91.21 1.414 0 .504-.07.975-.21 1.414a3.214 3.214 0 0 1-.602 1.148 2.958 2.958 0 0 1-1.022.784c-.401.187-.877.28-1.428.28Zm-2.156-3.626c0 .401.042.77.126 1.106.093.327.229.611.406.854.177.233.401.415.672.546.271.131.588.196.952.196.355 0 .663-.065.924-.196.271-.131.49-.313.658-.546.177-.243.308-.527.392-.854.093-.336.14-.705.14-1.106 0-.401-.047-.765-.14-1.092a2.328 2.328 0 0 0-.392-.854 1.665 1.665 0 0 0-.658-.56 2.037 2.037 0 0 0-.924-.196c-.364 0-.681.065-.952.196a1.772 1.772 0 0 0-.672.56 2.5 2.5 0 0 0-.406.854 4.39 4.39 0 0 0-.126 1.092Zm7.219-3.458h1.064v1.092h.084c.168-.364.406-.663.714-.896.308-.243.7-.364 1.176-.364.793 0 1.419.21 1.876.63.467.42.7 1.097.7 2.03V231h-1.12v-4.214c0-.709-.145-1.209-.434-1.498-.28-.299-.695-.448-1.246-.448-.532 0-.947.182-1.246.546-.299.364-.448.896-.448 1.596V231h-1.12v-6.916Z" fill="#000"/>
  <path d="M516 0h258v400H516V0Z" fill="#FFF9DF"/>
  <path d="M645.813 168.125h-2.625v9.187h2.625v-9.187Zm-1.313 16.734a2.296 2.296 0 1 0 .001-4.593 2.296 2.296 0 0 0-.001 4.593Z" fill="#F6C243"/>
  <path d="M660.25 190.438h-31.5a3.622 3.622 0 0 1-3.202-1.917 3.85 3.85 0 0 1 .105-3.937l15.75-25.227a3.65 3.65 0 0 1 3.097-1.732 3.646 3.646 0 0 1 3.098 1.746l15.75 25.226a3.86 3.86 0 0 1 .105 3.937 3.623 3.623 0 0 1-3.203 1.904Zm-16.629-29.676-15.75 25.226a1.23 1.23 0 0 0 0 1.313 1.041 1.041 0 0 0 .879.511h31.5a1.037 1.037 0 0 0 .906-.564 1.236 1.236 0 0 0 0-1.312l-15.75-25.227a1.047 1.047 0 0 0-.906-.459 1.043 1.043 0 0 0-.879.512Z" fill="#F6C243"/>
  <path d="m626.4 231-1.918-7.854h-.084L622.494 231h-1.498l-2.548-9.1h1.246l2.016 7.77h.084l1.89-7.77h1.568l1.89 7.812h.084l2.016-7.812h1.204l-2.548 9.1H626.4Zm6.853.168c-.317 0-.611-.051-.882-.154a2.05 2.05 0 0 1-1.148-1.092 2.307 2.307 0 0 1-.154-.854c0-.597.215-1.078.644-1.442.429-.364 1.041-.569 1.834-.616l1.82-.112v-.49c0-.532-.131-.915-.392-1.148-.252-.243-.616-.364-1.092-.364-.401 0-.747.075-1.036.224a2.328 2.328 0 0 0-.672.49l-.672-.672c.243-.299.569-.541.98-.728.42-.196.896-.294 1.428-.294.476 0 .877.065 1.204.196.327.121.588.289.784.504.205.215.35.467.434.756.093.289.14.597.14.924V231h-1.05v-1.176h-.084c-.187.42-.448.751-.784.994-.336.233-.77.35-1.302.35Zm.168-.952c.579 0 1.045-.168 1.4-.504.364-.345.546-.803.546-1.372v-.602l-1.764.126c-.933.075-1.4.467-1.4 1.176 0 .355.112.639.336.854.233.215.527.322.882.322Zm5.306-6.132h1.064v1.12h.084c.149-.364.364-.667.644-.91.28-.252.63-.378 1.05-.378.355 0 .667.07.938.21l-.378 1.008a1.148 1.148 0 0 0-.392-.126 1.935 1.935 0 0 0-.406-.042c-.457 0-.821.187-1.092.56-.261.364-.392.831-.392 1.4V231h-1.12v-6.916Zm5.223 0h1.064v1.092h.084c.168-.364.406-.663.714-.896.308-.243.7-.364 1.176-.364.793 0 1.418.21 1.876.63.466.42.7 1.097.7 2.03V231h-1.12v-4.214c0-.709-.145-1.209-.434-1.498-.28-.299-.696-.448-1.246-.448-.532 0-.948.182-1.246.546-.299.364-.448.896-.448 1.596V231h-1.12v-6.916Zm9.163-1.834c0 .196-.07.364-.21.504-.131.14-.308.21-.532.21-.233 0-.415-.07-.546-.21a.711.711 0 0 1-.196-.504c0-.187.065-.35.196-.49.131-.149.313-.224.546-.224.224 0 .401.075.532.224.14.14.21.303.21.49Zm-1.302 1.834h1.12V231h-1.12v-6.916Zm3.5 0h1.064v1.092h.084c.168-.364.406-.663.714-.896.308-.243.7-.364 1.176-.364.793 0 1.419.21 1.876.63.467.42.7 1.097.7 2.03V231h-1.12v-4.214c0-.709-.145-1.209-.434-1.498-.28-.299-.695-.448-1.246-.448-.532 0-.947.182-1.246.546-.299.364-.448.896-.448 1.596V231h-1.12v-6.916Zm10.619 9.674c-.597 0-1.115-.107-1.554-.322-.438-.205-.788-.462-1.05-.77l.742-.714c.196.243.448.434.756.574.318.149.668.224 1.05.224.598 0 1.064-.145 1.4-.434.346-.289.518-.798.518-1.526v-1.344h-.084a2.108 2.108 0 0 1-.322.63c-.14.177-.308.331-.504.462a2.61 2.61 0 0 1-.63.294 2.446 2.446 0 0 1-.686.098c-.438 0-.84-.079-1.204-.238a2.809 2.809 0 0 1-.938-.686 3.421 3.421 0 0 1-.616-1.12 4.871 4.871 0 0 1-.21-1.484c0-.541.07-1.027.21-1.456a3.29 3.29 0 0 1 .616-1.092 2.84 2.84 0 0 1 2.142-.938c.514 0 .971.135 1.372.406a1.9 1.9 0 0 1 .826 1.092h.084v-1.33h1.064v6.846c0 .849-.256 1.531-.77 2.044-.504.523-1.241.784-2.212.784Zm-.14-3.836c.616 0 1.102-.215 1.456-.644.364-.429.546-1.05.546-1.862 0-.821-.182-1.442-.546-1.862-.354-.42-.84-.63-1.456-.63-.625 0-1.124.21-1.498.63-.364.42-.546 1.041-.546 1.862 0 .812.182 1.433.546 1.862.374.429.873.644 1.498.644Z" fill="#000"/>
  <path d="M774 0h242c8.84 0 16 7.163 16 16v368c0 8.837-7.16 16-16 16H774V0Z" fill="#FFE9EA"/>
  <path d="M896.586 194.375a18.378 18.378 0 0 1-16.976-11.343 18.374 18.374 0 1 1 16.976 11.343Zm0-34.125a15.754 15.754 0 0 0-14.551 9.723 15.748 15.748 0 0 0 11.478 21.474 15.749 15.749 0 1 0 3.073-31.197Z" fill="#D50525"/>
  <path d="M894.407 167.167a6.883 6.883 0 0 1 4.358 0l-1.116 11.458h-2.126l-1.116-11.458Zm4.148 16.052a1.974 1.974 0 0 1-1.216 1.819 1.966 1.966 0 0 1-2.684-1.435 1.97 1.97 0 0 1 1.931-2.353 1.97 1.97 0 0 1 1.969 1.969Z" fill="#D50525"/>
  <path d="M882.374 221.9h4.872v1.008h-3.682v2.954h3.556v1.008h-3.556v3.122h3.78V231h-4.97v-9.1Zm6.998 2.184h1.064v1.12h.084c.149-.364.364-.667.644-.91.28-.252.63-.378 1.05-.378.354 0 .667.07.938.21l-.378 1.008a1.155 1.155 0 0 0-.392-.126 1.935 1.935 0 0 0-.406-.042 1.28 1.28 0 0 0-1.092.56c-.262.364-.392.831-.392 1.4V231h-1.12v-6.916Zm5.222 0h1.064v1.12h.084c.15-.364.364-.667.644-.91.28-.252.63-.378 1.05-.378.355 0 .668.07.938.21l-.378 1.008a1.148 1.148 0 0 0-.392-.126 1.928 1.928 0 0 0-.406-.042c-.457 0-.821.187-1.092.56-.261.364-.392.831-.392 1.4V231h-1.12v-6.916Zm7.611 7.084c-.551 0-1.036-.093-1.456-.28a3.1 3.1 0 0 1-1.036-.784 3.39 3.39 0 0 1-.616-1.148 4.921 4.921 0 0 1-.196-1.414c0-.504.065-.975.196-1.414a3.39 3.39 0 0 1 .616-1.148 2.95 2.95 0 0 1 1.036-.77c.42-.196.905-.294 1.456-.294.551 0 1.027.098 1.428.294a2.82 2.82 0 0 1 1.022.77c.271.327.471.709.602 1.148.14.439.21.91.21 1.414 0 .504-.07.975-.21 1.414a3.214 3.214 0 0 1-.602 1.148 2.958 2.958 0 0 1-1.022.784c-.401.187-.877.28-1.428.28Zm-2.156-3.626c0 .401.042.77.126 1.106.093.327.229.611.406.854.177.233.401.415.672.546.271.131.588.196.952.196.355 0 .663-.065.924-.196.271-.131.49-.313.658-.546.177-.243.308-.527.392-.854.093-.336.14-.705.14-1.106 0-.401-.047-.765-.14-1.092a2.328 2.328 0 0 0-.392-.854 1.665 1.665 0 0 0-.658-.56 2.037 2.037 0 0 0-.924-.196c-.364 0-.681.065-.952.196a1.772 1.772 0 0 0-.672.56 2.5 2.5 0 0 0-.406.854 4.39 4.39 0 0 0-.126 1.092Zm7.219-3.458h1.064v1.12h.084c.149-.364.364-.667.644-.91.28-.252.63-.378 1.05-.378.355 0 .667.07.938.21l-.378 1.008a1.148 1.148 0 0 0-.392-.126 1.935 1.935 0 0 0-.406-.042c-.457 0-.821.187-1.092.56-.261.364-.392.831-.392 1.4V231h-1.12v-6.916Z" fill="#000"/>
</svg>
