<svg width="443" height="337" viewBox="0 0 443 337" fill="none" xmlns="http://www.w3.org/2000/svg">
<g filter="url(#filter0_dddii_5670_84307)">
<g filter="url(#filter1_ddd_5670_84307)">
<rect x="133.605" y="80" width="177" height="177" rx="8" fill="white"/>
<rect x="134.605" y="81" width="175" height="175" rx="7" stroke="#8C867E" stroke-width="2"/>
</g>
<path d="M181.561 172.644C181.057 172.644 180.621 172.56 180.253 172.392C179.893 172.216 179.597 171.984 179.365 171.696C179.133 171.408 178.961 171.08 178.849 170.712C178.737 170.336 178.681 169.944 178.681 169.536C178.681 169.128 178.733 168.74 178.837 168.372C178.949 167.996 179.117 167.664 179.341 167.376C179.573 167.088 179.869 166.86 180.229 166.692C180.589 166.516 181.017 166.428 181.513 166.428C182.009 166.428 182.429 166.516 182.773 166.692C183.125 166.868 183.413 167.092 183.637 167.364L182.629 168.276C182.493 168.108 182.341 167.98 182.173 167.892C182.005 167.796 181.793 167.748 181.537 167.748C181.121 167.748 180.797 167.908 180.565 168.228C180.333 168.54 180.217 168.976 180.217 169.536C180.217 170.096 180.337 170.536 180.577 170.856C180.817 171.168 181.145 171.324 181.561 171.324C181.809 171.324 182.025 171.276 182.209 171.18C182.393 171.084 182.553 170.948 182.689 170.772L183.685 171.696C183.461 171.968 183.169 172.196 182.809 172.38C182.457 172.556 182.041 172.644 181.561 172.644ZM187.13 172.644C186.634 172.644 186.198 172.564 185.822 172.404C185.454 172.236 185.142 172.012 184.886 171.732C184.638 171.452 184.45 171.124 184.322 170.748C184.202 170.364 184.142 169.96 184.142 169.536C184.142 169.112 184.202 168.712 184.322 168.336C184.45 167.96 184.638 167.632 184.886 167.352C185.142 167.064 185.454 166.84 185.822 166.68C186.198 166.512 186.634 166.428 187.13 166.428C187.626 166.428 188.058 166.512 188.426 166.68C188.802 166.84 189.11 167.064 189.35 167.352C189.598 167.632 189.782 167.96 189.902 168.336C190.03 168.712 190.094 169.112 190.094 169.536C190.094 169.96 190.03 170.364 189.902 170.748C189.782 171.124 189.598 171.452 189.35 171.732C189.11 172.012 188.802 172.236 188.426 172.404C188.058 172.564 187.626 172.644 187.13 172.644ZM185.69 169.536C185.69 170.12 185.814 170.58 186.062 170.916C186.318 171.252 186.674 171.42 187.13 171.42C187.578 171.42 187.926 171.252 188.174 170.916C188.43 170.58 188.558 170.12 188.558 169.536C188.558 168.952 188.43 168.492 188.174 168.156C187.926 167.82 187.578 167.652 187.13 167.652C186.674 167.652 186.318 167.82 186.062 168.156C185.814 168.492 185.69 168.952 185.69 169.536ZM191.265 166.572H192.693V167.532H192.765C192.901 167.212 193.113 166.948 193.401 166.74C193.697 166.532 194.049 166.428 194.457 166.428C195.209 166.428 195.749 166.628 196.077 167.028C196.413 167.42 196.581 168.016 196.581 168.816V172.5H195.069V169.116C195.069 168.636 194.981 168.28 194.805 168.048C194.637 167.816 194.349 167.7 193.941 167.7C193.557 167.7 193.265 167.828 193.065 168.084C192.873 168.332 192.777 168.696 192.777 169.176V172.5H191.265V166.572ZM200.377 172.632C199.721 172.632 199.241 172.456 198.937 172.104C198.641 171.752 198.493 171.22 198.493 170.508V167.784H197.557V166.572H198.493V164.964H199.993V166.572H201.721V167.784H199.993V170.496C199.993 170.808 200.049 171.032 200.161 171.168C200.273 171.296 200.441 171.36 200.665 171.36C200.825 171.36 200.969 171.332 201.097 171.276C201.225 171.212 201.337 171.136 201.433 171.048L201.973 172.08C201.773 172.272 201.545 172.412 201.289 172.5C201.033 172.588 200.729 172.632 200.377 172.632ZM205.528 172.644C205.032 172.644 204.6 172.564 204.232 172.404C203.864 172.244 203.552 172.024 203.296 171.744C203.048 171.456 202.86 171.124 202.732 170.748C202.612 170.372 202.552 169.968 202.552 169.536C202.552 169.096 202.612 168.688 202.732 168.312C202.852 167.928 203.032 167.6 203.272 167.328C203.512 167.048 203.812 166.828 204.172 166.668C204.532 166.508 204.952 166.428 205.432 166.428C205.912 166.428 206.332 166.504 206.692 166.656C207.052 166.808 207.348 167.02 207.58 167.292C207.812 167.564 207.984 167.888 208.096 168.264C208.216 168.632 208.276 169.036 208.276 169.476C208.276 169.556 208.268 169.648 208.252 169.752C208.244 169.856 208.232 169.94 208.216 170.004H204.088C204.112 170.22 204.168 170.416 204.256 170.592C204.352 170.76 204.468 170.904 204.604 171.024C204.748 171.144 204.904 171.236 205.072 171.3C205.248 171.356 205.428 171.384 205.612 171.384C205.956 171.384 206.244 171.324 206.476 171.204C206.708 171.084 206.896 170.932 207.04 170.748L207.892 171.636C207.668 171.94 207.356 172.184 206.956 172.368C206.556 172.552 206.08 172.644 205.528 172.644ZM205.432 167.58C205.048 167.58 204.736 167.704 204.496 167.952C204.256 168.2 204.116 168.528 204.076 168.936H206.764C206.724 168.528 206.584 168.2 206.344 167.952C206.112 167.704 205.808 167.58 205.432 167.58ZM209.452 166.572H210.88V167.532H210.952C211.088 167.212 211.3 166.948 211.588 166.74C211.884 166.532 212.236 166.428 212.644 166.428C213.396 166.428 213.936 166.628 214.264 167.028C214.6 167.42 214.768 168.016 214.768 168.816V172.5H213.256V169.116C213.256 168.636 213.168 168.28 212.992 168.048C212.824 167.816 212.536 167.7 212.128 167.7C211.744 167.7 211.452 167.828 211.252 168.084C211.06 168.332 210.964 168.696 210.964 169.176V172.5H209.452V166.572ZM218.564 172.632C217.908 172.632 217.428 172.456 217.124 172.104C216.828 171.752 216.68 171.22 216.68 170.508V167.784H215.744V166.572H216.68V164.964H218.18V166.572H219.908V167.784H218.18V170.496C218.18 170.808 218.236 171.032 218.348 171.168C218.46 171.296 218.628 171.36 218.852 171.36C219.012 171.36 219.156 171.332 219.284 171.276C219.412 171.212 219.524 171.136 219.62 171.048L220.16 172.08C219.96 172.272 219.732 172.412 219.476 172.5C219.22 172.588 218.916 172.632 218.564 172.632ZM220.946 168.36H223.97V169.776H220.946V168.36ZM227.104 164.928C227.104 165.152 227.024 165.352 226.864 165.528C226.712 165.704 226.496 165.792 226.216 165.792C225.928 165.792 225.708 165.704 225.556 165.528C225.404 165.352 225.328 165.152 225.328 164.928C225.328 164.696 225.404 164.496 225.556 164.328C225.708 164.152 225.928 164.064 226.216 164.064C226.496 164.064 226.712 164.152 226.864 164.328C227.024 164.496 227.104 164.696 227.104 164.928ZM225.448 166.572H226.96V172.5H225.448V166.572ZM228.554 166.572H229.982V167.532H230.054C230.19 167.212 230.402 166.948 230.69 166.74C230.986 166.532 231.338 166.428 231.746 166.428C232.498 166.428 233.038 166.628 233.366 167.028C233.702 167.42 233.87 168.016 233.87 168.816V172.5H232.358V169.116C232.358 168.636 232.27 168.28 232.094 168.048C231.926 167.816 231.638 167.7 231.23 167.7C230.846 167.7 230.554 167.828 230.354 168.084C230.162 168.332 230.066 168.696 230.066 169.176V172.5H228.554V166.572ZM234.644 166.572H236.3L237.668 170.916H237.74L239.12 166.572H240.668L238.46 172.5H236.84L234.644 166.572ZM244.048 172.644C243.552 172.644 243.12 172.564 242.752 172.404C242.384 172.244 242.072 172.024 241.816 171.744C241.568 171.456 241.38 171.124 241.252 170.748C241.132 170.372 241.072 169.968 241.072 169.536C241.072 169.096 241.132 168.688 241.252 168.312C241.372 167.928 241.552 167.6 241.792 167.328C242.032 167.048 242.332 166.828 242.692 166.668C243.052 166.508 243.472 166.428 243.952 166.428C244.432 166.428 244.852 166.504 245.212 166.656C245.572 166.808 245.868 167.02 246.1 167.292C246.332 167.564 246.504 167.888 246.616 168.264C246.736 168.632 246.796 169.036 246.796 169.476C246.796 169.556 246.788 169.648 246.772 169.752C246.764 169.856 246.752 169.94 246.736 170.004H242.608C242.632 170.22 242.688 170.416 242.776 170.592C242.872 170.76 242.988 170.904 243.124 171.024C243.268 171.144 243.424 171.236 243.592 171.3C243.768 171.356 243.947 171.384 244.132 171.384C244.476 171.384 244.764 171.324 244.996 171.204C245.228 171.084 245.416 170.932 245.56 170.748L246.412 171.636C246.188 171.94 245.876 172.184 245.476 172.368C245.076 172.552 244.6 172.644 244.048 172.644ZM243.952 167.58C243.568 167.58 243.256 167.704 243.016 167.952C242.776 168.2 242.636 168.528 242.596 168.936H245.284C245.244 168.528 245.104 168.2 244.864 167.952C244.632 167.704 244.328 167.58 243.952 167.58ZM247.972 166.572H249.4V167.568H249.472C249.592 167.224 249.776 166.948 250.024 166.74C250.28 166.532 250.6 166.428 250.984 166.428C251.28 166.428 251.556 166.476 251.812 166.572L251.392 167.952C251.304 167.896 251.2 167.856 251.08 167.832C250.96 167.808 250.844 167.796 250.732 167.796C250.364 167.796 250.064 167.924 249.832 168.18C249.6 168.428 249.484 168.78 249.484 169.236V172.5H247.972V166.572ZM255.48 170.82C255.48 170.7 255.444 170.6 255.372 170.52C255.308 170.432 255.212 170.36 255.084 170.304C254.964 170.248 254.82 170.2 254.652 170.16C254.484 170.112 254.3 170.064 254.1 170.016C253.868 169.96 253.648 169.888 253.44 169.8C253.232 169.712 253.048 169.6 252.888 169.464C252.736 169.32 252.612 169.152 252.516 168.96C252.42 168.768 252.372 168.536 252.372 168.264C252.372 167.968 252.428 167.708 252.54 167.484C252.66 167.252 252.824 167.06 253.032 166.908C253.24 166.748 253.488 166.628 253.776 166.548C254.064 166.468 254.376 166.428 254.712 166.428C255.24 166.428 255.696 166.512 256.08 166.68C256.464 166.84 256.76 167.056 256.968 167.328L256.128 168.192C255.968 168.016 255.768 167.872 255.528 167.76C255.296 167.648 255.052 167.592 254.796 167.592C254.556 167.592 254.344 167.64 254.16 167.736C253.976 167.832 253.884 167.988 253.884 168.204C253.884 168.324 253.916 168.424 253.98 168.504C254.052 168.584 254.148 168.656 254.268 168.72C254.396 168.776 254.544 168.828 254.712 168.876C254.88 168.916 255.064 168.96 255.264 169.008C255.488 169.064 255.704 169.136 255.912 169.224C256.128 169.312 256.312 169.428 256.464 169.572C256.624 169.708 256.752 169.872 256.848 170.064C256.944 170.256 256.992 170.488 256.992 170.76C256.992 171.072 256.928 171.344 256.8 171.576C256.68 171.808 256.508 172.004 256.284 172.164C256.068 172.324 255.808 172.444 255.504 172.524C255.208 172.604 254.888 172.644 254.544 172.644C253.96 172.644 253.464 172.56 253.056 172.392C252.656 172.224 252.352 172.008 252.144 171.744L252.96 170.868C253.144 171.06 253.368 171.212 253.632 171.324C253.896 171.428 254.184 171.48 254.496 171.48C254.776 171.48 255.008 171.428 255.192 171.324C255.384 171.212 255.48 171.044 255.48 170.82ZM260.805 172.644C260.309 172.644 259.877 172.564 259.509 172.404C259.141 172.244 258.829 172.024 258.573 171.744C258.325 171.456 258.137 171.124 258.009 170.748C257.889 170.372 257.829 169.968 257.829 169.536C257.829 169.096 257.889 168.688 258.009 168.312C258.129 167.928 258.309 167.6 258.549 167.328C258.789 167.048 259.089 166.828 259.449 166.668C259.809 166.508 260.229 166.428 260.709 166.428C261.189 166.428 261.609 166.504 261.969 166.656C262.329 166.808 262.625 167.02 262.857 167.292C263.089 167.564 263.261 167.888 263.373 168.264C263.493 168.632 263.553 169.036 263.553 169.476C263.553 169.556 263.545 169.648 263.529 169.752C263.521 169.856 263.509 169.94 263.493 170.004H259.365C259.389 170.22 259.445 170.416 259.533 170.592C259.629 170.76 259.745 170.904 259.881 171.024C260.025 171.144 260.181 171.236 260.349 171.3C260.525 171.356 260.705 171.384 260.889 171.384C261.233 171.384 261.521 171.324 261.753 171.204C261.985 171.084 262.173 170.932 262.317 170.748L263.169 171.636C262.945 171.94 262.633 172.184 262.233 172.368C261.833 172.552 261.357 172.644 260.805 172.644ZM260.709 167.58C260.325 167.58 260.013 167.704 259.773 167.952C259.533 168.2 259.393 168.528 259.353 168.936H262.041C262.001 168.528 261.861 168.2 261.621 167.952C261.389 167.704 261.085 167.58 260.709 167.58Z" fill="black" fill-opacity="0.76"/>
</g>
<path d="M9.74292 8.5C9.74902 7.52963 10.0931 6.5917 10.7159 5.84754C11.3387 5.10337 12.2013 4.59947 13.1554 4.4225C12.7283 4.03624 12.2405 3.72289 11.7117 3.495C11.0229 3.1892 10.2777 3.03122 9.52417 3.03125C8.07377 3.03125 6.68277 3.60742 5.65718 4.63301C4.63159 5.6586 4.05542 7.0496 4.05542 8.5C4.05542 9.9504 4.63159 11.3414 5.65718 12.367C6.68277 13.3926 8.07377 13.9688 9.52417 13.9688C10.2777 13.9688 11.0229 13.8108 11.7117 13.505C12.2405 13.2771 12.7283 12.9638 13.1554 12.5775C12.2013 12.4005 11.3387 11.8966 10.7159 11.1525C10.0931 10.4083 9.74902 9.47037 9.74292 8.5ZM9.52417 12.6562C8.9419 12.6646 8.36438 12.5504 7.82905 12.3212C7.29372 12.0921 6.81253 11.7529 6.41666 11.3259C6.02079 10.8988 5.71909 10.3933 5.5311 9.84213C5.34312 9.29098 5.27305 8.70648 5.32543 8.12651C5.37782 7.54655 5.5515 6.98406 5.8352 6.47552C6.11891 5.96698 6.50632 5.52373 6.97231 5.1745C7.4383 4.82528 7.97248 4.57787 8.54021 4.44833C9.10794 4.31878 9.69657 4.30998 10.2679 4.4225C9.69026 4.9332 9.2277 5.56081 8.91089 6.26376C8.59408 6.96671 8.43025 7.72896 8.43025 8.5C8.43025 9.27104 8.59408 10.0333 8.91089 10.7362C9.2277 11.4392 9.69026 12.0668 10.2679 12.5775C10.0229 12.6262 9.77396 12.6526 9.52417 12.6562Z" fill="white"/>
<path d="M21.4815 4.7H24.4455C25.0775 4.7 25.6255 4.8 26.0895 5C26.5535 5.2 26.9375 5.476 27.2415 5.828C27.5455 6.18 27.7695 6.592 27.9135 7.064C28.0655 7.536 28.1415 8.048 28.1415 8.6C28.1415 9.144 28.0655 9.652 27.9135 10.124C27.7615 10.596 27.5335 11.008 27.2295 11.36C26.9255 11.712 26.5415 11.992 26.0775 12.2C25.6135 12.4 25.0695 12.5 24.4455 12.5H21.4815V4.7ZM24.4215 11.204C25.0695 11.204 25.5775 10.976 25.9455 10.52C26.3135 10.056 26.4975 9.42 26.4975 8.612C26.4975 7.78 26.3135 7.136 25.9455 6.68C25.5775 6.224 25.0695 5.996 24.4215 5.996H23.0895V11.204H24.4215ZM30.9243 12.644C30.6603 12.644 30.4083 12.6 30.1683 12.512C29.9363 12.432 29.7323 12.316 29.5563 12.164C29.3803 12.004 29.2403 11.812 29.1363 11.588C29.0403 11.364 28.9923 11.112 28.9923 10.832C28.9923 10.304 29.1803 9.884 29.5563 9.572C29.9323 9.26 30.5043 9.084 31.2723 9.044L32.6643 8.96V8.72C32.6643 8.336 32.5483 8.072 32.3163 7.928C32.0843 7.784 31.7963 7.712 31.4523 7.712C31.1803 7.712 30.9243 7.764 30.6843 7.868C30.4443 7.964 30.2643 8.084 30.1443 8.228L29.2923 7.364C29.5003 7.092 29.8003 6.868 30.1923 6.692C30.5923 6.516 31.0803 6.428 31.6562 6.428C32.5043 6.428 33.1363 6.624 33.5523 7.016C33.9683 7.408 34.1763 7.94 34.1763 8.612V12.5H32.7483V11.552H32.6763C32.5243 11.888 32.3043 12.156 32.0163 12.356C31.7283 12.548 31.3643 12.644 30.9243 12.644ZM31.3683 11.552C31.7523 11.552 32.0643 11.444 32.3043 11.228C32.5443 11.004 32.6643 10.692 32.6643 10.292V9.896L31.4523 9.992C30.8283 10.032 30.5163 10.296 30.5163 10.784C30.5163 11.032 30.5963 11.224 30.7563 11.36C30.9163 11.488 31.1203 11.552 31.3683 11.552ZM35.6592 6.572H37.0872V7.568H37.1592C37.2792 7.224 37.4632 6.948 37.7112 6.74C37.9672 6.532 38.2872 6.428 38.6712 6.428C38.9672 6.428 39.2432 6.476 39.4992 6.572L39.0792 7.952C38.9912 7.896 38.8872 7.856 38.7672 7.832C38.6472 7.808 38.5312 7.796 38.4192 7.796C38.0512 7.796 37.7512 7.924 37.5192 8.18C37.2872 8.428 37.1712 8.78 37.1712 9.236V12.5H35.6592V6.572ZM41.8938 12.5H40.3818V3.8H41.8938V9.308H41.9658L44.2098 6.572H45.9138L43.6098 9.2L46.0218 12.5H44.2098L42.5658 10.148L41.8938 10.952V12.5ZM52.1306 12.632C51.4746 12.632 50.9946 12.456 50.6906 12.104C50.3946 11.752 50.2466 11.22 50.2466 10.508V7.784H49.3106V6.572H50.2466V4.964H51.7466V6.572H53.4746V7.784H51.7466V10.496C51.7466 10.808 51.8026 11.032 51.9146 11.168C52.0266 11.296 52.1946 11.36 52.4186 11.36C52.5786 11.36 52.7226 11.332 52.8506 11.276C52.9786 11.212 53.0906 11.136 53.1866 11.048L53.7266 12.08C53.5266 12.272 53.2986 12.412 53.0426 12.5C52.7866 12.588 52.4826 12.632 52.1306 12.632ZM54.749 3.8H56.261V7.376H56.333C56.477 7.104 56.685 6.88 56.957 6.704C57.229 6.52 57.557 6.428 57.941 6.428C58.693 6.428 59.233 6.628 59.561 7.028C59.897 7.42 60.065 8.016 60.065 8.816V12.5H58.553V9.116C58.553 8.636 58.465 8.28 58.289 8.048C58.121 7.816 57.833 7.7 57.425 7.7C57.041 7.7 56.749 7.828 56.549 8.084C56.357 8.332 56.261 8.696 56.261 9.176V12.5H54.749V3.8ZM64.1256 12.644C63.6296 12.644 63.1976 12.564 62.8296 12.404C62.4616 12.244 62.1496 12.024 61.8936 11.744C61.6456 11.456 61.4576 11.124 61.3296 10.748C61.2096 10.372 61.1496 9.968 61.1496 9.536C61.1496 9.096 61.2096 8.688 61.3296 8.312C61.4496 7.928 61.6296 7.6 61.8696 7.328C62.1096 7.048 62.4096 6.828 62.7696 6.668C63.1296 6.508 63.5496 6.428 64.0296 6.428C64.5096 6.428 64.9296 6.504 65.2896 6.656C65.6496 6.808 65.9456 7.02 66.1776 7.292C66.4096 7.564 66.5816 7.888 66.6936 8.264C66.8136 8.632 66.8736 9.036 66.8736 9.476C66.8736 9.556 66.8656 9.648 66.8496 9.752C66.8416 9.856 66.8296 9.94 66.8136 10.004H62.6856C62.7096 10.22 62.7656 10.416 62.8536 10.592C62.9496 10.76 63.0656 10.904 63.2016 11.024C63.3456 11.144 63.5016 11.236 63.6696 11.3C63.8456 11.356 64.0256 11.384 64.2096 11.384C64.5536 11.384 64.8416 11.324 65.0736 11.204C65.3056 11.084 65.4936 10.932 65.6376 10.748L66.4896 11.636C66.2656 11.94 65.9536 12.184 65.5536 12.368C65.1536 12.552 64.6776 12.644 64.1256 12.644ZM64.0296 7.58C63.6456 7.58 63.3336 7.704 63.0936 7.952C62.8536 8.2 62.7136 8.528 62.6736 8.936H65.3616C65.3216 8.528 65.1816 8.2 64.9416 7.952C64.7096 7.704 64.4056 7.58 64.0296 7.58ZM68.0498 6.572H69.4778V7.472H69.5498C69.7018 7.16 69.9138 6.908 70.1858 6.716C70.4658 6.524 70.8058 6.428 71.2058 6.428C72.1818 6.428 72.8098 6.796 73.0898 7.532C73.2418 7.196 73.4778 6.928 73.7978 6.728C74.1178 6.528 74.4938 6.428 74.9258 6.428C75.6458 6.428 76.1738 6.628 76.5098 7.028C76.8458 7.42 77.0138 8.016 77.0138 8.816V12.5H75.5018V9.068C75.5018 8.156 75.1378 7.7 74.4098 7.7C74.0338 7.7 73.7498 7.824 73.5578 8.072C73.3738 8.32 73.2818 8.676 73.2818 9.14V12.5H71.7698V9.068C71.7698 8.612 71.6818 8.272 71.5058 8.048C71.3378 7.816 71.0618 7.7 70.6778 7.7C70.3178 7.7 70.0418 7.824 69.8498 8.072C69.6578 8.32 69.5618 8.676 69.5618 9.14V12.5H68.0498V6.572ZM81.0827 12.644C80.5867 12.644 80.1547 12.564 79.7867 12.404C79.4187 12.244 79.1067 12.024 78.8507 11.744C78.6027 11.456 78.4147 11.124 78.2867 10.748C78.1667 10.372 78.1067 9.968 78.1067 9.536C78.1067 9.096 78.1667 8.688 78.2867 8.312C78.4067 7.928 78.5867 7.6 78.8267 7.328C79.0667 7.048 79.3667 6.828 79.7267 6.668C80.0867 6.508 80.5067 6.428 80.9867 6.428C81.4667 6.428 81.8867 6.504 82.2467 6.656C82.6067 6.808 82.9027 7.02 83.1347 7.292C83.3667 7.564 83.5387 7.888 83.6507 8.264C83.7707 8.632 83.8307 9.036 83.8307 9.476C83.8307 9.556 83.8227 9.648 83.8067 9.752C83.7987 9.856 83.7867 9.94 83.7707 10.004H79.6427C79.6667 10.22 79.7227 10.416 79.8107 10.592C79.9067 10.76 80.0227 10.904 80.1587 11.024C80.3027 11.144 80.4587 11.236 80.6267 11.3C80.8027 11.356 80.9827 11.384 81.1667 11.384C81.5107 11.384 81.7987 11.324 82.0307 11.204C82.2627 11.084 82.4507 10.932 82.5947 10.748L83.4467 11.636C83.2227 11.94 82.9107 12.184 82.5107 12.368C82.1107 12.552 81.6347 12.644 81.0827 12.644ZM80.9867 7.58C80.6027 7.58 80.2907 7.704 80.0507 7.952C79.8107 8.2 79.6707 8.528 79.6307 8.936H82.3187C82.2787 8.528 82.1387 8.2 81.8987 7.952C81.6667 7.704 81.3627 7.58 80.9867 7.58Z" fill="white" fill-opacity="0.9"/>
<g clip-path="url(#clip0_5670_84307)">
<path d="M1.82422 30.7188V42.5312H15.3867V30.7188H1.82422ZM14.0742 32.0312V36.3187C13.8861 37.0181 13.4304 37.6153 12.8055 37.9813C11.0555 39.0837 9.88297 38.5062 8.43047 37.7887C6.97797 37.0712 5.36797 36.275 3.18047 37.2638V32.0138L14.0742 32.0312ZM3.13672 41.2188V38.7513C5.10547 37.6313 6.36547 38.2438 7.83547 38.9613C8.77351 39.5141 9.82876 39.8379 10.9155 39.9062C11.8347 39.8877 12.7299 39.6085 13.4967 39.1012C13.6988 38.9717 13.8917 38.8285 14.0742 38.6725V41.2188H3.13672ZM10.793 37.5C11.2256 37.5 11.6485 37.3717 12.0083 37.1313C12.368 36.891 12.6484 36.5493 12.814 36.1496C12.9795 35.7499 13.0228 35.3101 12.9384 34.8857C12.854 34.4614 12.6457 34.0716 12.3398 33.7657C12.0338 33.4598 11.6441 33.2514 11.2197 33.167C10.7954 33.0826 10.3556 33.1259 9.95585 33.2915C9.55614 33.4571 9.21449 33.7375 8.97413 34.0972C8.73376 34.4569 8.60547 34.8799 8.60547 35.3125C8.60547 35.8927 8.83594 36.4491 9.24617 36.8593C9.65641 37.2695 10.2128 37.5 10.793 37.5ZM10.793 34.4375C10.966 34.4375 11.1352 34.4888 11.2791 34.585C11.423 34.6811 11.5351 34.8178 11.6014 34.9777C11.6676 35.1375 11.6849 35.3135 11.6512 35.4832C11.6174 35.6529 11.5341 35.8088 11.4117 35.9312C11.2893 36.0536 11.1334 36.1369 10.9637 36.1707C10.7939 36.2044 10.618 36.1871 10.4581 36.1209C10.2982 36.0547 10.1616 35.9425 10.0654 35.7986C9.96929 35.6547 9.91797 35.4856 9.91797 35.3125C9.91797 35.0804 10.0102 34.8579 10.1743 34.6938C10.3383 34.5297 10.5609 34.4375 10.793 34.4375Z" fill="white"/>
</g>
<path d="M21.0255 39.336H21.9015V33.864H21.0255V32.7H24.3735V33.864H23.4975V39.336H24.3735V40.5H21.0255V39.336ZM25.5811 34.572H27.0091V35.532H27.0811C27.2171 35.212 27.4291 34.948 27.7171 34.74C28.0131 34.532 28.3651 34.428 28.7731 34.428C29.5251 34.428 30.0651 34.628 30.3931 35.028C30.7291 35.42 30.8971 36.016 30.8971 36.816V40.5H29.3851V37.116C29.3851 36.636 29.2971 36.28 29.1211 36.048C28.9531 35.816 28.6651 35.7 28.2571 35.7C27.8731 35.7 27.5811 35.828 27.3811 36.084C27.1891 36.332 27.0931 36.696 27.0931 37.176V40.5H25.5811V34.572ZM31.6716 34.572H33.3276L34.6956 38.916H34.7676L36.1476 34.572H37.6956L35.4876 40.5H33.8676L31.6716 34.572ZM41.0748 40.644C40.5788 40.644 40.1468 40.564 39.7788 40.404C39.4108 40.244 39.0988 40.024 38.8428 39.744C38.5948 39.456 38.4068 39.124 38.2788 38.748C38.1588 38.372 38.0988 37.968 38.0988 37.536C38.0988 37.096 38.1588 36.688 38.2788 36.312C38.3988 35.928 38.5788 35.6 38.8188 35.328C39.0588 35.048 39.3588 34.828 39.7188 34.668C40.0788 34.508 40.4988 34.428 40.9788 34.428C41.4588 34.428 41.8788 34.504 42.2388 34.656C42.5988 34.808 42.8948 35.02 43.1268 35.292C43.3588 35.564 43.5308 35.888 43.6428 36.264C43.7628 36.632 43.8228 37.036 43.8228 37.476C43.8228 37.556 43.8148 37.648 43.7988 37.752C43.7908 37.856 43.7788 37.94 43.7628 38.004H39.6348C39.6588 38.22 39.7148 38.416 39.8028 38.592C39.8988 38.76 40.0148 38.904 40.1508 39.024C40.2948 39.144 40.4508 39.236 40.6188 39.3C40.7948 39.356 40.9748 39.384 41.1588 39.384C41.5028 39.384 41.7908 39.324 42.0228 39.204C42.2548 39.084 42.4428 38.932 42.5868 38.748L43.4388 39.636C43.2148 39.94 42.9028 40.184 42.5028 40.368C42.1028 40.552 41.6268 40.644 41.0748 40.644ZM40.9788 35.58C40.5948 35.58 40.2828 35.704 40.0428 35.952C39.8028 36.2 39.6628 36.528 39.6228 36.936H42.3108C42.2708 36.528 42.1308 36.2 41.8908 35.952C41.6588 35.704 41.3548 35.58 40.9788 35.58ZM44.999 34.572H46.427V35.568H46.499C46.619 35.224 46.803 34.948 47.051 34.74C47.307 34.532 47.627 34.428 48.011 34.428C48.307 34.428 48.583 34.476 48.839 34.572L48.419 35.952C48.331 35.896 48.227 35.856 48.107 35.832C47.987 35.808 47.871 35.796 47.759 35.796C47.391 35.796 47.091 35.924 46.859 36.18C46.627 36.428 46.511 36.78 46.511 37.236V40.5H44.999V34.572ZM52.5071 38.82C52.5071 38.7 52.4711 38.6 52.3991 38.52C52.3351 38.432 52.2391 38.36 52.1111 38.304C51.9911 38.248 51.8471 38.2 51.6791 38.16C51.5111 38.112 51.3271 38.064 51.1271 38.016C50.8951 37.96 50.6751 37.888 50.4671 37.8C50.2591 37.712 50.0751 37.6 49.9151 37.464C49.7631 37.32 49.6391 37.152 49.5431 36.96C49.4471 36.768 49.3991 36.536 49.3991 36.264C49.3991 35.968 49.4551 35.708 49.5671 35.484C49.6871 35.252 49.8511 35.06 50.0591 34.908C50.2671 34.748 50.5151 34.628 50.8031 34.548C51.0911 34.468 51.4031 34.428 51.7391 34.428C52.2671 34.428 52.7231 34.512 53.1071 34.68C53.4911 34.84 53.7871 35.056 53.9951 35.328L53.1551 36.192C52.9951 36.016 52.7951 35.872 52.5551 35.76C52.3231 35.648 52.0791 35.592 51.8231 35.592C51.5831 35.592 51.3711 35.64 51.1871 35.736C51.0031 35.832 50.9111 35.988 50.9111 36.204C50.9111 36.324 50.9431 36.424 51.0071 36.504C51.0791 36.584 51.1751 36.656 51.2951 36.72C51.4231 36.776 51.5711 36.828 51.7391 36.876C51.9071 36.916 52.0911 36.96 52.2911 37.008C52.5151 37.064 52.7311 37.136 52.9391 37.224C53.1551 37.312 53.3391 37.428 53.4911 37.572C53.6511 37.708 53.7791 37.872 53.8751 38.064C53.9711 38.256 54.0191 38.488 54.0191 38.76C54.0191 39.072 53.9551 39.344 53.8271 39.576C53.7071 39.808 53.5351 40.004 53.3111 40.164C53.0951 40.324 52.8351 40.444 52.5311 40.524C52.2351 40.604 51.9151 40.644 51.5711 40.644C50.9871 40.644 50.4911 40.56 50.0831 40.392C49.6831 40.224 49.3791 40.008 49.1711 39.744L49.9871 38.868C50.1711 39.06 50.3951 39.212 50.6591 39.324C50.9231 39.428 51.2111 39.48 51.5231 39.48C51.8031 39.48 52.0351 39.428 52.2191 39.324C52.4111 39.212 52.5071 39.044 52.5071 38.82ZM57.8327 40.644C57.3367 40.644 56.9047 40.564 56.5367 40.404C56.1687 40.244 55.8567 40.024 55.6007 39.744C55.3527 39.456 55.1647 39.124 55.0367 38.748C54.9167 38.372 54.8567 37.968 54.8567 37.536C54.8567 37.096 54.9167 36.688 55.0367 36.312C55.1567 35.928 55.3367 35.6 55.5767 35.328C55.8167 35.048 56.1167 34.828 56.4767 34.668C56.8367 34.508 57.2567 34.428 57.7367 34.428C58.2167 34.428 58.6367 34.504 58.9967 34.656C59.3567 34.808 59.6527 35.02 59.8847 35.292C60.1167 35.564 60.2887 35.888 60.4007 36.264C60.5207 36.632 60.5807 37.036 60.5807 37.476C60.5807 37.556 60.5727 37.648 60.5567 37.752C60.5487 37.856 60.5367 37.94 60.5207 38.004H56.3927C56.4167 38.22 56.4727 38.416 56.5607 38.592C56.6567 38.76 56.7727 38.904 56.9087 39.024C57.0527 39.144 57.2087 39.236 57.3767 39.3C57.5527 39.356 57.7327 39.384 57.9167 39.384C58.2607 39.384 58.5487 39.324 58.7807 39.204C59.0127 39.084 59.2007 38.932 59.3447 38.748L60.1967 39.636C59.9727 39.94 59.6607 40.184 59.2607 40.368C58.8607 40.552 58.3847 40.644 57.8327 40.644ZM57.7367 35.58C57.3527 35.58 57.0407 35.704 56.8007 35.952C56.5607 36.2 56.4207 36.528 56.3807 36.936H59.0687C59.0287 36.528 58.8887 36.2 58.6487 35.952C58.4167 35.704 58.1127 35.58 57.7367 35.58ZM68.0837 40.644C67.6197 40.644 67.2157 40.532 66.8717 40.308C66.5357 40.084 66.2957 39.776 66.1517 39.384H66.0797V40.5H64.6397V31.8H66.1517V35.592H66.2237C66.3597 35.248 66.5877 34.968 66.9077 34.752C67.2277 34.536 67.6197 34.428 68.0837 34.428C68.4517 34.428 68.7917 34.504 69.1037 34.656C69.4237 34.808 69.6957 35.024 69.9197 35.304C70.1517 35.576 70.3317 35.904 70.4597 36.288C70.5877 36.672 70.6517 37.096 70.6517 37.56C70.6517 38.016 70.5877 38.436 70.4597 38.82C70.3317 39.196 70.1517 39.52 69.9197 39.792C69.6957 40.056 69.4237 40.264 69.1037 40.416C68.7917 40.568 68.4517 40.644 68.0837 40.644ZM67.6157 39.324C68.0637 39.324 68.4237 39.164 68.6957 38.844C68.9677 38.524 69.1037 38.088 69.1037 37.536C69.1037 36.984 68.9677 36.548 68.6957 36.228C68.4237 35.908 68.0637 35.748 67.6157 35.748C67.1757 35.748 66.8197 35.908 66.5477 36.228C66.2837 36.548 66.1517 36.984 66.1517 37.536C66.1517 38.088 66.2837 38.524 66.5477 38.844C66.8197 39.164 67.1757 39.324 67.6157 39.324ZM73.311 40.644C73.047 40.644 72.795 40.6 72.555 40.512C72.323 40.432 72.119 40.316 71.943 40.164C71.767 40.004 71.627 39.812 71.523 39.588C71.427 39.364 71.379 39.112 71.379 38.832C71.379 38.304 71.567 37.884 71.943 37.572C72.319 37.26 72.891 37.084 73.659 37.044L75.051 36.96V36.72C75.051 36.336 74.935 36.072 74.703 35.928C74.471 35.784 74.183 35.712 73.839 35.712C73.567 35.712 73.311 35.764 73.071 35.868C72.831 35.964 72.651 36.084 72.531 36.228L71.679 35.364C71.887 35.092 72.187 34.868 72.579 34.692C72.979 34.516 73.467 34.428 74.043 34.428C74.891 34.428 75.523 34.624 75.939 35.016C76.355 35.408 76.563 35.94 76.563 36.612V40.5H75.135V39.552H75.063C74.911 39.888 74.691 40.156 74.403 40.356C74.115 40.548 73.751 40.644 73.311 40.644ZM73.755 39.552C74.139 39.552 74.451 39.444 74.691 39.228C74.931 39.004 75.051 38.692 75.051 38.292V37.896L73.839 37.992C73.215 38.032 72.903 38.296 72.903 38.784C72.903 39.032 72.983 39.224 73.143 39.36C73.303 39.488 73.507 39.552 73.755 39.552ZM80.5419 40.644C80.0379 40.644 79.6019 40.56 79.2339 40.392C78.8739 40.216 78.5779 39.984 78.3459 39.696C78.1139 39.408 77.9419 39.08 77.8299 38.712C77.7179 38.336 77.6619 37.944 77.6619 37.536C77.6619 37.128 77.7139 36.74 77.8179 36.372C77.9299 35.996 78.0979 35.664 78.3219 35.376C78.5539 35.088 78.8499 34.86 79.2099 34.692C79.5699 34.516 79.9979 34.428 80.4939 34.428C80.9899 34.428 81.4099 34.516 81.7539 34.692C82.1059 34.868 82.3939 35.092 82.6179 35.364L81.6099 36.276C81.4739 36.108 81.3219 35.98 81.1539 35.892C80.9859 35.796 80.7739 35.748 80.5179 35.748C80.1019 35.748 79.7779 35.908 79.5459 36.228C79.3139 36.54 79.1979 36.976 79.1979 37.536C79.1979 38.096 79.3179 38.536 79.5579 38.856C79.7979 39.168 80.1259 39.324 80.5419 39.324C80.7899 39.324 81.0059 39.276 81.1899 39.18C81.3739 39.084 81.5339 38.948 81.6699 38.772L82.6659 39.696C82.4419 39.968 82.1499 40.196 81.7899 40.38C81.4379 40.556 81.0219 40.644 80.5419 40.644ZM85.2181 40.5H83.7061V31.8H85.2181V37.308H85.2901L87.5341 34.572H89.2381L86.9341 37.2L89.3461 40.5H87.5341L85.8901 38.148L85.2181 38.952V40.5ZM92.4822 42.864C91.9622 42.864 91.5022 42.772 91.1022 42.588C90.7102 42.412 90.4102 42.196 90.2022 41.94L91.1142 41.016C91.2502 41.184 91.4382 41.32 91.6782 41.424C91.9262 41.528 92.1902 41.58 92.4702 41.58C92.6622 41.58 92.8462 41.556 93.0222 41.508C93.1982 41.468 93.3502 41.396 93.4782 41.292C93.6062 41.196 93.7062 41.064 93.7782 40.896C93.8582 40.728 93.8982 40.516 93.8982 40.26V39.132H93.8382C93.7102 39.484 93.4902 39.768 93.1782 39.984C92.8742 40.192 92.5062 40.296 92.0742 40.296C91.7142 40.296 91.3822 40.228 91.0782 40.092C90.7822 39.948 90.5262 39.748 90.3102 39.492C90.1022 39.228 89.9382 38.916 89.8182 38.556C89.7062 38.188 89.6502 37.776 89.6502 37.32C89.6502 36.88 89.7062 36.484 89.8182 36.132C89.9382 35.78 90.1062 35.48 90.3222 35.232C90.5382 34.976 90.7942 34.78 91.0902 34.644C91.3942 34.508 91.7262 34.44 92.0862 34.44C92.5342 34.44 92.9142 34.544 93.2262 34.752C93.5462 34.96 93.7742 35.248 93.9102 35.616H93.9822V34.572H95.4102V40.332C95.4102 41.132 95.1502 41.752 94.6302 42.192C94.1102 42.64 93.3942 42.864 92.4822 42.864ZM92.5422 39.036C92.9822 39.036 93.3182 38.88 93.5502 38.568C93.7822 38.248 93.8982 37.844 93.8982 37.356C93.8982 36.852 93.7822 36.448 93.5502 36.144C93.3182 35.832 92.9822 35.676 92.5422 35.676C92.1102 35.676 91.7742 35.832 91.5342 36.144C91.3022 36.448 91.1862 36.852 91.1862 37.356C91.1862 37.844 91.3022 38.248 91.5342 38.568C91.7742 38.88 92.1102 39.036 92.5422 39.036ZM96.9951 34.572H98.4231V35.568H98.4951C98.6151 35.224 98.7991 34.948 99.0471 34.74C99.3031 34.532 99.6231 34.428 100.007 34.428C100.303 34.428 100.579 34.476 100.835 34.572L100.415 35.952C100.327 35.896 100.223 35.856 100.103 35.832C99.9831 35.808 99.8671 35.796 99.7551 35.796C99.3871 35.796 99.0871 35.924 98.8551 36.18C98.6231 36.428 98.5071 36.78 98.5071 37.236V40.5H96.9951V34.572ZM104.11 40.644C103.614 40.644 103.178 40.564 102.802 40.404C102.434 40.236 102.122 40.012 101.866 39.732C101.618 39.452 101.43 39.124 101.302 38.748C101.182 38.364 101.122 37.96 101.122 37.536C101.122 37.112 101.182 36.712 101.302 36.336C101.43 35.96 101.618 35.632 101.866 35.352C102.122 35.064 102.434 34.84 102.802 34.68C103.178 34.512 103.614 34.428 104.11 34.428C104.606 34.428 105.038 34.512 105.406 34.68C105.782 34.84 106.09 35.064 106.33 35.352C106.578 35.632 106.762 35.96 106.882 36.336C107.01 36.712 107.074 37.112 107.074 37.536C107.074 37.96 107.01 38.364 106.882 38.748C106.762 39.124 106.578 39.452 106.33 39.732C106.09 40.012 105.782 40.236 105.406 40.404C105.038 40.564 104.606 40.644 104.11 40.644ZM102.67 37.536C102.67 38.12 102.794 38.58 103.042 38.916C103.298 39.252 103.654 39.42 104.11 39.42C104.558 39.42 104.906 39.252 105.154 38.916C105.41 38.58 105.538 38.12 105.538 37.536C105.538 36.952 105.41 36.492 105.154 36.156C104.906 35.82 104.558 35.652 104.11 35.652C103.654 35.652 103.298 35.82 103.042 36.156C102.794 36.492 102.67 36.952 102.67 37.536ZM110.237 40.644C109.509 40.644 108.981 40.448 108.653 40.056C108.325 39.656 108.161 39.056 108.161 38.256V34.572H109.673V37.956C109.673 38.436 109.757 38.792 109.925 39.024C110.093 39.256 110.369 39.372 110.753 39.372C111.121 39.372 111.397 39.248 111.581 39C111.773 38.744 111.869 38.376 111.869 37.896V34.572H113.381V40.5H111.953V39.54H111.881C111.745 39.86 111.537 40.124 111.257 40.332C110.977 40.54 110.637 40.644 110.237 40.644ZM114.96 34.572H116.388V35.532H116.46C116.596 35.212 116.808 34.948 117.096 34.74C117.392 34.532 117.744 34.428 118.152 34.428C118.904 34.428 119.444 34.628 119.772 35.028C120.108 35.42 120.276 36.016 120.276 36.816V40.5H118.764V37.116C118.764 36.636 118.676 36.28 118.5 36.048C118.332 35.816 118.044 35.7 117.636 35.7C117.252 35.7 116.96 35.828 116.76 36.084C116.568 36.332 116.472 36.696 116.472 37.176V40.5H114.96V34.572ZM123.964 40.644C123.588 40.644 123.244 40.568 122.932 40.416C122.62 40.264 122.352 40.056 122.128 39.792C121.904 39.52 121.728 39.196 121.6 38.82C121.472 38.436 121.408 38.016 121.408 37.56C121.408 37.096 121.472 36.672 121.6 36.288C121.728 35.904 121.904 35.576 122.128 35.304C122.352 35.024 122.62 34.808 122.932 34.656C123.244 34.504 123.588 34.428 123.964 34.428C124.428 34.428 124.816 34.536 125.128 34.752C125.448 34.968 125.676 35.248 125.812 35.592H125.884V31.8H127.396V40.5H125.968V39.384H125.896C125.752 39.776 125.508 40.084 125.164 40.308C124.828 40.532 124.428 40.644 123.964 40.644ZM124.42 39.324C124.868 39.324 125.224 39.164 125.488 38.844C125.752 38.524 125.884 38.088 125.884 37.536C125.884 36.984 125.752 36.548 125.488 36.228C125.224 35.908 124.868 35.748 124.42 35.748C123.972 35.748 123.616 35.908 123.352 36.228C123.088 36.548 122.956 36.984 122.956 37.536C122.956 38.088 123.088 38.524 123.352 38.844C123.616 39.164 123.972 39.324 124.42 39.324Z" fill="white" fill-opacity="0.9"/>
<path d="M3.68947 60.7H5.66947L8.56147 68.5H6.85747L6.32947 67.036H2.96947L2.44147 68.5H0.809469L3.68947 60.7ZM3.42547 65.764H5.87347L4.67347 62.2H4.60147L3.42547 65.764ZM11.0297 68.644C10.7657 68.644 10.5137 68.6 10.2737 68.512C10.0417 68.432 9.83772 68.316 9.66172 68.164C9.48572 68.004 9.34572 67.812 9.24172 67.588C9.14572 67.364 9.09772 67.112 9.09772 66.832C9.09772 66.304 9.28572 65.884 9.66172 65.572C10.0377 65.26 10.6097 65.084 11.3777 65.044L12.7697 64.96V64.72C12.7697 64.336 12.6537 64.072 12.4217 63.928C12.1897 63.784 11.9017 63.712 11.5577 63.712C11.2857 63.712 11.0297 63.764 10.7897 63.868C10.5497 63.964 10.3697 64.084 10.2497 64.228L9.39772 63.364C9.60572 63.092 9.90572 62.868 10.2977 62.692C10.6977 62.516 11.1857 62.428 11.7617 62.428C12.6097 62.428 13.2417 62.624 13.6577 63.016C14.0737 63.408 14.2817 63.94 14.2817 64.612V68.5H12.8537V67.552H12.7817C12.6297 67.888 12.4097 68.156 12.1217 68.356C11.8337 68.548 11.4697 68.644 11.0297 68.644ZM11.4737 67.552C11.8577 67.552 12.1697 67.444 12.4097 67.228C12.6497 67.004 12.7697 66.692 12.7697 66.292V65.896L11.5577 65.992C10.9337 66.032 10.6217 66.296 10.6217 66.784C10.6217 67.032 10.7017 67.224 10.8617 67.36C11.0217 67.488 11.2257 67.552 11.4737 67.552Z" fill="white" fill-opacity="0.9"/>
<path d="M21.0255 67.336H21.9015V61.864H21.0255V60.7H24.3735V61.864H23.4975V67.336H24.3735V68.5H21.0255V67.336ZM25.5811 62.572H27.0091V63.532H27.0811C27.2171 63.212 27.4291 62.948 27.7171 62.74C28.0131 62.532 28.3651 62.428 28.7731 62.428C29.5251 62.428 30.0651 62.628 30.3931 63.028C30.7291 63.42 30.8971 64.016 30.8971 64.816V68.5H29.3851V65.116C29.3851 64.636 29.2971 64.28 29.1211 64.048C28.9531 63.816 28.6651 63.7 28.2571 63.7C27.8731 63.7 27.5811 63.828 27.3811 64.084C27.1891 64.332 27.0931 64.696 27.0931 65.176V68.5H25.5811V62.572ZM31.6716 62.572H33.3276L34.6956 66.916H34.7676L36.1476 62.572H37.6956L35.4876 68.5H33.8676L31.6716 62.572ZM41.0748 68.644C40.5788 68.644 40.1468 68.564 39.7788 68.404C39.4108 68.244 39.0988 68.024 38.8428 67.744C38.5948 67.456 38.4068 67.124 38.2788 66.748C38.1588 66.372 38.0988 65.968 38.0988 65.536C38.0988 65.096 38.1588 64.688 38.2788 64.312C38.3988 63.928 38.5788 63.6 38.8188 63.328C39.0588 63.048 39.3588 62.828 39.7188 62.668C40.0788 62.508 40.4988 62.428 40.9788 62.428C41.4588 62.428 41.8788 62.504 42.2388 62.656C42.5988 62.808 42.8948 63.02 43.1268 63.292C43.3588 63.564 43.5308 63.888 43.6428 64.264C43.7628 64.632 43.8228 65.036 43.8228 65.476C43.8228 65.556 43.8148 65.648 43.7988 65.752C43.7908 65.856 43.7788 65.94 43.7628 66.004H39.6348C39.6588 66.22 39.7148 66.416 39.8028 66.592C39.8988 66.76 40.0148 66.904 40.1508 67.024C40.2948 67.144 40.4508 67.236 40.6188 67.3C40.7948 67.356 40.9748 67.384 41.1588 67.384C41.5028 67.384 41.7908 67.324 42.0228 67.204C42.2548 67.084 42.4428 66.932 42.5868 66.748L43.4388 67.636C43.2148 67.94 42.9028 68.184 42.5028 68.368C42.1028 68.552 41.6268 68.644 41.0748 68.644ZM40.9788 63.58C40.5948 63.58 40.2828 63.704 40.0428 63.952C39.8028 64.2 39.6628 64.528 39.6228 64.936H42.3108C42.2708 64.528 42.1308 64.2 41.8908 63.952C41.6588 63.704 41.3548 63.58 40.9788 63.58ZM44.999 62.572H46.427V63.568H46.499C46.619 63.224 46.803 62.948 47.051 62.74C47.307 62.532 47.627 62.428 48.011 62.428C48.307 62.428 48.583 62.476 48.839 62.572L48.419 63.952C48.331 63.896 48.227 63.856 48.107 63.832C47.987 63.808 47.871 63.796 47.759 63.796C47.391 63.796 47.091 63.924 46.859 64.18C46.627 64.428 46.511 64.78 46.511 65.236V68.5H44.999V62.572ZM52.5071 66.82C52.5071 66.7 52.4711 66.6 52.3991 66.52C52.3351 66.432 52.2391 66.36 52.1111 66.304C51.9911 66.248 51.8471 66.2 51.6791 66.16C51.5111 66.112 51.3271 66.064 51.1271 66.016C50.8951 65.96 50.6751 65.888 50.4671 65.8C50.2591 65.712 50.0751 65.6 49.9151 65.464C49.7631 65.32 49.6391 65.152 49.5431 64.96C49.4471 64.768 49.3991 64.536 49.3991 64.264C49.3991 63.968 49.4551 63.708 49.5671 63.484C49.6871 63.252 49.8511 63.06 50.0591 62.908C50.2671 62.748 50.5151 62.628 50.8031 62.548C51.0911 62.468 51.4031 62.428 51.7391 62.428C52.2671 62.428 52.7231 62.512 53.1071 62.68C53.4911 62.84 53.7871 63.056 53.9951 63.328L53.1551 64.192C52.9951 64.016 52.7951 63.872 52.5551 63.76C52.3231 63.648 52.0791 63.592 51.8231 63.592C51.5831 63.592 51.3711 63.64 51.1871 63.736C51.0031 63.832 50.9111 63.988 50.9111 64.204C50.9111 64.324 50.9431 64.424 51.0071 64.504C51.0791 64.584 51.1751 64.656 51.2951 64.72C51.4231 64.776 51.5711 64.828 51.7391 64.876C51.9071 64.916 52.0911 64.96 52.2911 65.008C52.5151 65.064 52.7311 65.136 52.9391 65.224C53.1551 65.312 53.3391 65.428 53.4911 65.572C53.6511 65.708 53.7791 65.872 53.8751 66.064C53.9711 66.256 54.0191 66.488 54.0191 66.76C54.0191 67.072 53.9551 67.344 53.8271 67.576C53.7071 67.808 53.5351 68.004 53.3111 68.164C53.0951 68.324 52.8351 68.444 52.5311 68.524C52.2351 68.604 51.9151 68.644 51.5711 68.644C50.9871 68.644 50.4911 68.56 50.0831 68.392C49.6831 68.224 49.3791 68.008 49.1711 67.744L49.9871 66.868C50.1711 67.06 50.3951 67.212 50.6591 67.324C50.9231 67.428 51.2111 67.48 51.5231 67.48C51.8031 67.48 52.0351 67.428 52.2191 67.324C52.4111 67.212 52.5071 67.044 52.5071 66.82ZM57.8327 68.644C57.3367 68.644 56.9047 68.564 56.5367 68.404C56.1687 68.244 55.8567 68.024 55.6007 67.744C55.3527 67.456 55.1647 67.124 55.0367 66.748C54.9167 66.372 54.8567 65.968 54.8567 65.536C54.8567 65.096 54.9167 64.688 55.0367 64.312C55.1567 63.928 55.3367 63.6 55.5767 63.328C55.8167 63.048 56.1167 62.828 56.4767 62.668C56.8367 62.508 57.2567 62.428 57.7367 62.428C58.2167 62.428 58.6367 62.504 58.9967 62.656C59.3567 62.808 59.6527 63.02 59.8847 63.292C60.1167 63.564 60.2887 63.888 60.4007 64.264C60.5207 64.632 60.5807 65.036 60.5807 65.476C60.5807 65.556 60.5727 65.648 60.5567 65.752C60.5487 65.856 60.5367 65.94 60.5207 66.004H56.3927C56.4167 66.22 56.4727 66.416 56.5607 66.592C56.6567 66.76 56.7727 66.904 56.9087 67.024C57.0527 67.144 57.2087 67.236 57.3767 67.3C57.5527 67.356 57.7327 67.384 57.9167 67.384C58.2607 67.384 58.5487 67.324 58.7807 67.204C59.0127 67.084 59.2007 66.932 59.3447 66.748L60.1967 67.636C59.9727 67.94 59.6607 68.184 59.2607 68.368C58.8607 68.552 58.3847 68.644 57.8327 68.644ZM57.7367 63.58C57.3527 63.58 57.0407 63.704 56.8007 63.952C56.5607 64.2 56.4207 64.528 56.3807 64.936H59.0687C59.0287 64.528 58.8887 64.2 58.6487 63.952C58.4167 63.704 58.1127 63.58 57.7367 63.58ZM67.1357 68.644C66.6317 68.644 66.1957 68.56 65.8277 68.392C65.4677 68.216 65.1717 67.984 64.9397 67.696C64.7077 67.408 64.5357 67.08 64.4237 66.712C64.3117 66.336 64.2557 65.944 64.2557 65.536C64.2557 65.128 64.3077 64.74 64.4117 64.372C64.5237 63.996 64.6917 63.664 64.9157 63.376C65.1477 63.088 65.4437 62.86 65.8037 62.692C66.1637 62.516 66.5917 62.428 67.0877 62.428C67.5837 62.428 68.0037 62.516 68.3477 62.692C68.6997 62.868 68.9877 63.092 69.2117 63.364L68.2037 64.276C68.0677 64.108 67.9157 63.98 67.7477 63.892C67.5797 63.796 67.3677 63.748 67.1117 63.748C66.6957 63.748 66.3717 63.908 66.1397 64.228C65.9077 64.54 65.7917 64.976 65.7917 65.536C65.7917 66.096 65.9117 66.536 66.1517 66.856C66.3917 67.168 66.7197 67.324 67.1357 67.324C67.3837 67.324 67.5997 67.276 67.7837 67.18C67.9677 67.084 68.1277 66.948 68.2637 66.772L69.2597 67.696C69.0357 67.968 68.7437 68.196 68.3837 68.38C68.0317 68.556 67.6157 68.644 67.1357 68.644ZM72.704 68.644C72.208 68.644 71.772 68.564 71.396 68.404C71.028 68.236 70.716 68.012 70.46 67.732C70.212 67.452 70.024 67.124 69.896 66.748C69.776 66.364 69.716 65.96 69.716 65.536C69.716 65.112 69.776 64.712 69.896 64.336C70.024 63.96 70.212 63.632 70.46 63.352C70.716 63.064 71.028 62.84 71.396 62.68C71.772 62.512 72.208 62.428 72.704 62.428C73.2 62.428 73.632 62.512 74 62.68C74.376 62.84 74.684 63.064 74.924 63.352C75.172 63.632 75.356 63.96 75.476 64.336C75.604 64.712 75.668 65.112 75.668 65.536C75.668 65.96 75.604 66.364 75.476 66.748C75.356 67.124 75.172 67.452 74.924 67.732C74.684 68.012 74.376 68.236 74 68.404C73.632 68.564 73.2 68.644 72.704 68.644ZM71.264 65.536C71.264 66.12 71.388 66.58 71.636 66.916C71.892 67.252 72.248 67.42 72.704 67.42C73.152 67.42 73.5 67.252 73.748 66.916C74.004 66.58 74.132 66.12 74.132 65.536C74.132 64.952 74.004 64.492 73.748 64.156C73.5 63.82 73.152 63.652 72.704 63.652C72.248 63.652 71.892 63.82 71.636 64.156C71.388 64.492 71.264 64.952 71.264 65.536ZM76.8389 62.572H78.2669V63.532H78.3389C78.4749 63.212 78.6869 62.948 78.9749 62.74C79.2709 62.532 79.6229 62.428 80.0309 62.428C80.7829 62.428 81.3229 62.628 81.6509 63.028C81.9869 63.42 82.1549 64.016 82.1549 64.816V68.5H80.6429V65.116C80.6429 64.636 80.5549 64.28 80.3789 64.048C80.2109 63.816 79.9229 63.7 79.5149 63.7C79.1309 63.7 78.8389 63.828 78.6389 64.084C78.4469 64.332 78.3509 64.696 78.3509 65.176V68.5H76.8389V62.572ZM85.9509 68.632C85.2949 68.632 84.8149 68.456 84.5109 68.104C84.2149 67.752 84.0669 67.22 84.0669 66.508V63.784H83.1309V62.572H84.0669V60.964H85.5669V62.572H87.2949V63.784H85.5669V66.496C85.5669 66.808 85.6229 67.032 85.7349 67.168C85.8469 67.296 86.0149 67.36 86.2389 67.36C86.3989 67.36 86.5429 67.332 86.6709 67.276C86.7989 67.212 86.9109 67.136 87.0069 67.048L87.5469 68.08C87.3469 68.272 87.1189 68.412 86.8629 68.5C86.6069 68.588 86.3029 68.632 85.9509 68.632ZM91.1022 68.644C90.6062 68.644 90.1742 68.564 89.8062 68.404C89.4382 68.244 89.1262 68.024 88.8702 67.744C88.6222 67.456 88.4342 67.124 88.3062 66.748C88.1862 66.372 88.1262 65.968 88.1262 65.536C88.1262 65.096 88.1862 64.688 88.3062 64.312C88.4262 63.928 88.6062 63.6 88.8462 63.328C89.0862 63.048 89.3862 62.828 89.7462 62.668C90.1062 62.508 90.5262 62.428 91.0062 62.428C91.4862 62.428 91.9062 62.504 92.2662 62.656C92.6262 62.808 92.9222 63.02 93.1542 63.292C93.3862 63.564 93.5582 63.888 93.6702 64.264C93.7902 64.632 93.8502 65.036 93.8502 65.476C93.8502 65.556 93.8422 65.648 93.8262 65.752C93.8182 65.856 93.8062 65.94 93.7902 66.004H89.6622C89.6862 66.22 89.7422 66.416 89.8302 66.592C89.9262 66.76 90.0422 66.904 90.1782 67.024C90.3222 67.144 90.4782 67.236 90.6462 67.3C90.8222 67.356 91.0022 67.384 91.1862 67.384C91.5302 67.384 91.8182 67.324 92.0502 67.204C92.2822 67.084 92.4702 66.932 92.6142 66.748L93.4662 67.636C93.2422 67.94 92.9302 68.184 92.5302 68.368C92.1302 68.552 91.6542 68.644 91.1022 68.644ZM91.0062 63.58C90.6222 63.58 90.3102 63.704 90.0702 63.952C89.8302 64.2 89.6902 64.528 89.6502 64.936H92.3382C92.2982 64.528 92.1582 64.2 91.9182 63.952C91.6862 63.704 91.3822 63.58 91.0062 63.58ZM95.0264 62.572H96.4544V63.532H96.5264C96.6624 63.212 96.8744 62.948 97.1624 62.74C97.4584 62.532 97.8104 62.428 98.2184 62.428C98.9704 62.428 99.5104 62.628 99.8384 63.028C100.174 63.42 100.342 64.016 100.342 64.816V68.5H98.8304V65.116C98.8304 64.636 98.7424 64.28 98.5664 64.048C98.3984 63.816 98.1104 63.7 97.7024 63.7C97.3184 63.7 97.0264 63.828 96.8264 64.084C96.6344 64.332 96.5384 64.696 96.5384 65.176V68.5H95.0264V62.572ZM104.138 68.632C103.482 68.632 103.002 68.456 102.698 68.104C102.402 67.752 102.254 67.22 102.254 66.508V63.784H101.318V62.572H102.254V60.964H103.754V62.572H105.482V63.784H103.754V66.496C103.754 66.808 103.81 67.032 103.922 67.168C104.034 67.296 104.202 67.36 104.426 67.36C104.586 67.36 104.73 67.332 104.858 67.276C104.986 67.212 105.098 67.136 105.194 67.048L105.734 68.08C105.534 68.272 105.306 68.412 105.05 68.5C104.794 68.588 104.49 68.632 104.138 68.632Z" fill="white" fill-opacity="0.9"/>
<defs>
<filter id="filter0_dddii_5670_84307" x="121.605" y="70" width="201" height="201" filterUnits="userSpaceOnUse" color-interpolation-filters="sRGB">
<feFlood flood-opacity="0" result="BackgroundImageFix"/>
<feColorMatrix in="SourceAlpha" type="matrix" values="0 0 0 0 0 0 0 0 0 0 0 0 0 0 0 0 0 0 127 0" result="hardAlpha"/>
<feMorphology radius="2" operator="dilate" in="SourceAlpha" result="effect1_dropShadow_5670_84307"/>
<feOffset dy="2"/>
<feGaussianBlur stdDeviation="3"/>
<feColorMatrix type="matrix" values="0 0 0 0 0 0 0 0 0 0 0 0 0 0 0 0 0 0 0.08 0"/>
<feBlend mode="normal" in2="BackgroundImageFix" result="effect1_dropShadow_5670_84307"/>
<feColorMatrix in="SourceAlpha" type="matrix" values="0 0 0 0 0 0 0 0 0 0 0 0 0 0 0 0 0 0 127 0" result="hardAlpha"/>
<feOffset dy="2"/>
<feGaussianBlur stdDeviation="6"/>
<feColorMatrix type="matrix" values="0 0 0 0 0 0 0 0 0 0 0 0 0 0 0 0 0 0 0.12 0"/>
<feBlend mode="normal" in2="effect1_dropShadow_5670_84307" result="effect2_dropShadow_5670_84307"/>
<feColorMatrix in="SourceAlpha" type="matrix" values="0 0 0 0 0 0 0 0 0 0 0 0 0 0 0 0 0 0 127 0" result="hardAlpha"/>
<feOffset dy="2"/>
<feGaussianBlur stdDeviation="3"/>
<feColorMatrix type="matrix" values="0 0 0 0 0 0 0 0 0 0 0 0 0 0 0 0 0 0 0.04 0"/>
<feBlend mode="normal" in2="effect2_dropShadow_5670_84307" result="effect3_dropShadow_5670_84307"/>
<feBlend mode="normal" in="SourceGraphic" in2="effect3_dropShadow_5670_84307" result="shape"/>
<feColorMatrix in="SourceAlpha" type="matrix" values="0 0 0 0 0 0 0 0 0 0 0 0 0 0 0 0 0 0 127 0" result="hardAlpha"/>
<feOffset/>
<feGaussianBlur stdDeviation="0.25"/>
<feComposite in2="hardAlpha" operator="arithmetic" k2="-1" k3="1"/>
<feColorMatrix type="matrix" values="0 0 0 0 1 0 0 0 0 1 0 0 0 0 1 0 0 0 0.05 0"/>
<feBlend mode="normal" in2="shape" result="effect4_innerShadow_5670_84307"/>
<feColorMatrix in="SourceAlpha" type="matrix" values="0 0 0 0 0 0 0 0 0 0 0 0 0 0 0 0 0 0 127 0" result="hardAlpha"/>
<feOffset dy="0.5"/>
<feComposite in2="hardAlpha" operator="arithmetic" k2="-1" k3="1"/>
<feColorMatrix type="matrix" values="0 0 0 0 1 0 0 0 0 1 0 0 0 0 1 0 0 0 0.05 0"/>
<feBlend mode="normal" in2="effect4_innerShadow_5670_84307" result="effect5_innerShadow_5670_84307"/>
</filter>
<filter id="filter1_ddd_5670_84307" x="119.605" y="68" width="205" height="205" filterUnits="userSpaceOnUse" color-interpolation-filters="sRGB">
<feFlood flood-opacity="0" result="BackgroundImageFix"/>
<feColorMatrix in="SourceAlpha" type="matrix" values="0 0 0 0 0 0 0 0 0 0 0 0 0 0 0 0 0 0 127 0" result="hardAlpha"/>
<feOffset dy="3"/>
<feGaussianBlur stdDeviation="2"/>
<feColorMatrix type="matrix" values="0 0 0 0 0 0 0 0 0 0 0 0 0 0 0 0 0 0 0.04 0"/>
<feBlend mode="normal" in2="BackgroundImageFix" result="effect1_dropShadow_5670_84307"/>
<feColorMatrix in="SourceAlpha" type="matrix" values="0 0 0 0 0 0 0 0 0 0 0 0 0 0 0 0 0 0 127 0" result="hardAlpha"/>
<feMorphology radius="2" operator="dilate" in="SourceAlpha" result="effect2_dropShadow_5670_84307"/>
<feOffset dy="2"/>
<feGaussianBlur stdDeviation="6"/>
<feColorMatrix type="matrix" values="0 0 0 0 0 0 0 0 0 0 0 0 0 0 0 0 0 0 0.04 0"/>
<feBlend mode="normal" in2="effect1_dropShadow_5670_84307" result="effect2_dropShadow_5670_84307"/>
<feColorMatrix in="SourceAlpha" type="matrix" values="0 0 0 0 0 0 0 0 0 0 0 0 0 0 0 0 0 0 127 0" result="hardAlpha"/>
<feOffset dy="4"/>
<feGaussianBlur stdDeviation="3"/>
<feColorMatrix type="matrix" values="0 0 0 0 0 0 0 0 0 0 0 0 0 0 0 0 0 0 0.02 0"/>
<feBlend mode="normal" in2="effect2_dropShadow_5670_84307" result="effect3_dropShadow_5670_84307"/>
<feBlend mode="normal" in="SourceGraphic" in2="effect3_dropShadow_5670_84307" result="shape"/>
</filter>
<clipPath id="clip0_5670_84307">
<rect width="14" height="14" fill="white" transform="translate(1.60547 29.5)"/>
</clipPath>
</defs>
</svg>
