<svg width="356" height="384" viewBox="0 0 356 384" fill="none" xmlns="http://www.w3.org/2000/svg">
<g filter="url(#filter0_ddd_25584_11801)">
<g clip-path="url(#clip0_25584_11801)">
<path d="M14 28C14 19.1634 21.1634 12 30 12H326C334.837 12 342 19.1634 342 28V352C342 360.837 334.837 368 326 368H30C21.1634 368 14 360.837 14 352V28Z" fill="white"/>
<path d="M160.756 47V37.1H157.256V34H168.256V37.1H164.756V47H160.756ZM169.396 47V37.12H173.156V47H169.396ZM171.276 36.2C170.596 36.2 170.09 36.0067 169.756 35.62C169.423 35.2333 169.256 34.7933 169.256 34.3C169.256 33.7933 169.423 33.3467 169.756 32.96C170.09 32.5733 170.596 32.38 171.276 32.38C171.956 32.38 172.463 32.5733 172.796 32.96C173.143 33.3467 173.316 33.7933 173.316 34.3C173.316 34.7933 173.143 35.2333 172.796 35.62C172.463 36.0067 171.956 36.2 171.276 36.2ZM179.507 47.2C178.627 47.2 177.907 47.06 177.347 46.78C176.787 46.4867 176.367 46.04 176.087 45.44C175.82 44.8267 175.687 44.04 175.687 43.08V40.06H174.427V37.12H175.687V34.44H179.427V37.12H182.367V40.06H179.427V43.1C179.427 43.4733 179.487 43.7533 179.607 43.94C179.74 44.1267 179.98 44.22 180.327 44.22C180.567 44.22 180.793 44.1733 181.007 44.08C181.22 43.9733 181.393 43.8467 181.527 43.7L182.647 46.2C182.3 46.5333 181.867 46.7867 181.347 46.96C180.84 47.12 180.227 47.2 179.507 47.2ZM183.713 47V32.5H187.473V47H183.713ZM193.883 47.24C192.75 47.24 191.79 47.0133 191.003 46.56C190.217 46.0933 189.623 45.4733 189.223 44.7C188.823 43.9133 188.623 43.0333 188.623 42.06C188.623 41.3133 188.73 40.6267 188.943 40C189.157 39.3733 189.47 38.8267 189.883 38.36C190.31 37.88 190.843 37.5133 191.483 37.26C192.137 37.0067 192.89 36.88 193.743 36.88C194.583 36.88 195.317 37.0067 195.943 37.26C196.57 37.5133 197.09 37.8733 197.503 38.34C197.917 38.7933 198.223 39.3333 198.423 39.96C198.623 40.5733 198.723 41.2533 198.723 42C198.723 42.1733 198.703 42.3733 198.663 42.6C198.637 42.8267 198.603 43 198.563 43.12H192.243C192.31 43.4133 192.437 43.6533 192.623 43.84C192.81 44.0267 193.037 44.1667 193.303 44.26C193.583 44.34 193.863 44.38 194.143 44.38C194.543 44.38 194.897 44.32 195.203 44.2C195.51 44.08 195.75 43.9267 195.923 43.74L197.903 45.76C197.557 46.2133 197.023 46.5733 196.303 46.84C195.583 47.1067 194.777 47.24 193.883 47.24ZM193.703 39.46C193.45 39.46 193.217 39.52 193.003 39.64C192.803 39.7467 192.637 39.9133 192.503 40.14C192.37 40.3533 192.283 40.62 192.243 40.94H195.163C195.123 40.6067 195.03 40.3333 194.883 40.12C194.75 39.9067 194.583 39.7467 194.383 39.64C194.197 39.52 193.97 39.46 193.703 39.46Z" fill="black" fill-opacity="0.76"/>
<path d="M161.589 90V79.6H164.965C165.531 79.6 166.021 79.7067 166.437 79.92C166.864 80.1333 167.195 80.4427 167.429 80.848C167.664 81.2533 167.781 81.744 167.781 82.32C167.781 82.6827 167.707 83.0187 167.557 83.328C167.419 83.6373 167.221 83.8987 166.965 84.112C166.709 84.3253 166.416 84.4747 166.085 84.56V84.656C166.437 84.7093 166.773 84.8533 167.093 85.088C167.424 85.312 167.691 85.6053 167.893 85.968C168.107 86.3307 168.213 86.7413 168.213 87.2C168.213 87.7653 168.075 88.2613 167.797 88.688C167.531 89.104 167.168 89.4293 166.709 89.664C166.251 89.888 165.728 90 165.141 90H161.589ZM162.949 84.16H164.805C165.125 84.16 165.403 84.0907 165.637 83.952C165.883 83.8133 166.069 83.616 166.197 83.36C166.325 83.0933 166.389 82.7893 166.389 82.448C166.389 81.9147 166.245 81.4987 165.957 81.2C165.669 80.8907 165.291 80.736 164.821 80.736H162.949V84.16ZM162.949 88.864H165.125C165.477 88.864 165.776 88.7893 166.021 88.64C166.277 88.4907 166.475 88.2827 166.613 88.016C166.752 87.7493 166.821 87.44 166.821 87.088C166.821 86.5227 166.667 86.08 166.357 85.76C166.059 85.44 165.648 85.28 165.125 85.28H162.949V88.864ZM173.628 90.192C172.786 90.192 172.082 90.0053 171.516 89.632C170.962 89.2587 170.546 88.7573 170.268 88.128C169.991 87.4987 169.852 86.8053 169.852 86.048C169.852 85.472 169.927 84.9333 170.076 84.432C170.236 83.9307 170.471 83.4933 170.78 83.12C171.1 82.736 171.495 82.4373 171.964 82.224C172.444 82.0107 172.999 81.904 173.628 81.904C174.471 81.904 175.164 82.0907 175.708 82.464C176.263 82.8373 176.674 83.3387 176.94 83.968C177.218 84.5867 177.356 85.28 177.356 86.048C177.356 86.624 177.276 87.1627 177.116 87.664C176.967 88.1653 176.738 88.608 176.428 88.992C176.119 89.3653 175.73 89.6587 175.26 89.872C174.802 90.0853 174.258 90.192 173.628 90.192ZM171.164 86.048C171.164 86.656 171.255 87.1947 171.436 87.664C171.618 88.1227 171.89 88.4853 172.252 88.752C172.615 89.008 173.074 89.136 173.628 89.136C174.172 89.136 174.62 89.008 174.972 88.752C175.335 88.4853 175.602 88.1227 175.772 87.664C175.954 87.1947 176.044 86.656 176.044 86.048C176.044 85.44 175.954 84.9067 175.772 84.448C175.602 83.9787 175.335 83.616 174.972 83.36C174.62 83.0933 174.172 82.96 173.628 82.96C173.074 82.96 172.615 83.0933 172.252 83.36C171.89 83.616 171.618 83.9787 171.436 84.448C171.255 84.9067 171.164 85.44 171.164 86.048ZM182.263 90.192C181.559 90.192 180.945 90.0107 180.423 89.648C179.9 89.2853 179.489 88.7947 179.191 88.176C178.903 87.5467 178.759 86.832 178.759 86.032C178.759 85.232 178.903 84.5227 179.191 83.904C179.489 83.2747 179.9 82.784 180.423 82.432C180.945 82.08 181.559 81.904 182.263 81.904C182.913 81.904 183.473 82.0587 183.943 82.368C184.412 82.6773 184.748 83.072 184.951 83.552H185.047V78.4H186.327V90H185.111V88.384H185.015C184.833 88.928 184.492 89.3653 183.991 89.696C183.489 90.0267 182.913 90.192 182.263 90.192ZM182.583 89.04C183.041 89.04 183.452 88.9333 183.815 88.72C184.188 88.496 184.487 88.16 184.711 87.712C184.935 87.264 185.047 86.7093 185.047 86.048C185.047 85.376 184.935 84.8213 184.711 84.384C184.487 83.936 184.188 83.6053 183.815 83.392C183.452 83.168 183.041 83.056 182.583 83.056C182.113 83.056 181.687 83.168 181.303 83.392C180.929 83.6053 180.631 83.936 180.407 84.384C180.183 84.8213 180.071 85.376 180.071 86.048C180.071 86.7093 180.183 87.264 180.407 87.712C180.631 88.16 180.929 88.496 181.303 88.72C181.687 88.9333 182.113 89.04 182.583 89.04ZM189.536 93.024C189.429 93.024 189.312 93.0133 189.184 92.992C189.056 92.9813 188.949 92.9653 188.864 92.944V91.84C188.917 91.8507 189.002 91.8613 189.12 91.872C189.248 91.8827 189.365 91.888 189.472 91.888C189.76 91.888 189.994 91.8507 190.176 91.776C190.357 91.712 190.522 91.5627 190.672 91.328C190.821 91.0933 190.986 90.736 191.168 90.256L188 82.096H189.392L191.776 88.72H191.872L194.272 82.096H195.568L192.464 90.08C192.197 90.7733 191.936 91.3333 191.68 91.76C191.424 92.1973 191.13 92.5173 190.8 92.72C190.469 92.9227 190.048 93.024 189.536 93.024Z" fill="black" fill-opacity="0.76"/>
<g clip-path="url(#clip1_25584_11801)">
<path d="M30 140C30 126.745 40.7452 116 54 116H302C315.255 116 326 126.745 326 140C326 153.255 315.255 164 302 164H54C40.7452 164 30 153.255 30 140Z" fill="#F36805"/>
<path d="M30 140C30 126.745 40.7452 116 54 116H302C315.255 116 326 126.745 326 140C326 153.255 315.255 164 302 164H54C40.7452 164 30 153.255 30 140Z" fill="white" fill-opacity="0.01"/>
<path d="M154.542 147V134H157.922V144.3H163.202V147H154.542ZM167.687 147.24C167.1 147.24 166.553 147.12 166.047 146.88C165.54 146.64 165.133 146.3 164.827 145.86C164.52 145.407 164.367 144.86 164.367 144.22C164.367 143.62 164.507 143.107 164.787 142.68C165.08 142.24 165.52 141.893 166.107 141.64C166.707 141.387 167.467 141.233 168.387 141.18L170.487 141.06V140.9C170.487 140.527 170.393 140.247 170.207 140.06C170.02 139.86 169.78 139.727 169.487 139.66C169.193 139.58 168.88 139.54 168.547 139.54C168.173 139.54 167.793 139.607 167.407 139.74C167.02 139.873 166.733 140.06 166.547 140.3L164.807 138.5C165.167 138.033 165.693 137.647 166.387 137.34C167.08 137.033 167.987 136.88 169.107 136.88C170.053 136.88 170.867 137.027 171.547 137.32C172.227 137.613 172.747 138.047 173.107 138.62C173.48 139.18 173.667 139.867 173.667 140.68V147H170.687V145.48H170.567C170.313 146 169.947 146.427 169.467 146.76C168.987 147.08 168.393 147.24 167.687 147.24ZM168.767 145.08C169.273 145.08 169.687 144.94 170.007 144.66C170.327 144.38 170.487 143.967 170.487 143.42V142.9L168.827 143.02C168.4 143.047 168.08 143.153 167.867 143.34C167.667 143.527 167.567 143.773 167.567 144.08C167.567 144.413 167.68 144.667 167.907 144.84C168.147 145 168.433 145.08 168.767 145.08ZM181.852 147.24C181.118 147.24 180.485 147.067 179.952 146.72C179.432 146.36 179.045 145.867 178.792 145.24H178.672V147H175.652V132.5H178.832V138.74H178.952C179.165 138.193 179.518 137.747 180.012 137.4C180.505 137.053 181.118 136.88 181.852 136.88C182.638 136.88 183.345 137.107 183.972 137.56C184.612 138 185.118 138.613 185.492 139.4C185.865 140.187 186.052 141.107 186.052 142.16C186.052 143.173 185.865 144.06 185.492 144.82C185.118 145.58 184.612 146.173 183.972 146.6C183.345 147.027 182.638 147.24 181.852 147.24ZM180.812 144.5C181.238 144.5 181.598 144.393 181.892 144.18C182.185 143.953 182.405 143.66 182.552 143.3C182.712 142.927 182.792 142.513 182.792 142.06C182.792 141.607 182.712 141.2 182.552 140.84C182.405 140.467 182.185 140.173 181.892 139.96C181.598 139.733 181.238 139.62 180.812 139.62C180.385 139.62 180.018 139.733 179.712 139.96C179.418 140.173 179.198 140.467 179.052 140.84C178.905 141.2 178.832 141.607 178.832 142.06C178.832 142.513 178.905 142.927 179.052 143.3C179.198 143.66 179.418 143.953 179.712 144.18C180.018 144.393 180.385 144.5 180.812 144.5ZM192.184 147.24C190.984 147.24 190.004 146.993 189.244 146.5C188.484 145.993 187.924 145.347 187.564 144.56C187.218 143.773 187.044 142.94 187.044 142.06C187.044 141.393 187.131 140.753 187.304 140.14C187.491 139.527 187.778 138.973 188.164 138.48C188.551 137.987 189.058 137.6 189.684 137.32C190.324 137.027 191.098 136.88 192.004 136.88C192.911 136.88 193.678 137.02 194.304 137.3C194.931 137.58 195.431 137.967 195.804 138.46C196.191 138.94 196.464 139.487 196.624 140.1C196.798 140.7 196.884 141.327 196.884 141.98C196.884 142.127 196.871 142.32 196.844 142.56C196.818 142.787 196.784 142.96 196.744 143.08H190.264C190.344 143.467 190.498 143.773 190.724 144C190.964 144.227 191.231 144.393 191.524 144.5C191.831 144.593 192.111 144.64 192.364 144.64C192.831 144.64 193.231 144.567 193.564 144.42C193.911 144.273 194.178 144.08 194.364 143.84L196.104 145.66C195.784 146.113 195.278 146.493 194.584 146.8C193.891 147.093 193.091 147.24 192.184 147.24ZM192.004 139.24C191.724 139.24 191.458 139.3 191.204 139.42C190.964 139.527 190.751 139.707 190.564 139.96C190.391 140.213 190.271 140.553 190.204 140.98H193.764C193.711 140.553 193.591 140.213 193.404 139.96C193.231 139.707 193.024 139.527 192.784 139.42C192.544 139.3 192.284 139.24 192.004 139.24ZM198.425 147V132.5H201.605V147H198.425Z" fill="white"/>
</g>
<g clip-path="url(#clip2_25584_11801)">
<path d="M30 204C30 190.745 40.7452 180 54 180H302C315.255 180 326 190.745 326 204C326 217.255 315.255 228 302 228H54C40.7452 228 30 217.255 30 204Z" fill="white" fill-opacity="0.01"/>
<path d="M154.542 211V198H157.922V208.3H163.202V211H154.542ZM167.687 211.24C167.1 211.24 166.553 211.12 166.047 210.88C165.54 210.64 165.133 210.3 164.827 209.86C164.52 209.407 164.367 208.86 164.367 208.22C164.367 207.62 164.507 207.107 164.787 206.68C165.08 206.24 165.52 205.893 166.107 205.64C166.707 205.387 167.467 205.233 168.387 205.18L170.487 205.06V204.9C170.487 204.527 170.393 204.247 170.207 204.06C170.02 203.86 169.78 203.727 169.487 203.66C169.193 203.58 168.88 203.54 168.547 203.54C168.173 203.54 167.793 203.607 167.407 203.74C167.02 203.873 166.733 204.06 166.547 204.3L164.807 202.5C165.167 202.033 165.693 201.647 166.387 201.34C167.08 201.033 167.987 200.88 169.107 200.88C170.053 200.88 170.867 201.027 171.547 201.32C172.227 201.613 172.747 202.047 173.107 202.62C173.48 203.18 173.667 203.867 173.667 204.68V211H170.687V209.48H170.567C170.313 210 169.947 210.427 169.467 210.76C168.987 211.08 168.393 211.24 167.687 211.24ZM168.767 209.08C169.273 209.08 169.687 208.94 170.007 208.66C170.327 208.38 170.487 207.967 170.487 207.42V206.9L168.827 207.02C168.4 207.047 168.08 207.153 167.867 207.34C167.667 207.527 167.567 207.773 167.567 208.08C167.567 208.413 167.68 208.667 167.907 208.84C168.147 209 168.433 209.08 168.767 209.08ZM181.852 211.24C181.118 211.24 180.485 211.067 179.952 210.72C179.432 210.36 179.045 209.867 178.792 209.24H178.672V211H175.652V196.5H178.832V202.74H178.952C179.165 202.193 179.518 201.747 180.012 201.4C180.505 201.053 181.118 200.88 181.852 200.88C182.638 200.88 183.345 201.107 183.972 201.56C184.612 202 185.118 202.613 185.492 203.4C185.865 204.187 186.052 205.107 186.052 206.16C186.052 207.173 185.865 208.06 185.492 208.82C185.118 209.58 184.612 210.173 183.972 210.6C183.345 211.027 182.638 211.24 181.852 211.24ZM180.812 208.5C181.238 208.5 181.598 208.393 181.892 208.18C182.185 207.953 182.405 207.66 182.552 207.3C182.712 206.927 182.792 206.513 182.792 206.06C182.792 205.607 182.712 205.2 182.552 204.84C182.405 204.467 182.185 204.173 181.892 203.96C181.598 203.733 181.238 203.62 180.812 203.62C180.385 203.62 180.018 203.733 179.712 203.96C179.418 204.173 179.198 204.467 179.052 204.84C178.905 205.2 178.832 205.607 178.832 206.06C178.832 206.513 178.905 206.927 179.052 207.3C179.198 207.66 179.418 207.953 179.712 208.18C180.018 208.393 180.385 208.5 180.812 208.5ZM192.184 211.24C190.984 211.24 190.004 210.993 189.244 210.5C188.484 209.993 187.924 209.347 187.564 208.56C187.218 207.773 187.044 206.94 187.044 206.06C187.044 205.393 187.131 204.753 187.304 204.14C187.491 203.527 187.778 202.973 188.164 202.48C188.551 201.987 189.058 201.6 189.684 201.32C190.324 201.027 191.098 200.88 192.004 200.88C192.911 200.88 193.678 201.02 194.304 201.3C194.931 201.58 195.431 201.967 195.804 202.46C196.191 202.94 196.464 203.487 196.624 204.1C196.798 204.7 196.884 205.327 196.884 205.98C196.884 206.127 196.871 206.32 196.844 206.56C196.818 206.787 196.784 206.96 196.744 207.08H190.264C190.344 207.467 190.498 207.773 190.724 208C190.964 208.227 191.231 208.393 191.524 208.5C191.831 208.593 192.111 208.64 192.364 208.64C192.831 208.64 193.231 208.567 193.564 208.42C193.911 208.273 194.178 208.08 194.364 207.84L196.104 209.66C195.784 210.113 195.278 210.493 194.584 210.8C193.891 211.093 193.091 211.24 192.184 211.24ZM192.004 203.24C191.724 203.24 191.458 203.3 191.204 203.42C190.964 203.527 190.751 203.707 190.564 203.96C190.391 204.213 190.271 204.553 190.204 204.98H193.764C193.711 204.553 193.591 204.213 193.404 203.96C193.231 203.707 193.024 203.527 192.784 203.42C192.544 203.3 192.284 203.24 192.004 203.24ZM198.425 211V196.5H201.605V211H198.425Z" fill="#242E30"/>
</g>
<path d="M30 256C30 251.582 33.5817 248 38 248H318C322.418 248 326 251.582 326 256V344C326 348.418 322.418 352 318 352H38C33.5817 352 30 348.418 30 344V256Z" fill="black" fill-opacity="0.04"/>
<path d="M316 248V248.5H318C318.501 248.5 318.991 248.549 319.464 248.643L319.561 248.152C320.61 248.36 321.586 248.773 322.444 249.348L322.167 249.763C322.985 250.31 323.69 251.015 324.237 251.833L324.651 251.555C325.226 252.413 325.639 253.389 325.847 254.438L325.357 254.536C325.451 255.009 325.5 255.499 325.5 256V258H326V262H325.5V266H326V270H325.5V274H326V278H325.5V282H326V286H325.5V290H326V294H325.5V298H326V302H325.5V306H326V310H325.5V314H326V318H325.5V322H326V326H325.5V330H326V334H325.5V338H326V342H325.5V344C325.5 344.501 325.451 344.991 325.357 345.464L325.847 345.561C325.639 346.61 325.226 347.586 324.651 348.444L324.237 348.167C323.69 348.985 322.985 349.69 322.167 350.237L322.444 350.651C321.586 351.226 320.61 351.639 319.561 351.847L319.464 351.357C318.991 351.451 318.501 351.5 318 351.5H316V352H312V351.5H308V352H304V351.5H300V352H296V351.5H292V352H288V351.5H284V352H280V351.5H276V352H272V351.5H268V352H264V351.5H260V352H256V351.5H252V352H248V351.5H244V352H240V351.5H236V352H232V351.5H228V352H224V351.5H220V352H216V351.5H212V352H208V351.5H204V352H200V351.5H196V352H192V351.5H188V352H184V351.5H180V352H176V351.5H172V352H168V351.5H164V352H160V351.5H156V352H152V351.5H148V352H144V351.5H140V352H136V351.5H132V352H128V351.5H124V352H120V351.5H116V352H112V351.5H108V352H104V351.5H100V352H96V351.5H92V352H88V351.5H84V352H80V351.5H76V352H72V351.5H68V352H64V351.5H60V352H56V351.5H52V352H48V351.5H44V352H40V351.5H38C37.4986 351.5 37.0092 351.451 36.5361 351.357L36.4385 351.847C35.3888 351.639 34.4131 351.226 33.5547 350.651L33.833 350.237C33.0149 349.69 32.3104 348.985 31.7627 348.167L31.3477 348.444C30.773 347.586 30.3599 346.61 30.1523 345.561L30.6426 345.464C30.549 344.991 30.5 344.501 30.5 344V342H30V338H30.5V334H30V330H30.5V326H30V322H30.5V318H30V314H30.5V310H30V306H30.5V302H30V298H30.5V294H30V290H30.5V286H30V282H30.5V278H30V274H30.5V270H30V266H30.5V262H30V258H30.5V256C30.5 255.499 30.549 255.009 30.6426 254.536L30.1523 254.438C30.36 253.389 30.7729 252.413 31.3477 251.555L31.7627 251.833C32.3104 251.015 33.0149 250.31 33.833 249.763L33.5547 249.348C34.413 248.773 35.3889 248.36 36.4385 248.152L36.5361 248.643C37.0092 248.549 37.4986 248.5 38 248.5H40V248H44V248.5H48V248H52V248.5H56V248H60V248.5H64V248H68V248.5H72V248H76V248.5H80V248H84V248.5H88V248H92V248.5H96V248H100V248.5H104V248H108V248.5H112V248H116V248.5H120V248H124V248.5H128V248H132V248.5H136V248H140V248.5H144V248H148V248.5H152V248H156V248.5H160V248H164V248.5H168V248H172V248.5H176V248H180V248.5H184V248H188V248.5H192V248H196V248.5H200V248H204V248.5H208V248H212V248.5H216V248H220V248.5H224V248H228V248.5H232V248H236V248.5H240V248H244V248.5H248V248H252V248.5H256V248H260V248.5H264V248H268V248.5H272V248H276V248.5H280V248H284V248.5H288V248H292V248.5H296V248H300V248.5H304V248H308V248.5H312V248H316Z" stroke="black" stroke-opacity="0.76" stroke-dasharray="4 4"/>
<path d="M168.031 278.192C167.092 278.192 166.308 278.043 165.679 277.744C165.06 277.445 164.548 277.056 164.143 276.576L165.519 275.296C165.818 275.616 166.17 275.888 166.575 276.112C166.98 276.325 167.482 276.432 168.079 276.432C168.41 276.432 168.708 276.389 168.975 276.304C169.242 276.208 169.455 276.064 169.615 275.872C169.786 275.669 169.871 275.408 169.871 275.088C169.871 274.8 169.775 274.571 169.583 274.4C169.391 274.219 169.108 274.064 168.735 273.936C168.372 273.808 167.935 273.669 167.423 273.52C167.06 273.403 166.703 273.269 166.351 273.12C166.01 272.971 165.7 272.784 165.423 272.56C165.146 272.325 164.922 272.043 164.751 271.712C164.591 271.371 164.511 270.96 164.511 270.48C164.511 269.989 164.602 269.557 164.783 269.184C164.975 268.8 165.242 268.48 165.583 268.224C165.924 267.957 166.324 267.755 166.783 267.616C167.252 267.477 167.77 267.408 168.335 267.408C169.178 267.408 169.903 267.547 170.511 267.824C171.119 268.091 171.604 268.475 171.967 268.976L170.591 270.272C170.335 269.963 170.02 269.701 169.647 269.488C169.284 269.275 168.842 269.168 168.319 269.168C168.042 269.168 167.775 269.211 167.519 269.296C167.274 269.381 167.071 269.515 166.911 269.696C166.762 269.877 166.687 270.117 166.687 270.416C166.687 270.715 166.783 270.949 166.975 271.12C167.167 271.291 167.444 271.44 167.807 271.568C168.18 271.696 168.618 271.84 169.119 272C169.492 272.117 169.85 272.251 170.191 272.4C170.543 272.549 170.858 272.741 171.135 272.976C171.412 273.2 171.631 273.483 171.791 273.824C171.962 274.155 172.047 274.56 172.047 275.04C172.047 275.552 171.946 276.005 171.743 276.4C171.551 276.784 171.274 277.115 170.911 277.392C170.559 277.659 170.138 277.861 169.647 278C169.156 278.128 168.618 278.192 168.031 278.192ZM173.72 278V266.4H175.736V278H173.72ZM181.301 278.192C180.426 278.192 179.69 278.005 179.093 277.632C178.506 277.248 178.063 276.741 177.765 276.112C177.466 275.483 177.317 274.795 177.317 274.048C177.317 273.483 177.402 272.949 177.573 272.448C177.743 271.947 177.994 271.509 178.325 271.136C178.655 270.752 179.066 270.453 179.557 270.24C180.058 270.016 180.639 269.904 181.301 269.904C182.186 269.904 182.917 270.096 183.493 270.48C184.079 270.853 184.517 271.355 184.805 271.984C185.103 272.603 185.253 273.291 185.253 274.048C185.253 274.613 185.167 275.147 184.997 275.648C184.837 276.149 184.591 276.592 184.261 276.976C183.93 277.349 183.519 277.648 183.029 277.872C182.538 278.085 181.962 278.192 181.301 278.192ZM179.381 274.048C179.381 274.56 179.455 275.008 179.605 275.392C179.765 275.765 179.983 276.053 180.261 276.256C180.549 276.459 180.895 276.56 181.301 276.56C181.706 276.56 182.047 276.459 182.325 276.256C182.602 276.053 182.815 275.765 182.965 275.392C183.125 275.008 183.205 274.56 183.205 274.048C183.205 273.525 183.125 273.077 182.965 272.704C182.815 272.331 182.602 272.043 182.325 271.84C182.047 271.637 181.706 271.536 181.301 271.536C180.895 271.536 180.549 271.637 180.261 271.84C179.983 272.043 179.765 272.331 179.605 272.704C179.455 273.077 179.381 273.525 179.381 274.048ZM189.854 278.176C189.278 278.176 188.803 278.075 188.43 277.872C188.056 277.659 187.779 277.344 187.598 276.928C187.427 276.501 187.342 275.973 187.342 275.344V271.712H186.094V270.096H187.342V267.952H189.342V270.096H191.646V271.712H189.342V275.328C189.342 275.744 189.416 276.043 189.566 276.224C189.726 276.395 189.95 276.48 190.238 276.48C190.44 276.48 190.627 276.443 190.798 276.368C190.979 276.283 191.134 276.181 191.262 276.064L191.982 277.44C191.726 277.696 191.422 277.883 191.07 278C190.718 278.117 190.312 278.176 189.854 278.176Z" fill="black" fill-opacity="0.76"/>
<path d="M106.516 310V300.752H103.556V299.6H110.836V300.752H107.876V310H106.516ZM112.579 310V298.4H113.859V303.216H113.955C114.136 302.853 114.397 302.544 114.739 302.288C115.091 302.032 115.528 301.904 116.051 301.904C116.957 301.904 117.672 302.144 118.195 302.624C118.728 303.093 118.995 303.867 118.995 304.944V310H117.715V305.184C117.715 304.373 117.549 303.803 117.219 303.472C116.899 303.131 116.424 302.96 115.795 302.96C115.197 302.96 114.723 303.168 114.371 303.584C114.029 304 113.859 304.608 113.859 305.408V310H112.579ZM121.485 310V302.096H122.765V310H121.485ZM122.125 300.816C121.858 300.816 121.65 300.736 121.501 300.576C121.352 300.416 121.277 300.224 121.277 300C121.277 299.787 121.352 299.6 121.501 299.44C121.65 299.269 121.858 299.184 122.125 299.184C122.381 299.184 122.584 299.269 122.733 299.44C122.893 299.6 122.973 299.787 122.973 300C122.973 300.224 122.893 300.416 122.733 300.576C122.584 300.736 122.381 300.816 122.125 300.816ZM127.629 310.192C126.946 310.192 126.36 310.075 125.869 309.84C125.378 309.605 124.994 309.301 124.717 308.928L125.565 308.128C125.81 308.416 126.093 308.651 126.413 308.832C126.744 309.013 127.154 309.104 127.645 309.104C128.082 309.104 128.466 309.013 128.797 308.832C129.128 308.64 129.293 308.347 129.293 307.952C129.293 307.643 129.197 307.403 129.005 307.232C128.824 307.051 128.584 306.907 128.285 306.8C127.986 306.683 127.666 306.576 127.325 306.48C126.93 306.363 126.557 306.219 126.205 306.048C125.864 305.867 125.581 305.632 125.357 305.344C125.144 305.045 125.037 304.667 125.037 304.208C125.037 303.707 125.154 303.285 125.389 302.944C125.634 302.603 125.96 302.347 126.365 302.176C126.781 301.995 127.245 301.904 127.757 301.904C128.322 301.904 128.85 302.011 129.341 302.224C129.832 302.427 130.226 302.747 130.525 303.184L129.693 303.952C129.458 303.675 129.181 303.445 128.861 303.264C128.552 303.083 128.184 302.992 127.757 302.992C127.394 302.992 127.058 303.083 126.749 303.264C126.44 303.435 126.285 303.712 126.285 304.096C126.285 304.405 126.376 304.651 126.557 304.832C126.749 305.003 126.994 305.141 127.293 305.248C127.592 305.355 127.912 305.461 128.253 305.568C128.648 305.685 129.016 305.835 129.357 306.016C129.709 306.187 129.992 306.416 130.205 306.704C130.429 306.992 130.541 307.371 130.541 307.84C130.541 308.384 130.408 308.832 130.141 309.184C129.874 309.525 129.517 309.781 129.069 309.952C128.632 310.112 128.152 310.192 127.629 310.192ZM136.594 310V302.096H137.874V310H136.594ZM137.234 300.816C136.968 300.816 136.76 300.736 136.61 300.576C136.461 300.416 136.386 300.224 136.386 300C136.386 299.787 136.461 299.6 136.61 299.44C136.76 299.269 136.968 299.184 137.234 299.184C137.49 299.184 137.693 299.269 137.842 299.44C138.002 299.6 138.082 299.787 138.082 300C138.082 300.224 138.002 300.416 137.842 300.576C137.693 300.736 137.49 300.816 137.234 300.816ZM142.738 310.192C142.056 310.192 141.469 310.075 140.978 309.84C140.488 309.605 140.104 309.301 139.826 308.928L140.674 308.128C140.92 308.416 141.202 308.651 141.522 308.832C141.853 309.013 142.264 309.104 142.754 309.104C143.192 309.104 143.576 309.013 143.906 308.832C144.237 308.64 144.402 308.347 144.402 307.952C144.402 307.643 144.306 307.403 144.114 307.232C143.933 307.051 143.693 306.907 143.394 306.8C143.096 306.683 142.776 306.576 142.434 306.48C142.04 306.363 141.666 306.219 141.314 306.048C140.973 305.867 140.69 305.632 140.466 305.344C140.253 305.045 140.146 304.667 140.146 304.208C140.146 303.707 140.264 303.285 140.498 302.944C140.744 302.603 141.069 302.347 141.474 302.176C141.89 301.995 142.354 301.904 142.866 301.904C143.432 301.904 143.96 302.011 144.45 302.224C144.941 302.427 145.336 302.747 145.634 303.184L144.802 303.952C144.568 303.675 144.29 303.445 143.97 303.264C143.661 303.083 143.293 302.992 142.866 302.992C142.504 302.992 142.168 303.083 141.858 303.264C141.549 303.435 141.394 303.712 141.394 304.096C141.394 304.405 141.485 304.651 141.666 304.832C141.858 305.003 142.104 305.141 142.402 305.248C142.701 305.355 143.021 305.461 143.362 305.568C143.757 305.685 144.125 305.835 144.466 306.016C144.818 306.187 145.101 306.416 145.314 306.704C145.538 306.992 145.65 307.371 145.65 307.84C145.65 308.384 145.517 308.832 145.25 309.184C144.984 309.525 144.626 309.781 144.178 309.952C143.741 310.112 143.261 310.192 142.738 310.192ZM153.448 310.192C152.968 310.192 152.536 310.091 152.152 309.888C151.778 309.685 151.485 309.403 151.272 309.04C151.058 308.677 150.952 308.261 150.952 307.792C150.952 307.333 151.058 306.939 151.272 306.608C151.496 306.267 151.821 305.995 152.248 305.792C152.674 305.589 153.186 305.472 153.784 305.44L155.864 305.312V304.752C155.864 304.347 155.794 304.021 155.656 303.776C155.528 303.52 155.336 303.333 155.08 303.216C154.834 303.088 154.53 303.024 154.168 303.024C153.709 303.024 153.314 303.109 152.984 303.28C152.653 303.451 152.397 303.637 152.216 303.84L151.448 303.072C151.725 302.731 152.104 302.453 152.584 302.24C153.064 302.016 153.602 301.904 154.2 301.904C154.925 301.904 155.501 302.027 155.928 302.272C156.354 302.517 156.658 302.848 156.84 303.264C157.032 303.669 157.128 304.123 157.128 304.624V310H155.928V308.656H155.832C155.629 309.125 155.33 309.499 154.936 309.776C154.541 310.053 154.045 310.192 153.448 310.192ZM153.64 309.104C154.301 309.104 154.834 308.912 155.24 308.528C155.656 308.133 155.864 307.611 155.864 306.96V306.272L153.848 306.416C153.325 306.459 152.925 306.592 152.648 306.816C152.381 307.04 152.248 307.355 152.248 307.76C152.248 308.165 152.376 308.491 152.632 308.736C152.898 308.981 153.234 309.104 153.64 309.104ZM163.548 312.96V302.096H164.764V303.712H164.86C165.041 303.168 165.382 302.731 165.884 302.4C166.385 302.069 166.961 301.904 167.612 301.904C168.316 301.904 168.929 302.085 169.452 302.448C169.974 302.8 170.38 303.291 170.668 303.92C170.966 304.549 171.116 305.264 171.116 306.064C171.116 306.864 170.966 307.573 170.668 308.192C170.38 308.811 169.974 309.301 169.452 309.664C168.929 310.016 168.316 310.192 167.612 310.192C166.961 310.192 166.401 310.037 165.932 309.728C165.462 309.419 165.126 309.024 164.924 308.544H164.828V312.96H163.548ZM167.292 309.04C167.761 309.04 168.182 308.933 168.556 308.72C168.94 308.496 169.244 308.16 169.468 307.712C169.692 307.264 169.804 306.709 169.804 306.048C169.804 305.376 169.692 304.821 169.468 304.384C169.244 303.936 168.94 303.605 168.556 303.392C168.182 303.168 167.761 303.056 167.292 303.056C166.844 303.056 166.433 303.168 166.06 303.392C165.686 303.605 165.388 303.936 165.164 304.384C164.94 304.821 164.828 305.376 164.828 306.048C164.828 306.709 164.94 307.264 165.164 307.712C165.388 308.16 165.686 308.496 166.06 308.72C166.433 308.933 166.844 309.04 167.292 309.04ZM173.173 310V298.4H174.453V310H173.173ZM178.917 310.192C178.437 310.192 178.005 310.091 177.621 309.888C177.247 309.685 176.954 309.403 176.741 309.04C176.527 308.677 176.421 308.261 176.421 307.792C176.421 307.333 176.527 306.939 176.741 306.608C176.965 306.267 177.29 305.995 177.717 305.792C178.143 305.589 178.655 305.472 179.253 305.44L181.333 305.312V304.752C181.333 304.347 181.263 304.021 181.125 303.776C180.997 303.52 180.805 303.333 180.549 303.216C180.303 303.088 179.999 303.024 179.637 303.024C179.178 303.024 178.783 303.109 178.453 303.28C178.122 303.451 177.866 303.637 177.685 303.84L176.917 303.072C177.194 302.731 177.573 302.453 178.053 302.24C178.533 302.016 179.071 301.904 179.669 301.904C180.394 301.904 180.97 302.027 181.397 302.272C181.823 302.517 182.127 302.848 182.309 303.264C182.501 303.669 182.597 304.123 182.597 304.624V310H181.397V308.656H181.301C181.098 309.125 180.799 309.499 180.405 309.776C180.01 310.053 179.514 310.192 178.917 310.192ZM179.109 309.104C179.77 309.104 180.303 308.912 180.709 308.528C181.125 308.133 181.333 307.611 181.333 306.96V306.272L179.317 306.416C178.794 306.459 178.394 306.592 178.117 306.816C177.85 307.04 177.717 307.355 177.717 307.76C177.717 308.165 177.845 308.491 178.101 308.736C178.367 308.981 178.703 309.104 179.109 309.104ZM188.181 310.192C187.327 310.192 186.629 309.995 186.085 309.6C185.541 309.205 185.141 308.693 184.885 308.064C184.639 307.424 184.517 306.752 184.517 306.048C184.517 305.333 184.639 304.661 184.885 304.032C185.13 303.403 185.519 302.891 186.053 302.496C186.597 302.101 187.295 301.904 188.149 301.904C188.81 301.904 189.354 302.016 189.781 302.24C190.218 302.464 190.586 302.763 190.885 303.136L190.085 303.888C189.829 303.611 189.557 303.397 189.269 303.248C188.991 303.088 188.629 303.008 188.181 303.008C187.722 303.008 187.311 303.131 186.949 303.376C186.597 303.621 186.319 303.973 186.117 304.432C185.925 304.88 185.829 305.419 185.829 306.048C185.829 306.987 186.053 307.728 186.501 308.272C186.949 308.816 187.519 309.088 188.213 309.088C188.639 309.088 189.007 309.013 189.317 308.864C189.626 308.704 189.914 308.475 190.181 308.176L190.949 308.944C190.65 309.317 190.271 309.621 189.813 309.856C189.365 310.08 188.821 310.192 188.181 310.192ZM195.745 310.192C194.988 310.192 194.326 310.027 193.761 309.696C193.206 309.365 192.774 308.891 192.465 308.272C192.156 307.643 192.001 306.901 192.001 306.048C192.001 305.376 192.086 304.784 192.257 304.272C192.438 303.749 192.689 303.317 193.009 302.976C193.34 302.624 193.724 302.357 194.161 302.176C194.609 301.995 195.1 301.904 195.633 301.904C196.166 301.904 196.652 301.989 197.089 302.16C197.537 302.331 197.921 302.587 198.241 302.928C198.572 303.259 198.828 303.68 199.009 304.192C199.19 304.693 199.281 305.28 199.281 305.952C199.281 306.037 199.276 306.123 199.265 306.208C199.265 306.293 199.26 306.363 199.249 306.416H193.281C193.292 306.907 193.409 307.355 193.633 307.76C193.857 308.165 194.156 308.491 194.529 308.736C194.913 308.971 195.34 309.088 195.809 309.088C196.374 309.088 196.844 308.976 197.217 308.752C197.59 308.528 197.9 308.256 198.145 307.936L198.913 308.72C198.582 309.168 198.161 309.525 197.649 309.792C197.137 310.059 196.502 310.192 195.745 310.192ZM195.633 302.96C195.132 302.96 194.71 303.077 194.369 303.312C194.028 303.547 193.766 303.845 193.585 304.208C193.414 304.571 193.324 304.949 193.313 305.344H197.937C197.926 304.949 197.83 304.571 197.649 304.208C197.478 303.845 197.222 303.547 196.881 303.312C196.55 303.077 196.134 302.96 195.633 302.96ZM201.344 310V298.4H202.624V303.216H202.72C202.902 302.853 203.163 302.544 203.504 302.288C203.856 302.032 204.294 301.904 204.816 301.904C205.723 301.904 206.438 302.144 206.96 302.624C207.494 303.093 207.76 303.867 207.76 304.944V310H206.48V305.184C206.48 304.373 206.315 303.803 205.984 303.472C205.664 303.131 205.19 302.96 204.56 302.96C203.963 302.96 203.488 303.168 203.136 303.584C202.795 304 202.624 304.608 202.624 305.408V310H201.344ZM213.371 310.192C212.528 310.192 211.824 310.005 211.259 309.632C210.704 309.259 210.288 308.757 210.011 308.128C209.733 307.499 209.595 306.805 209.595 306.048C209.595 305.472 209.669 304.933 209.819 304.432C209.979 303.931 210.213 303.493 210.523 303.12C210.843 302.736 211.237 302.437 211.707 302.224C212.187 302.011 212.741 301.904 213.371 301.904C214.213 301.904 214.907 302.091 215.451 302.464C216.005 302.837 216.416 303.339 216.683 303.968C216.96 304.587 217.099 305.28 217.099 306.048C217.099 306.624 217.019 307.163 216.859 307.664C216.709 308.165 216.48 308.608 216.171 308.992C215.861 309.365 215.472 309.659 215.003 309.872C214.544 310.085 214 310.192 213.371 310.192ZM210.907 306.048C210.907 306.656 210.997 307.195 211.179 307.664C211.36 308.123 211.632 308.485 211.995 308.752C212.357 309.008 212.816 309.136 213.371 309.136C213.915 309.136 214.363 309.008 214.715 308.752C215.077 308.485 215.344 308.123 215.515 307.664C215.696 307.195 215.787 306.656 215.787 306.048C215.787 305.44 215.696 304.907 215.515 304.448C215.344 303.979 215.077 303.616 214.715 303.36C214.363 303.093 213.915 302.96 213.371 302.96C212.816 302.96 212.357 303.093 211.995 303.36C211.632 303.616 211.36 303.979 211.179 304.448C210.997 304.907 210.907 305.44 210.907 306.048ZM219.157 310V298.4H220.437V310H219.157ZM226.005 310.192C225.301 310.192 224.688 310.011 224.165 309.648C223.642 309.285 223.232 308.795 222.933 308.176C222.645 307.547 222.501 306.832 222.501 306.032C222.501 305.232 222.645 304.523 222.933 303.904C223.232 303.275 223.642 302.784 224.165 302.432C224.688 302.08 225.301 301.904 226.005 301.904C226.656 301.904 227.216 302.059 227.685 302.368C228.154 302.677 228.49 303.072 228.693 303.552H228.789V298.4H230.069V310H228.853V308.384H228.757C228.576 308.928 228.234 309.365 227.733 309.696C227.232 310.027 226.656 310.192 226.005 310.192ZM226.325 309.04C226.784 309.04 227.194 308.933 227.557 308.72C227.93 308.496 228.229 308.16 228.453 307.712C228.677 307.264 228.789 306.709 228.789 306.048C228.789 305.376 228.677 304.821 228.453 304.384C228.229 303.936 227.93 303.605 227.557 303.392C227.194 303.168 226.784 303.056 226.325 303.056C225.856 303.056 225.429 303.168 225.045 303.392C224.672 303.605 224.373 303.936 224.149 304.384C223.925 304.821 223.813 305.376 223.813 306.048C223.813 306.709 223.925 307.264 224.149 307.712C224.373 308.16 224.672 308.496 225.045 308.72C225.429 308.933 225.856 309.04 226.325 309.04ZM235.87 310.192C235.113 310.192 234.451 310.027 233.886 309.696C233.331 309.365 232.899 308.891 232.59 308.272C232.281 307.643 232.126 306.901 232.126 306.048C232.126 305.376 232.211 304.784 232.382 304.272C232.563 303.749 232.814 303.317 233.134 302.976C233.465 302.624 233.849 302.357 234.286 302.176C234.734 301.995 235.225 301.904 235.758 301.904C236.291 301.904 236.777 301.989 237.214 302.16C237.662 302.331 238.046 302.587 238.366 302.928C238.697 303.259 238.953 303.68 239.134 304.192C239.315 304.693 239.406 305.28 239.406 305.952C239.406 306.037 239.401 306.123 239.39 306.208C239.39 306.293 239.385 306.363 239.374 306.416H233.406C233.417 306.907 233.534 307.355 233.758 307.76C233.982 308.165 234.281 308.491 234.654 308.736C235.038 308.971 235.465 309.088 235.934 309.088C236.499 309.088 236.969 308.976 237.342 308.752C237.715 308.528 238.025 308.256 238.27 307.936L239.038 308.72C238.707 309.168 238.286 309.525 237.774 309.792C237.262 310.059 236.627 310.192 235.87 310.192ZM235.758 302.96C235.257 302.96 234.835 303.077 234.494 303.312C234.153 303.547 233.891 303.845 233.71 304.208C233.539 304.571 233.449 304.949 233.438 305.344H238.062C238.051 304.949 237.955 304.571 237.774 304.208C237.603 303.845 237.347 303.547 237.006 303.312C236.675 303.077 236.259 302.96 235.758 302.96ZM241.469 310V302.096H242.685V303.376H242.781C242.952 302.96 243.197 302.613 243.517 302.336C243.848 302.048 244.248 301.904 244.717 301.904C244.909 301.904 245.096 301.925 245.277 301.968C245.469 302 245.64 302.059 245.789 302.144L245.357 303.296C245.219 303.221 245.069 303.173 244.909 303.152C244.76 303.12 244.605 303.104 244.445 303.104C243.923 303.104 243.507 303.317 243.197 303.744C242.899 304.16 242.749 304.693 242.749 305.344V310H241.469ZM246.984 308.304C247.283 308.304 247.518 308.411 247.688 308.624C247.859 308.837 247.944 309.093 247.944 309.392C247.944 309.723 247.875 310.043 247.736 310.352C247.598 310.672 247.4 310.976 247.144 311.264C246.888 311.563 246.584 311.845 246.232 312.112L245.736 311.584C245.95 311.381 246.142 311.157 246.312 310.912C246.483 310.667 246.616 310.395 246.712 310.096C246.499 310.043 246.328 309.936 246.2 309.776C246.083 309.605 246.024 309.419 246.024 309.216C246.024 309.045 246.062 308.896 246.136 308.768C246.222 308.629 246.334 308.517 246.472 308.432C246.622 308.347 246.792 308.304 246.984 308.304ZM92.8053 334V326.096H94.0213V327.376H94.1173C94.288 326.96 94.5333 326.613 94.8533 326.336C95.184 326.048 95.584 325.904 96.0533 325.904C96.2453 325.904 96.432 325.925 96.6133 325.968C96.8053 326 96.976 326.059 97.1253 326.144L96.6933 327.296C96.5546 327.221 96.4053 327.173 96.2453 327.152C96.096 327.12 95.9413 327.104 95.7813 327.104C95.2586 327.104 94.8426 327.317 94.5333 327.744C94.2346 328.16 94.0853 328.693 94.0853 329.344V334H92.8053ZM101.471 334.192C100.714 334.192 100.053 334.027 99.4874 333.696C98.9328 333.365 98.5008 332.891 98.1914 332.272C97.8821 331.643 97.7274 330.901 97.7274 330.048C97.7274 329.376 97.8128 328.784 97.9834 328.272C98.1648 327.749 98.4154 327.317 98.7354 326.976C99.0661 326.624 99.4501 326.357 99.8874 326.176C100.335 325.995 100.826 325.904 101.359 325.904C101.893 325.904 102.378 325.989 102.815 326.16C103.263 326.331 103.647 326.587 103.967 326.928C104.298 327.259 104.554 327.68 104.735 328.192C104.917 328.693 105.007 329.28 105.007 329.952C105.007 330.037 105.002 330.123 104.991 330.208C104.991 330.293 104.986 330.363 104.975 330.416H99.0074C99.0181 330.907 99.1354 331.355 99.3594 331.76C99.5834 332.165 99.8821 332.491 100.255 332.736C100.639 332.971 101.066 333.088 101.535 333.088C102.101 333.088 102.57 332.976 102.943 332.752C103.317 332.528 103.626 332.256 103.871 331.936L104.639 332.72C104.309 333.168 103.887 333.525 103.375 333.792C102.863 334.059 102.229 334.192 101.471 334.192ZM101.359 326.96C100.858 326.96 100.437 327.077 100.095 327.312C99.7541 327.547 99.4928 327.845 99.3114 328.208C99.1408 328.571 99.0501 328.949 99.0394 329.344H103.663C103.653 328.949 103.557 328.571 103.375 328.208C103.205 327.845 102.949 327.547 102.607 327.312C102.277 327.077 101.861 326.96 101.359 326.96ZM107.071 336.96V326.096H108.287V327.712H108.383C108.564 327.168 108.906 326.731 109.407 326.4C109.908 326.069 110.484 325.904 111.135 325.904C111.839 325.904 112.452 326.085 112.975 326.448C113.498 326.8 113.903 327.291 114.191 327.92C114.49 328.549 114.639 329.264 114.639 330.064C114.639 330.864 114.49 331.573 114.191 332.192C113.903 332.811 113.498 333.301 112.975 333.664C112.452 334.016 111.839 334.192 111.135 334.192C110.484 334.192 109.924 334.037 109.455 333.728C108.986 333.419 108.65 333.024 108.447 332.544H108.351V336.96H107.071ZM110.815 333.04C111.284 333.04 111.706 332.933 112.079 332.72C112.463 332.496 112.767 332.16 112.991 331.712C113.215 331.264 113.327 330.709 113.327 330.048C113.327 329.376 113.215 328.821 112.991 328.384C112.767 327.936 112.463 327.605 112.079 327.392C111.706 327.168 111.284 327.056 110.815 327.056C110.367 327.056 109.956 327.168 109.583 327.392C109.21 327.605 108.911 327.936 108.687 328.384C108.463 328.821 108.351 329.376 108.351 330.048C108.351 330.709 108.463 331.264 108.687 331.712C108.911 332.16 109.21 332.496 109.583 332.72C109.956 332.933 110.367 333.04 110.815 333.04ZM116.696 334V322.4H117.976V334H116.696ZM122.44 334.192C121.96 334.192 121.528 334.091 121.144 333.888C120.771 333.685 120.477 333.403 120.264 333.04C120.051 332.677 119.944 332.261 119.944 331.792C119.944 331.333 120.051 330.939 120.264 330.608C120.488 330.267 120.813 329.995 121.24 329.792C121.667 329.589 122.179 329.472 122.776 329.44L124.856 329.312V328.752C124.856 328.347 124.787 328.021 124.648 327.776C124.52 327.52 124.328 327.333 124.072 327.216C123.827 327.088 123.523 327.024 123.16 327.024C122.701 327.024 122.307 327.109 121.976 327.28C121.645 327.451 121.389 327.637 121.208 327.84L120.44 327.072C120.717 326.731 121.096 326.453 121.576 326.24C122.056 326.016 122.595 325.904 123.192 325.904C123.917 325.904 124.493 326.027 124.92 326.272C125.347 326.517 125.651 326.848 125.832 327.264C126.024 327.669 126.12 328.123 126.12 328.624V334H124.92V332.656H124.824C124.621 333.125 124.323 333.499 123.928 333.776C123.533 334.053 123.037 334.192 122.44 334.192ZM122.632 333.104C123.293 333.104 123.827 332.912 124.232 332.528C124.648 332.133 124.856 331.611 124.856 330.96V330.272L122.84 330.416C122.317 330.459 121.917 330.592 121.64 330.816C121.373 331.04 121.24 331.355 121.24 331.76C121.24 332.165 121.368 332.491 121.624 332.736C121.891 332.981 122.227 333.104 122.632 333.104ZM131.704 334.192C130.851 334.192 130.152 333.995 129.608 333.6C129.064 333.205 128.664 332.693 128.408 332.064C128.163 331.424 128.04 330.752 128.04 330.048C128.04 329.333 128.163 328.661 128.408 328.032C128.653 327.403 129.043 326.891 129.576 326.496C130.12 326.101 130.819 325.904 131.672 325.904C132.333 325.904 132.877 326.016 133.304 326.24C133.741 326.464 134.109 326.763 134.408 327.136L133.608 327.888C133.352 327.611 133.08 327.397 132.792 327.248C132.515 327.088 132.152 327.008 131.704 327.008C131.245 327.008 130.835 327.131 130.472 327.376C130.12 327.621 129.843 327.973 129.64 328.432C129.448 328.88 129.352 329.419 129.352 330.048C129.352 330.987 129.576 331.728 130.024 332.272C130.472 332.816 131.043 333.088 131.736 333.088C132.163 333.088 132.531 333.013 132.84 332.864C133.149 332.704 133.437 332.475 133.704 332.176L134.472 332.944C134.173 333.317 133.795 333.621 133.336 333.856C132.888 334.08 132.344 334.192 131.704 334.192ZM139.268 334.192C138.511 334.192 137.85 334.027 137.284 333.696C136.73 333.365 136.298 332.891 135.988 332.272C135.679 331.643 135.524 330.901 135.524 330.048C135.524 329.376 135.61 328.784 135.78 328.272C135.962 327.749 136.212 327.317 136.532 326.976C136.863 326.624 137.247 326.357 137.684 326.176C138.132 325.995 138.623 325.904 139.156 325.904C139.69 325.904 140.175 325.989 140.612 326.16C141.06 326.331 141.444 326.587 141.764 326.928C142.095 327.259 142.351 327.68 142.532 328.192C142.714 328.693 142.804 329.28 142.804 329.952C142.804 330.037 142.799 330.123 142.788 330.208C142.788 330.293 142.783 330.363 142.772 330.416H136.804C136.815 330.907 136.932 331.355 137.156 331.76C137.38 332.165 137.679 332.491 138.052 332.736C138.436 332.971 138.863 333.088 139.332 333.088C139.898 333.088 140.367 332.976 140.74 332.752C141.114 332.528 141.423 332.256 141.668 331.936L142.436 332.72C142.106 333.168 141.684 333.525 141.172 333.792C140.66 334.059 140.026 334.192 139.268 334.192ZM139.156 326.96C138.655 326.96 138.234 327.077 137.892 327.312C137.551 327.547 137.29 327.845 137.108 328.208C136.938 328.571 136.847 328.949 136.836 329.344H141.46C141.45 328.949 141.354 328.571 141.172 328.208C141.002 327.845 140.746 327.547 140.404 327.312C140.074 327.077 139.658 326.96 139.156 326.96ZM148.712 334V326.096H149.928V327.344H150.024C150.216 326.928 150.482 326.587 150.824 326.32C151.176 326.043 151.613 325.904 152.136 325.904C152.765 325.904 153.298 326.021 153.736 326.256C154.173 326.48 154.493 326.821 154.696 327.28C154.856 326.981 155.048 326.731 155.272 326.528C155.496 326.325 155.762 326.171 156.072 326.064C156.392 325.957 156.749 325.904 157.144 325.904C157.73 325.904 158.237 326.011 158.664 326.224C159.09 326.427 159.421 326.752 159.656 327.2C159.89 327.648 160.008 328.229 160.008 328.944V334H158.728V329.184C158.728 328.64 158.653 328.208 158.504 327.888C158.365 327.557 158.157 327.323 157.88 327.184C157.613 327.035 157.277 326.96 156.872 326.96C156.285 326.96 155.826 327.168 155.496 327.584C155.165 328 155 328.608 155 329.408V334H153.72V329.184C153.72 328.64 153.65 328.208 153.512 327.888C153.373 327.557 153.165 327.323 152.888 327.184C152.61 327.035 152.269 326.96 151.864 326.96C151.288 326.96 150.829 327.168 150.488 327.584C150.157 328 149.992 328.608 149.992 329.408V334H148.712ZM165.675 334.192C164.917 334.192 164.256 334.027 163.691 333.696C163.136 333.365 162.704 332.891 162.395 332.272C162.085 331.643 161.931 330.901 161.931 330.048C161.931 329.376 162.016 328.784 162.187 328.272C162.368 327.749 162.619 327.317 162.939 326.976C163.269 326.624 163.653 326.357 164.091 326.176C164.539 325.995 165.029 325.904 165.563 325.904C166.096 325.904 166.581 325.989 167.019 326.16C167.467 326.331 167.851 326.587 168.171 326.928C168.501 327.259 168.757 327.68 168.939 328.192C169.12 328.693 169.211 329.28 169.211 329.952C169.211 330.037 169.205 330.123 169.195 330.208C169.195 330.293 169.189 330.363 169.179 330.416H163.211C163.221 330.907 163.339 331.355 163.563 331.76C163.787 332.165 164.085 332.491 164.459 332.736C164.843 332.971 165.269 333.088 165.739 333.088C166.304 333.088 166.773 332.976 167.147 332.752C167.52 332.528 167.829 332.256 168.075 331.936L168.843 332.72C168.512 333.168 168.091 333.525 167.579 333.792C167.067 334.059 166.432 334.192 165.675 334.192ZM165.563 326.96C165.061 326.96 164.64 327.077 164.299 327.312C163.957 327.547 163.696 327.845 163.515 328.208C163.344 328.571 163.253 328.949 163.243 329.344H167.867C167.856 328.949 167.76 328.571 167.579 328.208C167.408 327.845 167.152 327.547 166.811 327.312C166.48 327.077 166.064 326.96 165.563 326.96ZM176.878 334L174.19 326.096H175.566L177.566 332.672H177.662L179.518 326.096H181.038L182.894 332.672H182.99L184.99 326.096H186.27L183.582 334H182.142L180.286 327.456H180.19L178.35 334H176.878ZM188.055 334V326.096H189.335V334H188.055ZM188.695 324.816C188.429 324.816 188.221 324.736 188.071 324.576C187.922 324.416 187.847 324.224 187.847 324C187.847 323.787 187.922 323.6 188.071 323.44C188.221 323.269 188.429 323.184 188.695 323.184C188.951 323.184 189.154 323.269 189.303 323.44C189.463 323.6 189.543 323.787 189.543 324C189.543 324.224 189.463 324.416 189.303 324.576C189.154 324.736 188.951 324.816 188.695 324.816ZM194.487 334.192C194.018 334.192 193.629 334.096 193.319 333.904C193.01 333.712 192.781 333.435 192.631 333.072C192.493 332.709 192.423 332.283 192.423 331.792V327.136H191.015V326.096H192.423V323.952H193.687V326.096H195.975V327.136H193.687V331.68C193.687 332.192 193.783 332.549 193.975 332.752C194.178 332.955 194.434 333.056 194.743 333.056C194.957 333.056 195.149 333.019 195.319 332.944C195.49 332.859 195.65 332.747 195.799 332.608L196.375 333.504C196.13 333.739 195.847 333.909 195.527 334.016C195.218 334.133 194.871 334.192 194.487 334.192ZM198.118 334V322.4H199.398V327.216H199.494C199.675 326.853 199.936 326.544 200.278 326.288C200.63 326.032 201.067 325.904 201.59 325.904C202.496 325.904 203.211 326.144 203.734 326.624C204.267 327.093 204.534 327.867 204.534 328.944V334H203.254V329.184C203.254 328.373 203.088 327.803 202.758 327.472C202.438 327.131 201.963 326.96 201.334 326.96C200.736 326.96 200.262 327.168 199.91 327.584C199.568 328 199.398 328.608 199.398 329.408V334H198.118ZM213.876 334.192C213.022 334.192 212.324 333.995 211.78 333.6C211.236 333.205 210.836 332.693 210.58 332.064C210.334 331.424 210.212 330.752 210.212 330.048C210.212 329.333 210.334 328.661 210.58 328.032C210.825 327.403 211.214 326.891 211.748 326.496C212.292 326.101 212.99 325.904 213.844 325.904C214.505 325.904 215.049 326.016 215.476 326.24C215.913 326.464 216.281 326.763 216.58 327.136L215.78 327.888C215.524 327.611 215.252 327.397 214.964 327.248C214.686 327.088 214.324 327.008 213.876 327.008C213.417 327.008 213.006 327.131 212.644 327.376C212.292 327.621 212.014 327.973 211.812 328.432C211.62 328.88 211.524 329.419 211.524 330.048C211.524 330.987 211.748 331.728 212.196 332.272C212.644 332.816 213.214 333.088 213.908 333.088C214.334 333.088 214.702 333.013 215.012 332.864C215.321 332.704 215.609 332.475 215.876 332.176L216.644 332.944C216.345 333.317 215.966 333.621 215.508 333.856C215.06 334.08 214.516 334.192 213.876 334.192ZM221.472 334.192C220.63 334.192 219.926 334.005 219.36 333.632C218.806 333.259 218.39 332.757 218.112 332.128C217.835 331.499 217.696 330.805 217.696 330.048C217.696 329.472 217.771 328.933 217.92 328.432C218.08 327.931 218.315 327.493 218.624 327.12C218.944 326.736 219.339 326.437 219.808 326.224C220.288 326.011 220.843 325.904 221.472 325.904C222.315 325.904 223.008 326.091 223.552 326.464C224.107 326.837 224.518 327.339 224.784 327.968C225.062 328.587 225.2 329.28 225.2 330.048C225.2 330.624 225.12 331.163 224.96 331.664C224.811 332.165 224.582 332.608 224.272 332.992C223.963 333.365 223.574 333.659 223.104 333.872C222.646 334.085 222.102 334.192 221.472 334.192ZM219.008 330.048C219.008 330.656 219.099 331.195 219.28 331.664C219.462 332.123 219.734 332.485 220.096 332.752C220.459 333.008 220.918 333.136 221.472 333.136C222.016 333.136 222.464 333.008 222.816 332.752C223.179 332.485 223.446 332.123 223.616 331.664C223.798 331.195 223.888 330.656 223.888 330.048C223.888 329.44 223.798 328.907 223.616 328.448C223.446 327.979 223.179 327.616 222.816 327.36C222.464 327.093 222.016 326.96 221.472 326.96C220.918 326.96 220.459 327.093 220.096 327.36C219.734 327.616 219.462 327.979 219.28 328.448C219.099 328.907 219.008 329.44 219.008 330.048ZM227.258 334V326.096H228.474V327.344H228.57C228.698 327.067 228.864 326.821 229.066 326.608C229.269 326.384 229.509 326.213 229.786 326.096C230.064 325.968 230.378 325.904 230.73 325.904C231.637 325.904 232.352 326.144 232.874 326.624C233.408 327.093 233.674 327.867 233.674 328.944V334H232.394V329.184C232.394 328.373 232.229 327.803 231.898 327.472C231.578 327.131 231.104 326.96 230.474 326.96C229.877 326.96 229.402 327.168 229.05 327.584C228.709 328 228.538 328.608 228.538 329.408V334H227.258ZM238.675 334.192C238.205 334.192 237.816 334.096 237.507 333.904C237.197 333.712 236.968 333.435 236.819 333.072C236.68 332.709 236.611 332.283 236.611 331.792V327.136H235.203V326.096H236.611V323.952H237.875V326.096H240.163V327.136H237.875V331.68C237.875 332.192 237.971 332.549 238.163 332.752C238.365 332.955 238.621 333.056 238.931 333.056C239.144 333.056 239.336 333.019 239.507 332.944C239.677 332.859 239.837 332.747 239.987 332.608L240.563 333.504C240.317 333.739 240.035 333.909 239.715 334.016C239.405 334.133 239.059 334.192 238.675 334.192ZM245.268 334.192C244.511 334.192 243.85 334.027 243.284 333.696C242.73 333.365 242.298 332.891 241.988 332.272C241.679 331.643 241.524 330.901 241.524 330.048C241.524 329.376 241.61 328.784 241.78 328.272C241.962 327.749 242.212 327.317 242.532 326.976C242.863 326.624 243.247 326.357 243.684 326.176C244.132 325.995 244.623 325.904 245.156 325.904C245.69 325.904 246.175 325.989 246.612 326.16C247.06 326.331 247.444 326.587 247.764 326.928C248.095 327.259 248.351 327.68 248.532 328.192C248.714 328.693 248.804 329.28 248.804 329.952C248.804 330.037 248.799 330.123 248.788 330.208C248.788 330.293 248.783 330.363 248.772 330.416H242.804C242.815 330.907 242.932 331.355 243.156 331.76C243.38 332.165 243.679 332.491 244.052 332.736C244.436 332.971 244.863 333.088 245.332 333.088C245.898 333.088 246.367 332.976 246.74 332.752C247.114 332.528 247.423 332.256 247.668 331.936L248.436 332.72C248.106 333.168 247.684 333.525 247.172 333.792C246.66 334.059 246.026 334.192 245.268 334.192ZM245.156 326.96C244.655 326.96 244.234 327.077 243.892 327.312C243.551 327.547 243.29 327.845 243.108 328.208C242.938 328.571 242.847 328.949 242.836 329.344H247.46C247.45 328.949 247.354 328.571 247.172 328.208C247.002 327.845 246.746 327.547 246.404 327.312C246.074 327.077 245.658 326.96 245.156 326.96ZM250.868 334V326.096H252.084V327.344H252.18C252.308 327.067 252.473 326.821 252.676 326.608C252.878 326.384 253.118 326.213 253.396 326.096C253.673 325.968 253.988 325.904 254.34 325.904C255.246 325.904 255.961 326.144 256.484 326.624C257.017 327.093 257.284 327.867 257.284 328.944V334H256.004V329.184C256.004 328.373 255.838 327.803 255.508 327.472C255.188 327.131 254.713 326.96 254.084 326.96C253.486 326.96 253.012 327.168 252.66 327.584C252.318 328 252.148 328.608 252.148 329.408V334H250.868ZM262.284 334.192C261.815 334.192 261.426 334.096 261.116 333.904C260.807 333.712 260.578 333.435 260.428 333.072C260.29 332.709 260.22 332.283 260.22 331.792V327.136H258.812V326.096H260.22V323.952H261.484V326.096H263.772V327.136H261.484V331.68C261.484 332.192 261.58 332.549 261.772 332.752C261.975 332.955 262.231 333.056 262.54 333.056C262.754 333.056 262.946 333.019 263.116 332.944C263.287 332.859 263.447 332.747 263.596 332.608L264.172 333.504C263.927 333.739 263.644 333.909 263.324 334.016C263.015 334.133 262.668 334.192 262.284 334.192Z" fill="black" fill-opacity="0.64"/>
</g>
</g>
<defs>
<filter id="filter0_ddd_25584_11801" x="0" y="0" width="356" height="384" filterUnits="userSpaceOnUse" color-interpolation-filters="sRGB">
<feFlood flood-opacity="0" result="BackgroundImageFix"/>
<feColorMatrix in="SourceAlpha" type="matrix" values="0 0 0 0 0 0 0 0 0 0 0 0 0 0 0 0 0 0 127 0" result="hardAlpha"/>
<feOffset dy="3"/>
<feGaussianBlur stdDeviation="2"/>
<feColorMatrix type="matrix" values="0 0 0 0 0 0 0 0 0 0 0 0 0 0 0 0 0 0 0.04 0"/>
<feBlend mode="normal" in2="BackgroundImageFix" result="effect1_dropShadow_25584_11801"/>
<feColorMatrix in="SourceAlpha" type="matrix" values="0 0 0 0 0 0 0 0 0 0 0 0 0 0 0 0 0 0 127 0" result="hardAlpha"/>
<feMorphology radius="2" operator="dilate" in="SourceAlpha" result="effect2_dropShadow_25584_11801"/>
<feOffset dy="2"/>
<feGaussianBlur stdDeviation="6"/>
<feColorMatrix type="matrix" values="0 0 0 0 0 0 0 0 0 0 0 0 0 0 0 0 0 0 0.04 0"/>
<feBlend mode="normal" in2="effect1_dropShadow_25584_11801" result="effect2_dropShadow_25584_11801"/>
<feColorMatrix in="SourceAlpha" type="matrix" values="0 0 0 0 0 0 0 0 0 0 0 0 0 0 0 0 0 0 127 0" result="hardAlpha"/>
<feOffset dy="4"/>
<feGaussianBlur stdDeviation="3"/>
<feColorMatrix type="matrix" values="0 0 0 0 0 0 0 0 0 0 0 0 0 0 0 0 0 0 0.02 0"/>
<feBlend mode="normal" in2="effect2_dropShadow_25584_11801" result="effect3_dropShadow_25584_11801"/>
<feBlend mode="normal" in="SourceGraphic" in2="effect3_dropShadow_25584_11801" result="shape"/>
</filter>
<clipPath id="clip0_25584_11801">
<path d="M14 28C14 19.1634 21.1634 12 30 12H326C334.837 12 342 19.1634 342 28V352C342 360.837 334.837 368 326 368H30C21.1634 368 14 360.837 14 352V28Z" fill="white"/>
</clipPath>
<clipPath id="clip1_25584_11801">
<path d="M30 140C30 126.745 40.7452 116 54 116H302C315.255 116 326 126.745 326 140C326 153.255 315.255 164 302 164H54C40.7452 164 30 153.255 30 140Z" fill="white"/>
</clipPath>
<clipPath id="clip2_25584_11801">
<path d="M30 204C30 190.745 40.7452 180 54 180H302C315.255 180 326 190.745 326 204C326 217.255 315.255 228 302 228H54C40.7452 228 30 217.255 30 204Z" fill="white"/>
</clipPath>
</defs>
</svg>
