<svg width="356" height="572" viewBox="0 0 356 572" fill="none" xmlns="http://www.w3.org/2000/svg" xmlns:xlink="http://www.w3.org/1999/xlink">
<g filter="url(#filter0_ddd_25584_11794)">
<g clip-path="url(#clip0_25584_11794)">
<path d="M14 28C14 19.1635 21.1634 12 30 12H326C334.837 12 342 19.1634 342 28V540C342 548.837 334.837 556 326 556H30C21.1634 556 14 548.837 14 540V28Z" fill="white"/>
<rect width="328" height="300" transform="translate(14 12)" fill="url(#pattern0_25584_11794)"/>
<path d="M151.783 358L154.639 344.532H149.879L150.887 339.8H166.707L165.699 344.532H160.911L158.055 358H151.783ZM164.261 358L167.201 344.168H173.081L170.141 358H164.261ZM170.729 343.076C169.814 343.076 169.096 342.815 168.573 342.292C168.05 341.769 167.789 341.125 167.789 340.36C167.789 339.539 168.088 338.839 168.685 338.26C169.301 337.663 170.094 337.364 171.065 337.364C171.998 337.364 172.717 337.625 173.221 338.148C173.744 338.671 174.005 339.315 174.005 340.08C174.005 340.901 173.706 341.611 173.109 342.208C172.512 342.787 171.718 343.076 170.729 343.076ZM179.167 358.336C177.972 358.336 176.973 358.103 176.171 357.636C175.387 357.169 174.827 356.544 174.491 355.76C174.173 354.957 174.108 354.089 174.295 353.156L175.247 348.648H173.567L174.575 344.168H176.199L176.983 340.416H182.807L182.023 344.168H185.831L184.823 348.648H181.043L180.231 352.428C180.119 352.913 180.128 353.259 180.259 353.464C180.408 353.651 180.632 353.744 180.931 353.744C181.229 353.744 181.491 353.688 181.715 353.576C181.957 353.445 182.172 353.287 182.359 353.1L184.207 356.992C183.553 357.44 182.797 357.776 181.939 358C181.08 358.224 180.156 358.336 179.167 358.336ZM184.604 358L188.916 337.7H194.796L190.484 358H184.604ZM200.07 358.336C198.633 358.336 197.401 358.075 196.374 357.552C195.348 357.011 194.554 356.283 193.994 355.368C193.453 354.435 193.182 353.38 193.182 352.204C193.182 351.196 193.36 350.197 193.714 349.208C194.069 348.2 194.582 347.295 195.254 346.492C195.945 345.689 196.785 345.045 197.774 344.56C198.764 344.075 199.893 343.832 201.162 343.832C202.208 343.832 203.132 343.991 203.934 344.308C204.756 344.607 205.446 345.036 206.006 345.596C206.566 346.156 206.996 346.819 207.294 347.584C207.593 348.349 207.742 349.189 207.742 350.104C207.742 350.608 207.705 351.075 207.63 351.504C207.556 351.915 207.453 352.269 207.322 352.568H198.782C198.801 352.923 198.894 353.221 199.062 353.464C199.23 353.688 199.454 353.856 199.734 353.968C200.014 354.08 200.322 354.136 200.658 354.136C201.144 354.136 201.582 354.061 201.974 353.912C202.385 353.744 202.73 353.557 203.01 353.352L205.726 356.348C205.054 357.001 204.205 357.496 203.178 357.832C202.152 358.168 201.116 358.336 200.07 358.336ZM201.134 347.64C200.836 347.64 200.546 347.715 200.266 347.864C200.005 347.995 199.772 348.191 199.566 348.452C199.361 348.713 199.202 349.049 199.09 349.46H202.814C202.796 349.012 202.712 348.657 202.562 348.396C202.413 348.135 202.208 347.948 201.946 347.836C201.704 347.705 201.433 347.64 201.134 347.64Z" fill="black" fill-opacity="0.76"/>
<path d="M161.589 402V391.6H164.965C165.531 391.6 166.021 391.707 166.437 391.92C166.864 392.133 167.195 392.443 167.429 392.848C167.664 393.253 167.781 393.744 167.781 394.32C167.781 394.683 167.707 395.019 167.557 395.328C167.419 395.637 167.221 395.899 166.965 396.112C166.709 396.325 166.416 396.475 166.085 396.56V396.656C166.437 396.709 166.773 396.853 167.093 397.088C167.424 397.312 167.691 397.605 167.893 397.968C168.107 398.331 168.213 398.741 168.213 399.2C168.213 399.765 168.075 400.261 167.797 400.688C167.531 401.104 167.168 401.429 166.709 401.664C166.251 401.888 165.728 402 165.141 402H161.589ZM162.949 396.16H164.805C165.125 396.16 165.403 396.091 165.637 395.952C165.883 395.813 166.069 395.616 166.197 395.36C166.325 395.093 166.389 394.789 166.389 394.448C166.389 393.915 166.245 393.499 165.957 393.2C165.669 392.891 165.291 392.736 164.821 392.736H162.949V396.16ZM162.949 400.864H165.125C165.477 400.864 165.776 400.789 166.021 400.64C166.277 400.491 166.475 400.283 166.613 400.016C166.752 399.749 166.821 399.44 166.821 399.088C166.821 398.523 166.667 398.08 166.357 397.76C166.059 397.44 165.648 397.28 165.125 397.28H162.949V400.864ZM173.628 402.192C172.786 402.192 172.082 402.005 171.516 401.632C170.962 401.259 170.546 400.757 170.268 400.128C169.991 399.499 169.852 398.805 169.852 398.048C169.852 397.472 169.927 396.933 170.076 396.432C170.236 395.931 170.471 395.493 170.78 395.12C171.1 394.736 171.495 394.437 171.964 394.224C172.444 394.011 172.999 393.904 173.628 393.904C174.471 393.904 175.164 394.091 175.708 394.464C176.263 394.837 176.674 395.339 176.94 395.968C177.218 396.587 177.356 397.28 177.356 398.048C177.356 398.624 177.276 399.163 177.116 399.664C176.967 400.165 176.738 400.608 176.428 400.992C176.119 401.365 175.73 401.659 175.26 401.872C174.802 402.085 174.258 402.192 173.628 402.192ZM171.164 398.048C171.164 398.656 171.255 399.195 171.436 399.664C171.618 400.123 171.89 400.485 172.252 400.752C172.615 401.008 173.074 401.136 173.628 401.136C174.172 401.136 174.62 401.008 174.972 400.752C175.335 400.485 175.602 400.123 175.772 399.664C175.954 399.195 176.044 398.656 176.044 398.048C176.044 397.44 175.954 396.907 175.772 396.448C175.602 395.979 175.335 395.616 174.972 395.36C174.62 395.093 174.172 394.96 173.628 394.96C173.074 394.96 172.615 395.093 172.252 395.36C171.89 395.616 171.618 395.979 171.436 396.448C171.255 396.907 171.164 397.44 171.164 398.048ZM182.263 402.192C181.559 402.192 180.945 402.011 180.423 401.648C179.9 401.285 179.489 400.795 179.191 400.176C178.903 399.547 178.759 398.832 178.759 398.032C178.759 397.232 178.903 396.523 179.191 395.904C179.489 395.275 179.9 394.784 180.423 394.432C180.945 394.08 181.559 393.904 182.263 393.904C182.913 393.904 183.473 394.059 183.943 394.368C184.412 394.677 184.748 395.072 184.951 395.552H185.047V390.4H186.327V402H185.111V400.384H185.015C184.833 400.928 184.492 401.365 183.991 401.696C183.489 402.027 182.913 402.192 182.263 402.192ZM182.583 401.04C183.041 401.04 183.452 400.933 183.815 400.72C184.188 400.496 184.487 400.16 184.711 399.712C184.935 399.264 185.047 398.709 185.047 398.048C185.047 397.376 184.935 396.821 184.711 396.384C184.487 395.936 184.188 395.605 183.815 395.392C183.452 395.168 183.041 395.056 182.583 395.056C182.113 395.056 181.687 395.168 181.303 395.392C180.929 395.605 180.631 395.936 180.407 396.384C180.183 396.821 180.071 397.376 180.071 398.048C180.071 398.709 180.183 399.264 180.407 399.712C180.631 400.16 180.929 400.496 181.303 400.72C181.687 400.933 182.113 401.04 182.583 401.04ZM189.536 405.024C189.429 405.024 189.312 405.013 189.184 404.992C189.056 404.981 188.949 404.965 188.864 404.944V403.84C188.917 403.851 189.002 403.861 189.12 403.872C189.248 403.883 189.365 403.888 189.472 403.888C189.76 403.888 189.994 403.851 190.176 403.776C190.357 403.712 190.522 403.563 190.672 403.328C190.821 403.093 190.986 402.736 191.168 402.256L188 394.096H189.392L191.776 400.72H191.872L194.272 394.096H195.568L192.464 402.08C192.197 402.773 191.936 403.333 191.68 403.76C191.424 404.197 191.13 404.517 190.8 404.72C190.469 404.923 190.048 405.024 189.536 405.024Z" fill="black" fill-opacity="0.76"/>
<g clip-path="url(#clip1_25584_11794)">
<path d="M30 452C30 438.745 40.7452 428 54 428H302C315.255 428 326 438.745 326 452C326 465.255 315.255 476 302 476H54C40.7452 476 30 465.255 30 452Z" fill="#F36805"/>
<path d="M30 452C30 438.745 40.7452 428 54 428H302C315.255 428 326 438.745 326 452C326 465.255 315.255 476 302 476H54C40.7452 476 30 465.255 30 452Z" fill="white" fill-opacity="0.01"/>
<path d="M154.542 459V446H157.922V456.3H163.202V459H154.542ZM167.687 459.24C167.1 459.24 166.553 459.12 166.047 458.88C165.54 458.64 165.133 458.3 164.827 457.86C164.52 457.407 164.367 456.86 164.367 456.22C164.367 455.62 164.507 455.107 164.787 454.68C165.08 454.24 165.52 453.893 166.107 453.64C166.707 453.387 167.467 453.233 168.387 453.18L170.487 453.06V452.9C170.487 452.527 170.393 452.247 170.207 452.06C170.02 451.86 169.78 451.727 169.487 451.66C169.193 451.58 168.88 451.54 168.547 451.54C168.173 451.54 167.793 451.607 167.407 451.74C167.02 451.873 166.733 452.06 166.547 452.3L164.807 450.5C165.167 450.033 165.693 449.647 166.387 449.34C167.08 449.033 167.987 448.88 169.107 448.88C170.053 448.88 170.867 449.027 171.547 449.32C172.227 449.613 172.747 450.047 173.107 450.62C173.48 451.18 173.667 451.867 173.667 452.68V459H170.687V457.48H170.567C170.313 458 169.947 458.427 169.467 458.76C168.987 459.08 168.393 459.24 167.687 459.24ZM168.767 457.08C169.273 457.08 169.687 456.94 170.007 456.66C170.327 456.38 170.487 455.967 170.487 455.42V454.9L168.827 455.02C168.4 455.047 168.08 455.153 167.867 455.34C167.667 455.527 167.567 455.773 167.567 456.08C167.567 456.413 167.68 456.667 167.907 456.84C168.147 457 168.433 457.08 168.767 457.08ZM181.852 459.24C181.118 459.24 180.485 459.067 179.952 458.72C179.432 458.36 179.045 457.867 178.792 457.24H178.672V459H175.652V444.5H178.832V450.74H178.952C179.165 450.193 179.518 449.747 180.012 449.4C180.505 449.053 181.118 448.88 181.852 448.88C182.638 448.88 183.345 449.107 183.972 449.56C184.612 450 185.118 450.613 185.492 451.4C185.865 452.187 186.052 453.107 186.052 454.16C186.052 455.173 185.865 456.06 185.492 456.82C185.118 457.58 184.612 458.173 183.972 458.6C183.345 459.027 182.638 459.24 181.852 459.24ZM180.812 456.5C181.238 456.5 181.598 456.393 181.892 456.18C182.185 455.953 182.405 455.66 182.552 455.3C182.712 454.927 182.792 454.513 182.792 454.06C182.792 453.607 182.712 453.2 182.552 452.84C182.405 452.467 182.185 452.173 181.892 451.96C181.598 451.733 181.238 451.62 180.812 451.62C180.385 451.62 180.018 451.733 179.712 451.96C179.418 452.173 179.198 452.467 179.052 452.84C178.905 453.2 178.832 453.607 178.832 454.06C178.832 454.513 178.905 454.927 179.052 455.3C179.198 455.66 179.418 455.953 179.712 456.18C180.018 456.393 180.385 456.5 180.812 456.5ZM192.184 459.24C190.984 459.24 190.004 458.993 189.244 458.5C188.484 457.993 187.924 457.347 187.564 456.56C187.218 455.773 187.044 454.94 187.044 454.06C187.044 453.393 187.131 452.753 187.304 452.14C187.491 451.527 187.778 450.973 188.164 450.48C188.551 449.987 189.058 449.6 189.684 449.32C190.324 449.027 191.098 448.88 192.004 448.88C192.911 448.88 193.678 449.02 194.304 449.3C194.931 449.58 195.431 449.967 195.804 450.46C196.191 450.94 196.464 451.487 196.624 452.1C196.798 452.7 196.884 453.327 196.884 453.98C196.884 454.127 196.871 454.32 196.844 454.56C196.818 454.787 196.784 454.96 196.744 455.08H190.264C190.344 455.467 190.498 455.773 190.724 456C190.964 456.227 191.231 456.393 191.524 456.5C191.831 456.593 192.111 456.64 192.364 456.64C192.831 456.64 193.231 456.567 193.564 456.42C193.911 456.273 194.178 456.08 194.364 455.84L196.104 457.66C195.784 458.113 195.278 458.493 194.584 458.8C193.891 459.093 193.091 459.24 192.184 459.24ZM192.004 451.24C191.724 451.24 191.458 451.3 191.204 451.42C190.964 451.527 190.751 451.707 190.564 451.96C190.391 452.213 190.271 452.553 190.204 452.98H193.764C193.711 452.553 193.591 452.213 193.404 451.96C193.231 451.707 193.024 451.527 192.784 451.42C192.544 451.3 192.284 451.24 192.004 451.24ZM198.425 459V444.5H201.605V459H198.425Z" fill="white"/>
</g>
<g clip-path="url(#clip2_25584_11794)">
<path d="M30 516C30 502.745 40.7452 492 54 492H302C315.255 492 326 502.745 326 516C326 529.255 315.255 540 302 540H54C40.7452 540 30 529.255 30 516Z" fill="white" fill-opacity="0.01"/>
<path d="M154.542 523V510H157.922V520.3H163.202V523H154.542ZM167.687 523.24C167.1 523.24 166.553 523.12 166.047 522.88C165.54 522.64 165.133 522.3 164.827 521.86C164.52 521.407 164.367 520.86 164.367 520.22C164.367 519.62 164.507 519.107 164.787 518.68C165.08 518.24 165.52 517.893 166.107 517.64C166.707 517.387 167.467 517.233 168.387 517.18L170.487 517.06V516.9C170.487 516.527 170.393 516.247 170.207 516.06C170.02 515.86 169.78 515.727 169.487 515.66C169.193 515.58 168.88 515.54 168.547 515.54C168.173 515.54 167.793 515.607 167.407 515.74C167.02 515.873 166.733 516.06 166.547 516.3L164.807 514.5C165.167 514.033 165.693 513.647 166.387 513.34C167.08 513.033 167.987 512.88 169.107 512.88C170.053 512.88 170.867 513.027 171.547 513.32C172.227 513.613 172.747 514.047 173.107 514.62C173.48 515.18 173.667 515.867 173.667 516.68V523H170.687V521.48H170.567C170.313 522 169.947 522.427 169.467 522.76C168.987 523.08 168.393 523.24 167.687 523.24ZM168.767 521.08C169.273 521.08 169.687 520.94 170.007 520.66C170.327 520.38 170.487 519.967 170.487 519.42V518.9L168.827 519.02C168.4 519.047 168.08 519.153 167.867 519.34C167.667 519.527 167.567 519.773 167.567 520.08C167.567 520.413 167.68 520.667 167.907 520.84C168.147 521 168.433 521.08 168.767 521.08ZM181.852 523.24C181.118 523.24 180.485 523.067 179.952 522.72C179.432 522.36 179.045 521.867 178.792 521.24H178.672V523H175.652V508.5H178.832V514.74H178.952C179.165 514.193 179.518 513.747 180.012 513.4C180.505 513.053 181.118 512.88 181.852 512.88C182.638 512.88 183.345 513.107 183.972 513.56C184.612 514 185.118 514.613 185.492 515.4C185.865 516.187 186.052 517.107 186.052 518.16C186.052 519.173 185.865 520.06 185.492 520.82C185.118 521.58 184.612 522.173 183.972 522.6C183.345 523.027 182.638 523.24 181.852 523.24ZM180.812 520.5C181.238 520.5 181.598 520.393 181.892 520.18C182.185 519.953 182.405 519.66 182.552 519.3C182.712 518.927 182.792 518.513 182.792 518.06C182.792 517.607 182.712 517.2 182.552 516.84C182.405 516.467 182.185 516.173 181.892 515.96C181.598 515.733 181.238 515.62 180.812 515.62C180.385 515.62 180.018 515.733 179.712 515.96C179.418 516.173 179.198 516.467 179.052 516.84C178.905 517.2 178.832 517.607 178.832 518.06C178.832 518.513 178.905 518.927 179.052 519.3C179.198 519.66 179.418 519.953 179.712 520.18C180.018 520.393 180.385 520.5 180.812 520.5ZM192.184 523.24C190.984 523.24 190.004 522.993 189.244 522.5C188.484 521.993 187.924 521.347 187.564 520.56C187.218 519.773 187.044 518.94 187.044 518.06C187.044 517.393 187.131 516.753 187.304 516.14C187.491 515.527 187.778 514.973 188.164 514.48C188.551 513.987 189.058 513.6 189.684 513.32C190.324 513.027 191.098 512.88 192.004 512.88C192.911 512.88 193.678 513.02 194.304 513.3C194.931 513.58 195.431 513.967 195.804 514.46C196.191 514.94 196.464 515.487 196.624 516.1C196.798 516.7 196.884 517.327 196.884 517.98C196.884 518.127 196.871 518.32 196.844 518.56C196.818 518.787 196.784 518.96 196.744 519.08H190.264C190.344 519.467 190.498 519.773 190.724 520C190.964 520.227 191.231 520.393 191.524 520.5C191.831 520.593 192.111 520.64 192.364 520.64C192.831 520.64 193.231 520.567 193.564 520.42C193.911 520.273 194.178 520.08 194.364 519.84L196.104 521.66C195.784 522.113 195.278 522.493 194.584 522.8C193.891 523.093 193.091 523.24 192.184 523.24ZM192.004 515.24C191.724 515.24 191.458 515.3 191.204 515.42C190.964 515.527 190.751 515.707 190.564 515.96C190.391 516.213 190.271 516.553 190.204 516.98H193.764C193.711 516.553 193.591 516.213 193.404 515.96C193.231 515.707 193.024 515.527 192.784 515.42C192.544 515.3 192.284 515.24 192.004 515.24ZM198.425 523V508.5H201.605V523H198.425Z" fill="#242E30"/>
</g>
</g>
</g>
<defs>
<filter id="filter0_ddd_25584_11794" x="0" y="0" width="356" height="572" filterUnits="userSpaceOnUse" color-interpolation-filters="sRGB">
<feFlood flood-opacity="0" result="BackgroundImageFix"/>
<feColorMatrix in="SourceAlpha" type="matrix" values="0 0 0 0 0 0 0 0 0 0 0 0 0 0 0 0 0 0 127 0" result="hardAlpha"/>
<feOffset dy="3"/>
<feGaussianBlur stdDeviation="2"/>
<feColorMatrix type="matrix" values="0 0 0 0 0 0 0 0 0 0 0 0 0 0 0 0 0 0 0.04 0"/>
<feBlend mode="normal" in2="BackgroundImageFix" result="effect1_dropShadow_25584_11794"/>
<feColorMatrix in="SourceAlpha" type="matrix" values="0 0 0 0 0 0 0 0 0 0 0 0 0 0 0 0 0 0 127 0" result="hardAlpha"/>
<feMorphology radius="2" operator="dilate" in="SourceAlpha" result="effect2_dropShadow_25584_11794"/>
<feOffset dy="2"/>
<feGaussianBlur stdDeviation="6"/>
<feColorMatrix type="matrix" values="0 0 0 0 0 0 0 0 0 0 0 0 0 0 0 0 0 0 0.04 0"/>
<feBlend mode="normal" in2="effect1_dropShadow_25584_11794" result="effect2_dropShadow_25584_11794"/>
<feColorMatrix in="SourceAlpha" type="matrix" values="0 0 0 0 0 0 0 0 0 0 0 0 0 0 0 0 0 0 127 0" result="hardAlpha"/>
<feOffset dy="4"/>
<feGaussianBlur stdDeviation="3"/>
<feColorMatrix type="matrix" values="0 0 0 0 0 0 0 0 0 0 0 0 0 0 0 0 0 0 0.02 0"/>
<feBlend mode="normal" in2="effect2_dropShadow_25584_11794" result="effect3_dropShadow_25584_11794"/>
<feBlend mode="normal" in="SourceGraphic" in2="effect3_dropShadow_25584_11794" result="shape"/>
</filter>
<clipPath id="clip0_25584_11794">
<path d="M14 28C14 19.1635 21.1634 12 30 12H326C334.837 12 342 19.1634 342 28V540C342 548.837 334.837 556 326 556H30C21.1634 556 14 548.837 14 540V28Z" fill="white"/>
</clipPath>
<clipPath id="clip1_25584_11794">
<path d="M30 452C30 438.745 40.7452 428 54 428H302C315.255 428 326 438.745 326 452C326 465.255 315.255 476 302 476H54C40.7452 476 30 465.255 30 452Z" fill="white"/>
</clipPath>
<clipPath id="clip2_25584_11794">
<path d="M30 516C30 502.745 40.7452 492 54 492H302C315.255 492 326 502.745 326 516C326 529.255 315.255 540 302 540H54C40.7452 540 30 529.255 30 516Z" fill="white"/>
</clipPath>
<pattern id="pattern0_25584_11794" patternUnits="userSpaceOnUse" patternTransform="matrix(170 0 0 170 0 0)" preserveAspectRatio="none" viewBox="0 0 170 170" width="1" height="1">
<g id="pattern0_25584_11794_inner">
<rect width="85" height="85" fill="black"/>
<rect y="85" width="85" height="85" fill="white"/>
<rect x="85" width="85" height="85" fill="white"/>
<rect x="85" y="85" width="85" height="85" fill="black"/>
</g>
</pattern></defs>
</svg>
