<svg width="1074" height="402" viewBox="0 0 1074 402" fill="none" xmlns="http://www.w3.org/2000/svg">
<rect x="0.5" y="0.5" width="1073" height="401" rx="16.5" fill="#F2A6B0" stroke="#E7E2DA"/>
<mask id="mask0_22211_14321" style="mask-type:alpha" maskUnits="userSpaceOnUse" x="1" y="1" width="1072" height="400">
<rect x="1" y="1" width="1072" height="400" rx="16" fill="#00DCFF"/>
</mask>
<g mask="url(#mask0_22211_14321)">
<g filter="url(#filter0_f_22211_14321)">
<rect x="342" y="37" width="389" height="328" rx="32" fill="#AD5762"/>
<rect x="338" y="33" width="397" height="336" rx="36" stroke="#E18C97" stroke-width="8"/>
</g>
<rect x="1" y="1" width="1072" height="400" rx="16" fill="black" fill-opacity="0.25"/>
<g filter="url(#filter1_ddd_22211_14321)">
<g clip-path="url(#clip0_22211_14321)">
<path d="M293.84 76.5C293.84 67.6634 301.003 60.5 309.84 60.5H764.56C773.396 60.5 780.56 67.6634 780.56 76.5V324.9C780.56 333.737 773.396 340.9 764.56 340.9H309.84C301.003 340.9 293.84 333.737 293.84 324.9V76.5Z" fill="white"/>
<path d="M319.606 106.3V93.43H315.056V89.4H329.356V93.43H324.806V106.3H319.606ZM330.838 106.3V93.456H335.726V106.3H330.838ZM333.282 92.26C332.398 92.26 331.74 92.0087 331.306 91.506C330.873 91.0034 330.656 90.4314 330.656 89.79C330.656 89.1314 330.873 88.5507 331.306 88.048C331.74 87.5454 332.398 87.294 333.282 87.294C334.166 87.294 334.825 87.5454 335.258 88.048C335.709 88.5507 335.934 89.1314 335.934 89.79C335.934 90.4314 335.709 91.0034 335.258 91.506C334.825 92.0087 334.166 92.26 333.282 92.26ZM343.982 106.56C342.838 106.56 341.902 106.378 341.174 106.014C340.446 105.633 339.9 105.052 339.536 104.272C339.19 103.475 339.016 102.452 339.016 101.204V97.278H337.378V93.456H339.016V89.972H343.878V93.456H347.7V97.278H343.878V101.23C343.878 101.715 343.956 102.079 344.112 102.322C344.286 102.565 344.598 102.686 345.048 102.686C345.36 102.686 345.655 102.625 345.932 102.504C346.21 102.365 346.435 102.201 346.608 102.01L348.064 105.26C347.614 105.693 347.05 106.023 346.374 106.248C345.716 106.456 344.918 106.56 343.982 106.56ZM349.45 106.3V87.45H354.338V106.3H349.45ZM362.672 106.612C361.198 106.612 359.95 106.317 358.928 105.728C357.905 105.121 357.134 104.315 356.614 103.31C356.094 102.287 355.834 101.143 355.834 99.878C355.834 98.9074 355.972 98.0147 356.25 97.2C356.527 96.3854 356.934 95.6747 357.472 95.068C358.026 94.444 358.72 93.9674 359.552 93.638C360.401 93.3087 361.38 93.144 362.49 93.144C363.582 93.144 364.535 93.3087 365.35 93.638C366.164 93.9674 366.84 94.4354 367.378 95.042C367.915 95.6314 368.314 96.3334 368.574 97.148C368.834 97.9454 368.964 98.8294 368.964 99.8C368.964 100.025 368.938 100.285 368.886 100.58C368.851 100.875 368.808 101.1 368.756 101.256H360.54C360.626 101.637 360.791 101.949 361.034 102.192C361.276 102.435 361.571 102.617 361.918 102.738C362.282 102.842 362.646 102.894 363.01 102.894C363.53 102.894 363.989 102.816 364.388 102.66C364.786 102.504 365.098 102.305 365.324 102.062L367.898 104.688C367.447 105.277 366.754 105.745 365.818 106.092C364.882 106.439 363.833 106.612 362.672 106.612ZM362.438 96.498C362.108 96.498 361.805 96.576 361.528 96.732C361.268 96.8707 361.051 97.0874 360.878 97.382C360.704 97.6594 360.592 98.006 360.54 98.422H364.336C364.284 97.9887 364.162 97.6334 363.972 97.356C363.798 97.0787 363.582 96.8707 363.322 96.732C363.079 96.576 362.784 96.498 362.438 96.498Z" fill="black" fill-opacity="0.76"/>
<path d="M315.43 159.727H316.99V148.953H315.43V147.58H320.276V148.953H318.716V159.727H320.276V161.1H315.43V159.727ZM323.346 152.177H321.516V150.825H323.346V149.015C323.346 148.017 323.596 147.226 324.095 146.644C324.608 146.062 325.364 145.77 326.362 145.77C326.612 145.77 326.869 145.798 327.132 145.854C327.395 145.895 327.624 145.965 327.818 146.062L327.257 147.372C327.16 147.317 327.028 147.275 326.862 147.247C326.695 147.206 326.55 147.185 326.425 147.185C325.981 147.185 325.634 147.337 325.385 147.642C325.135 147.948 325.01 148.412 325.01 149.036V150.825H327.756V152.177H325.01V161.1H323.346V152.177ZM335.435 165.031C335.283 165.031 335.123 165.017 334.957 164.99C334.804 164.976 334.673 164.955 334.562 164.927V163.492C334.631 163.506 334.742 163.52 334.894 163.534C335.061 163.548 335.213 163.554 335.352 163.554C335.629 163.554 335.865 163.534 336.059 163.492C336.253 163.45 336.427 163.353 336.579 163.201C336.746 163.062 336.905 162.847 337.058 162.556C337.21 162.279 337.377 161.904 337.557 161.433L333.438 150.825H335.248L338.347 159.436H338.472L341.592 150.825H343.277L339.242 161.204C338.978 161.884 338.722 162.459 338.472 162.93C338.236 163.416 337.973 163.811 337.682 164.116C337.39 164.435 337.065 164.664 336.704 164.802C336.357 164.955 335.934 165.031 335.435 165.031ZM349.307 161.35C348.489 161.35 347.768 161.211 347.144 160.934C346.534 160.642 346.021 160.254 345.605 159.769C345.203 159.284 344.898 158.715 344.69 158.063C344.496 157.412 344.399 156.711 344.399 155.962C344.399 155.214 344.496 154.513 344.69 153.862C344.898 153.21 345.203 152.641 345.605 152.156C346.021 151.671 346.534 151.289 347.144 151.012C347.768 150.721 348.489 150.575 349.307 150.575C350.126 150.575 350.833 150.721 351.429 151.012C352.039 151.289 352.545 151.671 352.947 152.156C353.35 152.641 353.648 153.21 353.842 153.862C354.05 154.513 354.154 155.214 354.154 155.962C354.154 156.711 354.05 157.412 353.842 158.063C353.648 158.715 353.35 159.284 352.947 159.769C352.545 160.254 352.039 160.642 351.429 160.934C350.833 161.211 350.126 161.35 349.307 161.35ZM346.104 155.962C346.104 156.559 346.167 157.106 346.291 157.606C346.43 158.091 346.631 158.514 346.895 158.874C347.158 159.221 347.491 159.492 347.893 159.686C348.295 159.88 348.767 159.977 349.307 159.977C349.834 159.977 350.292 159.88 350.68 159.686C351.082 159.492 351.408 159.221 351.658 158.874C351.921 158.514 352.115 158.091 352.24 157.606C352.379 157.106 352.448 156.559 352.448 155.962C352.448 155.366 352.379 154.825 352.24 154.34C352.115 153.841 351.921 153.418 351.658 153.071C351.408 152.711 351.082 152.433 350.68 152.239C350.292 152.045 349.834 151.948 349.307 151.948C348.767 151.948 348.295 152.045 347.893 152.239C347.491 152.433 347.158 152.711 346.895 153.071C346.631 153.418 346.43 153.841 346.291 154.34C346.167 154.825 346.104 155.366 346.104 155.962ZM360.366 161.35C359.797 161.35 359.284 161.273 358.826 161.121C358.369 160.968 357.974 160.733 357.641 160.414C357.322 160.095 357.072 159.686 356.892 159.186C356.712 158.687 356.622 158.091 356.622 157.398V150.825H358.286V157.086C358.286 158.14 358.487 158.888 358.889 159.332C359.305 159.762 359.908 159.977 360.698 159.977C361.447 159.977 362.036 159.706 362.466 159.166C362.91 158.625 363.132 157.834 363.132 156.794V150.825H364.796V161.1H363.215V159.478H363.09C362.841 160.018 362.494 160.469 362.05 160.83C361.62 161.176 361.059 161.35 360.366 161.35ZM373.323 146.02H374.987V152.281H375.112C375.348 151.809 375.688 151.407 376.131 151.074C376.575 150.742 377.144 150.575 377.837 150.575C379.016 150.575 379.945 150.887 380.624 151.511C381.317 152.135 381.664 153.141 381.664 154.527V161.1H380V154.839C380 153.785 379.785 153.044 379.355 152.614C378.939 152.17 378.322 151.948 377.504 151.948C376.714 151.948 376.097 152.218 375.653 152.759C375.209 153.3 374.987 154.09 374.987 155.13V161.1H373.323V146.02ZM387.169 161.35C386.697 161.35 386.26 161.273 385.858 161.121C385.47 160.968 385.13 160.753 384.839 160.476C384.548 160.199 384.319 159.873 384.153 159.498C384 159.11 383.924 158.687 383.924 158.23C383.924 157.342 384.243 156.628 384.881 156.087C385.518 155.546 386.427 155.241 387.605 155.172L390.309 155.006V154.278C390.309 153.487 390.115 152.919 389.727 152.572C389.353 152.212 388.812 152.031 388.105 152.031C387.508 152.031 386.995 152.142 386.565 152.364C386.136 152.586 385.803 152.829 385.567 153.092L384.569 152.094C384.929 151.65 385.414 151.289 386.025 151.012C386.649 150.721 387.356 150.575 388.146 150.575C388.853 150.575 389.45 150.672 389.935 150.866C390.42 151.047 390.809 151.296 391.1 151.615C391.405 151.934 391.62 152.309 391.745 152.738C391.883 153.168 391.953 153.626 391.953 154.111V161.1H390.393V159.353H390.268C389.99 159.977 389.602 160.469 389.103 160.83C388.604 161.176 387.959 161.35 387.169 161.35ZM387.418 159.935C388.278 159.935 388.971 159.686 389.498 159.186C390.039 158.673 390.309 157.994 390.309 157.148V156.254L387.689 156.441C386.302 156.552 385.609 157.134 385.609 158.188C385.609 158.715 385.775 159.138 386.108 159.457C386.454 159.776 386.891 159.935 387.418 159.935ZM393.746 150.825H395.556L398.655 159.394H398.78L401.9 150.825H403.585L399.591 161.1H397.719L393.746 150.825ZM409.574 161.35C408.839 161.35 408.166 161.225 407.556 160.975C406.96 160.726 406.447 160.372 406.017 159.914C405.601 159.443 405.275 158.874 405.039 158.209C404.817 157.543 404.706 156.794 404.706 155.962C404.706 155.089 404.824 154.319 405.06 153.654C405.296 152.974 405.622 152.413 406.038 151.969C406.454 151.511 406.946 151.165 407.514 150.929C408.097 150.693 408.735 150.575 409.428 150.575C410.121 150.575 410.759 150.686 411.342 150.908C411.924 151.13 412.423 151.463 412.839 151.906C413.255 152.336 413.581 152.884 413.817 153.55C414.053 154.201 414.17 154.964 414.17 155.838C414.17 155.949 414.163 156.06 414.15 156.17C414.15 156.281 414.143 156.372 414.129 156.441H406.37C406.37 156.926 406.454 157.384 406.62 157.814C406.8 158.23 407.036 158.597 407.327 158.916C407.632 159.221 407.979 159.464 408.367 159.644C408.769 159.824 409.199 159.914 409.657 159.914C410.406 159.914 411.016 159.769 411.487 159.478C411.973 159.186 412.375 158.833 412.694 158.417L413.692 159.436C413.248 160.018 412.694 160.483 412.028 160.83C411.376 161.176 410.558 161.35 409.574 161.35ZM409.428 151.948C408.943 151.948 408.513 152.038 408.138 152.218C407.764 152.399 407.452 152.634 407.202 152.926C406.953 153.217 406.759 153.55 406.62 153.924C406.495 154.298 406.426 154.673 406.412 155.047H412.423C412.409 154.673 412.333 154.298 412.194 153.924C412.07 153.55 411.882 153.217 411.633 152.926C411.383 152.634 411.071 152.399 410.697 152.218C410.336 152.038 409.913 151.948 409.428 151.948ZM424.117 161.35C423.646 161.35 423.209 161.273 422.807 161.121C422.418 160.968 422.079 160.753 421.787 160.476C421.496 160.199 421.267 159.873 421.101 159.498C420.949 159.11 420.872 158.687 420.872 158.23C420.872 157.342 421.191 156.628 421.829 156.087C422.467 155.546 423.375 155.241 424.554 155.172L427.258 155.006V154.278C427.258 153.487 427.064 152.919 426.675 152.572C426.301 152.212 425.76 152.031 425.053 152.031C424.457 152.031 423.944 152.142 423.514 152.364C423.084 152.586 422.751 152.829 422.515 153.092L421.517 152.094C421.878 151.65 422.363 151.289 422.973 151.012C423.597 150.721 424.304 150.575 425.095 150.575C425.802 150.575 426.398 150.672 426.883 150.866C427.369 151.047 427.757 151.296 428.048 151.615C428.353 151.934 428.568 152.309 428.693 152.738C428.832 153.168 428.901 153.626 428.901 154.111V161.1H427.341V159.353H427.216C426.939 159.977 426.551 160.469 426.051 160.83C425.552 161.176 424.907 161.35 424.117 161.35ZM424.367 159.935C425.226 159.935 425.92 159.686 426.447 159.186C426.987 158.673 427.258 157.994 427.258 157.148V156.254L424.637 156.441C423.25 156.552 422.557 157.134 422.557 158.188C422.557 158.715 422.723 159.138 423.056 159.457C423.403 159.776 423.84 159.935 424.367 159.935ZM437.767 152.177H435.936V150.825H437.767V149.015C437.767 148.017 438.016 147.226 438.516 146.644C439.029 146.062 439.784 145.77 440.783 145.77C441.032 145.77 441.289 145.798 441.552 145.854C441.816 145.895 442.045 145.965 442.239 146.062L441.677 147.372C441.58 147.317 441.448 147.275 441.282 147.247C441.116 147.206 440.97 147.185 440.845 147.185C440.401 147.185 440.055 147.337 439.805 147.642C439.556 147.948 439.431 148.412 439.431 149.036V150.825H442.176V152.177H439.431V161.1H437.767V152.177ZM448.148 161.35C447.33 161.35 446.609 161.211 445.985 160.934C445.375 160.642 444.862 160.254 444.446 159.769C444.044 159.284 443.738 158.715 443.53 158.063C443.336 157.412 443.239 156.711 443.239 155.962C443.239 155.214 443.336 154.513 443.53 153.862C443.738 153.21 444.044 152.641 444.446 152.156C444.862 151.671 445.375 151.289 445.985 151.012C446.609 150.721 447.33 150.575 448.148 150.575C448.966 150.575 449.673 150.721 450.27 151.012C450.88 151.289 451.386 151.671 451.788 152.156C452.19 152.641 452.488 153.21 452.682 153.862C452.89 154.513 452.994 155.214 452.994 155.962C452.994 156.711 452.89 157.412 452.682 158.063C452.488 158.715 452.19 159.284 451.788 159.769C451.386 160.254 450.88 160.642 450.27 160.934C449.673 161.211 448.966 161.35 448.148 161.35ZM444.945 155.962C444.945 156.559 445.007 157.106 445.132 157.606C445.271 158.091 445.472 158.514 445.735 158.874C445.999 159.221 446.332 159.492 446.734 159.686C447.136 159.88 447.607 159.977 448.148 159.977C448.675 159.977 449.133 159.88 449.521 159.686C449.923 159.492 450.249 159.221 450.498 158.874C450.762 158.514 450.956 158.091 451.081 157.606C451.22 157.106 451.289 156.559 451.289 155.962C451.289 155.366 451.22 154.825 451.081 154.34C450.956 153.841 450.762 153.418 450.498 153.071C450.249 152.711 449.923 152.433 449.521 152.239C449.133 152.045 448.675 151.948 448.148 151.948C447.607 151.948 447.136 152.045 446.734 152.239C446.332 152.433 445.999 152.711 445.735 153.071C445.472 153.418 445.271 153.841 445.132 154.34C445.007 154.825 444.945 155.366 444.945 155.962ZM459.726 161.35C458.908 161.35 458.187 161.211 457.563 160.934C456.953 160.642 456.44 160.254 456.024 159.769C455.622 159.284 455.317 158.715 455.109 158.063C454.914 157.412 454.817 156.711 454.817 155.962C454.817 155.214 454.914 154.513 455.109 153.862C455.317 153.21 455.622 152.641 456.024 152.156C456.44 151.671 456.953 151.289 457.563 151.012C458.187 150.721 458.908 150.575 459.726 150.575C460.544 150.575 461.251 150.721 461.848 151.012C462.458 151.289 462.964 151.671 463.366 152.156C463.768 152.641 464.066 153.21 464.261 153.862C464.469 154.513 464.573 155.214 464.573 155.962C464.573 156.711 464.469 157.412 464.261 158.063C464.066 158.715 463.768 159.284 463.366 159.769C462.964 160.254 462.458 160.642 461.848 160.934C461.251 161.211 460.544 161.35 459.726 161.35ZM456.523 155.962C456.523 156.559 456.585 157.106 456.71 157.606C456.849 158.091 457.05 158.514 457.313 158.874C457.577 159.221 457.91 159.492 458.312 159.686C458.714 159.88 459.185 159.977 459.726 159.977C460.253 159.977 460.711 159.88 461.099 159.686C461.501 159.492 461.827 159.221 462.077 158.874C462.34 158.514 462.534 158.091 462.659 157.606C462.798 157.106 462.867 156.559 462.867 155.962C462.867 155.366 462.798 154.825 462.659 154.34C462.534 153.841 462.34 153.418 462.077 153.071C461.827 152.711 461.501 152.433 461.099 152.239C460.711 152.045 460.253 151.948 459.726 151.948C459.185 151.948 458.714 152.045 458.312 152.239C457.91 152.433 457.577 152.711 457.313 153.071C457.05 153.418 456.849 153.841 456.71 154.34C456.585 154.825 456.523 155.366 456.523 155.962ZM470.951 161.35C470.257 161.35 469.633 161.218 469.079 160.954C468.524 160.677 468.046 160.303 467.643 159.831C467.241 159.346 466.929 158.77 466.707 158.105C466.499 157.439 466.395 156.718 466.395 155.942C466.395 155.165 466.499 154.451 466.707 153.799C466.929 153.134 467.241 152.565 467.643 152.094C468.046 151.608 468.524 151.234 469.079 150.97C469.633 150.707 470.257 150.575 470.951 150.575C471.797 150.575 472.525 150.776 473.135 151.178C473.745 151.581 474.182 152.094 474.445 152.718H474.57V146.02H476.234V161.1H474.653V158.999H474.528C474.403 159.36 474.223 159.686 473.987 159.977C473.766 160.254 473.495 160.497 473.176 160.705C472.871 160.913 472.525 161.072 472.136 161.183C471.762 161.294 471.367 161.35 470.951 161.35ZM471.367 159.852C471.81 159.852 472.226 159.776 472.615 159.623C473.003 159.457 473.343 159.214 473.634 158.895C473.925 158.562 474.154 158.153 474.32 157.668C474.487 157.183 474.57 156.614 474.57 155.962C474.57 155.311 474.487 154.742 474.32 154.257C474.154 153.772 473.925 153.369 473.634 153.05C473.343 152.718 473.003 152.475 472.615 152.322C472.226 152.156 471.81 152.073 471.367 152.073C470.909 152.073 470.479 152.156 470.077 152.322C469.689 152.475 469.342 152.718 469.037 153.05C468.746 153.369 468.517 153.772 468.351 154.257C468.184 154.742 468.101 155.311 468.101 155.962C468.101 156.614 468.184 157.183 468.351 157.668C468.517 158.153 468.746 158.562 469.037 158.895C469.342 159.214 469.689 159.457 470.077 159.623C470.479 159.776 470.909 159.852 471.367 159.852ZM487.025 161.35C486.553 161.35 486.117 161.273 485.714 161.121C485.326 160.968 484.986 160.753 484.695 160.476C484.404 160.199 484.175 159.873 484.009 159.498C483.856 159.11 483.78 158.687 483.78 158.23C483.78 157.342 484.099 156.628 484.737 156.087C485.375 155.546 486.283 155.241 487.462 155.172L490.166 155.006V154.278C490.166 153.487 489.972 152.919 489.583 152.572C489.209 152.212 488.668 152.031 487.961 152.031C487.365 152.031 486.852 152.142 486.422 152.364C485.992 152.586 485.659 152.829 485.423 153.092L484.425 152.094C484.785 151.65 485.271 151.289 485.881 151.012C486.505 150.721 487.212 150.575 488.002 150.575C488.71 150.575 489.306 150.672 489.791 150.866C490.277 151.047 490.665 151.296 490.956 151.615C491.261 151.934 491.476 152.309 491.601 152.738C491.74 153.168 491.809 153.626 491.809 154.111V161.1H490.249V159.353H490.124C489.847 159.977 489.458 160.469 488.959 160.83C488.46 161.176 487.815 161.35 487.025 161.35ZM487.274 159.935C488.134 159.935 488.828 159.686 489.354 159.186C489.895 158.673 490.166 157.994 490.166 157.148V156.254L487.545 156.441C486.158 156.552 485.465 157.134 485.465 158.188C485.465 158.715 485.631 159.138 485.964 159.457C486.311 159.776 486.748 159.935 487.274 159.935ZM495.158 146.02H496.822V161.1H495.158V146.02ZM500.358 146.02H502.022V161.1H500.358V146.02ZM509.572 161.35C508.837 161.35 508.165 161.225 507.554 160.975C506.958 160.726 506.445 160.372 506.015 159.914C505.599 159.443 505.273 158.874 505.038 158.209C504.816 157.543 504.705 156.794 504.705 155.962C504.705 155.089 504.823 154.319 505.058 153.654C505.294 152.974 505.62 152.413 506.036 151.969C506.452 151.511 506.944 151.165 507.513 150.929C508.095 150.693 508.733 150.575 509.426 150.575C510.12 150.575 510.758 150.686 511.34 150.908C511.922 151.13 512.422 151.463 512.838 151.906C513.254 152.336 513.58 152.884 513.815 153.55C514.051 154.201 514.169 154.964 514.169 155.838C514.169 155.949 514.162 156.06 514.148 156.17C514.148 156.281 514.141 156.372 514.127 156.441H506.369C506.369 156.926 506.452 157.384 506.618 157.814C506.799 158.23 507.034 158.597 507.326 158.916C507.631 159.221 507.977 159.464 508.366 159.644C508.768 159.824 509.198 159.914 509.655 159.914C510.404 159.914 511.014 159.769 511.486 159.478C511.971 159.186 512.373 158.833 512.692 158.417L513.69 159.436C513.247 160.018 512.692 160.483 512.026 160.83C511.375 161.176 510.557 161.35 509.572 161.35ZM509.426 151.948C508.941 151.948 508.511 152.038 508.137 152.218C507.762 152.399 507.45 152.634 507.201 152.926C506.951 153.217 506.757 153.55 506.618 153.924C506.494 154.298 506.424 154.673 506.41 155.047H512.422C512.408 154.673 512.332 154.298 512.193 153.924C512.068 153.55 511.881 153.217 511.631 152.926C511.382 152.634 511.07 152.399 510.695 152.218C510.335 152.038 509.912 151.948 509.426 151.948ZM516.851 150.825H518.432V152.489H518.557C518.779 151.948 519.098 151.497 519.514 151.137C519.93 150.762 520.45 150.575 521.074 150.575C521.601 150.575 522.065 150.679 522.467 150.887L521.906 152.385C521.726 152.288 521.531 152.225 521.323 152.198C521.129 152.156 520.928 152.135 520.72 152.135C520.041 152.135 519.5 152.413 519.098 152.967C518.71 153.508 518.515 154.201 518.515 155.047V161.1H516.851V150.825ZM528.201 165.198C527.313 165.198 526.544 165.038 525.892 164.719C525.24 164.414 524.72 164.033 524.332 163.575L525.434 162.514C525.725 162.875 526.1 163.159 526.557 163.367C527.029 163.589 527.549 163.7 528.117 163.7C529.005 163.7 529.698 163.485 530.197 163.055C530.71 162.625 530.967 161.87 530.967 160.788V158.791H530.842C530.731 159.138 530.572 159.45 530.364 159.727C530.156 159.991 529.906 160.22 529.615 160.414C529.338 160.594 529.026 160.74 528.679 160.85C528.346 160.948 528.006 160.996 527.66 160.996C527.008 160.996 526.412 160.878 525.871 160.642C525.344 160.407 524.88 160.067 524.477 159.623C524.089 159.166 523.784 158.611 523.562 157.959C523.354 157.308 523.25 156.573 523.25 155.754C523.25 154.95 523.354 154.229 523.562 153.591C523.784 152.953 524.089 152.413 524.477 151.969C524.88 151.525 525.344 151.185 525.871 150.95C526.412 150.7 527.008 150.575 527.66 150.575C528.422 150.575 529.102 150.776 529.698 151.178C530.308 151.567 530.717 152.108 530.925 152.801H531.05V150.825H532.631V160.996C532.631 162.258 532.25 163.27 531.487 164.033C530.738 164.809 529.643 165.198 528.201 165.198ZM527.993 159.498C528.908 159.498 529.629 159.18 530.156 158.542C530.697 157.904 530.967 156.982 530.967 155.775C530.967 154.555 530.697 153.633 530.156 153.009C529.629 152.385 528.908 152.073 527.993 152.073C527.064 152.073 526.322 152.385 525.767 153.009C525.226 153.633 524.956 154.555 524.956 155.775C524.956 156.982 525.226 157.904 525.767 158.542C526.322 159.18 527.064 159.498 527.993 159.498ZM536.813 165.031C536.661 165.031 536.501 165.017 536.335 164.99C536.182 164.976 536.051 164.955 535.94 164.927V163.492C536.009 163.506 536.12 163.52 536.273 163.534C536.439 163.548 536.592 163.554 536.73 163.554C537.008 163.554 537.243 163.534 537.437 163.492C537.632 163.45 537.805 163.353 537.957 163.201C538.124 163.062 538.283 162.847 538.436 162.556C538.588 162.279 538.755 161.904 538.935 161.433L534.817 150.825H536.626L539.725 159.436H539.85L542.97 150.825H544.655L540.62 161.204C540.356 161.884 540.1 162.459 539.85 162.93C539.614 163.416 539.351 163.811 539.06 164.116C538.769 164.435 538.443 164.664 538.082 164.802C537.736 164.955 537.313 165.031 536.813 165.031ZM555.886 161.35C555.067 161.35 554.346 161.211 553.722 160.934C553.112 160.642 552.599 160.254 552.183 159.769C551.781 159.284 551.476 158.715 551.268 158.063C551.074 157.412 550.977 156.711 550.977 155.962C550.977 155.214 551.074 154.513 551.268 153.862C551.476 153.21 551.781 152.641 552.183 152.156C552.599 151.671 553.112 151.289 553.722 151.012C554.346 150.721 555.067 150.575 555.886 150.575C556.704 150.575 557.411 150.721 558.007 151.012C558.617 151.289 559.123 151.671 559.526 152.156C559.928 152.641 560.226 153.21 560.42 153.862C560.628 154.513 560.732 155.214 560.732 155.962C560.732 156.711 560.628 157.412 560.42 158.063C560.226 158.715 559.928 159.284 559.526 159.769C559.123 160.254 558.617 160.642 558.007 160.934C557.411 161.211 556.704 161.35 555.886 161.35ZM552.682 155.962C552.682 156.559 552.745 157.106 552.87 157.606C553.008 158.091 553.209 158.514 553.473 158.874C553.736 159.221 554.069 159.492 554.471 159.686C554.873 159.88 555.345 159.977 555.886 159.977C556.412 159.977 556.87 159.88 557.258 159.686C557.66 159.492 557.986 159.221 558.236 158.874C558.499 158.514 558.694 158.091 558.818 157.606C558.957 157.106 559.026 156.559 559.026 155.962C559.026 155.366 558.957 154.825 558.818 154.34C558.694 153.841 558.499 153.418 558.236 153.071C557.986 152.711 557.66 152.433 557.258 152.239C556.87 152.045 556.412 151.948 555.886 151.948C555.345 151.948 554.873 152.045 554.471 152.239C554.069 152.433 553.736 152.711 553.473 153.071C553.209 153.418 553.008 153.841 552.87 154.34C552.745 154.825 552.682 155.366 552.682 155.962ZM563.408 150.825H564.988V152.489H565.113C565.335 151.948 565.654 151.497 566.07 151.137C566.486 150.762 567.006 150.575 567.63 150.575C568.157 150.575 568.622 150.679 569.024 150.887L568.462 152.385C568.282 152.288 568.088 152.225 567.88 152.198C567.686 152.156 567.484 152.135 567.276 152.135C566.597 152.135 566.056 152.413 565.654 152.967C565.266 153.508 565.072 154.201 565.072 155.047V161.1H563.408V150.825ZM578.098 148.1C578.098 148.391 577.994 148.641 577.786 148.849C577.592 149.057 577.329 149.161 576.996 149.161C576.649 149.161 576.379 149.057 576.185 148.849C575.991 148.641 575.894 148.391 575.894 148.1C575.894 147.823 575.991 147.58 576.185 147.372C576.379 147.15 576.649 147.039 576.996 147.039C577.329 147.039 577.592 147.15 577.786 147.372C577.994 147.58 578.098 147.823 578.098 148.1ZM576.164 150.825H577.828V161.1H576.164V150.825ZM581.364 150.825H582.945V152.447H583.07C583.319 151.906 583.673 151.463 584.13 151.116C584.588 150.756 585.17 150.575 585.878 150.575C587.056 150.575 587.985 150.887 588.665 151.511C589.358 152.135 589.705 153.141 589.705 154.527V161.1H588.041V154.839C588.041 153.785 587.826 153.044 587.396 152.614C586.98 152.17 586.363 151.948 585.545 151.948C584.754 151.948 584.137 152.218 583.694 152.759C583.25 153.3 583.028 154.09 583.028 155.13V161.1H581.364V150.825ZM596.205 161.35C595.276 161.35 594.597 161.072 594.167 160.518C593.737 159.963 593.522 159.2 593.522 158.23V152.177H591.692V150.825H593.522V148.038H595.165V150.825H598.14V152.177H595.165V158.084C595.165 158.75 595.29 159.214 595.54 159.478C595.803 159.741 596.136 159.873 596.538 159.873C596.815 159.873 597.065 159.824 597.287 159.727C597.509 159.616 597.717 159.471 597.911 159.29L598.66 160.455C598.022 161.052 597.204 161.35 596.205 161.35ZM604.818 161.35C604 161.35 603.279 161.211 602.655 160.934C602.045 160.642 601.532 160.254 601.116 159.769C600.714 159.284 600.409 158.715 600.201 158.063C600.007 157.412 599.91 156.711 599.91 155.962C599.91 155.214 600.007 154.513 600.201 153.862C600.409 153.21 600.714 152.641 601.116 152.156C601.532 151.671 602.045 151.289 602.655 151.012C603.279 150.721 604 150.575 604.818 150.575C605.636 150.575 606.344 150.721 606.94 151.012C607.55 151.289 608.056 151.671 608.458 152.156C608.86 152.641 609.159 153.21 609.353 153.862C609.561 154.513 609.665 155.214 609.665 155.962C609.665 156.711 609.561 157.412 609.353 158.063C609.159 158.715 608.86 159.284 608.458 159.769C608.056 160.254 607.55 160.642 606.94 160.934C606.344 161.211 605.636 161.35 604.818 161.35ZM601.615 155.962C601.615 156.559 601.678 157.106 601.802 157.606C601.941 158.091 602.142 158.514 602.406 158.874C602.669 159.221 603.002 159.492 603.404 159.686C603.806 159.88 604.278 159.977 604.818 159.977C605.345 159.977 605.803 159.88 606.191 159.686C606.593 159.492 606.919 159.221 607.169 158.874C607.432 158.514 607.626 158.091 607.751 157.606C607.89 157.106 607.959 156.559 607.959 155.962C607.959 155.366 607.89 154.825 607.751 154.34C607.626 153.841 607.432 153.418 607.169 153.071C606.919 152.711 606.593 152.433 606.191 152.239C605.803 152.045 605.345 151.948 604.818 151.948C604.278 151.948 603.806 152.045 603.404 152.239C603.002 152.433 602.669 152.711 602.406 153.071C602.142 153.418 601.941 153.841 601.802 154.34C601.678 154.825 601.615 155.366 601.615 155.962ZM612.34 146.02H614.004V161.1H612.34V146.02ZM621.555 161.35C620.82 161.35 620.147 161.225 619.537 160.975C618.941 160.726 618.428 160.372 617.998 159.914C617.582 159.443 617.256 158.874 617.02 158.209C616.799 157.543 616.688 156.794 616.688 155.962C616.688 155.089 616.806 154.319 617.041 153.654C617.277 152.974 617.603 152.413 618.019 151.969C618.435 151.511 618.927 151.165 619.496 150.929C620.078 150.693 620.716 150.575 621.409 150.575C622.103 150.575 622.74 150.686 623.323 150.908C623.905 151.13 624.404 151.463 624.82 151.906C625.236 152.336 625.562 152.884 625.798 153.55C626.034 154.201 626.152 154.964 626.152 155.838C626.152 155.949 626.145 156.06 626.131 156.17C626.131 156.281 626.124 156.372 626.11 156.441H618.352C618.352 156.926 618.435 157.384 618.601 157.814C618.782 158.23 619.017 158.597 619.308 158.916C619.614 159.221 619.96 159.464 620.348 159.644C620.751 159.824 621.18 159.914 621.638 159.914C622.387 159.914 622.997 159.769 623.468 159.478C623.954 159.186 624.356 158.833 624.675 158.417L625.673 159.436C625.23 160.018 624.675 160.483 624.009 160.83C623.358 161.176 622.539 161.35 621.555 161.35ZM621.409 151.948C620.924 151.948 620.494 152.038 620.12 152.218C619.745 152.399 619.433 152.634 619.184 152.926C618.934 153.217 618.74 153.55 618.601 153.924C618.476 154.298 618.407 154.673 618.393 155.047H624.404C624.391 154.673 624.314 154.298 624.176 153.924C624.051 153.55 623.864 153.217 623.614 152.926C623.364 152.634 623.052 152.399 622.678 152.218C622.318 152.038 621.895 151.948 621.409 151.948ZM628.834 150.825H630.415V152.489H630.54C630.762 151.948 631.081 151.497 631.497 151.137C631.913 150.762 632.433 150.575 633.057 150.575C633.584 150.575 634.048 150.679 634.45 150.887L633.889 152.385C633.708 152.288 633.514 152.225 633.306 152.198C633.112 152.156 632.911 152.135 632.703 152.135C632.024 152.135 631.483 152.413 631.081 152.967C630.692 153.508 630.498 154.201 630.498 155.047V161.1H628.834V150.825ZM638.658 161.35C638.186 161.35 637.749 161.273 637.347 161.121C636.959 160.968 636.619 160.753 636.328 160.476C636.037 160.199 635.808 159.873 635.642 159.498C635.489 159.11 635.413 158.687 635.413 158.23C635.413 157.342 635.732 156.628 636.37 156.087C637.008 155.546 637.916 155.241 639.094 155.172L641.798 155.006V154.278C641.798 153.487 641.604 152.919 641.216 152.572C640.842 152.212 640.301 152.031 639.594 152.031C638.997 152.031 638.484 152.142 638.054 152.364C637.625 152.586 637.292 152.829 637.056 153.092L636.058 152.094C636.418 151.65 636.904 151.289 637.514 151.012C638.138 150.721 638.845 150.575 639.635 150.575C640.342 150.575 640.939 150.672 641.424 150.866C641.909 151.047 642.298 151.296 642.589 151.615C642.894 151.934 643.109 152.309 643.234 152.738C643.372 153.168 643.442 153.626 643.442 154.111V161.1H641.882V159.353H641.757C641.48 159.977 641.091 160.469 640.592 160.83C640.093 161.176 639.448 161.35 638.658 161.35ZM638.907 159.935C639.767 159.935 640.46 159.686 640.987 159.186C641.528 158.673 641.798 157.994 641.798 157.148V156.254L639.178 156.441C637.791 156.552 637.098 157.134 637.098 158.188C637.098 158.715 637.264 159.138 637.597 159.457C637.944 159.776 638.38 159.935 638.907 159.935ZM646.79 150.825H648.371V152.447H648.496C648.746 151.906 649.099 151.463 649.557 151.116C650.014 150.756 650.597 150.575 651.304 150.575C652.483 150.575 653.412 150.887 654.091 151.511C654.785 152.135 655.131 153.141 655.131 154.527V161.1H653.467V154.839C653.467 153.785 653.252 153.044 652.822 152.614C652.406 152.17 651.789 151.948 650.971 151.948C650.181 151.948 649.564 152.218 649.12 152.759C648.676 153.3 648.454 154.09 648.454 155.13V161.1H646.79V150.825ZM662.381 161.35C661.549 161.35 660.828 161.197 660.217 160.892C659.621 160.587 659.129 160.185 658.741 159.686C658.352 159.186 658.068 158.618 657.888 157.98C657.708 157.328 657.617 156.656 657.617 155.962C657.617 155.269 657.708 154.604 657.888 153.966C658.068 153.314 658.345 152.738 658.72 152.239C659.108 151.74 659.6 151.338 660.197 151.033C660.793 150.728 661.507 150.575 662.339 150.575C663.213 150.575 663.927 150.721 664.481 151.012C665.036 151.303 665.508 151.692 665.896 152.177L664.856 153.154C664.523 152.794 664.169 152.517 663.795 152.322C663.434 152.114 662.963 152.01 662.381 152.01C661.465 152.01 660.724 152.364 660.155 153.071C659.6 153.765 659.323 154.728 659.323 155.962C659.323 156.573 659.399 157.12 659.552 157.606C659.704 158.091 659.919 158.507 660.197 158.854C660.474 159.2 660.8 159.464 661.174 159.644C661.549 159.824 661.965 159.914 662.422 159.914C662.977 159.914 663.455 159.817 663.857 159.623C664.26 159.415 664.634 159.117 664.981 158.729L665.979 159.727C665.577 160.213 665.085 160.608 664.502 160.913C663.92 161.204 663.213 161.35 662.381 161.35ZM672.214 161.35C671.479 161.35 670.807 161.225 670.197 160.975C669.6 160.726 669.087 160.372 668.657 159.914C668.241 159.443 667.916 158.874 667.68 158.209C667.458 157.543 667.347 156.794 667.347 155.962C667.347 155.089 667.465 154.319 667.701 153.654C667.936 152.974 668.262 152.413 668.678 151.969C669.094 151.511 669.587 151.165 670.155 150.929C670.737 150.693 671.375 150.575 672.069 150.575C672.762 150.575 673.4 150.686 673.982 150.908C674.565 151.13 675.064 151.463 675.48 151.906C675.896 152.336 676.222 152.884 676.457 153.55C676.693 154.201 676.811 154.964 676.811 155.838C676.811 155.949 676.804 156.06 676.79 156.17C676.79 156.281 676.783 156.372 676.769 156.441H669.011C669.011 156.926 669.094 157.384 669.261 157.814C669.441 158.23 669.677 158.597 669.968 158.916C670.273 159.221 670.62 159.464 671.008 159.644C671.41 159.824 671.84 159.914 672.297 159.914C673.046 159.914 673.656 159.769 674.128 159.478C674.613 159.186 675.015 158.833 675.334 158.417L676.333 159.436C675.889 160.018 675.334 160.483 674.669 160.83C674.017 161.176 673.199 161.35 672.214 161.35ZM672.069 151.948C671.583 151.948 671.153 152.038 670.779 152.218C670.405 152.399 670.093 152.634 669.843 152.926C669.593 153.217 669.399 153.55 669.261 153.924C669.136 154.298 669.067 154.673 669.053 155.047H675.064C675.05 154.673 674.974 154.298 674.835 153.924C674.71 153.55 674.523 153.217 674.273 152.926C674.024 152.634 673.712 152.399 673.337 152.218C672.977 152.038 672.554 151.948 672.069 151.948ZM684.345 155.401C684.345 154.375 684.47 153.376 684.719 152.406C684.969 151.435 685.309 150.534 685.738 149.702C686.168 148.856 686.674 148.1 687.257 147.434C687.839 146.755 688.463 146.207 689.129 145.791L689.732 146.332C689.288 146.762 688.852 147.31 688.422 147.975C688.006 148.627 687.638 149.355 687.319 150.159C687 150.95 686.744 151.796 686.55 152.697C686.356 153.584 686.258 154.486 686.258 155.401C686.258 156.316 686.356 157.224 686.55 158.126C686.744 159.013 687 159.859 687.319 160.663C687.638 161.454 688.006 162.175 688.422 162.826C688.852 163.492 689.288 164.04 689.732 164.47L689.129 165.01C688.463 164.594 687.839 164.047 687.257 163.367C686.674 162.702 686.168 161.946 685.738 161.1C685.309 160.268 684.969 159.367 684.719 158.396C684.47 157.425 684.345 156.427 684.345 155.401ZM694.884 161.35C694.066 161.35 693.345 161.211 692.721 160.934C692.111 160.642 691.598 160.254 691.182 159.769C690.779 159.284 690.474 158.715 690.266 158.063C690.072 157.412 689.975 156.711 689.975 155.962C689.975 155.214 690.072 154.513 690.266 153.862C690.474 153.21 690.779 152.641 691.182 152.156C691.598 151.671 692.111 151.289 692.721 151.012C693.345 150.721 694.066 150.575 694.884 150.575C695.702 150.575 696.409 150.721 697.006 151.012C697.616 151.289 698.122 151.671 698.524 152.156C698.926 152.641 699.224 153.21 699.418 153.862C699.626 154.513 699.73 155.214 699.73 155.962C699.73 156.711 699.626 157.412 699.418 158.063C699.224 158.715 698.926 159.284 698.524 159.769C698.122 160.254 697.616 160.642 697.006 160.934C696.409 161.211 695.702 161.35 694.884 161.35ZM691.681 155.962C691.681 156.559 691.743 157.106 691.868 157.606C692.007 158.091 692.208 158.514 692.471 158.874C692.735 159.221 693.067 159.492 693.47 159.686C693.872 159.88 694.343 159.977 694.884 159.977C695.411 159.977 695.869 159.88 696.257 159.686C696.659 159.492 696.985 159.221 697.234 158.874C697.498 158.514 697.692 158.091 697.817 157.606C697.955 157.106 698.025 156.559 698.025 155.962C698.025 155.366 697.955 154.825 697.817 154.34C697.692 153.841 697.498 153.418 697.234 153.071C696.985 152.711 696.659 152.433 696.257 152.239C695.869 152.045 695.411 151.948 694.884 151.948C694.343 151.948 693.872 152.045 693.47 152.239C693.067 152.433 692.735 152.711 692.471 153.071C692.208 153.418 692.007 153.841 691.868 154.34C691.743 154.825 691.681 155.366 691.681 155.962ZM702.406 150.825H703.987V152.489H704.112C704.334 151.948 704.653 151.497 705.069 151.137C705.485 150.762 706.005 150.575 706.629 150.575C707.155 150.575 707.62 150.679 708.022 150.887L707.461 152.385C707.28 152.288 707.086 152.225 706.878 152.198C706.684 152.156 706.483 152.135 706.275 152.135C705.595 152.135 705.055 152.413 704.653 152.967C704.264 153.508 704.07 154.201 704.07 155.047V161.1H702.406V150.825ZM321.358 189.438C321.358 189.133 321.289 188.883 321.15 188.689C321.011 188.481 320.817 188.308 320.568 188.169C320.332 188.03 320.062 187.912 319.756 187.815C319.451 187.718 319.132 187.621 318.8 187.524C318.411 187.413 318.037 187.281 317.676 187.129C317.33 186.976 317.018 186.789 316.74 186.567C316.463 186.332 316.241 186.054 316.075 185.735C315.908 185.416 315.825 185.028 315.825 184.57C315.825 184.085 315.915 183.655 316.096 183.281C316.276 182.906 316.526 182.594 316.844 182.345C317.163 182.095 317.538 181.908 317.968 181.783C318.398 181.645 318.862 181.575 319.361 181.575C320.11 181.575 320.796 181.714 321.42 181.991C322.044 182.255 322.558 182.671 322.96 183.239L321.878 184.238C321.573 183.877 321.212 183.579 320.796 183.343C320.394 183.108 319.916 182.99 319.361 182.99C319.126 182.99 318.89 183.017 318.654 183.073C318.432 183.128 318.231 183.218 318.051 183.343C317.871 183.454 317.725 183.6 317.614 183.78C317.503 183.96 317.448 184.175 317.448 184.425C317.448 184.73 317.517 184.986 317.656 185.194C317.794 185.389 317.982 185.555 318.217 185.694C318.467 185.832 318.744 185.95 319.049 186.047C319.354 186.144 319.673 186.241 320.006 186.338C320.394 186.449 320.762 186.581 321.108 186.734C321.469 186.886 321.788 187.08 322.065 187.316C322.343 187.538 322.564 187.808 322.731 188.127C322.897 188.446 322.98 188.834 322.98 189.292C322.98 189.833 322.876 190.297 322.668 190.686C322.474 191.06 322.204 191.372 321.857 191.622C321.511 191.871 321.108 192.052 320.651 192.162C320.193 192.287 319.708 192.35 319.195 192.35C318.294 192.35 317.524 192.197 316.886 191.892C316.262 191.587 315.77 191.192 315.409 190.706L316.512 189.666C316.831 190.041 317.198 190.346 317.614 190.582C318.044 190.817 318.578 190.935 319.216 190.935C319.507 190.935 319.777 190.908 320.027 190.852C320.29 190.797 320.519 190.706 320.713 190.582C320.907 190.457 321.06 190.304 321.171 190.124C321.296 189.93 321.358 189.701 321.358 189.438ZM329.909 192.35C329.091 192.35 328.37 192.211 327.746 191.934C327.136 191.642 326.623 191.254 326.207 190.769C325.804 190.284 325.499 189.715 325.291 189.063C325.097 188.412 325 187.711 325 186.962C325 186.214 325.097 185.513 325.291 184.862C325.499 184.21 325.804 183.641 326.207 183.156C326.623 182.671 327.136 182.289 327.746 182.012C328.37 181.721 329.091 181.575 329.909 181.575C330.727 181.575 331.434 181.721 332.031 182.012C332.641 182.289 333.147 182.671 333.549 183.156C333.951 183.641 334.249 184.21 334.443 184.862C334.651 185.513 334.755 186.214 334.755 186.962C334.755 187.711 334.651 188.412 334.443 189.063C334.249 189.715 333.951 190.284 333.549 190.769C333.147 191.254 332.641 191.642 332.031 191.934C331.434 192.211 330.727 192.35 329.909 192.35ZM326.706 186.962C326.706 187.559 326.768 188.106 326.893 188.606C327.032 189.091 327.233 189.514 327.496 189.874C327.76 190.221 328.092 190.492 328.495 190.686C328.897 190.88 329.368 190.977 329.909 190.977C330.436 190.977 330.893 190.88 331.282 190.686C331.684 190.492 332.01 190.221 332.259 189.874C332.523 189.514 332.717 189.091 332.842 188.606C332.98 188.106 333.05 187.559 333.05 186.962C333.05 186.366 332.98 185.825 332.842 185.34C332.717 184.841 332.523 184.418 332.259 184.071C332.01 183.711 331.684 183.433 331.282 183.239C330.893 183.045 330.436 182.948 329.909 182.948C329.368 182.948 328.897 183.045 328.495 183.239C328.092 183.433 327.76 183.711 327.496 184.071C327.233 184.418 327.032 184.841 326.893 185.34C326.768 185.825 326.706 186.366 326.706 186.962ZM337.431 181.825H339.012V183.447H339.137C339.386 182.906 339.733 182.463 340.177 182.116C340.634 181.756 341.203 181.575 341.882 181.575C342.7 181.575 343.387 181.728 343.941 182.033C344.51 182.324 344.933 182.768 345.21 183.364C345.515 182.782 345.924 182.338 346.437 182.033C346.951 181.728 347.602 181.575 348.393 181.575C348.961 181.575 349.474 181.652 349.932 181.804C350.389 181.957 350.778 182.192 351.097 182.511C351.429 182.83 351.679 183.239 351.845 183.738C352.026 184.238 352.116 184.834 352.116 185.527V192.1H350.452V185.839C350.452 184.785 350.244 184.044 349.828 183.614C349.426 183.17 348.829 182.948 348.039 182.948C347.276 182.948 346.68 183.218 346.25 183.759C345.82 184.3 345.605 185.09 345.605 186.13V192.1H343.941V185.839C343.941 184.785 343.733 184.044 343.317 183.614C342.915 183.17 342.319 182.948 341.529 182.948C340.78 182.948 340.184 183.218 339.74 183.759C339.31 184.3 339.095 185.09 339.095 186.13V192.1H337.431V181.825ZM359.483 192.35C358.748 192.35 358.076 192.225 357.465 191.975C356.869 191.726 356.356 191.372 355.926 190.914C355.51 190.443 355.184 189.874 354.949 189.209C354.727 188.543 354.616 187.794 354.616 186.962C354.616 186.089 354.734 185.319 354.969 184.654C355.205 183.974 355.531 183.413 355.947 182.969C356.363 182.511 356.855 182.165 357.424 181.929C358.006 181.693 358.644 181.575 359.337 181.575C360.031 181.575 360.669 181.686 361.251 181.908C361.833 182.13 362.333 182.463 362.749 182.906C363.165 183.336 363.49 183.884 363.726 184.55C363.962 185.201 364.08 185.964 364.08 186.838C364.08 186.949 364.073 187.06 364.059 187.17C364.059 187.281 364.052 187.372 364.038 187.441H356.28C356.28 187.926 356.363 188.384 356.529 188.814C356.71 189.23 356.945 189.597 357.237 189.916C357.542 190.221 357.888 190.464 358.277 190.644C358.679 190.824 359.109 190.914 359.566 190.914C360.315 190.914 360.925 190.769 361.397 190.478C361.882 190.186 362.284 189.833 362.603 189.417L363.601 190.436C363.158 191.018 362.603 191.483 361.937 191.83C361.286 192.176 360.468 192.35 359.483 192.35ZM359.337 182.948C358.852 182.948 358.422 183.038 358.048 183.218C357.673 183.399 357.361 183.634 357.112 183.926C356.862 184.217 356.668 184.55 356.529 184.924C356.405 185.298 356.335 185.673 356.321 186.047H362.333C362.319 185.673 362.242 185.298 362.104 184.924C361.979 184.55 361.792 184.217 361.542 183.926C361.293 183.634 360.981 183.399 360.606 183.218C360.246 183.038 359.823 182.948 359.337 182.948ZM370.818 192.35C370 192.35 369.279 192.211 368.655 191.934C368.045 191.642 367.532 191.254 367.116 190.769C366.714 190.284 366.409 189.715 366.201 189.063C366.007 188.412 365.91 187.711 365.91 186.962C365.91 186.214 366.007 185.513 366.201 184.862C366.409 184.21 366.714 183.641 367.116 183.156C367.532 182.671 368.045 182.289 368.655 182.012C369.279 181.721 370 181.575 370.818 181.575C371.636 181.575 372.344 181.721 372.94 182.012C373.55 182.289 374.056 182.671 374.458 183.156C374.86 183.641 375.159 184.21 375.353 184.862C375.561 185.513 375.665 186.214 375.665 186.962C375.665 187.711 375.561 188.412 375.353 189.063C375.159 189.715 374.86 190.284 374.458 190.769C374.056 191.254 373.55 191.642 372.94 191.934C372.344 192.211 371.636 192.35 370.818 192.35ZM367.615 186.962C367.615 187.559 367.678 188.106 367.802 188.606C367.941 189.091 368.142 189.514 368.406 189.874C368.669 190.221 369.002 190.492 369.404 190.686C369.806 190.88 370.278 190.977 370.818 190.977C371.345 190.977 371.803 190.88 372.191 190.686C372.593 190.492 372.919 190.221 373.169 189.874C373.432 189.514 373.626 189.091 373.751 188.606C373.89 188.106 373.959 187.559 373.959 186.962C373.959 186.366 373.89 185.825 373.751 185.34C373.626 184.841 373.432 184.418 373.169 184.071C372.919 183.711 372.593 183.433 372.191 183.239C371.803 183.045 371.345 182.948 370.818 182.948C370.278 182.948 369.806 183.045 369.404 183.239C369.002 183.433 368.669 183.711 368.406 184.071C368.142 184.418 367.941 184.841 367.802 185.34C367.678 185.825 367.615 186.366 367.615 186.962ZM378.34 181.825H379.921V183.447H380.046C380.296 182.906 380.649 182.463 381.107 182.116C381.564 181.756 382.147 181.575 382.854 181.575C384.033 181.575 384.962 181.887 385.641 182.511C386.335 183.135 386.681 184.141 386.681 185.527V192.1H385.017V185.839C385.017 184.785 384.802 184.044 384.372 183.614C383.956 183.17 383.339 182.948 382.521 182.948C381.731 182.948 381.114 183.218 380.67 183.759C380.226 184.3 380.004 185.09 380.004 186.13V192.1H378.34V181.825ZM394.035 192.35C393.3 192.35 392.627 192.225 392.017 191.975C391.421 191.726 390.908 191.372 390.478 190.914C390.062 190.443 389.736 189.874 389.5 189.209C389.278 188.543 389.167 187.794 389.167 186.962C389.167 186.089 389.285 185.319 389.521 184.654C389.757 183.974 390.083 183.413 390.499 182.969C390.915 182.511 391.407 182.165 391.975 181.929C392.558 181.693 393.196 181.575 393.889 181.575C394.582 181.575 395.22 181.686 395.803 181.908C396.385 182.13 396.884 182.463 397.3 182.906C397.716 183.336 398.042 183.884 398.278 184.55C398.513 185.201 398.631 185.964 398.631 186.838C398.631 186.949 398.624 187.06 398.611 187.17C398.611 187.281 398.604 187.372 398.59 187.441H390.831C390.831 187.926 390.915 188.384 391.081 188.814C391.261 189.23 391.497 189.597 391.788 189.916C392.093 190.221 392.44 190.464 392.828 190.644C393.23 190.824 393.66 190.914 394.118 190.914C394.867 190.914 395.477 190.769 395.948 190.478C396.433 190.186 396.836 189.833 397.155 189.417L398.153 190.436C397.709 191.018 397.155 191.483 396.489 191.83C395.837 192.176 395.019 192.35 394.035 192.35ZM393.889 182.948C393.404 182.948 392.974 183.038 392.599 183.218C392.225 183.399 391.913 183.634 391.663 183.926C391.414 184.217 391.22 184.55 391.081 184.924C390.956 185.298 390.887 185.673 390.873 186.047H396.884C396.87 185.673 396.794 185.298 396.655 184.924C396.531 184.55 396.343 184.217 396.094 183.926C395.844 183.634 395.532 183.399 395.158 183.218C394.797 183.038 394.374 182.948 393.889 182.948ZM406.956 196.031C406.803 196.031 406.644 196.017 406.477 195.99C406.325 195.976 406.193 195.955 406.082 195.927V194.492C406.151 194.506 406.262 194.52 406.415 194.534C406.581 194.548 406.734 194.554 406.872 194.554C407.15 194.554 407.385 194.534 407.58 194.492C407.774 194.45 407.947 194.353 408.1 194.201C408.266 194.062 408.425 193.847 408.578 193.556C408.731 193.279 408.897 192.904 409.077 192.433L404.959 181.825H406.768L409.868 190.436H409.992L413.112 181.825H414.797L410.762 192.204C410.499 192.884 410.242 193.459 409.992 193.93C409.757 194.416 409.493 194.811 409.202 195.116C408.911 195.435 408.585 195.664 408.224 195.802C407.878 195.955 407.455 196.031 406.956 196.031ZM420.828 192.35C420.01 192.35 419.289 192.211 418.665 191.934C418.054 191.642 417.541 191.254 417.125 190.769C416.723 190.284 416.418 189.715 416.21 189.063C416.016 188.412 415.919 187.711 415.919 186.962C415.919 186.214 416.016 185.513 416.21 184.862C416.418 184.21 416.723 183.641 417.125 183.156C417.541 182.671 418.054 182.289 418.665 182.012C419.289 181.721 420.01 181.575 420.828 181.575C421.646 181.575 422.353 181.721 422.949 182.012C423.559 182.289 424.066 182.671 424.468 183.156C424.87 183.641 425.168 184.21 425.362 184.862C425.57 185.513 425.674 186.214 425.674 186.962C425.674 187.711 425.57 188.412 425.362 189.063C425.168 189.715 424.87 190.284 424.468 190.769C424.066 191.254 423.559 191.642 422.949 191.934C422.353 192.211 421.646 192.35 420.828 192.35ZM417.625 186.962C417.625 187.559 417.687 188.106 417.812 188.606C417.95 189.091 418.151 189.514 418.415 189.874C418.678 190.221 419.011 190.492 419.413 190.686C419.815 190.88 420.287 190.977 420.828 190.977C421.355 190.977 421.812 190.88 422.201 190.686C422.603 190.492 422.929 190.221 423.178 189.874C423.442 189.514 423.636 189.091 423.761 188.606C423.899 188.106 423.969 187.559 423.969 186.962C423.969 186.366 423.899 185.825 423.761 185.34C423.636 184.841 423.442 184.418 423.178 184.071C422.929 183.711 422.603 183.433 422.201 183.239C421.812 183.045 421.355 182.948 420.828 182.948C420.287 182.948 419.815 183.045 419.413 183.239C419.011 183.433 418.678 183.711 418.415 184.071C418.151 184.418 417.95 184.841 417.812 185.34C417.687 185.825 417.625 186.366 417.625 186.962ZM431.886 192.35C431.317 192.35 430.804 192.273 430.347 192.121C429.889 191.968 429.494 191.733 429.161 191.414C428.842 191.095 428.593 190.686 428.412 190.186C428.232 189.687 428.142 189.091 428.142 188.398V181.825H429.806V188.086C429.806 189.14 430.007 189.888 430.409 190.332C430.825 190.762 431.428 190.977 432.219 190.977C432.967 190.977 433.557 190.706 433.987 190.166C434.43 189.625 434.652 188.834 434.652 187.794V181.825H436.316V192.1H434.735V190.478H434.611C434.361 191.018 434.014 191.469 433.571 191.83C433.141 192.176 432.579 192.35 431.886 192.35ZM439.452 177.02C439.59 176.965 439.75 176.923 439.93 176.895C440.124 176.854 440.318 176.833 440.512 176.833C440.706 176.833 440.894 176.854 441.074 176.895C441.254 176.923 441.421 176.965 441.573 177.02L440.845 182.158H440.18L439.452 177.02ZM444.722 181.825H446.303V183.489H446.427C446.649 182.948 446.968 182.497 447.384 182.137C447.8 181.762 448.32 181.575 448.944 181.575C449.471 181.575 449.936 181.679 450.338 181.887L449.776 183.385C449.596 183.288 449.402 183.225 449.194 183.198C449 183.156 448.799 183.135 448.591 183.135C447.911 183.135 447.37 183.413 446.968 183.967C446.58 184.508 446.386 185.201 446.386 186.047V192.1H444.722V181.825ZM455.988 192.35C455.253 192.35 454.58 192.225 453.97 191.975C453.374 191.726 452.861 191.372 452.431 190.914C452.015 190.443 451.689 189.874 451.453 189.209C451.231 188.543 451.12 187.794 451.12 186.962C451.12 186.089 451.238 185.319 451.474 184.654C451.71 183.974 452.036 183.413 452.452 182.969C452.868 182.511 453.36 182.165 453.928 181.929C454.511 181.693 455.149 181.575 455.842 181.575C456.535 181.575 457.173 181.686 457.756 181.908C458.338 182.13 458.837 182.463 459.253 182.906C459.669 183.336 459.995 183.884 460.231 184.55C460.467 185.201 460.584 185.964 460.584 186.838C460.584 186.949 460.578 187.06 460.564 187.17C460.564 187.281 460.557 187.372 460.543 187.441H452.784C452.784 187.926 452.868 188.384 453.034 188.814C453.214 189.23 453.45 189.597 453.741 189.916C454.046 190.221 454.393 190.464 454.781 190.644C455.183 190.824 455.613 190.914 456.071 190.914C456.82 190.914 457.43 190.769 457.901 190.478C458.387 190.186 458.789 189.833 459.108 189.417L460.106 190.436C459.662 191.018 459.108 191.483 458.442 191.83C457.79 192.176 456.972 192.35 455.988 192.35ZM455.842 182.948C455.357 182.948 454.927 183.038 454.552 183.218C454.178 183.399 453.866 183.634 453.616 183.926C453.367 184.217 453.173 184.55 453.034 184.924C452.909 185.298 452.84 185.673 452.826 186.047H458.837C458.823 185.673 458.747 185.298 458.608 184.924C458.484 184.55 458.296 184.217 458.047 183.926C457.797 183.634 457.485 183.399 457.111 183.218C456.75 183.038 456.327 182.948 455.842 182.948ZM472.32 192.35C471.502 192.35 470.781 192.211 470.157 191.934C469.547 191.642 469.034 191.254 468.618 190.769C468.215 190.284 467.91 189.715 467.702 189.063C467.508 188.412 467.411 187.711 467.411 186.962C467.411 186.214 467.508 185.513 467.702 184.862C467.91 184.21 468.215 183.641 468.618 183.156C469.034 182.671 469.547 182.289 470.157 182.012C470.781 181.721 471.502 181.575 472.32 181.575C473.138 181.575 473.845 181.721 474.442 182.012C475.052 182.289 475.558 182.671 475.96 183.156C476.362 183.641 476.66 184.21 476.854 184.862C477.062 185.513 477.166 186.214 477.166 186.962C477.166 187.711 477.062 188.412 476.854 189.063C476.66 189.715 476.362 190.284 475.96 190.769C475.558 191.254 475.052 191.642 474.442 191.934C473.845 192.211 473.138 192.35 472.32 192.35ZM469.117 186.962C469.117 187.559 469.179 188.106 469.304 188.606C469.443 189.091 469.644 189.514 469.907 189.874C470.171 190.221 470.503 190.492 470.906 190.686C471.308 190.88 471.779 190.977 472.32 190.977C472.847 190.977 473.304 190.88 473.693 190.686C474.095 190.492 474.421 190.221 474.67 189.874C474.934 189.514 475.128 189.091 475.253 188.606C475.391 188.106 475.461 187.559 475.461 186.962C475.461 186.366 475.391 185.825 475.253 185.34C475.128 184.841 474.934 184.418 474.67 184.071C474.421 183.711 474.095 183.433 473.693 183.239C473.304 183.045 472.847 182.948 472.32 182.948C471.779 182.948 471.308 183.045 470.906 183.239C470.503 183.433 470.171 183.711 469.907 184.071C469.644 184.418 469.443 184.841 469.304 185.34C469.179 185.825 469.117 186.366 469.117 186.962ZM479.842 181.825H481.423V183.489H481.548C481.77 182.948 482.088 182.497 482.504 182.137C482.92 181.762 483.44 181.575 484.064 181.575C484.591 181.575 485.056 181.679 485.458 181.887L484.896 183.385C484.716 183.288 484.522 183.225 484.314 183.198C484.12 183.156 483.919 183.135 483.711 183.135C483.031 183.135 482.491 183.413 482.088 183.967C481.7 184.508 481.506 185.201 481.506 186.047V192.1H479.842V181.825ZM490.796 192.35C490.103 192.35 489.479 192.218 488.924 191.954C488.369 191.677 487.891 191.303 487.489 190.831C487.087 190.346 486.775 189.77 486.553 189.105C486.345 188.439 486.241 187.718 486.241 186.942C486.241 186.165 486.345 185.451 486.553 184.799C486.775 184.134 487.087 183.565 487.489 183.094C487.891 182.608 488.369 182.234 488.924 181.97C489.479 181.707 490.103 181.575 490.796 181.575C491.642 181.575 492.37 181.776 492.98 182.178C493.59 182.581 494.027 183.094 494.29 183.718H494.415V177.02H496.079V192.1H494.498V189.999H494.374C494.249 190.36 494.069 190.686 493.833 190.977C493.611 191.254 493.341 191.497 493.022 191.705C492.717 191.913 492.37 192.072 491.982 192.183C491.607 192.294 491.212 192.35 490.796 192.35ZM491.212 190.852C491.656 190.852 492.072 190.776 492.46 190.623C492.848 190.457 493.188 190.214 493.479 189.895C493.77 189.562 493.999 189.153 494.166 188.668C494.332 188.183 494.415 187.614 494.415 186.962C494.415 186.311 494.332 185.742 494.166 185.257C493.999 184.772 493.77 184.369 493.479 184.05C493.188 183.718 492.848 183.475 492.46 183.322C492.072 183.156 491.656 183.073 491.212 183.073C490.754 183.073 490.325 183.156 489.922 183.322C489.534 183.475 489.187 183.718 488.882 184.05C488.591 184.369 488.362 184.772 488.196 185.257C488.03 185.742 487.946 186.311 487.946 186.962C487.946 187.614 488.03 188.183 488.196 188.668C488.362 189.153 488.591 189.562 488.882 189.895C489.187 190.214 489.534 190.457 489.922 190.623C490.325 190.776 490.754 190.852 491.212 190.852ZM503.621 192.35C502.886 192.35 502.213 192.225 501.603 191.975C501.007 191.726 500.494 191.372 500.064 190.914C499.648 190.443 499.322 189.874 499.086 189.209C498.864 188.543 498.753 187.794 498.753 186.962C498.753 186.089 498.871 185.319 499.107 184.654C499.343 183.974 499.669 183.413 500.085 182.969C500.501 182.511 500.993 182.165 501.561 181.929C502.144 181.693 502.782 181.575 503.475 181.575C504.168 181.575 504.806 181.686 505.389 181.908C505.971 182.13 506.47 182.463 506.886 182.906C507.302 183.336 507.628 183.884 507.864 184.55C508.099 185.201 508.217 185.964 508.217 186.838C508.217 186.949 508.21 187.06 508.197 187.17C508.197 187.281 508.19 187.372 508.176 187.441H500.417C500.417 187.926 500.501 188.384 500.667 188.814C500.847 189.23 501.083 189.597 501.374 189.916C501.679 190.221 502.026 190.464 502.414 190.644C502.816 190.824 503.246 190.914 503.704 190.914C504.453 190.914 505.063 190.769 505.534 190.478C506.019 190.186 506.422 189.833 506.741 189.417L507.739 190.436C507.295 191.018 506.741 191.483 506.075 191.83C505.423 192.176 504.605 192.35 503.621 192.35ZM503.475 182.948C502.99 182.948 502.56 183.038 502.185 183.218C501.811 183.399 501.499 183.634 501.249 183.926C501 184.217 500.806 184.55 500.667 184.924C500.542 185.298 500.473 185.673 500.459 186.047H506.47C506.456 185.673 506.38 185.298 506.241 184.924C506.117 184.55 505.929 184.217 505.68 183.926C505.43 183.634 505.118 183.399 504.744 183.218C504.383 183.038 503.96 182.948 503.475 182.948ZM510.9 181.825H512.481V183.489H512.605C512.827 182.948 513.146 182.497 513.562 182.137C513.978 181.762 514.498 181.575 515.122 181.575C515.649 181.575 516.114 181.679 516.516 181.887L515.954 183.385C515.774 183.288 515.58 183.225 515.372 183.198C515.178 183.156 514.977 183.135 514.769 183.135C514.089 183.135 513.548 183.413 513.146 183.967C512.758 184.508 512.564 185.201 512.564 186.047V192.1H510.9V181.825ZM520.594 179.1C520.594 179.391 520.49 179.641 520.282 179.849C520.087 180.057 519.824 180.161 519.491 180.161C519.145 180.161 518.874 180.057 518.68 179.849C518.486 179.641 518.389 179.391 518.389 179.1C518.389 178.823 518.486 178.58 518.68 178.372C518.874 178.15 519.145 178.039 519.491 178.039C519.824 178.039 520.087 178.15 520.282 178.372C520.49 178.58 520.594 178.823 520.594 179.1ZM518.659 181.825H520.323V192.1H518.659V181.825ZM523.859 181.825H525.44V183.447H525.565C525.814 182.906 526.168 182.463 526.626 182.116C527.083 181.756 527.666 181.575 528.373 181.575C529.551 181.575 530.481 181.887 531.16 182.511C531.853 183.135 532.2 184.141 532.2 185.527V192.1H530.536V185.839C530.536 184.785 530.321 184.044 529.891 183.614C529.475 183.17 528.858 182.948 528.04 182.948C527.25 182.948 526.633 183.218 526.189 183.759C525.745 184.3 525.523 185.09 525.523 186.13V192.1H523.859V181.825ZM539.637 196.198C538.749 196.198 537.979 196.038 537.328 195.719C536.676 195.414 536.156 195.033 535.768 194.575L536.87 193.514C537.161 193.875 537.536 194.159 537.993 194.367C538.465 194.589 538.985 194.7 539.553 194.7C540.441 194.7 541.134 194.485 541.633 194.055C542.146 193.625 542.403 192.87 542.403 191.788V189.791H542.278C542.167 190.138 542.008 190.45 541.8 190.727C541.592 190.991 541.342 191.22 541.051 191.414C540.774 191.594 540.462 191.74 540.115 191.85C539.782 191.948 539.442 191.996 539.096 191.996C538.444 191.996 537.848 191.878 537.307 191.642C536.78 191.407 536.315 191.067 535.913 190.623C535.525 190.166 535.22 189.611 534.998 188.959C534.79 188.308 534.686 187.573 534.686 186.754C534.686 185.95 534.79 185.229 534.998 184.591C535.22 183.953 535.525 183.413 535.913 182.969C536.315 182.525 536.78 182.185 537.307 181.95C537.848 181.7 538.444 181.575 539.096 181.575C539.858 181.575 540.538 181.776 541.134 182.178C541.744 182.567 542.153 183.108 542.361 183.801H542.486V181.825H544.067V191.996C544.067 193.258 543.686 194.27 542.923 195.033C542.174 195.809 541.079 196.198 539.637 196.198ZM539.429 190.498C540.344 190.498 541.065 190.18 541.592 189.542C542.133 188.904 542.403 187.982 542.403 186.775C542.403 185.555 542.133 184.633 541.592 184.009C541.065 183.385 540.344 183.073 539.429 183.073C538.499 183.073 537.758 183.385 537.203 184.009C536.662 184.633 536.392 185.555 536.392 186.775C536.392 187.982 536.662 188.904 537.203 189.542C537.758 190.18 538.499 190.498 539.429 190.498ZM553.121 183.177H551.291V181.825H553.121V180.015C553.121 179.017 553.371 178.226 553.87 177.644C554.383 177.062 555.139 176.77 556.137 176.77C556.387 176.77 556.644 176.798 556.907 176.854C557.17 176.895 557.399 176.965 557.593 177.062L557.032 178.372C556.935 178.317 556.803 178.275 556.637 178.247C556.47 178.206 556.325 178.185 556.2 178.185C555.756 178.185 555.409 178.337 555.16 178.642C554.91 178.948 554.785 179.412 554.785 180.036V181.825H557.531V183.177H554.785V192.1H553.121V183.177ZM563.503 192.35C562.685 192.35 561.964 192.211 561.34 191.934C560.729 191.642 560.216 191.254 559.8 190.769C559.398 190.284 559.093 189.715 558.885 189.063C558.691 188.412 558.594 187.711 558.594 186.962C558.594 186.214 558.691 185.513 558.885 184.862C559.093 184.21 559.398 183.641 559.8 183.156C560.216 182.671 560.729 182.289 561.34 182.012C561.964 181.721 562.685 181.575 563.503 181.575C564.321 181.575 565.028 181.721 565.624 182.012C566.234 182.289 566.741 182.671 567.143 183.156C567.545 183.641 567.843 184.21 568.037 184.862C568.245 185.513 568.349 186.214 568.349 186.962C568.349 187.711 568.245 188.412 568.037 189.063C567.843 189.715 567.545 190.284 567.143 190.769C566.741 191.254 566.234 191.642 565.624 191.934C565.028 192.211 564.321 192.35 563.503 192.35ZM560.3 186.962C560.3 187.559 560.362 188.106 560.487 188.606C560.625 189.091 560.826 189.514 561.09 189.874C561.353 190.221 561.686 190.492 562.088 190.686C562.49 190.88 562.962 190.977 563.503 190.977C564.03 190.977 564.487 190.88 564.876 190.686C565.278 190.492 565.604 190.221 565.853 189.874C566.117 189.514 566.311 189.091 566.436 188.606C566.574 188.106 566.644 187.559 566.644 186.962C566.644 186.366 566.574 185.825 566.436 185.34C566.311 184.841 566.117 184.418 565.853 184.071C565.604 183.711 565.278 183.433 564.876 183.239C564.487 183.045 564.03 182.948 563.503 182.948C562.962 182.948 562.49 183.045 562.088 183.239C561.686 183.433 561.353 183.711 561.09 184.071C560.826 184.418 560.625 184.841 560.487 185.34C560.362 185.825 560.3 186.366 560.3 186.962ZM571.025 181.825H572.606V183.489H572.73C572.952 182.948 573.271 182.497 573.687 182.137C574.103 181.762 574.623 181.575 575.247 181.575C575.774 181.575 576.239 181.679 576.641 181.887L576.079 183.385C575.899 183.288 575.705 183.225 575.497 183.198C575.303 183.156 575.102 183.135 574.894 183.135C574.214 183.135 573.673 183.413 573.271 183.967C572.883 184.508 572.689 185.201 572.689 186.047V192.1H571.025V181.825ZM583.781 177.02H585.445V183.281H585.57C585.806 182.809 586.145 182.407 586.589 182.074C587.033 181.742 587.601 181.575 588.295 181.575C589.473 181.575 590.402 181.887 591.082 182.511C591.775 183.135 592.122 184.141 592.122 185.527V192.1H590.458V185.839C590.458 184.785 590.243 184.044 589.813 183.614C589.397 183.17 588.78 182.948 587.962 182.948C587.171 182.948 586.554 183.218 586.111 183.759C585.667 184.3 585.445 185.09 585.445 186.13V192.1H583.781V177.02ZM597.626 192.35C597.155 192.35 596.718 192.273 596.316 192.121C595.928 191.968 595.588 191.753 595.297 191.476C595.006 191.199 594.777 190.873 594.61 190.498C594.458 190.11 594.382 189.687 594.382 189.23C594.382 188.342 594.701 187.628 595.338 187.087C595.976 186.546 596.885 186.241 598.063 186.172L600.767 186.006V185.278C600.767 184.487 600.573 183.919 600.185 183.572C599.81 183.212 599.27 183.031 598.562 183.031C597.966 183.031 597.453 183.142 597.023 183.364C596.593 183.586 596.261 183.829 596.025 184.092L595.026 183.094C595.387 182.65 595.872 182.289 596.482 182.012C597.106 181.721 597.814 181.575 598.604 181.575C599.311 181.575 599.907 181.672 600.393 181.866C600.878 182.047 601.266 182.296 601.558 182.615C601.863 182.934 602.078 183.309 602.202 183.738C602.341 184.168 602.41 184.626 602.41 185.111V192.1H600.85V190.353H600.726C600.448 190.977 600.06 191.469 599.561 191.83C599.062 192.176 598.417 192.35 597.626 192.35ZM597.876 190.935C598.736 190.935 599.429 190.686 599.956 190.186C600.497 189.673 600.767 188.994 600.767 188.148V187.254L598.146 187.441C596.76 187.552 596.066 188.134 596.066 189.188C596.066 189.715 596.233 190.138 596.566 190.457C596.912 190.776 597.349 190.935 597.876 190.935ZM610.71 189.438C610.71 189.133 610.64 188.883 610.502 188.689C610.363 188.481 610.169 188.308 609.919 188.169C609.684 188.03 609.413 187.912 609.108 187.815C608.803 187.718 608.484 187.621 608.151 187.524C607.763 187.413 607.389 187.281 607.028 187.129C606.681 186.976 606.369 186.789 606.092 186.567C605.815 186.332 605.593 186.054 605.426 185.735C605.26 185.416 605.177 185.028 605.177 184.57C605.177 184.085 605.267 183.655 605.447 183.281C605.628 182.906 605.877 182.594 606.196 182.345C606.515 182.095 606.889 181.908 607.319 181.783C607.749 181.645 608.214 181.575 608.713 181.575C609.462 181.575 610.148 181.714 610.772 181.991C611.396 182.255 611.909 182.671 612.311 183.239L611.23 184.238C610.925 183.877 610.564 183.579 610.148 183.343C609.746 183.108 609.268 182.99 608.713 182.99C608.477 182.99 608.241 183.017 608.006 183.073C607.784 183.128 607.583 183.218 607.402 183.343C607.222 183.454 607.077 183.6 606.966 183.78C606.855 183.96 606.799 184.175 606.799 184.425C606.799 184.73 606.869 184.986 607.007 185.194C607.146 185.389 607.333 185.555 607.569 185.694C607.818 185.832 608.096 185.95 608.401 186.047C608.706 186.144 609.025 186.241 609.358 186.338C609.746 186.449 610.113 186.581 610.46 186.734C610.821 186.886 611.14 187.08 611.417 187.316C611.694 187.538 611.916 187.808 612.082 188.127C612.249 188.446 612.332 188.834 612.332 189.292C612.332 189.833 612.228 190.297 612.02 190.686C611.826 191.06 611.556 191.372 611.209 191.622C610.862 191.871 610.46 192.052 610.002 192.162C609.545 192.287 609.06 192.35 608.546 192.35C607.645 192.35 606.876 192.197 606.238 191.892C605.614 191.587 605.121 191.192 604.761 190.706L605.863 189.666C606.182 190.041 606.55 190.346 606.966 190.582C607.396 190.817 607.929 190.935 608.567 190.935C608.858 190.935 609.129 190.908 609.378 190.852C609.642 190.797 609.871 190.706 610.065 190.582C610.259 190.457 610.412 190.304 610.522 190.124C610.647 189.93 610.71 189.701 610.71 189.438ZM616.752 186.401C616.752 185.486 616.654 184.584 616.46 183.697C616.266 182.796 616.003 181.95 615.67 181.159C615.351 180.355 614.984 179.627 614.568 178.975C614.152 178.31 613.722 177.762 613.278 177.332L613.881 176.791C614.547 177.207 615.171 177.755 615.753 178.434C616.336 179.1 616.842 179.856 617.272 180.702C617.701 181.534 618.041 182.435 618.291 183.406C618.54 184.376 618.665 185.375 618.665 186.401C618.665 187.427 618.54 188.425 618.291 189.396C618.041 190.367 617.701 191.268 617.272 192.1C616.842 192.946 616.336 193.702 615.753 194.367C615.171 195.047 614.547 195.594 613.881 196.01L613.278 195.47C613.722 195.04 614.152 194.492 614.568 193.826C614.984 193.175 615.351 192.454 615.67 191.663C616.003 190.859 616.266 190.013 616.46 189.126C616.654 188.224 616.752 187.316 616.752 186.401ZM622.882 189.895C623.27 189.895 623.575 190.034 623.797 190.311C624.019 190.589 624.13 190.921 624.13 191.31C624.13 191.975 623.929 192.599 623.527 193.182C623.125 193.764 622.584 194.319 621.904 194.846L621.259 194.159C621.537 193.896 621.786 193.605 622.008 193.286C622.23 192.981 622.403 192.627 622.528 192.225C622.251 192.156 622.029 192.017 621.863 191.809C621.71 191.601 621.634 191.358 621.634 191.081C621.634 190.762 621.745 190.485 621.967 190.249C622.189 190.013 622.494 189.895 622.882 189.895ZM632.247 181.825H633.828V183.926H633.952C634.077 183.579 634.25 183.26 634.472 182.969C634.708 182.678 634.978 182.428 635.284 182.22C635.602 182.012 635.949 181.853 636.324 181.742C636.712 181.631 637.114 181.575 637.53 181.575C638.209 181.575 638.826 181.714 639.381 181.991C639.95 182.255 640.435 182.629 640.837 183.114C641.239 183.586 641.544 184.154 641.752 184.82C641.974 185.486 642.085 186.207 642.085 186.983C642.085 187.76 641.974 188.481 641.752 189.146C641.544 189.798 641.239 190.367 640.837 190.852C640.435 191.324 639.95 191.691 639.381 191.954C638.826 192.218 638.209 192.35 637.53 192.35C636.684 192.35 635.956 192.149 635.346 191.746C634.736 191.344 634.299 190.831 634.036 190.207H633.911V195.948H632.247V181.825ZM637.114 190.852C637.572 190.852 637.994 190.776 638.383 190.623C638.785 190.457 639.132 190.214 639.423 189.895C639.728 189.562 639.964 189.153 640.13 188.668C640.296 188.183 640.38 187.614 640.38 186.962C640.38 186.311 640.296 185.742 640.13 185.257C639.964 184.772 639.728 184.369 639.423 184.05C639.132 183.718 638.785 183.475 638.383 183.322C637.994 183.156 637.572 183.073 637.114 183.073C636.67 183.073 636.254 183.156 635.866 183.322C635.478 183.475 635.138 183.718 634.847 184.05C634.556 184.369 634.327 184.772 634.16 185.257C633.994 185.742 633.911 186.311 633.911 186.962C633.911 187.614 633.994 188.183 634.16 188.668C634.327 189.153 634.556 189.562 634.847 189.895C635.138 190.214 635.478 190.457 635.866 190.623C636.254 190.776 636.67 190.852 637.114 190.852ZM644.759 177.02H646.423V183.281H646.548C646.784 182.809 647.124 182.407 647.567 182.074C648.011 181.742 648.58 181.575 649.273 181.575C650.452 181.575 651.381 181.887 652.06 182.511C652.753 183.135 653.1 184.141 653.1 185.527V192.1H651.436V185.839C651.436 184.785 651.221 184.044 650.791 183.614C650.375 183.17 649.758 182.948 648.94 182.948C648.15 182.948 647.533 183.218 647.089 183.759C646.645 184.3 646.423 185.09 646.423 186.13V192.1H644.759V177.02ZM660.393 192.35C659.575 192.35 658.854 192.211 658.23 191.934C657.62 191.642 657.107 191.254 656.691 190.769C656.289 190.284 655.984 189.715 655.776 189.063C655.582 188.412 655.485 187.711 655.485 186.962C655.485 186.214 655.582 185.513 655.776 184.862C655.984 184.21 656.289 183.641 656.691 183.156C657.107 182.671 657.62 182.289 658.23 182.012C658.854 181.721 659.575 181.575 660.393 181.575C661.212 181.575 661.919 181.721 662.515 182.012C663.125 182.289 663.631 182.671 664.033 183.156C664.436 183.641 664.734 184.21 664.928 184.862C665.136 185.513 665.24 186.214 665.24 186.962C665.24 187.711 665.136 188.412 664.928 189.063C664.734 189.715 664.436 190.284 664.033 190.769C663.631 191.254 663.125 191.642 662.515 191.934C661.919 192.211 661.212 192.35 660.393 192.35ZM657.19 186.962C657.19 187.559 657.253 188.106 657.377 188.606C657.516 189.091 657.717 189.514 657.981 189.874C658.244 190.221 658.577 190.492 658.979 190.686C659.381 190.88 659.853 190.977 660.393 190.977C660.92 190.977 661.378 190.88 661.766 190.686C662.168 190.492 662.494 190.221 662.744 189.874C663.007 189.514 663.201 189.091 663.326 188.606C663.465 188.106 663.534 187.559 663.534 186.962C663.534 186.366 663.465 185.825 663.326 185.34C663.201 184.841 663.007 184.418 662.744 184.071C662.494 183.711 662.168 183.433 661.766 183.239C661.378 183.045 660.92 182.948 660.393 182.948C659.853 182.948 659.381 183.045 658.979 183.239C658.577 183.433 658.244 183.711 657.981 184.071C657.717 184.418 657.516 184.841 657.377 185.34C657.253 185.825 657.19 186.366 657.19 186.962ZM667.915 181.825H669.496V183.447H669.621C669.871 182.906 670.224 182.463 670.682 182.116C671.139 181.756 671.722 181.575 672.429 181.575C673.608 181.575 674.537 181.887 675.216 182.511C675.91 183.135 676.256 184.141 676.256 185.527V192.1H674.592V185.839C674.592 184.785 674.377 184.044 673.947 183.614C673.531 183.17 672.914 182.948 672.096 182.948C671.306 182.948 670.689 183.218 670.245 183.759C669.801 184.3 669.579 185.09 669.579 186.13V192.1H667.915V181.825ZM683.61 192.35C682.875 192.35 682.202 192.225 681.592 191.975C680.996 191.726 680.483 191.372 680.053 190.914C679.637 190.443 679.311 189.874 679.075 189.209C678.853 188.543 678.742 187.794 678.742 186.962C678.742 186.089 678.86 185.319 679.096 184.654C679.332 183.974 679.658 183.413 680.074 182.969C680.49 182.511 680.982 182.165 681.55 181.929C682.133 181.693 682.771 181.575 683.464 181.575C684.157 181.575 684.795 181.686 685.378 181.908C685.96 182.13 686.459 182.463 686.875 182.906C687.291 183.336 687.617 183.884 687.853 184.55C688.089 185.201 688.206 185.964 688.206 186.838C688.206 186.949 688.199 187.06 688.186 187.17C688.186 187.281 688.179 187.372 688.165 187.441H680.406C680.406 187.926 680.49 188.384 680.656 188.814C680.836 189.23 681.072 189.597 681.363 189.916C681.668 190.221 682.015 190.464 682.403 190.644C682.805 190.824 683.235 190.914 683.693 190.914C684.442 190.914 685.052 190.769 685.523 190.478C686.009 190.186 686.411 189.833 686.73 189.417L687.728 190.436C687.284 191.018 686.73 191.483 686.064 191.83C685.412 192.176 684.594 192.35 683.61 192.35ZM683.464 182.948C682.979 182.948 682.549 183.038 682.174 183.218C681.8 183.399 681.488 183.634 681.238 183.926C680.989 184.217 680.795 184.55 680.656 184.924C680.531 185.298 680.462 185.673 680.448 186.047H686.459C686.445 185.673 686.369 185.298 686.23 184.924C686.106 184.55 685.918 184.217 685.669 183.926C685.419 183.634 685.107 183.399 684.733 183.218C684.372 183.038 683.949 182.948 683.464 182.948ZM699.047 192.35C698.118 192.35 697.439 192.072 697.009 191.518C696.579 190.963 696.364 190.2 696.364 189.23V183.177H694.534V181.825H696.364V179.038H698.007V181.825H700.982V183.177H698.007V189.084C698.007 189.75 698.132 190.214 698.382 190.478C698.645 190.741 698.978 190.873 699.38 190.873C699.658 190.873 699.907 190.824 700.129 190.727C700.351 190.616 700.559 190.471 700.753 190.29L701.502 191.455C700.864 192.052 700.046 192.35 699.047 192.35ZM703.767 177.02H705.431V183.281H705.556C705.792 182.809 706.131 182.407 706.575 182.074C707.019 181.742 707.587 181.575 708.281 181.575C709.459 181.575 710.388 181.887 711.068 182.511C711.761 183.135 712.108 184.141 712.108 185.527V192.1H710.444V185.839C710.444 184.785 710.229 184.044 709.799 183.614C709.383 183.17 708.766 182.948 707.948 182.948C707.157 182.948 706.54 183.218 706.097 183.759C705.653 184.3 705.431 185.09 705.431 186.13V192.1H703.767V177.02ZM719.36 192.35C718.625 192.35 717.952 192.225 717.342 191.975C716.746 191.726 716.233 191.372 715.803 190.914C715.387 190.443 715.061 189.874 714.825 189.209C714.603 188.543 714.492 187.794 714.492 186.962C714.492 186.089 714.61 185.319 714.846 184.654C715.082 183.974 715.408 183.413 715.824 182.969C716.24 182.511 716.732 182.165 717.3 181.929C717.883 181.693 718.521 181.575 719.214 181.575C719.907 181.575 720.545 181.686 721.128 181.908C721.71 182.13 722.209 182.463 722.625 182.906C723.041 183.336 723.367 183.884 723.603 184.55C723.839 185.201 723.956 185.964 723.956 186.838C723.956 186.949 723.949 187.06 723.936 187.17C723.936 187.281 723.929 187.372 723.915 187.441H716.156C716.156 187.926 716.24 188.384 716.406 188.814C716.586 189.23 716.822 189.597 717.113 189.916C717.418 190.221 717.765 190.464 718.153 190.644C718.555 190.824 718.985 190.914 719.443 190.914C720.192 190.914 720.802 190.769 721.273 190.478C721.759 190.186 722.161 189.833 722.48 189.417L723.478 190.436C723.034 191.018 722.48 191.483 721.814 191.83C721.162 192.176 720.344 192.35 719.36 192.35ZM719.214 182.948C718.729 182.948 718.299 183.038 717.924 183.218C717.55 183.399 717.238 183.634 716.988 183.926C716.739 184.217 716.545 184.55 716.406 184.924C716.281 185.298 716.212 185.673 716.198 186.047H722.209C722.195 185.673 722.119 185.298 721.98 184.924C721.856 184.55 721.668 184.217 721.419 183.926C721.169 183.634 720.857 183.399 720.483 183.218C720.122 183.038 719.699 182.948 719.214 182.948ZM316.408 212.825H317.988V214.489H318.113C318.335 213.948 318.654 213.497 319.07 213.137C319.486 212.762 320.006 212.575 320.63 212.575C321.157 212.575 321.622 212.679 322.024 212.887L321.462 214.385C321.282 214.288 321.088 214.225 320.88 214.198C320.686 214.156 320.484 214.135 320.276 214.135C319.597 214.135 319.056 214.413 318.654 214.967C318.266 215.508 318.072 216.201 318.072 217.047V223.1H316.408V212.825ZM327.674 223.35C326.939 223.35 326.266 223.225 325.656 222.975C325.06 222.726 324.547 222.372 324.117 221.914C323.701 221.443 323.375 220.874 323.139 220.209C322.917 219.543 322.806 218.794 322.806 217.962C322.806 217.089 322.924 216.319 323.16 215.654C323.396 214.974 323.722 214.413 324.138 213.969C324.554 213.511 325.046 213.165 325.614 212.929C326.197 212.693 326.835 212.575 327.528 212.575C328.221 212.575 328.859 212.686 329.442 212.908C330.024 213.13 330.523 213.463 330.939 213.906C331.355 214.336 331.681 214.884 331.917 215.55C332.153 216.201 332.27 216.964 332.27 217.838C332.27 217.949 332.263 218.06 332.25 218.17C332.25 218.281 332.243 218.372 332.229 218.441H324.47C324.47 218.926 324.554 219.384 324.72 219.814C324.9 220.23 325.136 220.597 325.427 220.916C325.732 221.221 326.079 221.464 326.467 221.644C326.869 221.824 327.299 221.914 327.757 221.914C328.506 221.914 329.116 221.769 329.587 221.478C330.073 221.186 330.475 220.833 330.794 220.417L331.792 221.436C331.348 222.018 330.794 222.483 330.128 222.83C329.476 223.176 328.658 223.35 327.674 223.35ZM327.528 213.948C327.043 213.948 326.613 214.038 326.238 214.218C325.864 214.399 325.552 214.634 325.302 214.926C325.053 215.217 324.859 215.55 324.72 215.924C324.595 216.298 324.526 216.673 324.512 217.047H330.523C330.509 216.673 330.433 216.298 330.294 215.924C330.17 215.55 329.982 215.217 329.733 214.926C329.483 214.634 329.171 214.399 328.797 214.218C328.436 214.038 328.013 213.948 327.528 213.948ZM339.903 220.438C339.903 220.133 339.834 219.883 339.695 219.689C339.557 219.481 339.363 219.308 339.113 219.169C338.877 219.03 338.607 218.912 338.302 218.815C337.997 218.718 337.678 218.621 337.345 218.524C336.957 218.413 336.582 218.281 336.222 218.129C335.875 217.976 335.563 217.789 335.286 217.567C335.008 217.332 334.787 217.054 334.62 216.735C334.454 216.416 334.371 216.028 334.371 215.57C334.371 215.085 334.461 214.655 334.641 214.281C334.821 213.906 335.071 213.594 335.39 213.345C335.709 213.095 336.083 212.908 336.513 212.783C336.943 212.645 337.407 212.575 337.907 212.575C338.655 212.575 339.342 212.714 339.966 212.991C340.59 213.255 341.103 213.671 341.505 214.239L340.423 215.238C340.118 214.877 339.758 214.579 339.342 214.343C338.94 214.108 338.461 213.99 337.907 213.99C337.671 213.99 337.435 214.017 337.199 214.073C336.977 214.128 336.776 214.218 336.596 214.343C336.416 214.454 336.27 214.6 336.159 214.78C336.048 214.96 335.993 215.175 335.993 215.425C335.993 215.73 336.062 215.986 336.201 216.194C336.34 216.389 336.527 216.555 336.763 216.694C337.012 216.832 337.289 216.95 337.595 217.047C337.9 217.144 338.219 217.241 338.551 217.338C338.94 217.449 339.307 217.581 339.654 217.734C340.014 217.886 340.333 218.08 340.611 218.316C340.888 218.538 341.11 218.808 341.276 219.127C341.443 219.446 341.526 219.834 341.526 220.292C341.526 220.833 341.422 221.297 341.214 221.686C341.02 222.06 340.749 222.372 340.403 222.622C340.056 222.871 339.654 223.052 339.196 223.162C338.739 223.287 338.253 223.35 337.74 223.35C336.839 223.35 336.069 223.197 335.431 222.892C334.807 222.587 334.315 222.192 333.955 221.706L335.057 220.666C335.376 221.041 335.743 221.346 336.159 221.582C336.589 221.817 337.123 221.935 337.761 221.935C338.052 221.935 338.323 221.908 338.572 221.852C338.836 221.797 339.064 221.706 339.259 221.582C339.453 221.457 339.605 221.304 339.716 221.124C339.841 220.93 339.903 220.701 339.903 220.438ZM347.56 223.35C346.631 223.35 345.951 223.072 345.521 222.518C345.092 221.963 344.877 221.2 344.877 220.23V214.177H343.046V212.825H344.877V210.038H346.52V212.825H349.494V214.177H346.52V220.084C346.52 220.75 346.645 221.214 346.894 221.478C347.158 221.741 347.491 221.873 347.893 221.873C348.17 221.873 348.42 221.824 348.641 221.727C348.863 221.616 349.071 221.471 349.265 221.29L350.014 222.455C349.376 223.052 348.558 223.35 347.56 223.35ZM354.547 223.35C354.075 223.35 353.638 223.273 353.236 223.121C352.848 222.968 352.508 222.753 352.217 222.476C351.926 222.199 351.697 221.873 351.531 221.498C351.378 221.11 351.302 220.687 351.302 220.23C351.302 219.342 351.621 218.628 352.259 218.087C352.897 217.546 353.805 217.241 354.984 217.172L357.688 217.006V216.278C357.688 215.487 357.493 214.919 357.105 214.572C356.731 214.212 356.19 214.031 355.483 214.031C354.886 214.031 354.373 214.142 353.944 214.364C353.514 214.586 353.181 214.829 352.945 215.092L351.947 214.094C352.307 213.65 352.793 213.289 353.403 213.012C354.027 212.721 354.734 212.575 355.524 212.575C356.232 212.575 356.828 212.672 357.313 212.866C357.798 213.047 358.187 213.296 358.478 213.615C358.783 213.934 358.998 214.309 359.123 214.738C359.261 215.168 359.331 215.626 359.331 216.111V223.1H357.771V221.353H357.646C357.369 221.977 356.98 222.469 356.481 222.83C355.982 223.176 355.337 223.35 354.547 223.35ZM354.796 221.935C355.656 221.935 356.349 221.686 356.876 221.186C357.417 220.673 357.688 219.994 357.688 219.148V218.254L355.067 218.441C353.68 218.552 352.987 219.134 352.987 220.188C352.987 220.715 353.153 221.138 353.486 221.457C353.833 221.776 354.269 221.935 354.796 221.935ZM366.216 223.35C365.647 223.35 365.134 223.273 364.676 223.121C364.219 222.968 363.824 222.733 363.491 222.414C363.172 222.095 362.922 221.686 362.742 221.186C362.562 220.687 362.472 220.091 362.472 219.398V212.825H364.136V219.086C364.136 220.14 364.337 220.888 364.739 221.332C365.155 221.762 365.758 221.977 366.548 221.977C367.297 221.977 367.886 221.706 368.316 221.166C368.76 220.625 368.982 219.834 368.982 218.794V212.825H370.646V223.1H369.065V221.478H368.94C368.691 222.018 368.344 222.469 367.9 222.83C367.47 223.176 366.909 223.35 366.216 223.35ZM374.176 212.825H375.757V214.489H375.882C376.104 213.948 376.423 213.497 376.839 213.137C377.255 212.762 377.775 212.575 378.399 212.575C378.926 212.575 379.39 212.679 379.792 212.887L379.231 214.385C379.051 214.288 378.856 214.225 378.648 214.198C378.454 214.156 378.253 214.135 378.045 214.135C377.366 214.135 376.825 214.413 376.423 214.967C376.035 215.508 375.84 216.201 375.84 217.047V223.1H374.176V212.825ZM384 223.35C383.528 223.35 383.092 223.273 382.689 223.121C382.301 222.968 381.961 222.753 381.67 222.476C381.379 222.199 381.15 221.873 380.984 221.498C380.831 221.11 380.755 220.687 380.755 220.23C380.755 219.342 381.074 218.628 381.712 218.087C382.35 217.546 383.258 217.241 384.437 217.172L387.141 217.006V216.278C387.141 215.487 386.947 214.919 386.558 214.572C386.184 214.212 385.643 214.031 384.936 214.031C384.34 214.031 383.827 214.142 383.397 214.364C382.967 214.586 382.634 214.829 382.398 215.092L381.4 214.094C381.76 213.65 382.246 213.289 382.856 213.012C383.48 212.721 384.187 212.575 384.977 212.575C385.685 212.575 386.281 212.672 386.766 212.866C387.252 213.047 387.64 213.296 387.931 213.615C388.236 213.934 388.451 214.309 388.576 214.738C388.715 215.168 388.784 215.626 388.784 216.111V223.1H387.224V221.353H387.099C386.822 221.977 386.433 222.469 385.934 222.83C385.435 223.176 384.79 223.35 384 223.35ZM384.249 221.935C385.109 221.935 385.803 221.686 386.329 221.186C386.87 220.673 387.141 219.994 387.141 219.148V218.254L384.52 218.441C383.133 218.552 382.44 219.134 382.44 220.188C382.44 220.715 382.606 221.138 382.939 221.457C383.286 221.776 383.723 221.935 384.249 221.935ZM392.133 212.825H393.713V214.447H393.838C394.088 213.906 394.441 213.463 394.899 213.116C395.357 212.756 395.939 212.575 396.646 212.575C397.825 212.575 398.754 212.887 399.433 213.511C400.127 214.135 400.473 215.141 400.473 216.527V223.1H398.809V216.839C398.809 215.785 398.595 215.044 398.165 214.614C397.749 214.17 397.132 213.948 396.313 213.948C395.523 213.948 394.906 214.218 394.462 214.759C394.019 215.3 393.797 216.09 393.797 217.13V223.1H392.133V212.825ZM406.974 223.35C406.045 223.35 405.365 223.072 404.936 222.518C404.506 221.963 404.291 221.2 404.291 220.23V214.177H402.46V212.825H404.291V210.038H405.934V212.825H408.908V214.177H405.934V220.084C405.934 220.75 406.059 221.214 406.308 221.478C406.572 221.741 406.905 221.873 407.307 221.873C407.584 221.873 407.834 221.824 408.056 221.727C408.277 221.616 408.485 221.471 408.68 221.29L409.428 222.455C408.79 223.052 407.972 223.35 406.974 223.35ZM412.526 223.35C412.137 223.35 411.832 223.225 411.61 222.975C411.389 222.726 411.278 222.441 411.278 222.122C411.278 221.79 411.389 221.505 411.61 221.27C411.832 221.02 412.137 220.895 412.526 220.895C412.928 220.895 413.233 221.02 413.441 221.27C413.663 221.505 413.774 221.79 413.774 222.122C413.774 222.441 413.663 222.726 413.441 222.975C413.233 223.225 412.928 223.35 412.526 223.35Z" fill="black" fill-opacity="0.76"/>
<g clip-path="url(#clip1_22211_14321)">
<path d="M314.64 288.5C314.64 271.048 328.787 256.9 346.24 256.9H728.16C745.612 256.9 759.76 271.048 759.76 288.5V288.5C759.76 305.952 745.612 320.1 728.16 320.1H346.24C328.787 320.1 314.64 305.952 314.64 288.5V288.5Z" fill="#F36805"/>
<path d="M314.64 288.5C314.64 271.048 328.787 256.9 346.24 256.9H728.16C745.612 256.9 759.76 271.048 759.76 288.5V288.5C759.76 305.952 745.612 320.1 728.16 320.1H346.24C328.787 320.1 314.64 305.952 314.64 288.5V288.5Z" fill="white" fill-opacity="0.01"/>
<path d="M514.66 297.812C513.187 297.812 511.904 297.57 510.812 297.084C509.737 296.582 508.845 295.914 508.134 295.082C507.441 294.233 506.921 293.288 506.574 292.248C506.245 291.191 506.08 290.108 506.08 288.998C506.08 287.906 506.245 286.84 506.574 285.8C506.903 284.76 507.406 283.824 508.082 282.992C508.758 282.16 509.625 281.502 510.682 281.016C511.757 280.531 513.031 280.288 514.504 280.288C515.839 280.288 517.009 280.531 518.014 281.016C519.019 281.484 519.869 282.091 520.562 282.836L517.754 285.41C517.373 284.96 516.879 284.613 516.272 284.37C515.683 284.11 515.085 283.98 514.478 283.98C513.906 283.98 513.386 284.093 512.918 284.318C512.45 284.544 512.043 284.873 511.696 285.306C511.349 285.74 511.081 286.268 510.89 286.892C510.699 287.516 510.604 288.227 510.604 289.024C510.604 290.064 510.786 290.966 511.15 291.728C511.514 292.491 511.999 293.08 512.606 293.496C513.213 293.912 513.889 294.12 514.634 294.12C515.241 294.12 515.83 293.999 516.402 293.756C516.991 293.496 517.485 293.15 517.884 292.716L520.666 295.29C519.973 296.036 519.123 296.642 518.118 297.11C517.13 297.578 515.977 297.812 514.66 297.812ZM522.67 297.5V278.65H526.804V297.5H522.67ZM535.505 297.812C534.032 297.812 532.793 297.509 531.787 296.902C530.799 296.278 530.054 295.455 529.551 294.432C529.049 293.41 528.797 292.292 528.797 291.078C528.797 290.16 528.936 289.293 529.213 288.478C529.508 287.664 529.933 286.953 530.487 286.346C531.042 285.722 531.735 285.237 532.567 284.89C533.417 284.526 534.396 284.344 535.505 284.344C536.979 284.344 538.209 284.656 539.197 285.28C540.185 285.887 540.931 286.702 541.433 287.724C541.936 288.73 542.187 289.848 542.187 291.078C542.187 291.997 542.049 292.864 541.771 293.678C541.494 294.493 541.069 295.212 540.497 295.836C539.943 296.443 539.249 296.928 538.417 297.292C537.585 297.639 536.615 297.812 535.505 297.812ZM533.009 291.078C533.009 291.806 533.113 292.43 533.321 292.95C533.547 293.453 533.841 293.843 534.205 294.12C534.587 294.38 535.02 294.51 535.505 294.51C535.991 294.51 536.415 294.38 536.779 294.12C537.143 293.843 537.429 293.453 537.637 292.95C537.863 292.43 537.975 291.806 537.975 291.078C537.975 290.333 537.863 289.709 537.637 289.206C537.429 288.704 537.143 288.322 536.779 288.062C536.415 287.785 535.991 287.646 535.505 287.646C535.02 287.646 534.587 287.785 534.205 288.062C533.841 288.322 533.547 288.704 533.321 289.206C533.113 289.709 533.009 290.333 533.009 291.078ZM548.804 297.812C547.434 297.812 546.282 297.639 545.346 297.292C544.41 296.928 543.716 296.478 543.266 295.94L545.32 293.6C545.718 293.982 546.212 294.268 546.802 294.458C547.391 294.649 547.98 294.744 548.57 294.744C549.124 294.744 549.549 294.649 549.844 294.458C550.156 294.268 550.312 293.99 550.312 293.626C550.312 293.384 550.199 293.193 549.974 293.054C549.748 292.916 549.419 292.794 548.986 292.69C548.57 292.586 548.067 292.474 547.478 292.352C546.819 292.196 546.195 291.971 545.606 291.676C545.034 291.382 544.574 290.974 544.228 290.454C543.881 289.934 543.708 289.276 543.708 288.478C543.708 287.594 543.942 286.849 544.41 286.242C544.895 285.618 545.554 285.15 546.386 284.838C547.235 284.509 548.197 284.344 549.272 284.344C550.554 284.344 551.629 284.526 552.496 284.89C553.362 285.254 554.004 285.688 554.42 286.19L552.262 288.53C551.95 288.201 551.542 287.932 551.04 287.724C550.537 287.516 550.043 287.412 549.558 287.412C549.107 287.412 548.717 287.49 548.388 287.646C548.058 287.785 547.894 288.036 547.894 288.4C547.894 288.643 548.006 288.834 548.232 288.972C548.457 289.111 548.778 289.232 549.194 289.336C549.627 289.423 550.138 289.536 550.728 289.674C551.404 289.813 552.028 290.038 552.6 290.35C553.172 290.645 553.631 291.052 553.978 291.572C554.324 292.092 554.498 292.751 554.498 293.548C554.498 294.432 554.255 295.195 553.77 295.836C553.284 296.478 552.617 296.972 551.768 297.318C550.918 297.648 549.93 297.812 548.804 297.812ZM562.52 297.812C560.96 297.812 559.686 297.492 558.698 296.85C557.71 296.192 556.982 295.351 556.514 294.328C556.064 293.306 555.838 292.222 555.838 291.078C555.838 290.212 555.951 289.38 556.176 288.582C556.419 287.785 556.792 287.066 557.294 286.424C557.797 285.783 558.456 285.28 559.27 284.916C560.102 284.535 561.108 284.344 562.286 284.344C563.465 284.344 564.462 284.526 565.276 284.89C566.091 285.254 566.741 285.757 567.226 286.398C567.729 287.022 568.084 287.733 568.292 288.53C568.518 289.31 568.63 290.125 568.63 290.974C568.63 291.165 568.613 291.416 568.578 291.728C568.544 292.023 568.5 292.248 568.448 292.404H560.024C560.128 292.907 560.328 293.306 560.622 293.6C560.934 293.895 561.281 294.112 561.662 294.25C562.061 294.372 562.425 294.432 562.754 294.432C563.361 294.432 563.881 294.337 564.314 294.146C564.765 293.956 565.112 293.704 565.354 293.392L567.616 295.758C567.2 296.348 566.542 296.842 565.64 297.24C564.739 297.622 563.699 297.812 562.52 297.812ZM562.286 287.412C561.922 287.412 561.576 287.49 561.246 287.646C560.934 287.785 560.657 288.019 560.414 288.348C560.189 288.678 560.033 289.12 559.946 289.674H564.574C564.505 289.12 564.349 288.678 564.106 288.348C563.881 288.019 563.612 287.785 563.3 287.646C562.988 287.49 562.65 287.412 562.286 287.412Z" fill="white"/>
</g>
</g>
</g>
</g>
<defs>
<filter id="filter0_f_22211_14321" x="234" y="-71" width="605" height="544" filterUnits="userSpaceOnUse" color-interpolation-filters="sRGB">
<feFlood flood-opacity="0" result="BackgroundImageFix"/>
<feBlend mode="normal" in="SourceGraphic" in2="BackgroundImageFix" result="shape"/>
<feGaussianBlur stdDeviation="50" result="effect1_foregroundBlur_22211_14321"/>
</filter>
<filter id="filter1_ddd_22211_14321" x="275.64" y="44.9" width="523.12" height="316.8" filterUnits="userSpaceOnUse" color-interpolation-filters="sRGB">
<feFlood flood-opacity="0" result="BackgroundImageFix"/>
<feColorMatrix in="SourceAlpha" type="matrix" values="0 0 0 0 0 0 0 0 0 0 0 0 0 0 0 0 0 0 127 0" result="hardAlpha"/>
<feOffset dy="3.9"/>
<feGaussianBlur stdDeviation="2.6"/>
<feColorMatrix type="matrix" values="0 0 0 0 0 0 0 0 0 0 0 0 0 0 0 0 0 0 0.04 0"/>
<feBlend mode="normal" in2="BackgroundImageFix" result="effect1_dropShadow_22211_14321"/>
<feColorMatrix in="SourceAlpha" type="matrix" values="0 0 0 0 0 0 0 0 0 0 0 0 0 0 0 0 0 0 127 0" result="hardAlpha"/>
<feMorphology radius="2.6" operator="dilate" in="SourceAlpha" result="effect2_dropShadow_22211_14321"/>
<feOffset dy="2.6"/>
<feGaussianBlur stdDeviation="7.8"/>
<feColorMatrix type="matrix" values="0 0 0 0 0 0 0 0 0 0 0 0 0 0 0 0 0 0 0.04 0"/>
<feBlend mode="normal" in2="effect1_dropShadow_22211_14321" result="effect2_dropShadow_22211_14321"/>
<feColorMatrix in="SourceAlpha" type="matrix" values="0 0 0 0 0 0 0 0 0 0 0 0 0 0 0 0 0 0 127 0" result="hardAlpha"/>
<feOffset dy="5.2"/>
<feGaussianBlur stdDeviation="3.9"/>
<feColorMatrix type="matrix" values="0 0 0 0 0 0 0 0 0 0 0 0 0 0 0 0 0 0 0.02 0"/>
<feBlend mode="normal" in2="effect2_dropShadow_22211_14321" result="effect3_dropShadow_22211_14321"/>
<feBlend mode="normal" in="SourceGraphic" in2="effect3_dropShadow_22211_14321" result="shape"/>
</filter>
<clipPath id="clip0_22211_14321">
<path d="M293.84 76.5C293.84 67.6634 301.003 60.5 309.84 60.5H764.56C773.396 60.5 780.56 67.6634 780.56 76.5V324.9C780.56 333.737 773.396 340.9 764.56 340.9H309.84C301.003 340.9 293.84 333.737 293.84 324.9V76.5Z" fill="white"/>
</clipPath>
<clipPath id="clip1_22211_14321">
<path d="M314.64 288.5C314.64 271.048 328.787 256.9 346.24 256.9H728.16C745.612 256.9 759.76 271.048 759.76 288.5V288.5C759.76 305.952 745.612 320.1 728.16 320.1H346.24C328.787 320.1 314.64 305.952 314.64 288.5V288.5Z" fill="white"/>
</clipPath>
</defs>
</svg>
