<svg width="16" height="16" fill="none" xmlns="http://www.w3.org/2000/svg"><path d="M15 8A7 7 0 1 1 1 8a7 7 0 0 1 14 0Z" fill="#005430"/><path d="m13.2 7-.1-1v-.5L13 5l-.2.2.2 1V7.7c0 .1 0 .2-.3.3l-.7.4c-.1 0-.1 0 0 0l.7-.2c.2 0 .3-.2.4-.4l.1-.7ZM12.4 5.2h.2l-.2.1h.2l.1-.2H12.4v.1Z" fill="#fff"/><path d="M12.7 6.7v-.4c0-.2-.1-.3-.2-.3V6l.2.2v.4ZM11.4 7.4V7l-.2-.2v.1l.2.2v.4ZM7 5.4v.4-.5l-.2-.2.1.3ZM4 5.4l-.1.4c0-.1.1-.3 0-.4L3.9 5v.1l.1.2Z" fill="#fff"/><path d="m4.7 7.6.2-.2V7l.4-.2c0 .2 0 .4.3.3V8a2.3 2.3 0 0 0 0-.9c.2 0 .3-.2.3-.2l.4.1.1-.3v-.3l-.1.3c0 .1 0 .1-.2 0 0 0-.1 0 0 0v-.1H6l-.1.1-.2.2v-.5l-.2-.8v-.1h.1v-.1L5.4 5v1.3a34 34 0 0 1 0 .4c0-.1-.2 0-.4 0l-.2.1v-.4l.3-.1v-.9L5 5V5.7l.2.4h-.3l-.1-.5v-.1h.1L4.6 5v1l-.2-.3v-.5l-.1-.2-.1.2v.4l-.1.5-.6-.1.1-.7v-.1c-.1 0-.2 0-.3.2l-.1.5c0 .2-.1.3-.2.3l-.2-.2v-.4c0-.1 0-.1-.1 0v.6c0 .2.2.2.3.2l.2-.4.3-.6V6c-.1.2 0 .4.2.5.3 0 .4-.1.5-.3l.1-.3c0 .2.1.4.3.5l.1.5h-.1c-.1-.2-.2-.3-.4-.3-.1 0-.3.2-.3.4l.3.2h.3c0 .1-.6.5-1 .6-.3 0-.5-.2-.5-.4l.2-.4.2-.2h.1v-.4l-.2.1v.2a2.6 2.6 0 0 1-.4.4l-.4.2h.1l.3-.1h-.1c0 .3-.2.7 0 1 .4.3 1 .2 1.4 0l.5-.6Zm-1.4-1h.1Zm1 .4-.2-.1s0-.1.2 0ZM3.6 8c-.4.1-.8 0-.8-.4l.1-.6h.2c-.1.1-.2.3-.1.5 0 .3.2.4.6.4.3 0 .7-.4.9-.5v-.2h.1V7h.1v.4c-.2.2-.6.5-1 .6ZM11 7.2v-.9l-.2-.7v-.1h.2l-.3-.4V6.3l.2.9V8v-.8ZM9.8 6.4l-.1-.1V6s0-.1 0 0v.5h.1v-.2ZM9.2 6.7l-.1.2v.2h.1V7s-.1 0 0 0v-.3ZM7.4 8v-.1l-.2.3v.2h.2v-.1c-.1 0-.2 0-.1-.1V8ZM10.5 6.2v-.4l-.1.3v.2h.2V6v.1ZM10.5 7.4l.2-.1V7v.1h-.2l.1-.3v-.1l-.1.3v.3ZM11.3 5.9v-.1l-.2.4.1.2h.2v-.2.1c-.1 0-.2 0-.2-.2V6Z" fill="#fff"/><path d="M5.2 7.3v-.1l-.3.5V8h.3v-.3.2c-.1 0-.2-.1-.2-.3l.2-.3ZM11.8 8.3l.4-.2V8h-.4.2v-.2l-.2.2.1.2-.1.1ZM10.7 8.5l.4-.2v-.1H11c0 .1-.1 0-.1 0h.2V8c-.2 0-.3.2-.3.3h.1v.1l-.1.1ZM8.3 5.5l.3.4a14.7 14.7 0 0 0 .7.7l.2 1V8 6.7l.3.3c0 .2.2.3.3.4v.2-.2c0-.2 0-.3-.3-.6a6 6 0 0 0-.3-.3v-.1l-.2-.8v-.1h.1L9.2 5v.8l.1.4-.3-.2-.5-.5h.2l-.1-.1-.3-.2h-.1v.2Z" fill="#fff"/><path d="M8.5 5.2h.3l-.2.1h.1l.2-.2h-.4v.1ZM9.5 5.2h.2l-.2.1h.1l.2-.2h-.3c0 .1 0 .1 0 0ZM10.2 5.2h.2-.1v.1h.1l.1-.2H10.3ZM9.8 5.6v.1h-.1v-.1.1h-.1v-.1.2h.2v-.2ZM7.5 5.4h.2c.1 0 0-.1 0-.2v.1-.1.1h-.1v-.1.2ZM9.1 8.1v-.2H9V8l-.2.2-.3.2-.3.1h.3l.2-.2.2-.2h.2Zm0-.1H9Z" fill="#fff"/><path d="M8.4 8.2s-.3 0-.3-.2l.5-.3.6-.2.2-.2H7.9a2.4 2.4 0 0 1 .6-.3v.2l.1-.2h.3v-.3l-.1-.1c-.1-.1-.2-.2-.3-.1-.2 0-.2.2-.2.3h.1l-.3.2-.5.4v.2h1l-.5.2L8 8l-.4-.3-.2-.6c0-.4-.2-.7-.3-.8v.2a8.6 8.6 0 0 0 .3 1l-.7.5H6l.8-.5c.2-.2.2-.4 0-.5v-.3l-.2-.3V7l.2.4-.8.5a1.5 1.5 0 0 1 .1-.3v-.2.1l-.1-.1V7c.1 0 .1-.1.1 0l-.2.3v.2h.1V8l-.5.2-1 .3v-.1c-.1.1-.2 0-.2 0l.1-.3s0-.1 0 0l-.1.3v.2h.2v-.1l.8-.1L6 8c0 .3.2.4.4.3a2.1 2.1 0 0 0 1-.6v-.3c0 .2 0 .4.2.5.1.2.4.4.9.4v-.2Zm0-1.5h.3l-.2.1-.1-.1ZM5.6 5.6H6l.2-.3h.2V5h-.1l-.1.1-.2.2-.2.2Zm.6-.4Zm-.1 0Z" fill="#fff"/><path d="m8 6.6.3-.2.1-.2h.1v.1l.1-.1h-.1v-.3h-.2v.2h.1l-.3.3-.2.2s0-.1 0 0v.2l-.2-.3V6.8c-.2 0-.1-.1-.2-.2V7H8v-.3Zm.4-.6Z" fill="#fff"/><path d="M6 6.2c-.1 0-.2 0-.2-.2v-.4.6c0 .2.2.2.3.2l.2-.4.2-.5v.4c0 .2 0 .4.2.5.3 0 .5-.1.5-.3l.1-.3c0 .2.2.4.4.5H8l.1-.4-.1-.4v-.2L8 5V5.7l.2.3s-.2.1-.4 0c-.2 0-.2 0-.2-.3v-.5L7.2 5V5.6c0 .2 0 .4-.2.5-.2.1-.5 0-.5-.1v-.7c0-.1 0-.1 0 0l-.2.2-.2.4c0 .2 0 .3-.2.3ZM2.9 5.6l.3-.1h-.4.1l.2-.2h.1v-.1l-.1-.1H3v.2l-.1.1-.1.1v.1Zm.2-.4.1.1h-.1Zm-.1 0ZM3.3 7v.2l.2.4v-.1l.1-.3h.2v-.1s0-.1-.1 0l-.1.1v.2l-.2-.2-.1-.1ZM2.8 7H3l.2-.3h-.4v.1H3l-.2.1ZM13 7.6c0-.2 0-.3-.3-.7l-.3-.3v-.2l-.1-.8v-.1c.1 0 .1 0 0 0l-.1-.4-.1.1v.2l.1 1-.4-.5a11 11 0 0 1 0-.4l-.2-.4V5.7l-.2-.3h.1l-.3-.2-.1-.1v.2l.4.5.1.2v.4l.2 1.3-.4.1-.3-.1v-.1l-.2-.1c-.1 0-.2 0-.2.2l-.3.4c0 .1-.1.2-.3.2L10 8l.3-.4.1-.7-.1-1-.1-.5h.1L10 5l-.1.1v.2l.2.9.1 1v.3l-.3.3v-.4l-.1.2V8l-.8.5c.1 0 .6-.1.8-.3v.1l.4.3c.1 0 .2-.1.2-.3l.3-.4.2-.1h.1l.2.3h.4c.2 0 .2-.2.3-.3V6.4l-.1-.2a10.3 10.3 0 0 0 .5.5V8l.1-.7v-.6l.3.4.2.4v.2l.1-.2ZM11 11.8h-.5.8-.2Zm.6-.3h-1c.1 0 .2-.1.1-.2h-.2v.2H3.8l.5.2h6v.2l.1.1.1-.1H11.7l.2-.1c0-.2-.2-.3-.3-.3Z" fill="#fff"/></svg>