<svg width="460" height="148" viewBox="0 0 460 148" fill="none" xmlns="http://www.w3.org/2000/svg">
<circle cx="12" cy="36" r="12" fill="#2B2A28"/>
<path d="M8.95987 39.502H11.4099L11.4099 33.86L9.29587 34.714L8.69387 33.398L11.9419 31.9H13.2719L13.2719 39.502L15.4559 39.502L15.4559 41L8.95987 41L8.95987 39.502Z" fill="white" fill-opacity="0.9"/>
<rect x="24" y="35.5" width="56" height="1" rx="0.5" fill="#FF8000"/>
<g filter="url(#filter0_ddd_27759_7675)">
<g clip-path="url(#clip0_27759_7675)">
<path d="M80 20C80 15.5817 83.5817 12 88 12H352C356.418 12 360 15.5817 360 20V52C360 56.4183 356.418 60 352 60H88C83.5817 60 80 56.4183 80 52V20Z" fill="#2B2A28"/>
<g clip-path="url(#clip1_27759_7675)">
<path d="M106 27.5234C104.323 27.5234 102.685 28.0206 101.291 28.952C99.8967 29.8834 98.8103 31.2073 98.1687 32.7562C97.5271 34.305 97.3592 36.0094 97.6863 37.6537C98.0134 39.298 98.8207 40.8084 100.006 41.9938C101.192 43.1793 102.702 43.9866 104.346 44.3137C105.991 44.6408 107.695 44.4729 109.244 43.8313C110.793 43.1898 112.117 42.1033 113.048 40.7093C113.979 39.3154 114.477 37.6765 114.477 36C114.474 33.7528 113.58 31.5984 111.991 30.0094C110.402 28.4203 108.247 27.5263 106 27.5234ZM106 42.8359C104.648 42.8359 103.326 42.435 102.202 41.6839C101.078 40.9327 100.202 39.8651 99.6844 38.616C99.167 37.3669 99.0317 35.9924 99.2954 34.6664C99.5592 33.3403 100.21 32.1223 101.166 31.1663C102.122 30.2102 103.34 29.5592 104.666 29.2954C105.992 29.0316 107.367 29.167 108.616 29.6844C109.865 30.2018 110.933 31.078 111.684 32.2022C112.435 33.3263 112.836 34.648 112.836 36C112.836 36.8977 112.659 37.7866 112.316 38.616C111.972 39.4454 111.469 40.199 110.834 40.8337C110.199 41.4685 109.445 41.972 108.616 42.3156C107.787 42.6591 106.898 42.8359 106 42.8359ZM105.18 35.1141H106.82V39.2812H105.18V35.1141ZM107.094 32.7188C107.094 32.9351 107.03 33.1465 106.909 33.3264C106.789 33.5063 106.618 33.6465 106.419 33.7292C106.219 33.812 105.999 33.8337 105.787 33.7915C105.574 33.7493 105.38 33.6451 105.227 33.4921C105.074 33.3392 104.969 33.1443 104.927 32.9321C104.885 32.72 104.907 32.5 104.99 32.3002C105.072 32.1003 105.212 31.9295 105.392 31.8093C105.572 31.6891 105.784 31.625 106 31.625C106.29 31.625 106.568 31.7402 106.773 31.9454C106.979 32.1505 107.094 32.4287 107.094 32.7188Z" fill="#9EAEF0"/>
</g>
<path d="M125.288 41V31.9H126.884L130.006 39.656H130.09L133.212 31.9H134.836V41H133.716V33.482H133.632L130.636 41H129.46L126.464 33.482H126.38V41H125.288ZM140.019 41.168C139.356 41.168 138.778 41.0233 138.283 40.734C137.798 40.4447 137.42 40.0293 137.149 39.488C136.878 38.9373 136.743 38.2887 136.743 37.542C136.743 36.954 136.818 36.436 136.967 35.988C137.126 35.5307 137.345 35.1527 137.625 34.854C137.914 34.546 138.25 34.3127 138.633 34.154C139.025 33.9953 139.454 33.916 139.921 33.916C140.388 33.916 140.812 33.9907 141.195 34.14C141.587 34.2893 141.923 34.5133 142.203 34.812C142.492 35.1013 142.716 35.47 142.875 35.918C143.034 36.3567 143.113 36.87 143.113 37.458C143.113 37.5327 143.108 37.6073 143.099 37.682C143.099 37.7567 143.094 37.8173 143.085 37.864H137.863C137.872 38.2933 137.975 38.6853 138.171 39.04C138.367 39.3947 138.628 39.6793 138.955 39.894C139.291 40.0993 139.664 40.202 140.075 40.202C140.57 40.202 140.98 40.104 141.307 39.908C141.634 39.712 141.904 39.474 142.119 39.194L142.791 39.88C142.502 40.272 142.133 40.5847 141.685 40.818C141.237 41.0513 140.682 41.168 140.019 41.168ZM139.921 34.84C139.482 34.84 139.114 34.9427 138.815 35.148C138.516 35.3533 138.288 35.6147 138.129 35.932C137.98 36.2493 137.9 36.5807 137.891 36.926H141.937C141.928 36.5807 141.844 36.2493 141.685 35.932C141.536 35.6147 141.312 35.3533 141.013 35.148C140.724 34.9427 140.36 34.84 139.921 34.84ZM146.795 41.168C146.197 41.168 145.684 41.0653 145.255 40.86C144.825 40.6547 144.489 40.3887 144.247 40.062L144.989 39.362C145.203 39.614 145.451 39.8193 145.731 39.978C146.02 40.1367 146.379 40.216 146.809 40.216C147.191 40.216 147.527 40.1367 147.817 39.978C148.106 39.81 148.251 39.5533 148.251 39.208C148.251 38.9373 148.167 38.7273 147.999 38.578C147.84 38.4193 147.63 38.2933 147.369 38.2C147.107 38.0973 146.827 38.004 146.529 37.92C146.183 37.8173 145.857 37.6913 145.549 37.542C145.25 37.3833 145.003 37.178 144.807 36.926C144.62 36.6647 144.527 36.3333 144.527 35.932C144.527 35.4933 144.629 35.1247 144.835 34.826C145.049 34.5273 145.334 34.3033 145.689 34.154C146.053 33.9953 146.459 33.916 146.907 33.916C147.401 33.916 147.863 34.0093 148.293 34.196C148.722 34.3733 149.067 34.6533 149.329 35.036L148.601 35.708C148.395 35.4653 148.153 35.2647 147.873 35.106C147.602 34.9473 147.28 34.868 146.907 34.868C146.589 34.868 146.295 34.9473 146.025 35.106C145.754 35.2553 145.619 35.498 145.619 35.834C145.619 36.1047 145.698 36.3193 145.857 36.478C146.025 36.6273 146.239 36.7487 146.501 36.842C146.762 36.9353 147.042 37.0287 147.341 37.122C147.686 37.2247 148.008 37.3553 148.307 37.514C148.615 37.6633 148.862 37.864 149.049 38.116C149.245 38.368 149.343 38.6993 149.343 39.11C149.343 39.586 149.226 39.978 148.993 40.286C148.759 40.5847 148.447 40.8087 148.055 40.958C147.672 41.098 147.252 41.168 146.795 41.168ZM153.152 41.168C152.555 41.168 152.041 41.0653 151.612 40.86C151.183 40.6547 150.847 40.3887 150.604 40.062L151.346 39.362C151.561 39.614 151.808 39.8193 152.088 39.978C152.377 40.1367 152.737 40.216 153.166 40.216C153.549 40.216 153.885 40.1367 154.174 39.978C154.463 39.81 154.608 39.5533 154.608 39.208C154.608 38.9373 154.524 38.7273 154.356 38.578C154.197 38.4193 153.987 38.2933 153.726 38.2C153.465 38.0973 153.185 38.004 152.886 37.92C152.541 37.8173 152.214 37.6913 151.906 37.542C151.607 37.3833 151.36 37.178 151.164 36.926C150.977 36.6647 150.884 36.3333 150.884 35.932C150.884 35.4933 150.987 35.1247 151.192 34.826C151.407 34.5273 151.691 34.3033 152.046 34.154C152.41 33.9953 152.816 33.916 153.264 33.916C153.759 33.916 154.221 34.0093 154.65 34.196C155.079 34.3733 155.425 34.6533 155.686 35.036L154.958 35.708C154.753 35.4653 154.51 35.2647 154.23 35.106C153.959 34.9473 153.637 34.868 153.264 34.868C152.947 34.868 152.653 34.9473 152.382 35.106C152.111 35.2553 151.976 35.498 151.976 35.834C151.976 36.1047 152.055 36.3193 152.214 36.478C152.382 36.6273 152.597 36.7487 152.858 36.842C153.119 36.9353 153.399 37.0287 153.698 37.122C154.043 37.2247 154.365 37.3553 154.664 37.514C154.972 37.6633 155.219 37.864 155.406 38.116C155.602 38.368 155.7 38.6993 155.7 39.11C155.7 39.586 155.583 39.978 155.35 40.286C155.117 40.5847 154.804 40.8087 154.412 40.958C154.029 41.098 153.609 41.168 153.152 41.168ZM159.241 41.168C158.821 41.168 158.443 41.0793 158.107 40.902C157.781 40.7247 157.524 40.4773 157.337 40.16C157.151 39.8427 157.057 39.4787 157.057 39.068C157.057 38.6667 157.151 38.3213 157.337 38.032C157.533 37.7333 157.818 37.4953 158.191 37.318C158.565 37.1407 159.013 37.038 159.535 37.01L161.355 36.898V36.408C161.355 36.0533 161.295 35.7687 161.173 35.554C161.061 35.33 160.893 35.1667 160.669 35.064C160.455 34.952 160.189 34.896 159.871 34.896C159.47 34.896 159.125 34.9707 158.835 35.12C158.546 35.2693 158.322 35.4327 158.163 35.61L157.491 34.938C157.734 34.6393 158.065 34.3967 158.485 34.21C158.905 34.014 159.377 33.916 159.899 33.916C160.534 33.916 161.038 34.0233 161.411 34.238C161.785 34.4527 162.051 34.742 162.209 35.106C162.377 35.4607 162.461 35.8573 162.461 36.296V41H161.411V39.824H161.327C161.15 40.2347 160.889 40.5613 160.543 40.804C160.198 41.0467 159.764 41.168 159.241 41.168ZM159.409 40.216C159.988 40.216 160.455 40.048 160.809 39.712C161.173 39.3667 161.355 38.9093 161.355 38.34V37.738L159.591 37.864C159.134 37.9013 158.784 38.018 158.541 38.214C158.308 38.41 158.191 38.6853 158.191 39.04C158.191 39.3947 158.303 39.6793 158.527 39.894C158.761 40.1087 159.055 40.216 159.409 40.216ZM167.473 43.758C166.876 43.758 166.358 43.6507 165.919 43.436C165.481 43.2307 165.131 42.974 164.869 42.666L165.611 41.952C165.807 42.1853 166.064 42.3767 166.381 42.526C166.699 42.6753 167.044 42.75 167.417 42.75C167.819 42.75 168.159 42.6847 168.439 42.554C168.729 42.4327 168.948 42.2273 169.097 41.938C169.256 41.658 169.335 41.2753 169.335 40.79V39.446H169.251C169.111 39.9033 168.836 40.2673 168.425 40.538C168.024 40.7993 167.585 40.93 167.109 40.93C166.531 40.93 166.017 40.79 165.569 40.51C165.121 40.23 164.771 39.8287 164.519 39.306C164.267 38.774 164.141 38.1393 164.141 37.402C164.141 36.6833 164.267 36.0627 164.519 35.54C164.771 35.0173 165.121 34.616 165.569 34.336C166.017 34.056 166.531 33.916 167.109 33.916C167.623 33.916 168.08 34.0513 168.481 34.322C168.892 34.5833 169.167 34.9473 169.307 35.414H169.391V34.084H170.455V40.93C170.455 41.49 170.339 41.98 170.105 42.4C169.881 42.8293 169.545 43.1607 169.097 43.394C168.659 43.6367 168.117 43.758 167.473 43.758ZM167.333 39.922C167.744 39.922 168.099 39.824 168.397 39.628C168.696 39.432 168.925 39.1473 169.083 38.774C169.251 38.4007 169.335 37.948 169.335 37.416C169.335 36.8747 169.251 36.422 169.083 36.058C168.925 35.6847 168.696 35.4047 168.397 35.218C168.099 35.022 167.744 34.924 167.333 34.924C166.923 34.924 166.563 35.022 166.255 35.218C165.947 35.4047 165.709 35.6847 165.541 36.058C165.373 36.422 165.289 36.8747 165.289 37.416C165.289 37.948 165.373 38.4007 165.541 38.774C165.709 39.1473 165.947 39.432 166.255 39.628C166.563 39.824 166.923 39.922 167.333 39.922ZM175.538 41.168C174.876 41.168 174.297 41.0233 173.802 40.734C173.317 40.4447 172.939 40.0293 172.668 39.488C172.398 38.9373 172.262 38.2887 172.262 37.542C172.262 36.954 172.337 36.436 172.486 35.988C172.645 35.5307 172.864 35.1527 173.144 34.854C173.434 34.546 173.77 34.3127 174.152 34.154C174.544 33.9953 174.974 33.916 175.44 33.916C175.907 33.916 176.332 33.9907 176.714 34.14C177.106 34.2893 177.442 34.5133 177.722 34.812C178.012 35.1013 178.236 35.47 178.394 35.918C178.553 36.3567 178.632 36.87 178.632 37.458C178.632 37.5327 178.628 37.6073 178.618 37.682C178.618 37.7567 178.614 37.8173 178.604 37.864H173.382C173.392 38.2933 173.494 38.6853 173.69 39.04C173.886 39.3947 174.148 39.6793 174.474 39.894C174.81 40.0993 175.184 40.202 175.594 40.202C176.089 40.202 176.5 40.104 176.826 39.908C177.153 39.712 177.424 39.474 177.638 39.194L178.31 39.88C178.021 40.272 177.652 40.5847 177.204 40.818C176.756 41.0513 176.201 41.168 175.538 41.168ZM175.44 34.84C175.002 34.84 174.633 34.9427 174.334 35.148C174.036 35.3533 173.807 35.6147 173.648 35.932C173.499 36.2493 173.42 36.5807 173.41 36.926H177.456C177.447 36.5807 177.363 36.2493 177.204 35.932C177.055 35.6147 176.831 35.3533 176.532 35.148C176.243 34.9427 175.879 34.84 175.44 34.84Z" fill="white" fill-opacity="0.9"/>
<g clip-path="url(#clip2_27759_7675)">
<path d="M258 36C258 27.1634 265.163 20 274 20H292C300.837 20 308 27.1634 308 36C308 44.8366 300.837 52 292 52H274C265.163 52 258 44.8366 258 36Z" fill="white" fill-opacity="0.01"/>
<path d="M267.157 41V31.9H269.033V39.474H272.659V41H267.157ZM275.808 41.168C275.397 41.168 275.019 41.084 274.674 40.916C274.329 40.7387 274.053 40.496 273.848 40.188C273.652 39.8707 273.554 39.4927 273.554 39.054C273.554 38.6433 273.652 38.2887 273.848 37.99C274.044 37.6913 274.338 37.4533 274.73 37.276C275.131 37.0987 275.626 36.996 276.214 36.968L277.838 36.87V36.59C277.838 36.2913 277.773 36.058 277.642 35.89C277.521 35.722 277.353 35.6007 277.138 35.526C276.933 35.4513 276.695 35.414 276.424 35.414C276.107 35.414 275.808 35.4747 275.528 35.596C275.248 35.708 275.038 35.848 274.898 36.016L273.904 35.008C274.156 34.6907 274.511 34.4293 274.968 34.224C275.425 34.0187 275.99 33.916 276.662 33.916C277.315 33.916 277.857 34.0233 278.286 34.238C278.725 34.4433 279.051 34.7373 279.266 35.12C279.49 35.4933 279.602 35.9413 279.602 36.464V41H277.936V39.894H277.852C277.675 40.2767 277.418 40.5847 277.082 40.818C276.746 41.0513 276.321 41.168 275.808 41.168ZM276.326 39.894C276.774 39.894 277.138 39.768 277.418 39.516C277.698 39.2547 277.838 38.8907 277.838 38.424V37.962L276.424 38.074C276.06 38.0927 275.785 38.1813 275.598 38.34C275.421 38.4987 275.332 38.718 275.332 38.998C275.332 39.278 275.425 39.4973 275.612 39.656C275.799 39.8147 276.037 39.894 276.326 39.894ZM285.35 41.168C284.809 41.168 284.338 41.0373 283.936 40.776C283.544 40.5053 283.264 40.146 283.096 39.698H283.012V41H281.332V30.85H283.096V35.274H283.18C283.348 34.882 283.614 34.56 283.978 34.308C284.352 34.0467 284.809 33.916 285.35 33.916C285.929 33.916 286.442 34.0747 286.89 34.392C287.338 34.7 287.693 35.1293 287.954 35.68C288.216 36.2213 288.346 36.8513 288.346 37.57C288.346 38.2793 288.216 38.9047 287.954 39.446C287.693 39.978 287.338 40.398 286.89 40.706C286.442 41.014 285.929 41.168 285.35 41.168ZM284.804 39.628C285.15 39.628 285.453 39.544 285.714 39.376C285.976 39.208 286.176 38.97 286.316 38.662C286.466 38.3447 286.54 37.9713 286.54 37.542C286.54 37.1127 286.466 36.744 286.316 36.436C286.176 36.1187 285.976 35.876 285.714 35.708C285.453 35.54 285.15 35.456 284.804 35.456C284.468 35.456 284.17 35.54 283.908 35.708C283.656 35.876 283.456 36.1187 283.306 36.436C283.166 36.744 283.096 37.1127 283.096 37.542C283.096 37.9713 283.166 38.3447 283.306 38.662C283.456 38.97 283.656 39.208 283.908 39.376C284.17 39.544 284.468 39.628 284.804 39.628ZM292.723 41.168C291.957 41.168 291.313 41.0047 290.791 40.678C290.277 40.3513 289.89 39.9173 289.629 39.376C289.377 38.8253 289.251 38.214 289.251 37.542C289.251 37.0287 289.321 36.5527 289.461 36.114C289.601 35.666 289.806 35.2787 290.077 34.952C290.357 34.6253 290.707 34.3733 291.127 34.196C291.547 34.0093 292.041 33.916 292.611 33.916C293.171 33.916 293.656 34.0047 294.067 34.182C294.487 34.3593 294.832 34.6113 295.103 34.938C295.383 35.2553 295.588 35.6287 295.719 36.058C295.859 36.4873 295.929 36.9587 295.929 37.472C295.929 37.5653 295.919 37.6773 295.901 37.808C295.891 37.9293 295.877 38.0227 295.859 38.088H291.043C291.071 38.424 291.173 38.7133 291.351 38.956C291.528 39.1987 291.747 39.3853 292.009 39.516C292.27 39.6373 292.541 39.698 292.821 39.698C293.213 39.698 293.544 39.628 293.815 39.488C294.095 39.348 294.319 39.1707 294.487 38.956L295.481 39.992C295.229 40.3373 294.865 40.622 294.389 40.846C293.922 41.0607 293.367 41.168 292.723 41.168ZM292.611 35.26C292.312 35.26 292.046 35.33 291.813 35.47C291.589 35.6007 291.407 35.7827 291.267 36.016C291.136 36.2493 291.057 36.5247 291.029 36.842H294.165C294.137 36.5247 294.053 36.2493 293.913 36.016C293.782 35.7827 293.605 35.6007 293.381 35.47C293.157 35.33 292.9 35.26 292.611 35.26ZM297.301 41V30.85H299.065V41H297.301Z" fill="white"/>
</g>
<path d="M316 36C316 27.1634 323.163 20 332 20C340.837 20 348 27.1634 348 36C348 44.8366 340.837 52 332 52C323.163 52 316 44.8366 316 36Z" fill="white" fill-opacity="0.01"/>
<path d="M336.835 30.0063L332 34.8407L327.166 30.0063L326.006 31.1657L330.841 36.0001L326.006 40.8345L327.166 41.9939L332 37.1595L336.835 41.9939L337.994 40.8345L333.16 36.0001L337.994 31.1657L336.835 30.0063Z" fill="white" fill-opacity="0.9"/>
</g>
</g>
<rect x="360" y="35.5" width="56" height="1" rx="0.5" fill="#FF8000"/>
<circle cx="428" cy="36" r="12" fill="#2B2A28"/>
<path d="M428.684 39.306H424.316V37.976L428.096 31.9H430.126L426.43 37.808H428.684V35.554L430.504 35.554V37.808H431.652V39.306H430.504V41L428.684 41V39.306Z" fill="white" fill-opacity="0.9"/>
<rect x="145.5" y="68" width="1" height="56" rx="0.5" fill="#FF8000"/>
<ellipse cx="146.002" cy="136" rx="11.9979" ry="12" fill="#2B2A28"/>
<path d="M142.762 139.53C142.762 139.11 142.822 138.741 142.944 138.424C143.074 138.107 143.252 137.822 143.476 137.57C143.7 137.318 143.966 137.089 144.274 136.884C144.582 136.679 144.918 136.478 145.282 136.282C145.646 136.086 145.949 135.918 146.192 135.778C146.444 135.629 146.64 135.484 146.78 135.344C146.929 135.204 147.032 135.064 147.088 134.924C147.153 134.775 147.186 134.602 147.186 134.406C147.186 134.023 147.046 133.743 146.766 133.566C146.486 133.389 146.15 133.3 145.758 133.3C145.338 133.3 144.95 133.379 144.596 133.538C144.25 133.687 143.952 133.897 143.7 134.168L142.762 133.062C143.107 132.67 143.546 132.353 144.078 132.11C144.61 131.858 145.221 131.732 145.912 131.732C146.378 131.732 146.803 131.788 147.186 131.9C147.578 132.012 147.909 132.18 148.18 132.404C148.46 132.619 148.674 132.885 148.824 133.202C148.982 133.519 149.062 133.883 149.062 134.294C149.062 134.695 149.001 135.05 148.88 135.358C148.758 135.657 148.581 135.937 148.348 136.198C148.114 136.45 147.825 136.688 147.48 136.912C147.144 137.136 146.756 137.365 146.318 137.598C146.019 137.766 145.762 137.911 145.548 138.032C145.342 138.153 145.17 138.275 145.03 138.396C144.899 138.517 144.801 138.639 144.736 138.76C144.68 138.881 144.652 139.026 144.652 139.194V139.488H149.3V141H142.762V139.53Z" fill="white" fill-opacity="0.9"/>
<rect x="287.5" y="68" width="1" height="56" rx="0.5" fill="#FF8000"/>
<ellipse cx="288.002" cy="136" rx="11.9979" ry="12" fill="#2B2A28"/>
<path d="M287.632 141.168C286.904 141.168 286.292 141.061 285.798 140.846C285.303 140.622 284.878 140.319 284.524 139.936L285.546 138.802C285.77 139.054 286.05 139.259 286.386 139.418C286.731 139.577 287.114 139.656 287.534 139.656C288.038 139.656 288.444 139.544 288.752 139.32C289.06 139.096 289.214 138.765 289.214 138.326C289.214 137.906 289.069 137.598 288.78 137.402C288.49 137.206 288.108 137.108 287.632 137.108H286.722V135.624H287.632C288.052 135.624 288.364 135.517 288.57 135.302C288.775 135.078 288.878 134.789 288.878 134.434C288.878 134.219 288.84 134.037 288.766 133.888C288.691 133.739 288.588 133.617 288.458 133.524C288.336 133.421 288.192 133.351 288.024 133.314C287.856 133.267 287.683 133.244 287.506 133.244C287.123 133.244 286.773 133.319 286.456 133.468C286.138 133.617 285.872 133.813 285.658 134.056L284.692 132.964C285.028 132.591 285.434 132.292 285.91 132.068C286.386 131.844 286.974 131.732 287.674 131.732C288.131 131.732 288.551 131.793 288.934 131.914C289.316 132.035 289.643 132.208 289.914 132.432C290.184 132.647 290.394 132.903 290.544 133.202C290.693 133.501 290.768 133.832 290.768 134.196C290.768 134.672 290.628 135.092 290.348 135.456C290.068 135.811 289.662 136.081 289.13 136.268V136.352C289.41 136.408 289.666 136.501 289.9 136.632C290.142 136.763 290.348 136.926 290.516 137.122C290.693 137.309 290.833 137.523 290.936 137.766C291.038 137.999 291.09 138.256 291.09 138.536C291.09 138.919 291.015 139.273 290.866 139.6C290.716 139.917 290.492 140.193 290.194 140.426C289.904 140.659 289.545 140.841 289.116 140.972C288.686 141.103 288.192 141.168 287.632 141.168Z" fill="white" fill-opacity="0.9"/>
<defs>
<filter id="filter0_ddd_27759_7675" x="66" y="0" width="308" height="76" filterUnits="userSpaceOnUse" color-interpolation-filters="sRGB">
<feFlood flood-opacity="0" result="BackgroundImageFix"/>
<feColorMatrix in="SourceAlpha" type="matrix" values="0 0 0 0 0 0 0 0 0 0 0 0 0 0 0 0 0 0 127 0" result="hardAlpha"/>
<feOffset dy="3"/>
<feGaussianBlur stdDeviation="2"/>
<feColorMatrix type="matrix" values="0 0 0 0 0 0 0 0 0 0 0 0 0 0 0 0 0 0 0.04 0"/>
<feBlend mode="normal" in2="BackgroundImageFix" result="effect1_dropShadow_27759_7675"/>
<feColorMatrix in="SourceAlpha" type="matrix" values="0 0 0 0 0 0 0 0 0 0 0 0 0 0 0 0 0 0 127 0" result="hardAlpha"/>
<feMorphology radius="2" operator="dilate" in="SourceAlpha" result="effect2_dropShadow_27759_7675"/>
<feOffset dy="2"/>
<feGaussianBlur stdDeviation="6"/>
<feColorMatrix type="matrix" values="0 0 0 0 0 0 0 0 0 0 0 0 0 0 0 0 0 0 0.04 0"/>
<feBlend mode="normal" in2="effect1_dropShadow_27759_7675" result="effect2_dropShadow_27759_7675"/>
<feColorMatrix in="SourceAlpha" type="matrix" values="0 0 0 0 0 0 0 0 0 0 0 0 0 0 0 0 0 0 127 0" result="hardAlpha"/>
<feOffset dy="4"/>
<feGaussianBlur stdDeviation="3"/>
<feColorMatrix type="matrix" values="0 0 0 0 0 0 0 0 0 0 0 0 0 0 0 0 0 0 0.02 0"/>
<feBlend mode="normal" in2="effect2_dropShadow_27759_7675" result="effect3_dropShadow_27759_7675"/>
<feBlend mode="normal" in="SourceGraphic" in2="effect3_dropShadow_27759_7675" result="shape"/>
</filter>
<clipPath id="clip0_27759_7675">
<path d="M80 20C80 15.5817 83.5817 12 88 12H352C356.418 12 360 15.5817 360 20V52C360 56.4183 356.418 60 352 60H88C83.5817 60 80 56.4183 80 52V20Z" fill="white"/>
</clipPath>
<clipPath id="clip1_27759_7675">
<rect width="17.5" height="17.5" fill="white" transform="translate(97.25 27.25)"/>
</clipPath>
<clipPath id="clip2_27759_7675">
<path d="M258 36C258 27.1634 265.163 20 274 20H292C300.837 20 308 27.1634 308 36C308 44.8366 300.837 52 292 52H274C265.163 52 258 44.8366 258 36Z" fill="white"/>
</clipPath>
</defs>
</svg>
