<svg width="835" height="228" viewBox="0 0 835 228" fill="none" xmlns="http://www.w3.org/2000/svg">
<circle cx="12" cy="36" r="12" fill="#2B2A28"/>
<path d="M8.95987 39.502H11.4099L11.4099 33.86L9.29587 34.714L8.69387 33.398L11.9419 31.9H13.2719L13.2719 39.502L15.4559 39.502L15.4559 41L8.95987 41L8.95987 39.502Z" fill="white" fill-opacity="0.9"/>
<rect x="24" y="35.5" width="56" height="1" rx="0.5" fill="#FF8000"/>
<g filter="url(#filter0_ddd_27759_7679)">
<g clip-path="url(#clip0_27759_7679)">
<path d="M80 20C80 15.5817 83.5817 12 88 12H352C356.418 12 360 15.5817 360 20V52C360 56.4183 356.418 60 352 60H88C83.5817 60 80 56.4183 80 52V20Z" fill="#2B2A28"/>
<g clip-path="url(#clip1_27759_7679)">
<path d="M106 27.5234C104.323 27.5234 102.685 28.0206 101.291 28.952C99.8967 29.8834 98.8103 31.2073 98.1687 32.7562C97.5271 34.305 97.3592 36.0094 97.6863 37.6537C98.0134 39.298 98.8207 40.8084 100.006 41.9938C101.192 43.1793 102.702 43.9866 104.346 44.3137C105.991 44.6408 107.695 44.4729 109.244 43.8313C110.793 43.1898 112.117 42.1033 113.048 40.7093C113.979 39.3154 114.477 37.6765 114.477 36C114.474 33.7528 113.58 31.5984 111.991 30.0094C110.402 28.4203 108.247 27.5263 106 27.5234ZM106 42.8359C104.648 42.8359 103.326 42.435 102.202 41.6839C101.078 40.9327 100.202 39.8651 99.6844 38.616C99.167 37.3669 99.0317 35.9924 99.2954 34.6664C99.5592 33.3403 100.21 32.1223 101.166 31.1663C102.122 30.2102 103.34 29.5592 104.666 29.2954C105.992 29.0316 107.367 29.167 108.616 29.6844C109.865 30.2018 110.933 31.078 111.684 32.2022C112.435 33.3263 112.836 34.648 112.836 36C112.836 36.8977 112.659 37.7866 112.316 38.616C111.972 39.4454 111.469 40.199 110.834 40.8337C110.199 41.4685 109.445 41.972 108.616 42.3156C107.787 42.6591 106.898 42.8359 106 42.8359ZM105.18 35.1141H106.82V39.2812H105.18V35.1141ZM107.094 32.7188C107.094 32.9351 107.03 33.1465 106.909 33.3264C106.789 33.5063 106.618 33.6465 106.419 33.7292C106.219 33.812 105.999 33.8337 105.787 33.7915C105.574 33.7493 105.38 33.6451 105.227 33.4921C105.074 33.3392 104.969 33.1443 104.927 32.9321C104.885 32.72 104.907 32.5 104.99 32.3002C105.072 32.1003 105.212 31.9295 105.392 31.8093C105.572 31.6891 105.784 31.625 106 31.625C106.29 31.625 106.568 31.7402 106.773 31.9454C106.979 32.1505 107.094 32.4287 107.094 32.7188Z" fill="#9EAEF0"/>
</g>
<path d="M125.288 41V31.9H126.884L130.006 39.656H130.09L133.212 31.9H134.836V41H133.716V33.482H133.632L130.636 41H129.46L126.464 33.482H126.38V41H125.288ZM140.019 41.168C139.356 41.168 138.778 41.0233 138.283 40.734C137.798 40.4447 137.42 40.0293 137.149 39.488C136.878 38.9373 136.743 38.2887 136.743 37.542C136.743 36.954 136.818 36.436 136.967 35.988C137.126 35.5307 137.345 35.1527 137.625 34.854C137.914 34.546 138.25 34.3127 138.633 34.154C139.025 33.9953 139.454 33.916 139.921 33.916C140.388 33.916 140.812 33.9907 141.195 34.14C141.587 34.2893 141.923 34.5133 142.203 34.812C142.492 35.1013 142.716 35.47 142.875 35.918C143.034 36.3567 143.113 36.87 143.113 37.458C143.113 37.5327 143.108 37.6073 143.099 37.682C143.099 37.7567 143.094 37.8173 143.085 37.864H137.863C137.872 38.2933 137.975 38.6853 138.171 39.04C138.367 39.3947 138.628 39.6793 138.955 39.894C139.291 40.0993 139.664 40.202 140.075 40.202C140.57 40.202 140.98 40.104 141.307 39.908C141.634 39.712 141.904 39.474 142.119 39.194L142.791 39.88C142.502 40.272 142.133 40.5847 141.685 40.818C141.237 41.0513 140.682 41.168 140.019 41.168ZM139.921 34.84C139.482 34.84 139.114 34.9427 138.815 35.148C138.516 35.3533 138.288 35.6147 138.129 35.932C137.98 36.2493 137.9 36.5807 137.891 36.926H141.937C141.928 36.5807 141.844 36.2493 141.685 35.932C141.536 35.6147 141.312 35.3533 141.013 35.148C140.724 34.9427 140.36 34.84 139.921 34.84ZM146.795 41.168C146.197 41.168 145.684 41.0653 145.255 40.86C144.825 40.6547 144.489 40.3887 144.247 40.062L144.989 39.362C145.203 39.614 145.451 39.8193 145.731 39.978C146.02 40.1367 146.379 40.216 146.809 40.216C147.191 40.216 147.527 40.1367 147.817 39.978C148.106 39.81 148.251 39.5533 148.251 39.208C148.251 38.9373 148.167 38.7273 147.999 38.578C147.84 38.4193 147.63 38.2933 147.369 38.2C147.107 38.0973 146.827 38.004 146.529 37.92C146.183 37.8173 145.857 37.6913 145.549 37.542C145.25 37.3833 145.003 37.178 144.807 36.926C144.62 36.6647 144.527 36.3333 144.527 35.932C144.527 35.4933 144.629 35.1247 144.835 34.826C145.049 34.5273 145.334 34.3033 145.689 34.154C146.053 33.9953 146.459 33.916 146.907 33.916C147.401 33.916 147.863 34.0093 148.293 34.196C148.722 34.3733 149.067 34.6533 149.329 35.036L148.601 35.708C148.395 35.4653 148.153 35.2647 147.873 35.106C147.602 34.9473 147.28 34.868 146.907 34.868C146.589 34.868 146.295 34.9473 146.025 35.106C145.754 35.2553 145.619 35.498 145.619 35.834C145.619 36.1047 145.698 36.3193 145.857 36.478C146.025 36.6273 146.239 36.7487 146.501 36.842C146.762 36.9353 147.042 37.0287 147.341 37.122C147.686 37.2247 148.008 37.3553 148.307 37.514C148.615 37.6633 148.862 37.864 149.049 38.116C149.245 38.368 149.343 38.6993 149.343 39.11C149.343 39.586 149.226 39.978 148.993 40.286C148.759 40.5847 148.447 40.8087 148.055 40.958C147.672 41.098 147.252 41.168 146.795 41.168ZM153.152 41.168C152.555 41.168 152.041 41.0653 151.612 40.86C151.183 40.6547 150.847 40.3887 150.604 40.062L151.346 39.362C151.561 39.614 151.808 39.8193 152.088 39.978C152.377 40.1367 152.737 40.216 153.166 40.216C153.549 40.216 153.885 40.1367 154.174 39.978C154.463 39.81 154.608 39.5533 154.608 39.208C154.608 38.9373 154.524 38.7273 154.356 38.578C154.197 38.4193 153.987 38.2933 153.726 38.2C153.465 38.0973 153.185 38.004 152.886 37.92C152.541 37.8173 152.214 37.6913 151.906 37.542C151.607 37.3833 151.36 37.178 151.164 36.926C150.977 36.6647 150.884 36.3333 150.884 35.932C150.884 35.4933 150.987 35.1247 151.192 34.826C151.407 34.5273 151.691 34.3033 152.046 34.154C152.41 33.9953 152.816 33.916 153.264 33.916C153.759 33.916 154.221 34.0093 154.65 34.196C155.079 34.3733 155.425 34.6533 155.686 35.036L154.958 35.708C154.753 35.4653 154.51 35.2647 154.23 35.106C153.959 34.9473 153.637 34.868 153.264 34.868C152.947 34.868 152.653 34.9473 152.382 35.106C152.111 35.2553 151.976 35.498 151.976 35.834C151.976 36.1047 152.055 36.3193 152.214 36.478C152.382 36.6273 152.597 36.7487 152.858 36.842C153.119 36.9353 153.399 37.0287 153.698 37.122C154.043 37.2247 154.365 37.3553 154.664 37.514C154.972 37.6633 155.219 37.864 155.406 38.116C155.602 38.368 155.7 38.6993 155.7 39.11C155.7 39.586 155.583 39.978 155.35 40.286C155.117 40.5847 154.804 40.8087 154.412 40.958C154.029 41.098 153.609 41.168 153.152 41.168ZM159.241 41.168C158.821 41.168 158.443 41.0793 158.107 40.902C157.781 40.7247 157.524 40.4773 157.337 40.16C157.151 39.8427 157.057 39.4787 157.057 39.068C157.057 38.6667 157.151 38.3213 157.337 38.032C157.533 37.7333 157.818 37.4953 158.191 37.318C158.565 37.1407 159.013 37.038 159.535 37.01L161.355 36.898V36.408C161.355 36.0533 161.295 35.7687 161.173 35.554C161.061 35.33 160.893 35.1667 160.669 35.064C160.455 34.952 160.189 34.896 159.871 34.896C159.47 34.896 159.125 34.9707 158.835 35.12C158.546 35.2693 158.322 35.4327 158.163 35.61L157.491 34.938C157.734 34.6393 158.065 34.3967 158.485 34.21C158.905 34.014 159.377 33.916 159.899 33.916C160.534 33.916 161.038 34.0233 161.411 34.238C161.785 34.4527 162.051 34.742 162.209 35.106C162.377 35.4607 162.461 35.8573 162.461 36.296V41H161.411V39.824H161.327C161.15 40.2347 160.889 40.5613 160.543 40.804C160.198 41.0467 159.764 41.168 159.241 41.168ZM159.409 40.216C159.988 40.216 160.455 40.048 160.809 39.712C161.173 39.3667 161.355 38.9093 161.355 38.34V37.738L159.591 37.864C159.134 37.9013 158.784 38.018 158.541 38.214C158.308 38.41 158.191 38.6853 158.191 39.04C158.191 39.3947 158.303 39.6793 158.527 39.894C158.761 40.1087 159.055 40.216 159.409 40.216ZM167.473 43.758C166.876 43.758 166.358 43.6507 165.919 43.436C165.481 43.2307 165.131 42.974 164.869 42.666L165.611 41.952C165.807 42.1853 166.064 42.3767 166.381 42.526C166.699 42.6753 167.044 42.75 167.417 42.75C167.819 42.75 168.159 42.6847 168.439 42.554C168.729 42.4327 168.948 42.2273 169.097 41.938C169.256 41.658 169.335 41.2753 169.335 40.79V39.446H169.251C169.111 39.9033 168.836 40.2673 168.425 40.538C168.024 40.7993 167.585 40.93 167.109 40.93C166.531 40.93 166.017 40.79 165.569 40.51C165.121 40.23 164.771 39.8287 164.519 39.306C164.267 38.774 164.141 38.1393 164.141 37.402C164.141 36.6833 164.267 36.0627 164.519 35.54C164.771 35.0173 165.121 34.616 165.569 34.336C166.017 34.056 166.531 33.916 167.109 33.916C167.623 33.916 168.08 34.0513 168.481 34.322C168.892 34.5833 169.167 34.9473 169.307 35.414H169.391V34.084H170.455V40.93C170.455 41.49 170.339 41.98 170.105 42.4C169.881 42.8293 169.545 43.1607 169.097 43.394C168.659 43.6367 168.117 43.758 167.473 43.758ZM167.333 39.922C167.744 39.922 168.099 39.824 168.397 39.628C168.696 39.432 168.925 39.1473 169.083 38.774C169.251 38.4007 169.335 37.948 169.335 37.416C169.335 36.8747 169.251 36.422 169.083 36.058C168.925 35.6847 168.696 35.4047 168.397 35.218C168.099 35.022 167.744 34.924 167.333 34.924C166.923 34.924 166.563 35.022 166.255 35.218C165.947 35.4047 165.709 35.6847 165.541 36.058C165.373 36.422 165.289 36.8747 165.289 37.416C165.289 37.948 165.373 38.4007 165.541 38.774C165.709 39.1473 165.947 39.432 166.255 39.628C166.563 39.824 166.923 39.922 167.333 39.922ZM175.538 41.168C174.876 41.168 174.297 41.0233 173.802 40.734C173.317 40.4447 172.939 40.0293 172.668 39.488C172.398 38.9373 172.262 38.2887 172.262 37.542C172.262 36.954 172.337 36.436 172.486 35.988C172.645 35.5307 172.864 35.1527 173.144 34.854C173.434 34.546 173.77 34.3127 174.152 34.154C174.544 33.9953 174.974 33.916 175.44 33.916C175.907 33.916 176.332 33.9907 176.714 34.14C177.106 34.2893 177.442 34.5133 177.722 34.812C178.012 35.1013 178.236 35.47 178.394 35.918C178.553 36.3567 178.632 36.87 178.632 37.458C178.632 37.5327 178.628 37.6073 178.618 37.682C178.618 37.7567 178.614 37.8173 178.604 37.864H173.382C173.392 38.2933 173.494 38.6853 173.69 39.04C173.886 39.3947 174.148 39.6793 174.474 39.894C174.81 40.0993 175.184 40.202 175.594 40.202C176.089 40.202 176.5 40.104 176.826 39.908C177.153 39.712 177.424 39.474 177.638 39.194L178.31 39.88C178.021 40.272 177.652 40.5847 177.204 40.818C176.756 41.0513 176.201 41.168 175.538 41.168ZM175.44 34.84C175.002 34.84 174.633 34.9427 174.334 35.148C174.036 35.3533 173.807 35.6147 173.648 35.932C173.499 36.2493 173.42 36.5807 173.41 36.926H177.456C177.447 36.5807 177.363 36.2493 177.204 35.932C177.055 35.6147 176.831 35.3533 176.532 35.148C176.243 34.9427 175.879 34.84 175.44 34.84Z" fill="white" fill-opacity="0.9"/>
<path d="M316 36C316 27.1634 323.163 20 332 20C340.837 20 348 27.1634 348 36C348 44.8366 340.837 52 332 52C323.163 52 316 44.8366 316 36Z" fill="white" fill-opacity="0.01"/>
<path d="M336.835 30.0063L332 34.8407L327.166 30.0063L326.006 31.1657L330.841 36.0001L326.006 40.8345L327.166 41.9939L332 37.1595L336.835 41.9939L337.994 40.8345L333.16 36.0001L337.994 31.1657L336.835 30.0063Z" fill="white" fill-opacity="0.9"/>
</g>
</g>
<circle cx="400" cy="36" r="12" fill="#2B2A28"/>
<path d="M396.764 39.53C396.764 39.11 396.825 38.7413 396.946 38.424C397.077 38.1067 397.254 37.822 397.478 37.57C397.702 37.318 397.968 37.0893 398.276 36.884C398.584 36.6787 398.92 36.478 399.284 36.282C399.648 36.086 399.951 35.918 400.194 35.778C400.446 35.6287 400.642 35.484 400.782 35.344C400.931 35.204 401.034 35.064 401.09 34.924C401.155 34.7747 401.188 34.602 401.188 34.406C401.188 34.0233 401.048 33.7433 400.768 33.566C400.488 33.3887 400.152 33.3 399.76 33.3C399.34 33.3 398.953 33.3793 398.598 33.538C398.253 33.6873 397.954 33.8973 397.702 34.168L396.764 33.062C397.109 32.67 397.548 32.3527 398.08 32.11C398.612 31.858 399.223 31.732 399.914 31.732C400.381 31.732 400.805 31.788 401.188 31.9C401.58 32.012 401.911 32.18 402.182 32.404C402.462 32.6187 402.677 32.8847 402.826 33.202C402.985 33.5193 403.064 33.8833 403.064 34.294C403.064 34.6953 403.003 35.05 402.882 35.358C402.761 35.6567 402.583 35.9367 402.35 36.198C402.117 36.45 401.827 36.688 401.482 36.912C401.146 37.136 400.759 37.3647 400.32 37.598C400.021 37.766 399.765 37.9107 399.55 38.032C399.345 38.1533 399.172 38.2747 399.032 38.396C398.901 38.5173 398.803 38.6387 398.738 38.76C398.682 38.8813 398.654 39.026 398.654 39.194V39.488L403.302 39.488V41L396.764 41V39.53Z" fill="white" fill-opacity="0.9"/>
<rect x="412" y="35.5" width="56" height="1" rx="0.5" fill="#FF8000"/>
<g filter="url(#filter1_ddd_27759_7679)">
<g clip-path="url(#clip2_27759_7679)">
<path d="M468 20C468 15.5817 471.582 12 476 12H740C744.418 12 748 15.5817 748 20V52C748 56.4183 744.418 60 740 60H476C471.582 60 468 56.4183 468 52V20Z" fill="#2B2A28"/>
<g clip-path="url(#clip3_27759_7679)">
<path d="M494.82 33.6953H493.18V36.9766H494.82V33.6953Z" fill="#FFDE33"/>
<path d="M494 40.2578C494.604 40.2578 495.094 39.7681 495.094 39.1641C495.094 38.56 494.604 38.0703 494 38.0703C493.396 38.0703 492.906 38.56 492.906 39.1641C492.906 39.7681 493.396 40.2578 494 40.2578Z" fill="#FFDE33"/>
<path d="M500.759 43.2656H487.241C486.899 43.2674 486.563 43.1755 486.27 43C485.977 42.8246 485.738 42.5722 485.578 42.2703C485.408 41.9603 485.323 41.6104 485.332 41.2566C485.342 40.9029 485.446 40.5581 485.633 40.2578L492.392 29.4297C492.557 29.1489 492.792 28.9156 493.073 28.7526C493.355 28.5896 493.674 28.5026 494 28.5C494.323 28.5003 494.641 28.5841 494.923 28.7431C495.205 28.9021 495.44 29.131 495.608 29.4078L502.367 40.2578C502.55 40.5656 502.647 40.917 502.647 41.275C502.647 41.633 502.55 41.9844 502.367 42.2922C502.209 42.5819 501.977 42.8246 501.694 42.9955C501.412 43.1665 501.089 43.2597 500.759 43.2656ZM494 30.1406C493.955 30.1398 493.91 30.1517 493.872 30.1749C493.833 30.1981 493.802 30.2317 493.781 30.2719L487.022 41.1109C486.989 41.1675 486.972 41.2316 486.972 41.2969C486.972 41.3622 486.989 41.4263 487.022 41.4828C487.043 41.5259 487.075 41.5622 487.116 41.5874C487.157 41.6125 487.204 41.6256 487.252 41.625H500.759C500.807 41.6256 500.854 41.6125 500.895 41.5874C500.936 41.5622 500.968 41.5259 500.989 41.4828C501.022 41.4263 501.039 41.3622 501.039 41.2969C501.039 41.2316 501.022 41.1675 500.989 41.1109L494.219 30.2719C494.198 30.2317 494.167 30.1981 494.128 30.1749C494.09 30.1517 494.045 30.1398 494 30.1406Z" fill="#FFDE33"/>
</g>
<path d="M513.288 41V31.9H514.884L518.006 39.656H518.09L521.212 31.9H522.836V41H521.716V33.482H521.632L518.636 41H517.46L514.464 33.482H514.38V41H513.288ZM528.019 41.168C527.356 41.168 526.778 41.0233 526.283 40.734C525.798 40.4447 525.42 40.0293 525.149 39.488C524.878 38.9373 524.743 38.2887 524.743 37.542C524.743 36.954 524.818 36.436 524.967 35.988C525.126 35.5307 525.345 35.1527 525.625 34.854C525.914 34.546 526.25 34.3127 526.633 34.154C527.025 33.9953 527.454 33.916 527.921 33.916C528.388 33.916 528.812 33.9907 529.195 34.14C529.587 34.2893 529.923 34.5133 530.203 34.812C530.492 35.1013 530.716 35.47 530.875 35.918C531.034 36.3567 531.113 36.87 531.113 37.458C531.113 37.5327 531.108 37.6073 531.099 37.682C531.099 37.7567 531.094 37.8173 531.085 37.864H525.863C525.872 38.2933 525.975 38.6853 526.171 39.04C526.367 39.3947 526.628 39.6793 526.955 39.894C527.291 40.0993 527.664 40.202 528.075 40.202C528.57 40.202 528.98 40.104 529.307 39.908C529.634 39.712 529.904 39.474 530.119 39.194L530.791 39.88C530.502 40.272 530.133 40.5847 529.685 40.818C529.237 41.0513 528.682 41.168 528.019 41.168ZM527.921 34.84C527.482 34.84 527.114 34.9427 526.815 35.148C526.516 35.3533 526.288 35.6147 526.129 35.932C525.98 36.2493 525.9 36.5807 525.891 36.926H529.937C529.928 36.5807 529.844 36.2493 529.685 35.932C529.536 35.6147 529.312 35.3533 529.013 35.148C528.724 34.9427 528.36 34.84 527.921 34.84ZM534.795 41.168C534.197 41.168 533.684 41.0653 533.255 40.86C532.825 40.6547 532.489 40.3887 532.247 40.062L532.989 39.362C533.203 39.614 533.451 39.8193 533.731 39.978C534.02 40.1367 534.379 40.216 534.809 40.216C535.191 40.216 535.527 40.1367 535.817 39.978C536.106 39.81 536.251 39.5533 536.251 39.208C536.251 38.9373 536.167 38.7273 535.999 38.578C535.84 38.4193 535.63 38.2933 535.369 38.2C535.107 38.0973 534.827 38.004 534.529 37.92C534.183 37.8173 533.857 37.6913 533.549 37.542C533.25 37.3833 533.003 37.178 532.807 36.926C532.62 36.6647 532.527 36.3333 532.527 35.932C532.527 35.4933 532.629 35.1247 532.835 34.826C533.049 34.5273 533.334 34.3033 533.689 34.154C534.053 33.9953 534.459 33.916 534.907 33.916C535.401 33.916 535.863 34.0093 536.293 34.196C536.722 34.3733 537.067 34.6533 537.329 35.036L536.601 35.708C536.395 35.4653 536.153 35.2647 535.873 35.106C535.602 34.9473 535.28 34.868 534.907 34.868C534.589 34.868 534.295 34.9473 534.025 35.106C533.754 35.2553 533.619 35.498 533.619 35.834C533.619 36.1047 533.698 36.3193 533.857 36.478C534.025 36.6273 534.239 36.7487 534.501 36.842C534.762 36.9353 535.042 37.0287 535.341 37.122C535.686 37.2247 536.008 37.3553 536.307 37.514C536.615 37.6633 536.862 37.864 537.049 38.116C537.245 38.368 537.343 38.6993 537.343 39.11C537.343 39.586 537.226 39.978 536.993 40.286C536.759 40.5847 536.447 40.8087 536.055 40.958C535.672 41.098 535.252 41.168 534.795 41.168ZM541.152 41.168C540.555 41.168 540.041 41.0653 539.612 40.86C539.183 40.6547 538.847 40.3887 538.604 40.062L539.346 39.362C539.561 39.614 539.808 39.8193 540.088 39.978C540.377 40.1367 540.737 40.216 541.166 40.216C541.549 40.216 541.885 40.1367 542.174 39.978C542.463 39.81 542.608 39.5533 542.608 39.208C542.608 38.9373 542.524 38.7273 542.356 38.578C542.197 38.4193 541.987 38.2933 541.726 38.2C541.465 38.0973 541.185 38.004 540.886 37.92C540.541 37.8173 540.214 37.6913 539.906 37.542C539.607 37.3833 539.36 37.178 539.164 36.926C538.977 36.6647 538.884 36.3333 538.884 35.932C538.884 35.4933 538.987 35.1247 539.192 34.826C539.407 34.5273 539.691 34.3033 540.046 34.154C540.41 33.9953 540.816 33.916 541.264 33.916C541.759 33.916 542.221 34.0093 542.65 34.196C543.079 34.3733 543.425 34.6533 543.686 35.036L542.958 35.708C542.753 35.4653 542.51 35.2647 542.23 35.106C541.959 34.9473 541.637 34.868 541.264 34.868C540.947 34.868 540.653 34.9473 540.382 35.106C540.111 35.2553 539.976 35.498 539.976 35.834C539.976 36.1047 540.055 36.3193 540.214 36.478C540.382 36.6273 540.597 36.7487 540.858 36.842C541.119 36.9353 541.399 37.0287 541.698 37.122C542.043 37.2247 542.365 37.3553 542.664 37.514C542.972 37.6633 543.219 37.864 543.406 38.116C543.602 38.368 543.7 38.6993 543.7 39.11C543.7 39.586 543.583 39.978 543.35 40.286C543.117 40.5847 542.804 40.8087 542.412 40.958C542.029 41.098 541.609 41.168 541.152 41.168ZM547.241 41.168C546.821 41.168 546.443 41.0793 546.107 40.902C545.781 40.7247 545.524 40.4773 545.337 40.16C545.151 39.8427 545.057 39.4787 545.057 39.068C545.057 38.6667 545.151 38.3213 545.337 38.032C545.533 37.7333 545.818 37.4953 546.191 37.318C546.565 37.1407 547.013 37.038 547.535 37.01L549.355 36.898V36.408C549.355 36.0533 549.295 35.7687 549.173 35.554C549.061 35.33 548.893 35.1667 548.669 35.064C548.455 34.952 548.189 34.896 547.871 34.896C547.47 34.896 547.125 34.9707 546.835 35.12C546.546 35.2693 546.322 35.4327 546.163 35.61L545.491 34.938C545.734 34.6393 546.065 34.3967 546.485 34.21C546.905 34.014 547.377 33.916 547.899 33.916C548.534 33.916 549.038 34.0233 549.411 34.238C549.785 34.4527 550.051 34.742 550.209 35.106C550.377 35.4607 550.461 35.8573 550.461 36.296V41H549.411V39.824H549.327C549.15 40.2347 548.889 40.5613 548.543 40.804C548.198 41.0467 547.764 41.168 547.241 41.168ZM547.409 40.216C547.988 40.216 548.455 40.048 548.809 39.712C549.173 39.3667 549.355 38.9093 549.355 38.34V37.738L547.591 37.864C547.134 37.9013 546.784 38.018 546.541 38.214C546.308 38.41 546.191 38.6853 546.191 39.04C546.191 39.3947 546.303 39.6793 546.527 39.894C546.761 40.1087 547.055 40.216 547.409 40.216ZM555.473 43.758C554.876 43.758 554.358 43.6507 553.919 43.436C553.481 43.2307 553.131 42.974 552.869 42.666L553.611 41.952C553.807 42.1853 554.064 42.3767 554.381 42.526C554.699 42.6753 555.044 42.75 555.417 42.75C555.819 42.75 556.159 42.6847 556.439 42.554C556.729 42.4327 556.948 42.2273 557.097 41.938C557.256 41.658 557.335 41.2753 557.335 40.79V39.446H557.251C557.111 39.9033 556.836 40.2673 556.425 40.538C556.024 40.7993 555.585 40.93 555.109 40.93C554.531 40.93 554.017 40.79 553.569 40.51C553.121 40.23 552.771 39.8287 552.519 39.306C552.267 38.774 552.141 38.1393 552.141 37.402C552.141 36.6833 552.267 36.0627 552.519 35.54C552.771 35.0173 553.121 34.616 553.569 34.336C554.017 34.056 554.531 33.916 555.109 33.916C555.623 33.916 556.08 34.0513 556.481 34.322C556.892 34.5833 557.167 34.9473 557.307 35.414H557.391V34.084H558.455V40.93C558.455 41.49 558.339 41.98 558.105 42.4C557.881 42.8293 557.545 43.1607 557.097 43.394C556.659 43.6367 556.117 43.758 555.473 43.758ZM555.333 39.922C555.744 39.922 556.099 39.824 556.397 39.628C556.696 39.432 556.925 39.1473 557.083 38.774C557.251 38.4007 557.335 37.948 557.335 37.416C557.335 36.8747 557.251 36.422 557.083 36.058C556.925 35.6847 556.696 35.4047 556.397 35.218C556.099 35.022 555.744 34.924 555.333 34.924C554.923 34.924 554.563 35.022 554.255 35.218C553.947 35.4047 553.709 35.6847 553.541 36.058C553.373 36.422 553.289 36.8747 553.289 37.416C553.289 37.948 553.373 38.4007 553.541 38.774C553.709 39.1473 553.947 39.432 554.255 39.628C554.563 39.824 554.923 39.922 555.333 39.922ZM563.538 41.168C562.876 41.168 562.297 41.0233 561.802 40.734C561.317 40.4447 560.939 40.0293 560.668 39.488C560.398 38.9373 560.262 38.2887 560.262 37.542C560.262 36.954 560.337 36.436 560.486 35.988C560.645 35.5307 560.864 35.1527 561.144 34.854C561.434 34.546 561.77 34.3127 562.152 34.154C562.544 33.9953 562.974 33.916 563.44 33.916C563.907 33.916 564.332 33.9907 564.714 34.14C565.106 34.2893 565.442 34.5133 565.722 34.812C566.012 35.1013 566.236 35.47 566.394 35.918C566.553 36.3567 566.632 36.87 566.632 37.458C566.632 37.5327 566.628 37.6073 566.618 37.682C566.618 37.7567 566.614 37.8173 566.604 37.864H561.382C561.392 38.2933 561.494 38.6853 561.69 39.04C561.886 39.3947 562.148 39.6793 562.474 39.894C562.81 40.0993 563.184 40.202 563.594 40.202C564.089 40.202 564.5 40.104 564.826 39.908C565.153 39.712 565.424 39.474 565.638 39.194L566.31 39.88C566.021 40.272 565.652 40.5847 565.204 40.818C564.756 41.0513 564.201 41.168 563.538 41.168ZM563.44 34.84C563.002 34.84 562.633 34.9427 562.334 35.148C562.036 35.3533 561.807 35.6147 561.648 35.932C561.499 36.2493 561.42 36.5807 561.41 36.926H565.456C565.447 36.5807 565.363 36.2493 565.204 35.932C565.055 35.6147 564.831 35.3533 564.532 35.148C564.243 34.9427 563.879 34.84 563.44 34.84Z" fill="white" fill-opacity="0.9"/>
<path d="M704 36C704 27.1634 711.163 20 720 20C728.837 20 736 27.1634 736 36C736 44.8366 728.837 52 720 52C711.163 52 704 44.8366 704 36Z" fill="white" fill-opacity="0.01"/>
<path d="M724.835 30.0063L720 34.8407L715.166 30.0063L714.006 31.1657L718.841 36.0001L714.006 40.8345L715.166 41.9939L720 37.1595L724.835 41.9939L725.994 40.8345L721.16 36.0001L725.994 31.1657L724.835 30.0063Z" fill="white" fill-opacity="0.9"/>
</g>
</g>
<circle cx="12" cy="112" r="12" fill="#2B2A28"/>
<path d="M11.6339 117.168C10.9059 117.168 10.2945 117.061 9.79987 116.846C9.3052 116.622 8.88053 116.319 8.52587 115.936L9.54787 114.802C9.77187 115.054 10.0519 115.259 10.3879 115.418C10.7332 115.577 11.1159 115.656 11.5359 115.656C12.0399 115.656 12.4459 115.544 12.7539 115.32C13.0619 115.096 13.2159 114.765 13.2159 114.326C13.2159 113.906 13.0712 113.598 12.7819 113.402C12.4925 113.206 12.1099 113.108 11.6339 113.108H10.7239V111.624H11.6339C12.0539 111.624 12.3665 111.517 12.5719 111.302C12.7772 111.078 12.8799 110.789 12.8799 110.434C12.8799 110.219 12.8425 110.037 12.7679 109.888C12.6932 109.739 12.5905 109.617 12.4599 109.524C12.3385 109.421 12.1939 109.351 12.0259 109.314C11.8579 109.267 11.6852 109.244 11.5079 109.244C11.1252 109.244 10.7752 109.319 10.4579 109.468C10.1405 109.617 9.87453 109.813 9.65987 110.056L8.69387 108.964C9.02987 108.591 9.43587 108.292 9.91187 108.068C10.3879 107.844 10.9759 107.732 11.6759 107.732C12.1332 107.732 12.5532 107.793 12.9359 107.914C13.3185 108.035 13.6452 108.208 13.9159 108.432C14.1865 108.647 14.3965 108.903 14.5459 109.202C14.6952 109.501 14.7699 109.832 14.7699 110.196C14.7699 110.672 14.6299 111.092 14.3499 111.456C14.0699 111.811 13.6639 112.081 13.1319 112.268V112.352C13.4119 112.408 13.6685 112.501 13.9019 112.632C14.1445 112.763 14.3499 112.926 14.5179 113.122C14.6952 113.309 14.8352 113.523 14.9379 113.766C15.0405 113.999 15.0919 114.256 15.0919 114.536C15.0919 114.919 15.0172 115.273 14.8679 115.6C14.7185 115.917 14.4945 116.193 14.1959 116.426C13.9065 116.659 13.5472 116.841 13.1179 116.972C12.6885 117.103 12.1939 117.168 11.6339 117.168Z" fill="white" fill-opacity="0.9"/>
<rect x="24" y="111.5" width="56" height="1" rx="0.5" fill="#FF8000"/>
<g filter="url(#filter2_ddd_27759_7679)">
<g clip-path="url(#clip4_27759_7679)">
<path d="M80 96C80 91.5817 83.5817 88 88 88H352C356.418 88 360 91.5817 360 96V128C360 132.418 356.418 136 352 136H88C83.5817 136 80 132.418 80 128V96Z" fill="#2B2A28"/>
<g clip-path="url(#clip5_27759_7679)">
<path d="M103.087 111.663L104.75 113.489L104.761 113.478L108.935 108.946L110.13 110.054L105.674 114.891C105.424 115.152 105.098 115.294 104.75 115.294C104.402 115.294 104.076 115.152 103.837 114.902L101.88 112.761L103.087 111.663Z" fill="#68CA77"/>
<path fill-rule="evenodd" clip-rule="evenodd" d="M97.8477 112C97.8477 107.5 101.5 103.848 106 103.848C110.5 103.848 114.152 107.5 114.152 112C114.152 116.5 110.5 120.152 106 120.152C101.5 120.152 97.8477 116.5 97.8477 112ZM99.4781 112C99.4781 115.598 102.402 118.522 106 118.522C109.598 118.522 112.522 115.598 112.522 112C112.522 108.402 109.598 105.478 106 105.478C102.402 105.478 99.4781 108.402 99.4781 112Z" fill="#68CA77"/>
</g>
<path d="M125.288 117V107.9H126.884L130.006 115.656H130.09L133.212 107.9H134.836V117H133.716V109.482H133.632L130.636 117H129.46L126.464 109.482H126.38V117H125.288ZM140.019 117.168C139.356 117.168 138.778 117.023 138.283 116.734C137.798 116.445 137.42 116.029 137.149 115.488C136.878 114.937 136.743 114.289 136.743 113.542C136.743 112.954 136.818 112.436 136.967 111.988C137.126 111.531 137.345 111.153 137.625 110.854C137.914 110.546 138.25 110.313 138.633 110.154C139.025 109.995 139.454 109.916 139.921 109.916C140.388 109.916 140.812 109.991 141.195 110.14C141.587 110.289 141.923 110.513 142.203 110.812C142.492 111.101 142.716 111.47 142.875 111.918C143.034 112.357 143.113 112.87 143.113 113.458C143.113 113.533 143.108 113.607 143.099 113.682C143.099 113.757 143.094 113.817 143.085 113.864H137.863C137.872 114.293 137.975 114.685 138.171 115.04C138.367 115.395 138.628 115.679 138.955 115.894C139.291 116.099 139.664 116.202 140.075 116.202C140.57 116.202 140.98 116.104 141.307 115.908C141.634 115.712 141.904 115.474 142.119 115.194L142.791 115.88C142.502 116.272 142.133 116.585 141.685 116.818C141.237 117.051 140.682 117.168 140.019 117.168ZM139.921 110.84C139.482 110.84 139.114 110.943 138.815 111.148C138.516 111.353 138.288 111.615 138.129 111.932C137.98 112.249 137.9 112.581 137.891 112.926H141.937C141.928 112.581 141.844 112.249 141.685 111.932C141.536 111.615 141.312 111.353 141.013 111.148C140.724 110.943 140.36 110.84 139.921 110.84ZM146.795 117.168C146.197 117.168 145.684 117.065 145.255 116.86C144.825 116.655 144.489 116.389 144.247 116.062L144.989 115.362C145.203 115.614 145.451 115.819 145.731 115.978C146.02 116.137 146.379 116.216 146.809 116.216C147.191 116.216 147.527 116.137 147.817 115.978C148.106 115.81 148.251 115.553 148.251 115.208C148.251 114.937 148.167 114.727 147.999 114.578C147.84 114.419 147.63 114.293 147.369 114.2C147.107 114.097 146.827 114.004 146.529 113.92C146.183 113.817 145.857 113.691 145.549 113.542C145.25 113.383 145.003 113.178 144.807 112.926C144.62 112.665 144.527 112.333 144.527 111.932C144.527 111.493 144.629 111.125 144.835 110.826C145.049 110.527 145.334 110.303 145.689 110.154C146.053 109.995 146.459 109.916 146.907 109.916C147.401 109.916 147.863 110.009 148.293 110.196C148.722 110.373 149.067 110.653 149.329 111.036L148.601 111.708C148.395 111.465 148.153 111.265 147.873 111.106C147.602 110.947 147.28 110.868 146.907 110.868C146.589 110.868 146.295 110.947 146.025 111.106C145.754 111.255 145.619 111.498 145.619 111.834C145.619 112.105 145.698 112.319 145.857 112.478C146.025 112.627 146.239 112.749 146.501 112.842C146.762 112.935 147.042 113.029 147.341 113.122C147.686 113.225 148.008 113.355 148.307 113.514C148.615 113.663 148.862 113.864 149.049 114.116C149.245 114.368 149.343 114.699 149.343 115.11C149.343 115.586 149.226 115.978 148.993 116.286C148.759 116.585 148.447 116.809 148.055 116.958C147.672 117.098 147.252 117.168 146.795 117.168ZM153.152 117.168C152.555 117.168 152.041 117.065 151.612 116.86C151.183 116.655 150.847 116.389 150.604 116.062L151.346 115.362C151.561 115.614 151.808 115.819 152.088 115.978C152.377 116.137 152.737 116.216 153.166 116.216C153.549 116.216 153.885 116.137 154.174 115.978C154.463 115.81 154.608 115.553 154.608 115.208C154.608 114.937 154.524 114.727 154.356 114.578C154.197 114.419 153.987 114.293 153.726 114.2C153.465 114.097 153.185 114.004 152.886 113.92C152.541 113.817 152.214 113.691 151.906 113.542C151.607 113.383 151.36 113.178 151.164 112.926C150.977 112.665 150.884 112.333 150.884 111.932C150.884 111.493 150.987 111.125 151.192 110.826C151.407 110.527 151.691 110.303 152.046 110.154C152.41 109.995 152.816 109.916 153.264 109.916C153.759 109.916 154.221 110.009 154.65 110.196C155.079 110.373 155.425 110.653 155.686 111.036L154.958 111.708C154.753 111.465 154.51 111.265 154.23 111.106C153.959 110.947 153.637 110.868 153.264 110.868C152.947 110.868 152.653 110.947 152.382 111.106C152.111 111.255 151.976 111.498 151.976 111.834C151.976 112.105 152.055 112.319 152.214 112.478C152.382 112.627 152.597 112.749 152.858 112.842C153.119 112.935 153.399 113.029 153.698 113.122C154.043 113.225 154.365 113.355 154.664 113.514C154.972 113.663 155.219 113.864 155.406 114.116C155.602 114.368 155.7 114.699 155.7 115.11C155.7 115.586 155.583 115.978 155.35 116.286C155.117 116.585 154.804 116.809 154.412 116.958C154.029 117.098 153.609 117.168 153.152 117.168ZM159.241 117.168C158.821 117.168 158.443 117.079 158.107 116.902C157.781 116.725 157.524 116.477 157.337 116.16C157.151 115.843 157.057 115.479 157.057 115.068C157.057 114.667 157.151 114.321 157.337 114.032C157.533 113.733 157.818 113.495 158.191 113.318C158.565 113.141 159.013 113.038 159.535 113.01L161.355 112.898V112.408C161.355 112.053 161.295 111.769 161.173 111.554C161.061 111.33 160.893 111.167 160.669 111.064C160.455 110.952 160.189 110.896 159.871 110.896C159.47 110.896 159.125 110.971 158.835 111.12C158.546 111.269 158.322 111.433 158.163 111.61L157.491 110.938C157.734 110.639 158.065 110.397 158.485 110.21C158.905 110.014 159.377 109.916 159.899 109.916C160.534 109.916 161.038 110.023 161.411 110.238C161.785 110.453 162.051 110.742 162.209 111.106C162.377 111.461 162.461 111.857 162.461 112.296V117H161.411V115.824H161.327C161.15 116.235 160.889 116.561 160.543 116.804C160.198 117.047 159.764 117.168 159.241 117.168ZM159.409 116.216C159.988 116.216 160.455 116.048 160.809 115.712C161.173 115.367 161.355 114.909 161.355 114.34V113.738L159.591 113.864C159.134 113.901 158.784 114.018 158.541 114.214C158.308 114.41 158.191 114.685 158.191 115.04C158.191 115.395 158.303 115.679 158.527 115.894C158.761 116.109 159.055 116.216 159.409 116.216ZM167.473 119.758C166.876 119.758 166.358 119.651 165.919 119.436C165.481 119.231 165.131 118.974 164.869 118.666L165.611 117.952C165.807 118.185 166.064 118.377 166.381 118.526C166.699 118.675 167.044 118.75 167.417 118.75C167.819 118.75 168.159 118.685 168.439 118.554C168.729 118.433 168.948 118.227 169.097 117.938C169.256 117.658 169.335 117.275 169.335 116.79V115.446H169.251C169.111 115.903 168.836 116.267 168.425 116.538C168.024 116.799 167.585 116.93 167.109 116.93C166.531 116.93 166.017 116.79 165.569 116.51C165.121 116.23 164.771 115.829 164.519 115.306C164.267 114.774 164.141 114.139 164.141 113.402C164.141 112.683 164.267 112.063 164.519 111.54C164.771 111.017 165.121 110.616 165.569 110.336C166.017 110.056 166.531 109.916 167.109 109.916C167.623 109.916 168.08 110.051 168.481 110.322C168.892 110.583 169.167 110.947 169.307 111.414H169.391V110.084H170.455V116.93C170.455 117.49 170.339 117.98 170.105 118.4C169.881 118.829 169.545 119.161 169.097 119.394C168.659 119.637 168.117 119.758 167.473 119.758ZM167.333 115.922C167.744 115.922 168.099 115.824 168.397 115.628C168.696 115.432 168.925 115.147 169.083 114.774C169.251 114.401 169.335 113.948 169.335 113.416C169.335 112.875 169.251 112.422 169.083 112.058C168.925 111.685 168.696 111.405 168.397 111.218C168.099 111.022 167.744 110.924 167.333 110.924C166.923 110.924 166.563 111.022 166.255 111.218C165.947 111.405 165.709 111.685 165.541 112.058C165.373 112.422 165.289 112.875 165.289 113.416C165.289 113.948 165.373 114.401 165.541 114.774C165.709 115.147 165.947 115.432 166.255 115.628C166.563 115.824 166.923 115.922 167.333 115.922ZM175.538 117.168C174.876 117.168 174.297 117.023 173.802 116.734C173.317 116.445 172.939 116.029 172.668 115.488C172.398 114.937 172.262 114.289 172.262 113.542C172.262 112.954 172.337 112.436 172.486 111.988C172.645 111.531 172.864 111.153 173.144 110.854C173.434 110.546 173.77 110.313 174.152 110.154C174.544 109.995 174.974 109.916 175.44 109.916C175.907 109.916 176.332 109.991 176.714 110.14C177.106 110.289 177.442 110.513 177.722 110.812C178.012 111.101 178.236 111.47 178.394 111.918C178.553 112.357 178.632 112.87 178.632 113.458C178.632 113.533 178.628 113.607 178.618 113.682C178.618 113.757 178.614 113.817 178.604 113.864H173.382C173.392 114.293 173.494 114.685 173.69 115.04C173.886 115.395 174.148 115.679 174.474 115.894C174.81 116.099 175.184 116.202 175.594 116.202C176.089 116.202 176.5 116.104 176.826 115.908C177.153 115.712 177.424 115.474 177.638 115.194L178.31 115.88C178.021 116.272 177.652 116.585 177.204 116.818C176.756 117.051 176.201 117.168 175.538 117.168ZM175.44 110.84C175.002 110.84 174.633 110.943 174.334 111.148C174.036 111.353 173.807 111.615 173.648 111.932C173.499 112.249 173.42 112.581 173.41 112.926H177.456C177.447 112.581 177.363 112.249 177.204 111.932C177.055 111.615 176.831 111.353 176.532 111.148C176.243 110.943 175.879 110.84 175.44 110.84Z" fill="white" fill-opacity="0.9"/>
<path d="M316 112C316 103.163 323.163 96 332 96C340.837 96 348 103.163 348 112C348 120.837 340.837 128 332 128C323.163 128 316 120.837 316 112Z" fill="white" fill-opacity="0.01"/>
<path d="M336.835 106.006L332 110.841L327.166 106.006L326.006 107.166L330.841 112L326.006 116.834L327.166 117.994L332 113.159L336.835 117.994L337.994 116.834L333.16 112L337.994 107.166L336.835 106.006Z" fill="white" fill-opacity="0.9"/>
</g>
</g>
<circle cx="400" cy="112" r="12" fill="#2B2A28"/>
<path d="M400.684 115.306H396.316V113.976L400.096 107.9H402.126L398.43 113.808H400.684V111.554H402.504V113.808H403.652V115.306H402.504V117H400.684V115.306Z" fill="white" fill-opacity="0.9"/>
<rect x="412" y="111.5" width="56" height="1" rx="0.5" fill="#FF8000"/>
<g filter="url(#filter3_ddd_27759_7679)">
<g clip-path="url(#clip6_27759_7679)">
<path d="M468 96C468 91.5817 471.582 88 476 88H740C744.418 88 748 91.5817 748 96V128C748 132.418 744.418 136 740 136H476C471.582 136 468 132.418 468 128V96Z" fill="#2B2A28"/>
<g clip-path="url(#clip7_27759_7679)">
<path d="M494 120.477C492.323 120.477 490.685 119.979 489.291 119.048C487.897 118.117 486.81 116.793 486.169 115.244C485.527 113.695 485.359 111.991 485.686 110.346C486.013 108.702 486.821 107.192 488.006 106.006C489.192 104.821 490.702 104.013 492.346 103.686C493.991 103.359 495.695 103.527 497.244 104.169C498.793 104.81 500.117 105.897 501.048 107.291C501.979 108.685 502.477 110.323 502.477 112C502.474 114.247 501.58 116.402 499.991 117.991C498.402 119.58 496.247 120.474 494 120.477ZM494 105.164C492.648 105.164 491.326 105.565 490.202 106.316C489.078 107.067 488.202 108.135 487.684 109.384C487.167 110.633 487.032 112.008 487.295 113.334C487.559 114.66 488.21 115.878 489.166 116.834C490.122 117.79 491.34 118.441 492.666 118.705C493.992 118.968 495.367 118.833 496.616 118.316C497.865 117.798 498.933 116.922 499.684 115.798C500.435 114.674 500.836 113.352 500.836 112C500.836 111.102 500.659 110.213 500.316 109.384C499.972 108.555 499.469 107.801 498.834 107.166C498.199 106.531 497.445 106.028 496.616 105.684C495.787 105.341 494.898 105.164 494 105.164Z" fill="#F85C59"/>
<path d="M492.819 107.789C493.591 107.572 494.409 107.572 495.181 107.789L494.58 113.094H493.42L492.819 107.789ZM495.094 115.281C495.094 115.498 495.03 115.709 494.909 115.889C494.789 116.069 494.618 116.209 494.419 116.292C494.219 116.375 493.999 116.396 493.787 116.354C493.574 116.312 493.38 116.208 493.227 116.055C493.074 115.902 492.969 115.707 492.927 115.495C492.885 115.282 492.907 115.063 492.99 114.863C493.072 114.663 493.212 114.492 493.392 114.372C493.572 114.252 493.784 114.188 494 114.188C494.29 114.188 494.568 114.303 494.773 114.508C494.979 114.713 495.094 114.991 495.094 115.281Z" fill="#F85C59"/>
</g>
<path d="M513.288 117V107.9H514.884L518.006 115.656H518.09L521.212 107.9H522.836V117H521.716V109.482H521.632L518.636 117H517.46L514.464 109.482H514.38V117H513.288ZM528.019 117.168C527.356 117.168 526.778 117.023 526.283 116.734C525.798 116.445 525.42 116.029 525.149 115.488C524.878 114.937 524.743 114.289 524.743 113.542C524.743 112.954 524.818 112.436 524.967 111.988C525.126 111.531 525.345 111.153 525.625 110.854C525.914 110.546 526.25 110.313 526.633 110.154C527.025 109.995 527.454 109.916 527.921 109.916C528.388 109.916 528.812 109.991 529.195 110.14C529.587 110.289 529.923 110.513 530.203 110.812C530.492 111.101 530.716 111.47 530.875 111.918C531.034 112.357 531.113 112.87 531.113 113.458C531.113 113.533 531.108 113.607 531.099 113.682C531.099 113.757 531.094 113.817 531.085 113.864H525.863C525.872 114.293 525.975 114.685 526.171 115.04C526.367 115.395 526.628 115.679 526.955 115.894C527.291 116.099 527.664 116.202 528.075 116.202C528.57 116.202 528.98 116.104 529.307 115.908C529.634 115.712 529.904 115.474 530.119 115.194L530.791 115.88C530.502 116.272 530.133 116.585 529.685 116.818C529.237 117.051 528.682 117.168 528.019 117.168ZM527.921 110.84C527.482 110.84 527.114 110.943 526.815 111.148C526.516 111.353 526.288 111.615 526.129 111.932C525.98 112.249 525.9 112.581 525.891 112.926H529.937C529.928 112.581 529.844 112.249 529.685 111.932C529.536 111.615 529.312 111.353 529.013 111.148C528.724 110.943 528.36 110.84 527.921 110.84ZM534.795 117.168C534.197 117.168 533.684 117.065 533.255 116.86C532.825 116.655 532.489 116.389 532.247 116.062L532.989 115.362C533.203 115.614 533.451 115.819 533.731 115.978C534.02 116.137 534.379 116.216 534.809 116.216C535.191 116.216 535.527 116.137 535.817 115.978C536.106 115.81 536.251 115.553 536.251 115.208C536.251 114.937 536.167 114.727 535.999 114.578C535.84 114.419 535.63 114.293 535.369 114.2C535.107 114.097 534.827 114.004 534.529 113.92C534.183 113.817 533.857 113.691 533.549 113.542C533.25 113.383 533.003 113.178 532.807 112.926C532.62 112.665 532.527 112.333 532.527 111.932C532.527 111.493 532.629 111.125 532.835 110.826C533.049 110.527 533.334 110.303 533.689 110.154C534.053 109.995 534.459 109.916 534.907 109.916C535.401 109.916 535.863 110.009 536.293 110.196C536.722 110.373 537.067 110.653 537.329 111.036L536.601 111.708C536.395 111.465 536.153 111.265 535.873 111.106C535.602 110.947 535.28 110.868 534.907 110.868C534.589 110.868 534.295 110.947 534.025 111.106C533.754 111.255 533.619 111.498 533.619 111.834C533.619 112.105 533.698 112.319 533.857 112.478C534.025 112.627 534.239 112.749 534.501 112.842C534.762 112.935 535.042 113.029 535.341 113.122C535.686 113.225 536.008 113.355 536.307 113.514C536.615 113.663 536.862 113.864 537.049 114.116C537.245 114.368 537.343 114.699 537.343 115.11C537.343 115.586 537.226 115.978 536.993 116.286C536.759 116.585 536.447 116.809 536.055 116.958C535.672 117.098 535.252 117.168 534.795 117.168ZM541.152 117.168C540.555 117.168 540.041 117.065 539.612 116.86C539.183 116.655 538.847 116.389 538.604 116.062L539.346 115.362C539.561 115.614 539.808 115.819 540.088 115.978C540.377 116.137 540.737 116.216 541.166 116.216C541.549 116.216 541.885 116.137 542.174 115.978C542.463 115.81 542.608 115.553 542.608 115.208C542.608 114.937 542.524 114.727 542.356 114.578C542.197 114.419 541.987 114.293 541.726 114.2C541.465 114.097 541.185 114.004 540.886 113.92C540.541 113.817 540.214 113.691 539.906 113.542C539.607 113.383 539.36 113.178 539.164 112.926C538.977 112.665 538.884 112.333 538.884 111.932C538.884 111.493 538.987 111.125 539.192 110.826C539.407 110.527 539.691 110.303 540.046 110.154C540.41 109.995 540.816 109.916 541.264 109.916C541.759 109.916 542.221 110.009 542.65 110.196C543.079 110.373 543.425 110.653 543.686 111.036L542.958 111.708C542.753 111.465 542.51 111.265 542.23 111.106C541.959 110.947 541.637 110.868 541.264 110.868C540.947 110.868 540.653 110.947 540.382 111.106C540.111 111.255 539.976 111.498 539.976 111.834C539.976 112.105 540.055 112.319 540.214 112.478C540.382 112.627 540.597 112.749 540.858 112.842C541.119 112.935 541.399 113.029 541.698 113.122C542.043 113.225 542.365 113.355 542.664 113.514C542.972 113.663 543.219 113.864 543.406 114.116C543.602 114.368 543.7 114.699 543.7 115.11C543.7 115.586 543.583 115.978 543.35 116.286C543.117 116.585 542.804 116.809 542.412 116.958C542.029 117.098 541.609 117.168 541.152 117.168ZM547.241 117.168C546.821 117.168 546.443 117.079 546.107 116.902C545.781 116.725 545.524 116.477 545.337 116.16C545.151 115.843 545.057 115.479 545.057 115.068C545.057 114.667 545.151 114.321 545.337 114.032C545.533 113.733 545.818 113.495 546.191 113.318C546.565 113.141 547.013 113.038 547.535 113.01L549.355 112.898V112.408C549.355 112.053 549.295 111.769 549.173 111.554C549.061 111.33 548.893 111.167 548.669 111.064C548.455 110.952 548.189 110.896 547.871 110.896C547.47 110.896 547.125 110.971 546.835 111.12C546.546 111.269 546.322 111.433 546.163 111.61L545.491 110.938C545.734 110.639 546.065 110.397 546.485 110.21C546.905 110.014 547.377 109.916 547.899 109.916C548.534 109.916 549.038 110.023 549.411 110.238C549.785 110.453 550.051 110.742 550.209 111.106C550.377 111.461 550.461 111.857 550.461 112.296V117H549.411V115.824H549.327C549.15 116.235 548.889 116.561 548.543 116.804C548.198 117.047 547.764 117.168 547.241 117.168ZM547.409 116.216C547.988 116.216 548.455 116.048 548.809 115.712C549.173 115.367 549.355 114.909 549.355 114.34V113.738L547.591 113.864C547.134 113.901 546.784 114.018 546.541 114.214C546.308 114.41 546.191 114.685 546.191 115.04C546.191 115.395 546.303 115.679 546.527 115.894C546.761 116.109 547.055 116.216 547.409 116.216ZM555.473 119.758C554.876 119.758 554.358 119.651 553.919 119.436C553.481 119.231 553.131 118.974 552.869 118.666L553.611 117.952C553.807 118.185 554.064 118.377 554.381 118.526C554.699 118.675 555.044 118.75 555.417 118.75C555.819 118.75 556.159 118.685 556.439 118.554C556.729 118.433 556.948 118.227 557.097 117.938C557.256 117.658 557.335 117.275 557.335 116.79V115.446H557.251C557.111 115.903 556.836 116.267 556.425 116.538C556.024 116.799 555.585 116.93 555.109 116.93C554.531 116.93 554.017 116.79 553.569 116.51C553.121 116.23 552.771 115.829 552.519 115.306C552.267 114.774 552.141 114.139 552.141 113.402C552.141 112.683 552.267 112.063 552.519 111.54C552.771 111.017 553.121 110.616 553.569 110.336C554.017 110.056 554.531 109.916 555.109 109.916C555.623 109.916 556.08 110.051 556.481 110.322C556.892 110.583 557.167 110.947 557.307 111.414H557.391V110.084H558.455V116.93C558.455 117.49 558.339 117.98 558.105 118.4C557.881 118.829 557.545 119.161 557.097 119.394C556.659 119.637 556.117 119.758 555.473 119.758ZM555.333 115.922C555.744 115.922 556.099 115.824 556.397 115.628C556.696 115.432 556.925 115.147 557.083 114.774C557.251 114.401 557.335 113.948 557.335 113.416C557.335 112.875 557.251 112.422 557.083 112.058C556.925 111.685 556.696 111.405 556.397 111.218C556.099 111.022 555.744 110.924 555.333 110.924C554.923 110.924 554.563 111.022 554.255 111.218C553.947 111.405 553.709 111.685 553.541 112.058C553.373 112.422 553.289 112.875 553.289 113.416C553.289 113.948 553.373 114.401 553.541 114.774C553.709 115.147 553.947 115.432 554.255 115.628C554.563 115.824 554.923 115.922 555.333 115.922ZM563.538 117.168C562.876 117.168 562.297 117.023 561.802 116.734C561.317 116.445 560.939 116.029 560.668 115.488C560.398 114.937 560.262 114.289 560.262 113.542C560.262 112.954 560.337 112.436 560.486 111.988C560.645 111.531 560.864 111.153 561.144 110.854C561.434 110.546 561.77 110.313 562.152 110.154C562.544 109.995 562.974 109.916 563.44 109.916C563.907 109.916 564.332 109.991 564.714 110.14C565.106 110.289 565.442 110.513 565.722 110.812C566.012 111.101 566.236 111.47 566.394 111.918C566.553 112.357 566.632 112.87 566.632 113.458C566.632 113.533 566.628 113.607 566.618 113.682C566.618 113.757 566.614 113.817 566.604 113.864H561.382C561.392 114.293 561.494 114.685 561.69 115.04C561.886 115.395 562.148 115.679 562.474 115.894C562.81 116.099 563.184 116.202 563.594 116.202C564.089 116.202 564.5 116.104 564.826 115.908C565.153 115.712 565.424 115.474 565.638 115.194L566.31 115.88C566.021 116.272 565.652 116.585 565.204 116.818C564.756 117.051 564.201 117.168 563.538 117.168ZM563.44 110.84C563.002 110.84 562.633 110.943 562.334 111.148C562.036 111.353 561.807 111.615 561.648 111.932C561.499 112.249 561.42 112.581 561.41 112.926H565.456C565.447 112.581 565.363 112.249 565.204 111.932C565.055 111.615 564.831 111.353 564.532 111.148C564.243 110.943 563.879 110.84 563.44 110.84Z" fill="white" fill-opacity="0.9"/>
<path d="M704 112C704 103.163 711.163 96 720 96C728.837 96 736 103.163 736 112C736 120.837 728.837 128 720 128C711.163 128 704 120.837 704 112Z" fill="white" fill-opacity="0.01"/>
<path d="M724.835 106.006L720 110.841L715.166 106.006L714.006 107.166L718.841 112L714.006 116.834L715.166 117.994L720 113.159L724.835 117.994L725.994 116.834L721.16 112L725.994 107.166L724.835 106.006Z" fill="white" fill-opacity="0.9"/>
</g>
</g>
<circle cx="12" cy="188" r="12" fill="#2B2A28"/>
<path d="M11.7179 193.168C10.9992 193.168 10.3925 193.065 9.89787 192.86C9.41253 192.645 8.99253 192.356 8.63787 191.992L9.65987 190.844C9.8932 191.087 10.1685 191.283 10.4859 191.432C10.8032 191.581 11.1719 191.656 11.5919 191.656C12.0865 191.656 12.4972 191.53 12.8239 191.278C13.1505 191.026 13.3139 190.662 13.3139 190.186C13.3139 189.71 13.1505 189.36 12.8239 189.136C12.5065 188.903 12.1099 188.786 11.6339 188.786H9.95387L9.26787 188.1L9.26787 183.9H14.6719V185.412H10.9899L10.9899 187.344H11.8859C12.3805 187.344 12.8285 187.409 13.2299 187.54C13.6405 187.671 13.9905 187.857 14.2799 188.1C14.5785 188.343 14.8072 188.641 14.9659 188.996C15.1245 189.341 15.2039 189.738 15.2039 190.186C15.2039 190.615 15.1292 191.012 14.9799 191.376C14.8305 191.74 14.6065 192.057 14.3079 192.328C14.0185 192.589 13.6545 192.795 13.2159 192.944C12.7865 193.093 12.2872 193.168 11.7179 193.168Z" fill="white" fill-opacity="0.9"/>
<rect x="24" y="187.5" width="56" height="1" rx="0.5" fill="#FF8000"/>
<g filter="url(#filter4_ddd_27759_7679)">
<g clip-path="url(#clip8_27759_7679)">
<path d="M80 172C80 167.582 83.5817 164 88 164H352C356.418 164 360 167.582 360 172V204C360 208.418 356.418 212 352 212H88C83.5817 212 80 208.418 80 204V172Z" fill="#2B2A28"/>
<path d="M97.288 193V183.9H98.884L102.006 191.656H102.09L105.212 183.9H106.836V193H105.716V185.482H105.632L102.636 193H101.46L98.464 185.482H98.38V193H97.288ZM112.019 193.168C111.356 193.168 110.778 193.023 110.283 192.734C109.798 192.445 109.42 192.029 109.149 191.488C108.878 190.937 108.743 190.289 108.743 189.542C108.743 188.954 108.818 188.436 108.967 187.988C109.126 187.531 109.345 187.153 109.625 186.854C109.914 186.546 110.25 186.313 110.633 186.154C111.025 185.995 111.454 185.916 111.921 185.916C112.388 185.916 112.812 185.991 113.195 186.14C113.587 186.289 113.923 186.513 114.203 186.812C114.492 187.101 114.716 187.47 114.875 187.918C115.034 188.357 115.113 188.87 115.113 189.458C115.113 189.533 115.108 189.607 115.099 189.682C115.099 189.757 115.094 189.817 115.085 189.864H109.863C109.872 190.293 109.975 190.685 110.171 191.04C110.367 191.395 110.628 191.679 110.955 191.894C111.291 192.099 111.664 192.202 112.075 192.202C112.57 192.202 112.98 192.104 113.307 191.908C113.634 191.712 113.904 191.474 114.119 191.194L114.791 191.88C114.502 192.272 114.133 192.585 113.685 192.818C113.237 193.051 112.682 193.168 112.019 193.168ZM111.921 186.84C111.482 186.84 111.114 186.943 110.815 187.148C110.516 187.353 110.288 187.615 110.129 187.932C109.98 188.249 109.9 188.581 109.891 188.926H113.937C113.928 188.581 113.844 188.249 113.685 187.932C113.536 187.615 113.312 187.353 113.013 187.148C112.724 186.943 112.36 186.84 111.921 186.84ZM118.795 193.168C118.197 193.168 117.684 193.065 117.255 192.86C116.825 192.655 116.489 192.389 116.247 192.062L116.989 191.362C117.203 191.614 117.451 191.819 117.731 191.978C118.02 192.137 118.379 192.216 118.809 192.216C119.191 192.216 119.527 192.137 119.817 191.978C120.106 191.81 120.251 191.553 120.251 191.208C120.251 190.937 120.167 190.727 119.999 190.578C119.84 190.419 119.63 190.293 119.369 190.2C119.107 190.097 118.827 190.004 118.529 189.92C118.183 189.817 117.857 189.691 117.549 189.542C117.25 189.383 117.003 189.178 116.807 188.926C116.62 188.665 116.527 188.333 116.527 187.932C116.527 187.493 116.629 187.125 116.835 186.826C117.049 186.527 117.334 186.303 117.689 186.154C118.053 185.995 118.459 185.916 118.907 185.916C119.401 185.916 119.863 186.009 120.293 186.196C120.722 186.373 121.067 186.653 121.329 187.036L120.601 187.708C120.395 187.465 120.153 187.265 119.873 187.106C119.602 186.947 119.28 186.868 118.907 186.868C118.589 186.868 118.295 186.947 118.025 187.106C117.754 187.255 117.619 187.498 117.619 187.834C117.619 188.105 117.698 188.319 117.857 188.478C118.025 188.627 118.239 188.749 118.501 188.842C118.762 188.935 119.042 189.029 119.341 189.122C119.686 189.225 120.008 189.355 120.307 189.514C120.615 189.663 120.862 189.864 121.049 190.116C121.245 190.368 121.343 190.699 121.343 191.11C121.343 191.586 121.226 191.978 120.993 192.286C120.759 192.585 120.447 192.809 120.055 192.958C119.672 193.098 119.252 193.168 118.795 193.168ZM125.152 193.168C124.555 193.168 124.041 193.065 123.612 192.86C123.183 192.655 122.847 192.389 122.604 192.062L123.346 191.362C123.561 191.614 123.808 191.819 124.088 191.978C124.377 192.137 124.737 192.216 125.166 192.216C125.549 192.216 125.885 192.137 126.174 191.978C126.463 191.81 126.608 191.553 126.608 191.208C126.608 190.937 126.524 190.727 126.356 190.578C126.197 190.419 125.987 190.293 125.726 190.2C125.465 190.097 125.185 190.004 124.886 189.92C124.541 189.817 124.214 189.691 123.906 189.542C123.607 189.383 123.36 189.178 123.164 188.926C122.977 188.665 122.884 188.333 122.884 187.932C122.884 187.493 122.987 187.125 123.192 186.826C123.407 186.527 123.691 186.303 124.046 186.154C124.41 185.995 124.816 185.916 125.264 185.916C125.759 185.916 126.221 186.009 126.65 186.196C127.079 186.373 127.425 186.653 127.686 187.036L126.958 187.708C126.753 187.465 126.51 187.265 126.23 187.106C125.959 186.947 125.637 186.868 125.264 186.868C124.947 186.868 124.653 186.947 124.382 187.106C124.111 187.255 123.976 187.498 123.976 187.834C123.976 188.105 124.055 188.319 124.214 188.478C124.382 188.627 124.597 188.749 124.858 188.842C125.119 188.935 125.399 189.029 125.698 189.122C126.043 189.225 126.365 189.355 126.664 189.514C126.972 189.663 127.219 189.864 127.406 190.116C127.602 190.368 127.7 190.699 127.7 191.11C127.7 191.586 127.583 191.978 127.35 192.286C127.117 192.585 126.804 192.809 126.412 192.958C126.029 193.098 125.609 193.168 125.152 193.168ZM131.241 193.168C130.821 193.168 130.443 193.079 130.107 192.902C129.781 192.725 129.524 192.477 129.337 192.16C129.151 191.843 129.057 191.479 129.057 191.068C129.057 190.667 129.151 190.321 129.337 190.032C129.533 189.733 129.818 189.495 130.191 189.318C130.565 189.141 131.013 189.038 131.535 189.01L133.355 188.898V188.408C133.355 188.053 133.295 187.769 133.173 187.554C133.061 187.33 132.893 187.167 132.669 187.064C132.455 186.952 132.189 186.896 131.871 186.896C131.47 186.896 131.125 186.971 130.835 187.12C130.546 187.269 130.322 187.433 130.163 187.61L129.491 186.938C129.734 186.639 130.065 186.397 130.485 186.21C130.905 186.014 131.377 185.916 131.899 185.916C132.534 185.916 133.038 186.023 133.411 186.238C133.785 186.453 134.051 186.742 134.209 187.106C134.377 187.461 134.461 187.857 134.461 188.296V193H133.411V191.824H133.327C133.15 192.235 132.889 192.561 132.543 192.804C132.198 193.047 131.764 193.168 131.241 193.168ZM131.409 192.216C131.988 192.216 132.455 192.048 132.809 191.712C133.173 191.367 133.355 190.909 133.355 190.34V189.738L131.591 189.864C131.134 189.901 130.784 190.018 130.541 190.214C130.308 190.41 130.191 190.685 130.191 191.04C130.191 191.395 130.303 191.679 130.527 191.894C130.761 192.109 131.055 192.216 131.409 192.216ZM139.473 195.758C138.876 195.758 138.358 195.651 137.919 195.436C137.481 195.231 137.131 194.974 136.869 194.666L137.611 193.952C137.807 194.185 138.064 194.377 138.381 194.526C138.699 194.675 139.044 194.75 139.417 194.75C139.819 194.75 140.159 194.685 140.439 194.554C140.729 194.433 140.948 194.227 141.097 193.938C141.256 193.658 141.335 193.275 141.335 192.79V191.446H141.251C141.111 191.903 140.836 192.267 140.425 192.538C140.024 192.799 139.585 192.93 139.109 192.93C138.531 192.93 138.017 192.79 137.569 192.51C137.121 192.23 136.771 191.829 136.519 191.306C136.267 190.774 136.141 190.139 136.141 189.402C136.141 188.683 136.267 188.063 136.519 187.54C136.771 187.017 137.121 186.616 137.569 186.336C138.017 186.056 138.531 185.916 139.109 185.916C139.623 185.916 140.08 186.051 140.481 186.322C140.892 186.583 141.167 186.947 141.307 187.414H141.391V186.084H142.455V192.93C142.455 193.49 142.339 193.98 142.105 194.4C141.881 194.829 141.545 195.161 141.097 195.394C140.659 195.637 140.117 195.758 139.473 195.758ZM139.333 191.922C139.744 191.922 140.099 191.824 140.397 191.628C140.696 191.432 140.925 191.147 141.083 190.774C141.251 190.401 141.335 189.948 141.335 189.416C141.335 188.875 141.251 188.422 141.083 188.058C140.925 187.685 140.696 187.405 140.397 187.218C140.099 187.022 139.744 186.924 139.333 186.924C138.923 186.924 138.563 187.022 138.255 187.218C137.947 187.405 137.709 187.685 137.541 188.058C137.373 188.422 137.289 188.875 137.289 189.416C137.289 189.948 137.373 190.401 137.541 190.774C137.709 191.147 137.947 191.432 138.255 191.628C138.563 191.824 138.923 191.922 139.333 191.922ZM147.538 193.168C146.876 193.168 146.297 193.023 145.802 192.734C145.317 192.445 144.939 192.029 144.668 191.488C144.398 190.937 144.262 190.289 144.262 189.542C144.262 188.954 144.337 188.436 144.486 187.988C144.645 187.531 144.864 187.153 145.144 186.854C145.434 186.546 145.77 186.313 146.152 186.154C146.544 185.995 146.974 185.916 147.44 185.916C147.907 185.916 148.332 185.991 148.714 186.14C149.106 186.289 149.442 186.513 149.722 186.812C150.012 187.101 150.236 187.47 150.394 187.918C150.553 188.357 150.632 188.87 150.632 189.458C150.632 189.533 150.628 189.607 150.618 189.682C150.618 189.757 150.614 189.817 150.604 189.864H145.382C145.392 190.293 145.494 190.685 145.69 191.04C145.886 191.395 146.148 191.679 146.474 191.894C146.81 192.099 147.184 192.202 147.594 192.202C148.089 192.202 148.5 192.104 148.826 191.908C149.153 191.712 149.424 191.474 149.638 191.194L150.31 191.88C150.021 192.272 149.652 192.585 149.204 192.818C148.756 193.051 148.201 193.168 147.538 193.168ZM147.44 186.84C147.002 186.84 146.633 186.943 146.334 187.148C146.036 187.353 145.807 187.615 145.648 187.932C145.499 188.249 145.42 188.581 145.41 188.926H149.456C149.447 188.581 149.363 188.249 149.204 187.932C149.055 187.615 148.831 187.353 148.532 187.148C148.243 186.943 147.879 186.84 147.44 186.84Z" fill="white" fill-opacity="0.9"/>
<g opacity="0.08">
<rect width="4" height="20" transform="translate(304 178)" fill="black" fill-opacity="0.76"/>
</g>
<path d="M316 188C316 179.163 323.163 172 332 172C340.837 172 348 179.163 348 188C348 196.837 340.837 204 332 204C323.163 204 316 196.837 316 188Z" fill="white" fill-opacity="0.01"/>
<path d="M336.835 182.006L332 186.841L327.166 182.006L326.006 183.166L330.841 188L326.006 192.834L327.166 193.994L332 189.159L336.835 193.994L337.994 192.834L333.16 188L337.994 183.166L336.835 182.006Z" fill="white" fill-opacity="0.9"/>
</g>
</g>
<defs>
<filter id="filter0_ddd_27759_7679" x="66" y="0" width="308" height="76" filterUnits="userSpaceOnUse" color-interpolation-filters="sRGB">
<feFlood flood-opacity="0" result="BackgroundImageFix"/>
<feColorMatrix in="SourceAlpha" type="matrix" values="0 0 0 0 0 0 0 0 0 0 0 0 0 0 0 0 0 0 127 0" result="hardAlpha"/>
<feOffset dy="3"/>
<feGaussianBlur stdDeviation="2"/>
<feColorMatrix type="matrix" values="0 0 0 0 0 0 0 0 0 0 0 0 0 0 0 0 0 0 0.04 0"/>
<feBlend mode="normal" in2="BackgroundImageFix" result="effect1_dropShadow_27759_7679"/>
<feColorMatrix in="SourceAlpha" type="matrix" values="0 0 0 0 0 0 0 0 0 0 0 0 0 0 0 0 0 0 127 0" result="hardAlpha"/>
<feMorphology radius="2" operator="dilate" in="SourceAlpha" result="effect2_dropShadow_27759_7679"/>
<feOffset dy="2"/>
<feGaussianBlur stdDeviation="6"/>
<feColorMatrix type="matrix" values="0 0 0 0 0 0 0 0 0 0 0 0 0 0 0 0 0 0 0.04 0"/>
<feBlend mode="normal" in2="effect1_dropShadow_27759_7679" result="effect2_dropShadow_27759_7679"/>
<feColorMatrix in="SourceAlpha" type="matrix" values="0 0 0 0 0 0 0 0 0 0 0 0 0 0 0 0 0 0 127 0" result="hardAlpha"/>
<feOffset dy="4"/>
<feGaussianBlur stdDeviation="3"/>
<feColorMatrix type="matrix" values="0 0 0 0 0 0 0 0 0 0 0 0 0 0 0 0 0 0 0.02 0"/>
<feBlend mode="normal" in2="effect2_dropShadow_27759_7679" result="effect3_dropShadow_27759_7679"/>
<feBlend mode="normal" in="SourceGraphic" in2="effect3_dropShadow_27759_7679" result="shape"/>
</filter>
<filter id="filter1_ddd_27759_7679" x="454" y="0" width="308" height="76" filterUnits="userSpaceOnUse" color-interpolation-filters="sRGB">
<feFlood flood-opacity="0" result="BackgroundImageFix"/>
<feColorMatrix in="SourceAlpha" type="matrix" values="0 0 0 0 0 0 0 0 0 0 0 0 0 0 0 0 0 0 127 0" result="hardAlpha"/>
<feOffset dy="3"/>
<feGaussianBlur stdDeviation="2"/>
<feColorMatrix type="matrix" values="0 0 0 0 0 0 0 0 0 0 0 0 0 0 0 0 0 0 0.04 0"/>
<feBlend mode="normal" in2="BackgroundImageFix" result="effect1_dropShadow_27759_7679"/>
<feColorMatrix in="SourceAlpha" type="matrix" values="0 0 0 0 0 0 0 0 0 0 0 0 0 0 0 0 0 0 127 0" result="hardAlpha"/>
<feMorphology radius="2" operator="dilate" in="SourceAlpha" result="effect2_dropShadow_27759_7679"/>
<feOffset dy="2"/>
<feGaussianBlur stdDeviation="6"/>
<feColorMatrix type="matrix" values="0 0 0 0 0 0 0 0 0 0 0 0 0 0 0 0 0 0 0.04 0"/>
<feBlend mode="normal" in2="effect1_dropShadow_27759_7679" result="effect2_dropShadow_27759_7679"/>
<feColorMatrix in="SourceAlpha" type="matrix" values="0 0 0 0 0 0 0 0 0 0 0 0 0 0 0 0 0 0 127 0" result="hardAlpha"/>
<feOffset dy="4"/>
<feGaussianBlur stdDeviation="3"/>
<feColorMatrix type="matrix" values="0 0 0 0 0 0 0 0 0 0 0 0 0 0 0 0 0 0 0.02 0"/>
<feBlend mode="normal" in2="effect2_dropShadow_27759_7679" result="effect3_dropShadow_27759_7679"/>
<feBlend mode="normal" in="SourceGraphic" in2="effect3_dropShadow_27759_7679" result="shape"/>
</filter>
<filter id="filter2_ddd_27759_7679" x="66" y="76" width="308" height="76" filterUnits="userSpaceOnUse" color-interpolation-filters="sRGB">
<feFlood flood-opacity="0" result="BackgroundImageFix"/>
<feColorMatrix in="SourceAlpha" type="matrix" values="0 0 0 0 0 0 0 0 0 0 0 0 0 0 0 0 0 0 127 0" result="hardAlpha"/>
<feOffset dy="3"/>
<feGaussianBlur stdDeviation="2"/>
<feColorMatrix type="matrix" values="0 0 0 0 0 0 0 0 0 0 0 0 0 0 0 0 0 0 0.04 0"/>
<feBlend mode="normal" in2="BackgroundImageFix" result="effect1_dropShadow_27759_7679"/>
<feColorMatrix in="SourceAlpha" type="matrix" values="0 0 0 0 0 0 0 0 0 0 0 0 0 0 0 0 0 0 127 0" result="hardAlpha"/>
<feMorphology radius="2" operator="dilate" in="SourceAlpha" result="effect2_dropShadow_27759_7679"/>
<feOffset dy="2"/>
<feGaussianBlur stdDeviation="6"/>
<feColorMatrix type="matrix" values="0 0 0 0 0 0 0 0 0 0 0 0 0 0 0 0 0 0 0.04 0"/>
<feBlend mode="normal" in2="effect1_dropShadow_27759_7679" result="effect2_dropShadow_27759_7679"/>
<feColorMatrix in="SourceAlpha" type="matrix" values="0 0 0 0 0 0 0 0 0 0 0 0 0 0 0 0 0 0 127 0" result="hardAlpha"/>
<feOffset dy="4"/>
<feGaussianBlur stdDeviation="3"/>
<feColorMatrix type="matrix" values="0 0 0 0 0 0 0 0 0 0 0 0 0 0 0 0 0 0 0.02 0"/>
<feBlend mode="normal" in2="effect2_dropShadow_27759_7679" result="effect3_dropShadow_27759_7679"/>
<feBlend mode="normal" in="SourceGraphic" in2="effect3_dropShadow_27759_7679" result="shape"/>
</filter>
<filter id="filter3_ddd_27759_7679" x="454" y="76" width="308" height="76" filterUnits="userSpaceOnUse" color-interpolation-filters="sRGB">
<feFlood flood-opacity="0" result="BackgroundImageFix"/>
<feColorMatrix in="SourceAlpha" type="matrix" values="0 0 0 0 0 0 0 0 0 0 0 0 0 0 0 0 0 0 127 0" result="hardAlpha"/>
<feOffset dy="3"/>
<feGaussianBlur stdDeviation="2"/>
<feColorMatrix type="matrix" values="0 0 0 0 0 0 0 0 0 0 0 0 0 0 0 0 0 0 0.04 0"/>
<feBlend mode="normal" in2="BackgroundImageFix" result="effect1_dropShadow_27759_7679"/>
<feColorMatrix in="SourceAlpha" type="matrix" values="0 0 0 0 0 0 0 0 0 0 0 0 0 0 0 0 0 0 127 0" result="hardAlpha"/>
<feMorphology radius="2" operator="dilate" in="SourceAlpha" result="effect2_dropShadow_27759_7679"/>
<feOffset dy="2"/>
<feGaussianBlur stdDeviation="6"/>
<feColorMatrix type="matrix" values="0 0 0 0 0 0 0 0 0 0 0 0 0 0 0 0 0 0 0.04 0"/>
<feBlend mode="normal" in2="effect1_dropShadow_27759_7679" result="effect2_dropShadow_27759_7679"/>
<feColorMatrix in="SourceAlpha" type="matrix" values="0 0 0 0 0 0 0 0 0 0 0 0 0 0 0 0 0 0 127 0" result="hardAlpha"/>
<feOffset dy="4"/>
<feGaussianBlur stdDeviation="3"/>
<feColorMatrix type="matrix" values="0 0 0 0 0 0 0 0 0 0 0 0 0 0 0 0 0 0 0.02 0"/>
<feBlend mode="normal" in2="effect2_dropShadow_27759_7679" result="effect3_dropShadow_27759_7679"/>
<feBlend mode="normal" in="SourceGraphic" in2="effect3_dropShadow_27759_7679" result="shape"/>
</filter>
<filter id="filter4_ddd_27759_7679" x="66" y="152" width="308" height="76" filterUnits="userSpaceOnUse" color-interpolation-filters="sRGB">
<feFlood flood-opacity="0" result="BackgroundImageFix"/>
<feColorMatrix in="SourceAlpha" type="matrix" values="0 0 0 0 0 0 0 0 0 0 0 0 0 0 0 0 0 0 127 0" result="hardAlpha"/>
<feOffset dy="3"/>
<feGaussianBlur stdDeviation="2"/>
<feColorMatrix type="matrix" values="0 0 0 0 0 0 0 0 0 0 0 0 0 0 0 0 0 0 0.04 0"/>
<feBlend mode="normal" in2="BackgroundImageFix" result="effect1_dropShadow_27759_7679"/>
<feColorMatrix in="SourceAlpha" type="matrix" values="0 0 0 0 0 0 0 0 0 0 0 0 0 0 0 0 0 0 127 0" result="hardAlpha"/>
<feMorphology radius="2" operator="dilate" in="SourceAlpha" result="effect2_dropShadow_27759_7679"/>
<feOffset dy="2"/>
<feGaussianBlur stdDeviation="6"/>
<feColorMatrix type="matrix" values="0 0 0 0 0 0 0 0 0 0 0 0 0 0 0 0 0 0 0.04 0"/>
<feBlend mode="normal" in2="effect1_dropShadow_27759_7679" result="effect2_dropShadow_27759_7679"/>
<feColorMatrix in="SourceAlpha" type="matrix" values="0 0 0 0 0 0 0 0 0 0 0 0 0 0 0 0 0 0 127 0" result="hardAlpha"/>
<feOffset dy="4"/>
<feGaussianBlur stdDeviation="3"/>
<feColorMatrix type="matrix" values="0 0 0 0 0 0 0 0 0 0 0 0 0 0 0 0 0 0 0.02 0"/>
<feBlend mode="normal" in2="effect2_dropShadow_27759_7679" result="effect3_dropShadow_27759_7679"/>
<feBlend mode="normal" in="SourceGraphic" in2="effect3_dropShadow_27759_7679" result="shape"/>
</filter>
<clipPath id="clip0_27759_7679">
<path d="M80 20C80 15.5817 83.5817 12 88 12H352C356.418 12 360 15.5817 360 20V52C360 56.4183 356.418 60 352 60H88C83.5817 60 80 56.4183 80 52V20Z" fill="white"/>
</clipPath>
<clipPath id="clip1_27759_7679">
<rect width="17.5" height="17.5" fill="white" transform="translate(97.25 27.25)"/>
</clipPath>
<clipPath id="clip2_27759_7679">
<path d="M468 20C468 15.5817 471.582 12 476 12H740C744.418 12 748 15.5817 748 20V52C748 56.4183 744.418 60 740 60H476C471.582 60 468 56.4183 468 52V20Z" fill="white"/>
</clipPath>
<clipPath id="clip3_27759_7679">
<rect width="17.5" height="17.5" fill="white" transform="translate(485.25 27.25)"/>
</clipPath>
<clipPath id="clip4_27759_7679">
<path d="M80 96C80 91.5817 83.5817 88 88 88H352C356.418 88 360 91.5817 360 96V128C360 132.418 356.418 136 352 136H88C83.5817 136 80 132.418 80 128V96Z" fill="white"/>
</clipPath>
<clipPath id="clip5_27759_7679">
<rect width="17.5" height="17.5" fill="white" transform="translate(97.25 103.25)"/>
</clipPath>
<clipPath id="clip6_27759_7679">
<path d="M468 96C468 91.5817 471.582 88 476 88H740C744.418 88 748 91.5817 748 96V128C748 132.418 744.418 136 740 136H476C471.582 136 468 132.418 468 128V96Z" fill="white"/>
</clipPath>
<clipPath id="clip7_27759_7679">
<rect width="17.5" height="17.5" fill="white" transform="translate(485.25 103.25)"/>
</clipPath>
<clipPath id="clip8_27759_7679">
<path d="M80 172C80 167.582 83.5817 164 88 164H352C356.418 164 360 167.582 360 172V204C360 208.418 356.418 212 352 212H88C83.5817 212 80 208.418 80 204V172Z" fill="white"/>
</clipPath>
</defs>
</svg>
