<svg width="300" height="70" viewBox="0 0 300 70" fill="none" xmlns="http://www.w3.org/2000/svg">
<g filter="url(#filter0_ddd_27759_7681)">
<g clip-path="url(#clip0_27759_7681)">
<path d="M10 20C10 12.4575 10 8.68629 12.3431 6.34315C14.6863 4 18.4575 4 26 4H274C281.542 4 285.314 4 287.657 6.34315C290 8.68629 290 12.4575 290 20V36C290 43.5425 290 47.3137 287.657 49.6569C285.314 52 281.542 52 274 52H26C18.4575 52 14.6863 52 12.3431 49.6569C10 47.3137 10 43.5425 10 36V20Z" fill="#2B2A28"/>
<path d="M40.3094 26.0859H31.7672L32.5875 27.7266H39.4891L40.3094 26.0859Z" fill="#F36805"/>
<path d="M40.1016 21.7109V20.3438H38.4609V21.7109H33.5391V20.3438H31.8984V21.7109H28.6172V35.3828H39.2812C40.3691 35.3828 41.4123 34.9507 42.1815 34.1815C42.9507 33.4123 43.3828 32.3691 43.3828 31.2812V21.7109H40.1016ZM41.7422 31.2812C41.7422 31.9339 41.4829 32.5599 41.0214 33.0214C40.5599 33.4829 39.9339 33.7422 39.2812 33.7422H30.2578V23.3516H31.8984V24.7188H33.5391V23.3516H38.4609V24.7188H40.1016V23.3516H41.7422V31.2812Z" fill="#F36805"/>
<path d="M55.288 33V23.9H56.884L60.006 31.656H60.09L63.212 23.9H64.836V33H63.716V25.482H63.632L60.636 33H59.46L56.464 25.482H56.38V33H55.288ZM70.019 33.168C69.3563 33.168 68.7776 33.0233 68.283 32.734C67.7976 32.4447 67.4196 32.0293 67.149 31.488C66.8783 30.9373 66.743 30.2887 66.743 29.542C66.743 28.954 66.8176 28.436 66.967 27.988C67.1256 27.5307 67.345 27.1527 67.625 26.854C67.9143 26.546 68.2503 26.3127 68.633 26.154C69.025 25.9953 69.4543 25.916 69.921 25.916C70.3876 25.916 70.8123 25.9907 71.195 26.14C71.587 26.2893 71.923 26.5133 72.203 26.812C72.4923 27.1013 72.7163 27.47 72.875 27.918C73.0336 28.3567 73.113 28.87 73.113 29.458C73.113 29.5327 73.1083 29.6073 73.099 29.682C73.099 29.7567 73.0943 29.8173 73.085 29.864H67.863C67.8723 30.2933 67.975 30.6853 68.171 31.04C68.367 31.3947 68.6283 31.6793 68.955 31.894C69.291 32.0993 69.6643 32.202 70.075 32.202C70.5696 32.202 70.9803 32.104 71.307 31.908C71.6336 31.712 71.9043 31.474 72.119 31.194L72.791 31.88C72.5016 32.272 72.133 32.5847 71.685 32.818C71.237 33.0513 70.6816 33.168 70.019 33.168ZM69.921 26.84C69.4823 26.84 69.1136 26.9427 68.815 27.148C68.5163 27.3533 68.2876 27.6147 68.129 27.932C67.9796 28.2493 67.9003 28.5807 67.891 28.926H71.937C71.9276 28.5807 71.8436 28.2493 71.685 27.932C71.5356 27.6147 71.3116 27.3533 71.013 27.148C70.7236 26.9427 70.3596 26.84 69.921 26.84ZM76.7945 33.168C76.1972 33.168 75.6838 33.0653 75.2545 32.86C74.8252 32.6547 74.4892 32.3887 74.2465 32.062L74.9885 31.362C75.2032 31.614 75.4505 31.8193 75.7305 31.978C76.0198 32.1367 76.3792 32.216 76.8085 32.216C77.1912 32.216 77.5272 32.1367 77.8165 31.978C78.1058 31.81 78.2505 31.5533 78.2505 31.208C78.2505 30.9373 78.1665 30.7273 77.9985 30.578C77.8398 30.4193 77.6298 30.2933 77.3685 30.2C77.1072 30.0973 76.8272 30.004 76.5285 29.92C76.1832 29.8173 75.8565 29.6913 75.5485 29.542C75.2498 29.3833 75.0025 29.178 74.8065 28.926C74.6198 28.6647 74.5265 28.3333 74.5265 27.932C74.5265 27.4933 74.6292 27.1247 74.8345 26.826C75.0492 26.5273 75.3338 26.3033 75.6885 26.154C76.0525 25.9953 76.4585 25.916 76.9065 25.916C77.4012 25.916 77.8632 26.0093 78.2925 26.196C78.7218 26.3733 79.0672 26.6533 79.3285 27.036L78.6005 27.708C78.3952 27.4653 78.1525 27.2647 77.8725 27.106C77.6018 26.9473 77.2798 26.868 76.9065 26.868C76.5892 26.868 76.2952 26.9473 76.0245 27.106C75.7538 27.2553 75.6185 27.498 75.6185 27.834C75.6185 28.1047 75.6978 28.3193 75.8565 28.478C76.0245 28.6273 76.2392 28.7487 76.5005 28.842C76.7618 28.9353 77.0418 29.0287 77.3405 29.122C77.6858 29.2247 78.0078 29.3553 78.3065 29.514C78.6145 29.6633 78.8618 29.864 79.0485 30.116C79.2445 30.368 79.3425 30.6993 79.3425 31.11C79.3425 31.586 79.2258 31.978 78.9925 32.286C78.7592 32.5847 78.4465 32.8087 78.0545 32.958C77.6718 33.098 77.2518 33.168 76.7945 33.168ZM83.1519 33.168C82.5546 33.168 82.0413 33.0653 81.6119 32.86C81.1826 32.6547 80.8466 32.3887 80.6039 32.062L81.3459 31.362C81.5606 31.614 81.8079 31.8193 82.0879 31.978C82.3773 32.1367 82.7366 32.216 83.1659 32.216C83.5486 32.216 83.8846 32.1367 84.1739 31.978C84.4633 31.81 84.6079 31.5533 84.6079 31.208C84.6079 30.9373 84.5239 30.7273 84.3559 30.578C84.1973 30.4193 83.9873 30.2933 83.7259 30.2C83.4646 30.0973 83.1846 30.004 82.8859 29.92C82.5406 29.8173 82.2139 29.6913 81.9059 29.542C81.6073 29.3833 81.3599 29.178 81.1639 28.926C80.9773 28.6647 80.8839 28.3333 80.8839 27.932C80.8839 27.4933 80.9866 27.1247 81.1919 26.826C81.4066 26.5273 81.6913 26.3033 82.0459 26.154C82.4099 25.9953 82.8159 25.916 83.2639 25.916C83.7586 25.916 84.2206 26.0093 84.6499 26.196C85.0793 26.3733 85.4246 26.6533 85.6859 27.036L84.9579 27.708C84.7526 27.4653 84.5099 27.2647 84.2299 27.106C83.9593 26.9473 83.6373 26.868 83.2639 26.868C82.9466 26.868 82.6526 26.9473 82.3819 27.106C82.1113 27.2553 81.9759 27.498 81.9759 27.834C81.9759 28.1047 82.0553 28.3193 82.2139 28.478C82.3819 28.6273 82.5966 28.7487 82.8579 28.842C83.1193 28.9353 83.3993 29.0287 83.6979 29.122C84.0433 29.2247 84.3653 29.3553 84.6639 29.514C84.9719 29.6633 85.2193 29.864 85.4059 30.116C85.6019 30.368 85.6999 30.6993 85.6999 31.11C85.6999 31.586 85.5833 31.978 85.3499 32.286C85.1166 32.5847 84.8039 32.8087 84.4119 32.958C84.0293 33.098 83.6093 33.168 83.1519 33.168ZM89.2414 33.168C88.8214 33.168 88.4434 33.0793 88.1074 32.902C87.7807 32.7247 87.5241 32.4773 87.3374 32.16C87.1507 31.8427 87.0574 31.4787 87.0574 31.068C87.0574 30.6667 87.1507 30.3213 87.3374 30.032C87.5334 29.7333 87.8181 29.4953 88.1914 29.318C88.5647 29.1407 89.0127 29.038 89.5354 29.01L91.3554 28.898V28.408C91.3554 28.0533 91.2947 27.7687 91.1734 27.554C91.0614 27.33 90.8934 27.1667 90.6694 27.064C90.4547 26.952 90.1887 26.896 89.8714 26.896C89.4701 26.896 89.1247 26.9707 88.8354 27.12C88.5461 27.2693 88.3221 27.4327 88.1634 27.61L87.4914 26.938C87.7341 26.6393 88.0654 26.3967 88.4854 26.21C88.9054 26.014 89.3767 25.916 89.8994 25.916C90.5341 25.916 91.0381 26.0233 91.4114 26.238C91.7847 26.4527 92.0507 26.742 92.2094 27.106C92.3774 27.4607 92.4614 27.8573 92.4614 28.296V33H91.4114V31.824H91.3274C91.1501 32.2347 90.8887 32.5613 90.5434 32.804C90.1981 33.0467 89.7641 33.168 89.2414 33.168ZM89.4094 32.216C89.9881 32.216 90.4547 32.048 90.8094 31.712C91.1734 31.3667 91.3554 30.9093 91.3554 30.34V29.738L89.5914 29.864C89.1341 29.9013 88.7841 30.018 88.5414 30.214C88.3081 30.41 88.1914 30.6853 88.1914 31.04C88.1914 31.3947 88.3034 31.6793 88.5274 31.894C88.7607 32.1087 89.0547 32.216 89.4094 32.216ZM97.4734 35.758C96.8761 35.758 96.3581 35.6507 95.9194 35.436C95.4807 35.2307 95.1307 34.974 94.8694 34.666L95.6114 33.952C95.8074 34.1853 96.0641 34.3767 96.3814 34.526C96.6987 34.6753 97.0441 34.75 97.4174 34.75C97.8187 34.75 98.1594 34.6847 98.4394 34.554C98.7287 34.4327 98.9481 34.2273 99.0974 33.938C99.2561 33.658 99.3354 33.2753 99.3354 32.79V31.446H99.2514C99.1114 31.9033 98.8361 32.2673 98.4254 32.538C98.0241 32.7993 97.5854 32.93 97.1094 32.93C96.5307 32.93 96.0174 32.79 95.5694 32.51C95.1214 32.23 94.7714 31.8287 94.5194 31.306C94.2674 30.774 94.1414 30.1393 94.1414 29.402C94.1414 28.6833 94.2674 28.0627 94.5194 27.54C94.7714 27.0173 95.1214 26.616 95.5694 26.336C96.0174 26.056 96.5307 25.916 97.1094 25.916C97.6227 25.916 98.0801 26.0513 98.4814 26.322C98.8921 26.5833 99.1674 26.9473 99.3074 27.414H99.3914V26.084H100.455V32.93C100.455 33.49 100.339 33.98 100.105 34.4C99.8814 34.8293 99.5454 35.1607 99.0974 35.394C98.6587 35.6367 98.1174 35.758 97.4734 35.758ZM97.3334 31.922C97.7441 31.922 98.0987 31.824 98.3974 31.628C98.6961 31.432 98.9247 31.1473 99.0834 30.774C99.2514 30.4007 99.3354 29.948 99.3354 29.416C99.3354 28.8747 99.2514 28.422 99.0834 28.058C98.9247 27.6847 98.6961 27.4047 98.3974 27.218C98.0987 27.022 97.7441 26.924 97.3334 26.924C96.9227 26.924 96.5634 27.022 96.2554 27.218C95.9474 27.4047 95.7094 27.6847 95.5414 28.058C95.3734 28.422 95.2894 28.8747 95.2894 29.416C95.2894 29.948 95.3734 30.4007 95.5414 30.774C95.7094 31.1473 95.9474 31.432 96.2554 31.628C96.5634 31.824 96.9227 31.922 97.3334 31.922ZM105.538 33.168C104.876 33.168 104.297 33.0233 103.802 32.734C103.317 32.4447 102.939 32.0293 102.668 31.488C102.398 30.9373 102.262 30.2887 102.262 29.542C102.262 28.954 102.337 28.436 102.486 27.988C102.645 27.5307 102.864 27.1527 103.144 26.854C103.434 26.546 103.77 26.3127 104.152 26.154C104.544 25.9953 104.974 25.916 105.44 25.916C105.907 25.916 106.332 25.9907 106.714 26.14C107.106 26.2893 107.442 26.5133 107.722 26.812C108.012 27.1013 108.236 27.47 108.394 27.918C108.553 28.3567 108.632 28.87 108.632 29.458C108.632 29.5327 108.628 29.6073 108.618 29.682C108.618 29.7567 108.614 29.8173 108.604 29.864H103.382C103.392 30.2933 103.494 30.6853 103.69 31.04C103.886 31.3947 104.148 31.6793 104.474 31.894C104.81 32.0993 105.184 32.202 105.594 32.202C106.089 32.202 106.5 32.104 106.826 31.908C107.153 31.712 107.424 31.474 107.638 31.194L108.31 31.88C108.021 32.272 107.652 32.5847 107.204 32.818C106.756 33.0513 106.201 33.168 105.538 33.168ZM105.44 26.84C105.002 26.84 104.633 26.9427 104.334 27.148C104.036 27.3533 103.807 27.6147 103.648 27.932C103.499 28.2493 103.42 28.5807 103.41 28.926H107.456C107.447 28.5807 107.363 28.2493 107.204 27.932C107.055 27.6147 106.831 27.3533 106.532 27.148C106.243 26.9427 105.879 26.84 105.44 26.84Z" fill="white" fill-opacity="0.9"/>
</g>
</g>
<defs>
<filter id="filter0_ddd_27759_7681" x="0" y="0" width="300" height="70" filterUnits="userSpaceOnUse" color-interpolation-filters="sRGB">
<feFlood flood-opacity="0" result="BackgroundImageFix"/>
<feColorMatrix in="SourceAlpha" type="matrix" values="0 0 0 0 0 0 0 0 0 0 0 0 0 0 0 0 0 0 127 0" result="hardAlpha"/>
<feOffset dy="4"/>
<feGaussianBlur stdDeviation="3"/>
<feColorMatrix type="matrix" values="0 0 0 0 0 0 0 0 0 0 0 0 0 0 0 0 0 0 0.04 0"/>
<feBlend mode="normal" in2="BackgroundImageFix" result="effect1_dropShadow_27759_7681"/>
<feColorMatrix in="SourceAlpha" type="matrix" values="0 0 0 0 0 0 0 0 0 0 0 0 0 0 0 0 0 0 127 0" result="hardAlpha"/>
<feMorphology radius="2" operator="erode" in="SourceAlpha" result="effect2_dropShadow_27759_7681"/>
<feOffset dy="8"/>
<feGaussianBlur stdDeviation="6"/>
<feColorMatrix type="matrix" values="0 0 0 0 0 0 0 0 0 0 0 0 0 0 0 0 0 0 0.06 0"/>
<feBlend mode="normal" in2="effect1_dropShadow_27759_7681" result="effect2_dropShadow_27759_7681"/>
<feColorMatrix in="SourceAlpha" type="matrix" values="0 0 0 0 0 0 0 0 0 0 0 0 0 0 0 0 0 0 127 0" result="hardAlpha"/>
<feOffset dy="2"/>
<feGaussianBlur stdDeviation="3"/>
<feColorMatrix type="matrix" values="0 0 0 0 0 0 0 0 0 0 0 0 0 0 0 0 0 0 0.04 0"/>
<feBlend mode="normal" in2="effect2_dropShadow_27759_7681" result="effect3_dropShadow_27759_7681"/>
<feBlend mode="normal" in="SourceGraphic" in2="effect3_dropShadow_27759_7681" result="shape"/>
</filter>
<clipPath id="clip0_27759_7681">
<path d="M10 20C10 12.4575 10 8.68629 12.3431 6.34315C14.6863 4 18.4575 4 26 4H274C281.542 4 285.314 4 287.657 6.34315C290 8.68629 290 12.4575 290 20V36C290 43.5425 290 47.3137 287.657 49.6569C285.314 52 281.542 52 274 52H26C18.4575 52 14.6863 52 12.3431 49.6569C10 47.3137 10 43.5425 10 36V20Z" fill="white"/>
</clipPath>
</defs>
</svg>
