<svg width="308" height="148" viewBox="0 0 308 148" fill="none" xmlns="http://www.w3.org/2000/svg">
<g filter="url(#filter0_ddd_27759_7682)">
<g clip-path="url(#clip0_27759_7682)">
<path d="M14 20C14 15.5817 17.5817 12 22 12H286C290.418 12 294 15.5817 294 20V52C294 56.4183 290.418 60 286 60H22C17.5817 60 14 56.4183 14 52V20Z" fill="#2B2A28"/>
<g clip-path="url(#clip1_27759_7682)">
<path d="M40 27.5234C38.3235 27.5234 36.6846 28.0206 35.2907 28.952C33.8967 29.8834 32.8103 31.2073 32.1687 32.7562C31.5271 34.305 31.3592 36.0094 31.6863 37.6537C32.0134 39.298 32.8207 40.8084 34.0062 41.9938C35.1916 43.1793 36.702 43.9866 38.3463 44.3137C39.9906 44.6408 41.695 44.4729 43.2438 43.8313C44.7927 43.1898 46.1166 42.1033 47.048 40.7093C47.9794 39.3154 48.4766 37.6765 48.4766 36C48.4737 33.7528 47.5797 31.5984 45.9906 30.0094C44.4016 28.4203 42.2472 27.5263 40 27.5234ZM40 42.8359C38.648 42.8359 37.3263 42.435 36.2022 41.6839C35.078 40.9327 34.2018 39.8651 33.6844 38.616C33.167 37.3669 33.0317 35.9924 33.2954 34.6664C33.5592 33.3403 34.2102 32.1223 35.1663 31.1663C36.1223 30.2102 37.3403 29.5592 38.6664 29.2954C39.9924 29.0316 41.3669 29.167 42.616 29.6844C43.8651 30.2018 44.9327 31.078 45.6839 32.2022C46.435 33.3263 46.8359 34.648 46.8359 36C46.8359 36.8977 46.6591 37.7866 46.3156 38.616C45.972 39.4454 45.4685 40.199 44.8337 40.8337C44.199 41.4685 43.4454 41.972 42.616 42.3156C41.7866 42.6591 40.8977 42.8359 40 42.8359ZM39.1797 35.1141H40.8203V39.2812H39.1797V35.1141ZM41.0938 32.7188C41.0938 32.9351 41.0296 33.1465 40.9094 33.3264C40.7892 33.5063 40.6184 33.6465 40.4186 33.7292C40.2187 33.812 39.9988 33.8337 39.7866 33.7915C39.5745 33.7493 39.3796 33.6451 39.2266 33.4921C39.0736 33.3392 38.9695 33.1443 38.9273 32.9321C38.8851 32.72 38.9067 32.5 38.9895 32.3002C39.0723 32.1003 39.2125 31.9295 39.3923 31.8093C39.5722 31.6891 39.7837 31.625 40 31.625C40.2901 31.625 40.5683 31.7402 40.7734 31.9454C40.9785 32.1505 41.0938 32.4287 41.0938 32.7188Z" fill="#9EAEF0"/>
</g>
<path d="M59.288 41V31.9H60.884L64.006 39.656H64.09L67.212 31.9H68.836V41H67.716V33.482H67.632L64.636 41H63.46L60.464 33.482H60.38V41H59.288ZM74.019 41.168C73.3563 41.168 72.7776 41.0233 72.283 40.734C71.7976 40.4447 71.4196 40.0293 71.149 39.488C70.8783 38.9373 70.743 38.2887 70.743 37.542C70.743 36.954 70.8176 36.436 70.967 35.988C71.1256 35.5307 71.345 35.1527 71.625 34.854C71.9143 34.546 72.2503 34.3127 72.633 34.154C73.025 33.9953 73.4543 33.916 73.921 33.916C74.3876 33.916 74.8123 33.9907 75.195 34.14C75.587 34.2893 75.923 34.5133 76.203 34.812C76.4923 35.1013 76.7163 35.47 76.875 35.918C77.0336 36.3567 77.113 36.87 77.113 37.458C77.113 37.5327 77.1083 37.6073 77.099 37.682C77.099 37.7567 77.0943 37.8173 77.085 37.864H71.863C71.8723 38.2933 71.975 38.6853 72.171 39.04C72.367 39.3947 72.6283 39.6793 72.955 39.894C73.291 40.0993 73.6643 40.202 74.075 40.202C74.5696 40.202 74.9803 40.104 75.307 39.908C75.6336 39.712 75.9043 39.474 76.119 39.194L76.791 39.88C76.5016 40.272 76.133 40.5847 75.685 40.818C75.237 41.0513 74.6816 41.168 74.019 41.168ZM73.921 34.84C73.4823 34.84 73.1136 34.9427 72.815 35.148C72.5163 35.3533 72.2876 35.6147 72.129 35.932C71.9796 36.2493 71.9003 36.5807 71.891 36.926H75.937C75.9276 36.5807 75.8436 36.2493 75.685 35.932C75.5356 35.6147 75.3116 35.3533 75.013 35.148C74.7236 34.9427 74.3596 34.84 73.921 34.84ZM80.7945 41.168C80.1972 41.168 79.6838 41.0653 79.2545 40.86C78.8252 40.6547 78.4892 40.3887 78.2465 40.062L78.9885 39.362C79.2032 39.614 79.4505 39.8193 79.7305 39.978C80.0198 40.1367 80.3792 40.216 80.8085 40.216C81.1912 40.216 81.5272 40.1367 81.8165 39.978C82.1058 39.81 82.2505 39.5533 82.2505 39.208C82.2505 38.9373 82.1665 38.7273 81.9985 38.578C81.8398 38.4193 81.6298 38.2933 81.3685 38.2C81.1072 38.0973 80.8272 38.004 80.5285 37.92C80.1832 37.8173 79.8565 37.6913 79.5485 37.542C79.2498 37.3833 79.0025 37.178 78.8065 36.926C78.6198 36.6647 78.5265 36.3333 78.5265 35.932C78.5265 35.4933 78.6292 35.1247 78.8345 34.826C79.0492 34.5273 79.3338 34.3033 79.6885 34.154C80.0525 33.9953 80.4585 33.916 80.9065 33.916C81.4012 33.916 81.8632 34.0093 82.2925 34.196C82.7218 34.3733 83.0672 34.6533 83.3285 35.036L82.6005 35.708C82.3952 35.4653 82.1525 35.2647 81.8725 35.106C81.6018 34.9473 81.2798 34.868 80.9065 34.868C80.5892 34.868 80.2952 34.9473 80.0245 35.106C79.7538 35.2553 79.6185 35.498 79.6185 35.834C79.6185 36.1047 79.6978 36.3193 79.8565 36.478C80.0245 36.6273 80.2392 36.7487 80.5005 36.842C80.7618 36.9353 81.0418 37.0287 81.3405 37.122C81.6858 37.2247 82.0078 37.3553 82.3065 37.514C82.6145 37.6633 82.8618 37.864 83.0485 38.116C83.2445 38.368 83.3425 38.6993 83.3425 39.11C83.3425 39.586 83.2258 39.978 82.9925 40.286C82.7592 40.5847 82.4465 40.8087 82.0545 40.958C81.6718 41.098 81.2518 41.168 80.7945 41.168ZM87.1519 41.168C86.5546 41.168 86.0413 41.0653 85.6119 40.86C85.1826 40.6547 84.8466 40.3887 84.6039 40.062L85.3459 39.362C85.5606 39.614 85.8079 39.8193 86.0879 39.978C86.3773 40.1367 86.7366 40.216 87.1659 40.216C87.5486 40.216 87.8846 40.1367 88.1739 39.978C88.4633 39.81 88.6079 39.5533 88.6079 39.208C88.6079 38.9373 88.5239 38.7273 88.3559 38.578C88.1973 38.4193 87.9873 38.2933 87.7259 38.2C87.4646 38.0973 87.1846 38.004 86.8859 37.92C86.5406 37.8173 86.2139 37.6913 85.9059 37.542C85.6073 37.3833 85.3599 37.178 85.1639 36.926C84.9773 36.6647 84.8839 36.3333 84.8839 35.932C84.8839 35.4933 84.9866 35.1247 85.1919 34.826C85.4066 34.5273 85.6913 34.3033 86.0459 34.154C86.4099 33.9953 86.8159 33.916 87.2639 33.916C87.7586 33.916 88.2206 34.0093 88.6499 34.196C89.0793 34.3733 89.4246 34.6533 89.6859 35.036L88.9579 35.708C88.7526 35.4653 88.5099 35.2647 88.2299 35.106C87.9593 34.9473 87.6373 34.868 87.2639 34.868C86.9466 34.868 86.6526 34.9473 86.3819 35.106C86.1113 35.2553 85.9759 35.498 85.9759 35.834C85.9759 36.1047 86.0553 36.3193 86.2139 36.478C86.3819 36.6273 86.5966 36.7487 86.8579 36.842C87.1193 36.9353 87.3993 37.0287 87.6979 37.122C88.0433 37.2247 88.3653 37.3553 88.6639 37.514C88.9719 37.6633 89.2193 37.864 89.4059 38.116C89.6019 38.368 89.6999 38.6993 89.6999 39.11C89.6999 39.586 89.5833 39.978 89.3499 40.286C89.1166 40.5847 88.8039 40.8087 88.4119 40.958C88.0293 41.098 87.6093 41.168 87.1519 41.168ZM93.2414 41.168C92.8214 41.168 92.4434 41.0793 92.1074 40.902C91.7807 40.7247 91.5241 40.4773 91.3374 40.16C91.1507 39.8427 91.0574 39.4787 91.0574 39.068C91.0574 38.6667 91.1507 38.3213 91.3374 38.032C91.5334 37.7333 91.8181 37.4953 92.1914 37.318C92.5647 37.1407 93.0127 37.038 93.5354 37.01L95.3554 36.898V36.408C95.3554 36.0533 95.2947 35.7687 95.1734 35.554C95.0614 35.33 94.8934 35.1667 94.6694 35.064C94.4547 34.952 94.1887 34.896 93.8714 34.896C93.4701 34.896 93.1247 34.9707 92.8354 35.12C92.5461 35.2693 92.3221 35.4327 92.1634 35.61L91.4914 34.938C91.7341 34.6393 92.0654 34.3967 92.4854 34.21C92.9054 34.014 93.3767 33.916 93.8994 33.916C94.5341 33.916 95.0381 34.0233 95.4114 34.238C95.7847 34.4527 96.0507 34.742 96.2094 35.106C96.3774 35.4607 96.4614 35.8573 96.4614 36.296V41H95.4114V39.824H95.3274C95.1501 40.2347 94.8887 40.5613 94.5434 40.804C94.1981 41.0467 93.7641 41.168 93.2414 41.168ZM93.4094 40.216C93.9881 40.216 94.4547 40.048 94.8094 39.712C95.1734 39.3667 95.3554 38.9093 95.3554 38.34V37.738L93.5914 37.864C93.1341 37.9013 92.7841 38.018 92.5414 38.214C92.3081 38.41 92.1914 38.6853 92.1914 39.04C92.1914 39.3947 92.3034 39.6793 92.5274 39.894C92.7607 40.1087 93.0547 40.216 93.4094 40.216ZM101.473 43.758C100.876 43.758 100.358 43.6507 99.9194 43.436C99.4807 43.2307 99.1307 42.974 98.8694 42.666L99.6114 41.952C99.8074 42.1853 100.064 42.3767 100.381 42.526C100.699 42.6753 101.044 42.75 101.417 42.75C101.819 42.75 102.159 42.6847 102.439 42.554C102.729 42.4327 102.948 42.2273 103.097 41.938C103.256 41.658 103.335 41.2753 103.335 40.79V39.446H103.251C103.111 39.9033 102.836 40.2673 102.425 40.538C102.024 40.7993 101.585 40.93 101.109 40.93C100.531 40.93 100.017 40.79 99.5694 40.51C99.1214 40.23 98.7714 39.8287 98.5194 39.306C98.2674 38.774 98.1414 38.1393 98.1414 37.402C98.1414 36.6833 98.2674 36.0627 98.5194 35.54C98.7714 35.0173 99.1214 34.616 99.5694 34.336C100.017 34.056 100.531 33.916 101.109 33.916C101.623 33.916 102.08 34.0513 102.481 34.322C102.892 34.5833 103.167 34.9473 103.307 35.414H103.391V34.084H104.455V40.93C104.455 41.49 104.339 41.98 104.105 42.4C103.881 42.8293 103.545 43.1607 103.097 43.394C102.659 43.6367 102.117 43.758 101.473 43.758ZM101.333 39.922C101.744 39.922 102.099 39.824 102.397 39.628C102.696 39.432 102.925 39.1473 103.083 38.774C103.251 38.4007 103.335 37.948 103.335 37.416C103.335 36.8747 103.251 36.422 103.083 36.058C102.925 35.6847 102.696 35.4047 102.397 35.218C102.099 35.022 101.744 34.924 101.333 34.924C100.923 34.924 100.563 35.022 100.255 35.218C99.9474 35.4047 99.7094 35.6847 99.5414 36.058C99.3734 36.422 99.2894 36.8747 99.2894 37.416C99.2894 37.948 99.3734 38.4007 99.5414 38.774C99.7094 39.1473 99.9474 39.432 100.255 39.628C100.563 39.824 100.923 39.922 101.333 39.922ZM109.538 41.168C108.876 41.168 108.297 41.0233 107.802 40.734C107.317 40.4447 106.939 40.0293 106.668 39.488C106.398 38.9373 106.262 38.2887 106.262 37.542C106.262 36.954 106.337 36.436 106.486 35.988C106.645 35.5307 106.864 35.1527 107.144 34.854C107.434 34.546 107.77 34.3127 108.152 34.154C108.544 33.9953 108.974 33.916 109.44 33.916C109.907 33.916 110.332 33.9907 110.714 34.14C111.106 34.2893 111.442 34.5133 111.722 34.812C112.012 35.1013 112.236 35.47 112.394 35.918C112.553 36.3567 112.632 36.87 112.632 37.458C112.632 37.5327 112.628 37.6073 112.618 37.682C112.618 37.7567 112.614 37.8173 112.604 37.864H107.382C107.392 38.2933 107.494 38.6853 107.69 39.04C107.886 39.3947 108.148 39.6793 108.474 39.894C108.81 40.0993 109.184 40.202 109.594 40.202C110.089 40.202 110.5 40.104 110.826 39.908C111.153 39.712 111.424 39.474 111.638 39.194L112.31 39.88C112.021 40.272 111.652 40.5847 111.204 40.818C110.756 41.0513 110.201 41.168 109.538 41.168ZM109.44 34.84C109.002 34.84 108.633 34.9427 108.334 35.148C108.036 35.3533 107.807 35.6147 107.648 35.932C107.499 36.2493 107.42 36.5807 107.41 36.926H111.456C111.447 36.5807 111.363 36.2493 111.204 35.932C111.055 35.6147 110.831 35.3533 110.532 35.148C110.243 34.9427 109.879 34.84 109.44 34.84Z" fill="white" fill-opacity="0.9"/>
<g clip-path="url(#clip2_27759_7682)">
<path d="M232 36C232 27.1634 239.163 20 248 20H266C274.837 20 282 27.1634 282 36C282 44.8366 274.837 52 266 52H248C239.163 52 232 44.8366 232 36Z" fill="white" fill-opacity="0.01"/>
<path d="M241.157 41V31.9H243.033V39.474H246.659V41H241.157ZM249.808 41.168C249.397 41.168 249.019 41.084 248.674 40.916C248.329 40.7387 248.053 40.496 247.848 40.188C247.652 39.8707 247.554 39.4927 247.554 39.054C247.554 38.6433 247.652 38.2887 247.848 37.99C248.044 37.6913 248.338 37.4533 248.73 37.276C249.131 37.0987 249.626 36.996 250.214 36.968L251.838 36.87V36.59C251.838 36.2913 251.773 36.058 251.642 35.89C251.521 35.722 251.353 35.6007 251.138 35.526C250.933 35.4513 250.695 35.414 250.424 35.414C250.107 35.414 249.808 35.4747 249.528 35.596C249.248 35.708 249.038 35.848 248.898 36.016L247.904 35.008C248.156 34.6907 248.511 34.4293 248.968 34.224C249.425 34.0187 249.99 33.916 250.662 33.916C251.315 33.916 251.857 34.0233 252.286 34.238C252.725 34.4433 253.051 34.7373 253.266 35.12C253.49 35.4933 253.602 35.9413 253.602 36.464V41H251.936V39.894H251.852C251.675 40.2767 251.418 40.5847 251.082 40.818C250.746 41.0513 250.321 41.168 249.808 41.168ZM250.326 39.894C250.774 39.894 251.138 39.768 251.418 39.516C251.698 39.2547 251.838 38.8907 251.838 38.424V37.962L250.424 38.074C250.06 38.0927 249.785 38.1813 249.598 38.34C249.421 38.4987 249.332 38.718 249.332 38.998C249.332 39.278 249.425 39.4973 249.612 39.656C249.799 39.8147 250.037 39.894 250.326 39.894ZM259.35 41.168C258.809 41.168 258.338 41.0373 257.936 40.776C257.544 40.5053 257.264 40.146 257.096 39.698H257.012V41H255.332V30.85H257.096V35.274H257.18C257.348 34.882 257.614 34.56 257.978 34.308C258.352 34.0467 258.809 33.916 259.35 33.916C259.929 33.916 260.442 34.0747 260.89 34.392C261.338 34.7 261.693 35.1293 261.954 35.68C262.216 36.2213 262.346 36.8513 262.346 37.57C262.346 38.2793 262.216 38.9047 261.954 39.446C261.693 39.978 261.338 40.398 260.89 40.706C260.442 41.014 259.929 41.168 259.35 41.168ZM258.804 39.628C259.15 39.628 259.453 39.544 259.714 39.376C259.976 39.208 260.176 38.97 260.316 38.662C260.466 38.3447 260.54 37.9713 260.54 37.542C260.54 37.1127 260.466 36.744 260.316 36.436C260.176 36.1187 259.976 35.876 259.714 35.708C259.453 35.54 259.15 35.456 258.804 35.456C258.468 35.456 258.17 35.54 257.908 35.708C257.656 35.876 257.456 36.1187 257.306 36.436C257.166 36.744 257.096 37.1127 257.096 37.542C257.096 37.9713 257.166 38.3447 257.306 38.662C257.456 38.97 257.656 39.208 257.908 39.376C258.17 39.544 258.468 39.628 258.804 39.628ZM266.723 41.168C265.957 41.168 265.313 41.0047 264.791 40.678C264.277 40.3513 263.89 39.9173 263.629 39.376C263.377 38.8253 263.251 38.214 263.251 37.542C263.251 37.0287 263.321 36.5527 263.461 36.114C263.601 35.666 263.806 35.2787 264.077 34.952C264.357 34.6253 264.707 34.3733 265.127 34.196C265.547 34.0093 266.041 33.916 266.611 33.916C267.171 33.916 267.656 34.0047 268.067 34.182C268.487 34.3593 268.832 34.6113 269.103 34.938C269.383 35.2553 269.588 35.6287 269.719 36.058C269.859 36.4873 269.929 36.9587 269.929 37.472C269.929 37.5653 269.919 37.6773 269.901 37.808C269.891 37.9293 269.877 38.0227 269.859 38.088H265.043C265.071 38.424 265.173 38.7133 265.351 38.956C265.528 39.1987 265.747 39.3853 266.009 39.516C266.27 39.6373 266.541 39.698 266.821 39.698C267.213 39.698 267.544 39.628 267.815 39.488C268.095 39.348 268.319 39.1707 268.487 38.956L269.481 39.992C269.229 40.3373 268.865 40.622 268.389 40.846C267.922 41.0607 267.367 41.168 266.723 41.168ZM266.611 35.26C266.312 35.26 266.046 35.33 265.813 35.47C265.589 35.6007 265.407 35.7827 265.267 36.016C265.136 36.2493 265.057 36.5247 265.029 36.842H268.165C268.137 36.5247 268.053 36.2493 267.913 36.016C267.782 35.7827 267.605 35.6007 267.381 35.47C267.157 35.33 266.9 35.26 266.611 35.26ZM271.301 41V30.85H273.065V41H271.301Z" fill="white"/>
</g>
</g>
</g>
<g filter="url(#filter1_ddd_27759_7682)">
<g clip-path="url(#clip3_27759_7682)">
<path d="M14 92C14 87.5817 17.5817 84 22 84H286C290.418 84 294 87.5817 294 92V124C294 128.418 290.418 132 286 132H22C17.5817 132 14 128.418 14 124V92Z" fill="#2B2A28"/>
<g clip-path="url(#clip4_27759_7682)">
<path d="M40 99.5234C38.3235 99.5234 36.6846 100.021 35.2907 100.952C33.8967 101.883 32.8103 103.207 32.1687 104.756C31.5271 106.305 31.3592 108.009 31.6863 109.654C32.0134 111.298 32.8207 112.808 34.0062 113.994C35.1916 115.179 36.702 115.987 38.3463 116.314C39.9906 116.641 41.695 116.473 43.2438 115.831C44.7927 115.19 46.1166 114.103 47.048 112.709C47.9794 111.315 48.4766 109.677 48.4766 108C48.4737 105.753 47.5797 103.598 45.9906 102.009C44.4016 100.42 42.2472 99.5263 40 99.5234ZM40 114.836C38.648 114.836 37.3263 114.435 36.2022 113.684C35.078 112.933 34.2018 111.865 33.6844 110.616C33.167 109.367 33.0317 107.992 33.2954 106.666C33.5592 105.34 34.2102 104.122 35.1663 103.166C36.1223 102.21 37.3403 101.559 38.6664 101.295C39.9924 101.032 41.3669 101.167 42.616 101.684C43.8651 102.202 44.9327 103.078 45.6839 104.202C46.435 105.326 46.8359 106.648 46.8359 108C46.8359 108.898 46.6591 109.787 46.3156 110.616C45.972 111.445 45.4685 112.199 44.8337 112.834C44.199 113.469 43.4454 113.972 42.616 114.316C41.7866 114.659 40.8977 114.836 40 114.836ZM39.1797 107.114H40.8203V111.281H39.1797V107.114ZM41.0938 104.719C41.0938 104.935 41.0296 105.147 40.9094 105.326C40.7892 105.506 40.6184 105.646 40.4186 105.729C40.2187 105.812 39.9988 105.834 39.7866 105.791C39.5745 105.749 39.3796 105.645 39.2266 105.492C39.0736 105.339 38.9695 105.144 38.9273 104.932C38.8851 104.72 38.9067 104.5 38.9895 104.3C39.0723 104.1 39.2125 103.93 39.3923 103.809C39.5722 103.689 39.7837 103.625 40 103.625C40.2901 103.625 40.5683 103.74 40.7734 103.945C40.9785 104.15 41.0938 104.429 41.0938 104.719Z" fill="#9EAEF0"/>
</g>
<path d="M59.288 113V103.9H60.884L64.006 111.656H64.09L67.212 103.9H68.836V113H67.716V105.482H67.632L64.636 113H63.46L60.464 105.482H60.38V113H59.288ZM74.019 113.168C73.3563 113.168 72.7776 113.023 72.283 112.734C71.7976 112.445 71.4196 112.029 71.149 111.488C70.8783 110.937 70.743 110.289 70.743 109.542C70.743 108.954 70.8176 108.436 70.967 107.988C71.1256 107.531 71.345 107.153 71.625 106.854C71.9143 106.546 72.2503 106.313 72.633 106.154C73.025 105.995 73.4543 105.916 73.921 105.916C74.3876 105.916 74.8123 105.991 75.195 106.14C75.587 106.289 75.923 106.513 76.203 106.812C76.4923 107.101 76.7163 107.47 76.875 107.918C77.0336 108.357 77.113 108.87 77.113 109.458C77.113 109.533 77.1083 109.607 77.099 109.682C77.099 109.757 77.0943 109.817 77.085 109.864H71.863C71.8723 110.293 71.975 110.685 72.171 111.04C72.367 111.395 72.6283 111.679 72.955 111.894C73.291 112.099 73.6643 112.202 74.075 112.202C74.5696 112.202 74.9803 112.104 75.307 111.908C75.6336 111.712 75.9043 111.474 76.119 111.194L76.791 111.88C76.5016 112.272 76.133 112.585 75.685 112.818C75.237 113.051 74.6816 113.168 74.019 113.168ZM73.921 106.84C73.4823 106.84 73.1136 106.943 72.815 107.148C72.5163 107.353 72.2876 107.615 72.129 107.932C71.9796 108.249 71.9003 108.581 71.891 108.926H75.937C75.9276 108.581 75.8436 108.249 75.685 107.932C75.5356 107.615 75.3116 107.353 75.013 107.148C74.7236 106.943 74.3596 106.84 73.921 106.84ZM80.7945 113.168C80.1972 113.168 79.6838 113.065 79.2545 112.86C78.8252 112.655 78.4892 112.389 78.2465 112.062L78.9885 111.362C79.2032 111.614 79.4505 111.819 79.7305 111.978C80.0198 112.137 80.3792 112.216 80.8085 112.216C81.1912 112.216 81.5272 112.137 81.8165 111.978C82.1058 111.81 82.2505 111.553 82.2505 111.208C82.2505 110.937 82.1665 110.727 81.9985 110.578C81.8398 110.419 81.6298 110.293 81.3685 110.2C81.1072 110.097 80.8272 110.004 80.5285 109.92C80.1832 109.817 79.8565 109.691 79.5485 109.542C79.2498 109.383 79.0025 109.178 78.8065 108.926C78.6198 108.665 78.5265 108.333 78.5265 107.932C78.5265 107.493 78.6292 107.125 78.8345 106.826C79.0492 106.527 79.3338 106.303 79.6885 106.154C80.0525 105.995 80.4585 105.916 80.9065 105.916C81.4012 105.916 81.8632 106.009 82.2925 106.196C82.7218 106.373 83.0672 106.653 83.3285 107.036L82.6005 107.708C82.3952 107.465 82.1525 107.265 81.8725 107.106C81.6018 106.947 81.2798 106.868 80.9065 106.868C80.5892 106.868 80.2952 106.947 80.0245 107.106C79.7538 107.255 79.6185 107.498 79.6185 107.834C79.6185 108.105 79.6978 108.319 79.8565 108.478C80.0245 108.627 80.2392 108.749 80.5005 108.842C80.7618 108.935 81.0418 109.029 81.3405 109.122C81.6858 109.225 82.0078 109.355 82.3065 109.514C82.6145 109.663 82.8618 109.864 83.0485 110.116C83.2445 110.368 83.3425 110.699 83.3425 111.11C83.3425 111.586 83.2258 111.978 82.9925 112.286C82.7592 112.585 82.4465 112.809 82.0545 112.958C81.6718 113.098 81.2518 113.168 80.7945 113.168ZM87.1519 113.168C86.5546 113.168 86.0413 113.065 85.6119 112.86C85.1826 112.655 84.8466 112.389 84.6039 112.062L85.3459 111.362C85.5606 111.614 85.8079 111.819 86.0879 111.978C86.3773 112.137 86.7366 112.216 87.1659 112.216C87.5486 112.216 87.8846 112.137 88.1739 111.978C88.4633 111.81 88.6079 111.553 88.6079 111.208C88.6079 110.937 88.5239 110.727 88.3559 110.578C88.1973 110.419 87.9873 110.293 87.7259 110.2C87.4646 110.097 87.1846 110.004 86.8859 109.92C86.5406 109.817 86.2139 109.691 85.9059 109.542C85.6073 109.383 85.3599 109.178 85.1639 108.926C84.9773 108.665 84.8839 108.333 84.8839 107.932C84.8839 107.493 84.9866 107.125 85.1919 106.826C85.4066 106.527 85.6913 106.303 86.0459 106.154C86.4099 105.995 86.8159 105.916 87.2639 105.916C87.7586 105.916 88.2206 106.009 88.6499 106.196C89.0793 106.373 89.4246 106.653 89.6859 107.036L88.9579 107.708C88.7526 107.465 88.5099 107.265 88.2299 107.106C87.9593 106.947 87.6373 106.868 87.2639 106.868C86.9466 106.868 86.6526 106.947 86.3819 107.106C86.1113 107.255 85.9759 107.498 85.9759 107.834C85.9759 108.105 86.0553 108.319 86.2139 108.478C86.3819 108.627 86.5966 108.749 86.8579 108.842C87.1193 108.935 87.3993 109.029 87.6979 109.122C88.0433 109.225 88.3653 109.355 88.6639 109.514C88.9719 109.663 89.2193 109.864 89.4059 110.116C89.6019 110.368 89.6999 110.699 89.6999 111.11C89.6999 111.586 89.5833 111.978 89.3499 112.286C89.1166 112.585 88.8039 112.809 88.4119 112.958C88.0293 113.098 87.6093 113.168 87.1519 113.168ZM93.2414 113.168C92.8214 113.168 92.4434 113.079 92.1074 112.902C91.7807 112.725 91.5241 112.477 91.3374 112.16C91.1507 111.843 91.0574 111.479 91.0574 111.068C91.0574 110.667 91.1507 110.321 91.3374 110.032C91.5334 109.733 91.8181 109.495 92.1914 109.318C92.5647 109.141 93.0127 109.038 93.5354 109.01L95.3554 108.898V108.408C95.3554 108.053 95.2947 107.769 95.1734 107.554C95.0614 107.33 94.8934 107.167 94.6694 107.064C94.4547 106.952 94.1887 106.896 93.8714 106.896C93.4701 106.896 93.1247 106.971 92.8354 107.12C92.5461 107.269 92.3221 107.433 92.1634 107.61L91.4914 106.938C91.7341 106.639 92.0654 106.397 92.4854 106.21C92.9054 106.014 93.3767 105.916 93.8994 105.916C94.5341 105.916 95.0381 106.023 95.4114 106.238C95.7847 106.453 96.0507 106.742 96.2094 107.106C96.3774 107.461 96.4614 107.857 96.4614 108.296V113H95.4114V111.824H95.3274C95.1501 112.235 94.8887 112.561 94.5434 112.804C94.1981 113.047 93.7641 113.168 93.2414 113.168ZM93.4094 112.216C93.9881 112.216 94.4547 112.048 94.8094 111.712C95.1734 111.367 95.3554 110.909 95.3554 110.34V109.738L93.5914 109.864C93.1341 109.901 92.7841 110.018 92.5414 110.214C92.3081 110.41 92.1914 110.685 92.1914 111.04C92.1914 111.395 92.3034 111.679 92.5274 111.894C92.7607 112.109 93.0547 112.216 93.4094 112.216ZM101.473 115.758C100.876 115.758 100.358 115.651 99.9194 115.436C99.4807 115.231 99.1307 114.974 98.8694 114.666L99.6114 113.952C99.8074 114.185 100.064 114.377 100.381 114.526C100.699 114.675 101.044 114.75 101.417 114.75C101.819 114.75 102.159 114.685 102.439 114.554C102.729 114.433 102.948 114.227 103.097 113.938C103.256 113.658 103.335 113.275 103.335 112.79V111.446H103.251C103.111 111.903 102.836 112.267 102.425 112.538C102.024 112.799 101.585 112.93 101.109 112.93C100.531 112.93 100.017 112.79 99.5694 112.51C99.1214 112.23 98.7714 111.829 98.5194 111.306C98.2674 110.774 98.1414 110.139 98.1414 109.402C98.1414 108.683 98.2674 108.063 98.5194 107.54C98.7714 107.017 99.1214 106.616 99.5694 106.336C100.017 106.056 100.531 105.916 101.109 105.916C101.623 105.916 102.08 106.051 102.481 106.322C102.892 106.583 103.167 106.947 103.307 107.414H103.391V106.084H104.455V112.93C104.455 113.49 104.339 113.98 104.105 114.4C103.881 114.829 103.545 115.161 103.097 115.394C102.659 115.637 102.117 115.758 101.473 115.758ZM101.333 111.922C101.744 111.922 102.099 111.824 102.397 111.628C102.696 111.432 102.925 111.147 103.083 110.774C103.251 110.401 103.335 109.948 103.335 109.416C103.335 108.875 103.251 108.422 103.083 108.058C102.925 107.685 102.696 107.405 102.397 107.218C102.099 107.022 101.744 106.924 101.333 106.924C100.923 106.924 100.563 107.022 100.255 107.218C99.9474 107.405 99.7094 107.685 99.5414 108.058C99.3734 108.422 99.2894 108.875 99.2894 109.416C99.2894 109.948 99.3734 110.401 99.5414 110.774C99.7094 111.147 99.9474 111.432 100.255 111.628C100.563 111.824 100.923 111.922 101.333 111.922ZM109.538 113.168C108.876 113.168 108.297 113.023 107.802 112.734C107.317 112.445 106.939 112.029 106.668 111.488C106.398 110.937 106.262 110.289 106.262 109.542C106.262 108.954 106.337 108.436 106.486 107.988C106.645 107.531 106.864 107.153 107.144 106.854C107.434 106.546 107.77 106.313 108.152 106.154C108.544 105.995 108.974 105.916 109.44 105.916C109.907 105.916 110.332 105.991 110.714 106.14C111.106 106.289 111.442 106.513 111.722 106.812C112.012 107.101 112.236 107.47 112.394 107.918C112.553 108.357 112.632 108.87 112.632 109.458C112.632 109.533 112.628 109.607 112.618 109.682C112.618 109.757 112.614 109.817 112.604 109.864H107.382C107.392 110.293 107.494 110.685 107.69 111.04C107.886 111.395 108.148 111.679 108.474 111.894C108.81 112.099 109.184 112.202 109.594 112.202C110.089 112.202 110.5 112.104 110.826 111.908C111.153 111.712 111.424 111.474 111.638 111.194L112.31 111.88C112.021 112.272 111.652 112.585 111.204 112.818C110.756 113.051 110.201 113.168 109.538 113.168ZM109.44 106.84C109.002 106.84 108.633 106.943 108.334 107.148C108.036 107.353 107.807 107.615 107.648 107.932C107.499 108.249 107.42 108.581 107.41 108.926H111.456C111.447 108.581 111.363 108.249 111.204 107.932C111.055 107.615 110.831 107.353 110.532 107.148C110.243 106.943 109.879 106.84 109.44 106.84Z" fill="white" fill-opacity="0.9"/>
<path d="M250 108C250 99.1634 257.163 92 266 92C274.837 92 282 99.1634 282 108C282 116.837 274.837 124 266 124C257.163 124 250 116.837 250 108Z" fill="white" fill-opacity="0.01"/>
<path d="M270.835 102.006L266 106.841L261.166 102.006L260.006 103.166L264.841 108L260.006 112.834L261.166 113.994L266 109.159L270.835 113.994L271.994 112.834L267.16 108L271.994 103.166L270.835 102.006Z" fill="white" fill-opacity="0.9"/>
</g>
</g>
<defs>
<filter id="filter0_ddd_27759_7682" x="0" y="0" width="308" height="76" filterUnits="userSpaceOnUse" color-interpolation-filters="sRGB">
<feFlood flood-opacity="0" result="BackgroundImageFix"/>
<feColorMatrix in="SourceAlpha" type="matrix" values="0 0 0 0 0 0 0 0 0 0 0 0 0 0 0 0 0 0 127 0" result="hardAlpha"/>
<feOffset dy="3"/>
<feGaussianBlur stdDeviation="2"/>
<feColorMatrix type="matrix" values="0 0 0 0 0 0 0 0 0 0 0 0 0 0 0 0 0 0 0.04 0"/>
<feBlend mode="normal" in2="BackgroundImageFix" result="effect1_dropShadow_27759_7682"/>
<feColorMatrix in="SourceAlpha" type="matrix" values="0 0 0 0 0 0 0 0 0 0 0 0 0 0 0 0 0 0 127 0" result="hardAlpha"/>
<feMorphology radius="2" operator="dilate" in="SourceAlpha" result="effect2_dropShadow_27759_7682"/>
<feOffset dy="2"/>
<feGaussianBlur stdDeviation="6"/>
<feColorMatrix type="matrix" values="0 0 0 0 0 0 0 0 0 0 0 0 0 0 0 0 0 0 0.04 0"/>
<feBlend mode="normal" in2="effect1_dropShadow_27759_7682" result="effect2_dropShadow_27759_7682"/>
<feColorMatrix in="SourceAlpha" type="matrix" values="0 0 0 0 0 0 0 0 0 0 0 0 0 0 0 0 0 0 127 0" result="hardAlpha"/>
<feOffset dy="4"/>
<feGaussianBlur stdDeviation="3"/>
<feColorMatrix type="matrix" values="0 0 0 0 0 0 0 0 0 0 0 0 0 0 0 0 0 0 0.02 0"/>
<feBlend mode="normal" in2="effect2_dropShadow_27759_7682" result="effect3_dropShadow_27759_7682"/>
<feBlend mode="normal" in="SourceGraphic" in2="effect3_dropShadow_27759_7682" result="shape"/>
</filter>
<filter id="filter1_ddd_27759_7682" x="0" y="72" width="308" height="76" filterUnits="userSpaceOnUse" color-interpolation-filters="sRGB">
<feFlood flood-opacity="0" result="BackgroundImageFix"/>
<feColorMatrix in="SourceAlpha" type="matrix" values="0 0 0 0 0 0 0 0 0 0 0 0 0 0 0 0 0 0 127 0" result="hardAlpha"/>
<feOffset dy="3"/>
<feGaussianBlur stdDeviation="2"/>
<feColorMatrix type="matrix" values="0 0 0 0 0 0 0 0 0 0 0 0 0 0 0 0 0 0 0.04 0"/>
<feBlend mode="normal" in2="BackgroundImageFix" result="effect1_dropShadow_27759_7682"/>
<feColorMatrix in="SourceAlpha" type="matrix" values="0 0 0 0 0 0 0 0 0 0 0 0 0 0 0 0 0 0 127 0" result="hardAlpha"/>
<feMorphology radius="2" operator="dilate" in="SourceAlpha" result="effect2_dropShadow_27759_7682"/>
<feOffset dy="2"/>
<feGaussianBlur stdDeviation="6"/>
<feColorMatrix type="matrix" values="0 0 0 0 0 0 0 0 0 0 0 0 0 0 0 0 0 0 0.04 0"/>
<feBlend mode="normal" in2="effect1_dropShadow_27759_7682" result="effect2_dropShadow_27759_7682"/>
<feColorMatrix in="SourceAlpha" type="matrix" values="0 0 0 0 0 0 0 0 0 0 0 0 0 0 0 0 0 0 127 0" result="hardAlpha"/>
<feOffset dy="4"/>
<feGaussianBlur stdDeviation="3"/>
<feColorMatrix type="matrix" values="0 0 0 0 0 0 0 0 0 0 0 0 0 0 0 0 0 0 0.02 0"/>
<feBlend mode="normal" in2="effect2_dropShadow_27759_7682" result="effect3_dropShadow_27759_7682"/>
<feBlend mode="normal" in="SourceGraphic" in2="effect3_dropShadow_27759_7682" result="shape"/>
</filter>
<clipPath id="clip0_27759_7682">
<path d="M14 20C14 15.5817 17.5817 12 22 12H286C290.418 12 294 15.5817 294 20V52C294 56.4183 290.418 60 286 60H22C17.5817 60 14 56.4183 14 52V20Z" fill="white"/>
</clipPath>
<clipPath id="clip1_27759_7682">
<rect width="17.5" height="17.5" fill="white" transform="translate(31.25 27.25)"/>
</clipPath>
<clipPath id="clip2_27759_7682">
<path d="M232 36C232 27.1634 239.163 20 248 20H266C274.837 20 282 27.1634 282 36C282 44.8366 274.837 52 266 52H248C239.163 52 232 44.8366 232 36Z" fill="white"/>
</clipPath>
<clipPath id="clip3_27759_7682">
<path d="M14 92C14 87.5817 17.5817 84 22 84H286C290.418 84 294 87.5817 294 92V124C294 128.418 290.418 132 286 132H22C17.5817 132 14 128.418 14 124V92Z" fill="white"/>
</clipPath>
<clipPath id="clip4_27759_7682">
<rect width="17.5" height="17.5" fill="white" transform="translate(31.25 99.25)"/>
</clipPath>
</defs>
</svg>
