<svg width="1032" height="400" viewBox="0 0 1032 400" fill="none" xmlns="http://www.w3.org/2000/svg">
<rect width="1032" height="400" rx="16" fill="#F6F3EF"/>
<mask id="mask0_27735_3976" style="mask-type:alpha" maskUnits="userSpaceOnUse" x="0" y="0" width="1032" height="400">
<rect width="1032" height="400" rx="16" fill="#00DCFF"/>
</mask>
<g mask="url(#mask0_27735_3976)">
<g filter="url(#filter0_f_27735_3976)">
<rect x="53" y="-64" width="922" height="389" rx="24" fill="#2B2A28"/>
<rect x="56" y="-61" width="916" height="383" rx="21" stroke="#E7E2DA" stroke-width="6"/>
</g>
<rect x="57" y="-60" width="917" height="381" rx="20" fill="white" stroke="#E7E2DA" stroke-width="8"/>
<path d="M56.8433 274H975.437V295C975.437 308.255 964.692 319 951.437 319H80.8433C67.5885 319 56.8433 308.255 56.8433 295V274Z" fill="#F6F3EF"/>
<rect x="57" y="-60" width="917" height="381" rx="20" stroke="#E7E2DA" stroke-width="8"/>
<path d="M853 289L176 289" stroke="#FF8000"/>
<path d="M176 280V298" stroke="#FF8000"/>
<path d="M853 280V298" stroke="#FF8000"/>
<g filter="url(#filter1_ddd_27735_3976)">
<g clip-path="url(#clip0_27735_3976)">
<path d="M177 199.204C177 191.359 183.359 185 191.204 185H840.796C848.641 185 855 191.359 855 199.204V257.796C855 265.641 848.641 272 840.796 272H191.204C183.359 272 177 265.641 177 257.796V199.204Z" fill="#FFD600"/>
<g clip-path="url(#clip1_27735_3976)">
<path d="M225.612 223.948H222.638V229.895H225.612V223.948Z" fill="black" fill-opacity="0.76"/>
<path d="M224.125 235.842C225.22 235.842 226.108 234.955 226.108 233.86C226.108 232.765 225.22 231.877 224.125 231.877C223.03 231.877 222.143 232.765 222.143 233.86C222.143 234.955 223.03 235.842 224.125 235.842Z" fill="black" fill-opacity="0.76"/>
<path d="M236.376 241.294H211.874C211.255 241.297 210.646 241.131 210.115 240.813C209.584 240.495 209.15 240.037 208.86 239.49C208.551 238.928 208.397 238.294 208.415 237.653C208.432 237.012 208.62 236.387 208.96 235.842L221.211 216.216C221.509 215.707 221.935 215.284 222.446 214.989C222.956 214.694 223.535 214.536 224.125 214.531C224.711 214.532 225.287 214.684 225.798 214.972C226.308 215.26 226.736 215.675 227.039 216.177L239.291 235.842C239.622 236.4 239.797 237.037 239.797 237.686C239.797 238.335 239.622 238.972 239.291 239.53C239.004 240.055 238.583 240.495 238.071 240.804C237.559 241.114 236.975 241.283 236.376 241.294ZM224.125 217.505C224.043 217.503 223.963 217.525 223.893 217.567C223.823 217.609 223.766 217.67 223.729 217.743L211.477 237.389C211.418 237.491 211.387 237.607 211.387 237.726C211.387 237.844 211.418 237.96 211.477 238.063C211.515 238.141 211.574 238.206 211.648 238.252C211.722 238.298 211.807 238.321 211.894 238.32H236.376C236.463 238.321 236.548 238.298 236.622 238.252C236.696 238.206 236.755 238.141 236.793 238.063C236.852 237.96 236.883 237.844 236.883 237.726C236.883 237.607 236.852 237.491 236.793 237.389L224.522 217.743C224.484 217.67 224.428 217.609 224.357 217.567C224.287 217.525 224.207 217.503 224.125 217.505Z" fill="black" fill-opacity="0.76"/>
</g>
<path d="M259.085 237V220.506H261.977L267.636 234.564H267.788L273.447 220.506H276.39V237H274.36V223.374H274.208L268.778 237H266.646L261.216 223.374H261.064V237H259.085ZM285.784 237.305C284.583 237.305 283.534 237.042 282.638 236.518C281.758 235.993 281.073 235.241 280.582 234.259C280.092 233.261 279.847 232.086 279.847 230.732C279.847 229.667 279.982 228.728 280.253 227.916C280.54 227.087 280.938 226.402 281.445 225.86C281.97 225.302 282.579 224.879 283.272 224.592C283.983 224.304 284.761 224.16 285.607 224.16C286.453 224.16 287.222 224.296 287.916 224.566C288.626 224.837 289.235 225.243 289.743 225.784C290.267 226.309 290.673 226.977 290.961 227.789C291.248 228.584 291.392 229.514 291.392 230.58C291.392 230.715 291.384 230.851 291.367 230.986C291.367 231.121 291.358 231.231 291.341 231.316H281.877C281.894 232.094 282.08 232.805 282.435 233.447C282.79 234.09 283.264 234.606 283.856 234.995C284.465 235.368 285.142 235.554 285.886 235.554C286.782 235.554 287.527 235.376 288.119 235.021C288.711 234.665 289.202 234.234 289.591 233.727L290.809 234.97C290.284 235.68 289.616 236.247 288.804 236.67C287.992 237.093 286.985 237.305 285.784 237.305ZM285.607 225.835C284.812 225.835 284.143 226.021 283.602 226.393C283.061 226.765 282.646 227.239 282.359 227.814C282.088 228.389 281.944 228.99 281.927 229.616H289.261C289.244 228.99 289.092 228.389 288.804 227.814C288.533 227.239 288.127 226.765 287.586 226.393C287.062 226.021 286.402 225.835 285.607 225.835ZM298.065 237.305C296.982 237.305 296.052 237.118 295.274 236.746C294.496 236.374 293.887 235.892 293.447 235.3L294.792 234.031C295.181 234.488 295.629 234.86 296.137 235.148C296.661 235.435 297.312 235.579 298.09 235.579C298.784 235.579 299.393 235.435 299.917 235.148C300.442 234.843 300.704 234.378 300.704 233.752C300.704 233.261 300.552 232.881 300.247 232.61C299.96 232.323 299.579 232.094 299.105 231.925C298.632 231.739 298.124 231.57 297.583 231.417C296.957 231.231 296.365 231.003 295.807 230.732C295.265 230.445 294.817 230.073 294.462 229.616C294.123 229.142 293.954 228.542 293.954 227.814C293.954 227.019 294.14 226.351 294.513 225.81C294.902 225.268 295.418 224.862 296.06 224.592C296.72 224.304 297.456 224.16 298.268 224.16C299.165 224.16 300.002 224.329 300.78 224.668C301.558 224.989 302.184 225.497 302.658 226.19L301.338 227.408C300.966 226.968 300.526 226.605 300.019 226.317C299.528 226.03 298.945 225.886 298.268 225.886C297.693 225.886 297.16 226.03 296.669 226.317C296.179 226.588 295.934 227.028 295.934 227.637C295.934 228.127 296.077 228.516 296.365 228.804C296.669 229.075 297.059 229.294 297.532 229.464C298.006 229.633 298.513 229.802 299.055 229.971C299.681 230.157 300.264 230.394 300.806 230.682C301.364 230.952 301.812 231.316 302.15 231.773C302.506 232.229 302.683 232.83 302.683 233.574C302.683 234.437 302.472 235.148 302.049 235.706C301.626 236.247 301.059 236.653 300.349 236.924C299.655 237.178 298.894 237.305 298.065 237.305ZM309.588 237.305C308.505 237.305 307.575 237.118 306.797 236.746C306.018 236.374 305.409 235.892 304.97 235.3L306.315 234.031C306.704 234.488 307.152 234.86 307.659 235.148C308.184 235.435 308.835 235.579 309.613 235.579C310.307 235.579 310.916 235.435 311.44 235.148C311.965 234.843 312.227 234.378 312.227 233.752C312.227 233.261 312.075 232.881 311.77 232.61C311.483 232.323 311.102 232.094 310.628 231.925C310.155 231.739 309.647 231.57 309.106 231.417C308.48 231.231 307.888 231.003 307.33 230.732C306.788 230.445 306.34 230.073 305.985 229.616C305.646 229.142 305.477 228.542 305.477 227.814C305.477 227.019 305.663 226.351 306.035 225.81C306.424 225.268 306.94 224.862 307.583 224.592C308.243 224.304 308.979 224.16 309.791 224.16C310.687 224.16 311.525 224.329 312.303 224.668C313.081 224.989 313.707 225.497 314.181 226.19L312.861 227.408C312.489 226.968 312.049 226.605 311.542 226.317C311.051 226.03 310.468 225.886 309.791 225.886C309.216 225.886 308.683 226.03 308.192 226.317C307.702 226.588 307.456 227.028 307.456 227.637C307.456 228.127 307.6 228.516 307.888 228.804C308.192 229.075 308.581 229.294 309.055 229.464C309.529 229.633 310.036 229.802 310.578 229.971C311.203 230.157 311.787 230.394 312.328 230.682C312.887 230.952 313.335 231.316 313.673 231.773C314.029 232.229 314.206 232.83 314.206 233.574C314.206 234.437 313.995 235.148 313.572 235.706C313.149 236.247 312.582 236.653 311.872 236.924C311.178 237.178 310.417 237.305 309.588 237.305ZM320.625 237.305C319.864 237.305 319.179 237.144 318.57 236.822C317.978 236.501 317.512 236.053 317.174 235.477C316.836 234.902 316.667 234.243 316.667 233.498C316.667 232.771 316.836 232.145 317.174 231.62C317.529 231.079 318.045 230.648 318.722 230.326C319.399 230.005 320.211 229.819 321.158 229.768L324.457 229.565V228.677C324.457 228.034 324.347 227.518 324.127 227.129C323.924 226.723 323.619 226.427 323.213 226.241C322.824 226.038 322.342 225.936 321.767 225.936C321.039 225.936 320.414 226.072 319.889 226.342C319.365 226.613 318.959 226.909 318.671 227.231L317.453 226.013C317.893 225.471 318.494 225.031 319.255 224.693C320.016 224.338 320.87 224.16 321.818 224.16C322.968 224.16 323.881 224.355 324.558 224.744C325.235 225.133 325.717 225.657 326.005 226.317C326.309 226.96 326.461 227.679 326.461 228.474V237H324.558V234.868H324.406C324.084 235.613 323.611 236.205 322.985 236.645C322.359 237.085 321.572 237.305 320.625 237.305ZM320.93 235.579C321.978 235.579 322.824 235.274 323.467 234.665C324.127 234.04 324.457 233.211 324.457 232.179V231.088L321.259 231.316C320.43 231.384 319.796 231.595 319.356 231.95C318.933 232.306 318.722 232.805 318.722 233.447C318.722 234.09 318.925 234.606 319.331 234.995C319.754 235.384 320.287 235.579 320.93 235.579ZM335.546 241.999C334.463 241.999 333.524 241.804 332.729 241.415C331.934 241.043 331.299 240.578 330.826 240.02L332.171 238.726C332.526 239.148 332.991 239.495 333.566 239.766C334.141 240.037 334.767 240.172 335.444 240.172C336.171 240.172 336.789 240.053 337.296 239.817C337.821 239.597 338.218 239.225 338.489 238.7C338.777 238.193 338.92 237.499 338.92 236.619V234.183H338.768C338.514 235.012 338.015 235.672 337.271 236.163C336.544 236.636 335.749 236.873 334.886 236.873C333.837 236.873 332.907 236.619 332.095 236.112C331.283 235.604 330.648 234.877 330.191 233.93C329.735 232.965 329.506 231.815 329.506 230.479C329.506 229.176 329.735 228.051 330.191 227.104C330.648 226.156 331.283 225.429 332.095 224.921C332.907 224.414 333.837 224.16 334.886 224.16C335.816 224.16 336.645 224.406 337.373 224.896C338.117 225.37 338.616 226.03 338.87 226.875H339.022V224.465H340.95V236.873C340.95 237.888 340.739 238.776 340.316 239.538C339.91 240.316 339.301 240.916 338.489 241.339C337.694 241.779 336.713 241.999 335.546 241.999ZM335.292 235.046C336.036 235.046 336.679 234.868 337.22 234.513C337.762 234.158 338.176 233.642 338.464 232.965C338.768 232.289 338.92 231.468 338.92 230.504C338.92 229.523 338.768 228.702 338.464 228.043C338.176 227.366 337.762 226.858 337.22 226.52C336.679 226.165 336.036 225.987 335.292 225.987C334.547 225.987 333.896 226.165 333.338 226.52C332.78 226.858 332.348 227.366 332.044 228.043C331.739 228.702 331.587 229.523 331.587 230.504C331.587 231.468 331.739 232.289 332.044 232.965C332.348 233.642 332.78 234.158 333.338 234.513C333.896 234.868 334.547 235.046 335.292 235.046ZM350.164 237.305C348.962 237.305 347.914 237.042 347.017 236.518C346.137 235.993 345.452 235.241 344.962 234.259C344.471 233.261 344.226 232.086 344.226 230.732C344.226 229.667 344.361 228.728 344.632 227.916C344.919 227.087 345.317 226.402 345.824 225.86C346.349 225.302 346.958 224.879 347.651 224.592C348.362 224.304 349.14 224.16 349.986 224.16C350.832 224.16 351.601 224.296 352.295 224.566C353.006 224.837 353.615 225.243 354.122 225.784C354.646 226.309 355.052 226.977 355.34 227.789C355.628 228.584 355.771 229.514 355.771 230.58C355.771 230.715 355.763 230.851 355.746 230.986C355.746 231.121 355.738 231.231 355.721 231.316H346.256C346.273 232.094 346.459 232.805 346.814 233.447C347.169 234.09 347.643 234.606 348.235 234.995C348.844 235.368 349.521 235.554 350.265 235.554C351.162 235.554 351.906 235.376 352.498 235.021C353.09 234.665 353.581 234.234 353.97 233.727L355.188 234.97C354.663 235.68 353.995 236.247 353.183 236.67C352.371 237.093 351.365 237.305 350.164 237.305ZM349.986 225.835C349.191 225.835 348.523 226.021 347.981 226.393C347.44 226.765 347.025 227.239 346.738 227.814C346.467 228.389 346.323 228.99 346.307 229.616H353.64C353.623 228.99 353.471 228.389 353.183 227.814C352.912 227.239 352.506 226.765 351.965 226.393C351.441 226.021 350.781 225.835 349.986 225.835Z" fill="black" fill-opacity="0.76"/>
<path d="M775.25 228.5C775.25 212.484 788.234 199.5 804.25 199.5C820.266 199.5 833.25 212.484 833.25 228.5C833.25 244.516 820.266 257.5 804.25 257.5C788.234 257.5 775.25 244.516 775.25 228.5Z" fill="white" fill-opacity="0.01"/>
<path d="M813.012 217.636L804.25 226.399L795.488 217.636L793.386 219.738L802.149 228.5L793.386 237.262L795.488 239.364L804.25 230.601L813.012 239.364L815.114 237.262L806.351 228.5L815.114 219.738L813.012 217.636Z" fill="black" fill-opacity="0.76"/>
</g>
</g>
<path d="M325.64 357V353.94H328.8V348.08L326.5 348.86L325.22 346.02L330.22 344H332.8V353.94H335.62V357H325.64ZM342.799 357.24C341.412 357.24 340.279 356.933 339.399 356.32C338.519 355.707 337.866 354.893 337.439 353.88C337.026 352.853 336.819 351.727 336.819 350.5C336.819 349.58 336.939 348.713 337.179 347.9C337.419 347.087 337.779 346.373 338.259 345.76C338.739 345.133 339.352 344.647 340.099 344.3C340.859 343.94 341.759 343.76 342.799 343.76C344.199 343.76 345.339 344.067 346.219 344.68C347.099 345.28 347.746 346.093 348.159 347.12C348.586 348.133 348.799 349.26 348.799 350.5C348.799 351.42 348.679 352.287 348.439 353.1C348.212 353.913 347.852 354.633 347.359 355.26C346.879 355.873 346.259 356.36 345.499 356.72C344.752 357.067 343.852 357.24 342.799 357.24ZM342.819 354.06C343.046 354.06 343.252 354.02 343.439 353.94C343.639 353.847 343.819 353.713 343.979 353.54C344.139 353.353 344.279 353.12 344.399 352.84C344.519 352.547 344.606 352.213 344.659 351.84C344.726 351.453 344.759 351.007 344.759 350.5C344.759 349.247 344.572 348.34 344.199 347.78C343.826 347.22 343.366 346.94 342.819 346.94C342.592 346.94 342.379 346.987 342.179 347.08C341.992 347.16 341.812 347.293 341.639 347.48C341.479 347.653 341.339 347.887 341.219 348.18C341.099 348.46 341.006 348.793 340.939 349.18C340.886 349.567 340.859 350.007 340.859 350.5C340.859 351.753 341.046 352.66 341.419 353.22C341.806 353.78 342.272 354.06 342.819 354.06ZM349.938 357V355.02C349.938 354.087 350.085 353.32 350.378 352.72C350.671 352.107 351.091 351.593 351.638 351.18C352.185 350.753 352.825 350.36 353.558 350C354.385 349.6 355.005 349.287 355.418 349.06C355.831 348.833 356.105 348.64 356.238 348.48C356.371 348.307 356.438 348.113 356.438 347.9C356.438 347.58 356.278 347.353 355.958 347.22C355.651 347.073 355.251 347 354.758 347C354.225 347 353.718 347.087 353.238 347.26C352.771 347.42 352.358 347.667 351.998 348L350.058 345.7C350.645 345.087 351.371 344.613 352.238 344.28C353.105 343.933 354.098 343.76 355.218 343.76C356.151 343.76 357.005 343.9 357.778 344.18C358.565 344.447 359.198 344.867 359.678 345.44C360.158 346 360.398 346.727 360.398 347.62C360.398 348.34 360.251 348.973 359.958 349.52C359.665 350.053 359.205 350.54 358.578 350.98C357.965 351.42 357.171 351.873 356.198 352.34C355.665 352.58 355.238 352.78 354.918 352.94C354.611 353.1 354.385 353.24 354.238 353.36C354.105 353.48 354.038 353.62 354.038 353.78V353.96H360.778V357H349.938ZM368.677 357V354.9H362.077V352.32L367.017 344H371.257L366.577 351.9H368.677V349.54H372.357V351.9H373.857V354.9H372.357V357H368.677ZM374.976 360.7V347.12H378.536V348.8H378.656C378.923 348.187 379.303 347.713 379.796 347.38C380.29 347.047 380.876 346.88 381.556 346.88C382.33 346.88 383.03 347.087 383.656 347.5C384.283 347.913 384.783 348.5 385.156 349.26C385.53 350.02 385.716 350.907 385.716 351.92C385.716 352.973 385.53 353.907 385.156 354.72C384.783 355.52 384.283 356.14 383.656 356.58C383.03 357.02 382.33 357.24 381.556 357.24C380.876 357.24 380.303 357.073 379.836 356.74C379.383 356.407 379.056 355.973 378.856 355.44H378.736V360.7H374.976ZM380.316 354.08C380.69 354.08 380.99 353.98 381.216 353.78C381.443 353.58 381.61 353.327 381.716 353.02C381.823 352.713 381.876 352.393 381.876 352.06C381.876 351.727 381.823 351.407 381.716 351.1C381.61 350.793 381.443 350.54 381.216 350.34C380.99 350.14 380.69 350.04 380.316 350.04C379.93 350.04 379.616 350.14 379.376 350.34C379.15 350.54 378.983 350.793 378.876 351.1C378.77 351.407 378.716 351.727 378.716 352.06C378.716 352.393 378.77 352.713 378.876 353.02C378.983 353.327 379.15 353.58 379.376 353.78C379.616 353.98 379.93 354.08 380.316 354.08ZM385.519 357L389.079 352.04L385.779 347.12H390.119L391.319 349.26H391.459L392.619 347.12H396.559L393.239 351.72L396.819 357H392.399L390.999 354.5H390.859L389.419 357H385.519ZM406.121 357.24C405.001 357.24 404.055 357.107 403.281 356.84C402.521 356.573 401.975 356.24 401.641 355.84L403.361 353.78C403.681 354.06 404.081 354.267 404.561 354.4C405.041 354.533 405.481 354.6 405.881 354.6C406.268 354.6 406.561 354.553 406.761 354.46C406.975 354.353 407.081 354.187 407.081 353.96C407.081 353.827 407.001 353.72 406.841 353.64C406.681 353.56 406.435 353.487 406.101 353.42C405.781 353.34 405.368 353.253 404.861 353.16C404.341 353.04 403.855 352.867 403.401 352.64C402.961 352.413 402.608 352.1 402.341 351.7C402.075 351.3 401.941 350.793 401.941 350.18C401.941 349.487 402.135 348.893 402.521 348.4C402.921 347.907 403.468 347.533 404.161 347.28C404.855 347.013 405.655 346.88 406.561 346.88C407.641 346.88 408.528 347.027 409.221 347.32C409.915 347.6 410.408 347.907 410.701 348.24L408.821 350.28C408.568 350.053 408.248 349.873 407.861 349.74C407.475 349.593 407.101 349.52 406.741 349.52C406.395 349.52 406.108 349.567 405.881 349.66C405.668 349.74 405.561 349.88 405.561 350.08C405.561 350.213 405.641 350.327 405.801 350.42C405.961 350.5 406.208 350.573 406.541 350.64C406.875 350.693 407.288 350.773 407.781 350.88C408.315 350.987 408.801 351.16 409.241 351.4C409.681 351.627 410.035 351.94 410.301 352.34C410.568 352.74 410.701 353.247 410.701 353.86C410.701 354.54 410.515 355.14 410.141 355.66C409.768 356.167 409.241 356.56 408.561 356.84C407.881 357.107 407.068 357.24 406.121 357.24ZM416.628 357.24C415.561 357.24 414.641 357.02 413.868 356.58C413.108 356.127 412.521 355.513 412.108 354.74C411.708 353.953 411.508 353.06 411.508 352.06C411.508 351.06 411.708 350.173 412.108 349.4C412.508 348.613 413.081 348 413.828 347.56C414.575 347.107 415.475 346.88 416.528 346.88C417.395 346.88 418.135 347.02 418.748 347.3C419.361 347.567 419.888 347.96 420.328 348.48L417.988 350.6C417.841 350.413 417.668 350.273 417.468 350.18C417.281 350.087 417.061 350.04 416.808 350.04C416.501 350.04 416.241 350.12 416.028 350.28C415.815 350.44 415.648 350.673 415.528 350.98C415.408 351.273 415.348 351.633 415.348 352.06C415.348 352.687 415.481 353.18 415.748 353.54C416.028 353.887 416.381 354.06 416.808 354.06C417.075 354.06 417.315 354.013 417.528 353.92C417.741 353.813 417.915 353.673 418.048 353.5L420.408 355.62C419.981 356.14 419.461 356.54 418.848 356.82C418.235 357.1 417.495 357.24 416.628 357.24ZM421.383 357V347.12H424.903V348.86H425.023C425.223 348.207 425.543 347.713 425.983 347.38C426.436 347.047 427.003 346.88 427.683 346.88C427.936 346.88 428.183 346.9 428.423 346.94C428.663 346.967 428.889 347.013 429.103 347.08L428.183 350.42C428.049 350.34 427.883 350.28 427.683 350.24C427.483 350.187 427.289 350.16 427.103 350.16C426.529 350.16 426.056 350.307 425.683 350.6C425.323 350.893 425.143 351.393 425.143 352.1V357H421.383ZM434.385 357.24C433.252 357.24 432.292 357.013 431.505 356.56C430.718 356.093 430.125 355.473 429.725 354.7C429.325 353.913 429.125 353.033 429.125 352.06C429.125 351.313 429.232 350.627 429.445 350C429.658 349.373 429.972 348.827 430.385 348.36C430.812 347.88 431.345 347.513 431.985 347.26C432.638 347.007 433.392 346.88 434.245 346.88C435.085 346.88 435.818 347.007 436.445 347.26C437.072 347.513 437.592 347.873 438.005 348.34C438.418 348.793 438.725 349.333 438.925 349.96C439.125 350.573 439.225 351.253 439.225 352C439.225 352.173 439.205 352.373 439.165 352.6C439.138 352.827 439.105 353 439.065 353.12H432.745C432.812 353.413 432.938 353.653 433.125 353.84C433.312 354.027 433.538 354.167 433.805 354.26C434.085 354.34 434.365 354.38 434.645 354.38C435.045 354.38 435.398 354.32 435.705 354.2C436.012 354.08 436.252 353.927 436.425 353.74L438.405 355.76C438.058 356.213 437.525 356.573 436.805 356.84C436.085 357.107 435.278 357.24 434.385 357.24ZM434.205 349.46C433.952 349.46 433.718 349.52 433.505 349.64C433.305 349.747 433.138 349.913 433.005 350.14C432.872 350.353 432.785 350.62 432.745 350.94H435.665C435.625 350.607 435.532 350.333 435.385 350.12C435.252 349.907 435.085 349.747 434.885 349.64C434.698 349.52 434.472 349.46 434.205 349.46ZM445.166 357.24C444.033 357.24 443.073 357.013 442.286 356.56C441.5 356.093 440.906 355.473 440.506 354.7C440.106 353.913 439.906 353.033 439.906 352.06C439.906 351.313 440.013 350.627 440.226 350C440.44 349.373 440.753 348.827 441.166 348.36C441.593 347.88 442.126 347.513 442.766 347.26C443.42 347.007 444.173 346.88 445.026 346.88C445.866 346.88 446.6 347.007 447.226 347.26C447.853 347.513 448.373 347.873 448.786 348.34C449.2 348.793 449.506 349.333 449.706 349.96C449.906 350.573 450.006 351.253 450.006 352C450.006 352.173 449.986 352.373 449.946 352.6C449.92 352.827 449.886 353 449.846 353.12H443.526C443.593 353.413 443.72 353.653 443.906 353.84C444.093 354.027 444.32 354.167 444.586 354.26C444.866 354.34 445.146 354.38 445.426 354.38C445.826 354.38 446.18 354.32 446.486 354.2C446.793 354.08 447.033 353.927 447.206 353.74L449.186 355.76C448.84 356.213 448.306 356.573 447.586 356.84C446.866 357.107 446.06 357.24 445.166 357.24ZM444.986 349.46C444.733 349.46 444.5 349.52 444.286 349.64C444.086 349.747 443.92 349.913 443.786 350.14C443.653 350.353 443.566 350.62 443.526 350.94H446.446C446.406 350.607 446.313 350.333 446.166 350.12C446.033 349.907 445.866 349.747 445.666 349.64C445.48 349.52 445.253 349.46 444.986 349.46ZM451.168 357V347.12H454.688V348.78H454.808C454.928 348.42 455.134 348.1 455.428 347.82C455.734 347.527 456.088 347.3 456.488 347.14C456.901 346.967 457.334 346.88 457.788 346.88C459.054 346.88 459.934 347.213 460.428 347.88C460.921 348.547 461.168 349.533 461.168 350.84V357H457.408V351.82C457.408 351.207 457.314 350.753 457.128 350.46C456.954 350.167 456.641 350.02 456.188 350.02C455.734 350.02 455.408 350.16 455.208 350.44C455.021 350.707 454.928 351.14 454.928 351.74V357H451.168ZM465.31 351.16C464.55 351.16 463.983 350.94 463.61 350.5C463.25 350.06 463.07 349.567 463.07 349.02C463.07 348.647 463.15 348.3 463.31 347.98C463.47 347.647 463.716 347.38 464.05 347.18C464.396 346.98 464.816 346.88 465.31 346.88C466.056 346.88 466.61 347.1 466.97 347.54C467.343 347.967 467.53 348.46 467.53 349.02C467.53 349.393 467.45 349.747 467.29 350.08C467.13 350.4 466.883 350.66 466.55 350.86C466.216 351.06 465.803 351.16 465.31 351.16ZM465.31 357.24C464.55 357.24 463.983 357.02 463.61 356.58C463.25 356.14 463.07 355.647 463.07 355.1C463.07 354.727 463.15 354.38 463.31 354.06C463.47 353.727 463.716 353.46 464.05 353.26C464.396 353.06 464.816 352.96 465.31 352.96C466.056 352.96 466.61 353.18 466.97 353.62C467.343 354.047 467.53 354.54 467.53 355.1C467.53 355.46 467.45 355.807 467.29 356.14C467.13 356.473 466.883 356.74 466.55 356.94C466.216 357.14 465.803 357.24 465.31 357.24ZM482.097 357V347.1H478.597V344H489.597V347.1H486.097V357H482.097ZM494.426 357.24C493.252 357.24 492.266 357.007 491.466 356.54C490.679 356.06 490.086 355.427 489.686 354.64C489.299 353.853 489.106 352.993 489.106 352.06C489.106 351.353 489.219 350.693 489.446 350.08C489.672 349.453 490.006 348.9 490.446 348.42C490.886 347.94 491.439 347.567 492.106 347.3C492.772 347.02 493.546 346.88 494.426 346.88C495.586 346.88 496.559 347.12 497.346 347.6C498.132 348.067 498.726 348.693 499.126 349.48C499.539 350.267 499.746 351.127 499.746 352.06C499.746 352.753 499.632 353.413 499.406 354.04C499.179 354.667 498.839 355.22 498.386 355.7C497.946 356.18 497.392 356.56 496.726 356.84C496.059 357.107 495.292 357.24 494.426 357.24ZM492.926 352.06C492.926 352.553 492.986 352.973 493.106 353.32C493.239 353.653 493.419 353.907 493.646 354.08C493.872 354.24 494.132 354.32 494.426 354.32C494.719 354.32 494.972 354.24 495.186 354.08C495.412 353.907 495.586 353.653 495.706 353.32C495.839 352.973 495.906 352.553 495.906 352.06C495.906 351.553 495.839 351.133 495.706 350.8C495.586 350.467 495.412 350.22 495.186 350.06C494.972 349.887 494.719 349.8 494.426 349.8C494.132 349.8 493.872 349.887 493.646 350.06C493.419 350.22 493.239 350.467 493.106 350.8C492.986 351.133 492.926 351.553 492.926 352.06ZM503.634 357.24C503.088 357.24 502.561 357.127 502.054 356.9C501.548 356.66 501.134 356.32 500.814 355.88C500.494 355.427 500.334 354.867 500.334 354.2C500.334 353.6 500.481 353.087 500.774 352.66C501.068 352.22 501.521 351.88 502.134 351.64C502.761 351.4 503.561 351.253 504.534 351.2L506.474 351.08V350.96C506.474 350.667 506.388 350.447 506.214 350.3C506.054 350.14 505.834 350.027 505.554 349.96C505.288 349.893 505.008 349.86 504.714 349.86C504.314 349.86 503.928 349.927 503.554 350.06C503.181 350.193 502.888 350.373 502.674 350.6L500.714 348.52C501.154 348.013 501.748 347.613 502.494 347.32C503.254 347.027 504.208 346.88 505.354 346.88C506.314 346.88 507.154 347.02 507.874 347.3C508.608 347.58 509.181 348.007 509.594 348.58C510.008 349.153 510.214 349.88 510.214 350.76V357H506.694V355.54H506.574C506.321 356.033 505.954 356.44 505.474 356.76C504.994 357.08 504.381 357.24 503.634 357.24ZM505.134 354.86C505.521 354.86 505.841 354.753 506.094 354.54C506.348 354.313 506.474 353.96 506.474 353.48V353.04L505.114 353.14C504.768 353.153 504.514 353.247 504.354 353.42C504.194 353.593 504.114 353.8 504.114 354.04C504.114 354.32 504.214 354.527 504.414 354.66C504.628 354.793 504.868 354.86 505.134 354.86ZM515.594 357.24C514.474 357.24 513.527 357.107 512.754 356.84C511.994 356.573 511.447 356.24 511.114 355.84L512.834 353.78C513.154 354.06 513.554 354.267 514.034 354.4C514.514 354.533 514.954 354.6 515.354 354.6C515.741 354.6 516.034 354.553 516.234 354.46C516.447 354.353 516.554 354.187 516.554 353.96C516.554 353.827 516.474 353.72 516.314 353.64C516.154 353.56 515.907 353.487 515.574 353.42C515.254 353.34 514.841 353.253 514.334 353.16C513.814 353.04 513.327 352.867 512.874 352.64C512.434 352.413 512.081 352.1 511.814 351.7C511.547 351.3 511.414 350.793 511.414 350.18C511.414 349.487 511.607 348.893 511.994 348.4C512.394 347.907 512.941 347.533 513.634 347.28C514.327 347.013 515.127 346.88 516.034 346.88C517.114 346.88 518.001 347.027 518.694 347.32C519.387 347.6 519.881 347.907 520.174 348.24L518.294 350.28C518.041 350.053 517.721 349.873 517.334 349.74C516.947 349.593 516.574 349.52 516.214 349.52C515.867 349.52 515.581 349.567 515.354 349.66C515.141 349.74 515.034 349.88 515.034 350.08C515.034 350.213 515.114 350.327 515.274 350.42C515.434 350.5 515.681 350.573 516.014 350.64C516.347 350.693 516.761 350.773 517.254 350.88C517.787 350.987 518.274 351.16 518.714 351.4C519.154 351.627 519.507 351.94 519.774 352.34C520.041 352.74 520.174 353.247 520.174 353.86C520.174 354.54 519.987 355.14 519.614 355.66C519.241 356.167 518.714 356.56 518.034 356.84C517.354 357.107 516.541 357.24 515.594 357.24ZM526.181 357.2C525.301 357.2 524.581 357.06 524.021 356.78C523.461 356.487 523.041 356.04 522.761 355.44C522.494 354.827 522.361 354.04 522.361 353.08V350.06H521.101V347.12H522.361V344.44H526.101V347.12H529.041V350.06H526.101V353.1C526.101 353.473 526.161 353.753 526.281 353.94C526.414 354.127 526.654 354.22 527.001 354.22C527.241 354.22 527.467 354.173 527.681 354.08C527.894 353.973 528.067 353.847 528.201 353.7L529.321 356.2C528.974 356.533 528.541 356.787 528.021 356.96C527.514 357.12 526.901 357.2 526.181 357.2ZM535.191 357V347.12H538.711V348.78H538.831C539.071 348.153 539.471 347.68 540.031 347.36C540.591 347.04 541.178 346.88 541.791 346.88C542.671 346.88 543.344 347.053 543.811 347.4C544.291 347.747 544.624 348.24 544.811 348.88C544.958 348.507 545.178 348.173 545.471 347.88C545.778 347.573 546.138 347.333 546.551 347.16C546.978 346.973 547.418 346.88 547.871 346.88C548.751 346.88 549.431 347.047 549.911 347.38C550.404 347.713 550.744 348.193 550.931 348.82C551.118 349.447 551.211 350.2 551.211 351.08V357H547.451V351.68C547.451 351.387 547.418 351.12 547.351 350.88C547.284 350.627 547.164 350.42 546.991 350.26C546.831 350.1 546.591 350.02 546.271 350.02C545.831 350.02 545.518 350.16 545.331 350.44C545.158 350.72 545.071 351.1 545.071 351.58V357H541.311V351.68C541.311 351.387 541.278 351.12 541.211 350.88C541.158 350.627 541.051 350.42 540.891 350.26C540.731 350.1 540.484 350.02 540.151 350.02C539.711 350.02 539.398 350.16 539.211 350.44C539.038 350.72 538.951 351.1 538.951 351.58V357H535.191ZM555.587 357.24C555.041 357.24 554.514 357.127 554.007 356.9C553.501 356.66 553.087 356.32 552.767 355.88C552.447 355.427 552.287 354.867 552.287 354.2C552.287 353.6 552.434 353.087 552.727 352.66C553.021 352.22 553.474 351.88 554.087 351.64C554.714 351.4 555.514 351.253 556.487 351.2L558.427 351.08V350.96C558.427 350.667 558.341 350.447 558.167 350.3C558.007 350.14 557.787 350.027 557.507 349.96C557.241 349.893 556.961 349.86 556.667 349.86C556.267 349.86 555.881 349.927 555.507 350.06C555.134 350.193 554.841 350.373 554.627 350.6L552.667 348.52C553.107 348.013 553.701 347.613 554.447 347.32C555.207 347.027 556.161 346.88 557.307 346.88C558.267 346.88 559.107 347.02 559.827 347.3C560.561 347.58 561.134 348.007 561.547 348.58C561.961 349.153 562.167 349.88 562.167 350.76V357H558.647V355.54H558.527C558.274 356.033 557.907 356.44 557.427 356.76C556.947 357.08 556.334 357.24 555.587 357.24ZM557.087 354.86C557.474 354.86 557.794 354.753 558.047 354.54C558.301 354.313 558.427 353.96 558.427 353.48V353.04L557.067 353.14C556.721 353.153 556.467 353.247 556.307 353.42C556.147 353.593 556.067 353.8 556.067 354.04C556.067 354.32 556.167 354.527 556.367 354.66C556.581 354.793 556.821 354.86 557.087 354.86ZM562.687 357L566.247 352.04L562.947 347.12H567.287L568.487 349.26H568.627L569.787 347.12H573.727L570.407 351.72L573.987 357H569.567L568.167 354.5H568.027L566.587 357H562.687ZM582.149 357L578.729 347.12H582.849L584.169 352.7H584.289L585.589 347.12H589.589L590.889 352.7H591.009L592.329 347.12H596.209L592.809 357H588.969L587.489 350.92H587.369L585.849 357H582.149ZM597.164 357V347.12H600.924V357H597.164ZM599.044 346.2C598.364 346.2 597.857 346.007 597.524 345.62C597.19 345.233 597.024 344.793 597.024 344.3C597.024 343.793 597.19 343.347 597.524 342.96C597.857 342.573 598.364 342.38 599.044 342.38C599.724 342.38 600.23 342.573 600.564 342.96C600.91 343.347 601.084 343.793 601.084 344.3C601.084 344.793 600.91 345.233 600.564 345.62C600.23 346.007 599.724 346.2 599.044 346.2ZM606.254 357.24C605.508 357.24 604.814 357.033 604.174 356.62C603.548 356.207 603.048 355.62 602.674 354.86C602.301 354.1 602.114 353.213 602.114 352.2C602.114 351.133 602.301 350.2 602.674 349.4C603.048 348.6 603.548 347.98 604.174 347.54C604.814 347.1 605.508 346.88 606.254 346.88C606.948 346.88 607.521 347.047 607.974 347.38C608.441 347.713 608.768 348.147 608.954 348.68H609.074V342.5H612.834V357H609.274V355.32H609.154C608.901 355.933 608.528 356.407 608.034 356.74C607.541 357.073 606.948 357.24 606.254 357.24ZM607.514 354.08C607.901 354.08 608.208 353.98 608.434 353.78C608.674 353.58 608.841 353.327 608.934 353.02C609.041 352.713 609.094 352.393 609.094 352.06C609.094 351.727 609.041 351.407 608.934 351.1C608.841 350.793 608.674 350.54 608.434 350.34C608.208 350.14 607.901 350.04 607.514 350.04C607.141 350.04 606.841 350.14 606.614 350.34C606.388 350.54 606.221 350.793 606.114 351.1C606.008 351.407 605.954 351.727 605.954 352.06C605.954 352.393 606.008 352.713 606.114 353.02C606.221 353.327 606.388 353.58 606.614 353.78C606.841 353.98 607.141 354.08 607.514 354.08ZM619.188 357.2C618.308 357.2 617.588 357.06 617.028 356.78C616.468 356.487 616.048 356.04 615.768 355.44C615.502 354.827 615.368 354.04 615.368 353.08V350.06H614.108V347.12H615.368V344.44H619.108V347.12H622.048V350.06H619.108V353.1C619.108 353.473 619.168 353.753 619.288 353.94C619.422 354.127 619.662 354.22 620.008 354.22C620.248 354.22 620.475 354.173 620.688 354.08C620.902 353.973 621.075 353.847 621.208 353.7L622.328 356.2C621.982 356.533 621.548 356.787 621.028 356.96C620.522 357.12 619.908 357.2 619.188 357.2ZM623.394 357V342.5H627.154V348.36H627.254C627.521 347.907 627.901 347.547 628.394 347.28C628.888 347.013 629.428 346.88 630.014 346.88C631.281 346.88 632.161 347.213 632.654 347.88C633.148 348.547 633.394 349.533 633.394 350.84V357H629.634V351.82C629.634 351.207 629.541 350.753 629.354 350.46C629.181 350.167 628.868 350.02 628.414 350.02C627.961 350.02 627.634 350.16 627.434 350.44C627.248 350.707 627.154 351.14 627.154 351.74V357H623.394ZM640.601 350.58V347.58H649.881V350.58H640.601ZM640.601 354.98V351.98H649.881V354.98H640.601ZM657.725 357L663.225 347.1H657.185V344H667.925V346.6L662.165 357H657.725ZM669.704 357V355.02C669.704 354.087 669.85 353.32 670.144 352.72C670.437 352.107 670.857 351.593 671.404 351.18C671.95 350.753 672.59 350.36 673.324 350C674.15 349.6 674.77 349.287 675.184 349.06C675.597 348.833 675.87 348.64 676.004 348.48C676.137 348.307 676.204 348.113 676.204 347.9C676.204 347.58 676.044 347.353 675.724 347.22C675.417 347.073 675.017 347 674.524 347C673.99 347 673.484 347.087 673.004 347.26C672.537 347.42 672.124 347.667 671.764 348L669.824 345.7C670.41 345.087 671.137 344.613 672.004 344.28C672.87 343.933 673.864 343.76 674.984 343.76C675.917 343.76 676.77 343.9 677.544 344.18C678.33 344.447 678.964 344.867 679.444 345.44C679.924 346 680.164 346.727 680.164 347.62C680.164 348.34 680.017 348.973 679.724 349.52C679.43 350.053 678.97 350.54 678.344 350.98C677.73 351.42 676.937 351.873 675.964 352.34C675.43 352.58 675.004 352.78 674.684 352.94C674.377 353.1 674.15 353.24 674.004 353.36C673.87 353.48 673.804 353.62 673.804 353.78V353.96H680.544V357H669.704ZM687.643 357.24C686.256 357.24 685.123 356.933 684.243 356.32C683.363 355.707 682.709 354.893 682.283 353.88C681.869 352.853 681.663 351.727 681.663 350.5C681.663 349.58 681.783 348.713 682.023 347.9C682.263 347.087 682.623 346.373 683.103 345.76C683.583 345.133 684.196 344.647 684.943 344.3C685.703 343.94 686.603 343.76 687.643 343.76C689.043 343.76 690.183 344.067 691.063 344.68C691.943 345.28 692.589 346.093 693.003 347.12C693.429 348.133 693.643 349.26 693.643 350.5C693.643 351.42 693.523 352.287 693.283 353.1C693.056 353.913 692.696 354.633 692.203 355.26C691.723 355.873 691.103 356.36 690.343 356.72C689.596 357.067 688.696 357.24 687.643 357.24ZM687.663 354.06C687.889 354.06 688.096 354.02 688.283 353.94C688.483 353.847 688.663 353.713 688.823 353.54C688.983 353.353 689.123 353.12 689.243 352.84C689.363 352.547 689.449 352.213 689.503 351.84C689.569 351.453 689.603 351.007 689.603 350.5C689.603 349.247 689.416 348.34 689.043 347.78C688.669 347.22 688.209 346.94 687.663 346.94C687.436 346.94 687.223 346.987 687.023 347.08C686.836 347.16 686.656 347.293 686.483 347.48C686.323 347.653 686.183 347.887 686.063 348.18C685.943 348.46 685.849 348.793 685.783 349.18C685.729 349.567 685.703 350.007 685.703 350.5C685.703 351.753 685.889 352.66 686.263 353.22C686.649 353.78 687.116 354.06 687.663 354.06ZM694.742 360.7V347.12H698.302V348.8H698.422C698.689 348.187 699.069 347.713 699.562 347.38C700.055 347.047 700.642 346.88 701.322 346.88C702.095 346.88 702.795 347.087 703.422 347.5C704.049 347.913 704.549 348.5 704.922 349.26C705.295 350.02 705.482 350.907 705.482 351.92C705.482 352.973 705.295 353.907 704.922 354.72C704.549 355.52 704.049 356.14 703.422 356.58C702.795 357.02 702.095 357.24 701.322 357.24C700.642 357.24 700.069 357.073 699.602 356.74C699.149 356.407 698.822 355.973 698.622 355.44H698.502V360.7H694.742ZM700.082 354.08C700.455 354.08 700.755 353.98 700.982 353.78C701.209 353.58 701.375 353.327 701.482 353.02C701.589 352.713 701.642 352.393 701.642 352.06C701.642 351.727 701.589 351.407 701.482 351.1C701.375 350.793 701.209 350.54 700.982 350.34C700.755 350.14 700.455 350.04 700.082 350.04C699.695 350.04 699.382 350.14 699.142 350.34C698.915 350.54 698.749 350.793 698.642 351.1C698.535 351.407 698.482 351.727 698.482 352.06C698.482 352.393 698.535 352.713 698.642 353.02C698.749 353.327 698.915 353.58 699.142 353.78C699.382 353.98 699.695 354.08 700.082 354.08ZM705.285 357L708.845 352.04L705.545 347.12H709.885L711.085 349.26H711.225L712.385 347.12H716.325L713.005 351.72L716.585 357H712.165L710.765 354.5H710.625L709.185 357H705.285ZM722.547 351.54C722.547 350.433 722.72 349.407 723.067 348.46C723.414 347.5 723.874 346.633 724.447 345.86C725.02 345.073 725.654 344.387 726.347 343.8C727.04 343.2 727.734 342.707 728.427 342.32L729.687 343.5C729.314 343.887 728.947 344.353 728.587 344.9C728.227 345.433 727.9 346.04 727.607 346.72C727.314 347.4 727.074 348.147 726.887 348.96C726.714 349.76 726.627 350.62 726.627 351.54C726.627 352.767 726.78 353.893 727.087 354.92C727.394 355.933 727.78 356.833 728.247 357.62C728.714 358.407 729.194 359.06 729.687 359.58L728.427 360.76C727.734 360.373 727.04 359.88 726.347 359.28C725.654 358.68 725.02 357.987 724.447 357.2C723.874 356.427 723.414 355.567 723.067 354.62C722.72 353.673 722.547 352.647 722.547 351.54ZM731.361 357V350.06H730.101V347.12H731.361V346.44C731.361 345.573 731.521 344.833 731.841 344.22C732.174 343.593 732.661 343.113 733.301 342.78C733.941 342.433 734.741 342.26 735.701 342.26C736.034 342.26 736.354 342.293 736.661 342.36C736.967 342.427 737.221 342.507 737.421 342.6L736.321 345.38C736.254 345.327 736.167 345.287 736.061 345.26C735.967 345.233 735.867 345.22 735.761 345.22C735.561 345.22 735.401 345.3 735.281 345.46C735.174 345.607 735.121 345.86 735.121 346.22V347.12H737.421V350.06H735.121V357H731.361ZM738.55 357V347.12H742.31V357H738.55ZM740.43 346.2C739.75 346.2 739.244 346.007 738.91 345.62C738.577 345.233 738.41 344.793 738.41 344.3C738.41 343.793 738.577 343.347 738.91 342.96C739.244 342.573 739.75 342.38 740.43 342.38C741.11 342.38 741.617 342.573 741.95 342.96C742.297 343.347 742.47 343.793 742.47 344.3C742.47 344.793 742.297 345.233 741.95 345.62C741.617 346.007 741.11 346.2 740.43 346.2ZM742.941 357L746.501 352.04L743.201 347.12H747.541L748.741 349.26H748.881L750.041 347.12H753.981L750.661 351.72L754.241 357H749.821L748.421 354.5H748.281L746.841 357H742.941ZM759.268 357.24C758.135 357.24 757.175 357.013 756.388 356.56C755.601 356.093 755.008 355.473 754.608 354.7C754.208 353.913 754.008 353.033 754.008 352.06C754.008 351.313 754.115 350.627 754.328 350C754.541 349.373 754.855 348.827 755.268 348.36C755.695 347.88 756.228 347.513 756.868 347.26C757.521 347.007 758.275 346.88 759.128 346.88C759.968 346.88 760.701 347.007 761.328 347.26C761.955 347.513 762.475 347.873 762.888 348.34C763.301 348.793 763.608 349.333 763.808 349.96C764.008 350.573 764.108 351.253 764.108 352C764.108 352.173 764.088 352.373 764.048 352.6C764.021 352.827 763.988 353 763.948 353.12H757.628C757.695 353.413 757.821 353.653 758.008 353.84C758.195 354.027 758.421 354.167 758.688 354.26C758.968 354.34 759.248 354.38 759.528 354.38C759.928 354.38 760.281 354.32 760.588 354.2C760.895 354.08 761.135 353.927 761.308 353.74L763.288 355.76C762.941 356.213 762.408 356.573 761.688 356.84C760.968 357.107 760.161 357.24 759.268 357.24ZM759.088 349.46C758.835 349.46 758.601 349.52 758.388 349.64C758.188 349.747 758.021 349.913 757.888 350.14C757.755 350.353 757.668 350.62 757.628 350.94H760.548C760.508 350.607 760.415 350.333 760.268 350.12C760.135 349.907 759.968 349.747 759.768 349.64C759.581 349.52 759.355 349.46 759.088 349.46ZM768.969 357.24C768.223 357.24 767.529 357.033 766.889 356.62C766.263 356.207 765.763 355.62 765.389 354.86C765.016 354.1 764.829 353.213 764.829 352.2C764.829 351.133 765.016 350.2 765.389 349.4C765.763 348.6 766.263 347.98 766.889 347.54C767.529 347.1 768.223 346.88 768.969 346.88C769.663 346.88 770.236 347.047 770.689 347.38C771.156 347.713 771.483 348.147 771.669 348.68H771.789V342.5H775.549V357H771.989V355.32H771.869C771.616 355.933 771.243 356.407 770.749 356.74C770.256 357.073 769.663 357.24 768.969 357.24ZM770.229 354.08C770.616 354.08 770.923 353.98 771.149 353.78C771.389 353.58 771.556 353.327 771.649 353.02C771.756 352.713 771.809 352.393 771.809 352.06C771.809 351.727 771.756 351.407 771.649 351.1C771.556 350.793 771.389 350.54 771.149 350.34C770.923 350.14 770.616 350.04 770.229 350.04C769.856 350.04 769.556 350.14 769.329 350.34C769.103 350.54 768.936 350.793 768.829 351.1C768.723 351.407 768.669 351.727 768.669 352.06C768.669 352.393 768.723 352.713 768.829 353.02C768.936 353.327 769.103 353.58 769.329 353.78C769.556 353.98 769.856 354.08 770.229 354.08ZM779.523 351.54C779.523 350.3 779.37 349.173 779.063 348.16C778.77 347.133 778.39 346.233 777.923 345.46C777.457 344.673 776.97 344.02 776.463 343.5L777.743 342.32C778.437 342.707 779.13 343.2 779.823 343.8C780.517 344.387 781.15 345.073 781.723 345.86C782.297 346.633 782.757 347.5 783.103 348.46C783.45 349.407 783.623 350.433 783.623 351.54C783.623 352.647 783.45 353.673 783.103 354.62C782.757 355.567 782.297 356.427 781.723 357.2C781.15 357.987 780.517 358.68 779.823 359.28C779.13 359.88 778.437 360.373 777.743 360.76L776.463 359.58C776.837 359.193 777.203 358.727 777.563 358.18C777.937 357.633 778.27 357.027 778.563 356.36C778.857 355.68 779.09 354.94 779.263 354.14C779.437 353.327 779.523 352.46 779.523 351.54Z" fill="black"/>
</g>
<defs>
<filter id="filter0_f_27735_3976" x="-17" y="-134" width="1062" height="529" filterUnits="userSpaceOnUse" color-interpolation-filters="sRGB">
<feFlood flood-opacity="0" result="BackgroundImageFix"/>
<feBlend mode="normal" in="SourceGraphic" in2="BackgroundImageFix" result="shape"/>
<feGaussianBlur stdDeviation="35" result="effect1_foregroundBlur_27735_3976"/>
</filter>
<filter id="filter1_ddd_27735_3976" x="158.875" y="177.75" width="714.25" height="126.875" filterUnits="userSpaceOnUse" color-interpolation-filters="sRGB">
<feFlood flood-opacity="0" result="BackgroundImageFix"/>
<feColorMatrix in="SourceAlpha" type="matrix" values="0 0 0 0 0 0 0 0 0 0 0 0 0 0 0 0 0 0 127 0" result="hardAlpha"/>
<feOffset dy="7.25"/>
<feGaussianBlur stdDeviation="5.4375"/>
<feColorMatrix type="matrix" values="0 0 0 0 0 0 0 0 0 0 0 0 0 0 0 0 0 0 0.04 0"/>
<feBlend mode="normal" in2="BackgroundImageFix" result="effect1_dropShadow_27735_3976"/>
<feColorMatrix in="SourceAlpha" type="matrix" values="0 0 0 0 0 0 0 0 0 0 0 0 0 0 0 0 0 0 127 0" result="hardAlpha"/>
<feMorphology radius="3.625" operator="erode" in="SourceAlpha" result="effect2_dropShadow_27735_3976"/>
<feOffset dy="14.5"/>
<feGaussianBlur stdDeviation="10.875"/>
<feColorMatrix type="matrix" values="0 0 0 0 0 0 0 0 0 0 0 0 0 0 0 0 0 0 0.06 0"/>
<feBlend mode="normal" in2="effect1_dropShadow_27735_3976" result="effect2_dropShadow_27735_3976"/>
<feColorMatrix in="SourceAlpha" type="matrix" values="0 0 0 0 0 0 0 0 0 0 0 0 0 0 0 0 0 0 127 0" result="hardAlpha"/>
<feOffset dy="3.625"/>
<feGaussianBlur stdDeviation="5.4375"/>
<feColorMatrix type="matrix" values="0 0 0 0 0 0 0 0 0 0 0 0 0 0 0 0 0 0 0.04 0"/>
<feBlend mode="normal" in2="effect2_dropShadow_27735_3976" result="effect3_dropShadow_27735_3976"/>
<feBlend mode="normal" in="SourceGraphic" in2="effect3_dropShadow_27735_3976" result="shape"/>
</filter>
<clipPath id="clip0_27735_3976">
<path d="M177 199.204C177 191.359 183.359 185 191.204 185H840.796C848.641 185 855 191.359 855 199.204V257.796C855 265.641 848.641 272 840.796 272H191.204C183.359 272 177 265.641 177 257.796V199.204Z" fill="white"/>
</clipPath>
<clipPath id="clip1_27735_3976">
<rect width="31.7188" height="31.7188" fill="white" transform="translate(208.266 212.266)"/>
</clipPath>
</defs>
</svg>
