<svg width="1034" height="402" viewBox="0 0 1034 402" fill="none" xmlns="http://www.w3.org/2000/svg">
<rect x="0.5" y="0.5" width="1033" height="401" rx="16.5" fill="#C1DADE" stroke="#DBD9D7"/>
<mask id="mask0_740_151631" style="mask-type:alpha" maskUnits="userSpaceOnUse" x="1" y="1" width="1032" height="400">
<rect x="1" y="1" width="1032" height="400" rx="16" fill="#00DCFF"/>
</mask>
<g mask="url(#mask0_740_151631)">
<g filter="url(#filter0_f_740_151631)">
<rect x="156" y="97" width="722" height="349" rx="24" fill="#577F85"/>
<rect x="159" y="100" width="716" height="343" rx="21" stroke="#AACBD0" stroke-width="6"/>
</g>
<rect x="160" y="101" width="714" height="388" rx="20" fill="white" stroke="#AACBD0" stroke-width="8"/>
<rect width="594" height="108" transform="translate(220 153)" fill="white"/>
<path d="M252.64 200.288C251.424 200.288 250.352 200.072 249.424 199.64C248.512 199.208 247.744 198.624 247.12 197.888C246.496 197.152 246.024 196.296 245.704 195.32C245.4 194.328 245.248 193.272 245.248 192.152C245.248 191.032 245.4 189.984 245.704 189.008C246.024 188.032 246.496 187.184 247.12 186.464C247.744 185.728 248.512 185.152 249.424 184.736C250.352 184.32 251.424 184.112 252.64 184.112C253.84 184.112 254.896 184.32 255.808 184.736C256.736 185.152 257.512 185.728 258.136 186.464C258.76 187.184 259.224 188.032 259.528 189.008C259.848 189.984 260.008 191.032 260.008 192.152C260.008 193.272 259.848 194.328 259.528 195.32C259.224 196.296 258.76 197.152 258.136 197.888C257.512 198.624 256.736 199.208 255.808 199.64C254.896 200.072 253.84 200.288 252.64 200.288ZM252.64 198.536C253.408 198.536 254.112 198.392 254.752 198.104C255.408 197.816 255.968 197.4 256.432 196.856C256.896 196.312 257.256 195.648 257.512 194.864C257.784 194.064 257.92 193.16 257.92 192.152C257.92 191.144 257.784 190.248 257.512 189.464C257.256 188.68 256.896 188.024 256.432 187.496C255.968 186.952 255.408 186.544 254.752 186.272C254.112 186 253.408 185.864 252.64 185.864C251.872 185.864 251.16 186 250.504 186.272C249.848 186.544 249.288 186.952 248.824 187.496C248.36 188.024 247.992 188.68 247.72 189.464C247.464 190.248 247.336 191.144 247.336 192.152C247.336 193.16 247.464 194.064 247.72 194.864C247.992 195.648 248.36 196.312 248.824 196.856C249.288 197.4 249.848 197.816 250.504 198.104C251.16 198.392 251.872 198.536 252.64 198.536ZM263.29 188.144H265.114V190.064H265.258C265.514 189.44 265.882 188.92 266.362 188.504C266.842 188.072 267.442 187.856 268.162 187.856C268.77 187.856 269.306 187.976 269.77 188.216L269.122 189.944C268.914 189.832 268.69 189.76 268.45 189.728C268.226 189.68 267.994 189.656 267.754 189.656C266.97 189.656 266.346 189.976 265.882 190.616C265.434 191.24 265.21 192.04 265.21 193.016V200H263.29V188.144ZM275.929 200.288C275.129 200.288 274.409 200.136 273.769 199.832C273.129 199.512 272.577 199.08 272.113 198.536C271.649 197.976 271.289 197.312 271.033 196.544C270.793 195.776 270.673 194.944 270.673 194.048C270.673 193.152 270.793 192.328 271.033 191.576C271.289 190.808 271.649 190.152 272.113 189.608C272.577 189.048 273.129 188.616 273.769 188.312C274.409 188.008 275.129 187.856 275.929 187.856C276.905 187.856 277.745 188.088 278.449 188.552C279.153 189.016 279.657 189.608 279.961 190.328H280.105V182.6H282.025V200H280.201V197.576H280.057C279.913 197.992 279.705 198.368 279.433 198.704C279.177 199.024 278.865 199.304 278.497 199.544C278.145 199.784 277.745 199.968 277.297 200.096C276.865 200.224 276.409 200.288 275.929 200.288ZM276.409 198.56C276.921 198.56 277.401 198.472 277.849 198.296C278.297 198.104 278.689 197.824 279.025 197.456C279.361 197.072 279.625 196.6 279.817 196.04C280.009 195.48 280.105 194.824 280.105 194.072C280.105 193.32 280.009 192.664 279.817 192.104C279.625 191.544 279.361 191.08 279.025 190.712C278.689 190.328 278.297 190.048 277.849 189.872C277.401 189.68 276.921 189.584 276.409 189.584C275.881 189.584 275.385 189.68 274.921 189.872C274.473 190.048 274.073 190.328 273.721 190.712C273.385 191.08 273.121 191.544 272.929 192.104C272.737 192.664 272.641 193.32 272.641 194.072C272.641 194.824 272.737 195.48 272.929 196.04C273.121 196.6 273.385 197.072 273.721 197.456C274.073 197.824 274.473 198.104 274.921 198.296C275.385 198.472 275.881 198.56 276.409 198.56ZM290.727 200.288C289.879 200.288 289.103 200.144 288.399 199.856C287.711 199.568 287.119 199.16 286.623 198.632C286.143 198.088 285.767 197.432 285.495 196.664C285.239 195.896 285.111 195.032 285.111 194.072C285.111 193.064 285.247 192.176 285.519 191.408C285.791 190.624 286.167 189.976 286.647 189.464C287.127 188.936 287.695 188.536 288.351 188.264C289.023 187.992 289.759 187.856 290.559 187.856C291.359 187.856 292.095 187.984 292.767 188.24C293.439 188.496 294.015 188.88 294.495 189.392C294.975 189.888 295.351 190.52 295.623 191.288C295.895 192.04 296.031 192.92 296.031 193.928C296.031 194.056 296.023 194.184 296.007 194.312C296.007 194.44 295.999 194.544 295.983 194.624H287.031C287.031 195.184 287.127 195.712 287.319 196.208C287.527 196.688 287.799 197.112 288.135 197.48C288.487 197.832 288.887 198.112 289.335 198.32C289.799 198.528 290.295 198.632 290.823 198.632C291.687 198.632 292.391 198.464 292.935 198.128C293.495 197.792 293.959 197.384 294.327 196.904L295.479 198.08C294.967 198.752 294.327 199.288 293.559 199.688C292.807 200.088 291.863 200.288 290.727 200.288ZM290.559 189.44C289.999 189.44 289.503 189.544 289.071 189.752C288.639 189.96 288.279 190.232 287.991 190.568C287.703 190.904 287.479 191.288 287.319 191.72C287.175 192.152 287.095 192.584 287.079 193.016H294.015C293.999 192.584 293.911 192.152 293.751 191.72C293.607 191.288 293.391 190.904 293.103 190.568C292.815 190.232 292.455 189.96 292.023 189.752C291.607 189.544 291.119 189.44 290.559 189.44ZM299.126 188.144H300.95V190.064H301.094C301.35 189.44 301.718 188.92 302.198 188.504C302.678 188.072 303.278 187.856 303.998 187.856C304.606 187.856 305.142 187.976 305.606 188.216L304.958 189.944C304.75 189.832 304.526 189.76 304.286 189.728C304.062 189.68 303.83 189.656 303.59 189.656C302.806 189.656 302.182 189.976 301.718 190.616C301.27 191.24 301.046 192.04 301.046 193.016V200H299.126V188.144ZM315.165 196.136H312.573L312.765 194.696H315.357L316.077 189.704H313.485L313.677 188.264H316.269L316.821 184.4H318.549L317.997 188.264H321.549L322.101 184.4H323.829L323.277 188.264H325.869L325.677 189.704H323.085L322.365 194.696H324.957L324.765 196.136H322.173L321.621 200H319.893L320.445 196.136H316.893L316.341 200H314.613L315.165 196.136ZM320.637 194.696L321.357 189.704H317.805L317.085 194.696H320.637ZM328.993 197.408C328.993 196.768 329.105 196.208 329.329 195.728C329.553 195.232 329.857 194.784 330.241 194.384C330.641 193.968 331.105 193.584 331.633 193.232C332.177 192.88 332.761 192.52 333.385 192.152C333.881 191.848 334.321 191.568 334.705 191.312C335.089 191.04 335.409 190.76 335.665 190.472C335.921 190.184 336.113 189.88 336.241 189.56C336.369 189.24 336.433 188.872 336.433 188.456C336.433 187.608 336.161 186.968 335.617 186.536C335.089 186.088 334.409 185.864 333.577 185.864C332.745 185.864 332.025 186.032 331.417 186.368C330.809 186.688 330.297 187.12 329.881 187.664L328.777 186.512C329.257 185.792 329.889 185.216 330.673 184.784C331.457 184.336 332.401 184.112 333.505 184.112C334.321 184.112 335.041 184.224 335.665 184.448C336.289 184.656 336.809 184.952 337.225 185.336C337.657 185.704 337.977 186.152 338.185 186.68C338.409 187.192 338.521 187.752 338.521 188.36C338.521 189.048 338.401 189.656 338.161 190.184C337.921 190.712 337.601 191.192 337.201 191.624C336.801 192.056 336.337 192.448 335.809 192.8C335.297 193.136 334.753 193.464 334.177 193.784C333.665 194.072 333.209 194.344 332.809 194.6C332.409 194.856 332.073 195.128 331.801 195.416C331.545 195.704 331.345 196.024 331.201 196.376C331.073 196.728 331.009 197.144 331.009 197.624V198.272H338.905V200H328.993V197.408ZM349.671 196.784H342.399V195.176L349.287 184.4H351.567L344.655 195.056H349.671V190.352H351.639V195.056H353.799V196.784H351.639V200H349.671V196.784ZM362.886 200.288C361.094 200.288 359.726 199.656 358.782 198.392C357.854 197.112 357.39 195.2 357.39 192.656C357.39 189.888 357.918 187.776 358.974 186.32C360.03 184.848 361.462 184.112 363.27 184.112C364.374 184.112 365.27 184.28 365.958 184.616C366.646 184.936 367.222 185.352 367.686 185.864L366.462 187.16C366.062 186.744 365.614 186.432 365.118 186.224C364.622 186 364.03 185.888 363.342 185.888C362.11 185.888 361.126 186.44 360.39 187.544C359.67 188.648 359.31 190.296 359.31 192.488H359.454C359.758 191.832 360.23 191.28 360.87 190.832C361.51 190.368 362.326 190.136 363.318 190.136C363.91 190.136 364.494 190.24 365.07 190.448C365.662 190.656 366.182 190.968 366.63 191.384C367.078 191.8 367.438 192.312 367.71 192.92C367.998 193.528 368.142 194.232 368.142 195.032C368.142 195.768 368.022 196.456 367.782 197.096C367.558 197.736 367.222 198.296 366.774 198.776C366.326 199.24 365.774 199.608 365.118 199.88C364.462 200.152 363.718 200.288 362.886 200.288ZM362.91 198.512C363.918 198.512 364.694 198.2 365.238 197.576C365.782 196.936 366.054 196.128 366.054 195.152C366.054 194.144 365.774 193.352 365.214 192.776C364.67 192.184 363.902 191.888 362.91 191.888C361.918 191.888 361.142 192.184 360.582 192.776C360.022 193.352 359.742 194.144 359.742 195.152C359.742 196.128 360.014 196.936 360.558 197.576C361.118 198.2 361.902 198.512 362.91 198.512ZM372.165 197.408C372.165 196.768 372.277 196.208 372.501 195.728C372.725 195.232 373.029 194.784 373.413 194.384C373.813 193.968 374.277 193.584 374.805 193.232C375.349 192.88 375.933 192.52 376.557 192.152C377.053 191.848 377.493 191.568 377.877 191.312C378.261 191.04 378.581 190.76 378.837 190.472C379.093 190.184 379.285 189.88 379.413 189.56C379.541 189.24 379.605 188.872 379.605 188.456C379.605 187.608 379.333 186.968 378.789 186.536C378.261 186.088 377.581 185.864 376.749 185.864C375.917 185.864 375.197 186.032 374.589 186.368C373.981 186.688 373.469 187.12 373.053 187.664L371.949 186.512C372.429 185.792 373.061 185.216 373.845 184.784C374.629 184.336 375.573 184.112 376.677 184.112C377.493 184.112 378.213 184.224 378.837 184.448C379.461 184.656 379.981 184.952 380.397 185.336C380.829 185.704 381.149 186.152 381.357 186.68C381.581 187.192 381.693 187.752 381.693 188.36C381.693 189.048 381.573 189.656 381.333 190.184C381.093 190.712 380.773 191.192 380.373 191.624C379.973 192.056 379.509 192.448 378.981 192.8C378.469 193.136 377.925 193.464 377.349 193.784C376.837 194.072 376.381 194.344 375.98 194.6C375.581 194.856 375.245 195.128 374.973 195.416C374.717 195.704 374.517 196.024 374.373 196.376C374.245 196.728 374.181 197.144 374.181 197.624V198.272H382.077V200H372.165V197.408Z" fill="#242E30"/>
<path d="M248.389 219.862H244.504V218.35H254.059V219.862H250.174V232H248.389V219.862ZM255.67 221.626H257.266V223.306H257.392C257.616 222.76 257.938 222.305 258.358 221.941C258.778 221.563 259.303 221.374 259.933 221.374C260.465 221.374 260.934 221.479 261.34 221.689L260.773 223.201C260.591 223.103 260.395 223.04 260.185 223.012C259.989 222.97 259.786 222.949 259.576 222.949C258.89 222.949 258.344 223.229 257.938 223.789C257.546 224.335 257.35 225.035 257.35 225.889V232H255.67V221.626ZM265.588 232.252C265.112 232.252 264.671 232.175 264.265 232.021C263.873 231.867 263.53 231.65 263.236 231.37C262.942 231.09 262.711 230.761 262.543 230.383C262.389 229.991 262.312 229.564 262.312 229.102C262.312 228.206 262.634 227.485 263.278 226.939C263.922 226.393 264.839 226.085 266.029 226.015L268.759 225.847V225.112C268.759 224.314 268.563 223.74 268.171 223.39C267.793 223.026 267.247 222.844 266.533 222.844C265.931 222.844 265.413 222.956 264.979 223.18C264.545 223.404 264.209 223.649 263.971 223.915L262.963 222.907C263.327 222.459 263.817 222.095 264.433 221.815C265.063 221.521 265.777 221.374 266.575 221.374C267.289 221.374 267.891 221.472 268.381 221.668C268.871 221.85 269.263 222.102 269.557 222.424C269.865 222.746 270.082 223.124 270.208 223.558C270.348 223.992 270.418 224.454 270.418 224.944V232H268.843V230.236H268.717C268.437 230.866 268.045 231.363 267.541 231.727C267.037 232.077 266.386 232.252 265.588 232.252ZM265.84 230.824C266.708 230.824 267.408 230.572 267.94 230.068C268.486 229.55 268.759 228.864 268.759 228.01V227.107L266.113 227.296C264.713 227.408 264.013 227.996 264.013 229.06C264.013 229.592 264.181 230.019 264.517 230.341C264.867 230.663 265.308 230.824 265.84 230.824ZM273.799 221.626H275.395V223.264H275.521C275.773 222.718 276.13 222.27 276.592 221.92C277.054 221.556 277.642 221.374 278.356 221.374C279.546 221.374 280.484 221.689 281.17 222.319C281.87 222.949 282.22 223.964 282.22 225.364V232H280.54V225.679C280.54 224.615 280.323 223.866 279.889 223.432C279.469 222.984 278.846 222.76 278.02 222.76C277.222 222.76 276.599 223.033 276.151 223.579C275.703 224.125 275.479 224.923 275.479 225.973V232H273.799V221.626ZM290.589 229.312C290.589 229.004 290.519 228.752 290.379 228.556C290.239 228.346 290.043 228.171 289.791 228.031C289.553 227.891 289.28 227.772 288.972 227.674C288.664 227.576 288.342 227.478 288.006 227.38C287.614 227.268 287.236 227.135 286.872 226.981C286.522 226.827 286.207 226.638 285.927 226.414C285.647 226.176 285.423 225.896 285.255 225.574C285.087 225.252 285.003 224.86 285.003 224.398C285.003 223.908 285.094 223.474 285.276 223.096C285.458 222.718 285.71 222.403 286.032 222.151C286.354 221.899 286.732 221.71 287.166 221.584C287.6 221.444 288.069 221.374 288.573 221.374C289.329 221.374 290.022 221.514 290.652 221.794C291.282 222.06 291.8 222.48 292.206 223.054L291.114 224.062C290.806 223.698 290.442 223.397 290.022 223.159C289.616 222.921 289.133 222.802 288.573 222.802C288.335 222.802 288.097 222.83 287.859 222.886C287.635 222.942 287.432 223.033 287.25 223.159C287.068 223.271 286.921 223.418 286.809 223.6C286.697 223.782 286.641 223.999 286.641 224.251C286.641 224.559 286.711 224.818 286.851 225.028C286.991 225.224 287.18 225.392 287.418 225.532C287.67 225.672 287.95 225.791 288.258 225.889C288.566 225.987 288.888 226.085 289.224 226.183C289.616 226.295 289.987 226.428 290.337 226.582C290.701 226.736 291.023 226.932 291.303 227.17C291.583 227.394 291.807 227.667 291.975 227.989C292.143 228.311 292.227 228.703 292.227 229.165C292.227 229.711 292.122 230.18 291.912 230.572C291.716 230.95 291.443 231.265 291.093 231.517C290.743 231.769 290.337 231.951 289.875 232.063C289.413 232.189 288.923 232.252 288.405 232.252C287.495 232.252 286.718 232.098 286.074 231.79C285.444 231.482 284.947 231.083 284.583 230.593L285.696 229.543C286.018 229.921 286.389 230.229 286.809 230.467C287.243 230.705 287.782 230.824 288.426 230.824C288.72 230.824 288.993 230.796 289.245 230.74C289.511 230.684 289.742 230.593 289.938 230.467C290.134 230.341 290.288 230.187 290.4 230.005C290.526 229.809 290.589 229.578 290.589 229.312ZM297.08 218.875C297.08 219.169 296.975 219.421 296.765 219.631C296.569 219.841 296.303 219.946 295.967 219.946C295.617 219.946 295.344 219.841 295.148 219.631C294.952 219.421 294.854 219.169 294.854 218.875C294.854 218.595 294.952 218.35 295.148 218.14C295.344 217.916 295.617 217.804 295.967 217.804C296.303 217.804 296.569 217.916 296.765 218.14C296.975 218.35 297.08 218.595 297.08 218.875ZM295.127 221.626H296.807V232H295.127V221.626ZM303.569 232.252C302.631 232.252 301.945 231.972 301.511 231.412C301.077 230.852 300.86 230.082 300.86 229.102V222.991H299.012V221.626H300.86V218.812H302.519V221.626H305.522V222.991H302.519V228.955C302.519 229.627 302.645 230.096 302.897 230.362C303.163 230.628 303.499 230.761 303.905 230.761C304.185 230.761 304.437 230.712 304.661 230.614C304.885 230.502 305.095 230.355 305.291 230.173L306.047 231.349C305.403 231.951 304.577 232.252 303.569 232.252ZM313.526 218.35H317.789C319.189 218.35 320.26 218.742 321.002 219.526C321.758 220.296 322.136 221.346 322.136 222.676C322.136 224.02 321.751 225.084 320.981 225.868C320.211 226.638 319.147 227.023 317.789 227.023H315.311V232H313.526V218.35ZM317.663 225.532C318.545 225.532 319.203 225.28 319.637 224.776C320.085 224.258 320.309 223.558 320.309 222.676C320.309 221.794 320.085 221.101 319.637 220.597C319.203 220.093 318.545 219.841 317.663 219.841H315.311V225.532H317.663ZM326.845 232.252C326.369 232.252 325.928 232.175 325.522 232.021C325.13 231.867 324.787 231.65 324.493 231.37C324.199 231.09 323.968 230.761 323.8 230.383C323.646 229.991 323.569 229.564 323.569 229.102C323.569 228.206 323.891 227.485 324.535 226.939C325.179 226.393 326.096 226.085 327.286 226.015L330.016 225.847V225.112C330.016 224.314 329.82 223.74 329.428 223.39C329.05 223.026 328.504 222.844 327.79 222.844C327.188 222.844 326.67 222.956 326.236 223.18C325.802 223.404 325.466 223.649 325.228 223.915L324.22 222.907C324.584 222.459 325.074 222.095 325.69 221.815C326.32 221.521 327.034 221.374 327.832 221.374C328.546 221.374 329.148 221.472 329.638 221.668C330.128 221.85 330.52 222.102 330.814 222.424C331.122 222.746 331.339 223.124 331.465 223.558C331.605 223.992 331.675 224.454 331.675 224.944V232H330.1V230.236H329.974C329.694 230.866 329.302 231.363 328.798 231.727C328.294 232.077 327.643 232.252 326.845 232.252ZM327.097 230.824C327.965 230.824 328.665 230.572 329.197 230.068C329.743 229.55 330.016 228.864 330.016 228.01V227.107L327.37 227.296C325.97 227.408 325.27 227.996 325.27 229.06C325.27 229.592 325.438 230.019 325.774 230.341C326.124 230.663 326.565 230.824 327.097 230.824ZM335.501 235.969C335.347 235.969 335.186 235.955 335.018 235.927C334.864 235.913 334.731 235.892 334.619 235.864V234.415C334.689 234.429 334.801 234.443 334.955 234.457C335.123 234.471 335.277 234.478 335.417 234.478C335.697 234.478 335.935 234.457 336.131 234.415C336.327 234.373 336.502 234.275 336.656 234.121C336.824 233.981 336.985 233.764 337.139 233.47C337.293 233.19 337.461 232.812 337.643 232.336L333.485 221.626H335.312L338.441 230.32H338.567L341.717 221.626H343.418L339.344 232.105C339.078 232.791 338.819 233.372 338.567 233.848C338.329 234.338 338.063 234.737 337.769 235.045C337.475 235.367 337.146 235.598 336.782 235.738C336.432 235.892 336.005 235.969 335.501 235.969ZM354.337 226.666H350.305V225.238H354.337V221.017H356.017V225.238H360.049V226.666H356.017V231.055H354.337V226.666ZM372.016 232.252C370.826 232.252 369.86 232.07 369.118 231.706C368.376 231.342 367.788 230.873 367.354 230.299L368.488 229.228C368.866 229.69 369.363 230.054 369.979 230.32C370.609 230.586 371.344 230.719 372.184 230.719C372.562 230.719 372.926 230.677 373.276 230.593C373.626 230.509 373.934 230.383 374.2 230.215C374.48 230.033 374.697 229.795 374.851 229.501C375.019 229.207 375.103 228.85 375.103 228.43C375.103 228.066 375.019 227.758 374.851 227.506C374.683 227.24 374.452 227.016 374.158 226.834C373.878 226.638 373.542 226.47 373.15 226.33C372.758 226.176 372.331 226.022 371.869 225.868C371.379 225.7 370.896 225.525 370.42 225.343C369.944 225.147 369.517 224.902 369.139 224.608C368.761 224.314 368.453 223.957 368.215 223.537C367.977 223.103 367.858 222.571 367.858 221.941C367.858 221.311 367.97 220.758 368.194 220.282C368.432 219.806 368.754 219.407 369.16 219.085C369.566 218.763 370.049 218.518 370.609 218.35C371.169 218.182 371.778 218.098 372.436 218.098C373.402 218.098 374.263 218.266 375.019 218.602C375.789 218.938 376.412 219.449 376.888 220.135L375.754 221.248C375.376 220.786 374.893 220.401 374.305 220.093C373.717 219.785 373.045 219.631 372.289 219.631C371.967 219.631 371.652 219.673 371.344 219.757C371.036 219.827 370.756 219.953 370.504 220.135C370.252 220.317 370.049 220.548 369.895 220.828C369.741 221.108 369.664 221.444 369.664 221.836C369.664 222.2 369.748 222.515 369.916 222.781C370.084 223.033 370.308 223.257 370.588 223.453C370.882 223.635 371.225 223.803 371.617 223.957C372.009 224.097 372.436 224.244 372.898 224.398C373.388 224.566 373.871 224.748 374.347 224.944C374.823 225.14 375.25 225.385 375.628 225.679C376.006 225.973 376.314 226.33 376.552 226.75C376.79 227.17 376.909 227.695 376.909 228.325C376.909 228.997 376.776 229.585 376.51 230.089C376.258 230.579 375.908 230.985 375.46 231.307C375.026 231.629 374.508 231.867 373.906 232.021C373.318 232.175 372.688 232.252 372.016 232.252ZM382.934 232.252C381.996 232.252 381.31 231.972 380.876 231.412C380.442 230.852 380.225 230.082 380.225 229.102V222.991H378.377V221.626H380.225V218.812H381.884V221.626H384.887V222.991H381.884V228.955C381.884 229.627 382.01 230.096 382.262 230.362C382.528 230.628 382.864 230.761 383.27 230.761C383.55 230.761 383.802 230.712 384.026 230.614C384.25 230.502 384.46 230.355 384.656 230.173L385.412 231.349C384.768 231.951 383.942 232.252 382.934 232.252ZM389.988 232.252C389.512 232.252 389.071 232.175 388.665 232.021C388.273 231.867 387.93 231.65 387.636 231.37C387.342 231.09 387.111 230.761 386.943 230.383C386.789 229.991 386.712 229.564 386.712 229.102C386.712 228.206 387.034 227.485 387.678 226.939C388.322 226.393 389.239 226.085 390.429 226.015L393.159 225.847V225.112C393.159 224.314 392.963 223.74 392.571 223.39C392.193 223.026 391.647 222.844 390.933 222.844C390.331 222.844 389.813 222.956 389.379 223.18C388.945 223.404 388.609 223.649 388.371 223.915L387.363 222.907C387.727 222.459 388.217 222.095 388.833 221.815C389.463 221.521 390.177 221.374 390.975 221.374C391.689 221.374 392.291 221.472 392.781 221.668C393.271 221.85 393.663 222.102 393.957 222.424C394.265 222.746 394.482 223.124 394.608 223.558C394.748 223.992 394.818 224.454 394.818 224.944V232H393.243V230.236H393.117C392.837 230.866 392.445 231.363 391.941 231.727C391.437 232.077 390.786 232.252 389.988 232.252ZM390.24 230.824C391.108 230.824 391.808 230.572 392.34 230.068C392.886 229.55 393.159 228.864 393.159 228.01V227.107L390.513 227.296C389.113 227.408 388.413 227.996 388.413 229.06C388.413 229.592 388.581 230.019 388.917 230.341C389.267 230.663 389.708 230.824 390.24 230.824ZM401.391 232.252C400.453 232.252 399.767 231.972 399.333 231.412C398.899 230.852 398.682 230.082 398.682 229.102V222.991H396.834V221.626H398.682V218.812H400.341V221.626H403.344V222.991H400.341V228.955C400.341 229.627 400.467 230.096 400.719 230.362C400.985 230.628 401.321 230.761 401.727 230.761C402.007 230.761 402.259 230.712 402.483 230.614C402.707 230.502 402.917 230.355 403.113 230.173L403.869 231.349C403.225 231.951 402.399 232.252 401.391 232.252ZM410.045 232.252C409.303 232.252 408.624 232.126 408.008 231.874C407.406 231.622 406.888 231.265 406.454 230.803C406.034 230.327 405.705 229.753 405.467 229.081C405.243 228.409 405.131 227.653 405.131 226.813C405.131 225.931 405.25 225.154 405.488 224.482C405.726 223.796 406.055 223.229 406.475 222.781C406.895 222.319 407.392 221.969 407.966 221.731C408.554 221.493 409.198 221.374 409.898 221.374C410.598 221.374 411.242 221.486 411.83 221.71C412.418 221.934 412.922 222.27 413.342 222.718C413.762 223.152 414.091 223.705 414.329 224.377C414.567 225.035 414.686 225.805 414.686 226.687C414.686 226.799 414.679 226.911 414.665 227.023C414.665 227.135 414.658 227.226 414.644 227.296H406.811C406.811 227.786 406.895 228.248 407.063 228.682C407.245 229.102 407.483 229.473 407.777 229.795C408.085 230.103 408.435 230.348 408.827 230.53C409.233 230.712 409.667 230.803 410.129 230.803C410.885 230.803 411.501 230.656 411.977 230.362C412.467 230.068 412.873 229.711 413.195 229.291L414.203 230.32C413.755 230.908 413.195 231.377 412.523 231.727C411.865 232.077 411.039 232.252 410.045 232.252ZM409.898 222.76C409.408 222.76 408.974 222.851 408.596 223.033C408.218 223.215 407.903 223.453 407.651 223.747C407.399 224.041 407.203 224.377 407.063 224.755C406.937 225.133 406.867 225.511 406.853 225.889H412.922C412.908 225.511 412.831 225.133 412.691 224.755C412.565 224.377 412.376 224.041 412.124 223.747C411.872 223.453 411.557 223.215 411.179 223.033C410.815 222.851 410.388 222.76 409.898 222.76ZM421.132 232.252C420.432 232.252 419.802 232.119 419.242 231.853C418.682 231.573 418.199 231.195 417.793 230.719C417.387 230.229 417.072 229.648 416.848 228.976C416.638 228.304 416.533 227.576 416.533 226.792C416.533 226.008 416.638 225.287 416.848 224.629C417.072 223.957 417.387 223.383 417.793 222.907C418.199 222.417 418.682 222.039 419.242 221.773C419.802 221.507 420.432 221.374 421.132 221.374C421.986 221.374 422.721 221.577 423.337 221.983C423.953 222.389 424.394 222.907 424.66 223.537H424.786V216.775H426.466V232H424.87V229.879H424.744C424.618 230.243 424.436 230.572 424.198 230.866C423.974 231.146 423.701 231.391 423.379 231.601C423.071 231.811 422.721 231.972 422.329 232.084C421.951 232.196 421.552 232.252 421.132 232.252ZM421.552 230.74C422 230.74 422.42 230.663 422.812 230.509C423.204 230.341 423.547 230.096 423.841 229.774C424.135 229.438 424.366 229.025 424.534 228.535C424.702 228.045 424.786 227.471 424.786 226.813C424.786 226.155 424.702 225.581 424.534 225.091C424.366 224.601 424.135 224.195 423.841 223.873C423.547 223.537 423.204 223.292 422.812 223.138C422.42 222.97 422 222.886 421.552 222.886C421.09 222.886 420.656 222.97 420.25 223.138C419.858 223.292 419.508 223.537 419.2 223.873C418.906 224.195 418.675 224.601 418.507 225.091C418.339 225.581 418.255 226.155 418.255 226.813C418.255 227.471 418.339 228.045 418.507 228.535C418.675 229.025 418.906 229.438 419.2 229.774C419.508 230.096 419.858 230.341 420.25 230.509C420.656 230.663 421.09 230.74 421.552 230.74ZM437.676 219.862H433.791V218.35H443.346V219.862H439.461V232H437.676V219.862ZM447.587 218.875C447.587 219.169 447.482 219.421 447.272 219.631C447.076 219.841 446.81 219.946 446.474 219.946C446.124 219.946 445.851 219.841 445.655 219.631C445.459 219.421 445.361 219.169 445.361 218.875C445.361 218.595 445.459 218.35 445.655 218.14C445.851 217.916 446.124 217.804 446.474 217.804C446.81 217.804 447.076 217.916 447.272 218.14C447.482 218.35 447.587 218.595 447.587 218.875ZM445.634 221.626H447.314V232H445.634V221.626ZM450.884 221.626H452.48V223.747H452.606C452.732 223.397 452.907 223.075 453.131 222.781C453.369 222.487 453.642 222.235 453.95 222.025C454.272 221.815 454.622 221.654 455 221.542C455.392 221.43 455.798 221.374 456.218 221.374C456.904 221.374 457.527 221.514 458.087 221.794C458.661 222.06 459.151 222.438 459.557 222.928C459.963 223.404 460.271 223.978 460.481 224.65C460.705 225.322 460.817 226.05 460.817 226.834C460.817 227.618 460.705 228.346 460.481 229.018C460.271 229.676 459.963 230.25 459.557 230.74C459.151 231.216 458.661 231.587 458.087 231.853C457.527 232.119 456.904 232.252 456.218 232.252C455.364 232.252 454.629 232.049 454.013 231.643C453.397 231.237 452.956 230.719 452.69 230.089H452.564V235.885H450.884V221.626ZM455.798 230.74C456.26 230.74 456.687 230.663 457.079 230.509C457.485 230.341 457.835 230.096 458.129 229.774C458.437 229.438 458.675 229.025 458.843 228.535C459.011 228.045 459.095 227.471 459.095 226.813C459.095 226.155 459.011 225.581 458.843 225.091C458.675 224.601 458.437 224.195 458.129 223.873C457.835 223.537 457.485 223.292 457.079 223.138C456.687 222.97 456.26 222.886 455.798 222.886C455.35 222.886 454.93 222.97 454.538 223.138C454.146 223.292 453.803 223.537 453.509 223.873C453.215 224.195 452.984 224.601 452.816 225.091C452.648 225.581 452.564 226.155 452.564 226.813C452.564 227.471 452.648 228.045 452.816 228.535C452.984 229.025 453.215 229.438 453.509 229.774C453.803 230.096 454.146 230.341 454.538 230.509C454.93 230.663 455.35 230.74 455.798 230.74Z" fill="#3C4C4F"/>
<path d="M727.833 198.769C726.825 198.699 726.006 198.496 725.376 198.16C724.746 197.824 724.228 197.411 723.822 196.921L724.977 195.871C725.355 196.305 725.838 196.655 726.426 196.921C727.014 197.173 727.728 197.299 728.568 197.299C728.946 197.299 729.303 197.271 729.639 197.215C729.975 197.145 730.276 197.033 730.542 196.879C730.808 196.711 731.018 196.501 731.172 196.249C731.326 195.983 731.403 195.661 731.403 195.283C731.403 194.933 731.326 194.646 731.172 194.422C731.018 194.184 730.801 193.974 730.521 193.792C730.241 193.61 729.905 193.449 729.513 193.309C729.135 193.169 728.715 193.015 728.253 192.847C727.763 192.679 727.28 192.497 726.804 192.301C726.342 192.105 725.922 191.867 725.544 191.587C725.18 191.307 724.886 190.971 724.662 190.579C724.438 190.173 724.326 189.676 724.326 189.088C724.326 188.052 724.662 187.24 725.334 186.652C726.02 186.064 726.916 185.714 728.022 185.602V183.67H729.576V185.602C731.158 185.756 732.362 186.393 733.188 187.513L732.033 188.584C731.655 188.15 731.186 187.786 730.626 187.492C730.08 187.198 729.429 187.051 728.673 187.051C728.351 187.051 728.036 187.086 727.728 187.156C727.434 187.212 727.168 187.317 726.93 187.471C726.692 187.625 726.496 187.828 726.342 188.08C726.202 188.318 726.132 188.619 726.132 188.983C726.132 189.333 726.209 189.627 726.363 189.865C726.517 190.089 726.734 190.292 727.014 190.474C727.294 190.656 727.623 190.817 728.001 190.957C728.393 191.097 728.82 191.251 729.282 191.419C729.772 191.587 730.248 191.769 730.71 191.965C731.186 192.161 731.606 192.399 731.97 192.679C732.348 192.959 732.649 193.302 732.873 193.708C733.097 194.1 733.209 194.59 733.209 195.178C733.209 195.724 733.111 196.207 732.915 196.627C732.733 197.033 732.467 197.383 732.117 197.677C731.781 197.971 731.375 198.209 730.899 198.391C730.437 198.559 729.933 198.671 729.387 198.727V200.68H727.833V198.769ZM736.378 197.53H740.284V187.24L736.546 188.962L736 187.786L740.599 185.35H742.069V197.53H745.576V199H736.378V197.53ZM754.535 196.186H748.172V194.779L754.199 185.35H756.194L750.146 194.674H754.535V190.558H756.257V194.674H758.147V196.186H756.257V199H754.535V196.186ZM762.191 199.252C761.799 199.252 761.491 199.126 761.267 198.874C761.043 198.622 760.931 198.335 760.931 198.013C760.931 197.677 761.043 197.39 761.267 197.152C761.491 196.9 761.799 196.774 762.191 196.774C762.597 196.774 762.905 196.9 763.115 197.152C763.339 197.39 763.451 197.677 763.451 198.013C763.451 198.335 763.339 198.622 763.115 198.874C762.905 199.126 762.597 199.252 762.191 199.252ZM772.376 196.186H766.013V194.779L772.04 185.35H774.035L767.987 194.674H772.376V190.558H774.098V194.674H775.988V196.186H774.098V199H772.376V196.186ZM783.708 199.252C782.84 199.252 782.091 199.07 781.461 198.706C780.845 198.342 780.334 197.845 779.928 197.215C779.536 196.571 779.242 195.822 779.046 194.968C778.864 194.1 778.773 193.169 778.773 192.175C778.773 191.181 778.864 190.257 779.046 189.403C779.242 188.535 779.536 187.786 779.928 187.156C780.334 186.512 780.845 186.008 781.461 185.644C782.091 185.28 782.84 185.098 783.708 185.098C784.576 185.098 785.318 185.28 785.934 185.644C786.564 186.008 787.075 186.512 787.467 187.156C787.873 187.786 788.167 188.535 788.349 189.403C788.545 190.257 788.643 191.181 788.643 192.175C788.643 193.169 788.545 194.1 788.349 194.968C788.167 195.822 787.873 196.571 787.467 197.215C787.075 197.845 786.564 198.342 785.934 198.706C785.318 199.07 784.576 199.252 783.708 199.252ZM783.708 197.74C784.226 197.74 784.681 197.614 785.073 197.362C785.465 197.096 785.787 196.725 786.039 196.249C786.305 195.759 786.501 195.171 786.627 194.485C786.753 193.799 786.816 193.029 786.816 192.175C786.816 191.321 786.753 190.551 786.627 189.865C786.501 189.179 786.305 188.598 786.039 188.122C785.787 187.632 785.465 187.261 785.073 187.009C784.681 186.743 784.226 186.61 783.708 186.61C783.19 186.61 782.735 186.743 782.343 187.009C781.965 187.261 781.643 187.632 781.377 188.122C781.125 188.598 780.929 189.179 780.789 189.865C780.663 190.551 780.6 191.321 780.6 192.175C780.6 193.029 780.663 193.799 780.789 194.485C780.929 195.171 781.125 195.759 781.377 196.249C781.643 196.725 781.965 197.096 782.343 197.362C782.735 197.614 783.19 197.74 783.708 197.74Z" fill="#3C4C4F"/>
<rect width="594" height="1.5" transform="translate(220 259.5)" fill="black" fill-opacity="0.08"/>
<rect width="594" height="108" transform="translate(220 261)" fill="white"/>
<path d="M252.64 308.288C251.424 308.288 250.352 308.072 249.424 307.64C248.512 307.208 247.744 306.624 247.12 305.888C246.496 305.152 246.024 304.296 245.704 303.32C245.4 302.328 245.248 301.272 245.248 300.152C245.248 299.032 245.4 297.984 245.704 297.008C246.024 296.032 246.496 295.184 247.12 294.464C247.744 293.728 248.512 293.152 249.424 292.736C250.352 292.32 251.424 292.112 252.64 292.112C253.84 292.112 254.896 292.32 255.808 292.736C256.736 293.152 257.512 293.728 258.136 294.464C258.76 295.184 259.224 296.032 259.528 297.008C259.848 297.984 260.008 299.032 260.008 300.152C260.008 301.272 259.848 302.328 259.528 303.32C259.224 304.296 258.76 305.152 258.136 305.888C257.512 306.624 256.736 307.208 255.808 307.64C254.896 308.072 253.84 308.288 252.64 308.288ZM252.64 306.536C253.408 306.536 254.112 306.392 254.752 306.104C255.408 305.816 255.968 305.4 256.432 304.856C256.896 304.312 257.256 303.648 257.512 302.864C257.784 302.064 257.92 301.16 257.92 300.152C257.92 299.144 257.784 298.248 257.512 297.464C257.256 296.68 256.896 296.024 256.432 295.496C255.968 294.952 255.408 294.544 254.752 294.272C254.112 294 253.408 293.864 252.64 293.864C251.872 293.864 251.16 294 250.504 294.272C249.848 294.544 249.288 294.952 248.824 295.496C248.36 296.024 247.992 296.68 247.72 297.464C247.464 298.248 247.336 299.144 247.336 300.152C247.336 301.16 247.464 302.064 247.72 302.864C247.992 303.648 248.36 304.312 248.824 304.856C249.288 305.4 249.848 305.816 250.504 306.104C251.16 306.392 251.872 306.536 252.64 306.536ZM263.29 296.144H265.114V298.064H265.258C265.514 297.44 265.882 296.92 266.362 296.504C266.842 296.072 267.442 295.856 268.162 295.856C268.77 295.856 269.306 295.976 269.77 296.216L269.122 297.944C268.914 297.832 268.69 297.76 268.45 297.728C268.226 297.68 267.994 297.656 267.754 297.656C266.97 297.656 266.346 297.976 265.882 298.616C265.434 299.24 265.21 300.04 265.21 301.016V308H263.29V296.144ZM275.929 308.288C275.129 308.288 274.409 308.136 273.769 307.832C273.129 307.512 272.577 307.08 272.113 306.536C271.649 305.976 271.289 305.312 271.033 304.544C270.793 303.776 270.673 302.944 270.673 302.048C270.673 301.152 270.793 300.328 271.033 299.576C271.289 298.808 271.649 298.152 272.113 297.608C272.577 297.048 273.129 296.616 273.769 296.312C274.409 296.008 275.129 295.856 275.929 295.856C276.905 295.856 277.745 296.088 278.449 296.552C279.153 297.016 279.657 297.608 279.961 298.328H280.105V290.6H282.025V308H280.201V305.576H280.057C279.913 305.992 279.705 306.368 279.433 306.704C279.177 307.024 278.865 307.304 278.497 307.544C278.145 307.784 277.745 307.968 277.297 308.096C276.865 308.224 276.409 308.288 275.929 308.288ZM276.409 306.56C276.921 306.56 277.401 306.472 277.849 306.296C278.297 306.104 278.689 305.824 279.025 305.456C279.361 305.072 279.625 304.6 279.817 304.04C280.009 303.48 280.105 302.824 280.105 302.072C280.105 301.32 280.009 300.664 279.817 300.104C279.625 299.544 279.361 299.08 279.025 298.712C278.689 298.328 278.297 298.048 277.849 297.872C277.401 297.68 276.921 297.584 276.409 297.584C275.881 297.584 275.385 297.68 274.921 297.872C274.473 298.048 274.073 298.328 273.721 298.712C273.385 299.08 273.121 299.544 272.929 300.104C272.737 300.664 272.641 301.32 272.641 302.072C272.641 302.824 272.737 303.48 272.929 304.04C273.121 304.6 273.385 305.072 273.721 305.456C274.073 305.824 274.473 306.104 274.921 306.296C275.385 306.472 275.881 306.56 276.409 306.56ZM290.727 308.288C289.879 308.288 289.103 308.144 288.399 307.856C287.711 307.568 287.119 307.16 286.623 306.632C286.143 306.088 285.767 305.432 285.495 304.664C285.239 303.896 285.111 303.032 285.111 302.072C285.111 301.064 285.247 300.176 285.519 299.408C285.791 298.624 286.167 297.976 286.647 297.464C287.127 296.936 287.695 296.536 288.351 296.264C289.023 295.992 289.759 295.856 290.559 295.856C291.359 295.856 292.095 295.984 292.767 296.24C293.439 296.496 294.015 296.88 294.495 297.392C294.975 297.888 295.351 298.52 295.623 299.288C295.895 300.04 296.031 300.92 296.031 301.928C296.031 302.056 296.023 302.184 296.007 302.312C296.007 302.44 295.999 302.544 295.983 302.624H287.031C287.031 303.184 287.127 303.712 287.319 304.208C287.527 304.688 287.799 305.112 288.135 305.48C288.487 305.832 288.887 306.112 289.335 306.32C289.799 306.528 290.295 306.632 290.823 306.632C291.687 306.632 292.391 306.464 292.935 306.128C293.495 305.792 293.959 305.384 294.327 304.904L295.479 306.08C294.967 306.752 294.327 307.288 293.559 307.688C292.807 308.088 291.863 308.288 290.727 308.288ZM290.559 297.44C289.999 297.44 289.503 297.544 289.071 297.752C288.639 297.96 288.279 298.232 287.991 298.568C287.703 298.904 287.479 299.288 287.319 299.72C287.175 300.152 287.095 300.584 287.079 301.016H294.015C293.999 300.584 293.911 300.152 293.751 299.72C293.607 299.288 293.391 298.904 293.103 298.568C292.815 298.232 292.455 297.96 292.023 297.752C291.607 297.544 291.119 297.44 290.559 297.44ZM299.126 296.144H300.95V298.064H301.094C301.35 297.44 301.718 296.92 302.198 296.504C302.678 296.072 303.278 295.856 303.998 295.856C304.606 295.856 305.142 295.976 305.606 296.216L304.958 297.944C304.75 297.832 304.526 297.76 304.286 297.728C304.062 297.68 303.83 297.656 303.59 297.656C302.806 297.656 302.182 297.976 301.718 298.616C301.27 299.24 301.046 300.04 301.046 301.016V308H299.126V296.144ZM315.165 304.136H312.573L312.765 302.696H315.357L316.077 297.704H313.485L313.677 296.264H316.269L316.821 292.4H318.549L317.997 296.264H321.549L322.101 292.4H323.829L323.277 296.264H325.869L325.677 297.704H323.085L322.365 302.696H324.957L324.765 304.136H322.173L321.621 308H319.893L320.445 304.136H316.893L316.341 308H314.613L315.165 304.136ZM320.637 302.696L321.357 297.704H317.805L317.085 302.696H320.637ZM328.993 305.408C328.993 304.768 329.105 304.208 329.329 303.728C329.553 303.232 329.857 302.784 330.241 302.384C330.641 301.968 331.105 301.584 331.633 301.232C332.177 300.88 332.761 300.52 333.385 300.152C333.881 299.848 334.321 299.568 334.705 299.312C335.089 299.04 335.409 298.76 335.665 298.472C335.921 298.184 336.113 297.88 336.241 297.56C336.369 297.24 336.433 296.872 336.433 296.456C336.433 295.608 336.161 294.968 335.617 294.536C335.089 294.088 334.409 293.864 333.577 293.864C332.745 293.864 332.025 294.032 331.417 294.368C330.809 294.688 330.297 295.12 329.881 295.664L328.777 294.512C329.257 293.792 329.889 293.216 330.673 292.784C331.457 292.336 332.401 292.112 333.505 292.112C334.321 292.112 335.041 292.224 335.665 292.448C336.289 292.656 336.809 292.952 337.225 293.336C337.657 293.704 337.977 294.152 338.185 294.68C338.409 295.192 338.521 295.752 338.521 296.36C338.521 297.048 338.401 297.656 338.161 298.184C337.921 298.712 337.601 299.192 337.201 299.624C336.801 300.056 336.337 300.448 335.809 300.8C335.297 301.136 334.753 301.464 334.177 301.784C333.665 302.072 333.209 302.344 332.809 302.6C332.409 302.856 332.073 303.128 331.801 303.416C331.545 303.704 331.345 304.024 331.201 304.376C331.073 304.728 331.009 305.144 331.009 305.624V306.272H338.905V308H328.993V305.408ZM348.231 308.288C347.303 308.288 346.495 308.168 345.807 307.928C345.135 307.688 344.575 307.368 344.127 306.968C343.679 306.552 343.343 306.08 343.119 305.552C342.895 305.008 342.783 304.432 342.783 303.824C342.783 303.376 342.855 302.944 342.999 302.528C343.143 302.112 343.351 301.736 343.623 301.4C343.895 301.048 344.215 300.752 344.583 300.512C344.967 300.272 345.399 300.112 345.879 300.032V299.888C345.479 299.76 345.119 299.568 344.799 299.312C344.495 299.056 344.231 298.768 344.007 298.448C343.799 298.128 343.639 297.792 343.527 297.44C343.415 297.088 343.359 296.744 343.359 296.408C343.359 295.848 343.455 295.312 343.647 294.8C343.855 294.272 344.159 293.816 344.559 293.432C344.959 293.032 345.463 292.712 346.071 292.472C346.679 292.232 347.399 292.112 348.231 292.112C349.047 292.112 349.759 292.232 350.367 292.472C350.975 292.712 351.479 293.032 351.879 293.432C352.279 293.816 352.575 294.272 352.767 294.8C352.975 295.312 353.079 295.848 353.079 296.408C353.079 296.744 353.023 297.088 352.911 297.44C352.799 297.792 352.631 298.128 352.407 298.448C352.199 298.768 351.935 299.056 351.615 299.312C351.311 299.568 350.959 299.76 350.559 299.888V300.032C351.039 300.112 351.463 300.272 351.831 300.512C352.215 300.752 352.543 301.048 352.815 301.4C353.087 301.736 353.295 302.112 353.439 302.528C353.583 302.944 353.655 303.376 353.655 303.824C353.655 304.432 353.543 305.008 353.319 305.552C353.095 306.08 352.759 306.552 352.311 306.968C351.863 307.368 351.295 307.688 350.607 307.928C349.935 308.168 349.143 308.288 348.231 308.288ZM348.231 299.216C348.583 299.216 348.927 299.168 349.263 299.072C349.599 298.96 349.895 298.8 350.151 298.592C350.407 298.368 350.607 298.096 350.751 297.776C350.911 297.44 350.991 297.04 350.991 296.576C350.991 296.096 350.911 295.688 350.751 295.352C350.607 295.016 350.407 294.744 350.151 294.536C349.895 294.312 349.599 294.152 349.263 294.056C348.927 293.944 348.583 293.888 348.231 293.888C347.863 293.888 347.511 293.944 347.175 294.056C346.839 294.152 346.543 294.312 346.287 294.536C346.031 294.744 345.823 295.016 345.663 295.352C345.519 295.688 345.447 296.096 345.447 296.576C345.447 297.04 345.519 297.44 345.663 297.776C345.823 298.096 346.031 298.368 346.287 298.592C346.543 298.8 346.839 298.96 347.175 299.072C347.511 299.168 347.863 299.216 348.231 299.216ZM348.231 306.512C349.191 306.512 349.983 306.272 350.607 305.792C351.247 305.296 351.567 304.584 351.567 303.656C351.567 302.712 351.247 302.008 350.607 301.544C349.983 301.08 349.191 300.848 348.231 300.848C347.271 300.848 346.471 301.08 345.831 301.544C345.191 302.008 344.871 302.712 344.871 303.656C344.871 304.584 345.191 305.296 345.831 305.792C346.471 306.272 347.271 306.512 348.231 306.512ZM362.622 308.288C361.63 308.288 360.774 308.08 360.054 307.664C359.35 307.248 358.766 306.68 358.302 305.96C357.854 305.224 357.518 304.368 357.294 303.392C357.086 302.4 356.982 301.336 356.982 300.2C356.982 299.064 357.086 298.008 357.294 297.032C357.518 296.04 357.854 295.184 358.302 294.464C358.766 293.728 359.35 293.152 360.054 292.736C360.774 292.32 361.63 292.112 362.622 292.112C363.614 292.112 364.462 292.32 365.166 292.736C365.886 293.152 366.47 293.728 366.918 294.464C367.382 295.184 367.718 296.04 367.926 297.032C368.15 298.008 368.262 299.064 368.262 300.2C368.262 301.336 368.15 302.4 367.926 303.392C367.718 304.368 367.382 305.224 366.918 305.96C366.47 306.68 365.886 307.248 365.166 307.664C364.462 308.08 363.614 308.288 362.622 308.288ZM362.622 306.56C363.214 306.56 363.734 306.416 364.182 306.128C364.63 305.824 364.998 305.4 365.286 304.856C365.59 304.296 365.814 303.624 365.958 302.84C366.102 302.056 366.174 301.176 366.174 300.2C366.174 299.224 366.102 298.344 365.958 297.56C365.814 296.776 365.59 296.112 365.286 295.568C364.998 295.008 364.63 294.584 364.182 294.296C363.734 293.992 363.214 293.84 362.622 293.84C362.03 293.84 361.51 293.992 361.062 294.296C360.63 294.584 360.262 295.008 359.958 295.568C359.67 296.112 359.446 296.776 359.286 297.56C359.142 298.344 359.07 299.224 359.07 300.2C359.07 301.176 359.142 302.056 359.286 302.84C359.446 303.624 359.67 304.296 359.958 304.856C360.262 305.4 360.63 305.824 361.062 306.128C361.51 306.416 362.03 306.56 362.622 306.56Z" fill="#242E30"/>
<path d="M248.389 327.862H244.504V326.35H254.059V327.862H250.174V340H248.389V327.862ZM255.67 329.626H257.266V331.306H257.392C257.616 330.76 257.938 330.305 258.358 329.941C258.778 329.563 259.303 329.374 259.933 329.374C260.465 329.374 260.934 329.479 261.34 329.689L260.773 331.201C260.591 331.103 260.395 331.04 260.185 331.012C259.989 330.97 259.786 330.949 259.576 330.949C258.89 330.949 258.344 331.229 257.938 331.789C257.546 332.335 257.35 333.035 257.35 333.889V340H255.67V329.626ZM265.588 340.252C265.112 340.252 264.671 340.175 264.265 340.021C263.873 339.867 263.53 339.65 263.236 339.37C262.942 339.09 262.711 338.761 262.543 338.383C262.389 337.991 262.312 337.564 262.312 337.102C262.312 336.206 262.634 335.485 263.278 334.939C263.922 334.393 264.839 334.085 266.029 334.015L268.759 333.847V333.112C268.759 332.314 268.563 331.74 268.171 331.39C267.793 331.026 267.247 330.844 266.533 330.844C265.931 330.844 265.413 330.956 264.979 331.18C264.545 331.404 264.209 331.649 263.971 331.915L262.963 330.907C263.327 330.459 263.817 330.095 264.433 329.815C265.063 329.521 265.777 329.374 266.575 329.374C267.289 329.374 267.891 329.472 268.381 329.668C268.871 329.85 269.263 330.102 269.557 330.424C269.865 330.746 270.082 331.124 270.208 331.558C270.348 331.992 270.418 332.454 270.418 332.944V340H268.843V338.236H268.717C268.437 338.866 268.045 339.363 267.541 339.727C267.037 340.077 266.386 340.252 265.588 340.252ZM265.84 338.824C266.708 338.824 267.408 338.572 267.94 338.068C268.486 337.55 268.759 336.864 268.759 336.01V335.107L266.113 335.296C264.713 335.408 264.013 335.996 264.013 337.06C264.013 337.592 264.181 338.019 264.517 338.341C264.867 338.663 265.308 338.824 265.84 338.824ZM273.799 329.626H275.395V331.264H275.521C275.773 330.718 276.13 330.27 276.592 329.92C277.054 329.556 277.642 329.374 278.356 329.374C279.546 329.374 280.484 329.689 281.17 330.319C281.87 330.949 282.22 331.964 282.22 333.364V340H280.54V333.679C280.54 332.615 280.323 331.866 279.889 331.432C279.469 330.984 278.846 330.76 278.02 330.76C277.222 330.76 276.599 331.033 276.151 331.579C275.703 332.125 275.479 332.923 275.479 333.973V340H273.799V329.626ZM290.589 337.312C290.589 337.004 290.519 336.752 290.379 336.556C290.239 336.346 290.043 336.171 289.791 336.031C289.553 335.891 289.28 335.772 288.972 335.674C288.664 335.576 288.342 335.478 288.006 335.38C287.614 335.268 287.236 335.135 286.872 334.981C286.522 334.827 286.207 334.638 285.927 334.414C285.647 334.176 285.423 333.896 285.255 333.574C285.087 333.252 285.003 332.86 285.003 332.398C285.003 331.908 285.094 331.474 285.276 331.096C285.458 330.718 285.71 330.403 286.032 330.151C286.354 329.899 286.732 329.71 287.166 329.584C287.6 329.444 288.069 329.374 288.573 329.374C289.329 329.374 290.022 329.514 290.652 329.794C291.282 330.06 291.8 330.48 292.206 331.054L291.114 332.062C290.806 331.698 290.442 331.397 290.022 331.159C289.616 330.921 289.133 330.802 288.573 330.802C288.335 330.802 288.097 330.83 287.859 330.886C287.635 330.942 287.432 331.033 287.25 331.159C287.068 331.271 286.921 331.418 286.809 331.6C286.697 331.782 286.641 331.999 286.641 332.251C286.641 332.559 286.711 332.818 286.851 333.028C286.991 333.224 287.18 333.392 287.418 333.532C287.67 333.672 287.95 333.791 288.258 333.889C288.566 333.987 288.888 334.085 289.224 334.183C289.616 334.295 289.987 334.428 290.337 334.582C290.701 334.736 291.023 334.932 291.303 335.17C291.583 335.394 291.807 335.667 291.975 335.989C292.143 336.311 292.227 336.703 292.227 337.165C292.227 337.711 292.122 338.18 291.912 338.572C291.716 338.95 291.443 339.265 291.093 339.517C290.743 339.769 290.337 339.951 289.875 340.063C289.413 340.189 288.923 340.252 288.405 340.252C287.495 340.252 286.718 340.098 286.074 339.79C285.444 339.482 284.947 339.083 284.583 338.593L285.696 337.543C286.018 337.921 286.389 338.229 286.809 338.467C287.243 338.705 287.782 338.824 288.426 338.824C288.72 338.824 288.993 338.796 289.245 338.74C289.511 338.684 289.742 338.593 289.938 338.467C290.134 338.341 290.288 338.187 290.4 338.005C290.526 337.809 290.589 337.578 290.589 337.312ZM297.08 326.875C297.08 327.169 296.975 327.421 296.765 327.631C296.569 327.841 296.303 327.946 295.967 327.946C295.617 327.946 295.344 327.841 295.148 327.631C294.952 327.421 294.854 327.169 294.854 326.875C294.854 326.595 294.952 326.35 295.148 326.14C295.344 325.916 295.617 325.804 295.967 325.804C296.303 325.804 296.569 325.916 296.765 326.14C296.975 326.35 297.08 326.595 297.08 326.875ZM295.127 329.626H296.807V340H295.127V329.626ZM303.569 340.252C302.631 340.252 301.945 339.972 301.511 339.412C301.077 338.852 300.86 338.082 300.86 337.102V330.991H299.012V329.626H300.86V326.812H302.519V329.626H305.522V330.991H302.519V336.955C302.519 337.627 302.645 338.096 302.897 338.362C303.163 338.628 303.499 338.761 303.905 338.761C304.185 338.761 304.437 338.712 304.661 338.614C304.885 338.502 305.095 338.355 305.291 338.173L306.047 339.349C305.403 339.951 304.577 340.252 303.569 340.252ZM313.526 326.35H317.789C319.189 326.35 320.26 326.742 321.002 327.526C321.758 328.296 322.136 329.346 322.136 330.676C322.136 332.02 321.751 333.084 320.981 333.868C320.211 334.638 319.147 335.023 317.789 335.023H315.311V340H313.526V326.35ZM317.663 333.532C318.545 333.532 319.203 333.28 319.637 332.776C320.085 332.258 320.309 331.558 320.309 330.676C320.309 329.794 320.085 329.101 319.637 328.597C319.203 328.093 318.545 327.841 317.663 327.841H315.311V333.532H317.663ZM326.845 340.252C326.369 340.252 325.928 340.175 325.522 340.021C325.13 339.867 324.787 339.65 324.493 339.37C324.199 339.09 323.968 338.761 323.8 338.383C323.646 337.991 323.569 337.564 323.569 337.102C323.569 336.206 323.891 335.485 324.535 334.939C325.179 334.393 326.096 334.085 327.286 334.015L330.016 333.847V333.112C330.016 332.314 329.82 331.74 329.428 331.39C329.05 331.026 328.504 330.844 327.79 330.844C327.188 330.844 326.67 330.956 326.236 331.18C325.802 331.404 325.466 331.649 325.228 331.915L324.22 330.907C324.584 330.459 325.074 330.095 325.69 329.815C326.32 329.521 327.034 329.374 327.832 329.374C328.546 329.374 329.148 329.472 329.638 329.668C330.128 329.85 330.52 330.102 330.814 330.424C331.122 330.746 331.339 331.124 331.465 331.558C331.605 331.992 331.675 332.454 331.675 332.944V340H330.1V338.236H329.974C329.694 338.866 329.302 339.363 328.798 339.727C328.294 340.077 327.643 340.252 326.845 340.252ZM327.097 338.824C327.965 338.824 328.665 338.572 329.197 338.068C329.743 337.55 330.016 336.864 330.016 336.01V335.107L327.37 335.296C325.97 335.408 325.27 335.996 325.27 337.06C325.27 337.592 325.438 338.019 325.774 338.341C326.124 338.663 326.565 338.824 327.097 338.824ZM335.501 343.969C335.347 343.969 335.186 343.955 335.018 343.927C334.864 343.913 334.731 343.892 334.619 343.864V342.415C334.689 342.429 334.801 342.443 334.955 342.457C335.123 342.471 335.277 342.478 335.417 342.478C335.697 342.478 335.935 342.457 336.131 342.415C336.327 342.373 336.502 342.275 336.656 342.121C336.824 341.981 336.985 341.764 337.139 341.47C337.293 341.19 337.461 340.812 337.643 340.336L333.485 329.626H335.312L338.441 338.32H338.567L341.717 329.626H343.418L339.344 340.105C339.078 340.791 338.819 341.372 338.567 341.848C338.329 342.338 338.063 342.737 337.769 343.045C337.475 343.367 337.146 343.598 336.782 343.738C336.432 343.892 336.005 343.969 335.501 343.969Z" fill="#3C4C4F"/>
<path d="M740.425 306.769C739.417 306.699 738.598 306.496 737.968 306.16C737.338 305.824 736.82 305.411 736.414 304.921L737.569 303.871C737.947 304.305 738.43 304.655 739.018 304.921C739.606 305.173 740.32 305.299 741.16 305.299C741.538 305.299 741.895 305.271 742.231 305.215C742.567 305.145 742.868 305.033 743.134 304.879C743.4 304.711 743.61 304.501 743.764 304.249C743.918 303.983 743.995 303.661 743.995 303.283C743.995 302.933 743.918 302.646 743.764 302.422C743.61 302.184 743.393 301.974 743.113 301.792C742.833 301.61 742.497 301.449 742.105 301.309C741.727 301.169 741.307 301.015 740.845 300.847C740.355 300.679 739.872 300.497 739.396 300.301C738.934 300.105 738.514 299.867 738.136 299.587C737.772 299.307 737.478 298.971 737.254 298.579C737.03 298.173 736.918 297.676 736.918 297.088C736.918 296.052 737.254 295.24 737.926 294.652C738.612 294.064 739.508 293.714 740.614 293.602V291.67H742.168V293.602C743.75 293.756 744.954 294.393 745.78 295.513L744.625 296.584C744.247 296.15 743.778 295.786 743.218 295.492C742.672 295.198 742.021 295.051 741.265 295.051C740.943 295.051 740.628 295.086 740.32 295.156C740.026 295.212 739.76 295.317 739.522 295.471C739.284 295.625 739.088 295.828 738.934 296.08C738.794 296.318 738.724 296.619 738.724 296.983C738.724 297.333 738.801 297.627 738.955 297.865C739.109 298.089 739.326 298.292 739.606 298.474C739.886 298.656 740.215 298.817 740.593 298.957C740.985 299.097 741.412 299.251 741.874 299.419C742.364 299.587 742.84 299.769 743.302 299.965C743.778 300.161 744.198 300.399 744.562 300.679C744.94 300.959 745.241 301.302 745.465 301.708C745.689 302.1 745.801 302.59 745.801 303.178C745.801 303.724 745.703 304.207 745.507 304.627C745.325 305.033 745.059 305.383 744.709 305.677C744.373 305.971 743.967 306.209 743.491 306.391C743.029 306.559 742.525 306.671 741.979 306.727V308.68H740.425V306.769ZM752.834 307.252C751.882 307.252 751.098 307.091 750.482 306.769C749.866 306.447 749.327 306.034 748.865 305.53L749.936 304.459C750.272 304.809 750.671 305.103 751.133 305.341C751.595 305.579 752.141 305.698 752.771 305.698C753.653 305.698 754.353 305.467 754.871 305.005C755.403 304.529 755.669 303.85 755.669 302.968C755.669 302.072 755.396 301.393 754.85 300.931C754.304 300.455 753.548 300.217 752.582 300.217H750.44L749.768 299.545V293.35H756.74V294.862H751.448V298.726H752.918C753.674 298.726 754.339 298.831 754.913 299.041C755.487 299.251 755.963 299.545 756.341 299.923C756.719 300.287 757.006 300.728 757.202 301.246C757.398 301.764 757.496 302.338 757.496 302.968C757.496 303.556 757.398 304.109 757.202 304.627C757.02 305.145 756.733 305.6 756.341 305.992C755.963 306.37 755.48 306.678 754.892 306.916C754.318 307.14 753.632 307.252 752.834 307.252ZM762.191 307.252C761.799 307.252 761.491 307.126 761.267 306.874C761.043 306.622 760.931 306.335 760.931 306.013C760.931 305.677 761.043 305.39 761.267 305.152C761.491 304.9 761.799 304.774 762.191 304.774C762.597 304.774 762.905 304.9 763.115 305.152C763.339 305.39 763.451 305.677 763.451 306.013C763.451 306.335 763.339 306.622 763.115 306.874C762.905 307.126 762.597 307.252 762.191 307.252ZM770.675 307.252C769.723 307.252 768.939 307.091 768.323 306.769C767.707 306.447 767.168 306.034 766.706 305.53L767.777 304.459C768.113 304.809 768.512 305.103 768.974 305.341C769.436 305.579 769.982 305.698 770.612 305.698C771.494 305.698 772.194 305.467 772.712 305.005C773.244 304.529 773.51 303.85 773.51 302.968C773.51 302.072 773.237 301.393 772.691 300.931C772.145 300.455 771.389 300.217 770.423 300.217H768.281L767.609 299.545V293.35H774.581V294.862H769.289V298.726H770.759C771.515 298.726 772.18 298.831 772.754 299.041C773.328 299.251 773.804 299.545 774.182 299.923C774.56 300.287 774.847 300.728 775.043 301.246C775.239 301.764 775.337 302.338 775.337 302.968C775.337 303.556 775.239 304.109 775.043 304.627C774.861 305.145 774.574 305.6 774.182 305.992C773.804 306.37 773.321 306.678 772.733 306.916C772.159 307.14 771.473 307.252 770.675 307.252ZM783.708 307.252C782.84 307.252 782.091 307.07 781.461 306.706C780.845 306.342 780.334 305.845 779.928 305.215C779.536 304.571 779.242 303.822 779.046 302.968C778.864 302.1 778.773 301.169 778.773 300.175C778.773 299.181 778.864 298.257 779.046 297.403C779.242 296.535 779.536 295.786 779.928 295.156C780.334 294.512 780.845 294.008 781.461 293.644C782.091 293.28 782.84 293.098 783.708 293.098C784.576 293.098 785.318 293.28 785.934 293.644C786.564 294.008 787.075 294.512 787.467 295.156C787.873 295.786 788.167 296.535 788.349 297.403C788.545 298.257 788.643 299.181 788.643 300.175C788.643 301.169 788.545 302.1 788.349 302.968C788.167 303.822 787.873 304.571 787.467 305.215C787.075 305.845 786.564 306.342 785.934 306.706C785.318 307.07 784.576 307.252 783.708 307.252ZM783.708 305.74C784.226 305.74 784.681 305.614 785.073 305.362C785.465 305.096 785.787 304.725 786.039 304.249C786.305 303.759 786.501 303.171 786.627 302.485C786.753 301.799 786.816 301.029 786.816 300.175C786.816 299.321 786.753 298.551 786.627 297.865C786.501 297.179 786.305 296.598 786.039 296.122C785.787 295.632 785.465 295.261 785.073 295.009C784.681 294.743 784.226 294.61 783.708 294.61C783.19 294.61 782.735 294.743 782.343 295.009C781.965 295.261 781.643 295.632 781.377 296.122C781.125 296.598 780.929 297.179 780.789 297.865C780.663 298.551 780.6 299.321 780.6 300.175C780.6 301.029 780.663 301.799 780.789 302.485C780.929 303.171 781.125 303.759 781.377 304.249C781.643 304.725 781.965 305.096 782.343 305.362C782.735 305.614 783.19 305.74 783.708 305.74Z" fill="#3C4C4F"/>
<rect width="594" height="1.5" transform="translate(220 367.5)" fill="black" fill-opacity="0.08"/>
</g>
<defs>
<filter id="filter0_f_740_151631" x="56" y="-3" width="922" height="549" filterUnits="userSpaceOnUse" color-interpolation-filters="sRGB">
<feFlood flood-opacity="0" result="BackgroundImageFix"/>
<feBlend mode="normal" in="SourceGraphic" in2="BackgroundImageFix" result="shape"/>
<feGaussianBlur stdDeviation="50" result="effect1_foregroundBlur_740_151631"/>
</filter>
</defs>
</svg>
