<svg width="328" height="96" viewBox="0 0 328 96" fill="none" xmlns="http://www.w3.org/2000/svg">
<path d="M28.0002 38.8413L17.9093 28.4594C16.7681 27.2442 16.1328 25.6398 16.1328 23.9728C16.1328 22.3058 16.7681 20.7014 17.9093 19.4863C18.466 18.9121 19.1324 18.4555 19.8689 18.1438C20.6054 17.832 21.397 17.6714 22.1968 17.6714C22.9966 17.6714 23.7882 17.832 24.5247 18.1438C25.2612 18.4555 25.9276 18.9121 26.4843 19.4863L28.0155 21.0175L29.5468 19.4863C30.1048 18.9116 30.7725 18.4548 31.5103 18.1428C32.2481 17.8309 33.0409 17.6702 33.8419 17.6702C34.643 17.6702 35.4358 17.8309 36.1736 18.1428C36.9114 18.4548 37.5791 18.9116 38.1371 19.4863C39.2749 20.7031 39.9079 22.3069 39.9079 23.9728C39.9079 25.6388 39.2749 27.2425 38.1371 28.4594L28.0002 38.8413ZM22.1815 19.9609C21.6861 19.9599 21.1957 20.0598 20.7402 20.2546C20.2847 20.4494 19.8738 20.7351 19.5324 21.0941C18.8114 21.8794 18.4114 22.9067 18.4114 23.9728C18.4114 25.0389 18.8114 26.0662 19.5324 26.8516L28.0002 35.5338L36.468 26.8363C37.1847 26.0518 37.582 25.0277 37.582 23.9652C37.582 22.9026 37.1847 21.8785 36.468 21.0941C36.1203 20.7404 35.7056 20.4594 35.2482 20.2676C34.7907 20.0759 34.2997 19.9771 33.8037 19.9771C33.3076 19.9771 32.8166 20.0759 32.3591 20.2676C31.9017 20.4594 31.487 20.7404 31.1393 21.0941L29.2865 22.9009C28.9268 23.2481 28.4465 23.442 27.9466 23.442C27.4468 23.442 26.9664 23.2481 26.6068 22.9009L24.8305 21.0941C24.4881 20.7365 24.0769 20.4518 23.6217 20.2571C23.1665 20.0624 22.6766 19.9616 22.1815 19.9609Z" fill="#242E30"/>
<path d="M3.472 79.6H6.864C8.37867 79.6 9.54133 80.0587 10.352 80.976C11.1627 81.8933 11.568 83.1733 11.568 84.816C11.568 85.616 11.4613 86.336 11.248 86.976C11.0347 87.616 10.72 88.16 10.304 88.608C9.89867 89.056 9.39733 89.4027 8.8 89.648C8.21333 89.8827 7.54667 90 6.8 90H3.472V79.6ZM6.96 88.848C7.45067 88.848 7.89333 88.7573 8.288 88.576C8.68267 88.384 9.01867 88.1173 9.296 87.776C9.584 87.424 9.80267 87.0027 9.952 86.512C10.1013 86.0107 10.176 85.4453 10.176 84.816C10.176 83.5253 9.89333 82.528 9.328 81.824C8.77333 81.1093 7.99467 80.752 6.992 80.752H4.832V88.848H6.96ZM16.8543 90.192C16.2889 90.192 15.7716 90.096 15.3023 89.904C14.8436 89.712 14.4489 89.44 14.1183 89.088C13.7983 88.7253 13.5476 88.288 13.3663 87.776C13.1956 87.264 13.1103 86.688 13.1103 86.048C13.1103 85.376 13.2009 84.784 13.3823 84.272C13.5636 83.7493 13.8143 83.3173 14.1343 82.976C14.4543 82.624 14.8329 82.3573 15.2703 82.176C15.7183 81.9947 16.2089 81.904 16.7423 81.904C17.2756 81.904 17.7663 81.9893 18.2143 82.16C18.6623 82.3307 19.0463 82.5867 19.3663 82.928C19.6863 83.2587 19.9369 83.68 20.1183 84.192C20.2996 84.6933 20.3903 85.28 20.3903 85.952C20.3903 86.0373 20.3849 86.1227 20.3743 86.208C20.3743 86.2933 20.3689 86.3627 20.3583 86.416H14.3903C14.3903 86.7893 14.4543 87.1413 14.5823 87.472C14.7209 87.792 14.9023 88.0747 15.1263 88.32C15.3609 88.5547 15.6276 88.7413 15.9263 88.88C16.2356 89.0187 16.5663 89.088 16.9183 89.088C17.4943 89.088 17.9636 88.976 18.3263 88.752C18.6996 88.528 19.0089 88.256 19.2543 87.936L20.0223 88.72C19.6809 89.168 19.2543 89.5253 18.7423 89.792C18.2409 90.0587 17.6116 90.192 16.8543 90.192ZM16.7423 82.96C16.3689 82.96 16.0383 83.0293 15.7503 83.168C15.4623 83.3067 15.2223 83.488 15.0303 83.712C14.8383 83.936 14.6889 84.192 14.5823 84.48C14.4863 84.768 14.4329 85.056 14.4223 85.344H19.0463C19.0356 85.056 18.9769 84.768 18.8703 84.48C18.7743 84.192 18.6303 83.936 18.4383 83.712C18.2463 83.488 18.0063 83.3067 17.7183 83.168C17.4409 83.0293 17.1156 82.96 16.7423 82.96ZM22.8538 83.136H21.4458V82.096H22.8538V80.704C22.8538 79.936 23.0458 79.328 23.4298 78.88C23.8244 78.432 24.4058 78.208 25.1738 78.208C25.3658 78.208 25.5631 78.2293 25.7658 78.272C25.9684 78.304 26.1444 78.3573 26.2938 78.432L25.8618 79.44C25.7871 79.3973 25.6858 79.3653 25.5578 79.344C25.4298 79.312 25.3178 79.296 25.2218 79.296C24.8804 79.296 24.6138 79.4133 24.4218 79.648C24.2298 79.8827 24.1338 80.24 24.1338 80.72V82.096H26.2458V83.136H24.1338V90H22.8538V83.136ZM29.5571 90.192C29.1945 90.192 28.8585 90.1333 28.5491 90.016C28.2505 89.8987 27.9891 89.7333 27.7651 89.52C27.5411 89.3067 27.3651 89.056 27.2371 88.768C27.1198 88.4693 27.0611 88.144 27.0611 87.792C27.0611 87.1093 27.3065 86.56 27.7971 86.144C28.2878 85.728 28.9865 85.4933 29.8931 85.44L31.9731 85.312V84.752C31.9731 84.144 31.8238 83.7067 31.5251 83.44C31.2371 83.1627 30.8211 83.024 30.2771 83.024C29.8185 83.024 29.4238 83.1093 29.0931 83.28C28.7625 83.4507 28.5065 83.6373 28.3251 83.84L27.5571 83.072C27.8345 82.7307 28.2078 82.4533 28.6771 82.24C29.1571 82.016 29.7011 81.904 30.3091 81.904C30.8531 81.904 31.3118 81.9787 31.6851 82.128C32.0585 82.2667 32.3571 82.4587 32.5811 82.704C32.8158 82.9493 32.9811 83.2373 33.0771 83.568C33.1838 83.8987 33.2371 84.2507 33.2371 84.624V90H32.0371V88.656H31.9411C31.7278 89.136 31.4291 89.5147 31.0451 89.792C30.6611 90.0587 30.1651 90.192 29.5571 90.192ZM29.7491 89.104C30.4105 89.104 30.9438 88.912 31.3491 88.528C31.7651 88.1333 31.9731 87.6107 31.9731 86.96V86.272L29.9571 86.416C28.8905 86.5013 28.3571 86.9493 28.3571 87.76C28.3571 88.1653 28.4851 88.4907 28.7411 88.736C29.0078 88.9813 29.3438 89.104 29.7491 89.104ZM38.5331 90.192C38.0958 90.192 37.7011 90.1333 37.3491 90.016C36.9971 89.8987 36.6931 89.7173 36.4371 89.472C36.1918 89.2267 35.9998 88.912 35.8611 88.528C35.7225 88.144 35.6531 87.6853 35.6531 87.152V82.096H36.9331V86.912C36.9331 87.7227 37.0878 88.2987 37.3971 88.64C37.7171 88.9707 38.1811 89.136 38.7891 89.136C39.3651 89.136 39.8185 88.928 40.1491 88.512C40.4905 88.096 40.6611 87.488 40.6611 86.688V82.096H41.9411V90H40.7251V88.752H40.6291C40.4371 89.168 40.1705 89.5147 39.8291 89.792C39.4985 90.0587 39.0665 90.192 38.5331 90.192ZM44.6569 78.4H45.9369V90H44.6569V78.4ZM51.0889 90.192C50.3742 90.192 49.8515 89.9787 49.5209 89.552C49.1902 89.1253 49.0249 88.5387 49.0249 87.792V83.136H47.6169V82.096H49.0249V79.952H50.2889V82.096H52.5769V83.136H50.2889V87.68C50.2889 88.192 50.3849 88.5493 50.5769 88.752C50.7795 88.9547 51.0355 89.056 51.3449 89.056C51.5582 89.056 51.7502 89.0187 51.9209 88.944C52.0915 88.8587 52.2515 88.7467 52.4009 88.608L52.9769 89.504C52.4862 89.9627 51.8569 90.192 51.0889 90.192Z" fill="#3C4C4F"/>
<path d="M164 38.8413L153.909 28.4594C152.768 27.2442 152.133 25.6398 152.133 23.9728C152.133 22.3058 152.768 20.7014 153.909 19.4863C154.466 18.9121 155.132 18.4555 155.869 18.1438C156.605 17.832 157.397 17.6714 158.197 17.6714C158.997 17.6714 159.788 17.832 160.525 18.1438C161.261 18.4555 161.928 18.9121 162.484 19.4863L164.016 21.0175L165.547 19.4863C166.105 18.9116 166.773 18.4548 167.51 18.1428C168.248 17.8309 169.041 17.6702 169.842 17.6702C170.643 17.6702 171.436 17.8309 172.174 18.1428C172.911 18.4548 173.579 18.9116 174.137 19.4863C175.275 20.7031 175.908 22.3069 175.908 23.9728C175.908 25.6388 175.275 27.2425 174.137 28.4594L164 38.8413Z" fill="#242E30"/>
<g filter="url(#filter0_d_1367_90116)">
<path fill-rule="evenodd" clip-rule="evenodd" d="M167.33 40.3798C167.046 40.0208 166.701 39.2868 166.087 38.3958C165.739 37.8918 164.876 36.9428 164.619 36.4608C164.396 36.0348 164.42 35.8438 164.473 35.4908C164.567 34.8628 165.211 34.3738 165.898 34.4398C166.417 34.4888 166.857 34.8318 167.253 35.1558C167.492 35.3508 167.786 35.7298 167.963 35.9438C168.126 36.1398 168.166 36.2208 168.34 36.4528C168.57 36.7598 168.642 36.9118 168.554 36.5738C168.483 36.0778 168.367 35.2308 168.199 34.4818C168.071 33.9138 168.04 33.8248 167.918 33.3888C167.789 32.9248 167.723 32.5998 167.602 32.1078C167.518 31.7598 167.367 31.0488 167.326 30.6488C167.269 30.1018 167.239 29.2098 167.59 28.7998C167.865 28.4788 168.496 28.3818 168.887 28.5798C169.399 28.8388 169.69 29.5828 169.823 29.8798C170.062 30.4138 170.21 31.0308 170.339 31.8408C170.503 32.8718 170.805 34.3028 170.815 34.6038C170.839 34.2348 170.747 33.4578 170.811 33.1038C170.869 32.7828 171.139 32.4098 171.477 32.3088C171.763 32.2238 172.098 32.1928 172.393 32.2538C172.706 32.3178 173.036 32.5418 173.159 32.7528C173.521 33.3768 173.528 34.6518 173.543 34.5838C173.629 34.2078 173.614 33.3548 173.827 32.9998C173.967 32.7658 174.324 32.5548 174.514 32.5208C174.808 32.4688 175.169 32.4528 175.478 32.5128C175.727 32.5618 176.064 32.8578 176.155 32.9998C176.373 33.3438 176.497 34.3168 176.534 34.6578C176.549 34.7988 176.608 34.2658 176.827 33.9218C177.233 33.2828 178.67 33.1588 178.725 34.5608C178.75 35.2148 178.745 35.1848 178.745 35.6248C178.745 36.1418 178.733 36.4528 178.705 36.8268C178.674 37.2268 178.588 38.1308 178.463 38.5688C178.377 38.8698 178.092 39.5468 177.811 39.9528C177.811 39.9528 176.737 41.2028 176.62 41.7658C176.502 42.3278 176.541 42.3318 176.518 42.7308C176.495 43.1288 176.639 43.6528 176.639 43.6528C176.639 43.6528 175.837 43.7568 175.405 43.6878C175.014 43.6248 174.53 42.8468 174.405 42.6088C174.233 42.2808 173.866 42.3438 173.723 42.5858C173.498 42.9688 173.014 43.6558 172.672 43.6988C172.004 43.7828 170.618 43.7298 169.533 43.7188C169.533 43.7188 169.718 42.7078 169.306 42.3608C169.001 42.1018 168.476 41.5768 168.162 41.3008L167.33 40.3798Z" fill="white"/>
<path fill-rule="evenodd" clip-rule="evenodd" d="M167.33 40.3798C167.046 40.0208 166.701 39.2868 166.087 38.3958C165.739 37.8918 164.876 36.9428 164.619 36.4608C164.396 36.0348 164.42 35.8438 164.473 35.4908C164.567 34.8628 165.211 34.3738 165.898 34.4398C166.417 34.4888 166.857 34.8318 167.253 35.1558C167.492 35.3508 167.786 35.7298 167.963 35.9438C168.126 36.1398 168.166 36.2208 168.34 36.4528C168.57 36.7598 168.642 36.9118 168.554 36.5738C168.483 36.0778 168.367 35.2308 168.199 34.4818C168.071 33.9138 168.04 33.8248 167.918 33.3888C167.789 32.9248 167.723 32.5998 167.602 32.1078C167.518 31.7598 167.367 31.0488 167.326 30.6488C167.269 30.1018 167.239 29.2098 167.59 28.7998C167.865 28.4788 168.496 28.3818 168.887 28.5798C169.399 28.8388 169.69 29.5828 169.823 29.8798C170.062 30.4138 170.21 31.0308 170.339 31.8408C170.503 32.8718 170.805 34.3028 170.815 34.6038C170.839 34.2348 170.747 33.4578 170.811 33.1038C170.869 32.7828 171.139 32.4098 171.477 32.3088C171.763 32.2238 172.098 32.1928 172.393 32.2538C172.706 32.3178 173.036 32.5418 173.159 32.7528C173.521 33.3768 173.528 34.6518 173.543 34.5838C173.629 34.2078 173.614 33.3548 173.827 32.9998C173.967 32.7658 174.324 32.5548 174.514 32.5208C174.808 32.4688 175.169 32.4528 175.478 32.5128C175.727 32.5618 176.064 32.8578 176.155 32.9998C176.373 33.3438 176.497 34.3168 176.534 34.6578C176.549 34.7988 176.608 34.2658 176.827 33.9218C177.233 33.2828 178.67 33.1588 178.725 34.5608C178.75 35.2148 178.745 35.1848 178.745 35.6248C178.745 36.1418 178.733 36.4528 178.705 36.8268C178.674 37.2268 178.588 38.1308 178.463 38.5688C178.377 38.8698 178.092 39.5468 177.811 39.9528C177.811 39.9528 176.737 41.2028 176.62 41.7658C176.502 42.3278 176.541 42.3318 176.518 42.7308C176.495 43.1288 176.639 43.6528 176.639 43.6528C176.639 43.6528 175.837 43.7568 175.405 43.6878C175.014 43.6248 174.53 42.8468 174.405 42.6088C174.233 42.2808 173.866 42.3438 173.723 42.5858C173.498 42.9688 173.014 43.6558 172.672 43.6988C172.004 43.7828 170.618 43.7298 169.533 43.7188C169.533 43.7188 169.718 42.7078 169.306 42.3608C169.001 42.1018 168.476 41.5768 168.162 41.3008L167.33 40.3798V40.3798Z" stroke="black" stroke-width="0.75" stroke-linecap="round" stroke-linejoin="round"/>
<path d="M175.566 40.7344V37.2754" stroke="black" stroke-width="0.75" stroke-linecap="round"/>
<path d="M173.551 40.7459L173.535 37.2729" stroke="black" stroke-width="0.75" stroke-linecap="round"/>
<path d="M171.555 37.3047L171.576 40.7307" stroke="black" stroke-width="0.75" stroke-linecap="round"/>
</g>
<path d="M143.972 79.6H145.332V84.128H150.436V79.6H151.796V90H150.436V85.28H145.332V90H143.972V79.6ZM157.746 90.192C157.116 90.192 156.562 90.0853 156.082 89.872C155.612 89.648 155.218 89.3493 154.898 88.976C154.588 88.6027 154.354 88.1653 154.194 87.664C154.044 87.1627 153.97 86.624 153.97 86.048C153.97 85.472 154.044 84.9333 154.194 84.432C154.354 83.9307 154.588 83.4933 154.898 83.12C155.218 82.7467 155.612 82.4533 156.082 82.24C156.562 82.016 157.116 81.904 157.746 81.904C158.375 81.904 158.919 82.016 159.378 82.24C159.847 82.4533 160.236 82.7467 160.546 83.12C160.855 83.4933 161.084 83.9307 161.234 84.432C161.394 84.9333 161.474 85.472 161.474 86.048C161.474 86.624 161.394 87.1627 161.234 87.664C161.084 88.1653 160.855 88.6027 160.546 88.976C160.236 89.3493 159.847 89.648 159.378 89.872C158.919 90.0853 158.375 90.192 157.746 90.192ZM155.282 86.048C155.282 86.5067 155.33 86.928 155.426 87.312C155.532 87.6853 155.687 88.0107 155.89 88.288C156.092 88.5547 156.348 88.7627 156.658 88.912C156.967 89.0613 157.33 89.136 157.746 89.136C158.151 89.136 158.503 89.0613 158.802 88.912C159.111 88.7627 159.362 88.5547 159.554 88.288C159.756 88.0107 159.906 87.6853 160.002 87.312C160.108 86.928 160.162 86.5067 160.162 86.048C160.162 85.5893 160.108 85.1733 160.002 84.8C159.906 84.416 159.756 84.0907 159.554 83.824C159.362 83.5467 159.111 83.3333 158.802 83.184C158.503 83.0347 158.151 82.96 157.746 82.96C157.33 82.96 156.967 83.0347 156.658 83.184C156.348 83.3333 156.092 83.5467 155.89 83.824C155.687 84.0907 155.532 84.416 155.426 84.8C155.33 85.1733 155.282 85.5893 155.282 86.048ZM162.336 82.096H163.728L166.112 88.688H166.208L168.608 82.096H169.904L166.832 90H165.392L162.336 82.096ZM174.511 90.192C173.945 90.192 173.428 90.096 172.959 89.904C172.5 89.712 172.105 89.44 171.775 89.088C171.455 88.7253 171.204 88.288 171.023 87.776C170.852 87.264 170.767 86.688 170.767 86.048C170.767 85.376 170.857 84.784 171.039 84.272C171.22 83.7493 171.471 83.3173 171.791 82.976C172.111 82.624 172.489 82.3573 172.927 82.176C173.375 81.9947 173.865 81.904 174.399 81.904C174.932 81.904 175.423 81.9893 175.871 82.16C176.319 82.3307 176.703 82.5867 177.023 82.928C177.343 83.2587 177.593 83.68 177.775 84.192C177.956 84.6933 178.047 85.28 178.047 85.952C178.047 86.0373 178.041 86.1227 178.031 86.208C178.031 86.2933 178.025 86.3627 178.015 86.416H172.047C172.047 86.7893 172.111 87.1413 172.239 87.472C172.377 87.792 172.559 88.0747 172.783 88.32C173.017 88.5547 173.284 88.7413 173.583 88.88C173.892 89.0187 174.223 89.088 174.575 89.088C175.151 89.088 175.62 88.976 175.983 88.752C176.356 88.528 176.665 88.256 176.911 87.936L177.679 88.72C177.337 89.168 176.911 89.5253 176.399 89.792C175.897 90.0587 175.268 90.192 174.511 90.192ZM174.399 82.96C174.025 82.96 173.695 83.0293 173.407 83.168C173.119 83.3067 172.879 83.488 172.687 83.712C172.495 83.936 172.345 84.192 172.239 84.48C172.143 84.768 172.089 85.056 172.079 85.344H176.703C176.692 85.056 176.633 84.768 176.527 84.48C176.431 84.192 176.287 83.936 176.095 83.712C175.903 83.488 175.663 83.3067 175.375 83.168C175.097 83.0293 174.772 82.96 174.399 82.96ZM180.11 82.096H181.326V83.376H181.422C181.593 82.96 181.838 82.6133 182.158 82.336C182.478 82.048 182.878 81.904 183.358 81.904C183.763 81.904 184.121 81.984 184.43 82.144L183.998 83.296C183.859 83.2213 183.71 83.1733 183.55 83.152C183.401 83.12 183.246 83.104 183.086 83.104C182.563 83.104 182.147 83.3173 181.838 83.744C181.539 84.16 181.39 84.6933 181.39 85.344V90H180.11V82.096Z" fill="#3C4C4F"/>
<path d="M300 38.8413L289.909 28.4594C288.768 27.2442 288.133 25.6398 288.133 23.9728C288.133 22.3058 288.768 20.7014 289.909 19.4863C290.466 18.9121 291.132 18.4555 291.869 18.1438C292.605 17.832 293.397 17.6714 294.197 17.6714C294.997 17.6714 295.788 17.832 296.525 18.1438C297.261 18.4555 297.928 18.9121 298.484 19.4863L300.016 21.0175L301.547 19.4863C302.105 18.9116 302.773 18.4548 303.51 18.1428C304.248 17.8309 305.041 17.6702 305.842 17.6702C306.643 17.6702 307.436 17.8309 308.174 18.1428C308.911 18.4548 309.579 18.9116 310.137 19.4863C311.275 20.7031 311.908 22.3069 311.908 23.9728C311.908 25.6388 311.275 27.2425 310.137 28.4594L300 38.8413Z" fill="#242E30"/>
<path d="M281.644 79.6H283.42L287.164 90H285.708L284.892 87.712H280.108L279.292 90H277.916L281.644 79.6ZM280.508 86.56H284.492L282.54 80.736H282.444L280.508 86.56ZM291.821 90.192C291.181 90.192 290.626 90.0747 290.157 89.84C289.698 89.6053 289.32 89.296 289.021 88.912C288.722 88.528 288.504 88.0907 288.365 87.6C288.226 87.0987 288.157 86.5813 288.157 86.048C288.157 85.5147 288.226 85.0027 288.365 84.512C288.504 84.0107 288.717 83.568 289.005 83.184C289.304 82.8 289.682 82.4907 290.141 82.256C290.6 82.0213 291.149 81.904 291.789 81.904C292.461 81.904 293.01 82.016 293.437 82.24C293.864 82.464 294.226 82.7627 294.525 83.136L293.725 83.888C293.469 83.6107 293.197 83.3973 292.909 83.248C292.632 83.088 292.269 83.008 291.821 83.008C291.117 83.008 290.546 83.28 290.109 83.824C289.682 84.3573 289.469 85.0987 289.469 86.048C289.469 86.5173 289.528 86.9387 289.645 87.312C289.762 87.6853 289.928 88.0053 290.141 88.272C290.354 88.5387 290.605 88.7413 290.893 88.88C291.181 89.0187 291.501 89.088 291.853 89.088C292.28 89.088 292.648 89.0133 292.957 88.864C293.266 88.704 293.554 88.4747 293.821 88.176L294.589 88.944C294.28 89.3173 293.901 89.6213 293.453 89.856C293.005 90.08 292.461 90.192 291.821 90.192ZM298.886 90.192C298.171 90.192 297.648 89.9787 297.318 89.552C296.987 89.1253 296.822 88.5387 296.822 87.792V83.136H295.414V82.096H296.822V79.952H298.086V82.096H300.374V83.136H298.086V87.68C298.086 88.192 298.182 88.5493 298.374 88.752C298.576 88.9547 298.832 89.056 299.142 89.056C299.355 89.056 299.547 89.0187 299.718 88.944C299.888 88.8587 300.048 88.7467 300.198 88.608L300.774 89.504C300.283 89.9627 299.654 90.192 298.886 90.192ZM304.004 80C304.004 80.224 303.924 80.416 303.764 80.576C303.615 80.736 303.412 80.816 303.156 80.816C302.89 80.816 302.682 80.736 302.532 80.576C302.383 80.416 302.308 80.224 302.308 80C302.308 79.7867 302.383 79.6 302.532 79.44C302.682 79.2693 302.89 79.184 303.156 79.184C303.412 79.184 303.615 79.2693 303.764 79.44C303.924 79.6 304.004 79.7867 304.004 80ZM302.516 82.096H303.796V90H302.516V82.096ZM305.476 82.096H306.868L309.252 88.688H309.348L311.748 82.096H313.044L309.972 90H308.532L305.476 82.096ZM317.651 90.192C317.086 90.192 316.568 90.096 316.099 89.904C315.64 89.712 315.246 89.44 314.915 89.088C314.595 88.7253 314.344 88.288 314.163 87.776C313.992 87.264 313.907 86.688 313.907 86.048C313.907 85.376 313.998 84.784 314.179 84.272C314.36 83.7493 314.611 83.3173 314.931 82.976C315.251 82.624 315.63 82.3573 316.067 82.176C316.515 81.9947 317.006 81.904 317.539 81.904C318.072 81.904 318.563 81.9893 319.011 82.16C319.459 82.3307 319.843 82.5867 320.163 82.928C320.483 83.2587 320.734 83.68 320.915 84.192C321.096 84.6933 321.187 85.28 321.187 85.952C321.187 86.0373 321.182 86.1227 321.171 86.208C321.171 86.2933 321.166 86.3627 321.155 86.416H315.187C315.187 86.7893 315.251 87.1413 315.379 87.472C315.518 87.792 315.699 88.0747 315.923 88.32C316.158 88.5547 316.424 88.7413 316.723 88.88C317.032 89.0187 317.363 89.088 317.715 89.088C318.291 89.088 318.76 88.976 319.123 88.752C319.496 88.528 319.806 88.256 320.051 87.936L320.819 88.72C320.478 89.168 320.051 89.5253 319.539 89.792C319.038 90.0587 318.408 90.192 317.651 90.192ZM317.539 82.96C317.166 82.96 316.835 83.0293 316.547 83.168C316.259 83.3067 316.019 83.488 315.827 83.712C315.635 83.936 315.486 84.192 315.379 84.48C315.283 84.768 315.23 85.056 315.219 85.344H319.843C319.832 85.056 319.774 84.768 319.667 84.48C319.571 84.192 319.427 83.936 319.235 83.712C319.043 83.488 318.803 83.3067 318.515 83.168C318.238 83.0293 317.912 82.96 317.539 82.96Z" fill="#3C4C4F"/>
<defs>
<filter id="filter0_d_1367_90116" x="161.062" y="27.1023" width="21.0586" height="22.0181" filterUnits="userSpaceOnUse" color-interpolation-filters="sRGB">
<feFlood flood-opacity="0" result="BackgroundImageFix"/>
<feColorMatrix in="SourceAlpha" type="matrix" values="0 0 0 0 0 0 0 0 0 0 0 0 0 0 0 0 0 0 127 0" result="hardAlpha"/>
<feOffset dy="2"/>
<feGaussianBlur stdDeviation="1.5"/>
<feColorMatrix type="matrix" values="0 0 0 0 0 0 0 0 0 0 0 0 0 0 0 0 0 0 0.402655 0"/>
<feBlend mode="normal" in2="BackgroundImageFix" result="effect1_dropShadow_1367_90116"/>
<feBlend mode="normal" in="SourceGraphic" in2="effect1_dropShadow_1367_90116" result="shape"/>
</filter>
</defs>
</svg>
