<svg width="288" height="68" viewBox="0 0 288 68" fill="none" xmlns="http://www.w3.org/2000/svg">
<path d="M4.32006 15.168C3.6854 15.168 3.16273 15.0607 2.75206 14.846C2.3414 14.6313 1.98206 14.356 1.67406 14.02L2.38806 13.306C2.61206 13.5393 2.87806 13.7353 3.18606 13.894C3.49406 14.0527 3.85806 14.132 4.27806 14.132C4.86606 14.132 5.33273 13.978 5.67806 13.67C6.03273 13.3527 6.21006 12.9 6.21006 12.312C6.21006 11.7147 6.02806 11.262 5.66406 10.954C5.30006 10.6367 4.79606 10.478 4.15206 10.478H2.72406L2.27606 10.03V5.9H6.92406V6.908H3.39606V9.484H4.37606C4.88006 9.484 5.3234 9.554 5.70606 9.694C6.08873 9.834 6.40606 10.03 6.65806 10.282C6.91006 10.5247 7.1014 10.8187 7.23206 11.164C7.36273 11.5093 7.42806 11.892 7.42806 12.312C7.42806 12.704 7.36273 13.0727 7.23206 13.418C7.11073 13.7633 6.9194 14.0667 6.65806 14.328C6.40606 14.58 6.08406 14.7853 5.69206 14.944C5.3094 15.0933 4.85206 15.168 4.32006 15.168ZM13.0086 15.168C12.4299 15.168 11.9306 15.0467 11.5106 14.804C11.0999 14.5613 10.7593 14.23 10.4886 13.81C10.2273 13.3807 10.0313 12.8813 9.90059 12.312C9.77926 11.7333 9.71859 11.1127 9.71859 10.45C9.71859 9.78733 9.77926 9.17133 9.90059 8.602C10.0313 8.02333 10.2273 7.524 10.4886 7.104C10.7593 6.67467 11.0999 6.33867 11.5106 6.096C11.9306 5.85333 12.4299 5.732 13.0086 5.732C13.5873 5.732 14.0819 5.85333 14.4926 6.096C14.9126 6.33867 15.2533 6.67467 15.5146 7.104C15.7853 7.524 15.9813 8.02333 16.1026 8.602C16.2333 9.17133 16.2986 9.78733 16.2986 10.45C16.2986 11.1127 16.2333 11.7333 16.1026 12.312C15.9813 12.8813 15.7853 13.3807 15.5146 13.81C15.2533 14.23 14.9126 14.5613 14.4926 14.804C14.0819 15.0467 13.5873 15.168 13.0086 15.168ZM13.0086 14.16C13.3539 14.16 13.6573 14.076 13.9186 13.908C14.1799 13.7307 14.3946 13.4833 14.5626 13.166C14.7399 12.8393 14.8706 12.4473 14.9546 11.99C15.0386 11.5327 15.0806 11.0193 15.0806 10.45C15.0806 9.88067 15.0386 9.36733 14.9546 8.91C14.8706 8.45267 14.7399 8.06533 14.5626 7.748C14.3946 7.42133 14.1799 7.174 13.9186 7.006C13.6573 6.82867 13.3539 6.74 13.0086 6.74C12.6633 6.74 12.3599 6.82867 12.0986 7.006C11.8466 7.174 11.6319 7.42133 11.4546 7.748C11.2866 8.06533 11.1559 8.45267 11.0626 8.91C10.9786 9.36733 10.9366 9.88067 10.9366 10.45C10.9366 11.0193 10.9786 11.5327 11.0626 11.99C11.1559 12.4473 11.2866 12.8393 11.4546 13.166C11.6319 13.4833 11.8466 13.7307 12.0986 13.908C12.3599 14.076 12.6633 14.16 13.0086 14.16ZM26.0931 5.9H27.2691L21.1091 15H19.9331L26.0931 5.9ZM20.4791 10.744C20.0871 10.744 19.7418 10.674 19.4431 10.534C19.1538 10.394 18.9158 10.2073 18.7291 9.974C18.5425 9.74067 18.4025 9.47467 18.3091 9.176C18.2158 8.868 18.1691 8.55533 18.1691 8.238C18.1691 7.92067 18.2158 7.61267 18.3091 7.314C18.4025 7.006 18.5425 6.73533 18.7291 6.502C18.9158 6.26867 19.1538 6.082 19.4431 5.942C19.7418 5.802 20.0871 5.732 20.4791 5.732C20.8805 5.732 21.2258 5.802 21.5151 5.942C21.8045 6.082 22.0425 6.26867 22.2291 6.502C22.4158 6.73533 22.5558 7.006 22.6491 7.314C22.7425 7.61267 22.7891 7.92067 22.7891 8.238C22.7891 8.55533 22.7425 8.868 22.6491 9.176C22.5558 9.47467 22.4158 9.74067 22.2291 9.974C22.0425 10.2073 21.8045 10.394 21.5151 10.534C21.2258 10.674 20.8805 10.744 20.4791 10.744ZM20.4791 9.89C20.8618 9.89 21.1745 9.74533 21.4171 9.456C21.6691 9.15733 21.7951 8.75133 21.7951 8.238C21.7951 7.72467 21.6691 7.32333 21.4171 7.034C21.1745 6.73533 20.8618 6.586 20.4791 6.586C20.0965 6.586 19.7791 6.73533 19.5271 7.034C19.2845 7.32333 19.1631 7.72467 19.1631 8.238C19.1631 8.75133 19.2845 9.15733 19.5271 9.456C19.7791 9.74533 20.0965 9.89 20.4791 9.89ZM26.7231 15.168C26.3311 15.168 25.9858 15.098 25.6871 14.958C25.3978 14.818 25.1598 14.6313 24.9731 14.398C24.7865 14.1647 24.6465 13.8987 24.5531 13.6C24.4598 13.292 24.4131 12.9793 24.4131 12.662C24.4131 12.3447 24.4598 12.0367 24.5531 11.738C24.6465 11.43 24.7865 11.1593 24.9731 10.926C25.1598 10.6927 25.3978 10.506 25.6871 10.366C25.9858 10.226 26.3311 10.156 26.7231 10.156C27.1245 10.156 27.4698 10.226 27.7591 10.366C28.0485 10.506 28.2865 10.6927 28.4731 10.926C28.6598 11.1593 28.7998 11.43 28.8931 11.738C28.9865 12.0367 29.0331 12.3447 29.0331 12.662C29.0331 12.9793 28.9865 13.292 28.8931 13.6C28.7998 13.8987 28.6598 14.1647 28.4731 14.398C28.2865 14.6313 28.0485 14.818 27.7591 14.958C27.4698 15.098 27.1245 15.168 26.7231 15.168ZM26.7231 14.314C27.1058 14.314 27.4185 14.1693 27.6611 13.88C27.9131 13.5813 28.0391 13.1753 28.0391 12.662C28.0391 12.1487 27.9131 11.7473 27.6611 11.458C27.4185 11.1593 27.1058 11.01 26.7231 11.01C26.3405 11.01 26.0231 11.1593 25.7711 11.458C25.5285 11.7473 25.4071 12.1487 25.4071 12.662C25.4071 13.1753 25.5285 13.5813 25.7711 13.88C26.0231 14.1693 26.3405 14.314 26.7231 14.314Z" fill="#3C4C4F"/>
<g clip-path="url(#clip0_26340_5949)">
<g clip-path="url(#clip1_26340_5949)">
<path d="M270.718 11.122C270.718 10.73 270.662 10.3707 270.55 10.044C270.447 9.708 270.298 9.41867 270.102 9.176C269.915 8.924 269.687 8.73267 269.416 8.602C269.145 8.462 268.851 8.392 268.534 8.392H266.294V6.908H268.548C269.229 6.908 269.822 7.03867 270.326 7.3C270.83 7.552 271.245 7.87867 271.572 8.28C271.908 8.68133 272.155 9.134 272.314 9.638C272.482 10.142 272.566 10.6367 272.566 11.122V17.59H270.718V11.122ZM279.863 17.674C279.62 17.674 279.433 17.5993 279.303 17.45C279.172 17.31 279.107 17.142 279.107 16.946C279.107 16.7593 279.172 16.5913 279.303 16.442C279.433 16.2927 279.62 16.218 279.863 16.218C280.087 16.218 280.264 16.2927 280.395 16.442C280.525 16.5913 280.591 16.7593 280.591 16.946C280.591 17.142 280.525 17.31 280.395 17.45C280.264 17.5993 280.087 17.674 279.863 17.674ZM278.715 19.76C278.481 19.76 278.299 19.6853 278.169 19.536C278.038 19.396 277.973 19.2327 277.973 19.046C277.973 18.8593 278.038 18.6867 278.169 18.528C278.299 18.3787 278.481 18.304 278.715 18.304C278.957 18.304 279.144 18.3787 279.275 18.528C279.405 18.6867 279.471 18.8593 279.471 19.046C279.471 19.2327 279.405 19.396 279.275 19.536C279.144 19.6853 278.957 19.76 278.715 19.76ZM277.609 17.674C277.375 17.674 277.193 17.5993 277.063 17.45C276.932 17.31 276.867 17.142 276.867 16.946C276.867 16.7593 276.932 16.5913 277.063 16.442C277.193 16.2927 277.375 16.218 277.609 16.218C277.842 16.218 278.024 16.2927 278.155 16.442C278.285 16.5913 278.351 16.7593 278.351 16.946C278.351 17.142 278.285 17.31 278.155 17.45C278.024 17.5993 277.842 17.674 277.609 17.674ZM277.821 10.394C277.821 9.694 277.686 9.18533 277.415 8.868C277.154 8.55067 276.724 8.392 276.127 8.392H273.663V6.908H276.323C278.554 6.908 279.669 8.07 279.669 10.394V15H277.821V10.394ZM281.654 17.674C281.411 17.674 281.224 17.5993 281.094 17.45C280.963 17.31 280.898 17.142 280.898 16.946C280.898 16.7593 280.963 16.5913 281.094 16.442C281.224 16.2927 281.411 16.218 281.654 16.218C281.878 16.218 282.055 16.2927 282.186 16.442C282.316 16.5913 282.382 16.7593 282.382 16.946C282.382 17.142 282.316 17.31 282.186 17.45C282.055 17.5993 281.878 17.674 281.654 17.674ZM280.506 19.76C280.272 19.76 280.09 19.6853 279.96 19.536C279.829 19.396 279.764 19.2327 279.764 19.046C279.764 18.8593 279.829 18.6867 279.96 18.528C280.09 18.3787 280.272 18.304 280.506 18.304C280.748 18.304 280.935 18.3787 281.066 18.528C281.196 18.6867 281.262 18.8593 281.262 19.046C281.262 19.2327 281.196 19.396 281.066 19.536C280.935 19.6853 280.748 19.76 280.506 19.76ZM279.4 17.674C279.166 17.674 278.984 17.5993 278.854 17.45C278.723 17.31 278.658 17.142 278.658 16.946C278.658 16.7593 278.723 16.5913 278.854 16.442C278.984 16.2927 279.166 16.218 279.4 16.218C279.633 16.218 279.815 16.2927 279.946 16.442C280.076 16.5913 280.142 16.7593 280.142 16.946C280.142 17.142 280.076 17.31 279.946 17.45C279.815 17.5993 279.633 17.674 279.4 17.674ZM283.18 11.696C282.937 11.696 282.75 11.6213 282.62 11.472C282.489 11.3227 282.424 11.1547 282.424 10.968C282.424 10.772 282.489 10.5993 282.62 10.45C282.75 10.3007 282.937 10.226 283.18 10.226C283.413 10.226 283.595 10.3007 283.726 10.45C283.856 10.5993 283.922 10.772 283.922 10.968C283.922 11.1547 283.856 11.3227 283.726 11.472C283.595 11.6213 283.413 11.696 283.18 11.696ZM281.066 13.502H283.166C283.483 13.502 283.772 13.4413 284.034 13.32C284.295 13.1893 284.519 13.012 284.706 12.788C284.892 12.5547 285.037 12.284 285.14 11.976C285.242 11.6587 285.294 11.318 285.294 10.954C285.294 10.59 285.242 10.254 285.14 9.946C285.037 9.62867 284.892 9.358 284.706 9.134C284.519 8.90067 284.295 8.71867 284.034 8.588C283.772 8.45733 283.483 8.392 283.166 8.392H281.066V6.908H283.166C283.847 6.908 284.44 7.02933 284.944 7.272C285.448 7.51467 285.868 7.832 286.204 8.224C286.54 8.60667 286.787 9.04067 286.946 9.526C287.114 10.002 287.198 10.478 287.198 10.954C287.198 11.4207 287.114 11.8967 286.946 12.382C286.787 12.858 286.54 13.292 286.204 13.684C285.868 14.0667 285.448 14.384 284.944 14.636C284.44 14.8787 283.847 15 283.166 15H281.066V13.502Z" fill="black" fill-opacity="0.76"/>
</g>
</g>
<g clip-path="url(#clip2_26340_5949)">
<path d="M288 46C288 41.5817 284.418 38 280 38H154C152.895 38 152 38.8954 152 40V52C152 53.1046 152.895 54 154 54H280C284.418 54 288 50.4183 288 46V46Z" fill="#F36805"/>
</g>
<rect width="4" height="44" rx="2" transform="matrix(-1 0 0 1 146 24)" fill="#F36805"/>
<path opacity="0.38" d="M136 40C136 38.8954 135.105 38 134 38H8C3.58172 38 0 41.5817 0 46V46C0 50.4183 3.58172 54 8 54H134C135.105 54 136 53.1046 136 52V40Z" fill="#F36805"/>
<circle cx="2" cy="2" r="2" transform="matrix(-1 0 0 1 8 44)" fill="#F36805"/>
<defs>
<clipPath id="clip0_26340_5949">
<rect width="22" height="20" fill="white" transform="translate(266)"/>
</clipPath>
<clipPath id="clip1_26340_5949">
<rect width="22" height="20" fill="white" transform="translate(266)"/>
</clipPath>
<clipPath id="clip2_26340_5949">
<path d="M288 46C288 41.5817 284.418 38 280 38H154C152.895 38 152 38.8954 152 40V52C152 53.1046 152.895 54 154 54H280C284.418 54 288 50.4183 288 46V46Z" fill="white"/>
</clipPath>
</defs>
</svg>
