<svg width="288" height="92" viewBox="0 0 288 92" fill="none" xmlns="http://www.w3.org/2000/svg">
<path d="M1.022 5.9H2.898V13.474H6.524V15H1.022V5.9ZM9.67334 15.168C9.36534 15.168 9.07134 15.1167 8.79134 15.014C8.52068 14.9207 8.28268 14.7853 8.07734 14.608C7.87201 14.4213 7.70868 14.1973 7.58734 13.936C7.47534 13.6747 7.41934 13.3807 7.41934 13.054C7.41934 12.438 7.63868 11.948 8.07734 11.584C8.51601 11.22 9.18334 11.0147 10.0793 10.968L11.7033 10.87V10.59C11.7033 10.142 11.568 9.834 11.2973 9.666C11.0267 9.498 10.6907 9.414 10.2893 9.414C9.97201 9.414 9.67334 9.47467 9.39334 9.596C9.11334 9.708 8.90334 9.848 8.76334 10.016L7.76934 9.008C8.01201 8.69067 8.36201 8.42933 8.81934 8.224C9.28601 8.01867 9.85534 7.916 10.5273 7.916C11.5167 7.916 12.254 8.14467 12.7393 8.602C13.2247 9.05933 13.4673 9.68 13.4673 10.464V15H11.8013V13.894H11.7173C11.54 14.286 11.2833 14.5987 10.9473 14.832C10.6113 15.056 10.1867 15.168 9.67334 15.168ZM10.1913 13.894C10.6393 13.894 11.0033 13.768 11.2833 13.516C11.5633 13.2547 11.7033 12.8907 11.7033 12.424V11.962L10.2893 12.074C9.56134 12.1207 9.19734 12.4287 9.19734 12.998C9.19734 13.2873 9.29068 13.5113 9.47734 13.67C9.66401 13.8193 9.90201 13.894 10.1913 13.894ZM19.2154 15.168C18.6741 15.168 18.2028 15.0373 17.8014 14.776C17.4094 14.5147 17.1294 14.1553 16.9614 13.698H16.8774V15H15.1974V4.85H16.9614V9.274H17.0454C17.2041 8.87267 17.4701 8.546 17.8434 8.294C18.2168 8.042 18.6741 7.916 19.2154 7.916C19.6448 7.916 20.0414 8.00467 20.4054 8.182C20.7788 8.35933 21.0961 8.61133 21.3574 8.938C21.6281 9.25533 21.8381 9.638 21.9874 10.086C22.1368 10.534 22.2114 11.0287 22.2114 11.57C22.2114 12.102 22.1368 12.592 21.9874 13.04C21.8381 13.4787 21.6281 13.8567 21.3574 14.174C21.0961 14.482 20.7788 14.7247 20.4054 14.902C20.0414 15.0793 19.6448 15.168 19.2154 15.168ZM18.6694 13.628C19.1921 13.628 19.6121 13.4413 19.9294 13.068C20.2468 12.6947 20.4054 12.186 20.4054 11.542C20.4054 10.898 20.2468 10.3893 19.9294 10.016C19.6121 9.64267 19.1921 9.456 18.6694 9.456C18.1561 9.456 17.7408 9.64267 17.4234 10.016C17.1154 10.3893 16.9614 10.898 16.9614 11.542C16.9614 12.186 17.1154 12.6947 17.4234 13.068C17.7408 13.4413 18.1561 13.628 18.6694 13.628ZM26.588 15.168C26.0093 15.168 25.5053 15.0747 25.076 14.888C24.6466 14.7013 24.2826 14.4447 23.984 14.118C23.6946 13.782 23.4753 13.3947 23.326 12.956C23.186 12.5173 23.116 12.046 23.116 11.542C23.116 11.0287 23.186 10.5527 23.326 10.114C23.466 9.666 23.676 9.28333 23.956 8.966C24.236 8.63933 24.586 8.38267 25.006 8.196C25.426 8.00933 25.916 7.916 26.476 7.916C27.036 7.916 27.526 8.00467 27.946 8.182C28.366 8.35933 28.7113 8.60667 28.982 8.924C29.2526 9.24133 29.4533 9.61933 29.584 10.058C29.724 10.4873 29.794 10.9587 29.794 11.472C29.794 11.5653 29.7846 11.6727 29.766 11.794C29.7566 11.9153 29.7426 12.0133 29.724 12.088H24.908C24.936 12.34 25.0013 12.5687 25.104 12.774C25.216 12.97 25.3513 13.138 25.51 13.278C25.678 13.418 25.86 13.5253 26.056 13.6C26.2613 13.6653 26.4713 13.698 26.686 13.698C27.0873 13.698 27.4233 13.628 27.694 13.488C27.9646 13.348 28.184 13.1707 28.352 12.956L29.346 13.992C29.0846 14.3467 28.7206 14.6313 28.254 14.846C27.7873 15.0607 27.232 15.168 26.588 15.168ZM26.476 9.26C26.028 9.26 25.664 9.40467 25.384 9.694C25.104 9.98333 24.9406 10.366 24.894 10.842H28.03C27.9833 10.366 27.82 9.98333 27.54 9.694C27.2693 9.40467 26.9146 9.26 26.476 9.26ZM31.1662 4.85H32.9302V15H31.1662V4.85Z" fill="#242E30"/>
<path d="M138 40C138 38.8954 137.105 38 136 38H8C3.58173 38 0 41.5817 0 46C0 50.4183 3.58173 54 8 54H136C137.105 54 138 53.1046 138 52V40Z" fill="#F36805"/>
<rect x="142" y="24" width="4" height="44" rx="2" fill="#F36805"/>
<path d="M150 40C150 38.8954 150.895 38 152 38H280C284.418 38 288 41.5817 288 46C288 50.4183 284.418 54 280 54H152C150.895 54 150 53.1046 150 52V40Z" fill="#F36805" fill-opacity="0.38"/>
<circle cx="282" cy="46" r="2" fill="#F36805"/>
<path d="M0.364 87L3.626 77.9H5.18L8.456 87H7.182L6.468 84.998H2.282L1.568 87H0.364ZM4.326 78.894L2.632 83.99H6.118L4.41 78.894H4.326ZM11.8844 87.168C11.287 87.168 10.7737 87.0653 10.3444 86.86C9.91503 86.6547 9.57903 86.3887 9.33636 86.062L10.0784 85.362C10.293 85.614 10.5404 85.8193 10.8204 85.978C11.1097 86.1367 11.469 86.216 11.8984 86.216C12.281 86.216 12.617 86.1367 12.9064 85.978C13.1957 85.81 13.3404 85.5533 13.3404 85.208C13.3404 84.9373 13.2564 84.7273 13.0884 84.578C12.9297 84.4193 12.7197 84.2933 12.4584 84.2C12.197 84.0973 11.917 84.004 11.6184 83.92C11.273 83.8173 10.9464 83.6913 10.6384 83.542C10.3397 83.3833 10.0924 83.178 9.89636 82.926C9.70969 82.6647 9.61636 82.3333 9.61636 81.932C9.61636 81.4933 9.71903 81.1247 9.92436 80.826C10.139 80.5273 10.4237 80.3033 10.7784 80.154C11.1424 79.9953 11.5484 79.916 11.9964 79.916C12.491 79.916 12.953 80.0093 13.3824 80.196C13.8117 80.3733 14.157 80.6533 14.4184 81.036L13.6904 81.708C13.485 81.4653 13.2424 81.2647 12.9624 81.106C12.6917 80.9473 12.3697 80.868 11.9964 80.868C11.679 80.868 11.385 80.9473 11.1144 81.106C10.8437 81.2553 10.7084 81.498 10.7084 81.834C10.7084 82.1047 10.7877 82.3193 10.9464 82.478C11.1144 82.6273 11.329 82.7487 11.5904 82.842C11.8517 82.9353 12.1317 83.0287 12.4304 83.122C12.7757 83.2247 13.0977 83.3553 13.3964 83.514C13.7044 83.6633 13.9517 83.864 14.1384 84.116C14.3344 84.368 14.4324 84.6993 14.4324 85.11C14.4324 85.586 14.3157 85.978 14.0824 86.286C13.849 86.5847 13.5364 86.8087 13.1444 86.958C12.7617 87.098 12.3417 87.168 11.8844 87.168ZM18.2418 87.168C17.6444 87.168 17.1311 87.0653 16.7018 86.86C16.2724 86.6547 15.9364 86.3887 15.6938 86.062L16.4358 85.362C16.6504 85.614 16.8978 85.8193 17.1778 85.978C17.4671 86.1367 17.8264 86.216 18.2558 86.216C18.6384 86.216 18.9744 86.1367 19.2638 85.978C19.5531 85.81 19.6978 85.5533 19.6978 85.208C19.6978 84.9373 19.6138 84.7273 19.4458 84.578C19.2871 84.4193 19.0771 84.2933 18.8158 84.2C18.5544 84.0973 18.2744 84.004 17.9758 83.92C17.6304 83.8173 17.3038 83.6913 16.9958 83.542C16.6971 83.3833 16.4498 83.178 16.2538 82.926C16.0671 82.6647 15.9738 82.3333 15.9738 81.932C15.9738 81.4933 16.0764 81.1247 16.2818 80.826C16.4964 80.5273 16.7811 80.3033 17.1358 80.154C17.4998 79.9953 17.9058 79.916 18.3538 79.916C18.8484 79.916 19.3104 80.0093 19.7398 80.196C20.1691 80.3733 20.5144 80.6533 20.7758 81.036L20.0478 81.708C19.8424 81.4653 19.5998 81.2647 19.3198 81.106C19.0491 80.9473 18.7271 80.868 18.3538 80.868C18.0364 80.868 17.7424 80.9473 17.4718 81.106C17.2011 81.2553 17.0658 81.498 17.0658 81.834C17.0658 82.1047 17.1451 82.3193 17.3038 82.478C17.4718 82.6273 17.6864 82.7487 17.9478 82.842C18.2091 82.9353 18.4891 83.0287 18.7878 83.122C19.1331 83.2247 19.4551 83.3553 19.7538 83.514C20.0618 83.6633 20.3091 83.864 20.4958 84.116C20.6918 84.368 20.7898 84.6993 20.7898 85.11C20.7898 85.586 20.6731 85.978 20.4398 86.286C20.2064 86.5847 19.8938 86.8087 19.5018 86.958C19.1191 87.098 18.6991 87.168 18.2418 87.168ZM22.7232 87V80.084H23.8432V87H22.7232ZM23.2832 78.964C23.0499 78.964 22.8679 78.894 22.7372 78.754C22.6065 78.614 22.5412 78.446 22.5412 78.25C22.5412 78.0633 22.6065 77.9 22.7372 77.76C22.8679 77.6107 23.0499 77.536 23.2832 77.536C23.5072 77.536 23.6845 77.6107 23.8152 77.76C23.9552 77.9 24.0252 78.0633 24.0252 78.25C24.0252 78.446 23.9552 78.614 23.8152 78.754C23.6845 78.894 23.5072 78.964 23.2832 78.964ZM28.0992 87.168C27.5019 87.168 26.9885 87.0653 26.5592 86.86C26.1299 86.6547 25.7939 86.3887 25.5512 86.062L26.2932 85.362C26.5079 85.614 26.7552 85.8193 27.0352 85.978C27.3245 86.1367 27.6839 86.216 28.1132 86.216C28.4959 86.216 28.8319 86.1367 29.1212 85.978C29.4105 85.81 29.5552 85.5533 29.5552 85.208C29.5552 84.9373 29.4712 84.7273 29.3032 84.578C29.1445 84.4193 28.9345 84.2933 28.6732 84.2C28.4119 84.0973 28.1319 84.004 27.8332 83.92C27.4879 83.8173 27.1612 83.6913 26.8532 83.542C26.5545 83.3833 26.3072 83.178 26.1112 82.926C25.9245 82.6647 25.8312 82.3333 25.8312 81.932C25.8312 81.4933 25.9339 81.1247 26.1392 80.826C26.3539 80.5273 26.6385 80.3033 26.9932 80.154C27.3572 79.9953 27.7632 79.916 28.2112 79.916C28.7059 79.916 29.1679 80.0093 29.5972 80.196C30.0265 80.3733 30.3719 80.6533 30.6332 81.036L29.9052 81.708C29.6999 81.4653 29.4572 81.2647 29.1772 81.106C28.9065 80.9473 28.5845 80.868 28.2112 80.868C27.8939 80.868 27.5999 80.9473 27.3292 81.106C27.0585 81.2553 26.9232 81.498 26.9232 81.834C26.9232 82.1047 27.0025 82.3193 27.1612 82.478C27.3292 82.6273 27.5439 82.7487 27.8052 82.842C28.0665 82.9353 28.3465 83.0287 28.6452 83.122C28.9905 83.2247 29.3125 83.3553 29.6112 83.514C29.9192 83.6633 30.1665 83.864 30.3532 84.116C30.5492 84.368 30.6472 84.6993 30.6472 85.11C30.6472 85.586 30.5305 85.978 30.2972 86.286C30.0639 86.5847 29.7512 86.8087 29.3592 86.958C28.9765 87.098 28.5565 87.168 28.0992 87.168ZM34.7086 87.168C34.298 87.168 33.9573 87.084 33.6866 86.916C33.416 86.748 33.2153 86.5053 33.0846 86.188C32.9633 85.8707 32.9026 85.4973 32.9026 85.068V80.994H31.6706V80.084H32.9026V78.208H34.0086V80.084H36.0106V80.994H34.0086V84.97C34.0086 85.418 34.0926 85.7307 34.2606 85.908C34.438 86.0853 34.662 86.174 34.9326 86.174C35.1193 86.174 35.2873 86.1413 35.4366 86.076C35.586 86.0013 35.726 85.9033 35.8566 85.782L36.3606 86.566C36.146 86.7713 35.8986 86.9207 35.6186 87.014C35.348 87.1167 35.0446 87.168 34.7086 87.168ZM37.8853 87V80.084H39.0053V87H37.8853ZM38.4453 78.964C38.212 78.964 38.03 78.894 37.8993 78.754C37.7686 78.614 37.7033 78.446 37.7033 78.25C37.7033 78.0633 37.7686 77.9 37.8993 77.76C38.03 77.6107 38.212 77.536 38.4453 77.536C38.6693 77.536 38.8466 77.6107 38.9773 77.76C39.1173 77.9 39.1873 78.0633 39.1873 78.25C39.1873 78.446 39.1173 78.614 38.9773 78.754C38.8466 78.894 38.6693 78.964 38.4453 78.964ZM43.1493 87L40.4753 80.084H41.6933L43.7793 85.852H43.8633L45.9633 80.084H47.0973L44.4093 87H43.1493ZM51.1283 87.168C50.4657 87.168 49.887 87.0233 49.3923 86.734C48.907 86.4447 48.529 86.0293 48.2583 85.488C47.9877 84.9373 47.8523 84.2887 47.8523 83.542C47.8523 82.954 47.927 82.436 48.0763 81.988C48.235 81.5307 48.4543 81.1527 48.7343 80.854C49.0237 80.546 49.3597 80.3127 49.7423 80.154C50.1343 79.9953 50.5637 79.916 51.0303 79.916C51.497 79.916 51.9217 79.9907 52.3043 80.14C52.6963 80.2893 53.0323 80.5133 53.3123 80.812C53.6017 81.1013 53.8257 81.47 53.9843 81.918C54.143 82.3567 54.2223 82.87 54.2223 83.458C54.2223 83.5327 54.2177 83.6073 54.2083 83.682C54.2083 83.7567 54.2037 83.8173 54.1943 83.864H48.9723C48.9817 84.2933 49.0843 84.6853 49.2803 85.04C49.4763 85.3947 49.7377 85.6793 50.0643 85.894C50.4003 86.0993 50.7737 86.202 51.1843 86.202C51.679 86.202 52.0897 86.104 52.4163 85.908C52.743 85.712 53.0137 85.474 53.2283 85.194L53.9003 85.88C53.611 86.272 53.2423 86.5847 52.7943 86.818C52.3463 87.0513 51.791 87.168 51.1283 87.168ZM51.0303 80.84C50.5917 80.84 50.223 80.9427 49.9243 81.148C49.6257 81.3533 49.397 81.6147 49.2383 81.932C49.089 82.2493 49.0097 82.5807 49.0003 82.926H53.0463C53.037 82.5807 52.953 82.2493 52.7943 81.932C52.645 81.6147 52.421 81.3533 52.1223 81.148C51.833 80.9427 51.469 80.84 51.0303 80.84ZM61.5192 87.168C61.1085 87.168 60.7678 87.084 60.4972 86.916C60.2265 86.748 60.0258 86.5053 59.8952 86.188C59.7738 85.8707 59.7132 85.4973 59.7132 85.068V80.994H58.4812V80.084H59.7132V78.208H60.8192V80.084H62.8212V80.994H60.8192V84.97C60.8192 85.418 60.9032 85.7307 61.0712 85.908C61.2485 86.0853 61.4725 86.174 61.7432 86.174C61.9298 86.174 62.0978 86.1413 62.2472 86.076C62.3965 86.0013 62.5365 85.9033 62.6672 85.782L63.1712 86.566C62.9565 86.7713 62.7092 86.9207 62.4292 87.014C62.1585 87.1167 61.8552 87.168 61.5192 87.168ZM67.2885 87.168C66.6258 87.168 66.0472 87.0233 65.5525 86.734C65.0672 86.4447 64.6892 86.0293 64.4185 85.488C64.1478 84.9373 64.0125 84.2887 64.0125 83.542C64.0125 82.954 64.0872 82.436 64.2365 81.988C64.3952 81.5307 64.6145 81.1527 64.8945 80.854C65.1838 80.546 65.5198 80.3127 65.9025 80.154C66.2945 79.9953 66.7238 79.916 67.1905 79.916C67.6572 79.916 68.0818 79.9907 68.4645 80.14C68.8565 80.2893 69.1925 80.5133 69.4725 80.812C69.7618 81.1013 69.9858 81.47 70.1445 81.918C70.3032 82.3567 70.3825 82.87 70.3825 83.458C70.3825 83.5327 70.3778 83.6073 70.3685 83.682C70.3685 83.7567 70.3638 83.8173 70.3545 83.864H65.1325C65.1418 84.2933 65.2445 84.6853 65.4405 85.04C65.6365 85.3947 65.8978 85.6793 66.2245 85.894C66.5605 86.0993 66.9338 86.202 67.3445 86.202C67.8392 86.202 68.2498 86.104 68.5765 85.908C68.9032 85.712 69.1738 85.474 69.3885 85.194L70.0605 85.88C69.7712 86.272 69.4025 86.5847 68.9545 86.818C68.5065 87.0513 67.9512 87.168 67.2885 87.168ZM67.1905 80.84C66.7518 80.84 66.3832 80.9427 66.0845 81.148C65.7858 81.3533 65.5572 81.6147 65.3985 81.932C65.2492 82.2493 65.1698 82.5807 65.1605 82.926H69.2065C69.1972 82.5807 69.1132 82.2493 68.9545 81.932C68.8052 81.6147 68.5812 81.3533 68.2825 81.148C67.9932 80.9427 67.6292 80.84 67.1905 80.84ZM71.214 87L73.636 83.486L71.326 80.084H72.67L74.308 82.674H74.364L76.058 80.084H77.262L74.952 83.43L77.374 87H76.03L74.28 84.242H74.224L72.418 87H71.214ZM81.152 87.168C80.7413 87.168 80.4007 87.084 80.13 86.916C79.8593 86.748 79.6587 86.5053 79.528 86.188C79.4067 85.8707 79.346 85.4973 79.346 85.068V80.994H78.114V80.084H79.346V78.208H80.452V80.084H82.454V80.994H80.452V84.97C80.452 85.418 80.536 85.7307 80.704 85.908C80.8813 86.0853 81.1053 86.174 81.376 86.174C81.5627 86.174 81.7307 86.1413 81.88 86.076C82.0293 86.0013 82.1693 85.9033 82.3 85.782L82.804 86.566C82.5893 86.7713 82.342 86.9207 82.062 87.014C81.7913 87.1167 81.488 87.168 81.152 87.168Z" fill="#3C4C4F"/>
</svg>
