<svg width="845" height="144" viewBox="0 0 845 144" fill="none" xmlns="http://www.w3.org/2000/svg">
<g clip-path="url(#clip0_10642_64888)">
<path d="M75 12C75 5.37258 80.3726 0 87 0H795.639C802.266 0 807.639 5.37258 807.639 12V132C807.639 138.627 802.266 144 795.639 144H87C80.3726 144 75 138.627 75 132V12Z" fill="#CFF7E1"/>
<g opacity="0.08">
<rect width="24" height="2" transform="translate(91 16)" fill="white" fill-opacity="0.01"/>
</g>
<path d="M99.5043 29.5955L101.5 31.7868L101.513 31.7738L106.522 26.3347L107.957 27.6651L102.609 33.4694C102.309 33.7825 101.917 33.952 101.5 33.952C101.083 33.952 100.691 33.7825 100.404 33.4825L98.0565 30.9129L99.5043 29.5955Z" fill="#017A39"/>
<path fill-rule="evenodd" clip-rule="evenodd" d="M93.2174 29.9999C93.2174 24.5999 97.6 20.2173 103 20.2173C108.4 20.2173 112.783 24.5999 112.783 29.9999C112.783 35.3999 108.4 39.7825 103 39.7825C97.6 39.7825 93.2174 35.3999 93.2174 29.9999ZM95.1739 29.9999C95.1739 34.3173 98.6826 37.826 103 37.826C107.317 37.826 110.826 34.3173 110.826 29.9999C110.826 25.6825 107.317 22.1738 103 22.1738C98.6826 22.1738 95.1739 25.6825 95.1739 29.9999Z" fill="#017A39"/>
<path d="M130.92 26.7H127.36V24H137.86V26.7H134.3V37H130.92V26.7ZM142.671 24.28C142.671 24.7333 142.518 25.14 142.211 25.5C141.904 25.8467 141.458 26.02 140.871 26.02C140.271 26.02 139.824 25.8467 139.531 25.5C139.238 25.14 139.091 24.7333 139.091 24.28C139.091 23.8267 139.238 23.4267 139.531 23.08C139.824 22.72 140.271 22.54 140.871 22.54C141.458 22.54 141.904 22.72 142.211 23.08C142.518 23.4267 142.671 23.8267 142.671 24.28ZM139.271 27.12H142.451V37H139.271V27.12ZM148.904 37.22C147.651 37.22 146.744 36.9067 146.184 36.28C145.637 35.6533 145.364 34.6533 145.364 33.28V29.66H143.944V27.12H145.364V24.44H148.504V27.12H151.424V29.66H148.504V33.34C148.504 33.78 148.577 34.1 148.724 34.3C148.884 34.5 149.144 34.6 149.504 34.6C149.744 34.6 149.971 34.5533 150.184 34.46C150.411 34.3533 150.597 34.2267 150.744 34.08L151.764 36.24C151.111 36.8933 150.157 37.22 148.904 37.22ZM153.119 22.5H156.299V37H153.119V22.5ZM162.972 37.24C162.065 37.24 161.285 37.0933 160.632 36.8C159.992 36.5067 159.465 36.12 159.052 35.64C158.638 35.16 158.332 34.6133 158.132 34C157.932 33.3733 157.832 32.7267 157.832 32.06C157.832 31.4067 157.918 30.7667 158.092 30.14C158.278 29.5133 158.565 28.96 158.952 28.48C159.352 28 159.865 27.6133 160.492 27.32C161.118 27.0267 161.885 26.88 162.792 26.88C163.698 26.88 164.465 27.0267 165.092 27.32C165.718 27.6 166.218 27.98 166.592 28.46C166.978 28.9267 167.252 29.4667 167.412 30.08C167.585 30.6933 167.672 31.3267 167.672 31.98C167.672 32.1267 167.658 32.32 167.632 32.56C167.605 32.7867 167.572 32.96 167.532 33.08H161.052C161.105 33.3733 161.205 33.62 161.352 33.82C161.512 34.02 161.692 34.18 161.892 34.3C162.092 34.42 162.298 34.5067 162.512 34.56C162.738 34.6133 162.952 34.64 163.152 34.64C163.618 34.64 164.018 34.5667 164.352 34.42C164.698 34.2733 164.965 34.08 165.152 33.84L166.892 35.66C166.572 36.1267 166.065 36.5067 165.372 36.8C164.678 37.0933 163.878 37.24 162.972 37.24ZM162.792 29.24C162.365 29.24 161.985 29.3733 161.652 29.64C161.318 29.8933 161.098 30.34 160.992 30.98H164.552C164.458 30.34 164.245 29.8933 163.912 29.64C163.578 29.3733 163.205 29.24 162.792 29.24Z" fill="#242E30"/>
<path d="M131.192 66.192C130.285 66.192 129.549 66.0533 128.984 65.776C128.419 65.4987 127.971 65.1413 127.64 64.704L128.504 63.888C128.792 64.24 129.171 64.5173 129.64 64.72C130.12 64.9227 130.68 65.024 131.32 65.024C131.608 65.024 131.885 64.992 132.152 64.928C132.419 64.864 132.653 64.768 132.856 64.64C133.069 64.5013 133.235 64.32 133.352 64.096C133.48 63.872 133.544 63.6 133.544 63.28C133.544 63.0027 133.48 62.768 133.352 62.576C133.224 62.3733 133.048 62.2027 132.824 62.064C132.611 61.9147 132.355 61.7867 132.056 61.68C131.757 61.5627 131.432 61.4453 131.08 61.328C130.707 61.2 130.339 61.0667 129.976 60.928C129.613 60.7787 129.288 60.592 129 60.368C128.712 60.144 128.477 59.872 128.296 59.552C128.115 59.2213 128.024 58.816 128.024 58.336C128.024 57.856 128.109 57.4347 128.28 57.072C128.461 56.7093 128.707 56.4053 129.016 56.16C129.325 55.9147 129.693 55.728 130.12 55.6C130.547 55.472 131.011 55.408 131.512 55.408C132.248 55.408 132.904 55.536 133.48 55.792C134.067 56.048 134.541 56.4373 134.904 56.96L134.04 57.808C133.752 57.456 133.384 57.1627 132.936 56.928C132.488 56.6933 131.976 56.576 131.4 56.576C131.155 56.576 130.915 56.608 130.68 56.672C130.445 56.7253 130.232 56.8213 130.04 56.96C129.848 57.0987 129.693 57.2747 129.576 57.488C129.459 57.7013 129.4 57.9573 129.4 58.256C129.4 58.5333 129.464 58.7733 129.592 58.976C129.72 59.168 129.891 59.3387 130.104 59.488C130.328 59.6267 130.589 59.7547 130.888 59.872C131.187 59.9787 131.512 60.0907 131.864 60.208C132.237 60.336 132.605 60.4747 132.968 60.624C133.331 60.7733 133.656 60.96 133.944 61.184C134.232 61.408 134.467 61.68 134.648 62C134.829 62.32 134.92 62.72 134.92 63.2C134.92 63.712 134.819 64.16 134.616 64.544C134.424 64.9173 134.157 65.2267 133.816 65.472C133.485 65.7173 133.091 65.8987 132.632 66.016C132.184 66.1333 131.704 66.192 131.192 66.192ZM139.799 66.192C139.361 66.192 138.967 66.1333 138.615 66.016C138.263 65.8987 137.959 65.7173 137.703 65.472C137.457 65.2267 137.265 64.912 137.127 64.528C136.988 64.144 136.919 63.6853 136.919 63.152V58.096H138.199V62.912C138.199 63.7227 138.353 64.2987 138.663 64.64C138.983 64.9707 139.447 65.136 140.055 65.136C140.631 65.136 141.084 64.928 141.415 64.512C141.756 64.096 141.927 63.488 141.927 62.688V58.096H143.207V66H141.991V64.752H141.895C141.703 65.168 141.436 65.5147 141.095 65.792C140.764 66.0587 140.332 66.192 139.799 66.192ZM145.923 58.096H147.139V59.712H147.235C147.331 59.4453 147.464 59.2 147.635 58.976C147.816 58.752 148.024 58.56 148.259 58.4C148.504 58.24 148.771 58.1173 149.059 58.032C149.357 57.9467 149.667 57.904 149.987 57.904C150.509 57.904 150.984 58.0107 151.411 58.224C151.848 58.4267 152.221 58.7147 152.531 59.088C152.84 59.4507 153.075 59.888 153.235 60.4C153.405 60.912 153.491 61.4667 153.491 62.064C153.491 62.6613 153.405 63.216 153.235 63.728C153.075 64.2293 152.84 64.6667 152.531 65.04C152.221 65.4027 151.848 65.6853 151.411 65.888C150.984 66.0907 150.509 66.192 149.987 66.192C149.336 66.192 148.776 66.0373 148.307 65.728C147.837 65.4187 147.501 65.024 147.299 64.544H147.203V68.96H145.923V58.096ZM149.667 65.04C150.019 65.04 150.344 64.9813 150.643 64.864C150.952 64.736 151.219 64.5493 151.443 64.304C151.677 64.048 151.859 63.7333 151.987 63.36C152.115 62.9867 152.179 62.5493 152.179 62.048C152.179 61.5467 152.115 61.1093 151.987 60.736C151.859 60.3627 151.677 60.0533 151.443 59.808C151.219 59.552 150.952 59.3653 150.643 59.248C150.344 59.12 150.019 59.056 149.667 59.056C149.325 59.056 149.005 59.12 148.707 59.248C148.408 59.3653 148.147 59.552 147.923 59.808C147.699 60.0533 147.523 60.3627 147.395 60.736C147.267 61.1093 147.203 61.5467 147.203 62.048C147.203 62.5493 147.267 62.9867 147.395 63.36C147.523 63.7333 147.699 64.048 147.923 64.304C148.147 64.5493 148.408 64.736 148.707 64.864C149.005 64.9813 149.325 65.04 149.667 65.04ZM155.548 58.096H156.764V59.712H156.86C156.956 59.4453 157.089 59.2 157.26 58.976C157.441 58.752 157.649 58.56 157.884 58.4C158.129 58.24 158.396 58.1173 158.684 58.032C158.982 57.9467 159.292 57.904 159.612 57.904C160.134 57.904 160.609 58.0107 161.036 58.224C161.473 58.4267 161.846 58.7147 162.156 59.088C162.465 59.4507 162.7 59.888 162.86 60.4C163.03 60.912 163.116 61.4667 163.116 62.064C163.116 62.6613 163.03 63.216 162.86 63.728C162.7 64.2293 162.465 64.6667 162.156 65.04C161.846 65.4027 161.473 65.6853 161.036 65.888C160.609 66.0907 160.134 66.192 159.612 66.192C158.961 66.192 158.401 66.0373 157.932 65.728C157.462 65.4187 157.126 65.024 156.924 64.544H156.828V68.96H155.548V58.096ZM159.292 65.04C159.644 65.04 159.969 64.9813 160.268 64.864C160.577 64.736 160.844 64.5493 161.068 64.304C161.302 64.048 161.484 63.7333 161.612 63.36C161.74 62.9867 161.804 62.5493 161.804 62.048C161.804 61.5467 161.74 61.1093 161.612 60.736C161.484 60.3627 161.302 60.0533 161.068 59.808C160.844 59.552 160.577 59.3653 160.268 59.248C159.969 59.12 159.644 59.056 159.292 59.056C158.95 59.056 158.63 59.12 158.332 59.248C158.033 59.3653 157.772 59.552 157.548 59.808C157.324 60.0533 157.148 60.3627 157.02 60.736C156.892 61.1093 156.828 61.5467 156.828 62.048C156.828 62.5493 156.892 62.9867 157.02 63.36C157.148 63.7333 157.324 64.048 157.548 64.304C157.772 64.5493 158.033 64.736 158.332 64.864C158.63 64.9813 158.95 65.04 159.292 65.04ZM168.293 66.192C167.663 66.192 167.109 66.0853 166.629 65.872C166.159 65.648 165.765 65.3493 165.445 64.976C165.135 64.6027 164.901 64.1653 164.741 63.664C164.591 63.1627 164.517 62.624 164.517 62.048C164.517 61.472 164.591 60.9333 164.741 60.432C164.901 59.9307 165.135 59.4933 165.445 59.12C165.765 58.7467 166.159 58.4533 166.629 58.24C167.109 58.016 167.663 57.904 168.293 57.904C168.922 57.904 169.466 58.016 169.925 58.24C170.394 58.4533 170.783 58.7467 171.093 59.12C171.402 59.4933 171.631 59.9307 171.781 60.432C171.941 60.9333 172.021 61.472 172.021 62.048C172.021 62.624 171.941 63.1627 171.781 63.664C171.631 64.1653 171.402 64.6027 171.093 64.976C170.783 65.3493 170.394 65.648 169.925 65.872C169.466 66.0853 168.922 66.192 168.293 66.192ZM165.829 62.048C165.829 62.5067 165.877 62.928 165.973 63.312C166.079 63.6853 166.234 64.0107 166.437 64.288C166.639 64.5547 166.895 64.7627 167.205 64.912C167.514 65.0613 167.877 65.136 168.293 65.136C168.698 65.136 169.05 65.0613 169.349 64.912C169.658 64.7627 169.909 64.5547 170.101 64.288C170.303 64.0107 170.453 63.6853 170.549 63.312C170.655 62.928 170.709 62.5067 170.709 62.048C170.709 61.5893 170.655 61.1733 170.549 60.8C170.453 60.416 170.303 60.0907 170.101 59.824C169.909 59.5467 169.658 59.3333 169.349 59.184C169.05 59.0347 168.698 58.96 168.293 58.96C167.877 58.96 167.514 59.0347 167.205 59.184C166.895 59.3333 166.639 59.5467 166.437 59.824C166.234 60.0907 166.079 60.416 165.973 60.8C165.877 61.1733 165.829 61.5893 165.829 62.048ZM174.079 58.096H175.295V59.376H175.391C175.561 58.96 175.807 58.6133 176.127 58.336C176.447 58.048 176.847 57.904 177.327 57.904C177.732 57.904 178.089 57.984 178.399 58.144L177.967 59.296C177.828 59.2213 177.679 59.1733 177.519 59.152C177.369 59.12 177.215 59.104 177.055 59.104C176.532 59.104 176.116 59.3173 175.807 59.744C175.508 60.16 175.359 60.6933 175.359 61.344V66H174.079V58.096ZM182.48 66.192C181.765 66.192 181.242 65.9787 180.912 65.552C180.581 65.1253 180.416 64.5387 180.416 63.792V59.136H179.008V58.096H180.416V55.952H181.68V58.096H183.968V59.136H181.68V63.68C181.68 64.192 181.776 64.5493 181.968 64.752C182.17 64.9547 182.426 65.056 182.736 65.056C182.949 65.056 183.141 65.0187 183.312 64.944C183.482 64.8587 183.642 64.7467 183.792 64.608L184.368 65.504C183.877 65.9627 183.248 66.192 182.48 66.192ZM187.598 56C187.598 56.224 187.518 56.416 187.358 56.576C187.209 56.736 187.006 56.816 186.75 56.816C186.483 56.816 186.275 56.736 186.126 56.576C185.977 56.416 185.902 56.224 185.902 56C185.902 55.7867 185.977 55.6 186.126 55.44C186.275 55.2693 186.483 55.184 186.75 55.184C187.006 55.184 187.209 55.2693 187.358 55.44C187.518 55.6 187.598 55.7867 187.598 56ZM186.11 58.096H187.39V66H186.11V58.096ZM190.11 58.096H191.326V59.344H191.422C191.614 58.928 191.886 58.5867 192.238 58.32C192.59 58.0427 193.038 57.904 193.582 57.904C194.489 57.904 195.203 58.144 195.726 58.624C196.259 59.104 196.526 59.8773 196.526 60.944V66H195.246V61.184C195.246 60.3733 195.081 59.8027 194.75 59.472C194.43 59.1307 193.955 58.96 193.326 58.96C192.718 58.96 192.243 59.168 191.902 59.584C191.561 60 191.39 60.608 191.39 61.408V66H190.11V58.096ZM202.246 69.152C201.564 69.152 200.972 69.0293 200.47 68.784C199.969 68.5493 199.569 68.256 199.27 67.904L200.118 67.088C200.342 67.3653 200.63 67.584 200.982 67.744C201.345 67.9147 201.745 68 202.182 68C202.865 68 203.398 67.8347 203.782 67.504C204.177 67.1733 204.374 66.592 204.374 65.76V64.224H204.278C204.193 64.4907 204.07 64.7307 203.91 64.944C203.75 65.1467 203.558 65.3227 203.334 65.472C203.121 65.6107 202.881 65.7227 202.614 65.808C202.358 65.8827 202.097 65.92 201.83 65.92C201.329 65.92 200.87 65.8293 200.454 65.648C200.049 65.4667 199.692 65.2053 199.382 64.864C199.084 64.512 198.849 64.0853 198.678 63.584C198.518 63.0827 198.438 62.5173 198.438 61.888C198.438 61.2693 198.518 60.7147 198.678 60.224C198.849 59.7333 199.084 59.3173 199.382 58.976C199.692 58.6347 200.049 58.3733 200.454 58.192C200.87 58 201.329 57.904 201.83 57.904C202.417 57.904 202.94 58.0587 203.398 58.368C203.868 58.6667 204.182 59.0827 204.342 59.616H204.438V58.096H205.654V65.92C205.654 66.8907 205.361 67.6693 204.774 68.256C204.198 68.8533 203.356 69.152 202.246 69.152ZM202.086 64.768C202.79 64.768 203.345 64.5227 203.75 64.032C204.166 63.5413 204.374 62.832 204.374 61.904C204.374 60.9653 204.166 60.256 203.75 59.776C203.345 59.296 202.79 59.056 202.086 59.056C201.372 59.056 200.801 59.296 200.374 59.776C199.958 60.256 199.75 60.9653 199.75 61.904C199.75 62.832 199.958 63.5413 200.374 64.032C200.801 64.5227 201.372 64.768 202.086 64.768ZM214.651 66.192C213.937 66.192 213.414 65.9787 213.083 65.552C212.753 65.1253 212.587 64.5387 212.587 63.792V59.136H211.179V58.096H212.587V55.952H213.851V58.096H216.139V59.136H213.851V63.68C213.851 64.192 213.947 64.5493 214.139 64.752C214.342 64.9547 214.598 65.056 214.907 65.056C215.121 65.056 215.313 65.0187 215.483 64.944C215.654 64.8587 215.814 64.7467 215.963 64.608L216.539 65.504C216.049 65.9627 215.419 66.192 214.651 66.192ZM221.245 66.192C220.68 66.192 220.162 66.096 219.693 65.904C219.234 65.712 218.84 65.44 218.509 65.088C218.189 64.7253 217.938 64.288 217.757 63.776C217.586 63.264 217.501 62.688 217.501 62.048C217.501 61.376 217.592 60.784 217.773 60.272C217.954 59.7493 218.205 59.3173 218.525 58.976C218.845 58.624 219.224 58.3573 219.661 58.176C220.109 57.9947 220.6 57.904 221.133 57.904C221.666 57.904 222.157 57.9893 222.605 58.16C223.053 58.3307 223.437 58.5867 223.757 58.928C224.077 59.2587 224.328 59.68 224.509 60.192C224.69 60.6933 224.781 61.28 224.781 61.952C224.781 62.0373 224.776 62.1227 224.765 62.208C224.765 62.2933 224.76 62.3627 224.749 62.416H218.781C218.781 62.7893 218.845 63.1413 218.973 63.472C219.112 63.792 219.293 64.0747 219.517 64.32C219.752 64.5547 220.018 64.7413 220.317 64.88C220.626 65.0187 220.957 65.088 221.309 65.088C221.885 65.088 222.354 64.976 222.717 64.752C223.09 64.528 223.4 64.256 223.645 63.936L224.413 64.72C224.072 65.168 223.645 65.5253 223.133 65.792C222.632 66.0587 222.002 66.192 221.245 66.192ZM221.133 58.96C220.76 58.96 220.429 59.0293 220.141 59.168C219.853 59.3067 219.613 59.488 219.421 59.712C219.229 59.936 219.08 60.192 218.973 60.48C218.877 60.768 218.824 61.056 218.813 61.344H223.437C223.426 61.056 223.368 60.768 223.261 60.48C223.165 60.192 223.021 59.936 222.829 59.712C222.637 59.488 222.397 59.3067 222.109 59.168C221.832 59.0293 221.506 58.96 221.133 58.96ZM228.499 61.984L225.859 58.096H227.395L229.267 61.056H229.331L231.267 58.096H232.643L230.003 61.92L232.771 66H231.235L229.235 62.848H229.171L227.107 66H225.731L228.499 61.984ZM237.089 66.192C236.374 66.192 235.852 65.9787 235.521 65.552C235.19 65.1253 235.025 64.5387 235.025 63.792V59.136H233.617V58.096H235.025V55.952H236.289V58.096H238.577V59.136H236.289V63.68C236.289 64.192 236.385 64.5493 236.577 64.752C236.78 64.9547 237.036 65.056 237.345 65.056C237.558 65.056 237.75 65.0187 237.921 64.944C238.092 64.8587 238.252 64.7467 238.401 64.608L238.977 65.504C238.486 65.9627 237.857 66.192 237.089 66.192Z" fill="#242E30"/>
<path d="M759.639 28C759.639 16.9543 768.593 8 779.639 8C790.684 8 799.639 16.9543 799.639 28C799.639 39.0457 790.684 48 779.639 48C768.593 48 759.639 39.0457 759.639 28Z" fill="white" fill-opacity="0.01"/>
<path d="M785.44 20.8076L779.639 26.6089L773.838 20.8076L772.446 22.1989L778.248 28.0002L772.446 33.8014L773.838 35.1927L779.639 29.3914L785.44 35.1927L786.831 33.8014L781.03 28.0002L786.831 22.1989L785.44 20.8076Z" fill="#242E30"/>
<g clip-path="url(#clip1_10642_64888)">
<path d="M633.639 108C633.639 96.9543 642.593 88 653.639 88H684.639C695.684 88 704.639 96.9543 704.639 108C704.639 119.046 695.684 128 684.639 128H653.639C642.593 128 633.639 119.046 633.639 108Z" fill="white" fill-opacity="0.01"/>
<path d="M650.955 103.6H653.099V112.256H657.243V114H650.955V103.6ZM660.842 114.192C660.49 114.192 660.154 114.133 659.834 114.016C659.525 113.909 659.253 113.755 659.018 113.552C658.784 113.339 658.597 113.083 658.458 112.784C658.33 112.485 658.266 112.149 658.266 111.776C658.266 111.072 658.517 110.512 659.018 110.096C659.52 109.68 660.282 109.445 661.306 109.392L663.162 109.28V108.96C663.162 108.448 663.008 108.096 662.698 107.904C662.389 107.712 662.005 107.616 661.546 107.616C661.184 107.616 660.842 107.685 660.522 107.824C660.202 107.952 659.962 108.112 659.802 108.304L658.666 107.152C658.944 106.789 659.344 106.491 659.866 106.256C660.4 106.021 661.05 105.904 661.818 105.904C662.949 105.904 663.792 106.165 664.346 106.688C664.901 107.211 665.178 107.92 665.178 108.816V114H663.274V112.736H663.178C662.976 113.184 662.682 113.541 662.298 113.808C661.914 114.064 661.429 114.192 660.842 114.192ZM661.434 112.736C661.946 112.736 662.362 112.592 662.682 112.304C663.002 112.005 663.162 111.589 663.162 111.056V110.528L661.546 110.656C660.714 110.709 660.298 111.061 660.298 111.712C660.298 112.043 660.405 112.299 660.618 112.48C660.832 112.651 661.104 112.736 661.434 112.736ZM671.748 114.192C671.129 114.192 670.59 114.043 670.132 113.744C669.684 113.445 669.364 113.035 669.172 112.512H669.076V114H667.156V102.4H669.172V107.456H669.268C669.449 106.997 669.753 106.624 670.18 106.336C670.606 106.048 671.129 105.904 671.748 105.904C672.238 105.904 672.692 106.005 673.108 106.208C673.534 106.411 673.897 106.699 674.196 107.072C674.505 107.435 674.745 107.872 674.916 108.384C675.086 108.896 675.172 109.461 675.172 110.08C675.172 110.688 675.086 111.248 674.916 111.76C674.745 112.261 674.505 112.693 674.196 113.056C673.897 113.408 673.534 113.685 673.108 113.888C672.692 114.091 672.238 114.192 671.748 114.192ZM671.124 112.432C671.721 112.432 672.201 112.219 672.564 111.792C672.926 111.365 673.108 110.784 673.108 110.048C673.108 109.312 672.926 108.731 672.564 108.304C672.201 107.877 671.721 107.664 671.124 107.664C670.537 107.664 670.062 107.877 669.7 108.304C669.348 108.731 669.172 109.312 669.172 110.048C669.172 110.784 669.348 111.365 669.7 111.792C670.062 112.219 670.537 112.432 671.124 112.432ZM680.173 114.192C679.512 114.192 678.936 114.085 678.445 113.872C677.955 113.659 677.539 113.365 677.197 112.992C676.867 112.608 676.616 112.165 676.445 111.664C676.285 111.163 676.205 110.624 676.205 110.048C676.205 109.461 676.285 108.917 676.445 108.416C676.605 107.904 676.845 107.467 677.165 107.104C677.485 106.731 677.885 106.437 678.365 106.224C678.845 106.011 679.405 105.904 680.045 105.904C680.685 105.904 681.245 106.005 681.725 106.208C682.205 106.411 682.6 106.693 682.909 107.056C683.219 107.419 683.448 107.851 683.597 108.352C683.757 108.843 683.837 109.381 683.837 109.968C683.837 110.075 683.827 110.197 683.805 110.336C683.795 110.475 683.779 110.587 683.757 110.672H678.253C678.285 110.96 678.36 111.221 678.477 111.456C678.605 111.68 678.76 111.872 678.941 112.032C679.133 112.192 679.341 112.315 679.565 112.4C679.8 112.475 680.04 112.512 680.285 112.512C680.744 112.512 681.128 112.432 681.437 112.272C681.747 112.112 681.997 111.909 682.189 111.664L683.325 112.848C683.027 113.253 682.611 113.579 682.077 113.824C681.544 114.069 680.909 114.192 680.173 114.192ZM680.045 107.44C679.533 107.44 679.117 107.605 678.797 107.936C678.477 108.267 678.291 108.704 678.237 109.248H681.821C681.768 108.704 681.581 108.267 681.261 107.936C680.952 107.605 680.547 107.44 680.045 107.44ZM685.406 102.4H687.422V114H685.406V102.4Z" fill="#242E30"/>
</g>
<g clip-path="url(#clip2_10642_64888)">
<path d="M720.639 108C720.639 96.9543 729.593 88 740.639 88H771.639C782.684 88 791.639 96.9543 791.639 108C791.639 119.046 782.684 128 771.639 128H740.639C729.593 128 720.639 119.046 720.639 108Z" fill="#262626"/>
<path d="M720.639 108C720.639 96.9543 729.593 88 740.639 88H771.639C782.684 88 791.639 96.9543 791.639 108C791.639 119.046 782.684 128 771.639 128H740.639C729.593 128 720.639 119.046 720.639 108Z" fill="white" fill-opacity="0.01"/>
<path d="M737.955 103.6H740.099V112.256H744.243V114H737.955V103.6ZM747.842 114.192C747.49 114.192 747.154 114.133 746.834 114.016C746.525 113.909 746.253 113.755 746.018 113.552C745.784 113.339 745.597 113.083 745.458 112.784C745.33 112.485 745.266 112.149 745.266 111.776C745.266 111.072 745.517 110.512 746.018 110.096C746.52 109.68 747.282 109.445 748.306 109.392L750.162 109.28V108.96C750.162 108.448 750.008 108.096 749.698 107.904C749.389 107.712 749.005 107.616 748.546 107.616C748.184 107.616 747.842 107.685 747.522 107.824C747.202 107.952 746.962 108.112 746.802 108.304L745.666 107.152C745.944 106.789 746.344 106.491 746.866 106.256C747.4 106.021 748.05 105.904 748.818 105.904C749.949 105.904 750.792 106.165 751.346 106.688C751.901 107.211 752.178 107.92 752.178 108.816V114H750.274V112.736H750.178C749.976 113.184 749.682 113.541 749.298 113.808C748.914 114.064 748.429 114.192 747.842 114.192ZM748.434 112.736C748.946 112.736 749.362 112.592 749.682 112.304C750.002 112.005 750.162 111.589 750.162 111.056V110.528L748.546 110.656C747.714 110.709 747.298 111.061 747.298 111.712C747.298 112.043 747.405 112.299 747.618 112.48C747.832 112.651 748.104 112.736 748.434 112.736ZM758.748 114.192C758.129 114.192 757.59 114.043 757.132 113.744C756.684 113.445 756.364 113.035 756.172 112.512H756.076V114H754.156V102.4H756.172V107.456H756.268C756.449 106.997 756.753 106.624 757.18 106.336C757.606 106.048 758.129 105.904 758.748 105.904C759.238 105.904 759.692 106.005 760.108 106.208C760.534 106.411 760.897 106.699 761.196 107.072C761.505 107.435 761.745 107.872 761.916 108.384C762.086 108.896 762.172 109.461 762.172 110.08C762.172 110.688 762.086 111.248 761.916 111.76C761.745 112.261 761.505 112.693 761.196 113.056C760.897 113.408 760.534 113.685 760.108 113.888C759.692 114.091 759.238 114.192 758.748 114.192ZM758.124 112.432C758.721 112.432 759.201 112.219 759.564 111.792C759.926 111.365 760.108 110.784 760.108 110.048C760.108 109.312 759.926 108.731 759.564 108.304C759.201 107.877 758.721 107.664 758.124 107.664C757.537 107.664 757.062 107.877 756.7 108.304C756.348 108.731 756.172 109.312 756.172 110.048C756.172 110.784 756.348 111.365 756.7 111.792C757.062 112.219 757.537 112.432 758.124 112.432ZM767.173 114.192C766.512 114.192 765.936 114.085 765.445 113.872C764.955 113.659 764.539 113.365 764.197 112.992C763.867 112.608 763.616 112.165 763.445 111.664C763.285 111.163 763.205 110.624 763.205 110.048C763.205 109.461 763.285 108.917 763.445 108.416C763.605 107.904 763.845 107.467 764.165 107.104C764.485 106.731 764.885 106.437 765.365 106.224C765.845 106.011 766.405 105.904 767.045 105.904C767.685 105.904 768.245 106.005 768.725 106.208C769.205 106.411 769.6 106.693 769.909 107.056C770.219 107.419 770.448 107.851 770.597 108.352C770.757 108.843 770.837 109.381 770.837 109.968C770.837 110.075 770.827 110.197 770.805 110.336C770.795 110.475 770.779 110.587 770.757 110.672H765.253C765.285 110.96 765.36 111.221 765.477 111.456C765.605 111.68 765.76 111.872 765.941 112.032C766.133 112.192 766.341 112.315 766.565 112.4C766.8 112.475 767.04 112.512 767.285 112.512C767.744 112.512 768.128 112.432 768.437 112.272C768.747 112.112 768.997 111.909 769.189 111.664L770.325 112.848C770.027 113.253 769.611 113.579 769.077 113.824C768.544 114.069 767.909 114.192 767.173 114.192ZM767.045 107.44C766.533 107.44 766.117 107.605 765.797 107.936C765.477 108.267 765.291 108.704 765.237 109.248H768.821C768.768 108.704 768.581 108.267 768.261 107.936C767.952 107.605 767.547 107.44 767.045 107.44ZM772.406 102.4H774.422V114H772.406V102.4Z" fill="white"/>
</g>
</g>
<rect x="632.5" y="87.5" width="160" height="41" stroke="#F36805" stroke-dasharray="4 4"/>
<circle cx="12.5" cy="29.5" r="12.5" fill="#262626"/>
<path d="M9.45987 32.502H11.9099V26.86L9.79587 27.714L9.19387 26.398L12.4419 24.9H13.7719V32.502H15.9559V34H9.45987V32.502Z" fill="white"/>
<rect x="25" y="29" width="46" height="1" rx="0.5" fill="#FF8000"/>
<circle cx="12.5" cy="61.5" r="12.5" fill="#262626"/>
<path d="M9.26387 64.53C9.26387 64.11 9.32453 63.7413 9.44587 63.424C9.57653 63.1067 9.75387 62.822 9.97787 62.57C10.2019 62.318 10.4679 62.0893 10.7759 61.884C11.0839 61.6787 11.4199 61.478 11.7839 61.282C12.1479 61.086 12.4512 60.918 12.6939 60.778C12.9459 60.6287 13.1419 60.484 13.2819 60.344C13.4312 60.204 13.5339 60.064 13.5899 59.924C13.6552 59.7747 13.6879 59.602 13.6879 59.406C13.6879 59.0233 13.5479 58.7433 13.2679 58.566C12.9879 58.3887 12.6519 58.3 12.2599 58.3C11.8399 58.3 11.4525 58.3793 11.0979 58.538C10.7525 58.6873 10.4539 58.8973 10.2019 59.168L9.26387 58.062C9.6092 57.67 10.0479 57.3527 10.5799 57.11C11.1119 56.858 11.7232 56.732 12.4139 56.732C12.8805 56.732 13.3052 56.788 13.6879 56.9C14.0799 57.012 14.4112 57.18 14.6819 57.404C14.9619 57.6187 15.1765 57.8847 15.3259 58.202C15.4845 58.5193 15.5639 58.8833 15.5639 59.294C15.5639 59.6953 15.5032 60.05 15.3819 60.358C15.2605 60.6567 15.0832 60.9367 14.8499 61.198C14.6165 61.45 14.3272 61.688 13.9819 61.912C13.6459 62.136 13.2585 62.3647 12.8199 62.598C12.5212 62.766 12.2645 62.9107 12.0499 63.032C11.8445 63.1533 11.6719 63.2747 11.5319 63.396C11.4012 63.5173 11.3032 63.6387 11.2379 63.76C11.1819 63.8813 11.1539 64.026 11.1539 64.194V64.488H15.8019V66H9.26387V64.53Z" fill="white"/>
<rect x="25" y="61" width="81" height="1" rx="0.5" fill="#FF8000"/>
<rect x="772" y="108" width="48" height="1" rx="0.5" fill="#FF8000"/>
<circle cx="832.5" cy="108.5" r="12.5" fill="#262626"/>
<path d="M832.134 113.168C831.406 113.168 830.795 113.061 830.3 112.846C829.805 112.622 829.381 112.319 829.026 111.936L830.048 110.802C830.272 111.054 830.552 111.259 830.888 111.418C831.233 111.577 831.616 111.656 832.036 111.656C832.54 111.656 832.946 111.544 833.254 111.32C833.562 111.096 833.716 110.765 833.716 110.326C833.716 109.906 833.571 109.598 833.282 109.402C832.993 109.206 832.61 109.108 832.134 109.108H831.224V107.624H832.134C832.554 107.624 832.867 107.517 833.072 107.302C833.277 107.078 833.38 106.789 833.38 106.434C833.38 106.219 833.343 106.037 833.268 105.888C833.193 105.739 833.091 105.617 832.96 105.524C832.839 105.421 832.694 105.351 832.526 105.314C832.358 105.267 832.185 105.244 832.008 105.244C831.625 105.244 831.275 105.319 830.958 105.468C830.641 105.617 830.375 105.813 830.16 106.056L829.194 104.964C829.53 104.591 829.936 104.292 830.412 104.068C830.888 103.844 831.476 103.732 832.176 103.732C832.633 103.732 833.053 103.793 833.436 103.914C833.819 104.035 834.145 104.208 834.416 104.432C834.687 104.647 834.897 104.903 835.046 105.202C835.195 105.501 835.27 105.832 835.27 106.196C835.27 106.672 835.13 107.092 834.85 107.456C834.57 107.811 834.164 108.081 833.632 108.268V108.352C833.912 108.408 834.169 108.501 834.402 108.632C834.645 108.763 834.85 108.926 835.018 109.122C835.195 109.309 835.335 109.523 835.438 109.766C835.541 109.999 835.592 110.256 835.592 110.536C835.592 110.919 835.517 111.273 835.368 111.6C835.219 111.917 834.995 112.193 834.696 112.426C834.407 112.659 834.047 112.841 833.618 112.972C833.189 113.103 832.694 113.168 832.134 113.168Z" fill="white"/>
<defs>
<clipPath id="clip0_10642_64888">
<path d="M75 12C75 5.37258 80.3726 0 87 0H795.639C802.266 0 807.639 5.37258 807.639 12V132C807.639 138.627 802.266 144 795.639 144H87C80.3726 144 75 138.627 75 132V12Z" fill="white"/>
</clipPath>
<clipPath id="clip1_10642_64888">
<path d="M633.639 108C633.639 96.9543 642.593 88 653.639 88H684.639C695.684 88 704.639 96.9543 704.639 108C704.639 119.046 695.684 128 684.639 128H653.639C642.593 128 633.639 119.046 633.639 108Z" fill="white"/>
</clipPath>
<clipPath id="clip2_10642_64888">
<path d="M720.639 108C720.639 96.9543 729.593 88 740.639 88H771.639C782.684 88 791.639 96.9543 791.639 108C791.639 119.046 782.684 128 771.639 128H740.639C729.593 128 720.639 119.046 720.639 108Z" fill="white"/>
</clipPath>
</defs>
</svg>
