<svg width="800" height="88" viewBox="0 0 800 88" fill="none" xmlns="http://www.w3.org/2000/svg">
<g clip-path="url(#clip0_14516_406270)">
<path d="M0 12C0 5.37258 5.37258 0 12 0H788C794.627 0 800 5.37258 800 12V76C800 82.6274 794.627 88 788 88H12C5.37257 88 0 82.6274 0 76V12Z" fill="#CEEED3"/>
<path d="M16 24C16 19.5817 19.5817 16 24 16H40C44.4183 16 48 19.5817 48 24V40C48 44.4183 44.4183 48 40 48H24C19.5817 48 16 44.4183 16 40V24Z" fill="#2B7836"/>
<rect x="16" y="16" width="32" height="32" rx="16" fill="white" fill-opacity="0.01"/>
<g clip-path="url(#clip1_14516_406270)">
<path d="M40.1769 24.2041H23.8231C23.2069 24.211 22.618 24.4597 22.1834 24.8968C21.7488 25.3338 21.5034 25.9241 21.5 26.5404V37.4604C21.5035 38.0812 21.7525 38.6754 22.1927 39.1131C22.633 39.5509 23.2285 39.7966 23.8494 39.7966H40.1769C40.7931 39.7897 41.382 39.541 41.8166 39.1039C42.2512 38.6669 42.4966 38.0766 42.5 37.4604V26.5404C42.4966 25.9241 42.2512 25.3338 41.8166 24.8968C41.382 24.4597 40.7931 24.211 40.1769 24.2041ZM40.5575 27.4591V36.7647L35.5306 32.1185L40.5575 27.4591ZM31.37 34.7697C31.548 34.9365 31.7823 35.0303 32.0263 35.0322C32.2742 35.031 32.5129 34.9374 32.6956 34.7697L34.1131 33.4572L38.8381 37.8279H25.0438L29.8737 33.4441L31.37 34.7697ZM39.0875 26.1729L32 32.7091L24.7944 26.1466L39.0875 26.1729ZM28.4038 32.1185L23.4425 36.6204V27.6035L28.4038 32.1185Z" fill="white" fill-opacity="0.9"/>
</g>
<path d="M61.2 24H69.66V26.64H64.58V29.1H69.52V31.74H64.58V34.36H69.82V37H61.2V24ZM71.9194 27.12H74.8994V28.56H75.0194C75.286 28.0533 75.6594 27.6467 76.1394 27.34C76.6194 27.0333 77.1927 26.88 77.8594 26.88C78.7394 26.88 79.4194 27.0467 79.8994 27.38C80.3927 27.7 80.746 28.18 80.9594 28.82C81.186 28.26 81.5727 27.8 82.1194 27.44C82.6794 27.0667 83.3127 26.88 84.0194 26.88C85.2727 26.88 86.1527 27.2333 86.6594 27.94C87.166 28.6467 87.4194 29.66 87.4194 30.98V37H84.2394V31.5C84.2394 30.9267 84.1327 30.4667 83.9194 30.12C83.706 29.76 83.326 29.58 82.7794 29.58C82.246 29.58 81.8594 29.7533 81.6194 30.1C81.3794 30.4333 81.2594 30.9 81.2594 31.5V37H78.0794V31.5C78.0794 30.9267 77.9727 30.4667 77.7594 30.12C77.5594 29.76 77.1794 29.58 76.6194 29.58C76.0994 29.58 75.7127 29.7533 75.4594 30.1C75.2194 30.4333 75.0994 30.9 75.0994 31.5V37H71.9194V27.12ZM92.177 37.24C91.737 37.24 91.3104 37.1733 90.897 37.04C90.497 36.9067 90.1437 36.7133 89.837 36.46C89.5437 36.1933 89.3037 35.8733 89.117 35.5C88.9437 35.1267 88.857 34.7 88.857 34.22C88.857 33.3133 89.177 32.6 89.817 32.08C90.4704 31.56 91.4904 31.26 92.877 31.18L94.977 31.06V30.9C94.977 30.62 94.917 30.3933 94.797 30.22C94.6904 30.0467 94.5437 29.9133 94.357 29.82C94.1837 29.7133 93.977 29.64 93.737 29.6C93.5104 29.56 93.277 29.54 93.037 29.54C92.6637 29.54 92.2837 29.6067 91.897 29.74C91.5104 29.8733 91.2237 30.06 91.037 30.3L89.297 28.5C89.657 28.0467 90.1837 27.6667 90.877 27.36C91.5704 27.04 92.477 26.88 93.597 26.88C95.0237 26.88 96.137 27.2067 96.937 27.86C97.7504 28.5133 98.157 29.4533 98.157 30.68V37H95.177V35.48H95.057C94.8037 36 94.437 36.4267 93.957 36.76C93.4904 37.08 92.897 37.24 92.177 37.24ZM93.257 35.08C93.7637 35.08 94.177 34.9467 94.497 34.68C94.817 34.4 94.977 33.98 94.977 33.42V32.9L93.317 33.02C92.8904 33.0467 92.5704 33.1533 92.357 33.34C92.157 33.5267 92.057 33.7733 92.057 34.08C92.057 34.4267 92.1704 34.68 92.397 34.84C92.637 35 92.9237 35.08 93.257 35.08ZM103.542 24.28C103.542 24.7333 103.389 25.14 103.082 25.5C102.775 25.8467 102.329 26.02 101.742 26.02C101.142 26.02 100.695 25.8467 100.402 25.5C100.109 25.14 99.962 24.7333 99.962 24.28C99.962 23.8267 100.109 23.4267 100.402 23.08C100.695 22.72 101.142 22.54 101.742 22.54C102.329 22.54 102.775 22.72 103.082 23.08C103.389 23.4267 103.542 23.8267 103.542 24.28ZM100.142 27.12H103.322V37H100.142V27.12ZM105.435 22.5H108.615V37H105.435V22.5ZM119.953 37.24C119.086 37.24 118.339 37.1 117.713 36.82C117.099 36.5267 116.586 36.1467 116.173 35.68C115.773 35.2 115.473 34.6467 115.273 34.02C115.086 33.3933 114.993 32.74 114.993 32.06C114.993 31.38 115.086 30.7267 115.273 30.1C115.459 29.4733 115.753 28.9267 116.153 28.46C116.553 27.98 117.059 27.6 117.673 27.32C118.286 27.0267 119.019 26.88 119.873 26.88C120.673 26.88 121.379 27.0333 121.993 27.34C122.606 27.6467 123.099 28.02 123.473 28.46L121.333 30.4C121.159 30.1733 120.959 30 120.733 29.88C120.506 29.7467 120.233 29.68 119.913 29.68C119.353 29.68 118.933 29.8867 118.653 30.3C118.373 30.7133 118.233 31.3 118.233 32.06C118.233 32.82 118.379 33.4067 118.673 33.82C118.966 34.2333 119.393 34.44 119.953 34.44C120.259 34.44 120.539 34.3733 120.793 34.24C121.059 34.1067 121.266 33.9267 121.413 33.7L123.553 35.64C123.193 36.08 122.699 36.46 122.073 36.78C121.459 37.0867 120.753 37.24 119.953 37.24ZM129.117 37.24C128.263 37.24 127.51 37.1067 126.857 36.84C126.217 36.56 125.683 36.1867 125.257 35.72C124.83 35.24 124.503 34.6867 124.277 34.06C124.063 33.4333 123.957 32.7667 123.957 32.06C123.957 31.3533 124.063 30.6867 124.277 30.06C124.503 29.4333 124.83 28.8867 125.257 28.42C125.683 27.94 126.217 27.5667 126.857 27.3C127.51 27.02 128.263 26.88 129.117 26.88C129.97 26.88 130.717 27.02 131.357 27.3C131.997 27.5667 132.53 27.94 132.957 28.42C133.383 28.8867 133.703 29.4333 133.917 30.06C134.143 30.6867 134.257 31.3533 134.257 32.06C134.257 32.7667 134.143 33.4333 133.917 34.06C133.703 34.6867 133.383 35.24 132.957 35.72C132.53 36.1867 131.997 36.56 131.357 36.84C130.717 37.1067 129.97 37.24 129.117 37.24ZM127.197 32.06C127.197 32.9133 127.377 33.5667 127.737 34.02C128.097 34.4733 128.557 34.7 129.117 34.7C129.677 34.7 130.13 34.4733 130.477 34.02C130.837 33.5667 131.017 32.9133 131.017 32.06C131.017 31.2067 130.837 30.5533 130.477 30.1C130.13 29.6467 129.677 29.42 129.117 29.42C128.557 29.42 128.097 29.6467 127.737 30.1C127.377 30.5533 127.197 31.2067 127.197 32.06ZM135.806 27.12H138.786V28.76H138.906C139.106 28.2133 139.466 27.7667 139.986 27.42C140.519 27.06 141.126 26.88 141.806 26.88C142.459 26.88 143.006 26.9733 143.446 27.16C143.899 27.3333 144.259 27.5933 144.526 27.94C144.793 28.2867 144.979 28.72 145.086 29.24C145.206 29.7467 145.266 30.3267 145.266 30.98V37H142.086V31.62C142.086 30.9933 141.979 30.5 141.766 30.14C141.553 29.7667 141.153 29.58 140.566 29.58C140.006 29.58 139.599 29.7533 139.346 30.1C139.106 30.4467 138.986 30.9533 138.986 31.62V37H135.806V27.12ZM147.97 29.66H146.57V27.12H147.97V26.18C147.97 25.6067 148.044 25.08 148.19 24.6C148.35 24.1067 148.59 23.6933 148.91 23.36C149.244 23.0133 149.657 22.7467 150.15 22.56C150.644 22.36 151.23 22.26 151.91 22.26C152.217 22.26 152.51 22.2867 152.79 22.34C153.07 22.3933 153.31 22.4667 153.51 22.56L152.57 25C152.504 24.9467 152.41 24.9067 152.29 24.88C152.184 24.8533 152.077 24.84 151.97 24.84C151.704 24.84 151.497 24.94 151.35 25.14C151.217 25.3267 151.15 25.6533 151.15 26.12V27.12H153.63V29.66H151.15V37H147.97V29.66ZM158.288 24.28C158.288 24.7333 158.135 25.14 157.828 25.5C157.521 25.8467 157.075 26.02 156.488 26.02C155.888 26.02 155.441 25.8467 155.148 25.5C154.855 25.14 154.708 24.7333 154.708 24.28C154.708 23.8267 154.855 23.4267 155.148 23.08C155.441 22.72 155.888 22.54 156.488 22.54C157.075 22.54 157.521 22.72 157.828 23.08C158.135 23.4267 158.288 23.8267 158.288 24.28ZM154.888 27.12H158.068V37H154.888V27.12ZM160.181 27.12H163.161V28.82H163.281C163.481 28.2067 163.794 27.7333 164.221 27.4C164.661 27.0533 165.214 26.88 165.881 26.88C166.401 26.88 166.868 26.9467 167.281 27.08L166.481 30C166.334 29.9067 166.161 29.84 165.961 29.8C165.774 29.7467 165.588 29.72 165.401 29.72C164.801 29.72 164.308 29.8933 163.921 30.24C163.548 30.5733 163.361 31.1067 163.361 31.84V37H160.181V27.12ZM168.365 27.12H171.345V28.56H171.465C171.731 28.0533 172.105 27.6467 172.585 27.34C173.065 27.0333 173.638 26.88 174.305 26.88C175.185 26.88 175.865 27.0467 176.345 27.38C176.838 27.7 177.191 28.18 177.405 28.82C177.631 28.26 178.018 27.8 178.565 27.44C179.125 27.0667 179.758 26.88 180.465 26.88C181.718 26.88 182.598 27.2333 183.105 27.94C183.611 28.6467 183.865 29.66 183.865 30.98V37H180.685V31.5C180.685 30.9267 180.578 30.4667 180.365 30.12C180.151 29.76 179.771 29.58 179.225 29.58C178.691 29.58 178.305 29.7533 178.065 30.1C177.825 30.4333 177.705 30.9 177.705 31.5V37H174.525V31.5C174.525 30.9267 174.418 30.4667 174.205 30.12C174.005 29.76 173.625 29.58 173.065 29.58C172.545 29.58 172.158 29.7533 171.905 30.1C171.665 30.4333 171.545 30.9 171.545 31.5V37H168.365V27.12ZM188.622 37.24C188.182 37.24 187.756 37.1733 187.342 37.04C186.942 36.9067 186.589 36.7133 186.282 36.46C185.989 36.1933 185.749 35.8733 185.562 35.5C185.389 35.1267 185.302 34.7 185.302 34.22C185.302 33.3133 185.622 32.6 186.262 32.08C186.916 31.56 187.936 31.26 189.322 31.18L191.422 31.06V30.9C191.422 30.62 191.362 30.3933 191.242 30.22C191.136 30.0467 190.989 29.9133 190.802 29.82C190.629 29.7133 190.422 29.64 190.182 29.6C189.956 29.56 189.722 29.54 189.482 29.54C189.109 29.54 188.729 29.6067 188.342 29.74C187.956 29.8733 187.669 30.06 187.482 30.3L185.742 28.5C186.102 28.0467 186.629 27.6667 187.322 27.36C188.016 27.04 188.922 26.88 190.042 26.88C191.469 26.88 192.582 27.2067 193.382 27.86C194.196 28.5133 194.602 29.4533 194.602 30.68V37H191.622V35.48H191.502C191.249 36 190.882 36.4267 190.402 36.76C189.936 37.08 189.342 37.24 188.622 37.24ZM189.702 35.08C190.209 35.08 190.622 34.9467 190.942 34.68C191.262 34.4 191.422 33.98 191.422 33.42V32.9L189.762 33.02C189.336 33.0467 189.016 33.1533 188.802 33.34C188.602 33.5267 188.502 33.7733 188.502 34.08C188.502 34.4267 188.616 34.68 188.842 34.84C189.082 35 189.369 35.08 189.702 35.08ZM200.927 37.22C199.674 37.22 198.767 36.9067 198.207 36.28C197.661 35.6533 197.387 34.6533 197.387 33.28V29.66H195.967V27.12H197.387V24.44H200.527V27.12H203.447V29.66H200.527V33.34C200.527 33.78 200.601 34.1 200.747 34.3C200.907 34.5 201.167 34.6 201.527 34.6C201.767 34.6 201.994 34.5533 202.207 34.46C202.434 34.3533 202.621 34.2267 202.767 34.08L203.787 36.24C203.134 36.8933 202.181 37.22 200.927 37.22ZM208.542 24.28C208.542 24.7333 208.389 25.14 208.082 25.5C207.775 25.8467 207.329 26.02 206.742 26.02C206.142 26.02 205.695 25.8467 205.402 25.5C205.109 25.14 204.962 24.7333 204.962 24.28C204.962 23.8267 205.109 23.4267 205.402 23.08C205.695 22.72 206.142 22.54 206.742 22.54C207.329 22.54 207.775 22.72 208.082 23.08C208.389 23.4267 208.542 23.8267 208.542 24.28ZM205.142 27.12H208.322V37H205.142V27.12ZM215.015 37.24C214.162 37.24 213.408 37.1067 212.755 36.84C212.115 36.56 211.582 36.1867 211.155 35.72C210.728 35.24 210.402 34.6867 210.175 34.06C209.962 33.4333 209.855 32.7667 209.855 32.06C209.855 31.3533 209.962 30.6867 210.175 30.06C210.402 29.4333 210.728 28.8867 211.155 28.42C211.582 27.94 212.115 27.5667 212.755 27.3C213.408 27.02 214.162 26.88 215.015 26.88C215.868 26.88 216.615 27.02 217.255 27.3C217.895 27.5667 218.428 27.94 218.855 28.42C219.282 28.8867 219.602 29.4333 219.815 30.06C220.042 30.6867 220.155 31.3533 220.155 32.06C220.155 32.7667 220.042 33.4333 219.815 34.06C219.602 34.6867 219.282 35.24 218.855 35.72C218.428 36.1867 217.895 36.56 217.255 36.84C216.615 37.1067 215.868 37.24 215.015 37.24ZM213.095 32.06C213.095 32.9133 213.275 33.5667 213.635 34.02C213.995 34.4733 214.455 34.7 215.015 34.7C215.575 34.7 216.028 34.4733 216.375 34.02C216.735 33.5667 216.915 32.9133 216.915 32.06C216.915 31.2067 216.735 30.5533 216.375 30.1C216.028 29.6467 215.575 29.42 215.015 29.42C214.455 29.42 213.995 29.6467 213.635 30.1C213.275 30.5533 213.095 31.2067 213.095 32.06ZM221.705 27.12H224.685V28.76H224.805C225.005 28.2133 225.365 27.7667 225.885 27.42C226.418 27.06 227.025 26.88 227.705 26.88C228.358 26.88 228.905 26.9733 229.345 27.16C229.798 27.3333 230.158 27.5933 230.425 27.94C230.691 28.2867 230.878 28.72 230.985 29.24C231.105 29.7467 231.165 30.3267 231.165 30.98V37H227.985V31.62C227.985 30.9933 227.878 30.5 227.665 30.14C227.451 29.7667 227.051 29.58 226.465 29.58C225.905 29.58 225.498 29.7533 225.245 30.1C225.005 30.4467 224.885 30.9533 224.885 31.62V37H221.705V27.12Z" fill="black" fill-opacity="0.76"/>
<path d="M64.144 55.6H65.92L69.664 66H68.208L67.392 63.712H62.608L61.792 66H60.416L64.144 55.6ZM63.008 62.56H66.992L65.04 56.736H64.944L63.008 62.56ZM78.2899 66.192C77.6499 66.192 77.0952 66.0747 76.6259 65.84C76.1672 65.6053 75.7885 65.296 75.4899 64.912C75.1912 64.528 74.9725 64.0907 74.8339 63.6C74.6952 63.0987 74.6259 62.5813 74.6259 62.048C74.6259 61.5147 74.6952 61.0027 74.8339 60.512C74.9725 60.0107 75.1859 59.568 75.4739 59.184C75.7725 58.8 76.1512 58.4907 76.6099 58.256C77.0685 58.0213 77.6179 57.904 78.2579 57.904C78.9299 57.904 79.4792 58.016 79.9059 58.24C80.3325 58.464 80.6952 58.7627 80.9939 59.136L80.1939 59.888C79.9379 59.6107 79.6659 59.3973 79.3779 59.248C79.1005 59.088 78.7379 59.008 78.2899 59.008C77.5859 59.008 77.0152 59.28 76.5779 59.824C76.1512 60.3573 75.9379 61.0987 75.9379 62.048C75.9379 62.5173 75.9965 62.9387 76.1139 63.312C76.2312 63.6853 76.3965 64.0053 76.6099 64.272C76.8232 64.5387 77.0739 64.7413 77.3619 64.88C77.6499 65.0187 77.9699 65.088 78.3219 65.088C78.7485 65.088 79.1165 65.0133 79.4259 64.864C79.7352 64.704 80.0232 64.4747 80.2899 64.176L81.0579 64.944C80.7485 65.3173 80.3699 65.6213 79.9219 65.856C79.4739 66.08 78.9299 66.192 78.2899 66.192ZM85.8863 66.192C85.2569 66.192 84.7023 66.0853 84.2223 65.872C83.7529 65.648 83.3583 65.3493 83.0383 64.976C82.7289 64.6027 82.4943 64.1653 82.3343 63.664C82.1849 63.1627 82.1103 62.624 82.1103 62.048C82.1103 61.472 82.1849 60.9333 82.3343 60.432C82.4943 59.9307 82.7289 59.4933 83.0383 59.12C83.3583 58.7467 83.7529 58.4533 84.2223 58.24C84.7023 58.016 85.2569 57.904 85.8863 57.904C86.5156 57.904 87.0596 58.016 87.5183 58.24C87.9876 58.4533 88.3769 58.7467 88.6863 59.12C88.9956 59.4933 89.2249 59.9307 89.3743 60.432C89.5343 60.9333 89.6143 61.472 89.6143 62.048C89.6143 62.624 89.5343 63.1627 89.3743 63.664C89.2249 64.1653 88.9956 64.6027 88.6863 64.976C88.3769 65.3493 87.9876 65.648 87.5183 65.872C87.0596 66.0853 86.5156 66.192 85.8863 66.192ZM83.4223 62.048C83.4223 62.5067 83.4703 62.928 83.5663 63.312C83.6729 63.6853 83.8276 64.0107 84.0303 64.288C84.2329 64.5547 84.4889 64.7627 84.7983 64.912C85.1076 65.0613 85.4703 65.136 85.8863 65.136C86.2916 65.136 86.6436 65.0613 86.9423 64.912C87.2516 64.7627 87.5023 64.5547 87.6943 64.288C87.8969 64.0107 88.0463 63.6853 88.1423 63.312C88.2489 62.928 88.3023 62.5067 88.3023 62.048C88.3023 61.5893 88.2489 61.1733 88.1423 60.8C88.0463 60.416 87.8969 60.0907 87.6943 59.824C87.5023 59.5467 87.2516 59.3333 86.9423 59.184C86.6436 59.0347 86.2916 58.96 85.8863 58.96C85.4703 58.96 85.1076 59.0347 84.7983 59.184C84.4889 59.3333 84.2329 59.5467 84.0303 59.824C83.8276 60.0907 83.6729 60.416 83.5663 60.8C83.4703 61.1733 83.4223 61.5893 83.4223 62.048ZM91.6725 58.096H92.8885V59.344H92.9845C93.1765 58.928 93.4485 58.5867 93.8005 58.32C94.1525 58.0427 94.6005 57.904 95.1445 57.904C96.0512 57.904 96.7658 58.144 97.2885 58.624C97.8218 59.104 98.0885 59.8773 98.0885 60.944V66H96.8085V61.184C96.8085 60.3733 96.6432 59.8027 96.3125 59.472C95.9925 59.1307 95.5178 58.96 94.8885 58.96C94.2805 58.96 93.8058 59.168 93.4645 59.584C93.1232 60 92.9525 60.608 92.9525 61.408V66H91.6725V58.096ZM101.057 59.136H99.6489V58.096H101.057V56.704C101.057 55.936 101.249 55.328 101.633 54.88C102.028 54.432 102.609 54.208 103.377 54.208C103.569 54.208 103.766 54.2293 103.969 54.272C104.172 54.304 104.348 54.3573 104.497 54.432L104.065 55.44C103.99 55.3973 103.889 55.3653 103.761 55.344C103.633 55.312 103.521 55.296 103.425 55.296C103.084 55.296 102.817 55.4133 102.625 55.648C102.433 55.8827 102.337 56.24 102.337 56.72V58.096H104.449V59.136H102.337V66H101.057V59.136ZM107.504 56C107.504 56.224 107.424 56.416 107.264 56.576C107.115 56.736 106.912 56.816 106.656 56.816C106.39 56.816 106.182 56.736 106.032 56.576C105.883 56.416 105.808 56.224 105.808 56C105.808 55.7867 105.883 55.6 106.032 55.44C106.182 55.2693 106.39 55.184 106.656 55.184C106.912 55.184 107.115 55.2693 107.264 55.44C107.424 55.6 107.504 55.7867 107.504 56ZM106.016 58.096H107.296V66H106.016V58.096ZM110.016 58.096H111.232V59.376H111.328C111.499 58.96 111.744 58.6133 112.064 58.336C112.384 58.048 112.784 57.904 113.264 57.904C113.67 57.904 114.027 57.984 114.336 58.144L113.904 59.296C113.766 59.2213 113.616 59.1733 113.456 59.152C113.307 59.12 113.152 59.104 112.992 59.104C112.47 59.104 112.054 59.3173 111.744 59.744C111.446 60.16 111.296 60.6933 111.296 61.344V66H110.016V58.096ZM115.985 58.096H117.201V59.344H117.297C117.489 58.928 117.756 58.5867 118.097 58.32C118.449 58.0427 118.886 57.904 119.409 57.904C120.038 57.904 120.566 58.0213 120.993 58.256C121.43 58.48 121.756 58.8213 121.969 59.28C122.204 58.832 122.518 58.4907 122.913 58.256C123.308 58.0213 123.809 57.904 124.417 57.904C124.854 57.904 125.249 57.9627 125.601 58.08C125.953 58.1973 126.252 58.3787 126.497 58.624C126.753 58.8693 126.945 59.184 127.073 59.568C127.212 59.952 127.281 60.4107 127.281 60.944V66H126.001V61.184C126.001 60.3733 125.841 59.8027 125.521 59.472C125.212 59.1307 124.753 58.96 124.145 58.96C123.558 58.96 123.1 59.168 122.769 59.584C122.438 60 122.273 60.608 122.273 61.408V66H120.993V61.184C120.993 60.3733 120.833 59.8027 120.513 59.472C120.204 59.1307 119.745 58.96 119.137 58.96C118.561 58.96 118.102 59.168 117.761 59.584C117.43 60 117.265 60.608 117.265 61.408V66H115.985V58.096ZM131.604 66.192C131.241 66.192 130.905 66.1333 130.596 66.016C130.297 65.8987 130.036 65.7333 129.812 65.52C129.588 65.3067 129.412 65.056 129.284 64.768C129.167 64.4693 129.108 64.144 129.108 63.792C129.108 63.1093 129.353 62.56 129.844 62.144C130.335 61.728 131.033 61.4933 131.94 61.44L134.02 61.312V60.752C134.02 60.144 133.871 59.7067 133.572 59.44C133.284 59.1627 132.868 59.024 132.324 59.024C131.865 59.024 131.471 59.1093 131.14 59.28C130.809 59.4507 130.553 59.6373 130.372 59.84L129.604 59.072C129.881 58.7307 130.255 58.4533 130.724 58.24C131.204 58.016 131.748 57.904 132.356 57.904C132.9 57.904 133.359 57.9787 133.732 58.128C134.105 58.2667 134.404 58.4587 134.628 58.704C134.863 58.9493 135.028 59.2373 135.124 59.568C135.231 59.8987 135.284 60.2507 135.284 60.624V66H134.084V64.656H133.988C133.775 65.136 133.476 65.5147 133.092 65.792C132.708 66.0587 132.212 66.192 131.604 66.192ZM131.796 65.104C132.457 65.104 132.991 64.912 133.396 64.528C133.812 64.1333 134.02 63.6107 134.02 62.96V62.272L132.004 62.416C130.937 62.5013 130.404 62.9493 130.404 63.76C130.404 64.1653 130.532 64.4907 130.788 64.736C131.055 64.9813 131.391 65.104 131.796 65.104ZM140.292 66.192C139.577 66.192 139.055 65.9787 138.724 65.552C138.393 65.1253 138.228 64.5387 138.228 63.792V59.136H136.82V58.096H138.228V55.952H139.492V58.096H141.78V59.136H139.492V63.68C139.492 64.192 139.588 64.5493 139.78 64.752C139.983 64.9547 140.239 65.056 140.548 65.056C140.761 65.056 140.953 65.0187 141.124 64.944C141.295 64.8587 141.455 64.7467 141.604 64.608L142.18 65.504C141.689 65.9627 141.06 66.192 140.292 66.192ZM145.411 56C145.411 56.224 145.331 56.416 145.171 56.576C145.021 56.736 144.819 56.816 144.562 56.816C144.296 56.816 144.088 56.736 143.939 56.576C143.789 56.416 143.715 56.224 143.715 56C143.715 55.7867 143.789 55.6 143.939 55.44C144.088 55.2693 144.296 55.184 144.562 55.184C144.819 55.184 145.021 55.2693 145.171 55.44C145.331 55.6 145.411 55.7867 145.411 56ZM143.923 58.096H145.203V66H143.923V58.096ZM151.043 66.192C150.413 66.192 149.859 66.0853 149.379 65.872C148.909 65.648 148.515 65.3493 148.195 64.976C147.885 64.6027 147.651 64.1653 147.491 63.664C147.341 63.1627 147.267 62.624 147.267 62.048C147.267 61.472 147.341 60.9333 147.491 60.432C147.651 59.9307 147.885 59.4933 148.195 59.12C148.515 58.7467 148.909 58.4533 149.379 58.24C149.859 58.016 150.413 57.904 151.043 57.904C151.672 57.904 152.216 58.016 152.675 58.24C153.144 58.4533 153.533 58.7467 153.843 59.12C154.152 59.4933 154.381 59.9307 154.531 60.432C154.691 60.9333 154.771 61.472 154.771 62.048C154.771 62.624 154.691 63.1627 154.531 63.664C154.381 64.1653 154.152 64.6027 153.843 64.976C153.533 65.3493 153.144 65.648 152.675 65.872C152.216 66.0853 151.672 66.192 151.043 66.192ZM148.579 62.048C148.579 62.5067 148.627 62.928 148.723 63.312C148.829 63.6853 148.984 64.0107 149.187 64.288C149.389 64.5547 149.645 64.7627 149.955 64.912C150.264 65.0613 150.627 65.136 151.043 65.136C151.448 65.136 151.8 65.0613 152.099 64.912C152.408 64.7627 152.659 64.5547 152.851 64.288C153.053 64.0107 153.203 63.6853 153.299 63.312C153.405 62.928 153.459 62.5067 153.459 62.048C153.459 61.5893 153.405 61.1733 153.299 60.8C153.203 60.416 153.053 60.0907 152.851 59.824C152.659 59.5467 152.408 59.3333 152.099 59.184C151.8 59.0347 151.448 58.96 151.043 58.96C150.627 58.96 150.264 59.0347 149.955 59.184C149.645 59.3333 149.389 59.5467 149.187 59.824C148.984 60.0907 148.829 60.416 148.723 60.8C148.627 61.1733 148.579 61.5893 148.579 62.048ZM156.829 58.096H158.045V59.344H158.141C158.333 58.928 158.605 58.5867 158.957 58.32C159.309 58.0427 159.757 57.904 160.301 57.904C161.207 57.904 161.922 58.144 162.445 58.624C162.978 59.104 163.245 59.8773 163.245 60.944V66H161.965V61.184C161.965 60.3733 161.799 59.8027 161.469 59.472C161.149 59.1307 160.674 58.96 160.045 58.96C159.437 58.96 158.962 59.168 158.621 59.584C158.279 60 158.109 60.608 158.109 61.408V66H156.829V58.096ZM172.745 66.192C172.18 66.192 171.662 66.096 171.193 65.904C170.734 65.712 170.34 65.44 170.009 65.088C169.689 64.7253 169.438 64.288 169.257 63.776C169.086 63.264 169.001 62.688 169.001 62.048C169.001 61.376 169.092 60.784 169.273 60.272C169.454 59.7493 169.705 59.3173 170.025 58.976C170.345 58.624 170.724 58.3573 171.161 58.176C171.609 57.9947 172.1 57.904 172.633 57.904C173.166 57.904 173.657 57.9893 174.105 58.16C174.553 58.3307 174.937 58.5867 175.257 58.928C175.577 59.2587 175.828 59.68 176.009 60.192C176.19 60.6933 176.281 61.28 176.281 61.952C176.281 62.0373 176.276 62.1227 176.265 62.208C176.265 62.2933 176.26 62.3627 176.249 62.416H170.281C170.281 62.7893 170.345 63.1413 170.473 63.472C170.612 63.792 170.793 64.0747 171.017 64.32C171.252 64.5547 171.518 64.7413 171.817 64.88C172.126 65.0187 172.457 65.088 172.809 65.088C173.385 65.088 173.854 64.976 174.217 64.752C174.59 64.528 174.9 64.256 175.145 63.936L175.913 64.72C175.572 65.168 175.145 65.5253 174.633 65.792C174.132 66.0587 173.502 66.192 172.745 66.192ZM172.633 58.96C172.26 58.96 171.929 59.0293 171.641 59.168C171.353 59.3067 171.113 59.488 170.921 59.712C170.729 59.936 170.58 60.192 170.473 60.48C170.377 60.768 170.324 61.056 170.313 61.344H174.937C174.926 61.056 174.868 60.768 174.761 60.48C174.665 60.192 174.521 59.936 174.329 59.712C174.137 59.488 173.897 59.3067 173.609 59.168C173.332 59.0293 173.006 58.96 172.633 58.96ZM178.344 58.096H179.56V59.344H179.656C179.848 58.928 180.115 58.5867 180.456 58.32C180.808 58.0427 181.246 57.904 181.768 57.904C182.398 57.904 182.926 58.0213 183.352 58.256C183.79 58.48 184.115 58.8213 184.328 59.28C184.563 58.832 184.878 58.4907 185.272 58.256C185.667 58.0213 186.168 57.904 186.776 57.904C187.214 57.904 187.608 57.9627 187.96 58.08C188.312 58.1973 188.611 58.3787 188.856 58.624C189.112 58.8693 189.304 59.184 189.432 59.568C189.571 59.952 189.64 60.4107 189.64 60.944V66H188.36V61.184C188.36 60.3733 188.2 59.8027 187.88 59.472C187.571 59.1307 187.112 58.96 186.504 58.96C185.918 58.96 185.459 59.168 185.128 59.584C184.798 60 184.632 60.608 184.632 61.408V66H183.352V61.184C183.352 60.3733 183.192 59.8027 182.872 59.472C182.563 59.1307 182.104 58.96 181.496 58.96C180.92 58.96 180.462 59.168 180.12 59.584C179.79 60 179.624 60.608 179.624 61.408V66H178.344V58.096ZM193.963 66.192C193.601 66.192 193.265 66.1333 192.955 66.016C192.657 65.8987 192.395 65.7333 192.171 65.52C191.947 65.3067 191.771 65.056 191.643 64.768C191.526 64.4693 191.467 64.144 191.467 63.792C191.467 63.1093 191.713 62.56 192.203 62.144C192.694 61.728 193.393 61.4933 194.299 61.44L196.379 61.312V60.752C196.379 60.144 196.23 59.7067 195.931 59.44C195.643 59.1627 195.227 59.024 194.683 59.024C194.225 59.024 193.83 59.1093 193.499 59.28C193.169 59.4507 192.913 59.6373 192.731 59.84L191.963 59.072C192.241 58.7307 192.614 58.4533 193.083 58.24C193.563 58.016 194.107 57.904 194.715 57.904C195.259 57.904 195.718 57.9787 196.091 58.128C196.465 58.2667 196.763 58.4587 196.987 58.704C197.222 58.9493 197.387 59.2373 197.483 59.568C197.59 59.8987 197.643 60.2507 197.643 60.624V66H196.443V64.656H196.347C196.134 65.136 195.835 65.5147 195.451 65.792C195.067 66.0587 194.571 66.192 193.963 66.192ZM194.155 65.104C194.817 65.104 195.35 64.912 195.755 64.528C196.171 64.1333 196.379 63.6107 196.379 62.96V62.272L194.363 62.416C193.297 62.5013 192.763 62.9493 192.763 63.76C192.763 64.1653 192.891 64.4907 193.147 64.736C193.414 64.9813 193.75 65.104 194.155 65.104ZM201.707 56C201.707 56.224 201.627 56.416 201.467 56.576C201.318 56.736 201.115 56.816 200.859 56.816C200.593 56.816 200.385 56.736 200.235 56.576C200.086 56.416 200.011 56.224 200.011 56C200.011 55.7867 200.086 55.6 200.235 55.44C200.385 55.2693 200.593 55.184 200.859 55.184C201.115 55.184 201.318 55.2693 201.467 55.44C201.627 55.6 201.707 55.7867 201.707 56ZM200.219 58.096H201.499V66H200.219V58.096ZM204.219 54.4H205.499V66H204.219V54.4ZM212.063 54.4H213.343V59.216H213.439C213.62 58.8533 213.882 58.544 214.223 58.288C214.564 58.032 215.002 57.904 215.535 57.904C216.442 57.904 217.156 58.144 217.679 58.624C218.212 59.104 218.479 59.8773 218.479 60.944V66H217.199V61.184C217.199 60.3733 217.034 59.8027 216.703 59.472C216.383 59.1307 215.908 58.96 215.279 58.96C214.671 58.96 214.196 59.168 213.855 59.584C213.514 60 213.343 60.608 213.343 61.408V66H212.063V54.4ZM222.713 66.192C222.351 66.192 222.015 66.1333 221.705 66.016C221.407 65.8987 221.145 65.7333 220.921 65.52C220.697 65.3067 220.521 65.056 220.393 64.768C220.276 64.4693 220.217 64.144 220.217 63.792C220.217 63.1093 220.463 62.56 220.953 62.144C221.444 61.728 222.143 61.4933 223.049 61.44L225.129 61.312V60.752C225.129 60.144 224.98 59.7067 224.681 59.44C224.393 59.1627 223.977 59.024 223.433 59.024C222.975 59.024 222.58 59.1093 222.249 59.28C221.919 59.4507 221.663 59.6373 221.481 59.84L220.713 59.072C220.991 58.7307 221.364 58.4533 221.833 58.24C222.313 58.016 222.857 57.904 223.465 57.904C224.009 57.904 224.468 57.9787 224.841 58.128C225.215 58.2667 225.513 58.4587 225.737 58.704C225.972 58.9493 226.137 59.2373 226.233 59.568C226.34 59.8987 226.393 60.2507 226.393 60.624V66H225.193V64.656H225.097C224.884 65.136 224.585 65.5147 224.201 65.792C223.817 66.0587 223.321 66.192 222.713 66.192ZM222.905 65.104C223.567 65.104 224.1 64.912 224.505 64.528C224.921 64.1333 225.129 63.6107 225.129 62.96V62.272L223.113 62.416C222.047 62.5013 221.513 62.9493 221.513 63.76C221.513 64.1653 221.641 64.4907 221.897 64.736C222.164 64.9813 222.5 65.104 222.905 65.104ZM232.777 63.952C232.777 63.7173 232.724 63.5253 232.617 63.376C232.511 63.216 232.361 63.0827 232.169 62.976C231.988 62.8693 231.78 62.7787 231.545 62.704C231.311 62.6293 231.065 62.5547 230.809 62.48C230.511 62.3947 230.223 62.2933 229.945 62.176C229.679 62.0587 229.439 61.9147 229.225 61.744C229.012 61.5627 228.841 61.3493 228.713 61.104C228.585 60.8587 228.521 60.56 228.521 60.208C228.521 59.8347 228.591 59.504 228.729 59.216C228.868 58.928 229.06 58.688 229.305 58.496C229.551 58.304 229.839 58.16 230.169 58.064C230.5 57.9573 230.857 57.904 231.241 57.904C231.817 57.904 232.345 58.0107 232.825 58.224C233.305 58.4267 233.7 58.7467 234.009 59.184L233.177 59.952C232.943 59.6747 232.665 59.4453 232.345 59.264C232.036 59.0827 231.668 58.992 231.241 58.992C231.06 58.992 230.879 59.0133 230.697 59.056C230.527 59.0987 230.372 59.168 230.233 59.264C230.095 59.3493 229.983 59.4613 229.897 59.6C229.812 59.7387 229.769 59.904 229.769 60.096C229.769 60.3307 229.823 60.528 229.929 60.688C230.036 60.8373 230.18 60.9653 230.361 61.072C230.553 61.1787 230.767 61.2693 231.001 61.344C231.236 61.4187 231.481 61.4933 231.737 61.568C232.036 61.6533 232.319 61.7547 232.585 61.872C232.863 61.9893 233.108 62.1387 233.321 62.32C233.535 62.4907 233.705 62.6987 233.833 62.944C233.961 63.1893 234.025 63.488 234.025 63.84C234.025 64.256 233.945 64.6133 233.785 64.912C233.636 65.2 233.428 65.44 233.161 65.632C232.895 65.824 232.585 65.9627 232.233 66.048C231.881 66.144 231.508 66.192 231.113 66.192C230.42 66.192 229.828 66.0747 229.337 65.84C228.857 65.6053 228.479 65.3013 228.201 64.928L229.049 64.128C229.295 64.416 229.577 64.6507 229.897 64.832C230.228 65.0133 230.639 65.104 231.129 65.104C231.353 65.104 231.561 65.0827 231.753 65.04C231.956 64.9973 232.132 64.928 232.281 64.832C232.431 64.736 232.548 64.6187 232.633 64.48C232.729 64.3307 232.777 64.1547 232.777 63.952ZM244.143 66.192C243.823 66.192 243.513 66.1493 243.215 66.064C242.927 65.9787 242.66 65.856 242.415 65.696C242.18 65.536 241.972 65.3493 241.791 65.136C241.62 64.912 241.487 64.6613 241.391 64.384H241.295V66H240.079V54.4H241.359V59.552H241.455C241.657 59.072 241.993 58.6773 242.463 58.368C242.932 58.0587 243.492 57.904 244.143 57.904C244.665 57.904 245.14 58.0053 245.567 58.208C246.004 58.4107 246.377 58.6987 246.687 59.072C246.996 59.4347 247.231 59.872 247.391 60.384C247.561 60.8853 247.647 61.4347 247.647 62.032C247.647 62.6293 247.561 63.184 247.391 63.696C247.231 64.208 246.996 64.6507 246.687 65.024C246.377 65.3867 246.004 65.6747 245.567 65.888C245.14 66.0907 244.665 66.192 244.143 66.192ZM243.823 65.04C244.175 65.04 244.5 64.9813 244.799 64.864C245.108 64.736 245.375 64.5493 245.599 64.304C245.833 64.048 246.015 63.7333 246.143 63.36C246.271 62.9867 246.335 62.5493 246.335 62.048C246.335 61.5467 246.271 61.1093 246.143 60.736C246.015 60.3627 245.833 60.0533 245.599 59.808C245.375 59.552 245.108 59.3653 244.799 59.248C244.5 59.12 244.175 59.056 243.823 59.056C243.481 59.056 243.161 59.12 242.863 59.248C242.564 59.3653 242.303 59.552 242.079 59.808C241.855 60.0533 241.679 60.3627 241.551 60.736C241.423 61.1093 241.359 61.5467 241.359 62.048C241.359 62.5493 241.423 62.9867 241.551 63.36C241.679 63.7333 241.855 64.048 242.079 64.304C242.303 64.5493 242.564 64.736 242.863 64.864C243.161 64.9813 243.481 65.04 243.823 65.04ZM252.792 66.192C252.226 66.192 251.709 66.096 251.24 65.904C250.781 65.712 250.386 65.44 250.056 65.088C249.736 64.7253 249.485 64.288 249.304 63.776C249.133 63.264 249.048 62.688 249.048 62.048C249.048 61.376 249.138 60.784 249.32 60.272C249.501 59.7493 249.752 59.3173 250.072 58.976C250.392 58.624 250.77 58.3573 251.208 58.176C251.656 57.9947 252.146 57.904 252.68 57.904C253.213 57.904 253.704 57.9893 254.152 58.16C254.6 58.3307 254.984 58.5867 255.304 58.928C255.624 59.2587 255.874 59.68 256.056 60.192C256.237 60.6933 256.328 61.28 256.328 61.952C256.328 62.0373 256.322 62.1227 256.312 62.208C256.312 62.2933 256.306 62.3627 256.296 62.416H250.328C250.328 62.7893 250.392 63.1413 250.52 63.472C250.658 63.792 250.84 64.0747 251.064 64.32C251.298 64.5547 251.565 64.7413 251.864 64.88C252.173 65.0187 252.504 65.088 252.856 65.088C253.432 65.088 253.901 64.976 254.264 64.752C254.637 64.528 254.946 64.256 255.192 63.936L255.96 64.72C255.618 65.168 255.192 65.5253 254.68 65.792C254.178 66.0587 253.549 66.192 252.792 66.192ZM252.68 58.96C252.306 58.96 251.976 59.0293 251.688 59.168C251.4 59.3067 251.16 59.488 250.968 59.712C250.776 59.936 250.626 60.192 250.52 60.48C250.424 60.768 250.37 61.056 250.36 61.344H254.984C254.973 61.056 254.914 60.768 254.808 60.48C254.712 60.192 254.568 59.936 254.376 59.712C254.184 59.488 253.944 59.3067 253.656 59.168C253.378 59.0293 253.053 58.96 252.68 58.96ZM261.479 66.192C260.914 66.192 260.397 66.096 259.927 65.904C259.469 65.712 259.074 65.44 258.743 65.088C258.423 64.7253 258.173 64.288 257.991 63.776C257.821 63.264 257.735 62.688 257.735 62.048C257.735 61.376 257.826 60.784 258.007 60.272C258.189 59.7493 258.439 59.3173 258.759 58.976C259.079 58.624 259.458 58.3573 259.895 58.176C260.343 57.9947 260.834 57.904 261.367 57.904C261.901 57.904 262.391 57.9893 262.839 58.16C263.287 58.3307 263.671 58.5867 263.991 58.928C264.311 59.2587 264.562 59.68 264.743 60.192C264.925 60.6933 265.015 61.28 265.015 61.952C265.015 62.0373 265.01 62.1227 264.999 62.208C264.999 62.2933 264.994 62.3627 264.983 62.416H259.015C259.015 62.7893 259.079 63.1413 259.207 63.472C259.346 63.792 259.527 64.0747 259.751 64.32C259.986 64.5547 260.253 64.7413 260.551 64.88C260.861 65.0187 261.191 65.088 261.543 65.088C262.119 65.088 262.589 64.976 262.951 64.752C263.325 64.528 263.634 64.256 263.879 63.936L264.647 64.72C264.306 65.168 263.879 65.5253 263.367 65.792C262.866 66.0587 262.237 66.192 261.479 66.192ZM261.367 58.96C260.994 58.96 260.663 59.0293 260.375 59.168C260.087 59.3067 259.847 59.488 259.655 59.712C259.463 59.936 259.314 60.192 259.207 60.48C259.111 60.768 259.058 61.056 259.047 61.344H263.671C263.661 61.056 263.602 60.768 263.495 60.48C263.399 60.192 263.255 59.936 263.063 59.712C262.871 59.488 262.631 59.3067 262.343 59.168C262.066 59.0293 261.741 58.96 261.367 58.96ZM267.079 58.096H268.295V59.344H268.391C268.583 58.928 268.855 58.5867 269.207 58.32C269.559 58.0427 270.007 57.904 270.551 57.904C271.457 57.904 272.172 58.144 272.695 58.624C273.228 59.104 273.495 59.8773 273.495 60.944V66H272.215V61.184C272.215 60.3733 272.049 59.8027 271.719 59.472C271.399 59.1307 270.924 58.96 270.295 58.96C269.687 58.96 269.212 59.168 268.871 59.584C268.529 60 268.359 60.608 268.359 61.408V66H267.079V58.096ZM283.715 63.952C283.715 63.7173 283.662 63.5253 283.555 63.376C283.448 63.216 283.299 63.0827 283.107 62.976C282.926 62.8693 282.718 62.7787 282.483 62.704C282.248 62.6293 282.003 62.5547 281.747 62.48C281.448 62.3947 281.16 62.2933 280.883 62.176C280.616 62.0587 280.376 61.9147 280.163 61.744C279.95 61.5627 279.779 61.3493 279.651 61.104C279.523 60.8587 279.459 60.56 279.459 60.208C279.459 59.8347 279.528 59.504 279.667 59.216C279.806 58.928 279.998 58.688 280.243 58.496C280.488 58.304 280.776 58.16 281.107 58.064C281.438 57.9573 281.795 57.904 282.179 57.904C282.755 57.904 283.283 58.0107 283.763 58.224C284.243 58.4267 284.638 58.7467 284.947 59.184L284.115 59.952C283.88 59.6747 283.603 59.4453 283.283 59.264C282.974 59.0827 282.606 58.992 282.179 58.992C281.998 58.992 281.816 59.0133 281.635 59.056C281.464 59.0987 281.31 59.168 281.171 59.264C281.032 59.3493 280.92 59.4613 280.835 59.6C280.75 59.7387 280.707 59.904 280.707 60.096C280.707 60.3307 280.76 60.528 280.867 60.688C280.974 60.8373 281.118 60.9653 281.299 61.072C281.491 61.1787 281.704 61.2693 281.939 61.344C282.174 61.4187 282.419 61.4933 282.675 61.568C282.974 61.6533 283.256 61.7547 283.523 61.872C283.8 61.9893 284.046 62.1387 284.259 62.32C284.472 62.4907 284.643 62.6987 284.771 62.944C284.899 63.1893 284.963 63.488 284.963 63.84C284.963 64.256 284.883 64.6133 284.723 64.912C284.574 65.2 284.366 65.44 284.099 65.632C283.832 65.824 283.523 65.9627 283.171 66.048C282.819 66.144 282.446 66.192 282.051 66.192C281.358 66.192 280.766 66.0747 280.275 65.84C279.795 65.6053 279.416 65.3013 279.139 64.928L279.987 64.128C280.232 64.416 280.515 64.6507 280.835 64.832C281.166 65.0133 281.576 65.104 282.067 65.104C282.291 65.104 282.499 65.0827 282.691 65.04C282.894 64.9973 283.07 64.928 283.219 64.832C283.368 64.736 283.486 64.6187 283.571 64.48C283.667 64.3307 283.715 64.1547 283.715 63.952ZM290.261 66.192C289.695 66.192 289.178 66.096 288.709 65.904C288.25 65.712 287.855 65.44 287.525 65.088C287.205 64.7253 286.954 64.288 286.773 63.776C286.602 63.264 286.517 62.688 286.517 62.048C286.517 61.376 286.607 60.784 286.789 60.272C286.97 59.7493 287.221 59.3173 287.541 58.976C287.861 58.624 288.239 58.3573 288.677 58.176C289.125 57.9947 289.615 57.904 290.149 57.904C290.682 57.904 291.173 57.9893 291.621 58.16C292.069 58.3307 292.453 58.5867 292.773 58.928C293.093 59.2587 293.343 59.68 293.525 60.192C293.706 60.6933 293.797 61.28 293.797 61.952C293.797 62.0373 293.791 62.1227 293.781 62.208C293.781 62.2933 293.775 62.3627 293.765 62.416H287.797C287.797 62.7893 287.861 63.1413 287.989 63.472C288.127 63.792 288.309 64.0747 288.533 64.32C288.767 64.5547 289.034 64.7413 289.333 64.88C289.642 65.0187 289.973 65.088 290.325 65.088C290.901 65.088 291.37 64.976 291.733 64.752C292.106 64.528 292.415 64.256 292.661 63.936L293.429 64.72C293.087 65.168 292.661 65.5253 292.149 65.792C291.647 66.0587 291.018 66.192 290.261 66.192ZM290.149 58.96C289.775 58.96 289.445 59.0293 289.157 59.168C288.869 59.3067 288.629 59.488 288.437 59.712C288.245 59.936 288.095 60.192 287.989 60.48C287.893 60.768 287.839 61.056 287.829 61.344H292.453C292.442 61.056 292.383 60.768 292.277 60.48C292.181 60.192 292.037 59.936 291.845 59.712C291.653 59.488 291.413 59.3067 291.125 59.168C290.847 59.0293 290.522 58.96 290.149 58.96ZM295.86 58.096H297.076V59.344H297.172C297.364 58.928 297.636 58.5867 297.988 58.32C298.34 58.0427 298.788 57.904 299.332 57.904C300.239 57.904 300.953 58.144 301.476 58.624C302.009 59.104 302.276 59.8773 302.276 60.944V66H300.996V61.184C300.996 60.3733 300.831 59.8027 300.5 59.472C300.18 59.1307 299.705 58.96 299.076 58.96C298.468 58.96 297.993 59.168 297.652 59.584C297.311 60 297.14 60.608 297.14 61.408V66H295.86V58.096ZM307.276 66.192C306.562 66.192 306.039 65.9787 305.708 65.552C305.378 65.1253 305.212 64.5387 305.212 63.792V59.136H303.804V58.096H305.212V55.952H306.476V58.096H308.764V59.136H306.476V63.68C306.476 64.192 306.572 64.5493 306.764 64.752C306.967 64.9547 307.223 65.056 307.532 65.056C307.746 65.056 307.938 65.0187 308.108 64.944C308.279 64.8587 308.439 64.7467 308.588 64.608L309.164 65.504C308.674 65.9627 308.044 66.192 307.276 66.192ZM317.183 66.192C316.468 66.192 315.945 65.9787 315.615 65.552C315.284 65.1253 315.119 64.5387 315.119 63.792V59.136H313.711V58.096H315.119V55.952H316.383V58.096H318.671V59.136H316.383V63.68C316.383 64.192 316.479 64.5493 316.671 64.752C316.873 64.9547 317.129 65.056 317.439 65.056C317.652 65.056 317.844 65.0187 318.015 64.944C318.185 64.8587 318.345 64.7467 318.495 64.608L319.071 65.504C318.58 65.9627 317.951 66.192 317.183 66.192ZM323.808 66.192C323.179 66.192 322.624 66.0853 322.144 65.872C321.675 65.648 321.28 65.3493 320.96 64.976C320.651 64.6027 320.416 64.1653 320.256 63.664C320.107 63.1627 320.032 62.624 320.032 62.048C320.032 61.472 320.107 60.9333 320.256 60.432C320.416 59.9307 320.651 59.4933 320.96 59.12C321.28 58.7467 321.675 58.4533 322.144 58.24C322.624 58.016 323.179 57.904 323.808 57.904C324.437 57.904 324.981 58.016 325.44 58.24C325.909 58.4533 326.299 58.7467 326.608 59.12C326.917 59.4933 327.147 59.9307 327.296 60.432C327.456 60.9333 327.536 61.472 327.536 62.048C327.536 62.624 327.456 63.1627 327.296 63.664C327.147 64.1653 326.917 64.6027 326.608 64.976C326.299 65.3493 325.909 65.648 325.44 65.872C324.981 66.0853 324.437 66.192 323.808 66.192ZM321.344 62.048C321.344 62.5067 321.392 62.928 321.488 63.312C321.595 63.6853 321.749 64.0107 321.952 64.288C322.155 64.5547 322.411 64.7627 322.72 64.912C323.029 65.0613 323.392 65.136 323.808 65.136C324.213 65.136 324.565 65.0613 324.864 64.912C325.173 64.7627 325.424 64.5547 325.616 64.288C325.819 64.0107 325.968 63.6853 326.064 63.312C326.171 62.928 326.224 62.5067 326.224 62.048C326.224 61.5893 326.171 61.1733 326.064 60.8C325.968 60.416 325.819 60.0907 325.616 59.824C325.424 59.5467 325.173 59.3333 324.864 59.184C324.565 59.0347 324.213 58.96 323.808 58.96C323.392 58.96 323.029 59.0347 322.72 59.184C322.411 59.3333 322.155 59.5467 321.952 59.824C321.749 60.0907 321.595 60.416 321.488 60.8C321.392 61.1733 321.344 61.5893 321.344 62.048ZM335.87 66.192C335.155 66.192 334.633 65.9787 334.302 65.552C333.971 65.1253 333.806 64.5387 333.806 63.792V59.136H332.398V58.096H333.806V55.952H335.07V58.096H337.358V59.136H335.07V63.68C335.07 64.192 335.166 64.5493 335.358 64.752C335.561 64.9547 335.817 65.056 336.126 65.056C336.339 65.056 336.531 65.0187 336.702 64.944C336.873 64.8587 337.033 64.7467 337.182 64.608L337.758 65.504C337.267 65.9627 336.638 66.192 335.87 66.192ZM342.464 66.192C341.898 66.192 341.381 66.096 340.912 65.904C340.453 65.712 340.058 65.44 339.728 65.088C339.408 64.7253 339.157 64.288 338.976 63.776C338.805 63.264 338.72 62.688 338.72 62.048C338.72 61.376 338.81 60.784 338.992 60.272C339.173 59.7493 339.424 59.3173 339.744 58.976C340.064 58.624 340.442 58.3573 340.88 58.176C341.328 57.9947 341.818 57.904 342.352 57.904C342.885 57.904 343.376 57.9893 343.824 58.16C344.272 58.3307 344.656 58.5867 344.976 58.928C345.296 59.2587 345.546 59.68 345.728 60.192C345.909 60.6933 346 61.28 346 61.952C346 62.0373 345.994 62.1227 345.984 62.208C345.984 62.2933 345.978 62.3627 345.968 62.416H340C340 62.7893 340.064 63.1413 340.192 63.472C340.33 63.792 340.512 64.0747 340.736 64.32C340.97 64.5547 341.237 64.7413 341.536 64.88C341.845 65.0187 342.176 65.088 342.528 65.088C343.104 65.088 343.573 64.976 343.936 64.752C344.309 64.528 344.618 64.256 344.864 63.936L345.632 64.72C345.29 65.168 344.864 65.5253 344.352 65.792C343.85 66.0587 343.221 66.192 342.464 66.192ZM342.352 58.96C341.978 58.96 341.648 59.0293 341.36 59.168C341.072 59.3067 340.832 59.488 340.64 59.712C340.448 59.936 340.298 60.192 340.192 60.48C340.096 60.768 340.042 61.056 340.032 61.344H344.656C344.645 61.056 344.586 60.768 344.48 60.48C344.384 60.192 344.24 59.936 344.048 59.712C343.856 59.488 343.616 59.3067 343.328 59.168C343.05 59.0293 342.725 58.96 342.352 58.96ZM351.871 63.952C351.871 63.7173 351.818 63.5253 351.711 63.376C351.604 63.216 351.455 63.0827 351.263 62.976C351.082 62.8693 350.874 62.7787 350.639 62.704C350.404 62.6293 350.159 62.5547 349.903 62.48C349.604 62.3947 349.316 62.2933 349.039 62.176C348.772 62.0587 348.532 61.9147 348.319 61.744C348.106 61.5627 347.935 61.3493 347.807 61.104C347.679 60.8587 347.615 60.56 347.615 60.208C347.615 59.8347 347.684 59.504 347.823 59.216C347.962 58.928 348.154 58.688 348.399 58.496C348.644 58.304 348.932 58.16 349.263 58.064C349.594 57.9573 349.951 57.904 350.335 57.904C350.911 57.904 351.439 58.0107 351.919 58.224C352.399 58.4267 352.794 58.7467 353.103 59.184L352.271 59.952C352.036 59.6747 351.759 59.4453 351.439 59.264C351.13 59.0827 350.762 58.992 350.335 58.992C350.154 58.992 349.972 59.0133 349.791 59.056C349.62 59.0987 349.466 59.168 349.327 59.264C349.188 59.3493 349.076 59.4613 348.991 59.6C348.906 59.7387 348.863 59.904 348.863 60.096C348.863 60.3307 348.916 60.528 349.023 60.688C349.13 60.8373 349.274 60.9653 349.455 61.072C349.647 61.1787 349.86 61.2693 350.095 61.344C350.33 61.4187 350.575 61.4933 350.831 61.568C351.13 61.6533 351.412 61.7547 351.679 61.872C351.956 61.9893 352.202 62.1387 352.415 62.32C352.628 62.4907 352.799 62.6987 352.927 62.944C353.055 63.1893 353.119 63.488 353.119 63.84C353.119 64.256 353.039 64.6133 352.879 64.912C352.73 65.2 352.522 65.44 352.255 65.632C351.988 65.824 351.679 65.9627 351.327 66.048C350.975 66.144 350.602 66.192 350.207 66.192C349.514 66.192 348.922 66.0747 348.431 65.84C347.951 65.6053 347.572 65.3013 347.295 64.928L348.143 64.128C348.388 64.416 348.671 64.6507 348.991 64.832C349.322 65.0133 349.732 65.104 350.223 65.104C350.447 65.104 350.655 65.0827 350.847 65.04C351.05 64.9973 351.226 64.928 351.375 64.832C351.524 64.736 351.642 64.6187 351.727 64.48C351.823 64.3307 351.871 64.1547 351.871 63.952ZM357.761 66.192C357.046 66.192 356.523 65.9787 356.193 65.552C355.862 65.1253 355.697 64.5387 355.697 63.792V59.136H354.289V58.096H355.697V55.952H356.961V58.096H359.249V59.136H356.961V63.68C356.961 64.192 357.057 64.5493 357.249 64.752C357.451 64.9547 357.707 65.056 358.017 65.056C358.23 65.056 358.422 65.0187 358.593 64.944C358.763 64.8587 358.923 64.7467 359.073 64.608L359.649 65.504C359.158 65.9627 358.529 66.192 357.761 66.192ZM364.354 66.192C363.789 66.192 363.272 66.096 362.802 65.904C362.344 65.712 361.949 65.44 361.618 65.088C361.298 64.7253 361.048 64.288 360.866 63.776C360.696 63.264 360.61 62.688 360.61 62.048C360.61 61.376 360.701 60.784 360.882 60.272C361.064 59.7493 361.314 59.3173 361.634 58.976C361.954 58.624 362.333 58.3573 362.77 58.176C363.218 57.9947 363.709 57.904 364.242 57.904C364.776 57.904 365.266 57.9893 365.714 58.16C366.162 58.3307 366.546 58.5867 366.866 58.928C367.186 59.2587 367.437 59.68 367.618 60.192C367.8 60.6933 367.89 61.28 367.89 61.952C367.89 62.0373 367.885 62.1227 367.874 62.208C367.874 62.2933 367.869 62.3627 367.858 62.416H361.89C361.89 62.7893 361.954 63.1413 362.082 63.472C362.221 63.792 362.402 64.0747 362.626 64.32C362.861 64.5547 363.128 64.7413 363.426 64.88C363.736 65.0187 364.066 65.088 364.418 65.088C364.994 65.088 365.464 64.976 365.826 64.752C366.2 64.528 366.509 64.256 366.754 63.936L367.522 64.72C367.181 65.168 366.754 65.5253 366.242 65.792C365.741 66.0587 365.112 66.192 364.354 66.192ZM364.242 58.96C363.869 58.96 363.538 59.0293 363.25 59.168C362.962 59.3067 362.722 59.488 362.53 59.712C362.338 59.936 362.189 60.192 362.082 60.48C361.986 60.768 361.933 61.056 361.922 61.344H366.546C366.536 61.056 366.477 60.768 366.37 60.48C366.274 60.192 366.13 59.936 365.938 59.712C365.746 59.488 365.506 59.3067 365.218 59.168C364.941 59.0293 364.616 58.96 364.242 58.96ZM369.954 58.096H371.17V59.344H371.266C371.458 58.928 371.724 58.5867 372.066 58.32C372.418 58.0427 372.855 57.904 373.378 57.904C374.007 57.904 374.535 58.0213 374.962 58.256C375.399 58.48 375.724 58.8213 375.938 59.28C376.172 58.832 376.487 58.4907 376.882 58.256C377.276 58.0213 377.778 57.904 378.386 57.904C378.823 57.904 379.218 57.9627 379.57 58.08C379.922 58.1973 380.22 58.3787 380.466 58.624C380.722 58.8693 380.914 59.184 381.042 59.568C381.18 59.952 381.25 60.4107 381.25 60.944V66H379.97V61.184C379.97 60.3733 379.81 59.8027 379.49 59.472C379.18 59.1307 378.722 58.96 378.114 58.96C377.527 58.96 377.068 59.168 376.738 59.584C376.407 60 376.242 60.608 376.242 61.408V66H374.962V61.184C374.962 60.3733 374.802 59.8027 374.482 59.472C374.172 59.1307 373.714 58.96 373.106 58.96C372.53 58.96 372.071 59.168 371.73 59.584C371.399 60 371.234 60.608 371.234 61.408V66H369.954V58.096ZM385.573 66.192C385.21 66.192 384.874 66.1333 384.565 66.016C384.266 65.8987 384.005 65.7333 383.781 65.52C383.557 65.3067 383.381 65.056 383.253 64.768C383.135 64.4693 383.077 64.144 383.077 63.792C383.077 63.1093 383.322 62.56 383.813 62.144C384.303 61.728 385.002 61.4933 385.909 61.44L387.989 61.312V60.752C387.989 60.144 387.839 59.7067 387.541 59.44C387.253 59.1627 386.837 59.024 386.293 59.024C385.834 59.024 385.439 59.1093 385.109 59.28C384.778 59.4507 384.522 59.6373 384.341 59.84L383.573 59.072C383.85 58.7307 384.223 58.4533 384.693 58.24C385.173 58.016 385.717 57.904 386.325 57.904C386.869 57.904 387.327 57.9787 387.701 58.128C388.074 58.2667 388.373 58.4587 388.597 58.704C388.831 58.9493 388.997 59.2373 389.093 59.568C389.199 59.8987 389.253 60.2507 389.253 60.624V66H388.053V64.656H387.957C387.743 65.136 387.445 65.5147 387.061 65.792C386.677 66.0587 386.181 66.192 385.573 66.192ZM385.765 65.104C386.426 65.104 386.959 64.912 387.365 64.528C387.781 64.1333 387.989 63.6107 387.989 62.96V62.272L385.973 62.416C384.906 62.5013 384.373 62.9493 384.373 63.76C384.373 64.1653 384.501 64.4907 384.757 64.736C385.023 64.9813 385.359 65.104 385.765 65.104ZM393.317 56C393.317 56.224 393.237 56.416 393.077 56.576C392.927 56.736 392.725 56.816 392.469 56.816C392.202 56.816 391.994 56.736 391.845 56.576C391.695 56.416 391.621 56.224 391.621 56C391.621 55.7867 391.695 55.6 391.845 55.44C391.994 55.2693 392.202 55.184 392.469 55.184C392.725 55.184 392.927 55.2693 393.077 55.44C393.237 55.6 393.317 55.7867 393.317 56ZM391.829 58.096H393.109V66H391.829V58.096ZM395.829 54.4H397.109V66H395.829V54.4ZM404.981 67.472C404.17 67.472 403.413 67.3227 402.709 67.024C402.015 66.736 401.413 66.3307 400.901 65.808C400.389 65.2853 399.989 64.6613 399.701 63.936C399.413 63.2107 399.269 62.416 399.269 61.552C399.269 60.6347 399.413 59.8027 399.701 59.056C399.989 58.2987 400.389 57.6533 400.901 57.12C401.423 56.576 402.037 56.1547 402.741 55.856C403.455 55.5573 404.239 55.408 405.093 55.408C405.871 55.408 406.607 55.5253 407.301 55.76C407.994 55.984 408.602 56.3253 409.125 56.784C409.647 57.2427 410.058 57.8133 410.357 58.496C410.666 59.1787 410.821 59.968 410.821 60.864C410.821 61.4293 410.741 61.9413 410.581 62.4C410.431 62.8587 410.218 63.2533 409.941 63.584C409.674 63.904 409.354 64.1547 408.981 64.336C408.618 64.5067 408.223 64.592 407.797 64.592H406.917V63.424H406.821C406.661 63.7973 406.399 64.112 406.037 64.368C405.674 64.6133 405.253 64.736 404.773 64.736C404.367 64.736 403.994 64.6613 403.653 64.512C403.311 64.352 403.013 64.128 402.757 63.84C402.511 63.552 402.314 63.2053 402.165 62.8C402.026 62.3947 401.957 61.9413 401.957 61.44C401.957 60.96 402.026 60.5227 402.165 60.128C402.314 59.7227 402.511 59.376 402.757 59.088C403.013 58.8 403.311 58.576 403.653 58.416C403.994 58.256 404.367 58.176 404.773 58.176C405.253 58.176 405.674 58.2933 406.037 58.528C406.41 58.7627 406.671 59.0827 406.821 59.488H406.917V58.32H407.957V63.76C408.213 63.76 408.453 63.696 408.677 63.568C408.911 63.4293 409.114 63.232 409.285 62.976C409.455 62.72 409.589 62.4107 409.685 62.048C409.781 61.6853 409.829 61.28 409.829 60.832C409.829 60.0427 409.701 59.3653 409.445 58.8C409.189 58.2347 408.842 57.7707 408.405 57.408C407.978 57.0453 407.477 56.7787 406.901 56.608C406.325 56.4373 405.722 56.352 405.093 56.352C404.389 56.352 403.743 56.4747 403.157 56.72C402.581 56.9547 402.085 57.296 401.669 57.744C401.253 58.192 400.927 58.736 400.693 59.376C400.469 60.016 400.357 60.736 400.357 61.536C400.357 62.272 400.474 62.9493 400.709 63.568C400.943 64.1867 401.269 64.7147 401.685 65.152C402.101 65.5893 402.591 65.9307 403.157 66.176C403.722 66.4213 404.335 66.544 404.997 66.544C405.402 66.544 405.786 66.5013 406.149 66.416C406.511 66.3413 406.831 66.2347 407.109 66.096L407.413 66.928C407.103 67.0773 406.741 67.2053 406.325 67.312C405.909 67.4187 405.461 67.472 404.981 67.472ZM404.981 59.136C404.426 59.136 403.973 59.328 403.621 59.712C403.279 60.096 403.109 60.6773 403.109 61.456C403.109 62.2347 403.279 62.816 403.621 63.2C403.973 63.584 404.426 63.776 404.981 63.776C405.525 63.776 405.967 63.584 406.309 63.2C406.661 62.816 406.837 62.2347 406.837 61.456C406.837 60.6773 406.661 60.096 406.309 59.712C405.967 59.328 405.525 59.136 404.981 59.136ZM415.417 66.192C414.702 66.192 414.18 65.9787 413.849 65.552C413.518 65.1253 413.353 64.5387 413.353 63.792V59.136H411.945V58.096H413.353V55.952H414.617V58.096H416.905V59.136H414.617V63.68C414.617 64.192 414.713 64.5493 414.905 64.752C415.108 64.9547 415.364 65.056 415.673 65.056C415.886 65.056 416.078 65.0187 416.249 64.944C416.42 64.8587 416.58 64.7467 416.729 64.608L417.305 65.504C416.814 65.9627 416.185 66.192 415.417 66.192ZM422.011 66.192C421.445 66.192 420.928 66.096 420.459 65.904C420 65.712 419.605 65.44 419.275 65.088C418.955 64.7253 418.704 64.288 418.523 63.776C418.352 63.264 418.267 62.688 418.267 62.048C418.267 61.376 418.357 60.784 418.539 60.272C418.72 59.7493 418.971 59.3173 419.291 58.976C419.611 58.624 419.989 58.3573 420.427 58.176C420.875 57.9947 421.365 57.904 421.899 57.904C422.432 57.904 422.923 57.9893 423.371 58.16C423.819 58.3307 424.203 58.5867 424.523 58.928C424.843 59.2587 425.093 59.68 425.275 60.192C425.456 60.6933 425.547 61.28 425.547 61.952C425.547 62.0373 425.541 62.1227 425.531 62.208C425.531 62.2933 425.525 62.3627 425.515 62.416H419.547C419.547 62.7893 419.611 63.1413 419.739 63.472C419.877 63.792 420.059 64.0747 420.283 64.32C420.517 64.5547 420.784 64.7413 421.083 64.88C421.392 65.0187 421.723 65.088 422.075 65.088C422.651 65.088 423.12 64.976 423.483 64.752C423.856 64.528 424.165 64.256 424.411 63.936L425.179 64.72C424.837 65.168 424.411 65.5253 423.899 65.792C423.397 66.0587 422.768 66.192 422.011 66.192ZM421.899 58.96C421.525 58.96 421.195 59.0293 420.907 59.168C420.619 59.3067 420.379 59.488 420.187 59.712C419.995 59.936 419.845 60.192 419.739 60.48C419.643 60.768 419.589 61.056 419.579 61.344H424.203C424.192 61.056 424.133 60.768 424.027 60.48C423.931 60.192 423.787 59.936 423.595 59.712C423.403 59.488 423.163 59.3067 422.875 59.168C422.597 59.0293 422.272 58.96 421.899 58.96ZM431.418 63.952C431.418 63.7173 431.365 63.5253 431.258 63.376C431.151 63.216 431.002 63.0827 430.81 62.976C430.629 62.8693 430.421 62.7787 430.186 62.704C429.951 62.6293 429.706 62.5547 429.45 62.48C429.151 62.3947 428.863 62.2933 428.586 62.176C428.319 62.0587 428.079 61.9147 427.866 61.744C427.653 61.5627 427.482 61.3493 427.354 61.104C427.226 60.8587 427.162 60.56 427.162 60.208C427.162 59.8347 427.231 59.504 427.37 59.216C427.509 58.928 427.701 58.688 427.946 58.496C428.191 58.304 428.479 58.16 428.81 58.064C429.141 57.9573 429.498 57.904 429.882 57.904C430.458 57.904 430.986 58.0107 431.466 58.224C431.946 58.4267 432.341 58.7467 432.65 59.184L431.818 59.952C431.583 59.6747 431.306 59.4453 430.986 59.264C430.677 59.0827 430.309 58.992 429.882 58.992C429.701 58.992 429.519 59.0133 429.338 59.056C429.167 59.0987 429.013 59.168 428.874 59.264C428.735 59.3493 428.623 59.4613 428.538 59.6C428.453 59.7387 428.41 59.904 428.41 60.096C428.41 60.3307 428.463 60.528 428.57 60.688C428.677 60.8373 428.821 60.9653 429.002 61.072C429.194 61.1787 429.407 61.2693 429.642 61.344C429.877 61.4187 430.122 61.4933 430.378 61.568C430.677 61.6533 430.959 61.7547 431.226 61.872C431.503 61.9893 431.749 62.1387 431.962 62.32C432.175 62.4907 432.346 62.6987 432.474 62.944C432.602 63.1893 432.666 63.488 432.666 63.84C432.666 64.256 432.586 64.6133 432.426 64.912C432.277 65.2 432.069 65.44 431.802 65.632C431.535 65.824 431.226 65.9627 430.874 66.048C430.522 66.144 430.149 66.192 429.754 66.192C429.061 66.192 428.469 66.0747 427.978 65.84C427.498 65.6053 427.119 65.3013 426.842 64.928L427.69 64.128C427.935 64.416 428.218 64.6507 428.538 64.832C428.869 65.0133 429.279 65.104 429.77 65.104C429.994 65.104 430.202 65.0827 430.394 65.04C430.597 64.9973 430.773 64.928 430.922 64.832C431.071 64.736 431.189 64.6187 431.274 64.48C431.37 64.3307 431.418 64.1547 431.418 63.952ZM437.308 66.192C436.593 66.192 436.07 65.9787 435.74 65.552C435.409 65.1253 435.244 64.5387 435.244 63.792V59.136H433.836V58.096H435.244V55.952H436.508V58.096H438.796V59.136H436.508V63.68C436.508 64.192 436.604 64.5493 436.796 64.752C436.998 64.9547 437.254 65.056 437.564 65.056C437.777 65.056 437.969 65.0187 438.14 64.944C438.31 64.8587 438.47 64.7467 438.62 64.608L439.196 65.504C438.705 65.9627 438.076 66.192 437.308 66.192ZM443.901 66.192C443.336 66.192 442.818 66.096 442.349 65.904C441.89 65.712 441.496 65.44 441.165 65.088C440.845 64.7253 440.594 64.288 440.413 63.776C440.242 63.264 440.157 62.688 440.157 62.048C440.157 61.376 440.248 60.784 440.429 60.272C440.61 59.7493 440.861 59.3173 441.181 58.976C441.501 58.624 441.88 58.3573 442.317 58.176C442.765 57.9947 443.256 57.904 443.789 57.904C444.322 57.904 444.813 57.9893 445.261 58.16C445.709 58.3307 446.093 58.5867 446.413 58.928C446.733 59.2587 446.984 59.68 447.165 60.192C447.346 60.6933 447.437 61.28 447.437 61.952C447.437 62.0373 447.432 62.1227 447.421 62.208C447.421 62.2933 447.416 62.3627 447.405 62.416H441.437C441.437 62.7893 441.501 63.1413 441.629 63.472C441.768 63.792 441.949 64.0747 442.173 64.32C442.408 64.5547 442.674 64.7413 442.973 64.88C443.282 65.0187 443.613 65.088 443.965 65.088C444.541 65.088 445.01 64.976 445.373 64.752C445.746 64.528 446.056 64.256 446.301 63.936L447.069 64.72C446.728 65.168 446.301 65.5253 445.789 65.792C445.288 66.0587 444.658 66.192 443.901 66.192ZM443.789 58.96C443.416 58.96 443.085 59.0293 442.797 59.168C442.509 59.3067 442.269 59.488 442.077 59.712C441.885 59.936 441.736 60.192 441.629 60.48C441.533 60.768 441.48 61.056 441.469 61.344H446.093C446.082 61.056 446.024 60.768 445.917 60.48C445.821 60.192 445.677 59.936 445.485 59.712C445.293 59.488 445.053 59.3067 444.765 59.168C444.488 59.0293 444.162 58.96 443.789 58.96ZM449.501 58.096H450.717V59.344H450.813C451.005 58.928 451.271 58.5867 451.613 58.32C451.965 58.0427 452.402 57.904 452.925 57.904C453.554 57.904 454.082 58.0213 454.509 58.256C454.946 58.48 455.271 58.8213 455.485 59.28C455.719 58.832 456.034 58.4907 456.429 58.256C456.823 58.0213 457.325 57.904 457.933 57.904C458.37 57.904 458.765 57.9627 459.117 58.08C459.469 58.1973 459.767 58.3787 460.013 58.624C460.269 58.8693 460.461 59.184 460.589 59.568C460.727 59.952 460.797 60.4107 460.797 60.944V66H459.517V61.184C459.517 60.3733 459.357 59.8027 459.037 59.472C458.727 59.1307 458.269 58.96 457.661 58.96C457.074 58.96 456.615 59.168 456.285 59.584C455.954 60 455.789 60.608 455.789 61.408V66H454.509V61.184C454.509 60.3733 454.349 59.8027 454.029 59.472C453.719 59.1307 453.261 58.96 452.653 58.96C452.077 58.96 451.618 59.168 451.277 59.584C450.946 60 450.781 60.608 450.781 61.408V66H449.501V58.096ZM465.12 66.192C464.757 66.192 464.421 66.1333 464.112 66.016C463.813 65.8987 463.552 65.7333 463.328 65.52C463.104 65.3067 462.928 65.056 462.8 64.768C462.682 64.4693 462.624 64.144 462.624 63.792C462.624 63.1093 462.869 62.56 463.36 62.144C463.85 61.728 464.549 61.4933 465.456 61.44L467.536 61.312V60.752C467.536 60.144 467.386 59.7067 467.088 59.44C466.8 59.1627 466.384 59.024 465.84 59.024C465.381 59.024 464.986 59.1093 464.656 59.28C464.325 59.4507 464.069 59.6373 463.888 59.84L463.12 59.072C463.397 58.7307 463.77 58.4533 464.24 58.24C464.72 58.016 465.264 57.904 465.872 57.904C466.416 57.904 466.874 57.9787 467.248 58.128C467.621 58.2667 467.92 58.4587 468.144 58.704C468.378 58.9493 468.544 59.2373 468.64 59.568C468.746 59.8987 468.8 60.2507 468.8 60.624V66H467.6V64.656H467.504C467.29 65.136 466.992 65.5147 466.608 65.792C466.224 66.0587 465.728 66.192 465.12 66.192ZM465.312 65.104C465.973 65.104 466.506 64.912 466.912 64.528C467.328 64.1333 467.536 63.6107 467.536 62.96V62.272L465.52 62.416C464.453 62.5013 463.92 62.9493 463.92 63.76C463.92 64.1653 464.048 64.4907 464.304 64.736C464.57 64.9813 464.906 65.104 465.312 65.104ZM472.864 56C472.864 56.224 472.784 56.416 472.624 56.576C472.474 56.736 472.272 56.816 472.016 56.816C471.749 56.816 471.541 56.736 471.392 56.576C471.242 56.416 471.168 56.224 471.168 56C471.168 55.7867 471.242 55.6 471.392 55.44C471.541 55.2693 471.749 55.184 472.016 55.184C472.272 55.184 472.474 55.2693 472.624 55.44C472.784 55.6 472.864 55.7867 472.864 56ZM471.376 58.096H472.656V66H471.376V58.096ZM475.376 54.4H476.656V66H475.376V54.4ZM480.016 66.192C479.717 66.192 479.482 66.096 479.312 65.904C479.141 65.712 479.056 65.4933 479.056 65.248C479.056 64.992 479.141 64.7733 479.312 64.592C479.482 64.4 479.717 64.304 480.016 64.304C480.325 64.304 480.56 64.4 480.72 64.592C480.89 64.7733 480.976 64.992 480.976 65.248C480.976 65.4933 480.89 65.712 480.72 65.904C480.56 66.096 480.325 66.192 480.016 66.192ZM485.993 66.192C485.353 66.192 484.798 66.0747 484.329 65.84C483.87 65.6053 483.492 65.296 483.193 64.912C482.894 64.528 482.676 64.0907 482.537 63.6C482.398 63.0987 482.329 62.5813 482.329 62.048C482.329 61.5147 482.398 61.0027 482.537 60.512C482.676 60.0107 482.889 59.568 483.177 59.184C483.476 58.8 483.854 58.4907 484.313 58.256C484.772 58.0213 485.321 57.904 485.961 57.904C486.633 57.904 487.182 58.016 487.609 58.24C488.036 58.464 488.398 58.7627 488.697 59.136L487.897 59.888C487.641 59.6107 487.369 59.3973 487.081 59.248C486.804 59.088 486.441 59.008 485.993 59.008C485.289 59.008 484.718 59.28 484.281 59.824C483.854 60.3573 483.641 61.0987 483.641 62.048C483.641 62.5173 483.7 62.9387 483.817 63.312C483.934 63.6853 484.1 64.0053 484.313 64.272C484.526 64.5387 484.777 64.7413 485.065 64.88C485.353 65.0187 485.673 65.088 486.025 65.088C486.452 65.088 486.82 65.0133 487.129 64.864C487.438 64.704 487.726 64.4747 487.993 64.176L488.761 64.944C488.452 65.3173 488.073 65.6213 487.625 65.856C487.177 66.08 486.633 66.192 485.993 66.192ZM493.589 66.192C492.96 66.192 492.405 66.0853 491.925 65.872C491.456 65.648 491.061 65.3493 490.741 64.976C490.432 64.6027 490.197 64.1653 490.037 63.664C489.888 63.1627 489.813 62.624 489.813 62.048C489.813 61.472 489.888 60.9333 490.037 60.432C490.197 59.9307 490.432 59.4933 490.741 59.12C491.061 58.7467 491.456 58.4533 491.925 58.24C492.405 58.016 492.96 57.904 493.589 57.904C494.219 57.904 494.763 58.016 495.221 58.24C495.691 58.4533 496.08 58.7467 496.389 59.12C496.699 59.4933 496.928 59.9307 497.077 60.432C497.237 60.9333 497.317 61.472 497.317 62.048C497.317 62.624 497.237 63.1627 497.077 63.664C496.928 64.1653 496.699 64.6027 496.389 64.976C496.08 65.3493 495.691 65.648 495.221 65.872C494.763 66.0853 494.219 66.192 493.589 66.192ZM491.125 62.048C491.125 62.5067 491.173 62.928 491.269 63.312C491.376 63.6853 491.531 64.0107 491.733 64.288C491.936 64.5547 492.192 64.7627 492.501 64.912C492.811 65.0613 493.173 65.136 493.589 65.136C493.995 65.136 494.347 65.0613 494.645 64.912C494.955 64.7627 495.205 64.5547 495.397 64.288C495.6 64.0107 495.749 63.6853 495.845 63.312C495.952 62.928 496.005 62.5067 496.005 62.048C496.005 61.5893 495.952 61.1733 495.845 60.8C495.749 60.416 495.6 60.0907 495.397 59.824C495.205 59.5467 494.955 59.3333 494.645 59.184C494.347 59.0347 493.995 58.96 493.589 58.96C493.173 58.96 492.811 59.0347 492.501 59.184C492.192 59.3333 491.936 59.5467 491.733 59.824C491.531 60.0907 491.376 60.416 491.269 60.8C491.173 61.1733 491.125 61.5893 491.125 62.048ZM499.625 66.192C499.326 66.192 499.092 66.096 498.921 65.904C498.75 65.712 498.665 65.4933 498.665 65.248C498.665 64.992 498.75 64.7733 498.921 64.592C499.092 64.4 499.326 64.304 499.625 64.304C499.934 64.304 500.169 64.4 500.329 64.592C500.5 64.7733 500.585 64.992 500.585 65.248C500.585 65.4933 500.5 65.712 500.329 65.904C500.169 66.096 499.934 66.192 499.625 66.192ZM505.549 66.192C505.111 66.192 504.717 66.1333 504.365 66.016C504.013 65.8987 503.709 65.7173 503.453 65.472C503.207 65.2267 503.015 64.912 502.877 64.528C502.738 64.144 502.669 63.6853 502.669 63.152V58.096H503.949V62.912C503.949 63.7227 504.103 64.2987 504.413 64.64C504.733 64.9707 505.197 65.136 505.805 65.136C506.381 65.136 506.834 64.928 507.165 64.512C507.506 64.096 507.677 63.488 507.677 62.688V58.096H508.957V66H507.741V64.752H507.645C507.453 65.168 507.186 65.5147 506.845 65.792C506.514 66.0587 506.082 66.192 505.549 66.192ZM512.953 66H511.673V54.4H512.953V62.256H513.049L516.665 58.096H518.217L514.905 61.712L518.345 66H516.745L514.025 62.544L512.953 63.776V66ZM520.766 66.192C520.467 66.192 520.232 66.096 520.062 65.904C519.891 65.712 519.806 65.4933 519.806 65.248C519.806 64.992 519.891 64.7733 520.062 64.592C520.232 64.4 520.467 64.304 520.766 64.304C521.075 64.304 521.31 64.4 521.47 64.592C521.64 64.7733 521.726 64.992 521.726 65.248C521.726 65.4933 521.64 65.712 521.47 65.904C521.31 66.096 521.075 66.192 520.766 66.192Z" fill="black" fill-opacity="0.76"/>
<rect width="16" height="16" transform="translate(0 72)" fill="white" fill-opacity="0.01"/>
<rect width="16" height="16" transform="translate(0 72)" fill="white" fill-opacity="0.01"/>
</g>
<defs>
<clipPath id="clip0_14516_406270">
<path d="M0 12C0 5.37258 5.37258 0 12 0H788C794.627 0 800 5.37258 800 12V76C800 82.6274 794.627 88 788 88H12C5.37257 88 0 82.6274 0 76V12Z" fill="white"/>
</clipPath>
<clipPath id="clip1_14516_406270">
<rect width="21" height="21" fill="white" transform="translate(21.5 21.5)"/>
</clipPath>
</defs>
</svg>
