<svg width="1024" height="88" viewBox="0 0 1024 88" fill="none" xmlns="http://www.w3.org/2000/svg">
<g clip-path="url(#clip0_14516_406751)">
<rect width="1024" height="88" fill="#FFD2D1"/>
<path d="M16 24C16 19.5817 19.5817 16 24 16H40C44.4183 16 48 19.5817 48 24V40C48 44.4183 44.4183 48 40 48H24C19.5817 48 16 44.4183 16 40V24Z" fill="#CC0300"/>
<rect x="16" y="16" width="32" height="32" rx="16" fill="white" fill-opacity="0.01"/>
<g clip-path="url(#clip1_14516_406751)">
<path d="M32 42.1719C29.9882 42.1719 28.0216 41.5753 26.3488 40.4576C24.6761 39.3399 23.3723 37.7513 22.6024 35.8926C21.8325 34.0339 21.6311 31.9887 22.0236 30.0156C22.4161 28.0424 23.3848 26.23 24.8074 24.8074C26.23 23.3848 28.0424 22.4161 30.0156 22.0236C31.9887 21.6311 34.0339 21.8325 35.8926 22.6024C37.7513 23.3723 39.3399 24.6761 40.4576 26.3488C41.5753 28.0216 42.1719 29.9882 42.1719 32C42.1684 34.6967 41.0956 37.2819 39.1888 39.1888C37.2819 41.0956 34.6967 42.1684 32 42.1719ZM32 23.7969C30.3776 23.7969 28.7916 24.278 27.4426 25.1794C26.0936 26.0807 25.0422 27.3619 24.4213 28.8608C23.8004 30.3597 23.638 32.0091 23.9545 33.6004C24.271 35.1916 25.0523 36.6533 26.1995 37.8005C27.3467 38.9477 28.8084 39.729 30.3997 40.0455C31.9909 40.362 33.6403 40.1996 35.1392 39.5787C36.6381 38.9578 37.9193 37.9064 38.8207 36.5574C39.722 35.2084 40.2031 33.6224 40.2031 32C40.2031 30.9228 39.991 29.8561 39.5787 28.8608C39.1665 27.8656 38.5622 26.9613 37.8005 26.1995C37.0388 25.4378 36.1345 24.8336 35.1392 24.4213C34.144 24.0091 33.0773 23.7969 32 23.7969Z" fill="white" fill-opacity="0.9"/>
<path d="M30.5825 26.9469C31.5096 26.6869 32.4904 26.6869 33.4175 26.9469L32.6956 33.3125H31.3044L30.5825 26.9469ZM33.3125 35.9375C33.3125 36.1971 33.2355 36.4508 33.0913 36.6667C32.9471 36.8825 32.7421 37.0508 32.5023 37.1501C32.2624 37.2494 31.9985 37.2754 31.7439 37.2248C31.4893 37.1741 31.2555 37.0491 31.0719 36.8656C30.8884 36.682 30.7634 36.4482 30.7127 36.1936C30.6621 35.939 30.6881 35.6751 30.7874 35.4352C30.8868 35.1954 31.055 34.9904 31.2708 34.8462C31.4867 34.702 31.7404 34.625 32 34.625C32.3481 34.625 32.6819 34.7633 32.9281 35.0094C33.1742 35.2556 33.3125 35.5894 33.3125 35.9375Z" fill="white" fill-opacity="0.9"/>
</g>
<path d="M67.32 37.24C66.1867 37.24 65.2 37.0467 64.36 36.66C63.5333 36.2733 62.8467 35.7667 62.3 35.14C61.7667 34.5 61.3667 33.7733 61.1 32.96C60.8467 32.1467 60.72 31.3133 60.72 30.46C60.72 29.62 60.84 28.8 61.08 28C61.3333 27.1867 61.72 26.4667 62.24 25.84C62.7733 25.2133 63.4467 24.7133 64.26 24.34C65.0867 23.9533 66.0667 23.76 67.2 23.76C68.2267 23.76 69.12 23.9467 69.88 24.32C70.6533 24.68 71.3133 25.1467 71.86 25.72L69.7 27.7C69.3933 27.3533 69.0133 27.0867 68.56 26.9C68.1067 26.7 67.6467 26.6 67.18 26.6C66.3 26.6 65.58 26.94 65.02 27.62C64.4733 28.3 64.2 29.2533 64.2 30.48C64.2 31.08 64.28 31.6267 64.44 32.12C64.6 32.6 64.82 33.0133 65.1 33.36C65.38 33.6933 65.7067 33.9533 66.08 34.14C66.4667 34.3133 66.8733 34.4 67.3 34.4C67.7667 34.4 68.22 34.3067 68.66 34.12C69.1133 33.9333 69.4933 33.6667 69.8 33.32L71.94 35.3C71.4067 35.8733 70.7533 36.34 69.98 36.7C69.22 37.06 68.3333 37.24 67.32 37.24ZM77.5736 37.24C76.7203 37.24 75.9669 37.1067 75.3136 36.84C74.6736 36.56 74.1403 36.1867 73.7136 35.72C73.2869 35.24 72.9603 34.6867 72.7336 34.06C72.5203 33.4333 72.4136 32.7667 72.4136 32.06C72.4136 31.3533 72.5203 30.6867 72.7336 30.06C72.9603 29.4333 73.2869 28.8867 73.7136 28.42C74.1403 27.94 74.6736 27.5667 75.3136 27.3C75.9669 27.02 76.7203 26.88 77.5736 26.88C78.4269 26.88 79.1736 27.02 79.8136 27.3C80.4536 27.5667 80.9869 27.94 81.4136 28.42C81.8403 28.8867 82.1603 29.4333 82.3736 30.06C82.6003 30.6867 82.7136 31.3533 82.7136 32.06C82.7136 32.7667 82.6003 33.4333 82.3736 34.06C82.1603 34.6867 81.8403 35.24 81.4136 35.72C80.9869 36.1867 80.4536 36.56 79.8136 36.84C79.1736 37.1067 78.4269 37.24 77.5736 37.24ZM75.6536 32.06C75.6536 32.9133 75.8336 33.5667 76.1936 34.02C76.5536 34.4733 77.0136 34.7 77.5736 34.7C78.1336 34.7 78.5869 34.4733 78.9336 34.02C79.2936 33.5667 79.4736 32.9133 79.4736 32.06C79.4736 31.2067 79.2936 30.5533 78.9336 30.1C78.5869 29.6467 78.1336 29.42 77.5736 29.42C77.0136 29.42 76.5536 29.6467 76.1936 30.1C75.8336 30.5533 75.6536 31.2067 75.6536 32.06ZM84.2631 27.12H87.2431V28.76H87.3631C87.5631 28.2133 87.9231 27.7667 88.4431 27.42C88.9765 27.06 89.5831 26.88 90.2631 26.88C90.9165 26.88 91.4631 26.9733 91.9031 27.16C92.3565 27.3333 92.7165 27.5933 92.9831 27.94C93.2498 28.2867 93.4365 28.72 93.5431 29.24C93.6631 29.7467 93.7231 30.3267 93.7231 30.98V37H90.5431V31.62C90.5431 30.9933 90.4365 30.5 90.2231 30.14C90.0098 29.7667 89.6098 29.58 89.0231 29.58C88.4631 29.58 88.0565 29.7533 87.8031 30.1C87.5631 30.4467 87.4431 30.9533 87.4431 31.62V37H84.2631V27.12ZM95.7475 27.12H98.7275V28.76H98.8475C99.0475 28.2133 99.4075 27.7667 99.9275 27.42C100.461 27.06 101.068 26.88 101.748 26.88C102.401 26.88 102.948 26.9733 103.388 27.16C103.841 27.3333 104.201 27.5933 104.468 27.94C104.734 28.2867 104.921 28.72 105.028 29.24C105.148 29.7467 105.208 30.3267 105.208 30.98V37H102.028V31.62C102.028 30.9933 101.921 30.5 101.708 30.14C101.494 29.7667 101.094 29.58 100.508 29.58C99.9475 29.58 99.5408 29.7533 99.2875 30.1C99.0475 30.4467 98.9275 30.9533 98.9275 31.62V37H95.7475V27.12ZM111.792 37.24C110.885 37.24 110.105 37.0933 109.452 36.8C108.812 36.5067 108.285 36.12 107.872 35.64C107.459 35.16 107.152 34.6133 106.952 34C106.752 33.3733 106.652 32.7267 106.652 32.06C106.652 31.4067 106.739 30.7667 106.912 30.14C107.099 29.5133 107.385 28.96 107.772 28.48C108.172 28 108.685 27.6133 109.312 27.32C109.939 27.0267 110.705 26.88 111.612 26.88C112.519 26.88 113.285 27.0267 113.912 27.32C114.539 27.6 115.039 27.98 115.412 28.46C115.799 28.9267 116.072 29.4667 116.232 30.08C116.405 30.6933 116.492 31.3267 116.492 31.98C116.492 32.1267 116.479 32.32 116.452 32.56C116.425 32.7867 116.392 32.96 116.352 33.08H109.872C109.925 33.3733 110.025 33.62 110.172 33.82C110.332 34.02 110.512 34.18 110.712 34.3C110.912 34.42 111.119 34.5067 111.332 34.56C111.559 34.6133 111.772 34.64 111.972 34.64C112.439 34.64 112.839 34.5667 113.172 34.42C113.519 34.2733 113.785 34.08 113.972 33.84L115.712 35.66C115.392 36.1267 114.885 36.5067 114.192 36.8C113.499 37.0933 112.699 37.24 111.792 37.24ZM111.612 29.24C111.185 29.24 110.805 29.3733 110.472 29.64C110.139 29.8933 109.919 30.34 109.812 30.98H113.372C113.279 30.34 113.065 29.8933 112.732 29.64C112.399 29.3733 112.025 29.24 111.612 29.24ZM122.453 37.24C121.586 37.24 120.839 37.1 120.213 36.82C119.599 36.5267 119.086 36.1467 118.673 35.68C118.273 35.2 117.973 34.6467 117.773 34.02C117.586 33.3933 117.493 32.74 117.493 32.06C117.493 31.38 117.586 30.7267 117.773 30.1C117.959 29.4733 118.253 28.9267 118.653 28.46C119.053 27.98 119.559 27.6 120.173 27.32C120.786 27.0267 121.519 26.88 122.373 26.88C123.173 26.88 123.879 27.0333 124.493 27.34C125.106 27.6467 125.599 28.02 125.973 28.46L123.833 30.4C123.659 30.1733 123.459 30 123.233 29.88C123.006 29.7467 122.733 29.68 122.413 29.68C121.853 29.68 121.433 29.8867 121.153 30.3C120.873 30.7133 120.733 31.3 120.733 32.06C120.733 32.82 120.879 33.4067 121.173 33.82C121.466 34.2333 121.893 34.44 122.453 34.44C122.759 34.44 123.039 34.3733 123.293 34.24C123.559 34.1067 123.766 33.9267 123.913 33.7L126.053 35.64C125.693 36.08 125.199 36.46 124.573 36.78C123.959 37.0867 123.253 37.24 122.453 37.24ZM131.728 37.22C130.475 37.22 129.568 36.9067 129.008 36.28C128.461 35.6533 128.188 34.6533 128.188 33.28V29.66H126.768V27.12H128.188V24.44H131.328V27.12H134.248V29.66H131.328V33.34C131.328 33.78 131.401 34.1 131.548 34.3C131.708 34.5 131.968 34.6 132.328 34.6C132.568 34.6 132.795 34.5533 133.008 34.46C133.235 34.3533 133.421 34.2267 133.568 34.08L134.588 36.24C133.935 36.8933 132.981 37.22 131.728 37.22ZM139.343 24.28C139.343 24.7333 139.189 25.14 138.883 25.5C138.576 25.8467 138.129 26.02 137.543 26.02C136.943 26.02 136.496 25.8467 136.203 25.5C135.909 25.14 135.763 24.7333 135.763 24.28C135.763 23.8267 135.909 23.4267 136.203 23.08C136.496 22.72 136.943 22.54 137.543 22.54C138.129 22.54 138.576 22.72 138.883 23.08C139.189 23.4267 139.343 23.8267 139.343 24.28ZM135.943 27.12H139.123V37H135.943V27.12ZM145.816 37.24C144.962 37.24 144.209 37.1067 143.556 36.84C142.916 36.56 142.382 36.1867 141.956 35.72C141.529 35.24 141.202 34.6867 140.976 34.06C140.762 33.4333 140.656 32.7667 140.656 32.06C140.656 31.3533 140.762 30.6867 140.976 30.06C141.202 29.4333 141.529 28.8867 141.956 28.42C142.382 27.94 142.916 27.5667 143.556 27.3C144.209 27.02 144.962 26.88 145.816 26.88C146.669 26.88 147.416 27.02 148.056 27.3C148.696 27.5667 149.229 27.94 149.656 28.42C150.082 28.8867 150.402 29.4333 150.616 30.06C150.842 30.6867 150.956 31.3533 150.956 32.06C150.956 32.7667 150.842 33.4333 150.616 34.06C150.402 34.6867 150.082 35.24 149.656 35.72C149.229 36.1867 148.696 36.56 148.056 36.84C147.416 37.1067 146.669 37.24 145.816 37.24ZM143.896 32.06C143.896 32.9133 144.076 33.5667 144.436 34.02C144.796 34.4733 145.256 34.7 145.816 34.7C146.376 34.7 146.829 34.4733 147.176 34.02C147.536 33.5667 147.716 32.9133 147.716 32.06C147.716 31.2067 147.536 30.5533 147.176 30.1C146.829 29.6467 146.376 29.42 145.816 29.42C145.256 29.42 144.796 29.6467 144.436 30.1C144.076 30.5533 143.896 31.2067 143.896 32.06ZM152.505 27.12H155.485V28.76H155.605C155.805 28.2133 156.165 27.7667 156.685 27.42C157.219 27.06 157.825 26.88 158.505 26.88C159.159 26.88 159.705 26.9733 160.145 27.16C160.599 27.3333 160.959 27.5933 161.225 27.94C161.492 28.2867 161.679 28.72 161.785 29.24C161.905 29.7467 161.965 30.3267 161.965 30.98V37H158.785V31.62C158.785 30.9933 158.679 30.5 158.465 30.14C158.252 29.7667 157.852 29.58 157.265 29.58C156.705 29.58 156.299 29.7533 156.045 30.1C155.805 30.4467 155.685 30.9533 155.685 31.62V37H152.505V27.12ZM172.194 24.28C172.194 24.7333 172.041 25.14 171.734 25.5C171.428 25.8467 170.981 26.02 170.394 26.02C169.794 26.02 169.348 25.8467 169.054 25.5C168.761 25.14 168.614 24.7333 168.614 24.28C168.614 23.8267 168.761 23.4267 169.054 23.08C169.348 22.72 169.794 22.54 170.394 22.54C170.981 22.54 171.428 22.72 171.734 23.08C172.041 23.4267 172.194 23.8267 172.194 24.28ZM168.794 27.12H171.974V37H168.794V27.12ZM174.087 27.12H177.067V28.76H177.187C177.387 28.2133 177.747 27.7667 178.267 27.42C178.801 27.06 179.407 26.88 180.087 26.88C180.741 26.88 181.287 26.9733 181.727 27.16C182.181 27.3333 182.541 27.5933 182.807 27.94C183.074 28.2867 183.261 28.72 183.367 29.24C183.487 29.7467 183.547 30.3267 183.547 30.98V37H180.367V31.62C180.367 30.9933 180.261 30.5 180.047 30.14C179.834 29.7667 179.434 29.58 178.847 29.58C178.287 29.58 177.881 29.7533 177.627 30.1C177.387 30.4467 177.267 30.9533 177.267 31.62V37H174.087V27.12ZM189.912 37.22C188.658 37.22 187.752 36.9067 187.192 36.28C186.645 35.6533 186.372 34.6533 186.372 33.28V29.66H184.952V27.12H186.372V24.44H189.512V27.12H192.432V29.66H189.512V33.34C189.512 33.78 189.585 34.1 189.732 34.3C189.892 34.5 190.152 34.6 190.512 34.6C190.752 34.6 190.978 34.5533 191.192 34.46C191.418 34.3533 191.605 34.2267 191.752 34.08L192.772 36.24C192.118 36.8933 191.165 37.22 189.912 37.22ZM198.686 37.24C197.78 37.24 197 37.0933 196.346 36.8C195.706 36.5067 195.18 36.12 194.766 35.64C194.353 35.16 194.046 34.6133 193.846 34C193.646 33.3733 193.546 32.7267 193.546 32.06C193.546 31.4067 193.633 30.7667 193.806 30.14C193.993 29.5133 194.28 28.96 194.666 28.48C195.066 28 195.58 27.6133 196.206 27.32C196.833 27.0267 197.6 26.88 198.506 26.88C199.413 26.88 200.18 27.0267 200.806 27.32C201.433 27.6 201.933 27.98 202.306 28.46C202.693 28.9267 202.966 29.4667 203.126 30.08C203.3 30.6933 203.386 31.3267 203.386 31.98C203.386 32.1267 203.373 32.32 203.346 32.56C203.32 32.7867 203.286 32.96 203.246 33.08H196.766C196.82 33.3733 196.92 33.62 197.066 33.82C197.226 34.02 197.406 34.18 197.606 34.3C197.806 34.42 198.013 34.5067 198.226 34.56C198.453 34.6133 198.666 34.64 198.866 34.64C199.333 34.64 199.733 34.5667 200.066 34.42C200.413 34.2733 200.68 34.08 200.866 33.84L202.606 35.66C202.286 36.1267 201.78 36.5067 201.086 36.8C200.393 37.0933 199.593 37.24 198.686 37.24ZM198.506 29.24C198.08 29.24 197.7 29.3733 197.366 29.64C197.033 29.8933 196.813 30.34 196.706 30.98H200.266C200.173 30.34 199.96 29.8933 199.626 29.64C199.293 29.3733 198.92 29.24 198.506 29.24ZM204.927 27.12H207.907V28.82H208.027C208.227 28.2067 208.541 27.7333 208.967 27.4C209.407 27.0533 209.961 26.88 210.627 26.88C211.147 26.88 211.614 26.9467 212.027 27.08L211.227 30C211.081 29.9067 210.907 29.84 210.707 29.8C210.521 29.7467 210.334 29.72 210.147 29.72C209.547 29.72 209.054 29.8933 208.667 30.24C208.294 30.5733 208.107 31.1067 208.107 31.84V37H204.927V27.12ZM213.111 27.12H216.091V28.82H216.211C216.411 28.2067 216.724 27.7333 217.151 27.4C217.591 27.0533 218.144 26.88 218.811 26.88C219.331 26.88 219.797 26.9467 220.211 27.08L219.411 30C219.264 29.9067 219.091 29.84 218.891 29.8C218.704 29.7467 218.517 29.72 218.331 29.72C217.731 29.72 217.237 29.8933 216.851 30.24C216.477 30.5733 216.291 31.1067 216.291 31.84V37H213.111V27.12ZM224.554 37.24C223.914 37.24 223.374 37.1533 222.934 36.98C222.508 36.7933 222.161 36.5267 221.894 36.18C221.641 35.8333 221.454 35.4067 221.334 34.9C221.228 34.3933 221.174 33.8067 221.174 33.14V27.12H224.354V32.5C224.354 33.14 224.454 33.64 224.654 34C224.854 34.36 225.234 34.54 225.794 34.54C226.328 34.54 226.708 34.3667 226.934 34.02C227.174 33.6733 227.294 33.1667 227.294 32.5V27.12H230.474V37H227.494V35.36H227.374C227.174 35.9067 226.821 36.36 226.314 36.72C225.808 37.0667 225.221 37.24 224.554 37.24ZM232.603 27.12H235.623V28.88H235.743C235.996 28.24 236.383 27.7467 236.903 27.4C237.423 27.0533 238.056 26.88 238.803 26.88C239.39 26.88 239.936 27.0067 240.443 27.26C240.963 27.5 241.41 27.84 241.783 28.28C242.17 28.72 242.47 29.2533 242.683 29.88C242.896 30.5067 243.003 31.2 243.003 31.96C243.003 32.7467 242.896 33.4667 242.683 34.12C242.47 34.76 242.17 35.3133 241.783 35.78C241.41 36.2467 240.963 36.6067 240.443 36.86C239.936 37.1133 239.39 37.24 238.803 37.24C238.056 37.24 237.436 37.0733 236.943 36.74C236.463 36.3933 236.116 35.94 235.903 35.38H235.783V40.7H232.603V27.12ZM237.763 34.5C238.403 34.5 238.89 34.2667 239.223 33.8C239.57 33.32 239.743 32.74 239.743 32.06C239.743 31.38 239.57 30.8067 239.223 30.34C238.89 29.86 238.403 29.62 237.763 29.62C237.11 29.62 236.616 29.86 236.283 30.34C235.95 30.8067 235.783 31.38 235.783 32.06C235.783 32.74 235.95 33.32 236.283 33.8C236.616 34.2667 237.11 34.5 237.763 34.5ZM248.916 37.22C247.662 37.22 246.756 36.9067 246.196 36.28C245.649 35.6533 245.376 34.6533 245.376 33.28V29.66H243.956V27.12H245.376V24.44H248.516V27.12H251.436V29.66H248.516V33.34C248.516 33.78 248.589 34.1 248.736 34.3C248.896 34.5 249.156 34.6 249.516 34.6C249.756 34.6 249.982 34.5533 250.196 34.46C250.422 34.3533 250.609 34.2267 250.756 34.08L251.776 36.24C251.122 36.8933 250.169 37.22 248.916 37.22ZM257.69 37.24C256.784 37.24 256.004 37.0933 255.35 36.8C254.71 36.5067 254.184 36.12 253.77 35.64C253.357 35.16 253.05 34.6133 252.85 34C252.65 33.3733 252.55 32.7267 252.55 32.06C252.55 31.4067 252.637 30.7667 252.81 30.14C252.997 29.5133 253.284 28.96 253.67 28.48C254.07 28 254.584 27.6133 255.21 27.32C255.837 27.0267 256.604 26.88 257.51 26.88C258.417 26.88 259.184 27.0267 259.81 27.32C260.437 27.6 260.937 27.98 261.31 28.46C261.697 28.9267 261.97 29.4667 262.13 30.08C262.304 30.6933 262.39 31.3267 262.39 31.98C262.39 32.1267 262.377 32.32 262.35 32.56C262.324 32.7867 262.29 32.96 262.25 33.08H255.77C255.824 33.3733 255.924 33.62 256.07 33.82C256.23 34.02 256.41 34.18 256.61 34.3C256.81 34.42 257.017 34.5067 257.23 34.56C257.457 34.6133 257.67 34.64 257.87 34.64C258.337 34.64 258.737 34.5667 259.07 34.42C259.417 34.2733 259.684 34.08 259.87 33.84L261.61 35.66C261.29 36.1267 260.784 36.5067 260.09 36.8C259.397 37.0933 258.597 37.24 257.69 37.24ZM257.51 29.24C257.084 29.24 256.704 29.3733 256.37 29.64C256.037 29.8933 255.817 30.34 255.71 30.98H259.27C259.177 30.34 258.964 29.8933 258.63 29.64C258.297 29.3733 257.924 29.24 257.51 29.24ZM267.591 37.24C266.991 37.24 266.438 37.12 265.931 36.88C265.424 36.6267 264.978 36.28 264.591 35.84C264.218 35.4 263.924 34.8667 263.711 34.24C263.498 33.6133 263.391 32.92 263.391 32.16C263.391 31.3733 263.498 30.66 263.711 30.02C263.924 29.3667 264.218 28.8067 264.591 28.34C264.978 27.8733 265.424 27.5133 265.931 27.26C266.438 27.0067 266.991 26.88 267.591 26.88C268.324 26.88 268.931 27.0533 269.411 27.4C269.904 27.7333 270.258 28.18 270.471 28.74H270.591V22.5H273.771V37H270.751V35.24H270.631C270.391 35.88 270.004 36.3733 269.471 36.72C268.951 37.0667 268.324 37.24 267.591 37.24ZM268.611 34.5C269.278 34.5 269.771 34.2667 270.091 33.8C270.424 33.32 270.591 32.74 270.591 32.06C270.591 31.38 270.424 30.8067 270.091 30.34C269.771 29.86 269.278 29.62 268.611 29.62C267.971 29.62 267.484 29.86 267.151 30.34C266.818 30.8067 266.651 31.38 266.651 32.06C266.651 32.74 266.818 33.32 267.151 33.8C267.484 34.2667 267.971 34.5 268.611 34.5Z" fill="black" fill-opacity="0.76"/>
<path d="M69.6 66L67.408 57.024H67.312L65.136 66H63.424L60.512 55.6H61.936L64.24 64.48H64.336L66.496 55.6H68.288L70.448 64.528H70.544L72.848 55.6H74.224L71.312 66H69.6ZM78.7136 66.192C78.1483 66.192 77.631 66.096 77.1616 65.904C76.703 65.712 76.3083 65.44 75.9776 65.088C75.6576 64.7253 75.407 64.288 75.2256 63.776C75.055 63.264 74.9696 62.688 74.9696 62.048C74.9696 61.376 75.0603 60.784 75.2416 60.272C75.423 59.7493 75.6736 59.3173 75.9936 58.976C76.3136 58.624 76.6923 58.3573 77.1296 58.176C77.5776 57.9947 78.0683 57.904 78.6016 57.904C79.135 57.904 79.6256 57.9893 80.0736 58.16C80.5216 58.3307 80.9056 58.5867 81.2256 58.928C81.5456 59.2587 81.7963 59.68 81.9776 60.192C82.159 60.6933 82.2496 61.28 82.2496 61.952C82.2496 62.0373 82.2443 62.1227 82.2336 62.208C82.2336 62.2933 82.2283 62.3627 82.2176 62.416H76.2496C76.2496 62.7893 76.3136 63.1413 76.4416 63.472C76.5803 63.792 76.7616 64.0747 76.9856 64.32C77.2203 64.5547 77.487 64.7413 77.7856 64.88C78.095 65.0187 78.4256 65.088 78.7776 65.088C79.3536 65.088 79.823 64.976 80.1856 64.752C80.559 64.528 80.8683 64.256 81.1136 63.936L81.8816 64.72C81.5403 65.168 81.1136 65.5253 80.6016 65.792C80.1003 66.0587 79.471 66.192 78.7136 66.192ZM78.6016 58.96C78.2283 58.96 77.8976 59.0293 77.6096 59.168C77.3216 59.3067 77.0816 59.488 76.8896 59.712C76.6976 59.936 76.5483 60.192 76.4416 60.48C76.3456 60.768 76.2923 61.056 76.2816 61.344H80.9056C80.895 61.056 80.8363 60.768 80.7296 60.48C80.6336 60.192 80.4896 59.936 80.2976 59.712C80.1056 59.488 79.8656 59.3067 79.5776 59.168C79.3003 59.0293 78.975 58.96 78.6016 58.96ZM89.9009 66.192C89.5382 66.192 89.2022 66.1333 88.8929 66.016C88.5942 65.8987 88.3329 65.7333 88.1089 65.52C87.8849 65.3067 87.7089 65.056 87.5809 64.768C87.4635 64.4693 87.4049 64.144 87.4049 63.792C87.4049 63.1093 87.6502 62.56 88.1409 62.144C88.6315 61.728 89.3302 61.4933 90.2369 61.44L92.3169 61.312V60.752C92.3169 60.144 92.1675 59.7067 91.8689 59.44C91.5809 59.1627 91.1649 59.024 90.6209 59.024C90.1622 59.024 89.7675 59.1093 89.4369 59.28C89.1062 59.4507 88.8502 59.6373 88.6689 59.84L87.9009 59.072C88.1782 58.7307 88.5515 58.4533 89.0209 58.24C89.5009 58.016 90.0449 57.904 90.6529 57.904C91.1969 57.904 91.6555 57.9787 92.0289 58.128C92.4022 58.2667 92.7009 58.4587 92.9249 58.704C93.1595 58.9493 93.3249 59.2373 93.4209 59.568C93.5275 59.8987 93.5809 60.2507 93.5809 60.624V66H92.3809V64.656H92.2849C92.0715 65.136 91.7729 65.5147 91.3889 65.792C91.0049 66.0587 90.5089 66.192 89.9009 66.192ZM90.0929 65.104C90.7542 65.104 91.2875 64.912 91.6929 64.528C92.1089 64.1333 92.3169 63.6107 92.3169 62.96V62.272L90.3009 62.416C89.2342 62.5013 88.7009 62.9493 88.7009 63.76C88.7009 64.1653 88.8289 64.4907 89.0849 64.736C89.3515 64.9813 89.6875 65.104 90.0929 65.104ZM96.1569 58.096H97.3729V59.376H97.4689C97.6395 58.96 97.8849 58.6133 98.2049 58.336C98.5249 58.048 98.9249 57.904 99.4049 57.904C99.8102 57.904 100.168 57.984 100.477 58.144L100.045 59.296C99.9062 59.2213 99.7569 59.1733 99.5969 59.152C99.4475 59.12 99.2929 59.104 99.1329 59.104C98.6102 59.104 98.1942 59.3173 97.8849 59.744C97.5862 60.16 97.4369 60.6933 97.4369 61.344V66H96.1569V58.096ZM104.823 66.192C104.258 66.192 103.74 66.096 103.271 65.904C102.812 65.712 102.418 65.44 102.087 65.088C101.767 64.7253 101.516 64.288 101.335 63.776C101.164 63.264 101.079 62.688 101.079 62.048C101.079 61.376 101.17 60.784 101.351 60.272C101.532 59.7493 101.783 59.3173 102.103 58.976C102.423 58.624 102.802 58.3573 103.239 58.176C103.687 57.9947 104.178 57.904 104.711 57.904C105.244 57.904 105.735 57.9893 106.183 58.16C106.631 58.3307 107.015 58.5867 107.335 58.928C107.655 59.2587 107.906 59.68 108.087 60.192C108.268 60.6933 108.359 61.28 108.359 61.952C108.359 62.0373 108.354 62.1227 108.343 62.208C108.343 62.2933 108.338 62.3627 108.327 62.416H102.359C102.359 62.7893 102.423 63.1413 102.551 63.472C102.69 63.792 102.871 64.0747 103.095 64.32C103.33 64.5547 103.596 64.7413 103.895 64.88C104.204 65.0187 104.535 65.088 104.887 65.088C105.463 65.088 105.932 64.976 106.295 64.752C106.668 64.528 106.978 64.256 107.223 63.936L107.991 64.72C107.65 65.168 107.223 65.5253 106.711 65.792C106.21 66.0587 105.58 66.192 104.823 66.192ZM104.711 58.96C104.338 58.96 104.007 59.0293 103.719 59.168C103.431 59.3067 103.191 59.488 102.999 59.712C102.807 59.936 102.658 60.192 102.551 60.48C102.455 60.768 102.402 61.056 102.391 61.344H107.015C107.004 61.056 106.946 60.768 106.839 60.48C106.743 60.192 106.599 59.936 106.407 59.712C106.215 59.488 105.975 59.3067 105.687 59.168C105.41 59.0293 105.084 58.96 104.711 58.96ZM117.354 66.192C116.789 66.192 116.272 66.096 115.802 65.904C115.344 65.712 114.949 65.44 114.618 65.088C114.298 64.7253 114.048 64.288 113.866 63.776C113.696 63.264 113.61 62.688 113.61 62.048C113.61 61.376 113.701 60.784 113.882 60.272C114.064 59.7493 114.314 59.3173 114.634 58.976C114.954 58.624 115.333 58.3573 115.77 58.176C116.218 57.9947 116.709 57.904 117.242 57.904C117.776 57.904 118.266 57.9893 118.714 58.16C119.162 58.3307 119.546 58.5867 119.866 58.928C120.186 59.2587 120.437 59.68 120.618 60.192C120.8 60.6933 120.89 61.28 120.89 61.952C120.89 62.0373 120.885 62.1227 120.874 62.208C120.874 62.2933 120.869 62.3627 120.858 62.416H114.89C114.89 62.7893 114.954 63.1413 115.082 63.472C115.221 63.792 115.402 64.0747 115.626 64.32C115.861 64.5547 116.128 64.7413 116.426 64.88C116.736 65.0187 117.066 65.088 117.418 65.088C117.994 65.088 118.464 64.976 118.826 64.752C119.2 64.528 119.509 64.256 119.754 63.936L120.522 64.72C120.181 65.168 119.754 65.5253 119.242 65.792C118.741 66.0587 118.112 66.192 117.354 66.192ZM117.242 58.96C116.869 58.96 116.538 59.0293 116.25 59.168C115.962 59.3067 115.722 59.488 115.53 59.712C115.338 59.936 115.189 60.192 115.082 60.48C114.986 60.768 114.933 61.056 114.922 61.344H119.546C119.536 61.056 119.477 60.768 119.37 60.48C119.274 60.192 119.13 59.936 118.938 59.712C118.746 59.488 118.506 59.3067 118.218 59.168C117.941 59.0293 117.616 58.96 117.242 58.96ZM124.609 61.984L121.969 58.096H123.505L125.377 61.056H125.441L127.377 58.096H128.753L126.113 61.92L128.881 66H127.345L125.345 62.848H125.281L123.217 66H121.84L124.609 61.984ZM130.766 58.096H131.982V59.712H132.078C132.174 59.4453 132.308 59.2 132.478 58.976C132.66 58.752 132.868 58.56 133.102 58.4C133.348 58.24 133.614 58.1173 133.902 58.032C134.201 57.9467 134.51 57.904 134.83 57.904C135.353 57.904 135.828 58.0107 136.254 58.224C136.692 58.4267 137.065 58.7147 137.374 59.088C137.684 59.4507 137.918 59.888 138.078 60.4C138.249 60.912 138.334 61.4667 138.334 62.064C138.334 62.6613 138.249 63.216 138.078 63.728C137.918 64.2293 137.684 64.6667 137.374 65.04C137.065 65.4027 136.692 65.6853 136.254 65.888C135.828 66.0907 135.353 66.192 134.83 66.192C134.18 66.192 133.62 66.0373 133.15 65.728C132.681 65.4187 132.345 65.024 132.142 64.544H132.046V68.96H130.766V58.096ZM134.51 65.04C134.862 65.04 135.188 64.9813 135.486 64.864C135.796 64.736 136.062 64.5493 136.286 64.304C136.521 64.048 136.702 63.7333 136.83 63.36C136.958 62.9867 137.022 62.5493 137.022 62.048C137.022 61.5467 136.958 61.1093 136.83 60.736C136.702 60.3627 136.521 60.0533 136.286 59.808C136.062 59.552 135.796 59.3653 135.486 59.248C135.188 59.12 134.862 59.056 134.51 59.056C134.169 59.056 133.849 59.12 133.55 59.248C133.252 59.3653 132.99 59.552 132.766 59.808C132.542 60.0533 132.366 60.3627 132.238 60.736C132.11 61.1093 132.046 61.5467 132.046 62.048C132.046 62.5493 132.11 62.9867 132.238 63.36C132.366 63.7333 132.542 64.048 132.766 64.304C132.99 64.5493 133.252 64.736 133.55 64.864C133.849 64.9813 134.169 65.04 134.51 65.04ZM143.479 66.192C142.914 66.192 142.397 66.096 141.927 65.904C141.469 65.712 141.074 65.44 140.743 65.088C140.423 64.7253 140.173 64.288 139.991 63.776C139.821 63.264 139.735 62.688 139.735 62.048C139.735 61.376 139.826 60.784 140.007 60.272C140.189 59.7493 140.439 59.3173 140.759 58.976C141.079 58.624 141.458 58.3573 141.895 58.176C142.343 57.9947 142.834 57.904 143.367 57.904C143.901 57.904 144.391 57.9893 144.839 58.16C145.287 58.3307 145.671 58.5867 145.991 58.928C146.311 59.2587 146.562 59.68 146.743 60.192C146.925 60.6933 147.015 61.28 147.015 61.952C147.015 62.0373 147.01 62.1227 146.999 62.208C146.999 62.2933 146.994 62.3627 146.983 62.416H141.015C141.015 62.7893 141.079 63.1413 141.207 63.472C141.346 63.792 141.527 64.0747 141.751 64.32C141.986 64.5547 142.253 64.7413 142.551 64.88C142.861 65.0187 143.191 65.088 143.543 65.088C144.119 65.088 144.589 64.976 144.951 64.752C145.325 64.528 145.634 64.256 145.879 63.936L146.647 64.72C146.306 65.168 145.879 65.5253 145.367 65.792C144.866 66.0587 144.237 66.192 143.479 66.192ZM143.367 58.96C142.994 58.96 142.663 59.0293 142.375 59.168C142.087 59.3067 141.847 59.488 141.655 59.712C141.463 59.936 141.314 60.192 141.207 60.48C141.111 60.768 141.058 61.056 141.047 61.344H145.671C145.661 61.056 145.602 60.768 145.495 60.48C145.399 60.192 145.255 59.936 145.063 59.712C144.871 59.488 144.631 59.3067 144.343 59.168C144.066 59.0293 143.741 58.96 143.367 58.96ZM149.079 58.096H150.295V59.376H150.391C150.561 58.96 150.807 58.6133 151.127 58.336C151.447 58.048 151.847 57.904 152.327 57.904C152.732 57.904 153.089 57.984 153.399 58.144L152.967 59.296C152.828 59.2213 152.679 59.1733 152.519 59.152C152.369 59.12 152.215 59.104 152.055 59.104C151.532 59.104 151.116 59.3173 150.807 59.744C150.508 60.16 150.359 60.6933 150.359 61.344V66H149.079V58.096ZM156.536 56C156.536 56.224 156.456 56.416 156.296 56.576C156.146 56.736 155.944 56.816 155.688 56.816C155.421 56.816 155.213 56.736 155.064 56.576C154.914 56.416 154.84 56.224 154.84 56C154.84 55.7867 154.914 55.6 155.064 55.44C155.213 55.2693 155.421 55.184 155.688 55.184C155.944 55.184 156.146 55.2693 156.296 55.44C156.456 55.6 156.536 55.7867 156.536 56ZM155.048 58.096H156.328V66H155.048V58.096ZM162.136 66.192C161.57 66.192 161.053 66.096 160.584 65.904C160.125 65.712 159.73 65.44 159.4 65.088C159.08 64.7253 158.829 64.288 158.648 63.776C158.477 63.264 158.392 62.688 158.392 62.048C158.392 61.376 158.482 60.784 158.664 60.272C158.845 59.7493 159.096 59.3173 159.416 58.976C159.736 58.624 160.114 58.3573 160.552 58.176C161 57.9947 161.49 57.904 162.024 57.904C162.557 57.904 163.048 57.9893 163.496 58.16C163.944 58.3307 164.328 58.5867 164.648 58.928C164.968 59.2587 165.218 59.68 165.4 60.192C165.581 60.6933 165.672 61.28 165.672 61.952C165.672 62.0373 165.666 62.1227 165.656 62.208C165.656 62.2933 165.65 62.3627 165.64 62.416H159.672C159.672 62.7893 159.736 63.1413 159.864 63.472C160.002 63.792 160.184 64.0747 160.408 64.32C160.642 64.5547 160.909 64.7413 161.208 64.88C161.517 65.0187 161.848 65.088 162.2 65.088C162.776 65.088 163.245 64.976 163.608 64.752C163.981 64.528 164.29 64.256 164.536 63.936L165.304 64.72C164.962 65.168 164.536 65.5253 164.024 65.792C163.522 66.0587 162.893 66.192 162.136 66.192ZM162.024 58.96C161.65 58.96 161.32 59.0293 161.032 59.168C160.744 59.3067 160.504 59.488 160.312 59.712C160.12 59.936 159.97 60.192 159.864 60.48C159.768 60.768 159.714 61.056 159.704 61.344H164.328C164.317 61.056 164.258 60.768 164.152 60.48C164.056 60.192 163.912 59.936 163.72 59.712C163.528 59.488 163.288 59.3067 163 59.168C162.722 59.0293 162.397 58.96 162.024 58.96ZM167.735 58.096H168.951V59.344H169.047C169.239 58.928 169.511 58.5867 169.863 58.32C170.215 58.0427 170.663 57.904 171.207 57.904C172.114 57.904 172.828 58.144 173.351 58.624C173.884 59.104 174.151 59.8773 174.151 60.944V66H172.871V61.184C172.871 60.3733 172.706 59.8027 172.375 59.472C172.055 59.1307 171.58 58.96 170.951 58.96C170.343 58.96 169.868 59.168 169.527 59.584C169.186 60 169.015 60.608 169.015 61.408V66H167.735V58.096ZM179.727 66.192C179.087 66.192 178.533 66.0747 178.063 65.84C177.605 65.6053 177.226 65.296 176.927 64.912C176.629 64.528 176.41 64.0907 176.271 63.6C176.133 63.0987 176.063 62.5813 176.063 62.048C176.063 61.5147 176.133 61.0027 176.271 60.512C176.41 60.0107 176.623 59.568 176.911 59.184C177.21 58.8 177.589 58.4907 178.047 58.256C178.506 58.0213 179.055 57.904 179.695 57.904C180.367 57.904 180.917 58.016 181.343 58.24C181.77 58.464 182.133 58.7627 182.431 59.136L181.631 59.888C181.375 59.6107 181.103 59.3973 180.815 59.248C180.538 59.088 180.175 59.008 179.727 59.008C179.023 59.008 178.453 59.28 178.015 59.824C177.589 60.3573 177.375 61.0987 177.375 62.048C177.375 62.5173 177.434 62.9387 177.551 63.312C177.669 63.6853 177.834 64.0053 178.047 64.272C178.261 64.5387 178.511 64.7413 178.799 64.88C179.087 65.0187 179.407 65.088 179.759 65.088C180.186 65.088 180.554 65.0133 180.863 64.864C181.173 64.704 181.461 64.4747 181.727 64.176L182.495 64.944C182.186 65.3173 181.807 65.6213 181.359 65.856C180.911 66.08 180.367 66.192 179.727 66.192ZM185.848 56C185.848 56.224 185.768 56.416 185.608 56.576C185.459 56.736 185.256 56.816 185 56.816C184.733 56.816 184.525 56.736 184.376 56.576C184.227 56.416 184.152 56.224 184.152 56C184.152 55.7867 184.227 55.6 184.376 55.44C184.525 55.2693 184.733 55.184 185 55.184C185.256 55.184 185.459 55.2693 185.608 55.44C185.768 55.6 185.848 55.7867 185.848 56ZM184.36 58.096H185.64V66H184.36V58.096ZM188.36 58.096H189.576V59.344H189.672C189.864 58.928 190.136 58.5867 190.488 58.32C190.84 58.0427 191.288 57.904 191.832 57.904C192.739 57.904 193.453 58.144 193.976 58.624C194.509 59.104 194.776 59.8773 194.776 60.944V66H193.496V61.184C193.496 60.3733 193.331 59.8027 193 59.472C192.68 59.1307 192.205 58.96 191.576 58.96C190.968 58.96 190.493 59.168 190.152 59.584C189.811 60 189.64 60.608 189.64 61.408V66H188.36V58.096ZM200.496 69.152C199.814 69.152 199.222 69.0293 198.72 68.784C198.219 68.5493 197.819 68.256 197.52 67.904L198.368 67.088C198.592 67.3653 198.88 67.584 199.232 67.744C199.595 67.9147 199.995 68 200.432 68C201.115 68 201.648 67.8347 202.032 67.504C202.427 67.1733 202.624 66.592 202.624 65.76V64.224H202.528C202.443 64.4907 202.32 64.7307 202.16 64.944C202 65.1467 201.808 65.3227 201.584 65.472C201.371 65.6107 201.131 65.7227 200.864 65.808C200.608 65.8827 200.347 65.92 200.08 65.92C199.579 65.92 199.12 65.8293 198.704 65.648C198.299 65.4667 197.942 65.2053 197.632 64.864C197.334 64.512 197.099 64.0853 196.928 63.584C196.768 63.0827 196.688 62.5173 196.688 61.888C196.688 61.2693 196.768 60.7147 196.928 60.224C197.099 59.7333 197.334 59.3173 197.632 58.976C197.942 58.6347 198.299 58.3733 198.704 58.192C199.12 58 199.579 57.904 200.08 57.904C200.667 57.904 201.19 58.0587 201.648 58.368C202.118 58.6667 202.432 59.0827 202.592 59.616H202.688V58.096H203.904V65.92C203.904 66.8907 203.611 67.6693 203.024 68.256C202.448 68.8533 201.606 69.152 200.496 69.152ZM200.336 64.768C201.04 64.768 201.595 64.5227 202 64.032C202.416 63.5413 202.624 62.832 202.624 61.904C202.624 60.9653 202.416 60.256 202 59.776C201.595 59.296 201.04 59.056 200.336 59.056C199.622 59.056 199.051 59.296 198.624 59.776C198.208 60.256 198 60.9653 198 61.904C198 62.832 198.208 63.5413 198.624 64.032C199.051 64.5227 199.622 64.768 200.336 64.768ZM211.957 56C211.957 56.224 211.877 56.416 211.717 56.576C211.568 56.736 211.365 56.816 211.109 56.816C210.843 56.816 210.635 56.736 210.485 56.576C210.336 56.416 210.261 56.224 210.261 56C210.261 55.7867 210.336 55.6 210.485 55.44C210.635 55.2693 210.843 55.184 211.109 55.184C211.365 55.184 211.568 55.2693 211.717 55.44C211.877 55.6 211.957 55.7867 211.957 56ZM210.469 58.096H211.749V66H210.469V58.096ZM218.277 63.952C218.277 63.7173 218.224 63.5253 218.117 63.376C218.011 63.216 217.861 63.0827 217.669 62.976C217.488 62.8693 217.28 62.7787 217.045 62.704C216.811 62.6293 216.565 62.5547 216.309 62.48C216.011 62.3947 215.723 62.2933 215.445 62.176C215.179 62.0587 214.939 61.9147 214.725 61.744C214.512 61.5627 214.341 61.3493 214.213 61.104C214.085 60.8587 214.021 60.56 214.021 60.208C214.021 59.8347 214.091 59.504 214.229 59.216C214.368 58.928 214.56 58.688 214.805 58.496C215.051 58.304 215.339 58.16 215.669 58.064C216 57.9573 216.357 57.904 216.741 57.904C217.317 57.904 217.845 58.0107 218.325 58.224C218.805 58.4267 219.2 58.7467 219.509 59.184L218.677 59.952C218.443 59.6747 218.165 59.4453 217.845 59.264C217.536 59.0827 217.168 58.992 216.741 58.992C216.56 58.992 216.379 59.0133 216.197 59.056C216.027 59.0987 215.872 59.168 215.733 59.264C215.595 59.3493 215.483 59.4613 215.397 59.6C215.312 59.7387 215.269 59.904 215.269 60.096C215.269 60.3307 215.323 60.528 215.429 60.688C215.536 60.8373 215.68 60.9653 215.861 61.072C216.053 61.1787 216.267 61.2693 216.501 61.344C216.736 61.4187 216.981 61.4933 217.237 61.568C217.536 61.6533 217.819 61.7547 218.085 61.872C218.363 61.9893 218.608 62.1387 218.821 62.32C219.035 62.4907 219.205 62.6987 219.333 62.944C219.461 63.1893 219.525 63.488 219.525 63.84C219.525 64.256 219.445 64.6133 219.285 64.912C219.136 65.2 218.928 65.44 218.661 65.632C218.395 65.824 218.085 65.9627 217.733 66.048C217.381 66.144 217.008 66.192 216.613 66.192C215.92 66.192 215.328 66.0747 214.837 65.84C214.357 65.6053 213.979 65.3013 213.701 64.928L214.549 64.128C214.795 64.416 215.077 64.6507 215.397 64.832C215.728 65.0133 216.139 65.104 216.629 65.104C216.853 65.104 217.061 65.0827 217.253 65.04C217.456 64.9973 217.632 64.928 217.781 64.832C217.931 64.736 218.048 64.6187 218.133 64.48C218.229 64.3307 218.277 64.1547 218.277 63.952ZM225.543 63.952C225.543 63.7173 225.49 63.5253 225.383 63.376C225.276 63.216 225.127 63.0827 224.935 62.976C224.754 62.8693 224.546 62.7787 224.311 62.704C224.076 62.6293 223.831 62.5547 223.575 62.48C223.276 62.3947 222.988 62.2933 222.711 62.176C222.444 62.0587 222.204 61.9147 221.991 61.744C221.778 61.5627 221.607 61.3493 221.479 61.104C221.351 60.8587 221.287 60.56 221.287 60.208C221.287 59.8347 221.356 59.504 221.495 59.216C221.634 58.928 221.826 58.688 222.071 58.496C222.316 58.304 222.604 58.16 222.935 58.064C223.266 57.9573 223.623 57.904 224.007 57.904C224.583 57.904 225.111 58.0107 225.591 58.224C226.071 58.4267 226.466 58.7467 226.775 59.184L225.943 59.952C225.708 59.6747 225.431 59.4453 225.111 59.264C224.802 59.0827 224.434 58.992 224.007 58.992C223.826 58.992 223.644 59.0133 223.463 59.056C223.292 59.0987 223.138 59.168 222.999 59.264C222.86 59.3493 222.748 59.4613 222.663 59.6C222.578 59.7387 222.535 59.904 222.535 60.096C222.535 60.3307 222.588 60.528 222.695 60.688C222.802 60.8373 222.946 60.9653 223.127 61.072C223.319 61.1787 223.532 61.2693 223.767 61.344C224.002 61.4187 224.247 61.4933 224.503 61.568C224.802 61.6533 225.084 61.7547 225.351 61.872C225.628 61.9893 225.874 62.1387 226.087 62.32C226.3 62.4907 226.471 62.6987 226.599 62.944C226.727 63.1893 226.791 63.488 226.791 63.84C226.791 64.256 226.711 64.6133 226.551 64.912C226.402 65.2 226.194 65.44 225.927 65.632C225.66 65.824 225.351 65.9627 224.999 66.048C224.647 66.144 224.274 66.192 223.879 66.192C223.186 66.192 222.594 66.0747 222.103 65.84C221.623 65.6053 221.244 65.3013 220.967 64.928L221.815 64.128C222.06 64.416 222.343 64.6507 222.663 64.832C222.994 65.0133 223.404 65.104 223.895 65.104C224.119 65.104 224.327 65.0827 224.519 65.04C224.722 64.9973 224.898 64.928 225.047 64.832C225.196 64.736 225.314 64.6187 225.399 64.48C225.495 64.3307 225.543 64.1547 225.543 63.952ZM231.721 66.192C231.283 66.192 230.889 66.1333 230.537 66.016C230.185 65.8987 229.881 65.7173 229.625 65.472C229.379 65.2267 229.187 64.912 229.049 64.528C228.91 64.144 228.841 63.6853 228.841 63.152V58.096H230.121V62.912C230.121 63.7227 230.275 64.2987 230.585 64.64C230.905 64.9707 231.369 65.136 231.977 65.136C232.553 65.136 233.006 64.928 233.337 64.512C233.678 64.096 233.849 63.488 233.849 62.688V58.096H235.129V66H233.913V64.752H233.817C233.625 65.168 233.358 65.5147 233.017 65.792C232.686 66.0587 232.254 66.192 231.721 66.192ZM240.932 66.192C240.367 66.192 239.85 66.096 239.38 65.904C238.922 65.712 238.527 65.44 238.196 65.088C237.876 64.7253 237.626 64.288 237.444 63.776C237.274 63.264 237.188 62.688 237.188 62.048C237.188 61.376 237.279 60.784 237.46 60.272C237.642 59.7493 237.892 59.3173 238.212 58.976C238.532 58.624 238.911 58.3573 239.348 58.176C239.796 57.9947 240.287 57.904 240.82 57.904C241.354 57.904 241.844 57.9893 242.292 58.16C242.74 58.3307 243.124 58.5867 243.444 58.928C243.764 59.2587 244.015 59.68 244.196 60.192C244.378 60.6933 244.468 61.28 244.468 61.952C244.468 62.0373 244.463 62.1227 244.452 62.208C244.452 62.2933 244.447 62.3627 244.436 62.416H238.468C238.468 62.7893 238.532 63.1413 238.66 63.472C238.799 63.792 238.98 64.0747 239.204 64.32C239.439 64.5547 239.706 64.7413 240.004 64.88C240.314 65.0187 240.644 65.088 240.996 65.088C241.572 65.088 242.042 64.976 242.404 64.752C242.778 64.528 243.087 64.256 243.332 63.936L244.1 64.72C243.759 65.168 243.332 65.5253 242.82 65.792C242.319 66.0587 241.69 66.192 240.932 66.192ZM240.82 58.96C240.447 58.96 240.116 59.0293 239.828 59.168C239.54 59.3067 239.3 59.488 239.108 59.712C238.916 59.936 238.767 60.192 238.66 60.48C238.564 60.768 238.511 61.056 238.5 61.344H243.124C243.114 61.056 243.055 60.768 242.948 60.48C242.852 60.192 242.708 59.936 242.516 59.712C242.324 59.488 242.084 59.3067 241.796 59.168C241.519 59.0293 241.194 58.96 240.82 58.96ZM250.34 63.952C250.34 63.7173 250.287 63.5253 250.18 63.376C250.073 63.216 249.924 63.0827 249.732 62.976C249.551 62.8693 249.343 62.7787 249.108 62.704C248.873 62.6293 248.628 62.5547 248.372 62.48C248.073 62.3947 247.785 62.2933 247.508 62.176C247.241 62.0587 247.001 61.9147 246.788 61.744C246.575 61.5627 246.404 61.3493 246.276 61.104C246.148 60.8587 246.084 60.56 246.084 60.208C246.084 59.8347 246.153 59.504 246.292 59.216C246.431 58.928 246.623 58.688 246.868 58.496C247.113 58.304 247.401 58.16 247.732 58.064C248.063 57.9573 248.42 57.904 248.804 57.904C249.38 57.904 249.908 58.0107 250.388 58.224C250.868 58.4267 251.263 58.7467 251.572 59.184L250.74 59.952C250.505 59.6747 250.228 59.4453 249.908 59.264C249.599 59.0827 249.231 58.992 248.804 58.992C248.623 58.992 248.441 59.0133 248.26 59.056C248.089 59.0987 247.935 59.168 247.796 59.264C247.657 59.3493 247.545 59.4613 247.46 59.6C247.375 59.7387 247.332 59.904 247.332 60.096C247.332 60.3307 247.385 60.528 247.492 60.688C247.599 60.8373 247.743 60.9653 247.924 61.072C248.116 61.1787 248.329 61.2693 248.564 61.344C248.799 61.4187 249.044 61.4933 249.3 61.568C249.599 61.6533 249.881 61.7547 250.148 61.872C250.425 61.9893 250.671 62.1387 250.884 62.32C251.097 62.4907 251.268 62.6987 251.396 62.944C251.524 63.1893 251.588 63.488 251.588 63.84C251.588 64.256 251.508 64.6133 251.348 64.912C251.199 65.2 250.991 65.44 250.724 65.632C250.457 65.824 250.148 65.9627 249.796 66.048C249.444 66.144 249.071 66.192 248.676 66.192C247.983 66.192 247.391 66.0747 246.9 65.84C246.42 65.6053 246.041 65.3013 245.764 64.928L246.612 64.128C246.857 64.416 247.14 64.6507 247.46 64.832C247.791 65.0133 248.201 65.104 248.692 65.104C248.916 65.104 249.124 65.0827 249.316 65.04C249.519 64.9973 249.695 64.928 249.844 64.832C249.993 64.736 250.111 64.6187 250.196 64.48C250.292 64.3307 250.34 64.1547 250.34 63.952ZM259.385 66.192C259.023 66.192 258.687 66.1333 258.377 66.016C258.079 65.8987 257.817 65.7333 257.593 65.52C257.369 65.3067 257.193 65.056 257.065 64.768C256.948 64.4693 256.889 64.144 256.889 63.792C256.889 63.1093 257.135 62.56 257.625 62.144C258.116 61.728 258.815 61.4933 259.721 61.44L261.801 61.312V60.752C261.801 60.144 261.652 59.7067 261.353 59.44C261.065 59.1627 260.649 59.024 260.105 59.024C259.647 59.024 259.252 59.1093 258.921 59.28C258.591 59.4507 258.335 59.6373 258.153 59.84L257.385 59.072C257.663 58.7307 258.036 58.4533 258.505 58.24C258.985 58.016 259.529 57.904 260.137 57.904C260.681 57.904 261.14 57.9787 261.513 58.128C261.887 58.2667 262.185 58.4587 262.409 58.704C262.644 58.9493 262.809 59.2373 262.905 59.568C263.012 59.8987 263.065 60.2507 263.065 60.624V66H261.865V64.656H261.769C261.556 65.136 261.257 65.5147 260.873 65.792C260.489 66.0587 259.993 66.192 259.385 66.192ZM259.577 65.104C260.239 65.104 260.772 64.912 261.177 64.528C261.593 64.1333 261.801 63.6107 261.801 62.96V62.272L259.785 62.416C258.719 62.5013 258.185 62.9493 258.185 63.76C258.185 64.1653 258.313 64.4907 258.569 64.736C258.836 64.9813 259.172 65.104 259.577 65.104ZM268.073 66.192C267.359 66.192 266.836 65.9787 266.505 65.552C266.175 65.1253 266.009 64.5387 266.009 63.792V59.136H264.601V58.096H266.009V55.952H267.273V58.096H269.561V59.136H267.273V63.68C267.273 64.192 267.369 64.5493 267.561 64.752C267.764 64.9547 268.02 65.056 268.329 65.056C268.543 65.056 268.735 65.0187 268.905 64.944C269.076 64.8587 269.236 64.7467 269.385 64.608L269.961 65.504C269.471 65.9627 268.841 66.192 268.073 66.192ZM277.98 66.192C277.265 66.192 276.742 65.9787 276.412 65.552C276.081 65.1253 275.916 64.5387 275.916 63.792V59.136H274.508V58.096H275.916V55.952H277.18V58.096H279.468V59.136H277.18V63.68C277.18 64.192 277.276 64.5493 277.468 64.752C277.67 64.9547 277.926 65.056 278.236 65.056C278.449 65.056 278.641 65.0187 278.812 64.944C278.982 64.8587 279.142 64.7467 279.292 64.608L279.868 65.504C279.377 65.9627 278.748 66.192 277.98 66.192ZM281.61 54.4H282.89V59.216H282.986C283.167 58.8533 283.429 58.544 283.77 58.288C284.111 58.032 284.549 57.904 285.082 57.904C285.989 57.904 286.703 58.144 287.226 58.624C287.759 59.104 288.026 59.8773 288.026 60.944V66H286.746V61.184C286.746 60.3733 286.581 59.8027 286.25 59.472C285.93 59.1307 285.455 58.96 284.826 58.96C284.218 58.96 283.743 59.168 283.402 59.584C283.061 60 282.89 60.608 282.89 61.408V66H281.61V54.4ZM293.604 66.192C293.039 66.192 292.522 66.096 292.052 65.904C291.594 65.712 291.199 65.44 290.868 65.088C290.548 64.7253 290.298 64.288 290.116 63.776C289.946 63.264 289.86 62.688 289.86 62.048C289.86 61.376 289.951 60.784 290.132 60.272C290.314 59.7493 290.564 59.3173 290.884 58.976C291.204 58.624 291.583 58.3573 292.02 58.176C292.468 57.9947 292.959 57.904 293.492 57.904C294.026 57.904 294.516 57.9893 294.964 58.16C295.412 58.3307 295.796 58.5867 296.116 58.928C296.436 59.2587 296.687 59.68 296.868 60.192C297.05 60.6933 297.14 61.28 297.14 61.952C297.14 62.0373 297.135 62.1227 297.124 62.208C297.124 62.2933 297.119 62.3627 297.108 62.416H291.14C291.14 62.7893 291.204 63.1413 291.332 63.472C291.471 63.792 291.652 64.0747 291.876 64.32C292.111 64.5547 292.378 64.7413 292.676 64.88C292.986 65.0187 293.316 65.088 293.668 65.088C294.244 65.088 294.714 64.976 295.076 64.752C295.45 64.528 295.759 64.256 296.004 63.936L296.772 64.72C296.431 65.168 296.004 65.5253 295.492 65.792C294.991 66.0587 294.362 66.192 293.604 66.192ZM293.492 58.96C293.119 58.96 292.788 59.0293 292.5 59.168C292.212 59.3067 291.972 59.488 291.78 59.712C291.588 59.936 291.439 60.192 291.332 60.48C291.236 60.768 291.183 61.056 291.172 61.344H295.796C295.786 61.056 295.727 60.768 295.62 60.48C295.524 60.192 295.38 59.936 295.188 59.712C294.996 59.488 294.756 59.3067 294.468 59.168C294.191 59.0293 293.866 58.96 293.492 58.96ZM303.048 58.096H304.264V59.344H304.36C304.552 58.928 304.818 58.5867 305.16 58.32C305.512 58.0427 305.949 57.904 306.472 57.904C307.101 57.904 307.629 58.0213 308.056 58.256C308.493 58.48 308.818 58.8213 309.032 59.28C309.266 58.832 309.581 58.4907 309.976 58.256C310.37 58.0213 310.872 57.904 311.48 57.904C311.917 57.904 312.312 57.9627 312.664 58.08C313.016 58.1973 313.314 58.3787 313.56 58.624C313.816 58.8693 314.008 59.184 314.136 59.568C314.274 59.952 314.344 60.4107 314.344 60.944V66H313.064V61.184C313.064 60.3733 312.904 59.8027 312.584 59.472C312.274 59.1307 311.816 58.96 311.208 58.96C310.621 58.96 310.162 59.168 309.832 59.584C309.501 60 309.336 60.608 309.336 61.408V66H308.056V61.184C308.056 60.3733 307.896 59.8027 307.576 59.472C307.266 59.1307 306.808 58.96 306.2 58.96C305.624 58.96 305.165 59.168 304.824 59.584C304.493 60 304.328 60.608 304.328 61.408V66H303.048V58.096ZM320.043 66.192C319.413 66.192 318.859 66.0853 318.379 65.872C317.909 65.648 317.515 65.3493 317.195 64.976C316.885 64.6027 316.651 64.1653 316.491 63.664C316.341 63.1627 316.267 62.624 316.267 62.048C316.267 61.472 316.341 60.9333 316.491 60.432C316.651 59.9307 316.885 59.4933 317.195 59.12C317.515 58.7467 317.909 58.4533 318.379 58.24C318.859 58.016 319.413 57.904 320.043 57.904C320.672 57.904 321.216 58.016 321.675 58.24C322.144 58.4533 322.533 58.7467 322.843 59.12C323.152 59.4933 323.381 59.9307 323.531 60.432C323.691 60.9333 323.771 61.472 323.771 62.048C323.771 62.624 323.691 63.1627 323.531 63.664C323.381 64.1653 323.152 64.6027 322.843 64.976C322.533 65.3493 322.144 65.648 321.675 65.872C321.216 66.0853 320.672 66.192 320.043 66.192ZM317.579 62.048C317.579 62.5067 317.627 62.928 317.723 63.312C317.829 63.6853 317.984 64.0107 318.187 64.288C318.389 64.5547 318.645 64.7627 318.955 64.912C319.264 65.0613 319.627 65.136 320.043 65.136C320.448 65.136 320.8 65.0613 321.099 64.912C321.408 64.7627 321.659 64.5547 321.851 64.288C322.053 64.0107 322.203 63.6853 322.299 63.312C322.405 62.928 322.459 62.5067 322.459 62.048C322.459 61.5893 322.405 61.1733 322.299 60.8C322.203 60.416 322.053 60.0907 321.851 59.824C321.659 59.5467 321.408 59.3333 321.099 59.184C320.8 59.0347 320.448 58.96 320.043 58.96C319.627 58.96 319.264 59.0347 318.955 59.184C318.645 59.3333 318.389 59.5467 318.187 59.824C317.984 60.0907 317.829 60.416 317.723 60.8C317.627 61.1733 317.579 61.5893 317.579 62.048ZM325.829 58.096H327.045V59.344H327.141C327.333 58.928 327.599 58.5867 327.941 58.32C328.293 58.0427 328.73 57.904 329.253 57.904C329.882 57.904 330.41 58.0213 330.837 58.256C331.274 58.48 331.599 58.8213 331.813 59.28C332.047 58.832 332.362 58.4907 332.757 58.256C333.151 58.0213 333.653 57.904 334.261 57.904C334.698 57.904 335.093 57.9627 335.445 58.08C335.797 58.1973 336.095 58.3787 336.341 58.624C336.597 58.8693 336.789 59.184 336.917 59.568C337.055 59.952 337.125 60.4107 337.125 60.944V66H335.845V61.184C335.845 60.3733 335.685 59.8027 335.365 59.472C335.055 59.1307 334.597 58.96 333.989 58.96C333.402 58.96 332.943 59.168 332.613 59.584C332.282 60 332.117 60.608 332.117 61.408V66H330.837V61.184C330.837 60.3733 330.677 59.8027 330.357 59.472C330.047 59.1307 329.589 58.96 328.981 58.96C328.405 58.96 327.946 59.168 327.605 59.584C327.274 60 327.109 60.608 327.109 61.408V66H325.829V58.096ZM342.792 66.192C342.226 66.192 341.709 66.096 341.24 65.904C340.781 65.712 340.386 65.44 340.056 65.088C339.736 64.7253 339.485 64.288 339.304 63.776C339.133 63.264 339.048 62.688 339.048 62.048C339.048 61.376 339.138 60.784 339.32 60.272C339.501 59.7493 339.752 59.3173 340.072 58.976C340.392 58.624 340.77 58.3573 341.208 58.176C341.656 57.9947 342.146 57.904 342.68 57.904C343.213 57.904 343.704 57.9893 344.152 58.16C344.6 58.3307 344.984 58.5867 345.304 58.928C345.624 59.2587 345.874 59.68 346.056 60.192C346.237 60.6933 346.328 61.28 346.328 61.952C346.328 62.0373 346.322 62.1227 346.312 62.208C346.312 62.2933 346.306 62.3627 346.296 62.416H340.328C340.328 62.7893 340.392 63.1413 340.52 63.472C340.658 63.792 340.84 64.0747 341.064 64.32C341.298 64.5547 341.565 64.7413 341.864 64.88C342.173 65.0187 342.504 65.088 342.856 65.088C343.432 65.088 343.901 64.976 344.264 64.752C344.637 64.528 344.946 64.256 345.192 63.936L345.96 64.72C345.618 65.168 345.192 65.5253 344.68 65.792C344.178 66.0587 343.549 66.192 342.792 66.192ZM342.68 58.96C342.306 58.96 341.976 59.0293 341.688 59.168C341.4 59.3067 341.16 59.488 340.968 59.712C340.776 59.936 340.626 60.192 340.52 60.48C340.424 60.768 340.37 61.056 340.36 61.344H344.984C344.973 61.056 344.914 60.768 344.808 60.48C344.712 60.192 344.568 59.936 344.376 59.712C344.184 59.488 343.944 59.3067 343.656 59.168C343.378 59.0293 343.053 58.96 342.68 58.96ZM348.391 58.096H349.607V59.344H349.703C349.895 58.928 350.167 58.5867 350.519 58.32C350.871 58.0427 351.319 57.904 351.863 57.904C352.77 57.904 353.485 58.144 354.007 58.624C354.541 59.104 354.807 59.8773 354.807 60.944V66H353.527V61.184C353.527 60.3733 353.362 59.8027 353.031 59.472C352.711 59.1307 352.237 58.96 351.607 58.96C350.999 58.96 350.525 59.168 350.183 59.584C349.842 60 349.671 60.608 349.671 61.408V66H348.391V58.096ZM359.808 66.192C359.093 66.192 358.57 65.9787 358.24 65.552C357.909 65.1253 357.744 64.5387 357.744 63.792V59.136H356.336V58.096H357.744V55.952H359.008V58.096H361.296V59.136H359.008V63.68C359.008 64.192 359.104 64.5493 359.296 64.752C359.498 64.9547 359.754 65.056 360.064 65.056C360.277 65.056 360.469 65.0187 360.64 64.944C360.81 64.8587 360.97 64.7467 361.12 64.608L361.696 65.504C361.205 65.9627 360.576 66.192 359.808 66.192ZM364.078 66.192C363.779 66.192 363.545 66.096 363.374 65.904C363.203 65.712 363.118 65.4933 363.118 65.248C363.118 64.992 363.203 64.7733 363.374 64.592C363.545 64.4 363.779 64.304 364.078 64.304C364.387 64.304 364.622 64.4 364.782 64.592C364.953 64.7733 365.038 64.992 365.038 65.248C365.038 65.4933 364.953 65.712 364.782 65.904C364.622 66.096 364.387 66.192 364.078 66.192Z" fill="black" fill-opacity="0.76"/>
<rect width="16" height="16" transform="translate(0 72)" fill="white" fill-opacity="0.01"/>
<rect width="16" height="16" transform="translate(0 72)" fill="white" fill-opacity="0.01"/>
</g>
<defs>
<clipPath id="clip0_14516_406751">
<rect width="1024" height="88" fill="white"/>
</clipPath>
<clipPath id="clip1_14516_406751">
<rect width="21" height="21" fill="white" transform="translate(21.5 21.5)"/>
</clipPath>
</defs>
</svg>
