<svg width="524" height="196" viewBox="0 0 524 196" fill="none" xmlns="http://www.w3.org/2000/svg">
<g clip-path="url(#clip0_3158_92994)">
<path d="M200 66C200 59.3726 205.373 54 212 54H1212C1218.63 54 1224 59.3726 1224 66V130C1224 136.627 1218.63 142 1212 142H212C205.373 142 200 136.627 200 130V66Z" fill="#FFE9EA"/>
<g opacity="0.08">
<rect width="24" height="2" transform="translate(216 70)" fill="white" fill-opacity="0.01"/>
</g>
<g clip-path="url(#clip1_3158_92994)">
<path d="M232.305 81.0863L229.391 84L232.305 86.9138L230.914 88.305L228 85.3913L225.086 88.305L223.695 86.9138L226.609 84L223.695 81.0863L225.086 79.695L228 82.6088L230.914 79.695L232.305 81.0863ZM238.172 84C238.172 86.0118 237.575 87.9784 236.458 89.6512C235.34 91.3239 233.751 92.6277 231.893 93.3976C230.034 94.1675 227.989 94.3689 226.016 93.9764C224.042 93.5839 222.23 92.6152 220.807 91.1926C219.385 89.77 218.416 87.9576 218.024 85.9844C217.631 84.0113 217.833 81.9661 218.602 80.1074C219.372 78.2487 220.676 76.6601 222.349 75.5424C224.022 74.4247 225.988 73.8281 228 73.8281C230.697 73.8316 233.282 74.9044 235.189 76.8112C237.096 78.7181 238.168 81.3033 238.172 84ZM236.203 84C236.203 82.3776 235.722 80.7916 234.821 79.4426C233.919 78.0936 232.638 77.0422 231.139 76.4213C229.64 75.8004 227.991 75.638 226.4 75.9545C224.808 76.271 223.347 77.0523 222.2 78.1995C221.052 79.3467 220.271 80.8084 219.955 82.3996C219.638 83.9909 219.8 85.6403 220.421 87.1392C221.042 88.6381 222.094 89.9193 223.443 90.8206C224.792 91.722 226.378 92.2031 228 92.2031C229.077 92.2031 230.144 91.9909 231.139 91.5787C232.134 91.1665 233.039 90.5622 233.8 89.8005C234.562 89.0388 235.166 88.1344 235.579 87.1392C235.991 86.144 236.203 85.0772 236.203 84Z" fill="#D50525"/>
</g>
<path d="M259.36 91.24C258.227 91.24 257.24 91.0533 256.4 90.68C255.573 90.2933 254.887 89.7867 254.34 89.16C253.793 88.5333 253.387 87.8133 253.12 87C252.853 86.1867 252.72 85.34 252.72 84.46C252.72 83.6067 252.853 82.78 253.12 81.98C253.387 81.1667 253.793 80.4533 254.34 79.84C254.887 79.2133 255.573 78.7133 256.4 78.34C257.24 77.9533 258.227 77.76 259.36 77.76C260.48 77.76 261.453 77.9533 262.28 78.34C263.12 78.7133 263.813 79.2133 264.36 79.84C264.92 80.4533 265.333 81.1667 265.6 81.98C265.867 82.78 266 83.6067 266 84.46C266 85.34 265.867 86.1867 265.6 87C265.333 87.8133 264.92 88.5333 264.36 89.16C263.813 89.7867 263.12 90.2933 262.28 90.68C261.453 91.0533 260.48 91.24 259.36 91.24ZM259.36 88.48C260.307 88.48 261.067 88.1467 261.64 87.48C262.227 86.8 262.52 85.7933 262.52 84.46C262.52 83.8067 262.44 83.2333 262.28 82.74C262.133 82.2467 261.92 81.8333 261.64 81.5C261.36 81.1667 261.027 80.92 260.64 80.76C260.253 80.6 259.827 80.52 259.36 80.52C258.413 80.52 257.647 80.8467 257.06 81.5C256.487 82.1533 256.2 83.14 256.2 84.46C256.2 85.7933 256.487 86.8 257.06 87.48C257.647 88.1467 258.413 88.48 259.36 88.48ZM267.787 81.12H270.767V82.82H270.887C271.087 82.2067 271.4 81.7333 271.827 81.4C272.267 81.0533 272.82 80.88 273.487 80.88C274.007 80.88 274.473 80.9467 274.887 81.08L274.087 84C273.94 83.9067 273.767 83.84 273.567 83.8C273.38 83.7467 273.193 83.72 273.007 83.72C272.407 83.72 271.913 83.8933 271.527 84.24C271.153 84.5733 270.967 85.1067 270.967 85.84V91H267.787V81.12ZM279.435 91.24C278.835 91.24 278.282 91.12 277.775 90.88C277.268 90.6267 276.822 90.28 276.435 89.84C276.062 89.4 275.768 88.8667 275.555 88.24C275.342 87.6133 275.235 86.92 275.235 86.16C275.235 85.3733 275.342 84.66 275.555 84.02C275.768 83.3667 276.062 82.8067 276.435 82.34C276.822 81.8733 277.268 81.5133 277.775 81.26C278.282 81.0067 278.835 80.88 279.435 80.88C280.168 80.88 280.775 81.0533 281.255 81.4C281.748 81.7333 282.102 82.18 282.315 82.74H282.435V76.5H285.615V91H282.595V89.24H282.475C282.235 89.88 281.848 90.3733 281.315 90.72C280.795 91.0667 280.168 91.24 279.435 91.24ZM280.455 88.5C281.122 88.5 281.615 88.2667 281.935 87.8C282.268 87.32 282.435 86.74 282.435 86.06C282.435 85.38 282.268 84.8067 281.935 84.34C281.615 83.86 281.122 83.62 280.455 83.62C279.815 83.62 279.328 83.86 278.995 84.34C278.662 84.8067 278.495 85.38 278.495 86.06C278.495 86.74 278.662 87.32 278.995 87.8C279.328 88.2667 279.815 88.5 280.455 88.5ZM292.288 91.24C291.381 91.24 290.601 91.0933 289.948 90.8C289.308 90.5067 288.781 90.12 288.368 89.64C287.955 89.16 287.648 88.6133 287.448 88C287.248 87.3733 287.148 86.7267 287.148 86.06C287.148 85.4067 287.235 84.7667 287.408 84.14C287.595 83.5133 287.881 82.96 288.268 82.48C288.668 82 289.181 81.6133 289.808 81.32C290.435 81.0267 291.201 80.88 292.108 80.88C293.015 80.88 293.781 81.0267 294.408 81.32C295.035 81.6 295.535 81.98 295.908 82.46C296.295 82.9267 296.568 83.4667 296.728 84.08C296.901 84.6933 296.988 85.3267 296.988 85.98C296.988 86.1267 296.975 86.32 296.948 86.56C296.921 86.7867 296.888 86.96 296.848 87.08H290.368C290.421 87.3733 290.521 87.62 290.668 87.82C290.828 88.02 291.008 88.18 291.208 88.3C291.408 88.42 291.615 88.5067 291.828 88.56C292.055 88.6133 292.268 88.64 292.468 88.64C292.935 88.64 293.335 88.5667 293.668 88.42C294.015 88.2733 294.281 88.08 294.468 87.84L296.208 89.66C295.888 90.1267 295.381 90.5067 294.688 90.8C293.995 91.0933 293.195 91.24 292.288 91.24ZM292.108 83.24C291.681 83.24 291.301 83.3733 290.968 83.64C290.635 83.8933 290.415 84.34 290.308 84.98H293.868C293.775 84.34 293.561 83.8933 293.228 83.64C292.895 83.3733 292.521 83.24 292.108 83.24ZM298.529 81.12H301.509V82.82H301.629C301.829 82.2067 302.142 81.7333 302.569 81.4C303.009 81.0533 303.562 80.88 304.229 80.88C304.749 80.88 305.215 80.9467 305.629 81.08L304.829 84C304.682 83.9067 304.509 83.84 304.309 83.8C304.122 83.7467 303.935 83.72 303.749 83.72C303.149 83.72 302.655 83.8933 302.269 84.24C301.895 84.5733 301.709 85.1067 301.709 85.84V91H298.529V81.12ZM315.937 91.24C315.07 91.24 314.324 91.1 313.697 90.82C313.084 90.5267 312.57 90.1467 312.157 89.68C311.757 89.2 311.457 88.6467 311.257 88.02C311.07 87.3933 310.977 86.74 310.977 86.06C310.977 85.38 311.07 84.7267 311.257 84.1C311.444 83.4733 311.737 82.9267 312.137 82.46C312.537 81.98 313.044 81.6 313.657 81.32C314.27 81.0267 315.004 80.88 315.857 80.88C316.657 80.88 317.364 81.0333 317.977 81.34C318.59 81.6467 319.084 82.02 319.457 82.46L317.317 84.4C317.144 84.1733 316.944 84 316.717 83.88C316.49 83.7467 316.217 83.68 315.897 83.68C315.337 83.68 314.917 83.8867 314.637 84.3C314.357 84.7133 314.217 85.3 314.217 86.06C314.217 86.82 314.364 87.4067 314.657 87.82C314.95 88.2333 315.377 88.44 315.937 88.44C316.244 88.44 316.524 88.3733 316.777 88.24C317.044 88.1067 317.25 87.9267 317.397 87.7L319.537 89.64C319.177 90.08 318.684 90.46 318.057 90.78C317.444 91.0867 316.737 91.24 315.937 91.24ZM323.533 91.24C323.093 91.24 322.666 91.1733 322.253 91.04C321.853 90.9067 321.499 90.7133 321.193 90.46C320.899 90.1933 320.659 89.8733 320.472 89.5C320.299 89.1267 320.213 88.7 320.213 88.22C320.213 87.3133 320.533 86.6 321.173 86.08C321.826 85.56 322.846 85.26 324.233 85.18L326.333 85.06V84.9C326.333 84.62 326.273 84.3933 326.153 84.22C326.046 84.0467 325.899 83.9133 325.713 83.82C325.539 83.7133 325.333 83.64 325.092 83.6C324.866 83.56 324.633 83.54 324.393 83.54C324.019 83.54 323.639 83.6067 323.253 83.74C322.866 83.8733 322.579 84.06 322.393 84.3L320.653 82.5C321.013 82.0467 321.539 81.6667 322.233 81.36C322.926 81.04 323.833 80.88 324.952 80.88C326.379 80.88 327.493 81.2067 328.293 81.86C329.106 82.5133 329.513 83.4533 329.513 84.68V91H326.533V89.48H326.413C326.159 90 325.793 90.4267 325.313 90.76C324.846 91.08 324.253 91.24 323.533 91.24ZM324.613 89.08C325.119 89.08 325.533 88.9467 325.853 88.68C326.173 88.4 326.333 87.98 326.333 87.42V86.9L324.673 87.02C324.246 87.0467 323.926 87.1533 323.713 87.34C323.513 87.5267 323.413 87.7733 323.413 88.08C323.413 88.4267 323.526 88.68 323.753 88.84C323.993 89 324.279 89.08 324.613 89.08ZM331.498 81.12H334.478V82.76H334.598C334.798 82.2133 335.158 81.7667 335.678 81.42C336.211 81.06 336.818 80.88 337.498 80.88C338.151 80.88 338.698 80.9733 339.138 81.16C339.591 81.3333 339.951 81.5933 340.218 81.94C340.484 82.2867 340.671 82.72 340.778 83.24C340.898 83.7467 340.958 84.3267 340.958 84.98V91H337.778V85.62C337.778 84.9933 337.671 84.5 337.458 84.14C337.244 83.7667 336.844 83.58 336.258 83.58C335.698 83.58 335.291 83.7533 335.038 84.1C334.798 84.4467 334.678 84.9533 334.678 85.62V91H331.498V81.12ZM347.402 91.24C346.535 91.24 345.789 91.1 345.162 90.82C344.549 90.5267 344.035 90.1467 343.622 89.68C343.222 89.2 342.922 88.6467 342.722 88.02C342.535 87.3933 342.442 86.74 342.442 86.06C342.442 85.38 342.535 84.7267 342.722 84.1C342.909 83.4733 343.202 82.9267 343.602 82.46C344.002 81.98 344.509 81.6 345.122 81.32C345.735 81.0267 346.469 80.88 347.322 80.88C348.122 80.88 348.829 81.0333 349.442 81.34C350.055 81.6467 350.549 82.02 350.922 82.46L348.782 84.4C348.609 84.1733 348.409 84 348.182 83.88C347.955 83.7467 347.682 83.68 347.362 83.68C346.802 83.68 346.382 83.8867 346.102 84.3C345.822 84.7133 345.682 85.3 345.682 86.06C345.682 86.82 345.829 87.4067 346.122 87.82C346.415 88.2333 346.842 88.44 347.402 88.44C347.709 88.44 347.989 88.3733 348.242 88.24C348.509 88.1067 348.715 87.9267 348.862 87.7L351.002 89.64C350.642 90.08 350.149 90.46 349.522 90.78C348.909 91.0867 348.202 91.24 347.402 91.24ZM356.546 91.24C355.639 91.24 354.859 91.0933 354.206 90.8C353.566 90.5067 353.039 90.12 352.626 89.64C352.212 89.16 351.906 88.6133 351.706 88C351.506 87.3733 351.406 86.7267 351.406 86.06C351.406 85.4067 351.492 84.7667 351.666 84.14C351.852 83.5133 352.139 82.96 352.526 82.48C352.926 82 353.439 81.6133 354.066 81.32C354.692 81.0267 355.459 80.88 356.366 80.88C357.272 80.88 358.039 81.0267 358.666 81.32C359.292 81.6 359.792 81.98 360.166 82.46C360.552 82.9267 360.826 83.4667 360.986 84.08C361.159 84.6933 361.246 85.3267 361.246 85.98C361.246 86.1267 361.232 86.32 361.206 86.56C361.179 86.7867 361.146 86.96 361.106 87.08H354.626C354.679 87.3733 354.779 87.62 354.926 87.82C355.086 88.02 355.266 88.18 355.466 88.3C355.666 88.42 355.872 88.5067 356.086 88.56C356.312 88.6133 356.526 88.64 356.726 88.64C357.192 88.64 357.592 88.5667 357.926 88.42C358.272 88.2733 358.539 88.08 358.726 87.84L360.466 89.66C360.146 90.1267 359.639 90.5067 358.946 90.8C358.252 91.0933 357.452 91.24 356.546 91.24ZM356.366 83.24C355.939 83.24 355.559 83.3733 355.226 83.64C354.892 83.8933 354.672 84.34 354.566 84.98H358.126C358.032 84.34 357.819 83.8933 357.486 83.64C357.152 83.3733 356.779 83.24 356.366 83.24ZM362.787 76.5H365.967V91H362.787V76.5ZM368.08 76.5H371.26V91H368.08V76.5ZM377.933 91.24C377.026 91.24 376.246 91.0933 375.593 90.8C374.953 90.5067 374.426 90.12 374.013 89.64C373.599 89.16 373.293 88.6133 373.093 88C372.893 87.3733 372.793 86.7267 372.793 86.06C372.793 85.4067 372.879 84.7667 373.053 84.14C373.239 83.5133 373.526 82.96 373.913 82.48C374.313 82 374.826 81.6133 375.453 81.32C376.079 81.0267 376.846 80.88 377.753 80.88C378.659 80.88 379.426 81.0267 380.053 81.32C380.679 81.6 381.179 81.98 381.553 82.46C381.939 82.9267 382.213 83.4667 382.373 84.08C382.546 84.6933 382.633 85.3267 382.633 85.98C382.633 86.1267 382.619 86.32 382.592 86.56C382.566 86.7867 382.533 86.96 382.493 87.08H376.013C376.066 87.3733 376.166 87.62 376.313 87.82C376.473 88.02 376.653 88.18 376.853 88.3C377.053 88.42 377.259 88.5067 377.473 88.56C377.699 88.6133 377.913 88.64 378.113 88.64C378.579 88.64 378.979 88.5667 379.313 88.42C379.659 88.2733 379.926 88.08 380.113 87.84L381.853 89.66C381.533 90.1267 381.026 90.5067 380.333 90.8C379.639 91.0933 378.839 91.24 377.933 91.24ZM377.753 83.24C377.326 83.24 376.946 83.3733 376.613 83.64C376.279 83.8933 376.059 84.34 375.953 84.98H379.513C379.419 84.34 379.206 83.8933 378.873 83.64C378.539 83.3733 378.166 83.24 377.753 83.24ZM387.833 91.24C387.233 91.24 386.68 91.12 386.173 90.88C385.667 90.6267 385.22 90.28 384.833 89.84C384.46 89.4 384.167 88.8667 383.953 88.24C383.74 87.6133 383.633 86.92 383.633 86.16C383.633 85.3733 383.74 84.66 383.953 84.02C384.167 83.3667 384.46 82.8067 384.833 82.34C385.22 81.8733 385.667 81.5133 386.173 81.26C386.68 81.0067 387.233 80.88 387.833 80.88C388.567 80.88 389.173 81.0533 389.653 81.4C390.147 81.7333 390.5 82.18 390.713 82.74H390.833V76.5H394.013V91H390.993V89.24H390.873C390.633 89.88 390.247 90.3733 389.713 90.72C389.193 91.0667 388.567 91.24 387.833 91.24ZM388.853 88.5C389.52 88.5 390.013 88.2667 390.333 87.8C390.667 87.32 390.833 86.74 390.833 86.06C390.833 85.38 390.667 84.8067 390.333 84.34C390.013 83.86 389.52 83.62 388.853 83.62C388.213 83.62 387.727 83.86 387.393 84.34C387.06 84.8067 386.893 85.38 386.893 86.06C386.893 86.74 387.06 87.32 387.393 87.8C387.727 88.2667 388.213 88.5 388.853 88.5Z" fill="#242E30"/>
<path d="M257.76 120.192C256.949 120.192 256.235 120.048 255.616 119.76C255.008 119.472 254.496 119.083 254.08 118.592C253.664 118.101 253.349 117.531 253.136 116.88C252.933 116.219 252.832 115.515 252.832 114.768C252.832 114.021 252.933 113.323 253.136 112.672C253.349 112.021 253.664 111.456 254.08 110.976C254.496 110.485 255.008 110.101 255.616 109.824C256.235 109.547 256.949 109.408 257.76 109.408C258.56 109.408 259.264 109.547 259.872 109.824C260.491 110.101 261.008 110.485 261.424 110.976C261.84 111.456 262.149 112.021 262.352 112.672C262.565 113.323 262.672 114.021 262.672 114.768C262.672 115.515 262.565 116.219 262.352 116.88C262.149 117.531 261.84 118.101 261.424 118.592C261.008 119.083 260.491 119.472 259.872 119.76C259.264 120.048 258.56 120.192 257.76 120.192ZM257.76 119.024C258.272 119.024 258.741 118.928 259.168 118.736C259.605 118.544 259.979 118.267 260.288 117.904C260.597 117.541 260.837 117.099 261.008 116.576C261.189 116.043 261.28 115.44 261.28 114.768C261.28 114.096 261.189 113.499 261.008 112.976C260.837 112.453 260.597 112.016 260.288 111.664C259.979 111.301 259.605 111.029 259.168 110.848C258.741 110.667 258.272 110.576 257.76 110.576C257.248 110.576 256.773 110.667 256.336 110.848C255.899 111.029 255.525 111.301 255.216 111.664C254.907 112.016 254.661 112.453 254.48 112.976C254.309 113.499 254.224 114.096 254.224 114.768C254.224 115.44 254.309 116.043 254.48 116.576C254.661 117.099 254.907 117.541 255.216 117.904C255.525 118.267 255.899 118.544 256.336 118.736C256.773 118.928 257.248 119.024 257.76 119.024ZM264.86 112.096H266.076V113.376H266.172C266.343 112.96 266.588 112.613 266.908 112.336C267.228 112.048 267.628 111.904 268.108 111.904C268.513 111.904 268.871 111.984 269.18 112.144L268.748 113.296C268.609 113.221 268.46 113.173 268.3 113.152C268.151 113.12 267.996 113.104 267.836 113.104C267.313 113.104 266.897 113.317 266.588 113.744C266.289 114.16 266.14 114.693 266.14 115.344V120H264.86V112.096ZM273.286 120.192C272.753 120.192 272.273 120.091 271.846 119.888C271.419 119.675 271.051 119.387 270.742 119.024C270.433 118.651 270.193 118.208 270.022 117.696C269.862 117.184 269.782 116.629 269.782 116.032C269.782 115.435 269.862 114.885 270.022 114.384C270.193 113.872 270.433 113.435 270.742 113.072C271.051 112.699 271.419 112.411 271.846 112.208C272.273 112.005 272.753 111.904 273.286 111.904C273.937 111.904 274.497 112.059 274.966 112.368C275.435 112.677 275.771 113.072 275.974 113.552H276.07V108.4H277.35V120H276.134V118.384H276.038C275.942 118.661 275.803 118.912 275.622 119.136C275.451 119.349 275.243 119.536 274.998 119.696C274.763 119.856 274.497 119.979 274.198 120.064C273.91 120.149 273.606 120.192 273.286 120.192ZM273.606 119.04C273.947 119.04 274.267 118.981 274.566 118.864C274.865 118.736 275.126 118.549 275.35 118.304C275.574 118.048 275.75 117.733 275.878 117.36C276.006 116.987 276.07 116.549 276.07 116.048C276.07 115.547 276.006 115.109 275.878 114.736C275.75 114.363 275.574 114.053 275.35 113.808C275.126 113.552 274.865 113.365 274.566 113.248C274.267 113.12 273.947 113.056 273.606 113.056C273.254 113.056 272.923 113.12 272.614 113.248C272.315 113.365 272.049 113.552 271.814 113.808C271.59 114.053 271.414 114.363 271.286 114.736C271.158 115.109 271.094 115.547 271.094 116.048C271.094 116.549 271.158 116.987 271.286 117.36C271.414 117.733 271.59 118.048 271.814 118.304C272.049 118.549 272.315 118.736 272.614 118.864C272.923 118.981 273.254 119.04 273.606 119.04ZM283.151 120.192C282.586 120.192 282.068 120.096 281.599 119.904C281.14 119.712 280.746 119.44 280.415 119.088C280.095 118.725 279.844 118.288 279.663 117.776C279.492 117.264 279.407 116.688 279.407 116.048C279.407 115.376 279.498 114.784 279.679 114.272C279.86 113.749 280.111 113.317 280.431 112.976C280.751 112.624 281.13 112.357 281.567 112.176C282.015 111.995 282.506 111.904 283.039 111.904C283.572 111.904 284.063 111.989 284.511 112.16C284.959 112.331 285.343 112.587 285.663 112.928C285.983 113.259 286.234 113.68 286.415 114.192C286.596 114.693 286.687 115.28 286.687 115.952C286.687 116.037 286.682 116.123 286.671 116.208C286.671 116.293 286.666 116.363 286.655 116.416H280.687C280.687 116.789 280.751 117.141 280.879 117.472C281.018 117.792 281.199 118.075 281.423 118.32C281.658 118.555 281.924 118.741 282.223 118.88C282.532 119.019 282.863 119.088 283.215 119.088C283.791 119.088 284.26 118.976 284.623 118.752C284.996 118.528 285.306 118.256 285.551 117.936L286.319 118.72C285.978 119.168 285.551 119.525 285.039 119.792C284.538 120.059 283.908 120.192 283.151 120.192ZM283.039 112.96C282.666 112.96 282.335 113.029 282.047 113.168C281.759 113.307 281.519 113.488 281.327 113.712C281.135 113.936 280.986 114.192 280.879 114.48C280.783 114.768 280.73 115.056 280.719 115.344H285.343C285.332 115.056 285.274 114.768 285.167 114.48C285.071 114.192 284.927 113.936 284.735 113.712C284.543 113.488 284.303 113.307 284.015 113.168C283.738 113.029 283.412 112.96 283.039 112.96ZM288.751 112.096H289.967V113.376H290.063C290.233 112.96 290.479 112.613 290.799 112.336C291.119 112.048 291.519 111.904 291.999 111.904C292.404 111.904 292.761 111.984 293.071 112.144L292.639 113.296C292.5 113.221 292.351 113.173 292.191 113.152C292.041 113.12 291.887 113.104 291.727 113.104C291.204 113.104 290.788 113.317 290.479 113.744C290.18 114.16 290.031 114.693 290.031 115.344V120H288.751V112.096ZM299.443 117.424H297.715L297.843 116.464H299.571L300.051 113.136H298.323L298.451 112.176H300.179L300.547 109.6H301.699L301.331 112.176H303.699L304.067 109.6H305.219L304.851 112.176H306.579L306.451 113.136H304.723L304.243 116.464H305.971L305.843 117.424H304.115L303.747 120H302.595L302.963 117.424H300.595L300.227 120H299.075L299.443 117.424ZM303.091 116.464L303.571 113.136H301.203L300.723 116.464H303.091ZM311.894 120.192C311.275 120.192 310.736 120.112 310.278 119.952C309.83 119.792 309.456 119.579 309.158 119.312C308.859 119.035 308.635 118.72 308.486 118.368C308.336 118.005 308.262 117.621 308.262 117.216C308.262 116.917 308.31 116.629 308.406 116.352C308.502 116.075 308.64 115.824 308.822 115.6C309.003 115.365 309.216 115.168 309.462 115.008C309.718 114.848 310.006 114.741 310.326 114.688V114.592C310.059 114.507 309.819 114.379 309.606 114.208C309.403 114.037 309.227 113.845 309.078 113.632C308.939 113.419 308.832 113.195 308.758 112.96C308.683 112.725 308.646 112.496 308.646 112.272C308.646 111.899 308.71 111.541 308.838 111.2C308.976 110.848 309.179 110.544 309.446 110.288C309.712 110.021 310.048 109.808 310.454 109.648C310.859 109.488 311.339 109.408 311.894 109.408C312.438 109.408 312.912 109.488 313.318 109.648C313.723 109.808 314.059 110.021 314.326 110.288C314.592 110.544 314.79 110.848 314.918 111.2C315.056 111.541 315.126 111.899 315.126 112.272C315.126 112.496 315.088 112.725 315.014 112.96C314.939 113.195 314.827 113.419 314.678 113.632C314.539 113.845 314.363 114.037 314.15 114.208C313.947 114.379 313.712 114.507 313.446 114.592V114.688C313.766 114.741 314.048 114.848 314.294 115.008C314.55 115.168 314.768 115.365 314.95 115.6C315.131 115.824 315.27 116.075 315.366 116.352C315.462 116.629 315.51 116.917 315.51 117.216C315.51 117.621 315.435 118.005 315.286 118.368C315.136 118.72 314.912 119.035 314.614 119.312C314.315 119.579 313.936 119.792 313.478 119.952C313.03 120.112 312.502 120.192 311.894 120.192ZM311.894 114.144C312.128 114.144 312.358 114.112 312.582 114.048C312.806 113.973 313.003 113.867 313.174 113.728C313.344 113.579 313.478 113.397 313.574 113.184C313.68 112.96 313.734 112.693 313.734 112.384C313.734 112.064 313.68 111.792 313.574 111.568C313.478 111.344 313.344 111.163 313.174 111.024C313.003 110.875 312.806 110.768 312.582 110.704C312.358 110.629 312.128 110.592 311.894 110.592C311.648 110.592 311.414 110.629 311.19 110.704C310.966 110.768 310.768 110.875 310.598 111.024C310.427 111.163 310.288 111.344 310.182 111.568C310.086 111.792 310.038 112.064 310.038 112.384C310.038 112.693 310.086 112.96 310.182 113.184C310.288 113.397 310.427 113.579 310.598 113.728C310.768 113.867 310.966 113.973 311.19 114.048C311.414 114.112 311.648 114.144 311.894 114.144ZM311.894 119.008C312.534 119.008 313.062 118.848 313.478 118.528C313.904 118.197 314.118 117.723 314.118 117.104C314.118 116.475 313.904 116.005 313.478 115.696C313.062 115.387 312.534 115.232 311.894 115.232C311.254 115.232 310.72 115.387 310.294 115.696C309.867 116.005 309.654 116.475 309.654 117.104C309.654 117.723 309.867 118.197 310.294 118.528C310.72 118.848 311.254 119.008 311.894 119.008ZM321.664 120.192C320.469 120.192 319.557 119.771 318.928 118.928C318.309 118.075 318 116.8 318 115.104C318 113.259 318.352 111.851 319.056 110.88C319.76 109.899 320.714 109.408 321.92 109.408C322.656 109.408 323.253 109.52 323.712 109.744C324.17 109.957 324.554 110.235 324.864 110.576L324.048 111.44C323.781 111.163 323.482 110.955 323.152 110.816C322.821 110.667 322.426 110.592 321.968 110.592C321.146 110.592 320.49 110.96 320 111.696C319.52 112.432 319.28 113.531 319.28 114.992H319.376C319.578 114.555 319.893 114.187 320.32 113.888C320.746 113.579 321.29 113.424 321.952 113.424C322.346 113.424 322.736 113.493 323.12 113.632C323.514 113.771 323.861 113.979 324.16 114.256C324.458 114.533 324.698 114.875 324.88 115.28C325.072 115.685 325.168 116.155 325.168 116.688C325.168 117.179 325.088 117.637 324.928 118.064C324.778 118.491 324.554 118.864 324.256 119.184C323.957 119.493 323.589 119.739 323.152 119.92C322.714 120.101 322.218 120.192 321.664 120.192ZM321.68 119.008C322.352 119.008 322.869 118.8 323.232 118.384C323.594 117.957 323.776 117.419 323.776 116.768C323.776 116.096 323.589 115.568 323.216 115.184C322.853 114.789 322.341 114.592 321.68 114.592C321.018 114.592 320.501 114.789 320.128 115.184C319.754 115.568 319.568 116.096 319.568 116.768C319.568 117.419 319.749 117.957 320.112 118.384C320.485 118.8 321.008 119.008 321.68 119.008ZM332.041 117.856H327.193V116.784L331.785 109.6H333.305L328.697 116.704H332.041V113.568H333.353V116.704H334.793V117.856H333.353V120H332.041V117.856ZM340.243 120.192C339.507 120.192 338.91 120.085 338.451 119.872C337.992 119.648 337.608 119.365 337.299 119.024L338.099 118.176C338.366 118.453 338.664 118.661 338.995 118.8C339.336 118.939 339.736 119.008 340.195 119.008C341.016 119.008 341.667 118.64 342.147 117.904C342.638 117.157 342.883 116.059 342.883 114.608H342.787C342.584 115.045 342.27 115.419 341.843 115.728C341.416 116.027 340.872 116.176 340.211 116.176C339.806 116.176 339.411 116.107 339.027 115.968C338.643 115.829 338.302 115.621 338.003 115.344C337.704 115.067 337.459 114.725 337.267 114.32C337.086 113.915 336.995 113.445 336.995 112.912C336.995 112.421 337.07 111.963 337.219 111.536C337.379 111.109 337.608 110.741 337.907 110.432C338.206 110.112 338.574 109.861 339.011 109.68C339.448 109.499 339.944 109.408 340.499 109.408C341.694 109.408 342.6 109.835 343.219 110.688C343.848 111.531 344.163 112.8 344.163 114.496C344.163 116.341 343.811 117.755 343.107 118.736C342.403 119.707 341.448 120.192 340.243 120.192ZM340.483 115.008C341.144 115.008 341.662 114.816 342.035 114.432C342.408 114.037 342.595 113.504 342.595 112.832C342.595 112.181 342.408 111.648 342.035 111.232C341.672 110.805 341.155 110.592 340.483 110.592C339.811 110.592 339.294 110.805 338.931 111.232C338.568 111.648 338.387 112.181 338.387 112.832C338.387 113.504 338.568 114.037 338.931 114.432C339.304 114.816 339.822 115.008 340.483 115.008ZM346.989 118.88H349.965V111.04L347.117 112.352L346.701 111.456L350.205 109.6H351.325V118.88H353.997V120H346.989V118.88ZM360.266 108.4H361.546V113.216H361.642C361.824 112.853 362.085 112.544 362.426 112.288C362.768 112.032 363.205 111.904 363.738 111.904C364.645 111.904 365.36 112.144 365.882 112.624C366.416 113.104 366.682 113.877 366.682 114.944V120H365.402V115.184C365.402 114.373 365.237 113.803 364.906 113.472C364.586 113.131 364.112 112.96 363.482 112.96C362.874 112.96 362.4 113.168 362.058 113.584C361.717 114 361.546 114.608 361.546 115.408V120H360.266V108.4ZM370.917 120.192C370.554 120.192 370.218 120.133 369.909 120.016C369.61 119.899 369.349 119.733 369.125 119.52C368.901 119.307 368.725 119.056 368.597 118.768C368.479 118.469 368.421 118.144 368.421 117.792C368.421 117.109 368.666 116.56 369.157 116.144C369.647 115.728 370.346 115.493 371.253 115.44L373.333 115.312V114.752C373.333 114.144 373.183 113.707 372.885 113.44C372.597 113.163 372.181 113.024 371.637 113.024C371.178 113.024 370.783 113.109 370.453 113.28C370.122 113.451 369.866 113.637 369.685 113.84L368.917 113.072C369.194 112.731 369.567 112.453 370.037 112.24C370.517 112.016 371.061 111.904 371.669 111.904C372.213 111.904 372.671 111.979 373.045 112.128C373.418 112.267 373.717 112.459 373.941 112.704C374.175 112.949 374.341 113.237 374.437 113.568C374.543 113.899 374.597 114.251 374.597 114.624V120H373.397V118.656H373.301C373.087 119.136 372.789 119.515 372.405 119.792C372.021 120.059 371.525 120.192 370.917 120.192ZM371.109 119.104C371.77 119.104 372.303 118.912 372.709 118.528C373.125 118.133 373.333 117.611 373.333 116.96V116.272L371.317 116.416C370.25 116.501 369.717 116.949 369.717 117.76C369.717 118.165 369.845 118.491 370.101 118.736C370.367 118.981 370.703 119.104 371.109 119.104ZM380.981 117.952C380.981 117.717 380.927 117.525 380.821 117.376C380.714 117.216 380.565 117.083 380.373 116.976C380.191 116.869 379.983 116.779 379.749 116.704C379.514 116.629 379.269 116.555 379.013 116.48C378.714 116.395 378.426 116.293 378.149 116.176C377.882 116.059 377.642 115.915 377.429 115.744C377.215 115.563 377.045 115.349 376.917 115.104C376.789 114.859 376.725 114.56 376.725 114.208C376.725 113.835 376.794 113.504 376.933 113.216C377.071 112.928 377.263 112.688 377.509 112.496C377.754 112.304 378.042 112.16 378.373 112.064C378.703 111.957 379.061 111.904 379.445 111.904C380.021 111.904 380.549 112.011 381.029 112.224C381.509 112.427 381.903 112.747 382.213 113.184L381.381 113.952C381.146 113.675 380.869 113.445 380.549 113.264C380.239 113.083 379.871 112.992 379.445 112.992C379.263 112.992 379.082 113.013 378.901 113.056C378.73 113.099 378.575 113.168 378.437 113.264C378.298 113.349 378.186 113.461 378.101 113.6C378.015 113.739 377.973 113.904 377.973 114.096C377.973 114.331 378.026 114.528 378.133 114.688C378.239 114.837 378.383 114.965 378.565 115.072C378.757 115.179 378.97 115.269 379.205 115.344C379.439 115.419 379.685 115.493 379.941 115.568C380.239 115.653 380.522 115.755 380.789 115.872C381.066 115.989 381.311 116.139 381.525 116.32C381.738 116.491 381.909 116.699 382.037 116.944C382.165 117.189 382.229 117.488 382.229 117.84C382.229 118.256 382.149 118.613 381.989 118.912C381.839 119.2 381.631 119.44 381.365 119.632C381.098 119.824 380.789 119.963 380.437 120.048C380.085 120.144 379.711 120.192 379.317 120.192C378.623 120.192 378.031 120.075 377.541 119.84C377.061 119.605 376.682 119.301 376.405 118.928L377.253 118.128C377.498 118.416 377.781 118.651 378.101 118.832C378.431 119.013 378.842 119.104 379.333 119.104C379.557 119.104 379.765 119.083 379.957 119.04C380.159 118.997 380.335 118.928 380.485 118.832C380.634 118.736 380.751 118.619 380.837 118.48C380.933 118.331 380.981 118.155 380.981 117.952ZM392.346 120.192C392.026 120.192 391.717 120.149 391.418 120.064C391.13 119.979 390.863 119.856 390.618 119.696C390.383 119.536 390.175 119.349 389.994 119.136C389.823 118.912 389.69 118.661 389.594 118.384H389.498V120H388.282V108.4H389.562V113.552H389.658C389.861 113.072 390.197 112.677 390.666 112.368C391.135 112.059 391.695 111.904 392.346 111.904C392.869 111.904 393.343 112.005 393.77 112.208C394.207 112.411 394.581 112.699 394.89 113.072C395.199 113.435 395.434 113.872 395.594 114.384C395.765 114.885 395.85 115.435 395.85 116.032C395.85 116.629 395.765 117.184 395.594 117.696C395.434 118.208 395.199 118.651 394.89 119.024C394.581 119.387 394.207 119.675 393.77 119.888C393.343 120.091 392.869 120.192 392.346 120.192ZM392.026 119.04C392.378 119.04 392.703 118.981 393.002 118.864C393.311 118.736 393.578 118.549 393.802 118.304C394.037 118.048 394.218 117.733 394.346 117.36C394.474 116.987 394.538 116.549 394.538 116.048C394.538 115.547 394.474 115.109 394.346 114.736C394.218 114.363 394.037 114.053 393.802 113.808C393.578 113.552 393.311 113.365 393.002 113.248C392.703 113.12 392.378 113.056 392.026 113.056C391.685 113.056 391.365 113.12 391.066 113.248C390.767 113.365 390.506 113.552 390.282 113.808C390.058 114.053 389.882 114.363 389.754 114.736C389.626 115.109 389.562 115.547 389.562 116.048C389.562 116.549 389.626 116.987 389.754 117.36C389.882 117.733 390.058 118.048 390.282 118.304C390.506 118.549 390.767 118.736 391.066 118.864C391.365 118.981 391.685 119.04 392.026 119.04ZM400.995 120.192C400.43 120.192 399.912 120.096 399.443 119.904C398.984 119.712 398.59 119.44 398.259 119.088C397.939 118.725 397.688 118.288 397.507 117.776C397.336 117.264 397.251 116.688 397.251 116.048C397.251 115.376 397.342 114.784 397.523 114.272C397.704 113.749 397.955 113.317 398.275 112.976C398.595 112.624 398.974 112.357 399.411 112.176C399.859 111.995 400.35 111.904 400.883 111.904C401.416 111.904 401.907 111.989 402.355 112.16C402.803 112.331 403.187 112.587 403.507 112.928C403.827 113.259 404.078 113.68 404.259 114.192C404.44 114.693 404.531 115.28 404.531 115.952C404.531 116.037 404.526 116.123 404.515 116.208C404.515 116.293 404.51 116.363 404.499 116.416H398.531C398.531 116.789 398.595 117.141 398.723 117.472C398.862 117.792 399.043 118.075 399.267 118.32C399.502 118.555 399.768 118.741 400.067 118.88C400.376 119.019 400.707 119.088 401.059 119.088C401.635 119.088 402.104 118.976 402.467 118.752C402.84 118.528 403.15 118.256 403.395 117.936L404.163 118.72C403.822 119.168 403.395 119.525 402.883 119.792C402.382 120.059 401.752 120.192 400.995 120.192ZM400.883 112.96C400.51 112.96 400.179 113.029 399.891 113.168C399.603 113.307 399.363 113.488 399.171 113.712C398.979 113.936 398.83 114.192 398.723 114.48C398.627 114.768 398.574 115.056 398.563 115.344H403.187C403.176 115.056 403.118 114.768 403.011 114.48C402.915 114.192 402.771 113.936 402.579 113.712C402.387 113.488 402.147 113.307 401.859 113.168C401.582 113.029 401.256 112.96 400.883 112.96ZM409.682 120.192C409.117 120.192 408.6 120.096 408.13 119.904C407.672 119.712 407.277 119.44 406.946 119.088C406.626 118.725 406.376 118.288 406.194 117.776C406.024 117.264 405.938 116.688 405.938 116.048C405.938 115.376 406.029 114.784 406.21 114.272C406.392 113.749 406.642 113.317 406.962 112.976C407.282 112.624 407.661 112.357 408.098 112.176C408.546 111.995 409.037 111.904 409.57 111.904C410.104 111.904 410.594 111.989 411.042 112.16C411.49 112.331 411.874 112.587 412.194 112.928C412.514 113.259 412.765 113.68 412.946 114.192C413.128 114.693 413.218 115.28 413.218 115.952C413.218 116.037 413.213 116.123 413.202 116.208C413.202 116.293 413.197 116.363 413.186 116.416H407.218C407.218 116.789 407.282 117.141 407.41 117.472C407.549 117.792 407.73 118.075 407.954 118.32C408.189 118.555 408.456 118.741 408.754 118.88C409.064 119.019 409.394 119.088 409.746 119.088C410.322 119.088 410.792 118.976 411.154 118.752C411.528 118.528 411.837 118.256 412.082 117.936L412.85 118.72C412.509 119.168 412.082 119.525 411.57 119.792C411.069 120.059 410.44 120.192 409.682 120.192ZM409.57 112.96C409.197 112.96 408.866 113.029 408.578 113.168C408.29 113.307 408.05 113.488 407.858 113.712C407.666 113.936 407.517 114.192 407.41 114.48C407.314 114.768 407.261 115.056 407.25 115.344H411.874C411.864 115.056 411.805 114.768 411.698 114.48C411.602 114.192 411.458 113.936 411.266 113.712C411.074 113.488 410.834 113.307 410.546 113.168C410.269 113.029 409.944 112.96 409.57 112.96ZM415.282 112.096H416.498V113.344H416.594C416.786 112.928 417.058 112.587 417.41 112.32C417.762 112.043 418.21 111.904 418.754 111.904C419.661 111.904 420.375 112.144 420.898 112.624C421.431 113.104 421.698 113.877 421.698 114.944V120H420.418V115.184C420.418 114.373 420.253 113.803 419.922 113.472C419.602 113.131 419.127 112.96 418.498 112.96C417.89 112.96 417.415 113.168 417.074 113.584C416.733 114 416.562 114.608 416.562 115.408V120H415.282V112.096ZM431.118 120.192C430.478 120.192 429.923 120.075 429.454 119.84C428.995 119.605 428.617 119.296 428.318 118.912C428.019 118.528 427.801 118.091 427.662 117.6C427.523 117.099 427.454 116.581 427.454 116.048C427.454 115.515 427.523 115.003 427.662 114.512C427.801 114.011 428.014 113.568 428.302 113.184C428.601 112.8 428.979 112.491 429.438 112.256C429.897 112.021 430.446 111.904 431.086 111.904C431.758 111.904 432.307 112.016 432.734 112.24C433.161 112.464 433.523 112.763 433.822 113.136L433.022 113.888C432.766 113.611 432.494 113.397 432.206 113.248C431.929 113.088 431.566 113.008 431.118 113.008C430.414 113.008 429.843 113.28 429.406 113.824C428.979 114.357 428.766 115.099 428.766 116.048C428.766 116.517 428.825 116.939 428.942 117.312C429.059 117.685 429.225 118.005 429.438 118.272C429.651 118.539 429.902 118.741 430.19 118.88C430.478 119.019 430.798 119.088 431.15 119.088C431.577 119.088 431.945 119.013 432.254 118.864C432.563 118.704 432.851 118.475 433.118 118.176L433.886 118.944C433.577 119.317 433.198 119.621 432.75 119.856C432.302 120.08 431.758 120.192 431.118 120.192ZM437.495 120.192C437.132 120.192 436.796 120.133 436.487 120.016C436.188 119.899 435.927 119.733 435.703 119.52C435.479 119.307 435.303 119.056 435.175 118.768C435.057 118.469 434.999 118.144 434.999 117.792C434.999 117.109 435.244 116.56 435.735 116.144C436.225 115.728 436.924 115.493 437.831 115.44L439.911 115.312V114.752C439.911 114.144 439.761 113.707 439.463 113.44C439.175 113.163 438.759 113.024 438.215 113.024C437.756 113.024 437.361 113.109 437.031 113.28C436.7 113.451 436.444 113.637 436.263 113.84L435.495 113.072C435.772 112.731 436.145 112.453 436.615 112.24C437.095 112.016 437.639 111.904 438.247 111.904C438.791 111.904 439.249 111.979 439.623 112.128C439.996 112.267 440.295 112.459 440.519 112.704C440.753 112.949 440.919 113.237 441.015 113.568C441.121 113.899 441.175 114.251 441.175 114.624V120H439.975V118.656H439.879C439.665 119.136 439.367 119.515 438.983 119.792C438.599 120.059 438.103 120.192 437.495 120.192ZM437.687 119.104C438.348 119.104 438.881 118.912 439.287 118.528C439.703 118.133 439.911 117.611 439.911 116.96V116.272L437.895 116.416C436.828 116.501 436.295 116.949 436.295 117.76C436.295 118.165 436.423 118.491 436.679 118.736C436.945 118.981 437.281 119.104 437.687 119.104ZM443.751 112.096H444.967V113.344H445.063C445.255 112.928 445.527 112.587 445.879 112.32C446.231 112.043 446.679 111.904 447.223 111.904C448.129 111.904 448.844 112.144 449.367 112.624C449.9 113.104 450.167 113.877 450.167 114.944V120H448.887V115.184C448.887 114.373 448.721 113.803 448.391 113.472C448.071 113.131 447.596 112.96 446.967 112.96C446.359 112.96 445.884 113.168 445.543 113.584C445.201 114 445.031 114.608 445.031 115.408V120H443.751V112.096ZM455.743 120.192C455.103 120.192 454.548 120.075 454.079 119.84C453.62 119.605 453.242 119.296 452.943 118.912C452.644 118.528 452.426 118.091 452.287 117.6C452.148 117.099 452.079 116.581 452.079 116.048C452.079 115.515 452.148 115.003 452.287 114.512C452.426 114.011 452.639 113.568 452.927 113.184C453.226 112.8 453.604 112.491 454.063 112.256C454.522 112.021 455.071 111.904 455.711 111.904C456.383 111.904 456.932 112.016 457.359 112.24C457.786 112.464 458.148 112.763 458.447 113.136L457.647 113.888C457.391 113.611 457.119 113.397 456.831 113.248C456.554 113.088 456.191 113.008 455.743 113.008C455.039 113.008 454.468 113.28 454.031 113.824C453.604 114.357 453.391 115.099 453.391 116.048C453.391 116.517 453.45 116.939 453.567 117.312C453.684 117.685 453.85 118.005 454.063 118.272C454.276 118.539 454.527 118.741 454.815 118.88C455.103 119.019 455.423 119.088 455.775 119.088C456.202 119.088 456.57 119.013 456.879 118.864C457.188 118.704 457.476 118.475 457.743 118.176L458.511 118.944C458.202 119.317 457.823 119.621 457.375 119.856C456.927 120.08 456.383 120.192 455.743 120.192ZM463.307 120.192C462.742 120.192 462.225 120.096 461.755 119.904C461.297 119.712 460.902 119.44 460.571 119.088C460.251 118.725 460.001 118.288 459.819 117.776C459.649 117.264 459.563 116.688 459.563 116.048C459.563 115.376 459.654 114.784 459.835 114.272C460.017 113.749 460.267 113.317 460.587 112.976C460.907 112.624 461.286 112.357 461.723 112.176C462.171 111.995 462.662 111.904 463.195 111.904C463.729 111.904 464.219 111.989 464.667 112.16C465.115 112.331 465.499 112.587 465.819 112.928C466.139 113.259 466.39 113.68 466.571 114.192C466.753 114.693 466.843 115.28 466.843 115.952C466.843 116.037 466.838 116.123 466.827 116.208C466.827 116.293 466.822 116.363 466.811 116.416H460.843C460.843 116.789 460.907 117.141 461.035 117.472C461.174 117.792 461.355 118.075 461.579 118.32C461.814 118.555 462.081 118.741 462.379 118.88C462.689 119.019 463.019 119.088 463.371 119.088C463.947 119.088 464.417 118.976 464.779 118.752C465.153 118.528 465.462 118.256 465.707 117.936L466.475 118.72C466.134 119.168 465.707 119.525 465.195 119.792C464.694 120.059 464.065 120.192 463.307 120.192ZM463.195 112.96C462.822 112.96 462.491 113.029 462.203 113.168C461.915 113.307 461.675 113.488 461.483 113.712C461.291 113.936 461.142 114.192 461.035 114.48C460.939 114.768 460.886 115.056 460.875 115.344H465.499C465.489 115.056 465.43 114.768 465.323 114.48C465.227 114.192 465.083 113.936 464.891 113.712C464.699 113.488 464.459 113.307 464.171 113.168C463.894 113.029 463.569 112.96 463.195 112.96ZM468.907 108.4H470.187V120H468.907V108.4ZM472.907 108.4H474.187V120H472.907V108.4ZM479.995 120.192C479.43 120.192 478.912 120.096 478.443 119.904C477.984 119.712 477.59 119.44 477.259 119.088C476.939 118.725 476.688 118.288 476.507 117.776C476.336 117.264 476.251 116.688 476.251 116.048C476.251 115.376 476.342 114.784 476.523 114.272C476.704 113.749 476.955 113.317 477.275 112.976C477.595 112.624 477.974 112.357 478.411 112.176C478.859 111.995 479.35 111.904 479.883 111.904C480.416 111.904 480.907 111.989 481.355 112.16C481.803 112.331 482.187 112.587 482.507 112.928C482.827 113.259 483.078 113.68 483.259 114.192C483.44 114.693 483.531 115.28 483.531 115.952C483.531 116.037 483.526 116.123 483.515 116.208C483.515 116.293 483.51 116.363 483.499 116.416H477.531C477.531 116.789 477.595 117.141 477.723 117.472C477.862 117.792 478.043 118.075 478.267 118.32C478.502 118.555 478.768 118.741 479.067 118.88C479.376 119.019 479.707 119.088 480.059 119.088C480.635 119.088 481.104 118.976 481.467 118.752C481.84 118.528 482.15 118.256 482.395 117.936L483.163 118.72C482.822 119.168 482.395 119.525 481.883 119.792C481.382 120.059 480.752 120.192 479.995 120.192ZM479.883 112.96C479.51 112.96 479.179 113.029 478.891 113.168C478.603 113.307 478.363 113.488 478.171 113.712C477.979 113.936 477.83 114.192 477.723 114.48C477.627 114.768 477.574 115.056 477.563 115.344H482.187C482.176 115.056 482.118 114.768 482.011 114.48C481.915 114.192 481.771 113.936 481.579 113.712C481.387 113.488 481.147 113.307 480.859 113.168C480.582 113.029 480.256 112.96 479.883 112.96ZM488.442 120.192C487.909 120.192 487.429 120.091 487.002 119.888C486.576 119.675 486.208 119.387 485.898 119.024C485.589 118.651 485.349 118.208 485.178 117.696C485.018 117.184 484.938 116.629 484.938 116.032C484.938 115.435 485.018 114.885 485.178 114.384C485.349 113.872 485.589 113.435 485.898 113.072C486.208 112.699 486.576 112.411 487.002 112.208C487.429 112.005 487.909 111.904 488.442 111.904C489.093 111.904 489.653 112.059 490.122 112.368C490.592 112.677 490.928 113.072 491.13 113.552H491.226V108.4H492.506V120H491.29V118.384H491.194C491.098 118.661 490.96 118.912 490.778 119.136C490.608 119.349 490.4 119.536 490.154 119.696C489.92 119.856 489.653 119.979 489.354 120.064C489.066 120.149 488.762 120.192 488.442 120.192ZM488.762 119.04C489.104 119.04 489.424 118.981 489.722 118.864C490.021 118.736 490.282 118.549 490.506 118.304C490.73 118.048 490.906 117.733 491.034 117.36C491.162 116.987 491.226 116.549 491.226 116.048C491.226 115.547 491.162 115.109 491.034 114.736C490.906 114.363 490.73 114.053 490.506 113.808C490.282 113.552 490.021 113.365 489.722 113.248C489.424 113.12 489.104 113.056 488.762 113.056C488.41 113.056 488.08 113.12 487.77 113.248C487.472 113.365 487.205 113.552 486.97 113.808C486.746 114.053 486.57 114.363 486.442 114.736C486.314 115.109 486.25 115.547 486.25 116.048C486.25 116.549 486.314 116.987 486.442 117.36C486.57 117.733 486.746 118.048 486.97 118.304C487.205 118.549 487.472 118.736 487.77 118.864C488.08 118.981 488.41 119.04 488.762 119.04ZM503.127 120.192C502.807 120.192 502.498 120.149 502.199 120.064C501.911 119.979 501.644 119.856 501.399 119.696C501.164 119.536 500.956 119.349 500.775 119.136C500.604 118.912 500.471 118.661 500.375 118.384H500.279V120H499.063V108.4H500.343V113.552H500.439C500.642 113.072 500.978 112.677 501.447 112.368C501.916 112.059 502.476 111.904 503.127 111.904C503.65 111.904 504.124 112.005 504.551 112.208C504.988 112.411 505.362 112.699 505.671 113.072C505.98 113.435 506.215 113.872 506.375 114.384C506.546 114.885 506.631 115.435 506.631 116.032C506.631 116.629 506.546 117.184 506.375 117.696C506.215 118.208 505.98 118.651 505.671 119.024C505.362 119.387 504.988 119.675 504.551 119.888C504.124 120.091 503.65 120.192 503.127 120.192ZM502.807 119.04C503.159 119.04 503.484 118.981 503.783 118.864C504.092 118.736 504.359 118.549 504.583 118.304C504.818 118.048 504.999 117.733 505.127 117.36C505.255 116.987 505.319 116.549 505.319 116.048C505.319 115.547 505.255 115.109 505.127 114.736C504.999 114.363 504.818 114.053 504.583 113.808C504.359 113.552 504.092 113.365 503.783 113.248C503.484 113.12 503.159 113.056 502.807 113.056C502.466 113.056 502.146 113.12 501.847 113.248C501.548 113.365 501.287 113.552 501.063 113.808C500.839 114.053 500.663 114.363 500.535 114.736C500.407 115.109 500.343 115.547 500.343 116.048C500.343 116.549 500.407 116.987 500.535 117.36C500.663 117.733 500.839 118.048 501.063 118.304C501.287 118.549 501.548 118.736 501.847 118.864C502.146 118.981 502.466 119.04 502.807 119.04ZM509.028 123.024C508.911 123.024 508.788 123.013 508.66 122.992C508.543 122.981 508.441 122.965 508.356 122.944V121.84C508.409 121.851 508.495 121.861 508.612 121.872C508.74 121.883 508.857 121.888 508.964 121.888C509.177 121.888 509.359 121.872 509.508 121.84C509.657 121.808 509.791 121.733 509.908 121.616C510.036 121.509 510.159 121.344 510.276 121.12C510.393 120.907 510.521 120.619 510.66 120.256L507.492 112.096H508.884L511.268 118.72H511.364L513.764 112.096H515.06L511.956 120.08C511.753 120.603 511.556 121.045 511.364 121.408C511.183 121.781 510.98 122.085 510.756 122.32C510.532 122.565 510.281 122.741 510.004 122.848C509.737 122.965 509.412 123.024 509.028 123.024ZM523.011 120.192C522.296 120.192 521.773 119.979 521.443 119.552C521.112 119.125 520.947 118.539 520.947 117.792V113.136H519.539V112.096H520.947V109.952H522.211V112.096H524.499V113.136H522.211V117.68C522.211 118.192 522.307 118.549 522.499 118.752C522.701 118.955 522.957 119.056 523.267 119.056C523.48 119.056 523.672 119.019 523.843 118.944C524.013 118.859 524.173 118.747 524.323 118.608L524.899 119.504C524.408 119.963 523.779 120.192 523.011 120.192ZM526.641 108.4H527.921V113.216H528.017C528.199 112.853 528.46 112.544 528.801 112.288C529.143 112.032 529.58 111.904 530.113 111.904C531.02 111.904 531.735 112.144 532.257 112.624C532.791 113.104 533.057 113.877 533.057 114.944V120H531.777V115.184C531.777 114.373 531.612 113.803 531.281 113.472C530.961 113.131 530.487 112.96 529.857 112.96C529.249 112.96 528.775 113.168 528.433 113.584C528.092 114 527.921 114.608 527.921 115.408V120H526.641V108.4ZM538.636 120.192C538.07 120.192 537.553 120.096 537.084 119.904C536.625 119.712 536.23 119.44 535.9 119.088C535.58 118.725 535.329 118.288 535.148 117.776C534.977 117.264 534.892 116.688 534.892 116.048C534.892 115.376 534.982 114.784 535.164 114.272C535.345 113.749 535.596 113.317 535.916 112.976C536.236 112.624 536.614 112.357 537.052 112.176C537.5 111.995 537.99 111.904 538.524 111.904C539.057 111.904 539.548 111.989 539.996 112.16C540.444 112.331 540.828 112.587 541.148 112.928C541.468 113.259 541.718 113.68 541.9 114.192C542.081 114.693 542.172 115.28 542.172 115.952C542.172 116.037 542.166 116.123 542.156 116.208C542.156 116.293 542.15 116.363 542.14 116.416H536.172C536.172 116.789 536.236 117.141 536.364 117.472C536.502 117.792 536.684 118.075 536.908 118.32C537.142 118.555 537.409 118.741 537.708 118.88C538.017 119.019 538.348 119.088 538.7 119.088C539.276 119.088 539.745 118.976 540.108 118.752C540.481 118.528 540.79 118.256 541.036 117.936L541.804 118.72C541.462 119.168 541.036 119.525 540.524 119.792C540.022 120.059 539.393 120.192 538.636 120.192ZM538.524 112.96C538.15 112.96 537.82 113.029 537.532 113.168C537.244 113.307 537.004 113.488 536.812 113.712C536.62 113.936 536.47 114.192 536.364 114.48C536.268 114.768 536.214 115.056 536.204 115.344H540.828C540.817 115.056 540.758 114.768 540.652 114.48C540.556 114.192 540.412 113.936 540.22 113.712C540.028 113.488 539.788 113.307 539.5 113.168C539.222 113.029 538.897 112.96 538.524 112.96ZM550.799 120.192C550.361 120.192 549.967 120.133 549.615 120.016C549.263 119.899 548.959 119.717 548.703 119.472C548.457 119.227 548.265 118.912 548.127 118.528C547.988 118.144 547.919 117.685 547.919 117.152V112.096H549.199V116.912C549.199 117.723 549.353 118.299 549.663 118.64C549.983 118.971 550.447 119.136 551.055 119.136C551.631 119.136 552.084 118.928 552.415 118.512C552.756 118.096 552.927 117.488 552.927 116.688V112.096H554.207V120H552.991V118.752H552.895C552.703 119.168 552.436 119.515 552.095 119.792C551.764 120.059 551.332 120.192 550.799 120.192ZM560.731 117.952C560.731 117.717 560.677 117.525 560.571 117.376C560.464 117.216 560.315 117.083 560.123 116.976C559.941 116.869 559.733 116.779 559.499 116.704C559.264 116.629 559.019 116.555 558.763 116.48C558.464 116.395 558.176 116.293 557.899 116.176C557.632 116.059 557.392 115.915 557.179 115.744C556.965 115.563 556.795 115.349 556.667 115.104C556.539 114.859 556.475 114.56 556.475 114.208C556.475 113.835 556.544 113.504 556.683 113.216C556.821 112.928 557.013 112.688 557.259 112.496C557.504 112.304 557.792 112.16 558.123 112.064C558.453 111.957 558.811 111.904 559.195 111.904C559.771 111.904 560.299 112.011 560.779 112.224C561.259 112.427 561.653 112.747 561.963 113.184L561.131 113.952C560.896 113.675 560.619 113.445 560.299 113.264C559.989 113.083 559.621 112.992 559.195 112.992C559.013 112.992 558.832 113.013 558.651 113.056C558.48 113.099 558.325 113.168 558.187 113.264C558.048 113.349 557.936 113.461 557.851 113.6C557.765 113.739 557.723 113.904 557.723 114.096C557.723 114.331 557.776 114.528 557.883 114.688C557.989 114.837 558.133 114.965 558.315 115.072C558.507 115.179 558.72 115.269 558.955 115.344C559.189 115.419 559.435 115.493 559.691 115.568C559.989 115.653 560.272 115.755 560.539 115.872C560.816 115.989 561.061 116.139 561.275 116.32C561.488 116.491 561.659 116.699 561.787 116.944C561.915 117.189 561.979 117.488 561.979 117.84C561.979 118.256 561.899 118.613 561.739 118.912C561.589 119.2 561.381 119.44 561.115 119.632C560.848 119.824 560.539 119.963 560.187 120.048C559.835 120.144 559.461 120.192 559.067 120.192C558.373 120.192 557.781 120.075 557.291 119.84C556.811 119.605 556.432 119.301 556.155 118.928L557.003 118.128C557.248 118.416 557.531 118.651 557.851 118.832C558.181 119.013 558.592 119.104 559.083 119.104C559.307 119.104 559.515 119.083 559.707 119.04C559.909 118.997 560.085 118.928 560.235 118.832C560.384 118.736 560.501 118.619 560.587 118.48C560.683 118.331 560.731 118.155 560.731 117.952ZM567.276 120.192C566.711 120.192 566.193 120.096 565.724 119.904C565.265 119.712 564.871 119.44 564.54 119.088C564.22 118.725 563.969 118.288 563.788 117.776C563.617 117.264 563.532 116.688 563.532 116.048C563.532 115.376 563.623 114.784 563.804 114.272C563.985 113.749 564.236 113.317 564.556 112.976C564.876 112.624 565.255 112.357 565.692 112.176C566.14 111.995 566.631 111.904 567.164 111.904C567.697 111.904 568.188 111.989 568.636 112.16C569.084 112.331 569.468 112.587 569.788 112.928C570.108 113.259 570.359 113.68 570.54 114.192C570.721 114.693 570.812 115.28 570.812 115.952C570.812 116.037 570.807 116.123 570.796 116.208C570.796 116.293 570.791 116.363 570.78 116.416H564.812C564.812 116.789 564.876 117.141 565.004 117.472C565.143 117.792 565.324 118.075 565.548 118.32C565.783 118.555 566.049 118.741 566.348 118.88C566.657 119.019 566.988 119.088 567.34 119.088C567.916 119.088 568.385 118.976 568.748 118.752C569.121 118.528 569.431 118.256 569.676 117.936L570.444 118.72C570.103 119.168 569.676 119.525 569.164 119.792C568.663 120.059 568.033 120.192 567.276 120.192ZM567.164 112.96C566.791 112.96 566.46 113.029 566.172 113.168C565.884 113.307 565.644 113.488 565.452 113.712C565.26 113.936 565.111 114.192 565.004 114.48C564.908 114.768 564.855 115.056 564.844 115.344H569.468C569.457 115.056 569.399 114.768 569.292 114.48C569.196 114.192 569.052 113.936 568.86 113.712C568.668 113.488 568.428 113.307 568.14 113.168C567.863 113.029 567.537 112.96 567.164 112.96ZM572.876 112.096H574.092V113.376H574.188C574.358 112.96 574.604 112.613 574.924 112.336C575.244 112.048 575.644 111.904 576.124 111.904C576.529 111.904 576.886 111.984 577.196 112.144L576.764 113.296C576.625 113.221 576.476 113.173 576.316 113.152C576.166 113.12 576.012 113.104 575.852 113.104C575.329 113.104 574.913 113.317 574.604 113.744C574.305 114.16 574.156 114.693 574.156 115.344V120H572.876V112.096Z" fill="#242E30"/>
<rect width="16" height="16" transform="translate(200 126)" fill="white" fill-opacity="0.01"/>
<rect width="16" height="16" transform="translate(200 126)" fill="white" fill-opacity="0.01"/>
</g>
<defs>
<clipPath id="clip0_3158_92994">
<path d="M200 66C200 59.3726 205.373 54 212 54H1212C1218.63 54 1224 59.3726 1224 66V130C1224 136.627 1218.63 142 1212 142H212C205.373 142 200 136.627 200 130V66Z" fill="white"/>
</clipPath>
<clipPath id="clip1_3158_92994">
<rect width="21" height="21" fill="white" transform="translate(217.5 73.5)"/>
</clipPath>
</defs>
</svg>
