<svg width="800" height="64" viewBox="0 0 800 64" fill="none" xmlns="http://www.w3.org/2000/svg">
<g clip-path="url(#clip0_14516_406083)">
<path d="M0 12C0 5.37258 5.37258 0 12 0H788C794.627 0 800 5.37258 800 12V52C800 58.6274 794.627 64 788 64H12C5.37257 64 0 58.6274 0 52V12Z" fill="white"/>
<path d="M16 24C16 19.5817 19.5817 16 24 16H40C44.4183 16 48 19.5817 48 24V40C48 44.4183 44.4183 48 40 48H24C19.5817 48 16 44.4183 16 40V24Z" fill="#2B2A28"/>
<rect x="16" y="16" width="32" height="32" rx="16" fill="#2B2A28"/>
<g clip-path="url(#clip1_14516_406083)">
<path d="M43.876 20L44 20.124V43.876L43.876 44H20.124L20 43.876V20.124L20.124 20H43.876ZM20.248 20.248V43.751H43.751V20.248H20.248ZM39.0977 21.5C40.9766 21.5002 42.4998 23.0234 42.5 24.9023V39.0977C42.4998 40.9766 40.9766 42.4998 39.0977 42.5H24.9023C23.0234 42.4998 21.5002 40.9766 21.5 39.0977V24.9023C21.5002 23.0234 23.0234 21.5002 24.9023 21.5H39.0977Z" fill="white" fill-opacity="0.9"/>
</g>
<path d="M64.192 38.192C63.2853 38.192 62.5493 38.0533 61.984 37.776C61.4187 37.4987 60.9707 37.1413 60.64 36.704L61.504 35.888C61.792 36.24 62.1707 36.5173 62.64 36.72C63.12 36.9227 63.68 37.024 64.32 37.024C64.608 37.024 64.8853 36.992 65.152 36.928C65.4187 36.864 65.6533 36.768 65.856 36.64C66.0693 36.5013 66.2347 36.32 66.352 36.096C66.48 35.872 66.544 35.6 66.544 35.28C66.544 35.0027 66.48 34.768 66.352 34.576C66.224 34.3733 66.048 34.2027 65.824 34.064C65.6107 33.9147 65.3547 33.7867 65.056 33.68C64.7573 33.5627 64.432 33.4453 64.08 33.328C63.7067 33.2 63.3387 33.0667 62.976 32.928C62.6133 32.7787 62.288 32.592 62 32.368C61.712 32.144 61.4773 31.872 61.296 31.552C61.1147 31.2213 61.024 30.816 61.024 30.336C61.024 29.856 61.1093 29.4347 61.28 29.072C61.4613 28.7093 61.7067 28.4053 62.016 28.16C62.3253 27.9147 62.6933 27.728 63.12 27.6C63.5467 27.472 64.0107 27.408 64.512 27.408C65.248 27.408 65.904 27.536 66.48 27.792C67.0667 28.048 67.5413 28.4373 67.904 28.96L67.04 29.808C66.752 29.456 66.384 29.1627 65.936 28.928C65.488 28.6933 64.976 28.576 64.4 28.576C64.1547 28.576 63.9147 28.608 63.68 28.672C63.4453 28.7253 63.232 28.8213 63.04 28.96C62.848 29.0987 62.6933 29.2747 62.576 29.488C62.4587 29.7013 62.4 29.9573 62.4 30.256C62.4 30.5333 62.464 30.7733 62.592 30.976C62.72 31.168 62.8907 31.3387 63.104 31.488C63.328 31.6267 63.5893 31.7547 63.888 31.872C64.1867 31.9787 64.512 32.0907 64.864 32.208C65.2373 32.336 65.6053 32.4747 65.968 32.624C66.3307 32.7733 66.656 32.96 66.944 33.184C67.232 33.408 67.4667 33.68 67.648 34C67.8293 34.32 67.92 34.72 67.92 35.2C67.92 35.712 67.8187 36.16 67.616 36.544C67.424 36.9173 67.1573 37.2267 66.816 37.472C66.4853 37.7173 66.0907 37.8987 65.632 38.016C65.184 38.1333 64.704 38.192 64.192 38.192ZM72.7988 38.192C72.3614 38.192 71.9668 38.1333 71.6148 38.016C71.2628 37.8987 70.9588 37.7173 70.7028 37.472C70.4574 37.2267 70.2654 36.912 70.1268 36.528C69.9881 36.144 69.9188 35.6853 69.9188 35.152V30.096H71.1988V34.912C71.1988 35.7227 71.3534 36.2987 71.6628 36.64C71.9828 36.9707 72.4468 37.136 73.0548 37.136C73.6308 37.136 74.0841 36.928 74.4148 36.512C74.7561 36.096 74.9268 35.488 74.9268 34.688V30.096H76.2068V38H74.9908V36.752H74.8948C74.7028 37.168 74.4361 37.5147 74.0948 37.792C73.7641 38.0587 73.3321 38.192 72.7988 38.192ZM78.9225 30.096H80.1385V31.712H80.2345C80.3305 31.4453 80.4638 31.2 80.6345 30.976C80.8158 30.752 81.0238 30.56 81.2585 30.4C81.5038 30.24 81.7705 30.1173 82.0585 30.032C82.3572 29.9467 82.6665 29.904 82.9865 29.904C83.5092 29.904 83.9838 30.0107 84.4105 30.224C84.8478 30.4267 85.2212 30.7147 85.5305 31.088C85.8398 31.4507 86.0745 31.888 86.2345 32.4C86.4052 32.912 86.4905 33.4667 86.4905 34.064C86.4905 34.6613 86.4052 35.216 86.2345 35.728C86.0745 36.2293 85.8398 36.6667 85.5305 37.04C85.2212 37.4027 84.8478 37.6853 84.4105 37.888C83.9838 38.0907 83.5092 38.192 82.9865 38.192C82.3358 38.192 81.7758 38.0373 81.3065 37.728C80.8372 37.4187 80.5012 37.024 80.2985 36.544H80.2025V40.96H78.9225V30.096ZM82.6665 37.04C83.0185 37.04 83.3438 36.9813 83.6425 36.864C83.9518 36.736 84.2185 36.5493 84.4425 36.304C84.6772 36.048 84.8585 35.7333 84.9865 35.36C85.1145 34.9867 85.1785 34.5493 85.1785 34.048C85.1785 33.5467 85.1145 33.1093 84.9865 32.736C84.8585 32.3627 84.6772 32.0533 84.4425 31.808C84.2185 31.552 83.9518 31.3653 83.6425 31.248C83.3438 31.12 83.0185 31.056 82.6665 31.056C82.3252 31.056 82.0052 31.12 81.7065 31.248C81.4078 31.3653 81.1465 31.552 80.9225 31.808C80.6985 32.0533 80.5225 32.3627 80.3945 32.736C80.2665 33.1093 80.2025 33.5467 80.2025 34.048C80.2025 34.5493 80.2665 34.9867 80.3945 35.36C80.5225 35.7333 80.6985 36.048 80.9225 36.304C81.1465 36.5493 81.4078 36.736 81.7065 36.864C82.0052 36.9813 82.3252 37.04 82.6665 37.04ZM88.5475 30.096H89.7635V31.712H89.8595C89.9555 31.4453 90.0888 31.2 90.2595 30.976C90.4408 30.752 90.6488 30.56 90.8835 30.4C91.1288 30.24 91.3955 30.1173 91.6835 30.032C91.9822 29.9467 92.2915 29.904 92.6115 29.904C93.1342 29.904 93.6088 30.0107 94.0355 30.224C94.4728 30.4267 94.8462 30.7147 95.1555 31.088C95.4648 31.4507 95.6995 31.888 95.8595 32.4C96.0302 32.912 96.1155 33.4667 96.1155 34.064C96.1155 34.6613 96.0302 35.216 95.8595 35.728C95.6995 36.2293 95.4648 36.6667 95.1555 37.04C94.8462 37.4027 94.4728 37.6853 94.0355 37.888C93.6088 38.0907 93.1342 38.192 92.6115 38.192C91.9608 38.192 91.4008 38.0373 90.9315 37.728C90.4622 37.4187 90.1262 37.024 89.9235 36.544H89.8275V40.96H88.5475V30.096ZM92.2915 37.04C92.6435 37.04 92.9688 36.9813 93.2675 36.864C93.5768 36.736 93.8435 36.5493 94.0675 36.304C94.3022 36.048 94.4835 35.7333 94.6115 35.36C94.7395 34.9867 94.8035 34.5493 94.8035 34.048C94.8035 33.5467 94.7395 33.1093 94.6115 32.736C94.4835 32.3627 94.3022 32.0533 94.0675 31.808C93.8435 31.552 93.5768 31.3653 93.2675 31.248C92.9688 31.12 92.6435 31.056 92.2915 31.056C91.9502 31.056 91.6302 31.12 91.3315 31.248C91.0328 31.3653 90.7715 31.552 90.5475 31.808C90.3235 32.0533 90.1475 32.3627 90.0195 32.736C89.8915 33.1093 89.8275 33.5467 89.8275 34.048C89.8275 34.5493 89.8915 34.9867 90.0195 35.36C90.1475 35.7333 90.3235 36.048 90.5475 36.304C90.7715 36.5493 91.0328 36.736 91.3315 36.864C91.6302 36.9813 91.9502 37.04 92.2915 37.04ZM101.293 38.192C100.663 38.192 100.109 38.0853 99.6285 37.872C99.1592 37.648 98.7645 37.3493 98.4445 36.976C98.1352 36.6027 97.9005 36.1653 97.7405 35.664C97.5912 35.1627 97.5165 34.624 97.5165 34.048C97.5165 33.472 97.5912 32.9333 97.7405 32.432C97.9005 31.9307 98.1352 31.4933 98.4445 31.12C98.7645 30.7467 99.1592 30.4533 99.6285 30.24C100.109 30.016 100.663 29.904 101.293 29.904C101.922 29.904 102.466 30.016 102.925 30.24C103.394 30.4533 103.783 30.7467 104.093 31.12C104.402 31.4933 104.631 31.9307 104.781 32.432C104.941 32.9333 105.021 33.472 105.021 34.048C105.021 34.624 104.941 35.1627 104.781 35.664C104.631 36.1653 104.402 36.6027 104.093 36.976C103.783 37.3493 103.394 37.648 102.925 37.872C102.466 38.0853 101.922 38.192 101.293 38.192ZM98.8285 34.048C98.8285 34.5067 98.8765 34.928 98.9725 35.312C99.0792 35.6853 99.2338 36.0107 99.4365 36.288C99.6392 36.5547 99.8952 36.7627 100.205 36.912C100.514 37.0613 100.877 37.136 101.293 37.136C101.698 37.136 102.05 37.0613 102.349 36.912C102.658 36.7627 102.909 36.5547 103.101 36.288C103.303 36.0107 103.453 35.6853 103.549 35.312C103.655 34.928 103.709 34.5067 103.709 34.048C103.709 33.5893 103.655 33.1733 103.549 32.8C103.453 32.416 103.303 32.0907 103.101 31.824C102.909 31.5467 102.658 31.3333 102.349 31.184C102.05 31.0347 101.698 30.96 101.293 30.96C100.877 30.96 100.514 31.0347 100.205 31.184C99.8952 31.3333 99.6392 31.5467 99.4365 31.824C99.2338 32.0907 99.0792 32.416 98.9725 32.8C98.8765 33.1733 98.8285 33.5893 98.8285 34.048ZM107.079 30.096H108.295V31.376H108.391C108.561 30.96 108.807 30.6133 109.127 30.336C109.447 30.048 109.847 29.904 110.327 29.904C110.732 29.904 111.089 29.984 111.399 30.144L110.967 31.296C110.828 31.2213 110.679 31.1733 110.519 31.152C110.369 31.12 110.215 31.104 110.055 31.104C109.532 31.104 109.116 31.3173 108.807 31.744C108.508 32.16 108.359 32.6933 108.359 33.344V38H107.079V30.096ZM115.48 38.192C114.765 38.192 114.242 37.9787 113.912 37.552C113.581 37.1253 113.416 36.5387 113.416 35.792V31.136H112.008V30.096H113.416V27.952H114.68V30.096H116.968V31.136H114.68V35.68C114.68 36.192 114.776 36.5493 114.968 36.752C115.17 36.9547 115.426 37.056 115.736 37.056C115.949 37.056 116.141 37.0187 116.312 36.944C116.482 36.8587 116.642 36.7467 116.792 36.608L117.368 37.504C116.877 37.9627 116.248 38.192 115.48 38.192ZM120.598 28C120.598 28.224 120.518 28.416 120.358 28.576C120.209 28.736 120.006 28.816 119.75 28.816C119.483 28.816 119.275 28.736 119.126 28.576C118.977 28.416 118.902 28.224 118.902 28C118.902 27.7867 118.977 27.6 119.126 27.44C119.275 27.2693 119.483 27.184 119.75 27.184C120.006 27.184 120.209 27.2693 120.358 27.44C120.518 27.6 120.598 27.7867 120.598 28ZM119.11 30.096H120.39V38H119.11V30.096ZM123.11 30.096H124.326V31.344H124.422C124.614 30.928 124.886 30.5867 125.238 30.32C125.59 30.0427 126.038 29.904 126.582 29.904C127.489 29.904 128.203 30.144 128.726 30.624C129.259 31.104 129.526 31.8773 129.526 32.944V38H128.246V33.184C128.246 32.3733 128.081 31.8027 127.75 31.472C127.43 31.1307 126.955 30.96 126.326 30.96C125.718 30.96 125.243 31.168 124.902 31.584C124.561 32 124.39 32.608 124.39 33.408V38H123.11V30.096ZM135.246 41.152C134.564 41.152 133.972 41.0293 133.47 40.784C132.969 40.5493 132.569 40.256 132.27 39.904L133.118 39.088C133.342 39.3653 133.63 39.584 133.982 39.744C134.345 39.9147 134.745 40 135.182 40C135.865 40 136.398 39.8347 136.782 39.504C137.177 39.1733 137.374 38.592 137.374 37.76V36.224H137.278C137.193 36.4907 137.07 36.7307 136.91 36.944C136.75 37.1467 136.558 37.3227 136.334 37.472C136.121 37.6107 135.881 37.7227 135.614 37.808C135.358 37.8827 135.097 37.92 134.83 37.92C134.329 37.92 133.87 37.8293 133.454 37.648C133.049 37.4667 132.692 37.2053 132.382 36.864C132.084 36.512 131.849 36.0853 131.678 35.584C131.518 35.0827 131.438 34.5173 131.438 33.888C131.438 33.2693 131.518 32.7147 131.678 32.224C131.849 31.7333 132.084 31.3173 132.382 30.976C132.692 30.6347 133.049 30.3733 133.454 30.192C133.87 30 134.329 29.904 134.83 29.904C135.417 29.904 135.94 30.0587 136.398 30.368C136.868 30.6667 137.182 31.0827 137.342 31.616H137.438V30.096H138.654V37.92C138.654 38.8907 138.361 39.6693 137.774 40.256C137.198 40.8533 136.356 41.152 135.246 41.152ZM135.086 36.768C135.79 36.768 136.345 36.5227 136.75 36.032C137.166 35.5413 137.374 34.832 137.374 33.904C137.374 32.9653 137.166 32.256 136.75 31.776C136.345 31.296 135.79 31.056 135.086 31.056C134.372 31.056 133.801 31.296 133.374 31.776C132.958 32.256 132.75 32.9653 132.75 33.904C132.75 34.832 132.958 35.5413 133.374 36.032C133.801 36.5227 134.372 36.768 135.086 36.768ZM147.651 38.192C146.937 38.192 146.414 37.9787 146.083 37.552C145.753 37.1253 145.587 36.5387 145.587 35.792V31.136H144.179V30.096H145.587V27.952H146.851V30.096H149.139V31.136H146.851V35.68C146.851 36.192 146.947 36.5493 147.139 36.752C147.342 36.9547 147.598 37.056 147.907 37.056C148.121 37.056 148.313 37.0187 148.483 36.944C148.654 36.8587 148.814 36.7467 148.963 36.608L149.539 37.504C149.049 37.9627 148.419 38.192 147.651 38.192ZM154.245 38.192C153.68 38.192 153.162 38.096 152.693 37.904C152.234 37.712 151.84 37.44 151.509 37.088C151.189 36.7253 150.938 36.288 150.757 35.776C150.586 35.264 150.501 34.688 150.501 34.048C150.501 33.376 150.592 32.784 150.773 32.272C150.954 31.7493 151.205 31.3173 151.525 30.976C151.845 30.624 152.224 30.3573 152.661 30.176C153.109 29.9947 153.6 29.904 154.133 29.904C154.666 29.904 155.157 29.9893 155.605 30.16C156.053 30.3307 156.437 30.5867 156.757 30.928C157.077 31.2587 157.328 31.68 157.509 32.192C157.69 32.6933 157.781 33.28 157.781 33.952C157.781 34.0373 157.776 34.1227 157.765 34.208C157.765 34.2933 157.76 34.3627 157.749 34.416H151.781C151.781 34.7893 151.845 35.1413 151.973 35.472C152.112 35.792 152.293 36.0747 152.517 36.32C152.752 36.5547 153.018 36.7413 153.317 36.88C153.626 37.0187 153.957 37.088 154.309 37.088C154.885 37.088 155.354 36.976 155.717 36.752C156.09 36.528 156.4 36.256 156.645 35.936L157.413 36.72C157.072 37.168 156.645 37.5253 156.133 37.792C155.632 38.0587 155.002 38.192 154.245 38.192ZM154.133 30.96C153.76 30.96 153.429 31.0293 153.141 31.168C152.853 31.3067 152.613 31.488 152.421 31.712C152.229 31.936 152.08 32.192 151.973 32.48C151.877 32.768 151.824 33.056 151.813 33.344H156.437C156.426 33.056 156.368 32.768 156.261 32.48C156.165 32.192 156.021 31.936 155.829 31.712C155.637 31.488 155.397 31.3067 155.109 31.168C154.832 31.0293 154.506 30.96 154.133 30.96ZM161.499 33.984L158.859 30.096H160.395L162.267 33.056H162.331L164.267 30.096H165.643L163.003 33.92L165.771 38H164.235L162.235 34.848H162.171L160.107 38H158.731L161.499 33.984ZM170.089 38.192C169.374 38.192 168.852 37.9787 168.521 37.552C168.19 37.1253 168.025 36.5387 168.025 35.792V31.136H166.617V30.096H168.025V27.952H169.289V30.096H171.577V31.136H169.289V35.68C169.289 36.192 169.385 36.5493 169.577 36.752C169.78 36.9547 170.036 37.056 170.345 37.056C170.558 37.056 170.75 37.0187 170.921 36.944C171.092 36.8587 171.252 36.7467 171.401 36.608L171.977 37.504C171.486 37.9627 170.857 38.192 170.089 38.192Z" fill="black" fill-opacity="0.76"/>
<rect width="16" height="16" transform="translate(0 48)" fill="white" fill-opacity="0.01"/>
<rect width="16" height="16" transform="translate(0 48)" fill="white" fill-opacity="0.01"/>
</g>
<defs>
<clipPath id="clip0_14516_406083">
<path d="M0 12C0 5.37258 5.37258 0 12 0H788C794.627 0 800 5.37258 800 12V52C800 58.6274 794.627 64 788 64H12C5.37257 64 0 58.6274 0 52V12Z" fill="white"/>
</clipPath>
<clipPath id="clip1_14516_406083">
<rect width="24" height="24" fill="white" transform="translate(20 20)"/>
</clipPath>
</defs>
</svg>
