<svg width="1024" height="88" viewBox="0 0 1024 88" fill="none" xmlns="http://www.w3.org/2000/svg">
<g clip-path="url(#clip0_8988_3010)">
<path d="M0 12C0 5.37258 5.37258 0 12 0H1012C1018.63 0 1024 5.37258 1024 12V76C1024 82.6274 1018.63 88 1012 88H12C5.37258 88 0 82.6274 0 76V12Z" fill="white"/>
<path d="M19.92 26.7H16.36V24H26.86V26.7H23.3V37H19.92V26.7ZM31.6709 24.28C31.6709 24.7333 31.5176 25.14 31.2109 25.5C30.9043 25.8467 30.4576 26.02 29.8709 26.02C29.2709 26.02 28.8243 25.8467 28.5309 25.5C28.2376 25.14 28.0909 24.7333 28.0909 24.28C28.0909 23.8267 28.2376 23.4267 28.5309 23.08C28.8243 22.72 29.2709 22.54 29.8709 22.54C30.4576 22.54 30.9043 22.72 31.2109 23.08C31.5176 23.4267 31.6709 23.8267 31.6709 24.28ZM28.2709 27.12H31.4509V37H28.2709V27.12ZM37.9039 37.22C36.6506 37.22 35.7439 36.9067 35.1839 36.28C34.6372 35.6533 34.3639 34.6533 34.3639 33.28V29.66H32.9439V27.12H34.3639V24.44H37.5039V27.12H40.4239V29.66H37.5039V33.34C37.5039 33.78 37.5772 34.1 37.7239 34.3C37.8839 34.5 38.1439 34.6 38.5039 34.6C38.7439 34.6 38.9706 34.5533 39.1839 34.46C39.4106 34.3533 39.5972 34.2267 39.7439 34.08L40.7639 36.24C40.1106 36.8933 39.1572 37.22 37.9039 37.22ZM42.1186 22.5H45.2986V37H42.1186V22.5ZM51.9716 37.24C51.0649 37.24 50.2849 37.0933 49.6316 36.8C48.9916 36.5067 48.4649 36.12 48.0516 35.64C47.6382 35.16 47.3316 34.6133 47.1316 34C46.9316 33.3733 46.8316 32.7267 46.8316 32.06C46.8316 31.4067 46.9182 30.7667 47.0916 30.14C47.2782 29.5133 47.5649 28.96 47.9516 28.48C48.3516 28 48.8649 27.6133 49.4916 27.32C50.1182 27.0267 50.8849 26.88 51.7916 26.88C52.6982 26.88 53.4649 27.0267 54.0916 27.32C54.7182 27.6 55.2182 27.98 55.5916 28.46C55.9782 28.9267 56.2516 29.4667 56.4116 30.08C56.5849 30.6933 56.6716 31.3267 56.6716 31.98C56.6716 32.1267 56.6582 32.32 56.6316 32.56C56.6049 32.7867 56.5716 32.96 56.5316 33.08H50.0516C50.1049 33.3733 50.2049 33.62 50.3516 33.82C50.5116 34.02 50.6916 34.18 50.8916 34.3C51.0916 34.42 51.2982 34.5067 51.5116 34.56C51.7382 34.6133 51.9516 34.64 52.1516 34.64C52.6182 34.64 53.0182 34.5667 53.3516 34.42C53.6982 34.2733 53.9649 34.08 54.1516 33.84L55.8916 35.66C55.5716 36.1267 55.0649 36.5067 54.3716 36.8C53.6782 37.0933 52.8782 37.24 51.9716 37.24ZM51.7916 29.24C51.3649 29.24 50.9849 29.3733 50.6516 29.64C50.3182 29.8933 50.0982 30.34 49.9916 30.98H53.5516C53.4582 30.34 53.2449 29.8933 52.9116 29.64C52.5782 29.3733 52.2049 29.24 51.7916 29.24Z" fill="#242E30"/>
<path d="M20.192 66.192C19.2853 66.192 18.5493 66.0533 17.984 65.776C17.4187 65.4987 16.9707 65.1413 16.64 64.704L17.504 63.888C17.792 64.24 18.1707 64.5173 18.64 64.72C19.12 64.9227 19.68 65.024 20.32 65.024C20.608 65.024 20.8853 64.992 21.152 64.928C21.4187 64.864 21.6533 64.768 21.856 64.64C22.0693 64.5013 22.2347 64.32 22.352 64.096C22.48 63.872 22.544 63.6 22.544 63.28C22.544 63.0027 22.48 62.768 22.352 62.576C22.224 62.3733 22.048 62.2027 21.824 62.064C21.6107 61.9147 21.3547 61.7867 21.056 61.68C20.7573 61.5627 20.432 61.4453 20.08 61.328C19.7067 61.2 19.3387 61.0667 18.976 60.928C18.6133 60.7787 18.288 60.592 18 60.368C17.712 60.144 17.4773 59.872 17.296 59.552C17.1147 59.2213 17.024 58.816 17.024 58.336C17.024 57.856 17.1093 57.4347 17.28 57.072C17.4613 56.7093 17.7067 56.4053 18.016 56.16C18.3253 55.9147 18.6933 55.728 19.12 55.6C19.5467 55.472 20.0107 55.408 20.512 55.408C21.248 55.408 21.904 55.536 22.48 55.792C23.0667 56.048 23.5413 56.4373 23.904 56.96L23.04 57.808C22.752 57.456 22.384 57.1627 21.936 56.928C21.488 56.6933 20.976 56.576 20.4 56.576C20.1547 56.576 19.9147 56.608 19.68 56.672C19.4453 56.7253 19.232 56.8213 19.04 56.96C18.848 57.0987 18.6933 57.2747 18.576 57.488C18.4587 57.7013 18.4 57.9573 18.4 58.256C18.4 58.5333 18.464 58.7733 18.592 58.976C18.72 59.168 18.8907 59.3387 19.104 59.488C19.328 59.6267 19.5893 59.7547 19.888 59.872C20.1867 59.9787 20.512 60.0907 20.864 60.208C21.2373 60.336 21.6053 60.4747 21.968 60.624C22.3307 60.7733 22.656 60.96 22.944 61.184C23.232 61.408 23.4667 61.68 23.648 62C23.8293 62.32 23.92 62.72 23.92 63.2C23.92 63.712 23.8187 64.16 23.616 64.544C23.424 64.9173 23.1573 65.2267 22.816 65.472C22.4853 65.7173 22.0907 65.8987 21.632 66.016C21.184 66.1333 20.704 66.192 20.192 66.192ZM28.7988 66.192C28.3614 66.192 27.9668 66.1333 27.6148 66.016C27.2628 65.8987 26.9588 65.7173 26.7028 65.472C26.4574 65.2267 26.2654 64.912 26.1268 64.528C25.9881 64.144 25.9188 63.6853 25.9188 63.152V58.096H27.1988V62.912C27.1988 63.7227 27.3534 64.2987 27.6628 64.64C27.9828 64.9707 28.4468 65.136 29.0548 65.136C29.6308 65.136 30.0841 64.928 30.4148 64.512C30.7561 64.096 30.9268 63.488 30.9268 62.688V58.096H32.2068V66H30.9908V64.752H30.8948C30.7028 65.168 30.4361 65.5147 30.0948 65.792C29.7641 66.0587 29.3321 66.192 28.7988 66.192ZM34.9225 58.096H36.1385V59.712H36.2345C36.3305 59.4453 36.4638 59.2 36.6345 58.976C36.8158 58.752 37.0238 58.56 37.2585 58.4C37.5038 58.24 37.7705 58.1173 38.0585 58.032C38.3572 57.9467 38.6665 57.904 38.9865 57.904C39.5092 57.904 39.9838 58.0107 40.4105 58.224C40.8478 58.4267 41.2212 58.7147 41.5305 59.088C41.8398 59.4507 42.0745 59.888 42.2345 60.4C42.4052 60.912 42.4905 61.4667 42.4905 62.064C42.4905 62.6613 42.4052 63.216 42.2345 63.728C42.0745 64.2293 41.8398 64.6667 41.5305 65.04C41.2212 65.4027 40.8478 65.6853 40.4105 65.888C39.9838 66.0907 39.5092 66.192 38.9865 66.192C38.3358 66.192 37.7758 66.0373 37.3065 65.728C36.8372 65.4187 36.5012 65.024 36.2985 64.544H36.2025V68.96H34.9225V58.096ZM38.6665 65.04C39.0185 65.04 39.3438 64.9813 39.6425 64.864C39.9518 64.736 40.2185 64.5493 40.4425 64.304C40.6772 64.048 40.8585 63.7333 40.9865 63.36C41.1145 62.9867 41.1785 62.5493 41.1785 62.048C41.1785 61.5467 41.1145 61.1093 40.9865 60.736C40.8585 60.3627 40.6772 60.0533 40.4425 59.808C40.2185 59.552 39.9518 59.3653 39.6425 59.248C39.3438 59.12 39.0185 59.056 38.6665 59.056C38.3252 59.056 38.0052 59.12 37.7065 59.248C37.4078 59.3653 37.1465 59.552 36.9225 59.808C36.6985 60.0533 36.5225 60.3627 36.3945 60.736C36.2665 61.1093 36.2025 61.5467 36.2025 62.048C36.2025 62.5493 36.2665 62.9867 36.3945 63.36C36.5225 63.7333 36.6985 64.048 36.9225 64.304C37.1465 64.5493 37.4078 64.736 37.7065 64.864C38.0052 64.9813 38.3252 65.04 38.6665 65.04ZM44.5475 58.096H45.7635V59.712H45.8595C45.9555 59.4453 46.0888 59.2 46.2595 58.976C46.4408 58.752 46.6488 58.56 46.8835 58.4C47.1288 58.24 47.3955 58.1173 47.6835 58.032C47.9822 57.9467 48.2915 57.904 48.6115 57.904C49.1342 57.904 49.6088 58.0107 50.0355 58.224C50.4728 58.4267 50.8462 58.7147 51.1555 59.088C51.4648 59.4507 51.6995 59.888 51.8595 60.4C52.0302 60.912 52.1155 61.4667 52.1155 62.064C52.1155 62.6613 52.0302 63.216 51.8595 63.728C51.6995 64.2293 51.4648 64.6667 51.1555 65.04C50.8462 65.4027 50.4728 65.6853 50.0355 65.888C49.6088 66.0907 49.1342 66.192 48.6115 66.192C47.9608 66.192 47.4008 66.0373 46.9315 65.728C46.4622 65.4187 46.1262 65.024 45.9235 64.544H45.8275V68.96H44.5475V58.096ZM48.2915 65.04C48.6435 65.04 48.9688 64.9813 49.2675 64.864C49.5768 64.736 49.8435 64.5493 50.0675 64.304C50.3022 64.048 50.4835 63.7333 50.6115 63.36C50.7395 62.9867 50.8035 62.5493 50.8035 62.048C50.8035 61.5467 50.7395 61.1093 50.6115 60.736C50.4835 60.3627 50.3022 60.0533 50.0675 59.808C49.8435 59.552 49.5768 59.3653 49.2675 59.248C48.9688 59.12 48.6435 59.056 48.2915 59.056C47.9502 59.056 47.6302 59.12 47.3315 59.248C47.0328 59.3653 46.7715 59.552 46.5475 59.808C46.3235 60.0533 46.1475 60.3627 46.0195 60.736C45.8915 61.1093 45.8275 61.5467 45.8275 62.048C45.8275 62.5493 45.8915 62.9867 46.0195 63.36C46.1475 63.7333 46.3235 64.048 46.5475 64.304C46.7715 64.5493 47.0328 64.736 47.3315 64.864C47.6302 64.9813 47.9502 65.04 48.2915 65.04ZM57.2925 66.192C56.6632 66.192 56.1085 66.0853 55.6285 65.872C55.1592 65.648 54.7645 65.3493 54.4445 64.976C54.1352 64.6027 53.9005 64.1653 53.7405 63.664C53.5912 63.1627 53.5165 62.624 53.5165 62.048C53.5165 61.472 53.5912 60.9333 53.7405 60.432C53.9005 59.9307 54.1352 59.4933 54.4445 59.12C54.7645 58.7467 55.1592 58.4533 55.6285 58.24C56.1085 58.016 56.6632 57.904 57.2925 57.904C57.9218 57.904 58.4658 58.016 58.9245 58.24C59.3938 58.4533 59.7832 58.7467 60.0925 59.12C60.4018 59.4933 60.6312 59.9307 60.7805 60.432C60.9405 60.9333 61.0205 61.472 61.0205 62.048C61.0205 62.624 60.9405 63.1627 60.7805 63.664C60.6312 64.1653 60.4018 64.6027 60.0925 64.976C59.7832 65.3493 59.3938 65.648 58.9245 65.872C58.4658 66.0853 57.9218 66.192 57.2925 66.192ZM54.8285 62.048C54.8285 62.5067 54.8765 62.928 54.9725 63.312C55.0792 63.6853 55.2338 64.0107 55.4365 64.288C55.6392 64.5547 55.8952 64.7627 56.2045 64.912C56.5138 65.0613 56.8765 65.136 57.2925 65.136C57.6978 65.136 58.0498 65.0613 58.3485 64.912C58.6578 64.7627 58.9085 64.5547 59.1005 64.288C59.3032 64.0107 59.4525 63.6853 59.5485 63.312C59.6552 62.928 59.7085 62.5067 59.7085 62.048C59.7085 61.5893 59.6552 61.1733 59.5485 60.8C59.4525 60.416 59.3032 60.0907 59.1005 59.824C58.9085 59.5467 58.6578 59.3333 58.3485 59.184C58.0498 59.0347 57.6978 58.96 57.2925 58.96C56.8765 58.96 56.5138 59.0347 56.2045 59.184C55.8952 59.3333 55.6392 59.5467 55.4365 59.824C55.2338 60.0907 55.0792 60.416 54.9725 60.8C54.8765 61.1733 54.8285 61.5893 54.8285 62.048ZM63.0788 58.096H64.2948V59.376H64.3908C64.5614 58.96 64.8068 58.6133 65.1268 58.336C65.4468 58.048 65.8468 57.904 66.3268 57.904C66.7321 57.904 67.0894 57.984 67.3988 58.144L66.9668 59.296C66.8281 59.2213 66.6788 59.1733 66.5188 59.152C66.3694 59.12 66.2148 59.104 66.0548 59.104C65.5321 59.104 65.1161 59.3173 64.8068 59.744C64.5081 60.16 64.3588 60.6933 64.3588 61.344V66H63.0788V58.096ZM71.4795 66.192C70.7648 66.192 70.2422 65.9787 69.9115 65.552C69.5808 65.1253 69.4155 64.5387 69.4155 63.792V59.136H68.0075V58.096H69.4155V55.952H70.6795V58.096H72.9675V59.136H70.6795V63.68C70.6795 64.192 70.7755 64.5493 70.9675 64.752C71.1702 64.9547 71.4262 65.056 71.7355 65.056C71.9488 65.056 72.1408 65.0187 72.3115 64.944C72.4822 64.8587 72.6422 64.7467 72.7915 64.608L73.3675 65.504C72.8768 65.9627 72.2475 66.192 71.4795 66.192ZM76.598 56C76.598 56.224 76.518 56.416 76.358 56.576C76.2087 56.736 76.006 56.816 75.75 56.816C75.4833 56.816 75.2753 56.736 75.126 56.576C74.9767 56.416 74.902 56.224 74.902 56C74.902 55.7867 74.9767 55.6 75.126 55.44C75.2753 55.2693 75.4833 55.184 75.75 55.184C76.006 55.184 76.2087 55.2693 76.358 55.44C76.518 55.6 76.598 55.7867 76.598 56ZM75.11 58.096H76.39V66H75.11V58.096ZM79.11 58.096H80.326V59.344H80.422C80.614 58.928 80.886 58.5867 81.238 58.32C81.59 58.0427 82.038 57.904 82.582 57.904C83.4887 57.904 84.2033 58.144 84.726 58.624C85.2593 59.104 85.526 59.8773 85.526 60.944V66H84.246V61.184C84.246 60.3733 84.0807 59.8027 83.75 59.472C83.43 59.1307 82.9553 58.96 82.326 58.96C81.718 58.96 81.2433 59.168 80.902 59.584C80.5607 60 80.39 60.608 80.39 61.408V66H79.11V58.096ZM91.2464 69.152C90.5637 69.152 89.9717 69.0293 89.4704 68.784C88.969 68.5493 88.569 68.256 88.2704 67.904L89.1184 67.088C89.3424 67.3653 89.6304 67.584 89.9824 67.744C90.345 67.9147 90.745 68 91.1824 68C91.865 68 92.3984 67.8347 92.7824 67.504C93.177 67.1733 93.3744 66.592 93.3744 65.76V64.224H93.2784C93.193 64.4907 93.0704 64.7307 92.9104 64.944C92.7504 65.1467 92.5584 65.3227 92.3344 65.472C92.121 65.6107 91.881 65.7227 91.6144 65.808C91.3584 65.8827 91.097 65.92 90.8304 65.92C90.329 65.92 89.8704 65.8293 89.4544 65.648C89.049 65.4667 88.6917 65.2053 88.3824 64.864C88.0837 64.512 87.849 64.0853 87.6784 63.584C87.5184 63.0827 87.4384 62.5173 87.4384 61.888C87.4384 61.2693 87.5184 60.7147 87.6784 60.224C87.849 59.7333 88.0837 59.3173 88.3824 58.976C88.6917 58.6347 89.049 58.3733 89.4544 58.192C89.8704 58 90.329 57.904 90.8304 57.904C91.417 57.904 91.9397 58.0587 92.3984 58.368C92.8677 58.6667 93.1824 59.0827 93.3424 59.616H93.4384V58.096H94.6544V65.92C94.6544 66.8907 94.361 67.6693 93.7744 68.256C93.1984 68.8533 92.3557 69.152 91.2464 69.152ZM91.0864 64.768C91.7904 64.768 92.345 64.5227 92.7504 64.032C93.1664 63.5413 93.3744 62.832 93.3744 61.904C93.3744 60.9653 93.1664 60.256 92.7504 59.776C92.345 59.296 91.7904 59.056 91.0864 59.056C90.3717 59.056 89.801 59.296 89.3744 59.776C88.9584 60.256 88.7504 60.9653 88.7504 61.904C88.7504 62.832 88.9584 63.5413 89.3744 64.032C89.801 64.5227 90.3717 64.768 91.0864 64.768ZM103.651 66.192C102.937 66.192 102.414 65.9787 102.083 65.552C101.753 65.1253 101.587 64.5387 101.587 63.792V59.136H100.179V58.096H101.587V55.952H102.851V58.096H105.139V59.136H102.851V63.68C102.851 64.192 102.947 64.5493 103.139 64.752C103.342 64.9547 103.598 65.056 103.907 65.056C104.121 65.056 104.313 65.0187 104.483 64.944C104.654 64.8587 104.814 64.7467 104.963 64.608L105.539 65.504C105.049 65.9627 104.419 66.192 103.651 66.192ZM110.245 66.192C109.68 66.192 109.162 66.096 108.693 65.904C108.234 65.712 107.84 65.44 107.509 65.088C107.189 64.7253 106.938 64.288 106.757 63.776C106.586 63.264 106.501 62.688 106.501 62.048C106.501 61.376 106.592 60.784 106.773 60.272C106.954 59.7493 107.205 59.3173 107.525 58.976C107.845 58.624 108.224 58.3573 108.661 58.176C109.109 57.9947 109.6 57.904 110.133 57.904C110.666 57.904 111.157 57.9893 111.605 58.16C112.053 58.3307 112.437 58.5867 112.757 58.928C113.077 59.2587 113.328 59.68 113.509 60.192C113.69 60.6933 113.781 61.28 113.781 61.952C113.781 62.0373 113.776 62.1227 113.765 62.208C113.765 62.2933 113.76 62.3627 113.749 62.416H107.781C107.781 62.7893 107.845 63.1413 107.973 63.472C108.112 63.792 108.293 64.0747 108.517 64.32C108.752 64.5547 109.018 64.7413 109.317 64.88C109.626 65.0187 109.957 65.088 110.309 65.088C110.885 65.088 111.354 64.976 111.717 64.752C112.09 64.528 112.4 64.256 112.645 63.936L113.413 64.72C113.072 65.168 112.645 65.5253 112.133 65.792C111.632 66.0587 111.002 66.192 110.245 66.192ZM110.133 58.96C109.76 58.96 109.429 59.0293 109.141 59.168C108.853 59.3067 108.613 59.488 108.421 59.712C108.229 59.936 108.08 60.192 107.973 60.48C107.877 60.768 107.824 61.056 107.813 61.344H112.437C112.426 61.056 112.368 60.768 112.261 60.48C112.165 60.192 112.021 59.936 111.829 59.712C111.637 59.488 111.397 59.3067 111.109 59.168C110.832 59.0293 110.506 58.96 110.133 58.96ZM117.499 61.984L114.859 58.096H116.395L118.267 61.056H118.331L120.267 58.096H121.643L119.003 61.92L121.771 66H120.235L118.235 62.848H118.171L116.107 66H114.731L117.499 61.984ZM126.089 66.192C125.374 66.192 124.852 65.9787 124.521 65.552C124.19 65.1253 124.025 64.5387 124.025 63.792V59.136H122.617V58.096H124.025V55.952H125.289V58.096H127.577V59.136H125.289V63.68C125.289 64.192 125.385 64.5493 125.577 64.752C125.78 64.9547 126.036 65.056 126.345 65.056C126.558 65.056 126.75 65.0187 126.921 64.944C127.092 64.8587 127.252 64.7467 127.401 64.608L127.977 65.504C127.486 65.9627 126.857 66.192 126.089 66.192Z" fill="#242E30"/>
<path d="M976 28C976 16.9543 984.954 8 996 8C1007.05 8 1016 16.9543 1016 28C1016 39.0457 1007.05 48 996 48C984.954 48 976 39.0457 976 28Z" fill="white" fill-opacity="0.01"/>
<path d="M1001.8 20.8075L996 26.6088L990.199 20.8075L988.807 22.1988L994.609 28L988.807 33.8013L990.199 35.1926L996 29.3913L1001.8 35.1926L1003.19 33.8013L997.391 28L1003.19 22.1988L1001.8 20.8075Z" fill="#242E30"/>
<rect width="16" height="16" transform="translate(0 72)" fill="white" fill-opacity="0.01"/>
<rect width="16" height="16" transform="translate(0 72)" fill="white" fill-opacity="0.01"/>
</g>
<defs>
<clipPath id="clip0_8988_3010">
<path d="M0 12C0 5.37258 5.37258 0 12 0H1012C1018.63 0 1024 5.37258 1024 12V76C1024 82.6274 1018.63 88 1012 88H12C5.37258 88 0 82.6274 0 76V12Z" fill="white"/>
</clipPath>
</defs>
</svg>
