<svg width="524" height="196" viewBox="0 0 524 196" fill="none" xmlns="http://www.w3.org/2000/svg">
<g clip-path="url(#clip0_14516_406066)">
<path d="M200 66C200 59.3726 205.373 54 212 54H1212C1218.63 54 1224 59.3726 1224 66V130C1224 136.627 1218.63 142 1212 142H212C205.373 142 200 136.627 200 130V66Z" fill="#FFD2D1"/>
<path d="M216 78C216 73.5817 219.582 70 224 70H240C244.418 70 248 73.5817 248 78V94C248 98.4183 244.418 102 240 102H224C219.582 102 216 98.4183 216 94V78Z" fill="#CC0300"/>
<rect x="216" y="70" width="32" height="32" rx="16" fill="white" fill-opacity="0.01"/>
<g clip-path="url(#clip1_14516_406066)">
<path d="M232 96.1719C229.988 96.1719 228.022 95.5753 226.349 94.4576C224.676 93.3399 223.372 91.7513 222.602 89.8926C221.833 88.0339 221.631 85.9887 222.024 84.0156C222.416 82.0424 223.385 80.23 224.807 78.8074C226.23 77.3848 228.042 76.4161 230.016 76.0236C231.989 75.6311 234.034 75.8325 235.893 76.6024C237.751 77.3723 239.34 78.6761 240.458 80.3488C241.575 82.0216 242.172 83.9882 242.172 86C242.168 88.6967 241.096 91.2819 239.189 93.1888C237.282 95.0956 234.697 96.1684 232 96.1719ZM232 77.7969C230.378 77.7969 228.792 78.278 227.443 79.1794C226.094 80.0807 225.042 81.3619 224.421 82.8608C223.8 84.3597 223.638 86.0091 223.955 87.6004C224.271 89.1916 225.052 90.6533 226.2 91.8005C227.347 92.9477 228.808 93.729 230.4 94.0455C231.991 94.362 233.64 94.1996 235.139 93.5787C236.638 92.9578 237.919 91.9064 238.821 90.5574C239.722 89.2084 240.203 87.6224 240.203 86C240.203 84.9228 239.991 83.8561 239.579 82.8608C239.166 81.8656 238.562 80.9613 237.8 80.1995C237.039 79.4378 236.134 78.8336 235.139 78.4213C234.144 78.0091 233.077 77.7969 232 77.7969Z" fill="white" fill-opacity="0.9"/>
<path d="M230.583 80.9469C231.51 80.6869 232.49 80.6869 233.418 80.9469L232.696 87.3125H231.304L230.583 80.9469ZM233.313 89.9375C233.313 90.1971 233.236 90.4508 233.091 90.6667C232.947 90.8825 232.742 91.0508 232.502 91.1501C232.262 91.2494 231.999 91.2754 231.744 91.2248C231.489 91.1741 231.255 91.0491 231.072 90.8656C230.888 90.682 230.763 90.4482 230.713 90.1936C230.662 89.939 230.688 89.6751 230.787 89.4352C230.887 89.1954 231.055 88.9904 231.271 88.8462C231.487 88.702 231.74 88.625 232 88.625C232.348 88.625 232.682 88.7633 232.928 89.0094C233.174 89.2556 233.313 89.5894 233.313 89.9375Z" fill="white" fill-opacity="0.9"/>
</g>
<path d="M267.36 91.24C266.227 91.24 265.24 91.0533 264.4 90.68C263.573 90.2933 262.887 89.7867 262.34 89.16C261.793 88.5333 261.387 87.8133 261.12 87C260.853 86.1867 260.72 85.34 260.72 84.46C260.72 83.6067 260.853 82.78 261.12 81.98C261.387 81.1667 261.793 80.4533 262.34 79.84C262.887 79.2133 263.573 78.7133 264.4 78.34C265.24 77.9533 266.227 77.76 267.36 77.76C268.48 77.76 269.453 77.9533 270.28 78.34C271.12 78.7133 271.813 79.2133 272.36 79.84C272.92 80.4533 273.333 81.1667 273.6 81.98C273.867 82.78 274 83.6067 274 84.46C274 85.34 273.867 86.1867 273.6 87C273.333 87.8133 272.92 88.5333 272.36 89.16C271.813 89.7867 271.12 90.2933 270.28 90.68C269.453 91.0533 268.48 91.24 267.36 91.24ZM267.36 88.48C268.307 88.48 269.067 88.1467 269.64 87.48C270.227 86.8 270.52 85.7933 270.52 84.46C270.52 83.8067 270.44 83.2333 270.28 82.74C270.133 82.2467 269.92 81.8333 269.64 81.5C269.36 81.1667 269.027 80.92 268.64 80.76C268.253 80.6 267.827 80.52 267.36 80.52C266.413 80.52 265.647 80.8467 265.06 81.5C264.487 82.1533 264.2 83.14 264.2 84.46C264.2 85.7933 264.487 86.8 265.06 87.48C265.647 88.1467 266.413 88.48 267.36 88.48ZM275.787 81.12H278.767V82.82H278.887C279.087 82.2067 279.4 81.7333 279.827 81.4C280.267 81.0533 280.82 80.88 281.487 80.88C282.007 80.88 282.473 80.9467 282.887 81.08L282.087 84C281.94 83.9067 281.767 83.84 281.567 83.8C281.38 83.7467 281.193 83.72 281.007 83.72C280.407 83.72 279.913 83.8933 279.527 84.24C279.153 84.5733 278.967 85.1067 278.967 85.84V91H275.787V81.12ZM287.435 91.24C286.835 91.24 286.282 91.12 285.775 90.88C285.268 90.6267 284.822 90.28 284.435 89.84C284.062 89.4 283.768 88.8667 283.555 88.24C283.342 87.6133 283.235 86.92 283.235 86.16C283.235 85.3733 283.342 84.66 283.555 84.02C283.768 83.3667 284.062 82.8067 284.435 82.34C284.822 81.8733 285.268 81.5133 285.775 81.26C286.282 81.0067 286.835 80.88 287.435 80.88C288.168 80.88 288.775 81.0533 289.255 81.4C289.748 81.7333 290.102 82.18 290.315 82.74H290.435V76.5H293.615V91H290.595V89.24H290.475C290.235 89.88 289.848 90.3733 289.315 90.72C288.795 91.0667 288.168 91.24 287.435 91.24ZM288.455 88.5C289.122 88.5 289.615 88.2667 289.935 87.8C290.268 87.32 290.435 86.74 290.435 86.06C290.435 85.38 290.268 84.8067 289.935 84.34C289.615 83.86 289.122 83.62 288.455 83.62C287.815 83.62 287.328 83.86 286.995 84.34C286.662 84.8067 286.495 85.38 286.495 86.06C286.495 86.74 286.662 87.32 286.995 87.8C287.328 88.2667 287.815 88.5 288.455 88.5ZM300.288 91.24C299.381 91.24 298.601 91.0933 297.948 90.8C297.308 90.5067 296.781 90.12 296.368 89.64C295.955 89.16 295.648 88.6133 295.448 88C295.248 87.3733 295.148 86.7267 295.148 86.06C295.148 85.4067 295.235 84.7667 295.408 84.14C295.595 83.5133 295.881 82.96 296.268 82.48C296.668 82 297.181 81.6133 297.808 81.32C298.435 81.0267 299.201 80.88 300.108 80.88C301.015 80.88 301.781 81.0267 302.408 81.32C303.035 81.6 303.535 81.98 303.908 82.46C304.295 82.9267 304.568 83.4667 304.728 84.08C304.901 84.6933 304.988 85.3267 304.988 85.98C304.988 86.1267 304.975 86.32 304.948 86.56C304.921 86.7867 304.888 86.96 304.848 87.08H298.368C298.421 87.3733 298.521 87.62 298.668 87.82C298.828 88.02 299.008 88.18 299.208 88.3C299.408 88.42 299.615 88.5067 299.828 88.56C300.055 88.6133 300.268 88.64 300.468 88.64C300.935 88.64 301.335 88.5667 301.668 88.42C302.015 88.2733 302.281 88.08 302.468 87.84L304.208 89.66C303.888 90.1267 303.381 90.5067 302.688 90.8C301.995 91.0933 301.195 91.24 300.288 91.24ZM300.108 83.24C299.681 83.24 299.301 83.3733 298.968 83.64C298.635 83.8933 298.415 84.34 298.308 84.98H301.868C301.775 84.34 301.561 83.8933 301.228 83.64C300.895 83.3733 300.521 83.24 300.108 83.24ZM306.529 81.12H309.509V82.82H309.629C309.829 82.2067 310.142 81.7333 310.569 81.4C311.009 81.0533 311.562 80.88 312.229 80.88C312.749 80.88 313.215 80.9467 313.629 81.08L312.829 84C312.682 83.9067 312.509 83.84 312.309 83.8C312.122 83.7467 311.935 83.72 311.749 83.72C311.149 83.72 310.655 83.8933 310.269 84.24C309.895 84.5733 309.709 85.1067 309.709 85.84V91H306.529V81.12ZM323.937 91.24C323.07 91.24 322.324 91.1 321.697 90.82C321.084 90.5267 320.57 90.1467 320.157 89.68C319.757 89.2 319.457 88.6467 319.257 88.02C319.07 87.3933 318.977 86.74 318.977 86.06C318.977 85.38 319.07 84.7267 319.257 84.1C319.444 83.4733 319.737 82.9267 320.137 82.46C320.537 81.98 321.044 81.6 321.657 81.32C322.27 81.0267 323.004 80.88 323.857 80.88C324.657 80.88 325.364 81.0333 325.977 81.34C326.59 81.6467 327.084 82.02 327.457 82.46L325.317 84.4C325.144 84.1733 324.944 84 324.717 83.88C324.49 83.7467 324.217 83.68 323.897 83.68C323.337 83.68 322.917 83.8867 322.637 84.3C322.357 84.7133 322.217 85.3 322.217 86.06C322.217 86.82 322.364 87.4067 322.657 87.82C322.95 88.2333 323.377 88.44 323.937 88.44C324.244 88.44 324.524 88.3733 324.777 88.24C325.044 88.1067 325.25 87.9267 325.397 87.7L327.537 89.64C327.177 90.08 326.684 90.46 326.057 90.78C325.444 91.0867 324.737 91.24 323.937 91.24ZM331.533 91.24C331.093 91.24 330.666 91.1733 330.253 91.04C329.853 90.9067 329.499 90.7133 329.193 90.46C328.899 90.1933 328.659 89.8733 328.472 89.5C328.299 89.1267 328.213 88.7 328.213 88.22C328.213 87.3133 328.533 86.6 329.173 86.08C329.826 85.56 330.846 85.26 332.233 85.18L334.333 85.06V84.9C334.333 84.62 334.273 84.3933 334.153 84.22C334.046 84.0467 333.899 83.9133 333.713 83.82C333.539 83.7133 333.333 83.64 333.092 83.6C332.866 83.56 332.633 83.54 332.393 83.54C332.019 83.54 331.639 83.6067 331.253 83.74C330.866 83.8733 330.579 84.06 330.393 84.3L328.653 82.5C329.013 82.0467 329.539 81.6667 330.233 81.36C330.926 81.04 331.833 80.88 332.952 80.88C334.379 80.88 335.493 81.2067 336.293 81.86C337.106 82.5133 337.513 83.4533 337.513 84.68V91H334.533V89.48H334.413C334.159 90 333.793 90.4267 333.313 90.76C332.846 91.08 332.253 91.24 331.533 91.24ZM332.613 89.08C333.119 89.08 333.533 88.9467 333.853 88.68C334.173 88.4 334.333 87.98 334.333 87.42V86.9L332.673 87.02C332.246 87.0467 331.926 87.1533 331.713 87.34C331.513 87.5267 331.413 87.7733 331.413 88.08C331.413 88.4267 331.526 88.68 331.753 88.84C331.993 89 332.279 89.08 332.613 89.08ZM339.498 81.12H342.478V82.76H342.598C342.798 82.2133 343.158 81.7667 343.678 81.42C344.211 81.06 344.818 80.88 345.498 80.88C346.151 80.88 346.698 80.9733 347.138 81.16C347.591 81.3333 347.951 81.5933 348.218 81.94C348.484 82.2867 348.671 82.72 348.778 83.24C348.898 83.7467 348.958 84.3267 348.958 84.98V91H345.778V85.62C345.778 84.9933 345.671 84.5 345.458 84.14C345.244 83.7667 344.844 83.58 344.258 83.58C343.698 83.58 343.291 83.7533 343.038 84.1C342.798 84.4467 342.678 84.9533 342.678 85.62V91H339.498V81.12ZM355.402 91.24C354.535 91.24 353.789 91.1 353.162 90.82C352.549 90.5267 352.035 90.1467 351.622 89.68C351.222 89.2 350.922 88.6467 350.722 88.02C350.535 87.3933 350.442 86.74 350.442 86.06C350.442 85.38 350.535 84.7267 350.722 84.1C350.909 83.4733 351.202 82.9267 351.602 82.46C352.002 81.98 352.509 81.6 353.122 81.32C353.735 81.0267 354.469 80.88 355.322 80.88C356.122 80.88 356.829 81.0333 357.442 81.34C358.055 81.6467 358.549 82.02 358.922 82.46L356.782 84.4C356.609 84.1733 356.409 84 356.182 83.88C355.955 83.7467 355.682 83.68 355.362 83.68C354.802 83.68 354.382 83.8867 354.102 84.3C353.822 84.7133 353.682 85.3 353.682 86.06C353.682 86.82 353.829 87.4067 354.122 87.82C354.415 88.2333 354.842 88.44 355.402 88.44C355.709 88.44 355.989 88.3733 356.242 88.24C356.509 88.1067 356.715 87.9267 356.862 87.7L359.002 89.64C358.642 90.08 358.149 90.46 357.522 90.78C356.909 91.0867 356.202 91.24 355.402 91.24ZM364.546 91.24C363.639 91.24 362.859 91.0933 362.206 90.8C361.566 90.5067 361.039 90.12 360.626 89.64C360.212 89.16 359.906 88.6133 359.706 88C359.506 87.3733 359.406 86.7267 359.406 86.06C359.406 85.4067 359.492 84.7667 359.666 84.14C359.852 83.5133 360.139 82.96 360.526 82.48C360.926 82 361.439 81.6133 362.066 81.32C362.692 81.0267 363.459 80.88 364.366 80.88C365.272 80.88 366.039 81.0267 366.666 81.32C367.292 81.6 367.792 81.98 368.166 82.46C368.552 82.9267 368.826 83.4667 368.986 84.08C369.159 84.6933 369.246 85.3267 369.246 85.98C369.246 86.1267 369.232 86.32 369.206 86.56C369.179 86.7867 369.146 86.96 369.106 87.08H362.626C362.679 87.3733 362.779 87.62 362.926 87.82C363.086 88.02 363.266 88.18 363.466 88.3C363.666 88.42 363.872 88.5067 364.086 88.56C364.312 88.6133 364.526 88.64 364.726 88.64C365.192 88.64 365.592 88.5667 365.926 88.42C366.272 88.2733 366.539 88.08 366.726 87.84L368.466 89.66C368.146 90.1267 367.639 90.5067 366.946 90.8C366.252 91.0933 365.452 91.24 364.546 91.24ZM364.366 83.24C363.939 83.24 363.559 83.3733 363.226 83.64C362.892 83.8933 362.672 84.34 362.566 84.98H366.126C366.032 84.34 365.819 83.8933 365.486 83.64C365.152 83.3733 364.779 83.24 364.366 83.24ZM370.787 76.5H373.967V91H370.787V76.5ZM376.08 76.5H379.26V91H376.08V76.5ZM385.933 91.24C385.026 91.24 384.246 91.0933 383.593 90.8C382.953 90.5067 382.426 90.12 382.013 89.64C381.599 89.16 381.293 88.6133 381.093 88C380.893 87.3733 380.793 86.7267 380.793 86.06C380.793 85.4067 380.879 84.7667 381.053 84.14C381.239 83.5133 381.526 82.96 381.913 82.48C382.313 82 382.826 81.6133 383.453 81.32C384.079 81.0267 384.846 80.88 385.753 80.88C386.659 80.88 387.426 81.0267 388.053 81.32C388.679 81.6 389.179 81.98 389.553 82.46C389.939 82.9267 390.213 83.4667 390.373 84.08C390.546 84.6933 390.633 85.3267 390.633 85.98C390.633 86.1267 390.619 86.32 390.592 86.56C390.566 86.7867 390.533 86.96 390.493 87.08H384.013C384.066 87.3733 384.166 87.62 384.313 87.82C384.473 88.02 384.653 88.18 384.853 88.3C385.053 88.42 385.259 88.5067 385.473 88.56C385.699 88.6133 385.913 88.64 386.113 88.64C386.579 88.64 386.979 88.5667 387.313 88.42C387.659 88.2733 387.926 88.08 388.113 87.84L389.853 89.66C389.533 90.1267 389.026 90.5067 388.333 90.8C387.639 91.0933 386.839 91.24 385.933 91.24ZM385.753 83.24C385.326 83.24 384.946 83.3733 384.613 83.64C384.279 83.8933 384.059 84.34 383.953 84.98H387.513C387.419 84.34 387.206 83.8933 386.873 83.64C386.539 83.3733 386.166 83.24 385.753 83.24ZM395.833 91.24C395.233 91.24 394.68 91.12 394.173 90.88C393.667 90.6267 393.22 90.28 392.833 89.84C392.46 89.4 392.167 88.8667 391.953 88.24C391.74 87.6133 391.633 86.92 391.633 86.16C391.633 85.3733 391.74 84.66 391.953 84.02C392.167 83.3667 392.46 82.8067 392.833 82.34C393.22 81.8733 393.667 81.5133 394.173 81.26C394.68 81.0067 395.233 80.88 395.833 80.88C396.567 80.88 397.173 81.0533 397.653 81.4C398.147 81.7333 398.5 82.18 398.713 82.74H398.833V76.5H402.013V91H398.993V89.24H398.873C398.633 89.88 398.247 90.3733 397.713 90.72C397.193 91.0667 396.567 91.24 395.833 91.24ZM396.853 88.5C397.52 88.5 398.013 88.2667 398.333 87.8C398.667 87.32 398.833 86.74 398.833 86.06C398.833 85.38 398.667 84.8067 398.333 84.34C398.013 83.86 397.52 83.62 396.853 83.62C396.213 83.62 395.727 83.86 395.393 84.34C395.06 84.8067 394.893 85.38 394.893 86.06C394.893 86.74 395.06 87.32 395.393 87.8C395.727 88.2667 396.213 88.5 396.853 88.5Z" fill="black" fill-opacity="0.76"/>
<path d="M265.76 120.192C264.949 120.192 264.235 120.048 263.616 119.76C263.008 119.472 262.496 119.083 262.08 118.592C261.664 118.101 261.349 117.531 261.136 116.88C260.933 116.219 260.832 115.515 260.832 114.768C260.832 114.021 260.933 113.323 261.136 112.672C261.349 112.021 261.664 111.456 262.08 110.976C262.496 110.485 263.008 110.101 263.616 109.824C264.235 109.547 264.949 109.408 265.76 109.408C266.56 109.408 267.264 109.547 267.872 109.824C268.491 110.101 269.008 110.485 269.424 110.976C269.84 111.456 270.149 112.021 270.352 112.672C270.565 113.323 270.672 114.021 270.672 114.768C270.672 115.515 270.565 116.219 270.352 116.88C270.149 117.531 269.84 118.101 269.424 118.592C269.008 119.083 268.491 119.472 267.872 119.76C267.264 120.048 266.56 120.192 265.76 120.192ZM265.76 119.024C266.272 119.024 266.741 118.928 267.168 118.736C267.605 118.544 267.979 118.267 268.288 117.904C268.597 117.541 268.837 117.099 269.008 116.576C269.189 116.043 269.28 115.44 269.28 114.768C269.28 114.096 269.189 113.499 269.008 112.976C268.837 112.453 268.597 112.016 268.288 111.664C267.979 111.301 267.605 111.029 267.168 110.848C266.741 110.667 266.272 110.576 265.76 110.576C265.248 110.576 264.773 110.667 264.336 110.848C263.899 111.029 263.525 111.301 263.216 111.664C262.907 112.016 262.661 112.453 262.48 112.976C262.309 113.499 262.224 114.096 262.224 114.768C262.224 115.44 262.309 116.043 262.48 116.576C262.661 117.099 262.907 117.541 263.216 117.904C263.525 118.267 263.899 118.544 264.336 118.736C264.773 118.928 265.248 119.024 265.76 119.024ZM272.86 112.096H274.076V113.376H274.172C274.343 112.96 274.588 112.613 274.908 112.336C275.228 112.048 275.628 111.904 276.108 111.904C276.513 111.904 276.871 111.984 277.18 112.144L276.748 113.296C276.609 113.221 276.46 113.173 276.3 113.152C276.151 113.12 275.996 113.104 275.836 113.104C275.313 113.104 274.897 113.317 274.588 113.744C274.289 114.16 274.14 114.693 274.14 115.344V120H272.86V112.096ZM281.286 120.192C280.753 120.192 280.273 120.091 279.846 119.888C279.419 119.675 279.051 119.387 278.742 119.024C278.433 118.651 278.193 118.208 278.022 117.696C277.862 117.184 277.782 116.629 277.782 116.032C277.782 115.435 277.862 114.885 278.022 114.384C278.193 113.872 278.433 113.435 278.742 113.072C279.051 112.699 279.419 112.411 279.846 112.208C280.273 112.005 280.753 111.904 281.286 111.904C281.937 111.904 282.497 112.059 282.966 112.368C283.435 112.677 283.771 113.072 283.974 113.552H284.07V108.4H285.35V120H284.134V118.384H284.038C283.942 118.661 283.803 118.912 283.622 119.136C283.451 119.349 283.243 119.536 282.998 119.696C282.763 119.856 282.497 119.979 282.198 120.064C281.91 120.149 281.606 120.192 281.286 120.192ZM281.606 119.04C281.947 119.04 282.267 118.981 282.566 118.864C282.865 118.736 283.126 118.549 283.35 118.304C283.574 118.048 283.75 117.733 283.878 117.36C284.006 116.987 284.07 116.549 284.07 116.048C284.07 115.547 284.006 115.109 283.878 114.736C283.75 114.363 283.574 114.053 283.35 113.808C283.126 113.552 282.865 113.365 282.566 113.248C282.267 113.12 281.947 113.056 281.606 113.056C281.254 113.056 280.923 113.12 280.614 113.248C280.315 113.365 280.049 113.552 279.814 113.808C279.59 114.053 279.414 114.363 279.286 114.736C279.158 115.109 279.094 115.547 279.094 116.048C279.094 116.549 279.158 116.987 279.286 117.36C279.414 117.733 279.59 118.048 279.814 118.304C280.049 118.549 280.315 118.736 280.614 118.864C280.923 118.981 281.254 119.04 281.606 119.04ZM291.151 120.192C290.586 120.192 290.068 120.096 289.599 119.904C289.14 119.712 288.746 119.44 288.415 119.088C288.095 118.725 287.844 118.288 287.663 117.776C287.492 117.264 287.407 116.688 287.407 116.048C287.407 115.376 287.498 114.784 287.679 114.272C287.86 113.749 288.111 113.317 288.431 112.976C288.751 112.624 289.13 112.357 289.567 112.176C290.015 111.995 290.506 111.904 291.039 111.904C291.572 111.904 292.063 111.989 292.511 112.16C292.959 112.331 293.343 112.587 293.663 112.928C293.983 113.259 294.234 113.68 294.415 114.192C294.596 114.693 294.687 115.28 294.687 115.952C294.687 116.037 294.682 116.123 294.671 116.208C294.671 116.293 294.666 116.363 294.655 116.416H288.687C288.687 116.789 288.751 117.141 288.879 117.472C289.018 117.792 289.199 118.075 289.423 118.32C289.658 118.555 289.924 118.741 290.223 118.88C290.532 119.019 290.863 119.088 291.215 119.088C291.791 119.088 292.26 118.976 292.623 118.752C292.996 118.528 293.306 118.256 293.551 117.936L294.319 118.72C293.978 119.168 293.551 119.525 293.039 119.792C292.538 120.059 291.908 120.192 291.151 120.192ZM291.039 112.96C290.666 112.96 290.335 113.029 290.047 113.168C289.759 113.307 289.519 113.488 289.327 113.712C289.135 113.936 288.986 114.192 288.879 114.48C288.783 114.768 288.73 115.056 288.719 115.344H293.343C293.332 115.056 293.274 114.768 293.167 114.48C293.071 114.192 292.927 113.936 292.735 113.712C292.543 113.488 292.303 113.307 292.015 113.168C291.738 113.029 291.412 112.96 291.039 112.96ZM296.751 112.096H297.967V113.376H298.063C298.233 112.96 298.479 112.613 298.799 112.336C299.119 112.048 299.519 111.904 299.999 111.904C300.404 111.904 300.761 111.984 301.071 112.144L300.639 113.296C300.5 113.221 300.351 113.173 300.191 113.152C300.041 113.12 299.887 113.104 299.727 113.104C299.204 113.104 298.788 113.317 298.479 113.744C298.18 114.16 298.031 114.693 298.031 115.344V120H296.751V112.096ZM307.443 117.424H305.715L305.843 116.464H307.571L308.051 113.136H306.323L306.451 112.176H308.179L308.547 109.6H309.699L309.331 112.176H311.699L312.067 109.6H313.219L312.851 112.176H314.579L314.451 113.136H312.723L312.243 116.464H313.971L313.843 117.424H312.115L311.747 120H310.595L310.963 117.424H308.595L308.227 120H307.075L307.443 117.424ZM311.091 116.464L311.571 113.136H309.203L308.723 116.464H311.091ZM319.894 120.192C319.275 120.192 318.736 120.112 318.278 119.952C317.83 119.792 317.456 119.579 317.158 119.312C316.859 119.035 316.635 118.72 316.486 118.368C316.336 118.005 316.262 117.621 316.262 117.216C316.262 116.917 316.31 116.629 316.406 116.352C316.502 116.075 316.64 115.824 316.822 115.6C317.003 115.365 317.216 115.168 317.462 115.008C317.718 114.848 318.006 114.741 318.326 114.688V114.592C318.059 114.507 317.819 114.379 317.606 114.208C317.403 114.037 317.227 113.845 317.078 113.632C316.939 113.419 316.832 113.195 316.758 112.96C316.683 112.725 316.646 112.496 316.646 112.272C316.646 111.899 316.71 111.541 316.838 111.2C316.976 110.848 317.179 110.544 317.446 110.288C317.712 110.021 318.048 109.808 318.454 109.648C318.859 109.488 319.339 109.408 319.894 109.408C320.438 109.408 320.912 109.488 321.318 109.648C321.723 109.808 322.059 110.021 322.326 110.288C322.592 110.544 322.79 110.848 322.918 111.2C323.056 111.541 323.126 111.899 323.126 112.272C323.126 112.496 323.088 112.725 323.014 112.96C322.939 113.195 322.827 113.419 322.678 113.632C322.539 113.845 322.363 114.037 322.15 114.208C321.947 114.379 321.712 114.507 321.446 114.592V114.688C321.766 114.741 322.048 114.848 322.294 115.008C322.55 115.168 322.768 115.365 322.95 115.6C323.131 115.824 323.27 116.075 323.366 116.352C323.462 116.629 323.51 116.917 323.51 117.216C323.51 117.621 323.435 118.005 323.286 118.368C323.136 118.72 322.912 119.035 322.614 119.312C322.315 119.579 321.936 119.792 321.478 119.952C321.03 120.112 320.502 120.192 319.894 120.192ZM319.894 114.144C320.128 114.144 320.358 114.112 320.582 114.048C320.806 113.973 321.003 113.867 321.174 113.728C321.344 113.579 321.478 113.397 321.574 113.184C321.68 112.96 321.734 112.693 321.734 112.384C321.734 112.064 321.68 111.792 321.574 111.568C321.478 111.344 321.344 111.163 321.174 111.024C321.003 110.875 320.806 110.768 320.582 110.704C320.358 110.629 320.128 110.592 319.894 110.592C319.648 110.592 319.414 110.629 319.19 110.704C318.966 110.768 318.768 110.875 318.598 111.024C318.427 111.163 318.288 111.344 318.182 111.568C318.086 111.792 318.038 112.064 318.038 112.384C318.038 112.693 318.086 112.96 318.182 113.184C318.288 113.397 318.427 113.579 318.598 113.728C318.768 113.867 318.966 113.973 319.19 114.048C319.414 114.112 319.648 114.144 319.894 114.144ZM319.894 119.008C320.534 119.008 321.062 118.848 321.478 118.528C321.904 118.197 322.118 117.723 322.118 117.104C322.118 116.475 321.904 116.005 321.478 115.696C321.062 115.387 320.534 115.232 319.894 115.232C319.254 115.232 318.72 115.387 318.294 115.696C317.867 116.005 317.654 116.475 317.654 117.104C317.654 117.723 317.867 118.197 318.294 118.528C318.72 118.848 319.254 119.008 319.894 119.008ZM329.664 120.192C328.469 120.192 327.557 119.771 326.928 118.928C326.309 118.075 326 116.8 326 115.104C326 113.259 326.352 111.851 327.056 110.88C327.76 109.899 328.714 109.408 329.92 109.408C330.656 109.408 331.253 109.52 331.712 109.744C332.17 109.957 332.554 110.235 332.864 110.576L332.048 111.44C331.781 111.163 331.482 110.955 331.152 110.816C330.821 110.667 330.426 110.592 329.968 110.592C329.146 110.592 328.49 110.96 328 111.696C327.52 112.432 327.28 113.531 327.28 114.992H327.376C327.578 114.555 327.893 114.187 328.32 113.888C328.746 113.579 329.29 113.424 329.952 113.424C330.346 113.424 330.736 113.493 331.12 113.632C331.514 113.771 331.861 113.979 332.16 114.256C332.458 114.533 332.698 114.875 332.88 115.28C333.072 115.685 333.168 116.155 333.168 116.688C333.168 117.179 333.088 117.637 332.928 118.064C332.778 118.491 332.554 118.864 332.256 119.184C331.957 119.493 331.589 119.739 331.152 119.92C330.714 120.101 330.218 120.192 329.664 120.192ZM329.68 119.008C330.352 119.008 330.869 118.8 331.232 118.384C331.594 117.957 331.776 117.419 331.776 116.768C331.776 116.096 331.589 115.568 331.216 115.184C330.853 114.789 330.341 114.592 329.68 114.592C329.018 114.592 328.501 114.789 328.128 115.184C327.754 115.568 327.568 116.096 327.568 116.768C327.568 117.419 327.749 117.957 328.112 118.384C328.485 118.8 329.008 119.008 329.68 119.008ZM340.041 117.856H335.193V116.784L339.785 109.6H341.305L336.697 116.704H340.041V113.568H341.353V116.704H342.793V117.856H341.353V120H340.041V117.856ZM348.243 120.192C347.507 120.192 346.91 120.085 346.451 119.872C345.992 119.648 345.608 119.365 345.299 119.024L346.099 118.176C346.366 118.453 346.664 118.661 346.995 118.8C347.336 118.939 347.736 119.008 348.195 119.008C349.016 119.008 349.667 118.64 350.147 117.904C350.638 117.157 350.883 116.059 350.883 114.608H350.787C350.584 115.045 350.27 115.419 349.843 115.728C349.416 116.027 348.872 116.176 348.211 116.176C347.806 116.176 347.411 116.107 347.027 115.968C346.643 115.829 346.302 115.621 346.003 115.344C345.704 115.067 345.459 114.725 345.267 114.32C345.086 113.915 344.995 113.445 344.995 112.912C344.995 112.421 345.07 111.963 345.219 111.536C345.379 111.109 345.608 110.741 345.907 110.432C346.206 110.112 346.574 109.861 347.011 109.68C347.448 109.499 347.944 109.408 348.499 109.408C349.694 109.408 350.6 109.835 351.219 110.688C351.848 111.531 352.163 112.8 352.163 114.496C352.163 116.341 351.811 117.755 351.107 118.736C350.403 119.707 349.448 120.192 348.243 120.192ZM348.483 115.008C349.144 115.008 349.662 114.816 350.035 114.432C350.408 114.037 350.595 113.504 350.595 112.832C350.595 112.181 350.408 111.648 350.035 111.232C349.672 110.805 349.155 110.592 348.483 110.592C347.811 110.592 347.294 110.805 346.931 111.232C346.568 111.648 346.387 112.181 346.387 112.832C346.387 113.504 346.568 114.037 346.931 114.432C347.304 114.816 347.822 115.008 348.483 115.008ZM354.989 118.88H357.965V111.04L355.117 112.352L354.701 111.456L358.205 109.6H359.325V118.88H361.997V120H354.989V118.88ZM368.266 108.4H369.546V113.216H369.642C369.824 112.853 370.085 112.544 370.426 112.288C370.768 112.032 371.205 111.904 371.738 111.904C372.645 111.904 373.36 112.144 373.882 112.624C374.416 113.104 374.682 113.877 374.682 114.944V120H373.402V115.184C373.402 114.373 373.237 113.803 372.906 113.472C372.586 113.131 372.112 112.96 371.482 112.96C370.874 112.96 370.4 113.168 370.058 113.584C369.717 114 369.546 114.608 369.546 115.408V120H368.266V108.4ZM378.917 120.192C378.554 120.192 378.218 120.133 377.909 120.016C377.61 119.899 377.349 119.733 377.125 119.52C376.901 119.307 376.725 119.056 376.597 118.768C376.479 118.469 376.421 118.144 376.421 117.792C376.421 117.109 376.666 116.56 377.157 116.144C377.647 115.728 378.346 115.493 379.253 115.44L381.333 115.312V114.752C381.333 114.144 381.183 113.707 380.885 113.44C380.597 113.163 380.181 113.024 379.637 113.024C379.178 113.024 378.783 113.109 378.453 113.28C378.122 113.451 377.866 113.637 377.685 113.84L376.917 113.072C377.194 112.731 377.567 112.453 378.037 112.24C378.517 112.016 379.061 111.904 379.669 111.904C380.213 111.904 380.671 111.979 381.045 112.128C381.418 112.267 381.717 112.459 381.941 112.704C382.175 112.949 382.341 113.237 382.437 113.568C382.543 113.899 382.597 114.251 382.597 114.624V120H381.397V118.656H381.301C381.087 119.136 380.789 119.515 380.405 119.792C380.021 120.059 379.525 120.192 378.917 120.192ZM379.109 119.104C379.77 119.104 380.303 118.912 380.709 118.528C381.125 118.133 381.333 117.611 381.333 116.96V116.272L379.317 116.416C378.25 116.501 377.717 116.949 377.717 117.76C377.717 118.165 377.845 118.491 378.101 118.736C378.367 118.981 378.703 119.104 379.109 119.104ZM388.981 117.952C388.981 117.717 388.927 117.525 388.821 117.376C388.714 117.216 388.565 117.083 388.373 116.976C388.191 116.869 387.983 116.779 387.749 116.704C387.514 116.629 387.269 116.555 387.013 116.48C386.714 116.395 386.426 116.293 386.149 116.176C385.882 116.059 385.642 115.915 385.429 115.744C385.215 115.563 385.045 115.349 384.917 115.104C384.789 114.859 384.725 114.56 384.725 114.208C384.725 113.835 384.794 113.504 384.933 113.216C385.071 112.928 385.263 112.688 385.509 112.496C385.754 112.304 386.042 112.16 386.373 112.064C386.703 111.957 387.061 111.904 387.445 111.904C388.021 111.904 388.549 112.011 389.029 112.224C389.509 112.427 389.903 112.747 390.213 113.184L389.381 113.952C389.146 113.675 388.869 113.445 388.549 113.264C388.239 113.083 387.871 112.992 387.445 112.992C387.263 112.992 387.082 113.013 386.901 113.056C386.73 113.099 386.575 113.168 386.437 113.264C386.298 113.349 386.186 113.461 386.101 113.6C386.015 113.739 385.973 113.904 385.973 114.096C385.973 114.331 386.026 114.528 386.133 114.688C386.239 114.837 386.383 114.965 386.565 115.072C386.757 115.179 386.97 115.269 387.205 115.344C387.439 115.419 387.685 115.493 387.941 115.568C388.239 115.653 388.522 115.755 388.789 115.872C389.066 115.989 389.311 116.139 389.525 116.32C389.738 116.491 389.909 116.699 390.037 116.944C390.165 117.189 390.229 117.488 390.229 117.84C390.229 118.256 390.149 118.613 389.989 118.912C389.839 119.2 389.631 119.44 389.365 119.632C389.098 119.824 388.789 119.963 388.437 120.048C388.085 120.144 387.711 120.192 387.317 120.192C386.623 120.192 386.031 120.075 385.541 119.84C385.061 119.605 384.682 119.301 384.405 118.928L385.253 118.128C385.498 118.416 385.781 118.651 386.101 118.832C386.431 119.013 386.842 119.104 387.333 119.104C387.557 119.104 387.765 119.083 387.957 119.04C388.159 118.997 388.335 118.928 388.485 118.832C388.634 118.736 388.751 118.619 388.837 118.48C388.933 118.331 388.981 118.155 388.981 117.952ZM400.346 120.192C400.026 120.192 399.717 120.149 399.418 120.064C399.13 119.979 398.863 119.856 398.618 119.696C398.383 119.536 398.175 119.349 397.994 119.136C397.823 118.912 397.69 118.661 397.594 118.384H397.498V120H396.282V108.4H397.562V113.552H397.658C397.861 113.072 398.197 112.677 398.666 112.368C399.135 112.059 399.695 111.904 400.346 111.904C400.869 111.904 401.343 112.005 401.77 112.208C402.207 112.411 402.581 112.699 402.89 113.072C403.199 113.435 403.434 113.872 403.594 114.384C403.765 114.885 403.85 115.435 403.85 116.032C403.85 116.629 403.765 117.184 403.594 117.696C403.434 118.208 403.199 118.651 402.89 119.024C402.581 119.387 402.207 119.675 401.77 119.888C401.343 120.091 400.869 120.192 400.346 120.192ZM400.026 119.04C400.378 119.04 400.703 118.981 401.002 118.864C401.311 118.736 401.578 118.549 401.802 118.304C402.037 118.048 402.218 117.733 402.346 117.36C402.474 116.987 402.538 116.549 402.538 116.048C402.538 115.547 402.474 115.109 402.346 114.736C402.218 114.363 402.037 114.053 401.802 113.808C401.578 113.552 401.311 113.365 401.002 113.248C400.703 113.12 400.378 113.056 400.026 113.056C399.685 113.056 399.365 113.12 399.066 113.248C398.767 113.365 398.506 113.552 398.282 113.808C398.058 114.053 397.882 114.363 397.754 114.736C397.626 115.109 397.562 115.547 397.562 116.048C397.562 116.549 397.626 116.987 397.754 117.36C397.882 117.733 398.058 118.048 398.282 118.304C398.506 118.549 398.767 118.736 399.066 118.864C399.365 118.981 399.685 119.04 400.026 119.04ZM408.995 120.192C408.43 120.192 407.912 120.096 407.443 119.904C406.984 119.712 406.59 119.44 406.259 119.088C405.939 118.725 405.688 118.288 405.507 117.776C405.336 117.264 405.251 116.688 405.251 116.048C405.251 115.376 405.342 114.784 405.523 114.272C405.704 113.749 405.955 113.317 406.275 112.976C406.595 112.624 406.974 112.357 407.411 112.176C407.859 111.995 408.35 111.904 408.883 111.904C409.416 111.904 409.907 111.989 410.355 112.16C410.803 112.331 411.187 112.587 411.507 112.928C411.827 113.259 412.078 113.68 412.259 114.192C412.44 114.693 412.531 115.28 412.531 115.952C412.531 116.037 412.526 116.123 412.515 116.208C412.515 116.293 412.51 116.363 412.499 116.416H406.531C406.531 116.789 406.595 117.141 406.723 117.472C406.862 117.792 407.043 118.075 407.267 118.32C407.502 118.555 407.768 118.741 408.067 118.88C408.376 119.019 408.707 119.088 409.059 119.088C409.635 119.088 410.104 118.976 410.467 118.752C410.84 118.528 411.15 118.256 411.395 117.936L412.163 118.72C411.822 119.168 411.395 119.525 410.883 119.792C410.382 120.059 409.752 120.192 408.995 120.192ZM408.883 112.96C408.51 112.96 408.179 113.029 407.891 113.168C407.603 113.307 407.363 113.488 407.171 113.712C406.979 113.936 406.83 114.192 406.723 114.48C406.627 114.768 406.574 115.056 406.563 115.344H411.187C411.176 115.056 411.118 114.768 411.011 114.48C410.915 114.192 410.771 113.936 410.579 113.712C410.387 113.488 410.147 113.307 409.859 113.168C409.582 113.029 409.256 112.96 408.883 112.96ZM417.682 120.192C417.117 120.192 416.6 120.096 416.13 119.904C415.672 119.712 415.277 119.44 414.946 119.088C414.626 118.725 414.376 118.288 414.194 117.776C414.024 117.264 413.938 116.688 413.938 116.048C413.938 115.376 414.029 114.784 414.21 114.272C414.392 113.749 414.642 113.317 414.962 112.976C415.282 112.624 415.661 112.357 416.098 112.176C416.546 111.995 417.037 111.904 417.57 111.904C418.104 111.904 418.594 111.989 419.042 112.16C419.49 112.331 419.874 112.587 420.194 112.928C420.514 113.259 420.765 113.68 420.946 114.192C421.128 114.693 421.218 115.28 421.218 115.952C421.218 116.037 421.213 116.123 421.202 116.208C421.202 116.293 421.197 116.363 421.186 116.416H415.218C415.218 116.789 415.282 117.141 415.41 117.472C415.549 117.792 415.73 118.075 415.954 118.32C416.189 118.555 416.456 118.741 416.754 118.88C417.064 119.019 417.394 119.088 417.746 119.088C418.322 119.088 418.792 118.976 419.154 118.752C419.528 118.528 419.837 118.256 420.082 117.936L420.85 118.72C420.509 119.168 420.082 119.525 419.57 119.792C419.069 120.059 418.44 120.192 417.682 120.192ZM417.57 112.96C417.197 112.96 416.866 113.029 416.578 113.168C416.29 113.307 416.05 113.488 415.858 113.712C415.666 113.936 415.517 114.192 415.41 114.48C415.314 114.768 415.261 115.056 415.25 115.344H419.874C419.864 115.056 419.805 114.768 419.698 114.48C419.602 114.192 419.458 113.936 419.266 113.712C419.074 113.488 418.834 113.307 418.546 113.168C418.269 113.029 417.944 112.96 417.57 112.96ZM423.282 112.096H424.498V113.344H424.594C424.786 112.928 425.058 112.587 425.41 112.32C425.762 112.043 426.21 111.904 426.754 111.904C427.661 111.904 428.375 112.144 428.898 112.624C429.431 113.104 429.698 113.877 429.698 114.944V120H428.418V115.184C428.418 114.373 428.253 113.803 427.922 113.472C427.602 113.131 427.127 112.96 426.498 112.96C425.89 112.96 425.415 113.168 425.074 113.584C424.733 114 424.562 114.608 424.562 115.408V120H423.282V112.096ZM439.118 120.192C438.478 120.192 437.923 120.075 437.454 119.84C436.995 119.605 436.617 119.296 436.318 118.912C436.019 118.528 435.801 118.091 435.662 117.6C435.523 117.099 435.454 116.581 435.454 116.048C435.454 115.515 435.523 115.003 435.662 114.512C435.801 114.011 436.014 113.568 436.302 113.184C436.601 112.8 436.979 112.491 437.438 112.256C437.897 112.021 438.446 111.904 439.086 111.904C439.758 111.904 440.307 112.016 440.734 112.24C441.161 112.464 441.523 112.763 441.822 113.136L441.022 113.888C440.766 113.611 440.494 113.397 440.206 113.248C439.929 113.088 439.566 113.008 439.118 113.008C438.414 113.008 437.843 113.28 437.406 113.824C436.979 114.357 436.766 115.099 436.766 116.048C436.766 116.517 436.825 116.939 436.942 117.312C437.059 117.685 437.225 118.005 437.438 118.272C437.651 118.539 437.902 118.741 438.19 118.88C438.478 119.019 438.798 119.088 439.15 119.088C439.577 119.088 439.945 119.013 440.254 118.864C440.563 118.704 440.851 118.475 441.118 118.176L441.886 118.944C441.577 119.317 441.198 119.621 440.75 119.856C440.302 120.08 439.758 120.192 439.118 120.192ZM445.495 120.192C445.132 120.192 444.796 120.133 444.487 120.016C444.188 119.899 443.927 119.733 443.703 119.52C443.479 119.307 443.303 119.056 443.175 118.768C443.057 118.469 442.999 118.144 442.999 117.792C442.999 117.109 443.244 116.56 443.735 116.144C444.225 115.728 444.924 115.493 445.831 115.44L447.911 115.312V114.752C447.911 114.144 447.761 113.707 447.463 113.44C447.175 113.163 446.759 113.024 446.215 113.024C445.756 113.024 445.361 113.109 445.031 113.28C444.7 113.451 444.444 113.637 444.263 113.84L443.495 113.072C443.772 112.731 444.145 112.453 444.615 112.24C445.095 112.016 445.639 111.904 446.247 111.904C446.791 111.904 447.249 111.979 447.623 112.128C447.996 112.267 448.295 112.459 448.519 112.704C448.753 112.949 448.919 113.237 449.015 113.568C449.121 113.899 449.175 114.251 449.175 114.624V120H447.975V118.656H447.879C447.665 119.136 447.367 119.515 446.983 119.792C446.599 120.059 446.103 120.192 445.495 120.192ZM445.687 119.104C446.348 119.104 446.881 118.912 447.287 118.528C447.703 118.133 447.911 117.611 447.911 116.96V116.272L445.895 116.416C444.828 116.501 444.295 116.949 444.295 117.76C444.295 118.165 444.423 118.491 444.679 118.736C444.945 118.981 445.281 119.104 445.687 119.104ZM451.751 112.096H452.967V113.344H453.063C453.255 112.928 453.527 112.587 453.879 112.32C454.231 112.043 454.679 111.904 455.223 111.904C456.129 111.904 456.844 112.144 457.367 112.624C457.9 113.104 458.167 113.877 458.167 114.944V120H456.887V115.184C456.887 114.373 456.721 113.803 456.391 113.472C456.071 113.131 455.596 112.96 454.967 112.96C454.359 112.96 453.884 113.168 453.543 113.584C453.201 114 453.031 114.608 453.031 115.408V120H451.751V112.096ZM463.743 120.192C463.103 120.192 462.548 120.075 462.079 119.84C461.62 119.605 461.242 119.296 460.943 118.912C460.644 118.528 460.426 118.091 460.287 117.6C460.148 117.099 460.079 116.581 460.079 116.048C460.079 115.515 460.148 115.003 460.287 114.512C460.426 114.011 460.639 113.568 460.927 113.184C461.226 112.8 461.604 112.491 462.063 112.256C462.522 112.021 463.071 111.904 463.711 111.904C464.383 111.904 464.932 112.016 465.359 112.24C465.786 112.464 466.148 112.763 466.447 113.136L465.647 113.888C465.391 113.611 465.119 113.397 464.831 113.248C464.554 113.088 464.191 113.008 463.743 113.008C463.039 113.008 462.468 113.28 462.031 113.824C461.604 114.357 461.391 115.099 461.391 116.048C461.391 116.517 461.45 116.939 461.567 117.312C461.684 117.685 461.85 118.005 462.063 118.272C462.276 118.539 462.527 118.741 462.815 118.88C463.103 119.019 463.423 119.088 463.775 119.088C464.202 119.088 464.57 119.013 464.879 118.864C465.188 118.704 465.476 118.475 465.743 118.176L466.511 118.944C466.202 119.317 465.823 119.621 465.375 119.856C464.927 120.08 464.383 120.192 463.743 120.192ZM471.307 120.192C470.742 120.192 470.225 120.096 469.755 119.904C469.297 119.712 468.902 119.44 468.571 119.088C468.251 118.725 468.001 118.288 467.819 117.776C467.649 117.264 467.563 116.688 467.563 116.048C467.563 115.376 467.654 114.784 467.835 114.272C468.017 113.749 468.267 113.317 468.587 112.976C468.907 112.624 469.286 112.357 469.723 112.176C470.171 111.995 470.662 111.904 471.195 111.904C471.729 111.904 472.219 111.989 472.667 112.16C473.115 112.331 473.499 112.587 473.819 112.928C474.139 113.259 474.39 113.68 474.571 114.192C474.753 114.693 474.843 115.28 474.843 115.952C474.843 116.037 474.838 116.123 474.827 116.208C474.827 116.293 474.822 116.363 474.811 116.416H468.843C468.843 116.789 468.907 117.141 469.035 117.472C469.174 117.792 469.355 118.075 469.579 118.32C469.814 118.555 470.081 118.741 470.379 118.88C470.689 119.019 471.019 119.088 471.371 119.088C471.947 119.088 472.417 118.976 472.779 118.752C473.153 118.528 473.462 118.256 473.707 117.936L474.475 118.72C474.134 119.168 473.707 119.525 473.195 119.792C472.694 120.059 472.065 120.192 471.307 120.192ZM471.195 112.96C470.822 112.96 470.491 113.029 470.203 113.168C469.915 113.307 469.675 113.488 469.483 113.712C469.291 113.936 469.142 114.192 469.035 114.48C468.939 114.768 468.886 115.056 468.875 115.344H473.499C473.489 115.056 473.43 114.768 473.323 114.48C473.227 114.192 473.083 113.936 472.891 113.712C472.699 113.488 472.459 113.307 472.171 113.168C471.894 113.029 471.569 112.96 471.195 112.96ZM476.907 108.4H478.187V120H476.907V108.4ZM480.907 108.4H482.187V120H480.907V108.4ZM487.995 120.192C487.43 120.192 486.912 120.096 486.443 119.904C485.984 119.712 485.59 119.44 485.259 119.088C484.939 118.725 484.688 118.288 484.507 117.776C484.336 117.264 484.251 116.688 484.251 116.048C484.251 115.376 484.342 114.784 484.523 114.272C484.704 113.749 484.955 113.317 485.275 112.976C485.595 112.624 485.974 112.357 486.411 112.176C486.859 111.995 487.35 111.904 487.883 111.904C488.416 111.904 488.907 111.989 489.355 112.16C489.803 112.331 490.187 112.587 490.507 112.928C490.827 113.259 491.078 113.68 491.259 114.192C491.44 114.693 491.531 115.28 491.531 115.952C491.531 116.037 491.526 116.123 491.515 116.208C491.515 116.293 491.51 116.363 491.499 116.416H485.531C485.531 116.789 485.595 117.141 485.723 117.472C485.862 117.792 486.043 118.075 486.267 118.32C486.502 118.555 486.768 118.741 487.067 118.88C487.376 119.019 487.707 119.088 488.059 119.088C488.635 119.088 489.104 118.976 489.467 118.752C489.84 118.528 490.15 118.256 490.395 117.936L491.163 118.72C490.822 119.168 490.395 119.525 489.883 119.792C489.382 120.059 488.752 120.192 487.995 120.192ZM487.883 112.96C487.51 112.96 487.179 113.029 486.891 113.168C486.603 113.307 486.363 113.488 486.171 113.712C485.979 113.936 485.83 114.192 485.723 114.48C485.627 114.768 485.574 115.056 485.563 115.344H490.187C490.176 115.056 490.118 114.768 490.011 114.48C489.915 114.192 489.771 113.936 489.579 113.712C489.387 113.488 489.147 113.307 488.859 113.168C488.582 113.029 488.256 112.96 487.883 112.96ZM496.442 120.192C495.909 120.192 495.429 120.091 495.002 119.888C494.576 119.675 494.208 119.387 493.898 119.024C493.589 118.651 493.349 118.208 493.178 117.696C493.018 117.184 492.938 116.629 492.938 116.032C492.938 115.435 493.018 114.885 493.178 114.384C493.349 113.872 493.589 113.435 493.898 113.072C494.208 112.699 494.576 112.411 495.002 112.208C495.429 112.005 495.909 111.904 496.442 111.904C497.093 111.904 497.653 112.059 498.122 112.368C498.592 112.677 498.928 113.072 499.13 113.552H499.226V108.4H500.506V120H499.29V118.384H499.194C499.098 118.661 498.96 118.912 498.778 119.136C498.608 119.349 498.4 119.536 498.154 119.696C497.92 119.856 497.653 119.979 497.354 120.064C497.066 120.149 496.762 120.192 496.442 120.192ZM496.762 119.04C497.104 119.04 497.424 118.981 497.722 118.864C498.021 118.736 498.282 118.549 498.506 118.304C498.73 118.048 498.906 117.733 499.034 117.36C499.162 116.987 499.226 116.549 499.226 116.048C499.226 115.547 499.162 115.109 499.034 114.736C498.906 114.363 498.73 114.053 498.506 113.808C498.282 113.552 498.021 113.365 497.722 113.248C497.424 113.12 497.104 113.056 496.762 113.056C496.41 113.056 496.08 113.12 495.77 113.248C495.472 113.365 495.205 113.552 494.97 113.808C494.746 114.053 494.57 114.363 494.442 114.736C494.314 115.109 494.25 115.547 494.25 116.048C494.25 116.549 494.314 116.987 494.442 117.36C494.57 117.733 494.746 118.048 494.97 118.304C495.205 118.549 495.472 118.736 495.77 118.864C496.08 118.981 496.41 119.04 496.762 119.04ZM511.127 120.192C510.807 120.192 510.498 120.149 510.199 120.064C509.911 119.979 509.644 119.856 509.399 119.696C509.164 119.536 508.956 119.349 508.775 119.136C508.604 118.912 508.471 118.661 508.375 118.384H508.279V120H507.063V108.4H508.343V113.552H508.439C508.642 113.072 508.978 112.677 509.447 112.368C509.916 112.059 510.476 111.904 511.127 111.904C511.65 111.904 512.124 112.005 512.551 112.208C512.988 112.411 513.362 112.699 513.671 113.072C513.98 113.435 514.215 113.872 514.375 114.384C514.546 114.885 514.631 115.435 514.631 116.032C514.631 116.629 514.546 117.184 514.375 117.696C514.215 118.208 513.98 118.651 513.671 119.024C513.362 119.387 512.988 119.675 512.551 119.888C512.124 120.091 511.65 120.192 511.127 120.192ZM510.807 119.04C511.159 119.04 511.484 118.981 511.783 118.864C512.092 118.736 512.359 118.549 512.583 118.304C512.818 118.048 512.999 117.733 513.127 117.36C513.255 116.987 513.319 116.549 513.319 116.048C513.319 115.547 513.255 115.109 513.127 114.736C512.999 114.363 512.818 114.053 512.583 113.808C512.359 113.552 512.092 113.365 511.783 113.248C511.484 113.12 511.159 113.056 510.807 113.056C510.466 113.056 510.146 113.12 509.847 113.248C509.548 113.365 509.287 113.552 509.063 113.808C508.839 114.053 508.663 114.363 508.535 114.736C508.407 115.109 508.343 115.547 508.343 116.048C508.343 116.549 508.407 116.987 508.535 117.36C508.663 117.733 508.839 118.048 509.063 118.304C509.287 118.549 509.548 118.736 509.847 118.864C510.146 118.981 510.466 119.04 510.807 119.04ZM517.028 123.024C516.911 123.024 516.788 123.013 516.66 122.992C516.543 122.981 516.441 122.965 516.356 122.944V121.84C516.409 121.851 516.495 121.861 516.612 121.872C516.74 121.883 516.857 121.888 516.964 121.888C517.177 121.888 517.359 121.872 517.508 121.84C517.657 121.808 517.791 121.733 517.908 121.616C518.036 121.509 518.159 121.344 518.276 121.12C518.393 120.907 518.521 120.619 518.66 120.256L515.492 112.096H516.884L519.268 118.72H519.364L521.764 112.096H523.06L519.956 120.08C519.753 120.603 519.556 121.045 519.364 121.408C519.183 121.781 518.98 122.085 518.756 122.32C518.532 122.565 518.281 122.741 518.004 122.848C517.737 122.965 517.412 123.024 517.028 123.024ZM531.011 120.192C530.296 120.192 529.773 119.979 529.443 119.552C529.112 119.125 528.947 118.539 528.947 117.792V113.136H527.539V112.096H528.947V109.952H530.211V112.096H532.499V113.136H530.211V117.68C530.211 118.192 530.307 118.549 530.499 118.752C530.701 118.955 530.957 119.056 531.267 119.056C531.48 119.056 531.672 119.019 531.843 118.944C532.013 118.859 532.173 118.747 532.323 118.608L532.899 119.504C532.408 119.963 531.779 120.192 531.011 120.192ZM534.641 108.4H535.921V113.216H536.017C536.199 112.853 536.46 112.544 536.801 112.288C537.143 112.032 537.58 111.904 538.113 111.904C539.02 111.904 539.735 112.144 540.257 112.624C540.791 113.104 541.057 113.877 541.057 114.944V120H539.777V115.184C539.777 114.373 539.612 113.803 539.281 113.472C538.961 113.131 538.487 112.96 537.857 112.96C537.249 112.96 536.775 113.168 536.433 113.584C536.092 114 535.921 114.608 535.921 115.408V120H534.641V108.4ZM546.636 120.192C546.07 120.192 545.553 120.096 545.084 119.904C544.625 119.712 544.23 119.44 543.9 119.088C543.58 118.725 543.329 118.288 543.148 117.776C542.977 117.264 542.892 116.688 542.892 116.048C542.892 115.376 542.982 114.784 543.164 114.272C543.345 113.749 543.596 113.317 543.916 112.976C544.236 112.624 544.614 112.357 545.052 112.176C545.5 111.995 545.99 111.904 546.524 111.904C547.057 111.904 547.548 111.989 547.996 112.16C548.444 112.331 548.828 112.587 549.148 112.928C549.468 113.259 549.718 113.68 549.9 114.192C550.081 114.693 550.172 115.28 550.172 115.952C550.172 116.037 550.166 116.123 550.156 116.208C550.156 116.293 550.15 116.363 550.14 116.416H544.172C544.172 116.789 544.236 117.141 544.364 117.472C544.502 117.792 544.684 118.075 544.908 118.32C545.142 118.555 545.409 118.741 545.708 118.88C546.017 119.019 546.348 119.088 546.7 119.088C547.276 119.088 547.745 118.976 548.108 118.752C548.481 118.528 548.79 118.256 549.036 117.936L549.804 118.72C549.462 119.168 549.036 119.525 548.524 119.792C548.022 120.059 547.393 120.192 546.636 120.192ZM546.524 112.96C546.15 112.96 545.82 113.029 545.532 113.168C545.244 113.307 545.004 113.488 544.812 113.712C544.62 113.936 544.47 114.192 544.364 114.48C544.268 114.768 544.214 115.056 544.204 115.344H548.828C548.817 115.056 548.758 114.768 548.652 114.48C548.556 114.192 548.412 113.936 548.22 113.712C548.028 113.488 547.788 113.307 547.5 113.168C547.222 113.029 546.897 112.96 546.524 112.96ZM558.799 120.192C558.361 120.192 557.967 120.133 557.615 120.016C557.263 119.899 556.959 119.717 556.703 119.472C556.457 119.227 556.265 118.912 556.127 118.528C555.988 118.144 555.919 117.685 555.919 117.152V112.096H557.199V116.912C557.199 117.723 557.353 118.299 557.663 118.64C557.983 118.971 558.447 119.136 559.055 119.136C559.631 119.136 560.084 118.928 560.415 118.512C560.756 118.096 560.927 117.488 560.927 116.688V112.096H562.207V120H560.991V118.752H560.895C560.703 119.168 560.436 119.515 560.095 119.792C559.764 120.059 559.332 120.192 558.799 120.192ZM568.731 117.952C568.731 117.717 568.677 117.525 568.571 117.376C568.464 117.216 568.315 117.083 568.123 116.976C567.941 116.869 567.733 116.779 567.499 116.704C567.264 116.629 567.019 116.555 566.763 116.48C566.464 116.395 566.176 116.293 565.899 116.176C565.632 116.059 565.392 115.915 565.179 115.744C564.965 115.563 564.795 115.349 564.667 115.104C564.539 114.859 564.475 114.56 564.475 114.208C564.475 113.835 564.544 113.504 564.683 113.216C564.821 112.928 565.013 112.688 565.259 112.496C565.504 112.304 565.792 112.16 566.123 112.064C566.453 111.957 566.811 111.904 567.195 111.904C567.771 111.904 568.299 112.011 568.779 112.224C569.259 112.427 569.653 112.747 569.963 113.184L569.131 113.952C568.896 113.675 568.619 113.445 568.299 113.264C567.989 113.083 567.621 112.992 567.195 112.992C567.013 112.992 566.832 113.013 566.651 113.056C566.48 113.099 566.325 113.168 566.187 113.264C566.048 113.349 565.936 113.461 565.851 113.6C565.765 113.739 565.723 113.904 565.723 114.096C565.723 114.331 565.776 114.528 565.883 114.688C565.989 114.837 566.133 114.965 566.315 115.072C566.507 115.179 566.72 115.269 566.955 115.344C567.189 115.419 567.435 115.493 567.691 115.568C567.989 115.653 568.272 115.755 568.539 115.872C568.816 115.989 569.061 116.139 569.275 116.32C569.488 116.491 569.659 116.699 569.787 116.944C569.915 117.189 569.979 117.488 569.979 117.84C569.979 118.256 569.899 118.613 569.739 118.912C569.589 119.2 569.381 119.44 569.115 119.632C568.848 119.824 568.539 119.963 568.187 120.048C567.835 120.144 567.461 120.192 567.067 120.192C566.373 120.192 565.781 120.075 565.291 119.84C564.811 119.605 564.432 119.301 564.155 118.928L565.003 118.128C565.248 118.416 565.531 118.651 565.851 118.832C566.181 119.013 566.592 119.104 567.083 119.104C567.307 119.104 567.515 119.083 567.707 119.04C567.909 118.997 568.085 118.928 568.235 118.832C568.384 118.736 568.501 118.619 568.587 118.48C568.683 118.331 568.731 118.155 568.731 117.952ZM575.276 120.192C574.711 120.192 574.193 120.096 573.724 119.904C573.265 119.712 572.871 119.44 572.54 119.088C572.22 118.725 571.969 118.288 571.788 117.776C571.617 117.264 571.532 116.688 571.532 116.048C571.532 115.376 571.623 114.784 571.804 114.272C571.985 113.749 572.236 113.317 572.556 112.976C572.876 112.624 573.255 112.357 573.692 112.176C574.14 111.995 574.631 111.904 575.164 111.904C575.697 111.904 576.188 111.989 576.636 112.16C577.084 112.331 577.468 112.587 577.788 112.928C578.108 113.259 578.359 113.68 578.54 114.192C578.721 114.693 578.812 115.28 578.812 115.952C578.812 116.037 578.807 116.123 578.796 116.208C578.796 116.293 578.791 116.363 578.78 116.416H572.812C572.812 116.789 572.876 117.141 573.004 117.472C573.143 117.792 573.324 118.075 573.548 118.32C573.783 118.555 574.049 118.741 574.348 118.88C574.657 119.019 574.988 119.088 575.34 119.088C575.916 119.088 576.385 118.976 576.748 118.752C577.121 118.528 577.431 118.256 577.676 117.936L578.444 118.72C578.103 119.168 577.676 119.525 577.164 119.792C576.663 120.059 576.033 120.192 575.276 120.192ZM575.164 112.96C574.791 112.96 574.46 113.029 574.172 113.168C573.884 113.307 573.644 113.488 573.452 113.712C573.26 113.936 573.111 114.192 573.004 114.48C572.908 114.768 572.855 115.056 572.844 115.344H577.468C577.457 115.056 577.399 114.768 577.292 114.48C577.196 114.192 577.052 113.936 576.86 113.712C576.668 113.488 576.428 113.307 576.14 113.168C575.863 113.029 575.537 112.96 575.164 112.96ZM580.876 112.096H582.092V113.376H582.188C582.358 112.96 582.604 112.613 582.924 112.336C583.244 112.048 583.644 111.904 584.124 111.904C584.529 111.904 584.886 111.984 585.196 112.144L584.764 113.296C584.625 113.221 584.476 113.173 584.316 113.152C584.166 113.12 584.012 113.104 583.852 113.104C583.329 113.104 582.913 113.317 582.604 113.744C582.305 114.16 582.156 114.693 582.156 115.344V120H580.876V112.096Z" fill="black" fill-opacity="0.76"/>
<rect width="16" height="16" transform="translate(200 126)" fill="white" fill-opacity="0.01"/>
<rect width="16" height="16" transform="translate(200 126)" fill="white" fill-opacity="0.01"/>
</g>
<defs>
<clipPath id="clip0_14516_406066">
<path d="M200 66C200 59.3726 205.373 54 212 54H1212C1218.63 54 1224 59.3726 1224 66V130C1224 136.627 1218.63 142 1212 142H212C205.373 142 200 136.627 200 130V66Z" fill="white"/>
</clipPath>
<clipPath id="clip1_14516_406066">
<rect width="21" height="21" fill="white" transform="translate(221.5 75.5)"/>
</clipPath>
</defs>
</svg>
