<svg width="1024" height="72" viewBox="0 0 1024 72" fill="none" xmlns="http://www.w3.org/2000/svg">
<path d="M0 12C0 5.37258 5.37258 0 12 0H1012C1018.63 0 1024 5.37258 1024 12V60C1024 66.6274 1018.63 72 1012 72H12C5.37258 72 0 66.6274 0 60V12Z" fill="white"/>
<g clip-path="url(#clip0_8988_3009)">
<path fill-rule="evenodd" clip-rule="evenodd" d="M16.1241 16H39.8759L40 16.1241V39.8759L39.8759 40H16.1241L16 39.8759V16.1241L16.1241 16ZM39.7507 39.7508V16.2483H16.2482V39.7508H39.7507ZM20.9028 17.5H35.0972C36.9765 17.5 38.5 19.0235 38.5 20.9028V35.0972C38.5 36.9765 36.9765 38.5 35.0972 38.5H20.9028C19.0235 38.5 17.5 36.9765 17.5 35.0972V20.9028C17.5 19.0235 19.0235 17.5 20.9028 17.5Z" fill="#242E30"/>
</g>
<path d="M56.192 34.192C55.2853 34.192 54.5493 34.0533 53.984 33.776C53.4187 33.4987 52.9707 33.1413 52.64 32.704L53.504 31.888C53.792 32.24 54.1707 32.5173 54.64 32.72C55.12 32.9227 55.68 33.024 56.32 33.024C56.608 33.024 56.8853 32.992 57.152 32.928C57.4187 32.864 57.6533 32.768 57.856 32.64C58.0693 32.5013 58.2347 32.32 58.352 32.096C58.48 31.872 58.544 31.6 58.544 31.28C58.544 31.0027 58.48 30.768 58.352 30.576C58.224 30.3733 58.048 30.2027 57.824 30.064C57.6107 29.9147 57.3547 29.7867 57.056 29.68C56.7573 29.5627 56.432 29.4453 56.08 29.328C55.7067 29.2 55.3387 29.0667 54.976 28.928C54.6133 28.7787 54.288 28.592 54 28.368C53.712 28.144 53.4773 27.872 53.296 27.552C53.1147 27.2213 53.024 26.816 53.024 26.336C53.024 25.856 53.1093 25.4347 53.28 25.072C53.4613 24.7093 53.7067 24.4053 54.016 24.16C54.3253 23.9147 54.6933 23.728 55.12 23.6C55.5467 23.472 56.0107 23.408 56.512 23.408C57.248 23.408 57.904 23.536 58.48 23.792C59.0667 24.048 59.5413 24.4373 59.904 24.96L59.04 25.808C58.752 25.456 58.384 25.1627 57.936 24.928C57.488 24.6933 56.976 24.576 56.4 24.576C56.1547 24.576 55.9147 24.608 55.68 24.672C55.4453 24.7253 55.232 24.8213 55.04 24.96C54.848 25.0987 54.6933 25.2747 54.576 25.488C54.4587 25.7013 54.4 25.9573 54.4 26.256C54.4 26.5333 54.464 26.7733 54.592 26.976C54.72 27.168 54.8907 27.3387 55.104 27.488C55.328 27.6267 55.5893 27.7547 55.888 27.872C56.1867 27.9787 56.512 28.0907 56.864 28.208C57.2373 28.336 57.6053 28.4747 57.968 28.624C58.3307 28.7733 58.656 28.96 58.944 29.184C59.232 29.408 59.4667 29.68 59.648 30C59.8293 30.32 59.92 30.72 59.92 31.2C59.92 31.712 59.8187 32.16 59.616 32.544C59.424 32.9173 59.1573 33.2267 58.816 33.472C58.4853 33.7173 58.0907 33.8987 57.632 34.016C57.184 34.1333 56.704 34.192 56.192 34.192ZM64.7988 34.192C64.3614 34.192 63.9668 34.1333 63.6148 34.016C63.2628 33.8987 62.9588 33.7173 62.7028 33.472C62.4574 33.2267 62.2654 32.912 62.1268 32.528C61.9881 32.144 61.9188 31.6853 61.9188 31.152V26.096H63.1988V30.912C63.1988 31.7227 63.3534 32.2987 63.6628 32.64C63.9828 32.9707 64.4468 33.136 65.0548 33.136C65.6308 33.136 66.0841 32.928 66.4148 32.512C66.7561 32.096 66.9268 31.488 66.9268 30.688V26.096H68.2068V34H66.9908V32.752H66.8948C66.7028 33.168 66.4361 33.5147 66.0948 33.792C65.7641 34.0587 65.3321 34.192 64.7988 34.192ZM70.9225 26.096H72.1385V27.712H72.2345C72.3305 27.4453 72.4638 27.2 72.6345 26.976C72.8158 26.752 73.0238 26.56 73.2585 26.4C73.5038 26.24 73.7705 26.1173 74.0585 26.032C74.3572 25.9467 74.6665 25.904 74.9865 25.904C75.5092 25.904 75.9838 26.0107 76.4105 26.224C76.8478 26.4267 77.2212 26.7147 77.5305 27.088C77.8398 27.4507 78.0745 27.888 78.2345 28.4C78.4052 28.912 78.4905 29.4667 78.4905 30.064C78.4905 30.6613 78.4052 31.216 78.2345 31.728C78.0745 32.2293 77.8398 32.6667 77.5305 33.04C77.2212 33.4027 76.8478 33.6853 76.4105 33.888C75.9838 34.0907 75.5092 34.192 74.9865 34.192C74.3358 34.192 73.7758 34.0373 73.3065 33.728C72.8372 33.4187 72.5012 33.024 72.2985 32.544H72.2025V36.96H70.9225V26.096ZM74.6665 33.04C75.0185 33.04 75.3438 32.9813 75.6425 32.864C75.9518 32.736 76.2185 32.5493 76.4425 32.304C76.6772 32.048 76.8585 31.7333 76.9865 31.36C77.1145 30.9867 77.1785 30.5493 77.1785 30.048C77.1785 29.5467 77.1145 29.1093 76.9865 28.736C76.8585 28.3627 76.6772 28.0533 76.4425 27.808C76.2185 27.552 75.9518 27.3653 75.6425 27.248C75.3438 27.12 75.0185 27.056 74.6665 27.056C74.3252 27.056 74.0052 27.12 73.7065 27.248C73.4078 27.3653 73.1465 27.552 72.9225 27.808C72.6985 28.0533 72.5225 28.3627 72.3945 28.736C72.2665 29.1093 72.2025 29.5467 72.2025 30.048C72.2025 30.5493 72.2665 30.9867 72.3945 31.36C72.5225 31.7333 72.6985 32.048 72.9225 32.304C73.1465 32.5493 73.4078 32.736 73.7065 32.864C74.0052 32.9813 74.3252 33.04 74.6665 33.04ZM80.5475 26.096H81.7635V27.712H81.8595C81.9555 27.4453 82.0888 27.2 82.2595 26.976C82.4408 26.752 82.6488 26.56 82.8835 26.4C83.1288 26.24 83.3955 26.1173 83.6835 26.032C83.9822 25.9467 84.2915 25.904 84.6115 25.904C85.1342 25.904 85.6088 26.0107 86.0355 26.224C86.4728 26.4267 86.8462 26.7147 87.1555 27.088C87.4648 27.4507 87.6995 27.888 87.8595 28.4C88.0302 28.912 88.1155 29.4667 88.1155 30.064C88.1155 30.6613 88.0302 31.216 87.8595 31.728C87.6995 32.2293 87.4648 32.6667 87.1555 33.04C86.8462 33.4027 86.4728 33.6853 86.0355 33.888C85.6088 34.0907 85.1342 34.192 84.6115 34.192C83.9608 34.192 83.4008 34.0373 82.9315 33.728C82.4622 33.4187 82.1262 33.024 81.9235 32.544H81.8275V36.96H80.5475V26.096ZM84.2915 33.04C84.6435 33.04 84.9688 32.9813 85.2675 32.864C85.5768 32.736 85.8435 32.5493 86.0675 32.304C86.3022 32.048 86.4835 31.7333 86.6115 31.36C86.7395 30.9867 86.8035 30.5493 86.8035 30.048C86.8035 29.5467 86.7395 29.1093 86.6115 28.736C86.4835 28.3627 86.3022 28.0533 86.0675 27.808C85.8435 27.552 85.5768 27.3653 85.2675 27.248C84.9688 27.12 84.6435 27.056 84.2915 27.056C83.9502 27.056 83.6302 27.12 83.3315 27.248C83.0328 27.3653 82.7715 27.552 82.5475 27.808C82.3235 28.0533 82.1475 28.3627 82.0195 28.736C81.8915 29.1093 81.8275 29.5467 81.8275 30.048C81.8275 30.5493 81.8915 30.9867 82.0195 31.36C82.1475 31.7333 82.3235 32.048 82.5475 32.304C82.7715 32.5493 83.0328 32.736 83.3315 32.864C83.6302 32.9813 83.9502 33.04 84.2915 33.04ZM93.2925 34.192C92.6632 34.192 92.1085 34.0853 91.6285 33.872C91.1592 33.648 90.7645 33.3493 90.4445 32.976C90.1352 32.6027 89.9005 32.1653 89.7405 31.664C89.5912 31.1627 89.5165 30.624 89.5165 30.048C89.5165 29.472 89.5912 28.9333 89.7405 28.432C89.9005 27.9307 90.1352 27.4933 90.4445 27.12C90.7645 26.7467 91.1592 26.4533 91.6285 26.24C92.1085 26.016 92.6632 25.904 93.2925 25.904C93.9218 25.904 94.4658 26.016 94.9245 26.24C95.3938 26.4533 95.7832 26.7467 96.0925 27.12C96.4018 27.4933 96.6312 27.9307 96.7805 28.432C96.9405 28.9333 97.0205 29.472 97.0205 30.048C97.0205 30.624 96.9405 31.1627 96.7805 31.664C96.6312 32.1653 96.4018 32.6027 96.0925 32.976C95.7832 33.3493 95.3938 33.648 94.9245 33.872C94.4658 34.0853 93.9218 34.192 93.2925 34.192ZM90.8285 30.048C90.8285 30.5067 90.8765 30.928 90.9725 31.312C91.0792 31.6853 91.2338 32.0107 91.4365 32.288C91.6392 32.5547 91.8952 32.7627 92.2045 32.912C92.5138 33.0613 92.8765 33.136 93.2925 33.136C93.6978 33.136 94.0498 33.0613 94.3485 32.912C94.6578 32.7627 94.9085 32.5547 95.1005 32.288C95.3032 32.0107 95.4525 31.6853 95.5485 31.312C95.6552 30.928 95.7085 30.5067 95.7085 30.048C95.7085 29.5893 95.6552 29.1733 95.5485 28.8C95.4525 28.416 95.3032 28.0907 95.1005 27.824C94.9085 27.5467 94.6578 27.3333 94.3485 27.184C94.0498 27.0347 93.6978 26.96 93.2925 26.96C92.8765 26.96 92.5138 27.0347 92.2045 27.184C91.8952 27.3333 91.6392 27.5467 91.4365 27.824C91.2338 28.0907 91.0792 28.416 90.9725 28.8C90.8765 29.1733 90.8285 29.5893 90.8285 30.048ZM99.0788 26.096H100.295V27.376H100.391C100.561 26.96 100.807 26.6133 101.127 26.336C101.447 26.048 101.847 25.904 102.327 25.904C102.732 25.904 103.089 25.984 103.399 26.144L102.967 27.296C102.828 27.2213 102.679 27.1733 102.519 27.152C102.369 27.12 102.215 27.104 102.055 27.104C101.532 27.104 101.116 27.3173 100.807 27.744C100.508 28.16 100.359 28.6933 100.359 29.344V34H99.0788V26.096ZM107.48 34.192C106.765 34.192 106.242 33.9787 105.912 33.552C105.581 33.1253 105.416 32.5387 105.416 31.792V27.136H104.008V26.096H105.416V23.952H106.68V26.096H108.968V27.136H106.68V31.68C106.68 32.192 106.776 32.5493 106.968 32.752C107.17 32.9547 107.426 33.056 107.736 33.056C107.949 33.056 108.141 33.0187 108.312 32.944C108.482 32.8587 108.642 32.7467 108.792 32.608L109.368 33.504C108.877 33.9627 108.248 34.192 107.48 34.192ZM112.598 24C112.598 24.224 112.518 24.416 112.358 24.576C112.209 24.736 112.006 24.816 111.75 24.816C111.483 24.816 111.275 24.736 111.126 24.576C110.977 24.416 110.902 24.224 110.902 24C110.902 23.7867 110.977 23.6 111.126 23.44C111.275 23.2693 111.483 23.184 111.75 23.184C112.006 23.184 112.209 23.2693 112.358 23.44C112.518 23.6 112.598 23.7867 112.598 24ZM111.11 26.096H112.39V34H111.11V26.096ZM115.11 26.096H116.326V27.344H116.422C116.614 26.928 116.886 26.5867 117.238 26.32C117.59 26.0427 118.038 25.904 118.582 25.904C119.489 25.904 120.203 26.144 120.726 26.624C121.259 27.104 121.526 27.8773 121.526 28.944V34H120.246V29.184C120.246 28.3733 120.081 27.8027 119.75 27.472C119.43 27.1307 118.955 26.96 118.326 26.96C117.718 26.96 117.243 27.168 116.902 27.584C116.561 28 116.39 28.608 116.39 29.408V34H115.11V26.096ZM127.246 37.152C126.564 37.152 125.972 37.0293 125.47 36.784C124.969 36.5493 124.569 36.256 124.27 35.904L125.118 35.088C125.342 35.3653 125.63 35.584 125.982 35.744C126.345 35.9147 126.745 36 127.182 36C127.865 36 128.398 35.8347 128.782 35.504C129.177 35.1733 129.374 34.592 129.374 33.76V32.224H129.278C129.193 32.4907 129.07 32.7307 128.91 32.944C128.75 33.1467 128.558 33.3227 128.334 33.472C128.121 33.6107 127.881 33.7227 127.614 33.808C127.358 33.8827 127.097 33.92 126.83 33.92C126.329 33.92 125.87 33.8293 125.454 33.648C125.049 33.4667 124.692 33.2053 124.382 32.864C124.084 32.512 123.849 32.0853 123.678 31.584C123.518 31.0827 123.438 30.5173 123.438 29.888C123.438 29.2693 123.518 28.7147 123.678 28.224C123.849 27.7333 124.084 27.3173 124.382 26.976C124.692 26.6347 125.049 26.3733 125.454 26.192C125.87 26 126.329 25.904 126.83 25.904C127.417 25.904 127.94 26.0587 128.398 26.368C128.868 26.6667 129.182 27.0827 129.342 27.616H129.438V26.096H130.654V33.92C130.654 34.8907 130.361 35.6693 129.774 36.256C129.198 36.8533 128.356 37.152 127.246 37.152ZM127.086 32.768C127.79 32.768 128.345 32.5227 128.75 32.032C129.166 31.5413 129.374 30.832 129.374 29.904C129.374 28.9653 129.166 28.256 128.75 27.776C128.345 27.296 127.79 27.056 127.086 27.056C126.372 27.056 125.801 27.296 125.374 27.776C124.958 28.256 124.75 28.9653 124.75 29.904C124.75 30.832 124.958 31.5413 125.374 32.032C125.801 32.5227 126.372 32.768 127.086 32.768ZM139.651 34.192C138.937 34.192 138.414 33.9787 138.083 33.552C137.753 33.1253 137.587 32.5387 137.587 31.792V27.136H136.179V26.096H137.587V23.952H138.851V26.096H141.139V27.136H138.851V31.68C138.851 32.192 138.947 32.5493 139.139 32.752C139.342 32.9547 139.598 33.056 139.907 33.056C140.121 33.056 140.313 33.0187 140.483 32.944C140.654 32.8587 140.814 32.7467 140.963 32.608L141.539 33.504C141.049 33.9627 140.419 34.192 139.651 34.192ZM146.245 34.192C145.68 34.192 145.162 34.096 144.693 33.904C144.234 33.712 143.84 33.44 143.509 33.088C143.189 32.7253 142.938 32.288 142.757 31.776C142.586 31.264 142.501 30.688 142.501 30.048C142.501 29.376 142.592 28.784 142.773 28.272C142.954 27.7493 143.205 27.3173 143.525 26.976C143.845 26.624 144.224 26.3573 144.661 26.176C145.109 25.9947 145.6 25.904 146.133 25.904C146.666 25.904 147.157 25.9893 147.605 26.16C148.053 26.3307 148.437 26.5867 148.757 26.928C149.077 27.2587 149.328 27.68 149.509 28.192C149.69 28.6933 149.781 29.28 149.781 29.952C149.781 30.0373 149.776 30.1227 149.765 30.208C149.765 30.2933 149.76 30.3627 149.749 30.416H143.781C143.781 30.7893 143.845 31.1413 143.973 31.472C144.112 31.792 144.293 32.0747 144.517 32.32C144.752 32.5547 145.018 32.7413 145.317 32.88C145.626 33.0187 145.957 33.088 146.309 33.088C146.885 33.088 147.354 32.976 147.717 32.752C148.09 32.528 148.4 32.256 148.645 31.936L149.413 32.72C149.072 33.168 148.645 33.5253 148.133 33.792C147.632 34.0587 147.002 34.192 146.245 34.192ZM146.133 26.96C145.76 26.96 145.429 27.0293 145.141 27.168C144.853 27.3067 144.613 27.488 144.421 27.712C144.229 27.936 144.08 28.192 143.973 28.48C143.877 28.768 143.824 29.056 143.813 29.344H148.437C148.426 29.056 148.368 28.768 148.261 28.48C148.165 28.192 148.021 27.936 147.829 27.712C147.637 27.488 147.397 27.3067 147.109 27.168C146.832 27.0293 146.506 26.96 146.133 26.96ZM153.499 29.984L150.859 26.096H152.395L154.267 29.056H154.331L156.267 26.096H157.643L155.003 29.92L157.771 34H156.235L154.235 30.848H154.171L152.107 34H150.731L153.499 29.984ZM162.089 34.192C161.374 34.192 160.852 33.9787 160.521 33.552C160.19 33.1253 160.025 32.5387 160.025 31.792V27.136H158.617V26.096H160.025V23.952H161.289V26.096H163.577V27.136H161.289V31.68C161.289 32.192 161.385 32.5493 161.577 32.752C161.78 32.9547 162.036 33.056 162.345 33.056C162.558 33.056 162.75 33.0187 162.921 32.944C163.092 32.8587 163.252 32.7467 163.401 32.608L163.977 33.504C163.486 33.9627 162.857 34.192 162.089 34.192Z" fill="#242E30"/>
<g clip-path="url(#clip1_8988_3009)">
<path d="M850 36C850 24.9543 858.954 16 870 16H901C912.046 16 921 24.9543 921 36C921 47.0457 912.046 56 901 56H870C858.954 56 850 47.0457 850 36Z" fill="white" fill-opacity="0.01"/>
<path d="M867.316 31.6H869.46V40.256H873.604V42H867.316V31.6ZM877.204 42.192C876.852 42.192 876.516 42.1333 876.196 42.016C875.886 41.9093 875.614 41.7547 875.38 41.552C875.145 41.3387 874.958 41.0827 874.82 40.784C874.692 40.4853 874.628 40.1493 874.628 39.776C874.628 39.072 874.878 38.512 875.38 38.096C875.881 37.68 876.644 37.4453 877.668 37.392L879.524 37.28V36.96C879.524 36.448 879.369 36.096 879.06 35.904C878.75 35.712 878.366 35.616 877.908 35.616C877.545 35.616 877.204 35.6853 876.884 35.824C876.564 35.952 876.324 36.112 876.164 36.304L875.028 35.152C875.305 34.7893 875.705 34.4907 876.228 34.256C876.761 34.0213 877.412 33.904 878.18 33.904C879.31 33.904 880.153 34.1653 880.708 34.688C881.262 35.2107 881.54 35.92 881.54 36.816V42H879.636V40.736H879.54C879.337 41.184 879.044 41.5413 878.66 41.808C878.276 42.064 877.79 42.192 877.204 42.192ZM877.796 40.736C878.308 40.736 878.724 40.592 879.044 40.304C879.364 40.0053 879.524 39.5893 879.524 39.056V38.528L877.908 38.656C877.076 38.7093 876.66 39.0613 876.66 39.712C876.66 40.0427 876.766 40.2987 876.98 40.48C877.193 40.6507 877.465 40.736 877.796 40.736ZM888.109 42.192C887.49 42.192 886.952 42.0427 886.493 41.744C886.045 41.4453 885.725 41.0347 885.533 40.512H885.437V42H883.517V30.4H885.533V35.456H885.629C885.81 34.9973 886.114 34.624 886.541 34.336C886.968 34.048 887.49 33.904 888.109 33.904C888.6 33.904 889.053 34.0053 889.469 34.208C889.896 34.4107 890.258 34.6987 890.557 35.072C890.866 35.4347 891.106 35.872 891.277 36.384C891.448 36.896 891.533 37.4613 891.533 38.08C891.533 38.688 891.448 39.248 891.277 39.76C891.106 40.2613 890.866 40.6933 890.557 41.056C890.258 41.408 889.896 41.6853 889.469 41.888C889.053 42.0907 888.6 42.192 888.109 42.192ZM887.485 40.432C888.082 40.432 888.562 40.2187 888.925 39.792C889.288 39.3653 889.469 38.784 889.469 38.048C889.469 37.312 889.288 36.7307 888.925 36.304C888.562 35.8773 888.082 35.664 887.485 35.664C886.898 35.664 886.424 35.8773 886.061 36.304C885.709 36.7307 885.533 37.312 885.533 38.048C885.533 38.784 885.709 39.3653 886.061 39.792C886.424 40.2187 886.898 40.432 887.485 40.432ZM896.535 42.192C895.873 42.192 895.297 42.0853 894.807 41.872C894.316 41.6587 893.9 41.3653 893.559 40.992C893.228 40.608 892.977 40.1653 892.807 39.664C892.647 39.1627 892.567 38.624 892.567 38.048C892.567 37.4613 892.647 36.9173 892.807 36.416C892.967 35.904 893.207 35.4667 893.527 35.104C893.847 34.7307 894.247 34.4373 894.727 34.224C895.207 34.0107 895.767 33.904 896.407 33.904C897.047 33.904 897.607 34.0053 898.087 34.208C898.567 34.4107 898.961 34.6933 899.271 35.056C899.58 35.4187 899.809 35.8507 899.959 36.352C900.119 36.8427 900.199 37.3813 900.199 37.968C900.199 38.0747 900.188 38.1973 900.167 38.336C900.156 38.4747 900.14 38.5867 900.119 38.672H894.615C894.647 38.96 894.721 39.2213 894.839 39.456C894.967 39.68 895.121 39.872 895.303 40.032C895.495 40.192 895.703 40.3147 895.927 40.4C896.161 40.4747 896.401 40.512 896.647 40.512C897.105 40.512 897.489 40.432 897.799 40.272C898.108 40.112 898.359 39.9093 898.551 39.664L899.687 40.848C899.388 41.2533 898.972 41.5787 898.439 41.824C897.905 42.0693 897.271 42.192 896.535 42.192ZM896.407 35.44C895.895 35.44 895.479 35.6053 895.159 35.936C894.839 36.2667 894.652 36.704 894.599 37.248H898.183C898.129 36.704 897.943 36.2667 897.623 35.936C897.313 35.6053 896.908 35.44 896.407 35.44ZM901.767 30.4H903.783V42H901.767V30.4Z" fill="#242E30"/>
</g>
<g clip-path="url(#clip2_8988_3009)">
<path d="M937 36C937 24.9543 945.954 16 957 16H988C999.046 16 1008 24.9543 1008 36C1008 47.0457 999.046 56 988 56H957C945.954 56 937 47.0457 937 36Z" fill="#262626"/>
<path d="M937 36C937 24.9543 945.954 16 957 16H988C999.046 16 1008 24.9543 1008 36C1008 47.0457 999.046 56 988 56H957C945.954 56 937 47.0457 937 36Z" fill="white" fill-opacity="0.01"/>
<path d="M954.316 31.6H956.46V40.256H960.604V42H954.316V31.6ZM964.204 42.192C963.852 42.192 963.516 42.1333 963.196 42.016C962.886 41.9093 962.614 41.7547 962.38 41.552C962.145 41.3387 961.958 41.0827 961.82 40.784C961.692 40.4853 961.628 40.1493 961.628 39.776C961.628 39.072 961.878 38.512 962.38 38.096C962.881 37.68 963.644 37.4453 964.668 37.392L966.524 37.28V36.96C966.524 36.448 966.369 36.096 966.06 35.904C965.75 35.712 965.366 35.616 964.908 35.616C964.545 35.616 964.204 35.6853 963.884 35.824C963.564 35.952 963.324 36.112 963.164 36.304L962.028 35.152C962.305 34.7893 962.705 34.4907 963.228 34.256C963.761 34.0213 964.412 33.904 965.18 33.904C966.31 33.904 967.153 34.1653 967.708 34.688C968.262 35.2107 968.54 35.92 968.54 36.816V42H966.636V40.736H966.54C966.337 41.184 966.044 41.5413 965.66 41.808C965.276 42.064 964.79 42.192 964.204 42.192ZM964.796 40.736C965.308 40.736 965.724 40.592 966.044 40.304C966.364 40.0053 966.524 39.5893 966.524 39.056V38.528L964.908 38.656C964.076 38.7093 963.66 39.0613 963.66 39.712C963.66 40.0427 963.766 40.2987 963.98 40.48C964.193 40.6507 964.465 40.736 964.796 40.736ZM975.109 42.192C974.49 42.192 973.952 42.0427 973.493 41.744C973.045 41.4453 972.725 41.0347 972.533 40.512H972.437V42H970.517V30.4H972.533V35.456H972.629C972.81 34.9973 973.114 34.624 973.541 34.336C973.968 34.048 974.49 33.904 975.109 33.904C975.6 33.904 976.053 34.0053 976.469 34.208C976.896 34.4107 977.258 34.6987 977.557 35.072C977.866 35.4347 978.106 35.872 978.277 36.384C978.448 36.896 978.533 37.4613 978.533 38.08C978.533 38.688 978.448 39.248 978.277 39.76C978.106 40.2613 977.866 40.6933 977.557 41.056C977.258 41.408 976.896 41.6853 976.469 41.888C976.053 42.0907 975.6 42.192 975.109 42.192ZM974.485 40.432C975.082 40.432 975.562 40.2187 975.925 39.792C976.288 39.3653 976.469 38.784 976.469 38.048C976.469 37.312 976.288 36.7307 975.925 36.304C975.562 35.8773 975.082 35.664 974.485 35.664C973.898 35.664 973.424 35.8773 973.061 36.304C972.709 36.7307 972.533 37.312 972.533 38.048C972.533 38.784 972.709 39.3653 973.061 39.792C973.424 40.2187 973.898 40.432 974.485 40.432ZM983.535 42.192C982.873 42.192 982.297 42.0853 981.807 41.872C981.316 41.6587 980.9 41.3653 980.559 40.992C980.228 40.608 979.977 40.1653 979.807 39.664C979.647 39.1627 979.567 38.624 979.567 38.048C979.567 37.4613 979.647 36.9173 979.807 36.416C979.967 35.904 980.207 35.4667 980.527 35.104C980.847 34.7307 981.247 34.4373 981.727 34.224C982.207 34.0107 982.767 33.904 983.407 33.904C984.047 33.904 984.607 34.0053 985.087 34.208C985.567 34.4107 985.961 34.6933 986.271 35.056C986.58 35.4187 986.809 35.8507 986.959 36.352C987.119 36.8427 987.199 37.3813 987.199 37.968C987.199 38.0747 987.188 38.1973 987.167 38.336C987.156 38.4747 987.14 38.5867 987.119 38.672H981.615C981.647 38.96 981.721 39.2213 981.839 39.456C981.967 39.68 982.121 39.872 982.303 40.032C982.495 40.192 982.703 40.3147 982.927 40.4C983.161 40.4747 983.401 40.512 983.647 40.512C984.105 40.512 984.489 40.432 984.799 40.272C985.108 40.112 985.359 39.9093 985.551 39.664L986.687 40.848C986.388 41.2533 985.972 41.5787 985.439 41.824C984.905 42.0693 984.271 42.192 983.535 42.192ZM983.407 35.44C982.895 35.44 982.479 35.6053 982.159 35.936C981.839 36.2667 981.652 36.704 981.599 37.248H985.183C985.129 36.704 984.943 36.2667 984.623 35.936C984.313 35.6053 983.908 35.44 983.407 35.44ZM988.767 30.4H990.783V42H988.767V30.4Z" fill="white"/>
</g>
<defs>
<clipPath id="clip0_8988_3009">
<rect width="24" height="24" fill="white" transform="translate(16 16)"/>
</clipPath>
<clipPath id="clip1_8988_3009">
<path d="M850 36C850 24.9543 858.954 16 870 16H901C912.046 16 921 24.9543 921 36C921 47.0457 912.046 56 901 56H870C858.954 56 850 47.0457 850 36Z" fill="white"/>
</clipPath>
<clipPath id="clip2_8988_3009">
<path d="M937 36C937 24.9543 945.954 16 957 16H988C999.046 16 1008 24.9543 1008 36C1008 47.0457 999.046 56 988 56H957C945.954 56 937 47.0457 937 36Z" fill="white"/>
</clipPath>
</defs>
</svg>
