<svg width="360" height="140" viewBox="0 0 360 140" fill="none" xmlns="http://www.w3.org/2000/svg">
<g clip-path="url(#clip0_8988_3022)">
<path d="M0 12C0 5.37258 5.37258 0 12 0H348C354.627 0 360 5.37258 360 12V128C360 134.627 354.627 140 348 140H12C5.37259 140 0 134.627 0 128V12Z" fill="white"/>
<g clip-path="url(#clip1_8988_3022)">
<path fill-rule="evenodd" clip-rule="evenodd" d="M16.1241 16H39.8759L40 16.1241V39.8759L39.8759 40H16.1241L16 39.8759V16.1241L16.1241 16ZM39.7507 39.7508V16.2483H16.2482V39.7508H39.7507ZM20.9028 17.5H35.0972C36.9765 17.5 38.5 19.0235 38.5 20.9028V35.0972C38.5 36.9765 36.9765 38.5 35.0972 38.5H20.9028C19.0235 38.5 17.5 36.9765 17.5 35.0972V20.9028C17.5 19.0235 19.0235 17.5 20.9028 17.5Z" fill="#242E30"/>
</g>
<path d="M55.136 25.76H52.288V23.6H60.688V25.76H57.84V34H55.136V25.76ZM64.5368 23.824C64.5368 24.1867 64.4141 24.512 64.1688 24.8C63.9234 25.0773 63.5661 25.216 63.0968 25.216C62.6168 25.216 62.2594 25.0773 62.0247 24.8C61.7901 24.512 61.6728 24.1867 61.6728 23.824C61.6728 23.4613 61.7901 23.1413 62.0247 22.864C62.2594 22.576 62.6168 22.432 63.0968 22.432C63.5661 22.432 63.9234 22.576 64.1688 22.864C64.4141 23.1413 64.5368 23.4613 64.5368 23.824ZM61.8168 26.096H64.3608V34H61.8168V26.096ZM69.5231 34.176C68.5205 34.176 67.7951 33.9253 67.3471 33.424C66.9098 32.9227 66.6911 32.1227 66.6911 31.024V28.128H65.5551V26.096H66.6911V23.952H69.2031V26.096H71.5391V28.128H69.2031V31.072C69.2031 31.424 69.2618 31.68 69.3791 31.84C69.5071 32 69.7151 32.08 70.0031 32.08C70.1951 32.08 70.3765 32.0427 70.5471 31.968C70.7285 31.8827 70.8778 31.7813 70.9951 31.664L71.8111 33.392C71.2885 33.9147 70.5258 34.176 69.5231 34.176ZM72.8949 22.4H75.4389V34H72.8949V22.4ZM80.7773 34.192C80.0519 34.192 79.4279 34.0747 78.9053 33.84C78.3933 33.6053 77.9719 33.296 77.6413 32.912C77.3106 32.528 77.0653 32.0907 76.9053 31.6C76.7453 31.0987 76.6653 30.5813 76.6653 30.048C76.6653 29.5253 76.7346 29.0133 76.8733 28.512C77.0226 28.0107 77.2519 27.568 77.5613 27.184C77.8813 26.8 78.2919 26.4907 78.7933 26.256C79.2946 26.0213 79.9079 25.904 80.6333 25.904C81.3586 25.904 81.9719 26.0213 82.4733 26.256C82.9746 26.48 83.3746 26.784 83.6733 27.168C83.9826 27.5413 84.2013 27.9733 84.3293 28.464C84.4679 28.9547 84.5373 29.4613 84.5373 29.984C84.5373 30.1013 84.5266 30.256 84.5052 30.448C84.4839 30.6293 84.4573 30.768 84.4253 30.864H79.2413C79.2839 31.0987 79.3639 31.296 79.4813 31.456C79.6093 31.616 79.7533 31.744 79.9133 31.84C80.0733 31.936 80.2386 32.0053 80.4093 32.048C80.5906 32.0907 80.7613 32.112 80.9213 32.112C81.2946 32.112 81.6146 32.0533 81.8813 31.936C82.1586 31.8187 82.3719 31.664 82.5213 31.472L83.9133 32.928C83.6573 33.3013 83.2519 33.6053 82.6973 33.84C82.1426 34.0747 81.5026 34.192 80.7773 34.192ZM80.6333 27.792C80.2919 27.792 79.9879 27.8987 79.7213 28.112C79.4546 28.3147 79.2786 28.672 79.1933 29.184H82.0413C81.9666 28.672 81.7959 28.3147 81.5293 28.112C81.2626 27.8987 80.9639 27.792 80.6333 27.792Z" fill="#242E30"/>
<path d="M56.192 62.192C55.2853 62.192 54.5493 62.0533 53.984 61.776C53.4187 61.4987 52.9707 61.1413 52.64 60.704L53.504 59.888C53.792 60.24 54.1707 60.5173 54.64 60.72C55.12 60.9227 55.68 61.024 56.32 61.024C56.608 61.024 56.8853 60.992 57.152 60.928C57.4187 60.864 57.6533 60.768 57.856 60.64C58.0693 60.5013 58.2347 60.32 58.352 60.096C58.48 59.872 58.544 59.6 58.544 59.28C58.544 59.0027 58.48 58.768 58.352 58.576C58.224 58.3733 58.048 58.2027 57.824 58.064C57.6107 57.9147 57.3547 57.7867 57.056 57.68C56.7573 57.5627 56.432 57.4453 56.08 57.328C55.7067 57.2 55.3387 57.0667 54.976 56.928C54.6133 56.7787 54.288 56.592 54 56.368C53.712 56.144 53.4773 55.872 53.296 55.552C53.1147 55.2213 53.024 54.816 53.024 54.336C53.024 53.856 53.1093 53.4347 53.28 53.072C53.4613 52.7093 53.7067 52.4053 54.016 52.16C54.3253 51.9147 54.6933 51.728 55.12 51.6C55.5467 51.472 56.0107 51.408 56.512 51.408C57.248 51.408 57.904 51.536 58.48 51.792C59.0667 52.048 59.5413 52.4373 59.904 52.96L59.04 53.808C58.752 53.456 58.384 53.1627 57.936 52.928C57.488 52.6933 56.976 52.576 56.4 52.576C56.1547 52.576 55.9147 52.608 55.68 52.672C55.4453 52.7253 55.232 52.8213 55.04 52.96C54.848 53.0987 54.6933 53.2747 54.576 53.488C54.4587 53.7013 54.4 53.9573 54.4 54.256C54.4 54.5333 54.464 54.7733 54.592 54.976C54.72 55.168 54.8907 55.3387 55.104 55.488C55.328 55.6267 55.5893 55.7547 55.888 55.872C56.1867 55.9787 56.512 56.0907 56.864 56.208C57.2373 56.336 57.6053 56.4747 57.968 56.624C58.3307 56.7733 58.656 56.96 58.944 57.184C59.232 57.408 59.4667 57.68 59.648 58C59.8293 58.32 59.92 58.72 59.92 59.2C59.92 59.712 59.8187 60.16 59.616 60.544C59.424 60.9173 59.1573 61.2267 58.816 61.472C58.4853 61.7173 58.0907 61.8987 57.632 62.016C57.184 62.1333 56.704 62.192 56.192 62.192ZM64.7988 62.192C64.3614 62.192 63.9668 62.1333 63.6148 62.016C63.2628 61.8987 62.9588 61.7173 62.7028 61.472C62.4574 61.2267 62.2654 60.912 62.1268 60.528C61.9881 60.144 61.9188 59.6853 61.9188 59.152V54.096H63.1988V58.912C63.1988 59.7227 63.3534 60.2987 63.6628 60.64C63.9828 60.9707 64.4468 61.136 65.0548 61.136C65.6308 61.136 66.0841 60.928 66.4148 60.512C66.7561 60.096 66.9268 59.488 66.9268 58.688V54.096H68.2068V62H66.9908V60.752H66.8948C66.7028 61.168 66.4361 61.5147 66.0948 61.792C65.7641 62.0587 65.3321 62.192 64.7988 62.192ZM70.9225 54.096H72.1385V55.712H72.2345C72.3305 55.4453 72.4638 55.2 72.6345 54.976C72.8158 54.752 73.0238 54.56 73.2585 54.4C73.5038 54.24 73.7705 54.1173 74.0585 54.032C74.3572 53.9467 74.6665 53.904 74.9865 53.904C75.5092 53.904 75.9838 54.0107 76.4105 54.224C76.8478 54.4267 77.2212 54.7147 77.5305 55.088C77.8398 55.4507 78.0745 55.888 78.2345 56.4C78.4052 56.912 78.4905 57.4667 78.4905 58.064C78.4905 58.6613 78.4052 59.216 78.2345 59.728C78.0745 60.2293 77.8398 60.6667 77.5305 61.04C77.2212 61.4027 76.8478 61.6853 76.4105 61.888C75.9838 62.0907 75.5092 62.192 74.9865 62.192C74.3358 62.192 73.7758 62.0373 73.3065 61.728C72.8372 61.4187 72.5012 61.024 72.2985 60.544H72.2025V64.96H70.9225V54.096ZM74.6665 61.04C75.0185 61.04 75.3438 60.9813 75.6425 60.864C75.9518 60.736 76.2185 60.5493 76.4425 60.304C76.6772 60.048 76.8585 59.7333 76.9865 59.36C77.1145 58.9867 77.1785 58.5493 77.1785 58.048C77.1785 57.5467 77.1145 57.1093 76.9865 56.736C76.8585 56.3627 76.6772 56.0533 76.4425 55.808C76.2185 55.552 75.9518 55.3653 75.6425 55.248C75.3438 55.12 75.0185 55.056 74.6665 55.056C74.3252 55.056 74.0052 55.12 73.7065 55.248C73.4078 55.3653 73.1465 55.552 72.9225 55.808C72.6985 56.0533 72.5225 56.3627 72.3945 56.736C72.2665 57.1093 72.2025 57.5467 72.2025 58.048C72.2025 58.5493 72.2665 58.9867 72.3945 59.36C72.5225 59.7333 72.6985 60.048 72.9225 60.304C73.1465 60.5493 73.4078 60.736 73.7065 60.864C74.0052 60.9813 74.3252 61.04 74.6665 61.04ZM80.5475 54.096H81.7635V55.712H81.8595C81.9555 55.4453 82.0888 55.2 82.2595 54.976C82.4408 54.752 82.6488 54.56 82.8835 54.4C83.1288 54.24 83.3955 54.1173 83.6835 54.032C83.9822 53.9467 84.2915 53.904 84.6115 53.904C85.1342 53.904 85.6088 54.0107 86.0355 54.224C86.4728 54.4267 86.8462 54.7147 87.1555 55.088C87.4648 55.4507 87.6995 55.888 87.8595 56.4C88.0302 56.912 88.1155 57.4667 88.1155 58.064C88.1155 58.6613 88.0302 59.216 87.8595 59.728C87.6995 60.2293 87.4648 60.6667 87.1555 61.04C86.8462 61.4027 86.4728 61.6853 86.0355 61.888C85.6088 62.0907 85.1342 62.192 84.6115 62.192C83.9608 62.192 83.4008 62.0373 82.9315 61.728C82.4622 61.4187 82.1262 61.024 81.9235 60.544H81.8275V64.96H80.5475V54.096ZM84.2915 61.04C84.6435 61.04 84.9688 60.9813 85.2675 60.864C85.5768 60.736 85.8435 60.5493 86.0675 60.304C86.3022 60.048 86.4835 59.7333 86.6115 59.36C86.7395 58.9867 86.8035 58.5493 86.8035 58.048C86.8035 57.5467 86.7395 57.1093 86.6115 56.736C86.4835 56.3627 86.3022 56.0533 86.0675 55.808C85.8435 55.552 85.5768 55.3653 85.2675 55.248C84.9688 55.12 84.6435 55.056 84.2915 55.056C83.9502 55.056 83.6302 55.12 83.3315 55.248C83.0328 55.3653 82.7715 55.552 82.5475 55.808C82.3235 56.0533 82.1475 56.3627 82.0195 56.736C81.8915 57.1093 81.8275 57.5467 81.8275 58.048C81.8275 58.5493 81.8915 58.9867 82.0195 59.36C82.1475 59.7333 82.3235 60.048 82.5475 60.304C82.7715 60.5493 83.0328 60.736 83.3315 60.864C83.6302 60.9813 83.9502 61.04 84.2915 61.04ZM93.2925 62.192C92.6632 62.192 92.1085 62.0853 91.6285 61.872C91.1592 61.648 90.7645 61.3493 90.4445 60.976C90.1352 60.6027 89.9005 60.1653 89.7405 59.664C89.5912 59.1627 89.5165 58.624 89.5165 58.048C89.5165 57.472 89.5912 56.9333 89.7405 56.432C89.9005 55.9307 90.1352 55.4933 90.4445 55.12C90.7645 54.7467 91.1592 54.4533 91.6285 54.24C92.1085 54.016 92.6632 53.904 93.2925 53.904C93.9218 53.904 94.4658 54.016 94.9245 54.24C95.3938 54.4533 95.7832 54.7467 96.0925 55.12C96.4018 55.4933 96.6312 55.9307 96.7805 56.432C96.9405 56.9333 97.0205 57.472 97.0205 58.048C97.0205 58.624 96.9405 59.1627 96.7805 59.664C96.6312 60.1653 96.4018 60.6027 96.0925 60.976C95.7832 61.3493 95.3938 61.648 94.9245 61.872C94.4658 62.0853 93.9218 62.192 93.2925 62.192ZM90.8285 58.048C90.8285 58.5067 90.8765 58.928 90.9725 59.312C91.0792 59.6853 91.2338 60.0107 91.4365 60.288C91.6392 60.5547 91.8952 60.7627 92.2045 60.912C92.5138 61.0613 92.8765 61.136 93.2925 61.136C93.6978 61.136 94.0498 61.0613 94.3485 60.912C94.6578 60.7627 94.9085 60.5547 95.1005 60.288C95.3032 60.0107 95.4525 59.6853 95.5485 59.312C95.6552 58.928 95.7085 58.5067 95.7085 58.048C95.7085 57.5893 95.6552 57.1733 95.5485 56.8C95.4525 56.416 95.3032 56.0907 95.1005 55.824C94.9085 55.5467 94.6578 55.3333 94.3485 55.184C94.0498 55.0347 93.6978 54.96 93.2925 54.96C92.8765 54.96 92.5138 55.0347 92.2045 55.184C91.8952 55.3333 91.6392 55.5467 91.4365 55.824C91.2338 56.0907 91.0792 56.416 90.9725 56.8C90.8765 57.1733 90.8285 57.5893 90.8285 58.048ZM99.0788 54.096H100.295V55.376H100.391C100.561 54.96 100.807 54.6133 101.127 54.336C101.447 54.048 101.847 53.904 102.327 53.904C102.732 53.904 103.089 53.984 103.399 54.144L102.967 55.296C102.828 55.2213 102.679 55.1733 102.519 55.152C102.369 55.12 102.215 55.104 102.055 55.104C101.532 55.104 101.116 55.3173 100.807 55.744C100.508 56.16 100.359 56.6933 100.359 57.344V62H99.0788V54.096ZM107.48 62.192C106.765 62.192 106.242 61.9787 105.912 61.552C105.581 61.1253 105.416 60.5387 105.416 59.792V55.136H104.008V54.096H105.416V51.952H106.68V54.096H108.968V55.136H106.68V59.68C106.68 60.192 106.776 60.5493 106.968 60.752C107.17 60.9547 107.426 61.056 107.736 61.056C107.949 61.056 108.141 61.0187 108.312 60.944C108.482 60.8587 108.642 60.7467 108.792 60.608L109.368 61.504C108.877 61.9627 108.248 62.192 107.48 62.192ZM112.598 52C112.598 52.224 112.518 52.416 112.358 52.576C112.209 52.736 112.006 52.816 111.75 52.816C111.483 52.816 111.275 52.736 111.126 52.576C110.977 52.416 110.902 52.224 110.902 52C110.902 51.7867 110.977 51.6 111.126 51.44C111.275 51.2693 111.483 51.184 111.75 51.184C112.006 51.184 112.209 51.2693 112.358 51.44C112.518 51.6 112.598 51.7867 112.598 52ZM111.11 54.096H112.39V62H111.11V54.096ZM115.11 54.096H116.326V55.344H116.422C116.614 54.928 116.886 54.5867 117.238 54.32C117.59 54.0427 118.038 53.904 118.582 53.904C119.489 53.904 120.203 54.144 120.726 54.624C121.259 55.104 121.526 55.8773 121.526 56.944V62H120.246V57.184C120.246 56.3733 120.081 55.8027 119.75 55.472C119.43 55.1307 118.955 54.96 118.326 54.96C117.718 54.96 117.243 55.168 116.902 55.584C116.561 56 116.39 56.608 116.39 57.408V62H115.11V54.096ZM127.246 65.152C126.564 65.152 125.972 65.0293 125.47 64.784C124.969 64.5493 124.569 64.256 124.27 63.904L125.118 63.088C125.342 63.3653 125.63 63.584 125.982 63.744C126.345 63.9147 126.745 64 127.182 64C127.865 64 128.398 63.8347 128.782 63.504C129.177 63.1733 129.374 62.592 129.374 61.76V60.224H129.278C129.193 60.4907 129.07 60.7307 128.91 60.944C128.75 61.1467 128.558 61.3227 128.334 61.472C128.121 61.6107 127.881 61.7227 127.614 61.808C127.358 61.8827 127.097 61.92 126.83 61.92C126.329 61.92 125.87 61.8293 125.454 61.648C125.049 61.4667 124.692 61.2053 124.382 60.864C124.084 60.512 123.849 60.0853 123.678 59.584C123.518 59.0827 123.438 58.5173 123.438 57.888C123.438 57.2693 123.518 56.7147 123.678 56.224C123.849 55.7333 124.084 55.3173 124.382 54.976C124.692 54.6347 125.049 54.3733 125.454 54.192C125.87 54 126.329 53.904 126.83 53.904C127.417 53.904 127.94 54.0587 128.398 54.368C128.868 54.6667 129.182 55.0827 129.342 55.616H129.438V54.096H130.654V61.92C130.654 62.8907 130.361 63.6693 129.774 64.256C129.198 64.8533 128.356 65.152 127.246 65.152ZM127.086 60.768C127.79 60.768 128.345 60.5227 128.75 60.032C129.166 59.5413 129.374 58.832 129.374 57.904C129.374 56.9653 129.166 56.256 128.75 55.776C128.345 55.296 127.79 55.056 127.086 55.056C126.372 55.056 125.801 55.296 125.374 55.776C124.958 56.256 124.75 56.9653 124.75 57.904C124.75 58.832 124.958 59.5413 125.374 60.032C125.801 60.5227 126.372 60.768 127.086 60.768ZM139.651 62.192C138.937 62.192 138.414 61.9787 138.083 61.552C137.753 61.1253 137.587 60.5387 137.587 59.792V55.136H136.179V54.096H137.587V51.952H138.851V54.096H141.139V55.136H138.851V59.68C138.851 60.192 138.947 60.5493 139.139 60.752C139.342 60.9547 139.598 61.056 139.907 61.056C140.121 61.056 140.313 61.0187 140.483 60.944C140.654 60.8587 140.814 60.7467 140.963 60.608L141.539 61.504C141.049 61.9627 140.419 62.192 139.651 62.192ZM146.245 62.192C145.68 62.192 145.162 62.096 144.693 61.904C144.234 61.712 143.84 61.44 143.509 61.088C143.189 60.7253 142.938 60.288 142.757 59.776C142.586 59.264 142.501 58.688 142.501 58.048C142.501 57.376 142.592 56.784 142.773 56.272C142.954 55.7493 143.205 55.3173 143.525 54.976C143.845 54.624 144.224 54.3573 144.661 54.176C145.109 53.9947 145.6 53.904 146.133 53.904C146.666 53.904 147.157 53.9893 147.605 54.16C148.053 54.3307 148.437 54.5867 148.757 54.928C149.077 55.2587 149.328 55.68 149.509 56.192C149.69 56.6933 149.781 57.28 149.781 57.952C149.781 58.0373 149.776 58.1227 149.765 58.208C149.765 58.2933 149.76 58.3627 149.749 58.416H143.781C143.781 58.7893 143.845 59.1413 143.973 59.472C144.112 59.792 144.293 60.0747 144.517 60.32C144.752 60.5547 145.018 60.7413 145.317 60.88C145.626 61.0187 145.957 61.088 146.309 61.088C146.885 61.088 147.354 60.976 147.717 60.752C148.09 60.528 148.4 60.256 148.645 59.936L149.413 60.72C149.072 61.168 148.645 61.5253 148.133 61.792C147.632 62.0587 147.002 62.192 146.245 62.192ZM146.133 54.96C145.76 54.96 145.429 55.0293 145.141 55.168C144.853 55.3067 144.613 55.488 144.421 55.712C144.229 55.936 144.08 56.192 143.973 56.48C143.877 56.768 143.824 57.056 143.813 57.344H148.437C148.426 57.056 148.368 56.768 148.261 56.48C148.165 56.192 148.021 55.936 147.829 55.712C147.637 55.488 147.397 55.3067 147.109 55.168C146.832 55.0293 146.506 54.96 146.133 54.96ZM153.499 57.984L150.859 54.096H152.395L154.267 57.056H154.331L156.267 54.096H157.643L155.003 57.92L157.771 62H156.235L154.235 58.848H154.171L152.107 62H150.731L153.499 57.984ZM162.089 62.192C161.374 62.192 160.852 61.9787 160.521 61.552C160.19 61.1253 160.025 60.5387 160.025 59.792V55.136H158.617V54.096H160.025V51.952H161.289V54.096H163.577V55.136H161.289V59.68C161.289 60.192 161.385 60.5493 161.577 60.752C161.78 60.9547 162.036 61.056 162.345 61.056C162.558 61.056 162.75 61.0187 162.921 60.944C163.092 60.8587 163.252 60.7467 163.401 60.608L163.977 61.504C163.486 61.9627 162.857 62.192 162.089 62.192Z" fill="#242E30"/>
<path d="M312 28C312 16.9543 320.954 8 332 8C343.046 8 352 16.9543 352 28C352 39.0457 343.046 48 332 48C320.954 48 312 39.0457 312 28Z" fill="white" fill-opacity="0.01"/>
<path d="M337.801 20.8076L332 26.6089L326.199 20.8076L324.807 22.1989L330.609 28.0002L324.807 33.8014L326.199 35.1927L332 29.3914L337.801 35.1927L339.193 33.8014L333.391 28.0002L339.193 22.1989L337.801 20.8076Z" fill="#242E30"/>
<g clip-path="url(#clip2_8988_3022)">
<path d="M16 104C16 92.9543 24.9543 84 36 84H324C335.046 84 344 92.9543 344 104C344 115.046 335.046 124 324 124H36C24.9543 124 16 115.046 16 104Z" fill="#262626"/>
<path d="M16 104C16 92.9543 24.9543 84 36 84H324C335.046 84 344 92.9543 344 104C344 115.046 335.046 124 324 124H36C24.9543 124 16 115.046 16 104Z" fill="white" fill-opacity="0.01"/>
<path d="M161.816 99.6H163.96V108.256H168.104V110H161.816V99.6ZM171.704 110.192C171.352 110.192 171.016 110.133 170.696 110.016C170.386 109.909 170.114 109.755 169.88 109.552C169.645 109.339 169.458 109.083 169.32 108.784C169.192 108.485 169.128 108.149 169.128 107.776C169.128 107.072 169.378 106.512 169.88 106.096C170.381 105.68 171.144 105.445 172.168 105.392L174.024 105.28V104.96C174.024 104.448 173.869 104.096 173.56 103.904C173.25 103.712 172.866 103.616 172.408 103.616C172.045 103.616 171.704 103.685 171.384 103.824C171.064 103.952 170.824 104.112 170.664 104.304L169.528 103.152C169.805 102.789 170.205 102.491 170.728 102.256C171.261 102.021 171.912 101.904 172.68 101.904C173.81 101.904 174.653 102.165 175.208 102.688C175.762 103.211 176.04 103.92 176.04 104.816V110H174.136V108.736H174.04C173.837 109.184 173.544 109.541 173.16 109.808C172.776 110.064 172.29 110.192 171.704 110.192ZM172.296 108.736C172.808 108.736 173.224 108.592 173.544 108.304C173.864 108.005 174.024 107.589 174.024 107.056V106.528L172.408 106.656C171.576 106.709 171.16 107.061 171.16 107.712C171.16 108.043 171.266 108.299 171.48 108.48C171.693 108.651 171.965 108.736 172.296 108.736ZM182.609 110.192C181.99 110.192 181.452 110.043 180.993 109.744C180.545 109.445 180.225 109.035 180.033 108.512H179.937V110H178.017V98.4H180.033V103.456H180.129C180.31 102.997 180.614 102.624 181.041 102.336C181.468 102.048 181.99 101.904 182.609 101.904C183.1 101.904 183.553 102.005 183.969 102.208C184.396 102.411 184.758 102.699 185.057 103.072C185.366 103.435 185.606 103.872 185.777 104.384C185.948 104.896 186.033 105.461 186.033 106.08C186.033 106.688 185.948 107.248 185.777 107.76C185.606 108.261 185.366 108.693 185.057 109.056C184.758 109.408 184.396 109.685 183.969 109.888C183.553 110.091 183.1 110.192 182.609 110.192ZM181.985 108.432C182.582 108.432 183.062 108.219 183.425 107.792C183.788 107.365 183.969 106.784 183.969 106.048C183.969 105.312 183.788 104.731 183.425 104.304C183.062 103.877 182.582 103.664 181.985 103.664C181.398 103.664 180.924 103.877 180.561 104.304C180.209 104.731 180.033 105.312 180.033 106.048C180.033 106.784 180.209 107.365 180.561 107.792C180.924 108.219 181.398 108.432 181.985 108.432ZM191.035 110.192C190.373 110.192 189.797 110.085 189.307 109.872C188.816 109.659 188.4 109.365 188.059 108.992C187.728 108.608 187.477 108.165 187.307 107.664C187.147 107.163 187.067 106.624 187.067 106.048C187.067 105.461 187.147 104.917 187.307 104.416C187.467 103.904 187.707 103.467 188.027 103.104C188.347 102.731 188.747 102.437 189.227 102.224C189.707 102.011 190.267 101.904 190.907 101.904C191.547 101.904 192.107 102.005 192.587 102.208C193.067 102.411 193.461 102.693 193.771 103.056C194.08 103.419 194.309 103.851 194.459 104.352C194.619 104.843 194.699 105.381 194.699 105.968C194.699 106.075 194.688 106.197 194.667 106.336C194.656 106.475 194.64 106.587 194.619 106.672H189.115C189.147 106.96 189.221 107.221 189.339 107.456C189.467 107.68 189.621 107.872 189.803 108.032C189.995 108.192 190.203 108.315 190.427 108.4C190.661 108.475 190.901 108.512 191.147 108.512C191.605 108.512 191.989 108.432 192.299 108.272C192.608 108.112 192.859 107.909 193.051 107.664L194.187 108.848C193.888 109.253 193.472 109.579 192.939 109.824C192.405 110.069 191.771 110.192 191.035 110.192ZM190.907 103.44C190.395 103.44 189.979 103.605 189.659 103.936C189.339 104.267 189.152 104.704 189.099 105.248H192.683C192.629 104.704 192.443 104.267 192.123 103.936C191.813 103.605 191.408 103.44 190.907 103.44ZM196.267 98.4H198.283V110H196.267V98.4Z" fill="white"/>
</g>
</g>
<defs>
<clipPath id="clip0_8988_3022">
<path d="M0 12C0 5.37258 5.37258 0 12 0H348C354.627 0 360 5.37258 360 12V128C360 134.627 354.627 140 348 140H12C5.37259 140 0 134.627 0 128V12Z" fill="white"/>
</clipPath>
<clipPath id="clip1_8988_3022">
<rect width="24" height="24" fill="white" transform="translate(16 16)"/>
</clipPath>
<clipPath id="clip2_8988_3022">
<path d="M16 104C16 92.9543 24.9543 84 36 84H324C335.046 84 344 92.9543 344 104C344 115.046 335.046 124 324 124H36C24.9543 124 16 115.046 16 104Z" fill="white"/>
</clipPath>
</defs>
</svg>
