<svg width="1034" height="402" viewBox="0 0 1034 402" fill="none" xmlns="http://www.w3.org/2000/svg">
<rect x="0.5" y="0.5" width="1033" height="401" rx="16.5" fill="#F2A6B0" stroke="#DBD9D7"/>
<mask id="mask0_14516_405961" style="mask-type:alpha" maskUnits="userSpaceOnUse" x="1" y="1" width="1032" height="400">
<rect x="1" y="1" width="1032" height="400" rx="16" fill="#5B3D5B"/>
</mask>
<g mask="url(#mask0_14516_405961)">
<g filter="url(#filter0_f_14516_405961)">
<rect x="156" y="97" width="722" height="326" rx="24" fill="#AD5762"/>
</g>
<rect x="160" y="101" width="713.999" height="318" rx="20" fill="white" stroke="#E18C97" stroke-width="8"/>
<path d="M220 168.6C220 161.973 225.373 156.6 232 156.6H802C808.628 156.6 814 161.973 814 168.6V242.2C814 248.828 808.628 254.2 802 254.2H232C225.373 254.2 220 248.828 220 242.2V168.6Z" fill="#E4E9FB"/>
<path d="M237.6 183C237.6 178.14 241.54 174.2 246.4 174.2H264C268.86 174.2 272.8 178.14 272.8 183V200.6C272.8 205.46 268.86 209.4 264 209.4H246.4C241.54 209.4 237.6 205.46 237.6 200.6V183Z" fill="#3147AD"/>
<rect x="237.6" y="174.2" width="35.2" height="35.2" rx="17.6" fill="white" fill-opacity="0.01"/>
<g clip-path="url(#clip0_14516_405961)">
<path d="M255.2 202.989C252.987 202.989 250.824 202.333 248.984 201.104C247.144 199.874 245.71 198.127 244.863 196.082C244.016 194.037 243.794 191.788 244.226 189.617C244.658 187.447 245.724 185.453 247.288 183.888C248.853 182.323 250.847 181.258 253.017 180.826C255.188 180.394 257.438 180.616 259.482 181.463C261.527 182.31 263.274 183.744 264.504 185.584C265.733 187.424 266.389 189.587 266.389 191.8C266.386 194.767 265.205 197.61 263.108 199.708C261.01 201.805 258.167 202.985 255.2 202.989ZM255.2 182.777C253.416 182.777 251.671 183.306 250.187 184.297C248.703 185.289 247.547 186.698 246.864 188.347C246.181 189.996 246.002 191.81 246.35 193.561C246.698 195.311 247.558 196.919 248.82 198.181C250.082 199.443 251.69 200.302 253.44 200.65C255.19 200.998 257.005 200.82 258.653 200.137C260.302 199.454 261.712 198.297 262.703 196.813C263.695 195.329 264.224 193.585 264.224 191.8C264.224 190.615 263.99 189.442 263.537 188.347C263.083 187.252 262.419 186.258 261.581 185.42C260.743 184.582 259.748 183.917 258.653 183.464C257.559 183.01 256.385 182.777 255.2 182.777Z" fill="white" fill-opacity="0.9"/>
<path d="M253.641 186.242C254.661 185.956 255.74 185.956 256.76 186.242L255.965 193.244H254.435L253.641 186.242ZM256.644 196.131C256.644 196.417 256.559 196.696 256.401 196.934C256.242 197.171 256.017 197.356 255.753 197.465C255.489 197.575 255.199 197.603 254.919 197.547C254.639 197.492 254.381 197.354 254.179 197.152C253.977 196.95 253.84 196.693 253.784 196.413C253.729 196.133 253.757 195.843 253.866 195.579C253.976 195.315 254.161 195.09 254.398 194.931C254.636 194.772 254.915 194.688 255.2 194.688C255.583 194.688 255.95 194.84 256.221 195.111C256.492 195.381 256.644 195.748 256.644 196.131Z" fill="white" fill-opacity="0.9"/>
</g>
<path d="M292.226 197.464C291.024 197.464 290.004 197.303 289.168 196.98C288.347 196.658 287.621 196.188 286.99 195.572L288.948 193.306C289.315 193.688 289.77 193.996 290.312 194.23C290.87 194.45 291.442 194.56 292.028 194.56C292.703 194.56 293.26 194.414 293.7 194.12C294.14 193.827 294.36 193.416 294.36 192.888C294.36 192.375 294.17 191.994 293.788 191.744C293.407 191.495 292.886 191.37 292.226 191.37H290.73V188.488H292.27C292.784 188.488 293.165 188.356 293.414 188.092C293.678 187.814 293.81 187.462 293.81 187.036C293.81 186.479 293.62 186.09 293.238 185.87C292.872 185.65 292.454 185.54 291.984 185.54C291.427 185.54 290.892 185.65 290.378 185.87C289.88 186.09 289.476 186.376 289.168 186.728L287.254 184.572C287.87 183.956 288.574 183.48 289.366 183.142C290.158 182.805 291.156 182.636 292.358 182.636C293.18 182.636 293.906 182.739 294.536 182.944C295.182 183.15 295.724 183.436 296.164 183.802C296.604 184.154 296.942 184.572 297.176 185.056C297.411 185.526 297.528 186.024 297.528 186.552C297.528 187.242 297.301 187.88 296.846 188.466C296.406 189.038 295.754 189.471 294.888 189.764V189.896C295.343 189.999 295.768 190.16 296.164 190.38C296.56 190.586 296.898 190.842 297.176 191.15C297.455 191.458 297.675 191.796 297.836 192.162C297.998 192.529 298.078 192.918 298.078 193.328C298.078 193.9 297.954 194.443 297.704 194.956C297.455 195.455 297.088 195.895 296.604 196.276C296.12 196.643 295.512 196.936 294.778 197.156C294.045 197.362 293.194 197.464 292.226 197.464ZM306.094 186.332H309.372V188.136H309.504C309.724 187.535 310.12 187.044 310.692 186.662C311.279 186.266 311.946 186.068 312.694 186.068C313.413 186.068 314.014 186.171 314.498 186.376C314.997 186.567 315.393 186.853 315.686 187.234C315.979 187.616 316.185 188.092 316.302 188.664C316.434 189.222 316.5 189.86 316.5 190.578V197.2H313.002V191.282C313.002 190.593 312.885 190.05 312.65 189.654C312.415 189.244 311.975 189.038 311.33 189.038C310.714 189.038 310.267 189.229 309.988 189.61C309.724 189.992 309.592 190.549 309.592 191.282V197.2H306.094V186.332ZM323.743 197.464C322.745 197.464 321.887 197.303 321.169 196.98C320.465 196.658 319.885 196.232 319.431 195.704C318.976 195.176 318.639 194.575 318.419 193.9C318.199 193.211 318.089 192.5 318.089 191.766C318.089 191.048 318.184 190.344 318.375 189.654C318.58 188.965 318.895 188.356 319.321 187.828C319.761 187.3 320.325 186.875 321.015 186.552C321.704 186.23 322.547 186.068 323.545 186.068C324.542 186.068 325.385 186.23 326.075 186.552C326.764 186.86 327.314 187.278 327.725 187.806C328.15 188.32 328.451 188.914 328.627 189.588C328.817 190.263 328.913 190.96 328.913 191.678C328.913 191.84 328.898 192.052 328.869 192.316C328.839 192.566 328.803 192.756 328.759 192.888H321.631C321.689 193.211 321.799 193.482 321.961 193.702C322.137 193.922 322.335 194.098 322.555 194.23C322.775 194.362 323.002 194.458 323.237 194.516C323.486 194.575 323.721 194.604 323.941 194.604C324.454 194.604 324.894 194.524 325.261 194.362C325.642 194.201 325.935 193.988 326.141 193.724L328.055 195.726C327.703 196.24 327.145 196.658 326.383 196.98C325.62 197.303 324.74 197.464 323.743 197.464ZM323.545 188.664C323.075 188.664 322.657 188.811 322.291 189.104C321.924 189.383 321.682 189.874 321.565 190.578H325.481C325.378 189.874 325.143 189.383 324.777 189.104C324.41 188.811 323.999 188.664 323.545 188.664ZM329.405 186.332H333.299L334.993 193.24H335.125L336.863 186.332H340.691L342.429 193.24H342.561L344.255 186.332H347.929L344.189 197.2H340.581L338.689 189.874H338.557L336.665 197.2H333.145L329.405 186.332ZM354.649 186.332H357.927V188.202H358.059C358.279 187.528 358.623 187.007 359.093 186.64C359.577 186.259 360.185 186.068 360.919 186.068C361.491 186.068 362.004 186.142 362.459 186.288L361.579 189.5C361.417 189.398 361.227 189.324 361.007 189.28C360.801 189.222 360.596 189.192 360.391 189.192C359.731 189.192 359.188 189.383 358.763 189.764C358.352 190.131 358.147 190.718 358.147 191.524V197.2H354.649V186.332ZM368.452 197.464C367.454 197.464 366.596 197.303 365.878 196.98C365.174 196.658 364.594 196.232 364.14 195.704C363.685 195.176 363.348 194.575 363.128 193.9C362.908 193.211 362.798 192.5 362.798 191.766C362.798 191.048 362.893 190.344 363.084 189.654C363.289 188.965 363.604 188.356 364.03 187.828C364.47 187.3 365.034 186.875 365.724 186.552C366.413 186.23 367.256 186.068 368.254 186.068C369.251 186.068 370.094 186.23 370.784 186.552C371.473 186.86 372.023 187.278 372.434 187.806C372.859 188.32 373.16 188.914 373.336 189.588C373.526 190.263 373.622 190.96 373.622 191.678C373.622 191.84 373.607 192.052 373.578 192.316C373.548 192.566 373.512 192.756 373.468 192.888H366.34C366.398 193.211 366.508 193.482 366.67 193.702C366.846 193.922 367.044 194.098 367.264 194.23C367.484 194.362 367.711 194.458 367.946 194.516C368.195 194.575 368.43 194.604 368.65 194.604C369.163 194.604 369.603 194.524 369.97 194.362C370.351 194.201 370.644 193.988 370.85 193.724L372.764 195.726C372.412 196.24 371.854 196.658 371.092 196.98C370.329 197.303 369.449 197.464 368.452 197.464ZM368.254 188.664C367.784 188.664 367.366 188.811 367 189.104C366.633 189.383 366.391 189.874 366.274 190.578H370.19C370.087 189.874 369.852 189.383 369.486 189.104C369.119 188.811 368.708 188.664 368.254 188.664ZM374.026 186.332H377.876L379.834 193.504H379.966L381.946 186.332H385.532L381.616 197.2H377.942L374.026 186.332ZM390.615 183.208C390.615 183.707 390.447 184.154 390.109 184.55C389.772 184.932 389.281 185.122 388.635 185.122C387.975 185.122 387.484 184.932 387.161 184.55C386.839 184.154 386.677 183.707 386.677 183.208C386.677 182.71 386.839 182.27 387.161 181.888C387.484 181.492 387.975 181.294 388.635 181.294C389.281 181.294 389.772 181.492 390.109 181.888C390.447 182.27 390.615 182.71 390.615 183.208ZM386.875 186.332H390.373V197.2H386.875V186.332ZM397.713 197.464C396.716 197.464 395.858 197.303 395.139 196.98C394.435 196.658 393.856 196.232 393.401 195.704C392.947 195.176 392.609 194.575 392.389 193.9C392.169 193.211 392.059 192.5 392.059 191.766C392.059 191.048 392.155 190.344 392.345 189.654C392.551 188.965 392.866 188.356 393.291 187.828C393.731 187.3 394.296 186.875 394.985 186.552C395.675 186.23 396.518 186.068 397.515 186.068C398.513 186.068 399.356 186.23 400.045 186.552C400.735 186.86 401.285 187.278 401.695 187.806C402.121 188.32 402.421 188.914 402.597 189.588C402.788 190.263 402.883 190.96 402.883 191.678C402.883 191.84 402.869 192.052 402.839 192.316C402.81 192.566 402.773 192.756 402.729 192.888H395.601C395.66 193.211 395.77 193.482 395.931 193.702C396.107 193.922 396.305 194.098 396.525 194.23C396.745 194.362 396.973 194.458 397.207 194.516C397.457 194.575 397.691 194.604 397.911 194.604C398.425 194.604 398.865 194.524 399.231 194.362C399.613 194.201 399.906 193.988 400.111 193.724L402.025 195.726C401.673 196.24 401.116 196.658 400.353 196.98C399.591 197.303 398.711 197.464 397.713 197.464ZM397.515 188.664C397.046 188.664 396.628 188.811 396.261 189.104C395.895 189.383 395.653 189.874 395.535 190.578H399.451C399.349 189.874 399.114 189.383 398.747 189.104C398.381 188.811 397.97 188.664 397.515 188.664ZM403.376 186.332H407.27L408.964 193.24H409.096L410.834 186.332H414.662L416.4 193.24H416.532L418.226 186.332H421.9L418.16 197.2H414.552L412.66 189.874H412.528L410.636 197.2H407.116L403.376 186.332ZM428.332 193.922C428.332 193.614 428.12 193.402 427.694 193.284C427.269 193.152 426.682 193.006 425.934 192.844C425.509 192.756 425.106 192.632 424.724 192.47C424.343 192.294 424.006 192.082 423.712 191.832C423.419 191.568 423.184 191.253 423.008 190.886C422.832 190.52 422.744 190.08 422.744 189.566C422.744 189.009 422.862 188.518 423.096 188.092C423.331 187.652 423.654 187.286 424.064 186.992C424.49 186.684 424.988 186.457 425.56 186.31C426.132 186.149 426.763 186.068 427.452 186.068C428.538 186.068 429.447 186.222 430.18 186.53C430.914 186.838 431.456 187.205 431.808 187.63L429.982 189.61C429.718 189.332 429.374 189.104 428.948 188.928C428.523 188.752 428.105 188.664 427.694 188.664C427.313 188.664 426.983 188.73 426.704 188.862C426.426 188.98 426.286 189.192 426.286 189.5C426.286 189.808 426.499 190.028 426.924 190.16C427.35 190.278 427.936 190.417 428.684 190.578C429.11 190.666 429.513 190.798 429.894 190.974C430.276 191.136 430.613 191.348 430.906 191.612C431.2 191.862 431.434 192.177 431.61 192.558C431.786 192.925 431.874 193.358 431.874 193.856C431.874 194.428 431.757 194.942 431.522 195.396C431.288 195.836 430.958 196.21 430.532 196.518C430.107 196.826 429.594 197.061 428.992 197.222C428.406 197.384 427.76 197.464 427.056 197.464C425.898 197.464 424.922 197.318 424.13 197.024C423.338 196.716 422.752 196.335 422.37 195.88L424.108 193.9C424.446 194.238 424.864 194.487 425.362 194.648C425.861 194.795 426.36 194.868 426.858 194.868C427.328 194.868 427.687 194.788 427.936 194.626C428.2 194.465 428.332 194.23 428.332 193.922Z" fill="black" fill-opacity="0.76"/>
<path d="M287.619 217.16H293.41V218.427H289.115V222.458H293.251V223.725H289.115V228.6H287.619V217.16ZM297.417 217.6C297.417 217.846 297.329 218.058 297.153 218.234C296.989 218.41 296.766 218.498 296.485 218.498C296.191 218.498 295.962 218.41 295.798 218.234C295.634 218.058 295.552 217.846 295.552 217.6C295.552 217.365 295.634 217.16 295.798 216.984C295.962 216.796 296.191 216.702 296.485 216.702C296.766 216.702 296.989 216.796 297.153 216.984C297.329 217.16 297.417 217.365 297.417 217.6ZM295.781 219.906H297.189V228.6H295.781V219.906ZM300.181 219.906H301.518V221.278H301.624C301.835 220.821 302.134 220.445 302.521 220.152C302.909 219.847 303.401 219.694 304 219.694C304.997 219.694 305.783 219.958 306.358 220.486C306.945 221.014 307.238 221.865 307.238 223.038V228.6H305.83V223.302C305.83 222.411 305.648 221.783 305.285 221.419C304.933 221.044 304.41 220.856 303.718 220.856C303.049 220.856 302.527 221.085 302.152 221.542C301.776 222 301.589 222.669 301.589 223.549V228.6H300.181V219.906ZM313.196 228.811C312.61 228.811 312.082 228.7 311.612 228.477C311.143 228.242 310.738 227.925 310.398 227.526C310.058 227.116 309.794 226.629 309.606 226.066C309.43 225.502 309.342 224.892 309.342 224.235C309.342 223.578 309.43 222.974 309.606 222.422C309.794 221.859 310.058 221.378 310.398 220.979C310.738 220.569 311.143 220.252 311.612 220.029C312.082 219.806 312.61 219.694 313.196 219.694C313.912 219.694 314.528 219.865 315.044 220.205C315.56 220.545 315.93 220.979 316.153 221.507H316.259V215.84H317.667V228.6H316.329V226.822H316.223C316.118 227.128 315.965 227.403 315.766 227.65C315.578 227.884 315.349 228.09 315.079 228.266C314.821 228.442 314.528 228.577 314.199 228.67C313.883 228.764 313.548 228.811 313.196 228.811ZM313.548 227.544C313.924 227.544 314.276 227.48 314.604 227.35C314.933 227.21 315.22 227.004 315.467 226.734C315.713 226.453 315.907 226.107 316.047 225.696C316.188 225.285 316.259 224.804 316.259 224.253C316.259 223.701 316.188 223.22 316.047 222.81C315.907 222.399 315.713 222.059 315.467 221.789C315.22 221.507 314.933 221.302 314.604 221.173C314.276 221.032 313.924 220.962 313.548 220.962C313.161 220.962 312.797 221.032 312.457 221.173C312.128 221.302 311.835 221.507 311.577 221.789C311.331 222.059 311.137 222.399 310.996 222.81C310.855 223.22 310.785 223.701 310.785 224.253C310.785 224.804 310.855 225.285 310.996 225.696C311.137 226.107 311.331 226.453 311.577 226.734C311.835 227.004 312.128 227.21 312.457 227.35C312.797 227.48 313.161 227.544 313.548 227.544ZM328.311 228.811C327.619 228.811 327.009 228.694 326.481 228.459C325.964 228.213 325.53 227.884 325.178 227.474C324.838 227.063 324.58 226.582 324.404 226.03C324.24 225.479 324.157 224.886 324.157 224.253C324.157 223.619 324.24 223.027 324.404 222.475C324.58 221.924 324.838 221.443 325.178 221.032C325.53 220.621 325.964 220.299 326.481 220.064C327.009 219.818 327.619 219.694 328.311 219.694C329.003 219.694 329.602 219.818 330.106 220.064C330.623 220.299 331.051 220.621 331.391 221.032C331.731 221.443 331.984 221.924 332.148 222.475C332.324 223.027 332.412 223.619 332.412 224.253C332.412 224.886 332.324 225.479 332.148 226.03C331.984 226.582 331.731 227.063 331.391 227.474C331.051 227.884 330.623 228.213 330.106 228.459C329.602 228.694 329.003 228.811 328.311 228.811ZM325.601 224.253C325.601 224.757 325.653 225.221 325.759 225.643C325.876 226.054 326.047 226.412 326.269 226.717C326.492 227.01 326.774 227.239 327.114 227.403C327.455 227.568 327.853 227.65 328.311 227.65C328.757 227.65 329.144 227.568 329.473 227.403C329.813 227.239 330.089 227.01 330.3 226.717C330.523 226.412 330.687 226.054 330.793 225.643C330.91 225.221 330.969 224.757 330.969 224.253C330.969 223.748 330.91 223.291 330.793 222.88C330.687 222.458 330.523 222.1 330.3 221.806C330.089 221.501 329.813 221.267 329.473 221.102C329.144 220.938 328.757 220.856 328.311 220.856C327.853 220.856 327.455 220.938 327.114 221.102C326.774 221.267 326.492 221.501 326.269 221.806C326.047 222.1 325.876 222.458 325.759 222.88C325.653 223.291 325.601 223.748 325.601 224.253ZM337.668 228.811C337.187 228.811 336.753 228.747 336.366 228.618C335.978 228.489 335.644 228.289 335.362 228.019C335.092 227.749 334.881 227.403 334.729 226.981C334.576 226.558 334.5 226.054 334.5 225.467V219.906H335.908V225.203C335.908 226.095 336.078 226.729 336.418 227.104C336.77 227.468 337.281 227.65 337.95 227.65C338.583 227.65 339.082 227.421 339.446 226.963C339.821 226.506 340.009 225.837 340.009 224.957V219.906H341.417V228.6H340.079V227.227H339.974C339.762 227.685 339.469 228.066 339.094 228.371C338.73 228.665 338.255 228.811 337.668 228.811ZM347.079 228.811C346.293 228.811 345.718 228.577 345.354 228.107C344.991 227.638 344.809 226.993 344.809 226.171V221.05H343.26V219.906H344.809V217.547H346.199V219.906H348.716V221.05H346.199V226.048C346.199 226.611 346.305 227.004 346.516 227.227C346.739 227.45 347.021 227.562 347.361 227.562C347.596 227.562 347.807 227.521 347.994 227.438C348.182 227.345 348.358 227.221 348.522 227.069L349.156 228.054C348.616 228.559 347.924 228.811 347.079 228.811ZM354.28 219.906H355.794L357.994 227.139H358.099L360.141 219.906H361.813L363.855 227.139H363.96L366.16 219.906H367.568L364.611 228.6H363.027L360.986 221.402H360.88L358.856 228.6H357.237L354.28 219.906ZM369.532 215.84H370.94V221.138H371.046C371.245 220.739 371.533 220.398 371.908 220.117C372.284 219.835 372.765 219.694 373.351 219.694C374.349 219.694 375.135 219.958 375.71 220.486C376.296 221.014 376.59 221.865 376.59 223.038V228.6H375.182V223.302C375.182 222.411 375 221.783 374.636 221.419C374.284 221.044 373.762 220.856 373.07 220.856C372.401 220.856 371.879 221.085 371.503 221.542C371.128 222 370.94 222.669 370.94 223.549V228.6H369.532V215.84ZM381.247 228.811C380.849 228.811 380.479 228.747 380.139 228.618C379.81 228.489 379.523 228.307 379.276 228.072C379.03 227.837 378.836 227.562 378.695 227.245C378.566 226.916 378.502 226.558 378.502 226.171C378.502 225.42 378.772 224.816 379.311 224.358C379.851 223.901 380.62 223.643 381.617 223.584L383.905 223.443V222.827C383.905 222.158 383.741 221.677 383.412 221.384C383.095 221.079 382.638 220.926 382.039 220.926C381.535 220.926 381.101 221.02 380.737 221.208C380.373 221.396 380.092 221.601 379.892 221.824L379.047 220.979C379.353 220.604 379.763 220.299 380.279 220.064C380.807 219.818 381.406 219.694 382.075 219.694C382.673 219.694 383.178 219.777 383.588 219.941C383.999 220.093 384.327 220.305 384.574 220.574C384.832 220.844 385.014 221.161 385.119 221.525C385.237 221.889 385.295 222.276 385.295 222.686V228.6H383.975V227.122H383.87C383.635 227.65 383.307 228.066 382.884 228.371C382.462 228.665 381.916 228.811 381.247 228.811ZM381.459 227.614C382.186 227.614 382.773 227.403 383.219 226.981C383.676 226.547 383.905 225.972 383.905 225.256V224.499L381.687 224.658C380.514 224.752 379.927 225.244 379.927 226.136C379.927 226.582 380.068 226.94 380.35 227.21C380.643 227.48 381.013 227.614 381.459 227.614ZM390.804 228.811C390.018 228.811 389.443 228.577 389.079 228.107C388.716 227.638 388.534 226.993 388.534 226.171V221.05H386.985V219.906H388.534V217.547H389.924V219.906H392.441V221.05H389.924V226.048C389.924 226.611 390.03 227.004 390.241 227.227C390.464 227.45 390.746 227.562 391.086 227.562C391.321 227.562 391.532 227.521 391.719 227.438C391.907 227.345 392.083 227.221 392.247 227.069L392.881 228.054C392.341 228.559 391.649 228.811 390.804 228.811ZM399.572 231.926C399.442 231.926 399.308 231.915 399.167 231.891C399.038 231.88 398.926 231.862 398.832 231.838V230.624C398.891 230.636 398.985 230.648 399.114 230.659C399.255 230.671 399.384 230.677 399.501 230.677C399.736 230.677 399.935 230.659 400.1 230.624C400.264 230.589 400.41 230.507 400.54 230.378C400.68 230.26 400.815 230.078 400.944 229.832C401.073 229.597 401.214 229.281 401.367 228.882L397.882 219.906H399.413L402.036 227.192H402.141L404.781 219.906H406.207L402.792 228.688C402.569 229.263 402.352 229.75 402.141 230.149C401.942 230.56 401.719 230.894 401.472 231.152C401.226 231.422 400.95 231.616 400.645 231.733C400.352 231.862 399.994 231.926 399.572 231.926ZM411.31 228.811C410.617 228.811 410.007 228.694 409.479 228.459C408.963 228.213 408.529 227.884 408.177 227.474C407.836 227.063 407.578 226.582 407.402 226.03C407.238 225.479 407.156 224.886 407.156 224.253C407.156 223.619 407.238 223.027 407.402 222.475C407.578 221.924 407.836 221.443 408.177 221.032C408.529 220.621 408.963 220.299 409.479 220.064C410.007 219.818 410.617 219.694 411.31 219.694C412.002 219.694 412.6 219.818 413.105 220.064C413.621 220.299 414.049 220.621 414.39 221.032C414.73 221.443 414.982 221.924 415.146 222.475C415.322 223.027 415.41 223.619 415.41 224.253C415.41 224.886 415.322 225.479 415.146 226.03C414.982 226.582 414.73 227.063 414.39 227.474C414.049 227.884 413.621 228.213 413.105 228.459C412.6 228.694 412.002 228.811 411.31 228.811ZM408.599 224.253C408.599 224.757 408.652 225.221 408.758 225.643C408.875 226.054 409.045 226.412 409.268 226.717C409.491 227.01 409.772 227.239 410.113 227.403C410.453 227.568 410.852 227.65 411.31 227.65C411.755 227.65 412.143 227.568 412.471 227.403C412.811 227.239 413.087 227.01 413.298 226.717C413.521 226.412 413.686 226.054 413.791 225.643C413.908 225.221 413.967 224.757 413.967 224.253C413.967 223.748 413.908 223.291 413.791 222.88C413.686 222.458 413.521 222.1 413.298 221.806C413.087 221.501 412.811 221.267 412.471 221.102C412.143 220.938 411.755 220.856 411.31 220.856C410.852 220.856 410.453 220.938 410.113 221.102C409.772 221.267 409.491 221.501 409.268 221.806C409.045 222.1 408.875 222.458 408.758 222.88C408.652 223.291 408.599 223.748 408.599 224.253ZM420.666 228.811C420.185 228.811 419.751 228.747 419.364 228.618C418.977 228.489 418.642 228.289 418.361 228.019C418.091 227.749 417.88 227.403 417.727 226.981C417.575 226.558 417.498 226.054 417.498 225.467V219.906H418.906V225.203C418.906 226.095 419.077 226.729 419.417 227.104C419.769 227.468 420.279 227.65 420.948 227.65C421.582 227.65 422.08 227.421 422.444 226.963C422.819 226.506 423.007 225.837 423.007 224.957V219.906H424.415V228.6H423.078V227.227H422.972C422.761 227.685 422.467 228.066 422.092 228.371C421.728 228.665 421.253 228.811 420.666 228.811ZM427.402 219.906H428.74V221.314H428.846C429.033 220.856 429.303 220.475 429.655 220.17C430.007 219.853 430.447 219.694 430.975 219.694C431.421 219.694 431.814 219.782 432.154 219.958L431.679 221.226C431.527 221.144 431.362 221.091 431.186 221.067C431.022 221.032 430.852 221.014 430.676 221.014C430.101 221.014 429.644 221.249 429.303 221.718C428.975 222.176 428.81 222.763 428.81 223.478V228.6H427.402V219.906ZM441.505 228.811C440.801 228.811 440.191 228.682 439.675 228.424C439.17 228.166 438.754 227.826 438.425 227.403C438.097 226.981 437.856 226.5 437.703 225.96C437.551 225.409 437.475 224.84 437.475 224.253C437.475 223.666 437.551 223.103 437.703 222.563C437.856 222.012 438.091 221.525 438.407 221.102C438.736 220.68 439.153 220.34 439.657 220.082C440.162 219.824 440.766 219.694 441.47 219.694C442.209 219.694 442.813 219.818 443.283 220.064C443.752 220.31 444.151 220.639 444.479 221.05L443.599 221.877C443.318 221.572 443.019 221.337 442.702 221.173C442.397 220.997 441.998 220.909 441.505 220.909C440.731 220.909 440.103 221.208 439.622 221.806C439.153 222.393 438.918 223.209 438.918 224.253C438.918 224.769 438.982 225.233 439.111 225.643C439.241 226.054 439.422 226.406 439.657 226.699C439.892 226.993 440.167 227.216 440.484 227.368C440.801 227.521 441.153 227.597 441.54 227.597C442.01 227.597 442.414 227.515 442.755 227.35C443.095 227.174 443.412 226.922 443.705 226.594L444.55 227.438C444.21 227.849 443.793 228.184 443.3 228.442C442.807 228.688 442.209 228.811 441.505 228.811ZM449.593 228.811C449.112 228.811 448.678 228.747 448.291 228.618C447.903 228.489 447.569 228.289 447.287 228.019C447.017 227.749 446.806 227.403 446.654 226.981C446.501 226.558 446.425 226.054 446.425 225.467V219.906H447.833V225.203C447.833 226.095 448.003 226.729 448.343 227.104C448.695 227.468 449.206 227.65 449.875 227.65C450.508 227.65 451.007 227.421 451.371 226.963C451.746 226.506 451.934 225.837 451.934 224.957V219.906H453.342V228.6H452.004V227.227H451.899C451.687 227.685 451.394 228.066 451.019 228.371C450.655 228.665 450.18 228.811 449.593 228.811ZM460.518 226.347C460.518 226.089 460.459 225.878 460.342 225.714C460.225 225.538 460.06 225.391 459.849 225.274C459.65 225.156 459.421 225.057 459.163 224.974C458.905 224.892 458.635 224.81 458.353 224.728C458.025 224.634 457.708 224.523 457.403 224.394C457.109 224.265 456.845 224.106 456.611 223.918C456.376 223.719 456.188 223.484 456.047 223.214C455.907 222.945 455.836 222.616 455.836 222.229C455.836 221.818 455.913 221.454 456.065 221.138C456.218 220.821 456.429 220.557 456.699 220.346C456.969 220.134 457.285 219.976 457.649 219.87C458.013 219.753 458.406 219.694 458.828 219.694C459.462 219.694 460.043 219.812 460.571 220.046C461.099 220.269 461.533 220.621 461.873 221.102L460.958 221.947C460.7 221.642 460.395 221.39 460.043 221.19C459.702 220.991 459.298 220.891 458.828 220.891C458.629 220.891 458.429 220.915 458.23 220.962C458.042 221.009 457.872 221.085 457.719 221.19C457.567 221.284 457.444 221.408 457.35 221.56C457.256 221.713 457.209 221.894 457.209 222.106C457.209 222.364 457.268 222.581 457.385 222.757C457.502 222.921 457.661 223.062 457.86 223.179C458.071 223.297 458.306 223.396 458.564 223.478C458.822 223.561 459.092 223.643 459.374 223.725C459.702 223.819 460.013 223.93 460.307 224.059C460.612 224.188 460.882 224.353 461.116 224.552C461.351 224.74 461.539 224.969 461.679 225.238C461.82 225.508 461.891 225.837 461.891 226.224C461.891 226.682 461.803 227.075 461.627 227.403C461.462 227.72 461.234 227.984 460.94 228.195C460.647 228.406 460.307 228.559 459.919 228.653C459.532 228.758 459.122 228.811 458.687 228.811C457.925 228.811 457.274 228.682 456.734 228.424C456.206 228.166 455.789 227.832 455.484 227.421L456.417 226.541C456.687 226.858 456.998 227.116 457.35 227.315C457.714 227.515 458.165 227.614 458.705 227.614C458.951 227.614 459.18 227.591 459.391 227.544C459.614 227.497 459.808 227.421 459.972 227.315C460.137 227.21 460.266 227.081 460.359 226.928C460.465 226.764 460.518 226.57 460.518 226.347ZM466.996 228.811C466.21 228.811 465.635 228.577 465.272 228.107C464.908 227.638 464.726 226.993 464.726 226.171V221.05H463.177V219.906H464.726V217.547H466.116V219.906H468.633V221.05H466.116V226.048C466.116 226.611 466.222 227.004 466.433 227.227C466.656 227.45 466.938 227.562 467.278 227.562C467.513 227.562 467.724 227.521 467.912 227.438C468.099 227.345 468.275 227.221 468.44 227.069L469.073 228.054C468.534 228.559 467.841 228.811 466.996 228.811ZM474.285 228.811C473.592 228.811 472.982 228.694 472.454 228.459C471.938 228.213 471.504 227.884 471.152 227.474C470.811 227.063 470.553 226.582 470.377 226.03C470.213 225.479 470.131 224.886 470.131 224.253C470.131 223.619 470.213 223.027 470.377 222.475C470.553 221.924 470.811 221.443 471.152 221.032C471.504 220.621 471.938 220.299 472.454 220.064C472.982 219.818 473.592 219.694 474.285 219.694C474.977 219.694 475.575 219.818 476.08 220.064C476.596 220.299 477.024 220.621 477.365 221.032C477.705 221.443 477.957 221.924 478.121 222.475C478.297 223.027 478.385 223.619 478.385 224.253C478.385 224.886 478.297 225.479 478.121 226.03C477.957 226.582 477.705 227.063 477.365 227.474C477.024 227.884 476.596 228.213 476.08 228.459C475.575 228.694 474.977 228.811 474.285 228.811ZM471.574 224.253C471.574 224.757 471.627 225.221 471.733 225.643C471.85 226.054 472.02 226.412 472.243 226.717C472.466 227.01 472.747 227.239 473.088 227.403C473.428 227.568 473.827 227.65 474.285 227.65C474.73 227.65 475.118 227.568 475.446 227.403C475.786 227.239 476.062 227.01 476.273 226.717C476.496 226.412 476.661 226.054 476.766 225.643C476.883 225.221 476.942 224.757 476.942 224.253C476.942 223.748 476.883 223.291 476.766 222.88C476.661 222.458 476.496 222.1 476.273 221.806C476.062 221.501 475.786 221.267 475.446 221.102C475.118 220.938 474.73 220.856 474.285 220.856C473.827 220.856 473.428 220.938 473.088 221.102C472.747 221.267 472.466 221.501 472.243 221.806C472.02 222.1 471.85 222.458 471.733 222.88C471.627 223.291 471.574 223.748 471.574 224.253ZM480.649 219.906H481.987V221.278H482.093C482.304 220.821 482.597 220.445 482.973 220.152C483.36 219.847 483.841 219.694 484.416 219.694C485.108 219.694 485.689 219.824 486.158 220.082C486.639 220.328 486.997 220.704 487.232 221.208C487.49 220.715 487.836 220.34 488.27 220.082C488.704 219.824 489.256 219.694 489.925 219.694C490.406 219.694 490.84 219.759 491.227 219.888C491.614 220.017 491.943 220.217 492.213 220.486C492.494 220.756 492.705 221.102 492.846 221.525C492.999 221.947 493.075 222.452 493.075 223.038V228.6H491.667V223.302C491.667 222.411 491.491 221.783 491.139 221.419C490.799 221.044 490.294 220.856 489.625 220.856C488.98 220.856 488.476 221.085 488.112 221.542C487.748 222 487.566 222.669 487.566 223.549V228.6H486.158V223.302C486.158 222.411 485.982 221.783 485.63 221.419C485.29 221.044 484.785 220.856 484.117 220.856C483.483 220.856 482.978 221.085 482.603 221.542C482.239 222 482.057 222.669 482.057 223.549V228.6H480.649V219.906ZM499.309 228.811C498.687 228.811 498.118 228.706 497.601 228.494C497.097 228.283 496.663 227.984 496.299 227.597C495.947 227.198 495.671 226.717 495.472 226.154C495.284 225.59 495.19 224.957 495.19 224.253C495.19 223.514 495.29 222.862 495.489 222.299C495.689 221.724 495.965 221.249 496.317 220.874C496.669 220.486 497.085 220.193 497.566 219.994C498.059 219.794 498.599 219.694 499.185 219.694C499.772 219.694 500.312 219.788 500.805 219.976C501.297 220.164 501.72 220.445 502.072 220.821C502.424 221.185 502.7 221.648 502.899 222.211C503.099 222.763 503.198 223.408 503.198 224.147C503.198 224.241 503.192 224.335 503.181 224.429C503.181 224.523 503.175 224.599 503.163 224.658H496.598C496.598 225.068 496.669 225.456 496.809 225.819C496.962 226.171 497.161 226.482 497.408 226.752C497.666 227.01 497.959 227.216 498.288 227.368C498.628 227.521 498.992 227.597 499.379 227.597C500.013 227.597 500.529 227.474 500.928 227.227C501.339 226.981 501.679 226.682 501.949 226.33L502.793 227.192C502.418 227.685 501.949 228.078 501.385 228.371C500.834 228.665 500.142 228.811 499.309 228.811ZM499.185 220.856C498.775 220.856 498.411 220.932 498.094 221.085C497.777 221.237 497.513 221.437 497.302 221.683C497.091 221.93 496.927 222.211 496.809 222.528C496.704 222.845 496.645 223.162 496.633 223.478H501.72C501.708 223.162 501.644 222.845 501.526 222.528C501.421 222.211 501.262 221.93 501.051 221.683C500.84 221.437 500.576 221.237 500.259 221.085C499.954 220.932 499.596 220.856 499.185 220.856ZM505.468 219.906H506.806V221.314H506.911C507.099 220.856 507.369 220.475 507.721 220.17C508.073 219.853 508.513 219.694 509.041 219.694C509.487 219.694 509.88 219.782 510.22 219.958L509.745 221.226C509.592 221.144 509.428 221.091 509.252 221.067C509.088 221.032 508.918 221.014 508.742 221.014C508.167 221.014 507.709 221.249 507.369 221.718C507.04 222.176 506.876 222.763 506.876 223.478V228.6H505.468V219.906ZM516.016 226.347C516.016 226.089 515.958 225.878 515.84 225.714C515.723 225.538 515.559 225.391 515.347 225.274C515.148 225.156 514.919 225.057 514.661 224.974C514.403 224.892 514.133 224.81 513.851 224.728C513.523 224.634 513.206 224.523 512.901 224.394C512.608 224.265 512.344 224.106 512.109 223.918C511.874 223.719 511.687 223.484 511.546 223.214C511.405 222.945 511.335 222.616 511.335 222.229C511.335 221.818 511.411 221.454 511.563 221.138C511.716 220.821 511.927 220.557 512.197 220.346C512.467 220.134 512.784 219.976 513.147 219.87C513.511 219.753 513.904 219.694 514.327 219.694C514.96 219.694 515.541 219.812 516.069 220.046C516.597 220.269 517.031 220.621 517.371 221.102L516.456 221.947C516.198 221.642 515.893 221.39 515.541 221.19C515.201 220.991 514.796 220.891 514.327 220.891C514.127 220.891 513.928 220.915 513.728 220.962C513.541 221.009 513.37 221.085 513.218 221.19C513.065 221.284 512.942 221.408 512.848 221.56C512.754 221.713 512.707 221.894 512.707 222.106C512.707 222.364 512.766 222.581 512.883 222.757C513.001 222.921 513.159 223.062 513.359 223.179C513.57 223.297 513.805 223.396 514.063 223.478C514.321 223.561 514.591 223.643 514.872 223.725C515.201 223.819 515.512 223.93 515.805 224.059C516.11 224.188 516.38 224.353 516.615 224.552C516.849 224.74 517.037 224.969 517.178 225.238C517.319 225.508 517.389 225.837 517.389 226.224C517.389 226.682 517.301 227.075 517.125 227.403C516.961 227.72 516.732 227.984 516.439 228.195C516.145 228.406 515.805 228.559 515.418 228.653C515.031 228.758 514.62 228.811 514.186 228.811C513.423 228.811 512.772 228.682 512.232 228.424C511.704 228.166 511.288 227.832 510.983 227.421L511.915 226.541C512.185 226.858 512.496 227.116 512.848 227.315C513.212 227.515 513.664 227.614 514.203 227.614C514.45 227.614 514.679 227.591 514.89 227.544C515.113 227.497 515.306 227.421 515.471 227.315C515.635 227.21 515.764 227.081 515.858 226.928C515.963 226.764 516.016 226.57 516.016 226.347ZM524.048 215.84H525.456V221.138H525.561C525.761 220.739 526.048 220.398 526.424 220.117C526.799 219.835 527.28 219.694 527.867 219.694C528.864 219.694 529.65 219.958 530.225 220.486C530.812 221.014 531.105 221.865 531.105 223.038V228.6H529.697V223.302C529.697 222.411 529.516 221.783 529.152 221.419C528.8 221.044 528.278 220.856 527.585 220.856C526.917 220.856 526.394 221.085 526.019 221.542C525.644 222 525.456 222.669 525.456 223.549V228.6H524.048V215.84ZM535.763 228.811C535.364 228.811 534.995 228.747 534.654 228.618C534.326 228.489 534.038 228.307 533.792 228.072C533.545 227.837 533.352 227.562 533.211 227.245C533.082 226.916 533.017 226.558 533.017 226.171C533.017 225.42 533.287 224.816 533.827 224.358C534.367 223.901 535.135 223.643 536.133 223.584L538.421 223.443V222.827C538.421 222.158 538.256 221.677 537.928 221.384C537.611 221.079 537.153 220.926 536.555 220.926C536.051 220.926 535.616 221.02 535.253 221.208C534.889 221.396 534.607 221.601 534.408 221.824L533.563 220.979C533.868 220.604 534.279 220.299 534.795 220.064C535.323 219.818 535.921 219.694 536.59 219.694C537.189 219.694 537.693 219.777 538.104 219.941C538.515 220.093 538.843 220.305 539.089 220.574C539.348 220.844 539.529 221.161 539.635 221.525C539.752 221.889 539.811 222.276 539.811 222.686V228.6H538.491V227.122H538.385C538.151 227.65 537.822 228.066 537.4 228.371C536.977 228.665 536.432 228.811 535.763 228.811ZM535.974 227.614C536.702 227.614 537.288 227.403 537.734 226.981C538.192 226.547 538.421 225.972 538.421 225.256V224.499L536.203 224.658C535.03 224.752 534.443 225.244 534.443 226.136C534.443 226.582 534.584 226.94 534.865 227.21C535.159 227.48 535.528 227.614 535.974 227.614ZM541.329 219.906H542.86L545.482 227.157H545.588L548.228 219.906H549.654L546.274 228.6H544.69L541.329 219.906ZM554.721 228.811C554.099 228.811 553.53 228.706 553.014 228.494C552.509 228.283 552.075 227.984 551.712 227.597C551.36 227.198 551.084 226.717 550.884 226.154C550.697 225.59 550.603 224.957 550.603 224.253C550.603 223.514 550.703 222.862 550.902 222.299C551.101 221.724 551.377 221.249 551.729 220.874C552.081 220.486 552.498 220.193 552.979 219.994C553.472 219.794 554.011 219.694 554.598 219.694C555.185 219.694 555.724 219.788 556.217 219.976C556.71 220.164 557.132 220.445 557.484 220.821C557.836 221.185 558.112 221.648 558.312 222.211C558.511 222.763 558.611 223.408 558.611 224.147C558.611 224.241 558.605 224.335 558.593 224.429C558.593 224.523 558.587 224.599 558.576 224.658H552.011C552.011 225.068 552.081 225.456 552.222 225.819C552.375 226.171 552.574 226.482 552.82 226.752C553.079 227.01 553.372 227.216 553.7 227.368C554.041 227.521 554.404 227.597 554.792 227.597C555.425 227.597 555.941 227.474 556.34 227.227C556.751 226.981 557.091 226.682 557.361 226.33L558.206 227.192C557.831 227.685 557.361 228.078 556.798 228.371C556.247 228.665 555.554 228.811 554.721 228.811ZM554.598 220.856C554.187 220.856 553.824 220.932 553.507 221.085C553.19 221.237 552.926 221.437 552.715 221.683C552.504 221.93 552.339 222.211 552.222 222.528C552.116 222.845 552.058 223.162 552.046 223.478H557.132C557.121 223.162 557.056 222.845 556.939 222.528C556.833 222.211 556.675 221.93 556.464 221.683C556.252 221.437 555.988 221.237 555.672 221.085C555.367 220.932 555.009 220.856 554.598 220.856ZM569.579 228.811C569.227 228.811 568.887 228.764 568.558 228.67C568.242 228.577 567.948 228.442 567.678 228.266C567.42 228.09 567.191 227.884 566.992 227.65C566.804 227.403 566.658 227.128 566.552 226.822H566.446V228.6H565.109V215.84H566.517V221.507H566.622C566.845 220.979 567.215 220.545 567.731 220.205C568.247 219.865 568.863 219.694 569.579 219.694C570.154 219.694 570.676 219.806 571.146 220.029C571.627 220.252 572.037 220.569 572.378 220.979C572.718 221.378 572.976 221.859 573.152 222.422C573.34 222.974 573.434 223.578 573.434 224.235C573.434 224.892 573.34 225.502 573.152 226.066C572.976 226.629 572.718 227.116 572.378 227.526C572.037 227.925 571.627 228.242 571.146 228.477C570.676 228.7 570.154 228.811 569.579 228.811ZM569.227 227.544C569.614 227.544 569.972 227.48 570.301 227.35C570.641 227.21 570.934 227.004 571.181 226.734C571.439 226.453 571.638 226.107 571.779 225.696C571.92 225.285 571.99 224.804 571.99 224.253C571.99 223.701 571.92 223.22 571.779 222.81C571.638 222.399 571.439 222.059 571.181 221.789C570.934 221.507 570.641 221.302 570.301 221.173C569.972 221.032 569.614 220.962 569.227 220.962C568.852 220.962 568.5 221.032 568.171 221.173C567.843 221.302 567.555 221.507 567.309 221.789C567.062 222.059 566.869 222.399 566.728 222.81C566.587 223.22 566.517 223.701 566.517 224.253C566.517 224.804 566.587 225.285 566.728 225.696C566.869 226.107 567.062 226.453 567.309 226.734C567.555 227.004 567.843 227.21 568.171 227.35C568.5 227.48 568.852 227.544 569.227 227.544ZM579.093 228.811C578.471 228.811 577.902 228.706 577.386 228.494C576.881 228.283 576.447 227.984 576.083 227.597C575.731 227.198 575.456 226.717 575.256 226.154C575.069 225.59 574.975 224.957 574.975 224.253C574.975 223.514 575.074 222.862 575.274 222.299C575.473 221.724 575.749 221.249 576.101 220.874C576.453 220.486 576.87 220.193 577.351 219.994C577.843 219.794 578.383 219.694 578.97 219.694C579.557 219.694 580.096 219.788 580.589 219.976C581.082 220.164 581.504 220.445 581.856 220.821C582.208 221.185 582.484 221.648 582.683 222.211C582.883 222.763 582.983 223.408 582.983 224.147C582.983 224.241 582.977 224.335 582.965 224.429C582.965 224.523 582.959 224.599 582.947 224.658H576.383C576.383 225.068 576.453 225.456 576.594 225.819C576.746 226.171 576.946 226.482 577.192 226.752C577.45 227.01 577.744 227.216 578.072 227.368C578.413 227.521 578.776 227.597 579.163 227.597C579.797 227.597 580.313 227.474 580.712 227.227C581.123 226.981 581.463 226.682 581.733 226.33L582.578 227.192C582.202 227.685 581.733 228.078 581.17 228.371C580.618 228.665 579.926 228.811 579.093 228.811ZM578.97 220.856C578.559 220.856 578.195 220.932 577.879 221.085C577.562 221.237 577.298 221.437 577.087 221.683C576.875 221.93 576.711 222.211 576.594 222.528C576.488 222.845 576.43 223.162 576.418 223.478H581.504C581.493 223.162 581.428 222.845 581.311 222.528C581.205 222.211 581.047 221.93 580.835 221.683C580.624 221.437 580.36 221.237 580.043 221.085C579.738 220.932 579.381 220.856 578.97 220.856ZM588.649 228.811C588.027 228.811 587.458 228.706 586.942 228.494C586.438 228.283 586.003 227.984 585.64 227.597C585.288 227.198 585.012 226.717 584.813 226.154C584.625 225.59 584.531 224.957 584.531 224.253C584.531 223.514 584.631 222.862 584.83 222.299C585.03 221.724 585.305 221.249 585.657 220.874C586.009 220.486 586.426 220.193 586.907 219.994C587.4 219.794 587.939 219.694 588.526 219.694C589.113 219.694 589.653 219.788 590.145 219.976C590.638 220.164 591.061 220.445 591.413 220.821C591.765 221.185 592.04 221.648 592.24 222.211C592.439 222.763 592.539 223.408 592.539 224.147C592.539 224.241 592.533 224.335 592.521 224.429C592.521 224.523 592.515 224.599 592.504 224.658H585.939C585.939 225.068 586.009 225.456 586.15 225.819C586.303 226.171 586.502 226.482 586.749 226.752C587.007 227.01 587.3 227.216 587.629 227.368C587.969 227.521 588.333 227.597 588.72 227.597C589.353 227.597 589.87 227.474 590.269 227.227C590.679 226.981 591.019 226.682 591.289 226.33L592.134 227.192C591.759 227.685 591.289 228.078 590.726 228.371C590.175 228.665 589.482 228.811 588.649 228.811ZM588.526 220.856C588.115 220.856 587.752 220.932 587.435 221.085C587.118 221.237 586.854 221.437 586.643 221.683C586.432 221.93 586.267 222.211 586.15 222.528C586.045 222.845 585.986 223.162 585.974 223.478H591.061C591.049 223.162 590.984 222.845 590.867 222.528C590.761 222.211 590.603 221.93 590.392 221.683C590.181 221.437 589.917 221.237 589.6 221.085C589.295 220.932 588.937 220.856 588.526 220.856ZM594.809 219.906H596.146V221.278H596.252C596.463 220.821 596.762 220.445 597.15 220.152C597.537 219.847 598.03 219.694 598.628 219.694C599.625 219.694 600.411 219.958 600.986 220.486C601.573 221.014 601.866 221.865 601.866 223.038V228.6H600.458V223.302C600.458 222.411 600.276 221.783 599.913 221.419C599.561 221.044 599.039 220.856 598.346 220.856C597.678 220.856 597.155 221.085 596.78 221.542C596.404 222 596.217 222.669 596.217 223.549V228.6H594.809V219.906ZM613.109 226.347C613.109 226.089 613.05 225.878 612.933 225.714C612.815 225.538 612.651 225.391 612.44 225.274C612.24 225.156 612.011 225.057 611.753 224.974C611.495 224.892 611.225 224.81 610.944 224.728C610.615 224.634 610.298 224.523 609.993 224.394C609.7 224.265 609.436 224.106 609.201 223.918C608.967 223.719 608.779 223.484 608.638 223.214C608.497 222.945 608.427 222.616 608.427 222.229C608.427 221.818 608.503 221.454 608.656 221.138C608.808 220.821 609.019 220.557 609.289 220.346C609.559 220.134 609.876 219.976 610.24 219.87C610.603 219.753 610.997 219.694 611.419 219.694C612.053 219.694 612.633 219.812 613.161 220.046C613.689 220.269 614.123 220.621 614.464 221.102L613.549 221.947C613.29 221.642 612.985 221.39 612.633 221.19C612.293 220.991 611.888 220.891 611.419 220.891C611.219 220.891 611.02 220.915 610.821 220.962C610.633 221.009 610.463 221.085 610.31 221.19C610.158 221.284 610.034 221.408 609.941 221.56C609.847 221.713 609.8 221.894 609.8 222.106C609.8 222.364 609.858 222.581 609.976 222.757C610.093 222.921 610.251 223.062 610.451 223.179C610.662 223.297 610.897 223.396 611.155 223.478C611.413 223.561 611.683 223.643 611.965 223.725C612.293 223.819 612.604 223.93 612.897 224.059C613.202 224.188 613.472 224.353 613.707 224.552C613.942 224.74 614.129 224.969 614.27 225.238C614.411 225.508 614.481 225.837 614.481 226.224C614.481 226.682 614.393 227.075 614.217 227.403C614.053 227.72 613.824 227.984 613.531 228.195C613.238 228.406 612.897 228.559 612.51 228.653C612.123 228.758 611.712 228.811 611.278 228.811C610.515 228.811 609.864 228.682 609.325 228.424C608.797 228.166 608.38 227.832 608.075 227.421L609.008 226.541C609.278 226.858 609.589 227.116 609.941 227.315C610.304 227.515 610.756 227.614 611.296 227.614C611.542 227.614 611.771 227.591 611.982 227.544C612.205 227.497 612.399 227.421 612.563 227.315C612.727 227.21 612.856 227.081 612.95 226.928C613.056 226.764 613.109 226.57 613.109 226.347ZM618.933 228.811C618.534 228.811 618.165 228.747 617.825 228.618C617.496 228.489 617.209 228.307 616.962 228.072C616.716 227.837 616.522 227.562 616.381 227.245C616.252 226.916 616.188 226.558 616.188 226.171C616.188 225.42 616.458 224.816 616.997 224.358C617.537 223.901 618.306 223.643 619.303 223.584L621.591 223.443V222.827C621.591 222.158 621.427 221.677 621.098 221.384C620.781 221.079 620.324 220.926 619.725 220.926C619.221 220.926 618.787 221.02 618.423 221.208C618.059 221.396 617.778 221.601 617.578 221.824L616.733 220.979C617.038 220.604 617.449 220.299 617.965 220.064C618.493 219.818 619.092 219.694 619.761 219.694C620.359 219.694 620.864 219.777 621.274 219.941C621.685 220.093 622.013 220.305 622.26 220.574C622.518 220.844 622.7 221.161 622.805 221.525C622.923 221.889 622.981 222.276 622.981 222.686V228.6H621.661V227.122H621.556C621.321 227.65 620.993 228.066 620.57 228.371C620.148 228.665 619.602 228.811 618.933 228.811ZM619.145 227.614C619.872 227.614 620.459 227.403 620.905 226.981C621.362 226.547 621.591 225.972 621.591 225.256V224.499L619.373 224.658C618.2 224.752 617.613 225.244 617.613 226.136C617.613 226.582 617.754 226.94 618.036 227.21C618.329 227.48 618.699 227.614 619.145 227.614ZM626.189 231.926C626.06 231.926 625.925 231.915 625.784 231.891C625.655 231.88 625.543 231.862 625.45 231.838V230.624C625.508 230.636 625.602 230.648 625.731 230.659C625.872 230.671 626.001 230.677 626.118 230.677C626.353 230.677 626.552 230.659 626.717 230.624C626.881 230.589 627.028 230.507 627.157 230.378C627.298 230.26 627.432 230.078 627.562 229.832C627.691 229.597 627.831 229.281 627.984 228.882L624.499 219.906H626.03L628.653 227.192H628.758L631.398 219.906H632.824L629.41 228.688C629.187 229.263 628.97 229.75 628.758 230.149C628.559 230.56 628.336 230.894 628.09 231.152C627.843 231.422 627.567 231.616 627.262 231.733C626.969 231.862 626.611 231.926 626.189 231.926ZM636.303 217.6C636.303 217.846 636.215 218.058 636.039 218.234C635.875 218.41 635.652 218.498 635.371 218.498C635.077 218.498 634.848 218.41 634.684 218.234C634.52 218.058 634.438 217.846 634.438 217.6C634.438 217.365 634.52 217.16 634.684 216.984C634.848 216.796 635.077 216.702 635.371 216.702C635.652 216.702 635.875 216.796 636.039 216.984C636.215 217.16 636.303 217.365 636.303 217.6ZM634.667 219.906H636.075V228.6H634.667V219.906ZM639.067 219.906H640.404V221.278H640.51C640.721 220.821 641.02 220.445 641.407 220.152C641.795 219.847 642.287 219.694 642.886 219.694C643.883 219.694 644.669 219.958 645.244 220.486C645.831 221.014 646.124 221.865 646.124 223.038V228.6H644.716V223.302C644.716 222.411 644.534 221.783 644.171 221.419C643.819 221.044 643.296 220.856 642.604 220.856C641.935 220.856 641.413 221.085 641.038 221.542C640.662 222 640.475 222.669 640.475 223.549V228.6H639.067V219.906ZM652.417 232.067C651.666 232.067 651.014 231.932 650.463 231.662C649.912 231.404 649.472 231.082 649.143 230.694L650.076 229.797C650.322 230.102 650.639 230.342 651.026 230.518C651.425 230.706 651.865 230.8 652.346 230.8C653.097 230.8 653.684 230.618 654.106 230.254C654.54 229.891 654.757 229.251 654.757 228.336V226.646H654.652C654.558 226.94 654.423 227.204 654.247 227.438C654.071 227.661 653.86 227.855 653.613 228.019C653.379 228.172 653.115 228.295 652.821 228.389C652.54 228.471 652.252 228.512 651.959 228.512C651.408 228.512 650.903 228.412 650.445 228.213C650 228.013 649.606 227.726 649.266 227.35C648.938 226.963 648.68 226.494 648.492 225.942C648.316 225.391 648.228 224.769 648.228 224.077C648.228 223.396 648.316 222.786 648.492 222.246C648.68 221.707 648.938 221.249 649.266 220.874C649.606 220.498 650 220.211 650.445 220.011C650.903 219.8 651.408 219.694 651.959 219.694C652.604 219.694 653.179 219.865 653.684 220.205C654.2 220.533 654.546 220.991 654.722 221.578H654.828V219.906H656.165V228.512C656.165 229.58 655.843 230.436 655.197 231.082C654.564 231.739 653.637 232.067 652.417 232.067ZM652.241 227.245C653.015 227.245 653.625 226.975 654.071 226.435C654.529 225.896 654.757 225.115 654.757 224.094C654.757 223.062 654.529 222.282 654.071 221.754C653.625 221.226 653.015 220.962 652.241 220.962C651.454 220.962 650.827 221.226 650.357 221.754C649.9 222.282 649.671 223.062 649.671 224.094C649.671 225.115 649.9 225.896 650.357 226.435C650.827 226.975 651.454 227.245 652.241 227.245ZM659.863 228.811C659.534 228.811 659.276 228.706 659.088 228.494C658.901 228.283 658.807 228.043 658.807 227.773C658.807 227.491 658.901 227.251 659.088 227.051C659.276 226.84 659.534 226.734 659.863 226.734C660.203 226.734 660.461 226.84 660.637 227.051C660.825 227.251 660.919 227.491 660.919 227.773C660.919 228.043 660.825 228.283 660.637 228.494C660.461 228.706 660.203 228.811 659.863 228.811Z" fill="black" fill-opacity="0.76"/>
<g clip-path="url(#clip1_14516_405961)">
<path d="M721.2 205.4C721.2 193.084 731.184 183.1 743.5 183.1H774.1C786.416 183.1 796.4 193.084 796.4 205.4C796.4 217.716 786.416 227.7 774.1 227.7H743.5C731.184 227.7 721.2 217.716 721.2 205.4Z" fill="#2B2A28"/>
<path d="M721.2 205.4C721.2 193.084 731.184 183.1 743.5 183.1H774.1C786.416 183.1 796.4 193.084 796.4 205.4C796.4 217.716 786.416 227.7 774.1 227.7H743.5C731.184 227.7 721.2 217.716 721.2 205.4Z" fill="white" fill-opacity="0.01"/>
<path d="M739.274 199.46H741.862L744.466 208.348H744.572L747.177 199.46H749.641L745.822 210.9H743.094L739.274 199.46ZM753.565 199.795C753.565 200.123 753.447 200.416 753.213 200.675C752.99 200.933 752.673 201.062 752.262 201.062C751.84 201.062 751.517 200.933 751.294 200.675C751.071 200.416 750.96 200.123 750.96 199.795C750.96 199.454 751.071 199.161 751.294 198.915C751.517 198.656 751.84 198.527 752.262 198.527C752.673 198.527 752.99 198.656 753.213 198.915C753.447 199.161 753.565 199.454 753.565 199.795ZM751.136 202.206H753.354V210.9H751.136V202.206ZM759.457 211.111C758.73 211.111 758.096 210.994 757.556 210.759C757.017 210.525 756.559 210.202 756.183 209.791C755.82 209.369 755.544 208.882 755.356 208.331C755.18 207.779 755.092 207.187 755.092 206.553C755.092 205.908 755.18 205.309 755.356 204.758C755.532 204.195 755.796 203.713 756.148 203.315C756.5 202.904 756.94 202.581 757.468 202.347C757.996 202.112 758.612 201.995 759.316 201.995C760.02 201.995 760.636 202.106 761.164 202.329C761.692 202.552 762.126 202.863 762.467 203.262C762.807 203.661 763.059 204.136 763.223 204.687C763.399 205.227 763.487 205.82 763.487 206.465C763.487 206.582 763.476 206.717 763.452 206.87C763.441 207.022 763.423 207.145 763.399 207.239H757.345C757.38 207.556 757.462 207.844 757.591 208.102C757.732 208.348 757.902 208.559 758.102 208.735C758.313 208.911 758.542 209.046 758.788 209.14C759.046 209.222 759.31 209.263 759.58 209.263C760.085 209.263 760.507 209.175 760.847 208.999C761.188 208.823 761.463 208.6 761.675 208.331L762.924 209.633C762.596 210.079 762.138 210.437 761.551 210.707C760.965 210.976 760.267 211.111 759.457 211.111ZM759.316 203.684C758.753 203.684 758.295 203.866 757.943 204.23C757.591 204.593 757.386 205.075 757.327 205.673H761.27C761.211 205.075 761.006 204.593 760.654 204.23C760.314 203.866 759.868 203.684 759.316 203.684ZM764.162 202.206H766.608L768.315 208.454H768.421L770.093 202.206H772.574L774.229 208.454H774.334L776.042 202.206H778.347L775.373 210.9H773.032L771.29 204.476H771.184L769.459 210.9H767.136L764.162 202.206Z" fill="white" fill-opacity="0.9"/>
</g>
</g>
<defs>
<filter id="filter0_f_14516_405961" x="56" y="-3" width="922" height="526" filterUnits="userSpaceOnUse" color-interpolation-filters="sRGB">
<feFlood flood-opacity="0" result="BackgroundImageFix"/>
<feBlend mode="normal" in="SourceGraphic" in2="BackgroundImageFix" result="shape"/>
<feGaussianBlur stdDeviation="50" result="effect1_foregroundBlur_14516_405961"/>
</filter>
<clipPath id="clip0_14516_405961">
<rect width="23.1" height="23.1" fill="white" transform="translate(243.65 180.25)"/>
</clipPath>
<clipPath id="clip1_14516_405961">
<path d="M721.2 205.4C721.2 193.084 731.184 183.1 743.5 183.1H774.1C786.416 183.1 796.4 193.084 796.4 205.4C796.4 217.716 786.416 227.7 774.1 227.7H743.5C731.184 227.7 721.2 217.716 721.2 205.4Z" fill="white"/>
</clipPath>
</defs>
</svg>
