<svg width="916" height="668" viewBox="0 0 916 668" fill="none" xmlns="http://www.w3.org/2000/svg">
<g filter="url(#filter0_ddd_14516_406217)">
<rect x="10" y="12.5" width="896" height="647" rx="24" fill="#FCFCFC"/>
</g>
<rect x="34" y="16.5" width="848" height="67" rx="8" fill="white"/>
<g filter="url(#filter1_ddd_14516_406217)">
<rect x="10" y="12.5" width="896" height="71" rx="20" fill="white"/>
</g>
<rect x="34" y="220.5" width="848" height="415" rx="12" fill="#F5F3F1"/>
<rect x="34" y="107.5" width="848" height="89" rx="12" fill="#F5F3F1"/>
<g clip-path="url(#clip0_14516_406217)">
<path d="M97.5844 43.665H93.3918C92.0321 43.665 92.0321 43.665 91.7493 45.2362C91.4666 46.8073 91.4652 46.8636 92.7126 46.8636H95.2046L93.7882 54.8933C93.4486 56.6909 92.6558 57.9256 90.2205 58.6548C89.5969 58.8237 89.4277 59.0476 89.4277 59.3291C89.4277 59.6656 89.54 59.9458 89.8241 60.62C90.2205 61.5745 90.4465 61.7421 90.7874 61.7421C91.1283 61.7421 91.7506 61.5745 91.9766 61.5182C95.4332 60.3948 96.8497 57.7567 97.4152 54.6131L99.0008 45.5792C99.2836 43.6703 99.2836 43.6703 97.5844 43.6703" fill="#FF8000"/>
<path d="M111.805 43.665C110.105 43.665 110.105 43.665 109.878 45.0686L108.632 52.3664C108.293 54.4992 107.726 55.7352 105.63 55.7352C103.59 55.7352 102.855 54.4992 103.193 52.5929L104.383 45.6329C104.724 43.669 104.667 43.669 102.911 43.669C101.21 43.669 101.153 43.669 100.929 45.0162L99.6827 52.314C98.9454 56.4683 101.551 59.0502 105.232 59.0502C109.369 59.0502 111.465 57.1976 112.146 52.8194L113.392 45.5779C113.674 43.669 113.561 43.669 111.806 43.669" fill="#FF8000"/>
<path d="M119.566 55.6229C120.927 55.5666 121.663 54.9486 121.663 54.3319C121.663 53.5464 120.7 53.2649 119.397 52.8721C116.847 52.0865 114.524 51.1884 114.524 48.4926C114.524 45.2927 117.188 43.5527 120.529 43.5527C121.946 43.5527 123.533 43.609 124.553 43.7216C125.459 43.8342 125.685 44.1144 125.403 45.5179C125.12 46.9215 124.779 47.0341 123.986 46.9778C123.023 46.9215 121.777 46.8089 120.303 46.8089C118.604 46.8089 118.094 47.4269 118.094 47.9872C118.094 48.7165 118.773 49.1093 120.36 49.5583C123.306 50.4002 125.232 51.5798 125.232 54.1054C125.232 57.0814 123.023 58.8188 119.454 58.934C117.749 58.9931 116.042 58.8989 114.355 58.6525C113.221 58.4849 113.166 58.4849 113.448 56.8562C113.731 55.3963 113.731 55.2851 114.808 55.3963C116.904 55.6215 118.206 55.6778 119.565 55.6215" fill="#FF8000"/>
<path d="M138.091 43.665H128.518C127.159 43.665 127.159 43.665 126.876 45.2925C126.593 46.9199 126.649 46.9212 127.839 46.9212H130.956L129.199 56.9698C128.858 58.9337 128.915 58.9337 130.671 58.9337C132.315 58.9337 132.371 58.9337 132.597 57.5302L134.41 46.9251H137.414C138.773 46.9251 138.773 46.9251 139.056 45.2964C139.339 43.6677 139.34 43.669 138.093 43.669" fill="#FF8000"/>
<path d="M154.977 46.8655C156.336 46.8655 156.336 46.8655 156.619 45.2381C156.902 43.6107 156.903 43.6094 155.656 43.6094H148.801C146.364 43.6094 146.422 43.6094 146.026 46.0237L144.27 56.1849C143.817 58.823 143.874 58.823 146.31 58.823H152.995C154.411 58.823 154.354 58.823 154.639 57.2519C154.921 55.6245 154.921 55.6245 153.675 55.6245H147.894L148.348 52.7048H153.164C154.467 52.7048 154.467 52.7048 154.693 51.19C154.92 49.6189 154.92 49.6189 153.164 49.6189H148.914L149.368 46.8694L154.977 46.8655Z" fill="#FF8000"/>
<path d="M162.228 52.2545L164.437 47.4311C164.608 47.0383 164.608 47.0383 164.891 47.0383C165.173 47.0383 165.175 47.0383 165.232 47.4874L165.911 52.2584L162.228 52.2545ZM168.234 45.5183C167.894 43.6094 167.894 43.6094 165.175 43.6094C162.625 43.6094 162.681 43.6094 161.889 45.1805L156.166 57.0254C155.316 58.7091 155.487 58.878 157.582 58.878C159.226 58.878 159.226 58.878 159.905 57.3619L160.818 55.3417H166.368L166.652 57.3632C166.878 58.8793 166.935 58.8793 168.577 58.8793C170.447 58.8793 170.617 58.7667 170.278 56.9154L168.234 45.5183Z" fill="#FF8000"/>
<path d="M181.775 43.665H172.144C170.784 43.665 170.784 43.665 170.5 45.2925C170.216 46.9199 170.274 46.9212 171.463 46.9212H174.579L172.823 56.9698C172.483 58.9337 172.54 58.9337 174.296 58.9337C175.938 58.9337 175.995 58.9337 176.223 57.5302L178.035 46.9251H181.035C182.395 46.9251 182.395 46.9251 182.679 45.2964C183.018 43.669 183.018 43.669 181.772 43.669" fill="#FF8000"/>
<path d="M83.742 47.2292C83.6469 46.987 82.348 44.6107 79.9379 41.6295C79.877 41.5572 79.8385 41.469 79.8269 41.3755C79.6819 39.6405 79.4393 37.9148 79.1002 36.2065C79.0618 36.035 78.9702 35.8796 78.8382 35.7622C78.7062 35.6448 78.5405 35.5713 78.3642 35.5519L75.8563 35.2469C75.8343 35.2449 75.8122 35.2449 75.7902 35.2469C75.65 35.2469 75.5156 35.302 75.4165 35.4002C75.3174 35.4985 75.2617 35.6317 75.2617 35.7706V36.6321C75.2617 36.6404 75.2583 36.6484 75.2524 36.6543C75.2464 36.6602 75.2384 36.6635 75.23 36.6635C75.2222 36.6634 75.2147 36.6606 75.2088 36.6556C73.6398 35.2466 71.9461 33.9802 70.1481 32.8718C69.7815 32.6285 69.3499 32.4991 68.9087 32.5C68.4674 32.4987 68.0357 32.6282 67.6693 32.8718C59.0251 38.1587 54.2656 46.7579 54.0819 47.2292C54.0277 47.3426 53.9997 47.4665 54 47.5919C54.0002 47.7808 54.0638 47.9642 54.1808 48.1133C54.2978 48.2624 54.4615 48.3687 54.6461 48.4154L57.1369 48.8894C57.3007 48.9347 57.4471 49.0277 57.5571 49.1563C57.6671 49.2849 57.7356 49.4432 57.7539 49.6108C57.7751 50.0468 58.2455 59.7786 58.8361 62.3028C58.8847 62.4841 58.9925 62.6444 59.1425 62.7588C59.2926 62.8731 59.4766 62.9352 59.6659 62.9352H59.6844C61.1379 62.8985 62.4685 62.875 63.9061 62.8553H64.025C64.0617 62.8553 64.0981 62.8481 64.132 62.8342C64.1659 62.8202 64.1967 62.7998 64.2226 62.774C64.2485 62.7482 64.269 62.7176 64.283 62.6839C64.2969 62.6502 64.304 62.6142 64.3038 62.5778V62.5712C64.2457 61.7215 64.1201 59.7786 64.0184 57.7269C64.0184 57.6759 64.0184 57.6117 64.0092 57.5594C64.0046 57.4741 63.9792 57.3913 63.9349 57.318C63.8907 57.2448 63.8291 57.1833 63.7555 57.1391C63.3762 56.9147 63.0585 56.6011 62.8306 56.2262C62.6027 55.8512 62.4715 55.4264 62.4486 54.9893C62.3165 51.5773 62.2518 47.6325 62.4407 44.5466C62.4494 44.4193 62.5071 44.3003 62.602 44.2141C62.6969 44.1279 62.8216 44.0812 62.9503 44.0838C63.079 44.0863 63.2017 44.1378 63.2931 44.2277C63.3845 44.3175 63.4374 44.4387 63.441 44.5662C63.441 44.5793 63.441 44.5924 63.441 44.6055C63.3181 46.6623 63.3088 49.095 63.3511 51.4948C63.3525 51.5722 63.3693 51.6486 63.4004 51.7195C63.4316 51.7905 63.4766 51.8546 63.5328 51.9084C63.5889 51.9621 63.6553 52.0044 63.7279 52.0327C63.8006 52.061 63.8782 52.0749 63.9563 52.0735C64.0344 52.0722 64.1114 52.0556 64.183 52.0247C64.2546 51.9938 64.3194 51.9492 64.3737 51.8936C64.4279 51.8379 64.4705 51.7722 64.4991 51.7002C64.5277 51.6281 64.5417 51.5513 64.5403 51.4739C64.4954 49.0583 64.5073 46.61 64.6328 44.5466C64.6355 44.415 64.6907 44.2898 64.7865 44.1986C64.8823 44.1073 65.0107 44.0576 65.1435 44.0602C65.2763 44.0628 65.4027 44.1176 65.4947 44.2125C65.5868 44.3074 65.637 44.4346 65.6344 44.5662V44.6055C65.5115 46.6519 65.5023 49.0701 65.5445 51.4569C65.547 51.6131 65.612 51.762 65.7252 51.8708C65.8385 51.9796 65.9907 52.0393 66.1484 52.0369C66.3061 52.0344 66.4564 51.97 66.5661 51.8578C66.6759 51.7456 66.7362 51.5948 66.7338 51.4385C66.6902 49.0334 66.702 46.5943 66.8276 44.5453C66.8302 44.4137 66.8855 44.2885 66.9813 44.1973C67.077 44.106 67.2055 44.0563 67.3383 44.0589C67.4711 44.0615 67.5974 44.1162 67.6895 44.2111C67.7815 44.306 67.8318 44.4333 67.8291 44.5649C67.8291 44.578 67.8291 44.5911 67.8291 44.6042C67.6508 47.605 67.7089 51.4019 67.8291 54.734C67.8291 54.734 67.8291 54.7628 67.8291 54.7654C67.8291 54.768 67.8291 54.7994 67.8291 54.8164V54.8492C67.8295 55.2814 67.7236 55.7073 67.5205 56.0898C67.3175 56.4724 67.0234 56.8002 66.6637 57.0448C66.5998 57.0884 66.5468 57.1459 66.5086 57.2128C66.4703 57.2797 66.4479 57.3543 66.4431 57.431C66.4431 57.431 66.381 57.943 66.6095 60.4214C66.7153 61.5042 66.7972 62.2544 66.8342 62.5935C66.8426 62.6569 66.8741 62.715 66.9227 62.757C66.9714 62.799 67.0339 62.8218 67.0984 62.8213H67.331C67.8106 62.8213 68.3048 62.8213 68.8188 62.8213H69.0117H70.8775L72.2913 62.8331C72.3562 62.8335 72.4191 62.8103 72.4678 62.7678C72.5165 62.7253 72.5478 62.6665 72.5556 62.6026C72.8819 59.6319 72.9586 57.9626 72.9586 57.9626C72.9568 57.8914 72.929 57.8233 72.8805 57.7708C72.8319 57.7183 72.7657 57.6851 72.6943 57.6772L70.9766 57.4428C70.8626 57.4289 70.7553 57.3819 70.6681 57.3079C70.5809 57.2338 70.5177 57.136 70.4864 57.0265C70.4648 56.941 70.4572 56.8525 70.4639 56.7646C71.1602 46.8627 74.4557 43.5253 74.4557 43.5253C74.5038 43.4739 74.5574 43.4278 74.6155 43.3879C74.7052 43.3227 74.8136 43.2878 74.9247 43.2884C75.0309 43.2885 75.1346 43.3202 75.2222 43.3796C75.3099 43.4389 75.3775 43.523 75.4163 43.6209C75.4406 43.6982 75.4548 43.7783 75.4586 43.8592C75.744 46.9713 75.6039 52.2686 75.4282 56.4007C75.2789 59.9082 75.0992 62.6616 75.0992 62.6616C75.099 62.6883 75.1042 62.7149 75.1144 62.7396C75.1246 62.7644 75.1396 62.7869 75.1587 62.8059C75.1777 62.8249 75.2003 62.84 75.2253 62.8502C75.2502 62.8605 75.277 62.8658 75.304 62.8658C76.2395 62.8815 77.1604 62.8998 78.1369 62.9247H78.1554C78.3447 62.9247 78.5287 62.8626 78.6788 62.7483C78.8288 62.6339 78.9366 62.4736 78.9852 62.2924C79.5772 59.7681 80.0423 50.0363 80.0674 49.6003C80.0864 49.4322 80.1559 49.2736 80.2668 49.145C80.3778 49.0164 80.5251 48.9237 80.6897 48.8789L83.1805 48.405C83.3651 48.3582 83.5288 48.2519 83.6458 48.1028C83.7628 47.9537 83.8264 47.7703 83.8266 47.5814C83.8239 47.4594 83.7951 47.3394 83.742 47.2292Z" fill="#FF8000"/>
</g>
<path d="M764.168 45.1H766.312V53.756H770.456V55.5H764.168V45.1ZM775.277 55.692C774.616 55.692 774.035 55.5853 773.533 55.372C773.043 55.148 772.627 54.8493 772.285 54.476C771.955 54.1027 771.704 53.6653 771.533 53.164C771.373 52.652 771.293 52.1133 771.293 51.548C771.293 50.9827 771.373 50.4493 771.533 49.948C771.704 49.4467 771.955 49.0093 772.285 48.636C772.627 48.252 773.043 47.9533 773.533 47.74C774.035 47.516 774.616 47.404 775.277 47.404C775.939 47.404 776.515 47.516 777.005 47.74C777.507 47.9533 777.917 48.252 778.237 48.636C778.568 49.0093 778.813 49.4467 778.973 49.948C779.144 50.4493 779.229 50.9827 779.229 51.548C779.229 52.1133 779.144 52.652 778.973 53.164C778.813 53.6653 778.568 54.1027 778.237 54.476C777.917 54.8493 777.507 55.148 777.005 55.372C776.515 55.5853 775.939 55.692 775.277 55.692ZM773.357 51.548C773.357 52.3267 773.523 52.94 773.853 53.388C774.195 53.836 774.669 54.06 775.277 54.06C775.875 54.06 776.339 53.836 776.669 53.388C777.011 52.94 777.181 52.3267 777.181 51.548C777.181 50.7693 777.011 50.156 776.669 49.708C776.339 49.26 775.875 49.036 775.277 49.036C774.669 49.036 774.195 49.26 773.853 49.708C773.523 50.156 773.357 50.7693 773.357 51.548ZM780.79 47.596H782.694V48.924H782.79C782.95 48.4653 783.196 48.0973 783.526 47.82C783.868 47.5427 784.294 47.404 784.806 47.404C785.201 47.404 785.569 47.468 785.91 47.596L785.35 49.436C785.233 49.3613 785.094 49.308 784.934 49.276C784.774 49.244 784.62 49.228 784.47 49.228C783.98 49.228 783.58 49.3987 783.27 49.74C782.961 50.0707 782.806 50.54 782.806 51.148V55.5H780.79V47.596ZM790.261 55.692C789.6 55.692 789.024 55.5853 788.533 55.372C788.043 55.1587 787.627 54.8653 787.285 54.492C786.955 54.108 786.704 53.6653 786.533 53.164C786.373 52.6627 786.293 52.124 786.293 51.548C786.293 50.9613 786.373 50.4173 786.533 49.916C786.693 49.404 786.933 48.9667 787.253 48.604C787.573 48.2307 787.973 47.9373 788.453 47.724C788.933 47.5107 789.493 47.404 790.133 47.404C790.773 47.404 791.333 47.5053 791.813 47.708C792.293 47.9107 792.688 48.1933 792.997 48.556C793.307 48.9187 793.536 49.3507 793.685 49.852C793.845 50.3427 793.925 50.8813 793.925 51.468C793.925 51.5747 793.915 51.6973 793.893 51.836C793.883 51.9747 793.867 52.0867 793.845 52.172H788.341C788.373 52.46 788.448 52.7213 788.565 52.956C788.693 53.18 788.848 53.372 789.029 53.532C789.221 53.692 789.429 53.8147 789.653 53.9C789.888 53.9747 790.128 54.012 790.373 54.012C790.832 54.012 791.216 53.932 791.525 53.772C791.835 53.612 792.085 53.4093 792.277 53.164L793.413 54.348C793.115 54.7533 792.699 55.0787 792.165 55.324C791.632 55.5693 790.997 55.692 790.261 55.692ZM790.133 48.94C789.621 48.94 789.205 49.1053 788.885 49.436C788.565 49.7667 788.379 50.204 788.325 50.748H791.909C791.856 50.204 791.669 49.7667 791.349 49.436C791.04 49.1053 790.635 48.94 790.133 48.94ZM795.493 47.596H797.398V48.796H797.494C797.696 48.38 797.979 48.044 798.342 47.788C798.715 47.532 799.168 47.404 799.702 47.404C801.003 47.404 801.84 47.8947 802.214 48.876C802.416 48.428 802.731 48.0707 803.158 47.804C803.584 47.5373 804.086 47.404 804.662 47.404C805.622 47.404 806.326 47.6707 806.774 48.204C807.222 48.7267 807.446 49.5213 807.446 50.588V55.5H805.43V50.924C805.43 49.708 804.944 49.1 803.974 49.1C803.472 49.1 803.094 49.2653 802.838 49.596C802.592 49.9267 802.47 50.4013 802.47 51.02V55.5H800.454V50.924C800.454 50.316 800.336 49.8627 800.102 49.564C799.878 49.2547 799.51 49.1 798.998 49.1C798.518 49.1 798.15 49.2653 797.894 49.596C797.638 49.9267 797.51 50.4013 797.51 51.02V55.5H795.493V47.596ZM815.498 45.404C815.498 45.7027 815.392 45.9693 815.178 46.204C814.976 46.4387 814.688 46.556 814.314 46.556C813.93 46.556 813.637 46.4387 813.434 46.204C813.232 45.9693 813.13 45.7027 813.13 45.404C813.13 45.0947 813.232 44.828 813.434 44.604C813.637 44.3693 813.93 44.252 814.314 44.252C814.688 44.252 814.976 44.3693 815.178 44.604C815.392 44.828 815.498 45.0947 815.498 45.404ZM813.29 47.596H815.306V55.5H813.29V47.596ZM817.431 47.596H819.351V49.084H819.447C819.639 48.5613 819.959 48.1507 820.407 47.852C820.866 47.5533 821.404 47.404 822.023 47.404C822.514 47.404 822.967 47.5053 823.383 47.708C823.81 47.9107 824.172 48.1933 824.471 48.556C824.78 48.908 825.02 49.34 825.191 49.852C825.362 50.3533 825.447 50.908 825.447 51.516C825.447 52.1347 825.362 52.7 825.191 53.212C825.02 53.724 824.78 54.1667 824.471 54.54C824.172 54.9027 823.81 55.1853 823.383 55.388C822.967 55.5907 822.514 55.692 822.023 55.692C821.404 55.692 820.882 55.548 820.455 55.26C820.028 54.972 819.724 54.5987 819.543 54.14H819.447V58.46H817.431V47.596ZM821.399 53.932C821.996 53.932 822.476 53.7187 822.839 53.292C823.202 52.8653 823.383 52.284 823.383 51.548C823.383 50.812 823.202 50.2307 822.839 49.804C822.476 49.3773 821.996 49.164 821.399 49.164C820.812 49.164 820.338 49.3773 819.975 49.804C819.623 50.2307 819.447 50.812 819.447 51.548C819.447 52.284 819.623 52.8653 819.975 53.292C820.338 53.7187 820.812 53.932 821.399 53.932ZM830.817 53.26C830.817 53.1 830.769 52.9667 830.673 52.86C830.587 52.7427 830.459 52.6467 830.289 52.572C830.129 52.4973 829.937 52.4333 829.713 52.38C829.489 52.316 829.243 52.252 828.977 52.188C828.667 52.1133 828.374 52.0173 828.097 51.9C827.819 51.7827 827.574 51.6333 827.361 51.452C827.158 51.26 826.993 51.036 826.865 50.78C826.737 50.524 826.673 50.2147 826.673 49.852C826.673 49.4573 826.747 49.1107 826.897 48.812C827.057 48.5027 827.275 48.2467 827.553 48.044C827.83 47.8307 828.161 47.6707 828.545 47.564C828.929 47.4573 829.345 47.404 829.793 47.404C830.497 47.404 831.105 47.516 831.617 47.74C832.129 47.9533 832.523 48.2413 832.801 48.604L831.681 49.756C831.467 49.5213 831.201 49.3293 830.881 49.18C830.571 49.0307 830.246 48.956 829.905 48.956C829.585 48.956 829.302 49.02 829.057 49.148C828.811 49.276 828.689 49.484 828.689 49.772C828.689 49.932 828.731 50.0653 828.817 50.172C828.913 50.2787 829.041 50.3747 829.201 50.46C829.371 50.5347 829.569 50.604 829.793 50.668C830.017 50.7213 830.262 50.78 830.529 50.844C830.827 50.9187 831.115 51.0147 831.393 51.132C831.681 51.2493 831.926 51.404 832.129 51.596C832.342 51.7773 832.513 51.996 832.641 52.252C832.769 52.508 832.833 52.8173 832.833 53.18C832.833 53.596 832.747 53.9587 832.577 54.268C832.417 54.5773 832.187 54.8387 831.889 55.052C831.601 55.2653 831.254 55.4253 830.849 55.532C830.454 55.6387 830.027 55.692 829.569 55.692C828.79 55.692 828.129 55.58 827.585 55.356C827.051 55.132 826.646 54.844 826.369 54.492L827.457 53.324C827.702 53.58 828.001 53.7827 828.353 53.932C828.705 54.0707 829.089 54.14 829.505 54.14C829.878 54.14 830.187 54.0707 830.433 53.932C830.689 53.7827 830.817 53.5587 830.817 53.26ZM837.15 55.692C836.179 55.692 835.475 55.4307 835.038 54.908C834.6 54.3747 834.382 53.5747 834.382 52.508V47.596H836.398V52.108C836.398 52.748 836.51 53.2227 836.734 53.532C836.958 53.8413 837.326 53.996 837.838 53.996C838.328 53.996 838.696 53.8307 838.942 53.5C839.198 53.1587 839.326 52.668 839.326 52.028V47.596H841.342V55.5H839.438V54.22H839.342C839.16 54.6467 838.883 54.9987 838.51 55.276C838.136 55.5533 837.683 55.692 837.15 55.692ZM843.447 47.596H845.351V48.796H845.447C845.649 48.38 845.932 48.044 846.295 47.788C846.668 47.532 847.121 47.404 847.655 47.404C848.956 47.404 849.793 47.8947 850.167 48.876C850.369 48.428 850.684 48.0707 851.111 47.804C851.537 47.5373 852.039 47.404 852.615 47.404C853.575 47.404 854.279 47.6707 854.727 48.204C855.175 48.7267 855.399 49.5213 855.399 50.588V55.5H853.383V50.924C853.383 49.708 852.897 49.1 851.927 49.1C851.425 49.1 851.047 49.2653 850.791 49.596C850.545 49.9267 850.423 50.4013 850.423 51.02V55.5H848.407V50.924C848.407 50.316 848.289 49.8627 848.055 49.564C847.831 49.2547 847.463 49.1 846.951 49.1C846.471 49.1 846.103 49.2653 845.847 49.596C845.591 49.9267 845.463 50.4013 845.463 51.02V55.5H843.447V47.596Z" fill="black"/>
<rect x="54" y="240.5" width="252" height="53" rx="12" fill="white"/>
<rect x="54" y="341.5" width="252" height="34" rx="12" fill="white"/>
<rect x="54" y="383.5" width="252" height="33" rx="12" fill="white"/>
<rect x="54" y="424.5" width="252" height="33" rx="12" fill="white"/>
<rect x="54" y="465.5" width="252" height="33" rx="12" fill="white"/>
<rect x="54" y="506.5" width="252" height="34" rx="12" fill="white"/>
<rect x="330" y="445.5" width="532" height="119" rx="8" fill="white"/>
<rect x="330" y="240.5" width="532" height="53" rx="12" fill="white"/>
<g clip-path="url(#clip1_14516_406217)">
<rect x="775" y="247" width="80" height="40" rx="20" fill="#F36805"/>
<path d="M792.271 261H794.951V271.82H800.131V274H792.271V261ZM804.63 274.24C804.19 274.24 803.77 274.167 803.37 274.02C802.983 273.887 802.643 273.693 802.35 273.44C802.056 273.173 801.823 272.853 801.65 272.48C801.49 272.107 801.41 271.687 801.41 271.22C801.41 270.34 801.723 269.64 802.35 269.12C802.976 268.6 803.93 268.307 805.21 268.24L807.53 268.1V267.7C807.53 267.06 807.336 266.62 806.95 266.38C806.563 266.14 806.083 266.02 805.51 266.02C805.056 266.02 804.63 266.107 804.23 266.28C803.83 266.44 803.53 266.64 803.33 266.88L801.91 265.44C802.256 264.987 802.756 264.613 803.41 264.32C804.076 264.027 804.89 263.88 805.85 263.88C807.263 263.88 808.316 264.207 809.01 264.86C809.703 265.513 810.05 266.4 810.05 267.52V274H807.67V272.42H807.55C807.296 272.98 806.93 273.427 806.45 273.76C805.97 274.08 805.363 274.24 804.63 274.24ZM805.37 272.42C806.01 272.42 806.53 272.24 806.93 271.88C807.33 271.507 807.53 270.987 807.53 270.32V269.66L805.51 269.82C804.47 269.887 803.95 270.327 803.95 271.14C803.95 271.553 804.083 271.873 804.35 272.1C804.616 272.313 804.956 272.42 805.37 272.42ZM818.261 274.24C817.488 274.24 816.815 274.053 816.241 273.68C815.681 273.307 815.281 272.793 815.041 272.14H814.921V274H812.521V259.5H815.041V265.82H815.161C815.388 265.247 815.768 264.78 816.301 264.42C816.835 264.06 817.488 263.88 818.261 263.88C818.875 263.88 819.441 264.007 819.961 264.26C820.495 264.513 820.948 264.873 821.321 265.34C821.708 265.793 822.008 266.34 822.221 266.98C822.435 267.62 822.541 268.327 822.541 269.1C822.541 269.86 822.435 270.56 822.221 271.2C822.008 271.827 821.708 272.367 821.321 272.82C820.948 273.26 820.495 273.607 819.961 273.86C819.441 274.113 818.875 274.24 818.261 274.24ZM817.481 272.04C818.228 272.04 818.828 271.773 819.281 271.24C819.735 270.707 819.961 269.98 819.961 269.06C819.961 268.14 819.735 267.413 819.281 266.88C818.828 266.347 818.228 266.08 817.481 266.08C816.748 266.08 816.155 266.347 815.701 266.88C815.261 267.413 815.041 268.14 815.041 269.06C815.041 269.98 815.261 270.707 815.701 271.24C816.155 271.773 816.748 272.04 817.481 272.04ZM828.793 274.24C827.967 274.24 827.247 274.107 826.633 273.84C826.02 273.573 825.5 273.207 825.073 272.74C824.66 272.26 824.347 271.707 824.133 271.08C823.933 270.453 823.833 269.78 823.833 269.06C823.833 268.327 823.933 267.647 824.133 267.02C824.333 266.38 824.633 265.833 825.033 265.38C825.433 264.913 825.933 264.547 826.533 264.28C827.133 264.013 827.833 263.88 828.633 263.88C829.433 263.88 830.133 264.007 830.733 264.26C831.333 264.513 831.827 264.867 832.213 265.32C832.6 265.773 832.887 266.313 833.073 266.94C833.273 267.553 833.373 268.227 833.373 268.96C833.373 269.093 833.36 269.247 833.333 269.42C833.32 269.593 833.3 269.733 833.273 269.84H826.393C826.433 270.2 826.527 270.527 826.673 270.82C826.833 271.1 827.027 271.34 827.253 271.54C827.493 271.74 827.753 271.893 828.033 272C828.327 272.093 828.627 272.14 828.933 272.14C829.507 272.14 829.987 272.04 830.373 271.84C830.76 271.64 831.073 271.387 831.313 271.08L832.733 272.56C832.36 273.067 831.84 273.473 831.173 273.78C830.507 274.087 829.713 274.24 828.793 274.24ZM828.633 265.8C827.993 265.8 827.473 266.007 827.073 266.42C826.673 266.833 826.44 267.38 826.373 268.06H830.853C830.787 267.38 830.553 266.833 830.153 266.42C829.767 266.007 829.26 265.8 828.633 265.8ZM835.334 259.5H837.854V274H835.334V259.5Z" fill="white"/>
</g>
<g clip-path="url(#clip2_14516_406217)">
<path d="M330 353.5C330 346.873 335.373 341.5 342 341.5H850C856.627 341.5 862 346.873 862 353.5V417.5C862 424.127 856.627 429.5 850 429.5H342C335.373 429.5 330 424.127 330 417.5V353.5Z" fill="#FFF8D6"/>
<path d="M346 365.5C346 361.082 349.582 357.5 354 357.5H370C374.418 357.5 378 361.082 378 365.5V381.5C378 385.918 374.418 389.5 370 389.5H354C349.582 389.5 346 385.918 346 381.5V365.5Z" fill="#FFD600"/>
<rect x="346" y="357.5" width="32" height="32" rx="16" fill="white" fill-opacity="0.01"/>
<g clip-path="url(#clip3_14516_406217)">
<path d="M362.984 370.734H361.016V374.672H362.984V370.734Z" fill="black" fill-opacity="0.76"/>
<path d="M362 378.609C362.725 378.609 363.313 378.022 363.313 377.297C363.313 376.572 362.725 375.984 362 375.984C361.275 375.984 360.688 376.572 360.688 377.297C360.688 378.022 361.275 378.609 362 378.609Z" fill="black" fill-opacity="0.76"/>
<path d="M370.111 382.219H353.889C353.479 382.221 353.076 382.111 352.725 381.9C352.373 381.69 352.086 381.387 351.894 381.024C351.689 380.652 351.587 380.232 351.599 379.808C351.61 379.383 351.735 378.97 351.959 378.609L360.071 365.616C360.268 365.279 360.55 364.999 360.888 364.803C361.226 364.608 361.609 364.503 362 364.5C362.388 364.5 362.77 364.601 363.108 364.792C363.446 364.983 363.729 365.257 363.929 365.589L372.041 378.609C372.26 378.979 372.376 379.4 372.376 379.83C372.376 380.26 372.26 380.681 372.041 381.051C371.851 381.398 371.572 381.689 371.233 381.895C370.894 382.1 370.507 382.212 370.111 382.219ZM362 366.469C361.946 366.468 361.893 366.482 361.846 366.51C361.8 366.538 361.762 366.578 361.738 366.626L353.626 379.633C353.587 379.701 353.566 379.778 353.566 379.856C353.566 379.935 353.587 380.012 353.626 380.079C353.651 380.131 353.69 380.175 353.739 380.205C353.788 380.235 353.844 380.251 353.902 380.25H370.111C370.169 380.251 370.225 380.235 370.274 380.205C370.323 380.175 370.362 380.131 370.387 380.079C370.426 380.012 370.447 379.935 370.447 379.856C370.447 379.778 370.426 379.701 370.387 379.633L362.263 366.626C362.238 366.578 362.2 366.538 362.154 366.51C362.107 366.482 362.054 366.468 362 366.469Z" fill="black" fill-opacity="0.76"/>
</g>
<path d="M393.92 368.2H390.36V365.5H400.86V368.2H397.3V378.5H393.92V368.2ZM405.671 365.78C405.671 366.233 405.518 366.64 405.211 367C404.904 367.347 404.458 367.52 403.871 367.52C403.271 367.52 402.824 367.347 402.531 367C402.238 366.64 402.091 366.233 402.091 365.78C402.091 365.327 402.238 364.927 402.531 364.58C402.824 364.22 403.271 364.04 403.871 364.04C404.458 364.04 404.904 364.22 405.211 364.58C405.518 364.927 405.671 365.327 405.671 365.78ZM402.271 368.62H405.451V378.5H402.271V368.62ZM411.904 378.72C410.651 378.72 409.744 378.407 409.184 377.78C408.637 377.153 408.364 376.153 408.364 374.78V371.16H406.944V368.62H408.364V365.94H411.504V368.62H414.424V371.16H411.504V374.84C411.504 375.28 411.577 375.6 411.724 375.8C411.884 376 412.144 376.1 412.504 376.1C412.744 376.1 412.971 376.053 413.184 375.96C413.411 375.853 413.597 375.727 413.744 375.58L414.764 377.74C414.111 378.393 413.157 378.72 411.904 378.72ZM416.119 364H419.299V378.5H416.119V364ZM425.972 378.74C425.065 378.74 424.285 378.593 423.632 378.3C422.992 378.007 422.465 377.62 422.052 377.14C421.638 376.66 421.332 376.113 421.132 375.5C420.932 374.873 420.832 374.227 420.832 373.56C420.832 372.907 420.918 372.267 421.092 371.64C421.278 371.013 421.565 370.46 421.952 369.98C422.352 369.5 422.865 369.113 423.492 368.82C424.118 368.527 424.885 368.38 425.792 368.38C426.698 368.38 427.465 368.527 428.092 368.82C428.718 369.1 429.218 369.48 429.592 369.96C429.978 370.427 430.252 370.967 430.412 371.58C430.585 372.193 430.672 372.827 430.672 373.48C430.672 373.627 430.658 373.82 430.632 374.06C430.605 374.287 430.572 374.46 430.532 374.58H424.052C424.105 374.873 424.205 375.12 424.352 375.32C424.512 375.52 424.692 375.68 424.892 375.8C425.092 375.92 425.298 376.007 425.512 376.06C425.738 376.113 425.952 376.14 426.152 376.14C426.618 376.14 427.018 376.067 427.352 375.92C427.698 375.773 427.965 375.58 428.152 375.34L429.892 377.16C429.572 377.627 429.065 378.007 428.372 378.3C427.678 378.593 426.878 378.74 425.972 378.74ZM425.792 370.74C425.365 370.74 424.985 370.873 424.652 371.14C424.318 371.393 424.098 371.84 423.992 372.48H427.552C427.458 371.84 427.245 371.393 426.912 371.14C426.578 370.873 426.205 370.74 425.792 370.74Z" fill="black" fill-opacity="0.76"/>
<path d="M394.192 407.692C393.285 407.692 392.549 407.553 391.984 407.276C391.419 406.999 390.971 406.641 390.64 406.204L391.504 405.388C391.792 405.74 392.171 406.017 392.64 406.22C393.12 406.423 393.68 406.524 394.32 406.524C394.608 406.524 394.885 406.492 395.152 406.428C395.419 406.364 395.653 406.268 395.856 406.14C396.069 406.001 396.235 405.82 396.352 405.596C396.48 405.372 396.544 405.1 396.544 404.78C396.544 404.503 396.48 404.268 396.352 404.076C396.224 403.873 396.048 403.703 395.824 403.564C395.611 403.415 395.355 403.287 395.056 403.18C394.757 403.063 394.432 402.945 394.08 402.828C393.707 402.7 393.339 402.567 392.976 402.428C392.613 402.279 392.288 402.092 392 401.868C391.712 401.644 391.477 401.372 391.296 401.052C391.115 400.721 391.024 400.316 391.024 399.836C391.024 399.356 391.109 398.935 391.28 398.572C391.461 398.209 391.707 397.905 392.016 397.66C392.325 397.415 392.693 397.228 393.12 397.1C393.547 396.972 394.011 396.908 394.512 396.908C395.248 396.908 395.904 397.036 396.48 397.292C397.067 397.548 397.541 397.937 397.904 398.46L397.04 399.308C396.752 398.956 396.384 398.663 395.936 398.428C395.488 398.193 394.976 398.076 394.4 398.076C394.155 398.076 393.915 398.108 393.68 398.172C393.445 398.225 393.232 398.321 393.04 398.46C392.848 398.599 392.693 398.775 392.576 398.988C392.459 399.201 392.4 399.457 392.4 399.756C392.4 400.033 392.464 400.273 392.592 400.476C392.72 400.668 392.891 400.839 393.104 400.988C393.328 401.127 393.589 401.255 393.888 401.372C394.187 401.479 394.512 401.591 394.864 401.708C395.237 401.836 395.605 401.975 395.968 402.124C396.331 402.273 396.656 402.46 396.944 402.684C397.232 402.908 397.467 403.18 397.648 403.5C397.829 403.82 397.92 404.22 397.92 404.7C397.92 405.212 397.819 405.66 397.616 406.044C397.424 406.417 397.157 406.727 396.816 406.972C396.485 407.217 396.091 407.399 395.632 407.516C395.184 407.633 394.704 407.692 394.192 407.692ZM402.799 407.692C402.361 407.692 401.967 407.633 401.615 407.516C401.263 407.399 400.959 407.217 400.703 406.972C400.457 406.727 400.265 406.412 400.127 406.028C399.988 405.644 399.919 405.185 399.919 404.652V399.596H401.199V404.412C401.199 405.223 401.353 405.799 401.663 406.14C401.983 406.471 402.447 406.636 403.055 406.636C403.631 406.636 404.084 406.428 404.415 406.012C404.756 405.596 404.927 404.988 404.927 404.188V399.596H406.207V407.5H404.991V406.252H404.895C404.703 406.668 404.436 407.015 404.095 407.292C403.764 407.559 403.332 407.692 402.799 407.692ZM408.923 399.596H410.139V401.212H410.235C410.331 400.945 410.464 400.7 410.635 400.476C410.816 400.252 411.024 400.06 411.259 399.9C411.504 399.74 411.771 399.617 412.059 399.532C412.357 399.447 412.667 399.404 412.987 399.404C413.509 399.404 413.984 399.511 414.411 399.724C414.848 399.927 415.221 400.215 415.531 400.588C415.84 400.951 416.075 401.388 416.235 401.9C416.405 402.412 416.491 402.967 416.491 403.564C416.491 404.161 416.405 404.716 416.235 405.228C416.075 405.729 415.84 406.167 415.531 406.54C415.221 406.903 414.848 407.185 414.411 407.388C413.984 407.591 413.509 407.692 412.987 407.692C412.336 407.692 411.776 407.537 411.307 407.228C410.837 406.919 410.501 406.524 410.299 406.044H410.203V410.46H408.923V399.596ZM412.667 406.54C413.019 406.54 413.344 406.481 413.643 406.364C413.952 406.236 414.219 406.049 414.443 405.804C414.677 405.548 414.859 405.233 414.987 404.86C415.115 404.487 415.179 404.049 415.179 403.548C415.179 403.047 415.115 402.609 414.987 402.236C414.859 401.863 414.677 401.553 414.443 401.308C414.219 401.052 413.952 400.865 413.643 400.748C413.344 400.62 413.019 400.556 412.667 400.556C412.325 400.556 412.005 400.62 411.707 400.748C411.408 400.865 411.147 401.052 410.923 401.308C410.699 401.553 410.523 401.863 410.395 402.236C410.267 402.609 410.203 403.047 410.203 403.548C410.203 404.049 410.267 404.487 410.395 404.86C410.523 405.233 410.699 405.548 410.923 405.804C411.147 406.049 411.408 406.236 411.707 406.364C412.005 406.481 412.325 406.54 412.667 406.54ZM418.548 399.596H419.764V401.212H419.86C419.956 400.945 420.089 400.7 420.26 400.476C420.441 400.252 420.649 400.06 420.884 399.9C421.129 399.74 421.396 399.617 421.684 399.532C421.982 399.447 422.292 399.404 422.612 399.404C423.134 399.404 423.609 399.511 424.036 399.724C424.473 399.927 424.846 400.215 425.156 400.588C425.465 400.951 425.7 401.388 425.86 401.9C426.03 402.412 426.116 402.967 426.116 403.564C426.116 404.161 426.03 404.716 425.86 405.228C425.7 405.729 425.465 406.167 425.156 406.54C424.846 406.903 424.473 407.185 424.036 407.388C423.609 407.591 423.134 407.692 422.612 407.692C421.961 407.692 421.401 407.537 420.932 407.228C420.462 406.919 420.126 406.524 419.924 406.044H419.828V410.46H418.548V399.596ZM422.292 406.54C422.644 406.54 422.969 406.481 423.268 406.364C423.577 406.236 423.844 406.049 424.068 405.804C424.302 405.548 424.484 405.233 424.612 404.86C424.74 404.487 424.804 404.049 424.804 403.548C424.804 403.047 424.74 402.609 424.612 402.236C424.484 401.863 424.302 401.553 424.068 401.308C423.844 401.052 423.577 400.865 423.268 400.748C422.969 400.62 422.644 400.556 422.292 400.556C421.95 400.556 421.63 400.62 421.332 400.748C421.033 400.865 420.772 401.052 420.548 401.308C420.324 401.553 420.148 401.863 420.02 402.236C419.892 402.609 419.828 403.047 419.828 403.548C419.828 404.049 419.892 404.487 420.02 404.86C420.148 405.233 420.324 405.548 420.548 405.804C420.772 406.049 421.033 406.236 421.332 406.364C421.63 406.481 421.95 406.54 422.292 406.54ZM431.293 407.692C430.663 407.692 430.109 407.585 429.629 407.372C429.159 407.148 428.765 406.849 428.445 406.476C428.135 406.103 427.901 405.665 427.741 405.164C427.591 404.663 427.517 404.124 427.517 403.548C427.517 402.972 427.591 402.433 427.741 401.932C427.901 401.431 428.135 400.993 428.445 400.62C428.765 400.247 429.159 399.953 429.629 399.74C430.109 399.516 430.663 399.404 431.293 399.404C431.922 399.404 432.466 399.516 432.925 399.74C433.394 399.953 433.783 400.247 434.093 400.62C434.402 400.993 434.631 401.431 434.781 401.932C434.941 402.433 435.021 402.972 435.021 403.548C435.021 404.124 434.941 404.663 434.781 405.164C434.631 405.665 434.402 406.103 434.093 406.476C433.783 406.849 433.394 407.148 432.925 407.372C432.466 407.585 431.922 407.692 431.293 407.692ZM428.829 403.548C428.829 404.007 428.877 404.428 428.973 404.812C429.079 405.185 429.234 405.511 429.437 405.788C429.639 406.055 429.895 406.263 430.205 406.412C430.514 406.561 430.877 406.636 431.293 406.636C431.698 406.636 432.05 406.561 432.349 406.412C432.658 406.263 432.909 406.055 433.101 405.788C433.303 405.511 433.453 405.185 433.549 404.812C433.655 404.428 433.709 404.007 433.709 403.548C433.709 403.089 433.655 402.673 433.549 402.3C433.453 401.916 433.303 401.591 433.101 401.324C432.909 401.047 432.658 400.833 432.349 400.684C432.05 400.535 431.698 400.46 431.293 400.46C430.877 400.46 430.514 400.535 430.205 400.684C429.895 400.833 429.639 401.047 429.437 401.324C429.234 401.591 429.079 401.916 428.973 402.3C428.877 402.673 428.829 403.089 428.829 403.548ZM437.079 399.596H438.295V400.876H438.391C438.561 400.46 438.807 400.113 439.127 399.836C439.447 399.548 439.847 399.404 440.327 399.404C440.732 399.404 441.089 399.484 441.399 399.644L440.967 400.796C440.828 400.721 440.679 400.673 440.519 400.652C440.369 400.62 440.215 400.604 440.055 400.604C439.532 400.604 439.116 400.817 438.807 401.244C438.508 401.66 438.359 402.193 438.359 402.844V407.5H437.079V399.596ZM445.48 407.692C444.765 407.692 444.242 407.479 443.912 407.052C443.581 406.625 443.416 406.039 443.416 405.292V400.636H442.008V399.596H443.416V397.452H444.68V399.596H446.968V400.636H444.68V405.18C444.68 405.692 444.776 406.049 444.968 406.252C445.17 406.455 445.426 406.556 445.736 406.556C445.949 406.556 446.141 406.519 446.312 406.444C446.482 406.359 446.642 406.247 446.792 406.108L447.368 407.004C446.877 407.463 446.248 407.692 445.48 407.692ZM450.598 397.5C450.598 397.724 450.518 397.916 450.358 398.076C450.209 398.236 450.006 398.316 449.75 398.316C449.483 398.316 449.275 398.236 449.126 398.076C448.977 397.916 448.902 397.724 448.902 397.5C448.902 397.287 448.977 397.1 449.126 396.94C449.275 396.769 449.483 396.684 449.75 396.684C450.006 396.684 450.209 396.769 450.358 396.94C450.518 397.1 450.598 397.287 450.598 397.5ZM449.11 399.596H450.39V407.5H449.11V399.596ZM453.11 399.596H454.326V400.844H454.422C454.614 400.428 454.886 400.087 455.238 399.82C455.59 399.543 456.038 399.404 456.582 399.404C457.489 399.404 458.203 399.644 458.726 400.124C459.259 400.604 459.526 401.377 459.526 402.444V407.5H458.246V402.684C458.246 401.873 458.081 401.303 457.75 400.972C457.43 400.631 456.955 400.46 456.326 400.46C455.718 400.46 455.243 400.668 454.902 401.084C454.561 401.5 454.39 402.108 454.39 402.908V407.5H453.11V399.596ZM465.246 410.652C464.564 410.652 463.972 410.529 463.47 410.284C462.969 410.049 462.569 409.756 462.27 409.404L463.118 408.588C463.342 408.865 463.63 409.084 463.982 409.244C464.345 409.415 464.745 409.5 465.182 409.5C465.865 409.5 466.398 409.335 466.782 409.004C467.177 408.673 467.374 408.092 467.374 407.26V405.724H467.278C467.193 405.991 467.07 406.231 466.91 406.444C466.75 406.647 466.558 406.823 466.334 406.972C466.121 407.111 465.881 407.223 465.614 407.308C465.358 407.383 465.097 407.42 464.83 407.42C464.329 407.42 463.87 407.329 463.454 407.148C463.049 406.967 462.692 406.705 462.382 406.364C462.084 406.012 461.849 405.585 461.678 405.084C461.518 404.583 461.438 404.017 461.438 403.388C461.438 402.769 461.518 402.215 461.678 401.724C461.849 401.233 462.084 400.817 462.382 400.476C462.692 400.135 463.049 399.873 463.454 399.692C463.87 399.5 464.329 399.404 464.83 399.404C465.417 399.404 465.94 399.559 466.398 399.868C466.868 400.167 467.182 400.583 467.342 401.116H467.438V399.596H468.654V407.42C468.654 408.391 468.361 409.169 467.774 409.756C467.198 410.353 466.356 410.652 465.246 410.652ZM465.086 406.268C465.79 406.268 466.345 406.023 466.75 405.532C467.166 405.041 467.374 404.332 467.374 403.404C467.374 402.465 467.166 401.756 466.75 401.276C466.345 400.796 465.79 400.556 465.086 400.556C464.372 400.556 463.801 400.796 463.374 401.276C462.958 401.756 462.75 402.465 462.75 403.404C462.75 404.332 462.958 405.041 463.374 405.532C463.801 406.023 464.372 406.268 465.086 406.268ZM477.651 407.692C476.937 407.692 476.414 407.479 476.083 407.052C475.753 406.625 475.587 406.039 475.587 405.292V400.636H474.179V399.596H475.587V397.452H476.851V399.596H479.139V400.636H476.851V405.18C476.851 405.692 476.947 406.049 477.139 406.252C477.342 406.455 477.598 406.556 477.907 406.556C478.121 406.556 478.313 406.519 478.483 406.444C478.654 406.359 478.814 406.247 478.963 406.108L479.539 407.004C479.049 407.463 478.419 407.692 477.651 407.692ZM484.245 407.692C483.68 407.692 483.162 407.596 482.693 407.404C482.234 407.212 481.84 406.94 481.509 406.588C481.189 406.225 480.938 405.788 480.757 405.276C480.586 404.764 480.501 404.188 480.501 403.548C480.501 402.876 480.592 402.284 480.773 401.772C480.954 401.249 481.205 400.817 481.525 400.476C481.845 400.124 482.224 399.857 482.661 399.676C483.109 399.495 483.6 399.404 484.133 399.404C484.666 399.404 485.157 399.489 485.605 399.66C486.053 399.831 486.437 400.087 486.757 400.428C487.077 400.759 487.328 401.18 487.509 401.692C487.69 402.193 487.781 402.78 487.781 403.452C487.781 403.537 487.776 403.623 487.765 403.708C487.765 403.793 487.76 403.863 487.749 403.916H481.781C481.781 404.289 481.845 404.641 481.973 404.972C482.112 405.292 482.293 405.575 482.517 405.82C482.752 406.055 483.018 406.241 483.317 406.38C483.626 406.519 483.957 406.588 484.309 406.588C484.885 406.588 485.354 406.476 485.717 406.252C486.09 406.028 486.4 405.756 486.645 405.436L487.413 406.22C487.072 406.668 486.645 407.025 486.133 407.292C485.632 407.559 485.002 407.692 484.245 407.692ZM484.133 400.46C483.76 400.46 483.429 400.529 483.141 400.668C482.853 400.807 482.613 400.988 482.421 401.212C482.229 401.436 482.08 401.692 481.973 401.98C481.877 402.268 481.824 402.556 481.813 402.844H486.437C486.426 402.556 486.368 402.268 486.261 401.98C486.165 401.692 486.021 401.436 485.829 401.212C485.637 400.988 485.397 400.807 485.109 400.668C484.832 400.529 484.506 400.46 484.133 400.46ZM491.499 403.484L488.859 399.596H490.395L492.267 402.556H492.331L494.267 399.596H495.643L493.003 403.42L495.771 407.5H494.235L492.235 404.348H492.171L490.107 407.5H488.731L491.499 403.484ZM500.089 407.692C499.374 407.692 498.852 407.479 498.521 407.052C498.19 406.625 498.025 406.039 498.025 405.292V400.636H496.617V399.596H498.025V397.452H499.289V399.596H501.577V400.636H499.289V405.18C499.289 405.692 499.385 406.049 499.577 406.252C499.78 406.455 500.036 406.556 500.345 406.556C500.558 406.556 500.75 406.519 500.921 406.444C501.092 406.359 501.252 406.247 501.401 406.108L501.977 407.004C501.486 407.463 500.857 407.692 500.089 407.692Z" fill="black" fill-opacity="0.76"/>
<rect width="16" height="16" transform="translate(330 413.5)" fill="white" fill-opacity="0.01"/>
<rect width="16" height="16" transform="translate(330 413.5)" fill="white" fill-opacity="0.01"/>
</g>
<defs>
<filter id="filter0_ddd_14516_406217" x="0" y="0.5" width="916" height="667" filterUnits="userSpaceOnUse" color-interpolation-filters="sRGB">
<feFlood flood-opacity="0" result="BackgroundImageFix"/>
<feColorMatrix in="SourceAlpha" type="matrix" values="0 0 0 0 0 0 0 0 0 0 0 0 0 0 0 0 0 0 127 0" result="hardAlpha"/>
<feOffset dy="-3"/>
<feGaussianBlur stdDeviation="3"/>
<feColorMatrix type="matrix" values="0 0 0 0 0 0 0 0 0 0 0 0 0 0 0 0 0 0 0.06 0"/>
<feBlend mode="normal" in2="BackgroundImageFix" result="effect1_dropShadow_14516_406217"/>
<feColorMatrix in="SourceAlpha" type="matrix" values="0 0 0 0 0 0 0 0 0 0 0 0 0 0 0 0 0 0 127 0" result="hardAlpha"/>
<feMorphology radius="2" operator="erode" in="SourceAlpha" result="effect2_dropShadow_14516_406217"/>
<feOffset dy="-2"/>
<feGaussianBlur stdDeviation="6"/>
<feColorMatrix type="matrix" values="0 0 0 0 0 0 0 0 0 0 0 0 0 0 0 0 0 0 0.08 0"/>
<feBlend mode="normal" in2="effect1_dropShadow_14516_406217" result="effect2_dropShadow_14516_406217"/>
<feColorMatrix in="SourceAlpha" type="matrix" values="0 0 0 0 0 0 0 0 0 0 0 0 0 0 0 0 0 0 127 0" result="hardAlpha"/>
<feOffset dy="-4"/>
<feGaussianBlur stdDeviation="3"/>
<feColorMatrix type="matrix" values="0 0 0 0 0 0 0 0 0 0 0 0 0 0 0 0 0 0 0.02 0"/>
<feBlend mode="normal" in2="effect2_dropShadow_14516_406217" result="effect3_dropShadow_14516_406217"/>
<feBlend mode="normal" in="SourceGraphic" in2="effect3_dropShadow_14516_406217" result="shape"/>
</filter>
<filter id="filter1_ddd_14516_406217" x="5" y="8.5" width="906" height="81" filterUnits="userSpaceOnUse" color-interpolation-filters="sRGB">
<feFlood flood-opacity="0" result="BackgroundImageFix"/>
<feColorMatrix in="SourceAlpha" type="matrix" values="0 0 0 0 0 0 0 0 0 0 0 0 0 0 0 0 0 0 127 0" result="hardAlpha"/>
<feOffset dy="1"/>
<feGaussianBlur stdDeviation="2.5"/>
<feColorMatrix type="matrix" values="0 0 0 0 0 0 0 0 0 0 0 0 0 0 0 0 0 0 0.06 0"/>
<feBlend mode="normal" in2="BackgroundImageFix" result="effect1_dropShadow_14516_406217"/>
<feColorMatrix in="SourceAlpha" type="matrix" values="0 0 0 0 0 0 0 0 0 0 0 0 0 0 0 0 0 0 127 0" result="hardAlpha"/>
<feMorphology radius="2" operator="erode" in="SourceAlpha" result="effect2_dropShadow_14516_406217"/>
<feOffset dy="3"/>
<feGaussianBlur stdDeviation="0.5"/>
<feColorMatrix type="matrix" values="0 0 0 0 0 0 0 0 0 0 0 0 0 0 0 0 0 0 0.07 0"/>
<feBlend mode="normal" in2="effect1_dropShadow_14516_406217" result="effect2_dropShadow_14516_406217"/>
<feColorMatrix in="SourceAlpha" type="matrix" values="0 0 0 0 0 0 0 0 0 0 0 0 0 0 0 0 0 0 127 0" result="hardAlpha"/>
<feOffset dy="2"/>
<feGaussianBlur stdDeviation="1"/>
<feColorMatrix type="matrix" values="0 0 0 0 0 0 0 0 0 0 0 0 0 0 0 0 0 0 0.03 0"/>
<feBlend mode="normal" in2="effect2_dropShadow_14516_406217" result="effect3_dropShadow_14516_406217"/>
<feBlend mode="normal" in="SourceGraphic" in2="effect3_dropShadow_14516_406217" result="shape"/>
</filter>
<clipPath id="clip0_14516_406217">
<rect width="129" height="31" fill="white" transform="translate(54 32.5)"/>
</clipPath>
<clipPath id="clip1_14516_406217">
<rect x="775" y="247" width="80" height="40" rx="20" fill="white"/>
</clipPath>
<clipPath id="clip2_14516_406217">
<path d="M330 353.5C330 346.873 335.373 341.5 342 341.5H850C856.627 341.5 862 346.873 862 353.5V417.5C862 424.127 856.627 429.5 850 429.5H342C335.373 429.5 330 424.127 330 417.5V353.5Z" fill="white"/>
</clipPath>
<clipPath id="clip3_14516_406217">
<rect width="21" height="21" fill="white" transform="translate(351.5 363)"/>
</clipPath>
</defs>
</svg>
