<svg width="916" height="668" viewBox="0 0 916 668" fill="none" xmlns="http://www.w3.org/2000/svg">
<g filter="url(#filter0_ddd_3169_99173)">
<rect x="10" y="12.5" width="896" height="647" rx="12" fill="#FCFCFC"/>
</g>
<rect x="34" y="16.5" width="848" height="67" rx="12" fill="white"/>
<g filter="url(#filter1_ddd_3169_99173)">
<path d="M10 24.5C10 17.8726 15.3726 12.5 22 12.5H894C900.627 12.5 906 17.8726 906 24.5V83.5H10V24.5Z" fill="white"/>
</g>
<rect x="34" y="195.5" width="848" height="440" rx="12" fill="#F5F3F1"/>
<path d="M764.168 45.1H766.312V53.756H770.456V55.5H764.168V45.1ZM775.277 55.692C774.616 55.692 774.035 55.5853 773.533 55.372C773.043 55.148 772.627 54.8493 772.285 54.476C771.955 54.1027 771.704 53.6653 771.533 53.164C771.373 52.652 771.293 52.1133 771.293 51.548C771.293 50.9827 771.373 50.4493 771.533 49.948C771.704 49.4467 771.955 49.0093 772.285 48.636C772.627 48.252 773.043 47.9533 773.533 47.74C774.035 47.516 774.616 47.404 775.277 47.404C775.939 47.404 776.515 47.516 777.005 47.74C777.507 47.9533 777.917 48.252 778.237 48.636C778.568 49.0093 778.813 49.4467 778.973 49.948C779.144 50.4493 779.229 50.9827 779.229 51.548C779.229 52.1133 779.144 52.652 778.973 53.164C778.813 53.6653 778.568 54.1027 778.237 54.476C777.917 54.8493 777.507 55.148 777.005 55.372C776.515 55.5853 775.939 55.692 775.277 55.692ZM773.357 51.548C773.357 52.3267 773.523 52.94 773.853 53.388C774.195 53.836 774.669 54.06 775.277 54.06C775.875 54.06 776.339 53.836 776.669 53.388C777.011 52.94 777.181 52.3267 777.181 51.548C777.181 50.7693 777.011 50.156 776.669 49.708C776.339 49.26 775.875 49.036 775.277 49.036C774.669 49.036 774.195 49.26 773.853 49.708C773.523 50.156 773.357 50.7693 773.357 51.548ZM780.79 47.596H782.694V48.924H782.79C782.95 48.4653 783.196 48.0973 783.526 47.82C783.868 47.5427 784.294 47.404 784.806 47.404C785.201 47.404 785.569 47.468 785.91 47.596L785.35 49.436C785.233 49.3613 785.094 49.308 784.934 49.276C784.774 49.244 784.62 49.228 784.47 49.228C783.98 49.228 783.58 49.3987 783.27 49.74C782.961 50.0707 782.806 50.54 782.806 51.148V55.5H780.79V47.596ZM790.261 55.692C789.6 55.692 789.024 55.5853 788.533 55.372C788.043 55.1587 787.627 54.8653 787.285 54.492C786.955 54.108 786.704 53.6653 786.533 53.164C786.373 52.6627 786.293 52.124 786.293 51.548C786.293 50.9613 786.373 50.4173 786.533 49.916C786.693 49.404 786.933 48.9667 787.253 48.604C787.573 48.2307 787.973 47.9373 788.453 47.724C788.933 47.5107 789.493 47.404 790.133 47.404C790.773 47.404 791.333 47.5053 791.813 47.708C792.293 47.9107 792.688 48.1933 792.997 48.556C793.307 48.9187 793.536 49.3507 793.685 49.852C793.845 50.3427 793.925 50.8813 793.925 51.468C793.925 51.5747 793.915 51.6973 793.893 51.836C793.883 51.9747 793.867 52.0867 793.845 52.172H788.341C788.373 52.46 788.448 52.7213 788.565 52.956C788.693 53.18 788.848 53.372 789.029 53.532C789.221 53.692 789.429 53.8147 789.653 53.9C789.888 53.9747 790.128 54.012 790.373 54.012C790.832 54.012 791.216 53.932 791.525 53.772C791.835 53.612 792.085 53.4093 792.277 53.164L793.413 54.348C793.115 54.7533 792.699 55.0787 792.165 55.324C791.632 55.5693 790.997 55.692 790.261 55.692ZM790.133 48.94C789.621 48.94 789.205 49.1053 788.885 49.436C788.565 49.7667 788.379 50.204 788.325 50.748H791.909C791.856 50.204 791.669 49.7667 791.349 49.436C791.04 49.1053 790.635 48.94 790.133 48.94ZM795.493 47.596H797.398V48.796H797.494C797.696 48.38 797.979 48.044 798.342 47.788C798.715 47.532 799.168 47.404 799.702 47.404C801.003 47.404 801.84 47.8947 802.214 48.876C802.416 48.428 802.731 48.0707 803.158 47.804C803.584 47.5373 804.086 47.404 804.662 47.404C805.622 47.404 806.326 47.6707 806.774 48.204C807.222 48.7267 807.446 49.5213 807.446 50.588V55.5H805.43V50.924C805.43 49.708 804.944 49.1 803.974 49.1C803.472 49.1 803.094 49.2653 802.838 49.596C802.592 49.9267 802.47 50.4013 802.47 51.02V55.5H800.454V50.924C800.454 50.316 800.336 49.8627 800.102 49.564C799.878 49.2547 799.51 49.1 798.998 49.1C798.518 49.1 798.15 49.2653 797.894 49.596C797.638 49.9267 797.51 50.4013 797.51 51.02V55.5H795.493V47.596ZM815.498 45.404C815.498 45.7027 815.392 45.9693 815.178 46.204C814.976 46.4387 814.688 46.556 814.314 46.556C813.93 46.556 813.637 46.4387 813.434 46.204C813.232 45.9693 813.13 45.7027 813.13 45.404C813.13 45.0947 813.232 44.828 813.434 44.604C813.637 44.3693 813.93 44.252 814.314 44.252C814.688 44.252 814.976 44.3693 815.178 44.604C815.392 44.828 815.498 45.0947 815.498 45.404ZM813.29 47.596H815.306V55.5H813.29V47.596ZM817.431 47.596H819.351V49.084H819.447C819.639 48.5613 819.959 48.1507 820.407 47.852C820.866 47.5533 821.404 47.404 822.023 47.404C822.514 47.404 822.967 47.5053 823.383 47.708C823.81 47.9107 824.172 48.1933 824.471 48.556C824.78 48.908 825.02 49.34 825.191 49.852C825.362 50.3533 825.447 50.908 825.447 51.516C825.447 52.1347 825.362 52.7 825.191 53.212C825.02 53.724 824.78 54.1667 824.471 54.54C824.172 54.9027 823.81 55.1853 823.383 55.388C822.967 55.5907 822.514 55.692 822.023 55.692C821.404 55.692 820.882 55.548 820.455 55.26C820.028 54.972 819.724 54.5987 819.543 54.14H819.447V58.46H817.431V47.596ZM821.399 53.932C821.996 53.932 822.476 53.7187 822.839 53.292C823.202 52.8653 823.383 52.284 823.383 51.548C823.383 50.812 823.202 50.2307 822.839 49.804C822.476 49.3773 821.996 49.164 821.399 49.164C820.812 49.164 820.338 49.3773 819.975 49.804C819.623 50.2307 819.447 50.812 819.447 51.548C819.447 52.284 819.623 52.8653 819.975 53.292C820.338 53.7187 820.812 53.932 821.399 53.932ZM830.817 53.26C830.817 53.1 830.769 52.9667 830.673 52.86C830.587 52.7427 830.459 52.6467 830.289 52.572C830.129 52.4973 829.937 52.4333 829.713 52.38C829.489 52.316 829.243 52.252 828.977 52.188C828.667 52.1133 828.374 52.0173 828.097 51.9C827.819 51.7827 827.574 51.6333 827.361 51.452C827.158 51.26 826.993 51.036 826.865 50.78C826.737 50.524 826.673 50.2147 826.673 49.852C826.673 49.4573 826.747 49.1107 826.897 48.812C827.057 48.5027 827.275 48.2467 827.553 48.044C827.83 47.8307 828.161 47.6707 828.545 47.564C828.929 47.4573 829.345 47.404 829.793 47.404C830.497 47.404 831.105 47.516 831.617 47.74C832.129 47.9533 832.523 48.2413 832.801 48.604L831.681 49.756C831.467 49.5213 831.201 49.3293 830.881 49.18C830.571 49.0307 830.246 48.956 829.905 48.956C829.585 48.956 829.302 49.02 829.057 49.148C828.811 49.276 828.689 49.484 828.689 49.772C828.689 49.932 828.731 50.0653 828.817 50.172C828.913 50.2787 829.041 50.3747 829.201 50.46C829.371 50.5347 829.569 50.604 829.793 50.668C830.017 50.7213 830.262 50.78 830.529 50.844C830.827 50.9187 831.115 51.0147 831.393 51.132C831.681 51.2493 831.926 51.404 832.129 51.596C832.342 51.7773 832.513 51.996 832.641 52.252C832.769 52.508 832.833 52.8173 832.833 53.18C832.833 53.596 832.747 53.9587 832.577 54.268C832.417 54.5773 832.187 54.8387 831.889 55.052C831.601 55.2653 831.254 55.4253 830.849 55.532C830.454 55.6387 830.027 55.692 829.569 55.692C828.79 55.692 828.129 55.58 827.585 55.356C827.051 55.132 826.646 54.844 826.369 54.492L827.457 53.324C827.702 53.58 828.001 53.7827 828.353 53.932C828.705 54.0707 829.089 54.14 829.505 54.14C829.878 54.14 830.187 54.0707 830.433 53.932C830.689 53.7827 830.817 53.5587 830.817 53.26ZM837.15 55.692C836.179 55.692 835.475 55.4307 835.038 54.908C834.6 54.3747 834.382 53.5747 834.382 52.508V47.596H836.398V52.108C836.398 52.748 836.51 53.2227 836.734 53.532C836.958 53.8413 837.326 53.996 837.838 53.996C838.328 53.996 838.696 53.8307 838.942 53.5C839.198 53.1587 839.326 52.668 839.326 52.028V47.596H841.342V55.5H839.438V54.22H839.342C839.16 54.6467 838.883 54.9987 838.51 55.276C838.136 55.5533 837.683 55.692 837.15 55.692ZM843.447 47.596H845.351V48.796H845.447C845.649 48.38 845.932 48.044 846.295 47.788C846.668 47.532 847.121 47.404 847.655 47.404C848.956 47.404 849.793 47.8947 850.167 48.876C850.369 48.428 850.684 48.0707 851.111 47.804C851.537 47.5373 852.039 47.404 852.615 47.404C853.575 47.404 854.279 47.6707 854.727 48.204C855.175 48.7267 855.399 49.5213 855.399 50.588V55.5H853.383V50.924C853.383 49.708 852.897 49.1 851.927 49.1C851.425 49.1 851.047 49.2653 850.791 49.596C850.545 49.9267 850.423 50.4013 850.423 51.02V55.5H848.407V50.924C848.407 50.316 848.289 49.8627 848.055 49.564C847.831 49.2547 847.463 49.1 846.951 49.1C846.471 49.1 846.103 49.2653 845.847 49.596C845.591 49.9267 845.463 50.4013 845.463 51.02V55.5H843.447V47.596Z" fill="black"/>
<rect x="54" y="215.5" width="252" height="53" rx="12" fill="white"/>
<rect x="54" y="316.5" width="252" height="34" rx="12" fill="white"/>
<rect x="54" y="358.5" width="252" height="33" rx="12" fill="white"/>
<rect x="54" y="399.5" width="252" height="33" rx="12" fill="white"/>
<rect x="54" y="440.5" width="252" height="33" rx="12" fill="white"/>
<rect x="54" y="481.5" width="252" height="34" rx="12" fill="white"/>
<rect x="330" y="451.5" width="532" height="119" rx="12" fill="white"/>
<rect x="330" y="316.5" width="532" height="119" rx="12" fill="white"/>
<rect x="330" y="215.5" width="532" height="53" rx="12" fill="white"/>
<g clip-path="url(#clip0_3169_99173)">
<rect width="896" height="88" transform="translate(10 83.5)" fill="#EBF6FA"/>
<g opacity="0.08">
<rect width="24" height="2" transform="translate(26 99.5)" fill="white" fill-opacity="0.01"/>
</g>
<g clip-path="url(#clip1_3169_99173)">
<path d="M38 103.328C35.9882 103.328 34.0216 103.925 32.3488 105.042C30.6761 106.16 29.3723 107.749 28.6024 109.607C27.8325 111.466 27.6311 113.511 28.0236 115.484C28.4161 117.458 29.3848 119.27 30.8074 120.693C32.23 122.115 34.0424 123.084 36.0156 123.476C37.9887 123.869 40.0339 123.667 41.8926 122.898C43.7513 122.128 45.3399 120.824 46.4576 119.151C47.5753 117.478 48.1719 115.512 48.1719 113.5C48.1684 110.803 47.0956 108.218 45.1888 106.311C43.2819 104.404 40.6967 103.332 38 103.328ZM38 121.703C36.3776 121.703 34.7916 121.222 33.4426 120.321C32.0936 119.419 31.0422 118.138 30.4213 116.639C29.8004 115.14 29.638 113.491 29.9545 111.9C30.271 110.308 31.0523 108.847 32.1995 107.7C33.3467 106.552 34.8084 105.771 36.3997 105.454C37.9909 105.138 39.6403 105.3 41.1392 105.921C42.6381 106.542 43.9193 107.594 44.8207 108.943C45.722 110.292 46.2031 111.878 46.2031 113.5C46.2031 114.577 45.9909 115.644 45.5787 116.639C45.1665 117.634 44.5622 118.539 43.8005 119.3C43.0388 120.062 42.1345 120.666 41.1392 121.079C40.144 121.491 39.0773 121.703 38 121.703ZM37.0156 112.437H38.9844V117.438H37.0156V112.437ZM39.3125 109.562C39.3125 109.822 39.2355 110.076 39.0913 110.292C38.9471 110.508 38.7421 110.676 38.5023 110.775C38.2624 110.874 37.9985 110.9 37.7439 110.85C37.4893 110.799 37.2555 110.674 37.0719 110.491C36.8884 110.307 36.7634 110.073 36.7127 109.819C36.6621 109.564 36.6881 109.3 36.7874 109.06C36.8868 108.82 37.055 108.615 37.2708 108.471C37.4867 108.327 37.7404 108.25 38 108.25C38.3481 108.25 38.6819 108.388 38.9281 108.634C39.1742 108.881 39.3125 109.214 39.3125 109.562Z" fill="#125FCA"/>
</g>
<path d="M65.92 110.2H62.36V107.5H72.86V110.2H69.3V120.5H65.92V110.2ZM77.6709 107.78C77.6709 108.233 77.5176 108.64 77.2109 109C76.9043 109.347 76.4576 109.52 75.8709 109.52C75.2709 109.52 74.8243 109.347 74.5309 109C74.2376 108.64 74.0909 108.233 74.0909 107.78C74.0909 107.327 74.2376 106.927 74.5309 106.58C74.8243 106.22 75.2709 106.04 75.8709 106.04C76.4576 106.04 76.9043 106.22 77.2109 106.58C77.5176 106.927 77.6709 107.327 77.6709 107.78ZM74.2709 110.62H77.4509V120.5H74.2709V110.62ZM83.9039 120.72C82.6506 120.72 81.7439 120.407 81.1839 119.78C80.6372 119.153 80.3639 118.153 80.3639 116.78V113.16H78.9439V110.62H80.3639V107.94H83.5039V110.62H86.4239V113.16H83.5039V116.84C83.5039 117.28 83.5772 117.6 83.7239 117.8C83.8839 118 84.1439 118.1 84.5039 118.1C84.7439 118.1 84.9706 118.053 85.1839 117.96C85.4106 117.853 85.5972 117.727 85.7439 117.58L86.7639 119.74C86.1106 120.393 85.1572 120.72 83.9039 120.72ZM88.1186 106H91.2986V120.5H88.1186V106ZM97.9716 120.74C97.0649 120.74 96.2849 120.593 95.6316 120.3C94.9916 120.007 94.4649 119.62 94.0516 119.14C93.6382 118.66 93.3316 118.113 93.1316 117.5C92.9316 116.873 92.8316 116.227 92.8316 115.56C92.8316 114.907 92.9182 114.267 93.0916 113.64C93.2782 113.013 93.5649 112.46 93.9516 111.98C94.3516 111.5 94.8649 111.113 95.4916 110.82C96.1182 110.527 96.8849 110.38 97.7916 110.38C98.6982 110.38 99.4649 110.527 100.092 110.82C100.718 111.1 101.218 111.48 101.592 111.96C101.978 112.427 102.252 112.967 102.412 113.58C102.585 114.193 102.672 114.827 102.672 115.48C102.672 115.627 102.658 115.82 102.632 116.06C102.605 116.287 102.572 116.46 102.532 116.58H96.0516C96.1049 116.873 96.2049 117.12 96.3516 117.32C96.5116 117.52 96.6916 117.68 96.8916 117.8C97.0916 117.92 97.2982 118.007 97.5116 118.06C97.7382 118.113 97.9516 118.14 98.1516 118.14C98.6182 118.14 99.0182 118.067 99.3516 117.92C99.6982 117.773 99.9649 117.58 100.152 117.34L101.892 119.16C101.572 119.627 101.065 120.007 100.372 120.3C99.6782 120.593 98.8782 120.74 97.9716 120.74ZM97.7916 112.74C97.3649 112.74 96.9849 112.873 96.6516 113.14C96.3182 113.393 96.0982 113.84 95.9916 114.48H99.5516C99.4582 113.84 99.2449 113.393 98.9116 113.14C98.5782 112.873 98.2049 112.74 97.7916 112.74Z" fill="#242E30"/>
<path d="M66.192 149.692C65.2853 149.692 64.5493 149.553 63.984 149.276C63.4187 148.999 62.9707 148.641 62.64 148.204L63.504 147.388C63.792 147.74 64.1707 148.017 64.64 148.22C65.12 148.423 65.68 148.524 66.32 148.524C66.608 148.524 66.8853 148.492 67.152 148.428C67.4187 148.364 67.6533 148.268 67.856 148.14C68.0693 148.001 68.2347 147.82 68.352 147.596C68.48 147.372 68.544 147.1 68.544 146.78C68.544 146.503 68.48 146.268 68.352 146.076C68.224 145.873 68.048 145.703 67.824 145.564C67.6107 145.415 67.3547 145.287 67.056 145.18C66.7573 145.063 66.432 144.945 66.08 144.828C65.7067 144.7 65.3387 144.567 64.976 144.428C64.6133 144.279 64.288 144.092 64 143.868C63.712 143.644 63.4773 143.372 63.296 143.052C63.1147 142.721 63.024 142.316 63.024 141.836C63.024 141.356 63.1093 140.935 63.28 140.572C63.4613 140.209 63.7067 139.905 64.016 139.66C64.3253 139.415 64.6933 139.228 65.12 139.1C65.5467 138.972 66.0107 138.908 66.512 138.908C67.248 138.908 67.904 139.036 68.48 139.292C69.0667 139.548 69.5413 139.937 69.904 140.46L69.04 141.308C68.752 140.956 68.384 140.663 67.936 140.428C67.488 140.193 66.976 140.076 66.4 140.076C66.1547 140.076 65.9147 140.108 65.68 140.172C65.4453 140.225 65.232 140.321 65.04 140.46C64.848 140.599 64.6933 140.775 64.576 140.988C64.4587 141.201 64.4 141.457 64.4 141.756C64.4 142.033 64.464 142.273 64.592 142.476C64.72 142.668 64.8907 142.839 65.104 142.988C65.328 143.127 65.5893 143.255 65.888 143.372C66.1867 143.479 66.512 143.591 66.864 143.708C67.2373 143.836 67.6053 143.975 67.968 144.124C68.3307 144.273 68.656 144.46 68.944 144.684C69.232 144.908 69.4667 145.18 69.648 145.5C69.8293 145.82 69.92 146.22 69.92 146.7C69.92 147.212 69.8187 147.66 69.616 148.044C69.424 148.417 69.1573 148.727 68.816 148.972C68.4853 149.217 68.0907 149.399 67.632 149.516C67.184 149.633 66.704 149.692 66.192 149.692ZM74.7988 149.692C74.3614 149.692 73.9668 149.633 73.6148 149.516C73.2628 149.399 72.9588 149.217 72.7028 148.972C72.4574 148.727 72.2654 148.412 72.1268 148.028C71.9881 147.644 71.9188 147.185 71.9188 146.652V141.596H73.1988V146.412C73.1988 147.223 73.3534 147.799 73.6628 148.14C73.9828 148.471 74.4468 148.636 75.0548 148.636C75.6308 148.636 76.0841 148.428 76.4148 148.012C76.7561 147.596 76.9268 146.988 76.9268 146.188V141.596H78.2068V149.5H76.9908V148.252H76.8948C76.7028 148.668 76.4361 149.015 76.0948 149.292C75.7641 149.559 75.3321 149.692 74.7988 149.692ZM80.9225 141.596H82.1385V143.212H82.2345C82.3305 142.945 82.4638 142.7 82.6345 142.476C82.8158 142.252 83.0238 142.06 83.2585 141.9C83.5038 141.74 83.7705 141.617 84.0585 141.532C84.3572 141.447 84.6665 141.404 84.9865 141.404C85.5092 141.404 85.9838 141.511 86.4105 141.724C86.8478 141.927 87.2212 142.215 87.5305 142.588C87.8398 142.951 88.0745 143.388 88.2345 143.9C88.4052 144.412 88.4905 144.967 88.4905 145.564C88.4905 146.161 88.4052 146.716 88.2345 147.228C88.0745 147.729 87.8398 148.167 87.5305 148.54C87.2212 148.903 86.8478 149.185 86.4105 149.388C85.9838 149.591 85.5092 149.692 84.9865 149.692C84.3358 149.692 83.7758 149.537 83.3065 149.228C82.8372 148.919 82.5012 148.524 82.2985 148.044H82.2025V152.46H80.9225V141.596ZM84.6665 148.54C85.0185 148.54 85.3438 148.481 85.6425 148.364C85.9518 148.236 86.2185 148.049 86.4425 147.804C86.6772 147.548 86.8585 147.233 86.9865 146.86C87.1145 146.487 87.1785 146.049 87.1785 145.548C87.1785 145.047 87.1145 144.609 86.9865 144.236C86.8585 143.863 86.6772 143.553 86.4425 143.308C86.2185 143.052 85.9518 142.865 85.6425 142.748C85.3438 142.62 85.0185 142.556 84.6665 142.556C84.3252 142.556 84.0052 142.62 83.7065 142.748C83.4078 142.865 83.1465 143.052 82.9225 143.308C82.6985 143.553 82.5225 143.863 82.3945 144.236C82.2665 144.609 82.2025 145.047 82.2025 145.548C82.2025 146.049 82.2665 146.487 82.3945 146.86C82.5225 147.233 82.6985 147.548 82.9225 147.804C83.1465 148.049 83.4078 148.236 83.7065 148.364C84.0052 148.481 84.3252 148.54 84.6665 148.54ZM90.5475 141.596H91.7635V143.212H91.8595C91.9555 142.945 92.0888 142.7 92.2595 142.476C92.4408 142.252 92.6488 142.06 92.8835 141.9C93.1288 141.74 93.3955 141.617 93.6835 141.532C93.9822 141.447 94.2915 141.404 94.6115 141.404C95.1342 141.404 95.6088 141.511 96.0355 141.724C96.4728 141.927 96.8462 142.215 97.1555 142.588C97.4648 142.951 97.6995 143.388 97.8595 143.9C98.0302 144.412 98.1155 144.967 98.1155 145.564C98.1155 146.161 98.0302 146.716 97.8595 147.228C97.6995 147.729 97.4648 148.167 97.1555 148.54C96.8462 148.903 96.4728 149.185 96.0355 149.388C95.6088 149.591 95.1342 149.692 94.6115 149.692C93.9608 149.692 93.4008 149.537 92.9315 149.228C92.4622 148.919 92.1262 148.524 91.9235 148.044H91.8275V152.46H90.5475V141.596ZM94.2915 148.54C94.6435 148.54 94.9688 148.481 95.2675 148.364C95.5768 148.236 95.8435 148.049 96.0675 147.804C96.3022 147.548 96.4835 147.233 96.6115 146.86C96.7395 146.487 96.8035 146.049 96.8035 145.548C96.8035 145.047 96.7395 144.609 96.6115 144.236C96.4835 143.863 96.3022 143.553 96.0675 143.308C95.8435 143.052 95.5768 142.865 95.2675 142.748C94.9688 142.62 94.6435 142.556 94.2915 142.556C93.9502 142.556 93.6302 142.62 93.3315 142.748C93.0328 142.865 92.7715 143.052 92.5475 143.308C92.3235 143.553 92.1475 143.863 92.0195 144.236C91.8915 144.609 91.8275 145.047 91.8275 145.548C91.8275 146.049 91.8915 146.487 92.0195 146.86C92.1475 147.233 92.3235 147.548 92.5475 147.804C92.7715 148.049 93.0328 148.236 93.3315 148.364C93.6302 148.481 93.9502 148.54 94.2915 148.54ZM103.293 149.692C102.663 149.692 102.109 149.585 101.629 149.372C101.159 149.148 100.765 148.849 100.445 148.476C100.135 148.103 99.9005 147.665 99.7405 147.164C99.5912 146.663 99.5165 146.124 99.5165 145.548C99.5165 144.972 99.5912 144.433 99.7405 143.932C99.9005 143.431 100.135 142.993 100.445 142.62C100.765 142.247 101.159 141.953 101.629 141.74C102.109 141.516 102.663 141.404 103.293 141.404C103.922 141.404 104.466 141.516 104.925 141.74C105.394 141.953 105.783 142.247 106.093 142.62C106.402 142.993 106.631 143.431 106.781 143.932C106.941 144.433 107.021 144.972 107.021 145.548C107.021 146.124 106.941 146.663 106.781 147.164C106.631 147.665 106.402 148.103 106.093 148.476C105.783 148.849 105.394 149.148 104.925 149.372C104.466 149.585 103.922 149.692 103.293 149.692ZM100.829 145.548C100.829 146.007 100.877 146.428 100.973 146.812C101.079 147.185 101.234 147.511 101.437 147.788C101.639 148.055 101.895 148.263 102.205 148.412C102.514 148.561 102.877 148.636 103.293 148.636C103.698 148.636 104.05 148.561 104.349 148.412C104.658 148.263 104.909 148.055 105.101 147.788C105.303 147.511 105.453 147.185 105.549 146.812C105.655 146.428 105.709 146.007 105.709 145.548C105.709 145.089 105.655 144.673 105.549 144.3C105.453 143.916 105.303 143.591 105.101 143.324C104.909 143.047 104.658 142.833 104.349 142.684C104.05 142.535 103.698 142.46 103.293 142.46C102.877 142.46 102.514 142.535 102.205 142.684C101.895 142.833 101.639 143.047 101.437 143.324C101.234 143.591 101.079 143.916 100.973 144.3C100.877 144.673 100.829 145.089 100.829 145.548ZM109.079 141.596H110.295V142.876H110.391C110.561 142.46 110.807 142.113 111.127 141.836C111.447 141.548 111.847 141.404 112.327 141.404C112.732 141.404 113.089 141.484 113.399 141.644L112.967 142.796C112.828 142.721 112.679 142.673 112.519 142.652C112.369 142.62 112.215 142.604 112.055 142.604C111.532 142.604 111.116 142.817 110.807 143.244C110.508 143.66 110.359 144.193 110.359 144.844V149.5H109.079V141.596ZM117.48 149.692C116.765 149.692 116.242 149.479 115.912 149.052C115.581 148.625 115.416 148.039 115.416 147.292V142.636H114.008V141.596H115.416V139.452H116.68V141.596H118.968V142.636H116.68V147.18C116.68 147.692 116.776 148.049 116.968 148.252C117.17 148.455 117.426 148.556 117.736 148.556C117.949 148.556 118.141 148.519 118.312 148.444C118.482 148.359 118.642 148.247 118.792 148.108L119.368 149.004C118.877 149.463 118.248 149.692 117.48 149.692ZM122.598 139.5C122.598 139.724 122.518 139.916 122.358 140.076C122.209 140.236 122.006 140.316 121.75 140.316C121.483 140.316 121.275 140.236 121.126 140.076C120.977 139.916 120.902 139.724 120.902 139.5C120.902 139.287 120.977 139.1 121.126 138.94C121.275 138.769 121.483 138.684 121.75 138.684C122.006 138.684 122.209 138.769 122.358 138.94C122.518 139.1 122.598 139.287 122.598 139.5ZM121.11 141.596H122.39V149.5H121.11V141.596ZM125.11 141.596H126.326V142.844H126.422C126.614 142.428 126.886 142.087 127.238 141.82C127.59 141.543 128.038 141.404 128.582 141.404C129.489 141.404 130.203 141.644 130.726 142.124C131.259 142.604 131.526 143.377 131.526 144.444V149.5H130.246V144.684C130.246 143.873 130.081 143.303 129.75 142.972C129.43 142.631 128.955 142.46 128.326 142.46C127.718 142.46 127.243 142.668 126.902 143.084C126.561 143.5 126.39 144.108 126.39 144.908V149.5H125.11V141.596ZM137.246 152.652C136.564 152.652 135.972 152.529 135.47 152.284C134.969 152.049 134.569 151.756 134.27 151.404L135.118 150.588C135.342 150.865 135.63 151.084 135.982 151.244C136.345 151.415 136.745 151.5 137.182 151.5C137.865 151.5 138.398 151.335 138.782 151.004C139.177 150.673 139.374 150.092 139.374 149.26V147.724H139.278C139.193 147.991 139.07 148.231 138.91 148.444C138.75 148.647 138.558 148.823 138.334 148.972C138.121 149.111 137.881 149.223 137.614 149.308C137.358 149.383 137.097 149.42 136.83 149.42C136.329 149.42 135.87 149.329 135.454 149.148C135.049 148.967 134.692 148.705 134.382 148.364C134.084 148.012 133.849 147.585 133.678 147.084C133.518 146.583 133.438 146.017 133.438 145.388C133.438 144.769 133.518 144.215 133.678 143.724C133.849 143.233 134.084 142.817 134.382 142.476C134.692 142.135 135.049 141.873 135.454 141.692C135.87 141.5 136.329 141.404 136.83 141.404C137.417 141.404 137.94 141.559 138.398 141.868C138.868 142.167 139.182 142.583 139.342 143.116H139.438V141.596H140.654V149.42C140.654 150.391 140.361 151.169 139.774 151.756C139.198 152.353 138.356 152.652 137.246 152.652ZM137.086 148.268C137.79 148.268 138.345 148.023 138.75 147.532C139.166 147.041 139.374 146.332 139.374 145.404C139.374 144.465 139.166 143.756 138.75 143.276C138.345 142.796 137.79 142.556 137.086 142.556C136.372 142.556 135.801 142.796 135.374 143.276C134.958 143.756 134.75 144.465 134.75 145.404C134.75 146.332 134.958 147.041 135.374 147.532C135.801 148.023 136.372 148.268 137.086 148.268ZM149.651 149.692C148.937 149.692 148.414 149.479 148.083 149.052C147.753 148.625 147.587 148.039 147.587 147.292V142.636H146.179V141.596H147.587V139.452H148.851V141.596H151.139V142.636H148.851V147.18C148.851 147.692 148.947 148.049 149.139 148.252C149.342 148.455 149.598 148.556 149.907 148.556C150.121 148.556 150.313 148.519 150.483 148.444C150.654 148.359 150.814 148.247 150.963 148.108L151.539 149.004C151.049 149.463 150.419 149.692 149.651 149.692ZM156.245 149.692C155.68 149.692 155.162 149.596 154.693 149.404C154.234 149.212 153.84 148.94 153.509 148.588C153.189 148.225 152.938 147.788 152.757 147.276C152.586 146.764 152.501 146.188 152.501 145.548C152.501 144.876 152.592 144.284 152.773 143.772C152.954 143.249 153.205 142.817 153.525 142.476C153.845 142.124 154.224 141.857 154.661 141.676C155.109 141.495 155.6 141.404 156.133 141.404C156.666 141.404 157.157 141.489 157.605 141.66C158.053 141.831 158.437 142.087 158.757 142.428C159.077 142.759 159.328 143.18 159.509 143.692C159.69 144.193 159.781 144.78 159.781 145.452C159.781 145.537 159.776 145.623 159.765 145.708C159.765 145.793 159.76 145.863 159.749 145.916H153.781C153.781 146.289 153.845 146.641 153.973 146.972C154.112 147.292 154.293 147.575 154.517 147.82C154.752 148.055 155.018 148.241 155.317 148.38C155.626 148.519 155.957 148.588 156.309 148.588C156.885 148.588 157.354 148.476 157.717 148.252C158.09 148.028 158.4 147.756 158.645 147.436L159.413 148.22C159.072 148.668 158.645 149.025 158.133 149.292C157.632 149.559 157.002 149.692 156.245 149.692ZM156.133 142.46C155.76 142.46 155.429 142.529 155.141 142.668C154.853 142.807 154.613 142.988 154.421 143.212C154.229 143.436 154.08 143.692 153.973 143.98C153.877 144.268 153.824 144.556 153.813 144.844H158.437C158.426 144.556 158.368 144.268 158.261 143.98C158.165 143.692 158.021 143.436 157.829 143.212C157.637 142.988 157.397 142.807 157.109 142.668C156.832 142.529 156.506 142.46 156.133 142.46ZM163.499 145.484L160.859 141.596H162.395L164.267 144.556H164.331L166.267 141.596H167.643L165.003 145.42L167.771 149.5H166.235L164.235 146.348H164.171L162.107 149.5H160.731L163.499 145.484ZM172.089 149.692C171.374 149.692 170.852 149.479 170.521 149.052C170.19 148.625 170.025 148.039 170.025 147.292V142.636H168.617V141.596H170.025V139.452H171.289V141.596H173.577V142.636H171.289V147.18C171.289 147.692 171.385 148.049 171.577 148.252C171.78 148.455 172.036 148.556 172.345 148.556C172.558 148.556 172.75 148.519 172.921 148.444C173.092 148.359 173.252 148.247 173.401 148.108L173.977 149.004C173.486 149.463 172.857 149.692 172.089 149.692Z" fill="#242E30"/>
<path d="M858 111.5C858 100.454 866.954 91.5 878 91.5C889.046 91.5 898 100.454 898 111.5C898 122.546 889.046 131.5 878 131.5C866.954 131.5 858 122.546 858 111.5Z" fill="white" fill-opacity="0.01"/>
<path d="M883.801 104.308L878 110.109L872.199 104.308L870.807 105.699L876.609 111.5L870.807 117.301L872.199 118.693L878 112.891L883.801 118.693L885.193 117.301L879.391 111.5L885.193 105.699L883.801 104.308Z" fill="#242E30"/>
<rect width="16" height="16" transform="translate(10 155.5)" fill="white" fill-opacity="0.01"/>
<rect width="16" height="16" transform="translate(10 155.5)" fill="white" fill-opacity="0.01"/>
</g>
<g clip-path="url(#clip2_3169_99173)">
<path d="M775 242.5C775 231.454 783.954 222.5 795 222.5H835C846.046 222.5 855 231.454 855 242.5C855 253.546 846.046 262.5 835 262.5H795C783.954 262.5 775 253.546 775 242.5Z" fill="#F36805"/>
<path d="M775 242.5C775 227.036 787.536 214.5 803 214.5H827C842.464 214.5 855 227.036 855 242.5C855 257.964 842.464 270.5 827 270.5H803C787.536 270.5 775 257.964 775 242.5Z" fill="white" fill-opacity="0.01"/>
<path d="M792.271 236.5H794.951V247.32H800.131V249.5H792.271V236.5ZM804.63 249.74C804.19 249.74 803.77 249.667 803.37 249.52C802.983 249.387 802.643 249.193 802.35 248.94C802.056 248.673 801.823 248.353 801.65 247.98C801.49 247.607 801.41 247.187 801.41 246.72C801.41 245.84 801.723 245.14 802.35 244.62C802.976 244.1 803.93 243.807 805.21 243.74L807.53 243.6V243.2C807.53 242.56 807.336 242.12 806.95 241.88C806.563 241.64 806.083 241.52 805.51 241.52C805.056 241.52 804.63 241.607 804.23 241.78C803.83 241.94 803.53 242.14 803.33 242.38L801.91 240.94C802.256 240.487 802.756 240.113 803.41 239.82C804.076 239.527 804.89 239.38 805.85 239.38C807.263 239.38 808.316 239.707 809.01 240.36C809.703 241.013 810.05 241.9 810.05 243.02V249.5H807.67V247.92H807.55C807.296 248.48 806.93 248.927 806.45 249.26C805.97 249.58 805.363 249.74 804.63 249.74ZM805.37 247.92C806.01 247.92 806.53 247.74 806.93 247.38C807.33 247.007 807.53 246.487 807.53 245.82V245.16L805.51 245.32C804.47 245.387 803.95 245.827 803.95 246.64C803.95 247.053 804.083 247.373 804.35 247.6C804.616 247.813 804.956 247.92 805.37 247.92ZM818.261 249.74C817.488 249.74 816.815 249.553 816.241 249.18C815.681 248.807 815.281 248.293 815.041 247.64H814.921V249.5H812.521V235H815.041V241.32H815.161C815.388 240.747 815.768 240.28 816.301 239.92C816.835 239.56 817.488 239.38 818.261 239.38C818.875 239.38 819.441 239.507 819.961 239.76C820.495 240.013 820.948 240.373 821.321 240.84C821.708 241.293 822.008 241.84 822.221 242.48C822.435 243.12 822.541 243.827 822.541 244.6C822.541 245.36 822.435 246.06 822.221 246.7C822.008 247.327 821.708 247.867 821.321 248.32C820.948 248.76 820.495 249.107 819.961 249.36C819.441 249.613 818.875 249.74 818.261 249.74ZM817.481 247.54C818.228 247.54 818.828 247.273 819.281 246.74C819.735 246.207 819.961 245.48 819.961 244.56C819.961 243.64 819.735 242.913 819.281 242.38C818.828 241.847 818.228 241.58 817.481 241.58C816.748 241.58 816.155 241.847 815.701 242.38C815.261 242.913 815.041 243.64 815.041 244.56C815.041 245.48 815.261 246.207 815.701 246.74C816.155 247.273 816.748 247.54 817.481 247.54ZM828.793 249.74C827.967 249.74 827.247 249.607 826.633 249.34C826.02 249.073 825.5 248.707 825.073 248.24C824.66 247.76 824.347 247.207 824.133 246.58C823.933 245.953 823.833 245.28 823.833 244.56C823.833 243.827 823.933 243.147 824.133 242.52C824.333 241.88 824.633 241.333 825.033 240.88C825.433 240.413 825.933 240.047 826.533 239.78C827.133 239.513 827.833 239.38 828.633 239.38C829.433 239.38 830.133 239.507 830.733 239.76C831.333 240.013 831.827 240.367 832.213 240.82C832.6 241.273 832.887 241.813 833.073 242.44C833.273 243.053 833.373 243.727 833.373 244.46C833.373 244.593 833.36 244.747 833.333 244.92C833.32 245.093 833.3 245.233 833.273 245.34H826.393C826.433 245.7 826.527 246.027 826.673 246.32C826.833 246.6 827.027 246.84 827.253 247.04C827.493 247.24 827.753 247.393 828.033 247.5C828.327 247.593 828.627 247.64 828.933 247.64C829.507 247.64 829.987 247.54 830.373 247.34C830.76 247.14 831.073 246.887 831.313 246.58L832.733 248.06C832.36 248.567 831.84 248.973 831.173 249.28C830.507 249.587 829.713 249.74 828.793 249.74ZM828.633 241.3C827.993 241.3 827.473 241.507 827.073 241.92C826.673 242.333 826.44 242.88 826.373 243.56H830.853C830.787 242.88 830.553 242.333 830.153 241.92C829.767 241.507 829.26 241.3 828.633 241.3ZM835.334 235H837.854V249.5H835.334V235Z" fill="white"/>
</g>
<g clip-path="url(#clip3_3169_99173)">
<path d="M97.5844 43.6655H93.3918C92.0321 43.6655 92.0321 43.6655 91.7494 45.2366C91.4666 46.8078 91.4653 46.8641 92.7126 46.8641H95.2047L93.7882 54.8938C93.4486 56.6914 92.6558 57.9261 90.2206 58.6553C89.5969 58.8242 89.4278 59.0481 89.4278 59.3296C89.4278 59.6661 89.5401 59.9462 89.8242 60.6205C90.2206 61.575 90.4465 61.7426 90.7874 61.7426C91.1283 61.7426 91.7507 61.575 91.9766 61.5187C95.4332 60.3953 96.8497 57.7572 97.4153 54.6136L99.0009 45.5797C99.2836 43.6708 99.2836 43.6708 97.5844 43.6708" fill="#FF8000"/>
<path d="M111.805 43.6655C110.105 43.6655 110.105 43.6655 109.878 45.0691L108.632 52.3669C108.293 54.4997 107.726 55.7356 105.63 55.7356C103.59 55.7356 102.855 54.4997 103.193 52.5934L104.383 45.6334C104.724 43.6695 104.667 43.6695 102.911 43.6695C101.21 43.6695 101.153 43.6695 100.929 45.0167L99.6827 52.3145C98.9454 56.4688 101.551 59.0507 105.232 59.0507C109.369 59.0507 111.465 57.1981 112.146 52.8199L113.392 45.5784C113.674 43.6695 113.561 43.6695 111.806 43.6695" fill="#FF8000"/>
<path d="M119.566 55.6229C120.927 55.5666 121.663 54.9486 121.663 54.3319C121.663 53.5464 120.7 53.2649 119.397 52.8721C116.847 52.0865 114.524 51.1884 114.524 48.4926C114.524 45.2927 117.188 43.5527 120.529 43.5527C121.946 43.5527 123.533 43.609 124.553 43.7216C125.459 43.8342 125.685 44.1144 125.403 45.5179C125.12 46.9215 124.779 47.0341 123.986 46.9778C123.023 46.9215 121.777 46.8089 120.303 46.8089C118.604 46.8089 118.094 47.4269 118.094 47.9872C118.094 48.7165 118.773 49.1093 120.36 49.5583C123.306 50.4002 125.232 51.5798 125.232 54.1054C125.232 57.0814 123.023 58.8188 119.454 58.934C117.749 58.9931 116.042 58.8989 114.355 58.6525C113.221 58.4849 113.166 58.4849 113.448 56.8562C113.731 55.3963 113.731 55.2851 114.808 55.3963C116.904 55.6215 118.207 55.6778 119.565 55.6215" fill="#FF8000"/>
<path d="M138.091 43.6655H128.518C127.159 43.6655 127.159 43.6655 126.876 45.2929C126.593 46.9204 126.649 46.9217 127.839 46.9217H130.956L129.199 56.9703C128.858 58.9342 128.915 58.9342 130.671 58.9342C132.314 58.9342 132.371 58.9342 132.597 57.5307L134.41 46.9256H137.413C138.773 46.9256 138.773 46.9256 139.056 45.2969C139.339 43.6681 139.34 43.6695 138.093 43.6695" fill="#FF8000"/>
<path d="M154.977 46.8655C156.336 46.8655 156.336 46.8655 156.619 45.2381C156.902 43.6107 156.903 43.6094 155.656 43.6094H148.801C146.364 43.6094 146.422 43.6094 146.026 46.0237L144.27 56.1849C143.817 58.823 143.874 58.823 146.31 58.823H152.995C154.411 58.823 154.354 58.823 154.638 57.2519C154.921 55.6245 154.921 55.6245 153.675 55.6245H147.894L148.348 52.7048H153.164C154.467 52.7048 154.467 52.7048 154.693 51.19C154.92 49.6189 154.92 49.6189 153.164 49.6189H148.914L149.368 46.8694L154.977 46.8655Z" fill="#FF8000"/>
<path d="M162.228 52.2545L164.438 47.4311C164.608 47.0383 164.608 47.0383 164.891 47.0383C165.174 47.0383 165.175 47.0383 165.232 47.4874L165.911 52.2584L162.228 52.2545ZM168.234 45.5183C167.894 43.6094 167.894 43.6094 165.175 43.6094C162.625 43.6094 162.681 43.6094 161.889 45.1805L156.166 57.0254C155.316 58.7091 155.487 58.878 157.582 58.878C159.226 58.878 159.226 58.878 159.905 57.3619L160.818 55.3417H166.368L166.652 57.3632C166.878 58.8793 166.935 58.8793 168.577 58.8793C170.447 58.8793 170.617 58.7667 170.278 56.9154L168.234 45.5183Z" fill="#FF8000"/>
<path d="M181.775 43.6655H172.144C170.784 43.6655 170.784 43.6655 170.5 45.2929C170.216 46.9204 170.274 46.9217 171.463 46.9217H174.579L172.823 56.9703C172.483 58.9342 172.54 58.9342 174.296 58.9342C175.938 58.9342 175.995 58.9342 176.223 57.5307L178.035 46.9256H181.035C182.395 46.9256 182.395 46.9256 182.679 45.2969C183.018 43.6695 183.018 43.6695 181.772 43.6695" fill="#FF8000"/>
<path d="M83.742 47.2292C83.6469 46.987 82.348 44.6107 79.9379 41.6295C79.877 41.5572 79.8385 41.469 79.8269 41.3755C79.6819 39.6405 79.4393 37.9148 79.1002 36.2065C79.0618 36.035 78.9702 35.8796 78.8382 35.7622C78.7062 35.6448 78.5405 35.5713 78.3642 35.5519L75.8563 35.2469C75.8343 35.2449 75.8122 35.2449 75.7902 35.2469C75.65 35.2469 75.5156 35.302 75.4165 35.4002C75.3174 35.4985 75.2617 35.6317 75.2617 35.7706V36.6321C75.2617 36.6404 75.2583 36.6484 75.2524 36.6543C75.2464 36.6602 75.2384 36.6635 75.23 36.6635C75.2222 36.6634 75.2147 36.6606 75.2088 36.6556C73.6398 35.2466 71.9461 33.9802 70.1481 32.8718C69.7815 32.6285 69.3499 32.4991 68.9087 32.5C68.4674 32.4987 68.0357 32.6282 67.6693 32.8718C59.0251 38.1587 54.2656 46.7579 54.0819 47.2292C54.0277 47.3426 53.9997 47.4665 54 47.5919C54.0002 47.7808 54.0638 47.9642 54.1808 48.1133C54.2978 48.2624 54.4615 48.3687 54.6461 48.4154L57.1369 48.8894C57.3007 48.9347 57.4471 49.0277 57.5571 49.1563C57.6671 49.2849 57.7356 49.4432 57.7539 49.6108C57.7751 50.0468 58.2455 59.7786 58.8361 62.3028C58.8847 62.4841 58.9925 62.6444 59.1425 62.7588C59.2926 62.8731 59.4766 62.9352 59.6659 62.9352H59.6844C61.1379 62.8985 62.4685 62.875 63.9061 62.8553H64.025C64.0617 62.8553 64.0981 62.8481 64.132 62.8342C64.1659 62.8202 64.1967 62.7998 64.2226 62.774C64.2485 62.7482 64.269 62.7176 64.283 62.6839C64.2969 62.6502 64.304 62.6142 64.3038 62.5778V62.5712C64.2457 61.7215 64.1201 59.7786 64.0184 57.7269C64.0184 57.6759 64.0184 57.6117 64.0092 57.5594C64.0046 57.4741 63.9792 57.3913 63.9349 57.318C63.8907 57.2448 63.8291 57.1833 63.7555 57.1391C63.3762 56.9147 63.0585 56.6011 62.8306 56.2262C62.6027 55.8512 62.4715 55.4264 62.4486 54.9893C62.3165 51.5773 62.2518 47.6325 62.4407 44.5466C62.4494 44.4193 62.5071 44.3003 62.602 44.2141C62.6969 44.1279 62.8216 44.0812 62.9503 44.0838C63.079 44.0863 63.2017 44.1378 63.2931 44.2277C63.3845 44.3175 63.4374 44.4387 63.441 44.5662C63.441 44.5793 63.441 44.5924 63.441 44.6055C63.3181 46.6623 63.3088 49.095 63.3511 51.4948C63.3525 51.5722 63.3693 51.6486 63.4004 51.7195C63.4316 51.7905 63.4766 51.8546 63.5328 51.9084C63.5889 51.9621 63.6553 52.0044 63.7279 52.0327C63.8006 52.061 63.8782 52.0749 63.9563 52.0735C64.0344 52.0722 64.1114 52.0556 64.183 52.0247C64.2546 51.9938 64.3194 51.9492 64.3737 51.8936C64.4279 51.8379 64.4705 51.7722 64.4991 51.7002C64.5277 51.6281 64.5417 51.5513 64.5403 51.4739C64.4954 49.0583 64.5073 46.61 64.6328 44.5466C64.6355 44.415 64.6907 44.2898 64.7865 44.1986C64.8823 44.1073 65.0107 44.0576 65.1435 44.0602C65.2763 44.0628 65.4027 44.1176 65.4947 44.2125C65.5868 44.3074 65.637 44.4346 65.6344 44.5662V44.6055C65.5115 46.6519 65.5023 49.0701 65.5445 51.4569C65.547 51.6131 65.612 51.762 65.7252 51.8708C65.8385 51.9796 65.9907 52.0393 66.1484 52.0369C66.3061 52.0344 66.4564 51.97 66.5661 51.8578C66.6759 51.7456 66.7362 51.5948 66.7338 51.4385C66.6902 49.0334 66.702 46.5943 66.8276 44.5453C66.8302 44.4137 66.8855 44.2885 66.9813 44.1973C67.077 44.106 67.2055 44.0563 67.3383 44.0589C67.4711 44.0615 67.5974 44.1162 67.6895 44.2111C67.7815 44.306 67.8318 44.4333 67.8291 44.5649C67.8291 44.578 67.8291 44.5911 67.8291 44.6042C67.6508 47.605 67.7089 51.4019 67.8291 54.734C67.8291 54.734 67.8291 54.7628 67.8291 54.7654C67.8291 54.768 67.8291 54.7994 67.8291 54.8164V54.8492C67.8295 55.2814 67.7236 55.7073 67.5205 56.0898C67.3175 56.4724 67.0234 56.8002 66.6637 57.0448C66.5998 57.0884 66.5468 57.1459 66.5086 57.2128C66.4703 57.2797 66.4479 57.3543 66.4431 57.431C66.4431 57.431 66.381 57.943 66.6095 60.4214C66.7153 61.5042 66.7972 62.2544 66.8342 62.5935C66.8426 62.6569 66.8741 62.715 66.9227 62.757C66.9714 62.799 67.0339 62.8218 67.0984 62.8213H67.331C67.8106 62.8213 68.3048 62.8213 68.8188 62.8213H69.0117H70.8775L72.2913 62.8331C72.3562 62.8335 72.4191 62.8103 72.4678 62.7678C72.5165 62.7253 72.5478 62.6665 72.5556 62.6026C72.8819 59.6319 72.9586 57.9626 72.9586 57.9626C72.9568 57.8914 72.929 57.8233 72.8805 57.7708C72.8319 57.7183 72.7657 57.6851 72.6943 57.6772L70.9766 57.4428C70.8626 57.4289 70.7553 57.3819 70.6681 57.3079C70.5809 57.2338 70.5177 57.136 70.4864 57.0265C70.4648 56.941 70.4572 56.8525 70.4639 56.7646C71.1602 46.8627 74.4557 43.5253 74.4557 43.5253C74.5038 43.4739 74.5574 43.4278 74.6155 43.3879C74.7052 43.3227 74.8136 43.2878 74.9247 43.2884C75.0309 43.2885 75.1346 43.3202 75.2222 43.3796C75.3099 43.4389 75.3775 43.523 75.4163 43.6209C75.4406 43.6982 75.4548 43.7783 75.4586 43.8592C75.744 46.9713 75.6039 52.2686 75.4282 56.4007C75.2789 59.9082 75.0992 62.6616 75.0992 62.6616C75.099 62.6883 75.1042 62.7149 75.1144 62.7396C75.1246 62.7644 75.1396 62.7869 75.1587 62.8059C75.1777 62.8249 75.2003 62.84 75.2253 62.8502C75.2502 62.8605 75.277 62.8658 75.304 62.8658C76.2395 62.8815 77.1604 62.8998 78.1369 62.9247H78.1554C78.3447 62.9247 78.5287 62.8626 78.6788 62.7483C78.8288 62.6339 78.9366 62.4736 78.9852 62.2924C79.5772 59.7681 80.0423 50.0363 80.0674 49.6003C80.0864 49.4322 80.1559 49.2736 80.2668 49.145C80.3778 49.0164 80.5251 48.9237 80.6897 48.8789L83.1805 48.405C83.3651 48.3582 83.5288 48.2519 83.6458 48.1028C83.7628 47.9537 83.8264 47.7703 83.8266 47.5814C83.8239 47.4594 83.7951 47.3394 83.742 47.2292Z" fill="#FF8000"/>
</g>
<defs>
<filter id="filter0_ddd_3169_99173" x="0" y="0.5" width="916" height="667" filterUnits="userSpaceOnUse" color-interpolation-filters="sRGB">
<feFlood flood-opacity="0" result="BackgroundImageFix"/>
<feColorMatrix in="SourceAlpha" type="matrix" values="0 0 0 0 0 0 0 0 0 0 0 0 0 0 0 0 0 0 127 0" result="hardAlpha"/>
<feOffset dy="-3"/>
<feGaussianBlur stdDeviation="3"/>
<feColorMatrix type="matrix" values="0 0 0 0 0 0 0 0 0 0 0 0 0 0 0 0 0 0 0.06 0"/>
<feBlend mode="normal" in2="BackgroundImageFix" result="effect1_dropShadow_3169_99173"/>
<feColorMatrix in="SourceAlpha" type="matrix" values="0 0 0 0 0 0 0 0 0 0 0 0 0 0 0 0 0 0 127 0" result="hardAlpha"/>
<feMorphology radius="2" operator="erode" in="SourceAlpha" result="effect2_dropShadow_3169_99173"/>
<feOffset dy="-2"/>
<feGaussianBlur stdDeviation="6"/>
<feColorMatrix type="matrix" values="0 0 0 0 0 0 0 0 0 0 0 0 0 0 0 0 0 0 0.08 0"/>
<feBlend mode="normal" in2="effect1_dropShadow_3169_99173" result="effect2_dropShadow_3169_99173"/>
<feColorMatrix in="SourceAlpha" type="matrix" values="0 0 0 0 0 0 0 0 0 0 0 0 0 0 0 0 0 0 127 0" result="hardAlpha"/>
<feOffset dy="-4"/>
<feGaussianBlur stdDeviation="3"/>
<feColorMatrix type="matrix" values="0 0 0 0 0 0 0 0 0 0 0 0 0 0 0 0 0 0 0.02 0"/>
<feBlend mode="normal" in2="effect2_dropShadow_3169_99173" result="effect3_dropShadow_3169_99173"/>
<feBlend mode="normal" in="SourceGraphic" in2="effect3_dropShadow_3169_99173" result="shape"/>
</filter>
<filter id="filter1_ddd_3169_99173" x="5" y="8.5" width="906" height="81" filterUnits="userSpaceOnUse" color-interpolation-filters="sRGB">
<feFlood flood-opacity="0" result="BackgroundImageFix"/>
<feColorMatrix in="SourceAlpha" type="matrix" values="0 0 0 0 0 0 0 0 0 0 0 0 0 0 0 0 0 0 127 0" result="hardAlpha"/>
<feOffset dy="1"/>
<feGaussianBlur stdDeviation="2.5"/>
<feColorMatrix type="matrix" values="0 0 0 0 0 0 0 0 0 0 0 0 0 0 0 0 0 0 0.06 0"/>
<feBlend mode="normal" in2="BackgroundImageFix" result="effect1_dropShadow_3169_99173"/>
<feColorMatrix in="SourceAlpha" type="matrix" values="0 0 0 0 0 0 0 0 0 0 0 0 0 0 0 0 0 0 127 0" result="hardAlpha"/>
<feMorphology radius="2" operator="erode" in="SourceAlpha" result="effect2_dropShadow_3169_99173"/>
<feOffset dy="3"/>
<feGaussianBlur stdDeviation="0.5"/>
<feColorMatrix type="matrix" values="0 0 0 0 0 0 0 0 0 0 0 0 0 0 0 0 0 0 0.07 0"/>
<feBlend mode="normal" in2="effect1_dropShadow_3169_99173" result="effect2_dropShadow_3169_99173"/>
<feColorMatrix in="SourceAlpha" type="matrix" values="0 0 0 0 0 0 0 0 0 0 0 0 0 0 0 0 0 0 127 0" result="hardAlpha"/>
<feOffset dy="2"/>
<feGaussianBlur stdDeviation="1"/>
<feColorMatrix type="matrix" values="0 0 0 0 0 0 0 0 0 0 0 0 0 0 0 0 0 0 0.03 0"/>
<feBlend mode="normal" in2="effect2_dropShadow_3169_99173" result="effect3_dropShadow_3169_99173"/>
<feBlend mode="normal" in="SourceGraphic" in2="effect3_dropShadow_3169_99173" result="shape"/>
</filter>
<clipPath id="clip0_3169_99173">
<rect width="896" height="88" fill="white" transform="translate(10 83.5)"/>
</clipPath>
<clipPath id="clip1_3169_99173">
<rect width="21" height="21" fill="white" transform="translate(27.5 103)"/>
</clipPath>
<clipPath id="clip2_3169_99173">
<path d="M775 242.5C775 231.454 783.954 222.5 795 222.5H835C846.046 222.5 855 231.454 855 242.5C855 253.546 846.046 262.5 835 262.5H795C783.954 262.5 775 253.546 775 242.5Z" fill="white"/>
</clipPath>
<clipPath id="clip3_3169_99173">
<rect x="54" y="32.5" width="129" height="31" rx="12" fill="white"/>
</clipPath>
</defs>
</svg>
