<svg width="916" height="668" viewBox="0 0 916 668" fill="none" xmlns="http://www.w3.org/2000/svg">
<g filter="url(#filter0_ddd_3169_98299)">
<rect x="10" y="12.5" width="896" height="647" rx="24" fill="#FCFCFC"/>
</g>
<rect x="34" y="16.5" width="848" height="67" rx="8" fill="white"/>
<g filter="url(#filter1_ddd_3169_98299)">
<rect x="10" y="12.5" width="896" height="71" rx="20" fill="white"/>
</g>
<rect x="34" y="220.5" width="848" height="415" rx="12" fill="#F5F3F1"/>
<rect x="34" y="107.5" width="848" height="89" rx="12" fill="#F5F3F1"/>
<g clip-path="url(#clip0_3169_98299)">
<path d="M97.5844 43.6655H93.3918C92.0321 43.6655 92.0321 43.6655 91.7494 45.2366C91.4666 46.8078 91.4653 46.8641 92.7126 46.8641H95.2047L93.7882 54.8938C93.4486 56.6914 92.6558 57.9261 90.2206 58.6553C89.5969 58.8242 89.4278 59.0481 89.4278 59.3296C89.4278 59.6661 89.5401 59.9462 89.8242 60.6205C90.2206 61.575 90.4465 61.7426 90.7874 61.7426C91.1283 61.7426 91.7507 61.575 91.9766 61.5187C95.4332 60.3953 96.8497 57.7572 97.4153 54.6136L99.0009 45.5797C99.2836 43.6708 99.2836 43.6708 97.5844 43.6708" fill="#FF8000"/>
<path d="M111.805 43.6655C110.105 43.6655 110.105 43.6655 109.878 45.0691L108.632 52.3669C108.293 54.4997 107.726 55.7356 105.63 55.7356C103.59 55.7356 102.855 54.4997 103.193 52.5934L104.383 45.6334C104.724 43.6695 104.667 43.6695 102.911 43.6695C101.21 43.6695 101.153 43.6695 100.929 45.0167L99.6827 52.3145C98.9454 56.4688 101.551 59.0507 105.232 59.0507C109.369 59.0507 111.465 57.1981 112.146 52.8199L113.392 45.5784C113.674 43.6695 113.561 43.6695 111.806 43.6695" fill="#FF8000"/>
<path d="M119.566 55.6229C120.927 55.5666 121.663 54.9486 121.663 54.3319C121.663 53.5464 120.7 53.2649 119.397 52.8721C116.847 52.0865 114.524 51.1884 114.524 48.4926C114.524 45.2927 117.188 43.5527 120.529 43.5527C121.946 43.5527 123.533 43.609 124.553 43.7216C125.459 43.8342 125.685 44.1144 125.403 45.5179C125.12 46.9215 124.779 47.0341 123.986 46.9778C123.023 46.9215 121.777 46.8089 120.303 46.8089C118.604 46.8089 118.094 47.4269 118.094 47.9872C118.094 48.7165 118.773 49.1093 120.36 49.5583C123.306 50.4002 125.232 51.5798 125.232 54.1054C125.232 57.0814 123.023 58.8188 119.454 58.934C117.749 58.9931 116.042 58.8989 114.355 58.6525C113.221 58.4849 113.166 58.4849 113.448 56.8562C113.731 55.3963 113.731 55.2851 114.808 55.3963C116.904 55.6215 118.207 55.6778 119.565 55.6215" fill="#FF8000"/>
<path d="M138.091 43.6655H128.518C127.159 43.6655 127.159 43.6655 126.876 45.2929C126.593 46.9204 126.649 46.9217 127.839 46.9217H130.956L129.199 56.9703C128.858 58.9342 128.915 58.9342 130.671 58.9342C132.314 58.9342 132.371 58.9342 132.597 57.5307L134.41 46.9256H137.413C138.773 46.9256 138.773 46.9256 139.056 45.2969C139.339 43.6681 139.34 43.6695 138.093 43.6695" fill="#FF8000"/>
<path d="M154.977 46.8655C156.336 46.8655 156.336 46.8655 156.619 45.2381C156.902 43.6107 156.903 43.6094 155.656 43.6094H148.801C146.364 43.6094 146.422 43.6094 146.026 46.0237L144.27 56.1849C143.817 58.823 143.874 58.823 146.31 58.823H152.995C154.411 58.823 154.354 58.823 154.638 57.2519C154.921 55.6245 154.921 55.6245 153.675 55.6245H147.894L148.348 52.7048H153.164C154.467 52.7048 154.467 52.7048 154.693 51.19C154.92 49.6189 154.92 49.6189 153.164 49.6189H148.914L149.368 46.8694L154.977 46.8655Z" fill="#FF8000"/>
<path d="M162.228 52.2545L164.438 47.4311C164.608 47.0383 164.608 47.0383 164.891 47.0383C165.174 47.0383 165.175 47.0383 165.232 47.4874L165.911 52.2584L162.228 52.2545ZM168.234 45.5183C167.894 43.6094 167.894 43.6094 165.175 43.6094C162.625 43.6094 162.681 43.6094 161.889 45.1805L156.166 57.0254C155.316 58.7091 155.487 58.878 157.582 58.878C159.226 58.878 159.226 58.878 159.905 57.3619L160.818 55.3417H166.368L166.652 57.3632C166.878 58.8793 166.935 58.8793 168.577 58.8793C170.447 58.8793 170.617 58.7667 170.278 56.9154L168.234 45.5183Z" fill="#FF8000"/>
<path d="M181.775 43.6655H172.144C170.784 43.6655 170.784 43.6655 170.5 45.2929C170.216 46.9204 170.274 46.9217 171.463 46.9217H174.579L172.823 56.9703C172.483 58.9342 172.54 58.9342 174.296 58.9342C175.938 58.9342 175.995 58.9342 176.223 57.5307L178.035 46.9256H181.035C182.395 46.9256 182.395 46.9256 182.679 45.2969C183.018 43.6695 183.018 43.6695 181.772 43.6695" fill="#FF8000"/>
<path d="M83.742 47.2292C83.6469 46.987 82.348 44.6107 79.9379 41.6295C79.877 41.5572 79.8385 41.469 79.8269 41.3755C79.6819 39.6405 79.4393 37.9148 79.1002 36.2065C79.0618 36.035 78.9702 35.8796 78.8382 35.7622C78.7062 35.6448 78.5405 35.5713 78.3642 35.5519L75.8563 35.2469C75.8343 35.2449 75.8122 35.2449 75.7902 35.2469C75.65 35.2469 75.5156 35.302 75.4165 35.4002C75.3174 35.4985 75.2617 35.6317 75.2617 35.7706V36.6321C75.2617 36.6404 75.2583 36.6484 75.2524 36.6543C75.2464 36.6602 75.2384 36.6635 75.23 36.6635C75.2222 36.6634 75.2147 36.6606 75.2088 36.6556C73.6398 35.2466 71.9461 33.9802 70.1481 32.8718C69.7815 32.6285 69.3499 32.4991 68.9087 32.5C68.4674 32.4987 68.0357 32.6282 67.6693 32.8718C59.0251 38.1587 54.2656 46.7579 54.0819 47.2292C54.0277 47.3426 53.9997 47.4665 54 47.5919C54.0002 47.7808 54.0638 47.9642 54.1808 48.1133C54.2978 48.2624 54.4615 48.3687 54.6461 48.4154L57.1369 48.8894C57.3007 48.9347 57.4471 49.0277 57.5571 49.1563C57.6671 49.2849 57.7356 49.4432 57.7539 49.6108C57.7751 50.0468 58.2455 59.7786 58.8361 62.3028C58.8847 62.4841 58.9925 62.6444 59.1425 62.7588C59.2926 62.8731 59.4766 62.9352 59.6659 62.9352H59.6844C61.1379 62.8985 62.4685 62.875 63.9061 62.8553H64.025C64.0617 62.8553 64.0981 62.8481 64.132 62.8342C64.1659 62.8202 64.1967 62.7998 64.2226 62.774C64.2485 62.7482 64.269 62.7176 64.283 62.6839C64.2969 62.6502 64.304 62.6142 64.3038 62.5778V62.5712C64.2457 61.7215 64.1201 59.7786 64.0184 57.7269C64.0184 57.6759 64.0184 57.6117 64.0092 57.5594C64.0046 57.4741 63.9792 57.3913 63.9349 57.318C63.8907 57.2448 63.8291 57.1833 63.7555 57.1391C63.3762 56.9147 63.0585 56.6011 62.8306 56.2262C62.6027 55.8512 62.4715 55.4264 62.4486 54.9893C62.3165 51.5773 62.2518 47.6325 62.4407 44.5466C62.4494 44.4193 62.5071 44.3003 62.602 44.2141C62.6969 44.1279 62.8216 44.0812 62.9503 44.0838C63.079 44.0863 63.2017 44.1378 63.2931 44.2277C63.3845 44.3175 63.4374 44.4387 63.441 44.5662C63.441 44.5793 63.441 44.5924 63.441 44.6055C63.3181 46.6623 63.3088 49.095 63.3511 51.4948C63.3525 51.5722 63.3693 51.6486 63.4004 51.7195C63.4316 51.7905 63.4766 51.8546 63.5328 51.9084C63.5889 51.9621 63.6553 52.0044 63.7279 52.0327C63.8006 52.061 63.8782 52.0749 63.9563 52.0735C64.0344 52.0722 64.1114 52.0556 64.183 52.0247C64.2546 51.9938 64.3194 51.9492 64.3737 51.8936C64.4279 51.8379 64.4705 51.7722 64.4991 51.7002C64.5277 51.6281 64.5417 51.5513 64.5403 51.4739C64.4954 49.0583 64.5073 46.61 64.6328 44.5466C64.6355 44.415 64.6907 44.2898 64.7865 44.1986C64.8823 44.1073 65.0107 44.0576 65.1435 44.0602C65.2763 44.0628 65.4027 44.1176 65.4947 44.2125C65.5868 44.3074 65.637 44.4346 65.6344 44.5662V44.6055C65.5115 46.6519 65.5023 49.0701 65.5445 51.4569C65.547 51.6131 65.612 51.762 65.7252 51.8708C65.8385 51.9796 65.9907 52.0393 66.1484 52.0369C66.3061 52.0344 66.4564 51.97 66.5661 51.8578C66.6759 51.7456 66.7362 51.5948 66.7338 51.4385C66.6902 49.0334 66.702 46.5943 66.8276 44.5453C66.8302 44.4137 66.8855 44.2885 66.9813 44.1973C67.077 44.106 67.2055 44.0563 67.3383 44.0589C67.4711 44.0615 67.5974 44.1162 67.6895 44.2111C67.7815 44.306 67.8318 44.4333 67.8291 44.5649C67.8291 44.578 67.8291 44.5911 67.8291 44.6042C67.6508 47.605 67.7089 51.4019 67.8291 54.734C67.8291 54.734 67.8291 54.7628 67.8291 54.7654C67.8291 54.768 67.8291 54.7994 67.8291 54.8164V54.8492C67.8295 55.2814 67.7236 55.7073 67.5205 56.0898C67.3175 56.4724 67.0234 56.8002 66.6637 57.0448C66.5998 57.0884 66.5468 57.1459 66.5086 57.2128C66.4703 57.2797 66.4479 57.3543 66.4431 57.431C66.4431 57.431 66.381 57.943 66.6095 60.4214C66.7153 61.5042 66.7972 62.2544 66.8342 62.5935C66.8426 62.6569 66.8741 62.715 66.9227 62.757C66.9714 62.799 67.0339 62.8218 67.0984 62.8213H67.331C67.8106 62.8213 68.3048 62.8213 68.8188 62.8213H69.0117H70.8775L72.2913 62.8331C72.3562 62.8335 72.4191 62.8103 72.4678 62.7678C72.5165 62.7253 72.5478 62.6665 72.5556 62.6026C72.8819 59.6319 72.9586 57.9626 72.9586 57.9626C72.9568 57.8914 72.929 57.8233 72.8805 57.7708C72.8319 57.7183 72.7657 57.6851 72.6943 57.6772L70.9766 57.4428C70.8626 57.4289 70.7553 57.3819 70.6681 57.3079C70.5809 57.2338 70.5177 57.136 70.4864 57.0265C70.4648 56.941 70.4572 56.8525 70.4639 56.7646C71.1602 46.8627 74.4557 43.5253 74.4557 43.5253C74.5038 43.4739 74.5574 43.4278 74.6155 43.3879C74.7052 43.3227 74.8136 43.2878 74.9247 43.2884C75.0309 43.2885 75.1346 43.3202 75.2222 43.3796C75.3099 43.4389 75.3775 43.523 75.4163 43.6209C75.4406 43.6982 75.4548 43.7783 75.4586 43.8592C75.744 46.9713 75.6039 52.2686 75.4282 56.4007C75.2789 59.9082 75.0992 62.6616 75.0992 62.6616C75.099 62.6883 75.1042 62.7149 75.1144 62.7396C75.1246 62.7644 75.1396 62.7869 75.1587 62.8059C75.1777 62.8249 75.2003 62.84 75.2253 62.8502C75.2502 62.8605 75.277 62.8658 75.304 62.8658C76.2395 62.8815 77.1604 62.8998 78.1369 62.9247H78.1554C78.3447 62.9247 78.5287 62.8626 78.6788 62.7483C78.8288 62.6339 78.9366 62.4736 78.9852 62.2924C79.5772 59.7681 80.0423 50.0363 80.0674 49.6003C80.0864 49.4322 80.1559 49.2736 80.2668 49.145C80.3778 49.0164 80.5251 48.9237 80.6897 48.8789L83.1805 48.405C83.3651 48.3582 83.5288 48.2519 83.6458 48.1028C83.7628 47.9537 83.8264 47.7703 83.8266 47.5814C83.8239 47.4594 83.7951 47.3394 83.742 47.2292Z" fill="#FF8000"/>
</g>
<path d="M764.168 45.1H766.312V53.756H770.456V55.5H764.168V45.1ZM775.277 55.692C774.616 55.692 774.035 55.5853 773.533 55.372C773.043 55.148 772.627 54.8493 772.285 54.476C771.955 54.1027 771.704 53.6653 771.533 53.164C771.373 52.652 771.293 52.1133 771.293 51.548C771.293 50.9827 771.373 50.4493 771.533 49.948C771.704 49.4467 771.955 49.0093 772.285 48.636C772.627 48.252 773.043 47.9533 773.533 47.74C774.035 47.516 774.616 47.404 775.277 47.404C775.939 47.404 776.515 47.516 777.005 47.74C777.507 47.9533 777.917 48.252 778.237 48.636C778.568 49.0093 778.813 49.4467 778.973 49.948C779.144 50.4493 779.229 50.9827 779.229 51.548C779.229 52.1133 779.144 52.652 778.973 53.164C778.813 53.6653 778.568 54.1027 778.237 54.476C777.917 54.8493 777.507 55.148 777.005 55.372C776.515 55.5853 775.939 55.692 775.277 55.692ZM773.357 51.548C773.357 52.3267 773.523 52.94 773.853 53.388C774.195 53.836 774.669 54.06 775.277 54.06C775.875 54.06 776.339 53.836 776.669 53.388C777.011 52.94 777.181 52.3267 777.181 51.548C777.181 50.7693 777.011 50.156 776.669 49.708C776.339 49.26 775.875 49.036 775.277 49.036C774.669 49.036 774.195 49.26 773.853 49.708C773.523 50.156 773.357 50.7693 773.357 51.548ZM780.79 47.596H782.694V48.924H782.79C782.95 48.4653 783.196 48.0973 783.526 47.82C783.868 47.5427 784.294 47.404 784.806 47.404C785.201 47.404 785.569 47.468 785.91 47.596L785.35 49.436C785.233 49.3613 785.094 49.308 784.934 49.276C784.774 49.244 784.62 49.228 784.47 49.228C783.98 49.228 783.58 49.3987 783.27 49.74C782.961 50.0707 782.806 50.54 782.806 51.148V55.5H780.79V47.596ZM790.261 55.692C789.6 55.692 789.024 55.5853 788.533 55.372C788.043 55.1587 787.627 54.8653 787.285 54.492C786.955 54.108 786.704 53.6653 786.533 53.164C786.373 52.6627 786.293 52.124 786.293 51.548C786.293 50.9613 786.373 50.4173 786.533 49.916C786.693 49.404 786.933 48.9667 787.253 48.604C787.573 48.2307 787.973 47.9373 788.453 47.724C788.933 47.5107 789.493 47.404 790.133 47.404C790.773 47.404 791.333 47.5053 791.813 47.708C792.293 47.9107 792.688 48.1933 792.997 48.556C793.307 48.9187 793.536 49.3507 793.685 49.852C793.845 50.3427 793.925 50.8813 793.925 51.468C793.925 51.5747 793.915 51.6973 793.893 51.836C793.883 51.9747 793.867 52.0867 793.845 52.172H788.341C788.373 52.46 788.448 52.7213 788.565 52.956C788.693 53.18 788.848 53.372 789.029 53.532C789.221 53.692 789.429 53.8147 789.653 53.9C789.888 53.9747 790.128 54.012 790.373 54.012C790.832 54.012 791.216 53.932 791.525 53.772C791.835 53.612 792.085 53.4093 792.277 53.164L793.413 54.348C793.115 54.7533 792.699 55.0787 792.165 55.324C791.632 55.5693 790.997 55.692 790.261 55.692ZM790.133 48.94C789.621 48.94 789.205 49.1053 788.885 49.436C788.565 49.7667 788.379 50.204 788.325 50.748H791.909C791.856 50.204 791.669 49.7667 791.349 49.436C791.04 49.1053 790.635 48.94 790.133 48.94ZM795.493 47.596H797.398V48.796H797.494C797.696 48.38 797.979 48.044 798.342 47.788C798.715 47.532 799.168 47.404 799.702 47.404C801.003 47.404 801.84 47.8947 802.214 48.876C802.416 48.428 802.731 48.0707 803.158 47.804C803.584 47.5373 804.086 47.404 804.662 47.404C805.622 47.404 806.326 47.6707 806.774 48.204C807.222 48.7267 807.446 49.5213 807.446 50.588V55.5H805.43V50.924C805.43 49.708 804.944 49.1 803.974 49.1C803.472 49.1 803.094 49.2653 802.838 49.596C802.592 49.9267 802.47 50.4013 802.47 51.02V55.5H800.454V50.924C800.454 50.316 800.336 49.8627 800.102 49.564C799.878 49.2547 799.51 49.1 798.998 49.1C798.518 49.1 798.15 49.2653 797.894 49.596C797.638 49.9267 797.51 50.4013 797.51 51.02V55.5H795.493V47.596ZM815.498 45.404C815.498 45.7027 815.392 45.9693 815.178 46.204C814.976 46.4387 814.688 46.556 814.314 46.556C813.93 46.556 813.637 46.4387 813.434 46.204C813.232 45.9693 813.13 45.7027 813.13 45.404C813.13 45.0947 813.232 44.828 813.434 44.604C813.637 44.3693 813.93 44.252 814.314 44.252C814.688 44.252 814.976 44.3693 815.178 44.604C815.392 44.828 815.498 45.0947 815.498 45.404ZM813.29 47.596H815.306V55.5H813.29V47.596ZM817.431 47.596H819.351V49.084H819.447C819.639 48.5613 819.959 48.1507 820.407 47.852C820.866 47.5533 821.404 47.404 822.023 47.404C822.514 47.404 822.967 47.5053 823.383 47.708C823.81 47.9107 824.172 48.1933 824.471 48.556C824.78 48.908 825.02 49.34 825.191 49.852C825.362 50.3533 825.447 50.908 825.447 51.516C825.447 52.1347 825.362 52.7 825.191 53.212C825.02 53.724 824.78 54.1667 824.471 54.54C824.172 54.9027 823.81 55.1853 823.383 55.388C822.967 55.5907 822.514 55.692 822.023 55.692C821.404 55.692 820.882 55.548 820.455 55.26C820.028 54.972 819.724 54.5987 819.543 54.14H819.447V58.46H817.431V47.596ZM821.399 53.932C821.996 53.932 822.476 53.7187 822.839 53.292C823.202 52.8653 823.383 52.284 823.383 51.548C823.383 50.812 823.202 50.2307 822.839 49.804C822.476 49.3773 821.996 49.164 821.399 49.164C820.812 49.164 820.338 49.3773 819.975 49.804C819.623 50.2307 819.447 50.812 819.447 51.548C819.447 52.284 819.623 52.8653 819.975 53.292C820.338 53.7187 820.812 53.932 821.399 53.932ZM830.817 53.26C830.817 53.1 830.769 52.9667 830.673 52.86C830.587 52.7427 830.459 52.6467 830.289 52.572C830.129 52.4973 829.937 52.4333 829.713 52.38C829.489 52.316 829.243 52.252 828.977 52.188C828.667 52.1133 828.374 52.0173 828.097 51.9C827.819 51.7827 827.574 51.6333 827.361 51.452C827.158 51.26 826.993 51.036 826.865 50.78C826.737 50.524 826.673 50.2147 826.673 49.852C826.673 49.4573 826.747 49.1107 826.897 48.812C827.057 48.5027 827.275 48.2467 827.553 48.044C827.83 47.8307 828.161 47.6707 828.545 47.564C828.929 47.4573 829.345 47.404 829.793 47.404C830.497 47.404 831.105 47.516 831.617 47.74C832.129 47.9533 832.523 48.2413 832.801 48.604L831.681 49.756C831.467 49.5213 831.201 49.3293 830.881 49.18C830.571 49.0307 830.246 48.956 829.905 48.956C829.585 48.956 829.302 49.02 829.057 49.148C828.811 49.276 828.689 49.484 828.689 49.772C828.689 49.932 828.731 50.0653 828.817 50.172C828.913 50.2787 829.041 50.3747 829.201 50.46C829.371 50.5347 829.569 50.604 829.793 50.668C830.017 50.7213 830.262 50.78 830.529 50.844C830.827 50.9187 831.115 51.0147 831.393 51.132C831.681 51.2493 831.926 51.404 832.129 51.596C832.342 51.7773 832.513 51.996 832.641 52.252C832.769 52.508 832.833 52.8173 832.833 53.18C832.833 53.596 832.747 53.9587 832.577 54.268C832.417 54.5773 832.187 54.8387 831.889 55.052C831.601 55.2653 831.254 55.4253 830.849 55.532C830.454 55.6387 830.027 55.692 829.569 55.692C828.79 55.692 828.129 55.58 827.585 55.356C827.051 55.132 826.646 54.844 826.369 54.492L827.457 53.324C827.702 53.58 828.001 53.7827 828.353 53.932C828.705 54.0707 829.089 54.14 829.505 54.14C829.878 54.14 830.187 54.0707 830.433 53.932C830.689 53.7827 830.817 53.5587 830.817 53.26ZM837.15 55.692C836.179 55.692 835.475 55.4307 835.038 54.908C834.6 54.3747 834.382 53.5747 834.382 52.508V47.596H836.398V52.108C836.398 52.748 836.51 53.2227 836.734 53.532C836.958 53.8413 837.326 53.996 837.838 53.996C838.328 53.996 838.696 53.8307 838.942 53.5C839.198 53.1587 839.326 52.668 839.326 52.028V47.596H841.342V55.5H839.438V54.22H839.342C839.16 54.6467 838.883 54.9987 838.51 55.276C838.136 55.5533 837.683 55.692 837.15 55.692ZM843.447 47.596H845.351V48.796H845.447C845.649 48.38 845.932 48.044 846.295 47.788C846.668 47.532 847.121 47.404 847.655 47.404C848.956 47.404 849.793 47.8947 850.167 48.876C850.369 48.428 850.684 48.0707 851.111 47.804C851.537 47.5373 852.039 47.404 852.615 47.404C853.575 47.404 854.279 47.6707 854.727 48.204C855.175 48.7267 855.399 49.5213 855.399 50.588V55.5H853.383V50.924C853.383 49.708 852.897 49.1 851.927 49.1C851.425 49.1 851.047 49.2653 850.791 49.596C850.545 49.9267 850.423 50.4013 850.423 51.02V55.5H848.407V50.924C848.407 50.316 848.289 49.8627 848.055 49.564C847.831 49.2547 847.463 49.1 846.951 49.1C846.471 49.1 846.103 49.2653 845.847 49.596C845.591 49.9267 845.463 50.4013 845.463 51.02V55.5H843.447V47.596Z" fill="black"/>
<rect x="54" y="240.5" width="252" height="53" rx="12" fill="white"/>
<rect x="54" y="341.5" width="252" height="34" rx="12" fill="white"/>
<rect x="54" y="383.5" width="252" height="33" rx="12" fill="white"/>
<rect x="54" y="424.5" width="252" height="33" rx="12" fill="white"/>
<rect x="54" y="465.5" width="252" height="33" rx="12" fill="white"/>
<rect x="54" y="506.5" width="252" height="34" rx="12" fill="white"/>
<rect x="330" y="445.5" width="532" height="119" rx="8" fill="white"/>
<rect x="330" y="240.5" width="532" height="53" rx="12" fill="white"/>
<g clip-path="url(#clip1_3169_98299)">
<rect x="775" y="247" width="80" height="40" rx="20" fill="#F36805"/>
<path d="M792.271 261H794.951V271.82H800.131V274H792.271V261ZM804.63 274.24C804.19 274.24 803.77 274.167 803.37 274.02C802.983 273.887 802.643 273.693 802.35 273.44C802.056 273.173 801.823 272.853 801.65 272.48C801.49 272.107 801.41 271.687 801.41 271.22C801.41 270.34 801.723 269.64 802.35 269.12C802.976 268.6 803.93 268.307 805.21 268.24L807.53 268.1V267.7C807.53 267.06 807.336 266.62 806.95 266.38C806.563 266.14 806.083 266.02 805.51 266.02C805.056 266.02 804.63 266.107 804.23 266.28C803.83 266.44 803.53 266.64 803.33 266.88L801.91 265.44C802.256 264.987 802.756 264.613 803.41 264.32C804.076 264.027 804.89 263.88 805.85 263.88C807.263 263.88 808.316 264.207 809.01 264.86C809.703 265.513 810.05 266.4 810.05 267.52V274H807.67V272.42H807.55C807.296 272.98 806.93 273.427 806.45 273.76C805.97 274.08 805.363 274.24 804.63 274.24ZM805.37 272.42C806.01 272.42 806.53 272.24 806.93 271.88C807.33 271.507 807.53 270.987 807.53 270.32V269.66L805.51 269.82C804.47 269.887 803.95 270.327 803.95 271.14C803.95 271.553 804.083 271.873 804.35 272.1C804.616 272.313 804.956 272.42 805.37 272.42ZM818.261 274.24C817.488 274.24 816.815 274.053 816.241 273.68C815.681 273.307 815.281 272.793 815.041 272.14H814.921V274H812.521V259.5H815.041V265.82H815.161C815.388 265.247 815.768 264.78 816.301 264.42C816.835 264.06 817.488 263.88 818.261 263.88C818.875 263.88 819.441 264.007 819.961 264.26C820.495 264.513 820.948 264.873 821.321 265.34C821.708 265.793 822.008 266.34 822.221 266.98C822.435 267.62 822.541 268.327 822.541 269.1C822.541 269.86 822.435 270.56 822.221 271.2C822.008 271.827 821.708 272.367 821.321 272.82C820.948 273.26 820.495 273.607 819.961 273.86C819.441 274.113 818.875 274.24 818.261 274.24ZM817.481 272.04C818.228 272.04 818.828 271.773 819.281 271.24C819.735 270.707 819.961 269.98 819.961 269.06C819.961 268.14 819.735 267.413 819.281 266.88C818.828 266.347 818.228 266.08 817.481 266.08C816.748 266.08 816.155 266.347 815.701 266.88C815.261 267.413 815.041 268.14 815.041 269.06C815.041 269.98 815.261 270.707 815.701 271.24C816.155 271.773 816.748 272.04 817.481 272.04ZM828.793 274.24C827.967 274.24 827.247 274.107 826.633 273.84C826.02 273.573 825.5 273.207 825.073 272.74C824.66 272.26 824.347 271.707 824.133 271.08C823.933 270.453 823.833 269.78 823.833 269.06C823.833 268.327 823.933 267.647 824.133 267.02C824.333 266.38 824.633 265.833 825.033 265.38C825.433 264.913 825.933 264.547 826.533 264.28C827.133 264.013 827.833 263.88 828.633 263.88C829.433 263.88 830.133 264.007 830.733 264.26C831.333 264.513 831.827 264.867 832.213 265.32C832.6 265.773 832.887 266.313 833.073 266.94C833.273 267.553 833.373 268.227 833.373 268.96C833.373 269.093 833.36 269.247 833.333 269.42C833.32 269.593 833.3 269.733 833.273 269.84H826.393C826.433 270.2 826.527 270.527 826.673 270.82C826.833 271.1 827.027 271.34 827.253 271.54C827.493 271.74 827.753 271.893 828.033 272C828.327 272.093 828.627 272.14 828.933 272.14C829.507 272.14 829.987 272.04 830.373 271.84C830.76 271.64 831.073 271.387 831.313 271.08L832.733 272.56C832.36 273.067 831.84 273.473 831.173 273.78C830.507 274.087 829.713 274.24 828.793 274.24ZM828.633 265.8C827.993 265.8 827.473 266.007 827.073 266.42C826.673 266.833 826.44 267.38 826.373 268.06H830.853C830.787 267.38 830.553 266.833 830.153 266.42C829.767 266.007 829.26 265.8 828.633 265.8ZM835.334 259.5H837.854V274H835.334V259.5Z" fill="white"/>
</g>
<g clip-path="url(#clip2_3169_98299)">
<path d="M330 353.5C330 346.873 335.373 341.5 342 341.5H850C856.627 341.5 862 346.873 862 353.5V417.5C862 424.127 856.627 429.5 850 429.5H342C335.373 429.5 330 424.127 330 417.5V353.5Z" fill="#FFF9DF"/>
<g opacity="0.08">
<rect width="24" height="2" transform="translate(346 357.5)" fill="white" fill-opacity="0.01"/>
</g>
<g clip-path="url(#clip3_3169_98299)">
<path d="M358.984 367.562H357.016V371.5H358.984V367.562Z" fill="#242E30"/>
<path d="M358 375.437C358.725 375.437 359.313 374.85 359.313 374.125C359.313 373.4 358.725 372.812 358 372.812C357.275 372.812 356.688 373.4 356.688 374.125C356.688 374.85 357.275 375.437 358 375.437Z" fill="#242E30"/>
<path d="M366.111 379.047H349.889C349.479 379.049 349.076 378.939 348.725 378.728C348.373 378.518 348.086 378.215 347.894 377.853C347.689 377.48 347.587 377.061 347.599 376.636C347.61 376.212 347.735 375.798 347.959 375.438L356.071 362.444C356.268 362.107 356.55 361.827 356.888 361.631C357.226 361.436 357.609 361.331 358 361.328C358.388 361.329 358.77 361.429 359.108 361.62C359.446 361.811 359.729 362.085 359.929 362.418L368.041 375.438C368.26 375.807 368.376 376.228 368.376 376.658C368.376 377.088 368.26 377.509 368.041 377.879C367.851 378.226 367.572 378.518 367.233 378.723C366.894 378.928 366.507 379.04 366.111 379.047ZM358 363.297C357.946 363.296 357.893 363.31 357.846 363.338C357.8 363.366 357.762 363.406 357.738 363.454L349.626 376.461C349.587 376.529 349.566 376.606 349.566 376.684C349.566 376.763 349.587 376.84 349.626 376.908C349.651 376.959 349.69 377.003 349.739 377.033C349.788 377.063 349.844 377.079 349.902 377.078H366.111C366.169 377.079 366.225 377.063 366.274 377.033C366.323 377.003 366.362 376.959 366.387 376.908C366.426 376.84 366.447 376.763 366.447 376.684C366.447 376.606 366.426 376.529 366.387 376.461L358.263 363.454C358.238 363.406 358.2 363.366 358.154 363.338C358.107 363.31 358.054 363.296 358 363.297Z" fill="#242E30"/>
</g>
<path d="M385.92 368.2H382.36V365.5H392.86V368.2H389.3V378.5H385.92V368.2ZM397.671 365.78C397.671 366.233 397.518 366.64 397.211 367C396.904 367.347 396.458 367.52 395.871 367.52C395.271 367.52 394.824 367.347 394.531 367C394.238 366.64 394.091 366.233 394.091 365.78C394.091 365.327 394.238 364.927 394.531 364.58C394.824 364.22 395.271 364.04 395.871 364.04C396.458 364.04 396.904 364.22 397.211 364.58C397.518 364.927 397.671 365.327 397.671 365.78ZM394.271 368.62H397.451V378.5H394.271V368.62ZM403.904 378.72C402.651 378.72 401.744 378.407 401.184 377.78C400.637 377.153 400.364 376.153 400.364 374.78V371.16H398.944V368.62H400.364V365.94H403.504V368.62H406.424V371.16H403.504V374.84C403.504 375.28 403.577 375.6 403.724 375.8C403.884 376 404.144 376.1 404.504 376.1C404.744 376.1 404.971 376.053 405.184 375.96C405.411 375.853 405.597 375.727 405.744 375.58L406.764 377.74C406.111 378.393 405.157 378.72 403.904 378.72ZM408.119 364H411.299V378.5H408.119V364ZM417.972 378.74C417.065 378.74 416.285 378.593 415.632 378.3C414.992 378.007 414.465 377.62 414.052 377.14C413.638 376.66 413.332 376.113 413.132 375.5C412.932 374.873 412.832 374.227 412.832 373.56C412.832 372.907 412.918 372.267 413.092 371.64C413.278 371.013 413.565 370.46 413.952 369.98C414.352 369.5 414.865 369.113 415.492 368.82C416.118 368.527 416.885 368.38 417.792 368.38C418.698 368.38 419.465 368.527 420.092 368.82C420.718 369.1 421.218 369.48 421.592 369.96C421.978 370.427 422.252 370.967 422.412 371.58C422.585 372.193 422.672 372.827 422.672 373.48C422.672 373.627 422.658 373.82 422.632 374.06C422.605 374.287 422.572 374.46 422.532 374.58H416.052C416.105 374.873 416.205 375.12 416.352 375.32C416.512 375.52 416.692 375.68 416.892 375.8C417.092 375.92 417.298 376.007 417.512 376.06C417.738 376.113 417.952 376.14 418.152 376.14C418.618 376.14 419.018 376.067 419.352 375.92C419.698 375.773 419.965 375.58 420.152 375.34L421.892 377.16C421.572 377.627 421.065 378.007 420.372 378.3C419.678 378.593 418.878 378.74 417.972 378.74ZM417.792 370.74C417.365 370.74 416.985 370.873 416.652 371.14C416.318 371.393 416.098 371.84 415.992 372.48H419.552C419.458 371.84 419.245 371.393 418.912 371.14C418.578 370.873 418.205 370.74 417.792 370.74Z" fill="#242E30"/>
<path d="M386.192 407.692C385.285 407.692 384.549 407.553 383.984 407.276C383.419 406.999 382.971 406.641 382.64 406.204L383.504 405.388C383.792 405.74 384.171 406.017 384.64 406.22C385.12 406.423 385.68 406.524 386.32 406.524C386.608 406.524 386.885 406.492 387.152 406.428C387.419 406.364 387.653 406.268 387.856 406.14C388.069 406.001 388.235 405.82 388.352 405.596C388.48 405.372 388.544 405.1 388.544 404.78C388.544 404.503 388.48 404.268 388.352 404.076C388.224 403.873 388.048 403.703 387.824 403.564C387.611 403.415 387.355 403.287 387.056 403.18C386.757 403.063 386.432 402.945 386.08 402.828C385.707 402.7 385.339 402.567 384.976 402.428C384.613 402.279 384.288 402.092 384 401.868C383.712 401.644 383.477 401.372 383.296 401.052C383.115 400.721 383.024 400.316 383.024 399.836C383.024 399.356 383.109 398.935 383.28 398.572C383.461 398.209 383.707 397.905 384.016 397.66C384.325 397.415 384.693 397.228 385.12 397.1C385.547 396.972 386.011 396.908 386.512 396.908C387.248 396.908 387.904 397.036 388.48 397.292C389.067 397.548 389.541 397.937 389.904 398.46L389.04 399.308C388.752 398.956 388.384 398.663 387.936 398.428C387.488 398.193 386.976 398.076 386.4 398.076C386.155 398.076 385.915 398.108 385.68 398.172C385.445 398.225 385.232 398.321 385.04 398.46C384.848 398.599 384.693 398.775 384.576 398.988C384.459 399.201 384.4 399.457 384.4 399.756C384.4 400.033 384.464 400.273 384.592 400.476C384.72 400.668 384.891 400.839 385.104 400.988C385.328 401.127 385.589 401.255 385.888 401.372C386.187 401.479 386.512 401.591 386.864 401.708C387.237 401.836 387.605 401.975 387.968 402.124C388.331 402.273 388.656 402.46 388.944 402.684C389.232 402.908 389.467 403.18 389.648 403.5C389.829 403.82 389.92 404.22 389.92 404.7C389.92 405.212 389.819 405.66 389.616 406.044C389.424 406.417 389.157 406.727 388.816 406.972C388.485 407.217 388.091 407.399 387.632 407.516C387.184 407.633 386.704 407.692 386.192 407.692ZM394.799 407.692C394.361 407.692 393.967 407.633 393.615 407.516C393.263 407.399 392.959 407.217 392.703 406.972C392.457 406.727 392.265 406.412 392.127 406.028C391.988 405.644 391.919 405.185 391.919 404.652V399.596H393.199V404.412C393.199 405.223 393.353 405.799 393.663 406.14C393.983 406.471 394.447 406.636 395.055 406.636C395.631 406.636 396.084 406.428 396.415 406.012C396.756 405.596 396.927 404.988 396.927 404.188V399.596H398.207V407.5H396.991V406.252H396.895C396.703 406.668 396.436 407.015 396.095 407.292C395.764 407.559 395.332 407.692 394.799 407.692ZM400.923 399.596H402.139V401.212H402.235C402.331 400.945 402.464 400.7 402.635 400.476C402.816 400.252 403.024 400.06 403.259 399.9C403.504 399.74 403.771 399.617 404.059 399.532C404.357 399.447 404.667 399.404 404.987 399.404C405.509 399.404 405.984 399.511 406.411 399.724C406.848 399.927 407.221 400.215 407.531 400.588C407.84 400.951 408.075 401.388 408.235 401.9C408.405 402.412 408.491 402.967 408.491 403.564C408.491 404.161 408.405 404.716 408.235 405.228C408.075 405.729 407.84 406.167 407.531 406.54C407.221 406.903 406.848 407.185 406.411 407.388C405.984 407.591 405.509 407.692 404.987 407.692C404.336 407.692 403.776 407.537 403.307 407.228C402.837 406.919 402.501 406.524 402.299 406.044H402.203V410.46H400.923V399.596ZM404.667 406.54C405.019 406.54 405.344 406.481 405.643 406.364C405.952 406.236 406.219 406.049 406.443 405.804C406.677 405.548 406.859 405.233 406.987 404.86C407.115 404.487 407.179 404.049 407.179 403.548C407.179 403.047 407.115 402.609 406.987 402.236C406.859 401.863 406.677 401.553 406.443 401.308C406.219 401.052 405.952 400.865 405.643 400.748C405.344 400.62 405.019 400.556 404.667 400.556C404.325 400.556 404.005 400.62 403.707 400.748C403.408 400.865 403.147 401.052 402.923 401.308C402.699 401.553 402.523 401.863 402.395 402.236C402.267 402.609 402.203 403.047 402.203 403.548C402.203 404.049 402.267 404.487 402.395 404.86C402.523 405.233 402.699 405.548 402.923 405.804C403.147 406.049 403.408 406.236 403.707 406.364C404.005 406.481 404.325 406.54 404.667 406.54ZM410.548 399.596H411.764V401.212H411.86C411.956 400.945 412.089 400.7 412.26 400.476C412.441 400.252 412.649 400.06 412.884 399.9C413.129 399.74 413.396 399.617 413.684 399.532C413.982 399.447 414.292 399.404 414.612 399.404C415.134 399.404 415.609 399.511 416.036 399.724C416.473 399.927 416.846 400.215 417.156 400.588C417.465 400.951 417.7 401.388 417.86 401.9C418.03 402.412 418.116 402.967 418.116 403.564C418.116 404.161 418.03 404.716 417.86 405.228C417.7 405.729 417.465 406.167 417.156 406.54C416.846 406.903 416.473 407.185 416.036 407.388C415.609 407.591 415.134 407.692 414.612 407.692C413.961 407.692 413.401 407.537 412.932 407.228C412.462 406.919 412.126 406.524 411.924 406.044H411.828V410.46H410.548V399.596ZM414.292 406.54C414.644 406.54 414.969 406.481 415.268 406.364C415.577 406.236 415.844 406.049 416.068 405.804C416.302 405.548 416.484 405.233 416.612 404.86C416.74 404.487 416.804 404.049 416.804 403.548C416.804 403.047 416.74 402.609 416.612 402.236C416.484 401.863 416.302 401.553 416.068 401.308C415.844 401.052 415.577 400.865 415.268 400.748C414.969 400.62 414.644 400.556 414.292 400.556C413.95 400.556 413.63 400.62 413.332 400.748C413.033 400.865 412.772 401.052 412.548 401.308C412.324 401.553 412.148 401.863 412.02 402.236C411.892 402.609 411.828 403.047 411.828 403.548C411.828 404.049 411.892 404.487 412.02 404.86C412.148 405.233 412.324 405.548 412.548 405.804C412.772 406.049 413.033 406.236 413.332 406.364C413.63 406.481 413.95 406.54 414.292 406.54ZM423.293 407.692C422.663 407.692 422.109 407.585 421.629 407.372C421.159 407.148 420.765 406.849 420.445 406.476C420.135 406.103 419.901 405.665 419.741 405.164C419.591 404.663 419.517 404.124 419.517 403.548C419.517 402.972 419.591 402.433 419.741 401.932C419.901 401.431 420.135 400.993 420.445 400.62C420.765 400.247 421.159 399.953 421.629 399.74C422.109 399.516 422.663 399.404 423.293 399.404C423.922 399.404 424.466 399.516 424.925 399.74C425.394 399.953 425.783 400.247 426.093 400.62C426.402 400.993 426.631 401.431 426.781 401.932C426.941 402.433 427.021 402.972 427.021 403.548C427.021 404.124 426.941 404.663 426.781 405.164C426.631 405.665 426.402 406.103 426.093 406.476C425.783 406.849 425.394 407.148 424.925 407.372C424.466 407.585 423.922 407.692 423.293 407.692ZM420.829 403.548C420.829 404.007 420.877 404.428 420.973 404.812C421.079 405.185 421.234 405.511 421.437 405.788C421.639 406.055 421.895 406.263 422.205 406.412C422.514 406.561 422.877 406.636 423.293 406.636C423.698 406.636 424.05 406.561 424.349 406.412C424.658 406.263 424.909 406.055 425.101 405.788C425.303 405.511 425.453 405.185 425.549 404.812C425.655 404.428 425.709 404.007 425.709 403.548C425.709 403.089 425.655 402.673 425.549 402.3C425.453 401.916 425.303 401.591 425.101 401.324C424.909 401.047 424.658 400.833 424.349 400.684C424.05 400.535 423.698 400.46 423.293 400.46C422.877 400.46 422.514 400.535 422.205 400.684C421.895 400.833 421.639 401.047 421.437 401.324C421.234 401.591 421.079 401.916 420.973 402.3C420.877 402.673 420.829 403.089 420.829 403.548ZM429.079 399.596H430.295V400.876H430.391C430.561 400.46 430.807 400.113 431.127 399.836C431.447 399.548 431.847 399.404 432.327 399.404C432.732 399.404 433.089 399.484 433.399 399.644L432.967 400.796C432.828 400.721 432.679 400.673 432.519 400.652C432.369 400.62 432.215 400.604 432.055 400.604C431.532 400.604 431.116 400.817 430.807 401.244C430.508 401.66 430.359 402.193 430.359 402.844V407.5H429.079V399.596ZM437.48 407.692C436.765 407.692 436.242 407.479 435.912 407.052C435.581 406.625 435.416 406.039 435.416 405.292V400.636H434.008V399.596H435.416V397.452H436.68V399.596H438.968V400.636H436.68V405.18C436.68 405.692 436.776 406.049 436.968 406.252C437.17 406.455 437.426 406.556 437.736 406.556C437.949 406.556 438.141 406.519 438.312 406.444C438.482 406.359 438.642 406.247 438.792 406.108L439.368 407.004C438.877 407.463 438.248 407.692 437.48 407.692ZM442.598 397.5C442.598 397.724 442.518 397.916 442.358 398.076C442.209 398.236 442.006 398.316 441.75 398.316C441.483 398.316 441.275 398.236 441.126 398.076C440.977 397.916 440.902 397.724 440.902 397.5C440.902 397.287 440.977 397.1 441.126 396.94C441.275 396.769 441.483 396.684 441.75 396.684C442.006 396.684 442.209 396.769 442.358 396.94C442.518 397.1 442.598 397.287 442.598 397.5ZM441.11 399.596H442.39V407.5H441.11V399.596ZM445.11 399.596H446.326V400.844H446.422C446.614 400.428 446.886 400.087 447.238 399.82C447.59 399.543 448.038 399.404 448.582 399.404C449.489 399.404 450.203 399.644 450.726 400.124C451.259 400.604 451.526 401.377 451.526 402.444V407.5H450.246V402.684C450.246 401.873 450.081 401.303 449.75 400.972C449.43 400.631 448.955 400.46 448.326 400.46C447.718 400.46 447.243 400.668 446.902 401.084C446.561 401.5 446.39 402.108 446.39 402.908V407.5H445.11V399.596ZM457.246 410.652C456.564 410.652 455.972 410.529 455.47 410.284C454.969 410.049 454.569 409.756 454.27 409.404L455.118 408.588C455.342 408.865 455.63 409.084 455.982 409.244C456.345 409.415 456.745 409.5 457.182 409.5C457.865 409.5 458.398 409.335 458.782 409.004C459.177 408.673 459.374 408.092 459.374 407.26V405.724H459.278C459.193 405.991 459.07 406.231 458.91 406.444C458.75 406.647 458.558 406.823 458.334 406.972C458.121 407.111 457.881 407.223 457.614 407.308C457.358 407.383 457.097 407.42 456.83 407.42C456.329 407.42 455.87 407.329 455.454 407.148C455.049 406.967 454.692 406.705 454.382 406.364C454.084 406.012 453.849 405.585 453.678 405.084C453.518 404.583 453.438 404.017 453.438 403.388C453.438 402.769 453.518 402.215 453.678 401.724C453.849 401.233 454.084 400.817 454.382 400.476C454.692 400.135 455.049 399.873 455.454 399.692C455.87 399.5 456.329 399.404 456.83 399.404C457.417 399.404 457.94 399.559 458.398 399.868C458.868 400.167 459.182 400.583 459.342 401.116H459.438V399.596H460.654V407.42C460.654 408.391 460.361 409.169 459.774 409.756C459.198 410.353 458.356 410.652 457.246 410.652ZM457.086 406.268C457.79 406.268 458.345 406.023 458.75 405.532C459.166 405.041 459.374 404.332 459.374 403.404C459.374 402.465 459.166 401.756 458.75 401.276C458.345 400.796 457.79 400.556 457.086 400.556C456.372 400.556 455.801 400.796 455.374 401.276C454.958 401.756 454.75 402.465 454.75 403.404C454.75 404.332 454.958 405.041 455.374 405.532C455.801 406.023 456.372 406.268 457.086 406.268ZM469.651 407.692C468.937 407.692 468.414 407.479 468.083 407.052C467.753 406.625 467.587 406.039 467.587 405.292V400.636H466.179V399.596H467.587V397.452H468.851V399.596H471.139V400.636H468.851V405.18C468.851 405.692 468.947 406.049 469.139 406.252C469.342 406.455 469.598 406.556 469.907 406.556C470.121 406.556 470.313 406.519 470.483 406.444C470.654 406.359 470.814 406.247 470.963 406.108L471.539 407.004C471.049 407.463 470.419 407.692 469.651 407.692ZM476.245 407.692C475.68 407.692 475.162 407.596 474.693 407.404C474.234 407.212 473.84 406.94 473.509 406.588C473.189 406.225 472.938 405.788 472.757 405.276C472.586 404.764 472.501 404.188 472.501 403.548C472.501 402.876 472.592 402.284 472.773 401.772C472.954 401.249 473.205 400.817 473.525 400.476C473.845 400.124 474.224 399.857 474.661 399.676C475.109 399.495 475.6 399.404 476.133 399.404C476.666 399.404 477.157 399.489 477.605 399.66C478.053 399.831 478.437 400.087 478.757 400.428C479.077 400.759 479.328 401.18 479.509 401.692C479.69 402.193 479.781 402.78 479.781 403.452C479.781 403.537 479.776 403.623 479.765 403.708C479.765 403.793 479.76 403.863 479.749 403.916H473.781C473.781 404.289 473.845 404.641 473.973 404.972C474.112 405.292 474.293 405.575 474.517 405.82C474.752 406.055 475.018 406.241 475.317 406.38C475.626 406.519 475.957 406.588 476.309 406.588C476.885 406.588 477.354 406.476 477.717 406.252C478.09 406.028 478.4 405.756 478.645 405.436L479.413 406.22C479.072 406.668 478.645 407.025 478.133 407.292C477.632 407.559 477.002 407.692 476.245 407.692ZM476.133 400.46C475.76 400.46 475.429 400.529 475.141 400.668C474.853 400.807 474.613 400.988 474.421 401.212C474.229 401.436 474.08 401.692 473.973 401.98C473.877 402.268 473.824 402.556 473.813 402.844H478.437C478.426 402.556 478.368 402.268 478.261 401.98C478.165 401.692 478.021 401.436 477.829 401.212C477.637 400.988 477.397 400.807 477.109 400.668C476.832 400.529 476.506 400.46 476.133 400.46ZM483.499 403.484L480.859 399.596H482.395L484.267 402.556H484.331L486.267 399.596H487.643L485.003 403.42L487.771 407.5H486.235L484.235 404.348H484.171L482.107 407.5H480.731L483.499 403.484ZM492.089 407.692C491.374 407.692 490.852 407.479 490.521 407.052C490.19 406.625 490.025 406.039 490.025 405.292V400.636H488.617V399.596H490.025V397.452H491.289V399.596H493.577V400.636H491.289V405.18C491.289 405.692 491.385 406.049 491.577 406.252C491.78 406.455 492.036 406.556 492.345 406.556C492.558 406.556 492.75 406.519 492.921 406.444C493.092 406.359 493.252 406.247 493.401 406.108L493.977 407.004C493.486 407.463 492.857 407.692 492.089 407.692Z" fill="#242E30"/>
<rect width="16" height="16" transform="translate(330 413.5)" fill="white" fill-opacity="0.01"/>
<rect width="16" height="16" transform="translate(330 413.5)" fill="white" fill-opacity="0.01"/>
</g>
<defs>
<filter id="filter0_ddd_3169_98299" x="0" y="0.5" width="916" height="667" filterUnits="userSpaceOnUse" color-interpolation-filters="sRGB">
<feFlood flood-opacity="0" result="BackgroundImageFix"/>
<feColorMatrix in="SourceAlpha" type="matrix" values="0 0 0 0 0 0 0 0 0 0 0 0 0 0 0 0 0 0 127 0" result="hardAlpha"/>
<feOffset dy="-3"/>
<feGaussianBlur stdDeviation="3"/>
<feColorMatrix type="matrix" values="0 0 0 0 0 0 0 0 0 0 0 0 0 0 0 0 0 0 0.06 0"/>
<feBlend mode="normal" in2="BackgroundImageFix" result="effect1_dropShadow_3169_98299"/>
<feColorMatrix in="SourceAlpha" type="matrix" values="0 0 0 0 0 0 0 0 0 0 0 0 0 0 0 0 0 0 127 0" result="hardAlpha"/>
<feMorphology radius="2" operator="erode" in="SourceAlpha" result="effect2_dropShadow_3169_98299"/>
<feOffset dy="-2"/>
<feGaussianBlur stdDeviation="6"/>
<feColorMatrix type="matrix" values="0 0 0 0 0 0 0 0 0 0 0 0 0 0 0 0 0 0 0.08 0"/>
<feBlend mode="normal" in2="effect1_dropShadow_3169_98299" result="effect2_dropShadow_3169_98299"/>
<feColorMatrix in="SourceAlpha" type="matrix" values="0 0 0 0 0 0 0 0 0 0 0 0 0 0 0 0 0 0 127 0" result="hardAlpha"/>
<feOffset dy="-4"/>
<feGaussianBlur stdDeviation="3"/>
<feColorMatrix type="matrix" values="0 0 0 0 0 0 0 0 0 0 0 0 0 0 0 0 0 0 0.02 0"/>
<feBlend mode="normal" in2="effect2_dropShadow_3169_98299" result="effect3_dropShadow_3169_98299"/>
<feBlend mode="normal" in="SourceGraphic" in2="effect3_dropShadow_3169_98299" result="shape"/>
</filter>
<filter id="filter1_ddd_3169_98299" x="5" y="8.5" width="906" height="81" filterUnits="userSpaceOnUse" color-interpolation-filters="sRGB">
<feFlood flood-opacity="0" result="BackgroundImageFix"/>
<feColorMatrix in="SourceAlpha" type="matrix" values="0 0 0 0 0 0 0 0 0 0 0 0 0 0 0 0 0 0 127 0" result="hardAlpha"/>
<feOffset dy="1"/>
<feGaussianBlur stdDeviation="2.5"/>
<feColorMatrix type="matrix" values="0 0 0 0 0 0 0 0 0 0 0 0 0 0 0 0 0 0 0.06 0"/>
<feBlend mode="normal" in2="BackgroundImageFix" result="effect1_dropShadow_3169_98299"/>
<feColorMatrix in="SourceAlpha" type="matrix" values="0 0 0 0 0 0 0 0 0 0 0 0 0 0 0 0 0 0 127 0" result="hardAlpha"/>
<feMorphology radius="2" operator="erode" in="SourceAlpha" result="effect2_dropShadow_3169_98299"/>
<feOffset dy="3"/>
<feGaussianBlur stdDeviation="0.5"/>
<feColorMatrix type="matrix" values="0 0 0 0 0 0 0 0 0 0 0 0 0 0 0 0 0 0 0.07 0"/>
<feBlend mode="normal" in2="effect1_dropShadow_3169_98299" result="effect2_dropShadow_3169_98299"/>
<feColorMatrix in="SourceAlpha" type="matrix" values="0 0 0 0 0 0 0 0 0 0 0 0 0 0 0 0 0 0 127 0" result="hardAlpha"/>
<feOffset dy="2"/>
<feGaussianBlur stdDeviation="1"/>
<feColorMatrix type="matrix" values="0 0 0 0 0 0 0 0 0 0 0 0 0 0 0 0 0 0 0.03 0"/>
<feBlend mode="normal" in2="effect2_dropShadow_3169_98299" result="effect3_dropShadow_3169_98299"/>
<feBlend mode="normal" in="SourceGraphic" in2="effect3_dropShadow_3169_98299" result="shape"/>
</filter>
<clipPath id="clip0_3169_98299">
<rect width="129" height="31" fill="white" transform="translate(54 32.5)"/>
</clipPath>
<clipPath id="clip1_3169_98299">
<rect x="775" y="247" width="80" height="40" rx="20" fill="white"/>
</clipPath>
<clipPath id="clip2_3169_98299">
<path d="M330 353.5C330 346.873 335.373 341.5 342 341.5H850C856.627 341.5 862 346.873 862 353.5V417.5C862 424.127 856.627 429.5 850 429.5H342C335.373 429.5 330 424.127 330 417.5V353.5Z" fill="white"/>
</clipPath>
<clipPath id="clip3_3169_98299">
<rect width="21" height="21" fill="white" transform="translate(347.5 361)"/>
</clipPath>
</defs>
</svg>
