<svg fill="none" xmlns="http://www.w3.org/2000/svg" viewBox="0 0 244 120">
  <path d="M25.745 62h2.68v10.82h5.18V75h-7.86V62Zm12.36 13.24c-.44 0-.86-.073-1.26-.22a3.08 3.08 0 0 1-1.02-.58 2.976 2.976 0 0 1-.7-.96 3.169 3.169 0 0 1-.24-1.26c0-.88.313-1.58.94-2.1.626-.52 1.58-.813 2.86-.88l2.32-.14v-.4c0-.64-.194-1.08-.58-1.32-.387-.24-.867-.36-1.44-.36-.454 0-.88.087-1.28.26-.4.16-.7.36-.9.6l-1.42-1.44c.346-.453.846-.827 1.5-1.12.666-.293 1.48-.44 2.44-.44 1.413 0 2.466.327 3.16.98.693.653 1.04 1.54 1.04 2.66V75h-2.38v-1.58h-.12a3.2 3.2 0 0 1-1.1 1.34c-.48.32-1.087.48-1.82.48Zm.74-1.82c.64 0 1.16-.18 1.56-.54.4-.373.6-.893.6-1.56v-.66l-2.02.16c-1.04.067-1.56.507-1.56 1.32 0 .413.133.733.4.96.266.213.606.32 1.02.32Zm12.89 1.82c-.773 0-1.446-.187-2.02-.56a3.072 3.072 0 0 1-1.2-1.54h-.12V75h-2.4V60.5h2.52v6.32h.12a2.986 2.986 0 0 1 1.14-1.4c.534-.36 1.187-.54 1.96-.54.614 0 1.18.127 1.7.38.534.253.987.613 1.36 1.08.387.453.687 1 .9 1.64.214.64.32 1.347.32 2.12 0 .76-.106 1.46-.32 2.1a4.9 4.9 0 0 1-.9 1.62c-.373.44-.826.787-1.36 1.04a3.83 3.83 0 0 1-1.7.38Zm-.78-2.2c.747 0 1.347-.267 1.8-.8.454-.533.68-1.26.68-2.18 0-.92-.226-1.647-.68-2.18-.453-.533-1.053-.8-1.8-.8-.733 0-1.326.267-1.78.8-.44.533-.66 1.26-.66 2.18 0 .92.22 1.647.66 2.18.454.533 1.047.8 1.78.8Zm11.313 2.2c-.827 0-1.547-.133-2.16-.4a4.53 4.53 0 0 1-1.56-1.1 4.969 4.969 0 0 1-.94-1.66c-.2-.627-.3-1.3-.3-2.02 0-.733.1-1.413.3-2.04.2-.64.5-1.187.9-1.64.4-.467.9-.833 1.5-1.1.6-.267 1.3-.4 2.1-.4s1.5.127 2.1.38c.6.253 1.093.607 1.48 1.06.387.453.673.993.86 1.62.2.613.3 1.287.3 2.02 0 .133-.013.287-.04.46a2.638 2.638 0 0 1-.06.42h-6.88c.04.36.133.687.28.98.16.28.353.52.58.72.24.2.5.353.78.46.293.093.593.14.9.14.573 0 1.053-.1 1.44-.3.387-.2.7-.453.94-.76l1.42 1.48c-.373.507-.893.913-1.56 1.22-.667.307-1.46.46-2.38.46Zm-.16-8.44c-.64 0-1.16.207-1.56.62-.4.413-.633.96-.7 1.64h4.48c-.067-.68-.3-1.227-.7-1.64-.387-.413-.893-.62-1.52-.62Zm6.7-6.3h2.52V75h-2.52V60.5Zm10.16 12.4c0-.6.087-1.127.26-1.58.187-.453.44-.86.76-1.22s.7-.687 1.14-.98c.44-.293.92-.58 1.44-.86.52-.28.954-.52 1.3-.72.36-.213.64-.42.84-.62.214-.2.36-.4.44-.6.094-.213.14-.46.14-.74 0-.547-.2-.947-.6-1.2-.4-.253-.88-.38-1.44-.38-.6 0-1.153.113-1.66.34a3.77 3.77 0 0 0-1.28.9l-1.34-1.58c.494-.56 1.12-1.013 1.88-1.36.76-.36 1.634-.54 2.62-.54.667 0 1.274.08 1.82.24.56.16 1.034.4 1.42.72.4.307.707.687.92 1.14.227.453.34.973.34 1.56 0 .573-.086 1.08-.26 1.52a4.138 4.138 0 0 1-.76 1.2c-.333.36-.746.7-1.24 1.02-.48.32-1.033.647-1.66.98l-1.1.62a5.09 5.09 0 0 0-.74.52 2.055 2.055 0 0 0-.42.52c-.08.173-.12.38-.12.62v.42h6.64V75h-9.34v-2.1Z" fill="#303D3F"/>
  <rect x=".5" y="40.5" width="113" height="55" rx="27.5" stroke="#DBD9D7"/>
  <rect x="130" y="40" width="114" height="56" rx="28" fill="#FB6100"/>
  <path d="M155.745 62h2.68v10.82h5.18V75h-7.86V62Zm12.359 13.24c-.44 0-.86-.073-1.26-.22a3.091 3.091 0 0 1-1.02-.58 2.99 2.99 0 0 1-.7-.96 3.169 3.169 0 0 1-.24-1.26c0-.88.314-1.58.94-2.1.627-.52 1.58-.813 2.86-.88l2.32-.14v-.4c0-.64-.193-1.08-.58-1.32-.386-.24-.866-.36-1.44-.36-.453 0-.88.087-1.28.26-.4.16-.7.36-.9.6l-1.42-1.44c.347-.453.847-.827 1.5-1.12.667-.293 1.48-.44 2.44-.44 1.414 0 2.467.327 3.16.98.694.653 1.04 1.54 1.04 2.66V75h-2.38v-1.58h-.12a3.197 3.197 0 0 1-1.1 1.34c-.48.32-1.086.48-1.82.48Zm.74-1.82c.64 0 1.16-.18 1.56-.54.4-.373.6-.893.6-1.56v-.66l-2.02.16c-1.04.067-1.56.507-1.56 1.32 0 .413.134.733.4.96.267.213.607.32 1.02.32Zm12.892 1.82c-.774 0-1.447-.187-2.02-.56a3.072 3.072 0 0 1-1.2-1.54h-.12V75h-2.4V60.5h2.52v6.32h.12a2.979 2.979 0 0 1 1.14-1.4c.533-.36 1.186-.54 1.96-.54.613 0 1.18.127 1.7.38a3.83 3.83 0 0 1 1.36 1.08c.386.453.686 1 .9 1.64.213.64.32 1.347.32 2.12 0 .76-.107 1.46-.32 2.1a4.92 4.92 0 0 1-.9 1.62c-.374.44-.827.787-1.36 1.04a3.83 3.83 0 0 1-1.7.38Zm-.78-2.2c.746 0 1.346-.267 1.8-.8.453-.533.68-1.26.68-2.18 0-.92-.227-1.647-.68-2.18-.454-.533-1.054-.8-1.8-.8-.734 0-1.327.267-1.78.8-.44.533-.66 1.26-.66 2.18 0 .92.22 1.647.66 2.18.453.533 1.046.8 1.78.8Zm11.312 2.2c-.827 0-1.547-.133-2.16-.4a4.537 4.537 0 0 1-1.56-1.1 4.97 4.97 0 0 1-.94-1.66c-.2-.627-.3-1.3-.3-2.02 0-.733.1-1.413.3-2.04.2-.64.5-1.187.9-1.64.4-.467.9-.833 1.5-1.1.6-.267 1.3-.4 2.1-.4s1.5.127 2.1.38c.6.253 1.093.607 1.48 1.06.387.453.673.993.86 1.62.2.613.3 1.287.3 2.02 0 .133-.013.287-.04.46a2.55 2.55 0 0 1-.06.42h-6.88c.04.36.133.687.28.98.16.28.353.52.58.72.24.2.5.353.78.46.293.093.593.14.9.14.573 0 1.053-.1 1.44-.3.387-.2.7-.453.94-.76l1.42 1.48c-.373.507-.893.913-1.56 1.22-.667.307-1.46.46-2.38.46Zm-.16-8.44c-.64 0-1.16.207-1.56.62-.4.413-.633.96-.7 1.64h4.48c-.067-.68-.3-1.227-.7-1.64-.387-.413-.893-.62-1.52-.62Zm6.7-6.3h2.52V75h-2.52V60.5Zm10.441 12.36h3.5V64.8l-3.02 1.22-.86-1.88 4.64-2.14h1.9v10.86h3.12V75h-9.28v-2.14Z" fill="#fff"/>
  <path d="M109.14 11.16h2.232V5.28l-2.136.984-.312-.672 2.628-1.392h.84v6.96h2.004V12h-5.256v-.84Zm9.787.984c-.896 0-1.58-.316-2.052-.948-.464-.64-.696-1.596-.696-2.868 0-1.384.264-2.44.792-3.168.528-.736 1.244-1.104 2.148-1.104.552 0 1 .084 1.344.252.344.16.632.368.864.624l-.612.648a2.003 2.003 0 0 0-.672-.468 2.145 2.145 0 0 0-.888-.168c-.616 0-1.108.276-1.476.828-.36.552-.54 1.376-.54 2.472h.072c.152-.328.388-.604.708-.828.32-.232.728-.348 1.224-.348.296 0 .588.052.876.156.296.104.556.26.78.468.224.208.404.464.54.768.144.304.216.656.216 1.056 0 .368-.06.712-.18 1.032-.112.32-.28.6-.504.84-.224.232-.5.416-.828.552-.328.136-.7.204-1.116.204Zm.012-.888c.504 0 .892-.156 1.164-.468.272-.32.408-.724.408-1.212 0-.504-.14-.9-.42-1.188-.272-.296-.656-.444-1.152-.444-.496 0-.884.148-1.164.444-.28.288-.42.684-.42 1.188 0 .488.136.892.408 1.212.28.312.672.468 1.176.468Zm4.472-5.184h.912v1.212h.072c.072-.2.172-.384.3-.552.136-.168.292-.312.468-.432.184-.12.384-.212.6-.276.224-.064.456-.096.696-.096.392 0 .748.08 1.068.24.328.152.608.368.84.648.232.272.408.6.528.984.128.384.192.8.192 1.248 0 .448-.064.864-.192 1.248a2.91 2.91 0 0 1-.528.984 2.458 2.458 0 0 1-1.908.864c-.488 0-.908-.116-1.26-.348a1.97 1.97 0 0 1-.756-.888h-.072v3.312h-.96V6.072Zm2.808 5.208c.264 0 .508-.044.732-.132.232-.096.432-.236.6-.42.176-.192.312-.428.408-.708.096-.28.144-.608.144-.984s-.048-.704-.144-.984a1.865 1.865 0 0 0-.408-.696 1.49 1.49 0 0 0-.6-.42 1.839 1.839 0 0 0-.732-.144c-.256 0-.496.048-.72.144-.224.088-.42.228-.588.42-.168.184-.3.416-.396.696-.096.28-.144.608-.144.984s.048.704.144.984c.096.28.228.516.396.708.168.184.364.324.588.42.224.088.464.132.72.132Zm5.651-2.292-1.98-2.916h1.152l1.404 2.22h.048l1.452-2.22h1.032l-1.98 2.868 2.076 3.06h-1.152l-1.5-2.364h-.048L130.826 12h-1.032l2.076-3.012Z" fill="#425457"/>
  <path opacity=".5" fill="#C1DADE" d="M114 20h16v100h-16z"/>
</svg>
