<svg width="280" height="69" viewBox="0 0 280 69" fill="none" xmlns="http://www.w3.org/2000/svg">
<g clip-path="url(#clip0_9315_7482)">
<path fill-rule="evenodd" clip-rule="evenodd" d="M163.5 12.9966C161.788 12.9966 160.076 13.0051 158.363 12.9866C156.724 12.9686 154.89 12.9431 153.295 12.3416C151.572 11.6916 150.431 10.555 149.283 9.2175C148.457 8.25548 146.834 6.20294 146.044 5.21192C145.397 4.3994 144.131 2.79337 143.439 2.01635C142.569 1.03883 141.494 -0.000192659 140 -0.000192789C138.505 -0.00019292 137.43 1.03883 136.561 2.01535C135.869 2.79187 134.603 4.3989 133.956 5.21092C133.167 6.20194 131.544 8.25448 130.717 9.2165C129.567 10.554 128.428 11.6906 126.706 12.3406C125.11 12.9406 123.275 12.9676 121.637 12.9856C119.924 13.0041 118.212 12.9956 116.5 12.9956" fill="#2B2A28"/>
<path d="M0 20.9985C0 16.5803 3.58172 12.9985 8 12.9985H272C276.418 12.9985 280 16.5803 280 20.9985V60.9985C280 65.4168 276.418 68.9985 272 68.9985H8C3.58172 68.9985 0 65.4168 0 60.9985V20.9985Z" fill="#2B2A28"/>
<path d="M14.814 35.9985V28.4245H12.294V26.8985H19.224V28.4245H16.69V35.9985H14.814ZM20.4435 35.9985V29.0825H22.2075V35.9985H20.4435ZM21.3395 28.1725C21.0035 28.1725 20.7469 28.0699 20.5695 27.8645C20.3922 27.6592 20.3035 27.4259 20.3035 27.1645C20.3035 26.8939 20.3922 26.6605 20.5695 26.4645C20.7469 26.2592 21.0035 26.1565 21.3395 26.1565C21.6662 26.1565 21.9182 26.2592 22.0955 26.4645C22.2822 26.6605 22.3755 26.8939 22.3755 27.1645C22.3755 27.4259 22.2822 27.6592 22.0955 27.8645C21.9182 28.0699 21.6662 28.1725 21.3395 28.1725ZM26.7266 36.1525C26.2226 36.1525 25.8072 36.0639 25.4806 35.8865C25.1539 35.6999 24.9112 35.4245 24.7526 35.0605C24.6032 34.6872 24.5286 34.2252 24.5286 33.6745V30.4965H23.4366V29.0825H24.5286V27.2065H26.2786V29.0825H28.2946V30.4965H26.2786V33.6605C26.2786 34.0245 26.3439 34.2859 26.4746 34.4445C26.6146 34.5939 26.8106 34.6685 27.0626 34.6685C27.2399 34.6685 27.4032 34.6359 27.5526 34.5705C27.7112 34.4959 27.8466 34.4072 27.9586 34.3045L28.5886 35.5085C28.3646 35.7325 28.0986 35.8959 27.7906 35.9985C27.4826 36.1012 27.1279 36.1525 26.7266 36.1525ZM29.7814 35.9985V25.8485H31.5454V35.9985H29.7814ZM36.4005 36.1665C35.6351 36.1665 34.9911 36.0032 34.4685 35.6765C33.9551 35.3499 33.5678 34.9159 33.3065 34.3745C33.0545 33.8239 32.9285 33.2125 32.9285 32.5405C32.9285 32.0272 32.9985 31.5512 33.1385 31.1125C33.2785 30.6645 33.4838 30.2772 33.7545 29.9505C34.0345 29.6239 34.3845 29.3719 34.8045 29.1945C35.2245 29.0079 35.7191 28.9145 36.2885 28.9145C36.8485 28.9145 37.3338 29.0032 37.7445 29.1805C38.1645 29.3579 38.5098 29.6099 38.7805 29.9365C39.0605 30.2539 39.2658 30.6272 39.3965 31.0565C39.5365 31.4859 39.6065 31.9572 39.6065 32.4705C39.6065 32.5639 39.5971 32.6759 39.5785 32.8065C39.5691 32.9279 39.5551 33.0212 39.5365 33.0865H34.7205C34.7485 33.4225 34.8511 33.7119 35.0285 33.9545C35.2058 34.1972 35.4251 34.3839 35.6865 34.5145C35.9478 34.6359 36.2185 34.6965 36.4985 34.6965C36.8905 34.6965 37.2218 34.6265 37.4925 34.4865C37.7725 34.3465 37.9965 34.1692 38.1645 33.9545L39.1585 34.9905C38.9065 35.3359 38.5425 35.6205 38.0665 35.8445C37.5998 36.0592 37.0445 36.1665 36.4005 36.1665ZM36.2885 30.2585C35.9898 30.2585 35.7238 30.3285 35.4905 30.4685C35.2665 30.5992 35.0845 30.7812 34.9445 31.0145C34.8138 31.2479 34.7345 31.5232 34.7065 31.8405H37.8425C37.8145 31.5232 37.7305 31.2479 37.5905 31.0145C37.4598 30.7812 37.2825 30.5992 37.0585 30.4685C36.8345 30.3285 36.5778 30.2585 36.2885 30.2585Z" fill="white" fill-opacity="0.9"/>
<path d="M13.288 55.9985V46.8985H16.242C16.7367 46.8985 17.166 46.9919 17.53 47.1785C17.9033 47.3652 18.1927 47.6359 18.398 47.9905C18.6033 48.3452 18.706 48.7745 18.706 49.2785C18.706 49.5959 18.6407 49.8899 18.51 50.1605C18.3887 50.4312 18.216 50.6599 17.992 50.8465C17.768 51.0332 17.5113 51.1639 17.222 51.2385V51.3225C17.53 51.3692 17.824 51.4952 18.104 51.7005C18.3933 51.8965 18.6267 52.1532 18.804 52.4705C18.9907 52.7879 19.084 53.1472 19.084 53.5485C19.084 54.0432 18.9627 54.4772 18.72 54.8505C18.4867 55.2145 18.1693 55.4992 17.768 55.7045C17.3667 55.9005 16.9093 55.9985 16.396 55.9985H13.288ZM14.478 50.8885H16.102C16.382 50.8885 16.6247 50.8279 16.83 50.7065C17.0447 50.5852 17.208 50.4125 17.32 50.1885C17.432 49.9552 17.488 49.6892 17.488 49.3905C17.488 48.9239 17.362 48.5599 17.11 48.2985C16.858 48.0279 16.5267 47.8925 16.116 47.8925H14.478V50.8885ZM14.478 55.0045H16.382C16.69 55.0045 16.9513 54.9392 17.166 54.8085C17.39 54.6779 17.5627 54.4959 17.684 54.2625C17.8053 54.0292 17.866 53.7585 17.866 53.4505C17.866 52.9559 17.7307 52.5685 17.46 52.2885C17.1987 52.0085 16.8393 51.8685 16.382 51.8685H14.478V55.0045ZM23.8223 56.1665C23.085 56.1665 22.469 56.0032 21.9743 55.6765C21.489 55.3499 21.125 54.9112 20.8823 54.3605C20.6397 53.8099 20.5183 53.2032 20.5183 52.5405C20.5183 52.0365 20.5837 51.5652 20.7143 51.1265C20.8543 50.6879 21.0597 50.3052 21.3303 49.9785C21.6103 49.6425 21.9557 49.3812 22.3663 49.1945C22.7863 49.0079 23.2717 48.9145 23.8223 48.9145C24.5597 48.9145 25.1663 49.0779 25.6423 49.4045C26.1277 49.7312 26.487 50.1699 26.7203 50.7205C26.963 51.2619 27.0843 51.8685 27.0843 52.5405C27.0843 53.0445 27.0143 53.5159 26.8743 53.9545C26.7437 54.3932 26.543 54.7805 26.2723 55.1165C26.0017 55.4432 25.661 55.6999 25.2503 55.8865C24.849 56.0732 24.373 56.1665 23.8223 56.1665ZM21.6663 52.5405C21.6663 53.0725 21.7457 53.5439 21.9043 53.9545C22.063 54.3559 22.301 54.6732 22.6183 54.9065C22.9357 55.1305 23.337 55.2425 23.8223 55.2425C24.2983 55.2425 24.6903 55.1305 24.9983 54.9065C25.3157 54.6732 25.549 54.3559 25.6983 53.9545C25.857 53.5439 25.9363 53.0725 25.9363 52.5405C25.9363 52.0085 25.857 51.5419 25.6983 51.1405C25.549 50.7299 25.3157 50.4125 24.9983 50.1885C24.6903 49.9552 24.2983 49.8385 23.8223 49.8385C23.337 49.8385 22.9357 49.9552 22.6183 50.1885C22.301 50.4125 22.063 50.7299 21.9043 51.1405C21.7457 51.5419 21.6663 52.0085 21.6663 52.5405ZM31.3773 56.1665C30.7613 56.1665 30.2246 56.0079 29.7673 55.6905C29.31 55.3732 28.9506 54.9439 28.6893 54.4025C28.4373 53.8519 28.3113 53.2265 28.3113 52.5265C28.3113 51.8265 28.4373 51.2059 28.6893 50.6645C28.9506 50.1139 29.31 49.6845 29.7673 49.3765C30.2246 49.0685 30.7613 48.9145 31.3773 48.9145C31.9466 48.9145 32.4366 49.0499 32.8473 49.3205C33.258 49.5912 33.552 49.9365 33.7293 50.3565H33.8133V45.8485H34.9333V55.9985H33.8693V54.5845H33.7853C33.6266 55.0605 33.328 55.4432 32.8893 55.7325C32.4506 56.0219 31.9466 56.1665 31.3773 56.1665ZM31.6573 55.1585C32.0586 55.1585 32.418 55.0652 32.7353 54.8785C33.062 54.6825 33.3233 54.3885 33.5193 53.9965C33.7153 53.6045 33.8133 53.1192 33.8133 52.5405C33.8133 51.9525 33.7153 51.4672 33.5193 51.0845C33.3233 50.6925 33.062 50.4032 32.7353 50.2165C32.418 50.0205 32.0586 49.9225 31.6573 49.9225C31.2466 49.9225 30.8733 50.0205 30.5373 50.2165C30.2106 50.4032 29.9493 50.6925 29.7533 51.0845C29.5573 51.4672 29.4593 51.9525 29.4593 52.5405C29.4593 53.1192 29.5573 53.6045 29.7533 53.9965C29.9493 54.3885 30.2106 54.6825 30.5373 54.8785C30.8733 55.0652 31.2466 55.1585 31.6573 55.1585ZM37.7412 58.6445C37.6479 58.6445 37.5452 58.6352 37.4332 58.6165C37.3212 58.6072 37.2279 58.5932 37.1532 58.5745V57.6085C37.1999 57.6179 37.2745 57.6272 37.3772 57.6365C37.4892 57.6459 37.5919 57.6505 37.6852 57.6505C37.9372 57.6505 38.1425 57.6179 38.3012 57.5525C38.4599 57.4965 38.6045 57.3659 38.7352 57.1605C38.8659 56.9552 39.0105 56.6425 39.1692 56.2225L36.3972 49.0825H37.6152L39.7012 54.8785H39.7852L41.8852 49.0825H43.0192L40.3032 56.0685C40.0699 56.6752 39.8412 57.1652 39.6172 57.5385C39.3932 57.9212 39.1365 58.2012 38.8472 58.3785C38.5579 58.5559 38.1892 58.6445 37.7412 58.6445Z" fill="white" fill-opacity="0.9"/>
<path d="M266.835 25.0049L262 29.8393L257.166 25.0049L256.006 26.1643L260.841 30.9987L256.006 35.8331L257.166 36.9924L262 32.158L266.835 36.9924L267.994 35.8331L263.16 30.9987L267.994 26.1643L266.835 25.0049Z" fill="#EBEBF5" fill-opacity="0.3"/>
</g>
<defs>
<clipPath id="clip0_9315_7482">
<rect width="280" height="68.9987" fill="white"/>
</clipPath>
</defs>
</svg>
