<svg width="482" height="167" viewBox="0 0 482 167" fill="none" xmlns="http://www.w3.org/2000/svg">
<path opacity="0.15" d="M0 16C0 7.16344 7.16344 0 16 0H466C474.837 0 482 7.16344 482 16V151C482 159.837 474.837 167 466 167H16C7.16344 167 0 159.837 0 151V16Z" fill="#F36805"/>
<g clip-path="url(#clip0_9315_7548)">
<path fill-rule="evenodd" clip-rule="evenodd" d="M160 37.7456C158.288 37.7456 156.576 37.7541 154.863 37.7356C153.224 37.7176 151.39 37.6921 149.795 37.0906C148.072 36.4406 146.931 35.3041 145.783 33.9665C144.957 33.0045 143.334 30.952 142.544 29.9609C141.897 29.1484 140.631 27.5424 139.939 26.7654C139.069 25.7879 137.994 24.7488 136.5 24.7488C135.005 24.7488 133.93 25.7879 133.061 26.7644C132.369 27.5409 131.103 29.1479 130.456 29.9599C129.667 30.951 128.044 33.0035 127.217 33.9655C126.067 35.3031 124.928 36.4396 123.206 37.0896C121.61 37.6896 119.775 37.7166 118.137 37.7346C116.424 37.7531 114.712 37.7446 113 37.7446" fill="#2B2A28"/>
<path d="M113 45.7476C113 41.3293 116.582 37.7476 121 37.7476H361C365.418 37.7476 369 41.3293 369 45.7476V134.748C369 139.166 365.418 142.748 361 142.748H121C116.582 142.748 113 139.166 113 134.748V45.7476Z" fill="#2B2A28"/>
<path d="M127.814 60.7476V53.1736H125.294V51.6476H132.224V53.1736H129.69V60.7476H127.814ZM133.444 60.7476V53.8316H135.208V60.7476H133.444ZM134.34 52.9216C134.004 52.9216 133.747 52.8189 133.57 52.6136C133.392 52.4082 133.304 52.1749 133.304 51.9136C133.304 51.6429 133.392 51.4096 133.57 51.2136C133.747 51.0082 134.004 50.9056 134.34 50.9056C134.666 50.9056 134.918 51.0082 135.096 51.2136C135.282 51.4096 135.376 51.6429 135.376 51.9136C135.376 52.1749 135.282 52.4082 135.096 52.6136C134.918 52.8189 134.666 52.9216 134.34 52.9216ZM139.727 60.9016C139.223 60.9016 138.807 60.8129 138.481 60.6356C138.154 60.4489 137.911 60.1736 137.753 59.8096C137.603 59.4362 137.529 58.9742 137.529 58.4236V55.2456H136.437V53.8316H137.529V51.9556H139.279V53.8316H141.295V55.2456H139.279V58.4096C139.279 58.7736 139.344 59.0349 139.475 59.1936C139.615 59.3429 139.811 59.4176 140.063 59.4176C140.24 59.4176 140.403 59.3849 140.553 59.3196C140.711 59.2449 140.847 59.1562 140.959 59.0536L141.589 60.2576C141.365 60.4816 141.099 60.6449 140.791 60.7476C140.483 60.8502 140.128 60.9016 139.727 60.9016ZM142.781 60.7476V50.5976H144.545V60.7476H142.781ZM149.4 60.9156C148.635 60.9156 147.991 60.7522 147.468 60.4256C146.955 60.0989 146.568 59.6649 146.306 59.1236C146.054 58.5729 145.928 57.9616 145.928 57.2896C145.928 56.7762 145.998 56.3002 146.138 55.8616C146.278 55.4136 146.484 55.0262 146.754 54.6996C147.034 54.3729 147.384 54.1209 147.804 53.9436C148.224 53.7569 148.719 53.6636 149.288 53.6636C149.848 53.6636 150.334 53.7522 150.744 53.9296C151.164 54.1069 151.51 54.3589 151.78 54.6856C152.06 55.0029 152.266 55.3762 152.396 55.8056C152.536 56.2349 152.606 56.7062 152.606 57.2196C152.606 57.3129 152.597 57.4249 152.578 57.5556C152.569 57.6769 152.555 57.7702 152.536 57.8356H147.72C147.748 58.1716 147.851 58.4609 148.028 58.7036C148.206 58.9462 148.425 59.1329 148.686 59.2636C148.948 59.3849 149.218 59.4456 149.498 59.4456C149.89 59.4456 150.222 59.3756 150.492 59.2356C150.772 59.0956 150.996 58.9182 151.164 58.7036L152.158 59.7396C151.906 60.0849 151.542 60.3696 151.066 60.5936C150.6 60.8082 150.044 60.9156 149.4 60.9156ZM149.288 55.0076C148.99 55.0076 148.724 55.0776 148.49 55.2176C148.266 55.3482 148.084 55.5302 147.944 55.7636C147.814 55.9969 147.734 56.2722 147.706 56.5896H150.842C150.814 56.2722 150.73 55.9969 150.59 55.7636C150.46 55.5302 150.282 55.3482 150.058 55.2176C149.834 55.0776 149.578 55.0076 149.288 55.0076Z" fill="white" fill-opacity="0.9"/>
<path d="M126.288 80.7476V71.6476H129.242C129.737 71.6476 130.166 71.7409 130.53 71.9276C130.903 72.1142 131.193 72.3849 131.398 72.7396C131.603 73.0942 131.706 73.5236 131.706 74.0276C131.706 74.3449 131.641 74.6389 131.51 74.9096C131.389 75.1802 131.216 75.4089 130.992 75.5956C130.768 75.7822 130.511 75.9129 130.222 75.9876V76.0716C130.53 76.1182 130.824 76.2442 131.104 76.4496C131.393 76.6456 131.627 76.9022 131.804 77.2196C131.991 77.5369 132.084 77.8962 132.084 78.2976C132.084 78.7922 131.963 79.2262 131.72 79.5996C131.487 79.9636 131.169 80.2482 130.768 80.4536C130.367 80.6496 129.909 80.7476 129.396 80.7476H126.288ZM127.478 75.6376H129.102C129.382 75.6376 129.625 75.5769 129.83 75.4556C130.045 75.3342 130.208 75.1616 130.32 74.9376C130.432 74.7042 130.488 74.4382 130.488 74.1396C130.488 73.6729 130.362 73.3089 130.11 73.0476C129.858 72.7769 129.527 72.6416 129.116 72.6416H127.478V75.6376ZM127.478 79.7536H129.382C129.69 79.7536 129.951 79.6882 130.166 79.5576C130.39 79.4269 130.563 79.2449 130.684 79.0116C130.805 78.7782 130.866 78.5076 130.866 78.1996C130.866 77.7049 130.731 77.3176 130.46 77.0376C130.199 76.7576 129.839 76.6176 129.382 76.6176H127.478V79.7536ZM136.822 80.9156C136.085 80.9156 135.469 80.7522 134.974 80.4256C134.489 80.0989 134.125 79.6602 133.882 79.1096C133.64 78.5589 133.518 77.9522 133.518 77.2896C133.518 76.7856 133.584 76.3142 133.714 75.8756C133.854 75.4369 134.06 75.0542 134.33 74.7276C134.61 74.3916 134.956 74.1302 135.366 73.9436C135.786 73.7569 136.272 73.6636 136.822 73.6636C137.56 73.6636 138.166 73.8269 138.642 74.1536C139.128 74.4802 139.487 74.9189 139.72 75.4696C139.963 76.0109 140.084 76.6176 140.084 77.2896C140.084 77.7936 140.014 78.2649 139.874 78.7036C139.744 79.1422 139.543 79.5296 139.272 79.8656C139.002 80.1922 138.661 80.4489 138.25 80.6356C137.849 80.8222 137.373 80.9156 136.822 80.9156ZM134.666 77.2896C134.666 77.8216 134.746 78.2929 134.904 78.7036C135.063 79.1049 135.301 79.4222 135.618 79.6556C135.936 79.8796 136.337 79.9916 136.822 79.9916C137.298 79.9916 137.69 79.8796 137.998 79.6556C138.316 79.4222 138.549 79.1049 138.698 78.7036C138.857 78.2929 138.936 77.8216 138.936 77.2896C138.936 76.7576 138.857 76.2909 138.698 75.8896C138.549 75.4789 138.316 75.1616 137.998 74.9376C137.69 74.7042 137.298 74.5876 136.822 74.5876C136.337 74.5876 135.936 74.7042 135.618 74.9376C135.301 75.1616 135.063 75.4789 134.904 75.8896C134.746 76.2909 134.666 76.7576 134.666 77.2896ZM144.377 80.9156C143.761 80.9156 143.225 80.7569 142.767 80.4396C142.31 80.1222 141.951 79.6929 141.689 79.1516C141.437 78.6009 141.311 77.9756 141.311 77.2756C141.311 76.5756 141.437 75.9549 141.689 75.4136C141.951 74.8629 142.31 74.4336 142.767 74.1256C143.225 73.8176 143.761 73.6636 144.377 73.6636C144.947 73.6636 145.437 73.7989 145.847 74.0696C146.258 74.3402 146.552 74.6856 146.729 75.1056H146.813V70.5976H147.933V80.7476H146.869V79.3336H146.785C146.627 79.8096 146.328 80.1922 145.889 80.4816C145.451 80.7709 144.947 80.9156 144.377 80.9156ZM144.657 79.9076C145.059 79.9076 145.418 79.8142 145.735 79.6276C146.062 79.4316 146.323 79.1376 146.519 78.7456C146.715 78.3536 146.813 77.8682 146.813 77.2896C146.813 76.7016 146.715 76.2162 146.519 75.8336C146.323 75.4416 146.062 75.1522 145.735 74.9656C145.418 74.7696 145.059 74.6716 144.657 74.6716C144.247 74.6716 143.873 74.7696 143.537 74.9656C143.211 75.1522 142.949 75.4416 142.753 75.8336C142.557 76.2162 142.459 76.7016 142.459 77.2896C142.459 77.8682 142.557 78.3536 142.753 78.7456C142.949 79.1376 143.211 79.4316 143.537 79.6276C143.873 79.8142 144.247 79.9076 144.657 79.9076ZM150.741 83.3936C150.648 83.3936 150.545 83.3842 150.433 83.3656C150.321 83.3562 150.228 83.3422 150.153 83.3236V82.3576C150.2 82.3669 150.275 82.3762 150.377 82.3856C150.489 82.3949 150.592 82.3996 150.685 82.3996C150.937 82.3996 151.143 82.3669 151.301 82.3016C151.46 82.2456 151.605 82.1149 151.735 81.9096C151.866 81.7042 152.011 81.3916 152.169 80.9716L149.397 73.8316H150.615L152.701 79.6276H152.785L154.885 73.8316H156.019L153.303 80.8176C153.07 81.4242 152.841 81.9142 152.617 82.2876C152.393 82.6702 152.137 82.9502 151.847 83.1276C151.558 83.3049 151.189 83.3936 150.741 83.3936Z" fill="white" fill-opacity="0.9"/>
<path d="M355.835 49.7539L351 54.5883L346.166 49.7539L345.006 50.9133L349.841 55.7477L345.006 60.5821L346.166 61.7415L351 56.9071L355.835 61.7415L356.994 60.5821L352.16 55.7477L356.994 50.9133L355.835 49.7539Z" fill="#EBEBF5" fill-opacity="0.3"/>
<rect width="268" height="1" transform="translate(125 97.7476)" fill="white" fill-opacity="0.2"/>
<path d="M125.238 125.748L128.598 116.648H130.908L134.282 125.748H132.294L131.678 124.04H127.758L127.142 125.748H125.238ZM129.662 118.398L128.29 122.556H131.146L129.746 118.398H129.662ZM138.188 125.916C137.404 125.916 136.76 125.748 136.256 125.412C135.761 125.066 135.397 124.618 135.164 124.068C134.94 123.508 134.828 122.915 134.828 122.29C134.828 121.655 134.94 121.062 135.164 120.512C135.388 119.961 135.747 119.518 136.242 119.182C136.736 118.836 137.366 118.664 138.132 118.664C138.701 118.664 139.191 118.766 139.602 118.972C140.012 119.177 140.348 119.438 140.61 119.756L139.434 120.82C139.275 120.633 139.098 120.484 138.902 120.372C138.706 120.26 138.458 120.204 138.16 120.204C137.842 120.204 137.567 120.288 137.334 120.456C137.11 120.624 136.932 120.862 136.802 121.17C136.68 121.478 136.62 121.851 136.62 122.29C136.62 122.934 136.76 123.442 137.04 123.816C137.329 124.189 137.712 124.376 138.188 124.376C138.477 124.376 138.729 124.32 138.944 124.208C139.158 124.096 139.345 123.937 139.504 123.732L140.666 124.81C140.404 125.127 140.064 125.393 139.644 125.608C139.224 125.813 138.738 125.916 138.188 125.916ZM144.539 125.902C144.035 125.902 143.62 125.813 143.293 125.636C142.966 125.449 142.724 125.174 142.565 124.81C142.416 124.436 142.341 123.974 142.341 123.424V120.246H141.249V118.832H142.341V116.956H144.091V118.832H146.107V120.246H144.091V123.41C144.091 123.774 144.156 124.035 144.287 124.194C144.427 124.343 144.623 124.418 144.875 124.418C145.052 124.418 145.216 124.385 145.365 124.32C145.524 124.245 145.659 124.156 145.771 124.054L146.401 125.258C146.177 125.482 145.911 125.645 145.603 125.748C145.295 125.85 144.94 125.902 144.539 125.902ZM147.594 125.748V118.832H149.358V125.748H147.594ZM148.49 117.922C148.154 117.922 147.897 117.819 147.72 117.614C147.543 117.408 147.454 117.175 147.454 116.914C147.454 116.643 147.543 116.41 147.72 116.214C147.897 116.008 148.154 115.906 148.49 115.906C148.817 115.906 149.069 116.008 149.246 116.214C149.433 116.41 149.526 116.643 149.526 116.914C149.526 117.175 149.433 117.408 149.246 117.614C149.069 117.819 148.817 117.922 148.49 117.922ZM154.227 125.916C153.462 125.916 152.818 125.752 152.295 125.426C151.782 125.09 151.394 124.646 151.133 124.096C150.872 123.545 150.741 122.943 150.741 122.29C150.741 121.795 150.816 121.328 150.965 120.89C151.114 120.451 151.334 120.068 151.623 119.742C151.912 119.406 152.272 119.144 152.701 118.958C153.14 118.762 153.648 118.664 154.227 118.664C155.002 118.664 155.641 118.832 156.145 119.168C156.658 119.494 157.041 119.933 157.293 120.484C157.554 121.025 157.685 121.627 157.685 122.29C157.685 122.784 157.61 123.251 157.461 123.69C157.321 124.128 157.106 124.516 156.817 124.852C156.528 125.178 156.168 125.44 155.739 125.636C155.31 125.822 154.806 125.916 154.227 125.916ZM152.547 122.29C152.547 122.738 152.612 123.13 152.743 123.466C152.883 123.792 153.074 124.044 153.317 124.222C153.569 124.399 153.872 124.488 154.227 124.488C154.582 124.488 154.88 124.399 155.123 124.222C155.366 124.044 155.552 123.792 155.683 123.466C155.823 123.13 155.893 122.738 155.893 122.29C155.893 121.832 155.823 121.44 155.683 121.114C155.552 120.787 155.366 120.535 155.123 120.358C154.88 120.18 154.582 120.092 154.227 120.092C153.872 120.092 153.569 120.18 153.317 120.358C153.074 120.535 152.883 120.787 152.743 121.114C152.612 121.44 152.547 121.832 152.547 122.29ZM159.051 125.748V118.832H160.717V119.952H160.801C160.904 119.709 161.048 119.49 161.235 119.294C161.431 119.098 161.66 118.944 161.921 118.832C162.182 118.72 162.467 118.664 162.775 118.664C163.643 118.664 164.273 118.897 164.665 119.364C165.057 119.821 165.253 120.516 165.253 121.45V125.748H163.489V121.8C163.489 121.249 163.386 120.838 163.181 120.568C162.976 120.288 162.64 120.148 162.173 120.148C161.725 120.148 161.384 120.297 161.151 120.596C160.927 120.885 160.815 121.31 160.815 121.87V125.748H159.051Z" fill="white" fill-opacity="0.9"/>
</g>
<path opacity="0.2" d="M341 45.5H361V65.5H341V45.5Z" fill="#F36805"/>
<path opacity="0.2" d="M125 110.5H166V130.5H125V110.5Z" fill="#F36805"/>
<defs>
<clipPath id="clip0_9315_7548">
<rect width="256" height="117.999" fill="white" transform="translate(113 24.749)"/>
</clipPath>
</defs>
</svg>
