<svg width="256" height="56" viewBox="0 0 256 56" fill="none" xmlns="http://www.w3.org/2000/svg">
<g clip-path="url(#clip0_9315_7346)">
<path fill-rule="evenodd" clip-rule="evenodd" d="M12.9966 4.5C12.9966 6.21249 13.0051 7.92448 12.9866 9.63697C12.9686 11.276 12.9431 13.1104 12.3416 14.7055C11.6916 16.4284 10.555 17.5691 9.2175 18.7168C8.25548 19.543 6.20294 21.166 5.21192 21.9563C4.3994 22.6031 2.79337 23.8692 2.01635 24.5605C1.03883 25.4308 -0.000191697 26.5064 -0.000191762 28.0005C-0.000191827 29.4946 1.03883 30.5697 2.01535 31.4395C2.79187 32.1308 4.3989 33.3969 5.21092 34.0442C6.20194 34.8335 8.25448 36.4565 9.2165 37.2832C10.554 38.4329 11.6906 39.5716 12.3406 41.294C12.9406 42.8896 12.9676 44.7245 12.9856 46.3625C13.0041 48.0755 12.9956 49.7875 12.9956 51.5" fill="#2B2A28"/>
<path d="M12.9985 8C12.9985 3.58172 16.5803 0 20.9985 0H248C252.418 0 256 3.58172 256 8V48C256 52.4183 252.418 56 248 56H20.9985C16.5803 56 12.9985 52.4183 12.9985 48V8Z" fill="#2B2A28"/>
<path d="M27.8125 23V15.426H25.2925V13.9H32.2225V15.426H29.6885V23H27.8125ZM33.4421 23V16.084H35.2061V23H33.4421ZM34.3381 15.174C34.0021 15.174 33.7454 15.0713 33.5681 14.866C33.3907 14.6607 33.3021 14.4273 33.3021 14.166C33.3021 13.8953 33.3907 13.662 33.5681 13.466C33.7454 13.2607 34.0021 13.158 34.3381 13.158C34.6647 13.158 34.9167 13.2607 35.0941 13.466C35.2807 13.662 35.3741 13.8953 35.3741 14.166C35.3741 14.4273 35.2807 14.6607 35.0941 14.866C34.9167 15.0713 34.6647 15.174 34.3381 15.174ZM39.7251 23.154C39.2211 23.154 38.8058 23.0653 38.4791 22.888C38.1524 22.7013 37.9098 22.426 37.7511 22.062C37.6018 21.6887 37.5271 21.2267 37.5271 20.676V17.498H36.4351V16.084H37.5271V14.208H39.2771V16.084H41.2931V17.498H39.2771V20.662C39.2771 21.026 39.3424 21.2873 39.4731 21.446C39.6131 21.5953 39.8091 21.67 40.0611 21.67C40.2384 21.67 40.4018 21.6373 40.5511 21.572C40.7098 21.4973 40.8451 21.4087 40.9571 21.306L41.5871 22.51C41.3631 22.734 41.0971 22.8973 40.7891 23C40.4811 23.1027 40.1264 23.154 39.7251 23.154ZM42.78 23V12.85H44.544V23H42.78ZM49.399 23.168C48.6337 23.168 47.9897 23.0047 47.467 22.678C46.9537 22.3513 46.5663 21.9173 46.305 21.376C46.053 20.8253 45.927 20.214 45.927 19.542C45.927 19.0287 45.997 18.5527 46.137 18.114C46.277 17.666 46.4823 17.2787 46.753 16.952C47.033 16.6253 47.383 16.3733 47.803 16.196C48.223 16.0093 48.7177 15.916 49.287 15.916C49.847 15.916 50.3323 16.0047 50.743 16.182C51.163 16.3593 51.5083 16.6113 51.779 16.938C52.059 17.2553 52.2643 17.6287 52.395 18.058C52.535 18.4873 52.605 18.9587 52.605 19.472C52.605 19.5653 52.5957 19.6773 52.577 19.808C52.5677 19.9293 52.5537 20.0227 52.535 20.088H47.719C47.747 20.424 47.8497 20.7133 48.027 20.956C48.2043 21.1987 48.4237 21.3853 48.685 21.516C48.9463 21.6373 49.217 21.698 49.497 21.698C49.889 21.698 50.2203 21.628 50.491 21.488C50.771 21.348 50.995 21.1707 51.163 20.956L52.157 21.992C51.905 22.3373 51.541 22.622 51.065 22.846C50.5983 23.0607 50.043 23.168 49.399 23.168ZM49.287 17.26C48.9883 17.26 48.7223 17.33 48.489 17.47C48.265 17.6007 48.083 17.7827 47.943 18.016C47.8123 18.2493 47.733 18.5247 47.705 18.842H50.841C50.813 18.5247 50.729 18.2493 50.589 18.016C50.4583 17.7827 50.281 17.6007 50.057 17.47C49.833 17.33 49.5763 17.26 49.287 17.26Z" fill="white" fill-opacity="0.9"/>
<path d="M26.2865 43V33.9H29.2405C29.7352 33.9 30.1645 33.9933 30.5285 34.18C30.9019 34.3667 31.1912 34.6373 31.3965 34.992C31.6019 35.3467 31.7045 35.776 31.7045 36.28C31.7045 36.5973 31.6392 36.8913 31.5085 37.162C31.3872 37.4327 31.2145 37.6613 30.9905 37.848C30.7665 38.0347 30.5099 38.1653 30.2205 38.24V38.324C30.5285 38.3707 30.8225 38.4967 31.1025 38.702C31.3919 38.898 31.6252 39.1547 31.8025 39.472C31.9892 39.7893 32.0825 40.1487 32.0825 40.55C32.0825 41.0447 31.9612 41.4787 31.7185 41.852C31.4852 42.216 31.1679 42.5007 30.7665 42.706C30.3652 42.902 29.9079 43 29.3945 43H26.2865ZM27.4765 37.89H29.1005C29.3805 37.89 29.6232 37.8293 29.8285 37.708C30.0432 37.5867 30.2065 37.414 30.3185 37.19C30.4305 36.9567 30.4865 36.6907 30.4865 36.392C30.4865 35.9253 30.3605 35.5613 30.1085 35.3C29.8565 35.0293 29.5252 34.894 29.1145 34.894H27.4765V37.89ZM27.4765 42.006H29.3805C29.6885 42.006 29.9499 41.9407 30.1645 41.81C30.3885 41.6793 30.5612 41.4973 30.6825 41.264C30.8039 41.0307 30.8645 40.76 30.8645 40.452C30.8645 39.9573 30.7292 39.57 30.4585 39.29C30.1972 39.01 29.8379 38.87 29.3805 38.87H27.4765V42.006ZM36.8209 43.168C36.0835 43.168 35.4675 43.0047 34.9729 42.678C34.4875 42.3513 34.1235 41.9127 33.8809 41.362C33.6382 40.8113 33.5169 40.2047 33.5169 39.542C33.5169 39.038 33.5822 38.5667 33.7129 38.128C33.8529 37.6893 34.0582 37.3067 34.3289 36.98C34.6089 36.644 34.9542 36.3827 35.3649 36.196C35.7849 36.0093 36.2702 35.916 36.8209 35.916C37.5582 35.916 38.1649 36.0793 38.6409 36.406C39.1262 36.7327 39.4855 37.1713 39.7189 37.722C39.9615 38.2633 40.0829 38.87 40.0829 39.542C40.0829 40.046 40.0129 40.5173 39.8729 40.956C39.7422 41.3947 39.5415 41.782 39.2709 42.118C39.0002 42.4447 38.6595 42.7013 38.2489 42.888C37.8475 43.0747 37.3715 43.168 36.8209 43.168ZM34.6649 39.542C34.6649 40.074 34.7442 40.5453 34.9029 40.956C35.0615 41.3573 35.2995 41.6747 35.6169 41.908C35.9342 42.132 36.3355 42.244 36.8209 42.244C37.2969 42.244 37.6889 42.132 37.9969 41.908C38.3142 41.6747 38.5475 41.3573 38.6969 40.956C38.8555 40.5453 38.9349 40.074 38.9349 39.542C38.9349 39.01 38.8555 38.5433 38.6969 38.142C38.5475 37.7313 38.3142 37.414 37.9969 37.19C37.6889 36.9567 37.2969 36.84 36.8209 36.84C36.3355 36.84 35.9342 36.9567 35.6169 37.19C35.2995 37.414 35.0615 37.7313 34.9029 38.142C34.7442 38.5433 34.6649 39.01 34.6649 39.542ZM44.3758 43.168C43.7598 43.168 43.2232 43.0093 42.7658 42.692C42.3085 42.3747 41.9492 41.9453 41.6878 41.404C41.4358 40.8533 41.3098 40.228 41.3098 39.528C41.3098 38.828 41.4358 38.2073 41.6878 37.666C41.9492 37.1153 42.3085 36.686 42.7658 36.378C43.2232 36.07 43.7598 35.916 44.3758 35.916C44.9452 35.916 45.4352 36.0513 45.8458 36.322C46.2565 36.5927 46.5505 36.938 46.7278 37.358H46.8118V32.85H47.9318V43H46.8678V41.586H46.7838C46.6252 42.062 46.3265 42.4447 45.8878 42.734C45.4492 43.0233 44.9452 43.168 44.3758 43.168ZM44.6558 42.16C45.0572 42.16 45.4165 42.0667 45.7338 41.88C46.0605 41.684 46.3218 41.39 46.5178 40.998C46.7138 40.606 46.8118 40.1207 46.8118 39.542C46.8118 38.954 46.7138 38.4687 46.5178 38.086C46.3218 37.694 46.0605 37.4047 45.7338 37.218C45.4165 37.022 45.0572 36.924 44.6558 36.924C44.2452 36.924 43.8718 37.022 43.5358 37.218C43.2092 37.4047 42.9478 37.694 42.7518 38.086C42.5558 38.4687 42.4578 38.954 42.4578 39.542C42.4578 40.1207 42.5558 40.606 42.7518 40.998C42.9478 41.39 43.2092 41.684 43.5358 41.88C43.8718 42.0667 44.2452 42.16 44.6558 42.16ZM50.7397 45.646C50.6464 45.646 50.5437 45.6367 50.4317 45.618C50.3197 45.6087 50.2264 45.5947 50.1517 45.576V44.61C50.1984 44.6193 50.2731 44.6287 50.3757 44.638C50.4877 44.6473 50.5904 44.652 50.6837 44.652C50.9357 44.652 51.1411 44.6193 51.2997 44.554C51.4584 44.498 51.6031 44.3673 51.7337 44.162C51.8644 43.9567 52.0091 43.644 52.1677 43.224L49.3957 36.084H50.6137L52.6997 41.88H52.7837L54.8837 36.084H56.0177L53.3017 43.07C53.0684 43.6767 52.8397 44.1667 52.6157 44.54C52.3917 44.9227 52.1351 45.2027 51.8457 45.38C51.5564 45.5573 51.1877 45.646 50.7397 45.646Z" fill="white" fill-opacity="0.9"/>
<path d="M242.835 12.0063L238 16.8407L233.166 12.0063L232.006 13.1657L236.841 18.0001L232.006 22.8345L233.166 23.9939L238 19.1595L242.835 23.9939L243.994 22.8345L239.16 18.0001L243.994 13.1657L242.835 12.0063Z" fill="#EBEBF5" fill-opacity="0.3"/>
</g>
<defs>
<clipPath id="clip0_9315_7346">
<rect width="256" height="56" fill="white"/>
</clipPath>
</defs>
</svg>
