<svg width="32" height="32" viewBox="0 0 32 32" fill="none" xmlns="http://www.w3.org/2000/svg">
<path d="M20.7785 12.8587C20.7785 12.8587 20.7435 12.7975 20.7435 12.7713C20.6473 11.66 20.4898 10.925 20.4898 10.925C20.4635 10.8025 20.3585 10.7063 20.2273 10.6888L19.3435 10.5838C19.3435 10.5838 19.326 10.5838 19.3173 10.5838C19.2123 10.5838 19.1335 10.6713 19.1335 10.7675V11.0737C19.1335 11.0737 19.1335 11.0825 19.1248 11.0825C18.591 10.6013 17.996 10.1463 17.3398 9.735C17.2173 9.6475 17.0685 9.60375 16.9023 9.60375C16.736 9.60375 16.5873 9.65625 16.4648 9.735C13.411 11.6163 11.731 14.6875 11.661 14.8537C11.6435 14.8887 11.6348 14.9325 11.6348 14.985C11.6348 15.125 11.731 15.2475 11.8623 15.2825L12.746 15.4487C12.8598 15.4837 12.956 15.58 12.9648 15.7025C12.9648 15.86 13.1398 19.325 13.3498 20.2262C13.3848 20.3575 13.4985 20.4538 13.6385 20.4538C14.1548 20.445 14.6185 20.4362 15.126 20.4275C15.126 20.4275 15.1523 20.4275 15.161 20.4275C15.2135 20.4275 15.2573 20.3838 15.2573 20.3313C15.2398 20.025 15.196 19.3337 15.1523 18.6075C15.1523 18.59 15.1523 18.5637 15.1523 18.5462C15.1523 18.485 15.1173 18.4237 15.0648 18.3975C14.8023 18.24 14.6185 17.96 14.601 17.6275C14.5573 16.4113 14.531 15.0025 14.601 13.9087C14.601 13.8212 14.6798 13.7425 14.776 13.7425C14.8723 13.7425 14.951 13.8212 14.9598 13.9175C14.9598 13.9175 14.9598 13.9263 14.9598 13.935C14.916 14.67 14.916 15.5363 14.9248 16.3938C14.9248 16.5075 15.021 16.6038 15.1348 16.6038C15.2485 16.6038 15.3448 16.5075 15.3448 16.3938C15.3273 15.5363 15.336 14.6613 15.3798 13.9263C15.3798 13.8388 15.4585 13.76 15.5548 13.76C15.651 13.76 15.7298 13.8388 15.7385 13.935C15.7385 13.935 15.7385 13.9437 15.7385 13.9525C15.6948 14.6787 15.6948 15.545 15.7035 16.3938C15.7035 16.5075 15.7998 16.6038 15.9135 16.595C16.0273 16.595 16.1235 16.4988 16.1148 16.385C16.0973 15.5275 16.106 14.6613 16.1498 13.9263C16.1498 13.8388 16.2285 13.76 16.3248 13.76C16.421 13.76 16.4998 13.8388 16.5085 13.935C16.5085 13.935 16.5085 13.9437 16.5085 13.9525C16.4473 15.02 16.4648 16.3763 16.5085 17.5663V17.575C16.5085 17.575 16.5085 17.5837 16.5085 17.5925C16.5085 17.5925 16.5085 17.5925 16.5085 17.6012C16.5085 17.925 16.3423 18.2137 16.0973 18.38C16.0535 18.415 16.0273 18.4587 16.0185 18.52C16.0185 18.52 15.9923 18.7038 16.0798 19.5875C16.1148 19.9725 16.1498 20.2437 16.1585 20.3575C16.1585 20.4012 16.2023 20.4362 16.246 20.4362C16.2723 20.4362 16.2985 20.4362 16.3335 20.4362C16.4998 20.4362 16.6748 20.4362 16.8585 20.4362H16.9285C17.156 20.4362 17.3748 20.4362 17.5848 20.4362H18.0835C18.1273 20.4362 18.171 20.4012 18.1798 20.3575C18.2935 19.2987 18.3198 18.7038 18.3198 18.7038C18.3198 18.6513 18.276 18.6075 18.2235 18.5987L17.6198 18.5113C17.5235 18.4938 17.471 18.4325 17.4448 18.3625C17.436 18.3188 17.4448 18.2663 17.4448 18.2663C17.6898 14.74 18.8535 13.55 18.8535 13.55C18.8885 13.515 18.906 13.4975 18.906 13.4975C18.941 13.4713 18.976 13.4625 19.0198 13.4625C19.0985 13.4625 19.1685 13.515 19.1948 13.585C19.1948 13.585 19.2035 13.6113 19.2123 13.6725C19.3085 14.7838 19.2648 16.6738 19.2035 18.1438C19.151 19.395 19.0898 20.375 19.0898 20.375C19.0898 20.375 19.1248 20.4538 19.1598 20.4538C19.4923 20.4538 19.816 20.4625 20.1573 20.4713C20.2973 20.4713 20.4198 20.375 20.446 20.2438C20.656 19.3425 20.8223 15.8775 20.831 15.72C20.8485 15.5975 20.936 15.4925 21.0498 15.4663L21.9335 15.3C22.0648 15.265 22.161 15.1512 22.161 15.0025C22.161 14.9587 22.1523 14.915 22.1348 14.8713C22.0998 14.7838 21.6448 13.935 20.7873 12.8763L20.7785 12.8587Z" fill="#242E30"/>
<path d="M28.2598 15.125C28.2598 8.85125 23.1585 3.75 16.8848 3.75C13.8923 3.75 11.1798 4.9225 9.14102 6.8125H9.13227L8.93102 6.99625C8.86977 7.0575 8.81727 7.11 8.75602 7.17125L7.09352 8.83375C4.94102 10.9775 3.75977 13.8387 3.75977 16.875C3.75977 19.9113 4.94102 22.7638 7.09352 24.9163C9.23727 27.06 12.0985 28.25 15.1348 28.25C18.171 28.25 21.0235 27.0688 23.176 24.9163L24.9785 23.1137C27.0085 21.0487 28.2685 18.2312 28.2685 15.1162L28.2598 15.125ZM8.32727 23.6825C6.50727 21.8625 5.50977 19.4475 5.50977 16.8838C5.50977 16.6038 5.52727 16.3237 5.55352 16.0525C5.99977 21.6087 10.4448 26.0362 16.0098 26.465C13.2623 26.71 10.436 25.7913 8.33602 23.6913L8.32727 23.6825ZM16.8848 24.75C11.5735 24.75 7.25977 20.4363 7.25977 15.125C7.25977 12.5175 8.30102 10.155 9.98977 8.4225L10.1823 8.23C11.9148 6.54125 14.2773 5.5 16.8848 5.5C22.196 5.5 26.5098 9.81375 26.5098 15.125C26.5098 20.4363 22.196 24.75 16.8848 24.75Z" fill="#242E30"/>
</svg>
