<svg width="32" height="32" viewBox="0 0 32 32" fill="none" xmlns="http://www.w3.org/2000/svg">
<path d="M28.5825 17.3125C28.5125 17.2687 28.4337 17.2425 28.3462 17.225L25.7037 16.4987C24.3825 16.14 23.1575 15.475 22.1687 14.53C22.0637 14.425 21.9587 14.32 21.8537 14.215C20.9087 13.2262 20.2437 12.0012 19.885 10.68L19.1587 8.0375C19.1325 7.95875 19.1062 7.88 19.0712 7.80125C18.8787 7.45125 18.5287 7.27625 18.1787 7.27625C17.785 7.27625 17.3825 7.495 17.225 7.94125L16.3675 10.855C16.0437 11.9575 15.51 12.9987 14.7662 13.8737C14.7137 13.935 14.6612 13.9962 14.6087 14.0487C13.5412 15.2475 12.1325 16.0875 10.5837 16.5162L8.00246 17.225C7.92371 17.2512 7.84496 17.2775 7.76621 17.3125C7.06621 17.6887 7.06621 18.7212 7.76621 19.0975C7.83621 19.1412 7.91496 19.1675 8.00246 19.185L10.5837 19.8937C12.1325 20.3225 13.5412 21.1625 14.6087 22.3612C14.6612 22.4225 14.7137 22.4837 14.7662 22.5362C15.51 23.42 16.0437 24.4525 16.3675 25.555L17.225 28.4687C17.3912 28.915 17.785 29.1337 18.1787 29.1337C18.5287 29.1337 18.8787 28.9587 19.0712 28.6087C19.115 28.5387 19.1412 28.46 19.1587 28.3725L19.885 25.73C20.2437 24.4087 20.9087 23.1837 21.8537 22.195C21.9587 22.09 22.0637 21.985 22.1687 21.88C23.1575 20.935 24.3825 20.27 25.7037 19.9112L28.3462 19.185C28.425 19.1587 28.5037 19.1325 28.5825 19.0975C29.2825 18.7212 29.2825 17.6887 28.5825 17.3125Z" fill="#242E30"/>
<path d="M7.58219 12.2637C7.73094 12.2637 7.87969 12.185 7.96719 12.0362C7.98469 12.0012 7.99344 11.975 8.00219 11.94L8.30844 10.8112C8.46594 10.2512 8.74594 9.72621 9.14844 9.30621C9.19219 9.26246 9.23594 9.21871 9.27969 9.17496C9.69969 8.77246 10.2247 8.49246 10.7847 8.33496L11.9134 8.02871C11.9134 8.02871 11.9834 8.01121 12.0097 7.99371C12.3072 7.83621 12.3072 7.38996 12.0097 7.23246C11.9747 7.21496 11.9484 7.20621 11.9134 7.19746L10.7847 6.89121C10.2247 6.73371 9.69969 6.45371 9.27969 6.05121C9.23594 6.00746 9.19219 5.96371 9.14844 5.91996C8.74594 5.49996 8.46594 4.97496 8.30844 4.41496L8.00219 3.28621C8.00219 3.28621 7.98469 3.21621 7.96719 3.18996C7.88844 3.04121 7.73969 2.96246 7.58219 2.96246C7.41594 2.96246 7.24094 3.05871 7.17094 3.24246L6.80344 4.48496C6.66344 4.95746 6.43594 5.39496 6.12094 5.77121C6.10344 5.79746 6.07719 5.82371 6.05094 5.84996C5.59594 6.35746 4.99219 6.72496 4.33594 6.89996L3.23344 7.20621C3.23344 7.20621 3.16344 7.22371 3.13719 7.24121C2.83969 7.39871 2.83969 7.84496 3.13719 8.00246C3.17219 8.01996 3.19844 8.02871 3.23344 8.03746L4.33594 8.34371C4.99219 8.52746 5.59594 8.88621 6.05094 9.39371C6.07719 9.41996 6.09469 9.44621 6.12094 9.47246C6.43594 9.84871 6.66344 10.2862 6.80344 10.7587L7.17094 12.0012C7.24094 12.1937 7.40719 12.2812 7.58219 12.2812V12.2637Z" fill="#242E30"/>
</svg>
