<svg width="16" height="16" viewBox="0 0 16 16" fill="none" xmlns="http://www.w3.org/2000/svg">
<path d="M14.6502 8.66501C14.6502 8.66501 14.5715 8.63001 14.5277 8.62126L13.1277 8.23626C12.4277 8.04376 11.7802 7.69376 11.2552 7.19501C11.194 7.14251 11.1415 7.08126 11.089 7.02876C10.5902 6.50376 10.2402 5.85626 10.0477 5.15626L9.66273 3.75626C9.66273 3.75626 9.63648 3.66876 9.61898 3.63376C9.52273 3.45001 9.33023 3.35376 9.14648 3.35376C8.93648 3.35376 8.72648 3.46751 8.63898 3.70376L8.18398 5.24376C8.00898 5.83001 7.72898 6.38126 7.33523 6.84501C7.30898 6.88001 7.28273 6.90626 7.25648 6.94126C6.68773 7.58001 5.94398 8.02626 5.12148 8.25376L3.74773 8.63001C3.74773 8.63001 3.66023 8.65626 3.62523 8.67376C3.25773 8.87501 3.25773 9.41751 3.62523 9.61876C3.66023 9.63626 3.70398 9.65376 3.74773 9.66251L5.12148 10.0387C5.94398 10.2662 6.68773 10.7125 7.25648 11.3512C7.28273 11.3862 7.30898 11.4125 7.33523 11.4475C7.72898 11.9112 8.00898 12.4625 8.18398 13.0487L8.63898 14.5887C8.72648 14.825 8.93648 14.9387 9.14648 14.9387C9.33023 14.9387 9.52273 14.8425 9.61898 14.6587C9.63648 14.6237 9.65398 14.58 9.66273 14.5362L10.0477 13.1362C10.2402 12.4362 10.5902 11.7887 11.089 11.2637C11.1415 11.2025 11.2027 11.15 11.2552 11.0975C11.7802 10.5987 12.4277 10.2487 13.1277 10.0562L14.5277 9.67126C14.5277 9.67126 14.6152 9.64501 14.6502 9.62751C15.0177 9.42626 15.0177 8.88376 14.6502 8.68251V8.66501Z" fill="#242E30"/>
<path d="M3.52043 5.98749C3.59918 5.98749 3.67793 5.94374 3.72168 5.86499C3.73043 5.84749 3.73918 5.82999 3.73918 5.81249L3.90543 5.21749C3.98418 4.91999 4.14168 4.63999 4.35168 4.42124C4.37793 4.39499 4.39543 4.36874 4.42168 4.35124C4.64918 4.14124 4.92043 3.98374 5.21793 3.90499L5.81293 3.73874C5.81293 3.73874 5.84793 3.72999 5.86543 3.72124C6.02293 3.63374 6.02293 3.40624 5.86543 3.31874C5.84793 3.30999 5.83043 3.30124 5.81293 3.30124L5.21793 3.13499C4.92043 3.05624 4.64043 2.89874 4.42168 2.68874C4.39543 2.66249 4.36918 2.64499 4.35168 2.61874C4.14168 2.39124 3.98418 2.11999 3.90543 1.82249L3.73918 1.22749C3.73918 1.22749 3.73043 1.19249 3.72168 1.17499C3.67793 1.09624 3.59918 1.05249 3.52043 1.05249C3.43293 1.05249 3.34543 1.10499 3.30168 1.20124L3.10918 1.85749C3.03918 2.11124 2.91668 2.33874 2.75043 2.53999C2.74168 2.55749 2.72418 2.56624 2.71543 2.58374C2.47043 2.85499 2.15543 3.04749 1.80543 3.14374L1.21918 3.30124C1.21918 3.30124 1.18418 3.30999 1.16668 3.31874C1.00043 3.39749 1.00043 3.63374 1.16668 3.72124C1.18418 3.72999 1.20168 3.73874 1.21918 3.73874L1.80543 3.89624C2.15543 3.99249 2.47043 4.18499 2.71543 4.45624C2.72418 4.47374 2.74168 4.48249 2.75043 4.49999C2.91668 4.70124 3.03918 4.93749 3.10918 5.18249L3.30168 5.83874C3.33668 5.93499 3.42418 5.98749 3.52043 5.98749Z" fill="#242E30"/>
</svg>
