<svg width="32" height="32" viewBox="0 0 32 32" fill="none" xmlns="http://www.w3.org/2000/svg">
<path d="M25.555 9.76125L21.6438 9.77875V4.625L19.8938 2.875H12.115L10.365 4.625V9.805L6.25254 9.8225L5.02754 26.3075C4.97504 27.0338 5.22879 27.7512 5.72754 28.285C6.22629 28.8188 6.92629 29.1162 7.64379 29.1162H24.3475C25.0738 29.1162 25.7825 28.81 26.2813 28.2763C26.78 27.7425 27.025 27.0163 26.9638 26.2812L25.555 9.7525V9.76125ZM12.1063 4.625H19.885V9.77L12.1063 9.79625V4.625ZM24.9863 27.0863C24.82 27.27 24.5925 27.3662 24.3475 27.3662H7.63504C7.39004 27.3662 7.16254 27.27 6.99629 27.0863C6.83004 26.9113 6.74254 26.675 6.76004 26.43L7.86254 11.555L23.945 11.4938L25.2138 26.4125C25.2313 26.6575 25.1525 26.8937 24.9863 27.0775V27.0863Z" fill="#242E30"/>
<path d="M17.5838 23.9538L17.7413 25.7038H23.4375L23.28 23.9538H17.5838Z" fill="#242E30"/>
</svg>
