<svg width="16" height="16" viewBox="0 0 16 16" fill="none" xmlns="http://www.w3.org/2000/svg">
<path d="M8.49872 12.3313L8.37622 11.0188H11.01L11.1325 12.3313H8.49872Z" fill="#242E30"/>
<path fill-rule="evenodd" clip-rule="evenodd" d="M11.3688 4.43001H13.1538V4.42126L13.8975 13.285C13.9325 13.705 13.7925 14.1163 13.5038 14.4313C13.2063 14.755 12.7863 14.9388 12.34 14.9388H3.66003C3.21378 14.9388 2.79378 14.755 2.49628 14.44C2.20753 14.125 2.05878 13.7225 2.09378 13.3025L2.74128 4.45626H4.63128V2.11126L5.67253 1.07001H10.3275L11.3688 2.11126V4.43001ZM10.0213 2.41751H5.97878V4.45626L10.0213 4.43876V2.41751ZM12.34 13.6263C12.445 13.6263 12.5413 13.5388 12.5413 13.5388V13.5475C12.5675 13.5125 12.5938 13.4688 12.5938 13.3988L11.9463 5.74251L3.96628 5.76876L3.40628 13.3988C3.39753 13.4688 3.43253 13.5213 3.45878 13.5475C3.46116 13.5493 3.46365 13.5512 3.46627 13.5532C3.50229 13.5806 3.56216 13.6263 3.66003 13.6263H12.34Z" fill="#242E30"/>
</svg>
