<svg width="16" height="16" viewBox="0 0 16 16" fill="none" xmlns="http://www.w3.org/2000/svg">
<path d="M14.6166 4.46733C14.0939 3.62228 13.1617 3.09085 12.1598 3.09085H3.83127C2.83812 3.09085 1.89723 3.61356 1.36581 4.47604C0.930215 5.20784 0.99991 6.1313 1.55747 6.78469L1.81012 7.08089C1.91466 7.20286 1.96693 7.35096 1.96693 7.50778L1.99306 10.9577C1.99306 12.0292 2.88168 12.9004 3.95324 12.9004H12.0379C13.1094 12.9004 13.9893 12.0292 13.998 10.9577L14.0242 8.37025C14.0242 7.25513 14.1287 7.13317 14.181 7.07218L14.4336 6.77598C14.9912 6.12259 15.0609 5.19913 14.6166 4.45862V4.46733ZM4.94639 11.6024H3.96195C3.60476 11.6024 3.30856 11.3149 3.30856 10.9577L3.28242 7.50778C3.28242 7.04605 3.10819 6.59303 2.81198 6.23584L2.55934 5.93964C2.37639 5.72184 2.35025 5.40821 2.50707 5.15557C2.79456 4.69384 3.29985 4.40635 3.8487 4.40635H6.39257C6.9327 4.40635 7.44671 4.69384 7.7342 5.16428C7.8823 5.40821 7.85616 5.72184 7.67321 5.93964L7.42057 6.23584C7.11565 6.59303 6.95013 7.03733 6.94142 7.50778L6.91528 11.6111H4.96382L4.94639 11.6024ZM13.4492 5.93964L13.1966 6.23584C13.1443 6.29682 13.1007 6.3491 13.0659 6.41008H10.705L10.2781 7.71686H12.7435C12.7348 7.90852 12.7261 8.12632 12.7261 8.37025L12.7 10.9577C12.7 11.3149 12.4038 11.6024 12.0466 11.6024H8.21335L8.23949 7.50778C8.23949 7.35096 8.30047 7.20286 8.3963 7.08089L8.64895 6.78469C9.20651 6.1313 9.2762 5.20784 8.8319 4.46733C8.81447 4.44119 8.79705 4.42377 8.77962 4.39763H12.1685C12.7087 4.39763 13.2227 4.68513 13.5102 5.15557C13.6583 5.3995 13.6321 5.71313 13.4492 5.93093V5.93964Z" fill="#242E30"/>
</svg>
