<svg width="16" height="16" viewBox="0 0 16 16" fill="none" xmlns="http://www.w3.org/2000/svg">
<path d="M12.138 7.40473L11.0092 4.15848C11.0092 4.04473 11.0092 3.93098 11.1755 3.87848L12.3742 3.43223V2.03223L10.7467 2.64473C10.553 2.70434 10.3732 2.80202 10.2177 2.93204C10.0623 3.06206 9.93431 3.2218 9.8414 3.40191C9.7485 3.58202 9.69249 3.77886 9.67665 3.98089C9.66081 4.18293 9.68547 4.3861 9.74917 4.57848L10.108 5.59348H9.74917C9.37597 5.59549 9.00824 5.68335 8.67443 5.85025C8.34063 6.01715 8.0497 6.25863 7.82417 6.55598L6.61667 8.16598L5.55792 6.03098H6.24917V4.71848H2.74917V6.03098H4.09667L4.81417 7.49223C4.57475 7.42555 4.32768 7.39026 4.07917 7.38723C3.51982 7.38723 2.97305 7.55321 2.50809 7.86415C2.04312 8.1751 1.68088 8.61701 1.46723 9.13395C1.25358 9.65089 1.19812 10.2196 1.30788 10.7681C1.41765 11.3166 1.68769 11.8202 2.08383 12.2151C2.47996 12.61 2.98437 12.8785 3.53318 12.9865C4.08199 13.0946 4.65053 13.0374 5.16681 12.8221C5.68308 12.6069 6.12387 12.2433 6.43337 11.7773C6.74287 11.3114 6.90715 10.7641 6.90542 10.2048C6.90542 10.1348 6.90542 10.0735 6.90542 10.0035L8.87417 7.34348C8.97697 7.20863 9.10927 7.0991 9.26094 7.02326C9.4126 6.94743 9.57961 6.90731 9.74917 6.90598H10.5805L10.8342 7.62348C10.1933 7.89542 9.67441 8.39302 9.37589 9.02197C9.07737 9.65092 9.01995 10.3676 9.2145 11.036C9.40905 11.7045 9.84206 12.2784 10.4315 12.6489C11.0209 13.0194 11.7258 13.1609 12.4125 13.0464C13.0992 12.932 13.7201 12.5696 14.1575 12.0279C14.5949 11.4862 14.8184 10.803 14.7856 10.1075C14.7528 9.41206 14.4661 8.75281 13.9797 8.25467C13.4934 7.75653 12.8412 7.45411 12.1467 7.40473H12.138Z" fill="#242E30"/>
</svg>
