<svg width="32" height="32" viewBox="0 0 32 32" fill="none" xmlns="http://www.w3.org/2000/svg">
<path fill-rule="evenodd" clip-rule="evenodd" d="M23.4375 14.3288C23.7268 14.281 24.0193 14.2547 24.3125 14.2501C25.7068 14.2448 27.0544 14.7519 28.0993 15.675C29.1443 16.5981 29.8137 17.8729 29.9805 19.2572C30.1473 20.6414 29.7998 22.0387 29.004 23.1836C28.2082 24.3285 27.0196 25.1412 25.664 25.4673C24.3084 25.7934 22.8802 25.6101 21.6508 24.9524C20.4215 24.2947 19.4765 23.2083 18.9955 21.8996C18.5145 20.5909 18.531 19.1512 19.0418 17.8538C19.5526 16.5565 20.5221 15.492 21.7663 14.8626L20.8388 11.6251H20.13C19.8246 11.6269 19.525 11.7086 19.261 11.8621C18.997 12.0156 18.7777 12.2356 18.625 12.5001L14.9238 18.6426C14.7402 18.9401 14.5131 19.2085 14.25 19.4388C14.2587 19.6049 14.2587 19.7714 14.25 19.9376C14.2505 21.2531 13.7949 22.5282 12.9608 23.5456C12.1267 24.563 10.9656 25.2597 9.67549 25.5172C8.38533 25.7746 7.04582 25.5768 5.88511 24.9575C4.72441 24.3382 3.8143 23.3357 3.3098 22.1207C2.80531 20.9056 2.73763 19.5533 3.11829 18.294C3.49895 17.0347 4.30442 15.9462 5.39749 15.2141C6.49056 14.482 7.80363 14.1515 9.11304 14.2788C10.4225 14.4062 11.6472 14.9835 12.5788 15.9126L11.0388 10.7501H9L8.41375 9.00008H14.25V10.7501H12.8675L14.4338 16.0001L17.1113 11.5726C17.4224 11.0546 17.8624 10.6261 18.3883 10.3286C18.9143 10.0311 19.5083 9.87489 20.1125 9.87508H20.3138L19.9463 8.58008C19.7637 7.944 19.8282 7.26247 20.1267 6.67189C20.4253 6.08132 20.9358 5.62528 21.5563 5.39508L23 4.86133V6.72508L22.125 7.03133C21.9179 7.11543 21.7508 7.27561 21.6581 7.479C21.5653 7.68239 21.5539 7.91356 21.6263 8.12508L23.4375 14.3288ZM6.52242 23.3138C7.1385 23.6835 7.844 23.8776 8.5625 23.8751C9.54237 23.8697 10.4847 23.4975 11.2038 22.8318C11.9229 22.1662 12.3666 21.2553 12.4475 20.2788C12.2602 20.3169 12.0698 20.3374 11.8788 20.3401H8.9825L8.39625 18.5901H11.8963C12.0088 18.5861 12.1205 18.5684 12.2288 18.5376C11.9733 17.866 11.5389 17.2772 10.9727 16.8348C10.4065 16.3924 9.73011 16.1134 9.01671 16.028C8.3033 15.9426 7.58012 16.054 6.92549 16.3502C6.27087 16.6463 5.70977 17.116 5.30296 17.7082C4.89615 18.3005 4.65915 18.9927 4.61764 19.71C4.57612 20.4274 4.73166 21.1423 5.06742 21.7776C5.40317 22.4128 5.90634 22.9441 6.52242 23.3138ZM21.9348 23.085C22.6199 23.6008 23.455 23.8783 24.3125 23.8751C25.3568 23.8751 26.3583 23.4602 27.0967 22.7218C27.8352 21.9834 28.25 20.9818 28.25 19.9376C28.25 18.8933 27.8352 17.8917 27.0967 17.1533C26.3583 16.4149 25.3568 16.0001 24.3125 16.0001C24.1658 16.0039 24.0196 16.0185 23.875 16.0438L25.1613 20.3751H23.3413L22.2475 16.5951C21.516 17.0426 20.951 17.7172 20.6388 18.5159C20.3266 19.3145 20.2842 20.1934 20.5182 21.0184C20.7522 21.8434 21.2498 22.5692 21.9348 23.085Z" fill="#242E30"/>
<path d="M2.84016 10.75H7.25016L6.66391 9H2.25391L2.84016 10.75Z" fill="#242E30"/>
<path d="M7.53863 11.625H4.59863L5.19363 13.375H8.12488L7.53863 11.625Z" fill="#242E30"/>
</svg>
