<svg width="32" height="32" viewBox="0 0 32 32" fill="none" xmlns="http://www.w3.org/2000/svg">
<path d="M8.00244 4.87H16.6649C20.7424 4.87 23.0699 7.3025 23.0699 10.9338C23.0699 12.92 21.5649 14.9063 19.4387 15.5538V15.7638C21.6262 16.035 23.9887 18.2663 23.9887 20.865C23.9887 24.5925 21.3899 27.13 16.7699 27.13H8.00244V4.87875V4.87ZM15.8774 14.1888C17.4174 14.1888 18.4412 13.06 18.4412 11.275C18.4412 9.525 17.4174 8.36125 15.8774 8.36125H12.5874V14.18H15.8774V14.1888ZM16.4287 23.6388C18.2749 23.6388 19.4037 22.51 19.4037 20.5588C19.4037 18.6075 18.2749 17.4438 16.4287 17.4438H12.5962V23.6388H16.4287Z" fill="#242E30"/>
</svg>
