<svg width="16" height="16" viewBox="0 0 16 16" fill="none" xmlns="http://www.w3.org/2000/svg">
<path d="M10.1615 13.4687H5.83896L6.18896 14.7812H9.81146L10.1615 13.4687Z" fill="#242E30"/>
<path d="M5.3752 10.1175L5.7252 12.1562H10.3365L10.6252 10.1087C10.6963 9.71593 10.8928 9.35673 11.1852 9.085C11.6293 8.66329 11.9832 8.1558 12.2253 7.59328C12.4675 7.03076 12.5929 6.42493 12.594 5.8125C12.5974 4.6579 12.1659 3.54434 11.3854 2.69349C10.605 1.84264 9.53268 1.3169 8.38208 1.22092C7.23147 1.12495 6.08691 1.46578 5.17624 2.17556C4.26558 2.88535 3.65559 3.91203 3.4677 5.05125C3.34276 5.77624 3.39617 6.52074 3.62331 7.22047C3.85046 7.9202 4.24451 8.55412 4.77145 9.0675C5.07665 9.34647 5.28763 9.71339 5.3752 10.1175ZM4.7627 5.26125C4.89697 4.44684 5.33323 3.71296 5.98452 3.2059C6.63581 2.69885 7.45427 2.45587 8.27674 2.52542C9.0992 2.59497 9.86524 2.97194 10.4221 3.58116C10.979 4.19039 11.2859 4.98711 11.2815 5.8125C11.2824 6.24842 11.1953 6.68005 11.0254 7.0815C10.8555 7.48295 10.6063 7.84596 10.2927 8.14875C9.80237 8.61884 9.47185 9.23091 9.3477 9.89875L9.1902 10.8525H6.80145L6.6527 9.9075C6.52431 9.23731 6.18744 8.62482 5.6902 8.1575C5.31336 7.78542 5.03217 7.32766 4.87066 6.82331C4.70914 6.31897 4.67211 5.78302 4.7627 5.26125Z" fill="#242E30"/>
</svg>
