<svg width="32" height="32" viewBox="0 0 32 32" fill="none" xmlns="http://www.w3.org/2000/svg">
<path d="M28.74 25.9575H8.5188V14.9675H28.74V25.9575ZM10.2688 24.2075H26.99V16.7175H10.2688V24.2075Z" fill="#242E30"/>
<path d="M14.7836 19.5874H11.7036V21.3374H14.7836V19.5874Z" fill="#242E30"/>
<path d="M25.5551 19.5874H22.4751V21.3374H25.5551V19.5874Z" fill="#242E30"/>
<path d="M18.6251 23.2275C18.0779 23.2292 17.5424 23.0685 17.0866 22.7658C16.6307 22.463 16.275 22.0318 16.0643 21.5267C15.8537 21.0216 15.7977 20.4654 15.9034 19.9284C16.0091 19.3915 16.2718 18.898 16.6581 18.5105C17.0444 18.1229 17.5371 17.8587 18.0737 17.7513C18.6103 17.6439 19.1667 17.6981 19.6724 17.9071C20.1782 18.1161 20.6105 18.4705 20.9147 18.9254C21.2189 19.3803 21.3813 19.9152 21.3813 20.4625C21.379 21.1936 21.0882 21.8942 20.572 22.412C20.0559 22.9298 19.3562 23.2229 18.6251 23.2275ZM18.6251 19.5C18.4236 19.4983 18.2262 19.5565 18.0579 19.6674C17.8897 19.7783 17.7582 19.9367 17.6803 20.1225C17.6024 20.3083 17.5816 20.5131 17.6205 20.7108C17.6593 20.9085 17.7562 21.0902 17.8987 21.2327C18.0411 21.3751 18.2228 21.472 18.4205 21.5109C18.6182 21.5498 18.823 21.5289 19.0088 21.451C19.1946 21.3731 19.3531 21.2417 19.4639 21.0734C19.5748 20.9052 19.6331 20.7077 19.6313 20.5062C19.6291 20.2401 19.5223 19.9855 19.3341 19.7972C19.1459 19.609 18.8913 19.5023 18.6251 19.5Z" fill="#242E30"/>
<path d="M6.76875 16.9451H5.71C5.68284 16.9463 5.65573 16.9419 5.6303 16.9324C5.60486 16.9228 5.58163 16.9081 5.562 16.8893C5.54238 16.8705 5.52677 16.8479 5.51611 16.8229C5.50545 16.7979 5.49997 16.771 5.5 16.7438V11.5551H18.9137V13.2176H20.6637V8.07255C20.6638 7.55424 20.4585 7.05702 20.0928 6.6897C19.7271 6.32238 19.2308 6.11486 18.7125 6.11255H5.71C5.19018 6.11255 4.69164 6.31905 4.32407 6.68662C3.9565 7.05419 3.75 7.55272 3.75 8.07255V16.7438C3.75 17.0008 3.80076 17.2553 3.89936 17.4926C3.99797 17.7299 4.14248 17.9454 4.3246 18.1267C4.50672 18.308 4.72285 18.4515 4.9606 18.5491C5.19835 18.6466 5.45302 18.6962 5.71 18.6951H6.76875V16.9451ZM5.5 8.07255C5.5 8.01685 5.52212 7.96344 5.56151 7.92406C5.60089 7.88467 5.6543 7.86255 5.71 7.86255H18.7125C18.7397 7.86252 18.7666 7.868 18.7916 7.87866C18.8166 7.88932 18.8392 7.90493 18.858 7.92455C18.8768 7.94418 18.8914 7.96741 18.901 7.99284C18.9106 8.01828 18.9149 8.04539 18.9137 8.07255V8.94755H5.5V8.07255Z" fill="#242E30"/>
</svg>
