<svg width="16" height="16" viewBox="0 0 16 16" fill="none" xmlns="http://www.w3.org/2000/svg">
<path d="M11.605 4.77126V3.89626C11.6027 3.52102 11.4526 3.16181 11.1873 2.89647C10.9219 2.63113 10.5627 2.48105 10.1875 2.47876H2.53123C2.15448 2.47875 1.79302 2.62782 1.5258 2.8934C1.25858 3.15898 1.10729 3.51951 1.10498 3.89626V4.77126H11.605Z" fill="#242E30"/>
<path d="M3.28373 6.74874H11.605V6.08374H1.10498V8.48999C1.10498 8.86826 1.25525 9.23103 1.52272 9.4985C1.79019 9.76598 2.15297 9.91624 2.53123 9.91624H3.28373V6.74874Z" fill="#242E30"/>
<path d="M4.59619 8.06128V13.8538H14.6762V8.06128H4.59619ZM9.63619 12.0338C9.42333 12.0338 9.21525 11.9706 9.03826 11.8524C8.86127 11.7341 8.72333 11.566 8.64187 11.3694C8.56041 11.1727 8.53909 10.9563 8.58062 10.7475C8.62215 10.5388 8.72465 10.347 8.87517 10.1965C9.02568 10.046 9.21745 9.94349 9.42623 9.90196C9.635 9.86043 9.85139 9.88175 10.0481 9.9632C10.2448 10.0446 10.4128 10.1826 10.5311 10.3596C10.6494 10.5366 10.7125 10.7446 10.7125 10.9575C10.7125 11.2429 10.5991 11.5167 10.3973 11.7185C10.1954 11.9204 9.92163 12.0338 9.63619 12.0338Z" fill="#242E30"/>
</svg>
