<svg width="16" height="16" viewBox="0 0 16 16" fill="none" xmlns="http://www.w3.org/2000/svg">
<path d="M6.74009 9.09245C6.62634 9.12745 6.50384 9.1537 6.37258 9.1537C6.18884 9.1537 6.03134 9.10995 5.88259 9.0312C5.73384 8.95245 5.62009 8.8387 5.54134 8.68995C5.46259 8.5412 5.41884 8.3837 5.41884 8.19995C5.41884 8.0162 5.46259 7.84995 5.54134 7.7012C5.62884 7.55245 5.74259 7.4387 5.88259 7.35995C6.03134 7.2812 6.18884 7.23745 6.37258 7.23745C6.52134 7.23745 6.65259 7.25495 6.77508 7.2987C6.89758 7.34245 7.00258 7.4037 7.09883 7.48245L8.03508 6.5637C7.79883 6.34495 7.54508 6.1787 7.26508 6.0737C6.98509 5.95995 6.66134 5.90745 6.29384 5.90745C5.96134 5.90745 5.65509 5.95995 5.36633 6.0737C5.07758 6.18745 4.83259 6.34495 4.61384 6.55495C4.39509 6.76495 4.22884 7.0012 4.10634 7.2812C3.98384 7.5612 3.92259 7.86745 3.92259 8.19995C3.92259 8.53245 3.98384 8.8387 4.10634 9.1187C4.22884 9.3987 4.39509 9.6437 4.60509 9.84495C4.81509 10.055 5.06884 10.2125 5.35759 10.3262C5.64634 10.44 5.95259 10.4925 6.27634 10.4925C6.65259 10.4925 6.98509 10.44 7.27384 10.3262C7.56259 10.2125 7.80758 10.055 8.00883 9.84495L7.06384 8.9262C6.96759 8.9962 6.85384 9.05745 6.74009 9.09245Z" fill="#242E30"/>
<path d="M9.92509 7.35995C10.0738 7.2812 10.2313 7.23745 10.4151 7.23745C10.5638 7.23745 10.6951 7.25495 10.8176 7.2987C10.9401 7.34245 11.0451 7.4037 11.1413 7.48245L12.0776 6.5637C11.8413 6.34495 11.5876 6.1787 11.3076 6.0737C11.0276 5.95995 10.7038 5.90745 10.3363 5.90745C10.0038 5.90745 9.69759 5.95995 9.40884 6.0737C9.12008 6.18745 8.87508 6.34495 8.65633 6.55495C8.43758 6.76495 8.27133 7.0012 8.14883 7.2812C8.02633 7.5612 7.96509 7.86745 7.96509 8.19995C7.96509 8.53245 8.02633 8.8387 8.14883 9.1187C8.27133 9.3987 8.43758 9.6437 8.64758 9.84495C8.85758 10.055 9.11133 10.2125 9.40008 10.3262C9.68884 10.44 9.99508 10.4925 10.3188 10.4925C10.6951 10.4925 11.0276 10.44 11.3163 10.3262C11.6051 10.2125 11.8501 10.055 12.0513 9.84495L11.1063 8.9262C11.0101 8.9962 10.8963 9.05745 10.7826 9.09245C10.6688 9.12745 10.5463 9.1537 10.4151 9.1537C10.2313 9.1537 10.0738 9.10995 9.92509 9.0312C9.77633 8.95245 9.66259 8.8387 9.58384 8.68995C9.50509 8.5412 9.46133 8.3837 9.46133 8.19995C9.46133 8.0162 9.50509 7.84995 9.58384 7.7012C9.67134 7.55245 9.78508 7.4387 9.92509 7.35995Z" fill="#242E30"/>
<path d="M13.3813 3.0112H2.61884C1.77009 3.0112 1.08759 3.6937 1.08759 4.54245V11.8925C1.08759 12.7325 1.77884 13.4237 2.61884 13.4237H13.3813C14.2213 13.4237 14.9126 12.7325 14.9126 11.8925V4.54245C14.9126 3.70245 14.2213 3.0112 13.3813 3.0112ZM13.6001 11.8925C13.6001 12.015 13.5038 12.1112 13.3813 12.1112H2.61884C2.49634 12.1112 2.40009 12.015 2.40009 11.8925V4.54245C2.40009 4.41995 2.49634 4.3237 2.61884 4.3237H13.3813C13.5038 4.3237 13.6001 4.41995 13.6001 4.54245V11.8925Z" fill="#242E30"/>
</svg>
