<svg width="16" height="16" viewBox="0 0 16 16" fill="none" xmlns="http://www.w3.org/2000/svg">
<g clip-path="url(#clip0_9283_3646)">
<path d="M13.397 11.3323L11.132 9.27629C10.1127 8.35283 10.6528 7.42065 10.6964 7.34225L11.132 6.74113C11.463 6.28811 11.5937 5.70441 11.4891 5.15556C11.3846 4.62414 11.071 4.14498 10.618 3.84878L10.6441 3.72681C10.7312 3.36091 10.6441 2.97759 10.435 2.67268C10.2259 2.36776 9.87744 2.1761 9.50283 2.13254C9.42442 2.13254 9.35473 2.08027 9.31117 2.01057L9.23276 1.87118C8.94527 1.36589 8.38771 1.09582 7.81273 1.18294C7.23774 1.27877 6.79343 1.70566 6.68018 2.28064L6.6192 2.59427C6.09648 2.67268 5.66089 3.03858 5.46923 3.52644C5.14689 3.50031 4.81584 3.54386 4.48478 3.68325C4.33668 3.74424 4.17987 3.75295 4.03177 3.7181L3.75299 3.65712C3.12573 3.50902 2.46363 3.69197 1.99318 4.13627C1.52274 4.58058 1.31366 5.22526 1.4182 5.86994L1.53145 6.51462C1.27881 6.96764 1.23525 7.50777 1.39206 7.99564C1.54888 8.4835 1.90607 8.89296 2.37651 9.11076L2.99505 9.39825L3.47421 9.86869C3.70943 10.1039 4.15373 10.3566 5.49536 10.2346C5.97452 10.1997 6.14004 10.2607 6.17489 10.2694L10.6528 14.2072C11.0274 14.5818 11.5327 14.7909 12.0641 14.7909C12.0903 14.7909 12.1251 14.7909 12.1512 14.7909C12.7088 14.7648 13.2315 14.5121 13.5887 14.0852C14.2769 13.2663 14.1985 12.0554 13.4058 11.3323H13.397ZM8.10893 2.49844L8.18734 2.63783C8.43127 3.08213 8.88429 3.36963 9.38958 3.4219L9.32859 3.66583C9.21534 4.17112 9.45056 4.69383 9.91229 4.92905C10.0691 5.04231 10.1824 5.19912 10.2172 5.3995C10.2521 5.59987 10.2172 5.80895 10.0865 5.97448L9.65093 6.5756C9.52025 6.75855 9.34602 7.11574 9.26761 7.57747L8.69263 7.05475C8.56195 6.93279 8.5271 6.86309 8.51839 6.83696C8.39642 6.34909 8.07408 5.92221 7.62978 5.66956L7.4294 5.55631C7.33357 5.49533 7.26388 5.3995 7.24645 5.23397C7.19418 4.78095 6.9851 4.38021 6.67147 4.07529L6.6976 4.00559C6.71503 3.94461 6.77601 3.89234 6.84571 3.89234C7.27259 3.8662 7.80401 3.43061 7.83886 3.21281L7.98696 2.542M12.5956 13.2663C12.4736 13.4144 12.2993 13.5015 12.099 13.5103C11.916 13.519 11.7244 13.4493 11.5588 13.2838L7.02866 9.29371L7.01123 9.27629C6.73245 9.04978 6.34042 8.93652 5.80899 8.93652C5.68702 8.93652 5.54763 8.93652 5.40824 8.95395C5.19916 8.97137 5.02492 8.98008 4.88553 8.98008C4.52834 8.98008 4.40638 8.93652 4.41509 8.95395L3.86624 8.41381L2.96892 7.95208C2.82953 7.88238 2.71627 7.76042 2.67271 7.61232C2.62044 7.46421 2.63786 7.29869 2.71627 7.16801C2.85566 6.90665 2.90793 6.61045 2.85566 6.32296L2.74241 5.66956C2.70756 5.46048 2.77725 5.26011 2.92536 5.112C3.08217 4.9639 3.28254 4.91163 3.49163 4.95519L3.77041 5.01617C4.19729 5.112 4.62417 5.07716 5.07719 4.88549C5.26885 4.80709 5.47794 4.8158 5.65218 4.92034C5.82642 5.02488 5.94838 5.19912 5.97452 5.45177C6.0355 5.97448 6.34913 6.43621 6.80215 6.69757L7.00252 6.81082C7.1332 6.88923 7.22903 7.01119 7.27259 7.1593C7.35099 7.47292 7.53394 7.76042 7.83015 8.03049L10.2782 10.2607L12.5433 12.3167C12.8133 12.5607 12.8482 12.9788 12.6043 13.2663H12.5956Z" fill="#242E30"/>
</g>
<defs>
<clipPath id="clip0_9283_3646">
<rect width="14" height="14" fill="white" transform="translate(1 1)"/>
</clipPath>
</defs>
</svg>
