<svg viewBox="0 0 28 28" fill="none" xmlns="http://www.w3.org/2000/svg">
<path d="M7.55992 18.4362L7.30617 19.3637H9.12617L9.24867 18.9C9.74742 17.0888 11.0862 15.8812 12.5824 15.8812H16.1437C17.6399 15.8812 18.9787 17.0888 19.4774 18.9L19.5999 19.3637H21.4199L21.1662 18.4362C20.929 17.3658 20.379 16.3899 19.586 15.6327C18.7929 14.8755 17.7927 14.3712 16.7124 14.1837C16.8872 14.0641 17.0511 13.9294 17.2024 13.7812C17.7643 13.2196 18.1469 12.504 18.302 11.7249C18.4571 10.9458 18.3777 10.1382 18.0737 9.40419C17.7698 8.67023 17.255 8.04289 16.5945 7.60151C15.934 7.16013 15.1575 6.92454 14.363 6.92454C13.5686 6.92454 12.7921 7.16013 12.1316 7.60151C11.4711 8.04289 10.9563 8.67023 10.6524 9.40419C10.3484 10.1382 10.269 10.9458 10.4241 11.7249C10.5792 12.504 10.9618 13.2196 11.5237 13.7812C11.675 13.9294 11.8389 14.0641 12.0137 14.1837C10.9334 14.3712 9.93315 14.8755 9.14013 15.6327C8.34711 16.3899 7.79708 17.3658 7.55992 18.4362ZM12.7574 9.3275C13.0757 9.00971 13.4811 8.79341 13.9223 8.70594C14.3635 8.61846 14.8208 8.66373 15.2362 8.83603C15.6517 9.00834 16.0068 9.29993 16.2566 9.67397C16.5064 10.048 16.6398 10.4877 16.6398 10.9375C16.6398 11.3873 16.5064 11.827 16.2566 12.201C16.0068 12.5751 15.6517 12.8667 15.2362 13.039C14.8208 13.2113 14.3635 13.2565 13.9223 13.1691C13.4811 13.0816 13.0757 12.8653 12.7574 12.5475C12.5447 12.3368 12.3759 12.086 12.2607 11.8097C12.1454 11.5333 12.0861 11.2369 12.0861 10.9375C12.0861 10.6381 12.1454 10.3417 12.2607 10.0653C12.3759 9.78898 12.5447 9.53821 12.7574 9.3275ZM26.6174 14C26.6174 17.2489 25.3268 20.3647 23.0295 22.6621C20.7322 24.9594 17.6163 26.25 14.3674 26.25C11.1185 26.25 8.00268 24.9594 5.70536 22.6621C3.40804 20.3647 2.11742 17.2489 2.11742 14C2.11092 11.727 2.7447 9.49821 3.94617 7.56875L1.32117 7.945L1.07617 6.195L5.87992 5.50375C6.10966 5.4713 6.34288 5.53142 6.5283 5.67089C6.71372 5.81037 6.83615 6.01777 6.86867 6.2475L7.55992 11.06L5.80992 11.305L5.44242 8.47C4.4066 10.128 3.8606 12.045 3.86742 14C3.86742 16.0767 4.48324 18.1068 5.63699 19.8335C6.79075 21.5602 8.43062 22.906 10.3492 23.7007C12.2679 24.4955 14.3791 24.7034 16.4159 24.2982C18.4527 23.8931 20.3236 22.8931 21.792 21.4246C23.2605 19.9562 24.2605 18.0852 24.6657 16.0484C25.0708 14.0116 24.8629 11.9004 24.0682 9.98182C23.2734 8.0632 21.9276 6.42332 20.2009 5.26957C18.4742 4.11581 16.4441 3.5 14.3674 3.5V1.75C15.9761 1.75 17.5691 2.06686 19.0553 2.68248C20.5415 3.2981 21.892 4.20042 23.0295 5.33794C24.167 6.47546 25.0693 7.82589 25.6849 9.31213C26.3006 10.7984 26.6174 12.3913 26.6174 14Z"/>
</svg>
