<svg width="32" height="32" viewBox="0 0 32 32" fill="none" xmlns="http://www.w3.org/2000/svg">
<path d="M11.9782 5.54683C12.4226 6.43572 13.4422 7.98691 15.3333 8.77123L15.9956 9.0501L16.6579 8.77994C18.5751 7.98692 19.586 6.44443 20.0217 5.55554C20.6927 5.67755 21.9912 6.01742 23.9084 6.93245C24.0479 6.99345 24.1612 7.09803 24.2396 7.21132L28.0217 12.8061C27.7603 13.512 26.9673 15.0893 25.0413 15.7952L24.3616 14.8889L22.9498 13.0065C22.4008 12.2658 21.2243 12.6579 21.2243 13.5817V25.7473C20.2919 25.9913 18.3485 26.4009 15.9956 26.4009C13.6426 26.4009 11.6993 25.9826 10.7668 25.7473V13.5817C10.7668 12.6579 9.59035 12.2658 9.04133 13.0065L7.62957 14.8889L6.94983 15.7952C5.0239 15.0893 4.23087 13.5033 3.96944 12.8061L7.73414 7.22875C7.82129 7.09803 7.94329 6.99345 8.07401 6.93245C9.99994 6.0087 11.2984 5.66883 11.9694 5.54683M19.4814 3.73419H18.854L18.6535 4.32678C18.6535 4.32678 17.9564 6.34857 15.9956 7.15903C14.0522 6.35729 13.3463 4.34421 13.3376 4.32678L13.1372 3.73419H12.5097C12.3267 3.73419 10.61 3.77776 7.32456 5.35511C6.91497 5.54683 6.56639 5.85184 6.30495 6.23528L2.07837 12.4924L2.16552 12.8671C2.20037 13.024 3.12412 16.6579 7.07183 17.6514L7.62957 17.7908L9.0239 15.9346V27.037L9.61649 27.2375C9.72978 27.2723 12.4052 28.1525 15.9956 28.1525C19.586 28.1525 22.2614 27.2723 22.3747 27.2375L22.9673 27.037V15.9346L24.3616 17.7908L24.9193 17.6514C28.8758 16.6667 29.7908 13.024 29.8256 12.8671L29.9128 12.4924L25.6862 6.22657C25.4248 5.85184 25.0762 5.54683 24.6666 5.35511C21.3725 3.77776 19.6644 3.73419 19.4814 3.73419Z" fill="#242E30"/>
</svg>
