<svg width="32" height="32" viewBox="0 0 32 32" fill="none" xmlns="http://www.w3.org/2000/svg">
<path d="M11.9782 5.54677C12.4226 6.43566 13.4422 7.98685 15.3333 8.77117L15.9956 9.05004L16.6579 8.77988C18.5751 7.98686 19.586 6.44437 20.0217 5.55548C20.6927 5.67749 21.9912 6.01736 23.9084 6.93239C24.0479 6.99339 24.1612 7.09797 24.2396 7.21126L28.0217 12.806C27.7603 13.5119 26.9673 15.0892 25.0413 15.7951L24.3616 14.8888L22.9498 13.0064C22.4008 12.2657 21.2243 12.6578 21.2243 13.5816V25.7472C20.2919 25.9912 18.3485 26.4008 15.9956 26.4008C13.6426 26.4008 11.6993 25.9825 10.7668 25.7472V13.5816C10.7668 12.6578 9.59035 12.2657 9.04133 13.0064L7.62957 14.8888L6.94983 15.7951C5.0239 15.0892 4.23087 13.5032 3.96944 12.806L7.73414 7.22869C7.82129 7.09797 7.94329 6.99339 8.07401 6.93239C9.99994 6.00864 11.2984 5.66877 11.9694 5.54677M19.4814 3.73413H18.854L18.6535 4.32672C18.6535 4.32672 17.9564 6.34851 15.9956 7.15897C14.0522 6.35723 13.3463 4.34415 13.3376 4.32672L13.1372 3.73413H12.5097C12.3267 3.73413 10.61 3.7777 7.32456 5.35505C6.91497 5.54677 6.56639 5.85178 6.30495 6.23522L2.07837 12.4923L2.16552 12.867C2.20037 13.0239 3.12412 16.6578 7.07183 17.6513L7.62957 17.7907L9.0239 15.9345V27.0369L9.61649 27.2374C9.72978 27.2722 12.4052 28.1524 15.9956 28.1524C19.586 28.1524 22.2614 27.2722 22.3747 27.2374L22.9673 27.0369V15.9345L24.3616 17.7907L24.9193 17.6513C28.8758 16.6666 29.7908 13.0239 29.8256 12.867L29.9128 12.4923L25.6862 6.22651C25.4248 5.85178 25.0762 5.54677 24.6666 5.35505C21.3725 3.7777 19.6644 3.73413 19.4814 3.73413Z" fill="#242E30"/>
</svg>
