<svg width="16" height="16" viewBox="0 0 16 16" fill="none" xmlns="http://www.w3.org/2000/svg">
<path d="M15 10.205C15 10.9963 14.6857 11.7553 14.1261 12.3148C13.5665 12.8744 12.8076 13.1887 12.0163 13.1887H10.0738V11.8762H12.0163C12.4268 11.871 12.8212 11.7156 13.1249 11.4393C13.4287 11.1631 13.6208 10.7852 13.665 10.3771C13.7091 9.96888 13.6023 9.55866 13.3646 9.22388C13.127 8.88909 12.7749 8.65293 12.375 8.55999L11.8763 8.44624V7.92999C11.8645 6.9634 11.4912 6.03627 10.8299 5.33123C10.1685 4.62619 9.26718 4.19436 8.30333 4.12081C7.33948 4.04726 6.38302 4.33732 5.62238 4.93385C4.86174 5.53038 4.35207 6.39013 4.19377 7.34374L4.12377 7.73749L3.73877 7.85999C3.32255 7.98817 2.95887 8.24736 2.70187 8.59895C2.44487 8.95055 2.30831 9.37575 2.31252 9.81124C2.31252 10.3589 2.53008 10.8842 2.91734 11.2714C3.30461 11.6587 3.82985 11.8762 4.37752 11.8762H5.92627V13.1887H4.37752C3.60638 13.1895 2.85819 12.9264 2.2573 12.4431C1.6564 11.9598 1.23898 11.2854 1.0744 10.5321C0.909825 9.7787 1.00801 8.99169 1.35263 8.30184C1.69724 7.61199 2.26755 7.06084 2.96877 6.73999C3.26746 5.56296 3.96952 4.52797 4.9527 3.81524C5.93588 3.10252 7.1379 2.7572 8.34945 2.83943C9.56101 2.92166 10.7053 3.42622 11.5832 4.26525C12.4611 5.10428 13.0169 6.22464 13.1538 7.43124C13.7025 7.65751 14.1713 8.04229 14.5001 8.53639C14.829 9.03049 15.0031 9.61145 15 10.205ZM10.2138 10.5375L11.1413 9.60999L8.73502 7.21249C8.63897 7.11513 8.52453 7.03783 8.39836 6.98506C8.27218 6.9323 8.13678 6.90513 8.00002 6.90513C7.86326 6.90513 7.72785 6.9323 7.60168 6.98506C7.4755 7.03783 7.36107 7.11513 7.26502 7.21249L4.85877 9.60999L5.78627 10.5375L7.34377 8.97999V13.25H8.65627V8.97999L10.2138 10.5375Z" fill="#242E30"/>
</svg>
