<svg width="16" height="16" viewBox="0 0 16 16" fill="none" xmlns="http://www.w3.org/2000/svg">
<path d="M14.4663 9.09373L13.25 9.53123C13.5072 10.1582 13.532 10.8564 13.32 11.5C13.32 11.5525 13.1888 11.6925 12.7863 11.6925C12.3838 11.6925 12.2525 11.4212 11.9113 10.8175L11.7975 10.625L11.7363 10.52C11.5438 10.205 11.3688 9.83748 11.185 9.46123C12.2555 9.17551 13.1873 8.51392 13.81 7.59748C13.9003 7.41345 13.9515 7.21275 13.9606 7.00797C13.9696 6.80318 13.9362 6.59875 13.8625 6.40748C13.7115 6.11977 13.4833 5.8798 13.2036 5.71444C12.9239 5.54908 12.6036 5.46487 12.2788 5.47123C12.0946 5.46242 11.9122 5.43008 11.7363 5.37498C11.7363 5.28748 11.78 5.14748 11.7975 5.05123C11.935 4.6893 11.9487 4.29198 11.8363 3.92147C11.7238 3.55097 11.4917 3.22821 11.1763 3.00373C10.8112 2.83112 10.408 2.75497 10.0051 2.78254C9.60223 2.81012 9.21315 2.94049 8.87501 3.16123C8.22751 3.44123 8.00001 3.47623 7.93001 3.36248C7.71674 3.07246 7.43888 2.83607 7.11843 2.67205C6.79798 2.50803 6.44373 2.42087 6.08376 2.41748C5.80109 2.42316 5.52343 2.49308 5.27178 2.62194C5.02013 2.75079 4.8011 2.93521 4.63126 3.16123C3.90501 4.16748 3.46751 4.08873 2.96876 4.03623C2.768 3.97411 2.5562 3.95602 2.34782 3.98321C2.13943 4.01039 1.93936 4.08219 1.76126 4.19373C1.58979 4.31211 1.4451 4.46519 1.33657 4.64306C1.22805 4.82092 1.1581 5.0196 1.13126 5.22623C1.15481 6.16097 1.49755 7.05951 2.10251 7.77248C1.53102 8.85081 1.2307 10.0521 1.22751 11.2725C1.21689 11.5041 1.25241 11.7356 1.33203 11.9534C1.41164 12.1712 1.53375 12.371 1.69126 12.5412C1.83461 12.695 2.00793 12.8179 2.20055 12.9021C2.39317 12.9864 2.60101 13.0303 2.81126 13.0312H12.7863C13.0962 13.0506 13.4059 12.9918 13.6872 12.8603C13.9685 12.7289 14.2123 12.5289 14.3963 12.2787C15.175 11.1675 14.5363 9.30373 14.4663 9.09373ZM2.46126 5.25248C2.55146 5.2437 2.6423 5.2437 2.73251 5.25248C3.60751 5.40123 4.57876 5.43623 5.69876 3.88748C5.75077 3.82418 5.81625 3.77327 5.89042 3.73846C5.96458 3.70365 6.04558 3.68581 6.12751 3.68623C6.28947 3.69658 6.44695 3.74373 6.58796 3.82409C6.72897 3.90445 6.84979 4.01591 6.94126 4.14998C7.68501 5.06873 8.69126 4.61373 9.41751 4.31623C9.83751 4.14123 10.2925 3.94873 10.4763 4.07123C10.66 4.19373 10.6425 4.17623 10.52 4.72748C10.4188 4.98422 10.3906 5.26395 10.4384 5.53573C10.4863 5.80752 10.6084 6.06077 10.7913 6.26748C11.1662 6.56874 11.6316 6.73516 12.1125 6.73998C12.289 6.75375 12.4628 6.79204 12.6288 6.85373C12.6418 6.87634 12.6487 6.90199 12.6487 6.92811C12.6487 6.95422 12.6418 6.97987 12.6288 7.00248C12.119 7.63649 11.4149 8.08536 10.625 8.27998C10.286 7.46924 9.71072 6.77938 8.97407 6.30025C8.23742 5.82111 7.37356 5.57492 6.49501 5.59373C5.90393 5.58777 5.31491 5.66435 4.74501 5.82123C4.10362 5.97846 3.50563 6.27746 2.99501 6.69623C2.68637 6.3181 2.4921 5.85973 2.43501 5.37498C2.44376 5.30498 2.47001 5.26998 2.46126 5.25248ZM2.80251 11.7187C2.77084 11.7179 2.73969 11.7105 2.71107 11.6969C2.68244 11.6833 2.65696 11.664 2.63626 11.64C2.59894 11.5987 2.5704 11.5503 2.55235 11.4976C2.5343 11.445 2.52713 11.3892 2.53126 11.3337C2.64501 8.87498 3.42376 7.53623 5.06876 7.12498C5.53435 7.00387 6.01394 6.94502 6.49501 6.94998C8.53376 6.94998 9.17251 8.31498 9.91626 9.88998C10.1319 10.3916 10.3834 10.877 10.6688 11.3425L10.7913 11.5525C10.7913 11.6225 10.8613 11.6925 10.905 11.7625L2.80251 11.7187Z" fill="#242E30"/>
</svg>
