<svg width="33" height="32" viewBox="0 0 33 32" fill="none" xmlns="http://www.w3.org/2000/svg">
<path d="M16.0966 10.0762C17.3741 10.6275 19.3078 10.9512 21.4078 10.9512C23.5078 10.9512 25.4416 10.6362 26.7191 10.085C28.1803 9.45498 28.4778 8.64998 28.4778 8.08123C28.4778 7.51248 28.1716 6.73373 26.7803 6.10373C26.7628 6.09498 26.7453 6.08623 26.7191 6.07748C26.5003 5.98123 26.2553 5.89373 26.0016 5.81498C25.6516 5.70123 25.2666 5.60498 24.8553 5.52623C24.7328 5.49998 24.6103 5.47373 24.4791 5.45623C24.4441 5.45623 24.3916 5.44748 24.3566 5.43873C22.4841 5.13248 20.1916 5.13248 18.3366 5.45623C18.1178 5.49123 17.9078 5.53498 17.6978 5.57873C17.6716 5.57873 17.6541 5.58748 17.6278 5.59623C17.0503 5.72748 16.5341 5.88498 16.0966 6.07748C15.9128 6.15623 15.7553 6.23498 15.6066 6.32248C14.7228 6.82123 14.4166 7.39873 14.3553 7.86248C14.3466 7.94123 14.3378 8.01123 14.3378 8.08998C14.3378 8.65873 14.6441 9.46373 16.0966 10.0937V10.0762Z" fill="#242E30"/>
<path d="M27.4103 19.745C26.6141 20.0775 25.7041 20.3312 24.6978 20.5062C23.6653 20.6812 22.5541 20.7687 21.3991 20.7687C21.3028 20.7687 21.2066 20.76 21.1103 20.76V23.035C21.2066 23.035 21.3028 23.0437 21.3991 23.0437C22.4403 23.0437 23.4728 22.965 24.4003 22.8075C25.2753 22.6587 26.0541 22.44 26.7103 22.1687C28.1628 21.5387 28.4691 20.7337 28.4691 20.165V19.1587C28.1628 19.3687 27.8128 19.57 27.4016 19.745H27.4103Z" fill="#242E30"/>
<path d="M6.97034 25.3625C7.61784 25.6337 8.39659 25.8525 9.27159 26.0012C10.1903 26.1587 11.2316 26.2375 12.2728 26.2375C13.3141 26.2375 14.3378 26.1587 15.2741 26.0012C16.1491 25.8525 16.9278 25.6337 17.5841 25.3625C19.0366 24.7325 19.3428 23.9275 19.3428 23.3587V22.3437C19.0366 22.5537 18.6866 22.755 18.2753 22.93C17.4878 23.2625 16.5778 23.5162 15.5716 23.6912C14.5303 23.8662 13.4278 23.9537 12.2728 23.9537C11.1178 23.9537 10.0153 23.8662 8.98284 23.6912C7.96784 23.5162 7.06659 23.2625 6.28784 22.9387C5.85909 22.755 5.50909 22.545 5.20284 22.3262V23.35C5.20284 23.9187 5.50909 24.7237 6.97034 25.3625Z" fill="#242E30"/>
<path d="M17.5841 13.2875C16.9716 13.025 16.2191 12.815 15.3441 12.6662C14.3991 12.5 13.3316 12.4212 12.2728 12.4212C11.2141 12.4212 10.1466 12.5087 9.20159 12.6662C8.31784 12.815 7.56534 13.025 6.96159 13.2875C5.50034 13.9175 5.19409 14.7312 5.19409 15.2912C5.19409 15.8512 5.50034 16.665 6.95284 17.295C8.23034 17.8462 10.1641 18.17 12.2641 18.17C14.3641 18.17 16.2978 17.855 17.5753 17.3037C19.0366 16.6737 19.3428 15.8687 19.3428 15.3C19.3428 14.495 18.7216 13.7862 17.5841 13.2962V13.2875Z" fill="#242E30"/>
<path d="M12.2728 19.92C9.94534 19.92 7.74909 19.5525 6.26159 18.905C5.85034 18.73 5.50034 18.5287 5.19409 18.3187V19.3162C5.19409 19.885 5.50034 20.69 6.97034 21.3287C7.61784 21.6 8.38784 21.8187 9.27159 21.9675C11.1353 22.2825 13.3928 22.2825 15.2741 21.9675C16.1491 21.8187 16.9191 21.6 17.5841 21.32C19.0366 20.69 19.3428 19.885 19.3428 19.3162V18.3187C19.0366 18.5287 18.6866 18.73 18.2753 18.905C16.7878 19.5525 14.6003 19.92 12.2728 19.92Z" fill="#242E30"/>
<path d="M27.4103 15.7112C26.6228 16.0437 25.7128 16.2975 24.7066 16.4725C23.6741 16.6475 22.5628 16.735 21.4078 16.735C21.3116 16.735 21.2153 16.7262 21.1191 16.7262V19.01C22.2478 19.0275 23.3941 18.9575 24.4178 18.7825C25.2928 18.6337 26.0716 18.415 26.7278 18.135C28.1716 17.5137 28.4778 16.7087 28.4778 16.14V15.125C28.1716 15.335 27.8216 15.5362 27.4103 15.7112Z" fill="#242E30"/>
<path d="M27.4103 11.6862C25.9228 12.3337 23.7353 12.7012 21.4078 12.7012C20.9528 12.7012 20.5066 12.6837 20.0691 12.6575C20.9003 13.515 21.0841 14.4337 21.1103 14.9675C22.2391 14.985 23.3853 14.915 24.4091 14.74C25.2841 14.5912 26.0628 14.3725 26.7191 14.0925C28.1716 13.4625 28.4691 12.6575 28.4691 12.0887V11.0912C28.1628 11.3012 27.8128 11.5025 27.4016 11.6775L27.4103 11.6862Z" fill="#242E30"/>
</svg>
