<svg width="16" height="17" viewBox="0 0 16 17" fill="none" xmlns="http://www.w3.org/2000/svg">
<path d="M13.7954 2.62768C13.695 2.48141 13.5671 2.35667 13.4191 2.26058C13.2711 2.16449 13.1058 2.09894 12.9328 2.06768L6.9464 1.00018C6.5956 0.941605 6.23617 1.0253 5.94567 1.23321C5.65518 1.44111 5.45693 1.75655 5.39372 2.11143L5.32471 2.75018H9.19778C9.88734 2.76389 10.5442 3.05083 11.0278 3.5496C11.5115 4.04836 11.7835 4.71933 11.7856 5.41893V12.6989C11.9946 12.6186 12.1793 12.4843 12.3215 12.3093C12.4637 12.1344 12.5584 11.9249 12.5964 11.7014L14.0197 3.62518C14.0771 3.2757 13.9966 2.91734 13.7954 2.62768Z" fill="#242E30"/>
<path fill-rule="evenodd" clip-rule="evenodd" d="M9.19758 15.0001H3.15939C2.97873 15.0049 2.79899 14.9724 2.63103 14.9048C2.46307 14.8371 2.31038 14.7356 2.18219 14.6063C2.054 14.4771 1.95296 14.3229 1.88518 14.1529C1.81741 13.983 1.7843 13.8009 1.78786 13.6176V5.42757C1.78671 5.24914 1.82051 5.07226 1.8873 4.90718C1.95408 4.74211 2.05253 4.59214 2.17691 4.46596C2.30129 4.33979 2.44914 4.23994 2.61187 4.17219C2.77461 4.10444 2.94898 4.07016 3.12489 4.07132H9.16308C9.33898 4.07016 9.51336 4.10444 9.67609 4.17219C9.83883 4.23994 9.98667 4.33979 10.1111 4.46596C10.2354 4.59214 10.3339 4.74211 10.4007 4.90718C10.4675 5.07226 10.5013 5.24914 10.5001 5.42757V13.6176C10.5071 13.9758 10.374 14.3223 10.1299 14.5813C9.88588 14.8404 9.5507 14.9909 9.19758 15.0001ZM7.86018 7.50133H4.47016V8.85758H7.86018V7.50133ZM4.47016 10.1351H7.86018V11.4914H4.47016V10.1351Z" fill="#242E30"/>
</svg>
