<svg width="16" height="16" viewBox="0 0 16 16" fill="none" xmlns="http://www.w3.org/2000/svg">
<path d="M4.49999 11.4999H6.24999V12.3749H4.49999V11.4999ZM8.81374 1.25362C8.55513 1.14314 8.27683 1.08618 7.99562 1.08618C7.7144 1.08618 7.4361 1.14314 7.17749 1.25362C5.03061 2.44441 2.98242 3.80499 1.05249 5.32237L1.87499 6.36362C3.71323 4.90242 5.6681 3.59429 7.71999 2.45237C7.89822 2.40896 8.08426 2.40896 8.26249 2.45237C10.3204 3.5935 12.2811 4.90165 14.125 6.36362L14.9387 5.32237C13.0096 3.80386 10.9613 2.44321 8.81374 1.25362ZM13.9062 7.99987V13.2499C13.9039 13.6553 13.7419 14.0434 13.4552 14.3301C13.1685 14.6168 12.7804 14.7788 12.375 14.7811H3.62499C3.21959 14.7788 2.83144 14.6168 2.54477 14.3301C2.2581 14.0434 2.09604 13.6553 2.09374 13.2499V7.99987C2.09604 7.59446 2.2581 7.20632 2.54477 6.91965C2.83144 6.63298 3.21959 6.47092 3.62499 6.46862H12.375C12.7804 6.47092 13.1685 6.63298 13.4552 6.91965C13.7419 7.20632 13.9039 7.59446 13.9062 7.99987ZM3.40624 7.99987V9.09362H12.5937V7.99987C12.5937 7.94185 12.5707 7.88621 12.5297 7.84519C12.4886 7.80416 12.433 7.78112 12.375 7.78112H3.62499C3.56697 7.78112 3.51133 7.80416 3.47031 7.84519C3.42929 7.88621 3.40624 7.94185 3.40624 7.99987ZM12.5937 13.2499V10.4061H3.40624V13.2499C3.40624 13.3079 3.42929 13.3635 3.47031 13.4046C3.51133 13.4456 3.56697 13.4686 3.62499 13.4686H12.375C12.433 13.4686 12.4886 13.4456 12.5297 13.4046C12.5707 13.3635 12.5937 13.3079 12.5937 13.2499Z" fill="#242E30"/>
</svg>
