<svg width="16" height="16" viewBox="0 0 16 16" fill="none" xmlns="http://www.w3.org/2000/svg">
<g clip-path="url(#clip0_9283_3666)">
<path d="M13.4318 4.4238L11.3235 3.3958L11.3497 5.53892L10.6179 5.05106V6.6192L11.158 6.97638L10.766 7.29872H10.1213C10.0603 6.65404 9.96449 6.05292 9.81638 5.53021C9.79896 5.42567 9.74669 5.29499 9.69442 5.16431C9.80767 5.07719 9.89479 4.94651 9.89479 4.7897C9.89479 4.52834 9.68571 4.31926 9.42435 4.31926C9.36337 4.31926 9.31109 4.33668 9.25882 4.35411C9.25011 4.33668 9.2414 4.32797 9.23269 4.31055C9.25011 3.80526 9.39821 3.42193 9.68571 3.15187C10.2433 2.62044 11.1667 2.64658 11.219 2.64658V1.33979C11.0448 1.33979 9.72926 1.32237 8.79709 2.19356C8.57058 2.40264 8.39635 2.65529 8.25696 2.93407L8.00431 2.60302L7.7778 2.90793C7.63841 2.64658 7.47289 2.40264 7.25509 2.19356C6.28807 1.28752 4.86803 1.33979 4.83319 1.33979H4.74607V2.64658H4.85932C4.85932 2.64658 5.79149 2.62044 6.35777 3.14315C6.64526 3.41322 6.79336 3.79654 6.81078 4.29312C6.80207 4.31055 6.79336 4.32797 6.77594 4.34539C6.72366 4.32797 6.67139 4.31055 6.61912 4.31055C6.35777 4.31055 6.14868 4.51963 6.14868 4.78099C6.14868 4.9378 6.22709 5.06848 6.34034 5.1556C6.27936 5.28628 6.2358 5.40824 6.20966 5.5215C6.06156 6.0355 5.95702 6.64533 5.89604 7.29001H5.23393L4.85932 6.98509L5.46044 6.59306V5.02492L4.72864 5.51279L4.75478 3.36966L2.6465 4.39766C2.11508 4.65902 1.7666 5.20787 1.7666 5.80899C1.7666 6.63662 2.21091 7.42069 2.93399 7.83886L3.29989 8.04795L3.73549 7.74303L4.7722 8.60551H5.83505C5.82634 9.85131 5.95702 11.1145 6.22709 12.1077L5.66081 12.9266C5.43431 13.2577 5.40817 13.6845 5.59112 14.0417C5.77407 14.3989 6.13997 14.6167 6.54072 14.6254H6.68011L7.14184 14.425L7.53387 14.6167C7.68197 14.6951 7.85621 14.73 8.02174 14.73C8.18726 14.73 8.35279 14.6951 8.50089 14.6167L8.88421 14.425L9.33723 14.6341H9.47662C9.87737 14.6341 10.2433 14.4163 10.4262 14.0591C10.6179 13.702 10.5917 13.2751 10.3652 12.944L9.77282 12.0641C10.0429 11.0623 10.1736 9.83388 10.1736 8.62293H11.3061L12.3428 7.76045L12.7784 8.06537L13.1443 7.85628C13.8674 7.43811 14.3117 6.66276 14.3117 5.82641C14.3117 5.23401 13.9632 4.67645 13.4318 4.41509V4.4238ZM8.01302 13.397L7.19411 12.9876L7.65584 12.3168V12.2993H8.3615L8.82323 12.9876L8.00431 13.397H8.01302ZM8.67513 10.9926H7.30736C7.23767 10.5831 7.17668 10.1388 7.15055 9.68578H8.83194C8.79709 10.1475 8.74482 10.5831 8.67513 10.9926ZM7.13312 8.379C7.15926 7.46425 7.2638 6.56692 7.46417 5.86997C7.50773 5.67831 7.73424 5.27757 8.00431 4.85068C8.28309 5.28628 8.50089 5.6696 8.53574 5.83513C8.73611 6.54079 8.84065 7.43811 8.85808 8.379H7.12441H7.13312Z" fill="#242E30"/>
</g>
<defs>
<clipPath id="clip0_9283_3666">
<rect width="14" height="14" fill="white" transform="translate(1 1)"/>
</clipPath>
</defs>
</svg>
