<svg width="32" height="32" viewBox="0 0 32 32" fill="none" xmlns="http://www.w3.org/2000/svg">
<path d="M26.235 9.11956L22.6097 7.35049L22.6882 11.6643V11.7863L21.0063 10.6447V12.7449L22.7143 13.9039L21.3287 15.0542H19.8646C19.7514 13.5989 19.5335 12.2307 19.2111 11.0891C19.1762 10.8974 19.089 10.6708 18.9845 10.4355C19.4463 10.3658 19.8036 9.9823 19.8036 9.503C19.8036 8.97141 19.3679 8.53568 18.8363 8.53568C18.5487 8.53568 18.296 8.6664 18.1217 8.86683C18.0782 8.79712 18.0346 8.71869 17.9823 8.64897V8.57054C18.0084 7.39407 18.3657 6.47032 19.0542 5.82544C20.3527 4.6054 22.4267 4.67511 22.4877 4.67511H22.5923V2.93219H22.5226C22.4093 2.93219 19.7078 2.8189 17.869 4.54439C17.259 5.11084 16.8407 5.81673 16.5792 6.62718L15.9692 5.80801L15.4115 6.5749C15.1413 5.79058 14.723 5.10213 14.1304 4.54439C12.2917 2.82762 9.5901 2.93219 9.51167 2.93219H9.2938V4.67511H9.55524C9.55524 4.67511 11.6555 4.61411 12.9365 5.81673C13.625 6.46161 13.991 7.38535 14.0172 8.55311V8.62283C13.9736 8.70126 13.9213 8.77969 13.8777 8.85812C13.7034 8.6664 13.4507 8.53568 13.1718 8.53568C12.6402 8.53568 12.2045 8.97141 12.2045 9.503C12.2045 9.9823 12.5618 10.3658 13.0237 10.4355C12.9104 10.6882 12.8233 10.9235 12.771 11.124C12.4485 12.2394 12.2307 13.5553 12.1087 14.9584H10.6882L9.30252 13.8081L10.9583 12.6839V10.5837L9.3548 11.673L9.40709 7.25463L5.78182 9.0237C4.84936 9.47686 4.24805 10.4442 4.24805 11.4813C4.24805 13.015 5.06722 14.4442 6.39184 15.2111L6.87986 15.49L7.81232 14.8364L10.0694 16.71H12.0215C11.9431 19.4638 12.2307 22.3309 12.8668 24.4834L11.5945 26.3309C11.2285 26.8625 11.1849 27.551 11.4899 28.1261C11.7862 28.7013 12.3788 29.0586 13.0237 29.0586H13.2067L14.2612 28.6054L15.2546 29.1022C15.4986 29.2242 15.7688 29.2852 16.0302 29.2852C16.2917 29.2852 16.5618 29.2242 16.8058 29.1022L17.7819 28.6142L18.8189 29.0935H19.0106C19.0106 29.0935 19.0106 29.0935 19.0193 29.0935C19.6642 29.0935 20.2568 28.7449 20.5531 28.1697C20.8581 27.5945 20.8233 26.9061 20.4572 26.3745L19.1239 24.3963C19.7339 22.2612 20.0128 19.4813 19.9692 16.8059H21.9823L24.2394 14.9322L25.1718 15.5858L25.6599 15.307C26.9845 14.5401 27.8036 13.1109 27.8036 11.5771C27.8036 10.5401 27.2023 9.57272 26.2699 9.11956H26.235ZM7.56831 12.8494L6.93215 13.2939L6.81014 13.381C6.27855 12.9017 5.96483 12.2046 5.96483 11.4813C5.96483 11.1065 6.18269 10.7579 6.52256 10.5924L7.59446 10.0695L7.56831 12.8494ZM14.4442 11.5858C14.5923 11.002 15.3156 9.7993 15.9867 8.7884C16.7361 9.88644 17.4158 11.0281 17.5117 11.5074C17.9387 12.9889 18.1653 14.8625 18.2089 16.7884H13.747C13.7993 14.8799 14.0259 13.0325 14.4442 11.5858ZM13.8603 20.2743C13.808 19.7078 13.7731 19.124 13.7557 18.5314H18.2002C18.1827 19.1152 18.1392 19.6991 18.0869 20.2743H13.8603ZM17.8603 22.0172C17.7557 22.6272 17.625 23.2111 17.4768 23.7514H14.4616C14.3135 23.2111 14.1827 22.6359 14.0782 22.0172H17.8516H17.8603ZM17.7383 26.6795L16.0128 27.5423L14.296 26.6882L13.0934 27.2024L14.2699 25.4943H17.747L18.9235 27.2285L17.7383 26.6795ZM25.1893 13.4856L25.0847 13.4159L24.4398 12.954L24.4137 10.1741L25.4856 10.6969C25.8254 10.8625 26.0433 11.2111 26.0433 11.5858C26.0433 12.3179 25.7296 13.0063 25.198 13.4856H25.1893Z" fill="#242E30"/>
</svg>
