<svg width="32" height="32" viewBox="0 0 32 32" fill="none" xmlns="http://www.w3.org/2000/svg">
<path d="M30 5.90253L28.4775 5.02753L24.1725 12.6313C24.0049 12.3758 23.8113 12.1383 23.595 11.9225C23.0134 11.334 22.2832 10.9142 21.482 10.7077C20.6808 10.5013 19.8386 10.5159 19.045 10.75C18.7292 9.85834 18.1449 9.08642 17.3724 8.54048C16.5999 7.99454 15.6772 7.7014 14.7313 7.7014C13.7853 7.7014 12.8626 7.99454 12.0901 8.54048C11.3176 9.08642 10.7333 9.85834 10.4175 10.75C10.0061 10.6251 9.57873 10.5602 9.14875 10.5575C8.08354 10.5531 7.04989 10.9189 6.22467 11.5925C5.39946 12.2661 4.83398 13.2055 4.625 14.25H2.875V16.875C2.88053 18.5243 3.40373 20.1302 4.3708 21.4662C5.33787 22.8022 6.69999 23.8008 8.265 24.3213L8.7725 26.5H23.2275L23.735 24.3213C25.3 23.8008 26.6621 22.8022 27.6292 21.4662C28.5963 20.1302 29.1195 18.5243 29.125 16.875V14.25H25.24L30 5.90253ZM9.14875 12.3338C9.65846 12.3369 10.1577 12.4791 10.5925 12.745C10.7255 12.8218 10.8764 12.8623 11.03 12.8623C11.1836 12.8623 11.3345 12.8218 11.4675 12.745C11.5989 12.6777 11.7112 12.5782 11.7938 12.4558C11.8764 12.3334 11.9267 12.1921 11.94 12.045C11.9959 11.3361 12.317 10.6744 12.8392 10.1917C13.3614 9.70906 14.0464 9.441 14.7575 9.441C15.4686 9.441 16.1536 9.70906 16.6758 10.1917C17.198 10.6744 17.5191 11.3361 17.575 12.045C17.5883 12.1921 17.6386 12.3334 17.7212 12.4558C17.8038 12.5782 17.9161 12.6777 18.0475 12.745C18.1805 12.8218 18.3314 12.8623 18.485 12.8623C18.6386 12.8623 18.7895 12.8218 18.9225 12.745C19.2814 12.536 19.6821 12.4089 20.0959 12.3729C20.5097 12.3369 20.9263 12.3928 21.3159 12.5366C21.7056 12.6804 22.0586 12.9086 22.3497 13.2048C22.6409 13.501 22.8629 13.858 23 14.25H6.47125C6.66253 13.6916 7.02332 13.2069 7.5033 12.8634C7.98328 12.5199 8.55851 12.3347 9.14875 12.3338V12.3338ZM27.375 16.875C27.3696 18.2288 26.9159 19.5426 26.0848 20.6111C25.2537 21.6797 24.092 22.4429 22.7812 22.7813L22.265 22.9125L21.8363 24.75H10.1637L9.735 22.9125L9.21875 22.7813C7.90799 22.4429 6.74629 21.6797 5.91517 20.6111C5.08405 19.5426 4.63036 18.2288 4.625 16.875V16H27.375V16.875Z" fill="#242E30"/>
</svg>
