<svg viewBox="0 0 14 14" fill="none" xmlns="http://www.w3.org/2000/svg">
<path d="M13.8337 2.51999L12.7137 1.82874L10.6662 5.15374C10.4449 4.85345 10.1562 4.60919 9.82347 4.44053C9.4907 4.27187 9.12306 4.1835 8.75 4.18249C8.59861 4.16953 8.44639 4.16953 8.29499 4.18249C8.10576 3.76063 7.79858 3.40248 7.41047 3.1512C7.02235 2.89993 6.56985 2.76623 6.10749 2.76623C5.64514 2.76623 5.19264 2.89993 4.80452 3.1512C4.41641 3.40248 4.10923 3.76063 3.91999 4.18249C3.7686 4.16953 3.61639 4.16953 3.465 4.18249C2.87711 4.19251 2.3134 4.41821 1.88105 4.81669C1.4487 5.21516 1.17785 5.75862 1.12 6.34373H0.244995V7.87498C0.245816 8.72564 0.50818 9.55547 0.996522 10.252C1.48486 10.9485 2.17557 11.478 2.975 11.7687L3.2375 12.9062H10.815L11.0775 11.7687C11.872 11.4737 12.5571 10.9424 13.0405 10.2462C13.5239 9.55005 13.7824 8.72251 13.7812 7.87498V6.34373H11.48L13.8337 2.51999ZM4.05999 5.65248C4.15547 5.70865 4.26423 5.73827 4.37499 5.73827C4.48576 5.73827 4.59452 5.70865 4.69 5.65248C4.78791 5.60066 4.87174 5.52579 4.93425 5.43432C4.99675 5.34285 5.03605 5.23754 5.04874 5.12749C5.04874 4.84205 5.16214 4.5683 5.36397 4.36646C5.56581 4.16463 5.83956 4.05124 6.12499 4.05124C6.41043 4.05124 6.68418 4.16463 6.88602 4.36646C7.08785 4.5683 7.20124 4.84205 7.20124 5.12749C7.21394 5.23754 7.25324 5.34285 7.31574 5.43432C7.37825 5.52579 7.46208 5.60066 7.56 5.65248C7.65547 5.70865 7.76423 5.73827 7.875 5.73827C7.98577 5.73827 8.09452 5.70865 8.19 5.65248C8.33835 5.56941 8.50379 5.52149 8.67357 5.51241C8.84336 5.50333 9.01296 5.53333 9.16933 5.60011C9.3257 5.66688 9.46466 5.76865 9.57551 5.89757C9.68636 6.02649 9.76616 6.17913 9.80875 6.34373H2.44125C2.48383 6.17913 2.56363 6.02649 2.67448 5.89757C2.78533 5.76865 2.92429 5.66688 3.08066 5.60011C3.23703 5.53333 3.40663 5.50333 3.57642 5.51241C3.7462 5.52149 3.91164 5.56941 4.05999 5.65248V5.65248ZM12.4687 7.87498C12.4669 8.50359 12.2561 9.11374 11.8696 9.6095C11.4832 10.1053 10.9429 10.4585 10.3337 10.6137L9.94875 10.7187L9.7475 11.5937H4.2525L4.05125 10.7187L3.66625 10.6137C3.0571 10.4585 2.51682 10.1053 2.13034 9.6095C1.74387 9.11374 1.53312 8.50359 1.53125 7.87498V7.65623H12.4687V7.87498Z"/>
</svg>
