<svg width="16" height="16" viewBox="0 0 16 16" fill="none" xmlns="http://www.w3.org/2000/svg">
<path d="M4.71892 7.13375L6.03142 7.11624L5.96142 1.525L4.65767 2.155L4.71892 7.13375Z" fill="#242E30"/>
<path d="M11.1327 11.7012L13.2677 12.0337C13.2502 13.25 13.1452 14.23 13.0839 15H14.4052C14.7234 10.9975 14.7789 6.97848 14.5714 2.96874C14.4839 2.00624 14.2477 1.48999 13.7927 1.29749C13.5515 1.20417 13.2858 1.19579 13.0393 1.27373C12.7927 1.35167 12.5801 1.51127 12.4364 1.72624C10.7343 4.31125 9.94579 7.39134 10.1964 10.4762C10.1869 10.7572 10.2749 11.0327 10.4456 11.2561C10.6163 11.4794 10.8591 11.6367 11.1327 11.7012Z" fill="#242E30"/>
<path d="M3.33643 1.525L2.02393 2.155V6.97624C2.06352 7.69708 2.35506 8.3811 2.84764 8.90886C3.34022 9.43662 4.00253 9.77459 4.71893 9.86374V15H6.03143V9.81999C6.71804 9.70906 7.34598 9.36642 7.81082 8.84905C8.27565 8.33168 8.54936 7.67077 8.58643 6.97624V1.525L7.27393 2.155V6.97624C7.27393 8.14 5.88268 8.61249 5.30518 8.61249C4.72768 8.61249 3.33643 8.14 3.33643 6.97624V1.525Z" fill="#242E30"/>
</svg>
