<svg width="16" height="16" viewBox="0 0 16 16" fill="none" xmlns="http://www.w3.org/2000/svg">
<path d="M4.71868 7.13375L6.03118 7.11624L5.96118 1.525L4.65743 2.155L4.71868 7.13375Z" fill="#242E30"/>
<path d="M11.1324 11.7012L13.2674 12.0337C13.2499 13.25 13.1449 14.23 13.0837 15H14.4049C14.7232 10.9975 14.7787 6.97848 14.5712 2.96874C14.4837 2.00624 14.2474 1.48999 13.7924 1.29749C13.5513 1.20417 13.2855 1.19579 13.039 1.27373C12.7925 1.35167 12.5798 1.51127 12.4362 1.72624C10.7341 4.31125 9.94555 7.39134 10.1962 10.4762C10.1866 10.7572 10.2747 11.0327 10.4454 11.2561C10.6161 11.4794 10.8588 11.6367 11.1324 11.7012ZM13.2499 2.88999V3.09124C13.4027 5.63179 13.4232 8.17857 13.3112 10.7212L11.4999 10.4325C11.3202 7.80024 11.9295 5.17418 13.2499 2.88999Z" fill="#242E30"/>
<path d="M3.33618 1.525L2.02368 2.155V6.97624C2.06328 7.69708 2.35482 8.3811 2.8474 8.90886C3.33997 9.43662 4.00229 9.77459 4.71868 9.86374V15H6.03118V9.81999C6.71779 9.70906 7.34574 9.36642 7.81057 8.84905C8.27541 8.33168 8.54912 7.67077 8.58618 6.97624V1.525L7.27368 2.155V6.97624C7.27368 8.14 5.88243 8.61249 5.30493 8.61249C4.72743 8.61249 3.33618 8.14 3.33618 6.97624V1.525Z" fill="#242E30"/>
</svg>
