<svg width="32" height="32" viewBox="0 0 32 32" fill="none" xmlns="http://www.w3.org/2000/svg">
<path d="M24.3913 21.25L27.2176 21.7137C27.1213 24.0412 26.9901 25.3625 26.8676 26.5175H28.6176C28.7488 25.2487 28.8976 23.7525 28.9938 20.9962C29.1824 16.7072 29.1561 12.4114 28.9151 8.12496C28.7576 6.66371 28.4338 5.91996 27.7951 5.64871C27.4428 5.51107 27.0536 5.50041 26.6943 5.61857C26.335 5.73674 26.0281 5.97634 25.8263 6.29621C25.6951 6.47996 22.5363 11.0562 23.0526 19.5175C23.0454 19.9155 23.1742 20.304 23.4175 20.619C23.6609 20.9339 24.0044 21.1565 24.3913 21.25ZM27.0776 7.59996C27.1228 7.83717 27.1549 8.0767 27.1738 8.31746C27.4626 12.1762 27.3838 16.9275 27.2876 19.9287C26.4126 19.7887 25.2838 19.6137 24.8201 19.5262C24.8152 19.4914 24.8152 19.4561 24.8201 19.4212C24.4001 12.8587 26.3776 8.79871 27.0776 7.59996Z" fill="#242E30"/>
<path d="M14.25 5.75371H14.0837L12.5 6.51496V13.375C12.5 15.5013 14.3287 16.7788 16 17.12V26.5H17.75V17.1025C19.43 16.7613 21.25 15.4838 21.25 13.3488V5.70996L19.5 6.58496V13.375C19.5 14.8713 17.645 15.4663 16.875 15.4663C16.105 15.4663 14.25 14.8713 14.25 13.375V5.75371Z" fill="#242E30"/>
<path d="M17.7588 5.6925L16.0088 6.5325V13.375H17.7588V5.6925Z" fill="#242E30"/>
<path d="M5.49995 15.8862V26.5H7.24995V15.8862C8.2246 15.5419 9.06158 14.8913 9.6357 14.0317C10.2098 13.1721 10.4902 12.1497 10.435 11.1175V10.3825C10.435 7.6875 8.61495 5.5 6.37495 5.5C4.13495 5.5 2.31495 7.6875 2.31495 10.3825V11.1175C2.25969 12.1497 2.54009 13.1721 3.11421 14.0317C3.68832 14.8913 4.5253 15.5419 5.49995 15.8862ZM4.06495 10.3825C4.06495 8.65875 5.1062 7.25 6.37495 7.25C7.6437 7.25 8.68495 8.65875 8.68495 10.3825V11.1175C8.68495 12.8412 7.6437 14.25 6.37495 14.25C5.1062 14.25 4.06495 12.8412 4.06495 11.1175V10.3825Z" fill="#242E30"/>
</svg>
