<svg width="32" height="32" viewBox="0 0 32 32" fill="none" xmlns="http://www.w3.org/2000/svg">
<path d="M25.8698 13.0813L19.4648 20.4138C19.4648 22.3388 17.9073 23.8963 15.9823 23.905H26.0448C26.8673 22.33 27.3398 20.5538 27.3398 18.655C27.3398 16.625 26.7973 14.7263 25.8698 13.0813Z" fill="#242E30"/>
<path d="M18.8436 18.4275L18.8523 18.4363L24.8548 11.5763L18.8436 18.4275Z" fill="#242E30"/>
<path d="M23.6386 10.29L17.4961 17.2813C17.4961 17.2813 17.5136 17.29 17.5223 17.2988L23.6473 10.2988L23.6386 10.29Z" fill="#242E30"/>
<path d="M25.8698 13.0813C26.8061 14.735 27.3398 16.6338 27.3398 18.655C27.3398 20.545 26.8673 22.33 26.0448 23.905H27.9873C28.6961 22.295 29.0898 20.5275 29.0898 18.655C29.0898 16.1 28.3461 13.72 27.0773 11.6988L25.8698 13.0813Z" fill="#242E30"/>
<path d="M24.8023 8.97753H24.7936L23.6386 10.29H23.6473L24.8023 8.97753Z" fill="#242E30"/>
<path d="M15.9648 7.28003C18.3011 7.28003 20.4711 7.98878 22.2823 9.19628L23.4373 7.87503C21.3111 6.39628 18.7386 5.53003 15.9648 5.53003C8.72859 5.53003 2.83984 11.4188 2.83984 18.655C2.83984 20.5188 3.23359 22.295 3.94234 23.905H5.88484C5.06234 22.33 4.58984 20.5538 4.58984 18.655C4.58984 12.3813 9.69109 7.28003 15.9648 7.28003Z" fill="#242E30"/>
<path d="M12.4648 20.405C12.4648 18.6463 13.7686 17.2025 15.4573 16.9575L16.2886 16.0388L22.2823 9.19628C20.4711 7.98878 18.3011 7.28003 15.9648 7.28003C9.69109 7.28003 4.58984 12.3813 4.58984 18.655C4.58984 20.545 5.06234 22.33 5.88484 23.905H15.9473C14.0223 23.8963 12.4648 22.33 12.4648 20.405ZM8.96484 18.655H7.21484C7.21484 13.8338 11.1436 9.90503 15.9648 9.90503C16.9711 9.90503 17.9598 10.0888 18.8873 10.4125L17.6186 11.8563C17.0761 11.725 16.5248 11.6463 15.9561 11.6463C12.0973 11.6463 8.95609 14.7875 8.95609 18.6463L8.96484 18.655Z" fill="#242E30"/>
<path d="M18.8436 18.4275L26.0186 10.2375L27.4011 8.65378L26.0886 7.49878L24.8023 8.96878L23.6473 10.2813L17.5223 17.2813L17.1111 17.745L16.2886 18.6813C16.1836 18.6638 16.0698 18.6463 15.9648 18.6463C15.0023 18.6463 14.2148 19.4338 14.2148 20.3963C14.2148 21.3588 15.0023 22.1463 15.9648 22.1463C16.9273 22.1463 17.7148 21.3588 17.7148 20.3963C17.7148 20.195 17.6711 20.0113 17.6098 19.8275L18.8436 18.4188V18.4275Z" fill="#242E30"/>
</svg>
