<svg viewBox="0 0 14 14" fill="none" xmlns="http://www.w3.org/2000/svg">
<path d="M10.8413 3.03625C9.71866 1.95257 8.21913 1.34711 6.65879 1.3475C5.97253 1.34422 5.29114 1.46272 4.64629 1.6975L4.20879 0.455002C5.49344 0.00151207 6.87876 -0.0864571 8.21046 0.200892C9.54215 0.488242 10.7679 1.13963 11.7513 2.0825L10.8413 3.03625ZM12.5913 5.985C11.9519 4.81847 11.0019 3.85185 9.84656 3.19234C8.69128 2.53284 7.37589 2.20624 6.04629 2.24875C4.66895 2.24342 3.3143 2.59943 2.11754 3.28125L2.77379 4.41875C3.76846 3.8438 4.89741 3.54195 6.04629 3.54375C7.127 3.50966 8.19618 3.77422 9.13629 4.30834C10.0764 4.84246 10.851 5.62546 11.375 6.57125L12.5913 5.985ZM5.82754 4.47125C4.43713 4.46152 3.08288 4.91396 1.97754 5.7575L2.79129 6.79C3.662 6.12379 4.73128 5.76941 5.82754 5.78375C8.31254 5.78375 10.3338 7.53375 10.3338 9.63375H11.6463C11.6463 6.78125 9.03004 4.47125 5.82754 4.47125ZM9.62504 10.71C9.59527 9.7004 9.16725 8.74359 8.43443 8.04848C7.70162 7.35338 6.72356 6.97645 5.71379 7C5.02167 6.99403 4.34004 7.1694 3.73674 7.50866C3.13344 7.84792 2.62949 8.33925 2.27504 8.93375L3.41254 9.625C3.64528 9.22182 3.98106 8.88779 4.38544 8.65715C4.78983 8.42651 5.24828 8.30756 5.71379 8.3125C6.04392 8.29605 6.37404 8.34516 6.68509 8.457C6.99614 8.56884 7.28195 8.74119 7.52602 8.96411C7.77008 9.18702 7.96757 9.45608 8.10707 9.75574C8.24657 10.0554 8.32533 10.3797 8.33879 10.71C8.33879 11.8388 8.23379 12.9325 8.23379 12.9413L9.53754 13.0725C9.52004 13.02 9.62504 11.9088 9.62504 10.71ZM7.35879 11.935C7.46649 11.4164 7.37595 10.8763 7.10504 10.4213C6.9688 10.1964 6.78716 10.0024 6.57171 9.85178C6.35625 9.70111 6.11174 9.59705 5.85379 9.54625C5.32704 9.44914 4.78329 9.56507 4.34196 9.86859C3.90063 10.1721 3.59782 10.6384 3.50004 11.165L4.79504 11.4275C4.817 11.2446 4.91014 11.0778 5.05428 10.9632C5.19841 10.8485 5.38193 10.7953 5.56504 10.815C5.64385 10.8328 5.71806 10.8669 5.78287 10.9151C5.84768 10.9633 5.90165 11.0246 5.94129 11.095C6.0478 11.2707 6.08229 11.4807 6.03754 11.6813C5.91585 12.1127 5.69739 12.5107 5.39879 12.845L6.38754 13.72C6.8469 13.2095 7.17963 12.598 7.35879 11.935Z"/>
</svg>
