<svg width="16" height="16" viewBox="0 0 16 16" fill="none" xmlns="http://www.w3.org/2000/svg">
<path d="M7.99576 14.8084C5.02501 14.8084 2.61182 12.3952 2.61182 9.42447C2.61182 6.45372 4.83335 1.33984 7.99576 1.33984C11.1582 1.33984 13.3797 6.5844 13.3797 9.42447C13.3797 12.2646 10.9665 14.8084 7.99576 14.8084ZM7.99576 2.64663C5.93104 2.64663 3.9186 6.93287 3.9186 9.42447C3.9186 11.6721 5.7481 13.5016 7.99576 13.5016C10.2434 13.5016 12.0729 11.6721 12.0729 9.42447C12.0729 6.93287 10.0605 2.64663 7.99576 2.64663Z" fill="#242E30"/>
<path d="M7.99576 14.8084C5.02501 14.8084 2.61182 12.3952 2.61182 9.42447C2.61182 6.45372 4.83335 1.33984 7.99576 1.33984C11.1582 1.33984 13.3797 6.5844 13.3797 9.42447C13.3797 12.2646 10.9665 14.8084 7.99576 14.8084ZM7.99576 2.64663C5.93104 2.64663 3.9186 6.93287 3.9186 9.42447C3.9186 11.6721 5.7481 13.5016 7.99576 13.5016C10.2434 13.5016 12.0729 11.6721 12.0729 9.42447C12.0729 6.93287 10.0605 2.64663 7.99576 2.64663Z" fill="#242E30"/>
<path d="M9.23306 8.06533C8.98041 7.22027 8.54482 6.30553 8.0918 5.67827L9.14594 4.91162C9.67737 5.65214 10.1914 6.71499 10.4788 7.69072L9.22435 8.06533H9.23306Z" fill="#242E30"/>
</svg>
