<svg width="16" height="16" viewBox="0 0 16 16" fill="none" xmlns="http://www.w3.org/2000/svg">
<path d="M13.062 11.9857L10.1871 6.34041V2.42006H10.8057V1.11328H5.16035V2.42006H5.76147V6.3317L2.93011 11.9857C2.61648 12.6043 2.65133 13.3273 3.01723 13.9198C3.38313 14.5122 4.0191 14.8606 4.70734 14.8606H11.2761C11.973 14.8606 12.609 14.5034 12.9749 13.911C13.3408 13.3186 13.3669 12.5868 13.0533 11.9683L13.062 11.9857ZM8.87162 2.42006L8.88904 6.64533L9.75152 8.35286C9.26365 8.34415 8.7845 8.05665 8.28792 7.76045C7.86104 7.50781 7.3906 7.23774 6.85917 7.10706L7.09439 6.64533L7.07697 2.42006H8.87162ZM11.8685 13.2402C11.8075 13.3361 11.6333 13.5626 11.2848 13.5626H4.71605C4.37628 13.5626 4.19333 13.3361 4.13235 13.2402C4.07137 13.1444 3.9494 12.883 4.10622 12.5781L6.24063 8.33543C6.6588 8.31801 7.12924 8.58808 7.60839 8.88428C8.21823 9.25018 8.91518 9.66835 9.77765 9.66835C9.95189 9.66835 10.1348 9.64222 10.3439 9.59866L10.3178 9.49411L11.8859 12.5781C12.0427 12.883 11.9208 13.1444 11.8598 13.2402H11.8685Z" fill="#242E30"/>
</svg>
