<svg width="32" height="32" viewBox="0 0 32 32" fill="none" xmlns="http://www.w3.org/2000/svg">
<path d="M24.662 7.33792C22.3647 5.04062 19.2488 3.74997 16 3.74997C13.5771 3.74997 11.2089 4.46844 9.1944 5.81448C7.17972 7.16052 5.6096 9.07372 4.68247 11.3121C3.75535 13.5505 3.51267 16.0135 3.98542 18.3899C4.45795 20.7661 5.62477 22.9489 7.33802 24.6621C9.05128 26.3752 11.2339 27.5419 13.61 28.0146C15.9863 28.4873 18.4494 28.2446 20.688 27.3175C22.9263 26.3903 24.8393 24.8203 26.1856 22.8057C27.5316 20.7912 28.25 18.4228 28.25 16C28.25 12.7511 26.9593 9.63523 24.662 7.33792ZM23.4247 23.4246C21.4555 25.3937 18.7848 26.5 16 26.5C13.9232 26.5 11.8933 25.8841 10.1664 24.7304C8.43989 23.5767 7.09406 21.9368 6.29938 20.0182C5.50449 18.0996 5.29663 15.9883 5.70166 13.9515C6.1069 11.9147 7.10688 10.0438 8.57532 8.57533C10.0438 7.10689 11.9147 6.10686 13.9516 5.70173C15.9885 5.29659 18.0995 5.5045 20.0183 6.29923C21.9368 7.09396 23.5768 8.43979 24.7303 10.1665C25.8841 11.8932 26.5 13.9232 26.5 16C26.5 18.7848 25.3939 21.4554 23.4247 23.4246Z" fill="#242E30"/>
<path d="M10.8147 15.9C11.0546 15.8008 11.2597 15.6325 11.4037 15.4167C11.5481 15.2009 11.625 14.9471 11.625 14.6875C11.625 14.3394 11.4868 14.0055 11.2407 13.7594C10.9944 13.5132 10.6607 13.375 10.3125 13.375C10.053 13.375 9.79917 13.452 9.58319 13.5962C9.36743 13.7404 9.19931 13.9454 9.09997 14.1852C9.00063 14.4251 8.97457 14.689 9.0252 14.9435C9.07583 15.1981 9.2008 15.432 9.38451 15.6156C9.56802 15.7991 9.80193 15.9241 10.0566 15.9748C10.311 16.0254 10.5748 15.9994 10.8147 15.9Z" fill="#242E30"/>
<path d="M21.6875 13.375C21.428 13.375 21.1742 13.452 20.9584 13.5962C20.7424 13.7404 20.5743 13.9454 20.475 14.1852C20.3756 14.4251 20.3496 14.689 20.4002 14.9435C20.4508 15.1981 20.5758 15.432 20.7593 15.6156C20.943 15.7991 21.1769 15.9241 21.4316 15.9748C21.686 16.0254 21.9498 15.9994 22.1897 15.9001C22.4296 15.8008 22.6347 15.6325 22.7787 15.4167C22.9231 15.2009 23 14.9471 23 14.6875C23 14.3394 22.8618 14.0055 22.6155 13.7594C22.3694 13.5132 22.0357 13.375 21.6875 13.375Z" fill="#242E30"/>
<path d="M10.3441 18.8555C10.3441 21.6138 12.8811 23.8577 16 23.8577C19.1189 23.8577 21.6559 21.6138 21.6559 18.8555V17.9805H10.3441L10.3441 18.8555ZM19.7623 19.7305C19.3026 21.1003 17.7893 22.1077 16 22.1077C14.2107 22.1077 12.6974 21.1003 12.2377 19.7305H19.7623Z" fill="#242E30"/>
</svg>
