<svg width="32" height="32" viewBox="0 0 32 32" fill="none" xmlns="http://www.w3.org/2000/svg">
<path d="M24.662 7.3379C22.3647 5.0406 19.2488 3.75 16 3.75C13.5771 3.75 11.2089 4.46841 9.1944 5.81451C7.17972 7.16055 5.6096 9.0737 4.68247 11.3121C3.75535 13.5505 3.51267 16.0136 3.98542 18.3899C4.45795 20.7661 5.62477 22.9489 7.33802 24.662C9.05127 26.3752 11.2339 27.542 13.61 28.0146C15.9863 28.4873 18.4494 28.2447 20.688 27.3175C22.9263 26.3904 24.8393 24.8202 26.1856 22.8057C27.5316 20.7912 28.25 18.4228 28.25 16C28.25 12.7511 26.9593 9.63526 24.662 7.3379ZM10.8147 15.9001C10.5748 15.9995 10.311 16.0254 10.0566 15.9748C9.80193 15.9241 9.56802 15.7991 9.38451 15.6156C9.2008 15.432 9.07583 15.1981 9.0252 14.9435C8.97457 14.689 9.00063 14.4251 9.09997 14.1852C9.19931 13.9454 9.36742 13.7404 9.58319 13.5962C9.79917 13.452 10.053 13.375 10.3125 13.375C10.6607 13.375 10.9944 13.5132 11.2407 13.7594C11.4868 14.0055 11.625 14.3394 11.625 14.6875C11.625 14.9471 11.5481 15.2008 11.4037 15.4167C11.2597 15.6324 11.0546 15.8007 10.8147 15.9001ZM18.876 21.1542C18.0516 21.7886 17.0404 22.1326 16 22.1326C14.9597 22.1326 13.9486 21.7886 13.124 21.1542C12.2994 20.5198 11.7079 19.6306 11.4413 18.625H13.2874C13.5228 19.1474 13.9039 19.5907 14.3852 19.9017C14.8663 20.2127 15.4271 20.3781 16 20.3781C16.5729 20.3781 17.1337 20.2126 17.615 19.9017C18.0961 19.5907 18.4772 19.1474 18.7126 18.625H20.5587C20.2921 19.6306 19.7006 20.5198 18.876 21.1542ZM22.7787 15.4167C22.6347 15.6325 22.4296 15.8007 22.1897 15.9001C21.9498 15.9995 21.686 16.0254 21.4316 15.9748C21.1769 15.9241 20.943 15.7991 20.7593 15.6156C20.5758 15.432 20.4508 15.1981 20.4002 14.9435C20.3496 14.689 20.3756 14.4251 20.475 14.1852C20.5743 13.9454 20.7424 13.7404 20.9584 13.5962C21.1742 13.452 21.4279 13.375 21.6875 13.375C22.0357 13.375 22.3694 13.5132 22.6155 13.7594C22.8618 14.0055 23 14.3394 23 14.6875C23 14.9471 22.9231 15.2008 22.7787 15.4167Z" fill="#242E30"/>
</svg>
