<svg width="16" height="16" viewBox="0 0 16 16" fill="none" xmlns="http://www.w3.org/2000/svg">
<path d="M13.2103 2.39122C12.8515 2.21622 12.4315 2.25997 12.1165 2.51372C10.3403 3.90497 9.1765 3.29247 7.82025 2.57497C6.24525 1.74372 4.46025 0.807469 2.04525 3.02997L1.57275 3.42372L1.62525 14.1512V14.3524H2.92025H3.00775L2.99025 11.2287C4.6965 9.68872 5.73775 10.2312 7.17275 10.9924C8.67775 11.7887 10.5503 12.7687 13.1053 10.6774C13.534 10.3187 13.7878 9.80247 13.7878 9.24247V3.31872C13.7878 2.92497 13.569 2.56622 13.2103 2.39122ZM12.4053 4.00122V9.23372C12.4053 9.37372 12.344 9.50497 12.2303 9.60122C10.3928 11.1149 9.25525 10.5199 7.82025 9.76747C7.01525 9.33872 6.0965 8.85747 5.0465 8.85747C4.3465 8.85747 3.67275 9.06747 2.99025 9.49622L2.964 4.07122C4.68775 2.48747 5.73775 3.03872 7.1815 3.79997L7.199 3.76497L7.1815 3.80872C8.60775 4.56122 10.2178 5.40997 12.414 4.00997L12.4053 4.00122Z" fill="#242E30"/>
</svg>
