<svg width="16" height="16" viewBox="0 0 16 16" fill="none" xmlns="http://www.w3.org/2000/svg">
<path d="M1.9625 10.7125C1.68586 10.5039 1.34633 10.3958 1 10.4063V9.09375C1.59126 9.0823 2.17069 9.26012 2.65375 9.60125C2.93435 9.80867 3.27617 9.91646 3.625 9.9075C3.97114 9.91653 4.31022 9.80864 4.5875 9.60125C5.07352 9.25945 5.65594 9.08165 6.25 9.09375C6.84414 9.08104 7.42675 9.25889 7.9125 9.60125C8.1901 9.80802 8.52896 9.91584 8.875 9.9075C9.22114 9.91653 9.56022 9.80864 9.8375 9.60125C10.3246 9.26164 10.9063 9.08407 11.5 9.09375V10.4063C11.1512 10.3973 10.8093 10.5051 10.5288 10.7125C10.0457 11.0536 9.46626 11.2315 8.875 11.22C8.28103 11.2315 7.69879 11.0538 7.2125 10.7125C6.9349 10.5057 6.59604 10.3979 6.25 10.4063C5.90386 10.3972 5.56478 10.5051 5.2875 10.7125C4.80202 11.0554 4.21923 11.2333 3.625 11.22C3.03103 11.2315 2.4488 11.0538 1.9625 10.7125V10.7125ZM12.1562 2.96875V1H10.8438V2.96875H7.69375L7.97375 5.59375C7.41248 5.43929 6.83206 5.36563 6.25 5.375C3.8875 5.375 1.97125 6.6 1.67375 8.28L2.96875 8.5075C3.1525 7.48375 4.57875 6.6875 6.25 6.6875C7.92125 6.6875 9.33875 7.48375 9.51375 8.5075L10.8088 8.28C10.7212 7.86032 10.5478 7.4633 10.2993 7.11394C10.0508 6.76457 9.73271 6.47042 9.365 6.25L9.155 4.28125H13.53L12.8125 12.375C12.8081 12.4299 12.7831 12.4812 12.7426 12.5185C12.702 12.5558 12.6489 12.5764 12.5938 12.5763H10.765C10.8047 12.345 10.8252 12.1109 10.8262 11.8763H9.51375C9.51375 12.8913 9.51375 13.4513 6.2325 13.4513C2.95125 13.4513 2.95125 12.8913 2.95125 11.8763H1.63875C1.63875 14.3175 3.1875 14.7638 6.2325 14.7638C8.11375 14.7638 9.4175 14.5888 10.1437 13.8888H12.5938C12.9751 13.8948 13.3447 13.7566 13.6286 13.502C13.9125 13.2473 14.0898 12.8948 14.125 12.515L15 2.96875H12.1562Z" fill="#242E30"/>
</svg>
