<svg width="32" height="32" viewBox="0 0 32 32" fill="none" xmlns="http://www.w3.org/2000/svg">
<path d="M25.5119 14.218C24.5184 12.6406 22.6012 11.4031 20.44 10.9936C21.172 10.5927 21.7995 10.0872 22.3223 9.4772C24.3006 7.18526 24.0565 4.30945 24.0478 4.18744L23.9781 3.45542L23.2461 3.40313C21.1633 3.24627 19.4117 3.76914 18.026 4.97176C16.684 6.1308 15.952 7.69942 15.5511 8.98046C13.9738 5.80835 10.7058 5.59921 10.148 5.58178V7.3247C10.5315 7.3247 13.5467 7.4467 14.4182 10.9848C11.2025 10.3574 7.93454 11.9173 6.4792 14.2267C5.39859 15.9435 5.4596 17.7125 5.49445 18.7757C5.6426 23.0546 8.51842 28.0132 12.5533 28.5535C12.7624 28.5796 12.9716 28.597 13.1894 28.597C13.3114 28.597 13.4335 28.597 13.5555 28.5796C14.3572 28.5186 15.1502 28.231 15.9258 27.7169C16.6491 28.1265 18.026 28.7365 19.4291 28.5535C23.4727 28.0045 26.3485 23.0546 26.4879 18.7757C26.5228 17.7212 26.5838 15.9435 25.5032 14.2267L25.5119 14.218ZM17.8605 7.94343C18.8365 6.14823 20.3267 5.19834 22.2875 5.11991C22.2178 5.93908 21.9389 7.25498 20.989 8.34431C20.0914 9.38134 18.7494 10.0262 17.0064 10.279C17.1546 9.63407 17.4073 8.77132 17.8605 7.93472V7.94343ZM24.7537 18.706C24.6317 22.2005 22.3223 26.3923 19.2025 26.8193C18.1132 26.9674 16.8234 26.2528 16.4138 25.9652L15.9171 25.6079L14.9934 26.2354C14.4618 26.5927 13.9389 26.7931 13.4335 26.8367C13.2243 26.8541 13.0064 26.8454 12.806 26.8193C9.68617 26.401 7.36809 22.2092 7.2548 18.706C7.21994 17.7909 7.17637 16.414 7.9694 15.1417C8.89315 13.6689 10.8888 12.5796 12.989 12.5796C13.8605 12.5796 14.7494 12.7713 15.586 13.1896L15.9781 13.3901L16.3703 13.1896C19.1764 11.7692 22.7319 13.0502 24.0478 15.1417C24.8409 16.414 24.7973 17.7909 24.7624 18.706H24.7537Z" fill="#242E30"/>
</svg>
