<svg width="16" height="16" viewBox="0 0 16 16" fill="none" xmlns="http://www.w3.org/2000/svg">
<path d="M8.35893 9.16375L9.12018 6.88L6.83643 7.64125C7.48552 7.98405 8.01613 8.51466 8.35893 9.16375Z" fill="#242E30"/>
<path fill-rule="evenodd" clip-rule="evenodd" d="M7.99992 1.41992C6.69852 1.41992 5.42635 1.80583 4.34427 2.52885C3.2622 3.25187 2.41882 4.27953 1.9208 5.48187C1.42277 6.6842 1.29247 8.00722 1.54636 9.28362C1.80025 10.56 2.42693 11.7324 3.34716 12.6526C4.26739 13.5729 5.43984 14.1996 6.71623 14.4534C7.99262 14.7073 9.31564 14.577 10.518 14.079C11.7203 13.581 12.748 12.7376 13.471 11.6555C14.194 10.5735 14.5799 9.30132 14.5799 7.99992C14.5799 6.2548 13.8867 4.58115 12.6527 3.34716C11.4187 2.11317 9.74505 1.41992 7.99992 1.41992ZM5.68132 8.61244L4.35132 8.27994V7.06369L11.2288 4.81494L8.93632 11.6924H7.76382L7.43132 10.3624C7.33182 9.93658 7.11522 9.54702 6.80598 9.23778C6.49674 8.92854 6.10718 8.71194 5.68132 8.61244Z" fill="#242E30"/>
</svg>
