<svg width="32" height="32" viewBox="0 0 32 32" fill="none" xmlns="http://www.w3.org/2000/svg">
<path d="M23.464 18.2876C23.2287 18.2876 22.732 18.305 22.1045 18.3311C22.793 16.7102 22.9498 13.146 22.976 12.3878L23.0283 10.9935L21.7559 11.5599C21.4335 11.6993 20.5707 12.1002 19.6121 12.5969C19.7951 12.1438 19.8997 11.6558 19.8997 11.1416C19.8997 9.31154 17.2679 5.01524 16.745 4.16993L16.0043 2.98474L15.2636 4.16993C14.732 5.01524 12.1089 9.31154 12.1089 11.1416C12.1089 11.6558 12.2134 12.1525 12.3965 12.6057C11.4378 12.1002 10.5751 11.6993 10.2527 11.5512L8.98033 10.976L9.02391 12.3704C9.05005 13.1285 9.18948 16.7015 9.86922 18.3224C9.2592 18.2876 8.77118 18.2789 8.5446 18.2789L7.15027 18.2614L7.74286 19.525C8.10016 20.2832 9.93894 24.1089 11.2548 24.963C11.8126 25.3203 12.4487 25.512 13.0936 25.512C13.3376 25.512 13.5729 25.4858 13.8169 25.4335C14.305 25.329 14.7407 25.1198 15.1328 24.8235V29.0065H16.8758V24.8322C17.4683 25.268 18.1829 25.512 18.9063 25.512C19.5337 25.512 20.1786 25.3377 20.745 24.9717C22.0609 24.1176 23.9084 20.2919 24.257 19.5338L24.8496 18.2701L23.4553 18.2876H23.464ZM20.44 17.7996C19.9259 18.5577 18.8975 18.7582 18.1394 18.244C17.3812 17.7298 17.1808 16.7015 17.6949 15.9433C18.0087 15.4815 19.5511 14.5664 21.1633 13.7734C21.0239 15.5686 20.7538 17.3377 20.44 17.7996ZM16.0043 6.33115C17.0588 8.16121 18.1568 10.3573 18.1568 11.1503C18.1568 12.3355 17.1895 13.3028 16.0043 13.3028C14.8191 13.3028 13.8518 12.3355 13.8518 11.1503C13.8518 10.3573 14.9498 8.16121 16.0043 6.33115ZM14.2962 15.9608C14.8017 16.7189 14.6012 17.7473 13.8431 18.2614C13.4771 18.5054 13.0326 18.5926 12.5969 18.5054C12.1612 18.4183 11.7864 18.1656 11.5424 17.7996C11.2374 17.3377 10.976 15.5599 10.8453 13.7734C12.4487 14.5839 13.9912 15.4989 14.2962 15.9608ZM14.4967 23.0109C13.9999 23.7778 12.9716 23.9956 12.2047 23.5076C11.7341 23.2026 10.793 21.6863 9.96508 20.0915C11.7603 20.1961 13.5381 20.4226 13.9999 20.7277C14.3747 20.9717 14.6274 21.3377 14.7233 21.7734C14.8191 22.2091 14.732 22.6449 14.4967 23.0196V23.0109ZM19.8039 23.4989C19.4378 23.7429 18.9934 23.8213 18.5577 23.7255C18.1219 23.6296 17.7559 23.3769 17.5119 23.0022C17.2679 22.6274 17.1895 22.1917 17.2853 21.756C17.3812 21.3203 17.6339 20.9542 18.0087 20.7102C18.4792 20.4052 20.2483 20.1786 22.0435 20.0741C21.2156 21.6688 20.2657 23.1939 19.8039 23.4902V23.4989Z" fill="#242E30"/>
</svg>
