<svg width="16" height="16" viewBox="0 0 16 16" fill="none" xmlns="http://www.w3.org/2000/svg">
<path d="M11.9332 7.37738C11.6892 7.49063 11.2362 7.69101 10.7396 7.94365C10.8268 7.67358 10.879 7.3948 10.879 7.0986C10.879 5.75697 8.94496 2.59455 8.56163 1.97601L8.00407 1.0874L7.44651 1.97601C7.05448 2.59455 5.12915 5.75697 5.12915 7.0986C5.12915 7.3948 5.19013 7.6823 5.26854 7.95236C4.76325 7.69972 4.31894 7.48192 4.0663 7.37738L3.1167 6.9505L3.15155 7.99592C3.17769 8.80613 3.29965 11.5329 3.89206 12.4128C4.35379 13.101 5.11173 13.4757 5.88708 13.4757C6.3401 13.4757 6.80183 13.345 7.21129 13.0749C7.26356 13.0401 7.29841 12.9965 7.35068 12.9617V14.8086H8.65746V12.9704C8.65746 12.9704 8.72716 13.0401 8.77072 13.0662C9.17146 13.3363 9.63319 13.4757 10.1037 13.4757C10.2518 13.4757 10.4086 13.4582 10.5654 13.4321C11.1927 13.3101 11.7328 12.9529 12.09 12.4215C12.6824 11.5416 12.8305 8.82355 12.8566 8.00464L12.8915 6.95921L11.9332 7.38609V7.37738ZM6.47949 11.9772C5.98291 12.3083 5.3121 12.1776 4.97233 11.681C4.77196 11.3761 4.59772 10.2261 4.51061 9.03264C5.57346 9.57277 6.57532 10.1739 6.7757 10.4788C7.10675 10.9753 6.97607 11.6549 6.47949 11.9859V11.9772ZM6.42722 7.0986C6.42722 6.52362 7.22871 4.92934 7.99536 3.58771C8.762 4.92934 9.5635 6.52362 9.5635 7.0986C9.5635 7.96108 8.85784 8.66674 7.99536 8.66674C7.13288 8.66674 6.42722 7.96108 6.42722 7.0986ZM11.001 11.681C10.8355 11.9249 10.5915 12.0818 10.3128 12.1427C10.0253 12.195 9.73774 12.1427 9.50252 11.9772C9.00594 11.6462 8.87526 10.9666 9.20631 10.4701C9.40668 10.1651 10.4173 9.57277 11.4802 9.04135C11.3843 10.2348 11.2014 11.3848 11.001 11.6897V11.681Z" fill="#242E30"/>
</svg>
