<svg width="16" height="16" viewBox="0 0 16 16" fill="none" xmlns="http://www.w3.org/2000/svg">
<path d="M14.5627 7.53633H12.8914L13.5214 4.63133L12.3839 2.76758L12.5064 2.20758L11.0539 1.89258L10.9139 2.52258L9.12895 3.67758L8.83144 5.06008C8.77894 5.06008 8.7177 5.05133 8.6652 5.04258C8.60395 4.22008 8.0877 3.51133 7.36144 3.28383C6.81894 3.11758 6.22394 3.21383 5.76894 3.54633C5.63769 3.64258 5.52395 3.75633 5.4277 3.88758C5.12145 3.67758 4.78895 3.55508 4.43895 3.55508C4.0102 3.53758 3.58145 3.72133 3.30145 4.03633C2.70645 4.70133 2.77645 5.34008 2.86395 5.65508C2.89895 5.78633 2.9602 5.90883 3.02145 6.02258C2.9952 6.04008 2.96895 6.05758 2.95145 6.08383C2.6102 6.37258 2.4177 6.80133 2.4177 7.25633C2.4177 7.35258 2.42645 7.44883 2.44395 7.53633H1.2627V8.84883H1.8577L2.7677 12.6026C2.98645 13.5039 3.7827 14.1251 4.70145 14.1251H11.1414C12.0689 14.1251 12.8652 13.4951 13.0752 12.6026L13.9852 8.84883H14.5539V7.53633H14.5627ZM8.42895 6.33758C9.2602 6.33758 9.95143 6.84508 10.1789 7.53633H6.67895C6.90645 6.84508 7.59769 6.33758 8.42895 6.33758ZM10.3014 4.48258L11.4477 3.74758L12.1302 4.86758L11.5527 7.53633H11.5264C11.3777 6.67008 10.8439 5.92633 10.0827 5.48008L10.3014 4.48258ZM3.7302 7.25633C3.7302 7.18633 3.75645 7.11633 3.80895 7.08133C3.8352 7.05508 3.87895 7.02883 3.98395 7.04633C4.6752 7.15133 4.9902 6.80133 5.06019 6.47758C5.08644 6.36383 5.1652 5.78633 4.3602 5.55008C4.3077 5.53258 4.15895 5.42758 4.12395 5.28758C4.0977 5.18258 4.1502 5.06008 4.28145 4.91133C4.3077 4.88508 4.35145 4.86758 4.40395 4.86758C4.47395 4.87633 4.6577 4.89383 4.87645 5.16508C5.19145 5.55008 5.5502 5.52383 5.69895 5.49758C6.16269 5.41008 6.34645 4.96383 6.39019 4.84133C6.42519 4.73633 6.47769 4.65758 6.5477 4.60508C6.69644 4.50008 6.8802 4.51758 6.9677 4.54383C7.1602 4.60508 7.35269 4.85883 7.36144 5.21758C6.30269 5.58508 5.5152 6.46008 5.3402 7.53633H4.08895C3.80895 7.53633 3.7477 7.38758 3.7477 7.25633H3.7302ZM11.8064 12.2876C11.7364 12.5939 11.4564 12.8126 11.1414 12.8126H4.7102C4.3952 12.8126 4.12395 12.5939 4.0452 12.2876L3.21395 8.84883H12.6464L11.8152 12.2876H11.8064Z" fill="#242E30"/>
<path d="M8.96263 10.1699H7.09888V11.4824H8.96263V10.1699Z" fill="#242E30"/>
</svg>
