<svg width="16" height="16" viewBox="0 0 16 16" fill="none" xmlns="http://www.w3.org/2000/svg">
<path d="M7.99997 7.4407L10.8875 4.55321C11.0793 4.36216 11.2315 4.13511 11.3354 3.8851C11.4392 3.63509 11.4927 3.36704 11.4927 3.09632C11.4927 2.8256 11.4392 2.55755 11.3354 2.30754C11.2315 2.05753 11.0793 1.83049 10.8875 1.63945C10.502 1.26545 9.98778 1.05339 9.45069 1.04688C8.91361 1.04037 8.39444 1.2399 7.99997 1.60445C7.60896 1.23717 7.09268 1.03271 6.55622 1.03271C6.01977 1.03271 5.50348 1.23717 5.11247 1.60445C4.92066 1.79549 4.76847 2.02253 4.66462 2.27254C4.56077 2.52255 4.50732 2.79061 4.50732 3.06133C4.50732 3.33205 4.56077 3.60009 4.66462 3.8501C4.76847 4.10011 4.92066 4.32716 5.11247 4.51821L7.99997 7.4407ZM6.10122 2.6282C6.16177 2.56378 6.23502 2.51263 6.31635 2.47799C6.39769 2.44335 6.48532 2.42597 6.57372 2.42695C6.66189 2.42749 6.74907 2.44557 6.83018 2.48012C6.9113 2.51467 6.98474 2.565 7.04622 2.6282L7.99997 3.6257L8.95372 2.6282C9.08081 2.50627 9.25011 2.43819 9.42622 2.43819C9.60234 2.43819 9.77164 2.50627 9.89872 2.6282C9.96089 2.68928 10.0103 2.76213 10.044 2.84251C10.0777 2.92288 10.0951 3.00917 10.0951 3.09632C10.0951 3.18348 10.0777 3.26976 10.044 3.35014C10.0103 3.43051 9.96089 3.50338 9.89872 3.56446L7.99997 5.4632L6.10122 3.56446C6.03905 3.50338 5.98967 3.43051 5.95596 3.35014C5.92225 3.26976 5.90489 3.18348 5.90489 3.09632C5.90489 3.00917 5.92225 2.92288 5.95596 2.84251C5.98967 2.76213 6.03905 2.68928 6.10122 2.6282Z" fill="#242E30"/>
<path d="M13.7487 9.3125C13.3001 8.98128 12.7515 8.81366 12.1943 8.83754C11.6372 8.86142 11.1049 9.07535 10.6862 9.44375L9.42625 10.5725C9.22767 10.7466 8.97282 10.8429 8.70875 10.8438H8.39375C8.56675 10.5051 8.65672 10.1302 8.65625 9.75V8.21875H5.305C4.83165 8.21868 4.36888 8.35873 3.975 8.62125L1.95375 9.96875H1V11.2813H2.3475L4.70125 9.75C4.8789 9.62828 5.08967 9.56414 5.305 9.56625H7.34375V9.75C7.34375 10.0401 7.22852 10.3183 7.0234 10.5234C6.81828 10.7285 6.54008 10.8438 6.25 10.8438H5.27L4.605 12.1563H8.70875C9.291 12.1546 9.85319 11.9434 10.2925 11.5613L11.5612 10.4325C11.7535 10.2624 11.9983 10.1635 12.2548 10.1524C12.5112 10.1412 12.7637 10.2185 12.97 10.3713H13.0312L10.625 13.11C10.5214 13.2226 10.3956 13.3126 10.2556 13.3743C10.1156 13.4361 9.96428 13.4682 9.81125 13.4688H1V14.7813H9.84625C10.1851 14.7809 10.52 14.709 10.8291 14.5703C11.1382 14.4316 11.4145 14.2292 11.64 13.9763L15 10.205L13.7487 9.3125Z" fill="#242E30"/>
</svg>
