<svg width="32" height="32" viewBox="0 0 32 32" fill="none" xmlns="http://www.w3.org/2000/svg">
<path d="M11.8562 14.8106L5.09369 10.2005C4.66667 9.91296 4.12637 9.8781 3.67321 10.1221C3.20262 10.3661 2.91504 10.8541 2.91504 11.3944V20.6232C2.91504 21.1635 3.20262 21.6428 3.67321 21.8955C4.12637 22.1308 4.66667 22.1047 5.09369 21.8171L11.8562 17.2071C12.2484 16.9456 12.475 16.5012 12.475 16.0219C12.475 15.5426 12.2397 15.0981 11.8562 14.8367V14.8106ZM4.38781 20.5012L4.36166 11.4729L10.9935 15.9957L4.39652 20.5012H4.38781Z" fill="#242E30"/>
<path d="M16.8584 22.3748H15.1155V24.1962H16.8584V22.3748Z" fill="#242E30"/>
<path d="M16.8584 7.80396H15.1155V9.62532H16.8584V7.80396Z" fill="#242E30"/>
<path d="M16.8584 11.4465H15.1155V13.2679H16.8584V11.4465Z" fill="#242E30"/>
<path d="M16.8584 18.7319H15.1155V20.5533H16.8584V18.7319Z" fill="#242E30"/>
<path d="M16.8584 15.0894H15.1155V16.9108H16.8584V15.0894Z" fill="#242E30"/>
<path d="M28.3268 10.122C27.8736 9.88667 27.3333 9.91282 26.9063 10.2004L20.1438 14.8105C19.7516 15.0719 19.5251 15.5163 19.5251 15.9956C19.5251 16.4749 19.7604 16.9194 20.1438 17.1808L26.9063 21.7909C27.3333 22.0784 27.8736 22.1133 28.3268 21.8693C28.7974 21.6253 29.085 21.1373 29.085 20.597V11.3682C29.085 10.8279 28.7974 10.3486 28.3268 10.0959V10.122ZM27.6122 20.5098L21.0153 16.0044L27.6471 11.4815L27.6209 20.5098H27.6122Z" fill="#242E30"/>
</svg>
