<svg width="16" height="16" viewBox="0 0 16 16" fill="none" xmlns="http://www.w3.org/2000/svg">
<path d="M8.91886 6.24999L9.89011 5.28749L8.96261 4.35999L8.00011 5.30499L7.03761 4.35999L6.11011 5.28749L7.05511 6.24999H7.12511L6.11011 7.21249L7.03761 8.13999L8.00011 7.19499L8.96261 8.13999L9.89011 7.21249L8.94511 6.24999H8.91886Z" fill="#242E30"/>
<path d="M13.0312 9.11125V4.0625C13.029 3.6571 12.8669 3.26895 12.5802 2.98228C12.2936 2.69561 11.9054 2.53355 11.5 2.53125H4.5C4.0946 2.53355 3.70645 2.69561 3.41978 2.98228C3.13311 3.26895 2.97105 3.6571 2.96875 4.0625V9.11125L1.21875 11.7362V11.9375C1.22105 12.3429 1.38311 12.7311 1.66978 13.0177C1.95645 13.3044 2.3446 13.4665 2.75 13.4688H13.25C13.6554 13.4665 14.0436 13.3044 14.3302 13.0177C14.6169 12.7311 14.779 12.3429 14.7812 11.9375V11.7362L13.0312 9.11125ZM4.28125 4.0625C4.28125 4.00448 4.3043 3.94884 4.34532 3.90782C4.38634 3.8668 4.44198 3.84375 4.5 3.84375H11.5C11.558 3.84375 11.6137 3.8668 11.6547 3.90782C11.6957 3.94884 11.7188 4.00448 11.7188 4.0625V8.65625H4.28125V4.0625ZM13.25 12.1562H9.56625L9.25125 11.4388H6.74875L6.43375 12.1562H2.75C2.71616 12.1556 2.68289 12.1474 2.65261 12.1323C2.62234 12.1171 2.59582 12.0954 2.575 12.0687L3.975 9.96875H12.025L13.425 12.0687C13.4042 12.0954 13.3777 12.1171 13.3474 12.1323C13.3171 12.1474 13.2838 12.1556 13.25 12.1562Z" fill="#242E30"/>
</svg>
