<svg width="16" height="16" viewBox="0 0 16 16" fill="none" xmlns="http://www.w3.org/2000/svg">
<path d="M13.0312 9.47875V3.625C13.029 3.2196 12.8669 2.83145 12.5802 2.54478C12.2936 2.25811 11.9054 2.09605 11.5 2.09375H4.5C4.0946 2.09605 3.70645 2.25811 3.41978 2.54478C3.13311 2.83145 2.97105 3.2196 2.96875 3.625V9.47875L1.21875 11.2287V12.375C1.22105 12.7804 1.38311 13.1686 1.66978 13.4552C1.95645 13.7419 2.3446 13.904 2.75 13.9062H13.25C13.6554 13.904 14.0436 13.7419 14.3302 13.4552C14.6169 13.1686 14.779 12.7804 14.7812 12.375V11.2287L13.0312 9.47875ZM4.28125 3.625C4.28125 3.56698 4.3043 3.51134 4.34532 3.47032C4.38634 3.4293 4.44198 3.40625 4.5 3.40625H11.5C11.558 3.40625 11.6137 3.4293 11.6547 3.47032C11.6957 3.51134 11.7188 3.56698 11.7188 3.625V9.09375H4.28125V3.625ZM13.4688 12.375C13.4688 12.433 13.4457 12.4887 13.4047 12.5297C13.3637 12.5707 13.308 12.5938 13.25 12.5938H2.75C2.69198 12.5938 2.63634 12.5707 2.59532 12.5297C2.5543 12.4887 2.53125 12.433 2.53125 12.375V11.7713L3.89625 10.4062H12.1037L13.4688 11.7713V12.375ZM9.37375 4.5L10.3013 5.375L7.34375 8.3675L5.69875 6.71375L6.62625 5.78625L7.34375 6.50375L9.37375 4.5Z" fill="#242E30"/>
</svg>
