<svg width="32" height="32" viewBox="0 0 32 32" fill="none" xmlns="http://www.w3.org/2000/svg">
<path d="M15.7987 15.2562C16.6159 15.2562 17.4147 15.0138 18.0941 14.5596C18.7734 14.1054 19.3028 13.4599 19.6151 12.7047C19.9275 11.9495 20.0087 11.1187 19.8487 10.3173C19.6886 9.51589 19.2944 8.78001 18.7159 8.20277C18.1374 7.62553 17.4007 7.23287 16.599 7.07451C15.7973 6.91614 14.9666 6.99918 14.2121 7.31311C13.4576 7.62704 12.8132 8.15775 12.3604 8.83808C11.9077 9.5184 11.6669 10.3178 11.6687 11.135C11.6687 11.6769 11.7756 12.2136 11.9832 12.7141C12.1909 13.2147 12.4952 13.6694 12.8788 14.0522C13.2625 14.4351 13.7178 14.7384 14.2188 14.945C14.7199 15.1516 15.2567 15.2574 15.7987 15.2562ZM15.7987 8.65871C16.2884 8.65871 16.7672 8.80394 17.1744 9.07604C17.5816 9.34813 17.899 9.73487 18.0864 10.1874C18.2738 10.6398 18.3229 11.1377 18.2273 11.6181C18.1318 12.0984 17.896 12.5396 17.5496 12.886C17.2033 13.2323 16.7621 13.4681 16.2818 13.5637C15.8014 13.6592 15.3035 13.6102 14.851 13.4227C14.3986 13.2353 14.0118 12.9179 13.7397 12.5107C13.4676 12.1035 13.3224 11.6247 13.3224 11.135C13.3224 10.4782 13.5833 9.84838 14.0477 9.38399C14.5121 8.9196 15.1419 8.65871 15.7987 8.65871Z" fill="#242E30"/>
<path d="M23.5863 6.12992C22.5954 5.12407 21.4145 4.32531 20.1121 3.78009C18.8097 3.23488 17.4119 2.9541 16 2.9541C14.5881 2.9541 13.1903 3.23488 11.8879 3.78009C10.5855 4.32531 9.40459 5.12407 8.41377 6.12992C6.40292 8.17266 5.27588 10.9241 5.27588 13.7905C5.27588 16.6569 6.40292 19.4084 8.41377 21.4511L16 29.1249L23.5863 21.4511C25.5971 19.4084 26.7242 16.6569 26.7242 13.7905C26.7242 10.9241 25.5971 8.17266 23.5863 6.12992ZM18.9313 23.8136L16.875 25.9311L16 26.8061L13.235 24.0149L9.66502 20.3749C10.127 19.8042 10.7112 19.3444 11.3745 19.0294C12.0378 18.7145 12.7633 18.5523 13.4975 18.5549H18.1C18.8883 18.5459 19.6668 18.7292 20.3682 19.0891C21.0695 19.4489 21.6726 19.9744 22.125 20.6199L18.9313 23.8136ZM23.2188 19.3511C22.6063 18.5804 21.8281 17.9576 20.9419 17.5289C20.0558 17.1003 19.0844 16.8767 18.1 16.8749H13.4975C12.5734 16.8726 11.6592 17.0655 10.8148 17.4409C9.97041 17.8164 9.21483 18.3659 8.59752 19.0536C7.36012 17.2796 6.78166 15.1288 6.96222 12.9734C7.14277 10.8179 8.07097 8.79341 9.58627 7.24992C10.424 6.39963 11.4225 5.72441 12.5235 5.26353C13.6246 4.80264 14.8064 4.5653 16 4.5653C17.1937 4.5653 18.3754 4.80264 19.4765 5.26353C20.5776 5.72441 21.576 6.39963 22.4138 7.24992C23.9782 8.83446 24.9204 10.9289 25.0682 13.1507C25.216 15.3725 24.5596 17.5733 23.2188 19.3511Z" fill="#242E30"/>
</svg>
