<svg width="32" height="32" viewBox="0 0 32 32" fill="none" xmlns="http://www.w3.org/2000/svg">
<path d="M23.7603 21.7212C23.6209 20.9456 23.1503 20.2048 22.6623 19.5251C22.3398 19.0719 21.9825 18.6275 21.5729 18.2615C21.6426 18.2179 21.7211 18.183 21.7821 18.1395C23.7429 16.7364 22.3224 14.7669 21.7908 14.0262C21.5816 13.7386 21.2331 13.2506 20.7712 12.8584C20.9106 12.7538 21.0501 12.6493 21.1633 12.536C21.9825 11.7168 21.9215 10.8889 21.7298 10.3312C21.5119 9.71245 21.0413 9.18958 20.562 8.71027C20.0827 8.23097 19.5599 7.76038 18.9411 7.54252C18.793 7.49023 18.6187 7.44666 18.427 7.42923C18.8365 6.6972 19.0631 5.85188 19.0631 5.16343C19.0631 2.9325 16.7712 2.9325 16.013 2.9325C15.2549 2.9325 12.9629 2.9325 12.9629 5.16343C12.9629 5.85188 13.1895 6.6972 13.5991 7.42923C13.3986 7.44666 13.2069 7.48151 13.0501 7.54252C12.4313 7.76038 11.9084 8.23097 11.4291 8.71027C10.9498 9.18958 10.4793 9.71245 10.2614 10.3312C10.0697 10.8802 10.0087 11.7081 10.8278 12.5273C10.9411 12.6406 11.0806 12.7451 11.22 12.8584C10.7581 13.2506 10.4095 13.7299 10.2004 14.0262C9.66879 14.7669 8.25703 16.7364 10.2091 18.1395C10.2701 18.183 10.3485 18.2179 10.4182 18.2615C10.0174 18.6275 9.66008 19.0719 9.32892 19.5251C8.67533 20.4401 7.13285 22.5926 9.3115 24.1525C10.0958 24.719 11.2984 25.1111 12.44 25.1896C12.5708 25.1983 12.7102 25.207 12.8322 25.207C13.2069 25.207 13.5468 25.1547 13.8692 25.085L15.1067 25.8257V29.0763H16.8583V25.8606L18.1481 25.085C18.4793 25.1547 18.8191 25.207 19.1764 25.207C20.4487 25.207 21.7995 24.78 22.671 24.1525C23.7777 23.3595 23.8649 22.3922 23.7516 21.7299L23.7603 21.7212ZM20.7712 16.719C20.3442 17.024 19.6121 17.2593 18.9411 17.3029C18.3311 17.3464 17.8344 17.2157 17.6601 16.9804C17.2766 16.4488 18.0087 14.7669 18.9063 14.122C19.22 13.8955 19.4466 13.7299 20.379 15.0284C21.3115 16.3268 21.0849 16.4837 20.7625 16.7103L20.7712 16.719ZM18.2701 9.16343C18.2701 9.16343 18.3398 9.17215 18.366 9.18086C18.6623 9.28544 19.0544 9.66016 19.3333 9.93903C19.6121 10.2179 19.9869 10.6101 20.0915 10.9064C20.1263 10.9935 20.1525 11.0806 19.9346 11.2985C19.6034 11.6297 18.9934 11.9434 18.4095 12.0741C17.8867 12.1961 17.4422 12.1613 17.2766 11.9957C17.1111 11.8301 17.0762 11.3857 17.1982 10.8628C17.3376 10.2789 17.6426 9.66888 17.9738 9.33772C18.1132 9.19829 18.2004 9.16343 18.2614 9.16343H18.2701ZM16.0217 4.67541C17.3289 4.67541 17.3289 4.87585 17.3289 5.16343C17.3289 6.06975 16.5533 7.42051 16.0217 7.42051C15.4901 7.42051 14.7145 6.06975 14.7145 5.16343C14.7145 4.88456 14.7145 4.67541 16.0217 4.67541ZM11.9172 10.9064C12.0217 10.6101 12.3965 10.2092 12.6753 9.93903C12.9542 9.66888 13.3464 9.28544 13.6426 9.18086C13.6775 9.17215 13.7037 9.16343 13.7385 9.16343C13.8082 9.16343 13.8867 9.19829 14.0261 9.33772C14.3572 9.66888 14.671 10.2789 14.8017 10.8628C14.9237 11.3857 14.8888 11.8301 14.7233 11.9957C14.5577 12.1613 14.1132 12.1961 13.5904 12.0741C13.0065 11.9347 12.3965 11.6209 12.0653 11.2985C11.8474 11.0806 11.8823 10.9935 11.9084 10.9064H11.9172ZM11.6296 15.0371C12.2222 14.2092 12.5359 13.9739 12.7625 13.9739C12.8932 13.9739 12.9891 14.0436 13.1023 14.1308C13.9999 14.7756 14.732 16.4576 14.3485 16.9891C14.183 17.2244 13.6862 17.3552 13.0675 17.3116C12.3965 17.268 11.6644 17.0327 11.2374 16.7277C10.9237 16.5011 10.6971 16.3355 11.6209 15.0458L11.6296 15.0371ZM14.2091 23.0109C13.9825 23.3334 13.3464 23.4989 12.5708 23.4467C11.7603 23.3944 10.8627 23.1068 10.3398 22.7321C9.93023 22.4358 9.57293 22.183 10.7581 20.536C11.0893 20.0741 11.5163 19.5164 11.9084 19.3072C11.9869 19.2637 12.074 19.2201 12.1873 19.2201C12.318 19.2201 12.4749 19.2724 12.7015 19.4379C13.7647 20.1961 14.7494 22.244 14.2004 23.0109H14.2091ZM21.6688 22.7321C20.6143 23.4902 18.3572 23.7691 17.8082 23.0109C17.2592 22.244 18.2527 20.1961 19.3071 19.4379C19.7167 19.1416 19.9172 19.2114 20.1002 19.3072C20.4923 19.5251 20.9193 20.0741 21.2505 20.536C21.5816 20.9979 21.9738 21.5817 22.0522 22.0262C22.0871 22.2266 22.0871 22.4358 21.6775 22.7321H21.6688Z" fill="#242E30"/>
</svg>
