<svg width="16" height="16" viewBox="0 0 16 16" fill="none" xmlns="http://www.w3.org/2000/svg">
<path d="M13.3272 11.7592C12.761 10.1649 11.1841 9.08464 9.40689 9.08464H6.59295C4.81572 9.08464 3.23887 10.1562 2.6726 11.7592L1.84497 14.094H3.23016L3.90969 12.1948C4.29301 11.1145 5.37328 10.3914 6.60166 10.3914H6.81075L7.71678 11.2975L6.59295 13.1095L8.01299 14.5296L9.43302 13.1095L8.30919 11.2975L9.21523 10.3914H9.42431C10.6527 10.3914 11.733 11.1145 12.1163 12.1948L12.7958 14.094H14.181L13.3534 11.7592H13.3272Z" fill="#242E30"/>
<path d="M7.99556 7.99566C9.67696 7.99566 11.0447 6.62789 11.0447 4.9465C11.0447 3.26511 9.67696 1.89734 7.99556 1.89734C6.31417 1.89734 4.9464 3.26511 4.9464 4.9465C4.9464 6.62789 6.31417 7.99566 7.99556 7.99566ZM7.99556 3.20412C8.95387 3.20412 9.73794 3.98819 9.73794 4.9465C9.73794 5.90481 8.95387 6.68888 7.99556 6.68888C7.03725 6.68888 6.25318 5.90481 6.25318 4.9465C6.25318 3.98819 7.03725 3.20412 7.99556 3.20412Z" fill="#242E30"/>
</svg>
