<svg viewBox="0 0 28 28" fill="none" xmlns="http://www.w3.org/2000/svg">
<path d="M27.125 10.5V21.875C27.125 22.3391 26.9406 22.7842 26.6124 23.1124C26.2842 23.4406 25.8391 23.625 25.375 23.625H2.625C2.16087 23.625 1.71575 23.4406 1.38756 23.1124C1.05937 22.7842 0.875 22.3391 0.875 21.875V10.5C0.875 10.0359 1.05937 9.59074 1.38756 9.26255C1.71575 8.93436 2.16087 8.74999 2.625 8.74999H5.18V9.62499C5.1855 9.92052 5.22663 10.2143 5.3025 10.5C5.3025 10.605 5.355 10.71 5.39875 10.8412C5.39875 10.8412 5.4775 11.06 5.50375 11.1037C5.87716 12.0838 6.55888 12.916 7.44625 13.475C7.57355 13.5561 7.67913 13.667 7.75385 13.7981C7.82857 13.9293 7.87015 14.0766 7.875 14.2275V19.25C7.875 19.482 7.96719 19.7046 8.13128 19.8687C8.29538 20.0328 8.51794 20.125 8.75 20.125H12.25C12.4821 20.125 12.7046 20.0328 12.8687 19.8687C13.0328 19.7046 13.125 19.482 13.125 19.25V14.1312C13.1269 14.0013 13.1577 13.8734 13.2153 13.7569C13.2728 13.6403 13.3555 13.538 13.4575 13.4575C13.5813 14.0471 13.8724 14.5885 14.2961 15.0169C14.7198 15.4452 15.258 15.7423 15.8463 15.8725L16.3538 15.9687C16.3013 16.8437 16.2487 17.64 16.1962 18.2262L16.1175 19.18C16.1078 19.3006 16.1233 19.422 16.1629 19.5364C16.2025 19.6507 16.2654 19.7557 16.3477 19.8445C16.4299 19.9333 16.5297 20.0041 16.6407 20.0524C16.7517 20.1006 16.8715 20.1254 16.9925 20.125H20.4925C20.7129 20.1257 20.9255 20.0432 21.0877 19.8939C21.25 19.7447 21.3499 19.5397 21.3675 19.32L21.4375 18.515C21.5863 16.66 21.7962 12.635 21.7875 8.74999H25.375C25.6048 8.74999 25.8324 8.79525 26.0447 8.8832C26.257 8.97114 26.4499 9.10005 26.6124 9.26255C26.7749 9.42505 26.9038 9.61797 26.9918 9.83029C27.0797 10.0426 27.125 10.2702 27.125 10.5ZM7.07 10.3425L7.1225 10.4737C7.34311 10.9927 7.68587 11.4507 8.12158 11.8088C8.5573 12.1668 9.07307 12.4142 9.625 12.53V18.375H11.375V12.495C11.8937 12.3644 12.3756 12.1167 12.7836 11.7709C13.1916 11.425 13.5149 10.9903 13.7287 10.5L13.7812 10.3687C13.7812 10.2987 13.825 10.2375 13.8425 10.1675C13.8978 9.98585 13.9273 9.79733 13.93 9.60748C13.93 9.60748 13.93 9.53748 13.93 9.50248V3.04498L12.18 3.91998V9.51124C12.1761 9.60947 12.1584 9.70667 12.1275 9.79998C12.0933 9.87393 12.0392 9.93687 11.9711 9.9817C11.9031 10.0265 11.8239 10.0515 11.7425 10.0537C11.6265 10.0537 11.5152 10.0076 11.4331 9.92559C11.3511 9.84355 11.305 9.73227 11.305 9.61623V3.04498L9.555 3.91998V9.62499C9.55276 9.74032 9.50595 9.8503 9.42438 9.93187C9.34281 10.0134 9.23283 10.0602 9.1175 10.0625C9.03457 10.0619 8.95352 10.0377 8.8838 9.99275C8.81409 9.94782 8.75858 9.884 8.72375 9.80874C8.69579 9.71499 8.68106 9.6178 8.68 9.51999V3.04498L6.93 3.91998V9.62499C6.92976 9.81443 6.95627 10.003 7.00875 10.185C7 10.2112 7.0525 10.2725 7.07 10.3425ZM15.1025 12.6962C14.8263 9.24432 15.6142 5.79065 17.36 2.79998C17.5252 2.51974 17.7874 2.30977 18.097 2.2098C18.4066 2.10983 18.7421 2.12679 19.04 2.25748C19.39 2.42373 19.8013 2.79998 19.915 4.25248C20.1268 8.96009 20.0538 13.6762 19.6963 18.375H17.9463C18.0163 17.5 18.1038 16.1437 18.1737 14.5162C17.5263 14.4025 16.4763 14.2187 16.205 14.1575C15.8815 14.0774 15.5953 13.8885 15.3946 13.6224C15.1939 13.3563 15.0907 13.0293 15.1025 12.6962ZM16.8525 12.5037L18.2437 12.7487C18.3225 10.185 18.3488 7.30623 18.2437 4.94373C17.1852 7.31737 16.7053 9.90844 16.8438 12.5037H16.8525Z"/>
</svg>
