<svg width="16" height="16" viewBox="0 0 16 16" fill="none" xmlns="http://www.w3.org/2000/svg">
<path d="M14.0725 9.80249C13.8494 9.58118 13.5843 9.40678 13.2928 9.28956C13.0012 9.17234 12.6892 9.11469 12.375 9.11999C12.4358 8.81087 12.4358 8.49286 12.375 8.18374L10.625 2.31249C10.531 1.98566 10.3296 1.7 10.0534 1.50158C9.77723 1.30315 9.44225 1.20352 9.1025 1.21874H6.355L7.02 2.53124H9.1025C9.14949 2.53258 9.1949 2.54845 9.23251 2.57665C9.27011 2.60485 9.29806 2.64401 9.3125 2.68874L11.0625 8.55999C11.1108 8.72435 11.1201 8.8977 11.0897 9.06629C11.0594 9.23488 10.9901 9.39407 10.8875 9.53124C10.7871 9.66863 10.6553 9.78002 10.5031 9.85612C10.3509 9.93223 10.1827 9.97084 10.0125 9.96874H8.63L7.93 7.46624C7.84646 7.13464 7.65492 6.84028 7.38559 6.62957C7.11626 6.41886 6.78446 6.30379 6.4425 6.30249H2.75C2.3446 6.30479 1.95645 6.46685 1.66978 6.75352C1.38311 7.04019 1.22105 7.42834 1.21875 7.83374V11.2812H2.54875C2.51308 11.632 2.55668 11.9863 2.67633 12.318C2.79598 12.6497 2.98861 12.9503 3.24 13.1975C3.46212 13.4218 3.7265 13.5999 4.01787 13.7215C4.30923 13.843 4.6218 13.9056 4.9375 13.9056C5.2532 13.9056 5.56577 13.843 5.85713 13.7215C6.1485 13.5999 6.41288 13.4218 6.635 13.1975C6.88639 12.9503 7.07902 12.6497 7.19867 12.318C7.31832 11.9863 7.36192 11.632 7.32625 11.2812H9.95125C9.95125 11.3512 9.95125 11.43 9.95125 11.5C9.94994 11.8963 10.0465 12.2867 10.2324 12.6367C10.4183 12.9867 10.6878 13.2853 11.0169 13.5061C11.3459 13.7269 11.7245 13.863 12.1188 13.9023C12.5131 13.9416 12.9111 13.8829 13.2772 13.7315C13.6434 13.58 13.9665 13.3404 14.2179 13.034C14.4692 12.7276 14.641 12.3639 14.7179 11.9752C14.7949 11.5864 14.7746 11.1847 14.659 10.8057C14.5433 10.4267 14.3359 10.0821 14.055 9.80249H14.0725ZM5.7075 12.27C5.50266 12.473 5.22592 12.587 4.9375 12.587C4.64908 12.587 4.37234 12.473 4.1675 12.27C4.03764 12.1443 3.94212 11.9874 3.89005 11.8143C3.83797 11.6413 3.83107 11.4577 3.87 11.2812H6.005C6.04393 11.4577 6.03703 11.6413 5.98495 11.8143C5.93288 11.9874 5.83736 12.1443 5.7075 12.27ZM2.53125 9.96874V7.83374C2.53125 7.77573 2.5543 7.72009 2.59532 7.67906C2.63634 7.63804 2.69198 7.61499 2.75 7.61499H6.4425C6.49402 7.61754 6.5433 7.63688 6.5828 7.67006C6.6223 7.70324 6.64985 7.74843 6.66125 7.79874L7.265 9.96874H2.53125ZM13.145 12.27C12.9391 12.4709 12.6627 12.5834 12.375 12.5834C12.0873 12.5834 11.8109 12.4709 11.605 12.27C11.4511 12.1174 11.346 11.9225 11.303 11.7101C11.26 11.4977 11.2811 11.2773 11.3636 11.0769C11.4461 10.8765 11.5863 10.7051 11.7663 10.5845C11.9464 10.4638 12.1583 10.3995 12.375 10.3995C12.5917 10.3995 12.8036 10.4638 12.9837 10.5845C13.1637 10.7051 13.3039 10.8765 13.3864 11.0769C13.4689 11.2773 13.49 11.4977 13.447 11.7101C13.404 11.9225 13.2989 12.1174 13.145 12.27Z" fill="#242E30"/>
</svg>
