<svg width="32" height="32" viewBox="0 0 32 32" fill="none" xmlns="http://www.w3.org/2000/svg">
<path d="M22.6187 15.2549V15.0893C22.6187 14.3922 22.3485 13.7386 21.7908 13.1895L19.8562 11.5861L19.7952 8.60566H18.7058L16.8845 2.87146H15.0283L13.2854 8.60566H12.196L12.1612 11.5861L10.1481 13.2418C9.65138 13.7386 9.38123 14.3922 9.38123 15.0893V15.2549L9.44223 15.4118C10.5141 18.0959 10.7146 20.9891 10.0348 23.7952L9.40737 26.3573L9.38123 26.5664C9.38123 28.0044 10.5577 29.1808 11.9956 29.1808H20.013C21.4509 29.1808 22.6274 28.0044 22.6274 26.5664L21.9738 23.7952C21.2854 20.9891 21.4945 18.0959 22.5664 15.4118L22.6274 15.2549H22.6187ZM16.8845 8.62309H15.0893L15.9695 5.73856L16.8845 8.62309ZM11.3072 14.5229L13.8867 12.4052L13.9128 10.3312H13.9302V10.3573H18.0522V10.3312H18.061L18.122 12.4052L20.6143 14.4619C20.7451 14.5926 20.8322 14.7582 20.8583 14.9412C20.7102 15.3246 20.5795 15.7168 20.4575 16.1089H11.5163C11.403 15.7168 11.2723 15.3246 11.1154 14.9412C11.1416 14.7669 11.22 14.61 11.2984 14.5229H11.3072ZM11.9259 17.8519H20.0653C19.8126 19.2898 19.769 20.7538 19.9259 22.2179H12.0566C12.2222 20.7625 12.1699 19.2985 11.9172 17.8519H11.9259ZM20.0043 27.4205H11.9869C11.5337 27.4205 11.1677 27.0719 11.1154 26.6362L11.7167 24.1961C11.7342 24.1176 11.7516 24.0305 11.769 23.9521H20.2222C20.2396 24.0305 20.2483 24.1176 20.2745 24.1961L20.8758 26.6362C20.8322 27.0719 20.4575 27.4205 20.0043 27.4205Z" fill="#242E30"/>
</svg>
