<svg width="16" height="16" viewBox="0 0 16 16" fill="none" xmlns="http://www.w3.org/2000/svg">
<g clip-path="url(#clip0_8387_3604)">
<path d="M14.6951 9.10203C14.6689 8.80583 14.6166 8.50962 14.5382 8.23084C14.2856 7.35094 13.8064 6.54074 13.1618 5.88735L11.6198 4.34534C11.8724 3.8749 11.8201 3.29121 11.4194 2.89046C9.68572 1.15679 6.86307 1.15679 5.12069 2.89046L4.70252 3.30863C3.93588 2.67266 2.69008 1.85374 1.3136 1.90602V3.27378C2.21963 3.22151 3.12567 3.79649 3.72679 4.29307L3.38703 4.63284C2.54197 5.47789 2.08024 6.59301 2.08024 7.78654C2.08024 8.98007 2.54197 10.0952 3.38703 10.9402C3.62225 11.1755 3.92716 11.3061 4.25822 11.3061C4.4673 11.3061 4.65896 11.2364 4.84191 11.1406L6.35778 12.6565C7.00246 13.3012 7.80395 13.7716 8.67514 14.0242C8.95392 14.1027 9.24142 14.1636 9.54633 14.1898C9.67701 14.1985 9.80769 14.2072 9.93837 14.2072C10.6353 14.2072 11.3758 14.0417 12.0902 13.7106L13.5886 12.9962L14.1723 11.7243C14.5905 10.8618 14.7735 9.9558 14.7038 9.11946L14.6951 9.10203ZM3.38703 7.77783C3.38703 6.93277 3.71808 6.1487 4.31049 5.54758L6.04415 3.81392C6.6627 3.20409 7.46419 2.89046 8.2744 2.89046C9.0846 2.89046 9.84254 3.17795 10.4524 3.76165L4.26693 9.94709C3.70066 9.35468 3.39574 8.58803 3.39574 7.76911L3.38703 7.77783ZM12.9788 11.1493L12.5868 12.0031L11.5239 12.5084C10.888 12.7959 10.2346 12.9178 9.65087 12.8656C9.43308 12.8481 9.22399 12.8046 9.02362 12.7523C8.36151 12.5607 7.75168 12.2035 7.26382 11.7156L5.80022 10.252L10.7311 5.32979L12.2209 6.81952C12.7087 7.30738 13.0746 7.92593 13.2663 8.59674C13.3273 8.79712 13.3621 9.0062 13.3796 9.224C13.4318 9.82512 13.2924 10.4872 12.9701 11.158L12.9788 11.1493Z" fill="#242E30"/>
</g>
<defs>
<clipPath id="clip0_8387_3604">
<rect width="14" height="14" fill="white" transform="translate(1 1)"/>
</clipPath>
</defs>
</svg>
