<svg width="32" height="32" viewBox="0 0 32 32" fill="none" xmlns="http://www.w3.org/2000/svg">
<path d="M14.5794 15.9733C14.7549 15.9146 14.9409 15.8938 15.1251 15.9125C15.3115 15.8935 15.4998 15.9148 15.6772 15.9751C15.8547 16.0354 16.017 16.1333 16.1532 16.262C16.2894 16.3907 16.3962 16.5473 16.4664 16.721C16.5366 16.8947 16.5686 17.0816 16.5601 17.2688C16.5643 17.4548 16.5295 17.6397 16.4578 17.8114C16.3861 17.9832 16.2792 18.138 16.144 18.2658C16.0087 18.3936 15.8481 18.4917 15.6726 18.5535C15.4971 18.6154 15.3106 18.6398 15.1251 18.625C14.9373 18.6401 14.7484 18.615 14.571 18.5516C14.3936 18.4882 14.2317 18.3878 14.0961 18.2571C13.9604 18.1264 13.854 17.9683 13.7841 17.7934C13.7141 17.6185 13.682 17.4307 13.6901 17.2425C13.6854 17.0575 13.7202 16.8736 13.7921 16.703C13.864 16.5325 13.9714 16.3792 14.1071 16.2534C14.2429 16.1276 14.4039 16.0321 14.5794 15.9733Z" fill="#242E30"/>
<path fill-rule="evenodd" clip-rule="evenodd" d="M7.25 4.625H24.75C25.4462 4.625 26.1139 4.90156 26.6062 5.39384C27.0984 5.88613 27.375 6.55381 27.375 7.25V24.75C27.375 25.4462 27.0984 26.1139 26.6062 26.6062C26.1139 27.0984 25.4462 27.375 24.75 27.375H7.25C6.55381 27.375 5.88613 27.0984 5.39384 26.6062C4.90156 26.1139 4.625 25.4462 4.625 24.75V7.25C4.625 6.55381 4.90156 5.88613 5.39384 5.39384C5.88613 4.90156 6.55381 4.625 7.25 4.625ZM8.44 19.8938H10.1025V11.625H8.9125L6.515 12.7013L7.075 14.11L8.44 13.6025V19.8938ZM11.9487 15.9563C11.9487 18.6862 13.2 20.0425 15.1687 20.0425C15.5611 20.069 15.9547 20.0143 16.325 19.8818C16.6952 19.7494 17.0342 19.542 17.3208 19.2727C17.6074 19.0034 17.8353 18.6779 17.9905 18.3165C18.1456 17.9552 18.2246 17.5657 18.2225 17.1725C18.2288 16.8143 18.1617 16.4587 18.0254 16.1274C17.8891 15.7961 17.6864 15.4962 17.4299 15.2462C17.1733 14.9962 16.8683 14.8014 16.5336 14.6737C16.1989 14.546 15.8416 14.4882 15.4837 14.5037C15.1293 14.4799 14.7743 14.5413 14.4485 14.6829C14.1227 14.8245 13.8356 15.0421 13.6112 15.3175C13.6112 13.8913 14.2938 13.0163 15.3612 13.0163C15.644 13.0124 15.9245 13.0672 16.185 13.1771C16.4455 13.2871 16.6805 13.4498 16.875 13.655L17.925 12.5C17.6024 12.1497 17.2055 11.8759 16.7634 11.6988C16.3214 11.5216 15.8453 11.4456 15.37 11.4762C13.4887 11.4762 11.9487 12.9288 11.9487 15.9563ZM23 16.875H24.75V15.125H23V13.375H21.25V15.125H19.5V16.875H21.25V18.625H23V16.875Z" fill="#242E30"/>
</svg>
