<svg width="32" height="32" viewBox="0 0 32 32" fill="none" xmlns="http://www.w3.org/2000/svg">
<path d="M22.6849 15.4137C23.2799 15.265 23.8399 15.0375 24.3649 14.7137C25.0824 14.2762 25.6861 13.6987 26.1586 13.0075C26.6311 12.3162 26.9461 11.5462 27.0949 10.715C27.2436 9.89249 27.2174 9.05249 27.0074 8.23874C26.7974 7.38124 26.3861 6.56749 25.8174 5.88499C25.2574 5.20249 24.5311 4.65124 23.7261 4.27499C22.7549 3.82874 21.6874 3.66249 20.6286 3.77624C19.5699 3.88999 18.5636 4.29249 17.7149 4.93124C16.8661 5.56999 16.2011 6.42749 15.7986 7.41624C15.4749 8.20374 15.3349 9.05249 15.3699 9.90124C12.7711 8.36999 8.19487 6.09499 6.68112 8.10749C5.88487 9.16624 6.49737 10.8462 7.87112 12.71C7.15362 13.1912 6.53237 13.7775 6.03362 14.4862C4.88737 16.0787 4.44987 18.0825 4.79112 20.1125C5.20237 22.5537 6.71612 24.855 8.92987 26.4212C10.7324 27.69 12.7624 28.3637 14.8011 28.3637C17.4174 28.3637 19.7361 27.2262 21.1536 25.24C21.5561 24.68 21.8711 24.0587 22.0986 23.4025C23.2099 23.8137 24.1636 24.0325 24.9161 24.0325C25.7736 24.0325 26.4036 23.77 26.7974 23.245C28.3111 21.2325 24.8899 17.4962 22.6761 15.405L22.6849 15.4137ZM16.8574 12.3512V12.325C17.1724 11.6775 17.2686 10.9687 17.1549 10.2862C17.0499 9.54249 17.1374 8.78998 17.4174 8.09873C17.7061 7.40748 18.1699 6.80374 18.7649 6.34874C19.3599 5.89374 20.0774 5.61374 20.8211 5.53499C21.5649 5.45624 22.3174 5.57874 22.9999 5.88499C23.5686 6.14749 24.0761 6.54124 24.4699 7.02249C24.8724 7.50374 25.1611 8.08124 25.3099 8.68499C25.4499 9.25374 25.4761 9.83999 25.3711 10.4262C25.2661 11.0125 25.0474 11.555 24.7149 12.0362C24.3824 12.5262 23.9536 12.9287 23.4549 13.235C22.9474 13.5412 22.3961 13.7425 21.8274 13.8125C21.1274 13.8912 20.4799 14.18 19.9286 14.67L18.8961 15.6587L16.2099 13.6375L16.8661 12.36L16.8574 12.3512ZM19.7361 24.2425C18.6511 25.765 16.8486 26.64 14.8011 26.64C13.1474 26.64 11.4236 26.0625 9.94487 25.0125C8.10737 23.7087 6.85612 21.8275 6.52362 19.8412C6.26112 18.275 6.59362 16.7437 7.45987 15.5275C7.87112 14.95 8.38737 14.4775 8.99112 14.1012C9.37612 14.5387 9.78737 14.9762 10.2336 15.4137C9.69112 15.6937 9.23612 16.07 8.88612 16.5512C8.29112 17.3825 8.06362 18.45 8.24737 19.5525C8.50112 21.0837 9.48987 22.5537 10.9599 23.5862C12.1761 24.4437 13.5411 24.8637 14.7924 24.8637C16.2361 24.8637 17.5399 24.3125 18.3186 23.2275C18.5986 22.8337 18.7911 22.3962 18.9049 21.9237C19.4474 22.2212 19.9724 22.4925 20.4886 22.7375C20.3136 23.28 20.0686 23.7787 19.7361 24.2425ZM10.3036 17.5662C10.6624 17.0675 11.1786 16.84 11.6424 16.735C12.4911 17.4962 13.4011 18.2312 14.3199 18.9225C15.2999 19.6575 16.2886 20.34 17.2599 20.9525C17.2599 21.3375 17.1899 21.7925 16.8924 22.2037C16.0086 23.4375 13.7511 23.4112 11.9661 22.1512C10.8986 21.3987 10.1549 20.3137 9.97112 19.255C9.89237 18.8 9.89237 18.135 10.3036 17.5575V17.5662ZM25.4061 22.2125C24.9599 22.7287 20.9961 21.7662 15.3699 17.5225C9.73487 13.2875 7.71362 9.75248 8.08112 9.17498C8.29987 8.92123 10.5311 8.95623 15.1511 11.8262L13.9699 14.1275L19.0274 17.9337L20.8999 16.1487C24.6799 19.5612 25.6511 21.8275 25.4061 22.2037V22.2125Z" fill="#242E30"/>
<path d="M21.2761 8.99999C21.3724 8.99999 21.4599 9.01749 21.5474 9.06124C21.6261 9.09624 21.7136 9.16624 21.7749 9.24499C21.8361 9.32374 21.8886 9.41999 21.9149 9.51624C21.9411 9.60374 21.9411 9.69999 21.9236 9.78749C21.9061 9.88374 21.8711 9.96249 21.8186 10.0412C21.7661 10.12 21.6961 10.1812 21.6174 10.2337C21.5386 10.2775 21.4599 10.3037 21.3899 10.3212L21.6699 12.045C21.9761 11.9925 22.2736 11.8962 22.5361 11.73C22.8249 11.555 23.0786 11.3187 23.2711 11.03C23.4636 10.75 23.5861 10.435 23.6474 10.0937C23.7086 9.75249 23.6911 9.41999 23.6124 9.08749C23.5249 8.73749 23.3586 8.39624 23.1224 8.12499C22.8861 7.84499 22.5974 7.61749 22.2736 7.46874C21.8799 7.28499 21.4511 7.22374 21.0136 7.26749C20.9786 7.26749 20.9436 7.28499 20.8999 7.28499L21.1799 9.01749C21.1799 9.01749 21.2411 8.99999 21.2761 8.99999Z" fill="#242E30"/>
</svg>
