<svg width="16" height="16" viewBox="0 0 16 16" fill="none" xmlns="http://www.w3.org/2000/svg">
<path d="M10.3452 4.5C10.5868 4.5 10.7827 4.30413 10.7827 4.0625C10.7827 3.82088 10.5868 3.625 10.3452 3.625C10.1036 3.625 9.90771 3.82088 9.90771 4.0625C9.90771 4.30413 10.1036 4.5 10.3452 4.5Z" fill="#242E30"/>
<path d="M11.0625 6.25C11.3041 6.25 11.5 6.05413 11.5 5.8125C11.5 5.57088 11.3041 5.375 11.0625 5.375C10.8209 5.375 10.625 5.57088 10.625 5.8125C10.625 6.05413 10.8209 6.25 11.0625 6.25Z" fill="#242E30"/>
<path d="M9.3125 6.12744C9.55412 6.12744 9.75 5.93157 9.75 5.68994C9.75 5.44832 9.55412 5.25244 9.3125 5.25244C9.07087 5.25244 8.875 5.44832 8.875 5.68994C8.875 5.93157 9.07087 6.12744 9.3125 6.12744Z" fill="#242E30"/>
<path d="M5.58522 14.7811H5.08647C4.42761 14.699 3.79607 14.4681 3.23969 14.1057C2.68332 13.7434 2.21671 13.2592 1.87522 12.6898C1.43427 11.9842 1.20632 11.1664 1.21874 10.3345C1.23116 9.50252 1.48341 8.69186 1.94522 7.99977C2.58304 7.05862 3.56217 6.40273 4.67522 6.17102C5.07053 6.08411 5.4335 5.88794 5.72278 5.60484C6.01206 5.32175 6.21603 4.96311 6.31147 4.56977C6.34596 4.40606 6.39276 4.24518 6.45147 4.08852C6.70631 3.35408 7.15643 2.70295 7.75347 2.20507C8.35051 1.70719 9.07192 1.38137 9.84019 1.26262C10.6084 1.14387 11.3946 1.23668 12.1141 1.53106C12.8336 1.82545 13.4593 2.3103 13.9239 2.93352C14.4067 3.58132 14.7007 4.35016 14.7733 5.15482C14.8459 5.95948 14.6943 6.76852 14.3352 7.49227C14.041 8.11285 13.5806 8.63982 13.0052 9.01477C12.5262 9.33051 11.9963 9.56138 11.4389 9.69727C11.0217 9.81874 10.6448 10.0502 10.3477 10.3673C10.0506 10.6844 9.84428 11.0756 9.75022 11.4998C9.50278 12.4265 8.95768 13.2461 8.19881 13.8327C7.43993 14.4192 6.50933 14.7402 5.55022 14.7461L5.58522 14.7811ZM10.4764 2.53102C10.3221 2.51831 10.167 2.51831 10.0127 2.53102C9.48463 2.62226 8.99047 2.85285 8.5813 3.19895C8.17213 3.54505 7.86278 3.99412 7.68522 4.49977C7.64508 4.61109 7.61291 4.72513 7.58897 4.84102C7.44161 5.4807 7.11733 6.06605 6.65317 6.53022C6.189 6.99438 5.60365 7.31866 4.96397 7.46602C4.57215 7.54364 4.19957 7.69802 3.86769 7.92028C3.5358 8.14254 3.25118 8.42827 3.03022 8.76102C2.71255 9.23872 2.53801 9.79725 2.52716 10.3709C2.51631 10.9444 2.6696 11.5092 2.96897 11.9986C3.20793 12.394 3.53373 12.7298 3.92171 12.9807C4.30969 13.2316 4.74967 13.3909 5.20833 13.4465C5.66699 13.5022 6.13229 13.4527 6.569 13.3019C7.00572 13.1511 7.40239 12.9029 7.72897 12.5761C8.10655 12.1993 8.37558 11.7278 8.50772 11.2111C8.64984 10.551 8.96941 9.94215 9.43198 9.45028C9.89456 8.95841 10.4826 8.60211 11.1327 8.41977C11.5467 8.31807 11.9402 8.14643 12.2964 7.91227C12.6707 7.67374 12.9731 7.33804 13.1714 6.94102C13.4289 6.43184 13.5399 5.86115 13.492 5.29259C13.4441 4.72403 13.2392 4.17994 12.9002 3.72102C12.6168 3.34763 12.25 3.0456 11.8292 2.83899C11.4084 2.63239 10.9452 2.52693 10.4764 2.53102Z" fill="#242E30"/>
</svg>
