<svg width="16" height="16" viewBox="0 0 16 16" fill="none" xmlns="http://www.w3.org/2000/svg">
<path d="M7.85731 7.72881C7.85731 8.16631 7.56855 8.51631 7.21855 8.51631C6.86855 8.51631 6.5798 8.16631 6.5798 7.72881C6.5798 7.29131 6.86855 6.94131 7.21855 6.94131C7.56855 6.94131 7.85731 7.29131 7.85731 7.72881Z" fill="#242E30"/>
<path d="M9.87852 10.0651V10.0913H9.85232C9.85232 10.0913 9.87852 10.1438 9.87852 10.1701C9.93102 10.2926 9.95732 10.4326 9.95732 10.5726C9.95732 11.2726 9.3973 11.8326 8.6973 11.8326C8.4523 11.8326 8.19855 11.7538 7.9973 11.6226C7.79605 11.7626 7.5598 11.8326 7.2973 11.8326C6.5973 11.8326 6.0373 11.2726 6.0373 10.5726C6.0373 10.4326 6.0723 10.3013 6.11605 10.1701L6.15105 10.0913V10.0651C6.37855 9.47006 7.1048 9.02381 8.00605 9.02381C8.9073 9.02381 9.65102 9.47006 9.86982 10.0651H9.87852Z" fill="#242E30"/>
<path d="M5.78355 9.65381C6.13355 9.65381 6.4223 9.30381 6.4223 8.86631C6.4223 8.42881 6.1423 8.07881 5.78355 8.07881C5.4248 8.07881 5.1448 8.42881 5.1448 8.86631C5.1448 9.30381 5.4248 9.65381 5.78355 9.65381Z" fill="#242E30"/>
<path d="M9.49353 7.72881C9.49353 8.16631 9.2048 8.51631 8.8548 8.51631C8.5048 8.51631 8.21605 8.16631 8.21605 7.72881C8.21605 7.29131 8.5048 6.94131 8.8548 6.94131C9.2048 6.94131 9.49353 7.29131 9.49353 7.72881Z" fill="#242E30"/>
<path d="M10.2985 8.08756C9.94852 8.08756 9.65982 8.43756 9.65982 8.87506C9.65982 9.31256 9.94852 9.66256 10.2985 9.66256C10.6485 9.66256 10.9373 9.31256 10.9373 8.87506C10.9373 8.43756 10.6485 8.08756 10.2985 8.08756Z" fill="#242E30"/>
<path d="M11.1998 2.21631H4.8823C3.73605 2.21631 2.7998 3.15256 2.7998 4.29881V13.7838H13.2823V4.29881C13.2823 3.15256 12.346 2.21631 11.1998 2.21631ZM4.8823 3.54631H11.1998C11.611 3.54631 11.9523 3.88756 11.9523 4.29881V4.99881H4.1298V4.29881C4.1298 3.88756 4.47105 3.54631 4.8823 3.54631ZM4.1298 12.4538V6.31131H11.9523V12.4538H4.1298Z" fill="#242E30"/>
</svg>
