<svg width="16" height="16" viewBox="0 0 16 16" fill="none" xmlns="http://www.w3.org/2000/svg">
<path d="M8.05261 6.90615C8.15761 6.90615 8.26261 6.8624 8.34136 6.78365C8.42011 6.7049 8.46386 6.5999 8.46386 6.4949C8.46386 6.2499 8.28011 5.68115 8.05261 5.68115C7.82511 5.68115 7.64136 6.27615 7.64136 6.4949C7.64136 6.5999 7.68511 6.7049 7.76386 6.78365C7.84261 6.8624 7.94761 6.90615 8.05261 6.90615Z" fill="#242E30"/>
<path d="M5.97883 6.34617C5.97883 6.34617 6.07508 6.40742 6.12758 6.42492C6.17133 6.43367 6.20633 6.44242 6.25008 6.44242C6.26758 6.44242 6.28508 6.44242 6.29383 6.44242C6.34633 6.44242 6.40758 6.41617 6.45133 6.38992C6.49508 6.36367 6.53883 6.31992 6.57383 6.27617C6.72258 6.10992 6.98508 5.54117 6.81008 5.39242C6.77508 5.36617 6.74008 5.35742 6.68758 5.35742C6.46008 5.35742 6.09258 5.60242 5.96133 5.74242C5.91758 5.77742 5.89133 5.82992 5.86508 5.88242C5.83883 5.93492 5.83008 5.98742 5.83008 6.04867C5.83008 6.10117 5.84758 6.16242 5.86508 6.21492C5.89133 6.26742 5.92633 6.31117 5.97008 6.34617H5.97883Z" fill="#242E30"/>
<path d="M9.56636 6.38125C9.61011 6.4075 9.66261 6.41625 9.72386 6.425H9.75011C9.75011 6.425 9.83761 6.425 9.88136 6.4075C9.93386 6.39 9.97761 6.36375 10.0214 6.32875C10.0651 6.29375 10.0914 6.25 10.1176 6.20625C10.1439 6.1625 10.1526 6.11 10.1614 6.04875C10.1614 5.99625 10.1614 5.94375 10.1439 5.89125C10.1264 5.83875 10.1001 5.795 10.0651 5.75125C9.93386 5.61125 9.54886 5.375 9.32136 5.375C9.27761 5.375 9.23386 5.38375 9.20761 5.41C9.03261 5.55875 9.28636 6.1275 9.44386 6.29375C9.47886 6.3375 9.52261 6.36375 9.56636 6.39V6.38125Z" fill="#242E30"/>
<path d="M14.7725 7.38745H14.5713L13.5475 5.40995C12.9963 4.55245 12.095 4.00995 11.0275 3.8962C10.6775 3.8612 10.3975 3.6162 10.2313 3.41495C9.89879 3.02995 9.26004 2.57495 8.06129 2.57495H7.94754C6.74879 2.57495 6.10129 3.02995 5.77754 3.41495C5.60254 3.6162 5.33129 3.8612 4.92879 3.8962C3.91379 4.0012 3.02129 4.55245 2.43504 5.46245L1.44629 7.38745H1.22754V8.69995H2.06754L3.10879 13.4337H12.935L13.9763 8.69995H14.7725V7.38745ZM3.56379 6.1187C3.89629 5.60245 4.43879 5.26995 5.11254 5.19995C5.73379 5.1387 6.30254 4.81495 6.77504 4.2637C7.04629 3.9487 7.56254 3.8787 7.94754 3.8787H8.06129C8.44629 3.8787 8.96254 3.9487 9.23379 4.2637C9.70629 4.8062 10.275 5.12995 10.9488 5.19995C11.5613 5.2612 12.1038 5.5937 12.41 6.05745L13.0925 7.3787H2.91629L3.56379 6.10995V6.1187ZM11.8763 12.1212H4.15879L3.40629 8.69995H12.6288L11.8763 12.1212Z" fill="#242E30"/>
</svg>
