<svg width="16" height="16" viewBox="0 0 16 16" fill="none" xmlns="http://www.w3.org/2000/svg">
<path d="M9.68869 9.58375C9.65369 9.46125 9.58369 9.33875 9.51369 9.26875L8.84869 9.7325L9.08494 8.95375C8.99744 8.91 8.85744 8.875 8.72619 8.875C8.59494 8.875 8.46369 8.91 8.36744 8.95375L8.61244 9.7325L7.94744 9.26875C7.87744 9.3475 7.80744 9.46125 7.76369 9.58375C7.72869 9.6975 7.71119 9.8375 7.72869 9.9425L8.54244 9.96L7.88619 10.45C7.93869 10.5375 8.03494 10.6425 8.13119 10.7212C8.23619 10.8 8.36744 10.8437 8.46369 10.87L8.72619 10.1L8.98869 10.87C9.08494 10.8437 9.21619 10.7912 9.31244 10.7212C9.41744 10.6425 9.50494 10.5375 9.55744 10.45L8.90119 9.96L9.71494 9.9425C9.73244 9.84625 9.71494 9.70625 9.67119 9.58375H9.68869Z" fill="#242E30"/>
<path d="M12.1562 9.58375C12.1212 9.46125 12.0512 9.33875 11.9812 9.26875L11.3162 9.7325L11.5524 8.95375C11.4649 8.91 11.3249 8.875 11.1937 8.875C11.0624 8.875 10.9312 8.91 10.8349 8.95375L11.0799 9.7325L10.4149 9.26875C10.3449 9.3475 10.2749 9.46125 10.2312 9.58375C10.1962 9.6975 10.1787 9.8375 10.1962 9.9425L11.0099 9.96L10.3537 10.45C10.4062 10.5375 10.5024 10.6425 10.5987 10.7212C10.7037 10.8 10.8349 10.8437 10.9312 10.87L11.1937 10.1L11.4562 10.87C11.5524 10.8437 11.6837 10.7912 11.7799 10.7212C11.8849 10.6425 11.9724 10.5375 12.0249 10.45L11.3687 9.96L12.1824 9.9425C12.1999 9.84625 12.1824 9.70625 12.1387 9.58375H12.1562Z" fill="#242E30"/>
<path d="M14.6762 9.9425C14.6937 9.84625 14.6762 9.70625 14.6324 9.58375C14.5974 9.46125 14.5274 9.33875 14.4574 9.26875L13.7924 9.7325L14.0287 8.95375C13.9412 8.91 13.8012 8.875 13.6699 8.875C13.5387 8.875 13.4074 8.91 13.3112 8.95375L13.5562 9.7325L12.8912 9.26875C12.8212 9.3475 12.7512 9.46125 12.7074 9.58375C12.6724 9.6975 12.6549 9.8375 12.6724 9.9425L13.4862 9.96L12.8299 10.45C12.8824 10.5375 12.9787 10.6425 13.0749 10.7212C13.1799 10.8 13.3112 10.8437 13.4074 10.87L13.6699 10.1L13.9324 10.87C14.0287 10.8437 14.1599 10.7912 14.2562 10.7212C14.3612 10.6425 14.4487 10.5375 14.5012 10.45L13.8449 9.96L14.6587 9.9425H14.6762Z" fill="#242E30"/>
<path d="M13.1274 11.7625H11.8149V12.0513C11.0624 12.585 9.46994 13.4688 7.22119 13.4688C6.41619 13.4688 4.39494 13.3288 2.62744 12.0513V7.78125H11.8149V8.0875H13.1274V6.46875H4.37744V5.375C4.37744 3.80875 5.65494 2.53125 7.22119 2.53125C8.78744 2.53125 9.92492 3.695 10.0387 5.15625H11.3512C11.2374 2.96875 9.43494 1.21875 7.22119 1.21875C5.00744 1.21875 3.06494 3.0825 3.06494 5.375V6.46875H1.31494V12.69L1.55994 12.8913C3.71244 14.5975 6.23244 14.7812 7.22119 14.7812C10.1699 14.7812 12.1649 13.46 12.8824 12.8913L13.1274 12.69V11.7625Z" fill="#242E30"/>
</svg>
