<svg width="16" height="16" viewBox="0 0 16 16" fill="none" xmlns="http://www.w3.org/2000/svg">
<path d="M12.7951 3.20508C11.8448 2.26165 10.6364 1.6207 9.32236 1.36304C8.00828 1.10538 6.64733 1.24255 5.4111 1.75726C4.17487 2.27196 3.1187 3.14116 2.37575 4.25526C1.6328 5.36935 1.23633 6.67848 1.23633 8.01758C1.23633 9.35668 1.6328 10.6658 2.37575 11.7799C3.1187 12.894 4.17487 13.7632 5.4111 14.2779C6.64733 14.7926 8.00828 14.9298 9.32236 14.6722C10.6364 14.4145 11.8448 13.7736 12.7951 12.8301C13.429 12.1992 13.932 11.4493 14.2753 10.6234C14.6185 9.79748 14.7952 8.91194 14.7952 8.01758C14.7952 7.12323 14.6185 6.23768 14.2753 5.41181C13.932 4.58593 13.429 3.836 12.7951 3.20508ZM11.4039 8.65633H8.6564V11.4039H7.3439V8.65633H4.5964V7.34383H7.3439V4.59633H8.6564V7.34383H11.4039V8.65633Z" fill="#242E30"/>
</svg>
