<svg width="16" height="16" viewBox="0 0 16 16" fill="none" xmlns="http://www.w3.org/2000/svg">
<path d="M8.65644 4.59619H7.34394V7.34369H4.59644V8.65619H7.34394V11.4037H8.65644V8.65619H11.4039V7.34369H8.65644V4.59619Z" fill="#242E30"/>
<path d="M12.7951 3.20508C11.8448 2.26165 10.6364 1.6207 9.32236 1.36304C8.00828 1.10538 6.64733 1.24255 5.4111 1.75726C4.17487 2.27196 3.1187 3.14116 2.37575 4.25526C1.6328 5.36935 1.23633 6.67848 1.23633 8.01758C1.23633 9.35668 1.6328 10.6658 2.37575 11.7799C3.1187 12.894 4.17487 13.7632 5.4111 14.2779C6.64733 14.7926 8.00828 14.9298 9.32236 14.6722C10.6364 14.4145 11.8448 13.7736 12.7951 12.8301C13.429 12.1992 13.932 11.4493 14.2753 10.6234C14.6185 9.79748 14.7952 8.91194 14.7952 8.01758C14.7952 7.12323 14.6185 6.23768 14.2753 5.41181C13.932 4.58593 13.429 3.836 12.7951 3.20508ZM11.8677 11.8676C11.1028 12.6323 10.1283 13.153 9.06754 13.3639C8.00674 13.5748 6.90724 13.4664 5.90804 13.0524C4.90884 12.6385 4.05482 11.9375 3.45397 11.0382C2.85312 10.1389 2.53242 9.08164 2.53242 8.00008C2.53242 6.91852 2.85312 5.86126 3.45397 4.96196C4.05482 4.06266 4.90884 3.36171 5.90804 2.94775C6.90724 2.53379 8.00674 2.42541 9.06754 2.63631C10.1283 2.8472 11.1028 3.36791 11.8677 4.13258C12.3756 4.64042 12.7786 5.24335 13.0535 5.90695C13.3284 6.57054 13.4699 7.28179 13.4699 8.00008C13.4699 8.71837 13.3284 9.42962 13.0535 10.0933C12.7786 10.7568 12.3756 11.3598 11.8677 11.8676Z" fill="#242E30"/>
</svg>
