<svg width="16" height="16" viewBox="0 0 16 16" fill="none" xmlns="http://www.w3.org/2000/svg">
<path d="M2.74918 14.3088L14.7542 12.9963H11.0792C11.8054 12.1913 12.2079 11.1063 12.0679 9.95125C12.0679 9.95125 12.0679 9.93375 12.0679 9.925C12.0679 9.925 12.0679 9.9075 12.0679 9.89875C12.0329 9.715 11.9892 9.53125 11.9279 9.3475C11.7092 8.7175 11.2454 8.2275 10.6679 7.95625C10.9304 7.79875 11.1842 7.65875 11.4467 7.475C11.8667 7.22125 12.2254 6.66125 12.0067 6.0575C11.9017 5.7775 11.5342 4.815 11.2892 4.19375C12.6804 3.47625 13.4767 3.135 14.1767 2.82875L14.2904 2.77625L13.6692 1.69125L13.5817 1.72625C12.7329 2.09375 11.8317 2.49625 10.2217 3.33625C7.33418 4.84125 5.15543 6.11 3.36168 7.335L3.31793 7.37C2.50418 7.965 2.18043 8.4375 2.24168 8.91875C2.32043 9.505 2.81918 9.82875 3.27418 9.89C3.37918 9.9075 3.72918 9.96875 4.29793 9.96875H4.35918C4.29793 11.0188 4.68293 12.0775 5.41793 12.865C5.46168 12.9088 5.51418 12.9438 5.55793 12.9875M4.63043 12.9963H1.47168L1.82168 14.3088H14.7367L15.0867 12.9963H10.1517M10.6854 9.79375C10.8517 10.2663 10.8517 10.7563 10.6942 11.1588C10.3704 11.9813 9.64418 12.5763 8.79543 12.76L8.84793 12.0775C8.88293 11.5963 9.12793 11.1675 9.53043 10.905C9.94168 10.6338 10.1867 10.1788 10.1867 9.68C10.1867 9.49625 10.1604 9.32125 10.1079 9.155C10.3704 9.2775 10.5892 9.505 10.6854 9.79375ZM10.1692 4.78L10.8079 6.4075C10.8079 6.4075 10.7817 6.425 10.7729 6.43375C9.95918 6.97625 9.18918 7.3875 8.47168 7.71125C8.46293 7.7025 8.45418 7.69375 8.43668 7.685L7.87668 7.22125C7.44793 6.8625 6.88793 6.76625 6.38918 6.8975C7.49168 6.2325 8.73418 5.54125 10.1692 4.78ZM4.66543 8.7175C4.19293 8.74375 3.85168 8.7175 3.66793 8.7C3.75543 8.62125 3.87793 8.51625 4.04418 8.39375C4.51668 8.07 5.02418 7.74625 5.55793 7.41375C5.17293 7.79 4.86668 8.2275 4.66543 8.7175ZM7.53543 11.9638V11.9813L7.48293 12.69C7.06293 12.55 6.67793 12.305 6.37168 11.9725C5.88168 11.4475 5.61918 10.7475 5.66293 10.0563C5.66293 9.98625 5.68918 9.925 5.69793 9.855C5.76793 9.33 6.00418 8.83125 6.37168 8.44625C6.45043 8.3675 6.52043 8.28 6.59918 8.21C6.65168 8.16625 6.72168 8.14 6.80043 8.14C6.88793 8.14 6.97543 8.175 7.04543 8.2275L7.07168 8.245L7.59668 8.67375C7.81543 8.875 8.07793 9.015 8.35793 9.1025C8.35793 9.1025 8.37543 9.11125 8.38418 9.11125L8.48043 9.1375C8.70793 9.2075 8.86543 9.4175 8.86543 9.65375C8.86543 9.70625 8.83918 9.75875 8.79543 9.785C8.06043 10.275 7.59668 11.0713 7.53543 11.9638Z" fill="#242E30"/>
</svg>
