<svg width="32" height="32" viewBox="0 0 32 32" fill="none" xmlns="http://www.w3.org/2000/svg">
<path d="M21.25 15.125H10.75V16.875H21.25V15.125Z" fill="#242E30"/>
<path d="M19.5 18.625H12.5V20.375H19.5V18.625Z" fill="#242E30"/>
<path d="M19.5 11.625H12.5V13.375H19.5V11.625Z" fill="#242E30"/>
<path d="M22.9388 6.47127L19.5 4.49377L16 6.46252L12.5 4.49377L9.06125 6.47127L5.5 4.57252V27.4275L9.06125 25.5288L12.5 27.5063L16 25.5375L19.5 27.5063L22.93 25.5288L26.5 27.4275V4.57252L22.9388 6.47127ZM24.75 24.5138L23.7613 23.9888C23.5026 23.8463 23.2121 23.7716 22.9169 23.7716C22.6216 23.7716 22.3311 23.8463 22.0725 23.9888L19.4475 25.4675L16.8225 23.98C16.5565 23.8264 16.2547 23.7456 15.9475 23.7456C15.6403 23.7456 15.3385 23.8264 15.0725 23.98L12.4475 25.4675L9.9275 24.015C9.66887 23.8726 9.3784 23.7978 9.08313 23.7978C8.78785 23.7978 8.49738 23.8726 8.23875 24.015L7.25 24.5138V7.48627L8.23875 8.01127C8.49738 8.15374 8.78785 8.22846 9.08313 8.22846C9.3784 8.22846 9.66887 8.15374 9.9275 8.01127L12.5 6.50627L15.125 7.99377C15.391 8.14737 15.6928 8.22823 16 8.22823C16.3072 8.22823 16.609 8.14737 16.875 7.99377L19.5 6.50627L22.125 7.98502C22.3836 8.12749 22.6741 8.20221 22.9694 8.20221C23.2646 8.20221 23.5551 8.12749 23.8138 7.98502L24.75 7.48627V24.5138Z" fill="#242E30"/>
</svg>
