<svg width="32" height="32" viewBox="0 0 32 32" fill="none" xmlns="http://www.w3.org/2000/svg">
<path d="M18.4062 12.7975H24.8199C25.2655 12.7975 25.6928 12.6205 26.0078 12.3054C26.3229 11.9904 26.4999 11.5631 26.4999 11.1175V4.77374H24.7499V10.2075L24.4174 9.65624L24.3649 9.58624C22.8946 7.64951 20.7976 6.28315 18.432 5.7204C16.0663 5.15765 13.5787 5.4334 11.3938 6.50058C9.20884 7.56777 7.46202 9.36022 6.45152 11.572C5.44103 13.7837 5.22951 16.2776 5.85306 18.6279C6.47662 20.9782 7.8966 23.0393 9.87059 24.4592C11.8446 25.8791 14.2502 26.5699 16.6768 26.4136C19.1034 26.2573 21.4006 25.2637 23.1761 23.6022C24.9517 21.9408 26.0955 19.7146 26.4124 17.3037L24.6624 17.0762C24.403 19.0838 23.4555 20.9393 21.9814 22.3267C20.5073 23.714 18.5978 24.5474 16.5782 24.6847C14.5586 24.822 12.5538 24.2549 10.9055 23.0799C9.25718 21.9048 8.06723 20.1947 7.53842 18.2407C7.0096 16.2867 7.17463 14.2098 8.00538 12.3639C8.83613 10.5179 10.2812 9.01713 12.0944 8.11716C13.9076 7.2172 15.9768 6.97375 17.9494 7.4283C19.9219 7.88285 21.6759 9.00727 22.9124 10.61L23.1749 11.0475H18.4062V12.7975Z" fill="#242E30"/>
</svg>
