<svg width="33" height="32" viewBox="0 0 33 32" fill="none" xmlns="http://www.w3.org/2000/svg">
<path fill-rule="evenodd" clip-rule="evenodd" d="M16.3599 3.75C9.60486 3.75 4.10986 9.245 4.10986 16C4.10986 22.755 9.60486 28.25 16.3599 28.25C23.1149 28.25 28.6099 22.755 28.6099 16C28.6099 9.245 23.1149 3.75 16.3599 3.75ZM16.3599 24.75C11.5386 24.75 7.60986 20.8213 7.60986 16C7.60986 11.1788 11.5386 7.25 16.3599 7.25C21.1811 7.25 25.1099 11.1788 25.1099 16C25.1099 20.8213 21.1811 24.75 16.3599 24.75ZM16.3555 9C12.4987 9.00237 9.35986 12.1427 9.35986 16C9.35986 17.6625 9.94611 19.1937 10.9174 20.3925L20.7524 10.5575C19.5547 9.5871 18.025 9.00103 16.3555 9ZM16.3555 9C16.3569 9 16.3584 9 16.3599 9H16.3511C16.3526 9 16.354 9 16.3555 9ZM12.1861 21.6087L21.9686 11.8263C22.8348 12.99 23.3598 14.4338 23.3598 16C23.3598 19.8587 20.2186 23 16.3598 23C14.7936 23 13.3498 22.4837 12.1861 21.6087Z" fill="#242E30"/>
</svg>
