<svg viewBox="0 0 28 28" fill="none" xmlns="http://www.w3.org/2000/svg">
<path d="M14 27.335L8.68875 22.0237H5.25C4.55381 22.0237 3.88613 21.7472 3.39384 21.2549C2.90156 20.7626 2.625 20.0949 2.625 19.3987V3.64874C2.625 2.95255 2.90156 2.28487 3.39384 1.79259C3.88613 1.3003 4.55381 1.02374 5.25 1.02374H22.75C23.4462 1.02374 24.1139 1.3003 24.6062 1.79259C25.0984 2.28487 25.375 2.95255 25.375 3.64874V19.3987C25.375 20.0949 25.0984 20.7626 24.6062 21.2549C24.1139 21.7472 23.4462 22.0237 22.75 22.0237H19.3112L14 27.335ZM5.25 2.77374C5.01794 2.77374 4.79538 2.86593 4.63128 3.03002C4.46719 3.19412 4.375 3.41668 4.375 3.64874V19.3987C4.375 19.6308 4.46719 19.8534 4.63128 20.0175C4.79538 20.1816 5.01794 20.2737 5.25 20.2737H9.415L14 24.8587L18.585 20.2737H22.75C22.9821 20.2737 23.2046 20.1816 23.3687 20.0175C23.5328 19.8534 23.625 19.6308 23.625 19.3987V3.64874C23.625 3.41668 23.5328 3.19412 23.3687 3.03002C23.2046 2.86593 22.9821 2.77374 22.75 2.77374H5.25ZM17.4125 17.5C17.2689 17.4993 17.1276 17.4632 17.0013 17.395L14 15.82L10.9987 17.395C10.8546 17.4704 10.6922 17.5041 10.5299 17.4924C10.3676 17.4806 10.2118 17.4238 10.08 17.3284C9.94817 17.2329 9.84559 17.1026 9.78377 16.9521C9.72195 16.8016 9.70333 16.6368 9.73 16.4762L10.2988 13.125L7.875 10.7625C7.76253 10.6503 7.68274 10.5095 7.6442 10.3553C7.60566 10.2012 7.60983 10.0395 7.65625 9.88749C7.70559 9.73035 7.79828 9.59033 7.92366 9.48353C8.04904 9.37672 8.20202 9.30747 8.365 9.28374L11.7163 8.74999L13.2125 5.73999C13.2841 5.59206 13.396 5.46729 13.5353 5.37999C13.6746 5.2927 13.8356 5.2464 14 5.2464C14.1644 5.2464 14.3254 5.2927 14.4647 5.37999C14.604 5.46729 14.7159 5.59206 14.7875 5.73999L16.2838 8.74999L19.6438 9.23124C19.8067 9.25497 19.9597 9.32422 20.0851 9.43102C20.2105 9.53783 20.3032 9.67785 20.3525 9.83499C20.3989 9.98696 20.4031 10.1487 20.3646 10.3028C20.326 10.457 20.2462 10.5978 20.1338 10.71L17.7013 13.125L18.27 16.4675C18.3022 16.6307 18.2872 16.7997 18.2267 16.9547C18.1663 17.1096 18.0629 17.2442 17.9288 17.3425C17.7776 17.4481 17.5969 17.5032 17.4125 17.5ZM14 14C14.1436 14.0007 14.2849 14.0368 14.4112 14.105L16.2487 15.0675L15.8988 13.02C15.8743 12.8793 15.8847 12.7348 15.9289 12.5991C15.9731 12.4634 16.0499 12.3405 16.1525 12.2412L17.64 10.7887L15.5837 10.4912C15.442 10.4715 15.3073 10.4173 15.1913 10.3334C15.0754 10.2495 14.9818 10.1385 14.9187 10.01L14 8.10249L13.125 9.96624C13.062 10.0947 12.9684 10.2058 12.8524 10.2897C12.7365 10.3736 12.6017 10.4278 12.46 10.4475L10.4038 10.745L11.8913 12.1975C11.9939 12.2967 12.0706 12.4196 12.1149 12.5553C12.1591 12.6911 12.1694 12.8356 12.145 12.9762L11.795 15.0237L13.6325 14.0612C13.7492 14.0147 13.8745 13.9938 14 14Z"/>
</svg>
