<svg width="32" height="32" viewBox="0 0 32 32" fill="none" xmlns="http://www.w3.org/2000/svg">
<path d="M24.3 15.4313V14.3288C24.3 12.885 23.1187 11.7038 21.675 11.7038H16.88V9.8575C17.9388 9.49 18.7 8.50125 18.7 7.32C18.7 5.8325 17.4925 4.625 16.005 4.625C14.5175 4.625 13.31 5.8325 13.31 7.32C13.31 8.50125 14.0712 9.49 15.13 9.8575V11.7038H10.335C8.89125 11.7038 7.71 12.885 7.71 14.3288V15.44C5.95125 15.93 4.65625 17.5312 4.65625 19.4475C4.65625 21.3638 5.96 22.9562 7.71 23.455V24.6625C7.71 26.1063 8.89125 27.2875 10.335 27.2875H21.675C23.1187 27.2875 24.3 26.1063 24.3 24.6625V23.4638C26.0763 22.9825 27.3975 21.3725 27.3975 19.4475C27.3975 17.5225 26.0763 15.9125 24.3 15.4313ZM15.06 7.32875C15.06 6.8125 15.48 6.38375 16.005 6.38375C16.53 6.38375 16.95 6.80375 16.95 7.32875C16.95 7.85375 16.53 8.27375 16.005 8.27375C15.48 8.27375 15.06 7.85375 15.06 7.32875ZM6.40625 19.4475C6.40625 18.52 6.94 17.715 7.71 17.3125V21.5912C6.94 21.1887 6.40625 20.3838 6.40625 19.4563L6.40625 19.4475ZM22.55 24.6625C22.55 25.1438 22.1562 25.5375 21.675 25.5375H10.335C9.85375 25.5375 9.46 25.1438 9.46 24.6625V14.3288C9.46 13.8475 9.85375 13.4538 10.335 13.4538H21.675C22.1562 13.4538 22.55 13.8475 22.55 14.3288V24.6625ZM24.3 21.6087V17.2862C25.0962 17.68 25.6475 18.5025 25.6475 19.4475C25.6475 20.3925 25.0962 21.215 24.3 21.6087Z" fill="black" fill-opacity="0.76"/>
<path d="M12.855 23.035H19.155V21.285H12.855V23.035Z" fill="black" fill-opacity="0.76"/>
<path d="M13.4325 18.3275C13.4325 17.6363 12.8725 17.0675 12.1725 17.0675C11.4725 17.0675 10.9125 17.6275 10.9125 18.3275C10.9125 19.0275 11.4725 19.5875 12.1725 19.5875C12.8725 19.5875 13.4325 19.0275 13.4325 18.3275Z" fill="black" fill-opacity="0.76"/>
<path d="M19.8463 17.0763C19.155 17.0763 18.5863 17.6363 18.5863 18.3363C18.5863 19.0363 19.1463 19.5963 19.8463 19.5963C20.5463 19.5963 21.1063 19.0363 21.1063 18.3363C21.1063 17.6363 20.5463 17.0763 19.8463 17.0763Z" fill="black" fill-opacity="0.76"/>
</svg>
