<svg width="16" height="16" viewBox="0 0 16 16" fill="none" xmlns="http://www.w3.org/2000/svg">
<path d="M5.03369 2.95996V4.27246C5.33119 4.27246 12.3837 4.35996 12.3837 11.6225H13.6962C13.6962 4.77121 7.99994 2.95996 5.03369 2.95996Z" fill="#242E30"/>
<path d="M5.03369 7.32629V8.63879C5.822 8.64342 6.57644 8.95981 7.13222 9.51888C7.688 10.078 7.99996 10.8343 7.99994 11.6226H9.31244C9.31245 10.4862 8.86222 9.39601 8.06029 8.59081C7.25837 7.7856 6.17009 7.33092 5.03369 7.32629Z" fill="#242E30"/>
<path d="M3.43256 11.9637C3.27019 12.1249 3.15936 12.3307 3.11412 12.555C3.06887 12.7793 3.09126 13.0119 3.17843 13.2235C3.2656 13.435 3.41364 13.6159 3.60376 13.7432C3.79388 13.8704 4.01752 13.9384 4.24631 13.9384C4.4751 13.9384 4.69874 13.8704 4.88886 13.7432C5.07898 13.6159 5.22701 13.435 5.31419 13.2235C5.40136 13.0119 5.42375 12.7793 5.3785 12.555C5.33326 12.3307 5.22242 12.1249 5.06006 11.9637C4.8437 11.7489 4.55119 11.6284 4.24631 11.6284C3.94143 11.6284 3.64892 11.7489 3.43256 11.9637Z" fill="#242E30"/>
</svg>
