<svg width="16" height="16" viewBox="0 0 16 16" fill="none" xmlns="http://www.w3.org/2000/svg">
<path d="M13.9062 5.37502C13.9419 4.5423 13.646 3.7294 13.0835 3.11438C12.5209 2.49937 11.7376 2.13236 10.905 2.09377C10.4107 2.09502 9.9253 2.22467 9.49624 2.47002C9.05229 2.21977 8.54925 2.09343 8.03973 2.10421C7.53022 2.11498 7.03297 2.26248 6.59999 2.53127C6.15082 2.24379 5.62829 2.09189 5.09499 2.09377C4.2624 2.13236 3.47905 2.49937 2.91651 3.11438C2.35398 3.7294 2.05812 4.5423 2.09374 5.37502V6.90627H13.9062V5.37502ZM12.5937 5.59377H3.40624V5.37502C3.37236 4.89074 3.53058 4.4126 3.84665 4.04413C4.16272 3.67566 4.6112 3.4465 5.09499 3.40627C5.48751 3.40679 5.8643 3.56064 6.14499 3.83502L6.59999 4.27252L7.05499 3.83502C7.32269 3.57625 7.67725 3.42658 8.0494 3.41525C8.42155 3.40392 8.78456 3.53175 9.06749 3.77377L9.48749 4.14127L9.91624 3.77377C10.193 3.53999 10.5427 3.41003 10.905 3.40627C11.3888 3.4465 11.8373 3.67566 12.1533 4.04413C12.4694 4.4126 12.6276 4.89074 12.5937 5.37502V5.59377ZM14.4137 7.34377V8.65627C13.5825 8.65627 13.5387 8.77877 13.4687 8.94502C13.3837 9.21894 13.2226 9.46306 13.0042 9.64896C12.7857 9.83485 12.519 9.95486 12.235 9.99502C11.9197 10.074 11.5897 10.0729 11.2749 9.9919C10.9601 9.91092 10.6705 9.75258 10.4325 9.53127C10.205 9.35627 10.1087 9.28627 9.90749 9.28627H9.81124C9.81124 9.28627 9.81124 9.28627 9.81124 9.34752C9.63706 9.65879 9.37192 9.9094 9.05133 10.0658C8.73074 10.2222 8.37003 10.2769 8.01749 10.2225C7.67182 10.2676 7.32058 10.2083 7.00879 10.0524C6.697 9.89653 6.43887 9.65108 6.26749 9.34752C6.26916 9.32421 6.26916 9.30082 6.26749 9.27752H6.09249C5.89124 9.27752 5.79499 9.34752 5.56749 9.52252C5.33031 9.7452 5.04078 9.90445 4.72571 9.98551C4.41063 10.0666 4.0802 10.0668 3.76499 9.98627C3.481 9.94611 3.21425 9.8261 2.99583 9.64021C2.7774 9.45431 2.61629 9.21019 2.53124 8.93627C2.46124 8.77002 2.41749 8.64752 1.58624 8.64752V7.34377C3.02124 7.34377 3.47624 7.77252 3.74749 8.47252C3.82624 8.66502 3.82624 8.66502 4.04499 8.71752C4.26374 8.77002 4.49124 8.71752 4.75374 8.49877C5.12644 8.17853 5.60112 8.00169 6.09249 8.00002C6.34965 7.98282 6.60609 8.04274 6.82899 8.17212C7.0519 8.3015 7.23113 8.49444 7.34374 8.72627C7.43124 8.89252 7.48374 8.97127 7.99999 8.97127C8.51624 8.97127 8.56874 8.89252 8.66499 8.72627C8.77418 8.49362 8.95143 8.29961 9.17331 8.16993C9.39518 8.04024 9.6512 7.98099 9.90749 8.00002C10.4022 8.00897 10.8773 8.19527 11.2462 8.52502C11.5087 8.73502 11.6137 8.81377 11.955 8.74377C12.2962 8.67377 12.1737 8.69127 12.2525 8.49877C12.5237 7.77252 12.9787 7.34377 14.4137 7.34377ZM12.5937 10.625H13.9062V11.5C13.9039 11.9054 13.7419 12.2936 13.4552 12.5802C13.1685 12.8669 12.7804 13.029 12.375 13.0313H3.62499C3.21959 13.029 2.83144 12.8669 2.54477 12.5802C2.2581 12.2936 2.09604 11.9054 2.09374 11.5V10.625H3.40624V11.5C3.40624 11.558 3.42929 11.6137 3.47031 11.6547C3.51134 11.6957 3.56698 11.7188 3.62499 11.7188H12.375C12.433 11.7188 12.4886 11.6957 12.5297 11.6547C12.5707 11.6137 12.5937 11.558 12.5937 11.5V10.625Z" fill="#242E30"/>
</svg>
