<svg width="32" height="32" viewBox="0 0 32 32" fill="none" xmlns="http://www.w3.org/2000/svg">
<path d="M27.9089 10.1287C27.6902 9.63874 27.4189 9.16623 27.1214 8.71124C27.1039 8.68499 27.0952 8.66749 27.0777 8.64124C26.6752 8.03749 26.2202 7.47748 25.7039 6.95249C25.1702 6.41874 24.5927 5.95499 23.9802 5.55248C23.5252 5.25499 23.0439 4.97499 22.5539 4.75624C20.7252 3.90749 18.7039 3.59249 16.7002 3.82874C14.7402 4.05624 12.8764 4.82624 11.3189 6.02499C11.3014 6.03374 11.2839 6.04248 11.2752 6.05998C10.9164 6.33998 10.5752 6.62874 10.2514 6.95249C10.1377 7.06624 10.0152 7.19748 9.95394 7.26749C8.58019 8.74623 7.6527 10.5662 7.25894 12.5525C7.15394 13.1037 7.09269 13.655 7.06644 14.1975V14.215C6.97894 16.245 7.44269 18.2575 8.44894 20.025C8.93019 20.9 9.5427 21.705 10.2514 22.4137C10.9252 23.0875 11.6864 23.6737 12.5089 24.1462L12.6314 24.2162C13.1389 24.505 13.6727 24.7325 14.2152 24.9337C14.2502 24.9512 14.2852 24.96 14.3202 24.9687C15.4927 25.3887 16.7264 25.6162 17.9777 25.6162C18.0914 25.6162 18.2052 25.6075 18.3102 25.5987C18.3189 25.5987 18.3364 25.5987 18.3452 25.5987C18.3627 25.5987 18.3889 25.59 18.4064 25.59C18.9752 25.5637 19.5439 25.5112 20.1127 25.3975C22.0902 25.0037 23.9189 24.0675 25.3364 22.7462C25.4677 22.65 25.5814 22.5275 25.6952 22.4137L25.0914 21.7837L24.4614 21.1712C24.3914 21.2412 24.3302 21.3112 24.1989 21.4162C22.9652 22.5625 21.4339 23.35 19.7714 23.6825C19.4127 23.7525 19.0452 23.7962 18.6864 23.8225L17.6189 22.755L18.0652 19.9812L22.3527 17.8025L24.6802 19.1325L24.9252 20.6987C24.7852 20.865 24.6364 21.0225 24.4877 21.18L25.1089 21.8012L25.7302 22.4225C26.0189 22.1337 26.2814 21.8187 26.5352 21.5037C26.5527 21.4862 26.5614 21.4687 26.5789 21.4512C27.8214 19.8762 28.6177 17.9687 28.8539 15.965C29.0989 13.9612 28.7752 11.94 27.9352 10.12L27.9089 10.1287ZM16.9014 5.56999C18.5814 5.36874 20.2789 5.63998 21.8189 6.34873C22.1077 6.47998 22.3964 6.63749 22.6677 6.79499L22.9389 8.48374L21.0839 10.3387L16.2714 9.57749L15.1164 7.16249L15.8339 5.76249C16.1839 5.68374 16.5339 5.61374 16.8927 5.56999H16.9014ZM11.2664 8.41373C11.3277 8.33499 11.3977 8.26499 11.4677 8.19498C11.6689 7.99373 11.8789 7.80123 12.0977 7.62624L13.5239 7.84499C13.5239 7.84499 13.5239 7.88874 13.5414 7.91499L14.7577 10.47L12.6052 14.6962L10.0152 15.0725L8.82519 13.8825C8.85144 13.55 8.89519 13.2262 8.95644 12.8937C9.28894 11.2312 10.0677 9.69999 11.2664 8.40499V8.41373ZM13.4714 22.6937C12.7452 22.2912 12.0714 21.7837 11.4764 21.1887C10.8814 20.5937 10.3739 19.92 9.9627 19.185C9.78769 18.87 9.63019 18.5462 9.49894 18.2137L10.2077 16.8225L12.9552 16.42L16.3239 19.7887L15.8952 22.4662L14.4777 23.1925C14.1802 23.07 13.8827 22.9387 13.6027 22.7812L13.4714 22.7112V22.6937ZM17.3914 18.38L14.2764 15.2737L16.2714 11.3537L20.6114 12.045L21.3027 16.3937L17.3827 18.3887L17.3914 18.38ZM25.3977 17.5487L23.0614 16.2187L22.3264 11.5812L24.1814 9.72623L25.8614 9.98874C26.0277 10.2687 26.1852 10.5575 26.3252 10.8637C27.0339 12.395 27.3052 14.0925 27.0952 15.7725C27.0514 16.1137 26.9902 16.4462 26.9114 16.7787L25.3977 17.5487ZM9.61269 24.295L5.14145 28.7662L3.9077 27.5325L8.37894 23.0612L9.61269 24.295ZM11.5464 25.555L12.7802 26.7887L10.0414 29.5275L8.8077 28.2937L11.5464 25.555ZM4.37145 23.8575L3.1377 22.6237L5.87645 19.885L7.11019 21.1187L4.37145 23.8575Z" fill="#242E30"/>
</svg>
