<svg width="16" height="16" viewBox="0 0 16 16" fill="none" xmlns="http://www.w3.org/2000/svg">
<g clip-path="url(#clip0_9283_3656)">
<path fill-rule="evenodd" clip-rule="evenodd" d="M5.23392 7.78654C5.7305 8.13501 6.30548 8.30925 6.89789 8.30925C7.08084 8.30925 7.2725 8.29182 7.46416 8.25698C8.24823 8.10888 8.92776 7.66457 9.38949 7.00247C10.191 5.8525 10.069 3.63968 9.92091 2.42873C9.88607 2.13252 9.72925 1.86245 9.48532 1.69693C9.24139 1.5314 8.93647 1.47042 8.64898 1.54011C7.45545 1.82761 5.33846 2.47229 4.53697 3.62225C4.07524 4.28436 3.901 5.07714 4.03168 5.86121C4.16236 6.65399 4.59795 7.33352 5.24263 7.78654H5.23392ZM5.59982 4.37148C5.96572 3.84005 7.1244 3.28249 8.64898 2.88174C8.80579 4.44988 8.68383 5.73053 8.30921 6.25324C8.04786 6.62785 7.65582 6.88921 7.21152 6.96762C6.76721 7.05474 6.33162 6.96762 5.97443 6.70626C5.61724 6.45362 5.37331 6.07901 5.30361 5.6347C5.23392 5.19039 5.32975 4.73738 5.59982 4.36276V4.37148Z" fill="#242E30"/>
<path fill-rule="evenodd" clip-rule="evenodd" d="M2.69001 7.97822C2.3938 7.95209 2.0976 8.04792 1.8798 8.24829C1.66201 8.44866 1.54004 8.73616 1.54004 9.03236C1.55746 10.2607 1.72299 12.4648 2.67258 13.5016C3.21272 14.094 3.95323 14.4424 4.74601 14.4947H4.92025C5.66076 14.4947 6.349 14.2246 6.89785 13.7281C8.10009 12.6304 8.16978 10.7312 7.04595 9.5028C6.09635 8.46609 3.91838 8.1089 2.69872 7.97822H2.69001ZM6.00924 12.761C5.6869 13.0573 5.26001 13.2054 4.81571 13.1792C4.36269 13.1531 3.94452 12.9527 3.63089 12.6129C3.1953 12.1338 2.89909 10.888 2.84682 9.31114C4.40625 9.5028 5.62591 9.90355 6.06151 10.3827C6.69747 11.0797 6.67134 12.1425 6.00052 12.761H6.00924Z" fill="#242E30"/>
<path fill-rule="evenodd" clip-rule="evenodd" d="M8.69253 9.14562C9.23266 7.57748 10.9315 6.73243 12.4735 7.26385H12.4822C14.0242 7.79528 14.8344 9.51152 14.2943 11.0797C13.8325 12.4039 11.9769 13.6061 10.9053 14.2072C10.7485 14.2943 10.5656 14.3379 10.3913 14.3379C10.2781 14.3379 10.1648 14.3118 10.0516 14.2769C9.7728 14.1811 9.54629 13.9633 9.43304 13.6932C8.96259 12.5607 8.23951 10.4698 8.69253 9.14562ZM10.522 12.9179C11.8811 12.1164 12.8394 11.2626 13.0485 10.6528C13.3534 9.76416 12.9091 8.79714 12.0466 8.50094C11.8724 8.43996 11.6981 8.41382 11.5239 8.41382C10.8357 8.41382 10.1735 8.86684 9.92961 9.58122C9.72053 10.191 9.94704 11.4543 10.522 12.9179Z" fill="#242E30"/>
</g>
<defs>
<clipPath id="clip0_9283_3656">
<rect width="14" height="14" fill="white" transform="translate(1 1)"/>
</clipPath>
</defs>
</svg>
