<svg width="16" height="16" viewBox="0 0 16 16" fill="none" xmlns="http://www.w3.org/2000/svg">
<path d="M9.50514 14.7812H6.49514L6.15389 13.5737C6.02955 13.1637 5.75016 12.8184 5.37514 12.6112C4.99748 12.3662 4.53795 12.2812 4.09764 12.375L2.88139 12.6813L1.37639 10.0563L2.25139 9.18125C2.5395 8.8575 2.6874 8.43267 2.66264 8C2.67716 7.77614 2.64671 7.55165 2.57307 7.33975C2.49943 7.12786 2.3841 6.93286 2.23389 6.76625L1.35889 5.89125L2.86389 3.26625L4.09764 3.625C4.31502 3.67367 4.53992 3.67862 4.75924 3.63957C4.97856 3.60051 5.18792 3.51823 5.37514 3.3975C5.76492 3.19695 6.06031 2.85128 6.19764 2.435L6.49514 1.21875H9.50514L9.84639 2.42625C9.97072 2.83625 10.2501 3.18157 10.6251 3.38875C10.8119 3.51052 11.021 3.59409 11.2403 3.63464C11.4595 3.67519 11.6846 3.67191 11.9026 3.625L13.1189 3.31875L14.6239 5.94375L13.7489 6.81875C13.4608 7.1425 13.3129 7.56733 13.3376 8C13.3277 8.21544 13.3605 8.4307 13.4341 8.63343C13.5077 8.83615 13.6206 9.02233 13.7664 9.18125L14.6414 10.0563L13.1364 12.6813L11.9026 12.375C11.6927 12.3286 11.4757 12.3241 11.264 12.3616C11.0523 12.3991 10.8501 12.478 10.6689 12.5938C10.2791 12.7943 9.98372 13.14 9.84639 13.5563L9.50514 14.7812ZM7.49264 13.4688H8.50764L8.58639 13.25C8.69459 12.88 8.87472 12.535 9.11645 12.2347C9.35819 11.9344 9.65678 11.6847 9.99514 11.5C10.6621 11.0898 11.4645 10.9608 12.2264 11.1413L12.4801 11.2025L12.9876 10.3275L12.8214 10.1525C12.5511 9.86544 12.3413 9.52694 12.2045 9.15716C12.0678 8.78737 12.0067 8.39385 12.0251 8C12.0045 7.22521 12.2907 6.47363 12.8214 5.90875L12.9876 5.73375L12.4801 4.85875L12.2264 4.92C11.8479 4.999 11.4575 5.00257 11.0777 4.9305C10.6978 4.85843 10.3359 4.71214 10.0126 4.5C9.67132 4.31667 9.36961 4.06768 9.12484 3.76735C8.88008 3.46703 8.69708 3.12128 8.58639 2.75L8.50764 2.49625H7.49264L7.41389 2.75C7.30568 3.12 7.12555 3.46503 6.88382 3.76532C6.64209 4.06561 6.34349 4.31527 6.00514 4.5C5.3382 4.91023 4.5358 5.03924 3.77389 4.85875L3.52014 4.7975L3.01264 5.6725L3.17889 5.8475C3.44916 6.13456 3.65893 6.47306 3.79572 6.84284C3.93251 7.21263 3.99353 7.60615 3.97514 8C3.9897 8.39079 3.92685 8.7806 3.7902 9.14701C3.65355 9.51342 3.44579 9.84919 3.17889 10.135L3.01264 10.31L3.52014 11.185L3.77389 11.1237C4.53252 10.9513 5.32857 11.0866 5.98764 11.5C6.32895 11.6833 6.63066 11.9323 6.87543 12.2326C7.1202 12.533 7.30319 12.8787 7.41389 13.25L7.49264 13.4688ZM8.00014 10.625C7.4813 10.6245 6.97423 10.4703 6.54297 10.1819C6.11172 9.8934 5.77562 9.4836 5.57713 9.00423C5.37864 8.52486 5.32666 7.99742 5.42776 7.48852C5.52885 6.97963 5.77849 6.5121 6.14514 6.145C6.38545 5.8871 6.67526 5.68024 6.99725 5.53677C7.31925 5.39329 7.66685 5.31615 8.01931 5.30993C8.37177 5.30371 8.72187 5.36855 9.04873 5.50057C9.37559 5.63259 9.67251 5.8291 9.92177 6.07837C10.171 6.32763 10.3675 6.62455 10.4996 6.95141C10.6316 7.27827 10.6964 7.62837 10.6902 7.98083C10.684 8.33329 10.6068 8.68089 10.4634 9.00288C10.3199 9.32488 10.113 9.61468 9.85514 9.855C9.36333 10.3474 8.6961 10.6244 8.00014 10.625ZM8.00014 6.6875C7.74072 6.68773 7.48718 6.76483 7.27155 6.90906C7.05593 7.0533 6.88788 7.2582 6.78863 7.49788C6.68939 7.73757 6.6634 8.00129 6.71395 8.25574C6.7645 8.51019 6.88931 8.74395 7.07264 8.9275C7.1939 9.05025 7.33833 9.14772 7.49754 9.21423C7.65675 9.28075 7.82759 9.315 8.00014 9.315C8.17269 9.315 8.34352 9.28075 8.50273 9.21423C8.66195 9.14772 8.80637 9.05025 8.92764 8.9275C9.11096 8.74395 9.23578 8.51019 9.28633 8.25574C9.33687 8.00129 9.31088 7.73757 9.21164 7.49788C9.11239 7.2582 8.94435 7.0533 8.72872 6.90906C8.51309 6.76483 8.25956 6.68773 8.00014 6.6875Z" fill="#242E30"/>
</svg>
