<svg width="32" height="32" viewBox="0 0 32 32" fill="none" xmlns="http://www.w3.org/2000/svg">
<path fill-rule="evenodd" clip-rule="evenodd" d="M16.875 5.73626L20.8913 9.82251V9.81376L22.125 8.58001L17.1988 3.65376C16.8663 3.33001 16.4375 3.16376 16 3.16376C15.5625 3.16376 15.1337 3.32126 14.8012 3.65376L9.875 8.58876L11.1087 9.82251L15.125 5.80626V17.33H16.875V5.73626ZM19.5 11.415H22.125C23.5688 11.415 24.75 12.5963 24.75 14.04V25.415C24.75 26.8588 23.5688 28.04 22.125 28.04H9.875C8.43125 28.04 7.25 26.8588 7.25 25.415V14.04C7.25 12.5963 8.43125 11.415 9.875 11.415H12.5V13.165H9.875C9.39375 13.165 9 13.5588 9 14.04V25.415C9 25.8963 9.39375 26.29 9.875 26.29H22.125C22.6062 26.29 23 25.8963 23 25.415V14.04C23 13.5588 22.6062 13.165 22.125 13.165H19.5V11.415Z" fill="#242E30"/>
</svg>
