<svg width="16" height="16" viewBox="0 0 16 16" fill="none" xmlns="http://www.w3.org/2000/svg">
<g clip-path="url(#clip0_9288_3897)">
<path d="M12.5748 13.155L11.8661 6.69751H11.4636L10.8948 4.96501C10.7286 4.46626 10.3786 4.05501 9.91484 3.81876C9.76609 3.74001 9.60859 3.69626 9.45109 3.66126V2.28751C9.45109 1.87626 9.11859 1.54376 8.70734 1.54376H5.83734C5.42609 1.54376 5.09359 1.87626 5.09359 2.28751V4.16001C4.13109 4.55376 3.44859 5.49876 3.44859 6.60126C3.44859 6.62751 3.44859 6.66251 3.45734 6.68876H3.08109L2.37234 13.1463C2.31109 13.7063 2.48609 14.2575 2.86234 14.6775C3.23859 15.0975 3.77234 15.3338 4.33234 15.3338H10.6148C11.1748 15.3338 11.7086 15.0975 12.0848 14.6775C12.4611 14.2575 12.6361 13.7063 12.5748 13.1463V13.155ZM8.81234 4.94751C8.88234 4.93001 8.95234 4.91251 9.01359 4.91251C9.11859 4.91251 9.21484 4.93876 9.31109 4.98251C9.36359 5.00876 9.39859 5.04376 9.44234 5.08751C9.52984 5.16626 9.59984 5.25376 9.64359 5.36751L10.0811 6.69751H8.72484C8.72484 6.69751 8.73359 6.63626 8.73359 6.61001C8.73359 6.05876 8.56734 5.55126 8.27859 5.13126L8.82109 4.95626L8.81234 4.94751ZM8.12984 2.85626V3.78376L7.03609 4.14251C6.83484 4.06376 6.62484 4.02001 6.39734 3.99376V2.85626H8.12984ZM5.11984 5.70001C5.25109 5.56001 5.41734 5.44626 5.60109 5.36751C5.75859 5.30626 5.92484 5.27126 6.09984 5.27126C6.19609 5.27126 6.29234 5.28001 6.37984 5.30626C6.38859 5.28876 6.40609 5.28001 6.41484 5.26251V5.31501C6.63359 5.36751 6.82609 5.47251 6.98359 5.61251C7.13234 5.74376 7.25484 5.91001 7.33359 6.10251C7.39484 6.26001 7.42984 6.42626 7.42984 6.60126C7.42984 6.62751 7.42984 6.66251 7.42109 6.68876H4.77859C4.77859 6.68876 4.76984 6.62751 4.76984 6.60126C4.76984 6.25126 4.90984 5.93626 5.12859 5.70001H5.11984ZM11.1048 13.8025C10.9736 13.9425 10.8073 14.0213 10.6148 14.0213H4.33234C4.13984 14.0213 3.96484 13.9425 3.84234 13.8025C3.71984 13.6625 3.65859 13.4788 3.67609 13.295L4.20984 8.45626L4.26234 8.01001H10.6936L10.7111 8.14126L10.8073 8.98126L11.2798 13.3038C11.2973 13.4875 11.2448 13.6713 11.1136 13.8113L11.1048 13.8025Z" fill="#242E30"/>
<path d="M7.45609 10.0138C6.98359 10.0138 6.59859 9.62876 6.59859 9.15626H5.28609C5.28609 10.355 6.25734 11.3263 7.45609 11.3263C8.65484 11.3263 9.62609 10.355 9.62609 9.15626H8.31359C8.31359 9.62876 7.92859 10.0138 7.45609 10.0138Z" fill="#242E30"/>
</g>
<defs>
<clipPath id="clip0_9288_3897">
<rect width="14" height="14" fill="white" transform="translate(0.5 1.5)"/>
</clipPath>
</defs>
</svg>
