<svg width="16" height="16" viewBox="0 0 16 16" fill="none" xmlns="http://www.w3.org/2000/svg">
<path d="M11.5 1.21875L11.3075 1.4025C10.6887 2.00703 10.0342 2.57389 9.3475 3.1C8.57932 3.68835 7.77573 4.22895 6.94125 4.71875H4.5C4.0946 4.72105 3.70645 4.88311 3.41978 5.16978C3.13311 5.45645 2.97105 5.8446 2.96875 6.25V9.75C2.97105 10.1554 3.13311 10.5436 3.41978 10.8302C3.70645 11.1169 4.0946 11.279 4.5 11.2812H6.94125C7.77769 11.7679 8.58148 12.3086 9.3475 12.9C10.0414 13.4275 10.7046 13.9943 11.3338 14.5975L11.5262 14.7812H13.0312V1.21875H11.5ZM4.28125 9.75V6.25C4.28125 6.19198 4.3043 6.13634 4.34532 6.09532C4.38634 6.0543 4.44198 6.03125 4.5 6.03125H6.46875V9.96875H4.5C4.44198 9.96875 4.38634 9.9457 4.34532 9.90468C4.3043 9.86366 4.28125 9.80802 4.28125 9.75ZM11.7188 13.1625C11.2113 12.6987 10.6863 12.2875 10.1525 11.85C9.39116 11.2744 8.59961 10.7399 7.78125 10.2487V5.75125C8.6003 5.26118 9.3919 4.72663 10.1525 4.15C10.6863 3.73875 11.2113 3.275 11.7188 2.8375V13.1625Z" fill="#242E30"/>
</svg>
