<svg width="16" height="16" viewBox="0 0 16 16" fill="none" xmlns="http://www.w3.org/2000/svg">
<path d="M1.73999 4.38001C1.32999 4.38001 0.98999 4.72001 0.98999 5.13001V10.88C0.98999 11.29 1.32999 11.63 1.73999 11.63C2.14999 11.63 2.48999 11.29 2.48999 10.88V5.13001C2.48999 4.72001 2.14999 4.38001 1.73999 4.38001Z" fill="black" fill-opacity="0.76"/>
<path d="M4.84999 1.07001C4.43999 1.07001 4.09999 1.41001 4.09999 1.82001V14.18C4.09999 14.59 4.43999 14.93 4.84999 14.93C5.25999 14.93 5.59999 14.59 5.59999 14.18V1.82001C5.59999 1.41001 5.25999 1.07001 4.84999 1.07001Z" fill="black" fill-opacity="0.76"/>
<path d="M7.95999 2.62001C7.54999 2.62001 7.20999 2.96001 7.20999 3.37001V12.63C7.20999 13.04 7.54999 13.38 7.95999 13.38C8.36999 13.38 8.70999 13.04 8.70999 12.63V3.37001C8.70999 2.96001 8.36999 2.62001 7.95999 2.62001Z" fill="black" fill-opacity="0.76"/>
<path d="M11.07 5.21001C10.66 5.21001 10.32 5.55001 10.32 5.96001V10.04C10.32 10.45 10.66 10.79 11.07 10.79C11.48 10.79 11.82 10.45 11.82 10.04V5.96001C11.82 5.55001 11.48 5.21001 11.07 5.21001Z" fill="black" fill-opacity="0.76"/>
<path d="M14.18 3.74001C13.77 3.74001 13.43 4.08001 13.43 4.49001V11.52C13.43 11.93 13.77 12.27 14.18 12.27C14.59 12.27 14.93 11.93 14.93 11.52V4.49001C14.93 4.08001 14.59 3.74001 14.18 3.74001Z" fill="black" fill-opacity="0.76"/>
</svg>
