<svg width="16" height="16" viewBox="0 0 16 16" fill="none" xmlns="http://www.w3.org/2000/svg">
<path d="M3.84379 5.71629L5.04254 5.20879C5.14754 5.16504 5.27004 5.13879 5.38379 5.13879H5.97879C6.43379 5.13879 6.79254 5.48879 6.83629 5.92629C7.28254 5.41004 7.92129 5.06879 8.76129 5.06879C9.70629 5.06879 10.4063 5.50629 10.8525 6.13629C11.1325 5.83879 11.5088 5.68129 11.92 5.68129C12.3313 5.68129 12.6988 5.83879 12.97 6.11004L13.0838 5.93504C13.215 5.74254 13.4163 5.62004 13.635 5.57629V5.25254L13.6175 5.15629C13.5213 4.59629 13.3988 3.82629 12.795 3.22254C12.1913 2.61879 11.4213 2.48754 10.8525 2.39129C10.6863 2.36504 10.4675 2.33004 10.3713 2.28629C10.3013 2.26004 10.1088 2.12004 9.99504 2.03254C9.55754 1.71754 8.89254 1.22754 8.00879 1.22754C7.12504 1.22754 6.48629 1.69129 6.01379 2.03254C5.90879 2.11129 5.71629 2.25129 5.63754 2.27754C5.55004 2.31254 5.32254 2.35629 5.14754 2.38254C4.58754 2.47879 3.81754 2.60129 3.21379 3.20504C2.62754 3.79129 2.48754 4.56129 2.40004 5.08629V5.14754C2.36504 5.29629 2.33004 5.53254 2.28629 5.62879C2.25129 5.69879 2.10254 5.90879 2.03254 6.00504C1.71754 6.44254 1.22754 7.10754 1.22754 7.99129C1.22754 8.87504 1.70879 9.54879 2.04129 9.99504C2.12004 10.1088 2.25129 10.2925 2.28629 10.3625C2.32129 10.45 2.35629 10.6513 2.39129 10.8525C2.48754 11.4125 2.61004 12.1738 3.21379 12.7863C3.81754 13.39 4.62254 13.53 5.15629 13.6175C5.32254 13.6438 5.54129 13.6788 5.62879 13.7225C5.69879 13.7575 5.90004 13.8975 6.00504 13.9763C6.44254 14.3 7.10754 14.7813 7.99129 14.7813C8.87504 14.7813 9.54879 14.3 9.98629 13.9763C10.0913 13.8975 10.2838 13.7575 10.3625 13.7313C10.4588 13.6875 10.695 13.6525 10.8525 13.6263C11.3775 13.5388 12.1738 13.4075 12.7775 12.8038C13.3813 12.2088 13.5125 11.4563 13.6 10.8875V10.0825C13.5563 10.0563 13.5038 10.0388 13.46 10.0038C13.4075 9.96879 13.3725 9.91629 13.3288 9.87254L13.1975 10.065C13.0313 10.3013 12.76 10.45 12.4713 10.45H11.6663C11.3425 10.45 11.045 10.275 10.8963 9.98629C10.87 9.94254 10.8613 9.89004 10.8438 9.83754C10.3975 10.4588 9.70629 10.8963 8.76129 10.8963C7.92129 10.8963 7.28254 10.555 6.83629 10.0388C6.79254 10.4763 6.43379 10.8263 5.97879 10.8263H5.14754C4.66629 10.8263 4.27254 10.4325 4.27254 9.95129V8.05254C4.00129 7.99129 3.76504 7.80754 3.66004 7.53629L3.38004 6.86254C3.33629 6.74879 3.31004 6.63504 3.31004 6.53004C3.31004 6.28504 3.42379 6.05754 3.60754 5.89129C3.67754 5.83004 3.75629 5.76879 3.84379 5.72504V5.71629Z" fill="#242E30"/>
<path d="M5.97879 9.94254V6.01379H5.38379L4.18504 6.52129L4.46504 7.19504L5.14754 6.95004V9.94254H5.97879Z" fill="#242E30"/>
<path d="M6.97629 7.98254C6.97629 8.99754 7.54504 10.0213 8.76129 10.0213C9.97754 10.0213 10.5463 8.99754 10.5463 7.98254C10.5463 6.96754 9.97754 5.94379 8.76129 5.94379C7.54504 5.94379 6.97629 6.96754 6.97629 7.98254ZM9.69754 7.98254C9.69754 8.71754 9.33879 9.26879 8.76129 9.26879C8.18379 9.26879 7.82504 8.71754 7.82504 7.98254C7.82504 7.24754 8.18379 6.69629 8.76129 6.69629C9.33879 6.69629 9.69754 7.24754 9.69754 7.98254Z" fill="#242E30"/>
<path d="M12.5325 7.20379C12.5325 6.89754 12.34 6.54754 11.92 6.54754C11.7275 6.54754 11.5875 6.62629 11.4913 6.73129C11.3688 6.86254 11.3075 7.03754 11.3075 7.20379C11.3075 7.37004 11.3688 7.54504 11.4913 7.67629C11.5875 7.78129 11.7275 7.86004 11.92 7.86004C12.34 7.86004 12.5325 7.51004 12.5325 7.20379Z" fill="#242E30"/>
<path d="M14.5538 8.16629C14.4925 8.14879 14.44 8.12254 14.37 8.12254C13.95 8.12254 13.7575 8.47254 13.7575 8.77879C13.7575 8.97129 13.845 9.18129 14.0113 9.30379C14.1075 9.37379 14.2213 9.43504 14.37 9.43504C14.79 9.43504 14.9825 9.08504 14.9825 8.77879C14.9825 8.52504 14.8425 8.25379 14.5538 8.15754V8.16629Z" fill="#242E30"/>
<path d="M11.675 9.56629H12.48L14.2213 7.00254L14.615 6.41629H13.81L13.0225 7.57129L11.675 9.56629Z" fill="#242E30"/>
</svg>
