<svg width="16" height="16" viewBox="0 0 16 16" fill="none" xmlns="http://www.w3.org/2000/svg">
<path d="M14.4664 9.09373L13.2501 9.53123C13.5073 10.1582 13.5321 10.8564 13.3201 11.5C13.3201 11.5525 13.1889 11.6925 12.7864 11.6925C12.3839 11.6925 12.2526 11.4212 11.9114 10.8175L11.7976 10.625L11.7364 10.52C11.5439 10.205 11.3689 9.83748 11.1851 9.46123C12.2556 9.17551 13.1874 8.51392 13.8101 7.59748C13.9004 7.41345 13.9516 7.21275 13.9607 7.00797C13.9697 6.80318 13.9363 6.59875 13.8626 6.40748C13.7116 6.11977 13.4834 5.8798 13.2037 5.71444C12.924 5.54908 12.6037 5.46487 12.2789 5.47123C12.0947 5.46242 11.9123 5.43008 11.7364 5.37498C11.7364 5.28748 11.7801 5.14748 11.7976 5.05123C11.9351 4.6893 11.9488 4.29198 11.8364 3.92147C11.7239 3.55097 11.4918 3.22821 11.1764 3.00373C10.8113 2.83112 10.4081 2.75497 10.0052 2.78254C9.60232 2.81012 9.21324 2.94049 8.8751 3.16123C8.2276 3.44123 8.0001 3.47623 7.9301 3.36248C7.71683 3.07246 7.43897 2.83607 7.11852 2.67205C6.79807 2.50803 6.44382 2.42087 6.08385 2.41748C5.80118 2.42316 5.52352 2.49308 5.27187 2.62194C5.02022 2.75079 4.80119 2.93521 4.63135 3.16123C3.9051 4.16748 3.4676 4.08873 2.96885 4.03623C2.76809 3.97411 2.55629 3.95602 2.34791 3.98321C2.13952 4.01039 1.93945 4.08219 1.76135 4.19373C1.58988 4.31211 1.44519 4.46519 1.33666 4.64306C1.22814 4.82092 1.15819 5.0196 1.13135 5.22623C1.1549 6.16097 1.49764 7.05951 2.1026 7.77248C1.53111 8.85081 1.23079 10.0521 1.2276 11.2725C1.21698 11.5041 1.2525 11.7356 1.33212 11.9534C1.41173 12.1712 1.53384 12.371 1.69135 12.5412C1.8347 12.695 2.00802 12.8179 2.20064 12.9021C2.39326 12.9864 2.6011 13.0303 2.81135 13.0312H12.7864C13.0963 13.0506 13.406 12.9918 13.6873 12.8603C13.9686 12.7289 14.2124 12.5289 14.3964 12.2787C15.1751 11.1675 14.5364 9.30373 14.4664 9.09373ZM2.46135 5.25248C2.55155 5.2437 2.64239 5.2437 2.7326 5.25248C3.6076 5.40123 4.57885 5.43623 5.69885 3.88748C5.75086 3.82418 5.81634 3.77327 5.89051 3.73846C5.96467 3.70365 6.04567 3.68581 6.1276 3.68623C6.28956 3.69658 6.44704 3.74373 6.58805 3.82409C6.72906 3.90445 6.84988 4.01591 6.94135 4.14998C7.6851 5.06873 8.69135 4.61373 9.4176 4.31623C9.8376 4.14123 10.2926 3.94873 10.4764 4.07123C10.6601 4.19373 10.6426 4.17623 10.5201 4.72748C10.4189 4.98422 10.3907 5.26395 10.4385 5.53573C10.4864 5.80752 10.6085 6.06077 10.7914 6.26748C11.1663 6.56874 11.6317 6.73516 12.1126 6.73998C12.2891 6.75375 12.4629 6.79204 12.6289 6.85373C12.6419 6.87634 12.6488 6.90199 12.6488 6.92811C12.6488 6.95422 12.6419 6.97987 12.6289 7.00248C12.1191 7.63649 11.415 8.08536 10.6251 8.27998C10.2861 7.46924 9.71081 6.77938 8.97416 6.30025C8.23751 5.82111 7.37365 5.57492 6.4951 5.59373C5.90402 5.58777 5.315 5.66435 4.7451 5.82123C4.10371 5.97846 3.50572 6.27746 2.9951 6.69623C2.68646 6.3181 2.49219 5.85973 2.4351 5.37498C2.44385 5.30498 2.4701 5.26998 2.46135 5.25248ZM2.8026 11.7187C2.77093 11.7179 2.73978 11.7105 2.71116 11.6969C2.68253 11.6833 2.65705 11.664 2.63635 11.64C2.59903 11.5987 2.57049 11.5503 2.55244 11.4976C2.53439 11.445 2.52722 11.3892 2.53135 11.3337C2.6451 8.87498 3.42385 7.53623 5.06885 7.12498C5.53444 7.00387 6.01403 6.94502 6.4951 6.94998C8.53385 6.94998 9.1726 8.31498 9.91635 9.88998C10.132 10.3916 10.3835 10.877 10.6689 11.3425L10.7914 11.5525C10.7914 11.6225 10.8614 11.6925 10.9051 11.7625L2.8026 11.7187Z" fill="#242E30"/>
</svg>
