<svg width="16" height="16" viewBox="0 0 16 16" fill="none" xmlns="http://www.w3.org/2000/svg">
<path d="M13.25 2.96875H2.75C1.91 2.96875 1.21875 3.66 1.21875 4.5V11.5C1.21875 12.34 1.91 13.0312 2.75 13.0312H13.25C14.09 13.0312 14.7812 12.34 14.7812 11.5V4.5C14.7812 3.66 14.09 2.96875 13.25 2.96875ZM10.4588 8.105L10.03 8.18375C9.9775 8.20125 9.93375 8.245 9.925 8.30625C9.925 8.37625 9.8375 10.0213 9.74125 10.45C9.72375 10.5113 9.6625 10.555 9.60125 10.555H6.425V10.5638C6.355 10.5638 6.29375 10.52 6.285 10.4588C6.18 10.03 6.10125 8.385 6.10125 8.315C6.10125 8.25375 6.04875 8.21 5.99625 8.1925L5.5675 8.11375C5.50625 8.09625 5.45375 8.04375 5.45375 7.97375C5.45375 7.9475 5.45375 7.93 5.47125 7.9125C5.50625 7.83375 6.32 6.38125 7.81625 5.48875C7.8775 5.445 7.9475 5.4275 8.02625 5.4275C8.105 5.4275 8.175 5.45375 8.23625 5.48875C8.53375 5.66375 9.12 6.32875 9.12 6.32875V5.8125C9.12 5.76 9.16375 5.725 9.2075 5.725L9.65375 5.7775C9.715 5.7775 9.7675 5.83 9.785 5.89125C9.785 5.89125 9.86375 6.4075 9.9075 6.9325C9.9075 6.95 9.91625 6.9675 9.925 6.97625C10.345 7.48375 10.5637 7.8775 10.5812 7.92125C10.59 7.93875 10.5988 7.965 10.5988 7.97375C10.5988 8.04375 10.555 8.09625 10.485 8.11375L10.4588 8.105Z" fill="#242E30"/>
</svg>
