<svg width="16" height="16" viewBox="0 0 16 16" fill="none" xmlns="http://www.w3.org/2000/svg">
<path fill-rule="evenodd" clip-rule="evenodd" d="M9.31219 10.0387C10.5634 10.0387 11.5697 9.02377 11.5697 7.78127C11.5697 6.53002 10.5547 5.52377 9.31219 5.52377C8.06969 5.52377 7.05469 6.53877 7.05469 7.78127C7.05469 9.02377 8.06969 10.0387 9.31219 10.0387ZM8.63844 7.11627C8.81344 6.94127 9.05844 6.83627 9.30344 6.83627C9.82844 6.83627 10.2484 7.25627 10.2484 7.78127C10.2484 8.03502 10.1522 8.27127 9.96844 8.44627C9.79344 8.62127 9.54844 8.72627 9.30344 8.72627C8.77844 8.72627 8.35844 8.30627 8.35844 7.78127C8.35844 7.52752 8.45469 7.29127 8.63844 7.11627Z" fill="#242E30"/>
<path d="M5.51465 7.05502H4.20215V8.50752H5.51465V7.05502Z" fill="#242E30"/>
<path fill-rule="evenodd" clip-rule="evenodd" d="M14.9477 7.12502L14.5977 7.30877L14.6065 7.31752C14.2652 7.49252 14.0465 7.85127 14.0465 8.22752C14.0465 8.60377 14.2565 8.95377 14.6065 9.13752L14.9565 9.32127V12.4975H1.05273V9.33002L1.41148 9.14627C1.76148 8.96252 1.98023 8.61252 1.98023 8.22752C1.98023 7.84252 1.76148 7.49252 1.41148 7.30877L1.05273 7.12502V3.08252H14.9477V7.12502ZM12.7252 8.21877C12.7252 7.49252 13.0665 6.81002 13.6352 6.37252L13.644 6.38127V4.39502H5.50648V5.74252H4.19398V4.39502H2.36523V6.36377C2.94273 6.80127 3.29273 7.48377 3.29273 8.22752C3.29273 8.97127 2.95148 9.65377 2.36523 10.0912V11.185H4.20273V9.81127H5.51523V11.185H13.6352V10.0737C13.0665 9.62752 12.7252 8.94502 12.7252 8.21877Z" fill="#242E30"/>
</svg>
