<svg viewBox="0 0 28 28" fill="none" xmlns="http://www.w3.org/2000/svg">
<path d="M14 1.75C11.5772 1.75 9.20877 2.46845 7.19427 3.8145C5.17977 5.16054 3.60965 7.07373 2.68248 9.31213C1.75531 11.5505 1.51272 14.0136 1.98539 16.3899C2.45805 18.7661 3.62475 20.9489 5.33795 22.6621C7.05114 24.3753 9.23388 25.542 11.6101 26.0146C13.9864 26.4873 16.4495 26.2447 18.6879 25.3175C20.9263 24.3904 22.8395 22.8202 24.1855 20.8057C25.5316 18.7912 26.25 16.4228 26.25 14C26.25 10.7511 24.9594 7.63526 22.6621 5.33794C20.3647 3.04062 17.2489 1.75 14 1.75ZM13.9213 17.2113C13.1038 16.8133 12.3346 16.323 11.6288 15.75C10.588 16.6324 9.40437 17.3307 8.12876 17.815L7.59501 16.4325C8.67504 16.0322 9.68278 15.4589 10.5788 14.735C10.0937 14.2236 9.66268 13.6636 9.29251 13.0638L10.5 12.25C10.821 12.7519 11.1871 13.2234 11.5938 13.6587C11.8897 13.3215 12.1589 12.9617 12.3988 12.5825C12.722 12.0654 12.9862 11.5136 13.1863 10.9375H7.44626V9.45H10.9463V8.575H12.425V9.45H15.925V10.9375H14.7525C14.52 11.7692 14.1725 12.5644 13.72 13.3C13.4181 13.7832 13.0756 14.2398 12.6963 14.665C13.2413 15.1076 13.8273 15.4973 14.4463 15.8288L13.9213 17.2113ZM20.0463 19.4338L19.8538 18.9438L19.5475 18.1562H16.4675L15.9688 19.4338H14.4813L14.6738 18.9438L15.1463 17.7712L15.4963 16.8962L15.7063 16.38L16.7563 13.6675V13.72L17.2113 12.5913H18.83L21.5863 19.4163L20.0463 19.4338Z"/>
<path d="M17.4825 15.5312L17.1325 16.4413L16.94 16.9225H19.0925L18.0163 14.175L17.4825 15.5312Z"/>
</svg>
