<svg width="16" height="16" viewBox="0 0 16 16" fill="none" xmlns="http://www.w3.org/2000/svg">
<path d="M5.47993 11.7188H7.12493V13.0312H5.47993C4.30699 12.9834 3.2006 12.4735 2.40225 11.6129C1.6039 10.7522 1.17842 9.61072 1.21868 8.4375C1.21351 7.24676 1.64997 6.09639 2.44368 5.20875C2.82702 4.78259 3.29505 4.44108 3.81785 4.20604C4.34066 3.97101 4.90674 3.84761 5.47993 3.84375H7.12493V5.15625H5.47993C5.08872 5.16025 4.70273 5.24645 4.34698 5.40925C3.99124 5.57205 3.67369 5.80781 3.41493 6.10125C2.84185 6.74346 2.52973 7.57683 2.53993 8.4375C2.49927 9.26135 2.78518 10.068 3.33562 10.6823C3.88605 11.2966 4.65658 11.6691 5.47993 11.7188ZM10.5199 3.84375H8.87493V5.15625H10.5199C11.3448 5.20372 12.1176 5.57519 12.6699 6.18976C13.2222 6.80433 13.5093 7.61223 13.4687 8.4375C13.4789 9.29817 13.1668 10.1315 12.5937 10.7738C12.3349 11.0672 12.0174 11.303 11.6616 11.4658C11.3059 11.6286 10.9199 11.7147 10.5287 11.7188H8.87493V13.0312H10.5199C11.0931 13.0274 11.6592 12.904 12.182 12.669C12.7048 12.4339 13.1728 12.0924 13.5562 11.6662C14.3499 10.7786 14.7864 9.62824 14.7812 8.4375C14.8214 7.26428 14.396 6.12276 13.5976 5.26212C12.7993 4.40148 11.6929 3.89159 10.5199 3.84375ZM10.2137 9.75L8.92743 8.4375L10.2137 7.125L9.28618 6.25L7.99993 7.51L6.71368 6.25L5.78618 7.125L7.07243 8.4375L5.78618 9.75L6.71368 10.625L7.99993 9.365L9.28618 10.625L10.2137 9.75Z" fill="#242E30"/>
</svg>
