<svg width="32" height="32" viewBox="0 0 32 32" fill="none" xmlns="http://www.w3.org/2000/svg">
<path d="M26.28 10.7574C26.2188 10.4861 26.035 10.2499 25.7813 10.1361C25.5275 10.0224 25.23 10.0399 24.985 10.1799C24.2325 10.6174 23.4363 10.9674 22.6138 11.2386L19.7525 5.77865C19.6213 5.53365 19.3763 5.35865 19.105 5.3149C18.825 5.2799 18.545 5.3674 18.3525 5.56865C16.5063 7.4849 14.0388 8.77115 11.4138 9.20865C8.40377 9.7074 5.57753 11.1861 3.46878 13.3649C3.20628 13.6361 3.14503 14.0474 3.32003 14.3799L7.31878 22.0099C7.45003 22.2549 7.69502 22.4299 7.96627 22.4736C8.01002 22.4736 8.05378 22.4824 8.08878 22.4824C8.32503 22.4824 8.55252 22.3861 8.71877 22.2199C8.99002 21.9399 9.27877 21.6774 9.57627 21.4236L9.91751 23.0249C9.97876 23.2961 10.1625 23.5324 10.4163 23.6461C10.53 23.6986 10.6525 23.7249 10.775 23.7249C10.9238 23.7249 11.0813 23.6811 11.2125 23.6024C13.5138 22.2636 16.2438 21.6861 18.9125 21.9749C20.0325 22.0974 21.17 22.0799 22.29 21.9399L22.1238 20.1899C21.1263 20.3211 20.1113 20.3474 19.105 20.2336C16.4625 19.9449 13.7675 20.3999 11.3963 21.5286L11.1338 20.2861L10.7488 18.4749L9.98752 14.8611C12.1663 13.7324 14.6775 13.2686 17.1363 13.5399C18.6675 13.7061 20.225 13.6099 21.73 13.2861C22.3163 13.1549 22.885 12.9974 23.445 12.7961C23.9088 12.6299 24.3725 12.4549 24.8188 12.2361L25.125 13.6624C25.6413 13.6974 26.1663 13.8024 26.5775 13.9599L27.015 14.1261L26.2975 10.7399L26.28 10.7574ZM17.32 11.8161C14.275 11.4836 11.1688 12.1399 8.55253 13.6711C8.22878 13.8636 8.06251 14.2399 8.14126 14.6074L9.18252 19.5161C8.89377 19.7261 8.61378 19.9536 8.34253 20.1899L5.18378 14.1611C6.97753 12.4899 9.27003 11.3611 11.7025 10.9586C14.3013 10.5299 16.76 9.3574 18.7463 7.63365L20.8725 11.6936C19.7 11.9036 18.5013 11.9561 17.32 11.8249V11.8161Z" fill="#242E30"/>
<path d="M17.5389 14.2662C16.8389 14.415 16.2351 14.8262 15.8414 15.43C15.4476 16.0337 15.3164 16.7512 15.4651 17.4512C15.6139 18.1512 16.0251 18.755 16.6289 19.1487C17.0664 19.4375 17.5739 19.5862 18.0901 19.5862C18.2739 19.5862 18.4664 19.5687 18.6501 19.525C19.3501 19.3762 19.9539 18.965 20.3476 18.3612C20.7414 17.7575 20.8726 17.04 20.7239 16.34C20.4176 14.8875 18.9826 13.96 17.5389 14.2662ZM18.8776 17.4075C18.7376 17.6175 18.5276 17.7575 18.2826 17.81C18.0376 17.8625 17.7839 17.81 17.5826 17.6787C17.3726 17.5387 17.2326 17.3287 17.1801 17.0837C17.1276 16.8387 17.1801 16.585 17.3114 16.375C17.4426 16.165 17.6614 16.025 17.9064 15.9725C17.9676 15.955 18.0376 15.955 18.0989 15.955C18.5364 15.955 18.9214 16.2612 19.0176 16.6987C19.0701 16.9437 19.0176 17.1975 18.8864 17.4075H18.8776Z" fill="#242E30"/>
<path d="M12.0349 18.4487C12.7524 18.2125 13.4962 18.0462 14.2487 17.95L14.0212 16.2175C13.1724 16.3312 12.3237 16.5237 11.5012 16.7862L12.0437 18.4487H12.0349Z" fill="#242E30"/>
<path d="M25.3438 23.9526C25.1513 23.8126 24.9326 23.7163 24.6789 23.7163C24.4251 23.7163 24.2063 23.8126 24.0138 23.9526C23.7338 24.1626 23.55 24.4688 23.55 24.8451C23.55 25.4663 24.0576 25.9738 24.6789 25.9738C25.3001 25.9738 25.8076 25.4663 25.8076 24.8451C25.8076 24.4776 25.615 24.1626 25.3438 23.9526Z" fill="#242E30"/>
<path d="M24.6875 15.4126C24.2325 15.4126 23.7425 15.4913 23.4275 15.6138L23.8388 19.8401L24.0575 22.0363L24.075 22.2026H25.3L25.3175 22.0363L25.405 21.1701L25.9475 15.6051C25.825 15.5613 25.6675 15.5176 25.5013 15.4826C25.2475 15.4301 24.9675 15.4038 24.6963 15.4038L24.6875 15.4126Z" fill="#242E30"/>
</svg>
