<svg width="16" height="16" viewBox="0 0 16 16" fill="none" xmlns="http://www.w3.org/2000/svg">
<path d="M13.1273 3.79126L7.99977 1.14001L2.87227 3.79126C2.35602 4.05376 2.04102 4.57877 2.04102 5.16502V8.75251C2.04102 8.79626 2.11102 13.39 7.83352 14.8775L7.99977 14.9213L8.16602 14.8775C13.8885 13.3813 13.9585 8.79626 13.9585 8.74376V5.16502C13.9585 4.58752 13.6435 4.06251 13.1273 3.79126ZM3.36227 5.16502C3.36227 5.07752 3.40602 5.00751 3.48477 4.96376L7.99977 2.62751L12.5148 4.97251C12.5848 5.00751 12.6373 5.08626 12.6373 5.17376V8.75251C12.6373 8.91876 12.5148 12.3138 7.99977 13.565C3.47602 12.305 3.37102 8.90126 3.36227 8.75251V5.16502Z" fill="#242E30"/>
<path d="M9.25102 8.14876C9.56602 7.82501 9.75852 7.38751 9.75852 6.89751C9.75852 5.90876 8.95352 5.11251 7.97352 5.11251C6.99352 5.11251 6.18852 5.91751 6.18852 6.89751C6.18852 7.38751 6.38977 7.83376 6.71352 8.15751C5.56727 8.54251 4.74477 9.40876 4.74477 10.3975H6.05727C6.05727 9.93376 6.80102 9.26001 7.97352 9.26001C9.14602 9.26001 9.94227 9.91626 9.94227 10.3975H11.2548C11.2548 9.38251 10.4235 8.51626 9.24227 8.14001L9.25102 8.14876ZM7.97352 6.42501C8.23602 6.42501 8.44602 6.63501 8.44602 6.89751C8.44602 7.16001 8.23602 7.37001 7.97352 7.37001C7.71102 7.37001 7.50102 7.16001 7.50102 6.89751C7.50102 6.63501 7.71102 6.42501 7.97352 6.42501Z" fill="#242E30"/>
</svg>
