<svg width="32" height="32" viewBox="0 0 32 32" fill="none" xmlns="http://www.w3.org/2000/svg">
<path d="M23.8226 22.5013C23.3834 21.3449 22.5983 20.3522 21.5742 19.6585C20.55 18.9648 19.3369 18.6039 18.1001 18.625H13.9088C12.6691 18.6059 11.4536 18.9695 10.428 19.6663C9.40236 20.3631 8.61654 21.3592 8.17759 22.5188L6.99634 25.835H25.0126L23.8226 22.5013Z" fill="#242E30"/>
<path d="M20.3137 11.3274C20.1323 10.5599 19.7492 9.85478 19.204 9.28493C18.6588 8.71508 17.9713 8.3012 17.2125 8.08609C16.4538 7.87098 15.6513 7.86244 14.8882 8.06136C14.125 8.26029 13.4288 8.65945 12.8716 9.21757C12.3144 9.7757 11.9164 10.4725 11.7187 11.236C11.521 11.9995 11.5309 12.8019 11.7473 13.5603C11.9636 14.3187 12.3786 15.0056 12.9494 15.5499C13.5201 16.0941 14.2259 16.4761 14.9937 16.6562C15.7277 16.8259 16.4928 16.8059 17.217 16.5981C17.9411 16.3903 18.6004 16.0015 19.1326 15.4683C19.6649 14.9352 20.0526 14.2753 20.2593 13.5508C20.4659 12.8263 20.4846 12.0612 20.3137 11.3274Z" fill="#242E30"/>
</svg>
