<svg width="16" height="16" viewBox="0 0 16 16" fill="none" xmlns="http://www.w3.org/2000/svg">
<path d="M14.5275 10.1262C14.3089 9.43947 13.8277 8.86702 13.1888 8.5337C13.6462 8.06607 13.9024 7.43789 13.9024 6.7837C13.9024 6.12951 13.6462 5.50133 13.1888 5.0337C12.7108 4.57231 12.0724 4.31445 11.4081 4.31445C10.7438 4.31445 10.1054 4.57231 9.6275 5.0337C9.48536 5.17813 9.3619 5.3398 9.26 5.51495C8.88083 5.33139 8.46502 5.23603 8.04375 5.23603C7.62248 5.23603 7.20667 5.33139 6.8275 5.51495C6.72842 5.34554 6.60784 5.18966 6.46875 5.0512C5.98146 4.59093 5.33655 4.3345 4.66625 4.3345C3.99595 4.3345 3.35104 4.59093 2.86375 5.0512C2.39563 5.5274 2.13331 6.16844 2.13331 6.8362C2.13331 7.50396 2.39563 8.145 2.86375 8.6212C2.23704 8.92826 1.75171 9.46368 1.5075 10.1174L1 11.4999H2.4175L2.75 10.5374C2.85206 10.243 3.04351 9.98775 3.29763 9.80736C3.55175 9.62696 3.85586 9.53042 4.1675 9.5312H5.9175C5.97414 9.6158 6.03859 9.6949 6.11 9.76745L6.285 9.9162C5.8557 10.0905 5.47353 10.3636 5.16948 10.7133C4.86543 11.0629 4.64806 11.4793 4.535 11.9287L4.115 13.2499H5.48L5.75125 12.2874C5.81947 11.9641 5.98985 11.6714 6.23722 11.4524C6.48459 11.2334 6.79584 11.0997 7.125 11.0712H8.875C9.20726 11.0961 9.52247 11.2281 9.77332 11.4474C10.0242 11.6667 10.1971 11.9615 10.2663 12.2874L10.5375 13.2499H11.9025L11.5 11.9199C11.3851 11.4724 11.1669 11.0581 10.863 10.7102C10.5591 10.3622 10.1779 10.0903 9.75 9.9162L9.925 9.76745C9.99641 9.6949 10.0609 9.6158 10.1175 9.5312H11.9375C12.2327 9.5455 12.5164 9.64949 12.7509 9.82929C12.9855 10.009 13.1596 10.2561 13.25 10.5374L13.6 11.4999H15L14.5275 10.1262ZM12.235 5.9262C12.4438 6.14098 12.5653 6.42571 12.5759 6.72507C12.5866 7.02443 12.4855 7.31705 12.2925 7.54609C12.0994 7.77513 11.8281 7.92424 11.5313 7.96446C11.2345 8.00467 10.9333 7.93312 10.6862 7.7637C10.6786 7.27133 10.5298 6.7915 10.2575 6.3812C10.3134 6.21145 10.406 6.0561 10.5288 5.9262C10.7573 5.70437 11.0633 5.58029 11.3819 5.58029C11.7004 5.58029 12.0064 5.70437 12.235 5.9262ZM8.98 6.8712C9.17563 7.06535 9.30919 7.31322 9.36373 7.58339C9.41828 7.85355 9.39135 8.13383 9.28636 8.38867C9.18137 8.6435 9.00306 8.86141 8.77404 9.01476C8.54502 9.1681 8.27562 9.24996 8 9.24996C7.72438 9.24996 7.45498 9.1681 7.22596 9.01476C6.99694 8.86141 6.81863 8.6435 6.71364 8.38867C6.60865 8.13383 6.58172 7.85355 6.63627 7.58339C6.69081 7.31322 6.82437 7.06535 7.02 6.8712C7.28581 6.62269 7.63611 6.48445 8 6.48445C8.36389 6.48445 8.71419 6.62269 8.98 6.8712ZM3.73 5.9262C3.96591 5.70152 4.27921 5.5762 4.605 5.5762C4.93079 5.5762 5.24409 5.70152 5.48 5.9262C5.59466 6.04228 5.68143 6.18291 5.73375 6.33745C5.43277 6.78176 5.27129 7.3058 5.27 7.84245C5.02961 7.98611 4.74868 8.04679 4.47043 8.01517C4.19218 7.98356 3.93203 7.86138 3.73 7.66745C3.61465 7.55279 3.52311 7.41646 3.46065 7.26629C3.39819 7.11613 3.36603 6.95509 3.36603 6.79245C3.36603 6.62981 3.39819 6.46878 3.46065 6.31861C3.52311 6.16845 3.61465 6.03211 3.73 5.91745V5.9262Z" fill="#242E30"/>
</svg>
