<svg width="16" height="16" viewBox="0 0 16 16" fill="none" xmlns="http://www.w3.org/2000/svg">
<path d="M6.54617 7.125C7.15188 7.125 7.74398 6.94539 8.24761 6.60888C8.75123 6.27237 9.14376 5.79407 9.37555 5.23447C9.60735 4.67487 9.66799 4.0591 9.54983 3.46504C9.43166 2.87097 9.13998 2.32529 8.71169 1.89699C8.28339 1.46869 7.7377 1.17701 7.14364 1.05885C6.54957 0.940677 5.9338 1.00133 5.3742 1.23312C4.8146 1.46491 4.33631 1.85744 3.9998 2.36107C3.66328 2.86469 3.48367 3.4568 3.48367 4.0625C3.48367 4.87473 3.80633 5.65369 4.38066 6.22802C4.95499 6.80235 5.73395 7.125 6.54617 7.125ZM6.54617 2.3125C6.89229 2.3125 7.23063 2.41514 7.51842 2.60743C7.8062 2.79972 8.03051 3.07303 8.16296 3.39281C8.29541 3.71258 8.33007 4.06444 8.26255 4.40391C8.19502 4.74338 8.02835 5.0552 7.78361 5.29994C7.53887 5.54468 7.22705 5.71135 6.88758 5.77888C6.54811 5.8464 6.19625 5.81174 5.87648 5.67929C5.5567 5.54684 5.28339 5.32254 5.0911 5.03475C4.89881 4.74696 4.79617 4.40862 4.79617 4.0625C4.79617 3.59837 4.98055 3.15325 5.30873 2.82506C5.63692 2.49688 6.08204 2.3125 6.54617 2.3125ZM9.40742 9.98625C8.94389 9.68561 8.4024 9.52742 7.84992 9.53125H5.22492C4.70574 9.51227 4.1931 9.65201 3.75537 9.93184C3.31765 10.2117 2.97563 10.6183 2.77492 11.0975L2.31992 12.375H0.919922L1.55867 10.625C1.8554 9.89708 2.3669 9.27686 3.02501 8.84697C3.68313 8.41708 4.45662 8.19794 5.24242 8.21875H7.86742C8.67016 8.21549 9.45689 8.4433 10.1337 8.875L9.40742 9.98625Z" fill="#242E30"/>
<path d="M14.6674 11.7587L12.9086 10L12.0336 10.875L12.9524 11.7937H8.80488V13.0275H12.9524L12.0336 13.9462L12.9086 14.8212L14.6674 13.0625C15.0174 12.7125 15.0174 12.135 14.6674 11.7762V11.7587Z" fill="#242E30"/>
</svg>
