<svg width="16" height="16" viewBox="0 0 16 16" fill="none" xmlns="http://www.w3.org/2000/svg">
<path d="M9.855 7.895C10.1202 7.46927 10.2342 6.9666 10.1786 6.46811C10.1231 5.96962 9.90118 5.50439 9.54875 5.1475C9.12747 4.74679 8.56829 4.52333 7.98688 4.52333C7.40546 4.52333 6.84628 4.74679 6.425 5.1475C6.05056 5.51457 5.81796 6.0022 5.76832 6.5242C5.71868 7.0462 5.8552 7.56894 6.15375 8C5.56875 8.24933 5.10414 8.71709 4.85875 9.30375L4.36 10.625H5.76L6.08375 9.75C6.19206 9.51922 6.36608 9.32553 6.58399 9.19323C6.80191 9.06092 7.05403 8.99588 7.30875 9.00625H8.875C9.12993 8.99471 9.38254 9.05927 9.60068 9.19171C9.81882 9.32416 9.99263 9.51849 10.1 9.75L10.4237 10.625H11.8325L11.3338 9.30375C11.2016 8.97728 11.0014 8.68275 10.7464 8.43982C10.4914 8.19689 10.1875 8.01115 9.855 7.895ZM7.3525 6.075C7.43661 5.98911 7.53751 5.92148 7.64891 5.87632C7.76032 5.83115 7.87983 5.80943 8 5.8125C8.18492 5.79686 8.37002 5.84043 8.52856 5.93689C8.6871 6.03336 8.81086 6.17773 8.88196 6.34915C8.95306 6.52058 8.96782 6.71016 8.9241 6.89052C8.88038 7.07088 8.78045 7.23266 8.63875 7.3525C8.46934 7.52307 8.23912 7.61935 7.99872 7.62017C7.75832 7.62099 7.52744 7.52628 7.35687 7.35687C7.18631 7.18747 7.09002 6.95724 7.0892 6.71684C7.08838 6.47645 7.18309 6.24557 7.3525 6.075ZM13.25 2.09375H2.75C2.3446 2.09605 1.95645 2.25811 1.66978 2.54478C1.38311 2.83145 1.22105 3.2196 1.21875 3.625V11.5C1.22105 11.9054 1.38311 12.2936 1.66978 12.5802C1.95645 12.8669 2.3446 13.029 2.75 13.0312H5.97875L8 15.0525L10.0213 13.0312H13.25C13.6554 13.029 14.0436 12.8669 14.3302 12.5802C14.6169 12.2936 14.779 11.9054 14.7812 11.5V3.625C14.779 3.2196 14.6169 2.83145 14.3302 2.54478C14.0436 2.25811 13.6554 2.09605 13.25 2.09375ZM13.4688 11.5C13.4688 11.558 13.4457 11.6137 13.4047 11.6547C13.3637 11.6957 13.308 11.7188 13.25 11.7188H9.47875L8 13.1975L6.52125 11.7188H2.75C2.69198 11.7188 2.63634 11.6957 2.59532 11.6547C2.5543 11.6137 2.53125 11.558 2.53125 11.5V3.625C2.53125 3.56698 2.5543 3.51134 2.59532 3.47032C2.63634 3.4293 2.69198 3.40625 2.75 3.40625H13.25C13.308 3.40625 13.3637 3.4293 13.4047 3.47032C13.4457 3.51134 13.4688 3.56698 13.4688 3.625V11.5Z" fill="#242E30"/>
</svg>
