<svg width="16" height="16" viewBox="0 0 16 16" fill="none" xmlns="http://www.w3.org/2000/svg">
<path d="M7.12503 7.125C7.73073 7.125 8.32284 6.94539 8.82646 6.60888C9.33009 6.27237 9.72262 5.79407 9.95441 5.23447C10.1862 4.67487 10.2469 4.0591 10.1287 3.46504C10.0105 2.87097 9.71884 2.32529 9.29054 1.89699C8.86225 1.46869 8.31656 1.17701 7.72249 1.05885C7.12843 0.940677 6.51266 1.00133 5.95306 1.23312C5.39346 1.46491 4.91517 1.85744 4.57865 2.36107C4.24214 2.86469 4.06253 3.4568 4.06253 4.0625C4.06253 4.87473 4.38518 5.65369 4.95951 6.22802C5.53384 6.80235 6.3128 7.125 7.12503 7.125ZM7.12503 2.3125C7.47115 2.3125 7.80949 2.41514 8.09728 2.60743C8.38506 2.79972 8.60936 3.07303 8.74182 3.39281C8.87427 3.71258 8.90893 4.06444 8.8414 4.40391C8.77388 4.74338 8.60721 5.0552 8.36247 5.29994C8.11772 5.54468 7.8059 5.71135 7.46644 5.77888C7.12697 5.8464 6.7751 5.81174 6.45533 5.67929C6.13556 5.54684 5.86225 5.32254 5.66996 5.03475C5.47766 4.74696 5.37503 4.40862 5.37503 4.0625C5.37503 3.59837 5.5594 3.15325 5.88759 2.82506C6.21578 2.49688 6.6609 2.3125 7.12503 2.3125ZM9.98628 9.98625C9.52275 9.68561 8.98126 9.52742 8.42878 9.53125H5.80378C5.28459 9.51227 4.77196 9.65201 4.33423 9.93184C3.8965 10.2117 3.55448 10.6183 3.35378 11.0975L2.89878 12.375H1.49878L2.13753 10.625C2.43426 9.89708 2.94575 9.27686 3.60387 8.84697C4.26199 8.41708 5.03548 8.19794 5.82128 8.21875H8.44628C9.24902 8.21549 10.0357 8.4433 10.7125 8.875L9.98628 9.98625ZM15 13.0313H13.0313V15H11.7188V13.0313H9.75003V11.7188H11.7188V9.75H13.0313V11.7188H15V13.0313Z" fill="#242E30"/>
</svg>
