<svg width="16" height="16" viewBox="0 0 16 16" fill="none" xmlns="http://www.w3.org/2000/svg">
<path fill-rule="evenodd" clip-rule="evenodd" d="M14.7812 4.57875V11.4212L13.1712 13.0312H2.82875L1.21875 11.4212V4.57875L2.82875 2.96875H13.1712L14.7812 4.57875ZM10.2136 8C9.71287 8.19802 9.25805 8.49664 8.87728 8.8774C8.49651 9.25817 8.19789 9.71299 7.99988 10.2138C7.80187 9.71299 7.50325 9.25817 7.12248 8.8774C6.74172 8.49664 6.28689 8.19802 5.78613 8C6.28689 7.80199 6.74172 7.50337 7.12248 7.12261C7.50325 6.74184 7.80187 6.28701 7.99988 5.78625C8.19789 6.28701 8.49651 6.74184 8.87728 7.12261C9.25805 7.50337 9.71287 7.80199 10.2136 8Z" fill="#242E30"/>
</svg>
