<svg width="32" height="32" viewBox="0 0 32 32" fill="none" xmlns="http://www.w3.org/2000/svg">
<path d="M21.0404 7.00516L20.2529 5.10641C20.1209 4.78637 19.927 4.4956 19.6822 4.25082C19.4374 4.00605 19.1466 3.8121 18.8266 3.68016C18.185 3.41521 17.4645 3.41521 16.8229 3.68016L8.80786 7.00516H21.0404Z" fill="#242E30"/>
<path d="M25.6253 23.4463H19.0628C18.8725 23.4463 18.69 23.3707 18.5554 23.2361C18.4208 23.1016 18.3453 22.9191 18.3453 22.7288V13.7075C18.3476 13.5188 18.4242 13.3385 18.5585 13.2058C18.6928 13.0732 18.874 12.9988 19.0628 12.9988H26.5878V11.3275C26.5856 10.943 26.499 10.5636 26.334 10.2163C26.1343 9.73 25.7931 9.31488 25.3547 9.0247C24.9163 8.73453 24.4009 8.58267 23.8753 8.5888H5.50025C4.94226 8.59189 4.39976 8.77272 3.9515 9.10505C3.79605 9.22843 3.65251 9.36612 3.52275 9.5163L3.36525 9.7263L3.29525 9.8138C3.20872 9.9401 3.13542 10.075 3.0765 10.2163C2.91155 10.5636 2.82492 10.943 2.82275 11.3275V25.2138C2.82275 25.9239 3.10485 26.6049 3.60698 27.1071C4.1091 27.6092 4.79014 27.8913 5.50025 27.8913H23.8753C24.5854 27.8913 25.2664 27.6092 25.7685 27.1071C26.2707 26.6049 26.5528 25.9239 26.5528 25.2138V23.4638H25.6253V23.4463Z" fill="#242E30"/>
<path d="M20.0952 14.7488V21.6963H29.1252V14.7488H20.0952Z" fill="#242E30"/>
</svg>
