<svg width="32" height="32" viewBox="0 0 32 32" fill="none" xmlns="http://www.w3.org/2000/svg">
<path d="M27.0248 13.3242C26.9889 11.9078 25.8259 10.7667 24.4006 10.7667H19.9624C20.5215 10.0318 20.8665 9.12604 20.8665 8.13354C20.8665 5.72131 18.9037 3.75854 16.4915 3.75854C14.0792 3.75854 12.1165 5.72131 12.1165 8.13354C12.1165 9.12604 12.4614 10.0317 13.0205 10.7667H8.65063C7.22619 10.7667 6.06323 11.9066 6.02649 13.322L4.2594 25.4909L4.25 25.6165C4.25 27.064 5.42749 28.2415 6.875 28.2415H26.125C27.5725 28.2415 28.75 27.064 28.75 25.6165L27.0248 13.3242ZM16.4915 5.50855C17.939 5.50855 19.1165 6.68604 19.1165 8.13355C19.1165 9.58107 17.939 10.7586 16.4915 10.7586C15.0439 10.7586 13.8665 9.58107 13.8665 8.13355C13.8665 6.68604 15.0439 5.50855 16.4915 5.50855ZM26.125 26.4915H6.875C6.41016 26.4915 6.02905 26.1274 6.00171 25.6686L7.76623 13.5173L7.77563 13.3917C7.77563 12.9093 8.16784 12.5167 8.65063 12.5167H24.4006C24.8834 12.5167 25.2756 12.9093 25.2756 13.3917L26.9983 25.6677C26.9718 26.1266 26.5907 26.4915 26.125 26.4915Z" fill="#242E30"/>
<path d="M16.3231 16.8199H14.7885L12.7172 19.2539V16.8199H11.4132V22.1831H12.7172V20.9706L13.3854 20.1947L14.838 22.1831H16.4051L14.2852 19.2454L16.3231 16.8199Z" fill="#242E30"/>
<path d="M19.5035 20.3015H20.3615V20.8715C20.0649 21.0278 19.6685 21.0936 19.3549 21.0936C18.2739 21.0936 17.7459 20.3101 17.7459 19.5017C17.7459 18.5942 18.4064 17.9004 19.2728 17.9004C19.6932 17.9004 20.1307 18.0662 20.411 18.3541L21.2365 17.5295C20.7742 17.0587 20.147 16.7208 19.2395 16.7208C17.334 16.7208 16.4094 18.2063 16.4094 19.5017C16.4094 20.7476 17.2596 22.2822 19.2728 22.2822C20.3042 22.2822 21.2364 21.9028 21.6654 21.4406V19.1958H19.5035V20.3015Z" fill="#242E30"/>
</svg>
