<svg width="32" height="32" viewBox="0 0 32 32" fill="none" xmlns="http://www.w3.org/2000/svg">
<path d="M19.7798 20.585C19.3369 19.9959 18.7672 19.5139 18.1129 19.1747C17.4586 18.8354 16.7365 18.6476 15.9998 18.625C15.2646 18.6455 14.5433 18.8306 13.8891 19.1668C13.2349 19.503 12.6645 19.9816 12.2198 20.5675L10.8635 19.5C11.4677 18.7049 12.2431 18.0561 13.1322 17.6016C14.0214 17.1472 15.0015 16.8988 15.9998 16.875C16.9981 16.8988 17.9782 17.1472 18.8673 17.6016C19.7565 18.0561 20.5319 18.7049 21.136 19.5L19.7798 20.585Z" fill="#242E30"/>
<path d="M27.0337 13.655C25.7265 11.9653 24.0562 10.5911 22.1463 9.63385C20.2365 8.67665 18.1359 8.16099 15.9999 8.125C13.8639 8.16099 11.7633 8.67665 9.85346 9.63385C7.9436 10.5911 6.27333 11.9653 4.96615 13.655L3.61865 12.5438C5.08701 10.6521 6.96244 9.11533 9.1058 8.04743C11.2492 6.97954 13.6055 6.40793 15.9999 6.375C18.3943 6.40793 20.7506 6.97954 22.894 8.04743C25.0374 9.11533 26.9128 10.6521 28.3812 12.5438L27.0337 13.655Z" fill="#242E30"/>
<path d="M23.5249 17.2337C22.64 16.0677 21.5043 15.1155 20.2018 14.4475C18.8992 13.7796 17.4632 13.4131 15.9999 13.375C14.538 13.411 13.1029 13.7748 11.8005 14.4397C10.498 15.1045 9.36158 16.0534 8.47494 17.2162L7.12744 16.1225C8.1735 14.7545 9.51436 13.6398 11.0504 12.8611C12.5864 12.0825 14.2781 11.66 15.9999 11.625C17.7202 11.6579 19.4111 12.0777 20.947 12.8533C22.4829 13.6288 23.8246 14.7402 24.8724 16.105L23.5249 17.2337Z" fill="#242E30"/>
<path d="M15.9998 25.4062C16.8455 25.4062 17.531 24.7207 17.531 23.875C17.531 23.0293 16.8455 22.3438 15.9998 22.3438C15.1541 22.3438 14.4685 23.0293 14.4685 23.875C14.4685 24.7207 15.1541 25.4062 15.9998 25.4062Z" fill="#242E30"/>
</svg>
