<svg width="32" height="32" viewBox="0 0 32 32" fill="none" xmlns="http://www.w3.org/2000/svg">
<path d="M28.5237 16C28.5237 22.755 23.0287 28.25 16.2737 28.25C9.51868 28.25 4.02368 22.755 4.02368 16C4.02368 9.245 9.51868 3.75 16.2737 3.75C23.0287 3.75 28.5237 9.245 28.5237 16ZM26.7737 16C26.7737 10.2075 22.0662 5.5 16.2737 5.5C10.4812 5.5 5.77368 10.2075 5.77368 16C5.77368 21.7925 10.4812 26.5 16.2737 26.5C22.0662 26.5 26.7737 21.7925 26.7737 16Z" fill="#242E30"/>
<path d="M10.4463 19.7539L13.99 15.7989H10.5688V13.8914H17.0263V15.3789L13.4825 19.3338H17.14V21.2414H10.4463V19.7539Z" fill="#242E30"/>
<path d="M20.9898 21.2412H18.7848V17.12L17.6736 17.54V15.755L18.7848 15.335V10.75H20.9898V14.5563L22.1011 14.1362V15.9212L20.9898 16.3412V21.2412Z" fill="#242E30"/>
</svg>
