<svg width="416" height="233" viewBox="0 0 416 233" fill="none" xmlns="http://www.w3.org/2000/svg">
<g filter="url(#filter0_ddd_10396_16690)">
<path d="M7.52539 15.7252C7.52539 9.01494 12.9651 3.5752 19.6754 3.5752H396.325C403.036 3.5752 408.475 9.01494 408.475 15.7252V107.975C408.475 114.685 403.036 120.125 396.325 120.125H19.6754C12.9651 120.125 7.52539 114.685 7.52539 107.975V15.7252Z" fill="white"/>
<path d="M8.53789 15.7252C8.53789 9.57412 13.5243 4.5877 19.6754 4.5877H396.325C402.476 4.5877 407.463 9.57412 407.463 15.7252V107.975C407.463 114.126 402.476 119.113 396.325 119.113H19.6754C13.5243 119.113 8.53789 114.126 8.53789 107.975V15.7252Z" stroke="#F36805" stroke-width="2.025"/>
<circle cx="35.6756" cy="35.9256" r="11.1375" fill="#F36805"/>
<circle cx="35.675" cy="35.9255" r="4.05" fill="white"/>
<path d="M189.415 41.9674C188.722 41.9674 188.135 41.8554 187.655 41.6314C187.175 41.3967 186.791 41.1087 186.503 40.7674L188.295 39.1514C188.551 39.4927 188.882 39.6634 189.287 39.6634C189.628 39.6634 189.9 39.5567 190.103 39.3434C190.316 39.1194 190.423 38.7674 190.423 38.2874V31.3754H193.127V38.3514C193.127 38.8421 193.058 39.3061 192.919 39.7434C192.791 40.1807 192.578 40.5647 192.279 40.8954C191.991 41.2261 191.607 41.4874 191.127 41.6794C190.658 41.8714 190.087 41.9674 189.415 41.9674ZM197.472 41.9674C196.96 41.9674 196.528 41.8981 196.176 41.7594C195.834 41.6101 195.557 41.3967 195.344 41.1194C195.141 40.8421 194.992 40.5007 194.896 40.0954C194.81 39.6901 194.768 39.2207 194.768 38.6874V33.8714H197.312V38.1754C197.312 38.6874 197.392 39.0874 197.552 39.3754C197.712 39.6634 198.016 39.8074 198.464 39.8074C198.89 39.8074 199.194 39.6687 199.376 39.3914C199.568 39.1141 199.664 38.7087 199.664 38.1754V33.8714H202.208V41.7754H199.824V40.4634H199.728C199.568 40.9007 199.285 41.2634 198.88 41.5514C198.474 41.8287 198.005 41.9674 197.472 41.9674ZM207.671 39.3914C207.671 39.1674 207.516 39.0127 207.207 38.9274C206.897 38.8314 206.471 38.7247 205.927 38.6074C205.617 38.5434 205.324 38.4527 205.047 38.3354C204.769 38.2074 204.524 38.0527 204.311 37.8714C204.097 37.6794 203.927 37.4501 203.799 37.1834C203.671 36.9167 203.607 36.5967 203.607 36.2234C203.607 35.8181 203.692 35.4607 203.863 35.1514C204.033 34.8314 204.268 34.5647 204.567 34.3514C204.876 34.1274 205.239 33.9621 205.655 33.8554C206.071 33.7381 206.529 33.6794 207.031 33.6794C207.82 33.6794 208.481 33.7914 209.015 34.0154C209.548 34.2394 209.943 34.5061 210.199 34.8154L208.871 36.2554C208.679 36.0527 208.428 35.8874 208.119 35.7594C207.809 35.6314 207.505 35.5674 207.207 35.5674C206.929 35.5674 206.689 35.6154 206.487 35.7114C206.284 35.7967 206.183 35.9514 206.183 36.1754C206.183 36.3994 206.337 36.5594 206.647 36.6554C206.956 36.7407 207.383 36.8421 207.927 36.9594C208.236 37.0234 208.529 37.1194 208.807 37.2474C209.084 37.3647 209.329 37.5194 209.543 37.7114C209.756 37.8927 209.927 38.1221 210.055 38.3994C210.183 38.6661 210.247 38.9807 210.247 39.3434C210.247 39.7594 210.161 40.1327 209.991 40.4634C209.82 40.7834 209.58 41.0554 209.271 41.2794C208.961 41.5034 208.588 41.6741 208.151 41.7914C207.724 41.9087 207.255 41.9674 206.743 41.9674C205.9 41.9674 205.191 41.8607 204.615 41.6474C204.039 41.4234 203.612 41.1461 203.335 40.8154L204.599 39.3754C204.844 39.6207 205.148 39.8021 205.511 39.9194C205.873 40.0261 206.236 40.0794 206.599 40.0794C206.94 40.0794 207.201 40.0207 207.383 39.9034C207.575 39.7861 207.671 39.6154 207.671 39.3914ZM215.008 41.9514C214.005 41.9514 213.28 41.7007 212.832 41.1994C212.394 40.6981 212.176 39.8981 212.176 38.7994V35.9034H211.04V33.8714H212.176V31.7274H214.688V33.8714H217.024V35.9034H214.688V38.8474C214.688 39.1994 214.746 39.4554 214.864 39.6154C214.992 39.7754 215.2 39.8554 215.488 39.8554C215.68 39.8554 215.861 39.8181 216.032 39.7434C216.213 39.6581 216.362 39.5567 216.48 39.4394L217.296 41.1674C216.773 41.6901 216.01 41.9514 215.008 41.9514ZM222.335 31.3754H229.103V33.4874H225.039V35.4554H228.991V37.5674H225.039V39.6634H229.231V41.7754H222.335V31.3754ZM233.039 41.9674C232.687 41.9674 232.345 41.9141 232.015 41.8074C231.695 41.7007 231.412 41.5461 231.167 41.3434C230.932 41.1301 230.74 40.8741 230.59 40.5754C230.452 40.2767 230.383 39.9354 230.383 39.5514C230.383 38.8261 230.639 38.2554 231.151 37.8394C231.673 37.4234 232.489 37.1834 233.599 37.1194L235.279 37.0234V36.8954C235.279 36.6714 235.231 36.4901 235.135 36.3514C235.049 36.2127 234.932 36.1061 234.783 36.0314C234.644 35.9461 234.479 35.8874 234.286 35.8554C234.105 35.8234 233.919 35.8074 233.727 35.8074C233.428 35.8074 233.124 35.8607 232.815 35.9674C232.505 36.0741 232.276 36.2234 232.127 36.4154L230.735 34.9754C231.023 34.6127 231.444 34.3087 231.999 34.0634C232.553 33.8074 233.279 33.6794 234.174 33.6794C235.316 33.6794 236.207 33.9407 236.847 34.4634C237.497 34.9861 237.823 35.7381 237.823 36.7194V41.7754H235.439V40.5594H235.343C235.14 40.9754 234.847 41.3167 234.463 41.5834C234.089 41.8394 233.615 41.9674 233.039 41.9674ZM233.903 40.2394C234.308 40.2394 234.639 40.1327 234.895 39.9194C235.151 39.6954 235.279 39.3594 235.279 38.9114V38.4954L233.951 38.5914C233.609 38.6127 233.353 38.6981 233.183 38.8474C233.023 38.9967 232.943 39.1941 232.943 39.4394C232.943 39.7167 233.033 39.9194 233.215 40.0474C233.407 40.1754 233.636 40.2394 233.903 40.2394ZM242.883 41.9514C241.88 41.9514 241.155 41.7007 240.707 41.1994C240.269 40.6981 240.051 39.8981 240.051 38.7994V35.9034H238.915V33.8714H240.051V31.7274H242.562V33.8714H244.899V35.9034H242.562V38.8474C242.562 39.1994 242.621 39.4554 242.739 39.6154C242.867 39.7754 243.075 39.8554 243.363 39.8554C243.555 39.8554 243.736 39.8181 243.907 39.7434C244.088 39.6581 244.237 39.5567 244.355 39.4394L245.171 41.1674C244.648 41.6901 243.885 41.9514 242.883 41.9514ZM250.114 32.5274H255.266C255.778 32.5274 256.253 32.6181 256.69 32.7994C257.138 32.9807 257.522 33.2261 257.842 33.5354C258.173 33.8447 258.429 34.2127 258.61 34.6394C258.791 35.0661 258.882 35.5247 258.882 36.0154V41.7754H250.114V32.5274ZM252.786 34.6234V39.6794H256.226V36.0154C256.226 35.8021 256.189 35.6101 256.114 35.4394C256.05 35.2687 255.959 35.1247 255.842 35.0074C255.725 34.8794 255.591 34.7834 255.442 34.7194C255.293 34.6554 255.138 34.6234 254.978 34.6234H252.786ZM260.632 32.5274H263.272V38.8314H260.632V32.5274ZM265.098 32.5274H270.17C270.682 32.5274 271.157 32.6181 271.594 32.7994C272.042 32.9807 272.426 33.2261 272.746 33.5354C273.077 33.8447 273.333 34.2127 273.514 34.6394C273.696 35.0661 273.786 35.5247 273.786 36.0154V41.7754H271.13V36.0154C271.13 35.8021 271.093 35.6101 271.018 35.4394C270.954 35.2687 270.864 35.1247 270.746 35.0074C270.629 34.8794 270.496 34.7834 270.346 34.7194C270.197 34.6554 270.042 34.6234 269.882 34.6234H267.77V41.7754H265.098V32.5274ZM275.506 32.5274H278.162V41.7754H275.506V32.5274ZM284.438 34.6234H279.35V30.4954H282.006V32.5274H287.238V34.2874L284.102 41.7754H281.478L284.438 34.6234ZM293.977 41.9674C293.06 41.9674 292.26 41.8074 291.577 41.4874C290.905 41.1567 290.345 40.7354 289.897 40.2234C289.46 39.7007 289.129 39.1194 288.905 38.4794C288.692 37.8394 288.585 37.2047 288.585 36.5754V32.5274H291.241V36.5754C291.241 37.0554 291.305 37.4874 291.433 37.8714C291.572 38.2554 291.758 38.5861 291.993 38.8634C292.238 39.1407 292.526 39.3541 292.857 39.5034C293.198 39.6527 293.572 39.7274 293.977 39.7274C294.382 39.7274 294.75 39.6527 295.081 39.5034C295.422 39.3541 295.71 39.1407 295.945 38.8634C296.19 38.5861 296.377 38.2554 296.505 37.8714C296.644 37.4874 296.713 37.0554 296.713 36.5754V32.5274H299.385V36.5754C299.385 37.2047 299.273 37.8394 299.049 38.4794C298.836 39.1194 298.505 39.7007 298.057 40.2234C297.609 40.7354 297.044 41.1567 296.361 41.4874C295.689 41.8074 294.894 41.9674 293.977 41.9674ZM292.649 32.5274H295.305V38.2074H292.649V32.5274ZM301.384 35.6954L300.824 32.5274H303.448L303.592 33.4394H303.624C303.72 33.3221 303.837 33.1994 303.976 33.0714C304.115 32.9434 304.285 32.8261 304.488 32.7194C304.691 32.6021 304.931 32.5114 305.208 32.4474C305.496 32.3727 305.832 32.3354 306.216 32.3354C306.888 32.3354 307.453 32.4367 307.912 32.6394C308.371 32.8421 308.739 33.1247 309.016 33.4874C309.304 33.8501 309.507 34.2821 309.624 34.7834C309.752 35.2847 309.816 35.8394 309.816 36.4474V41.7754H305.496V39.6794H307.16V36.7514C307.16 36.4527 307.133 36.1701 307.08 35.9034C307.037 35.6367 306.957 35.4074 306.84 35.2154C306.723 35.0127 306.568 34.8581 306.376 34.7514C306.184 34.6341 305.944 34.5754 305.656 34.5754C305.112 34.5754 304.707 34.7781 304.44 35.1834C304.173 35.5887 304.04 36.1114 304.04 36.7514V41.7754H301.384V35.6954ZM315.413 32.5274H318.053V38.8314H315.413V32.5274ZM321.128 41.9674C320.989 41.9674 320.834 41.9621 320.664 41.9514C320.493 41.9407 320.328 41.9301 320.168 41.9194C320.008 41.9087 319.864 41.8927 319.736 41.8714C319.608 41.8607 319.517 41.8501 319.464 41.8394V39.7914C319.677 39.8127 319.864 39.8341 320.024 39.8554C320.194 39.8661 320.37 39.8714 320.552 39.8714C320.765 39.8714 320.936 39.8021 321.064 39.6634C321.192 39.5141 321.256 39.3007 321.256 39.0234V34.6234H319.464V32.5274H329.08V41.7754H326.408V34.6234H323.928V38.9274C323.928 39.9087 323.677 40.6607 323.176 41.1834C322.674 41.7061 321.992 41.9674 321.128 41.9674ZM330.896 32.5274H333.552V41.7754H330.896V32.5274ZM339.445 36.6074C339.445 35.9354 339.306 35.4394 339.029 35.1194C338.751 34.7887 338.309 34.6234 337.701 34.6234H334.741V32.5274H338.053C339.386 32.5274 340.394 32.8687 341.077 33.5514C341.759 34.2234 342.101 35.2421 342.101 36.6074V41.7754H339.445V36.6074ZM343.835 32.5274H346.475V38.8314H343.835V32.5274ZM353.79 41.9674C352.872 41.9674 352.072 41.8074 351.39 41.4874C350.718 41.1567 350.158 40.7354 349.71 40.2234C349.272 39.7007 348.942 39.1194 348.718 38.4794C348.504 37.8394 348.398 37.2047 348.398 36.5754V32.5274H351.054V36.5754C351.054 37.0554 351.118 37.4874 351.246 37.8714C351.384 38.2554 351.571 38.5861 351.806 38.8634C352.051 39.1407 352.339 39.3541 352.67 39.5034C353.011 39.6527 353.384 39.7274 353.79 39.7274C354.195 39.7274 354.563 39.6527 354.894 39.5034C355.235 39.3541 355.523 39.1407 355.758 38.8634C356.003 38.5861 356.19 38.2554 356.318 37.8714C356.456 37.4874 356.526 37.0554 356.526 36.5754V32.5274H359.198V36.5754C359.198 37.2047 359.086 37.8394 358.862 38.4794C358.648 39.1194 358.318 39.7007 357.87 40.2234C357.422 40.7354 356.856 41.1567 356.174 41.4874C355.502 41.8074 354.707 41.9674 353.79 41.9674ZM352.462 32.5274H355.118V38.2074H352.462V32.5274Z" fill="#242E30"/>
<path d="M391.613 35.3903C391.539 35.1993 390.529 33.3254 388.654 30.9746C388.606 30.9175 388.576 30.848 388.567 30.7743C388.455 29.4061 388.266 28.0453 388.002 26.6982C387.972 26.5629 387.901 26.4404 387.798 26.3478C387.696 26.2552 387.567 26.1973 387.43 26.182L385.479 25.9414C385.461 25.9399 385.444 25.9399 385.427 25.9414C385.318 25.9414 385.214 25.985 385.136 26.0624C385.059 26.1399 385.016 26.2449 385.016 26.3544V27.0338C385.016 27.0403 385.013 27.0466 385.009 27.0513C385.004 27.0559 384.998 27.0585 384.991 27.0585C384.985 27.0585 384.979 27.0563 384.975 27.0523C383.754 25.9412 382.437 24.9426 381.038 24.0686C380.753 23.8767 380.417 23.7747 380.074 23.7754C379.73 23.7743 379.395 23.8765 379.109 24.0686C372.385 28.2376 368.682 35.0186 368.539 35.3903C368.497 35.4797 368.475 35.5774 368.476 35.6763C368.476 35.8252 368.525 35.9698 368.616 36.0874C368.707 36.205 368.835 36.2888 368.978 36.3257L370.916 36.6994C371.043 36.7352 371.157 36.8085 371.243 36.9099C371.328 37.0113 371.382 37.1361 371.396 37.2683C371.412 37.6121 371.778 45.2862 372.238 47.2767C372.276 47.4197 372.359 47.5461 372.476 47.6363C372.593 47.7264 372.736 47.7753 372.883 47.7754H372.898C374.028 47.7465 375.064 47.7279 376.182 47.7124H376.274C376.303 47.7124 376.331 47.7067 376.358 47.6957C376.384 47.6847 376.408 47.6686 376.428 47.6482C376.448 47.6279 376.464 47.6038 376.475 47.5772C376.486 47.5507 376.492 47.5222 376.491 47.4935V47.4884C376.446 46.8183 376.348 45.2862 376.269 43.6684C376.269 43.6281 376.269 43.5775 376.262 43.5362C376.259 43.469 376.239 43.4037 376.204 43.3459C376.17 43.2881 376.122 43.2397 376.065 43.2048C375.77 43.0278 375.523 42.7806 375.345 42.4849C375.168 42.1892 375.066 41.8542 375.048 41.5095C374.945 38.819 374.895 35.7083 375.042 33.2748C375.049 33.1745 375.094 33.0806 375.167 33.0127C375.241 32.9447 375.338 32.9079 375.438 32.9099C375.539 32.9119 375.634 32.9525 375.705 33.0234C375.776 33.0942 375.817 33.1898 375.82 33.2903C375.82 33.3006 375.82 33.311 375.82 33.3213C375.725 34.9432 375.717 36.8615 375.75 38.754C375.751 38.815 375.764 38.8752 375.789 38.9311C375.813 38.9871 375.848 39.0377 375.892 39.0801C375.935 39.1224 375.987 39.1558 376.043 39.1781C376.1 39.2004 376.16 39.2114 376.221 39.2103C376.282 39.2092 376.342 39.1961 376.397 39.1718C376.453 39.1474 376.504 39.1123 376.546 39.0684C376.588 39.0245 376.621 38.9727 376.643 38.9159C376.666 38.8591 376.676 38.7985 376.675 38.7374C376.64 36.8326 376.65 34.902 376.747 33.2748C376.749 33.1711 376.792 33.0723 376.867 33.0004C376.941 32.9285 377.041 32.8892 377.145 32.8913C377.248 32.8933 377.346 32.9365 377.418 33.0114C377.489 33.0862 377.529 33.1865 377.526 33.2903V33.3213C377.431 34.935 377.424 36.8419 377.457 38.724C377.458 38.8472 377.509 38.9647 377.597 39.0504C377.685 39.1362 377.804 39.1833 377.926 39.1814C378.049 39.1795 378.166 39.1287 378.251 39.0402C378.337 38.9517 378.384 38.8328 378.382 38.7096C378.348 36.813 378.357 34.8896 378.455 33.2738C378.457 33.17 378.5 33.0713 378.574 32.9994C378.649 32.9275 378.749 32.8882 378.852 32.8903C378.955 32.8923 379.054 32.9355 379.125 33.0103C379.197 33.0852 379.236 33.1855 379.234 33.2893C379.234 33.2996 379.234 33.3099 379.234 33.3203C379.095 35.6866 379.14 38.6807 379.234 41.3082C379.234 41.3082 379.234 41.3309 379.234 41.333C379.234 41.3351 379.234 41.3598 379.234 41.3733V41.3991C379.234 41.7399 379.152 42.0757 378.994 42.3774C378.836 42.6791 378.607 42.9376 378.327 43.1305C378.278 43.1649 378.236 43.2102 378.207 43.2629C378.177 43.3157 378.159 43.3745 378.156 43.435C378.156 43.435 378.107 43.8387 378.285 45.7931C378.367 46.6469 378.431 47.2385 378.46 47.5059C378.466 47.5559 378.491 47.6018 378.529 47.6349C378.567 47.668 378.615 47.686 378.665 47.6856H378.846C379.219 47.6856 379.604 47.6856 380.004 47.6856H380.154H381.605L382.705 47.6949C382.756 47.6952 382.805 47.6769 382.842 47.6434C382.88 47.6099 382.905 47.5635 382.911 47.5131C383.165 45.1706 383.224 43.8542 383.224 43.8542C383.223 43.7981 383.201 43.7443 383.164 43.703C383.126 43.6616 383.074 43.6353 383.019 43.6291L381.682 43.4443C381.594 43.4333 381.51 43.3963 381.442 43.3379C381.375 43.2795 381.325 43.2023 381.301 43.116C381.284 43.0486 381.278 42.9788 381.284 42.9095C381.825 35.1012 384.389 32.4695 384.389 32.4695C384.426 32.429 384.468 32.3927 384.513 32.3611C384.583 32.3097 384.667 32.2822 384.754 32.2827C384.836 32.2827 384.917 32.3078 384.985 32.3546C385.053 32.4014 385.106 32.4677 385.136 32.5449C385.155 32.6059 385.166 32.669 385.169 32.7328C385.391 35.1869 385.282 39.3641 385.145 42.6225C385.029 45.3884 384.89 47.5596 384.89 47.5596C384.889 47.5807 384.893 47.6016 384.901 47.6212C384.909 47.6407 384.921 47.6585 384.936 47.6734C384.951 47.6884 384.968 47.7003 384.988 47.7084C385.007 47.7165 385.028 47.7207 385.049 47.7207C385.777 47.7331 386.493 47.7475 387.253 47.7671H387.267C387.414 47.7671 387.558 47.7182 387.674 47.628C387.791 47.5378 387.875 47.4114 387.913 47.2685C388.373 45.2779 388.735 37.6038 388.755 37.26C388.769 37.1275 388.823 37.0024 388.91 36.901C388.996 36.7996 389.111 36.7265 389.239 36.6912L391.176 36.3174C391.32 36.2805 391.447 36.1967 391.538 36.0791C391.629 35.9616 391.679 35.8169 391.679 35.668C391.677 35.5718 391.655 35.4771 391.613 35.3903Z" fill="#FF8000"/>
<path d="M31.6922 79.293C31.4496 79.293 31.2256 79.2837 31.0202 79.265C30.8149 79.2557 30.6562 79.2463 30.5442 79.237V78.215C30.6749 78.2337 30.8382 78.2523 31.0342 78.271C31.2302 78.2803 31.3702 78.285 31.4542 78.285C31.7156 78.285 31.9116 78.2057 32.0422 78.047C32.1729 77.8883 32.2382 77.6037 32.2382 77.193V72.041H30.5442V71.033H38.0342V79.125H36.8582V72.041H33.4282V77.375C33.4282 77.599 33.3956 77.8277 33.3302 78.061C33.2649 78.285 33.1622 78.4903 33.0222 78.677C32.8822 78.8543 32.7002 79.0037 32.4762 79.125C32.2616 79.237 32.0002 79.293 31.6922 79.293ZM40.5222 71.033H44.2182C45.0489 71.033 45.7115 71.2663 46.2062 71.733C46.7009 72.1997 46.9482 72.8857 46.9482 73.791V79.125H45.7582V73.791C45.7582 73.231 45.6229 72.8017 45.3522 72.503C45.0909 72.195 44.7082 72.041 44.2042 72.041H41.7122V79.125H40.5222V71.033ZM52.5339 79.279C51.8712 79.279 51.3065 79.153 50.8399 78.901C50.3732 78.6397 49.9905 78.3083 49.6919 77.907C49.4025 77.4963 49.1879 77.0437 49.0479 76.549C48.9172 76.045 48.8519 75.5503 48.8519 75.065V71.033H50.0419V75.065C50.0419 75.5223 50.0979 75.947 50.2099 76.339C50.3219 76.731 50.4852 77.0717 50.6999 77.361C50.9145 77.641 51.1759 77.8603 51.4839 78.019C51.7919 78.1777 52.1465 78.257 52.5479 78.257C53.3039 78.257 53.8919 77.9583 54.3119 77.361C54.7412 76.7637 54.9559 75.8443 54.9559 74.603C54.9559 74.043 54.9092 73.5857 54.8159 73.231C54.7225 72.8763 54.5965 72.601 54.4379 72.405C54.2792 72.1997 54.0925 72.0643 53.8779 71.999C53.6632 71.9243 53.4299 71.887 53.1779 71.887C52.9912 71.887 52.8092 71.9057 52.6319 71.943C52.4545 71.971 52.2912 72.0223 52.1419 72.097V71.033C52.4312 70.921 52.7812 70.865 53.1919 70.865C53.6119 70.865 53.9992 70.9303 54.3539 71.061C54.7179 71.1917 55.0305 71.4063 55.2919 71.705C55.5625 71.9943 55.7725 72.3817 55.9219 72.867C56.0805 73.343 56.1599 73.931 56.1599 74.631C56.1599 75.3217 56.0852 75.9517 55.9359 76.521C55.7959 77.0903 55.5719 77.5803 55.2639 77.991C54.9652 78.3923 54.5872 78.7097 54.1299 78.943C53.6819 79.167 53.1499 79.279 52.5339 79.279ZM57.5872 78.117H61.6612V74.393C61.6612 73.5437 61.5072 72.9417 61.1992 72.587C60.9005 72.223 60.4105 72.041 59.7292 72.041H57.5872V71.033H59.7712C60.8165 71.033 61.5865 71.313 62.0812 71.873C62.5852 72.433 62.8372 73.273 62.8372 74.393V78.117H63.9992V79.125H57.5872V78.117ZM70.8568 73.791C70.8568 73.231 70.7261 72.8017 70.4648 72.503C70.2035 72.195 69.8208 72.041 69.3168 72.041H65.7468V71.033H69.3168C70.1475 71.033 70.8055 71.2663 71.2908 71.733C71.7855 72.1997 72.0328 72.8857 72.0328 73.791V79.125H70.8568V73.791ZM65.7468 74.365H66.9368V79.125H65.7468V74.365ZM81.769 75.233C81.769 74.7757 81.699 74.3557 81.559 73.973C81.4284 73.581 81.2417 73.245 80.999 72.965C80.7657 72.6757 80.4857 72.4517 80.159 72.293C79.8324 72.125 79.4777 72.041 79.095 72.041H76.869V71.033H79.109C79.7624 71.033 80.327 71.159 80.803 71.411C81.2884 71.663 81.6897 71.9943 82.007 72.405C82.3244 72.8063 82.5577 73.259 82.707 73.763C82.8657 74.2577 82.945 74.7477 82.945 75.233V81.715H81.769V75.233ZM85.2292 71.033H86.4192V79.125H85.2292V71.033ZM89.5789 79.293C89.3363 79.293 89.1123 79.2837 88.9069 79.265C88.7016 79.2557 88.5429 79.2463 88.4309 79.237V78.215C88.5616 78.2337 88.7249 78.2523 88.9209 78.271C89.1169 78.2803 89.2569 78.285 89.3409 78.285C89.6023 78.285 89.7983 78.2057 89.9289 78.047C90.0596 77.8883 90.1249 77.6037 90.1249 77.193V72.041H88.4309V71.033H95.921V79.125H94.745V72.041H91.3149V77.375C91.3149 77.599 91.2823 77.8277 91.2169 78.061C91.1516 78.285 91.0489 78.4903 90.9089 78.677C90.7689 78.8543 90.5869 79.0037 90.3629 79.125C90.1483 79.237 89.8869 79.293 89.5789 79.293ZM102.276 77.641C102.538 77.641 102.743 77.7343 102.892 77.921C103.042 78.1077 103.116 78.3317 103.116 78.593C103.116 79.041 102.981 79.461 102.71 79.853C102.44 80.245 102.076 80.6183 101.618 80.973L101.184 80.511C101.371 80.3337 101.539 80.1377 101.688 79.923C101.838 79.7177 101.954 79.4797 102.038 79.209C101.852 79.1623 101.702 79.069 101.59 78.929C101.488 78.789 101.436 78.6257 101.436 78.439C101.436 78.2243 101.511 78.0377 101.66 77.879C101.81 77.7203 102.015 77.641 102.276 77.641ZM105.272 71.033H106.462V79.125H105.272V71.033ZM108.474 78.117H110.728V73.483C110.728 72.9323 110.639 72.5543 110.462 72.349C110.285 72.1437 109.949 72.041 109.454 72.041H108.544V71.033H109.538C110.359 71.033 110.957 71.2197 111.33 71.593C111.713 71.957 111.904 72.587 111.904 73.483V79.125H108.474V78.117ZM117.881 72.041H113.373V69.255H114.549V71.033H119.183V71.985L116.481 79.125H115.179L117.881 72.041ZM124.731 79.293C124.05 79.293 123.452 79.1623 122.939 78.901C122.435 78.6397 122.01 78.299 121.665 77.879C121.329 77.459 121.072 76.983 120.895 76.451C120.727 75.919 120.643 75.3777 120.643 74.827V71.033H121.833V74.827C121.833 75.3683 121.908 75.8537 122.057 76.283C122.216 76.7123 122.426 77.081 122.687 77.389C122.948 77.6877 123.252 77.9163 123.597 78.075C123.952 78.2337 124.33 78.313 124.731 78.313C125.132 78.313 125.506 78.2337 125.851 78.075C126.206 77.9163 126.514 77.6877 126.775 77.389C127.036 77.081 127.242 76.7123 127.391 76.283C127.55 75.8537 127.629 75.3683 127.629 74.827V71.033H128.805V74.827C128.805 75.3777 128.716 75.919 128.539 76.451C128.371 76.983 128.114 77.459 127.769 77.879C127.433 78.299 127.008 78.6397 126.495 78.901C125.991 79.1623 125.403 79.293 124.731 79.293ZM124.143 71.033H125.305V76.633H124.143V71.033ZM134.229 71.033H137.995C138.826 71.033 139.484 71.2663 139.969 71.733C140.464 72.1997 140.711 72.8857 140.711 73.791V79.125H134.229V71.033ZM135.419 72.027V78.117H139.535V73.791C139.535 73.231 139.4 72.797 139.129 72.489C138.868 72.181 138.485 72.027 137.981 72.027H135.419ZM142.978 71.033H144.168V76.395H142.978V71.033ZM146.113 78.117H148.367V73.483C148.367 72.9323 148.278 72.5543 148.101 72.349C147.923 72.1437 147.587 72.041 147.093 72.041H146.183V71.033H147.177C147.998 71.033 148.595 71.2197 148.969 71.593C149.351 71.957 149.543 72.587 149.543 73.483V79.125H146.113V78.117ZM151.81 71.033H153V76.395H151.81V71.033ZM155.323 73.525L155.099 71.033H156.149L156.261 72.167H156.275C156.489 71.7563 156.802 71.439 157.213 71.215C157.633 70.9817 158.137 70.865 158.725 70.865C159.201 70.865 159.625 70.949 159.999 71.117C160.372 71.2757 160.685 71.4997 160.937 71.789C161.198 72.069 161.394 72.4097 161.525 72.811C161.655 73.2123 161.721 73.651 161.721 74.127V79.125H158.459V78.117H160.545V74.407C160.545 74.043 160.503 73.707 160.419 73.399C160.344 73.091 160.227 72.825 160.069 72.601C159.91 72.3677 159.7 72.1857 159.439 72.055C159.187 71.9243 158.888 71.859 158.543 71.859C158.197 71.859 157.899 71.9243 157.647 72.055C157.395 72.1857 157.185 72.3677 157.017 72.601C156.849 72.825 156.723 73.091 156.639 73.399C156.555 73.707 156.513 74.043 156.513 74.407V79.125H155.323V73.525ZM163.697 77.459C163.697 77.1043 163.739 76.7543 163.823 76.409C163.907 76.0637 164.029 75.7463 164.187 75.457C164.346 75.1583 164.542 74.8923 164.775 74.659C165.009 74.4163 165.275 74.225 165.573 74.085L163.613 71.033H164.915L167.295 74.771C167.771 74.6403 168.159 74.351 168.457 73.903C168.756 73.4457 168.905 72.867 168.905 72.167V71.033H170.095V72.139C170.095 72.531 170.044 72.909 169.941 73.273C169.848 73.637 169.708 73.9777 169.521 74.295C169.344 74.603 169.12 74.8783 168.849 75.121C168.588 75.3543 168.289 75.5317 167.953 75.653L170.165 79.125H168.877L166.203 74.939C165.802 75.1257 165.48 75.4383 165.237 75.877C164.995 76.3063 164.873 76.8337 164.873 77.459V79.125H163.697V77.459ZM177.32 73.791C177.32 73.231 177.189 72.8017 176.928 72.503C176.666 72.195 176.284 72.041 175.78 72.041H172.21V71.033H175.78C176.61 71.033 177.268 71.2663 177.754 71.733C178.248 72.1997 178.496 72.8857 178.496 73.791V79.125H177.32V73.791ZM172.21 74.365H173.4V79.125H172.21V74.365ZM184.2 71.033H187.966C188.797 71.033 189.455 71.2663 189.94 71.733C190.435 72.1997 190.682 72.8857 190.682 73.791V79.125H184.2V71.033ZM185.39 72.027V78.117H189.506V73.791C189.506 73.231 189.371 72.797 189.1 72.489C188.839 72.181 188.456 72.027 187.952 72.027H185.39ZM192.948 71.033H194.138V76.395H192.948V71.033ZM197.231 79.293C196.989 79.293 196.765 79.2837 196.559 79.265C196.354 79.2557 196.195 79.2463 196.083 79.237V78.215C196.214 78.2337 196.377 78.2523 196.573 78.271C196.769 78.2803 196.909 78.285 196.993 78.285C197.255 78.285 197.451 78.2057 197.581 78.047C197.712 77.8883 197.777 77.6037 197.777 77.193V72.041H196.083V71.033H203.573V79.125H202.397V72.041H198.967V77.375C198.967 77.599 198.935 77.8277 198.869 78.061C198.804 78.285 198.701 78.4903 198.561 78.677C198.421 78.8543 198.239 79.0037 198.015 79.125C197.801 79.237 197.539 79.293 197.231 79.293ZM206.061 71.033H207.251V79.125H206.061V71.033ZM213.085 74.393C213.085 73.5437 212.936 72.9417 212.637 72.587C212.338 72.223 211.848 72.041 211.167 72.041H208.871V71.033H211.195C212.24 71.033 213.01 71.313 213.505 71.873C214.009 72.433 214.261 73.273 214.261 74.393V79.125H213.085V74.393ZM216.532 71.033H217.722V76.395H216.532V71.033ZM223.797 79.293C223.116 79.293 222.519 79.1623 222.005 78.901C221.501 78.6397 221.077 78.299 220.731 77.879C220.395 77.459 220.139 76.983 219.961 76.451C219.793 75.919 219.709 75.3777 219.709 74.827V71.033H220.899V74.827C220.899 75.3683 220.974 75.8537 221.123 76.283C221.282 76.7123 221.492 77.081 221.753 77.389C222.015 77.6877 222.318 77.9163 222.663 78.075C223.018 78.2337 223.396 78.313 223.797 78.313C224.199 78.313 224.572 78.2337 224.917 78.075C225.272 77.9163 225.58 77.6877 225.841 77.389C226.103 77.081 226.308 76.7123 226.457 76.283C226.616 75.8537 226.695 75.3683 226.695 74.827V71.033H227.871V74.827C227.871 75.3777 227.783 75.919 227.605 76.451C227.437 76.983 227.181 77.459 226.835 77.879C226.499 78.299 226.075 78.6397 225.561 78.901C225.057 79.1623 224.469 79.293 223.797 79.293ZM223.209 71.033H224.371V76.633H223.209V71.033ZM235.042 73.791C235.042 73.231 234.912 72.8017 234.65 72.503C234.389 72.195 234.006 72.041 233.502 72.041H229.932V71.033H233.502C234.333 71.033 234.991 71.2663 235.476 71.733C235.971 72.1997 236.218 72.8857 236.218 73.791V79.125H235.042V73.791ZM229.932 74.365H231.122V79.125H229.932V74.365ZM241.923 71.033H245.689C246.519 71.033 247.177 71.2663 247.663 71.733C248.157 72.1997 248.405 72.8857 248.405 73.791V79.125H241.923V71.033ZM243.113 72.027V78.117H247.229V73.791C247.229 73.231 247.093 72.797 246.823 72.489C246.561 72.181 246.179 72.027 245.675 72.027H243.113ZM250.223 78.117H251.693L250.223 71.033H251.455L252.925 78.131C253.289 78.1497 253.602 78.1077 253.863 78.005C254.134 77.893 254.358 77.669 254.535 77.333C254.712 76.9877 254.843 76.4977 254.927 75.863C255.02 75.219 255.067 74.379 255.067 73.343V71.033H256.257V73.413C256.257 74.645 256.187 75.6343 256.047 76.381C255.907 77.1277 255.697 77.7063 255.417 78.117C255.137 78.5183 254.792 78.789 254.381 78.929C253.97 79.0597 253.494 79.125 252.953 79.125H250.223V78.117ZM265.71 75.233C265.71 74.7757 265.64 74.3557 265.5 73.973C265.37 73.581 265.183 73.245 264.94 72.965C264.707 72.6757 264.427 72.4517 264.1 72.293C263.774 72.125 263.419 72.041 263.036 72.041H260.81V71.033H263.05C263.704 71.033 264.268 71.159 264.744 71.411C265.23 71.663 265.631 71.9943 265.948 72.405C266.266 72.8063 266.499 73.259 266.648 73.763C266.807 74.2577 266.886 74.7477 266.886 75.233V81.715H265.71V75.233ZM272.811 72.041H268.303V69.255H269.479V71.033H274.113V71.985L271.411 79.125H270.109L272.811 72.041ZM279.661 79.293C278.979 79.293 278.382 79.1623 277.869 78.901C277.365 78.6397 276.94 78.299 276.595 77.879C276.259 77.459 276.002 76.983 275.825 76.451C275.657 75.919 275.573 75.3777 275.573 74.827V71.033H276.763V74.827C276.763 75.3683 276.837 75.8537 276.987 76.283C277.145 76.7123 277.355 77.081 277.617 77.389C277.878 77.6877 278.181 77.9163 278.527 78.075C278.881 78.2337 279.259 78.313 279.661 78.313C280.062 78.313 280.435 78.2337 280.781 78.075C281.135 77.9163 281.443 77.6877 281.705 77.389C281.966 77.081 282.171 76.7123 282.321 76.283C282.479 75.8537 282.559 75.3683 282.559 74.827V71.033H283.735V74.827C283.735 75.3777 283.646 75.919 283.469 76.451C283.301 76.983 283.044 77.459 282.699 77.879C282.363 78.299 281.938 78.6397 281.425 78.901C280.921 79.1623 280.333 79.293 279.661 79.293ZM279.073 71.033H280.235V76.633H279.073V71.033ZM289.159 71.033H292.925C293.756 71.033 294.414 71.2663 294.899 71.733C295.394 72.1997 295.641 72.8857 295.641 73.791V79.125H289.159V71.033ZM290.349 72.027V78.117H294.465V73.791C294.465 73.231 294.33 72.797 294.059 72.489C293.798 72.181 293.415 72.027 292.911 72.027H290.349ZM297.907 71.033H299.097V76.395H297.907V71.033ZM301.518 71.033H305.214C306.045 71.033 306.708 71.2663 307.202 71.733C307.697 72.1997 307.944 72.8857 307.944 73.791V79.125H306.754V73.791C306.754 73.231 306.619 72.8017 306.348 72.503C306.087 72.195 305.704 72.041 305.2 72.041H302.708V79.125H301.518V71.033ZM310.282 71.033H311.472V79.125H310.282V71.033ZM317.6 72.041H313.092V69.255H314.268V71.033H318.902V71.985L316.2 79.125H314.898L317.6 72.041ZM324.45 79.293C323.768 79.293 323.171 79.1623 322.658 78.901C322.154 78.6397 321.729 78.299 321.384 77.879C321.048 77.459 320.791 76.983 320.614 76.451C320.446 75.919 320.362 75.3777 320.362 74.827V71.033H321.552V74.827C321.552 75.3683 321.626 75.8537 321.776 76.283C321.934 76.7123 322.144 77.081 322.406 77.389C322.667 77.6877 322.97 77.9163 323.316 78.075C323.67 78.2337 324.048 78.313 324.45 78.313C324.851 78.313 325.224 78.2337 325.57 78.075C325.924 77.9163 326.232 77.6877 326.494 77.389C326.755 77.081 326.96 76.7123 327.11 76.283C327.268 75.8537 327.348 75.3683 327.348 74.827V71.033H328.524V74.827C328.524 75.3777 328.435 75.919 328.258 76.451C328.09 76.983 327.833 77.459 327.488 77.879C327.152 78.299 326.727 78.6397 326.214 78.901C325.71 79.1623 325.122 79.293 324.45 79.293ZM323.862 71.033H325.024V76.633H323.862V71.033ZM330.487 73.525L330.263 71.033H331.313L331.425 72.167H331.439C331.653 71.7563 331.966 71.439 332.377 71.215C332.797 70.9817 333.301 70.865 333.889 70.865C334.365 70.865 334.789 70.949 335.163 71.117C335.536 71.2757 335.849 71.4997 336.101 71.789C336.362 72.069 336.558 72.4097 336.689 72.811C336.819 73.2123 336.885 73.651 336.885 74.127V79.125H333.623V78.117H335.709V74.407C335.709 74.043 335.667 73.707 335.583 73.399C335.508 73.091 335.391 72.825 335.233 72.601C335.074 72.3677 334.864 72.1857 334.603 72.055C334.351 71.9243 334.052 71.859 333.707 71.859C333.361 71.859 333.063 71.9243 332.811 72.055C332.559 72.1857 332.349 72.3677 332.181 72.601C332.013 72.825 331.887 73.091 331.803 73.399C331.719 73.707 331.677 74.043 331.677 74.407V79.125H330.487V73.525ZM344.335 73.791C344.335 73.231 344.205 72.8017 343.943 72.503C343.682 72.195 343.299 72.041 342.795 72.041H339.225V71.033H342.795C343.626 71.033 344.284 71.2663 344.769 71.733C345.264 72.1997 345.511 72.8857 345.511 73.791V79.125H344.335V73.791ZM339.225 74.365H340.415V79.125H339.225V74.365ZM351.888 79.293C351.645 79.293 351.421 79.2837 351.216 79.265C351.01 79.2557 350.852 79.2463 350.74 79.237V78.215C350.87 78.2337 351.034 78.2523 351.23 78.271C351.426 78.2803 351.566 78.285 351.65 78.285C351.911 78.285 352.107 78.2057 352.238 78.047C352.368 77.8883 352.434 77.6037 352.434 77.193V72.041H350.74V71.033H358.23V79.125H357.054V72.041H353.624V77.375C353.624 77.599 353.591 77.8277 353.526 78.061C353.46 78.285 353.358 78.4903 353.218 78.677C353.078 78.8543 352.896 79.0037 352.672 79.125C352.457 79.237 352.196 79.293 351.888 79.293ZM360.353 77.459C360.353 77.1043 360.395 76.7543 360.479 76.409C360.563 76.0637 360.685 75.7463 360.843 75.457C361.002 75.1583 361.198 74.8923 361.431 74.659C361.665 74.4163 361.931 74.225 362.229 74.085L360.269 71.033H361.571L363.951 74.771C364.427 74.6403 364.815 74.351 365.113 73.903C365.412 73.4457 365.561 72.867 365.561 72.167V71.033H366.751V72.139C366.751 72.531 366.7 72.909 366.597 73.273C366.504 73.637 366.364 73.9777 366.177 74.295C366 74.603 365.776 74.8783 365.505 75.121C365.244 75.3543 364.945 75.5317 364.609 75.653L366.821 79.125H365.533L362.859 74.939C362.458 75.1257 362.136 75.4383 361.893 75.877C361.651 76.3063 361.529 76.8337 361.529 77.459V79.125H360.353V77.459ZM375.869 72.041H371.361V69.255H372.537V71.033H377.171V71.985L374.469 79.125H373.167L375.869 72.041ZM378.547 78.117H380.017L378.547 71.033H379.779L381.249 78.131C381.613 78.1497 381.926 78.1077 382.187 78.005C382.458 77.893 382.682 77.669 382.859 77.333C383.036 76.9877 383.167 76.4977 383.251 75.863C383.344 75.219 383.391 74.379 383.391 73.343V71.033H384.581V73.413C384.581 74.645 384.511 75.6343 384.371 76.381C384.231 77.1277 384.021 77.7063 383.741 78.117C383.461 78.5183 383.116 78.789 382.705 78.929C382.294 79.0597 381.818 79.125 381.277 79.125H378.547V78.117ZM386.569 71.033H387.759V76.395H386.569V71.033ZM390.11 71.033H391.3V76.395H390.11V71.033ZM199.948 99.293C199.687 99.293 199.481 99.209 199.332 99.041C199.183 98.873 199.108 98.6817 199.108 98.467C199.108 98.243 199.183 98.0517 199.332 97.893C199.481 97.725 199.687 97.641 199.948 97.641C200.219 97.641 200.424 97.725 200.564 97.893C200.713 98.0517 200.788 98.243 200.788 98.467C200.788 98.6817 200.713 98.873 200.564 99.041C200.424 99.209 200.219 99.293 199.948 99.293ZM202.944 91.033H206.71C207.541 91.033 208.199 91.2663 208.684 91.733C209.179 92.1997 209.426 92.8857 209.426 93.791V99.125H202.944V91.033ZM204.134 92.027V98.117H208.25V93.791C208.25 93.231 208.115 92.797 207.844 92.489C207.583 92.181 207.2 92.027 206.696 92.027H204.134ZM211.244 98.117H212.714L211.244 91.033H212.476L213.946 98.131C214.31 98.1497 214.623 98.1077 214.884 98.005C215.155 97.893 215.379 97.669 215.556 97.333C215.734 96.9877 215.864 96.4977 215.948 95.863C216.042 95.219 216.088 94.379 216.088 93.343V91.033H217.278V93.413C217.278 94.645 217.208 95.6343 217.068 96.381C216.928 97.1277 216.718 97.7063 216.438 98.117C216.158 98.5183 215.813 98.789 215.402 98.929C214.992 99.0597 214.516 99.125 213.974 99.125H211.244V98.117ZM221.591 99.293C221.283 99.293 220.975 99.2697 220.667 99.223C220.359 99.1857 220.074 99.139 219.813 99.083C219.561 99.027 219.341 98.9757 219.155 98.929C218.977 98.873 218.856 98.8357 218.791 98.817L219.169 97.753C219.262 97.7997 219.388 97.851 219.547 97.907C219.715 97.963 219.901 98.019 220.107 98.075C220.321 98.131 220.555 98.1777 220.807 98.215C221.059 98.2523 221.32 98.271 221.591 98.271C222.123 98.2617 222.571 98.159 222.935 97.963C223.308 97.767 223.607 97.5197 223.831 97.221C224.064 96.913 224.232 96.5723 224.335 96.199C224.437 95.8257 224.489 95.4523 224.489 95.079C224.489 94.6217 224.423 94.197 224.293 93.805C224.162 93.413 223.98 93.077 223.747 92.797C223.513 92.5077 223.233 92.2837 222.907 92.125C222.58 91.9663 222.221 91.887 221.829 91.887C221.586 91.887 221.348 91.9243 221.115 91.999C220.891 92.0643 220.69 92.167 220.513 92.307C220.345 92.447 220.209 92.629 220.107 92.853C220.004 93.077 219.953 93.343 219.953 93.651C219.953 94.1083 220.069 94.4817 220.303 94.771C220.536 95.0603 220.867 95.205 221.297 95.205C221.483 95.205 221.614 95.1957 221.689 95.177V96.185C221.642 96.1943 221.577 96.2037 221.493 96.213C221.418 96.2223 221.315 96.227 221.185 96.227C220.774 96.227 220.415 96.1617 220.107 96.031C219.808 95.891 219.556 95.7043 219.351 95.471C219.145 95.2377 218.991 94.9717 218.889 94.673C218.786 94.365 218.735 94.043 218.735 93.707C218.735 93.3057 218.805 92.9323 218.945 92.587C219.094 92.2323 219.299 91.929 219.561 91.677C219.831 91.425 220.158 91.229 220.541 91.089C220.933 90.9397 221.371 90.865 221.857 90.865C222.51 90.865 223.075 90.9957 223.551 91.257C224.036 91.509 224.437 91.8403 224.755 92.251C225.072 92.6523 225.305 93.105 225.455 93.609C225.613 94.113 225.693 94.6123 225.693 95.107C225.693 95.5737 225.618 96.0543 225.469 96.549C225.329 97.0343 225.095 97.4823 224.769 97.893C224.451 98.3037 224.031 98.6397 223.509 98.901C222.986 99.1623 222.347 99.293 221.591 99.293ZM234.584 92.041H230.076V89.255H231.252V91.033H235.886V91.985L233.184 99.125H231.882L234.584 92.041ZM237.304 98.103H239.572C239.955 98.103 240.309 98.0237 240.636 97.865C240.963 97.697 241.243 97.4777 241.476 97.207C241.709 96.927 241.891 96.605 242.022 96.241C242.153 95.8677 242.218 95.4757 242.218 95.065C242.218 94.6637 242.153 94.281 242.022 93.917C241.891 93.5437 241.709 93.2217 241.476 92.951C241.243 92.671 240.963 92.4517 240.636 92.293C240.309 92.125 239.955 92.041 239.572 92.041H237.304V91.033H239.572C240.225 91.033 240.795 91.1637 241.28 91.425C241.765 91.677 242.167 91.999 242.484 92.391C242.801 92.783 243.039 93.217 243.198 93.693C243.357 94.169 243.436 94.6263 243.436 95.065C243.436 95.5037 243.357 95.9657 243.198 96.451C243.039 96.927 242.801 97.3657 242.484 97.767C242.167 98.159 241.765 98.4857 241.28 98.747C240.795 98.999 240.225 99.125 239.572 99.125H237.304V98.103ZM244.851 98.117H248.925V94.393C248.925 93.5437 248.771 92.9417 248.463 92.587C248.164 92.223 247.674 92.041 246.993 92.041H244.851V91.033H247.035C248.08 91.033 248.85 91.313 249.345 91.873C249.849 92.433 250.101 93.273 250.101 94.393V98.117H251.263V99.125H244.851V98.117ZM257.046 99.293C256.803 99.293 256.579 99.2837 256.374 99.265C256.168 99.2557 256.01 99.2463 255.898 99.237V98.215C256.028 98.2337 256.192 98.2523 256.388 98.271C256.584 98.2803 256.724 98.285 256.808 98.285C257.069 98.285 257.265 98.2057 257.396 98.047C257.526 97.8883 257.592 97.6037 257.592 97.193V92.041H255.898V91.033H263.388V99.125H262.212V92.041H258.782V97.375C258.782 97.599 258.749 97.8277 258.684 98.061C258.618 98.285 258.516 98.4903 258.376 98.677C258.236 98.8543 258.054 99.0037 257.83 99.125C257.615 99.237 257.354 99.293 257.046 99.293ZM265.876 91.033H269.572C270.402 91.033 271.065 91.2663 271.56 91.733C272.054 92.1997 272.302 92.8857 272.302 93.791V99.125H271.112V93.791C271.112 93.231 270.976 92.8017 270.706 92.503C270.444 92.195 270.062 92.041 269.558 92.041H267.066V99.125H265.876V91.033ZM277.887 99.279C277.225 99.279 276.66 99.153 276.193 98.901C275.727 98.6397 275.344 98.3083 275.045 97.907C274.756 97.4963 274.541 97.0437 274.401 96.549C274.271 96.045 274.205 95.5503 274.205 95.065V91.033H275.395V95.065C275.395 95.5223 275.451 95.947 275.563 96.339C275.675 96.731 275.839 97.0717 276.053 97.361C276.268 97.641 276.529 97.8603 276.837 98.019C277.145 98.1777 277.5 98.257 277.901 98.257C278.657 98.257 279.245 97.9583 279.665 97.361C280.095 96.7637 280.309 95.8443 280.309 94.603C280.309 94.043 280.263 93.5857 280.169 93.231C280.076 92.8763 279.95 92.601 279.791 92.405C279.633 92.1997 279.446 92.0643 279.231 91.999C279.017 91.9243 278.783 91.887 278.531 91.887C278.345 91.887 278.163 91.9057 277.985 91.943C277.808 91.971 277.645 92.0223 277.495 92.097V91.033C277.785 90.921 278.135 90.865 278.545 90.865C278.965 90.865 279.353 90.9303 279.707 91.061C280.071 91.1917 280.384 91.4063 280.645 91.705C280.916 91.9943 281.126 92.3817 281.275 92.867C281.434 93.343 281.513 93.931 281.513 94.631C281.513 95.3217 281.439 95.9517 281.289 96.521C281.149 97.0903 280.925 97.5803 280.617 97.991C280.319 98.3923 279.941 98.7097 279.483 98.943C279.035 99.167 278.503 99.279 277.887 99.279ZM282.941 98.117H287.015V94.393C287.015 93.5437 286.861 92.9417 286.553 92.587C286.254 92.223 285.764 92.041 285.083 92.041H282.941V91.033H285.125C286.17 91.033 286.94 91.313 287.435 91.873C287.939 92.433 288.191 93.273 288.191 94.393V98.117H289.353V99.125H282.941V98.117ZM291.1 91.033H292.29V99.125H291.1V91.033ZM294.414 97.459C294.414 97.1043 294.456 96.7543 294.54 96.409C294.624 96.0637 294.745 95.7463 294.904 95.457C295.063 95.1583 295.259 94.8923 295.492 94.659C295.725 94.4163 295.991 94.225 296.29 94.085L294.33 91.033H295.632L298.012 94.771C298.488 94.6403 298.875 94.351 299.174 93.903C299.473 93.4457 299.622 92.867 299.622 92.167V91.033H300.812V92.139C300.812 92.531 300.761 92.909 300.658 93.273C300.565 93.637 300.425 93.9777 300.238 94.295C300.061 94.603 299.837 94.8783 299.566 95.121C299.305 95.3543 299.006 95.5317 298.67 95.653L300.882 99.125H299.594L296.92 94.939C296.519 95.1257 296.197 95.4383 295.954 95.877C295.711 96.3063 295.59 96.8337 295.59 97.459V99.125H294.414V97.459ZM302.828 93.525L302.604 91.033H303.654L303.766 92.167H303.78C303.995 91.7563 304.308 91.439 304.718 91.215C305.138 90.9817 305.642 90.865 306.23 90.865C306.706 90.865 307.131 90.949 307.504 91.117C307.878 91.2757 308.19 91.4997 308.442 91.789C308.704 92.069 308.9 92.4097 309.03 92.811C309.161 93.2123 309.226 93.651 309.226 94.127V99.125H305.964V98.117H308.05V94.407C308.05 94.043 308.008 93.707 307.924 93.399C307.85 93.091 307.733 92.825 307.574 92.601C307.416 92.3677 307.206 92.1857 306.944 92.055C306.692 91.9243 306.394 91.859 306.048 91.859C305.703 91.859 305.404 91.9243 305.152 92.055C304.9 92.1857 304.69 92.3677 304.522 92.601C304.354 92.825 304.228 93.091 304.144 93.399C304.06 93.707 304.018 94.043 304.018 94.407V99.125H302.828V93.525ZM311.567 91.033H312.757V99.125H311.567V91.033ZM323.718 93.791C323.718 93.231 323.587 92.8017 323.326 92.503C323.065 92.195 322.682 92.041 322.178 92.041H318.608V91.033H322.178C323.009 91.033 323.667 91.2663 324.152 91.733C324.647 92.1997 324.894 92.8857 324.894 93.791V99.125H323.718V93.791ZM318.608 94.365H319.798V99.125H318.608V94.365ZM330.581 94.393C330.581 93.5437 330.432 92.9417 330.133 92.587C329.834 92.223 329.344 92.041 328.663 92.041H326.367V91.033H328.691C329.736 91.033 330.506 91.313 331.001 91.873C331.505 92.433 331.757 93.273 331.757 94.393V99.125H330.581V94.393ZM334.028 91.033H335.218V96.395H334.028V91.033ZM342.749 93.791C342.749 93.231 342.619 92.8017 342.357 92.503C342.096 92.195 341.713 92.041 341.209 92.041H337.639V91.033H341.209C342.04 91.033 342.698 91.2663 343.183 91.733C343.678 92.1997 343.925 92.8857 343.925 93.791V99.125H342.749V93.791ZM337.639 94.365H338.829V99.125H337.639V94.365ZM346.168 93.525L345.944 91.033H346.994L347.106 92.167H347.12C347.335 91.7563 347.648 91.439 348.058 91.215C348.478 90.9817 348.982 90.865 349.57 90.865C350.046 90.865 350.471 90.949 350.844 91.117C351.218 91.2757 351.53 91.4997 351.782 91.789C352.044 92.069 352.24 92.4097 352.37 92.811C352.501 93.2123 352.566 93.651 352.566 94.127V99.125H349.304V98.117H351.39V94.407C351.39 94.043 351.348 93.707 351.264 93.399C351.19 93.091 351.073 92.825 350.914 92.601C350.756 92.3677 350.546 92.1857 350.284 92.055C350.032 91.9243 349.734 91.859 349.388 91.859C349.043 91.859 348.744 91.9243 348.492 92.055C348.24 92.1857 348.03 92.3677 347.862 92.601C347.694 92.825 347.568 93.091 347.484 93.399C347.4 93.707 347.358 94.043 347.358 94.407V99.125H346.168V93.525ZM363.38 93.791C363.38 93.231 363.25 92.8017 362.988 92.503C362.727 92.195 362.344 92.041 361.84 92.041H358.27V91.033H361.84C362.671 91.033 363.329 91.2663 363.814 91.733C364.309 92.1997 364.556 92.8857 364.556 93.791V99.125H363.38V93.791ZM358.27 94.365H359.46V99.125H358.27V94.365ZM370.537 92.041H366.029V89.255H367.205V91.033H371.839V91.985L369.137 99.125H367.835L370.537 92.041ZM373.257 98.117H377.331V94.393C377.331 93.5437 377.177 92.9417 376.869 92.587C376.57 92.223 376.08 92.041 375.399 92.041H373.257V91.033H375.441C376.486 91.033 377.256 91.313 377.751 91.873C378.255 92.433 378.507 93.273 378.507 94.393V98.117H379.669V99.125H373.257V98.117ZM381.417 91.033H382.607V99.125H381.417V91.033ZM390.204 93.791C390.204 93.231 390.074 92.8017 389.812 92.503C389.551 92.195 389.168 92.041 388.664 92.041H385.094V91.033H388.664C389.495 91.033 390.153 91.2663 390.638 91.733C391.133 92.1997 391.38 92.8857 391.38 93.791V99.125H390.204V93.791ZM385.094 94.365H386.284V99.125H385.094V94.365Z" fill="#242E30"/>
</g>
<g filter="url(#filter1_ddd_10396_16690)">
<path d="M7.52539 144.275C7.52539 137.565 12.9651 132.125 19.6754 132.125H396.325C403.036 132.125 408.475 137.565 408.475 144.275V208.275C408.475 214.985 403.036 220.425 396.325 220.425H19.6754C12.9651 220.425 7.52539 214.985 7.52539 208.275V144.275Z" fill="white"/>
<path d="M7.86289 144.275C7.86289 137.751 13.1515 132.462 19.6754 132.462H396.325C402.849 132.462 408.138 137.751 408.138 144.275V208.275C408.138 214.799 402.849 220.088 396.325 220.088H19.6754C13.1515 220.088 7.86289 214.799 7.86289 208.275V144.275Z" stroke="#EFEDEA" stroke-width="0.675"/>
<circle cx="35.6756" cy="160.275" r="10.6312" stroke="#82817F" stroke-width="1.0125"/>
<path d="M210.287 157.027H212.943V166.275H210.287V157.027ZM219.219 159.123H214.131V154.995H216.787V157.027H222.019V158.787L218.883 166.275H216.259L219.219 159.123ZM228.758 166.467C227.841 166.467 227.041 166.307 226.358 165.987C225.686 165.656 225.126 165.235 224.678 164.723C224.241 164.2 223.91 163.619 223.686 162.979C223.473 162.339 223.366 161.704 223.366 161.075V157.027H226.022V161.075C226.022 161.555 226.086 161.987 226.214 162.371C226.353 162.755 226.54 163.086 226.774 163.363C227.02 163.64 227.308 163.854 227.638 164.003C227.98 164.152 228.353 164.227 228.758 164.227C229.164 164.227 229.532 164.152 229.862 164.003C230.204 163.854 230.492 163.64 230.726 163.363C230.972 163.086 231.158 162.755 231.286 162.371C231.425 161.987 231.494 161.555 231.494 161.075V157.027H234.166V161.075C234.166 161.704 234.054 162.339 233.83 162.979C233.617 163.619 233.286 164.2 232.838 164.723C232.39 165.235 231.825 165.656 231.142 165.987C230.47 166.307 229.676 166.467 228.758 166.467ZM227.43 157.027H230.086V162.707H227.43V157.027ZM236.165 160.195L235.605 157.027H238.229L238.373 157.939H238.405C238.501 157.822 238.619 157.699 238.757 157.571C238.896 157.443 239.067 157.326 239.269 157.219C239.472 157.102 239.712 157.011 239.989 156.947C240.277 156.872 240.613 156.835 240.997 156.835C241.669 156.835 242.235 156.936 242.693 157.139C243.152 157.342 243.52 157.624 243.797 157.987C244.085 158.35 244.288 158.782 244.405 159.283C244.533 159.784 244.597 160.339 244.597 160.947V166.275H240.277V164.179H241.941V161.251C241.941 160.952 241.915 160.67 241.861 160.403C241.819 160.136 241.739 159.907 241.621 159.715C241.504 159.512 241.349 159.358 241.157 159.251C240.965 159.134 240.725 159.075 240.437 159.075C239.893 159.075 239.488 159.278 239.221 159.683C238.955 160.088 238.821 160.611 238.821 161.251V166.275H236.165V160.195ZM250.114 157.027H255.266C255.778 157.027 256.253 157.118 256.69 157.299C257.138 157.48 257.522 157.726 257.842 158.035C258.173 158.344 258.429 158.712 258.61 159.139C258.791 159.566 258.882 160.024 258.882 160.515V166.275H250.114V157.027ZM252.786 159.123V164.179H256.226V160.515C256.226 160.302 256.189 160.11 256.114 159.939C256.05 159.768 255.959 159.624 255.842 159.507C255.725 159.379 255.591 159.283 255.442 159.219C255.293 159.155 255.138 159.123 254.978 159.123H252.786ZM260.632 157.027H263.272V163.331H260.632V157.027ZM265.098 157.027H270.17C270.682 157.027 271.157 157.118 271.594 157.299C272.042 157.48 272.426 157.726 272.746 158.035C273.077 158.344 273.333 158.712 273.514 159.139C273.696 159.566 273.786 160.024 273.786 160.515V166.275H271.13V160.515C271.13 160.302 271.093 160.11 271.018 159.939C270.954 159.768 270.864 159.624 270.746 159.507C270.629 159.379 270.496 159.283 270.346 159.219C270.197 159.155 270.042 159.123 269.882 159.123H267.77V166.275H265.098V157.027ZM275.506 157.027H278.162V166.275H275.506V157.027ZM284.438 159.123H279.35V154.995H282.006V157.027H287.238V158.787L284.102 166.275H281.478L284.438 159.123ZM293.977 166.467C293.06 166.467 292.26 166.307 291.577 165.987C290.905 165.656 290.345 165.235 289.897 164.723C289.46 164.2 289.129 163.619 288.905 162.979C288.692 162.339 288.585 161.704 288.585 161.075V157.027H291.241V161.075C291.241 161.555 291.305 161.987 291.433 162.371C291.572 162.755 291.758 163.086 291.993 163.363C292.238 163.64 292.526 163.854 292.857 164.003C293.198 164.152 293.572 164.227 293.977 164.227C294.382 164.227 294.75 164.152 295.081 164.003C295.422 163.854 295.71 163.64 295.945 163.363C296.19 163.086 296.377 162.755 296.505 162.371C296.644 161.987 296.713 161.555 296.713 161.075V157.027H299.385V161.075C299.385 161.704 299.273 162.339 299.049 162.979C298.836 163.619 298.505 164.2 298.057 164.723C297.609 165.235 297.044 165.656 296.361 165.987C295.689 166.307 294.894 166.467 293.977 166.467ZM292.649 157.027H295.305V162.707H292.649V157.027ZM301.384 160.195L300.824 157.027H303.448L303.592 157.939H303.624C303.72 157.822 303.837 157.699 303.976 157.571C304.115 157.443 304.285 157.326 304.488 157.219C304.691 157.102 304.931 157.011 305.208 156.947C305.496 156.872 305.832 156.835 306.216 156.835C306.888 156.835 307.453 156.936 307.912 157.139C308.371 157.342 308.739 157.624 309.016 157.987C309.304 158.35 309.507 158.782 309.624 159.283C309.752 159.784 309.816 160.339 309.816 160.947V166.275H305.496V164.179H307.16V161.251C307.16 160.952 307.133 160.67 307.08 160.403C307.037 160.136 306.957 159.907 306.84 159.715C306.723 159.512 306.568 159.358 306.376 159.251C306.184 159.134 305.944 159.075 305.656 159.075C305.112 159.075 304.707 159.278 304.44 159.683C304.173 160.088 304.04 160.611 304.04 161.251V166.275H301.384V160.195ZM315.413 157.027H318.053V163.331H315.413V157.027ZM321.128 166.467C320.989 166.467 320.834 166.462 320.664 166.451C320.493 166.44 320.328 166.43 320.168 166.419C320.008 166.408 319.864 166.392 319.736 166.371C319.608 166.36 319.517 166.35 319.464 166.339V164.291C319.677 164.312 319.864 164.334 320.024 164.355C320.194 164.366 320.37 164.371 320.552 164.371C320.765 164.371 320.936 164.302 321.064 164.163C321.192 164.014 321.256 163.8 321.256 163.523V159.123H319.464V157.027H329.08V166.275H326.408V159.123H323.928V163.427C323.928 164.408 323.677 165.16 323.176 165.683C322.674 166.206 321.992 166.467 321.128 166.467ZM330.896 157.027H333.552V166.275H330.896V157.027ZM339.445 161.107C339.445 160.435 339.306 159.939 339.029 159.619C338.751 159.288 338.309 159.123 337.701 159.123H334.741V157.027H338.053C339.386 157.027 340.394 157.368 341.077 158.051C341.759 158.723 342.101 159.742 342.101 161.107V166.275H339.445V161.107ZM343.835 157.027H346.475V163.331H343.835V157.027ZM353.79 166.467C352.872 166.467 352.072 166.307 351.39 165.987C350.718 165.656 350.158 165.235 349.71 164.723C349.272 164.2 348.942 163.619 348.718 162.979C348.504 162.339 348.398 161.704 348.398 161.075V157.027H351.054V161.075C351.054 161.555 351.118 161.987 351.246 162.371C351.384 162.755 351.571 163.086 351.806 163.363C352.051 163.64 352.339 163.854 352.67 164.003C353.011 164.152 353.384 164.227 353.79 164.227C354.195 164.227 354.563 164.152 354.894 164.003C355.235 163.854 355.523 163.64 355.758 163.363C356.003 163.086 356.19 162.755 356.318 162.371C356.456 161.987 356.526 161.555 356.526 161.075V157.027H359.198V161.075C359.198 161.704 359.086 162.339 358.862 162.979C358.648 163.619 358.318 164.2 357.87 164.723C357.422 165.235 356.856 165.656 356.174 165.987C355.502 166.307 354.707 166.467 353.79 166.467ZM352.462 157.027H355.118V162.707H352.462V157.027Z" fill="#242E30"/>
<g clip-path="url(#clip0_10396_16690)">
<path d="M389.584 162.978C389.25 162.647 388.852 162.385 388.415 162.209C387.977 162.033 387.509 161.947 387.038 161.955C387.129 161.491 387.129 161.014 387.038 160.55L384.413 151.743C384.272 151.253 383.97 150.825 383.556 150.527C383.141 150.229 382.639 150.08 382.129 150.103H378.008L379.006 152.072H382.129C382.2 152.074 382.268 152.097 382.324 152.14C382.381 152.182 382.423 152.241 382.444 152.308L385.069 161.115C385.142 161.361 385.156 161.621 385.11 161.874C385.065 162.127 384.961 162.366 384.807 162.572C384.656 162.778 384.458 162.945 384.23 163.059C384.002 163.173 383.75 163.231 383.494 163.228H381.421L380.371 159.474C380.245 158.977 379.958 158.535 379.554 158.219C379.15 157.903 378.652 157.73 378.139 157.728H372.601C371.992 157.732 371.41 157.975 370.98 158.405C370.55 158.835 370.307 159.417 370.304 160.025V165.197H372.299C372.245 165.723 372.311 166.254 372.49 166.752C372.67 167.249 372.958 167.7 373.336 168.071C373.669 168.408 374.065 168.675 374.502 168.857C374.939 169.039 375.408 169.133 375.882 169.133C376.355 169.133 376.824 169.039 377.261 168.857C377.698 168.675 378.095 168.408 378.428 168.071C378.805 167.7 379.094 167.249 379.274 166.752C379.453 166.254 379.518 165.723 379.465 165.197H383.402C383.402 165.302 383.402 165.42 383.402 165.525C383.401 166.119 383.545 166.705 383.824 167.23C384.103 167.755 384.507 168.203 385.001 168.534C385.495 168.865 386.062 169.069 386.654 169.128C387.245 169.187 387.842 169.099 388.391 168.872C388.941 168.645 389.425 168.285 389.802 167.826C390.179 167.366 390.437 166.821 390.552 166.238C390.668 165.654 390.638 165.052 390.464 164.483C390.291 163.915 389.979 163.398 389.558 162.978H389.584ZM377.037 166.68C376.73 166.984 376.314 167.155 375.882 167.155C375.449 167.155 375.034 166.984 374.727 166.68C374.532 166.491 374.389 166.256 374.311 165.996C374.233 165.737 374.222 165.461 374.281 165.197H377.483C377.541 165.461 377.531 165.737 377.453 165.996C377.375 166.256 377.232 166.491 377.037 166.68ZM372.272 163.228V160.025C372.272 159.938 372.307 159.855 372.369 159.793C372.43 159.732 372.514 159.697 372.601 159.697H378.139C378.217 159.701 378.291 159.73 378.35 159.78C378.409 159.83 378.45 159.897 378.467 159.973L379.373 163.228H372.272ZM388.193 166.68C387.884 166.981 387.47 167.15 387.038 167.15C386.606 167.15 386.192 166.981 385.883 166.68C385.652 166.451 385.495 166.159 385.43 165.84C385.366 165.521 385.397 165.191 385.521 164.89C385.645 164.589 385.855 164.332 386.125 164.151C386.395 163.971 386.713 163.874 387.038 163.874C387.363 163.874 387.681 163.971 387.951 164.151C388.221 164.332 388.431 164.589 388.555 164.89C388.679 165.191 388.711 165.521 388.646 165.84C388.582 166.159 388.424 166.451 388.193 166.68Z" fill="#242E30"/>
</g>
<path d="M230.226 199.593C229.964 199.593 229.759 199.509 229.61 199.341C229.46 199.173 229.386 198.981 229.386 198.767C229.386 198.543 229.46 198.351 229.61 198.193C229.759 198.025 229.964 197.941 230.226 197.941C230.496 197.941 230.702 198.025 230.842 198.193C230.991 198.351 231.066 198.543 231.066 198.767C231.066 198.981 230.991 199.173 230.842 199.341C230.702 199.509 230.496 199.593 230.226 199.593ZM233.222 191.333H236.988C237.818 191.333 238.476 191.566 238.962 192.033C239.456 192.499 239.704 193.185 239.704 194.091V199.425H233.222V191.333ZM234.412 192.327V198.417H238.528V194.091C238.528 193.531 238.392 193.097 238.122 192.789C237.86 192.481 237.478 192.327 236.974 192.327H234.412ZM241.564 198.403H243.832C244.215 198.403 244.569 198.323 244.896 198.165C245.223 197.997 245.503 197.777 245.736 197.507C245.969 197.227 246.151 196.905 246.282 196.541C246.413 196.167 246.478 195.775 246.478 195.365C246.478 194.963 246.413 194.581 246.282 194.217C246.151 193.843 245.969 193.521 245.736 193.251C245.503 192.971 245.223 192.751 244.896 192.593C244.569 192.425 244.215 192.341 243.832 192.341H241.564V191.333H243.832C244.485 191.333 245.055 191.463 245.54 191.725C246.025 191.977 246.427 192.299 246.744 192.691C247.061 193.083 247.299 193.517 247.458 193.993C247.617 194.469 247.696 194.926 247.696 195.365C247.696 195.803 247.617 196.265 247.458 196.751C247.299 197.227 247.061 197.665 246.744 198.067C246.427 198.459 246.025 198.785 245.54 199.047C245.055 199.299 244.485 199.425 243.832 199.425H241.564V198.403ZM253.227 192.341H248.719V189.555H249.895V191.333H254.529V192.285L251.827 199.425H250.525L253.227 192.341ZM260.077 199.593C259.395 199.593 258.798 199.462 258.285 199.201C257.781 198.939 257.356 198.599 257.011 198.179C256.675 197.759 256.418 197.283 256.241 196.751C256.073 196.219 255.989 195.677 255.989 195.127V191.333H257.179V195.127C257.179 195.668 257.253 196.153 257.403 196.583C257.561 197.012 257.771 197.381 258.033 197.689C258.294 197.987 258.597 198.216 258.943 198.375C259.297 198.533 259.675 198.613 260.077 198.613C260.478 198.613 260.851 198.533 261.197 198.375C261.551 198.216 261.859 197.987 262.121 197.689C262.382 197.381 262.587 197.012 262.737 196.583C262.895 196.153 262.975 195.668 262.975 195.127V191.333H264.151V195.127C264.151 195.677 264.062 196.219 263.885 196.751C263.717 197.283 263.46 197.759 263.115 198.179C262.779 198.599 262.354 198.939 261.841 199.201C261.337 199.462 260.749 199.593 260.077 199.593ZM259.489 191.333H260.651V196.933H259.489V191.333ZM269.575 191.333H273.341C274.172 191.333 274.83 191.566 275.315 192.033C275.81 192.499 276.057 193.185 276.057 194.091V199.425H269.575V191.333ZM270.765 192.327V198.417H274.881V194.091C274.881 193.531 274.746 193.097 274.475 192.789C274.214 192.481 273.831 192.327 273.327 192.327H270.765ZM278.323 191.333H279.513V196.695H278.323V191.333ZM281.934 191.333H285.63C286.461 191.333 287.124 191.566 287.618 192.033C288.113 192.499 288.36 193.185 288.36 194.091V199.425H287.17V194.091C287.17 193.531 287.035 193.101 286.764 192.803C286.503 192.495 286.12 192.341 285.616 192.341H283.124V199.425H281.934V191.333ZM290.698 191.333H291.888V199.425H290.698V191.333ZM298.016 192.341H293.508V189.555H294.684V191.333H299.318V192.285L296.616 199.425H295.314L298.016 192.341ZM304.866 199.593C304.184 199.593 303.587 199.462 303.074 199.201C302.57 198.939 302.145 198.599 301.8 198.179C301.464 197.759 301.207 197.283 301.03 196.751C300.862 196.219 300.778 195.677 300.778 195.127V191.333H301.968V195.127C301.968 195.668 302.042 196.153 302.192 196.583C302.35 197.012 302.56 197.381 302.822 197.689C303.083 197.987 303.386 198.216 303.732 198.375C304.086 198.533 304.464 198.613 304.866 198.613C305.267 198.613 305.64 198.533 305.986 198.375C306.34 198.216 306.648 197.987 306.91 197.689C307.171 197.381 307.376 197.012 307.526 196.583C307.684 196.153 307.764 195.668 307.764 195.127V191.333H308.94V195.127C308.94 195.677 308.851 196.219 308.674 196.751C308.506 197.283 308.249 197.759 307.904 198.179C307.568 198.599 307.143 198.939 306.63 199.201C306.126 199.462 305.538 199.593 304.866 199.593ZM304.278 191.333H305.44V196.933H304.278V191.333ZM310.903 193.825L310.679 191.333H311.729L311.841 192.467H311.855C312.07 192.056 312.382 191.739 312.793 191.515C313.213 191.281 313.717 191.165 314.305 191.165C314.781 191.165 315.206 191.249 315.579 191.417C315.952 191.575 316.265 191.799 316.517 192.089C316.778 192.369 316.974 192.709 317.105 193.111C317.236 193.512 317.301 193.951 317.301 194.427V199.425H314.039V198.417H316.125V194.707C316.125 194.343 316.083 194.007 315.999 193.699C315.924 193.391 315.808 193.125 315.649 192.901C315.49 192.667 315.28 192.485 315.019 192.355C314.767 192.224 314.468 192.159 314.123 192.159C313.778 192.159 313.479 192.224 313.227 192.355C312.975 192.485 312.765 192.667 312.597 192.901C312.429 193.125 312.303 193.391 312.219 193.699C312.135 194.007 312.093 194.343 312.093 194.707V199.425H310.903V193.825ZM323.282 192.341H318.774V189.555H319.95V191.333H324.584V192.285L321.882 199.425H320.58L323.282 192.341ZM329.841 191.333H333.607C334.437 191.333 335.095 191.566 335.581 192.033C336.075 192.499 336.323 193.185 336.323 194.091V199.425H329.841V191.333ZM331.031 192.327V198.417H335.147V194.091C335.147 193.531 335.011 193.097 334.741 192.789C334.479 192.481 334.097 192.327 333.593 192.327H331.031ZM338.589 191.333H339.779V196.695H338.589V191.333ZM341.836 197.759C341.836 197.404 341.878 197.054 341.962 196.709C342.046 196.363 342.167 196.046 342.326 195.757C342.485 195.458 342.681 195.192 342.914 194.959C343.147 194.716 343.413 194.525 343.712 194.385L341.752 191.333H343.054L345.434 195.071C345.91 194.94 346.297 194.651 346.596 194.203C346.895 193.745 347.044 193.167 347.044 192.467V191.333H348.234V192.439C348.234 192.831 348.183 193.209 348.08 193.573C347.987 193.937 347.847 194.277 347.66 194.595C347.483 194.903 347.259 195.178 346.988 195.421C346.727 195.654 346.428 195.831 346.092 195.953L348.304 199.425H347.016L344.342 195.239C343.941 195.425 343.619 195.738 343.376 196.177C343.133 196.606 343.012 197.133 343.012 197.759V199.425H341.836V197.759ZM353.695 194.693C353.695 193.843 353.545 193.241 353.247 192.887C352.948 192.523 352.458 192.341 351.777 192.341H349.481V191.333H351.805C352.85 191.333 353.62 191.613 354.115 192.173C354.619 192.733 354.871 193.573 354.871 194.693V199.425H353.695V194.693ZM357.212 191.333H360.908C361.738 191.333 362.401 191.566 362.896 192.033C363.39 192.499 363.638 193.185 363.638 194.091V199.425H362.448V194.091C362.448 193.531 362.312 193.101 362.042 192.803C361.78 192.495 361.398 192.341 360.894 192.341H358.402V199.425H357.212V191.333ZM365.611 197.759C365.611 197.404 365.653 197.054 365.737 196.709C365.821 196.363 365.943 196.046 366.101 195.757C366.26 195.458 366.456 195.192 366.689 194.959C366.923 194.716 367.189 194.525 367.487 194.385L365.527 191.333H366.829L369.209 195.071C369.685 194.94 370.073 194.651 370.371 194.203C370.67 193.745 370.819 193.167 370.819 192.467V191.333H372.009V192.439C372.009 192.831 371.958 193.209 371.855 193.573C371.762 193.937 371.622 194.277 371.435 194.595C371.258 194.903 371.034 195.178 370.763 195.421C370.502 195.654 370.203 195.831 369.867 195.953L372.079 199.425H370.791L368.117 195.239C367.716 195.425 367.394 195.738 367.151 196.177C366.909 196.606 366.787 197.133 366.787 197.759V199.425H365.611V197.759ZM377.487 191.333H378.677V199.425H377.487V191.333ZM381.095 191.333H382.285V196.695H381.095V191.333ZM389.816 194.091C389.816 193.531 389.685 193.101 389.424 192.803C389.163 192.495 388.78 192.341 388.276 192.341H384.706V191.333H388.276C389.107 191.333 389.765 191.566 390.25 192.033C390.745 192.499 390.992 193.185 390.992 194.091V199.425H389.816V194.091ZM384.706 194.665H385.896V199.425H384.706V194.665Z" fill="#242E30"/>
</g>
<defs>
<filter id="filter0_ddd_10396_16690" x="0.775391" y="0.875196" width="414.45" height="131.4" filterUnits="userSpaceOnUse" color-interpolation-filters="sRGB">
<feFlood flood-opacity="0" result="BackgroundImageFix"/>
<feColorMatrix in="SourceAlpha" type="matrix" values="0 0 0 0 0 0 0 0 0 0 0 0 0 0 0 0 0 0 127 0" result="hardAlpha"/>
<feOffset dy="2.7"/>
<feGaussianBlur stdDeviation="2.025"/>
<feColorMatrix type="matrix" values="0 0 0 0 0 0 0 0 0 0 0 0 0 0 0 0 0 0 0.04 0"/>
<feBlend mode="normal" in2="BackgroundImageFix" result="effect1_dropShadow_10396_16690"/>
<feColorMatrix in="SourceAlpha" type="matrix" values="0 0 0 0 0 0 0 0 0 0 0 0 0 0 0 0 0 0 127 0" result="hardAlpha"/>
<feMorphology radius="1.35" operator="erode" in="SourceAlpha" result="effect2_dropShadow_10396_16690"/>
<feOffset dy="5.4"/>
<feGaussianBlur stdDeviation="4.05"/>
<feColorMatrix type="matrix" values="0 0 0 0 0 0 0 0 0 0 0 0 0 0 0 0 0 0 0.06 0"/>
<feBlend mode="normal" in2="effect1_dropShadow_10396_16690" result="effect2_dropShadow_10396_16690"/>
<feColorMatrix in="SourceAlpha" type="matrix" values="0 0 0 0 0 0 0 0 0 0 0 0 0 0 0 0 0 0 127 0" result="hardAlpha"/>
<feOffset dy="1.35"/>
<feGaussianBlur stdDeviation="2.025"/>
<feColorMatrix type="matrix" values="0 0 0 0 0 0 0 0 0 0 0 0 0 0 0 0 0 0 0.04 0"/>
<feBlend mode="normal" in2="effect2_dropShadow_10396_16690" result="effect3_dropShadow_10396_16690"/>
<feBlend mode="normal" in="SourceGraphic" in2="effect3_dropShadow_10396_16690" result="shape"/>
</filter>
<filter id="filter1_ddd_10396_16690" x="0.775391" y="129.425" width="414.45" height="103.15" filterUnits="userSpaceOnUse" color-interpolation-filters="sRGB">
<feFlood flood-opacity="0" result="BackgroundImageFix"/>
<feColorMatrix in="SourceAlpha" type="matrix" values="0 0 0 0 0 0 0 0 0 0 0 0 0 0 0 0 0 0 127 0" result="hardAlpha"/>
<feOffset dy="2.7"/>
<feGaussianBlur stdDeviation="2.025"/>
<feColorMatrix type="matrix" values="0 0 0 0 0 0 0 0 0 0 0 0 0 0 0 0 0 0 0.04 0"/>
<feBlend mode="normal" in2="BackgroundImageFix" result="effect1_dropShadow_10396_16690"/>
<feColorMatrix in="SourceAlpha" type="matrix" values="0 0 0 0 0 0 0 0 0 0 0 0 0 0 0 0 0 0 127 0" result="hardAlpha"/>
<feMorphology radius="1.35" operator="erode" in="SourceAlpha" result="effect2_dropShadow_10396_16690"/>
<feOffset dy="5.4"/>
<feGaussianBlur stdDeviation="4.05"/>
<feColorMatrix type="matrix" values="0 0 0 0 0 0 0 0 0 0 0 0 0 0 0 0 0 0 0.06 0"/>
<feBlend mode="normal" in2="effect1_dropShadow_10396_16690" result="effect2_dropShadow_10396_16690"/>
<feColorMatrix in="SourceAlpha" type="matrix" values="0 0 0 0 0 0 0 0 0 0 0 0 0 0 0 0 0 0 127 0" result="hardAlpha"/>
<feOffset dy="1.35"/>
<feGaussianBlur stdDeviation="2.025"/>
<feColorMatrix type="matrix" values="0 0 0 0 0 0 0 0 0 0 0 0 0 0 0 0 0 0 0.04 0"/>
<feBlend mode="normal" in2="effect2_dropShadow_10396_16690" result="effect3_dropShadow_10396_16690"/>
<feBlend mode="normal" in="SourceGraphic" in2="effect3_dropShadow_10396_16690" result="shape"/>
</filter>
<clipPath id="clip0_10396_16690">
<rect width="21" height="21" fill="white" transform="translate(369.976 149.775)"/>
</clipPath>
</defs>
</svg>
