<svg width="257" height="72" viewBox="0 0 257 72" fill="none" xmlns="http://www.w3.org/2000/svg">
<g clip-path="url(#clip0_1310_22509)">
<g clip-path="url(#clip1_1310_22509)">
<g clip-path="url(#clip2_1310_22509)">
<path d="M5.24499 15.168C4.61033 15.168 4.05966 15.0653 3.59299 14.86C3.13566 14.6547 2.75766 14.3747 2.45899 14.02C2.16033 13.6653 1.94099 13.2547 1.80099 12.788C1.66099 12.3213 1.59099 11.822 1.59099 11.29V5.9H3.46699V11.262C3.46699 11.5793 3.49966 11.878 3.56499 12.158C3.63033 12.4287 3.73766 12.6667 3.88699 12.872C4.03633 13.068 4.22299 13.2267 4.44699 13.348C4.68033 13.46 4.96499 13.516 5.30099 13.516C5.62766 13.516 5.90766 13.46 6.14099 13.348C6.37433 13.2267 6.56566 13.0633 6.71499 12.858C6.86433 12.6527 6.97166 12.4147 7.03699 12.144C7.11166 11.864 7.14899 11.57 7.14899 11.262V5.9H8.91299V11.29C8.91299 11.822 8.83833 12.3213 8.68899 12.788C8.54899 13.2547 8.32966 13.6653 8.03099 14.02C7.73233 14.3747 7.34966 14.6547 6.88299 14.86C6.42566 15.0653 5.87966 15.168 5.24499 15.168ZM14.0691 13.04C14.0691 12.9 14.0271 12.7833 13.9431 12.69C13.8685 12.5873 13.7565 12.5033 13.6071 12.438C13.4671 12.3727 13.2991 12.3167 13.1031 12.27C12.9071 12.214 12.6925 12.158 12.4591 12.102C12.1885 12.0367 11.9318 11.9527 11.6891 11.85C11.4465 11.7473 11.2318 11.6167 11.0451 11.458C10.8678 11.29 10.7231 11.094 10.6111 10.87C10.4991 10.646 10.4431 10.3753 10.4431 10.058C10.4431 9.71267 10.5085 9.40933 10.6391 9.148C10.7791 8.87733 10.9705 8.65333 11.2131 8.476C11.4558 8.28933 11.7451 8.14933 12.0811 8.056C12.4171 7.96267 12.7811 7.916 13.1731 7.916C13.7891 7.916 14.3211 8.014 14.7691 8.21C15.2171 8.39667 15.5625 8.64867 15.8051 8.966L14.8251 9.974C14.6385 9.76867 14.4051 9.60067 14.1251 9.47C13.8545 9.33933 13.5698 9.274 13.2711 9.274C12.9911 9.274 12.7438 9.33 12.5291 9.442C12.3145 9.554 12.2071 9.736 12.2071 9.988C12.2071 10.128 12.2445 10.2447 12.3191 10.338C12.4031 10.4313 12.5151 10.5153 12.6551 10.59C12.8045 10.6553 12.9771 10.716 13.1731 10.772C13.3691 10.8187 13.5838 10.87 13.8171 10.926C14.0785 10.9913 14.3305 11.0753 14.5731 11.178C14.8251 11.2807 15.0398 11.416 15.2171 11.584C15.4038 11.7427 15.5531 11.934 15.6651 12.158C15.7771 12.382 15.8331 12.6527 15.8331 12.97C15.8331 13.334 15.7585 13.6513 15.6091 13.922C15.4691 14.1927 15.2685 14.4213 15.0071 14.608C14.7551 14.7947 14.4518 14.9347 14.0971 15.028C13.7518 15.1213 13.3785 15.168 12.9771 15.168C12.2958 15.168 11.7171 15.07 11.2411 14.874C10.7745 14.678 10.4198 14.426 10.1771 14.118L11.1291 13.096C11.3438 13.32 11.6051 13.4973 11.9131 13.628C12.2211 13.7493 12.5571 13.81 12.9211 13.81C13.2478 13.81 13.5185 13.7493 13.7331 13.628C13.9571 13.4973 14.0691 13.3013 14.0691 13.04ZM20.2823 15.168C19.7036 15.168 19.1996 15.0747 18.7703 14.888C18.341 14.7013 17.977 14.4447 17.6783 14.118C17.389 13.782 17.1696 13.3947 17.0203 12.956C16.8803 12.5173 16.8103 12.046 16.8103 11.542C16.8103 11.0287 16.8803 10.5527 17.0203 10.114C17.1603 9.666 17.3703 9.28333 17.6503 8.966C17.9303 8.63933 18.2803 8.38267 18.7003 8.196C19.1203 8.00933 19.6103 7.916 20.1703 7.916C20.7303 7.916 21.2203 8.00467 21.6403 8.182C22.0603 8.35933 22.4056 8.60667 22.6763 8.924C22.947 9.24133 23.1476 9.61933 23.2783 10.058C23.4183 10.4873 23.4883 10.9587 23.4883 11.472C23.4883 11.5653 23.479 11.6727 23.4603 11.794C23.451 11.9153 23.437 12.0133 23.4183 12.088H18.6023C18.6303 12.34 18.6956 12.5687 18.7983 12.774C18.9103 12.97 19.0456 13.138 19.2043 13.278C19.3723 13.418 19.5543 13.5253 19.7503 13.6C19.9556 13.6653 20.1656 13.698 20.3803 13.698C20.7816 13.698 21.1176 13.628 21.3883 13.488C21.659 13.348 21.8783 13.1707 22.0463 12.956L23.0403 13.992C22.779 14.3467 22.415 14.6313 21.9483 14.846C21.4816 15.0607 20.9263 15.168 20.2823 15.168ZM20.1703 9.26C19.7223 9.26 19.3583 9.40467 19.0783 9.694C18.7983 9.98333 18.635 10.366 18.5883 10.842H21.7243C21.6776 10.366 21.5143 9.98333 21.2343 9.694C20.9636 9.40467 20.609 9.26 20.1703 9.26ZM24.8605 8.084H26.5265V9.246H26.6105C26.7505 8.84467 26.9652 8.52267 27.2545 8.28C27.5532 8.03733 27.9265 7.916 28.3745 7.916C28.7199 7.916 29.0419 7.972 29.3405 8.084L28.8505 9.694C28.7479 9.62867 28.6265 9.582 28.4865 9.554C28.3465 9.526 28.2112 9.512 28.0805 9.512C27.6512 9.512 27.3012 9.66133 27.0305 9.96C26.7599 10.2493 26.6245 10.66 26.6245 11.192V15H24.8605V8.084ZM30.3703 8.084H32.0363V9.204H32.1203C32.279 8.83067 32.5263 8.52267 32.8623 8.28C33.2076 8.03733 33.6183 7.916 34.0943 7.916C34.9716 7.916 35.6016 8.14933 35.9843 8.616C36.3763 9.07333 36.5723 9.76867 36.5723 10.702V15H34.8083V11.052C34.8083 10.492 34.7056 10.0767 34.5003 9.806C34.3043 9.53533 33.9683 9.4 33.4923 9.4C33.0443 9.4 32.7036 9.54933 32.4703 9.848C32.2463 10.1373 32.1343 10.562 32.1343 11.122V15H30.3703V8.084ZM40.0903 15.168C39.7823 15.168 39.4883 15.1167 39.2083 15.014C38.9377 14.9207 38.6997 14.7853 38.4943 14.608C38.289 14.4213 38.1257 14.1973 38.0043 13.936C37.8923 13.6747 37.8363 13.3807 37.8363 13.054C37.8363 12.438 38.0557 11.948 38.4943 11.584C38.933 11.22 39.6003 11.0147 40.4963 10.968L42.1203 10.87V10.59C42.1203 10.142 41.985 9.834 41.7143 9.666C41.4437 9.498 41.1077 9.414 40.7063 9.414C40.389 9.414 40.0903 9.47467 39.8103 9.596C39.5303 9.708 39.3203 9.848 39.1803 10.016L38.1863 9.008C38.429 8.69067 38.779 8.42933 39.2363 8.224C39.703 8.01867 40.2723 7.916 40.9443 7.916C41.9337 7.916 42.671 8.14467 43.1563 8.602C43.6417 9.05933 43.8843 9.68 43.8843 10.464V15H42.2183V13.894H42.1343C41.957 14.286 41.7003 14.5987 41.3643 14.832C41.0283 15.056 40.6037 15.168 40.0903 15.168ZM40.6083 13.894C41.0563 13.894 41.4203 13.768 41.7003 13.516C41.9803 13.2547 42.1203 12.8907 42.1203 12.424V11.962L40.7063 12.074C39.9783 12.1207 39.6143 12.4287 39.6143 12.998C39.6143 13.2873 39.7077 13.5113 39.8943 13.67C40.081 13.8193 40.319 13.894 40.6083 13.894ZM45.6144 8.084H47.2804V9.134H47.3644C47.5418 8.77 47.7891 8.476 48.1064 8.252C48.4331 8.028 48.8298 7.916 49.2964 7.916C50.4351 7.916 51.1678 8.34533 51.4944 9.204C51.6718 8.812 51.9471 8.49933 52.3204 8.266C52.6938 8.03267 53.1324 7.916 53.6364 7.916C54.4764 7.916 55.0924 8.14933 55.4844 8.616C55.8764 9.07333 56.0724 9.76867 56.0724 10.702V15H54.3084V10.996C54.3084 9.932 53.8838 9.4 53.0344 9.4C52.5958 9.4 52.2644 9.54467 52.0404 9.834C51.8258 10.1233 51.7184 10.5387 51.7184 11.08V15H49.9544V10.996C49.9544 10.464 49.8518 10.0673 49.6464 9.806C49.4504 9.53533 49.1284 9.4 48.6804 9.4C48.2604 9.4 47.9384 9.54467 47.7144 9.834C47.4904 10.1233 47.3784 10.5387 47.3784 11.08V15H45.6144V8.084ZM60.8194 15.168C60.2407 15.168 59.7367 15.0747 59.3074 14.888C58.8781 14.7013 58.5141 14.4447 58.2154 14.118C57.9261 13.782 57.7067 13.3947 57.5574 12.956C57.4174 12.5173 57.3474 12.046 57.3474 11.542C57.3474 11.0287 57.4174 10.5527 57.5574 10.114C57.6974 9.666 57.9074 9.28333 58.1874 8.966C58.4674 8.63933 58.8174 8.38267 59.2374 8.196C59.6574 8.00933 60.1474 7.916 60.7074 7.916C61.2674 7.916 61.7574 8.00467 62.1774 8.182C62.5974 8.35933 62.9427 8.60667 63.2134 8.924C63.4841 9.24133 63.6847 9.61933 63.8154 10.058C63.9554 10.4873 64.0254 10.9587 64.0254 11.472C64.0254 11.5653 64.0161 11.6727 63.9974 11.794C63.9881 11.9153 63.9741 12.0133 63.9554 12.088H59.1394C59.1674 12.34 59.2327 12.5687 59.3354 12.774C59.4474 12.97 59.5827 13.138 59.7414 13.278C59.9094 13.418 60.0914 13.5253 60.2874 13.6C60.4927 13.6653 60.7027 13.698 60.9174 13.698C61.3187 13.698 61.6547 13.628 61.9254 13.488C62.1961 13.348 62.4154 13.1707 62.5834 12.956L63.5774 13.992C63.3161 14.3467 62.9521 14.6313 62.4854 14.846C62.0187 15.0607 61.4634 15.168 60.8194 15.168ZM60.7074 9.26C60.2594 9.26 59.8954 9.40467 59.6154 9.694C59.3354 9.98333 59.1721 10.366 59.1254 10.842H62.2614C62.2147 10.366 62.0514 9.98333 61.7714 9.694C61.5007 9.40467 61.1461 9.26 60.7074 9.26Z" fill="#242E30"/>
</g>
</g>
<path d="M219.511 14.02H222.115V7.16L219.623 8.308L219.259 7.524L222.325 5.9H223.305V14.02H225.643V15H219.511V14.02ZM230.481 15.168C229.847 15.168 229.324 15.0607 228.913 14.846C228.503 14.6313 228.143 14.356 227.835 14.02L228.549 13.306C228.773 13.5393 229.039 13.7353 229.347 13.894C229.655 14.0527 230.019 14.132 230.439 14.132C231.027 14.132 231.494 13.978 231.839 13.67C232.194 13.3527 232.371 12.9 232.371 12.312C232.371 11.7147 232.189 11.262 231.825 10.954C231.461 10.6367 230.957 10.478 230.313 10.478H228.885L228.437 10.03V5.9H233.085V6.908H229.557V9.484H230.537C231.041 9.484 231.485 9.554 231.867 9.694C232.25 9.834 232.567 10.03 232.819 10.282C233.071 10.5247 233.263 10.8187 233.393 11.164C233.524 11.5093 233.589 11.892 233.589 12.312C233.589 12.704 233.524 13.0727 233.393 13.418C233.272 13.7633 233.081 14.0667 232.819 14.328C232.567 14.58 232.245 14.7853 231.853 14.944C231.471 15.0933 231.013 15.168 230.481 15.168ZM238.596 4.85H239.646L236.104 16.54H235.054L238.596 4.85ZM241.25 13.488C241.25 13.1147 241.315 12.788 241.446 12.508C241.577 12.2187 241.754 11.9573 241.978 11.724C242.211 11.4813 242.482 11.2573 242.79 11.052C243.107 10.8467 243.448 10.6367 243.812 10.422C244.101 10.2447 244.358 10.0813 244.582 9.932C244.806 9.77333 244.993 9.61 245.142 9.442C245.291 9.274 245.403 9.09667 245.478 8.91C245.553 8.72333 245.59 8.50867 245.59 8.266C245.59 7.77133 245.431 7.398 245.114 7.146C244.806 6.88467 244.409 6.754 243.924 6.754C243.439 6.754 243.019 6.852 242.664 7.048C242.309 7.23467 242.011 7.48667 241.768 7.804L241.124 7.132C241.404 6.712 241.773 6.376 242.23 6.124C242.687 5.86267 243.238 5.732 243.882 5.732C244.358 5.732 244.778 5.79733 245.142 5.928C245.506 6.04933 245.809 6.222 246.052 6.446C246.304 6.66067 246.491 6.922 246.612 7.23C246.743 7.52867 246.808 7.85533 246.808 8.21C246.808 8.61133 246.738 8.966 246.598 9.274C246.458 9.582 246.271 9.862 246.038 10.114C245.805 10.366 245.534 10.5947 245.226 10.8C244.927 10.996 244.61 11.1873 244.274 11.374C243.975 11.542 243.709 11.7007 243.476 11.85C243.243 11.9993 243.047 12.158 242.888 12.326C242.739 12.494 242.622 12.6807 242.538 12.886C242.463 13.0913 242.426 13.334 242.426 13.614V13.992H247.032V15H241.25V13.488ZM252.472 15.168C251.894 15.168 251.394 15.0467 250.974 14.804C250.564 14.5613 250.223 14.23 249.952 13.81C249.691 13.3807 249.495 12.8813 249.364 12.312C249.243 11.7333 249.182 11.1127 249.182 10.45C249.182 9.78733 249.243 9.17133 249.364 8.602C249.495 8.02333 249.691 7.524 249.952 7.104C250.223 6.67467 250.564 6.33867 250.974 6.096C251.394 5.85333 251.894 5.732 252.472 5.732C253.051 5.732 253.546 5.85333 253.956 6.096C254.376 6.33867 254.717 6.67467 254.978 7.104C255.249 7.524 255.445 8.02333 255.566 8.602C255.697 9.17133 255.762 9.78733 255.762 10.45C255.762 11.1127 255.697 11.7333 255.566 12.312C255.445 12.8813 255.249 13.3807 254.978 13.81C254.717 14.23 254.376 14.5613 253.956 14.804C253.546 15.0467 253.051 15.168 252.472 15.168ZM252.472 14.16C252.818 14.16 253.121 14.076 253.382 13.908C253.644 13.7307 253.858 13.4833 254.026 13.166C254.204 12.8393 254.334 12.4473 254.418 11.99C254.502 11.5327 254.544 11.0193 254.544 10.45C254.544 9.88067 254.502 9.36733 254.418 8.91C254.334 8.45267 254.204 8.06533 254.026 7.748C253.858 7.42133 253.644 7.174 253.382 7.006C253.121 6.82867 252.818 6.74 252.472 6.74C252.127 6.74 251.824 6.82867 251.562 7.006C251.31 7.174 251.096 7.42133 250.918 7.748C250.75 8.06533 250.62 8.45267 250.526 8.91C250.442 9.36733 250.4 9.88067 250.4 10.45C250.4 11.0193 250.442 11.5327 250.526 11.99C250.62 12.4473 250.75 12.8393 250.918 13.166C251.096 13.4833 251.31 13.7307 251.562 13.908C251.824 14.076 252.127 14.16 252.472 14.16Z" fill="#3C4C4F"/>
</g>
<path d="M12.667 24.5H244.667C251.018 24.5 256.167 29.6487 256.167 36V60C256.167 66.3513 251.018 71.5 244.667 71.5H12.667C6.31572 71.5 1.16699 66.3513 1.16699 60V36C1.16699 29.6487 6.31572 24.5 12.667 24.5Z" fill="white"/>
<path d="M12.667 24.5H244.667C251.018 24.5 256.167 29.6487 256.167 36V60C256.167 66.3513 251.018 71.5 244.667 71.5H12.667C6.31572 71.5 1.16699 66.3513 1.16699 60V36C1.16699 29.6487 6.31572 24.5 12.667 24.5Z" stroke="#797876"/>
<g clip-path="url(#clip3_1310_22509)">
<path d="M0.666992 36C0.666992 29.3726 6.03958 24 12.667 24H244.667C251.294 24 256.667 29.3726 256.667 36V60C256.667 66.6274 251.294 72 244.667 72H12.667C6.03958 72 0.666992 66.6274 0.666992 60V36Z" fill="white" fill-opacity="0.01"/>
<path d="M17.275 52.944H18.475V44.656H17.275V43.6H21.003V44.656H19.803V52.944H21.003V54H17.275V52.944ZM23.0765 43.6H24.4365V52.848H28.4525V54H23.0765V43.6ZM33.2876 54.192C32.6583 54.192 32.1036 54.0853 31.6236 53.872C31.1543 53.648 30.7596 53.3493 30.4396 52.976C30.1303 52.6027 29.8956 52.1653 29.7356 51.664C29.5863 51.1627 29.5116 50.624 29.5116 50.048C29.5116 49.472 29.5863 48.9333 29.7356 48.432C29.8956 47.9307 30.1303 47.4933 30.4396 47.12C30.7596 46.7467 31.1543 46.4533 31.6236 46.24C32.1036 46.016 32.6583 45.904 33.2876 45.904C33.917 45.904 34.461 46.016 34.9196 46.24C35.389 46.4533 35.7783 46.7467 36.0876 47.12C36.397 47.4933 36.6263 47.9307 36.7756 48.432C36.9356 48.9333 37.0156 49.472 37.0156 50.048C37.0156 50.624 36.9356 51.1627 36.7756 51.664C36.6263 52.1653 36.397 52.6027 36.0876 52.976C35.7783 53.3493 35.389 53.648 34.9196 53.872C34.461 54.0853 33.917 54.192 33.2876 54.192ZM30.8236 50.048C30.8236 50.5067 30.8716 50.928 30.9676 51.312C31.0743 51.6853 31.229 52.0107 31.4316 52.288C31.6343 52.5547 31.8903 52.7627 32.1996 52.912C32.509 53.0613 32.8716 53.136 33.2876 53.136C33.693 53.136 34.045 53.0613 34.3436 52.912C34.653 52.7627 34.9036 52.5547 35.0956 52.288C35.2983 52.0107 35.4476 51.6853 35.5436 51.312C35.6503 50.928 35.7036 50.5067 35.7036 50.048C35.7036 49.5893 35.6503 49.1733 35.5436 48.8C35.4476 48.416 35.2983 48.0907 35.0956 47.824C34.9036 47.5467 34.653 47.3333 34.3436 47.184C34.045 47.0347 33.693 46.96 33.2876 46.96C32.8716 46.96 32.509 47.0347 32.1996 47.184C31.8903 47.3333 31.6343 47.5467 31.4316 47.824C31.229 48.0907 31.0743 48.416 30.9676 48.8C30.8716 49.1733 30.8236 49.5893 30.8236 50.048ZM37.8776 46.096H39.2696L41.6536 52.688H41.7496L44.1496 46.096H45.4456L42.3736 54H40.9336L37.8776 46.096ZM50.0525 54.192C49.4872 54.192 48.9698 54.096 48.5005 53.904C48.0418 53.712 47.6472 53.44 47.3165 53.088C46.9965 52.7253 46.7458 52.288 46.5645 51.776C46.3938 51.264 46.3085 50.688 46.3085 50.048C46.3085 49.376 46.3992 48.784 46.5805 48.272C46.7618 47.7493 47.0125 47.3173 47.3325 46.976C47.6525 46.624 48.0312 46.3573 48.4685 46.176C48.9165 45.9947 49.4072 45.904 49.9405 45.904C50.4738 45.904 50.9645 45.9893 51.4125 46.16C51.8605 46.3307 52.2445 46.5867 52.5645 46.928C52.8845 47.2587 53.1352 47.68 53.3165 48.192C53.4978 48.6933 53.5885 49.28 53.5885 49.952C53.5885 50.0373 53.5832 50.1227 53.5725 50.208C53.5725 50.2933 53.5672 50.3627 53.5565 50.416H47.5885C47.5885 50.7893 47.6525 51.1413 47.7805 51.472C47.9192 51.792 48.1005 52.0747 48.3245 52.32C48.5592 52.5547 48.8258 52.7413 49.1245 52.88C49.4338 53.0187 49.7645 53.088 50.1165 53.088C50.6925 53.088 51.1618 52.976 51.5245 52.752C51.8978 52.528 52.2072 52.256 52.4525 51.936L53.2205 52.72C52.8792 53.168 52.4525 53.5253 51.9405 53.792C51.4392 54.0587 50.8098 54.192 50.0525 54.192ZM49.9405 46.96C49.5672 46.96 49.2365 47.0293 48.9485 47.168C48.6605 47.3067 48.4205 47.488 48.2285 47.712C48.0365 47.936 47.8872 48.192 47.7805 48.48C47.6845 48.768 47.6312 49.056 47.6205 49.344H52.2445C52.2338 49.056 52.1752 48.768 52.0685 48.48C51.9725 48.192 51.8285 47.936 51.6365 47.712C51.4445 47.488 51.2045 47.3067 50.9165 47.168C50.6392 47.0293 50.3138 46.96 49.9405 46.96ZM57.092 54.192C56.5693 54.192 56.1 54.096 55.684 53.904C55.268 53.7013 54.9533 53.4613 54.74 53.184L55.588 52.336C55.7693 52.56 55.9933 52.736 56.26 52.864C56.5267 52.9813 56.804 53.04 57.092 53.04C57.668 53.04 58.116 52.8587 58.436 52.496C58.756 52.1333 58.916 51.616 58.916 50.944V43.6H60.276V50.992C60.276 52.0373 59.9827 52.832 59.396 53.376C58.82 53.92 58.052 54.192 57.092 54.192ZM65.7001 54.192C65.2628 54.192 64.8681 54.1333 64.5161 54.016C64.1641 53.8987 63.8601 53.7173 63.6041 53.472C63.3588 53.2267 63.1668 52.912 63.0281 52.528C62.8895 52.144 62.8201 51.6853 62.8201 51.152V46.096H64.1001V50.912C64.1001 51.7227 64.2548 52.2987 64.5641 52.64C64.8841 52.9707 65.3481 53.136 65.9561 53.136C66.5321 53.136 66.9855 52.928 67.3161 52.512C67.6575 52.096 67.8281 51.488 67.8281 50.688V46.096H69.1081V54H67.8921V52.752H67.7961C67.6041 53.168 67.3375 53.5147 66.9961 53.792C66.6655 54.0587 66.2335 54.192 65.7001 54.192ZM75.6319 51.952C75.6319 51.7173 75.5785 51.5253 75.4719 51.376C75.3652 51.216 75.2159 51.0827 75.0239 50.976C74.8425 50.8693 74.6345 50.7787 74.3999 50.704C74.1652 50.6293 73.9199 50.5547 73.6639 50.48C73.3652 50.3947 73.0772 50.2933 72.7999 50.176C72.5332 50.0587 72.2932 49.9147 72.0799 49.744C71.8665 49.5627 71.6959 49.3493 71.5679 49.104C71.4399 48.8587 71.3759 48.56 71.3759 48.208C71.3759 47.8347 71.4452 47.504 71.5839 47.216C71.7225 46.928 71.9145 46.688 72.1599 46.496C72.4052 46.304 72.6932 46.16 73.0239 46.064C73.3545 45.9573 73.7119 45.904 74.0959 45.904C74.6719 45.904 75.1999 46.0107 75.6799 46.224C76.1599 46.4267 76.5545 46.7467 76.8639 47.184L76.0319 47.952C75.7972 47.6747 75.5199 47.4453 75.1999 47.264C74.8905 47.0827 74.5225 46.992 74.0959 46.992C73.9145 46.992 73.7332 47.0133 73.5519 47.056C73.3812 47.0987 73.2265 47.168 73.0879 47.264C72.9492 47.3493 72.8372 47.4613 72.7519 47.6C72.6665 47.7387 72.6239 47.904 72.6239 48.096C72.6239 48.3307 72.6772 48.528 72.7839 48.688C72.8905 48.8373 73.0345 48.9653 73.2159 49.072C73.4079 49.1787 73.6212 49.2693 73.8559 49.344C74.0905 49.4187 74.3359 49.4933 74.5919 49.568C74.8905 49.6533 75.1732 49.7547 75.4399 49.872C75.7172 49.9893 75.9625 50.1387 76.1759 50.32C76.3892 50.4907 76.5599 50.6987 76.6879 50.944C76.8159 51.1893 76.8799 51.488 76.8799 51.84C76.8799 52.256 76.7999 52.6133 76.6399 52.912C76.4905 53.2 76.2825 53.44 76.0159 53.632C75.7492 53.824 75.4399 53.9627 75.0879 54.048C74.7359 54.144 74.3625 54.192 73.9679 54.192C73.2745 54.192 72.6825 54.0747 72.1919 53.84C71.7119 53.6053 71.3332 53.3013 71.0559 52.928L71.9039 52.128C72.1492 52.416 72.4319 52.6507 72.7519 52.832C73.0825 53.0133 73.4932 53.104 73.9839 53.104C74.2079 53.104 74.4159 53.0827 74.6079 53.04C74.8105 52.9973 74.9865 52.928 75.1359 52.832C75.2852 52.736 75.4025 52.6187 75.4879 52.48C75.5839 52.3307 75.6319 52.1547 75.6319 51.952ZM81.5215 54.192C80.8068 54.192 80.2842 53.9787 79.9535 53.552C79.6228 53.1253 79.4575 52.5387 79.4575 51.792V47.136H78.0495V46.096H79.4575V43.952H80.7215V46.096H83.0095V47.136H80.7215V51.68C80.7215 52.192 80.8175 52.5493 81.0095 52.752C81.2122 52.9547 81.4682 53.056 81.7775 53.056C81.9908 53.056 82.1828 53.0187 82.3535 52.944C82.5242 52.8587 82.6842 52.7467 82.8335 52.608L83.4095 53.504C82.9188 53.9627 82.2895 54.192 81.5215 54.192ZM85.264 43.6H90.832V44.752H86.624V48.128H90.688V49.28H86.624V52.848H90.944V54H85.264V43.6ZM95.0054 54.192C94.6427 54.192 94.3067 54.1333 93.9974 54.016C93.6987 53.8987 93.4374 53.7333 93.2134 53.52C92.9894 53.3067 92.8134 53.056 92.6854 52.768C92.568 52.4693 92.5094 52.144 92.5094 51.792C92.5094 51.1093 92.7547 50.56 93.2454 50.144C93.736 49.728 94.4347 49.4933 95.3414 49.44L97.4214 49.312V48.752C97.4214 48.144 97.272 47.7067 96.9734 47.44C96.6854 47.1627 96.2694 47.024 95.7254 47.024C95.2667 47.024 94.872 47.1093 94.5414 47.28C94.2107 47.4507 93.9547 47.6373 93.7734 47.84L93.0054 47.072C93.2827 46.7307 93.656 46.4533 94.1254 46.24C94.6054 46.016 95.1494 45.904 95.7574 45.904C96.3014 45.904 96.76 45.9787 97.1334 46.128C97.5067 46.2667 97.8054 46.4587 98.0294 46.704C98.264 46.9493 98.4294 47.2373 98.5254 47.568C98.632 47.8987 98.6854 48.2507 98.6854 48.624V54H97.4854V52.656H97.3894C97.176 53.136 96.8774 53.5147 96.4934 53.792C96.1094 54.0587 95.6134 54.192 95.0054 54.192ZM95.1974 53.104C95.8587 53.104 96.392 52.912 96.7974 52.528C97.2134 52.1333 97.4214 51.6107 97.4214 50.96V50.272L95.4054 50.416C94.3387 50.5013 93.8054 50.9493 93.8054 51.76C93.8054 52.1653 93.9334 52.4907 94.1894 52.736C94.456 52.9813 94.792 53.104 95.1974 53.104ZM103.693 54.192C102.979 54.192 102.456 53.9787 102.125 53.552C101.795 53.1253 101.629 52.5387 101.629 51.792V47.136H100.221V46.096H101.629V43.952H102.893V46.096H105.181V47.136H102.893V51.68C102.893 52.192 102.989 52.5493 103.181 52.752C103.384 52.9547 103.64 53.056 103.949 53.056C104.163 53.056 104.355 53.0187 104.525 52.944C104.696 52.8587 104.856 52.7467 105.005 52.608L105.581 53.504C105.091 53.9627 104.461 54.192 103.693 54.192ZM109.308 44.752H106.348V43.6H113.628V44.752H110.668V54H109.308V44.752ZM116.474 54.192C116.111 54.192 115.775 54.1333 115.466 54.016C115.167 53.8987 114.906 53.7333 114.682 53.52C114.458 53.3067 114.282 53.056 114.154 52.768C114.037 52.4693 113.978 52.144 113.978 51.792C113.978 51.1093 114.223 50.56 114.714 50.144C115.205 49.728 115.903 49.4933 116.81 49.44L118.89 49.312V48.752C118.89 48.144 118.741 47.7067 118.442 47.44C118.154 47.1627 117.738 47.024 117.194 47.024C116.735 47.024 116.341 47.1093 116.01 47.28C115.679 47.4507 115.423 47.6373 115.242 47.84L114.474 47.072C114.751 46.7307 115.125 46.4533 115.594 46.24C116.074 46.016 116.618 45.904 117.226 45.904C117.77 45.904 118.229 45.9787 118.602 46.128C118.975 46.2667 119.274 46.4587 119.498 46.704C119.733 46.9493 119.898 47.2373 119.994 47.568C120.101 47.8987 120.154 48.2507 120.154 48.624V54H118.954V52.656H118.858C118.645 53.136 118.346 53.5147 117.962 53.792C117.578 54.0587 117.082 54.192 116.474 54.192ZM116.666 53.104C117.327 53.104 117.861 52.912 118.266 52.528C118.682 52.1333 118.89 51.6107 118.89 50.96V50.272L116.874 50.416C115.807 50.5013 115.274 50.9493 115.274 51.76C115.274 52.1653 115.402 52.4907 115.658 52.736C115.925 52.9813 116.261 53.104 116.666 53.104ZM124.01 54H122.73V42.4H124.01V50.256H124.106L127.722 46.096H129.274L125.962 49.712L129.402 54H127.802L125.082 50.544L124.01 51.776V54Z" fill="#242E30"/>
</g>
<defs>
<clipPath id="clip0_1310_22509">
<rect width="256" height="24" fill="white" transform="translate(0.666992)"/>
</clipPath>
<clipPath id="clip1_1310_22509">
<rect width="201" height="20" fill="white" transform="translate(0.666992)"/>
</clipPath>
<clipPath id="clip2_1310_22509">
<rect width="64" height="20" fill="white" transform="translate(0.666992)"/>
</clipPath>
<clipPath id="clip3_1310_22509">
<path d="M0.666992 36C0.666992 29.3726 6.03958 24 12.667 24H244.667C251.294 24 256.667 29.3726 256.667 36V60C256.667 66.6274 251.294 72 244.667 72H12.667C6.03958 72 0.666992 66.6274 0.666992 60V36Z" fill="white"/>
</clipPath>
</defs>
</svg>
