<svg width="168" height="20" viewBox="0 0 168 20" fill="none" xmlns="http://www.w3.org/2000/svg">
<path d="M4.49347 10.394L1.56747 5.9H3.00947L5.17947 9.456H5.26347L7.47547 5.9H8.80547L5.87947 10.31L8.93147 15H7.48947L5.19347 11.248H5.10947L2.77147 15H1.44147L4.49347 10.394ZM12.8936 4.85H13.9436L10.4016 16.54H9.35158L12.8936 4.85ZM17.5638 10.394L14.6378 5.9H16.0798L18.2498 9.456H18.3338L20.5458 5.9H21.8758L18.9498 10.31L22.0018 15H20.5598L18.2638 11.248H18.1798L15.8418 15H14.5118L17.5638 10.394ZM25.7259 10.394L22.7999 5.9H24.2419L26.4119 9.456H26.4959L28.7079 5.9H30.0379L27.1119 10.31L30.1639 15H28.7219L26.4259 11.248H26.3419L24.0039 15H22.6739L25.7259 10.394Z" fill="#3C4C4F"/>
<path d="M73.929 10.394L71.003 5.9H72.445L74.615 9.456H74.699L76.911 5.9H78.241L75.315 10.31L78.367 15H76.925L74.629 11.248H74.545L72.207 15H70.877L73.929 10.394ZM87.5931 5.9H88.7691L82.6091 15H81.4331L87.5931 5.9ZM81.9791 10.744C81.5871 10.744 81.2418 10.674 80.9431 10.534C80.6538 10.394 80.4158 10.2073 80.2291 9.974C80.0425 9.74067 79.9025 9.47467 79.8091 9.176C79.7158 8.868 79.6691 8.55533 79.6691 8.238C79.6691 7.92067 79.7158 7.61267 79.8091 7.314C79.9025 7.006 80.0425 6.73533 80.2291 6.502C80.4158 6.26867 80.6538 6.082 80.9431 5.942C81.2418 5.802 81.5871 5.732 81.9791 5.732C82.3805 5.732 82.7258 5.802 83.0151 5.942C83.3045 6.082 83.5425 6.26867 83.7291 6.502C83.9158 6.73533 84.0558 7.006 84.1491 7.314C84.2425 7.61267 84.2891 7.92067 84.2891 8.238C84.2891 8.55533 84.2425 8.868 84.1491 9.176C84.0558 9.47467 83.9158 9.74067 83.7291 9.974C83.5425 10.2073 83.3045 10.394 83.0151 10.534C82.7258 10.674 82.3805 10.744 81.9791 10.744ZM81.9791 9.89C82.3618 9.89 82.6745 9.74533 82.9171 9.456C83.1691 9.15733 83.2951 8.75133 83.2951 8.238C83.2951 7.72467 83.1691 7.32333 82.9171 7.034C82.6745 6.73533 82.3618 6.586 81.9791 6.586C81.5965 6.586 81.2791 6.73533 81.0271 7.034C80.7845 7.32333 80.6631 7.72467 80.6631 8.238C80.6631 8.75133 80.7845 9.15733 81.0271 9.456C81.2791 9.74533 81.5965 9.89 81.9791 9.89ZM88.2231 15.168C87.8311 15.168 87.4858 15.098 87.1871 14.958C86.8978 14.818 86.6598 14.6313 86.4731 14.398C86.2865 14.1647 86.1465 13.8987 86.0531 13.6C85.9598 13.292 85.9131 12.9793 85.9131 12.662C85.9131 12.3447 85.9598 12.0367 86.0531 11.738C86.1465 11.43 86.2865 11.1593 86.4731 10.926C86.6598 10.6927 86.8978 10.506 87.1871 10.366C87.4858 10.226 87.8311 10.156 88.2231 10.156C88.6245 10.156 88.9698 10.226 89.2591 10.366C89.5485 10.506 89.7865 10.6927 89.9731 10.926C90.1598 11.1593 90.2998 11.43 90.3931 11.738C90.4865 12.0367 90.5331 12.3447 90.5331 12.662C90.5331 12.9793 90.4865 13.292 90.3931 13.6C90.2998 13.8987 90.1598 14.1647 89.9731 14.398C89.7865 14.6313 89.5485 14.818 89.2591 14.958C88.9698 15.098 88.6245 15.168 88.2231 15.168ZM88.2231 14.314C88.6058 14.314 88.9185 14.1693 89.1611 13.88C89.4131 13.5813 89.5391 13.1753 89.5391 12.662C89.5391 12.1487 89.4131 11.7473 89.1611 11.458C88.9185 11.1593 88.6058 11.01 88.2231 11.01C87.8405 11.01 87.5231 11.1593 87.2711 11.458C87.0285 11.7473 86.9071 12.1487 86.9071 12.662C86.9071 13.1753 87.0285 13.5813 87.2711 13.88C87.5231 14.1693 87.8405 14.314 88.2231 14.314Z" fill="#3C4C4F"/>
<path d="M135.355 10.394L132.429 5.9H133.871L136.041 9.456H136.125L138.337 5.9H139.667L136.741 10.31L139.793 15H138.351L136.055 11.248H135.971L133.633 15H132.303L135.355 10.394ZM147.412 15.168C146.862 15.168 146.376 15.0747 145.956 14.888C145.546 14.692 145.2 14.4307 144.92 14.104C144.65 13.7773 144.444 13.3947 144.304 12.956C144.174 12.5173 144.108 12.046 144.108 11.542C144.108 11.038 144.174 10.5667 144.304 10.128C144.444 9.68933 144.65 9.30667 144.92 8.98C145.2 8.65333 145.546 8.39667 145.956 8.21C146.376 8.014 146.862 7.916 147.412 7.916C147.963 7.916 148.439 8.014 148.84 8.21C149.251 8.39667 149.592 8.65333 149.862 8.98C150.133 9.30667 150.334 9.68933 150.464 10.128C150.604 10.5667 150.674 11.038 150.674 11.542C150.674 12.046 150.604 12.5173 150.464 12.956C150.334 13.3947 150.133 13.7773 149.862 14.104C149.592 14.4307 149.251 14.692 148.84 14.888C148.439 15.0747 147.963 15.168 147.412 15.168ZM145.256 11.542C145.256 11.9433 145.298 12.312 145.382 12.648C145.476 12.9747 145.611 13.2593 145.788 13.502C145.966 13.7353 146.19 13.9173 146.46 14.048C146.731 14.1787 147.048 14.244 147.412 14.244C147.767 14.244 148.075 14.1787 148.336 14.048C148.607 13.9173 148.826 13.7353 148.994 13.502C149.172 13.2593 149.302 12.9747 149.386 12.648C149.48 12.312 149.526 11.9433 149.526 11.542C149.526 11.1407 149.48 10.7767 149.386 10.45C149.302 10.114 149.172 9.82933 148.994 9.596C148.826 9.35333 148.607 9.16667 148.336 9.036C148.075 8.90533 147.767 8.84 147.412 8.84C147.048 8.84 146.731 8.90533 146.46 9.036C146.19 9.16667 145.966 9.35333 145.788 9.596C145.611 9.82933 145.476 10.114 145.382 10.45C145.298 10.7767 145.256 11.1407 145.256 11.542ZM152.825 8.994H151.593V8.084H152.825V6.866C152.825 6.194 152.993 5.662 153.329 5.27C153.674 4.878 154.183 4.682 154.855 4.682C155.023 4.682 155.196 4.70067 155.373 4.738C155.55 4.766 155.704 4.81267 155.835 4.878L155.457 5.76C155.392 5.72267 155.303 5.69467 155.191 5.676C155.079 5.648 154.981 5.634 154.897 5.634C154.598 5.634 154.365 5.73667 154.197 5.942C154.029 6.14733 153.945 6.46 153.945 6.88V8.084H155.793V8.994H153.945V15H152.825V8.994ZM162.726 10.394L159.8 5.9H161.242L163.412 9.456H163.496L165.708 5.9H167.038L164.112 10.31L167.164 15H165.722L163.426 11.248H163.342L161.004 15H159.674L162.726 10.394Z" fill="#3C4C4F"/>
</svg>
