<svg width="288" height="48" viewBox="0 0 288 48" fill="none" xmlns="http://www.w3.org/2000/svg">
<g clip-path="url(#clip0_1300_232091)">
<path d="M5.026 15.168C4.298 15.168 3.65867 15.042 3.108 14.79C2.55733 14.5287 2.09533 14.1833 1.722 13.754C1.358 13.3153 1.078 12.8113 0.882 12.242C0.695333 11.6633 0.602 11.0567 0.602 10.422C0.602 9.78733 0.695333 9.18533 0.882 8.616C1.06867 8.04667 1.344 7.552 1.708 7.132C2.08133 6.70267 2.53867 6.362 3.08 6.11C3.62133 5.858 4.24667 5.732 4.956 5.732C5.656 5.732 6.272 5.858 6.804 6.11C7.34533 6.35267 7.80733 6.67933 8.19 7.09L6.986 8.21C6.74333 7.93 6.44467 7.71533 6.09 7.566C5.73533 7.40733 5.362 7.328 4.97 7.328C4.61533 7.328 4.284 7.40267 3.976 7.552C3.67733 7.692 3.42067 7.89733 3.206 8.168C2.99133 8.43867 2.82333 8.76533 2.702 9.148C2.58067 9.53067 2.52 9.96 2.52 10.436C2.52 10.9027 2.58533 11.3273 2.716 11.71C2.84667 12.0927 3.024 12.424 3.248 12.704C3.472 12.9747 3.738 13.1893 4.046 13.348C4.354 13.4973 4.68533 13.572 5.04 13.572C5.432 13.572 5.80533 13.4973 6.16 13.348C6.524 13.1893 6.82733 12.9653 7.07 12.676L8.26 13.796C7.88667 14.216 7.42467 14.552 6.874 14.804C6.33267 15.0467 5.71667 15.168 5.026 15.168ZM11.9433 15.168C11.094 15.168 10.478 14.9393 10.0953 14.482C9.71265 14.0153 9.52131 13.3153 9.52131 12.382V8.084H11.2853V12.032C11.2853 12.592 11.3833 13.0073 11.5793 13.278C11.7753 13.5487 12.0973 13.684 12.5453 13.684C12.9746 13.684 13.2966 13.5393 13.5113 13.25C13.7353 12.9513 13.8473 12.522 13.8473 11.962V8.084H15.6113V15H13.9453V13.88H13.8613C13.7026 14.2533 13.46 14.5613 13.1333 14.804C12.8066 15.0467 12.41 15.168 11.9433 15.168ZM20.7713 13.04C20.7713 12.9 20.7293 12.7833 20.6453 12.69C20.5706 12.5873 20.4586 12.5033 20.3093 12.438C20.1693 12.3727 20.0013 12.3167 19.8053 12.27C19.6093 12.214 19.3946 12.158 19.1613 12.102C18.8906 12.0367 18.634 11.9527 18.3913 11.85C18.1486 11.7473 17.934 11.6167 17.7473 11.458C17.57 11.29 17.4253 11.094 17.3133 10.87C17.2013 10.646 17.1453 10.3753 17.1453 10.058C17.1453 9.71267 17.2106 9.40933 17.3413 9.148C17.4813 8.87733 17.6726 8.65333 17.9153 8.476C18.158 8.28933 18.4473 8.14933 18.7833 8.056C19.1193 7.96267 19.4833 7.916 19.8753 7.916C20.4913 7.916 21.0233 8.014 21.4713 8.21C21.9193 8.39667 22.2646 8.64867 22.5073 8.966L21.5273 9.974C21.3406 9.76867 21.1073 9.60067 20.8273 9.47C20.5566 9.33933 20.272 9.274 19.9733 9.274C19.6933 9.274 19.446 9.33 19.2313 9.442C19.0166 9.554 18.9093 9.736 18.9093 9.988C18.9093 10.128 18.9466 10.2447 19.0213 10.338C19.1053 10.4313 19.2173 10.5153 19.3573 10.59C19.5066 10.6553 19.6793 10.716 19.8753 10.772C20.0713 10.8187 20.286 10.87 20.5193 10.926C20.7806 10.9913 21.0326 11.0753 21.2753 11.178C21.5273 11.2807 21.742 11.416 21.9193 11.584C22.106 11.7427 22.2553 11.934 22.3673 12.158C22.4793 12.382 22.5353 12.6527 22.5353 12.97C22.5353 13.334 22.4606 13.6513 22.3113 13.922C22.1713 14.1927 21.9706 14.4213 21.7093 14.608C21.4573 14.7947 21.154 14.9347 20.7993 15.028C20.454 15.1213 20.0806 15.168 19.6793 15.168C18.998 15.168 18.4193 15.07 17.9433 14.874C17.4766 14.678 17.122 14.426 16.8793 14.118L17.8313 13.096C18.046 13.32 18.3073 13.4973 18.6153 13.628C18.9233 13.7493 19.2593 13.81 19.6233 13.81C19.95 13.81 20.2206 13.7493 20.4353 13.628C20.6593 13.4973 20.7713 13.3013 20.7713 13.04ZM26.6485 15.154C25.8831 15.154 25.3231 14.9487 24.9685 14.538C24.6231 14.1273 24.4505 13.5067 24.4505 12.676V9.498H23.3585V8.084H24.4505V6.208H26.2005V8.084H28.2165V9.498H26.2005V12.662C26.2005 13.026 26.2658 13.2873 26.3965 13.446C26.5271 13.5953 26.7231 13.67 26.9845 13.67C27.1711 13.67 27.3391 13.6373 27.4885 13.572C27.6378 13.4973 27.7685 13.4087 27.8805 13.306L28.5105 14.51C28.2771 14.734 28.0111 14.8973 27.7125 15C27.4138 15.1027 27.0591 15.154 26.6485 15.154ZM32.6723 15.168C32.0936 15.168 31.5849 15.0747 31.1463 14.888C30.7169 14.692 30.3529 14.4307 30.0543 14.104C29.7649 13.7773 29.5456 13.3947 29.3963 12.956C29.2563 12.508 29.1863 12.0367 29.1863 11.542C29.1863 11.0473 29.2563 10.5807 29.3963 10.142C29.5456 9.70333 29.7649 9.32067 30.0543 8.994C30.3529 8.658 30.7169 8.39667 31.1463 8.21C31.5849 8.014 32.0936 7.916 32.6723 7.916C33.2509 7.916 33.7549 8.014 34.1843 8.21C34.6229 8.39667 34.9823 8.658 35.2623 8.994C35.5516 9.32067 35.7663 9.70333 35.9063 10.142C36.0556 10.5807 36.1303 11.0473 36.1303 11.542C36.1303 12.0367 36.0556 12.508 35.9063 12.956C35.7663 13.3947 35.5516 13.7773 35.2623 14.104C34.9823 14.4307 34.6229 14.692 34.1843 14.888C33.7549 15.0747 33.2509 15.168 32.6723 15.168ZM30.9923 11.542C30.9923 12.2233 31.1369 12.76 31.4263 13.152C31.7249 13.544 32.1403 13.74 32.6723 13.74C33.1949 13.74 33.6009 13.544 33.8903 13.152C34.1889 12.76 34.3383 12.2233 34.3383 11.542C34.3383 10.8607 34.1889 10.324 33.8903 9.932C33.6009 9.54 33.1949 9.344 32.6723 9.344C32.1403 9.344 31.7249 9.54 31.4263 9.932C31.1369 10.324 30.9923 10.8607 30.9923 11.542ZM37.4963 8.084H39.1623V9.134H39.2463C39.4236 8.77 39.6709 8.476 39.9883 8.252C40.3149 8.028 40.7116 7.916 41.1783 7.916C42.3169 7.916 43.0496 8.34533 43.3763 9.204C43.5536 8.812 43.8289 8.49933 44.2023 8.266C44.5756 8.03267 45.0143 7.916 45.5183 7.916C46.3583 7.916 46.9743 8.14933 47.3663 8.616C47.7583 9.07333 47.9543 9.76867 47.9543 10.702V15H46.1903V10.996C46.1903 9.932 45.7656 9.4 44.9163 9.4C44.4776 9.4 44.1463 9.54467 43.9223 9.834C43.7076 10.1233 43.6003 10.5387 43.6003 11.08V15H41.8363V10.996C41.8363 10.464 41.7336 10.0673 41.5283 9.806C41.3323 9.53533 41.0103 9.4 40.5623 9.4C40.1423 9.4 39.8203 9.54467 39.5963 9.834C39.3723 10.1233 39.2603 10.5387 39.2603 11.08V15H37.4963V8.084ZM52.7013 15.168C52.1226 15.168 51.6186 15.0747 51.1893 14.888C50.7599 14.7013 50.3959 14.4447 50.0973 14.118C49.8079 13.782 49.5886 13.3947 49.4393 12.956C49.2993 12.5173 49.2293 12.046 49.2293 11.542C49.2293 11.0287 49.2993 10.5527 49.4393 10.114C49.5793 9.666 49.7893 9.28333 50.0693 8.966C50.3493 8.63933 50.6993 8.38267 51.1193 8.196C51.5393 8.00933 52.0293 7.916 52.5893 7.916C53.1493 7.916 53.6393 8.00467 54.0593 8.182C54.4793 8.35933 54.8246 8.60667 55.0953 8.924C55.3659 9.24133 55.5666 9.61933 55.6973 10.058C55.8373 10.4873 55.9073 10.9587 55.9073 11.472C55.9073 11.5653 55.8979 11.6727 55.8793 11.794C55.8699 11.9153 55.8559 12.0133 55.8373 12.088H51.0213C51.0493 12.34 51.1146 12.5687 51.2173 12.774C51.3293 12.97 51.4646 13.138 51.6233 13.278C51.7913 13.418 51.9733 13.5253 52.1693 13.6C52.3746 13.6653 52.5846 13.698 52.7993 13.698C53.2006 13.698 53.5366 13.628 53.8073 13.488C54.0779 13.348 54.2973 13.1707 54.4653 12.956L55.4593 13.992C55.1979 14.3467 54.8339 14.6313 54.3673 14.846C53.9006 15.0607 53.3453 15.168 52.7013 15.168ZM52.5893 9.26C52.1413 9.26 51.7773 9.40467 51.4973 9.694C51.2173 9.98333 51.0539 10.366 51.0073 10.842H54.1433C54.0966 10.366 53.9333 9.98333 53.6533 9.694C53.3826 9.40467 53.0279 9.26 52.5893 9.26ZM57.2795 8.084H58.9455V9.246H59.0295C59.1695 8.84467 59.3841 8.52267 59.6735 8.28C59.9721 8.03733 60.3455 7.916 60.7935 7.916C61.1388 7.916 61.4608 7.972 61.7595 8.084L61.2695 9.694C61.1668 9.62867 61.0455 9.582 60.9055 9.554C60.7655 9.526 60.6301 9.512 60.4995 9.512C60.0701 9.512 59.7201 9.66133 59.4495 9.96C59.1788 10.2493 59.0435 10.66 59.0435 11.192V15H57.2795V8.084ZM69.4705 13.04C69.4705 12.9 69.4285 12.7833 69.3445 12.69C69.2698 12.5873 69.1578 12.5033 69.0085 12.438C68.8685 12.3727 68.7005 12.3167 68.5045 12.27C68.3085 12.214 68.0938 12.158 67.8605 12.102C67.5898 12.0367 67.3332 11.9527 67.0905 11.85C66.8478 11.7473 66.6332 11.6167 66.4465 11.458C66.2692 11.29 66.1245 11.094 66.0125 10.87C65.9005 10.646 65.8445 10.3753 65.8445 10.058C65.8445 9.71267 65.9098 9.40933 66.0405 9.148C66.1805 8.87733 66.3718 8.65333 66.6145 8.476C66.8572 8.28933 67.1465 8.14933 67.4825 8.056C67.8185 7.96267 68.1825 7.916 68.5745 7.916C69.1905 7.916 69.7225 8.014 70.1705 8.21C70.6185 8.39667 70.9638 8.64867 71.2065 8.966L70.2265 9.974C70.0398 9.76867 69.8065 9.60067 69.5265 9.47C69.2558 9.33933 68.9712 9.274 68.6725 9.274C68.3925 9.274 68.1452 9.33 67.9305 9.442C67.7158 9.554 67.6085 9.736 67.6085 9.988C67.6085 10.128 67.6458 10.2447 67.7205 10.338C67.8045 10.4313 67.9165 10.5153 68.0565 10.59C68.2058 10.6553 68.3785 10.716 68.5745 10.772C68.7705 10.8187 68.9852 10.87 69.2185 10.926C69.4798 10.9913 69.7318 11.0753 69.9745 11.178C70.2265 11.2807 70.4412 11.416 70.6185 11.584C70.8052 11.7427 70.9545 11.934 71.0665 12.158C71.1785 12.382 71.2345 12.6527 71.2345 12.97C71.2345 13.334 71.1598 13.6513 71.0105 13.922C70.8705 14.1927 70.6698 14.4213 70.4085 14.608C70.1565 14.7947 69.8532 14.9347 69.4985 15.028C69.1532 15.1213 68.7798 15.168 68.3785 15.168C67.6972 15.168 67.1185 15.07 66.6425 14.874C66.1758 14.678 65.8212 14.426 65.5785 14.118L66.5305 13.096C66.7452 13.32 67.0065 13.4973 67.3145 13.628C67.6225 13.7493 67.9585 13.81 68.3225 13.81C68.6492 13.81 68.9198 13.7493 69.1345 13.628C69.3585 13.4973 69.4705 13.3013 69.4705 13.04ZM74.5054 15.168C74.1974 15.168 73.9034 15.1167 73.6234 15.014C73.3527 14.9207 73.1147 14.7853 72.9094 14.608C72.704 14.4213 72.5407 14.1973 72.4194 13.936C72.3074 13.6747 72.2514 13.3807 72.2514 13.054C72.2514 12.438 72.4707 11.948 72.9094 11.584C73.348 11.22 74.0154 11.0147 74.9114 10.968L76.5354 10.87V10.59C76.5354 10.142 76.4 9.834 76.1294 9.666C75.8587 9.498 75.5227 9.414 75.1214 9.414C74.804 9.414 74.5054 9.47467 74.2254 9.596C73.9454 9.708 73.7354 9.848 73.5954 10.016L72.6014 9.008C72.844 8.69067 73.194 8.42933 73.6514 8.224C74.118 8.01867 74.6874 7.916 75.3594 7.916C76.3487 7.916 77.086 8.14467 77.5714 8.602C78.0567 9.05933 78.2994 9.68 78.2994 10.464V15H76.6334V13.894H76.5494C76.372 14.286 76.1154 14.5987 75.7794 14.832C75.4434 15.056 75.0187 15.168 74.5054 15.168ZM75.0234 13.894C75.4714 13.894 75.8354 13.768 76.1154 13.516C76.3954 13.2547 76.5354 12.8907 76.5354 12.424V11.962L75.1214 12.074C74.3934 12.1207 74.0294 12.4287 74.0294 12.998C74.0294 13.2873 74.1227 13.5113 74.3094 13.67C74.496 13.8193 74.734 13.894 75.0234 13.894ZM82.6895 15.154C81.9241 15.154 81.3641 14.9487 81.0095 14.538C80.6641 14.1273 80.4915 13.5067 80.4915 12.676V9.498H79.3995V8.084H80.4915V6.208H82.2415V8.084H84.2575V9.498H82.2415V12.662C82.2415 13.026 82.3068 13.2873 82.4375 13.446C82.5681 13.5953 82.7641 13.67 83.0255 13.67C83.2121 13.67 83.3801 13.6373 83.5295 13.572C83.6788 13.4973 83.8095 13.4087 83.9215 13.306L84.5515 14.51C84.3181 14.734 84.0521 14.8973 83.7535 15C83.4548 15.1027 83.1001 15.154 82.6895 15.154ZM87.6763 6.166C87.6763 6.42733 87.583 6.66067 87.3963 6.866C87.219 7.07133 86.967 7.174 86.6403 7.174C86.3043 7.174 86.0476 7.07133 85.8703 6.866C85.693 6.66067 85.6043 6.42733 85.6043 6.166C85.6043 5.89533 85.693 5.662 85.8703 5.466C86.0476 5.26067 86.3043 5.158 86.6403 5.158C86.967 5.158 87.219 5.26067 87.3963 5.466C87.583 5.662 87.6763 5.89533 87.6763 6.166ZM85.7443 8.084H87.5083V15H85.7443V8.084ZM92.6854 13.04C92.6854 12.9 92.6434 12.7833 92.5594 12.69C92.4847 12.5873 92.3727 12.5033 92.2234 12.438C92.0834 12.3727 91.9154 12.3167 91.7194 12.27C91.5234 12.214 91.3087 12.158 91.0754 12.102C90.8047 12.0367 90.548 11.9527 90.3054 11.85C90.0627 11.7473 89.848 11.6167 89.6614 11.458C89.484 11.29 89.3394 11.094 89.2274 10.87C89.1154 10.646 89.0594 10.3753 89.0594 10.058C89.0594 9.71267 89.1247 9.40933 89.2554 9.148C89.3954 8.87733 89.5867 8.65333 89.8294 8.476C90.072 8.28933 90.3614 8.14933 90.6974 8.056C91.0334 7.96267 91.3974 7.916 91.7894 7.916C92.4054 7.916 92.9374 8.014 93.3854 8.21C93.8334 8.39667 94.1787 8.64867 94.4214 8.966L93.4414 9.974C93.2547 9.76867 93.0214 9.60067 92.7414 9.47C92.4707 9.33933 92.186 9.274 91.8874 9.274C91.6074 9.274 91.36 9.33 91.1454 9.442C90.9307 9.554 90.8234 9.736 90.8234 9.988C90.8234 10.128 90.8607 10.2447 90.9354 10.338C91.0194 10.4313 91.1314 10.5153 91.2714 10.59C91.4207 10.6553 91.5934 10.716 91.7894 10.772C91.9854 10.8187 92.2 10.87 92.4334 10.926C92.6947 10.9913 92.9467 11.0753 93.1894 11.178C93.4414 11.2807 93.656 11.416 93.8334 11.584C94.02 11.7427 94.1694 11.934 94.2814 12.158C94.3934 12.382 94.4494 12.6527 94.4494 12.97C94.4494 13.334 94.3747 13.6513 94.2254 13.922C94.0854 14.1927 93.8847 14.4213 93.6234 14.608C93.3714 14.7947 93.068 14.9347 92.7134 15.028C92.368 15.1213 91.9947 15.168 91.5934 15.168C90.912 15.168 90.3334 15.07 89.8574 14.874C89.3907 14.678 89.036 14.426 88.7934 14.118L89.7454 13.096C89.96 13.32 90.2214 13.4973 90.5294 13.628C90.8374 13.7493 91.1734 13.81 91.5374 13.81C91.864 13.81 92.1347 13.7493 92.3494 13.628C92.5734 13.4973 92.6854 13.3013 92.6854 13.04ZM96.3365 9.498H95.2445V8.084H96.3365V7.188C96.3365 6.44133 96.5372 5.83933 96.9385 5.382C97.3398 4.91533 97.9558 4.682 98.7865 4.682C98.9825 4.682 99.1738 4.70067 99.3605 4.738C99.5472 4.77533 99.7105 4.82667 99.8505 4.892L99.3045 6.25C99.2578 6.21267 99.1832 6.18467 99.0805 6.166C98.9872 6.14733 98.9032 6.138 98.8285 6.138C98.5952 6.138 98.4132 6.222 98.2825 6.39C98.1612 6.54867 98.1005 6.81 98.1005 7.174V8.084H99.8785V9.498H98.1005V15H96.3365V9.498ZM102.601 15.168C102.293 15.168 101.999 15.1167 101.719 15.014C101.448 14.9207 101.21 14.7853 101.005 14.608C100.8 14.4213 100.636 14.1973 100.515 13.936C100.403 13.6747 100.347 13.3807 100.347 13.054C100.347 12.438 100.566 11.948 101.005 11.584C101.444 11.22 102.111 11.0147 103.007 10.968L104.631 10.87V10.59C104.631 10.142 104.496 9.834 104.225 9.666C103.954 9.498 103.618 9.414 103.217 9.414C102.9 9.414 102.601 9.47467 102.321 9.596C102.041 9.708 101.831 9.848 101.691 10.016L100.697 9.008C100.94 8.69067 101.29 8.42933 101.747 8.224C102.214 8.01867 102.783 7.916 103.455 7.916C104.444 7.916 105.182 8.14467 105.667 8.602C106.152 9.05933 106.395 9.68 106.395 10.464V15H104.729V13.894H104.645C104.468 14.286 104.211 14.5987 103.875 14.832C103.539 15.056 103.114 15.168 102.601 15.168ZM103.119 13.894C103.567 13.894 103.931 13.768 104.211 13.516C104.491 13.2547 104.631 12.8907 104.631 12.424V11.962L103.217 12.074C102.489 12.1207 102.125 12.4287 102.125 12.998C102.125 13.2873 102.218 13.5113 102.405 13.67C102.592 13.8193 102.83 13.894 103.119 13.894ZM111.037 15.168C110.449 15.168 109.941 15.07 109.511 14.874C109.091 14.6687 108.746 14.398 108.475 14.062C108.205 13.726 108.004 13.3433 107.873 12.914C107.743 12.4753 107.677 12.018 107.677 11.542C107.677 11.066 107.738 10.6133 107.859 10.184C107.99 9.74533 108.186 9.358 108.447 9.022C108.718 8.686 109.063 8.42 109.483 8.224C109.903 8.01867 110.403 7.916 110.981 7.916C111.56 7.916 112.05 8.01867 112.451 8.224C112.862 8.42933 113.198 8.69067 113.459 9.008L112.283 10.072C112.125 9.876 111.947 9.72667 111.751 9.624C111.555 9.512 111.308 9.456 111.009 9.456C110.524 9.456 110.146 9.64267 109.875 10.016C109.605 10.38 109.469 10.8887 109.469 11.542C109.469 12.1953 109.609 12.7087 109.889 13.082C110.169 13.446 110.552 13.628 111.037 13.628C111.327 13.628 111.579 13.572 111.793 13.46C112.008 13.348 112.195 13.1893 112.353 12.984L113.515 14.062C113.254 14.3793 112.913 14.6453 112.493 14.86C112.083 15.0653 111.597 15.168 111.037 15.168ZM117.389 15.154C116.623 15.154 116.063 14.9487 115.709 14.538C115.363 14.1273 115.191 13.5067 115.191 12.676V9.498H114.099V8.084H115.191V6.208H116.941V8.084H118.957V9.498H116.941V12.662C116.941 13.026 117.006 13.2873 117.137 13.446C117.267 13.5953 117.463 13.67 117.725 13.67C117.911 13.67 118.079 13.6373 118.229 13.572C118.378 13.4973 118.509 13.4087 118.621 13.306L119.251 14.51C119.017 14.734 118.751 14.8973 118.453 15C118.154 15.1027 117.799 15.154 117.389 15.154ZM122.376 6.166C122.376 6.42733 122.282 6.66067 122.096 6.866C121.918 7.07133 121.666 7.174 121.34 7.174C121.004 7.174 120.747 7.07133 120.57 6.866C120.392 6.66067 120.304 6.42733 120.304 6.166C120.304 5.89533 120.392 5.662 120.57 5.466C120.747 5.26067 121.004 5.158 121.34 5.158C121.666 5.158 121.918 5.26067 122.096 5.466C122.282 5.662 122.376 5.89533 122.376 6.166ZM120.444 8.084H122.208V15H120.444V8.084ZM127.077 15.168C126.498 15.168 125.989 15.0747 125.551 14.888C125.121 14.692 124.757 14.4307 124.459 14.104C124.169 13.7773 123.95 13.3947 123.801 12.956C123.661 12.508 123.591 12.0367 123.591 11.542C123.591 11.0473 123.661 10.5807 123.801 10.142C123.95 9.70333 124.169 9.32067 124.459 8.994C124.757 8.658 125.121 8.39667 125.551 8.21C125.989 8.014 126.498 7.916 127.077 7.916C127.655 7.916 128.159 8.014 128.589 8.21C129.027 8.39667 129.387 8.658 129.667 8.994C129.956 9.32067 130.171 9.70333 130.311 10.142C130.46 10.5807 130.535 11.0473 130.535 11.542C130.535 12.0367 130.46 12.508 130.311 12.956C130.171 13.3947 129.956 13.7773 129.667 14.104C129.387 14.4307 129.027 14.692 128.589 14.888C128.159 15.0747 127.655 15.168 127.077 15.168ZM125.397 11.542C125.397 12.2233 125.541 12.76 125.831 13.152C126.129 13.544 126.545 13.74 127.077 13.74C127.599 13.74 128.005 13.544 128.295 13.152C128.593 12.76 128.743 12.2233 128.743 11.542C128.743 10.8607 128.593 10.324 128.295 9.932C128.005 9.54 127.599 9.344 127.077 9.344C126.545 9.344 126.129 9.54 125.831 9.932C125.541 10.324 125.397 10.8607 125.397 11.542ZM131.901 8.084H133.567V9.204H133.651C133.809 8.83067 134.057 8.52267 134.393 8.28C134.738 8.03733 135.149 7.916 135.625 7.916C136.502 7.916 137.132 8.14933 137.515 8.616C137.907 9.07333 138.103 9.76867 138.103 10.702V15H136.339V11.052C136.339 10.492 136.236 10.0767 136.031 9.806C135.835 9.53533 135.499 9.4 135.023 9.4C134.575 9.4 134.234 9.54933 134.001 9.848C133.777 10.1373 133.665 10.562 133.665 11.122V15H131.901V8.084Z" fill="#242E30"/>
<g clip-path="url(#clip1_1300_232091)">
<path d="M153 1.52344C151.323 1.52344 149.685 2.02058 148.291 2.952C146.897 3.88341 145.81 5.20727 145.169 6.75616C144.527 8.30505 144.359 10.0094 144.686 11.6537C145.013 13.298 145.821 14.8084 147.006 15.9938C148.192 17.1793 149.702 17.9866 151.346 18.3137C152.991 18.6408 154.695 18.4729 156.244 17.8313C157.793 17.1898 159.117 16.1033 160.048 14.7093C160.979 13.3154 161.477 11.6765 161.477 10C161.474 7.75276 160.58 5.5984 158.991 4.00936C157.402 2.42032 155.247 1.52633 153 1.52344ZM153 16.8359C151.648 16.8359 150.326 16.435 149.202 15.6839C148.078 14.9327 147.202 13.8651 146.684 12.616C146.167 11.3669 146.032 9.99242 146.295 8.66637C146.559 7.34033 147.21 6.12229 148.166 5.16626C149.122 4.21024 150.34 3.55918 151.666 3.29541C152.992 3.03165 154.367 3.16702 155.616 3.68442C156.865 4.20181 157.933 5.07799 158.684 6.20216C159.435 7.32632 159.836 8.64798 159.836 10C159.836 10.8977 159.659 11.7866 159.316 12.616C158.972 13.4454 158.469 14.199 157.834 14.8337C157.199 15.4685 156.445 15.972 155.616 16.3156C154.787 16.6591 153.898 16.8359 153 16.8359ZM155.559 7.8125C155.534 8.3747 155.325 8.91297 154.963 9.344C154.601 9.77502 154.107 10.0748 153.558 10.1969L153.448 11.0938H152.355L152.234 9.31094C153.263 9.19062 154.028 8.69844 154.028 7.88906C154.027 7.75303 153.996 7.61892 153.938 7.49577C153.88 7.37263 153.797 7.26332 153.693 7.17521C153.589 7.0871 153.468 7.02224 153.337 6.98501C153.206 6.94778 153.069 6.93904 152.934 6.95937C152.533 6.94636 152.142 7.08721 151.841 7.35313L150.9 6.40156C151.178 6.13461 151.508 5.92786 151.869 5.79424C152.23 5.66062 152.615 5.60301 153 5.625C153.315 5.58349 153.635 5.60864 153.939 5.69884C154.244 5.78904 154.526 5.94226 154.767 6.14855C155.008 6.35484 155.204 6.60959 155.34 6.89625C155.477 7.18292 155.551 7.49509 155.559 7.8125ZM153.963 13.2812C153.963 13.4716 153.906 13.6577 153.8 13.816C153.695 13.9743 153.544 14.0976 153.368 14.1705C153.192 14.2433 152.999 14.2624 152.812 14.2253C152.626 14.1881 152.454 14.0964 152.319 13.9618C152.185 13.8272 152.093 13.6557 152.056 13.469C152.019 13.2823 152.038 13.0888 152.111 12.9129C152.184 12.737 152.307 12.5867 152.465 12.481C152.624 12.3752 152.81 12.3187 153 12.3187C153.254 12.3216 153.498 12.4239 153.677 12.6038C153.857 12.7837 153.96 13.0269 153.963 13.2812Z" fill="#242E30"/>
</g>
</g>
<path d="M264.252 6.908H259.688V5.9H265.596V6.796L261.62 15H260.332L264.252 6.908ZM270.715 15.168C270.08 15.168 269.557 15.0607 269.147 14.846C268.736 14.6313 268.377 14.356 268.069 14.02L268.783 13.306C269.007 13.5393 269.273 13.7353 269.581 13.894C269.889 14.0527 270.253 14.132 270.673 14.132C271.261 14.132 271.727 13.978 272.073 13.67C272.427 13.3527 272.605 12.9 272.605 12.312C272.605 11.7147 272.423 11.262 272.059 10.954C271.695 10.6367 271.191 10.478 270.547 10.478H269.119L268.671 10.03V5.9H273.319V6.908H269.791V9.484H270.771C271.275 9.484 271.718 9.554 272.101 9.694C272.483 9.834 272.801 10.03 273.053 10.282C273.305 10.5247 273.496 10.8187 273.627 11.164C273.757 11.5093 273.823 11.892 273.823 12.312C273.823 12.704 273.757 13.0727 273.627 13.418C273.505 13.7633 273.314 14.0667 273.053 14.328C272.801 14.58 272.479 14.7853 272.087 14.944C271.704 15.0933 271.247 15.168 270.715 15.168ZM284.093 5.9H285.269L279.109 15H277.933L284.093 5.9ZM278.479 10.744C278.087 10.744 277.742 10.674 277.443 10.534C277.154 10.394 276.916 10.2073 276.729 9.974C276.542 9.74067 276.402 9.47467 276.309 9.176C276.216 8.868 276.169 8.55533 276.169 8.238C276.169 7.92067 276.216 7.61267 276.309 7.314C276.402 7.006 276.542 6.73533 276.729 6.502C276.916 6.26867 277.154 6.082 277.443 5.942C277.742 5.802 278.087 5.732 278.479 5.732C278.88 5.732 279.226 5.802 279.515 5.942C279.804 6.082 280.042 6.26867 280.229 6.502C280.416 6.73533 280.556 7.006 280.649 7.314C280.742 7.61267 280.789 7.92067 280.789 8.238C280.789 8.55533 280.742 8.868 280.649 9.176C280.556 9.47467 280.416 9.74067 280.229 9.974C280.042 10.2073 279.804 10.394 279.515 10.534C279.226 10.674 278.88 10.744 278.479 10.744ZM278.479 9.89C278.862 9.89 279.174 9.74533 279.417 9.456C279.669 9.15733 279.795 8.75133 279.795 8.238C279.795 7.72467 279.669 7.32333 279.417 7.034C279.174 6.73533 278.862 6.586 278.479 6.586C278.096 6.586 277.779 6.73533 277.527 7.034C277.284 7.32333 277.163 7.72467 277.163 8.238C277.163 8.75133 277.284 9.15733 277.527 9.456C277.779 9.74533 278.096 9.89 278.479 9.89ZM284.723 15.168C284.331 15.168 283.986 15.098 283.687 14.958C283.398 14.818 283.16 14.6313 282.973 14.398C282.786 14.1647 282.646 13.8987 282.553 13.6C282.46 13.292 282.413 12.9793 282.413 12.662C282.413 12.3447 282.46 12.0367 282.553 11.738C282.646 11.43 282.786 11.1593 282.973 10.926C283.16 10.6927 283.398 10.506 283.687 10.366C283.986 10.226 284.331 10.156 284.723 10.156C285.124 10.156 285.47 10.226 285.759 10.366C286.048 10.506 286.286 10.6927 286.473 10.926C286.66 11.1593 286.8 11.43 286.893 11.738C286.986 12.0367 287.033 12.3447 287.033 12.662C287.033 12.9793 286.986 13.292 286.893 13.6C286.8 13.8987 286.66 14.1647 286.473 14.398C286.286 14.6313 286.048 14.818 285.759 14.958C285.47 15.098 285.124 15.168 284.723 15.168ZM284.723 14.314C285.106 14.314 285.418 14.1693 285.661 13.88C285.913 13.5813 286.039 13.1753 286.039 12.662C286.039 12.1487 285.913 11.7473 285.661 11.458C285.418 11.1593 285.106 11.01 284.723 11.01C284.34 11.01 284.023 11.1593 283.771 11.458C283.528 11.7473 283.407 12.1487 283.407 12.662C283.407 13.1753 283.528 13.5813 283.771 13.88C284.023 14.1693 284.34 14.314 284.723 14.314Z" fill="#3C4C4F"/>
<rect y="34" width="288" height="4" rx="2" fill="#F5F3F1"/>
<path d="M0 36C0 34.8954 0.895431 34 2 34H214C215.105 34 216 34.8954 216 36C216 37.1046 215.105 38 214 38H2.00001C0.895436 38 0 37.1046 0 36Z" fill="#F36805"/>
<defs>
<clipPath id="clip0_1300_232091">
<rect width="163" height="20" fill="white"/>
</clipPath>
<clipPath id="clip1_1300_232091">
<rect width="17.5" height="17.5" fill="white" transform="translate(144.25 1.25)"/>
</clipPath>
</defs>
</svg>
