<svg width="326" height="92" viewBox="0 0 326 92" fill="none" xmlns="http://www.w3.org/2000/svg">
<path d="M1.88567 13.488C1.88567 13.1147 1.95101 12.788 2.08167 12.508C2.21234 12.2187 2.38967 11.9573 2.61367 11.724C2.84701 11.4813 3.11767 11.2573 3.42567 11.052C3.74301 10.8467 4.08367 10.6367 4.44767 10.422C4.73701 10.2447 4.99367 10.0813 5.21767 9.932C5.44167 9.77333 5.62834 9.61 5.77767 9.442C5.92701 9.274 6.03901 9.09667 6.11367 8.91C6.18834 8.72333 6.22567 8.50867 6.22567 8.266C6.22567 7.77133 6.06701 7.398 5.74967 7.146C5.44167 6.88467 5.04501 6.754 4.55967 6.754C4.07434 6.754 3.65434 6.852 3.29967 7.048C2.94501 7.23467 2.64634 7.48667 2.40367 7.804L1.75967 7.132C2.03967 6.712 2.40834 6.376 2.86567 6.124C3.32301 5.86267 3.87367 5.732 4.51767 5.732C4.99367 5.732 5.41367 5.79733 5.77767 5.928C6.14167 6.04933 6.44501 6.222 6.68767 6.446C6.93967 6.66067 7.12634 6.922 7.24767 7.23C7.37834 7.52867 7.44367 7.85533 7.44367 8.21C7.44367 8.61133 7.37367 8.966 7.23367 9.274C7.09367 9.582 6.90701 9.862 6.67367 10.114C6.44034 10.366 6.16967 10.5947 5.86167 10.8C5.56301 10.996 5.24567 11.1873 4.90967 11.374C4.61101 11.542 4.34501 11.7007 4.11167 11.85C3.87834 11.9993 3.68234 12.158 3.52367 12.326C3.37434 12.494 3.25767 12.6807 3.17367 12.886C3.09901 13.0913 3.06167 13.334 3.06167 13.614V13.992H7.66767V15H1.88567V13.488ZM12.7302 15.168C12.0862 15.168 11.5635 15.0747 11.1622 14.888C10.7609 14.692 10.4249 14.4447 10.1542 14.146L10.8542 13.404C11.0875 13.6467 11.3489 13.8287 11.6382 13.95C11.9369 14.0713 12.2869 14.132 12.6882 14.132C13.4069 14.132 13.9762 13.81 14.3962 13.166C14.8255 12.5127 15.0402 11.5513 15.0402 10.282H14.9562C14.7789 10.6647 14.5035 10.9913 14.1302 11.262C13.7569 11.5233 13.2809 11.654 12.7022 11.654C12.3475 11.654 12.0022 11.5933 11.6662 11.472C11.3302 11.3507 11.0315 11.1687 10.7702 10.926C10.5089 10.6833 10.2942 10.3847 10.1262 10.03C9.96754 9.67533 9.8882 9.26467 9.8882 8.798C9.8882 8.36867 9.95354 7.96733 10.0842 7.594C10.2242 7.22067 10.4249 6.89867 10.6862 6.628C10.9475 6.348 11.2695 6.12867 11.6522 5.97C12.0349 5.81133 12.4689 5.732 12.9542 5.732C13.9995 5.732 14.7929 6.10533 15.3342 6.852C15.8849 7.58933 16.1602 8.7 16.1602 10.184C16.1602 11.7987 15.8522 13.0353 15.2362 13.894C14.6202 14.7433 13.7849 15.168 12.7302 15.168ZM12.9402 10.632C13.5189 10.632 13.9715 10.464 14.2982 10.128C14.6249 9.78267 14.7882 9.316 14.7882 8.728C14.7882 8.15867 14.6249 7.692 14.2982 7.328C13.9809 6.95467 13.5282 6.768 12.9402 6.768C12.3522 6.768 11.8995 6.95467 11.5822 7.328C11.2649 7.692 11.1062 8.15867 11.1062 8.728C11.1062 9.316 11.2649 9.78267 11.5822 10.128C11.9089 10.464 12.3615 10.632 12.9402 10.632ZM20.9287 4.85H21.9787L18.4367 16.54H17.3867L20.9287 4.85ZM26.1169 15.168C25.4823 15.168 24.9596 15.0607 24.5489 14.846C24.1383 14.6313 23.7789 14.356 23.4709 14.02L24.1849 13.306C24.4089 13.5393 24.6749 13.7353 24.9829 13.894C25.2909 14.0527 25.6549 14.132 26.0749 14.132C26.6629 14.132 27.1296 13.978 27.4749 13.67C27.8296 13.3527 28.0069 12.9 28.0069 12.312C28.0069 11.7147 27.8249 11.262 27.4609 10.954C27.0969 10.6367 26.5929 10.478 25.9489 10.478H24.5209L24.0729 10.03V5.9H28.7209V6.908H25.1929V9.484H26.1729C26.6769 9.484 27.1203 9.554 27.5029 9.694C27.8856 9.834 28.2029 10.03 28.4549 10.282C28.7069 10.5247 28.8983 10.8187 29.0289 11.164C29.1596 11.5093 29.2249 11.892 29.2249 12.312C29.2249 12.704 29.1596 13.0727 29.0289 13.418C28.9076 13.7633 28.7163 14.0667 28.4549 14.328C28.2029 14.58 27.8809 14.7853 27.4889 14.944C27.1063 15.0933 26.6489 15.168 26.1169 15.168ZM34.8055 15.168C34.2268 15.168 33.7275 15.0467 33.3075 14.804C32.8968 14.5613 32.5561 14.23 32.2855 13.81C32.0241 13.3807 31.8281 12.8813 31.6975 12.312C31.5761 11.7333 31.5155 11.1127 31.5155 10.45C31.5155 9.78733 31.5761 9.17133 31.6975 8.602C31.8281 8.02333 32.0241 7.524 32.2855 7.104C32.5561 6.67467 32.8968 6.33867 33.3075 6.096C33.7275 5.85333 34.2268 5.732 34.8055 5.732C35.3841 5.732 35.8788 5.85333 36.2895 6.096C36.7095 6.33867 37.0501 6.67467 37.3115 7.104C37.5821 7.524 37.7781 8.02333 37.8995 8.602C38.0301 9.17133 38.0955 9.78733 38.0955 10.45C38.0955 11.1127 38.0301 11.7333 37.8995 12.312C37.7781 12.8813 37.5821 13.3807 37.3115 13.81C37.0501 14.23 36.7095 14.5613 36.2895 14.804C35.8788 15.0467 35.3841 15.168 34.8055 15.168ZM34.8055 14.16C35.1508 14.16 35.4541 14.076 35.7155 13.908C35.9768 13.7307 36.1915 13.4833 36.3595 13.166C36.5368 12.8393 36.6675 12.4473 36.7515 11.99C36.8355 11.5327 36.8775 11.0193 36.8775 10.45C36.8775 9.88067 36.8355 9.36733 36.7515 8.91C36.6675 8.45267 36.5368 8.06533 36.3595 7.748C36.1915 7.42133 35.9768 7.174 35.7155 7.006C35.4541 6.82867 35.1508 6.74 34.8055 6.74C34.4601 6.74 34.1568 6.82867 33.8955 7.006C33.6435 7.174 33.4288 7.42133 33.2515 7.748C33.0835 8.06533 32.9528 8.45267 32.8595 8.91C32.7755 9.36733 32.7335 9.88067 32.7335 10.45C32.7335 11.0193 32.7755 11.5327 32.8595 11.99C32.9528 12.4473 33.0835 12.8393 33.2515 13.166C33.4288 13.4833 33.6435 13.7307 33.8955 13.908C34.1568 14.076 34.4601 14.16 34.8055 14.16Z" fill="#3C4C4F"/>
<path d="M175.045 6.908H176.235V12.27H175.045V6.908ZM182.296 7.916H177.788V5.13H178.964V6.908H183.598V7.86L180.896 15H179.594L182.296 7.916ZM185.128 13.334C185.128 12.9793 185.17 12.6293 185.254 12.284C185.338 11.9387 185.459 11.6213 185.618 11.332C185.777 11.0333 185.973 10.7673 186.206 10.534C186.439 10.2913 186.705 10.1 187.004 9.96L185.044 6.908H186.346L188.726 10.646C189.202 10.5153 189.589 10.226 189.888 9.778C190.187 9.32067 190.336 8.742 190.336 8.042V6.908H191.526V8.014C191.526 8.406 191.475 8.784 191.372 9.148C191.279 9.512 191.139 9.85267 190.952 10.17C190.775 10.478 190.551 10.7533 190.28 10.996C190.019 11.2293 189.72 11.4067 189.384 11.528L191.596 15H190.308L187.634 10.814C187.233 11.0007 186.911 11.3133 186.668 11.752C186.425 12.1813 186.304 12.7087 186.304 13.334V15H185.128V13.334ZM193.165 13.992H195.419V9.358C195.419 8.80733 195.33 8.42933 195.153 8.224C194.975 8.01867 194.639 7.916 194.145 7.916H193.235V6.908H194.229C195.05 6.908 195.647 7.09467 196.021 7.468C196.403 7.832 196.595 8.462 196.595 9.358V15H193.165V13.992ZM198.932 6.908H200.122V15H198.932V6.908ZM202.539 6.908H203.729V12.27H202.539V6.908ZM205.646 14.006H210.084L205.576 6.908H206.878L209.426 10.996C209.856 10.828 210.201 10.5247 210.462 10.086C210.733 9.638 210.868 9.092 210.868 8.448V6.908H212.058V8.42C212.058 8.784 212.012 9.14333 211.918 9.498C211.834 9.85267 211.708 10.1793 211.54 10.478C211.372 10.7767 211.162 11.0427 210.91 11.276C210.668 11.5093 210.388 11.696 210.07 11.836L212.128 15H205.646V14.006ZM216.43 15.168C216.122 15.168 215.814 15.1447 215.506 15.098C215.198 15.0607 214.913 15.014 214.652 14.958C214.4 14.902 214.18 14.8507 213.994 14.804C213.816 14.748 213.695 14.7107 213.63 14.692L214.008 13.628C214.101 13.6747 214.227 13.726 214.386 13.782C214.554 13.838 214.74 13.894 214.946 13.95C215.16 14.006 215.394 14.0527 215.646 14.09C215.898 14.1273 216.159 14.146 216.43 14.146C216.962 14.1367 217.41 14.034 217.774 13.838C218.147 13.642 218.446 13.3947 218.67 13.096C218.903 12.788 219.071 12.4473 219.174 12.074C219.276 11.7007 219.328 11.3273 219.328 10.954C219.328 10.4967 219.262 10.072 219.132 9.68C219.001 9.288 218.819 8.952 218.586 8.672C218.352 8.38267 218.072 8.15867 217.746 8C217.419 7.84133 217.06 7.762 216.668 7.762C216.425 7.762 216.187 7.79933 215.954 7.874C215.73 7.93933 215.529 8.042 215.352 8.182C215.184 8.322 215.048 8.504 214.946 8.728C214.843 8.952 214.792 9.218 214.792 9.526C214.792 9.98333 214.908 10.3567 215.142 10.646C215.375 10.9353 215.706 11.08 216.136 11.08C216.322 11.08 216.453 11.0707 216.528 11.052V12.06C216.481 12.0693 216.416 12.0787 216.332 12.088C216.257 12.0973 216.154 12.102 216.024 12.102C215.613 12.102 215.254 12.0367 214.946 11.906C214.647 11.766 214.395 11.5793 214.19 11.346C213.984 11.1127 213.83 10.8467 213.728 10.548C213.625 10.24 213.574 9.918 213.574 9.582C213.574 9.18067 213.644 8.80733 213.784 8.462C213.933 8.10733 214.138 7.804 214.4 7.552C214.67 7.3 214.997 7.104 215.38 6.964C215.772 6.81467 216.21 6.74 216.696 6.74C217.349 6.74 217.914 6.87067 218.39 7.132C218.875 7.384 219.276 7.71533 219.594 8.126C219.911 8.52733 220.144 8.98 220.294 9.484C220.452 9.988 220.532 10.4873 220.532 10.982C220.532 11.4487 220.457 11.9293 220.308 12.424C220.168 12.9093 219.934 13.3573 219.608 13.768C219.29 14.1787 218.87 14.5147 218.348 14.776C217.825 15.0373 217.186 15.168 216.43 15.168ZM222.42 6.908H223.61V15H222.42V6.908ZM225.734 13.334C225.734 12.9793 225.776 12.6293 225.86 12.284C225.944 11.9387 226.065 11.6213 226.224 11.332C226.382 11.0333 226.578 10.7673 226.812 10.534C227.045 10.2913 227.311 10.1 227.61 9.96L225.65 6.908H226.952L229.332 10.646C229.808 10.5153 230.195 10.226 230.494 9.778C230.792 9.32067 230.942 8.742 230.942 8.042V6.908H232.132V8.014C232.132 8.406 232.08 8.784 231.978 9.148C231.884 9.512 231.744 9.85267 231.558 10.17C231.38 10.478 231.156 10.7533 230.886 10.996C230.624 11.2293 230.326 11.4067 229.99 11.528L232.202 15H230.914L228.24 10.814C227.838 11.0007 227.516 11.3133 227.274 11.752C227.031 12.1813 226.91 12.7087 226.91 13.334V15H225.734V13.334Z" fill="#3C4C4F"/>
<g clip-path="url(#clip0_1300_232242)">
<path d="M241.966 6.908H246.082C246.521 6.908 246.922 6.978 247.286 7.118C247.65 7.258 247.963 7.45867 248.224 7.72C248.495 7.972 248.705 8.28 248.854 8.644C249.003 8.99867 249.078 9.39533 249.078 9.834V15H247.216V9.834C247.216 9.386 247.095 9.036 246.852 8.784C246.609 8.52267 246.306 8.392 245.942 8.392H243.814V15H241.966V6.908ZM250.908 6.908H252.77V15H250.908V6.908ZM258.53 8.392H254.05V5.13H255.898V6.908H260.504V8.196L257.774 15H255.898L258.53 8.392ZM266.239 15.168C265.483 15.168 264.825 15.0327 264.265 14.762C263.714 14.482 263.252 14.1227 262.879 13.684C262.515 13.2453 262.24 12.7553 262.053 12.214C261.876 11.6633 261.787 11.1127 261.787 10.562V6.908H263.635V10.562C263.635 11.0287 263.7 11.4487 263.831 11.822C263.962 12.1953 264.144 12.5173 264.377 12.788C264.61 13.0493 264.886 13.2547 265.203 13.404C265.52 13.544 265.866 13.614 266.239 13.614C266.612 13.614 266.958 13.544 267.275 13.404C267.592 13.2547 267.868 13.0493 268.101 12.788C268.334 12.5173 268.516 12.1953 268.647 11.822C268.778 11.4487 268.843 11.0287 268.843 10.562V6.908H270.705V10.562C270.705 11.1127 270.612 11.6633 270.425 12.214C270.248 12.7553 269.972 13.2453 269.599 13.684C269.226 14.1227 268.759 14.482 268.199 14.762C267.648 15.0327 266.995 15.168 266.239 15.168ZM265.315 6.908H267.163V12.144H265.315V6.908ZM272.538 9.568L272.16 6.908H273.924L274.05 7.846H274.078C274.264 7.55667 274.54 7.3 274.904 7.076C275.277 6.852 275.781 6.74 276.416 6.74C276.957 6.74 277.419 6.824 277.802 6.992C278.194 7.16 278.516 7.398 278.768 7.706C279.02 8.014 279.202 8.38267 279.314 8.812C279.435 9.232 279.496 9.694 279.496 10.198V15H275.94V13.516H277.662V10.464C277.662 10.1653 277.629 9.88533 277.564 9.624C277.508 9.35333 277.414 9.12 277.284 8.924C277.162 8.728 276.999 8.574 276.794 8.462C276.588 8.35 276.341 8.294 276.052 8.294C275.492 8.294 275.072 8.49933 274.792 8.91C274.521 9.32067 274.386 9.83867 274.386 10.464V15H272.538V9.568ZM285.614 15.168C285.493 15.168 285.367 15.1633 285.236 15.154C285.106 15.154 284.975 15.1493 284.844 15.14C284.723 15.1307 284.611 15.1213 284.508 15.112C284.415 15.1027 284.34 15.0933 284.284 15.084V13.614C284.452 13.6327 284.616 13.6513 284.774 13.67C284.942 13.6793 285.092 13.684 285.222 13.684C285.68 13.684 285.908 13.3853 285.908 12.788V8.392H284.284V6.908H292.32V15H290.458V8.392H287.77V12.816C287.77 13.1613 287.724 13.4787 287.63 13.768C287.537 14.048 287.397 14.2953 287.21 14.51C287.033 14.7153 286.809 14.8787 286.538 15C286.268 15.112 285.96 15.168 285.614 15.168ZM294.275 6.908H296.137V15H294.275V6.908ZM297.417 6.908H303.941V8.392H302.863V15H301.015V8.392H297.417V6.908ZM305.226 6.908H307.088V15H305.226V6.908ZM308.634 13.516H310.174L308.536 6.908H310.468L312.092 13.474C312.316 13.4367 312.512 13.3527 312.68 13.222C312.858 13.0913 313.002 12.8907 313.114 12.62C313.236 12.3493 313.324 11.9947 313.38 11.556C313.436 11.108 313.464 10.5527 313.464 9.89V6.908H315.312V9.946C315.312 10.898 315.233 11.7007 315.074 12.354C314.925 12.998 314.696 13.516 314.388 13.908C314.09 14.3 313.712 14.58 313.254 14.748C312.806 14.916 312.279 15 311.672 15H308.634V13.516ZM318.03 15.168C317.909 15.168 317.783 15.1633 317.652 15.154C317.522 15.154 317.391 15.1493 317.26 15.14C317.139 15.1307 317.027 15.1213 316.924 15.112C316.831 15.1027 316.756 15.0933 316.7 15.084V13.614C316.868 13.6327 317.032 13.6513 317.19 13.67C317.358 13.6793 317.508 13.684 317.638 13.684C318.096 13.684 318.324 13.3853 318.324 12.788V8.392H316.7V6.908H324.736V15H322.874V8.392H320.186V12.816C320.186 13.1613 320.14 13.4787 320.046 13.768C319.953 14.048 319.813 14.2953 319.626 14.51C319.449 14.7153 319.225 14.8787 318.954 15C318.684 15.112 318.376 15.168 318.03 15.168Z" fill="#242E30"/>
</g>
<g clip-path="url(#clip1_1300_232242)">
<rect y="24" width="326" height="68" rx="12" fill="white"/>
<path d="M15.0724 86.325H14.1449L5.6749 77.855V76.9275L15.0724 86.325Z" fill="#3C4C4F"/>
<path d="M5.6749 76.9275L5.675 76L16 86.325L15.0724 86.325L5.6749 76.9275Z" fill="#3C4C4F"/>
<path d="M9.49877 86.325L5.67502 82.5013V81.5738L10.4263 86.325H9.49877Z" fill="#3C4C4F"/>
<path d="M8.57103 86.325L9.49877 86.325L5.67502 82.5013L5.67479 83.4288L8.57103 86.325Z" fill="#3C4C4F"/>
<path d="M144.375 54.192C144.076 54.192 143.842 54.096 143.671 53.904C143.5 53.712 143.415 53.4933 143.415 53.248C143.415 52.992 143.5 52.7733 143.671 52.592C143.842 52.4 144.076 52.304 144.375 52.304C144.684 52.304 144.919 52.4 145.079 52.592C145.25 52.7733 145.335 52.992 145.335 53.248C145.335 53.4933 145.25 53.712 145.079 53.904C144.919 54.096 144.684 54.192 144.375 54.192ZM153.639 47.904C153.639 47.264 153.49 46.7733 153.191 46.432C152.892 46.08 152.455 45.904 151.879 45.904H147.799V44.752H151.879C152.828 44.752 153.58 45.0187 154.135 45.552C154.7 46.0853 154.983 46.8693 154.983 47.904V54H153.639V47.904ZM147.799 48.56H149.159V54H147.799V48.56ZM161.37 54.192C160.624 54.192 159.973 54.048 159.418 53.76C158.864 53.4613 158.405 53.0827 158.042 52.624C157.68 52.1547 157.408 51.6373 157.226 51.072C157.056 50.496 156.97 49.9253 156.97 49.36C156.97 48.8053 157.056 48.2453 157.226 47.68C157.408 47.104 157.68 46.5867 158.042 46.128C158.405 45.6587 158.864 45.28 159.418 44.992C159.973 44.704 160.624 44.56 161.37 44.56C162.117 44.56 162.762 44.704 163.306 44.992C163.861 45.28 164.32 45.6587 164.682 46.128C165.045 46.5867 165.312 47.104 165.482 47.68C165.664 48.2453 165.754 48.8053 165.754 49.36C165.754 49.9253 165.664 50.496 165.482 51.072C165.312 51.6373 165.045 52.1547 164.682 52.624C164.32 53.0827 163.861 53.4613 163.306 53.76C162.762 54.048 162.117 54.192 161.37 54.192ZM161.37 53.008C161.808 53.008 162.208 52.9173 162.57 52.736C162.944 52.5547 163.264 52.304 163.53 51.984C163.797 51.6533 164.005 51.264 164.154 50.816C164.304 50.368 164.378 49.8827 164.378 49.36C164.378 48.848 164.304 48.3733 164.154 47.936C164.005 47.488 163.797 47.104 163.53 46.784C163.264 46.4533 162.944 46.1973 162.57 46.016C162.208 45.824 161.808 45.728 161.37 45.728C160.933 45.728 160.528 45.824 160.154 46.016C159.792 46.1973 159.477 46.4533 159.21 46.784C158.944 47.104 158.736 47.488 158.586 47.936C158.437 48.3733 158.362 48.848 158.362 49.36C158.362 49.8827 158.437 50.368 158.586 50.816C158.736 51.264 158.944 51.6533 159.21 51.984C159.477 52.304 159.792 52.5547 160.154 52.736C160.528 52.9173 160.933 53.008 161.37 53.008ZM167.828 44.752H169.188V50.88H167.828V44.752ZM171.411 52.848H173.987V47.552C173.987 46.9227 173.886 46.4907 173.683 46.256C173.481 46.0213 173.097 45.904 172.531 45.904H171.491V44.752H172.627C173.566 44.752 174.249 44.9653 174.675 45.392C175.113 45.808 175.331 46.528 175.331 47.552V54H171.411V52.848ZM177.458 52.832H180.05C180.487 52.832 180.893 52.7413 181.266 52.56C181.639 52.368 181.959 52.1173 182.226 51.808C182.493 51.488 182.701 51.12 182.85 50.704C182.999 50.2773 183.074 49.8293 183.074 49.36C183.074 48.9013 182.999 48.464 182.85 48.048C182.701 47.6213 182.493 47.2533 182.226 46.944C181.959 46.624 181.639 46.3733 181.266 46.192C180.893 46 180.487 45.904 180.05 45.904H177.458V44.752H180.05C180.797 44.752 181.447 44.9013 182.002 45.2C182.557 45.488 183.015 45.856 183.378 46.304C183.741 46.752 184.013 47.248 184.194 47.792C184.375 48.336 184.466 48.8587 184.466 49.36C184.466 49.8613 184.375 50.3893 184.194 50.944C184.013 51.488 183.741 51.9893 183.378 52.448C183.015 52.896 182.557 53.2693 182.002 53.568C181.447 53.856 180.797 54 180.05 54H177.458V52.832ZM192.467 47.904C192.467 47.264 192.318 46.7733 192.019 46.432C191.72 46.08 191.283 45.904 190.707 45.904H186.627V44.752H190.707C191.656 44.752 192.408 45.0187 192.963 45.552C193.528 46.0853 193.811 46.8693 193.811 47.904V54H192.467V47.904ZM186.627 48.56H187.987V54H186.627V48.56ZM201.098 54.192C200.821 54.192 200.565 54.1813 200.33 54.16C200.096 54.1493 199.914 54.1387 199.786 54.128V52.96C199.936 52.9813 200.122 53.0027 200.346 53.024C200.57 53.0347 200.73 53.04 200.826 53.04C201.125 53.04 201.349 52.9493 201.498 52.768C201.648 52.5867 201.722 52.2613 201.722 51.792V45.904H199.786V44.752H208.346V54H207.002V45.904H203.082V52C203.082 52.256 203.045 52.5173 202.97 52.784C202.896 53.04 202.778 53.2747 202.618 53.488C202.458 53.6907 202.25 53.8613 201.994 54C201.749 54.128 201.45 54.192 201.098 54.192ZM215.35 45.904H210.198V42.72H211.542V44.752H216.838V45.84L213.75 54H212.262L215.35 45.904ZM218.01 44.752H224.89V45.904H223.562V54H222.218V45.904H218.01V44.752ZM226.255 52.848H230.911V48.592C230.911 47.6213 230.735 46.9333 230.383 46.528C230.042 46.112 229.482 45.904 228.703 45.904H226.255V44.752H228.751C229.946 44.752 230.826 45.072 231.391 45.712C231.967 46.352 232.255 47.312 232.255 48.592V52.848H233.583V54H226.255V52.848ZM243.584 45.904H238.432V42.72H239.776V44.752H245.072V45.84L241.984 54H240.496L243.584 45.904ZM246.693 52.832H249.285C249.722 52.832 250.127 52.7413 250.501 52.56C250.874 52.368 251.194 52.1173 251.461 51.808C251.727 51.488 251.935 51.12 252.085 50.704C252.234 50.2773 252.309 49.8293 252.309 49.36C252.309 48.9013 252.234 48.464 252.085 48.048C251.935 47.6213 251.727 47.2533 251.461 46.944C251.194 46.624 250.874 46.3733 250.501 46.192C250.127 46 249.722 45.904 249.285 45.904H246.693V44.752H249.285C250.031 44.752 250.682 44.9013 251.237 45.2C251.791 45.488 252.25 45.856 252.613 46.304C252.975 46.752 253.247 47.248 253.429 47.792C253.61 48.336 253.701 48.8587 253.701 49.36C253.701 49.8613 253.61 50.3893 253.429 50.944C253.247 51.488 252.975 51.9893 252.613 52.448C252.25 52.896 251.791 53.2693 251.237 53.568C250.682 53.856 250.031 54 249.285 54H246.693V52.832ZM255.862 44.752H257.222V54H255.862V44.752ZM259.649 52.096C259.649 51.6907 259.697 51.2907 259.793 50.896C259.889 50.5013 260.027 50.1387 260.209 49.808C260.39 49.4667 260.614 49.1627 260.881 48.896C261.147 48.6187 261.451 48.4 261.793 48.24L259.553 44.752H261.041L263.761 49.024C264.305 48.8747 264.747 48.544 265.089 48.032C265.43 47.5093 265.601 46.848 265.601 46.048V44.752H266.961V46.016C266.961 46.464 266.902 46.896 266.785 47.312C266.678 47.728 266.518 48.1173 266.305 48.48C266.102 48.832 265.846 49.1467 265.537 49.424C265.238 49.6907 264.897 49.8933 264.513 50.032L267.041 54H265.569L262.513 49.216C262.054 49.4293 261.686 49.7867 261.409 50.288C261.131 50.7787 260.993 51.3813 260.993 52.096V54H259.649V52.096ZM277.045 48.592C277.045 47.6213 276.874 46.9333 276.533 46.528C276.192 46.112 275.632 45.904 274.853 45.904H272.229V44.752H274.885C276.08 44.752 276.96 45.072 277.525 45.712C278.101 46.352 278.389 47.312 278.389 48.592V54H277.045V48.592ZM280.649 52.096C280.649 51.6907 280.697 51.2907 280.793 50.896C280.889 50.5013 281.027 50.1387 281.209 49.808C281.39 49.4667 281.614 49.1627 281.881 48.896C282.147 48.6187 282.451 48.4 282.793 48.24L280.553 44.752H282.041L284.761 49.024C285.305 48.8747 285.747 48.544 286.089 48.032C286.43 47.5093 286.601 46.848 286.601 46.048V44.752H287.961V46.016C287.961 46.464 287.902 46.896 287.785 47.312C287.678 47.728 287.518 48.1173 287.305 48.48C287.102 48.832 286.846 49.1467 286.537 49.424C286.238 49.6907 285.897 49.8933 285.513 50.032L288.041 54H286.569L283.513 49.216C283.054 49.4293 282.686 49.7867 282.409 50.288C282.131 50.7787 281.993 51.3813 281.993 52.096V54H280.649V52.096ZM294.553 54.192C293.774 54.192 293.092 54.0427 292.505 53.744C291.929 53.4453 291.444 53.056 291.049 52.576C290.665 52.096 290.372 51.552 290.169 50.944C289.977 50.336 289.881 49.7173 289.881 49.088V44.752H291.241V49.088C291.241 49.7067 291.326 50.2613 291.497 50.752C291.678 51.2427 291.918 51.664 292.217 52.016C292.516 52.3573 292.862 52.6187 293.257 52.8C293.662 52.9813 294.094 53.072 294.553 53.072C295.012 53.072 295.438 52.9813 295.833 52.8C296.238 52.6187 296.59 52.3573 296.889 52.016C297.188 51.664 297.422 51.2427 297.593 50.752C297.774 50.2613 297.865 49.7067 297.865 49.088V44.752H299.209V49.088C299.209 49.7173 299.108 50.336 298.905 50.944C298.713 51.552 298.42 52.096 298.025 52.576C297.641 53.056 297.156 53.4453 296.569 53.744C295.993 54.0427 295.321 54.192 294.553 54.192ZM293.881 44.752H295.209V51.152H293.881V44.752ZM307.405 47.904C307.405 47.264 307.255 46.7733 306.957 46.432C306.658 46.08 306.221 45.904 305.645 45.904H301.565V44.752H305.645C306.594 44.752 307.346 45.0187 307.901 45.552C308.466 46.0853 308.749 46.8693 308.749 47.904V54H307.405V47.904ZM301.565 48.56H302.925V54H301.565V48.56Z" fill="#242E30"/>
</g>
<rect x="0.5" y="24.5" width="325" height="67" rx="11.5" stroke="#797876"/>
<defs>
<clipPath id="clip0_1300_232242">
<rect width="85" height="20" fill="white" transform="translate(241)"/>
</clipPath>
<clipPath id="clip1_1300_232242">
<rect y="24" width="326" height="68" rx="12" fill="white"/>
</clipPath>
</defs>
</svg>
