<svg width="288" height="48" viewBox="0 0 288 48" fill="none" xmlns="http://www.w3.org/2000/svg">
<path d="M6.25206 6.908H1.68806V5.9H7.59606V6.796L3.62006 15H2.33206L6.25206 6.908ZM12.7146 15.168C12.0799 15.168 11.5573 15.0607 11.1466 14.846C10.7359 14.6313 10.3766 14.356 10.0686 14.02L10.7826 13.306C11.0066 13.5393 11.2726 13.7353 11.5806 13.894C11.8886 14.0527 12.2526 14.132 12.6726 14.132C13.2606 14.132 13.7273 13.978 14.0726 13.67C14.4273 13.3527 14.6046 12.9 14.6046 12.312C14.6046 11.7147 14.4226 11.262 14.0586 10.954C13.6946 10.6367 13.1906 10.478 12.5466 10.478H11.1186L10.6706 10.03V5.9H15.3186V6.908H11.7906V9.484H12.7706C13.2746 9.484 13.7179 9.554 14.1006 9.694C14.4833 9.834 14.8006 10.03 15.0526 10.282C15.3046 10.5247 15.4959 10.8187 15.6266 11.164C15.7573 11.5093 15.8226 11.892 15.8226 12.312C15.8226 12.704 15.7573 13.0727 15.6266 13.418C15.5053 13.7633 15.3139 14.0667 15.0526 14.328C14.8006 14.58 14.4786 14.7853 14.0866 14.944C13.7039 15.0933 13.2466 15.168 12.7146 15.168ZM26.0931 5.9H27.2691L21.1091 15H19.9331L26.0931 5.9ZM20.4791 10.744C20.0871 10.744 19.7418 10.674 19.4431 10.534C19.1538 10.394 18.9158 10.2073 18.7291 9.974C18.5425 9.74067 18.4025 9.47467 18.3091 9.176C18.2158 8.868 18.1691 8.55533 18.1691 8.238C18.1691 7.92067 18.2158 7.61267 18.3091 7.314C18.4025 7.006 18.5425 6.73533 18.7291 6.502C18.9158 6.26867 19.1538 6.082 19.4431 5.942C19.7418 5.802 20.0871 5.732 20.4791 5.732C20.8805 5.732 21.2258 5.802 21.5151 5.942C21.8045 6.082 22.0425 6.26867 22.2291 6.502C22.4158 6.73533 22.5558 7.006 22.6491 7.314C22.7425 7.61267 22.7891 7.92067 22.7891 8.238C22.7891 8.55533 22.7425 8.868 22.6491 9.176C22.5558 9.47467 22.4158 9.74067 22.2291 9.974C22.0425 10.2073 21.8045 10.394 21.5151 10.534C21.2258 10.674 20.8805 10.744 20.4791 10.744ZM20.4791 9.89C20.8618 9.89 21.1745 9.74533 21.4171 9.456C21.6691 9.15733 21.7951 8.75133 21.7951 8.238C21.7951 7.72467 21.6691 7.32333 21.4171 7.034C21.1745 6.73533 20.8618 6.586 20.4791 6.586C20.0965 6.586 19.7791 6.73533 19.5271 7.034C19.2845 7.32333 19.1631 7.72467 19.1631 8.238C19.1631 8.75133 19.2845 9.15733 19.5271 9.456C19.7791 9.74533 20.0965 9.89 20.4791 9.89ZM26.7231 15.168C26.3311 15.168 25.9858 15.098 25.6871 14.958C25.3978 14.818 25.1598 14.6313 24.9731 14.398C24.7865 14.1647 24.6465 13.8987 24.5531 13.6C24.4598 13.292 24.4131 12.9793 24.4131 12.662C24.4131 12.3447 24.4598 12.0367 24.5531 11.738C24.6465 11.43 24.7865 11.1593 24.9731 10.926C25.1598 10.6927 25.3978 10.506 25.6871 10.366C25.9858 10.226 26.3311 10.156 26.7231 10.156C27.1245 10.156 27.4698 10.226 27.7591 10.366C28.0485 10.506 28.2865 10.6927 28.4731 10.926C28.6598 11.1593 28.7998 11.43 28.8931 11.738C28.9865 12.0367 29.0331 12.3447 29.0331 12.662C29.0331 12.9793 28.9865 13.292 28.8931 13.6C28.7998 13.8987 28.6598 14.1647 28.4731 14.398C28.2865 14.6313 28.0485 14.818 27.7591 14.958C27.4698 15.098 27.1245 15.168 26.7231 15.168ZM26.7231 14.314C27.1058 14.314 27.4185 14.1693 27.6611 13.88C27.9131 13.5813 28.0391 13.1753 28.0391 12.662C28.0391 12.1487 27.9131 11.7473 27.6611 11.458C27.4185 11.1593 27.1058 11.01 26.7231 11.01C26.3405 11.01 26.0231 11.1593 25.7711 11.458C25.5285 11.7473 25.4071 12.1487 25.4071 12.662C25.4071 13.1753 25.5285 13.5813 25.7711 13.88C26.0231 14.1693 26.3405 14.314 26.7231 14.314Z" fill="#3C4C4F"/>
<g clip-path="url(#clip0_1300_232480)">
<g clip-path="url(#clip1_1300_232480)">
<path d="M150 1.52344C151.677 1.52344 153.315 2.02058 154.709 2.952C156.103 3.88341 157.19 5.20727 157.831 6.75616C158.473 8.30505 158.641 10.0094 158.314 11.6537C157.987 13.298 157.179 14.8084 155.994 15.9938C154.808 17.1793 153.298 17.9866 151.654 18.3137C150.009 18.6408 148.305 18.4729 146.756 17.8313C145.207 17.1898 143.883 16.1033 142.952 14.7093C142.021 13.3154 141.523 11.6765 141.523 10C141.526 7.75276 142.42 5.5984 144.009 4.00936C145.598 2.42032 147.753 1.52633 150 1.52344ZM150 16.8359C151.352 16.8359 152.674 16.435 153.798 15.6839C154.922 14.9327 155.798 13.8651 156.316 12.616C156.833 11.3669 156.968 9.99242 156.705 8.66637C156.441 7.34033 155.79 6.12229 154.834 5.16626C153.878 4.21024 152.66 3.55918 151.334 3.29541C150.008 3.03165 148.633 3.16702 147.384 3.68442C146.135 4.20181 145.067 5.07799 144.316 6.20216C143.565 7.32632 143.164 8.64798 143.164 10C143.164 10.8977 143.341 11.7866 143.684 12.616C144.028 13.4454 144.531 14.199 145.166 14.8337C145.801 15.4685 146.555 15.972 147.384 16.3156C148.213 16.6591 149.102 16.8359 150 16.8359ZM147.441 7.8125C147.466 8.3747 147.675 8.91297 148.037 9.344C148.399 9.77502 148.893 10.0748 149.442 10.1969L149.552 11.0938H150.645L150.766 9.31094C149.737 9.19062 148.972 8.69844 148.972 7.88906C148.973 7.75303 149.004 7.61892 149.062 7.49577C149.12 7.37263 149.203 7.26332 149.307 7.17521C149.411 7.0871 149.532 7.02224 149.663 6.98501C149.794 6.94778 149.931 6.93904 150.066 6.95937C150.467 6.94636 150.858 7.08721 151.159 7.35313L152.1 6.40156C151.822 6.13461 151.492 5.92786 151.131 5.79424C150.77 5.66062 150.385 5.60301 150 5.625C149.685 5.58349 149.365 5.60864 149.061 5.69884C148.756 5.78904 148.474 5.94226 148.233 6.14855C147.992 6.35484 147.796 6.60959 147.66 6.89625C147.523 7.18292 147.449 7.49509 147.441 7.8125ZM149.037 13.2812C149.037 13.4716 149.094 13.6577 149.2 13.816C149.305 13.9743 149.456 14.0976 149.632 14.1705C149.808 14.2433 150.001 14.2624 150.188 14.2253C150.374 14.1881 150.546 14.0964 150.681 13.9618C150.815 13.8272 150.907 13.6557 150.944 13.469C150.981 13.2823 150.962 13.0888 150.889 12.9129C150.816 12.737 150.693 12.5867 150.535 12.481C150.376 12.3752 150.19 12.3187 150 12.3187C149.746 12.3216 149.502 12.4239 149.323 12.6038C149.143 12.7837 149.04 13.0269 149.037 13.2812Z" fill="#242E30"/>
</g>
<path d="M164.966 6.908H169.082C169.521 6.908 169.922 6.978 170.286 7.118C170.65 7.258 170.963 7.45867 171.224 7.72C171.495 7.972 171.705 8.28 171.854 8.644C172.003 8.99867 172.078 9.39533 172.078 9.834V15H170.216V9.834C170.216 9.386 170.095 9.036 169.852 8.784C169.609 8.52267 169.306 8.392 168.942 8.392H166.814V15H164.966V6.908ZM173.908 6.908H175.77V15H173.908V6.908ZM182.846 8.392H177.722V6.908H184.848V8.196L182.762 15H180.802L182.846 8.392ZM177.722 10.366H179.57V17.59H177.722V10.366ZM190.088 8.392H185.608V5.13H187.456V6.908H192.062V8.196L189.332 15H187.456L190.088 8.392ZM200.657 8.392H196.177V5.13H198.025V6.908H202.631V8.196L199.901 15H198.025L200.657 8.392ZM208.366 15.168C207.61 15.168 206.952 15.0327 206.392 14.762C205.841 14.482 205.379 14.1227 205.006 13.684C204.642 13.2453 204.367 12.7553 204.18 12.214C204.003 11.6633 203.914 11.1127 203.914 10.562V6.908H205.762V10.562C205.762 11.0287 205.827 11.4487 205.958 11.822C206.089 12.1953 206.271 12.5173 206.504 12.788C206.737 13.0493 207.013 13.2547 207.33 13.404C207.647 13.544 207.993 13.614 208.366 13.614C208.739 13.614 209.085 13.544 209.402 13.404C209.719 13.2547 209.995 13.0493 210.228 12.788C210.461 12.5173 210.643 12.1953 210.774 11.822C210.905 11.4487 210.97 11.0287 210.97 10.562V6.908H212.832V10.562C212.832 11.1127 212.739 11.6633 212.552 12.214C212.375 12.7553 212.099 13.2453 211.726 13.684C211.353 14.1227 210.886 14.482 210.326 14.762C209.775 15.0327 209.122 15.168 208.366 15.168ZM207.442 6.908H209.29V12.144H207.442V6.908ZM217.986 6.908H219.848V17.59H217.986V6.908ZM221.814 6.908H223.676V15H221.814V6.908ZM225.348 13.516H229.212L225.124 6.908H227.266L229.366 10.45C229.665 10.2913 229.903 10.0393 230.08 9.694C230.267 9.33933 230.36 8.91 230.36 8.406V6.908H232.208V8.322C232.208 9.106 232.04 9.806 231.704 10.422C231.377 11.038 230.925 11.4907 230.346 11.78L232.404 15H225.348V13.516ZM237.495 10.394C237.495 9.694 237.36 9.18533 237.089 8.868C236.828 8.55067 236.398 8.392 235.801 8.392H233.337V6.908H235.997C238.228 6.908 239.343 8.07 239.343 10.394V15H237.495V10.394ZM245.433 15.168C245.311 15.168 245.185 15.1633 245.055 15.154C244.924 15.154 244.793 15.1493 244.663 15.14C244.541 15.1307 244.429 15.1213 244.327 15.112C244.233 15.1027 244.159 15.0933 244.103 15.084V13.614C244.271 13.6327 244.434 13.6513 244.593 13.67C244.761 13.6793 244.91 13.684 245.041 13.684C245.498 13.684 245.727 13.3853 245.727 12.788V8.392H244.103V6.908H252.139V15H250.277V8.392H247.589V12.816C247.589 13.1613 247.542 13.4787 247.449 13.768C247.355 14.048 247.215 14.2953 247.029 14.51C246.851 14.7153 246.627 14.8787 246.357 15C246.086 15.112 245.778 15.168 245.433 15.168ZM254.093 6.908H255.955V15H254.093V6.908ZM257.501 13.516H259.041L257.403 6.908H259.335L260.959 13.474C261.183 13.4367 261.379 13.3527 261.547 13.222C261.725 13.0913 261.869 12.8907 261.981 12.62C262.103 12.3493 262.191 11.9947 262.247 11.556C262.303 11.108 262.331 10.5527 262.331 9.89V6.908H264.179V9.946C264.179 10.898 264.1 11.7007 263.941 12.354C263.792 12.998 263.563 13.516 263.255 13.908C262.957 14.3 262.579 14.58 262.121 14.748C261.673 14.916 261.146 15 260.539 15H257.501V13.516ZM265.987 6.908H267.835V12.354H265.987V6.908ZM269.368 13.516H273.358V10.394C273.358 9.694 273.228 9.18533 272.966 8.868C272.705 8.55067 272.271 8.392 271.664 8.392H269.368V6.908H271.86C274.091 6.908 275.206 8.07 275.206 10.394V13.516H276.298V15H269.368V13.516ZM282.03 15.168C281.274 15.168 280.616 15.0327 280.056 14.762C279.505 14.482 279.043 14.1227 278.67 13.684C278.306 13.2453 278.031 12.7553 277.844 12.214C277.667 11.6633 277.578 11.1127 277.578 10.562V6.908H279.426V10.562C279.426 11.0287 279.491 11.4487 279.622 11.822C279.753 12.1953 279.935 12.5173 280.168 12.788C280.401 13.0493 280.677 13.2547 280.994 13.404C281.311 13.544 281.657 13.614 282.03 13.614C282.403 13.614 282.749 13.544 283.066 13.404C283.383 13.2547 283.659 13.0493 283.892 12.788C284.125 12.5173 284.307 12.1953 284.438 11.822C284.569 11.4487 284.634 11.0287 284.634 10.562V6.908H286.496V10.562C286.496 11.1127 286.403 11.6633 286.216 12.214C286.039 12.7553 285.763 13.2453 285.39 13.684C285.017 14.1227 284.55 14.482 283.99 14.762C283.439 15.0327 282.786 15.168 282.03 15.168ZM281.106 6.908H282.954V12.144H281.106V6.908Z" fill="#242E30"/>
</g>
<rect width="288" height="4" rx="2" transform="matrix(-1 0 0 1 288 34)" fill="#F5F3F1"/>
<path d="M288 36C288 34.8954 287.105 34 286 34H74C72.8954 34 72 34.8954 72 36C72 37.1046 72.8954 38 74 38H286C287.105 38 288 37.1046 288 36Z" fill="#F36805"/>
<defs>
<clipPath id="clip0_1300_232480">
<rect width="148" height="20" fill="white" transform="translate(140)"/>
</clipPath>
<clipPath id="clip1_1300_232480">
<rect width="17.5" height="17.5" fill="white" transform="matrix(-1 0 0 1 158.75 1.25)"/>
</clipPath>
</defs>
</svg>
