<svg width="256" height="24" viewBox="0 0 256 24" fill="none" xmlns="http://www.w3.org/2000/svg">
<g clip-path="url(#clip0_11567_5106)">
<path d="M1.022 5.9H2.898V13.474H6.524V15H1.022V5.9ZM9.67334 15.168C9.36534 15.168 9.07134 15.1167 8.79134 15.014C8.52068 14.9207 8.28268 14.7853 8.07734 14.608C7.87201 14.4213 7.70868 14.1973 7.58734 13.936C7.47534 13.6747 7.41934 13.3807 7.41934 13.054C7.41934 12.438 7.63868 11.948 8.07734 11.584C8.51601 11.22 9.18334 11.0147 10.0793 10.968L11.7033 10.87V10.59C11.7033 10.142 11.568 9.834 11.2973 9.666C11.0267 9.498 10.6907 9.414 10.2893 9.414C9.97201 9.414 9.67334 9.47467 9.39334 9.596C9.11334 9.708 8.90334 9.848 8.76334 10.016L7.76934 9.008C8.01201 8.69067 8.36201 8.42933 8.81934 8.224C9.28601 8.01867 9.85534 7.916 10.5273 7.916C11.5167 7.916 12.254 8.14467 12.7393 8.602C13.2247 9.05933 13.4673 9.68 13.4673 10.464V15H11.8013V13.894H11.7173C11.54 14.286 11.2833 14.5987 10.9473 14.832C10.6113 15.056 10.1867 15.168 9.67334 15.168ZM10.1913 13.894C10.6393 13.894 11.0033 13.768 11.2833 13.516C11.5633 13.2547 11.7033 12.8907 11.7033 12.424V11.962L10.2893 12.074C9.56134 12.1207 9.19734 12.4287 9.19734 12.998C9.19734 13.2873 9.29068 13.5113 9.47734 13.67C9.66401 13.8193 9.90201 13.894 10.1913 13.894ZM19.2154 15.168C18.6741 15.168 18.2028 15.0373 17.8014 14.776C17.4094 14.5147 17.1294 14.1553 16.9614 13.698H16.8774V15H15.1974V4.85H16.9614V9.274H17.0454C17.2041 8.87267 17.4701 8.546 17.8434 8.294C18.2168 8.042 18.6741 7.916 19.2154 7.916C19.6448 7.916 20.0414 8.00467 20.4054 8.182C20.7788 8.35933 21.0961 8.61133 21.3574 8.938C21.6281 9.25533 21.8381 9.638 21.9874 10.086C22.1368 10.534 22.2114 11.0287 22.2114 11.57C22.2114 12.102 22.1368 12.592 21.9874 13.04C21.8381 13.4787 21.6281 13.8567 21.3574 14.174C21.0961 14.482 20.7788 14.7247 20.4054 14.902C20.0414 15.0793 19.6448 15.168 19.2154 15.168ZM18.6694 13.628C19.1921 13.628 19.6121 13.4413 19.9294 13.068C20.2468 12.6947 20.4054 12.186 20.4054 11.542C20.4054 10.898 20.2468 10.3893 19.9294 10.016C19.6121 9.64267 19.1921 9.456 18.6694 9.456C18.1561 9.456 17.7408 9.64267 17.4234 10.016C17.1154 10.3893 16.9614 10.898 16.9614 11.542C16.9614 12.186 17.1154 12.6947 17.4234 13.068C17.7408 13.4413 18.1561 13.628 18.6694 13.628ZM26.588 15.168C26.0093 15.168 25.5053 15.0747 25.076 14.888C24.6466 14.7013 24.2826 14.4447 23.984 14.118C23.6946 13.782 23.4753 13.3947 23.326 12.956C23.186 12.5173 23.116 12.046 23.116 11.542C23.116 11.0287 23.186 10.5527 23.326 10.114C23.466 9.666 23.676 9.28333 23.956 8.966C24.236 8.63933 24.586 8.38267 25.006 8.196C25.426 8.00933 25.916 7.916 26.476 7.916C27.036 7.916 27.526 8.00467 27.946 8.182C28.366 8.35933 28.7113 8.60667 28.982 8.924C29.2526 9.24133 29.4533 9.61933 29.584 10.058C29.724 10.4873 29.794 10.9587 29.794 11.472C29.794 11.5653 29.7846 11.6727 29.766 11.794C29.7566 11.9153 29.7426 12.0133 29.724 12.088H24.908C24.936 12.34 25.0013 12.5687 25.104 12.774C25.216 12.97 25.3513 13.138 25.51 13.278C25.678 13.418 25.86 13.5253 26.056 13.6C26.2613 13.6653 26.4713 13.698 26.686 13.698C27.0873 13.698 27.4233 13.628 27.694 13.488C27.9646 13.348 28.184 13.1707 28.352 12.956L29.346 13.992C29.0846 14.3467 28.7206 14.6313 28.254 14.846C27.7873 15.0607 27.232 15.168 26.588 15.168ZM26.476 9.26C26.028 9.26 25.664 9.40467 25.384 9.694C25.104 9.98333 24.9406 10.366 24.894 10.842H28.03C27.9833 10.366 27.82 9.98333 27.54 9.694C27.2693 9.40467 26.9146 9.26 26.476 9.26ZM31.1662 4.85H32.9302V15H31.1662V4.85Z" fill="#242E30"/>
</g>
<path d="M223.855 10.394L220.929 5.9H222.371L224.541 9.456H224.625L226.837 5.9H228.167L225.241 10.31L228.293 15H226.851L224.555 11.248H224.471L222.133 15H220.803L223.855 10.394ZM235.912 15.168C235.362 15.168 234.876 15.0747 234.456 14.888C234.046 14.692 233.7 14.4307 233.42 14.104C233.15 13.7773 232.944 13.3947 232.804 12.956C232.674 12.5173 232.608 12.046 232.608 11.542C232.608 11.038 232.674 10.5667 232.804 10.128C232.944 9.68933 233.15 9.30667 233.42 8.98C233.7 8.65333 234.046 8.39667 234.456 8.21C234.876 8.014 235.362 7.916 235.912 7.916C236.463 7.916 236.939 8.014 237.34 8.21C237.751 8.39667 238.092 8.65333 238.362 8.98C238.633 9.30667 238.834 9.68933 238.964 10.128C239.104 10.5667 239.174 11.038 239.174 11.542C239.174 12.046 239.104 12.5173 238.964 12.956C238.834 13.3947 238.633 13.7773 238.362 14.104C238.092 14.4307 237.751 14.692 237.34 14.888C236.939 15.0747 236.463 15.168 235.912 15.168ZM233.756 11.542C233.756 11.9433 233.798 12.312 233.882 12.648C233.976 12.9747 234.111 13.2593 234.288 13.502C234.466 13.7353 234.69 13.9173 234.96 14.048C235.231 14.1787 235.548 14.244 235.912 14.244C236.267 14.244 236.575 14.1787 236.836 14.048C237.107 13.9173 237.326 13.7353 237.494 13.502C237.672 13.2593 237.802 12.9747 237.886 12.648C237.98 12.312 238.026 11.9433 238.026 11.542C238.026 11.1407 237.98 10.7767 237.886 10.45C237.802 10.114 237.672 9.82933 237.494 9.596C237.326 9.35333 237.107 9.16667 236.836 9.036C236.575 8.90533 236.267 8.84 235.912 8.84C235.548 8.84 235.231 8.90533 234.96 9.036C234.69 9.16667 234.466 9.35333 234.288 9.596C234.111 9.82933 233.976 10.114 233.882 10.45C233.798 10.7767 233.756 11.1407 233.756 11.542ZM241.325 8.994H240.093V8.084H241.325V6.866C241.325 6.194 241.493 5.662 241.829 5.27C242.174 4.878 242.683 4.682 243.355 4.682C243.523 4.682 243.696 4.70067 243.873 4.738C244.05 4.766 244.204 4.81267 244.335 4.878L243.957 5.76C243.892 5.72267 243.803 5.69467 243.691 5.676C243.579 5.648 243.481 5.634 243.397 5.634C243.098 5.634 242.865 5.73667 242.697 5.942C242.529 6.14733 242.445 6.46 242.445 6.88V8.084H244.293V8.994H242.445V15H241.325V8.994ZM251.226 10.394L248.3 5.9H249.742L251.912 9.456H251.996L254.208 5.9H255.538L252.612 10.31L255.664 15H254.222L251.926 11.248H251.842L249.504 15H248.174L251.226 10.394Z" fill="#3C4C4F"/>
<defs>
<clipPath id="clip0_11567_5106">
<rect width="34" height="20" fill="white"/>
</clipPath>
</defs>
</svg>
