<svg width="54" height="20" viewBox="0 0 54 20" fill="none" xmlns="http://www.w3.org/2000/svg">
<path d="M5.59664 15.168C4.88731 15.168 4.26197 15.042 3.72064 14.79C3.18864 14.538 2.74064 14.1973 2.37664 13.768C2.01264 13.3387 1.73731 12.8393 1.55064 12.27C1.37331 11.6913 1.28464 11.0753 1.28464 10.422C1.28464 9.76867 1.37331 9.15733 1.55064 8.588C1.73731 8.01867 2.01264 7.524 2.37664 7.104C2.74064 6.67467 3.18864 6.33867 3.72064 6.096C4.26197 5.85333 4.88731 5.732 5.59664 5.732C6.29664 5.732 6.91264 5.85333 7.44464 6.096C7.98597 6.33867 8.43864 6.67467 8.80264 7.104C9.16664 7.524 9.43731 8.01867 9.61464 8.588C9.80131 9.15733 9.89464 9.76867 9.89464 10.422C9.89464 11.0753 9.80131 11.6913 9.61464 12.27C9.43731 12.8393 9.16664 13.3387 8.80264 13.768C8.43864 14.1973 7.98597 14.538 7.44464 14.79C6.91264 15.042 6.29664 15.168 5.59664 15.168ZM5.59664 14.146C6.04464 14.146 6.45531 14.062 6.82864 13.894C7.21131 13.726 7.53797 13.4833 7.80864 13.166C8.07931 12.8487 8.28931 12.4613 8.43864 12.004C8.59731 11.5373 8.67664 11.01 8.67664 10.422C8.67664 9.834 8.59731 9.31133 8.43864 8.854C8.28931 8.39667 8.07931 8.014 7.80864 7.706C7.53797 7.38867 7.21131 7.15067 6.82864 6.992C6.45531 6.83333 6.04464 6.754 5.59664 6.754C5.14864 6.754 4.73331 6.83333 4.35064 6.992C3.96797 7.15067 3.64131 7.38867 3.37064 7.706C3.09997 8.014 2.88531 8.39667 2.72664 8.854C2.57731 9.31133 2.50264 9.834 2.50264 10.422C2.50264 11.01 2.57731 11.5373 2.72664 12.004C2.88531 12.4613 3.09997 12.8487 3.37064 13.166C3.64131 13.4833 3.96797 13.726 4.35064 13.894C4.73331 14.062 5.14864 14.146 5.59664 14.146ZM11.8091 8.084H12.8731V9.498H12.9571C13.0411 9.26467 13.1578 9.05 13.3071 8.854C13.4658 8.658 13.6478 8.49 13.8531 8.35C14.0678 8.21 14.3011 8.10267 14.5531 8.028C14.8145 7.95333 15.0851 7.916 15.3651 7.916C15.8225 7.916 16.2378 8.00933 16.6111 8.196C16.9938 8.37333 17.3205 8.62533 17.5911 8.952C17.8618 9.26933 18.0671 9.652 18.2071 10.1C18.3565 10.548 18.4311 11.0333 18.4311 11.556C18.4311 12.0787 18.3565 12.564 18.2071 13.012C18.0671 13.4507 17.8618 13.8333 17.5911 14.16C17.3205 14.4773 16.9938 14.7247 16.6111 14.902C16.2378 15.0793 15.8225 15.168 15.3651 15.168C14.7958 15.168 14.3058 15.0327 13.8951 14.762C13.4845 14.4913 13.1905 14.146 13.0131 13.726H12.9291V17.59H11.8091V8.084ZM15.0851 14.16C15.3931 14.16 15.6778 14.1087 15.9391 14.006C16.2098 13.894 16.4431 13.7307 16.6391 13.516C16.8445 13.292 17.0031 13.0167 17.1151 12.69C17.2271 12.3633 17.2831 11.9807 17.2831 11.542C17.2831 11.1033 17.2271 10.7207 17.1151 10.394C17.0031 10.0673 16.8445 9.79667 16.6391 9.582C16.4431 9.358 16.2098 9.19467 15.9391 9.092C15.6778 8.98 15.3931 8.924 15.0851 8.924C14.7865 8.924 14.5065 8.98 14.2451 9.092C13.9838 9.19467 13.7551 9.358 13.5591 9.582C13.3631 9.79667 13.2091 10.0673 13.0971 10.394C12.9851 10.7207 12.9291 11.1033 12.9291 11.542C12.9291 11.9807 12.9851 12.3633 13.0971 12.69C13.2091 13.0167 13.3631 13.292 13.5591 13.516C13.7551 13.7307 13.9838 13.894 14.2451 14.006C14.5065 14.1087 14.7865 14.16 15.0851 14.16ZM22.359 15.168C21.7337 15.168 21.2763 14.9813 20.987 14.608C20.6977 14.2347 20.553 13.7213 20.553 13.068V8.994H19.321V8.084H20.553V6.208H21.659V8.084H23.661V8.994H21.659V12.97C21.659 13.418 21.743 13.7307 21.911 13.908C22.0883 14.0853 22.3123 14.174 22.583 14.174C22.7697 14.174 22.9377 14.1413 23.087 14.076C23.2363 14.0013 23.3763 13.9033 23.507 13.782L24.011 14.566C23.5817 14.9673 23.031 15.168 22.359 15.168ZM26.8377 6.25C26.8377 6.446 26.7677 6.614 26.6277 6.754C26.497 6.894 26.3197 6.964 26.0957 6.964C25.8624 6.964 25.6804 6.894 25.5497 6.754C25.419 6.614 25.3537 6.446 25.3537 6.25C25.3537 6.06333 25.419 5.9 25.5497 5.76C25.6804 5.61067 25.8624 5.536 26.0957 5.536C26.3197 5.536 26.497 5.61067 26.6277 5.76C26.7677 5.9 26.8377 6.06333 26.8377 6.25ZM25.5357 8.084H26.6557V15H25.5357V8.084ZM31.7657 15.168C31.215 15.168 30.7297 15.0747 30.3097 14.888C29.899 14.692 29.5537 14.4307 29.2737 14.104C29.003 13.7773 28.7977 13.3947 28.6577 12.956C28.527 12.5173 28.4617 12.046 28.4617 11.542C28.4617 11.038 28.527 10.5667 28.6577 10.128C28.7977 9.68933 29.003 9.30667 29.2737 8.98C29.5537 8.65333 29.899 8.39667 30.3097 8.21C30.7297 8.014 31.215 7.916 31.7657 7.916C32.3164 7.916 32.7924 8.014 33.1937 8.21C33.6044 8.39667 33.945 8.65333 34.2157 8.98C34.4864 9.30667 34.687 9.68933 34.8177 10.128C34.9577 10.5667 35.0277 11.038 35.0277 11.542C35.0277 12.046 34.9577 12.5173 34.8177 12.956C34.687 13.3947 34.4864 13.7773 34.2157 14.104C33.945 14.4307 33.6044 14.692 33.1937 14.888C32.7924 15.0747 32.3164 15.168 31.7657 15.168ZM29.6097 11.542C29.6097 11.9433 29.6517 12.312 29.7357 12.648C29.829 12.9747 29.9644 13.2593 30.1417 13.502C30.319 13.7353 30.543 13.9173 30.8137 14.048C31.0844 14.1787 31.4017 14.244 31.7657 14.244C32.1204 14.244 32.4284 14.1787 32.6897 14.048C32.9604 13.9173 33.1797 13.7353 33.3477 13.502C33.525 13.2593 33.6557 12.9747 33.7397 12.648C33.833 12.312 33.8797 11.9433 33.8797 11.542C33.8797 11.1407 33.833 10.7767 33.7397 10.45C33.6557 10.114 33.525 9.82933 33.3477 9.596C33.1797 9.35333 32.9604 9.16667 32.6897 9.036C32.4284 8.90533 32.1204 8.84 31.7657 8.84C31.4017 8.84 31.0844 8.90533 30.8137 9.036C30.543 9.16667 30.319 9.35333 30.1417 9.596C29.9644 9.82933 29.829 10.114 29.7357 10.45C29.6517 10.7767 29.6097 11.1407 29.6097 11.542ZM36.8287 8.084H37.8927V9.176H37.9767C38.1447 8.812 38.3827 8.51333 38.6907 8.28C38.9987 8.03733 39.3907 7.916 39.8667 7.916C40.66 7.916 41.2853 8.126 41.7427 8.546C42.2093 8.966 42.4427 9.64267 42.4427 10.576V15H41.3227V10.786C41.3227 10.0767 41.178 9.57733 40.8887 9.288C40.6087 8.98933 40.1933 8.84 39.6427 8.84C39.1107 8.84 38.6953 9.022 38.3967 9.386C38.098 9.75 37.9487 10.282 37.9487 10.982V15H36.8287V8.084ZM46.216 15.168C45.8987 15.168 45.6047 15.1167 45.334 15.014C45.0727 14.9113 44.844 14.7667 44.648 14.58C44.452 14.3933 44.298 14.174 44.186 13.922C44.0833 13.6607 44.032 13.376 44.032 13.068C44.032 12.4707 44.2467 11.99 44.676 11.626C45.1053 11.262 45.7167 11.0567 46.51 11.01L48.33 10.898V10.408C48.33 9.876 48.1993 9.49333 47.938 9.26C47.686 9.01733 47.322 8.896 46.846 8.896C46.4447 8.896 46.0993 8.97067 45.81 9.12C45.5207 9.26933 45.2967 9.43267 45.138 9.61L44.466 8.938C44.7087 8.63933 45.0353 8.39667 45.446 8.21C45.866 8.014 46.342 7.916 46.874 7.916C47.35 7.916 47.7513 7.98133 48.078 8.112C48.4047 8.23333 48.666 8.40133 48.862 8.616C49.0673 8.83067 49.212 9.08267 49.296 9.372C49.3893 9.66133 49.436 9.96933 49.436 10.296V15H48.386V13.824H48.302C48.1153 14.244 47.854 14.5753 47.518 14.818C47.182 15.0513 46.748 15.168 46.216 15.168ZM46.384 14.216C46.9627 14.216 47.4293 14.048 47.784 13.712C48.148 13.3667 48.33 12.9093 48.33 12.34V11.738L46.566 11.864C45.6327 11.9387 45.166 12.3307 45.166 13.04C45.166 13.3947 45.278 13.6793 45.502 13.894C45.7353 14.1087 46.0293 14.216 46.384 14.216ZM51.69 4.85H52.81V15H51.69V4.85Z" fill="#3C4C4F"/>
</svg>
