<svg width="800" height="292" viewBox="0 0 800 292" fill="none" xmlns="http://www.w3.org/2000/svg">
<rect width="340" height="124" transform="translate(0 84)" fill="white"/>
<g clip-path="url(#clip0_42341_3093)">
<path d="M39.876 100L40 100.124V123.876L39.876 124H16.124L16 123.876V100.124L16.124 100H39.876ZM16.248 100.248V123.751H39.751V100.248H16.248ZM35.0977 101.5C36.9766 101.5 38.4998 103.023 38.5 104.902V119.098C38.4998 120.977 36.9766 122.5 35.0977 122.5H20.9023C19.0234 122.5 17.5002 120.977 17.5 119.098V104.902C17.5002 103.023 19.0234 101.5 20.9023 101.5H35.0977Z" fill="black" fill-opacity="0.76"/>
</g>
<path d="M56.62 119V116.4L62.36 109.1H56.84V106H67.56V108.6L61.96 115.9H67.84V119H56.62ZM73.9842 119.24C72.8109 119.24 71.8242 119.007 71.0242 118.54C70.2376 118.06 69.6442 117.427 69.2442 116.64C68.8576 115.853 68.6642 114.993 68.6642 114.06C68.6642 113.353 68.7776 112.693 69.0042 112.08C69.2309 111.453 69.5642 110.9 70.0042 110.42C70.4442 109.94 70.9976 109.567 71.6642 109.3C72.3309 109.02 73.1042 108.88 73.9842 108.88C75.1442 108.88 76.1176 109.12 76.9042 109.6C77.6909 110.067 78.2842 110.693 78.6842 111.48C79.0976 112.267 79.3042 113.127 79.3042 114.06C79.3042 114.753 79.1909 115.413 78.9642 116.04C78.7376 116.667 78.3976 117.22 77.9442 117.7C77.5042 118.18 76.9509 118.56 76.2842 118.84C75.6176 119.107 74.8509 119.24 73.9842 119.24ZM72.4842 114.06C72.4842 114.553 72.5442 114.973 72.6642 115.32C72.7976 115.653 72.9776 115.907 73.2042 116.08C73.4309 116.24 73.6909 116.32 73.9842 116.32C74.2776 116.32 74.5309 116.24 74.7442 116.08C74.9709 115.907 75.1442 115.653 75.2642 115.32C75.3976 114.973 75.4642 114.553 75.4642 114.06C75.4642 113.553 75.3976 113.133 75.2642 112.8C75.1442 112.467 74.9709 112.22 74.7442 112.06C74.5309 111.887 74.2776 111.8 73.9842 111.8C73.6909 111.8 73.4309 111.887 73.2042 112.06C72.9776 112.22 72.7976 112.467 72.6642 112.8C72.5442 113.133 72.4842 113.553 72.4842 114.06ZM85.2928 119.24C84.1195 119.24 83.1328 119.007 82.3328 118.54C81.5461 118.06 80.9528 117.427 80.5528 116.64C80.1661 115.853 79.9728 114.993 79.9728 114.06C79.9728 113.353 80.0861 112.693 80.3128 112.08C80.5395 111.453 80.8728 110.9 81.3128 110.42C81.7528 109.94 82.3061 109.567 82.9728 109.3C83.6395 109.02 84.4128 108.88 85.2928 108.88C86.4528 108.88 87.4261 109.12 88.2128 109.6C88.9995 110.067 89.5928 110.693 89.9928 111.48C90.4061 112.267 90.6128 113.127 90.6128 114.06C90.6128 114.753 90.4995 115.413 90.2728 116.04C90.0461 116.667 89.7061 117.22 89.2528 117.7C88.8128 118.18 88.2595 118.56 87.5928 118.84C86.9261 119.107 86.1595 119.24 85.2928 119.24ZM83.7928 114.06C83.7928 114.553 83.8528 114.973 83.9728 115.32C84.1061 115.653 84.2861 115.907 84.5128 116.08C84.7395 116.24 84.9995 116.32 85.2928 116.32C85.5861 116.32 85.8395 116.24 86.0528 116.08C86.2795 115.907 86.4528 115.653 86.5728 115.32C86.7061 114.973 86.7728 114.553 86.7728 114.06C86.7728 113.553 86.7061 113.133 86.5728 112.8C86.4528 112.467 86.2795 112.22 86.0528 112.06C85.8395 111.887 85.5861 111.8 85.2928 111.8C84.9995 111.8 84.7395 111.887 84.5128 112.06C84.2861 112.22 84.1061 112.467 83.9728 112.8C83.8528 113.133 83.7928 113.553 83.7928 114.06ZM91.7614 119V109.12H95.2814V110.78H95.4014C95.6414 110.153 96.0414 109.68 96.6014 109.36C97.1614 109.04 97.7481 108.88 98.3614 108.88C99.2414 108.88 99.9147 109.053 100.381 109.4C100.861 109.747 101.195 110.24 101.381 110.88C101.528 110.507 101.748 110.173 102.041 109.88C102.348 109.573 102.708 109.333 103.121 109.16C103.548 108.973 103.988 108.88 104.441 108.88C105.321 108.88 106.001 109.047 106.481 109.38C106.975 109.713 107.315 110.193 107.501 110.82C107.688 111.447 107.781 112.2 107.781 113.08V119H104.021V113.68C104.021 113.387 103.988 113.12 103.921 112.88C103.855 112.627 103.735 112.42 103.561 112.26C103.401 112.1 103.161 112.02 102.841 112.02C102.401 112.02 102.088 112.16 101.901 112.44C101.728 112.72 101.641 113.1 101.641 113.58V119H97.8814V113.68C97.8814 113.387 97.8481 113.12 97.7814 112.88C97.7281 112.627 97.6214 112.42 97.4614 112.26C97.3014 112.1 97.0547 112.02 96.7214 112.02C96.2814 112.02 95.9681 112.16 95.7814 112.44C95.6081 112.72 95.5214 113.1 95.5214 113.58V119H91.7614ZM118.004 119.24C116.884 119.24 115.938 119.107 115.164 118.84C114.404 118.573 113.858 118.24 113.524 117.84L115.244 115.78C115.564 116.06 115.964 116.267 116.444 116.4C116.924 116.533 117.364 116.6 117.764 116.6C118.151 116.6 118.444 116.553 118.644 116.46C118.858 116.353 118.964 116.187 118.964 115.96C118.964 115.827 118.884 115.72 118.724 115.64C118.564 115.56 118.318 115.487 117.984 115.42C117.664 115.34 117.251 115.253 116.744 115.16C116.224 115.04 115.738 114.867 115.284 114.64C114.844 114.413 114.491 114.1 114.224 113.7C113.958 113.3 113.824 112.793 113.824 112.18C113.824 111.487 114.018 110.893 114.404 110.4C114.804 109.907 115.351 109.533 116.044 109.28C116.738 109.013 117.538 108.88 118.444 108.88C119.524 108.88 120.411 109.027 121.104 109.32C121.798 109.6 122.291 109.907 122.584 110.24L120.704 112.28C120.451 112.053 120.131 111.873 119.744 111.74C119.358 111.593 118.984 111.52 118.624 111.52C118.278 111.52 117.991 111.567 117.764 111.66C117.551 111.74 117.444 111.88 117.444 112.08C117.444 112.213 117.524 112.327 117.684 112.42C117.844 112.5 118.091 112.573 118.424 112.64C118.758 112.693 119.171 112.773 119.664 112.88C120.198 112.987 120.684 113.16 121.124 113.4C121.564 113.627 121.918 113.94 122.184 114.34C122.451 114.74 122.584 115.247 122.584 115.86C122.584 116.54 122.398 117.14 122.024 117.66C121.651 118.167 121.124 118.56 120.444 118.84C119.764 119.107 118.951 119.24 118.004 119.24ZM128.511 119.24C127.444 119.24 126.524 119.02 125.751 118.58C124.991 118.127 124.404 117.513 123.991 116.74C123.591 115.953 123.391 115.06 123.391 114.06C123.391 113.06 123.591 112.173 123.991 111.4C124.391 110.613 124.964 110 125.711 109.56C126.457 109.107 127.357 108.88 128.411 108.88C129.277 108.88 130.017 109.02 130.631 109.3C131.244 109.567 131.771 109.96 132.211 110.48L129.871 112.6C129.724 112.413 129.551 112.273 129.351 112.18C129.164 112.087 128.944 112.04 128.691 112.04C128.384 112.04 128.124 112.12 127.911 112.28C127.697 112.44 127.531 112.673 127.411 112.98C127.291 113.273 127.231 113.633 127.231 114.06C127.231 114.687 127.364 115.18 127.631 115.54C127.911 115.887 128.264 116.06 128.691 116.06C128.957 116.06 129.197 116.013 129.411 115.92C129.624 115.813 129.797 115.673 129.931 115.5L132.291 117.62C131.864 118.14 131.344 118.54 130.731 118.82C130.117 119.1 129.377 119.24 128.511 119.24ZM136.005 119.24C135.459 119.24 134.932 119.127 134.425 118.9C133.919 118.66 133.505 118.32 133.185 117.88C132.865 117.427 132.705 116.867 132.705 116.2C132.705 115.6 132.852 115.087 133.145 114.66C133.439 114.22 133.892 113.88 134.505 113.64C135.132 113.4 135.932 113.253 136.905 113.2L138.845 113.08V112.96C138.845 112.667 138.759 112.447 138.585 112.3C138.425 112.14 138.205 112.027 137.925 111.96C137.659 111.893 137.379 111.86 137.085 111.86C136.685 111.86 136.299 111.927 135.925 112.06C135.552 112.193 135.259 112.373 135.045 112.6L133.085 110.52C133.525 110.013 134.119 109.613 134.865 109.32C135.625 109.027 136.579 108.88 137.725 108.88C138.685 108.88 139.525 109.02 140.245 109.3C140.979 109.58 141.552 110.007 141.965 110.58C142.379 111.153 142.585 111.88 142.585 112.76V119H139.065V117.54H138.945C138.692 118.033 138.325 118.44 137.845 118.76C137.365 119.08 136.752 119.24 136.005 119.24ZM137.505 116.86C137.892 116.86 138.212 116.753 138.465 116.54C138.719 116.313 138.845 115.96 138.845 115.48V115.04L137.485 115.14C137.139 115.153 136.885 115.247 136.725 115.42C136.565 115.593 136.485 115.8 136.485 116.04C136.485 116.32 136.585 116.527 136.785 116.66C136.999 116.793 137.239 116.86 137.505 116.86ZM144.105 119V104.5H147.865V119H144.105ZM149.496 119V109.12H153.256V119H149.496ZM151.376 108.2C150.696 108.2 150.189 108.007 149.856 107.62C149.522 107.233 149.356 106.793 149.356 106.3C149.356 105.793 149.522 105.347 149.856 104.96C150.189 104.573 150.696 104.38 151.376 104.38C152.056 104.38 152.562 104.573 152.896 104.96C153.242 105.347 153.416 105.793 153.416 106.3C153.416 106.793 153.242 107.233 152.896 107.62C152.562 108.007 152.056 108.2 151.376 108.2ZM154.886 119V109.12H158.406V110.78H158.526C158.646 110.42 158.853 110.1 159.146 109.82C159.453 109.527 159.806 109.3 160.206 109.14C160.62 108.967 161.053 108.88 161.506 108.88C162.773 108.88 163.653 109.213 164.146 109.88C164.64 110.547 164.886 111.533 164.886 112.84V119H161.126V113.82C161.126 113.207 161.033 112.753 160.846 112.46C160.673 112.167 160.36 112.02 159.906 112.02C159.453 112.02 159.126 112.16 158.926 112.44C158.74 112.707 158.646 113.14 158.646 113.74V119H154.886ZM170.928 122.94C169.955 122.94 169.102 122.787 168.368 122.48C167.635 122.187 167.115 121.833 166.808 121.42L168.968 119.22C169.102 119.42 169.348 119.587 169.708 119.72C170.082 119.853 170.442 119.92 170.788 119.92C171.108 119.92 171.408 119.867 171.688 119.76C171.982 119.667 172.215 119.5 172.388 119.26C172.575 119.02 172.668 118.687 172.668 118.26V116.74H172.608C172.395 117.207 172.068 117.607 171.628 117.94C171.202 118.273 170.602 118.44 169.828 118.44C169.055 118.44 168.382 118.233 167.808 117.82C167.235 117.393 166.795 116.813 166.488 116.08C166.182 115.333 166.028 114.493 166.028 113.56C166.028 112.653 166.188 111.853 166.508 111.16C166.828 110.453 167.275 109.907 167.848 109.52C168.435 109.12 169.115 108.92 169.888 108.92C170.635 108.92 171.235 109.073 171.688 109.38C172.155 109.687 172.515 110.12 172.768 110.68H172.888V109.12H176.428V118.5C176.428 119.487 176.188 120.307 175.708 120.96C175.242 121.627 174.588 122.12 173.748 122.44C172.922 122.773 171.982 122.94 170.928 122.94ZM171.248 115.5C171.608 115.5 171.888 115.407 172.088 115.22C172.302 115.033 172.455 114.8 172.548 114.52C172.642 114.227 172.688 113.933 172.688 113.64C172.688 113.347 172.642 113.06 172.548 112.78C172.455 112.487 172.302 112.247 172.088 112.06C171.888 111.873 171.608 111.78 171.248 111.78C170.915 111.78 170.642 111.873 170.428 112.06C170.228 112.247 170.082 112.487 169.988 112.78C169.895 113.06 169.848 113.347 169.848 113.64C169.848 113.933 169.895 114.227 169.988 114.52C170.082 114.8 170.228 115.033 170.428 115.22C170.642 115.407 170.915 115.5 171.248 115.5Z" fill="black" fill-opacity="0.76"/>
<path d="M319.77 116.455L312 108.423L304.23 116.521L302.786 115.208L310.806 106.861C310.968 106.693 311.163 106.559 311.378 106.468C311.594 106.377 311.825 106.33 312.059 106.33C312.293 106.33 312.524 106.377 312.74 106.468C312.955 106.559 313.15 106.693 313.312 106.861L321.187 115.103L319.77 116.455Z" fill="black" fill-opacity="0.76"/>
<rect width="340" height="68" transform="translate(0 139)" fill="white"/>
<path d="M56.416 161L60.144 150.6H61.92L65.664 161H64.208L63.392 158.712H58.608L57.792 161H56.416ZM60.944 151.736L59.008 157.56H62.992L61.04 151.736H60.944ZM67.4381 161V153.096H68.6541V154.344H68.7501C68.8781 154.067 69.0435 153.821 69.2461 153.608C69.4488 153.384 69.6888 153.213 69.9661 153.096C70.2435 152.968 70.5581 152.904 70.9101 152.904C71.8168 152.904 72.5315 153.144 73.0541 153.624C73.5875 154.093 73.8541 154.867 73.8541 155.944V161H72.5741V156.184C72.5741 155.373 72.4088 154.803 72.0781 154.472C71.7581 154.131 71.2835 153.96 70.6541 153.96C70.0568 153.96 69.5821 154.168 69.2301 154.584C68.8888 155 68.7181 155.608 68.7181 156.408V161H67.4381ZM83.3543 161.192C82.5969 161.192 81.9356 161.027 81.3703 160.696C80.8156 160.365 80.3836 159.891 80.0743 159.272C79.7649 158.643 79.6103 157.901 79.6103 157.048C79.6103 156.376 79.6956 155.784 79.8663 155.272C80.0476 154.749 80.2983 154.317 80.6183 153.976C80.9489 153.624 81.3329 153.357 81.7703 153.176C82.2183 152.995 82.7089 152.904 83.2423 152.904C83.7756 152.904 84.2609 152.989 84.6983 153.16C85.1463 153.331 85.5303 153.587 85.8503 153.928C86.1809 154.259 86.4369 154.68 86.6183 155.192C86.7996 155.693 86.8903 156.28 86.8903 156.952C86.8903 157.037 86.8849 157.123 86.8743 157.208C86.8743 157.293 86.8689 157.363 86.8583 157.416H80.8903C80.9009 157.907 81.0183 158.355 81.2423 158.76C81.4663 159.165 81.7649 159.491 82.1383 159.736C82.5223 159.971 82.9489 160.088 83.4183 160.088C83.9836 160.088 84.4529 159.976 84.8263 159.752C85.1996 159.528 85.5089 159.256 85.7543 158.936L86.5223 159.72C86.1916 160.168 85.7703 160.525 85.2583 160.792C84.7463 161.059 84.1116 161.192 83.3543 161.192ZM83.2423 153.96C82.7409 153.96 82.3196 154.077 81.9783 154.312C81.6369 154.547 81.3756 154.845 81.1943 155.208C81.0236 155.571 80.9329 155.949 80.9223 156.344H85.5463C85.5356 155.949 85.4396 155.571 85.2583 155.208C85.0876 154.845 84.8316 154.547 84.4903 154.312C84.1596 154.077 83.7436 153.96 83.2423 153.96ZM87.8405 161L90.6085 156.984L87.9685 153.096H89.5045L91.3765 156.056H91.4405L93.3765 153.096H94.7525L92.1125 156.92L94.8805 161H93.3445L91.3445 157.848H91.2805L89.2165 161H87.8405ZM98.3853 161.192C97.9053 161.192 97.4733 161.091 97.0893 160.888C96.7159 160.685 96.4226 160.403 96.2093 160.04C95.9959 159.677 95.8893 159.261 95.8893 158.792C95.8893 158.333 95.9959 157.939 96.2093 157.608C96.4333 157.267 96.7586 156.995 97.1853 156.792C97.6119 156.589 98.1239 156.472 98.7213 156.44L100.801 156.312V155.752C100.801 155.347 100.732 155.021 100.593 154.776C100.465 154.52 100.273 154.333 100.017 154.216C99.7719 154.088 99.4679 154.024 99.1053 154.024C98.6466 154.024 98.2519 154.109 97.9213 154.28C97.5906 154.451 97.3346 154.637 97.1533 154.84L96.3853 154.072C96.6626 153.731 97.0413 153.453 97.5213 153.24C98.0013 153.016 98.5399 152.904 99.1373 152.904C99.8626 152.904 100.439 153.027 100.865 153.272C101.292 153.517 101.596 153.848 101.777 154.264C101.969 154.669 102.065 155.123 102.065 155.624V161H100.865V159.656H100.769C100.567 160.125 100.268 160.499 99.8733 160.776C99.4786 161.053 98.9826 161.192 98.3853 161.192ZM98.5773 160.104C99.2386 160.104 99.7719 159.912 100.177 159.528C100.593 159.133 100.801 158.611 100.801 157.96V157.272L98.7853 157.416C98.2626 157.459 97.8626 157.592 97.5853 157.816C97.3186 158.04 97.1853 158.355 97.1853 158.76C97.1853 159.165 97.3133 159.491 97.5693 159.736C97.8359 159.981 98.1719 160.104 98.5773 160.104ZM104.641 161V153.096H105.857V154.344H105.953C106.145 153.928 106.412 153.587 106.753 153.32C107.105 153.043 107.543 152.904 108.065 152.904C108.695 152.904 109.228 153.021 109.665 153.256C110.103 153.48 110.423 153.821 110.625 154.28C110.785 153.981 110.977 153.731 111.201 153.528C111.425 153.325 111.692 153.171 112.001 153.064C112.321 152.957 112.679 152.904 113.073 152.904C113.66 152.904 114.167 153.011 114.593 153.224C115.02 153.427 115.351 153.752 115.585 154.2C115.82 154.648 115.937 155.229 115.937 155.944V161H114.657V156.184C114.657 155.64 114.583 155.208 114.433 154.888C114.295 154.557 114.087 154.323 113.809 154.184C113.543 154.035 113.207 153.96 112.801 153.96C112.215 153.96 111.756 154.168 111.425 154.584C111.095 155 110.929 155.608 110.929 156.408V161H109.649V156.184C109.649 155.64 109.58 155.208 109.441 154.888C109.303 154.557 109.095 154.323 108.817 154.184C108.54 154.035 108.199 153.96 107.793 153.96C107.217 153.96 106.759 154.168 106.417 154.584C106.087 155 105.921 155.608 105.921 156.408V161H104.641ZM118.516 163.96V153.096H119.732V154.712H119.828C120.01 154.168 120.351 153.731 120.852 153.4C121.354 153.069 121.93 152.904 122.58 152.904C123.284 152.904 123.898 153.085 124.42 153.448C124.943 153.8 125.348 154.291 125.636 154.92C125.935 155.549 126.084 156.264 126.084 157.064C126.084 157.864 125.935 158.573 125.636 159.192C125.348 159.811 124.943 160.301 124.42 160.664C123.898 161.016 123.284 161.192 122.58 161.192C121.93 161.192 121.37 161.037 120.9 160.728C120.431 160.419 120.095 160.024 119.892 159.544H119.796V163.96H118.516ZM122.26 160.04C122.73 160.04 123.151 159.933 123.524 159.72C123.908 159.496 124.212 159.16 124.436 158.712C124.66 158.264 124.772 157.709 124.772 157.048C124.772 156.376 124.66 155.821 124.436 155.384C124.212 154.936 123.908 154.605 123.524 154.392C123.151 154.168 122.73 154.056 122.26 154.056C121.812 154.056 121.402 154.168 121.028 154.392C120.655 154.605 120.356 154.936 120.132 155.384C119.908 155.821 119.796 156.376 119.796 157.048C119.796 157.709 119.908 158.264 120.132 158.712C120.356 159.16 120.655 159.496 121.028 159.72C121.402 159.933 121.812 160.04 122.26 160.04ZM128.141 161V149.4H129.421V161H128.141ZM135.229 161.192C134.472 161.192 133.811 161.027 133.245 160.696C132.691 160.365 132.259 159.891 131.949 159.272C131.64 158.643 131.485 157.901 131.485 157.048C131.485 156.376 131.571 155.784 131.741 155.272C131.923 154.749 132.173 154.317 132.493 153.976C132.824 153.624 133.208 153.357 133.645 153.176C134.093 152.995 134.584 152.904 135.117 152.904C135.651 152.904 136.136 152.989 136.573 153.16C137.021 153.331 137.405 153.587 137.725 153.928C138.056 154.259 138.312 154.68 138.493 155.192C138.675 155.693 138.765 156.28 138.765 156.952C138.765 157.037 138.76 157.123 138.749 157.208C138.749 157.293 138.744 157.363 138.733 157.416H132.765C132.776 157.907 132.893 158.355 133.117 158.76C133.341 159.165 133.64 159.491 134.013 159.736C134.397 159.971 134.824 160.088 135.293 160.088C135.859 160.088 136.328 159.976 136.701 159.752C137.075 159.528 137.384 159.256 137.629 158.936L138.397 159.72C138.067 160.168 137.645 160.525 137.133 160.792C136.621 161.059 135.987 161.192 135.229 161.192ZM135.117 153.96C134.616 153.96 134.195 154.077 133.853 154.312C133.512 154.547 133.251 154.845 133.069 155.208C132.899 155.571 132.808 155.949 132.797 156.344H137.421C137.411 155.949 137.315 155.571 137.133 155.208C136.963 154.845 136.707 154.547 136.365 154.312C136.035 154.077 135.619 153.96 135.117 153.96ZM145.073 161V154.136H143.665V153.096H145.073V151.704C145.073 151.192 145.158 150.749 145.329 150.376C145.51 150.003 145.771 149.715 146.113 149.512C146.465 149.309 146.891 149.208 147.393 149.208C147.585 149.208 147.782 149.229 147.985 149.272C148.187 149.304 148.363 149.357 148.513 149.432L148.081 150.44C148.006 150.397 147.905 150.365 147.777 150.344C147.649 150.312 147.537 150.296 147.441 150.296C147.11 150.296 146.843 150.413 146.641 150.648C146.449 150.883 146.353 151.24 146.353 151.72V153.096H148.465V154.136H146.353V161H145.073ZM153.058 161.192C152.215 161.192 151.511 161.005 150.946 160.632C150.391 160.259 149.975 159.757 149.698 159.128C149.421 158.499 149.282 157.805 149.282 157.048C149.282 156.472 149.357 155.933 149.506 155.432C149.666 154.931 149.901 154.493 150.21 154.12C150.53 153.736 150.925 153.437 151.394 153.224C151.874 153.011 152.429 152.904 153.058 152.904C153.901 152.904 154.594 153.091 155.138 153.464C155.693 153.837 156.103 154.339 156.37 154.968C156.647 155.587 156.786 156.28 156.786 157.048C156.786 157.624 156.706 158.163 156.546 158.664C156.397 159.165 156.167 159.608 155.858 159.992C155.549 160.365 155.159 160.659 154.69 160.872C154.231 161.085 153.687 161.192 153.058 161.192ZM150.594 157.048C150.594 157.656 150.685 158.195 150.866 158.664C151.047 159.123 151.319 159.485 151.682 159.752C152.045 160.008 152.503 160.136 153.058 160.136C153.602 160.136 154.05 160.008 154.402 159.752C154.765 159.485 155.031 159.123 155.202 158.664C155.383 158.195 155.474 157.656 155.474 157.048C155.474 156.44 155.383 155.907 155.202 155.448C155.031 154.979 154.765 154.616 154.402 154.36C154.05 154.093 153.602 153.96 153.058 153.96C152.503 153.96 152.045 154.093 151.682 154.36C151.319 154.616 151.047 154.979 150.866 155.448C150.685 155.907 150.594 156.44 150.594 157.048ZM158.844 161V153.096H160.06V154.376H160.156C160.327 153.96 160.572 153.613 160.892 153.336C161.223 153.048 161.623 152.904 162.092 152.904C162.284 152.904 162.471 152.925 162.652 152.968C162.844 153 163.015 153.059 163.164 153.144L162.732 154.296C162.594 154.221 162.444 154.173 162.284 154.152C162.135 154.12 161.98 154.104 161.82 154.104C161.298 154.104 160.882 154.317 160.572 154.744C160.274 155.16 160.124 155.693 160.124 156.344V161H158.844ZM170.401 161.192C169.921 161.192 169.489 161.091 169.105 160.888C168.732 160.685 168.438 160.403 168.225 160.04C168.012 159.677 167.905 159.261 167.905 158.792C167.905 158.333 168.012 157.939 168.225 157.608C168.449 157.267 168.774 156.995 169.201 156.792C169.628 156.589 170.14 156.472 170.737 156.44L172.817 156.312V155.752C172.817 155.347 172.748 155.021 172.609 154.776C172.481 154.52 172.289 154.333 172.033 154.216C171.788 154.088 171.484 154.024 171.121 154.024C170.662 154.024 170.268 154.109 169.937 154.28C169.606 154.451 169.35 154.637 169.169 154.84L168.401 154.072C168.678 153.731 169.057 153.453 169.537 153.24C170.017 153.016 170.556 152.904 171.153 152.904C171.878 152.904 172.454 153.027 172.881 153.272C173.308 153.517 173.612 153.848 173.793 154.264C173.985 154.669 174.081 155.123 174.081 155.624V161H172.881V159.656H172.785C172.582 160.125 172.284 160.499 171.889 160.776C171.494 161.053 170.998 161.192 170.401 161.192ZM170.593 160.104C171.254 160.104 171.788 159.912 172.193 159.528C172.609 159.133 172.817 158.611 172.817 157.96V157.272L170.801 157.416C170.278 157.459 169.878 157.592 169.601 157.816C169.334 158.04 169.201 158.355 169.201 158.76C169.201 159.165 169.329 159.491 169.585 159.736C169.852 159.981 170.188 160.104 170.593 160.104ZM179.665 161.192C178.812 161.192 178.113 160.995 177.569 160.6C177.025 160.205 176.625 159.693 176.369 159.064C176.124 158.424 176.001 157.752 176.001 157.048C176.001 156.333 176.124 155.661 176.369 155.032C176.614 154.403 177.004 153.891 177.537 153.496C178.081 153.101 178.78 152.904 179.633 152.904C180.294 152.904 180.838 153.016 181.265 153.24C181.702 153.464 182.07 153.763 182.369 154.136L181.569 154.888C181.313 154.611 181.041 154.397 180.753 154.248C180.476 154.088 180.113 154.008 179.665 154.008C179.206 154.008 178.796 154.131 178.433 154.376C178.081 154.621 177.804 154.973 177.601 155.432C177.409 155.88 177.313 156.419 177.313 157.048C177.313 157.987 177.537 158.728 177.985 159.272C178.433 159.816 179.004 160.088 179.697 160.088C180.124 160.088 180.492 160.013 180.801 159.864C181.11 159.704 181.398 159.475 181.665 159.176L182.433 159.944C182.134 160.317 181.756 160.621 181.297 160.856C180.849 161.08 180.305 161.192 179.665 161.192ZM187.149 161.192C186.296 161.192 185.597 160.995 185.053 160.6C184.509 160.205 184.109 159.693 183.853 159.064C183.608 158.424 183.485 157.752 183.485 157.048C183.485 156.333 183.608 155.661 183.853 155.032C184.099 154.403 184.488 153.891 185.021 153.496C185.565 153.101 186.264 152.904 187.117 152.904C187.779 152.904 188.323 153.016 188.749 153.24C189.187 153.464 189.555 153.763 189.853 154.136L189.053 154.888C188.797 154.611 188.525 154.397 188.237 154.248C187.96 154.088 187.597 154.008 187.149 154.008C186.691 154.008 186.28 154.131 185.917 154.376C185.565 154.621 185.288 154.973 185.085 155.432C184.893 155.88 184.797 156.419 184.797 157.048C184.797 157.987 185.021 158.728 185.469 159.272C185.917 159.816 186.488 160.088 187.181 160.088C187.608 160.088 187.976 160.013 188.285 159.864C188.595 159.704 188.883 159.475 189.149 159.176L189.917 159.944C189.619 160.317 189.24 160.621 188.781 160.856C188.333 161.08 187.789 161.192 187.149 161.192ZM194.714 161.192C193.956 161.192 193.295 161.027 192.73 160.696C192.175 160.365 191.743 159.891 191.434 159.272C191.124 158.643 190.97 157.901 190.97 157.048C190.97 156.376 191.055 155.784 191.226 155.272C191.407 154.749 191.658 154.317 191.978 153.976C192.308 153.624 192.692 153.357 193.13 153.176C193.578 152.995 194.068 152.904 194.602 152.904C195.135 152.904 195.62 152.989 196.058 153.16C196.506 153.331 196.89 153.587 197.21 153.928C197.54 154.259 197.796 154.68 197.978 155.192C198.159 155.693 198.25 156.28 198.25 156.952C198.25 157.037 198.244 157.123 198.234 157.208C198.234 157.293 198.228 157.363 198.218 157.416H192.25C192.26 157.907 192.378 158.355 192.602 158.76C192.826 159.165 193.124 159.491 193.498 159.736C193.882 159.971 194.308 160.088 194.778 160.088C195.343 160.088 195.812 159.976 196.186 159.752C196.559 159.528 196.868 159.256 197.114 158.936L197.882 159.72C197.551 160.168 197.13 160.525 196.618 160.792C196.106 161.059 195.471 161.192 194.714 161.192ZM194.602 153.96C194.1 153.96 193.679 154.077 193.338 154.312C192.996 154.547 192.735 154.845 192.554 155.208C192.383 155.571 192.292 155.949 192.282 156.344H196.906C196.895 155.949 196.799 155.571 196.618 155.208C196.447 154.845 196.191 154.547 195.85 154.312C195.519 154.077 195.103 153.96 194.602 153.96ZM202.457 161.192C201.774 161.192 201.188 161.075 200.697 160.84C200.206 160.605 199.822 160.301 199.545 159.928L200.393 159.128C200.638 159.416 200.921 159.651 201.241 159.832C201.572 160.013 201.982 160.104 202.473 160.104C202.91 160.104 203.294 160.013 203.625 159.832C203.956 159.64 204.121 159.347 204.121 158.952C204.121 158.643 204.025 158.403 203.833 158.232C203.652 158.051 203.412 157.907 203.113 157.8C202.814 157.683 202.494 157.576 202.153 157.48C201.758 157.363 201.385 157.219 201.033 157.048C200.692 156.867 200.409 156.632 200.185 156.344C199.972 156.045 199.865 155.667 199.865 155.208C199.865 154.707 199.982 154.285 200.217 153.944C200.462 153.603 200.788 153.347 201.193 153.176C201.609 152.995 202.073 152.904 202.585 152.904C203.15 152.904 203.678 153.011 204.169 153.224C204.66 153.427 205.054 153.747 205.353 154.184L204.521 154.952C204.286 154.675 204.009 154.445 203.689 154.264C203.38 154.083 203.012 153.992 202.585 153.992C202.222 153.992 201.886 154.083 201.577 154.264C201.268 154.435 201.113 154.712 201.113 155.096C201.113 155.405 201.204 155.651 201.385 155.832C201.577 156.003 201.822 156.141 202.121 156.248C202.42 156.355 202.74 156.461 203.081 156.568C203.476 156.685 203.844 156.835 204.185 157.016C204.537 157.187 204.82 157.416 205.033 157.704C205.257 157.992 205.369 158.371 205.369 158.84C205.369 159.384 205.236 159.832 204.969 160.184C204.702 160.525 204.345 160.781 203.897 160.952C203.46 161.112 202.98 161.192 202.457 161.192ZM209.723 161.192C209.04 161.192 208.453 161.075 207.963 160.84C207.472 160.605 207.088 160.301 206.811 159.928L207.659 159.128C207.904 159.416 208.187 159.651 208.507 159.832C208.837 160.013 209.248 160.104 209.739 160.104C210.176 160.104 210.56 160.013 210.891 159.832C211.221 159.64 211.387 159.347 211.387 158.952C211.387 158.643 211.291 158.403 211.099 158.232C210.917 158.051 210.677 157.907 210.379 157.8C210.08 157.683 209.76 157.576 209.419 157.48C209.024 157.363 208.651 157.219 208.299 157.048C207.957 156.867 207.675 156.632 207.451 156.344C207.237 156.045 207.131 155.667 207.131 155.208C207.131 154.707 207.248 154.285 207.483 153.944C207.728 153.603 208.053 153.347 208.459 153.176C208.875 152.995 209.339 152.904 209.851 152.904C210.416 152.904 210.944 153.011 211.435 153.224C211.925 153.427 212.32 153.747 212.619 154.184L211.787 154.952C211.552 154.675 211.275 154.445 210.955 154.264C210.645 154.083 210.277 153.992 209.851 153.992C209.488 153.992 209.152 154.083 208.843 154.264C208.533 154.435 208.379 154.712 208.379 155.096C208.379 155.405 208.469 155.651 208.651 155.832C208.843 156.003 209.088 156.141 209.387 156.248C209.685 156.355 210.005 156.461 210.347 156.568C210.741 156.685 211.109 156.835 211.451 157.016C211.803 157.187 212.085 157.416 212.299 157.704C212.523 157.992 212.635 158.371 212.635 158.84C212.635 159.384 212.501 159.832 212.235 160.184C211.968 160.525 211.611 160.781 211.163 160.952C210.725 161.112 210.245 161.192 209.723 161.192ZM214.844 161V153.096H216.124V161H214.844ZM215.484 151.816C215.218 151.816 215.01 151.736 214.86 151.576C214.711 151.416 214.636 151.224 214.636 151C214.636 150.787 214.711 150.6 214.86 150.44C215.01 150.269 215.218 150.184 215.484 150.184C215.74 150.184 215.943 150.269 216.092 150.44C216.252 150.6 216.332 150.787 216.332 151C216.332 151.224 216.252 151.416 216.092 151.576C215.943 151.736 215.74 151.816 215.484 151.816ZM222.908 161.192C222.258 161.192 221.682 161.027 221.18 160.696C220.679 160.365 220.338 159.928 220.156 159.384H220.06V161H218.844V149.4H220.124V154.552H220.22C220.423 154.072 220.759 153.677 221.228 153.368C221.698 153.059 222.258 152.904 222.908 152.904C223.612 152.904 224.226 153.08 224.748 153.432C225.271 153.784 225.676 154.275 225.964 154.904C226.263 155.523 226.412 156.232 226.412 157.032C226.412 157.832 226.263 158.547 225.964 159.176C225.676 159.795 225.271 160.285 224.748 160.648C224.226 161.011 223.612 161.192 222.908 161.192ZM222.588 160.04C223.058 160.04 223.479 159.933 223.852 159.72C224.236 159.496 224.54 159.16 224.764 158.712C224.988 158.264 225.1 157.709 225.1 157.048C225.1 156.376 224.988 155.821 224.764 155.384C224.54 154.936 224.236 154.605 223.852 154.392C223.479 154.168 223.058 154.056 222.588 154.056C222.14 154.056 221.73 154.168 221.356 154.392C220.983 154.605 220.684 154.936 220.46 155.384C220.236 155.821 220.124 156.376 220.124 157.048C220.124 157.709 220.236 158.264 220.46 158.712C220.684 159.16 220.983 159.496 221.356 159.72C221.73 159.933 222.14 160.04 222.588 160.04ZM228.469 161V149.4H229.749V161H228.469ZM235.557 161.192C234.8 161.192 234.139 161.027 233.573 160.696C233.019 160.365 232.587 159.891 232.277 159.272C231.968 158.643 231.813 157.901 231.813 157.048C231.813 156.376 231.899 155.784 232.069 155.272C232.251 154.749 232.501 154.317 232.821 153.976C233.152 153.624 233.536 153.357 233.973 153.176C234.421 152.995 234.912 152.904 235.445 152.904C235.979 152.904 236.464 152.989 236.901 153.16C237.349 153.331 237.733 153.587 238.053 153.928C238.384 154.259 238.64 154.68 238.821 155.192C239.003 155.693 239.093 156.28 239.093 156.952C239.093 157.037 239.088 157.123 239.077 157.208C239.077 157.293 239.072 157.363 239.061 157.416H233.093C233.104 157.907 233.221 158.355 233.445 158.76C233.669 159.165 233.968 159.491 234.341 159.736C234.725 159.971 235.152 160.088 235.621 160.088C236.187 160.088 236.656 159.976 237.029 159.752C237.403 159.528 237.712 159.256 237.957 158.936L238.725 159.72C238.395 160.168 237.973 160.525 237.461 160.792C236.949 161.059 236.315 161.192 235.557 161.192ZM235.445 153.96C234.944 153.96 234.523 154.077 234.181 154.312C233.84 154.547 233.579 154.845 233.397 155.208C233.227 155.571 233.136 155.949 233.125 156.344H237.749C237.739 155.949 237.643 155.571 237.461 155.208C237.291 154.845 237.035 154.547 236.693 154.312C236.363 154.077 235.947 153.96 235.445 153.96ZM247.433 161.192C246.963 161.192 246.574 161.096 246.265 160.904C245.955 160.712 245.726 160.435 245.577 160.072C245.438 159.709 245.369 159.283 245.369 158.792V154.136H243.961V153.096H245.369V150.952H246.633V153.096H248.921V154.136H246.633V158.68C246.633 159.192 246.729 159.549 246.921 159.752C247.123 159.955 247.379 160.056 247.689 160.056C247.902 160.056 248.094 160.019 248.265 159.944C248.435 159.859 248.595 159.747 248.745 159.608L249.321 160.504C249.075 160.739 248.793 160.909 248.473 161.016C248.163 161.133 247.817 161.192 247.433 161.192ZM254.026 161.192C253.269 161.192 252.607 161.027 252.042 160.696C251.487 160.365 251.055 159.891 250.746 159.272C250.437 158.643 250.282 157.901 250.282 157.048C250.282 156.376 250.367 155.784 250.538 155.272C250.719 154.749 250.97 154.317 251.29 153.976C251.621 153.624 252.005 153.357 252.442 153.176C252.89 152.995 253.381 152.904 253.914 152.904C254.447 152.904 254.933 152.989 255.37 153.16C255.818 153.331 256.202 153.587 256.522 153.928C256.853 154.259 257.109 154.68 257.29 155.192C257.471 155.693 257.562 156.28 257.562 156.952C257.562 157.037 257.557 157.123 257.546 157.208C257.546 157.293 257.541 157.363 257.53 157.416H251.562C251.573 157.907 251.69 158.355 251.914 158.76C252.138 159.165 252.437 159.491 252.81 159.736C253.194 159.971 253.621 160.088 254.09 160.088C254.655 160.088 255.125 159.976 255.498 159.752C255.871 159.528 256.181 159.256 256.426 158.936L257.194 159.72C256.863 160.168 256.442 160.525 255.93 160.792C255.418 161.059 254.783 161.192 254.026 161.192ZM253.914 153.96C253.413 153.96 252.991 154.077 252.65 154.312C252.309 154.547 252.047 154.845 251.866 155.208C251.695 155.571 251.605 155.949 251.594 156.344H256.218C256.207 155.949 256.111 155.571 255.93 155.208C255.759 154.845 255.503 154.547 255.162 154.312C254.831 154.077 254.415 153.96 253.914 153.96ZM258.512 161L261.28 156.984L258.64 153.096H260.176L262.048 156.056H262.112L264.048 153.096H265.424L262.784 156.92L265.552 161H264.016L262.016 157.848H261.952L259.888 161H258.512ZM269.87 161.192C269.401 161.192 269.011 161.096 268.702 160.904C268.393 160.712 268.163 160.435 268.014 160.072C267.875 159.709 267.806 159.283 267.806 158.792V154.136H266.398V153.096H267.806V150.952H269.07V153.096H271.358V154.136H269.07V158.68C269.07 159.192 269.166 159.549 269.358 159.752C269.561 159.955 269.817 160.056 270.126 160.056C270.339 160.056 270.531 160.019 270.702 159.944C270.873 159.859 271.033 159.747 271.182 159.608L271.758 160.504C271.513 160.739 271.23 160.909 270.91 161.016C270.601 161.133 270.254 161.192 269.87 161.192ZM59.504 185.192C58.8213 185.192 58.2347 185.075 57.744 184.84C57.2533 184.605 56.8693 184.301 56.592 183.928L57.44 183.128C57.6853 183.416 57.968 183.651 58.288 183.832C58.6187 184.013 59.0293 184.104 59.52 184.104C59.9573 184.104 60.3413 184.013 60.672 183.832C61.0027 183.64 61.168 183.347 61.168 182.952C61.168 182.643 61.072 182.403 60.88 182.232C60.6987 182.051 60.4587 181.907 60.16 181.8C59.8613 181.683 59.5413 181.576 59.2 181.48C58.8053 181.363 58.432 181.219 58.08 181.048C57.7387 180.867 57.456 180.632 57.232 180.344C57.0187 180.045 56.912 179.667 56.912 179.208C56.912 178.707 57.0293 178.285 57.264 177.944C57.5093 177.603 57.8347 177.347 58.24 177.176C58.656 176.995 59.12 176.904 59.632 176.904C60.1973 176.904 60.7253 177.011 61.216 177.224C61.7067 177.427 62.1013 177.747 62.4 178.184L61.568 178.952C61.3333 178.675 61.056 178.445 60.736 178.264C60.4267 178.083 60.0587 177.992 59.632 177.992C59.2693 177.992 58.9333 178.083 58.624 178.264C58.3147 178.435 58.16 178.712 58.16 179.096C58.16 179.405 58.2507 179.651 58.432 179.832C58.624 180.003 58.8693 180.141 59.168 180.248C59.4667 180.355 59.7867 180.461 60.128 180.568C60.5227 180.685 60.8907 180.835 61.232 181.016C61.584 181.187 61.8667 181.416 62.08 181.704C62.304 181.992 62.416 182.371 62.416 182.84C62.416 183.384 62.2827 183.832 62.016 184.184C61.7493 184.525 61.392 184.781 60.944 184.952C60.5067 185.112 60.0267 185.192 59.504 185.192ZM67.6336 185.192C66.7803 185.192 66.0816 184.995 65.5376 184.6C64.9936 184.205 64.5936 183.693 64.3376 183.064C64.0923 182.424 63.9696 181.752 63.9696 181.048C63.9696 180.333 64.0923 179.661 64.3376 179.032C64.583 178.403 64.9723 177.891 65.5056 177.496C66.0496 177.101 66.7483 176.904 67.6016 176.904C68.263 176.904 68.807 177.016 69.2336 177.24C69.671 177.464 70.039 177.763 70.3376 178.136L69.5376 178.888C69.2816 178.611 69.0096 178.397 68.7216 178.248C68.4443 178.088 68.0816 178.008 67.6336 178.008C67.175 178.008 66.7643 178.131 66.4016 178.376C66.0496 178.621 65.7723 178.973 65.5696 179.432C65.3776 179.88 65.2816 180.419 65.2816 181.048C65.2816 181.987 65.5056 182.728 65.9536 183.272C66.4016 183.816 66.9723 184.088 67.6656 184.088C68.0923 184.088 68.4603 184.013 68.7696 183.864C69.079 183.704 69.367 183.475 69.6336 183.176L70.4016 183.944C70.103 184.317 69.7243 184.621 69.2656 184.856C68.8176 185.08 68.2736 185.192 67.6336 185.192ZM74.0103 185.192C73.5303 185.192 73.0983 185.091 72.7143 184.888C72.3409 184.685 72.0476 184.403 71.8343 184.04C71.6209 183.677 71.5143 183.261 71.5143 182.792C71.5143 182.333 71.6209 181.939 71.8343 181.608C72.0583 181.267 72.3836 180.995 72.8103 180.792C73.2369 180.589 73.7489 180.472 74.3463 180.44L76.4263 180.312V179.752C76.4263 179.347 76.3569 179.021 76.2183 178.776C76.0903 178.52 75.8983 178.333 75.6423 178.216C75.3969 178.088 75.0929 178.024 74.7303 178.024C74.2716 178.024 73.8769 178.109 73.5463 178.28C73.2156 178.451 72.9596 178.637 72.7783 178.84L72.0103 178.072C72.2876 177.731 72.6663 177.453 73.1463 177.24C73.6263 177.016 74.1649 176.904 74.7623 176.904C75.4876 176.904 76.0636 177.027 76.4903 177.272C76.9169 177.517 77.2209 177.848 77.4023 178.264C77.5943 178.669 77.6903 179.123 77.6903 179.624V185H76.4903V183.656H76.3943C76.1916 184.125 75.8929 184.499 75.4983 184.776C75.1036 185.053 74.6076 185.192 74.0103 185.192ZM74.2023 184.104C74.8636 184.104 75.3969 183.912 75.8023 183.528C76.2183 183.133 76.4263 182.611 76.4263 181.96V181.272L74.4103 181.416C73.8876 181.459 73.4876 181.592 73.2103 181.816C72.9436 182.04 72.8103 182.355 72.8103 182.76C72.8103 183.165 72.9383 183.491 73.1943 183.736C73.4609 183.981 73.7969 184.104 74.2023 184.104ZM80.2663 185V173.4H81.5463V185H80.2663ZM84.2663 185V177.096H85.5463V185H84.2663ZM84.9062 175.816C84.6396 175.816 84.4316 175.736 84.2823 175.576C84.1329 175.416 84.0583 175.224 84.0583 175C84.0583 174.787 84.1329 174.6 84.2823 174.44C84.4316 174.269 84.6396 174.184 84.9062 174.184C85.1623 174.184 85.3649 174.269 85.5143 174.44C85.6743 174.6 85.7543 174.787 85.7543 175C85.7543 175.224 85.6743 175.416 85.5143 175.576C85.3649 175.736 85.1623 175.816 84.9062 175.816ZM88.2663 185V177.096H89.4823V178.344H89.5783C89.7063 178.067 89.8716 177.821 90.0743 177.608C90.2769 177.384 90.5169 177.213 90.7943 177.096C91.0716 176.968 91.3863 176.904 91.7383 176.904C92.6449 176.904 93.3596 177.144 93.8823 177.624C94.4156 178.093 94.6823 178.867 94.6823 179.944V185H93.4023V180.184C93.4023 179.373 93.2369 178.803 92.9063 178.472C92.5863 178.131 92.1116 177.96 91.4823 177.96C90.8849 177.96 90.4103 178.168 90.0583 178.584C89.7169 179 89.5463 179.608 89.5463 180.408V185H88.2663ZM100.403 188.152C99.72 188.152 99.128 188.029 98.6266 187.784C98.1253 187.549 97.7253 187.256 97.4266 186.904L98.2746 186.088C98.4986 186.355 98.792 186.573 99.1546 186.744C99.5173 186.915 99.912 187 100.339 187C100.797 187 101.187 186.925 101.507 186.776C101.837 186.637 102.088 186.403 102.259 186.072C102.44 185.752 102.531 185.315 102.531 184.76V183.224H102.435C102.275 183.747 101.96 184.163 101.491 184.472C101.032 184.771 100.531 184.92 99.9866 184.92C99.3253 184.92 98.7386 184.76 98.2266 184.44C97.7146 184.12 97.3146 183.661 97.0266 183.064C96.7386 182.456 96.5946 181.731 96.5946 180.888C96.5946 180.067 96.7386 179.357 97.0266 178.76C97.3146 178.163 97.7146 177.704 98.2266 177.384C98.7386 177.064 99.3253 176.904 99.9866 176.904C100.573 176.904 101.096 177.059 101.555 177.368C102.024 177.667 102.339 178.083 102.499 178.616H102.595V177.096H103.811V184.92C103.811 185.56 103.677 186.12 103.411 186.6C103.155 187.091 102.771 187.469 102.259 187.736C101.757 188.013 101.139 188.152 100.403 188.152ZM100.243 183.768C100.712 183.768 101.117 183.656 101.459 183.432C101.8 183.208 102.061 182.883 102.243 182.456C102.435 182.029 102.531 181.512 102.531 180.904C102.531 180.285 102.435 179.768 102.243 179.352C102.061 178.925 101.8 178.605 101.459 178.392C101.117 178.168 100.712 178.056 100.243 178.056C99.7733 178.056 99.3626 178.168 99.0106 178.392C98.6586 178.605 98.3866 178.925 98.1946 179.352C98.0026 179.768 97.9066 180.285 97.9066 180.904C97.9066 181.512 98.0026 182.029 98.1946 182.456C98.3866 182.883 98.6586 183.208 99.0106 183.432C99.3626 183.656 99.7733 183.768 100.243 183.768Z" fill="black" fill-opacity="0.64"/>
<rect width="340" height="1" transform="translate(0 207)" fill="white" fill-opacity="0.01"/>
<rect width="340" height="1" transform="translate(0 207)" fill="black" fill-opacity="0.08"/>
<rect width="380" height="292" transform="translate(420)" fill="white"/>
<g clip-path="url(#clip1_42341_3093)">
<path d="M483.752 18L484 18.248V65.752L483.752 66H436.248L436 65.752V18.248L436.248 18H483.752ZM436.496 18.4961V65.502H483.502V18.4961H436.496ZM474.194 21C477.953 21 481 24.0471 481 27.8057V56.1943C481 59.9529 477.953 63 474.194 63H445.806C442.047 63 439 59.9529 439 56.1943V27.8057C439 24.0471 442.047 21 445.806 21H474.194Z" fill="black" fill-opacity="0.76"/>
</g>
<path d="M501.52 53.44L513.44 37.4H501.92V32H522.16V36.56L510.4 52.6H522.56V58H501.52V53.44ZM535.03 58.48C533.323 58.48 531.817 58.2133 530.51 57.68C529.23 57.12 528.163 56.3733 527.31 55.44C526.457 54.48 525.803 53.3733 525.35 52.12C524.923 50.8667 524.71 49.5333 524.71 48.12C524.71 46.7067 524.923 45.3733 525.35 44.12C525.803 42.8667 526.457 41.7733 527.31 40.84C528.163 39.88 529.23 39.1333 530.51 38.6C531.817 38.04 533.323 37.76 535.03 37.76C536.737 37.76 538.23 38.04 539.51 38.6C540.79 39.1333 541.857 39.88 542.71 40.84C543.563 41.7733 544.203 42.8667 544.63 44.12C545.083 45.3733 545.31 46.7067 545.31 48.12C545.31 49.5333 545.083 50.8667 544.63 52.12C544.203 53.3733 543.563 54.48 542.71 55.44C541.857 56.3733 540.79 57.12 539.51 57.68C538.23 58.2133 536.737 58.48 535.03 58.48ZM531.19 48.12C531.19 49.8267 531.55 51.1333 532.27 52.04C532.99 52.9467 533.91 53.4 535.03 53.4C536.15 53.4 537.057 52.9467 537.75 52.04C538.47 51.1333 538.83 49.8267 538.83 48.12C538.83 46.4133 538.47 45.1067 537.75 44.2C537.057 43.2933 536.15 42.84 535.03 42.84C533.91 42.84 532.99 43.2933 532.27 44.2C531.55 45.1067 531.19 46.4133 531.19 48.12ZM557.569 58.48C555.862 58.48 554.356 58.2133 553.049 57.68C551.769 57.12 550.702 56.3733 549.849 55.44C548.996 54.48 548.342 53.3733 547.889 52.12C547.462 50.8667 547.249 49.5333 547.249 48.12C547.249 46.7067 547.462 45.3733 547.889 44.12C548.342 42.8667 548.996 41.7733 549.849 40.84C550.702 39.88 551.769 39.1333 553.049 38.6C554.356 38.04 555.862 37.76 557.569 37.76C559.276 37.76 560.769 38.04 562.049 38.6C563.329 39.1333 564.396 39.88 565.249 40.84C566.102 41.7733 566.742 42.8667 567.169 44.12C567.622 45.3733 567.849 46.7067 567.849 48.12C567.849 49.5333 567.622 50.8667 567.169 52.12C566.742 53.3733 566.102 54.48 565.249 55.44C564.396 56.3733 563.329 57.12 562.049 57.68C560.769 58.2133 559.276 58.48 557.569 58.48ZM553.729 48.12C553.729 49.8267 554.089 51.1333 554.809 52.04C555.529 52.9467 556.449 53.4 557.569 53.4C558.689 53.4 559.596 52.9467 560.289 52.04C561.009 51.1333 561.369 49.8267 561.369 48.12C561.369 46.4133 561.009 45.1067 560.289 44.2C559.596 43.2933 558.689 42.84 557.569 42.84C556.449 42.84 555.529 43.2933 554.809 44.2C554.089 45.1067 553.729 46.4133 553.729 48.12ZM570.948 38.24H576.908V41.12H577.148C577.681 40.1067 578.428 39.2933 579.388 38.68C580.348 38.0667 581.495 37.76 582.828 37.76C584.588 37.76 585.948 38.0933 586.908 38.76C587.895 39.4 588.601 40.36 589.028 41.64C589.481 40.52 590.255 39.6 591.348 38.88C592.468 38.1333 593.735 37.76 595.148 37.76C597.655 37.76 599.415 38.4667 600.428 39.88C601.441 41.2933 601.948 43.32 601.948 45.96V58H595.588V47C595.588 45.8533 595.375 44.9333 594.948 44.24C594.521 43.52 593.761 43.16 592.668 43.16C591.601 43.16 590.828 43.5067 590.348 44.2C589.868 44.8667 589.628 45.8 589.628 47V58H583.268V47C583.268 45.8533 583.055 44.9333 582.628 44.24C582.228 43.52 581.468 43.16 580.348 43.16C579.308 43.16 578.535 43.5067 578.028 44.2C577.548 44.8667 577.308 45.8 577.308 47V58H570.948V38.24ZM511.52 108.04C511.52 107.48 511.133 107.093 510.36 106.88C509.587 106.64 508.52 106.373 507.16 106.08C506.387 105.92 505.653 105.693 504.96 105.4C504.267 105.08 503.653 104.693 503.12 104.24C502.587 103.76 502.16 103.187 501.84 102.52C501.52 101.853 501.36 101.053 501.36 100.12C501.36 99.1067 501.573 98.2133 502 97.44C502.427 96.64 503.013 95.9733 503.76 95.44C504.533 94.88 505.44 94.4667 506.48 94.2C507.52 93.9067 508.667 93.76 509.92 93.76C511.893 93.76 513.547 94.04 514.88 94.6C516.213 95.16 517.2 95.8267 517.84 96.6L514.52 100.2C514.04 99.6933 513.413 99.28 512.64 98.96C511.867 98.64 511.107 98.48 510.36 98.48C509.667 98.48 509.067 98.6 508.56 98.84C508.053 99.0533 507.8 99.44 507.8 100C507.8 100.56 508.187 100.96 508.96 101.2C509.733 101.413 510.8 101.667 512.16 101.96C512.933 102.12 513.667 102.36 514.36 102.68C515.053 102.973 515.667 103.36 516.2 103.84C516.733 104.293 517.16 104.867 517.48 105.56C517.8 106.227 517.96 107.013 517.96 107.92C517.96 108.96 517.747 109.893 517.32 110.72C516.893 111.52 516.293 112.2 515.52 112.76C514.747 113.32 513.813 113.747 512.72 114.04C511.653 114.333 510.48 114.48 509.2 114.48C507.093 114.48 505.32 114.213 503.88 113.68C502.44 113.12 501.373 112.427 500.68 111.6L503.84 108C504.453 108.613 505.213 109.067 506.12 109.36C507.027 109.627 507.933 109.76 508.84 109.76C509.693 109.76 510.347 109.613 510.8 109.32C511.28 109.027 511.52 108.6 511.52 108.04ZM530.023 114.48C528.289 114.48 526.796 114.2 525.543 113.64C524.316 113.053 523.289 112.293 522.463 111.36C521.663 110.4 521.063 109.293 520.663 108.04C520.289 106.787 520.103 105.48 520.103 104.12C520.103 102.76 520.289 101.453 520.663 100.2C521.036 98.9467 521.623 97.8533 522.423 96.92C523.223 95.96 524.236 95.2 525.463 94.64C526.689 94.0533 528.156 93.76 529.863 93.76C531.463 93.76 532.876 94.0667 534.103 94.68C535.329 95.2933 536.316 96.04 537.063 96.92L532.783 100.8C532.436 100.347 532.036 100 531.583 99.76C531.129 99.4933 530.583 99.36 529.943 99.36C528.823 99.36 527.983 99.7733 527.423 100.6C526.863 101.427 526.583 102.6 526.583 104.12C526.583 105.64 526.876 106.813 527.463 107.64C528.049 108.467 528.903 108.88 530.023 108.88C530.636 108.88 531.196 108.747 531.703 108.48C532.236 108.213 532.649 107.853 532.943 107.4L537.223 111.28C536.503 112.16 535.516 112.92 534.263 113.56C533.036 114.173 531.623 114.48 530.023 114.48ZM545.213 114.48C544.333 114.48 543.48 114.347 542.653 114.08C541.853 113.813 541.147 113.427 540.533 112.92C539.947 112.387 539.467 111.747 539.093 111C538.747 110.253 538.573 109.4 538.573 108.44C538.573 106.627 539.213 105.2 540.493 104.16C541.8 103.12 543.84 102.52 546.613 102.36L550.813 102.12V101.8C550.813 101.24 550.693 100.787 550.453 100.44C550.24 100.093 549.947 99.8267 549.573 99.64C549.227 99.4267 548.813 99.28 548.333 99.2C547.88 99.12 547.413 99.08 546.933 99.08C546.187 99.08 545.427 99.2133 544.653 99.48C543.88 99.7467 543.307 100.12 542.933 100.6L539.453 97C540.173 96.0933 541.227 95.3333 542.613 94.72C544 94.08 545.813 93.76 548.053 93.76C550.907 93.76 553.133 94.4133 554.733 95.72C556.36 97.0267 557.173 98.9067 557.173 101.36V114H551.213V110.96H550.973C550.467 112 549.733 112.853 548.773 113.52C547.84 114.16 546.653 114.48 545.213 114.48ZM547.373 110.16C548.387 110.16 549.213 109.893 549.853 109.36C550.493 108.8 550.813 107.96 550.813 106.84V105.8L547.493 106.04C546.64 106.093 546 106.307 545.573 106.68C545.173 107.053 544.973 107.547 544.973 108.16C544.973 108.853 545.2 109.36 545.653 109.68C546.133 110 546.707 110.16 547.373 110.16ZM561.143 85H567.503V114H561.143V85ZM578.529 88.56C578.529 89.4667 578.223 90.28 577.609 91C576.996 91.6933 576.103 92.04 574.929 92.04C573.729 92.04 572.836 91.6933 572.249 91C571.663 90.28 571.369 89.4667 571.369 88.56C571.369 87.6533 571.663 86.8533 572.249 86.16C572.836 85.44 573.729 85.08 574.929 85.08C576.103 85.08 576.996 85.44 577.609 86.16C578.223 86.8533 578.529 87.6533 578.529 88.56ZM571.729 94.24H578.089V114H571.729V94.24ZM582.315 94.24H588.275V97.52H588.515C588.915 96.4267 589.635 95.5333 590.675 94.84C591.742 94.12 592.955 93.76 594.315 93.76C595.622 93.76 596.715 93.9467 597.595 94.32C598.502 94.6667 599.222 95.1867 599.755 95.88C600.289 96.5733 600.662 97.44 600.875 98.48C601.115 99.4933 601.235 100.653 601.235 101.96V114H594.875V103.24C594.875 101.987 594.662 101 594.235 100.28C593.809 99.5333 593.009 99.16 591.835 99.16C590.715 99.16 589.902 99.5067 589.395 100.2C588.915 100.893 588.675 101.907 588.675 103.24V114H582.315V94.24ZM613.604 121.88C611.871 121.88 610.311 121.573 608.924 120.96C607.537 120.373 606.524 119.653 605.884 118.8L609.604 115C609.951 115.453 610.511 115.827 611.284 116.12C612.057 116.44 612.844 116.6 613.644 116.6C614.151 116.6 614.657 116.547 615.164 116.44C615.671 116.333 616.124 116.147 616.524 115.88C616.924 115.613 617.244 115.253 617.484 114.8C617.751 114.347 617.884 113.773 617.884 113.08V109.36H617.724C617.297 110.4 616.617 111.267 615.684 111.96C614.751 112.627 613.537 112.96 612.044 112.96C610.844 112.96 609.764 112.733 608.804 112.28C607.844 111.8 607.017 111.133 606.324 110.28C605.657 109.4 605.137 108.36 604.764 107.16C604.391 105.96 604.204 104.64 604.204 103.2C604.204 101.787 604.391 100.507 604.764 99.36C605.137 98.1867 605.671 97.2 606.364 96.4C607.057 95.5733 607.884 94.9333 608.844 94.48C609.831 94.0267 610.924 93.8 612.124 93.8C613.617 93.8 614.844 94.1333 615.804 94.8C616.791 95.44 617.524 96.3467 618.004 97.52H618.244V94.24H624.244V113.2C624.244 114.613 623.991 115.853 623.484 116.92C622.977 118.013 622.257 118.92 621.324 119.64C620.391 120.387 619.271 120.947 617.964 121.32C616.657 121.693 615.204 121.88 613.604 121.88ZM614.284 107.8C614.897 107.8 615.431 107.68 615.884 107.44C616.337 107.173 616.711 106.84 617.004 106.44C617.297 106.013 617.511 105.533 617.644 105C617.804 104.467 617.884 103.907 617.884 103.32C617.884 102.733 617.804 102.173 617.644 101.64C617.511 101.107 617.297 100.64 617.004 100.24C616.711 99.8133 616.337 99.48 615.884 99.24C615.431 98.9733 614.897 98.84 614.284 98.84C613.671 98.84 613.137 98.9733 612.684 99.24C612.231 99.48 611.857 99.8133 611.564 100.24C611.271 100.64 611.044 101.107 610.884 101.64C610.751 102.173 610.684 102.733 610.684 103.32C610.684 103.907 610.751 104.467 610.884 105C611.044 105.533 611.271 106.013 611.564 106.44C611.857 106.84 612.231 107.173 612.684 107.44C613.137 107.68 613.671 107.8 614.284 107.8Z" fill="black" fill-opacity="0.76"/>
<path d="M508.288 146.2H511.84L519.328 167H516.416L514.784 162.424H505.216L503.584 167H500.832L508.288 146.2ZM506.016 160.12H513.984L510.08 148.472H509.888L506.016 160.12ZM522.876 151.192H525.308V153.688H525.5C525.884 152.856 526.428 152.173 527.132 151.64C527.836 151.085 528.732 150.808 529.82 150.808C531.634 150.808 533.063 151.288 534.108 152.248C535.175 153.208 535.708 154.755 535.708 156.888V167H533.148V157.368C533.148 155.747 532.818 154.605 532.156 153.944C531.516 153.261 530.567 152.92 529.308 152.92C528.092 152.92 527.143 153.336 526.46 154.168C525.778 155 525.436 156.216 525.436 157.816V167H522.876V151.192ZM554.709 167.384C553.578 167.384 552.543 167.192 551.605 166.808C550.687 166.424 549.898 165.88 549.237 165.176C548.597 164.451 548.095 163.576 547.733 162.552C547.391 161.528 547.221 160.376 547.221 159.096C547.221 157.752 547.402 156.568 547.765 155.544C548.127 154.499 548.629 153.635 549.269 152.952C549.909 152.248 550.666 151.715 551.541 151.352C552.437 150.989 553.418 150.808 554.485 150.808C555.551 150.808 556.533 150.979 557.429 151.32C558.325 151.661 559.093 152.173 559.733 152.856C560.373 153.517 560.874 154.36 561.237 155.384C561.599 156.387 561.781 157.56 561.781 158.904C561.781 159.075 561.77 159.245 561.749 159.416C561.749 159.587 561.738 159.725 561.717 159.832H549.781C549.781 160.579 549.909 161.283 550.165 161.944C550.442 162.584 550.805 163.149 551.253 163.64C551.722 164.109 552.255 164.483 552.853 164.76C553.471 165.037 554.133 165.176 554.837 165.176C555.989 165.176 556.927 164.952 557.653 164.504C558.399 164.056 559.018 163.512 559.509 162.872L561.045 164.44C560.362 165.336 559.509 166.051 558.485 166.584C557.482 167.117 556.223 167.384 554.709 167.384ZM554.485 152.92C553.738 152.92 553.077 153.059 552.501 153.336C551.925 153.613 551.445 153.976 551.061 154.424C550.677 154.872 550.378 155.384 550.165 155.96C549.973 156.536 549.866 157.112 549.845 157.688H559.093C559.071 157.112 558.954 156.536 558.741 155.96C558.549 155.384 558.261 154.872 557.877 154.424C557.493 153.976 557.013 153.613 556.437 153.336C555.882 153.059 555.231 152.92 554.485 152.92ZM569.217 158.968L563.937 151.192H567.009L570.753 157.112H570.881L574.753 151.192H577.505L572.225 158.84L577.761 167H574.689L570.689 160.696H570.561L566.433 167H563.681L569.217 158.968ZM584.771 167.384C584.045 167.384 583.373 167.267 582.755 167.032C582.157 166.797 581.635 166.467 581.187 166.04C580.739 165.613 580.387 165.112 580.131 164.536C579.896 163.939 579.779 163.288 579.779 162.584C579.779 161.219 580.269 160.12 581.251 159.288C582.232 158.456 583.629 157.987 585.443 157.88L589.603 157.624V156.504C589.603 155.288 589.304 154.413 588.707 153.88C588.131 153.325 587.299 153.048 586.211 153.048C585.293 153.048 584.504 153.219 583.843 153.56C583.181 153.901 582.669 154.275 582.307 154.68L580.771 153.144C581.325 152.461 582.072 151.907 583.011 151.48C583.971 151.032 585.059 150.808 586.275 150.808C587.363 150.808 588.28 150.957 589.027 151.256C589.773 151.533 590.371 151.917 590.819 152.408C591.288 152.899 591.619 153.475 591.811 154.136C592.024 154.797 592.131 155.501 592.131 156.248V167H589.731V164.312H589.539C589.112 165.272 588.515 166.029 587.747 166.584C586.979 167.117 585.987 167.384 584.771 167.384ZM585.155 165.208C586.477 165.208 587.544 164.824 588.355 164.056C589.187 163.267 589.603 162.221 589.603 160.92V159.544L585.571 159.832C583.437 160.003 582.371 160.899 582.371 162.52C582.371 163.331 582.627 163.981 583.139 164.472C583.672 164.963 584.344 165.208 585.155 165.208ZM597.283 151.192H599.715V153.688H599.907C600.291 152.856 600.824 152.173 601.507 151.64C602.211 151.085 603.085 150.808 604.131 150.808C605.389 150.808 606.445 151.043 607.299 151.512C608.173 151.96 608.824 152.643 609.251 153.56C609.72 152.664 610.349 151.981 611.139 151.512C611.928 151.043 612.931 150.808 614.147 150.808C615.021 150.808 615.811 150.925 616.515 151.16C617.219 151.395 617.816 151.757 618.307 152.248C618.819 152.739 619.203 153.368 619.459 154.136C619.736 154.904 619.875 155.821 619.875 156.888V167H617.315V157.368C617.315 155.747 616.995 154.605 616.355 153.944C615.736 153.261 614.819 152.92 613.603 152.92C612.429 152.92 611.512 153.336 610.851 154.168C610.189 155 609.859 156.216 609.859 157.816V167H607.299V157.368C607.299 155.747 606.979 154.605 606.339 153.944C605.72 153.261 604.803 152.92 603.587 152.92C602.435 152.92 601.517 153.336 600.835 154.168C600.173 155 599.843 156.216 599.843 157.816V167H597.283V151.192ZM625.033 151.192H627.465V154.424H627.657C627.849 153.891 628.115 153.4 628.457 152.952C628.819 152.504 629.235 152.12 629.705 151.8C630.195 151.48 630.729 151.235 631.305 151.064C631.902 150.893 632.521 150.808 633.161 150.808C634.206 150.808 635.155 151.021 636.009 151.448C636.883 151.853 637.63 152.429 638.249 153.176C638.867 153.901 639.337 154.776 639.657 155.8C639.998 156.824 640.169 157.933 640.169 159.128C640.169 160.323 639.998 161.432 639.657 162.456C639.337 163.459 638.867 164.333 638.249 165.08C637.63 165.805 636.883 166.371 636.009 166.776C635.155 167.181 634.206 167.384 633.161 167.384C631.859 167.384 630.739 167.075 629.801 166.456C628.862 165.837 628.19 165.048 627.785 164.088H627.593V172.92H625.033V151.192ZM632.521 165.08C633.225 165.08 633.875 164.963 634.473 164.728C635.091 164.472 635.625 164.099 636.073 163.608C636.542 163.096 636.905 162.467 637.161 161.72C637.417 160.973 637.545 160.099 637.545 159.096C637.545 158.093 637.417 157.219 637.161 156.472C636.905 155.725 636.542 155.107 636.073 154.616C635.625 154.104 635.091 153.731 634.473 153.496C633.875 153.24 633.225 153.112 632.521 153.112C631.838 153.112 631.198 153.24 630.601 153.496C630.003 153.731 629.481 154.104 629.033 154.616C628.585 155.107 628.233 155.725 627.977 156.472C627.721 157.219 627.593 158.093 627.593 159.096C627.593 160.099 627.721 160.973 627.977 161.72C628.233 162.467 628.585 163.096 629.033 163.608C629.481 164.099 630.003 164.472 630.601 164.728C631.198 164.963 631.838 165.08 632.521 165.08ZM644.283 143.8H646.843V167H644.283V143.8ZM658.459 167.384C657.328 167.384 656.293 167.192 655.355 166.808C654.437 166.424 653.648 165.88 652.987 165.176C652.347 164.451 651.845 163.576 651.483 162.552C651.141 161.528 650.971 160.376 650.971 159.096C650.971 157.752 651.152 156.568 651.515 155.544C651.877 154.499 652.379 153.635 653.019 152.952C653.659 152.248 654.416 151.715 655.291 151.352C656.187 150.989 657.168 150.808 658.235 150.808C659.301 150.808 660.283 150.979 661.179 151.32C662.075 151.661 662.843 152.173 663.483 152.856C664.123 153.517 664.624 154.36 664.987 155.384C665.349 156.387 665.531 157.56 665.531 158.904C665.531 159.075 665.52 159.245 665.499 159.416C665.499 159.587 665.488 159.725 665.467 159.832H653.531C653.531 160.579 653.659 161.283 653.915 161.944C654.192 162.584 654.555 163.149 655.003 163.64C655.472 164.109 656.005 164.483 656.603 164.76C657.221 165.037 657.883 165.176 658.587 165.176C659.739 165.176 660.677 164.952 661.403 164.504C662.149 164.056 662.768 163.512 663.259 162.872L664.795 164.44C664.112 165.336 663.259 166.051 662.235 166.584C661.232 167.117 659.973 167.384 658.459 167.384ZM658.235 152.92C657.488 152.92 656.827 153.059 656.251 153.336C655.675 153.613 655.195 153.976 654.811 154.424C654.427 154.872 654.128 155.384 653.915 155.96C653.723 156.536 653.616 157.112 653.595 157.688H662.843C662.821 157.112 662.704 156.536 662.491 155.96C662.299 155.384 662.011 154.872 661.627 154.424C661.243 153.976 660.763 153.613 660.187 153.336C659.632 153.059 658.981 152.92 658.235 152.92ZM678.145 153.272H675.329V151.192H678.145V148.408C678.145 146.872 678.529 145.656 679.297 144.76C680.086 143.864 681.249 143.416 682.785 143.416C683.169 143.416 683.564 143.459 683.969 143.544C684.374 143.608 684.726 143.715 685.025 143.864L684.161 145.88C684.012 145.795 683.809 145.731 683.553 145.688C683.297 145.624 683.073 145.592 682.881 145.592C682.198 145.592 681.665 145.827 681.281 146.296C680.897 146.765 680.705 147.48 680.705 148.44V151.192H684.929V153.272H680.705V167H678.145V153.272ZM694.116 167.384C692.858 167.384 691.748 167.171 690.788 166.744C689.85 166.296 689.06 165.699 688.42 164.952C687.802 164.205 687.332 163.331 687.012 162.328C686.714 161.325 686.564 160.248 686.564 159.096C686.564 157.944 686.714 156.867 687.012 155.864C687.332 154.861 687.802 153.987 688.42 153.24C689.06 152.493 689.85 151.907 690.788 151.48C691.748 151.032 692.858 150.808 694.116 150.808C695.375 150.808 696.463 151.032 697.38 151.48C698.319 151.907 699.098 152.493 699.716 153.24C700.335 153.987 700.794 154.861 701.092 155.864C701.412 156.867 701.572 157.944 701.572 159.096C701.572 160.248 701.412 161.325 701.092 162.328C700.794 163.331 700.335 164.205 699.716 164.952C699.098 165.699 698.319 166.296 697.38 166.744C696.463 167.171 695.375 167.384 694.116 167.384ZM689.188 159.096C689.188 160.013 689.284 160.856 689.476 161.624C689.69 162.371 689.999 163.021 690.404 163.576C690.81 164.109 691.322 164.525 691.94 164.824C692.559 165.123 693.284 165.272 694.116 165.272C694.927 165.272 695.631 165.123 696.228 164.824C696.847 164.525 697.348 164.109 697.732 163.576C698.138 163.021 698.436 162.371 698.628 161.624C698.842 160.856 698.948 160.013 698.948 159.096C698.948 158.179 698.842 157.347 698.628 156.6C698.436 155.832 698.138 155.181 697.732 154.648C697.348 154.093 696.847 153.667 696.228 153.368C695.631 153.069 694.927 152.92 694.116 152.92C693.284 152.92 692.559 153.069 691.94 153.368C691.322 153.667 690.81 154.093 690.404 154.648C689.999 155.181 689.69 155.832 689.476 156.6C689.284 157.347 689.188 158.179 689.188 159.096ZM705.689 151.192H708.121V153.752H708.313C708.654 152.92 709.145 152.227 709.785 151.672C710.425 151.096 711.225 150.808 712.185 150.808C712.995 150.808 713.71 150.968 714.329 151.288L713.465 153.592C713.187 153.443 712.889 153.347 712.569 153.304C712.27 153.24 711.961 153.208 711.641 153.208C710.595 153.208 709.763 153.635 709.145 154.488C708.547 155.32 708.249 156.387 708.249 157.688V167H705.689V151.192ZM506.208 215.384C505.483 215.384 504.811 215.267 504.192 215.032C503.595 214.797 503.072 214.467 502.624 214.04C502.176 213.613 501.824 213.112 501.568 212.536C501.333 211.939 501.216 211.288 501.216 210.584C501.216 209.219 501.707 208.12 502.688 207.288C503.669 206.456 505.067 205.987 506.88 205.88L511.04 205.624V204.504C511.04 203.288 510.741 202.413 510.144 201.88C509.568 201.325 508.736 201.048 507.648 201.048C506.731 201.048 505.941 201.219 505.28 201.56C504.619 201.901 504.107 202.275 503.744 202.68L502.208 201.144C502.763 200.461 503.509 199.907 504.448 199.48C505.408 199.032 506.496 198.808 507.712 198.808C508.8 198.808 509.717 198.957 510.464 199.256C511.211 199.533 511.808 199.917 512.256 200.408C512.725 200.899 513.056 201.475 513.248 202.136C513.461 202.797 513.568 203.501 513.568 204.248V215H511.168V212.312H510.976C510.549 213.272 509.952 214.029 509.184 214.584C508.416 215.117 507.424 215.384 506.208 215.384ZM506.592 213.208C507.915 213.208 508.981 212.824 509.792 212.056C510.624 211.267 511.04 210.221 511.04 208.92V207.544L507.008 207.832C504.875 208.003 503.808 208.899 503.808 210.52C503.808 211.331 504.064 211.981 504.576 212.472C505.109 212.963 505.781 213.208 506.592 213.208ZM524.736 215.384C523.456 215.384 522.347 215.149 521.408 214.68C520.491 214.211 519.733 213.592 519.136 212.824C518.539 212.056 518.101 211.181 517.824 210.2C517.547 209.197 517.408 208.163 517.408 207.096C517.408 206.029 517.547 205.005 517.824 204.024C518.101 203.021 518.528 202.136 519.104 201.368C519.701 200.6 520.459 199.981 521.376 199.512C522.293 199.043 523.392 198.808 524.672 198.808C526.016 198.808 527.115 199.032 527.968 199.48C528.821 199.928 529.547 200.525 530.144 201.272L528.544 202.776C528.032 202.221 527.488 201.795 526.912 201.496C526.357 201.176 525.632 201.016 524.736 201.016C523.328 201.016 522.187 201.56 521.312 202.648C520.459 203.715 520.032 205.197 520.032 207.096C520.032 208.035 520.149 208.877 520.384 209.624C520.619 210.371 520.949 211.011 521.376 211.544C521.803 212.077 522.304 212.483 522.88 212.76C523.456 213.037 524.096 213.176 524.8 213.176C525.653 213.176 526.389 213.027 527.008 212.728C527.627 212.408 528.203 211.949 528.736 211.352L530.272 212.888C529.653 213.635 528.896 214.243 528 214.712C527.104 215.16 526.016 215.384 524.736 215.384ZM539.705 215.384C538.425 215.384 537.315 215.149 536.377 214.68C535.459 214.211 534.702 213.592 534.105 212.824C533.507 212.056 533.07 211.181 532.793 210.2C532.515 209.197 532.377 208.163 532.377 207.096C532.377 206.029 532.515 205.005 532.793 204.024C533.07 203.021 533.497 202.136 534.073 201.368C534.67 200.6 535.427 199.981 536.345 199.512C537.262 199.043 538.361 198.808 539.641 198.808C540.985 198.808 542.083 199.032 542.937 199.48C543.79 199.928 544.515 200.525 545.113 201.272L543.513 202.776C543.001 202.221 542.457 201.795 541.881 201.496C541.326 201.176 540.601 201.016 539.705 201.016C538.297 201.016 537.155 201.56 536.281 202.648C535.427 203.715 535.001 205.197 535.001 207.096C535.001 208.035 535.118 208.877 535.353 209.624C535.587 210.371 535.918 211.011 536.345 211.544C536.771 212.077 537.273 212.483 537.849 212.76C538.425 213.037 539.065 213.176 539.769 213.176C540.622 213.176 541.358 213.027 541.977 212.728C542.595 212.408 543.171 211.949 543.705 211.352L545.241 212.888C544.622 213.635 543.865 214.243 542.969 214.712C542.073 215.16 540.985 215.384 539.705 215.384ZM554.834 215.384C553.703 215.384 552.668 215.192 551.73 214.808C550.812 214.424 550.023 213.88 549.362 213.176C548.722 212.451 548.22 211.576 547.858 210.552C547.516 209.528 547.346 208.376 547.346 207.096C547.346 205.752 547.527 204.568 547.89 203.544C548.252 202.499 548.754 201.635 549.394 200.952C550.034 200.248 550.791 199.715 551.666 199.352C552.562 198.989 553.543 198.808 554.61 198.808C555.676 198.808 556.658 198.979 557.554 199.32C558.45 199.661 559.218 200.173 559.858 200.856C560.498 201.517 560.999 202.36 561.362 203.384C561.724 204.387 561.906 205.56 561.906 206.904C561.906 207.075 561.895 207.245 561.874 207.416C561.874 207.587 561.863 207.725 561.842 207.832H549.906C549.906 208.579 550.034 209.283 550.29 209.944C550.567 210.584 550.93 211.149 551.378 211.64C551.847 212.109 552.38 212.483 552.978 212.76C553.596 213.037 554.258 213.176 554.962 213.176C556.114 213.176 557.052 212.952 557.778 212.504C558.524 212.056 559.143 211.512 559.634 210.872L561.17 212.44C560.487 213.336 559.634 214.051 558.61 214.584C557.607 215.117 556.348 215.384 554.834 215.384ZM554.61 200.92C553.863 200.92 553.202 201.059 552.626 201.336C552.05 201.613 551.57 201.976 551.186 202.424C550.802 202.872 550.503 203.384 550.29 203.96C550.098 204.536 549.991 205.112 549.97 205.688H559.218C559.196 205.112 559.079 204.536 558.866 203.96C558.674 203.384 558.386 202.872 558.002 202.424C557.618 201.976 557.138 201.613 556.562 201.336C556.007 201.059 555.356 200.92 554.61 200.92ZM573.649 210.904C573.649 210.435 573.542 210.051 573.329 209.752C573.115 209.432 572.817 209.165 572.433 208.952C572.07 208.739 571.654 208.557 571.185 208.408C570.715 208.259 570.225 208.109 569.713 207.96C569.115 207.789 568.539 207.587 567.985 207.352C567.451 207.117 566.971 206.829 566.545 206.488C566.118 206.125 565.777 205.699 565.521 205.208C565.265 204.717 565.137 204.12 565.137 203.416C565.137 202.669 565.275 202.008 565.553 201.432C565.83 200.856 566.214 200.376 566.705 199.992C567.195 199.608 567.771 199.32 568.433 199.128C569.094 198.915 569.809 198.808 570.577 198.808C571.729 198.808 572.785 199.021 573.745 199.448C574.705 199.853 575.494 200.493 576.113 201.368L574.449 202.904C573.979 202.349 573.425 201.891 572.785 201.528C572.166 201.165 571.43 200.984 570.577 200.984C570.214 200.984 569.851 201.027 569.489 201.112C569.147 201.197 568.838 201.336 568.561 201.528C568.283 201.699 568.059 201.923 567.889 202.2C567.718 202.477 567.633 202.808 567.633 203.192C567.633 203.661 567.739 204.056 567.953 204.376C568.166 204.675 568.454 204.931 568.817 205.144C569.201 205.357 569.627 205.539 570.097 205.688C570.566 205.837 571.057 205.987 571.569 206.136C572.166 206.307 572.731 206.509 573.265 206.744C573.819 206.979 574.31 207.277 574.737 207.64C575.163 207.981 575.505 208.397 575.761 208.888C576.017 209.379 576.145 209.976 576.145 210.68C576.145 211.512 575.985 212.227 575.665 212.824C575.366 213.4 574.95 213.88 574.417 214.264C573.883 214.648 573.265 214.925 572.561 215.096C571.857 215.288 571.11 215.384 570.321 215.384C568.934 215.384 567.75 215.149 566.769 214.68C565.809 214.211 565.051 213.603 564.497 212.856L566.193 211.256C566.683 211.832 567.249 212.301 567.889 212.664C568.55 213.027 569.371 213.208 570.353 213.208C570.801 213.208 571.217 213.165 571.601 213.08C572.006 212.995 572.358 212.856 572.657 212.664C572.955 212.472 573.19 212.237 573.361 211.96C573.553 211.661 573.649 211.309 573.649 210.904ZM588.18 210.904C588.18 210.435 588.073 210.051 587.86 209.752C587.646 209.432 587.348 209.165 586.964 208.952C586.601 208.739 586.185 208.557 585.716 208.408C585.246 208.259 584.756 208.109 584.244 207.96C583.646 207.789 583.07 207.587 582.516 207.352C581.982 207.117 581.502 206.829 581.076 206.488C580.649 206.125 580.308 205.699 580.052 205.208C579.796 204.717 579.668 204.12 579.668 203.416C579.668 202.669 579.806 202.008 580.084 201.432C580.361 200.856 580.745 200.376 581.236 199.992C581.726 199.608 582.302 199.32 582.964 199.128C583.625 198.915 584.34 198.808 585.108 198.808C586.26 198.808 587.316 199.021 588.276 199.448C589.236 199.853 590.025 200.493 590.644 201.368L588.98 202.904C588.51 202.349 587.956 201.891 587.316 201.528C586.697 201.165 585.961 200.984 585.108 200.984C584.745 200.984 584.382 201.027 584.02 201.112C583.678 201.197 583.369 201.336 583.092 201.528C582.814 201.699 582.59 201.923 582.42 202.2C582.249 202.477 582.164 202.808 582.164 203.192C582.164 203.661 582.27 204.056 582.484 204.376C582.697 204.675 582.985 204.931 583.348 205.144C583.732 205.357 584.158 205.539 584.628 205.688C585.097 205.837 585.588 205.987 586.1 206.136C586.697 206.307 587.262 206.509 587.796 206.744C588.35 206.979 588.841 207.277 589.268 207.64C589.694 207.981 590.036 208.397 590.292 208.888C590.548 209.379 590.676 209.976 590.676 210.68C590.676 211.512 590.516 212.227 590.196 212.824C589.897 213.4 589.481 213.88 588.948 214.264C588.414 214.648 587.796 214.925 587.092 215.096C586.388 215.288 585.641 215.384 584.852 215.384C583.465 215.384 582.281 215.149 581.3 214.68C580.34 214.211 579.582 213.603 579.028 212.856L580.724 211.256C581.214 211.832 581.78 212.301 582.42 212.664C583.081 213.027 583.902 213.208 584.884 213.208C585.332 213.208 585.748 213.165 586.132 213.08C586.537 212.995 586.889 212.856 587.188 212.664C587.486 212.472 587.721 212.237 587.892 211.96C588.084 211.661 588.18 211.309 588.18 210.904ZM598.071 195C598.071 195.448 597.911 195.832 597.591 196.152C597.292 196.472 596.887 196.632 596.375 196.632C595.842 196.632 595.426 196.472 595.127 196.152C594.828 195.832 594.679 195.448 594.679 195C594.679 194.573 594.828 194.2 595.127 193.88C595.426 193.539 595.842 193.368 596.375 193.368C596.887 193.368 597.292 193.539 597.591 193.88C597.911 194.2 598.071 194.573 598.071 195ZM595.095 199.192H597.655V215H595.095V199.192ZM611.223 215.384C610.583 215.384 609.964 215.299 609.367 215.128C608.791 214.957 608.258 214.712 607.767 214.392C607.298 214.072 606.882 213.699 606.519 213.272C606.178 212.824 605.911 212.323 605.719 211.768H605.527V215H603.095V191.8H605.655V202.104H605.847C606.252 201.144 606.924 200.355 607.863 199.736C608.802 199.117 609.922 198.808 611.223 198.808C612.268 198.808 613.218 199.011 614.071 199.416C614.946 199.821 615.692 200.397 616.311 201.144C616.93 201.869 617.399 202.744 617.719 203.768C618.06 204.771 618.231 205.869 618.231 207.064C618.231 208.259 618.06 209.368 617.719 210.392C617.399 211.416 616.93 212.301 616.311 213.048C615.692 213.773 614.946 214.349 614.071 214.776C613.218 215.181 612.268 215.384 611.223 215.384ZM610.583 213.08C611.287 213.08 611.938 212.963 612.535 212.728C613.154 212.472 613.687 212.099 614.135 211.608C614.604 211.096 614.967 210.467 615.223 209.72C615.479 208.973 615.607 208.099 615.607 207.096C615.607 206.093 615.479 205.219 615.223 204.472C614.967 203.725 614.604 203.107 614.135 202.616C613.687 202.104 613.154 201.731 612.535 201.496C611.938 201.24 611.287 201.112 610.583 201.112C609.9 201.112 609.26 201.24 608.663 201.496C608.066 201.731 607.543 202.104 607.095 202.616C606.647 203.107 606.295 203.725 606.039 204.472C605.783 205.219 605.655 206.093 605.655 207.096C605.655 208.099 605.783 208.973 606.039 209.72C606.295 210.467 606.647 211.096 607.095 211.608C607.543 212.099 608.066 212.472 608.663 212.728C609.26 212.963 609.9 213.08 610.583 213.08ZM622.345 191.8H624.905V215H622.345V191.8ZM636.521 215.384C635.39 215.384 634.356 215.192 633.417 214.808C632.5 214.424 631.71 213.88 631.049 213.176C630.409 212.451 629.908 211.576 629.545 210.552C629.204 209.528 629.033 208.376 629.033 207.096C629.033 205.752 629.214 204.568 629.577 203.544C629.94 202.499 630.441 201.635 631.081 200.952C631.721 200.248 632.478 199.715 633.353 199.352C634.249 198.989 635.23 198.808 636.297 198.808C637.364 198.808 638.345 198.979 639.241 199.32C640.137 199.661 640.905 200.173 641.545 200.856C642.185 201.517 642.686 202.36 643.049 203.384C643.412 204.387 643.593 205.56 643.593 206.904C643.593 207.075 643.582 207.245 643.561 207.416C643.561 207.587 643.55 207.725 643.529 207.832H631.593C631.593 208.579 631.721 209.283 631.977 209.944C632.254 210.584 632.617 211.149 633.065 211.64C633.534 212.109 634.068 212.483 634.665 212.76C635.284 213.037 635.945 213.176 636.649 213.176C637.801 213.176 638.74 212.952 639.465 212.504C640.212 212.056 640.83 211.512 641.321 210.872L642.857 212.44C642.174 213.336 641.321 214.051 640.297 214.584C639.294 215.117 638.036 215.384 636.521 215.384ZM636.297 200.92C635.55 200.92 634.889 201.059 634.313 201.336C633.737 201.613 633.257 201.976 632.873 202.424C632.489 202.872 632.19 203.384 631.977 203.96C631.785 204.536 631.678 205.112 631.657 205.688H640.905C640.884 205.112 640.766 204.536 640.553 203.96C640.361 203.384 640.073 202.872 639.689 202.424C639.305 201.976 638.825 201.613 638.249 201.336C637.694 201.059 637.044 200.92 636.297 200.92ZM660.272 215.384C658.842 215.384 657.797 214.957 657.136 214.104C656.474 213.251 656.144 212.077 656.144 210.584V201.272H653.328V199.192H656.144V194.904H658.672V199.192H663.248V201.272H658.672V210.36C658.672 211.384 658.864 212.099 659.248 212.504C659.653 212.909 660.165 213.112 660.784 213.112C661.21 213.112 661.594 213.037 661.936 212.888C662.277 212.717 662.597 212.493 662.896 212.216L664.048 214.008C663.066 214.925 661.808 215.384 660.272 215.384ZM673.459 215.384C672.328 215.384 671.293 215.192 670.355 214.808C669.437 214.424 668.648 213.88 667.987 213.176C667.347 212.451 666.845 211.576 666.483 210.552C666.141 209.528 665.971 208.376 665.971 207.096C665.971 205.752 666.152 204.568 666.515 203.544C666.877 202.499 667.379 201.635 668.019 200.952C668.659 200.248 669.416 199.715 670.291 199.352C671.187 198.989 672.168 198.808 673.235 198.808C674.301 198.808 675.283 198.979 676.179 199.32C677.075 199.661 677.843 200.173 678.483 200.856C679.123 201.517 679.624 202.36 679.987 203.384C680.349 204.387 680.531 205.56 680.531 206.904C680.531 207.075 680.52 207.245 680.499 207.416C680.499 207.587 680.488 207.725 680.467 207.832H668.531C668.531 208.579 668.659 209.283 668.915 209.944C669.192 210.584 669.555 211.149 670.003 211.64C670.472 212.109 671.005 212.483 671.603 212.76C672.221 213.037 672.883 213.176 673.587 213.176C674.739 213.176 675.677 212.952 676.403 212.504C677.149 212.056 677.768 211.512 678.259 210.872L679.795 212.44C679.112 213.336 678.259 214.051 677.235 214.584C676.232 215.117 674.973 215.384 673.459 215.384ZM673.235 200.92C672.488 200.92 671.827 201.059 671.251 201.336C670.675 201.613 670.195 201.976 669.811 202.424C669.427 202.872 669.128 203.384 668.915 203.96C668.723 204.536 668.616 205.112 668.595 205.688H677.843C677.821 205.112 677.704 204.536 677.491 203.96C677.299 203.384 677.011 202.872 676.627 202.424C676.243 201.976 675.763 201.613 675.187 201.336C674.632 201.059 673.981 200.92 673.235 200.92ZM687.967 206.968L682.687 199.192H685.759L689.503 205.112H689.631L693.503 199.192H696.255L690.975 206.84L696.511 215H693.439L689.439 208.696H689.311L685.183 215H682.431L687.967 206.968ZM705.147 215.384C703.717 215.384 702.672 214.957 702.011 214.104C701.349 213.251 701.019 212.077 701.019 210.584V201.272H698.203V199.192H701.019V194.904H703.547V199.192H708.123V201.272H703.547V210.36C703.547 211.384 703.739 212.099 704.123 212.504C704.528 212.909 705.04 213.112 705.659 213.112C706.085 213.112 706.469 213.037 706.811 212.888C707.152 212.717 707.472 212.493 707.771 212.216L708.923 214.008C707.941 214.925 706.683 215.384 705.147 215.384ZM510.336 258.904C510.336 258.435 510.229 258.051 510.016 257.752C509.803 257.432 509.504 257.165 509.12 256.952C508.757 256.739 508.341 256.557 507.872 256.408C507.403 256.259 506.912 256.109 506.4 255.96C505.803 255.789 505.227 255.587 504.672 255.352C504.139 255.117 503.659 254.829 503.232 254.488C502.805 254.125 502.464 253.699 502.208 253.208C501.952 252.717 501.824 252.12 501.824 251.416C501.824 250.669 501.963 250.008 502.24 249.432C502.517 248.856 502.901 248.376 503.392 247.992C503.883 247.608 504.459 247.32 505.12 247.128C505.781 246.915 506.496 246.808 507.264 246.808C508.416 246.808 509.472 247.021 510.432 247.448C511.392 247.853 512.181 248.493 512.8 249.368L511.136 250.904C510.667 250.349 510.112 249.891 509.472 249.528C508.853 249.165 508.117 248.984 507.264 248.984C506.901 248.984 506.539 249.027 506.176 249.112C505.835 249.197 505.525 249.336 505.248 249.528C504.971 249.699 504.747 249.923 504.576 250.2C504.405 250.477 504.32 250.808 504.32 251.192C504.32 251.661 504.427 252.056 504.64 252.376C504.853 252.675 505.141 252.931 505.504 253.144C505.888 253.357 506.315 253.539 506.784 253.688C507.253 253.837 507.744 253.987 508.256 254.136C508.853 254.307 509.419 254.509 509.952 254.744C510.507 254.979 510.997 255.277 511.424 255.64C511.851 255.981 512.192 256.397 512.448 256.888C512.704 257.379 512.832 257.976 512.832 258.68C512.832 259.512 512.672 260.227 512.352 260.824C512.053 261.4 511.637 261.88 511.104 262.264C510.571 262.648 509.952 262.925 509.248 263.096C508.544 263.288 507.797 263.384 507.008 263.384C505.621 263.384 504.437 263.149 503.456 262.68C502.496 262.211 501.739 261.603 501.184 260.856L502.88 259.256C503.371 259.832 503.936 260.301 504.576 260.664C505.237 261.027 506.059 261.208 507.04 261.208C507.488 261.208 507.904 261.165 508.288 261.08C508.693 260.995 509.045 260.856 509.344 260.664C509.643 260.472 509.877 260.237 510.048 259.96C510.24 259.661 510.336 259.309 510.336 258.904ZM523.267 263.384C521.987 263.384 520.878 263.149 519.939 262.68C519.022 262.211 518.265 261.592 517.667 260.824C517.07 260.056 516.633 259.181 516.355 258.2C516.078 257.197 515.939 256.163 515.939 255.096C515.939 254.029 516.078 253.005 516.355 252.024C516.633 251.021 517.059 250.136 517.635 249.368C518.233 248.6 518.99 247.981 519.907 247.512C520.825 247.043 521.923 246.808 523.203 246.808C524.547 246.808 525.646 247.032 526.499 247.48C527.353 247.928 528.078 248.525 528.675 249.272L527.075 250.776C526.563 250.221 526.019 249.795 525.443 249.496C524.889 249.176 524.163 249.016 523.267 249.016C521.859 249.016 520.718 249.56 519.843 250.648C518.99 251.715 518.563 253.197 518.563 255.096C518.563 256.035 518.681 256.877 518.915 257.624C519.15 258.371 519.481 259.011 519.907 259.544C520.334 260.077 520.835 260.483 521.411 260.76C521.987 261.037 522.627 261.176 523.331 261.176C524.185 261.176 524.921 261.027 525.539 260.728C526.158 260.408 526.734 259.949 527.267 259.352L528.803 260.888C528.185 261.635 527.427 262.243 526.531 262.712C525.635 263.16 524.547 263.384 523.267 263.384ZM536.021 263.384C535.295 263.384 534.623 263.267 534.005 263.032C533.407 262.797 532.885 262.467 532.437 262.04C531.989 261.613 531.637 261.112 531.381 260.536C531.146 259.939 531.029 259.288 531.029 258.584C531.029 257.219 531.519 256.12 532.501 255.288C533.482 254.456 534.879 253.987 536.693 253.88L540.853 253.624V252.504C540.853 251.288 540.554 250.413 539.957 249.88C539.381 249.325 538.549 249.048 537.461 249.048C536.543 249.048 535.754 249.219 535.093 249.56C534.431 249.901 533.919 250.275 533.557 250.68L532.021 249.144C532.575 248.461 533.322 247.907 534.261 247.48C535.221 247.032 536.309 246.808 537.525 246.808C538.613 246.808 539.53 246.957 540.277 247.256C541.023 247.533 541.621 247.917 542.069 248.408C542.538 248.899 542.869 249.475 543.061 250.136C543.274 250.797 543.381 251.501 543.381 252.248V263H540.981V260.312H540.789C540.362 261.272 539.765 262.029 538.997 262.584C538.229 263.117 537.237 263.384 536.021 263.384ZM536.405 261.208C537.727 261.208 538.794 260.824 539.605 260.056C540.437 259.267 540.853 258.221 540.853 256.92V255.544L536.821 255.832C534.687 256.003 533.621 256.899 533.621 258.52C533.621 259.331 533.877 259.981 534.389 260.472C534.922 260.963 535.594 261.208 536.405 261.208ZM548.533 239.8H551.093V263H548.533V239.8ZM559.509 243C559.509 243.448 559.349 243.832 559.029 244.152C558.73 244.472 558.325 244.632 557.812 244.632C557.279 244.632 556.863 244.472 556.565 244.152C556.266 243.832 556.117 243.448 556.117 243C556.117 242.573 556.266 242.2 556.565 241.88C556.863 241.539 557.279 241.368 557.812 241.368C558.325 241.368 558.73 241.539 559.029 241.88C559.349 242.2 559.509 242.573 559.509 243ZM556.533 247.192H559.093V263H556.533V247.192ZM564.533 247.192H566.965V249.688H567.157C567.541 248.856 568.085 248.173 568.789 247.64C569.493 247.085 570.389 246.808 571.477 246.808C573.29 246.808 574.719 247.288 575.765 248.248C576.831 249.208 577.365 250.755 577.365 252.888V263H574.805V253.368C574.805 251.747 574.474 250.605 573.813 249.944C573.173 249.261 572.223 248.92 570.965 248.92C569.749 248.92 568.799 249.336 568.117 250.168C567.434 251 567.093 252.216 567.093 253.816V263H564.533V247.192ZM588.805 269.304C587.44 269.304 586.256 269.059 585.253 268.568C584.251 268.099 583.451 267.512 582.853 266.808L584.549 265.176C584.997 265.731 585.573 266.168 586.277 266.488C587.003 266.829 587.803 267 588.677 267C590.043 267 591.109 266.669 591.877 266.008C592.667 265.347 593.061 264.184 593.061 262.52V259.448H592.869C592.699 259.981 592.453 260.461 592.133 260.888C591.813 261.293 591.429 261.645 590.981 261.944C590.555 262.221 590.075 262.445 589.541 262.616C589.029 262.765 588.507 262.84 587.973 262.84C586.971 262.84 586.053 262.659 585.221 262.296C584.411 261.933 583.696 261.411 583.077 260.728C582.48 260.024 582.011 259.171 581.669 258.168C581.349 257.165 581.189 256.035 581.189 254.776C581.189 253.539 581.349 252.429 581.669 251.448C582.011 250.467 582.48 249.635 583.077 248.952C583.696 248.269 584.411 247.747 585.221 247.384C586.053 247 586.971 246.808 587.973 246.808C589.147 246.808 590.192 247.117 591.109 247.736C592.048 248.333 592.677 249.165 592.997 250.232H593.189V247.192H595.621V262.84C595.621 264.781 595.035 266.339 593.861 267.512C592.709 268.707 591.024 269.304 588.805 269.304ZM588.485 260.536C589.893 260.536 591.003 260.045 591.813 259.064C592.645 258.083 593.061 256.664 593.061 254.808C593.061 252.931 592.645 251.512 591.813 250.552C591.003 249.592 589.893 249.112 588.485 249.112C587.056 249.112 585.915 249.592 585.061 250.552C584.229 251.512 583.813 252.931 583.813 254.808C583.813 256.664 584.229 258.083 585.061 259.064C585.915 260.045 587.056 260.536 588.485 260.536Z" fill="black" fill-opacity="0.64"/>
<path d="M744.46 33.1312L760 49.1962L775.592 33L778.48 35.625L762.389 52.32C761.735 52.966 760.853 53.3283 759.934 53.3283C759.015 53.3283 758.134 52.966 757.48 52.32L741.625 35.835L744.46 33.1312Z" fill="black" fill-opacity="0.76"/>
<defs>
<clipPath id="clip0_42341_3093">
<rect width="24" height="24" fill="white" transform="translate(16 100)"/>
</clipPath>
<clipPath id="clip1_42341_3093">
<rect width="48" height="48" fill="white" transform="translate(436 18)"/>
</clipPath>
</defs>
</svg>
