<svg width="360" height="356" viewBox="0 0 360 356" fill="none" xmlns="http://www.w3.org/2000/svg">
<rect width="360" height="122" fill="white"/>
<rect width="360" height="55" fill="black" fill-opacity="0.12"/>
<path d="M16.768 32V21.6H21.808C22.5013 21.6 23.12 21.7493 23.664 22.048C24.208 22.3467 24.6347 22.768 24.944 23.312C25.264 23.856 25.424 24.496 25.424 25.232C25.424 25.776 25.3333 26.272 25.152 26.72C24.9813 27.168 24.7307 27.552 24.4 27.872C24.08 28.1813 23.696 28.4213 23.248 28.592C22.8107 28.7627 22.3307 28.848 21.808 28.848H19.968V32H16.768ZM19.968 26.544H21.104C21.3493 26.544 21.552 26.4853 21.712 26.368C21.8827 26.24 22.0107 26.08 22.096 25.888C22.1813 25.6853 22.224 25.4667 22.224 25.232C22.224 24.8693 22.128 24.56 21.936 24.304C21.7547 24.048 21.4773 23.92 21.104 23.92H19.968V26.544ZM26.531 32V24.096H29.347V25.488H29.443C29.603 24.9653 29.859 24.5707 30.211 24.304C30.5737 24.0373 31.027 23.904 31.571 23.904C31.7737 23.904 31.971 23.92 32.163 23.952C32.355 23.9733 32.5363 24.0107 32.707 24.064L31.971 26.736C31.8643 26.672 31.731 26.624 31.571 26.592C31.411 26.5493 31.2563 26.528 31.107 26.528C30.6483 26.528 30.2697 26.6453 29.971 26.88C29.683 27.1147 29.539 27.5147 29.539 28.08V32H26.531ZM33.281 32V24.096H36.289V32H33.281ZM34.785 23.36C34.241 23.36 33.8357 23.2053 33.569 22.896C33.3023 22.5867 33.169 22.2347 33.169 21.84C33.169 21.4347 33.3023 21.0773 33.569 20.768C33.8357 20.4587 34.241 20.304 34.785 20.304C35.329 20.304 35.7343 20.4587 36.001 20.768C36.2783 21.0773 36.417 21.4347 36.417 21.84C36.417 22.2347 36.2783 22.5867 36.001 22.896C35.7343 23.2053 35.329 23.36 34.785 23.36ZM37.5935 32V24.096H40.4095V25.424H40.5055C40.6975 24.9227 41.0175 24.544 41.4655 24.288C41.9135 24.032 42.3828 23.904 42.8735 23.904C43.5775 23.904 44.1162 24.0427 44.4895 24.32C44.8735 24.5973 45.1402 24.992 45.2895 25.504C45.4068 25.2053 45.5828 24.9387 45.8175 24.704C46.0628 24.4587 46.3508 24.2667 46.6815 24.128C47.0228 23.9787 47.3748 23.904 47.7375 23.904C48.4415 23.904 48.9855 24.0373 49.3695 24.304C49.7642 24.5707 50.0362 24.9547 50.1855 25.456C50.3348 25.9573 50.4095 26.56 50.4095 27.264V32H47.4015V27.744C47.4015 27.5093 47.3748 27.296 47.3215 27.104C47.2682 26.9013 47.1722 26.736 47.0335 26.608C46.9055 26.48 46.7135 26.416 46.4575 26.416C46.1055 26.416 45.8548 26.528 45.7055 26.752C45.5668 26.976 45.4975 27.28 45.4975 27.664V32H42.4895V27.744C42.4895 27.5093 42.4628 27.296 42.4095 27.104C42.3668 26.9013 42.2815 26.736 42.1535 26.608C42.0255 26.48 41.8282 26.416 41.5615 26.416C41.2095 26.416 40.9588 26.528 40.8095 26.752C40.6708 26.976 40.6015 27.28 40.6015 27.664V32H37.5935ZM53.9105 32.192C53.4732 32.192 53.0518 32.1013 52.6465 31.92C52.2412 31.728 51.9105 31.456 51.6545 31.104C51.3985 30.7413 51.2705 30.2933 51.2705 29.76C51.2705 29.28 51.3878 28.8693 51.6225 28.528C51.8572 28.176 52.2198 27.904 52.7105 27.712C53.2118 27.52 53.8518 27.4027 54.6305 27.36L56.1825 27.264V27.168C56.1825 26.9333 56.1132 26.7573 55.9745 26.64C55.8465 26.512 55.6705 26.4213 55.4465 26.368C55.2332 26.3147 55.0092 26.288 54.7745 26.288C54.4545 26.288 54.1452 26.3413 53.8465 26.448C53.5478 26.5547 53.3132 26.6987 53.1425 26.88L51.5745 25.216C51.9265 24.8107 52.4012 24.4907 52.9985 24.256C53.6065 24.0213 54.3692 23.904 55.2865 23.904C56.0545 23.904 56.7265 24.016 57.3025 24.24C57.8892 24.464 58.3478 24.8053 58.6785 25.264C59.0092 25.7227 59.1745 26.304 59.1745 27.008V32H56.3585V30.832H56.2625C56.0598 31.2267 55.7665 31.552 55.3825 31.808C54.9985 32.064 54.5078 32.192 53.9105 32.192ZM55.1105 30.288C55.4198 30.288 55.6758 30.2027 55.8785 30.032C56.0812 29.8507 56.1825 29.568 56.1825 29.184V28.832L55.0945 28.912C54.8172 28.9227 54.6145 28.9973 54.4865 29.136C54.3585 29.2747 54.2945 29.44 54.2945 29.632C54.2945 29.856 54.3745 30.0213 54.5345 30.128C54.7052 30.2347 54.8972 30.288 55.1105 30.288ZM60.3904 32V24.096H63.2064V25.488H63.3024C63.4624 24.9653 63.7184 24.5707 64.0704 24.304C64.433 24.0373 64.8864 23.904 65.4304 23.904C65.633 23.904 65.8304 23.92 66.0224 23.952C66.2144 23.9733 66.3957 24.0107 66.5664 24.064L65.8304 26.736C65.7237 26.672 65.5904 26.624 65.4304 26.592C65.2704 26.5493 65.1157 26.528 64.9664 26.528C64.5077 26.528 64.129 26.6453 63.8304 26.88C63.5424 27.1147 63.3984 27.5147 63.3984 28.08V32H60.3904ZM68.6399 35.136C68.4585 35.136 68.2719 35.1253 68.0799 35.104C67.8985 35.0933 67.7225 35.0667 67.5519 35.024V32.64C67.6799 32.6613 67.8239 32.6773 67.9839 32.688C68.1439 32.7093 68.2879 32.72 68.4159 32.72C68.6719 32.72 68.8745 32.6933 69.0239 32.64C69.1732 32.5973 69.2852 32.5227 69.3599 32.416C69.4345 32.32 69.4932 32.208 69.5359 32.08L66.7199 24.096H69.9839L71.1199 28.96H71.2159L72.3519 24.096H75.4079L72.6399 31.968C72.4159 32.6293 72.1492 33.1947 71.8399 33.664C71.5305 34.1333 71.1252 34.496 70.6239 34.752C70.1225 35.008 69.4612 35.136 68.6399 35.136ZM83.7445 32.16C83.0405 32.16 82.4645 32.048 82.0165 31.824C81.5685 31.5893 81.2325 31.232 81.0085 30.752C80.7952 30.2613 80.6885 29.632 80.6885 28.864V26.448H79.6805V24.096H80.6885V21.952H83.6805V24.096H86.0325V26.448H83.6805V28.88C83.6805 29.1787 83.7285 29.4027 83.8245 29.552C83.9312 29.7013 84.1232 29.776 84.4005 29.776C84.5925 29.776 84.7738 29.7387 84.9445 29.664C85.1152 29.5787 85.2538 29.4773 85.3605 29.36L86.2565 31.36C85.9792 31.6267 85.6325 31.8293 85.2165 31.968C84.8112 32.096 84.3205 32.16 83.7445 32.16ZM90.9331 32.192C90.0265 32.192 89.2585 32.0107 88.6291 31.648C87.9998 31.2747 87.5251 30.7787 87.2051 30.16C86.8851 29.5307 86.7251 28.8267 86.7251 28.048C86.7251 27.4507 86.8105 26.9013 86.9811 26.4C87.1518 25.8987 87.4025 25.4613 87.7331 25.088C88.0745 24.704 88.5011 24.4107 89.0131 24.208C89.5358 24.0053 90.1385 23.904 90.8211 23.904C91.4931 23.904 92.0798 24.0053 92.5811 24.208C93.0825 24.4107 93.4985 24.6987 93.8291 25.072C94.1598 25.4347 94.4051 25.8667 94.5651 26.368C94.7251 26.8587 94.8051 27.4027 94.8051 28C94.8051 28.1387 94.7891 28.2987 94.7571 28.48C94.7358 28.6613 94.7091 28.8 94.6771 28.896H89.6211C89.6745 29.1307 89.7758 29.3227 89.9251 29.472C90.0745 29.6213 90.2558 29.7333 90.4691 29.808C90.6931 29.872 90.9171 29.904 91.1411 29.904C91.4611 29.904 91.7438 29.856 91.9891 29.76C92.2345 29.664 92.4265 29.5413 92.5651 29.392L94.1491 31.008C93.8718 31.3707 93.4451 31.6587 92.8691 31.872C92.2931 32.0853 91.6478 32.192 90.9331 32.192ZM90.7891 25.968C90.5865 25.968 90.3998 26.016 90.2291 26.112C90.0691 26.1973 89.9358 26.3307 89.8291 26.512C89.7225 26.6827 89.6531 26.896 89.6211 27.152H91.9571C91.9251 26.8853 91.8505 26.6667 91.7331 26.496C91.6265 26.3253 91.4931 26.1973 91.3331 26.112C91.1838 26.016 91.0025 25.968 90.7891 25.968ZM94.6216 32L97.4696 28.032L94.8296 24.096H98.3016L99.2616 25.808H99.3736L100.302 24.096H103.454L100.798 27.776L103.662 32H100.126L99.0056 30H98.8936L97.7416 32H94.6216ZM107.885 32.16C107.181 32.16 106.605 32.048 106.157 31.824C105.709 31.5893 105.373 31.232 105.149 30.752C104.936 30.2613 104.829 29.632 104.829 28.864V26.448H103.821V24.096H104.829V21.952H107.821V24.096H110.173V26.448H107.821V28.88C107.821 29.1787 107.869 29.4027 107.965 29.552C108.072 29.7013 108.264 29.776 108.541 29.776C108.733 29.776 108.914 29.7387 109.085 29.664C109.256 29.5787 109.394 29.4773 109.501 29.36L110.397 31.36C110.12 31.6267 109.773 31.8293 109.357 31.968C108.952 32.096 108.461 32.16 107.885 32.16Z" fill="black" fill-opacity="0.76"/>
<path d="M339.77 32.4551L332 24.4226L324.23 32.5208L322.786 31.2083L330.806 22.8608C330.968 22.6929 331.163 22.5594 331.379 22.4682C331.594 22.3771 331.825 22.3301 332.059 22.3301C332.293 22.3301 332.524 22.3771 332.74 22.4682C332.955 22.5594 333.15 22.6929 333.313 22.8608L341.188 31.1033L339.77 32.4551Z" fill="black" fill-opacity="0.76"/>
<rect width="360" height="66" transform="translate(0 55)" fill="white"/>
<rect width="360" height="1" transform="translate(0 121)" fill="white" fill-opacity="0.01"/>
<rect width="360" height="1" transform="translate(0 121)" fill="black" fill-opacity="0.08"/>
<rect width="360" height="122" transform="translate(0 122)" fill="white"/>
<path d="M16.768 154V143.6H21.808C22.5013 143.6 23.12 143.749 23.664 144.048C24.208 144.347 24.6347 144.768 24.944 145.312C25.264 145.856 25.424 146.496 25.424 147.232C25.424 147.776 25.3333 148.272 25.152 148.72C24.9813 149.168 24.7307 149.552 24.4 149.872C24.08 150.181 23.696 150.421 23.248 150.592C22.8107 150.763 22.3307 150.848 21.808 150.848H19.968V154H16.768ZM19.968 148.544H21.104C21.3493 148.544 21.552 148.485 21.712 148.368C21.8827 148.24 22.0107 148.08 22.096 147.888C22.1813 147.685 22.224 147.467 22.224 147.232C22.224 146.869 22.128 146.56 21.936 146.304C21.7547 146.048 21.4773 145.92 21.104 145.92H19.968V148.544ZM26.531 154V146.096H29.347V147.488H29.443C29.603 146.965 29.859 146.571 30.211 146.304C30.5737 146.037 31.027 145.904 31.571 145.904C31.7737 145.904 31.971 145.92 32.163 145.952C32.355 145.973 32.5363 146.011 32.707 146.064L31.971 148.736C31.8643 148.672 31.731 148.624 31.571 148.592C31.411 148.549 31.2563 148.528 31.107 148.528C30.6483 148.528 30.2697 148.645 29.971 148.88C29.683 149.115 29.539 149.515 29.539 150.08V154H26.531ZM33.281 154V146.096H36.289V154H33.281ZM34.785 145.36C34.241 145.36 33.8357 145.205 33.569 144.896C33.3023 144.587 33.169 144.235 33.169 143.84C33.169 143.435 33.3023 143.077 33.569 142.768C33.8357 142.459 34.241 142.304 34.785 142.304C35.329 142.304 35.7343 142.459 36.001 142.768C36.2783 143.077 36.417 143.435 36.417 143.84C36.417 144.235 36.2783 144.587 36.001 144.896C35.7343 145.205 35.329 145.36 34.785 145.36ZM37.5935 154V146.096H40.4095V147.424H40.5055C40.6975 146.923 41.0175 146.544 41.4655 146.288C41.9135 146.032 42.3828 145.904 42.8735 145.904C43.5775 145.904 44.1162 146.043 44.4895 146.32C44.8735 146.597 45.1402 146.992 45.2895 147.504C45.4068 147.205 45.5828 146.939 45.8175 146.704C46.0628 146.459 46.3508 146.267 46.6815 146.128C47.0228 145.979 47.3748 145.904 47.7375 145.904C48.4415 145.904 48.9855 146.037 49.3695 146.304C49.7642 146.571 50.0362 146.955 50.1855 147.456C50.3348 147.957 50.4095 148.56 50.4095 149.264V154H47.4015V149.744C47.4015 149.509 47.3748 149.296 47.3215 149.104C47.2682 148.901 47.1722 148.736 47.0335 148.608C46.9055 148.48 46.7135 148.416 46.4575 148.416C46.1055 148.416 45.8548 148.528 45.7055 148.752C45.5668 148.976 45.4975 149.28 45.4975 149.664V154H42.4895V149.744C42.4895 149.509 42.4628 149.296 42.4095 149.104C42.3668 148.901 42.2815 148.736 42.1535 148.608C42.0255 148.48 41.8282 148.416 41.5615 148.416C41.2095 148.416 40.9588 148.528 40.8095 148.752C40.6708 148.976 40.6015 149.28 40.6015 149.664V154H37.5935ZM53.9105 154.192C53.4732 154.192 53.0518 154.101 52.6465 153.92C52.2412 153.728 51.9105 153.456 51.6545 153.104C51.3985 152.741 51.2705 152.293 51.2705 151.76C51.2705 151.28 51.3878 150.869 51.6225 150.528C51.8572 150.176 52.2198 149.904 52.7105 149.712C53.2118 149.52 53.8518 149.403 54.6305 149.36L56.1825 149.264V149.168C56.1825 148.933 56.1132 148.757 55.9745 148.64C55.8465 148.512 55.6705 148.421 55.4465 148.368C55.2332 148.315 55.0092 148.288 54.7745 148.288C54.4545 148.288 54.1452 148.341 53.8465 148.448C53.5478 148.555 53.3132 148.699 53.1425 148.88L51.5745 147.216C51.9265 146.811 52.4012 146.491 52.9985 146.256C53.6065 146.021 54.3692 145.904 55.2865 145.904C56.0545 145.904 56.7265 146.016 57.3025 146.24C57.8892 146.464 58.3478 146.805 58.6785 147.264C59.0092 147.723 59.1745 148.304 59.1745 149.008V154H56.3585V152.832H56.2625C56.0598 153.227 55.7665 153.552 55.3825 153.808C54.9985 154.064 54.5078 154.192 53.9105 154.192ZM55.1105 152.288C55.4198 152.288 55.6758 152.203 55.8785 152.032C56.0812 151.851 56.1825 151.568 56.1825 151.184V150.832L55.0945 150.912C54.8172 150.923 54.6145 150.997 54.4865 151.136C54.3585 151.275 54.2945 151.44 54.2945 151.632C54.2945 151.856 54.3745 152.021 54.5345 152.128C54.7052 152.235 54.8972 152.288 55.1105 152.288ZM60.3904 154V146.096H63.2064V147.488H63.3024C63.4624 146.965 63.7184 146.571 64.0704 146.304C64.433 146.037 64.8864 145.904 65.4304 145.904C65.633 145.904 65.8304 145.92 66.0224 145.952C66.2144 145.973 66.3957 146.011 66.5664 146.064L65.8304 148.736C65.7237 148.672 65.5904 148.624 65.4304 148.592C65.2704 148.549 65.1157 148.528 64.9664 148.528C64.5077 148.528 64.129 148.645 63.8304 148.88C63.5424 149.115 63.3984 149.515 63.3984 150.08V154H60.3904ZM68.6399 157.136C68.4585 157.136 68.2719 157.125 68.0799 157.104C67.8985 157.093 67.7225 157.067 67.5519 157.024V154.64C67.6799 154.661 67.8239 154.677 67.9839 154.688C68.1439 154.709 68.2879 154.72 68.4159 154.72C68.6719 154.72 68.8745 154.693 69.0239 154.64C69.1732 154.597 69.2852 154.523 69.3599 154.416C69.4345 154.32 69.4932 154.208 69.5359 154.08L66.7199 146.096H69.9839L71.1199 150.96H71.2159L72.3519 146.096H75.4079L72.6399 153.968C72.4159 154.629 72.1492 155.195 71.8399 155.664C71.5305 156.133 71.1252 156.496 70.6239 156.752C70.1225 157.008 69.4612 157.136 68.6399 157.136ZM83.7445 154.16C83.0405 154.16 82.4645 154.048 82.0165 153.824C81.5685 153.589 81.2325 153.232 81.0085 152.752C80.7952 152.261 80.6885 151.632 80.6885 150.864V148.448H79.6805V146.096H80.6885V143.952H83.6805V146.096H86.0325V148.448H83.6805V150.88C83.6805 151.179 83.7285 151.403 83.8245 151.552C83.9312 151.701 84.1232 151.776 84.4005 151.776C84.5925 151.776 84.7738 151.739 84.9445 151.664C85.1152 151.579 85.2538 151.477 85.3605 151.36L86.2565 153.36C85.9792 153.627 85.6325 153.829 85.2165 153.968C84.8112 154.096 84.3205 154.16 83.7445 154.16ZM90.9331 154.192C90.0265 154.192 89.2585 154.011 88.6291 153.648C87.9998 153.275 87.5251 152.779 87.2051 152.16C86.8851 151.531 86.7251 150.827 86.7251 150.048C86.7251 149.451 86.8105 148.901 86.9811 148.4C87.1518 147.899 87.4025 147.461 87.7331 147.088C88.0745 146.704 88.5011 146.411 89.0131 146.208C89.5358 146.005 90.1385 145.904 90.8211 145.904C91.4931 145.904 92.0798 146.005 92.5811 146.208C93.0825 146.411 93.4985 146.699 93.8291 147.072C94.1598 147.435 94.4051 147.867 94.5651 148.368C94.7251 148.859 94.8051 149.403 94.8051 150C94.8051 150.139 94.7891 150.299 94.7571 150.48C94.7358 150.661 94.7091 150.8 94.6771 150.896H89.6211C89.6745 151.131 89.7758 151.323 89.9251 151.472C90.0745 151.621 90.2558 151.733 90.4691 151.808C90.6931 151.872 90.9171 151.904 91.1411 151.904C91.4611 151.904 91.7438 151.856 91.9891 151.76C92.2345 151.664 92.4265 151.541 92.5651 151.392L94.1491 153.008C93.8718 153.371 93.4451 153.659 92.8691 153.872C92.2931 154.085 91.6478 154.192 90.9331 154.192ZM90.7891 147.968C90.5865 147.968 90.3998 148.016 90.2291 148.112C90.0691 148.197 89.9358 148.331 89.8291 148.512C89.7225 148.683 89.6531 148.896 89.6211 149.152H91.9571C91.9251 148.885 91.8505 148.667 91.7331 148.496C91.6265 148.325 91.4931 148.197 91.3331 148.112C91.1838 148.016 91.0025 147.968 90.7891 147.968ZM94.6216 154L97.4696 150.032L94.8296 146.096H98.3016L99.2616 147.808H99.3736L100.302 146.096H103.454L100.798 149.776L103.662 154H100.126L99.0056 152H98.8936L97.7416 154H94.6216ZM107.885 154.16C107.181 154.16 106.605 154.048 106.157 153.824C105.709 153.589 105.373 153.232 105.149 152.752C104.936 152.261 104.829 151.632 104.829 150.864V148.448H103.821V146.096H104.829V143.952H107.821V146.096H110.173V148.448H107.821V150.88C107.821 151.179 107.869 151.403 107.965 151.552C108.072 151.701 108.264 151.776 108.541 151.776C108.733 151.776 108.914 151.739 109.085 151.664C109.256 151.579 109.394 151.477 109.501 151.36L110.397 153.36C110.12 153.627 109.773 153.829 109.357 153.968C108.952 154.096 108.461 154.16 107.885 154.16Z" fill="black" fill-opacity="0.76"/>
<path d="M339.77 154.455L332 146.423L324.23 154.521L322.786 153.208L330.806 144.861C330.968 144.693 331.163 144.559 331.379 144.468C331.594 144.377 331.825 144.33 332.059 144.33C332.293 144.33 332.524 144.377 332.74 144.468C332.955 144.559 333.15 144.693 333.313 144.861L341.188 153.103L339.77 154.455Z" fill="black" fill-opacity="0.76"/>
<rect width="360" height="66" transform="translate(0 177)" fill="white"/>
<rect width="360" height="1" transform="translate(0 243)" fill="white" fill-opacity="0.01"/>
<rect width="360" height="1" transform="translate(0 243)" fill="black" fill-opacity="0.08"/>
<rect width="360" height="56" transform="translate(0 244)" fill="white"/>
<path d="M16.768 276V265.6H21.808C22.5013 265.6 23.12 265.749 23.664 266.048C24.208 266.347 24.6347 266.768 24.944 267.312C25.264 267.856 25.424 268.496 25.424 269.232C25.424 269.776 25.3333 270.272 25.152 270.72C24.9813 271.168 24.7307 271.552 24.4 271.872C24.08 272.181 23.696 272.421 23.248 272.592C22.8107 272.763 22.3307 272.848 21.808 272.848H19.968V276H16.768ZM19.968 270.544H21.104C21.3493 270.544 21.552 270.485 21.712 270.368C21.8827 270.24 22.0107 270.08 22.096 269.888C22.1813 269.685 22.224 269.467 22.224 269.232C22.224 268.869 22.128 268.56 21.936 268.304C21.7547 268.048 21.4773 267.92 21.104 267.92H19.968V270.544ZM26.531 276V268.096H29.347V269.488H29.443C29.603 268.965 29.859 268.571 30.211 268.304C30.5737 268.037 31.027 267.904 31.571 267.904C31.7737 267.904 31.971 267.92 32.163 267.952C32.355 267.973 32.5363 268.011 32.707 268.064L31.971 270.736C31.8643 270.672 31.731 270.624 31.571 270.592C31.411 270.549 31.2563 270.528 31.107 270.528C30.6483 270.528 30.2697 270.645 29.971 270.88C29.683 271.115 29.539 271.515 29.539 272.08V276H26.531ZM33.281 276V268.096H36.289V276H33.281ZM34.785 267.36C34.241 267.36 33.8357 267.205 33.569 266.896C33.3023 266.587 33.169 266.235 33.169 265.84C33.169 265.435 33.3023 265.077 33.569 264.768C33.8357 264.459 34.241 264.304 34.785 264.304C35.329 264.304 35.7343 264.459 36.001 264.768C36.2783 265.077 36.417 265.435 36.417 265.84C36.417 266.235 36.2783 266.587 36.001 266.896C35.7343 267.205 35.329 267.36 34.785 267.36ZM37.5935 276V268.096H40.4095V269.424H40.5055C40.6975 268.923 41.0175 268.544 41.4655 268.288C41.9135 268.032 42.3828 267.904 42.8735 267.904C43.5775 267.904 44.1162 268.043 44.4895 268.32C44.8735 268.597 45.1402 268.992 45.2895 269.504C45.4068 269.205 45.5828 268.939 45.8175 268.704C46.0628 268.459 46.3508 268.267 46.6815 268.128C47.0228 267.979 47.3748 267.904 47.7375 267.904C48.4415 267.904 48.9855 268.037 49.3695 268.304C49.7642 268.571 50.0362 268.955 50.1855 269.456C50.3348 269.957 50.4095 270.56 50.4095 271.264V276H47.4015V271.744C47.4015 271.509 47.3748 271.296 47.3215 271.104C47.2682 270.901 47.1722 270.736 47.0335 270.608C46.9055 270.48 46.7135 270.416 46.4575 270.416C46.1055 270.416 45.8548 270.528 45.7055 270.752C45.5668 270.976 45.4975 271.28 45.4975 271.664V276H42.4895V271.744C42.4895 271.509 42.4628 271.296 42.4095 271.104C42.3668 270.901 42.2815 270.736 42.1535 270.608C42.0255 270.48 41.8282 270.416 41.5615 270.416C41.2095 270.416 40.9588 270.528 40.8095 270.752C40.6708 270.976 40.6015 271.28 40.6015 271.664V276H37.5935ZM53.9105 276.192C53.4732 276.192 53.0518 276.101 52.6465 275.92C52.2412 275.728 51.9105 275.456 51.6545 275.104C51.3985 274.741 51.2705 274.293 51.2705 273.76C51.2705 273.28 51.3878 272.869 51.6225 272.528C51.8572 272.176 52.2198 271.904 52.7105 271.712C53.2118 271.52 53.8518 271.403 54.6305 271.36L56.1825 271.264V271.168C56.1825 270.933 56.1132 270.757 55.9745 270.64C55.8465 270.512 55.6705 270.421 55.4465 270.368C55.2332 270.315 55.0092 270.288 54.7745 270.288C54.4545 270.288 54.1452 270.341 53.8465 270.448C53.5478 270.555 53.3132 270.699 53.1425 270.88L51.5745 269.216C51.9265 268.811 52.4012 268.491 52.9985 268.256C53.6065 268.021 54.3692 267.904 55.2865 267.904C56.0545 267.904 56.7265 268.016 57.3025 268.24C57.8892 268.464 58.3478 268.805 58.6785 269.264C59.0092 269.723 59.1745 270.304 59.1745 271.008V276H56.3585V274.832H56.2625C56.0598 275.227 55.7665 275.552 55.3825 275.808C54.9985 276.064 54.5078 276.192 53.9105 276.192ZM55.1105 274.288C55.4198 274.288 55.6758 274.203 55.8785 274.032C56.0812 273.851 56.1825 273.568 56.1825 273.184V272.832L55.0945 272.912C54.8172 272.923 54.6145 272.997 54.4865 273.136C54.3585 273.275 54.2945 273.44 54.2945 273.632C54.2945 273.856 54.3745 274.021 54.5345 274.128C54.7052 274.235 54.8972 274.288 55.1105 274.288ZM60.3904 276V268.096H63.2064V269.488H63.3024C63.4624 268.965 63.7184 268.571 64.0704 268.304C64.433 268.037 64.8864 267.904 65.4304 267.904C65.633 267.904 65.8304 267.92 66.0224 267.952C66.2144 267.973 66.3957 268.011 66.5664 268.064L65.8304 270.736C65.7237 270.672 65.5904 270.624 65.4304 270.592C65.2704 270.549 65.1157 270.528 64.9664 270.528C64.5077 270.528 64.129 270.645 63.8304 270.88C63.5424 271.115 63.3984 271.515 63.3984 272.08V276H60.3904ZM68.6399 279.136C68.4585 279.136 68.2719 279.125 68.0799 279.104C67.8985 279.093 67.7225 279.067 67.5519 279.024V276.64C67.6799 276.661 67.8239 276.677 67.9839 276.688C68.1439 276.709 68.2879 276.72 68.4159 276.72C68.6719 276.72 68.8745 276.693 69.0239 276.64C69.1732 276.597 69.2852 276.523 69.3599 276.416C69.4345 276.32 69.4932 276.208 69.5359 276.08L66.7199 268.096H69.9839L71.1199 272.96H71.2159L72.3519 268.096H75.4079L72.6399 275.968C72.4159 276.629 72.1492 277.195 71.8399 277.664C71.5305 278.133 71.1252 278.496 70.6239 278.752C70.1225 279.008 69.4612 279.136 68.6399 279.136ZM83.7445 276.16C83.0405 276.16 82.4645 276.048 82.0165 275.824C81.5685 275.589 81.2325 275.232 81.0085 274.752C80.7952 274.261 80.6885 273.632 80.6885 272.864V270.448H79.6805V268.096H80.6885V265.952H83.6805V268.096H86.0325V270.448H83.6805V272.88C83.6805 273.179 83.7285 273.403 83.8245 273.552C83.9312 273.701 84.1232 273.776 84.4005 273.776C84.5925 273.776 84.7738 273.739 84.9445 273.664C85.1152 273.579 85.2538 273.477 85.3605 273.36L86.2565 275.36C85.9792 275.627 85.6325 275.829 85.2165 275.968C84.8112 276.096 84.3205 276.16 83.7445 276.16ZM90.9331 276.192C90.0265 276.192 89.2585 276.011 88.6291 275.648C87.9998 275.275 87.5251 274.779 87.2051 274.16C86.8851 273.531 86.7251 272.827 86.7251 272.048C86.7251 271.451 86.8105 270.901 86.9811 270.4C87.1518 269.899 87.4025 269.461 87.7331 269.088C88.0745 268.704 88.5011 268.411 89.0131 268.208C89.5358 268.005 90.1385 267.904 90.8211 267.904C91.4931 267.904 92.0798 268.005 92.5811 268.208C93.0825 268.411 93.4985 268.699 93.8291 269.072C94.1598 269.435 94.4051 269.867 94.5651 270.368C94.7251 270.859 94.8051 271.403 94.8051 272C94.8051 272.139 94.7891 272.299 94.7571 272.48C94.7358 272.661 94.7091 272.8 94.6771 272.896H89.6211C89.6745 273.131 89.7758 273.323 89.9251 273.472C90.0745 273.621 90.2558 273.733 90.4691 273.808C90.6931 273.872 90.9171 273.904 91.1411 273.904C91.4611 273.904 91.7438 273.856 91.9891 273.76C92.2345 273.664 92.4265 273.541 92.5651 273.392L94.1491 275.008C93.8718 275.371 93.4451 275.659 92.8691 275.872C92.2931 276.085 91.6478 276.192 90.9331 276.192ZM90.7891 269.968C90.5865 269.968 90.3998 270.016 90.2291 270.112C90.0691 270.197 89.9358 270.331 89.8291 270.512C89.7225 270.683 89.6531 270.896 89.6211 271.152H91.9571C91.9251 270.885 91.8505 270.667 91.7331 270.496C91.6265 270.325 91.4931 270.197 91.3331 270.112C91.1838 270.016 91.0025 269.968 90.7891 269.968ZM94.6216 276L97.4696 272.032L94.8296 268.096H98.3016L99.2616 269.808H99.3736L100.302 268.096H103.454L100.798 271.776L103.662 276H100.126L99.0056 274H98.8936L97.7416 276H94.6216ZM107.885 276.16C107.181 276.16 106.605 276.048 106.157 275.824C105.709 275.589 105.373 275.232 105.149 274.752C104.936 274.261 104.829 273.632 104.829 272.864V270.448H103.821V268.096H104.829V265.952H107.821V268.096H110.173V270.448H107.821V272.88C107.821 273.179 107.869 273.403 107.965 273.552C108.072 273.701 108.264 273.776 108.541 273.776C108.733 273.776 108.914 273.739 109.085 273.664C109.256 273.579 109.394 273.477 109.501 273.36L110.397 275.36C110.12 275.627 109.773 275.829 109.357 275.968C108.952 276.096 108.461 276.16 107.885 276.16Z" fill="black" fill-opacity="0.76"/>
<path d="M324.23 267.566L332 275.598L339.796 267.5L341.24 268.812L333.194 277.16C332.868 277.483 332.427 277.664 331.967 277.664C331.508 277.664 331.067 277.483 330.74 277.16L322.812 268.917L324.23 267.566Z" fill="black" fill-opacity="0.76"/>
<rect width="360" height="1" transform="translate(0 299)" fill="white" fill-opacity="0.01"/>
<rect width="360" height="1" transform="translate(0 299)" fill="black" fill-opacity="0.08"/>
<rect width="360" height="56" transform="translate(0 300)" fill="white"/>
<path d="M16.768 332V321.6H21.808C22.5013 321.6 23.12 321.749 23.664 322.048C24.208 322.347 24.6347 322.768 24.944 323.312C25.264 323.856 25.424 324.496 25.424 325.232C25.424 325.776 25.3333 326.272 25.152 326.72C24.9813 327.168 24.7307 327.552 24.4 327.872C24.08 328.181 23.696 328.421 23.248 328.592C22.8107 328.763 22.3307 328.848 21.808 328.848H19.968V332H16.768ZM19.968 326.544H21.104C21.3493 326.544 21.552 326.485 21.712 326.368C21.8827 326.24 22.0107 326.08 22.096 325.888C22.1813 325.685 22.224 325.467 22.224 325.232C22.224 324.869 22.128 324.56 21.936 324.304C21.7547 324.048 21.4773 323.92 21.104 323.92H19.968V326.544ZM26.531 332V324.096H29.347V325.488H29.443C29.603 324.965 29.859 324.571 30.211 324.304C30.5737 324.037 31.027 323.904 31.571 323.904C31.7737 323.904 31.971 323.92 32.163 323.952C32.355 323.973 32.5363 324.011 32.707 324.064L31.971 326.736C31.8643 326.672 31.731 326.624 31.571 326.592C31.411 326.549 31.2563 326.528 31.107 326.528C30.6483 326.528 30.2697 326.645 29.971 326.88C29.683 327.115 29.539 327.515 29.539 328.08V332H26.531ZM33.281 332V324.096H36.289V332H33.281ZM34.785 323.36C34.241 323.36 33.8357 323.205 33.569 322.896C33.3023 322.587 33.169 322.235 33.169 321.84C33.169 321.435 33.3023 321.077 33.569 320.768C33.8357 320.459 34.241 320.304 34.785 320.304C35.329 320.304 35.7343 320.459 36.001 320.768C36.2783 321.077 36.417 321.435 36.417 321.84C36.417 322.235 36.2783 322.587 36.001 322.896C35.7343 323.205 35.329 323.36 34.785 323.36ZM37.5935 332V324.096H40.4095V325.424H40.5055C40.6975 324.923 41.0175 324.544 41.4655 324.288C41.9135 324.032 42.3828 323.904 42.8735 323.904C43.5775 323.904 44.1162 324.043 44.4895 324.32C44.8735 324.597 45.1402 324.992 45.2895 325.504C45.4068 325.205 45.5828 324.939 45.8175 324.704C46.0628 324.459 46.3508 324.267 46.6815 324.128C47.0228 323.979 47.3748 323.904 47.7375 323.904C48.4415 323.904 48.9855 324.037 49.3695 324.304C49.7642 324.571 50.0362 324.955 50.1855 325.456C50.3348 325.957 50.4095 326.56 50.4095 327.264V332H47.4015V327.744C47.4015 327.509 47.3748 327.296 47.3215 327.104C47.2682 326.901 47.1722 326.736 47.0335 326.608C46.9055 326.48 46.7135 326.416 46.4575 326.416C46.1055 326.416 45.8548 326.528 45.7055 326.752C45.5668 326.976 45.4975 327.28 45.4975 327.664V332H42.4895V327.744C42.4895 327.509 42.4628 327.296 42.4095 327.104C42.3668 326.901 42.2815 326.736 42.1535 326.608C42.0255 326.48 41.8282 326.416 41.5615 326.416C41.2095 326.416 40.9588 326.528 40.8095 326.752C40.6708 326.976 40.6015 327.28 40.6015 327.664V332H37.5935ZM53.9105 332.192C53.4732 332.192 53.0518 332.101 52.6465 331.92C52.2412 331.728 51.9105 331.456 51.6545 331.104C51.3985 330.741 51.2705 330.293 51.2705 329.76C51.2705 329.28 51.3878 328.869 51.6225 328.528C51.8572 328.176 52.2198 327.904 52.7105 327.712C53.2118 327.52 53.8518 327.403 54.6305 327.36L56.1825 327.264V327.168C56.1825 326.933 56.1132 326.757 55.9745 326.64C55.8465 326.512 55.6705 326.421 55.4465 326.368C55.2332 326.315 55.0092 326.288 54.7745 326.288C54.4545 326.288 54.1452 326.341 53.8465 326.448C53.5478 326.555 53.3132 326.699 53.1425 326.88L51.5745 325.216C51.9265 324.811 52.4012 324.491 52.9985 324.256C53.6065 324.021 54.3692 323.904 55.2865 323.904C56.0545 323.904 56.7265 324.016 57.3025 324.24C57.8892 324.464 58.3478 324.805 58.6785 325.264C59.0092 325.723 59.1745 326.304 59.1745 327.008V332H56.3585V330.832H56.2625C56.0598 331.227 55.7665 331.552 55.3825 331.808C54.9985 332.064 54.5078 332.192 53.9105 332.192ZM55.1105 330.288C55.4198 330.288 55.6758 330.203 55.8785 330.032C56.0812 329.851 56.1825 329.568 56.1825 329.184V328.832L55.0945 328.912C54.8172 328.923 54.6145 328.997 54.4865 329.136C54.3585 329.275 54.2945 329.44 54.2945 329.632C54.2945 329.856 54.3745 330.021 54.5345 330.128C54.7052 330.235 54.8972 330.288 55.1105 330.288ZM60.3904 332V324.096H63.2064V325.488H63.3024C63.4624 324.965 63.7184 324.571 64.0704 324.304C64.433 324.037 64.8864 323.904 65.4304 323.904C65.633 323.904 65.8304 323.92 66.0224 323.952C66.2144 323.973 66.3957 324.011 66.5664 324.064L65.8304 326.736C65.7237 326.672 65.5904 326.624 65.4304 326.592C65.2704 326.549 65.1157 326.528 64.9664 326.528C64.5077 326.528 64.129 326.645 63.8304 326.88C63.5424 327.115 63.3984 327.515 63.3984 328.08V332H60.3904ZM68.6399 335.136C68.4585 335.136 68.2719 335.125 68.0799 335.104C67.8985 335.093 67.7225 335.067 67.5519 335.024V332.64C67.6799 332.661 67.8239 332.677 67.9839 332.688C68.1439 332.709 68.2879 332.72 68.4159 332.72C68.6719 332.72 68.8745 332.693 69.0239 332.64C69.1732 332.597 69.2852 332.523 69.3599 332.416C69.4345 332.32 69.4932 332.208 69.5359 332.08L66.7199 324.096H69.9839L71.1199 328.96H71.2159L72.3519 324.096H75.4079L72.6399 331.968C72.4159 332.629 72.1492 333.195 71.8399 333.664C71.5305 334.133 71.1252 334.496 70.6239 334.752C70.1225 335.008 69.4612 335.136 68.6399 335.136ZM83.7445 332.16C83.0405 332.16 82.4645 332.048 82.0165 331.824C81.5685 331.589 81.2325 331.232 81.0085 330.752C80.7952 330.261 80.6885 329.632 80.6885 328.864V326.448H79.6805V324.096H80.6885V321.952H83.6805V324.096H86.0325V326.448H83.6805V328.88C83.6805 329.179 83.7285 329.403 83.8245 329.552C83.9312 329.701 84.1232 329.776 84.4005 329.776C84.5925 329.776 84.7738 329.739 84.9445 329.664C85.1152 329.579 85.2538 329.477 85.3605 329.36L86.2565 331.36C85.9792 331.627 85.6325 331.829 85.2165 331.968C84.8112 332.096 84.3205 332.16 83.7445 332.16ZM90.9331 332.192C90.0265 332.192 89.2585 332.011 88.6291 331.648C87.9998 331.275 87.5251 330.779 87.2051 330.16C86.8851 329.531 86.7251 328.827 86.7251 328.048C86.7251 327.451 86.8105 326.901 86.9811 326.4C87.1518 325.899 87.4025 325.461 87.7331 325.088C88.0745 324.704 88.5011 324.411 89.0131 324.208C89.5358 324.005 90.1385 323.904 90.8211 323.904C91.4931 323.904 92.0798 324.005 92.5811 324.208C93.0825 324.411 93.4985 324.699 93.8291 325.072C94.1598 325.435 94.4051 325.867 94.5651 326.368C94.7251 326.859 94.8051 327.403 94.8051 328C94.8051 328.139 94.7891 328.299 94.7571 328.48C94.7358 328.661 94.7091 328.8 94.6771 328.896H89.6211C89.6745 329.131 89.7758 329.323 89.9251 329.472C90.0745 329.621 90.2558 329.733 90.4691 329.808C90.6931 329.872 90.9171 329.904 91.1411 329.904C91.4611 329.904 91.7438 329.856 91.9891 329.76C92.2345 329.664 92.4265 329.541 92.5651 329.392L94.1491 331.008C93.8718 331.371 93.4451 331.659 92.8691 331.872C92.2931 332.085 91.6478 332.192 90.9331 332.192ZM90.7891 325.968C90.5865 325.968 90.3998 326.016 90.2291 326.112C90.0691 326.197 89.9358 326.331 89.8291 326.512C89.7225 326.683 89.6531 326.896 89.6211 327.152H91.9571C91.9251 326.885 91.8505 326.667 91.7331 326.496C91.6265 326.325 91.4931 326.197 91.3331 326.112C91.1838 326.016 91.0025 325.968 90.7891 325.968ZM94.6216 332L97.4696 328.032L94.8296 324.096H98.3016L99.2616 325.808H99.3736L100.302 324.096H103.454L100.798 327.776L103.662 332H100.126L99.0056 330H98.8936L97.7416 332H94.6216ZM107.885 332.16C107.181 332.16 106.605 332.048 106.157 331.824C105.709 331.589 105.373 331.232 105.149 330.752C104.936 330.261 104.829 329.632 104.829 328.864V326.448H103.821V324.096H104.829V321.952H107.821V324.096H110.173V326.448H107.821V328.88C107.821 329.179 107.869 329.403 107.965 329.552C108.072 329.701 108.264 329.776 108.541 329.776C108.733 329.776 108.914 329.739 109.085 329.664C109.256 329.579 109.394 329.477 109.501 329.36L110.397 331.36C110.12 331.627 109.773 331.829 109.357 331.968C108.952 332.096 108.461 332.16 107.885 332.16Z" fill="black" fill-opacity="0.76"/>
<path d="M324.23 323.566L332 331.598L339.796 323.5L341.24 324.812L333.194 333.16C332.868 333.483 332.427 333.664 331.967 333.664C331.508 333.664 331.067 333.483 330.74 333.16L322.812 324.917L324.23 323.566Z" fill="black" fill-opacity="0.76"/>
<rect width="360" height="1" transform="translate(0 355)" fill="white" fill-opacity="0.01"/>
<rect width="360" height="1" transform="translate(0 355)" fill="black" fill-opacity="0.08"/>
</svg>
