<svg width="360" height="76" viewBox="0 0 360 76" fill="none" xmlns="http://www.w3.org/2000/svg">
<rect width="360" height="76" fill="white"/>
<path d="M16.768 32V21.6H21.808C22.5013 21.6 23.12 21.7493 23.664 22.048C24.208 22.3467 24.6347 22.768 24.944 23.312C25.264 23.856 25.424 24.496 25.424 25.232C25.424 25.776 25.3333 26.272 25.152 26.72C24.9813 27.168 24.7307 27.552 24.4 27.872C24.08 28.1813 23.696 28.4213 23.248 28.592C22.8107 28.7627 22.3307 28.848 21.808 28.848H19.968V32H16.768ZM19.968 26.544H21.104C21.3493 26.544 21.552 26.4853 21.712 26.368C21.8827 26.24 22.0107 26.08 22.096 25.888C22.1813 25.6853 22.224 25.4667 22.224 25.232C22.224 24.8693 22.128 24.56 21.936 24.304C21.7547 24.048 21.4773 23.92 21.104 23.92H19.968V26.544ZM26.531 32V24.096H29.347V25.488H29.443C29.603 24.9653 29.859 24.5707 30.211 24.304C30.5737 24.0373 31.027 23.904 31.571 23.904C31.7737 23.904 31.971 23.92 32.163 23.952C32.355 23.9733 32.5363 24.0107 32.707 24.064L31.971 26.736C31.8643 26.672 31.731 26.624 31.571 26.592C31.411 26.5493 31.2563 26.528 31.107 26.528C30.6483 26.528 30.2697 26.6453 29.971 26.88C29.683 27.1147 29.539 27.5147 29.539 28.08V32H26.531ZM33.281 32V24.096H36.289V32H33.281ZM34.785 23.36C34.241 23.36 33.8357 23.2053 33.569 22.896C33.3023 22.5867 33.169 22.2347 33.169 21.84C33.169 21.4347 33.3023 21.0773 33.569 20.768C33.8357 20.4587 34.241 20.304 34.785 20.304C35.329 20.304 35.7343 20.4587 36.001 20.768C36.2783 21.0773 36.417 21.4347 36.417 21.84C36.417 22.2347 36.2783 22.5867 36.001 22.896C35.7343 23.2053 35.329 23.36 34.785 23.36ZM37.5935 32V24.096H40.4095V25.424H40.5055C40.6975 24.9227 41.0175 24.544 41.4655 24.288C41.9135 24.032 42.3828 23.904 42.8735 23.904C43.5775 23.904 44.1162 24.0427 44.4895 24.32C44.8735 24.5973 45.1402 24.992 45.2895 25.504C45.4068 25.2053 45.5828 24.9387 45.8175 24.704C46.0628 24.4587 46.3508 24.2667 46.6815 24.128C47.0228 23.9787 47.3748 23.904 47.7375 23.904C48.4415 23.904 48.9855 24.0373 49.3695 24.304C49.7642 24.5707 50.0362 24.9547 50.1855 25.456C50.3348 25.9573 50.4095 26.56 50.4095 27.264V32H47.4015V27.744C47.4015 27.5093 47.3748 27.296 47.3215 27.104C47.2682 26.9013 47.1722 26.736 47.0335 26.608C46.9055 26.48 46.7135 26.416 46.4575 26.416C46.1055 26.416 45.8548 26.528 45.7055 26.752C45.5668 26.976 45.4975 27.28 45.4975 27.664V32H42.4895V27.744C42.4895 27.5093 42.4628 27.296 42.4095 27.104C42.3668 26.9013 42.2815 26.736 42.1535 26.608C42.0255 26.48 41.8282 26.416 41.5615 26.416C41.2095 26.416 40.9588 26.528 40.8095 26.752C40.6708 26.976 40.6015 27.28 40.6015 27.664V32H37.5935ZM53.9105 32.192C53.4732 32.192 53.0518 32.1013 52.6465 31.92C52.2412 31.728 51.9105 31.456 51.6545 31.104C51.3985 30.7413 51.2705 30.2933 51.2705 29.76C51.2705 29.28 51.3878 28.8693 51.6225 28.528C51.8572 28.176 52.2198 27.904 52.7105 27.712C53.2118 27.52 53.8518 27.4027 54.6305 27.36L56.1825 27.264V27.168C56.1825 26.9333 56.1132 26.7573 55.9745 26.64C55.8465 26.512 55.6705 26.4213 55.4465 26.368C55.2332 26.3147 55.0092 26.288 54.7745 26.288C54.4545 26.288 54.1452 26.3413 53.8465 26.448C53.5478 26.5547 53.3132 26.6987 53.1425 26.88L51.5745 25.216C51.9265 24.8107 52.4012 24.4907 52.9985 24.256C53.6065 24.0213 54.3692 23.904 55.2865 23.904C56.0545 23.904 56.7265 24.016 57.3025 24.24C57.8892 24.464 58.3478 24.8053 58.6785 25.264C59.0092 25.7227 59.1745 26.304 59.1745 27.008V32H56.3585V30.832H56.2625C56.0598 31.2267 55.7665 31.552 55.3825 31.808C54.9985 32.064 54.5078 32.192 53.9105 32.192ZM55.1105 30.288C55.4198 30.288 55.6758 30.2027 55.8785 30.032C56.0812 29.8507 56.1825 29.568 56.1825 29.184V28.832L55.0945 28.912C54.8172 28.9227 54.6145 28.9973 54.4865 29.136C54.3585 29.2747 54.2945 29.44 54.2945 29.632C54.2945 29.856 54.3745 30.0213 54.5345 30.128C54.7052 30.2347 54.8972 30.288 55.1105 30.288ZM60.3904 32V24.096H63.2064V25.488H63.3024C63.4624 24.9653 63.7184 24.5707 64.0704 24.304C64.433 24.0373 64.8864 23.904 65.4304 23.904C65.633 23.904 65.8304 23.92 66.0224 23.952C66.2144 23.9733 66.3957 24.0107 66.5664 24.064L65.8304 26.736C65.7237 26.672 65.5904 26.624 65.4304 26.592C65.2704 26.5493 65.1157 26.528 64.9664 26.528C64.5077 26.528 64.129 26.6453 63.8304 26.88C63.5424 27.1147 63.3984 27.5147 63.3984 28.08V32H60.3904ZM68.6399 35.136C68.4585 35.136 68.2719 35.1253 68.0799 35.104C67.8985 35.0933 67.7225 35.0667 67.5519 35.024V32.64C67.6799 32.6613 67.8239 32.6773 67.9839 32.688C68.1439 32.7093 68.2879 32.72 68.4159 32.72C68.6719 32.72 68.8745 32.6933 69.0239 32.64C69.1732 32.5973 69.2852 32.5227 69.3599 32.416C69.4345 32.32 69.4932 32.208 69.5359 32.08L66.7199 24.096H69.9839L71.1199 28.96H71.2159L72.3519 24.096H75.4079L72.6399 31.968C72.4159 32.6293 72.1492 33.1947 71.8399 33.664C71.5305 34.1333 71.1252 34.496 70.6239 34.752C70.1225 35.008 69.4612 35.136 68.6399 35.136ZM83.7445 32.16C83.0405 32.16 82.4645 32.048 82.0165 31.824C81.5685 31.5893 81.2325 31.232 81.0085 30.752C80.7952 30.2613 80.6885 29.632 80.6885 28.864V26.448H79.6805V24.096H80.6885V21.952H83.6805V24.096H86.0325V26.448H83.6805V28.88C83.6805 29.1787 83.7285 29.4027 83.8245 29.552C83.9312 29.7013 84.1232 29.776 84.4005 29.776C84.5925 29.776 84.7738 29.7387 84.9445 29.664C85.1152 29.5787 85.2538 29.4773 85.3605 29.36L86.2565 31.36C85.9792 31.6267 85.6325 31.8293 85.2165 31.968C84.8112 32.096 84.3205 32.16 83.7445 32.16ZM90.9331 32.192C90.0265 32.192 89.2585 32.0107 88.6291 31.648C87.9998 31.2747 87.5251 30.7787 87.2051 30.16C86.8851 29.5307 86.7251 28.8267 86.7251 28.048C86.7251 27.4507 86.8105 26.9013 86.9811 26.4C87.1518 25.8987 87.4025 25.4613 87.7331 25.088C88.0745 24.704 88.5011 24.4107 89.0131 24.208C89.5358 24.0053 90.1385 23.904 90.8211 23.904C91.4931 23.904 92.0798 24.0053 92.5811 24.208C93.0825 24.4107 93.4985 24.6987 93.8291 25.072C94.1598 25.4347 94.4051 25.8667 94.5651 26.368C94.7251 26.8587 94.8051 27.4027 94.8051 28C94.8051 28.1387 94.7891 28.2987 94.7571 28.48C94.7358 28.6613 94.7091 28.8 94.6771 28.896H89.6211C89.6745 29.1307 89.7758 29.3227 89.9251 29.472C90.0745 29.6213 90.2558 29.7333 90.4691 29.808C90.6931 29.872 90.9171 29.904 91.1411 29.904C91.4611 29.904 91.7438 29.856 91.9891 29.76C92.2345 29.664 92.4265 29.5413 92.5651 29.392L94.1491 31.008C93.8718 31.3707 93.4451 31.6587 92.8691 31.872C92.2931 32.0853 91.6478 32.192 90.9331 32.192ZM90.7891 25.968C90.5865 25.968 90.3998 26.016 90.2291 26.112C90.0691 26.1973 89.9358 26.3307 89.8291 26.512C89.7225 26.6827 89.6531 26.896 89.6211 27.152H91.9571C91.9251 26.8853 91.8505 26.6667 91.7331 26.496C91.6265 26.3253 91.4931 26.1973 91.3331 26.112C91.1838 26.016 91.0025 25.968 90.7891 25.968ZM94.6216 32L97.4696 28.032L94.8296 24.096H98.3016L99.2616 25.808H99.3736L100.302 24.096H103.454L100.798 27.776L103.662 32H100.126L99.0056 30H98.8936L97.7416 32H94.6216ZM107.885 32.16C107.181 32.16 106.605 32.048 106.157 31.824C105.709 31.5893 105.373 31.232 105.149 30.752C104.936 30.2613 104.829 29.632 104.829 28.864V26.448H103.821V24.096H104.829V21.952H107.821V24.096H110.173V26.448H107.821V28.88C107.821 29.1787 107.869 29.4027 107.965 29.552C108.072 29.7013 108.264 29.776 108.541 29.776C108.733 29.776 108.914 29.7387 109.085 29.664C109.256 29.5787 109.394 29.4773 109.501 29.36L110.397 31.36C110.12 31.6267 109.773 31.8293 109.357 31.968C108.952 32.096 108.461 32.16 107.885 32.16Z" fill="black" fill-opacity="0.76"/>
<path d="M19.668 55.168C18.8747 55.168 18.2307 55.0467 17.736 54.804C17.2413 54.552 16.8493 54.2393 16.56 53.866L17.316 53.152C17.568 53.46 17.904 53.7027 18.324 53.88C18.744 54.0573 19.2293 54.146 19.78 54.146C20.116 54.146 20.4287 54.0993 20.718 54.006C21.0167 53.9033 21.2593 53.74 21.446 53.516C21.6327 53.292 21.726 52.9933 21.726 52.62C21.726 52.2933 21.628 52.032 21.432 51.836C21.2453 51.6307 20.9887 51.458 20.662 51.318C20.3447 51.178 19.9807 51.0427 19.57 50.912C19.2433 50.8 18.9213 50.6787 18.604 50.548C18.2867 50.4173 17.9973 50.2587 17.736 50.072C17.484 49.876 17.2787 49.638 17.12 49.358C16.9707 49.0687 16.896 48.714 16.896 48.294C16.896 47.874 16.9707 47.5053 17.12 47.188C17.2693 46.8707 17.4793 46.6047 17.75 46.39C18.03 46.1753 18.3567 46.012 18.73 45.9C19.1033 45.788 19.5093 45.732 19.948 45.732C20.592 45.732 21.166 45.844 21.67 46.068C22.1833 46.292 22.5987 46.6327 22.916 47.09L22.16 47.832C21.908 47.524 21.5813 47.2673 21.18 47.062C20.788 46.8567 20.3447 46.754 19.85 46.754C19.57 46.754 19.2947 46.8053 19.024 46.908C18.7627 47.0013 18.5433 47.1553 18.366 47.37C18.1887 47.5847 18.1 47.8693 18.1 48.224C18.1 48.5507 18.1933 48.8167 18.38 49.022C18.576 49.218 18.8373 49.386 19.164 49.526C19.4907 49.6567 19.8547 49.792 20.256 49.932C20.5827 50.044 20.9047 50.1653 21.222 50.296C21.5393 50.4267 21.824 50.59 22.076 50.786C22.3373 50.9727 22.5427 51.2107 22.692 51.5C22.8507 51.78 22.93 52.13 22.93 52.55C22.93 52.998 22.846 53.39 22.678 53.726C22.51 54.0527 22.2767 54.3233 21.978 54.538C21.6793 54.7527 21.3293 54.9113 20.928 55.014C20.536 55.1167 20.116 55.168 19.668 55.168ZM27.5209 55.168C26.8582 55.168 26.2796 55.0233 25.7849 54.734C25.2996 54.4447 24.9216 54.0293 24.6509 53.488C24.3802 52.9373 24.2449 52.2887 24.2449 51.542C24.2449 50.954 24.3196 50.436 24.4689 49.988C24.6276 49.5307 24.8469 49.1527 25.1269 48.854C25.4162 48.546 25.7522 48.3127 26.1349 48.154C26.5269 47.9953 26.9562 47.916 27.4229 47.916C27.8896 47.916 28.3142 47.9907 28.6969 48.14C29.0889 48.2893 29.4249 48.5133 29.7049 48.812C29.9942 49.1013 30.2182 49.47 30.3769 49.918C30.5356 50.3567 30.6149 50.87 30.6149 51.458C30.6149 51.5327 30.6102 51.6073 30.6009 51.682C30.6009 51.7567 30.5962 51.8173 30.5869 51.864H25.3649C25.3742 52.2933 25.4769 52.6853 25.6729 53.04C25.8689 53.3947 26.1302 53.6793 26.4569 53.894C26.7929 54.0993 27.1662 54.202 27.5769 54.202C28.0716 54.202 28.4822 54.104 28.8089 53.908C29.1356 53.712 29.4062 53.474 29.6209 53.194L30.2929 53.88C30.0036 54.272 29.6349 54.5847 29.1869 54.818C28.7389 55.0513 28.1836 55.168 27.5209 55.168ZM27.4229 48.84C26.9842 48.84 26.6156 48.9427 26.3169 49.148C26.0182 49.3533 25.7896 49.6147 25.6309 49.932C25.4816 50.2493 25.4022 50.5807 25.3929 50.926H29.4389C29.4296 50.5807 29.3456 50.2493 29.1869 49.932C29.0376 49.6147 28.8136 49.3533 28.5149 49.148C28.2256 48.9427 27.8616 48.84 27.4229 48.84ZM35.0525 55.168C34.3058 55.168 33.6945 54.9953 33.2185 54.65C32.7425 54.3047 32.3925 53.8567 32.1685 53.306C31.9538 52.746 31.8465 52.158 31.8465 51.542C31.8465 50.9167 31.9538 50.3287 32.1685 49.778C32.3831 49.2273 32.7238 48.7793 33.1905 48.434C33.6665 48.0887 34.2778 47.916 35.0245 47.916C35.6031 47.916 36.0791 48.014 36.4525 48.21C36.8351 48.406 37.1571 48.6673 37.4185 48.994L36.7185 49.652C36.4945 49.4093 36.2565 49.2227 36.0045 49.092C35.7618 48.952 35.4445 48.882 35.0525 48.882C34.6511 48.882 34.2918 48.9893 33.9745 49.204C33.6665 49.4187 33.4238 49.7267 33.2465 50.128C33.0785 50.52 32.9945 50.9913 32.9945 51.542C32.9945 52.3633 33.1905 53.012 33.5825 53.488C33.9745 53.964 34.4738 54.202 35.0805 54.202C35.4538 54.202 35.7758 54.1367 36.0465 54.006C36.3171 53.866 36.5691 53.6653 36.8025 53.404L37.4745 54.076C37.2131 54.4027 36.8818 54.6687 36.4805 54.874C36.0885 55.07 35.6125 55.168 35.0525 55.168ZM41.6993 55.168C40.962 55.168 40.346 55.0047 39.8513 54.678C39.366 54.3513 39.002 53.9127 38.7593 53.362C38.5166 52.8113 38.3953 52.2047 38.3953 51.542C38.3953 51.038 38.4606 50.5667 38.5913 50.128C38.7313 49.6893 38.9366 49.3067 39.2073 48.98C39.4873 48.644 39.8326 48.3827 40.2433 48.196C40.6633 48.0093 41.1486 47.916 41.6993 47.916C42.4366 47.916 43.0433 48.0793 43.5193 48.406C44.0046 48.7327 44.364 49.1713 44.5973 49.722C44.84 50.2633 44.9613 50.87 44.9613 51.542C44.9613 52.046 44.8913 52.5173 44.7513 52.956C44.6206 53.3947 44.42 53.782 44.1493 54.118C43.8786 54.4447 43.538 54.7013 43.1273 54.888C42.726 55.0747 42.25 55.168 41.6993 55.168ZM39.5433 51.542C39.5433 52.074 39.6226 52.5453 39.7813 52.956C39.94 53.3573 40.178 53.6747 40.4953 53.908C40.8126 54.132 41.214 54.244 41.6993 54.244C42.1753 54.244 42.5673 54.132 42.8753 53.908C43.1926 53.6747 43.426 53.3573 43.5753 52.956C43.734 52.5453 43.8133 52.074 43.8133 51.542C43.8133 51.01 43.734 50.5433 43.5753 50.142C43.426 49.7313 43.1926 49.414 42.8753 49.19C42.5673 48.9567 42.1753 48.84 41.6993 48.84C41.214 48.84 40.8126 48.9567 40.4953 49.19C40.178 49.414 39.94 49.7313 39.7813 50.142C39.6226 50.5433 39.5433 51.01 39.5433 51.542ZM46.7623 55V48.084H47.8263V49.176H47.9103C48.0223 48.9333 48.1669 48.7187 48.3443 48.532C48.5216 48.336 48.7316 48.1867 48.9743 48.084C49.2169 47.972 49.4923 47.916 49.8003 47.916C50.5936 47.916 51.2189 48.126 51.6763 48.546C52.1429 48.9567 52.3763 49.6333 52.3763 50.576V55H51.2563V50.786C51.2563 50.0767 51.1116 49.5773 50.8223 49.288C50.5423 48.9893 50.1269 48.84 49.5763 48.84C49.0536 48.84 48.6383 49.022 48.3303 49.386C48.0316 49.75 47.8823 50.282 47.8823 50.982V55H46.7623ZM57.1156 55.168C56.4996 55.168 55.9629 55.0093 55.5056 54.692C55.0483 54.3747 54.6889 53.9453 54.4276 53.404C54.1756 52.8533 54.0496 52.228 54.0496 51.528C54.0496 50.828 54.1756 50.2073 54.4276 49.666C54.6889 49.1153 55.0483 48.686 55.5056 48.378C55.9629 48.07 56.4996 47.916 57.1156 47.916C57.6849 47.916 58.1749 48.0513 58.5856 48.322C58.9963 48.5927 59.2903 48.938 59.4676 49.358H59.5516V44.85H60.6716V55H59.6076V53.586H59.5236C59.3649 54.062 59.0663 54.4447 58.6276 54.734C58.1889 55.0233 57.6849 55.168 57.1156 55.168ZM57.3956 54.16C57.7969 54.16 58.1563 54.0667 58.4736 53.88C58.8003 53.684 59.0616 53.39 59.2576 52.998C59.4536 52.606 59.5516 52.1207 59.5516 51.542C59.5516 50.954 59.4536 50.4687 59.2576 50.086C59.0616 49.694 58.8003 49.4047 58.4736 49.218C58.1563 49.022 57.7969 48.924 57.3956 48.924C56.9849 48.924 56.6116 49.022 56.2756 49.218C55.9489 49.4047 55.6876 49.694 55.4916 50.086C55.2956 50.4687 55.1976 50.954 55.1976 51.542C55.1976 52.1207 55.2956 52.606 55.4916 52.998C55.6876 53.39 55.9489 53.684 56.2756 53.88C56.6116 54.0667 56.9849 54.16 57.3956 54.16ZM64.5715 55.168C64.1515 55.168 63.7735 55.0793 63.4375 54.902C63.1108 54.7247 62.8541 54.4773 62.6675 54.16C62.4808 53.8427 62.3875 53.4787 62.3875 53.068C62.3875 52.6667 62.4808 52.3213 62.6675 52.032C62.8635 51.7333 63.1481 51.4953 63.5215 51.318C63.8948 51.1407 64.3428 51.038 64.8655 51.01L66.6855 50.898V50.408C66.6855 50.0533 66.6248 49.7687 66.5035 49.554C66.3915 49.33 66.2235 49.1667 65.9995 49.064C65.7848 48.952 65.5188 48.896 65.2015 48.896C64.8001 48.896 64.4548 48.9707 64.1655 49.12C63.8761 49.2693 63.6521 49.4327 63.4935 49.61L62.8215 48.938C63.0641 48.6393 63.3955 48.3967 63.8155 48.21C64.2355 48.014 64.7068 47.916 65.2295 47.916C65.8641 47.916 66.3681 48.0233 66.7415 48.238C67.1148 48.4527 67.3808 48.742 67.5395 49.106C67.7075 49.4607 67.7915 49.8573 67.7915 50.296V55H66.7415V53.824H66.6575C66.4801 54.2347 66.2188 54.5613 65.8735 54.804C65.5281 55.0467 65.0941 55.168 64.5715 55.168ZM64.7395 54.216C65.3181 54.216 65.7848 54.048 66.1395 53.712C66.5035 53.3667 66.6855 52.9093 66.6855 52.34V51.738L64.9215 51.864C64.4641 51.9013 64.1141 52.018 63.8715 52.214C63.6381 52.41 63.5215 52.6853 63.5215 53.04C63.5215 53.3947 63.6335 53.6793 63.8575 53.894C64.0908 54.1087 64.3848 54.216 64.7395 54.216ZM70.0455 55V48.084H71.1095V49.204H71.1935C71.3428 48.84 71.5575 48.5367 71.8375 48.294C72.1268 48.042 72.4768 47.916 72.8875 47.916C73.0555 47.916 73.2188 47.9347 73.3775 47.972C73.5455 48 73.6948 48.0513 73.8255 48.126L73.4475 49.134C73.3261 49.0687 73.1955 49.0267 73.0555 49.008C72.9248 48.98 72.7895 48.966 72.6495 48.966C72.1921 48.966 71.8281 49.1527 71.5575 49.526C71.2961 49.89 71.1655 50.3567 71.1655 50.926V55H70.0455ZM75.7021 57.646C75.6088 57.646 75.5061 57.6367 75.3941 57.618C75.2821 57.6087 75.1888 57.5947 75.1141 57.576V56.61C75.1608 56.6193 75.2355 56.6287 75.3381 56.638C75.4501 56.6473 75.5528 56.652 75.6461 56.652C75.8981 56.652 76.1035 56.6193 76.2621 56.554C76.4208 56.498 76.5655 56.3673 76.6961 56.162C76.8268 55.9567 76.9715 55.644 77.1301 55.224L74.3581 48.084H75.5761L77.6621 53.88H77.7461L79.8461 48.084H80.9801L78.2641 55.07C78.0308 55.6767 77.8021 56.1667 77.5781 56.54C77.3541 56.9227 77.0975 57.2027 76.8081 57.38C76.5188 57.5573 76.1501 57.646 75.7021 57.646ZM87.9371 55.168C87.5265 55.168 87.1858 55.084 86.9151 54.916C86.6445 54.748 86.4438 54.5053 86.3131 54.188C86.1918 53.8707 86.1311 53.4973 86.1311 53.068V48.994H84.8991V48.084H86.1311V46.208H87.2371V48.084H89.2391V48.994H87.2371V52.97C87.2371 53.418 87.3211 53.7307 87.4891 53.908C87.6665 54.0853 87.8905 54.174 88.1611 54.174C88.3478 54.174 88.5158 54.1413 88.6651 54.076C88.8145 54.0013 88.9545 53.9033 89.0851 53.782L89.5891 54.566C89.3745 54.7713 89.1271 54.9207 88.8471 55.014C88.5765 55.1167 88.2731 55.168 87.9371 55.168ZM93.7065 55.168C93.0438 55.168 92.4651 55.0233 91.9705 54.734C91.4851 54.4447 91.1071 54.0293 90.8365 53.488C90.5658 52.9373 90.4305 52.2887 90.4305 51.542C90.4305 50.954 90.5051 50.436 90.6545 49.988C90.8131 49.5307 91.0325 49.1527 91.3125 48.854C91.6018 48.546 91.9378 48.3127 92.3205 48.154C92.7125 47.9953 93.1418 47.916 93.6085 47.916C94.0751 47.916 94.4998 47.9907 94.8825 48.14C95.2745 48.2893 95.6105 48.5133 95.8905 48.812C96.1798 49.1013 96.4038 49.47 96.5625 49.918C96.7211 50.3567 96.8005 50.87 96.8005 51.458C96.8005 51.5327 96.7958 51.6073 96.7865 51.682C96.7865 51.7567 96.7818 51.8173 96.7725 51.864H91.5505C91.5598 52.2933 91.6625 52.6853 91.8585 53.04C92.0545 53.3947 92.3158 53.6793 92.6425 53.894C92.9785 54.0993 93.3518 54.202 93.7625 54.202C94.2571 54.202 94.6678 54.104 94.9945 53.908C95.3211 53.712 95.5918 53.474 95.8065 53.194L96.4785 53.88C96.1891 54.272 95.8205 54.5847 95.3725 54.818C94.9245 55.0513 94.3691 55.168 93.7065 55.168ZM93.6085 48.84C93.1698 48.84 92.8011 48.9427 92.5025 49.148C92.2038 49.3533 91.9751 49.6147 91.8165 49.932C91.6671 50.2493 91.5878 50.5807 91.5785 50.926H95.6245C95.6151 50.5807 95.5311 50.2493 95.3725 49.932C95.2231 49.6147 94.9991 49.3533 94.7005 49.148C94.4111 48.9427 94.0471 48.84 93.6085 48.84ZM97.6319 55L100.054 51.486L97.7439 48.084H99.0879L100.726 50.674H100.782L102.476 48.084H103.68L101.37 51.43L103.792 55H102.448L100.698 52.242H100.642L98.8359 55H97.6319ZM107.57 55.168C107.159 55.168 106.819 55.084 106.548 54.916C106.277 54.748 106.077 54.5053 105.946 54.188C105.825 53.8707 105.764 53.4973 105.764 53.068V48.994H104.532V48.084H105.764V46.208H106.87V48.084H108.872V48.994H106.87V52.97C106.87 53.418 106.954 53.7307 107.122 53.908C107.299 54.0853 107.523 54.174 107.794 54.174C107.981 54.174 108.149 54.1413 108.298 54.076C108.447 54.0013 108.587 53.9033 108.718 53.782L109.222 54.566C109.007 54.7713 108.76 54.9207 108.48 55.014C108.209 55.1167 107.906 55.168 107.57 55.168Z" fill="black" fill-opacity="0.64"/>
<path d="M324.23 23.5656L332 31.5981L339.796 23.5L341.24 24.8125L333.194 33.16C332.868 33.483 332.427 33.6642 331.967 33.6642C331.508 33.6642 331.067 33.483 330.74 33.16L322.812 24.9175L324.23 23.5656Z" fill="black" fill-opacity="0.76"/>
<rect width="360" height="1" transform="translate(0 75)" fill="white" fill-opacity="0.01"/>
<rect width="360" height="1" transform="translate(0 75)" fill="black" fill-opacity="0.08"/>
</svg>
