<svg width="215" height="68" viewBox="0 0 215 68" fill="none" xmlns="http://www.w3.org/2000/svg">
<g filter="url(#filter0_dd_8012_442)">
<g clip-path="url(#clip0_8012_442)">
<path d="M4 34C4 17.4315 17.4315 4 34 4H84C100.569 4 114 17.4315 114 34C114 50.5685 100.569 64 84 64H34C17.4315 64 4 50.5685 4 34Z" fill="#F36805"/>
<path d="M4 34C4 17.4315 17.4315 4 34 4H84C100.569 4 114 17.4315 114 34V34C114 50.5685 100.569 64 84 64H34C17.4315 64 4 50.5685 4 34V34Z" fill="white" fill-opacity="0.01"/>
<path d="M29.9229 28H34.9829C36.1829 28 37.1029 28.3267 37.7429 28.98C38.3962 29.62 38.7229 30.4733 38.7229 31.54C38.7229 31.8333 38.6696 32.12 38.5629 32.4C38.4562 32.68 38.3096 32.94 38.1229 33.18C37.9362 33.42 37.7096 33.6333 37.4429 33.82C37.1896 34.0067 36.9096 34.1467 36.6029 34.24V34.36C36.9229 34.4 37.2429 34.5067 37.5629 34.68C37.8829 34.8533 38.1629 35.0733 38.4029 35.34C38.6562 35.6067 38.8629 35.9133 39.0229 36.26C39.1829 36.6067 39.2629 36.9667 39.2629 37.34C39.2629 38.4333 38.8962 39.32 38.1629 40C37.4429 40.6667 36.4029 41 35.0429 41H29.9229V28ZM34.5229 33.44C34.9762 33.44 35.3362 33.2867 35.6029 32.98C35.8829 32.6733 36.0229 32.26 36.0229 31.74C36.0229 31.2333 35.8829 30.8267 35.6029 30.52C35.3362 30.2 34.9762 30.04 34.5229 30.04H32.6029V33.44H34.5229ZM34.8429 38.96C35.3896 38.96 35.8162 38.8067 36.1229 38.5C36.4296 38.18 36.5829 37.7333 36.5829 37.16C36.5829 36.5733 36.4296 36.1267 36.1229 35.82C35.8162 35.5 35.3896 35.34 34.8429 35.34H32.6029V38.96H34.8429ZM44.7435 41.24C43.5302 41.24 42.6502 40.9133 42.1035 40.26C41.5568 39.5933 41.2835 38.5933 41.2835 37.26V31.12H43.8035V36.76C43.8035 37.56 43.9435 38.1533 44.2235 38.54C44.5035 38.9267 44.9635 39.12 45.6035 39.12C46.2168 39.12 46.6768 38.9133 46.9835 38.5C47.3035 38.0733 47.4635 37.46 47.4635 36.66V31.12H49.9835V41H47.6035V39.4H47.4835C47.2568 39.9333 46.9102 40.3733 46.4435 40.72C45.9768 41.0667 45.4102 41.24 44.7435 41.24ZM56.4149 41.22C55.3216 41.22 54.5216 40.9267 54.0149 40.34C53.5216 39.7533 53.2749 38.8667 53.2749 37.68V33.14H51.7149V31.12H53.2749V28.44H55.7749V31.12H58.6549V33.14H55.7749V37.66C55.7749 38.18 55.8683 38.5533 56.0549 38.78C56.2416 38.9933 56.5216 39.1 56.8949 39.1C57.1616 39.1 57.4016 39.0533 57.6149 38.96C57.8283 38.8533 58.0149 38.7267 58.1749 38.58L59.0749 40.3C58.7416 40.62 58.3616 40.8533 57.9349 41C57.5083 41.1467 57.0016 41.22 56.4149 41.22ZM63.9735 41.22C62.8802 41.22 62.0802 40.9267 61.5735 40.34C61.0802 39.7533 60.8335 38.8667 60.8335 37.68V33.14H59.2735V31.12H60.8335V28.44H63.3335V31.12H66.2135V33.14H63.3335V37.66C63.3335 38.18 63.4268 38.5533 63.6135 38.78C63.8002 38.9933 64.0802 39.1 64.4535 39.1C64.7202 39.1 64.9602 39.0533 65.1735 38.96C65.3868 38.8533 65.5735 38.7267 65.7335 38.58L66.6335 40.3C66.3002 40.62 65.9202 40.8533 65.4935 41C65.0668 41.1467 64.5602 41.22 63.9735 41.22ZM72.579 41.24C71.7523 41.24 71.0257 41.1067 70.399 40.84C69.7857 40.56 69.2657 40.1867 68.839 39.72C68.4257 39.2533 68.1123 38.7067 67.899 38.08C67.699 37.44 67.599 36.7667 67.599 36.06C67.599 35.3533 67.699 34.6867 67.899 34.06C68.1123 33.4333 68.4257 32.8867 68.839 32.42C69.2657 31.94 69.7857 31.5667 70.399 31.3C71.0257 31.02 71.7523 30.88 72.579 30.88C73.4057 30.88 74.1257 31.02 74.739 31.3C75.3657 31.5667 75.879 31.94 76.279 32.42C76.6923 32.8867 76.999 33.4333 77.199 34.06C77.4123 34.6867 77.519 35.3533 77.519 36.06C77.519 36.7667 77.4123 37.44 77.199 38.08C76.999 38.7067 76.6923 39.2533 76.279 39.72C75.879 40.1867 75.3657 40.56 74.739 40.84C74.1257 41.1067 73.4057 41.24 72.579 41.24ZM70.179 36.06C70.179 37.0333 70.3857 37.8 70.799 38.36C71.2257 38.92 71.819 39.2 72.579 39.2C73.3257 39.2 73.9057 38.92 74.319 38.36C74.7457 37.8 74.959 37.0333 74.959 36.06C74.959 35.0867 74.7457 34.32 74.319 33.76C73.9057 33.2 73.3257 32.92 72.579 32.92C71.819 32.92 71.2257 33.2 70.799 33.76C70.3857 34.32 70.179 35.0867 70.179 36.06ZM79.4704 31.12H81.8504V32.72H81.9704C82.1971 32.1867 82.5504 31.7467 83.0304 31.4C83.5237 31.0533 84.1104 30.88 84.7904 30.88C86.0437 30.88 86.9437 31.2133 87.4904 31.88C88.0504 32.5333 88.3304 33.5267 88.3304 34.86V41H85.8104V35.36C85.8104 34.56 85.6637 33.9667 85.3704 33.58C85.0904 33.1933 84.6104 33 83.9304 33C83.2904 33 82.8037 33.2133 82.4704 33.64C82.1504 34.0533 81.9904 34.66 81.9904 35.46V41H79.4704V31.12Z" fill="white"/>
</g>
</g>
<g filter="url(#filter1_dd_8012_442)">
<g clip-path="url(#clip1_8012_442)">
<path d="M138 34C138 25.1634 145.163 18 154 18H195C203.837 18 211 25.1634 211 34C211 42.8366 203.837 50 195 50H154C145.163 50 138 42.8366 138 34Z" fill="#262626"/>
<g clip-path="url(#clip2_8012_442)">
<path d="M155.026 39.168C154.298 39.168 153.659 39.042 153.108 38.79C152.557 38.5287 152.095 38.1833 151.722 37.754C151.358 37.3153 151.078 36.8113 150.882 36.242C150.695 35.6633 150.602 35.0567 150.602 34.422C150.602 33.7873 150.695 33.1853 150.882 32.616C151.069 32.0467 151.344 31.552 151.708 31.132C152.081 30.7027 152.539 30.362 153.08 30.11C153.621 29.858 154.247 29.732 154.956 29.732C155.656 29.732 156.272 29.858 156.804 30.11C157.345 30.3527 157.807 30.6793 158.19 31.09L156.986 32.21C156.743 31.93 156.445 31.7153 156.09 31.566C155.735 31.4073 155.362 31.328 154.97 31.328C154.615 31.328 154.284 31.4027 153.976 31.552C153.677 31.692 153.421 31.8973 153.206 32.168C152.991 32.4387 152.823 32.7653 152.702 33.148C152.581 33.5307 152.52 33.96 152.52 34.436C152.52 34.9027 152.585 35.3273 152.716 35.71C152.847 36.0927 153.024 36.424 153.248 36.704C153.472 36.9747 153.738 37.1893 154.046 37.348C154.354 37.4973 154.685 37.572 155.04 37.572C155.432 37.572 155.805 37.4973 156.16 37.348C156.524 37.1893 156.827 36.9653 157.07 36.676L158.26 37.796C157.887 38.216 157.425 38.552 156.874 38.804C156.333 39.0467 155.717 39.168 155.026 39.168ZM159.619 28.85H161.383V33.022H161.467C161.635 32.7047 161.878 32.4433 162.195 32.238C162.513 32.0233 162.895 31.916 163.343 31.916C164.221 31.916 164.851 32.1493 165.233 32.616C165.625 33.0733 165.821 33.7687 165.821 34.702V39H164.057V35.052C164.057 34.492 163.955 34.0767 163.749 33.806C163.553 33.5353 163.217 33.4 162.741 33.4C162.293 33.4 161.953 33.5493 161.719 33.848C161.495 34.1373 161.383 34.562 161.383 35.122V39H159.619V28.85ZM169.495 30.166C169.495 30.4273 169.401 30.6607 169.215 30.866C169.037 31.0713 168.785 31.174 168.459 31.174C168.123 31.174 167.866 31.0713 167.689 30.866C167.511 30.6607 167.423 30.4273 167.423 30.166C167.423 29.8953 167.511 29.662 167.689 29.466C167.866 29.2607 168.123 29.158 168.459 29.158C168.785 29.158 169.037 29.2607 169.215 29.466C169.401 29.662 169.495 29.8953 169.495 30.166ZM167.563 32.084H169.327V39H167.563V32.084ZM171.186 32.084H172.866V33.386H172.95C173.118 32.9287 173.398 32.5693 173.79 32.308C174.191 32.0467 174.662 31.916 175.204 31.916C175.633 31.916 176.03 32.0047 176.394 32.182C176.767 32.3593 177.084 32.6067 177.346 32.924C177.616 33.232 177.826 33.61 177.976 34.058C178.125 34.4967 178.2 34.982 178.2 35.514C178.2 36.0553 178.125 36.55 177.976 36.998C177.826 37.446 177.616 37.8333 177.346 38.16C177.084 38.4773 176.767 38.7247 176.394 38.902C176.03 39.0793 175.633 39.168 175.204 39.168C174.662 39.168 174.205 39.042 173.832 38.79C173.458 38.538 173.192 38.2113 173.034 37.81H172.95V41.59H171.186V32.084ZM174.658 37.628C175.18 37.628 175.6 37.4413 175.918 37.068C176.235 36.6947 176.394 36.186 176.394 35.542C176.394 34.898 176.235 34.3893 175.918 34.016C175.6 33.6427 175.18 33.456 174.658 33.456C174.144 33.456 173.729 33.6427 173.412 34.016C173.104 34.3893 172.95 34.898 172.95 35.542C172.95 36.186 173.104 36.6947 173.412 37.068C173.729 37.4413 174.144 37.628 174.658 37.628Z" fill="white"/>
<g clip-path="url(#clip3_8012_442)">
<path d="M195 23.8281C192.988 23.8281 191.022 24.4247 189.349 25.5424C187.676 26.6601 186.372 28.2487 185.602 30.1074C184.833 31.9661 184.631 34.0113 185.024 35.9844C185.416 37.9576 186.385 39.77 187.807 41.1926C189.23 42.6152 191.042 43.5839 193.016 43.9764C194.989 44.3689 197.034 44.1675 198.893 43.3976C200.751 42.6277 202.34 41.3239 203.458 39.6512C204.575 37.9784 205.172 36.0118 205.172 34C205.168 31.3033 204.096 28.7181 202.189 26.8112C200.282 24.9044 197.697 23.8316 195 23.8281ZM199.305 36.9531L197.914 38.3444L195 35.3913L192.086 38.305L190.695 36.9138L193.609 34L190.695 31.0863L192.086 29.695L195 32.6088L197.914 29.695L199.305 31.0863L196.391 34L199.305 36.9531Z" fill="white"/>
</g>
</g>
</g>
</g>
<defs>
<filter id="filter0_dd_8012_442" x="0" y="0" width="118" height="68" filterUnits="userSpaceOnUse" color-interpolation-filters="sRGB">
<feFlood flood-opacity="0" result="BackgroundImageFix"/>
<feColorMatrix in="SourceAlpha" type="matrix" values="0 0 0 0 0 0 0 0 0 0 0 0 0 0 0 0 0 0 127 0" result="hardAlpha"/>
<feMorphology radius="4" operator="dilate" in="SourceAlpha" result="effect1_dropShadow_8012_442"/>
<feOffset/>
<feComposite in2="hardAlpha" operator="out"/>
<feColorMatrix type="matrix" values="0 0 0 0 0.168627 0 0 0 0 0.243137 0 0 0 0 0.592157 0 0 0 1 0"/>
<feBlend mode="normal" in2="BackgroundImageFix" result="effect1_dropShadow_8012_442"/>
<feColorMatrix in="SourceAlpha" type="matrix" values="0 0 0 0 0 0 0 0 0 0 0 0 0 0 0 0 0 0 127 0" result="hardAlpha"/>
<feMorphology radius="2" operator="dilate" in="SourceAlpha" result="effect2_dropShadow_8012_442"/>
<feOffset/>
<feComposite in2="hardAlpha" operator="out"/>
<feColorMatrix type="matrix" values="0 0 0 0 1 0 0 0 0 1 0 0 0 0 1 0 0 0 1 0"/>
<feBlend mode="normal" in2="effect1_dropShadow_8012_442" result="effect2_dropShadow_8012_442"/>
<feBlend mode="normal" in="SourceGraphic" in2="effect2_dropShadow_8012_442" result="shape"/>
</filter>
<filter id="filter1_dd_8012_442" x="134" y="14" width="81" height="40" filterUnits="userSpaceOnUse" color-interpolation-filters="sRGB">
<feFlood flood-opacity="0" result="BackgroundImageFix"/>
<feColorMatrix in="SourceAlpha" type="matrix" values="0 0 0 0 0 0 0 0 0 0 0 0 0 0 0 0 0 0 127 0" result="hardAlpha"/>
<feMorphology radius="4" operator="dilate" in="SourceAlpha" result="effect1_dropShadow_8012_442"/>
<feOffset/>
<feComposite in2="hardAlpha" operator="out"/>
<feColorMatrix type="matrix" values="0 0 0 0 0.0352941 0 0 0 0 0.301961 0 0 0 0 0.67451 0 0 0 1 0"/>
<feBlend mode="normal" in2="BackgroundImageFix" result="effect1_dropShadow_8012_442"/>
<feColorMatrix in="SourceAlpha" type="matrix" values="0 0 0 0 0 0 0 0 0 0 0 0 0 0 0 0 0 0 127 0" result="hardAlpha"/>
<feMorphology radius="2" operator="dilate" in="SourceAlpha" result="effect2_dropShadow_8012_442"/>
<feOffset/>
<feComposite in2="hardAlpha" operator="out"/>
<feColorMatrix type="matrix" values="0 0 0 0 1 0 0 0 0 1 0 0 0 0 1 0 0 0 1 0"/>
<feBlend mode="normal" in2="effect1_dropShadow_8012_442" result="effect2_dropShadow_8012_442"/>
<feBlend mode="normal" in="SourceGraphic" in2="effect2_dropShadow_8012_442" result="shape"/>
</filter>
<clipPath id="clip0_8012_442">
<path d="M4 34C4 17.4315 17.4315 4 34 4H84C100.569 4 114 17.4315 114 34C114 50.5685 100.569 64 84 64H34C17.4315 64 4 50.5685 4 34Z" fill="white"/>
</clipPath>
<clipPath id="clip1_8012_442">
<path d="M138 34C138 25.1634 145.163 18 154 18H195C203.837 18 211 25.1634 211 34C211 42.8366 203.837 50 195 50H154C145.163 50 138 42.8366 138 34Z" fill="white"/>
</clipPath>
<clipPath id="clip2_8012_442">
<path d="M138 34C138 25.1634 145.163 18 154 18H195C203.837 18 211 25.1634 211 34C211 42.8366 203.837 50 195 50H154C145.163 50 138 42.8366 138 34Z" fill="white"/>
</clipPath>
<clipPath id="clip3_8012_442">
<rect width="21" height="21" fill="white" transform="translate(184.5 23.5)"/>
</clipPath>
</defs>
</svg>
