<svg width="130" height="44" viewBox="0 0 130 44" fill="none" xmlns="http://www.w3.org/2000/svg">
<g clip-path="url(#clip0_3903_10677)">
<path d="M0 22C0 9.84974 9.84974 0 22 0H108C120.15 0 130 9.84974 130 22C130 34.1503 120.15 44 108 44H22C9.84973 44 0 34.1503 0 22Z" fill="white"/>
<path d="M0 22C0 9.84974 9.84974 0 22 0H108C120.15 0 130 9.84974 130 22C130 34.1503 120.15 44 108 44H22C9.84973 44 0 34.1503 0 22Z" fill="white" fill-opacity="0.01"/>
<path d="M45.9756 22.9969C45.9756 22.9969 45.8575 22.9444 45.7919 22.9312L43.6919 22.3538C42.6419 22.065 41.6706 21.54 40.8831 20.7919C40.7913 20.7131 40.7125 20.6212 40.6338 20.5425C39.8856 19.755 39.3606 18.7838 39.0719 17.7338L38.4944 15.6337C38.4944 15.6337 38.455 15.5025 38.4288 15.45C38.2844 15.1744 37.9956 15.03 37.72 15.03C37.405 15.03 37.09 15.2006 36.9588 15.555L36.2763 17.865C36.0138 18.7444 35.5938 19.5712 35.0031 20.2669C34.9638 20.3194 34.9244 20.3588 34.885 20.4113C34.0319 21.3694 32.9163 22.0387 31.6825 22.38L29.6219 22.9444C29.6219 22.9444 29.4906 22.9838 29.4381 23.01C28.8869 23.3119 28.8869 24.1256 29.4381 24.4275C29.4906 24.4537 29.5563 24.48 29.6219 24.4931L31.6825 25.0575C32.9163 25.3988 34.0319 26.0681 34.885 27.0262C34.9244 27.0787 34.9638 27.1181 35.0031 27.1706C35.5938 27.8663 36.0138 28.6931 36.2763 29.5725L36.9588 31.8825C37.09 32.2369 37.405 32.4075 37.72 32.4075C37.9956 32.4075 38.2844 32.2631 38.4288 31.9875C38.455 31.935 38.4813 31.8694 38.4944 31.8038L39.0719 29.7038C39.3606 28.6538 39.8856 27.6825 40.6338 26.895C40.7125 26.8031 40.8044 26.7244 40.8831 26.6456C41.6706 25.8975 42.6419 25.3725 43.6919 25.0837L45.7919 24.5062C45.7919 24.5062 45.9231 24.4669 45.9756 24.4406C46.5269 24.1387 46.5269 23.325 45.9756 23.0231V22.9969Z" fill="#2B2A28"/>
<path d="M29.2806 18.9806C29.3988 18.9806 29.5169 18.915 29.5825 18.7969C29.5956 18.7706 29.6088 18.7444 29.6088 18.7181L29.8581 17.8256C29.9763 17.3794 30.2125 16.9594 30.5275 16.6313C30.5669 16.5919 30.5931 16.5525 30.6325 16.5262C30.9738 16.2112 31.3806 15.975 31.8269 15.8569L32.7194 15.6075C32.7194 15.6075 32.7719 15.5944 32.7981 15.5813C33.0344 15.45 33.0344 15.1088 32.7981 14.9775C32.7719 14.9644 32.7456 14.9513 32.7194 14.9513L31.8269 14.7019C31.3806 14.5838 30.9606 14.3475 30.6325 14.0325C30.5931 13.9931 30.5538 13.9669 30.5275 13.9275C30.2125 13.5863 29.9763 13.1794 29.8581 12.7331L29.6088 11.8406C29.6088 11.8406 29.5956 11.7881 29.5825 11.7619C29.5169 11.6438 29.3988 11.5781 29.2806 11.5781C29.1494 11.5781 29.0181 11.6569 28.9525 11.8013L28.6638 12.7856C28.5588 13.1662 28.375 13.5075 28.1256 13.8094C28.1125 13.8356 28.0863 13.8488 28.0731 13.875C27.7056 14.2819 27.2331 14.5706 26.7081 14.715L25.8288 14.9513C25.8288 14.9513 25.7763 14.9644 25.75 14.9775C25.5006 15.0956 25.5006 15.45 25.75 15.5813C25.7763 15.5944 25.8025 15.6075 25.8288 15.6075L26.7081 15.8438C27.2331 15.9881 27.7056 16.2769 28.0731 16.6838C28.0863 16.71 28.1125 16.7231 28.1256 16.7494C28.375 17.0512 28.5588 17.4056 28.6638 17.7731L28.9525 18.7575C29.005 18.9019 29.1363 18.9806 29.2806 18.9806Z" fill="#2B2A28"/>
<path d="M57.5418 29V16H60.9218V26.3H66.2018V29H57.5418ZM70.6868 29.24C70.1001 29.24 69.5535 29.12 69.0468 28.88C68.5401 28.64 68.1335 28.3 67.8268 27.86C67.5201 27.4067 67.3668 26.86 67.3668 26.22C67.3668 25.62 67.5068 25.1067 67.7868 24.68C68.0801 24.24 68.5201 23.8933 69.1068 23.64C69.7068 23.3867 70.4668 23.2333 71.3868 23.18L73.4868 23.06V22.9C73.4868 22.5267 73.3935 22.2467 73.2068 22.06C73.0201 21.86 72.7801 21.7267 72.4868 21.66C72.1935 21.58 71.8801 21.54 71.5468 21.54C71.1735 21.54 70.7935 21.6067 70.4068 21.74C70.0201 21.8733 69.7335 22.06 69.5468 22.3L67.8068 20.5C68.1668 20.0333 68.6935 19.6467 69.3868 19.34C70.0801 19.0333 70.9868 18.88 72.1068 18.88C73.0535 18.88 73.8668 19.0267 74.5468 19.32C75.2268 19.6133 75.7468 20.0467 76.1068 20.62C76.4801 21.18 76.6668 21.8667 76.6668 22.68V29H73.6868V27.48H73.5668C73.3135 28 72.9468 28.4267 72.4668 28.76C71.9868 29.08 71.3935 29.24 70.6868 29.24ZM71.7668 27.08C72.2735 27.08 72.6868 26.94 73.0068 26.66C73.3268 26.38 73.4868 25.9667 73.4868 25.42V24.9L71.8268 25.02C71.4001 25.0467 71.0801 25.1533 70.8668 25.34C70.6668 25.5267 70.5668 25.7733 70.5668 26.08C70.5668 26.4133 70.6801 26.6667 70.9068 26.84C71.1468 27 71.4335 27.08 71.7668 27.08ZM84.8518 29.24C84.1185 29.24 83.4851 29.0667 82.9518 28.72C82.4318 28.36 82.0451 27.8667 81.7918 27.24H81.6718V29H78.6518V14.5H81.8318V20.74H81.9518C82.1651 20.1933 82.5185 19.7467 83.0118 19.4C83.5051 19.0533 84.1185 18.88 84.8518 18.88C85.6385 18.88 86.3451 19.1067 86.9718 19.56C87.6118 20 88.1185 20.6133 88.4918 21.4C88.8651 22.1867 89.0518 23.1067 89.0518 24.16C89.0518 25.1733 88.8651 26.06 88.4918 26.82C88.1185 27.58 87.6118 28.1733 86.9718 28.6C86.3451 29.0267 85.6385 29.24 84.8518 29.24ZM83.8118 26.5C84.2385 26.5 84.5985 26.3933 84.8918 26.18C85.1851 25.9533 85.4051 25.66 85.5518 25.3C85.7118 24.9267 85.7918 24.5133 85.7918 24.06C85.7918 23.6067 85.7118 23.2 85.5518 22.84C85.4051 22.4667 85.1851 22.1733 84.8918 21.96C84.5985 21.7333 84.2385 21.62 83.8118 21.62C83.3851 21.62 83.0185 21.7333 82.7118 21.96C82.4185 22.1733 82.1985 22.4667 82.0518 22.84C81.9051 23.2 81.8318 23.6067 81.8318 24.06C81.8318 24.5133 81.9051 24.9267 82.0518 25.3C82.1985 25.66 82.4185 25.9533 82.7118 26.18C83.0185 26.3933 83.3851 26.5 83.8118 26.5ZM95.1845 29.24C93.9845 29.24 93.0045 28.9933 92.2445 28.5C91.4845 27.9933 90.9245 27.3467 90.5645 26.56C90.2178 25.7733 90.0445 24.94 90.0445 24.06C90.0445 23.3933 90.1311 22.7533 90.3045 22.14C90.4911 21.5267 90.7778 20.9733 91.1645 20.48C91.5511 19.9867 92.0578 19.6 92.6845 19.32C93.3245 19.0267 94.0978 18.88 95.0045 18.88C95.9111 18.88 96.6778 19.02 97.3045 19.3C97.9311 19.58 98.4311 19.9667 98.8045 20.46C99.1911 20.94 99.4645 21.4867 99.6245 22.1C99.7978 22.7 99.8845 23.3267 99.8845 23.98C99.8845 24.1267 99.8711 24.32 99.8445 24.56C99.8178 24.7867 99.7845 24.96 99.7445 25.08H93.2645C93.3445 25.4667 93.4978 25.7733 93.7245 26C93.9645 26.2267 94.2311 26.3933 94.5245 26.5C94.8311 26.5933 95.1111 26.64 95.3645 26.64C95.8311 26.64 96.2311 26.5667 96.5645 26.42C96.9111 26.2733 97.1778 26.08 97.3645 25.84L99.1045 27.66C98.7845 28.1133 98.2778 28.4933 97.5845 28.8C96.8911 29.0933 96.0911 29.24 95.1845 29.24ZM95.0045 21.24C94.7245 21.24 94.4578 21.3 94.2045 21.42C93.9645 21.5267 93.7511 21.7067 93.5645 21.96C93.3911 22.2133 93.2711 22.5533 93.2045 22.98H96.7645C96.7111 22.5533 96.5911 22.2133 96.4045 21.96C96.2311 21.7067 96.0245 21.5267 95.7845 21.42C95.5445 21.3 95.2845 21.24 95.0045 21.24ZM101.425 29V14.5H104.605V29H101.425Z" fill="#242E30"/>
</g>
<path d="M22 0.5H108C119.874 0.5 129.5 10.1259 129.5 22C129.5 33.8741 119.874 43.5 108 43.5H22C10.1259 43.5 0.5 33.8741 0.5 22C0.5 10.1259 10.1259 0.5 22 0.5Z" stroke="url(#paint0_linear_3903_10677)"/>
<defs>
<linearGradient id="paint0_linear_3903_10677" x1="59.28" y1="14.9531" x2="94.8048" y2="54.7587" gradientUnits="userSpaceOnUse">
<stop stop-color="#B1CACE"/>
<stop offset="1" stop-color="#B993B8"/>
</linearGradient>
<clipPath id="clip0_3903_10677">
<path d="M0 22C0 9.84974 9.84974 0 22 0H108C120.15 0 130 9.84974 130 22C130 34.1503 120.15 44 108 44H22C9.84973 44 0 34.1503 0 22Z" fill="white"/>
</clipPath>
</defs>
</svg>
