<svg width="941" height="436" viewBox="0 0 941 436" fill="none" xmlns="http://www.w3.org/2000/svg">
<g filter="url(#filter0_ddd_25451_17810)">
<g clip-path="url(#clip0_25451_17810)">
<rect x="12" y="422" width="412" height="917" rx="24" transform="rotate(-90 12 422)" fill="#F0ECE6"/>
<g filter="url(#filter1_ddd_25451_17810)">
<g clip-path="url(#clip1_25451_17810)">
<path d="M150.5 174C150.5 165.163 157.663 158 166.5 158H774.5C783.337 158 790.5 165.163 790.5 174V422H150.5V174Z" fill="white"/>
<rect width="640" height="80" transform="translate(150.5 158)" fill="white"/>
<rect x="150.5" y="174" width="296" height="4" fill="white" fill-opacity="0.01"/>
<rect opacity="0.5" x="454.5" y="174" width="32" height="4" rx="2" fill="#79747E"/>
<rect x="494.5" y="174" width="296" height="4" fill="white" fill-opacity="0.01"/>
<rect x="150.5" y="178" width="640" height="16" fill="white" fill-opacity="0.01"/>
<path d="M170.32 215V205.1H166.82V202H177.82V205.1H174.32V215H170.32ZM178.961 215V205.12H182.721V215H178.961ZM180.841 204.2C180.161 204.2 179.654 204.007 179.321 203.62C178.987 203.233 178.821 202.793 178.821 202.3C178.821 201.793 178.987 201.347 179.321 200.96C179.654 200.573 180.161 200.38 180.841 200.38C181.521 200.38 182.027 200.573 182.361 200.96C182.707 201.347 182.881 201.793 182.881 202.3C182.881 202.793 182.707 203.233 182.361 203.62C182.027 204.007 181.521 204.2 180.841 204.2ZM189.071 215.2C188.191 215.2 187.471 215.06 186.911 214.78C186.351 214.487 185.931 214.04 185.651 213.44C185.385 212.827 185.251 212.04 185.251 211.08V208.06H183.991V205.12H185.251V202.44H188.991V205.12H191.931V208.06H188.991V211.1C188.991 211.473 189.051 211.753 189.171 211.94C189.305 212.127 189.545 212.22 189.891 212.22C190.131 212.22 190.358 212.173 190.571 212.08C190.785 211.973 190.958 211.847 191.091 211.7L192.211 214.2C191.865 214.533 191.431 214.787 190.911 214.96C190.405 215.12 189.791 215.2 189.071 215.2ZM193.277 215V200.5H197.037V215H193.277ZM203.448 215.24C202.314 215.24 201.354 215.013 200.568 214.56C199.781 214.093 199.188 213.473 198.788 212.7C198.388 211.913 198.188 211.033 198.188 210.06C198.188 209.313 198.294 208.627 198.508 208C198.721 207.373 199.034 206.827 199.448 206.36C199.874 205.88 200.408 205.513 201.048 205.26C201.701 205.007 202.454 204.88 203.308 204.88C204.148 204.88 204.881 205.007 205.508 205.26C206.134 205.513 206.654 205.873 207.068 206.34C207.481 206.793 207.788 207.333 207.988 207.96C208.188 208.573 208.288 209.253 208.288 210C208.288 210.173 208.268 210.373 208.228 210.6C208.201 210.827 208.168 211 208.128 211.12H201.808C201.874 211.413 202.001 211.653 202.188 211.84C202.374 212.027 202.601 212.167 202.868 212.26C203.148 212.34 203.428 212.38 203.708 212.38C204.108 212.38 204.461 212.32 204.768 212.2C205.074 212.08 205.314 211.927 205.488 211.74L207.468 213.76C207.121 214.213 206.588 214.573 205.868 214.84C205.148 215.107 204.341 215.24 203.448 215.24ZM203.268 207.46C203.014 207.46 202.781 207.52 202.568 207.64C202.368 207.747 202.201 207.913 202.068 208.14C201.934 208.353 201.848 208.62 201.808 208.94H204.728C204.688 208.607 204.594 208.333 204.448 208.12C204.314 207.907 204.148 207.747 203.948 207.64C203.761 207.52 203.534 207.46 203.268 207.46Z" fill="black" fill-opacity="0.76"/>
<path d="M166.5 246C166.5 241.582 170.082 238 174.5 238H766.5C770.918 238 774.5 241.582 774.5 246V334C774.5 338.418 770.918 342 766.5 342H174.5C170.082 342 166.5 338.418 166.5 334V246Z" fill="black" fill-opacity="0.04"/>
<path d="M764.5 238V238.5H766.5C767.001 238.5 767.491 238.549 767.964 238.643L768.061 238.152C769.11 238.36 770.086 238.773 770.944 239.348L770.667 239.763C771.485 240.31 772.19 241.015 772.737 241.833L773.151 241.555C773.726 242.413 774.139 243.389 774.347 244.438L773.857 244.536C773.951 245.009 774 245.499 774 246V248H774.5V252H774V256H774.5V260H774V264H774.5V268H774V272H774.5V276H774V280H774.5V284H774V288H774.5V292H774V296H774.5V300H774V304H774.5V308H774V312H774.5V316H774V320H774.5V324H774V328H774.5V332H774V334C774 334.501 773.951 334.991 773.857 335.464L774.347 335.561C774.139 336.61 773.726 337.586 773.151 338.444L772.737 338.167C772.19 338.985 771.485 339.69 770.667 340.237L770.944 340.651C770.086 341.226 769.11 341.639 768.061 341.847L767.964 341.357C767.491 341.451 767.001 341.5 766.5 341.5H764.5V342H760.5V341.5H756.5V342H752.5V341.5H748.5V342H744.5V341.5H740.5V342H736.5V341.5H732.5V342H728.5V341.5H724.5V342H720.5V341.5H716.5V342H712.5V341.5H708.5V342H704.5V341.5H700.5V342H696.5V341.5H692.5V342H688.5V341.5H684.5V342H680.5V341.5H676.5V342H672.5V341.5H668.5V342H664.5V341.5H660.5V342H656.5V341.5H652.5V342H648.5V341.5H644.5V342H640.5V341.5H636.5V342H632.5V341.5H628.5V342H624.5V341.5H620.5V342H616.5V341.5H612.5V342H608.5V341.5H604.5V342H600.5V341.5H596.5V342H592.5V341.5H588.5V342H584.5V341.5H580.5V342H576.5V341.5H572.5V342H568.5V341.5H564.5V342H560.5V341.5H556.5V342H552.5V341.5H548.5V342H544.5V341.5H540.5V342H536.5V341.5H532.5V342H528.5V341.5H524.5V342H520.5V341.5H516.5V342H512.5V341.5H508.5V342H504.5V341.5H500.5V342H496.5V341.5H492.5V342H488.5V341.5H484.5V342H480.5V341.5H476.5V342H472.5V341.5H468.5V342H464.5V341.5H460.5V342H456.5V341.5H452.5V342H448.5V341.5H444.5V342H440.5V341.5H436.5V342H432.5V341.5H428.5V342H424.5V341.5H420.5V342H416.5V341.5H412.5V342H408.5V341.5H404.5V342H400.5V341.5H396.5V342H392.5V341.5H388.5V342H384.5V341.5H380.5V342H376.5V341.5H372.5V342H368.5V341.5H364.5V342H360.5V341.5H356.5V342H352.5V341.5H348.5V342H344.5V341.5H340.5V342H336.5V341.5H332.5V342H328.5V341.5H324.5V342H320.5V341.5H316.5V342H312.5V341.5H308.5V342H304.5V341.5H300.5V342H296.5V341.5H292.5V342H288.5V341.5H284.5V342H280.5V341.5H276.5V342H272.5V341.5H268.5V342H264.5V341.5H260.5V342H256.5V341.5H252.5V342H248.5V341.5H244.5V342H240.5V341.5H236.5V342H232.5V341.5H228.5V342H224.5V341.5H220.5V342H216.5V341.5H212.5V342H208.5V341.5H204.5V342H200.5V341.5H196.5V342H192.5V341.5H188.5V342H184.5V341.5H180.5V342H176.5V341.5H174.5C173.999 341.5 173.509 341.451 173.036 341.357L172.938 341.847C171.889 341.639 170.913 341.226 170.055 340.651L170.333 340.237C169.515 339.69 168.81 338.985 168.263 338.167L167.848 338.444C167.273 337.586 166.86 336.61 166.652 335.561L167.143 335.464C167.049 334.991 167 334.501 167 334V332H166.5V328H167V324H166.5V320H167V316H166.5V312H167V308H166.5V304H167V300H166.5V296H167V292H166.5V288H167V284H166.5V280H167V276H166.5V272H167V268H166.5V264H167V260H166.5V256H167V252H166.5V248H167V246C167 245.499 167.049 245.009 167.143 244.536L166.652 244.438C166.86 243.389 167.273 242.413 167.848 241.555L168.263 241.833C168.81 241.015 169.515 240.31 170.333 239.763L170.055 239.348C170.913 238.773 171.889 238.36 172.938 238.152L173.036 238.643C173.509 238.549 173.999 238.5 174.5 238.5H176.5V238H180.5V238.5H184.5V238H188.5V238.5H192.5V238H196.5V238.5H200.5V238H204.5V238.5H208.5V238H212.5V238.5H216.5V238H220.5V238.5H224.5V238H228.5V238.5H232.5V238H236.5V238.5H240.5V238H244.5V238.5H248.5V238H252.5V238.5H256.5V238H260.5V238.5H264.5V238H268.5V238.5H272.5V238H276.5V238.5H280.5V238H284.5V238.5H288.5V238H292.5V238.5H296.5V238H300.5V238.5H304.5V238H308.5V238.5H312.5V238H316.5V238.5H320.5V238H324.5V238.5H328.5V238H332.5V238.5H336.5V238H340.5V238.5H344.5V238H348.5V238.5H352.5V238H356.5V238.5H360.5V238H364.5V238.5H368.5V238H372.5V238.5H376.5V238H380.5V238.5H384.5V238H388.5V238.5H392.5V238H396.5V238.5H400.5V238H404.5V238.5H408.5V238H412.5V238.5H416.5V238H420.5V238.5H424.5V238H428.5V238.5H432.5V238H436.5V238.5H440.5V238H444.5V238.5H448.5V238H452.5V238.5H456.5V238H460.5V238.5H464.5V238H468.5V238.5H472.5V238H476.5V238.5H480.5V238H484.5V238.5H488.5V238H492.5V238.5H496.5V238H500.5V238.5H504.5V238H508.5V238.5H512.5V238H516.5V238.5H520.5V238H524.5V238.5H528.5V238H532.5V238.5H536.5V238H540.5V238.5H544.5V238H548.5V238.5H552.5V238H556.5V238.5H560.5V238H564.5V238.5H568.5V238H572.5V238.5H576.5V238H580.5V238.5H584.5V238H588.5V238.5H592.5V238H596.5V238.5H600.5V238H604.5V238.5H608.5V238H612.5V238.5H616.5V238H620.5V238.5H624.5V238H628.5V238.5H632.5V238H636.5V238.5H640.5V238H644.5V238.5H648.5V238H652.5V238.5H656.5V238H660.5V238.5H664.5V238H668.5V238.5H672.5V238H676.5V238.5H680.5V238H684.5V238.5H688.5V238H692.5V238.5H696.5V238H700.5V238.5H704.5V238H708.5V238.5H712.5V238H716.5V238.5H720.5V238H724.5V238.5H728.5V238H732.5V238.5H736.5V238H740.5V238.5H744.5V238H748.5V238.5H752.5V238H756.5V238.5H760.5V238H764.5Z" stroke="black" stroke-opacity="0.76" stroke-dasharray="4 4"/>
<path d="M460.531 268.192C459.592 268.192 458.808 268.043 458.179 267.744C457.56 267.445 457.048 267.056 456.643 266.576L458.019 265.296C458.318 265.616 458.67 265.888 459.075 266.112C459.48 266.325 459.982 266.432 460.579 266.432C460.91 266.432 461.208 266.389 461.475 266.304C461.742 266.208 461.955 266.064 462.115 265.872C462.286 265.669 462.371 265.408 462.371 265.088C462.371 264.8 462.275 264.571 462.083 264.4C461.891 264.219 461.608 264.064 461.235 263.936C460.872 263.808 460.435 263.669 459.923 263.52C459.56 263.403 459.203 263.269 458.851 263.12C458.51 262.971 458.2 262.784 457.923 262.56C457.646 262.325 457.422 262.043 457.251 261.712C457.091 261.371 457.011 260.96 457.011 260.48C457.011 259.989 457.102 259.557 457.283 259.184C457.475 258.8 457.742 258.48 458.083 258.224C458.424 257.957 458.824 257.755 459.283 257.616C459.752 257.477 460.27 257.408 460.835 257.408C461.678 257.408 462.403 257.547 463.011 257.824C463.619 258.091 464.104 258.475 464.467 258.976L463.091 260.272C462.835 259.963 462.52 259.701 462.147 259.488C461.784 259.275 461.342 259.168 460.819 259.168C460.542 259.168 460.275 259.211 460.019 259.296C459.774 259.381 459.571 259.515 459.411 259.696C459.262 259.877 459.187 260.117 459.187 260.416C459.187 260.715 459.283 260.949 459.475 261.12C459.667 261.291 459.944 261.44 460.307 261.568C460.68 261.696 461.118 261.84 461.619 262C461.992 262.117 462.35 262.251 462.691 262.4C463.043 262.549 463.358 262.741 463.635 262.976C463.912 263.2 464.131 263.483 464.291 263.824C464.462 264.155 464.547 264.56 464.547 265.04C464.547 265.552 464.446 266.005 464.243 266.4C464.051 266.784 463.774 267.115 463.411 267.392C463.059 267.659 462.638 267.861 462.147 268C461.656 268.128 461.118 268.192 460.531 268.192ZM466.22 268V256.4H468.236V268H466.22ZM473.801 268.192C472.926 268.192 472.19 268.005 471.593 267.632C471.006 267.248 470.563 266.741 470.265 266.112C469.966 265.483 469.817 264.795 469.817 264.048C469.817 263.483 469.902 262.949 470.073 262.448C470.243 261.947 470.494 261.509 470.825 261.136C471.155 260.752 471.566 260.453 472.057 260.24C472.558 260.016 473.139 259.904 473.801 259.904C474.686 259.904 475.417 260.096 475.993 260.48C476.579 260.853 477.017 261.355 477.305 261.984C477.603 262.603 477.753 263.291 477.753 264.048C477.753 264.613 477.667 265.147 477.497 265.648C477.337 266.149 477.091 266.592 476.761 266.976C476.43 267.349 476.019 267.648 475.529 267.872C475.038 268.085 474.462 268.192 473.801 268.192ZM471.881 264.048C471.881 264.56 471.955 265.008 472.105 265.392C472.265 265.765 472.483 266.053 472.761 266.256C473.049 266.459 473.395 266.56 473.801 266.56C474.206 266.56 474.547 266.459 474.825 266.256C475.102 266.053 475.315 265.765 475.465 265.392C475.625 265.008 475.705 264.56 475.705 264.048C475.705 263.525 475.625 263.077 475.465 262.704C475.315 262.331 475.102 262.043 474.825 261.84C474.547 261.637 474.206 261.536 473.801 261.536C473.395 261.536 473.049 261.637 472.761 261.84C472.483 262.043 472.265 262.331 472.105 262.704C471.955 263.077 471.881 263.525 471.881 264.048ZM482.354 268.176C481.778 268.176 481.303 268.075 480.93 267.872C480.556 267.659 480.279 267.344 480.098 266.928C479.927 266.501 479.842 265.973 479.842 265.344V261.712H478.594V260.096H479.842V257.952H481.842V260.096H484.146V261.712H481.842V265.328C481.842 265.744 481.916 266.043 482.066 266.224C482.226 266.395 482.45 266.48 482.738 266.48C482.94 266.48 483.127 266.443 483.298 266.368C483.479 266.283 483.634 266.181 483.762 266.064L484.482 267.44C484.226 267.696 483.922 267.883 483.57 268C483.218 268.117 482.812 268.176 482.354 268.176Z" fill="black" fill-opacity="0.76"/>
<path d="M399.016 300V290.752H396.056V289.6H403.336V290.752H400.376V300H399.016ZM405.079 300V288.4H406.359V293.216H406.455C406.636 292.853 406.897 292.544 407.239 292.288C407.591 292.032 408.028 291.904 408.551 291.904C409.457 291.904 410.172 292.144 410.695 292.624C411.228 293.093 411.495 293.867 411.495 294.944V300H410.215V295.184C410.215 294.373 410.049 293.803 409.719 293.472C409.399 293.131 408.924 292.96 408.295 292.96C407.697 292.96 407.223 293.168 406.871 293.584C406.529 294 406.359 294.608 406.359 295.408V300H405.079ZM413.985 300V292.096H415.265V300H413.985ZM414.625 290.816C414.358 290.816 414.15 290.736 414.001 290.576C413.852 290.416 413.777 290.224 413.777 290C413.777 289.787 413.852 289.6 414.001 289.44C414.15 289.269 414.358 289.184 414.625 289.184C414.881 289.184 415.084 289.269 415.233 289.44C415.393 289.6 415.473 289.787 415.473 290C415.473 290.224 415.393 290.416 415.233 290.576C415.084 290.736 414.881 290.816 414.625 290.816ZM420.129 300.192C419.446 300.192 418.86 300.075 418.369 299.84C417.878 299.605 417.494 299.301 417.217 298.928L418.065 298.128C418.31 298.416 418.593 298.651 418.913 298.832C419.244 299.013 419.654 299.104 420.145 299.104C420.582 299.104 420.966 299.013 421.297 298.832C421.628 298.64 421.793 298.347 421.793 297.952C421.793 297.643 421.697 297.403 421.505 297.232C421.324 297.051 421.084 296.907 420.785 296.8C420.486 296.683 420.166 296.576 419.825 296.48C419.43 296.363 419.057 296.219 418.705 296.048C418.364 295.867 418.081 295.632 417.857 295.344C417.644 295.045 417.537 294.667 417.537 294.208C417.537 293.707 417.654 293.285 417.889 292.944C418.134 292.603 418.46 292.347 418.865 292.176C419.281 291.995 419.745 291.904 420.257 291.904C420.822 291.904 421.35 292.011 421.841 292.224C422.332 292.427 422.726 292.747 423.025 293.184L422.193 293.952C421.958 293.675 421.681 293.445 421.361 293.264C421.052 293.083 420.684 292.992 420.257 292.992C419.894 292.992 419.558 293.083 419.249 293.264C418.94 293.435 418.785 293.712 418.785 294.096C418.785 294.405 418.876 294.651 419.057 294.832C419.249 295.003 419.494 295.141 419.793 295.248C420.092 295.355 420.412 295.461 420.753 295.568C421.148 295.685 421.516 295.835 421.857 296.016C422.209 296.187 422.492 296.416 422.705 296.704C422.929 296.992 423.041 297.371 423.041 297.84C423.041 298.384 422.908 298.832 422.641 299.184C422.374 299.525 422.017 299.781 421.569 299.952C421.132 300.112 420.652 300.192 420.129 300.192ZM429.094 300V292.096H430.374V300H429.094ZM429.734 290.816C429.468 290.816 429.26 290.736 429.11 290.576C428.961 290.416 428.886 290.224 428.886 290C428.886 289.787 428.961 289.6 429.11 289.44C429.26 289.269 429.468 289.184 429.734 289.184C429.99 289.184 430.193 289.269 430.342 289.44C430.502 289.6 430.582 289.787 430.582 290C430.582 290.224 430.502 290.416 430.342 290.576C430.193 290.736 429.99 290.816 429.734 290.816ZM435.238 300.192C434.556 300.192 433.969 300.075 433.478 299.84C432.988 299.605 432.604 299.301 432.326 298.928L433.174 298.128C433.42 298.416 433.702 298.651 434.022 298.832C434.353 299.013 434.764 299.104 435.254 299.104C435.692 299.104 436.076 299.013 436.406 298.832C436.737 298.64 436.902 298.347 436.902 297.952C436.902 297.643 436.806 297.403 436.614 297.232C436.433 297.051 436.193 296.907 435.894 296.8C435.596 296.683 435.276 296.576 434.934 296.48C434.54 296.363 434.166 296.219 433.814 296.048C433.473 295.867 433.19 295.632 432.966 295.344C432.753 295.045 432.646 294.667 432.646 294.208C432.646 293.707 432.764 293.285 432.998 292.944C433.244 292.603 433.569 292.347 433.974 292.176C434.39 291.995 434.854 291.904 435.366 291.904C435.932 291.904 436.46 292.011 436.95 292.224C437.441 292.427 437.836 292.747 438.134 293.184L437.302 293.952C437.068 293.675 436.79 293.445 436.47 293.264C436.161 293.083 435.793 292.992 435.366 292.992C435.004 292.992 434.668 293.083 434.358 293.264C434.049 293.435 433.894 293.712 433.894 294.096C433.894 294.405 433.985 294.651 434.166 294.832C434.358 295.003 434.604 295.141 434.902 295.248C435.201 295.355 435.521 295.461 435.862 295.568C436.257 295.685 436.625 295.835 436.966 296.016C437.318 296.187 437.601 296.416 437.814 296.704C438.038 296.992 438.15 297.371 438.15 297.84C438.15 298.384 438.017 298.832 437.75 299.184C437.484 299.525 437.126 299.781 436.678 299.952C436.241 300.112 435.761 300.192 435.238 300.192ZM445.948 300.192C445.468 300.192 445.036 300.091 444.652 299.888C444.278 299.685 443.985 299.403 443.772 299.04C443.558 298.677 443.452 298.261 443.452 297.792C443.452 297.333 443.558 296.939 443.772 296.608C443.996 296.267 444.321 295.995 444.748 295.792C445.174 295.589 445.686 295.472 446.284 295.44L448.364 295.312V294.752C448.364 294.347 448.294 294.021 448.156 293.776C448.028 293.52 447.836 293.333 447.58 293.216C447.334 293.088 447.03 293.024 446.668 293.024C446.209 293.024 445.814 293.109 445.484 293.28C445.153 293.451 444.897 293.637 444.716 293.84L443.948 293.072C444.225 292.731 444.604 292.453 445.084 292.24C445.564 292.016 446.102 291.904 446.7 291.904C447.425 291.904 448.001 292.027 448.428 292.272C448.854 292.517 449.158 292.848 449.34 293.264C449.532 293.669 449.628 294.123 449.628 294.624V300H448.428V298.656H448.332C448.129 299.125 447.83 299.499 447.436 299.776C447.041 300.053 446.545 300.192 445.948 300.192ZM446.14 299.104C446.801 299.104 447.334 298.912 447.74 298.528C448.156 298.133 448.364 297.611 448.364 296.96V296.272L446.348 296.416C445.825 296.459 445.425 296.592 445.148 296.816C444.881 297.04 444.748 297.355 444.748 297.76C444.748 298.165 444.876 298.491 445.132 298.736C445.398 298.981 445.734 299.104 446.14 299.104ZM456.048 302.96V292.096H457.264V293.712H457.36C457.541 293.168 457.882 292.731 458.384 292.4C458.885 292.069 459.461 291.904 460.112 291.904C460.816 291.904 461.429 292.085 461.952 292.448C462.474 292.8 462.88 293.291 463.168 293.92C463.466 294.549 463.616 295.264 463.616 296.064C463.616 296.864 463.466 297.573 463.168 298.192C462.88 298.811 462.474 299.301 461.952 299.664C461.429 300.016 460.816 300.192 460.112 300.192C459.461 300.192 458.901 300.037 458.432 299.728C457.962 299.419 457.626 299.024 457.424 298.544H457.328V302.96H456.048ZM459.792 299.04C460.261 299.04 460.682 298.933 461.056 298.72C461.44 298.496 461.744 298.16 461.968 297.712C462.192 297.264 462.304 296.709 462.304 296.048C462.304 295.376 462.192 294.821 461.968 294.384C461.744 293.936 461.44 293.605 461.056 293.392C460.682 293.168 460.261 293.056 459.792 293.056C459.344 293.056 458.933 293.168 458.56 293.392C458.186 293.605 457.888 293.936 457.664 294.384C457.44 294.821 457.328 295.376 457.328 296.048C457.328 296.709 457.44 297.264 457.664 297.712C457.888 298.16 458.186 298.496 458.56 298.72C458.933 298.933 459.344 299.04 459.792 299.04ZM465.673 300V288.4H466.953V300H465.673ZM471.417 300.192C470.937 300.192 470.505 300.091 470.121 299.888C469.747 299.685 469.454 299.403 469.241 299.04C469.027 298.677 468.921 298.261 468.921 297.792C468.921 297.333 469.027 296.939 469.241 296.608C469.465 296.267 469.79 295.995 470.217 295.792C470.643 295.589 471.155 295.472 471.753 295.44L473.833 295.312V294.752C473.833 294.347 473.763 294.021 473.625 293.776C473.497 293.52 473.305 293.333 473.049 293.216C472.803 293.088 472.499 293.024 472.137 293.024C471.678 293.024 471.283 293.109 470.953 293.28C470.622 293.451 470.366 293.637 470.185 293.84L469.417 293.072C469.694 292.731 470.073 292.453 470.553 292.24C471.033 292.016 471.571 291.904 472.169 291.904C472.894 291.904 473.47 292.027 473.897 292.272C474.323 292.517 474.627 292.848 474.809 293.264C475.001 293.669 475.097 294.123 475.097 294.624V300H473.897V298.656H473.801C473.598 299.125 473.299 299.499 472.905 299.776C472.51 300.053 472.014 300.192 471.417 300.192ZM471.609 299.104C472.27 299.104 472.803 298.912 473.209 298.528C473.625 298.133 473.833 297.611 473.833 296.96V296.272L471.817 296.416C471.294 296.459 470.894 296.592 470.617 296.816C470.35 297.04 470.217 297.355 470.217 297.76C470.217 298.165 470.345 298.491 470.601 298.736C470.867 298.981 471.203 299.104 471.609 299.104ZM480.681 300.192C479.827 300.192 479.129 299.995 478.585 299.6C478.041 299.205 477.641 298.693 477.385 298.064C477.139 297.424 477.017 296.752 477.017 296.048C477.017 295.333 477.139 294.661 477.385 294.032C477.63 293.403 478.019 292.891 478.553 292.496C479.097 292.101 479.795 291.904 480.649 291.904C481.31 291.904 481.854 292.016 482.281 292.24C482.718 292.464 483.086 292.763 483.385 293.136L482.585 293.888C482.329 293.611 482.057 293.397 481.769 293.248C481.491 293.088 481.129 293.008 480.681 293.008C480.222 293.008 479.811 293.131 479.449 293.376C479.097 293.621 478.819 293.973 478.617 294.432C478.425 294.88 478.329 295.419 478.329 296.048C478.329 296.987 478.553 297.728 479.001 298.272C479.449 298.816 480.019 299.088 480.713 299.088C481.139 299.088 481.507 299.013 481.817 298.864C482.126 298.704 482.414 298.475 482.681 298.176L483.449 298.944C483.15 299.317 482.771 299.621 482.313 299.856C481.865 300.08 481.321 300.192 480.681 300.192ZM488.245 300.192C487.488 300.192 486.826 300.027 486.261 299.696C485.706 299.365 485.274 298.891 484.965 298.272C484.656 297.643 484.501 296.901 484.501 296.048C484.501 295.376 484.586 294.784 484.757 294.272C484.938 293.749 485.189 293.317 485.509 292.976C485.84 292.624 486.224 292.357 486.661 292.176C487.109 291.995 487.6 291.904 488.133 291.904C488.666 291.904 489.152 291.989 489.589 292.16C490.037 292.331 490.421 292.587 490.741 292.928C491.072 293.259 491.328 293.68 491.509 294.192C491.69 294.693 491.781 295.28 491.781 295.952C491.781 296.037 491.776 296.123 491.765 296.208C491.765 296.293 491.76 296.363 491.749 296.416H485.781C485.792 296.907 485.909 297.355 486.133 297.76C486.357 298.165 486.656 298.491 487.029 298.736C487.413 298.971 487.84 299.088 488.309 299.088C488.874 299.088 489.344 298.976 489.717 298.752C490.09 298.528 490.4 298.256 490.645 297.936L491.413 298.72C491.082 299.168 490.661 299.525 490.149 299.792C489.637 300.059 489.002 300.192 488.245 300.192ZM488.133 292.96C487.632 292.96 487.21 293.077 486.869 293.312C486.528 293.547 486.266 293.845 486.085 294.208C485.914 294.571 485.824 294.949 485.813 295.344H490.437C490.426 294.949 490.33 294.571 490.149 294.208C489.978 293.845 489.722 293.547 489.381 293.312C489.05 293.077 488.634 292.96 488.133 292.96ZM493.844 300V288.4H495.124V293.216H495.22C495.402 292.853 495.663 292.544 496.004 292.288C496.356 292.032 496.794 291.904 497.316 291.904C498.223 291.904 498.938 292.144 499.46 292.624C499.994 293.093 500.26 293.867 500.26 294.944V300H498.98V295.184C498.98 294.373 498.815 293.803 498.484 293.472C498.164 293.131 497.69 292.96 497.06 292.96C496.463 292.96 495.988 293.168 495.636 293.584C495.295 294 495.124 294.608 495.124 295.408V300H493.844ZM505.871 300.192C505.028 300.192 504.324 300.005 503.759 299.632C503.204 299.259 502.788 298.757 502.511 298.128C502.233 297.499 502.095 296.805 502.095 296.048C502.095 295.472 502.169 294.933 502.319 294.432C502.479 293.931 502.713 293.493 503.023 293.12C503.343 292.736 503.737 292.437 504.207 292.224C504.687 292.011 505.241 291.904 505.871 291.904C506.713 291.904 507.407 292.091 507.951 292.464C508.505 292.837 508.916 293.339 509.183 293.968C509.46 294.587 509.599 295.28 509.599 296.048C509.599 296.624 509.519 297.163 509.359 297.664C509.209 298.165 508.98 298.608 508.671 298.992C508.361 299.365 507.972 299.659 507.503 299.872C507.044 300.085 506.5 300.192 505.871 300.192ZM503.407 296.048C503.407 296.656 503.497 297.195 503.679 297.664C503.86 298.123 504.132 298.485 504.495 298.752C504.857 299.008 505.316 299.136 505.871 299.136C506.415 299.136 506.863 299.008 507.215 298.752C507.577 298.485 507.844 298.123 508.015 297.664C508.196 297.195 508.287 296.656 508.287 296.048C508.287 295.44 508.196 294.907 508.015 294.448C507.844 293.979 507.577 293.616 507.215 293.36C506.863 293.093 506.415 292.96 505.871 292.96C505.316 292.96 504.857 293.093 504.495 293.36C504.132 293.616 503.86 293.979 503.679 294.448C503.497 294.907 503.407 295.44 503.407 296.048ZM511.657 300V288.4H512.937V300H511.657ZM518.505 300.192C517.801 300.192 517.188 300.011 516.665 299.648C516.142 299.285 515.732 298.795 515.433 298.176C515.145 297.547 515.001 296.832 515.001 296.032C515.001 295.232 515.145 294.523 515.433 293.904C515.732 293.275 516.142 292.784 516.665 292.432C517.188 292.08 517.801 291.904 518.505 291.904C519.156 291.904 519.716 292.059 520.185 292.368C520.654 292.677 520.99 293.072 521.193 293.552H521.289V288.4H522.569V300H521.353V298.384H521.257C521.076 298.928 520.734 299.365 520.233 299.696C519.732 300.027 519.156 300.192 518.505 300.192ZM518.825 299.04C519.284 299.04 519.694 298.933 520.057 298.72C520.43 298.496 520.729 298.16 520.953 297.712C521.177 297.264 521.289 296.709 521.289 296.048C521.289 295.376 521.177 294.821 520.953 294.384C520.729 293.936 520.43 293.605 520.057 293.392C519.694 293.168 519.284 293.056 518.825 293.056C518.356 293.056 517.929 293.168 517.545 293.392C517.172 293.605 516.873 293.936 516.649 294.384C516.425 294.821 516.313 295.376 516.313 296.048C516.313 296.709 516.425 297.264 516.649 297.712C516.873 298.16 517.172 298.496 517.545 298.72C517.929 298.933 518.356 299.04 518.825 299.04ZM528.37 300.192C527.613 300.192 526.951 300.027 526.386 299.696C525.831 299.365 525.399 298.891 525.09 298.272C524.781 297.643 524.626 296.901 524.626 296.048C524.626 295.376 524.711 294.784 524.882 294.272C525.063 293.749 525.314 293.317 525.634 292.976C525.965 292.624 526.349 292.357 526.786 292.176C527.234 291.995 527.725 291.904 528.258 291.904C528.791 291.904 529.277 291.989 529.714 292.16C530.162 292.331 530.546 292.587 530.866 292.928C531.197 293.259 531.453 293.68 531.634 294.192C531.815 294.693 531.906 295.28 531.906 295.952C531.906 296.037 531.901 296.123 531.89 296.208C531.89 296.293 531.885 296.363 531.874 296.416H525.906C525.917 296.907 526.034 297.355 526.258 297.76C526.482 298.165 526.781 298.491 527.154 298.736C527.538 298.971 527.965 299.088 528.434 299.088C528.999 299.088 529.469 298.976 529.842 298.752C530.215 298.528 530.525 298.256 530.77 297.936L531.538 298.72C531.207 299.168 530.786 299.525 530.274 299.792C529.762 300.059 529.127 300.192 528.37 300.192ZM528.258 292.96C527.757 292.96 527.335 293.077 526.994 293.312C526.653 293.547 526.391 293.845 526.21 294.208C526.039 294.571 525.949 294.949 525.938 295.344H530.562C530.551 294.949 530.455 294.571 530.274 294.208C530.103 293.845 529.847 293.547 529.506 293.312C529.175 293.077 528.759 292.96 528.258 292.96ZM533.969 300V292.096H535.185V293.376H535.281C535.452 292.96 535.697 292.613 536.017 292.336C536.348 292.048 536.748 291.904 537.217 291.904C537.409 291.904 537.596 291.925 537.777 291.968C537.969 292 538.14 292.059 538.289 292.144L537.857 293.296C537.719 293.221 537.569 293.173 537.409 293.152C537.26 293.12 537.105 293.104 536.945 293.104C536.423 293.104 536.007 293.317 535.697 293.744C535.399 294.16 535.249 294.693 535.249 295.344V300H533.969ZM539.484 298.304C539.783 298.304 540.018 298.411 540.188 298.624C540.359 298.837 540.444 299.093 540.444 299.392C540.444 299.723 540.375 300.043 540.236 300.352C540.098 300.672 539.9 300.976 539.644 301.264C539.388 301.563 539.084 301.845 538.732 302.112L538.236 301.584C538.45 301.381 538.642 301.157 538.812 300.912C538.983 300.667 539.116 300.395 539.212 300.096C538.999 300.043 538.828 299.936 538.7 299.776C538.583 299.605 538.524 299.419 538.524 299.216C538.524 299.045 538.562 298.896 538.636 298.768C538.722 298.629 538.834 298.517 538.972 298.432C539.122 298.347 539.292 298.304 539.484 298.304ZM385.305 324V316.096H386.521V317.376H386.617C386.788 316.96 387.033 316.613 387.353 316.336C387.684 316.048 388.084 315.904 388.553 315.904C388.745 315.904 388.932 315.925 389.113 315.968C389.305 316 389.476 316.059 389.625 316.144L389.193 317.296C389.055 317.221 388.905 317.173 388.745 317.152C388.596 317.12 388.441 317.104 388.281 317.104C387.759 317.104 387.343 317.317 387.033 317.744C386.735 318.16 386.585 318.693 386.585 319.344V324H385.305ZM393.971 324.192C393.214 324.192 392.553 324.027 391.987 323.696C391.433 323.365 391.001 322.891 390.691 322.272C390.382 321.643 390.227 320.901 390.227 320.048C390.227 319.376 390.313 318.784 390.483 318.272C390.665 317.749 390.915 317.317 391.235 316.976C391.566 316.624 391.95 316.357 392.387 316.176C392.835 315.995 393.326 315.904 393.859 315.904C394.393 315.904 394.878 315.989 395.315 316.16C395.763 316.331 396.147 316.587 396.467 316.928C396.798 317.259 397.054 317.68 397.235 318.192C397.417 318.693 397.507 319.28 397.507 319.952C397.507 320.037 397.502 320.123 397.491 320.208C397.491 320.293 397.486 320.363 397.475 320.416H391.507C391.518 320.907 391.635 321.355 391.859 321.76C392.083 322.165 392.382 322.491 392.755 322.736C393.139 322.971 393.566 323.088 394.035 323.088C394.601 323.088 395.07 322.976 395.443 322.752C395.817 322.528 396.126 322.256 396.371 321.936L397.139 322.72C396.809 323.168 396.387 323.525 395.875 323.792C395.363 324.059 394.729 324.192 393.971 324.192ZM393.859 316.96C393.358 316.96 392.937 317.077 392.595 317.312C392.254 317.547 391.993 317.845 391.811 318.208C391.641 318.571 391.55 318.949 391.539 319.344H396.163C396.153 318.949 396.057 318.571 395.875 318.208C395.705 317.845 395.449 317.547 395.107 317.312C394.777 317.077 394.361 316.96 393.859 316.96ZM399.571 326.96V316.096H400.787V317.712H400.883C401.064 317.168 401.406 316.731 401.907 316.4C402.408 316.069 402.984 315.904 403.635 315.904C404.339 315.904 404.952 316.085 405.475 316.448C405.998 316.8 406.403 317.291 406.691 317.92C406.99 318.549 407.139 319.264 407.139 320.064C407.139 320.864 406.99 321.573 406.691 322.192C406.403 322.811 405.998 323.301 405.475 323.664C404.952 324.016 404.339 324.192 403.635 324.192C402.984 324.192 402.424 324.037 401.955 323.728C401.486 323.419 401.15 323.024 400.947 322.544H400.851V326.96H399.571ZM403.315 323.04C403.784 323.04 404.206 322.933 404.579 322.72C404.963 322.496 405.267 322.16 405.491 321.712C405.715 321.264 405.827 320.709 405.827 320.048C405.827 319.376 405.715 318.821 405.491 318.384C405.267 317.936 404.963 317.605 404.579 317.392C404.206 317.168 403.784 317.056 403.315 317.056C402.867 317.056 402.456 317.168 402.083 317.392C401.71 317.605 401.411 317.936 401.187 318.384C400.963 318.821 400.851 319.376 400.851 320.048C400.851 320.709 400.963 321.264 401.187 321.712C401.411 322.16 401.71 322.496 402.083 322.72C402.456 322.933 402.867 323.04 403.315 323.04ZM409.196 324V312.4H410.476V324H409.196ZM414.94 324.192C414.46 324.192 414.028 324.091 413.644 323.888C413.271 323.685 412.977 323.403 412.764 323.04C412.551 322.677 412.444 322.261 412.444 321.792C412.444 321.333 412.551 320.939 412.764 320.608C412.988 320.267 413.313 319.995 413.74 319.792C414.167 319.589 414.679 319.472 415.276 319.44L417.356 319.312V318.752C417.356 318.347 417.287 318.021 417.148 317.776C417.02 317.52 416.828 317.333 416.572 317.216C416.327 317.088 416.023 317.024 415.66 317.024C415.201 317.024 414.807 317.109 414.476 317.28C414.145 317.451 413.889 317.637 413.708 317.84L412.94 317.072C413.217 316.731 413.596 316.453 414.076 316.24C414.556 316.016 415.095 315.904 415.692 315.904C416.417 315.904 416.993 316.027 417.42 316.272C417.847 316.517 418.151 316.848 418.332 317.264C418.524 317.669 418.62 318.123 418.62 318.624V324H417.42V322.656H417.324C417.121 323.125 416.823 323.499 416.428 323.776C416.033 324.053 415.537 324.192 414.94 324.192ZM415.132 323.104C415.793 323.104 416.327 322.912 416.732 322.528C417.148 322.133 417.356 321.611 417.356 320.96V320.272L415.34 320.416C414.817 320.459 414.417 320.592 414.14 320.816C413.873 321.04 413.74 321.355 413.74 321.76C413.74 322.165 413.868 322.491 414.124 322.736C414.391 322.981 414.727 323.104 415.132 323.104ZM424.204 324.192C423.351 324.192 422.652 323.995 422.108 323.6C421.564 323.205 421.164 322.693 420.908 322.064C420.663 321.424 420.54 320.752 420.54 320.048C420.54 319.333 420.663 318.661 420.908 318.032C421.153 317.403 421.543 316.891 422.076 316.496C422.62 316.101 423.319 315.904 424.172 315.904C424.833 315.904 425.377 316.016 425.804 316.24C426.241 316.464 426.609 316.763 426.908 317.136L426.108 317.888C425.852 317.611 425.58 317.397 425.292 317.248C425.015 317.088 424.652 317.008 424.204 317.008C423.745 317.008 423.335 317.131 422.972 317.376C422.62 317.621 422.343 317.973 422.14 318.432C421.948 318.88 421.852 319.419 421.852 320.048C421.852 320.987 422.076 321.728 422.524 322.272C422.972 322.816 423.543 323.088 424.236 323.088C424.663 323.088 425.031 323.013 425.34 322.864C425.649 322.704 425.937 322.475 426.204 322.176L426.972 322.944C426.673 323.317 426.295 323.621 425.836 323.856C425.388 324.08 424.844 324.192 424.204 324.192ZM431.768 324.192C431.011 324.192 430.35 324.027 429.784 323.696C429.23 323.365 428.798 322.891 428.488 322.272C428.179 321.643 428.024 320.901 428.024 320.048C428.024 319.376 428.11 318.784 428.28 318.272C428.462 317.749 428.712 317.317 429.032 316.976C429.363 316.624 429.747 316.357 430.184 316.176C430.632 315.995 431.123 315.904 431.656 315.904C432.19 315.904 432.675 315.989 433.112 316.16C433.56 316.331 433.944 316.587 434.264 316.928C434.595 317.259 434.851 317.68 435.032 318.192C435.214 318.693 435.304 319.28 435.304 319.952C435.304 320.037 435.299 320.123 435.288 320.208C435.288 320.293 435.283 320.363 435.272 320.416H429.304C429.315 320.907 429.432 321.355 429.656 321.76C429.88 322.165 430.179 322.491 430.552 322.736C430.936 322.971 431.363 323.088 431.832 323.088C432.398 323.088 432.867 322.976 433.24 322.752C433.614 322.528 433.923 322.256 434.168 321.936L434.936 322.72C434.606 323.168 434.184 323.525 433.672 323.792C433.16 324.059 432.526 324.192 431.768 324.192ZM431.656 316.96C431.155 316.96 430.734 317.077 430.392 317.312C430.051 317.547 429.79 317.845 429.608 318.208C429.438 318.571 429.347 318.949 429.336 319.344H433.96C433.95 318.949 433.854 318.571 433.672 318.208C433.502 317.845 433.246 317.547 432.904 317.312C432.574 317.077 432.158 316.96 431.656 316.96ZM441.212 324V316.096H442.428V317.344H442.524C442.716 316.928 442.982 316.587 443.324 316.32C443.676 316.043 444.113 315.904 444.636 315.904C445.265 315.904 445.798 316.021 446.236 316.256C446.673 316.48 446.993 316.821 447.196 317.28C447.356 316.981 447.548 316.731 447.772 316.528C447.996 316.325 448.262 316.171 448.572 316.064C448.892 315.957 449.249 315.904 449.644 315.904C450.23 315.904 450.737 316.011 451.164 316.224C451.59 316.427 451.921 316.752 452.156 317.2C452.39 317.648 452.508 318.229 452.508 318.944V324H451.228V319.184C451.228 318.64 451.153 318.208 451.004 317.888C450.865 317.557 450.657 317.323 450.38 317.184C450.113 317.035 449.777 316.96 449.372 316.96C448.785 316.96 448.326 317.168 447.996 317.584C447.665 318 447.5 318.608 447.5 319.408V324H446.22V319.184C446.22 318.64 446.15 318.208 446.012 317.888C445.873 317.557 445.665 317.323 445.388 317.184C445.11 317.035 444.769 316.96 444.364 316.96C443.788 316.96 443.329 317.168 442.988 317.584C442.657 318 442.492 318.608 442.492 319.408V324H441.212ZM458.175 324.192C457.417 324.192 456.756 324.027 456.191 323.696C455.636 323.365 455.204 322.891 454.895 322.272C454.585 321.643 454.431 320.901 454.431 320.048C454.431 319.376 454.516 318.784 454.687 318.272C454.868 317.749 455.119 317.317 455.439 316.976C455.769 316.624 456.153 316.357 456.591 316.176C457.039 315.995 457.529 315.904 458.063 315.904C458.596 315.904 459.081 315.989 459.519 316.16C459.967 316.331 460.351 316.587 460.671 316.928C461.001 317.259 461.257 317.68 461.439 318.192C461.62 318.693 461.711 319.28 461.711 319.952C461.711 320.037 461.705 320.123 461.695 320.208C461.695 320.293 461.689 320.363 461.679 320.416H455.711C455.721 320.907 455.839 321.355 456.063 321.76C456.287 322.165 456.585 322.491 456.959 322.736C457.343 322.971 457.769 323.088 458.239 323.088C458.804 323.088 459.273 322.976 459.647 322.752C460.02 322.528 460.329 322.256 460.575 321.936L461.343 322.72C461.012 323.168 460.591 323.525 460.079 323.792C459.567 324.059 458.932 324.192 458.175 324.192ZM458.063 316.96C457.561 316.96 457.14 317.077 456.799 317.312C456.457 317.547 456.196 317.845 456.015 318.208C455.844 318.571 455.753 318.949 455.743 319.344H460.367C460.356 318.949 460.26 318.571 460.079 318.208C459.908 317.845 459.652 317.547 459.311 317.312C458.98 317.077 458.564 316.96 458.063 316.96ZM469.378 324L466.69 316.096H468.066L470.066 322.672H470.162L472.018 316.096H473.538L475.394 322.672H475.49L477.49 316.096H478.77L476.082 324H474.642L472.786 317.456H472.69L470.85 324H469.378ZM480.555 324V316.096H481.835V324H480.555ZM481.195 314.816C480.929 314.816 480.721 314.736 480.571 314.576C480.422 314.416 480.347 314.224 480.347 314C480.347 313.787 480.422 313.6 480.571 313.44C480.721 313.269 480.929 313.184 481.195 313.184C481.451 313.184 481.654 313.269 481.803 313.44C481.963 313.6 482.043 313.787 482.043 314C482.043 314.224 481.963 314.416 481.803 314.576C481.654 314.736 481.451 314.816 481.195 314.816ZM486.987 324.192C486.518 324.192 486.129 324.096 485.819 323.904C485.51 323.712 485.281 323.435 485.131 323.072C484.993 322.709 484.923 322.283 484.923 321.792V317.136H483.515V316.096H484.923V313.952H486.187V316.096H488.475V317.136H486.187V321.68C486.187 322.192 486.283 322.549 486.475 322.752C486.678 322.955 486.934 323.056 487.243 323.056C487.457 323.056 487.649 323.019 487.819 322.944C487.99 322.859 488.15 322.747 488.299 322.608L488.875 323.504C488.63 323.739 488.347 323.909 488.027 324.016C487.718 324.133 487.371 324.192 486.987 324.192ZM490.618 324V312.4H491.898V317.216H491.994C492.175 316.853 492.436 316.544 492.778 316.288C493.13 316.032 493.567 315.904 494.09 315.904C494.996 315.904 495.711 316.144 496.234 316.624C496.767 317.093 497.034 317.867 497.034 318.944V324H495.754V319.184C495.754 318.373 495.588 317.803 495.258 317.472C494.938 317.131 494.463 316.96 493.834 316.96C493.236 316.96 492.762 317.168 492.41 317.584C492.068 318 491.898 318.608 491.898 319.408V324H490.618ZM506.376 324.192C505.522 324.192 504.824 323.995 504.28 323.6C503.736 323.205 503.336 322.693 503.08 322.064C502.834 321.424 502.712 320.752 502.712 320.048C502.712 319.333 502.834 318.661 503.08 318.032C503.325 317.403 503.714 316.891 504.248 316.496C504.792 316.101 505.49 315.904 506.344 315.904C507.005 315.904 507.549 316.016 507.976 316.24C508.413 316.464 508.781 316.763 509.08 317.136L508.28 317.888C508.024 317.611 507.752 317.397 507.464 317.248C507.186 317.088 506.824 317.008 506.376 317.008C505.917 317.008 505.506 317.131 505.144 317.376C504.792 317.621 504.514 317.973 504.312 318.432C504.12 318.88 504.024 319.419 504.024 320.048C504.024 320.987 504.248 321.728 504.696 322.272C505.144 322.816 505.714 323.088 506.408 323.088C506.834 323.088 507.202 323.013 507.512 322.864C507.821 322.704 508.109 322.475 508.376 322.176L509.144 322.944C508.845 323.317 508.466 323.621 508.008 323.856C507.56 324.08 507.016 324.192 506.376 324.192ZM513.972 324.192C513.13 324.192 512.426 324.005 511.86 323.632C511.306 323.259 510.89 322.757 510.612 322.128C510.335 321.499 510.196 320.805 510.196 320.048C510.196 319.472 510.271 318.933 510.42 318.432C510.58 317.931 510.815 317.493 511.124 317.12C511.444 316.736 511.839 316.437 512.308 316.224C512.788 316.011 513.343 315.904 513.972 315.904C514.815 315.904 515.508 316.091 516.052 316.464C516.607 316.837 517.018 317.339 517.284 317.968C517.562 318.587 517.7 319.28 517.7 320.048C517.7 320.624 517.62 321.163 517.46 321.664C517.311 322.165 517.082 322.608 516.772 322.992C516.463 323.365 516.074 323.659 515.604 323.872C515.146 324.085 514.602 324.192 513.972 324.192ZM511.508 320.048C511.508 320.656 511.599 321.195 511.78 321.664C511.962 322.123 512.234 322.485 512.596 322.752C512.959 323.008 513.418 323.136 513.972 323.136C514.516 323.136 514.964 323.008 515.316 322.752C515.679 322.485 515.946 322.123 516.116 321.664C516.298 321.195 516.388 320.656 516.388 320.048C516.388 319.44 516.298 318.907 516.116 318.448C515.946 317.979 515.679 317.616 515.316 317.36C514.964 317.093 514.516 316.96 513.972 316.96C513.418 316.96 512.959 317.093 512.596 317.36C512.234 317.616 511.962 317.979 511.78 318.448C511.599 318.907 511.508 319.44 511.508 320.048ZM519.758 324V316.096H520.974V317.344H521.07C521.198 317.067 521.364 316.821 521.566 316.608C521.769 316.384 522.009 316.213 522.286 316.096C522.564 315.968 522.878 315.904 523.23 315.904C524.137 315.904 524.852 316.144 525.374 316.624C525.908 317.093 526.174 317.867 526.174 318.944V324H524.894V319.184C524.894 318.373 524.729 317.803 524.398 317.472C524.078 317.131 523.604 316.96 522.974 316.96C522.377 316.96 521.902 317.168 521.55 317.584C521.209 318 521.038 318.608 521.038 319.408V324H519.758ZM531.175 324.192C530.705 324.192 530.316 324.096 530.007 323.904C529.697 323.712 529.468 323.435 529.319 323.072C529.18 322.709 529.111 322.283 529.111 321.792V317.136H527.703V316.096H529.111V313.952H530.375V316.096H532.663V317.136H530.375V321.68C530.375 322.192 530.471 322.549 530.663 322.752C530.865 322.955 531.121 323.056 531.431 323.056C531.644 323.056 531.836 323.019 532.007 322.944C532.177 322.859 532.337 322.747 532.487 322.608L533.063 323.504C532.817 323.739 532.535 323.909 532.215 324.016C531.905 324.133 531.559 324.192 531.175 324.192ZM537.768 324.192C537.011 324.192 536.35 324.027 535.784 323.696C535.23 323.365 534.798 322.891 534.488 322.272C534.179 321.643 534.024 320.901 534.024 320.048C534.024 319.376 534.11 318.784 534.28 318.272C534.462 317.749 534.712 317.317 535.032 316.976C535.363 316.624 535.747 316.357 536.184 316.176C536.632 315.995 537.123 315.904 537.656 315.904C538.19 315.904 538.675 315.989 539.112 316.16C539.56 316.331 539.944 316.587 540.264 316.928C540.595 317.259 540.851 317.68 541.032 318.192C541.214 318.693 541.304 319.28 541.304 319.952C541.304 320.037 541.299 320.123 541.288 320.208C541.288 320.293 541.283 320.363 541.272 320.416H535.304C535.315 320.907 535.432 321.355 535.656 321.76C535.88 322.165 536.179 322.491 536.552 322.736C536.936 322.971 537.363 323.088 537.832 323.088C538.398 323.088 538.867 322.976 539.24 322.752C539.614 322.528 539.923 322.256 540.168 321.936L540.936 322.72C540.606 323.168 540.184 323.525 539.672 323.792C539.16 324.059 538.526 324.192 537.768 324.192ZM537.656 316.96C537.155 316.96 536.734 317.077 536.392 317.312C536.051 317.547 535.79 317.845 535.608 318.208C535.438 318.571 535.347 318.949 535.336 319.344H539.96C539.95 318.949 539.854 318.571 539.672 318.208C539.502 317.845 539.246 317.547 538.904 317.312C538.574 317.077 538.158 316.96 537.656 316.96ZM543.368 324V316.096H544.584V317.344H544.68C544.808 317.067 544.973 316.821 545.176 316.608C545.378 316.384 545.618 316.213 545.896 316.096C546.173 315.968 546.488 315.904 546.84 315.904C547.746 315.904 548.461 316.144 548.984 316.624C549.517 317.093 549.784 317.867 549.784 318.944V324H548.504V319.184C548.504 318.373 548.338 317.803 548.008 317.472C547.688 317.131 547.213 316.96 546.584 316.96C545.986 316.96 545.512 317.168 545.16 317.584C544.818 318 544.648 318.608 544.648 319.408V324H543.368ZM554.784 324.192C554.315 324.192 553.926 324.096 553.616 323.904C553.307 323.712 553.078 323.435 552.928 323.072C552.79 322.709 552.72 322.283 552.72 321.792V317.136H551.312V316.096H552.72V313.952H553.984V316.096H556.272V317.136H553.984V321.68C553.984 322.192 554.08 322.549 554.272 322.752C554.475 322.955 554.731 323.056 555.04 323.056C555.254 323.056 555.446 323.019 555.616 322.944C555.787 322.859 555.947 322.747 556.096 322.608L556.672 323.504C556.427 323.739 556.144 323.909 555.824 324.016C555.515 324.133 555.168 324.192 554.784 324.192Z" fill="black" fill-opacity="0.64"/>
<rect width="640" height="80" transform="translate(150.5 342)" fill="white"/>
<g clip-path="url(#clip2_25451_17810)">
<path d="M676.5 382C676.5 368.745 687.245 358 700.5 358H750.5C763.755 358 774.5 368.745 774.5 382C774.5 395.255 763.755 406 750.5 406H700.5C687.245 406 676.5 395.255 676.5 382Z" fill="#F36805"/>
<path d="M676.5 382C676.5 368.745 687.245 358 700.5 358H750.5C763.755 358 774.5 368.745 774.5 382C774.5 395.255 763.755 406 750.5 406H700.5C687.245 406 676.5 395.255 676.5 382Z" fill="white" fill-opacity="0.01"/>
<path d="M702.042 389V376H705.422V386.3H710.702V389H702.042ZM715.187 389.24C714.6 389.24 714.053 389.12 713.547 388.88C713.04 388.64 712.633 388.3 712.327 387.86C712.02 387.407 711.867 386.86 711.867 386.22C711.867 385.62 712.007 385.107 712.287 384.68C712.58 384.24 713.02 383.893 713.607 383.64C714.207 383.387 714.967 383.233 715.887 383.18L717.987 383.06V382.9C717.987 382.527 717.893 382.247 717.707 382.06C717.52 381.86 717.28 381.727 716.987 381.66C716.693 381.58 716.38 381.54 716.047 381.54C715.673 381.54 715.293 381.607 714.907 381.74C714.52 381.873 714.233 382.06 714.047 382.3L712.307 380.5C712.667 380.033 713.193 379.647 713.887 379.34C714.58 379.033 715.487 378.88 716.607 378.88C717.553 378.88 718.367 379.027 719.047 379.32C719.727 379.613 720.247 380.047 720.607 380.62C720.98 381.18 721.167 381.867 721.167 382.68V389H718.187V387.48H718.067C717.813 388 717.447 388.427 716.967 388.76C716.487 389.08 715.893 389.24 715.187 389.24ZM716.267 387.08C716.773 387.08 717.187 386.94 717.507 386.66C717.827 386.38 717.987 385.967 717.987 385.42V384.9L716.327 385.02C715.9 385.047 715.58 385.153 715.367 385.34C715.167 385.527 715.067 385.773 715.067 386.08C715.067 386.413 715.18 386.667 715.407 386.84C715.647 387 715.933 387.08 716.267 387.08ZM729.352 389.24C728.618 389.24 727.985 389.067 727.452 388.72C726.932 388.36 726.545 387.867 726.292 387.24H726.172V389H723.152V374.5H726.332V380.74H726.452C726.665 380.193 727.018 379.747 727.512 379.4C728.005 379.053 728.618 378.88 729.352 378.88C730.138 378.88 730.845 379.107 731.472 379.56C732.112 380 732.618 380.613 732.992 381.4C733.365 382.187 733.552 383.107 733.552 384.16C733.552 385.173 733.365 386.06 732.992 386.82C732.618 387.58 732.112 388.173 731.472 388.6C730.845 389.027 730.138 389.24 729.352 389.24ZM728.312 386.5C728.738 386.5 729.098 386.393 729.392 386.18C729.685 385.953 729.905 385.66 730.052 385.3C730.212 384.927 730.292 384.513 730.292 384.06C730.292 383.607 730.212 383.2 730.052 382.84C729.905 382.467 729.685 382.173 729.392 381.96C729.098 381.733 728.738 381.62 728.312 381.62C727.885 381.62 727.518 381.733 727.212 381.96C726.918 382.173 726.698 382.467 726.552 382.84C726.405 383.2 726.332 383.607 726.332 384.06C726.332 384.513 726.405 384.927 726.552 385.3C726.698 385.66 726.918 385.953 727.212 386.18C727.518 386.393 727.885 386.5 728.312 386.5ZM739.684 389.24C738.484 389.24 737.504 388.993 736.744 388.5C735.984 387.993 735.424 387.347 735.064 386.56C734.718 385.773 734.544 384.94 734.544 384.06C734.544 383.393 734.631 382.753 734.804 382.14C734.991 381.527 735.278 380.973 735.664 380.48C736.051 379.987 736.558 379.6 737.184 379.32C737.824 379.027 738.598 378.88 739.504 378.88C740.411 378.88 741.178 379.02 741.804 379.3C742.431 379.58 742.931 379.967 743.304 380.46C743.691 380.94 743.964 381.487 744.124 382.1C744.298 382.7 744.384 383.327 744.384 383.98C744.384 384.127 744.371 384.32 744.344 384.56C744.318 384.787 744.284 384.96 744.244 385.08H737.764C737.844 385.467 737.998 385.773 738.224 386C738.464 386.227 738.731 386.393 739.024 386.5C739.331 386.593 739.611 386.64 739.864 386.64C740.331 386.64 740.731 386.567 741.064 386.42C741.411 386.273 741.678 386.08 741.864 385.84L743.604 387.66C743.284 388.113 742.778 388.493 742.084 388.8C741.391 389.093 740.591 389.24 739.684 389.24ZM739.504 381.24C739.224 381.24 738.958 381.3 738.704 381.42C738.464 381.527 738.251 381.707 738.064 381.96C737.891 382.213 737.771 382.553 737.704 382.98H741.264C741.211 382.553 741.091 382.213 740.904 381.96C740.731 381.707 740.524 381.527 740.284 381.42C740.044 381.3 739.784 381.24 739.504 381.24ZM745.925 389V374.5H749.105V389H745.925Z" fill="white"/>
</g>
<g clip-path="url(#clip3_25451_17810)">
<path d="M562.5 382C562.5 368.745 573.245 358 586.5 358H636.5C649.755 358 660.5 368.745 660.5 382C660.5 395.255 649.755 406 636.5 406H586.5C573.245 406 562.5 395.255 562.5 382Z" fill="white" fill-opacity="0.01"/>
<path d="M588.042 389V376H591.422V386.3H596.702V389H588.042ZM601.187 389.24C600.6 389.24 600.053 389.12 599.547 388.88C599.04 388.64 598.633 388.3 598.327 387.86C598.02 387.407 597.867 386.86 597.867 386.22C597.867 385.62 598.007 385.107 598.287 384.68C598.58 384.24 599.02 383.893 599.607 383.64C600.207 383.387 600.967 383.233 601.887 383.18L603.987 383.06V382.9C603.987 382.527 603.893 382.247 603.707 382.06C603.52 381.86 603.28 381.727 602.987 381.66C602.693 381.58 602.38 381.54 602.047 381.54C601.673 381.54 601.293 381.607 600.907 381.74C600.52 381.873 600.233 382.06 600.047 382.3L598.307 380.5C598.667 380.033 599.193 379.647 599.887 379.34C600.58 379.033 601.487 378.88 602.607 378.88C603.553 378.88 604.367 379.027 605.047 379.32C605.727 379.613 606.247 380.047 606.607 380.62C606.98 381.18 607.167 381.867 607.167 382.68V389H604.187V387.48H604.067C603.813 388 603.447 388.427 602.967 388.76C602.487 389.08 601.893 389.24 601.187 389.24ZM602.267 387.08C602.773 387.08 603.187 386.94 603.507 386.66C603.827 386.38 603.987 385.967 603.987 385.42V384.9L602.327 385.02C601.9 385.047 601.58 385.153 601.367 385.34C601.167 385.527 601.067 385.773 601.067 386.08C601.067 386.413 601.18 386.667 601.407 386.84C601.647 387 601.933 387.08 602.267 387.08ZM615.352 389.24C614.618 389.24 613.985 389.067 613.452 388.72C612.932 388.36 612.545 387.867 612.292 387.24H612.172V389H609.152V374.5H612.332V380.74H612.452C612.665 380.193 613.018 379.747 613.512 379.4C614.005 379.053 614.618 378.88 615.352 378.88C616.138 378.88 616.845 379.107 617.472 379.56C618.112 380 618.618 380.613 618.992 381.4C619.365 382.187 619.552 383.107 619.552 384.16C619.552 385.173 619.365 386.06 618.992 386.82C618.618 387.58 618.112 388.173 617.472 388.6C616.845 389.027 616.138 389.24 615.352 389.24ZM614.312 386.5C614.738 386.5 615.098 386.393 615.392 386.18C615.685 385.953 615.905 385.66 616.052 385.3C616.212 384.927 616.292 384.513 616.292 384.06C616.292 383.607 616.212 383.2 616.052 382.84C615.905 382.467 615.685 382.173 615.392 381.96C615.098 381.733 614.738 381.62 614.312 381.62C613.885 381.62 613.518 381.733 613.212 381.96C612.918 382.173 612.698 382.467 612.552 382.84C612.405 383.2 612.332 383.607 612.332 384.06C612.332 384.513 612.405 384.927 612.552 385.3C612.698 385.66 612.918 385.953 613.212 386.18C613.518 386.393 613.885 386.5 614.312 386.5ZM625.684 389.24C624.484 389.24 623.504 388.993 622.744 388.5C621.984 387.993 621.424 387.347 621.064 386.56C620.718 385.773 620.544 384.94 620.544 384.06C620.544 383.393 620.631 382.753 620.804 382.14C620.991 381.527 621.278 380.973 621.664 380.48C622.051 379.987 622.558 379.6 623.184 379.32C623.824 379.027 624.598 378.88 625.504 378.88C626.411 378.88 627.178 379.02 627.804 379.3C628.431 379.58 628.931 379.967 629.304 380.46C629.691 380.94 629.964 381.487 630.124 382.1C630.298 382.7 630.384 383.327 630.384 383.98C630.384 384.127 630.371 384.32 630.344 384.56C630.318 384.787 630.284 384.96 630.244 385.08H623.764C623.844 385.467 623.998 385.773 624.224 386C624.464 386.227 624.731 386.393 625.024 386.5C625.331 386.593 625.611 386.64 625.864 386.64C626.331 386.64 626.731 386.567 627.064 386.42C627.411 386.273 627.678 386.08 627.864 385.84L629.604 387.66C629.284 388.113 628.778 388.493 628.084 388.8C627.391 389.093 626.591 389.24 625.684 389.24ZM625.504 381.24C625.224 381.24 624.958 381.3 624.704 381.42C624.464 381.527 624.251 381.707 624.064 381.96C623.891 382.213 623.771 382.553 623.704 382.98H627.264C627.211 382.553 627.091 382.213 626.904 381.96C626.731 381.707 626.524 381.527 626.284 381.42C626.044 381.3 625.784 381.24 625.504 381.24ZM631.925 389V374.5H635.105V389H631.925Z" fill="#242E30"/>
</g>
</g>
</g>
</g>
<rect x="16" y="418" width="404" height="909" rx="20" transform="rotate(-90 16 418)" stroke="#E7E2DA" stroke-width="8"/>
</g>
<defs>
<filter id="filter0_ddd_25451_17810" x="0" y="0" width="941" height="436" filterUnits="userSpaceOnUse" color-interpolation-filters="sRGB">
<feFlood flood-opacity="0" result="BackgroundImageFix"/>
<feColorMatrix in="SourceAlpha" type="matrix" values="0 0 0 0 0 0 0 0 0 0 0 0 0 0 0 0 0 0 127 0" result="hardAlpha"/>
<feMorphology radius="2" operator="dilate" in="SourceAlpha" result="effect1_dropShadow_25451_17810"/>
<feOffset dy="2"/>
<feGaussianBlur stdDeviation="3"/>
<feColorMatrix type="matrix" values="0 0 0 0 0 0 0 0 0 0 0 0 0 0 0 0 0 0 0.02 0"/>
<feBlend mode="normal" in2="BackgroundImageFix" result="effect1_dropShadow_25451_17810"/>
<feColorMatrix in="SourceAlpha" type="matrix" values="0 0 0 0 0 0 0 0 0 0 0 0 0 0 0 0 0 0 127 0" result="hardAlpha"/>
<feOffset dy="2"/>
<feGaussianBlur stdDeviation="6"/>
<feColorMatrix type="matrix" values="0 0 0 0 0 0 0 0 0 0 0 0 0 0 0 0 0 0 0.03 0"/>
<feBlend mode="normal" in2="effect1_dropShadow_25451_17810" result="effect2_dropShadow_25451_17810"/>
<feColorMatrix in="SourceAlpha" type="matrix" values="0 0 0 0 0 0 0 0 0 0 0 0 0 0 0 0 0 0 127 0" result="hardAlpha"/>
<feOffset dy="2"/>
<feGaussianBlur stdDeviation="3"/>
<feColorMatrix type="matrix" values="0 0 0 0 0 0 0 0 0 0 0 0 0 0 0 0 0 0 0.01 0"/>
<feBlend mode="normal" in2="effect2_dropShadow_25451_17810" result="effect3_dropShadow_25451_17810"/>
<feBlend mode="normal" in="SourceGraphic" in2="effect3_dropShadow_25451_17810" result="shape"/>
</filter>
<filter id="filter1_ddd_25451_17810" x="140.5" y="146" width="660" height="284" filterUnits="userSpaceOnUse" color-interpolation-filters="sRGB">
<feFlood flood-opacity="0" result="BackgroundImageFix"/>
<feColorMatrix in="SourceAlpha" type="matrix" values="0 0 0 0 0 0 0 0 0 0 0 0 0 0 0 0 0 0 127 0" result="hardAlpha"/>
<feOffset dy="-4"/>
<feGaussianBlur stdDeviation="3"/>
<feColorMatrix type="matrix" values="0 0 0 0 0 0 0 0 0 0 0 0 0 0 0 0 0 0 0.01 0"/>
<feBlend mode="normal" in2="BackgroundImageFix" result="effect1_dropShadow_25451_17810"/>
<feColorMatrix in="SourceAlpha" type="matrix" values="0 0 0 0 0 0 0 0 0 0 0 0 0 0 0 0 0 0 127 0" result="hardAlpha"/>
<feMorphology radius="2" operator="erode" in="SourceAlpha" result="effect2_dropShadow_25451_17810"/>
<feOffset dy="-2"/>
<feGaussianBlur stdDeviation="6"/>
<feColorMatrix type="matrix" values="0 0 0 0 0 0 0 0 0 0 0 0 0 0 0 0 0 0 0.03 0"/>
<feBlend mode="normal" in2="effect1_dropShadow_25451_17810" result="effect2_dropShadow_25451_17810"/>
<feColorMatrix in="SourceAlpha" type="matrix" values="0 0 0 0 0 0 0 0 0 0 0 0 0 0 0 0 0 0 127 0" result="hardAlpha"/>
<feOffset dy="-3"/>
<feGaussianBlur stdDeviation="3"/>
<feColorMatrix type="matrix" values="0 0 0 0 0 0 0 0 0 0 0 0 0 0 0 0 0 0 0.02 0"/>
<feBlend mode="normal" in2="effect2_dropShadow_25451_17810" result="effect3_dropShadow_25451_17810"/>
<feBlend mode="normal" in="SourceGraphic" in2="effect3_dropShadow_25451_17810" result="shape"/>
</filter>
<clipPath id="clip0_25451_17810">
<rect x="12" y="422" width="412" height="917" rx="24" transform="rotate(-90 12 422)" fill="white"/>
</clipPath>
<clipPath id="clip1_25451_17810">
<path d="M150.5 174C150.5 165.163 157.663 158 166.5 158H774.5C783.337 158 790.5 165.163 790.5 174V422H150.5V174Z" fill="white"/>
</clipPath>
<clipPath id="clip2_25451_17810">
<path d="M676.5 382C676.5 368.745 687.245 358 700.5 358H750.5C763.755 358 774.5 368.745 774.5 382C774.5 395.255 763.755 406 750.5 406H700.5C687.245 406 676.5 395.255 676.5 382Z" fill="white"/>
</clipPath>
<clipPath id="clip3_25451_17810">
<path d="M562.5 382C562.5 368.745 573.245 358 586.5 358H636.5C649.755 358 660.5 368.745 660.5 382C660.5 395.255 649.755 406 636.5 406H586.5C573.245 406 562.5 395.255 562.5 382Z" fill="white"/>
</clipPath>
</defs>
</svg>
