<svg width="380" height="558" viewBox="0 0 380 558" fill="none" xmlns="http://www.w3.org/2000/svg" xmlns:xlink="http://www.w3.org/1999/xlink">
<g filter="url(#filter0_ddd_25442_17607)">
<g clip-path="url(#clip0_25442_17607)">
<path d="M10 28C10 19.1635 17.1634 12 26 12H354C362.837 12 370 19.1634 370 28V550H10V28Z" fill="white"/>
<rect width="360" height="260" transform="translate(10 12)" fill="white"/>
<rect width="360" height="200" transform="translate(10 12)" fill="url(#pattern0_25442_17607)"/>
<rect opacity="0.5" x="174" y="20" width="32" height="4" rx="2" fill="#262626"/>
<rect x="10" y="212" width="360" height="16" fill="white" fill-opacity="0.01"/>
<path d="M29.92 238.7H26.36V236H36.86V238.7H33.3V249H29.92V238.7ZM41.6709 236.28C41.6709 236.733 41.5176 237.14 41.2109 237.5C40.9043 237.847 40.4576 238.02 39.8709 238.02C39.2709 238.02 38.8243 237.847 38.5309 237.5C38.2376 237.14 38.0909 236.733 38.0909 236.28C38.0909 235.827 38.2376 235.427 38.5309 235.08C38.8243 234.72 39.2709 234.54 39.8709 234.54C40.4576 234.54 40.9043 234.72 41.2109 235.08C41.5176 235.427 41.6709 235.827 41.6709 236.28ZM38.2709 239.12H41.4509V249H38.2709V239.12ZM47.9039 249.22C46.6506 249.22 45.7439 248.907 45.1839 248.28C44.6372 247.653 44.3639 246.653 44.3639 245.28V241.66H42.9439V239.12H44.3639V236.44H47.5039V239.12H50.4239V241.66H47.5039V245.34C47.5039 245.78 47.5772 246.1 47.7239 246.3C47.8839 246.5 48.1439 246.6 48.5039 246.6C48.7439 246.6 48.9706 246.553 49.1839 246.46C49.4106 246.353 49.5972 246.227 49.7439 246.08L50.7639 248.24C50.1106 248.893 49.1572 249.22 47.9039 249.22ZM52.1186 234.5H55.2986V249H52.1186V234.5ZM61.9716 249.24C61.0649 249.24 60.2849 249.093 59.6316 248.8C58.9916 248.507 58.4649 248.12 58.0516 247.64C57.6382 247.16 57.3316 246.613 57.1316 246C56.9316 245.373 56.8316 244.727 56.8316 244.06C56.8316 243.407 56.9182 242.767 57.0916 242.14C57.2782 241.513 57.5649 240.96 57.9516 240.48C58.3516 240 58.8649 239.613 59.4916 239.32C60.1182 239.027 60.8849 238.88 61.7916 238.88C62.6982 238.88 63.4649 239.027 64.0916 239.32C64.7182 239.6 65.2182 239.98 65.5916 240.46C65.9782 240.927 66.2516 241.467 66.4116 242.08C66.5849 242.693 66.6716 243.327 66.6716 243.98C66.6716 244.127 66.6582 244.32 66.6316 244.56C66.6049 244.787 66.5716 244.96 66.5316 245.08H60.0516C60.1049 245.373 60.2049 245.62 60.3516 245.82C60.5116 246.02 60.6916 246.18 60.8916 246.3C61.0916 246.42 61.2982 246.507 61.5116 246.56C61.7382 246.613 61.9516 246.64 62.1516 246.64C62.6182 246.64 63.0182 246.567 63.3516 246.42C63.6982 246.273 63.9649 246.08 64.1516 245.84L65.8916 247.66C65.5716 248.127 65.0649 248.507 64.3716 248.8C63.6782 249.093 62.8782 249.24 61.9716 249.24ZM61.7916 241.24C61.3649 241.24 60.9849 241.373 60.6516 241.64C60.3182 241.893 60.0982 242.34 59.9916 242.98H63.5516C63.4582 242.34 63.2449 241.893 62.9116 241.64C62.5782 241.373 62.2049 241.24 61.7916 241.24Z" fill="#242E30"/>
<path d="M26 280C26 275.582 29.5817 272 34 272H346C350.418 272 354 275.582 354 280V526C354 530.418 350.418 534 346 534H34C29.5817 534 26 530.418 26 526V280Z" fill="black" fill-opacity="0.04"/>
<path d="M344 272V272.5H346C346.501 272.5 346.991 272.549 347.464 272.643L347.561 272.152C348.61 272.36 349.586 272.773 350.444 273.348L350.167 273.763C350.985 274.31 351.69 275.015 352.237 275.833L352.651 275.555C353.226 276.413 353.639 277.389 353.847 278.438L353.357 278.536C353.451 279.009 353.5 279.499 353.5 280V281.983H354V285.951H353.5V289.919H354V293.887H353.5V297.854H354V301.822H353.5V305.79H354V309.758H353.5V313.726H354V317.693H353.5V321.661H354V325.629H353.5V329.597H354V333.564H353.5V337.532H354V341.5H353.5V345.468H354V349.436H353.5V353.403H354V357.371H353.5V361.339H354V365.307H353.5V369.274H354V373.242H353.5V377.21H354V381.178H353.5V385.146H354V389.113H353.5V393.081H354V397.049H353.5V401.017H354V404.984H353.5V408.951H354V412.919H353.5V416.887H354V420.854H353.5V424.822H354V428.79H353.5V432.758H354V436.726H353.5V440.693H354V444.661H353.5V448.629H354V452.597H353.5V456.564H354V460.532H353.5V464.5H354V468.468H353.5V472.436H354V476.403H353.5V480.371H354V484.339H353.5V488.307H354V492.274H353.5V496.242H354V500.21H353.5V504.178H354V508.146H353.5V512.113H354V516.081H353.5V520.049H354V524.017H353.5V526C353.5 526.501 353.451 526.991 353.357 527.464L353.847 527.561C353.639 528.61 353.226 529.586 352.651 530.444L352.237 530.167C351.69 530.985 350.985 531.69 350.167 532.237L350.444 532.651C349.586 533.226 348.61 533.639 347.561 533.847L347.464 533.357C346.991 533.451 346.501 533.5 346 533.5H344V534H340V533.5H336V534H332V533.5H328V534H324V533.5H320V534H316V533.5H312V534H308V533.5H304V534H300V533.5H296V534H292V533.5H288V534H284V533.5H280V534H276V533.5H272V534H268V533.5H264V534H260V533.5H256V534H252V533.5H248V534H244V533.5H240V534H236V533.5H232V534H228V533.5H224V534H220V533.5H216V534H212V533.5H208V534H204V533.5H200V534H196V533.5H192V534H188V533.5H184V534H180V533.5H176V534H172V533.5H168V534H164V533.5H160V534H156V533.5H152V534H148V533.5H144V534H140V533.5H136V534H132V533.5H128V534H124V533.5H120V534H116V533.5H112V534H108V533.5H104V534H100V533.5H96V534H92V533.5H88V534H84V533.5H80V534H76V533.5H72V534H68V533.5H64V534H60V533.5H56V534H52V533.5H48V534H44V533.5H40V534H36V533.5H34C33.4986 533.5 33.0092 533.451 32.5361 533.357L32.4385 533.847C31.3888 533.639 30.4131 533.226 29.5547 532.651L29.833 532.237C29.0149 531.69 28.3104 530.985 27.7627 530.167L27.3477 530.444C26.773 529.586 26.3599 528.61 26.1523 527.561L26.6426 527.464C26.5724 527.109 26.527 526.745 26.5088 526.374L26.5 526V524.017H26V520.049H26.5V516.081H26V512.113H26.5V508.146H26V504.178H26.5V500.21H26V496.242H26.5V492.274H26V488.307H26.5V484.339H26V480.371H26.5V476.403H26V472.436H26.5V468.468H26V464.5H26.5V460.532H26V456.564H26.5V452.597H26V448.629H26.5V444.661H26V440.693H26.5V436.726H26V432.758H26.5V428.79H26V424.822H26.5V420.854H26V416.887H26.5V412.919H26V408.951H26.5V404.983H26V401.016H26.5V397.049H26V393.081H26.5V389.113H26V385.146H26.5V381.178H26V377.21H26.5V373.242H26V369.274H26.5V365.307H26V361.339H26.5V357.371H26V353.403H26.5V349.436H26V345.468H26.5V341.5H26V337.532H26.5V333.564H26V329.597H26.5V325.629H26V321.661H26.5V317.693H26V313.726H26.5V309.758H26V305.79H26.5V301.822H26V297.854H26.5V293.887H26V289.919H26.5V285.951H26V281.983H26.5V280C26.5 279.499 26.549 279.009 26.6426 278.536L26.1523 278.438C26.36 277.389 26.7729 276.413 27.3477 275.555L27.7627 275.833C28.3104 275.015 29.0149 274.31 29.833 273.763L29.5547 273.348C30.413 272.773 31.3889 272.36 32.4385 272.152L32.5361 272.643C33.0092 272.549 33.4986 272.5 34 272.5H36V272H40V272.5H44V272H48V272.5H52V272H56V272.5H60V272H64V272.5H68V272H72V272.5H76V272H80V272.5H84V272H88V272.5H92V272H96V272.5H100V272H104V272.5H108V272H112V272.5H116V272H120V272.5H124V272H128V272.5H132V272H136V272.5H140V272H144V272.5H148V272H152V272.5H156V272H160V272.5H164V272H168V272.5H172V272H176V272.5H180V272H184V272.5H188V272H192V272.5H196V272H200V272.5H204V272H208V272.5H212V272H216V272.5H220V272H224V272.5H228V272H232V272.5H236V272H240V272.5H244V272H248V272.5H252V272H256V272.5H260V272H264V272.5H268V272H272V272.5H276V272H280V272.5H284V272H288V272.5H292V272H296V272.5H300V272H304V272.5H308V272H312V272.5H316V272H320V272.5H324V272H328V272.5H332V272H336V272.5H340V272H344Z" stroke="black" stroke-opacity="0.76" stroke-dasharray="4 4"/>
<path d="M180.031 381.192C179.092 381.192 178.308 381.043 177.679 380.744C177.06 380.445 176.548 380.056 176.143 379.576L177.519 378.296C177.818 378.616 178.17 378.888 178.575 379.112C178.98 379.325 179.482 379.432 180.079 379.432C180.41 379.432 180.708 379.389 180.975 379.304C181.242 379.208 181.455 379.064 181.615 378.872C181.786 378.669 181.871 378.408 181.871 378.088C181.871 377.8 181.775 377.571 181.583 377.4C181.391 377.219 181.108 377.064 180.735 376.936C180.372 376.808 179.935 376.669 179.423 376.52C179.06 376.403 178.703 376.269 178.351 376.12C178.01 375.971 177.7 375.784 177.423 375.56C177.146 375.325 176.922 375.043 176.751 374.712C176.591 374.371 176.511 373.96 176.511 373.48C176.511 372.989 176.602 372.557 176.783 372.184C176.975 371.8 177.242 371.48 177.583 371.224C177.924 370.957 178.324 370.755 178.783 370.616C179.252 370.477 179.77 370.408 180.335 370.408C181.178 370.408 181.903 370.547 182.511 370.824C183.119 371.091 183.604 371.475 183.967 371.976L182.591 373.272C182.335 372.963 182.02 372.701 181.647 372.488C181.284 372.275 180.842 372.168 180.319 372.168C180.042 372.168 179.775 372.211 179.519 372.296C179.274 372.381 179.071 372.515 178.911 372.696C178.762 372.877 178.687 373.117 178.687 373.416C178.687 373.715 178.783 373.949 178.975 374.12C179.167 374.291 179.444 374.44 179.807 374.568C180.18 374.696 180.618 374.84 181.119 375C181.492 375.117 181.85 375.251 182.191 375.4C182.543 375.549 182.858 375.741 183.135 375.976C183.412 376.2 183.631 376.483 183.791 376.824C183.962 377.155 184.047 377.56 184.047 378.04C184.047 378.552 183.946 379.005 183.743 379.4C183.551 379.784 183.274 380.115 182.911 380.392C182.559 380.659 182.138 380.861 181.647 381C181.156 381.128 180.618 381.192 180.031 381.192ZM185.72 381V369.4H187.736V381H185.72ZM193.301 381.192C192.426 381.192 191.69 381.005 191.093 380.632C190.506 380.248 190.063 379.741 189.765 379.112C189.466 378.483 189.317 377.795 189.317 377.048C189.317 376.483 189.402 375.949 189.573 375.448C189.743 374.947 189.994 374.509 190.325 374.136C190.655 373.752 191.066 373.453 191.557 373.24C192.058 373.016 192.639 372.904 193.301 372.904C194.186 372.904 194.917 373.096 195.493 373.48C196.079 373.853 196.517 374.355 196.805 374.984C197.103 375.603 197.253 376.291 197.253 377.048C197.253 377.613 197.167 378.147 196.997 378.648C196.837 379.149 196.591 379.592 196.261 379.976C195.93 380.349 195.519 380.648 195.029 380.872C194.538 381.085 193.962 381.192 193.301 381.192ZM191.381 377.048C191.381 377.56 191.455 378.008 191.605 378.392C191.765 378.765 191.983 379.053 192.261 379.256C192.549 379.459 192.895 379.56 193.301 379.56C193.706 379.56 194.047 379.459 194.325 379.256C194.602 379.053 194.815 378.765 194.965 378.392C195.125 378.008 195.205 377.56 195.205 377.048C195.205 376.525 195.125 376.077 194.965 375.704C194.815 375.331 194.602 375.043 194.325 374.84C194.047 374.637 193.706 374.536 193.301 374.536C192.895 374.536 192.549 374.637 192.261 374.84C191.983 375.043 191.765 375.331 191.605 375.704C191.455 376.077 191.381 376.525 191.381 377.048ZM201.854 381.176C201.278 381.176 200.803 381.075 200.43 380.872C200.056 380.659 199.779 380.344 199.598 379.928C199.427 379.501 199.342 378.973 199.342 378.344V374.712H198.094V373.096H199.342V370.952H201.342V373.096H203.646V374.712H201.342V378.328C201.342 378.744 201.416 379.043 201.566 379.224C201.726 379.395 201.95 379.48 202.238 379.48C202.44 379.48 202.627 379.443 202.798 379.368C202.979 379.283 203.134 379.181 203.262 379.064L203.982 380.44C203.726 380.696 203.422 380.883 203.07 381C202.718 381.117 202.312 381.176 201.854 381.176Z" fill="black" fill-opacity="0.76"/>
<path d="M118.516 413V403.752H115.556V402.6H122.836V403.752H119.876V413H118.516ZM124.579 413V401.4H125.859V406.216H125.955C126.136 405.853 126.397 405.544 126.739 405.288C127.091 405.032 127.528 404.904 128.051 404.904C128.957 404.904 129.672 405.144 130.195 405.624C130.728 406.093 130.995 406.867 130.995 407.944V413H129.715V408.184C129.715 407.373 129.549 406.803 129.219 406.472C128.899 406.131 128.424 405.96 127.795 405.96C127.197 405.96 126.723 406.168 126.371 406.584C126.029 407 125.859 407.608 125.859 408.408V413H124.579ZM133.485 413V405.096H134.765V413H133.485ZM134.125 403.816C133.858 403.816 133.65 403.736 133.501 403.576C133.352 403.416 133.277 403.224 133.277 403C133.277 402.787 133.352 402.6 133.501 402.44C133.65 402.269 133.858 402.184 134.125 402.184C134.381 402.184 134.584 402.269 134.733 402.44C134.893 402.6 134.973 402.787 134.973 403C134.973 403.224 134.893 403.416 134.733 403.576C134.584 403.736 134.381 403.816 134.125 403.816ZM139.629 413.192C138.946 413.192 138.36 413.075 137.869 412.84C137.378 412.605 136.994 412.301 136.717 411.928L137.565 411.128C137.81 411.416 138.093 411.651 138.413 411.832C138.744 412.013 139.154 412.104 139.645 412.104C140.082 412.104 140.466 412.013 140.797 411.832C141.128 411.64 141.293 411.347 141.293 410.952C141.293 410.643 141.197 410.403 141.005 410.232C140.824 410.051 140.584 409.907 140.285 409.8C139.986 409.683 139.666 409.576 139.325 409.48C138.93 409.363 138.557 409.219 138.205 409.048C137.864 408.867 137.581 408.632 137.357 408.344C137.144 408.045 137.037 407.667 137.037 407.208C137.037 406.707 137.154 406.285 137.389 405.944C137.634 405.603 137.96 405.347 138.365 405.176C138.781 404.995 139.245 404.904 139.757 404.904C140.322 404.904 140.85 405.011 141.341 405.224C141.832 405.427 142.226 405.747 142.525 406.184L141.693 406.952C141.458 406.675 141.181 406.445 140.861 406.264C140.552 406.083 140.184 405.992 139.757 405.992C139.394 405.992 139.058 406.083 138.749 406.264C138.44 406.435 138.285 406.712 138.285 407.096C138.285 407.405 138.376 407.651 138.557 407.832C138.749 408.003 138.994 408.141 139.293 408.248C139.592 408.355 139.912 408.461 140.253 408.568C140.648 408.685 141.016 408.835 141.357 409.016C141.709 409.187 141.992 409.416 142.205 409.704C142.429 409.992 142.541 410.371 142.541 410.84C142.541 411.384 142.408 411.832 142.141 412.184C141.874 412.525 141.517 412.781 141.069 412.952C140.632 413.112 140.152 413.192 139.629 413.192ZM148.594 413V405.096H149.874V413H148.594ZM149.234 403.816C148.968 403.816 148.76 403.736 148.61 403.576C148.461 403.416 148.386 403.224 148.386 403C148.386 402.787 148.461 402.6 148.61 402.44C148.76 402.269 148.968 402.184 149.234 402.184C149.49 402.184 149.693 402.269 149.842 402.44C150.002 402.6 150.082 402.787 150.082 403C150.082 403.224 150.002 403.416 149.842 403.576C149.693 403.736 149.49 403.816 149.234 403.816ZM154.738 413.192C154.056 413.192 153.469 413.075 152.978 412.84C152.488 412.605 152.104 412.301 151.826 411.928L152.674 411.128C152.92 411.416 153.202 411.651 153.522 411.832C153.853 412.013 154.264 412.104 154.754 412.104C155.192 412.104 155.576 412.013 155.906 411.832C156.237 411.64 156.402 411.347 156.402 410.952C156.402 410.643 156.306 410.403 156.114 410.232C155.933 410.051 155.693 409.907 155.394 409.8C155.096 409.683 154.776 409.576 154.434 409.48C154.04 409.363 153.666 409.219 153.314 409.048C152.973 408.867 152.69 408.632 152.466 408.344C152.253 408.045 152.146 407.667 152.146 407.208C152.146 406.707 152.264 406.285 152.498 405.944C152.744 405.603 153.069 405.347 153.474 405.176C153.89 404.995 154.354 404.904 154.866 404.904C155.432 404.904 155.96 405.011 156.45 405.224C156.941 405.427 157.336 405.747 157.634 406.184L156.802 406.952C156.568 406.675 156.29 406.445 155.97 406.264C155.661 406.083 155.293 405.992 154.866 405.992C154.504 405.992 154.168 406.083 153.858 406.264C153.549 406.435 153.394 406.712 153.394 407.096C153.394 407.405 153.485 407.651 153.666 407.832C153.858 408.003 154.104 408.141 154.402 408.248C154.701 408.355 155.021 408.461 155.362 408.568C155.757 408.685 156.125 408.835 156.466 409.016C156.818 409.187 157.101 409.416 157.314 409.704C157.538 409.992 157.65 410.371 157.65 410.84C157.65 411.384 157.517 411.832 157.25 412.184C156.984 412.525 156.626 412.781 156.178 412.952C155.741 413.112 155.261 413.192 154.738 413.192ZM165.448 413.192C164.968 413.192 164.536 413.091 164.152 412.888C163.778 412.685 163.485 412.403 163.272 412.04C163.058 411.677 162.952 411.261 162.952 410.792C162.952 410.333 163.058 409.939 163.272 409.608C163.496 409.267 163.821 408.995 164.248 408.792C164.674 408.589 165.186 408.472 165.784 408.44L167.864 408.312V407.752C167.864 407.347 167.794 407.021 167.656 406.776C167.528 406.52 167.336 406.333 167.08 406.216C166.834 406.088 166.53 406.024 166.168 406.024C165.709 406.024 165.314 406.109 164.984 406.28C164.653 406.451 164.397 406.637 164.216 406.84L163.448 406.072C163.725 405.731 164.104 405.453 164.584 405.24C165.064 405.016 165.602 404.904 166.2 404.904C166.925 404.904 167.501 405.027 167.928 405.272C168.354 405.517 168.658 405.848 168.84 406.264C169.032 406.669 169.128 407.123 169.128 407.624V413H167.928V411.656H167.832C167.629 412.125 167.33 412.499 166.936 412.776C166.541 413.053 166.045 413.192 165.448 413.192ZM165.64 412.104C166.301 412.104 166.834 411.912 167.24 411.528C167.656 411.133 167.864 410.611 167.864 409.96V409.272L165.848 409.416C165.325 409.459 164.925 409.592 164.648 409.816C164.381 410.04 164.248 410.355 164.248 410.76C164.248 411.165 164.376 411.491 164.632 411.736C164.898 411.981 165.234 412.104 165.64 412.104ZM175.548 415.96V405.096H176.764V406.712H176.86C177.041 406.168 177.382 405.731 177.884 405.4C178.385 405.069 178.961 404.904 179.612 404.904C180.316 404.904 180.929 405.085 181.452 405.448C181.974 405.8 182.38 406.291 182.668 406.92C182.966 407.549 183.116 408.264 183.116 409.064C183.116 409.864 182.966 410.573 182.668 411.192C182.38 411.811 181.974 412.301 181.452 412.664C180.929 413.016 180.316 413.192 179.612 413.192C178.961 413.192 178.401 413.037 177.932 412.728C177.462 412.419 177.126 412.024 176.924 411.544H176.828V415.96H175.548ZM179.292 412.04C179.761 412.04 180.182 411.933 180.556 411.72C180.94 411.496 181.244 411.16 181.468 410.712C181.692 410.264 181.804 409.709 181.804 409.048C181.804 408.376 181.692 407.821 181.468 407.384C181.244 406.936 180.94 406.605 180.556 406.392C180.182 406.168 179.761 406.056 179.292 406.056C178.844 406.056 178.433 406.168 178.06 406.392C177.686 406.605 177.388 406.936 177.164 407.384C176.94 407.821 176.828 408.376 176.828 409.048C176.828 409.709 176.94 410.264 177.164 410.712C177.388 411.16 177.686 411.496 178.06 411.72C178.433 411.933 178.844 412.04 179.292 412.04ZM185.173 413V401.4H186.453V413H185.173ZM190.917 413.192C190.437 413.192 190.005 413.091 189.621 412.888C189.247 412.685 188.954 412.403 188.741 412.04C188.527 411.677 188.421 411.261 188.421 410.792C188.421 410.333 188.527 409.939 188.741 409.608C188.965 409.267 189.29 408.995 189.717 408.792C190.143 408.589 190.655 408.472 191.253 408.44L193.333 408.312V407.752C193.333 407.347 193.263 407.021 193.125 406.776C192.997 406.52 192.805 406.333 192.549 406.216C192.303 406.088 191.999 406.024 191.637 406.024C191.178 406.024 190.783 406.109 190.453 406.28C190.122 406.451 189.866 406.637 189.685 406.84L188.917 406.072C189.194 405.731 189.573 405.453 190.053 405.24C190.533 405.016 191.071 404.904 191.669 404.904C192.394 404.904 192.97 405.027 193.397 405.272C193.823 405.517 194.127 405.848 194.309 406.264C194.501 406.669 194.597 407.123 194.597 407.624V413H193.397V411.656H193.301C193.098 412.125 192.799 412.499 192.405 412.776C192.01 413.053 191.514 413.192 190.917 413.192ZM191.109 412.104C191.77 412.104 192.303 411.912 192.709 411.528C193.125 411.133 193.333 410.611 193.333 409.96V409.272L191.317 409.416C190.794 409.459 190.394 409.592 190.117 409.816C189.85 410.04 189.717 410.355 189.717 410.76C189.717 411.165 189.845 411.491 190.101 411.736C190.367 411.981 190.703 412.104 191.109 412.104ZM200.181 413.192C199.327 413.192 198.629 412.995 198.085 412.6C197.541 412.205 197.141 411.693 196.885 411.064C196.639 410.424 196.517 409.752 196.517 409.048C196.517 408.333 196.639 407.661 196.885 407.032C197.13 406.403 197.519 405.891 198.053 405.496C198.597 405.101 199.295 404.904 200.149 404.904C200.81 404.904 201.354 405.016 201.781 405.24C202.218 405.464 202.586 405.763 202.885 406.136L202.085 406.888C201.829 406.611 201.557 406.397 201.269 406.248C200.991 406.088 200.629 406.008 200.181 406.008C199.722 406.008 199.311 406.131 198.949 406.376C198.597 406.621 198.319 406.973 198.117 407.432C197.925 407.88 197.829 408.419 197.829 409.048C197.829 409.987 198.053 410.728 198.501 411.272C198.949 411.816 199.519 412.088 200.213 412.088C200.639 412.088 201.007 412.013 201.317 411.864C201.626 411.704 201.914 411.475 202.181 411.176L202.949 411.944C202.65 412.317 202.271 412.621 201.813 412.856C201.365 413.08 200.821 413.192 200.181 413.192ZM207.745 413.192C206.988 413.192 206.326 413.027 205.761 412.696C205.206 412.365 204.774 411.891 204.465 411.272C204.156 410.643 204.001 409.901 204.001 409.048C204.001 408.376 204.086 407.784 204.257 407.272C204.438 406.749 204.689 406.317 205.009 405.976C205.34 405.624 205.724 405.357 206.161 405.176C206.609 404.995 207.1 404.904 207.633 404.904C208.166 404.904 208.652 404.989 209.089 405.16C209.537 405.331 209.921 405.587 210.241 405.928C210.572 406.259 210.828 406.68 211.009 407.192C211.19 407.693 211.281 408.28 211.281 408.952C211.281 409.037 211.276 409.123 211.265 409.208C211.265 409.293 211.26 409.363 211.249 409.416H205.281C205.292 409.907 205.409 410.355 205.633 410.76C205.857 411.165 206.156 411.491 206.529 411.736C206.913 411.971 207.34 412.088 207.809 412.088C208.374 412.088 208.844 411.976 209.217 411.752C209.59 411.528 209.9 411.256 210.145 410.936L210.913 411.72C210.582 412.168 210.161 412.525 209.649 412.792C209.137 413.059 208.502 413.192 207.745 413.192ZM207.633 405.96C207.132 405.96 206.71 406.077 206.369 406.312C206.028 406.547 205.766 406.845 205.585 407.208C205.414 407.571 205.324 407.949 205.313 408.344H209.937C209.926 407.949 209.83 407.571 209.649 407.208C209.478 406.845 209.222 406.547 208.881 406.312C208.55 406.077 208.134 405.96 207.633 405.96ZM213.344 413V401.4H214.624V406.216H214.72C214.902 405.853 215.163 405.544 215.504 405.288C215.856 405.032 216.294 404.904 216.816 404.904C217.723 404.904 218.438 405.144 218.96 405.624C219.494 406.093 219.76 406.867 219.76 407.944V413H218.48V408.184C218.48 407.373 218.315 406.803 217.984 406.472C217.664 406.131 217.19 405.96 216.56 405.96C215.963 405.96 215.488 406.168 215.136 406.584C214.795 407 214.624 407.608 214.624 408.408V413H213.344ZM225.371 413.192C224.528 413.192 223.824 413.005 223.259 412.632C222.704 412.259 222.288 411.757 222.011 411.128C221.733 410.499 221.595 409.805 221.595 409.048C221.595 408.472 221.669 407.933 221.819 407.432C221.979 406.931 222.213 406.493 222.523 406.12C222.843 405.736 223.237 405.437 223.707 405.224C224.187 405.011 224.741 404.904 225.371 404.904C226.213 404.904 226.907 405.091 227.451 405.464C228.005 405.837 228.416 406.339 228.683 406.968C228.96 407.587 229.099 408.28 229.099 409.048C229.099 409.624 229.019 410.163 228.859 410.664C228.709 411.165 228.48 411.608 228.171 411.992C227.861 412.365 227.472 412.659 227.003 412.872C226.544 413.085 226 413.192 225.371 413.192ZM222.907 409.048C222.907 409.656 222.997 410.195 223.179 410.664C223.36 411.123 223.632 411.485 223.995 411.752C224.357 412.008 224.816 412.136 225.371 412.136C225.915 412.136 226.363 412.008 226.715 411.752C227.077 411.485 227.344 411.123 227.515 410.664C227.696 410.195 227.787 409.656 227.787 409.048C227.787 408.44 227.696 407.907 227.515 407.448C227.344 406.979 227.077 406.616 226.715 406.36C226.363 406.093 225.915 405.96 225.371 405.96C224.816 405.96 224.357 406.093 223.995 406.36C223.632 406.616 223.36 406.979 223.179 407.448C222.997 407.907 222.907 408.44 222.907 409.048ZM231.157 413V401.4H232.437V413H231.157ZM238.005 413.192C237.301 413.192 236.688 413.011 236.165 412.648C235.642 412.285 235.232 411.795 234.933 411.176C234.645 410.547 234.501 409.832 234.501 409.032C234.501 408.232 234.645 407.523 234.933 406.904C235.232 406.275 235.642 405.784 236.165 405.432C236.688 405.08 237.301 404.904 238.005 404.904C238.656 404.904 239.216 405.059 239.685 405.368C240.154 405.677 240.49 406.072 240.693 406.552H240.789V401.4H242.069V413H240.853V411.384H240.757C240.576 411.928 240.234 412.365 239.733 412.696C239.232 413.027 238.656 413.192 238.005 413.192ZM238.325 412.04C238.784 412.04 239.194 411.933 239.557 411.72C239.93 411.496 240.229 411.16 240.453 410.712C240.677 410.264 240.789 409.709 240.789 409.048C240.789 408.376 240.677 407.821 240.453 407.384C240.229 406.936 239.93 406.605 239.557 406.392C239.194 406.168 238.784 406.056 238.325 406.056C237.856 406.056 237.429 406.168 237.045 406.392C236.672 406.605 236.373 406.936 236.149 407.384C235.925 407.821 235.813 408.376 235.813 409.048C235.813 409.709 235.925 410.264 236.149 410.712C236.373 411.16 236.672 411.496 237.045 411.72C237.429 411.933 237.856 412.04 238.325 412.04ZM247.87 413.192C247.113 413.192 246.451 413.027 245.886 412.696C245.331 412.365 244.899 411.891 244.59 411.272C244.281 410.643 244.126 409.901 244.126 409.048C244.126 408.376 244.211 407.784 244.382 407.272C244.563 406.749 244.814 406.317 245.134 405.976C245.465 405.624 245.849 405.357 246.286 405.176C246.734 404.995 247.225 404.904 247.758 404.904C248.291 404.904 248.777 404.989 249.214 405.16C249.662 405.331 250.046 405.587 250.366 405.928C250.697 406.259 250.953 406.68 251.134 407.192C251.315 407.693 251.406 408.28 251.406 408.952C251.406 409.037 251.401 409.123 251.39 409.208C251.39 409.293 251.385 409.363 251.374 409.416H245.406C245.417 409.907 245.534 410.355 245.758 410.76C245.982 411.165 246.281 411.491 246.654 411.736C247.038 411.971 247.465 412.088 247.934 412.088C248.499 412.088 248.969 411.976 249.342 411.752C249.715 411.528 250.025 411.256 250.27 410.936L251.038 411.72C250.707 412.168 250.286 412.525 249.774 412.792C249.262 413.059 248.627 413.192 247.87 413.192ZM247.758 405.96C247.257 405.96 246.835 406.077 246.494 406.312C246.153 406.547 245.891 406.845 245.71 407.208C245.539 407.571 245.449 407.949 245.438 408.344H250.062C250.051 407.949 249.955 407.571 249.774 407.208C249.603 406.845 249.347 406.547 249.006 406.312C248.675 406.077 248.259 405.96 247.758 405.96ZM253.469 413V405.096H254.685V406.376H254.781C254.952 405.96 255.197 405.613 255.517 405.336C255.848 405.048 256.248 404.904 256.717 404.904C256.909 404.904 257.096 404.925 257.277 404.968C257.469 405 257.64 405.059 257.789 405.144L257.357 406.296C257.219 406.221 257.069 406.173 256.909 406.152C256.76 406.12 256.605 406.104 256.445 406.104C255.923 406.104 255.507 406.317 255.197 406.744C254.899 407.16 254.749 407.693 254.749 408.344V413H253.469ZM258.984 411.304C259.283 411.304 259.518 411.411 259.688 411.624C259.859 411.837 259.944 412.093 259.944 412.392C259.944 412.723 259.875 413.043 259.736 413.352C259.598 413.672 259.4 413.976 259.144 414.264C258.888 414.563 258.584 414.845 258.232 415.112L257.736 414.584C257.95 414.381 258.142 414.157 258.312 413.912C258.483 413.667 258.616 413.395 258.712 413.096C258.499 413.043 258.328 412.936 258.2 412.776C258.083 412.605 258.024 412.419 258.024 412.216C258.024 412.045 258.062 411.896 258.136 411.768C258.222 411.629 258.334 411.517 258.472 411.432C258.622 411.347 258.792 411.304 258.984 411.304ZM104.805 437V429.096H106.021V430.376H106.117C106.288 429.96 106.533 429.613 106.853 429.336C107.184 429.048 107.584 428.904 108.053 428.904C108.245 428.904 108.432 428.925 108.613 428.968C108.805 429 108.976 429.059 109.125 429.144L108.693 430.296C108.555 430.221 108.405 430.173 108.245 430.152C108.096 430.12 107.941 430.104 107.781 430.104C107.259 430.104 106.843 430.317 106.533 430.744C106.235 431.16 106.085 431.693 106.085 432.344V437H104.805ZM113.471 437.192C112.714 437.192 112.053 437.027 111.487 436.696C110.933 436.365 110.501 435.891 110.191 435.272C109.882 434.643 109.727 433.901 109.727 433.048C109.727 432.376 109.813 431.784 109.983 431.272C110.165 430.749 110.415 430.317 110.735 429.976C111.066 429.624 111.45 429.357 111.887 429.176C112.335 428.995 112.826 428.904 113.359 428.904C113.893 428.904 114.378 428.989 114.815 429.16C115.263 429.331 115.647 429.587 115.967 429.928C116.298 430.259 116.554 430.68 116.735 431.192C116.917 431.693 117.007 432.28 117.007 432.952C117.007 433.037 117.002 433.123 116.991 433.208C116.991 433.293 116.986 433.363 116.975 433.416H111.007C111.018 433.907 111.135 434.355 111.359 434.76C111.583 435.165 111.882 435.491 112.255 435.736C112.639 435.971 113.066 436.088 113.535 436.088C114.101 436.088 114.57 435.976 114.943 435.752C115.317 435.528 115.626 435.256 115.871 434.936L116.639 435.72C116.309 436.168 115.887 436.525 115.375 436.792C114.863 437.059 114.229 437.192 113.471 437.192ZM113.359 429.96C112.858 429.96 112.437 430.077 112.095 430.312C111.754 430.547 111.493 430.845 111.311 431.208C111.141 431.571 111.05 431.949 111.039 432.344H115.663C115.653 431.949 115.557 431.571 115.375 431.208C115.205 430.845 114.949 430.547 114.607 430.312C114.277 430.077 113.861 429.96 113.359 429.96ZM119.071 439.96V429.096H120.287V430.712H120.383C120.564 430.168 120.906 429.731 121.407 429.4C121.908 429.069 122.484 428.904 123.135 428.904C123.839 428.904 124.452 429.085 124.975 429.448C125.498 429.8 125.903 430.291 126.191 430.92C126.49 431.549 126.639 432.264 126.639 433.064C126.639 433.864 126.49 434.573 126.191 435.192C125.903 435.811 125.498 436.301 124.975 436.664C124.452 437.016 123.839 437.192 123.135 437.192C122.484 437.192 121.924 437.037 121.455 436.728C120.986 436.419 120.65 436.024 120.447 435.544H120.351V439.96H119.071ZM122.815 436.04C123.284 436.04 123.706 435.933 124.079 435.72C124.463 435.496 124.767 435.16 124.991 434.712C125.215 434.264 125.327 433.709 125.327 433.048C125.327 432.376 125.215 431.821 124.991 431.384C124.767 430.936 124.463 430.605 124.079 430.392C123.706 430.168 123.284 430.056 122.815 430.056C122.367 430.056 121.956 430.168 121.583 430.392C121.21 430.605 120.911 430.936 120.687 431.384C120.463 431.821 120.351 432.376 120.351 433.048C120.351 433.709 120.463 434.264 120.687 434.712C120.911 435.16 121.21 435.496 121.583 435.72C121.956 435.933 122.367 436.04 122.815 436.04ZM128.696 437V425.4H129.976V437H128.696ZM134.44 437.192C133.96 437.192 133.528 437.091 133.144 436.888C132.771 436.685 132.477 436.403 132.264 436.04C132.051 435.677 131.944 435.261 131.944 434.792C131.944 434.333 132.051 433.939 132.264 433.608C132.488 433.267 132.813 432.995 133.24 432.792C133.667 432.589 134.179 432.472 134.776 432.44L136.856 432.312V431.752C136.856 431.347 136.787 431.021 136.648 430.776C136.52 430.52 136.328 430.333 136.072 430.216C135.827 430.088 135.523 430.024 135.16 430.024C134.701 430.024 134.307 430.109 133.976 430.28C133.645 430.451 133.389 430.637 133.208 430.84L132.44 430.072C132.717 429.731 133.096 429.453 133.576 429.24C134.056 429.016 134.595 428.904 135.192 428.904C135.917 428.904 136.493 429.027 136.92 429.272C137.347 429.517 137.651 429.848 137.832 430.264C138.024 430.669 138.12 431.123 138.12 431.624V437H136.92V435.656H136.824C136.621 436.125 136.323 436.499 135.928 436.776C135.533 437.053 135.037 437.192 134.44 437.192ZM134.632 436.104C135.293 436.104 135.827 435.912 136.232 435.528C136.648 435.133 136.856 434.611 136.856 433.96V433.272L134.84 433.416C134.317 433.459 133.917 433.592 133.64 433.816C133.373 434.04 133.24 434.355 133.24 434.76C133.24 435.165 133.368 435.491 133.624 435.736C133.891 435.981 134.227 436.104 134.632 436.104ZM143.704 437.192C142.851 437.192 142.152 436.995 141.608 436.6C141.064 436.205 140.664 435.693 140.408 435.064C140.163 434.424 140.04 433.752 140.04 433.048C140.04 432.333 140.163 431.661 140.408 431.032C140.653 430.403 141.043 429.891 141.576 429.496C142.12 429.101 142.819 428.904 143.672 428.904C144.333 428.904 144.877 429.016 145.304 429.24C145.741 429.464 146.109 429.763 146.408 430.136L145.608 430.888C145.352 430.611 145.08 430.397 144.792 430.248C144.515 430.088 144.152 430.008 143.704 430.008C143.245 430.008 142.835 430.131 142.472 430.376C142.12 430.621 141.843 430.973 141.64 431.432C141.448 431.88 141.352 432.419 141.352 433.048C141.352 433.987 141.576 434.728 142.024 435.272C142.472 435.816 143.043 436.088 143.736 436.088C144.163 436.088 144.531 436.013 144.84 435.864C145.149 435.704 145.437 435.475 145.704 435.176L146.472 435.944C146.173 436.317 145.795 436.621 145.336 436.856C144.888 437.08 144.344 437.192 143.704 437.192ZM151.268 437.192C150.511 437.192 149.85 437.027 149.284 436.696C148.73 436.365 148.298 435.891 147.988 435.272C147.679 434.643 147.524 433.901 147.524 433.048C147.524 432.376 147.61 431.784 147.78 431.272C147.962 430.749 148.212 430.317 148.532 429.976C148.863 429.624 149.247 429.357 149.684 429.176C150.132 428.995 150.623 428.904 151.156 428.904C151.69 428.904 152.175 428.989 152.612 429.16C153.06 429.331 153.444 429.587 153.764 429.928C154.095 430.259 154.351 430.68 154.532 431.192C154.714 431.693 154.804 432.28 154.804 432.952C154.804 433.037 154.799 433.123 154.788 433.208C154.788 433.293 154.783 433.363 154.772 433.416H148.804C148.815 433.907 148.932 434.355 149.156 434.76C149.38 435.165 149.679 435.491 150.052 435.736C150.436 435.971 150.863 436.088 151.332 436.088C151.898 436.088 152.367 435.976 152.74 435.752C153.114 435.528 153.423 435.256 153.668 434.936L154.436 435.72C154.106 436.168 153.684 436.525 153.172 436.792C152.66 437.059 152.026 437.192 151.268 437.192ZM151.156 429.96C150.655 429.96 150.234 430.077 149.892 430.312C149.551 430.547 149.29 430.845 149.108 431.208C148.938 431.571 148.847 431.949 148.836 432.344H153.46C153.45 431.949 153.354 431.571 153.172 431.208C153.002 430.845 152.746 430.547 152.404 430.312C152.074 430.077 151.658 429.96 151.156 429.96ZM160.712 437V429.096H161.928V430.344H162.024C162.216 429.928 162.482 429.587 162.824 429.32C163.176 429.043 163.613 428.904 164.136 428.904C164.765 428.904 165.298 429.021 165.736 429.256C166.173 429.48 166.493 429.821 166.696 430.28C166.856 429.981 167.048 429.731 167.272 429.528C167.496 429.325 167.762 429.171 168.072 429.064C168.392 428.957 168.749 428.904 169.144 428.904C169.73 428.904 170.237 429.011 170.664 429.224C171.09 429.427 171.421 429.752 171.656 430.2C171.89 430.648 172.008 431.229 172.008 431.944V437H170.728V432.184C170.728 431.64 170.653 431.208 170.504 430.888C170.365 430.557 170.157 430.323 169.88 430.184C169.613 430.035 169.277 429.96 168.872 429.96C168.285 429.96 167.826 430.168 167.496 430.584C167.165 431 167 431.608 167 432.408V437H165.72V432.184C165.72 431.64 165.65 431.208 165.512 430.888C165.373 430.557 165.165 430.323 164.888 430.184C164.61 430.035 164.269 429.96 163.864 429.96C163.288 429.96 162.829 430.168 162.488 430.584C162.157 431 161.992 431.608 161.992 432.408V437H160.712ZM177.675 437.192C176.917 437.192 176.256 437.027 175.691 436.696C175.136 436.365 174.704 435.891 174.395 435.272C174.085 434.643 173.931 433.901 173.931 433.048C173.931 432.376 174.016 431.784 174.187 431.272C174.368 430.749 174.619 430.317 174.939 429.976C175.269 429.624 175.653 429.357 176.091 429.176C176.539 428.995 177.029 428.904 177.563 428.904C178.096 428.904 178.581 428.989 179.019 429.16C179.467 429.331 179.851 429.587 180.171 429.928C180.501 430.259 180.757 430.68 180.939 431.192C181.12 431.693 181.211 432.28 181.211 432.952C181.211 433.037 181.205 433.123 181.195 433.208C181.195 433.293 181.189 433.363 181.179 433.416H175.211C175.221 433.907 175.339 434.355 175.563 434.76C175.787 435.165 176.085 435.491 176.459 435.736C176.843 435.971 177.269 436.088 177.739 436.088C178.304 436.088 178.773 435.976 179.147 435.752C179.52 435.528 179.829 435.256 180.075 434.936L180.843 435.72C180.512 436.168 180.091 436.525 179.579 436.792C179.067 437.059 178.432 437.192 177.675 437.192ZM177.563 429.96C177.061 429.96 176.64 430.077 176.299 430.312C175.957 430.547 175.696 430.845 175.515 431.208C175.344 431.571 175.253 431.949 175.243 432.344H179.867C179.856 431.949 179.76 431.571 179.579 431.208C179.408 430.845 179.152 430.547 178.811 430.312C178.48 430.077 178.064 429.96 177.563 429.96ZM188.878 437L186.19 429.096H187.566L189.566 435.672H189.662L191.518 429.096H193.038L194.894 435.672H194.99L196.99 429.096H198.27L195.582 437H194.142L192.286 430.456H192.19L190.35 437H188.878ZM200.055 437V429.096H201.335V437H200.055ZM200.695 427.816C200.429 427.816 200.221 427.736 200.071 427.576C199.922 427.416 199.847 427.224 199.847 427C199.847 426.787 199.922 426.6 200.071 426.44C200.221 426.269 200.429 426.184 200.695 426.184C200.951 426.184 201.154 426.269 201.303 426.44C201.463 426.6 201.543 426.787 201.543 427C201.543 427.224 201.463 427.416 201.303 427.576C201.154 427.736 200.951 427.816 200.695 427.816ZM206.487 437.192C206.018 437.192 205.629 437.096 205.319 436.904C205.01 436.712 204.781 436.435 204.631 436.072C204.493 435.709 204.423 435.283 204.423 434.792V430.136H203.015V429.096H204.423V426.952H205.687V429.096H207.975V430.136H205.687V434.68C205.687 435.192 205.783 435.549 205.975 435.752C206.178 435.955 206.434 436.056 206.743 436.056C206.957 436.056 207.149 436.019 207.319 435.944C207.49 435.859 207.65 435.747 207.799 435.608L208.375 436.504C208.13 436.739 207.847 436.909 207.527 437.016C207.218 437.133 206.871 437.192 206.487 437.192ZM210.118 437V425.4H211.398V430.216H211.494C211.675 429.853 211.936 429.544 212.278 429.288C212.63 429.032 213.067 428.904 213.59 428.904C214.496 428.904 215.211 429.144 215.734 429.624C216.267 430.093 216.534 430.867 216.534 431.944V437H215.254V432.184C215.254 431.373 215.088 430.803 214.758 430.472C214.438 430.131 213.963 429.96 213.334 429.96C212.736 429.96 212.262 430.168 211.91 430.584C211.568 431 211.398 431.608 211.398 432.408V437H210.118ZM225.876 437.192C225.022 437.192 224.324 436.995 223.78 436.6C223.236 436.205 222.836 435.693 222.58 435.064C222.334 434.424 222.212 433.752 222.212 433.048C222.212 432.333 222.334 431.661 222.58 431.032C222.825 430.403 223.214 429.891 223.748 429.496C224.292 429.101 224.99 428.904 225.844 428.904C226.505 428.904 227.049 429.016 227.476 429.24C227.913 429.464 228.281 429.763 228.58 430.136L227.78 430.888C227.524 430.611 227.252 430.397 226.964 430.248C226.686 430.088 226.324 430.008 225.876 430.008C225.417 430.008 225.006 430.131 224.644 430.376C224.292 430.621 224.014 430.973 223.812 431.432C223.62 431.88 223.524 432.419 223.524 433.048C223.524 433.987 223.748 434.728 224.196 435.272C224.644 435.816 225.214 436.088 225.908 436.088C226.334 436.088 226.702 436.013 227.012 435.864C227.321 435.704 227.609 435.475 227.876 435.176L228.644 435.944C228.345 436.317 227.966 436.621 227.508 436.856C227.06 437.08 226.516 437.192 225.876 437.192ZM233.472 437.192C232.63 437.192 231.926 437.005 231.36 436.632C230.806 436.259 230.39 435.757 230.112 435.128C229.835 434.499 229.696 433.805 229.696 433.048C229.696 432.472 229.771 431.933 229.92 431.432C230.08 430.931 230.315 430.493 230.624 430.12C230.944 429.736 231.339 429.437 231.808 429.224C232.288 429.011 232.843 428.904 233.472 428.904C234.315 428.904 235.008 429.091 235.552 429.464C236.107 429.837 236.518 430.339 236.784 430.968C237.062 431.587 237.2 432.28 237.2 433.048C237.2 433.624 237.12 434.163 236.96 434.664C236.811 435.165 236.582 435.608 236.272 435.992C235.963 436.365 235.574 436.659 235.104 436.872C234.646 437.085 234.102 437.192 233.472 437.192ZM231.008 433.048C231.008 433.656 231.099 434.195 231.28 434.664C231.462 435.123 231.734 435.485 232.096 435.752C232.459 436.008 232.918 436.136 233.472 436.136C234.016 436.136 234.464 436.008 234.816 435.752C235.179 435.485 235.446 435.123 235.616 434.664C235.798 434.195 235.888 433.656 235.888 433.048C235.888 432.44 235.798 431.907 235.616 431.448C235.446 430.979 235.179 430.616 234.816 430.36C234.464 430.093 234.016 429.96 233.472 429.96C232.918 429.96 232.459 430.093 232.096 430.36C231.734 430.616 231.462 430.979 231.28 431.448C231.099 431.907 231.008 432.44 231.008 433.048ZM239.258 437V429.096H240.474V430.344H240.57C240.698 430.067 240.864 429.821 241.066 429.608C241.269 429.384 241.509 429.213 241.786 429.096C242.064 428.968 242.378 428.904 242.73 428.904C243.637 428.904 244.352 429.144 244.874 429.624C245.408 430.093 245.674 430.867 245.674 431.944V437H244.394V432.184C244.394 431.373 244.229 430.803 243.898 430.472C243.578 430.131 243.104 429.96 242.474 429.96C241.877 429.96 241.402 430.168 241.05 430.584C240.709 431 240.538 431.608 240.538 432.408V437H239.258ZM250.675 437.192C250.205 437.192 249.816 437.096 249.507 436.904C249.197 436.712 248.968 436.435 248.819 436.072C248.68 435.709 248.611 435.283 248.611 434.792V430.136H247.203V429.096H248.611V426.952H249.875V429.096H252.163V430.136H249.875V434.68C249.875 435.192 249.971 435.549 250.163 435.752C250.365 435.955 250.621 436.056 250.931 436.056C251.144 436.056 251.336 436.019 251.507 435.944C251.677 435.859 251.837 435.747 251.987 435.608L252.563 436.504C252.317 436.739 252.035 436.909 251.715 437.016C251.405 437.133 251.059 437.192 250.675 437.192ZM257.268 437.192C256.511 437.192 255.85 437.027 255.284 436.696C254.73 436.365 254.298 435.891 253.988 435.272C253.679 434.643 253.524 433.901 253.524 433.048C253.524 432.376 253.61 431.784 253.78 431.272C253.962 430.749 254.212 430.317 254.532 429.976C254.863 429.624 255.247 429.357 255.684 429.176C256.132 428.995 256.623 428.904 257.156 428.904C257.69 428.904 258.175 428.989 258.612 429.16C259.06 429.331 259.444 429.587 259.764 429.928C260.095 430.259 260.351 430.68 260.532 431.192C260.714 431.693 260.804 432.28 260.804 432.952C260.804 433.037 260.799 433.123 260.788 433.208C260.788 433.293 260.783 433.363 260.772 433.416H254.804C254.815 433.907 254.932 434.355 255.156 434.76C255.38 435.165 255.679 435.491 256.052 435.736C256.436 435.971 256.863 436.088 257.332 436.088C257.898 436.088 258.367 435.976 258.74 435.752C259.114 435.528 259.423 435.256 259.668 434.936L260.436 435.72C260.106 436.168 259.684 436.525 259.172 436.792C258.66 437.059 258.026 437.192 257.268 437.192ZM257.156 429.96C256.655 429.96 256.234 430.077 255.892 430.312C255.551 430.547 255.29 430.845 255.108 431.208C254.938 431.571 254.847 431.949 254.836 432.344H259.46C259.45 431.949 259.354 431.571 259.172 431.208C259.002 430.845 258.746 430.547 258.404 430.312C258.074 430.077 257.658 429.96 257.156 429.96ZM262.868 437V429.096H264.084V430.344H264.18C264.308 430.067 264.473 429.821 264.676 429.608C264.878 429.384 265.118 429.213 265.396 429.096C265.673 428.968 265.988 428.904 266.34 428.904C267.246 428.904 267.961 429.144 268.484 429.624C269.017 430.093 269.284 430.867 269.284 431.944V437H268.004V432.184C268.004 431.373 267.838 430.803 267.508 430.472C267.188 430.131 266.713 429.96 266.084 429.96C265.486 429.96 265.012 430.168 264.66 430.584C264.318 431 264.148 431.608 264.148 432.408V437H262.868ZM274.284 437.192C273.815 437.192 273.426 437.096 273.116 436.904C272.807 436.712 272.578 436.435 272.428 436.072C272.29 435.709 272.22 435.283 272.22 434.792V430.136H270.812V429.096H272.22V426.952H273.484V429.096H275.772V430.136H273.484V434.68C273.484 435.192 273.58 435.549 273.772 435.752C273.975 435.955 274.231 436.056 274.54 436.056C274.754 436.056 274.946 436.019 275.116 435.944C275.287 435.859 275.447 435.747 275.596 435.608L276.172 436.504C275.927 436.739 275.644 436.909 275.324 437.016C275.015 437.133 274.668 437.192 274.284 437.192Z" fill="black" fill-opacity="0.64"/>
<rect width="360" height="16" transform="translate(10 534)" fill="white"/>
<rect width="360" height="16" transform="translate(10 534)" fill="white" fill-opacity="0.01"/>
</g>
</g>
<defs>
<filter id="filter0_ddd_25442_17607" x="0" y="0" width="380" height="558" filterUnits="userSpaceOnUse" color-interpolation-filters="sRGB">
<feFlood flood-opacity="0" result="BackgroundImageFix"/>
<feColorMatrix in="SourceAlpha" type="matrix" values="0 0 0 0 0 0 0 0 0 0 0 0 0 0 0 0 0 0 127 0" result="hardAlpha"/>
<feOffset dy="-4"/>
<feGaussianBlur stdDeviation="3"/>
<feColorMatrix type="matrix" values="0 0 0 0 0 0 0 0 0 0 0 0 0 0 0 0 0 0 0.01 0"/>
<feBlend mode="normal" in2="BackgroundImageFix" result="effect1_dropShadow_25442_17607"/>
<feColorMatrix in="SourceAlpha" type="matrix" values="0 0 0 0 0 0 0 0 0 0 0 0 0 0 0 0 0 0 127 0" result="hardAlpha"/>
<feMorphology radius="2" operator="erode" in="SourceAlpha" result="effect2_dropShadow_25442_17607"/>
<feOffset dy="-2"/>
<feGaussianBlur stdDeviation="6"/>
<feColorMatrix type="matrix" values="0 0 0 0 0 0 0 0 0 0 0 0 0 0 0 0 0 0 0.03 0"/>
<feBlend mode="normal" in2="effect1_dropShadow_25442_17607" result="effect2_dropShadow_25442_17607"/>
<feColorMatrix in="SourceAlpha" type="matrix" values="0 0 0 0 0 0 0 0 0 0 0 0 0 0 0 0 0 0 127 0" result="hardAlpha"/>
<feOffset dy="-3"/>
<feGaussianBlur stdDeviation="3"/>
<feColorMatrix type="matrix" values="0 0 0 0 0 0 0 0 0 0 0 0 0 0 0 0 0 0 0.02 0"/>
<feBlend mode="normal" in2="effect2_dropShadow_25442_17607" result="effect3_dropShadow_25442_17607"/>
<feBlend mode="normal" in="SourceGraphic" in2="effect3_dropShadow_25442_17607" result="shape"/>
</filter>
<clipPath id="clip0_25442_17607">
<path d="M10 28C10 19.1635 17.1634 12 26 12H354C362.837 12 370 19.1634 370 28V550H10V28Z" fill="white"/>
</clipPath>
<pattern id="pattern0_25442_17607" patternUnits="userSpaceOnUse" patternTransform="matrix(170 0 0 170 0 0)" preserveAspectRatio="none" viewBox="0 0 170 170" width="1" height="1">
<g id="pattern0_25442_17607_inner">
<rect width="85" height="85" fill="black"/>
<rect y="85" width="85" height="85" fill="white"/>
<rect x="85" width="85" height="85" fill="white"/>
<rect x="85" y="85" width="85" height="85" fill="black"/>
</g>
</pattern></defs>
</svg>
