<svg width="380" height="640" viewBox="0 0 380 640" fill="none" xmlns="http://www.w3.org/2000/svg">
<g filter="url(#filter0_ddd_25453_8260)">
<g clip-path="url(#clip0_25453_8260)">
<path d="M10 28C10 19.1634 17.1634 12 26 12H354C362.837 12 370 19.1634 370 28V632H10V28Z" fill="white"/>
<rect width="360" height="80" transform="translate(10 12)" fill="white"/>
<rect x="10" y="28" width="156" height="4" fill="white" fill-opacity="0.01"/>
<rect opacity="0.5" x="174" y="28" width="32" height="4" rx="2" fill="#79747E"/>
<rect x="214" y="28" width="156" height="4" fill="white" fill-opacity="0.01"/>
<rect x="10" y="32" width="360" height="16" fill="white" fill-opacity="0.01"/>
<g clip-path="url(#clip1_25453_8260)">
<path d="M28.9438 66.0688C28.5288 65.7558 28.0195 65.5938 27.5 65.6094V63.6406C28.3869 63.6235 29.256 63.8902 29.9806 64.4019C30.4015 64.713 30.9143 64.8747 31.4375 64.8613C31.9567 64.8748 32.4653 64.713 32.8812 64.4019C33.6103 63.8892 34.4839 63.6225 35.375 63.6406C36.2662 63.6216 37.1401 63.8883 37.8688 64.4019C38.2851 64.712 38.7934 64.8738 39.3125 64.8613C39.8317 64.8748 40.3403 64.713 40.7563 64.4019C41.4869 63.8925 42.3594 63.6261 43.25 63.6406V65.6094C42.7268 65.5959 42.214 65.7576 41.7931 66.0688C41.0685 66.5804 40.1994 66.8472 39.3125 66.83C38.4215 66.8472 37.5482 66.5806 36.8187 66.0688C36.4024 65.7586 35.8941 65.5969 35.375 65.6094C34.8558 65.5958 34.3472 65.7577 33.9313 66.0688C33.203 66.5831 32.3288 66.85 31.4375 66.83C30.5465 66.8472 29.6732 66.5806 28.9438 66.0688V66.0688ZM44.2344 54.4531V51.5H42.2656V54.4531H37.5406L37.9606 58.3906C37.1187 58.1589 36.2481 58.0484 35.375 58.0625C31.8312 58.0625 28.9569 59.9 28.5106 62.42L30.4531 62.7613C30.7287 61.2256 32.8681 60.0313 35.375 60.0313C37.8819 60.0313 40.0081 61.2256 40.2706 62.7613L42.2131 62.42C42.0818 61.7905 41.8216 61.195 41.4489 60.6709C41.0762 60.1469 40.5991 59.7056 40.0475 59.375L39.7325 56.4219H46.295L45.2188 68.5625C45.2121 68.6449 45.1747 68.7218 45.1138 68.7777C45.053 68.8337 44.9733 68.8646 44.8906 68.8644H42.1475C42.207 68.5175 42.2378 68.1663 42.2394 67.8144H40.2706C40.2706 69.3369 40.2706 70.1769 35.3488 70.1769C30.4269 70.1769 30.4269 69.3369 30.4269 67.8144H28.4581C28.4581 71.4763 30.7812 72.1456 35.3488 72.1456C38.1706 72.1456 40.1262 71.8831 41.2156 70.8331H44.8906C45.4627 70.8422 46.017 70.635 46.4429 70.2529C46.8687 69.8709 47.1347 69.3422 47.1875 68.7725L48.5 54.4531H44.2344Z" fill="black" fill-opacity="0.76"/>
</g>
<path d="M66.96 69V56H72.6L75.22 64.3H75.34L77.96 56H83.5V69H79.76V60.7H79.64L76.94 69H73.44L70.74 60.7H70.62V69H66.96ZM90.057 69.24C88.9237 69.24 87.9637 69.0133 87.177 68.56C86.3904 68.0933 85.797 67.4733 85.397 66.7C84.997 65.9133 84.797 65.0333 84.797 64.06C84.797 63.3133 84.9037 62.6267 85.117 62C85.3304 61.3733 85.6437 60.8267 86.057 60.36C86.4837 59.88 87.017 59.5133 87.657 59.26C88.3104 59.0067 89.0637 58.88 89.917 58.88C90.757 58.88 91.4904 59.0067 92.117 59.26C92.7437 59.5133 93.2637 59.8733 93.677 60.34C94.0904 60.7933 94.397 61.3333 94.597 61.96C94.797 62.5733 94.897 63.2533 94.897 64C94.897 64.1733 94.877 64.3733 94.837 64.6C94.8104 64.8267 94.777 65 94.737 65.12H88.417C88.4837 65.4133 88.6104 65.6533 88.797 65.84C88.9837 66.0267 89.2104 66.1667 89.477 66.26C89.757 66.34 90.037 66.38 90.317 66.38C90.717 66.38 91.0704 66.32 91.377 66.2C91.6837 66.08 91.9237 65.9267 92.097 65.74L94.077 67.76C93.7304 68.2133 93.197 68.5733 92.477 68.84C91.757 69.1067 90.9504 69.24 90.057 69.24ZM89.877 61.46C89.6237 61.46 89.3904 61.52 89.177 61.64C88.977 61.7467 88.8104 61.9133 88.677 62.14C88.5437 62.3533 88.457 62.62 88.417 62.94H91.337C91.297 62.6067 91.2037 62.3333 91.057 62.12C90.9237 61.9067 90.757 61.7467 90.557 61.64C90.3704 61.52 90.1437 61.46 89.877 61.46ZM96.0583 69V59.12H99.5783V60.78H99.6983C99.8183 60.42 100.025 60.1 100.318 59.82C100.625 59.5267 100.978 59.3 101.378 59.14C101.792 58.9667 102.225 58.88 102.678 58.88C103.945 58.88 104.825 59.2133 105.318 59.88C105.812 60.5467 106.058 61.5333 106.058 62.84V69H102.298V63.82C102.298 63.2067 102.205 62.7533 102.018 62.46C101.845 62.1667 101.532 62.02 101.078 62.02C100.625 62.02 100.298 62.16 100.098 62.44C99.9116 62.7067 99.8183 63.14 99.8183 63.74V69H96.0583ZM110.86 69.24C109.967 69.24 109.28 69.0733 108.8 68.74C108.334 68.4067 108.007 67.9267 107.82 67.3C107.647 66.6733 107.56 65.92 107.56 65.04V59.12H111.32V64.3C111.32 64.6333 111.347 64.94 111.4 65.22C111.454 65.4867 111.56 65.7 111.72 65.86C111.88 66.02 112.12 66.1 112.44 66.1C112.907 66.1 113.22 65.9533 113.38 65.66C113.54 65.3533 113.62 64.9267 113.62 64.38V59.12H117.38V69H113.88V67.34H113.76C113.574 67.8733 113.207 68.3267 112.66 68.7C112.127 69.06 111.527 69.24 110.86 69.24Z" fill="black" fill-opacity="0.76"/>
<path d="M26.96 115.6H31.312C32.208 115.6 32.976 115.744 33.616 116.032C34.256 116.32 34.784 116.709 35.2 117.2C35.616 117.68 35.92 118.235 36.112 118.864C36.304 119.483 36.4 120.128 36.4 120.8C36.4 121.472 36.304 122.123 36.112 122.752C35.92 123.371 35.616 123.92 35.2 124.4C34.7947 124.88 34.272 125.269 33.632 125.568C33.0027 125.856 32.24 126 31.344 126H26.96V115.6ZM31.184 123.872C31.952 123.872 32.5493 123.6 32.976 123.056C33.4133 122.512 33.632 121.765 33.632 120.816C33.632 119.835 33.4133 119.077 32.976 118.544C32.5387 118 31.936 117.728 31.168 117.728H29.664V123.872H31.184ZM37.8168 118.096H40.2008V119.456H40.2968C40.4568 118.965 40.7074 118.587 41.0488 118.32C41.4008 118.043 41.8434 117.904 42.3768 117.904C42.7928 117.904 43.1661 117.957 43.4968 118.064L42.8568 120.4C42.7394 120.325 42.6008 120.272 42.4408 120.24C42.2914 120.197 42.1421 120.176 41.9928 120.176C41.5128 120.176 41.1181 120.315 40.8088 120.592C40.5101 120.859 40.3608 121.285 40.3608 121.872V126H37.8168V118.096ZM47.0836 115.824C47.0836 116.187 46.961 116.512 46.7156 116.8C46.4703 117.077 46.113 117.216 45.6436 117.216C45.1636 117.216 44.8063 117.077 44.5716 116.8C44.337 116.512 44.2196 116.187 44.2196 115.824C44.2196 115.461 44.337 115.141 44.5716 114.864C44.8063 114.576 45.1636 114.432 45.6436 114.432C46.113 114.432 46.4703 114.576 46.7156 114.864C46.961 115.141 47.0836 115.461 47.0836 115.824ZM44.3636 118.096H46.9076V126H44.3636V118.096ZM48.598 118.096H50.982V119.408H51.078C51.238 118.971 51.526 118.613 51.942 118.336C52.3687 118.048 52.854 117.904 53.398 117.904C53.9207 117.904 54.358 117.979 54.71 118.128C55.0727 118.267 55.3607 118.475 55.574 118.752C55.7873 119.029 55.9367 119.376 56.022 119.792C56.118 120.197 56.166 120.661 56.166 121.184V126H53.622V121.696C53.622 121.195 53.5367 120.8 53.366 120.512C53.1953 120.213 52.8753 120.064 52.406 120.064C51.958 120.064 51.6327 120.203 51.43 120.48C51.238 120.757 51.142 121.163 51.142 121.696V126H48.598V118.096ZM60.3295 126H57.7855V114.4H60.3295V121.376H60.4255L62.9535 118.096H65.7535L62.8575 121.52L65.9135 126H62.9055L61.0975 123.104L60.3295 124.048V126ZM70.5768 123.616C70.5768 123.392 70.4221 123.237 70.1128 123.152C69.8034 123.056 69.3768 122.949 68.8328 122.832C68.5234 122.768 68.2301 122.677 67.9528 122.56C67.6754 122.432 67.4301 122.277 67.2168 122.096C67.0034 121.904 66.8328 121.675 66.7048 121.408C66.5768 121.141 66.5128 120.821 66.5128 120.448C66.5128 120.043 66.5981 119.685 66.7688 119.376C66.9394 119.056 67.1741 118.789 67.4728 118.576C67.7821 118.352 68.1448 118.187 68.5608 118.08C68.9768 117.963 69.4354 117.904 69.9368 117.904C70.7261 117.904 71.3874 118.016 71.9208 118.24C72.4541 118.464 72.8488 118.731 73.1048 119.04L71.7768 120.48C71.5848 120.277 71.3341 120.112 71.0248 119.984C70.7154 119.856 70.4114 119.792 70.1128 119.792C69.8354 119.792 69.5954 119.84 69.3928 119.936C69.1901 120.021 69.0888 120.176 69.0888 120.4C69.0888 120.624 69.2434 120.784 69.5528 120.88C69.8621 120.965 70.2888 121.067 70.8328 121.184C71.1421 121.248 71.4354 121.344 71.7128 121.472C71.9901 121.589 72.2354 121.744 72.4488 121.936C72.6621 122.117 72.8328 122.347 72.9608 122.624C73.0888 122.891 73.1528 123.205 73.1528 123.568C73.1528 123.984 73.0674 124.357 72.8968 124.688C72.7261 125.008 72.4861 125.28 72.1768 125.504C71.8674 125.728 71.4941 125.899 71.0568 126.016C70.6301 126.133 70.1608 126.192 69.6488 126.192C68.8061 126.192 68.0968 126.085 67.5208 125.872C66.9448 125.648 66.5181 125.371 66.2408 125.04L67.5048 123.6C67.7501 123.845 68.0541 124.027 68.4168 124.144C68.7794 124.251 69.1421 124.304 69.5048 124.304C69.8461 124.304 70.1074 124.245 70.2888 124.128C70.4808 124.011 70.5768 123.84 70.5768 123.616Z" fill="black" fill-opacity="0.76"/>
<path d="M31.6 178.192C30.8853 178.192 30.2347 178.059 29.648 177.792C29.0613 177.515 28.56 177.136 28.144 176.656C27.728 176.165 27.4027 175.589 27.168 174.928C26.944 174.267 26.832 173.547 26.832 172.768C26.832 171.968 26.9493 171.237 27.184 170.576C27.4187 169.915 27.744 169.349 28.16 168.88C28.576 168.411 29.072 168.048 29.648 167.792C30.224 167.536 30.8533 167.408 31.536 167.408C32.3253 167.408 33.0187 167.547 33.616 167.824C34.2133 168.091 34.7307 168.464 35.168 168.944L34.304 169.792C33.9947 169.419 33.6 169.131 33.12 168.928C32.6507 168.715 32.144 168.608 31.6 168.608C31.0987 168.608 30.64 168.709 30.224 168.912C29.8187 169.115 29.4667 169.403 29.168 169.776C28.8693 170.139 28.6347 170.576 28.464 171.088C28.304 171.6 28.224 172.16 28.224 172.768C28.224 173.365 28.3093 173.92 28.48 174.432C28.6507 174.944 28.8853 175.392 29.184 175.776C29.4827 176.149 29.84 176.448 30.256 176.672C30.672 176.885 31.1307 176.992 31.632 176.992C32.176 176.992 32.6987 176.891 33.2 176.688C33.7013 176.475 34.1067 176.165 34.416 175.76L35.28 176.608C34.864 177.12 34.3307 177.515 33.68 177.792C33.04 178.059 32.3467 178.192 31.6 178.192ZM40.2144 178.192C39.585 178.192 39.0304 178.085 38.5504 177.872C38.081 177.648 37.6864 177.349 37.3664 176.976C37.057 176.603 36.8224 176.165 36.6624 175.664C36.513 175.163 36.4384 174.624 36.4384 174.048C36.4384 173.472 36.513 172.933 36.6624 172.432C36.8224 171.931 37.057 171.493 37.3664 171.12C37.6864 170.747 38.081 170.453 38.5504 170.24C39.0304 170.016 39.585 169.904 40.2144 169.904C40.8437 169.904 41.3877 170.016 41.8464 170.24C42.3157 170.453 42.705 170.747 43.0144 171.12C43.3237 171.493 43.553 171.931 43.7024 172.432C43.8624 172.933 43.9424 173.472 43.9424 174.048C43.9424 174.624 43.8624 175.163 43.7024 175.664C43.553 176.165 43.3237 176.603 43.0144 176.976C42.705 177.349 42.3157 177.648 41.8464 177.872C41.3877 178.085 40.8437 178.192 40.2144 178.192ZM37.7504 174.048C37.7504 174.507 37.7984 174.928 37.8944 175.312C38.001 175.685 38.1557 176.011 38.3584 176.288C38.561 176.555 38.817 176.763 39.1264 176.912C39.4357 177.061 39.7984 177.136 40.2144 177.136C40.6197 177.136 40.9717 177.061 41.2704 176.912C41.5797 176.763 41.8304 176.555 42.0224 176.288C42.225 176.011 42.3744 175.685 42.4704 175.312C42.577 174.928 42.6304 174.507 42.6304 174.048C42.6304 173.589 42.577 173.173 42.4704 172.8C42.3744 172.416 42.225 172.091 42.0224 171.824C41.8304 171.547 41.5797 171.333 41.2704 171.184C40.9717 171.035 40.6197 170.96 40.2144 170.96C39.7984 170.96 39.4357 171.035 39.1264 171.184C38.817 171.333 38.561 171.547 38.3584 171.824C38.1557 172.091 38.001 172.416 37.8944 172.8C37.7984 173.173 37.7504 173.589 37.7504 174.048ZM49.0086 178.192C48.3686 178.192 47.814 178.075 47.3446 177.84C46.886 177.605 46.5073 177.296 46.2086 176.912C45.91 176.528 45.6913 176.091 45.5526 175.6C45.414 175.099 45.3446 174.581 45.3446 174.048C45.3446 173.515 45.414 173.003 45.5526 172.512C45.6913 172.011 45.9046 171.568 46.1926 171.184C46.4913 170.8 46.87 170.491 47.3286 170.256C47.7873 170.021 48.3366 169.904 48.9766 169.904C49.6486 169.904 50.198 170.016 50.6246 170.24C51.0513 170.464 51.414 170.763 51.7126 171.136L50.9126 171.888C50.6566 171.611 50.3846 171.397 50.0966 171.248C49.8193 171.088 49.4566 171.008 49.0086 171.008C48.3046 171.008 47.734 171.28 47.2966 171.824C46.87 172.357 46.6566 173.099 46.6566 174.048C46.6566 174.517 46.7153 174.939 46.8326 175.312C46.95 175.685 47.1153 176.005 47.3286 176.272C47.542 176.539 47.7926 176.741 48.0806 176.88C48.3686 177.019 48.6886 177.088 49.0406 177.088C49.4673 177.088 49.8353 177.013 50.1446 176.864C50.454 176.704 50.742 176.475 51.0086 176.176L51.7766 176.944C51.4673 177.317 51.0886 177.621 50.6406 177.856C50.1926 178.08 49.6486 178.192 49.0086 178.192ZM55.3853 178.192C55.0226 178.192 54.6866 178.133 54.3773 178.016C54.0786 177.899 53.8173 177.733 53.5933 177.52C53.3693 177.307 53.1933 177.056 53.0653 176.768C52.9479 176.469 52.8893 176.144 52.8893 175.792C52.8893 175.109 53.1346 174.56 53.6253 174.144C54.1159 173.728 54.8146 173.493 55.7213 173.44L57.8013 173.312V172.752C57.8013 172.144 57.6519 171.707 57.3533 171.44C57.0653 171.163 56.6493 171.024 56.1053 171.024C55.6466 171.024 55.2519 171.109 54.9213 171.28C54.5906 171.451 54.3346 171.637 54.1533 171.84L53.3853 171.072C53.6626 170.731 54.0359 170.453 54.5053 170.24C54.9853 170.016 55.5293 169.904 56.1373 169.904C56.6813 169.904 57.1399 169.979 57.5133 170.128C57.8866 170.267 58.1853 170.459 58.4093 170.704C58.6439 170.949 58.8093 171.237 58.9053 171.568C59.0119 171.899 59.0653 172.251 59.0653 172.624V178H57.8653V176.656H57.7693C57.5559 177.136 57.2573 177.515 56.8733 177.792C56.4893 178.059 55.9933 178.192 55.3853 178.192ZM55.5773 177.104C56.2386 177.104 56.7719 176.912 57.1773 176.528C57.5933 176.133 57.8013 175.611 57.8013 174.96V174.272L55.7853 174.416C54.7186 174.501 54.1853 174.949 54.1853 175.76C54.1853 176.165 54.3133 176.491 54.5693 176.736C54.8359 176.981 55.1719 177.104 55.5773 177.104ZM69.725 178.192C69.0103 178.192 68.3597 178.059 67.773 177.792C67.1863 177.515 66.685 177.136 66.269 176.656C65.853 176.165 65.5277 175.589 65.293 174.928C65.069 174.267 64.957 173.547 64.957 172.768C64.957 171.968 65.0743 171.237 65.309 170.576C65.5437 169.915 65.869 169.349 66.285 168.88C66.701 168.411 67.197 168.048 67.773 167.792C68.349 167.536 68.9783 167.408 69.661 167.408C70.4503 167.408 71.1437 167.547 71.741 167.824C72.3383 168.091 72.8557 168.464 73.293 168.944L72.429 169.792C72.1197 169.419 71.725 169.131 71.245 168.928C70.7757 168.715 70.269 168.608 69.725 168.608C69.2237 168.608 68.765 168.709 68.349 168.912C67.9437 169.115 67.5917 169.403 67.293 169.776C66.9943 170.139 66.7597 170.576 66.589 171.088C66.429 171.6 66.349 172.16 66.349 172.768C66.349 173.365 66.4343 173.92 66.605 174.432C66.7757 174.944 67.0103 175.392 67.309 175.776C67.6077 176.149 67.965 176.448 68.381 176.672C68.797 176.885 69.2557 176.992 69.757 176.992C70.301 176.992 70.8237 176.891 71.325 176.688C71.8263 176.475 72.2317 176.165 72.541 175.76L73.405 176.608C72.989 177.12 72.4557 177.515 71.805 177.792C71.165 178.059 70.4717 178.192 69.725 178.192ZM78.3394 178.192C77.71 178.192 77.1554 178.085 76.6754 177.872C76.206 177.648 75.8114 177.349 75.4914 176.976C75.182 176.603 74.9474 176.165 74.7874 175.664C74.638 175.163 74.5634 174.624 74.5634 174.048C74.5634 173.472 74.638 172.933 74.7874 172.432C74.9474 171.931 75.182 171.493 75.4914 171.12C75.8114 170.747 76.206 170.453 76.6754 170.24C77.1554 170.016 77.71 169.904 78.3394 169.904C78.9687 169.904 79.5127 170.016 79.9714 170.24C80.4407 170.453 80.83 170.747 81.1394 171.12C81.4487 171.493 81.678 171.931 81.8274 172.432C81.9874 172.933 82.0674 173.472 82.0674 174.048C82.0674 174.624 81.9874 175.163 81.8274 175.664C81.678 176.165 81.4487 176.603 81.1394 176.976C80.83 177.349 80.4407 177.648 79.9714 177.872C79.5127 178.085 78.9687 178.192 78.3394 178.192ZM75.8754 174.048C75.8754 174.507 75.9234 174.928 76.0194 175.312C76.126 175.685 76.2807 176.011 76.4834 176.288C76.686 176.555 76.942 176.763 77.2514 176.912C77.5607 177.061 77.9234 177.136 78.3394 177.136C78.7447 177.136 79.0967 177.061 79.3954 176.912C79.7047 176.763 79.9554 176.555 80.1474 176.288C80.35 176.011 80.4994 175.685 80.5954 175.312C80.702 174.928 80.7554 174.507 80.7554 174.048C80.7554 173.589 80.702 173.173 80.5954 172.8C80.4994 172.416 80.35 172.091 80.1474 171.824C79.9554 171.547 79.7047 171.333 79.3954 171.184C79.0967 171.035 78.7447 170.96 78.3394 170.96C77.9234 170.96 77.5607 171.035 77.2514 171.184C76.942 171.333 76.686 171.547 76.4834 171.824C76.2807 172.091 76.126 172.416 76.0194 172.8C75.9234 173.173 75.8754 173.589 75.8754 174.048ZM84.1256 166.4H85.4056V178H84.1256V166.4ZM89.8696 178.192C89.507 178.192 89.171 178.133 88.8616 178.016C88.563 177.899 88.3016 177.733 88.0776 177.52C87.8536 177.307 87.6776 177.056 87.5496 176.768C87.4323 176.469 87.3736 176.144 87.3736 175.792C87.3736 175.109 87.619 174.56 88.1096 174.144C88.6003 173.728 89.299 173.493 90.2056 173.44L92.2856 173.312V172.752C92.2856 172.144 92.1363 171.707 91.8376 171.44C91.5496 171.163 91.1336 171.024 90.5896 171.024C90.131 171.024 89.7363 171.109 89.4056 171.28C89.075 171.451 88.819 171.637 88.6376 171.84L87.8696 171.072C88.147 170.731 88.5203 170.453 88.9896 170.24C89.4696 170.016 90.0136 169.904 90.6216 169.904C91.1656 169.904 91.6243 169.979 91.9976 170.128C92.371 170.267 92.6696 170.459 92.8936 170.704C93.1283 170.949 93.2936 171.237 93.3896 171.568C93.4963 171.899 93.5496 172.251 93.5496 172.624V178H92.3496V176.656H92.2536C92.0403 177.136 91.7416 177.515 91.3576 177.792C90.9736 178.059 90.4776 178.192 89.8696 178.192ZM90.0616 177.104C90.723 177.104 91.2563 176.912 91.6616 176.528C92.0776 176.133 92.2856 175.611 92.2856 174.96V174.272L90.2696 174.416C89.203 174.501 88.6696 174.949 88.6696 175.76C88.6696 176.165 88.7976 176.491 89.0536 176.736C89.3203 176.981 89.6563 177.104 90.0616 177.104Z" fill="black" fill-opacity="0.76"/>
<path d="M312.523 173.444H309.835V172.492H312.523V169.678H313.643V172.492H316.331V173.444H313.643V176.37H312.523V173.444ZM317.949 175.992H319.041V172.968H317.949V171.988H319.041V170.616C319.041 169.683 319.27 168.969 319.727 168.474C320.185 167.979 320.861 167.732 321.757 167.732C322.28 167.732 322.728 167.825 323.101 168.012C323.475 168.189 323.769 168.413 323.983 168.684L323.269 169.44C323.101 169.225 322.887 169.057 322.625 168.936C322.364 168.815 322.075 168.754 321.757 168.754C321.272 168.754 320.894 168.885 320.623 169.146C320.362 169.407 320.231 169.869 320.231 170.532V171.988H322.611V172.968H320.231V175.992H322.527C322.901 175.992 323.171 175.922 323.339 175.782C323.517 175.642 323.657 175.432 323.759 175.152L324.697 175.544C324.557 176.048 324.315 176.417 323.969 176.65C323.633 176.883 323.185 177 322.625 177H317.949V175.992ZM330.356 175.124H326.114V174.186L330.132 167.9H331.462L327.43 174.116H330.356V171.372H331.504V174.116H332.764V175.124H331.504V177H330.356V175.124ZM335.461 177.168C335.2 177.168 334.994 177.084 334.845 176.916C334.696 176.748 334.621 176.557 334.621 176.342C334.621 176.118 334.696 175.927 334.845 175.768C334.994 175.6 335.2 175.516 335.461 175.516C335.732 175.516 335.937 175.6 336.077 175.768C336.226 175.927 336.301 176.118 336.301 176.342C336.301 176.557 336.226 176.748 336.077 176.916C335.937 177.084 335.732 177.168 335.461 177.168ZM341.033 177.168C340.389 177.168 339.866 177.075 339.465 176.888C339.064 176.692 338.728 176.445 338.457 176.146L339.157 175.404C339.39 175.647 339.652 175.829 339.941 175.95C340.24 176.071 340.59 176.132 340.991 176.132C341.71 176.132 342.279 175.81 342.699 175.166C343.128 174.513 343.343 173.551 343.343 172.282H343.259C343.082 172.665 342.806 172.991 342.433 173.262C342.06 173.523 341.584 173.654 341.005 173.654C340.65 173.654 340.305 173.593 339.969 173.472C339.633 173.351 339.334 173.169 339.073 172.926C338.812 172.683 338.597 172.385 338.429 172.03C338.27 171.675 338.191 171.265 338.191 170.798C338.191 170.369 338.256 169.967 338.387 169.594C338.527 169.221 338.728 168.899 338.989 168.628C339.25 168.348 339.572 168.129 339.955 167.97C340.338 167.811 340.772 167.732 341.257 167.732C342.302 167.732 343.096 168.105 343.637 168.852C344.188 169.589 344.463 170.7 344.463 172.184C344.463 173.799 344.155 175.035 343.539 175.894C342.923 176.743 342.088 177.168 341.033 177.168ZM341.243 172.632C341.822 172.632 342.274 172.464 342.601 172.128C342.928 171.783 343.091 171.316 343.091 170.728C343.091 170.159 342.928 169.692 342.601 169.328C342.284 168.955 341.831 168.768 341.243 168.768C340.655 168.768 340.202 168.955 339.885 169.328C339.568 169.692 339.409 170.159 339.409 170.728C339.409 171.316 339.568 171.783 339.885 172.128C340.212 172.464 340.664 172.632 341.243 172.632ZM349.805 177.168C349.227 177.168 348.727 177.047 348.307 176.804C347.897 176.561 347.556 176.23 347.285 175.81C347.024 175.381 346.828 174.881 346.697 174.312C346.576 173.733 346.515 173.113 346.515 172.45C346.515 171.787 346.576 171.171 346.697 170.602C346.828 170.023 347.024 169.524 347.285 169.104C347.556 168.675 347.897 168.339 348.307 168.096C348.727 167.853 349.227 167.732 349.805 167.732C350.384 167.732 350.879 167.853 351.289 168.096C351.709 168.339 352.05 168.675 352.311 169.104C352.582 169.524 352.778 170.023 352.899 170.602C353.03 171.171 353.095 171.787 353.095 172.45C353.095 173.113 353.03 173.733 352.899 174.312C352.778 174.881 352.582 175.381 352.311 175.81C352.05 176.23 351.709 176.561 351.289 176.804C350.879 177.047 350.384 177.168 349.805 177.168ZM349.805 176.16C350.151 176.16 350.454 176.076 350.715 175.908C350.977 175.731 351.191 175.483 351.359 175.166C351.537 174.839 351.667 174.447 351.751 173.99C351.835 173.533 351.877 173.019 351.877 172.45C351.877 171.881 351.835 171.367 351.751 170.91C351.667 170.453 351.537 170.065 351.359 169.748C351.191 169.421 350.977 169.174 350.715 169.006C350.454 168.829 350.151 168.74 349.805 168.74C349.46 168.74 349.157 168.829 348.895 169.006C348.643 169.174 348.429 169.421 348.251 169.748C348.083 170.065 347.953 170.453 347.859 170.91C347.775 171.367 347.733 171.881 347.733 172.45C347.733 173.019 347.775 173.533 347.859 173.99C347.953 174.447 348.083 174.839 348.251 175.166C348.429 175.483 348.643 175.731 348.895 175.908C349.157 176.076 349.46 176.16 349.805 176.16Z" fill="black" fill-opacity="0.64"/>
<rect width="360" height="1" transform="translate(10 195)" fill="black" fill-opacity="0.08"/>
<path d="M30.416 230.192C29.4453 230.192 28.624 230.043 27.952 229.744C27.2907 229.435 26.736 229.013 26.288 228.48L28.032 226.864C28.1813 227.024 28.3307 227.173 28.48 227.312C28.64 227.44 28.8107 227.557 28.992 227.664C29.184 227.771 29.392 227.856 29.616 227.92C29.8507 227.973 30.112 228 30.4 228C30.8373 228 31.1947 227.915 31.472 227.744C31.7493 227.573 31.888 227.312 31.888 226.96C31.888 226.789 31.8347 226.645 31.728 226.528C31.632 226.411 31.4827 226.309 31.28 226.224C31.0773 226.128 30.8213 226.037 30.512 225.952C30.2133 225.867 29.8613 225.765 29.456 225.648C29.0933 225.541 28.7413 225.413 28.4 225.264C28.0693 225.115 27.7707 224.923 27.504 224.688C27.248 224.443 27.04 224.149 26.88 223.808C26.72 223.467 26.64 223.056 26.64 222.576C26.64 222.075 26.736 221.632 26.928 221.248C27.1307 220.853 27.408 220.523 27.76 220.256C28.1227 219.979 28.5493 219.771 29.04 219.632C29.5413 219.483 30.096 219.408 30.704 219.408C31.6427 219.408 32.416 219.552 33.024 219.84C33.632 220.128 34.1227 220.512 34.496 220.992L32.768 222.592C32.5227 222.315 32.2453 222.085 31.936 221.904C31.6373 221.712 31.2427 221.616 30.752 221.616C30.3787 221.616 30.0533 221.685 29.776 221.824C29.5093 221.963 29.376 222.203 29.376 222.544C29.376 222.725 29.424 222.875 29.52 222.992C29.6267 223.099 29.7813 223.2 29.984 223.296C30.1867 223.381 30.4373 223.467 30.736 223.552C31.0453 223.637 31.4027 223.739 31.808 223.856C32.1707 223.963 32.5173 224.091 32.848 224.24C33.1893 224.389 33.488 224.587 33.744 224.832C34.0107 225.067 34.224 225.355 34.384 225.696C34.544 226.037 34.624 226.448 34.624 226.928C34.624 227.44 34.5227 227.899 34.32 228.304C34.1173 228.699 33.8293 229.04 33.456 229.328C33.0933 229.605 32.6507 229.819 32.128 229.968C31.616 230.117 31.0453 230.192 30.416 230.192ZM38.2729 230.192C37.9209 230.192 37.5795 230.139 37.2489 230.032C36.9289 229.925 36.6462 229.771 36.4009 229.568C36.1662 229.355 35.9742 229.099 35.8249 228.8C35.6862 228.501 35.6169 228.16 35.6169 227.776C35.6169 227.051 35.8729 226.48 36.3849 226.064C36.9075 225.648 37.7235 225.408 38.8329 225.344L40.5129 225.248V225.12C40.5129 224.896 40.4649 224.715 40.3689 224.576C40.2835 224.437 40.1662 224.331 40.0169 224.256C39.8782 224.171 39.7129 224.112 39.5209 224.08C39.3395 224.048 39.1529 224.032 38.9609 224.032C38.6622 224.032 38.3582 224.085 38.0489 224.192C37.7395 224.299 37.5102 224.448 37.3609 224.64L35.9689 223.2C36.2569 222.837 36.6782 222.533 37.2329 222.288C37.7875 222.032 38.5129 221.904 39.4089 221.904C40.5502 221.904 41.4409 222.165 42.0809 222.688C42.7315 223.211 43.0569 223.963 43.0569 224.944V230H40.6729V228.784H40.5769C40.3742 229.2 40.0809 229.541 39.6969 229.808C39.3235 230.064 38.8489 230.192 38.2729 230.192ZM39.1369 228.464C39.5422 228.464 39.8729 228.357 40.1289 228.144C40.3849 227.92 40.5129 227.584 40.5129 227.136V226.72L39.1849 226.816C38.8435 226.837 38.5875 226.923 38.4169 227.072C38.2569 227.221 38.1769 227.419 38.1769 227.664C38.1769 227.941 38.2675 228.144 38.4489 228.272C38.6409 228.4 38.8702 228.464 39.1369 228.464ZM47.2529 230.192C46.7409 230.192 46.3089 230.123 45.9569 229.984C45.6155 229.835 45.3382 229.621 45.1249 229.344C44.9222 229.067 44.7729 228.725 44.6769 228.32C44.5915 227.915 44.5489 227.445 44.5489 226.912V222.096H47.0929V226.4C47.0929 226.912 47.1729 227.312 47.3329 227.6C47.4929 227.888 47.7969 228.032 48.2449 228.032C48.6715 228.032 48.9755 227.893 49.1569 227.616C49.3489 227.339 49.4449 226.933 49.4449 226.4V222.096H51.9889V230H49.6049V228.688H49.5089C49.3489 229.125 49.0662 229.488 48.6609 229.776C48.2555 230.053 47.7862 230.192 47.2529 230.192ZM57.2278 230.192C56.5344 230.192 55.9371 230.08 55.4358 229.856C54.9451 229.621 54.5344 229.317 54.2038 228.944C53.8838 228.56 53.6438 228.117 53.4838 227.616C53.3344 227.115 53.2598 226.592 53.2598 226.048C53.2598 225.504 53.3344 224.981 53.4838 224.48C53.6331 223.979 53.8678 223.541 54.1878 223.168C54.5078 222.784 54.9131 222.48 55.4038 222.256C55.8944 222.021 56.4811 221.904 57.1638 221.904C57.8038 221.904 58.3691 222.027 58.8598 222.272C59.3504 222.517 59.7451 222.816 60.0438 223.168L58.3318 224.72C58.1931 224.539 58.0331 224.4 57.8518 224.304C57.6704 224.197 57.4518 224.144 57.1958 224.144C56.7478 224.144 56.4118 224.309 56.1878 224.64C55.9638 224.971 55.8518 225.44 55.8518 226.048C55.8518 226.656 55.9691 227.125 56.2038 227.456C56.4384 227.787 56.7798 227.952 57.2278 227.952C57.4731 227.952 57.6971 227.899 57.8998 227.792C58.1131 227.685 58.2784 227.541 58.3958 227.36L60.1078 228.912C59.8198 229.264 59.4251 229.568 58.9238 229.824C58.4331 230.069 57.8678 230.192 57.2278 230.192ZM64.5429 230.192C63.8175 230.192 63.1935 230.075 62.6709 229.84C62.1589 229.605 61.7375 229.296 61.4069 228.912C61.0762 228.528 60.8309 228.091 60.6709 227.6C60.5109 227.099 60.4309 226.581 60.4309 226.048C60.4309 225.525 60.5002 225.013 60.6389 224.512C60.7882 224.011 61.0175 223.568 61.3269 223.184C61.6469 222.8 62.0575 222.491 62.5589 222.256C63.0602 222.021 63.6735 221.904 64.3989 221.904C65.1242 221.904 65.7375 222.021 66.2389 222.256C66.7402 222.48 67.1402 222.784 67.4389 223.168C67.7482 223.541 67.9669 223.973 68.0949 224.464C68.2335 224.955 68.3029 225.461 68.3029 225.984C68.3029 226.101 68.2922 226.256 68.2709 226.448C68.2495 226.629 68.2229 226.768 68.1909 226.864H63.0069C63.0495 227.099 63.1295 227.296 63.2469 227.456C63.3749 227.616 63.5189 227.744 63.6789 227.84C63.8389 227.936 64.0042 228.005 64.1749 228.048C64.3562 228.091 64.5269 228.112 64.6869 228.112C65.0602 228.112 65.3802 228.053 65.6469 227.936C65.9242 227.819 66.1375 227.664 66.2869 227.472L67.6789 228.928C67.4229 229.301 67.0175 229.605 66.4629 229.84C65.9082 230.075 65.2682 230.192 64.5429 230.192ZM64.3989 223.792C64.0575 223.792 63.7535 223.899 63.4869 224.112C63.2202 224.315 63.0442 224.672 62.9589 225.184H65.8069C65.7322 224.672 65.5615 224.315 65.2949 224.112C65.0282 223.899 64.7295 223.792 64.3989 223.792Z" fill="black" fill-opacity="0.76"/>
<path d="M28.832 282H27.472V271.6H28.832V277.232H28.928L33.648 271.6H35.216L31.184 276.384L35.36 282H33.648L30.224 277.28L28.832 278.944V282ZM39.8699 282.192C39.3045 282.192 38.7872 282.096 38.3179 281.904C37.8592 281.712 37.4645 281.44 37.1339 281.088C36.8139 280.725 36.5632 280.288 36.3819 279.776C36.2112 279.264 36.1259 278.688 36.1259 278.048C36.1259 277.376 36.2165 276.784 36.3979 276.272C36.5792 275.749 36.8299 275.317 37.1499 274.976C37.4699 274.624 37.8485 274.357 38.2859 274.176C38.7339 273.995 39.2245 273.904 39.7579 273.904C40.2912 273.904 40.7819 273.989 41.2299 274.16C41.6779 274.331 42.0619 274.587 42.3819 274.928C42.7019 275.259 42.9525 275.68 43.1339 276.192C43.3152 276.693 43.4059 277.28 43.4059 277.952C43.4059 278.037 43.4005 278.123 43.3899 278.208C43.3899 278.293 43.3845 278.363 43.3739 278.416H37.4059C37.4059 278.789 37.4699 279.141 37.5979 279.472C37.7365 279.792 37.9179 280.075 38.1419 280.32C38.3765 280.555 38.6432 280.741 38.9419 280.88C39.2512 281.019 39.5819 281.088 39.9339 281.088C40.5099 281.088 40.9792 280.976 41.3419 280.752C41.7152 280.528 42.0245 280.256 42.2699 279.936L43.0379 280.72C42.6965 281.168 42.2699 281.525 41.7579 281.792C41.2565 282.059 40.6272 282.192 39.8699 282.192ZM39.7579 274.96C39.3845 274.96 39.0539 275.029 38.7659 275.168C38.4779 275.307 38.2379 275.488 38.0459 275.712C37.8539 275.936 37.7045 276.192 37.5979 276.48C37.5019 276.768 37.4485 277.056 37.4379 277.344H42.0619C42.0512 277.056 41.9925 276.768 41.8859 276.48C41.7899 276.192 41.6459 275.936 41.4539 275.712C41.2619 275.488 41.0219 275.307 40.7339 275.168C40.4565 275.029 40.1312 274.96 39.7579 274.96ZM47.9014 282.192C47.1867 282.192 46.664 281.979 46.3334 281.552C46.0027 281.125 45.8374 280.539 45.8374 279.792V275.136H44.4294V274.096H45.8374V271.952H47.1014V274.096H49.3894V275.136H47.1014V279.68C47.1014 280.192 47.1974 280.549 47.3894 280.752C47.592 280.955 47.848 281.056 48.1574 281.056C48.3707 281.056 48.5627 281.019 48.7334 280.944C48.904 280.859 49.064 280.747 49.2134 280.608L49.7894 281.504C49.2987 281.963 48.6694 282.192 47.9014 282.192ZM54.4149 282.192C53.7749 282.192 53.2202 282.075 52.7509 281.84C52.2922 281.605 51.9135 281.296 51.6149 280.912C51.3162 280.528 51.0975 280.091 50.9589 279.6C50.8202 279.099 50.7509 278.581 50.7509 278.048C50.7509 277.515 50.8202 277.003 50.9589 276.512C51.0975 276.011 51.3109 275.568 51.5989 275.184C51.8975 274.8 52.2762 274.491 52.7349 274.256C53.1935 274.021 53.7429 273.904 54.3829 273.904C55.0549 273.904 55.6042 274.016 56.0309 274.24C56.4575 274.464 56.8202 274.763 57.1189 275.136L56.3189 275.888C56.0629 275.611 55.7909 275.397 55.5029 275.248C55.2255 275.088 54.8629 275.008 54.4149 275.008C53.7109 275.008 53.1402 275.28 52.7029 275.824C52.2762 276.357 52.0629 277.099 52.0629 278.048C52.0629 278.517 52.1215 278.939 52.2389 279.312C52.3562 279.685 52.5215 280.005 52.7349 280.272C52.9482 280.539 53.1989 280.741 53.4869 280.88C53.7749 281.019 54.0949 281.088 54.4469 281.088C54.8735 281.088 55.2415 281.013 55.5509 280.864C55.8602 280.704 56.1482 280.475 56.4149 280.176L57.1829 280.944C56.8735 281.317 56.4949 281.621 56.0469 281.856C55.5989 282.08 55.0549 282.192 54.4149 282.192ZM59.0475 270.4H60.3275V275.216H60.4235C60.6048 274.853 60.8662 274.544 61.2075 274.288C61.5488 274.032 61.9862 273.904 62.5195 273.904C63.4262 273.904 64.1408 274.144 64.6635 274.624C65.1968 275.104 65.4635 275.877 65.4635 276.944V282H64.1835V277.184C64.1835 276.373 64.0182 275.803 63.6875 275.472C63.3675 275.131 62.8928 274.96 62.2635 274.96C61.6555 274.96 61.1808 275.168 60.8395 275.584C60.4982 276 60.3275 276.608 60.3275 277.408V282H59.0475V270.4ZM70.6738 282.192C70.2364 282.192 69.8418 282.133 69.4898 282.016C69.1378 281.899 68.8338 281.717 68.5778 281.472C68.3324 281.227 68.1404 280.912 68.0018 280.528C67.8631 280.144 67.7938 279.685 67.7938 279.152V274.096H69.0738V278.912C69.0738 279.723 69.2284 280.299 69.5378 280.64C69.8578 280.971 70.3218 281.136 70.9298 281.136C71.5058 281.136 71.9591 280.928 72.2898 280.512C72.6311 280.096 72.8018 279.488 72.8018 278.688V274.096H74.0818V282H72.8658V280.752H72.7698C72.5778 281.168 72.3111 281.515 71.9698 281.792C71.6391 282.059 71.2071 282.192 70.6738 282.192ZM76.7975 274.096H78.0135V275.712H78.1095C78.2055 275.445 78.3388 275.2 78.5095 274.976C78.6908 274.752 78.8988 274.56 79.1335 274.4C79.3788 274.24 79.6455 274.117 79.9335 274.032C80.2322 273.947 80.5415 273.904 80.8615 273.904C81.3842 273.904 81.8588 274.011 82.2855 274.224C82.7228 274.427 83.0962 274.715 83.4055 275.088C83.7148 275.451 83.9495 275.888 84.1095 276.4C84.2802 276.912 84.3655 277.467 84.3655 278.064C84.3655 278.661 84.2802 279.216 84.1095 279.728C83.9495 280.229 83.7148 280.667 83.4055 281.04C83.0962 281.403 82.7228 281.685 82.2855 281.888C81.8588 282.091 81.3842 282.192 80.8615 282.192C80.2108 282.192 79.6508 282.037 79.1815 281.728C78.7122 281.419 78.3762 281.024 78.1735 280.544H78.0775V284.96H76.7975V274.096ZM80.5415 281.04C80.8935 281.04 81.2188 280.981 81.5175 280.864C81.8268 280.736 82.0935 280.549 82.3175 280.304C82.5522 280.048 82.7335 279.733 82.8615 279.36C82.9895 278.987 83.0535 278.549 83.0535 278.048C83.0535 277.547 82.9895 277.109 82.8615 276.736C82.7335 276.363 82.5522 276.053 82.3175 275.808C82.0935 275.552 81.8268 275.365 81.5175 275.248C81.2188 275.12 80.8935 275.056 80.5415 275.056C80.2002 275.056 79.8802 275.12 79.5815 275.248C79.2828 275.365 79.0215 275.552 78.7975 275.808C78.5735 276.053 78.3975 276.363 78.2695 276.736C78.1415 277.109 78.0775 277.547 78.0775 278.048C78.0775 278.549 78.1415 278.987 78.2695 279.36C78.3975 279.733 78.5735 280.048 78.7975 280.304C79.0215 280.549 79.2828 280.736 79.5815 280.864C79.8802 280.981 80.2002 281.04 80.5415 281.04Z" fill="black" fill-opacity="0.76"/>
<path d="M312.523 277.444H309.835V276.492H312.523V273.678H313.643V276.492H316.331V277.444H313.643V280.37H312.523V277.444ZM317.949 279.992H319.041V276.968H317.949V275.988H319.041V274.616C319.041 273.683 319.27 272.969 319.727 272.474C320.185 271.979 320.861 271.732 321.757 271.732C322.28 271.732 322.728 271.825 323.101 272.012C323.475 272.189 323.769 272.413 323.983 272.684L323.269 273.44C323.101 273.225 322.887 273.057 322.625 272.936C322.364 272.815 322.075 272.754 321.757 272.754C321.272 272.754 320.894 272.885 320.623 273.146C320.362 273.407 320.231 273.869 320.231 274.532V275.988H322.611V276.968H320.231V279.992H322.527C322.901 279.992 323.171 279.922 323.339 279.782C323.517 279.642 323.657 279.432 323.759 279.152L324.697 279.544C324.557 280.048 324.315 280.417 323.969 280.65C323.633 280.883 323.185 281 322.625 281H317.949V279.992ZM330.356 279.124H326.114V278.186L330.132 271.9H331.462L327.43 278.116H330.356V275.372H331.504V278.116H332.764V279.124H331.504V281H330.356V279.124ZM335.461 281.168C335.2 281.168 334.994 281.084 334.845 280.916C334.696 280.748 334.621 280.557 334.621 280.342C334.621 280.118 334.696 279.927 334.845 279.768C334.994 279.6 335.2 279.516 335.461 279.516C335.732 279.516 335.937 279.6 336.077 279.768C336.226 279.927 336.301 280.118 336.301 280.342C336.301 280.557 336.226 280.748 336.077 280.916C335.937 281.084 335.732 281.168 335.461 281.168ZM341.033 281.168C340.389 281.168 339.866 281.075 339.465 280.888C339.064 280.692 338.728 280.445 338.457 280.146L339.157 279.404C339.39 279.647 339.652 279.829 339.941 279.95C340.24 280.071 340.59 280.132 340.991 280.132C341.71 280.132 342.279 279.81 342.699 279.166C343.128 278.513 343.343 277.551 343.343 276.282H343.259C343.082 276.665 342.806 276.991 342.433 277.262C342.06 277.523 341.584 277.654 341.005 277.654C340.65 277.654 340.305 277.593 339.969 277.472C339.633 277.351 339.334 277.169 339.073 276.926C338.812 276.683 338.597 276.385 338.429 276.03C338.27 275.675 338.191 275.265 338.191 274.798C338.191 274.369 338.256 273.967 338.387 273.594C338.527 273.221 338.728 272.899 338.989 272.628C339.25 272.348 339.572 272.129 339.955 271.97C340.338 271.811 340.772 271.732 341.257 271.732C342.302 271.732 343.096 272.105 343.637 272.852C344.188 273.589 344.463 274.7 344.463 276.184C344.463 277.799 344.155 279.035 343.539 279.894C342.923 280.743 342.088 281.168 341.033 281.168ZM341.243 276.632C341.822 276.632 342.274 276.464 342.601 276.128C342.928 275.783 343.091 275.316 343.091 274.728C343.091 274.159 342.928 273.692 342.601 273.328C342.284 272.955 341.831 272.768 341.243 272.768C340.655 272.768 340.202 272.955 339.885 273.328C339.568 273.692 339.409 274.159 339.409 274.728C339.409 275.316 339.568 275.783 339.885 276.128C340.212 276.464 340.664 276.632 341.243 276.632ZM349.805 281.168C349.227 281.168 348.727 281.047 348.307 280.804C347.897 280.561 347.556 280.23 347.285 279.81C347.024 279.381 346.828 278.881 346.697 278.312C346.576 277.733 346.515 277.113 346.515 276.45C346.515 275.787 346.576 275.171 346.697 274.602C346.828 274.023 347.024 273.524 347.285 273.104C347.556 272.675 347.897 272.339 348.307 272.096C348.727 271.853 349.227 271.732 349.805 271.732C350.384 271.732 350.879 271.853 351.289 272.096C351.709 272.339 352.05 272.675 352.311 273.104C352.582 273.524 352.778 274.023 352.899 274.602C353.03 275.171 353.095 275.787 353.095 276.45C353.095 277.113 353.03 277.733 352.899 278.312C352.778 278.881 352.582 279.381 352.311 279.81C352.05 280.23 351.709 280.561 351.289 280.804C350.879 281.047 350.384 281.168 349.805 281.168ZM349.805 280.16C350.151 280.16 350.454 280.076 350.715 279.908C350.977 279.731 351.191 279.483 351.359 279.166C351.537 278.839 351.667 278.447 351.751 277.99C351.835 277.533 351.877 277.019 351.877 276.45C351.877 275.881 351.835 275.367 351.751 274.91C351.667 274.453 351.537 274.065 351.359 273.748C351.191 273.421 350.977 273.174 350.715 273.006C350.454 272.829 350.151 272.74 349.805 272.74C349.46 272.74 349.157 272.829 348.895 273.006C348.643 273.174 348.429 273.421 348.251 273.748C348.083 274.065 347.953 274.453 347.859 274.91C347.775 275.367 347.733 275.881 347.733 276.45C347.733 277.019 347.775 277.533 347.859 277.99C347.953 278.447 348.083 278.839 348.251 279.166C348.429 279.483 348.643 279.731 348.895 279.908C349.157 280.076 349.46 280.16 349.805 280.16Z" fill="black" fill-opacity="0.64"/>
<rect width="360" height="1" transform="translate(10 299)" fill="black" fill-opacity="0.08"/>
<path d="M27.472 319.6H29.296L32.864 328.464H32.96L36.528 319.6H38.384V330H37.104V321.408H37.008L33.584 330H32.24L28.816 321.408H28.72V330H27.472V319.6ZM42.9634 330.192C42.6007 330.192 42.2647 330.133 41.9554 330.016C41.6567 329.899 41.3954 329.733 41.1714 329.52C40.9474 329.307 40.7714 329.056 40.6434 328.768C40.526 328.469 40.4674 328.144 40.4674 327.792C40.4674 327.109 40.7127 326.56 41.2034 326.144C41.694 325.728 42.3927 325.493 43.2994 325.44L45.3794 325.312V324.752C45.3794 324.144 45.23 323.707 44.9314 323.44C44.6434 323.163 44.2274 323.024 43.6834 323.024C43.2247 323.024 42.83 323.109 42.4994 323.28C42.1687 323.451 41.9127 323.637 41.7314 323.84L40.9634 323.072C41.2407 322.731 41.614 322.453 42.0834 322.24C42.5634 322.016 43.1074 321.904 43.7154 321.904C44.2594 321.904 44.718 321.979 45.0914 322.128C45.4647 322.267 45.7634 322.459 45.9874 322.704C46.222 322.949 46.3874 323.237 46.4834 323.568C46.59 323.899 46.6434 324.251 46.6434 324.624V330H45.4434V328.656H45.3474C45.134 329.136 44.8354 329.515 44.4514 329.792C44.0674 330.059 43.5714 330.192 42.9634 330.192ZM43.1554 329.104C43.8167 329.104 44.35 328.912 44.7554 328.528C45.1714 328.133 45.3794 327.611 45.3794 326.96V326.272L43.3634 326.416C42.2967 326.501 41.7634 326.949 41.7634 327.76C41.7634 328.165 41.8914 328.491 42.1474 328.736C42.414 328.981 42.75 329.104 43.1554 329.104ZM49.5591 333.024C49.4418 333.024 49.3191 333.013 49.1911 332.992C49.0738 332.981 48.9725 332.965 48.8871 332.944V331.84C48.9405 331.851 49.0258 331.861 49.1431 331.872C49.2711 331.883 49.3885 331.888 49.4951 331.888C49.7085 331.888 49.8898 331.872 50.0391 331.84C50.1885 331.808 50.3218 331.733 50.4391 331.616C50.5671 331.509 50.6898 331.344 50.8071 331.12C50.9245 330.907 51.0525 330.619 51.1911 330.256L48.0231 322.096H49.4151L51.7991 328.72H51.8951L54.2951 322.096H55.5911L52.4871 330.08C52.2845 330.603 52.0871 331.045 51.8951 331.408C51.7138 331.781 51.5111 332.085 51.2871 332.32C51.0631 332.565 50.8125 332.741 50.5351 332.848C50.2685 332.965 49.9431 333.024 49.5591 333.024ZM60.23 330.192C59.6007 330.192 59.046 330.085 58.566 329.872C58.0967 329.648 57.702 329.349 57.382 328.976C57.0727 328.603 56.838 328.165 56.678 327.664C56.5287 327.163 56.454 326.624 56.454 326.048C56.454 325.472 56.5287 324.933 56.678 324.432C56.838 323.931 57.0727 323.493 57.382 323.12C57.702 322.747 58.0967 322.453 58.566 322.24C59.046 322.016 59.6007 321.904 60.23 321.904C60.8593 321.904 61.4033 322.016 61.862 322.24C62.3313 322.453 62.7207 322.747 63.03 323.12C63.3393 323.493 63.5687 323.931 63.718 324.432C63.878 324.933 63.958 325.472 63.958 326.048C63.958 326.624 63.878 327.163 63.718 327.664C63.5687 328.165 63.3393 328.603 63.03 328.976C62.7207 329.349 62.3313 329.648 61.862 329.872C61.4033 330.085 60.8593 330.192 60.23 330.192ZM57.766 326.048C57.766 326.507 57.814 326.928 57.91 327.312C58.0167 327.685 58.1713 328.011 58.374 328.288C58.5767 328.555 58.8327 328.763 59.142 328.912C59.4513 329.061 59.814 329.136 60.23 329.136C60.6353 329.136 60.9873 329.061 61.286 328.912C61.5953 328.763 61.846 328.555 62.038 328.288C62.2407 328.011 62.39 327.685 62.486 327.312C62.5927 326.928 62.646 326.507 62.646 326.048C62.646 325.589 62.5927 325.173 62.486 324.8C62.39 324.416 62.2407 324.091 62.038 323.824C61.846 323.547 61.5953 323.333 61.286 323.184C60.9873 323.035 60.6353 322.96 60.23 322.96C59.814 322.96 59.4513 323.035 59.142 323.184C58.8327 323.333 58.5767 323.547 58.374 323.824C58.1713 324.091 58.0167 324.416 57.91 324.8C57.814 325.173 57.766 325.589 57.766 326.048ZM66.0163 322.096H67.2323V323.344H67.3283C67.5203 322.928 67.7923 322.587 68.1443 322.32C68.4963 322.043 68.9443 321.904 69.4883 321.904C70.3949 321.904 71.1096 322.144 71.6323 322.624C72.1656 323.104 72.4323 323.877 72.4323 324.944V330H71.1523V325.184C71.1523 324.373 70.9869 323.803 70.6563 323.472C70.3363 323.131 69.8616 322.96 69.2323 322.96C68.6243 322.96 68.1496 323.168 67.8083 323.584C67.4669 324 67.2963 324.608 67.2963 325.408V330H66.0163V322.096ZM75.0006 322.096H76.2166V323.344H76.3126C76.5046 322.928 76.7766 322.587 77.1286 322.32C77.4806 322.043 77.9286 321.904 78.4726 321.904C79.3793 321.904 80.094 322.144 80.6166 322.624C81.15 323.104 81.4166 323.877 81.4166 324.944V330H80.1366V325.184C80.1366 324.373 79.9713 323.803 79.6406 323.472C79.3206 323.131 78.846 322.96 78.2166 322.96C77.6086 322.96 77.134 323.168 76.7926 323.584C76.4513 324 76.2806 324.608 76.2806 325.408V330H75.0006V322.096ZM85.729 330.192C85.3663 330.192 85.0303 330.133 84.721 330.016C84.4223 329.899 84.161 329.733 83.937 329.52C83.713 329.307 83.537 329.056 83.409 328.768C83.2917 328.469 83.233 328.144 83.233 327.792C83.233 327.109 83.4783 326.56 83.969 326.144C84.4597 325.728 85.1583 325.493 86.065 325.44L88.145 325.312V324.752C88.145 324.144 87.9957 323.707 87.697 323.44C87.409 323.163 86.993 323.024 86.449 323.024C85.9903 323.024 85.5957 323.109 85.265 323.28C84.9343 323.451 84.6783 323.637 84.497 323.84L83.729 323.072C84.0063 322.731 84.3797 322.453 84.849 322.24C85.329 322.016 85.873 321.904 86.481 321.904C87.025 321.904 87.4837 321.979 87.857 322.128C88.2303 322.267 88.529 322.459 88.753 322.704C88.9877 322.949 89.153 323.237 89.249 323.568C89.3557 323.899 89.409 324.251 89.409 324.624V330H88.209V328.656H88.113C87.8997 329.136 87.601 329.515 87.217 329.792C86.833 330.059 86.337 330.192 85.729 330.192ZM85.921 329.104C86.5823 329.104 87.1157 328.912 87.521 328.528C87.937 328.133 88.145 327.611 88.145 326.96V326.272L86.129 326.416C85.0623 326.501 84.529 326.949 84.529 327.76C84.529 328.165 84.657 328.491 84.913 328.736C85.1797 328.981 85.5157 329.104 85.921 329.104ZM93.473 320C93.473 320.224 93.393 320.416 93.233 320.576C93.0837 320.736 92.881 320.816 92.625 320.816C92.3583 320.816 92.1503 320.736 92.001 320.576C91.8517 320.416 91.777 320.224 91.777 320C91.777 319.787 91.8517 319.6 92.001 319.44C92.1503 319.269 92.3583 319.184 92.625 319.184C92.881 319.184 93.0837 319.269 93.233 319.44C93.393 319.6 93.473 319.787 93.473 320ZM91.985 322.096H93.265V330H91.985V322.096ZM99.793 327.952C99.793 327.717 99.7397 327.525 99.633 327.376C99.5263 327.216 99.377 327.083 99.185 326.976C99.0037 326.869 98.7957 326.779 98.561 326.704C98.3263 326.629 98.081 326.555 97.825 326.48C97.5263 326.395 97.2383 326.293 96.961 326.176C96.6943 326.059 96.4543 325.915 96.241 325.744C96.0277 325.563 95.857 325.349 95.729 325.104C95.601 324.859 95.537 324.56 95.537 324.208C95.537 323.835 95.6063 323.504 95.745 323.216C95.8837 322.928 96.0757 322.688 96.321 322.496C96.5663 322.304 96.8543 322.16 97.185 322.064C97.5157 321.957 97.873 321.904 98.257 321.904C98.833 321.904 99.361 322.011 99.841 322.224C100.321 322.427 100.716 322.747 101.025 323.184L100.193 323.952C99.9583 323.675 99.681 323.445 99.361 323.264C99.0517 323.083 98.6837 322.992 98.257 322.992C98.0757 322.992 97.8943 323.013 97.713 323.056C97.5423 323.099 97.3877 323.168 97.249 323.264C97.1103 323.349 96.9983 323.461 96.913 323.6C96.8277 323.739 96.785 323.904 96.785 324.096C96.785 324.331 96.8383 324.528 96.945 324.688C97.0517 324.837 97.1957 324.965 97.377 325.072C97.569 325.179 97.7823 325.269 98.017 325.344C98.2517 325.419 98.497 325.493 98.753 325.568C99.0517 325.653 99.3343 325.755 99.601 325.872C99.8783 325.989 100.124 326.139 100.337 326.32C100.55 326.491 100.721 326.699 100.849 326.944C100.977 327.189 101.041 327.488 101.041 327.84C101.041 328.256 100.961 328.613 100.801 328.912C100.652 329.2 100.444 329.44 100.177 329.632C99.9103 329.824 99.601 329.963 99.249 330.048C98.897 330.144 98.5237 330.192 98.129 330.192C97.4357 330.192 96.8437 330.075 96.353 329.84C95.873 329.605 95.4943 329.301 95.217 328.928L96.065 328.128C96.3103 328.416 96.593 328.651 96.913 328.832C97.2437 329.013 97.6543 329.104 98.145 329.104C98.369 329.104 98.577 329.083 98.769 329.04C98.9717 328.997 99.1477 328.928 99.297 328.832C99.4463 328.736 99.5637 328.619 99.649 328.48C99.745 328.331 99.793 328.155 99.793 327.952ZM106.339 330.192C105.773 330.192 105.256 330.096 104.787 329.904C104.328 329.712 103.933 329.44 103.603 329.088C103.283 328.725 103.032 328.288 102.851 327.776C102.68 327.264 102.595 326.688 102.595 326.048C102.595 325.376 102.685 324.784 102.867 324.272C103.048 323.749 103.299 323.317 103.619 322.976C103.939 322.624 104.317 322.357 104.755 322.176C105.203 321.995 105.693 321.904 106.227 321.904C106.76 321.904 107.251 321.989 107.699 322.16C108.147 322.331 108.531 322.587 108.851 322.928C109.171 323.259 109.421 323.68 109.603 324.192C109.784 324.693 109.875 325.28 109.875 325.952C109.875 326.037 109.869 326.123 109.859 326.208C109.859 326.293 109.853 326.363 109.843 326.416H103.875C103.875 326.789 103.939 327.141 104.067 327.472C104.205 327.792 104.387 328.075 104.611 328.32C104.845 328.555 105.112 328.741 105.411 328.88C105.72 329.019 106.051 329.088 106.403 329.088C106.979 329.088 107.448 328.976 107.811 328.752C108.184 328.528 108.493 328.256 108.739 327.936L109.507 328.72C109.165 329.168 108.739 329.525 108.227 329.792C107.725 330.059 107.096 330.192 106.339 330.192ZM106.227 322.96C105.853 322.96 105.523 323.029 105.235 323.168C104.947 323.307 104.707 323.488 104.515 323.712C104.323 323.936 104.173 324.192 104.067 324.48C103.971 324.768 103.917 325.056 103.907 325.344H108.531C108.52 325.056 108.461 324.768 108.355 324.48C108.259 324.192 108.115 323.936 107.923 323.712C107.731 323.488 107.491 323.307 107.203 323.168C106.925 323.029 106.6 322.96 106.227 322.96Z" fill="black" fill-opacity="0.76"/>
<path d="M312.523 325.444H309.835V324.492H312.523V321.678H313.643V324.492H316.331V325.444H313.643V328.37H312.523V325.444ZM317.949 327.992H319.041V324.968H317.949V323.988H319.041V322.616C319.041 321.683 319.27 320.969 319.727 320.474C320.185 319.979 320.861 319.732 321.757 319.732C322.28 319.732 322.728 319.825 323.101 320.012C323.475 320.189 323.769 320.413 323.983 320.684L323.269 321.44C323.101 321.225 322.887 321.057 322.625 320.936C322.364 320.815 322.075 320.754 321.757 320.754C321.272 320.754 320.894 320.885 320.623 321.146C320.362 321.407 320.231 321.869 320.231 322.532V323.988H322.611V324.968H320.231V327.992H322.527C322.901 327.992 323.171 327.922 323.339 327.782C323.517 327.642 323.657 327.432 323.759 327.152L324.697 327.544C324.557 328.048 324.315 328.417 323.969 328.65C323.633 328.883 323.185 329 322.625 329H317.949V327.992ZM330.356 327.124H326.114V326.186L330.132 319.9H331.462L327.43 326.116H330.356V323.372H331.504V326.116H332.764V327.124H331.504V329H330.356V327.124ZM335.461 329.168C335.2 329.168 334.994 329.084 334.845 328.916C334.696 328.748 334.621 328.557 334.621 328.342C334.621 328.118 334.696 327.927 334.845 327.768C334.994 327.6 335.2 327.516 335.461 327.516C335.732 327.516 335.937 327.6 336.077 327.768C336.226 327.927 336.301 328.118 336.301 328.342C336.301 328.557 336.226 328.748 336.077 328.916C335.937 329.084 335.732 329.168 335.461 329.168ZM341.033 329.168C340.389 329.168 339.866 329.075 339.465 328.888C339.064 328.692 338.728 328.445 338.457 328.146L339.157 327.404C339.39 327.647 339.652 327.829 339.941 327.95C340.24 328.071 340.59 328.132 340.991 328.132C341.71 328.132 342.279 327.81 342.699 327.166C343.128 326.513 343.343 325.551 343.343 324.282H343.259C343.082 324.665 342.806 324.991 342.433 325.262C342.06 325.523 341.584 325.654 341.005 325.654C340.65 325.654 340.305 325.593 339.969 325.472C339.633 325.351 339.334 325.169 339.073 324.926C338.812 324.683 338.597 324.385 338.429 324.03C338.27 323.675 338.191 323.265 338.191 322.798C338.191 322.369 338.256 321.967 338.387 321.594C338.527 321.221 338.728 320.899 338.989 320.628C339.25 320.348 339.572 320.129 339.955 319.97C340.338 319.811 340.772 319.732 341.257 319.732C342.302 319.732 343.096 320.105 343.637 320.852C344.188 321.589 344.463 322.7 344.463 324.184C344.463 325.799 344.155 327.035 343.539 327.894C342.923 328.743 342.088 329.168 341.033 329.168ZM341.243 324.632C341.822 324.632 342.274 324.464 342.601 324.128C342.928 323.783 343.091 323.316 343.091 322.728C343.091 322.159 342.928 321.692 342.601 321.328C342.284 320.955 341.831 320.768 341.243 320.768C340.655 320.768 340.202 320.955 339.885 321.328C339.568 321.692 339.409 322.159 339.409 322.728C339.409 323.316 339.568 323.783 339.885 324.128C340.212 324.464 340.664 324.632 341.243 324.632ZM349.805 329.168C349.227 329.168 348.727 329.047 348.307 328.804C347.897 328.561 347.556 328.23 347.285 327.81C347.024 327.381 346.828 326.881 346.697 326.312C346.576 325.733 346.515 325.113 346.515 324.45C346.515 323.787 346.576 323.171 346.697 322.602C346.828 322.023 347.024 321.524 347.285 321.104C347.556 320.675 347.897 320.339 348.307 320.096C348.727 319.853 349.227 319.732 349.805 319.732C350.384 319.732 350.879 319.853 351.289 320.096C351.709 320.339 352.05 320.675 352.311 321.104C352.582 321.524 352.778 322.023 352.899 322.602C353.03 323.171 353.095 323.787 353.095 324.45C353.095 325.113 353.03 325.733 352.899 326.312C352.778 326.881 352.582 327.381 352.311 327.81C352.05 328.23 351.709 328.561 351.289 328.804C350.879 329.047 350.384 329.168 349.805 329.168ZM349.805 328.16C350.151 328.16 350.454 328.076 350.715 327.908C350.977 327.731 351.191 327.483 351.359 327.166C351.537 326.839 351.667 326.447 351.751 325.99C351.835 325.533 351.877 325.019 351.877 324.45C351.877 323.881 351.835 323.367 351.751 322.91C351.667 322.453 351.537 322.065 351.359 321.748C351.191 321.421 350.977 321.174 350.715 321.006C350.454 320.829 350.151 320.74 349.805 320.74C349.46 320.74 349.157 320.829 348.895 321.006C348.643 321.174 348.429 321.421 348.251 321.748C348.083 322.065 347.953 322.453 347.859 322.91C347.775 323.367 347.733 323.881 347.733 324.45C347.733 325.019 347.775 325.533 347.859 325.99C347.953 326.447 348.083 326.839 348.251 327.166C348.429 327.483 348.643 327.731 348.895 327.908C349.157 328.076 349.46 328.16 349.805 328.16Z" fill="black" fill-opacity="0.64"/>
<rect width="360" height="1" transform="translate(10 347)" fill="black" fill-opacity="0.08"/>
<g filter="url(#filter1_ddd_25453_8260)">
<rect width="360" height="80" transform="translate(10 552)" fill="white"/>
<g clip-path="url(#clip2_25453_8260)">
<path d="M109 592C109 578.745 119.745 568 133 568H193C206.255 568 217 578.745 217 592V592C217 605.255 206.255 616 193 616H133C119.745 616 109 605.255 109 592V592Z" fill="white" fill-opacity="0.01"/>
<path d="M140.532 599.24C139.492 599.24 138.578 599.06 137.792 598.7C137.005 598.327 136.345 597.833 135.812 597.22C135.292 596.593 134.892 595.873 134.612 595.06C134.345 594.233 134.212 593.367 134.212 592.46C134.212 591.553 134.345 590.693 134.612 589.88C134.878 589.067 135.272 588.36 135.792 587.76C136.325 587.147 136.978 586.66 137.752 586.3C138.525 585.94 139.418 585.76 140.432 585.76C141.432 585.76 142.312 585.94 143.072 586.3C143.845 586.647 144.505 587.113 145.052 587.7L143.332 589.3C142.985 588.9 142.558 588.593 142.052 588.38C141.545 588.153 141.012 588.04 140.452 588.04C139.945 588.04 139.472 588.147 139.032 588.36C138.605 588.56 138.238 588.853 137.932 589.24C137.625 589.627 137.385 590.093 137.212 590.64C137.038 591.187 136.952 591.8 136.952 592.48C136.952 593.147 137.045 593.753 137.232 594.3C137.418 594.847 137.672 595.32 137.992 595.72C138.312 596.107 138.692 596.413 139.132 596.64C139.572 596.853 140.045 596.96 140.552 596.96C141.112 596.96 141.645 596.853 142.152 596.64C142.672 596.413 143.105 596.093 143.452 595.68L145.152 597.28C144.618 597.88 143.958 598.36 143.172 598.72C142.398 599.067 141.518 599.24 140.532 599.24ZM149.553 599.24C149.113 599.24 148.693 599.167 148.293 599.02C147.907 598.887 147.567 598.693 147.273 598.44C146.98 598.173 146.747 597.853 146.573 597.48C146.413 597.107 146.333 596.687 146.333 596.22C146.333 595.34 146.647 594.64 147.273 594.12C147.9 593.6 148.853 593.307 150.133 593.24L152.453 593.1V592.7C152.453 592.06 152.26 591.62 151.873 591.38C151.487 591.14 151.007 591.02 150.433 591.02C149.98 591.02 149.553 591.107 149.153 591.28C148.753 591.44 148.453 591.64 148.253 591.88L146.833 590.44C147.18 589.987 147.68 589.613 148.333 589.32C149 589.027 149.813 588.88 150.773 588.88C152.187 588.88 153.24 589.207 153.933 589.86C154.627 590.513 154.973 591.4 154.973 592.52V599H152.593V597.42H152.473C152.22 597.98 151.853 598.427 151.373 598.76C150.893 599.08 150.287 599.24 149.553 599.24ZM150.293 597.42C150.933 597.42 151.453 597.24 151.853 596.88C152.253 596.507 152.453 595.987 152.453 595.32V594.66L150.433 594.82C149.393 594.887 148.873 595.327 148.873 596.14C148.873 596.553 149.007 596.873 149.273 597.1C149.54 597.313 149.88 597.42 150.293 597.42ZM157.445 589.12H159.825V590.72H159.945C160.172 590.187 160.525 589.747 161.005 589.4C161.498 589.053 162.085 588.88 162.765 588.88C164.018 588.88 164.918 589.213 165.465 589.88C166.025 590.533 166.305 591.527 166.305 592.86V599H163.785V593.36C163.785 592.56 163.638 591.967 163.345 591.58C163.065 591.193 162.585 591 161.905 591C161.265 591 160.778 591.213 160.445 591.64C160.125 592.053 159.965 592.66 159.965 593.46V599H157.445V589.12ZM172.992 599.24C172.152 599.24 171.425 599.1 170.812 598.82C170.212 598.527 169.718 598.14 169.332 597.66C168.945 597.18 168.658 596.633 168.472 596.02C168.285 595.393 168.192 594.74 168.192 594.06C168.192 593.38 168.278 592.733 168.452 592.12C168.638 591.493 168.918 590.94 169.292 590.46C169.678 589.98 170.172 589.6 170.772 589.32C171.372 589.027 172.085 588.88 172.912 588.88C173.738 588.88 174.438 589.027 175.012 589.32C175.598 589.613 176.078 589.987 176.452 590.44L174.772 591.96C174.545 591.68 174.292 591.467 174.012 591.32C173.732 591.16 173.378 591.08 172.952 591.08C172.258 591.08 171.718 591.347 171.332 591.88C170.945 592.4 170.752 593.127 170.752 594.06C170.752 594.993 170.952 595.727 171.352 596.26C171.752 596.78 172.298 597.04 172.992 597.04C173.405 597.04 173.765 596.96 174.072 596.8C174.378 596.64 174.645 596.413 174.872 596.12L176.532 597.66C176.158 598.113 175.672 598.493 175.072 598.8C174.485 599.093 173.792 599.24 172.992 599.24ZM182.252 599.24C181.426 599.24 180.706 599.107 180.092 598.84C179.479 598.573 178.959 598.207 178.532 597.74C178.119 597.26 177.806 596.707 177.592 596.08C177.392 595.453 177.292 594.78 177.292 594.06C177.292 593.327 177.392 592.647 177.592 592.02C177.792 591.38 178.092 590.833 178.492 590.38C178.892 589.913 179.392 589.547 179.992 589.28C180.592 589.013 181.292 588.88 182.092 588.88C182.892 588.88 183.592 589.007 184.192 589.26C184.792 589.513 185.286 589.867 185.672 590.32C186.059 590.773 186.346 591.313 186.532 591.94C186.732 592.553 186.832 593.227 186.832 593.96C186.832 594.093 186.819 594.247 186.792 594.42C186.779 594.593 186.759 594.733 186.732 594.84H179.852C179.892 595.2 179.986 595.527 180.132 595.82C180.292 596.1 180.486 596.34 180.712 596.54C180.952 596.74 181.212 596.893 181.492 597C181.786 597.093 182.086 597.14 182.392 597.14C182.966 597.14 183.446 597.04 183.832 596.84C184.219 596.64 184.532 596.387 184.772 596.08L186.192 597.56C185.819 598.067 185.299 598.473 184.632 598.78C183.966 599.087 183.172 599.24 182.252 599.24ZM182.092 590.8C181.452 590.8 180.932 591.007 180.532 591.42C180.132 591.833 179.899 592.38 179.832 593.06H184.312C184.246 592.38 184.012 591.833 183.612 591.42C183.226 591.007 182.719 590.8 182.092 590.8ZM188.793 584.5H191.313V599H188.793V584.5Z" fill="#242E30"/>
</g>
<g clip-path="url(#clip3_25453_8260)">
<path d="M233 592C233 578.745 243.745 568 257 568H330C343.255 568 354 578.745 354 592V592C354 605.255 343.255 616 330 616H257C243.745 616 233 605.255 233 592V592Z" fill="#F36805"/>
<path d="M233 592C233 578.745 243.745 568 257 568H330C343.255 568 354 578.745 354 592V592C354 605.255 343.255 616 330 616H257C243.745 616 233 605.255 233 592V592Z" fill="white" fill-opacity="0.01"/>
<path d="M264.508 599.24C263.468 599.24 262.555 599.06 261.768 598.7C260.981 598.327 260.321 597.833 259.788 597.22C259.268 596.593 258.868 595.873 258.588 595.06C258.321 594.233 258.188 593.367 258.188 592.46C258.188 591.553 258.321 590.693 258.588 589.88C258.855 589.067 259.248 588.36 259.768 587.76C260.301 587.147 260.955 586.66 261.728 586.3C262.501 585.94 263.395 585.76 264.408 585.76C265.408 585.76 266.288 585.94 267.048 586.3C267.821 586.647 268.481 587.113 269.028 587.7L267.308 589.3C266.961 588.9 266.535 588.593 266.028 588.38C265.521 588.153 264.988 588.04 264.428 588.04C263.921 588.04 263.448 588.147 263.008 588.36C262.581 588.56 262.215 588.853 261.908 589.24C261.601 589.627 261.361 590.093 261.188 590.64C261.015 591.187 260.928 591.8 260.928 592.48C260.928 593.147 261.021 593.753 261.208 594.3C261.395 594.847 261.648 595.32 261.968 595.72C262.288 596.107 262.668 596.413 263.108 596.64C263.548 596.853 264.021 596.96 264.528 596.96C265.088 596.96 265.621 596.853 266.128 596.64C266.648 596.413 267.081 596.093 267.428 595.68L269.128 597.28C268.595 597.88 267.935 598.36 267.148 598.72C266.375 599.067 265.495 599.24 264.508 599.24ZM274.999 599.24C274.172 599.24 273.446 599.107 272.819 598.84C272.206 598.56 271.686 598.187 271.259 597.72C270.846 597.253 270.532 596.707 270.319 596.08C270.119 595.44 270.019 594.767 270.019 594.06C270.019 593.353 270.119 592.687 270.319 592.06C270.532 591.433 270.846 590.887 271.259 590.42C271.686 589.94 272.206 589.567 272.819 589.3C273.446 589.02 274.172 588.88 274.999 588.88C275.826 588.88 276.546 589.02 277.159 589.3C277.786 589.567 278.299 589.94 278.699 590.42C279.112 590.887 279.419 591.433 279.619 592.06C279.832 592.687 279.939 593.353 279.939 594.06C279.939 594.767 279.832 595.44 279.619 596.08C279.419 596.707 279.112 597.253 278.699 597.72C278.299 598.187 277.786 598.56 277.159 598.84C276.546 599.107 275.826 599.24 274.999 599.24ZM272.599 594.06C272.599 595.033 272.806 595.8 273.219 596.36C273.646 596.92 274.239 597.2 274.999 597.2C275.746 597.2 276.326 596.92 276.739 596.36C277.166 595.8 277.379 595.033 277.379 594.06C277.379 593.087 277.166 592.32 276.739 591.76C276.326 591.2 275.746 590.92 274.999 590.92C274.239 590.92 273.646 591.2 273.219 591.76C272.806 592.32 272.599 593.087 272.599 594.06ZM281.89 589.12H284.27V590.72H284.39C284.617 590.187 284.97 589.747 285.45 589.4C285.944 589.053 286.53 588.88 287.21 588.88C288.464 588.88 289.364 589.213 289.91 589.88C290.47 590.533 290.75 591.527 290.75 592.86V599H288.23V593.36C288.23 592.56 288.084 591.967 287.79 591.58C287.51 591.193 287.03 591 286.35 591C285.71 591 285.224 591.213 284.89 591.64C284.57 592.053 284.41 592.66 284.41 593.46V599H281.89V589.12ZM293.897 591.14H292.337V589.12H293.897V587.84C293.897 586.773 294.184 585.913 294.757 585.26C295.33 584.593 296.21 584.26 297.397 584.26C297.677 584.26 297.95 584.287 298.217 584.34C298.484 584.393 298.717 584.467 298.917 584.56L298.137 586.5C298.07 586.447 297.964 586.407 297.817 586.38C297.684 586.353 297.564 586.34 297.457 586.34C297.124 586.34 296.864 586.46 296.677 586.7C296.504 586.927 296.417 587.3 296.417 587.82V589.12H298.957V591.14H296.417V599H293.897V591.14ZM303.264 586.38C303.264 586.753 303.13 587.087 302.864 587.38C302.61 587.673 302.25 587.82 301.784 587.82C301.304 587.82 300.937 587.673 300.684 587.38C300.43 587.087 300.304 586.753 300.304 586.38C300.304 585.993 300.43 585.66 300.684 585.38C300.937 585.087 301.304 584.94 301.784 584.94C302.25 584.94 302.61 585.087 302.864 585.38C303.13 585.66 303.264 585.993 303.264 586.38ZM300.504 589.12H303.024V599H300.504V589.12ZM305.679 589.12H308.059V590.78H308.179C308.379 590.207 308.686 589.747 309.099 589.4C309.526 589.053 310.059 588.88 310.699 588.88C311.193 588.88 311.653 588.96 312.079 589.12L311.379 591.42C311.233 591.327 311.059 591.26 310.859 591.22C310.659 591.18 310.466 591.16 310.279 591.16C309.666 591.16 309.166 591.373 308.779 591.8C308.393 592.213 308.199 592.8 308.199 593.56V599H305.679V589.12ZM313.55 589.12H315.93V590.62H316.05C316.304 590.1 316.657 589.68 317.11 589.36C317.577 589.04 318.144 588.88 318.81 588.88C320.437 588.88 321.484 589.493 321.95 590.72C322.204 590.16 322.597 589.713 323.13 589.38C323.664 589.047 324.29 588.88 325.01 588.88C326.21 588.88 327.09 589.213 327.65 589.88C328.21 590.533 328.49 591.527 328.49 592.86V599H325.97V593.28C325.97 591.76 325.364 591 324.15 591C323.524 591 323.05 591.207 322.73 591.62C322.424 592.033 322.27 592.627 322.27 593.4V599H319.75V593.28C319.75 592.52 319.604 591.953 319.31 591.58C319.03 591.193 318.57 591 317.93 591C317.33 591 316.87 591.207 316.55 591.62C316.23 592.033 316.07 592.627 316.07 593.4V599H313.55V589.12Z" fill="white"/>
</g>
</g>
</g>
</g>
<defs>
<filter id="filter0_ddd_25453_8260" x="0" y="0" width="380" height="640" filterUnits="userSpaceOnUse" color-interpolation-filters="sRGB">
<feFlood flood-opacity="0" result="BackgroundImageFix"/>
<feColorMatrix in="SourceAlpha" type="matrix" values="0 0 0 0 0 0 0 0 0 0 0 0 0 0 0 0 0 0 127 0" result="hardAlpha"/>
<feOffset dy="-4"/>
<feGaussianBlur stdDeviation="3"/>
<feColorMatrix type="matrix" values="0 0 0 0 0 0 0 0 0 0 0 0 0 0 0 0 0 0 0.01 0"/>
<feBlend mode="normal" in2="BackgroundImageFix" result="effect1_dropShadow_25453_8260"/>
<feColorMatrix in="SourceAlpha" type="matrix" values="0 0 0 0 0 0 0 0 0 0 0 0 0 0 0 0 0 0 127 0" result="hardAlpha"/>
<feMorphology radius="2" operator="erode" in="SourceAlpha" result="effect2_dropShadow_25453_8260"/>
<feOffset dy="-2"/>
<feGaussianBlur stdDeviation="6"/>
<feColorMatrix type="matrix" values="0 0 0 0 0 0 0 0 0 0 0 0 0 0 0 0 0 0 0.03 0"/>
<feBlend mode="normal" in2="effect1_dropShadow_25453_8260" result="effect2_dropShadow_25453_8260"/>
<feColorMatrix in="SourceAlpha" type="matrix" values="0 0 0 0 0 0 0 0 0 0 0 0 0 0 0 0 0 0 127 0" result="hardAlpha"/>
<feOffset dy="-3"/>
<feGaussianBlur stdDeviation="3"/>
<feColorMatrix type="matrix" values="0 0 0 0 0 0 0 0 0 0 0 0 0 0 0 0 0 0 0.02 0"/>
<feBlend mode="normal" in2="effect2_dropShadow_25453_8260" result="effect3_dropShadow_25453_8260"/>
<feBlend mode="normal" in="SourceGraphic" in2="effect3_dropShadow_25453_8260" result="shape"/>
</filter>
<filter id="filter1_ddd_25453_8260" x="0" y="540" width="380" height="100" filterUnits="userSpaceOnUse" color-interpolation-filters="sRGB">
<feFlood flood-opacity="0" result="BackgroundImageFix"/>
<feColorMatrix in="SourceAlpha" type="matrix" values="0 0 0 0 0 0 0 0 0 0 0 0 0 0 0 0 0 0 127 0" result="hardAlpha"/>
<feOffset dy="-3"/>
<feGaussianBlur stdDeviation="3"/>
<feColorMatrix type="matrix" values="0 0 0 0 0 0 0 0 0 0 0 0 0 0 0 0 0 0 0.06 0"/>
<feBlend mode="normal" in2="BackgroundImageFix" result="effect1_dropShadow_25453_8260"/>
<feColorMatrix in="SourceAlpha" type="matrix" values="0 0 0 0 0 0 0 0 0 0 0 0 0 0 0 0 0 0 127 0" result="hardAlpha"/>
<feMorphology radius="2" operator="erode" in="SourceAlpha" result="effect2_dropShadow_25453_8260"/>
<feOffset dy="-2"/>
<feGaussianBlur stdDeviation="6"/>
<feColorMatrix type="matrix" values="0 0 0 0 0 0 0 0 0 0 0 0 0 0 0 0 0 0 0.08 0"/>
<feBlend mode="normal" in2="effect1_dropShadow_25453_8260" result="effect2_dropShadow_25453_8260"/>
<feColorMatrix in="SourceAlpha" type="matrix" values="0 0 0 0 0 0 0 0 0 0 0 0 0 0 0 0 0 0 127 0" result="hardAlpha"/>
<feOffset dy="-4"/>
<feGaussianBlur stdDeviation="3"/>
<feColorMatrix type="matrix" values="0 0 0 0 0 0 0 0 0 0 0 0 0 0 0 0 0 0 0.02 0"/>
<feBlend mode="normal" in2="effect2_dropShadow_25453_8260" result="effect3_dropShadow_25453_8260"/>
<feBlend mode="normal" in="SourceGraphic" in2="effect3_dropShadow_25453_8260" result="shape"/>
</filter>
<clipPath id="clip0_25453_8260">
<path d="M10 28C10 19.1634 17.1634 12 26 12H354C362.837 12 370 19.1634 370 28V632H10V28Z" fill="white"/>
</clipPath>
<clipPath id="clip1_25453_8260">
<rect width="21" height="21" fill="white" transform="translate(27.5 51.5)"/>
</clipPath>
<clipPath id="clip2_25453_8260">
<path d="M109 592C109 578.745 119.745 568 133 568H193C206.255 568 217 578.745 217 592V592C217 605.255 206.255 616 193 616H133C119.745 616 109 605.255 109 592V592Z" fill="white"/>
</clipPath>
<clipPath id="clip3_25453_8260">
<path d="M233 592C233 578.745 243.745 568 257 568H330C343.255 568 354 578.745 354 592V592C354 605.255 343.255 616 330 616H257C243.745 616 233 605.255 233 592V592Z" fill="white"/>
</clipPath>
</defs>
</svg>
