<svg width="380" height="442" viewBox="0 0 380 442" fill="none" xmlns="http://www.w3.org/2000/svg">
<g filter="url(#filter0_ddd_25451_17866)">
<g clip-path="url(#clip0_25451_17866)">
<path d="M10 28C10 19.1634 17.1634 12 26 12H354C362.837 12 370 19.1634 370 28V434H10V28Z" fill="white"/>
<rect width="360" height="80" transform="translate(10 12)" fill="white"/>
<rect x="10" y="28" width="156" height="4" fill="white" fill-opacity="0.01"/>
<rect opacity="0.5" x="174" y="28" width="32" height="4" rx="2" fill="#79747E"/>
<rect x="214" y="28" width="156" height="4" fill="white" fill-opacity="0.01"/>
<rect x="10" y="32" width="360" height="16" fill="white" fill-opacity="0.01"/>
<path d="M29.82 69V59.1H26.32V56H37.32V59.1H33.82V69H29.82ZM38.4606 69V59.12H42.2206V69H38.4606ZM40.3406 58.2C39.6606 58.2 39.154 58.0067 38.8206 57.62C38.4873 57.2333 38.3206 56.7933 38.3206 56.3C38.3206 55.7933 38.4873 55.3467 38.8206 54.96C39.154 54.5733 39.6606 54.38 40.3406 54.38C41.0206 54.38 41.5273 54.5733 41.8606 54.96C42.2073 55.3467 42.3806 55.7933 42.3806 56.3C42.3806 56.7933 42.2073 57.2333 41.8606 57.62C41.5273 58.0067 41.0206 58.2 40.3406 58.2ZM48.5713 69.2C47.6913 69.2 46.9713 69.06 46.4113 68.78C45.8513 68.4867 45.4313 68.04 45.1513 67.44C44.8846 66.8267 44.7513 66.04 44.7513 65.08V62.06H43.4913V59.12H44.7513V56.44H48.4913V59.12H51.4313V62.06H48.4913V65.1C48.4913 65.4733 48.5513 65.7533 48.6713 65.94C48.8046 66.1267 49.0446 66.22 49.3913 66.22C49.6313 66.22 49.8579 66.1733 50.0713 66.08C50.2846 65.9733 50.4579 65.8467 50.5913 65.7L51.7113 68.2C51.3646 68.5333 50.9313 68.7867 50.4113 68.96C49.9046 69.12 49.2913 69.2 48.5713 69.2ZM52.777 69V54.5H56.537V69H52.777ZM62.9477 69.24C61.8143 69.24 60.8543 69.0133 60.0677 68.56C59.281 68.0933 58.6877 67.4733 58.2877 66.7C57.8877 65.9133 57.6877 65.0333 57.6877 64.06C57.6877 63.3133 57.7943 62.6267 58.0077 62C58.221 61.3733 58.5343 60.8267 58.9477 60.36C59.3743 59.88 59.9077 59.5133 60.5477 59.26C61.201 59.0067 61.9543 58.88 62.8077 58.88C63.6477 58.88 64.381 59.0067 65.0077 59.26C65.6343 59.5133 66.1543 59.8733 66.5677 60.34C66.981 60.7933 67.2877 61.3333 67.4877 61.96C67.6877 62.5733 67.7877 63.2533 67.7877 64C67.7877 64.1733 67.7677 64.3733 67.7277 64.6C67.701 64.8267 67.6677 65 67.6277 65.12H61.3077C61.3743 65.4133 61.501 65.6533 61.6877 65.84C61.8743 66.0267 62.101 66.1667 62.3677 66.26C62.6477 66.34 62.9277 66.38 63.2077 66.38C63.6077 66.38 63.961 66.32 64.2677 66.2C64.5743 66.08 64.8143 65.9267 64.9877 65.74L66.9677 67.76C66.621 68.2133 66.0877 68.5733 65.3677 68.84C64.6477 69.1067 63.841 69.24 62.9477 69.24ZM62.7677 61.46C62.5143 61.46 62.281 61.52 62.0677 61.64C61.8677 61.7467 61.701 61.9133 61.5677 62.14C61.4343 62.3533 61.3477 62.62 61.3077 62.94H64.2277C64.1877 62.6067 64.0943 62.3333 63.9477 62.12C63.8143 61.9067 63.6477 61.7467 63.4477 61.64C63.261 61.52 63.0343 61.46 62.7677 61.46Z" fill="black" fill-opacity="0.76"/>
<path d="M26 100C26 95.5817 29.5817 92 34 92H346C350.418 92 354 95.5817 354 100V346C354 350.418 350.418 354 346 354H34C29.5817 354 26 350.418 26 346V100Z" fill="black" fill-opacity="0.04"/>
<path d="M344 92V92.5H346C346.501 92.5 346.991 92.549 347.464 92.6426L347.561 92.1523C348.61 92.3599 349.586 92.773 350.444 93.3477L350.167 93.7627C350.985 94.3104 351.69 95.0149 352.237 95.833L352.651 95.5547C353.226 96.4131 353.639 97.3888 353.847 98.4385L353.357 98.5361C353.451 99.0092 353.5 99.4986 353.5 100V101.983H354V105.951H353.5V109.919H354V113.887H353.5V117.854H354V121.822H353.5V125.79H354V129.758H353.5V133.726H354V137.693H353.5V141.661H354V145.629H353.5V149.597H354V153.564H353.5V157.532H354V161.5H353.5V165.468H354V169.436H353.5V173.403H354V177.371H353.5V181.339H354V185.307H353.5V189.274H354V193.242H353.5V197.21H354V201.178H353.5V205.146H354V209.113H353.5V213.081H354V217.049H353.5V221.016H354V224.983H353.5V228.951H354V232.919H353.5V236.887H354V240.854H353.5V244.822H354V248.79H353.5V252.758H354V256.726H353.5V260.693H354V264.661H353.5V268.629H354V272.597H353.5V276.564H354V280.532H353.5V284.5H354V288.468H353.5V292.436H354V296.403H353.5V300.371H354V304.339H353.5V308.307H354V312.274H353.5V316.242H354V320.21H353.5V324.178H354V328.146H353.5V332.113H354V336.081H353.5V340.049H354V344.017H353.5V346C353.5 346.501 353.451 346.991 353.357 347.464L353.847 347.561C353.639 348.61 353.226 349.586 352.651 350.444L352.237 350.167C351.69 350.985 350.985 351.69 350.167 352.237L350.444 352.651C349.586 353.226 348.61 353.639 347.561 353.847L347.464 353.357C346.991 353.451 346.501 353.5 346 353.5H344V354H340V353.5H336V354H332V353.5H328V354H324V353.5H320V354H316V353.5H312V354H308V353.5H304V354H300V353.5H296V354H292V353.5H288V354H284V353.5H280V354H276V353.5H272V354H268V353.5H264V354H260V353.5H256V354H252V353.5H248V354H244V353.5H240V354H236V353.5H232V354H228V353.5H224V354H220V353.5H216V354H212V353.5H208V354H204V353.5H200V354H196V353.5H192V354H188V353.5H184V354H180V353.5H176V354H172V353.5H168V354H164V353.5H160V354H156V353.5H152V354H148V353.5H144V354H140V353.5H136V354H132V353.5H128V354H124V353.5H120V354H116V353.5H112V354H108V353.5H104V354H100V353.5H96V354H92V353.5H88V354H84V353.5H80V354H76V353.5H72V354H68V353.5H64V354H60V353.5H56V354H52V353.5H48V354H44V353.5H40V354H36V353.5H34C33.4986 353.5 33.0092 353.451 32.5361 353.357L32.4385 353.847C31.3888 353.639 30.4131 353.226 29.5547 352.651L29.833 352.237C29.0149 351.69 28.3104 350.985 27.7627 350.167L27.3477 350.444C26.773 349.586 26.3599 348.61 26.1523 347.561L26.6426 347.464C26.549 346.991 26.5 346.501 26.5 346V344.017H26V340.049H26.5V336.081H26V332.113H26.5V328.146H26V324.178H26.5V320.21H26V316.242H26.5V312.274H26V308.307H26.5V304.339H26V300.371H26.5V296.403H26V292.436H26.5V288.468H26V284.5H26.5V280.532H26V276.564H26.5V272.597H26V268.629H26.5V264.661H26V260.693H26.5V256.726H26V252.758H26.5V248.79H26V244.822H26.5V240.854H26V236.887H26.5V232.919H26V228.951H26.5V224.984H26V221.017H26.5V217.049H26V213.081H26.5V209.113H26V205.146H26.5V201.178H26V197.21H26.5V193.242H26V189.274H26.5V185.307H26V181.339H26.5V177.371H26V173.403H26.5V169.436H26V165.468H26.5V161.5H26V157.532H26.5V153.564H26V149.597H26.5V145.629H26V141.661H26.5V137.693H26V133.726H26.5V129.758H26V125.79H26.5V121.822H26V117.854H26.5V113.887H26V109.919H26.5V105.951H26V101.983H26.5V100C26.5 99.4986 26.549 99.0092 26.6426 98.5361L26.1523 98.4385C26.36 97.3889 26.7729 96.413 27.3477 95.5547L27.7627 95.833C28.3104 95.0149 29.0149 94.3104 29.833 93.7627L29.5547 93.3477C30.413 92.7729 31.3889 92.36 32.4385 92.1523L32.5361 92.6426C32.8908 92.5724 33.2547 92.527 33.626 92.5088L34 92.5H36V92H40V92.5H44V92H48V92.5H52V92H56V92.5H60V92H64V92.5H68V92H72V92.5H76V92H80V92.5H84V92H88V92.5H92V92H96V92.5H100V92H104V92.5H108V92H112V92.5H116V92H120V92.5H124V92H128V92.5H132V92H136V92.5H140V92H144V92.5H148V92H152V92.5H156V92H160V92.5H164V92H168V92.5H172V92H176V92.5H180V92H184V92.5H188V92H192V92.5H196V92H200V92.5H204V92H208V92.5H212V92H216V92.5H220V92H224V92.5H228V92H232V92.5H236V92H240V92.5H244V92H248V92.5H252V92H256V92.5H260V92H264V92.5H268V92H272V92.5H276V92H280V92.5H284V92H288V92.5H292V92H296V92.5H300V92H304V92.5H308V92H312V92.5H316V92H320V92.5H324V92H328V92.5H332V92H336V92.5H340V92H344Z" stroke="black" stroke-opacity="0.76" stroke-dasharray="4 4"/>
<path d="M180.031 201.192C179.092 201.192 178.308 201.043 177.679 200.744C177.06 200.445 176.548 200.056 176.143 199.576L177.519 198.296C177.818 198.616 178.17 198.888 178.575 199.112C178.98 199.325 179.482 199.432 180.079 199.432C180.41 199.432 180.708 199.389 180.975 199.304C181.242 199.208 181.455 199.064 181.615 198.872C181.786 198.669 181.871 198.408 181.871 198.088C181.871 197.8 181.775 197.571 181.583 197.4C181.391 197.219 181.108 197.064 180.735 196.936C180.372 196.808 179.935 196.669 179.423 196.52C179.06 196.403 178.703 196.269 178.351 196.12C178.01 195.971 177.7 195.784 177.423 195.56C177.146 195.325 176.922 195.043 176.751 194.712C176.591 194.371 176.511 193.96 176.511 193.48C176.511 192.989 176.602 192.557 176.783 192.184C176.975 191.8 177.242 191.48 177.583 191.224C177.924 190.957 178.324 190.755 178.783 190.616C179.252 190.477 179.77 190.408 180.335 190.408C181.178 190.408 181.903 190.547 182.511 190.824C183.119 191.091 183.604 191.475 183.967 191.976L182.591 193.272C182.335 192.963 182.02 192.701 181.647 192.488C181.284 192.275 180.842 192.168 180.319 192.168C180.042 192.168 179.775 192.211 179.519 192.296C179.274 192.381 179.071 192.515 178.911 192.696C178.762 192.877 178.687 193.117 178.687 193.416C178.687 193.715 178.783 193.949 178.975 194.12C179.167 194.291 179.444 194.44 179.807 194.568C180.18 194.696 180.618 194.84 181.119 195C181.492 195.117 181.85 195.251 182.191 195.4C182.543 195.549 182.858 195.741 183.135 195.976C183.412 196.2 183.631 196.483 183.791 196.824C183.962 197.155 184.047 197.56 184.047 198.04C184.047 198.552 183.946 199.005 183.743 199.4C183.551 199.784 183.274 200.115 182.911 200.392C182.559 200.659 182.138 200.861 181.647 201C181.156 201.128 180.618 201.192 180.031 201.192ZM185.72 201V189.4H187.736V201H185.72ZM193.301 201.192C192.426 201.192 191.69 201.005 191.093 200.632C190.506 200.248 190.063 199.741 189.765 199.112C189.466 198.483 189.317 197.795 189.317 197.048C189.317 196.483 189.402 195.949 189.573 195.448C189.743 194.947 189.994 194.509 190.325 194.136C190.655 193.752 191.066 193.453 191.557 193.24C192.058 193.016 192.639 192.904 193.301 192.904C194.186 192.904 194.917 193.096 195.493 193.48C196.079 193.853 196.517 194.355 196.805 194.984C197.103 195.603 197.253 196.291 197.253 197.048C197.253 197.613 197.167 198.147 196.997 198.648C196.837 199.149 196.591 199.592 196.261 199.976C195.93 200.349 195.519 200.648 195.029 200.872C194.538 201.085 193.962 201.192 193.301 201.192ZM191.381 197.048C191.381 197.56 191.455 198.008 191.605 198.392C191.765 198.765 191.983 199.053 192.261 199.256C192.549 199.459 192.895 199.56 193.301 199.56C193.706 199.56 194.047 199.459 194.325 199.256C194.602 199.053 194.815 198.765 194.965 198.392C195.125 198.008 195.205 197.56 195.205 197.048C195.205 196.525 195.125 196.077 194.965 195.704C194.815 195.331 194.602 195.043 194.325 194.84C194.047 194.637 193.706 194.536 193.301 194.536C192.895 194.536 192.549 194.637 192.261 194.84C191.983 195.043 191.765 195.331 191.605 195.704C191.455 196.077 191.381 196.525 191.381 197.048ZM201.854 201.176C201.278 201.176 200.803 201.075 200.43 200.872C200.056 200.659 199.779 200.344 199.598 199.928C199.427 199.501 199.342 198.973 199.342 198.344V194.712H198.094V193.096H199.342V190.952H201.342V193.096H203.646V194.712H201.342V198.328C201.342 198.744 201.416 199.043 201.566 199.224C201.726 199.395 201.95 199.48 202.238 199.48C202.44 199.48 202.627 199.443 202.798 199.368C202.979 199.283 203.134 199.181 203.262 199.064L203.982 200.44C203.726 200.696 203.422 200.883 203.07 201C202.718 201.117 202.312 201.176 201.854 201.176Z" fill="black" fill-opacity="0.76"/>
<path d="M118.516 233V223.752H115.556V222.6H122.836V223.752H119.876V233H118.516ZM124.579 233V221.4H125.859V226.216H125.955C126.136 225.853 126.397 225.544 126.739 225.288C127.091 225.032 127.528 224.904 128.051 224.904C128.957 224.904 129.672 225.144 130.195 225.624C130.728 226.093 130.995 226.867 130.995 227.944V233H129.715V228.184C129.715 227.373 129.549 226.803 129.219 226.472C128.899 226.131 128.424 225.96 127.795 225.96C127.197 225.96 126.723 226.168 126.371 226.584C126.029 227 125.859 227.608 125.859 228.408V233H124.579ZM133.485 233V225.096H134.765V233H133.485ZM134.125 223.816C133.858 223.816 133.65 223.736 133.501 223.576C133.352 223.416 133.277 223.224 133.277 223C133.277 222.787 133.352 222.6 133.501 222.44C133.65 222.269 133.858 222.184 134.125 222.184C134.381 222.184 134.584 222.269 134.733 222.44C134.893 222.6 134.973 222.787 134.973 223C134.973 223.224 134.893 223.416 134.733 223.576C134.584 223.736 134.381 223.816 134.125 223.816ZM139.629 233.192C138.946 233.192 138.36 233.075 137.869 232.84C137.378 232.605 136.994 232.301 136.717 231.928L137.565 231.128C137.81 231.416 138.093 231.651 138.413 231.832C138.744 232.013 139.154 232.104 139.645 232.104C140.082 232.104 140.466 232.013 140.797 231.832C141.128 231.64 141.293 231.347 141.293 230.952C141.293 230.643 141.197 230.403 141.005 230.232C140.824 230.051 140.584 229.907 140.285 229.8C139.986 229.683 139.666 229.576 139.325 229.48C138.93 229.363 138.557 229.219 138.205 229.048C137.864 228.867 137.581 228.632 137.357 228.344C137.144 228.045 137.037 227.667 137.037 227.208C137.037 226.707 137.154 226.285 137.389 225.944C137.634 225.603 137.96 225.347 138.365 225.176C138.781 224.995 139.245 224.904 139.757 224.904C140.322 224.904 140.85 225.011 141.341 225.224C141.832 225.427 142.226 225.747 142.525 226.184L141.693 226.952C141.458 226.675 141.181 226.445 140.861 226.264C140.552 226.083 140.184 225.992 139.757 225.992C139.394 225.992 139.058 226.083 138.749 226.264C138.44 226.435 138.285 226.712 138.285 227.096C138.285 227.405 138.376 227.651 138.557 227.832C138.749 228.003 138.994 228.141 139.293 228.248C139.592 228.355 139.912 228.461 140.253 228.568C140.648 228.685 141.016 228.835 141.357 229.016C141.709 229.187 141.992 229.416 142.205 229.704C142.429 229.992 142.541 230.371 142.541 230.84C142.541 231.384 142.408 231.832 142.141 232.184C141.874 232.525 141.517 232.781 141.069 232.952C140.632 233.112 140.152 233.192 139.629 233.192ZM148.594 233V225.096H149.874V233H148.594ZM149.234 223.816C148.968 223.816 148.76 223.736 148.61 223.576C148.461 223.416 148.386 223.224 148.386 223C148.386 222.787 148.461 222.6 148.61 222.44C148.76 222.269 148.968 222.184 149.234 222.184C149.49 222.184 149.693 222.269 149.842 222.44C150.002 222.6 150.082 222.787 150.082 223C150.082 223.224 150.002 223.416 149.842 223.576C149.693 223.736 149.49 223.816 149.234 223.816ZM154.738 233.192C154.056 233.192 153.469 233.075 152.978 232.84C152.488 232.605 152.104 232.301 151.826 231.928L152.674 231.128C152.92 231.416 153.202 231.651 153.522 231.832C153.853 232.013 154.264 232.104 154.754 232.104C155.192 232.104 155.576 232.013 155.906 231.832C156.237 231.64 156.402 231.347 156.402 230.952C156.402 230.643 156.306 230.403 156.114 230.232C155.933 230.051 155.693 229.907 155.394 229.8C155.096 229.683 154.776 229.576 154.434 229.48C154.04 229.363 153.666 229.219 153.314 229.048C152.973 228.867 152.69 228.632 152.466 228.344C152.253 228.045 152.146 227.667 152.146 227.208C152.146 226.707 152.264 226.285 152.498 225.944C152.744 225.603 153.069 225.347 153.474 225.176C153.89 224.995 154.354 224.904 154.866 224.904C155.432 224.904 155.96 225.011 156.45 225.224C156.941 225.427 157.336 225.747 157.634 226.184L156.802 226.952C156.568 226.675 156.29 226.445 155.97 226.264C155.661 226.083 155.293 225.992 154.866 225.992C154.504 225.992 154.168 226.083 153.858 226.264C153.549 226.435 153.394 226.712 153.394 227.096C153.394 227.405 153.485 227.651 153.666 227.832C153.858 228.003 154.104 228.141 154.402 228.248C154.701 228.355 155.021 228.461 155.362 228.568C155.757 228.685 156.125 228.835 156.466 229.016C156.818 229.187 157.101 229.416 157.314 229.704C157.538 229.992 157.65 230.371 157.65 230.84C157.65 231.384 157.517 231.832 157.25 232.184C156.984 232.525 156.626 232.781 156.178 232.952C155.741 233.112 155.261 233.192 154.738 233.192ZM165.448 233.192C164.968 233.192 164.536 233.091 164.152 232.888C163.778 232.685 163.485 232.403 163.272 232.04C163.058 231.677 162.952 231.261 162.952 230.792C162.952 230.333 163.058 229.939 163.272 229.608C163.496 229.267 163.821 228.995 164.248 228.792C164.674 228.589 165.186 228.472 165.784 228.44L167.864 228.312V227.752C167.864 227.347 167.794 227.021 167.656 226.776C167.528 226.52 167.336 226.333 167.08 226.216C166.834 226.088 166.53 226.024 166.168 226.024C165.709 226.024 165.314 226.109 164.984 226.28C164.653 226.451 164.397 226.637 164.216 226.84L163.448 226.072C163.725 225.731 164.104 225.453 164.584 225.24C165.064 225.016 165.602 224.904 166.2 224.904C166.925 224.904 167.501 225.027 167.928 225.272C168.354 225.517 168.658 225.848 168.84 226.264C169.032 226.669 169.128 227.123 169.128 227.624V233H167.928V231.656H167.832C167.629 232.125 167.33 232.499 166.936 232.776C166.541 233.053 166.045 233.192 165.448 233.192ZM165.64 232.104C166.301 232.104 166.834 231.912 167.24 231.528C167.656 231.133 167.864 230.611 167.864 229.96V229.272L165.848 229.416C165.325 229.459 164.925 229.592 164.648 229.816C164.381 230.04 164.248 230.355 164.248 230.76C164.248 231.165 164.376 231.491 164.632 231.736C164.898 231.981 165.234 232.104 165.64 232.104ZM175.548 235.96V225.096H176.764V226.712H176.86C177.041 226.168 177.382 225.731 177.884 225.4C178.385 225.069 178.961 224.904 179.612 224.904C180.316 224.904 180.929 225.085 181.452 225.448C181.974 225.8 182.38 226.291 182.668 226.92C182.966 227.549 183.116 228.264 183.116 229.064C183.116 229.864 182.966 230.573 182.668 231.192C182.38 231.811 181.974 232.301 181.452 232.664C180.929 233.016 180.316 233.192 179.612 233.192C178.961 233.192 178.401 233.037 177.932 232.728C177.462 232.419 177.126 232.024 176.924 231.544H176.828V235.96H175.548ZM179.292 232.04C179.761 232.04 180.182 231.933 180.556 231.72C180.94 231.496 181.244 231.16 181.468 230.712C181.692 230.264 181.804 229.709 181.804 229.048C181.804 228.376 181.692 227.821 181.468 227.384C181.244 226.936 180.94 226.605 180.556 226.392C180.182 226.168 179.761 226.056 179.292 226.056C178.844 226.056 178.433 226.168 178.06 226.392C177.686 226.605 177.388 226.936 177.164 227.384C176.94 227.821 176.828 228.376 176.828 229.048C176.828 229.709 176.94 230.264 177.164 230.712C177.388 231.16 177.686 231.496 178.06 231.72C178.433 231.933 178.844 232.04 179.292 232.04ZM185.173 233V221.4H186.453V233H185.173ZM190.917 233.192C190.437 233.192 190.005 233.091 189.621 232.888C189.247 232.685 188.954 232.403 188.741 232.04C188.527 231.677 188.421 231.261 188.421 230.792C188.421 230.333 188.527 229.939 188.741 229.608C188.965 229.267 189.29 228.995 189.717 228.792C190.143 228.589 190.655 228.472 191.253 228.44L193.333 228.312V227.752C193.333 227.347 193.263 227.021 193.125 226.776C192.997 226.52 192.805 226.333 192.549 226.216C192.303 226.088 191.999 226.024 191.637 226.024C191.178 226.024 190.783 226.109 190.453 226.28C190.122 226.451 189.866 226.637 189.685 226.84L188.917 226.072C189.194 225.731 189.573 225.453 190.053 225.24C190.533 225.016 191.071 224.904 191.669 224.904C192.394 224.904 192.97 225.027 193.397 225.272C193.823 225.517 194.127 225.848 194.309 226.264C194.501 226.669 194.597 227.123 194.597 227.624V233H193.397V231.656H193.301C193.098 232.125 192.799 232.499 192.405 232.776C192.01 233.053 191.514 233.192 190.917 233.192ZM191.109 232.104C191.77 232.104 192.303 231.912 192.709 231.528C193.125 231.133 193.333 230.611 193.333 229.96V229.272L191.317 229.416C190.794 229.459 190.394 229.592 190.117 229.816C189.85 230.04 189.717 230.355 189.717 230.76C189.717 231.165 189.845 231.491 190.101 231.736C190.367 231.981 190.703 232.104 191.109 232.104ZM200.181 233.192C199.327 233.192 198.629 232.995 198.085 232.6C197.541 232.205 197.141 231.693 196.885 231.064C196.639 230.424 196.517 229.752 196.517 229.048C196.517 228.333 196.639 227.661 196.885 227.032C197.13 226.403 197.519 225.891 198.053 225.496C198.597 225.101 199.295 224.904 200.149 224.904C200.81 224.904 201.354 225.016 201.781 225.24C202.218 225.464 202.586 225.763 202.885 226.136L202.085 226.888C201.829 226.611 201.557 226.397 201.269 226.248C200.991 226.088 200.629 226.008 200.181 226.008C199.722 226.008 199.311 226.131 198.949 226.376C198.597 226.621 198.319 226.973 198.117 227.432C197.925 227.88 197.829 228.419 197.829 229.048C197.829 229.987 198.053 230.728 198.501 231.272C198.949 231.816 199.519 232.088 200.213 232.088C200.639 232.088 201.007 232.013 201.317 231.864C201.626 231.704 201.914 231.475 202.181 231.176L202.949 231.944C202.65 232.317 202.271 232.621 201.813 232.856C201.365 233.08 200.821 233.192 200.181 233.192ZM207.745 233.192C206.988 233.192 206.326 233.027 205.761 232.696C205.206 232.365 204.774 231.891 204.465 231.272C204.156 230.643 204.001 229.901 204.001 229.048C204.001 228.376 204.086 227.784 204.257 227.272C204.438 226.749 204.689 226.317 205.009 225.976C205.34 225.624 205.724 225.357 206.161 225.176C206.609 224.995 207.1 224.904 207.633 224.904C208.166 224.904 208.652 224.989 209.089 225.16C209.537 225.331 209.921 225.587 210.241 225.928C210.572 226.259 210.828 226.68 211.009 227.192C211.19 227.693 211.281 228.28 211.281 228.952C211.281 229.037 211.276 229.123 211.265 229.208C211.265 229.293 211.26 229.363 211.249 229.416H205.281C205.292 229.907 205.409 230.355 205.633 230.76C205.857 231.165 206.156 231.491 206.529 231.736C206.913 231.971 207.34 232.088 207.809 232.088C208.374 232.088 208.844 231.976 209.217 231.752C209.59 231.528 209.9 231.256 210.145 230.936L210.913 231.72C210.582 232.168 210.161 232.525 209.649 232.792C209.137 233.059 208.502 233.192 207.745 233.192ZM207.633 225.96C207.132 225.96 206.71 226.077 206.369 226.312C206.028 226.547 205.766 226.845 205.585 227.208C205.414 227.571 205.324 227.949 205.313 228.344H209.937C209.926 227.949 209.83 227.571 209.649 227.208C209.478 226.845 209.222 226.547 208.881 226.312C208.55 226.077 208.134 225.96 207.633 225.96ZM213.344 233V221.4H214.624V226.216H214.72C214.902 225.853 215.163 225.544 215.504 225.288C215.856 225.032 216.294 224.904 216.816 224.904C217.723 224.904 218.438 225.144 218.96 225.624C219.494 226.093 219.76 226.867 219.76 227.944V233H218.48V228.184C218.48 227.373 218.315 226.803 217.984 226.472C217.664 226.131 217.19 225.96 216.56 225.96C215.963 225.96 215.488 226.168 215.136 226.584C214.795 227 214.624 227.608 214.624 228.408V233H213.344ZM225.371 233.192C224.528 233.192 223.824 233.005 223.259 232.632C222.704 232.259 222.288 231.757 222.011 231.128C221.733 230.499 221.595 229.805 221.595 229.048C221.595 228.472 221.669 227.933 221.819 227.432C221.979 226.931 222.213 226.493 222.523 226.12C222.843 225.736 223.237 225.437 223.707 225.224C224.187 225.011 224.741 224.904 225.371 224.904C226.213 224.904 226.907 225.091 227.451 225.464C228.005 225.837 228.416 226.339 228.683 226.968C228.96 227.587 229.099 228.28 229.099 229.048C229.099 229.624 229.019 230.163 228.859 230.664C228.709 231.165 228.48 231.608 228.171 231.992C227.861 232.365 227.472 232.659 227.003 232.872C226.544 233.085 226 233.192 225.371 233.192ZM222.907 229.048C222.907 229.656 222.997 230.195 223.179 230.664C223.36 231.123 223.632 231.485 223.995 231.752C224.357 232.008 224.816 232.136 225.371 232.136C225.915 232.136 226.363 232.008 226.715 231.752C227.077 231.485 227.344 231.123 227.515 230.664C227.696 230.195 227.787 229.656 227.787 229.048C227.787 228.44 227.696 227.907 227.515 227.448C227.344 226.979 227.077 226.616 226.715 226.36C226.363 226.093 225.915 225.96 225.371 225.96C224.816 225.96 224.357 226.093 223.995 226.36C223.632 226.616 223.36 226.979 223.179 227.448C222.997 227.907 222.907 228.44 222.907 229.048ZM231.157 233V221.4H232.437V233H231.157ZM238.005 233.192C237.301 233.192 236.688 233.011 236.165 232.648C235.642 232.285 235.232 231.795 234.933 231.176C234.645 230.547 234.501 229.832 234.501 229.032C234.501 228.232 234.645 227.523 234.933 226.904C235.232 226.275 235.642 225.784 236.165 225.432C236.688 225.08 237.301 224.904 238.005 224.904C238.656 224.904 239.216 225.059 239.685 225.368C240.154 225.677 240.49 226.072 240.693 226.552H240.789V221.4H242.069V233H240.853V231.384H240.757C240.576 231.928 240.234 232.365 239.733 232.696C239.232 233.027 238.656 233.192 238.005 233.192ZM238.325 232.04C238.784 232.04 239.194 231.933 239.557 231.72C239.93 231.496 240.229 231.16 240.453 230.712C240.677 230.264 240.789 229.709 240.789 229.048C240.789 228.376 240.677 227.821 240.453 227.384C240.229 226.936 239.93 226.605 239.557 226.392C239.194 226.168 238.784 226.056 238.325 226.056C237.856 226.056 237.429 226.168 237.045 226.392C236.672 226.605 236.373 226.936 236.149 227.384C235.925 227.821 235.813 228.376 235.813 229.048C235.813 229.709 235.925 230.264 236.149 230.712C236.373 231.16 236.672 231.496 237.045 231.72C237.429 231.933 237.856 232.04 238.325 232.04ZM247.87 233.192C247.113 233.192 246.451 233.027 245.886 232.696C245.331 232.365 244.899 231.891 244.59 231.272C244.281 230.643 244.126 229.901 244.126 229.048C244.126 228.376 244.211 227.784 244.382 227.272C244.563 226.749 244.814 226.317 245.134 225.976C245.465 225.624 245.849 225.357 246.286 225.176C246.734 224.995 247.225 224.904 247.758 224.904C248.291 224.904 248.777 224.989 249.214 225.16C249.662 225.331 250.046 225.587 250.366 225.928C250.697 226.259 250.953 226.68 251.134 227.192C251.315 227.693 251.406 228.28 251.406 228.952C251.406 229.037 251.401 229.123 251.39 229.208C251.39 229.293 251.385 229.363 251.374 229.416H245.406C245.417 229.907 245.534 230.355 245.758 230.76C245.982 231.165 246.281 231.491 246.654 231.736C247.038 231.971 247.465 232.088 247.934 232.088C248.499 232.088 248.969 231.976 249.342 231.752C249.715 231.528 250.025 231.256 250.27 230.936L251.038 231.72C250.707 232.168 250.286 232.525 249.774 232.792C249.262 233.059 248.627 233.192 247.87 233.192ZM247.758 225.96C247.257 225.96 246.835 226.077 246.494 226.312C246.153 226.547 245.891 226.845 245.71 227.208C245.539 227.571 245.449 227.949 245.438 228.344H250.062C250.051 227.949 249.955 227.571 249.774 227.208C249.603 226.845 249.347 226.547 249.006 226.312C248.675 226.077 248.259 225.96 247.758 225.96ZM253.469 233V225.096H254.685V226.376H254.781C254.952 225.96 255.197 225.613 255.517 225.336C255.848 225.048 256.248 224.904 256.717 224.904C256.909 224.904 257.096 224.925 257.277 224.968C257.469 225 257.64 225.059 257.789 225.144L257.357 226.296C257.219 226.221 257.069 226.173 256.909 226.152C256.76 226.12 256.605 226.104 256.445 226.104C255.923 226.104 255.507 226.317 255.197 226.744C254.899 227.16 254.749 227.693 254.749 228.344V233H253.469ZM258.984 231.304C259.283 231.304 259.518 231.411 259.688 231.624C259.859 231.837 259.944 232.093 259.944 232.392C259.944 232.723 259.875 233.043 259.736 233.352C259.598 233.672 259.4 233.976 259.144 234.264C258.888 234.563 258.584 234.845 258.232 235.112L257.736 234.584C257.95 234.381 258.142 234.157 258.312 233.912C258.483 233.667 258.616 233.395 258.712 233.096C258.499 233.043 258.328 232.936 258.2 232.776C258.083 232.605 258.024 232.419 258.024 232.216C258.024 232.045 258.062 231.896 258.136 231.768C258.222 231.629 258.334 231.517 258.472 231.432C258.622 231.347 258.792 231.304 258.984 231.304ZM104.805 257V249.096H106.021V250.376H106.117C106.288 249.96 106.533 249.613 106.853 249.336C107.184 249.048 107.584 248.904 108.053 248.904C108.245 248.904 108.432 248.925 108.613 248.968C108.805 249 108.976 249.059 109.125 249.144L108.693 250.296C108.555 250.221 108.405 250.173 108.245 250.152C108.096 250.12 107.941 250.104 107.781 250.104C107.259 250.104 106.843 250.317 106.533 250.744C106.235 251.16 106.085 251.693 106.085 252.344V257H104.805ZM113.471 257.192C112.714 257.192 112.053 257.027 111.487 256.696C110.933 256.365 110.501 255.891 110.191 255.272C109.882 254.643 109.727 253.901 109.727 253.048C109.727 252.376 109.813 251.784 109.983 251.272C110.165 250.749 110.415 250.317 110.735 249.976C111.066 249.624 111.45 249.357 111.887 249.176C112.335 248.995 112.826 248.904 113.359 248.904C113.893 248.904 114.378 248.989 114.815 249.16C115.263 249.331 115.647 249.587 115.967 249.928C116.298 250.259 116.554 250.68 116.735 251.192C116.917 251.693 117.007 252.28 117.007 252.952C117.007 253.037 117.002 253.123 116.991 253.208C116.991 253.293 116.986 253.363 116.975 253.416H111.007C111.018 253.907 111.135 254.355 111.359 254.76C111.583 255.165 111.882 255.491 112.255 255.736C112.639 255.971 113.066 256.088 113.535 256.088C114.101 256.088 114.57 255.976 114.943 255.752C115.317 255.528 115.626 255.256 115.871 254.936L116.639 255.72C116.309 256.168 115.887 256.525 115.375 256.792C114.863 257.059 114.229 257.192 113.471 257.192ZM113.359 249.96C112.858 249.96 112.437 250.077 112.095 250.312C111.754 250.547 111.493 250.845 111.311 251.208C111.141 251.571 111.05 251.949 111.039 252.344H115.663C115.653 251.949 115.557 251.571 115.375 251.208C115.205 250.845 114.949 250.547 114.607 250.312C114.277 250.077 113.861 249.96 113.359 249.96ZM119.071 259.96V249.096H120.287V250.712H120.383C120.564 250.168 120.906 249.731 121.407 249.4C121.908 249.069 122.484 248.904 123.135 248.904C123.839 248.904 124.452 249.085 124.975 249.448C125.498 249.8 125.903 250.291 126.191 250.92C126.49 251.549 126.639 252.264 126.639 253.064C126.639 253.864 126.49 254.573 126.191 255.192C125.903 255.811 125.498 256.301 124.975 256.664C124.452 257.016 123.839 257.192 123.135 257.192C122.484 257.192 121.924 257.037 121.455 256.728C120.986 256.419 120.65 256.024 120.447 255.544H120.351V259.96H119.071ZM122.815 256.04C123.284 256.04 123.706 255.933 124.079 255.72C124.463 255.496 124.767 255.16 124.991 254.712C125.215 254.264 125.327 253.709 125.327 253.048C125.327 252.376 125.215 251.821 124.991 251.384C124.767 250.936 124.463 250.605 124.079 250.392C123.706 250.168 123.284 250.056 122.815 250.056C122.367 250.056 121.956 250.168 121.583 250.392C121.21 250.605 120.911 250.936 120.687 251.384C120.463 251.821 120.351 252.376 120.351 253.048C120.351 253.709 120.463 254.264 120.687 254.712C120.911 255.16 121.21 255.496 121.583 255.72C121.956 255.933 122.367 256.04 122.815 256.04ZM128.696 257V245.4H129.976V257H128.696ZM134.44 257.192C133.96 257.192 133.528 257.091 133.144 256.888C132.771 256.685 132.477 256.403 132.264 256.04C132.051 255.677 131.944 255.261 131.944 254.792C131.944 254.333 132.051 253.939 132.264 253.608C132.488 253.267 132.813 252.995 133.24 252.792C133.667 252.589 134.179 252.472 134.776 252.44L136.856 252.312V251.752C136.856 251.347 136.787 251.021 136.648 250.776C136.52 250.52 136.328 250.333 136.072 250.216C135.827 250.088 135.523 250.024 135.16 250.024C134.701 250.024 134.307 250.109 133.976 250.28C133.645 250.451 133.389 250.637 133.208 250.84L132.44 250.072C132.717 249.731 133.096 249.453 133.576 249.24C134.056 249.016 134.595 248.904 135.192 248.904C135.917 248.904 136.493 249.027 136.92 249.272C137.347 249.517 137.651 249.848 137.832 250.264C138.024 250.669 138.12 251.123 138.12 251.624V257H136.92V255.656H136.824C136.621 256.125 136.323 256.499 135.928 256.776C135.533 257.053 135.037 257.192 134.44 257.192ZM134.632 256.104C135.293 256.104 135.827 255.912 136.232 255.528C136.648 255.133 136.856 254.611 136.856 253.96V253.272L134.84 253.416C134.317 253.459 133.917 253.592 133.64 253.816C133.373 254.04 133.24 254.355 133.24 254.76C133.24 255.165 133.368 255.491 133.624 255.736C133.891 255.981 134.227 256.104 134.632 256.104ZM143.704 257.192C142.851 257.192 142.152 256.995 141.608 256.6C141.064 256.205 140.664 255.693 140.408 255.064C140.163 254.424 140.04 253.752 140.04 253.048C140.04 252.333 140.163 251.661 140.408 251.032C140.653 250.403 141.043 249.891 141.576 249.496C142.12 249.101 142.819 248.904 143.672 248.904C144.333 248.904 144.877 249.016 145.304 249.24C145.741 249.464 146.109 249.763 146.408 250.136L145.608 250.888C145.352 250.611 145.08 250.397 144.792 250.248C144.515 250.088 144.152 250.008 143.704 250.008C143.245 250.008 142.835 250.131 142.472 250.376C142.12 250.621 141.843 250.973 141.64 251.432C141.448 251.88 141.352 252.419 141.352 253.048C141.352 253.987 141.576 254.728 142.024 255.272C142.472 255.816 143.043 256.088 143.736 256.088C144.163 256.088 144.531 256.013 144.84 255.864C145.149 255.704 145.437 255.475 145.704 255.176L146.472 255.944C146.173 256.317 145.795 256.621 145.336 256.856C144.888 257.08 144.344 257.192 143.704 257.192ZM151.268 257.192C150.511 257.192 149.85 257.027 149.284 256.696C148.73 256.365 148.298 255.891 147.988 255.272C147.679 254.643 147.524 253.901 147.524 253.048C147.524 252.376 147.61 251.784 147.78 251.272C147.962 250.749 148.212 250.317 148.532 249.976C148.863 249.624 149.247 249.357 149.684 249.176C150.132 248.995 150.623 248.904 151.156 248.904C151.69 248.904 152.175 248.989 152.612 249.16C153.06 249.331 153.444 249.587 153.764 249.928C154.095 250.259 154.351 250.68 154.532 251.192C154.714 251.693 154.804 252.28 154.804 252.952C154.804 253.037 154.799 253.123 154.788 253.208C154.788 253.293 154.783 253.363 154.772 253.416H148.804C148.815 253.907 148.932 254.355 149.156 254.76C149.38 255.165 149.679 255.491 150.052 255.736C150.436 255.971 150.863 256.088 151.332 256.088C151.898 256.088 152.367 255.976 152.74 255.752C153.114 255.528 153.423 255.256 153.668 254.936L154.436 255.72C154.106 256.168 153.684 256.525 153.172 256.792C152.66 257.059 152.026 257.192 151.268 257.192ZM151.156 249.96C150.655 249.96 150.234 250.077 149.892 250.312C149.551 250.547 149.29 250.845 149.108 251.208C148.938 251.571 148.847 251.949 148.836 252.344H153.46C153.45 251.949 153.354 251.571 153.172 251.208C153.002 250.845 152.746 250.547 152.404 250.312C152.074 250.077 151.658 249.96 151.156 249.96ZM160.712 257V249.096H161.928V250.344H162.024C162.216 249.928 162.482 249.587 162.824 249.32C163.176 249.043 163.613 248.904 164.136 248.904C164.765 248.904 165.298 249.021 165.736 249.256C166.173 249.48 166.493 249.821 166.696 250.28C166.856 249.981 167.048 249.731 167.272 249.528C167.496 249.325 167.762 249.171 168.072 249.064C168.392 248.957 168.749 248.904 169.144 248.904C169.73 248.904 170.237 249.011 170.664 249.224C171.09 249.427 171.421 249.752 171.656 250.2C171.89 250.648 172.008 251.229 172.008 251.944V257H170.728V252.184C170.728 251.64 170.653 251.208 170.504 250.888C170.365 250.557 170.157 250.323 169.88 250.184C169.613 250.035 169.277 249.96 168.872 249.96C168.285 249.96 167.826 250.168 167.496 250.584C167.165 251 167 251.608 167 252.408V257H165.72V252.184C165.72 251.64 165.65 251.208 165.512 250.888C165.373 250.557 165.165 250.323 164.888 250.184C164.61 250.035 164.269 249.96 163.864 249.96C163.288 249.96 162.829 250.168 162.488 250.584C162.157 251 161.992 251.608 161.992 252.408V257H160.712ZM177.675 257.192C176.917 257.192 176.256 257.027 175.691 256.696C175.136 256.365 174.704 255.891 174.395 255.272C174.085 254.643 173.931 253.901 173.931 253.048C173.931 252.376 174.016 251.784 174.187 251.272C174.368 250.749 174.619 250.317 174.939 249.976C175.269 249.624 175.653 249.357 176.091 249.176C176.539 248.995 177.029 248.904 177.563 248.904C178.096 248.904 178.581 248.989 179.019 249.16C179.467 249.331 179.851 249.587 180.171 249.928C180.501 250.259 180.757 250.68 180.939 251.192C181.12 251.693 181.211 252.28 181.211 252.952C181.211 253.037 181.205 253.123 181.195 253.208C181.195 253.293 181.189 253.363 181.179 253.416H175.211C175.221 253.907 175.339 254.355 175.563 254.76C175.787 255.165 176.085 255.491 176.459 255.736C176.843 255.971 177.269 256.088 177.739 256.088C178.304 256.088 178.773 255.976 179.147 255.752C179.52 255.528 179.829 255.256 180.075 254.936L180.843 255.72C180.512 256.168 180.091 256.525 179.579 256.792C179.067 257.059 178.432 257.192 177.675 257.192ZM177.563 249.96C177.061 249.96 176.64 250.077 176.299 250.312C175.957 250.547 175.696 250.845 175.515 251.208C175.344 251.571 175.253 251.949 175.243 252.344H179.867C179.856 251.949 179.76 251.571 179.579 251.208C179.408 250.845 179.152 250.547 178.811 250.312C178.48 250.077 178.064 249.96 177.563 249.96ZM188.878 257L186.19 249.096H187.566L189.566 255.672H189.662L191.518 249.096H193.038L194.894 255.672H194.99L196.99 249.096H198.27L195.582 257H194.142L192.286 250.456H192.19L190.35 257H188.878ZM200.055 257V249.096H201.335V257H200.055ZM200.695 247.816C200.429 247.816 200.221 247.736 200.071 247.576C199.922 247.416 199.847 247.224 199.847 247C199.847 246.787 199.922 246.6 200.071 246.44C200.221 246.269 200.429 246.184 200.695 246.184C200.951 246.184 201.154 246.269 201.303 246.44C201.463 246.6 201.543 246.787 201.543 247C201.543 247.224 201.463 247.416 201.303 247.576C201.154 247.736 200.951 247.816 200.695 247.816ZM206.487 257.192C206.018 257.192 205.629 257.096 205.319 256.904C205.01 256.712 204.781 256.435 204.631 256.072C204.493 255.709 204.423 255.283 204.423 254.792V250.136H203.015V249.096H204.423V246.952H205.687V249.096H207.975V250.136H205.687V254.68C205.687 255.192 205.783 255.549 205.975 255.752C206.178 255.955 206.434 256.056 206.743 256.056C206.957 256.056 207.149 256.019 207.319 255.944C207.49 255.859 207.65 255.747 207.799 255.608L208.375 256.504C208.13 256.739 207.847 256.909 207.527 257.016C207.218 257.133 206.871 257.192 206.487 257.192ZM210.118 257V245.4H211.398V250.216H211.494C211.675 249.853 211.936 249.544 212.278 249.288C212.63 249.032 213.067 248.904 213.59 248.904C214.496 248.904 215.211 249.144 215.734 249.624C216.267 250.093 216.534 250.867 216.534 251.944V257H215.254V252.184C215.254 251.373 215.088 250.803 214.758 250.472C214.438 250.131 213.963 249.96 213.334 249.96C212.736 249.96 212.262 250.168 211.91 250.584C211.568 251 211.398 251.608 211.398 252.408V257H210.118ZM225.876 257.192C225.022 257.192 224.324 256.995 223.78 256.6C223.236 256.205 222.836 255.693 222.58 255.064C222.334 254.424 222.212 253.752 222.212 253.048C222.212 252.333 222.334 251.661 222.58 251.032C222.825 250.403 223.214 249.891 223.748 249.496C224.292 249.101 224.99 248.904 225.844 248.904C226.505 248.904 227.049 249.016 227.476 249.24C227.913 249.464 228.281 249.763 228.58 250.136L227.78 250.888C227.524 250.611 227.252 250.397 226.964 250.248C226.686 250.088 226.324 250.008 225.876 250.008C225.417 250.008 225.006 250.131 224.644 250.376C224.292 250.621 224.014 250.973 223.812 251.432C223.62 251.88 223.524 252.419 223.524 253.048C223.524 253.987 223.748 254.728 224.196 255.272C224.644 255.816 225.214 256.088 225.908 256.088C226.334 256.088 226.702 256.013 227.012 255.864C227.321 255.704 227.609 255.475 227.876 255.176L228.644 255.944C228.345 256.317 227.966 256.621 227.508 256.856C227.06 257.08 226.516 257.192 225.876 257.192ZM233.472 257.192C232.63 257.192 231.926 257.005 231.36 256.632C230.806 256.259 230.39 255.757 230.112 255.128C229.835 254.499 229.696 253.805 229.696 253.048C229.696 252.472 229.771 251.933 229.92 251.432C230.08 250.931 230.315 250.493 230.624 250.12C230.944 249.736 231.339 249.437 231.808 249.224C232.288 249.011 232.843 248.904 233.472 248.904C234.315 248.904 235.008 249.091 235.552 249.464C236.107 249.837 236.518 250.339 236.784 250.968C237.062 251.587 237.2 252.28 237.2 253.048C237.2 253.624 237.12 254.163 236.96 254.664C236.811 255.165 236.582 255.608 236.272 255.992C235.963 256.365 235.574 256.659 235.104 256.872C234.646 257.085 234.102 257.192 233.472 257.192ZM231.008 253.048C231.008 253.656 231.099 254.195 231.28 254.664C231.462 255.123 231.734 255.485 232.096 255.752C232.459 256.008 232.918 256.136 233.472 256.136C234.016 256.136 234.464 256.008 234.816 255.752C235.179 255.485 235.446 255.123 235.616 254.664C235.798 254.195 235.888 253.656 235.888 253.048C235.888 252.44 235.798 251.907 235.616 251.448C235.446 250.979 235.179 250.616 234.816 250.36C234.464 250.093 234.016 249.96 233.472 249.96C232.918 249.96 232.459 250.093 232.096 250.36C231.734 250.616 231.462 250.979 231.28 251.448C231.099 251.907 231.008 252.44 231.008 253.048ZM239.258 257V249.096H240.474V250.344H240.57C240.698 250.067 240.864 249.821 241.066 249.608C241.269 249.384 241.509 249.213 241.786 249.096C242.064 248.968 242.378 248.904 242.73 248.904C243.637 248.904 244.352 249.144 244.874 249.624C245.408 250.093 245.674 250.867 245.674 251.944V257H244.394V252.184C244.394 251.373 244.229 250.803 243.898 250.472C243.578 250.131 243.104 249.96 242.474 249.96C241.877 249.96 241.402 250.168 241.05 250.584C240.709 251 240.538 251.608 240.538 252.408V257H239.258ZM250.675 257.192C250.205 257.192 249.816 257.096 249.507 256.904C249.197 256.712 248.968 256.435 248.819 256.072C248.68 255.709 248.611 255.283 248.611 254.792V250.136H247.203V249.096H248.611V246.952H249.875V249.096H252.163V250.136H249.875V254.68C249.875 255.192 249.971 255.549 250.163 255.752C250.365 255.955 250.621 256.056 250.931 256.056C251.144 256.056 251.336 256.019 251.507 255.944C251.677 255.859 251.837 255.747 251.987 255.608L252.563 256.504C252.317 256.739 252.035 256.909 251.715 257.016C251.405 257.133 251.059 257.192 250.675 257.192ZM257.268 257.192C256.511 257.192 255.85 257.027 255.284 256.696C254.73 256.365 254.298 255.891 253.988 255.272C253.679 254.643 253.524 253.901 253.524 253.048C253.524 252.376 253.61 251.784 253.78 251.272C253.962 250.749 254.212 250.317 254.532 249.976C254.863 249.624 255.247 249.357 255.684 249.176C256.132 248.995 256.623 248.904 257.156 248.904C257.69 248.904 258.175 248.989 258.612 249.16C259.06 249.331 259.444 249.587 259.764 249.928C260.095 250.259 260.351 250.68 260.532 251.192C260.714 251.693 260.804 252.28 260.804 252.952C260.804 253.037 260.799 253.123 260.788 253.208C260.788 253.293 260.783 253.363 260.772 253.416H254.804C254.815 253.907 254.932 254.355 255.156 254.76C255.38 255.165 255.679 255.491 256.052 255.736C256.436 255.971 256.863 256.088 257.332 256.088C257.898 256.088 258.367 255.976 258.74 255.752C259.114 255.528 259.423 255.256 259.668 254.936L260.436 255.72C260.106 256.168 259.684 256.525 259.172 256.792C258.66 257.059 258.026 257.192 257.268 257.192ZM257.156 249.96C256.655 249.96 256.234 250.077 255.892 250.312C255.551 250.547 255.29 250.845 255.108 251.208C254.938 251.571 254.847 251.949 254.836 252.344H259.46C259.45 251.949 259.354 251.571 259.172 251.208C259.002 250.845 258.746 250.547 258.404 250.312C258.074 250.077 257.658 249.96 257.156 249.96ZM262.868 257V249.096H264.084V250.344H264.18C264.308 250.067 264.473 249.821 264.676 249.608C264.878 249.384 265.118 249.213 265.396 249.096C265.673 248.968 265.988 248.904 266.34 248.904C267.246 248.904 267.961 249.144 268.484 249.624C269.017 250.093 269.284 250.867 269.284 251.944V257H268.004V252.184C268.004 251.373 267.838 250.803 267.508 250.472C267.188 250.131 266.713 249.96 266.084 249.96C265.486 249.96 265.012 250.168 264.66 250.584C264.318 251 264.148 251.608 264.148 252.408V257H262.868ZM274.284 257.192C273.815 257.192 273.426 257.096 273.116 256.904C272.807 256.712 272.578 256.435 272.428 256.072C272.29 255.709 272.22 255.283 272.22 254.792V250.136H270.812V249.096H272.22V246.952H273.484V249.096H275.772V250.136H273.484V254.68C273.484 255.192 273.58 255.549 273.772 255.752C273.975 255.955 274.231 256.056 274.54 256.056C274.754 256.056 274.946 256.019 275.116 255.944C275.287 255.859 275.447 255.747 275.596 255.608L276.172 256.504C275.927 256.739 275.644 256.909 275.324 257.016C275.015 257.133 274.668 257.192 274.284 257.192Z" fill="black" fill-opacity="0.64"/>
<rect width="360" height="80" transform="translate(10 354)" fill="white"/>
<g clip-path="url(#clip1_25451_17866)">
<path d="M256 394C256 380.745 266.745 370 280 370H330C343.255 370 354 380.745 354 394C354 407.255 343.255 418 330 418H280C266.745 418 256 407.255 256 394Z" fill="#F36805"/>
<path d="M256 394C256 380.745 266.745 370 280 370H330C343.255 370 354 380.745 354 394C354 407.255 343.255 418 330 418H280C266.745 418 256 407.255 256 394Z" fill="white" fill-opacity="0.01"/>
<path d="M281.542 401V388H284.922V398.3H290.202V401H281.542ZM294.687 401.24C294.1 401.24 293.553 401.12 293.047 400.88C292.54 400.64 292.133 400.3 291.827 399.86C291.52 399.407 291.367 398.86 291.367 398.22C291.367 397.62 291.507 397.107 291.787 396.68C292.08 396.24 292.52 395.893 293.107 395.64C293.707 395.387 294.467 395.233 295.387 395.18L297.487 395.06V394.9C297.487 394.527 297.393 394.247 297.207 394.06C297.02 393.86 296.78 393.727 296.487 393.66C296.193 393.58 295.88 393.54 295.547 393.54C295.173 393.54 294.793 393.607 294.407 393.74C294.02 393.873 293.733 394.06 293.547 394.3L291.807 392.5C292.167 392.033 292.693 391.647 293.387 391.34C294.08 391.033 294.987 390.88 296.107 390.88C297.053 390.88 297.867 391.027 298.547 391.32C299.227 391.613 299.747 392.047 300.107 392.62C300.48 393.18 300.667 393.867 300.667 394.68V401H297.687V399.48H297.567C297.313 400 296.947 400.427 296.467 400.76C295.987 401.08 295.393 401.24 294.687 401.24ZM295.767 399.08C296.273 399.08 296.687 398.94 297.007 398.66C297.327 398.38 297.487 397.967 297.487 397.42V396.9L295.827 397.02C295.4 397.047 295.08 397.153 294.867 397.34C294.667 397.527 294.567 397.773 294.567 398.08C294.567 398.413 294.68 398.667 294.907 398.84C295.147 399 295.433 399.08 295.767 399.08ZM308.852 401.24C308.118 401.24 307.485 401.067 306.952 400.72C306.432 400.36 306.045 399.867 305.792 399.24H305.672V401H302.652V386.5H305.832V392.74H305.952C306.165 392.193 306.518 391.747 307.012 391.4C307.505 391.053 308.118 390.88 308.852 390.88C309.638 390.88 310.345 391.107 310.972 391.56C311.612 392 312.118 392.613 312.492 393.4C312.865 394.187 313.052 395.107 313.052 396.16C313.052 397.173 312.865 398.06 312.492 398.82C312.118 399.58 311.612 400.173 310.972 400.6C310.345 401.027 309.638 401.24 308.852 401.24ZM307.812 398.5C308.238 398.5 308.598 398.393 308.892 398.18C309.185 397.953 309.405 397.66 309.552 397.3C309.712 396.927 309.792 396.513 309.792 396.06C309.792 395.607 309.712 395.2 309.552 394.84C309.405 394.467 309.185 394.173 308.892 393.96C308.598 393.733 308.238 393.62 307.812 393.62C307.385 393.62 307.018 393.733 306.712 393.96C306.418 394.173 306.198 394.467 306.052 394.84C305.905 395.2 305.832 395.607 305.832 396.06C305.832 396.513 305.905 396.927 306.052 397.3C306.198 397.66 306.418 397.953 306.712 398.18C307.018 398.393 307.385 398.5 307.812 398.5ZM319.184 401.24C317.984 401.24 317.004 400.993 316.244 400.5C315.484 399.993 314.924 399.347 314.564 398.56C314.218 397.773 314.044 396.94 314.044 396.06C314.044 395.393 314.131 394.753 314.304 394.14C314.491 393.527 314.778 392.973 315.164 392.48C315.551 391.987 316.058 391.6 316.684 391.32C317.324 391.027 318.098 390.88 319.004 390.88C319.911 390.88 320.678 391.02 321.304 391.3C321.931 391.58 322.431 391.967 322.804 392.46C323.191 392.94 323.464 393.487 323.624 394.1C323.798 394.7 323.884 395.327 323.884 395.98C323.884 396.127 323.871 396.32 323.844 396.56C323.818 396.787 323.784 396.96 323.744 397.08H317.264C317.344 397.467 317.498 397.773 317.724 398C317.964 398.227 318.231 398.393 318.524 398.5C318.831 398.593 319.111 398.64 319.364 398.64C319.831 398.64 320.231 398.567 320.564 398.42C320.911 398.273 321.178 398.08 321.364 397.84L323.104 399.66C322.784 400.113 322.278 400.493 321.584 400.8C320.891 401.093 320.091 401.24 319.184 401.24ZM319.004 393.24C318.724 393.24 318.458 393.3 318.204 393.42C317.964 393.527 317.751 393.707 317.564 393.96C317.391 394.213 317.271 394.553 317.204 394.98H320.764C320.711 394.553 320.591 394.213 320.404 393.96C320.231 393.707 320.024 393.527 319.784 393.42C319.544 393.3 319.284 393.24 319.004 393.24ZM325.425 401V386.5H328.605V401H325.425Z" fill="white"/>
</g>
<g clip-path="url(#clip2_25451_17866)">
<path d="M142 394C142 380.745 152.745 370 166 370H216C229.255 370 240 380.745 240 394C240 407.255 229.255 418 216 418H166C152.745 418 142 407.255 142 394Z" fill="white" fill-opacity="0.01"/>
<path d="M167.542 401V388H170.922V398.3H176.202V401H167.542ZM180.687 401.24C180.1 401.24 179.553 401.12 179.047 400.88C178.54 400.64 178.133 400.3 177.827 399.86C177.52 399.407 177.367 398.86 177.367 398.22C177.367 397.62 177.507 397.107 177.787 396.68C178.08 396.24 178.52 395.893 179.107 395.64C179.707 395.387 180.467 395.233 181.387 395.18L183.487 395.06V394.9C183.487 394.527 183.393 394.247 183.207 394.06C183.02 393.86 182.78 393.727 182.487 393.66C182.193 393.58 181.88 393.54 181.547 393.54C181.173 393.54 180.793 393.607 180.407 393.74C180.02 393.873 179.733 394.06 179.547 394.3L177.807 392.5C178.167 392.033 178.693 391.647 179.387 391.34C180.08 391.033 180.987 390.88 182.107 390.88C183.053 390.88 183.867 391.027 184.547 391.32C185.227 391.613 185.747 392.047 186.107 392.62C186.48 393.18 186.667 393.867 186.667 394.68V401H183.687V399.48H183.567C183.313 400 182.947 400.427 182.467 400.76C181.987 401.08 181.393 401.24 180.687 401.24ZM181.767 399.08C182.273 399.08 182.687 398.94 183.007 398.66C183.327 398.38 183.487 397.967 183.487 397.42V396.9L181.827 397.02C181.4 397.047 181.08 397.153 180.867 397.34C180.667 397.527 180.567 397.773 180.567 398.08C180.567 398.413 180.68 398.667 180.907 398.84C181.147 399 181.433 399.08 181.767 399.08ZM194.852 401.24C194.118 401.24 193.485 401.067 192.952 400.72C192.432 400.36 192.045 399.867 191.792 399.24H191.672V401H188.652V386.5H191.832V392.74H191.952C192.165 392.193 192.518 391.747 193.012 391.4C193.505 391.053 194.118 390.88 194.852 390.88C195.638 390.88 196.345 391.107 196.972 391.56C197.612 392 198.118 392.613 198.492 393.4C198.865 394.187 199.052 395.107 199.052 396.16C199.052 397.173 198.865 398.06 198.492 398.82C198.118 399.58 197.612 400.173 196.972 400.6C196.345 401.027 195.638 401.24 194.852 401.24ZM193.812 398.5C194.238 398.5 194.598 398.393 194.892 398.18C195.185 397.953 195.405 397.66 195.552 397.3C195.712 396.927 195.792 396.513 195.792 396.06C195.792 395.607 195.712 395.2 195.552 394.84C195.405 394.467 195.185 394.173 194.892 393.96C194.598 393.733 194.238 393.62 193.812 393.62C193.385 393.62 193.018 393.733 192.712 393.96C192.418 394.173 192.198 394.467 192.052 394.84C191.905 395.2 191.832 395.607 191.832 396.06C191.832 396.513 191.905 396.927 192.052 397.3C192.198 397.66 192.418 397.953 192.712 398.18C193.018 398.393 193.385 398.5 193.812 398.5ZM205.184 401.24C203.984 401.24 203.004 400.993 202.244 400.5C201.484 399.993 200.924 399.347 200.564 398.56C200.218 397.773 200.044 396.94 200.044 396.06C200.044 395.393 200.131 394.753 200.304 394.14C200.491 393.527 200.778 392.973 201.164 392.48C201.551 391.987 202.058 391.6 202.684 391.32C203.324 391.027 204.098 390.88 205.004 390.88C205.911 390.88 206.678 391.02 207.304 391.3C207.931 391.58 208.431 391.967 208.804 392.46C209.191 392.94 209.464 393.487 209.624 394.1C209.798 394.7 209.884 395.327 209.884 395.98C209.884 396.127 209.871 396.32 209.844 396.56C209.818 396.787 209.784 396.96 209.744 397.08H203.264C203.344 397.467 203.498 397.773 203.724 398C203.964 398.227 204.231 398.393 204.524 398.5C204.831 398.593 205.111 398.64 205.364 398.64C205.831 398.64 206.231 398.567 206.564 398.42C206.911 398.273 207.178 398.08 207.364 397.84L209.104 399.66C208.784 400.113 208.278 400.493 207.584 400.8C206.891 401.093 206.091 401.24 205.184 401.24ZM205.004 393.24C204.724 393.24 204.458 393.3 204.204 393.42C203.964 393.527 203.751 393.707 203.564 393.96C203.391 394.213 203.271 394.553 203.204 394.98H206.764C206.711 394.553 206.591 394.213 206.404 393.96C206.231 393.707 206.024 393.527 205.784 393.42C205.544 393.3 205.284 393.24 205.004 393.24ZM211.425 401V386.5H214.605V401H211.425Z" fill="#242E30"/>
</g>
</g>
</g>
<defs>
<filter id="filter0_ddd_25451_17866" x="0" y="0" width="380" height="442" filterUnits="userSpaceOnUse" color-interpolation-filters="sRGB">
<feFlood flood-opacity="0" result="BackgroundImageFix"/>
<feColorMatrix in="SourceAlpha" type="matrix" values="0 0 0 0 0 0 0 0 0 0 0 0 0 0 0 0 0 0 127 0" result="hardAlpha"/>
<feOffset dy="-4"/>
<feGaussianBlur stdDeviation="3"/>
<feColorMatrix type="matrix" values="0 0 0 0 0 0 0 0 0 0 0 0 0 0 0 0 0 0 0.01 0"/>
<feBlend mode="normal" in2="BackgroundImageFix" result="effect1_dropShadow_25451_17866"/>
<feColorMatrix in="SourceAlpha" type="matrix" values="0 0 0 0 0 0 0 0 0 0 0 0 0 0 0 0 0 0 127 0" result="hardAlpha"/>
<feMorphology radius="2" operator="erode" in="SourceAlpha" result="effect2_dropShadow_25451_17866"/>
<feOffset dy="-2"/>
<feGaussianBlur stdDeviation="6"/>
<feColorMatrix type="matrix" values="0 0 0 0 0 0 0 0 0 0 0 0 0 0 0 0 0 0 0.03 0"/>
<feBlend mode="normal" in2="effect1_dropShadow_25451_17866" result="effect2_dropShadow_25451_17866"/>
<feColorMatrix in="SourceAlpha" type="matrix" values="0 0 0 0 0 0 0 0 0 0 0 0 0 0 0 0 0 0 127 0" result="hardAlpha"/>
<feOffset dy="-3"/>
<feGaussianBlur stdDeviation="3"/>
<feColorMatrix type="matrix" values="0 0 0 0 0 0 0 0 0 0 0 0 0 0 0 0 0 0 0.02 0"/>
<feBlend mode="normal" in2="effect2_dropShadow_25451_17866" result="effect3_dropShadow_25451_17866"/>
<feBlend mode="normal" in="SourceGraphic" in2="effect3_dropShadow_25451_17866" result="shape"/>
</filter>
<clipPath id="clip0_25451_17866">
<path d="M10 28C10 19.1634 17.1634 12 26 12H354C362.837 12 370 19.1634 370 28V434H10V28Z" fill="white"/>
</clipPath>
<clipPath id="clip1_25451_17866">
<path d="M256 394C256 380.745 266.745 370 280 370H330C343.255 370 354 380.745 354 394C354 407.255 343.255 418 330 418H280C266.745 418 256 407.255 256 394Z" fill="white"/>
</clipPath>
<clipPath id="clip2_25451_17866">
<path d="M142 394C142 380.745 152.745 370 166 370H216C229.255 370 240 380.745 240 394C240 407.255 229.255 418 216 418H166C152.745 418 142 407.255 142 394Z" fill="white"/>
</clipPath>
</defs>
</svg>
