<svg width="1328" height="422" viewBox="0 0 1328 422" fill="none" xmlns="http://www.w3.org/2000/svg">
<rect width="1328" height="422" rx="16" fill="#F6F3EF"/>
<g filter="url(#filter0_ddd_5052_3266)">
<g clip-path="url(#clip0_5052_3266)">
<path d="M484 56C484 47.1634 491.163 40 500 40H828C836.837 40 844 47.1634 844 56V378H484V56Z" fill="white"/>
<rect width="360" height="60" transform="translate(484 40)" fill="white"/>
<rect x="484" y="40" width="360" height="16" fill="white" fill-opacity="0.01"/>
<path d="M503.82 77V67.1H500.32V64H511.32V67.1H507.82V77H503.82ZM512.461 77V67.12H516.221V77H512.461ZM514.341 66.2C513.661 66.2 513.154 66.0067 512.821 65.62C512.487 65.2333 512.321 64.7933 512.321 64.3C512.321 63.7933 512.487 63.3467 512.821 62.96C513.154 62.5733 513.661 62.38 514.341 62.38C515.021 62.38 515.527 62.5733 515.861 62.96C516.207 63.3467 516.381 63.7933 516.381 64.3C516.381 64.7933 516.207 65.2333 515.861 65.62C515.527 66.0067 515.021 66.2 514.341 66.2ZM522.571 77.2C521.691 77.2 520.971 77.06 520.411 76.78C519.851 76.4867 519.431 76.04 519.151 75.44C518.885 74.8267 518.751 74.04 518.751 73.08V70.06H517.491V67.12H518.751V64.44H522.491V67.12H525.431V70.06H522.491V73.1C522.491 73.4733 522.551 73.7533 522.671 73.94C522.805 74.1267 523.045 74.22 523.391 74.22C523.631 74.22 523.858 74.1733 524.071 74.08C524.285 73.9733 524.458 73.8467 524.591 73.7L525.711 76.2C525.365 76.5333 524.931 76.7867 524.411 76.96C523.905 77.12 523.291 77.2 522.571 77.2ZM526.777 77V62.5H530.537V77H526.777ZM536.948 77.24C535.814 77.24 534.854 77.0133 534.068 76.56C533.281 76.0933 532.688 75.4733 532.288 74.7C531.888 73.9133 531.688 73.0333 531.688 72.06C531.688 71.3133 531.794 70.6267 532.008 70C532.221 69.3733 532.534 68.8267 532.948 68.36C533.374 67.88 533.908 67.5133 534.548 67.26C535.201 67.0067 535.954 66.88 536.808 66.88C537.648 66.88 538.381 67.0067 539.008 67.26C539.634 67.5133 540.154 67.8733 540.568 68.34C540.981 68.7933 541.288 69.3333 541.488 69.96C541.688 70.5733 541.788 71.2533 541.788 72C541.788 72.1733 541.768 72.3733 541.728 72.6C541.701 72.8267 541.668 73 541.628 73.12H535.308C535.374 73.4133 535.501 73.6533 535.688 73.84C535.874 74.0267 536.101 74.1667 536.368 74.26C536.648 74.34 536.928 74.38 537.208 74.38C537.608 74.38 537.961 74.32 538.268 74.2C538.574 74.08 538.814 73.9267 538.988 73.74L540.968 75.76C540.621 76.2133 540.088 76.5733 539.368 76.84C538.648 77.1067 537.841 77.24 536.948 77.24ZM536.768 69.46C536.514 69.46 536.281 69.52 536.068 69.64C535.868 69.7467 535.701 69.9133 535.568 70.14C535.434 70.3533 535.348 70.62 535.308 70.94H538.228C538.188 70.6067 538.094 70.3333 537.948 70.12C537.814 69.9067 537.648 69.7467 537.448 69.64C537.261 69.52 537.034 69.46 536.768 69.46Z" fill="black" fill-opacity="0.76"/>
<path d="M500 108C500 103.582 503.582 100 508 100H820C824.418 100 828 103.582 828 108V354C828 358.418 824.418 362 820 362H508C503.582 362 500 358.418 500 354V108Z" fill="black" fill-opacity="0.04"/>
<path d="M818 100V100.5H820C820.501 100.5 820.991 100.549 821.464 100.643L821.561 100.152C822.61 100.36 823.586 100.773 824.444 101.348L824.167 101.763C824.985 102.31 825.69 103.015 826.237 103.833L826.651 103.555C827.226 104.413 827.639 105.389 827.847 106.438L827.357 106.536C827.451 107.009 827.5 107.499 827.5 108V109.983H828V113.951H827.5V117.919H828V121.887H827.5V125.854H828V129.822H827.5V133.79H828V137.758H827.5V141.726H828V145.693H827.5V149.661H828V153.629H827.5V157.597H828V161.564H827.5V165.532H828V169.5H827.5V173.468H828V177.436H827.5V181.403H828V185.371H827.5V189.339H828V193.307H827.5V197.274H828V201.242H827.5V205.21H828V209.178H827.5V213.146H828V217.113H827.5V221.081H828V225.049H827.5V229.016H828V232.983H827.5V236.951H828V240.919H827.5V244.887H828V248.854H827.5V252.822H828V256.79H827.5V260.758H828V264.726H827.5V268.693H828V272.661H827.5V276.629H828V280.597H827.5V284.564H828V288.532H827.5V292.5H828V296.468H827.5V300.436H828V304.403H827.5V308.371H828V312.339H827.5V316.307H828V320.274H827.5V324.242H828V328.21H827.5V332.178H828V336.146H827.5V340.113H828V344.081H827.5V348.049H828V352.017H827.5V354C827.5 354.501 827.451 354.991 827.357 355.464L827.847 355.561C827.639 356.61 827.226 357.586 826.651 358.444L826.237 358.167C825.69 358.985 824.985 359.69 824.167 360.237L824.444 360.651C823.586 361.226 822.61 361.639 821.561 361.847L821.464 361.357C820.991 361.451 820.501 361.5 820 361.5H818V362H814V361.5H810V362H806V361.5H802V362H798V361.5H794V362H790V361.5H786V362H782V361.5H778V362H774V361.5H770V362H766V361.5H762V362H758V361.5H754V362H750V361.5H746V362H742V361.5H738V362H734V361.5H730V362H726V361.5H722V362H718V361.5H714V362H710V361.5H706V362H702V361.5H698V362H694V361.5H690V362H686V361.5H682V362H678V361.5H674V362H670V361.5H666V362H662V361.5H658V362H654V361.5H650V362H646V361.5H642V362H638V361.5H634V362H630V361.5H626V362H622V361.5H618V362H614V361.5H610V362H606V361.5H602V362H598V361.5H594V362H590V361.5H586V362H582V361.5H578V362H574V361.5H570V362H566V361.5H562V362H558V361.5H554V362H550V361.5H546V362H542V361.5H538V362H534V361.5H530V362H526V361.5H522V362H518V361.5H514V362H510V361.5H508C507.499 361.5 507.009 361.451 506.536 361.357L506.438 361.847C505.389 361.639 504.413 361.226 503.555 360.651L503.833 360.237C503.015 359.69 502.31 358.985 501.763 358.167L501.348 358.444C500.773 357.586 500.36 356.61 500.152 355.561L500.643 355.464C500.549 354.991 500.5 354.501 500.5 354V352.017H500V348.049H500.5V344.081H500V340.113H500.5V336.146H500V332.178H500.5V328.21H500V324.242H500.5V320.274H500V316.307H500.5V312.339H500V308.371H500.5V304.403H500V300.436H500.5V296.468H500V292.5H500.5V288.532H500V284.564H500.5V280.597H500V276.629H500.5V272.661H500V268.693H500.5V264.726H500V260.758H500.5V256.79H500V252.822H500.5V248.854H500V244.887H500.5V240.919H500V236.951H500.5V232.984H500V229.017H500.5V225.049H500V221.081H500.5V217.113H500V213.146H500.5V209.178H500V205.21H500.5V201.242H500V197.274H500.5V193.307H500V189.339H500.5V185.371H500V181.403H500.5V177.436H500V173.468H500.5V169.5H500V165.532H500.5V161.564H500V157.597H500.5V153.629H500V149.661H500.5V145.693H500V141.726H500.5V137.758H500V133.79H500.5V129.822H500V125.854H500.5V121.887H500V117.919H500.5V113.951H500V109.983H500.5V108C500.5 107.499 500.549 107.009 500.643 106.536L500.152 106.438C500.36 105.389 500.773 104.413 501.348 103.555L501.763 103.833C502.31 103.015 503.015 102.31 503.833 101.763L503.555 101.348C504.413 100.773 505.389 100.36 506.438 100.152L506.536 100.643C506.891 100.572 507.255 100.527 507.626 100.509L508 100.5H510V100H514V100.5H518V100H522V100.5H526V100H530V100.5H534V100H538V100.5H542V100H546V100.5H550V100H554V100.5H558V100H562V100.5H566V100H570V100.5H574V100H578V100.5H582V100H586V100.5H590V100H594V100.5H598V100H602V100.5H606V100H610V100.5H614V100H618V100.5H622V100H626V100.5H630V100H634V100.5H638V100H642V100.5H646V100H650V100.5H654V100H658V100.5H662V100H666V100.5H670V100H674V100.5H678V100H682V100.5H686V100H690V100.5H694V100H698V100.5H702V100H706V100.5H710V100H714V100.5H718V100H722V100.5H726V100H730V100.5H734V100H738V100.5H742V100H746V100.5H750V100H754V100.5H758V100H762V100.5H766V100H770V100.5H774V100H778V100.5H782V100H786V100.5H790V100H794V100.5H798V100H802V100.5H806V100H810V100.5H814V100H818Z" stroke="black" stroke-opacity="0.76" stroke-dasharray="4 4"/>
<path d="M654.031 209.192C653.092 209.192 652.308 209.043 651.679 208.744C651.06 208.445 650.548 208.056 650.143 207.576L651.519 206.296C651.818 206.616 652.17 206.888 652.575 207.112C652.98 207.325 653.482 207.432 654.079 207.432C654.41 207.432 654.708 207.389 654.975 207.304C655.242 207.208 655.455 207.064 655.615 206.872C655.786 206.669 655.871 206.408 655.871 206.088C655.871 205.8 655.775 205.571 655.583 205.4C655.391 205.219 655.108 205.064 654.735 204.936C654.372 204.808 653.935 204.669 653.423 204.52C653.06 204.403 652.703 204.269 652.351 204.12C652.01 203.971 651.7 203.784 651.423 203.56C651.146 203.325 650.922 203.043 650.751 202.712C650.591 202.371 650.511 201.96 650.511 201.48C650.511 200.989 650.602 200.557 650.783 200.184C650.975 199.8 651.242 199.48 651.583 199.224C651.924 198.957 652.324 198.755 652.783 198.616C653.252 198.477 653.77 198.408 654.335 198.408C655.178 198.408 655.903 198.547 656.511 198.824C657.119 199.091 657.604 199.475 657.967 199.976L656.591 201.272C656.335 200.963 656.02 200.701 655.647 200.488C655.284 200.275 654.842 200.168 654.319 200.168C654.042 200.168 653.775 200.211 653.519 200.296C653.274 200.381 653.071 200.515 652.911 200.696C652.762 200.877 652.687 201.117 652.687 201.416C652.687 201.715 652.783 201.949 652.975 202.12C653.167 202.291 653.444 202.44 653.807 202.568C654.18 202.696 654.618 202.84 655.119 203C655.492 203.117 655.85 203.251 656.191 203.4C656.543 203.549 656.858 203.741 657.135 203.976C657.412 204.2 657.631 204.483 657.791 204.824C657.962 205.155 658.047 205.56 658.047 206.04C658.047 206.552 657.946 207.005 657.743 207.4C657.551 207.784 657.274 208.115 656.911 208.392C656.559 208.659 656.138 208.861 655.647 209C655.156 209.128 654.618 209.192 654.031 209.192ZM659.72 209V197.4H661.736V209H659.72ZM667.301 209.192C666.426 209.192 665.69 209.005 665.093 208.632C664.506 208.248 664.063 207.741 663.765 207.112C663.466 206.483 663.317 205.795 663.317 205.048C663.317 204.483 663.402 203.949 663.573 203.448C663.743 202.947 663.994 202.509 664.325 202.136C664.655 201.752 665.066 201.453 665.557 201.24C666.058 201.016 666.639 200.904 667.301 200.904C668.186 200.904 668.917 201.096 669.493 201.48C670.079 201.853 670.517 202.355 670.805 202.984C671.103 203.603 671.253 204.291 671.253 205.048C671.253 205.613 671.167 206.147 670.997 206.648C670.837 207.149 670.591 207.592 670.261 207.976C669.93 208.349 669.519 208.648 669.029 208.872C668.538 209.085 667.962 209.192 667.301 209.192ZM665.381 205.048C665.381 205.56 665.455 206.008 665.605 206.392C665.765 206.765 665.983 207.053 666.261 207.256C666.549 207.459 666.895 207.56 667.301 207.56C667.706 207.56 668.047 207.459 668.325 207.256C668.602 207.053 668.815 206.765 668.965 206.392C669.125 206.008 669.205 205.56 669.205 205.048C669.205 204.525 669.125 204.077 668.965 203.704C668.815 203.331 668.602 203.043 668.325 202.84C668.047 202.637 667.706 202.536 667.301 202.536C666.895 202.536 666.549 202.637 666.261 202.84C665.983 203.043 665.765 203.331 665.605 203.704C665.455 204.077 665.381 204.525 665.381 205.048ZM675.854 209.176C675.278 209.176 674.803 209.075 674.43 208.872C674.056 208.659 673.779 208.344 673.598 207.928C673.427 207.501 673.342 206.973 673.342 206.344V202.712H672.094V201.096H673.342V198.952H675.342V201.096H677.646V202.712H675.342V206.328C675.342 206.744 675.416 207.043 675.566 207.224C675.726 207.395 675.95 207.48 676.238 207.48C676.44 207.48 676.627 207.443 676.798 207.368C676.979 207.283 677.134 207.181 677.262 207.064L677.982 208.44C677.726 208.696 677.422 208.883 677.07 209C676.718 209.117 676.312 209.176 675.854 209.176Z" fill="black" fill-opacity="0.76"/>
<path d="M592.516 241V231.752H589.556V230.6H596.836V231.752H593.876V241H592.516ZM598.579 241V229.4H599.859V234.216H599.955C600.136 233.853 600.397 233.544 600.739 233.288C601.091 233.032 601.528 232.904 602.051 232.904C602.957 232.904 603.672 233.144 604.195 233.624C604.728 234.093 604.995 234.867 604.995 235.944V241H603.715V236.184C603.715 235.373 603.549 234.803 603.219 234.472C602.899 234.131 602.424 233.96 601.795 233.96C601.197 233.96 600.723 234.168 600.371 234.584C600.029 235 599.859 235.608 599.859 236.408V241H598.579ZM607.485 241V233.096H608.765V241H607.485ZM608.125 231.816C607.858 231.816 607.65 231.736 607.501 231.576C607.352 231.416 607.277 231.224 607.277 231C607.277 230.787 607.352 230.6 607.501 230.44C607.65 230.269 607.858 230.184 608.125 230.184C608.381 230.184 608.584 230.269 608.733 230.44C608.893 230.6 608.973 230.787 608.973 231C608.973 231.224 608.893 231.416 608.733 231.576C608.584 231.736 608.381 231.816 608.125 231.816ZM613.629 241.192C612.946 241.192 612.36 241.075 611.869 240.84C611.378 240.605 610.994 240.301 610.717 239.928L611.565 239.128C611.81 239.416 612.093 239.651 612.413 239.832C612.744 240.013 613.154 240.104 613.645 240.104C614.082 240.104 614.466 240.013 614.797 239.832C615.128 239.64 615.293 239.347 615.293 238.952C615.293 238.643 615.197 238.403 615.005 238.232C614.824 238.051 614.584 237.907 614.285 237.8C613.986 237.683 613.666 237.576 613.325 237.48C612.93 237.363 612.557 237.219 612.205 237.048C611.864 236.867 611.581 236.632 611.357 236.344C611.144 236.045 611.037 235.667 611.037 235.208C611.037 234.707 611.154 234.285 611.389 233.944C611.634 233.603 611.96 233.347 612.365 233.176C612.781 232.995 613.245 232.904 613.757 232.904C614.322 232.904 614.85 233.011 615.341 233.224C615.832 233.427 616.226 233.747 616.525 234.184L615.693 234.952C615.458 234.675 615.181 234.445 614.861 234.264C614.552 234.083 614.184 233.992 613.757 233.992C613.394 233.992 613.058 234.083 612.749 234.264C612.44 234.435 612.285 234.712 612.285 235.096C612.285 235.405 612.376 235.651 612.557 235.832C612.749 236.003 612.994 236.141 613.293 236.248C613.592 236.355 613.912 236.461 614.253 236.568C614.648 236.685 615.016 236.835 615.357 237.016C615.709 237.187 615.992 237.416 616.205 237.704C616.429 237.992 616.541 238.371 616.541 238.84C616.541 239.384 616.408 239.832 616.141 240.184C615.874 240.525 615.517 240.781 615.069 240.952C614.632 241.112 614.152 241.192 613.629 241.192ZM622.594 241V233.096H623.874V241H622.594ZM623.234 231.816C622.968 231.816 622.76 231.736 622.61 231.576C622.461 231.416 622.386 231.224 622.386 231C622.386 230.787 622.461 230.6 622.61 230.44C622.76 230.269 622.968 230.184 623.234 230.184C623.49 230.184 623.693 230.269 623.842 230.44C624.002 230.6 624.082 230.787 624.082 231C624.082 231.224 624.002 231.416 623.842 231.576C623.693 231.736 623.49 231.816 623.234 231.816ZM628.738 241.192C628.056 241.192 627.469 241.075 626.978 240.84C626.488 240.605 626.104 240.301 625.826 239.928L626.674 239.128C626.92 239.416 627.202 239.651 627.522 239.832C627.853 240.013 628.264 240.104 628.754 240.104C629.192 240.104 629.576 240.013 629.906 239.832C630.237 239.64 630.402 239.347 630.402 238.952C630.402 238.643 630.306 238.403 630.114 238.232C629.933 238.051 629.693 237.907 629.394 237.8C629.096 237.683 628.776 237.576 628.434 237.48C628.04 237.363 627.666 237.219 627.314 237.048C626.973 236.867 626.69 236.632 626.466 236.344C626.253 236.045 626.146 235.667 626.146 235.208C626.146 234.707 626.264 234.285 626.498 233.944C626.744 233.603 627.069 233.347 627.474 233.176C627.89 232.995 628.354 232.904 628.866 232.904C629.432 232.904 629.96 233.011 630.45 233.224C630.941 233.427 631.336 233.747 631.634 234.184L630.802 234.952C630.568 234.675 630.29 234.445 629.97 234.264C629.661 234.083 629.293 233.992 628.866 233.992C628.504 233.992 628.168 234.083 627.858 234.264C627.549 234.435 627.394 234.712 627.394 235.096C627.394 235.405 627.485 235.651 627.666 235.832C627.858 236.003 628.104 236.141 628.402 236.248C628.701 236.355 629.021 236.461 629.362 236.568C629.757 236.685 630.125 236.835 630.466 237.016C630.818 237.187 631.101 237.416 631.314 237.704C631.538 237.992 631.65 238.371 631.65 238.84C631.65 239.384 631.517 239.832 631.25 240.184C630.984 240.525 630.626 240.781 630.178 240.952C629.741 241.112 629.261 241.192 628.738 241.192ZM639.448 241.192C638.968 241.192 638.536 241.091 638.152 240.888C637.778 240.685 637.485 240.403 637.272 240.04C637.058 239.677 636.952 239.261 636.952 238.792C636.952 238.333 637.058 237.939 637.272 237.608C637.496 237.267 637.821 236.995 638.248 236.792C638.674 236.589 639.186 236.472 639.784 236.44L641.864 236.312V235.752C641.864 235.347 641.794 235.021 641.656 234.776C641.528 234.52 641.336 234.333 641.08 234.216C640.834 234.088 640.53 234.024 640.168 234.024C639.709 234.024 639.314 234.109 638.984 234.28C638.653 234.451 638.397 234.637 638.216 234.84L637.448 234.072C637.725 233.731 638.104 233.453 638.584 233.24C639.064 233.016 639.602 232.904 640.2 232.904C640.925 232.904 641.501 233.027 641.928 233.272C642.354 233.517 642.658 233.848 642.84 234.264C643.032 234.669 643.128 235.123 643.128 235.624V241H641.928V239.656H641.832C641.629 240.125 641.33 240.499 640.936 240.776C640.541 241.053 640.045 241.192 639.448 241.192ZM639.64 240.104C640.301 240.104 640.834 239.912 641.24 239.528C641.656 239.133 641.864 238.611 641.864 237.96V237.272L639.848 237.416C639.325 237.459 638.925 237.592 638.648 237.816C638.381 238.04 638.248 238.355 638.248 238.76C638.248 239.165 638.376 239.491 638.632 239.736C638.898 239.981 639.234 240.104 639.64 240.104ZM649.548 243.96V233.096H650.764V234.712H650.86C651.041 234.168 651.382 233.731 651.884 233.4C652.385 233.069 652.961 232.904 653.612 232.904C654.316 232.904 654.929 233.085 655.452 233.448C655.974 233.8 656.38 234.291 656.668 234.92C656.966 235.549 657.116 236.264 657.116 237.064C657.116 237.864 656.966 238.573 656.668 239.192C656.38 239.811 655.974 240.301 655.452 240.664C654.929 241.016 654.316 241.192 653.612 241.192C652.961 241.192 652.401 241.037 651.932 240.728C651.462 240.419 651.126 240.024 650.924 239.544H650.828V243.96H649.548ZM653.292 240.04C653.761 240.04 654.182 239.933 654.556 239.72C654.94 239.496 655.244 239.16 655.468 238.712C655.692 238.264 655.804 237.709 655.804 237.048C655.804 236.376 655.692 235.821 655.468 235.384C655.244 234.936 654.94 234.605 654.556 234.392C654.182 234.168 653.761 234.056 653.292 234.056C652.844 234.056 652.433 234.168 652.06 234.392C651.686 234.605 651.388 234.936 651.164 235.384C650.94 235.821 650.828 236.376 650.828 237.048C650.828 237.709 650.94 238.264 651.164 238.712C651.388 239.16 651.686 239.496 652.06 239.72C652.433 239.933 652.844 240.04 653.292 240.04ZM659.173 241V229.4H660.453V241H659.173ZM664.917 241.192C664.437 241.192 664.005 241.091 663.621 240.888C663.247 240.685 662.954 240.403 662.741 240.04C662.527 239.677 662.421 239.261 662.421 238.792C662.421 238.333 662.527 237.939 662.741 237.608C662.965 237.267 663.29 236.995 663.717 236.792C664.143 236.589 664.655 236.472 665.253 236.44L667.333 236.312V235.752C667.333 235.347 667.263 235.021 667.125 234.776C666.997 234.52 666.805 234.333 666.549 234.216C666.303 234.088 665.999 234.024 665.637 234.024C665.178 234.024 664.783 234.109 664.453 234.28C664.122 234.451 663.866 234.637 663.685 234.84L662.917 234.072C663.194 233.731 663.573 233.453 664.053 233.24C664.533 233.016 665.071 232.904 665.669 232.904C666.394 232.904 666.97 233.027 667.397 233.272C667.823 233.517 668.127 233.848 668.309 234.264C668.501 234.669 668.597 235.123 668.597 235.624V241H667.397V239.656H667.301C667.098 240.125 666.799 240.499 666.405 240.776C666.01 241.053 665.514 241.192 664.917 241.192ZM665.109 240.104C665.77 240.104 666.303 239.912 666.709 239.528C667.125 239.133 667.333 238.611 667.333 237.96V237.272L665.317 237.416C664.794 237.459 664.394 237.592 664.117 237.816C663.85 238.04 663.717 238.355 663.717 238.76C663.717 239.165 663.845 239.491 664.101 239.736C664.367 239.981 664.703 240.104 665.109 240.104ZM674.181 241.192C673.327 241.192 672.629 240.995 672.085 240.6C671.541 240.205 671.141 239.693 670.885 239.064C670.639 238.424 670.517 237.752 670.517 237.048C670.517 236.333 670.639 235.661 670.885 235.032C671.13 234.403 671.519 233.891 672.053 233.496C672.597 233.101 673.295 232.904 674.149 232.904C674.81 232.904 675.354 233.016 675.781 233.24C676.218 233.464 676.586 233.763 676.885 234.136L676.085 234.888C675.829 234.611 675.557 234.397 675.269 234.248C674.991 234.088 674.629 234.008 674.181 234.008C673.722 234.008 673.311 234.131 672.949 234.376C672.597 234.621 672.319 234.973 672.117 235.432C671.925 235.88 671.829 236.419 671.829 237.048C671.829 237.987 672.053 238.728 672.501 239.272C672.949 239.816 673.519 240.088 674.213 240.088C674.639 240.088 675.007 240.013 675.317 239.864C675.626 239.704 675.914 239.475 676.181 239.176L676.949 239.944C676.65 240.317 676.271 240.621 675.813 240.856C675.365 241.08 674.821 241.192 674.181 241.192ZM681.745 241.192C680.988 241.192 680.326 241.027 679.761 240.696C679.206 240.365 678.774 239.891 678.465 239.272C678.156 238.643 678.001 237.901 678.001 237.048C678.001 236.376 678.086 235.784 678.257 235.272C678.438 234.749 678.689 234.317 679.009 233.976C679.34 233.624 679.724 233.357 680.161 233.176C680.609 232.995 681.1 232.904 681.633 232.904C682.166 232.904 682.652 232.989 683.089 233.16C683.537 233.331 683.921 233.587 684.241 233.928C684.572 234.259 684.828 234.68 685.009 235.192C685.19 235.693 685.281 236.28 685.281 236.952C685.281 237.037 685.276 237.123 685.265 237.208C685.265 237.293 685.26 237.363 685.249 237.416H679.281C679.292 237.907 679.409 238.355 679.633 238.76C679.857 239.165 680.156 239.491 680.529 239.736C680.913 239.971 681.34 240.088 681.809 240.088C682.374 240.088 682.844 239.976 683.217 239.752C683.59 239.528 683.9 239.256 684.145 238.936L684.913 239.72C684.582 240.168 684.161 240.525 683.649 240.792C683.137 241.059 682.502 241.192 681.745 241.192ZM681.633 233.96C681.132 233.96 680.71 234.077 680.369 234.312C680.028 234.547 679.766 234.845 679.585 235.208C679.414 235.571 679.324 235.949 679.313 236.344H683.937C683.926 235.949 683.83 235.571 683.649 235.208C683.478 234.845 683.222 234.547 682.881 234.312C682.55 234.077 682.134 233.96 681.633 233.96ZM687.344 241V229.4H688.624V234.216H688.72C688.902 233.853 689.163 233.544 689.504 233.288C689.856 233.032 690.294 232.904 690.816 232.904C691.723 232.904 692.438 233.144 692.96 233.624C693.494 234.093 693.76 234.867 693.76 235.944V241H692.48V236.184C692.48 235.373 692.315 234.803 691.984 234.472C691.664 234.131 691.19 233.96 690.56 233.96C689.963 233.96 689.488 234.168 689.136 234.584C688.795 235 688.624 235.608 688.624 236.408V241H687.344ZM699.371 241.192C698.528 241.192 697.824 241.005 697.259 240.632C696.704 240.259 696.288 239.757 696.011 239.128C695.733 238.499 695.595 237.805 695.595 237.048C695.595 236.472 695.669 235.933 695.819 235.432C695.979 234.931 696.213 234.493 696.523 234.12C696.843 233.736 697.237 233.437 697.707 233.224C698.187 233.011 698.741 232.904 699.371 232.904C700.213 232.904 700.907 233.091 701.451 233.464C702.005 233.837 702.416 234.339 702.683 234.968C702.96 235.587 703.099 236.28 703.099 237.048C703.099 237.624 703.019 238.163 702.859 238.664C702.709 239.165 702.48 239.608 702.171 239.992C701.861 240.365 701.472 240.659 701.003 240.872C700.544 241.085 700 241.192 699.371 241.192ZM696.907 237.048C696.907 237.656 696.997 238.195 697.179 238.664C697.36 239.123 697.632 239.485 697.995 239.752C698.357 240.008 698.816 240.136 699.371 240.136C699.915 240.136 700.363 240.008 700.715 239.752C701.077 239.485 701.344 239.123 701.515 238.664C701.696 238.195 701.787 237.656 701.787 237.048C701.787 236.44 701.696 235.907 701.515 235.448C701.344 234.979 701.077 234.616 700.715 234.36C700.363 234.093 699.915 233.96 699.371 233.96C698.816 233.96 698.357 234.093 697.995 234.36C697.632 234.616 697.36 234.979 697.179 235.448C696.997 235.907 696.907 236.44 696.907 237.048ZM705.157 241V229.4H706.437V241H705.157ZM712.005 241.192C711.301 241.192 710.688 241.011 710.165 240.648C709.642 240.285 709.232 239.795 708.933 239.176C708.645 238.547 708.501 237.832 708.501 237.032C708.501 236.232 708.645 235.523 708.933 234.904C709.232 234.275 709.642 233.784 710.165 233.432C710.688 233.08 711.301 232.904 712.005 232.904C712.656 232.904 713.216 233.059 713.685 233.368C714.154 233.677 714.49 234.072 714.693 234.552H714.789V229.4H716.069V241H714.853V239.384H714.757C714.576 239.928 714.234 240.365 713.733 240.696C713.232 241.027 712.656 241.192 712.005 241.192ZM712.325 240.04C712.784 240.04 713.194 239.933 713.557 239.72C713.93 239.496 714.229 239.16 714.453 238.712C714.677 238.264 714.789 237.709 714.789 237.048C714.789 236.376 714.677 235.821 714.453 235.384C714.229 234.936 713.93 234.605 713.557 234.392C713.194 234.168 712.784 234.056 712.325 234.056C711.856 234.056 711.429 234.168 711.045 234.392C710.672 234.605 710.373 234.936 710.149 235.384C709.925 235.821 709.813 236.376 709.813 237.048C709.813 237.709 709.925 238.264 710.149 238.712C710.373 239.16 710.672 239.496 711.045 239.72C711.429 239.933 711.856 240.04 712.325 240.04ZM721.87 241.192C721.113 241.192 720.451 241.027 719.886 240.696C719.331 240.365 718.899 239.891 718.59 239.272C718.281 238.643 718.126 237.901 718.126 237.048C718.126 236.376 718.211 235.784 718.382 235.272C718.563 234.749 718.814 234.317 719.134 233.976C719.465 233.624 719.849 233.357 720.286 233.176C720.734 232.995 721.225 232.904 721.758 232.904C722.291 232.904 722.777 232.989 723.214 233.16C723.662 233.331 724.046 233.587 724.366 233.928C724.697 234.259 724.953 234.68 725.134 235.192C725.315 235.693 725.406 236.28 725.406 236.952C725.406 237.037 725.401 237.123 725.39 237.208C725.39 237.293 725.385 237.363 725.374 237.416H719.406C719.417 237.907 719.534 238.355 719.758 238.76C719.982 239.165 720.281 239.491 720.654 239.736C721.038 239.971 721.465 240.088 721.934 240.088C722.499 240.088 722.969 239.976 723.342 239.752C723.715 239.528 724.025 239.256 724.27 238.936L725.038 239.72C724.707 240.168 724.286 240.525 723.774 240.792C723.262 241.059 722.627 241.192 721.87 241.192ZM721.758 233.96C721.257 233.96 720.835 234.077 720.494 234.312C720.153 234.547 719.891 234.845 719.71 235.208C719.539 235.571 719.449 235.949 719.438 236.344H724.062C724.051 235.949 723.955 235.571 723.774 235.208C723.603 234.845 723.347 234.547 723.006 234.312C722.675 234.077 722.259 233.96 721.758 233.96ZM727.469 241V233.096H728.685V234.376H728.781C728.952 233.96 729.197 233.613 729.517 233.336C729.848 233.048 730.248 232.904 730.717 232.904C730.909 232.904 731.096 232.925 731.277 232.968C731.469 233 731.64 233.059 731.789 233.144L731.357 234.296C731.219 234.221 731.069 234.173 730.909 234.152C730.76 234.12 730.605 234.104 730.445 234.104C729.923 234.104 729.507 234.317 729.197 234.744C728.899 235.16 728.749 235.693 728.749 236.344V241H727.469ZM732.984 239.304C733.283 239.304 733.518 239.411 733.688 239.624C733.859 239.837 733.944 240.093 733.944 240.392C733.944 240.723 733.875 241.043 733.736 241.352C733.598 241.672 733.4 241.976 733.144 242.264C732.888 242.563 732.584 242.845 732.232 243.112L731.736 242.584C731.95 242.381 732.142 242.157 732.312 241.912C732.483 241.667 732.616 241.395 732.712 241.096C732.499 241.043 732.328 240.936 732.2 240.776C732.083 240.605 732.024 240.419 732.024 240.216C732.024 240.045 732.062 239.896 732.136 239.768C732.222 239.629 732.334 239.517 732.472 239.432C732.622 239.347 732.792 239.304 732.984 239.304ZM578.805 265V257.096H580.021V258.376H580.117C580.288 257.96 580.533 257.613 580.853 257.336C581.184 257.048 581.584 256.904 582.053 256.904C582.245 256.904 582.432 256.925 582.613 256.968C582.805 257 582.976 257.059 583.125 257.144L582.693 258.296C582.555 258.221 582.405 258.173 582.245 258.152C582.096 258.12 581.941 258.104 581.781 258.104C581.259 258.104 580.843 258.317 580.533 258.744C580.235 259.16 580.085 259.693 580.085 260.344V265H578.805ZM587.471 265.192C586.714 265.192 586.053 265.027 585.487 264.696C584.933 264.365 584.501 263.891 584.191 263.272C583.882 262.643 583.727 261.901 583.727 261.048C583.727 260.376 583.813 259.784 583.983 259.272C584.165 258.749 584.415 258.317 584.735 257.976C585.066 257.624 585.45 257.357 585.887 257.176C586.335 256.995 586.826 256.904 587.359 256.904C587.893 256.904 588.378 256.989 588.815 257.16C589.263 257.331 589.647 257.587 589.967 257.928C590.298 258.259 590.554 258.68 590.735 259.192C590.917 259.693 591.007 260.28 591.007 260.952C591.007 261.037 591.002 261.123 590.991 261.208C590.991 261.293 590.986 261.363 590.975 261.416H585.007C585.018 261.907 585.135 262.355 585.359 262.76C585.583 263.165 585.882 263.491 586.255 263.736C586.639 263.971 587.066 264.088 587.535 264.088C588.101 264.088 588.57 263.976 588.943 263.752C589.317 263.528 589.626 263.256 589.871 262.936L590.639 263.72C590.309 264.168 589.887 264.525 589.375 264.792C588.863 265.059 588.229 265.192 587.471 265.192ZM587.359 257.96C586.858 257.96 586.437 258.077 586.095 258.312C585.754 258.547 585.493 258.845 585.311 259.208C585.141 259.571 585.05 259.949 585.039 260.344H589.663C589.653 259.949 589.557 259.571 589.375 259.208C589.205 258.845 588.949 258.547 588.607 258.312C588.277 258.077 587.861 257.96 587.359 257.96ZM593.071 267.96V257.096H594.287V258.712H594.383C594.564 258.168 594.906 257.731 595.407 257.4C595.908 257.069 596.484 256.904 597.135 256.904C597.839 256.904 598.452 257.085 598.975 257.448C599.498 257.8 599.903 258.291 600.191 258.92C600.49 259.549 600.639 260.264 600.639 261.064C600.639 261.864 600.49 262.573 600.191 263.192C599.903 263.811 599.498 264.301 598.975 264.664C598.452 265.016 597.839 265.192 597.135 265.192C596.484 265.192 595.924 265.037 595.455 264.728C594.986 264.419 594.65 264.024 594.447 263.544H594.351V267.96H593.071ZM596.815 264.04C597.284 264.04 597.706 263.933 598.079 263.72C598.463 263.496 598.767 263.16 598.991 262.712C599.215 262.264 599.327 261.709 599.327 261.048C599.327 260.376 599.215 259.821 598.991 259.384C598.767 258.936 598.463 258.605 598.079 258.392C597.706 258.168 597.284 258.056 596.815 258.056C596.367 258.056 595.956 258.168 595.583 258.392C595.21 258.605 594.911 258.936 594.687 259.384C594.463 259.821 594.351 260.376 594.351 261.048C594.351 261.709 594.463 262.264 594.687 262.712C594.911 263.16 595.21 263.496 595.583 263.72C595.956 263.933 596.367 264.04 596.815 264.04ZM602.696 265V253.4H603.976V265H602.696ZM608.44 265.192C607.96 265.192 607.528 265.091 607.144 264.888C606.771 264.685 606.477 264.403 606.264 264.04C606.051 263.677 605.944 263.261 605.944 262.792C605.944 262.333 606.051 261.939 606.264 261.608C606.488 261.267 606.813 260.995 607.24 260.792C607.667 260.589 608.179 260.472 608.776 260.44L610.856 260.312V259.752C610.856 259.347 610.787 259.021 610.648 258.776C610.52 258.52 610.328 258.333 610.072 258.216C609.827 258.088 609.523 258.024 609.16 258.024C608.701 258.024 608.307 258.109 607.976 258.28C607.645 258.451 607.389 258.637 607.208 258.84L606.44 258.072C606.717 257.731 607.096 257.453 607.576 257.24C608.056 257.016 608.595 256.904 609.192 256.904C609.917 256.904 610.493 257.027 610.92 257.272C611.347 257.517 611.651 257.848 611.832 258.264C612.024 258.669 612.12 259.123 612.12 259.624V265H610.92V263.656H610.824C610.621 264.125 610.323 264.499 609.928 264.776C609.533 265.053 609.037 265.192 608.44 265.192ZM608.632 264.104C609.293 264.104 609.827 263.912 610.232 263.528C610.648 263.133 610.856 262.611 610.856 261.96V261.272L608.84 261.416C608.317 261.459 607.917 261.592 607.64 261.816C607.373 262.04 607.24 262.355 607.24 262.76C607.24 263.165 607.368 263.491 607.624 263.736C607.891 263.981 608.227 264.104 608.632 264.104ZM617.704 265.192C616.851 265.192 616.152 264.995 615.608 264.6C615.064 264.205 614.664 263.693 614.408 263.064C614.163 262.424 614.04 261.752 614.04 261.048C614.04 260.333 614.163 259.661 614.408 259.032C614.653 258.403 615.043 257.891 615.576 257.496C616.12 257.101 616.819 256.904 617.672 256.904C618.333 256.904 618.877 257.016 619.304 257.24C619.741 257.464 620.109 257.763 620.408 258.136L619.608 258.888C619.352 258.611 619.08 258.397 618.792 258.248C618.515 258.088 618.152 258.008 617.704 258.008C617.245 258.008 616.835 258.131 616.472 258.376C616.12 258.621 615.843 258.973 615.64 259.432C615.448 259.88 615.352 260.419 615.352 261.048C615.352 261.987 615.576 262.728 616.024 263.272C616.472 263.816 617.043 264.088 617.736 264.088C618.163 264.088 618.531 264.013 618.84 263.864C619.149 263.704 619.437 263.475 619.704 263.176L620.472 263.944C620.173 264.317 619.795 264.621 619.336 264.856C618.888 265.08 618.344 265.192 617.704 265.192ZM625.268 265.192C624.511 265.192 623.85 265.027 623.284 264.696C622.73 264.365 622.298 263.891 621.988 263.272C621.679 262.643 621.524 261.901 621.524 261.048C621.524 260.376 621.61 259.784 621.78 259.272C621.962 258.749 622.212 258.317 622.532 257.976C622.863 257.624 623.247 257.357 623.684 257.176C624.132 256.995 624.623 256.904 625.156 256.904C625.69 256.904 626.175 256.989 626.612 257.16C627.06 257.331 627.444 257.587 627.764 257.928C628.095 258.259 628.351 258.68 628.532 259.192C628.714 259.693 628.804 260.28 628.804 260.952C628.804 261.037 628.799 261.123 628.788 261.208C628.788 261.293 628.783 261.363 628.772 261.416H622.804C622.815 261.907 622.932 262.355 623.156 262.76C623.38 263.165 623.679 263.491 624.052 263.736C624.436 263.971 624.863 264.088 625.332 264.088C625.898 264.088 626.367 263.976 626.74 263.752C627.114 263.528 627.423 263.256 627.668 262.936L628.436 263.72C628.106 264.168 627.684 264.525 627.172 264.792C626.66 265.059 626.026 265.192 625.268 265.192ZM625.156 257.96C624.655 257.96 624.234 258.077 623.892 258.312C623.551 258.547 623.29 258.845 623.108 259.208C622.938 259.571 622.847 259.949 622.836 260.344H627.46C627.45 259.949 627.354 259.571 627.172 259.208C627.002 258.845 626.746 258.547 626.404 258.312C626.074 258.077 625.658 257.96 625.156 257.96ZM634.712 265V257.096H635.928V258.344H636.024C636.216 257.928 636.482 257.587 636.824 257.32C637.176 257.043 637.613 256.904 638.136 256.904C638.765 256.904 639.298 257.021 639.736 257.256C640.173 257.48 640.493 257.821 640.696 258.28C640.856 257.981 641.048 257.731 641.272 257.528C641.496 257.325 641.762 257.171 642.072 257.064C642.392 256.957 642.749 256.904 643.144 256.904C643.73 256.904 644.237 257.011 644.664 257.224C645.09 257.427 645.421 257.752 645.656 258.2C645.89 258.648 646.008 259.229 646.008 259.944V265H644.728V260.184C644.728 259.64 644.653 259.208 644.504 258.888C644.365 258.557 644.157 258.323 643.88 258.184C643.613 258.035 643.277 257.96 642.872 257.96C642.285 257.96 641.826 258.168 641.496 258.584C641.165 259 641 259.608 641 260.408V265H639.72V260.184C639.72 259.64 639.65 259.208 639.512 258.888C639.373 258.557 639.165 258.323 638.888 258.184C638.61 258.035 638.269 257.96 637.864 257.96C637.288 257.96 636.829 258.168 636.488 258.584C636.157 259 635.992 259.608 635.992 260.408V265H634.712ZM651.675 265.192C650.917 265.192 650.256 265.027 649.691 264.696C649.136 264.365 648.704 263.891 648.395 263.272C648.085 262.643 647.931 261.901 647.931 261.048C647.931 260.376 648.016 259.784 648.187 259.272C648.368 258.749 648.619 258.317 648.939 257.976C649.269 257.624 649.653 257.357 650.091 257.176C650.539 256.995 651.029 256.904 651.563 256.904C652.096 256.904 652.581 256.989 653.019 257.16C653.467 257.331 653.851 257.587 654.171 257.928C654.501 258.259 654.757 258.68 654.939 259.192C655.12 259.693 655.211 260.28 655.211 260.952C655.211 261.037 655.205 261.123 655.195 261.208C655.195 261.293 655.189 261.363 655.179 261.416H649.211C649.221 261.907 649.339 262.355 649.563 262.76C649.787 263.165 650.085 263.491 650.459 263.736C650.843 263.971 651.269 264.088 651.739 264.088C652.304 264.088 652.773 263.976 653.147 263.752C653.52 263.528 653.829 263.256 654.075 262.936L654.843 263.72C654.512 264.168 654.091 264.525 653.579 264.792C653.067 265.059 652.432 265.192 651.675 265.192ZM651.563 257.96C651.061 257.96 650.64 258.077 650.299 258.312C649.957 258.547 649.696 258.845 649.515 259.208C649.344 259.571 649.253 259.949 649.243 260.344H653.867C653.856 259.949 653.76 259.571 653.579 259.208C653.408 258.845 653.152 258.547 652.811 258.312C652.48 258.077 652.064 257.96 651.563 257.96ZM662.878 265L660.19 257.096H661.566L663.566 263.672H663.662L665.518 257.096H667.038L668.894 263.672H668.99L670.99 257.096H672.27L669.582 265H668.142L666.286 258.456H666.19L664.35 265H662.878ZM674.055 265V257.096H675.335V265H674.055ZM674.695 255.816C674.429 255.816 674.221 255.736 674.071 255.576C673.922 255.416 673.847 255.224 673.847 255C673.847 254.787 673.922 254.6 674.071 254.44C674.221 254.269 674.429 254.184 674.695 254.184C674.951 254.184 675.154 254.269 675.303 254.44C675.463 254.6 675.543 254.787 675.543 255C675.543 255.224 675.463 255.416 675.303 255.576C675.154 255.736 674.951 255.816 674.695 255.816ZM680.487 265.192C680.018 265.192 679.629 265.096 679.319 264.904C679.01 264.712 678.781 264.435 678.631 264.072C678.493 263.709 678.423 263.283 678.423 262.792V258.136H677.015V257.096H678.423V254.952H679.687V257.096H681.975V258.136H679.687V262.68C679.687 263.192 679.783 263.549 679.975 263.752C680.178 263.955 680.434 264.056 680.743 264.056C680.957 264.056 681.149 264.019 681.319 263.944C681.49 263.859 681.65 263.747 681.799 263.608L682.375 264.504C682.13 264.739 681.847 264.909 681.527 265.016C681.218 265.133 680.871 265.192 680.487 265.192ZM684.118 265V253.4H685.398V258.216H685.494C685.675 257.853 685.936 257.544 686.278 257.288C686.63 257.032 687.067 256.904 687.59 256.904C688.496 256.904 689.211 257.144 689.734 257.624C690.267 258.093 690.534 258.867 690.534 259.944V265H689.254V260.184C689.254 259.373 689.088 258.803 688.758 258.472C688.438 258.131 687.963 257.96 687.334 257.96C686.736 257.96 686.262 258.168 685.91 258.584C685.568 259 685.398 259.608 685.398 260.408V265H684.118ZM699.876 265.192C699.022 265.192 698.324 264.995 697.78 264.6C697.236 264.205 696.836 263.693 696.58 263.064C696.334 262.424 696.212 261.752 696.212 261.048C696.212 260.333 696.334 259.661 696.58 259.032C696.825 258.403 697.214 257.891 697.748 257.496C698.292 257.101 698.99 256.904 699.844 256.904C700.505 256.904 701.049 257.016 701.476 257.24C701.913 257.464 702.281 257.763 702.58 258.136L701.78 258.888C701.524 258.611 701.252 258.397 700.964 258.248C700.686 258.088 700.324 258.008 699.876 258.008C699.417 258.008 699.006 258.131 698.644 258.376C698.292 258.621 698.014 258.973 697.812 259.432C697.62 259.88 697.524 260.419 697.524 261.048C697.524 261.987 697.748 262.728 698.196 263.272C698.644 263.816 699.214 264.088 699.908 264.088C700.334 264.088 700.702 264.013 701.012 263.864C701.321 263.704 701.609 263.475 701.876 263.176L702.644 263.944C702.345 264.317 701.966 264.621 701.508 264.856C701.06 265.08 700.516 265.192 699.876 265.192ZM707.472 265.192C706.63 265.192 705.926 265.005 705.36 264.632C704.806 264.259 704.39 263.757 704.112 263.128C703.835 262.499 703.696 261.805 703.696 261.048C703.696 260.472 703.771 259.933 703.92 259.432C704.08 258.931 704.315 258.493 704.624 258.12C704.944 257.736 705.339 257.437 705.808 257.224C706.288 257.011 706.843 256.904 707.472 256.904C708.315 256.904 709.008 257.091 709.552 257.464C710.107 257.837 710.518 258.339 710.784 258.968C711.062 259.587 711.2 260.28 711.2 261.048C711.2 261.624 711.12 262.163 710.96 262.664C710.811 263.165 710.582 263.608 710.272 263.992C709.963 264.365 709.574 264.659 709.104 264.872C708.646 265.085 708.102 265.192 707.472 265.192ZM705.008 261.048C705.008 261.656 705.099 262.195 705.28 262.664C705.462 263.123 705.734 263.485 706.096 263.752C706.459 264.008 706.918 264.136 707.472 264.136C708.016 264.136 708.464 264.008 708.816 263.752C709.179 263.485 709.446 263.123 709.616 262.664C709.798 262.195 709.888 261.656 709.888 261.048C709.888 260.44 709.798 259.907 709.616 259.448C709.446 258.979 709.179 258.616 708.816 258.36C708.464 258.093 708.016 257.96 707.472 257.96C706.918 257.96 706.459 258.093 706.096 258.36C705.734 258.616 705.462 258.979 705.28 259.448C705.099 259.907 705.008 260.44 705.008 261.048ZM713.258 265V257.096H714.474V258.344H714.57C714.698 258.067 714.864 257.821 715.066 257.608C715.269 257.384 715.509 257.213 715.786 257.096C716.064 256.968 716.378 256.904 716.73 256.904C717.637 256.904 718.352 257.144 718.874 257.624C719.408 258.093 719.674 258.867 719.674 259.944V265H718.394V260.184C718.394 259.373 718.229 258.803 717.898 258.472C717.578 258.131 717.104 257.96 716.474 257.96C715.877 257.96 715.402 258.168 715.05 258.584C714.709 259 714.538 259.608 714.538 260.408V265H713.258ZM724.675 265.192C724.205 265.192 723.816 265.096 723.507 264.904C723.197 264.712 722.968 264.435 722.819 264.072C722.68 263.709 722.611 263.283 722.611 262.792V258.136H721.203V257.096H722.611V254.952H723.875V257.096H726.163V258.136H723.875V262.68C723.875 263.192 723.971 263.549 724.163 263.752C724.365 263.955 724.621 264.056 724.931 264.056C725.144 264.056 725.336 264.019 725.507 263.944C725.677 263.859 725.837 263.747 725.987 263.608L726.563 264.504C726.317 264.739 726.035 264.909 725.715 265.016C725.405 265.133 725.059 265.192 724.675 265.192ZM731.268 265.192C730.511 265.192 729.85 265.027 729.284 264.696C728.73 264.365 728.298 263.891 727.988 263.272C727.679 262.643 727.524 261.901 727.524 261.048C727.524 260.376 727.61 259.784 727.78 259.272C727.962 258.749 728.212 258.317 728.532 257.976C728.863 257.624 729.247 257.357 729.684 257.176C730.132 256.995 730.623 256.904 731.156 256.904C731.69 256.904 732.175 256.989 732.612 257.16C733.06 257.331 733.444 257.587 733.764 257.928C734.095 258.259 734.351 258.68 734.532 259.192C734.714 259.693 734.804 260.28 734.804 260.952C734.804 261.037 734.799 261.123 734.788 261.208C734.788 261.293 734.783 261.363 734.772 261.416H728.804C728.815 261.907 728.932 262.355 729.156 262.76C729.38 263.165 729.679 263.491 730.052 263.736C730.436 263.971 730.863 264.088 731.332 264.088C731.898 264.088 732.367 263.976 732.74 263.752C733.114 263.528 733.423 263.256 733.668 262.936L734.436 263.72C734.106 264.168 733.684 264.525 733.172 264.792C732.66 265.059 732.026 265.192 731.268 265.192ZM731.156 257.96C730.655 257.96 730.234 258.077 729.892 258.312C729.551 258.547 729.29 258.845 729.108 259.208C728.938 259.571 728.847 259.949 728.836 260.344H733.46C733.45 259.949 733.354 259.571 733.172 259.208C733.002 258.845 732.746 258.547 732.404 258.312C732.074 258.077 731.658 257.96 731.156 257.96ZM736.868 265V257.096H738.084V258.344H738.18C738.308 258.067 738.473 257.821 738.676 257.608C738.878 257.384 739.118 257.213 739.396 257.096C739.673 256.968 739.988 256.904 740.34 256.904C741.246 256.904 741.961 257.144 742.484 257.624C743.017 258.093 743.284 258.867 743.284 259.944V265H742.004V260.184C742.004 259.373 741.838 258.803 741.508 258.472C741.188 258.131 740.713 257.96 740.084 257.96C739.486 257.96 739.012 258.168 738.66 258.584C738.318 259 738.148 259.608 738.148 260.408V265H736.868ZM748.284 265.192C747.815 265.192 747.426 265.096 747.116 264.904C746.807 264.712 746.578 264.435 746.428 264.072C746.29 263.709 746.22 263.283 746.22 262.792V258.136H744.812V257.096H746.22V254.952H747.484V257.096H749.772V258.136H747.484V262.68C747.484 263.192 747.58 263.549 747.772 263.752C747.975 263.955 748.231 264.056 748.54 264.056C748.754 264.056 748.946 264.019 749.116 263.944C749.287 263.859 749.447 263.747 749.596 263.608L750.172 264.504C749.927 264.739 749.644 264.909 749.324 265.016C749.015 265.133 748.668 265.192 748.284 265.192Z" fill="black" fill-opacity="0.64"/>
<rect width="360" height="16" transform="translate(484 362)" fill="white"/>
<rect width="360" height="16" transform="translate(484 362)" fill="white" fill-opacity="0.01"/>
</g>
</g>
<defs>
<filter id="filter0_ddd_5052_3266" x="474" y="28" width="380" height="358" filterUnits="userSpaceOnUse" color-interpolation-filters="sRGB">
<feFlood flood-opacity="0" result="BackgroundImageFix"/>
<feColorMatrix in="SourceAlpha" type="matrix" values="0 0 0 0 0 0 0 0 0 0 0 0 0 0 0 0 0 0 127 0" result="hardAlpha"/>
<feOffset dy="-4"/>
<feGaussianBlur stdDeviation="3"/>
<feColorMatrix type="matrix" values="0 0 0 0 0 0 0 0 0 0 0 0 0 0 0 0 0 0 0.01 0"/>
<feBlend mode="normal" in2="BackgroundImageFix" result="effect1_dropShadow_5052_3266"/>
<feColorMatrix in="SourceAlpha" type="matrix" values="0 0 0 0 0 0 0 0 0 0 0 0 0 0 0 0 0 0 127 0" result="hardAlpha"/>
<feMorphology radius="2" operator="erode" in="SourceAlpha" result="effect2_dropShadow_5052_3266"/>
<feOffset dy="-2"/>
<feGaussianBlur stdDeviation="6"/>
<feColorMatrix type="matrix" values="0 0 0 0 0 0 0 0 0 0 0 0 0 0 0 0 0 0 0.03 0"/>
<feBlend mode="normal" in2="effect1_dropShadow_5052_3266" result="effect2_dropShadow_5052_3266"/>
<feColorMatrix in="SourceAlpha" type="matrix" values="0 0 0 0 0 0 0 0 0 0 0 0 0 0 0 0 0 0 127 0" result="hardAlpha"/>
<feOffset dy="-3"/>
<feGaussianBlur stdDeviation="3"/>
<feColorMatrix type="matrix" values="0 0 0 0 0 0 0 0 0 0 0 0 0 0 0 0 0 0 0.02 0"/>
<feBlend mode="normal" in2="effect2_dropShadow_5052_3266" result="effect3_dropShadow_5052_3266"/>
<feBlend mode="normal" in="SourceGraphic" in2="effect3_dropShadow_5052_3266" result="shape"/>
</filter>
<clipPath id="clip0_5052_3266">
<path d="M484 56C484 47.1634 491.163 40 500 40H828C836.837 40 844 47.1634 844 56V378H484V56Z" fill="white"/>
</clipPath>
</defs>
</svg>
