<svg width="360" height="640" viewBox="0 0 360 640" fill="none" xmlns="http://www.w3.org/2000/svg">
<g clip-path="url(#clip0_25453_8146)">
<rect width="360" height="640" fill="#FDFDFB"/>
<rect width="360" height="640" fill="black" fill-opacity="0.55"/>
<g filter="url(#filter0_ddd_25453_8146)">
<g clip-path="url(#clip1_25453_8146)">
<path d="M0 336C0 327.163 7.16344 320 16 320H344C352.837 320 360 327.163 360 336V640H0V336Z" fill="white"/>
<rect width="360" height="80" transform="translate(0 320)" fill="white"/>
<rect y="336" width="156" height="4" fill="white" fill-opacity="0.01"/>
<rect opacity="0.5" x="164" y="336" width="32" height="4" rx="2" fill="#79747E"/>
<rect x="204" y="336" width="156" height="4" fill="white" fill-opacity="0.01"/>
<rect y="340" width="360" height="16" fill="white" fill-opacity="0.01"/>
<path d="M19.82 377V367.1H16.32V364H27.32V367.1H23.82V377H19.82ZM28.4606 377V367.12H32.2206V377H28.4606ZM30.3406 366.2C29.6606 366.2 29.154 366.007 28.8206 365.62C28.4873 365.233 28.3206 364.793 28.3206 364.3C28.3206 363.793 28.4873 363.347 28.8206 362.96C29.154 362.573 29.6606 362.38 30.3406 362.38C31.0206 362.38 31.5273 362.573 31.8606 362.96C32.2073 363.347 32.3806 363.793 32.3806 364.3C32.3806 364.793 32.2073 365.233 31.8606 365.62C31.5273 366.007 31.0206 366.2 30.3406 366.2ZM38.5713 377.2C37.6913 377.2 36.9713 377.06 36.4113 376.78C35.8513 376.487 35.4313 376.04 35.1513 375.44C34.8846 374.827 34.7513 374.04 34.7513 373.08V370.06H33.4913V367.12H34.7513V364.44H38.4913V367.12H41.4313V370.06H38.4913V373.1C38.4913 373.473 38.5513 373.753 38.6713 373.94C38.8046 374.127 39.0446 374.22 39.3913 374.22C39.6313 374.22 39.8579 374.173 40.0713 374.08C40.2846 373.973 40.4579 373.847 40.5913 373.7L41.7113 376.2C41.3646 376.533 40.9313 376.787 40.4113 376.96C39.9046 377.12 39.2913 377.2 38.5713 377.2ZM42.777 377V362.5H46.537V377H42.777ZM52.9477 377.24C51.8143 377.24 50.8543 377.013 50.0677 376.56C49.281 376.093 48.6877 375.473 48.2877 374.7C47.8877 373.913 47.6877 373.033 47.6877 372.06C47.6877 371.313 47.7943 370.627 48.0077 370C48.221 369.373 48.5343 368.827 48.9477 368.36C49.3743 367.88 49.9077 367.513 50.5477 367.26C51.201 367.007 51.9543 366.88 52.8077 366.88C53.6477 366.88 54.381 367.007 55.0077 367.26C55.6343 367.513 56.1543 367.873 56.5677 368.34C56.981 368.793 57.2877 369.333 57.4877 369.96C57.6877 370.573 57.7877 371.253 57.7877 372C57.7877 372.173 57.7677 372.373 57.7277 372.6C57.701 372.827 57.6677 373 57.6277 373.12H51.3077C51.3743 373.413 51.501 373.653 51.6877 373.84C51.8743 374.027 52.101 374.167 52.3677 374.26C52.6477 374.34 52.9277 374.38 53.2077 374.38C53.6077 374.38 53.961 374.32 54.2677 374.2C54.5743 374.08 54.8143 373.927 54.9877 373.74L56.9677 375.76C56.621 376.213 56.0877 376.573 55.3677 376.84C54.6477 377.107 53.841 377.24 52.9477 377.24ZM52.7677 369.46C52.5143 369.46 52.281 369.52 52.0677 369.64C51.8677 369.747 51.701 369.913 51.5677 370.14C51.4343 370.353 51.3477 370.62 51.3077 370.94H54.2277C54.1877 370.607 54.0943 370.333 53.9477 370.12C53.8143 369.907 53.6477 369.747 53.4477 369.64C53.261 369.52 53.0343 369.46 52.7677 369.46Z" fill="black" fill-opacity="0.76"/>
<path d="M21.856 434.192C20.9493 434.192 20.16 434.037 19.488 433.728C18.8267 433.419 18.2773 433.013 17.84 432.512C17.4133 432 17.0933 431.419 16.88 430.768C16.6773 430.117 16.576 429.451 16.576 428.768C16.576 428.096 16.672 427.44 16.864 426.8C17.0667 426.149 17.376 425.573 17.792 425.072C18.2187 424.571 18.7573 424.171 19.408 423.872C20.0693 423.563 20.8533 423.408 21.76 423.408C22.5813 423.408 23.296 423.557 23.904 423.856C24.5227 424.144 25.0507 424.517 25.488 424.976L23.76 426.56C23.5147 426.283 23.2107 426.069 22.848 425.92C22.4853 425.76 22.1173 425.68 21.744 425.68C21.04 425.68 20.464 425.952 20.016 426.496C19.5787 427.04 19.36 427.803 19.36 428.784C19.36 429.264 19.424 429.701 19.552 430.096C19.68 430.48 19.856 430.811 20.08 431.088C20.304 431.355 20.5653 431.563 20.864 431.712C21.1733 431.851 21.4987 431.92 21.84 431.92C22.2133 431.92 22.576 431.845 22.928 431.696C23.2907 431.547 23.5947 431.333 23.84 431.056L25.552 432.64C25.1253 433.099 24.6027 433.472 23.984 433.76C23.376 434.048 22.6667 434.192 21.856 434.192ZM28.9135 434.192C28.5615 434.192 28.2202 434.139 27.8895 434.032C27.5695 433.925 27.2868 433.771 27.0415 433.568C26.8068 433.355 26.6148 433.099 26.4655 432.8C26.3268 432.501 26.2575 432.16 26.2575 431.776C26.2575 431.051 26.5135 430.48 27.0255 430.064C27.5482 429.648 28.3642 429.408 29.4735 429.344L31.1535 429.248V429.12C31.1535 428.896 31.1055 428.715 31.0095 428.576C30.9242 428.437 30.8068 428.331 30.6575 428.256C30.5188 428.171 30.3535 428.112 30.1615 428.08C29.9802 428.048 29.7935 428.032 29.6015 428.032C29.3028 428.032 28.9988 428.085 28.6895 428.192C28.3802 428.299 28.1508 428.448 28.0015 428.64L26.6095 427.2C26.8975 426.837 27.3188 426.533 27.8735 426.288C28.4282 426.032 29.1535 425.904 30.0495 425.904C31.1908 425.904 32.0815 426.165 32.7215 426.688C33.3722 427.211 33.6975 427.963 33.6975 428.944V434H31.3135V432.784H31.2175C31.0148 433.2 30.7215 433.541 30.3375 433.808C29.9642 434.064 29.4895 434.192 28.9135 434.192ZM29.7775 432.464C30.1828 432.464 30.5135 432.357 30.7695 432.144C31.0255 431.92 31.1535 431.584 31.1535 431.136V430.72L29.8255 430.816C29.4842 430.837 29.2282 430.923 29.0575 431.072C28.8975 431.221 28.8175 431.419 28.8175 431.664C28.8175 431.941 28.9082 432.144 29.0895 432.272C29.2815 432.4 29.5108 432.464 29.7775 432.464ZM38.7575 434.176C37.7548 434.176 37.0295 433.925 36.5815 433.424C36.1442 432.923 35.9255 432.123 35.9255 431.024V428.128H34.7895V426.096H35.9255V423.952H38.4375V426.096H40.7735V428.128H38.4375V431.072C38.4375 431.424 38.4962 431.68 38.6135 431.84C38.7415 432 38.9495 432.08 39.2375 432.08C39.4295 432.08 39.6108 432.043 39.7815 431.968C39.9628 431.883 40.1122 431.781 40.2295 431.664L41.0455 433.392C40.5228 433.915 39.7602 434.176 38.7575 434.176ZM45.7773 434.192C45.0519 434.192 44.4279 434.075 43.9053 433.84C43.3933 433.605 42.9719 433.296 42.6413 432.912C42.3106 432.528 42.0653 432.091 41.9053 431.6C41.7453 431.099 41.6653 430.581 41.6653 430.048C41.6653 429.525 41.7346 429.013 41.8733 428.512C42.0226 428.011 42.2519 427.568 42.5613 427.184C42.8813 426.8 43.2919 426.491 43.7933 426.256C44.2946 426.021 44.9079 425.904 45.6333 425.904C46.3586 425.904 46.9719 426.021 47.4733 426.256C47.9746 426.48 48.3746 426.784 48.6733 427.168C48.9826 427.541 49.2013 427.973 49.3293 428.464C49.4679 428.955 49.5373 429.461 49.5373 429.984C49.5373 430.101 49.5266 430.256 49.5052 430.448C49.4839 430.629 49.4573 430.768 49.4253 430.864H44.2413C44.2839 431.099 44.3639 431.296 44.4813 431.456C44.6093 431.616 44.7533 431.744 44.9133 431.84C45.0733 431.936 45.2386 432.005 45.4093 432.048C45.5906 432.091 45.7613 432.112 45.9213 432.112C46.2946 432.112 46.6146 432.053 46.8813 431.936C47.1586 431.819 47.3719 431.664 47.5213 431.472L48.9133 432.928C48.6573 433.301 48.2519 433.605 47.6973 433.84C47.1426 434.075 46.5026 434.192 45.7773 434.192ZM45.6333 427.792C45.2919 427.792 44.9879 427.899 44.7213 428.112C44.4546 428.315 44.2786 428.672 44.1933 429.184H47.0413C46.9666 428.672 46.7959 428.315 46.5293 428.112C46.2626 427.899 45.9639 427.792 45.6333 427.792ZM54.0979 437.152C53.4045 437.152 52.7805 437.029 52.2259 436.784C51.6712 436.549 51.2659 436.261 51.0099 435.92L52.4979 434.4C52.6365 434.581 52.8605 434.731 53.1699 434.848C53.4792 434.976 53.7939 435.04 54.1139 435.04C54.3165 435.04 54.5192 435.019 54.7219 434.976C54.9245 434.933 55.1059 434.859 55.2659 434.752C55.4259 434.645 55.5539 434.501 55.6499 434.32C55.7565 434.139 55.8099 433.909 55.8099 433.632V432.144H55.7459C55.5752 432.56 55.3032 432.907 54.9299 433.184C54.5565 433.451 54.0712 433.584 53.4739 433.584C52.9939 433.584 52.5619 433.493 52.1779 433.312C51.7939 433.12 51.4632 432.853 51.1859 432.512C50.9192 432.16 50.7112 431.744 50.5619 431.264C50.4125 430.784 50.3379 430.256 50.3379 429.68C50.3379 429.115 50.4125 428.603 50.5619 428.144C50.7112 427.675 50.9245 427.28 51.2019 426.96C51.4792 426.629 51.8099 426.373 52.1939 426.192C52.5885 426.011 53.0259 425.92 53.5059 425.92C54.1032 425.92 54.5939 426.053 54.9779 426.32C55.3725 426.576 55.6659 426.939 55.8579 427.408H55.9539V426.096H58.3539V433.68C58.3539 434.245 58.2525 434.741 58.0499 435.168C57.8472 435.605 57.5592 435.968 57.1859 436.256C56.8125 436.555 56.3645 436.779 55.8419 436.928C55.3192 437.077 54.7379 437.152 54.0979 437.152ZM54.3699 431.52C54.6152 431.52 54.8285 431.472 55.0099 431.376C55.1912 431.269 55.3405 431.136 55.4579 430.976C55.5752 430.805 55.6605 430.613 55.7139 430.4C55.7779 430.187 55.8099 429.963 55.8099 429.728C55.8099 429.493 55.7779 429.269 55.7139 429.056C55.6605 428.843 55.5752 428.656 55.4579 428.496C55.3405 428.325 55.1912 428.192 55.0099 428.096C54.8285 427.989 54.6152 427.936 54.3699 427.936C54.1245 427.936 53.9112 427.989 53.7299 428.096C53.5485 428.192 53.3992 428.325 53.2819 428.496C53.1645 428.656 53.0739 428.843 53.0099 429.056C52.9565 429.269 52.9299 429.493 52.9299 429.728C52.9299 429.963 52.9565 430.187 53.0099 430.4C53.0739 430.613 53.1645 430.805 53.2819 430.976C53.3992 431.136 53.5485 431.269 53.7299 431.376C53.9112 431.472 54.1245 431.52 54.3699 431.52ZM63.7151 434.192C63.0325 434.192 62.4298 434.085 61.9071 433.872C61.3951 433.648 60.9685 433.349 60.6271 432.976C60.2858 432.592 60.0245 432.149 59.8431 431.648C59.6725 431.147 59.5871 430.613 59.5871 430.048C59.5871 429.483 59.6725 428.949 59.8431 428.448C60.0245 427.947 60.2858 427.509 60.6271 427.136C60.9685 426.752 61.3951 426.453 61.9071 426.24C62.4298 426.016 63.0325 425.904 63.7151 425.904C64.3978 425.904 64.9951 426.016 65.5071 426.24C66.0191 426.453 66.4458 426.752 66.7871 427.136C67.1285 427.509 67.3845 427.947 67.5551 428.448C67.7365 428.949 67.8271 429.483 67.8271 430.048C67.8271 430.613 67.7365 431.147 67.5551 431.648C67.3845 432.149 67.1285 432.592 66.7871 432.976C66.4458 433.349 66.0191 433.648 65.5071 433.872C64.9951 434.085 64.3978 434.192 63.7151 434.192ZM62.1791 430.048C62.1791 430.731 62.3231 431.253 62.6111 431.616C62.8991 431.979 63.2671 432.16 63.7151 432.16C64.1631 432.16 64.5258 431.979 64.8031 431.616C65.0911 431.253 65.2351 430.731 65.2351 430.048C65.2351 429.365 65.0911 428.843 64.8031 428.48C64.5258 428.117 64.1631 427.936 63.7151 427.936C63.2671 427.936 62.8991 428.117 62.6111 428.48C62.3231 428.843 62.1791 429.365 62.1791 430.048ZM69.0668 426.096H71.4508V427.456H71.5468C71.7068 426.965 71.9574 426.587 72.2988 426.32C72.6508 426.043 73.0934 425.904 73.6268 425.904C74.0428 425.904 74.4161 425.957 74.7468 426.064L74.1068 428.4C73.9894 428.325 73.8508 428.272 73.6908 428.24C73.5414 428.197 73.3921 428.176 73.2428 428.176C72.7628 428.176 72.3681 428.315 72.0588 428.592C71.7601 428.859 71.6108 429.285 71.6108 429.872V434H69.0668V426.096ZM76.8891 437.104C76.7291 437.104 76.5638 437.093 76.3931 437.072C76.2225 437.061 76.0625 437.04 75.9131 437.008V434.928C76.0198 434.949 76.1478 434.965 76.2971 434.976C76.4571 434.997 76.5958 435.008 76.7131 435.008C77.1078 435.008 77.3851 434.944 77.5451 434.816C77.7158 434.688 77.8598 434.459 77.9771 434.128L75.0811 426.096H77.8811L79.3051 431.456H79.4011L80.8411 426.096H83.4651L80.6011 434C80.4198 434.501 80.2278 434.944 80.0251 435.328C79.8225 435.712 79.5825 436.037 79.3051 436.304C79.0278 436.571 78.6918 436.768 78.2971 436.896C77.9131 437.035 77.4438 437.104 76.8891 437.104ZM88.7975 431.872H91.4535V426.416L89.3575 427.136L88.4775 425.216L92.3495 423.6H94.1575V431.872H96.5255V434H88.7975V431.872Z" fill="black" fill-opacity="0.76"/>
<path d="M21.76 486.192C20.9493 486.192 20.2347 486.048 19.616 485.76C19.008 485.472 18.496 485.083 18.08 484.592C17.664 484.101 17.3493 483.531 17.136 482.88C16.9333 482.219 16.832 481.515 16.832 480.768C16.832 480.021 16.9333 479.323 17.136 478.672C17.3493 478.021 17.664 477.456 18.08 476.976C18.496 476.485 19.008 476.101 19.616 475.824C20.2347 475.547 20.9493 475.408 21.76 475.408C22.56 475.408 23.264 475.547 23.872 475.824C24.4907 476.101 25.008 476.485 25.424 476.976C25.84 477.456 26.1493 478.021 26.352 478.672C26.5653 479.323 26.672 480.021 26.672 480.768C26.672 481.515 26.5653 482.219 26.352 482.88C26.1493 483.531 25.84 484.101 25.424 484.592C25.008 485.083 24.4907 485.472 23.872 485.76C23.264 486.048 22.56 486.192 21.76 486.192ZM21.76 485.024C22.272 485.024 22.7413 484.928 23.168 484.736C23.6053 484.544 23.9787 484.267 24.288 483.904C24.5973 483.541 24.8373 483.099 25.008 482.576C25.1893 482.043 25.28 481.44 25.28 480.768C25.28 480.096 25.1893 479.499 25.008 478.976C24.8373 478.453 24.5973 478.016 24.288 477.664C23.9787 477.301 23.6053 477.029 23.168 476.848C22.7413 476.667 22.272 476.576 21.76 476.576C21.248 476.576 20.7733 476.667 20.336 476.848C19.8987 477.029 19.5253 477.301 19.216 477.664C18.9067 478.016 18.6613 478.453 18.48 478.976C18.3093 479.499 18.224 480.096 18.224 480.768C18.224 481.44 18.3093 482.043 18.48 482.576C18.6613 483.099 18.9067 483.541 19.216 483.904C19.5253 484.267 19.8987 484.544 20.336 484.736C20.7733 484.928 21.248 485.024 21.76 485.024ZM28.86 478.096H30.076V479.712H30.172C30.268 479.445 30.4013 479.2 30.572 478.976C30.7533 478.752 30.9613 478.56 31.196 478.4C31.4413 478.24 31.708 478.117 31.996 478.032C32.2947 477.947 32.604 477.904 32.924 477.904C33.4467 477.904 33.9213 478.011 34.348 478.224C34.7853 478.427 35.1587 478.715 35.468 479.088C35.7773 479.451 36.012 479.888 36.172 480.4C36.3427 480.912 36.428 481.467 36.428 482.064C36.428 482.661 36.3427 483.216 36.172 483.728C36.012 484.229 35.7773 484.667 35.468 485.04C35.1587 485.403 34.7853 485.685 34.348 485.888C33.9213 486.091 33.4467 486.192 32.924 486.192C32.2733 486.192 31.7133 486.037 31.244 485.728C30.7747 485.419 30.4387 485.024 30.236 484.544H30.14V488.96H28.86V478.096ZM32.604 485.04C32.956 485.04 33.2813 484.981 33.58 484.864C33.8893 484.736 34.156 484.549 34.38 484.304C34.6147 484.048 34.796 483.733 34.924 483.36C35.052 482.987 35.116 482.549 35.116 482.048C35.116 481.547 35.052 481.109 34.924 480.736C34.796 480.363 34.6147 480.053 34.38 479.808C34.156 479.552 33.8893 479.365 33.58 479.248C33.2813 479.12 32.956 479.056 32.604 479.056C32.2627 479.056 31.9427 479.12 31.644 479.248C31.3453 479.365 31.084 479.552 30.86 479.808C30.636 480.053 30.46 480.363 30.332 480.736C30.204 481.109 30.14 481.547 30.14 482.048C30.14 482.549 30.204 482.987 30.332 483.36C30.46 483.733 30.636 484.048 30.86 484.304C31.084 484.549 31.3453 484.736 31.644 484.864C31.9427 484.981 32.2627 485.04 32.604 485.04ZM40.917 486.192C40.2023 486.192 39.6797 485.979 39.349 485.552C39.0183 485.125 38.853 484.539 38.853 483.792V479.136H37.445V478.096H38.853V475.952H40.117V478.096H42.405V479.136H40.117V483.68C40.117 484.192 40.213 484.549 40.405 484.752C40.6077 484.955 40.8637 485.056 41.173 485.056C41.3863 485.056 41.5783 485.019 41.749 484.944C41.9197 484.859 42.0797 484.747 42.229 484.608L42.805 485.504C42.3143 485.963 41.685 486.192 40.917 486.192ZM46.0355 476C46.0355 476.224 45.9555 476.416 45.7955 476.576C45.6462 476.736 45.4435 476.816 45.1875 476.816C44.9208 476.816 44.7128 476.736 44.5635 476.576C44.4142 476.416 44.3395 476.224 44.3395 476C44.3395 475.787 44.4142 475.6 44.5635 475.44C44.7128 475.269 44.9208 475.184 45.1875 475.184C45.4435 475.184 45.6462 475.269 45.7955 475.44C45.9555 475.6 46.0355 475.787 46.0355 476ZM44.5475 478.096H45.8275V486H44.5475V478.096ZM51.6675 486.192C51.0382 486.192 50.4835 486.085 50.0035 485.872C49.5342 485.648 49.1395 485.349 48.8195 484.976C48.5102 484.603 48.2755 484.165 48.1155 483.664C47.9662 483.163 47.8915 482.624 47.8915 482.048C47.8915 481.472 47.9662 480.933 48.1155 480.432C48.2755 479.931 48.5102 479.493 48.8195 479.12C49.1395 478.747 49.5342 478.453 50.0035 478.24C50.4835 478.016 51.0382 477.904 51.6675 477.904C52.2968 477.904 52.8408 478.016 53.2995 478.24C53.7688 478.453 54.1582 478.747 54.4675 479.12C54.7768 479.493 55.0062 479.931 55.1555 480.432C55.3155 480.933 55.3955 481.472 55.3955 482.048C55.3955 482.624 55.3155 483.163 55.1555 483.664C55.0062 484.165 54.7768 484.603 54.4675 484.976C54.1582 485.349 53.7688 485.648 53.2995 485.872C52.8408 486.085 52.2968 486.192 51.6675 486.192ZM49.2035 482.048C49.2035 482.507 49.2515 482.928 49.3475 483.312C49.4542 483.685 49.6088 484.011 49.8115 484.288C50.0142 484.555 50.2702 484.763 50.5795 484.912C50.8888 485.061 51.2515 485.136 51.6675 485.136C52.0728 485.136 52.4248 485.061 52.7235 484.912C53.0328 484.763 53.2835 484.555 53.4755 484.288C53.6782 484.011 53.8275 483.685 53.9235 483.312C54.0302 482.928 54.0835 482.507 54.0835 482.048C54.0835 481.589 54.0302 481.173 53.9235 480.8C53.8275 480.416 53.6782 480.091 53.4755 479.824C53.2835 479.547 53.0328 479.333 52.7235 479.184C52.4248 479.035 52.0728 478.96 51.6675 478.96C51.2515 478.96 50.8888 479.035 50.5795 479.184C50.2702 479.333 50.0142 479.547 49.8115 479.824C49.6088 480.091 49.4542 480.416 49.3475 480.8C49.2515 481.173 49.2035 481.589 49.2035 482.048ZM57.4538 478.096H58.6698V479.344H58.7658C58.9578 478.928 59.2298 478.587 59.5818 478.32C59.9338 478.043 60.3818 477.904 60.9258 477.904C61.8324 477.904 62.5471 478.144 63.0698 478.624C63.6031 479.104 63.8698 479.877 63.8698 480.944V486H62.5898V481.184C62.5898 480.373 62.4244 479.803 62.0938 479.472C61.7738 479.131 61.2991 478.96 60.6698 478.96C60.0618 478.96 59.5871 479.168 59.2458 479.584C58.9044 480 58.7338 480.608 58.7338 481.408V486H57.4538V478.096ZM70.4419 484.88H73.4179V477.04L70.5699 478.352L70.1539 477.456L73.6579 475.6H74.7779V484.88H77.4499V486H70.4419V484.88Z" fill="black" fill-opacity="0.76"/>
<path d="M302.523 481.444H299.835V480.492H302.523V477.678H303.643V480.492H306.331V481.444H303.643V484.37H302.523V481.444ZM307.949 483.992H309.041V480.968H307.949V479.988H309.041V478.616C309.041 477.683 309.27 476.969 309.727 476.474C310.185 475.979 310.861 475.732 311.757 475.732C312.28 475.732 312.728 475.825 313.101 476.012C313.475 476.189 313.769 476.413 313.983 476.684L313.269 477.44C313.101 477.225 312.887 477.057 312.625 476.936C312.364 476.815 312.075 476.754 311.757 476.754C311.272 476.754 310.894 476.885 310.623 477.146C310.362 477.407 310.231 477.869 310.231 478.532V479.988H312.611V480.968H310.231V483.992H312.527C312.901 483.992 313.171 483.922 313.339 483.782C313.517 483.642 313.657 483.432 313.759 483.152L314.697 483.544C314.557 484.048 314.315 484.417 313.969 484.65C313.633 484.883 313.185 485 312.625 485H307.949V483.992ZM319.516 485.168C318.938 485.168 318.438 485.047 318.018 484.804C317.608 484.561 317.267 484.23 316.996 483.81C316.735 483.381 316.539 482.881 316.408 482.312C316.287 481.733 316.226 481.113 316.226 480.45C316.226 479.787 316.287 479.171 316.408 478.602C316.539 478.023 316.735 477.524 316.996 477.104C317.267 476.675 317.608 476.339 318.018 476.096C318.438 475.853 318.938 475.732 319.516 475.732C320.095 475.732 320.59 475.853 321 476.096C321.42 476.339 321.761 476.675 322.022 477.104C322.293 477.524 322.489 478.023 322.61 478.602C322.741 479.171 322.806 479.787 322.806 480.45C322.806 481.113 322.741 481.733 322.61 482.312C322.489 482.881 322.293 483.381 322.022 483.81C321.761 484.23 321.42 484.561 321 484.804C320.59 485.047 320.095 485.168 319.516 485.168ZM319.516 484.16C319.862 484.16 320.165 484.076 320.426 483.908C320.688 483.731 320.902 483.483 321.07 483.166C321.248 482.839 321.378 482.447 321.462 481.99C321.546 481.533 321.588 481.019 321.588 480.45C321.588 479.881 321.546 479.367 321.462 478.91C321.378 478.453 321.248 478.065 321.07 477.748C320.902 477.421 320.688 477.174 320.426 477.006C320.165 476.829 319.862 476.74 319.516 476.74C319.171 476.74 318.868 476.829 318.606 477.006C318.354 477.174 318.14 477.421 317.962 477.748C317.794 478.065 317.664 478.453 317.57 478.91C317.486 479.367 317.444 479.881 317.444 480.45C317.444 481.019 317.486 481.533 317.57 481.99C317.664 482.447 317.794 482.839 317.962 483.166C318.14 483.483 318.354 483.731 318.606 483.908C318.868 484.076 319.171 484.16 319.516 484.16ZM325.461 485.168C325.2 485.168 324.994 485.084 324.845 484.916C324.696 484.748 324.621 484.557 324.621 484.342C324.621 484.118 324.696 483.927 324.845 483.768C324.994 483.6 325.2 483.516 325.461 483.516C325.732 483.516 325.937 483.6 326.077 483.768C326.226 483.927 326.301 484.118 326.301 484.342C326.301 484.557 326.226 484.748 326.077 484.916C325.937 485.084 325.732 485.168 325.461 485.168ZM331.411 485.168C330.832 485.168 330.333 485.047 329.913 484.804C329.502 484.561 329.162 484.23 328.891 483.81C328.63 483.381 328.434 482.881 328.303 482.312C328.182 481.733 328.121 481.113 328.121 480.45C328.121 479.787 328.182 479.171 328.303 478.602C328.434 478.023 328.63 477.524 328.891 477.104C329.162 476.675 329.502 476.339 329.913 476.096C330.333 475.853 330.832 475.732 331.411 475.732C331.99 475.732 332.484 475.853 332.895 476.096C333.315 476.339 333.656 476.675 333.917 477.104C334.188 477.524 334.384 478.023 334.505 478.602C334.636 479.171 334.701 479.787 334.701 480.45C334.701 481.113 334.636 481.733 334.505 482.312C334.384 482.881 334.188 483.381 333.917 483.81C333.656 484.23 333.315 484.561 332.895 484.804C332.484 485.047 331.99 485.168 331.411 485.168ZM331.411 484.16C331.756 484.16 332.06 484.076 332.321 483.908C332.582 483.731 332.797 483.483 332.965 483.166C333.142 482.839 333.273 482.447 333.357 481.99C333.441 481.533 333.483 481.019 333.483 480.45C333.483 479.881 333.441 479.367 333.357 478.91C333.273 478.453 333.142 478.065 332.965 477.748C332.797 477.421 332.582 477.174 332.321 477.006C332.06 476.829 331.756 476.74 331.411 476.74C331.066 476.74 330.762 476.829 330.501 477.006C330.249 477.174 330.034 477.421 329.857 477.748C329.689 478.065 329.558 478.453 329.465 478.91C329.381 479.367 329.339 479.881 329.339 480.45C329.339 481.019 329.381 481.533 329.465 481.99C329.558 482.447 329.689 482.839 329.857 483.166C330.034 483.483 330.249 483.731 330.501 483.908C330.762 484.076 331.066 484.16 331.411 484.16ZM339.805 485.168C339.227 485.168 338.727 485.047 338.307 484.804C337.897 484.561 337.556 484.23 337.285 483.81C337.024 483.381 336.828 482.881 336.697 482.312C336.576 481.733 336.515 481.113 336.515 480.45C336.515 479.787 336.576 479.171 336.697 478.602C336.828 478.023 337.024 477.524 337.285 477.104C337.556 476.675 337.897 476.339 338.307 476.096C338.727 475.853 339.227 475.732 339.805 475.732C340.384 475.732 340.879 475.853 341.289 476.096C341.709 476.339 342.05 476.675 342.311 477.104C342.582 477.524 342.778 478.023 342.899 478.602C343.03 479.171 343.095 479.787 343.095 480.45C343.095 481.113 343.03 481.733 342.899 482.312C342.778 482.881 342.582 483.381 342.311 483.81C342.05 484.23 341.709 484.561 341.289 484.804C340.879 485.047 340.384 485.168 339.805 485.168ZM339.805 484.16C340.151 484.16 340.454 484.076 340.715 483.908C340.977 483.731 341.191 483.483 341.359 483.166C341.537 482.839 341.667 482.447 341.751 481.99C341.835 481.533 341.877 481.019 341.877 480.45C341.877 479.881 341.835 479.367 341.751 478.91C341.667 478.453 341.537 478.065 341.359 477.748C341.191 477.421 340.977 477.174 340.715 477.006C340.454 476.829 340.151 476.74 339.805 476.74C339.46 476.74 339.157 476.829 338.895 477.006C338.643 477.174 338.429 477.421 338.251 477.748C338.083 478.065 337.953 478.453 337.859 478.91C337.775 479.367 337.733 479.881 337.733 480.45C337.733 481.019 337.775 481.533 337.859 481.99C337.953 482.447 338.083 482.839 338.251 483.166C338.429 483.483 338.643 483.731 338.895 483.908C339.157 484.076 339.46 484.16 339.805 484.16Z" fill="black" fill-opacity="0.64"/>
<rect width="360" height="1" transform="translate(0 503)" fill="black" fill-opacity="0.08"/>
<path d="M21.76 534.192C20.9493 534.192 20.2347 534.048 19.616 533.76C19.008 533.472 18.496 533.083 18.08 532.592C17.664 532.101 17.3493 531.531 17.136 530.88C16.9333 530.219 16.832 529.515 16.832 528.768C16.832 528.021 16.9333 527.323 17.136 526.672C17.3493 526.021 17.664 525.456 18.08 524.976C18.496 524.485 19.008 524.101 19.616 523.824C20.2347 523.547 20.9493 523.408 21.76 523.408C22.56 523.408 23.264 523.547 23.872 523.824C24.4907 524.101 25.008 524.485 25.424 524.976C25.84 525.456 26.1493 526.021 26.352 526.672C26.5653 527.323 26.672 528.021 26.672 528.768C26.672 529.515 26.5653 530.219 26.352 530.88C26.1493 531.531 25.84 532.101 25.424 532.592C25.008 533.083 24.4907 533.472 23.872 533.76C23.264 534.048 22.56 534.192 21.76 534.192ZM21.76 533.024C22.272 533.024 22.7413 532.928 23.168 532.736C23.6053 532.544 23.9787 532.267 24.288 531.904C24.5973 531.541 24.8373 531.099 25.008 530.576C25.1893 530.043 25.28 529.44 25.28 528.768C25.28 528.096 25.1893 527.499 25.008 526.976C24.8373 526.453 24.5973 526.016 24.288 525.664C23.9787 525.301 23.6053 525.029 23.168 524.848C22.7413 524.667 22.272 524.576 21.76 524.576C21.248 524.576 20.7733 524.667 20.336 524.848C19.8987 525.029 19.5253 525.301 19.216 525.664C18.9067 526.016 18.6613 526.453 18.48 526.976C18.3093 527.499 18.224 528.096 18.224 528.768C18.224 529.44 18.3093 530.043 18.48 530.576C18.6613 531.099 18.9067 531.541 19.216 531.904C19.5253 532.267 19.8987 532.544 20.336 532.736C20.7733 532.928 21.248 533.024 21.76 533.024ZM28.86 526.096H30.076V527.712H30.172C30.268 527.445 30.4013 527.2 30.572 526.976C30.7533 526.752 30.9613 526.56 31.196 526.4C31.4413 526.24 31.708 526.117 31.996 526.032C32.2947 525.947 32.604 525.904 32.924 525.904C33.4467 525.904 33.9213 526.011 34.348 526.224C34.7853 526.427 35.1587 526.715 35.468 527.088C35.7773 527.451 36.012 527.888 36.172 528.4C36.3427 528.912 36.428 529.467 36.428 530.064C36.428 530.661 36.3427 531.216 36.172 531.728C36.012 532.229 35.7773 532.667 35.468 533.04C35.1587 533.403 34.7853 533.685 34.348 533.888C33.9213 534.091 33.4467 534.192 32.924 534.192C32.2733 534.192 31.7133 534.037 31.244 533.728C30.7747 533.419 30.4387 533.024 30.236 532.544H30.14V536.96H28.86V526.096ZM32.604 533.04C32.956 533.04 33.2813 532.981 33.58 532.864C33.8893 532.736 34.156 532.549 34.38 532.304C34.6147 532.048 34.796 531.733 34.924 531.36C35.052 530.987 35.116 530.549 35.116 530.048C35.116 529.547 35.052 529.109 34.924 528.736C34.796 528.363 34.6147 528.053 34.38 527.808C34.156 527.552 33.8893 527.365 33.58 527.248C33.2813 527.12 32.956 527.056 32.604 527.056C32.2627 527.056 31.9427 527.12 31.644 527.248C31.3453 527.365 31.084 527.552 30.86 527.808C30.636 528.053 30.46 528.363 30.332 528.736C30.204 529.109 30.14 529.547 30.14 530.048C30.14 530.549 30.204 530.987 30.332 531.36C30.46 531.733 30.636 532.048 30.86 532.304C31.084 532.549 31.3453 532.736 31.644 532.864C31.9427 532.981 32.2627 533.04 32.604 533.04ZM40.917 534.192C40.2023 534.192 39.6797 533.979 39.349 533.552C39.0183 533.125 38.853 532.539 38.853 531.792V527.136H37.445V526.096H38.853V523.952H40.117V526.096H42.405V527.136H40.117V531.68C40.117 532.192 40.213 532.549 40.405 532.752C40.6077 532.955 40.8637 533.056 41.173 533.056C41.3863 533.056 41.5783 533.019 41.749 532.944C41.9197 532.859 42.0797 532.747 42.229 532.608L42.805 533.504C42.3143 533.963 41.685 534.192 40.917 534.192ZM46.0355 524C46.0355 524.224 45.9555 524.416 45.7955 524.576C45.6462 524.736 45.4435 524.816 45.1875 524.816C44.9208 524.816 44.7128 524.736 44.5635 524.576C44.4142 524.416 44.3395 524.224 44.3395 524C44.3395 523.787 44.4142 523.6 44.5635 523.44C44.7128 523.269 44.9208 523.184 45.1875 523.184C45.4435 523.184 45.6462 523.269 45.7955 523.44C45.9555 523.6 46.0355 523.787 46.0355 524ZM44.5475 526.096H45.8275V534H44.5475V526.096ZM51.6675 534.192C51.0382 534.192 50.4835 534.085 50.0035 533.872C49.5342 533.648 49.1395 533.349 48.8195 532.976C48.5102 532.603 48.2755 532.165 48.1155 531.664C47.9662 531.163 47.8915 530.624 47.8915 530.048C47.8915 529.472 47.9662 528.933 48.1155 528.432C48.2755 527.931 48.5102 527.493 48.8195 527.12C49.1395 526.747 49.5342 526.453 50.0035 526.24C50.4835 526.016 51.0382 525.904 51.6675 525.904C52.2968 525.904 52.8408 526.016 53.2995 526.24C53.7688 526.453 54.1582 526.747 54.4675 527.12C54.7768 527.493 55.0062 527.931 55.1555 528.432C55.3155 528.933 55.3955 529.472 55.3955 530.048C55.3955 530.624 55.3155 531.163 55.1555 531.664C55.0062 532.165 54.7768 532.603 54.4675 532.976C54.1582 533.349 53.7688 533.648 53.2995 533.872C52.8408 534.085 52.2968 534.192 51.6675 534.192ZM49.2035 530.048C49.2035 530.507 49.2515 530.928 49.3475 531.312C49.4542 531.685 49.6088 532.011 49.8115 532.288C50.0142 532.555 50.2702 532.763 50.5795 532.912C50.8888 533.061 51.2515 533.136 51.6675 533.136C52.0728 533.136 52.4248 533.061 52.7235 532.912C53.0328 532.763 53.2835 532.555 53.4755 532.288C53.6782 532.011 53.8275 531.685 53.9235 531.312C54.0302 530.928 54.0835 530.507 54.0835 530.048C54.0835 529.589 54.0302 529.173 53.9235 528.8C53.8275 528.416 53.6782 528.091 53.4755 527.824C53.2835 527.547 53.0328 527.333 52.7235 527.184C52.4248 527.035 52.0728 526.96 51.6675 526.96C51.2515 526.96 50.8888 527.035 50.5795 527.184C50.2702 527.333 50.0142 527.547 49.8115 527.824C49.6088 528.091 49.4542 528.416 49.3475 528.8C49.2515 529.173 49.2035 529.589 49.2035 530.048ZM57.4538 526.096H58.6698V527.344H58.7658C58.9578 526.928 59.2298 526.587 59.5818 526.32C59.9338 526.043 60.3818 525.904 60.9258 525.904C61.8324 525.904 62.5471 526.144 63.0698 526.624C63.6031 527.104 63.8698 527.877 63.8698 528.944V534H62.5898V529.184C62.5898 528.373 62.4244 527.803 62.0938 527.472C61.7738 527.131 61.2991 526.96 60.6698 526.96C60.0618 526.96 59.5871 527.168 59.2458 527.584C58.9044 528 58.7338 528.608 58.7338 529.408V534H57.4538V526.096ZM70.4899 532.272C70.4899 531.845 70.5645 531.472 70.7139 531.152C70.8632 530.821 71.0659 530.523 71.3219 530.256C71.5885 529.979 71.8979 529.723 72.2499 529.488C72.6125 529.253 73.0019 529.013 73.4179 528.768C73.7485 528.565 74.0419 528.379 74.2979 528.208C74.5539 528.027 74.7672 527.84 74.9379 527.648C75.1085 527.456 75.2365 527.253 75.3219 527.04C75.4072 526.827 75.4499 526.581 75.4499 526.304C75.4499 525.739 75.2685 525.312 74.9059 525.024C74.5539 524.725 74.1005 524.576 73.5459 524.576C72.9912 524.576 72.5112 524.688 72.1059 524.912C71.7005 525.125 71.3592 525.413 71.0819 525.776L70.3459 525.008C70.6659 524.528 71.0872 524.144 71.6099 523.856C72.1325 523.557 72.7619 523.408 73.4979 523.408C74.0419 523.408 74.5219 523.483 74.9379 523.632C75.3539 523.771 75.7005 523.968 75.9779 524.224C76.2659 524.469 76.4792 524.768 76.6179 525.12C76.7672 525.461 76.8419 525.835 76.8419 526.24C76.8419 526.699 76.7619 527.104 76.6019 527.456C76.4419 527.808 76.2285 528.128 75.9619 528.416C75.6952 528.704 75.3859 528.965 75.0339 529.2C74.6925 529.424 74.3299 529.643 73.9459 529.856C73.6045 530.048 73.3005 530.229 73.0339 530.4C72.7672 530.571 72.5432 530.752 72.3619 530.944C72.1912 531.136 72.0579 531.349 71.9619 531.584C71.8765 531.819 71.8339 532.096 71.8339 532.416V532.848H77.0979V534H70.4899V532.272Z" fill="black" fill-opacity="0.76"/>
<path d="M302.523 529.444H299.835V528.492H302.523V525.678H303.643V528.492H306.331V529.444H303.643V532.37H302.523V529.444ZM307.949 531.992H309.041V528.968H307.949V527.988H309.041V526.616C309.041 525.683 309.27 524.969 309.727 524.474C310.185 523.979 310.861 523.732 311.757 523.732C312.28 523.732 312.728 523.825 313.101 524.012C313.475 524.189 313.769 524.413 313.983 524.684L313.269 525.44C313.101 525.225 312.887 525.057 312.625 524.936C312.364 524.815 312.075 524.754 311.757 524.754C311.272 524.754 310.894 524.885 310.623 525.146C310.362 525.407 310.231 525.869 310.231 526.532V527.988H312.611V528.968H310.231V531.992H312.527C312.901 531.992 313.171 531.922 313.339 531.782C313.517 531.642 313.657 531.432 313.759 531.152L314.697 531.544C314.557 532.048 314.315 532.417 313.969 532.65C313.633 532.883 313.185 533 312.625 533H307.949V531.992ZM319.516 533.168C318.938 533.168 318.438 533.047 318.018 532.804C317.608 532.561 317.267 532.23 316.996 531.81C316.735 531.381 316.539 530.881 316.408 530.312C316.287 529.733 316.226 529.113 316.226 528.45C316.226 527.787 316.287 527.171 316.408 526.602C316.539 526.023 316.735 525.524 316.996 525.104C317.267 524.675 317.608 524.339 318.018 524.096C318.438 523.853 318.938 523.732 319.516 523.732C320.095 523.732 320.59 523.853 321 524.096C321.42 524.339 321.761 524.675 322.022 525.104C322.293 525.524 322.489 526.023 322.61 526.602C322.741 527.171 322.806 527.787 322.806 528.45C322.806 529.113 322.741 529.733 322.61 530.312C322.489 530.881 322.293 531.381 322.022 531.81C321.761 532.23 321.42 532.561 321 532.804C320.59 533.047 320.095 533.168 319.516 533.168ZM319.516 532.16C319.862 532.16 320.165 532.076 320.426 531.908C320.688 531.731 320.902 531.483 321.07 531.166C321.248 530.839 321.378 530.447 321.462 529.99C321.546 529.533 321.588 529.019 321.588 528.45C321.588 527.881 321.546 527.367 321.462 526.91C321.378 526.453 321.248 526.065 321.07 525.748C320.902 525.421 320.688 525.174 320.426 525.006C320.165 524.829 319.862 524.74 319.516 524.74C319.171 524.74 318.868 524.829 318.606 525.006C318.354 525.174 318.14 525.421 317.962 525.748C317.794 526.065 317.664 526.453 317.57 526.91C317.486 527.367 317.444 527.881 317.444 528.45C317.444 529.019 317.486 529.533 317.57 529.99C317.664 530.447 317.794 530.839 317.962 531.166C318.14 531.483 318.354 531.731 318.606 531.908C318.868 532.076 319.171 532.16 319.516 532.16ZM325.461 533.168C325.2 533.168 324.994 533.084 324.845 532.916C324.696 532.748 324.621 532.557 324.621 532.342C324.621 532.118 324.696 531.927 324.845 531.768C324.994 531.6 325.2 531.516 325.461 531.516C325.732 531.516 325.937 531.6 326.077 531.768C326.226 531.927 326.301 532.118 326.301 532.342C326.301 532.557 326.226 532.748 326.077 532.916C325.937 533.084 325.732 533.168 325.461 533.168ZM331.411 533.168C330.832 533.168 330.333 533.047 329.913 532.804C329.502 532.561 329.162 532.23 328.891 531.81C328.63 531.381 328.434 530.881 328.303 530.312C328.182 529.733 328.121 529.113 328.121 528.45C328.121 527.787 328.182 527.171 328.303 526.602C328.434 526.023 328.63 525.524 328.891 525.104C329.162 524.675 329.502 524.339 329.913 524.096C330.333 523.853 330.832 523.732 331.411 523.732C331.99 523.732 332.484 523.853 332.895 524.096C333.315 524.339 333.656 524.675 333.917 525.104C334.188 525.524 334.384 526.023 334.505 526.602C334.636 527.171 334.701 527.787 334.701 528.45C334.701 529.113 334.636 529.733 334.505 530.312C334.384 530.881 334.188 531.381 333.917 531.81C333.656 532.23 333.315 532.561 332.895 532.804C332.484 533.047 331.99 533.168 331.411 533.168ZM331.411 532.16C331.756 532.16 332.06 532.076 332.321 531.908C332.582 531.731 332.797 531.483 332.965 531.166C333.142 530.839 333.273 530.447 333.357 529.99C333.441 529.533 333.483 529.019 333.483 528.45C333.483 527.881 333.441 527.367 333.357 526.91C333.273 526.453 333.142 526.065 332.965 525.748C332.797 525.421 332.582 525.174 332.321 525.006C332.06 524.829 331.756 524.74 331.411 524.74C331.066 524.74 330.762 524.829 330.501 525.006C330.249 525.174 330.034 525.421 329.857 525.748C329.689 526.065 329.558 526.453 329.465 526.91C329.381 527.367 329.339 527.881 329.339 528.45C329.339 529.019 329.381 529.533 329.465 529.99C329.558 530.447 329.689 530.839 329.857 531.166C330.034 531.483 330.249 531.731 330.501 531.908C330.762 532.076 331.066 532.16 331.411 532.16ZM339.805 533.168C339.227 533.168 338.727 533.047 338.307 532.804C337.897 532.561 337.556 532.23 337.285 531.81C337.024 531.381 336.828 530.881 336.697 530.312C336.576 529.733 336.515 529.113 336.515 528.45C336.515 527.787 336.576 527.171 336.697 526.602C336.828 526.023 337.024 525.524 337.285 525.104C337.556 524.675 337.897 524.339 338.307 524.096C338.727 523.853 339.227 523.732 339.805 523.732C340.384 523.732 340.879 523.853 341.289 524.096C341.709 524.339 342.05 524.675 342.311 525.104C342.582 525.524 342.778 526.023 342.899 526.602C343.03 527.171 343.095 527.787 343.095 528.45C343.095 529.113 343.03 529.733 342.899 530.312C342.778 530.881 342.582 531.381 342.311 531.81C342.05 532.23 341.709 532.561 341.289 532.804C340.879 533.047 340.384 533.168 339.805 533.168ZM339.805 532.16C340.151 532.16 340.454 532.076 340.715 531.908C340.977 531.731 341.191 531.483 341.359 531.166C341.537 530.839 341.667 530.447 341.751 529.99C341.835 529.533 341.877 529.019 341.877 528.45C341.877 527.881 341.835 527.367 341.751 526.91C341.667 526.453 341.537 526.065 341.359 525.748C341.191 525.421 340.977 525.174 340.715 525.006C340.454 524.829 340.151 524.74 339.805 524.74C339.46 524.74 339.157 524.829 338.895 525.006C338.643 525.174 338.429 525.421 338.251 525.748C338.083 526.065 337.953 526.453 337.859 526.91C337.775 527.367 337.733 527.881 337.733 528.45C337.733 529.019 337.775 529.533 337.859 529.99C337.953 530.447 338.083 530.839 338.251 531.166C338.429 531.483 338.643 531.731 338.895 531.908C339.157 532.076 339.46 532.16 339.805 532.16Z" fill="black" fill-opacity="0.64"/>
<rect width="360" height="1" transform="translate(0 551)" fill="black" fill-opacity="0.08"/>
<path d="M21.76 582.192C20.9493 582.192 20.2347 582.048 19.616 581.76C19.008 581.472 18.496 581.083 18.08 580.592C17.664 580.101 17.3493 579.531 17.136 578.88C16.9333 578.219 16.832 577.515 16.832 576.768C16.832 576.021 16.9333 575.323 17.136 574.672C17.3493 574.021 17.664 573.456 18.08 572.976C18.496 572.485 19.008 572.101 19.616 571.824C20.2347 571.547 20.9493 571.408 21.76 571.408C22.56 571.408 23.264 571.547 23.872 571.824C24.4907 572.101 25.008 572.485 25.424 572.976C25.84 573.456 26.1493 574.021 26.352 574.672C26.5653 575.323 26.672 576.021 26.672 576.768C26.672 577.515 26.5653 578.219 26.352 578.88C26.1493 579.531 25.84 580.101 25.424 580.592C25.008 581.083 24.4907 581.472 23.872 581.76C23.264 582.048 22.56 582.192 21.76 582.192ZM21.76 581.024C22.272 581.024 22.7413 580.928 23.168 580.736C23.6053 580.544 23.9787 580.267 24.288 579.904C24.5973 579.541 24.8373 579.099 25.008 578.576C25.1893 578.043 25.28 577.44 25.28 576.768C25.28 576.096 25.1893 575.499 25.008 574.976C24.8373 574.453 24.5973 574.016 24.288 573.664C23.9787 573.301 23.6053 573.029 23.168 572.848C22.7413 572.667 22.272 572.576 21.76 572.576C21.248 572.576 20.7733 572.667 20.336 572.848C19.8987 573.029 19.5253 573.301 19.216 573.664C18.9067 574.016 18.6613 574.453 18.48 574.976C18.3093 575.499 18.224 576.096 18.224 576.768C18.224 577.44 18.3093 578.043 18.48 578.576C18.6613 579.099 18.9067 579.541 19.216 579.904C19.5253 580.267 19.8987 580.544 20.336 580.736C20.7733 580.928 21.248 581.024 21.76 581.024ZM28.86 574.096H30.076V575.712H30.172C30.268 575.445 30.4013 575.2 30.572 574.976C30.7533 574.752 30.9613 574.56 31.196 574.4C31.4413 574.24 31.708 574.117 31.996 574.032C32.2947 573.947 32.604 573.904 32.924 573.904C33.4467 573.904 33.9213 574.011 34.348 574.224C34.7853 574.427 35.1587 574.715 35.468 575.088C35.7773 575.451 36.012 575.888 36.172 576.4C36.3427 576.912 36.428 577.467 36.428 578.064C36.428 578.661 36.3427 579.216 36.172 579.728C36.012 580.229 35.7773 580.667 35.468 581.04C35.1587 581.403 34.7853 581.685 34.348 581.888C33.9213 582.091 33.4467 582.192 32.924 582.192C32.2733 582.192 31.7133 582.037 31.244 581.728C30.7747 581.419 30.4387 581.024 30.236 580.544H30.14V584.96H28.86V574.096ZM32.604 581.04C32.956 581.04 33.2813 580.981 33.58 580.864C33.8893 580.736 34.156 580.549 34.38 580.304C34.6147 580.048 34.796 579.733 34.924 579.36C35.052 578.987 35.116 578.549 35.116 578.048C35.116 577.547 35.052 577.109 34.924 576.736C34.796 576.363 34.6147 576.053 34.38 575.808C34.156 575.552 33.8893 575.365 33.58 575.248C33.2813 575.12 32.956 575.056 32.604 575.056C32.2627 575.056 31.9427 575.12 31.644 575.248C31.3453 575.365 31.084 575.552 30.86 575.808C30.636 576.053 30.46 576.363 30.332 576.736C30.204 577.109 30.14 577.547 30.14 578.048C30.14 578.549 30.204 578.987 30.332 579.36C30.46 579.733 30.636 580.048 30.86 580.304C31.084 580.549 31.3453 580.736 31.644 580.864C31.9427 580.981 32.2627 581.04 32.604 581.04ZM40.917 582.192C40.2023 582.192 39.6797 581.979 39.349 581.552C39.0183 581.125 38.853 580.539 38.853 579.792V575.136H37.445V574.096H38.853V571.952H40.117V574.096H42.405V575.136H40.117V579.68C40.117 580.192 40.213 580.549 40.405 580.752C40.6077 580.955 40.8637 581.056 41.173 581.056C41.3863 581.056 41.5783 581.019 41.749 580.944C41.9197 580.859 42.0797 580.747 42.229 580.608L42.805 581.504C42.3143 581.963 41.685 582.192 40.917 582.192ZM46.0355 572C46.0355 572.224 45.9555 572.416 45.7955 572.576C45.6462 572.736 45.4435 572.816 45.1875 572.816C44.9208 572.816 44.7128 572.736 44.5635 572.576C44.4142 572.416 44.3395 572.224 44.3395 572C44.3395 571.787 44.4142 571.6 44.5635 571.44C44.7128 571.269 44.9208 571.184 45.1875 571.184C45.4435 571.184 45.6462 571.269 45.7955 571.44C45.9555 571.6 46.0355 571.787 46.0355 572ZM44.5475 574.096H45.8275V582H44.5475V574.096ZM51.6675 582.192C51.0382 582.192 50.4835 582.085 50.0035 581.872C49.5342 581.648 49.1395 581.349 48.8195 580.976C48.5102 580.603 48.2755 580.165 48.1155 579.664C47.9662 579.163 47.8915 578.624 47.8915 578.048C47.8915 577.472 47.9662 576.933 48.1155 576.432C48.2755 575.931 48.5102 575.493 48.8195 575.12C49.1395 574.747 49.5342 574.453 50.0035 574.24C50.4835 574.016 51.0382 573.904 51.6675 573.904C52.2968 573.904 52.8408 574.016 53.2995 574.24C53.7688 574.453 54.1582 574.747 54.4675 575.12C54.7768 575.493 55.0062 575.931 55.1555 576.432C55.3155 576.933 55.3955 577.472 55.3955 578.048C55.3955 578.624 55.3155 579.163 55.1555 579.664C55.0062 580.165 54.7768 580.603 54.4675 580.976C54.1582 581.349 53.7688 581.648 53.2995 581.872C52.8408 582.085 52.2968 582.192 51.6675 582.192ZM49.2035 578.048C49.2035 578.507 49.2515 578.928 49.3475 579.312C49.4542 579.685 49.6088 580.011 49.8115 580.288C50.0142 580.555 50.2702 580.763 50.5795 580.912C50.8888 581.061 51.2515 581.136 51.6675 581.136C52.0728 581.136 52.4248 581.061 52.7235 580.912C53.0328 580.763 53.2835 580.555 53.4755 580.288C53.6782 580.011 53.8275 579.685 53.9235 579.312C54.0302 578.928 54.0835 578.507 54.0835 578.048C54.0835 577.589 54.0302 577.173 53.9235 576.8C53.8275 576.416 53.6782 576.091 53.4755 575.824C53.2835 575.547 53.0328 575.333 52.7235 575.184C52.4248 575.035 52.0728 574.96 51.6675 574.96C51.2515 574.96 50.8888 575.035 50.5795 575.184C50.2702 575.333 50.0142 575.547 49.8115 575.824C49.6088 576.091 49.4542 576.416 49.3475 576.8C49.2515 577.173 49.2035 577.589 49.2035 578.048ZM57.4538 574.096H58.6698V575.344H58.7658C58.9578 574.928 59.2298 574.587 59.5818 574.32C59.9338 574.043 60.3818 573.904 60.9258 573.904C61.8324 573.904 62.5471 574.144 63.0698 574.624C63.6031 575.104 63.8698 575.877 63.8698 576.944V582H62.5898V577.184C62.5898 576.373 62.4244 575.803 62.0938 575.472C61.7738 575.131 61.2991 574.96 60.6698 574.96C60.0618 574.96 59.5871 575.168 59.2458 575.584C58.9044 576 58.7338 576.608 58.7338 577.408V582H57.4538V574.096ZM73.3379 582.192C72.5699 582.192 71.9245 582.053 71.4019 581.776C70.8899 581.499 70.4739 581.152 70.1539 580.736L70.9699 579.936C71.2152 580.245 71.5192 580.501 71.8819 580.704C72.2552 580.907 72.7245 581.008 73.2899 581.008C73.9725 581.008 74.5112 580.848 74.9059 580.528C75.3005 580.197 75.4979 579.712 75.4979 579.072C75.4979 578.453 75.2952 578 74.8899 577.712C74.4845 577.424 73.9672 577.28 73.3379 577.28H72.3779V576.128H73.2899C73.9192 576.128 74.3832 575.963 74.6819 575.632C74.9912 575.301 75.1459 574.869 75.1459 574.336C75.1459 574.027 75.0925 573.765 74.9859 573.552C74.8899 573.328 74.7512 573.147 74.5699 573.008C74.3992 572.859 74.1965 572.752 73.9619 572.688C73.7379 572.624 73.5032 572.592 73.2579 572.592C72.7672 572.592 72.3405 572.688 71.9779 572.88C71.6152 573.072 71.3112 573.312 71.0659 573.6L70.3299 572.8C70.6392 572.416 71.0392 572.091 71.5299 571.824C72.0312 571.547 72.6339 571.408 73.3379 571.408C73.7645 571.408 74.1699 571.472 74.5539 571.6C74.9485 571.717 75.2899 571.893 75.5779 572.128C75.8765 572.352 76.1112 572.64 76.2819 572.992C76.4525 573.333 76.5379 573.728 76.5379 574.176C76.5379 574.773 76.3832 575.28 76.0739 575.696C75.7645 576.101 75.3219 576.405 74.7459 576.608V576.704C75.0339 576.757 75.3059 576.853 75.5619 576.992C75.8285 577.12 76.0579 577.291 76.2499 577.504C76.4525 577.707 76.6072 577.952 76.7139 578.24C76.8312 578.528 76.8899 578.848 76.8899 579.2C76.8899 579.659 76.8045 580.075 76.6339 580.448C76.4739 580.811 76.2392 581.125 75.9299 581.392C75.6205 581.648 75.2472 581.845 74.8099 581.984C74.3725 582.123 73.8819 582.192 73.3379 582.192Z" fill="black" fill-opacity="0.76"/>
<path d="M302.523 577.444H299.835V576.492H302.523V573.678H303.643V576.492H306.331V577.444H303.643V580.37H302.523V577.444ZM307.949 579.992H309.041V576.968H307.949V575.988H309.041V574.616C309.041 573.683 309.27 572.969 309.727 572.474C310.185 571.979 310.861 571.732 311.757 571.732C312.28 571.732 312.728 571.825 313.101 572.012C313.475 572.189 313.769 572.413 313.983 572.684L313.269 573.44C313.101 573.225 312.887 573.057 312.625 572.936C312.364 572.815 312.075 572.754 311.757 572.754C311.272 572.754 310.894 572.885 310.623 573.146C310.362 573.407 310.231 573.869 310.231 574.532V575.988H312.611V576.968H310.231V579.992H312.527C312.901 579.992 313.171 579.922 313.339 579.782C313.517 579.642 313.657 579.432 313.759 579.152L314.697 579.544C314.557 580.048 314.315 580.417 313.969 580.65C313.633 580.883 313.185 581 312.625 581H307.949V579.992ZM319.516 581.168C318.938 581.168 318.438 581.047 318.018 580.804C317.608 580.561 317.267 580.23 316.996 579.81C316.735 579.381 316.539 578.881 316.408 578.312C316.287 577.733 316.226 577.113 316.226 576.45C316.226 575.787 316.287 575.171 316.408 574.602C316.539 574.023 316.735 573.524 316.996 573.104C317.267 572.675 317.608 572.339 318.018 572.096C318.438 571.853 318.938 571.732 319.516 571.732C320.095 571.732 320.59 571.853 321 572.096C321.42 572.339 321.761 572.675 322.022 573.104C322.293 573.524 322.489 574.023 322.61 574.602C322.741 575.171 322.806 575.787 322.806 576.45C322.806 577.113 322.741 577.733 322.61 578.312C322.489 578.881 322.293 579.381 322.022 579.81C321.761 580.23 321.42 580.561 321 580.804C320.59 581.047 320.095 581.168 319.516 581.168ZM319.516 580.16C319.862 580.16 320.165 580.076 320.426 579.908C320.688 579.731 320.902 579.483 321.07 579.166C321.248 578.839 321.378 578.447 321.462 577.99C321.546 577.533 321.588 577.019 321.588 576.45C321.588 575.881 321.546 575.367 321.462 574.91C321.378 574.453 321.248 574.065 321.07 573.748C320.902 573.421 320.688 573.174 320.426 573.006C320.165 572.829 319.862 572.74 319.516 572.74C319.171 572.74 318.868 572.829 318.606 573.006C318.354 573.174 318.14 573.421 317.962 573.748C317.794 574.065 317.664 574.453 317.57 574.91C317.486 575.367 317.444 575.881 317.444 576.45C317.444 577.019 317.486 577.533 317.57 577.99C317.664 578.447 317.794 578.839 317.962 579.166C318.14 579.483 318.354 579.731 318.606 579.908C318.868 580.076 319.171 580.16 319.516 580.16ZM325.461 581.168C325.2 581.168 324.994 581.084 324.845 580.916C324.696 580.748 324.621 580.557 324.621 580.342C324.621 580.118 324.696 579.927 324.845 579.768C324.994 579.6 325.2 579.516 325.461 579.516C325.732 579.516 325.937 579.6 326.077 579.768C326.226 579.927 326.301 580.118 326.301 580.342C326.301 580.557 326.226 580.748 326.077 580.916C325.937 581.084 325.732 581.168 325.461 581.168ZM331.075 581.168C330.403 581.168 329.838 581.047 329.381 580.804C328.933 580.561 328.569 580.258 328.289 579.894L329.003 579.194C329.218 579.465 329.484 579.689 329.801 579.866C330.128 580.043 330.538 580.132 331.033 580.132C331.63 580.132 332.102 579.992 332.447 579.712C332.792 579.423 332.965 578.998 332.965 578.438C332.965 577.897 332.788 577.5 332.433 577.248C332.078 576.996 331.626 576.87 331.075 576.87H330.235V575.862H331.033C331.584 575.862 331.99 575.717 332.251 575.428C332.522 575.139 332.657 574.761 332.657 574.294C332.657 574.023 332.61 573.795 332.517 573.608C332.433 573.412 332.312 573.253 332.153 573.132C332.004 573.001 331.826 572.908 331.621 572.852C331.425 572.796 331.22 572.768 331.005 572.768C330.576 572.768 330.202 572.852 329.885 573.02C329.568 573.188 329.302 573.398 329.087 573.65L328.443 572.95C328.714 572.614 329.064 572.329 329.493 572.096C329.932 571.853 330.459 571.732 331.075 571.732C331.448 571.732 331.803 571.788 332.139 571.9C332.484 572.003 332.783 572.157 333.035 572.362C333.296 572.558 333.502 572.81 333.651 573.118C333.8 573.417 333.875 573.762 333.875 574.154C333.875 574.677 333.74 575.12 333.469 575.484C333.198 575.839 332.811 576.105 332.307 576.282V576.366C332.559 576.413 332.797 576.497 333.021 576.618C333.254 576.73 333.455 576.879 333.623 577.066C333.8 577.243 333.936 577.458 334.029 577.71C334.132 577.962 334.183 578.242 334.183 578.55C334.183 578.951 334.108 579.315 333.959 579.642C333.819 579.959 333.614 580.235 333.343 580.468C333.072 580.692 332.746 580.865 332.363 580.986C331.98 581.107 331.551 581.168 331.075 581.168ZM339.805 581.168C339.227 581.168 338.727 581.047 338.307 580.804C337.897 580.561 337.556 580.23 337.285 579.81C337.024 579.381 336.828 578.881 336.697 578.312C336.576 577.733 336.515 577.113 336.515 576.45C336.515 575.787 336.576 575.171 336.697 574.602C336.828 574.023 337.024 573.524 337.285 573.104C337.556 572.675 337.897 572.339 338.307 572.096C338.727 571.853 339.227 571.732 339.805 571.732C340.384 571.732 340.879 571.853 341.289 572.096C341.709 572.339 342.05 572.675 342.311 573.104C342.582 573.524 342.778 574.023 342.899 574.602C343.03 575.171 343.095 575.787 343.095 576.45C343.095 577.113 343.03 577.733 342.899 578.312C342.778 578.881 342.582 579.381 342.311 579.81C342.05 580.23 341.709 580.561 341.289 580.804C340.879 581.047 340.384 581.168 339.805 581.168ZM339.805 580.16C340.151 580.16 340.454 580.076 340.715 579.908C340.977 579.731 341.191 579.483 341.359 579.166C341.537 578.839 341.667 578.447 341.751 577.99C341.835 577.533 341.877 577.019 341.877 576.45C341.877 575.881 341.835 575.367 341.751 574.91C341.667 574.453 341.537 574.065 341.359 573.748C341.191 573.421 340.977 573.174 340.715 573.006C340.454 572.829 340.151 572.74 339.805 572.74C339.46 572.74 339.157 572.829 338.895 573.006C338.643 573.174 338.429 573.421 338.251 573.748C338.083 574.065 337.953 574.453 337.859 574.91C337.775 575.367 337.733 575.881 337.733 576.45C337.733 577.019 337.775 577.533 337.859 577.99C337.953 578.447 338.083 578.839 338.251 579.166C338.429 579.483 338.643 579.731 338.895 579.908C339.157 580.076 339.46 580.16 339.805 580.16Z" fill="black" fill-opacity="0.64"/>
<rect width="360" height="1" transform="translate(0 599)" fill="black" fill-opacity="0.08"/>
<path d="M21.76 630.192C20.9493 630.192 20.2347 630.048 19.616 629.76C19.008 629.472 18.496 629.083 18.08 628.592C17.664 628.101 17.3493 627.531 17.136 626.88C16.9333 626.219 16.832 625.515 16.832 624.768C16.832 624.021 16.9333 623.323 17.136 622.672C17.3493 622.021 17.664 621.456 18.08 620.976C18.496 620.485 19.008 620.101 19.616 619.824C20.2347 619.547 20.9493 619.408 21.76 619.408C22.56 619.408 23.264 619.547 23.872 619.824C24.4907 620.101 25.008 620.485 25.424 620.976C25.84 621.456 26.1493 622.021 26.352 622.672C26.5653 623.323 26.672 624.021 26.672 624.768C26.672 625.515 26.5653 626.219 26.352 626.88C26.1493 627.531 25.84 628.101 25.424 628.592C25.008 629.083 24.4907 629.472 23.872 629.76C23.264 630.048 22.56 630.192 21.76 630.192ZM21.76 629.024C22.272 629.024 22.7413 628.928 23.168 628.736C23.6053 628.544 23.9787 628.267 24.288 627.904C24.5973 627.541 24.8373 627.099 25.008 626.576C25.1893 626.043 25.28 625.44 25.28 624.768C25.28 624.096 25.1893 623.499 25.008 622.976C24.8373 622.453 24.5973 622.016 24.288 621.664C23.9787 621.301 23.6053 621.029 23.168 620.848C22.7413 620.667 22.272 620.576 21.76 620.576C21.248 620.576 20.7733 620.667 20.336 620.848C19.8987 621.029 19.5253 621.301 19.216 621.664C18.9067 622.016 18.6613 622.453 18.48 622.976C18.3093 623.499 18.224 624.096 18.224 624.768C18.224 625.44 18.3093 626.043 18.48 626.576C18.6613 627.099 18.9067 627.541 19.216 627.904C19.5253 628.267 19.8987 628.544 20.336 628.736C20.7733 628.928 21.248 629.024 21.76 629.024ZM28.86 622.096H30.076V623.712H30.172C30.268 623.445 30.4013 623.2 30.572 622.976C30.7533 622.752 30.9613 622.56 31.196 622.4C31.4413 622.24 31.708 622.117 31.996 622.032C32.2947 621.947 32.604 621.904 32.924 621.904C33.4467 621.904 33.9213 622.011 34.348 622.224C34.7853 622.427 35.1587 622.715 35.468 623.088C35.7773 623.451 36.012 623.888 36.172 624.4C36.3427 624.912 36.428 625.467 36.428 626.064C36.428 626.661 36.3427 627.216 36.172 627.728C36.012 628.229 35.7773 628.667 35.468 629.04C35.1587 629.403 34.7853 629.685 34.348 629.888C33.9213 630.091 33.4467 630.192 32.924 630.192C32.2733 630.192 31.7133 630.037 31.244 629.728C30.7747 629.419 30.4387 629.024 30.236 628.544H30.14V632.96H28.86V622.096ZM32.604 629.04C32.956 629.04 33.2813 628.981 33.58 628.864C33.8893 628.736 34.156 628.549 34.38 628.304C34.6147 628.048 34.796 627.733 34.924 627.36C35.052 626.987 35.116 626.549 35.116 626.048C35.116 625.547 35.052 625.109 34.924 624.736C34.796 624.363 34.6147 624.053 34.38 623.808C34.156 623.552 33.8893 623.365 33.58 623.248C33.2813 623.12 32.956 623.056 32.604 623.056C32.2627 623.056 31.9427 623.12 31.644 623.248C31.3453 623.365 31.084 623.552 30.86 623.808C30.636 624.053 30.46 624.363 30.332 624.736C30.204 625.109 30.14 625.547 30.14 626.048C30.14 626.549 30.204 626.987 30.332 627.36C30.46 627.733 30.636 628.048 30.86 628.304C31.084 628.549 31.3453 628.736 31.644 628.864C31.9427 628.981 32.2627 629.04 32.604 629.04ZM40.917 630.192C40.2023 630.192 39.6797 629.979 39.349 629.552C39.0183 629.125 38.853 628.539 38.853 627.792V623.136H37.445V622.096H38.853V619.952H40.117V622.096H42.405V623.136H40.117V627.68C40.117 628.192 40.213 628.549 40.405 628.752C40.6077 628.955 40.8637 629.056 41.173 629.056C41.3863 629.056 41.5783 629.019 41.749 628.944C41.9197 628.859 42.0797 628.747 42.229 628.608L42.805 629.504C42.3143 629.963 41.685 630.192 40.917 630.192ZM46.0355 620C46.0355 620.224 45.9555 620.416 45.7955 620.576C45.6462 620.736 45.4435 620.816 45.1875 620.816C44.9208 620.816 44.7128 620.736 44.5635 620.576C44.4142 620.416 44.3395 620.224 44.3395 620C44.3395 619.787 44.4142 619.6 44.5635 619.44C44.7128 619.269 44.9208 619.184 45.1875 619.184C45.4435 619.184 45.6462 619.269 45.7955 619.44C45.9555 619.6 46.0355 619.787 46.0355 620ZM44.5475 622.096H45.8275V630H44.5475V622.096ZM51.6675 630.192C51.0382 630.192 50.4835 630.085 50.0035 629.872C49.5342 629.648 49.1395 629.349 48.8195 628.976C48.5102 628.603 48.2755 628.165 48.1155 627.664C47.9662 627.163 47.8915 626.624 47.8915 626.048C47.8915 625.472 47.9662 624.933 48.1155 624.432C48.2755 623.931 48.5102 623.493 48.8195 623.12C49.1395 622.747 49.5342 622.453 50.0035 622.24C50.4835 622.016 51.0382 621.904 51.6675 621.904C52.2968 621.904 52.8408 622.016 53.2995 622.24C53.7688 622.453 54.1582 622.747 54.4675 623.12C54.7768 623.493 55.0062 623.931 55.1555 624.432C55.3155 624.933 55.3955 625.472 55.3955 626.048C55.3955 626.624 55.3155 627.163 55.1555 627.664C55.0062 628.165 54.7768 628.603 54.4675 628.976C54.1582 629.349 53.7688 629.648 53.2995 629.872C52.8408 630.085 52.2968 630.192 51.6675 630.192ZM49.2035 626.048C49.2035 626.507 49.2515 626.928 49.3475 627.312C49.4542 627.685 49.6088 628.011 49.8115 628.288C50.0142 628.555 50.2702 628.763 50.5795 628.912C50.8888 629.061 51.2515 629.136 51.6675 629.136C52.0728 629.136 52.4248 629.061 52.7235 628.912C53.0328 628.763 53.2835 628.555 53.4755 628.288C53.6782 628.011 53.8275 627.685 53.9235 627.312C54.0302 626.928 54.0835 626.507 54.0835 626.048C54.0835 625.589 54.0302 625.173 53.9235 624.8C53.8275 624.416 53.6782 624.091 53.4755 623.824C53.2835 623.547 53.0328 623.333 52.7235 623.184C52.4248 623.035 52.0728 622.96 51.6675 622.96C51.2515 622.96 50.8888 623.035 50.5795 623.184C50.2702 623.333 50.0142 623.547 49.8115 623.824C49.6088 624.091 49.4542 624.416 49.3475 624.8C49.2515 625.173 49.2035 625.589 49.2035 626.048ZM57.4538 622.096H58.6698V623.344H58.7658C58.9578 622.928 59.2298 622.587 59.5818 622.32C59.9338 622.043 60.3818 621.904 60.9258 621.904C61.8324 621.904 62.5471 622.144 63.0698 622.624C63.6031 623.104 63.8698 623.877 63.8698 624.944V630H62.5898V625.184C62.5898 624.373 62.4244 623.803 62.0938 623.472C61.7738 623.131 61.2991 622.96 60.6698 622.96C60.0618 622.96 59.5871 623.168 59.2458 623.584C58.9044 624 58.7338 624.608 58.7338 625.408V630H57.4538V622.096ZM73.3859 630.192C72.6605 630.192 72.0632 630.069 71.5939 629.824C71.1245 629.579 70.7139 629.264 70.3619 628.88L71.1779 628.064C71.4339 628.331 71.7379 628.555 72.0899 628.736C72.4419 628.917 72.8579 629.008 73.3379 629.008C74.0099 629.008 74.5432 628.832 74.9379 628.48C75.3432 628.117 75.5459 627.6 75.5459 626.928C75.5459 626.245 75.3379 625.728 74.9219 625.376C74.5059 625.013 73.9299 624.832 73.1939 624.832H71.5619L71.0499 624.32V619.6H76.3619V620.752H72.3299V623.696H73.4499C74.0259 623.696 74.5325 623.776 74.9699 623.936C75.4072 624.096 75.7699 624.32 76.0579 624.608C76.3459 624.885 76.5645 625.221 76.7139 625.616C76.8632 626.011 76.9379 626.448 76.9379 626.928C76.9379 627.376 76.8632 627.797 76.7139 628.192C76.5752 628.587 76.3565 628.933 76.0579 629.232C75.7699 629.52 75.4019 629.755 74.9539 629.936C74.5165 630.107 73.9939 630.192 73.3859 630.192Z" fill="black" fill-opacity="0.76"/>
<path d="M302.523 625.444H299.835V624.492H302.523V621.678H303.643V624.492H306.331V625.444H303.643V628.37H302.523V625.444ZM307.949 627.992H309.041V624.968H307.949V623.988H309.041V622.616C309.041 621.683 309.27 620.969 309.727 620.474C310.185 619.979 310.861 619.732 311.757 619.732C312.28 619.732 312.728 619.825 313.101 620.012C313.475 620.189 313.769 620.413 313.983 620.684L313.269 621.44C313.101 621.225 312.887 621.057 312.625 620.936C312.364 620.815 312.075 620.754 311.757 620.754C311.272 620.754 310.894 620.885 310.623 621.146C310.362 621.407 310.231 621.869 310.231 622.532V623.988H312.611V624.968H310.231V627.992H312.527C312.901 627.992 313.171 627.922 313.339 627.782C313.517 627.642 313.657 627.432 313.759 627.152L314.697 627.544C314.557 628.048 314.315 628.417 313.969 628.65C313.633 628.883 313.185 629 312.625 629H307.949V627.992ZM319.516 629.168C318.938 629.168 318.438 629.047 318.018 628.804C317.608 628.561 317.267 628.23 316.996 627.81C316.735 627.381 316.539 626.881 316.408 626.312C316.287 625.733 316.226 625.113 316.226 624.45C316.226 623.787 316.287 623.171 316.408 622.602C316.539 622.023 316.735 621.524 316.996 621.104C317.267 620.675 317.608 620.339 318.018 620.096C318.438 619.853 318.938 619.732 319.516 619.732C320.095 619.732 320.59 619.853 321 620.096C321.42 620.339 321.761 620.675 322.022 621.104C322.293 621.524 322.489 622.023 322.61 622.602C322.741 623.171 322.806 623.787 322.806 624.45C322.806 625.113 322.741 625.733 322.61 626.312C322.489 626.881 322.293 627.381 322.022 627.81C321.761 628.23 321.42 628.561 321 628.804C320.59 629.047 320.095 629.168 319.516 629.168ZM319.516 628.16C319.862 628.16 320.165 628.076 320.426 627.908C320.688 627.731 320.902 627.483 321.07 627.166C321.248 626.839 321.378 626.447 321.462 625.99C321.546 625.533 321.588 625.019 321.588 624.45C321.588 623.881 321.546 623.367 321.462 622.91C321.378 622.453 321.248 622.065 321.07 621.748C320.902 621.421 320.688 621.174 320.426 621.006C320.165 620.829 319.862 620.74 319.516 620.74C319.171 620.74 318.868 620.829 318.606 621.006C318.354 621.174 318.14 621.421 317.962 621.748C317.794 622.065 317.664 622.453 317.57 622.91C317.486 623.367 317.444 623.881 317.444 624.45C317.444 625.019 317.486 625.533 317.57 625.99C317.664 626.447 317.794 626.839 317.962 627.166C318.14 627.483 318.354 627.731 318.606 627.908C318.868 628.076 319.171 628.16 319.516 628.16ZM325.461 629.168C325.2 629.168 324.994 629.084 324.845 628.916C324.696 628.748 324.621 628.557 324.621 628.342C324.621 628.118 324.696 627.927 324.845 627.768C324.994 627.6 325.2 627.516 325.461 627.516C325.732 627.516 325.937 627.6 326.077 627.768C326.226 627.927 326.301 628.118 326.301 628.342C326.301 628.557 326.226 628.748 326.077 628.916C325.937 629.084 325.732 629.168 325.461 629.168ZM331.075 629.168C330.403 629.168 329.838 629.047 329.381 628.804C328.933 628.561 328.569 628.258 328.289 627.894L329.003 627.194C329.218 627.465 329.484 627.689 329.801 627.866C330.128 628.043 330.538 628.132 331.033 628.132C331.63 628.132 332.102 627.992 332.447 627.712C332.792 627.423 332.965 626.998 332.965 626.438C332.965 625.897 332.788 625.5 332.433 625.248C332.078 624.996 331.626 624.87 331.075 624.87H330.235V623.862H331.033C331.584 623.862 331.99 623.717 332.251 623.428C332.522 623.139 332.657 622.761 332.657 622.294C332.657 622.023 332.61 621.795 332.517 621.608C332.433 621.412 332.312 621.253 332.153 621.132C332.004 621.001 331.826 620.908 331.621 620.852C331.425 620.796 331.22 620.768 331.005 620.768C330.576 620.768 330.202 620.852 329.885 621.02C329.568 621.188 329.302 621.398 329.087 621.65L328.443 620.95C328.714 620.614 329.064 620.329 329.493 620.096C329.932 619.853 330.459 619.732 331.075 619.732C331.448 619.732 331.803 619.788 332.139 619.9C332.484 620.003 332.783 620.157 333.035 620.362C333.296 620.558 333.502 620.81 333.651 621.118C333.8 621.417 333.875 621.762 333.875 622.154C333.875 622.677 333.74 623.12 333.469 623.484C333.198 623.839 332.811 624.105 332.307 624.282V624.366C332.559 624.413 332.797 624.497 333.021 624.618C333.254 624.73 333.455 624.879 333.623 625.066C333.8 625.243 333.936 625.458 334.029 625.71C334.132 625.962 334.183 626.242 334.183 626.55C334.183 626.951 334.108 627.315 333.959 627.642C333.819 627.959 333.614 628.235 333.343 628.468C333.072 628.692 332.746 628.865 332.363 628.986C331.98 629.107 331.551 629.168 331.075 629.168ZM339.805 629.168C339.227 629.168 338.727 629.047 338.307 628.804C337.897 628.561 337.556 628.23 337.285 627.81C337.024 627.381 336.828 626.881 336.697 626.312C336.576 625.733 336.515 625.113 336.515 624.45C336.515 623.787 336.576 623.171 336.697 622.602C336.828 622.023 337.024 621.524 337.285 621.104C337.556 620.675 337.897 620.339 338.307 620.096C338.727 619.853 339.227 619.732 339.805 619.732C340.384 619.732 340.879 619.853 341.289 620.096C341.709 620.339 342.05 620.675 342.311 621.104C342.582 621.524 342.778 622.023 342.899 622.602C343.03 623.171 343.095 623.787 343.095 624.45C343.095 625.113 343.03 625.733 342.899 626.312C342.778 626.881 342.582 627.381 342.311 627.81C342.05 628.23 341.709 628.561 341.289 628.804C340.879 629.047 340.384 629.168 339.805 629.168ZM339.805 628.16C340.151 628.16 340.454 628.076 340.715 627.908C340.977 627.731 341.191 627.483 341.359 627.166C341.537 626.839 341.667 626.447 341.751 625.99C341.835 625.533 341.877 625.019 341.877 624.45C341.877 623.881 341.835 623.367 341.751 622.91C341.667 622.453 341.537 622.065 341.359 621.748C341.191 621.421 340.977 621.174 340.715 621.006C340.454 620.829 340.151 620.74 339.805 620.74C339.46 620.74 339.157 620.829 338.895 621.006C338.643 621.174 338.429 621.421 338.251 621.748C338.083 622.065 337.953 622.453 337.859 622.91C337.775 623.367 337.733 623.881 337.733 624.45C337.733 625.019 337.775 625.533 337.859 625.99C337.953 626.447 338.083 626.839 338.251 627.166C338.429 627.483 338.643 627.731 338.895 627.908C339.157 628.076 339.46 628.16 339.805 628.16Z" fill="black" fill-opacity="0.64"/>
<g filter="url(#filter1_ddd_25453_8146)">
<rect width="360" height="80" transform="translate(0 560)" fill="white"/>
<g clip-path="url(#clip2_25453_8146)">
<path d="M134 600C134 586.745 144.745 576 158 576H207C220.255 576 231 586.745 231 600C231 613.255 220.255 624 207 624H158C144.745 624 134 613.255 134 600Z" fill="white" fill-opacity="0.01"/>
<path d="M159.771 594H162.451V604.82H167.631V607H159.771V594ZM172.13 607.24C171.69 607.24 171.27 607.167 170.87 607.02C170.483 606.887 170.143 606.693 169.85 606.44C169.556 606.173 169.323 605.853 169.15 605.48C168.99 605.107 168.91 604.687 168.91 604.22C168.91 603.34 169.223 602.64 169.85 602.12C170.476 601.6 171.43 601.307 172.71 601.24L175.03 601.1V600.7C175.03 600.06 174.836 599.62 174.45 599.38C174.063 599.14 173.583 599.02 173.01 599.02C172.556 599.02 172.13 599.107 171.73 599.28C171.33 599.44 171.03 599.64 170.83 599.88L169.41 598.44C169.756 597.987 170.256 597.613 170.91 597.32C171.576 597.027 172.39 596.88 173.35 596.88C174.763 596.88 175.816 597.207 176.51 597.86C177.203 598.513 177.55 599.4 177.55 600.52V607H175.17V605.42H175.05C174.796 605.98 174.43 606.427 173.95 606.76C173.47 607.08 172.863 607.24 172.13 607.24ZM172.87 605.42C173.51 605.42 174.03 605.24 174.43 604.88C174.83 604.507 175.03 603.987 175.03 603.32V602.66L173.01 602.82C171.97 602.887 171.45 603.327 171.45 604.14C171.45 604.553 171.583 604.873 171.85 605.1C172.116 605.313 172.456 605.42 172.87 605.42ZM185.761 607.24C184.988 607.24 184.315 607.053 183.741 606.68C183.181 606.307 182.781 605.793 182.541 605.14H182.421V607H180.021V592.5H182.541V598.82H182.661C182.888 598.247 183.268 597.78 183.801 597.42C184.335 597.06 184.988 596.88 185.761 596.88C186.375 596.88 186.941 597.007 187.461 597.26C187.995 597.513 188.448 597.873 188.821 598.34C189.208 598.793 189.508 599.34 189.721 599.98C189.935 600.62 190.041 601.327 190.041 602.1C190.041 602.86 189.935 603.56 189.721 604.2C189.508 604.827 189.208 605.367 188.821 605.82C188.448 606.26 187.995 606.607 187.461 606.86C186.941 607.113 186.375 607.24 185.761 607.24ZM184.981 605.04C185.728 605.04 186.328 604.773 186.781 604.24C187.235 603.707 187.461 602.98 187.461 602.06C187.461 601.14 187.235 600.413 186.781 599.88C186.328 599.347 185.728 599.08 184.981 599.08C184.248 599.08 183.655 599.347 183.201 599.88C182.761 600.413 182.541 601.14 182.541 602.06C182.541 602.98 182.761 603.707 183.201 604.24C183.655 604.773 184.248 605.04 184.981 605.04ZM196.293 607.24C195.467 607.24 194.747 607.107 194.133 606.84C193.52 606.573 193 606.207 192.573 605.74C192.16 605.26 191.847 604.707 191.633 604.08C191.433 603.453 191.333 602.78 191.333 602.06C191.333 601.327 191.433 600.647 191.633 600.02C191.833 599.38 192.133 598.833 192.533 598.38C192.933 597.913 193.433 597.547 194.033 597.28C194.633 597.013 195.333 596.88 196.133 596.88C196.933 596.88 197.633 597.007 198.233 597.26C198.833 597.513 199.327 597.867 199.713 598.32C200.1 598.773 200.387 599.313 200.573 599.94C200.773 600.553 200.873 601.227 200.873 601.96C200.873 602.093 200.86 602.247 200.833 602.42C200.82 602.593 200.8 602.733 200.773 602.84H193.893C193.933 603.2 194.027 603.527 194.173 603.82C194.333 604.1 194.527 604.34 194.753 604.54C194.993 604.74 195.253 604.893 195.533 605C195.827 605.093 196.127 605.14 196.433 605.14C197.007 605.14 197.487 605.04 197.873 604.84C198.26 604.64 198.573 604.387 198.813 604.08L200.233 605.56C199.86 606.067 199.34 606.473 198.673 606.78C198.007 607.087 197.213 607.24 196.293 607.24ZM196.133 598.8C195.493 598.8 194.973 599.007 194.573 599.42C194.173 599.833 193.94 600.38 193.873 601.06H198.353C198.287 600.38 198.053 599.833 197.653 599.42C197.267 599.007 196.76 598.8 196.133 598.8ZM202.834 592.5H205.354V607H202.834V592.5Z" fill="#242E30"/>
</g>
<g clip-path="url(#clip3_25453_8146)">
<path d="M247 600C247 586.745 257.745 576 271 576H320C333.255 576 344 586.745 344 600C344 613.255 333.255 624 320 624H271C257.745 624 247 613.255 247 600Z" fill="#F36805"/>
<path d="M247 600C247 586.745 257.745 576 271 576H320C333.255 576 344 586.745 344 600C344 613.255 333.255 624 320 624H271C257.745 624 247 613.255 247 600Z" fill="white" fill-opacity="0.01"/>
<path d="M272.771 594H275.451V604.82H280.631V607H272.771V594ZM285.13 607.24C284.69 607.24 284.27 607.167 283.87 607.02C283.483 606.887 283.143 606.693 282.85 606.44C282.556 606.173 282.323 605.853 282.15 605.48C281.99 605.107 281.91 604.687 281.91 604.22C281.91 603.34 282.223 602.64 282.85 602.12C283.476 601.6 284.43 601.307 285.71 601.24L288.03 601.1V600.7C288.03 600.06 287.836 599.62 287.45 599.38C287.063 599.14 286.583 599.02 286.01 599.02C285.556 599.02 285.13 599.107 284.73 599.28C284.33 599.44 284.03 599.64 283.83 599.88L282.41 598.44C282.756 597.987 283.256 597.613 283.91 597.32C284.576 597.027 285.39 596.88 286.35 596.88C287.763 596.88 288.816 597.207 289.51 597.86C290.203 598.513 290.55 599.4 290.55 600.52V607H288.17V605.42H288.05C287.796 605.98 287.43 606.427 286.95 606.76C286.47 607.08 285.863 607.24 285.13 607.24ZM285.87 605.42C286.51 605.42 287.03 605.24 287.43 604.88C287.83 604.507 288.03 603.987 288.03 603.32V602.66L286.01 602.82C284.97 602.887 284.45 603.327 284.45 604.14C284.45 604.553 284.583 604.873 284.85 605.1C285.116 605.313 285.456 605.42 285.87 605.42ZM298.761 607.24C297.988 607.24 297.315 607.053 296.741 606.68C296.181 606.307 295.781 605.793 295.541 605.14H295.421V607H293.021V592.5H295.541V598.82H295.661C295.888 598.247 296.268 597.78 296.801 597.42C297.335 597.06 297.988 596.88 298.761 596.88C299.375 596.88 299.941 597.007 300.461 597.26C300.995 597.513 301.448 597.873 301.821 598.34C302.208 598.793 302.508 599.34 302.721 599.98C302.935 600.62 303.041 601.327 303.041 602.1C303.041 602.86 302.935 603.56 302.721 604.2C302.508 604.827 302.208 605.367 301.821 605.82C301.448 606.26 300.995 606.607 300.461 606.86C299.941 607.113 299.375 607.24 298.761 607.24ZM297.981 605.04C298.728 605.04 299.328 604.773 299.781 604.24C300.235 603.707 300.461 602.98 300.461 602.06C300.461 601.14 300.235 600.413 299.781 599.88C299.328 599.347 298.728 599.08 297.981 599.08C297.248 599.08 296.655 599.347 296.201 599.88C295.761 600.413 295.541 601.14 295.541 602.06C295.541 602.98 295.761 603.707 296.201 604.24C296.655 604.773 297.248 605.04 297.981 605.04ZM309.293 607.24C308.467 607.24 307.747 607.107 307.133 606.84C306.52 606.573 306 606.207 305.573 605.74C305.16 605.26 304.847 604.707 304.633 604.08C304.433 603.453 304.333 602.78 304.333 602.06C304.333 601.327 304.433 600.647 304.633 600.02C304.833 599.38 305.133 598.833 305.533 598.38C305.933 597.913 306.433 597.547 307.033 597.28C307.633 597.013 308.333 596.88 309.133 596.88C309.933 596.88 310.633 597.007 311.233 597.26C311.833 597.513 312.327 597.867 312.713 598.32C313.1 598.773 313.387 599.313 313.573 599.94C313.773 600.553 313.873 601.227 313.873 601.96C313.873 602.093 313.86 602.247 313.833 602.42C313.82 602.593 313.8 602.733 313.773 602.84H306.893C306.933 603.2 307.027 603.527 307.173 603.82C307.333 604.1 307.527 604.34 307.753 604.54C307.993 604.74 308.253 604.893 308.533 605C308.827 605.093 309.127 605.14 309.433 605.14C310.007 605.14 310.487 605.04 310.873 604.84C311.26 604.64 311.573 604.387 311.813 604.08L313.233 605.56C312.86 606.067 312.34 606.473 311.673 606.78C311.007 607.087 310.213 607.24 309.293 607.24ZM309.133 598.8C308.493 598.8 307.973 599.007 307.573 599.42C307.173 599.833 306.94 600.38 306.873 601.06H311.353C311.287 600.38 311.053 599.833 310.653 599.42C310.267 599.007 309.76 598.8 309.133 598.8ZM315.834 592.5H318.354V607H315.834V592.5Z" fill="white"/>
</g>
</g>
</g>
</g>
</g>
<defs>
<filter id="filter0_ddd_25453_8146" x="-10" y="308" width="380" height="340" filterUnits="userSpaceOnUse" color-interpolation-filters="sRGB">
<feFlood flood-opacity="0" result="BackgroundImageFix"/>
<feColorMatrix in="SourceAlpha" type="matrix" values="0 0 0 0 0 0 0 0 0 0 0 0 0 0 0 0 0 0 127 0" result="hardAlpha"/>
<feOffset dy="-4"/>
<feGaussianBlur stdDeviation="3"/>
<feColorMatrix type="matrix" values="0 0 0 0 0 0 0 0 0 0 0 0 0 0 0 0 0 0 0.01 0"/>
<feBlend mode="normal" in2="BackgroundImageFix" result="effect1_dropShadow_25453_8146"/>
<feColorMatrix in="SourceAlpha" type="matrix" values="0 0 0 0 0 0 0 0 0 0 0 0 0 0 0 0 0 0 127 0" result="hardAlpha"/>
<feMorphology radius="2" operator="erode" in="SourceAlpha" result="effect2_dropShadow_25453_8146"/>
<feOffset dy="-2"/>
<feGaussianBlur stdDeviation="6"/>
<feColorMatrix type="matrix" values="0 0 0 0 0 0 0 0 0 0 0 0 0 0 0 0 0 0 0.03 0"/>
<feBlend mode="normal" in2="effect1_dropShadow_25453_8146" result="effect2_dropShadow_25453_8146"/>
<feColorMatrix in="SourceAlpha" type="matrix" values="0 0 0 0 0 0 0 0 0 0 0 0 0 0 0 0 0 0 127 0" result="hardAlpha"/>
<feOffset dy="-3"/>
<feGaussianBlur stdDeviation="3"/>
<feColorMatrix type="matrix" values="0 0 0 0 0 0 0 0 0 0 0 0 0 0 0 0 0 0 0.02 0"/>
<feBlend mode="normal" in2="effect2_dropShadow_25453_8146" result="effect3_dropShadow_25453_8146"/>
<feBlend mode="normal" in="SourceGraphic" in2="effect3_dropShadow_25453_8146" result="shape"/>
</filter>
<filter id="filter1_ddd_25453_8146" x="-10" y="548" width="380" height="100" filterUnits="userSpaceOnUse" color-interpolation-filters="sRGB">
<feFlood flood-opacity="0" result="BackgroundImageFix"/>
<feColorMatrix in="SourceAlpha" type="matrix" values="0 0 0 0 0 0 0 0 0 0 0 0 0 0 0 0 0 0 127 0" result="hardAlpha"/>
<feOffset dy="-3"/>
<feGaussianBlur stdDeviation="3"/>
<feColorMatrix type="matrix" values="0 0 0 0 0 0 0 0 0 0 0 0 0 0 0 0 0 0 0.06 0"/>
<feBlend mode="normal" in2="BackgroundImageFix" result="effect1_dropShadow_25453_8146"/>
<feColorMatrix in="SourceAlpha" type="matrix" values="0 0 0 0 0 0 0 0 0 0 0 0 0 0 0 0 0 0 127 0" result="hardAlpha"/>
<feMorphology radius="2" operator="erode" in="SourceAlpha" result="effect2_dropShadow_25453_8146"/>
<feOffset dy="-2"/>
<feGaussianBlur stdDeviation="6"/>
<feColorMatrix type="matrix" values="0 0 0 0 0 0 0 0 0 0 0 0 0 0 0 0 0 0 0.08 0"/>
<feBlend mode="normal" in2="effect1_dropShadow_25453_8146" result="effect2_dropShadow_25453_8146"/>
<feColorMatrix in="SourceAlpha" type="matrix" values="0 0 0 0 0 0 0 0 0 0 0 0 0 0 0 0 0 0 127 0" result="hardAlpha"/>
<feOffset dy="-4"/>
<feGaussianBlur stdDeviation="3"/>
<feColorMatrix type="matrix" values="0 0 0 0 0 0 0 0 0 0 0 0 0 0 0 0 0 0 0.02 0"/>
<feBlend mode="normal" in2="effect2_dropShadow_25453_8146" result="effect3_dropShadow_25453_8146"/>
<feBlend mode="normal" in="SourceGraphic" in2="effect3_dropShadow_25453_8146" result="shape"/>
</filter>
<clipPath id="clip0_25453_8146">
<rect width="360" height="640" fill="white"/>
</clipPath>
<clipPath id="clip1_25453_8146">
<path d="M0 336C0 327.163 7.16344 320 16 320H344C352.837 320 360 327.163 360 336V640H0V336Z" fill="white"/>
</clipPath>
<clipPath id="clip2_25453_8146">
<path d="M134 600C134 586.745 144.745 576 158 576H207C220.255 576 231 586.745 231 600C231 613.255 220.255 624 207 624H158C144.745 624 134 613.255 134 600Z" fill="white"/>
</clipPath>
<clipPath id="clip3_25453_8146">
<path d="M247 600C247 586.745 257.745 576 271 576H320C333.255 576 344 586.745 344 600C344 613.255 333.255 624 320 624H271C257.745 624 247 613.255 247 600Z" fill="white"/>
</clipPath>
</defs>
</svg>
