<svg width="792" height="189" viewBox="0 0 792 189" fill="none" xmlns="http://www.w3.org/2000/svg">
<g clip-path="url(#clip0_24172_11820)">
<path d="M0 12C0 5.37258 5.37258 0 12 0H372C378.627 0 384 5.37258 384 12V68C384 74.6274 378.627 80 372 80H12C5.37258 80 0 74.6274 0 68V12Z" fill="white"/>
<path opacity="0.35" fill-rule="evenodd" clip-rule="evenodd" d="M28 28C34.6274 28 40 33.3726 40 40C40 46.6274 34.6274 52 28 52C21.3726 52 16 46.6274 16 40C16 33.3726 21.3726 28 28 28ZM28 31C23.0294 31 19 35.0294 19 40C19 44.9706 23.0294 49 28 49C32.9706 49 37 44.9706 37 40C37 35.0294 32.9706 31 28 31Z" fill="#242E30"/>
<path fill-rule="evenodd" clip-rule="evenodd" d="M28 52C21.3726 52 16 46.6274 16 40C16 33.3726 21.3726 28 28 28M28 31C23.0294 31 19 35.0294 19 40C19 44.9706 23.0294 49 28 49" fill="#242E30"/>
<path d="M53.232 46.192C52.5067 46.192 51.8773 46.08 51.344 45.856C50.8213 45.6213 50.3893 45.3013 50.048 44.896C49.7067 44.48 49.456 44.0053 49.296 43.472C49.136 42.928 49.056 42.3573 49.056 41.76V35.6H51.2V41.728C51.2 42.2187 51.2693 42.6613 51.408 43.056C51.5467 43.44 51.7707 43.744 52.08 43.968C52.3893 44.192 52.7947 44.304 53.296 44.304C53.808 44.304 54.2133 44.192 54.512 43.968C54.8213 43.7333 55.0453 43.4187 55.184 43.024C55.3333 42.6293 55.408 42.1973 55.408 41.728V35.6H57.424V41.76C57.424 42.3573 57.3387 42.928 57.168 43.472C56.9973 44.0053 56.7413 44.48 56.4 44.896C56.0693 45.3013 55.6373 45.6213 55.104 45.856C54.5813 46.08 53.9573 46.192 53.232 46.192ZM59.5247 48.96V38.096H61.4448V39.584H61.5408C61.7328 39.072 62.0528 38.6667 62.5008 38.368C62.9594 38.0587 63.4981 37.904 64.1168 37.904C64.7781 37.904 65.3648 38.08 65.8768 38.432C66.3888 38.7733 66.7941 39.2533 67.0928 39.872C67.3914 40.4907 67.5408 41.2053 67.5408 42.016C67.5408 42.8267 67.3914 43.5467 67.0928 44.176C66.7941 44.8053 66.3888 45.3013 65.8768 45.664C65.3648 46.016 64.7781 46.192 64.1168 46.192C63.4981 46.192 62.9754 46.048 62.5488 45.76C62.1328 45.4613 61.8288 45.088 61.6368 44.64H61.5408V48.96H59.5247ZM63.4928 44.432C63.8874 44.432 64.2341 44.336 64.5328 44.144C64.8314 43.952 65.0608 43.68 65.2208 43.328C65.3914 42.9653 65.4768 42.5387 65.4768 42.048C65.4768 41.5573 65.3914 41.136 65.2208 40.784C65.0608 40.4213 64.8314 40.144 64.5328 39.952C64.2341 39.76 63.8874 39.664 63.4928 39.664C63.1088 39.664 62.7674 39.76 62.4688 39.952C62.1808 40.144 61.9514 40.4213 61.7808 40.784C61.6208 41.136 61.5408 41.5573 61.5408 42.048C61.5408 42.5387 61.6208 42.9653 61.7808 43.328C61.9514 43.68 62.1808 43.952 62.4688 44.144C62.7674 44.336 63.1088 44.432 63.4928 44.432ZM69.1185 46V34.4H71.1345V46H69.1185ZM76.6991 46.192C75.8245 46.192 75.0885 46.0053 74.4911 45.632C73.9045 45.248 73.4618 44.7413 73.1631 44.112C72.8645 43.4827 72.7151 42.7947 72.7151 42.048C72.7151 41.4827 72.8005 40.9493 72.9711 40.448C73.1418 39.9467 73.3925 39.5093 73.7231 39.136C74.0538 38.752 74.4645 38.4533 74.9551 38.24C75.4565 38.016 76.0378 37.904 76.6991 37.904C77.5845 37.904 78.3151 38.096 78.8911 38.48C79.4778 38.8533 79.9151 39.3547 80.2031 39.984C80.5018 40.6027 80.6511 41.2907 80.6511 42.048C80.6511 42.6133 80.5658 43.1467 80.3951 43.648C80.2351 44.1493 79.9898 44.592 79.6591 44.976C79.3285 45.3493 78.9178 45.648 78.4271 45.872C77.9365 46.0853 77.3605 46.192 76.6991 46.192ZM74.7791 42.048C74.7791 42.56 74.8538 43.008 75.0031 43.392C75.1631 43.7653 75.3818 44.0533 75.6591 44.256C75.9471 44.4587 76.2938 44.56 76.6991 44.56C77.1045 44.56 77.4458 44.4587 77.7231 44.256C78.0005 44.0533 78.2138 43.7653 78.3631 43.392C78.5231 43.008 78.6031 42.56 78.6031 42.048C78.6031 41.5253 78.5231 41.0773 78.3631 40.704C78.2138 40.3307 78.0005 40.0427 77.7231 39.84C77.4458 39.6373 77.1045 39.536 76.6991 39.536C76.2938 39.536 75.9471 39.6373 75.6591 39.84C75.3818 40.0427 75.1631 40.3307 75.0031 40.704C74.8538 41.0773 74.7791 41.5253 74.7791 42.048ZM84.1803 46.192C83.7109 46.192 83.2789 46.096 82.8843 45.904C82.4896 45.7013 82.1749 45.424 81.9403 45.072C81.7163 44.7093 81.6043 44.2773 81.6043 43.776C81.6043 43.3067 81.7163 42.9013 81.9403 42.56C82.1643 42.2187 82.5003 41.9467 82.9483 41.744C83.4069 41.5413 83.9723 41.424 84.6443 41.392L86.5003 41.28V40.96C86.5003 40.6187 86.4256 40.352 86.2763 40.16C86.1376 39.968 85.9456 39.8293 85.7003 39.744C85.4656 39.6587 85.1936 39.616 84.8843 39.616C84.5216 39.616 84.1803 39.6853 83.8603 39.824C83.5403 39.952 83.3003 40.112 83.1403 40.304L82.0043 39.152C82.2923 38.7893 82.6976 38.4907 83.2203 38.256C83.7429 38.0213 84.3883 37.904 85.1562 37.904C85.9029 37.904 86.5216 38.0267 87.0123 38.272C87.5136 38.5067 87.8869 38.8427 88.1323 39.28C88.3883 39.7067 88.5163 40.2187 88.5163 40.816V46H86.6123V44.736H86.5163C86.3136 45.1733 86.0203 45.5253 85.6363 45.792C85.2523 46.0587 84.7669 46.192 84.1803 46.192ZM84.7723 44.736C85.2843 44.736 85.7003 44.592 86.0203 44.304C86.3403 44.0053 86.5003 43.5893 86.5003 43.056V42.528L84.8843 42.656C84.4683 42.6773 84.1536 42.7787 83.9403 42.96C83.7376 43.1413 83.6363 43.392 83.6363 43.712C83.6363 44.032 83.7429 44.2827 83.9563 44.464C84.1696 44.6453 84.4416 44.736 84.7723 44.736ZM93.3895 46.192C92.7282 46.192 92.1415 46.016 91.6295 45.664C91.1175 45.312 90.7122 44.832 90.4135 44.224C90.1255 43.6053 89.9815 42.8907 89.9815 42.08C89.9815 41.2587 90.1255 40.5387 90.4135 39.92C90.7122 39.2907 91.1175 38.8 91.6295 38.448C92.1415 38.0853 92.7282 37.904 93.3895 37.904C94.0082 37.904 94.5255 38.0533 94.9415 38.352C95.3682 38.64 95.6722 39.008 95.8535 39.456H95.9495V34.4H97.9655V46H96.0615V44.512H95.9655C95.7735 45.024 95.4482 45.4347 94.9895 45.744C94.5415 46.0427 94.0082 46.192 93.3895 46.192ZM93.9975 44.432C94.4028 44.432 94.7495 44.336 95.0375 44.144C95.3255 43.952 95.5495 43.68 95.7095 43.328C95.8695 42.9653 95.9495 42.5387 95.9495 42.048C95.9495 41.5573 95.8695 41.136 95.7095 40.784C95.5495 40.4213 95.3255 40.144 95.0375 39.952C94.7495 39.76 94.4028 39.664 93.9975 39.664C93.6028 39.664 93.2562 39.76 92.9575 39.952C92.6695 40.144 92.4455 40.4213 92.2855 40.784C92.1255 41.136 92.0455 41.5573 92.0455 42.048C92.0455 42.5387 92.1255 42.9653 92.2855 43.328C92.4455 43.68 92.6695 43.952 92.9575 44.144C93.2562 44.336 93.6028 44.432 93.9975 44.432ZM100.087 46V38.096H102.103V46H100.087ZM101.111 37.056C100.727 37.056 100.434 36.9387 100.231 36.704C100.029 36.4693 99.9273 36.2027 99.9273 35.904C99.9273 35.5947 100.029 35.328 100.231 35.104C100.434 34.8693 100.727 34.752 101.111 34.752C101.485 34.752 101.773 34.8693 101.975 35.104C102.189 35.328 102.295 35.5947 102.295 35.904C102.295 36.2027 102.189 36.4693 101.975 36.704C101.773 36.9387 101.485 37.056 101.111 37.056ZM104.228 46V38.096H106.132V39.376H106.228C106.345 39.0987 106.511 38.848 106.724 38.624C106.948 38.4 107.209 38.224 107.508 38.096C107.807 37.968 108.132 37.904 108.484 37.904C109.476 37.904 110.196 38.1707 110.644 38.704C111.092 39.2267 111.316 40.0213 111.316 41.088V46H109.3V41.488C109.3 40.8587 109.183 40.3893 108.948 40.08C108.713 39.76 108.329 39.6 107.796 39.6C107.284 39.6 106.895 39.7707 106.628 40.112C106.372 40.4427 106.244 40.928 106.244 41.568V46H104.228ZM116.601 49.152C115.908 49.152 115.295 49.0293 114.761 48.784C114.228 48.5493 113.828 48.2613 113.561 47.92L114.777 46.688C114.948 46.9013 115.199 47.0773 115.529 47.216C115.871 47.3653 116.223 47.44 116.585 47.44C116.937 47.44 117.257 47.3867 117.545 47.28C117.833 47.1733 118.063 46.992 118.233 46.736C118.404 46.48 118.489 46.128 118.489 45.68V44.176H118.409C118.239 44.6347 117.945 45.008 117.529 45.296C117.124 45.584 116.633 45.728 116.057 45.728C115.417 45.728 114.852 45.568 114.361 45.248C113.871 44.9173 113.492 44.4533 113.225 43.856C112.959 43.2587 112.825 42.56 112.825 41.76C112.825 40.9813 112.959 40.304 113.225 39.728C113.503 39.152 113.887 38.7093 114.377 38.4C114.868 38.08 115.433 37.92 116.073 37.92C116.671 37.92 117.177 38.0587 117.593 38.336C118.02 38.6133 118.324 38.9973 118.505 39.488H118.601V38.096H120.505V45.776C120.505 46.4907 120.345 47.0987 120.025 47.6C119.716 48.1013 119.268 48.4853 118.681 48.752C118.095 49.0187 117.401 49.152 116.601 49.152ZM116.681 44.048C117.076 44.048 117.407 43.952 117.673 43.76C117.94 43.5573 118.143 43.2907 118.281 42.96C118.42 42.6187 118.489 42.2347 118.489 41.808C118.489 41.36 118.42 40.9707 118.281 40.64C118.143 40.3093 117.94 40.048 117.673 39.856C117.407 39.664 117.076 39.568 116.681 39.568C116.308 39.568 115.983 39.664 115.705 39.856C115.439 40.048 115.231 40.3093 115.081 40.64C114.943 40.9707 114.873 41.36 114.873 41.808C114.873 42.2347 114.943 42.6187 115.081 42.96C115.231 43.2907 115.439 43.5573 115.705 43.76C115.983 43.952 116.308 44.048 116.681 44.048Z" fill="black" fill-opacity="0.76"/>
<path d="M134.976 46.192C134.187 46.192 133.52 46.0053 132.976 45.632C132.432 45.248 132.016 44.6773 131.728 43.92C131.451 43.1627 131.312 42.224 131.312 41.104C131.312 40.1867 131.403 39.376 131.584 38.672C131.765 37.968 132.027 37.376 132.368 36.896C132.709 36.4053 133.12 36.0373 133.6 35.792C134.091 35.536 134.635 35.408 135.232 35.408C135.957 35.408 136.555 35.52 137.024 35.744C137.493 35.9573 137.877 36.2347 138.176 36.576L137.36 37.44C137.093 37.1627 136.795 36.9547 136.464 36.816C136.133 36.6667 135.739 36.592 135.28 36.592C134.469 36.592 133.819 36.9653 133.328 37.712C132.837 38.448 132.592 39.5413 132.592 40.992H132.688C132.891 40.5547 133.205 40.1867 133.632 39.888C134.069 39.5787 134.613 39.424 135.264 39.424C135.797 39.424 136.309 39.552 136.8 39.808C137.291 40.0533 137.691 40.416 138 40.896C138.32 41.376 138.48 41.9733 138.48 42.688C138.48 43.3387 138.341 43.9307 138.064 44.464C137.787 44.9867 137.387 45.408 136.864 45.728C136.352 46.0373 135.723 46.192 134.976 46.192ZM134.992 45.008C135.44 45.008 135.819 44.912 136.128 44.72C136.437 44.528 136.672 44.2613 136.832 43.92C137.003 43.5787 137.088 43.1947 137.088 42.768C137.088 42.1067 136.901 41.5787 136.528 41.184C136.165 40.7893 135.653 40.592 134.992 40.592C134.555 40.592 134.176 40.6827 133.856 40.864C133.547 41.0347 133.307 41.2853 133.136 41.616C132.965 41.936 132.88 42.32 132.88 42.768C132.88 43.4187 133.061 43.9573 133.424 44.384C133.797 44.8 134.32 45.008 134.992 45.008ZM141.066 46V35.6H142.89L146.458 44.464H146.554L150.122 35.6H151.978V46H150.698V37.408H150.602L147.178 46H145.834L142.41 37.408H142.314V46H141.066ZM154.925 46V35.6H158.301C158.866 35.6 159.357 35.7067 159.773 35.92C160.2 36.1333 160.53 36.4427 160.765 36.848C161 37.2533 161.117 37.744 161.117 38.32C161.117 38.6827 161.042 39.0187 160.893 39.328C160.754 39.6373 160.557 39.8987 160.301 40.112C160.045 40.3253 159.752 40.4747 159.421 40.56V40.656C159.773 40.7093 160.109 40.8533 160.429 41.088C160.76 41.312 161.026 41.6053 161.229 41.968C161.442 42.3307 161.549 42.7413 161.549 43.2C161.549 43.7653 161.41 44.2613 161.133 44.688C160.866 45.104 160.504 45.4293 160.045 45.664C159.586 45.888 159.064 46 158.477 46H154.925ZM156.285 40.16H158.141C158.461 40.16 158.738 40.0907 158.973 39.952C159.218 39.8133 159.405 39.616 159.533 39.36C159.661 39.0933 159.725 38.7893 159.725 38.448C159.725 37.9147 159.581 37.4987 159.293 37.2C159.005 36.8907 158.626 36.736 158.157 36.736H156.285V40.16ZM156.285 44.864H158.461C158.813 44.864 159.112 44.7893 159.357 44.64C159.613 44.4907 159.81 44.2827 159.949 44.016C160.088 43.7493 160.157 43.44 160.157 43.088C160.157 42.5227 160.002 42.08 159.693 41.76C159.394 41.44 158.984 41.28 158.461 41.28H156.285V44.864Z" fill="black" fill-opacity="0.64"/>
<g clip-path="url(#clip1_24172_11820)">
<path d="M260 40C260 26.7452 270.745 16 284 16H344C357.255 16 368 26.7452 368 40C368 53.2548 357.255 64 344 64H284C270.745 64 260 53.2548 260 40Z" fill="#F6F3EF"/>
<path d="M260 40C260 26.7452 270.745 16 284 16H344C357.255 16 368 26.7452 368 40C368 53.2548 357.255 64 344 64H284C270.745 64 260 53.2548 260 40Z" fill="white" fill-opacity="0.01"/>
<path d="M291.506 47.24C290.372 47.24 289.386 47.0533 288.546 46.68C287.719 46.2933 287.032 45.78 286.486 45.14C285.952 44.4867 285.552 43.76 285.286 42.96C285.032 42.1467 284.906 41.3133 284.906 40.46C284.906 39.62 285.032 38.8 285.286 38C285.539 37.2 285.926 36.48 286.446 35.84C286.966 35.2 287.632 34.6933 288.446 34.32C289.272 33.9467 290.252 33.76 291.386 33.76C292.412 33.76 293.312 33.9467 294.086 34.32C294.859 34.68 295.512 35.1467 296.046 35.72L293.886 37.7C293.592 37.3533 293.212 37.0867 292.746 36.9C292.292 36.7 291.832 36.6 291.366 36.6C290.926 36.6 290.526 36.6867 290.166 36.86C289.806 37.0333 289.492 37.2867 289.226 37.62C288.959 37.9533 288.752 38.36 288.606 38.84C288.459 39.32 288.386 39.8667 288.386 40.48C288.386 41.28 288.526 41.9733 288.806 42.56C289.086 43.1467 289.459 43.6 289.926 43.92C290.392 44.24 290.912 44.4 291.486 44.4C291.952 44.4 292.406 44.3067 292.846 44.12C293.299 43.92 293.679 43.6533 293.986 43.32L296.126 45.3C295.592 45.8733 294.939 46.34 294.166 46.7C293.406 47.06 292.519 47.24 291.506 47.24ZM300.327 47.24C299.741 47.24 299.194 47.12 298.687 46.88C298.181 46.64 297.774 46.3 297.467 45.86C297.161 45.4067 297.007 44.86 297.007 44.22C297.007 43.62 297.147 43.1067 297.427 42.68C297.721 42.24 298.161 41.8933 298.747 41.64C299.347 41.3867 300.107 41.2333 301.027 41.18L303.127 41.06V40.9C303.127 40.5267 303.034 40.2467 302.847 40.06C302.661 39.86 302.421 39.7267 302.127 39.66C301.834 39.58 301.521 39.54 301.187 39.54C300.814 39.54 300.434 39.6067 300.047 39.74C299.661 39.8733 299.374 40.06 299.187 40.3L297.447 38.5C297.807 38.0333 298.334 37.6467 299.027 37.34C299.721 37.0333 300.627 36.88 301.747 36.88C302.694 36.88 303.507 37.0267 304.187 37.32C304.867 37.6133 305.387 38.0467 305.747 38.62C306.121 39.18 306.307 39.8667 306.307 40.68V47H303.327V45.48H303.207C302.954 46 302.587 46.4267 302.107 46.76C301.627 47.08 301.034 47.24 300.327 47.24ZM301.407 45.08C301.914 45.08 302.327 44.94 302.647 44.66C302.967 44.38 303.127 43.9667 303.127 43.42V42.9L301.467 43.02C301.041 43.0467 300.721 43.1533 300.507 43.34C300.307 43.5267 300.207 43.7733 300.207 44.08C300.207 44.4133 300.321 44.6667 300.547 44.84C300.787 45 301.074 45.08 301.407 45.08ZM308.292 47V37.12H311.272V38.76H311.392C311.526 38.4 311.732 38.08 312.012 37.8C312.306 37.5067 312.646 37.28 313.032 37.12C313.432 36.96 313.852 36.88 314.292 36.88C315.612 36.88 316.519 37.2333 317.012 37.94C317.506 38.6467 317.752 39.66 317.752 40.98V47H314.572V41.62C314.572 40.9933 314.466 40.5 314.252 40.14C314.039 39.7667 313.639 39.58 313.052 39.58C312.492 39.58 312.086 39.7533 311.832 40.1C311.592 40.4467 311.472 40.9533 311.472 41.62V47H308.292ZM324.197 47.24C323.05 47.24 322.11 47 321.377 46.52C320.643 46.0267 320.103 45.3867 319.757 44.6C319.41 43.8133 319.237 42.9667 319.237 42.06C319.237 41.1533 319.403 40.3067 319.737 39.52C320.083 38.7333 320.617 38.1 321.337 37.62C322.057 37.1267 322.983 36.88 324.117 36.88C324.917 36.88 325.623 37.0333 326.237 37.34C326.85 37.6467 327.343 38.02 327.717 38.46L325.577 40.4C325.403 40.1733 325.203 40 324.977 39.88C324.75 39.7467 324.477 39.68 324.157 39.68C323.783 39.68 323.47 39.7733 323.217 39.96C322.977 40.1467 322.79 40.42 322.657 40.78C322.537 41.1267 322.477 41.5533 322.477 42.06C322.477 42.8067 322.623 43.3933 322.917 43.82C323.21 44.2333 323.637 44.44 324.197 44.44C324.503 44.44 324.783 44.3733 325.037 44.24C325.303 44.1067 325.51 43.9267 325.657 43.7L327.797 45.64C327.437 46.08 326.943 46.46 326.317 46.78C325.69 47.0867 324.983 47.24 324.197 47.24ZM333.341 47.24C332.141 47.24 331.161 46.9933 330.401 46.5C329.641 45.9933 329.081 45.3467 328.721 44.56C328.374 43.7733 328.201 42.94 328.201 42.06C328.201 41.3933 328.287 40.7533 328.461 40.14C328.647 39.5267 328.934 38.9733 329.321 38.48C329.707 37.9867 330.214 37.6 330.841 37.32C331.481 37.0267 332.254 36.88 333.161 36.88C334.067 36.88 334.834 37.02 335.461 37.3C336.087 37.58 336.587 37.9667 336.961 38.46C337.347 38.94 337.621 39.4867 337.781 40.1C337.954 40.7 338.041 41.3267 338.041 41.98C338.041 42.1267 338.027 42.32 338.001 42.56C337.974 42.7867 337.941 42.96 337.901 43.08H331.421C331.501 43.4667 331.654 43.7733 331.881 44C332.121 44.2267 332.387 44.3933 332.681 44.5C332.987 44.5933 333.267 44.64 333.521 44.64C333.987 44.64 334.387 44.5667 334.721 44.42C335.067 44.2733 335.334 44.08 335.521 43.84L337.261 45.66C336.941 46.1133 336.434 46.4933 335.741 46.8C335.047 47.0933 334.247 47.24 333.341 47.24ZM333.161 39.24C332.881 39.24 332.614 39.3 332.361 39.42C332.121 39.5267 331.907 39.7067 331.721 39.96C331.547 40.2133 331.427 40.5533 331.361 40.98H334.921C334.867 40.5533 334.747 40.2133 334.561 39.96C334.387 39.7067 334.181 39.5267 333.941 39.42C333.701 39.3 333.441 39.24 333.161 39.24ZM339.581 47V32.5H342.761V47H339.581Z" fill="black" fill-opacity="0.76"/>
</g>
</g>
<path d="M12 0.5H372C378.351 0.5 383.5 5.64873 383.5 12V68C383.5 74.3513 378.351 79.5 372 79.5H12C5.64873 79.5 0.5 74.3513 0.5 68V12C0.5 5.64873 5.64873 0.5 12 0.5Z" stroke="#F0ECE6"/>
<g clip-path="url(#clip2_24172_11820)">
<path d="M408 12C408 5.37258 413.373 0 420 0H780C786.627 0 792 5.37258 792 12V68C792 74.6274 786.627 80 780 80H420C413.373 80 408 74.6274 408 68V12Z" fill="white"/>
<path d="M425.168 34V23.6H431.232V25.328H427.312V28.256H431.088V29.968H427.312V34H425.168ZM432.947 34V26.096H434.963V34H432.947ZM433.971 25.056C433.587 25.056 433.293 24.9387 433.091 24.704C432.888 24.4693 432.787 24.2027 432.787 23.904C432.787 23.5947 432.888 23.328 433.091 23.104C433.293 22.8693 433.587 22.752 433.971 22.752C434.344 22.752 434.632 22.8693 434.835 23.104C435.048 23.328 435.155 23.5947 435.155 23.904C435.155 24.2027 435.048 24.4693 434.835 24.704C434.632 24.9387 434.344 25.056 433.971 25.056ZM437.087 34V22.4H439.103V34H437.087ZM444.652 34.192C443.777 34.192 443.041 34.0053 442.444 33.632C441.857 33.2587 441.415 32.7627 441.116 32.144C440.828 31.5147 440.684 30.816 440.684 30.048C440.684 29.4613 440.764 28.9173 440.924 28.416C441.084 27.904 441.319 27.4613 441.628 27.088C441.948 26.7147 442.348 26.4267 442.828 26.224C443.308 26.0107 443.873 25.904 444.524 25.904C445.164 25.904 445.719 26.0053 446.188 26.208C446.668 26.4107 447.063 26.6987 447.372 27.072C447.692 27.4347 447.927 27.8613 448.076 28.352C448.236 28.8427 448.316 29.3813 448.316 29.968C448.316 30.0747 448.305 30.2027 448.284 30.352C448.273 30.4907 448.257 30.5973 448.236 30.672H442.732C442.764 31.056 442.881 31.3867 443.084 31.664C443.287 31.9413 443.537 32.1547 443.836 32.304C444.135 32.4427 444.444 32.512 444.764 32.512C445.212 32.512 445.591 32.432 445.9 32.272C446.22 32.112 446.476 31.9093 446.668 31.664L447.804 32.848C447.516 33.2427 447.1 33.568 446.556 33.824C446.023 34.0693 445.388 34.192 444.652 34.192ZM444.524 27.44C444.183 27.44 443.879 27.52 443.612 27.68C443.356 27.8293 443.148 28.0373 442.988 28.304C442.839 28.5707 442.748 28.8853 442.716 29.248H446.3C446.268 28.8853 446.172 28.5707 446.012 28.304C445.863 28.0373 445.66 27.8293 445.404 27.68C445.148 27.52 444.855 27.44 444.524 27.44ZM449.884 34V26.096H451.788V27.376H451.884C452.001 27.0987 452.167 26.848 452.38 26.624C452.604 26.4 452.865 26.224 453.164 26.096C453.463 25.968 453.788 25.904 454.14 25.904C455.132 25.904 455.852 26.1707 456.3 26.704C456.748 27.2267 456.972 28.0213 456.972 29.088V34H454.956V29.488C454.956 28.8587 454.839 28.3893 454.604 28.08C454.369 27.76 453.985 27.6 453.452 27.6C452.94 27.6 452.551 27.7707 452.284 28.112C452.028 28.4427 451.9 28.928 451.9 29.568V34H449.884ZM460.993 34.192C460.523 34.192 460.091 34.096 459.697 33.904C459.302 33.7013 458.987 33.424 458.753 33.072C458.529 32.7093 458.417 32.2773 458.417 31.776C458.417 31.3067 458.529 30.9013 458.753 30.56C458.977 30.2187 459.313 29.9467 459.761 29.744C460.219 29.5413 460.785 29.424 461.457 29.392L463.313 29.28V28.96C463.313 28.6187 463.238 28.352 463.089 28.16C462.95 27.968 462.758 27.8293 462.513 27.744C462.278 27.6587 462.006 27.616 461.697 27.616C461.334 27.616 460.993 27.6853 460.673 27.824C460.353 27.952 460.113 28.112 459.953 28.304L458.817 27.152C459.105 26.7893 459.51 26.4907 460.033 26.256C460.555 26.0213 461.201 25.904 461.969 25.904C462.715 25.904 463.334 26.0267 463.825 26.272C464.326 26.5067 464.699 26.8427 464.945 27.28C465.201 27.7067 465.329 28.2187 465.329 28.816V34H463.425V32.736H463.329C463.126 33.1733 462.833 33.5253 462.449 33.792C462.065 34.0587 461.579 34.192 460.993 34.192ZM461.585 32.736C462.097 32.736 462.513 32.592 462.833 32.304C463.153 32.0053 463.313 31.5893 463.313 31.056V30.528L461.697 30.656C461.281 30.6773 460.966 30.7787 460.753 30.96C460.55 31.1413 460.449 31.392 460.449 31.712C460.449 32.032 460.555 32.2827 460.769 32.464C460.982 32.6453 461.254 32.736 461.585 32.736ZM467.306 34V26.096H469.21V27.376H469.306C469.498 26.928 469.786 26.5707 470.17 26.304C470.554 26.0373 471.002 25.904 471.514 25.904C472.175 25.904 472.714 26.032 473.13 26.288C473.546 26.5333 473.845 26.896 474.026 27.376C474.165 27.0773 474.351 26.8213 474.586 26.608C474.821 26.384 475.098 26.2133 475.418 26.096C475.738 25.968 476.09 25.904 476.474 25.904C477.103 25.904 477.626 26.0213 478.042 26.256C478.458 26.4907 478.762 26.8427 478.954 27.312C479.157 27.7813 479.258 28.3733 479.258 29.088V34H477.242V29.424C477.242 29.0187 477.189 28.6827 477.082 28.416C476.975 28.1387 476.815 27.936 476.602 27.808C476.389 27.6693 476.117 27.6 475.786 27.6C475.285 27.6 474.906 27.7653 474.65 28.096C474.405 28.4267 474.282 28.9013 474.282 29.52V34H472.266V29.424C472.266 29.0187 472.213 28.6827 472.106 28.416C472.01 28.1387 471.855 27.936 471.642 27.808C471.439 27.6693 471.162 27.6 470.81 27.6C470.33 27.6 469.962 27.7653 469.706 28.096C469.45 28.4267 469.322 28.9013 469.322 29.52V34H467.306ZM484.683 34.192C483.808 34.192 483.072 34.0053 482.475 33.632C481.888 33.2587 481.446 32.7627 481.147 32.144C480.859 31.5147 480.715 30.816 480.715 30.048C480.715 29.4613 480.795 28.9173 480.955 28.416C481.115 27.904 481.35 27.4613 481.659 27.088C481.979 26.7147 482.379 26.4267 482.859 26.224C483.339 26.0107 483.904 25.904 484.555 25.904C485.195 25.904 485.75 26.0053 486.219 26.208C486.699 26.4107 487.094 26.6987 487.403 27.072C487.723 27.4347 487.958 27.8613 488.107 28.352C488.267 28.8427 488.347 29.3813 488.347 29.968C488.347 30.0747 488.336 30.2027 488.315 30.352C488.304 30.4907 488.288 30.5973 488.267 30.672H482.763C482.795 31.056 482.912 31.3867 483.115 31.664C483.318 31.9413 483.568 32.1547 483.867 32.304C484.166 32.4427 484.475 32.512 484.795 32.512C485.243 32.512 485.622 32.432 485.931 32.272C486.251 32.112 486.507 31.9093 486.699 31.664L487.835 32.848C487.547 33.2427 487.131 33.568 486.587 33.824C486.054 34.0693 485.419 34.192 484.683 34.192ZM484.555 27.44C484.214 27.44 483.91 27.52 483.643 27.68C483.387 27.8293 483.179 28.0373 483.019 28.304C482.87 28.5707 482.779 28.8853 482.747 29.248H486.331C486.299 28.8853 486.203 28.5707 486.043 28.304C485.894 28.0373 485.691 27.8293 485.435 27.68C485.179 27.52 484.886 27.44 484.555 27.44ZM490.661 34.192C490.234 34.192 489.909 34.064 489.685 33.808C489.461 33.5413 489.349 33.2373 489.349 32.896C489.349 32.672 489.397 32.464 489.493 32.272C489.599 32.08 489.749 31.9253 489.941 31.808C490.143 31.68 490.383 31.616 490.661 31.616C491.087 31.616 491.413 31.7493 491.637 32.016C491.861 32.272 491.973 32.5653 491.973 32.896C491.973 33.1307 491.925 33.344 491.829 33.536C491.733 33.728 491.583 33.8827 491.381 34C491.189 34.128 490.949 34.192 490.661 34.192ZM493.915 36.96V26.096H495.835V27.584H495.931C496.123 27.072 496.443 26.6667 496.891 26.368C497.35 26.0587 497.889 25.904 498.507 25.904C499.169 25.904 499.755 26.08 500.267 26.432C500.779 26.7733 501.185 27.2533 501.483 27.872C501.782 28.4907 501.931 29.2053 501.931 30.016C501.931 30.8267 501.782 31.5467 501.483 32.176C501.185 32.8053 500.779 33.3013 500.267 33.664C499.755 34.016 499.169 34.192 498.507 34.192C497.889 34.192 497.366 34.048 496.939 33.76C496.523 33.4613 496.219 33.088 496.027 32.64H495.931V36.96H493.915ZM497.883 32.432C498.278 32.432 498.625 32.336 498.923 32.144C499.222 31.952 499.451 31.68 499.611 31.328C499.782 30.9653 499.867 30.5387 499.867 30.048C499.867 29.5573 499.782 29.136 499.611 28.784C499.451 28.4213 499.222 28.144 498.923 27.952C498.625 27.76 498.278 27.664 497.883 27.664C497.499 27.664 497.158 27.76 496.859 27.952C496.571 28.144 496.342 28.4213 496.171 28.784C496.011 29.136 495.931 29.5573 495.931 30.048C495.931 30.5387 496.011 30.9653 496.171 31.328C496.342 31.68 496.571 31.952 496.859 32.144C497.158 32.336 497.499 32.432 497.883 32.432ZM506.405 34.192C505.744 34.192 505.157 34.016 504.645 33.664C504.133 33.312 503.728 32.832 503.429 32.224C503.141 31.6053 502.997 30.8907 502.997 30.08C502.997 29.2587 503.141 28.5387 503.429 27.92C503.728 27.2907 504.133 26.8 504.645 26.448C505.157 26.0853 505.744 25.904 506.405 25.904C507.024 25.904 507.541 26.0533 507.957 26.352C508.384 26.64 508.688 27.008 508.869 27.456H508.965V22.4H510.981V34H509.077V32.512H508.981C508.789 33.024 508.464 33.4347 508.005 33.744C507.557 34.0427 507.024 34.192 506.405 34.192ZM507.013 32.432C507.418 32.432 507.765 32.336 508.053 32.144C508.341 31.952 508.565 31.68 508.725 31.328C508.885 30.9653 508.965 30.5387 508.965 30.048C508.965 29.5573 508.885 29.136 508.725 28.784C508.565 28.4213 508.341 28.144 508.053 27.952C507.765 27.76 507.418 27.664 507.013 27.664C506.618 27.664 506.272 27.76 505.973 27.952C505.685 28.144 505.461 28.4213 505.301 28.784C505.141 29.136 505.061 29.5573 505.061 30.048C505.061 30.5387 505.141 30.9653 505.301 31.328C505.461 31.68 505.685 31.952 505.973 32.144C506.272 32.336 506.618 32.432 507.013 32.432ZM513.599 34V27.712H512.351V26.096H513.599V25.072C513.599 24.496 513.7 23.9947 513.903 23.568C514.106 23.1413 514.415 22.8107 514.831 22.576C515.247 22.3307 515.77 22.208 516.399 22.208C516.623 22.208 516.842 22.2293 517.055 22.272C517.268 22.3147 517.455 22.3733 517.615 22.448L516.991 24C516.938 23.9573 516.852 23.9253 516.735 23.904C516.628 23.8827 516.532 23.872 516.447 23.872C516.191 23.872 515.988 23.968 515.839 24.16C515.69 24.3413 515.615 24.64 515.615 25.056V26.096H517.647V27.712H515.615V34H513.599Z" fill="black" fill-opacity="0.76"/>
<path d="M530.976 34.192C529.781 34.192 528.869 33.7707 528.24 32.928C527.621 32.0747 527.312 30.8 527.312 29.104C527.312 27.2587 527.664 25.8507 528.368 24.88C529.072 23.8987 530.027 23.408 531.232 23.408C531.968 23.408 532.565 23.52 533.024 23.744C533.483 23.9573 533.867 24.2347 534.176 24.576L533.36 25.44C533.093 25.1627 532.795 24.9547 532.464 24.816C532.133 24.6667 531.739 24.592 531.28 24.592C530.459 24.592 529.803 24.96 529.312 25.696C528.832 26.432 528.592 27.5307 528.592 28.992H528.688C528.891 28.5547 529.205 28.1867 529.632 27.888C530.059 27.5787 530.603 27.424 531.264 27.424C531.659 27.424 532.048 27.4933 532.432 27.632C532.827 27.7707 533.173 27.9787 533.472 28.256C533.771 28.5333 534.011 28.8747 534.192 29.28C534.384 29.6853 534.48 30.1547 534.48 30.688C534.48 31.1787 534.4 31.6373 534.24 32.064C534.091 32.4907 533.867 32.864 533.568 33.184C533.269 33.4933 532.901 33.7387 532.464 33.92C532.027 34.1013 531.531 34.192 530.976 34.192ZM530.992 33.008C531.664 33.008 532.181 32.8 532.544 32.384C532.907 31.9573 533.088 31.4187 533.088 30.768C533.088 30.096 532.901 29.568 532.528 29.184C532.165 28.7893 531.653 28.592 530.992 28.592C530.331 28.592 529.813 28.7893 529.44 29.184C529.067 29.568 528.88 30.096 528.88 30.768C528.88 31.4187 529.061 31.9573 529.424 32.384C529.797 32.8 530.32 33.008 530.992 33.008ZM537.066 23.6H538.89L542.458 32.464H542.554L546.122 23.6H547.978V34H546.698V25.408H546.602L543.178 34H541.834L538.41 25.408H538.314V34H537.066V23.6ZM550.925 23.6H554.301C555.144 23.6 555.821 23.84 556.333 24.32C556.856 24.7893 557.117 25.456 557.117 26.32C557.117 26.8747 556.957 27.3547 556.637 27.76C556.328 28.1653 555.922 28.432 555.421 28.56V28.656C555.677 28.6987 555.933 28.7947 556.189 28.944C556.445 29.0827 556.674 29.264 556.877 29.488C557.08 29.7013 557.24 29.9573 557.357 30.256C557.485 30.544 557.549 30.8587 557.549 31.2C557.549 31.6267 557.469 32.0107 557.309 32.352C557.16 32.6933 556.946 32.9867 556.669 33.232C556.392 33.4773 556.066 33.6693 555.693 33.808C555.32 33.936 554.914 34 554.477 34H550.925V23.6ZM554.141 28.16C554.621 28.16 555.005 28.0053 555.293 27.696C555.581 27.3867 555.725 26.9707 555.725 26.448C555.725 25.9147 555.581 25.4987 555.293 25.2C555.016 24.8907 554.637 24.736 554.157 24.736H552.285V28.16H554.141ZM554.461 32.864C554.984 32.864 555.394 32.704 555.693 32.384C556.002 32.064 556.157 31.632 556.157 31.088C556.157 30.5227 556.002 30.08 555.693 29.76C555.394 29.44 554.984 29.28 554.461 29.28H552.285V32.864H554.461Z" fill="black" fill-opacity="0.64"/>
<g clip-path="url(#clip3_24172_11820)">
<path d="M431.087 53.6631L432.75 55.4892L432.761 55.4783L436.935 50.9457L438.13 52.0544L433.674 56.8914C433.424 57.1522 433.098 57.2935 432.75 57.2935C432.402 57.2935 432.076 57.1522 431.837 56.9022L429.88 54.7609L431.087 53.6631Z" fill="#2B7836"/>
<path fill-rule="evenodd" clip-rule="evenodd" d="M425.848 54.0001C425.848 49.5001 429.5 45.8479 434 45.8479C438.5 45.8479 442.152 49.5001 442.152 54.0001C442.152 58.5001 438.5 62.1522 434 62.1522C429.5 62.1522 425.848 58.5001 425.848 54.0001ZM427.478 54.0001C427.478 57.5979 430.402 60.5218 434 60.5218C437.598 60.5218 440.522 57.5979 440.522 54.0001C440.522 50.4022 437.598 47.4783 434 47.4783C430.402 47.4783 427.478 50.4022 427.478 54.0001Z" fill="#2B7836"/>
</g>
<path d="M453.288 59V49.9H457.894V50.908H454.478V54.114H457.768V55.122H454.478V59H453.288ZM459.78 59V52.084H460.9V59H459.78ZM460.34 50.964C460.107 50.964 459.925 50.894 459.794 50.754C459.663 50.614 459.598 50.446 459.598 50.25C459.598 50.0633 459.663 49.9 459.794 49.76C459.925 49.6107 460.107 49.536 460.34 49.536C460.564 49.536 460.741 49.6107 460.872 49.76C461.012 49.9 461.082 50.0633 461.082 50.25C461.082 50.446 461.012 50.614 460.872 50.754C460.741 50.894 460.564 50.964 460.34 50.964ZM463.28 59V48.85H464.4V59H463.28ZM469.482 59.168C468.819 59.168 468.241 59.0233 467.746 58.734C467.261 58.4447 466.883 58.0293 466.612 57.488C466.341 56.9373 466.206 56.2887 466.206 55.542C466.206 54.954 466.281 54.436 466.43 53.988C466.589 53.5307 466.808 53.1527 467.088 52.854C467.377 52.546 467.713 52.3127 468.096 52.154C468.488 51.9953 468.917 51.916 469.384 51.916C469.851 51.916 470.275 51.9907 470.658 52.14C471.05 52.2893 471.386 52.5133 471.666 52.812C471.955 53.1013 472.179 53.47 472.338 53.918C472.497 54.3567 472.576 54.87 472.576 55.458C472.576 55.5327 472.571 55.6073 472.562 55.682C472.562 55.7567 472.557 55.8173 472.548 55.864H467.326C467.335 56.2933 467.438 56.6853 467.634 57.04C467.83 57.3947 468.091 57.6793 468.418 57.894C468.754 58.0993 469.127 58.202 469.538 58.202C470.033 58.202 470.443 58.104 470.77 57.908C471.097 57.712 471.367 57.474 471.582 57.194L472.254 57.88C471.965 58.272 471.596 58.5847 471.148 58.818C470.7 59.0513 470.145 59.168 469.482 59.168ZM469.384 52.84C468.945 52.84 468.577 52.9427 468.278 53.148C467.979 53.3533 467.751 53.6147 467.592 53.932C467.443 54.2493 467.363 54.5807 467.354 54.926H471.4C471.391 54.5807 471.307 54.2493 471.148 53.932C470.999 53.6147 470.775 53.3533 470.476 53.148C470.187 52.9427 469.823 52.84 469.384 52.84ZM480.125 59.168C479.621 59.168 479.177 59.0793 478.795 58.902C478.421 58.7153 478.127 58.426 477.913 58.034C477.707 57.642 477.605 57.1333 477.605 56.508V52.084H478.725V56.298C478.725 56.7647 478.785 57.1427 478.907 57.432C479.037 57.7213 479.224 57.9313 479.467 58.062C479.709 58.1833 480.003 58.244 480.349 58.244C480.853 58.244 481.249 58.062 481.539 57.698C481.837 57.334 481.987 56.802 481.987 56.102V52.084H483.107V59H482.043V57.908H481.959C481.791 58.272 481.557 58.5753 481.259 58.818C480.969 59.0513 480.591 59.168 480.125 59.168ZM485.483 61.59V52.084H486.547V53.498H486.631C486.79 53.022 487.088 52.6393 487.527 52.35C487.966 52.0607 488.47 51.916 489.039 51.916C489.655 51.916 490.192 52.0747 490.649 52.392C491.106 52.7 491.461 53.1293 491.713 53.68C491.974 54.2307 492.105 54.856 492.105 55.556C492.105 56.256 491.974 56.8767 491.713 57.418C491.461 57.9593 491.106 58.3887 490.649 58.706C490.192 59.014 489.655 59.168 489.039 59.168C488.47 59.168 487.98 59.0327 487.569 58.762C487.158 58.4913 486.864 58.146 486.687 57.726H486.603V61.59H485.483ZM488.759 58.16C489.17 58.16 489.538 58.0667 489.865 57.88C490.201 57.684 490.467 57.39 490.663 56.998C490.859 56.606 490.957 56.1207 490.957 55.542C490.957 54.954 490.859 54.4687 490.663 54.086C490.467 53.694 490.201 53.4047 489.865 53.218C489.538 53.022 489.17 52.924 488.759 52.924C488.367 52.924 488.008 53.022 487.681 53.218C487.354 53.4047 487.093 53.694 486.897 54.086C486.701 54.4687 486.603 54.954 486.603 55.542C486.603 56.1207 486.701 56.606 486.897 56.998C487.093 57.39 487.354 57.684 487.681 57.88C488.008 58.0667 488.367 58.16 488.759 58.16ZM493.905 59V48.85H495.025V59H493.905ZM500.135 59.168C499.398 59.168 498.782 59.0047 498.287 58.678C497.802 58.3513 497.438 57.9127 497.195 57.362C496.952 56.8113 496.831 56.2047 496.831 55.542C496.831 55.038 496.896 54.5667 497.027 54.128C497.167 53.6893 497.372 53.3067 497.643 52.98C497.923 52.644 498.268 52.3827 498.679 52.196C499.099 52.0093 499.584 51.916 500.135 51.916C500.872 51.916 501.479 52.0793 501.955 52.406C502.44 52.7327 502.8 53.1713 503.033 53.722C503.276 54.2633 503.397 54.87 503.397 55.542C503.397 56.046 503.327 56.5173 503.187 56.956C503.056 57.3947 502.856 57.782 502.585 58.118C502.314 58.4447 501.974 58.7013 501.563 58.888C501.162 59.0747 500.686 59.168 500.135 59.168ZM497.979 55.542C497.979 56.074 498.058 56.5453 498.217 56.956C498.376 57.3573 498.614 57.6747 498.931 57.908C499.248 58.132 499.65 58.244 500.135 58.244C500.611 58.244 501.003 58.132 501.311 57.908C501.628 57.6747 501.862 57.3573 502.011 56.956C502.17 56.5453 502.249 56.074 502.249 55.542C502.249 55.01 502.17 54.5433 502.011 54.142C501.862 53.7313 501.628 53.414 501.311 53.19C501.003 52.9567 500.611 52.84 500.135 52.84C499.65 52.84 499.248 52.9567 498.931 53.19C498.614 53.414 498.376 53.7313 498.217 54.142C498.058 54.5433 497.979 55.01 497.979 55.542ZM506.724 59.168C506.304 59.168 505.926 59.0793 505.59 58.902C505.263 58.7247 505.006 58.4773 504.82 58.16C504.633 57.8427 504.54 57.4787 504.54 57.068C504.54 56.6667 504.633 56.3213 504.82 56.032C505.016 55.7333 505.3 55.4953 505.674 55.318C506.047 55.1407 506.495 55.038 507.018 55.01L508.838 54.898V54.408C508.838 54.0533 508.777 53.7687 508.656 53.554C508.544 53.33 508.376 53.1667 508.152 53.064C507.937 52.952 507.671 52.896 507.354 52.896C506.952 52.896 506.607 52.9707 506.318 53.12C506.028 53.2693 505.804 53.4327 505.646 53.61L504.974 52.938C505.216 52.6393 505.548 52.3967 505.968 52.21C506.388 52.014 506.859 51.916 507.382 51.916C508.016 51.916 508.52 52.0233 508.894 52.238C509.267 52.4527 509.533 52.742 509.692 53.106C509.86 53.4607 509.944 53.8573 509.944 54.296V59H508.894V57.824H508.81C508.632 58.2347 508.371 58.5613 508.026 58.804C507.68 59.0467 507.246 59.168 506.724 59.168ZM506.892 58.216C507.47 58.216 507.937 58.048 508.292 57.712C508.656 57.3667 508.838 56.9093 508.838 56.34V55.738L507.074 55.864C506.616 55.9013 506.266 56.018 506.024 56.214C505.79 56.41 505.674 56.6853 505.674 57.04C505.674 57.3947 505.786 57.6793 506.01 57.894C506.243 58.1087 506.537 58.216 506.892 58.216ZM514.69 59.168C514.074 59.168 513.537 59.0093 513.08 58.692C512.622 58.3747 512.263 57.9453 512.002 57.404C511.75 56.8533 511.624 56.228 511.624 55.528C511.624 54.828 511.75 54.2073 512.002 53.666C512.263 53.1153 512.622 52.686 513.08 52.378C513.537 52.07 514.074 51.916 514.69 51.916C515.259 51.916 515.749 52.0513 516.16 52.322C516.57 52.5927 516.864 52.938 517.042 53.358H517.126V48.85H518.246V59H517.182V57.586H517.098C516.939 58.062 516.64 58.4447 516.202 58.734C515.763 59.0233 515.259 59.168 514.69 59.168ZM514.97 58.16C515.371 58.16 515.73 58.0667 516.048 57.88C516.374 57.684 516.636 57.39 516.832 56.998C517.028 56.606 517.126 56.1207 517.126 55.542C517.126 54.954 517.028 54.4687 516.832 54.086C516.636 53.694 516.374 53.4047 516.048 53.218C515.73 53.022 515.371 52.924 514.97 52.924C514.559 52.924 514.186 53.022 513.85 53.218C513.523 53.4047 513.262 53.694 513.066 54.086C512.87 54.4687 512.772 54.954 512.772 55.542C512.772 56.1207 512.87 56.606 513.066 56.998C513.262 57.39 513.523 57.684 513.85 57.88C514.186 58.0667 514.559 58.16 514.97 58.16ZM523.322 59.168C522.659 59.168 522.08 59.0233 521.586 58.734C521.1 58.4447 520.722 58.0293 520.452 57.488C520.181 56.9373 520.046 56.2887 520.046 55.542C520.046 54.954 520.12 54.436 520.27 53.988C520.428 53.5307 520.648 53.1527 520.928 52.854C521.217 52.546 521.553 52.3127 521.936 52.154C522.328 51.9953 522.757 51.916 523.224 51.916C523.69 51.916 524.115 51.9907 524.498 52.14C524.89 52.2893 525.226 52.5133 525.506 52.812C525.795 53.1013 526.019 53.47 526.178 53.918C526.336 54.3567 526.416 54.87 526.416 55.458C526.416 55.5327 526.411 55.6073 526.402 55.682C526.402 55.7567 526.397 55.8173 526.388 55.864H521.166C521.175 56.2933 521.278 56.6853 521.474 57.04C521.67 57.3947 521.931 57.6793 522.258 57.894C522.594 58.0993 522.967 58.202 523.378 58.202C523.872 58.202 524.283 58.104 524.61 57.908C524.936 57.712 525.207 57.474 525.422 57.194L526.094 57.88C525.804 58.272 525.436 58.5847 524.988 58.818C524.54 59.0513 523.984 59.168 523.322 59.168ZM523.224 52.84C522.785 52.84 522.416 52.9427 522.118 53.148C521.819 53.3533 521.59 53.6147 521.432 53.932C521.282 54.2493 521.203 54.5807 521.194 54.926H525.24C525.23 54.5807 525.146 54.2493 524.988 53.932C524.838 53.6147 524.614 53.3533 524.316 53.148C524.026 52.9427 523.662 52.84 523.224 52.84ZM530.713 59.168C530.097 59.168 529.561 59.0093 529.103 58.692C528.646 58.3747 528.287 57.9453 528.025 57.404C527.773 56.8533 527.647 56.228 527.647 55.528C527.647 54.828 527.773 54.2073 528.025 53.666C528.287 53.1153 528.646 52.686 529.103 52.378C529.561 52.07 530.097 51.916 530.713 51.916C531.283 51.916 531.773 52.0513 532.183 52.322C532.594 52.5927 532.888 52.938 533.065 53.358H533.149V48.85H534.269V59H533.205V57.586H533.121C532.963 58.062 532.664 58.4447 532.225 58.734C531.787 59.0233 531.283 59.168 530.713 59.168ZM530.993 58.16C531.395 58.16 531.754 58.0667 532.071 57.88C532.398 57.684 532.659 57.39 532.855 56.998C533.051 56.606 533.149 56.1207 533.149 55.542C533.149 54.954 533.051 54.4687 532.855 54.086C532.659 53.694 532.398 53.4047 532.071 53.218C531.754 53.022 531.395 52.924 530.993 52.924C530.583 52.924 530.209 53.022 529.873 53.218C529.547 53.4047 529.285 53.694 529.089 54.086C528.893 54.4687 528.795 54.954 528.795 55.542C528.795 56.1207 528.893 56.606 529.089 56.998C529.285 57.39 529.547 57.684 529.873 57.88C530.209 58.0667 530.583 58.16 530.993 58.16ZM541.882 59.168C541.285 59.168 540.772 59.0653 540.342 58.86C539.913 58.6547 539.577 58.3887 539.334 58.062L540.076 57.362C540.291 57.614 540.538 57.8193 540.818 57.978C541.108 58.1367 541.467 58.216 541.896 58.216C542.279 58.216 542.615 58.1367 542.904 57.978C543.194 57.81 543.338 57.5533 543.338 57.208C543.338 56.9373 543.254 56.7273 543.086 56.578C542.928 56.4193 542.718 56.2933 542.456 56.2C542.195 56.0973 541.915 56.004 541.616 55.92C541.271 55.8173 540.944 55.6913 540.636 55.542C540.338 55.3833 540.09 55.178 539.894 54.926C539.708 54.6647 539.614 54.3333 539.614 53.932C539.614 53.4933 539.717 53.1247 539.922 52.826C540.137 52.5273 540.422 52.3033 540.776 52.154C541.14 51.9953 541.546 51.916 541.994 51.916C542.489 51.916 542.951 52.0093 543.38 52.196C543.81 52.3733 544.155 52.6533 544.416 53.036L543.688 53.708C543.483 53.4653 543.24 53.2647 542.96 53.106C542.69 52.9473 542.368 52.868 541.994 52.868C541.677 52.868 541.383 52.9473 541.112 53.106C540.842 53.2553 540.706 53.498 540.706 53.834C540.706 54.1047 540.786 54.3193 540.944 54.478C541.112 54.6273 541.327 54.7487 541.588 54.842C541.85 54.9353 542.13 55.0287 542.428 55.122C542.774 55.2247 543.096 55.3553 543.394 55.514C543.702 55.6633 543.95 55.864 544.136 56.116C544.332 56.368 544.43 56.6993 544.43 57.11C544.43 57.586 544.314 57.978 544.08 58.286C543.847 58.5847 543.534 58.8087 543.142 58.958C542.76 59.098 542.34 59.168 541.882 59.168ZM548.744 59.168C548.24 59.168 547.796 59.0793 547.414 58.902C547.04 58.7153 546.746 58.426 546.532 58.034C546.326 57.642 546.224 57.1333 546.224 56.508V52.084H547.344V56.298C547.344 56.7647 547.404 57.1427 547.526 57.432C547.656 57.7213 547.843 57.9313 548.086 58.062C548.328 58.1833 548.622 58.244 548.968 58.244C549.472 58.244 549.868 58.062 550.158 57.698C550.456 57.334 550.606 56.802 550.606 56.102V52.084H551.726V59H550.662V57.908H550.578C550.41 58.272 550.176 58.5753 549.878 58.818C549.588 59.0513 549.21 59.168 548.744 59.168ZM556.734 59.168C555.987 59.168 555.376 58.9953 554.9 58.65C554.424 58.3047 554.074 57.8567 553.85 57.306C553.635 56.746 553.528 56.158 553.528 55.542C553.528 54.9167 553.635 54.3287 553.85 53.778C554.065 53.2273 554.405 52.7793 554.872 52.434C555.348 52.0887 555.959 51.916 556.706 51.916C557.285 51.916 557.761 52.014 558.134 52.21C558.517 52.406 558.839 52.6673 559.1 52.994L558.4 53.652C558.176 53.4093 557.938 53.2227 557.686 53.092C557.443 52.952 557.126 52.882 556.734 52.882C556.333 52.882 555.973 52.9893 555.656 53.204C555.348 53.4187 555.105 53.7267 554.928 54.128C554.76 54.52 554.676 54.9913 554.676 55.542C554.676 56.3633 554.872 57.012 555.264 57.488C555.656 57.964 556.155 58.202 556.762 58.202C557.135 58.202 557.457 58.1367 557.728 58.006C557.999 57.866 558.251 57.6653 558.484 57.404L559.156 58.076C558.895 58.4027 558.563 58.6687 558.162 58.874C557.77 59.07 557.294 59.168 556.734 59.168ZM563.283 59.168C562.536 59.168 561.925 58.9953 561.449 58.65C560.973 58.3047 560.623 57.8567 560.399 57.306C560.184 56.746 560.077 56.158 560.077 55.542C560.077 54.9167 560.184 54.3287 560.399 53.778C560.614 53.2273 560.954 52.7793 561.421 52.434C561.897 52.0887 562.508 51.916 563.255 51.916C563.834 51.916 564.31 52.014 564.683 52.21C565.066 52.406 565.388 52.6673 565.649 52.994L564.949 53.652C564.725 53.4093 564.487 53.2227 564.235 53.092C563.992 52.952 563.675 52.882 563.283 52.882C562.882 52.882 562.522 52.9893 562.205 53.204C561.897 53.4187 561.654 53.7267 561.477 54.128C561.309 54.52 561.225 54.9913 561.225 55.542C561.225 56.3633 561.421 57.012 561.813 57.488C562.205 57.964 562.704 58.202 563.311 58.202C563.684 58.202 564.006 58.1367 564.277 58.006C564.548 57.866 564.8 57.6653 565.033 57.404L565.705 58.076C565.444 58.4027 565.112 58.6687 564.711 58.874C564.319 59.07 563.843 59.168 563.283 59.168ZM569.902 59.168C569.239 59.168 568.66 59.0233 568.166 58.734C567.68 58.4447 567.302 58.0293 567.032 57.488C566.761 56.9373 566.626 56.2887 566.626 55.542C566.626 54.954 566.7 54.436 566.85 53.988C567.008 53.5307 567.228 53.1527 567.508 52.854C567.797 52.546 568.133 52.3127 568.516 52.154C568.908 51.9953 569.337 51.916 569.804 51.916C570.27 51.916 570.695 51.9907 571.078 52.14C571.47 52.2893 571.806 52.5133 572.086 52.812C572.375 53.1013 572.599 53.47 572.758 53.918C572.916 54.3567 572.996 54.87 572.996 55.458C572.996 55.5327 572.991 55.6073 572.982 55.682C572.982 55.7567 572.977 55.8173 572.968 55.864H567.746C567.755 56.2933 567.858 56.6853 568.054 57.04C568.25 57.3947 568.511 57.6793 568.838 57.894C569.174 58.0993 569.547 58.202 569.958 58.202C570.452 58.202 570.863 58.104 571.19 57.908C571.516 57.712 571.787 57.474 572.002 57.194L572.674 57.88C572.384 58.272 572.016 58.5847 571.568 58.818C571.12 59.0513 570.564 59.168 569.902 59.168ZM569.804 52.84C569.365 52.84 568.996 52.9427 568.698 53.148C568.399 53.3533 568.17 53.6147 568.012 53.932C567.862 54.2493 567.783 54.5807 567.774 54.926H571.82C571.81 54.5807 571.726 54.2493 571.568 53.932C571.418 53.6147 571.194 53.3533 570.896 53.148C570.606 52.9427 570.242 52.84 569.804 52.84ZM576.677 59.168C576.08 59.168 575.567 59.0653 575.137 58.86C574.708 58.6547 574.372 58.3887 574.129 58.062L574.871 57.362C575.086 57.614 575.333 57.8193 575.613 57.978C575.903 58.1367 576.262 58.216 576.691 58.216C577.074 58.216 577.41 58.1367 577.699 57.978C577.989 57.81 578.133 57.5533 578.133 57.208C578.133 56.9373 578.049 56.7273 577.881 56.578C577.723 56.4193 577.513 56.2933 577.251 56.2C576.99 56.0973 576.71 56.004 576.411 55.92C576.066 55.8173 575.739 55.6913 575.431 55.542C575.133 55.3833 574.885 55.178 574.689 54.926C574.503 54.6647 574.409 54.3333 574.409 53.932C574.409 53.4933 574.512 53.1247 574.717 52.826C574.932 52.5273 575.217 52.3033 575.571 52.154C575.935 51.9953 576.341 51.916 576.789 51.916C577.284 51.916 577.746 52.0093 578.175 52.196C578.605 52.3733 578.95 52.6533 579.211 53.036L578.483 53.708C578.278 53.4653 578.035 53.2647 577.755 53.106C577.485 52.9473 577.163 52.868 576.789 52.868C576.472 52.868 576.178 52.9473 575.907 53.106C575.637 53.2553 575.501 53.498 575.501 53.834C575.501 54.1047 575.581 54.3193 575.739 54.478C575.907 54.6273 576.122 54.7487 576.383 54.842C576.645 54.9353 576.925 55.0287 577.223 55.122C577.569 55.2247 577.891 55.3553 578.189 55.514C578.497 55.6633 578.745 55.864 578.931 56.116C579.127 56.368 579.225 56.6993 579.225 57.11C579.225 57.586 579.109 57.978 578.875 58.286C578.642 58.5847 578.329 58.8087 577.937 58.958C577.555 59.098 577.135 59.168 576.677 59.168ZM583.035 59.168C582.437 59.168 581.924 59.0653 581.495 58.86C581.065 58.6547 580.729 58.3887 580.487 58.062L581.229 57.362C581.443 57.614 581.691 57.8193 581.971 57.978C582.26 58.1367 582.619 58.216 583.049 58.216C583.431 58.216 583.767 58.1367 584.057 57.978C584.346 57.81 584.491 57.5533 584.491 57.208C584.491 56.9373 584.407 56.7273 584.239 56.578C584.08 56.4193 583.87 56.2933 583.609 56.2C583.347 56.0973 583.067 56.004 582.769 55.92C582.423 55.8173 582.097 55.6913 581.789 55.542C581.49 55.3833 581.243 55.178 581.047 54.926C580.86 54.6647 580.767 54.3333 580.767 53.932C580.767 53.4933 580.869 53.1247 581.075 52.826C581.289 52.5273 581.574 52.3033 581.929 52.154C582.293 51.9953 582.699 51.916 583.147 51.916C583.641 51.916 584.103 52.0093 584.533 52.196C584.962 52.3733 585.307 52.6533 585.569 53.036L584.841 53.708C584.635 53.4653 584.393 53.2647 584.113 53.106C583.842 52.9473 583.52 52.868 583.147 52.868C582.829 52.868 582.535 52.9473 582.265 53.106C581.994 53.2553 581.859 53.498 581.859 53.834C581.859 54.1047 581.938 54.3193 582.097 54.478C582.265 54.6273 582.479 54.7487 582.741 54.842C583.002 54.9353 583.282 55.0287 583.581 55.122C583.926 55.2247 584.248 55.3553 584.547 55.514C584.855 55.6633 585.102 55.864 585.289 56.116C585.485 56.368 585.583 56.6993 585.583 57.11C585.583 57.586 585.466 57.978 585.233 58.286C584.999 58.5847 584.687 58.8087 584.295 58.958C583.912 59.098 583.492 59.168 583.035 59.168ZM587.866 59V52.994H586.634V52.084H587.866V50.866C587.866 50.418 587.941 50.0307 588.09 49.704C588.249 49.3773 588.478 49.1253 588.776 48.948C589.084 48.7707 589.458 48.682 589.896 48.682C590.064 48.682 590.237 48.7007 590.414 48.738C590.592 48.766 590.746 48.8127 590.876 48.878L590.498 49.76C590.433 49.7227 590.344 49.6947 590.232 49.676C590.12 49.648 590.022 49.634 589.938 49.634C589.649 49.634 589.416 49.7367 589.238 49.942C589.07 50.1473 588.986 50.46 588.986 50.88V52.084H590.834V52.994H588.986V59H587.866ZM594.586 59.168C594.082 59.168 593.638 59.0793 593.256 58.902C592.882 58.7153 592.588 58.426 592.374 58.034C592.168 57.642 592.066 57.1333 592.066 56.508V52.084H593.186V56.298C593.186 56.7647 593.246 57.1427 593.368 57.432C593.498 57.7213 593.685 57.9313 593.928 58.062C594.17 58.1833 594.464 58.244 594.81 58.244C595.314 58.244 595.71 58.062 596 57.698C596.298 57.334 596.448 56.802 596.448 56.102V52.084H597.568V59H596.504V57.908H596.42C596.252 58.272 596.018 58.5753 595.72 58.818C595.43 59.0513 595.052 59.168 594.586 59.168ZM599.944 59V48.85H601.064V59H599.944ZM603.444 59V48.85H604.564V59H603.444ZM607.378 61.646C607.285 61.646 607.182 61.6367 607.07 61.618C606.958 61.6087 606.865 61.5947 606.79 61.576V60.61C606.837 60.6193 606.911 60.6287 607.014 60.638C607.126 60.6473 607.229 60.652 607.322 60.652C607.574 60.652 607.779 60.6193 607.938 60.554C608.097 60.498 608.241 60.3673 608.372 60.162C608.503 59.9567 608.647 59.644 608.806 59.224L606.034 52.084H607.252L609.338 57.88H609.422L611.522 52.084H612.656L609.94 59.07C609.707 59.6767 609.478 60.1667 609.254 60.54C609.03 60.9227 608.773 61.2027 608.484 61.38C608.195 61.5573 607.826 61.646 607.378 61.646ZM613.848 59.168C613.586 59.168 613.381 59.084 613.232 58.916C613.082 58.748 613.008 58.5567 613.008 58.342C613.008 58.1927 613.04 58.0573 613.106 57.936C613.18 57.8053 613.278 57.7027 613.4 57.628C613.53 57.5533 613.68 57.516 613.848 57.516C614.118 57.516 614.324 57.6 614.464 57.768C614.613 57.9267 614.688 58.118 614.688 58.342C614.688 58.4913 614.655 58.6267 614.59 58.748C614.524 58.8693 614.426 58.9673 614.296 59.042C614.174 59.126 614.025 59.168 613.848 59.168Z" fill="#2B7836"/>
<g clip-path="url(#clip4_24172_11820)">
<path d="M655 40C655 26.7452 665.745 16 679 16H752C765.255 16 776 26.7452 776 40C776 53.2548 765.255 64 752 64H679C665.745 64 655 53.2548 655 40Z" fill="#F6F3EF"/>
<path d="M655 40C655 26.7452 665.745 16 679 16H752C765.255 16 776 26.7452 776 40C776 53.2548 765.255 64 752 64H679C665.745 64 655 53.2548 655 40Z" fill="white" fill-opacity="0.01"/>
<path d="M680.126 47V34H686.166C686.993 34 687.726 34.1733 688.366 34.52C689.006 34.8533 689.513 35.3267 689.886 35.94C690.259 36.5533 690.446 37.2733 690.446 38.1C690.446 38.94 690.246 39.68 689.846 40.32C689.459 40.9467 688.859 41.3933 688.046 41.66L688.026 41.74L690.966 47H687.246L684.906 42.44H683.506V47H680.126ZM683.506 39.94H685.706C686.119 39.94 686.446 39.7867 686.686 39.48C686.939 39.16 687.066 38.7333 687.066 38.2C687.066 37.6533 686.939 37.2333 686.686 36.94C686.446 36.6467 686.113 36.5 685.686 36.5H683.506V39.94ZM696.989 47.24C695.789 47.24 694.809 46.9933 694.049 46.5C693.289 45.9933 692.729 45.3467 692.369 44.56C692.022 43.7733 691.849 42.94 691.849 42.06C691.849 41.3933 691.936 40.7533 692.109 40.14C692.296 39.5267 692.582 38.9733 692.969 38.48C693.356 37.9867 693.862 37.6 694.489 37.32C695.129 37.0267 695.902 36.88 696.809 36.88C697.716 36.88 698.482 37.02 699.109 37.3C699.736 37.58 700.236 37.9667 700.609 38.46C700.996 38.94 701.269 39.4867 701.429 40.1C701.602 40.7 701.689 41.3267 701.689 41.98C701.689 42.1267 701.676 42.32 701.649 42.56C701.622 42.7867 701.589 42.96 701.549 43.08H695.069C695.149 43.4667 695.302 43.7733 695.529 44C695.769 44.2267 696.036 44.3933 696.329 44.5C696.636 44.5933 696.916 44.64 697.169 44.64C697.636 44.64 698.036 44.5667 698.369 44.42C698.716 44.2733 698.982 44.08 699.169 43.84L700.909 45.66C700.589 46.1133 700.082 46.4933 699.389 46.8C698.696 47.0933 697.896 47.24 696.989 47.24ZM696.809 39.24C696.529 39.24 696.262 39.3 696.009 39.42C695.769 39.5267 695.556 39.7067 695.369 39.96C695.196 40.2133 695.076 40.5533 695.009 40.98H698.569C698.516 40.5533 698.396 40.2133 698.209 39.96C698.036 39.7067 697.829 39.5267 697.589 39.42C697.349 39.3 697.089 39.24 696.809 39.24ZM703.23 47V37.12H706.21V38.76H706.33C706.57 38.16 706.95 37.7 707.47 37.38C707.99 37.0467 708.557 36.88 709.17 36.88C710.037 36.88 710.717 37.0467 711.21 37.38C711.703 37.7133 712.057 38.1933 712.27 38.82C712.43 38.4467 712.657 38.1133 712.95 37.82C713.257 37.5267 713.61 37.3 714.01 37.14C714.423 36.9667 714.863 36.88 715.33 36.88C716.17 36.88 716.837 37.04 717.33 37.36C717.837 37.6667 718.197 38.1267 718.41 38.74C718.623 39.3533 718.73 40.1 718.73 40.98V47H715.55V41.5C715.55 41.1133 715.503 40.78 715.41 40.5C715.317 40.2067 715.163 39.98 714.95 39.82C714.737 39.66 714.45 39.58 714.09 39.58C713.557 39.58 713.17 39.7533 712.93 40.1C712.69 40.4333 712.57 40.9 712.57 41.5V47H709.39V41.5C709.39 41.1133 709.343 40.78 709.25 40.5C709.157 40.2067 709.003 39.98 708.79 39.82C708.59 39.66 708.303 39.58 707.93 39.58C707.41 39.58 707.023 39.7533 706.77 40.1C706.53 40.4333 706.41 40.9 706.41 41.5V47H703.23ZM725.329 47.24C724.196 47.24 723.243 47.0067 722.469 46.54C721.709 46.06 721.136 45.4267 720.749 44.64C720.363 43.8533 720.169 42.9933 720.169 42.06C720.169 41.3533 720.276 40.6867 720.489 40.06C720.716 39.4333 721.043 38.8867 721.469 38.42C721.896 37.94 722.429 37.5667 723.069 37.3C723.723 37.02 724.476 36.88 725.329 36.88C726.463 36.88 727.409 37.12 728.169 37.6C728.929 38.0667 729.503 38.6933 729.889 39.48C730.276 40.2533 730.469 41.1133 730.469 42.06C730.469 42.7667 730.363 43.4333 730.149 44.06C729.936 44.6867 729.609 45.24 729.169 45.72C728.743 46.1867 728.209 46.56 727.569 46.84C726.929 47.1067 726.183 47.24 725.329 47.24ZM723.409 42.06C723.409 42.62 723.489 43.1 723.649 43.5C723.823 43.8867 724.049 44.1867 724.329 44.4C724.623 44.6 724.956 44.7 725.329 44.7C725.703 44.7 726.029 44.6 726.309 44.4C726.589 44.1867 726.809 43.8867 726.969 43.5C727.143 43.1 727.229 42.62 727.229 42.06C727.229 41.4867 727.143 41.0067 726.969 40.62C726.809 40.2333 726.589 39.94 726.309 39.74C726.029 39.5267 725.703 39.42 725.329 39.42C724.956 39.42 724.623 39.5267 724.329 39.74C724.049 39.94 723.823 40.2333 723.649 40.62C723.489 41.0067 723.409 41.4867 723.409 42.06ZM734.406 47L730.846 37.12H734.346L736.126 43.64H736.246L738.046 37.12H741.306L737.746 47H734.406ZM746.813 47.24C745.613 47.24 744.633 46.9933 743.873 46.5C743.113 45.9933 742.553 45.3467 742.193 44.56C741.847 43.7733 741.673 42.94 741.673 42.06C741.673 41.3933 741.76 40.7533 741.933 40.14C742.12 39.5267 742.407 38.9733 742.793 38.48C743.18 37.9867 743.687 37.6 744.313 37.32C744.953 37.0267 745.727 36.88 746.633 36.88C747.54 36.88 748.307 37.02 748.933 37.3C749.56 37.58 750.06 37.9667 750.433 38.46C750.82 38.94 751.093 39.4867 751.253 40.1C751.427 40.7 751.513 41.3267 751.513 41.98C751.513 42.1267 751.5 42.32 751.473 42.56C751.447 42.7867 751.413 42.96 751.373 43.08H744.893C744.973 43.4667 745.127 43.7733 745.353 44C745.593 44.2267 745.86 44.3933 746.153 44.5C746.46 44.5933 746.74 44.64 746.993 44.64C747.46 44.64 747.86 44.5667 748.193 44.42C748.54 44.2733 748.807 44.08 748.993 43.84L750.733 45.66C750.413 46.1133 749.907 46.4933 749.213 46.8C748.52 47.0933 747.72 47.24 746.813 47.24ZM746.633 39.24C746.353 39.24 746.087 39.3 745.833 39.42C745.593 39.5267 745.38 39.7067 745.193 39.96C745.02 40.2133 744.9 40.5533 744.833 40.98H748.393C748.34 40.5533 748.22 40.2133 748.033 39.96C747.86 39.7067 747.653 39.5267 747.413 39.42C747.173 39.3 746.913 39.24 746.633 39.24Z" fill="black" fill-opacity="0.76"/>
</g>
</g>
<path d="M420 0.5H780C786.351 0.5 791.5 5.64873 791.5 12V68C791.5 74.3513 786.351 79.5 780 79.5H420C413.649 79.5 408.5 74.3513 408.5 68V12C408.5 5.64873 413.649 0.5 420 0.5Z" stroke="#F0ECE6"/>
<g clip-path="url(#clip5_24172_11820)">
<path d="M220 121C220 114.373 225.373 109 232 109H584C590.627 109 596 114.373 596 121V177C596 183.627 590.627 189 584 189H232C225.373 189 220 183.627 220 177V121Z" fill="white"/>
<path d="M237.168 143V132.6H243.232V134.328H239.312V137.256H243.088V138.968H239.312V143H237.168ZM244.947 143V135.096H246.963V143H244.947ZM245.971 134.056C245.587 134.056 245.293 133.939 245.091 133.704C244.888 133.469 244.787 133.203 244.787 132.904C244.787 132.595 244.888 132.328 245.091 132.104C245.293 131.869 245.587 131.752 245.971 131.752C246.344 131.752 246.632 131.869 246.835 132.104C247.048 132.328 247.155 132.595 247.155 132.904C247.155 133.203 247.048 133.469 246.835 133.704C246.632 133.939 246.344 134.056 245.971 134.056ZM249.087 143V131.4H251.103V143H249.087ZM256.652 143.192C255.777 143.192 255.041 143.005 254.444 142.632C253.857 142.259 253.415 141.763 253.116 141.144C252.828 140.515 252.684 139.816 252.684 139.048C252.684 138.461 252.764 137.917 252.924 137.416C253.084 136.904 253.319 136.461 253.628 136.088C253.948 135.715 254.348 135.427 254.828 135.224C255.308 135.011 255.873 134.904 256.524 134.904C257.164 134.904 257.719 135.005 258.188 135.208C258.668 135.411 259.063 135.699 259.372 136.072C259.692 136.435 259.927 136.861 260.076 137.352C260.236 137.843 260.316 138.381 260.316 138.968C260.316 139.075 260.305 139.203 260.284 139.352C260.273 139.491 260.257 139.597 260.236 139.672H254.732C254.764 140.056 254.881 140.387 255.084 140.664C255.287 140.941 255.537 141.155 255.836 141.304C256.135 141.443 256.444 141.512 256.764 141.512C257.212 141.512 257.591 141.432 257.9 141.272C258.22 141.112 258.476 140.909 258.668 140.664L259.804 141.848C259.516 142.243 259.1 142.568 258.556 142.824C258.023 143.069 257.388 143.192 256.652 143.192ZM256.524 136.44C256.183 136.44 255.879 136.52 255.612 136.68C255.356 136.829 255.148 137.037 254.988 137.304C254.839 137.571 254.748 137.885 254.716 138.248H258.3C258.268 137.885 258.172 137.571 258.012 137.304C257.863 137.037 257.66 136.829 257.404 136.68C257.148 136.52 256.855 136.44 256.524 136.44ZM261.884 143V135.096H263.788V136.376H263.884C264.001 136.099 264.167 135.848 264.38 135.624C264.604 135.4 264.865 135.224 265.164 135.096C265.463 134.968 265.788 134.904 266.14 134.904C267.132 134.904 267.852 135.171 268.3 135.704C268.748 136.227 268.972 137.021 268.972 138.088V143H266.956V138.488C266.956 137.859 266.839 137.389 266.604 137.08C266.369 136.76 265.985 136.6 265.452 136.6C264.94 136.6 264.551 136.771 264.284 137.112C264.028 137.443 263.9 137.928 263.9 138.568V143H261.884ZM272.993 143.192C272.523 143.192 272.091 143.096 271.697 142.904C271.302 142.701 270.987 142.424 270.753 142.072C270.529 141.709 270.417 141.277 270.417 140.776C270.417 140.307 270.529 139.901 270.753 139.56C270.977 139.219 271.313 138.947 271.761 138.744C272.219 138.541 272.785 138.424 273.457 138.392L275.313 138.28V137.96C275.313 137.619 275.238 137.352 275.089 137.16C274.95 136.968 274.758 136.829 274.513 136.744C274.278 136.659 274.006 136.616 273.697 136.616C273.334 136.616 272.993 136.685 272.673 136.824C272.353 136.952 272.113 137.112 271.953 137.304L270.817 136.152C271.105 135.789 271.51 135.491 272.033 135.256C272.555 135.021 273.201 134.904 273.969 134.904C274.715 134.904 275.334 135.027 275.825 135.272C276.326 135.507 276.699 135.843 276.945 136.28C277.201 136.707 277.329 137.219 277.329 137.816V143H275.425V141.736H275.329C275.126 142.173 274.833 142.525 274.449 142.792C274.065 143.059 273.579 143.192 272.993 143.192ZM273.585 141.736C274.097 141.736 274.513 141.592 274.833 141.304C275.153 141.005 275.313 140.589 275.313 140.056V139.528L273.697 139.656C273.281 139.677 272.966 139.779 272.753 139.96C272.55 140.141 272.449 140.392 272.449 140.712C272.449 141.032 272.555 141.283 272.769 141.464C272.982 141.645 273.254 141.736 273.585 141.736ZM279.306 143V135.096H281.21V136.376H281.306C281.498 135.928 281.786 135.571 282.17 135.304C282.554 135.037 283.002 134.904 283.514 134.904C284.175 134.904 284.714 135.032 285.13 135.288C285.546 135.533 285.845 135.896 286.026 136.376C286.165 136.077 286.351 135.821 286.586 135.608C286.821 135.384 287.098 135.213 287.418 135.096C287.738 134.968 288.09 134.904 288.474 134.904C289.103 134.904 289.626 135.021 290.042 135.256C290.458 135.491 290.762 135.843 290.954 136.312C291.157 136.781 291.258 137.373 291.258 138.088V143H289.242V138.424C289.242 138.019 289.189 137.683 289.082 137.416C288.975 137.139 288.815 136.936 288.602 136.808C288.389 136.669 288.117 136.6 287.786 136.6C287.285 136.6 286.906 136.765 286.65 137.096C286.405 137.427 286.282 137.901 286.282 138.52V143H284.266V138.424C284.266 138.019 284.213 137.683 284.106 137.416C284.01 137.139 283.855 136.936 283.642 136.808C283.439 136.669 283.162 136.6 282.81 136.6C282.33 136.6 281.962 136.765 281.706 137.096C281.45 137.427 281.322 137.901 281.322 138.52V143H279.306ZM296.683 143.192C295.808 143.192 295.072 143.005 294.475 142.632C293.888 142.259 293.446 141.763 293.147 141.144C292.859 140.515 292.715 139.816 292.715 139.048C292.715 138.461 292.795 137.917 292.955 137.416C293.115 136.904 293.35 136.461 293.659 136.088C293.979 135.715 294.379 135.427 294.859 135.224C295.339 135.011 295.904 134.904 296.555 134.904C297.195 134.904 297.75 135.005 298.219 135.208C298.699 135.411 299.094 135.699 299.403 136.072C299.723 136.435 299.958 136.861 300.107 137.352C300.267 137.843 300.347 138.381 300.347 138.968C300.347 139.075 300.336 139.203 300.315 139.352C300.304 139.491 300.288 139.597 300.267 139.672H294.763C294.795 140.056 294.912 140.387 295.115 140.664C295.318 140.941 295.568 141.155 295.867 141.304C296.166 141.443 296.475 141.512 296.795 141.512C297.243 141.512 297.622 141.432 297.931 141.272C298.251 141.112 298.507 140.909 298.699 140.664L299.835 141.848C299.547 142.243 299.131 142.568 298.587 142.824C298.054 143.069 297.419 143.192 296.683 143.192ZM296.555 136.44C296.214 136.44 295.91 136.52 295.643 136.68C295.387 136.829 295.179 137.037 295.019 137.304C294.87 137.571 294.779 137.885 294.747 138.248H298.331C298.299 137.885 298.203 137.571 298.043 137.304C297.894 137.037 297.691 136.829 297.435 136.68C297.179 136.52 296.886 136.44 296.555 136.44ZM302.661 143.192C302.234 143.192 301.909 143.064 301.685 142.808C301.461 142.541 301.349 142.237 301.349 141.896C301.349 141.672 301.397 141.464 301.493 141.272C301.599 141.08 301.749 140.925 301.941 140.808C302.143 140.68 302.383 140.616 302.661 140.616C303.087 140.616 303.413 140.749 303.637 141.016C303.861 141.272 303.973 141.565 303.973 141.896C303.973 142.131 303.925 142.344 303.829 142.536C303.733 142.728 303.583 142.883 303.381 143C303.189 143.128 302.949 143.192 302.661 143.192ZM305.915 145.96V135.096H307.835V136.584H307.931C308.123 136.072 308.443 135.667 308.891 135.368C309.35 135.059 309.889 134.904 310.507 134.904C311.169 134.904 311.755 135.08 312.267 135.432C312.779 135.773 313.185 136.253 313.483 136.872C313.782 137.491 313.931 138.205 313.931 139.016C313.931 139.827 313.782 140.547 313.483 141.176C313.185 141.805 312.779 142.301 312.267 142.664C311.755 143.016 311.169 143.192 310.507 143.192C309.889 143.192 309.366 143.048 308.939 142.76C308.523 142.461 308.219 142.088 308.027 141.64H307.931V145.96H305.915ZM309.883 141.432C310.278 141.432 310.625 141.336 310.923 141.144C311.222 140.952 311.451 140.68 311.611 140.328C311.782 139.965 311.867 139.539 311.867 139.048C311.867 138.557 311.782 138.136 311.611 137.784C311.451 137.421 311.222 137.144 310.923 136.952C310.625 136.76 310.278 136.664 309.883 136.664C309.499 136.664 309.158 136.76 308.859 136.952C308.571 137.144 308.342 137.421 308.171 137.784C308.011 138.136 307.931 138.557 307.931 139.048C307.931 139.539 308.011 139.965 308.171 140.328C308.342 140.68 308.571 140.952 308.859 141.144C309.158 141.336 309.499 141.432 309.883 141.432ZM318.405 143.192C317.744 143.192 317.157 143.016 316.645 142.664C316.133 142.312 315.728 141.832 315.429 141.224C315.141 140.605 314.997 139.891 314.997 139.08C314.997 138.259 315.141 137.539 315.429 136.92C315.728 136.291 316.133 135.8 316.645 135.448C317.157 135.085 317.744 134.904 318.405 134.904C319.024 134.904 319.541 135.053 319.957 135.352C320.384 135.64 320.688 136.008 320.869 136.456H320.965V131.4H322.981V143H321.077V141.512H320.981C320.789 142.024 320.464 142.435 320.005 142.744C319.557 143.043 319.024 143.192 318.405 143.192ZM319.013 141.432C319.418 141.432 319.765 141.336 320.053 141.144C320.341 140.952 320.565 140.68 320.725 140.328C320.885 139.965 320.965 139.539 320.965 139.048C320.965 138.557 320.885 138.136 320.725 137.784C320.565 137.421 320.341 137.144 320.053 136.952C319.765 136.76 319.418 136.664 319.013 136.664C318.618 136.664 318.272 136.76 317.973 136.952C317.685 137.144 317.461 137.421 317.301 137.784C317.141 138.136 317.061 138.557 317.061 139.048C317.061 139.539 317.141 139.965 317.301 140.328C317.461 140.68 317.685 140.952 317.973 141.144C318.272 141.336 318.618 141.432 319.013 141.432ZM325.599 143V136.712H324.351V135.096H325.599V134.072C325.599 133.496 325.7 132.995 325.903 132.568C326.106 132.141 326.415 131.811 326.831 131.576C327.247 131.331 327.77 131.208 328.399 131.208C328.623 131.208 328.842 131.229 329.055 131.272C329.268 131.315 329.455 131.373 329.615 131.448L328.991 133C328.938 132.957 328.852 132.925 328.735 132.904C328.628 132.883 328.532 132.872 328.447 132.872C328.191 132.872 327.988 132.968 327.839 133.16C327.69 133.341 327.615 133.64 327.615 134.056V135.096H329.647V136.712H327.615V143H325.599Z" fill="black" fill-opacity="0.76"/>
<path d="M342.976 143.192C341.781 143.192 340.869 142.771 340.24 141.928C339.621 141.075 339.312 139.8 339.312 138.104C339.312 136.259 339.664 134.851 340.368 133.88C341.072 132.899 342.027 132.408 343.232 132.408C343.968 132.408 344.565 132.52 345.024 132.744C345.483 132.957 345.867 133.235 346.176 133.576L345.36 134.44C345.093 134.163 344.795 133.955 344.464 133.816C344.133 133.667 343.739 133.592 343.28 133.592C342.459 133.592 341.803 133.96 341.312 134.696C340.832 135.432 340.592 136.531 340.592 137.992H340.688C340.891 137.555 341.205 137.187 341.632 136.888C342.059 136.579 342.603 136.424 343.264 136.424C343.659 136.424 344.048 136.493 344.432 136.632C344.827 136.771 345.173 136.979 345.472 137.256C345.771 137.533 346.011 137.875 346.192 138.28C346.384 138.685 346.48 139.155 346.48 139.688C346.48 140.179 346.4 140.637 346.24 141.064C346.091 141.491 345.867 141.864 345.568 142.184C345.269 142.493 344.901 142.739 344.464 142.92C344.027 143.101 343.531 143.192 342.976 143.192ZM342.992 142.008C343.664 142.008 344.181 141.8 344.544 141.384C344.907 140.957 345.088 140.419 345.088 139.768C345.088 139.096 344.901 138.568 344.528 138.184C344.165 137.789 343.653 137.592 342.992 137.592C342.331 137.592 341.813 137.789 341.44 138.184C341.067 138.568 340.88 139.096 340.88 139.768C340.88 140.419 341.061 140.957 341.424 141.384C341.797 141.8 342.32 142.008 342.992 142.008ZM349.066 132.6H350.89L354.458 141.464H354.554L358.122 132.6H359.978V143H358.698V134.408H358.602L355.178 143H353.834L350.41 134.408H350.314V143H349.066V132.6ZM362.925 132.6H366.301C367.144 132.6 367.821 132.84 368.333 133.32C368.856 133.789 369.117 134.456 369.117 135.32C369.117 135.875 368.957 136.355 368.637 136.76C368.328 137.165 367.922 137.432 367.421 137.56V137.656C367.677 137.699 367.933 137.795 368.189 137.944C368.445 138.083 368.674 138.264 368.877 138.488C369.08 138.701 369.24 138.957 369.357 139.256C369.485 139.544 369.549 139.859 369.549 140.2C369.549 140.627 369.469 141.011 369.309 141.352C369.16 141.693 368.946 141.987 368.669 142.232C368.392 142.477 368.066 142.669 367.693 142.808C367.32 142.936 366.914 143 366.477 143H362.925V132.6ZM366.141 137.16C366.621 137.16 367.005 137.005 367.293 136.696C367.581 136.387 367.725 135.971 367.725 135.448C367.725 134.915 367.581 134.499 367.293 134.2C367.016 133.891 366.637 133.736 366.157 133.736H364.285V137.16H366.141ZM366.461 141.864C366.984 141.864 367.394 141.704 367.693 141.384C368.002 141.064 368.157 140.632 368.157 140.088C368.157 139.523 368.002 139.08 367.693 138.76C367.394 138.44 366.984 138.28 366.461 138.28H364.285V141.864H366.461Z" fill="black" fill-opacity="0.64"/>
<g clip-path="url(#clip6_24172_11820)">
<path d="M246 171.477C244.323 171.477 242.685 170.979 241.291 170.048C239.897 169.117 238.81 167.793 238.169 166.244C237.527 164.695 237.359 162.991 237.686 161.346C238.013 159.702 238.821 158.192 240.006 157.006C241.192 155.821 242.702 155.013 244.346 154.686C245.991 154.359 247.695 154.527 249.244 155.169C250.793 155.81 252.117 156.897 253.048 158.291C253.979 159.685 254.477 161.323 254.477 163C254.474 165.247 253.58 167.402 251.991 168.991C250.402 170.58 248.247 171.474 246 171.477ZM246 156.164C244.648 156.164 243.326 156.565 242.202 157.316C241.078 158.067 240.202 159.135 239.684 160.384C239.167 161.633 239.032 163.008 239.295 164.334C239.559 165.66 240.21 166.878 241.166 167.834C242.122 168.79 243.34 169.441 244.666 169.705C245.992 169.968 247.367 169.833 248.616 169.316C249.865 168.798 250.933 167.922 251.684 166.798C252.435 165.674 252.836 164.352 252.836 163C252.836 162.102 252.659 161.213 252.316 160.384C251.972 159.555 251.469 158.801 250.834 158.166C250.199 157.531 249.445 157.028 248.616 156.684C247.787 156.341 246.898 156.164 246 156.164Z" fill="#CC0300"/>
<path d="M244.819 158.789C245.591 158.572 246.409 158.572 247.181 158.789L246.58 164.094H245.42L244.819 158.789ZM247.094 166.281C247.094 166.498 247.03 166.709 246.909 166.889C246.789 167.069 246.618 167.209 246.419 167.292C246.219 167.375 245.999 167.396 245.787 167.354C245.574 167.312 245.38 167.208 245.227 167.055C245.074 166.902 244.969 166.707 244.927 166.495C244.885 166.282 244.907 166.063 244.99 165.863C245.072 165.663 245.212 165.492 245.392 165.372C245.572 165.252 245.784 165.188 246 165.188C246.29 165.188 246.568 165.303 246.773 165.508C246.979 165.713 247.094 165.991 247.094 166.281Z" fill="#CC0300"/>
</g>
<path d="M267.668 168.168C266.875 168.168 266.231 168.047 265.736 167.804C265.241 167.552 264.849 167.239 264.56 166.866L265.316 166.152C265.568 166.46 265.904 166.703 266.324 166.88C266.744 167.057 267.229 167.146 267.78 167.146C268.116 167.146 268.429 167.099 268.718 167.006C269.017 166.903 269.259 166.74 269.446 166.516C269.633 166.292 269.726 165.993 269.726 165.62C269.726 165.293 269.628 165.032 269.432 164.836C269.245 164.631 268.989 164.458 268.662 164.318C268.345 164.178 267.981 164.043 267.57 163.912C267.243 163.8 266.921 163.679 266.604 163.548C266.287 163.417 265.997 163.259 265.736 163.072C265.484 162.876 265.279 162.638 265.12 162.358C264.971 162.069 264.896 161.714 264.896 161.294C264.896 160.874 264.971 160.505 265.12 160.188C265.269 159.871 265.479 159.605 265.75 159.39C266.03 159.175 266.357 159.012 266.73 158.9C267.103 158.788 267.509 158.732 267.948 158.732C268.592 158.732 269.166 158.844 269.67 159.068C270.183 159.292 270.599 159.633 270.916 160.09L270.16 160.832C269.908 160.524 269.581 160.267 269.18 160.062C268.788 159.857 268.345 159.754 267.85 159.754C267.57 159.754 267.295 159.805 267.024 159.908C266.763 160.001 266.543 160.155 266.366 160.37C266.189 160.585 266.1 160.869 266.1 161.224C266.1 161.551 266.193 161.817 266.38 162.022C266.576 162.218 266.837 162.386 267.164 162.526C267.491 162.657 267.855 162.792 268.256 162.932C268.583 163.044 268.905 163.165 269.222 163.296C269.539 163.427 269.824 163.59 270.076 163.786C270.337 163.973 270.543 164.211 270.692 164.5C270.851 164.78 270.93 165.13 270.93 165.55C270.93 165.998 270.846 166.39 270.678 166.726C270.51 167.053 270.277 167.323 269.978 167.538C269.679 167.753 269.329 167.911 268.928 168.014C268.536 168.117 268.116 168.168 267.668 168.168ZM275.549 168.168C274.812 168.168 274.196 168.005 273.701 167.678C273.216 167.351 272.852 166.913 272.609 166.362C272.366 165.811 272.245 165.205 272.245 164.542C272.245 164.038 272.31 163.567 272.441 163.128C272.581 162.689 272.786 162.307 273.057 161.98C273.337 161.644 273.682 161.383 274.093 161.196C274.513 161.009 274.998 160.916 275.549 160.916C276.286 160.916 276.893 161.079 277.369 161.406C277.854 161.733 278.214 162.171 278.447 162.722C278.69 163.263 278.811 163.87 278.811 164.542C278.811 165.046 278.741 165.517 278.601 165.956C278.47 166.395 278.27 166.782 277.999 167.118C277.728 167.445 277.388 167.701 276.977 167.888C276.576 168.075 276.1 168.168 275.549 168.168ZM273.393 164.542C273.393 165.074 273.472 165.545 273.631 165.956C273.79 166.357 274.028 166.675 274.345 166.908C274.662 167.132 275.064 167.244 275.549 167.244C276.025 167.244 276.417 167.132 276.725 166.908C277.042 166.675 277.276 166.357 277.425 165.956C277.584 165.545 277.663 165.074 277.663 164.542C277.663 164.01 277.584 163.543 277.425 163.142C277.276 162.731 277.042 162.414 276.725 162.19C276.417 161.957 276.025 161.84 275.549 161.84C275.064 161.84 274.662 161.957 274.345 162.19C274.028 162.414 273.79 162.731 273.631 163.142C273.472 163.543 273.393 164.01 273.393 164.542ZM280.612 168V161.084H281.676V162.176H281.76C281.928 161.812 282.161 161.513 282.46 161.28C282.768 161.037 283.151 160.916 283.608 160.916C284.159 160.916 284.625 161.019 285.008 161.224C285.391 161.42 285.671 161.719 285.848 162.12C285.988 161.859 286.156 161.639 286.352 161.462C286.548 161.285 286.781 161.149 287.052 161.056C287.332 160.963 287.645 160.916 287.99 160.916C288.503 160.916 288.947 161.009 289.32 161.196C289.693 161.373 289.983 161.658 290.188 162.05C290.393 162.442 290.496 162.951 290.496 163.576V168H289.376V163.786C289.376 163.31 289.311 162.932 289.18 162.652C289.059 162.363 288.877 162.157 288.634 162.036C288.401 161.905 288.107 161.84 287.752 161.84C287.239 161.84 286.837 162.022 286.548 162.386C286.259 162.75 286.114 163.282 286.114 163.982V168H284.994V163.786C284.994 163.31 284.933 162.932 284.812 162.652C284.691 162.363 284.509 162.157 284.266 162.036C284.023 161.905 283.725 161.84 283.37 161.84C282.866 161.84 282.465 162.022 282.166 162.386C281.877 162.75 281.732 163.282 281.732 163.982V168H280.612ZM295.455 168.168C294.792 168.168 294.213 168.023 293.719 167.734C293.233 167.445 292.855 167.029 292.585 166.488C292.314 165.937 292.179 165.289 292.179 164.542C292.179 163.954 292.253 163.436 292.403 162.988C292.561 162.531 292.781 162.153 293.061 161.854C293.35 161.546 293.686 161.313 294.069 161.154C294.461 160.995 294.89 160.916 295.357 160.916C295.823 160.916 296.248 160.991 296.631 161.14C297.023 161.289 297.359 161.513 297.639 161.812C297.928 162.101 298.152 162.47 298.311 162.918C298.469 163.357 298.549 163.87 298.549 164.458C298.549 164.533 298.544 164.607 298.535 164.682C298.535 164.757 298.53 164.817 298.521 164.864H293.299C293.308 165.293 293.411 165.685 293.607 166.04C293.803 166.395 294.064 166.679 294.391 166.894C294.727 167.099 295.1 167.202 295.511 167.202C296.005 167.202 296.416 167.104 296.743 166.908C297.069 166.712 297.34 166.474 297.555 166.194L298.227 166.88C297.937 167.272 297.569 167.585 297.121 167.818C296.673 168.051 296.117 168.168 295.455 168.168ZM295.357 161.84C294.918 161.84 294.549 161.943 294.251 162.148C293.952 162.353 293.723 162.615 293.565 162.932C293.415 163.249 293.336 163.581 293.327 163.926H297.373C297.363 163.581 297.279 163.249 297.121 162.932C296.971 162.615 296.747 162.353 296.449 162.148C296.159 161.943 295.795 161.84 295.357 161.84ZM302.482 168.168C302.071 168.168 301.731 168.084 301.46 167.916C301.189 167.748 300.989 167.505 300.858 167.188C300.737 166.871 300.676 166.497 300.676 166.068V161.994H299.444V161.084H300.676V159.208H301.782V161.084H303.784V161.994H301.782V165.97C301.782 166.418 301.866 166.731 302.034 166.908C302.211 167.085 302.435 167.174 302.706 167.174C302.893 167.174 303.061 167.141 303.21 167.076C303.359 167.001 303.499 166.903 303.63 166.782L304.134 167.566C303.919 167.771 303.672 167.921 303.392 168.014C303.121 168.117 302.818 168.168 302.482 168.168ZM305.659 168V157.85H306.779V162.064H306.863C307.021 161.747 307.25 161.476 307.549 161.252C307.857 161.028 308.239 160.916 308.697 160.916C309.49 160.916 310.115 161.126 310.573 161.546C311.039 161.957 311.273 162.633 311.273 163.576V168H310.153V163.786C310.153 163.077 310.008 162.577 309.719 162.288C309.439 161.989 309.023 161.84 308.473 161.84C307.95 161.84 307.535 162.022 307.227 162.386C306.928 162.75 306.779 163.282 306.779 163.982V168H305.659ZM313.452 168V161.084H314.572V168H313.452ZM314.012 159.964C313.778 159.964 313.596 159.894 313.466 159.754C313.335 159.614 313.27 159.446 313.27 159.25C313.27 159.063 313.335 158.9 313.466 158.76C313.596 158.611 313.778 158.536 314.012 158.536C314.236 158.536 314.413 158.611 314.544 158.76C314.684 158.9 314.754 159.063 314.754 159.25C314.754 159.446 314.684 159.614 314.544 159.754C314.413 159.894 314.236 159.964 314.012 159.964ZM316.952 168V161.084H318.016V162.176H318.1C318.212 161.933 318.356 161.719 318.534 161.532C318.711 161.336 318.921 161.187 319.164 161.084C319.406 160.972 319.682 160.916 319.99 160.916C320.783 160.916 321.408 161.126 321.866 161.546C322.332 161.957 322.566 162.633 322.566 163.576V168H321.446V163.786C321.446 163.077 321.301 162.577 321.012 162.288C320.732 161.989 320.316 161.84 319.766 161.84C319.243 161.84 318.828 162.022 318.52 162.386C318.221 162.75 318.072 163.282 318.072 163.982V168H316.952ZM327.571 170.758C326.974 170.758 326.456 170.651 326.017 170.436C325.578 170.231 325.228 169.974 324.967 169.666L325.709 168.952C325.905 169.185 326.162 169.377 326.479 169.526C326.796 169.675 327.142 169.75 327.515 169.75C327.916 169.75 328.257 169.685 328.537 169.554C328.826 169.433 329.046 169.227 329.195 168.938C329.354 168.658 329.433 168.275 329.433 167.79V166.446H329.349C329.209 166.903 328.934 167.267 328.523 167.538C328.122 167.799 327.683 167.93 327.207 167.93C326.628 167.93 326.115 167.79 325.667 167.51C325.219 167.23 324.869 166.829 324.617 166.306C324.365 165.774 324.239 165.139 324.239 164.402C324.239 163.683 324.365 163.063 324.617 162.54C324.869 162.017 325.219 161.616 325.667 161.336C326.115 161.056 326.628 160.916 327.207 160.916C327.72 160.916 328.178 161.051 328.579 161.322C328.99 161.583 329.265 161.947 329.405 162.414H329.489V161.084H330.553V167.93C330.553 168.49 330.436 168.98 330.203 169.4C329.979 169.829 329.643 170.161 329.195 170.394C328.756 170.637 328.215 170.758 327.571 170.758ZM327.431 166.922C327.842 166.922 328.196 166.824 328.495 166.628C328.794 166.432 329.022 166.147 329.181 165.774C329.349 165.401 329.433 164.948 329.433 164.416C329.433 163.875 329.349 163.422 329.181 163.058C329.022 162.685 328.794 162.405 328.495 162.218C328.196 162.022 327.842 161.924 327.431 161.924C327.02 161.924 326.661 162.022 326.353 162.218C326.045 162.405 325.807 162.685 325.639 163.058C325.471 163.422 325.387 163.875 325.387 164.416C325.387 164.948 325.471 165.401 325.639 165.774C325.807 166.147 326.045 166.432 326.353 166.628C326.661 166.824 327.02 166.922 327.431 166.922ZM337.837 168L335.485 161.084H336.689L338.439 166.838H338.523L340.147 161.084H341.477L343.101 166.838H343.185L344.935 161.084H346.055L343.703 168H342.443L340.819 162.274H340.735L339.125 168H337.837ZM350.183 168.168C349.52 168.168 348.942 168.023 348.447 167.734C347.962 167.445 347.584 167.029 347.313 166.488C347.042 165.937 346.907 165.289 346.907 164.542C346.907 163.954 346.982 163.436 347.131 162.988C347.29 162.531 347.509 162.153 347.789 161.854C348.078 161.546 348.414 161.313 348.797 161.154C349.189 160.995 349.618 160.916 350.085 160.916C350.552 160.916 350.976 160.991 351.359 161.14C351.751 161.289 352.087 161.513 352.367 161.812C352.656 162.101 352.88 162.47 353.039 162.918C353.198 163.357 353.277 163.87 353.277 164.458C353.277 164.533 353.272 164.607 353.263 164.682C353.263 164.757 353.258 164.817 353.249 164.864H348.027C348.036 165.293 348.139 165.685 348.335 166.04C348.531 166.395 348.792 166.679 349.119 166.894C349.455 167.099 349.828 167.202 350.239 167.202C350.734 167.202 351.144 167.104 351.471 166.908C351.798 166.712 352.068 166.474 352.283 166.194L352.955 166.88C352.666 167.272 352.297 167.585 351.849 167.818C351.401 168.051 350.846 168.168 350.183 168.168ZM350.085 161.84C349.646 161.84 349.278 161.943 348.979 162.148C348.68 162.353 348.452 162.615 348.293 162.932C348.144 163.249 348.064 163.581 348.055 163.926H352.101C352.092 163.581 352.008 163.249 351.849 162.932C351.7 162.615 351.476 162.353 351.177 162.148C350.888 161.943 350.524 161.84 350.085 161.84ZM355.083 168V161.084H356.147V162.176H356.231C356.343 161.933 356.487 161.719 356.665 161.532C356.842 161.336 357.052 161.187 357.295 161.084C357.537 160.972 357.813 160.916 358.121 160.916C358.914 160.916 359.539 161.126 359.997 161.546C360.463 161.957 360.697 162.633 360.697 163.576V168H359.577V163.786C359.577 163.077 359.432 162.577 359.143 162.288C358.863 161.989 358.447 161.84 357.897 161.84C357.374 161.84 356.959 162.022 356.651 162.386C356.352 162.75 356.203 163.282 356.203 163.982V168H355.083ZM365.072 168.168C364.661 168.168 364.321 168.084 364.05 167.916C363.779 167.748 363.579 167.505 363.448 167.188C363.327 166.871 363.266 166.497 363.266 166.068V161.994H362.034V161.084H363.266V159.208H364.372V161.084H366.374V161.994H364.372V165.97C364.372 166.418 364.456 166.731 364.624 166.908C364.801 167.085 365.025 167.174 365.296 167.174C365.483 167.174 365.651 167.141 365.8 167.076C365.949 167.001 366.089 166.903 366.22 166.782L366.724 167.566C366.509 167.771 366.262 167.921 365.982 168.014C365.711 168.117 365.408 168.168 365.072 168.168ZM373.152 168L370.8 161.084H372.004L373.754 166.838H373.838L375.462 161.084H376.792L378.416 166.838H378.5L380.25 161.084H381.37L379.018 168H377.758L376.134 162.274H376.05L374.44 168H373.152ZM382.932 168V161.084H383.996V162.204H384.08C384.23 161.84 384.444 161.537 384.724 161.294C385.014 161.042 385.364 160.916 385.774 160.916C385.942 160.916 386.106 160.935 386.264 160.972C386.432 161 386.582 161.051 386.712 161.126L386.334 162.134C386.213 162.069 386.082 162.027 385.942 162.008C385.812 161.98 385.676 161.966 385.536 161.966C385.079 161.966 384.715 162.153 384.444 162.526C384.183 162.89 384.052 163.357 384.052 163.926V168H382.932ZM390.543 168.168C389.806 168.168 389.19 168.005 388.695 167.678C388.21 167.351 387.846 166.913 387.603 166.362C387.36 165.811 387.239 165.205 387.239 164.542C387.239 164.038 387.304 163.567 387.435 163.128C387.575 162.689 387.78 162.307 388.051 161.98C388.331 161.644 388.676 161.383 389.087 161.196C389.507 161.009 389.992 160.916 390.543 160.916C391.28 160.916 391.887 161.079 392.363 161.406C392.848 161.733 393.208 162.171 393.441 162.722C393.684 163.263 393.805 163.87 393.805 164.542C393.805 165.046 393.735 165.517 393.595 165.956C393.464 166.395 393.264 166.782 392.993 167.118C392.722 167.445 392.382 167.701 391.971 167.888C391.57 168.075 391.094 168.168 390.543 168.168ZM388.387 164.542C388.387 165.074 388.466 165.545 388.625 165.956C388.784 166.357 389.022 166.675 389.339 166.908C389.656 167.132 390.058 167.244 390.543 167.244C391.019 167.244 391.411 167.132 391.719 166.908C392.036 166.675 392.27 166.357 392.419 165.956C392.578 165.545 392.657 165.074 392.657 164.542C392.657 164.01 392.578 163.543 392.419 163.142C392.27 162.731 392.036 162.414 391.719 162.19C391.411 161.957 391.019 161.84 390.543 161.84C390.058 161.84 389.656 161.957 389.339 162.19C389.022 162.414 388.784 162.731 388.625 163.142C388.466 163.543 388.387 164.01 388.387 164.542ZM395.606 168V161.084H396.67V162.176H396.754C396.866 161.933 397.011 161.719 397.188 161.532C397.365 161.336 397.575 161.187 397.818 161.084C398.061 160.972 398.336 160.916 398.644 160.916C399.437 160.916 400.063 161.126 400.52 161.546C400.987 161.957 401.22 162.633 401.22 163.576V168H400.1V163.786C400.1 163.077 399.955 162.577 399.666 162.288C399.386 161.989 398.971 161.84 398.42 161.84C397.897 161.84 397.482 162.022 397.174 162.386C396.875 162.75 396.726 163.282 396.726 163.982V168H395.606ZM406.225 170.758C405.628 170.758 405.11 170.651 404.671 170.436C404.233 170.231 403.883 169.974 403.621 169.666L404.363 168.952C404.559 169.185 404.816 169.377 405.133 169.526C405.451 169.675 405.796 169.75 406.169 169.75C406.571 169.75 406.911 169.685 407.191 169.554C407.481 169.433 407.7 169.227 407.849 168.938C408.008 168.658 408.087 168.275 408.087 167.79V166.446H408.003C407.863 166.903 407.588 167.267 407.177 167.538C406.776 167.799 406.337 167.93 405.861 167.93C405.283 167.93 404.769 167.79 404.321 167.51C403.873 167.23 403.523 166.829 403.271 166.306C403.019 165.774 402.893 165.139 402.893 164.402C402.893 163.683 403.019 163.063 403.271 162.54C403.523 162.017 403.873 161.616 404.321 161.336C404.769 161.056 405.283 160.916 405.861 160.916C406.375 160.916 406.832 161.051 407.233 161.322C407.644 161.583 407.919 161.947 408.059 162.414H408.143V161.084H409.207V167.93C409.207 168.49 409.091 168.98 408.857 169.4C408.633 169.829 408.297 170.161 407.849 170.394C407.411 170.637 406.869 170.758 406.225 170.758ZM406.085 166.922C406.496 166.922 406.851 166.824 407.149 166.628C407.448 166.432 407.677 166.147 407.835 165.774C408.003 165.401 408.087 164.948 408.087 164.416C408.087 163.875 408.003 163.422 407.835 163.058C407.677 162.685 407.448 162.405 407.149 162.218C406.851 162.022 406.496 161.924 406.085 161.924C405.675 161.924 405.315 162.022 405.007 162.218C404.699 162.405 404.461 162.685 404.293 163.058C404.125 163.422 404.041 163.875 404.041 164.416C404.041 164.948 404.125 165.401 404.293 165.774C404.461 166.147 404.699 166.432 405.007 166.628C405.315 166.824 405.675 166.922 406.085 166.922Z" fill="#CC0300"/>
<g clip-path="url(#clip7_24172_11820)">
<path d="M481 149C481 135.745 491.745 125 505 125H556C569.255 125 580 135.745 580 149C580 162.255 569.255 173 556 173H505C491.745 173 481 162.255 481 149Z" fill="#F6F3EF"/>
<path d="M481 149C481 135.745 491.745 125 505 125H556C569.255 125 580 135.745 580 149C580 162.255 569.255 173 556 173H505C491.745 173 481 162.255 481 149Z" fill="white" fill-opacity="0.01"/>
<path d="M506.151 156V143H512.191C513.018 143 513.751 143.173 514.391 143.52C515.031 143.853 515.538 144.327 515.911 144.94C516.285 145.553 516.471 146.273 516.471 147.1C516.471 147.94 516.271 148.68 515.871 149.32C515.485 149.947 514.885 150.393 514.071 150.66L514.051 150.74L516.991 156H513.271L510.931 151.44H509.531V156H506.151ZM509.531 148.94H511.731C512.145 148.94 512.471 148.787 512.711 148.48C512.965 148.16 513.091 147.733 513.091 147.2C513.091 146.653 512.965 146.233 512.711 145.94C512.471 145.647 512.138 145.5 511.711 145.5H509.531V148.94ZM523.015 156.24C521.815 156.24 520.835 155.993 520.075 155.5C519.315 154.993 518.755 154.347 518.395 153.56C518.048 152.773 517.875 151.94 517.875 151.06C517.875 150.393 517.961 149.753 518.135 149.14C518.321 148.527 518.608 147.973 518.995 147.48C519.381 146.987 519.888 146.6 520.515 146.32C521.155 146.027 521.928 145.88 522.835 145.88C523.741 145.88 524.508 146.02 525.135 146.3C525.761 146.58 526.261 146.967 526.635 147.46C527.021 147.94 527.295 148.487 527.455 149.1C527.628 149.7 527.715 150.327 527.715 150.98C527.715 151.127 527.701 151.32 527.675 151.56C527.648 151.787 527.615 151.96 527.575 152.08H521.095C521.175 152.467 521.328 152.773 521.555 153C521.795 153.227 522.061 153.393 522.355 153.5C522.661 153.593 522.941 153.64 523.195 153.64C523.661 153.64 524.061 153.567 524.395 153.42C524.741 153.273 525.008 153.08 525.195 152.84L526.935 154.66C526.615 155.113 526.108 155.493 525.415 155.8C524.721 156.093 523.921 156.24 523.015 156.24ZM522.835 148.24C522.555 148.24 522.288 148.3 522.035 148.42C521.795 148.527 521.581 148.707 521.395 148.96C521.221 149.213 521.101 149.553 521.035 149.98H524.595C524.541 149.553 524.421 149.213 524.235 148.96C524.061 148.707 523.855 148.527 523.615 148.42C523.375 148.3 523.115 148.24 522.835 148.24ZM533.595 156.22C532.769 156.22 532.095 156.08 531.575 155.8C531.055 155.52 530.669 155.093 530.415 154.52C530.175 153.933 530.055 153.187 530.055 152.28V148.66H528.635V146.12H530.055V143.44H533.195V146.12H536.115V148.66H533.195V152.34C533.195 152.78 533.269 153.1 533.415 153.3C533.575 153.5 533.835 153.6 534.195 153.6C534.435 153.6 534.669 153.553 534.895 153.46C535.122 153.353 535.302 153.227 535.435 153.08L536.455 155.24C536.122 155.573 535.722 155.82 535.255 155.98C534.789 156.14 534.235 156.22 533.595 156.22ZM537.81 156V146.12H540.79V147.82H540.91C541.11 147.207 541.43 146.733 541.87 146.4C542.31 146.053 542.857 145.88 543.51 145.88C543.763 145.88 544.003 145.9 544.23 145.94C544.47 145.967 544.697 146.013 544.91 146.08L544.11 149C543.977 148.907 543.81 148.84 543.61 148.8C543.41 148.747 543.217 148.72 543.03 148.72C542.443 148.72 541.957 148.893 541.57 149.24C541.183 149.573 540.99 150.107 540.99 150.84V156H537.81ZM547.588 159.88C547.388 159.88 547.181 159.867 546.968 159.84C546.755 159.827 546.555 159.8 546.368 159.76V157.16C546.501 157.187 546.661 157.207 546.848 157.22C547.048 157.247 547.221 157.26 547.368 157.26C547.701 157.26 547.961 157.227 548.148 157.16C548.348 157.093 548.508 156.973 548.628 156.8C548.748 156.64 548.855 156.427 548.948 156.16L545.328 146.12H548.828L550.608 152.82H550.728L552.528 146.12H555.808L552.228 156C551.935 156.827 551.601 157.527 551.228 158.1C550.868 158.687 550.401 159.127 549.828 159.42C549.255 159.727 548.508 159.88 547.588 159.88Z" fill="black" fill-opacity="0.76"/>
</g>
</g>
<path d="M232 109.5H584C590.351 109.5 595.5 114.649 595.5 121V177C595.5 183.351 590.351 188.5 584 188.5H232C225.649 188.5 220.5 183.351 220.5 177V121C220.5 114.649 225.649 109.5 232 109.5Z" stroke="#CC0300"/>
<defs>
<clipPath id="clip0_24172_11820">
<path d="M0 12C0 5.37258 5.37258 0 12 0H372C378.627 0 384 5.37258 384 12V68C384 74.6274 378.627 80 372 80H12C5.37258 80 0 74.6274 0 68V12Z" fill="white"/>
</clipPath>
<clipPath id="clip1_24172_11820">
<path d="M260 40C260 26.7452 270.745 16 284 16H344C357.255 16 368 26.7452 368 40C368 53.2548 357.255 64 344 64H284C270.745 64 260 53.2548 260 40Z" fill="white"/>
</clipPath>
<clipPath id="clip2_24172_11820">
<path d="M408 12C408 5.37258 413.373 0 420 0H780C786.627 0 792 5.37258 792 12V68C792 74.6274 786.627 80 780 80H420C413.373 80 408 74.6274 408 68V12Z" fill="white"/>
</clipPath>
<clipPath id="clip3_24172_11820">
<rect width="17.5" height="17.5" fill="white" transform="translate(425.25 45.25)"/>
</clipPath>
<clipPath id="clip4_24172_11820">
<path d="M655 40C655 26.7452 665.745 16 679 16H752C765.255 16 776 26.7452 776 40C776 53.2548 765.255 64 752 64H679C665.745 64 655 53.2548 655 40Z" fill="white"/>
</clipPath>
<clipPath id="clip5_24172_11820">
<path d="M220 121C220 114.373 225.373 109 232 109H584C590.627 109 596 114.373 596 121V177C596 183.627 590.627 189 584 189H232C225.373 189 220 183.627 220 177V121Z" fill="white"/>
</clipPath>
<clipPath id="clip6_24172_11820">
<rect width="17.5" height="17.5" fill="white" transform="translate(237.25 154.25)"/>
</clipPath>
<clipPath id="clip7_24172_11820">
<path d="M481 149C481 135.745 491.745 125 505 125H556C569.255 125 580 135.745 580 149C580 162.255 569.255 173 556 173H505C491.745 173 481 162.255 481 149Z" fill="white"/>
</clipPath>
</defs>
</svg>
