<svg width="96" height="53" viewBox="0 0 96 53" fill="none" xmlns="http://www.w3.org/2000/svg">
<path d="M19.68 -2.86102e-06H36L55.68 52H41.36L38.16 43.44H16.96L13.76 52H-4.87715e-05L19.68 -2.86102e-06ZM20.72 33.04H34.4L27.76 13.04H27.28L20.72 33.04ZM71.3456 52.96C69.5856 52.96 67.8789 52.6933 66.2256 52.16C64.6256 51.6267 63.2122 50.8533 61.9856 49.84C60.8122 48.7733 59.8522 47.4933 59.1056 46C58.4122 44.5067 58.0656 42.8 58.0656 40.88C58.0656 37.2533 59.3456 34.4 61.9056 32.32C64.5189 30.24 68.5989 29.04 74.1456 28.72L82.5456 28.24V27.6C82.5456 26.48 82.3056 25.5733 81.8256 24.88C81.3989 24.1867 80.8122 23.6533 80.0656 23.28C79.3722 22.8533 78.5456 22.56 77.5856 22.4C76.6789 22.24 75.7456 22.16 74.7856 22.16C73.2922 22.16 71.7722 22.4267 70.2256 22.96C68.6789 23.4933 67.5322 24.24 66.7856 25.2L59.8256 18C61.2656 16.1867 63.3722 14.6667 66.1456 13.44C68.9189 12.16 72.5456 11.52 77.0256 11.52C82.7322 11.52 87.1856 12.8267 90.3856 15.44C93.6389 18.0533 95.2656 21.8133 95.2656 26.72V52H83.3456V45.92H82.8656C81.8522 48 80.3856 49.7067 78.4656 51.04C76.5989 52.32 74.2256 52.96 71.3456 52.96ZM75.6656 44.32C77.6922 44.32 79.3456 43.7867 80.6256 42.72C81.9056 41.6 82.5456 39.92 82.5456 37.68V35.6L75.9056 36.08C74.1989 36.1867 72.9189 36.6133 72.0656 37.36C71.2656 38.1067 70.8656 39.0933 70.8656 40.32C70.8656 41.7067 71.3189 42.72 72.2256 43.36C73.1856 44 74.3322 44.32 75.6656 44.32Z" fill="black" fill-opacity="0.76"/>
</svg>
