<svg width="968" height="391" viewBox="0 0 968 391" fill="none" xmlns="http://www.w3.org/2000/svg">
<rect width="968" height="391" rx="16" fill="black" fill-opacity="0.55"/>
<g clip-path="url(#clip0_16720_14000)">
<rect x="322" y="35" width="324" height="322" rx="11.53" fill="white"/>
<rect width="324" height="52.8251" transform="translate(322 35)" fill="white"/>
<path d="M521.023 57.4175H523.877V64.2318H521.023V57.4175ZM531.784 67.6216C530.792 67.6216 529.928 67.4487 529.19 67.1028C528.463 66.7453 527.858 66.2899 527.374 65.7364C526.901 65.1715 526.544 64.5431 526.301 63.8513C526.071 63.1595 525.956 62.4734 525.956 61.7932V57.4175H528.827V61.7932C528.827 62.312 528.896 62.779 529.034 63.1941C529.184 63.6092 529.386 63.9666 529.639 64.2664C529.905 64.5661 530.216 64.7967 530.573 64.9582C530.942 65.1196 531.346 65.2003 531.784 65.2003C532.222 65.2003 532.62 65.1196 532.977 64.9582C533.346 64.7967 533.658 64.5661 533.911 64.2664C534.176 63.9666 534.378 63.6092 534.517 63.1941C534.666 62.779 534.741 62.312 534.741 61.7932V57.4175H537.63V61.7932C537.63 62.4734 537.509 63.1595 537.266 63.8513C537.036 64.5431 536.678 65.1715 536.194 65.7364C535.71 66.2899 535.099 66.7453 534.361 67.1028C533.635 67.4487 532.776 67.6216 531.784 67.6216ZM530.348 57.4175H533.219V63.5573H530.348V57.4175ZM539.67 57.4175H542.523V64.2318H539.67V57.4175ZM544.429 65.0619C544.429 64.128 544.596 63.3036 544.93 62.5887C545.265 61.8739 545.72 61.3147 546.297 60.9111L544.204 57.4175H547.646L550.119 61.5683C550.303 61.3723 550.442 61.1014 550.534 60.7555C550.638 60.398 550.69 60.0003 550.69 59.5621V57.4175H553.578V59.4065C553.578 60.3865 553.399 61.2455 553.042 61.9834C552.684 62.7213 552.2 63.2805 551.589 63.661L553.803 67.4141H550.378L547.801 63.0211C547.64 63.2287 547.513 63.4996 547.421 63.834C547.34 64.1568 547.3 64.5143 547.3 64.9063V67.4141H544.429V65.0619ZM559.132 65.1484H561.104L558.942 57.4175H561.934L564.078 65.0446C564.413 64.8717 564.666 64.5143 564.839 63.9723C565.012 63.4304 565.099 62.6752 565.099 61.7067V57.4175H567.97V61.7586C567.97 65.5289 566.373 67.4141 563.179 67.4141H559.132V65.1484ZM569.294 57.4175H577.786V59.6832H576.541V67.4141H573.652V59.6832H569.294V57.4175ZM579.09 57.4175H581.944V64.2318H579.09V57.4175ZM584.126 60.8419L583.521 57.4175H586.357L586.513 58.4033H586.547C586.651 58.2765 586.778 58.1439 586.928 58.0056C587.078 57.8672 587.262 57.7404 587.481 57.6251C587.7 57.4982 587.96 57.4002 588.26 57.3311C588.571 57.2503 588.934 57.21 589.349 57.21C590.076 57.21 590.687 57.3195 591.182 57.5386C591.678 57.7577 592.076 58.0632 592.376 58.4552C592.687 58.8473 592.906 59.3142 593.033 59.8561C593.171 60.398 593.241 60.9976 593.241 61.6548V67.4141H588.571V65.1484H590.37V61.9834C590.37 61.6606 590.341 61.355 590.283 61.0668C590.237 60.7785 590.15 60.5306 590.024 60.3231C589.897 60.104 589.73 59.9368 589.522 59.8215C589.315 59.6947 589.055 59.6313 588.744 59.6313C588.156 59.6313 587.718 59.8504 587.429 60.2885C587.141 60.7266 586.997 61.2916 586.997 61.9834V67.4141H584.126V60.8419Z" fill="black" fill-opacity="0.76"/>
<rect x="602.762" y="43.6484" width="34.5901" height="34.5901" rx="17.295" fill="white" fill-opacity="0.01"/>
<path d="M616.862 66.5436L622.65 60.9444L616.815 55.3451L617.76 54.3047L623.747 60.0837C623.98 60.3191 624.111 60.6369 624.111 60.968C624.111 61.2991 623.98 61.6169 623.747 61.8524L617.836 67.5651L616.862 66.5436Z" fill="black" fill-opacity="0.76"/>
<g clip-path="url(#clip1_16720_14000)">
<g clip-path="url(#clip2_16720_14000)">
<g clip-path="url(#clip3_16720_14000)">
<path d="M615.594 95.8757H618.611C618.927 95.8757 619.216 95.9262 619.479 96.0271C619.741 96.1279 619.966 96.2725 620.154 96.4609C620.35 96.6425 620.497 96.8644 620.598 97.1267C620.706 97.3823 620.76 97.6682 620.76 97.9843V101.707H615.594V95.8757ZM616.926 96.9451V100.638H619.428V97.9843C619.428 97.6614 619.341 97.4092 619.166 97.2276C618.991 97.0393 618.772 96.9451 618.51 96.9451H616.926ZM622.198 103.634C622.023 103.634 621.889 103.58 621.795 103.473C621.701 103.372 621.653 103.251 621.653 103.109C621.653 102.975 621.701 102.854 621.795 102.746C621.889 102.639 622.023 102.585 622.198 102.585C622.36 102.585 622.487 102.639 622.582 102.746C622.676 102.854 622.723 102.975 622.723 103.109C622.723 103.251 622.676 103.372 622.582 103.473C622.487 103.58 622.36 103.634 622.198 103.634ZM620.574 103.634C620.406 103.634 620.275 103.58 620.18 103.473C620.086 103.372 620.039 103.251 620.039 103.109C620.039 102.975 620.086 102.854 620.18 102.746C620.275 102.639 620.406 102.585 620.574 102.585C620.742 102.585 620.873 102.639 620.967 102.746C621.062 102.854 621.109 102.975 621.109 103.109C621.109 103.251 621.062 103.372 620.967 103.473C620.873 103.58 620.742 103.634 620.574 103.634ZM625.185 101.828C624.64 101.828 624.166 101.731 623.762 101.536C623.365 101.334 623.032 101.075 622.763 100.759C622.501 100.443 622.302 100.089 622.168 99.6994C622.04 99.3025 621.976 98.9057 621.976 98.5089V95.8757H623.308V98.5089C623.308 98.8452 623.355 99.1478 623.449 99.4169C623.543 99.6859 623.675 99.918 623.843 100.113C624.011 100.301 624.209 100.449 624.438 100.557C624.667 100.658 624.915 100.708 625.185 100.708C625.454 100.708 625.702 100.658 625.931 100.557C626.16 100.449 626.358 100.301 626.526 100.113C626.694 99.918 626.826 99.6859 626.92 99.4169C627.014 99.1478 627.061 98.8452 627.061 98.5089V95.8757H628.403V98.5089C628.403 98.9057 628.336 99.3025 628.201 99.6994C628.073 100.089 627.875 100.443 627.606 100.759C627.337 101.075 627 101.334 626.597 101.536C626.2 101.731 625.729 101.828 625.185 101.828ZM624.519 95.8757H625.85V99.6489H624.519V95.8757ZM627.737 95.0989C627.562 95.0989 627.428 95.0484 627.333 94.9476C627.246 94.8399 627.202 94.7155 627.202 94.5743C627.202 94.433 627.246 94.312 627.333 94.2111C627.428 94.1035 627.562 94.0497 627.737 94.0497C627.905 94.0497 628.036 94.1035 628.13 94.2111C628.225 94.312 628.272 94.433 628.272 94.5743C628.272 94.7155 628.225 94.8399 628.13 94.9476C628.036 95.0484 627.905 95.0989 627.737 95.0989Z" fill="black" fill-opacity="0.76"/>
</g>
</g>
<g filter="url(#filter0_d_16720_14000)">
<g clip-path="url(#clip4_16720_14000)">
<rect x="339.295" y="108.59" width="289.692" height="35.295" rx="8.64752" fill="white"/>
<path d="M571.936 130.377C571.559 130.377 571.221 130.307 570.921 130.169C570.621 130.023 570.395 129.85 570.241 129.65L570.852 129.039C570.983 129.201 571.144 129.327 571.336 129.42C571.529 129.504 571.728 129.546 571.936 129.546C572.351 129.546 572.674 129.416 572.904 129.154C573.135 128.893 573.25 128.52 573.25 128.036V122.744H574.23V128.071C574.23 128.824 574.019 129.397 573.596 129.789C573.181 130.181 572.628 130.377 571.936 130.377ZM578.427 130.377C577.974 130.377 577.574 130.3 577.228 130.146C576.89 129.985 576.606 129.769 576.375 129.5C576.152 129.231 575.983 128.916 575.868 128.555C575.76 128.194 575.706 127.805 575.706 127.39C575.706 126.975 575.76 126.587 575.868 126.226C575.983 125.865 576.152 125.549 576.375 125.28C576.606 125.011 576.89 124.8 577.228 124.646C577.574 124.485 577.974 124.404 578.427 124.404C578.881 124.404 579.273 124.485 579.603 124.646C579.942 124.8 580.222 125.011 580.445 125.28C580.668 125.549 580.833 125.865 580.941 126.226C581.056 126.587 581.114 126.975 581.114 127.39C581.114 127.805 581.056 128.194 580.941 128.555C580.833 128.916 580.668 129.231 580.445 129.5C580.222 129.769 579.942 129.985 579.603 130.146C579.273 130.3 578.881 130.377 578.427 130.377ZM576.652 127.39C576.652 127.721 576.686 128.025 576.756 128.301C576.832 128.57 576.944 128.805 577.09 129.005C577.236 129.197 577.42 129.347 577.643 129.454C577.866 129.562 578.128 129.616 578.427 129.616C578.719 129.616 578.973 129.562 579.188 129.454C579.411 129.347 579.592 129.197 579.73 129.005C579.876 128.805 579.984 128.57 580.053 128.301C580.13 128.025 580.168 127.721 580.168 127.39C580.168 127.06 580.13 126.76 580.053 126.491C579.984 126.214 579.876 125.98 579.73 125.788C579.592 125.588 579.411 125.434 579.188 125.326C578.973 125.219 578.719 125.165 578.427 125.165C578.128 125.165 577.866 125.219 577.643 125.326C577.42 125.434 577.236 125.588 577.09 125.788C576.944 125.98 576.832 126.214 576.756 126.491C576.686 126.76 576.652 127.06 576.652 127.39ZM582.597 121.879H583.52V125.35H583.589C583.719 125.088 583.908 124.865 584.154 124.681C584.4 124.496 584.715 124.404 585.099 124.404C585.753 124.404 586.268 124.577 586.644 124.923C587.029 125.269 587.221 125.826 587.221 126.595V130.238H586.298V126.768C586.298 126.184 586.179 125.772 585.941 125.534C585.71 125.288 585.368 125.165 584.915 125.165C584.477 125.165 584.134 125.315 583.888 125.615C583.643 125.915 583.52 126.353 583.52 126.929V130.238H582.597V121.879ZM589.015 124.542H589.891V125.442H589.961C590.099 125.142 590.295 124.896 590.549 124.704C590.802 124.504 591.125 124.404 591.517 124.404C592.171 124.404 592.686 124.577 593.062 124.923C593.447 125.269 593.639 125.826 593.639 126.595V130.238H592.716V126.768C592.716 126.184 592.597 125.772 592.359 125.534C592.128 125.288 591.786 125.165 591.333 125.165C590.895 125.165 590.553 125.315 590.307 125.615C590.061 125.915 589.938 126.353 589.938 126.929V130.238H589.015V124.542ZM598.34 122.744H600.785C601.876 122.744 602.714 123.074 603.298 123.735C603.882 124.396 604.174 125.319 604.174 126.503C604.174 127.079 604.098 127.598 603.944 128.059C603.79 128.52 603.563 128.912 603.264 129.235C602.971 129.558 602.61 129.808 602.18 129.985C601.757 130.154 601.277 130.238 600.738 130.238H598.34V122.744ZM600.854 129.408C601.207 129.408 601.526 129.343 601.811 129.212C602.095 129.074 602.337 128.882 602.537 128.636C602.745 128.382 602.902 128.078 603.01 127.725C603.117 127.363 603.171 126.956 603.171 126.503C603.171 125.572 602.968 124.854 602.56 124.346C602.16 123.831 601.599 123.574 600.877 123.574H599.32V129.408H600.854ZM608.007 130.377C607.553 130.377 607.154 130.3 606.808 130.146C606.47 129.985 606.185 129.769 605.955 129.5C605.732 129.231 605.563 128.916 605.447 128.555C605.34 128.194 605.286 127.805 605.286 127.39C605.286 126.975 605.34 126.587 605.447 126.226C605.563 125.865 605.732 125.549 605.955 125.28C606.185 125.011 606.47 124.8 606.808 124.646C607.154 124.485 607.553 124.404 608.007 124.404C608.46 124.404 608.852 124.485 609.183 124.646C609.521 124.8 609.802 125.011 610.025 125.28C610.248 125.549 610.413 125.865 610.52 126.226C610.636 126.587 610.693 126.975 610.693 127.39C610.693 127.805 610.636 128.194 610.52 128.555C610.413 128.916 610.248 129.231 610.025 129.5C609.802 129.769 609.521 129.985 609.183 130.146C608.852 130.3 608.46 130.377 608.007 130.377ZM606.231 127.39C606.231 127.721 606.266 128.025 606.335 128.301C606.412 128.57 606.523 128.805 606.669 129.005C606.815 129.197 607 129.347 607.223 129.454C607.446 129.562 607.707 129.616 608.007 129.616C608.299 129.616 608.553 129.562 608.768 129.454C608.991 129.347 609.171 129.197 609.31 129.005C609.456 128.805 609.563 128.57 609.633 128.301C609.709 128.025 609.748 127.721 609.748 127.39C609.748 127.06 609.709 126.76 609.633 126.491C609.563 126.214 609.456 125.98 609.31 125.788C609.171 125.588 608.991 125.434 608.768 125.326C608.553 125.219 608.299 125.165 608.007 125.165C607.707 125.165 607.446 125.219 607.223 125.326C607 125.434 606.815 125.588 606.669 125.788C606.523 125.98 606.412 126.214 606.335 126.491C606.266 126.76 606.231 127.06 606.231 127.39ZM614.402 130.377C613.994 130.377 613.622 130.307 613.283 130.169C612.953 130.031 612.669 129.835 612.43 129.581C612.2 129.32 612.019 129.005 611.888 128.636C611.765 128.267 611.704 127.852 611.704 127.39C611.704 126.906 611.769 126.479 611.9 126.111C612.031 125.734 612.211 125.423 612.442 125.177C612.672 124.923 612.945 124.731 613.26 124.6C613.583 124.469 613.937 124.404 614.321 124.404C614.706 124.404 615.059 124.466 615.382 124.589C615.705 124.712 615.981 124.896 616.212 125.142C616.443 125.38 616.623 125.684 616.754 126.053C616.885 126.414 616.95 126.837 616.95 127.321C616.95 127.383 616.946 127.444 616.938 127.506C616.938 127.567 616.935 127.617 616.927 127.656H612.626C612.626 127.925 612.672 128.178 612.765 128.417C612.865 128.647 612.995 128.851 613.157 129.028C613.326 129.197 613.518 129.331 613.733 129.431C613.956 129.531 614.194 129.581 614.448 129.581C614.863 129.581 615.201 129.5 615.463 129.339C615.732 129.178 615.955 128.982 616.131 128.751L616.685 129.316C616.439 129.639 616.131 129.896 615.762 130.088C615.401 130.281 614.948 130.377 614.402 130.377ZM614.321 125.165C614.052 125.165 613.814 125.215 613.606 125.315C613.399 125.415 613.226 125.546 613.087 125.707C612.949 125.868 612.841 126.053 612.765 126.26C612.695 126.468 612.657 126.676 612.649 126.883H615.981C615.974 126.676 615.932 126.468 615.855 126.26C615.785 126.053 615.682 125.868 615.543 125.707C615.405 125.546 615.232 125.415 615.025 125.315C614.825 125.215 614.59 125.165 614.321 125.165Z" fill="black" fill-opacity="0.76"/>
</g>
<rect x="339.655" y="108.95" width="288.971" height="34.5744" rx="8.28721" stroke="#8C867E" stroke-width="0.720627"/>
</g>
<g clip-path="url(#clip5_16720_14000)">
<g clip-path="url(#clip6_16720_14000)">
<path d="M606.486 161.652H603.258V159.301H604.589V160.583H607.909V161.511L605.941 166.414H604.589L606.486 161.652ZM608.934 160.583H610.266V164.507H608.934V160.583ZM611.673 160.583H613.005V164.507H611.673V160.583ZM614.452 162.5L614.18 160.583H615.451L615.542 161.259H615.562C615.697 161.05 615.895 160.865 616.157 160.704C616.426 160.542 616.79 160.462 617.247 160.462C617.637 160.462 617.97 160.522 618.246 160.643C618.528 160.764 618.76 160.936 618.942 161.158C619.124 161.38 619.255 161.645 619.335 161.955C619.423 162.257 619.467 162.59 619.467 162.954V166.414H616.904V165.345H618.145V163.145C618.145 162.93 618.121 162.728 618.074 162.54C618.034 162.345 617.967 162.177 617.873 162.036C617.785 161.894 617.667 161.783 617.519 161.703C617.371 161.622 617.193 161.582 616.985 161.582C616.581 161.582 616.278 161.73 616.077 162.025C615.882 162.321 615.784 162.695 615.784 163.145V166.414H614.452V162.5ZM620.796 160.583H622.128V164.507H620.796V160.583ZM623.394 165.113C623.394 164.581 623.498 164.1 623.707 163.67C623.922 163.239 624.218 162.913 624.595 162.691L623.293 160.583H624.857L626.411 163.115C626.619 163.007 626.784 162.829 626.905 162.58C627.033 162.325 627.097 162.015 627.097 161.652V160.583H628.428V161.592C628.428 162.163 628.311 162.671 628.075 163.115C627.847 163.559 627.524 163.885 627.107 164.094L628.529 166.414H626.976L625.301 163.66C625.126 163.788 624.985 163.973 624.877 164.215C624.776 164.457 624.726 164.739 624.726 165.062V166.414H623.394V165.113Z" fill="black" fill-opacity="0.76"/>
</g>
</g>
<g filter="url(#filter1_d_16720_14000)">
<g clip-path="url(#clip7_16720_14000)">
<rect x="339.295" y="173.297" width="289.692" height="35.295" rx="8.64752" fill="#F6F3EF"/>
<path d="M512.842 195.383C512.842 195.922 512.715 196.337 512.461 196.629C512.215 196.928 511.873 197.078 511.435 197.078C511.374 197.078 511.32 197.075 511.274 197.067C511.235 197.067 511.201 197.063 511.17 197.055V196.225C511.216 196.241 511.274 196.248 511.343 196.248C511.52 196.248 511.658 196.167 511.758 196.006C511.866 195.852 511.919 195.649 511.919 195.395V189.249H512.842V195.383ZM512.992 187.739C512.992 187.9 512.934 188.039 512.819 188.154C512.711 188.269 512.565 188.327 512.381 188.327C512.188 188.327 512.039 188.269 511.931 188.154C511.823 188.039 511.77 187.9 511.77 187.739C511.77 187.585 511.823 187.451 511.931 187.335C512.039 187.213 512.188 187.151 512.381 187.151C512.565 187.151 512.711 187.213 512.819 187.335C512.934 187.451 512.992 187.585 512.992 187.739ZM517.05 195.084C516.597 195.084 516.197 195.007 515.851 194.853C515.513 194.692 515.229 194.476 514.998 194.207C514.775 193.938 514.606 193.623 514.491 193.262C514.383 192.901 514.329 192.512 514.329 192.097C514.329 191.682 514.383 191.294 514.491 190.933C514.606 190.572 514.775 190.256 514.998 189.987C515.229 189.718 515.513 189.507 515.851 189.353C516.197 189.192 516.597 189.111 517.05 189.111C517.504 189.111 517.896 189.192 518.226 189.353C518.565 189.507 518.845 189.718 519.068 189.987C519.291 190.256 519.456 190.572 519.564 190.933C519.679 191.294 519.737 191.682 519.737 192.097C519.737 192.512 519.679 192.901 519.564 193.262C519.456 193.623 519.291 193.938 519.068 194.207C518.845 194.476 518.565 194.692 518.226 194.853C517.896 195.007 517.504 195.084 517.05 195.084ZM515.275 192.097C515.275 192.428 515.309 192.732 515.378 193.008C515.455 193.277 515.567 193.512 515.713 193.712C515.859 193.904 516.043 194.054 516.266 194.161C516.489 194.269 516.751 194.323 517.05 194.323C517.342 194.323 517.596 194.269 517.811 194.161C518.034 194.054 518.215 193.904 518.353 193.712C518.499 193.512 518.607 193.277 518.676 193.008C518.753 192.732 518.791 192.428 518.791 192.097C518.791 191.767 518.753 191.467 518.676 191.198C518.607 190.921 518.499 190.687 518.353 190.495C518.215 190.295 518.034 190.141 517.811 190.034C517.596 189.926 517.342 189.872 517.05 189.872C516.751 189.872 516.489 189.926 516.266 190.034C516.043 190.141 515.859 190.295 515.713 190.495C515.567 190.687 515.455 190.921 515.378 191.198C515.309 191.467 515.275 191.767 515.275 192.097ZM521.22 186.586H522.142V190.057H522.212C522.342 189.795 522.531 189.572 522.777 189.388C523.023 189.203 523.338 189.111 523.722 189.111C524.375 189.111 524.89 189.284 525.267 189.63C525.651 189.976 525.844 190.533 525.844 191.302V194.945H524.921V191.475C524.921 190.891 524.802 190.479 524.564 190.241C524.333 189.995 523.991 189.872 523.538 189.872C523.099 189.872 522.757 190.022 522.511 190.322C522.265 190.622 522.142 191.06 522.142 191.636V194.945H521.22V186.586ZM527.638 189.249H528.514V190.149H528.584C528.722 189.849 528.918 189.603 529.172 189.411C529.425 189.211 529.748 189.111 530.14 189.111C530.793 189.111 531.308 189.284 531.685 189.63C532.069 189.976 532.262 190.533 532.262 191.302V194.945H531.339V191.475C531.339 190.891 531.22 190.479 530.982 190.241C530.751 189.995 530.409 189.872 529.956 189.872C529.517 189.872 529.175 190.022 528.929 190.322C528.683 190.622 528.561 191.06 528.561 191.636V194.945H527.638V189.249ZM534.574 195.084C534.358 195.084 534.189 195.014 534.066 194.876C533.943 194.738 533.882 194.58 533.882 194.403C533.882 194.219 533.943 194.061 534.066 193.931C534.189 193.792 534.358 193.723 534.574 193.723C534.797 193.723 534.966 193.792 535.081 193.931C535.204 194.061 535.265 194.219 535.265 194.403C535.265 194.58 535.204 194.738 535.081 194.876C534.966 195.014 534.797 195.084 534.574 195.084ZM538.766 195.084C538.382 195.084 538.036 195.011 537.728 194.865C537.421 194.711 537.155 194.503 536.933 194.242C536.71 193.973 536.537 193.654 536.414 193.285C536.298 192.916 536.241 192.516 536.241 192.086C536.241 191.655 536.298 191.26 536.414 190.898C536.537 190.529 536.71 190.214 536.933 189.953C537.155 189.684 537.421 189.476 537.728 189.33C538.036 189.184 538.382 189.111 538.766 189.111C539.235 189.111 539.638 189.223 539.976 189.445C540.315 189.668 540.557 189.953 540.703 190.299H540.772V186.586H541.694V194.945H540.818V193.781H540.749C540.68 193.981 540.58 194.161 540.449 194.323C540.326 194.476 540.176 194.611 540 194.726C539.83 194.842 539.638 194.93 539.423 194.991C539.216 195.053 538.996 195.084 538.766 195.084ZM538.996 194.254C539.242 194.254 539.473 194.211 539.688 194.127C539.903 194.034 540.092 193.9 540.253 193.723C540.415 193.539 540.541 193.312 540.634 193.043C540.726 192.774 540.772 192.459 540.772 192.097C540.772 191.736 540.726 191.421 540.634 191.152C540.541 190.883 540.415 190.66 540.253 190.483C540.092 190.299 539.903 190.164 539.688 190.08C539.473 189.987 539.242 189.941 538.996 189.941C538.743 189.941 538.504 189.987 538.282 190.08C538.066 190.164 537.874 190.299 537.705 190.483C537.544 190.66 537.417 190.883 537.325 191.152C537.232 191.421 537.186 191.736 537.186 192.097C537.186 192.459 537.232 192.774 537.325 193.043C537.417 193.312 537.544 193.539 537.705 193.723C537.874 193.9 538.066 194.034 538.282 194.127C538.504 194.211 538.743 194.254 538.996 194.254ZM545.898 195.084C545.444 195.084 545.045 195.007 544.699 194.853C544.361 194.692 544.076 194.476 543.846 194.207C543.623 193.938 543.454 193.623 543.338 193.262C543.231 192.901 543.177 192.512 543.177 192.097C543.177 191.682 543.231 191.294 543.338 190.933C543.454 190.572 543.623 190.256 543.846 189.987C544.076 189.718 544.361 189.507 544.699 189.353C545.045 189.192 545.444 189.111 545.898 189.111C546.351 189.111 546.743 189.192 547.074 189.353C547.412 189.507 547.693 189.718 547.916 189.987C548.139 190.256 548.304 190.572 548.411 190.933C548.527 191.294 548.584 191.682 548.584 192.097C548.584 192.512 548.527 192.901 548.411 193.262C548.304 193.623 548.139 193.938 547.916 194.207C547.693 194.476 547.412 194.692 547.074 194.853C546.743 195.007 546.351 195.084 545.898 195.084ZM544.122 192.097C544.122 192.428 544.157 192.732 544.226 193.008C544.303 193.277 544.414 193.512 544.56 193.712C544.706 193.904 544.891 194.054 545.114 194.161C545.337 194.269 545.598 194.323 545.898 194.323C546.19 194.323 546.444 194.269 546.659 194.161C546.882 194.054 547.062 193.904 547.201 193.712C547.347 193.512 547.454 193.277 547.524 193.008C547.6 192.732 547.639 192.428 547.639 192.097C547.639 191.767 547.6 191.467 547.524 191.198C547.454 190.921 547.347 190.687 547.201 190.495C547.062 190.295 546.882 190.141 546.659 190.034C546.444 189.926 546.19 189.872 545.898 189.872C545.598 189.872 545.337 189.926 545.114 190.034C544.891 190.141 544.706 190.295 544.56 190.495C544.414 190.687 544.303 190.921 544.226 191.198C544.157 191.467 544.122 191.767 544.122 192.097ZM552.293 195.084C551.886 195.084 551.513 195.014 551.174 194.876C550.844 194.738 550.56 194.542 550.321 194.288C550.091 194.027 549.91 193.712 549.779 193.343C549.656 192.974 549.595 192.559 549.595 192.097C549.595 191.613 549.66 191.187 549.791 190.818C549.922 190.441 550.102 190.13 550.333 189.884C550.563 189.63 550.836 189.438 551.151 189.307C551.474 189.176 551.828 189.111 552.212 189.111C552.597 189.111 552.95 189.173 553.273 189.296C553.596 189.419 553.873 189.603 554.103 189.849C554.334 190.087 554.514 190.391 554.645 190.76C554.776 191.121 554.841 191.544 554.841 192.028C554.841 192.09 554.837 192.151 554.83 192.213C554.83 192.274 554.826 192.324 554.818 192.363H550.517C550.517 192.632 550.563 192.885 550.656 193.124C550.756 193.354 550.886 193.558 551.048 193.735C551.217 193.904 551.409 194.038 551.624 194.138C551.847 194.238 552.085 194.288 552.339 194.288C552.754 194.288 553.092 194.207 553.354 194.046C553.623 193.885 553.846 193.689 554.022 193.458L554.576 194.023C554.33 194.346 554.022 194.603 553.653 194.795C553.292 194.988 552.839 195.084 552.293 195.084ZM552.212 189.872C551.943 189.872 551.705 189.922 551.497 190.022C551.29 190.122 551.117 190.253 550.978 190.414C550.84 190.575 550.733 190.76 550.656 190.967C550.586 191.175 550.548 191.383 550.54 191.59H553.873C553.865 191.383 553.823 191.175 553.746 190.967C553.677 190.76 553.573 190.575 553.434 190.414C553.296 190.253 553.123 190.122 552.916 190.022C552.716 189.922 552.481 189.872 552.212 189.872ZM560.041 196.006C559.457 196.006 558.911 195.898 558.403 195.683C557.904 195.476 557.47 195.184 557.101 194.807C556.732 194.43 556.443 193.981 556.236 193.458C556.028 192.935 555.924 192.363 555.924 191.74C555.924 191.079 556.028 190.479 556.236 189.941C556.443 189.396 556.732 188.93 557.101 188.546C557.477 188.154 557.919 187.851 558.427 187.635C558.942 187.42 559.506 187.312 560.121 187.312C560.683 187.312 561.213 187.397 561.713 187.566C562.212 187.728 562.65 187.973 563.027 188.304C563.404 188.635 563.7 189.046 563.915 189.538C564.138 190.03 564.249 190.598 564.249 191.244C564.249 191.652 564.192 192.021 564.076 192.351C563.969 192.682 563.815 192.966 563.615 193.204C563.423 193.435 563.192 193.616 562.923 193.746C562.662 193.869 562.377 193.931 562.07 193.931H561.436V193.089H561.367C561.251 193.358 561.063 193.585 560.802 193.769C560.54 193.946 560.237 194.034 559.891 194.034C559.599 194.034 559.33 193.981 559.084 193.873C558.838 193.758 558.623 193.596 558.438 193.389C558.261 193.181 558.119 192.931 558.011 192.639C557.912 192.347 557.862 192.021 557.862 191.659C557.862 191.313 557.912 190.998 558.011 190.714C558.119 190.422 558.261 190.172 558.438 189.964C558.623 189.757 558.838 189.595 559.084 189.48C559.33 189.365 559.599 189.307 559.891 189.307C560.237 189.307 560.54 189.392 560.802 189.561C561.071 189.73 561.259 189.96 561.367 190.253H561.436V189.411H562.185V193.331C562.37 193.331 562.543 193.285 562.704 193.193C562.873 193.093 563.019 192.951 563.142 192.766C563.265 192.582 563.361 192.359 563.431 192.097C563.5 191.836 563.534 191.544 563.534 191.221C563.534 190.652 563.442 190.164 563.258 189.757C563.073 189.349 562.823 189.015 562.508 188.754C562.201 188.492 561.839 188.3 561.424 188.177C561.009 188.054 560.575 187.993 560.121 187.993C559.614 187.993 559.149 188.081 558.726 188.258C558.311 188.427 557.954 188.673 557.654 188.996C557.354 189.319 557.12 189.711 556.951 190.172C556.789 190.633 556.709 191.152 556.709 191.728C556.709 192.259 556.793 192.747 556.962 193.193C557.131 193.639 557.366 194.019 557.666 194.334C557.965 194.649 558.319 194.895 558.726 195.072C559.134 195.249 559.576 195.337 560.052 195.337C560.344 195.337 560.621 195.307 560.882 195.245C561.144 195.191 561.374 195.114 561.574 195.014L561.793 195.614C561.57 195.722 561.309 195.814 561.009 195.891C560.709 195.968 560.387 196.006 560.041 196.006ZM560.041 189.999C559.641 189.999 559.314 190.137 559.061 190.414C558.815 190.691 558.692 191.11 558.692 191.671C558.692 192.232 558.815 192.651 559.061 192.928C559.314 193.204 559.641 193.343 560.041 193.343C560.433 193.343 560.752 193.204 560.998 192.928C561.251 192.651 561.378 192.232 561.378 191.671C561.378 191.11 561.251 190.691 560.998 190.414C560.752 190.137 560.433 189.999 560.041 189.999ZM568.08 197.217C567.588 197.217 567.162 197.128 566.8 196.952C566.439 196.782 566.151 196.571 565.936 196.317L566.547 195.729C566.708 195.929 566.916 196.087 567.169 196.202C567.431 196.325 567.719 196.387 568.034 196.387C568.526 196.387 568.91 196.267 569.187 196.029C569.471 195.791 569.614 195.372 569.614 194.772V193.665H569.545C569.483 193.858 569.395 194.031 569.279 194.184C569.164 194.33 569.026 194.457 568.864 194.565C568.711 194.665 568.538 194.745 568.345 194.807C568.161 194.861 567.973 194.888 567.78 194.888C567.419 194.888 567.089 194.822 566.789 194.692C566.497 194.561 566.239 194.373 566.016 194.127C565.801 193.873 565.632 193.566 565.509 193.204C565.394 192.843 565.336 192.436 565.336 191.982C565.336 191.536 565.394 191.137 565.509 190.783C565.632 190.429 565.801 190.13 566.016 189.884C566.239 189.638 566.497 189.449 566.789 189.319C567.089 189.18 567.419 189.111 567.78 189.111C568.203 189.111 568.58 189.223 568.91 189.445C569.249 189.661 569.475 189.96 569.591 190.345H569.66V189.249H570.536V194.888C570.536 195.587 570.325 196.148 569.902 196.571C569.487 197.002 568.88 197.217 568.08 197.217ZM567.965 194.058C568.472 194.058 568.872 193.881 569.164 193.527C569.464 193.174 569.614 192.662 569.614 191.994C569.614 191.317 569.464 190.806 569.164 190.46C568.872 190.114 568.472 189.941 567.965 189.941C567.45 189.941 567.039 190.114 566.731 190.46C566.431 190.806 566.282 191.317 566.282 191.994C566.282 192.662 566.431 193.174 566.731 193.527C567.039 193.881 567.45 194.058 567.965 194.058ZM572.497 189.249H573.373V190.149H573.443C573.581 189.849 573.773 189.603 574.019 189.411C574.273 189.211 574.588 189.111 574.965 189.111C575.418 189.111 575.799 189.196 576.106 189.365C576.421 189.526 576.656 189.772 576.809 190.103C576.978 189.78 577.205 189.534 577.49 189.365C577.774 189.196 578.135 189.111 578.573 189.111C578.889 189.111 579.173 189.153 579.427 189.238C579.68 189.323 579.896 189.453 580.072 189.63C580.257 189.807 580.395 190.034 580.487 190.31C580.587 190.587 580.637 190.917 580.637 191.302V194.945H579.715V191.475C579.715 190.891 579.6 190.479 579.369 190.241C579.146 189.995 578.816 189.872 578.377 189.872C577.955 189.872 577.624 190.022 577.386 190.322C577.148 190.622 577.028 191.06 577.028 191.636V194.945H576.106V191.475C576.106 190.891 575.991 190.479 575.76 190.241C575.537 189.995 575.207 189.872 574.769 189.872C574.353 189.872 574.023 190.022 573.777 190.322C573.539 190.622 573.42 191.06 573.42 191.636V194.945H572.497V189.249ZM583.753 195.084C583.491 195.084 583.249 195.041 583.026 194.957C582.811 194.872 582.623 194.753 582.461 194.599C582.3 194.446 582.173 194.265 582.081 194.058C581.996 193.842 581.954 193.608 581.954 193.354C581.954 192.862 582.131 192.466 582.484 192.167C582.838 191.867 583.341 191.698 583.995 191.659L585.494 191.567V191.163C585.494 190.725 585.386 190.41 585.171 190.218C584.963 190.018 584.663 189.918 584.271 189.918C583.941 189.918 583.656 189.98 583.418 190.103C583.18 190.226 582.995 190.36 582.865 190.506L582.311 189.953C582.511 189.707 582.78 189.507 583.118 189.353C583.464 189.192 583.856 189.111 584.294 189.111C584.687 189.111 585.017 189.165 585.286 189.273C585.555 189.372 585.77 189.511 585.932 189.688C586.101 189.864 586.22 190.072 586.289 190.31C586.366 190.549 586.404 190.802 586.404 191.071V194.945H585.54V193.977H585.471C585.317 194.323 585.102 194.596 584.825 194.795C584.548 194.988 584.191 195.084 583.753 195.084ZM583.891 194.3C584.368 194.3 584.752 194.161 585.044 193.885C585.344 193.6 585.494 193.223 585.494 192.755V192.259L584.041 192.363C583.272 192.424 582.888 192.747 582.888 193.331C582.888 193.623 582.98 193.858 583.165 194.034C583.357 194.211 583.599 194.3 583.891 194.3ZM589.333 187.739C589.333 187.9 589.275 188.039 589.16 188.154C589.053 188.269 588.906 188.327 588.722 188.327C588.53 188.327 588.38 188.269 588.272 188.154C588.165 188.039 588.111 187.9 588.111 187.739C588.111 187.585 588.165 187.451 588.272 187.335C588.38 187.213 588.53 187.151 588.722 187.151C588.906 187.151 589.053 187.213 589.16 187.335C589.275 187.451 589.333 187.585 589.333 187.739ZM588.261 189.249H589.183V194.945H588.261V189.249ZM591.143 186.586H592.066V194.945H591.143V186.586ZM594.487 195.084C594.272 195.084 594.103 195.014 593.98 194.876C593.857 194.738 593.795 194.58 593.795 194.403C593.795 194.219 593.857 194.061 593.98 193.931C594.103 193.792 594.272 193.723 594.487 193.723C594.71 193.723 594.879 193.792 594.994 193.931C595.117 194.061 595.179 194.219 595.179 194.403C595.179 194.58 595.117 194.738 594.994 194.876C594.879 195.014 594.71 195.084 594.487 195.084ZM598.794 195.084C598.333 195.084 597.934 194.999 597.595 194.83C597.265 194.661 596.992 194.438 596.777 194.161C596.562 193.885 596.404 193.569 596.304 193.216C596.204 192.855 596.154 192.482 596.154 192.097C596.154 191.713 596.204 191.344 596.304 190.991C596.404 190.629 596.558 190.31 596.765 190.034C596.98 189.757 597.253 189.534 597.584 189.365C597.914 189.196 598.31 189.111 598.771 189.111C599.256 189.111 599.652 189.192 599.959 189.353C600.266 189.515 600.528 189.73 600.743 189.999L600.167 190.541C599.982 190.341 599.786 190.187 599.579 190.08C599.379 189.964 599.117 189.907 598.794 189.907C598.287 189.907 597.876 190.103 597.561 190.495C597.253 190.879 597.1 191.413 597.1 192.097C597.1 192.436 597.142 192.739 597.226 193.008C597.311 193.277 597.43 193.508 597.584 193.7C597.738 193.892 597.918 194.038 598.126 194.138C598.333 194.238 598.564 194.288 598.818 194.288C599.125 194.288 599.39 194.234 599.613 194.127C599.836 194.011 600.044 193.846 600.236 193.631L600.789 194.184C600.566 194.453 600.293 194.672 599.971 194.842C599.648 195.003 599.256 195.084 598.794 195.084ZM604.269 195.084C603.815 195.084 603.415 195.007 603.07 194.853C602.731 194.692 602.447 194.476 602.216 194.207C601.993 193.938 601.824 193.623 601.709 193.262C601.601 192.901 601.548 192.512 601.548 192.097C601.548 191.682 601.601 191.294 601.709 190.933C601.824 190.572 601.993 190.256 602.216 189.987C602.447 189.718 602.731 189.507 603.07 189.353C603.415 189.192 603.815 189.111 604.269 189.111C604.722 189.111 605.114 189.192 605.445 189.353C605.783 189.507 606.063 189.718 606.286 189.987C606.509 190.256 606.675 190.572 606.782 190.933C606.897 191.294 606.955 191.682 606.955 192.097C606.955 192.512 606.897 192.901 606.782 193.262C606.675 193.623 606.509 193.938 606.286 194.207C606.063 194.476 605.783 194.692 605.445 194.853C605.114 195.007 604.722 195.084 604.269 195.084ZM602.493 192.097C602.493 192.428 602.528 192.732 602.597 193.008C602.674 193.277 602.785 193.512 602.931 193.712C603.077 193.904 603.262 194.054 603.485 194.161C603.708 194.269 603.969 194.323 604.269 194.323C604.561 194.323 604.814 194.269 605.03 194.161C605.253 194.054 605.433 193.904 605.572 193.712C605.718 193.512 605.825 193.277 605.894 193.008C605.971 192.732 606.01 192.428 606.01 192.097C606.01 191.767 605.971 191.467 605.894 191.198C605.825 190.921 605.718 190.687 605.572 190.495C605.433 190.295 605.253 190.141 605.03 190.034C604.814 189.926 604.561 189.872 604.269 189.872C603.969 189.872 603.708 189.926 603.485 190.034C603.262 190.141 603.077 190.295 602.931 190.495C602.785 190.687 602.674 190.921 602.597 191.198C602.528 191.467 602.493 191.767 602.493 192.097ZM608.438 189.249H609.315V190.149H609.384C609.522 189.849 609.714 189.603 609.96 189.411C610.214 189.211 610.529 189.111 610.906 189.111C611.359 189.111 611.74 189.196 612.047 189.365C612.362 189.526 612.597 189.772 612.751 190.103C612.92 189.78 613.146 189.534 613.431 189.365C613.715 189.196 614.077 189.111 614.515 189.111C614.83 189.111 615.114 189.153 615.368 189.238C615.622 189.323 615.837 189.453 616.014 189.63C616.198 189.807 616.336 190.034 616.429 190.31C616.529 190.587 616.579 190.917 616.579 191.302V194.945H615.656V191.475C615.656 190.891 615.541 190.479 615.31 190.241C615.087 189.995 614.757 189.872 614.319 189.872C613.896 189.872 613.565 190.022 613.327 190.322C613.089 190.622 612.97 191.06 612.97 191.636V194.945H612.047V191.475C612.047 190.891 611.932 190.479 611.701 190.241C611.478 189.995 611.148 189.872 610.71 189.872C610.295 189.872 609.964 190.022 609.718 190.322C609.48 190.622 609.361 191.06 609.361 191.636V194.945H608.438V189.249Z" fill="black" fill-opacity="0.76"/>
</g>
<rect x="339.655" y="173.657" width="288.971" height="34.5744" rx="8.28721" stroke="#8C867E" stroke-width="0.720627"/>
</g>
<g clip-path="url(#clip8_16720_14000)">
<g clip-path="url(#clip9_16720_14000)">
<path d="M585.306 227.398C585.306 227.075 585.219 226.823 585.044 226.642C584.869 226.453 584.65 226.359 584.388 226.359H581.624V225.29H584.489C584.805 225.29 585.094 225.34 585.356 225.441C585.619 225.542 585.844 225.687 586.032 225.875C586.227 226.057 586.375 226.278 586.476 226.541C586.584 226.796 586.638 227.082 586.638 227.398V231.121H585.306V227.398ZM581.624 227.792H582.955V231.121H581.624V227.792ZM587.474 225.29H592.176V226.359H591.399V231.121H590.067V226.359H587.474V225.29ZM593.092 225.29H594.423V229.214H593.092V225.29ZM598.575 226.359H595.346V224.009H596.678V225.29H599.997V226.218L598.03 231.121H596.678L598.575 226.359ZM606.15 228.327C606.15 228.044 606.11 227.785 606.029 227.55C605.955 227.308 605.848 227.099 605.706 226.924C605.572 226.743 605.407 226.605 605.212 226.511C605.017 226.41 604.805 226.359 604.576 226.359H602.962V225.29H604.586C605.077 225.29 605.505 225.384 605.868 225.572C606.231 225.754 606.53 225.989 606.766 226.278C607.008 226.568 607.186 226.894 607.3 227.257C607.421 227.62 607.482 227.977 607.482 228.327V232.988H606.15V228.327ZM608.757 225.29H610.089V229.214H608.757V225.29ZM614.008 227.802C614.008 227.297 613.91 226.931 613.715 226.702C613.527 226.474 613.218 226.359 612.787 226.359H611.012V225.29H612.928C614.536 225.29 615.34 226.127 615.34 227.802V231.121H614.008V227.802ZM616.507 229.82C616.507 229.288 616.612 228.807 616.82 228.377C617.035 227.946 617.331 227.62 617.708 227.398L616.406 225.29H617.97L619.524 227.822C619.732 227.714 619.897 227.536 620.018 227.287C620.146 227.032 620.21 226.722 620.21 226.359V225.29H621.542V226.299C621.542 226.87 621.424 227.378 621.188 227.822C620.96 228.266 620.637 228.592 620.22 228.801L621.642 231.121H620.089L618.414 228.367C618.239 228.495 618.098 228.68 617.99 228.922C617.889 229.164 617.839 229.446 617.839 229.769V231.121H616.507V229.82ZM623.452 231.242C623.365 231.242 623.274 231.239 623.18 231.232C623.086 231.232 622.991 231.229 622.897 231.222C622.81 231.215 622.729 231.209 622.655 231.202C622.588 231.195 622.534 231.188 622.494 231.182V230.122C622.615 230.136 622.732 230.149 622.847 230.163C622.968 230.169 623.075 230.173 623.17 230.173C623.499 230.173 623.664 229.958 623.664 229.527V226.359H622.494V225.29H628.285V231.121H626.943V226.359H625.006V229.547C625.006 229.796 624.972 230.025 624.905 230.233C624.838 230.435 624.737 230.613 624.602 230.768C624.474 230.916 624.313 231.034 624.118 231.121C623.923 231.202 623.701 231.242 623.452 231.242Z" fill="black" fill-opacity="0.76"/>
</g>
</g>
<g filter="url(#filter2_d_16720_14000)">
<g clip-path="url(#clip10_16720_14000)">
<rect x="339.295" y="238.004" width="289.692" height="35.295" rx="8.64752" fill="white"/>
<path d="M555.194 258.407C555.194 258.1 555.248 257.831 555.356 257.6C555.463 257.362 555.609 257.146 555.794 256.954C555.986 256.754 556.209 256.57 556.463 256.401C556.724 256.232 557.005 256.059 557.304 255.882C557.543 255.736 557.754 255.601 557.938 255.478C558.123 255.348 558.277 255.213 558.4 255.075C558.523 254.937 558.615 254.791 558.676 254.637C558.738 254.483 558.769 254.306 558.769 254.106C558.769 253.699 558.638 253.392 558.377 253.184C558.123 252.969 557.796 252.861 557.397 252.861C556.997 252.861 556.651 252.942 556.359 253.103C556.067 253.257 555.821 253.465 555.621 253.726L555.091 253.172C555.321 252.827 555.625 252.55 556.001 252.342C556.378 252.127 556.832 252.019 557.362 252.019C557.754 252.019 558.1 252.073 558.4 252.181C558.699 252.281 558.949 252.423 559.149 252.607C559.357 252.784 559.51 253 559.61 253.253C559.718 253.499 559.772 253.768 559.772 254.06C559.772 254.391 559.714 254.683 559.599 254.937C559.483 255.19 559.33 255.421 559.138 255.628C558.945 255.836 558.723 256.024 558.469 256.193C558.223 256.355 557.962 256.512 557.685 256.666C557.439 256.804 557.22 256.935 557.028 257.058C556.835 257.181 556.674 257.312 556.543 257.45C556.42 257.588 556.324 257.742 556.255 257.911C556.194 258.08 556.163 258.28 556.163 258.511V258.822H559.956V259.652H555.194V258.407ZM564.16 259.791C563.607 259.791 563.142 259.691 562.765 259.491C562.396 259.291 562.096 259.041 561.866 258.741L562.454 258.165C562.631 258.388 562.85 258.572 563.111 258.718C563.38 258.864 563.718 258.937 564.126 258.937C564.618 258.937 565.006 258.822 565.29 258.592C565.575 258.353 565.717 258.004 565.717 257.542C565.717 257.097 565.571 256.77 565.279 256.562C564.986 256.355 564.614 256.251 564.16 256.251H563.468V255.421H564.126C564.579 255.421 564.913 255.302 565.129 255.063C565.352 254.825 565.463 254.514 565.463 254.129C565.463 253.907 565.425 253.718 565.348 253.564C565.279 253.403 565.179 253.272 565.048 253.172C564.925 253.065 564.779 252.988 564.61 252.942C564.448 252.896 564.279 252.873 564.103 252.873C563.749 252.873 563.441 252.942 563.18 253.08C562.919 253.219 562.7 253.392 562.523 253.599L561.993 253.023C562.215 252.746 562.504 252.511 562.857 252.319C563.219 252.119 563.653 252.019 564.16 252.019C564.468 252.019 564.76 252.066 565.036 252.158C565.321 252.242 565.567 252.369 565.774 252.538C565.99 252.7 566.159 252.907 566.282 253.161C566.405 253.407 566.466 253.691 566.466 254.014C566.466 254.445 566.355 254.81 566.132 255.11C565.909 255.402 565.59 255.621 565.175 255.767V255.836C565.382 255.874 565.578 255.944 565.763 256.043C565.955 256.136 566.12 256.259 566.259 256.412C566.405 256.558 566.516 256.735 566.593 256.943C566.678 257.15 566.72 257.381 566.72 257.635C566.72 257.965 566.658 258.265 566.535 258.534C566.42 258.795 566.251 259.022 566.028 259.214C565.805 259.399 565.536 259.541 565.221 259.641C564.906 259.741 564.552 259.791 564.16 259.791ZM570.878 251.293H571.742L568.825 260.921H567.961L570.878 251.293ZM575.393 259.791C574.916 259.791 574.505 259.691 574.159 259.491C573.821 259.291 573.54 259.018 573.317 258.672C573.102 258.319 572.941 257.907 572.833 257.439C572.733 256.962 572.683 256.451 572.683 255.905C572.683 255.359 572.733 254.852 572.833 254.383C572.941 253.907 573.102 253.495 573.317 253.149C573.54 252.796 573.821 252.519 574.159 252.319C574.505 252.119 574.916 252.019 575.393 252.019C575.869 252.019 576.277 252.119 576.615 252.319C576.961 252.519 577.241 252.796 577.457 253.149C577.679 253.495 577.841 253.907 577.941 254.383C578.048 254.852 578.102 255.359 578.102 255.905C578.102 256.451 578.048 256.962 577.941 257.439C577.841 257.907 577.679 258.319 577.457 258.672C577.241 259.018 576.961 259.291 576.615 259.491C576.277 259.691 575.869 259.791 575.393 259.791ZM575.393 258.961C575.677 258.961 575.927 258.891 576.142 258.753C576.357 258.607 576.534 258.403 576.673 258.142C576.819 257.873 576.926 257.55 576.995 257.173C577.065 256.797 577.099 256.374 577.099 255.905C577.099 255.436 577.065 255.013 576.995 254.637C576.926 254.26 576.819 253.941 576.673 253.68C576.534 253.411 576.357 253.207 576.142 253.069C575.927 252.923 575.677 252.85 575.393 252.85C575.108 252.85 574.858 252.923 574.643 253.069C574.436 253.207 574.259 253.411 574.113 253.68C573.974 253.941 573.867 254.26 573.79 254.637C573.721 255.013 573.686 255.436 573.686 255.905C573.686 256.374 573.721 256.797 573.79 257.173C573.867 257.55 573.974 257.873 574.113 258.142C574.259 258.403 574.436 258.607 574.643 258.753C574.858 258.891 575.108 258.961 575.393 258.961ZM579.977 258.407C579.977 258.1 580.031 257.831 580.139 257.6C580.246 257.362 580.392 257.146 580.577 256.954C580.769 256.754 580.992 256.57 581.245 256.401C581.507 256.232 581.787 256.059 582.087 255.882C582.325 255.736 582.537 255.601 582.721 255.478C582.906 255.348 583.059 255.213 583.182 255.075C583.305 254.937 583.398 254.791 583.459 254.637C583.521 254.483 583.551 254.306 583.551 254.106C583.551 253.699 583.421 253.392 583.159 253.184C582.906 252.969 582.579 252.861 582.179 252.861C581.78 252.861 581.434 252.942 581.142 253.103C580.85 253.257 580.604 253.465 580.404 253.726L579.873 253.172C580.104 252.827 580.408 252.55 580.784 252.342C581.161 252.127 581.614 252.019 582.145 252.019C582.537 252.019 582.883 252.073 583.182 252.181C583.482 252.281 583.732 252.423 583.932 252.607C584.139 252.784 584.293 253 584.393 253.253C584.501 253.499 584.555 253.768 584.555 254.06C584.555 254.391 584.497 254.683 584.382 254.937C584.266 255.19 584.113 255.421 583.92 255.628C583.728 255.836 583.505 256.024 583.252 256.193C583.006 256.355 582.744 256.512 582.468 256.666C582.222 256.804 582.003 256.935 581.81 257.058C581.618 257.181 581.457 257.312 581.326 257.45C581.203 257.588 581.107 257.742 581.038 257.911C580.976 258.08 580.946 258.28 580.946 258.511V258.822H584.739V259.652H579.977V258.407ZM588.747 251.293H589.612L586.695 260.921H585.83L588.747 251.293ZM590.898 258.845H593.043V253.196L590.991 254.141L590.691 253.495L593.216 252.158H594.023V258.845H595.948V259.652H590.898V258.845ZM599.864 259.791C599.334 259.791 598.903 259.714 598.573 259.56C598.242 259.399 597.966 259.195 597.743 258.949L598.319 258.338C598.511 258.538 598.727 258.688 598.965 258.788C599.211 258.888 599.499 258.937 599.83 258.937C600.421 258.937 600.89 258.672 601.236 258.142C601.59 257.604 601.767 256.812 601.767 255.767H601.697C601.551 256.082 601.325 256.351 601.017 256.574C600.71 256.789 600.318 256.897 599.841 256.897C599.549 256.897 599.265 256.847 598.988 256.747C598.711 256.647 598.465 256.497 598.25 256.297C598.035 256.097 597.858 255.851 597.72 255.559C597.589 255.267 597.524 254.929 597.524 254.545C597.524 254.191 597.577 253.86 597.685 253.553C597.8 253.245 597.966 252.98 598.181 252.757C598.396 252.527 598.661 252.346 598.976 252.215C599.292 252.085 599.649 252.019 600.049 252.019C600.91 252.019 601.563 252.327 602.009 252.942C602.462 253.549 602.689 254.464 602.689 255.686C602.689 257.016 602.435 258.034 601.928 258.741C601.421 259.441 600.733 259.791 599.864 259.791ZM600.037 256.055C600.514 256.055 600.886 255.917 601.156 255.64C601.425 255.355 601.559 254.971 601.559 254.487C601.559 254.018 601.425 253.634 601.156 253.334C600.894 253.026 600.521 252.873 600.037 252.873C599.553 252.873 599.18 253.026 598.919 253.334C598.657 253.634 598.527 254.018 598.527 254.487C598.527 254.971 598.657 255.355 598.919 255.64C599.188 255.917 599.561 256.055 600.037 256.055ZM606.778 259.791C606.247 259.791 605.817 259.714 605.486 259.56C605.156 259.399 604.879 259.195 604.656 258.949L605.233 258.338C605.425 258.538 605.64 258.688 605.878 258.788C606.124 258.888 606.413 258.937 606.743 258.937C607.335 258.937 607.804 258.672 608.15 258.142C608.503 257.604 608.68 256.812 608.68 255.767H608.611C608.465 256.082 608.238 256.351 607.931 256.574C607.623 256.789 607.231 256.897 606.755 256.897C606.463 256.897 606.178 256.847 605.901 256.747C605.625 256.647 605.379 256.497 605.163 256.297C604.948 256.097 604.771 255.851 604.633 255.559C604.502 255.267 604.437 254.929 604.437 254.545C604.437 254.191 604.491 253.86 604.598 253.553C604.714 253.245 604.879 252.98 605.094 252.757C605.31 252.527 605.575 252.346 605.89 252.215C606.205 252.085 606.562 252.019 606.962 252.019C607.823 252.019 608.476 252.327 608.922 252.942C609.376 253.549 609.603 254.464 609.603 255.686C609.603 257.016 609.349 258.034 608.842 258.741C608.334 259.441 607.646 259.791 606.778 259.791ZM606.951 256.055C607.427 256.055 607.8 255.917 608.069 255.64C608.338 255.355 608.473 254.971 608.473 254.487C608.473 254.018 608.338 253.634 608.069 253.334C607.808 253.026 607.435 252.873 606.951 252.873C606.466 252.873 606.094 253.026 605.832 253.334C605.571 253.634 605.44 254.018 605.44 254.487C605.44 254.971 605.571 255.355 605.832 255.64C606.101 255.917 606.474 256.055 606.951 256.055ZM614.129 259.791C613.268 259.791 612.611 259.487 612.158 258.88C611.712 258.265 611.489 257.346 611.489 256.124C611.489 254.794 611.743 253.78 612.25 253.08C612.757 252.373 613.445 252.019 614.314 252.019C614.844 252.019 615.275 252.1 615.605 252.262C615.936 252.415 616.212 252.615 616.435 252.861L615.847 253.484C615.655 253.284 615.44 253.134 615.202 253.034C614.963 252.926 614.679 252.873 614.348 252.873C613.757 252.873 613.284 253.138 612.93 253.668C612.584 254.199 612.411 254.99 612.411 256.043H612.481C612.627 255.728 612.853 255.463 613.161 255.248C613.468 255.025 613.86 254.914 614.337 254.914C614.621 254.914 614.902 254.963 615.179 255.063C615.463 255.163 615.713 255.313 615.928 255.513C616.143 255.713 616.316 255.959 616.447 256.251C616.585 256.543 616.654 256.881 616.654 257.266C616.654 257.619 616.597 257.95 616.481 258.257C616.374 258.565 616.212 258.834 615.997 259.064C615.782 259.287 615.517 259.464 615.202 259.595C614.886 259.725 614.529 259.791 614.129 259.791ZM614.141 258.937C614.625 258.937 614.998 258.788 615.259 258.488C615.521 258.18 615.651 257.792 615.651 257.323C615.651 256.839 615.517 256.459 615.248 256.182C614.986 255.897 614.617 255.755 614.141 255.755C613.664 255.755 613.291 255.897 613.022 256.182C612.753 256.459 612.619 256.839 612.619 257.323C612.619 257.792 612.75 258.18 613.011 258.488C613.28 258.788 613.657 258.937 614.141 258.937Z" fill="black" fill-opacity="0.76"/>
</g>
<rect x="339.655" y="238.364" width="288.971" height="34.5744" rx="8.28721" stroke="#8C867E" stroke-width="0.720627"/>
</g>
</g>
<path d="M634.752 93.5895C634.752 91.9976 636.042 90.707 637.634 90.707C639.226 90.707 640.517 91.9976 640.517 93.5895V128.18C640.517 129.772 639.226 131.062 637.634 131.062C636.042 131.062 634.752 129.772 634.752 128.18V93.5895Z" fill="black" fill-opacity="0.3"/>
<g filter="url(#filter3_ddd_16720_14000)">
<rect width="324" height="69.8851" transform="translate(322 287.113)" fill="white"/>
<g clip-path="url(#clip11_16720_14000)">
<path d="M339.295 322.058C339.295 312.311 347.196 304.41 356.943 304.41H395.238C404.984 304.41 412.885 312.311 412.885 322.058C412.885 331.804 404.984 339.705 395.238 339.705H356.943C347.196 339.705 339.295 331.804 339.295 322.058Z" fill="#F36805"/>
<path d="M339.295 322.058C339.295 312.311 347.196 304.41 356.943 304.41H395.238C404.984 304.41 412.885 312.311 412.885 322.058C412.885 331.804 404.984 339.705 395.238 339.705H356.943C347.196 339.705 339.295 331.804 339.295 322.058Z" fill="white" fill-opacity="0.01"/>
<path d="M359.271 327.059L362.038 320.616H357.397V316.465H359.703V318.728H364.56V320.314L361.663 327.059H359.271ZM365.906 323.542V318.728H368.212V323.542H365.906ZM369.686 327.059V325.171H373.549L369.326 318.728H371.992L374.053 321.899C374.322 321.726 374.524 321.491 374.659 321.193C374.793 320.895 374.86 320.578 374.86 320.241V318.728H377.181V320.141C377.181 320.659 377.099 321.149 376.936 321.611C376.782 322.062 376.556 322.466 376.258 322.821C375.97 323.167 375.619 323.451 375.206 323.672L377.411 327.059H369.686ZM378.898 327.059V322.85H381.204V327.059H378.898ZM384.317 327.059V322.202C384.317 321.779 384.274 321.457 384.188 321.236C384.111 321.005 383.962 320.847 383.741 320.76C383.529 320.664 383.227 320.616 382.833 320.616H378.898V318.728H382.948C383.813 318.728 384.514 318.848 385.052 319.088C385.59 319.319 385.984 319.679 386.234 320.169C386.494 320.659 386.623 321.298 386.623 322.086V327.059H384.317ZM389.531 327.059L392.298 320.616H387.658V316.465H389.964V318.728H394.821V320.314L391.924 327.059H389.531Z" fill="white"/>
</g>
<g clip-path="url(#clip12_16720_14000)">
<path d="M424.415 322.058C424.415 312.311 432.316 304.41 442.063 304.41H490.358C500.104 304.41 508.005 312.311 508.005 322.058C508.005 331.804 500.104 339.705 490.358 339.705H442.063C432.316 339.705 424.415 331.804 424.415 322.058Z" fill="white" fill-opacity="0.01"/>
<path d="M446.757 329.725V322.879C446.757 322.12 446.599 321.553 446.282 321.178C445.974 320.804 445.503 320.616 444.869 320.616H442.246V318.728H444.984C445.83 318.728 446.555 318.891 447.161 319.218C447.776 319.535 448.246 319.996 448.573 320.602C448.9 321.207 449.063 321.928 449.063 322.764V329.725H446.757ZM450.741 323.542V318.728H453.047V323.542H450.741ZM456.308 327.059L459.076 320.616H454.435V316.465H456.741V318.728H461.598V320.314L458.701 327.059H456.308ZM467.729 327.232C466.72 327.232 465.841 327.025 465.091 326.612C464.342 326.199 463.761 325.608 463.348 324.839C462.934 324.07 462.728 323.158 462.728 322.101V318.728H465.034V321.985C465.034 322.716 465.14 323.311 465.351 323.773C465.572 324.234 465.884 324.575 466.288 324.796C466.691 325.017 467.172 325.127 467.729 325.127C468.286 325.127 468.767 325.017 469.17 324.796C469.574 324.575 469.881 324.234 470.093 323.773C470.314 323.311 470.424 322.716 470.424 321.985V318.728H472.73V322.101C472.73 323.158 472.524 324.07 472.11 324.839C471.697 325.608 471.116 326.199 470.366 326.612C469.617 327.025 468.738 327.232 467.729 327.232ZM466.576 323.542V318.728H468.882V323.542H466.576ZM474.289 327.059V322.85H476.595V327.059H474.289ZM479.708 327.059V322.202C479.708 321.779 479.665 321.457 479.579 321.236C479.502 321.005 479.353 320.847 479.132 320.76C478.92 320.664 478.618 320.616 478.224 320.616H474.289V318.728H478.339C479.204 318.728 479.905 318.848 480.443 319.088C480.981 319.319 481.375 319.679 481.625 320.169C481.885 320.659 482.014 321.298 482.014 322.086V327.059H479.708ZM484.922 327.059L487.69 320.616H483.049V316.465H485.355V318.728H490.212V320.314L487.315 327.059H484.922Z" fill="#242E30"/>
</g>
</g>
</g>
<defs>
<filter id="filter0_d_16720_14000" x="339.295" y="108.59" width="289.692" height="35.2969" filterUnits="userSpaceOnUse" color-interpolation-filters="sRGB">
<feFlood flood-opacity="0" result="BackgroundImageFix"/>
<feColorMatrix in="SourceAlpha" type="matrix" values="0 0 0 0 0 0 0 0 0 0 0 0 0 0 0 0 0 0 127 0" result="hardAlpha"/>
<feOffset/>
<feColorMatrix type="matrix" values="0 0 0 0 0.286275 0 0 0 0 0.588235 0 0 0 0 0.992157 0 0 0 1 0"/>
<feBlend mode="normal" in2="BackgroundImageFix" result="effect1_dropShadow_16720_14000"/>
<feBlend mode="normal" in="SourceGraphic" in2="effect1_dropShadow_16720_14000" result="shape"/>
</filter>
<filter id="filter1_d_16720_14000" x="339.295" y="173.297" width="289.692" height="35.2969" filterUnits="userSpaceOnUse" color-interpolation-filters="sRGB">
<feFlood flood-opacity="0" result="BackgroundImageFix"/>
<feColorMatrix in="SourceAlpha" type="matrix" values="0 0 0 0 0 0 0 0 0 0 0 0 0 0 0 0 0 0 127 0" result="hardAlpha"/>
<feOffset/>
<feColorMatrix type="matrix" values="0 0 0 0 0.286275 0 0 0 0 0.588235 0 0 0 0 0.992157 0 0 0 1 0"/>
<feBlend mode="normal" in2="BackgroundImageFix" result="effect1_dropShadow_16720_14000"/>
<feBlend mode="normal" in="SourceGraphic" in2="effect1_dropShadow_16720_14000" result="shape"/>
</filter>
<filter id="filter2_d_16720_14000" x="339.295" y="238.004" width="289.692" height="35.2969" filterUnits="userSpaceOnUse" color-interpolation-filters="sRGB">
<feFlood flood-opacity="0" result="BackgroundImageFix"/>
<feColorMatrix in="SourceAlpha" type="matrix" values="0 0 0 0 0 0 0 0 0 0 0 0 0 0 0 0 0 0 127 0" result="hardAlpha"/>
<feOffset/>
<feColorMatrix type="matrix" values="0 0 0 0 0.286275 0 0 0 0 0.588235 0 0 0 0 0.992157 0 0 0 1 0"/>
<feBlend mode="normal" in2="BackgroundImageFix" result="effect1_dropShadow_16720_14000"/>
<feBlend mode="normal" in="SourceGraphic" in2="effect1_dropShadow_16720_14000" result="shape"/>
</filter>
<filter id="filter3_ddd_16720_14000" x="314.794" y="278.466" width="338.413" height="84.2993" filterUnits="userSpaceOnUse" color-interpolation-filters="sRGB">
<feFlood flood-opacity="0" result="BackgroundImageFix"/>
<feColorMatrix in="SourceAlpha" type="matrix" values="0 0 0 0 0 0 0 0 0 0 0 0 0 0 0 0 0 0 127 0" result="hardAlpha"/>
<feOffset dy="-2.88251"/>
<feGaussianBlur stdDeviation="2.16188"/>
<feColorMatrix type="matrix" values="0 0 0 0 0 0 0 0 0 0 0 0 0 0 0 0 0 0 0.01 0"/>
<feBlend mode="normal" in2="BackgroundImageFix" result="effect1_dropShadow_16720_14000"/>
<feColorMatrix in="SourceAlpha" type="matrix" values="0 0 0 0 0 0 0 0 0 0 0 0 0 0 0 0 0 0 127 0" result="hardAlpha"/>
<feMorphology radius="1.44125" operator="erode" in="SourceAlpha" result="effect2_dropShadow_16720_14000"/>
<feOffset dy="-1.44125"/>
<feGaussianBlur stdDeviation="4.32376"/>
<feColorMatrix type="matrix" values="0 0 0 0 0 0 0 0 0 0 0 0 0 0 0 0 0 0 0.03 0"/>
<feBlend mode="normal" in2="effect1_dropShadow_16720_14000" result="effect2_dropShadow_16720_14000"/>
<feColorMatrix in="SourceAlpha" type="matrix" values="0 0 0 0 0 0 0 0 0 0 0 0 0 0 0 0 0 0 127 0" result="hardAlpha"/>
<feOffset dy="-2.16188"/>
<feGaussianBlur stdDeviation="2.16188"/>
<feColorMatrix type="matrix" values="0 0 0 0 0 0 0 0 0 0 0 0 0 0 0 0 0 0 0.02 0"/>
<feBlend mode="normal" in2="effect2_dropShadow_16720_14000" result="effect3_dropShadow_16720_14000"/>
<feBlend mode="normal" in="SourceGraphic" in2="effect3_dropShadow_16720_14000" result="shape"/>
</filter>
<clipPath id="clip0_16720_14000">
<rect x="322" y="35" width="324" height="322" rx="11.53" fill="white"/>
</clipPath>
<clipPath id="clip1_16720_14000">
<rect width="289.692" height="182.593" fill="white" transform="translate(339.295 90.707)"/>
</clipPath>
<clipPath id="clip2_16720_14000">
<rect width="289.692" height="17.8825" fill="white" transform="translate(339.295 90.707)"/>
</clipPath>
<clipPath id="clip3_16720_14000">
<rect width="289.692" height="15" fill="white" transform="translate(339.295 90.707)"/>
</clipPath>
<clipPath id="clip4_16720_14000">
<rect x="339.295" y="108.59" width="289.692" height="35.295" rx="8.64752" fill="white"/>
</clipPath>
<clipPath id="clip5_16720_14000">
<rect width="289.692" height="17.8825" fill="white" transform="translate(339.295 155.414)"/>
</clipPath>
<clipPath id="clip6_16720_14000">
<rect width="289.692" height="15" fill="white" transform="translate(339.295 155.414)"/>
</clipPath>
<clipPath id="clip7_16720_14000">
<rect x="339.295" y="173.297" width="289.692" height="35.295" rx="8.64752" fill="white"/>
</clipPath>
<clipPath id="clip8_16720_14000">
<rect width="289.692" height="17.8825" fill="white" transform="translate(339.295 220.121)"/>
</clipPath>
<clipPath id="clip9_16720_14000">
<rect width="289.692" height="15" fill="white" transform="translate(339.295 220.121)"/>
</clipPath>
<clipPath id="clip10_16720_14000">
<rect x="339.295" y="238.004" width="289.692" height="35.295" rx="8.64752" fill="white"/>
</clipPath>
<clipPath id="clip11_16720_14000">
<path d="M339.295 322.058C339.295 312.311 347.196 304.41 356.943 304.41H395.238C404.984 304.41 412.885 312.311 412.885 322.058C412.885 331.804 404.984 339.705 395.238 339.705H356.943C347.196 339.705 339.295 331.804 339.295 322.058Z" fill="white"/>
</clipPath>
<clipPath id="clip12_16720_14000">
<path d="M424.415 322.058C424.415 312.311 432.316 304.41 442.063 304.41H490.358C500.104 304.41 508.005 312.311 508.005 322.058C508.005 331.804 500.104 339.705 490.358 339.705H442.063C432.316 339.705 424.415 331.804 424.415 322.058Z" fill="white"/>
</clipPath>
</defs>
</svg>
