<svg width="968" height="536" viewBox="0 0 968 536" fill="none" xmlns="http://www.w3.org/2000/svg">
<rect width="968" height="536" rx="16" fill="black" fill-opacity="0.55"/>
<path d="M0 16C0 7.16344 7.16344 0 16 0H952C960.837 0 968 7.16344 968 16V48H0V16Z" fill="#DFE1E5"/>
<circle cx="32" cy="24" r="8" fill="#ED695E"/>
<circle cx="56" cy="24" r="8" fill="#F4BD4F"/>
<circle cx="80" cy="24" r="8" fill="#61C354"/>
<g filter="url(#filter0_ddd_16720_13899)">
<g clip-path="url(#clip0_16720_13899)">
<path d="M184 128C184 119.163 191.163 112 200 112H768C776.837 112 784 119.163 784 128V376C784 384.837 776.837 392 768 392H200C191.163 392 184 384.837 184 376V128Z" fill="white"/>
<rect width="600" height="72" transform="translate(184 112)" fill="white"/>
<rect width="544" height="72" transform="translate(184 112)" fill="white" fill-opacity="0.01"/>
<path d="M212.584 156V144.12H208.384V140.4H221.584V144.12H217.384V156H212.584ZM222.953 156V144.144H227.465V156H222.953ZM225.209 143.04C224.393 143.04 223.785 142.808 223.385 142.344C222.985 141.88 222.785 141.352 222.785 140.76C222.785 140.152 222.985 139.616 223.385 139.152C223.785 138.688 224.393 138.456 225.209 138.456C226.025 138.456 226.633 138.688 227.033 139.152C227.449 139.616 227.657 140.152 227.657 140.76C227.657 141.352 227.449 141.88 227.033 142.344C226.633 142.808 226.025 143.04 225.209 143.04ZM235.086 156.24C234.03 156.24 233.166 156.072 232.494 155.736C231.822 155.384 231.318 154.848 230.982 154.128C230.662 153.392 230.502 152.448 230.502 151.296V147.672H228.99V144.144H230.502V140.928H234.99V144.144H238.518V147.672H234.99V151.32C234.99 151.768 235.062 152.104 235.206 152.328C235.366 152.552 235.654 152.664 236.07 152.664C236.358 152.664 236.63 152.608 236.886 152.496C237.142 152.368 237.35 152.216 237.51 152.04L238.854 155.04C238.438 155.44 237.918 155.744 237.294 155.952C236.686 156.144 235.95 156.24 235.086 156.24ZM240.132 156V138.6H244.644V156H240.132ZM252.337 156.288C250.977 156.288 249.825 156.016 248.881 155.472C247.937 154.912 247.225 154.168 246.745 153.24C246.265 152.296 246.025 151.24 246.025 150.072C246.025 149.176 246.153 148.352 246.409 147.6C246.665 146.848 247.041 146.192 247.537 145.632C248.049 145.056 248.689 144.616 249.457 144.312C250.241 144.008 251.145 143.856 252.169 143.856C253.177 143.856 254.057 144.008 254.809 144.312C255.561 144.616 256.185 145.048 256.681 145.608C257.177 146.152 257.545 146.8 257.785 147.552C258.025 148.288 258.145 149.104 258.145 150C258.145 150.208 258.121 150.448 258.073 150.72C258.041 150.992 258.001 151.2 257.953 151.344H250.369C250.449 151.696 250.601 151.984 250.825 152.208C251.049 152.432 251.321 152.6 251.641 152.712C251.977 152.808 252.313 152.856 252.649 152.856C253.129 152.856 253.553 152.784 253.921 152.64C254.289 152.496 254.577 152.312 254.785 152.088L257.161 154.512C256.745 155.056 256.105 155.488 255.241 155.808C254.377 156.128 253.409 156.288 252.337 156.288ZM252.121 146.952C251.817 146.952 251.537 147.024 251.281 147.168C251.041 147.296 250.841 147.496 250.681 147.768C250.521 148.024 250.417 148.344 250.369 148.728H253.873C253.825 148.328 253.713 148 253.537 147.744C253.377 147.488 253.177 147.296 252.937 147.168C252.713 147.024 252.441 146.952 252.121 146.952Z" fill="black" fill-opacity="0.76"/>
<path d="M728 148C728 136.954 736.954 128 748 128C759.046 128 768 136.954 768 148C768 159.046 759.046 168 748 168C736.954 168 728 159.046 728 148Z" fill="white" fill-opacity="0.01"/>
<path d="M753.801 140.807L748 146.608L742.199 140.807L740.807 142.198L746.609 147.999L740.807 153.8L742.199 155.192L748 149.39L753.801 155.192L755.193 153.8L749.391 147.999L755.193 142.198L753.801 140.807Z" fill="black" fill-opacity="0.76"/>
<path d="M208 196C208 191.582 211.582 188 216 188H752C756.418 188 760 191.582 760 196V284C760 288.418 756.418 292 752 292H216C211.582 292 208 288.418 208 284V196Z" fill="black" fill-opacity="0.04"/>
<path d="M750 188V188.5H752C752.501 188.5 752.991 188.549 753.464 188.643L753.561 188.152C754.61 188.36 755.586 188.773 756.444 189.348L756.167 189.763C756.985 190.31 757.69 191.015 758.237 191.833L758.651 191.555C759.226 192.413 759.639 193.389 759.847 194.438L759.357 194.536C759.451 195.009 759.5 195.499 759.5 196V198H760V202H759.5V206H760V210H759.5V214H760V218H759.5V222H760V226H759.5V230H760V234H759.5V238H760V242H759.5V246H760V250H759.5V254H760V258H759.5V262H760V266H759.5V270H760V274H759.5V278H760V282H759.5V284C759.5 284.501 759.451 284.991 759.357 285.464L759.847 285.561C759.639 286.61 759.226 287.586 758.651 288.444L758.237 288.167C757.69 288.985 756.985 289.69 756.167 290.237L756.444 290.651C755.586 291.226 754.61 291.639 753.561 291.847L753.464 291.357C752.991 291.451 752.501 291.5 752 291.5H750V292H746V291.5H742V292H738V291.5H734V292H730V291.5H726V292H722V291.5H718V292H714V291.5H710V292H706V291.5H702V292H698V291.5H694V292H690V291.5H686V292H682V291.5H678V292H674V291.5H670V292H666V291.5H662V292H658V291.5H654V292H650V291.5H646V292H642V291.5H638V292H634V291.5H630V292H626V291.5H622V292H618V291.5H614V292H610V291.5H606V292H602V291.5H598V292H594V291.5H590V292H586V291.5H582V292H578V291.5H574V292H570V291.5H566V292H562V291.5H558V292H554V291.5H550V292H546V291.5H542V292H538V291.5H534V292H530V291.5H526V292H522V291.5H518V292H514V291.5H510V292H506V291.5H502V292H498V291.5H494V292H490V291.5H486V292H482V291.5H478V292H474V291.5H470V292H466V291.5H462V292H458V291.5H454V292H450V291.5H446V292H442V291.5H438V292H434V291.5H430V292H426V291.5H422V292H418V291.5H414V292H410V291.5H406V292H402V291.5H398V292H394V291.5H390V292H386V291.5H382V292H378V291.5H374V292H370V291.5H366V292H362V291.5H358V292H354V291.5H350V292H346V291.5H342V292H338V291.5H334V292H330V291.5H326V292H322V291.5H318V292H314V291.5H310V292H306V291.5H302V292H298V291.5H294V292H290V291.5H286V292H282V291.5H278V292H274V291.5H270V292H266V291.5H262V292H258V291.5H254V292H250V291.5H246V292H242V291.5H238V292H234V291.5H230V292H226V291.5H222V292H218V291.5H216C215.499 291.5 215.009 291.451 214.536 291.357L214.438 291.847C213.389 291.639 212.413 291.226 211.555 290.651L211.833 290.237C211.015 289.69 210.31 288.985 209.763 288.167L209.348 288.444C208.773 287.586 208.36 286.61 208.152 285.561L208.643 285.464C208.549 284.991 208.5 284.501 208.5 284V282H208V278H208.5V274H208V270H208.5V266H208V262H208.5V258H208V254H208.5V250H208V246H208.5V242H208V238H208.5V234H208V230H208.5V226H208V222H208.5V218H208V214H208.5V210H208V206H208.5V202H208V198H208.5V196C208.5 195.499 208.549 195.009 208.643 194.536L208.152 194.438C208.36 193.389 208.773 192.413 209.348 191.555L209.763 191.833C210.31 191.015 211.015 190.31 211.833 189.763L211.555 189.348C212.413 188.773 213.389 188.36 214.438 188.152L214.536 188.643C215.009 188.549 215.499 188.5 216 188.5H218V188H222V188.5H226V188H230V188.5H234V188H238V188.5H242V188H246V188.5H250V188H254V188.5H258V188H262V188.5H266V188H270V188.5H274V188H278V188.5H282V188H286V188.5H290V188H294V188.5H298V188H302V188.5H306V188H310V188.5H314V188H318V188.5H322V188H326V188.5H330V188H334V188.5H338V188H342V188.5H346V188H350V188.5H354V188H358V188.5H362V188H366V188.5H370V188H374V188.5H378V188H382V188.5H386V188H390V188.5H394V188H398V188.5H402V188H406V188.5H410V188H414V188.5H418V188H422V188.5H426V188H430V188.5H434V188H438V188.5H442V188H446V188.5H450V188H454V188.5H458V188H462V188.5H466V188H470V188.5H474V188H478V188.5H482V188H486V188.5H490V188H494V188.5H498V188H502V188.5H506V188H510V188.5H514V188H518V188.5H522V188H526V188.5H530V188H534V188.5H538V188H542V188.5H546V188H550V188.5H554V188H558V188.5H562V188H566V188.5H570V188H574V188.5H578V188H582V188.5H586V188H590V188.5H594V188H598V188.5H602V188H606V188.5H610V188H614V188.5H618V188H622V188.5H626V188H630V188.5H634V188H638V188.5H642V188H646V188.5H650V188H654V188.5H658V188H662V188.5H666V188H670V188.5H674V188H678V188.5H682V188H686V188.5H690V188H694V188.5H698V188H702V188.5H706V188H710V188.5H714V188H718V188.5H722V188H726V188.5H730V188H734V188.5H738V188H742V188.5H746V188H750Z" stroke="black" stroke-opacity="0.76" stroke-dasharray="4 4"/>
<path d="M474.031 218.192C473.092 218.192 472.308 218.043 471.679 217.744C471.06 217.445 470.548 217.056 470.143 216.576L471.519 215.296C471.818 215.616 472.17 215.888 472.575 216.112C472.98 216.325 473.482 216.432 474.079 216.432C474.41 216.432 474.708 216.389 474.975 216.304C475.242 216.208 475.455 216.064 475.615 215.872C475.786 215.669 475.871 215.408 475.871 215.088C475.871 214.8 475.775 214.571 475.583 214.4C475.391 214.219 475.108 214.064 474.735 213.936C474.372 213.808 473.935 213.669 473.423 213.52C473.06 213.403 472.703 213.269 472.351 213.12C472.01 212.971 471.7 212.784 471.423 212.56C471.146 212.325 470.922 212.043 470.751 211.712C470.591 211.371 470.511 210.96 470.511 210.48C470.511 209.989 470.602 209.557 470.783 209.184C470.975 208.8 471.242 208.48 471.583 208.224C471.924 207.957 472.324 207.755 472.783 207.616C473.252 207.477 473.77 207.408 474.335 207.408C475.178 207.408 475.903 207.547 476.511 207.824C477.119 208.091 477.604 208.475 477.967 208.976L476.591 210.272C476.335 209.963 476.02 209.701 475.647 209.488C475.284 209.275 474.842 209.168 474.319 209.168C474.042 209.168 473.775 209.211 473.519 209.296C473.274 209.381 473.071 209.515 472.911 209.696C472.762 209.877 472.687 210.117 472.687 210.416C472.687 210.715 472.783 210.949 472.975 211.12C473.167 211.291 473.444 211.44 473.807 211.568C474.18 211.696 474.618 211.84 475.119 212C475.492 212.117 475.85 212.251 476.191 212.4C476.543 212.549 476.858 212.741 477.135 212.976C477.412 213.2 477.631 213.483 477.791 213.824C477.962 214.155 478.047 214.56 478.047 215.04C478.047 215.552 477.946 216.005 477.743 216.4C477.551 216.784 477.274 217.115 476.911 217.392C476.559 217.659 476.138 217.861 475.647 218C475.156 218.128 474.618 218.192 474.031 218.192ZM479.72 218V206.4H481.736V218H479.72ZM487.301 218.192C486.426 218.192 485.69 218.005 485.093 217.632C484.506 217.248 484.063 216.741 483.765 216.112C483.466 215.483 483.317 214.795 483.317 214.048C483.317 213.483 483.402 212.949 483.573 212.448C483.743 211.947 483.994 211.509 484.325 211.136C484.655 210.752 485.066 210.453 485.557 210.24C486.058 210.016 486.639 209.904 487.301 209.904C488.186 209.904 488.917 210.096 489.493 210.48C490.079 210.853 490.517 211.355 490.805 211.984C491.103 212.603 491.253 213.291 491.253 214.048C491.253 214.613 491.167 215.147 490.997 215.648C490.837 216.149 490.591 216.592 490.261 216.976C489.93 217.349 489.519 217.648 489.029 217.872C488.538 218.085 487.962 218.192 487.301 218.192ZM485.381 214.048C485.381 214.56 485.455 215.008 485.605 215.392C485.765 215.765 485.983 216.053 486.261 216.256C486.549 216.459 486.895 216.56 487.301 216.56C487.706 216.56 488.047 216.459 488.325 216.256C488.602 216.053 488.815 215.765 488.965 215.392C489.125 215.008 489.205 214.56 489.205 214.048C489.205 213.525 489.125 213.077 488.965 212.704C488.815 212.331 488.602 212.043 488.325 211.84C488.047 211.637 487.706 211.536 487.301 211.536C486.895 211.536 486.549 211.637 486.261 211.84C485.983 212.043 485.765 212.331 485.605 212.704C485.455 213.077 485.381 213.525 485.381 214.048ZM495.854 218.176C495.278 218.176 494.803 218.075 494.43 217.872C494.056 217.659 493.779 217.344 493.598 216.928C493.427 216.501 493.342 215.973 493.342 215.344V211.712H492.094V210.096H493.342V207.952H495.342V210.096H497.646V211.712H495.342V215.328C495.342 215.744 495.416 216.043 495.566 216.224C495.726 216.395 495.95 216.48 496.238 216.48C496.44 216.48 496.627 216.443 496.798 216.368C496.979 216.283 497.134 216.181 497.262 216.064L497.982 217.44C497.726 217.696 497.422 217.883 497.07 218C496.718 218.117 496.312 218.176 495.854 218.176Z" fill="black" fill-opacity="0.76"/>
<path d="M412.516 250V240.752H409.556V239.6H416.836V240.752H413.876V250H412.516ZM418.579 250V238.4H419.859V243.216H419.955C420.136 242.853 420.397 242.544 420.739 242.288C421.091 242.032 421.528 241.904 422.051 241.904C422.957 241.904 423.672 242.144 424.195 242.624C424.728 243.093 424.995 243.867 424.995 244.944V250H423.715V245.184C423.715 244.373 423.549 243.803 423.219 243.472C422.899 243.131 422.424 242.96 421.795 242.96C421.197 242.96 420.723 243.168 420.371 243.584C420.029 244 419.859 244.608 419.859 245.408V250H418.579ZM427.485 250V242.096H428.765V250H427.485ZM428.125 240.816C427.858 240.816 427.65 240.736 427.501 240.576C427.352 240.416 427.277 240.224 427.277 240C427.277 239.787 427.352 239.6 427.501 239.44C427.65 239.269 427.858 239.184 428.125 239.184C428.381 239.184 428.584 239.269 428.733 239.44C428.893 239.6 428.973 239.787 428.973 240C428.973 240.224 428.893 240.416 428.733 240.576C428.584 240.736 428.381 240.816 428.125 240.816ZM433.629 250.192C432.946 250.192 432.36 250.075 431.869 249.84C431.378 249.605 430.994 249.301 430.717 248.928L431.565 248.128C431.81 248.416 432.093 248.651 432.413 248.832C432.744 249.013 433.154 249.104 433.645 249.104C434.082 249.104 434.466 249.013 434.797 248.832C435.128 248.64 435.293 248.347 435.293 247.952C435.293 247.643 435.197 247.403 435.005 247.232C434.824 247.051 434.584 246.907 434.285 246.8C433.986 246.683 433.666 246.576 433.325 246.48C432.93 246.363 432.557 246.219 432.205 246.048C431.864 245.867 431.581 245.632 431.357 245.344C431.144 245.045 431.037 244.667 431.037 244.208C431.037 243.707 431.154 243.285 431.389 242.944C431.634 242.603 431.96 242.347 432.365 242.176C432.781 241.995 433.245 241.904 433.757 241.904C434.322 241.904 434.85 242.011 435.341 242.224C435.832 242.427 436.226 242.747 436.525 243.184L435.693 243.952C435.458 243.675 435.181 243.445 434.861 243.264C434.552 243.083 434.184 242.992 433.757 242.992C433.394 242.992 433.058 243.083 432.749 243.264C432.44 243.435 432.285 243.712 432.285 244.096C432.285 244.405 432.376 244.651 432.557 244.832C432.749 245.003 432.994 245.141 433.293 245.248C433.592 245.355 433.912 245.461 434.253 245.568C434.648 245.685 435.016 245.835 435.357 246.016C435.709 246.187 435.992 246.416 436.205 246.704C436.429 246.992 436.541 247.371 436.541 247.84C436.541 248.384 436.408 248.832 436.141 249.184C435.874 249.525 435.517 249.781 435.069 249.952C434.632 250.112 434.152 250.192 433.629 250.192ZM442.594 250V242.096H443.874V250H442.594ZM443.234 240.816C442.968 240.816 442.76 240.736 442.61 240.576C442.461 240.416 442.386 240.224 442.386 240C442.386 239.787 442.461 239.6 442.61 239.44C442.76 239.269 442.968 239.184 443.234 239.184C443.49 239.184 443.693 239.269 443.842 239.44C444.002 239.6 444.082 239.787 444.082 240C444.082 240.224 444.002 240.416 443.842 240.576C443.693 240.736 443.49 240.816 443.234 240.816ZM448.738 250.192C448.056 250.192 447.469 250.075 446.978 249.84C446.488 249.605 446.104 249.301 445.826 248.928L446.674 248.128C446.92 248.416 447.202 248.651 447.522 248.832C447.853 249.013 448.264 249.104 448.754 249.104C449.192 249.104 449.576 249.013 449.906 248.832C450.237 248.64 450.402 248.347 450.402 247.952C450.402 247.643 450.306 247.403 450.114 247.232C449.933 247.051 449.693 246.907 449.394 246.8C449.096 246.683 448.776 246.576 448.434 246.48C448.04 246.363 447.666 246.219 447.314 246.048C446.973 245.867 446.69 245.632 446.466 245.344C446.253 245.045 446.146 244.667 446.146 244.208C446.146 243.707 446.264 243.285 446.498 242.944C446.744 242.603 447.069 242.347 447.474 242.176C447.89 241.995 448.354 241.904 448.866 241.904C449.432 241.904 449.96 242.011 450.45 242.224C450.941 242.427 451.336 242.747 451.634 243.184L450.802 243.952C450.568 243.675 450.29 243.445 449.97 243.264C449.661 243.083 449.293 242.992 448.866 242.992C448.504 242.992 448.168 243.083 447.858 243.264C447.549 243.435 447.394 243.712 447.394 244.096C447.394 244.405 447.485 244.651 447.666 244.832C447.858 245.003 448.104 245.141 448.402 245.248C448.701 245.355 449.021 245.461 449.362 245.568C449.757 245.685 450.125 245.835 450.466 246.016C450.818 246.187 451.101 246.416 451.314 246.704C451.538 246.992 451.65 247.371 451.65 247.84C451.65 248.384 451.517 248.832 451.25 249.184C450.984 249.525 450.626 249.781 450.178 249.952C449.741 250.112 449.261 250.192 448.738 250.192ZM459.448 250.192C458.968 250.192 458.536 250.091 458.152 249.888C457.778 249.685 457.485 249.403 457.272 249.04C457.058 248.677 456.952 248.261 456.952 247.792C456.952 247.333 457.058 246.939 457.272 246.608C457.496 246.267 457.821 245.995 458.248 245.792C458.674 245.589 459.186 245.472 459.784 245.44L461.864 245.312V244.752C461.864 244.347 461.794 244.021 461.656 243.776C461.528 243.52 461.336 243.333 461.08 243.216C460.834 243.088 460.53 243.024 460.168 243.024C459.709 243.024 459.314 243.109 458.984 243.28C458.653 243.451 458.397 243.637 458.216 243.84L457.448 243.072C457.725 242.731 458.104 242.453 458.584 242.24C459.064 242.016 459.602 241.904 460.2 241.904C460.925 241.904 461.501 242.027 461.928 242.272C462.354 242.517 462.658 242.848 462.84 243.264C463.032 243.669 463.128 244.123 463.128 244.624V250H461.928V248.656H461.832C461.629 249.125 461.33 249.499 460.936 249.776C460.541 250.053 460.045 250.192 459.448 250.192ZM459.64 249.104C460.301 249.104 460.834 248.912 461.24 248.528C461.656 248.133 461.864 247.611 461.864 246.96V246.272L459.848 246.416C459.325 246.459 458.925 246.592 458.648 246.816C458.381 247.04 458.248 247.355 458.248 247.76C458.248 248.165 458.376 248.491 458.632 248.736C458.898 248.981 459.234 249.104 459.64 249.104ZM469.548 252.96V242.096H470.764V243.712H470.86C471.041 243.168 471.382 242.731 471.884 242.4C472.385 242.069 472.961 241.904 473.612 241.904C474.316 241.904 474.929 242.085 475.452 242.448C475.974 242.8 476.38 243.291 476.668 243.92C476.966 244.549 477.116 245.264 477.116 246.064C477.116 246.864 476.966 247.573 476.668 248.192C476.38 248.811 475.974 249.301 475.452 249.664C474.929 250.016 474.316 250.192 473.612 250.192C472.961 250.192 472.401 250.037 471.932 249.728C471.462 249.419 471.126 249.024 470.924 248.544H470.828V252.96H469.548ZM473.292 249.04C473.761 249.04 474.182 248.933 474.556 248.72C474.94 248.496 475.244 248.16 475.468 247.712C475.692 247.264 475.804 246.709 475.804 246.048C475.804 245.376 475.692 244.821 475.468 244.384C475.244 243.936 474.94 243.605 474.556 243.392C474.182 243.168 473.761 243.056 473.292 243.056C472.844 243.056 472.433 243.168 472.06 243.392C471.686 243.605 471.388 243.936 471.164 244.384C470.94 244.821 470.828 245.376 470.828 246.048C470.828 246.709 470.94 247.264 471.164 247.712C471.388 248.16 471.686 248.496 472.06 248.72C472.433 248.933 472.844 249.04 473.292 249.04ZM479.173 250V238.4H480.453V250H479.173ZM484.917 250.192C484.437 250.192 484.005 250.091 483.621 249.888C483.247 249.685 482.954 249.403 482.741 249.04C482.527 248.677 482.421 248.261 482.421 247.792C482.421 247.333 482.527 246.939 482.741 246.608C482.965 246.267 483.29 245.995 483.717 245.792C484.143 245.589 484.655 245.472 485.253 245.44L487.333 245.312V244.752C487.333 244.347 487.263 244.021 487.125 243.776C486.997 243.52 486.805 243.333 486.549 243.216C486.303 243.088 485.999 243.024 485.637 243.024C485.178 243.024 484.783 243.109 484.453 243.28C484.122 243.451 483.866 243.637 483.685 243.84L482.917 243.072C483.194 242.731 483.573 242.453 484.053 242.24C484.533 242.016 485.071 241.904 485.669 241.904C486.394 241.904 486.97 242.027 487.397 242.272C487.823 242.517 488.127 242.848 488.309 243.264C488.501 243.669 488.597 244.123 488.597 244.624V250H487.397V248.656H487.301C487.098 249.125 486.799 249.499 486.405 249.776C486.01 250.053 485.514 250.192 484.917 250.192ZM485.109 249.104C485.77 249.104 486.303 248.912 486.709 248.528C487.125 248.133 487.333 247.611 487.333 246.96V246.272L485.317 246.416C484.794 246.459 484.394 246.592 484.117 246.816C483.85 247.04 483.717 247.355 483.717 247.76C483.717 248.165 483.845 248.491 484.101 248.736C484.367 248.981 484.703 249.104 485.109 249.104ZM494.181 250.192C493.327 250.192 492.629 249.995 492.085 249.6C491.541 249.205 491.141 248.693 490.885 248.064C490.639 247.424 490.517 246.752 490.517 246.048C490.517 245.333 490.639 244.661 490.885 244.032C491.13 243.403 491.519 242.891 492.053 242.496C492.597 242.101 493.295 241.904 494.149 241.904C494.81 241.904 495.354 242.016 495.781 242.24C496.218 242.464 496.586 242.763 496.885 243.136L496.085 243.888C495.829 243.611 495.557 243.397 495.269 243.248C494.991 243.088 494.629 243.008 494.181 243.008C493.722 243.008 493.311 243.131 492.949 243.376C492.597 243.621 492.319 243.973 492.117 244.432C491.925 244.88 491.829 245.419 491.829 246.048C491.829 246.987 492.053 247.728 492.501 248.272C492.949 248.816 493.519 249.088 494.213 249.088C494.639 249.088 495.007 249.013 495.317 248.864C495.626 248.704 495.914 248.475 496.181 248.176L496.949 248.944C496.65 249.317 496.271 249.621 495.813 249.856C495.365 250.08 494.821 250.192 494.181 250.192ZM501.745 250.192C500.988 250.192 500.326 250.027 499.761 249.696C499.206 249.365 498.774 248.891 498.465 248.272C498.156 247.643 498.001 246.901 498.001 246.048C498.001 245.376 498.086 244.784 498.257 244.272C498.438 243.749 498.689 243.317 499.009 242.976C499.34 242.624 499.724 242.357 500.161 242.176C500.609 241.995 501.1 241.904 501.633 241.904C502.166 241.904 502.652 241.989 503.089 242.16C503.537 242.331 503.921 242.587 504.241 242.928C504.572 243.259 504.828 243.68 505.009 244.192C505.19 244.693 505.281 245.28 505.281 245.952C505.281 246.037 505.276 246.123 505.265 246.208C505.265 246.293 505.26 246.363 505.249 246.416H499.281C499.292 246.907 499.409 247.355 499.633 247.76C499.857 248.165 500.156 248.491 500.529 248.736C500.913 248.971 501.34 249.088 501.809 249.088C502.374 249.088 502.844 248.976 503.217 248.752C503.59 248.528 503.9 248.256 504.145 247.936L504.913 248.72C504.582 249.168 504.161 249.525 503.649 249.792C503.137 250.059 502.502 250.192 501.745 250.192ZM501.633 242.96C501.132 242.96 500.71 243.077 500.369 243.312C500.028 243.547 499.766 243.845 499.585 244.208C499.414 244.571 499.324 244.949 499.313 245.344H503.937C503.926 244.949 503.83 244.571 503.649 244.208C503.478 243.845 503.222 243.547 502.881 243.312C502.55 243.077 502.134 242.96 501.633 242.96ZM507.344 250V238.4H508.624V243.216H508.72C508.902 242.853 509.163 242.544 509.504 242.288C509.856 242.032 510.294 241.904 510.816 241.904C511.723 241.904 512.438 242.144 512.96 242.624C513.494 243.093 513.76 243.867 513.76 244.944V250H512.48V245.184C512.48 244.373 512.315 243.803 511.984 243.472C511.664 243.131 511.19 242.96 510.56 242.96C509.963 242.96 509.488 243.168 509.136 243.584C508.795 244 508.624 244.608 508.624 245.408V250H507.344ZM519.371 250.192C518.528 250.192 517.824 250.005 517.259 249.632C516.704 249.259 516.288 248.757 516.011 248.128C515.733 247.499 515.595 246.805 515.595 246.048C515.595 245.472 515.669 244.933 515.819 244.432C515.979 243.931 516.213 243.493 516.523 243.12C516.843 242.736 517.237 242.437 517.707 242.224C518.187 242.011 518.741 241.904 519.371 241.904C520.213 241.904 520.907 242.091 521.451 242.464C522.005 242.837 522.416 243.339 522.683 243.968C522.96 244.587 523.099 245.28 523.099 246.048C523.099 246.624 523.019 247.163 522.859 247.664C522.709 248.165 522.48 248.608 522.171 248.992C521.861 249.365 521.472 249.659 521.003 249.872C520.544 250.085 520 250.192 519.371 250.192ZM516.907 246.048C516.907 246.656 516.997 247.195 517.179 247.664C517.36 248.123 517.632 248.485 517.995 248.752C518.357 249.008 518.816 249.136 519.371 249.136C519.915 249.136 520.363 249.008 520.715 248.752C521.077 248.485 521.344 248.123 521.515 247.664C521.696 247.195 521.787 246.656 521.787 246.048C521.787 245.44 521.696 244.907 521.515 244.448C521.344 243.979 521.077 243.616 520.715 243.36C520.363 243.093 519.915 242.96 519.371 242.96C518.816 242.96 518.357 243.093 517.995 243.36C517.632 243.616 517.36 243.979 517.179 244.448C516.997 244.907 516.907 245.44 516.907 246.048ZM525.157 250V238.4H526.437V250H525.157ZM532.005 250.192C531.301 250.192 530.688 250.011 530.165 249.648C529.642 249.285 529.232 248.795 528.933 248.176C528.645 247.547 528.501 246.832 528.501 246.032C528.501 245.232 528.645 244.523 528.933 243.904C529.232 243.275 529.642 242.784 530.165 242.432C530.688 242.08 531.301 241.904 532.005 241.904C532.656 241.904 533.216 242.059 533.685 242.368C534.154 242.677 534.49 243.072 534.693 243.552H534.789V238.4H536.069V250H534.853V248.384H534.757C534.576 248.928 534.234 249.365 533.733 249.696C533.232 250.027 532.656 250.192 532.005 250.192ZM532.325 249.04C532.784 249.04 533.194 248.933 533.557 248.72C533.93 248.496 534.229 248.16 534.453 247.712C534.677 247.264 534.789 246.709 534.789 246.048C534.789 245.376 534.677 244.821 534.453 244.384C534.229 243.936 533.93 243.605 533.557 243.392C533.194 243.168 532.784 243.056 532.325 243.056C531.856 243.056 531.429 243.168 531.045 243.392C530.672 243.605 530.373 243.936 530.149 244.384C529.925 244.821 529.813 245.376 529.813 246.048C529.813 246.709 529.925 247.264 530.149 247.712C530.373 248.16 530.672 248.496 531.045 248.72C531.429 248.933 531.856 249.04 532.325 249.04ZM541.87 250.192C541.113 250.192 540.451 250.027 539.886 249.696C539.331 249.365 538.899 248.891 538.59 248.272C538.281 247.643 538.126 246.901 538.126 246.048C538.126 245.376 538.211 244.784 538.382 244.272C538.563 243.749 538.814 243.317 539.134 242.976C539.465 242.624 539.849 242.357 540.286 242.176C540.734 241.995 541.225 241.904 541.758 241.904C542.291 241.904 542.777 241.989 543.214 242.16C543.662 242.331 544.046 242.587 544.366 242.928C544.697 243.259 544.953 243.68 545.134 244.192C545.315 244.693 545.406 245.28 545.406 245.952C545.406 246.037 545.401 246.123 545.39 246.208C545.39 246.293 545.385 246.363 545.374 246.416H539.406C539.417 246.907 539.534 247.355 539.758 247.76C539.982 248.165 540.281 248.491 540.654 248.736C541.038 248.971 541.465 249.088 541.934 249.088C542.499 249.088 542.969 248.976 543.342 248.752C543.715 248.528 544.025 248.256 544.27 247.936L545.038 248.72C544.707 249.168 544.286 249.525 543.774 249.792C543.262 250.059 542.627 250.192 541.87 250.192ZM541.758 242.96C541.257 242.96 540.835 243.077 540.494 243.312C540.153 243.547 539.891 243.845 539.71 244.208C539.539 244.571 539.449 244.949 539.438 245.344H544.062C544.051 244.949 543.955 244.571 543.774 244.208C543.603 243.845 543.347 243.547 543.006 243.312C542.675 243.077 542.259 242.96 541.758 242.96ZM547.469 250V242.096H548.685V243.376H548.781C548.952 242.96 549.197 242.613 549.517 242.336C549.848 242.048 550.248 241.904 550.717 241.904C550.909 241.904 551.096 241.925 551.277 241.968C551.469 242 551.64 242.059 551.789 242.144L551.357 243.296C551.219 243.221 551.069 243.173 550.909 243.152C550.76 243.12 550.605 243.104 550.445 243.104C549.923 243.104 549.507 243.317 549.197 243.744C548.899 244.16 548.749 244.693 548.749 245.344V250H547.469ZM552.984 248.304C553.283 248.304 553.518 248.411 553.688 248.624C553.859 248.837 553.944 249.093 553.944 249.392C553.944 249.723 553.875 250.043 553.736 250.352C553.598 250.672 553.4 250.976 553.144 251.264C552.888 251.563 552.584 251.845 552.232 252.112L551.736 251.584C551.95 251.381 552.142 251.157 552.312 250.912C552.483 250.667 552.616 250.395 552.712 250.096C552.499 250.043 552.328 249.936 552.2 249.776C552.083 249.605 552.024 249.419 552.024 249.216C552.024 249.045 552.062 248.896 552.136 248.768C552.222 248.629 552.334 248.517 552.472 248.432C552.622 248.347 552.792 248.304 552.984 248.304ZM398.805 274V266.096H400.021V267.376H400.117C400.288 266.96 400.533 266.613 400.853 266.336C401.184 266.048 401.584 265.904 402.053 265.904C402.245 265.904 402.432 265.925 402.613 265.968C402.805 266 402.976 266.059 403.125 266.144L402.693 267.296C402.555 267.221 402.405 267.173 402.245 267.152C402.096 267.12 401.941 267.104 401.781 267.104C401.259 267.104 400.843 267.317 400.533 267.744C400.235 268.16 400.085 268.693 400.085 269.344V274H398.805ZM407.471 274.192C406.714 274.192 406.053 274.027 405.487 273.696C404.933 273.365 404.501 272.891 404.191 272.272C403.882 271.643 403.727 270.901 403.727 270.048C403.727 269.376 403.813 268.784 403.983 268.272C404.165 267.749 404.415 267.317 404.735 266.976C405.066 266.624 405.45 266.357 405.887 266.176C406.335 265.995 406.826 265.904 407.359 265.904C407.893 265.904 408.378 265.989 408.815 266.16C409.263 266.331 409.647 266.587 409.967 266.928C410.298 267.259 410.554 267.68 410.735 268.192C410.917 268.693 411.007 269.28 411.007 269.952C411.007 270.037 411.002 270.123 410.991 270.208C410.991 270.293 410.986 270.363 410.975 270.416H405.007C405.018 270.907 405.135 271.355 405.359 271.76C405.583 272.165 405.882 272.491 406.255 272.736C406.639 272.971 407.066 273.088 407.535 273.088C408.101 273.088 408.57 272.976 408.943 272.752C409.317 272.528 409.626 272.256 409.871 271.936L410.639 272.72C410.309 273.168 409.887 273.525 409.375 273.792C408.863 274.059 408.229 274.192 407.471 274.192ZM407.359 266.96C406.858 266.96 406.437 267.077 406.095 267.312C405.754 267.547 405.493 267.845 405.311 268.208C405.141 268.571 405.05 268.949 405.039 269.344H409.663C409.653 268.949 409.557 268.571 409.375 268.208C409.205 267.845 408.949 267.547 408.607 267.312C408.277 267.077 407.861 266.96 407.359 266.96ZM413.071 276.96V266.096H414.287V267.712H414.383C414.564 267.168 414.906 266.731 415.407 266.4C415.908 266.069 416.484 265.904 417.135 265.904C417.839 265.904 418.452 266.085 418.975 266.448C419.498 266.8 419.903 267.291 420.191 267.92C420.49 268.549 420.639 269.264 420.639 270.064C420.639 270.864 420.49 271.573 420.191 272.192C419.903 272.811 419.498 273.301 418.975 273.664C418.452 274.016 417.839 274.192 417.135 274.192C416.484 274.192 415.924 274.037 415.455 273.728C414.986 273.419 414.65 273.024 414.447 272.544H414.351V276.96H413.071ZM416.815 273.04C417.284 273.04 417.706 272.933 418.079 272.72C418.463 272.496 418.767 272.16 418.991 271.712C419.215 271.264 419.327 270.709 419.327 270.048C419.327 269.376 419.215 268.821 418.991 268.384C418.767 267.936 418.463 267.605 418.079 267.392C417.706 267.168 417.284 267.056 416.815 267.056C416.367 267.056 415.956 267.168 415.583 267.392C415.21 267.605 414.911 267.936 414.687 268.384C414.463 268.821 414.351 269.376 414.351 270.048C414.351 270.709 414.463 271.264 414.687 271.712C414.911 272.16 415.21 272.496 415.583 272.72C415.956 272.933 416.367 273.04 416.815 273.04ZM422.696 274V262.4H423.976V274H422.696ZM428.44 274.192C427.96 274.192 427.528 274.091 427.144 273.888C426.771 273.685 426.477 273.403 426.264 273.04C426.051 272.677 425.944 272.261 425.944 271.792C425.944 271.333 426.051 270.939 426.264 270.608C426.488 270.267 426.813 269.995 427.24 269.792C427.667 269.589 428.179 269.472 428.776 269.44L430.856 269.312V268.752C430.856 268.347 430.787 268.021 430.648 267.776C430.52 267.52 430.328 267.333 430.072 267.216C429.827 267.088 429.523 267.024 429.16 267.024C428.701 267.024 428.307 267.109 427.976 267.28C427.645 267.451 427.389 267.637 427.208 267.84L426.44 267.072C426.717 266.731 427.096 266.453 427.576 266.24C428.056 266.016 428.595 265.904 429.192 265.904C429.917 265.904 430.493 266.027 430.92 266.272C431.347 266.517 431.651 266.848 431.832 267.264C432.024 267.669 432.12 268.123 432.12 268.624V274H430.92V272.656H430.824C430.621 273.125 430.323 273.499 429.928 273.776C429.533 274.053 429.037 274.192 428.44 274.192ZM428.632 273.104C429.293 273.104 429.827 272.912 430.232 272.528C430.648 272.133 430.856 271.611 430.856 270.96V270.272L428.84 270.416C428.317 270.459 427.917 270.592 427.64 270.816C427.373 271.04 427.24 271.355 427.24 271.76C427.24 272.165 427.368 272.491 427.624 272.736C427.891 272.981 428.227 273.104 428.632 273.104ZM437.704 274.192C436.851 274.192 436.152 273.995 435.608 273.6C435.064 273.205 434.664 272.693 434.408 272.064C434.163 271.424 434.04 270.752 434.04 270.048C434.04 269.333 434.163 268.661 434.408 268.032C434.653 267.403 435.043 266.891 435.576 266.496C436.12 266.101 436.819 265.904 437.672 265.904C438.333 265.904 438.877 266.016 439.304 266.24C439.741 266.464 440.109 266.763 440.408 267.136L439.608 267.888C439.352 267.611 439.08 267.397 438.792 267.248C438.515 267.088 438.152 267.008 437.704 267.008C437.245 267.008 436.835 267.131 436.472 267.376C436.12 267.621 435.843 267.973 435.64 268.432C435.448 268.88 435.352 269.419 435.352 270.048C435.352 270.987 435.576 271.728 436.024 272.272C436.472 272.816 437.043 273.088 437.736 273.088C438.163 273.088 438.531 273.013 438.84 272.864C439.149 272.704 439.437 272.475 439.704 272.176L440.472 272.944C440.173 273.317 439.795 273.621 439.336 273.856C438.888 274.08 438.344 274.192 437.704 274.192ZM445.268 274.192C444.511 274.192 443.85 274.027 443.284 273.696C442.73 273.365 442.298 272.891 441.988 272.272C441.679 271.643 441.524 270.901 441.524 270.048C441.524 269.376 441.61 268.784 441.78 268.272C441.962 267.749 442.212 267.317 442.532 266.976C442.863 266.624 443.247 266.357 443.684 266.176C444.132 265.995 444.623 265.904 445.156 265.904C445.69 265.904 446.175 265.989 446.612 266.16C447.06 266.331 447.444 266.587 447.764 266.928C448.095 267.259 448.351 267.68 448.532 268.192C448.714 268.693 448.804 269.28 448.804 269.952C448.804 270.037 448.799 270.123 448.788 270.208C448.788 270.293 448.783 270.363 448.772 270.416H442.804C442.815 270.907 442.932 271.355 443.156 271.76C443.38 272.165 443.679 272.491 444.052 272.736C444.436 272.971 444.863 273.088 445.332 273.088C445.898 273.088 446.367 272.976 446.74 272.752C447.114 272.528 447.423 272.256 447.668 271.936L448.436 272.72C448.106 273.168 447.684 273.525 447.172 273.792C446.66 274.059 446.026 274.192 445.268 274.192ZM445.156 266.96C444.655 266.96 444.234 267.077 443.892 267.312C443.551 267.547 443.29 267.845 443.108 268.208C442.938 268.571 442.847 268.949 442.836 269.344H447.46C447.45 268.949 447.354 268.571 447.172 268.208C447.002 267.845 446.746 267.547 446.404 267.312C446.074 267.077 445.658 266.96 445.156 266.96ZM454.712 274V266.096H455.928V267.344H456.024C456.216 266.928 456.482 266.587 456.824 266.32C457.176 266.043 457.613 265.904 458.136 265.904C458.765 265.904 459.298 266.021 459.736 266.256C460.173 266.48 460.493 266.821 460.696 267.28C460.856 266.981 461.048 266.731 461.272 266.528C461.496 266.325 461.762 266.171 462.072 266.064C462.392 265.957 462.749 265.904 463.144 265.904C463.73 265.904 464.237 266.011 464.664 266.224C465.09 266.427 465.421 266.752 465.656 267.2C465.89 267.648 466.008 268.229 466.008 268.944V274H464.728V269.184C464.728 268.64 464.653 268.208 464.504 267.888C464.365 267.557 464.157 267.323 463.88 267.184C463.613 267.035 463.277 266.96 462.872 266.96C462.285 266.96 461.826 267.168 461.496 267.584C461.165 268 461 268.608 461 269.408V274H459.72V269.184C459.72 268.64 459.65 268.208 459.512 267.888C459.373 267.557 459.165 267.323 458.888 267.184C458.61 267.035 458.269 266.96 457.864 266.96C457.288 266.96 456.829 267.168 456.488 267.584C456.157 268 455.992 268.608 455.992 269.408V274H454.712ZM471.675 274.192C470.917 274.192 470.256 274.027 469.691 273.696C469.136 273.365 468.704 272.891 468.395 272.272C468.085 271.643 467.931 270.901 467.931 270.048C467.931 269.376 468.016 268.784 468.187 268.272C468.368 267.749 468.619 267.317 468.939 266.976C469.269 266.624 469.653 266.357 470.091 266.176C470.539 265.995 471.029 265.904 471.563 265.904C472.096 265.904 472.581 265.989 473.019 266.16C473.467 266.331 473.851 266.587 474.171 266.928C474.501 267.259 474.757 267.68 474.939 268.192C475.12 268.693 475.211 269.28 475.211 269.952C475.211 270.037 475.205 270.123 475.195 270.208C475.195 270.293 475.189 270.363 475.179 270.416H469.211C469.221 270.907 469.339 271.355 469.563 271.76C469.787 272.165 470.085 272.491 470.459 272.736C470.843 272.971 471.269 273.088 471.739 273.088C472.304 273.088 472.773 272.976 473.147 272.752C473.52 272.528 473.829 272.256 474.075 271.936L474.843 272.72C474.512 273.168 474.091 273.525 473.579 273.792C473.067 274.059 472.432 274.192 471.675 274.192ZM471.563 266.96C471.061 266.96 470.64 267.077 470.299 267.312C469.957 267.547 469.696 267.845 469.515 268.208C469.344 268.571 469.253 268.949 469.243 269.344H473.867C473.856 268.949 473.76 268.571 473.579 268.208C473.408 267.845 473.152 267.547 472.811 267.312C472.48 267.077 472.064 266.96 471.563 266.96ZM482.878 274L480.19 266.096H481.566L483.566 272.672H483.662L485.518 266.096H487.038L488.894 272.672H488.99L490.99 266.096H492.27L489.582 274H488.142L486.286 267.456H486.19L484.35 274H482.878ZM494.055 274V266.096H495.335V274H494.055ZM494.695 264.816C494.429 264.816 494.221 264.736 494.071 264.576C493.922 264.416 493.847 264.224 493.847 264C493.847 263.787 493.922 263.6 494.071 263.44C494.221 263.269 494.429 263.184 494.695 263.184C494.951 263.184 495.154 263.269 495.303 263.44C495.463 263.6 495.543 263.787 495.543 264C495.543 264.224 495.463 264.416 495.303 264.576C495.154 264.736 494.951 264.816 494.695 264.816ZM500.487 274.192C500.018 274.192 499.629 274.096 499.319 273.904C499.01 273.712 498.781 273.435 498.631 273.072C498.493 272.709 498.423 272.283 498.423 271.792V267.136H497.015V266.096H498.423V263.952H499.687V266.096H501.975V267.136H499.687V271.68C499.687 272.192 499.783 272.549 499.975 272.752C500.178 272.955 500.434 273.056 500.743 273.056C500.957 273.056 501.149 273.019 501.319 272.944C501.49 272.859 501.65 272.747 501.799 272.608L502.375 273.504C502.13 273.739 501.847 273.909 501.527 274.016C501.218 274.133 500.871 274.192 500.487 274.192ZM504.118 274V262.4H505.398V267.216H505.494C505.675 266.853 505.936 266.544 506.278 266.288C506.63 266.032 507.067 265.904 507.59 265.904C508.496 265.904 509.211 266.144 509.734 266.624C510.267 267.093 510.534 267.867 510.534 268.944V274H509.254V269.184C509.254 268.373 509.088 267.803 508.758 267.472C508.438 267.131 507.963 266.96 507.334 266.96C506.736 266.96 506.262 267.168 505.91 267.584C505.568 268 505.398 268.608 505.398 269.408V274H504.118ZM519.876 274.192C519.022 274.192 518.324 273.995 517.78 273.6C517.236 273.205 516.836 272.693 516.58 272.064C516.334 271.424 516.212 270.752 516.212 270.048C516.212 269.333 516.334 268.661 516.58 268.032C516.825 267.403 517.214 266.891 517.748 266.496C518.292 266.101 518.99 265.904 519.844 265.904C520.505 265.904 521.049 266.016 521.476 266.24C521.913 266.464 522.281 266.763 522.58 267.136L521.78 267.888C521.524 267.611 521.252 267.397 520.964 267.248C520.686 267.088 520.324 267.008 519.876 267.008C519.417 267.008 519.006 267.131 518.644 267.376C518.292 267.621 518.014 267.973 517.812 268.432C517.62 268.88 517.524 269.419 517.524 270.048C517.524 270.987 517.748 271.728 518.196 272.272C518.644 272.816 519.214 273.088 519.908 273.088C520.334 273.088 520.702 273.013 521.012 272.864C521.321 272.704 521.609 272.475 521.876 272.176L522.644 272.944C522.345 273.317 521.966 273.621 521.508 273.856C521.06 274.08 520.516 274.192 519.876 274.192ZM527.472 274.192C526.63 274.192 525.926 274.005 525.36 273.632C524.806 273.259 524.39 272.757 524.112 272.128C523.835 271.499 523.696 270.805 523.696 270.048C523.696 269.472 523.771 268.933 523.92 268.432C524.08 267.931 524.315 267.493 524.624 267.12C524.944 266.736 525.339 266.437 525.808 266.224C526.288 266.011 526.843 265.904 527.472 265.904C528.315 265.904 529.008 266.091 529.552 266.464C530.107 266.837 530.518 267.339 530.784 267.968C531.062 268.587 531.2 269.28 531.2 270.048C531.2 270.624 531.12 271.163 530.96 271.664C530.811 272.165 530.582 272.608 530.272 272.992C529.963 273.365 529.574 273.659 529.104 273.872C528.646 274.085 528.102 274.192 527.472 274.192ZM525.008 270.048C525.008 270.656 525.099 271.195 525.28 271.664C525.462 272.123 525.734 272.485 526.096 272.752C526.459 273.008 526.918 273.136 527.472 273.136C528.016 273.136 528.464 273.008 528.816 272.752C529.179 272.485 529.446 272.123 529.616 271.664C529.798 271.195 529.888 270.656 529.888 270.048C529.888 269.44 529.798 268.907 529.616 268.448C529.446 267.979 529.179 267.616 528.816 267.36C528.464 267.093 528.016 266.96 527.472 266.96C526.918 266.96 526.459 267.093 526.096 267.36C525.734 267.616 525.462 267.979 525.28 268.448C525.099 268.907 525.008 269.44 525.008 270.048ZM533.258 274V266.096H534.474V267.344H534.57C534.698 267.067 534.864 266.821 535.066 266.608C535.269 266.384 535.509 266.213 535.786 266.096C536.064 265.968 536.378 265.904 536.73 265.904C537.637 265.904 538.352 266.144 538.874 266.624C539.408 267.093 539.674 267.867 539.674 268.944V274H538.394V269.184C538.394 268.373 538.229 267.803 537.898 267.472C537.578 267.131 537.104 266.96 536.474 266.96C535.877 266.96 535.402 267.168 535.05 267.584C534.709 268 534.538 268.608 534.538 269.408V274H533.258ZM544.675 274.192C544.205 274.192 543.816 274.096 543.507 273.904C543.197 273.712 542.968 273.435 542.819 273.072C542.68 272.709 542.611 272.283 542.611 271.792V267.136H541.203V266.096H542.611V263.952H543.875V266.096H546.163V267.136H543.875V271.68C543.875 272.192 543.971 272.549 544.163 272.752C544.365 272.955 544.621 273.056 544.931 273.056C545.144 273.056 545.336 273.019 545.507 272.944C545.677 272.859 545.837 272.747 545.987 272.608L546.563 273.504C546.317 273.739 546.035 273.909 545.715 274.016C545.405 274.133 545.059 274.192 544.675 274.192ZM551.268 274.192C550.511 274.192 549.85 274.027 549.284 273.696C548.73 273.365 548.298 272.891 547.988 272.272C547.679 271.643 547.524 270.901 547.524 270.048C547.524 269.376 547.61 268.784 547.78 268.272C547.962 267.749 548.212 267.317 548.532 266.976C548.863 266.624 549.247 266.357 549.684 266.176C550.132 265.995 550.623 265.904 551.156 265.904C551.69 265.904 552.175 265.989 552.612 266.16C553.06 266.331 553.444 266.587 553.764 266.928C554.095 267.259 554.351 267.68 554.532 268.192C554.714 268.693 554.804 269.28 554.804 269.952C554.804 270.037 554.799 270.123 554.788 270.208C554.788 270.293 554.783 270.363 554.772 270.416H548.804C548.815 270.907 548.932 271.355 549.156 271.76C549.38 272.165 549.679 272.491 550.052 272.736C550.436 272.971 550.863 273.088 551.332 273.088C551.898 273.088 552.367 272.976 552.74 272.752C553.114 272.528 553.423 272.256 553.668 271.936L554.436 272.72C554.106 273.168 553.684 273.525 553.172 273.792C552.66 274.059 552.026 274.192 551.268 274.192ZM551.156 266.96C550.655 266.96 550.234 267.077 549.892 267.312C549.551 267.547 549.29 267.845 549.108 268.208C548.938 268.571 548.847 268.949 548.836 269.344H553.46C553.45 268.949 553.354 268.571 553.172 268.208C553.002 267.845 552.746 267.547 552.404 267.312C552.074 267.077 551.658 266.96 551.156 266.96ZM556.868 274V266.096H558.084V267.344H558.18C558.308 267.067 558.473 266.821 558.676 266.608C558.878 266.384 559.118 266.213 559.396 266.096C559.673 265.968 559.988 265.904 560.34 265.904C561.246 265.904 561.961 266.144 562.484 266.624C563.017 267.093 563.284 267.867 563.284 268.944V274H562.004V269.184C562.004 268.373 561.838 267.803 561.508 267.472C561.188 267.131 560.713 266.96 560.084 266.96C559.486 266.96 559.012 267.168 558.66 267.584C558.318 268 558.148 268.608 558.148 269.408V274H556.868ZM568.284 274.192C567.815 274.192 567.426 274.096 567.116 273.904C566.807 273.712 566.578 273.435 566.428 273.072C566.29 272.709 566.22 272.283 566.22 271.792V267.136H564.812V266.096H566.22V263.952H567.484V266.096H569.772V267.136H567.484V271.68C567.484 272.192 567.58 272.549 567.772 272.752C567.975 272.955 568.231 273.056 568.54 273.056C568.754 273.056 568.946 273.019 569.116 272.944C569.287 272.859 569.447 272.747 569.596 272.608L570.172 273.504C569.927 273.739 569.644 273.909 569.324 274.016C569.015 274.133 568.668 274.192 568.284 274.192Z" fill="black" fill-opacity="0.64"/>
<rect width="600" height="96" transform="translate(184 296)" fill="white"/>
<g clip-path="url(#clip1_16720_13899)">
<path d="M548 344C548 330.745 558.745 320 572 320H622C635.255 320 646 330.745 646 344C646 357.255 635.255 368 622 368H572C558.745 368 548 357.255 548 344Z" fill="white" fill-opacity="0.01"/>
<path d="M573.542 351V338H576.922V348.3H582.202V351H573.542ZM586.687 351.24C586.1 351.24 585.553 351.12 585.047 350.88C584.54 350.64 584.133 350.3 583.827 349.86C583.52 349.407 583.367 348.86 583.367 348.22C583.367 347.62 583.507 347.107 583.787 346.68C584.08 346.24 584.52 345.893 585.107 345.64C585.707 345.387 586.467 345.233 587.387 345.18L589.487 345.06V344.9C589.487 344.527 589.393 344.247 589.207 344.06C589.02 343.86 588.78 343.727 588.487 343.66C588.193 343.58 587.88 343.54 587.547 343.54C587.173 343.54 586.793 343.607 586.407 343.74C586.02 343.873 585.733 344.06 585.547 344.3L583.807 342.5C584.167 342.033 584.693 341.647 585.387 341.34C586.08 341.033 586.987 340.88 588.107 340.88C589.053 340.88 589.867 341.027 590.547 341.32C591.227 341.613 591.747 342.047 592.107 342.62C592.48 343.18 592.667 343.867 592.667 344.68V351H589.687V349.48H589.567C589.313 350 588.947 350.427 588.467 350.76C587.987 351.08 587.393 351.24 586.687 351.24ZM587.767 349.08C588.273 349.08 588.687 348.94 589.007 348.66C589.327 348.38 589.487 347.967 589.487 347.42V346.9L587.827 347.02C587.4 347.047 587.08 347.153 586.867 347.34C586.667 347.527 586.567 347.773 586.567 348.08C586.567 348.413 586.68 348.667 586.907 348.84C587.147 349 587.433 349.08 587.767 349.08ZM600.852 351.24C600.118 351.24 599.485 351.067 598.952 350.72C598.432 350.36 598.045 349.867 597.792 349.24H597.672V351H594.652V336.5H597.832V342.74H597.952C598.165 342.193 598.518 341.747 599.012 341.4C599.505 341.053 600.118 340.88 600.852 340.88C601.638 340.88 602.345 341.107 602.972 341.56C603.612 342 604.118 342.613 604.492 343.4C604.865 344.187 605.052 345.107 605.052 346.16C605.052 347.173 604.865 348.06 604.492 348.82C604.118 349.58 603.612 350.173 602.972 350.6C602.345 351.027 601.638 351.24 600.852 351.24ZM599.812 348.5C600.238 348.5 600.598 348.393 600.892 348.18C601.185 347.953 601.405 347.66 601.552 347.3C601.712 346.927 601.792 346.513 601.792 346.06C601.792 345.607 601.712 345.2 601.552 344.84C601.405 344.467 601.185 344.173 600.892 343.96C600.598 343.733 600.238 343.62 599.812 343.62C599.385 343.62 599.018 343.733 598.712 343.96C598.418 344.173 598.198 344.467 598.052 344.84C597.905 345.2 597.832 345.607 597.832 346.06C597.832 346.513 597.905 346.927 598.052 347.3C598.198 347.66 598.418 347.953 598.712 348.18C599.018 348.393 599.385 348.5 599.812 348.5ZM611.184 351.24C609.984 351.24 609.004 350.993 608.244 350.5C607.484 349.993 606.924 349.347 606.564 348.56C606.218 347.773 606.044 346.94 606.044 346.06C606.044 345.393 606.131 344.753 606.304 344.14C606.491 343.527 606.778 342.973 607.164 342.48C607.551 341.987 608.058 341.6 608.684 341.32C609.324 341.027 610.098 340.88 611.004 340.88C611.911 340.88 612.678 341.02 613.304 341.3C613.931 341.58 614.431 341.967 614.804 342.46C615.191 342.94 615.464 343.487 615.624 344.1C615.798 344.7 615.884 345.327 615.884 345.98C615.884 346.127 615.871 346.32 615.844 346.56C615.818 346.787 615.784 346.96 615.744 347.08H609.264C609.344 347.467 609.498 347.773 609.724 348C609.964 348.227 610.231 348.393 610.524 348.5C610.831 348.593 611.111 348.64 611.364 348.64C611.831 348.64 612.231 348.567 612.564 348.42C612.911 348.273 613.178 348.08 613.364 347.84L615.104 349.66C614.784 350.113 614.278 350.493 613.584 350.8C612.891 351.093 612.091 351.24 611.184 351.24ZM611.004 343.24C610.724 343.24 610.458 343.3 610.204 343.42C609.964 343.527 609.751 343.707 609.564 343.96C609.391 344.213 609.271 344.553 609.204 344.98H612.764C612.711 344.553 612.591 344.213 612.404 343.96C612.231 343.707 612.024 343.527 611.784 343.42C611.544 343.3 611.284 343.24 611.004 343.24ZM617.425 351V336.5H620.605V351H617.425Z" fill="#242E30"/>
</g>
<g clip-path="url(#clip2_16720_13899)">
<path d="M662 344C662 330.745 672.745 320 686 320H736C749.255 320 760 330.745 760 344C760 357.255 749.255 368 736 368H686C672.745 368 662 357.255 662 344Z" fill="#F36805"/>
<path d="M662 344C662 330.745 672.745 320 686 320H736C749.255 320 760 330.745 760 344C760 357.255 749.255 368 736 368H686C672.745 368 662 357.255 662 344Z" fill="white" fill-opacity="0.01"/>
<path d="M687.542 351V338H690.922V348.3H696.202V351H687.542ZM700.687 351.24C700.1 351.24 699.553 351.12 699.047 350.88C698.54 350.64 698.133 350.3 697.827 349.86C697.52 349.407 697.367 348.86 697.367 348.22C697.367 347.62 697.507 347.107 697.787 346.68C698.08 346.24 698.52 345.893 699.107 345.64C699.707 345.387 700.467 345.233 701.387 345.18L703.487 345.06V344.9C703.487 344.527 703.393 344.247 703.207 344.06C703.02 343.86 702.78 343.727 702.487 343.66C702.193 343.58 701.88 343.54 701.547 343.54C701.173 343.54 700.793 343.607 700.407 343.74C700.02 343.873 699.733 344.06 699.547 344.3L697.807 342.5C698.167 342.033 698.693 341.647 699.387 341.34C700.08 341.033 700.987 340.88 702.107 340.88C703.053 340.88 703.867 341.027 704.547 341.32C705.227 341.613 705.747 342.047 706.107 342.62C706.48 343.18 706.667 343.867 706.667 344.68V351H703.687V349.48H703.567C703.313 350 702.947 350.427 702.467 350.76C701.987 351.08 701.393 351.24 700.687 351.24ZM701.767 349.08C702.273 349.08 702.687 348.94 703.007 348.66C703.327 348.38 703.487 347.967 703.487 347.42V346.9L701.827 347.02C701.4 347.047 701.08 347.153 700.867 347.34C700.667 347.527 700.567 347.773 700.567 348.08C700.567 348.413 700.68 348.667 700.907 348.84C701.147 349 701.433 349.08 701.767 349.08ZM714.852 351.24C714.118 351.24 713.485 351.067 712.952 350.72C712.432 350.36 712.045 349.867 711.792 349.24H711.672V351H708.652V336.5H711.832V342.74H711.952C712.165 342.193 712.518 341.747 713.012 341.4C713.505 341.053 714.118 340.88 714.852 340.88C715.638 340.88 716.345 341.107 716.972 341.56C717.612 342 718.118 342.613 718.492 343.4C718.865 344.187 719.052 345.107 719.052 346.16C719.052 347.173 718.865 348.06 718.492 348.82C718.118 349.58 717.612 350.173 716.972 350.6C716.345 351.027 715.638 351.24 714.852 351.24ZM713.812 348.5C714.238 348.5 714.598 348.393 714.892 348.18C715.185 347.953 715.405 347.66 715.552 347.3C715.712 346.927 715.792 346.513 715.792 346.06C715.792 345.607 715.712 345.2 715.552 344.84C715.405 344.467 715.185 344.173 714.892 343.96C714.598 343.733 714.238 343.62 713.812 343.62C713.385 343.62 713.018 343.733 712.712 343.96C712.418 344.173 712.198 344.467 712.052 344.84C711.905 345.2 711.832 345.607 711.832 346.06C711.832 346.513 711.905 346.927 712.052 347.3C712.198 347.66 712.418 347.953 712.712 348.18C713.018 348.393 713.385 348.5 713.812 348.5ZM725.184 351.24C723.984 351.24 723.004 350.993 722.244 350.5C721.484 349.993 720.924 349.347 720.564 348.56C720.218 347.773 720.044 346.94 720.044 346.06C720.044 345.393 720.131 344.753 720.304 344.14C720.491 343.527 720.778 342.973 721.164 342.48C721.551 341.987 722.058 341.6 722.684 341.32C723.324 341.027 724.098 340.88 725.004 340.88C725.911 340.88 726.678 341.02 727.304 341.3C727.931 341.58 728.431 341.967 728.804 342.46C729.191 342.94 729.464 343.487 729.624 344.1C729.798 344.7 729.884 345.327 729.884 345.98C729.884 346.127 729.871 346.32 729.844 346.56C729.818 346.787 729.784 346.96 729.744 347.08H723.264C723.344 347.467 723.498 347.773 723.724 348C723.964 348.227 724.231 348.393 724.524 348.5C724.831 348.593 725.111 348.64 725.364 348.64C725.831 348.64 726.231 348.567 726.564 348.42C726.911 348.273 727.178 348.08 727.364 347.84L729.104 349.66C728.784 350.113 728.278 350.493 727.584 350.8C726.891 351.093 726.091 351.24 725.184 351.24ZM725.004 343.24C724.724 343.24 724.458 343.3 724.204 343.42C723.964 343.527 723.751 343.707 723.564 343.96C723.391 344.213 723.271 344.553 723.204 344.98H726.764C726.711 344.553 726.591 344.213 726.404 343.96C726.231 343.707 726.024 343.527 725.784 343.42C725.544 343.3 725.284 343.24 725.004 343.24ZM731.425 351V336.5H734.605V351H731.425Z" fill="white"/>
</g>
</g>
</g>
<defs>
<filter id="filter0_ddd_16720_13899" x="170" y="100" width="628" height="308" filterUnits="userSpaceOnUse" color-interpolation-filters="sRGB">
<feFlood flood-opacity="0" result="BackgroundImageFix"/>
<feColorMatrix in="SourceAlpha" type="matrix" values="0 0 0 0 0 0 0 0 0 0 0 0 0 0 0 0 0 0 127 0" result="hardAlpha"/>
<feOffset dy="3"/>
<feGaussianBlur stdDeviation="2"/>
<feColorMatrix type="matrix" values="0 0 0 0 0 0 0 0 0 0 0 0 0 0 0 0 0 0 0.04 0"/>
<feBlend mode="normal" in2="BackgroundImageFix" result="effect1_dropShadow_16720_13899"/>
<feColorMatrix in="SourceAlpha" type="matrix" values="0 0 0 0 0 0 0 0 0 0 0 0 0 0 0 0 0 0 127 0" result="hardAlpha"/>
<feMorphology radius="2" operator="dilate" in="SourceAlpha" result="effect2_dropShadow_16720_13899"/>
<feOffset dy="2"/>
<feGaussianBlur stdDeviation="6"/>
<feColorMatrix type="matrix" values="0 0 0 0 0 0 0 0 0 0 0 0 0 0 0 0 0 0 0.04 0"/>
<feBlend mode="normal" in2="effect1_dropShadow_16720_13899" result="effect2_dropShadow_16720_13899"/>
<feColorMatrix in="SourceAlpha" type="matrix" values="0 0 0 0 0 0 0 0 0 0 0 0 0 0 0 0 0 0 127 0" result="hardAlpha"/>
<feOffset dy="4"/>
<feGaussianBlur stdDeviation="3"/>
<feColorMatrix type="matrix" values="0 0 0 0 0 0 0 0 0 0 0 0 0 0 0 0 0 0 0.02 0"/>
<feBlend mode="normal" in2="effect2_dropShadow_16720_13899" result="effect3_dropShadow_16720_13899"/>
<feBlend mode="normal" in="SourceGraphic" in2="effect3_dropShadow_16720_13899" result="shape"/>
</filter>
<clipPath id="clip0_16720_13899">
<path d="M184 128C184 119.163 191.163 112 200 112H768C776.837 112 784 119.163 784 128V376C784 384.837 776.837 392 768 392H200C191.163 392 184 384.837 184 376V128Z" fill="white"/>
</clipPath>
<clipPath id="clip1_16720_13899">
<path d="M548 344C548 330.745 558.745 320 572 320H622C635.255 320 646 330.745 646 344C646 357.255 635.255 368 622 368H572C558.745 368 548 357.255 548 344Z" fill="white"/>
</clipPath>
<clipPath id="clip2_16720_13899">
<path d="M662 344C662 330.745 672.745 320 686 320H736C749.255 320 760 330.745 760 344C760 357.255 749.255 368 736 368H686C672.745 368 662 357.255 662 344Z" fill="white"/>
</clipPath>
</defs>
</svg>
