<svg width="388" height="276" viewBox="0 0 388 276" fill="none" xmlns="http://www.w3.org/2000/svg">
<g filter="url(#filter0_ddd_16720_13736)">
<g clip-path="url(#clip0_16720_13736)">
<path d="M14 28C14 19.1634 21.1634 12 30 12H358C366.837 12 374 19.1634 374 28V244C374 252.837 366.837 260 358 260H30C21.1634 260 14 252.837 14 244V28Z" fill="white"/>
<rect width="360" height="56" transform="translate(14 12)" fill="white"/>
<rect width="312" height="56" transform="translate(14 12)" fill="white" fill-opacity="0.01"/>
<path d="M33.82 47V37.1H30.32V34H41.32V37.1H37.82V47H33.82ZM42.4606 47V37.12H46.2206V47H42.4606ZM44.3406 36.2C43.6606 36.2 43.154 36.0067 42.8206 35.62C42.4873 35.2333 42.3206 34.7933 42.3206 34.3C42.3206 33.7933 42.4873 33.3467 42.8206 32.96C43.154 32.5733 43.6606 32.38 44.3406 32.38C45.0206 32.38 45.5273 32.5733 45.8606 32.96C46.2073 33.3467 46.3806 33.7933 46.3806 34.3C46.3806 34.7933 46.2073 35.2333 45.8606 35.62C45.5273 36.0067 45.0206 36.2 44.3406 36.2ZM52.5713 47.2C51.6913 47.2 50.9713 47.06 50.4113 46.78C49.8513 46.4867 49.4313 46.04 49.1513 45.44C48.8846 44.8267 48.7513 44.04 48.7513 43.08V40.06H47.4913V37.12H48.7513V34.44H52.4913V37.12H55.4313V40.06H52.4913V43.1C52.4913 43.4733 52.5513 43.7533 52.6713 43.94C52.8046 44.1267 53.0446 44.22 53.3913 44.22C53.6313 44.22 53.8579 44.1733 54.0713 44.08C54.2846 43.9733 54.4579 43.8467 54.5913 43.7L55.7113 46.2C55.3646 46.5333 54.9313 46.7867 54.4113 46.96C53.9046 47.12 53.2913 47.2 52.5713 47.2ZM56.777 47V32.5H60.537V47H56.777ZM66.9477 47.24C65.8143 47.24 64.8543 47.0133 64.0677 46.56C63.281 46.0933 62.6877 45.4733 62.2877 44.7C61.8877 43.9133 61.6877 43.0333 61.6877 42.06C61.6877 41.3133 61.7943 40.6267 62.0077 40C62.221 39.3733 62.5343 38.8267 62.9477 38.36C63.3743 37.88 63.9077 37.5133 64.5477 37.26C65.201 37.0067 65.9543 36.88 66.8077 36.88C67.6477 36.88 68.381 37.0067 69.0077 37.26C69.6343 37.5133 70.1543 37.8733 70.5677 38.34C70.981 38.7933 71.2877 39.3333 71.4877 39.96C71.6877 40.5733 71.7877 41.2533 71.7877 42C71.7877 42.1733 71.7677 42.3733 71.7277 42.6C71.701 42.8267 71.6677 43 71.6277 43.12H65.3077C65.3743 43.4133 65.501 43.6533 65.6877 43.84C65.8743 44.0267 66.101 44.1667 66.3677 44.26C66.6477 44.34 66.9277 44.38 67.2077 44.38C67.6077 44.38 67.961 44.32 68.2677 44.2C68.5743 44.08 68.8143 43.9267 68.9877 43.74L70.9677 45.76C70.621 46.2133 70.0877 46.5733 69.3677 46.84C68.6477 47.1067 67.841 47.24 66.9477 47.24ZM66.7677 39.46C66.5143 39.46 66.281 39.52 66.0677 39.64C65.8677 39.7467 65.701 39.9133 65.5677 40.14C65.4343 40.3533 65.3477 40.62 65.3077 40.94H68.2277C68.1877 40.6067 68.0943 40.3333 67.9477 40.12C67.8143 39.9067 67.6477 39.7467 67.4477 39.64C67.261 39.52 67.0343 39.46 66.7677 39.46Z" fill="black" fill-opacity="0.76"/>
<rect width="48" height="56" transform="translate(326 12)" fill="white" fill-opacity="0.01"/>
<path d="M326 40C326 28.9543 334.954 20 346 20C357.046 20 366 28.9543 366 40C366 51.0457 357.046 60 346 60C334.954 60 326 51.0457 326 40Z" fill="white" fill-opacity="0.01"/>
<path d="M351.801 32.8066L346 38.6079L340.199 32.8066L338.807 34.1979L344.609 39.9992L338.807 45.8005L340.199 47.1917L346 41.3904L351.801 47.1917L353.193 45.8005L347.391 39.9992L353.193 34.1979L351.801 32.8066Z" fill="black" fill-opacity="0.76"/>
<path d="M30 80C30 75.5817 33.5817 72 38 72H350C354.418 72 358 75.5817 358 80V168C358 172.418 354.418 176 350 176H38C33.5817 176 30 172.418 30 168V80Z" fill="black" fill-opacity="0.04"/>
<path d="M348 72V72.5H350C350.501 72.5 350.991 72.549 351.464 72.6426L351.561 72.1523C352.61 72.3599 353.586 72.773 354.444 73.3477L354.167 73.7627C354.985 74.3104 355.69 75.0149 356.237 75.833L356.651 75.5547C357.226 76.4131 357.639 77.3888 357.847 78.4385L357.357 78.5361C357.451 79.0092 357.5 79.4986 357.5 80V82H358V86H357.5V90H358V94H357.5V98H358V102H357.5V106H358V110H357.5V114H358V118H357.5V122H358V126H357.5V130H358V134H357.5V138H358V142H357.5V146H358V150H357.5V154H358V158H357.5V162H358V166H357.5V168C357.5 168.501 357.451 168.991 357.357 169.464L357.847 169.561C357.639 170.61 357.226 171.586 356.651 172.444L356.237 172.167C355.69 172.985 354.985 173.69 354.167 174.237L354.444 174.651C353.586 175.226 352.61 175.639 351.561 175.847L351.464 175.357C350.991 175.451 350.501 175.5 350 175.5H348V176H344V175.5H340V176H336V175.5H332V176H328V175.5H324V176H320V175.5H316V176H312V175.5H308V176H304V175.5H300V176H296V175.5H292V176H288V175.5H284V176H280V175.5H276V176H272V175.5H268V176H264V175.5H260V176H256V175.5H252V176H248V175.5H244V176H240V175.5H236V176H232V175.5H228V176H224V175.5H220V176H216V175.5H212V176H208V175.5H204V176H200V175.5H196V176H192V175.5H188V176H184V175.5H180V176H176V175.5H172V176H168V175.5H164V176H160V175.5H156V176H152V175.5H148V176H144V175.5H140V176H136V175.5H132V176H128V175.5H124V176H120V175.5H116V176H112V175.5H108V176H104V175.5H100V176H96V175.5H92V176H88V175.5H84V176H80V175.5H76V176H72V175.5H68V176H64V175.5H60V176H56V175.5H52V176H48V175.5H44V176H40V175.5H38C37.4986 175.5 37.0092 175.451 36.5361 175.357L36.4385 175.847C35.3888 175.639 34.4131 175.226 33.5547 174.651L33.833 174.237C33.0149 173.69 32.3104 172.985 31.7627 172.167L31.3477 172.444C30.773 171.586 30.3599 170.61 30.1523 169.561L30.6426 169.464C30.549 168.991 30.5 168.501 30.5 168V166H30V162H30.5V158H30V154H30.5V150H30V146H30.5V142H30V138H30.5V134H30V130H30.5V126H30V122H30.5V118H30V114H30.5V110H30V106H30.5V102H30V98H30.5V94H30V90H30.5V86H30V82H30.5V80C30.5 79.4986 30.549 79.0092 30.6426 78.5361L30.1523 78.4385C30.36 77.3889 30.7729 76.413 31.3477 75.5547L31.7627 75.833C32.3104 75.0149 33.0149 74.3104 33.833 73.7627L33.5547 73.3477C34.413 72.7729 35.3889 72.36 36.4385 72.1523L36.5361 72.6426C36.8908 72.5724 37.2547 72.527 37.626 72.5088L38 72.5H40V72H44V72.5H48V72H52V72.5H56V72H60V72.5H64V72H68V72.5H72V72H76V72.5H80V72H84V72.5H88V72H92V72.5H96V72H100V72.5H104V72H108V72.5H112V72H116V72.5H120V72H124V72.5H128V72H132V72.5H136V72H140V72.5H144V72H148V72.5H152V72H156V72.5H160V72H164V72.5H168V72H172V72.5H176V72H180V72.5H184V72H188V72.5H192V72H196V72.5H200V72H204V72.5H208V72H212V72.5H216V72H220V72.5H224V72H228V72.5H232V72H236V72.5H240V72H244V72.5H248V72H252V72.5H256V72H260V72.5H264V72H268V72.5H272V72H276V72.5H280V72H284V72.5H288V72H292V72.5H296V72H300V72.5H304V72H308V72.5H312V72H316V72.5H320V72H324V72.5H328V72H332V72.5H336V72H340V72.5H344V72H348Z" stroke="black" stroke-opacity="0.76" stroke-dasharray="4 4"/>
<path d="M184.031 102.192C183.092 102.192 182.308 102.043 181.679 101.744C181.06 101.445 180.548 101.056 180.143 100.576L181.519 99.296C181.818 99.616 182.17 99.888 182.575 100.112C182.98 100.325 183.482 100.432 184.079 100.432C184.41 100.432 184.708 100.389 184.975 100.304C185.242 100.208 185.455 100.064 185.615 99.872C185.786 99.6693 185.871 99.408 185.871 99.088C185.871 98.8 185.775 98.5707 185.583 98.4C185.391 98.2187 185.108 98.064 184.735 97.936C184.372 97.808 183.935 97.6693 183.423 97.52C183.06 97.4027 182.703 97.2693 182.351 97.12C182.01 96.9707 181.7 96.784 181.423 96.56C181.146 96.3253 180.922 96.0427 180.751 95.712C180.591 95.3707 180.511 94.96 180.511 94.48C180.511 93.9893 180.602 93.5573 180.783 93.184C180.975 92.8 181.242 92.48 181.583 92.224C181.924 91.9573 182.324 91.7547 182.783 91.616C183.252 91.4773 183.77 91.408 184.335 91.408C185.178 91.408 185.903 91.5467 186.511 91.824C187.119 92.0907 187.604 92.4747 187.967 92.976L186.591 94.272C186.335 93.9627 186.02 93.7013 185.647 93.488C185.284 93.2747 184.842 93.168 184.319 93.168C184.042 93.168 183.775 93.2107 183.519 93.296C183.274 93.3813 183.071 93.5147 182.911 93.696C182.762 93.8773 182.687 94.1173 182.687 94.416C182.687 94.7147 182.783 94.9493 182.975 95.12C183.167 95.2907 183.444 95.44 183.807 95.568C184.18 95.696 184.618 95.84 185.119 96C185.492 96.1173 185.85 96.2507 186.191 96.4C186.543 96.5493 186.858 96.7413 187.135 96.976C187.412 97.2 187.631 97.4827 187.791 97.824C187.962 98.1547 188.047 98.56 188.047 99.04C188.047 99.552 187.946 100.005 187.743 100.4C187.551 100.784 187.274 101.115 186.911 101.392C186.559 101.659 186.138 101.861 185.647 102C185.156 102.128 184.618 102.192 184.031 102.192ZM189.72 102V90.4H191.736V102H189.72ZM197.301 102.192C196.426 102.192 195.69 102.005 195.093 101.632C194.506 101.248 194.063 100.741 193.765 100.112C193.466 99.4827 193.317 98.7947 193.317 98.048C193.317 97.4827 193.402 96.9493 193.573 96.448C193.743 95.9467 193.994 95.5093 194.325 95.136C194.655 94.752 195.066 94.4533 195.557 94.24C196.058 94.016 196.639 93.904 197.301 93.904C198.186 93.904 198.917 94.096 199.493 94.48C200.079 94.8533 200.517 95.3547 200.805 95.984C201.103 96.6027 201.253 97.2907 201.253 98.048C201.253 98.6133 201.167 99.1467 200.997 99.648C200.837 100.149 200.591 100.592 200.261 100.976C199.93 101.349 199.519 101.648 199.029 101.872C198.538 102.085 197.962 102.192 197.301 102.192ZM195.381 98.048C195.381 98.56 195.455 99.008 195.605 99.392C195.765 99.7653 195.983 100.053 196.261 100.256C196.549 100.459 196.895 100.56 197.301 100.56C197.706 100.56 198.047 100.459 198.325 100.256C198.602 100.053 198.815 99.7653 198.965 99.392C199.125 99.008 199.205 98.56 199.205 98.048C199.205 97.5253 199.125 97.0773 198.965 96.704C198.815 96.3307 198.602 96.0427 198.325 95.84C198.047 95.6373 197.706 95.536 197.301 95.536C196.895 95.536 196.549 95.6373 196.261 95.84C195.983 96.0427 195.765 96.3307 195.605 96.704C195.455 97.0773 195.381 97.5253 195.381 98.048ZM205.854 102.176C205.278 102.176 204.803 102.075 204.43 101.872C204.056 101.659 203.779 101.344 203.598 100.928C203.427 100.501 203.342 99.9733 203.342 99.344V95.712H202.094V94.096H203.342V91.952H205.342V94.096H207.646V95.712H205.342V99.328C205.342 99.744 205.416 100.043 205.566 100.224C205.726 100.395 205.95 100.48 206.238 100.48C206.44 100.48 206.627 100.443 206.798 100.368C206.979 100.283 207.134 100.181 207.262 100.064L207.982 101.44C207.726 101.696 207.422 101.883 207.07 102C206.718 102.117 206.312 102.176 205.854 102.176Z" fill="black" fill-opacity="0.76"/>
<path d="M122.516 134V124.752H119.556V123.6H126.836V124.752H123.876V134H122.516ZM128.579 134V122.4H129.859V127.216H129.955C130.136 126.853 130.397 126.544 130.739 126.288C131.091 126.032 131.528 125.904 132.051 125.904C132.957 125.904 133.672 126.144 134.195 126.624C134.728 127.093 134.995 127.867 134.995 128.944V134H133.715V129.184C133.715 128.373 133.549 127.803 133.219 127.472C132.899 127.131 132.424 126.96 131.795 126.96C131.197 126.96 130.723 127.168 130.371 127.584C130.029 128 129.859 128.608 129.859 129.408V134H128.579ZM137.485 134V126.096H138.765V134H137.485ZM138.125 124.816C137.858 124.816 137.65 124.736 137.501 124.576C137.352 124.416 137.277 124.224 137.277 124C137.277 123.787 137.352 123.6 137.501 123.44C137.65 123.269 137.858 123.184 138.125 123.184C138.381 123.184 138.584 123.269 138.733 123.44C138.893 123.6 138.973 123.787 138.973 124C138.973 124.224 138.893 124.416 138.733 124.576C138.584 124.736 138.381 124.816 138.125 124.816ZM143.629 134.192C142.946 134.192 142.36 134.075 141.869 133.84C141.378 133.605 140.994 133.301 140.717 132.928L141.565 132.128C141.81 132.416 142.093 132.651 142.413 132.832C142.744 133.013 143.154 133.104 143.645 133.104C144.082 133.104 144.466 133.013 144.797 132.832C145.128 132.64 145.293 132.347 145.293 131.952C145.293 131.643 145.197 131.403 145.005 131.232C144.824 131.051 144.584 130.907 144.285 130.8C143.986 130.683 143.666 130.576 143.325 130.48C142.93 130.363 142.557 130.219 142.205 130.048C141.864 129.867 141.581 129.632 141.357 129.344C141.144 129.045 141.037 128.667 141.037 128.208C141.037 127.707 141.154 127.285 141.389 126.944C141.634 126.603 141.96 126.347 142.365 126.176C142.781 125.995 143.245 125.904 143.757 125.904C144.322 125.904 144.85 126.011 145.341 126.224C145.832 126.427 146.226 126.747 146.525 127.184L145.693 127.952C145.458 127.675 145.181 127.445 144.861 127.264C144.552 127.083 144.184 126.992 143.757 126.992C143.394 126.992 143.058 127.083 142.749 127.264C142.44 127.435 142.285 127.712 142.285 128.096C142.285 128.405 142.376 128.651 142.557 128.832C142.749 129.003 142.994 129.141 143.293 129.248C143.592 129.355 143.912 129.461 144.253 129.568C144.648 129.685 145.016 129.835 145.357 130.016C145.709 130.187 145.992 130.416 146.205 130.704C146.429 130.992 146.541 131.371 146.541 131.84C146.541 132.384 146.408 132.832 146.141 133.184C145.874 133.525 145.517 133.781 145.069 133.952C144.632 134.112 144.152 134.192 143.629 134.192ZM152.594 134V126.096H153.874V134H152.594ZM153.234 124.816C152.968 124.816 152.76 124.736 152.61 124.576C152.461 124.416 152.386 124.224 152.386 124C152.386 123.787 152.461 123.6 152.61 123.44C152.76 123.269 152.968 123.184 153.234 123.184C153.49 123.184 153.693 123.269 153.842 123.44C154.002 123.6 154.082 123.787 154.082 124C154.082 124.224 154.002 124.416 153.842 124.576C153.693 124.736 153.49 124.816 153.234 124.816ZM158.738 134.192C158.056 134.192 157.469 134.075 156.978 133.84C156.488 133.605 156.104 133.301 155.826 132.928L156.674 132.128C156.92 132.416 157.202 132.651 157.522 132.832C157.853 133.013 158.264 133.104 158.754 133.104C159.192 133.104 159.576 133.013 159.906 132.832C160.237 132.64 160.402 132.347 160.402 131.952C160.402 131.643 160.306 131.403 160.114 131.232C159.933 131.051 159.693 130.907 159.394 130.8C159.096 130.683 158.776 130.576 158.434 130.48C158.04 130.363 157.666 130.219 157.314 130.048C156.973 129.867 156.69 129.632 156.466 129.344C156.253 129.045 156.146 128.667 156.146 128.208C156.146 127.707 156.264 127.285 156.498 126.944C156.744 126.603 157.069 126.347 157.474 126.176C157.89 125.995 158.354 125.904 158.866 125.904C159.432 125.904 159.96 126.011 160.45 126.224C160.941 126.427 161.336 126.747 161.634 127.184L160.802 127.952C160.568 127.675 160.29 127.445 159.97 127.264C159.661 127.083 159.293 126.992 158.866 126.992C158.504 126.992 158.168 127.083 157.858 127.264C157.549 127.435 157.394 127.712 157.394 128.096C157.394 128.405 157.485 128.651 157.666 128.832C157.858 129.003 158.104 129.141 158.402 129.248C158.701 129.355 159.021 129.461 159.362 129.568C159.757 129.685 160.125 129.835 160.466 130.016C160.818 130.187 161.101 130.416 161.314 130.704C161.538 130.992 161.65 131.371 161.65 131.84C161.65 132.384 161.517 132.832 161.25 133.184C160.984 133.525 160.626 133.781 160.178 133.952C159.741 134.112 159.261 134.192 158.738 134.192ZM169.448 134.192C168.968 134.192 168.536 134.091 168.152 133.888C167.778 133.685 167.485 133.403 167.272 133.04C167.058 132.677 166.952 132.261 166.952 131.792C166.952 131.333 167.058 130.939 167.272 130.608C167.496 130.267 167.821 129.995 168.248 129.792C168.674 129.589 169.186 129.472 169.784 129.44L171.864 129.312V128.752C171.864 128.347 171.794 128.021 171.656 127.776C171.528 127.52 171.336 127.333 171.08 127.216C170.834 127.088 170.53 127.024 170.168 127.024C169.709 127.024 169.314 127.109 168.984 127.28C168.653 127.451 168.397 127.637 168.216 127.84L167.448 127.072C167.725 126.731 168.104 126.453 168.584 126.24C169.064 126.016 169.602 125.904 170.2 125.904C170.925 125.904 171.501 126.027 171.928 126.272C172.354 126.517 172.658 126.848 172.84 127.264C173.032 127.669 173.128 128.123 173.128 128.624V134H171.928V132.656H171.832C171.629 133.125 171.33 133.499 170.936 133.776C170.541 134.053 170.045 134.192 169.448 134.192ZM169.64 133.104C170.301 133.104 170.834 132.912 171.24 132.528C171.656 132.133 171.864 131.611 171.864 130.96V130.272L169.848 130.416C169.325 130.459 168.925 130.592 168.648 130.816C168.381 131.04 168.248 131.355 168.248 131.76C168.248 132.165 168.376 132.491 168.632 132.736C168.898 132.981 169.234 133.104 169.64 133.104ZM179.548 136.96V126.096H180.764V127.712H180.86C181.041 127.168 181.382 126.731 181.884 126.4C182.385 126.069 182.961 125.904 183.612 125.904C184.316 125.904 184.929 126.085 185.452 126.448C185.974 126.8 186.38 127.291 186.668 127.92C186.966 128.549 187.116 129.264 187.116 130.064C187.116 130.864 186.966 131.573 186.668 132.192C186.38 132.811 185.974 133.301 185.452 133.664C184.929 134.016 184.316 134.192 183.612 134.192C182.961 134.192 182.401 134.037 181.932 133.728C181.462 133.419 181.126 133.024 180.924 132.544H180.828V136.96H179.548ZM183.292 133.04C183.761 133.04 184.182 132.933 184.556 132.72C184.94 132.496 185.244 132.16 185.468 131.712C185.692 131.264 185.804 130.709 185.804 130.048C185.804 129.376 185.692 128.821 185.468 128.384C185.244 127.936 184.94 127.605 184.556 127.392C184.182 127.168 183.761 127.056 183.292 127.056C182.844 127.056 182.433 127.168 182.06 127.392C181.686 127.605 181.388 127.936 181.164 128.384C180.94 128.821 180.828 129.376 180.828 130.048C180.828 130.709 180.94 131.264 181.164 131.712C181.388 132.16 181.686 132.496 182.06 132.72C182.433 132.933 182.844 133.04 183.292 133.04ZM189.173 134V122.4H190.453V134H189.173ZM194.917 134.192C194.437 134.192 194.005 134.091 193.621 133.888C193.247 133.685 192.954 133.403 192.741 133.04C192.527 132.677 192.421 132.261 192.421 131.792C192.421 131.333 192.527 130.939 192.741 130.608C192.965 130.267 193.29 129.995 193.717 129.792C194.143 129.589 194.655 129.472 195.253 129.44L197.333 129.312V128.752C197.333 128.347 197.263 128.021 197.125 127.776C196.997 127.52 196.805 127.333 196.549 127.216C196.303 127.088 195.999 127.024 195.637 127.024C195.178 127.024 194.783 127.109 194.453 127.28C194.122 127.451 193.866 127.637 193.685 127.84L192.917 127.072C193.194 126.731 193.573 126.453 194.053 126.24C194.533 126.016 195.071 125.904 195.669 125.904C196.394 125.904 196.97 126.027 197.397 126.272C197.823 126.517 198.127 126.848 198.309 127.264C198.501 127.669 198.597 128.123 198.597 128.624V134H197.397V132.656H197.301C197.098 133.125 196.799 133.499 196.405 133.776C196.01 134.053 195.514 134.192 194.917 134.192ZM195.109 133.104C195.77 133.104 196.303 132.912 196.709 132.528C197.125 132.133 197.333 131.611 197.333 130.96V130.272L195.317 130.416C194.794 130.459 194.394 130.592 194.117 130.816C193.85 131.04 193.717 131.355 193.717 131.76C193.717 132.165 193.845 132.491 194.101 132.736C194.367 132.981 194.703 133.104 195.109 133.104ZM204.181 134.192C203.327 134.192 202.629 133.995 202.085 133.6C201.541 133.205 201.141 132.693 200.885 132.064C200.639 131.424 200.517 130.752 200.517 130.048C200.517 129.333 200.639 128.661 200.885 128.032C201.13 127.403 201.519 126.891 202.053 126.496C202.597 126.101 203.295 125.904 204.149 125.904C204.81 125.904 205.354 126.016 205.781 126.24C206.218 126.464 206.586 126.763 206.885 127.136L206.085 127.888C205.829 127.611 205.557 127.397 205.269 127.248C204.991 127.088 204.629 127.008 204.181 127.008C203.722 127.008 203.311 127.131 202.949 127.376C202.597 127.621 202.319 127.973 202.117 128.432C201.925 128.88 201.829 129.419 201.829 130.048C201.829 130.987 202.053 131.728 202.501 132.272C202.949 132.816 203.519 133.088 204.213 133.088C204.639 133.088 205.007 133.013 205.317 132.864C205.626 132.704 205.914 132.475 206.181 132.176L206.949 132.944C206.65 133.317 206.271 133.621 205.813 133.856C205.365 134.08 204.821 134.192 204.181 134.192ZM211.745 134.192C210.988 134.192 210.326 134.027 209.761 133.696C209.206 133.365 208.774 132.891 208.465 132.272C208.156 131.643 208.001 130.901 208.001 130.048C208.001 129.376 208.086 128.784 208.257 128.272C208.438 127.749 208.689 127.317 209.009 126.976C209.34 126.624 209.724 126.357 210.161 126.176C210.609 125.995 211.1 125.904 211.633 125.904C212.166 125.904 212.652 125.989 213.089 126.16C213.537 126.331 213.921 126.587 214.241 126.928C214.572 127.259 214.828 127.68 215.009 128.192C215.19 128.693 215.281 129.28 215.281 129.952C215.281 130.037 215.276 130.123 215.265 130.208C215.265 130.293 215.26 130.363 215.249 130.416H209.281C209.292 130.907 209.409 131.355 209.633 131.76C209.857 132.165 210.156 132.491 210.529 132.736C210.913 132.971 211.34 133.088 211.809 133.088C212.374 133.088 212.844 132.976 213.217 132.752C213.59 132.528 213.9 132.256 214.145 131.936L214.913 132.72C214.582 133.168 214.161 133.525 213.649 133.792C213.137 134.059 212.502 134.192 211.745 134.192ZM211.633 126.96C211.132 126.96 210.71 127.077 210.369 127.312C210.028 127.547 209.766 127.845 209.585 128.208C209.414 128.571 209.324 128.949 209.313 129.344H213.937C213.926 128.949 213.83 128.571 213.649 128.208C213.478 127.845 213.222 127.547 212.881 127.312C212.55 127.077 212.134 126.96 211.633 126.96ZM217.344 134V122.4H218.624V127.216H218.72C218.902 126.853 219.163 126.544 219.504 126.288C219.856 126.032 220.294 125.904 220.816 125.904C221.723 125.904 222.438 126.144 222.96 126.624C223.494 127.093 223.76 127.867 223.76 128.944V134H222.48V129.184C222.48 128.373 222.315 127.803 221.984 127.472C221.664 127.131 221.19 126.96 220.56 126.96C219.963 126.96 219.488 127.168 219.136 127.584C218.795 128 218.624 128.608 218.624 129.408V134H217.344ZM229.371 134.192C228.528 134.192 227.824 134.005 227.259 133.632C226.704 133.259 226.288 132.757 226.011 132.128C225.733 131.499 225.595 130.805 225.595 130.048C225.595 129.472 225.669 128.933 225.819 128.432C225.979 127.931 226.213 127.493 226.523 127.12C226.843 126.736 227.237 126.437 227.707 126.224C228.187 126.011 228.741 125.904 229.371 125.904C230.213 125.904 230.907 126.091 231.451 126.464C232.005 126.837 232.416 127.339 232.683 127.968C232.96 128.587 233.099 129.28 233.099 130.048C233.099 130.624 233.019 131.163 232.859 131.664C232.709 132.165 232.48 132.608 232.171 132.992C231.861 133.365 231.472 133.659 231.003 133.872C230.544 134.085 230 134.192 229.371 134.192ZM226.907 130.048C226.907 130.656 226.997 131.195 227.179 131.664C227.36 132.123 227.632 132.485 227.995 132.752C228.357 133.008 228.816 133.136 229.371 133.136C229.915 133.136 230.363 133.008 230.715 132.752C231.077 132.485 231.344 132.123 231.515 131.664C231.696 131.195 231.787 130.656 231.787 130.048C231.787 129.44 231.696 128.907 231.515 128.448C231.344 127.979 231.077 127.616 230.715 127.36C230.363 127.093 229.915 126.96 229.371 126.96C228.816 126.96 228.357 127.093 227.995 127.36C227.632 127.616 227.36 127.979 227.179 128.448C226.997 128.907 226.907 129.44 226.907 130.048ZM235.157 134V122.4H236.437V134H235.157ZM242.005 134.192C241.301 134.192 240.688 134.011 240.165 133.648C239.642 133.285 239.232 132.795 238.933 132.176C238.645 131.547 238.501 130.832 238.501 130.032C238.501 129.232 238.645 128.523 238.933 127.904C239.232 127.275 239.642 126.784 240.165 126.432C240.688 126.08 241.301 125.904 242.005 125.904C242.656 125.904 243.216 126.059 243.685 126.368C244.154 126.677 244.49 127.072 244.693 127.552H244.789V122.4H246.069V134H244.853V132.384H244.757C244.576 132.928 244.234 133.365 243.733 133.696C243.232 134.027 242.656 134.192 242.005 134.192ZM242.325 133.04C242.784 133.04 243.194 132.933 243.557 132.72C243.93 132.496 244.229 132.16 244.453 131.712C244.677 131.264 244.789 130.709 244.789 130.048C244.789 129.376 244.677 128.821 244.453 128.384C244.229 127.936 243.93 127.605 243.557 127.392C243.194 127.168 242.784 127.056 242.325 127.056C241.856 127.056 241.429 127.168 241.045 127.392C240.672 127.605 240.373 127.936 240.149 128.384C239.925 128.821 239.813 129.376 239.813 130.048C239.813 130.709 239.925 131.264 240.149 131.712C240.373 132.16 240.672 132.496 241.045 132.72C241.429 132.933 241.856 133.04 242.325 133.04ZM251.87 134.192C251.113 134.192 250.451 134.027 249.886 133.696C249.331 133.365 248.899 132.891 248.59 132.272C248.281 131.643 248.126 130.901 248.126 130.048C248.126 129.376 248.211 128.784 248.382 128.272C248.563 127.749 248.814 127.317 249.134 126.976C249.465 126.624 249.849 126.357 250.286 126.176C250.734 125.995 251.225 125.904 251.758 125.904C252.291 125.904 252.777 125.989 253.214 126.16C253.662 126.331 254.046 126.587 254.366 126.928C254.697 127.259 254.953 127.68 255.134 128.192C255.315 128.693 255.406 129.28 255.406 129.952C255.406 130.037 255.401 130.123 255.39 130.208C255.39 130.293 255.385 130.363 255.374 130.416H249.406C249.417 130.907 249.534 131.355 249.758 131.76C249.982 132.165 250.281 132.491 250.654 132.736C251.038 132.971 251.465 133.088 251.934 133.088C252.499 133.088 252.969 132.976 253.342 132.752C253.715 132.528 254.025 132.256 254.27 131.936L255.038 132.72C254.707 133.168 254.286 133.525 253.774 133.792C253.262 134.059 252.627 134.192 251.87 134.192ZM251.758 126.96C251.257 126.96 250.835 127.077 250.494 127.312C250.153 127.547 249.891 127.845 249.71 128.208C249.539 128.571 249.449 128.949 249.438 129.344H254.062C254.051 128.949 253.955 128.571 253.774 128.208C253.603 127.845 253.347 127.547 253.006 127.312C252.675 127.077 252.259 126.96 251.758 126.96ZM257.469 134V126.096H258.685V127.376H258.781C258.952 126.96 259.197 126.613 259.517 126.336C259.848 126.048 260.248 125.904 260.717 125.904C260.909 125.904 261.096 125.925 261.277 125.968C261.469 126 261.64 126.059 261.789 126.144L261.357 127.296C261.219 127.221 261.069 127.173 260.909 127.152C260.76 127.12 260.605 127.104 260.445 127.104C259.923 127.104 259.507 127.317 259.197 127.744C258.899 128.16 258.749 128.693 258.749 129.344V134H257.469ZM262.984 132.304C263.283 132.304 263.518 132.411 263.688 132.624C263.859 132.837 263.944 133.093 263.944 133.392C263.944 133.723 263.875 134.043 263.736 134.352C263.598 134.672 263.4 134.976 263.144 135.264C262.888 135.563 262.584 135.845 262.232 136.112L261.736 135.584C261.95 135.381 262.142 135.157 262.312 134.912C262.483 134.667 262.616 134.395 262.712 134.096C262.499 134.043 262.328 133.936 262.2 133.776C262.083 133.605 262.024 133.419 262.024 133.216C262.024 133.045 262.062 132.896 262.136 132.768C262.222 132.629 262.334 132.517 262.472 132.432C262.622 132.347 262.792 132.304 262.984 132.304ZM108.805 158V150.096H110.021V151.376H110.117C110.288 150.96 110.533 150.613 110.853 150.336C111.184 150.048 111.584 149.904 112.053 149.904C112.245 149.904 112.432 149.925 112.613 149.968C112.805 150 112.976 150.059 113.125 150.144L112.693 151.296C112.555 151.221 112.405 151.173 112.245 151.152C112.096 151.12 111.941 151.104 111.781 151.104C111.259 151.104 110.843 151.317 110.533 151.744C110.235 152.16 110.085 152.693 110.085 153.344V158H108.805ZM117.471 158.192C116.714 158.192 116.053 158.027 115.487 157.696C114.933 157.365 114.501 156.891 114.191 156.272C113.882 155.643 113.727 154.901 113.727 154.048C113.727 153.376 113.813 152.784 113.983 152.272C114.165 151.749 114.415 151.317 114.735 150.976C115.066 150.624 115.45 150.357 115.887 150.176C116.335 149.995 116.826 149.904 117.359 149.904C117.893 149.904 118.378 149.989 118.815 150.16C119.263 150.331 119.647 150.587 119.967 150.928C120.298 151.259 120.554 151.68 120.735 152.192C120.917 152.693 121.007 153.28 121.007 153.952C121.007 154.037 121.002 154.123 120.991 154.208C120.991 154.293 120.986 154.363 120.975 154.416H115.007C115.018 154.907 115.135 155.355 115.359 155.76C115.583 156.165 115.882 156.491 116.255 156.736C116.639 156.971 117.066 157.088 117.535 157.088C118.101 157.088 118.57 156.976 118.943 156.752C119.317 156.528 119.626 156.256 119.871 155.936L120.639 156.72C120.309 157.168 119.887 157.525 119.375 157.792C118.863 158.059 118.229 158.192 117.471 158.192ZM117.359 150.96C116.858 150.96 116.437 151.077 116.095 151.312C115.754 151.547 115.493 151.845 115.311 152.208C115.141 152.571 115.05 152.949 115.039 153.344H119.663C119.653 152.949 119.557 152.571 119.375 152.208C119.205 151.845 118.949 151.547 118.607 151.312C118.277 151.077 117.861 150.96 117.359 150.96ZM123.071 160.96V150.096H124.287V151.712H124.383C124.564 151.168 124.906 150.731 125.407 150.4C125.908 150.069 126.484 149.904 127.135 149.904C127.839 149.904 128.452 150.085 128.975 150.448C129.498 150.8 129.903 151.291 130.191 151.92C130.49 152.549 130.639 153.264 130.639 154.064C130.639 154.864 130.49 155.573 130.191 156.192C129.903 156.811 129.498 157.301 128.975 157.664C128.452 158.016 127.839 158.192 127.135 158.192C126.484 158.192 125.924 158.037 125.455 157.728C124.986 157.419 124.65 157.024 124.447 156.544H124.351V160.96H123.071ZM126.815 157.04C127.284 157.04 127.706 156.933 128.079 156.72C128.463 156.496 128.767 156.16 128.991 155.712C129.215 155.264 129.327 154.709 129.327 154.048C129.327 153.376 129.215 152.821 128.991 152.384C128.767 151.936 128.463 151.605 128.079 151.392C127.706 151.168 127.284 151.056 126.815 151.056C126.367 151.056 125.956 151.168 125.583 151.392C125.21 151.605 124.911 151.936 124.687 152.384C124.463 152.821 124.351 153.376 124.351 154.048C124.351 154.709 124.463 155.264 124.687 155.712C124.911 156.16 125.21 156.496 125.583 156.72C125.956 156.933 126.367 157.04 126.815 157.04ZM132.696 158V146.4H133.976V158H132.696ZM138.44 158.192C137.96 158.192 137.528 158.091 137.144 157.888C136.771 157.685 136.477 157.403 136.264 157.04C136.051 156.677 135.944 156.261 135.944 155.792C135.944 155.333 136.051 154.939 136.264 154.608C136.488 154.267 136.813 153.995 137.24 153.792C137.667 153.589 138.179 153.472 138.776 153.44L140.856 153.312V152.752C140.856 152.347 140.787 152.021 140.648 151.776C140.52 151.52 140.328 151.333 140.072 151.216C139.827 151.088 139.523 151.024 139.16 151.024C138.701 151.024 138.307 151.109 137.976 151.28C137.645 151.451 137.389 151.637 137.208 151.84L136.44 151.072C136.717 150.731 137.096 150.453 137.576 150.24C138.056 150.016 138.595 149.904 139.192 149.904C139.917 149.904 140.493 150.027 140.92 150.272C141.347 150.517 141.651 150.848 141.832 151.264C142.024 151.669 142.12 152.123 142.12 152.624V158H140.92V156.656H140.824C140.621 157.125 140.323 157.499 139.928 157.776C139.533 158.053 139.037 158.192 138.44 158.192ZM138.632 157.104C139.293 157.104 139.827 156.912 140.232 156.528C140.648 156.133 140.856 155.611 140.856 154.96V154.272L138.84 154.416C138.317 154.459 137.917 154.592 137.64 154.816C137.373 155.04 137.24 155.355 137.24 155.76C137.24 156.165 137.368 156.491 137.624 156.736C137.891 156.981 138.227 157.104 138.632 157.104ZM147.704 158.192C146.851 158.192 146.152 157.995 145.608 157.6C145.064 157.205 144.664 156.693 144.408 156.064C144.163 155.424 144.04 154.752 144.04 154.048C144.04 153.333 144.163 152.661 144.408 152.032C144.653 151.403 145.043 150.891 145.576 150.496C146.12 150.101 146.819 149.904 147.672 149.904C148.333 149.904 148.877 150.016 149.304 150.24C149.741 150.464 150.109 150.763 150.408 151.136L149.608 151.888C149.352 151.611 149.08 151.397 148.792 151.248C148.515 151.088 148.152 151.008 147.704 151.008C147.245 151.008 146.835 151.131 146.472 151.376C146.12 151.621 145.843 151.973 145.64 152.432C145.448 152.88 145.352 153.419 145.352 154.048C145.352 154.987 145.576 155.728 146.024 156.272C146.472 156.816 147.043 157.088 147.736 157.088C148.163 157.088 148.531 157.013 148.84 156.864C149.149 156.704 149.437 156.475 149.704 156.176L150.472 156.944C150.173 157.317 149.795 157.621 149.336 157.856C148.888 158.08 148.344 158.192 147.704 158.192ZM155.268 158.192C154.511 158.192 153.85 158.027 153.284 157.696C152.73 157.365 152.298 156.891 151.988 156.272C151.679 155.643 151.524 154.901 151.524 154.048C151.524 153.376 151.61 152.784 151.78 152.272C151.962 151.749 152.212 151.317 152.532 150.976C152.863 150.624 153.247 150.357 153.684 150.176C154.132 149.995 154.623 149.904 155.156 149.904C155.69 149.904 156.175 149.989 156.612 150.16C157.06 150.331 157.444 150.587 157.764 150.928C158.095 151.259 158.351 151.68 158.532 152.192C158.714 152.693 158.804 153.28 158.804 153.952C158.804 154.037 158.799 154.123 158.788 154.208C158.788 154.293 158.783 154.363 158.772 154.416H152.804C152.815 154.907 152.932 155.355 153.156 155.76C153.38 156.165 153.679 156.491 154.052 156.736C154.436 156.971 154.863 157.088 155.332 157.088C155.898 157.088 156.367 156.976 156.74 156.752C157.114 156.528 157.423 156.256 157.668 155.936L158.436 156.72C158.106 157.168 157.684 157.525 157.172 157.792C156.66 158.059 156.026 158.192 155.268 158.192ZM155.156 150.96C154.655 150.96 154.234 151.077 153.892 151.312C153.551 151.547 153.29 151.845 153.108 152.208C152.938 152.571 152.847 152.949 152.836 153.344H157.46C157.45 152.949 157.354 152.571 157.172 152.208C157.002 151.845 156.746 151.547 156.404 151.312C156.074 151.077 155.658 150.96 155.156 150.96ZM164.712 158V150.096H165.928V151.344H166.024C166.216 150.928 166.482 150.587 166.824 150.32C167.176 150.043 167.613 149.904 168.136 149.904C168.765 149.904 169.298 150.021 169.736 150.256C170.173 150.48 170.493 150.821 170.696 151.28C170.856 150.981 171.048 150.731 171.272 150.528C171.496 150.325 171.762 150.171 172.072 150.064C172.392 149.957 172.749 149.904 173.144 149.904C173.73 149.904 174.237 150.011 174.664 150.224C175.09 150.427 175.421 150.752 175.656 151.2C175.89 151.648 176.008 152.229 176.008 152.944V158H174.728V153.184C174.728 152.64 174.653 152.208 174.504 151.888C174.365 151.557 174.157 151.323 173.88 151.184C173.613 151.035 173.277 150.96 172.872 150.96C172.285 150.96 171.826 151.168 171.496 151.584C171.165 152 171 152.608 171 153.408V158H169.72V153.184C169.72 152.64 169.65 152.208 169.512 151.888C169.373 151.557 169.165 151.323 168.888 151.184C168.61 151.035 168.269 150.96 167.864 150.96C167.288 150.96 166.829 151.168 166.488 151.584C166.157 152 165.992 152.608 165.992 153.408V158H164.712ZM181.675 158.192C180.917 158.192 180.256 158.027 179.691 157.696C179.136 157.365 178.704 156.891 178.395 156.272C178.085 155.643 177.931 154.901 177.931 154.048C177.931 153.376 178.016 152.784 178.187 152.272C178.368 151.749 178.619 151.317 178.939 150.976C179.269 150.624 179.653 150.357 180.091 150.176C180.539 149.995 181.029 149.904 181.563 149.904C182.096 149.904 182.581 149.989 183.019 150.16C183.467 150.331 183.851 150.587 184.171 150.928C184.501 151.259 184.757 151.68 184.939 152.192C185.12 152.693 185.211 153.28 185.211 153.952C185.211 154.037 185.205 154.123 185.195 154.208C185.195 154.293 185.189 154.363 185.179 154.416H179.211C179.221 154.907 179.339 155.355 179.563 155.76C179.787 156.165 180.085 156.491 180.459 156.736C180.843 156.971 181.269 157.088 181.739 157.088C182.304 157.088 182.773 156.976 183.147 156.752C183.52 156.528 183.829 156.256 184.075 155.936L184.843 156.72C184.512 157.168 184.091 157.525 183.579 157.792C183.067 158.059 182.432 158.192 181.675 158.192ZM181.563 150.96C181.061 150.96 180.64 151.077 180.299 151.312C179.957 151.547 179.696 151.845 179.515 152.208C179.344 152.571 179.253 152.949 179.243 153.344H183.867C183.856 152.949 183.76 152.571 183.579 152.208C183.408 151.845 183.152 151.547 182.811 151.312C182.48 151.077 182.064 150.96 181.563 150.96ZM192.878 158L190.19 150.096H191.566L193.566 156.672H193.662L195.518 150.096H197.038L198.894 156.672H198.99L200.99 150.096H202.27L199.582 158H198.142L196.286 151.456H196.19L194.35 158H192.878ZM204.055 158V150.096H205.335V158H204.055ZM204.695 148.816C204.429 148.816 204.221 148.736 204.071 148.576C203.922 148.416 203.847 148.224 203.847 148C203.847 147.787 203.922 147.6 204.071 147.44C204.221 147.269 204.429 147.184 204.695 147.184C204.951 147.184 205.154 147.269 205.303 147.44C205.463 147.6 205.543 147.787 205.543 148C205.543 148.224 205.463 148.416 205.303 148.576C205.154 148.736 204.951 148.816 204.695 148.816ZM210.487 158.192C210.018 158.192 209.629 158.096 209.319 157.904C209.01 157.712 208.781 157.435 208.631 157.072C208.493 156.709 208.423 156.283 208.423 155.792V151.136H207.015V150.096H208.423V147.952H209.687V150.096H211.975V151.136H209.687V155.68C209.687 156.192 209.783 156.549 209.975 156.752C210.178 156.955 210.434 157.056 210.743 157.056C210.957 157.056 211.149 157.019 211.319 156.944C211.49 156.859 211.65 156.747 211.799 156.608L212.375 157.504C212.13 157.739 211.847 157.909 211.527 158.016C211.218 158.133 210.871 158.192 210.487 158.192ZM214.118 158V146.4H215.398V151.216H215.494C215.675 150.853 215.936 150.544 216.278 150.288C216.63 150.032 217.067 149.904 217.59 149.904C218.496 149.904 219.211 150.144 219.734 150.624C220.267 151.093 220.534 151.867 220.534 152.944V158H219.254V153.184C219.254 152.373 219.088 151.803 218.758 151.472C218.438 151.131 217.963 150.96 217.334 150.96C216.736 150.96 216.262 151.168 215.91 151.584C215.568 152 215.398 152.608 215.398 153.408V158H214.118ZM229.876 158.192C229.022 158.192 228.324 157.995 227.78 157.6C227.236 157.205 226.836 156.693 226.58 156.064C226.334 155.424 226.212 154.752 226.212 154.048C226.212 153.333 226.334 152.661 226.58 152.032C226.825 151.403 227.214 150.891 227.748 150.496C228.292 150.101 228.99 149.904 229.844 149.904C230.505 149.904 231.049 150.016 231.476 150.24C231.913 150.464 232.281 150.763 232.58 151.136L231.78 151.888C231.524 151.611 231.252 151.397 230.964 151.248C230.686 151.088 230.324 151.008 229.876 151.008C229.417 151.008 229.006 151.131 228.644 151.376C228.292 151.621 228.014 151.973 227.812 152.432C227.62 152.88 227.524 153.419 227.524 154.048C227.524 154.987 227.748 155.728 228.196 156.272C228.644 156.816 229.214 157.088 229.908 157.088C230.334 157.088 230.702 157.013 231.012 156.864C231.321 156.704 231.609 156.475 231.876 156.176L232.644 156.944C232.345 157.317 231.966 157.621 231.508 157.856C231.06 158.08 230.516 158.192 229.876 158.192ZM237.472 158.192C236.63 158.192 235.926 158.005 235.36 157.632C234.806 157.259 234.39 156.757 234.112 156.128C233.835 155.499 233.696 154.805 233.696 154.048C233.696 153.472 233.771 152.933 233.92 152.432C234.08 151.931 234.315 151.493 234.624 151.12C234.944 150.736 235.339 150.437 235.808 150.224C236.288 150.011 236.843 149.904 237.472 149.904C238.315 149.904 239.008 150.091 239.552 150.464C240.107 150.837 240.518 151.339 240.784 151.968C241.062 152.587 241.2 153.28 241.2 154.048C241.2 154.624 241.12 155.163 240.96 155.664C240.811 156.165 240.582 156.608 240.272 156.992C239.963 157.365 239.574 157.659 239.104 157.872C238.646 158.085 238.102 158.192 237.472 158.192ZM235.008 154.048C235.008 154.656 235.099 155.195 235.28 155.664C235.462 156.123 235.734 156.485 236.096 156.752C236.459 157.008 236.918 157.136 237.472 157.136C238.016 157.136 238.464 157.008 238.816 156.752C239.179 156.485 239.446 156.123 239.616 155.664C239.798 155.195 239.888 154.656 239.888 154.048C239.888 153.44 239.798 152.907 239.616 152.448C239.446 151.979 239.179 151.616 238.816 151.36C238.464 151.093 238.016 150.96 237.472 150.96C236.918 150.96 236.459 151.093 236.096 151.36C235.734 151.616 235.462 151.979 235.28 152.448C235.099 152.907 235.008 153.44 235.008 154.048ZM243.258 158V150.096H244.474V151.344H244.57C244.698 151.067 244.864 150.821 245.066 150.608C245.269 150.384 245.509 150.213 245.786 150.096C246.064 149.968 246.378 149.904 246.73 149.904C247.637 149.904 248.352 150.144 248.874 150.624C249.408 151.093 249.674 151.867 249.674 152.944V158H248.394V153.184C248.394 152.373 248.229 151.803 247.898 151.472C247.578 151.131 247.104 150.96 246.474 150.96C245.877 150.96 245.402 151.168 245.05 151.584C244.709 152 244.538 152.608 244.538 153.408V158H243.258ZM254.675 158.192C254.205 158.192 253.816 158.096 253.507 157.904C253.197 157.712 252.968 157.435 252.819 157.072C252.68 156.709 252.611 156.283 252.611 155.792V151.136H251.203V150.096H252.611V147.952H253.875V150.096H256.163V151.136H253.875V155.68C253.875 156.192 253.971 156.549 254.163 156.752C254.365 156.955 254.621 157.056 254.931 157.056C255.144 157.056 255.336 157.019 255.507 156.944C255.677 156.859 255.837 156.747 255.987 156.608L256.563 157.504C256.317 157.739 256.035 157.909 255.715 158.016C255.405 158.133 255.059 158.192 254.675 158.192ZM261.268 158.192C260.511 158.192 259.85 158.027 259.284 157.696C258.73 157.365 258.298 156.891 257.988 156.272C257.679 155.643 257.524 154.901 257.524 154.048C257.524 153.376 257.61 152.784 257.78 152.272C257.962 151.749 258.212 151.317 258.532 150.976C258.863 150.624 259.247 150.357 259.684 150.176C260.132 149.995 260.623 149.904 261.156 149.904C261.69 149.904 262.175 149.989 262.612 150.16C263.06 150.331 263.444 150.587 263.764 150.928C264.095 151.259 264.351 151.68 264.532 152.192C264.714 152.693 264.804 153.28 264.804 153.952C264.804 154.037 264.799 154.123 264.788 154.208C264.788 154.293 264.783 154.363 264.772 154.416H258.804C258.815 154.907 258.932 155.355 259.156 155.76C259.38 156.165 259.679 156.491 260.052 156.736C260.436 156.971 260.863 157.088 261.332 157.088C261.898 157.088 262.367 156.976 262.74 156.752C263.114 156.528 263.423 156.256 263.668 155.936L264.436 156.72C264.106 157.168 263.684 157.525 263.172 157.792C262.66 158.059 262.026 158.192 261.268 158.192ZM261.156 150.96C260.655 150.96 260.234 151.077 259.892 151.312C259.551 151.547 259.29 151.845 259.108 152.208C258.938 152.571 258.847 152.949 258.836 153.344H263.46C263.45 152.949 263.354 152.571 263.172 152.208C263.002 151.845 262.746 151.547 262.404 151.312C262.074 151.077 261.658 150.96 261.156 150.96ZM266.868 158V150.096H268.084V151.344H268.18C268.308 151.067 268.473 150.821 268.676 150.608C268.878 150.384 269.118 150.213 269.396 150.096C269.673 149.968 269.988 149.904 270.34 149.904C271.246 149.904 271.961 150.144 272.484 150.624C273.017 151.093 273.284 151.867 273.284 152.944V158H272.004V153.184C272.004 152.373 271.838 151.803 271.508 151.472C271.188 151.131 270.713 150.96 270.084 150.96C269.486 150.96 269.012 151.168 268.66 151.584C268.318 152 268.148 152.608 268.148 153.408V158H266.868ZM278.284 158.192C277.815 158.192 277.426 158.096 277.116 157.904C276.807 157.712 276.578 157.435 276.428 157.072C276.29 156.709 276.22 156.283 276.22 155.792V151.136H274.812V150.096H276.22V147.952H277.484V150.096H279.772V151.136H277.484V155.68C277.484 156.192 277.58 156.549 277.772 156.752C277.975 156.955 278.231 157.056 278.54 157.056C278.754 157.056 278.946 157.019 279.116 156.944C279.287 156.859 279.447 156.747 279.596 156.608L280.172 157.504C279.927 157.739 279.644 157.909 279.324 158.016C279.015 158.133 278.668 158.192 278.284 158.192Z" fill="black" fill-opacity="0.64"/>
<rect width="360" height="80" transform="translate(14 180)" fill="white"/>
<g clip-path="url(#clip1_16720_13736)">
<path d="M146 220C146 206.745 156.745 196 170 196H220C233.255 196 244 206.745 244 220C244 233.255 233.255 244 220 244H170C156.745 244 146 233.255 146 220Z" fill="white" fill-opacity="0.01"/>
<path d="M171.542 227V214H174.922V224.3H180.202V227H171.542ZM184.687 227.24C184.1 227.24 183.553 227.12 183.047 226.88C182.54 226.64 182.133 226.3 181.827 225.86C181.52 225.407 181.367 224.86 181.367 224.22C181.367 223.62 181.507 223.107 181.787 222.68C182.08 222.24 182.52 221.893 183.107 221.64C183.707 221.387 184.467 221.233 185.387 221.18L187.487 221.06V220.9C187.487 220.527 187.393 220.247 187.207 220.06C187.02 219.86 186.78 219.727 186.487 219.66C186.193 219.58 185.88 219.54 185.547 219.54C185.173 219.54 184.793 219.607 184.407 219.74C184.02 219.873 183.733 220.06 183.547 220.3L181.807 218.5C182.167 218.033 182.693 217.647 183.387 217.34C184.08 217.033 184.987 216.88 186.107 216.88C187.053 216.88 187.867 217.027 188.547 217.32C189.227 217.613 189.747 218.047 190.107 218.62C190.48 219.18 190.667 219.867 190.667 220.68V227H187.687V225.48H187.567C187.313 226 186.947 226.427 186.467 226.76C185.987 227.08 185.393 227.24 184.687 227.24ZM185.767 225.08C186.273 225.08 186.687 224.94 187.007 224.66C187.327 224.38 187.487 223.967 187.487 223.42V222.9L185.827 223.02C185.4 223.047 185.08 223.153 184.867 223.34C184.667 223.527 184.567 223.773 184.567 224.08C184.567 224.413 184.68 224.667 184.907 224.84C185.147 225 185.433 225.08 185.767 225.08ZM198.852 227.24C198.118 227.24 197.485 227.067 196.952 226.72C196.432 226.36 196.045 225.867 195.792 225.24H195.672V227H192.652V212.5H195.832V218.74H195.952C196.165 218.193 196.518 217.747 197.012 217.4C197.505 217.053 198.118 216.88 198.852 216.88C199.638 216.88 200.345 217.107 200.972 217.56C201.612 218 202.118 218.613 202.492 219.4C202.865 220.187 203.052 221.107 203.052 222.16C203.052 223.173 202.865 224.06 202.492 224.82C202.118 225.58 201.612 226.173 200.972 226.6C200.345 227.027 199.638 227.24 198.852 227.24ZM197.812 224.5C198.238 224.5 198.598 224.393 198.892 224.18C199.185 223.953 199.405 223.66 199.552 223.3C199.712 222.927 199.792 222.513 199.792 222.06C199.792 221.607 199.712 221.2 199.552 220.84C199.405 220.467 199.185 220.173 198.892 219.96C198.598 219.733 198.238 219.62 197.812 219.62C197.385 219.62 197.018 219.733 196.712 219.96C196.418 220.173 196.198 220.467 196.052 220.84C195.905 221.2 195.832 221.607 195.832 222.06C195.832 222.513 195.905 222.927 196.052 223.3C196.198 223.66 196.418 223.953 196.712 224.18C197.018 224.393 197.385 224.5 197.812 224.5ZM209.184 227.24C207.984 227.24 207.004 226.993 206.244 226.5C205.484 225.993 204.924 225.347 204.564 224.56C204.218 223.773 204.044 222.94 204.044 222.06C204.044 221.393 204.131 220.753 204.304 220.14C204.491 219.527 204.778 218.973 205.164 218.48C205.551 217.987 206.058 217.6 206.684 217.32C207.324 217.027 208.098 216.88 209.004 216.88C209.911 216.88 210.678 217.02 211.304 217.3C211.931 217.58 212.431 217.967 212.804 218.46C213.191 218.94 213.464 219.487 213.624 220.1C213.798 220.7 213.884 221.327 213.884 221.98C213.884 222.127 213.871 222.32 213.844 222.56C213.818 222.787 213.784 222.96 213.744 223.08H207.264C207.344 223.467 207.498 223.773 207.724 224C207.964 224.227 208.231 224.393 208.524 224.5C208.831 224.593 209.111 224.64 209.364 224.64C209.831 224.64 210.231 224.567 210.564 224.42C210.911 224.273 211.178 224.08 211.364 223.84L213.104 225.66C212.784 226.113 212.278 226.493 211.584 226.8C210.891 227.093 210.091 227.24 209.184 227.24ZM209.004 219.24C208.724 219.24 208.458 219.3 208.204 219.42C207.964 219.527 207.751 219.707 207.564 219.96C207.391 220.213 207.271 220.553 207.204 220.98H210.764C210.711 220.553 210.591 220.213 210.404 219.96C210.231 219.707 210.024 219.527 209.784 219.42C209.544 219.3 209.284 219.24 209.004 219.24ZM215.425 227V212.5H218.605V227H215.425Z" fill="#242E30"/>
</g>
<g clip-path="url(#clip2_16720_13736)">
<path d="M260 220C260 206.745 270.745 196 284 196H334C347.255 196 358 206.745 358 220C358 233.255 347.255 244 334 244H284C270.745 244 260 233.255 260 220Z" fill="#F36805"/>
<path d="M260 220C260 206.745 270.745 196 284 196H334C347.255 196 358 206.745 358 220C358 233.255 347.255 244 334 244H284C270.745 244 260 233.255 260 220Z" fill="white" fill-opacity="0.01"/>
<path d="M285.542 227V214H288.922V224.3H294.202V227H285.542ZM298.687 227.24C298.1 227.24 297.553 227.12 297.047 226.88C296.54 226.64 296.133 226.3 295.827 225.86C295.52 225.407 295.367 224.86 295.367 224.22C295.367 223.62 295.507 223.107 295.787 222.68C296.08 222.24 296.52 221.893 297.107 221.64C297.707 221.387 298.467 221.233 299.387 221.18L301.487 221.06V220.9C301.487 220.527 301.393 220.247 301.207 220.06C301.02 219.86 300.78 219.727 300.487 219.66C300.193 219.58 299.88 219.54 299.547 219.54C299.173 219.54 298.793 219.607 298.407 219.74C298.02 219.873 297.733 220.06 297.547 220.3L295.807 218.5C296.167 218.033 296.693 217.647 297.387 217.34C298.08 217.033 298.987 216.88 300.107 216.88C301.053 216.88 301.867 217.027 302.547 217.32C303.227 217.613 303.747 218.047 304.107 218.62C304.48 219.18 304.667 219.867 304.667 220.68V227H301.687V225.48H301.567C301.313 226 300.947 226.427 300.467 226.76C299.987 227.08 299.393 227.24 298.687 227.24ZM299.767 225.08C300.273 225.08 300.687 224.94 301.007 224.66C301.327 224.38 301.487 223.967 301.487 223.42V222.9L299.827 223.02C299.4 223.047 299.08 223.153 298.867 223.34C298.667 223.527 298.567 223.773 298.567 224.08C298.567 224.413 298.68 224.667 298.907 224.84C299.147 225 299.433 225.08 299.767 225.08ZM312.852 227.24C312.118 227.24 311.485 227.067 310.952 226.72C310.432 226.36 310.045 225.867 309.792 225.24H309.672V227H306.652V212.5H309.832V218.74H309.952C310.165 218.193 310.518 217.747 311.012 217.4C311.505 217.053 312.118 216.88 312.852 216.88C313.638 216.88 314.345 217.107 314.972 217.56C315.612 218 316.118 218.613 316.492 219.4C316.865 220.187 317.052 221.107 317.052 222.16C317.052 223.173 316.865 224.06 316.492 224.82C316.118 225.58 315.612 226.173 314.972 226.6C314.345 227.027 313.638 227.24 312.852 227.24ZM311.812 224.5C312.238 224.5 312.598 224.393 312.892 224.18C313.185 223.953 313.405 223.66 313.552 223.3C313.712 222.927 313.792 222.513 313.792 222.06C313.792 221.607 313.712 221.2 313.552 220.84C313.405 220.467 313.185 220.173 312.892 219.96C312.598 219.733 312.238 219.62 311.812 219.62C311.385 219.62 311.018 219.733 310.712 219.96C310.418 220.173 310.198 220.467 310.052 220.84C309.905 221.2 309.832 221.607 309.832 222.06C309.832 222.513 309.905 222.927 310.052 223.3C310.198 223.66 310.418 223.953 310.712 224.18C311.018 224.393 311.385 224.5 311.812 224.5ZM323.184 227.24C321.984 227.24 321.004 226.993 320.244 226.5C319.484 225.993 318.924 225.347 318.564 224.56C318.218 223.773 318.044 222.94 318.044 222.06C318.044 221.393 318.131 220.753 318.304 220.14C318.491 219.527 318.778 218.973 319.164 218.48C319.551 217.987 320.058 217.6 320.684 217.32C321.324 217.027 322.098 216.88 323.004 216.88C323.911 216.88 324.678 217.02 325.304 217.3C325.931 217.58 326.431 217.967 326.804 218.46C327.191 218.94 327.464 219.487 327.624 220.1C327.798 220.7 327.884 221.327 327.884 221.98C327.884 222.127 327.871 222.32 327.844 222.56C327.818 222.787 327.784 222.96 327.744 223.08H321.264C321.344 223.467 321.498 223.773 321.724 224C321.964 224.227 322.231 224.393 322.524 224.5C322.831 224.593 323.111 224.64 323.364 224.64C323.831 224.64 324.231 224.567 324.564 224.42C324.911 224.273 325.178 224.08 325.364 223.84L327.104 225.66C326.784 226.113 326.278 226.493 325.584 226.8C324.891 227.093 324.091 227.24 323.184 227.24ZM323.004 219.24C322.724 219.24 322.458 219.3 322.204 219.42C321.964 219.527 321.751 219.707 321.564 219.96C321.391 220.213 321.271 220.553 321.204 220.98H324.764C324.711 220.553 324.591 220.213 324.404 219.96C324.231 219.707 324.024 219.527 323.784 219.42C323.544 219.3 323.284 219.24 323.004 219.24ZM329.425 227V212.5H332.605V227H329.425Z" fill="white"/>
</g>
</g>
</g>
<defs>
<filter id="filter0_ddd_16720_13736" x="0" y="0" width="388" height="276" filterUnits="userSpaceOnUse" color-interpolation-filters="sRGB">
<feFlood flood-opacity="0" result="BackgroundImageFix"/>
<feColorMatrix in="SourceAlpha" type="matrix" values="0 0 0 0 0 0 0 0 0 0 0 0 0 0 0 0 0 0 127 0" result="hardAlpha"/>
<feOffset dy="3"/>
<feGaussianBlur stdDeviation="2"/>
<feColorMatrix type="matrix" values="0 0 0 0 0 0 0 0 0 0 0 0 0 0 0 0 0 0 0.04 0"/>
<feBlend mode="normal" in2="BackgroundImageFix" result="effect1_dropShadow_16720_13736"/>
<feColorMatrix in="SourceAlpha" type="matrix" values="0 0 0 0 0 0 0 0 0 0 0 0 0 0 0 0 0 0 127 0" result="hardAlpha"/>
<feMorphology radius="2" operator="dilate" in="SourceAlpha" result="effect2_dropShadow_16720_13736"/>
<feOffset dy="2"/>
<feGaussianBlur stdDeviation="6"/>
<feColorMatrix type="matrix" values="0 0 0 0 0 0 0 0 0 0 0 0 0 0 0 0 0 0 0.04 0"/>
<feBlend mode="normal" in2="effect1_dropShadow_16720_13736" result="effect2_dropShadow_16720_13736"/>
<feColorMatrix in="SourceAlpha" type="matrix" values="0 0 0 0 0 0 0 0 0 0 0 0 0 0 0 0 0 0 127 0" result="hardAlpha"/>
<feOffset dy="4"/>
<feGaussianBlur stdDeviation="3"/>
<feColorMatrix type="matrix" values="0 0 0 0 0 0 0 0 0 0 0 0 0 0 0 0 0 0 0.02 0"/>
<feBlend mode="normal" in2="effect2_dropShadow_16720_13736" result="effect3_dropShadow_16720_13736"/>
<feBlend mode="normal" in="SourceGraphic" in2="effect3_dropShadow_16720_13736" result="shape"/>
</filter>
<clipPath id="clip0_16720_13736">
<path d="M14 28C14 19.1634 21.1634 12 30 12H358C366.837 12 374 19.1634 374 28V244C374 252.837 366.837 260 358 260H30C21.1634 260 14 252.837 14 244V28Z" fill="white"/>
</clipPath>
<clipPath id="clip1_16720_13736">
<path d="M146 220C146 206.745 156.745 196 170 196H220C233.255 196 244 206.745 244 220C244 233.255 233.255 244 220 244H170C156.745 244 146 233.255 146 220Z" fill="white"/>
</clipPath>
<clipPath id="clip2_16720_13736">
<path d="M260 220C260 206.745 270.745 196 284 196H334C347.255 196 358 206.745 358 220C358 233.255 347.255 244 334 244H284C270.745 244 260 233.255 260 220Z" fill="white"/>
</clipPath>
</defs>
</svg>
