<svg width="381" height="276" viewBox="0 0 381 276" fill="none" xmlns="http://www.w3.org/2000/svg">
<g filter="url(#filter0_ddd_16720_13653)">
<g clip-path="url(#clip0_16720_13653)">
<path d="M79 28C79 19.1634 86.1634 12 95 12H351C359.837 12 367 19.1634 367 28V244C367 252.837 359.837 260 351 260H95C86.1635 260 79 252.837 79 244V28Z" fill="white"/>
<rect width="288" height="56" transform="translate(79 12)" fill="white"/>
<rect width="240" height="56" transform="translate(79 12)" fill="white" fill-opacity="0.01"/>
<path d="M98.82 47V37.1H95.32V34H106.32V37.1H102.82V47H98.82ZM107.461 47V37.12H111.221V47H107.461ZM109.341 36.2C108.661 36.2 108.154 36.0067 107.821 35.62C107.487 35.2333 107.321 34.7933 107.321 34.3C107.321 33.7933 107.487 33.3467 107.821 32.96C108.154 32.5733 108.661 32.38 109.341 32.38C110.021 32.38 110.527 32.5733 110.861 32.96C111.207 33.3467 111.381 33.7933 111.381 34.3C111.381 34.7933 111.207 35.2333 110.861 35.62C110.527 36.0067 110.021 36.2 109.341 36.2ZM117.571 47.2C116.691 47.2 115.971 47.06 115.411 46.78C114.851 46.4867 114.431 46.04 114.151 45.44C113.885 44.8267 113.751 44.04 113.751 43.08V40.06H112.491V37.12H113.751V34.44H117.491V37.12H120.431V40.06H117.491V43.1C117.491 43.4733 117.551 43.7533 117.671 43.94C117.805 44.1267 118.045 44.22 118.391 44.22C118.631 44.22 118.858 44.1733 119.071 44.08C119.285 43.9733 119.458 43.8467 119.591 43.7L120.711 46.2C120.365 46.5333 119.931 46.7867 119.411 46.96C118.905 47.12 118.291 47.2 117.571 47.2ZM121.777 47V32.5H125.537V47H121.777ZM131.948 47.24C130.814 47.24 129.854 47.0133 129.068 46.56C128.281 46.0933 127.688 45.4733 127.288 44.7C126.888 43.9133 126.688 43.0333 126.688 42.06C126.688 41.3133 126.794 40.6267 127.008 40C127.221 39.3733 127.534 38.8267 127.948 38.36C128.374 37.88 128.908 37.5133 129.548 37.26C130.201 37.0067 130.954 36.88 131.808 36.88C132.648 36.88 133.381 37.0067 134.008 37.26C134.634 37.5133 135.154 37.8733 135.568 38.34C135.981 38.7933 136.288 39.3333 136.488 39.96C136.688 40.5733 136.788 41.2533 136.788 42C136.788 42.1733 136.768 42.3733 136.728 42.6C136.701 42.8267 136.668 43 136.628 43.12H130.308C130.374 43.4133 130.501 43.6533 130.688 43.84C130.874 44.0267 131.101 44.1667 131.368 44.26C131.648 44.34 131.928 44.38 132.208 44.38C132.608 44.38 132.961 44.32 133.268 44.2C133.574 44.08 133.814 43.9267 133.988 43.74L135.968 45.76C135.621 46.2133 135.088 46.5733 134.368 46.84C133.648 47.1067 132.841 47.24 131.948 47.24ZM131.768 39.46C131.514 39.46 131.281 39.52 131.068 39.64C130.868 39.7467 130.701 39.9133 130.568 40.14C130.434 40.3533 130.348 40.62 130.308 40.94H133.228C133.188 40.6067 133.094 40.3333 132.948 40.12C132.814 39.9067 132.648 39.7467 132.448 39.64C132.261 39.52 132.034 39.46 131.768 39.46Z" fill="black" fill-opacity="0.76"/>
<rect width="48" height="56" transform="translate(319 12)" fill="white" fill-opacity="0.01"/>
<path d="M319 40C319 28.9543 327.954 20 339 20C350.046 20 359 28.9543 359 40C359 51.0457 350.046 60 339 60C327.954 60 319 51.0457 319 40Z" fill="white" fill-opacity="0.01"/>
<path d="M344.801 32.8066L339 38.6079L333.199 32.8066L331.807 34.1979L337.609 39.9992L331.807 45.8005L333.199 47.1917L339 41.3904L344.801 47.1917L346.193 45.8005L340.391 39.9992L346.193 34.1979L344.801 32.8066Z" fill="black" fill-opacity="0.76"/>
<path d="M95 80C95 75.5817 98.5817 72 103 72H343C347.418 72 351 75.5817 351 80V168C351 172.418 347.418 176 343 176H103C98.5817 176 95 172.418 95 168V80Z" fill="black" fill-opacity="0.04"/>
<path d="M341 72V72.5H343C343.501 72.5 343.991 72.549 344.464 72.6426L344.561 72.1523C345.61 72.3599 346.586 72.773 347.444 73.3477L347.167 73.7627C347.985 74.3104 348.69 75.0149 349.237 75.833L349.651 75.5547C350.226 76.4131 350.639 77.3888 350.847 78.4385L350.357 78.5361C350.451 79.0092 350.5 79.4986 350.5 80V82H351V86H350.5V90H351V94H350.5V98H351V102H350.5V106H351V110H350.5V114H351V118H350.5V122H351V126H350.5V130H351V134H350.5V138H351V142H350.5V146H351V150H350.5V154H351V158H350.5V162H351V166H350.5V168C350.5 168.501 350.451 168.991 350.357 169.464L350.847 169.561C350.639 170.61 350.226 171.586 349.651 172.444L349.237 172.167C348.69 172.985 347.985 173.69 347.167 174.237L347.444 174.651C346.586 175.226 345.61 175.639 344.561 175.847L344.464 175.357C343.991 175.451 343.501 175.5 343 175.5H341V176H337V175.5H333V176H329V175.5H325V176H321V175.5H317V176H313V175.5H309V176H305V175.5H301V176H297V175.5H293V176H289V175.5H285V176H281V175.5H277V176H273V175.5H269V176H265V175.5H261V176H257V175.5H253V176H249V175.5H245V176H241V175.5H237V176H233V175.5H229V176H225V175.5H221V176H217V175.5H213V176H209V175.5H205V176H201V175.5H197V176H193V175.5H189V176H185V175.5H181V176H177V175.5H173V176H169V175.5H165V176H161V175.5H157V176H153V175.5H149V176H145V175.5H141V176H137V175.5H133V176H129V175.5H125V176H121V175.5H117V176H113V175.5H109V176H105V175.5H103C102.499 175.5 102.009 175.451 101.536 175.357L101.438 175.847C100.389 175.639 99.4131 175.226 98.5547 174.651L98.833 174.237C98.0149 173.69 97.3104 172.985 96.7627 172.167L96.3477 172.444C95.773 171.586 95.3599 170.61 95.1523 169.561L95.6426 169.464C95.549 168.991 95.5 168.501 95.5 168V166H95V162H95.5V158H95V154H95.5V150H95V146H95.5V142H95V138H95.5V134H95V130H95.5V126H95V122H95.5V118H95V114H95.5V110H95V106H95.5V102H95V98H95.5V94H95V90H95.5V86H95V82H95.5V80C95.5 79.4986 95.549 79.0092 95.6426 78.5361L95.1523 78.4385C95.36 77.3889 95.7729 76.413 96.3477 75.5547L96.7627 75.833C97.3104 75.0149 98.0149 74.3104 98.833 73.7627L98.5547 73.3477C99.413 72.7729 100.389 72.36 101.438 72.1523L101.536 72.6426C102.009 72.549 102.499 72.5 103 72.5H105V72H109V72.5H113V72H117V72.5H121V72H125V72.5H129V72H133V72.5H137V72H141V72.5H145V72H149V72.5H153V72H157V72.5H161V72H165V72.5H169V72H173V72.5H177V72H181V72.5H185V72H189V72.5H193V72H197V72.5H201V72H205V72.5H209V72H213V72.5H217V72H221V72.5H225V72H229V72.5H233V72H237V72.5H241V72H245V72.5H249V72H253V72.5H257V72H261V72.5H265V72H269V72.5H273V72H277V72.5H281V72H285V72.5H289V72H293V72.5H297V72H301V72.5H305V72H309V72.5H313V72H317V72.5H321V72H325V72.5H329V72H333V72.5H337V72H341Z" stroke="black" stroke-opacity="0.76" stroke-dasharray="4 4"/>
<path d="M213.031 102.192C212.092 102.192 211.308 102.043 210.679 101.744C210.06 101.445 209.548 101.056 209.143 100.576L210.519 99.296C210.818 99.616 211.17 99.888 211.575 100.112C211.98 100.325 212.482 100.432 213.079 100.432C213.41 100.432 213.708 100.389 213.975 100.304C214.242 100.208 214.455 100.064 214.615 99.872C214.786 99.6693 214.871 99.408 214.871 99.088C214.871 98.8 214.775 98.5707 214.583 98.4C214.391 98.2187 214.108 98.064 213.735 97.936C213.372 97.808 212.935 97.6693 212.423 97.52C212.06 97.4027 211.703 97.2693 211.351 97.12C211.01 96.9707 210.7 96.784 210.423 96.56C210.146 96.3253 209.922 96.0427 209.751 95.712C209.591 95.3707 209.511 94.96 209.511 94.48C209.511 93.9893 209.602 93.5573 209.783 93.184C209.975 92.8 210.242 92.48 210.583 92.224C210.924 91.9573 211.324 91.7547 211.783 91.616C212.252 91.4773 212.77 91.408 213.335 91.408C214.178 91.408 214.903 91.5467 215.511 91.824C216.119 92.0907 216.604 92.4747 216.967 92.976L215.591 94.272C215.335 93.9627 215.02 93.7013 214.647 93.488C214.284 93.2747 213.842 93.168 213.319 93.168C213.042 93.168 212.775 93.2107 212.519 93.296C212.274 93.3813 212.071 93.5147 211.911 93.696C211.762 93.8773 211.687 94.1173 211.687 94.416C211.687 94.7147 211.783 94.9493 211.975 95.12C212.167 95.2907 212.444 95.44 212.807 95.568C213.18 95.696 213.618 95.84 214.119 96C214.492 96.1173 214.85 96.2507 215.191 96.4C215.543 96.5493 215.858 96.7413 216.135 96.976C216.412 97.2 216.631 97.4827 216.791 97.824C216.962 98.1547 217.047 98.56 217.047 99.04C217.047 99.552 216.946 100.005 216.743 100.4C216.551 100.784 216.274 101.115 215.911 101.392C215.559 101.659 215.138 101.861 214.647 102C214.156 102.128 213.618 102.192 213.031 102.192ZM218.72 102V90.4H220.736V102H218.72ZM226.301 102.192C225.426 102.192 224.69 102.005 224.093 101.632C223.506 101.248 223.063 100.741 222.765 100.112C222.466 99.4827 222.317 98.7947 222.317 98.048C222.317 97.4827 222.402 96.9493 222.573 96.448C222.743 95.9467 222.994 95.5093 223.325 95.136C223.655 94.752 224.066 94.4533 224.557 94.24C225.058 94.016 225.639 93.904 226.301 93.904C227.186 93.904 227.917 94.096 228.493 94.48C229.079 94.8533 229.517 95.3547 229.805 95.984C230.103 96.6027 230.253 97.2907 230.253 98.048C230.253 98.6133 230.167 99.1467 229.997 99.648C229.837 100.149 229.591 100.592 229.261 100.976C228.93 101.349 228.519 101.648 228.029 101.872C227.538 102.085 226.962 102.192 226.301 102.192ZM224.381 98.048C224.381 98.56 224.455 99.008 224.605 99.392C224.765 99.7653 224.983 100.053 225.261 100.256C225.549 100.459 225.895 100.56 226.301 100.56C226.706 100.56 227.047 100.459 227.325 100.256C227.602 100.053 227.815 99.7653 227.965 99.392C228.125 99.008 228.205 98.56 228.205 98.048C228.205 97.5253 228.125 97.0773 227.965 96.704C227.815 96.3307 227.602 96.0427 227.325 95.84C227.047 95.6373 226.706 95.536 226.301 95.536C225.895 95.536 225.549 95.6373 225.261 95.84C224.983 96.0427 224.765 96.3307 224.605 96.704C224.455 97.0773 224.381 97.5253 224.381 98.048ZM234.854 102.176C234.278 102.176 233.803 102.075 233.43 101.872C233.056 101.659 232.779 101.344 232.598 100.928C232.427 100.501 232.342 99.9733 232.342 99.344V95.712H231.094V94.096H232.342V91.952H234.342V94.096H236.646V95.712H234.342V99.328C234.342 99.744 234.416 100.043 234.566 100.224C234.726 100.395 234.95 100.48 235.238 100.48C235.44 100.48 235.627 100.443 235.798 100.368C235.979 100.283 236.134 100.181 236.262 100.064L236.982 101.44C236.726 101.696 236.422 101.883 236.07 102C235.718 102.117 235.312 102.176 234.854 102.176Z" fill="black" fill-opacity="0.76"/>
<path d="M151.516 134V124.752H148.556V123.6H155.836V124.752H152.876V134H151.516ZM157.579 134V122.4H158.859V127.216H158.955C159.136 126.853 159.397 126.544 159.739 126.288C160.091 126.032 160.528 125.904 161.051 125.904C161.957 125.904 162.672 126.144 163.195 126.624C163.728 127.093 163.995 127.867 163.995 128.944V134H162.715V129.184C162.715 128.373 162.549 127.803 162.219 127.472C161.899 127.131 161.424 126.96 160.795 126.96C160.197 126.96 159.723 127.168 159.371 127.584C159.029 128 158.859 128.608 158.859 129.408V134H157.579ZM166.485 134V126.096H167.765V134H166.485ZM167.125 124.816C166.858 124.816 166.65 124.736 166.501 124.576C166.352 124.416 166.277 124.224 166.277 124C166.277 123.787 166.352 123.6 166.501 123.44C166.65 123.269 166.858 123.184 167.125 123.184C167.381 123.184 167.584 123.269 167.733 123.44C167.893 123.6 167.973 123.787 167.973 124C167.973 124.224 167.893 124.416 167.733 124.576C167.584 124.736 167.381 124.816 167.125 124.816ZM172.629 134.192C171.946 134.192 171.36 134.075 170.869 133.84C170.378 133.605 169.994 133.301 169.717 132.928L170.565 132.128C170.81 132.416 171.093 132.651 171.413 132.832C171.744 133.013 172.154 133.104 172.645 133.104C173.082 133.104 173.466 133.013 173.797 132.832C174.128 132.64 174.293 132.347 174.293 131.952C174.293 131.643 174.197 131.403 174.005 131.232C173.824 131.051 173.584 130.907 173.285 130.8C172.986 130.683 172.666 130.576 172.325 130.48C171.93 130.363 171.557 130.219 171.205 130.048C170.864 129.867 170.581 129.632 170.357 129.344C170.144 129.045 170.037 128.667 170.037 128.208C170.037 127.707 170.154 127.285 170.389 126.944C170.634 126.603 170.96 126.347 171.365 126.176C171.781 125.995 172.245 125.904 172.757 125.904C173.322 125.904 173.85 126.011 174.341 126.224C174.832 126.427 175.226 126.747 175.525 127.184L174.693 127.952C174.458 127.675 174.181 127.445 173.861 127.264C173.552 127.083 173.184 126.992 172.757 126.992C172.394 126.992 172.058 127.083 171.749 127.264C171.44 127.435 171.285 127.712 171.285 128.096C171.285 128.405 171.376 128.651 171.557 128.832C171.749 129.003 171.994 129.141 172.293 129.248C172.592 129.355 172.912 129.461 173.253 129.568C173.648 129.685 174.016 129.835 174.357 130.016C174.709 130.187 174.992 130.416 175.205 130.704C175.429 130.992 175.541 131.371 175.541 131.84C175.541 132.384 175.408 132.832 175.141 133.184C174.874 133.525 174.517 133.781 174.069 133.952C173.632 134.112 173.152 134.192 172.629 134.192ZM181.594 134V126.096H182.874V134H181.594ZM182.234 124.816C181.968 124.816 181.76 124.736 181.61 124.576C181.461 124.416 181.386 124.224 181.386 124C181.386 123.787 181.461 123.6 181.61 123.44C181.76 123.269 181.968 123.184 182.234 123.184C182.49 123.184 182.693 123.269 182.842 123.44C183.002 123.6 183.082 123.787 183.082 124C183.082 124.224 183.002 124.416 182.842 124.576C182.693 124.736 182.49 124.816 182.234 124.816ZM187.738 134.192C187.056 134.192 186.469 134.075 185.978 133.84C185.488 133.605 185.104 133.301 184.826 132.928L185.674 132.128C185.92 132.416 186.202 132.651 186.522 132.832C186.853 133.013 187.264 133.104 187.754 133.104C188.192 133.104 188.576 133.013 188.906 132.832C189.237 132.64 189.402 132.347 189.402 131.952C189.402 131.643 189.306 131.403 189.114 131.232C188.933 131.051 188.693 130.907 188.394 130.8C188.096 130.683 187.776 130.576 187.434 130.48C187.04 130.363 186.666 130.219 186.314 130.048C185.973 129.867 185.69 129.632 185.466 129.344C185.253 129.045 185.146 128.667 185.146 128.208C185.146 127.707 185.264 127.285 185.498 126.944C185.744 126.603 186.069 126.347 186.474 126.176C186.89 125.995 187.354 125.904 187.866 125.904C188.432 125.904 188.96 126.011 189.45 126.224C189.941 126.427 190.336 126.747 190.634 127.184L189.802 127.952C189.568 127.675 189.29 127.445 188.97 127.264C188.661 127.083 188.293 126.992 187.866 126.992C187.504 126.992 187.168 127.083 186.858 127.264C186.549 127.435 186.394 127.712 186.394 128.096C186.394 128.405 186.485 128.651 186.666 128.832C186.858 129.003 187.104 129.141 187.402 129.248C187.701 129.355 188.021 129.461 188.362 129.568C188.757 129.685 189.125 129.835 189.466 130.016C189.818 130.187 190.101 130.416 190.314 130.704C190.538 130.992 190.65 131.371 190.65 131.84C190.65 132.384 190.517 132.832 190.25 133.184C189.984 133.525 189.626 133.781 189.178 133.952C188.741 134.112 188.261 134.192 187.738 134.192ZM198.448 134.192C197.968 134.192 197.536 134.091 197.152 133.888C196.778 133.685 196.485 133.403 196.272 133.04C196.058 132.677 195.952 132.261 195.952 131.792C195.952 131.333 196.058 130.939 196.272 130.608C196.496 130.267 196.821 129.995 197.248 129.792C197.674 129.589 198.186 129.472 198.784 129.44L200.864 129.312V128.752C200.864 128.347 200.794 128.021 200.656 127.776C200.528 127.52 200.336 127.333 200.08 127.216C199.834 127.088 199.53 127.024 199.168 127.024C198.709 127.024 198.314 127.109 197.984 127.28C197.653 127.451 197.397 127.637 197.216 127.84L196.448 127.072C196.725 126.731 197.104 126.453 197.584 126.24C198.064 126.016 198.602 125.904 199.2 125.904C199.925 125.904 200.501 126.027 200.928 126.272C201.354 126.517 201.658 126.848 201.84 127.264C202.032 127.669 202.128 128.123 202.128 128.624V134H200.928V132.656H200.832C200.629 133.125 200.33 133.499 199.936 133.776C199.541 134.053 199.045 134.192 198.448 134.192ZM198.64 133.104C199.301 133.104 199.834 132.912 200.24 132.528C200.656 132.133 200.864 131.611 200.864 130.96V130.272L198.848 130.416C198.325 130.459 197.925 130.592 197.648 130.816C197.381 131.04 197.248 131.355 197.248 131.76C197.248 132.165 197.376 132.491 197.632 132.736C197.898 132.981 198.234 133.104 198.64 133.104ZM208.548 136.96V126.096H209.764V127.712H209.86C210.041 127.168 210.382 126.731 210.884 126.4C211.385 126.069 211.961 125.904 212.612 125.904C213.316 125.904 213.929 126.085 214.452 126.448C214.974 126.8 215.38 127.291 215.668 127.92C215.966 128.549 216.116 129.264 216.116 130.064C216.116 130.864 215.966 131.573 215.668 132.192C215.38 132.811 214.974 133.301 214.452 133.664C213.929 134.016 213.316 134.192 212.612 134.192C211.961 134.192 211.401 134.037 210.932 133.728C210.462 133.419 210.126 133.024 209.924 132.544H209.828V136.96H208.548ZM212.292 133.04C212.761 133.04 213.182 132.933 213.556 132.72C213.94 132.496 214.244 132.16 214.468 131.712C214.692 131.264 214.804 130.709 214.804 130.048C214.804 129.376 214.692 128.821 214.468 128.384C214.244 127.936 213.94 127.605 213.556 127.392C213.182 127.168 212.761 127.056 212.292 127.056C211.844 127.056 211.433 127.168 211.06 127.392C210.686 127.605 210.388 127.936 210.164 128.384C209.94 128.821 209.828 129.376 209.828 130.048C209.828 130.709 209.94 131.264 210.164 131.712C210.388 132.16 210.686 132.496 211.06 132.72C211.433 132.933 211.844 133.04 212.292 133.04ZM218.173 134V122.4H219.453V134H218.173ZM223.917 134.192C223.437 134.192 223.005 134.091 222.621 133.888C222.247 133.685 221.954 133.403 221.741 133.04C221.527 132.677 221.421 132.261 221.421 131.792C221.421 131.333 221.527 130.939 221.741 130.608C221.965 130.267 222.29 129.995 222.717 129.792C223.143 129.589 223.655 129.472 224.253 129.44L226.333 129.312V128.752C226.333 128.347 226.263 128.021 226.125 127.776C225.997 127.52 225.805 127.333 225.549 127.216C225.303 127.088 224.999 127.024 224.637 127.024C224.178 127.024 223.783 127.109 223.453 127.28C223.122 127.451 222.866 127.637 222.685 127.84L221.917 127.072C222.194 126.731 222.573 126.453 223.053 126.24C223.533 126.016 224.071 125.904 224.669 125.904C225.394 125.904 225.97 126.027 226.397 126.272C226.823 126.517 227.127 126.848 227.309 127.264C227.501 127.669 227.597 128.123 227.597 128.624V134H226.397V132.656H226.301C226.098 133.125 225.799 133.499 225.405 133.776C225.01 134.053 224.514 134.192 223.917 134.192ZM224.109 133.104C224.77 133.104 225.303 132.912 225.709 132.528C226.125 132.133 226.333 131.611 226.333 130.96V130.272L224.317 130.416C223.794 130.459 223.394 130.592 223.117 130.816C222.85 131.04 222.717 131.355 222.717 131.76C222.717 132.165 222.845 132.491 223.101 132.736C223.367 132.981 223.703 133.104 224.109 133.104ZM233.181 134.192C232.327 134.192 231.629 133.995 231.085 133.6C230.541 133.205 230.141 132.693 229.885 132.064C229.639 131.424 229.517 130.752 229.517 130.048C229.517 129.333 229.639 128.661 229.885 128.032C230.13 127.403 230.519 126.891 231.053 126.496C231.597 126.101 232.295 125.904 233.149 125.904C233.81 125.904 234.354 126.016 234.781 126.24C235.218 126.464 235.586 126.763 235.885 127.136L235.085 127.888C234.829 127.611 234.557 127.397 234.269 127.248C233.991 127.088 233.629 127.008 233.181 127.008C232.722 127.008 232.311 127.131 231.949 127.376C231.597 127.621 231.319 127.973 231.117 128.432C230.925 128.88 230.829 129.419 230.829 130.048C230.829 130.987 231.053 131.728 231.501 132.272C231.949 132.816 232.519 133.088 233.213 133.088C233.639 133.088 234.007 133.013 234.317 132.864C234.626 132.704 234.914 132.475 235.181 132.176L235.949 132.944C235.65 133.317 235.271 133.621 234.813 133.856C234.365 134.08 233.821 134.192 233.181 134.192ZM240.745 134.192C239.988 134.192 239.326 134.027 238.761 133.696C238.206 133.365 237.774 132.891 237.465 132.272C237.156 131.643 237.001 130.901 237.001 130.048C237.001 129.376 237.086 128.784 237.257 128.272C237.438 127.749 237.689 127.317 238.009 126.976C238.34 126.624 238.724 126.357 239.161 126.176C239.609 125.995 240.1 125.904 240.633 125.904C241.166 125.904 241.652 125.989 242.089 126.16C242.537 126.331 242.921 126.587 243.241 126.928C243.572 127.259 243.828 127.68 244.009 128.192C244.19 128.693 244.281 129.28 244.281 129.952C244.281 130.037 244.276 130.123 244.265 130.208C244.265 130.293 244.26 130.363 244.249 130.416H238.281C238.292 130.907 238.409 131.355 238.633 131.76C238.857 132.165 239.156 132.491 239.529 132.736C239.913 132.971 240.34 133.088 240.809 133.088C241.374 133.088 241.844 132.976 242.217 132.752C242.59 132.528 242.9 132.256 243.145 131.936L243.913 132.72C243.582 133.168 243.161 133.525 242.649 133.792C242.137 134.059 241.502 134.192 240.745 134.192ZM240.633 126.96C240.132 126.96 239.71 127.077 239.369 127.312C239.028 127.547 238.766 127.845 238.585 128.208C238.414 128.571 238.324 128.949 238.313 129.344H242.937C242.926 128.949 242.83 128.571 242.649 128.208C242.478 127.845 242.222 127.547 241.881 127.312C241.55 127.077 241.134 126.96 240.633 126.96ZM246.344 134V122.4H247.624V127.216H247.72C247.902 126.853 248.163 126.544 248.504 126.288C248.856 126.032 249.294 125.904 249.816 125.904C250.723 125.904 251.438 126.144 251.96 126.624C252.494 127.093 252.76 127.867 252.76 128.944V134H251.48V129.184C251.48 128.373 251.315 127.803 250.984 127.472C250.664 127.131 250.19 126.96 249.56 126.96C248.963 126.96 248.488 127.168 248.136 127.584C247.795 128 247.624 128.608 247.624 129.408V134H246.344ZM258.371 134.192C257.528 134.192 256.824 134.005 256.259 133.632C255.704 133.259 255.288 132.757 255.011 132.128C254.733 131.499 254.595 130.805 254.595 130.048C254.595 129.472 254.669 128.933 254.819 128.432C254.979 127.931 255.213 127.493 255.523 127.12C255.843 126.736 256.237 126.437 256.707 126.224C257.187 126.011 257.741 125.904 258.371 125.904C259.213 125.904 259.907 126.091 260.451 126.464C261.005 126.837 261.416 127.339 261.683 127.968C261.96 128.587 262.099 129.28 262.099 130.048C262.099 130.624 262.019 131.163 261.859 131.664C261.709 132.165 261.48 132.608 261.171 132.992C260.861 133.365 260.472 133.659 260.003 133.872C259.544 134.085 259 134.192 258.371 134.192ZM255.907 130.048C255.907 130.656 255.997 131.195 256.179 131.664C256.36 132.123 256.632 132.485 256.995 132.752C257.357 133.008 257.816 133.136 258.371 133.136C258.915 133.136 259.363 133.008 259.715 132.752C260.077 132.485 260.344 132.123 260.515 131.664C260.696 131.195 260.787 130.656 260.787 130.048C260.787 129.44 260.696 128.907 260.515 128.448C260.344 127.979 260.077 127.616 259.715 127.36C259.363 127.093 258.915 126.96 258.371 126.96C257.816 126.96 257.357 127.093 256.995 127.36C256.632 127.616 256.36 127.979 256.179 128.448C255.997 128.907 255.907 129.44 255.907 130.048ZM264.157 134V122.4H265.437V134H264.157ZM271.005 134.192C270.301 134.192 269.688 134.011 269.165 133.648C268.642 133.285 268.232 132.795 267.933 132.176C267.645 131.547 267.501 130.832 267.501 130.032C267.501 129.232 267.645 128.523 267.933 127.904C268.232 127.275 268.642 126.784 269.165 126.432C269.688 126.08 270.301 125.904 271.005 125.904C271.656 125.904 272.216 126.059 272.685 126.368C273.154 126.677 273.49 127.072 273.693 127.552H273.789V122.4H275.069V134H273.853V132.384H273.757C273.576 132.928 273.234 133.365 272.733 133.696C272.232 134.027 271.656 134.192 271.005 134.192ZM271.325 133.04C271.784 133.04 272.194 132.933 272.557 132.72C272.93 132.496 273.229 132.16 273.453 131.712C273.677 131.264 273.789 130.709 273.789 130.048C273.789 129.376 273.677 128.821 273.453 128.384C273.229 127.936 272.93 127.605 272.557 127.392C272.194 127.168 271.784 127.056 271.325 127.056C270.856 127.056 270.429 127.168 270.045 127.392C269.672 127.605 269.373 127.936 269.149 128.384C268.925 128.821 268.813 129.376 268.813 130.048C268.813 130.709 268.925 131.264 269.149 131.712C269.373 132.16 269.672 132.496 270.045 132.72C270.429 132.933 270.856 133.04 271.325 133.04ZM280.87 134.192C280.113 134.192 279.451 134.027 278.886 133.696C278.331 133.365 277.899 132.891 277.59 132.272C277.281 131.643 277.126 130.901 277.126 130.048C277.126 129.376 277.211 128.784 277.382 128.272C277.563 127.749 277.814 127.317 278.134 126.976C278.465 126.624 278.849 126.357 279.286 126.176C279.734 125.995 280.225 125.904 280.758 125.904C281.291 125.904 281.777 125.989 282.214 126.16C282.662 126.331 283.046 126.587 283.366 126.928C283.697 127.259 283.953 127.68 284.134 128.192C284.315 128.693 284.406 129.28 284.406 129.952C284.406 130.037 284.401 130.123 284.39 130.208C284.39 130.293 284.385 130.363 284.374 130.416H278.406C278.417 130.907 278.534 131.355 278.758 131.76C278.982 132.165 279.281 132.491 279.654 132.736C280.038 132.971 280.465 133.088 280.934 133.088C281.499 133.088 281.969 132.976 282.342 132.752C282.715 132.528 283.025 132.256 283.27 131.936L284.038 132.72C283.707 133.168 283.286 133.525 282.774 133.792C282.262 134.059 281.627 134.192 280.87 134.192ZM280.758 126.96C280.257 126.96 279.835 127.077 279.494 127.312C279.153 127.547 278.891 127.845 278.71 128.208C278.539 128.571 278.449 128.949 278.438 129.344H283.062C283.051 128.949 282.955 128.571 282.774 128.208C282.603 127.845 282.347 127.547 282.006 127.312C281.675 127.077 281.259 126.96 280.758 126.96ZM286.469 134V126.096H287.685V127.376H287.781C287.952 126.96 288.197 126.613 288.517 126.336C288.848 126.048 289.248 125.904 289.717 125.904C289.909 125.904 290.096 125.925 290.277 125.968C290.469 126 290.64 126.059 290.789 126.144L290.357 127.296C290.219 127.221 290.069 127.173 289.909 127.152C289.76 127.12 289.605 127.104 289.445 127.104C288.923 127.104 288.507 127.317 288.197 127.744C287.899 128.16 287.749 128.693 287.749 129.344V134H286.469ZM291.984 132.304C292.283 132.304 292.518 132.411 292.688 132.624C292.859 132.837 292.944 133.093 292.944 133.392C292.944 133.723 292.875 134.043 292.736 134.352C292.598 134.672 292.4 134.976 292.144 135.264C291.888 135.563 291.584 135.845 291.232 136.112L290.736 135.584C290.95 135.381 291.142 135.157 291.312 134.912C291.483 134.667 291.616 134.395 291.712 134.096C291.499 134.043 291.328 133.936 291.2 133.776C291.083 133.605 291.024 133.419 291.024 133.216C291.024 133.045 291.062 132.896 291.136 132.768C291.222 132.629 291.334 132.517 291.472 132.432C291.622 132.347 291.792 132.304 291.984 132.304ZM137.805 158V150.096H139.021V151.376H139.117C139.288 150.96 139.533 150.613 139.853 150.336C140.184 150.048 140.584 149.904 141.053 149.904C141.245 149.904 141.432 149.925 141.613 149.968C141.805 150 141.976 150.059 142.125 150.144L141.693 151.296C141.555 151.221 141.405 151.173 141.245 151.152C141.096 151.12 140.941 151.104 140.781 151.104C140.259 151.104 139.843 151.317 139.533 151.744C139.235 152.16 139.085 152.693 139.085 153.344V158H137.805ZM146.471 158.192C145.714 158.192 145.053 158.027 144.487 157.696C143.933 157.365 143.501 156.891 143.191 156.272C142.882 155.643 142.727 154.901 142.727 154.048C142.727 153.376 142.813 152.784 142.983 152.272C143.165 151.749 143.415 151.317 143.735 150.976C144.066 150.624 144.45 150.357 144.887 150.176C145.335 149.995 145.826 149.904 146.359 149.904C146.893 149.904 147.378 149.989 147.815 150.16C148.263 150.331 148.647 150.587 148.967 150.928C149.298 151.259 149.554 151.68 149.735 152.192C149.917 152.693 150.007 153.28 150.007 153.952C150.007 154.037 150.002 154.123 149.991 154.208C149.991 154.293 149.986 154.363 149.975 154.416H144.007C144.018 154.907 144.135 155.355 144.359 155.76C144.583 156.165 144.882 156.491 145.255 156.736C145.639 156.971 146.066 157.088 146.535 157.088C147.101 157.088 147.57 156.976 147.943 156.752C148.317 156.528 148.626 156.256 148.871 155.936L149.639 156.72C149.309 157.168 148.887 157.525 148.375 157.792C147.863 158.059 147.229 158.192 146.471 158.192ZM146.359 150.96C145.858 150.96 145.437 151.077 145.095 151.312C144.754 151.547 144.493 151.845 144.311 152.208C144.141 152.571 144.05 152.949 144.039 153.344H148.663C148.653 152.949 148.557 152.571 148.375 152.208C148.205 151.845 147.949 151.547 147.607 151.312C147.277 151.077 146.861 150.96 146.359 150.96ZM152.071 160.96V150.096H153.287V151.712H153.383C153.564 151.168 153.906 150.731 154.407 150.4C154.908 150.069 155.484 149.904 156.135 149.904C156.839 149.904 157.452 150.085 157.975 150.448C158.498 150.8 158.903 151.291 159.191 151.92C159.49 152.549 159.639 153.264 159.639 154.064C159.639 154.864 159.49 155.573 159.191 156.192C158.903 156.811 158.498 157.301 157.975 157.664C157.452 158.016 156.839 158.192 156.135 158.192C155.484 158.192 154.924 158.037 154.455 157.728C153.986 157.419 153.65 157.024 153.447 156.544H153.351V160.96H152.071ZM155.815 157.04C156.284 157.04 156.706 156.933 157.079 156.72C157.463 156.496 157.767 156.16 157.991 155.712C158.215 155.264 158.327 154.709 158.327 154.048C158.327 153.376 158.215 152.821 157.991 152.384C157.767 151.936 157.463 151.605 157.079 151.392C156.706 151.168 156.284 151.056 155.815 151.056C155.367 151.056 154.956 151.168 154.583 151.392C154.21 151.605 153.911 151.936 153.687 152.384C153.463 152.821 153.351 153.376 153.351 154.048C153.351 154.709 153.463 155.264 153.687 155.712C153.911 156.16 154.21 156.496 154.583 156.72C154.956 156.933 155.367 157.04 155.815 157.04ZM161.696 158V146.4H162.976V158H161.696ZM167.44 158.192C166.96 158.192 166.528 158.091 166.144 157.888C165.771 157.685 165.477 157.403 165.264 157.04C165.051 156.677 164.944 156.261 164.944 155.792C164.944 155.333 165.051 154.939 165.264 154.608C165.488 154.267 165.813 153.995 166.24 153.792C166.667 153.589 167.179 153.472 167.776 153.44L169.856 153.312V152.752C169.856 152.347 169.787 152.021 169.648 151.776C169.52 151.52 169.328 151.333 169.072 151.216C168.827 151.088 168.523 151.024 168.16 151.024C167.701 151.024 167.307 151.109 166.976 151.28C166.645 151.451 166.389 151.637 166.208 151.84L165.44 151.072C165.717 150.731 166.096 150.453 166.576 150.24C167.056 150.016 167.595 149.904 168.192 149.904C168.917 149.904 169.493 150.027 169.92 150.272C170.347 150.517 170.651 150.848 170.832 151.264C171.024 151.669 171.12 152.123 171.12 152.624V158H169.92V156.656H169.824C169.621 157.125 169.323 157.499 168.928 157.776C168.533 158.053 168.037 158.192 167.44 158.192ZM167.632 157.104C168.293 157.104 168.827 156.912 169.232 156.528C169.648 156.133 169.856 155.611 169.856 154.96V154.272L167.84 154.416C167.317 154.459 166.917 154.592 166.64 154.816C166.373 155.04 166.24 155.355 166.24 155.76C166.24 156.165 166.368 156.491 166.624 156.736C166.891 156.981 167.227 157.104 167.632 157.104ZM176.704 158.192C175.851 158.192 175.152 157.995 174.608 157.6C174.064 157.205 173.664 156.693 173.408 156.064C173.163 155.424 173.04 154.752 173.04 154.048C173.04 153.333 173.163 152.661 173.408 152.032C173.653 151.403 174.043 150.891 174.576 150.496C175.12 150.101 175.819 149.904 176.672 149.904C177.333 149.904 177.877 150.016 178.304 150.24C178.741 150.464 179.109 150.763 179.408 151.136L178.608 151.888C178.352 151.611 178.08 151.397 177.792 151.248C177.515 151.088 177.152 151.008 176.704 151.008C176.245 151.008 175.835 151.131 175.472 151.376C175.12 151.621 174.843 151.973 174.64 152.432C174.448 152.88 174.352 153.419 174.352 154.048C174.352 154.987 174.576 155.728 175.024 156.272C175.472 156.816 176.043 157.088 176.736 157.088C177.163 157.088 177.531 157.013 177.84 156.864C178.149 156.704 178.437 156.475 178.704 156.176L179.472 156.944C179.173 157.317 178.795 157.621 178.336 157.856C177.888 158.08 177.344 158.192 176.704 158.192ZM184.268 158.192C183.511 158.192 182.85 158.027 182.284 157.696C181.73 157.365 181.298 156.891 180.988 156.272C180.679 155.643 180.524 154.901 180.524 154.048C180.524 153.376 180.61 152.784 180.78 152.272C180.962 151.749 181.212 151.317 181.532 150.976C181.863 150.624 182.247 150.357 182.684 150.176C183.132 149.995 183.623 149.904 184.156 149.904C184.69 149.904 185.175 149.989 185.612 150.16C186.06 150.331 186.444 150.587 186.764 150.928C187.095 151.259 187.351 151.68 187.532 152.192C187.714 152.693 187.804 153.28 187.804 153.952C187.804 154.037 187.799 154.123 187.788 154.208C187.788 154.293 187.783 154.363 187.772 154.416H181.804C181.815 154.907 181.932 155.355 182.156 155.76C182.38 156.165 182.679 156.491 183.052 156.736C183.436 156.971 183.863 157.088 184.332 157.088C184.898 157.088 185.367 156.976 185.74 156.752C186.114 156.528 186.423 156.256 186.668 155.936L187.436 156.72C187.106 157.168 186.684 157.525 186.172 157.792C185.66 158.059 185.026 158.192 184.268 158.192ZM184.156 150.96C183.655 150.96 183.234 151.077 182.892 151.312C182.551 151.547 182.29 151.845 182.108 152.208C181.938 152.571 181.847 152.949 181.836 153.344H186.46C186.45 152.949 186.354 152.571 186.172 152.208C186.002 151.845 185.746 151.547 185.404 151.312C185.074 151.077 184.658 150.96 184.156 150.96ZM193.712 158V150.096H194.928V151.344H195.024C195.216 150.928 195.482 150.587 195.824 150.32C196.176 150.043 196.613 149.904 197.136 149.904C197.765 149.904 198.298 150.021 198.736 150.256C199.173 150.48 199.493 150.821 199.696 151.28C199.856 150.981 200.048 150.731 200.272 150.528C200.496 150.325 200.762 150.171 201.072 150.064C201.392 149.957 201.749 149.904 202.144 149.904C202.73 149.904 203.237 150.011 203.664 150.224C204.09 150.427 204.421 150.752 204.656 151.2C204.89 151.648 205.008 152.229 205.008 152.944V158H203.728V153.184C203.728 152.64 203.653 152.208 203.504 151.888C203.365 151.557 203.157 151.323 202.88 151.184C202.613 151.035 202.277 150.96 201.872 150.96C201.285 150.96 200.826 151.168 200.496 151.584C200.165 152 200 152.608 200 153.408V158H198.72V153.184C198.72 152.64 198.65 152.208 198.512 151.888C198.373 151.557 198.165 151.323 197.888 151.184C197.61 151.035 197.269 150.96 196.864 150.96C196.288 150.96 195.829 151.168 195.488 151.584C195.157 152 194.992 152.608 194.992 153.408V158H193.712ZM210.675 158.192C209.917 158.192 209.256 158.027 208.691 157.696C208.136 157.365 207.704 156.891 207.395 156.272C207.085 155.643 206.931 154.901 206.931 154.048C206.931 153.376 207.016 152.784 207.187 152.272C207.368 151.749 207.619 151.317 207.939 150.976C208.269 150.624 208.653 150.357 209.091 150.176C209.539 149.995 210.029 149.904 210.563 149.904C211.096 149.904 211.581 149.989 212.019 150.16C212.467 150.331 212.851 150.587 213.171 150.928C213.501 151.259 213.757 151.68 213.939 152.192C214.12 152.693 214.211 153.28 214.211 153.952C214.211 154.037 214.205 154.123 214.195 154.208C214.195 154.293 214.189 154.363 214.179 154.416H208.211C208.221 154.907 208.339 155.355 208.563 155.76C208.787 156.165 209.085 156.491 209.459 156.736C209.843 156.971 210.269 157.088 210.739 157.088C211.304 157.088 211.773 156.976 212.147 156.752C212.52 156.528 212.829 156.256 213.075 155.936L213.843 156.72C213.512 157.168 213.091 157.525 212.579 157.792C212.067 158.059 211.432 158.192 210.675 158.192ZM210.563 150.96C210.061 150.96 209.64 151.077 209.299 151.312C208.957 151.547 208.696 151.845 208.515 152.208C208.344 152.571 208.253 152.949 208.243 153.344H212.867C212.856 152.949 212.76 152.571 212.579 152.208C212.408 151.845 212.152 151.547 211.811 151.312C211.48 151.077 211.064 150.96 210.563 150.96ZM221.878 158L219.19 150.096H220.566L222.566 156.672H222.662L224.518 150.096H226.038L227.894 156.672H227.99L229.99 150.096H231.27L228.582 158H227.142L225.286 151.456H225.19L223.35 158H221.878ZM233.055 158V150.096H234.335V158H233.055ZM233.695 148.816C233.429 148.816 233.221 148.736 233.071 148.576C232.922 148.416 232.847 148.224 232.847 148C232.847 147.787 232.922 147.6 233.071 147.44C233.221 147.269 233.429 147.184 233.695 147.184C233.951 147.184 234.154 147.269 234.303 147.44C234.463 147.6 234.543 147.787 234.543 148C234.543 148.224 234.463 148.416 234.303 148.576C234.154 148.736 233.951 148.816 233.695 148.816ZM239.487 158.192C239.018 158.192 238.629 158.096 238.319 157.904C238.01 157.712 237.781 157.435 237.631 157.072C237.493 156.709 237.423 156.283 237.423 155.792V151.136H236.015V150.096H237.423V147.952H238.687V150.096H240.975V151.136H238.687V155.68C238.687 156.192 238.783 156.549 238.975 156.752C239.178 156.955 239.434 157.056 239.743 157.056C239.957 157.056 240.149 157.019 240.319 156.944C240.49 156.859 240.65 156.747 240.799 156.608L241.375 157.504C241.13 157.739 240.847 157.909 240.527 158.016C240.218 158.133 239.871 158.192 239.487 158.192ZM243.118 158V146.4H244.398V151.216H244.494C244.675 150.853 244.936 150.544 245.278 150.288C245.63 150.032 246.067 149.904 246.59 149.904C247.496 149.904 248.211 150.144 248.734 150.624C249.267 151.093 249.534 151.867 249.534 152.944V158H248.254V153.184C248.254 152.373 248.088 151.803 247.758 151.472C247.438 151.131 246.963 150.96 246.334 150.96C245.736 150.96 245.262 151.168 244.91 151.584C244.568 152 244.398 152.608 244.398 153.408V158H243.118ZM258.876 158.192C258.022 158.192 257.324 157.995 256.78 157.6C256.236 157.205 255.836 156.693 255.58 156.064C255.334 155.424 255.212 154.752 255.212 154.048C255.212 153.333 255.334 152.661 255.58 152.032C255.825 151.403 256.214 150.891 256.748 150.496C257.292 150.101 257.99 149.904 258.844 149.904C259.505 149.904 260.049 150.016 260.476 150.24C260.913 150.464 261.281 150.763 261.58 151.136L260.78 151.888C260.524 151.611 260.252 151.397 259.964 151.248C259.686 151.088 259.324 151.008 258.876 151.008C258.417 151.008 258.006 151.131 257.644 151.376C257.292 151.621 257.014 151.973 256.812 152.432C256.62 152.88 256.524 153.419 256.524 154.048C256.524 154.987 256.748 155.728 257.196 156.272C257.644 156.816 258.214 157.088 258.908 157.088C259.334 157.088 259.702 157.013 260.012 156.864C260.321 156.704 260.609 156.475 260.876 156.176L261.644 156.944C261.345 157.317 260.966 157.621 260.508 157.856C260.06 158.08 259.516 158.192 258.876 158.192ZM266.472 158.192C265.63 158.192 264.926 158.005 264.36 157.632C263.806 157.259 263.39 156.757 263.112 156.128C262.835 155.499 262.696 154.805 262.696 154.048C262.696 153.472 262.771 152.933 262.92 152.432C263.08 151.931 263.315 151.493 263.624 151.12C263.944 150.736 264.339 150.437 264.808 150.224C265.288 150.011 265.843 149.904 266.472 149.904C267.315 149.904 268.008 150.091 268.552 150.464C269.107 150.837 269.518 151.339 269.784 151.968C270.062 152.587 270.2 153.28 270.2 154.048C270.2 154.624 270.12 155.163 269.96 155.664C269.811 156.165 269.582 156.608 269.272 156.992C268.963 157.365 268.574 157.659 268.104 157.872C267.646 158.085 267.102 158.192 266.472 158.192ZM264.008 154.048C264.008 154.656 264.099 155.195 264.28 155.664C264.462 156.123 264.734 156.485 265.096 156.752C265.459 157.008 265.918 157.136 266.472 157.136C267.016 157.136 267.464 157.008 267.816 156.752C268.179 156.485 268.446 156.123 268.616 155.664C268.798 155.195 268.888 154.656 268.888 154.048C268.888 153.44 268.798 152.907 268.616 152.448C268.446 151.979 268.179 151.616 267.816 151.36C267.464 151.093 267.016 150.96 266.472 150.96C265.918 150.96 265.459 151.093 265.096 151.36C264.734 151.616 264.462 151.979 264.28 152.448C264.099 152.907 264.008 153.44 264.008 154.048ZM272.258 158V150.096H273.474V151.344H273.57C273.698 151.067 273.864 150.821 274.066 150.608C274.269 150.384 274.509 150.213 274.786 150.096C275.064 149.968 275.378 149.904 275.73 149.904C276.637 149.904 277.352 150.144 277.874 150.624C278.408 151.093 278.674 151.867 278.674 152.944V158H277.394V153.184C277.394 152.373 277.229 151.803 276.898 151.472C276.578 151.131 276.104 150.96 275.474 150.96C274.877 150.96 274.402 151.168 274.05 151.584C273.709 152 273.538 152.608 273.538 153.408V158H272.258ZM283.675 158.192C283.205 158.192 282.816 158.096 282.507 157.904C282.197 157.712 281.968 157.435 281.819 157.072C281.68 156.709 281.611 156.283 281.611 155.792V151.136H280.203V150.096H281.611V147.952H282.875V150.096H285.163V151.136H282.875V155.68C282.875 156.192 282.971 156.549 283.163 156.752C283.365 156.955 283.621 157.056 283.931 157.056C284.144 157.056 284.336 157.019 284.507 156.944C284.677 156.859 284.837 156.747 284.987 156.608L285.563 157.504C285.317 157.739 285.035 157.909 284.715 158.016C284.405 158.133 284.059 158.192 283.675 158.192ZM290.268 158.192C289.511 158.192 288.85 158.027 288.284 157.696C287.73 157.365 287.298 156.891 286.988 156.272C286.679 155.643 286.524 154.901 286.524 154.048C286.524 153.376 286.61 152.784 286.78 152.272C286.962 151.749 287.212 151.317 287.532 150.976C287.863 150.624 288.247 150.357 288.684 150.176C289.132 149.995 289.623 149.904 290.156 149.904C290.69 149.904 291.175 149.989 291.612 150.16C292.06 150.331 292.444 150.587 292.764 150.928C293.095 151.259 293.351 151.68 293.532 152.192C293.714 152.693 293.804 153.28 293.804 153.952C293.804 154.037 293.799 154.123 293.788 154.208C293.788 154.293 293.783 154.363 293.772 154.416H287.804C287.815 154.907 287.932 155.355 288.156 155.76C288.38 156.165 288.679 156.491 289.052 156.736C289.436 156.971 289.863 157.088 290.332 157.088C290.898 157.088 291.367 156.976 291.74 156.752C292.114 156.528 292.423 156.256 292.668 155.936L293.436 156.72C293.106 157.168 292.684 157.525 292.172 157.792C291.66 158.059 291.026 158.192 290.268 158.192ZM290.156 150.96C289.655 150.96 289.234 151.077 288.892 151.312C288.551 151.547 288.29 151.845 288.108 152.208C287.938 152.571 287.847 152.949 287.836 153.344H292.46C292.45 152.949 292.354 152.571 292.172 152.208C292.002 151.845 291.746 151.547 291.404 151.312C291.074 151.077 290.658 150.96 290.156 150.96ZM295.868 158V150.096H297.084V151.344H297.18C297.308 151.067 297.473 150.821 297.676 150.608C297.878 150.384 298.118 150.213 298.396 150.096C298.673 149.968 298.988 149.904 299.34 149.904C300.246 149.904 300.961 150.144 301.484 150.624C302.017 151.093 302.284 151.867 302.284 152.944V158H301.004V153.184C301.004 152.373 300.838 151.803 300.508 151.472C300.188 151.131 299.713 150.96 299.084 150.96C298.486 150.96 298.012 151.168 297.66 151.584C297.318 152 297.148 152.608 297.148 153.408V158H295.868ZM307.284 158.192C306.815 158.192 306.426 158.096 306.116 157.904C305.807 157.712 305.578 157.435 305.428 157.072C305.29 156.709 305.22 156.283 305.22 155.792V151.136H303.812V150.096H305.22V147.952H306.484V150.096H308.772V151.136H306.484V155.68C306.484 156.192 306.58 156.549 306.772 156.752C306.975 156.955 307.231 157.056 307.54 157.056C307.754 157.056 307.946 157.019 308.116 156.944C308.287 156.859 308.447 156.747 308.596 156.608L309.172 157.504C308.927 157.739 308.644 157.909 308.324 158.016C308.015 158.133 307.668 158.192 307.284 158.192Z" fill="black" fill-opacity="0.64"/>
<rect width="288" height="80" transform="translate(79 180)" fill="white"/>
<g clip-path="url(#clip1_16720_13653)">
<path d="M139 220C139 206.745 149.745 196 163 196H213C226.255 196 237 206.745 237 220C237 233.255 226.255 244 213 244H163C149.745 244 139 233.255 139 220Z" fill="white" fill-opacity="0.01"/>
<path d="M164.542 227V214H167.922V224.3H173.202V227H164.542ZM177.687 227.24C177.1 227.24 176.553 227.12 176.047 226.88C175.54 226.64 175.133 226.3 174.827 225.86C174.52 225.407 174.367 224.86 174.367 224.22C174.367 223.62 174.507 223.107 174.787 222.68C175.08 222.24 175.52 221.893 176.107 221.64C176.707 221.387 177.467 221.233 178.387 221.18L180.487 221.06V220.9C180.487 220.527 180.393 220.247 180.207 220.06C180.02 219.86 179.78 219.727 179.487 219.66C179.193 219.58 178.88 219.54 178.547 219.54C178.173 219.54 177.793 219.607 177.407 219.74C177.02 219.873 176.733 220.06 176.547 220.3L174.807 218.5C175.167 218.033 175.693 217.647 176.387 217.34C177.08 217.033 177.987 216.88 179.107 216.88C180.053 216.88 180.867 217.027 181.547 217.32C182.227 217.613 182.747 218.047 183.107 218.62C183.48 219.18 183.667 219.867 183.667 220.68V227H180.687V225.48H180.567C180.313 226 179.947 226.427 179.467 226.76C178.987 227.08 178.393 227.24 177.687 227.24ZM178.767 225.08C179.273 225.08 179.687 224.94 180.007 224.66C180.327 224.38 180.487 223.967 180.487 223.42V222.9L178.827 223.02C178.4 223.047 178.08 223.153 177.867 223.34C177.667 223.527 177.567 223.773 177.567 224.08C177.567 224.413 177.68 224.667 177.907 224.84C178.147 225 178.433 225.08 178.767 225.08ZM191.852 227.24C191.118 227.24 190.485 227.067 189.952 226.72C189.432 226.36 189.045 225.867 188.792 225.24H188.672V227H185.652V212.5H188.832V218.74H188.952C189.165 218.193 189.518 217.747 190.012 217.4C190.505 217.053 191.118 216.88 191.852 216.88C192.638 216.88 193.345 217.107 193.972 217.56C194.612 218 195.118 218.613 195.492 219.4C195.865 220.187 196.052 221.107 196.052 222.16C196.052 223.173 195.865 224.06 195.492 224.82C195.118 225.58 194.612 226.173 193.972 226.6C193.345 227.027 192.638 227.24 191.852 227.24ZM190.812 224.5C191.238 224.5 191.598 224.393 191.892 224.18C192.185 223.953 192.405 223.66 192.552 223.3C192.712 222.927 192.792 222.513 192.792 222.06C192.792 221.607 192.712 221.2 192.552 220.84C192.405 220.467 192.185 220.173 191.892 219.96C191.598 219.733 191.238 219.62 190.812 219.62C190.385 219.62 190.018 219.733 189.712 219.96C189.418 220.173 189.198 220.467 189.052 220.84C188.905 221.2 188.832 221.607 188.832 222.06C188.832 222.513 188.905 222.927 189.052 223.3C189.198 223.66 189.418 223.953 189.712 224.18C190.018 224.393 190.385 224.5 190.812 224.5ZM202.184 227.24C200.984 227.24 200.004 226.993 199.244 226.5C198.484 225.993 197.924 225.347 197.564 224.56C197.218 223.773 197.044 222.94 197.044 222.06C197.044 221.393 197.131 220.753 197.304 220.14C197.491 219.527 197.778 218.973 198.164 218.48C198.551 217.987 199.058 217.6 199.684 217.32C200.324 217.027 201.098 216.88 202.004 216.88C202.911 216.88 203.678 217.02 204.304 217.3C204.931 217.58 205.431 217.967 205.804 218.46C206.191 218.94 206.464 219.487 206.624 220.1C206.798 220.7 206.884 221.327 206.884 221.98C206.884 222.127 206.871 222.32 206.844 222.56C206.818 222.787 206.784 222.96 206.744 223.08H200.264C200.344 223.467 200.498 223.773 200.724 224C200.964 224.227 201.231 224.393 201.524 224.5C201.831 224.593 202.111 224.64 202.364 224.64C202.831 224.64 203.231 224.567 203.564 224.42C203.911 224.273 204.178 224.08 204.364 223.84L206.104 225.66C205.784 226.113 205.278 226.493 204.584 226.8C203.891 227.093 203.091 227.24 202.184 227.24ZM202.004 219.24C201.724 219.24 201.458 219.3 201.204 219.42C200.964 219.527 200.751 219.707 200.564 219.96C200.391 220.213 200.271 220.553 200.204 220.98H203.764C203.711 220.553 203.591 220.213 203.404 219.96C203.231 219.707 203.024 219.527 202.784 219.42C202.544 219.3 202.284 219.24 202.004 219.24ZM208.425 227V212.5H211.605V227H208.425Z" fill="#242E30"/>
</g>
<g clip-path="url(#clip2_16720_13653)">
<path d="M253 220C253 206.745 263.745 196 277 196H327C340.255 196 351 206.745 351 220C351 233.255 340.255 244 327 244H277C263.745 244 253 233.255 253 220Z" fill="#F36805"/>
<path d="M253 220C253 206.745 263.745 196 277 196H327C340.255 196 351 206.745 351 220C351 233.255 340.255 244 327 244H277C263.745 244 253 233.255 253 220Z" fill="white" fill-opacity="0.01"/>
<path d="M278.542 227V214H281.922V224.3H287.202V227H278.542ZM291.687 227.24C291.1 227.24 290.553 227.12 290.047 226.88C289.54 226.64 289.133 226.3 288.827 225.86C288.52 225.407 288.367 224.86 288.367 224.22C288.367 223.62 288.507 223.107 288.787 222.68C289.08 222.24 289.52 221.893 290.107 221.64C290.707 221.387 291.467 221.233 292.387 221.18L294.487 221.06V220.9C294.487 220.527 294.393 220.247 294.207 220.06C294.02 219.86 293.78 219.727 293.487 219.66C293.193 219.58 292.88 219.54 292.547 219.54C292.173 219.54 291.793 219.607 291.407 219.74C291.02 219.873 290.733 220.06 290.547 220.3L288.807 218.5C289.167 218.033 289.693 217.647 290.387 217.34C291.08 217.033 291.987 216.88 293.107 216.88C294.053 216.88 294.867 217.027 295.547 217.32C296.227 217.613 296.747 218.047 297.107 218.62C297.48 219.18 297.667 219.867 297.667 220.68V227H294.687V225.48H294.567C294.313 226 293.947 226.427 293.467 226.76C292.987 227.08 292.393 227.24 291.687 227.24ZM292.767 225.08C293.273 225.08 293.687 224.94 294.007 224.66C294.327 224.38 294.487 223.967 294.487 223.42V222.9L292.827 223.02C292.4 223.047 292.08 223.153 291.867 223.34C291.667 223.527 291.567 223.773 291.567 224.08C291.567 224.413 291.68 224.667 291.907 224.84C292.147 225 292.433 225.08 292.767 225.08ZM305.852 227.24C305.118 227.24 304.485 227.067 303.952 226.72C303.432 226.36 303.045 225.867 302.792 225.24H302.672V227H299.652V212.5H302.832V218.74H302.952C303.165 218.193 303.518 217.747 304.012 217.4C304.505 217.053 305.118 216.88 305.852 216.88C306.638 216.88 307.345 217.107 307.972 217.56C308.612 218 309.118 218.613 309.492 219.4C309.865 220.187 310.052 221.107 310.052 222.16C310.052 223.173 309.865 224.06 309.492 224.82C309.118 225.58 308.612 226.173 307.972 226.6C307.345 227.027 306.638 227.24 305.852 227.24ZM304.812 224.5C305.238 224.5 305.598 224.393 305.892 224.18C306.185 223.953 306.405 223.66 306.552 223.3C306.712 222.927 306.792 222.513 306.792 222.06C306.792 221.607 306.712 221.2 306.552 220.84C306.405 220.467 306.185 220.173 305.892 219.96C305.598 219.733 305.238 219.62 304.812 219.62C304.385 219.62 304.018 219.733 303.712 219.96C303.418 220.173 303.198 220.467 303.052 220.84C302.905 221.2 302.832 221.607 302.832 222.06C302.832 222.513 302.905 222.927 303.052 223.3C303.198 223.66 303.418 223.953 303.712 224.18C304.018 224.393 304.385 224.5 304.812 224.5ZM316.184 227.24C314.984 227.24 314.004 226.993 313.244 226.5C312.484 225.993 311.924 225.347 311.564 224.56C311.218 223.773 311.044 222.94 311.044 222.06C311.044 221.393 311.131 220.753 311.304 220.14C311.491 219.527 311.778 218.973 312.164 218.48C312.551 217.987 313.058 217.6 313.684 217.32C314.324 217.027 315.098 216.88 316.004 216.88C316.911 216.88 317.678 217.02 318.304 217.3C318.931 217.58 319.431 217.967 319.804 218.46C320.191 218.94 320.464 219.487 320.624 220.1C320.798 220.7 320.884 221.327 320.884 221.98C320.884 222.127 320.871 222.32 320.844 222.56C320.818 222.787 320.784 222.96 320.744 223.08H314.264C314.344 223.467 314.498 223.773 314.724 224C314.964 224.227 315.231 224.393 315.524 224.5C315.831 224.593 316.111 224.64 316.364 224.64C316.831 224.64 317.231 224.567 317.564 224.42C317.911 224.273 318.178 224.08 318.364 223.84L320.104 225.66C319.784 226.113 319.278 226.493 318.584 226.8C317.891 227.093 317.091 227.24 316.184 227.24ZM316.004 219.24C315.724 219.24 315.458 219.3 315.204 219.42C314.964 219.527 314.751 219.707 314.564 219.96C314.391 220.213 314.271 220.553 314.204 220.98H317.764C317.711 220.553 317.591 220.213 317.404 219.96C317.231 219.707 317.024 219.527 316.784 219.42C316.544 219.3 316.284 219.24 316.004 219.24ZM322.425 227V212.5H325.605V227H322.425Z" fill="white"/>
</g>
</g>
</g>
<circle cx="12" cy="220.125" r="12" fill="#2B2A28"/>
<path d="M8.95987 223.627H11.4099L11.4099 217.985L9.29587 218.839L8.69387 217.523L11.9419 216.025H13.2719L13.2719 223.627H15.4559L15.4559 225.125H8.95987L8.95987 223.627Z" fill="white" fill-opacity="0.9"/>
<rect x="24" y="219.625" width="55" height="1" rx="0.5" fill="#FF8000"/>
<rect x="79.5" y="180.625" width="287" height="79" stroke="#F36805" stroke-dasharray="4 4"/>
<defs>
<filter id="filter0_ddd_16720_13653" x="65" y="0" width="316" height="276" filterUnits="userSpaceOnUse" color-interpolation-filters="sRGB">
<feFlood flood-opacity="0" result="BackgroundImageFix"/>
<feColorMatrix in="SourceAlpha" type="matrix" values="0 0 0 0 0 0 0 0 0 0 0 0 0 0 0 0 0 0 127 0" result="hardAlpha"/>
<feOffset dy="3"/>
<feGaussianBlur stdDeviation="2"/>
<feColorMatrix type="matrix" values="0 0 0 0 0 0 0 0 0 0 0 0 0 0 0 0 0 0 0.04 0"/>
<feBlend mode="normal" in2="BackgroundImageFix" result="effect1_dropShadow_16720_13653"/>
<feColorMatrix in="SourceAlpha" type="matrix" values="0 0 0 0 0 0 0 0 0 0 0 0 0 0 0 0 0 0 127 0" result="hardAlpha"/>
<feMorphology radius="2" operator="dilate" in="SourceAlpha" result="effect2_dropShadow_16720_13653"/>
<feOffset dy="2"/>
<feGaussianBlur stdDeviation="6"/>
<feColorMatrix type="matrix" values="0 0 0 0 0 0 0 0 0 0 0 0 0 0 0 0 0 0 0.04 0"/>
<feBlend mode="normal" in2="effect1_dropShadow_16720_13653" result="effect2_dropShadow_16720_13653"/>
<feColorMatrix in="SourceAlpha" type="matrix" values="0 0 0 0 0 0 0 0 0 0 0 0 0 0 0 0 0 0 127 0" result="hardAlpha"/>
<feOffset dy="4"/>
<feGaussianBlur stdDeviation="3"/>
<feColorMatrix type="matrix" values="0 0 0 0 0 0 0 0 0 0 0 0 0 0 0 0 0 0 0.02 0"/>
<feBlend mode="normal" in2="effect2_dropShadow_16720_13653" result="effect3_dropShadow_16720_13653"/>
<feBlend mode="normal" in="SourceGraphic" in2="effect3_dropShadow_16720_13653" result="shape"/>
</filter>
<clipPath id="clip0_16720_13653">
<path d="M79 28C79 19.1634 86.1634 12 95 12H351C359.837 12 367 19.1634 367 28V244C367 252.837 359.837 260 351 260H95C86.1635 260 79 252.837 79 244V28Z" fill="white"/>
</clipPath>
<clipPath id="clip1_16720_13653">
<path d="M139 220C139 206.745 149.745 196 163 196H213C226.255 196 237 206.745 237 220C237 233.255 226.255 244 213 244H163C149.745 244 139 233.255 139 220Z" fill="white"/>
</clipPath>
<clipPath id="clip2_16720_13653">
<path d="M253 220C253 206.745 263.745 196 277 196H327C340.255 196 351 206.745 351 220C351 233.255 340.255 244 327 244H277C263.745 244 253 233.255 253 220Z" fill="white"/>
</clipPath>
</defs>
</svg>
