<svg width="394" height="314" viewBox="0 0 394 314" fill="none" xmlns="http://www.w3.org/2000/svg">
<g filter="url(#filter0_ddd_507_16998)">
<g clip-path="url(#clip0_507_16998)">
<path d="M17 25C17 16.1634 24.1634 9 33 9H361C369.837 9 377 16.1634 377 25V273C377 281.837 369.837 289 361 289H33C24.1634 289 17 281.837 17 273V25Z" fill="white"/>
<rect width="360" height="72" transform="translate(17 9)" fill="white"/>
<path d="M45.704 40.64H41.432V37.4H54.032V40.64H49.76V53H45.704V40.64ZM59.8051 37.736C59.8051 38.28 59.6211 38.768 59.2531 39.2C58.8851 39.616 58.3491 39.824 57.6451 39.824C56.9251 39.824 56.3891 39.616 56.0371 39.2C55.6851 38.768 55.5091 38.28 55.5091 37.736C55.5091 37.192 55.6851 36.712 56.0371 36.296C56.3891 35.864 56.9251 35.648 57.6451 35.648C58.3491 35.648 58.8851 35.864 59.2531 36.296C59.6211 36.712 59.8051 37.192 59.8051 37.736ZM55.7251 41.144H59.5411V53H55.7251V41.144ZM67.2847 53.264C65.7807 53.264 64.6927 52.888 64.0207 52.136C63.3647 51.384 63.0367 50.184 63.0367 48.536V44.192H61.3327V41.144H63.0367V37.928H66.8047V41.144H70.3087V44.192H66.8047V48.608C66.8047 49.136 66.8927 49.52 67.0687 49.76C67.2607 50 67.5727 50.12 68.0047 50.12C68.2927 50.12 68.5647 50.064 68.8207 49.952C69.0927 49.824 69.3167 49.672 69.4927 49.496L70.7167 52.088C69.9327 52.872 68.7887 53.264 67.2847 53.264ZM72.3423 35.6H76.1583V53H72.3423V35.6ZM84.1659 53.288C83.0779 53.288 82.1419 53.112 81.3579 52.76C80.5899 52.408 79.9579 51.944 79.4619 51.368C78.9659 50.792 78.5979 50.136 78.3579 49.4C78.1179 48.648 77.9979 47.872 77.9979 47.072C77.9979 46.288 78.1019 45.52 78.3099 44.768C78.5339 44.016 78.8779 43.352 79.3419 42.776C79.8219 42.2 80.4379 41.736 81.1899 41.384C81.9419 41.032 82.8619 40.856 83.9499 40.856C85.0379 40.856 85.9579 41.032 86.7099 41.384C87.4619 41.72 88.0619 42.176 88.5099 42.752C88.9739 43.312 89.3019 43.96 89.4939 44.696C89.7019 45.432 89.8059 46.192 89.8059 46.976C89.8059 47.152 89.7899 47.384 89.7579 47.672C89.7259 47.944 89.6859 48.152 89.6379 48.296H81.8619C81.9259 48.648 82.0459 48.944 82.2219 49.184C82.4139 49.424 82.6299 49.616 82.8699 49.76C83.1099 49.904 83.3579 50.008 83.6139 50.072C83.8859 50.136 84.1419 50.168 84.3819 50.168C84.9419 50.168 85.4219 50.08 85.8219 49.904C86.2379 49.728 86.5579 49.496 86.7819 49.208L88.8699 51.392C88.4859 51.952 87.8779 52.408 87.0459 52.76C86.2139 53.112 85.2539 53.288 84.1659 53.288ZM83.9499 43.688C83.4379 43.688 82.9819 43.848 82.5819 44.168C82.1819 44.472 81.9179 45.008 81.7899 45.776H86.0619C85.9499 45.008 85.6939 44.472 85.2939 44.168C84.8939 43.848 84.4459 43.688 83.9499 43.688Z" fill="#242E30"/>
<path d="M317 45C317 31.7452 327.745 21 341 21V21C354.255 21 365 31.7452 365 45V45C365 58.2548 354.255 69 341 69V69C327.745 69 317 58.2548 317 45V45Z" fill="white" fill-opacity="0.01"/>
<path d="M346.801 37.8076L341 43.6089L335.199 37.8076L333.807 39.1989L339.609 45.0002L333.807 50.8014L335.199 52.1927L341 46.3914L346.801 52.1927L348.193 50.8014L342.391 45.0002L348.193 39.1989L346.801 37.8076Z" fill="#242E30"/>
<g clip-path="url(#clip1_507_16998)">
<path d="M41 93C41 88.5817 44.5817 85 49 85H345C349.418 85 353 88.5817 353 93V181C353 185.418 349.418 189 345 189H49C44.5817 189 41 185.418 41 181V93Z" fill="black" fill-opacity="0.04"/>
<path fill-rule="evenodd" clip-rule="evenodd" d="M47.4387 188.848L47.6328 187.867C48.0742 187.954 48.5312 188 49 188H51V189H49C48.4657 189 47.9437 188.948 47.4387 188.848ZM343 189V188H345C345.469 188 345.926 187.954 346.367 187.867L346.561 188.848C346.056 188.948 345.534 189 345 189H343ZM349.445 187.653L348.889 186.822C349.652 186.31 350.31 185.652 350.822 184.889L351.653 185.445C351.068 186.317 350.317 187.068 349.445 187.653ZM353 95H352V93C352 92.5312 351.954 92.0742 351.867 91.6328L352.848 91.4387C352.948 91.9437 353 92.4657 353 93V95ZM351.653 88.5551L350.822 89.1114C350.31 88.3476 349.652 87.6898 348.889 87.1784L349.445 86.3475C350.317 86.9315 351.068 87.6827 351.653 88.5551ZM51 85H49C48.4657 85 47.9437 85.0524 47.4387 85.1523L47.6328 86.1333C48.0742 86.0459 48.5312 86 49 86H51V85ZM44.5551 86.3475L45.1114 87.1784C44.3476 87.6898 43.6898 88.3476 43.1784 89.1114L42.3475 88.5551C42.9315 87.6827 43.6827 86.9315 44.5551 86.3475ZM41 179H42V181C42 181.469 42.0459 181.926 42.1333 182.367L41.1523 182.561C41.0524 182.056 41 181.534 41 181V179ZM42.3475 185.445L43.1784 184.889C43.6898 185.652 44.3476 186.31 45.1114 186.822L44.5551 187.653C43.6827 187.068 42.9315 186.317 42.3475 185.445ZM41 175H42V171H41V175ZM41 167H42V163H41V167ZM41 159H42V155H41V159ZM41 151H42V147H41V151ZM41 143H42V139H41V143ZM41 135H42V131H41V135ZM41 127H42V123H41V127ZM41 119H42V115H41V119ZM41 111H42V107H41V111ZM41 103H42V99H41V103ZM41 95H42V93C42 92.5312 42.0459 92.0742 42.1333 91.6328L41.1523 91.4387C41.0524 91.9437 41 92.4657 41 93V95ZM55 85V86H59V85H55ZM63 85V86H67V85H63ZM71 85V86H75V85H71ZM79 85V86H83V85H79ZM87 85V86H91V85H87ZM95 85V86H99V85H95ZM103 85V86H107V85H103ZM111 85V86H115V85H111ZM119 85V86H123V85H119ZM127 85V86H131V85H127ZM135 85V86H139V85H135ZM143 85V86H147V85H143ZM151 85V86H155V85H151ZM159 85V86H163V85H159ZM167 85V86H171V85H167ZM175 85V86H179V85H175ZM183 85V86H187V85H183ZM191 85V86H195V85H191ZM199 85V86H203V85H199ZM207 85V86H211V85H207ZM215 85V86H219V85H215ZM223 85V86H227V85H223ZM231 85V86H235V85H231ZM239 85V86H243V85H239ZM247 85V86H251V85H247ZM255 85V86H259V85H255ZM263 85V86H267V85H263ZM271 85V86H275V85H271ZM279 85V86H283V85H279ZM287 85V86H291V85H287ZM295 85V86H299V85H295ZM303 85V86H307V85H303ZM311 85V86H315V85H311ZM319 85V86H323V85H319ZM327 85V86H331V85H327ZM335 85V86H339V85H335ZM343 85V86H345C345.469 86 345.926 86.0459 346.367 86.1333L346.561 85.1523C346.056 85.0524 345.534 85 345 85H343ZM353 99H352V103H353V99ZM353 107H352V111H353V107ZM353 115H352V119H353V115ZM353 123H352V127H353V123ZM353 131H352V135H353V131ZM353 139H352V143H353V139ZM353 147H352V151H353V147ZM353 155H352V159H353V155ZM353 163H352V167H353V163ZM353 171H352V175H353V171ZM353 179H352V181C352 181.469 351.954 181.926 351.867 182.367L352.848 182.561C352.948 182.056 353 181.534 353 181V179ZM339 189V188H335V189H339ZM331 189V188H327V189H331ZM323 189V188H319V189H323ZM315 189V188H311V189H315ZM307 189V188H303V189H307ZM299 189V188H295V189H299ZM291 189V188H287V189H291ZM283 189V188H279V189H283ZM275 189V188H271V189H275ZM267 189V188H263V189H267ZM259 189V188H255V189H259ZM251 189V188H247V189H251ZM243 189V188H239V189H243ZM235 189V188H231V189H235ZM227 189V188H223V189H227ZM219 189V188H215V189H219ZM211 189V188H207V189H211ZM203 189V188H199V189H203ZM195 189V188H191V189H195ZM187 189V188H183V189H187ZM179 189V188H175V189H179ZM171 189V188H167V189H171ZM163 189V188H159V189H163ZM155 189V188H151V189H155ZM147 189V188H143V189H147ZM139 189V188H135V189H139ZM131 189V188H127V189H131ZM123 189V188H119V189H123ZM115 189V188H111V189H115ZM107 189V188H103V189H107ZM99 189V188H95V189H99ZM91 189V188H87V189H91ZM83 189V188H79V189H83ZM75 189V188H71V189H75ZM67 189V188H63V189H67ZM59 189V188H55V189H59Z" fill="#242E30"/>
<path d="M187.031 115.192C186.082 115.192 185.298 115.048 184.679 114.76C184.06 114.461 183.548 114.067 183.143 113.576L184.519 112.296C184.818 112.627 185.164 112.899 185.559 113.112C185.964 113.325 186.471 113.432 187.079 113.432C187.57 113.432 187.991 113.325 188.343 113.112C188.695 112.899 188.871 112.557 188.871 112.088C188.871 111.864 188.812 111.683 188.695 111.544C188.588 111.395 188.428 111.267 188.215 111.16C188.012 111.043 187.756 110.936 187.447 110.84C187.148 110.744 186.807 110.637 186.423 110.52C186.06 110.413 185.703 110.285 185.351 110.136C184.999 109.976 184.684 109.784 184.407 109.56C184.14 109.325 183.922 109.043 183.751 108.712C183.591 108.371 183.511 107.96 183.511 107.48C183.511 106.989 183.602 106.552 183.783 106.168C183.975 105.784 184.236 105.464 184.567 105.208C184.908 104.941 185.314 104.744 185.783 104.616C186.252 104.477 186.77 104.408 187.335 104.408C188.188 104.408 188.914 104.547 189.511 104.824C190.108 105.091 190.594 105.475 190.967 105.976L189.591 107.272C189.335 106.963 189.02 106.707 188.647 106.504C188.284 106.291 187.842 106.184 187.319 106.184C187.106 106.184 186.898 106.205 186.695 106.248C186.503 106.291 186.332 106.365 186.183 106.472C186.034 106.568 185.911 106.696 185.815 106.856C185.73 107.005 185.687 107.192 185.687 107.416C185.687 107.64 185.74 107.827 185.847 107.976C185.964 108.125 186.124 108.259 186.327 108.376C186.54 108.483 186.796 108.584 187.095 108.68C187.394 108.776 187.735 108.883 188.119 109C188.482 109.117 188.839 109.251 189.191 109.4C189.543 109.549 189.858 109.741 190.135 109.976C190.412 110.2 190.631 110.483 190.791 110.824C190.962 111.155 191.047 111.56 191.047 112.04C191.047 112.552 190.946 113.005 190.743 113.4C190.551 113.795 190.274 114.125 189.911 114.392C189.559 114.648 189.138 114.845 188.647 114.984C188.156 115.123 187.618 115.192 187.031 115.192ZM192.72 103.4H194.736V115H192.72V103.4ZM200.301 115.192C199.639 115.192 199.058 115.085 198.557 114.872C198.066 114.648 197.65 114.349 197.309 113.976C196.978 113.603 196.727 113.165 196.557 112.664C196.397 112.152 196.317 111.613 196.317 111.048C196.317 110.483 196.397 109.949 196.557 109.448C196.727 108.947 196.978 108.509 197.309 108.136C197.65 107.752 198.066 107.453 198.557 107.24C199.058 107.016 199.639 106.904 200.301 106.904C200.962 106.904 201.538 107.016 202.029 107.24C202.53 107.453 202.941 107.752 203.261 108.136C203.591 108.509 203.837 108.947 203.997 109.448C204.167 109.949 204.253 110.483 204.253 111.048C204.253 111.613 204.167 112.152 203.997 112.664C203.837 113.165 203.591 113.603 203.261 113.976C202.941 114.349 202.53 114.648 202.029 114.872C201.538 115.085 200.962 115.192 200.301 115.192ZM198.381 111.048C198.381 111.827 198.546 112.44 198.877 112.888C199.218 113.336 199.693 113.56 200.301 113.56C200.898 113.56 201.362 113.336 201.693 112.888C202.034 112.44 202.205 111.827 202.205 111.048C202.205 110.269 202.034 109.656 201.693 109.208C201.362 108.76 200.898 108.536 200.301 108.536C199.693 108.536 199.218 108.76 198.877 109.208C198.546 109.656 198.381 110.269 198.381 111.048ZM208.854 115.176C207.979 115.176 207.339 114.941 206.934 114.472C206.539 114.003 206.342 113.293 206.342 112.344V108.712H205.094V107.096H206.342V104.952H208.342V107.096H210.646V108.712H208.342V112.328C208.342 112.744 208.416 113.043 208.566 113.224C208.715 113.395 208.939 113.48 209.238 113.48C209.451 113.48 209.643 113.443 209.814 113.368C209.984 113.283 210.134 113.181 210.262 113.064L210.982 114.44C210.715 114.696 210.411 114.883 210.07 115C209.728 115.117 209.323 115.176 208.854 115.176Z" fill="#242E30"/>
<path d="M125.516 137.752H122.556V136.6H129.836V137.752H126.876V147H125.516V137.752ZM131.579 135.4H132.859V140.216H132.955C133.136 139.853 133.397 139.544 133.739 139.288C134.08 139.032 134.517 138.904 135.051 138.904C135.957 138.904 136.672 139.144 137.195 139.624C137.728 140.104 137.995 140.877 137.995 141.944V147H136.715V142.184C136.715 141.373 136.549 140.803 136.219 140.472C135.899 140.131 135.424 139.96 134.795 139.96C134.187 139.96 133.712 140.168 133.371 140.584C133.029 141 132.859 141.608 132.859 142.408V147H131.579V135.4ZM141.973 137C141.973 137.224 141.893 137.416 141.733 137.576C141.584 137.736 141.381 137.816 141.125 137.816C140.858 137.816 140.65 137.736 140.501 137.576C140.352 137.416 140.277 137.224 140.277 137C140.277 136.787 140.352 136.6 140.501 136.44C140.65 136.269 140.858 136.184 141.125 136.184C141.381 136.184 141.584 136.269 141.733 136.44C141.893 136.6 141.973 136.787 141.973 137ZM140.485 139.096H141.765V147H140.485V139.096ZM148.293 144.952C148.293 144.717 148.24 144.525 148.133 144.376C148.026 144.216 147.877 144.083 147.685 143.976C147.504 143.869 147.296 143.779 147.061 143.704C146.826 143.629 146.581 143.555 146.325 143.48C146.026 143.395 145.738 143.293 145.461 143.176C145.194 143.059 144.954 142.915 144.741 142.744C144.528 142.563 144.357 142.349 144.229 142.104C144.101 141.859 144.037 141.56 144.037 141.208C144.037 140.835 144.106 140.504 144.245 140.216C144.384 139.928 144.576 139.688 144.821 139.496C145.066 139.304 145.354 139.16 145.685 139.064C146.016 138.957 146.373 138.904 146.757 138.904C147.333 138.904 147.861 139.011 148.341 139.224C148.821 139.427 149.216 139.747 149.525 140.184L148.693 140.952C148.458 140.675 148.181 140.445 147.861 140.264C147.552 140.083 147.184 139.992 146.757 139.992C146.576 139.992 146.394 140.013 146.213 140.056C146.042 140.099 145.888 140.168 145.749 140.264C145.61 140.349 145.498 140.461 145.413 140.6C145.328 140.739 145.285 140.904 145.285 141.096C145.285 141.331 145.338 141.528 145.445 141.688C145.552 141.837 145.696 141.965 145.877 142.072C146.069 142.179 146.282 142.269 146.517 142.344C146.752 142.419 146.997 142.493 147.253 142.568C147.552 142.653 147.834 142.755 148.101 142.872C148.378 142.989 148.624 143.139 148.837 143.32C149.05 143.491 149.221 143.699 149.349 143.944C149.477 144.189 149.541 144.488 149.541 144.84C149.541 145.256 149.461 145.613 149.301 145.912C149.152 146.2 148.944 146.44 148.677 146.632C148.41 146.824 148.101 146.963 147.749 147.048C147.397 147.144 147.024 147.192 146.629 147.192C145.936 147.192 145.344 147.075 144.853 146.84C144.373 146.605 143.994 146.301 143.717 145.928L144.565 145.128C144.81 145.416 145.093 145.651 145.413 145.832C145.744 146.013 146.154 146.104 146.645 146.104C146.869 146.104 147.077 146.083 147.269 146.04C147.472 145.997 147.648 145.928 147.797 145.832C147.946 145.736 148.064 145.619 148.149 145.48C148.245 145.331 148.293 145.155 148.293 144.952ZM157.082 137C157.082 137.224 157.002 137.416 156.842 137.576C156.693 137.736 156.49 137.816 156.234 137.816C155.968 137.816 155.76 137.736 155.61 137.576C155.461 137.416 155.386 137.224 155.386 137C155.386 136.787 155.461 136.6 155.61 136.44C155.76 136.269 155.968 136.184 156.234 136.184C156.49 136.184 156.693 136.269 156.842 136.44C157.002 136.6 157.082 136.787 157.082 137ZM155.594 139.096H156.874V147H155.594V139.096ZM163.402 144.952C163.402 144.717 163.349 144.525 163.242 144.376C163.136 144.216 162.986 144.083 162.794 143.976C162.613 143.869 162.405 143.779 162.17 143.704C161.936 143.629 161.69 143.555 161.434 143.48C161.136 143.395 160.848 143.293 160.57 143.176C160.304 143.059 160.064 142.915 159.85 142.744C159.637 142.563 159.466 142.349 159.338 142.104C159.21 141.859 159.146 141.56 159.146 141.208C159.146 140.835 159.216 140.504 159.354 140.216C159.493 139.928 159.685 139.688 159.93 139.496C160.176 139.304 160.464 139.16 160.794 139.064C161.125 138.957 161.482 138.904 161.866 138.904C162.442 138.904 162.97 139.011 163.45 139.224C163.93 139.427 164.325 139.747 164.634 140.184L163.802 140.952C163.568 140.675 163.29 140.445 162.97 140.264C162.661 140.083 162.293 139.992 161.866 139.992C161.685 139.992 161.504 140.013 161.322 140.056C161.152 140.099 160.997 140.168 160.858 140.264C160.72 140.349 160.608 140.461 160.522 140.6C160.437 140.739 160.394 140.904 160.394 141.096C160.394 141.331 160.448 141.528 160.554 141.688C160.661 141.837 160.805 141.965 160.986 142.072C161.178 142.179 161.392 142.269 161.626 142.344C161.861 142.419 162.106 142.493 162.362 142.568C162.661 142.653 162.944 142.755 163.21 142.872C163.488 142.989 163.733 143.139 163.946 143.32C164.16 143.491 164.33 143.699 164.458 143.944C164.586 144.189 164.65 144.488 164.65 144.84C164.65 145.256 164.57 145.613 164.41 145.912C164.261 146.2 164.053 146.44 163.786 146.632C163.52 146.824 163.21 146.963 162.858 147.048C162.506 147.144 162.133 147.192 161.738 147.192C161.045 147.192 160.453 147.075 159.962 146.84C159.482 146.605 159.104 146.301 158.826 145.928L159.674 145.128C159.92 145.416 160.202 145.651 160.522 145.832C160.853 146.013 161.264 146.104 161.754 146.104C161.978 146.104 162.186 146.083 162.378 146.04C162.581 145.997 162.757 145.928 162.906 145.832C163.056 145.736 163.173 145.619 163.258 145.48C163.354 145.331 163.402 145.155 163.402 144.952ZM172.448 147.192C172.085 147.192 171.749 147.133 171.44 147.016C171.141 146.899 170.88 146.733 170.656 146.52C170.432 146.307 170.256 146.056 170.128 145.768C170.01 145.469 169.952 145.144 169.952 144.792C169.952 144.109 170.197 143.56 170.688 143.144C171.178 142.728 171.877 142.493 172.784 142.44L174.864 142.312V141.752C174.864 141.144 174.714 140.707 174.416 140.44C174.128 140.163 173.712 140.024 173.168 140.024C172.709 140.024 172.314 140.109 171.984 140.28C171.653 140.451 171.397 140.637 171.216 140.84L170.448 140.072C170.725 139.731 171.098 139.453 171.568 139.24C172.048 139.016 172.592 138.904 173.2 138.904C173.744 138.904 174.202 138.979 174.576 139.128C174.949 139.267 175.248 139.459 175.472 139.704C175.706 139.949 175.872 140.237 175.968 140.568C176.074 140.899 176.128 141.251 176.128 141.624V147H174.928V145.656H174.832C174.618 146.136 174.32 146.515 173.936 146.792C173.552 147.059 173.056 147.192 172.448 147.192ZM172.64 146.104C173.301 146.104 173.834 145.912 174.24 145.528C174.656 145.133 174.864 144.611 174.864 143.96V143.272L172.848 143.416C171.781 143.501 171.248 143.949 171.248 144.76C171.248 145.165 171.376 145.491 171.632 145.736C171.898 145.981 172.234 146.104 172.64 146.104ZM182.548 139.096H183.764V140.712H183.86C183.956 140.445 184.089 140.2 184.26 139.976C184.441 139.752 184.649 139.56 184.884 139.4C185.129 139.24 185.396 139.117 185.684 139.032C185.982 138.947 186.292 138.904 186.612 138.904C187.134 138.904 187.609 139.011 188.036 139.224C188.473 139.427 188.846 139.715 189.156 140.088C189.465 140.451 189.7 140.888 189.86 141.4C190.03 141.912 190.116 142.467 190.116 143.064C190.116 143.661 190.03 144.216 189.86 144.728C189.7 145.229 189.465 145.667 189.156 146.04C188.846 146.403 188.473 146.685 188.036 146.888C187.609 147.091 187.134 147.192 186.612 147.192C185.961 147.192 185.401 147.037 184.932 146.728C184.462 146.419 184.126 146.024 183.924 145.544H183.828V149.96H182.548V139.096ZM186.292 146.04C186.644 146.04 186.969 145.981 187.268 145.864C187.577 145.736 187.844 145.549 188.068 145.304C188.302 145.048 188.484 144.733 188.612 144.36C188.74 143.987 188.804 143.549 188.804 143.048C188.804 142.547 188.74 142.109 188.612 141.736C188.484 141.363 188.302 141.053 188.068 140.808C187.844 140.552 187.577 140.365 187.268 140.248C186.969 140.12 186.644 140.056 186.292 140.056C185.95 140.056 185.63 140.12 185.332 140.248C185.033 140.365 184.772 140.552 184.548 140.808C184.324 141.053 184.148 141.363 184.02 141.736C183.892 142.109 183.828 142.547 183.828 143.048C183.828 143.549 183.892 143.987 184.02 144.36C184.148 144.733 184.324 145.048 184.548 145.304C184.772 145.549 185.033 145.736 185.332 145.864C185.63 145.981 185.95 146.04 186.292 146.04ZM192.173 135.4H193.453V147H192.173V135.4ZM197.917 147.192C197.554 147.192 197.218 147.133 196.909 147.016C196.61 146.899 196.349 146.733 196.125 146.52C195.901 146.307 195.725 146.056 195.597 145.768C195.479 145.469 195.421 145.144 195.421 144.792C195.421 144.109 195.666 143.56 196.157 143.144C196.647 142.728 197.346 142.493 198.253 142.44L200.333 142.312V141.752C200.333 141.144 200.183 140.707 199.885 140.44C199.597 140.163 199.181 140.024 198.637 140.024C198.178 140.024 197.783 140.109 197.453 140.28C197.122 140.451 196.866 140.637 196.685 140.84L195.917 140.072C196.194 139.731 196.567 139.453 197.037 139.24C197.517 139.016 198.061 138.904 198.669 138.904C199.213 138.904 199.671 138.979 200.045 139.128C200.418 139.267 200.717 139.459 200.941 139.704C201.175 139.949 201.341 140.237 201.437 140.568C201.543 140.899 201.597 141.251 201.597 141.624V147H200.397V145.656H200.301C200.087 146.136 199.789 146.515 199.405 146.792C199.021 147.059 198.525 147.192 197.917 147.192ZM198.109 146.104C198.77 146.104 199.303 145.912 199.709 145.528C200.125 145.133 200.333 144.611 200.333 143.96V143.272L198.317 143.416C197.25 143.501 196.717 143.949 196.717 144.76C196.717 145.165 196.845 145.491 197.101 145.736C197.367 145.981 197.703 146.104 198.109 146.104ZM207.181 147.192C206.541 147.192 205.986 147.075 205.517 146.84C205.058 146.605 204.679 146.296 204.381 145.912C204.082 145.528 203.863 145.091 203.725 144.6C203.586 144.099 203.517 143.581 203.517 143.048C203.517 142.515 203.586 142.003 203.725 141.512C203.863 141.011 204.077 140.568 204.365 140.184C204.663 139.8 205.042 139.491 205.501 139.256C205.959 139.021 206.509 138.904 207.149 138.904C207.821 138.904 208.37 139.016 208.797 139.24C209.223 139.464 209.586 139.763 209.885 140.136L209.085 140.888C208.829 140.611 208.557 140.397 208.269 140.248C207.991 140.088 207.629 140.008 207.181 140.008C206.477 140.008 205.906 140.28 205.469 140.824C205.042 141.357 204.829 142.099 204.829 143.048C204.829 143.517 204.887 143.939 205.005 144.312C205.122 144.685 205.287 145.005 205.501 145.272C205.714 145.539 205.965 145.741 206.253 145.88C206.541 146.019 206.861 146.088 207.213 146.088C207.639 146.088 208.007 146.013 208.317 145.864C208.626 145.704 208.914 145.475 209.181 145.176L209.949 145.944C209.639 146.317 209.261 146.621 208.813 146.856C208.365 147.08 207.821 147.192 207.181 147.192ZM214.745 147.192C214.18 147.192 213.662 147.096 213.193 146.904C212.734 146.712 212.34 146.44 212.009 146.088C211.689 145.725 211.438 145.288 211.257 144.776C211.086 144.264 211.001 143.688 211.001 143.048C211.001 142.376 211.092 141.784 211.273 141.272C211.454 140.749 211.705 140.317 212.025 139.976C212.345 139.624 212.724 139.357 213.161 139.176C213.609 138.995 214.1 138.904 214.633 138.904C215.166 138.904 215.657 138.989 216.105 139.16C216.553 139.331 216.937 139.587 217.257 139.928C217.577 140.259 217.828 140.68 218.009 141.192C218.19 141.693 218.281 142.28 218.281 142.952C218.281 143.037 218.276 143.123 218.265 143.208C218.265 143.293 218.26 143.363 218.249 143.416H212.281C212.281 143.789 212.345 144.141 212.473 144.472C212.612 144.792 212.793 145.075 213.017 145.32C213.252 145.555 213.518 145.741 213.817 145.88C214.126 146.019 214.457 146.088 214.809 146.088C215.385 146.088 215.854 145.976 216.217 145.752C216.59 145.528 216.9 145.256 217.145 144.936L217.913 145.72C217.572 146.168 217.145 146.525 216.633 146.792C216.132 147.059 215.502 147.192 214.745 147.192ZM214.633 139.96C214.26 139.96 213.929 140.029 213.641 140.168C213.353 140.307 213.113 140.488 212.921 140.712C212.729 140.936 212.58 141.192 212.473 141.48C212.377 141.768 212.324 142.056 212.313 142.344H216.937C216.926 142.056 216.868 141.768 216.761 141.48C216.665 141.192 216.521 140.936 216.329 140.712C216.137 140.488 215.897 140.307 215.609 140.168C215.332 140.029 215.006 139.96 214.633 139.96ZM220.344 135.4H221.624V140.216H221.72C221.902 139.853 222.163 139.544 222.504 139.288C222.846 139.032 223.283 138.904 223.816 138.904C224.723 138.904 225.438 139.144 225.96 139.624C226.494 140.104 226.76 140.877 226.76 141.944V147H225.48V142.184C225.48 141.373 225.315 140.803 224.984 140.472C224.664 140.131 224.19 139.96 223.56 139.96C222.952 139.96 222.478 140.168 222.136 140.584C221.795 141 221.624 141.608 221.624 142.408V147H220.344V135.4ZM232.371 147.192C231.741 147.192 231.187 147.085 230.707 146.872C230.237 146.648 229.843 146.349 229.523 145.976C229.213 145.603 228.979 145.165 228.819 144.664C228.669 144.163 228.595 143.624 228.595 143.048C228.595 142.472 228.669 141.933 228.819 141.432C228.979 140.931 229.213 140.493 229.523 140.12C229.843 139.747 230.237 139.453 230.707 139.24C231.187 139.016 231.741 138.904 232.371 138.904C233 138.904 233.544 139.016 234.003 139.24C234.472 139.453 234.861 139.747 235.171 140.12C235.48 140.493 235.709 140.931 235.859 141.432C236.019 141.933 236.099 142.472 236.099 143.048C236.099 143.624 236.019 144.163 235.859 144.664C235.709 145.165 235.48 145.603 235.171 145.976C234.861 146.349 234.472 146.648 234.003 146.872C233.544 147.085 233 147.192 232.371 147.192ZM229.907 143.048C229.907 143.507 229.955 143.928 230.051 144.312C230.157 144.685 230.312 145.011 230.515 145.288C230.717 145.555 230.973 145.763 231.283 145.912C231.592 146.061 231.955 146.136 232.371 146.136C232.776 146.136 233.128 146.061 233.427 145.912C233.736 145.763 233.987 145.555 234.179 145.288C234.381 145.011 234.531 144.685 234.627 144.312C234.733 143.928 234.787 143.507 234.787 143.048C234.787 142.589 234.733 142.173 234.627 141.8C234.531 141.416 234.381 141.091 234.179 140.824C233.987 140.547 233.736 140.333 233.427 140.184C233.128 140.035 232.776 139.96 232.371 139.96C231.955 139.96 231.592 140.035 231.283 140.184C230.973 140.333 230.717 140.547 230.515 140.824C230.312 141.091 230.157 141.416 230.051 141.8C229.955 142.173 229.907 142.589 229.907 143.048ZM238.157 135.4H239.437V147H238.157V135.4ZM245.005 147.192C244.472 147.192 243.992 147.091 243.565 146.888C243.138 146.675 242.77 146.387 242.461 146.024C242.152 145.651 241.912 145.208 241.741 144.696C241.581 144.184 241.501 143.629 241.501 143.032C241.501 142.435 241.581 141.885 241.741 141.384C241.912 140.872 242.152 140.435 242.461 140.072C242.77 139.699 243.138 139.411 243.565 139.208C243.992 139.005 244.472 138.904 245.005 138.904C245.656 138.904 246.216 139.059 246.685 139.368C247.154 139.677 247.49 140.072 247.693 140.552H247.789V135.4H249.069V147H247.853V145.384H247.757C247.661 145.661 247.522 145.912 247.341 146.136C247.17 146.349 246.962 146.536 246.717 146.696C246.482 146.856 246.216 146.979 245.917 147.064C245.629 147.149 245.325 147.192 245.005 147.192ZM245.325 146.04C245.666 146.04 245.986 145.981 246.285 145.864C246.584 145.736 246.845 145.549 247.069 145.304C247.293 145.048 247.469 144.733 247.597 144.36C247.725 143.987 247.789 143.549 247.789 143.048C247.789 142.547 247.725 142.109 247.597 141.736C247.469 141.363 247.293 141.053 247.069 140.808C246.845 140.552 246.584 140.365 246.285 140.248C245.986 140.12 245.666 140.056 245.325 140.056C244.973 140.056 244.642 140.12 244.333 140.248C244.034 140.365 243.768 140.552 243.533 140.808C243.309 141.053 243.133 141.363 243.005 141.736C242.877 142.109 242.813 142.547 242.813 143.048C242.813 143.549 242.877 143.987 243.005 144.36C243.133 144.733 243.309 145.048 243.533 145.304C243.768 145.549 244.034 145.736 244.333 145.864C244.642 145.981 244.973 146.04 245.325 146.04ZM254.87 147.192C254.305 147.192 253.787 147.096 253.318 146.904C252.859 146.712 252.465 146.44 252.134 146.088C251.814 145.725 251.563 145.288 251.382 144.776C251.211 144.264 251.126 143.688 251.126 143.048C251.126 142.376 251.217 141.784 251.398 141.272C251.579 140.749 251.83 140.317 252.15 139.976C252.47 139.624 252.849 139.357 253.286 139.176C253.734 138.995 254.225 138.904 254.758 138.904C255.291 138.904 255.782 138.989 256.23 139.16C256.678 139.331 257.062 139.587 257.382 139.928C257.702 140.259 257.953 140.68 258.134 141.192C258.315 141.693 258.406 142.28 258.406 142.952C258.406 143.037 258.401 143.123 258.39 143.208C258.39 143.293 258.385 143.363 258.374 143.416H252.406C252.406 143.789 252.47 144.141 252.598 144.472C252.737 144.792 252.918 145.075 253.142 145.32C253.377 145.555 253.643 145.741 253.942 145.88C254.251 146.019 254.582 146.088 254.934 146.088C255.51 146.088 255.979 145.976 256.342 145.752C256.715 145.528 257.025 145.256 257.27 144.936L258.038 145.72C257.697 146.168 257.27 146.525 256.758 146.792C256.257 147.059 255.627 147.192 254.87 147.192ZM254.758 139.96C254.385 139.96 254.054 140.029 253.766 140.168C253.478 140.307 253.238 140.488 253.046 140.712C252.854 140.936 252.705 141.192 252.598 141.48C252.502 141.768 252.449 142.056 252.438 142.344H257.062C257.051 142.056 256.993 141.768 256.886 141.48C256.79 141.192 256.646 140.936 256.454 140.712C256.262 140.488 256.022 140.307 255.734 140.168C255.457 140.029 255.131 139.96 254.758 139.96ZM260.469 139.096H261.685V140.376H261.781C261.952 139.96 262.197 139.613 262.517 139.336C262.837 139.048 263.237 138.904 263.717 138.904C264.123 138.904 264.48 138.984 264.789 139.144L264.357 140.296C264.219 140.221 264.069 140.173 263.909 140.152C263.76 140.12 263.605 140.104 263.445 140.104C262.923 140.104 262.507 140.317 262.197 140.744C261.899 141.16 261.749 141.693 261.749 142.344V147H260.469V139.096ZM265.984 145.304C266.283 145.304 266.518 145.411 266.688 145.624C266.859 145.837 266.944 146.093 266.944 146.392C266.944 146.904 266.79 147.384 266.48 147.832C266.171 148.28 265.755 148.707 265.232 149.112L264.736 148.584C264.95 148.381 265.142 148.157 265.312 147.912C265.483 147.677 265.616 147.405 265.712 147.096C265.499 147.043 265.328 146.936 265.2 146.776C265.083 146.616 265.024 146.429 265.024 146.216C265.024 145.971 265.11 145.757 265.28 145.576C265.451 145.395 265.686 145.304 265.984 145.304ZM111.805 163.096H113.021V164.376H113.117C113.288 163.96 113.533 163.613 113.853 163.336C114.173 163.048 114.573 162.904 115.053 162.904C115.459 162.904 115.816 162.984 116.125 163.144L115.693 164.296C115.555 164.221 115.405 164.173 115.245 164.152C115.096 164.12 114.941 164.104 114.781 164.104C114.259 164.104 113.843 164.317 113.533 164.744C113.235 165.16 113.085 165.693 113.085 166.344V171H111.805V163.096ZM120.471 171.192C119.906 171.192 119.389 171.096 118.919 170.904C118.461 170.712 118.066 170.44 117.735 170.088C117.415 169.725 117.165 169.288 116.983 168.776C116.813 168.264 116.727 167.688 116.727 167.048C116.727 166.376 116.818 165.784 116.999 165.272C117.181 164.749 117.431 164.317 117.751 163.976C118.071 163.624 118.45 163.357 118.887 163.176C119.335 162.995 119.826 162.904 120.359 162.904C120.893 162.904 121.383 162.989 121.831 163.16C122.279 163.331 122.663 163.587 122.983 163.928C123.303 164.259 123.554 164.68 123.735 165.192C123.917 165.693 124.007 166.28 124.007 166.952C124.007 167.037 124.002 167.123 123.991 167.208C123.991 167.293 123.986 167.363 123.975 167.416H118.007C118.007 167.789 118.071 168.141 118.199 168.472C118.338 168.792 118.519 169.075 118.743 169.32C118.978 169.555 119.245 169.741 119.543 169.88C119.853 170.019 120.183 170.088 120.535 170.088C121.111 170.088 121.581 169.976 121.943 169.752C122.317 169.528 122.626 169.256 122.871 168.936L123.639 169.72C123.298 170.168 122.871 170.525 122.359 170.792C121.858 171.059 121.229 171.192 120.471 171.192ZM120.359 163.96C119.986 163.96 119.655 164.029 119.367 164.168C119.079 164.307 118.839 164.488 118.647 164.712C118.455 164.936 118.306 165.192 118.199 165.48C118.103 165.768 118.05 166.056 118.039 166.344H122.663C122.653 166.056 122.594 165.768 122.487 165.48C122.391 165.192 122.247 164.936 122.055 164.712C121.863 164.488 121.623 164.307 121.335 164.168C121.058 164.029 120.733 163.96 120.359 163.96ZM126.071 163.096H127.287V164.712H127.383C127.479 164.445 127.612 164.2 127.783 163.976C127.964 163.752 128.172 163.56 128.407 163.4C128.652 163.24 128.919 163.117 129.207 163.032C129.506 162.947 129.815 162.904 130.135 162.904C130.658 162.904 131.132 163.011 131.559 163.224C131.996 163.427 132.37 163.715 132.679 164.088C132.988 164.451 133.223 164.888 133.383 165.4C133.554 165.912 133.639 166.467 133.639 167.064C133.639 167.661 133.554 168.216 133.383 168.728C133.223 169.229 132.988 169.667 132.679 170.04C132.37 170.403 131.996 170.685 131.559 170.888C131.132 171.091 130.658 171.192 130.135 171.192C129.484 171.192 128.924 171.037 128.455 170.728C127.986 170.419 127.65 170.024 127.447 169.544H127.351V173.96H126.071V163.096ZM129.815 170.04C130.167 170.04 130.492 169.981 130.791 169.864C131.1 169.736 131.367 169.549 131.591 169.304C131.826 169.048 132.007 168.733 132.135 168.36C132.263 167.987 132.327 167.549 132.327 167.048C132.327 166.547 132.263 166.109 132.135 165.736C132.007 165.363 131.826 165.053 131.591 164.808C131.367 164.552 131.1 164.365 130.791 164.248C130.492 164.12 130.167 164.056 129.815 164.056C129.474 164.056 129.154 164.12 128.855 164.248C128.556 164.365 128.295 164.552 128.071 164.808C127.847 165.053 127.671 165.363 127.543 165.736C127.415 166.109 127.351 166.547 127.351 167.048C127.351 167.549 127.415 167.987 127.543 168.36C127.671 168.733 127.847 169.048 128.071 169.304C128.295 169.549 128.556 169.736 128.855 169.864C129.154 169.981 129.474 170.04 129.815 170.04ZM135.696 159.4H136.976V171H135.696V159.4ZM141.44 171.192C141.077 171.192 140.741 171.133 140.432 171.016C140.133 170.899 139.872 170.733 139.648 170.52C139.424 170.307 139.248 170.056 139.12 169.768C139.003 169.469 138.944 169.144 138.944 168.792C138.944 168.109 139.189 167.56 139.68 167.144C140.171 166.728 140.869 166.493 141.776 166.44L143.856 166.312V165.752C143.856 165.144 143.707 164.707 143.408 164.44C143.12 164.163 142.704 164.024 142.16 164.024C141.701 164.024 141.307 164.109 140.976 164.28C140.645 164.451 140.389 164.637 140.208 164.84L139.44 164.072C139.717 163.731 140.091 163.453 140.56 163.24C141.04 163.016 141.584 162.904 142.192 162.904C142.736 162.904 143.195 162.979 143.568 163.128C143.941 163.267 144.24 163.459 144.464 163.704C144.699 163.949 144.864 164.237 144.96 164.568C145.067 164.899 145.12 165.251 145.12 165.624V171H143.92V169.656H143.824C143.611 170.136 143.312 170.515 142.928 170.792C142.544 171.059 142.048 171.192 141.44 171.192ZM141.632 170.104C142.293 170.104 142.827 169.912 143.232 169.528C143.648 169.133 143.856 168.611 143.856 167.96V167.272L141.84 167.416C140.773 167.501 140.24 167.949 140.24 168.76C140.24 169.165 140.368 169.491 140.624 169.736C140.891 169.981 141.227 170.104 141.632 170.104ZM150.704 171.192C150.064 171.192 149.509 171.075 149.04 170.84C148.581 170.605 148.203 170.296 147.904 169.912C147.605 169.528 147.387 169.091 147.248 168.6C147.109 168.099 147.04 167.581 147.04 167.048C147.04 166.515 147.109 166.003 147.248 165.512C147.387 165.011 147.6 164.568 147.888 164.184C148.187 163.8 148.565 163.491 149.024 163.256C149.483 163.021 150.032 162.904 150.672 162.904C151.344 162.904 151.893 163.016 152.32 163.24C152.747 163.464 153.109 163.763 153.408 164.136L152.608 164.888C152.352 164.611 152.08 164.397 151.792 164.248C151.515 164.088 151.152 164.008 150.704 164.008C150 164.008 149.429 164.28 148.992 164.824C148.565 165.357 148.352 166.099 148.352 167.048C148.352 167.517 148.411 167.939 148.528 168.312C148.645 168.685 148.811 169.005 149.024 169.272C149.237 169.539 149.488 169.741 149.776 169.88C150.064 170.019 150.384 170.088 150.736 170.088C151.163 170.088 151.531 170.013 151.84 169.864C152.149 169.704 152.437 169.475 152.704 169.176L153.472 169.944C153.163 170.317 152.784 170.621 152.336 170.856C151.888 171.08 151.344 171.192 150.704 171.192ZM158.268 171.192C157.703 171.192 157.186 171.096 156.716 170.904C156.258 170.712 155.863 170.44 155.532 170.088C155.212 169.725 154.962 169.288 154.78 168.776C154.61 168.264 154.524 167.688 154.524 167.048C154.524 166.376 154.615 165.784 154.796 165.272C154.978 164.749 155.228 164.317 155.548 163.976C155.868 163.624 156.247 163.357 156.684 163.176C157.132 162.995 157.623 162.904 158.156 162.904C158.69 162.904 159.18 162.989 159.628 163.16C160.076 163.331 160.46 163.587 160.78 163.928C161.1 164.259 161.351 164.68 161.532 165.192C161.714 165.693 161.804 166.28 161.804 166.952C161.804 167.037 161.799 167.123 161.788 167.208C161.788 167.293 161.783 167.363 161.772 167.416H155.804C155.804 167.789 155.868 168.141 155.996 168.472C156.135 168.792 156.316 169.075 156.54 169.32C156.775 169.555 157.042 169.741 157.34 169.88C157.65 170.019 157.98 170.088 158.332 170.088C158.908 170.088 159.378 169.976 159.74 169.752C160.114 169.528 160.423 169.256 160.668 168.936L161.436 169.72C161.095 170.168 160.668 170.525 160.156 170.792C159.655 171.059 159.026 171.192 158.268 171.192ZM158.156 163.96C157.783 163.96 157.452 164.029 157.164 164.168C156.876 164.307 156.636 164.488 156.444 164.712C156.252 164.936 156.103 165.192 155.996 165.48C155.9 165.768 155.847 166.056 155.836 166.344H160.46C160.45 166.056 160.391 165.768 160.284 165.48C160.188 165.192 160.044 164.936 159.852 164.712C159.66 164.488 159.42 164.307 159.132 164.168C158.855 164.029 158.53 163.96 158.156 163.96ZM167.712 163.096H168.928V164.344H169.024C169.216 163.928 169.482 163.587 169.824 163.32C170.176 163.043 170.613 162.904 171.136 162.904C171.765 162.904 172.293 163.021 172.72 163.256C173.157 163.48 173.482 163.821 173.696 164.28C173.93 163.832 174.245 163.491 174.64 163.256C175.034 163.021 175.536 162.904 176.144 162.904C176.581 162.904 176.976 162.963 177.328 163.08C177.68 163.197 177.978 163.379 178.224 163.624C178.48 163.869 178.672 164.184 178.8 164.568C178.938 164.952 179.008 165.411 179.008 165.944V171H177.728V166.184C177.728 165.373 177.568 164.803 177.248 164.472C176.938 164.131 176.48 163.96 175.872 163.96C175.285 163.96 174.826 164.168 174.496 164.584C174.165 165 174 165.608 174 166.408V171H172.72V166.184C172.72 165.373 172.56 164.803 172.24 164.472C171.93 164.131 171.472 163.96 170.864 163.96C170.288 163.96 169.829 164.168 169.488 164.584C169.157 165 168.992 165.608 168.992 166.408V171H167.712V163.096ZM184.675 171.192C184.109 171.192 183.592 171.096 183.123 170.904C182.664 170.712 182.269 170.44 181.939 170.088C181.619 169.725 181.368 169.288 181.187 168.776C181.016 168.264 180.931 167.688 180.931 167.048C180.931 166.376 181.021 165.784 181.203 165.272C181.384 164.749 181.635 164.317 181.955 163.976C182.275 163.624 182.653 163.357 183.091 163.176C183.539 162.995 184.029 162.904 184.563 162.904C185.096 162.904 185.587 162.989 186.035 163.16C186.483 163.331 186.867 163.587 187.187 163.928C187.507 164.259 187.757 164.68 187.939 165.192C188.12 165.693 188.211 166.28 188.211 166.952C188.211 167.037 188.205 167.123 188.195 167.208C188.195 167.293 188.189 167.363 188.179 167.416H182.211C182.211 167.789 182.275 168.141 182.403 168.472C182.541 168.792 182.723 169.075 182.947 169.32C183.181 169.555 183.448 169.741 183.747 169.88C184.056 170.019 184.387 170.088 184.739 170.088C185.315 170.088 185.784 169.976 186.147 169.752C186.52 169.528 186.829 169.256 187.075 168.936L187.843 169.72C187.501 170.168 187.075 170.525 186.563 170.792C186.061 171.059 185.432 171.192 184.675 171.192ZM184.563 163.96C184.189 163.96 183.859 164.029 183.571 164.168C183.283 164.307 183.043 164.488 182.851 164.712C182.659 164.936 182.509 165.192 182.403 165.48C182.307 165.768 182.253 166.056 182.243 166.344H186.867C186.856 166.056 186.797 165.768 186.691 165.48C186.595 165.192 186.451 164.936 186.259 164.712C186.067 164.488 185.827 164.307 185.539 164.168C185.261 164.029 184.936 163.96 184.563 163.96ZM193.19 163.096H194.566L196.566 169.672H196.662L198.518 163.096H200.038L201.894 169.672H201.99L203.99 163.096H205.27L202.582 171H201.142L199.286 164.456H199.19L197.35 171H195.878L193.19 163.096ZM208.543 161C208.543 161.224 208.463 161.416 208.303 161.576C208.154 161.736 207.951 161.816 207.695 161.816C207.429 161.816 207.221 161.736 207.071 161.576C206.922 161.416 206.847 161.224 206.847 161C206.847 160.787 206.922 160.6 207.071 160.44C207.221 160.269 207.429 160.184 207.695 160.184C207.951 160.184 208.154 160.269 208.303 160.44C208.463 160.6 208.543 160.787 208.543 161ZM207.055 163.096H208.335V171H207.055V163.096ZM213.487 171.192C212.773 171.192 212.25 170.979 211.919 170.552C211.589 170.125 211.423 169.539 211.423 168.792V164.136H210.015V163.096H211.423V160.952H212.687V163.096H214.975V164.136H212.687V168.68C212.687 169.192 212.783 169.549 212.975 169.752C213.178 169.955 213.434 170.056 213.743 170.056C213.957 170.056 214.149 170.019 214.319 169.944C214.49 169.859 214.65 169.747 214.799 169.608L215.375 170.504C214.885 170.963 214.255 171.192 213.487 171.192ZM217.118 159.4H218.398V164.216H218.494C218.675 163.853 218.936 163.544 219.278 163.288C219.619 163.032 220.056 162.904 220.59 162.904C221.496 162.904 222.211 163.144 222.734 163.624C223.267 164.104 223.534 164.877 223.534 165.944V171H222.254V166.184C222.254 165.373 222.088 164.803 221.758 164.472C221.438 164.131 220.963 163.96 220.334 163.96C219.726 163.96 219.251 164.168 218.91 164.584C218.568 165 218.398 165.608 218.398 166.408V171H217.118V159.4ZM232.876 171.192C232.236 171.192 231.681 171.075 231.212 170.84C230.753 170.605 230.374 170.296 230.076 169.912C229.777 169.528 229.558 169.091 229.42 168.6C229.281 168.099 229.212 167.581 229.212 167.048C229.212 166.515 229.281 166.003 229.42 165.512C229.558 165.011 229.772 164.568 230.06 164.184C230.358 163.8 230.737 163.491 231.196 163.256C231.654 163.021 232.204 162.904 232.844 162.904C233.516 162.904 234.065 163.016 234.492 163.24C234.918 163.464 235.281 163.763 235.58 164.136L234.78 164.888C234.524 164.611 234.252 164.397 233.964 164.248C233.686 164.088 233.324 164.008 232.876 164.008C232.172 164.008 231.601 164.28 231.164 164.824C230.737 165.357 230.524 166.099 230.524 167.048C230.524 167.517 230.582 167.939 230.7 168.312C230.817 168.685 230.982 169.005 231.196 169.272C231.409 169.539 231.66 169.741 231.948 169.88C232.236 170.019 232.556 170.088 232.908 170.088C233.334 170.088 233.702 170.013 234.012 169.864C234.321 169.704 234.609 169.475 234.876 169.176L235.644 169.944C235.334 170.317 234.956 170.621 234.508 170.856C234.06 171.08 233.516 171.192 232.876 171.192ZM240.472 171.192C239.843 171.192 239.288 171.085 238.808 170.872C238.339 170.648 237.944 170.349 237.624 169.976C237.315 169.603 237.08 169.165 236.92 168.664C236.771 168.163 236.696 167.624 236.696 167.048C236.696 166.472 236.771 165.933 236.92 165.432C237.08 164.931 237.315 164.493 237.624 164.12C237.944 163.747 238.339 163.453 238.808 163.24C239.288 163.016 239.843 162.904 240.472 162.904C241.102 162.904 241.646 163.016 242.104 163.24C242.574 163.453 242.963 163.747 243.272 164.12C243.582 164.493 243.811 164.931 243.96 165.432C244.12 165.933 244.2 166.472 244.2 167.048C244.2 167.624 244.12 168.163 243.96 168.664C243.811 169.165 243.582 169.603 243.272 169.976C242.963 170.349 242.574 170.648 242.104 170.872C241.646 171.085 241.102 171.192 240.472 171.192ZM238.008 167.048C238.008 167.507 238.056 167.928 238.152 168.312C238.259 168.685 238.414 169.011 238.616 169.288C238.819 169.555 239.075 169.763 239.384 169.912C239.694 170.061 240.056 170.136 240.472 170.136C240.878 170.136 241.23 170.061 241.528 169.912C241.838 169.763 242.088 169.555 242.28 169.288C242.483 169.011 242.632 168.685 242.728 168.312C242.835 167.928 242.888 167.507 242.888 167.048C242.888 166.589 242.835 166.173 242.728 165.8C242.632 165.416 242.483 165.091 242.28 164.824C242.088 164.547 241.838 164.333 241.528 164.184C241.23 164.035 240.878 163.96 240.472 163.96C240.056 163.96 239.694 164.035 239.384 164.184C239.075 164.333 238.819 164.547 238.616 164.824C238.414 165.091 238.259 165.416 238.152 165.8C238.056 166.173 238.008 166.589 238.008 167.048ZM246.258 163.096H247.474V164.344H247.57C247.762 163.928 248.034 163.587 248.386 163.32C248.738 163.043 249.186 162.904 249.73 162.904C250.637 162.904 251.352 163.144 251.874 163.624C252.408 164.104 252.674 164.877 252.674 165.944V171H251.394V166.184C251.394 165.373 251.229 164.803 250.898 164.472C250.578 164.131 250.104 163.96 249.474 163.96C248.866 163.96 248.392 164.168 248.05 164.584C247.709 165 247.538 165.608 247.538 166.408V171H246.258V163.096ZM257.675 171.192C256.96 171.192 256.437 170.979 256.107 170.552C255.776 170.125 255.611 169.539 255.611 168.792V164.136H254.203V163.096H255.611V160.952H256.875V163.096H259.163V164.136H256.875V168.68C256.875 169.192 256.971 169.549 257.163 169.752C257.365 169.955 257.621 170.056 257.931 170.056C258.144 170.056 258.336 170.019 258.507 169.944C258.677 169.859 258.837 169.747 258.987 169.608L259.563 170.504C259.072 170.963 258.443 171.192 257.675 171.192ZM264.268 171.192C263.703 171.192 263.186 171.096 262.716 170.904C262.258 170.712 261.863 170.44 261.532 170.088C261.212 169.725 260.962 169.288 260.78 168.776C260.61 168.264 260.524 167.688 260.524 167.048C260.524 166.376 260.615 165.784 260.796 165.272C260.978 164.749 261.228 164.317 261.548 163.976C261.868 163.624 262.247 163.357 262.684 163.176C263.132 162.995 263.623 162.904 264.156 162.904C264.69 162.904 265.18 162.989 265.628 163.16C266.076 163.331 266.46 163.587 266.78 163.928C267.1 164.259 267.351 164.68 267.532 165.192C267.714 165.693 267.804 166.28 267.804 166.952C267.804 167.037 267.799 167.123 267.788 167.208C267.788 167.293 267.783 167.363 267.772 167.416H261.804C261.804 167.789 261.868 168.141 261.996 168.472C262.135 168.792 262.316 169.075 262.54 169.32C262.775 169.555 263.042 169.741 263.34 169.88C263.65 170.019 263.98 170.088 264.332 170.088C264.908 170.088 265.378 169.976 265.74 169.752C266.114 169.528 266.423 169.256 266.668 168.936L267.436 169.72C267.095 170.168 266.668 170.525 266.156 170.792C265.655 171.059 265.026 171.192 264.268 171.192ZM264.156 163.96C263.783 163.96 263.452 164.029 263.164 164.168C262.876 164.307 262.636 164.488 262.444 164.712C262.252 164.936 262.103 165.192 261.996 165.48C261.9 165.768 261.847 166.056 261.836 166.344H266.46C266.45 166.056 266.391 165.768 266.284 165.48C266.188 165.192 266.044 164.936 265.852 164.712C265.66 164.488 265.42 164.307 265.132 164.168C264.855 164.029 264.53 163.96 264.156 163.96ZM269.868 163.096H271.084V164.344H271.18C271.372 163.928 271.644 163.587 271.996 163.32C272.348 163.043 272.796 162.904 273.34 162.904C274.246 162.904 274.961 163.144 275.484 163.624C276.017 164.104 276.284 164.877 276.284 165.944V171H275.004V166.184C275.004 165.373 274.838 164.803 274.508 164.472C274.188 164.131 273.713 163.96 273.084 163.96C272.476 163.96 272.001 164.168 271.66 164.584C271.318 165 271.148 165.608 271.148 166.408V171H269.868V163.096ZM281.284 171.192C280.57 171.192 280.047 170.979 279.716 170.552C279.386 170.125 279.22 169.539 279.22 168.792V164.136H277.812V163.096H279.22V160.952H280.484V163.096H282.772V164.136H280.484V168.68C280.484 169.192 280.58 169.549 280.772 169.752C280.975 169.955 281.231 170.056 281.54 170.056C281.754 170.056 281.946 170.019 282.116 169.944C282.287 169.859 282.447 169.747 282.596 169.608L283.172 170.504C282.682 170.963 282.052 171.192 281.284 171.192Z" fill="#3C4C4F"/>
</g>
<rect width="360" height="96" transform="translate(17 193)" fill="white"/>
<g clip-path="url(#clip2_507_16998)">
<path d="M256 241C256 227.745 266.745 217 280 217H329C342.255 217 353 227.745 353 241V241C353 254.255 342.255 265 329 265H280C266.745 265 256 254.255 256 241V241Z" fill="#F36805"/>
<path d="M256 241C256 227.745 266.745 217 280 217H329C342.255 217 353 227.745 353 241V241C353 254.255 342.255 265 329 265H280C266.745 265 256 254.255 256 241V241Z" fill="white" fill-opacity="0.01"/>
<path d="M281.771 235H284.451V245.82H289.631V248H281.771V235ZM294.13 248.24C293.69 248.24 293.27 248.167 292.87 248.02C292.483 247.887 292.143 247.693 291.85 247.44C291.556 247.173 291.323 246.853 291.15 246.48C290.99 246.107 290.91 245.687 290.91 245.22C290.91 244.34 291.223 243.64 291.85 243.12C292.476 242.6 293.43 242.307 294.71 242.24L297.03 242.1V241.7C297.03 241.06 296.836 240.62 296.45 240.38C296.063 240.14 295.583 240.02 295.01 240.02C294.556 240.02 294.13 240.107 293.73 240.28C293.33 240.44 293.03 240.64 292.83 240.88L291.41 239.44C291.756 238.987 292.256 238.613 292.91 238.32C293.576 238.027 294.39 237.88 295.35 237.88C296.763 237.88 297.816 238.207 298.51 238.86C299.203 239.513 299.55 240.4 299.55 241.52V248H297.17V246.42H297.05C296.796 246.98 296.43 247.427 295.95 247.76C295.47 248.08 294.863 248.24 294.13 248.24ZM294.87 246.42C295.51 246.42 296.03 246.24 296.43 245.88C296.83 245.507 297.03 244.987 297.03 244.32V243.66L295.01 243.82C293.97 243.887 293.45 244.327 293.45 245.14C293.45 245.553 293.583 245.873 293.85 246.1C294.116 246.313 294.456 246.42 294.87 246.42ZM307.761 248.24C306.988 248.24 306.315 248.053 305.741 247.68C305.181 247.307 304.781 246.793 304.541 246.14H304.421V248H302.021V233.5H304.541V239.82H304.661C304.888 239.247 305.268 238.78 305.801 238.42C306.335 238.06 306.988 237.88 307.761 237.88C308.375 237.88 308.941 238.007 309.461 238.26C309.995 238.513 310.448 238.873 310.821 239.34C311.208 239.793 311.508 240.34 311.721 240.98C311.935 241.62 312.041 242.327 312.041 243.1C312.041 243.86 311.935 244.56 311.721 245.2C311.508 245.827 311.208 246.367 310.821 246.82C310.448 247.26 309.995 247.607 309.461 247.86C308.941 248.113 308.375 248.24 307.761 248.24ZM306.981 246.04C307.728 246.04 308.328 245.773 308.781 245.24C309.235 244.707 309.461 243.98 309.461 243.06C309.461 242.14 309.235 241.413 308.781 240.88C308.328 240.347 307.728 240.08 306.981 240.08C306.248 240.08 305.655 240.347 305.201 240.88C304.761 241.413 304.541 242.14 304.541 243.06C304.541 243.98 304.761 244.707 305.201 245.24C305.655 245.773 306.248 246.04 306.981 246.04ZM318.293 248.24C317.467 248.24 316.747 248.107 316.133 247.84C315.52 247.573 315 247.207 314.573 246.74C314.16 246.26 313.847 245.707 313.633 245.08C313.433 244.453 313.333 243.78 313.333 243.06C313.333 242.327 313.433 241.647 313.633 241.02C313.833 240.38 314.133 239.833 314.533 239.38C314.933 238.913 315.433 238.547 316.033 238.28C316.633 238.013 317.333 237.88 318.133 237.88C318.933 237.88 319.633 238.007 320.233 238.26C320.833 238.513 321.327 238.867 321.713 239.32C322.1 239.773 322.387 240.313 322.573 240.94C322.773 241.553 322.873 242.227 322.873 242.96C322.873 243.093 322.86 243.247 322.833 243.42C322.82 243.593 322.8 243.733 322.773 243.84H315.893C315.933 244.2 316.027 244.527 316.173 244.82C316.333 245.1 316.527 245.34 316.753 245.54C316.993 245.74 317.253 245.893 317.533 246C317.827 246.093 318.127 246.14 318.433 246.14C319.007 246.14 319.487 246.04 319.873 245.84C320.26 245.64 320.573 245.387 320.813 245.08L322.233 246.56C321.86 247.067 321.34 247.473 320.673 247.78C320.007 248.087 319.213 248.24 318.293 248.24ZM318.133 239.8C317.493 239.8 316.973 240.007 316.573 240.42C316.173 240.833 315.94 241.38 315.873 242.06H320.353C320.287 241.38 320.053 240.833 319.653 240.42C319.267 240.007 318.76 239.8 318.133 239.8ZM324.834 233.5H327.354V248H324.834V233.5Z" fill="white"/>
</g>
<g clip-path="url(#clip3_507_16998)">
<path d="M143 241C143 227.745 153.745 217 167 217H216C229.255 217 240 227.745 240 241V241C240 254.255 229.255 265 216 265H167C153.745 265 143 254.255 143 241V241Z" fill="white" fill-opacity="0.01"/>
<path d="M168.771 235H171.451V245.82H176.631V248H168.771V235ZM181.13 248.24C180.69 248.24 180.27 248.167 179.87 248.02C179.483 247.887 179.143 247.693 178.85 247.44C178.556 247.173 178.323 246.853 178.15 246.48C177.99 246.107 177.91 245.687 177.91 245.22C177.91 244.34 178.223 243.64 178.85 243.12C179.476 242.6 180.43 242.307 181.71 242.24L184.03 242.1V241.7C184.03 241.06 183.836 240.62 183.45 240.38C183.063 240.14 182.583 240.02 182.01 240.02C181.556 240.02 181.13 240.107 180.73 240.28C180.33 240.44 180.03 240.64 179.83 240.88L178.41 239.44C178.756 238.987 179.256 238.613 179.91 238.32C180.576 238.027 181.39 237.88 182.35 237.88C183.763 237.88 184.816 238.207 185.51 238.86C186.203 239.513 186.55 240.4 186.55 241.52V248H184.17V246.42H184.05C183.796 246.98 183.43 247.427 182.95 247.76C182.47 248.08 181.863 248.24 181.13 248.24ZM181.87 246.42C182.51 246.42 183.03 246.24 183.43 245.88C183.83 245.507 184.03 244.987 184.03 244.32V243.66L182.01 243.82C180.97 243.887 180.45 244.327 180.45 245.14C180.45 245.553 180.583 245.873 180.85 246.1C181.116 246.313 181.456 246.42 181.87 246.42ZM194.761 248.24C193.988 248.24 193.315 248.053 192.741 247.68C192.181 247.307 191.781 246.793 191.541 246.14H191.421V248H189.021V233.5H191.541V239.82H191.661C191.888 239.247 192.268 238.78 192.801 238.42C193.335 238.06 193.988 237.88 194.761 237.88C195.375 237.88 195.941 238.007 196.461 238.26C196.995 238.513 197.448 238.873 197.821 239.34C198.208 239.793 198.508 240.34 198.721 240.98C198.935 241.62 199.041 242.327 199.041 243.1C199.041 243.86 198.935 244.56 198.721 245.2C198.508 245.827 198.208 246.367 197.821 246.82C197.448 247.26 196.995 247.607 196.461 247.86C195.941 248.113 195.375 248.24 194.761 248.24ZM193.981 246.04C194.728 246.04 195.328 245.773 195.781 245.24C196.235 244.707 196.461 243.98 196.461 243.06C196.461 242.14 196.235 241.413 195.781 240.88C195.328 240.347 194.728 240.08 193.981 240.08C193.248 240.08 192.655 240.347 192.201 240.88C191.761 241.413 191.541 242.14 191.541 243.06C191.541 243.98 191.761 244.707 192.201 245.24C192.655 245.773 193.248 246.04 193.981 246.04ZM205.293 248.24C204.467 248.24 203.747 248.107 203.133 247.84C202.52 247.573 202 247.207 201.573 246.74C201.16 246.26 200.847 245.707 200.633 245.08C200.433 244.453 200.333 243.78 200.333 243.06C200.333 242.327 200.433 241.647 200.633 241.02C200.833 240.38 201.133 239.833 201.533 239.38C201.933 238.913 202.433 238.547 203.033 238.28C203.633 238.013 204.333 237.88 205.133 237.88C205.933 237.88 206.633 238.007 207.233 238.26C207.833 238.513 208.327 238.867 208.713 239.32C209.1 239.773 209.387 240.313 209.573 240.94C209.773 241.553 209.873 242.227 209.873 242.96C209.873 243.093 209.86 243.247 209.833 243.42C209.82 243.593 209.8 243.733 209.773 243.84H202.893C202.933 244.2 203.027 244.527 203.173 244.82C203.333 245.1 203.527 245.34 203.753 245.54C203.993 245.74 204.253 245.893 204.533 246C204.827 246.093 205.127 246.14 205.433 246.14C206.007 246.14 206.487 246.04 206.873 245.84C207.26 245.64 207.573 245.387 207.813 245.08L209.233 246.56C208.86 247.067 208.34 247.473 207.673 247.78C207.007 248.087 206.213 248.24 205.293 248.24ZM205.133 239.8C204.493 239.8 203.973 240.007 203.573 240.42C203.173 240.833 202.94 241.38 202.873 242.06H207.353C207.287 241.38 207.053 240.833 206.653 240.42C206.267 240.007 205.76 239.8 205.133 239.8ZM211.834 233.5H214.354V248H211.834V233.5Z" fill="#242E30"/>
</g>
</g>
</g>
<defs>
<filter id="filter0_ddd_507_16998" x="0" y="0" width="394" height="314" filterUnits="userSpaceOnUse" color-interpolation-filters="sRGB">
<feFlood flood-opacity="0" result="BackgroundImageFix"/>
<feColorMatrix in="SourceAlpha" type="matrix" values="0 0 0 0 0 0 0 0 0 0 0 0 0 0 0 0 0 0 127 0" result="hardAlpha"/>
<feMorphology radius="2" operator="erode" in="SourceAlpha" result="effect1_dropShadow_507_16998"/>
<feOffset dy="4"/>
<feGaussianBlur stdDeviation="4"/>
<feColorMatrix type="matrix" values="0 0 0 0 0 0 0 0 0 0 0 0 0 0 0 0 0 0 0.06 0"/>
<feBlend mode="normal" in2="BackgroundImageFix" result="effect1_dropShadow_507_16998"/>
<feColorMatrix in="SourceAlpha" type="matrix" values="0 0 0 0 0 0 0 0 0 0 0 0 0 0 0 0 0 0 127 0" result="hardAlpha"/>
<feMorphology radius="3" operator="erode" in="SourceAlpha" result="effect2_dropShadow_507_16998"/>
<feOffset dy="8"/>
<feGaussianBlur stdDeviation="10"/>
<feColorMatrix type="matrix" values="0 0 0 0 0 0 0 0 0 0 0 0 0 0 0 0 0 0 0.1 0"/>
<feBlend mode="normal" in2="effect1_dropShadow_507_16998" result="effect2_dropShadow_507_16998"/>
<feColorMatrix in="SourceAlpha" type="matrix" values="0 0 0 0 0 0 0 0 0 0 0 0 0 0 0 0 0 0 127 0" result="hardAlpha"/>
<feOffset dy="8"/>
<feGaussianBlur stdDeviation="4"/>
<feColorMatrix type="matrix" values="0 0 0 0 0 0 0 0 0 0 0 0 0 0 0 0 0 0 0.04 0"/>
<feBlend mode="normal" in2="effect2_dropShadow_507_16998" result="effect3_dropShadow_507_16998"/>
<feBlend mode="normal" in="SourceGraphic" in2="effect3_dropShadow_507_16998" result="shape"/>
</filter>
<clipPath id="clip0_507_16998">
<path d="M17 25C17 16.1634 24.1634 9 33 9H361C369.837 9 377 16.1634 377 25V273C377 281.837 369.837 289 361 289H33C24.1634 289 17 281.837 17 273V25Z" fill="white"/>
</clipPath>
<clipPath id="clip1_507_16998">
<rect width="312" height="104" fill="white" transform="translate(41 85)"/>
</clipPath>
<clipPath id="clip2_507_16998">
<path d="M256 241C256 227.745 266.745 217 280 217H329C342.255 217 353 227.745 353 241V241C353 254.255 342.255 265 329 265H280C266.745 265 256 254.255 256 241V241Z" fill="white"/>
</clipPath>
<clipPath id="clip3_507_16998">
<path d="M143 241C143 227.745 153.745 217 167 217H216C229.255 217 240 227.745 240 241V241C240 254.255 229.255 265 216 265H167C153.745 265 143 254.255 143 241V241Z" fill="white"/>
</clipPath>
</defs>
</svg>
