<svg version="1.1" id="Layer_1" xmlns="http://www.w3.org/2000/svg" x="0" y="0" viewBox="0 0 124 109" style="enable-background:new 0 0 124 109" xml:space="preserve">
  <style>
    .st0{fill:#242e30}
  </style>
  <path class="st0" d="M37.5 21h8.9l18.7 52h-7.3l-4.1-11.4H29.8l-4 11.4h-6.9l18.6-52zm-5.7 34.8h19.9L42 26.7h-.5l-9.7 29.1zM82.7 74c-1.8 0-3.5-.3-5-.9-1.5-.6-2.8-1.4-3.9-2.5s-2-2.3-2.6-3.8c-.6-1.5-.9-3.1-.9-4.9 0-3.4 1.2-6.2 3.7-8.2 2.5-2.1 5.9-3.3 10.5-3.5l10.4-.6v-2.8c0-3-.7-5.2-2.2-6.6-1.4-1.4-3.5-2.1-6.2-2.1-2.3 0-4.3.4-5.9 1.3-1.7.9-2.9 1.8-3.8 2.8L73 38.4c1.4-1.7 3.3-3.1 5.6-4.2 2.4-1.1 5.1-1.7 8.2-1.7 2.7 0 5 .4 6.9 1.1 1.9.7 3.4 1.7 4.5 2.9 1.2 1.2 2 2.7 2.5 4.3.5 1.7.8 3.4.8 5.3V73h-6v-6.7H95c-1.1 2.4-2.6 4.3-4.5 5.7-2.3 1.3-4.7 2-7.8 2zm1-5.5c3.3 0 6-1 8-2.9 2.1-2 3.1-4.6 3.1-7.8v-3.4l-10.1.7c-5.3.4-8 2.7-8 6.7 0 2 .6 3.7 1.9 4.9 1.4 1.2 3 1.8 5.1 1.8zM16.8 84h90.4v4H16.8v-4z"/>
</svg>
