<svg width="375" height="52" viewBox="0 0 375 52" fill="none" xmlns="http://www.w3.org/2000/svg">
<path d="M106.895 18.192C106.618 18.192 106.362 18.1813 106.127 18.16C105.892 18.1493 105.711 18.1387 105.583 18.128V16.96C105.732 16.9813 105.919 17.0027 106.143 17.024C106.367 17.0347 106.527 17.04 106.623 17.04C106.922 17.04 107.146 16.9493 107.295 16.768C107.444 16.5867 107.519 16.2613 107.519 15.792V9.904H105.583V8.752H114.143V18H112.799V9.904H108.879V16C108.879 16.256 108.842 16.5173 108.767 16.784C108.692 17.04 108.575 17.2747 108.415 17.488C108.255 17.6907 108.047 17.8613 107.791 18C107.546 18.128 107.247 18.192 106.895 18.192ZM116.987 8.752H118.347V18H116.987V8.752ZM125.35 9.904H120.198V6.72H121.542V8.752H126.838V9.84L123.75 18H122.262L125.35 9.904ZM128.458 16.848H133.114V12.592C133.114 11.6213 132.938 10.9333 132.586 10.528C132.245 10.112 131.685 9.904 130.906 9.904H128.458V8.752H130.954C132.149 8.752 133.029 9.072 133.594 9.712C134.17 10.352 134.458 11.312 134.458 12.592V16.848H135.786V18H128.458V16.848ZM137.239 16.752L139.895 14.848L139.383 9.904H137.319V8.752H140.583L141.639 18H140.295L140.103 16.176L137.239 18.192V16.752ZM149.467 11.904C149.467 11.264 149.318 10.7733 149.019 10.432C148.72 10.08 148.283 9.904 147.707 9.904H143.627V8.752H147.707C148.656 8.752 149.408 9.01867 149.963 9.552C150.528 10.0853 150.811 10.8693 150.811 11.904V18H149.467V11.904ZM143.627 12.56H144.987V18H143.627V12.56ZM159.327 11.904C159.327 11.264 159.177 10.7733 158.879 10.432C158.58 10.08 158.143 9.904 157.567 9.904H153.487V8.752H157.567C158.516 8.752 159.268 9.01867 159.823 9.552C160.388 10.0853 160.671 10.8693 160.671 11.904V18H159.327V11.904ZM153.487 12.56H154.847V18H153.487V12.56ZM163.346 8.752H164.706V18H163.346V8.752ZM171.393 8.752H175.697C176.646 8.752 177.398 9.01867 177.953 9.552C178.518 10.0853 178.801 10.8693 178.801 11.904V18H171.393V8.752ZM172.753 9.888V16.848H177.457V11.904C177.457 11.264 177.302 10.768 176.993 10.416C176.694 10.064 176.257 9.888 175.681 9.888H172.753ZM181.391 8.752H182.751V14.88H181.391V8.752ZM185.102 16.096C185.102 15.6907 185.15 15.2907 185.246 14.896C185.342 14.5013 185.48 14.1387 185.662 13.808C185.843 13.4667 186.067 13.1627 186.334 12.896C186.6 12.6187 186.904 12.4 187.246 12.24L185.006 8.752H186.494L189.214 13.024C189.758 12.8747 190.2 12.544 190.542 12.032C190.883 11.5093 191.054 10.848 191.054 10.048V8.752H192.414V10.016C192.414 10.464 192.355 10.896 192.238 11.312C192.131 11.728 191.971 12.1173 191.758 12.48C191.555 12.832 191.299 13.1467 190.99 13.424C190.691 13.6907 190.35 13.8933 189.966 14.032L192.494 18H191.022L187.966 13.216C187.507 13.4293 187.139 13.7867 186.862 14.288C186.584 14.7787 186.446 15.3813 186.446 16.096V18H185.102V16.096ZM194.286 16.848H196.862V11.552C196.862 10.9227 196.761 10.4907 196.558 10.256C196.356 10.0213 195.972 9.904 195.406 9.904H194.366V8.752H195.502C196.441 8.752 197.124 8.96533 197.55 9.392C197.988 9.808 198.206 10.528 198.206 11.552V18H194.286V16.848ZM201.645 18.192C201.368 18.192 201.112 18.1813 200.877 18.16C200.642 18.1493 200.461 18.1387 200.333 18.128V16.96C200.482 16.9813 200.669 17.0027 200.893 17.024C201.117 17.0347 201.277 17.04 201.373 17.04C201.672 17.04 201.896 16.9493 202.045 16.768C202.194 16.5867 202.269 16.2613 202.269 15.792V9.904H200.333V8.752H208.893V18H207.549V9.904H203.629V16C203.629 16.256 203.592 16.5173 203.517 16.784C203.442 17.04 203.325 17.2747 203.165 17.488C203.005 17.6907 202.797 17.8613 202.541 18C202.296 18.128 201.997 18.192 201.645 18.192ZM217.577 11.904C217.577 11.264 217.427 10.7733 217.129 10.432C216.83 10.08 216.393 9.904 215.817 9.904H211.737V8.752H215.817C216.766 8.752 217.518 9.01867 218.073 9.552C218.638 10.0853 218.921 10.8693 218.921 11.904V18H217.577V11.904ZM211.737 12.56H213.097V18H211.737V12.56ZM226.208 18.192C225.93 18.192 225.674 18.1813 225.44 18.16C225.205 18.1493 225.024 18.1387 224.896 18.128V16.96C225.045 16.9813 225.232 17.0027 225.456 17.024C225.68 17.0347 225.84 17.04 225.936 17.04C226.234 17.04 226.458 16.9493 226.608 16.768C226.757 16.5867 226.832 16.2613 226.832 15.792V9.904H224.896V8.752H233.456V18H232.112V9.904H228.192V16C228.192 16.256 228.154 16.5173 228.08 16.784C228.005 17.04 227.888 17.2747 227.728 17.488C227.568 17.6907 227.36 17.8613 227.104 18C226.858 18.128 226.56 18.192 226.208 18.192ZM235.883 16.096C235.883 15.6907 235.931 15.2907 236.027 14.896C236.123 14.5013 236.262 14.1387 236.443 13.808C236.624 13.4667 236.848 13.1627 237.115 12.896C237.382 12.6187 237.686 12.4 238.027 12.24L235.787 8.752H237.275L239.995 13.024C240.539 12.8747 240.982 12.544 241.323 12.032C241.664 11.5093 241.835 10.848 241.835 10.048V8.752H243.195V10.016C243.195 10.464 243.136 10.896 243.019 11.312C242.912 11.728 242.752 12.1173 242.539 12.48C242.336 12.832 242.08 13.1467 241.771 13.424C241.472 13.6907 241.131 13.8933 240.747 14.032L243.275 18H241.803L238.747 13.216C238.288 13.4293 237.92 13.7867 237.643 14.288C237.366 14.7787 237.227 15.3813 237.227 16.096V18H235.883V16.096ZM249.375 8.752H250.735V14.88H249.375V8.752ZM254.27 18.192C253.993 18.192 253.737 18.1813 253.502 18.16C253.267 18.1493 253.086 18.1387 252.958 18.128V16.96C253.107 16.9813 253.294 17.0027 253.518 17.024C253.742 17.0347 253.902 17.04 253.998 17.04C254.297 17.04 254.521 16.9493 254.67 16.768C254.819 16.5867 254.894 16.2613 254.894 15.792V9.904H252.958V8.752H261.518V18H260.174V9.904H256.254V16C256.254 16.256 256.217 16.5173 256.142 16.784C256.067 17.04 255.95 17.2747 255.79 17.488C255.63 17.6907 255.422 17.8613 255.166 18C254.921 18.128 254.622 18.192 254.27 18.192ZM268.522 9.904H263.37V6.72H264.714V8.752H270.01V9.84L266.922 18H265.434L268.522 9.904ZM271.63 16.848H276.286V12.592C276.286 11.6213 276.11 10.9333 275.758 10.528C275.417 10.112 274.857 9.904 274.078 9.904H271.63V8.752H274.126C275.321 8.752 276.201 9.072 276.766 9.712C277.342 10.352 277.63 11.312 277.63 12.592V16.848H278.958V18H271.63V16.848ZM280.875 8.752H282.235V14.88H280.875V8.752ZM291.018 9.904H285.002V8.752H292.506V9.84L289.866 18H288.378L291.018 9.904ZM285.002 12.544H286.362V20.96H285.002V12.544ZM294.658 8.752H296.018V18H294.658V8.752ZM302.625 8.752H303.985V14.88H302.625V8.752ZM307.52 18.192C307.243 18.192 306.987 18.1813 306.752 18.16C306.517 18.1493 306.336 18.1387 306.208 18.128V16.96C306.357 16.9813 306.544 17.0027 306.768 17.024C306.992 17.0347 307.152 17.04 307.248 17.04C307.547 17.04 307.771 16.9493 307.92 16.768C308.069 16.5867 308.144 16.2613 308.144 15.792V9.904H306.208V8.752H314.768V18H313.424V9.904H309.504V16C309.504 16.256 309.467 16.5173 309.392 16.784C309.317 17.04 309.2 17.2747 309.04 17.488C308.88 17.6907 308.672 17.8613 308.416 18C308.171 18.128 307.872 18.192 307.52 18.192ZM317.196 16.096C317.196 15.6907 317.244 15.2907 317.34 14.896C317.436 14.5013 317.574 14.1387 317.756 13.808C317.937 13.4667 318.161 13.1627 318.428 12.896C318.694 12.6187 318.998 12.4 319.34 12.24L317.1 8.752H318.588L321.308 13.024C321.852 12.8747 322.294 12.544 322.636 12.032C322.977 11.5093 323.148 10.848 323.148 10.048V8.752H324.508V10.016C324.508 10.464 324.449 10.896 324.332 11.312C324.225 11.728 324.065 12.1173 323.852 12.48C323.649 12.832 323.393 13.1467 323.084 13.424C322.785 13.6907 322.444 13.8933 322.06 14.032L324.588 18H323.116L320.06 13.216C319.601 13.4293 319.233 13.7867 318.956 14.288C318.678 14.7787 318.539 15.3813 318.539 16.096V18H317.196V16.096ZM330.748 12.592C330.748 11.6213 330.577 10.9333 330.236 10.528C329.895 10.112 329.335 9.904 328.556 9.904H325.932V8.752H328.588C329.783 8.752 330.663 9.072 331.228 9.712C331.804 10.352 332.092 11.312 332.092 12.592V18H330.748V12.592ZM340.784 9.904H334.768V8.752H342.272V9.84L339.632 18H338.144L340.784 9.904ZM334.768 12.544H336.128V20.96H334.768V12.544Z" fill="black" fill-opacity="0.76"/>
<path d="M104.703 20.192H220.169V20.992H104.703V20.192Z" fill="black" fill-opacity="0.76"/>
<mask id="mask0_27772_2890" style="mask-type:luminance" maskUnits="userSpaceOnUse" x="354" y="3" width="18" height="18">
<path fill-rule="evenodd" clip-rule="evenodd" d="M356 3H370C371.1 3 372 3.9 372 5V19C372 20.1 371.1 21 370 21H356C354.9 21 354 20.1 354 19V5C354 3.9 354.9 3 356 3ZM370 19V5H356V19H370Z" fill="white"/>
</mask>
<g mask="url(#mask0_27772_2890)">
<rect x="351" width="24" height="24" fill="#CC0300"/>
</g>
<g clip-path="url(#clip0_27772_2890)">
<g clip-path="url(#clip1_27772_2890)">
<path d="M162.27 47.168C162.027 47.168 161.803 47.1587 161.598 47.14C161.392 47.1307 161.234 47.1213 161.122 47.112V46.09C161.252 46.1087 161.416 46.1273 161.612 46.146C161.808 46.1553 161.948 46.16 162.032 46.16C162.293 46.16 162.489 46.0807 162.62 45.922C162.75 45.7633 162.816 45.4787 162.816 45.068V39.916H161.122V38.908H168.612V47H167.436V39.916H164.006V45.25C164.006 45.474 163.973 45.7027 163.908 45.936C163.842 46.16 163.74 46.3653 163.6 46.552C163.46 46.7293 163.278 46.8787 163.054 47C162.839 47.112 162.578 47.168 162.27 47.168ZM171.1 38.908H172.29V47H171.1V38.908ZM178.417 39.916H173.909V37.13H175.085V38.908H179.719V39.86L177.017 47H175.715L178.417 39.916ZM181.137 45.992H185.211V42.268C185.211 41.4187 185.057 40.8167 184.749 40.462C184.451 40.098 183.961 39.916 183.279 39.916H181.137V38.908H183.321C184.367 38.908 185.137 39.188 185.631 39.748C186.135 40.308 186.387 41.148 186.387 42.268V45.992H187.549V47H181.137V45.992ZM188.821 45.908L191.145 44.242L190.697 39.916H188.891V38.908H191.747L192.671 47H191.495L191.327 45.404L188.821 47.168V45.908ZM199.52 41.666C199.52 41.106 199.389 40.6767 199.128 40.378C198.867 40.07 198.484 39.916 197.98 39.916H194.41V38.908H197.98C198.811 38.908 199.469 39.1413 199.954 39.608C200.449 40.0747 200.696 40.7607 200.696 41.666V47H199.52V41.666ZM194.41 42.24H195.6V47H194.41V42.24ZM208.147 41.666C208.147 41.106 208.016 40.6767 207.755 40.378C207.494 40.07 207.111 39.916 206.607 39.916H203.037V38.908H206.607C207.438 38.908 208.096 39.1413 208.581 39.608C209.076 40.0747 209.323 40.7607 209.323 41.666V47H208.147V41.666ZM203.037 42.24H204.227V47H203.037V42.24ZM211.664 38.908H212.854V47H211.664V38.908ZM218.705 38.908H222.471C223.302 38.908 223.96 39.1413 224.445 39.608C224.94 40.0747 225.187 40.7607 225.187 41.666V47H218.705V38.908ZM219.895 39.902V45.992H224.011V41.666C224.011 41.106 223.876 40.672 223.605 40.364C223.344 40.056 222.961 39.902 222.457 39.902H219.895ZM227.453 38.908H228.643V44.27H227.453V38.908ZM230.7 45.334C230.7 44.9793 230.742 44.6293 230.826 44.284C230.91 43.9387 231.032 43.6213 231.19 43.332C231.349 43.0333 231.545 42.7673 231.778 42.534C232.012 42.2913 232.278 42.1 232.576 41.96L230.616 38.908H231.918L234.298 42.646C234.774 42.5153 235.162 42.226 235.46 41.778C235.759 41.3207 235.908 40.742 235.908 40.042V38.908H237.098V40.014C237.098 40.406 237.047 40.784 236.944 41.148C236.851 41.512 236.711 41.8527 236.524 42.17C236.347 42.478 236.123 42.7533 235.852 42.996C235.591 43.2293 235.292 43.4067 234.956 43.528L237.168 47H235.88L233.206 42.814C232.805 43.0007 232.483 43.3133 232.24 43.752C231.998 44.1813 231.876 44.7087 231.876 45.334V47H230.7V45.334ZM238.737 45.992H240.991V41.358C240.991 40.8073 240.902 40.4293 240.725 40.224C240.547 40.0187 240.211 39.916 239.717 39.916H238.807V38.908H239.801C240.622 38.908 241.219 39.0947 241.593 39.468C241.975 39.832 242.167 40.462 242.167 41.358V47H238.737V45.992ZM245.176 47.168C244.933 47.168 244.709 47.1587 244.504 47.14C244.298 47.1307 244.14 47.1213 244.028 47.112V46.09C244.158 46.1087 244.322 46.1273 244.518 46.146C244.714 46.1553 244.854 46.16 244.938 46.16C245.199 46.16 245.395 46.0807 245.526 45.922C245.656 45.7633 245.722 45.4787 245.722 45.068V39.916H244.028V38.908H251.518V47H250.342V39.916H246.912V45.25C246.912 45.474 246.879 45.7027 246.814 45.936C246.748 46.16 246.646 46.3653 246.506 46.552C246.366 46.7293 246.184 46.8787 245.96 47C245.745 47.112 245.484 47.168 245.176 47.168ZM257.646 39.916H253.138V37.13H254.314V38.908H258.948V39.86L256.246 47H254.944L257.646 39.916ZM269.315 41.666C269.315 41.106 269.184 40.6767 268.923 40.378C268.662 40.07 268.279 39.916 267.775 39.916H264.205V38.908H267.775C268.606 38.908 269.264 39.1413 269.749 39.608C270.244 40.0747 270.491 40.7607 270.491 41.666V47H269.315V41.666ZM264.205 42.24H265.395V47H264.205V42.24ZM272.734 41.4L272.51 38.908H273.56L273.672 40.042H273.686C273.901 39.6313 274.213 39.314 274.624 39.09C275.044 38.8567 275.548 38.74 276.136 38.74C276.612 38.74 277.037 38.824 277.41 38.992C277.783 39.1507 278.096 39.3747 278.348 39.664C278.609 39.944 278.805 40.2847 278.936 40.686C279.067 41.0873 279.132 41.526 279.132 42.002V47H275.87V45.992H277.956V42.282C277.956 41.918 277.914 41.582 277.83 41.274C277.755 40.966 277.639 40.7 277.48 40.476C277.321 40.2427 277.111 40.0607 276.85 39.93C276.598 39.7993 276.299 39.734 275.954 39.734C275.609 39.734 275.31 39.7993 275.058 39.93C274.806 40.0607 274.596 40.2427 274.428 40.476C274.26 40.7 274.134 40.966 274.05 41.274C273.966 41.582 273.924 41.918 273.924 42.282V47H272.734V41.4ZM280.997 45.978H283.265C283.647 45.978 284.002 45.8987 284.329 45.74C284.655 45.572 284.935 45.3527 285.169 45.082C285.402 44.802 285.584 44.48 285.715 44.116C285.845 43.7427 285.911 43.3507 285.911 42.94C285.911 42.5387 285.845 42.156 285.715 41.792C285.584 41.4187 285.402 41.0967 285.169 40.826C284.935 40.546 284.655 40.3267 284.329 40.168C284.002 40 283.647 39.916 283.265 39.916H280.997V38.908H283.265C283.918 38.908 284.487 39.0387 284.973 39.3C285.458 39.552 285.859 39.874 286.177 40.266C286.494 40.658 286.732 41.092 286.891 41.568C287.049 42.044 287.129 42.5013 287.129 42.94C287.129 43.3787 287.049 43.8407 286.891 44.326C286.732 44.802 286.494 45.2407 286.177 45.642C285.859 46.034 285.458 46.3607 284.973 46.622C284.487 46.874 283.918 47 283.265 47H280.997V45.978ZM292.267 47.168C291.614 47.168 291.045 47.042 290.559 46.79C290.074 46.5287 289.673 46.1973 289.355 45.796C289.038 45.3853 288.8 44.9327 288.641 44.438C288.492 43.934 288.417 43.4347 288.417 42.94C288.417 42.4547 288.492 41.9647 288.641 41.47C288.8 40.966 289.038 40.5133 289.355 40.112C289.673 39.7013 290.074 39.37 290.559 39.118C291.045 38.866 291.614 38.74 292.267 38.74C292.921 38.74 293.485 38.866 293.961 39.118C294.447 39.37 294.848 39.7013 295.165 40.112C295.483 40.5133 295.716 40.966 295.865 41.47C296.024 41.9647 296.103 42.4547 296.103 42.94C296.103 43.4347 296.024 43.934 295.865 44.438C295.716 44.9327 295.483 45.3853 295.165 45.796C294.848 46.1973 294.447 46.5287 293.961 46.79C293.485 47.042 292.921 47.168 292.267 47.168ZM292.267 46.132C292.65 46.132 293 46.0527 293.317 45.894C293.644 45.7353 293.924 45.516 294.157 45.236C294.391 44.9467 294.573 44.606 294.703 44.214C294.834 43.822 294.899 43.3973 294.899 42.94C294.899 42.492 294.834 42.0767 294.703 41.694C294.573 41.302 294.391 40.966 294.157 40.686C293.924 40.3967 293.644 40.1727 293.317 40.014C293 39.846 292.65 39.762 292.267 39.762C291.885 39.762 291.53 39.846 291.203 40.014C290.886 40.1727 290.611 40.3967 290.377 40.686C290.144 40.966 289.962 41.302 289.831 41.694C289.701 42.0767 289.635 42.492 289.635 42.94C289.635 43.3973 289.701 43.822 289.831 44.214C289.962 44.606 290.144 44.9467 290.377 45.236C290.611 45.516 290.886 45.7353 291.203 45.894C291.53 46.0527 291.885 46.132 292.267 46.132ZM303.098 41.666C303.098 41.106 302.968 40.6767 302.706 40.378C302.445 40.07 302.062 39.916 301.558 39.916H297.988V38.908H301.558C302.389 38.908 303.047 39.1413 303.532 39.608C304.027 40.0747 304.274 40.7607 304.274 41.666V47H303.098V41.666ZM297.988 42.24H299.178V47H297.988V42.24ZM310.65 47.168C310.408 47.168 310.184 47.1587 309.978 47.14C309.773 47.1307 309.614 47.1213 309.502 47.112V46.09C309.633 46.1087 309.796 46.1273 309.992 46.146C310.188 46.1553 310.328 46.16 310.412 46.16C310.674 46.16 310.87 46.0807 311 45.922C311.131 45.7633 311.196 45.4787 311.196 45.068V39.916H309.502V38.908H316.992V47H315.816V39.916H312.386V45.25C312.386 45.474 312.354 45.7027 312.288 45.936C312.223 46.16 312.12 46.3653 311.98 46.552C311.84 46.7293 311.658 46.8787 311.434 47C311.22 47.112 310.958 47.168 310.65 47.168ZM323.134 47.168C322.453 47.168 321.856 47.0373 321.342 46.776C320.838 46.5147 320.414 46.174 320.068 45.754C319.732 45.334 319.476 44.858 319.298 44.326C319.13 43.794 319.046 43.2527 319.046 42.702V38.908H320.236V42.702C320.236 43.2433 320.311 43.7287 320.46 44.158C320.619 44.5873 320.829 44.956 321.09 45.264C321.352 45.5627 321.655 45.7913 322 45.95C322.355 46.1087 322.733 46.188 323.134 46.188C323.536 46.188 323.909 46.1087 324.254 45.95C324.609 45.7913 324.917 45.5627 325.178 45.264C325.44 44.956 325.645 44.5873 325.794 44.158C325.953 43.7287 326.032 43.2433 326.032 42.702V38.908H327.208V42.702C327.208 43.2527 327.12 43.794 326.942 44.326C326.774 44.858 326.518 45.334 326.172 45.754C325.836 46.174 325.412 46.5147 324.898 46.776C324.394 47.0373 323.806 47.168 323.134 47.168ZM322.546 38.908H323.708V44.508H322.546V38.908ZM332.615 42.268C332.615 41.4187 332.466 40.8167 332.167 40.462C331.869 40.098 331.379 39.916 330.697 39.916H328.401V38.908H330.725C331.771 38.908 332.541 39.188 333.035 39.748C333.539 40.308 333.791 41.148 333.791 42.268V47H332.615V42.268ZM335.265 38.908H341.285V39.916H340.123V47H338.947V39.916H335.265V38.908ZM342.479 45.992H344.733V41.358C344.733 40.8073 344.644 40.4293 344.467 40.224C344.29 40.0187 343.954 39.916 343.459 39.916H342.549V38.908H343.543C344.364 38.908 344.962 39.0947 345.335 39.468C345.718 39.832 345.909 40.462 345.909 41.358V47H342.479V45.992Z" fill="#CC0300"/>
<g clip-path="url(#clip2_27772_2890)">
<path d="M365 50.4766C363.323 50.4766 361.685 49.9794 360.291 49.048C358.897 48.1166 357.81 46.7927 357.169 45.2438C356.527 43.695 356.359 41.9906 356.686 40.3463C357.013 38.702 357.821 37.1916 359.006 36.0062C360.192 34.8207 361.702 34.0134 363.346 33.6863C364.991 33.3592 366.695 33.5271 368.244 34.1687C369.793 34.8103 371.117 35.8967 372.048 37.2907C372.979 38.6846 373.477 40.3235 373.477 42C373.474 44.2472 372.58 46.4016 370.991 47.9906C369.402 49.5797 367.247 50.4737 365 50.4766ZM365 35.1641C363.648 35.1641 362.326 35.565 361.202 36.3161C360.078 37.0673 359.202 38.1349 358.684 39.384C358.167 40.6331 358.032 42.0076 358.295 43.3336C358.559 44.6597 359.21 45.8777 360.166 46.8337C361.122 47.7898 362.34 48.4408 363.666 48.7046C364.992 48.9684 366.367 48.833 367.616 48.3156C368.865 47.7982 369.933 46.922 370.684 45.7978C371.435 44.6737 371.836 43.352 371.836 42C371.836 41.1023 371.659 40.2134 371.316 39.384C370.972 38.5546 370.469 37.801 369.834 37.1663C369.199 36.5315 368.445 36.028 367.616 35.6844C366.787 35.3409 365.898 35.1641 365 35.1641Z" fill="#CC0300"/>
<path d="M363.819 37.7891C364.591 37.5724 365.409 37.5724 366.181 37.7891L365.58 43.0938H364.42L363.819 37.7891ZM366.094 45.2812C366.094 45.4976 366.03 45.709 365.909 45.8889C365.789 46.0688 365.618 46.209 365.419 46.2917C365.219 46.3745 364.999 46.3962 364.787 46.354C364.574 46.3118 364.38 46.2076 364.227 46.0546C364.074 45.9017 363.969 45.7068 363.927 45.4946C363.885 45.2825 363.907 45.0625 363.99 44.8627C364.072 44.6628 364.212 44.492 364.392 44.3718C364.572 44.2516 364.784 44.1875 365 44.1875C365.29 44.1875 365.568 44.3027 365.773 44.5079C365.979 44.713 366.094 44.9912 366.094 45.2812Z" fill="#CC0300"/>
</g>
</g>
</g>
<defs>
<clipPath id="clip0_27772_2890">
<rect width="375" height="24" fill="white" transform="translate(0 28)"/>
</clipPath>
<clipPath id="clip1_27772_2890">
<rect width="375" height="20" fill="white" transform="translate(0 32)"/>
</clipPath>
<clipPath id="clip2_27772_2890">
<rect width="17.5" height="17.5" fill="white" transform="translate(356.25 33.25)"/>
</clipPath>
</defs>
</svg>
