<svg fill="none" xmlns="http://www.w3.org/2000/svg" viewBox="0 0 253 82">
  <g filter="url(#a)">
    <rect x="5" y="4" width="243" height="72" rx="12" fill="#fff"/>
    <rect x="13" y="12" width="56" height="56" rx="8" fill="#FF8000"/>
    <path d="M88.76 45.824c-.768-.053-1.392-.208-1.872-.464a3.891 3.891 0 0 1-1.184-.944l.88-.8c.288.33.656.597 1.104.8.448.192.992.288 1.632.288.288 0 .56-.021.816-.064a2.3 2.3 0 0 0 .688-.256c.203-.128.363-.288.48-.48a1.45 1.45 0 0 0 .176-.736c0-.267-.059-.485-.176-.656a1.646 1.646 0 0 0-.496-.48 3.677 3.677 0 0 0-.768-.368 170.9 170.9 0 0 0-.96-.352 19.606 19.606 0 0 1-1.104-.416 4.667 4.667 0 0 1-.96-.544 2.57 2.57 0 0 1-.672-.768c-.17-.31-.256-.688-.256-1.136 0-.79.256-1.408.768-1.856.523-.448 1.205-.715 2.048-.8V34.32h1.184v1.472c1.205.117 2.123.603 2.752 1.456l-.88.816a3.654 3.654 0 0 0-1.072-.832c-.416-.224-.912-.336-1.488-.336a3.24 3.24 0 0 0-.72.08 1.69 1.69 0 0 0-.608.24c-.181.117-.33.272-.448.464-.107.181-.16.41-.16.688 0 .267.059.49.176.672.117.17.283.325.496.464.213.139.464.261.752.368l.976.352c.373.128.736.267 1.088.416.363.15.683.33.96.544.288.213.517.475.688.784.17.299.256.672.256 1.12 0 .416-.075.784-.224 1.104a2.22 2.22 0 0 1-.608.8 3.044 3.044 0 0 1-.928.544 4.793 4.793 0 0 1-1.152.256v1.488H88.76v-1.456Zm9.358.368c-.64 0-1.195-.117-1.664-.352a3.347 3.347 0 0 1-1.136-.928 3.794 3.794 0 0 1-.656-1.312 5.793 5.793 0 0 1-.208-1.552c0-.533.07-1.045.208-1.536a3.94 3.94 0 0 1 .64-1.328 3.347 3.347 0 0 1 1.136-.928c.459-.235 1.008-.352 1.648-.352.672 0 1.221.112 1.648.336.427.224.789.523 1.088.896l-.8.752a2.994 2.994 0 0 0-.816-.64c-.277-.16-.64-.24-1.088-.24-.704 0-1.275.272-1.712.816-.427.533-.64 1.275-.64 2.224 0 .47.059.89.176 1.264.117.373.283.693.496.96.213.267.464.47.752.608.288.139.608.208.96.208.427 0 .795-.075 1.104-.224.31-.16.597-.39.864-.688l.768.768a3.662 3.662 0 0 1-1.136.912c-.448.224-.992.336-1.632.336Zm7.596 0c-.629 0-1.184-.107-1.664-.32a3.555 3.555 0 0 1-1.184-.896 3.887 3.887 0 0 1-.704-1.312 5.647 5.647 0 0 1-.224-1.616c0-.576.075-1.115.224-1.616.16-.501.395-.939.704-1.312.32-.373.715-.667 1.184-.88.48-.224 1.035-.336 1.664-.336.63 0 1.174.112 1.632.336.47.213.859.507 1.168.88.31.373.539.81.688 1.312.16.501.24 1.04.24 1.616 0 .576-.08 1.115-.24 1.616a3.658 3.658 0 0 1-.688 1.312 3.377 3.377 0 0 1-1.168.896c-.458.213-1.002.32-1.632.32Zm-2.464-4.144c0 .459.048.88.144 1.264.107.373.262.699.464.976.203.267.459.475.768.624.31.15.672.224 1.088.224.406 0 .758-.075 1.056-.224.31-.15.56-.357.752-.624.203-.277.352-.603.448-.976a4.7 4.7 0 0 0 .16-1.264c0-.459-.053-.875-.16-1.248a2.652 2.652 0 0 0-.448-.976 1.901 1.901 0 0 0-.752-.64c-.298-.15-.65-.224-1.056-.224a2.48 2.48 0 0 0-1.088.224c-.309.15-.565.363-.768.64a2.879 2.879 0 0 0-.464.976c-.096.373-.144.79-.144 1.248Zm8.251-7.648h1.28V46h-1.28V34.4Zm7.12 11.792c-.63 0-1.184-.107-1.664-.32a3.545 3.545 0 0 1-1.184-.896 3.87 3.87 0 0 1-.704-1.312 5.612 5.612 0 0 1-.224-1.616c0-.576.074-1.115.224-1.616a3.87 3.87 0 0 1 .704-1.312 3.37 3.37 0 0 1 1.184-.88c.48-.224 1.034-.336 1.664-.336.629 0 1.173.112 1.632.336.469.213.858.507 1.168.88.309.373.538.81.688 1.312.16.501.24 1.04.24 1.616 0 .576-.08 1.115-.24 1.616a3.69 3.69 0 0 1-.688 1.312c-.31.373-.699.672-1.168.896-.459.213-1.003.32-1.632.32Zm-2.464-4.144c0 .459.048.88.144 1.264.106.373.261.699.464.976.202.267.458.475.768.624.309.15.672.224 1.088.224.405 0 .757-.075 1.056-.224.309-.15.56-.357.752-.624.202-.277.352-.603.448-.976a4.74 4.74 0 0 0 .16-1.264 4.56 4.56 0 0 0-.16-1.248 2.669 2.669 0 0 0-.448-.976 1.908 1.908 0 0 0-.752-.64c-.299-.15-.651-.224-1.056-.224a2.48 2.48 0 0 0-1.088.224 2.02 2.02 0 0 0-.768.64 2.842 2.842 0 0 0-.464.976c-.096.373-.144.79-.144 1.248Zm8.25-3.952h1.216v1.28h.096a2.72 2.72 0 0 1 .736-1.04c.32-.288.72-.432 1.2-.432a2.3 2.3 0 0 1 1.072.24l-.432 1.152a1.3 1.3 0 0 0-.448-.144 2.206 2.206 0 0 0-.464-.048c-.523 0-.939.213-1.248.64-.299.416-.448.95-.448 1.6V46h-1.28v-7.904Zm5.383 2.656h3.68v1.344h-3.68v-1.344Zm9.221 5.44c-.629 0-1.184-.107-1.664-.32a3.555 3.555 0 0 1-1.184-.896 3.887 3.887 0 0 1-.704-1.312 5.647 5.647 0 0 1-.224-1.616c0-.576.075-1.115.224-1.616.16-.501.395-.939.704-1.312.32-.373.715-.667 1.184-.88.48-.224 1.035-.336 1.664-.336.63 0 1.174.112 1.632.336.47.213.859.507 1.168.88.31.373.539.81.688 1.312.16.501.24 1.04.24 1.616 0 .576-.08 1.115-.24 1.616a3.658 3.658 0 0 1-.688 1.312 3.377 3.377 0 0 1-1.168.896c-.458.213-1.002.32-1.632.32Zm-2.464-4.144c0 .459.048.88.144 1.264.107.373.262.699.464.976.203.267.459.475.768.624.31.15.672.224 1.088.224.406 0 .758-.075 1.056-.224.31-.15.56-.357.752-.624.203-.277.352-.603.448-.976a4.7 4.7 0 0 0 .16-1.264c0-.459-.053-.875-.16-1.248a2.652 2.652 0 0 0-.448-.976 1.901 1.901 0 0 0-.752-.64c-.298-.15-.65-.224-1.056-.224a2.48 2.48 0 0 0-1.088.224c-.309.15-.565.363-.768.64a2.879 2.879 0 0 0-.464.976c-.096.373-.144.79-.144 1.248Zm8.251-3.952h1.216v1.28h.096c.17-.416.416-.763.736-1.04.32-.288.72-.432 1.2-.432.405 0 .762.08 1.072.24l-.432 1.152a1.3 1.3 0 0 0-.448-.144 2.213 2.213 0 0 0-.464-.048c-.523 0-.939.213-1.248.64-.299.416-.448.95-.448 1.6V46h-1.28v-7.904Zm7.556 8.096c-.363 0-.699-.059-1.008-.176a2.39 2.39 0 0 1-.784-.496 2.34 2.34 0 0 1-.528-.752 2.653 2.653 0 0 1-.176-.976c0-.683.245-1.232.736-1.648.491-.416 1.189-.65 2.096-.704l2.08-.128v-.56c0-.608-.149-1.045-.448-1.312-.288-.277-.704-.416-1.248-.416-.459 0-.853.085-1.184.256-.331.17-.587.357-.768.56l-.768-.768c.277-.341.651-.619 1.12-.832.48-.224 1.024-.336 1.632-.336.544 0 1.003.075 1.376.224.373.139.672.33.896.576.235.245.4.533.496.864.107.33.16.683.16 1.056V46h-1.2v-1.344h-.096a2.73 2.73 0 0 1-.896 1.136c-.384.267-.88.4-1.488.4Zm.192-1.088c.661 0 1.195-.192 1.6-.576.416-.395.624-.917.624-1.568v-.688l-2.016.144c-1.067.085-1.6.533-1.6 1.344 0 .405.128.73.384.976.267.245.603.368 1.008.368Zm6.064-7.008h1.216v1.248h.096a2.66 2.66 0 0 1 .816-1.024c.352-.277.8-.416 1.344-.416.907 0 1.621.24 2.144.72.533.48.8 1.253.8 2.32V46h-1.28v-4.816c0-.81-.165-1.381-.496-1.712-.32-.341-.795-.512-1.424-.512-.608 0-1.083.208-1.424.624-.341.416-.512 1.024-.512 1.824V46h-1.28v-7.904Zm12.136 11.056c-.682 0-1.274-.123-1.776-.368-.501-.235-.901-.528-1.2-.88l.848-.816c.224.277.512.496.864.656.363.17.763.256 1.2.256.683 0 1.216-.165 1.6-.496.395-.33.592-.912.592-1.744v-1.536h-.096a2.41 2.41 0 0 1-.368.72c-.16.203-.352.379-.576.528-.213.139-.453.25-.72.336a2.783 2.783 0 0 1-.784.112c-.501 0-.96-.09-1.376-.272a3.209 3.209 0 0 1-1.072-.784 3.912 3.912 0 0 1-.704-1.28 5.567 5.567 0 0 1-.24-1.696c0-.619.08-1.173.24-1.664.171-.49.406-.907.704-1.248a3.245 3.245 0 0 1 2.448-1.072c.587 0 1.11.155 1.568.464.47.299.784.715.944 1.248h.096v-1.52h1.216v7.824c0 .97-.293 1.75-.88 2.336-.576.597-1.418.896-2.528.896Zm-.16-4.384c.704 0 1.259-.245 1.664-.736.416-.49.624-1.2.624-2.128 0-.939-.208-1.648-.624-2.128-.405-.48-.96-.72-1.664-.72-.714 0-1.285.24-1.712.72-.416.48-.624 1.19-.624 2.128 0 .928.208 1.637.624 2.128.427.49.998.736 1.712.736Zm9.378 1.424a4.058 4.058 0 0 1-1.552-.288 3.401 3.401 0 0 1-1.184-.816c-.32-.363-.571-.8-.752-1.312a5.438 5.438 0 0 1-.256-1.728c0-.672.09-1.264.272-1.776.181-.523.432-.955.752-1.296a3.14 3.14 0 0 1 1.136-.8 3.886 3.886 0 0 1 1.472-.272c.533 0 1.024.085 1.472.256.448.17.832.427 1.152.768.32.33.57.752.752 1.264.181.501.272 1.088.272 1.76a2.2 2.2 0 0 1-.016.256c0 .085-.006.155-.016.208H177.5c0 .373.064.725.192 1.056.138.32.32.603.544.848.234.235.501.421.8.56.309.139.64.208.992.208.576 0 1.045-.112 1.408-.336.373-.224.682-.496.928-.816l.768.784a3.791 3.791 0 0 1-1.28 1.072c-.502.267-1.131.4-1.888.4Zm-.112-7.232a2.182 2.182 0 0 0-1.712.752c-.192.224-.342.48-.448.768-.096.288-.15.576-.16.864h4.624a2.8 2.8 0 0 0-.176-.864 2.178 2.178 0 0 0-1.152-1.312 2.16 2.16 0 0 0-.976-.208Zm5.407 1.792h3.68v1.344h-3.68v-1.344Zm9.157 5.44c-.768 0-1.413-.139-1.936-.416a3.874 3.874 0 0 1-1.248-1.04l.816-.8c.245.31.549.565.912.768.373.203.843.304 1.408.304.683 0 1.221-.16 1.616-.48.395-.33.592-.816.592-1.456 0-.619-.203-1.072-.608-1.36-.405-.288-.923-.432-1.552-.432h-.96v-1.152h.912c.629 0 1.093-.165 1.392-.496.309-.33.464-.763.464-1.296 0-.31-.053-.57-.16-.784a1.332 1.332 0 0 0-.416-.544 1.514 1.514 0 0 0-.608-.32 2.552 2.552 0 0 0-.704-.096c-.491 0-.917.096-1.28.288a3.058 3.058 0 0 0-.912.72l-.736-.8a3.91 3.91 0 0 1 1.2-.976c.501-.277 1.104-.416 1.808-.416.427 0 .832.064 1.216.192.395.117.736.293 1.024.528.299.224.533.512.704.864.171.341.256.736.256 1.184 0 .597-.155 1.104-.464 1.52-.309.405-.752.71-1.328.912v.096c.288.053.56.15.816.288.267.128.496.299.688.512.203.203.357.448.464.736.117.288.176.608.176.96 0 .459-.085.875-.256 1.248-.16.363-.395.677-.704.944a3.298 3.298 0 0 1-1.12.592 4.856 4.856 0 0 1-1.472.208Zm9.978 0c-.662 0-1.232-.139-1.712-.416a3.484 3.484 0 0 1-1.168-1.136 5.72 5.72 0 0 1-.672-1.712 10.338 10.338 0 0 1-.208-2.128c0-.757.069-1.461.208-2.112.149-.661.373-1.232.672-1.712.309-.49.698-.875 1.168-1.152.48-.277 1.05-.416 1.712-.416.661 0 1.226.139 1.696.416.48.277.869.661 1.168 1.152.309.48.533 1.05.672 1.712a9.45 9.45 0 0 1 .224 2.112c0 .757-.075 1.467-.224 2.128a5.237 5.237 0 0 1-.672 1.712 3.31 3.31 0 0 1-1.168 1.136c-.47.277-1.035.416-1.696.416Zm0-1.152c.394 0 .741-.096 1.04-.288.298-.203.544-.485.736-.848a4.54 4.54 0 0 0 .448-1.344 9.79 9.79 0 0 0 .144-1.76 9.79 9.79 0 0 0-.144-1.76c-.096-.523-.246-.965-.448-1.328-.192-.373-.438-.656-.736-.848a1.81 1.81 0 0 0-1.04-.304c-.395 0-.742.101-1.04.304-.288.192-.534.475-.736.848a4.94 4.94 0 0 0-.448 1.328 9.79 9.79 0 0 0-.144 1.76c0 .65.048 1.237.144 1.76.106.523.256.97.448 1.344.202.363.448.645.736.848.298.192.645.288 1.04.288Z" fill="#242E30"/>
  </g>
  <defs>
    <filter id="a" x="0" y="0" width="253" height="82" filterUnits="userSpaceOnUse" color-interpolation-filters="sRGB">
      <feFlood flood-opacity="0" result="BackgroundImageFix"/>
      <feColorMatrix in="SourceAlpha" values="0 0 0 0 0 0 0 0 0 0 0 0 0 0 0 0 0 0 127 0" result="hardAlpha"/>
      <feOffset dy="1"/>
      <feGaussianBlur stdDeviation="2.5"/>
      <feColorMatrix values="0 0 0 0 0 0 0 0 0 0 0 0 0 0 0 0 0 0 0.06 0"/>
      <feBlend in2="BackgroundImageFix" result="effect1_dropShadow_1376_85922"/>
      <feColorMatrix in="SourceAlpha" values="0 0 0 0 0 0 0 0 0 0 0 0 0 0 0 0 0 0 127 0" result="hardAlpha"/>
      <feMorphology radius="2" in="SourceAlpha" result="effect2_dropShadow_1376_85922"/>
      <feOffset dy="3"/>
      <feGaussianBlur stdDeviation=".5"/>
      <feColorMatrix values="0 0 0 0 0 0 0 0 0 0 0 0 0 0 0 0 0 0 0.07 0"/>
      <feBlend in2="effect1_dropShadow_1376_85922" result="effect2_dropShadow_1376_85922"/>
      <feColorMatrix in="SourceAlpha" values="0 0 0 0 0 0 0 0 0 0 0 0 0 0 0 0 0 0 127 0" result="hardAlpha"/>
      <feOffset dy="2"/>
      <feGaussianBlur stdDeviation="1"/>
      <feColorMatrix values="0 0 0 0 0 0 0 0 0 0 0 0 0 0 0 0 0 0 0.03 0"/>
      <feBlend in2="effect2_dropShadow_1376_85922" result="effect3_dropShadow_1376_85922"/>
      <feBlend in="SourceGraphic" in2="effect3_dropShadow_1376_85922" result="shape"/>
    </filter>
  </defs>
</svg>
