<svg width="300" height="71" viewBox="0 0 300 71" fill="none" xmlns="http://www.w3.org/2000/svg">
<g filter="url(#filter0_ddd_1176_33988)">
<g clip-path="url(#clip0_1176_33988)">
<path d="M10 12.0566C10 7.63836 13.5817 4.05664 18 4.05664H282C286.418 4.05664 290 7.63836 290 12.0566V44.0566C290 48.4749 286.418 52.0566 282 52.0566H18C13.5817 52.0566 10 48.4749 10 44.0566V12.0566Z" fill="#262626"/>
<g clip-path="url(#clip1_1176_33988)">
<path d="M33.0868 27.7195L34.7498 29.5456L34.7607 29.5347L38.9346 25.0021L40.1302 26.1108L35.6737 30.9478C35.4237 31.2086 35.0976 31.3499 34.7498 31.3499C34.402 31.3499 34.0759 31.2086 33.8368 30.9586L31.8802 28.8173L33.0868 27.7195Z" fill="#22BF65"/>
<path fill-rule="evenodd" clip-rule="evenodd" d="M27.8477 28.0565C27.8477 23.5565 31.4998 19.9043 35.9998 19.9043C40.4998 19.9043 44.152 23.5565 44.152 28.0565C44.152 32.5565 40.4998 36.2086 35.9998 36.2086C31.4998 36.2086 27.8477 32.5565 27.8477 28.0565ZM29.4781 28.0565C29.4781 31.6543 32.402 34.5782 35.9998 34.5782C39.5977 34.5782 42.5216 31.6543 42.5216 28.0565C42.5216 24.4586 39.5977 21.5347 35.9998 21.5347C32.402 21.5347 29.4781 24.4586 29.4781 28.0565Z" fill="#22BF65"/>
</g>
<path d="M55.288 23.9566H56.884L60.006 31.7126H60.09L63.212 23.9566H64.836V33.0566H63.716V25.5386H63.632L60.636 33.0566H59.46L56.464 25.5386H56.38V33.0566H55.288V23.9566ZM70.019 33.2246C69.5243 33.2246 69.0716 33.1406 68.661 32.9726C68.2596 32.8046 67.9143 32.5666 67.625 32.2586C67.345 31.9413 67.1256 31.5586 66.967 31.1106C66.8176 30.6626 66.743 30.1586 66.743 29.5986C66.743 29.0106 66.8223 28.4926 66.981 28.0446C67.1396 27.5873 67.359 27.2093 67.639 26.9106C67.919 26.6026 68.2503 26.3693 68.633 26.2106C69.025 26.052 69.4543 25.9726 69.921 25.9726C70.3876 25.9726 70.817 26.0473 71.209 26.1966C71.601 26.346 71.937 26.57 72.217 26.8686C72.497 27.158 72.7163 27.5266 72.875 27.9746C73.0336 28.4133 73.113 28.9266 73.113 29.5146C73.113 29.5893 73.1083 29.664 73.099 29.7386C73.099 29.8133 73.0943 29.874 73.085 29.9206H67.863C67.863 30.2473 67.919 30.5553 68.031 30.8446C68.1523 31.1246 68.311 31.372 68.507 31.5866C68.7123 31.792 68.9456 31.9553 69.207 32.0766C69.4776 32.198 69.767 32.2586 70.075 32.2586C70.579 32.2586 70.9896 32.1606 71.307 31.9646C71.6336 31.7686 71.9043 31.5306 72.119 31.2506L72.791 31.9366C72.4923 32.3286 72.119 32.6413 71.671 32.8746C71.2323 33.108 70.6816 33.2246 70.019 33.2246ZM69.921 26.8966C69.5943 26.8966 69.305 26.9573 69.053 27.0786C68.801 27.2 68.591 27.3586 68.423 27.5546C68.255 27.7506 68.1243 27.9746 68.031 28.2266C67.947 28.4786 67.9003 28.7306 67.891 28.9826H71.937C71.9276 28.7306 71.8763 28.4786 71.783 28.2266C71.699 27.9746 71.573 27.7506 71.405 27.5546C71.237 27.3586 71.027 27.2 70.775 27.0786C70.5323 26.9573 70.2476 26.8966 69.921 26.8966ZM78.2505 31.2646C78.2505 31.0593 78.2038 30.8913 78.1105 30.7606C78.0172 30.6206 77.8865 30.504 77.7185 30.4106C77.5598 30.3173 77.3778 30.238 77.1725 30.1726C76.9672 30.1073 76.7525 30.042 76.5285 29.9766C76.2672 29.902 76.0152 29.8133 75.7725 29.7106C75.5392 29.608 75.3292 29.482 75.1425 29.3326C74.9558 29.174 74.8065 28.9873 74.6945 28.7726C74.5825 28.558 74.5265 28.2966 74.5265 27.9886C74.5265 27.662 74.5872 27.3726 74.7085 27.1206C74.8298 26.8686 74.9978 26.6586 75.2125 26.4906C75.4272 26.3226 75.6792 26.1966 75.9685 26.1126C76.2578 26.0193 76.5705 25.9726 76.9065 25.9726C77.4105 25.9726 77.8725 26.066 78.2925 26.2526C78.7125 26.43 79.0578 26.71 79.3285 27.0926L78.6005 27.7646C78.3952 27.522 78.1525 27.3213 77.8725 27.1626C77.6018 27.004 77.2798 26.9246 76.9065 26.9246C76.7478 26.9246 76.5892 26.9433 76.4305 26.9806C76.2812 27.018 76.1458 27.0786 76.0245 27.1626C75.9032 27.2373 75.8052 27.3353 75.7305 27.4566C75.6558 27.578 75.6185 27.7226 75.6185 27.8906C75.6185 28.096 75.6652 28.2686 75.7585 28.4086C75.8518 28.5393 75.9778 28.6513 76.1365 28.7446C76.3045 28.838 76.4912 28.9173 76.6965 28.9826C76.9018 29.048 77.1165 29.1133 77.3405 29.1786C77.6018 29.2533 77.8492 29.342 78.0825 29.4446C78.3252 29.5473 78.5398 29.678 78.7265 29.8366C78.9132 29.986 79.0625 30.168 79.1745 30.3826C79.2865 30.5973 79.3425 30.8586 79.3425 31.1666C79.3425 31.5306 79.2725 31.8433 79.1325 32.1046C79.0018 32.3566 78.8198 32.5666 78.5865 32.7346C78.3532 32.9026 78.0825 33.024 77.7745 33.0986C77.4665 33.1826 77.1398 33.2246 76.7945 33.2246C76.1878 33.2246 75.6698 33.122 75.2405 32.9166C74.8205 32.7113 74.4892 32.4453 74.2465 32.1186L74.9885 31.4186C75.2032 31.6706 75.4505 31.876 75.7305 32.0346C76.0198 32.1933 76.3792 32.2726 76.8085 32.2726C77.0045 32.2726 77.1865 32.254 77.3545 32.2166C77.5318 32.1793 77.6858 32.1186 77.8165 32.0346C77.9472 31.9506 78.0498 31.848 78.1245 31.7266C78.2085 31.596 78.2505 31.442 78.2505 31.2646ZM84.6079 31.2646C84.6079 31.0593 84.5613 30.8913 84.4679 30.7606C84.3746 30.6206 84.2439 30.504 84.0759 30.4106C83.9173 30.3173 83.7353 30.238 83.5299 30.1726C83.3246 30.1073 83.1099 30.042 82.8859 29.9766C82.6246 29.902 82.3726 29.8133 82.1299 29.7106C81.8966 29.608 81.6866 29.482 81.4999 29.3326C81.3133 29.174 81.1639 28.9873 81.0519 28.7726C80.9399 28.558 80.8839 28.2966 80.8839 27.9886C80.8839 27.662 80.9446 27.3726 81.0659 27.1206C81.1873 26.8686 81.3553 26.6586 81.5699 26.4906C81.7846 26.3226 82.0366 26.1966 82.3259 26.1126C82.6153 26.0193 82.9279 25.9726 83.2639 25.9726C83.7679 25.9726 84.2299 26.066 84.6499 26.2526C85.0699 26.43 85.4153 26.71 85.6859 27.0926L84.9579 27.7646C84.7526 27.522 84.5099 27.3213 84.2299 27.1626C83.9593 27.004 83.6373 26.9246 83.2639 26.9246C83.1053 26.9246 82.9466 26.9433 82.7879 26.9806C82.6386 27.018 82.5033 27.0786 82.3819 27.1626C82.2606 27.2373 82.1626 27.3353 82.0879 27.4566C82.0133 27.578 81.9759 27.7226 81.9759 27.8906C81.9759 28.096 82.0226 28.2686 82.1159 28.4086C82.2093 28.5393 82.3353 28.6513 82.4939 28.7446C82.6619 28.838 82.8486 28.9173 83.0539 28.9826C83.2593 29.048 83.4739 29.1133 83.6979 29.1786C83.9593 29.2533 84.2066 29.342 84.4399 29.4446C84.6826 29.5473 84.8973 29.678 85.0839 29.8366C85.2706 29.986 85.4199 30.168 85.5319 30.3826C85.6439 30.5973 85.6999 30.8586 85.6999 31.1666C85.6999 31.5306 85.6299 31.8433 85.4899 32.1046C85.3593 32.3566 85.1773 32.5666 84.9439 32.7346C84.7106 32.9026 84.4399 33.024 84.1319 33.0986C83.8239 33.1826 83.4973 33.2246 83.1519 33.2246C82.5453 33.2246 82.0273 33.122 81.5979 32.9166C81.1779 32.7113 80.8466 32.4453 80.6039 32.1186L81.3459 31.4186C81.5606 31.6706 81.8079 31.876 82.0879 32.0346C82.3773 32.1933 82.7366 32.2726 83.1659 32.2726C83.3619 32.2726 83.5439 32.254 83.7119 32.2166C83.8893 32.1793 84.0433 32.1186 84.1739 32.0346C84.3046 31.9506 84.4073 31.848 84.4819 31.7266C84.5659 31.596 84.6079 31.442 84.6079 31.2646ZM89.2414 33.2246C88.9241 33.2246 88.6301 33.1733 88.3594 33.0706C88.0981 32.968 87.8694 32.8233 87.6734 32.6366C87.4774 32.45 87.3234 32.2306 87.2114 31.9786C87.1087 31.7173 87.0574 31.4326 87.0574 31.1246C87.0574 30.5273 87.2721 30.0466 87.7014 29.6826C88.1307 29.3186 88.7421 29.1133 89.5354 29.0666L91.3554 28.9546V28.4646C91.3554 27.9326 91.2247 27.55 90.9634 27.3166C90.7114 27.074 90.3474 26.9526 89.8714 26.9526C89.4701 26.9526 89.1247 27.0273 88.8354 27.1766C88.5461 27.326 88.3221 27.4893 88.1634 27.6666L87.4914 26.9946C87.7341 26.696 88.0607 26.4533 88.4714 26.2666C88.8914 26.0706 89.3674 25.9726 89.8994 25.9726C90.3754 25.9726 90.7767 26.038 91.1034 26.1686C91.4301 26.29 91.6914 26.458 91.8874 26.6726C92.0927 26.8873 92.2374 27.1393 92.3214 27.4286C92.4147 27.718 92.4614 28.026 92.4614 28.3526V33.0566H91.4114V31.8806H91.3274C91.1407 32.3006 90.8794 32.632 90.5434 32.8746C90.2074 33.108 89.7734 33.2246 89.2414 33.2246ZM89.4094 32.2726C89.9881 32.2726 90.4547 32.1046 90.8094 31.7686C91.1734 31.4233 91.3554 30.966 91.3554 30.3966V29.7946L89.5914 29.9206C88.6581 29.9953 88.1914 30.3873 88.1914 31.0966C88.1914 31.4513 88.3034 31.736 88.5274 31.9506C88.7607 32.1653 89.0547 32.2726 89.4094 32.2726ZM97.4734 35.8146C96.8761 35.8146 96.3581 35.7073 95.9194 35.4926C95.4807 35.2873 95.1307 35.0306 94.8694 34.7226L95.6114 34.0086C95.8074 34.2513 96.0594 34.4426 96.3674 34.5826C96.6847 34.732 97.0347 34.8066 97.4174 34.8066C98.0147 34.8066 98.4814 34.662 98.8174 34.3726C99.1627 34.0833 99.3354 33.5746 99.3354 32.8466V31.5026H99.2514C99.1767 31.736 99.0694 31.946 98.9294 32.1326C98.7894 32.31 98.6214 32.464 98.4254 32.5946C98.2387 32.716 98.0287 32.814 97.7954 32.8886C97.5714 32.954 97.3427 32.9866 97.1094 32.9866C96.6707 32.9866 96.2694 32.9073 95.9054 32.7486C95.5507 32.59 95.2381 32.3613 94.9674 32.0626C94.7061 31.7546 94.5007 31.3813 94.3514 30.9426C94.2114 30.504 94.1414 30.0093 94.1414 29.4586C94.1414 28.9173 94.2114 28.432 94.3514 28.0026C94.5007 27.5733 94.7061 27.2093 94.9674 26.9106C95.2381 26.612 95.5507 26.3833 95.9054 26.2246C96.2694 26.0566 96.6707 25.9726 97.1094 25.9726C97.6227 25.9726 98.0801 26.108 98.4814 26.3786C98.8921 26.64 99.1674 27.004 99.3074 27.4706H99.3914V26.1406H100.455V32.9866C100.455 33.836 100.199 34.5173 99.6854 35.0306C99.1814 35.5533 98.4441 35.8146 97.4734 35.8146ZM97.3334 31.9786C97.9494 31.9786 98.4347 31.764 98.7894 31.3346C99.1534 30.9053 99.3354 30.2846 99.3354 29.4726C99.3354 28.6513 99.1534 28.0306 98.7894 27.6106C98.4347 27.1906 97.9494 26.9806 97.3334 26.9806C96.7081 26.9806 96.2087 27.1906 95.8354 27.6106C95.4714 28.0306 95.2894 28.6513 95.2894 29.4726C95.2894 30.2846 95.4714 30.9053 95.8354 31.3346C96.2087 31.764 96.7081 31.9786 97.3334 31.9786ZM105.538 33.2246C105.044 33.2246 104.591 33.1406 104.18 32.9726C103.779 32.8046 103.434 32.5666 103.144 32.2586C102.864 31.9413 102.645 31.5586 102.486 31.1106C102.337 30.6626 102.262 30.1586 102.262 29.5986C102.262 29.0106 102.342 28.4926 102.5 28.0446C102.659 27.5873 102.878 27.2093 103.158 26.9106C103.438 26.6026 103.77 26.3693 104.152 26.2106C104.544 26.052 104.974 25.9726 105.44 25.9726C105.907 25.9726 106.336 26.0473 106.728 26.1966C107.12 26.346 107.456 26.57 107.736 26.8686C108.016 27.158 108.236 27.5266 108.394 27.9746C108.553 28.4133 108.632 28.9266 108.632 29.5146C108.632 29.5893 108.628 29.664 108.618 29.7386C108.618 29.8133 108.614 29.874 108.604 29.9206H103.382C103.382 30.2473 103.438 30.5553 103.55 30.8446C103.672 31.1246 103.83 31.372 104.026 31.5866C104.232 31.792 104.465 31.9553 104.726 32.0766C104.997 32.198 105.286 32.2586 105.594 32.2586C106.098 32.2586 106.509 32.1606 106.826 31.9646C107.153 31.7686 107.424 31.5306 107.638 31.2506L108.31 31.9366C108.012 32.3286 107.638 32.6413 107.19 32.8746C106.752 33.108 106.201 33.2246 105.538 33.2246ZM105.44 26.8966C105.114 26.8966 104.824 26.9573 104.572 27.0786C104.32 27.2 104.11 27.3586 103.942 27.5546C103.774 27.7506 103.644 27.9746 103.55 28.2266C103.466 28.4786 103.42 28.7306 103.41 28.9826H107.456C107.447 28.7306 107.396 28.4786 107.302 28.2266C107.218 27.9746 107.092 27.7506 106.924 27.5546C106.756 27.3586 106.546 27.2 106.294 27.0786C106.052 26.9573 105.767 26.8966 105.44 26.8966ZM117.133 31.2646C117.133 31.0593 117.087 30.8913 116.993 30.7606C116.9 30.6206 116.769 30.504 116.601 30.4106C116.443 30.3173 116.261 30.238 116.055 30.1726C115.85 30.1073 115.635 30.042 115.411 29.9766C115.15 29.902 114.898 29.8133 114.655 29.7106C114.422 29.608 114.212 29.482 114.025 29.3326C113.839 29.174 113.689 28.9873 113.577 28.7726C113.465 28.558 113.409 28.2966 113.409 27.9886C113.409 27.662 113.47 27.3726 113.591 27.1206C113.713 26.8686 113.881 26.6586 114.095 26.4906C114.31 26.3226 114.562 26.1966 114.851 26.1126C115.141 26.0193 115.453 25.9726 115.789 25.9726C116.293 25.9726 116.755 26.066 117.175 26.2526C117.595 26.43 117.941 26.71 118.211 27.0926L117.483 27.7646C117.278 27.522 117.035 27.3213 116.755 27.1626C116.485 27.004 116.163 26.9246 115.789 26.9246C115.631 26.9246 115.472 26.9433 115.313 26.9806C115.164 27.018 115.029 27.0786 114.907 27.1626C114.786 27.2373 114.688 27.3353 114.613 27.4566C114.539 27.578 114.501 27.7226 114.501 27.8906C114.501 28.096 114.548 28.2686 114.641 28.4086C114.735 28.5393 114.861 28.6513 115.019 28.7446C115.187 28.838 115.374 28.9173 115.579 28.9826C115.785 29.048 115.999 29.1133 116.223 29.1786C116.485 29.2533 116.732 29.342 116.965 29.4446C117.208 29.5473 117.423 29.678 117.609 29.8366C117.796 29.986 117.945 30.168 118.057 30.3826C118.169 30.5973 118.225 30.8586 118.225 31.1666C118.225 31.5306 118.155 31.8433 118.015 32.1046C117.885 32.3566 117.703 32.5666 117.469 32.7346C117.236 32.9026 116.965 33.024 116.657 33.0986C116.349 33.1826 116.023 33.2246 115.677 33.2246C115.071 33.2246 114.553 33.122 114.123 32.9166C113.703 32.7113 113.372 32.4453 113.129 32.1186L113.871 31.4186C114.086 31.6706 114.333 31.876 114.613 32.0346C114.903 32.1933 115.262 32.2726 115.691 32.2726C115.887 32.2726 116.069 32.254 116.237 32.2166C116.415 32.1793 116.569 32.1186 116.699 32.0346C116.83 31.9506 116.933 31.848 117.007 31.7266C117.091 31.596 117.133 31.442 117.133 31.2646ZM122.861 33.2246C122.366 33.2246 121.913 33.1406 121.503 32.9726C121.101 32.8046 120.756 32.5666 120.467 32.2586C120.187 31.9413 119.967 31.5586 119.809 31.1106C119.659 30.6626 119.585 30.1586 119.585 29.5986C119.585 29.0106 119.664 28.4926 119.823 28.0446C119.981 27.5873 120.201 27.2093 120.481 26.9106C120.761 26.6026 121.092 26.3693 121.475 26.2106C121.867 26.052 122.296 25.9726 122.763 25.9726C123.229 25.9726 123.659 26.0473 124.051 26.1966C124.443 26.346 124.779 26.57 125.059 26.8686C125.339 27.158 125.558 27.5266 125.717 27.9746C125.875 28.4133 125.955 28.9266 125.955 29.5146C125.955 29.5893 125.95 29.664 125.941 29.7386C125.941 29.8133 125.936 29.874 125.927 29.9206H120.705C120.705 30.2473 120.761 30.5553 120.873 30.8446C120.994 31.1246 121.153 31.372 121.349 31.5866C121.554 31.792 121.787 31.9553 122.049 32.0766C122.319 32.198 122.609 32.2586 122.917 32.2586C123.421 32.2586 123.831 32.1606 124.149 31.9646C124.475 31.7686 124.746 31.5306 124.961 31.2506L125.633 31.9366C125.334 32.3286 124.961 32.6413 124.513 32.8746C124.074 33.108 123.523 33.2246 122.861 33.2246ZM122.763 26.8966C122.436 26.8966 122.147 26.9573 121.895 27.0786C121.643 27.2 121.433 27.3586 121.265 27.5546C121.097 27.7506 120.966 27.9746 120.873 28.2266C120.789 28.4786 120.742 28.7306 120.733 28.9826H124.779C124.769 28.7306 124.718 28.4786 124.625 28.2266C124.541 27.9746 124.415 27.7506 124.247 27.5546C124.079 27.3586 123.869 27.2 123.617 27.0786C123.374 26.9573 123.089 26.8966 122.763 26.8966ZM127.76 26.1406H128.824V27.2326H128.908C129.076 26.8686 129.314 26.57 129.622 26.3366C129.93 26.094 130.322 25.9726 130.798 25.9726C131.592 25.9726 132.217 26.1826 132.674 26.6026C133.141 27.0226 133.374 27.6993 133.374 28.6326V33.0566H132.254V28.8426C132.254 28.1333 132.11 27.634 131.82 27.3446C131.54 27.046 131.125 26.8966 130.574 26.8966C130.042 26.8966 129.627 27.0786 129.328 27.4426C129.03 27.8066 128.88 28.3386 128.88 29.0386V33.0566H127.76V26.1406ZM137.75 33.2246C137.124 33.2246 136.667 33.038 136.378 32.6646C136.088 32.2913 135.944 31.778 135.944 31.1246V27.0506H134.712V26.1406H135.944V24.2646H137.05V26.1406H139.052V27.0506H137.05V31.0266C137.05 31.4746 137.134 31.7873 137.302 31.9646C137.479 32.142 137.703 32.2306 137.974 32.2306C138.16 32.2306 138.328 32.198 138.478 32.1326C138.627 32.058 138.767 31.96 138.898 31.8386L139.402 32.6226C138.972 33.024 138.422 33.2246 137.75 33.2246Z" fill="white"/>
<path d="M246 28.0566C246 19.2201 253.163 12.0566 262 12.0566C270.837 12.0566 278 19.2201 278 28.0566C278 36.8932 270.837 44.0566 262 44.0566C253.163 44.0566 246 36.8932 246 28.0566Z" fill="white" fill-opacity="0.01"/>
<path d="M266.834 22.063L262 26.8974L257.165 22.063L256.006 23.2224L260.84 28.0568L256.006 32.8912L257.165 34.0505L262 29.2161L266.834 34.0505L267.993 32.8912L263.159 28.0568L267.993 23.2224L266.834 22.063Z" fill="white"/>
</g>
</g>
<defs>
<filter id="filter0_ddd_1176_33988" x="0" y="0.0566406" width="300" height="70" filterUnits="userSpaceOnUse" color-interpolation-filters="sRGB">
<feFlood flood-opacity="0" result="BackgroundImageFix"/>
<feColorMatrix in="SourceAlpha" type="matrix" values="0 0 0 0 0 0 0 0 0 0 0 0 0 0 0 0 0 0 127 0" result="hardAlpha"/>
<feOffset dy="4"/>
<feGaussianBlur stdDeviation="3"/>
<feColorMatrix type="matrix" values="0 0 0 0 0 0 0 0 0 0 0 0 0 0 0 0 0 0 0.04 0"/>
<feBlend mode="normal" in2="BackgroundImageFix" result="effect1_dropShadow_1176_33988"/>
<feColorMatrix in="SourceAlpha" type="matrix" values="0 0 0 0 0 0 0 0 0 0 0 0 0 0 0 0 0 0 127 0" result="hardAlpha"/>
<feMorphology radius="2" operator="erode" in="SourceAlpha" result="effect2_dropShadow_1176_33988"/>
<feOffset dy="8"/>
<feGaussianBlur stdDeviation="6"/>
<feColorMatrix type="matrix" values="0 0 0 0 0 0 0 0 0 0 0 0 0 0 0 0 0 0 0.06 0"/>
<feBlend mode="normal" in2="effect1_dropShadow_1176_33988" result="effect2_dropShadow_1176_33988"/>
<feColorMatrix in="SourceAlpha" type="matrix" values="0 0 0 0 0 0 0 0 0 0 0 0 0 0 0 0 0 0 127 0" result="hardAlpha"/>
<feOffset dy="2"/>
<feGaussianBlur stdDeviation="3"/>
<feColorMatrix type="matrix" values="0 0 0 0 0 0 0 0 0 0 0 0 0 0 0 0 0 0 0.04 0"/>
<feBlend mode="normal" in2="effect2_dropShadow_1176_33988" result="effect3_dropShadow_1176_33988"/>
<feBlend mode="normal" in="SourceGraphic" in2="effect3_dropShadow_1176_33988" result="shape"/>
</filter>
<clipPath id="clip0_1176_33988">
<path d="M10 12.0566C10 7.63836 13.5817 4.05664 18 4.05664H282C286.418 4.05664 290 7.63836 290 12.0566V44.0566C290 48.4749 286.418 52.0566 282 52.0566H18C13.5817 52.0566 10 48.4749 10 44.0566V12.0566Z" fill="white"/>
</clipPath>
<clipPath id="clip1_1176_33988">
<rect width="17.5" height="17.5" fill="white" transform="translate(27.25 19.3066)"/>
</clipPath>
</defs>
</svg>
